0
SECTION
2
HEADER
9
$INSUNITS
70
4
9
$ACADVER
1
AC1014
9
$HANDSEED
5
FFFF
0
ENDSEC
0
SECTION
2
TABLES
0
TABLE
2
VPORT
5
8
100
AcDbSymbolTable
0
ENDTAB
0
TABLE
2
LTYPE
5
5
100
AcDbSymbolTable
0
LTYPE
5
14
100
AcDbSymbolTableRecord
100
AcDbLinetypeTableRecord
2
BYBLOCK
70
0
0
LTYPE
5
15
100
AcDbSymbolTableRecord
100
AcDbLinetypeTableRecord
2
BYLAYER
70
0
0
LTYPE
5
16
100
AcDbSymbolTableRecord
100
AcDbLinetypeTableRecord
2
DASHED
70
0
3
Dashed __ __ __ __ __ __ __ __ __ __ __ __ __ _
72
65
73
2
40
0.75
49
0.5
74
0
49
-0.25
74
0
0
ENDTAB
0
TABLE
2
LAYER
5
2
100
AcDbSymbolTable
70
2
0
LAYER
5
50
100
AcDbSymbolTableRecord
100
AcDbLayerTableRecord
2
0
70
0
62
7
6
CONTINUOUS
0
ENDTAB
0
TABLE
2
STYLE
5
3
100
AcDbSymbolTable
70
1
0
STYLE
5
11
100
AcDbSymbolTableRecord
100
AcDbTextStyleTableRecord
2
STANDARD
70
0
0
ENDTAB
0
TABLE
2
VIEW
5
6
100
AcDbSymbolTable
70
0
0
ENDTAB
0
TABLE
2
UCS
5
7
100
AcDbSymbolTable
70
0
0
ENDTAB
0
TABLE
2
APPID
5
9
100
AcDbSymbolTable
70
2
0
APPID
5
12
100
AcDbSymbolTableRecord
100
AcDbRegAppTableRecord
2
ACAD
70
0
0
ENDTAB
0
TABLE
2
DIMSTYLE
5
A
100
AcDbSymbolTable
70
1
0
ENDTAB
0
TABLE
2
BLOCK_RECORD
5
1
100
AcDbSymbolTable
70
1
0
BLOCK_RECORD
5
1F
100
AcDbSymbolTableRecord
100
AcDbBlockTableRecord
2
*MODEL_SPACE
0
BLOCK_RECORD
5
1B
100
AcDbSymbolTableRecord
100
AcDbBlockTableRecord
2
*PAPER_SPACE
0
ENDTAB
0
ENDSEC
0
SECTION
2
BLOCKS
0
BLOCK
5
20
100
AcDbEntity
100
AcDbBlockBegin
2
*MODEL_SPACE
0
ENDBLK
5
21
100
AcDbEntity
100
AcDbBlockEnd
0
BLOCK
5
1C
100
AcDbEntity
100
AcDbBlockBegin
2
*PAPER_SPACE
0
ENDBLK
5
1D
100
AcDbEntity
100
AcDbBlockEnd
0
ENDSEC
0
SECTION
2
ENTITIES
0
SPLINE
5
100
100
AcDbEntity
8
OUTER_PROFILES
100
AcDbSpline
70
0
71
3
72
11
73
7
74
0
42
0.000000001
43
0.0000000001
44
0.0000000001
40
1.5707963267948943
40
1.5707963267948943
40
1.5707963267948943
40
1.5707963267948943
40
3.0437620783854245
40
3.0437620783854245
40
3.0437620783854245
40
3.1415926535897931
40
3.1415926535897931
40
3.1415926535897931
40
3.1415926535897931
10
-2.0000000000003126
20
93.047786842339349
30
0
10
-2.4909885838638957
20
92.340763281575875
30
0
10
-2.9472612928380215
20
91.6337397208124
30
0
10
-2.9952184047532171
20
90.926716160048983
30
0
10
-2.9984035920791996
20
90.879757483950883
30
0
10
-3.0000000000002558
20
90.832798807852782
30
0
10
-3.0000000000002558
20
90.785840131754696
30
0
0
LINE
5
101
100
AcDbEntity
8
OUTER_PROFILES
100
AcDbLine
10
-3.0000000000002558
20
90.785840131754696
30
0
11
-2.9999999999996874
21
77.785840131774862
31
0
0
SPLINE
5
102
100
AcDbEntity
8
OUTER_PROFILES
100
AcDbSpline
70
0
71
3
72
11
73
7
74
0
42
0.000000001
43
0.0000000001
44
0.0000000001
40
-3.1415926535897931
40
-3.1415926535897931
40
-3.1415926535897931
40
-3.1415926535897931
40
-1.6686269019992623
40
-1.6686269019992623
40
-1.6686269019992623
40
-1.5707963267948966
40
-1.5707963267948966
40
-1.5707963267948966
40
-1.5707963267948966
10
-2.9999999999996874
20
77.785840131774862
30
0
10
-2.9999999999996874
20
77.078816571011401
30
0
10
-2.5863154718882697
20
76.37179301024787
30
0
10
-2.0976745967037402
20
75.66476944948441
30
0
10
-2.0652203337067476
20
75.617810773386296
30
0
10
-2.0326101917345341
20
75.570852097288252
30
0
10
-1.9999999999997442
20
75.523893421190138
30
0
0
LINE
5
103
100
AcDbEntity
8
OUTER_PROFILES
100
AcDbLine
10
-1.9999999999997442
20
75.523893421190138
30
0
11
-2.0707106781186724
21
75.453182743050533
31
0
0
SPLINE
5
104
100
AcDbEntity
8
OUTER_PROFILES
100
AcDbSpline
70
0
71
3
72
11
73
7
74
0
42
0.000000001
43
0.0000000001
44
0.0000000001
40
1.5707963267948966
40
1.5707963267948966
40
1.5707963267948966
40
1.5707963267948966
40
1.6686269019992623
40
1.6686269019992623
40
1.6686269019992623
40
3.1415926535897931
40
3.1415926535897931
40
3.1415926535897931
40
3.1415926535897931
10
-2.0707106781186724
20
75.453182743050533
30
0
10
-2.1176693542167868
20
75.485792934785323
30
0
10
-2.1646280303149013
20
75.518403076757536
30
0
10
-2.2115867064130157
20
75.550857339754529
30
0
10
-2.9186102671764047
20
76.039498214938988
30
0
10
-3.6256338279399358
20
76.453182743050547
30
0
10
-4.3326573887033248
20
76.453182743050547
30
0
0
LINE
5
105
100
AcDbEntity
8
OUTER_PROFILES
100
AcDbLine
10
-4.3326573887033257
20
76.453182743050547
30
0
11
-17.332657388703296
21
76.453182743050476
31
0
0
SPLINE
5
106
100
AcDbEntity
8
OUTER_PROFILES
100
AcDbSpline
70
0
71
3
72
11
73
7
74
0
42
0.000000001
43
0.0000000001
44
0.0000000001
40
-3.1415926535897922
40
-3.1415926535897922
40
-3.1415926535897922
40
-3.1415926535897922
40
-3.0437620783854267
40
-3.0437620783854267
40
-3.0437620783854267
40
-1.5707963267948966
40
-1.5707963267948966
40
-1.5707963267948966
40
-1.5707963267948966
10
-17.332657388703296
20
76.453182743050476
30
0
10
-17.379616064801411
20
76.453182743050476
30
0
10
-17.426574740899525
20
76.45158633512942
30
0
10
-17.473533416997498
20
76.448401147803295
30
0
10
-18.180556977761029
20
76.400444035888171
30
0
10
-18.887580538524418
20
75.944171326913974
30
0
10
-19.594604099287949
20
75.453182743050462
30
0
0
LINE
5
107
100
AcDbEntity
8
OUTER_PROFILES
100
AcDbLine
10
-19.594604099287945
20
75.453182743050462
30
0
11
-21.594604099287977
21
73.453182743050505
31
0
0
LINE
5
108
100
AcDbEntity
8
OUTER_PROFILES
100
AcDbLine
10
-21.594604099287977
20
73.453182743050505
30
0
11
-21.594604099287977
21
21.594604099287764
31
0
0
LINE
5
109
100
AcDbEntity
8
OUTER_PROFILES
100
AcDbLine
10
-21.594604099287977
20
21.594604099287764
30
0
11
-19.594604099287949
21
19.594604099287803
31
0
0
SPLINE
5
110
100
AcDbEntity
8
OUTER_PROFILES
100
AcDbSpline
70
0
71
3
72
11
73
7
74
0
42
0.000000001
43
0.0000000001
44
0.0000000001
40
1.5707963267948966
40
1.5707963267948966
40
1.5707963267948966
40
1.5707963267948966
40
3.0437620783854267
40
3.0437620783854267
40
3.0437620783854267
40
3.1415926535897922
40
3.1415926535897922
40
3.1415926535897922
40
3.1415926535897922
10
-19.594604099287949
20
19.594604099287803
30
0
10
-18.887580538524418
20
19.103615515424291
30
0
10
-18.180556977761029
20
18.647342806450094
30
0
10
-17.473533416997498
20
18.59938569453497
30
0
10
-17.426574740899525
20
18.596200507208845
30
0
10
-17.379616064801411
20
18.594604099287789
30
0
10
-17.332657388703296
20
18.594604099287789
30
0
0
LINE
5
111
100
AcDbEntity
8
OUTER_PROFILES
100
AcDbLine
10
-17.3326573887033
20
18.594604099287789
30
0
11
-4.3326573887033248
21
18.594604099287864
31
0
0
SPLINE
5
112
100
AcDbEntity
8
OUTER_PROFILES
100
AcDbSpline
70
0
71
3
72
11
73
7
74
0
42
0.000000001
43
0.0000000001
44
0.0000000001
40
-3.1415926535897931
40
-3.1415926535897931
40
-3.1415926535897931
40
-3.1415926535897931
40
-1.6686269019992623
40
-1.6686269019992623
40
-1.6686269019992623
40
-1.5707963267948966
40
-1.5707963267948966
40
-1.5707963267948966
40
-1.5707963267948966
10
-4.3326573887033248
20
18.594604099287864
30
0
10
-3.6256338279399358
20
18.594604099287864
30
0
10
-2.9186102671764047
20
19.008288627399423
30
0
10
-2.2115867064130157
20
19.496929502583882
30
0
10
-2.1646280303149013
20
19.529383765580874
30
0
10
-2.1176693542167868
20
19.561993907553088
30
0
10
-2.0707106781186724
20
19.594604099287878
30
0
0
LINE
5
113
100
AcDbEntity
8
OUTER_PROFILES
100
AcDbLine
10
-2.0707106781186719
20
19.594604099287881
30
0
11
-2.0000000000000284
21
19.523893421169234
31
0
0
SPLINE
5
114
100
AcDbEntity
8
OUTER_PROFILES
100
AcDbSpline
70
0
71
3
72
11
73
7
74
0
42
0.000000001
43
0.0000000001
44
0.0000000001
40
1.5707963267948966
40
1.5707963267948966
40
1.5707963267948966
40
1.5707963267948966
40
1.6686269019992623
40
1.6686269019992623
40
1.6686269019992623
40
3.1415926535897931
40
3.1415926535897931
40
3.1415926535897931
40
3.1415926535897931
10
-2.0000000000003126
20
19.523893421159215
30
0
10
-2.0326101917351025
20
19.476934745061101
30
0
10
-2.0652203337073161
20
19.429976068963057
30
0
10
-2.0976745967043087
20
19.383017392864943
30
0
10
-2.586315471888696
20
18.675993832101483
30
0
10
-3.0000000000003979
20
17.968970271338023
30
0
10
-3.0000000000003979
20
17.261946710574634
30
0
0
LINE
5
115
100
AcDbEntity
8
OUTER_PROFILES
100
AcDbLine
10
-3.0000000000003979
20
17.261946710574637
30
0
11
-3.0000000000002558
21
4.2619467105849669
31
0
0
SPLINE
5
116
100
AcDbEntity
8
OUTER_PROFILES
100
AcDbSpline
70
0
71
3
72
11
73
7
74
0
42
0.000000001
43
0.0000000001
44
0.0000000001
40
-3.1415926535897927
40
-3.1415926535897927
40
-3.1415926535897927
40
-3.1415926535897927
40
-3.043762078385424
40
-3.043762078385424
40
-3.043762078385424
40
-1.5707963267948941
40
-1.5707963267948941
40
-1.5707963267948941
40
-1.5707963267948941
10
-3.0000000000002558
20
4.2619467105849669
30
0
10
-3.0000000000002558
20
4.2149880344868702
30
0
10
-2.9984035920791996
20
4.1680293583887762
30
0
10
-2.9952184047532171
20
4.1210706822906795
30
0
10
-2.9472612928380215
20
3.4140471215272483
30
0
10
-2.4909885838638957
20
2.7070235607637616
30
0
10
-2.0000000000003126
20
2.0000000000003082
30
0
0
LINE
5
117
100
AcDbEntity
8
OUTER_PROFILES
100
AcDbLine
10
-2.0000000000003122
20
2.0000000000003078
30
0
11
0
21
0
31
0
0
LINE
5
118
100
AcDbEntity
8
OUTER_PROFILES
100
AcDbLine
10
0
20
0
30
0
11
741.85857864376192
21
0
31
0
0
LINE
5
119
100
AcDbEntity
8
OUTER_PROFILES
100
AcDbLine
10
741.85857864376192
20
0
30
0
11
743.85857864376146
21
1.9999999999999574
31
0
0
SPLINE
5
120
100
AcDbEntity
8
OUTER_PROFILES
100
AcDbSpline
70
0
71
3
72
11
73
7
74
0
42
0.000000001
43
0.0000000001
44
0.0000000001
40
1.5707963267948943
40
1.5707963267948943
40
1.5707963267948943
40
1.5707963267948943
40
3.0437620783854245
40
3.0437620783854245
40
3.0437620783854245
40
3.1415926535897931
40
3.1415926535897931
40
3.1415926535897931
40
3.1415926535897931
10
743.85857864376146
20
2.0000000000014784
30
0
10
744.34956722762513
20
2.707023560764934
30
0
10
744.80583993659923
20
3.4140471215284185
30
0
10
744.85379704851425
20
4.1210706822918493
30
0
10
744.85698223584041
20
4.1680293583899459
30
0
10
744.85857864376146
20
4.2149880344880408
30
0
10
744.85857864376146
20
4.2619467105861375
30
0
0
LINE
5
121
100
AcDbEntity
8
OUTER_PROFILES
100
AcDbLine
10
744.85857864376158
20
4.2619467105861384
30
0
11
744.8585786437626
21
17.261946710578187
31
0
0
SPLINE
5
122
100
AcDbEntity
8
OUTER_PROFILES
100
AcDbSpline
70
0
71
3
72
11
73
7
74
0
42
0.000000001
43
0.0000000001
44
0.0000000001
40
-3.1415926535897931
40
-3.1415926535897931
40
-3.1415926535897931
40
-3.1415926535897931
40
-1.6686269019992623
40
-1.6686269019992623
40
-1.6686269019992623
40
-1.5707963267948966
40
-1.5707963267948966
40
-1.5707963267948966
40
-1.5707963267948966
10
744.8585786437626
20
17.261946710578187
30
0
10
744.8585786437626
20
17.968970271341647
30
0
10
744.44489411565098
20
18.675993832105178
30
0
10
743.95625324046659
20
19.383017392868567
30
0
10
743.92379897746969
20
19.429976068966681
30
0
10
743.89118883549736
20
19.476934745064725
30
0
10
743.8585786437626
20
19.523893421162839
30
0
0
LINE
5
123
100
AcDbEntity
8
OUTER_PROFILES
100
AcDbLine
10
743.85857864376248
20
19.523893421162835
30
0
11
743.92928932188124
21
19.594604099287949
31
0
0
SPLINE
5
124
100
AcDbEntity
8
OUTER_PROFILES
100
AcDbSpline
70
0
71
3
72
11
73
7
74
0
42
0.000000001
43
0.0000000001
44
0.0000000001
40
1.5707963267948966
40
1.5707963267948966
40
1.5707963267948966
40
1.5707963267948966
40
1.6686269019992623
40
1.6686269019992623
40
1.6686269019992623
40
3.1415926535897931
40
3.1415926535897931
40
3.1415926535897931
40
3.1415926535897931
10
743.92928932190785
20
19.594604099287949
30
0
10
743.97624799800599
20
19.561993907553159
30
0
10
744.02320667410413
20
19.529383765580945
30
0
10
744.07016535020205
20
19.496929502583953
30
0
10
744.77718891096561
20
19.008288627399494
30
0
10
745.48421247172894
20
18.594604099287935
30
0
10
746.1912360324925
20
18.594604099287935
30
0
0
LINE
5
125
100
AcDbEntity
8
OUTER_PROFILES
100
AcDbLine
10
746.1912360324925
20
18.594604099287935
30
0
11
759.19123603246533
21
18.594604099287654
31
0
0
SPLINE
5
126
100
AcDbEntity
8
OUTER_PROFILES
100
AcDbSpline
70
0
71
3
72
11
73
7
74
0
42
0.000000001
43
0.0000000001
44
0.0000000001
40
-3.1415926535897931
40
-3.1415926535897931
40
-3.1415926535897931
40
-3.1415926535897931
40
-3.0437620783854573
40
-3.0437620783854573
40
-3.0437620783854573
40
-1.5707963267949234
40
-1.5707963267949234
40
-1.5707963267949234
40
-1.5707963267949234
10
759.19123603246533
20
18.594604099287654
30
0
10
759.23819470856324
20
18.594604099287654
30
0
10
759.28515338466138
20
18.59620050720871
30
0
10
759.33211206075953
20
18.599385694534835
30
0
10
760.03913562152297
20
18.647342806449959
30
0
10
760.74615918228631
20
19.103615515424156
30
0
10
761.45318274304987
20
19.594604099287668
30
0
0
LINE
5
127
100
AcDbEntity
8
OUTER_PROFILES
100
AcDbLine
10
761.45318274304987
20
19.594604099287668
30
0
11
763.45318274305089
21
21.594604099287835
31
0
0
LINE
5
128
100
AcDbEntity
8
OUTER_PROFILES
100
AcDbLine
10
763.45318274305089
20
21.594604099287835
30
0
11
763.45318274305089
21
73.453182743050576
31
0
0
LINE
5
129
100
AcDbEntity
8
OUTER_PROFILES
100
AcDbLine
10
763.45318274305089
20
73.453182743050576
30
0
11
761.45318274302326
21
75.453182743050746
31
0
0
SPLINE
5
130
100
AcDbEntity
8
OUTER_PROFILES
100
AcDbSpline
70
0
71
3
72
11
73
7
74
0
42
0.000000001
43
0.0000000001
44
0.0000000001
40
1.5707963267949234
40
1.5707963267949234
40
1.5707963267949234
40
1.5707963267949234
40
3.0437620783854573
40
3.0437620783854573
40
3.0437620783854573
40
3.1415926535897931
40
3.1415926535897931
40
3.1415926535897931
40
3.1415926535897931
10
761.45318274302326
20
75.453182743050746
30
0
10
760.7461591822597
20
75.944171326914258
30
0
10
760.03913562149637
20
76.400444035888455
30
0
10
759.33211206073292
20
76.44840114780358
30
0
10
759.2851533846349
20
76.451586335129704
30
0
10
759.23819470853675
20
76.45318274305076
30
0
10
759.19123603243861
20
76.45318274305076
30
0
0
LINE
5
131
100
AcDbEntity
8
OUTER_PROFILES
100
AcDbLine
10
759.19123603243861
20
76.45318274305076
30
0
11
746.19123603246589
21
76.453182743050618
31
0
0
SPLINE
5
132
100
AcDbEntity
8
OUTER_PROFILES
100
AcDbSpline
70
0
71
3
72
11
73
7
74
0
42
0.000000001
43
0.0000000001
44
0.0000000001
40
-3.1415926535897931
40
-3.1415926535897931
40
-3.1415926535897931
40
-3.1415926535897931
40
-1.6686269019992623
40
-1.6686269019992623
40
-1.6686269019992623
40
-1.5707963267948966
40
-1.5707963267948966
40
-1.5707963267948966
40
-1.5707963267948966
10
746.19123603247112
20
76.453182743050618
30
0
10
745.48421247170768
20
76.453182743050618
30
0
10
744.77718891094423
20
76.039498214939059
30
0
10
744.07016535018079
20
75.5508573397546
30
0
10
744.02320667408276
20
75.518403076757608
30
0
10
743.97624799798461
20
75.485792934785394
30
0
10
743.92928932188647
20
75.453182743050604
30
0
0
LINE
5
133
100
AcDbEntity
8
OUTER_PROFILES
100
AcDbLine
10
743.92928932188647
20
75.45318274305059
30
0
11
743.85857864376317
21
75.523893421185946
31
0
0
SPLINE
5
134
100
AcDbEntity
8
OUTER_PROFILES
100
AcDbSpline
70
0
71
3
72
11
73
7
74
0
42
0.000000001
43
0.0000000001
44
0.0000000001
40
1.5707963267948966
40
1.5707963267948966
40
1.5707963267948966
40
1.5707963267948966
40
1.6686269019992623
40
1.6686269019992623
40
1.6686269019992623
40
3.1415926535897931
40
3.1415926535897931
40
3.1415926535897931
40
3.1415926535897931
10
743.85857864376317
20
75.523893421185946
30
0
10
743.89118883549804
20
75.57085209728406
30
0
10
743.92379897747014
20
75.617810773382104
30
0
10
743.95625324046716
20
75.664769449480218
30
0
10
744.44489411565178
20
76.371793010243678
30
0
10
744.85857864376317
20
77.078816571007209
30
0
10
744.85857864376317
20
77.785840131770669
30
0
0
LINE
5
135
100
AcDbEntity
8
OUTER_PROFILES
100
AcDbLine
10
744.85857864376317
20
77.785840131770669
30
0
11
744.85857864376203
21
90.78584013175265
31
0
0
SPLINE
5
136
100
AcDbEntity
8
OUTER_PROFILES
100
AcDbSpline
70
0
71
3
72
11
73
7
74
0
42
0.000000001
43
0.0000000001
44
0.0000000001
40
-3.1415926535897931
40
-3.1415926535897931
40
-3.1415926535897931
40
-3.1415926535897931
40
-3.0437620783854245
40
-3.0437620783854245
40
-3.0437620783854245
40
-1.5707963267948943
40
-1.5707963267948943
40
-1.5707963267948943
40
-1.5707963267948943
10
744.85857864376203
20
90.78584013175265
30
0
10
744.85857864376203
20
90.832798807850736
30
0
10
744.85698223584097
20
90.879757483948822
30
0
10
744.85379704851482
20
90.926716160046936
30
0
10
744.8058399365998
20
91.633739720810354
30
0
10
744.34956722762558
20
92.340763281573857
30
0
10
743.85857864376203
20
93.047786842337302
30
0
0
LINE
5
137
100
AcDbEntity
8
OUTER_PROFILES
100
AcDbLine
10
743.85857864376192
20
93.047786842337302
30
0
11
741.85857864376158
21
95.047786842338624
31
0
0
LINE
5
138
100
AcDbEntity
8
OUTER_PROFILES
100
AcDbLine
10
741.85857864376158
20
95.047786842338624
30
0
11
-1.4210854715202004e-13
21
95.047786842338553
31
0
0
LINE
5
139
100
AcDbEntity
8
OUTER_PROFILES
100
AcDbLine
10
-1.4210854715202004e-13
20
95.047786842338553
30
0
11
-2.0000000000003126
21
93.047786842339349
31
0
0
CIRCLE
5
140
100
AcDbEntity
8
INTERIOR_PROFILES
100
AcDbCircle
10
-354.92928932188124
20
42.523893421169241
30
0
40
1.6999999999999993
210
0
220
0
230
-1
0
CIRCLE
5
141
100
AcDbEntity
8
INTERIOR_PROFILES
100
AcDbCircle
10
-654.92928932188124
20
42.523893421169269
30
0
40
1.6999999999999993
210
0
220
0
230
-1
0
CIRCLE
5
142
100
AcDbEntity
8
INTERIOR_PROFILES
100
AcDbCircle
10
-686.92928932188136
20
52.523893421169277
30
0
40
1.6999999999999993
210
0
220
0
230
-1
0
CIRCLE
5
143
100
AcDbEntity
8
INTERIOR_PROFILES
100
AcDbCircle
10
-686.92928932188136
20
47.523893421169277
30
0
40
1.6999999999999993
210
0
220
0
230
-1
0
CIRCLE
5
144
100
AcDbEntity
8
INTERIOR_PROFILES
100
AcDbCircle
10
-386.92928932188136
20
52.523893421169241
30
0
40
1.6999999999999993
210
0
220
0
230
-1
0
CIRCLE
5
145
100
AcDbEntity
8
INTERIOR_PROFILES
100
AcDbCircle
10
-54.929289321881214
20
42.523893421169205
30
0
40
1.6999999999999993
210
0
220
0
230
-1
0
CIRCLE
5
146
100
AcDbEntity
8
INTERIOR_PROFILES
100
AcDbCircle
10
-254.92928932188121
20
42.52389342116922
30
0
40
1.6999999999999993
210
0
220
0
230
-1
0
CIRCLE
5
147
100
AcDbEntity
8
INTERIOR_PROFILES
100
AcDbCircle
10
-86.929289321881384
20
42.523893421169213
30
0
40
1.6999999999999993
210
0
220
0
230
-1
0
CIRCLE
5
148
100
AcDbEntity
8
INTERIOR_PROFILES
100
AcDbCircle
10
-286.92928932188136
20
42.523893421169234
30
0
40
1.6999999999999993
210
0
220
0
230
-1
0
CIRCLE
5
149
100
AcDbEntity
8
INTERIOR_PROFILES
100
AcDbCircle
10
-486.92928932188136
20
42.523893421169248
30
0
40
1.6999999999999993
210
0
220
0
230
-1
0
CIRCLE
5
150
100
AcDbEntity
8
INTERIOR_PROFILES
100
AcDbCircle
10
-454.92928932188124
20
52.523893421169248
30
0
40
1.6999999999999993
210
0
220
0
230
-1
0
CIRCLE
5
151
100
AcDbEntity
8
INTERIOR_PROFILES
100
AcDbCircle
10
-254.92928932188121
20
47.52389342116922
30
0
40
1.6999999999999993
210
0
220
0
230
-1
0
CIRCLE
5
152
100
AcDbEntity
8
INTERIOR_PROFILES
100
AcDbCircle
10
-454.92928932188124
20
47.523893421169248
30
0
40
1.6999999999999993
210
0
220
0
230
-1
0
CIRCLE
5
153
100
AcDbEntity
8
INTERIOR_PROFILES
100
AcDbCircle
10
-354.92928932188124
20
47.523893421169241
30
0
40
1.6999999999999993
210
0
220
0
230
-1
0
CIRCLE
5
154
100
AcDbEntity
8
INTERIOR_PROFILES
100
AcDbCircle
10
-654.92928932188124
20
47.523893421169269
30
0
40
1.6999999999999993
210
0
220
0
230
-1
0
CIRCLE
5
155
100
AcDbEntity
8
INTERIOR_PROFILES
100
AcDbCircle
10
-386.92928932188136
20
47.523893421169241
30
0
40
1.6999999999999993
210
0
220
0
230
-1
0
CIRCLE
5
156
100
AcDbEntity
8
INTERIOR_PROFILES
100
AcDbCircle
10
-86.929289321881384
20
47.523893421169213
30
0
40
1.6999999999999993
210
0
220
0
230
-1
0
CIRCLE
5
157
100
AcDbEntity
8
INTERIOR_PROFILES
100
AcDbCircle
10
-54.929289321881214
20
47.523893421169205
30
0
40
1.6999999999999993
210
0
220
0
230
-1
0
CIRCLE
5
158
100
AcDbEntity
8
INTERIOR_PROFILES
100
AcDbCircle
10
-686.92928932188136
20
42.523893421169277
30
0
40
1.6999999999999993
210
0
220
0
230
-1
0
CIRCLE
5
159
100
AcDbEntity
8
INTERIOR_PROFILES
100
AcDbCircle
10
-286.92928932188136
20
47.523893421169234
30
0
40
1.6999999999999993
210
0
220
0
230
-1
0
CIRCLE
5
160
100
AcDbEntity
8
INTERIOR_PROFILES
100
AcDbCircle
10
-654.92928932188124
20
52.523893421169269
30
0
40
1.6999999999999993
210
0
220
0
230
-1
0
CIRCLE
5
161
100
AcDbEntity
8
INTERIOR_PROFILES
100
AcDbCircle
10
-486.92928932188136
20
47.523893421169248
30
0
40
1.6999999999999993
210
0
220
0
230
-1
0
CIRCLE
5
162
100
AcDbEntity
8
INTERIOR_PROFILES
100
AcDbCircle
10
-454.92928932188124
20
42.523893421169248
30
0
40
1.6999999999999993
210
0
220
0
230
-1
0
CIRCLE
5
163
100
AcDbEntity
8
INTERIOR_PROFILES
100
AcDbCircle
10
-486.92928932188136
20
52.523893421169248
30
0
40
1.6999999999999993
210
0
220
0
230
-1
0
CIRCLE
5
164
100
AcDbEntity
8
INTERIOR_PROFILES
100
AcDbCircle
10
-86.929289321881384
20
52.523893421169213
30
0
40
1.6999999999999993
210
0
220
0
230
-1
0
CIRCLE
5
165
100
AcDbEntity
8
INTERIOR_PROFILES
100
AcDbCircle
10
-386.92928932188136
20
42.523893421169241
30
0
40
1.6999999999999993
210
0
220
0
230
-1
0
CIRCLE
5
166
100
AcDbEntity
8
INTERIOR_PROFILES
100
AcDbCircle
10
-286.92928932188136
20
52.523893421169234
30
0
40
1.6999999999999993
210
0
220
0
230
-1
0
CIRCLE
5
167
100
AcDbEntity
8
INTERIOR_PROFILES
100
AcDbCircle
10
-54.929289321881214
20
52.523893421169205
30
0
40
1.6999999999999993
210
0
220
0
230
-1
0
CIRCLE
5
168
100
AcDbEntity
8
INTERIOR_PROFILES
100
AcDbCircle
10
-354.92928932188124
20
52.523893421169241
30
0
40
1.6999999999999993
210
0
220
0
230
-1
0
CIRCLE
5
169
100
AcDbEntity
8
INTERIOR_PROFILES
100
AcDbCircle
10
-254.92928932188121
20
52.52389342116922
30
0
40
1.6999999999999993
210
0
220
0
230
-1
0
LINE
5
170
100
AcDbEntity
8
BEND
100
AcDbLine
10
-18.463630743995765
20
76.160289524236902
30
6.7668093350903291e-13
11
-18.463630743995765
21
18.887497318101367
31
6.7515437685017332e-13
0
LINE
5
171
100
AcDbEntity
8
BEND
100
AcDbLine
10
744.56568542494665
20
91.916813487048984
30
-1.0574874309554452e-13
11
-2.7071067811858995
21
91.916813487048927
31
-1.2490009027032443e-14
0
LINE
5
172
100
AcDbEntity
8
BEND
100
AcDbLine
10
744.56568542494153
20
76.65486677646156
30
3.8705150195994702e-13
11
-2.7071067811759519
21
76.654866776461503
31
4.2563175206566934e-13
0
LINE
5
173
100
AcDbEntity
8
BEND
100
AcDbLine
10
-3.2016840334109986
20
76.160289524237115
30
4.1092129698938606e-13
11
-3.2016840334109986
21
18.887497318101296
31
4.0925596245244833e-13
0
LINE
5
174
100
AcDbEntity
8
BEND
100
AcDbLine
10
760.32220938781973
20
18.887497318131711
30
-2.1413426587457694e-13
11
760.32220938781984
21
76.16028952419363
31
-4.7850612361343934e-13
0
LINE
5
175
100
AcDbEntity
8
BEND
100
AcDbLine
10
745.06026267717345
20
18.887497318114512
30
4.2799097599299931e-13
11
745.06026267717345
21
76.160289524234486
31
3.0031532816110661e-13
0
LINE
5
176
100
AcDbEntity
8
BEND
100
AcDbLine
10
-2.7071067811890259
20
3.1309733552970531
30
3.3167912860676425e-14
11
744.56568542494961
21
3.1309733552970576
31
1.1282641487753305e-13
0
LINE
5
177
100
AcDbEntity
8
BEND
100
AcDbLine
10
-2.7071067811819205
20
18.392920065876979
30
4.0509262611010399e-13
11
744.56568542494597
21
18.392920065877064
31
3.7539416020138287e-13
0
LINE
5
178
100
AcDbEntity
8
BEND_EXTENT
100
AcDbLine
10
761.45318274305066
20
75.453182743050746
30
-3.7525538232330114e-13
11
761.45318274305066
21
19.594604099287665
31
-3.7525538232330114e-13
0
LINE
5
179
100
AcDbEntity
8
BEND_EXTENT
100
AcDbLine
10
759.19123603246589
20
18.594604099287796
30
-3.1974423109204332e-13
11
759.19123603246589
21
76.453182743050618
31
-3.1974423109204332e-13
0
LINE
5
180
100
AcDbEntity
8
BEND_EXTENT
100
AcDbLine
10
-2.0000000000003126
20
93.047786842338596
30
-1.6875389974302379e-13
11
743.85857864376203
21
93.047786842338667
31
-1.6875389974302203e-13
0
LINE
5
181
100
AcDbEntity
8
BEND_EXTENT
100
AcDbLine
10
744.8585786437626
20
90.785840131753872
30
-3.5527136788003242e-14
11
-2.9999999999999716
21
90.785840131753801
31
-3.5527136788005009e-14
0
LINE
5
182
100
AcDbEntity
8
BEND_EXTENT
100
AcDbLine
10
-19.594604099287949
20
19.594604099287803
30
7.0166095156309893e-13
11
-19.594604099287949
21
75.453182743050462
31
7.0166095156309893e-13
0
LINE
5
183
100
AcDbEntity
8
BEND_EXTENT
100
AcDbLine
10
-17.332657388703296
20
76.453182743050476
30
6.5614180755346752e-13
11
-17.332657388703296
21
18.594604099287793
31
6.5614180755346752e-13
0
LINE
5
184
100
AcDbEntity
8
BEND_EXTENT
100
AcDbLine
10
743.85857864376146
20
1.9999999999999574
30
5.1070259132758968e-14
11
-2.0000000000003126
21
1.9999999999999574
31
5.1070259132757201e-14
0
LINE
5
185
100
AcDbEntity
8
BEND_EXTENT
100
AcDbLine
10
-2.9999999999999716
20
4.2619467105846454
30
1.0658141036401503e-13
11
744.8585786437626
21
4.2619467105846454
31
1.0658141036401679e-13
0
LINE
5
186
100
AcDbEntity
8
BEND_EXTENT
100
AcDbLine
10
746.19123603246589
20
76.453182743050618
30
2.4868995751603683e-13
11
746.19123603246589
21
18.594604099287935
31
2.4868995751603683e-13
0
LINE
5
187
100
AcDbEntity
8
BEND_EXTENT
100
AcDbLine
10
744.8585786437626
20
17.261946710584638
30
2.4868995751603683e-13
11
-3.0000000000003979
21
17.261946710584638
31
2.4868995751603507e-13
0
LINE
5
188
100
AcDbEntity
8
BEND_EXTENT
100
AcDbLine
10
-2.9999999999996874
20
77.785840131753801
30
3.1974423109204508e-13
11
744.85857864376317
21
77.785840131753872
31
3.1974423109204685e-13
0
LINE
5
189
100
AcDbEntity
8
BEND_EXTENT
100
AcDbLine
10
-4.3326573887033248
20
18.594604099287864
30
4.3076653355456074e-13
11
-4.3326573887033248
21
76.453182743050547
31
4.3076653355456074e-13
0
LINE
5
190
100
AcDbEntity
8
BEND_EXTENT
100
AcDbLine
10
743.92928932188124
20
19.594604099287949
30
3.9079850466805687e-13
11
743.92928932188124
21
75.453182743051173
31
3.9079850466805687e-13
0
LINE
5
191
100
AcDbEntity
8
BEND_EXTENT
100
AcDbLine
10
743.85857864376317
20
75.523893421169248
30
3.9079850466805687e-13
11
-2.0000000000000284
21
75.523893421169177
31
3.907985046680551e-13
0
LINE
5
192
100
AcDbEntity
8
BEND_EXTENT
100
AcDbLine
10
-2.0707106781186724
20
75.453182743050533
30
3.907985046680551e-13
11
-2.0707106781186724
21
19.594604099287878
31
3.907985046680551e-13
0
LINE
5
193
100
AcDbEntity
8
BEND_EXTENT
100
AcDbLine
10
-2.0000000000000284
20
19.523893421169234
30
3.907985046680551e-13
11
743.8585786437626
21
19.523893421169305
31
3.9079850466805687e-13
0
ENDSEC
0
SECTION
2
OBJECTS
0
DICTIONARY
5
C
100
AcDbDictionary
3
ACAD_GROUP
350
D
3
ACAD_MLINESTYLE
350
17
0
DICTIONARY
5
D
100
AcDbDictionary
0
DICTIONARY
5
1A
330
C
100
AcDbDictionary
0
DICTIONARY
5
17
100
AcDbDictionary
0
ENDSEC
0
EOF
