0
SECTION
2
HEADER
9
$INSUNITS
70
4
9
$ACADVER
1
AC1014
9
$HANDSEED
5
FFFF
0
ENDSEC
0
SECTION
2
TABLES
0
TABLE
2
VPORT
5
8
100
AcDbSymbolTable
0
ENDTAB
0
TABLE
2
LTYPE
5
5
100
AcDbSymbolTable
0
LTYPE
5
14
100
AcDbSymbolTableRecord
100
AcDbLinetypeTableRecord
2
BYBLOCK
70
0
0
LTYPE
5
15
100
AcDbSymbolTableRecord
100
AcDbLinetypeTableRecord
2
BYLAYER
70
0
0
LTYPE
5
16
100
AcDbSymbolTableRecord
100
AcDbLinetypeTableRecord
2
DASHED
70
0
3
Dashed __ __ __ __ __ __ __ __ __ __ __ __ __ _
72
65
73
2
40
0.75
49
0.5
74
0
49
-0.25
74
0
0
ENDTAB
0
TABLE
2
LAYER
5
2
100
AcDbSymbolTable
70
2
0
LAYER
5
50
100
AcDbSymbolTableRecord
100
AcDbLayerTableRecord
2
0
70
0
62
7
6
CONTINUOUS
0
ENDTAB
0
TABLE
2
STYLE
5
3
100
AcDbSymbolTable
70
1
0
STYLE
5
11
100
AcDbSymbolTableRecord
100
AcDbTextStyleTableRecord
2
STANDARD
70
0
0
ENDTAB
0
TABLE
2
VIEW
5
6
100
AcDbSymbolTable
70
0
0
ENDTAB
0
TABLE
2
UCS
5
7
100
AcDbSymbolTable
70
0
0
ENDTAB
0
TABLE
2
APPID
5
9
100
AcDbSymbolTable
70
2
0
APPID
5
12
100
AcDbSymbolTableRecord
100
AcDbRegAppTableRecord
2
ACAD
70
0
0
ENDTAB
0
TABLE
2
DIMSTYLE
5
A
100
AcDbSymbolTable
70
1
0
ENDTAB
0
TABLE
2
BLOCK_RECORD
5
1
100
AcDbSymbolTable
70
1
0
BLOCK_RECORD
5
1F
100
AcDbSymbolTableRecord
100
AcDbBlockTableRecord
2
*MODEL_SPACE
0
BLOCK_RECORD
5
1B
100
AcDbSymbolTableRecord
100
AcDbBlockTableRecord
2
*PAPER_SPACE
0
ENDTAB
0
ENDSEC
0
SECTION
2
BLOCKS
0
BLOCK
5
20
100
AcDbEntity
100
AcDbBlockBegin
2
*MODEL_SPACE
0
ENDBLK
5
21
100
AcDbEntity
100
AcDbBlockEnd
0
BLOCK
5
1C
100
AcDbEntity
100
AcDbBlockBegin
2
*PAPER_SPACE
0
ENDBLK
5
1D
100
AcDbEntity
100
AcDbBlockEnd
0
ENDSEC
0
SECTION
2
ENTITIES
0
LINE
5
100
100
AcDbEntity
8
OUTER_PROFILES
100
AcDbLine
10
-9.9475983006414026e-13
20
189.04778684234054
30
0
11
-5.0000000000022737
21
184.04778684233935
31
0
0
SPLINE
5
101
100
AcDbEntity
8
OUTER_PROFILES
100
AcDbSpline
70
0
71
3
72
11
73
7
74
0
42
0.000000001
43
0.0000000001
44
0.0000000001
40
1.5707963267948981
40
1.5707963267948981
40
1.5707963267948981
40
1.5707963267948981
40
3.0437620783854293
40
3.0437620783854293
40
3.0437620783854293
40
3.1415926535897936
40
3.1415926535897936
40
3.1415926535897936
40
3.1415926535897936
10
-5.0000000000024158
20
184.04778684233949
30
0
10
-5.4909885838658568
20
183.34076328157605
30
0
10
-5.9472612928401247
20
182.63373972081257
30
0
10
-5.9952184047551782
20
181.92671616004912
30
0
10
-5.9984035920813028
20
181.87975748395104
30
0
10
-6.000000000002359
20
181.83279880785292
30
0
10
-6.000000000002359
20
181.78584013175484
30
0
0
LINE
5
102
100
AcDbEntity
8
OUTER_PROFILES
100
AcDbLine
10
-6.0000000000023599
20
181.78584013175484
30
0
11
-6.0000000000006537
21
175.78584013175299
31
0
0
SPLINE
5
103
100
AcDbEntity
8
OUTER_PROFILES
100
AcDbSpline
70
0
71
3
72
11
73
7
74
0
42
0.000000001
43
0.0000000001
44
0.0000000001
40
-3.1415926535897931
40
-3.1415926535897931
40
-3.1415926535897931
40
-3.1415926535897931
40
-1.6686269019992677
40
-1.6686269019992677
40
-1.6686269019992677
40
-1.5707963267948966
40
-1.5707963267948966
40
-1.5707963267948966
40
-1.5707963267948966
10
-6.0000000000006537
20
175.78584013175299
30
0
10
-6.0000000000006537
20
175.07881657098955
30
0
10
-5.5863154718890939
20
174.37179301022607
30
0
10
-5.0976745967047066
20
173.6647694494626
30
0
10
-5.0652203337075719
20
173.61781077336451
30
0
10
-5.0326101917355004
20
173.57085209726645
30
0
10
-5.0000000000007105
20
173.52389342116834
30
0
0
LINE
5
104
100
AcDbEntity
8
OUTER_PROFILES
100
AcDbLine
10
-5.0000000000007105
20
173.52389342116834
30
0
11
-5.0707106781136702
21
173.45318274304955
31
0
0
SPLINE
5
105
100
AcDbEntity
8
OUTER_PROFILES
100
AcDbSpline
70
0
71
3
72
11
73
7
74
0
42
0.000000001
43
0.0000000001
44
0.0000000001
40
1.5707963267948966
40
1.5707963267948966
40
1.5707963267948966
40
1.5707963267948966
40
1.6686269019992677
40
1.6686269019992677
40
1.6686269019992677
40
3.1415926535897931
40
3.1415926535897931
40
3.1415926535897931
40
3.1415926535897931
10
-5.0707106781136702
20
173.45318274304955
30
0
10
-5.1176693542119267
20
173.48579293478434
30
0
10
-5.164628030309899
20
173.51840307675658
30
0
10
-5.2115867064080135
20
173.55085733975355
30
0
10
-5.9186102671715446
20
174.03949821493802
30
0
10
-6.6256338279349336
20
174.45318274304955
30
0
10
-7.3326573886983226
20
174.45318274304955
30
0
0
LINE
5
106
100
AcDbEntity
8
OUTER_PROFILES
100
AcDbLine
10
-7.3326573886983217
20
174.45318274304955
30
0
11
-13.332657388705087
21
174.45318274304998
31
0
0
SPLINE
5
107
100
AcDbEntity
8
OUTER_PROFILES
100
AcDbSpline
70
0
71
3
72
11
73
7
74
0
42
0.000000001
43
0.0000000001
44
0.0000000001
40
-3.1415926535897927
40
-3.1415926535897927
40
-3.1415926535897927
40
-3.1415926535897927
40
-3.0437620783854564
40
-3.0437620783854564
40
-3.0437620783854564
40
-1.5707963267949496
40
-1.5707963267949496
40
-1.5707963267949496
40
-1.5707963267949496
10
-13.332657388705087
20
174.45318274304998
30
0
10
-13.379616064803201
20
174.45318274304998
30
0
10
-13.426574740901316
20
174.45158633512892
30
0
10
-13.473533416999288
20
174.4484011478028
30
0
10
-14.180556977762819
20
174.40044403588769
30
0
10
-14.88758053852635
20
173.94417132691359
30
0
10
-15.594604099289739
20
173.45318274305009
30
0
0
LINE
5
108
100
AcDbEntity
8
OUTER_PROFILES
100
AcDbLine
10
-15.594604099289738
20
173.45318274305009
30
0
11
-20.594604099290876
21
168.45318274304935
31
0
0
LINE
5
109
100
AcDbEntity
8
OUTER_PROFILES
100
AcDbLine
10
-20.594604099290876
20
168.45318274304935
30
0
11
-20.594604099290166
21
20.594604099290308
31
0
0
LINE
5
110
100
AcDbEntity
8
OUTER_PROFILES
100
AcDbLine
10
-20.594604099290166
20
20.594604099290308
30
0
11
-15.594604099287466
21
15.594604099289151
31
0
0
SPLINE
5
111
100
AcDbEntity
8
OUTER_PROFILES
100
AcDbSpline
70
0
71
3
72
11
73
7
74
0
42
0.000000001
43
0.0000000001
44
0.0000000001
40
1.5707963267949856
40
1.5707963267949856
40
1.5707963267949856
40
1.5707963267949856
40
3.0437620783854848
40
3.0437620783854848
40
3.0437620783854848
40
3.1415926535897944
40
3.1415926535897944
40
3.1415926535897944
40
3.1415926535897944
10
-15.594604099287466
20
15.594604099289151
30
0
10
-14.887580538524077
20
15.103615515425661
30
0
10
-14.180556977760546
20
14.647342806451567
30
0
10
-13.473533416997157
20
14.599385694536471
30
0
10
-13.426574740899184
20
14.596200507210346
30
0
10
-13.37961606480107
20
14.59460409928929
30
0
10
-13.332657388702955
20
14.594604099289292
30
0
0
LINE
5
112
100
AcDbEntity
8
OUTER_PROFILES
100
AcDbLine
10
-13.332657388702957
20
14.594604099289292
30
0
11
-7.3326573887034385
21
14.594604099289848
31
0
0
SPLINE
5
113
100
AcDbEntity
8
OUTER_PROFILES
100
AcDbSpline
70
0
71
3
72
11
73
7
74
0
42
0.000000001
43
0.0000000001
44
0.0000000001
40
-3.1415926535897931
40
-3.1415926535897931
40
-3.1415926535897931
40
-3.1415926535897931
40
-1.6686269019992666
40
-1.6686269019992666
40
-1.6686269019992666
40
-1.5707963267948966
40
-1.5707963267948966
40
-1.5707963267948966
40
-1.5707963267948966
10
-7.332657388707986
20
14.594604099289839
30
0
10
-6.625633827944597
20
14.594604099289842
30
0
10
-5.9186102671809238
20
15.00828862740137
30
0
10
-5.2115867064175347
20
15.49692950258585
30
0
10
-5.1646280303195624
20
15.529383765582834
30
0
10
-5.1176693542213059
20
15.561993907555074
30
0
10
-5.0707106781233335
20
15.594604099289864
30
0
0
LINE
5
114
100
AcDbEntity
8
OUTER_PROFILES
100
AcDbLine
10
-5.0707106781233344
20
15.594604099289866
30
0
11
-5.0000000000002842
21
15.523893421171397
31
0
0
SPLINE
5
115
100
AcDbEntity
8
OUTER_PROFILES
100
AcDbSpline
70
0
71
3
72
11
73
7
74
0
42
0.000000001
43
0.0000000001
44
0.0000000001
40
1.5707963267948966
40
1.5707963267948966
40
1.5707963267948966
40
1.5707963267948966
40
1.6686269019992666
40
1.6686269019992666
40
1.6686269019992666
40
3.1415926535897931
40
3.1415926535897931
40
3.1415926535897931
40
3.1415926535897931
10
-5.0000000000002842
20
15.523893421171735
30
0
10
-5.0326101917350741
20
15.476934745073603
30
0
10
-5.0652203337072876
20
15.429976068975497
30
0
10
-5.0976745967042802
20
15.383017392877445
30
0
10
-5.5863154718888097
20
14.675993832113974
30
0
10
-6.0000000000003695
20
13.968970271350504
30
0
10
-6.0000000000003695
20
13.261946710587061
30
0
0
LINE
5
116
100
AcDbEntity
8
OUTER_PROFILES
100
AcDbLine
10
-6.0000000000003695
20
13.261946710587063
30
0
11
-6.0000000000015064
21
7.2619467105853257
31
0
0
SPLINE
5
117
100
AcDbEntity
8
OUTER_PROFILES
100
AcDbSpline
70
0
71
3
72
11
73
7
74
0
42
0.000000001
43
0.0000000001
44
0.0000000001
40
-3.1415926535897944
40
-3.1415926535897944
40
-3.1415926535897944
40
-3.1415926535897944
40
-3.0437620783854245
40
-3.0437620783854245
40
-3.0437620783854245
40
-1.5707963267948934
40
-1.5707963267948934
40
-1.5707963267948934
40
-1.5707963267948934
10
-6.0000000000015064
20
7.2619467105853257
30
0
10
-6.0000000000015064
20
7.2149880344872273
30
0
10
-5.9984035920804502
20
7.1680293583891306
30
0
10
-5.9952184047543255
20
7.121070682291033
30
0
10
-5.9472612928392721
20
6.4140471215275818
30
0
10
-5.4909885838650041
20
5.7070235607641209
30
0
10
-5.0000000000015632
20
5.0000000000006617
30
0
0
LINE
5
118
100
AcDbEntity
8
OUTER_PROFILES
100
AcDbLine
10
-5.0000000000015632
20
5.0000000000006626
30
0
11
0
21
0
31
0
0
LINE
5
119
100
AcDbEntity
8
OUTER_PROFILES
100
AcDbLine
10
0
20
0
30
0
11
747.85857864376214
21
6.6613381477509392e-15
31
0
0
LINE
5
120
100
AcDbEntity
8
OUTER_PROFILES
100
AcDbLine
10
747.85857864376214
20
6.6613381477509392e-15
30
0
11
752.85857864376362
21
5.0000000000011706
31
0
0
SPLINE
5
121
100
AcDbEntity
8
OUTER_PROFILES
100
AcDbSpline
70
0
71
3
72
11
73
7
74
0
42
0.000000001
43
0.0000000001
44
0.0000000001
40
1.5707963267948939
40
1.5707963267948939
40
1.5707963267948939
40
1.5707963267948939
40
3.0437620783854227
40
3.0437620783854227
40
3.0437620783854227
40
3.1415926535897922
40
3.1415926535897922
40
3.1415926535897922
40
3.1415926535897922
10
752.85857864376362
20
5.0000000000010232
30
0
10
753.34956722762718
20
5.707023560764477
30
0
10
753.80583993660139
20
6.4140471215279291
30
0
10
753.85379704851653
20
7.1210706822913785
30
0
10
753.85698223584268
20
7.1680293583894761
30
0
10
753.85857864376374
20
7.2149880344875719
30
0
10
753.85857864376374
20
7.2619467105856694
30
0
0
LINE
5
122
100
AcDbEntity
8
OUTER_PROFILES
100
AcDbLine
10
753.85857864376385
20
7.2619467105856685
30
0
11
753.85857864376317
21
13.261946710587884
31
0
0
SPLINE
5
123
100
AcDbEntity
8
OUTER_PROFILES
100
AcDbSpline
70
0
71
3
72
11
73
7
74
0
42
0.000000001
43
0.0000000001
44
0.0000000001
40
-3.1415926535897931
40
-3.1415926535897931
40
-3.1415926535897931
40
-3.1415926535897931
40
-1.6686269019992692
40
-1.6686269019992692
40
-1.6686269019992692
40
-1.5707963267948966
40
-1.5707963267948966
40
-1.5707963267948966
40
-1.5707963267948966
10
753.85857864376317
20
13.261946710587884
30
0
10
753.85857864376339
20
13.968970271351326
30
0
10
753.44489411565178
20
14.675993832114758
30
0
10
752.95625324046728
20
15.383017392878198
30
0
10
752.92379897747026
20
15.429976068976357
30
0
10
752.89118883549804
20
15.476934745074436
30
0
10
752.85857864376328
20
15.523893421172541
30
0
0
LINE
5
124
100
AcDbEntity
8
OUTER_PROFILES
100
AcDbLine
10
752.85857864376317
20
15.523893421172538
30
0
11
752.92928932188488
21
15.594604099291097
31
0
0
SPLINE
5
125
100
AcDbEntity
8
OUTER_PROFILES
100
AcDbSpline
70
0
71
3
72
11
73
7
74
0
42
0.000000001
43
0.0000000001
44
0.0000000001
40
1.5707963267948966
40
1.5707963267948966
40
1.5707963267948966
40
1.5707963267948966
40
1.6686269019992692
40
1.6686269019992692
40
1.6686269019992692
40
3.1415926535897931
40
3.1415926535897931
40
3.1415926535897931
40
3.1415926535897931
10
752.92928932188488
20
15.594604099291097
30
0
10
752.97624799798302
20
15.561993907556307
30
0
10
753.02320667408117
20
15.529383765584049
30
0
10
753.0701653501792
20
15.496929502587074
30
0
10
753.77718891094264
20
15.008288627402592
30
0
10
754.48421247170609
20
14.594604099291091
30
0
10
755.19123603246953
20
14.594604099291093
30
0
0
LINE
5
126
100
AcDbEntity
8
OUTER_PROFILES
100
AcDbLine
10
755.19123603246953
20
14.594604099291093
30
0
11
761.1912360324668
21
14.594604099290265
31
0
0
SPLINE
5
127
100
AcDbEntity
8
OUTER_PROFILES
100
AcDbSpline
70
0
71
3
72
11
73
7
74
0
42
0.000000001
43
0.0000000001
44
0.0000000001
40
-3.1415926535897944
40
-3.1415926535897944
40
-3.1415926535897944
40
-3.1415926535897944
40
-3.0437620783854236
40
-3.0437620783854236
40
-3.0437620783854236
40
-1.5707963267948946
40
-1.5707963267948946
40
-1.5707963267948946
40
-1.5707963267948946
10
761.1912360324668
20
14.594604099290265
30
0
10
761.23819470856483
20
14.594604099290265
30
0
10
761.28515338466286
20
14.59620050721133
30
0
10
761.33211206076101
20
14.599385694537464
30
0
10
762.03913562152457
20
14.64734280645261
30
0
10
762.7461591822879
20
15.103615515426757
30
0
10
763.45318274305146
20
15.594604099290281
30
0
0
LINE
5
128
100
AcDbEntity
8
OUTER_PROFILES
100
AcDbLine
10
763.45318274305146
20
15.594604099290281
30
0
11
768.45318274305259
21
20.594604099291178
31
0
0
LINE
5
129
100
AcDbEntity
8
OUTER_PROFILES
100
AcDbLine
10
768.45318274305259
20
20.594604099291178
30
0
11
768.45318274305168
21
168.45318274305322
31
0
0
LINE
5
130
100
AcDbEntity
8
OUTER_PROFILES
100
AcDbLine
10
768.45318274305168
20
168.45318274305322
30
0
11
763.45318274305077
21
173.45318274305438
31
0
0
SPLINE
5
131
100
AcDbEntity
8
OUTER_PROFILES
100
AcDbSpline
70
0
71
3
72
11
73
7
74
0
42
0.000000001
43
0.0000000001
44
0.0000000001
40
1.5707963267948946
40
1.5707963267948946
40
1.5707963267948946
40
1.5707963267948946
40
3.0437620783854249
40
3.0437620783854249
40
3.0437620783854249
40
3.1415926535897944
40
3.1415926535897944
40
3.1415926535897944
40
3.1415926535897944
10
763.45318274304168
20
173.45318274305438
30
0
10
762.74615918227812
20
173.94417132691791
30
0
10
762.03913562151467
20
174.40044403589206
30
0
10
761.33211206075111
20
174.44840114780717
30
0
10
761.2851533846532
20
174.4515863351333
30
0
10
761.23819470855506
20
174.45318274305436
30
0
10
761.19123603245703
20
174.45318274305436
30
0
0
LINE
5
132
100
AcDbEntity
8
OUTER_PROFILES
100
AcDbLine
10
761.19123603245703
20
174.45318274305436
30
0
11
755.19123603247169
21
174.45318274305382
31
0
0
SPLINE
5
133
100
AcDbEntity
8
OUTER_PROFILES
100
AcDbSpline
70
0
71
3
72
11
73
7
74
0
42
0.000000001
43
0.0000000001
44
0.0000000001
40
-3.1415926535897931
40
-3.1415926535897931
40
-3.1415926535897931
40
-3.1415926535897931
40
-1.6686269019992677
40
-1.6686269019992677
40
-1.6686269019992677
40
-1.5707963267948966
40
-1.5707963267948966
40
-1.5707963267948966
40
-1.5707963267948966
10
755.19123603247169
20
174.45318274305382
30
0
10
754.48421247170813
20
174.45318274305379
30
0
10
753.77718891094469
20
174.03949821494226
30
0
10
753.07016535018124
20
173.55085733975781
30
0
10
753.0232066740831
20
173.51840307676082
30
0
10
752.97624799798518
20
173.48579293478855
30
0
10
752.92928932188704
20
173.45318274305379
30
0
0
LINE
5
134
100
AcDbEntity
8
OUTER_PROFILES
100
AcDbLine
10
752.92928932188704
20
173.45318274305373
30
0
11
752.85857864376226
21
173.52389342117189
31
0
0
SPLINE
5
135
100
AcDbEntity
8
OUTER_PROFILES
100
AcDbSpline
70
0
71
3
72
11
73
7
74
0
42
0.000000001
43
0.0000000001
44
0.0000000001
40
1.5707963267948966
40
1.5707963267948966
40
1.5707963267948966
40
1.5707963267948966
40
1.6686269019992677
40
1.6686269019992677
40
1.6686269019992677
40
3.1415926535897931
40
3.1415926535897931
40
3.1415926535897931
40
3.1415926535897931
10
752.85857864376226
20
173.52389342117189
30
0
10
752.89118883549702
20
173.57085209726995
30
0
10
752.92379897746923
20
173.61781077336809
30
0
10
752.95625324046625
20
173.66476944946612
30
0
10
753.44489411565075
20
174.37179301022962
30
0
10
753.85857864376237
20
175.07881657099307
30
0
10
753.85857864376237
20
175.78584013175652
30
0
0
LINE
5
136
100
AcDbEntity
8
OUTER_PROFILES
100
AcDbLine
10
753.85857864376237
20
175.78584013175652
30
0
11
753.85857864376226
21
181.78584013175822
31
0
0
SPLINE
5
137
100
AcDbEntity
8
OUTER_PROFILES
100
AcDbSpline
70
0
71
3
72
11
73
7
74
0
42
0.000000001
43
0.0000000001
44
0.0000000001
40
-3.1415926535897931
40
-3.1415926535897931
40
-3.1415926535897931
40
-3.1415926535897931
40
-3.0437620783854284
40
-3.0437620783854284
40
-3.0437620783854284
40
-1.5707963267948977
40
-1.5707963267948977
40
-1.5707963267948977
40
-1.5707963267948977
10
753.85857864376226
20
181.78584013175822
30
0
10
753.85857864376226
20
181.83279880785634
30
0
10
753.85698223584109
20
181.87975748395442
30
0
10
753.85379704851505
20
181.92671616005254
30
0
10
753.80583993660002
20
182.63373972081598
30
0
10
753.3495672276257
20
183.34076328157943
30
0
10
752.85857864376226
20
184.04778684234287
30
0
0
LINE
5
138
100
AcDbEntity
8
OUTER_PROFILES
100
AcDbLine
10
752.85857864376214
20
184.04778684234287
30
0
11
747.85857864376112
21
189.04778684234356
31
0
0
LINE
5
139
100
AcDbEntity
8
OUTER_PROFILES
100
AcDbLine
10
747.85857864376112
20
189.04778684234356
30
0
11
-9.9475983006414026e-13
21
189.04778684234054
31
0
0
ENDSEC
0
SECTION
2
OBJECTS
0
DICTIONARY
5
C
100
AcDbDictionary
3
ACAD_GROUP
350
D
3
ACAD_MLINESTYLE
350
17
0
DICTIONARY
5
D
100
AcDbDictionary
0
DICTIONARY
5
1A
330
C
100
AcDbDictionary
0
DICTIONARY
5
17
100
AcDbDictionary
0
ENDSEC
0
EOF
