0
SECTION
2
HEADER
9
$INSUNITS
70
4
9
$ACADVER
1
AC1014
9
$HANDSEED
5
FFFF
0
ENDSEC
0
SECTION
2
TABLES
0
TABLE
2
VPORT
5
8
100
AcDbSymbolTable
0
ENDTAB
0
TABLE
2
LTYPE
5
5
100
AcDbSymbolTable
0
LTYPE
5
14
100
AcDbSymbolTableRecord
100
AcDbLinetypeTableRecord
2
BYBLOCK
70
0
0
LTYPE
5
15
100
AcDbSymbolTableRecord
100
AcDbLinetypeTableRecord
2
BYLAYER
70
0
0
LTYPE
5
16
100
AcDbSymbolTableRecord
100
AcDbLinetypeTableRecord
2
DASHED
70
0
3
Dashed __ __ __ __ __ __ __ __ __ __ __ __ __ _
72
65
73
2
40
0.75
49
0.5
74
0
49
-0.25
74
0
0
ENDTAB
0
TABLE
2
LAYER
5
2
100
AcDbSymbolTable
70
2
0
LAYER
5
50
100
AcDbSymbolTableRecord
100
AcDbLayerTableRecord
2
0
70
0
62
7
6
CONTINUOUS
0
ENDTAB
0
TABLE
2
STYLE
5
3
100
AcDbSymbolTable
70
1
0
STYLE
5
11
100
AcDbSymbolTableRecord
100
AcDbTextStyleTableRecord
2
STANDARD
70
0
0
ENDTAB
0
TABLE
2
VIEW
5
6
100
AcDbSymbolTable
70
0
0
ENDTAB
0
TABLE
2
UCS
5
7
100
AcDbSymbolTable
70
0
0
ENDTAB
0
TABLE
2
APPID
5
9
100
AcDbSymbolTable
70
2
0
APPID
5
12
100
AcDbSymbolTableRecord
100
AcDbRegAppTableRecord
2
ACAD
70
0
0
ENDTAB
0
TABLE
2
DIMSTYLE
5
A
100
AcDbSymbolTable
70
1
0
ENDTAB
0
TABLE
2
BLOCK_RECORD
5
1
100
AcDbSymbolTable
70
1
0
BLOCK_RECORD
5
1F
100
AcDbSymbolTableRecord
100
AcDbBlockTableRecord
2
*MODEL_SPACE
0
BLOCK_RECORD
5
1B
100
AcDbSymbolTableRecord
100
AcDbBlockTableRecord
2
*PAPER_SPACE
0
ENDTAB
0
ENDSEC
0
SECTION
2
BLOCKS
0
BLOCK
5
20
100
AcDbEntity
100
AcDbBlockBegin
2
*MODEL_SPACE
0
ENDBLK
5
21
100
AcDbEntity
100
AcDbBlockEnd
0
BLOCK
5
1C
100
AcDbEntity
100
AcDbBlockBegin
2
*PAPER_SPACE
0
ENDBLK
5
1D
100
AcDbEntity
100
AcDbBlockEnd
0
ENDSEC
0
SECTION
2
ENTITIES
0
LWPOLYLINE
5
100
100
AcDbEntity
8
OUTER_PROFILES
100
AcDbPolyline
90
18
70
1
43
0.0
10
1005.0293161689528
20
584.10002684710639
42
0.41421356237306561
10
1005.0293161689528
20
582.6858132847334
10
1010.5238934211785
20
577.1912360325075
10
1010.5238934211786
20
573.33265738874343
10
1005.0293161689494
20
567.83808013651401
42
0.41421356237306561
10
1005.0293161689495
20
566.4238665741409
10
1010.5238934211689
20
560.92928932192126
10
1010.5238934211691
20
3.986144747614162e-11
10
0
20
0
10
-3.9390712913700554e-12
20
560.92928932190603
10
5.4945772522252785
20
566.42386657413522
42
0.41421356237309415
10
5.494577252225314
20
567.83808013650832
10
5.7132076847210556e-12
20
573.33265738872797
10
5.3779203312842583e-12
20
577.19123603249204
10
5.4945772522274448
20
582.6858132847143
42
0.41421356237309293
10
5.4945772522274812
20
584.10002684708741
10
0.07071067811872056
20
589.52389342119614
10
1010.4531827430578
20
589.5238934212116
0
CIRCLE
5
101
100
AcDbEntity
8
INTERIOR_PROFILES
100
AcDbCircle
10
-2.999999999997462
20
537.00000000004627
30
0
40
1.7000000000000171
210
0
220
0
230
-1
0
CIRCLE
5
102
100
AcDbEntity
8
INTERIOR_PROFILES
100
AcDbCircle
10
-2.9999999999947184
20
3.0000000000461569
30
0
40
1.7000000000000171
210
0
220
0
230
-1
0
CIRCLE
5
103
100
AcDbEntity
8
INTERIOR_PROFILES
100
AcDbCircle
10
-996.26194671048552
20
290.00000000003564
30
0
40
1.7000000000000171
210
0
220
0
230
-1
0
CIRCLE
5
104
100
AcDbEntity
8
INTERIOR_PROFILES
100
AcDbCircle
10
-996.26194671048779
20
559.0000000000357
30
0
40
1.7000000000000171
210
0
220
0
230
-1
0
CIRCLE
5
105
100
AcDbEntity
8
INTERIOR_PROFILES
100
AcDbCircle
10
-805.26194671058101
20
5.0000000000030553
30
0
40
1.7000000000000171
210
0
220
0
230
-1
0
CIRCLE
5
106
100
AcDbEntity
8
INTERIOR_PROFILES
100
AcDbCircle
10
-996.26194671048734
20
513.0000000000357
30
0
40
1.7000000000000171
210
0
220
0
230
-1
0
CIRCLE
5
107
100
AcDbEntity
8
INTERIOR_PROFILES
100
AcDbCircle
10
-996.2619467104862
20
359.00000000003558
30
0
40
1.7000000000000171
210
0
220
0
230
-1
0
CIRCLE
5
108
100
AcDbEntity
8
INTERIOR_PROFILES
100
AcDbCircle
10
-996.26194671058261
20
181.00000000002046
30
0
40
1.7000000000000171
210
0
220
0
230
-1
0
CIRCLE
5
109
100
AcDbEntity
8
INTERIOR_PROFILES
100
AcDbCircle
10
-996.26194671048711
20
481.00000000003558
30
0
40
1.7000000000000171
210
0
220
0
230
-1
0
CIRCLE
5
110
100
AcDbEntity
8
INTERIOR_PROFILES
100
AcDbCircle
10
-996.26194671058317
20
258.00000000002046
30
0
40
1.7000000000000171
210
0
220
0
230
-1
0
CIRCLE
5
111
100
AcDbEntity
8
INTERIOR_PROFILES
100
AcDbCircle
10
-996.26194671048768
20
537.00000000003536
30
0
40
1.7000000000000171
210
0
220
0
230
-1
0
CIRCLE
5
112
100
AcDbEntity
8
INTERIOR_PROFILES
100
AcDbCircle
10
-996.26194671058147
20
45.000000000010871
30
0
40
1.7000000000000171
210
0
220
0
230
-1
0
CIRCLE
5
113
100
AcDbEntity
8
INTERIOR_PROFILES
100
AcDbCircle
10
-705.26194671058101
20
5.000000000003908
30
0
40
1.7000000000000171
210
0
220
0
230
-1
0
CIRCLE
5
114
100
AcDbEntity
8
INTERIOR_PROFILES
100
AcDbCircle
10
-14.261946710679849
20
5.0000000000270717
30
0
40
1.6999999999999993
210
0
220
0
230
-1
0
CIRCLE
5
115
100
AcDbEntity
8
INTERIOR_PROFILES
100
AcDbCircle
10
-924.26194671058113
20
5.0000000000027001
30
0
40
1.7000000000000171
210
0
220
0
230
-1
0
CIRCLE
5
116
100
AcDbEntity
8
INTERIOR_PROFILES
100
AcDbCircle
10
-996.26194671048324
20
5.0000000000020606
30
0
40
1.7000000000000171
210
0
220
0
230
-1
0
CIRCLE
5
117
100
AcDbEntity
8
INTERIOR_PROFILES
100
AcDbCircle
10
-2.9999999999965477
20
359.00000000004627
30
0
40
1.7000000000000171
210
0
220
0
230
-1
0
CIRCLE
5
118
100
AcDbEntity
8
INTERIOR_PROFILES
100
AcDbCircle
10
-2.9999999999956328
20
181.00000000004627
30
0
40
1.7000000000000171
210
0
220
0
230
-1
0
CIRCLE
5
119
100
AcDbEntity
8
INTERIOR_PROFILES
100
AcDbCircle
10
-996.26194671048722
20
497.0000000000357
30
0
40
6.5000000000000568
210
0
220
0
230
-1
0
CIRCLE
5
120
100
AcDbEntity
8
INTERIOR_PROFILES
100
AcDbCircle
10
-14.261946710683864
20
497.00000000004343
30
0
40
6.5
210
0
220
0
230
-1
0
CIRCLE
5
121
100
AcDbEntity
8
INTERIOR_PROFILES
100
AcDbCircle
10
-14.261946710599656
20
481.00000000004695
30
0
40
1.6999999999999993
210
0
220
0
230
-1
0
CIRCLE
5
122
100
AcDbEntity
8
INTERIOR_PROFILES
100
AcDbCircle
10
-14.261946710583944
20
258.0000000000154
30
0
40
1.6999999999999993
210
0
220
0
230
-1
0
CIRCLE
5
123
100
AcDbEntity
8
INTERIOR_PROFILES
100
AcDbCircle
10
-14.261946710583334
20
181.00000000004215
30
0
40
1.6999999999999993
210
0
220
0
230
-1
0
CIRCLE
5
124
100
AcDbEntity
8
INTERIOR_PROFILES
100
AcDbCircle
10
-14.261946710684141
20
537.00000000003001
30
0
40
1.6999999999999993
210
0
220
0
230
-1
0
CIRCLE
5
125
100
AcDbEntity
8
INTERIOR_PROFILES
100
AcDbCircle
10
-14.261946710582496
20
45.000000000028635
30
0
40
1.6999999999999993
210
0
220
0
230
-1
0
CIRCLE
5
126
100
AcDbEntity
8
INTERIOR_PROFILES
100
AcDbCircle
10
-14.261946710633735
20
559.0000000000914
30
0
40
1.6999999999999993
210
0
220
0
230
-1
0
CIRCLE
5
127
100
AcDbEntity
8
INTERIOR_PROFILES
100
AcDbCircle
10
-40.261946710582237
20
5.0000000000272848
30
0
40
1.6999999999999993
210
0
220
0
230
-1
0
CIRCLE
5
128
100
AcDbEntity
8
INTERIOR_PROFILES
100
AcDbCircle
10
-14.261946710598959
20
290.00000000004871
30
0
40
1.6999999999999993
210
0
220
0
230
-1
0
CIRCLE
5
129
100
AcDbEntity
8
INTERIOR_PROFILES
100
AcDbCircle
10
-14.261946710581977
20
13.000000000042107
30
0
40
1.6999999999999993
210
0
220
0
230
-1
0
CIRCLE
5
130
100
AcDbEntity
8
INTERIOR_PROFILES
100
AcDbCircle
10
-14.261946710682661
20
359.00000000004354
30
0
40
1.6999999999999993
210
0
220
0
230
-1
0
CIRCLE
5
131
100
AcDbEntity
8
INTERIOR_PROFILES
100
AcDbCircle
10
-1007.5238934212057
20
359.00000000004127
30
0
40
1.7000000000000171
210
0
220
0
230
-1
0
CIRCLE
5
132
100
AcDbEntity
8
INTERIOR_PROFILES
100
AcDbCircle
10
-605.26194671058113
20
5.0000000000047606
30
0
40
1.7000000000000171
210
0
220
0
230
-1
0
CIRCLE
5
133
100
AcDbEntity
8
INTERIOR_PROFILES
100
AcDbCircle
10
-1007.5238934212013
20
3.0000000000412541
30
0
40
1.7000000000000171
210
0
220
0
230
-1
0
CIRCLE
5
134
100
AcDbEntity
8
INTERIOR_PROFILES
100
AcDbCircle
10
-970.26194671058101
20
5.0000000000022737
30
0
40
1.7000000000000171
210
0
220
0
230
-1
0
CIRCLE
5
135
100
AcDbEntity
8
INTERIOR_PROFILES
100
AcDbCircle
10
-996.26194671058124
20
13.000000000010914
30
0
40
1.7000000000000171
210
0
220
0
230
-1
0
CIRCLE
5
136
100
AcDbEntity
8
INTERIOR_PROFILES
100
AcDbCircle
10
-905.26194671058101
20
5.0000000000022027
30
0
40
1.7000000000000171
210
0
220
0
230
-1
0
CIRCLE
5
137
100
AcDbEntity
8
INTERIOR_PROFILES
100
AcDbCircle
10
-14.261946710684018
20
513.00000000004343
30
0
40
1.6999999999999993
210
0
220
0
230
-1
0
CIRCLE
5
138
100
AcDbEntity
8
INTERIOR_PROFILES
100
AcDbCircle
10
-1007.5238934212034
20
181.0000000000413
30
0
40
1.7000000000000171
210
0
220
0
230
-1
0
CIRCLE
5
139
100
AcDbEntity
8
INTERIOR_PROFILES
100
AcDbCircle
10
-1007.5238934212077
20
537.00000000004127
30
0
40
1.7000000000000171
210
0
220
0
230
-1
0
CIRCLE
5
140
100
AcDbEntity
8
INTERIOR_PROFILES
100
AcDbCircle
10
-505.26194671056965
20
5.0000000000081002
30
0
40
1.7000000000000171
210
0
220
0
230
-1
0
CIRCLE
5
141
100
AcDbEntity
8
INTERIOR_PROFILES
100
AcDbCircle
10
-86.261946710581185
20
5.0000000000267875
30
0
40
1.6999999999999993
210
0
220
0
230
-1
0
LINE
5
142
100
AcDbEntity
8
BEND
100
AcDbLine
10
1004.3929200658812
20
583.39292006591802
30
1.2180042358451607e-09
11
1004.3929200658811
21
589.5238934212116
31
1.223418864965055e-09
0
LINE
5
143
100
AcDbEntity
8
BEND
100
AcDbLine
10
1004.3929200658863
20
567.13097335533223
30
1.2520047956168236e-09
11
1004.3929200658812
21
583.39292006591802
31
1.2180042358451607e-09
0
LINE
5
144
100
AcDbEntity
8
BEND
100
AcDbLine
10
1004.3929200658715
20
3.979039320256561e-11
30
2.0225945871057349e-09
11
1004.3929200658863
21
567.13097335533223
31
1.2520047956168236e-09
0
LINE
5
145
100
AcDbEntity
8
BEND
100
AcDbLine
10
6.1309733552923689
20
589.52389342119636
30
-7.7890704466319431e-10
11
6.1309733552924772
21
583.3929200659029
31
-7.7978673843382761e-10
0
LINE
5
146
100
AcDbEntity
8
BEND
100
AcDbLine
10
6.1309733552924772
20
583.3929200659029
30
-7.7978673843382761e-10
11
6.130973355297936
21
567.130973355317
31
-7.457861786621641e-10
0
LINE
5
147
100
AcDbEntity
8
BEND
100
AcDbLine
10
6.130973355297936
20
567.130973355317
30
-7.457861786621641e-10
11
6.1309733552871162
21
-7.1054273576010019e-14
31
2.4763855647855077e-11
0
LINE
5
148
100
AcDbEntity
8
BEND
100
AcDbLine
10
1004.7364229501393
20
583.39292006591802
30
1.2363708431653935e-09
11
5.7874704710410185
21
583.3929200659029
31
-7.6857971294750922e-10
0
LINE
5
149
100
AcDbEntity
8
BEND
100
AcDbLine
10
1004.7364229501359
20
567.13097335533223
30
1.25134137742039e-09
11
5.7874704710387448
21
567.13097335531688
31
-7.5209446527446077e-10
0
LINE
5
150
100
AcDbEntity
8
BEND_EXTENT
100
AcDbLine
10
4.9999999999998579
20
-7.1054273576010019e-14
30
2.0238161829676104e-11
11
4.9999999999960156
21
565.92928932190614
31
-7.5098081375845995e-10
0
LINE
5
151
100
AcDbEntity
8
BEND_EXTENT
100
AcDbLine
10
7.261946710590399
20
566.00000000002467
30
-7.4197851169367137e-10
11
7.2619467105811006
21
-7.1054273576010019e-14
31
2.9312399819135941e-11
0
LINE
5
152
100
AcDbEntity
8
BEND_EXTENT
100
AcDbLine
10
1003.2619467105942
20
566.0000000000399
30
1.2512856981047144e-09
11
7.261946710590399
21
566.00000000002467
31
-7.4197851169367137e-10
0
LINE
5
153
100
AcDbEntity
8
BEND_EXTENT
100
AcDbLine
10
1003.261946710581
20
3.986144747614162e-11
30
2.0225766096174801e-09
11
1003.2619467105942
21
566.0000000000399
31
1.2512856981047144e-09
0
LINE
5
154
100
AcDbEntity
8
BEND_EXTENT
100
AcDbLine
10
5.0000000000014726
20
584.59460409931364
30
-7.7663009592000532e-10
11
5.0000000000013554
21
589.52389342119625
31
-7.8348958335693875e-10
0
LINE
5
155
100
AcDbEntity
8
BEND_EXTENT
100
AcDbLine
10
7.2619467105835565
20
589.52389342119636
30
-7.743531728780982e-10
11
7.2619467105836026
21
584.52389342119648
31
-7.6740842684017355e-10
0
LINE
5
156
100
AcDbEntity
8
BEND_EXTENT
100
AcDbLine
10
7.2619467105836026
20
584.52389342119648
30
-7.6740842684017355e-10
11
1003.2619467105882
21
584.5238934212116
31
1.2258557829582135e-09
0
LINE
5
157
100
AcDbEntity
8
BEND_EXTENT
100
AcDbLine
10
1003.2619467105882
20
584.5238934212116
30
1.2258557829582135e-09
11
1003.2619467105881
21
589.52389342121148
31
1.2189110369202889e-09
0
LINE
5
158
100
AcDbEntity
8
BEND_EXTENT
100
AcDbLine
10
1005.5238934211785
20
582.19123603250739
30
1.2332971384199545e-09
11
1005.5238934211789
21
568.33265738874331
31
1.2523249965234834e-09
0
LWPOLYLINE
5
159
100
AcDbEntity
8
BEND_EXTENT
100
AcDbPolyline
90
4
70
1
43
0.0
10
1003.2619467105942
20
568.26194671062456
10
1003.2619467105916
20
582.26194671062456
10
7.2619467105870683
20
582.26194671060932
10
7.2619467105903386
20
568.26194671060932
0
LINE
5
160
100
AcDbEntity
8
BEND_EXTENT
100
AcDbLine
10
1005.5238934211751
20
589.5238934212116
30
1.2279941566939573e-09
11
1005.5238934211752
21
584.59460409932876
31
1.2347825898573148e-09
0
LINE
5
161
100
AcDbEntity
8
BEND_EXTENT
100
AcDbLine
10
1005.523893421169
20
565.92928932192069
30
1.2514790335482824e-09
11
1005.5238934211623
21
3.979039320256561e-11
31
2.0226980091363627e-09
0
LINE
5
162
100
AcDbEntity
8
BEND_EXTENT
100
AcDbLine
10
5.0000000000057234
20
568.33265738872808
30
-7.4956641659465035e-10
11
5.0000000000053326
21
582.19123603249204
31
-7.68523220424603e-10
0
ENDSEC
0
SECTION
2
OBJECTS
0
DICTIONARY
5
C
100
AcDbDictionary
3
ACAD_GROUP
350
D
3
ACAD_MLINESTYLE
350
17
0
DICTIONARY
5
D
100
AcDbDictionary
0
DICTIONARY
5
1A
330
C
100
AcDbDictionary
0
DICTIONARY
5
17
100
AcDbDictionary
0
ENDSEC
0
EOF
