0
SECTION
2
HEADER
9
$INSUNITS
70
4
9
$ACADVER
1
AC1014
9
$HANDSEED
5
FFFF
0
ENDSEC
0
SECTION
2
TABLES
0
TABLE
2
VPORT
5
8
100
AcDbSymbolTable
0
ENDTAB
0
TABLE
2
LTYPE
5
5
100
AcDbSymbolTable
0
LTYPE
5
14
100
AcDbSymbolTableRecord
100
AcDbLinetypeTableRecord
2
BYBLOCK
70
0
0
LTYPE
5
15
100
AcDbSymbolTableRecord
100
AcDbLinetypeTableRecord
2
BYLAYER
70
0
0
LTYPE
5
16
100
AcDbSymbolTableRecord
100
AcDbLinetypeTableRecord
2
DASHED
70
0
3
Dashed __ __ __ __ __ __ __ __ __ __ __ __ __ _
72
65
73
2
40
0.75
49
0.5
74
0
49
-0.25
74
0
0
ENDTAB
0
TABLE
2
LAYER
5
2
100
AcDbSymbolTable
70
2
0
LAYER
5
50
100
AcDbSymbolTableRecord
100
AcDbLayerTableRecord
2
0
70
0
62
7
6
CONTINUOUS
0
ENDTAB
0
TABLE
2
STYLE
5
3
100
AcDbSymbolTable
70
1
0
STYLE
5
11
100
AcDbSymbolTableRecord
100
AcDbTextStyleTableRecord
2
STANDARD
70
0
0
ENDTAB
0
TABLE
2
VIEW
5
6
100
AcDbSymbolTable
70
0
0
ENDTAB
0
TABLE
2
UCS
5
7
100
AcDbSymbolTable
70
0
0
ENDTAB
0
TABLE
2
APPID
5
9
100
AcDbSymbolTable
70
2
0
APPID
5
12
100
AcDbSymbolTableRecord
100
AcDbRegAppTableRecord
2
ACAD
70
0
0
ENDTAB
0
TABLE
2
DIMSTYLE
5
A
100
AcDbSymbolTable
70
1
0
ENDTAB
0
TABLE
2
BLOCK_RECORD
5
1
100
AcDbSymbolTable
70
1
0
BLOCK_RECORD
5
1F
100
AcDbSymbolTableRecord
100
AcDbBlockTableRecord
2
*MODEL_SPACE
0
BLOCK_RECORD
5
1B
100
AcDbSymbolTableRecord
100
AcDbBlockTableRecord
2
*PAPER_SPACE
0
ENDTAB
0
ENDSEC
0
SECTION
2
BLOCKS
0
BLOCK
5
20
100
AcDbEntity
100
AcDbBlockBegin
2
*MODEL_SPACE
0
ENDBLK
5
21
100
AcDbEntity
100
AcDbBlockEnd
0
BLOCK
5
1C
100
AcDbEntity
100
AcDbBlockBegin
2
*PAPER_SPACE
0
ENDBLK
5
1D
100
AcDbEntity
100
AcDbBlockEnd
0
ENDSEC
0
SECTION
2
ENTITIES
0
LINE
5
100
100
AcDbEntity
8
OUTER_PROFILES
100
AcDbLine
10
763.4531827430493
20
15.594604099286602
30
0
11
768.4531827430493
21
20.594604099286904
31
0
0
LINE
5
101
100
AcDbEntity
8
OUTER_PROFILES
100
AcDbLine
10
768.4531827430493
20
20.594604099286904
30
0
11
768.45318274304486
21
1168.4531827430508
31
0
0
LINE
5
102
100
AcDbEntity
8
OUTER_PROFILES
100
AcDbLine
10
768.45318274304486
20
1168.4531827430508
30
0
11
763.45318274304748
21
1173.4531827430512
31
0
0
SPLINE
5
103
100
AcDbEntity
8
OUTER_PROFILES
100
AcDbSpline
70
0
71
3
72
11
73
7
74
0
42
0.000000001
43
0.0000000001
44
0.0000000001
40
1.5707963267948968
40
1.5707963267948968
40
1.5707963267948968
40
1.5707963267948968
40
3.043762078385428
40
3.043762078385428
40
3.043762078385428
40
3.1415926535897931
40
3.1415926535897931
40
3.1415926535897931
40
3.1415926535897931
10
763.45318274304748
20
1173.4531827430512
30
0
10
762.74615918228403
20
1173.9441713269146
30
0
10
762.03913562152047
20
1174.4004440358888
30
0
10
761.33211206075714
20
1174.4484011478041
30
0
10
761.285153384659
20
1174.4515863351301
30
0
10
761.23819470856097
20
1174.453182743051
30
0
10
761.19123603246283
20
1174.453182743051
30
0
0
LINE
5
104
100
AcDbEntity
8
OUTER_PROFILES
100
AcDbLine
10
761.19123603246283
20
1174.4531827430512
30
0
11
755.19123603246146
21
1174.4531827430505
31
0
0
SPLINE
5
105
100
AcDbEntity
8
OUTER_PROFILES
100
AcDbSpline
70
0
71
3
72
11
73
7
74
0
42
0.000000001
43
0.0000000001
44
0.0000000001
40
-3.1415926535897931
40
-3.1415926535897931
40
-3.1415926535897931
40
-3.1415926535897931
40
-1.6686269019992677
40
-1.6686269019992677
40
-1.6686269019992677
40
-1.5707963267948966
40
-1.5707963267948966
40
-1.5707963267948966
40
-1.5707963267948966
10
755.19123603246794
20
1174.4531827430505
30
0
10
754.4842124717045
20
1174.4531827430505
30
0
10
753.77718891094105
20
1174.0394982149389
30
0
10
753.0701653501776
20
1173.5508573397544
30
0
10
753.02320667407957
20
1173.5184030767575
30
0
10
752.97624799798143
20
1173.4857929347852
30
0
10
752.92928932188329
20
1173.4531827430505
30
0
0
LINE
5
106
100
AcDbEntity
8
OUTER_PROFILES
100
AcDbLine
10
752.92928932188329
20
1173.4531827430503
30
0
11
752.85857864375839
21
1173.5238934211732
31
0
0
SPLINE
5
107
100
AcDbEntity
8
OUTER_PROFILES
100
AcDbSpline
70
0
71
3
72
11
73
7
74
0
42
0.000000001
43
0.0000000001
44
0.0000000001
40
1.5707963267948966
40
1.5707963267948966
40
1.5707963267948966
40
1.5707963267948966
40
1.6686269019992677
40
1.6686269019992677
40
1.6686269019992677
40
3.1415926535897931
40
3.1415926535897931
40
3.1415926535897931
40
3.1415926535897931
10
752.85857864375839
20
1173.5238934211732
30
0
10
752.89118883549327
20
1173.5708520972712
30
0
10
752.92379897746537
20
1173.6178107733692
30
0
10
752.95625324046239
20
1173.6647694494675
30
0
10
753.44489411564678
20
1174.3717930102307
30
0
10
753.85857864375839
20
1175.0788165709944
30
0
10
753.85857864375839
20
1175.7858401317578
30
0
0
LINE
5
108
100
AcDbEntity
8
OUTER_PROFILES
100
AcDbLine
10
753.85857864375839
20
1175.7858401317578
30
0
11
753.85857864375839
21
1181.7858401317553
31
0
0
SPLINE
5
109
100
AcDbEntity
8
OUTER_PROFILES
100
AcDbSpline
70
0
71
3
72
11
73
7
74
0
42
0.000000001
43
0.0000000001
44
0.0000000001
40
-3.1415926535897931
40
-3.1415926535897931
40
-3.1415926535897931
40
-3.1415926535897931
40
-3.0437620783853943
40
-3.0437620783853943
40
-3.0437620783853943
40
-1.5707963267948679
40
-1.5707963267948679
40
-1.5707963267948679
40
-1.5707963267948679
10
753.85857864375839
20
1181.7858401317553
30
0
10
753.85857864375839
20
1181.8327988078534
30
0
10
753.85698223583734
20
1181.8797574839514
30
0
10
753.85379704851118
20
1181.9267161600496
30
0
10
753.80583993659593
20
1182.6337397208131
30
0
10
753.34956722762183
20
1183.3407632815765
30
0
10
752.85857864375828
20
1184.04778684234
30
0
0
LINE
5
110
100
AcDbEntity
8
OUTER_PROFILES
100
AcDbLine
10
752.85857864375816
20
1184.04778684234
30
0
11
747.85857864375816
21
1189.0477868423359
31
0
0
LINE
5
111
100
AcDbEntity
8
OUTER_PROFILES
100
AcDbLine
10
747.85857864375816
20
1189.0477868423359
30
0
11
-2.9842794901924208e-12
21
1189.0477868423325
31
0
0
LINE
5
112
100
AcDbEntity
8
OUTER_PROFILES
100
AcDbLine
10
-2.9842794901924208e-12
20
1189.0477868423325
30
0
11
-5.0000000000029843
21
1184.0477868423377
31
0
0
SPLINE
5
113
100
AcDbEntity
8
OUTER_PROFILES
100
AcDbSpline
70
0
71
3
72
11
73
7
74
0
42
0.000000001
43
0.0000000001
44
0.0000000001
40
1.5707963267951535
40
1.5707963267951535
40
1.5707963267951535
40
1.5707963267951535
40
3.0437620783856194
40
3.0437620783856194
40
3.0437620783856194
40
3.1415926535897936
40
3.1415926535897936
40
3.1415926535897936
40
3.1415926535897936
10
-5.0000000000029843
20
1184.0477868423377
30
0
10
-5.4909885838665673
20
1183.3407632815743
30
0
10
-5.9472612928404089
20
1182.6337397208108
30
0
10
-5.9952184047554624
20
1181.9267161600474
30
0
10
-5.998403592081587
20
1181.8797574839493
30
0
10
-6.0000000000026432
20
1181.8327988078513
30
0
10
-6.0000000000026432
20
1181.7858401317533
30
0
0
LINE
5
114
100
AcDbEntity
8
OUTER_PROFILES
100
AcDbLine
10
-6.0000000000026441
20
1181.7858401317533
30
0
11
-6.0000000000022169
21
1175.7858401317501
31
0
0
SPLINE
5
115
100
AcDbEntity
8
OUTER_PROFILES
100
AcDbSpline
70
0
71
3
72
11
73
7
74
0
42
0.000000001
43
0.0000000001
44
0.0000000001
40
-3.1415926535897931
40
-3.1415926535897931
40
-3.1415926535897931
40
-3.1415926535897931
40
-1.6686269019992672
40
-1.6686269019992672
40
-1.6686269019992672
40
-1.5707963267948966
40
-1.5707963267948966
40
-1.5707963267948966
40
-1.5707963267948966
10
-6.0000000000022169
20
1175.7858401317601
30
0
10
-6.0000000000022169
20
1175.0788165709967
30
0
10
-5.5863154718906571
20
1174.3717930102334
30
0
10
-5.0976745967061277
20
1173.66476944947
30
0
10
-5.0652203337092772
20
1173.6178107733717
30
0
10
-5.0326101917370636
20
1173.5708520972737
30
0
10
-5.0000000000021316
20
1173.5238934211754
30
0
0
LINE
5
116
100
AcDbEntity
8
OUTER_PROFILES
100
AcDbLine
10
-5.0000000000021316
20
1173.5238934211754
30
0
11
-5.0707106781217703
21
1173.4531827430455
31
0
0
SPLINE
5
117
100
AcDbEntity
8
OUTER_PROFILES
100
AcDbSpline
70
0
71
3
72
11
73
7
74
0
42
0.000000001
43
0.0000000001
44
0.0000000001
40
1.5707963267948966
40
1.5707963267948966
40
1.5707963267948966
40
1.5707963267948966
40
1.6686269019992672
40
1.6686269019992672
40
1.6686269019992672
40
3.1415926535897931
40
3.1415926535897931
40
3.1415926535897931
40
3.1415926535897931
10
-5.0707106781257494
20
1173.4531827430455
30
0
10
-5.1176693542238638
20
1173.4857929347802
30
0
10
-5.1646280303218361
20
1173.5184030767525
30
0
10
-5.2115867064199506
20
1173.5508573397494
30
0
10
-5.9186102671834817
20
1174.0394982149339
30
0
10
-6.6256338279468707
20
1174.4531827430453
30
0
10
-7.3326573887102597
20
1174.4531827430453
30
0
0
LINE
5
118
100
AcDbEntity
8
OUTER_PROFILES
100
AcDbLine
10
-7.3326573887102589
20
1174.4531827430453
30
0
11
-13.332657388710203
21
1174.4531827430471
31
0
0
SPLINE
5
119
100
AcDbEntity
8
OUTER_PROFILES
100
AcDbSpline
70
0
71
3
72
11
73
7
74
0
42
0.000000001
43
0.0000000001
44
0.0000000001
40
-3.1415926535897931
40
-3.1415926535897931
40
-3.1415926535897931
40
-3.1415926535897931
40
-3.0437620783854271
40
-3.0437620783854271
40
-3.0437620783854271
40
-1.5707963267948966
40
-1.5707963267948966
40
-1.5707963267948966
40
-1.5707963267948966
10
-13.332657388710203
20
1174.4531827430471
30
0
10
-13.379616064808317
20
1174.4531827430471
30
0
10
-13.426574740906432
20
1174.451586335126
30
0
10
-13.473533417004546
20
1174.4484011477998
30
0
10
-14.180556977767935
20
1174.4004440358847
30
0
10
-14.887580538531466
20
1173.9441713269107
30
0
10
-15.594604099294855
20
1173.4531827430469
30
0
0
LINE
5
120
100
AcDbEntity
8
OUTER_PROFILES
100
AcDbLine
10
-15.594604099294854
20
1173.4531827430469
30
0
11
-20.594604099289739
21
1168.4531827430469
31
0
0
LINE
5
121
100
AcDbEntity
8
OUTER_PROFILES
100
AcDbLine
10
-20.594604099289739
20
1168.4531827430469
30
0
11
-20.594604099286755
21
20.594604099285903
31
0
0
LINE
5
122
100
AcDbEntity
8
OUTER_PROFILES
100
AcDbLine
10
-20.594604099286755
20
20.594604099285903
30
0
11
-15.594604099289171
21
15.594604099286055
31
0
0
SPLINE
5
123
100
AcDbEntity
8
OUTER_PROFILES
100
AcDbSpline
70
0
71
3
72
11
73
7
74
0
42
0.000000001
43
0.0000000001
44
0.0000000001
40
1.5707963267948966
40
1.5707963267948966
40
1.5707963267948966
40
1.5707963267948966
40
3.0437620783854284
40
3.0437620783854284
40
3.0437620783854284
40
3.1415926535897931
40
3.1415926535897931
40
3.1415926535897931
40
3.1415926535897931
10
-15.594604099289171
20
15.594604099286055
30
0
10
-14.887580538525782
20
15.103615515422547
30
0
10
-14.180556977762251
20
14.647342806448423
30
0
10
-13.473533416998862
20
14.5993856945333
30
0
10
-13.426574740900747
20
14.596200507207175
30
0
10
-13.379616064802633
20
14.59460409928605
30
0
10
-13.332657388704519
20
14.59460409928605
30
0
0
LINE
5
124
100
AcDbEntity
8
OUTER_PROFILES
100
AcDbLine
10
-13.33265738870452
20
14.59460409928605
30
0
11
-7.3326573887035806
21
14.594604099285505
31
0
0
SPLINE
5
125
100
AcDbEntity
8
OUTER_PROFILES
100
AcDbSpline
70
0
71
3
72
11
73
7
74
0
42
0.000000001
43
0.0000000001
44
0.0000000001
40
-3.1415926535897931
40
-3.1415926535897931
40
-3.1415926535897931
40
-3.1415926535897931
40
-1.6686269019992668
40
-1.6686269019992668
40
-1.6686269019992668
40
-1.5707963267948966
40
-1.5707963267948966
40
-1.5707963267948966
40
-1.5707963267948966
10
-7.3326573887101176
20
14.594604099285505
30
0
10
-6.6256338279467286
20
14.594604099285506
30
0
10
-5.9186102671830554
20
15.008288627397068
30
0
10
-5.2115867064196664
20
15.496929502581461
30
0
10
-5.164628030321694
20
15.529383765578524
30
0
10
-5.1176693542234375
20
15.561993907550738
30
0
10
-5.0707106781254652
20
15.594604099285528
30
0
0
LINE
5
126
100
AcDbEntity
8
OUTER_PROFILES
100
AcDbLine
10
-5.0707106781254661
20
15.594604099285529
30
0
11
-5.0000000000007105
21
15.523893421170436
31
0
0
SPLINE
5
127
100
AcDbEntity
8
OUTER_PROFILES
100
AcDbSpline
70
0
71
3
72
11
73
7
74
0
42
0.000000001
43
0.0000000001
44
0.0000000001
40
1.5707963267948966
40
1.5707963267948966
40
1.5707963267948966
40
1.5707963267948966
40
1.6686269019992668
40
1.6686269019992668
40
1.6686269019992668
40
3.1415926535897931
40
3.1415926535897931
40
3.1415926535897931
40
3.1415926535897931
10
-5.0000000000007105
20
15.523893421170436
30
0
10
-5.0326101917355004
20
15.476934745072393
30
0
10
-5.065220333707714
20
15.42997606897435
30
0
10
-5.0976745967047066
20
15.383017392876164
30
0
10
-5.5863154718892361
20
14.675993832112702
30
0
10
-6.0000000000007958
20
13.968970271349239
30
0
10
-6.0000000000007958
20
13.261946710585779
30
0
0
LINE
5
128
100
AcDbEntity
8
OUTER_PROFILES
100
AcDbLine
10
-6.0000000000007949
20
13.261946710585782
30
0
11
-6.0000000000000853
21
7.2619467105817881
31
0
0
SPLINE
5
129
100
AcDbEntity
8
OUTER_PROFILES
100
AcDbSpline
70
0
71
3
72
11
73
7
74
0
42
0.000000001
43
0.0000000001
44
0.0000000001
40
-3.1415926535897931
40
-3.1415926535897931
40
-3.1415926535897931
40
-3.1415926535897931
40
-3.043762078385428
40
-3.043762078385428
40
-3.043762078385428
40
-1.5707963267948961
40
-1.5707963267948961
40
-1.5707963267948961
40
-1.5707963267948961
10
-6.0000000000000853
20
7.2619467105817881
30
0
10
-6.0000000000000853
20
7.2149880344836941
30
0
10
-5.9984035920790291
20
7.1680293583855947
30
0
10
-5.9952184047529045
20
7.1210706822874981
30
0
10
-5.9472612928377089
20
6.4140471215240167
30
0
10
-5.490988583863583
20
5.707023560760593
30
0
10
-5
20
4.9999999999971383
30
0
0
LINE
5
130
100
AcDbEntity
8
OUTER_PROFILES
100
AcDbLine
10
-5.0000000000000009
20
4.9999999999971392
30
0
11
0
21
0
31
0
0
LINE
5
131
100
AcDbEntity
8
OUTER_PROFILES
100
AcDbLine
10
0
20
0
30
0
11
747.85857864376248
21
0
31
0
0
LINE
5
132
100
AcDbEntity
8
OUTER_PROFILES
100
AcDbLine
10
747.85857864376248
20
0
30
0
11
752.85857864376226
21
4.999999999999452
31
0
0
SPLINE
5
133
100
AcDbEntity
8
OUTER_PROFILES
100
AcDbSpline
70
0
71
3
72
11
73
7
74
0
42
0.000000001
43
0.0000000001
44
0.0000000001
40
1.5707963267948972
40
1.5707963267948972
40
1.5707963267948972
40
1.5707963267948972
40
3.0437620783854262
40
3.0437620783854262
40
3.0437620783854262
40
3.1415926535897931
40
3.1415926535897931
40
3.1415926535897931
40
3.1415926535897931
10
752.85857864376214
20
4.999999999996172
30
0
10
753.3495672276257
20
5.707023560759624
30
0
10
753.8058399365998
20
6.4140471215231063
30
0
10
753.85379704851505
20
7.1210706822865362
30
0
10
753.85698223584109
20
7.1680293583846311
30
0
10
753.85857864376226
20
7.214988034482726
30
0
10
753.85857864376226
20
7.2619467105808209
30
0
0
LINE
5
134
100
AcDbEntity
8
OUTER_PROFILES
100
AcDbLine
10
753.85857864376237
20
7.26194671058082
30
0
11
753.85857864376226
21
13.261946710567923
31
0
0
SPLINE
5
135
100
AcDbEntity
8
OUTER_PROFILES
100
AcDbSpline
70
0
71
3
72
11
73
7
74
0
42
0.000000001
43
0.0000000001
44
0.0000000001
40
-3.1415926535897931
40
-3.1415926535897931
40
-3.1415926535897931
40
-3.1415926535897931
40
-1.668626901999269
40
-1.668626901999269
40
-1.668626901999269
40
-1.5707963267948966
40
-1.5707963267948966
40
-1.5707963267948966
40
-1.5707963267948966
10
753.85857864376226
20
13.261946710567923
30
0
10
753.85857864376226
20
13.968970271331383
30
0
10
753.44489411565064
20
14.675993832094839
30
0
10
752.95625324046625
20
15.383017392858369
30
0
10
752.92379897746923
20
15.429976068956412
30
0
10
752.89118883549702
20
15.476934745054526
30
0
10
752.85857864376226
20
15.52389342115257
30
0
0
LINE
5
136
100
AcDbEntity
8
OUTER_PROFILES
100
AcDbLine
10
752.85857864376214
20
15.523893421152568
30
0
11
752.92928932188488
21
15.59460409928713
31
0
0
SPLINE
5
137
100
AcDbEntity
8
OUTER_PROFILES
100
AcDbSpline
70
0
71
3
72
11
73
7
74
0
42
0.000000001
43
0.0000000001
44
0.0000000001
40
1.5707963267948966
40
1.5707963267948966
40
1.5707963267948966
40
1.5707963267948966
40
1.668626901999269
40
1.668626901999269
40
1.668626901999269
40
3.1415926535897931
40
3.1415926535897931
40
3.1415926535897931
40
3.1415926535897931
10
752.92928932188488
20
15.59460409928713
30
0
10
752.97624799798314
20
15.56199390755234
30
0
10
753.02320667408117
20
15.529383765580127
30
0
10
753.0701653501792
20
15.496929502583134
30
0
10
753.77718891094275
20
15.008288627398677
30
0
10
754.48421247170609
20
14.594604099287123
30
0
10
755.19123603246965
20
14.594604099287125
30
0
0
LINE
5
138
100
AcDbEntity
8
OUTER_PROFILES
100
AcDbLine
10
755.19123603246965
20
14.594604099287125
30
0
11
761.19123603246931
21
14.59460409928665
31
0
0
SPLINE
5
139
100
AcDbEntity
8
OUTER_PROFILES
100
AcDbSpline
70
0
71
3
72
11
73
7
74
0
42
0.000000001
43
0.0000000001
44
0.0000000001
40
-3.1415926535897931
40
-3.1415926535897931
40
-3.1415926535897931
40
-3.1415926535897931
40
-3.0437620783854258
40
-3.0437620783854258
40
-3.0437620783854258
40
-1.5707963267948968
40
-1.5707963267948968
40
-1.5707963267948968
40
-1.5707963267948968
10
761.19123603246931
20
14.59460409928665
30
0
10
761.23819470856745
20
14.59460409928665
30
0
10
761.28515338466559
20
14.596200507207707
30
0
10
761.33211206076362
20
14.599385694533831
30
0
10
762.03913562152707
20
14.647342806448959
30
0
10
762.74615918229063
20
15.103615515423158
30
0
10
763.45318274305396
20
15.594604099286673
30
0
0
ENDSEC
0
SECTION
2
OBJECTS
0
DICTIONARY
5
C
100
AcDbDictionary
3
ACAD_GROUP
350
D
3
ACAD_MLINESTYLE
350
17
0
DICTIONARY
5
D
100
AcDbDictionary
0
DICTIONARY
5
1A
330
C
100
AcDbDictionary
0
DICTIONARY
5
17
100
AcDbDictionary
0
ENDSEC
0
EOF
