0
SECTION
2
HEADER
9
$INSUNITS
70
4
9
$ACADVER
1
AC1014
9
$HANDSEED
5
FFFF
0
ENDSEC
0
SECTION
2
TABLES
0
TABLE
2
VPORT
5
8
100
AcDbSymbolTable
0
ENDTAB
0
TABLE
2
LTYPE
5
5
100
AcDbSymbolTable
0
LTYPE
5
14
100
AcDbSymbolTableRecord
100
AcDbLinetypeTableRecord
2
BYBLOCK
70
0
0
LTYPE
5
15
100
AcDbSymbolTableRecord
100
AcDbLinetypeTableRecord
2
BYLAYER
70
0
0
LTYPE
5
16
100
AcDbSymbolTableRecord
100
AcDbLinetypeTableRecord
2
DASHED
70
0
3
Dashed __ __ __ __ __ __ __ __ __ __ __ __ __ _
72
65
73
2
40
0.75
49
0.5
74
0
49
-0.25
74
0
0
ENDTAB
0
TABLE
2
LAYER
5
2
100
AcDbSymbolTable
70
2
0
LAYER
5
50
100
AcDbSymbolTableRecord
100
AcDbLayerTableRecord
2
0
70
0
62
7
6
CONTINUOUS
0
ENDTAB
0
TABLE
2
STYLE
5
3
100
AcDbSymbolTable
70
1
0
STYLE
5
11
100
AcDbSymbolTableRecord
100
AcDbTextStyleTableRecord
2
STANDARD
70
0
0
ENDTAB
0
TABLE
2
VIEW
5
6
100
AcDbSymbolTable
70
0
0
ENDTAB
0
TABLE
2
UCS
5
7
100
AcDbSymbolTable
70
0
0
ENDTAB
0
TABLE
2
APPID
5
9
100
AcDbSymbolTable
70
2
0
APPID
5
12
100
AcDbSymbolTableRecord
100
AcDbRegAppTableRecord
2
ACAD
70
0
0
ENDTAB
0
TABLE
2
DIMSTYLE
5
A
100
AcDbSymbolTable
70
1
0
ENDTAB
0
TABLE
2
BLOCK_RECORD
5
1
100
AcDbSymbolTable
70
1
0
BLOCK_RECORD
5
1F
100
AcDbSymbolTableRecord
100
AcDbBlockTableRecord
2
*MODEL_SPACE
0
BLOCK_RECORD
5
1B
100
AcDbSymbolTableRecord
100
AcDbBlockTableRecord
2
*PAPER_SPACE
0
ENDTAB
0
ENDSEC
0
SECTION
2
BLOCKS
0
BLOCK
5
20
100
AcDbEntity
100
AcDbBlockBegin
2
*MODEL_SPACE
0
ENDBLK
5
21
100
AcDbEntity
100
AcDbBlockEnd
0
BLOCK
5
1C
100
AcDbEntity
100
AcDbBlockBegin
2
*PAPER_SPACE
0
ENDBLK
5
1D
100
AcDbEntity
100
AcDbBlockEnd
0
ENDSEC
0
SECTION
2
ENTITIES
0
LWPOLYLINE
5
100
100
AcDbEntity
8
OUTER_PROFILES
100
AcDbPolyline
90
18
70
1
43
0.0
10
2.4945772522244321
20
10.838080136478876
10
4.7184478546569153e-15
20
13.332657388703307
10
4.7184478546569153e-15
20
31.191236032465994
10
2.4945772522244387
20
33.685813284690425
42
0.41421356237309437
10
2.4945772522244396
20
35.100026847063518
10
0.070710678118661718
20
37.523893421169305
10
704.45318274305066
20
37.523893421169319
10
702.02931616894489
20
35.100026847063582
42
0.41421356237307116
10
702.02931616894489
20
33.685813284690532
10
704.52389342116942
20
31.191236032465994
10
704.52389342116942
20
13.332657388703307
10
702.029316168945
20
10.838080136478839
42
0.41421356237307433
10
702.029316168945
20
9.4238665741057748
10
704.5238934211693
20
6.9292893218813489
10
704.5238934211693
20
0
10
0
20
0
10
0
20
6.9292893218813489
10
2.4945772522244338
20
9.4238665741057837
42
0.41421356237309442
0
CIRCLE
5
101
100
AcDbEntity
8
INTERIOR_PROFILES
100
AcDbCircle
10
-652.26194671058465
20
3.0000000000000027
30
0
40
1.7000000000000171
210
0
220
0
230
-1
0
CIRCLE
5
102
100
AcDbEntity
8
INTERIOR_PROFILES
100
AcDbCircle
10
-218.76194671058468
20
20.261946710584652
30
0
40
1.6999999999999993
210
0
220
0
230
-1
0
CIRCLE
5
103
100
AcDbEntity
8
INTERIOR_PROFILES
100
AcDbCircle
10
-152.26194671058462
20
3.0000000000000027
30
0
40
1.6999999999999993
210
0
220
0
230
-1
0
CIRCLE
5
104
100
AcDbEntity
8
INTERIOR_PROFILES
100
AcDbCircle
10
-252.26194671058462
20
3.0000000000000027
30
0
40
1.7000000000000171
210
0
220
0
230
-1
0
CIRCLE
5
105
100
AcDbEntity
8
INTERIOR_PROFILES
100
AcDbCircle
10
-552.26194671058454
20
3.0000000000000027
30
0
40
1.7000000000000171
210
0
220
0
230
-1
0
CIRCLE
5
106
100
AcDbEntity
8
INTERIOR_PROFILES
100
AcDbCircle
10
-452.2619467105846
20
3.0000000000000027
30
0
40
1.7000000000000171
210
0
220
0
230
-1
0
CIRCLE
5
107
100
AcDbEntity
8
INTERIOR_PROFILES
100
AcDbCircle
10
-352.2619467105846
20
3.0000000000000027
30
0
40
1.7000000000000171
210
0
220
0
230
-1
0
CIRCLE
5
108
100
AcDbEntity
8
INTERIOR_PROFILES
100
AcDbCircle
10
-63.761946710584667
20
20.261946710584652
30
0
40
1.6999999999999993
210
0
220
0
230
-1
0
CIRCLE
5
109
100
AcDbEntity
8
INTERIOR_PROFILES
100
AcDbCircle
10
-52.26194671058461
20
3.0000000000000027
30
0
40
1.6999999999999993
210
0
220
0
230
-1
0
LINE
5
110
100
AcDbEntity
8
BEND
100
AcDbLine
10
701.39292006587698
20
10.130973355292326
30
3.6084567942172947e-11
11
701.39292006587698
21
-4.4408920985006262e-15
31
3.6148667292045814e-11
0
LINE
5
111
100
AcDbEntity
8
BEND
100
AcDbLine
10
701.39292006587698
20
34.392920065876986
30
3.607469423478942e-11
11
701.39292006587698
21
10.130973355292326
31
3.6084567942172947e-11
0
LINE
5
112
100
AcDbEntity
8
BEND
100
AcDbLine
10
701.39292006587698
20
37.523893421169305
30
3.6134025664925781e-11
11
701.39292006587698
21
34.392920065876986
31
3.607469423478942e-11
0
LINE
5
113
100
AcDbEntity
8
BEND
100
AcDbLine
10
3.1309733552923102
20
0
30
1.6122719174124783e-13
11
3.1309733552923102
21
10.130973355292326
31
9.7127841868379235e-14
0
LINE
5
114
100
AcDbEntity
8
BEND
100
AcDbLine
10
3.1309733552923102
20
10.130973355292326
30
9.7127841868379235e-14
11
3.1309733552923102
21
34.392920065876986
31
8.7254134484856639e-14
0
LINE
5
115
100
AcDbEntity
8
BEND
100
AcDbLine
10
3.1309733552923102
20
34.392920065876986
30
8.7254134484856639e-14
11
3.1309733552923102
21
37.523893421169305
31
1.4630800886505746e-13
0
LINE
5
116
100
AcDbEntity
8
BEND
100
AcDbLine
10
2.7874704710378824
20
10.130973355292326
30
1.254770827940438e-13
11
701.73642295013167
21
10.130973355292326
31
3.6098721312562404e-11
0
LINE
5
117
100
AcDbEntity
8
BEND
100
AcDbLine
10
2.7874704710378975
20
34.392920065876986
30
1.2535984007578665e-13
11
701.73642295013155
21
34.392920065876986
31
3.6125340186489498e-11
0
LINE
5
118
100
AcDbEntity
8
BEND_EXTENT
100
AcDbLine
10
2.0000000000000084
20
35.594604099287956
30
8.7943289096790415e-14
11
2.0000000000000084
21
37.523893421169305
31
8.8158008340763556e-14
0
LINE
5
119
100
AcDbEntity
8
BEND_EXTENT
100
AcDbLine
10
4.2619467105845654
20
37.523893421169305
30
1.4714274574307524e-13
11
4.2619467105845654
21
35.523893421169305
31
1.458506247205542e-13
0
LINE
5
120
100
AcDbEntity
8
BEND_EXTENT
100
AcDbLine
10
700.26194671058477
20
35.523893421169305
30
3.6016713168220378e-11
11
4.2619467105845654
21
35.523893421169305
31
1.458506247205542e-13
0
LINE
5
121
100
AcDbEntity
8
BEND_EXTENT
100
AcDbLine
10
700.26194671058477
20
35.523893421169305
30
3.6016713168220378e-11
11
700.26194671058477
21
37.523893421169305
31
3.6018005289242901e-11
0
LINE
5
122
100
AcDbEntity
8
BEND_EXTENT
100
AcDbLine
10
1.9999999999999996
20
0
30
1.0293841333887534e-13
11
1.9999999999999996
21
8.9292893218813454
31
9.8793771964670811e-14
0
LINE
5
123
100
AcDbEntity
8
BEND_EXTENT
100
AcDbLine
10
4.2619467105845654
20
9
30
1.5816202175514011e-13
11
4.2619467105845654
21
0
31
1.6233948437542189e-13
0
LINE
5
124
100
AcDbEntity
8
BEND_EXTENT
100
AcDbLine
10
4.2619467105845654
20
9
30
1.5816202175514011e-13
11
700.26194671058477
21
9
31
3.6029024565254966e-11
0
LINE
5
125
100
AcDbEntity
8
BEND_EXTENT
100
AcDbLine
10
700.26194671058477
20
0
30
3.6033202027875247e-11
11
700.26194671058477
21
9
31
3.6029024565254966e-11
0
LINE
5
126
100
AcDbEntity
8
BEND_EXTENT
100
AcDbLine
10
702.52389342116942
20
33.191236032466009
30
3.6134373457141488e-11
11
702.52389342116942
21
11.332657388703314
31
3.614451938994336e-11
0
LWPOLYLINE
5
127
100
AcDbEntity
8
BEND_EXTENT
100
AcDbPolyline
90
4
70
1
43
0.0
10
700.26194671058477
20
11.261946710584652
10
700.26194671058477
20
33.261946710584652
10
4.2619467105845654
20
33.261946710584652
10
4.2619467105845388
20
11.261946710584652
0
LINE
5
128
100
AcDbEntity
8
BEND_EXTENT
100
AcDbLine
10
702.52389342116942
20
8.929289321881356
30
3.6145634943305797e-11
11
702.52389342116942
21
-4.4408920985006262e-15
31
3.6149779584679996e-11
0
LINE
5
129
100
AcDbEntity
8
BEND_EXTENT
100
AcDbLine
10
702.5238934211693
20
37.523893421169305
30
3.6132362399998393e-11
11
702.5238934211693
21
35.594604099287956
31
3.6133257903779045e-11
0
LINE
5
130
100
AcDbEntity
8
BEND_EXTENT
100
AcDbLine
10
2.0000000000000031
20
11.332657388703296
30
9.9343553139172324e-14
11
2.0000000000000027
21
33.191236032465987
31
8.919762033730468e-14
0
ENDSEC
0
SECTION
2
OBJECTS
0
DICTIONARY
5
C
100
AcDbDictionary
3
ACAD_GROUP
350
D
3
ACAD_MLINESTYLE
350
17
0
DICTIONARY
5
D
100
AcDbDictionary
0
DICTIONARY
5
1A
330
C
100
AcDbDictionary
0
DICTIONARY
5
17
100
AcDbDictionary
0
ENDSEC
0
EOF
