0
SECTION
2
HEADER
9
$INSUNITS
70
4
9
$ACADVER
1
AC1014
9
$HANDSEED
5
FFFF
0
ENDSEC
0
SECTION
2
TABLES
0
TABLE
2
VPORT
5
8
100
AcDbSymbolTable
0
ENDTAB
0
TABLE
2
LTYPE
5
5
100
AcDbSymbolTable
0
LTYPE
5
14
100
AcDbSymbolTableRecord
100
AcDbLinetypeTableRecord
2
BYBLOCK
70
0
0
LTYPE
5
15
100
AcDbSymbolTableRecord
100
AcDbLinetypeTableRecord
2
BYLAYER
70
0
0
LTYPE
5
16
100
AcDbSymbolTableRecord
100
AcDbLinetypeTableRecord
2
DASHED
70
0
3
Dashed __ __ __ __ __ __ __ __ __ __ __ __ __ _
72
65
73
2
40
0.75
49
0.5
74
0
49
-0.25
74
0
0
ENDTAB
0
TABLE
2
LAYER
5
2
100
AcDbSymbolTable
70
2
0
LAYER
5
50
100
AcDbSymbolTableRecord
100
AcDbLayerTableRecord
2
0
70
0
62
7
6
CONTINUOUS
0
ENDTAB
0
TABLE
2
STYLE
5
3
100
AcDbSymbolTable
70
1
0
STYLE
5
11
100
AcDbSymbolTableRecord
100
AcDbTextStyleTableRecord
2
STANDARD
70
0
0
ENDTAB
0
TABLE
2
VIEW
5
6
100
AcDbSymbolTable
70
0
0
ENDTAB
0
TABLE
2
UCS
5
7
100
AcDbSymbolTable
70
0
0
ENDTAB
0
TABLE
2
APPID
5
9
100
AcDbSymbolTable
70
2
0
APPID
5
12
100
AcDbSymbolTableRecord
100
AcDbRegAppTableRecord
2
ACAD
70
0
0
ENDTAB
0
TABLE
2
DIMSTYLE
5
A
100
AcDbSymbolTable
70
1
0
ENDTAB
0
TABLE
2
BLOCK_RECORD
5
1
100
AcDbSymbolTable
70
1
0
BLOCK_RECORD
5
1F
100
AcDbSymbolTableRecord
100
AcDbBlockTableRecord
2
*MODEL_SPACE
0
BLOCK_RECORD
5
1B
100
AcDbSymbolTableRecord
100
AcDbBlockTableRecord
2
*PAPER_SPACE
0
ENDTAB
0
ENDSEC
0
SECTION
2
BLOCKS
0
BLOCK
5
20
100
AcDbEntity
100
AcDbBlockBegin
2
*MODEL_SPACE
0
ENDBLK
5
21
100
AcDbEntity
100
AcDbBlockEnd
0
BLOCK
5
1C
100
AcDbEntity
100
AcDbBlockBegin
2
*PAPER_SPACE
0
ENDBLK
5
1D
100
AcDbEntity
100
AcDbBlockEnd
0
ENDSEC
0
SECTION
2
ENTITIES
0
LINE
5
100
100
AcDbEntity
8
OUTER_PROFILES
100
AcDbLine
10
1131.8585786437707
20
589.0477868423236
30
0
11
6.5369931689929217e-12
21
589.04778684233872
31
0
0
LINE
5
101
100
AcDbEntity
8
OUTER_PROFILES
100
AcDbLine
10
6.5369931689929217e-12
20
589.04778684233872
30
0
11
-4.9999999999928946
21
584.04778684233827
31
0
0
SPLINE
5
102
100
AcDbEntity
8
OUTER_PROFILES
100
AcDbSpline
70
0
71
3
72
11
73
7
74
0
42
0.000000001
43
0.0000000001
44
0.0000000001
40
1.5707963267949121
40
1.5707963267949121
40
1.5707963267949121
40
1.5707963267949121
40
3.0437620783854444
40
3.0437620783854444
40
3.0437620783854444
40
3.1415926535897931
40
3.1415926535897931
40
3.1415926535897931
40
3.1415926535897931
10
-4.9999999999928946
20
584.04778684233827
30
0
10
-5.4909885838563355
20
583.34076328157482
30
0
10
-5.9472612928306035
20
582.63373972081138
30
0
10
-5.995218404745799
20
581.92671616004782
30
0
10
-5.9984035920717815
20
581.87975748394979
30
0
10
-5.9999999999928377
20
581.83279880785176
30
0
10
-5.9999999999928377
20
581.78584013175373
30
0
0
LINE
5
103
100
AcDbEntity
8
OUTER_PROFILES
100
AcDbLine
10
-5.9999999999928386
20
581.78584013175373
30
0
11
-5.9999999999944009
21
575.78584013175396
31
0
0
SPLINE
5
104
100
AcDbEntity
8
OUTER_PROFILES
100
AcDbSpline
70
0
71
3
72
11
73
7
74
0
42
0.000000001
43
0.0000000001
44
0.0000000001
40
-3.1415926535897931
40
-3.1415926535897931
40
-3.1415926535897931
40
-3.1415926535897931
40
-1.6686269019992683
40
-1.6686269019992683
40
-1.6686269019992683
40
-1.5707963267948966
40
-1.5707963267948966
40
-1.5707963267948966
40
-1.5707963267948966
10
-5.9999999999944009
20
575.78584013175703
30
0
10
-5.9999999999944009
20
575.07881657099347
30
0
10
-5.5863154718828412
20
574.37179301023002
30
0
10
-5.0976745966984538
20
573.66476944946658
30
0
10
-5.0652203337013191
20
573.61781077336855
30
0
10
-5.0326101917291055
20
573.57085209727052
30
0
10
-4.9999999999944578
20
573.52389342117237
30
0
0
LINE
5
105
100
AcDbEntity
8
OUTER_PROFILES
100
AcDbLine
10
-4.9999999999944578
20
573.52389342117237
30
0
11
-5.0707106781179334
21
573.45318274305032
31
0
0
SPLINE
5
106
100
AcDbEntity
8
OUTER_PROFILES
100
AcDbSpline
70
0
71
3
72
11
73
7
74
0
42
0.000000001
43
0.0000000001
44
0.0000000001
40
1.5707963267948966
40
1.5707963267948966
40
1.5707963267948966
40
1.5707963267948966
40
1.6686269019992683
40
1.6686269019992683
40
1.6686269019992683
40
3.1415926535897931
40
3.1415926535897931
40
3.1415926535897931
40
3.1415926535897931
10
-5.0707106781179334
20
573.45318274305032
30
0
10
-5.1176693542160479
20
573.4857929347852
30
0
10
-5.1646280303141623
20
573.51840307675741
30
0
10
-5.2115867064121346
20
573.55085733975443
30
0
10
-5.9186102671756657
20
574.03949821493893
30
0
10
-6.6256338279391969
20
574.45318274305032
30
0
10
-7.3326573887025859
20
574.45318274305032
30
0
0
LINE
5
107
100
AcDbEntity
8
OUTER_PROFILES
100
AcDbLine
10
-7.332657388702585
20
574.45318274305043
30
0
11
-13.332657388697271
21
574.45318274305157
31
0
0
SPLINE
5
108
100
AcDbEntity
8
OUTER_PROFILES
100
AcDbSpline
70
0
71
3
72
11
73
7
74
0
42
0.000000001
43
0.0000000001
44
0.0000000001
40
-3.1415926535897931
40
-3.1415926535897931
40
-3.1415926535897931
40
-3.1415926535897931
40
-3.0437620783854267
40
-3.0437620783854267
40
-3.0437620783854267
40
-1.5707963267948966
40
-1.5707963267948966
40
-1.5707963267948966
40
-1.5707963267948966
10
-13.332657388697271
20
574.45318274305157
30
0
10
-13.379616064795385
20
574.45318274305157
30
0
10
-13.4265747408935
20
574.45158633513063
30
0
10
-13.473533416991614
20
574.44840114780447
30
0
10
-14.180556977755003
20
574.40044403588922
30
0
10
-14.887580538518534
20
573.94417132691513
30
0
10
-15.594604099281923
20
573.45318274305168
30
0
0
LINE
5
109
100
AcDbEntity
8
OUTER_PROFILES
100
AcDbLine
10
-15.594604099281922
20
573.45318274305168
30
0
11
-20.594604099281923
21
568.45318274305077
31
0
0
LINE
5
110
100
AcDbEntity
8
OUTER_PROFILES
100
AcDbLine
10
-20.594604099281923
20
568.45318274305077
30
0
11
-20.594604099288318
21
20.594604099288318
31
0
0
LINE
5
111
100
AcDbEntity
8
OUTER_PROFILES
100
AcDbLine
10
-20.594604099288318
20
20.594604099288318
30
0
11
-15.594604099288176
21
15.59460409928824
31
0
0
SPLINE
5
112
100
AcDbEntity
8
OUTER_PROFILES
100
AcDbSpline
70
0
71
3
72
11
73
7
74
0
42
0.000000001
43
0.0000000001
44
0.0000000001
40
1.5707963267948966
40
1.5707963267948966
40
1.5707963267948966
40
1.5707963267948966
40
3.0437620783854227
40
3.0437620783854227
40
3.0437620783854227
40
3.1415926535897931
40
3.1415926535897931
40
3.1415926535897931
40
3.1415926535897931
10
-15.594604099278939
20
15.59460409928824
30
0
10
-14.88758053851555
20
15.103615515424719
30
0
10
-14.180556977752019
20
14.647342806450583
30
0
10
-13.47353341698863
20
14.599385694535414
30
0
10
-13.426574740890516
20
14.596200507209289
30
0
10
-13.379616064792401
20
14.594604099288198
30
0
10
-13.332657388694287
20
14.594604099288198
30
0
0
LINE
5
113
100
AcDbEntity
8
OUTER_PROFILES
100
AcDbLine
10
-13.332657388694289
20
14.594604099288198
30
0
11
-7.3326573887034385
21
14.594604099288118
31
0
0
SPLINE
5
114
100
AcDbEntity
8
OUTER_PROFILES
100
AcDbSpline
70
0
71
3
72
11
73
7
74
0
42
0.000000001
43
0.0000000001
44
0.0000000001
40
-3.1415926535897931
40
-3.1415926535897931
40
-3.1415926535897931
40
-3.1415926535897931
40
-1.6686269019992719
40
-1.6686269019992719
40
-1.6686269019992719
40
-1.5707963267948966
40
-1.5707963267948966
40
-1.5707963267948966
40
-1.5707963267948966
10
-7.332657388713244
20
14.594604099288118
30
0
10
-6.6256338279497129
20
14.594604099288109
30
0
10
-5.9186102671863239
20
15.008288627399587
30
0
10
-5.2115867064227928
20
15.496929502584072
30
0
10
-5.1646280303246783
20
15.529383765581064
30
0
10
-5.117669354226706
20
15.561993907553314
30
0
10
-5.0707106781284494
20
15.594604099288102
30
0
0
LINE
5
115
100
AcDbEntity
8
OUTER_PROFILES
100
AcDbLine
10
-5.0707106781284503
20
15.594604099288103
30
0
11
-5.0000000000001421
21
15.523893421169316
31
0
0
SPLINE
5
116
100
AcDbEntity
8
OUTER_PROFILES
100
AcDbSpline
70
0
71
3
72
11
73
7
74
0
42
0.000000001
43
0.0000000001
44
0.0000000001
40
1.5707963267948966
40
1.5707963267948966
40
1.5707963267948966
40
1.5707963267948966
40
1.6686269019992719
40
1.6686269019992719
40
1.6686269019992719
40
3.1415926535897931
40
3.1415926535897931
40
3.1415926535897931
40
3.1415926535897931
10
-5.0000000000009948
20
15.523893421171696
30
0
10
-5.0326101917357846
20
15.476934745073581
30
0
10
-5.0652203337078561
20
15.429976068975503
30
0
10
-5.0976745967049908
20
15.38301739287739
30
0
10
-5.5863154718893782
20
14.675993832113935
30
0
10
-6.0000000000009379
20
13.968970271350445
30
0
10
-6.0000000000009379
20
13.261946710586985
30
0
0
LINE
5
117
100
AcDbEntity
8
OUTER_PROFILES
100
AcDbLine
10
-6.0000000000009379
20
13.261946710586987
30
0
11
-6.0000000000007958
21
7.2619467105845708
31
0
0
SPLINE
5
118
100
AcDbEntity
8
OUTER_PROFILES
100
AcDbSpline
70
0
71
3
72
11
73
7
74
0
42
0.000000001
43
0.0000000001
44
0.0000000001
40
-3.1415926535897944
40
-3.1415926535897944
40
-3.1415926535897944
40
-3.1415926535897944
40
-3.043762078385436
40
-3.043762078385436
40
-3.043762078385436
40
-1.5707963267949085
40
-1.5707963267949085
40
-1.5707963267949085
40
-1.5707963267949085
10
-6.0000000000007958
20
7.2619467105845708
30
0
10
-6.0000000000007958
20
7.2149880344864794
30
0
10
-5.9984035920797396
20
7.1680293583883845
30
0
10
-5.995218404753615
20
7.1210706822902923
30
0
10
-5.9472612928385615
20
6.4140471215268393
30
0
10
-5.4909885838642936
20
5.7070235607634565
30
0
10
-5.0000000000008527
20
5.0000000000000018
30
0
0
LINE
5
119
100
AcDbEntity
8
OUTER_PROFILES
100
AcDbLine
10
-5.0000000000008535
20
5.0000000000000036
30
0
11
0
21
0
31
0
0
LINE
5
120
100
AcDbEntity
8
OUTER_PROFILES
100
AcDbLine
10
0
20
0
30
0
11
1131.8585786437627
21
3.1086244689504383e-14
31
0
0
LINE
5
121
100
AcDbEntity
8
OUTER_PROFILES
100
AcDbLine
10
1131.8585786437627
20
3.1086244689504383e-14
30
0
11
1136.8585786437636
21
4.9999999999999778
31
0
0
SPLINE
5
122
100
AcDbEntity
8
OUTER_PROFILES
100
AcDbSpline
70
0
71
3
72
11
73
7
74
0
42
0.000000001
43
0.0000000001
44
0.0000000001
40
1.5707963267949085
40
1.5707963267949085
40
1.5707963267949085
40
1.5707963267949085
40
3.0437620783854458
40
3.0437620783854458
40
3.0437620783854458
40
3.1415926535897944
40
3.1415926535897944
40
3.1415926535897944
40
3.1415926535897944
10
1136.8585786437636
20
4.9999999999999778
30
0
10
1137.3495672276272
20
5.7070235607634334
30
0
10
1137.8058399366014
20
6.4140471215269041
30
0
10
1137.8537970485163
20
7.1210706822903367
30
0
10
1137.8569822358425
20
7.1680293583884218
30
0
10
1137.8585786437636
20
7.2149880344865078
30
0
10
1137.8585786437636
20
7.2619467105845947
30
0
0
LINE
5
123
100
AcDbEntity
8
OUTER_PROFILES
100
AcDbLine
10
1137.8585786437636
20
7.2619467105845938
30
0
11
1137.8585786437623
21
13.261946710584668
31
0
0
SPLINE
5
124
100
AcDbEntity
8
OUTER_PROFILES
100
AcDbSpline
70
0
71
3
72
11
73
7
74
0
42
0.000000001
43
0.0000000001
44
0.0000000001
40
-3.1415926535897931
40
-3.1415926535897931
40
-3.1415926535897931
40
-3.1415926535897931
40
-1.6686269019992628
40
-1.6686269019992628
40
-1.6686269019992628
40
-1.5707963267948966
40
-1.5707963267948966
40
-1.5707963267948966
40
-1.5707963267948966
10
1137.8585786437623
20
13.26194671058547
30
0
10
1137.8585786437623
20
13.968970271348894
30
0
10
1137.4448941156506
20
14.675993832112397
30
0
10
1136.9562532404664
20
15.383017392875828
30
0
10
1136.9237989774692
20
15.429976068973907
30
0
10
1136.8911888354969
20
15.476934745071986
30
0
10
1136.8585786437623
20
15.523893421170101
30
0
0
LINE
5
125
100
AcDbEntity
8
OUTER_PROFILES
100
AcDbLine
10
1136.858578643762
20
15.523893421170099
30
0
11
1136.9292893218726
21
15.594604099287324
31
0
0
SPLINE
5
126
100
AcDbEntity
8
OUTER_PROFILES
100
AcDbSpline
70
0
71
3
72
11
73
7
74
0
42
0.000000001
43
0.0000000001
44
0.0000000001
40
1.5707963267948966
40
1.5707963267948966
40
1.5707963267948966
40
1.5707963267948966
40
1.6686269019992628
40
1.6686269019992628
40
1.6686269019992628
40
3.1415926535897931
40
3.1415926535897931
40
3.1415926535897931
40
3.1415926535897931
10
1136.9292893218726
20
15.594604099287324
30
0
10
1136.9762479979706
20
15.561993907552534
30
0
10
1137.0232066740689
20
15.529383765580318
30
0
10
1137.0701653501669
20
15.49692950258329
30
0
10
1137.7771889109304
20
15.008288627398823
30
0
10
1138.4842124716938
20
14.594604099287254
30
0
10
1139.1912360324573
20
14.594604099287245
30
0
0
LINE
5
127
100
AcDbEntity
8
OUTER_PROFILES
100
AcDbLine
10
1139.1912360324573
20
14.594604099287245
30
0
11
1145.1912360324659
21
14.594604099288409
31
0
0
SPLINE
5
128
100
AcDbEntity
8
OUTER_PROFILES
100
AcDbSpline
70
0
71
3
72
11
73
7
74
0
42
0.000000001
43
0.0000000001
44
0.0000000001
40
-3.1415926535897931
40
-3.1415926535897931
40
-3.1415926535897931
40
-3.1415926535897931
40
-3.0437620783854284
40
-3.0437620783854284
40
-3.0437620783854284
40
-1.5707963267948932
40
-1.5707963267948932
40
-1.5707963267948932
40
-1.5707963267948932
10
1145.1912360324659
20
14.594604099288409
30
0
10
1145.2381947085639
20
14.594604099288409
30
0
10
1145.285153384662
20
14.596200507209463
30
0
10
1145.3321120607602
20
14.599385694535588
30
0
10
1146.0391356215237
20
14.647342806450702
30
0
10
1146.7461591822871
20
15.103615515424856
30
0
10
1147.4531827430505
20
15.594604099288356
30
0
0
LINE
5
129
100
AcDbEntity
8
OUTER_PROFILES
100
AcDbLine
10
1147.4531827430505
20
15.594604099288356
30
0
11
1152.4531827430508
21
20.594604099287793
31
0
0
LINE
5
130
100
AcDbEntity
8
OUTER_PROFILES
100
AcDbLine
10
1152.4531827430508
20
20.594604099287793
30
0
11
1152.4531827430578
21
568.4531827430352
31
0
0
LINE
5
131
100
AcDbEntity
8
OUTER_PROFILES
100
AcDbLine
10
1152.4531827430578
20
568.4531827430352
30
0
11
1147.4531827430512
21
573.4531827430352
31
0
0
SPLINE
5
132
100
AcDbEntity
8
OUTER_PROFILES
100
AcDbSpline
70
0
71
3
72
11
73
7
74
0
42
0.000000001
43
0.0000000001
44
0.0000000001
40
1.570796326794893
40
1.570796326794893
40
1.570796326794893
40
1.570796326794893
40
3.0437620783854227
40
3.0437620783854227
40
3.0437620783854227
40
3.1415926535897927
40
3.1415926535897927
40
3.1415926535897927
40
3.1415926535897927
10
1147.4531827430512
20
573.4531827430352
30
0
10
1146.7461591822878
20
573.94417132689875
30
0
10
1146.0391356215243
20
574.40044403587297
30
0
10
1145.3321120607609
20
574.44840114778799
30
0
10
1145.2851533846629
20
574.45158633511414
30
0
10
1145.2381947085648
20
574.4531827430352
30
0
10
1145.1912360324668
20
574.4531827430352
30
0
0
LINE
5
133
100
AcDbEntity
8
OUTER_PROFILES
100
AcDbLine
10
1145.1912360324668
20
574.4531827430352
30
0
11
1139.1912360324732
21
574.453182743036
31
0
0
SPLINE
5
134
100
AcDbEntity
8
OUTER_PROFILES
100
AcDbSpline
70
0
71
3
72
11
73
7
74
0
42
0.000000001
43
0.0000000001
44
0.0000000001
40
-3.1415926535897931
40
-3.1415926535897931
40
-3.1415926535897931
40
-3.1415926535897931
40
-1.6686269019992677
40
-1.6686269019992677
40
-1.6686269019992677
40
-1.5707963267948966
40
-1.5707963267948966
40
-1.5707963267948966
40
-1.5707963267948966
10
1139.1912360324804
20
574.453182743036
30
0
10
1138.484212471717
20
574.453182743036
30
0
10
1137.7771889109536
20
574.03949821492461
30
0
10
1137.0701653501901
20
573.55085733974011
30
0
10
1137.0232066740919
20
573.51840307674308
30
0
10
1136.9762479979941
20
573.48579293477087
30
0
10
1136.9292893218958
20
573.45318274303611
30
0
0
LINE
5
135
100
AcDbEntity
8
OUTER_PROFILES
100
AcDbLine
10
1136.9292893218958
20
573.45318274303611
30
0
11
1136.8585786437689
21
573.52389342115691
31
0
0
SPLINE
5
136
100
AcDbEntity
8
OUTER_PROFILES
100
AcDbSpline
70
0
71
3
72
11
73
7
74
0
42
0.000000001
43
0.0000000001
44
0.0000000001
40
1.5707963267948966
40
1.5707963267948966
40
1.5707963267948966
40
1.5707963267948966
40
1.6686269019992677
40
1.6686269019992677
40
1.6686269019992677
40
3.1415926535897931
40
3.1415926535897931
40
3.1415926535897931
40
3.1415926535897931
10
1136.8585786437689
20
573.52389342115691
30
0
10
1136.8911888355037
20
573.57085209725494
30
0
10
1136.9237989774758
20
573.6178107733532
30
0
10
1136.956253240473
20
573.66476944945123
30
0
10
1137.4448941156572
20
574.37179301021467
30
0
10
1137.8585786437689
20
575.07881657097812
30
0
10
1137.8585786437689
20
575.78584013174168
30
0
0
LINE
5
137
100
AcDbEntity
8
OUTER_PROFILES
100
AcDbLine
10
1137.8585786437689
20
575.78584013174168
30
0
11
1137.8585786437711
21
581.7858401317385
31
0
0
SPLINE
5
138
100
AcDbEntity
8
OUTER_PROFILES
100
AcDbSpline
70
0
71
3
72
11
73
7
74
0
42
0.000000001
43
0.0000000001
44
0.0000000001
40
-3.1415926535897931
40
-3.1415926535897931
40
-3.1415926535897931
40
-3.1415926535897931
40
-3.0437620783854453
40
-3.0437620783854453
40
-3.0437620783854453
40
-1.5707963267949121
40
-1.5707963267949121
40
-1.5707963267949121
40
-1.5707963267949121
10
1137.8585786437711
20
581.7858401317385
30
0
10
1137.8585786437711
20
581.83279880783653
30
0
10
1137.8569822358502
20
581.87975748393467
30
0
10
1137.853797048524
20
581.9267161600327
30
0
10
1137.8058399366089
20
582.63373972079626
30
0
10
1137.3495672276347
20
583.3407632815597
30
0
10
1136.8585786437711
20
584.04778684232315
30
0
0
LINE
5
139
100
AcDbEntity
8
OUTER_PROFILES
100
AcDbLine
10
1136.8585786437709
20
584.04778684232315
30
0
11
1131.8585786437707
21
589.0477868423236
31
0
0
LINE
5
140
100
AcDbEntity
8
BEND
100
AcDbLine
10
-14.463630744006934
20
574.16028952422971
30
-3.8816901486912554e-13
11
-14.463630744013471
21
14.887497318114882
31
-4.2883093314602204e-13
0
LINE
5
141
100
AcDbEntity
8
BEND
100
AcDbLine
10
1137.5656854246924
20
582.9168134875714
30
2.7650542660613901e-13
11
-5.7071067809138754
21
582.91681348758664
31
4.8436117704514817e-13
0
LINE
5
142
100
AcDbEntity
8
BEND
100
AcDbLine
10
1137.5656854249539
20
574.65486677644651
30
-2.3433594259950599e-13
11
-5.7071067811794762
21
574.65486677646174
31
-1.6733973840982392e-13
0
LINE
5
143
100
AcDbEntity
8
BEND
100
AcDbLine
10
-6.2016840334047174
20
574.16028952423414
30
-2.6948999684202152e-13
11
-6.2016840334112544
21
14.887497318106284
31
-2.1064817653688837e-13
0
LINE
5
144
100
AcDbEntity
8
BEND
100
AcDbLine
10
1146.3222093887982
20
14.887497318612493
30
-4.8895025050110904e-14
11
1146.3222093888055
21
574.16028952370777
31
1.7134546745990466e-13
0
LINE
5
145
100
AcDbEntity
8
BEND
100
AcDbLine
10
1138.0602626771733
20
14.887497318096676
30
-2.2697097489468131e-13
11
1138.0602626771806
21
574.16028952421891
31
-2.1857271095183395e-14
0
LINE
5
146
100
AcDbEntity
8
BEND
100
AcDbLine
10
-5.7071067811114062
20
6.1309733551376571
30
-8.0187230976747785e-14
11
1137.5656854248741
21
6.1309733551376695
31
1.0872297200966597e-13
0
LINE
5
147
100
AcDbEntity
8
BEND
100
AcDbLine
10
-5.7071067811885712
20
14.392920065877064
30
-2.1660588512756522e-13
11
1137.5656854249492
21
14.392920065877009
31
-1.6203266812079297e-13
0
LINE
5
148
100
AcDbEntity
8
BEND_EXTENT
100
AcDbLine
10
1147.4531827430581
20
573.4531827430352
30
2.2576866896951482e-13
11
1147.4531827430508
21
15.594604099288389
31
2.1487632438485881e-14
0
LINE
5
149
100
AcDbEntity
8
BEND_EXTENT
100
AcDbLine
10
1145.1912360324659
20
14.594604099287769
30
-9.5130331753152029e-14
11
1145.1912360324732
21
574.45318274303543
31
1.8908676255088817e-13
0
LINE
5
150
100
AcDbEntity
8
BEND_EXTENT
100
AcDbLine
10
-4.9999999999931788
20
584.04778684233872
30
4.3732940208366864e-13
11
1136.8585786437711
21
584.0477868423236
31
3.6877878982109367e-13
0
LINE
5
151
100
AcDbEntity
8
BEND_EXTENT
100
AcDbLine
10
1137.8585786437702
20
581.78584013173884
30
1.1788808017953695e-13
11
-5.9999999999935483
21
581.78584013175407
31
2.7299670051541684e-13
0
LINE
5
152
100
AcDbEntity
8
BEND_EXTENT
100
AcDbLine
10
-15.594604099288176
20
15.59460409928824
30
-4.1664075317814318e-13
11
-15.594604099281781
21
573.45318274305168
31
-4.5216788996614809e-13
0
LINE
5
153
100
AcDbEntity
8
BEND_EXTENT
100
AcDbLine
10
-13.332657388696987
20
574.45318274305077
30
-4.0216330725201962e-13
11
-13.332657388703524
21
14.59460409928802
31
-4.0216330725201972e-13
0
LINE
5
154
100
AcDbEntity
8
BEND_EXTENT
100
AcDbLine
10
1136.8585786437634
20
5
30
5.014478175367358e-14
11
-5.0000000000011369
21
5.0000000000000311
31
-7.8700307910192506e-15
0
LINE
5
155
100
AcDbEntity
8
BEND_EXTENT
100
AcDbLine
10
-5.9999999999999432
20
7.2619467105846134
30
-8.2274667364633332e-14
11
1137.8585786437625
21
7.2619467105846365
31
-5.9747603760488299e-14
0
LINE
5
156
100
AcDbEntity
8
BEND_EXTENT
100
AcDbLine
10
1139.1912360324732
20
574.453182743036
30
-2.41942217195136e-14
11
1139.1912360324659
21
14.594604099287309
31
-3.0841131602355383e-13
0
LINE
5
157
100
AcDbEntity
8
BEND_EXTENT
100
AcDbLine
10
1137.8585786437623
20
13.261946710584668
30
-1.3080187733649832e-13
11
-6.0000000000009379
21
13.261946710584633
31
-1.8885607772864838e-13
0
LINE
5
158
100
AcDbEntity
8
BEND_EXTENT
100
AcDbLine
10
-5.9999999999944009
20
575.78584013175396
30
-8.2274667364633231e-14
11
1137.8585786437689
21
575.78584013173884
31
-2.3738328770051322e-13
0
LINE
5
159
100
AcDbEntity
8
BEND_EXTENT
100
AcDbLine
10
-7.3326573887034385
20
14.594604099288118
30
-2.5993659655762791e-13
11
-7.3326573886970436
21
574.45318274305032
31
-2.5993659655762776e-13
0
LINE
5
160
100
AcDbEntity
8
BEND_EXTENT
100
AcDbLine
10
1136.929289321881
20
15.594604099288318
30
-2.3740158905354029e-13
11
1136.9292893218885
21
573.4531827430344
31
-2.3781792268777458e-13
0
LINE
5
161
100
AcDbEntity
8
BEND_EXTENT
100
AcDbLine
10
1136.8585786437689
20
573.52389342115407
30
-2.3781931525847629e-13
11
-4.9999999999933209
21
573.5238934211693
31
-2.5975187950285147e-13
0
LINE
5
162
100
AcDbEntity
8
BEND_EXTENT
100
AcDbLine
10
-5.0707106781122491
20
573.45318274305032
30
-2.5975327207355318e-13
11
-5.0707106781187861
21
15.594604099288105
31
-2.5989204995163143e-13
0
LINE
5
163
100
AcDbEntity
8
BEND_EXTENT
100
AcDbLine
10
-5.0000000000001421
20
15.523893421169316
30
-2.5989065738092977e-13
11
1136.8585786437623
21
15.523893421169319
31
-2.3740298162424196e-13
0
ENDSEC
0
SECTION
2
OBJECTS
0
DICTIONARY
5
C
100
AcDbDictionary
3
ACAD_GROUP
350
D
3
ACAD_MLINESTYLE
350
17
0
DICTIONARY
5
D
100
AcDbDictionary
0
DICTIONARY
5
1A
330
C
100
AcDbDictionary
0
DICTIONARY
5
17
100
AcDbDictionary
0
ENDSEC
0
EOF
