0
SECTION
2
HEADER
9
$INSUNITS
70
4
9
$ACADVER
1
AC1014
9
$HANDSEED
5
FFFF
0
ENDSEC
0
SECTION
2
TABLES
0
TABLE
2
VPORT
5
8
100
AcDbSymbolTable
0
ENDTAB
0
TABLE
2
LTYPE
5
5
100
AcDbSymbolTable
0
LTYPE
5
14
100
AcDbSymbolTableRecord
100
AcDbLinetypeTableRecord
2
BYBLOCK
70
0
0
LTYPE
5
15
100
AcDbSymbolTableRecord
100
AcDbLinetypeTableRecord
2
BYLAYER
70
0
0
LTYPE
5
16
100
AcDbSymbolTableRecord
100
AcDbLinetypeTableRecord
2
DASHED
70
0
3
Dashed __ __ __ __ __ __ __ __ __ __ __ __ __ _
72
65
73
2
40
0.75
49
0.5
74
0
49
-0.25
74
0
0
ENDTAB
0
TABLE
2
LAYER
5
2
100
AcDbSymbolTable
70
2
0
LAYER
5
50
100
AcDbSymbolTableRecord
100
AcDbLayerTableRecord
2
0
70
0
62
7
6
CONTINUOUS
0
ENDTAB
0
TABLE
2
STYLE
5
3
100
AcDbSymbolTable
70
1
0
STYLE
5
11
100
AcDbSymbolTableRecord
100
AcDbTextStyleTableRecord
2
STANDARD
70
0
0
ENDTAB
0
TABLE
2
VIEW
5
6
100
AcDbSymbolTable
70
0
0
ENDTAB
0
TABLE
2
UCS
5
7
100
AcDbSymbolTable
70
0
0
ENDTAB
0
TABLE
2
APPID
5
9
100
AcDbSymbolTable
70
2
0
APPID
5
12
100
AcDbSymbolTableRecord
100
AcDbRegAppTableRecord
2
ACAD
70
0
0
ENDTAB
0
TABLE
2
DIMSTYLE
5
A
100
AcDbSymbolTable
70
1
0
ENDTAB
0
TABLE
2
BLOCK_RECORD
5
1
100
AcDbSymbolTable
70
1
0
BLOCK_RECORD
5
1F
100
AcDbSymbolTableRecord
100
AcDbBlockTableRecord
2
*MODEL_SPACE
0
BLOCK_RECORD
5
1B
100
AcDbSymbolTableRecord
100
AcDbBlockTableRecord
2
*PAPER_SPACE
0
ENDTAB
0
ENDSEC
0
SECTION
2
BLOCKS
0
BLOCK
5
20
100
AcDbEntity
100
AcDbBlockBegin
2
*MODEL_SPACE
0
ENDBLK
5
21
100
AcDbEntity
100
AcDbBlockEnd
0
BLOCK
5
1C
100
AcDbEntity
100
AcDbBlockBegin
2
*PAPER_SPACE
0
ENDBLK
5
1D
100
AcDbEntity
100
AcDbBlockEnd
0
ENDSEC
0
SECTION
2
ENTITIES
0
ARC
5
100
100
AcDbEntity
8
OUTER_PROFILES
100
AcDbCircle
10
762.47447623954668
20
314.65486677646157
30
0
40
1.0000000000000233
210
0
220
0
230
1
100
AcDbArc
50
135
51
225
0
LINE
5
101
100
AcDbEntity
8
OUTER_PROFILES
100
AcDbLine
10
761.76736945836012
20
313.94775999527502
30
0
11
776.26194671058465
21
299.4531827430506
31
0
0
SPLINE
5
102
100
AcDbEntity
8
OUTER_PROFILES
100
AcDbSpline
70
0
71
3
72
11
73
7
74
0
42
0.000000001
43
0.0000000001
44
0.0000000001
40
-3.1415926535897931
40
-3.1415926535897931
40
-3.1415926535897931
40
-3.1415926535897931
40
-1.9029810332858774
40
-1.9029810332858774
40
-1.9029810332858774
40
-1.5707963267952159
40
-1.5707963267952159
40
-1.5707963267952159
40
-1.5707963267952159
10
778.52389342115953
20
297.45318274305197
30
0
10
777.92935984341375
20
297.45318274305197
30
0
10
777.33482626567036
20
298.0203649978792
30
0
10
776.74029268792833
20
298.80096458649132
30
0
10
776.58084402881389
20
299.01031450778976
30
0
10
776.42139536969944
20
299.23172627205759
30
0
10
776.26194671058511
20
299.45318274305134
30
0
0
LINE
5
103
100
AcDbEntity
8
OUTER_PROFILES
100
AcDbLine
10
778.52389342115953
20
297.45318274305197
30
0
11
783.5238934211693
21
297.45318274305055
31
0
0
LINE
5
104
100
AcDbEntity
8
OUTER_PROFILES
100
AcDbLine
10
783.5238934211693
20
297.45318274305055
30
0
11
783.5238934211693
21
216.52389342116925
31
0
0
LINE
5
105
100
AcDbEntity
8
OUTER_PROFILES
100
AcDbLine
10
783.5238934211693
20
216.52389342116925
30
0
11
760
21
216.52389342116925
31
0
0
LINE
5
106
100
AcDbEntity
8
OUTER_PROFILES
100
AcDbLine
10
760
20
216.52389342116925
30
0
11
760
21
214.26194671058471
31
0
0
LINE
5
107
100
AcDbEntity
8
OUTER_PROFILES
100
AcDbLine
10
760
20
214.26194671058471
30
0
11
783.5238934211693
21
214.26194671058485
31
0
0
LINE
5
108
100
AcDbEntity
8
OUTER_PROFILES
100
AcDbLine
10
783.5238934211693
20
214.26194671058485
30
0
11
783.52389342116953
21
16.261946710584887
31
0
0
LINE
5
109
100
AcDbEntity
8
OUTER_PROFILES
100
AcDbLine
10
783.52389342116953
20
16.261946710584887
30
0
11
776.26194671058443
21
16.261946710584887
31
0
0
LINE
5
110
100
AcDbEntity
8
OUTER_PROFILES
100
AcDbLine
10
776.26194671058443
20
16.261946710584887
30
0
11
762.26194671058465
21
16.261946710584816
31
0
0
LINE
5
111
100
AcDbEntity
8
OUTER_PROFILES
100
AcDbLine
10
762.26194671058465
20
16.261946710584816
30
0
11
760
21
16.261946710584745
31
0
0
LINE
5
112
100
AcDbEntity
8
OUTER_PROFILES
100
AcDbLine
10
760
20
16.261946710584745
30
0
11
760
21
0
31
0
0
LINE
5
113
100
AcDbEntity
8
OUTER_PROFILES
100
AcDbLine
10
760
20
0
30
0
11
0
21
0
31
0
0
LINE
5
114
100
AcDbEntity
8
OUTER_PROFILES
100
AcDbLine
10
0
20
0
30
0
11
0
21
16.261946710584745
31
0
0
LINE
5
115
100
AcDbEntity
8
OUTER_PROFILES
100
AcDbLine
10
0
20
16.261946710584745
30
0
11
-2.2619467105846525
21
16.261946710584745
31
0
0
LINE
5
116
100
AcDbEntity
8
OUTER_PROFILES
100
AcDbLine
10
-2.2619467105846525
20
16.261946710584745
30
0
11
-16.261946710584425
21
16.261946710584816
31
0
0
LINE
5
117
100
AcDbEntity
8
OUTER_PROFILES
100
AcDbLine
10
-16.261946710584425
20
16.261946710584816
30
0
11
-23.523893421168935
21
16.261946710584816
31
0
0
LINE
5
118
100
AcDbEntity
8
OUTER_PROFILES
100
AcDbLine
10
-23.523893421168935
20
16.261946710584816
30
0
11
-23.523893421169078
21
214.26194671058479
31
0
0
LINE
5
119
100
AcDbEntity
8
OUTER_PROFILES
100
AcDbLine
10
-23.523893421169078
20
214.26194671058479
30
0
11
0
21
214.26194671058471
31
0
0
LINE
5
120
100
AcDbEntity
8
OUTER_PROFILES
100
AcDbLine
10
0
20
214.26194671058471
30
0
11
0
21
216.52389342116925
31
0
0
LINE
5
121
100
AcDbEntity
8
OUTER_PROFILES
100
AcDbLine
10
0
20
216.52389342116925
30
0
11
-23.523893421169362
21
216.52389342116925
31
0
0
LINE
5
122
100
AcDbEntity
8
OUTER_PROFILES
100
AcDbLine
10
-23.523893421169362
20
216.52389342116925
30
0
11
-23.523893421169362
21
297.45318274305055
31
0
0
LINE
5
123
100
AcDbEntity
8
OUTER_PROFILES
100
AcDbLine
10
-23.523893421169362
20
297.45318274305055
30
0
11
-18.52389342116922
21
297.4531827430514
31
0
0
SPLINE
5
124
100
AcDbEntity
8
OUTER_PROFILES
100
AcDbSpline
70
0
71
3
72
11
73
7
74
0
42
0.000000001
43
0.0000000001
44
0.0000000001
40
1.5707963267951865
40
1.5707963267951865
40
1.5707963267951865
40
1.5707963267951865
40
2.8094079470991034
40
2.8094079470991034
40
2.8094079470991034
40
3.1415926535897931
40
3.1415926535897931
40
3.1415926535897931
40
3.1415926535897931
10
-16.261946710584994
20
299.45318274305083
30
0
10
-16.856480288330857
20
298.62744166284824
30
0
10
-17.451013866076721
20
297.83180011064979
30
0
10
-18.045547443822585
20
297.56251844808696
30
0
10
-18.204996102938082
20
297.49029948245203
30
0
10
-18.364444762053722
20
297.4531827430514
30
0
10
-18.52389342116922
20
297.4531827430514
30
0
0
LINE
5
125
100
AcDbEntity
8
OUTER_PROFILES
100
AcDbLine
10
-16.261946710584994
20
299.45318274305083
30
0
11
-1.7673694583603239
21
313.94775999527496
31
0
0
ARC
5
126
100
AcDbEntity
8
OUTER_PROFILES
100
AcDbCircle
10
-2.4744762395468456
20
314.65486677646152
30
0
40
1.0000000000000058
210
-0
220
0
230
1
100
AcDbArc
50
-45.000000000001279
51
45.000000000003844
0
LINE
5
127
100
AcDbEntity
8
OUTER_PROFILES
100
AcDbLine
10
-1.7673694583603305
20
315.36197355764813
30
0
11
-16.261946710585136
21
329.85655080987215
31
0
0
SPLINE
5
128
100
AcDbEntity
8
OUTER_PROFILES
100
AcDbSpline
70
0
71
3
72
11
73
7
74
0
42
0.000000001
43
0.0000000001
44
0.0000000001
40
-3.1415926535897953
40
-3.1415926535897953
40
-3.1415926535897953
40
-3.1415926535897953
40
-1.9029810332858601
40
-1.9029810332858601
40
-1.9029810332858601
40
-1.5707963267951064
40
-1.5707963267951064
40
-1.5707963267951064
40
-1.5707963267951064
10
-18.523893421154298
20
331.85655080987175
30
0
10
-17.929359843408434
20
331.85655080987175
30
0
10
-17.334826265666976
20
331.28936855504446
30
0
10
-16.740292687926939
20
330.50876896643229
30
0
10
-16.580844028813004
20
330.29941904513396
30
0
10
-16.42139536969907
20
330.07800728086602
30
0
10
-16.261946710585136
20
329.85655080987215
30
0
0
LINE
5
129
100
AcDbEntity
8
OUTER_PROFILES
100
AcDbLine
10
-18.523893421154298
20
331.85655080987175
30
0
11
-23.523893421169362
21
331.85655080987272
31
0
0
LINE
5
130
100
AcDbEntity
8
OUTER_PROFILES
100
AcDbLine
10
-23.523893421169362
20
331.85655080987272
30
0
11
-23.523893421169646
21
675.71512945363543
31
0
0
LINE
5
131
100
AcDbEntity
8
OUTER_PROFILES
100
AcDbLine
10
-23.523893421169646
20
675.71512945363543
30
0
11
-18.523893421169362
21
680.71512945363554
31
0
0
SPLINE
5
132
100
AcDbEntity
8
OUTER_PROFILES
100
AcDbSpline
70
0
71
3
72
11
73
7
74
0
42
0.000000001
43
0.0000000001
44
0.0000000001
40
-3.1415926535897931
40
-3.1415926535897931
40
-3.1415926535897931
40
-3.1415926535897931
40
-3.0437620783854271
40
-3.0437620783854271
40
-3.0437620783854271
40
-1.5707963267948954
40
-1.5707963267948954
40
-1.5707963267948954
40
-1.5707963267948954
10
-16.261946710584709
20
681.71512945363531
30
0
10
-16.308905386682824
20
681.71512945363531
30
0
10
-16.355864062780938
20
681.71353304571426
30
0
10
-16.402822738879053
20
681.7103478583881
30
0
10
-17.109846299642442
20
681.66239074647308
30
0
10
-17.816869860405973
20
681.20611803749898
30
0
10
-18.523893421169362
20
680.71512945363543
30
0
0
LINE
5
133
100
AcDbEntity
8
OUTER_PROFILES
100
AcDbLine
10
-16.261946710584709
20
681.71512945363531
30
0
11
-2.261946710586642
21
681.71512945363543
31
0
0
SPLINE
5
134
100
AcDbEntity
8
OUTER_PROFILES
100
AcDbSpline
70
0
71
3
72
11
73
7
74
0
42
0.000000001
43
0.0000000001
44
0.0000000001
40
1.5707963267948968
40
1.5707963267948968
40
1.5707963267948968
40
1.5707963267948968
40
1.6686269019992626
40
1.6686269019992626
40
1.6686269019992626
40
3.1415926535897931
40
3.1415926535897931
40
3.1415926535897931
40
3.1415926535897931
10
-1.9895196601282805e-12
20
680.71512945363543
30
0
10
-0.046958676100103958
20
680.74773964537019
30
0
10
-0.093917352198218396
20
680.7803497873424
30
0
10
-0.14087602829619073
20
680.81280405033931
30
0
10
-0.84789958905972185
20
681.30144492552392
30
0
10
-1.554923149823253
20
681.71512945363543
30
0
10
-2.261946710586642
20
681.71512945363543
30
0
0
LINE
5
135
100
AcDbEntity
8
OUTER_PROFILES
100
AcDbLine
10
-1.9895196601282805e-12
20
680.71512945363543
30
0
11
0.070710678118075521
21
680.78584013175384
31
0
0
SPLINE
5
136
100
AcDbEntity
8
OUTER_PROFILES
100
AcDbSpline
70
0
71
3
72
11
73
7
74
0
42
0.000000001
43
0.0000000001
44
0.0000000001
40
-3.1415926535897931
40
-3.1415926535897931
40
-3.1415926535897931
40
-3.1415926535897931
40
-1.6686269019992626
40
-1.6686269019992626
40
-1.6686269019992626
40
-1.5707963267948968
40
-1.5707963267948968
40
-1.5707963267948968
40
-1.5707963267948968
10
-0.92928932188186764
20
683.04778684233861
30
0
10
-0.92928932188186764
20
682.34076328157516
30
0
10
-0.51560479377030788
20
681.6337397208116
30
0
10
-0.02696391858592051
20
680.92671616004827
30
0
10
0.0054903444112142097
20
680.87975748395013
30
0
10
0.038100486383427778
20
680.83279880785199
30
0
10
0.070710678118075521
20
680.78584013175384
30
0
0
LINE
5
137
100
AcDbEntity
8
OUTER_PROFILES
100
AcDbLine
10
-0.92928932188186764
20
683.04778684233861
30
0
11
-0.9292893218812992
21
697.04778684233861
31
0
0
SPLINE
5
138
100
AcDbEntity
8
OUTER_PROFILES
100
AcDbSpline
70
0
71
3
72
11
73
7
74
0
42
0.000000001
43
0.0000000001
44
0.0000000001
40
1.5707963267948979
40
1.5707963267948979
40
1.5707963267948979
40
1.5707963267948979
40
3.0437620783854302
40
3.0437620783854302
40
3.0437620783854302
40
3.1415926535897936
40
3.1415926535897936
40
3.1415926535897936
40
3.1415926535897936
10
0.070710678118075521
20
699.30973355292303
30
0
10
-0.42027790574536539
20
698.6027099921597
30
0
10
-0.87655061471963336
20
697.89568643139614
30
0
10
-0.92450772663468683
20
697.18866287063281
30
0
10
-0.92769291396081144
20
697.14170419453467
30
0
10
-0.92928932188186764
20
697.09474551843653
30
0
10
-0.92928932188186764
20
697.04778684233838
30
0
0
LINE
5
139
100
AcDbEntity
8
OUTER_PROFILES
100
AcDbLine
10
0.070710678118075521
20
699.30973355292303
30
0
11
5.070710678118644
21
704.30973355292303
31
0
0
LINE
5
140
100
AcDbEntity
8
OUTER_PROFILES
100
AcDbLine
10
5.070710678118644
20
704.30973355292303
30
0
11
754.92928932188136
21
704.30973355292372
31
0
0
LINE
5
141
100
AcDbEntity
8
OUTER_PROFILES
100
AcDbLine
10
754.92928932188136
20
704.30973355292372
30
0
11
759.92928932188136
21
699.30973355292349
31
0
0
SPLINE
5
142
100
AcDbEntity
8
OUTER_PROFILES
100
AcDbSpline
70
0
71
3
72
11
73
7
74
0
42
0.000000001
43
0.0000000001
44
0.0000000001
40
-3.1415926535897936
40
-3.1415926535897936
40
-3.1415926535897936
40
-3.1415926535897936
40
-3.0437620783854302
40
-3.0437620783854302
40
-3.0437620783854302
40
-1.5707963267948979
40
-1.5707963267948979
40
-1.5707963267948979
40
-1.5707963267948979
10
760.92928932188124
20
697.04778684233884
30
0
10
760.92928932188124
20
697.09474551843698
30
0
10
760.9276929139603
20
697.14170419453512
30
0
10
760.92450772663415
20
697.18866287063315
30
0
10
760.87655061471901
20
697.8956864313966
30
0
10
760.4202779057448
20
698.60270999216016
30
0
10
759.92928932188136
20
699.30973355292349
30
0
0
LINE
5
143
100
AcDbEntity
8
OUTER_PROFILES
100
AcDbLine
10
760.92928932188124
20
697.04778684233884
30
0
11
760.92928932188192
21
683.0477868423385
31
0
0
SPLINE
5
144
100
AcDbEntity
8
OUTER_PROFILES
100
AcDbSpline
70
0
71
3
72
11
73
7
74
0
42
0.000000001
43
0.0000000001
44
0.0000000001
40
1.5707963267948968
40
1.5707963267948968
40
1.5707963267948968
40
1.5707963267948968
40
1.6686269019992626
40
1.6686269019992626
40
1.6686269019992626
40
3.1415926535897931
40
3.1415926535897931
40
3.1415926535897931
40
3.1415926535897931
10
759.92928932188192
20
680.78584013175384
30
0
10
759.96189951361669
20
680.83279880785199
30
0
10
759.9945096555889
20
680.87975748395013
30
0
10
760.02696391858592
20
680.92671616004827
30
0
10
760.51560479377031
20
681.6337397208116
30
0
10
760.92928932188192
20
682.34076328157516
30
0
10
760.92928932188192
20
683.04778684233861
30
0
0
LINE
5
145
100
AcDbEntity
8
OUTER_PROFILES
100
AcDbLine
10
759.92928932188192
20
680.78584013175384
30
0
11
760
21
680.71512945363588
31
0
0
SPLINE
5
146
100
AcDbEntity
8
OUTER_PROFILES
100
AcDbSpline
70
0
71
3
72
11
73
7
74
0
42
0.000000001
43
0.0000000001
44
0.0000000001
40
-3.1415926535897931
40
-3.1415926535897931
40
-3.1415926535897931
40
-3.1415926535897931
40
-1.6686269019992626
40
-1.6686269019992626
40
-1.6686269019992626
40
-1.5707963267948968
40
-1.5707963267948968
40
-1.5707963267948968
40
-1.5707963267948968
10
762.2619467105892
20
681.71512945363543
30
0
10
761.55492314982575
20
681.71512945363543
30
0
10
760.84789958906242
20
681.30144492552392
30
0
10
760.14087602829886
20
680.81280405033931
30
0
10
760.09391735220083
20
680.7803497873424
30
0
10
760.0469586761028
20
680.74773964537019
30
0
10
760.00000000000466
20
680.71512945363543
30
0
0
LINE
5
147
100
AcDbEntity
8
OUTER_PROFILES
100
AcDbLine
10
762.2619467105892
20
681.71512945363543
30
0
11
776.26194671057669
21
681.71512945363543
31
0
0
SPLINE
5
148
100
AcDbEntity
8
OUTER_PROFILES
100
AcDbSpline
70
0
71
3
72
11
73
7
74
0
42
0.000000001
43
0.0000000001
44
0.0000000001
40
1.5707963267948954
40
1.5707963267948954
40
1.5707963267948954
40
1.5707963267948954
40
3.0437620783854271
40
3.0437620783854271
40
3.0437620783854271
40
3.1415926535897931
40
3.1415926535897931
40
3.1415926535897931
40
3.1415926535897931
10
778.52389342116135
20
680.71512945363543
30
0
10
777.8168698603979
20
681.20611803749898
30
0
10
777.10984629963446
20
681.66239074647308
30
0
10
776.40282273887101
20
681.71034785838833
30
0
10
776.35586406277287
20
681.71353304571437
30
0
10
776.30890538667472
20
681.71512945363543
30
0
10
776.26194671057669
20
681.71512945363543
30
0
0
LINE
5
149
100
AcDbEntity
8
OUTER_PROFILES
100
AcDbLine
10
778.52389342116135
20
680.71512945363543
30
0
11
783.52389342116919
21
675.7151294536352
31
0
0
LINE
5
150
100
AcDbEntity
8
OUTER_PROFILES
100
AcDbLine
10
783.52389342116919
20
675.7151294536352
30
0
11
783.5238934211693
21
331.8565508098726
31
0
0
LINE
5
151
100
AcDbEntity
8
OUTER_PROFILES
100
AcDbLine
10
783.5238934211693
20
331.8565508098726
30
0
11
778.52389342116919
21
331.85655080987272
31
0
0
SPLINE
5
152
100
AcDbEntity
8
OUTER_PROFILES
100
AcDbSpline
70
0
71
3
72
11
73
7
74
0
42
0.000000001
43
0.0000000001
44
0.0000000001
40
1.5707963267951179
40
1.5707963267951179
40
1.5707963267951179
40
1.5707963267951179
40
2.8094079470990629
40
2.8094079470990629
40
2.8094079470990629
40
3.1415926535896799
40
3.1415926535896799
40
3.1415926535896799
40
3.1415926535896799
10
776.26194671058443
20
329.85655080987317
30
0
10
776.85648028833032
20
330.68229189007582
30
0
10
777.45101386607644
20
331.47793344227432
30
0
10
778.04554744382256
20
331.74721510483721
30
0
10
778.20499610293814
20
331.81943407047214
30
0
10
778.36444476205361
20
331.85655080987272
30
0
10
778.52389342116919
20
331.85655080987272
30
0
0
LINE
5
153
100
AcDbEntity
8
OUTER_PROFILES
100
AcDbLine
10
776.26194671058443
20
329.85655080987317
30
0
11
761.76736945836012
21
315.36197355764813
31
0
0
CIRCLE
5
154
100
AcDbEntity
8
INTERIOR_PROFILES
100
AcDbCircle
10
-753.00000000000011
20
6.9999999999968665
30
0
40
1.6999999999999993
210
0
220
0
230
-1
0
CIRCLE
5
155
100
AcDbEntity
8
INTERIOR_PROFILES
100
AcDbCircle
10
-769.26194671058454
20
61.261946710584887
30
0
40
3.2500000000000284
210
0
220
0
230
-1
0
LWPOLYLINE
5
156
100
AcDbEntity
8
INTERIOR_PROFILES
100
AcDbPolyline
90
4
70
1
43
0.0
10
95
20
13.999999999996895
10
157.00000000000003
20
13.999999999996895
10
157.00000000000003
20
16.261946710584461
10
95
20
16.261946710584461
0
CIRCLE
5
157
100
AcDbEntity
8
INTERIOR_PROFILES
100
AcDbCircle
10
-769.26194671058454
20
197.26194671058482
30
0
40
1.7000000000000171
210
0
220
0
230
-1
0
CIRCLE
5
158
100
AcDbEntity
8
INTERIOR_PROFILES
100
AcDbCircle
10
9.2619467105846809
20
91.261946710584823
30
0
40
1.6999999999999993
210
0
220
0
230
-1
0
CIRCLE
5
159
100
AcDbEntity
8
INTERIOR_PROFILES
100
AcDbCircle
10
9.2619467105846809
20
45.261946710584802
30
0
40
1.6999999999999993
210
0
220
0
230
-1
0
CIRCLE
5
160
100
AcDbEntity
8
INTERIOR_PROFILES
100
AcDbCircle
10
-769.26194671058454
20
156.76194671058485
30
0
40
6.5000000000000568
210
0
220
0
230
-1
0
CIRCLE
5
161
100
AcDbEntity
8
INTERIOR_PROFILES
100
AcDbCircle
10
-769.26194671058454
20
45.261946710584873
30
0
40
1.7000000000000171
210
0
220
0
230
-1
0
CIRCLE
5
162
100
AcDbEntity
8
INTERIOR_PROFILES
100
AcDbCircle
10
-769.26194671058454
20
91.26194671058488
30
0
40
1.7000000000000171
210
0
220
0
230
-1
0
LWPOLYLINE
5
163
100
AcDbEntity
8
INTERIOR_PROFILES
100
AcDbPolyline
90
4
70
1
43
0.0
10
603
20
13.999999999996895
10
665
20
13.999999999996895
10
665
20
16.261946710584461
10
603
20
16.261946710584461
0
CIRCLE
5
164
100
AcDbEntity
8
INTERIOR_PROFILES
100
AcDbCircle
10
-680
20
6.9999999999968665
30
0
40
1.6999999999999993
210
0
220
0
230
-1
0
CIRCLE
5
165
100
AcDbEntity
8
INTERIOR_PROFILES
100
AcDbCircle
10
-145.99999999999994
20
19.261946710584503
30
0
40
1.6999999999999993
210
-0
220
0
230
-1
0
CIRCLE
5
166
100
AcDbEntity
8
INTERIOR_PROFILES
100
AcDbCircle
10
-6.9999999999998863
20
6.9999999999968665
30
0
40
1.6999999999999993
210
0
220
0
230
-1
0
CIRCLE
5
167
100
AcDbEntity
8
INTERIOR_PROFILES
100
AcDbCircle
10
-105.99999999999994
20
19.261946710584503
30
0
40
1.6999999999999993
210
-0
220
0
230
-1
0
CIRCLE
5
168
100
AcDbEntity
8
INTERIOR_PROFILES
100
AcDbCircle
10
-654
20
19.261946710584503
30
0
40
1.6999999999999993
210
-0
220
0
230
-1
0
CIRCLE
5
169
100
AcDbEntity
8
INTERIOR_PROFILES
100
AcDbCircle
10
-127.99999999999997
20
35.261946710584517
30
0
40
1.6999999999999993
210
-0
220
0
230
-1
0
CIRCLE
5
170
100
AcDbEntity
8
INTERIOR_PROFILES
100
AcDbCircle
10
-769.26194671058454
20
114.26194671058485
30
0
40
3.2500000000000284
210
0
220
0
230
-1
0
CIRCLE
5
171
100
AcDbEntity
8
INTERIOR_PROFILES
100
AcDbCircle
10
-632
20
35.261946710584517
30
0
40
1.6999999999999993
210
-0
220
0
230
-1
0
CIRCLE
5
172
100
AcDbEntity
8
INTERIOR_PROFILES
100
AcDbCircle
10
-769.26194671058454
20
19.261946710584859
30
0
40
1.7000000000000171
210
0
220
0
230
-1
0
CIRCLE
5
173
100
AcDbEntity
8
INTERIOR_PROFILES
100
AcDbCircle
10
-614
20
19.261946710584503
30
0
40
1.6999999999999993
210
-0
220
0
230
-1
0
CIRCLE
5
174
100
AcDbEntity
8
INTERIOR_PROFILES
100
AcDbCircle
10
-769.26194671058454
20
29.261946710584859
30
0
40
3.2500000000000284
210
0
220
0
230
-1
0
CIRCLE
5
175
100
AcDbEntity
8
INTERIOR_PROFILES
100
AcDbCircle
10
-80
20
6.9999999999968665
30
0
40
1.6999999999999993
210
0
220
0
230
-1
0
CIRCLE
5
176
100
AcDbEntity
8
INTERIOR_PROFILES
100
AcDbCircle
10
9.2619467105846809
20
29.261946710584787
30
0
40
3.2499999999999929
210
0
220
0
230
-1
0
CIRCLE
5
177
100
AcDbEntity
8
INTERIOR_PROFILES
100
AcDbCircle
10
9.2619467105846809
20
651.78584013175396
30
0
40
1.7000000000000004
210
0
220
0
230
-1
0
CIRCLE
5
178
100
AcDbEntity
8
INTERIOR_PROFILES
100
AcDbCircle
10
-751.99999999999989
20
691.04778684233838
30
0
40
1.7000000000000171
210
0
220
0
230
-1
0
CIRCLE
5
179
100
AcDbEntity
8
INTERIOR_PROFILES
100
AcDbCircle
10
9.2619467105845388
20
372.7858401317539
30
0
40
3.2499999999999996
210
0
220
0
230
-1
0
CIRCLE
5
180
100
AcDbEntity
8
INTERIOR_PROFILES
100
AcDbCircle
10
-769.26194671058454
20
404.78584013175396
30
0
40
3.2500000000000284
210
0
220
0
230
-1
0
CIRCLE
5
181
100
AcDbEntity
8
INTERIOR_PROFILES
100
AcDbCircle
10
-769.26194671058454
20
673.78584013175384
30
0
40
1.7000000000000171
210
0
220
0
230
-1
0
CIRCLE
5
182
100
AcDbEntity
8
INTERIOR_PROFILES
100
AcDbCircle
10
-585
20
691.04778684233838
30
0
40
1.7000000000000171
210
0
220
0
230
-1
0
CIRCLE
5
183
100
AcDbEntity
8
INTERIOR_PROFILES
100
AcDbCircle
10
-769.26194671058454
20
473.78584013175384
30
0
40
1.7000000000000171
210
0
220
0
230
-1
0
CIRCLE
5
184
100
AcDbEntity
8
INTERIOR_PROFILES
100
AcDbCircle
10
-8.0000000000001137
20
691.04778684233838
30
0
40
1.7000000000000004
210
0
220
0
230
-1
0
CIRCLE
5
185
100
AcDbEntity
8
INTERIOR_PROFILES
100
AcDbCircle
10
-769.26194671058454
20
579.78584013175396
30
0
40
1.7000000000000171
210
0
220
0
230
-1
0
CIRCLE
5
186
100
AcDbEntity
8
INTERIOR_PROFILES
100
AcDbCircle
10
9.2619467105846809
20
611.78584013175396
30
0
40
6.4999999999999982
210
0
220
0
230
-1
0
CIRCLE
5
187
100
AcDbEntity
8
INTERIOR_PROFILES
100
AcDbCircle
10
9.2619467105846809
20
673.78584013175384
30
0
40
1.7000000000000004
210
0
220
0
230
-1
0
CIRCLE
5
188
100
AcDbEntity
8
INTERIOR_PROFILES
100
AcDbCircle
10
-769.26194671058454
20
426.7858401317539
30
0
40
6.5000000000000568
210
0
220
0
230
-1
0
CIRCLE
5
189
100
AcDbEntity
8
INTERIOR_PROFILES
100
AcDbCircle
10
-769.26194671058454
20
372.7858401317539
30
0
40
3.2500000000000284
210
0
220
0
230
-1
0
CIRCLE
5
190
100
AcDbEntity
8
INTERIOR_PROFILES
100
AcDbCircle
10
9.2619467105846809
20
61.261946710584816
30
0
40
3.2499999999999929
210
0
220
0
230
-1
0
CIRCLE
5
191
100
AcDbEntity
8
INTERIOR_PROFILES
100
AcDbCircle
10
9.2619467105846809
20
426.7858401317539
30
0
40
6.4999999999999893
210
0
220
0
230
-1
0
CIRCLE
5
192
100
AcDbEntity
8
INTERIOR_PROFILES
100
AcDbCircle
10
9.2619467105846809
20
595.78584013175384
30
0
40
3.2500000000000053
210
0
220
0
230
-1
0
CIRCLE
5
193
100
AcDbEntity
8
INTERIOR_PROFILES
100
AcDbCircle
10
9.2619467105845388
20
156.76194671058479
30
0
40
6.5000000000000036
210
0
220
0
230
-1
0
CIRCLE
5
194
100
AcDbEntity
8
INTERIOR_PROFILES
100
AcDbCircle
10
9.2619467105846809
20
579.78584013175396
30
0
40
1.7000000000000004
210
0
220
0
230
-1
0
CIRCLE
5
195
100
AcDbEntity
8
INTERIOR_PROFILES
100
AcDbCircle
10
9.2619467105846809
20
404.78584013175396
30
0
40
3.2499999999999996
210
0
220
0
230
-1
0
CIRCLE
5
196
100
AcDbEntity
8
INTERIOR_PROFILES
100
AcDbCircle
10
-769.26194671058454
20
627.78584013175396
30
0
40
3.2500000000000284
210
0
220
0
230
-1
0
CIRCLE
5
197
100
AcDbEntity
8
INTERIOR_PROFILES
100
AcDbCircle
10
9.2619467105846809
20
19.261946710584787
30
0
40
1.6999999999999993
210
0
220
0
230
-1
0
CIRCLE
5
198
100
AcDbEntity
8
INTERIOR_PROFILES
100
AcDbCircle
10
-769.26194671058454
20
595.78584013175384
30
0
40
3.2500000000000284
210
0
220
0
230
-1
0
CIRCLE
5
199
100
AcDbEntity
8
INTERIOR_PROFILES
100
AcDbCircle
10
-175
20
691.04778684233838
30
0
40
1.7000000000000171
210
0
220
0
230
-1
0
CIRCLE
5
200
100
AcDbEntity
8
INTERIOR_PROFILES
100
AcDbCircle
10
-769.26194671058454
20
611.78584013175396
30
0
40
6.5000000000000568
210
0
220
0
230
-1
0
CIRCLE
5
201
100
AcDbEntity
8
INTERIOR_PROFILES
100
AcDbCircle
10
-769.26194671058454
20
651.78584013175396
30
0
40
1.7000000000000171
210
0
220
0
230
-1
0
CIRCLE
5
202
100
AcDbEntity
8
INTERIOR_PROFILES
100
AcDbCircle
10
9.2619467105845388
20
114.26194671058479
30
0
40
3.2500000000000107
210
0
220
0
230
-1
0
CIRCLE
5
203
100
AcDbEntity
8
INTERIOR_PROFILES
100
AcDbCircle
10
9.2619467105846809
20
473.78584013175384
30
0
40
1.7000000000000004
210
0
220
0
230
-1
0
CIRCLE
5
204
100
AcDbEntity
8
INTERIOR_PROFILES
100
AcDbCircle
10
9.2619467105846809
20
627.78584013175396
30
0
40
3.2500000000000053
210
0
220
0
230
-1
0
CIRCLE
5
205
100
AcDbEntity
8
INTERIOR_PROFILES
100
AcDbCircle
10
9.2619467105845388
20
197.26194671058477
30
0
40
1.6999999999999993
210
0
220
0
230
-1
0
LINE
5
206
100
AcDbEntity
8
BEND
100
AcDbLine
10
777.39292006587698
20
16.261946710584887
30
-6.7669643952410298e-13
11
777.39292006587698
21
214.26194671058485
31
-8.1865487045583784e-12
0
LINE
5
207
100
AcDbEntity
8
BEND
100
AcDbLine
10
-17.392920065876893
20
214.26194671058479
30
-8.7478357160319121e-12
11
-17.392920065876751
21
16.261946710584816
31
-1.0680234885179258e-12
0
LINE
5
208
100
AcDbEntity
8
BEND
100
AcDbLine
10
761.13097335529233
20
16.261946710584745
30
-5.3897149173921999e-13
11
761.13097335529233
21
214.26194671058471
31
-8.0395161489340427e-12
0
LINE
5
209
100
AcDbEntity
8
BEND
100
AcDbLine
10
-1.1309733552924683
20
314.65486677646152
30
-1.1908056395995599e-11
11
-1.1309733552924683
21
216.52389342116925
31
-8.2328490863330766e-12
0
LINE
5
210
100
AcDbEntity
8
BEND
100
AcDbLine
10
-1.1309733552923262
20
681.42223623482096
30
-2.9374072951146917e-11
11
-1.1309733552924683
21
314.65486677646152
31
-1.1908056395995599e-11
0
LINE
5
211
100
AcDbEntity
8
BEND
100
AcDbLine
10
760.6363961030678
20
698.17876019763139
30
-2.6402412494704322e-11
11
-0.63639610306807981
21
698.17876019763139
31
-2.640185738319201e-11
0
LINE
5
212
100
AcDbEntity
8
BEND
100
AcDbLine
10
760.63639610306848
20
681.91681348704628
30
-2.5719643045993701e-11
11
-0.63639610306836403
21
681.91681348704628
31
-2.5719643045993701e-11
0
LINE
5
213
100
AcDbEntity
8
BEND
100
AcDbLine
10
761.13097335529221
20
216.5238934211693
30
-8.2328009357681927e-12
11
761.13097335529221
21
314.65486677646152
31
-1.1908056395995599e-11
0
LINE
5
214
100
AcDbEntity
8
BEND
100
AcDbLine
10
761.13097335529221
20
314.65486677646152
30
-1.1908056395995599e-11
11
761.13097335529233
21
681.42223623481971
31
-2.5715610529250811e-11
0
LINE
5
215
100
AcDbEntity
8
BEND
100
AcDbLine
10
-17.392920065889399
20
681.42223623481584
30
-2.6571870036992821e-11
11
-17.392920065889399
21
331.27076437226731
31
1.6622256792565327e-12
0
LINE
5
216
100
AcDbEntity
8
BEND
100
AcDbLine
10
777.39292006587698
20
216.52389342116953
30
-9.369114201472055e-12
11
777.39292006587698
21
298.03896918067204
31
-2.8719772438309052e-12
0
LINE
5
217
100
AcDbEntity
8
BEND
100
AcDbLine
10
0
20
15.130973355290216
30
-4.5312647053835145e-13
11
760
21
15.130973355290216
31
-4.3430728366731886e-13
0
LINE
5
218
100
AcDbEntity
8
BEND
100
AcDbLine
10
-17.392920065877036
20
298.03896918067824
30
-1.1952491362240294e-11
11
-17.392920065877036
21
216.52389342116925
31
-8.7357560412058338e-12
0
LINE
5
219
100
AcDbEntity
8
BEND
100
AcDbLine
10
-1.1309733552924683
20
214.26194671058479
30
-8.0749951351571687e-12
11
-1.1309733552924683
21
16.261946710584745
31
-4.6791721816320795e-13
0
LINE
5
220
100
AcDbEntity
8
BEND
100
AcDbLine
10
761.47447623954645
20
314.65486677646152
30
-1.1952628837426813e-11
11
-1.4744762395469024
21
314.65486677646152
31
-1.2057158432315574e-11
0
LINE
5
221
100
AcDbEntity
8
BEND
100
AcDbLine
10
760
20
215.39292006587698
30
-8.1566976683066823e-12
11
0
21
215.39292006587698
31
-8.1566976683066823e-12
0
LINE
5
222
100
AcDbEntity
8
BEND
100
AcDbLine
10
777.39292006587687
20
331.27076437224616
30
-1.3203383064717362e-11
11
777.39292006587687
21
681.42223623481812
31
-2.5749333553623742e-11
0
LINE
5
223
100
AcDbEntity
8
BEND_EXTENT
100
AcDbLine
10
760
20
13.999999999999986
30
-3.8452043548449316e-13
11
665
21
13.999999999996895
31
-1.71357614756348e-13
0
LINE
5
224
100
AcDbEntity
8
BEND_EXTENT
100
AcDbLine
10
665
20
16.261946710584461
30
-3.5604675285390097e-12
11
760
21
16.261946710584745
31
-5.0513376477058901e-13
0
LINE
5
225
100
AcDbEntity
8
BEND_EXTENT
100
AcDbLine
10
760
20
16.261946710584745
30
-5.0513376477058901e-13
11
760
21
214.26194671058471
31
-8.0419900754570074e-12
0
LINE
5
226
100
AcDbEntity
8
BEND_EXTENT
100
AcDbLine
10
0
20
214.26194671058471
30
-8.0419900754570074e-12
11
760
21
214.26194671058471
31
-8.0419900754570074e-12
0
LINE
5
227
100
AcDbEntity
8
BEND_EXTENT
100
AcDbLine
10
0
20
214.26194671058471
30
-8.0419900754570074e-12
11
0
21
16.261946710584745
31
-5.0513376477058901e-13
0
LINE
5
228
100
AcDbEntity
8
BEND_EXTENT
100
AcDbLine
10
0
20
16.261946710584745
30
-5.0513376477058901e-13
11
95
21
16.261946710584461
31
-3.5604675285390097e-12
0
LINE
5
229
100
AcDbEntity
8
BEND_EXTENT
100
AcDbLine
10
603
20
13.999999999996895
30
-1.71357614756348e-13
11
157.00000000000003
21
13.999999999996895
31
-1.71357614756348e-13
0
LINE
5
230
100
AcDbEntity
8
BEND_EXTENT
100
AcDbLine
10
157.00000000000003
20
16.261946710584461
30
-3.5604675285390097e-12
11
603
21
16.261946710584461
31
-3.5604675285390097e-12
0
LINE
5
231
100
AcDbEntity
8
BEND_EXTENT
100
AcDbLine
10
95
20
13.999999999996895
30
-1.71357614756348e-13
11
0
21
13.999999999999986
31
-4.5557470906050318e-13
0
LINE
5
232
100
AcDbEntity
8
BEND_EXTENT
100
AcDbLine
10
-2.2619467105846525
20
16.261946710584745
30
-4.69606627982584e-13
11
-2.2619467105846525
21
214.26194671058479
31
-8.1308079174270231e-12
0
LINE
5
233
100
AcDbEntity
8
BEND_EXTENT
100
AcDbLine
10
762.26194671058465
20
214.26194671058479
30
-8.0597536438510131e-12
11
762.26194671058465
21
16.261946710584816
31
-6.1171517513460606e-13
0
LINE
5
234
100
AcDbEntity
8
BEND_EXTENT
100
AcDbLine
10
778.5238934211693
20
214.26194671058485
30
-8.0242265070630097e-12
11
778.52389342116919
21
16.261946710584887
31
-5.0513376477059305e-13
0
LINE
5
235
100
AcDbEntity
8
BEND_EXTENT
100
AcDbLine
10
776.26194671058443
20
16.261946710584887
30
-9.6698654301465817e-13
11
776.26194671058443
21
214.26194671058485
31
-8.3439707381550548e-12
0
LINE
5
236
100
AcDbEntity
8
BEND_EXTENT
100
AcDbLine
10
778.52389342116908
20
680.71512945363554
30
-2.5648211052753668e-11
11
778.52389342116919
21
331.85655080987272
31
-1.2538745275107388e-11
0
LINE
5
237
100
AcDbEntity
8
BEND_EXTENT
100
AcDbLine
10
776.26194671058454
20
329.8565508098726
30
-1.2479055685646913e-11
11
776.26194671058454
21
681.71512945363531
31
-2.5714693207296524e-11
0
LINE
5
238
100
AcDbEntity
8
BEND_EXTENT
100
AcDbLine
10
-18.523893421169362
20
331.85655080987272
30
-1.3542386889368529e-11
11
-18.523893421169362
21
680.71512945363554
31
-2.665407311306406e-11
0
LINE
5
239
100
AcDbEntity
8
BEND_EXTENT
100
AcDbLine
10
-16.261946710584709
20
681.71512945363531
30
-2.6354181669480614e-11
11
-16.261946710584709
21
329.8565508098726
31
-1.3118544147831007e-11
0
LINE
5
240
100
AcDbEntity
8
BEND_EXTENT
100
AcDbLine
10
-18.523893421168793
20
16.261946710584816
30
-1.3400214792887087e-12
11
-18.523893421168935
21
214.26194671058479
31
-9.0189863371271484e-12
0
LINE
5
241
100
AcDbEntity
8
BEND_EXTENT
100
AcDbLine
10
-16.261946710584567
20
214.26194671058479
30
-8.3439707381550532e-12
11
-16.261946710584425
21
16.261946710584816
31
-8.9593226943864613e-13
0
LINE
5
242
100
AcDbEntity
8
BEND_EXTENT
100
AcDbLine
10
-18.523893421169362
20
216.52389342116925
30
-8.8553825721091912e-12
11
-18.523893421169362
21
297.45318274305032
31
-1.1899647522186214e-11
0
LINE
5
243
100
AcDbEntity
8
BEND_EXTENT
100
AcDbLine
10
-16.261946710584709
20
299.4531827430506
30
-1.1974880233991441e-11
11
-16.261946710584709
21
216.52389342116925
31
-8.8553825721091912e-12
0
LINE
5
244
100
AcDbEntity
8
BEND_EXTENT
100
AcDbLine
10
0.070710678118075521
20
699.30973355292303
30
-2.6634109838773856e-11
11
759.92928932188136
21
699.30973355292349
31
-2.6634109838773872e-11
0
LINE
5
245
100
AcDbEntity
8
BEND_EXTENT
100
AcDbLine
10
760.92928932188124
20
697.04778684233861
30
-2.6252877605860278e-11
11
-0.9292893218812992
21
697.04778684233861
31
-2.6252877605860278e-11
0
LINE
5
246
100
AcDbEntity
8
BEND_EXTENT
100
AcDbLine
10
778.5238934211693
20
297.45318274305083
30
-1.2539135984370322e-11
11
778.5238934211693
21
216.52389342116953
31
-9.4948710342932927e-12
0
LINE
5
247
100
AcDbEntity
8
BEND_EXTENT
100
AcDbLine
10
776.26194671058465
20
216.52389342116925
30
-9.4238167607172714e-12
11
776.26194671058465
21
299.4531827430506
31
-1.2614368696175531e-11
0
LINE
5
248
100
AcDbEntity
8
BEND_EXTENT
100
AcDbLine
10
762.26194671058465
20
681.71512945363543
30
-2.5714693207296524e-11
11
762.26194671058465
21
315.85655080987294
31
-1.1952426703010416e-11
0
LINE
5
249
100
AcDbEntity
8
BEND_EXTENT
100
AcDbLine
10
-0.92928932188186764
20
683.0477868423385
30
-2.5759133425685238e-11
11
760.92928932188192
21
683.0477868423385
31
-2.5759133425685238e-11
0
LINE
5
250
100
AcDbEntity
8
BEND_EXTENT
100
AcDbLine
10
-2.2619467105847946
20
315.85655080987272
30
-1.2023480976586416e-11
11
-2.2619467105847946
21
681.71512945363543
31
-2.5785747480872534e-11
0
LINE
5
251
100
AcDbEntity
8
BEND_EXTENT
100
AcDbLine
10
-2.2619467105847946
20
216.52389342116925
30
-8.3580026570771211e-12
11
-2.2619467105847946
21
313.4531827430506
31
-1.2004129301595883e-11
0
LINE
5
252
100
AcDbEntity
8
BEND_EXTENT
100
AcDbLine
10
759.92928932188192
20
680.78584013175384
30
-2.5679736729428135e-11
11
0.070710678118075521
21
680.78584013175384
31
-2.5679736729428135e-11
0
LINE
5
253
100
AcDbEntity
8
BEND_EXTENT
100
AcDbLine
10
760
20
315.7858401317539
30
-1.1949766824976175e-11
11
760
21
680.71512945363588
31
-2.5677076851393938e-11
0
LINE
5
254
100
AcDbEntity
8
BEND_EXTENT
100
AcDbLine
10
760
20
315.7858401317539
30
-1.1949766824976175e-11
11
0
21
315.7858401317539
31
-1.1949766824976175e-11
0
LINE
5
255
100
AcDbEntity
8
BEND_EXTENT
100
AcDbLine
10
0
20
680.71512945363588
30
-2.5677076851393938e-11
11
0
21
315.7858401317539
31
-1.1949766824976175e-11
0
LWPOLYLINE
5
256
100
AcDbEntity
8
BEND_EXTENT
100
AcDbPolyline
90
4
70
1
43
0.0
10
0
20
313.5238934211693
10
0
20
216.52389342116925
10
760
20
216.52389342116925
10
759.99999999999989
20
313.5238934211693
0
LINE
5
257
100
AcDbEntity
8
BEND_EXTENT
100
AcDbLine
10
762.26194671058465
20
313.4531827430506
30
-1.2004129301595883e-11
11
762.26194671058465
21
216.5238934211693
31
-8.3580026570771243e-12
0
ENDSEC
0
SECTION
2
OBJECTS
0
DICTIONARY
5
C
100
AcDbDictionary
3
ACAD_GROUP
350
D
3
ACAD_MLINESTYLE
350
17
0
DICTIONARY
5
D
100
AcDbDictionary
0
DICTIONARY
5
1A
330
C
100
AcDbDictionary
0
DICTIONARY
5
17
100
AcDbDictionary
0
ENDSEC
0
EOF
