0
SECTION
2
HEADER
9
$INSUNITS
70
4
9
$ACADVER
1
AC1014
9
$HANDSEED
5
FFFF
0
ENDSEC
0
SECTION
2
TABLES
0
TABLE
2
VPORT
5
8
100
AcDbSymbolTable
0
ENDTAB
0
TABLE
2
LTYPE
5
5
100
AcDbSymbolTable
0
LTYPE
5
14
100
AcDbSymbolTableRecord
100
AcDbLinetypeTableRecord
2
BYBLOCK
70
0
0
LTYPE
5
15
100
AcDbSymbolTableRecord
100
AcDbLinetypeTableRecord
2
BYLAYER
70
0
0
LTYPE
5
16
100
AcDbSymbolTableRecord
100
AcDbLinetypeTableRecord
2
DASHED
70
0
3
Dashed __ __ __ __ __ __ __ __ __ __ __ __ __ _
72
65
73
2
40
0.75
49
0.5
74
0
49
-0.25
74
0
0
ENDTAB
0
TABLE
2
LAYER
5
2
100
AcDbSymbolTable
70
2
0
LAYER
5
50
100
AcDbSymbolTableRecord
100
AcDbLayerTableRecord
2
0
70
0
62
7
6
CONTINUOUS
0
ENDTAB
0
TABLE
2
STYLE
5
3
100
AcDbSymbolTable
70
1
0
STYLE
5
11
100
AcDbSymbolTableRecord
100
AcDbTextStyleTableRecord
2
STANDARD
70
0
0
ENDTAB
0
TABLE
2
VIEW
5
6
100
AcDbSymbolTable
70
0
0
ENDTAB
0
TABLE
2
UCS
5
7
100
AcDbSymbolTable
70
0
0
ENDTAB
0
TABLE
2
APPID
5
9
100
AcDbSymbolTable
70
2
0
APPID
5
12
100
AcDbSymbolTableRecord
100
AcDbRegAppTableRecord
2
ACAD
70
0
0
ENDTAB
0
TABLE
2
DIMSTYLE
5
A
100
AcDbSymbolTable
70
1
0
ENDTAB
0
TABLE
2
BLOCK_RECORD
5
1
100
AcDbSymbolTable
70
1
0
BLOCK_RECORD
5
1F
100
AcDbSymbolTableRecord
100
AcDbBlockTableRecord
2
*MODEL_SPACE
0
BLOCK_RECORD
5
1B
100
AcDbSymbolTableRecord
100
AcDbBlockTableRecord
2
*PAPER_SPACE
0
ENDTAB
0
ENDSEC
0
SECTION
2
BLOCKS
0
BLOCK
5
20
100
AcDbEntity
100
AcDbBlockBegin
2
*MODEL_SPACE
0
ENDBLK
5
21
100
AcDbEntity
100
AcDbBlockEnd
0
BLOCK
5
1C
100
AcDbEntity
100
AcDbBlockBegin
2
*PAPER_SPACE
0
ENDBLK
5
1D
100
AcDbEntity
100
AcDbBlockEnd
0
ENDSEC
0
SECTION
2
ENTITIES
0
LWPOLYLINE
5
100
100
AcDbEntity
8
OUTER_PROFILES
100
AcDbPolyline
90
39
70
1
43
0.0
10
327.00000000000409
20
285.30973355292718
10
327.00000000000341
20
283.04778684234162
10
330.00000000000341
20
283.04778684234157
10
330.00000000000341
20
286.04778684234157
10
327.7380532894187
20
286.04778684234157
10
303.73805328941876
20
310.04778684234162
10
303.7380532894187
20
425.0477868423414
10
330.00000000000341
20
425.0477868423414
10
330.00000000000341
20
483.09557368472451
10
689.49999999999989
20
483.09557368472451
10
689.49999999999989
20
476.59557368472451
42
0.41421356237309503
10
695.99999999999977
20
470.09557368472451
10
695.99999999999977
20
467.83362697418846
10
695.99999999999977
20
457.57168026352338
10
695.99999999999977
20
449.30973355291985
10
695.99999999999977
20
427.30973355291979
10
695.99999999999977
20
425.0477868423414
10
698.26194671058465
20
425.0477868423414
10
714.26194671058454
20
383.71445350900831
10
714.26194671058454
20
54.047786842341452
10
696
20
54.047786842341381
10
696
20
51.785840131756586
10
696
20
44.785840131756629
10
696
20
42.523893421172176
42
0.99999999999999989
10
696
20
23.523893421172151
10
696
20
10.261946710586045
10
696
20
3.5527136788005009e-14
10
0
20
0
10
0
20
10.261946710586045
10
-5.9102954687586949e-13
20
23.523893421179025
42
0.99999999999999989
10
2.2595358267789275e-14
20
42.523893421179082
10
0
20
44.785840131756629
10
-7.1054273576010019e-14
20
51.785840131756586
10
-1.4210854715202004e-13
20
54.047786842341417
10
-18.261946710491657
20
54.047786842341452
10
-18.261946710491657
20
283.04778684234157
10
7.1054273576010019e-14
20
283.04778684234157
10
7.3185901783290319e-12
20
309.30973355301921
10
303.00000000001086
20
309.30973355293395
0
CIRCLE
5
101
100
AcDbEntity
8
INTERIOR_PROFILES
100
AcDbCircle
10
-447.99999999999989
20
276.04778684234162
30
0
40
1.7000000000000171
210
0
220
0
230
-1
0
CIRCLE
5
102
100
AcDbEntity
8
INTERIOR_PROFILES
100
AcDbCircle
10
-547.99999999999989
20
276.04778684234162
30
0
40
1.7000000000000171
210
0
220
0
230
-1
0
CIRCLE
5
103
100
AcDbEntity
8
INTERIOR_PROFILES
100
AcDbCircle
10
-147.99999999999989
20
276.04778684234168
30
0
40
1.6999999999999993
210
0
220
0
230
-1
0
CIRCLE
5
104
100
AcDbEntity
8
INTERIOR_PROFILES
100
AcDbCircle
10
-47.999999999999972
20
276.04778684234162
30
0
40
1.6999999999999993
210
0
220
0
230
-1
0
CIRCLE
5
105
100
AcDbEntity
8
INTERIOR_PROFILES
100
AcDbCircle
10
-647.99999999999977
20
276.04778684234168
30
0
40
1.7000000000000171
210
0
220
0
230
-1
0
CIRCLE
5
106
100
AcDbEntity
8
INTERIOR_PROFILES
100
AcDbCircle
10
-347.99999999999989
20
276.04778684234168
30
0
40
1.7000000000000171
210
0
220
0
230
-1
0
CIRCLE
5
107
100
AcDbEntity
8
INTERIOR_PROFILES
100
AcDbCircle
10
-247.99999999999989
20
276.04778684234162
30
0
40
1.7000000000000171
210
0
220
0
230
-1
0
CIRCLE
5
108
100
AcDbEntity
8
INTERIOR_PROFILES
100
AcDbCircle
10
-7.0000000000041496
20
300.30973355301376
30
0
40
1.7000000000000171
210
0
220
0
230
-1
0
CIRCLE
5
109
100
AcDbEntity
8
INTERIOR_PROFILES
100
AcDbCircle
10
-32.00000000000415
20
300.30973355300671
30
0
40
1.7000000000000171
210
0
220
0
230
-1
0
CIRCLE
5
110
100
AcDbEntity
8
INTERIOR_PROFILES
100
AcDbCircle
10
-688.9999999999992
20
228.0477868423402
30
0
40
1.7000000000000171
210
0
220
0
230
-1
0
CIRCLE
5
111
100
AcDbEntity
8
INTERIOR_PROFILES
100
AcDbCircle
10
-688.99999999999955
20
395.04778684234026
30
0
40
1.7000000000000171
210
0
220
0
230
-1
0
CIRCLE
5
112
100
AcDbEntity
8
INTERIOR_PROFILES
100
AcDbCircle
10
-6.9999999999999574
20
228.04778684234145
30
0
40
1.7000000000000004
210
0
220
0
230
-1
0
CIRCLE
5
113
100
AcDbEntity
8
INTERIOR_PROFILES
100
AcDbCircle
10
-6.9999999999999574
20
61.047786842341445
30
0
40
1.7000000000000004
210
0
220
0
230
-1
0
CIRCLE
5
114
100
AcDbEntity
8
INTERIOR_PROFILES
100
AcDbCircle
10
-79.000000000004178
20
300.30973355299346
30
0
40
1.7000000000000171
210
0
220
0
230
-1
0
CIRCLE
5
115
100
AcDbEntity
8
INTERIOR_PROFILES
100
AcDbCircle
10
-688.99999999999886
20
61.047786842340201
30
0
40
1.7000000000000171
210
0
220
0
230
-1
0
CIRCLE
5
116
100
AcDbEntity
8
INTERIOR_PROFILES
100
AcDbCircle
10
-616.99999999999989
20
442.30973355291979
30
0
40
1.7000000000000171
210
0
220
0
230
-1
0
CIRCLE
5
117
100
AcDbEntity
8
INTERIOR_PROFILES
100
AcDbCircle
10
-147.99999999999994
20
2.9999999999999716
30
0
40
1.6999999999999993
210
0
220
0
230
-1
0
CIRCLE
5
118
100
AcDbEntity
8
INTERIOR_PROFILES
100
AcDbCircle
10
-688.99999999999977
20
442.30973355291979
30
0
40
1.7000000000000171
210
0
220
0
230
-1
0
CIRCLE
5
119
100
AcDbEntity
8
INTERIOR_PROFILES
100
AcDbCircle
10
-47.999999999999865
20
2.9999999999999716
30
0
40
1.6999999999999993
210
0
220
0
230
-1
0
CIRCLE
5
120
100
AcDbEntity
8
INTERIOR_PROFILES
100
AcDbCircle
10
-147.99999999999989
20
33.023893421172161
30
0
40
1.6999999999999993
210
0
220
0
230
-1
0
CIRCLE
5
121
100
AcDbEntity
8
INTERIOR_PROFILES
100
AcDbCircle
10
-688.99999999999955
20
414.54778684234032
30
0
40
1.7000000000000171
210
0
220
0
230
-1
0
CIRCLE
5
122
100
AcDbEntity
8
INTERIOR_PROFILES
100
AcDbCircle
10
-348
20
3.0000000000000782
30
0
40
1.7000000000000171
210
0
220
0
230
-1
0
CIRCLE
5
123
100
AcDbEntity
8
INTERIOR_PROFILES
100
AcDbCircle
10
-447.99999999999989
20
480.09557368472451
30
0
40
1.7000000000000171
210
0
220
0
230
-1
0
CIRCLE
5
124
100
AcDbEntity
8
INTERIOR_PROFILES
100
AcDbCircle
10
-447.99999999999989
20
33.02389342117209
30
0
40
1.7000000000000171
210
0
220
0
230
-1
0
CIRCLE
5
125
100
AcDbEntity
8
INTERIOR_PROFILES
100
AcDbCircle
10
-547.99999999999977
20
480.09557368472457
30
0
40
1.7000000000000171
210
0
220
0
230
-1
0
CIRCLE
5
126
100
AcDbEntity
8
INTERIOR_PROFILES
100
AcDbCircle
10
-347.99999999999989
20
33.02389342117209
30
0
40
1.7000000000000171
210
0
220
0
230
-1
0
CIRCLE
5
127
100
AcDbEntity
8
INTERIOR_PROFILES
100
AcDbCircle
10
-547.99999999999989
20
2.9999999999999716
30
0
40
1.7000000000000171
210
0
220
0
230
-1
0
CIRCLE
5
128
100
AcDbEntity
8
INTERIOR_PROFILES
100
AcDbCircle
10
-247.99999999999994
20
2.9999999999999005
30
0
40
1.7000000000000171
210
0
220
0
230
-1
0
CIRCLE
5
129
100
AcDbEntity
8
INTERIOR_PROFILES
100
AcDbCircle
10
-447.99999999999989
20
3.0000000000000071
30
0
40
1.7000000000000171
210
0
220
0
230
-1
0
CIRCLE
5
130
100
AcDbEntity
8
INTERIOR_PROFILES
100
AcDbCircle
10
-647.99999999999977
20
33.023893421172126
30
0
40
1.7000000000000171
210
0
220
0
230
-1
0
CIRCLE
5
131
100
AcDbEntity
8
INTERIOR_PROFILES
100
AcDbCircle
10
-638
20
442.30973355291979
30
0
40
1.7000000000000171
210
0
220
0
230
-1
0
CIRCLE
5
132
100
AcDbEntity
8
INTERIOR_PROFILES
100
AcDbCircle
10
-547.99999999999989
20
33.023893421172019
30
0
40
1.7000000000000171
210
0
220
0
230
-1
0
CIRCLE
5
133
100
AcDbEntity
8
INTERIOR_PROFILES
100
AcDbCircle
10
-47.999999999999972
20
33.02389342117209
30
0
40
1.6999999999999993
210
0
220
0
230
-1
0
CIRCLE
5
134
100
AcDbEntity
8
INTERIOR_PROFILES
100
AcDbCircle
10
-247.99999999999989
20
33.023893421172126
30
0
40
1.7000000000000171
210
0
220
0
230
-1
0
CIRCLE
5
135
100
AcDbEntity
8
INTERIOR_PROFILES
100
AcDbCircle
10
-663.99999999999977
20
442.30973355291979
30
0
40
1.7000000000000171
210
0
220
0
230
-1
0
CIRCLE
5
136
100
AcDbEntity
8
INTERIOR_PROFILES
100
AcDbCircle
10
-347.99999999999977
20
480.09557368472457
30
0
40
1.7000000000000171
210
0
220
0
230
-1
0
CIRCLE
5
137
100
AcDbEntity
8
INTERIOR_PROFILES
100
AcDbCircle
10
-647.99999999999977
20
480.09557368472457
30
0
40
1.7000000000000171
210
0
220
0
230
-1
0
CIRCLE
5
138
100
AcDbEntity
8
INTERIOR_PROFILES
100
AcDbCircle
10
-647.99999999999977
20
2.9999999999999716
30
0
40
1.7000000000000171
210
0
220
0
230
-1
0
CIRCLE
5
139
100
AcDbEntity
8
INTERIOR_PROFILES
100
AcDbCircle
10
-591.99999999999989
20
442.30973355291979
30
0
40
1.7000000000000171
210
0
220
0
230
-1
0
CIRCLE
5
140
100
AcDbEntity
8
INTERIOR_PROFILES
100
AcDbCircle
10
15.261946710491685
20
215.54778684234145
30
0
40
1.7000000000000171
210
0
220
0
230
-1
0
CIRCLE
5
141
100
AcDbEntity
8
INTERIOR_PROFILES
100
AcDbCircle
10
-711.26194671058443
20
370.54778684234145
30
0
40
1.7000000000000171
210
-0
220
0
230
-1
0
CIRCLE
5
142
100
AcDbEntity
8
INTERIOR_PROFILES
100
AcDbCircle
10
-711.26194671058443
20
60.547786842341402
30
0
40
1.6999999999999993
210
-0
220
0
230
-1
0
CIRCLE
5
143
100
AcDbEntity
8
INTERIOR_PROFILES
100
AcDbCircle
10
15.261946710491472
20
60.547786842341438
30
0
40
1.6999999999999993
210
0
220
0
230
-1
0
CIRCLE
5
144
100
AcDbEntity
8
INTERIOR_PROFILES
100
AcDbCircle
10
-711.26194671058443
20
215.54778684234134
30
0
40
1.7000000000000171
210
-0
220
0
230
-1
0
LINE
5
145
100
AcDbEntity
8
BEND
100
AcDbLine
10
-1.1309733552456436
20
283.04778684234157
30
-5.679772727773888e-11
11
-1.1309733552456436
21
54.047786842341488
31
2.4397940542967048e-12
0
LINE
5
146
100
AcDbEntity
8
BEND
100
AcDbLine
10
696
20
43.654866776464445
30
1.7260031972341988e-12
11
0
21
43.654866776464445
31
1.7258742296783413e-12
0
LINE
5
147
100
AcDbEntity
8
BEND
100
AcDbLine
10
696
20
52.916813487048948
30
2.4692072294932485e-12
11
0
21
52.916813487048948
31
2.499163615453568e-12
0
LINE
5
148
100
AcDbEntity
8
BEND
100
AcDbLine
10
695.99999999999977
20
468.96460032945652
30
5.1016350768983634e-12
11
330.00000000000341
21
468.96460032945652
31
3.5994818237128356e-11
0
LINE
5
149
100
AcDbEntity
8
BEND
100
AcDbLine
10
695.99999999999977
20
458.70265361885595
30
3.6579269711885091e-12
11
330.00000000000341
21
458.70265361885595
31
5.4936610816014309e-11
0
LINE
5
150
100
AcDbEntity
8
BEND
100
AcDbLine
10
696
20
9.1309733552931149
30
3.0473414285127677e-14
11
0
21
9.1309733552931149
31
2.7599601226764662e-14
0
LINE
5
151
100
AcDbEntity
8
BEND
100
AcDbLine
10
328.86902664471108
20
425.0477868423414
30
2.581268532253489e-12
11
328.86902664471108
21
286.04778684234162
31
2.5843216455712081e-12
0
LINE
5
152
100
AcDbEntity
8
BEND
100
AcDbLine
10
695.99999999999977
20
426.17876019763065
30
2.5167012034003293e-12
11
330.00000000000341
21
426.17876019763065
31
-1.3922196728799467e-12
0
LINE
5
153
100
AcDbEntity
8
BEND
100
AcDbLine
10
696
20
22.392920065879132
30
4.3369929388695424e-13
11
0
21
22.392920065879132
31
4.3234589641431848e-13
0
LINE
5
154
100
AcDbEntity
8
BEND
100
AcDbLine
10
695.99999999999977
20
450.44070690822161
30
3.4119879969014165e-12
11
330.00000000000341
21
450.44070690822161
31
1.5454026947026016e-11
0
LINE
5
155
100
AcDbEntity
8
BEND
100
AcDbLine
10
327.00000000000375
20
284.178760197695
30
-1.1039728725976187e-10
11
2.8421709430404007e-13
21
284.17876019778703
31
-1.1041648285033123e-10
0
LINE
5
156
100
AcDbEntity
8
BEND
100
AcDbLine
10
697.13097335529233
20
54.047786842341452
30
2.5673907444456745e-12
11
697.13097335529233
21
425.0477868423414
31
2.5493496202955157e-12
0
LINE
5
157
100
AcDbEntity
8
BEND_EXTENT
100
AcDbLine
10
327.7380532894187
20
286.04778684234157
30
2.4957813593573519e-12
11
327.7380532894187
21
425.0477868423414
31
2.4957813593573519e-12
0
LINE
5
158
100
AcDbEntity
8
BEND_EXTENT
100
AcDbLine
10
5.6843418860808015e-13
20
285.30973355301921
30
-2.2349233574914251e-10
11
327.00000000000409
21
285.30973355292718
31
-2.2384760711702256e-10
0
LINE
5
159
100
AcDbEntity
8
BEND_EXTENT
100
AcDbLine
10
327.00000000000341
20
283.04778684234162
30
2.560653911132249e-12
11
7.1054273576010019e-14
21
283.04778684234157
31
2.5604518505417673e-12
0
LINE
5
160
100
AcDbEntity
8
BEND_EXTENT
100
AcDbLine
10
7.1054273576010019e-14
20
283.04778684234157
30
2.5604518505417673e-12
11
-1.4210854715202004e-13
21
54.047786842341417
31
2.5668289715952144e-12
0
LINE
5
161
100
AcDbEntity
8
BEND_EXTENT
100
AcDbLine
10
-1.4210854715202004e-13
20
54.047786842341417
30
2.5668289715952144e-12
11
696
21
54.047786842341381
31
2.5668289715952144e-12
0
LINE
5
162
100
AcDbEntity
8
BEND_EXTENT
100
AcDbLine
10
696
20
54.047786842341381
30
2.5668289715952144e-12
11
695.99999999999977
21
425.0477868423414
31
2.5668422942715094e-12
0
LINE
5
163
100
AcDbEntity
8
BEND_EXTENT
100
AcDbLine
10
695.99999999999977
20
425.0477868423414
30
2.5668422942715094e-12
11
330.00000000000341
21
425.0477868423414
31
2.5405499926023369e-12
0
LINE
5
164
100
AcDbEntity
8
BEND_EXTENT
100
AcDbLine
10
330.00000000000341
20
425.0477868423414
30
2.5405499926023369e-12
11
330.00000000000341
21
286.04778684234157
31
2.5602275854907925e-12
0
LINE
5
165
100
AcDbEntity
8
BEND_EXTENT
100
AcDbLine
10
-2.2619467104917135
20
54.047786842341452
30
2.5668356329333619e-12
11
-2.2619467104915714
21
283.04778684234157
31
2.5668356329333619e-12
0
LINE
5
166
100
AcDbEntity
8
BEND_EXTENT
100
AcDbLine
10
330.00000000000341
20
470.09557368472457
30
5.1803006329009804e-12
11
695.99999999999977
21
470.09557368472457
31
5.1803006329009804e-12
0
LINE
5
167
100
AcDbEntity
8
BEND_EXTENT
100
AcDbLine
10
695.99999999999977
20
467.83362697418846
30
4.7695181137896725e-12
11
330.00000000000341
21
467.83362697418841
31
4.8405723873656825e-12
0
LINE
5
168
100
AcDbEntity
8
BEND_EXTENT
100
AcDbLine
10
330.00000000000341
20
459.83362697418841
30
3.8458125573015423e-12
11
695.99999999999977
21
459.83362697418846
31
3.7747582837255322e-12
0
LINE
5
169
100
AcDbEntity
8
BEND_EXTENT
100
AcDbLine
10
695.99999999999977
20
457.57168026352338
30
3.5660363550960028e-12
11
330.00000000000341
21
457.57168026352338
31
3.5660363550960028e-12
0
LINE
5
170
100
AcDbEntity
8
BEND_EXTENT
100
AcDbLine
10
698.26194671058465
20
425.0477868423414
30
2.5512952031957706e-12
11
698.26194671058465
21
54.047786842341452
31
2.5512952031957706e-12
0
LINE
5
171
100
AcDbEntity
8
BEND_EXTENT
100
AcDbLine
10
330.00000000000341
20
427.30973355291974
30
2.5668356329333619e-12
11
695.99999999999977
21
427.30973355291979
31
2.6378899065093719e-12
0
LINE
5
172
100
AcDbEntity
8
BEND_EXTENT
100
AcDbLine
10
696
20
51.785840131756586
30
2.4069635173873394e-12
11
0
21
51.785840131756586
31
2.4424906541753444e-12
0
LINE
5
173
100
AcDbEntity
8
BEND_EXTENT
100
AcDbLine
10
696
20
8.0000000000000426
30
0
11
0
21
8.0000000000000426
31
0
0
LINE
5
174
100
AcDbEntity
8
BEND_EXTENT
100
AcDbLine
10
0
20
10.261946710586045
30
8.9994245088972898e-14
11
696
21
10.261946710586045
31
1.893997151296086e-14
0
LINE
5
175
100
AcDbEntity
8
BEND_EXTENT
100
AcDbLine
10
696
20
21.261946710585988
30
3.5366469737118449e-13
11
0
21
21.261946710585988
31
4.2471897094719653e-13
0
LINE
5
176
100
AcDbEntity
8
BEND_EXTENT
100
AcDbLine
10
0
20
23.523893421172062
30
4.7295500849031669e-13
11
696
21
23.523893421172133
31
4.7295500849031669e-13
0
LINE
5
177
100
AcDbEntity
8
BEND_EXTENT
100
AcDbLine
10
696
20
42.52389342117219
30
1.6386891843467311e-12
11
0
21
42.523893421172083
31
1.6386891843467311e-12
0
LINE
5
178
100
AcDbEntity
8
BEND_EXTENT
100
AcDbLine
10
0
20
44.785840131756629
30
1.8607337892717624e-12
11
696
21
44.785840131756629
31
1.7896795156957523e-12
0
LINE
5
179
100
AcDbEntity
8
BEND_EXTENT
100
AcDbLine
10
695.99999999999977
20
449.30973355291985
30
3.4194869158454821e-12
11
330.00000000000341
21
449.30973355291985
31
3.3484326422694721e-12
0
LINE
5
180
100
AcDbEntity
8
BEND_EXTENT
100
AcDbLine
10
330.00000000000341
20
451.57168026352343
30
3.3395508580724709e-12
11
695.99999999999977
21
451.57168026352343
31
3.3750779948604759e-12
0
ENDSEC
0
SECTION
2
OBJECTS
0
DICTIONARY
5
C
100
AcDbDictionary
3
ACAD_GROUP
350
D
3
ACAD_MLINESTYLE
350
17
0
DICTIONARY
5
D
100
AcDbDictionary
0
DICTIONARY
5
1A
330
C
100
AcDbDictionary
0
DICTIONARY
5
17
100
AcDbDictionary
0
ENDSEC
0
EOF
