0
SECTION
2
HEADER
9
$INSUNITS
70
4
9
$ACADVER
1
AC1014
9
$HANDSEED
5
FFFF
0
ENDSEC
0
SECTION
2
TABLES
0
TABLE
2
VPORT
5
8
100
AcDbSymbolTable
0
ENDTAB
0
TABLE
2
LTYPE
5
5
100
AcDbSymbolTable
0
LTYPE
5
14
100
AcDbSymbolTableRecord
100
AcDbLinetypeTableRecord
2
BYBLOCK
70
0
0
LTYPE
5
15
100
AcDbSymbolTableRecord
100
AcDbLinetypeTableRecord
2
BYLAYER
70
0
0
LTYPE
5
16
100
AcDbSymbolTableRecord
100
AcDbLinetypeTableRecord
2
DASHED
70
0
3
Dashed __ __ __ __ __ __ __ __ __ __ __ __ __ _
72
65
73
2
40
0.75
49
0.5
74
0
49
-0.25
74
0
0
ENDTAB
0
TABLE
2
LAYER
5
2
100
AcDbSymbolTable
70
2
0
LAYER
5
50
100
AcDbSymbolTableRecord
100
AcDbLayerTableRecord
2
0
70
0
62
7
6
CONTINUOUS
0
ENDTAB
0
TABLE
2
STYLE
5
3
100
AcDbSymbolTable
70
1
0
STYLE
5
11
100
AcDbSymbolTableRecord
100
AcDbTextStyleTableRecord
2
STANDARD
70
0
0
ENDTAB
0
TABLE
2
VIEW
5
6
100
AcDbSymbolTable
70
0
0
ENDTAB
0
TABLE
2
UCS
5
7
100
AcDbSymbolTable
70
0
0
ENDTAB
0
TABLE
2
APPID
5
9
100
AcDbSymbolTable
70
2
0
APPID
5
12
100
AcDbSymbolTableRecord
100
AcDbRegAppTableRecord
2
ACAD
70
0
0
ENDTAB
0
TABLE
2
DIMSTYLE
5
A
100
AcDbSymbolTable
70
1
0
ENDTAB
0
TABLE
2
BLOCK_RECORD
5
1
100
AcDbSymbolTable
70
1
0
BLOCK_RECORD
5
1F
100
AcDbSymbolTableRecord
100
AcDbBlockTableRecord
2
*MODEL_SPACE
0
BLOCK_RECORD
5
1B
100
AcDbSymbolTableRecord
100
AcDbBlockTableRecord
2
*PAPER_SPACE
0
ENDTAB
0
ENDSEC
0
SECTION
2
BLOCKS
0
BLOCK
5
20
100
AcDbEntity
100
AcDbBlockBegin
2
*MODEL_SPACE
0
ENDBLK
5
21
100
AcDbEntity
100
AcDbBlockEnd
0
BLOCK
5
1C
100
AcDbEntity
100
AcDbBlockBegin
2
*PAPER_SPACE
0
ENDBLK
5
1D
100
AcDbEntity
100
AcDbBlockEnd
0
ENDSEC
0
SECTION
2
ENTITIES
0
LWPOLYLINE
5
100
100
AcDbEntity
8
OUTER_PROFILES
100
AcDbPolyline
90
22
70
1
43
0.0
10
-15.908790814597406
20
44.029316168944902
42
0.41421356237307849
10
-14.494577252224349
20
44.029316168944909
10
-2.0000000000000284
20
56.523893421169269
10
-1.4210854715202004e-13
20
58.785840131753929
10
0
20
99.309733552923234
10
931.85857864376294
20
99.309733552923234
10
931.85857864376248
20
58.785840131753929
10
933.85857864376271
20
56.523893421169277
10
946.35315589598702
20
44.029316168945023
42
0.41421356237311707
10
947.76736945836024
20
44.029316168945023
10
960.19123603246601
20
56.453182743050832
10
962.19123603246601
20
56.453182743050832
10
962.19123603246601
20
0.070710678118572901
10
947.76736945836024
20
14.494577252224374
42
0.4142135623730826
10
946.35315589598713
20
14.494577252224355
10
931.85857864376294
20
0
10
0
20
0
10
-14.494577252224161
20
14.494577252224282
42
0.41421356237311435
10
-15.908790814597303
20
14.494577252224307
10
-30.332657388703126
20
0.070710678118430792
10
-30.332657388703126
20
56.45318274305076
10
-28.332657388703097
20
56.45318274305076
0
CIRCLE
5
101
100
AcDbEntity
8
INTERIOR_PROFILES
100
AcDbCircle
10
-315.92928932188147
20
51.523893421169298
30
0
40
5
210
0
220
0
230
-1
0
CIRCLE
5
102
100
AcDbEntity
8
INTERIOR_PROFILES
100
AcDbCircle
10
-815.92928932188147
20
78.047786842338539
30
0
40
1.7000000000000171
210
0
220
0
230
-1
0
CIRCLE
5
103
100
AcDbEntity
8
INTERIOR_PROFILES
100
AcDbCircle
10
-215.92928932188144
20
78.04778684233851
30
0
40
1.7000000000000171
210
0
220
0
230
-1
0
CIRCLE
5
104
100
AcDbEntity
8
INTERIOR_PROFILES
100
AcDbCircle
10
-365.92928932188147
20
51.523893421169298
30
0
40
5
210
0
220
0
230
-1
0
CIRCLE
5
105
100
AcDbEntity
8
INTERIOR_PROFILES
100
AcDbCircle
10
-215.92928932188144
20
51.523893421169298
30
0
40
5
210
0
220
0
230
-1
0
CIRCLE
5
106
100
AcDbEntity
8
INTERIOR_PROFILES
100
AcDbCircle
10
-415.92928932188147
20
51.523893421169298
30
0
40
5
210
0
220
0
230
-1
0
CIRCLE
5
107
100
AcDbEntity
8
INTERIOR_PROFILES
100
AcDbCircle
10
-165.92928932188144
20
51.523893421169298
30
0
40
5
210
0
220
0
230
-1
0
CIRCLE
5
108
100
AcDbEntity
8
INTERIOR_PROFILES
100
AcDbCircle
10
-515.92928932188147
20
51.523893421169298
30
0
40
5
210
0
220
0
230
-1
0
CIRCLE
5
109
100
AcDbEntity
8
INTERIOR_PROFILES
100
AcDbCircle
10
-565.92928932188147
20
51.523893421169298
30
0
40
5
210
0
220
0
230
-1
0
CIRCLE
5
110
100
AcDbEntity
8
INTERIOR_PROFILES
100
AcDbCircle
10
-515.92928932188147
20
78.047786842338525
30
0
40
1.7000000000000171
210
0
220
0
230
-1
0
CIRCLE
5
111
100
AcDbEntity
8
INTERIOR_PROFILES
100
AcDbCircle
10
-265.92928932188147
20
51.523893421169298
30
0
40
5
210
0
220
0
230
-1
0
CIRCLE
5
112
100
AcDbEntity
8
INTERIOR_PROFILES
100
AcDbCircle
10
-415.92928932188147
20
78.04778684233851
30
0
40
1.7000000000000171
210
0
220
0
230
-1
0
CIRCLE
5
113
100
AcDbEntity
8
INTERIOR_PROFILES
100
AcDbCircle
10
-615.92928932188147
20
78.047786842338525
30
0
40
1.7000000000000171
210
0
220
0
230
-1
0
CIRCLE
5
114
100
AcDbEntity
8
INTERIOR_PROFILES
100
AcDbCircle
10
-715.92928932188147
20
78.047786842338539
30
0
40
1.7000000000000171
210
0
220
0
230
-1
0
CIRCLE
5
115
100
AcDbEntity
8
INTERIOR_PROFILES
100
AcDbCircle
10
-15.929289321881441
20
78.047786842338496
30
0
40
1.6999999999999993
210
0
220
0
230
-1
0
CIRCLE
5
116
100
AcDbEntity
8
INTERIOR_PROFILES
100
AcDbCircle
10
-955.19123603246862
20
24.261946710584652
30
0
40
1.7000000000000171
210
0
220
0
230
-1
0
CIRCLE
5
117
100
AcDbEntity
8
INTERIOR_PROFILES
100
AcDbCircle
10
-65.929289321881441
20
51.523893421169298
30
0
40
5
210
0
220
0
230
-1
0
CIRCLE
5
118
100
AcDbEntity
8
INTERIOR_PROFILES
100
AcDbCircle
10
-15.929289321881441
20
51.523893421169298
30
0
40
5
210
0
220
0
230
-1
0
CIRCLE
5
119
100
AcDbEntity
8
INTERIOR_PROFILES
100
AcDbCircle
10
-915.92928932188147
20
78.047786842338539
30
0
40
1.7000000000000171
210
0
220
0
230
-1
0
CIRCLE
5
120
100
AcDbEntity
8
INTERIOR_PROFILES
100
AcDbCircle
10
-315.92928932188147
20
78.04778684233851
30
0
40
1.7000000000000171
210
0
220
0
230
-1
0
CIRCLE
5
121
100
AcDbEntity
8
INTERIOR_PROFILES
100
AcDbCircle
10
-115.92928932188144
20
78.047786842338496
30
0
40
1.6999999999999993
210
0
220
0
230
-1
0
CIRCLE
5
122
100
AcDbEntity
8
INTERIOR_PROFILES
100
AcDbCircle
10
-115.92928932188144
20
51.523893421169298
30
0
40
5
210
0
220
0
230
-1
0
CIRCLE
5
123
100
AcDbEntity
8
INTERIOR_PROFILES
100
AcDbCircle
10
-465.92928932188147
20
51.523893421169298
30
0
40
5
210
0
220
0
230
-1
0
CIRCLE
5
124
100
AcDbEntity
8
INTERIOR_PROFILES
100
AcDbCircle
10
-465.92928932188147
20
34.261946710584652
30
0
40
5
210
0
220
0
230
-1
0
CIRCLE
5
125
100
AcDbEntity
8
INTERIOR_PROFILES
100
AcDbCircle
10
-915.92928932188147
20
7.0000000000000062
30
0
40
5
210
0
220
0
230
-1
0
CIRCLE
5
126
100
AcDbEntity
8
INTERIOR_PROFILES
100
AcDbCircle
10
-665.92928932188147
20
51.523893421169298
30
0
40
5
210
0
220
0
230
-1
0
CIRCLE
5
127
100
AcDbEntity
8
INTERIOR_PROFILES
100
AcDbCircle
10
-315.92928932188147
20
7.0000000000000062
30
0
40
5
210
0
220
0
230
-1
0
CIRCLE
5
128
100
AcDbEntity
8
INTERIOR_PROFILES
100
AcDbCircle
10
-15.929289321881441
20
7.0000000000000062
30
0
40
5
210
0
220
0
230
-1
0
CIRCLE
5
129
100
AcDbEntity
8
INTERIOR_PROFILES
100
AcDbCircle
10
-365.92928932188147
20
7.0000000000000062
30
0
40
1.7000000000000171
210
0
220
0
230
-1
0
CIRCLE
5
130
100
AcDbEntity
8
INTERIOR_PROFILES
100
AcDbCircle
10
-165.92928932188144
20
7.0000000000000062
30
0
40
1.7000000000000171
210
0
220
0
230
-1
0
CIRCLE
5
131
100
AcDbEntity
8
INTERIOR_PROFILES
100
AcDbCircle
10
-265.92928932188147
20
7.0000000000000062
30
0
40
1.7000000000000171
210
0
220
0
230
-1
0
CIRCLE
5
132
100
AcDbEntity
8
INTERIOR_PROFILES
100
AcDbCircle
10
-465.92928932188147
20
7.0000000000000062
30
0
40
1.7000000000000171
210
0
220
0
230
-1
0
CIRCLE
5
133
100
AcDbEntity
8
INTERIOR_PROFILES
100
AcDbCircle
10
23.33265738870054
20
24.261946710584652
30
0
40
1.6999999999999993
210
0
220
0
230
-1
0
CIRCLE
5
134
100
AcDbEntity
8
INTERIOR_PROFILES
100
AcDbCircle
10
-215.92928932188144
20
7.0000000000000062
30
0
40
5
210
0
220
0
230
-1
0
CIRCLE
5
135
100
AcDbEntity
8
INTERIOR_PROFILES
100
AcDbCircle
10
-415.92928932188147
20
7.0000000000000062
30
0
40
5
210
0
220
0
230
-1
0
CIRCLE
5
136
100
AcDbEntity
8
INTERIOR_PROFILES
100
AcDbCircle
10
-765.92928932188147
20
51.523893421169298
30
0
40
5
210
0
220
0
230
-1
0
CIRCLE
5
137
100
AcDbEntity
8
INTERIOR_PROFILES
100
AcDbCircle
10
-515.92928932188147
20
7.0000000000000062
30
0
40
5
210
0
220
0
230
-1
0
CIRCLE
5
138
100
AcDbEntity
8
INTERIOR_PROFILES
100
AcDbCircle
10
-665.92928932188147
20
7.0000000000000062
30
0
40
1.7000000000000171
210
0
220
0
230
-1
0
CIRCLE
5
139
100
AcDbEntity
8
INTERIOR_PROFILES
100
AcDbCircle
10
-815.92928932188147
20
7.0000000000000062
30
0
40
5
210
0
220
0
230
-1
0
CIRCLE
5
140
100
AcDbEntity
8
INTERIOR_PROFILES
100
AcDbCircle
10
-715.92928932188147
20
51.523893421169298
30
0
40
5
210
0
220
0
230
-1
0
CIRCLE
5
141
100
AcDbEntity
8
INTERIOR_PROFILES
100
AcDbCircle
10
-915.92928932188147
20
51.523893421169298
30
0
40
5
210
0
220
0
230
-1
0
CIRCLE
5
142
100
AcDbEntity
8
INTERIOR_PROFILES
100
AcDbCircle
10
-115.92928932188144
20
7.0000000000000062
30
0
40
5
210
0
220
0
230
-1
0
CIRCLE
5
143
100
AcDbEntity
8
INTERIOR_PROFILES
100
AcDbCircle
10
-65.929289321881441
20
7.0000000000000062
30
0
40
1.6999999999999993
210
0
220
0
230
-1
0
CIRCLE
5
144
100
AcDbEntity
8
INTERIOR_PROFILES
100
AcDbCircle
10
-865.92928932188147
20
7.0000000000000062
30
0
40
1.7000000000000171
210
0
220
0
230
-1
0
CIRCLE
5
145
100
AcDbEntity
8
INTERIOR_PROFILES
100
AcDbCircle
10
-615.92928932188147
20
51.523893421169298
30
0
40
5
210
0
220
0
230
-1
0
CIRCLE
5
146
100
AcDbEntity
8
INTERIOR_PROFILES
100
AcDbCircle
10
-715.92928932188147
20
7.0000000000000062
30
0
40
5
210
0
220
0
230
-1
0
CIRCLE
5
147
100
AcDbEntity
8
INTERIOR_PROFILES
100
AcDbCircle
10
-815.92928932188147
20
51.523893421169298
30
0
40
5
210
0
220
0
230
-1
0
CIRCLE
5
148
100
AcDbEntity
8
INTERIOR_PROFILES
100
AcDbCircle
10
-765.92928932188147
20
7.0000000000000062
30
0
40
1.7000000000000171
210
0
220
0
230
-1
0
CIRCLE
5
149
100
AcDbEntity
8
INTERIOR_PROFILES
100
AcDbCircle
10
-865.92928932188147
20
51.523893421169298
30
0
40
5
210
0
220
0
230
-1
0
CIRCLE
5
150
100
AcDbEntity
8
INTERIOR_PROFILES
100
AcDbCircle
10
-615.92928932188147
20
7.0000000000000062
30
0
40
5
210
0
220
0
230
-1
0
CIRCLE
5
151
100
AcDbEntity
8
INTERIOR_PROFILES
100
AcDbCircle
10
-565.92928932188147
20
7.0000000000000062
30
0
40
1.7000000000000171
210
0
220
0
230
-1
0
LINE
5
152
100
AcDbEntity
8
BEND
100
AcDbLine
10
947.06026267717357
20
15.130973355292294
30
-3.4897227888446815e-13
11
962.19123603246601
21
15.130973355292294
31
-1.7868475970464581e-13
0
LINE
5
153
100
AcDbEntity
8
BEND
100
AcDbLine
10
-15.201684033410885
20
15.13097335529233
30
-3.4897227888446901e-13
11
947.06026267717357
21
15.130973355292294
31
-3.4897227888446815e-13
0
LINE
5
154
100
AcDbEntity
8
BEND
100
AcDbLine
10
-30.332657388703126
20
15.130973355292173
30
-3.0346044215782939e-13
11
-15.201684033410885
21
15.13097335529233
31
-3.4897227888446901e-13
0
LINE
5
155
100
AcDbEntity
8
BEND
100
AcDbLine
10
-15.201684033410885
20
43.736422950131455
30
-7.0553185934913757e-13
11
-15.201684033410885
21
14.787470471037484
31
-3.2773272567598333e-13
0
LINE
5
156
100
AcDbEntity
8
BEND
100
AcDbLine
10
932.85857864376271
20
57.654866776461603
30
-1.4067794360828844e-12
11
-1.0000000000000853
21
57.654866776461596
31
-1.4189838869883378e-12
0
LINE
5
157
100
AcDbEntity
8
BEND
100
AcDbLine
10
-15.201684033410885
20
43.392920065877107
30
-9.9088261128883553e-13
11
-30.332657388703126
21
43.392920065877107
31
-8.9110156145570084e-13
0
LINE
5
158
100
AcDbEntity
8
BEND
100
AcDbLine
10
947.06026267717357
20
43.392920065876979
30
-7.044805020884365e-13
11
-15.201684033410885
21
43.392920065877107
31
-9.9088261128883553e-13
0
LINE
5
159
100
AcDbEntity
8
BEND
100
AcDbLine
10
962.19123603246601
20
43.392920065876972
30
-9.4480835576689254e-13
11
947.06026267717357
21
43.392920065876979
31
-7.044805020884365e-13
0
LINE
5
160
100
AcDbEntity
8
BEND
100
AcDbLine
10
4.2632564145606011e-13
20
66.916813487046213
30
-1.6348550068209302e-12
11
931.85857864376305
21
66.916813487046227
31
-1.6123729905722708e-12
0
LINE
5
161
100
AcDbEntity
8
BEND
100
AcDbLine
10
4.2632564145606011e-13
20
89.178760197630908
30
-2.077388063014968e-12
11
931.85857864376305
21
89.178760197630908
31
-2.0354771438353683e-12
0
LINE
5
162
100
AcDbEntity
8
BEND
100
AcDbLine
10
947.06026267717357
20
14.787470471037887
30
-5.4768228336166669e-14
11
947.06026267717357
21
43.736422950131775
31
-9.6237276244534736e-13
0
LINE
5
163
100
AcDbEntity
8
BEND_EXTENT
100
AcDbLine
10
4.2632564145606011e-13
20
90.309733552923248
30
-2.0823114641467852e-12
11
931.85857864376305
21
90.309733552923262
31
-2.0423434352602796e-12
0
LINE
5
164
100
AcDbEntity
8
BEND_EXTENT
100
AcDbLine
10
931.85857864376294
20
88.047786842338553
30
-2.0398179138793496e-12
11
0
21
88.047786842338553
31
-2.0531405901748511e-12
0
LINE
5
165
100
AcDbEntity
8
BEND_EXTENT
100
AcDbLine
10
4.2632564145606011e-13
20
68.047786842338539
30
-1.6566144967323376e-12
11
931.85857864376305
21
68.047786842338553
31
-1.6388509283383351e-12
0
LINE
5
166
100
AcDbEntity
8
BEND_EXTENT
100
AcDbLine
10
931.85857864376294
20
65.785840131753929
30
-1.5808142557261489e-12
11
0
21
65.785840131753915
31
-1.58969603992315e-12
0
LINE
5
167
100
AcDbEntity
8
BEND_EXTENT
100
AcDbLine
10
-1.4210854715202004e-13
20
58.785840131753929
30
-1.4418080784163444e-12
11
931.85857864376248
21
58.785840131753929
31
-1.4329262942193431e-12
0
LINE
5
168
100
AcDbEntity
8
BEND_EXTENT
100
AcDbLine
10
15.929289321881441
20
56.523893421169269
30
-1.3682282834594052e-12
11
-2.0000000000000284
21
56.523893421169269
31
-1.3682282834594052e-12
0
LINE
5
169
100
AcDbEntity
8
BEND_EXTENT
100
AcDbLine
10
65.929289321881441
20
56.523893421169269
30
-1.3682282834594052e-12
11
15.929289321881441
21
56.523893421169269
31
-1.3682282834594052e-12
0
LINE
5
170
100
AcDbEntity
8
BEND_EXTENT
100
AcDbLine
10
115.92928932188144
20
56.523893421169269
30
-1.3682282834594052e-12
11
65.929289321881441
21
56.523893421169269
31
-1.3682282834594052e-12
0
LINE
5
171
100
AcDbEntity
8
BEND_EXTENT
100
AcDbLine
10
165.92928932188144
20
56.523893421169269
30
-1.3682282834594052e-12
11
115.92928932188144
21
56.523893421169269
31
-1.3682282834594052e-12
0
LINE
5
172
100
AcDbEntity
8
BEND_EXTENT
100
AcDbLine
10
215.92928932188144
20
56.523893421169269
30
-1.3637873913609046e-12
11
165.92928932188144
21
56.523893421169269
31
-1.3682282834594052e-12
0
LINE
5
173
100
AcDbEntity
8
BEND_EXTENT
100
AcDbLine
10
265.92928932188147
20
56.523893421169269
30
-1.3637873913609046e-12
11
215.92928932188144
21
56.523893421169269
31
-1.3637873913609046e-12
0
LINE
5
174
100
AcDbEntity
8
BEND_EXTENT
100
AcDbLine
10
315.92928932188147
20
56.523893421169269
30
-1.359346499262404e-12
11
265.92928932188147
21
56.523893421169269
31
-1.3637873913609046e-12
0
LINE
5
175
100
AcDbEntity
8
BEND_EXTENT
100
AcDbLine
10
365.92928932188147
20
56.523893421169277
30
-1.3637873913609048e-12
11
315.92928932188147
21
56.523893421169269
31
-1.359346499262404e-12
0
LINE
5
176
100
AcDbEntity
8
BEND_EXTENT
100
AcDbLine
10
415.92928932188147
20
56.523893421169277
30
-1.3637873913609048e-12
11
365.92928932188147
21
56.523893421169277
31
-1.3637873913609048e-12
0
LINE
5
177
100
AcDbEntity
8
BEND_EXTENT
100
AcDbLine
10
465.92928932188147
20
56.523893421169277
30
-1.3637873913609048e-12
11
415.92928932188147
21
56.523893421169277
31
-1.3637873913609048e-12
0
LINE
5
178
100
AcDbEntity
8
BEND_EXTENT
100
AcDbLine
10
515.92928932188147
20
56.523893421169277
30
-1.3637873913609048e-12
11
465.92928932188147
21
56.523893421169277
31
-1.3637873913609048e-12
0
LINE
5
179
100
AcDbEntity
8
BEND_EXTENT
100
AcDbLine
10
565.92928932188147
20
56.523893421169277
30
-1.3637873913609048e-12
11
515.92928932188147
21
56.523893421169277
31
-1.3637873913609048e-12
0
LINE
5
180
100
AcDbEntity
8
BEND_EXTENT
100
AcDbLine
10
615.92928932188147
20
56.523893421169277
30
-1.3637873913609048e-12
11
565.92928932188147
21
56.523893421169277
31
-1.3637873913609048e-12
0
LINE
5
181
100
AcDbEntity
8
BEND_EXTENT
100
AcDbLine
10
665.92928932188147
20
56.523893421169277
30
-1.3593464992624042e-12
11
615.92928932188147
21
56.523893421169277
31
-1.3637873913609048e-12
0
LINE
5
182
100
AcDbEntity
8
BEND_EXTENT
100
AcDbLine
10
715.92928932188147
20
56.523893421169277
30
-1.3593464992624042e-12
11
665.92928932188147
21
56.523893421169277
31
-1.3593464992624042e-12
0
LINE
5
183
100
AcDbEntity
8
BEND_EXTENT
100
AcDbLine
10
765.92928932188147
20
56.523893421169277
30
-1.3549056071639035e-12
11
715.92928932188147
21
56.523893421169277
31
-1.3593464992624042e-12
0
LINE
5
184
100
AcDbEntity
8
BEND_EXTENT
100
AcDbLine
10
815.92928932188147
20
56.523893421169277
30
-1.3549056071639035e-12
11
765.92928932188147
21
56.523893421169277
31
-1.3549056071639035e-12
0
LINE
5
185
100
AcDbEntity
8
BEND_EXTENT
100
AcDbLine
10
865.92928932188147
20
56.523893421169277
30
-1.3549056071639035e-12
11
815.92928932188147
21
56.523893421169277
31
-1.3549056071639035e-12
0
LINE
5
186
100
AcDbEntity
8
BEND_EXTENT
100
AcDbLine
10
915.92928932188147
20
56.523893421169277
30
-1.3549056071639035e-12
11
865.92928932188147
21
56.523893421169277
31
-1.3549056071639035e-12
0
LINE
5
187
100
AcDbEntity
8
BEND_EXTENT
100
AcDbLine
10
933.85857864376271
20
56.523893421169277
30
-1.3549056071639035e-12
11
915.92928932188147
21
56.523893421169277
31
-1.3549056071639035e-12
0
LINE
5
188
100
AcDbEntity
8
BEND_EXTENT
100
AcDbLine
10
-30.332657388703126
20
44.523893421169518
30
-8.9139263249456917e-13
11
-16.403368066821855
21
44.523893421169305
31
-7.6704765373654669e-13
0
LINE
5
189
100
AcDbEntity
8
BEND_EXTENT
100
AcDbLine
10
-16.332657388703069
20
42.261946710584645
30
-9.5103960049264374e-13
11
-30.332657388703126
21
42.261946710584652
31
-1.2352566947966842e-12
0
LINE
5
190
100
AcDbEntity
8
BEND_EXTENT
100
AcDbLine
10
-16.332657388703069
20
16.261946710584656
30
-3.6050460255271629e-13
11
-16.332657388703069
21
42.261946710584645
31
-9.5103960049264374e-13
0
LINE
5
191
100
AcDbEntity
8
BEND_EXTENT
100
AcDbLine
10
-30.332657388703126
20
16.261946710584656
30
-6.4472169685675636e-13
11
-16.332657388703069
21
16.261946710584656
31
-3.6050460255271629e-13
0
LINE
5
192
100
AcDbEntity
8
BEND_EXTENT
100
AcDbLine
10
962.19123603246601
20
13.999999999999844
30
-1.2850554279571136e-13
11
948.26194671058477
21
14.000000000000057
31
-7.534566499670826e-14
0
LINE
5
193
100
AcDbEntity
8
BEND_EXTENT
100
AcDbLine
10
948.19123603246589
20
16.261946710584656
30
-3.6050460255271629e-13
11
962.19123603246601
21
16.261946710584656
31
-6.4472169685675636e-13
0
LINE
5
194
100
AcDbEntity
8
BEND_EXTENT
100
AcDbLine
10
948.19123603246589
20
42.26194671058466
30
-9.5103960049264434e-13
11
948.19123603246589
21
16.261946710584656
31
-3.6050460255271629e-13
0
LINE
5
195
100
AcDbEntity
8
BEND_EXTENT
100
AcDbLine
10
962.19123603246601
20
42.261946710584652
30
-1.2352566947966842e-12
11
948.19123603246589
21
42.26194671058466
31
-9.5103960049264434e-13
0
LINE
5
196
100
AcDbEntity
8
BEND_EXTENT
100
AcDbLine
10
-16.403368066821855
20
13.999999999999844
30
-2.5330516398650076e-13
11
-30.332657388703126
21
13.999999999999844
31
-3.0646504178551786e-13
0
LINE
5
197
100
AcDbEntity
8
BEND_EXTENT
100
AcDbLine
10
945.85857864376283
20
14.000000000000004
30
-3.09721626235064e-13
11
-14.000000000000483
21
14.000000000000004
31
-3.09721626235064e-13
0
LWPOLYLINE
5
198
100
AcDbEntity
8
BEND_EXTENT
100
AcDbPolyline
90
4
70
1
43
0.0
10
-14.070710678118559
20
16.261946710584656
10
945.92928932188147
20
16.261946710584656
10
945.92928932188147
20
42.261946710584652
10
-14.070710678118559
20
42.261946710584652
0
LINE
5
199
100
AcDbEntity
8
BEND_EXTENT
100
AcDbLine
10
-13.999999999999915
20
44.523893421169305
30
-1.0246193954495831e-12
11
945.85857864376339
21
44.523893421169312
31
-1.0068558270555808e-12
0
LINE
5
200
100
AcDbEntity
8
BEND_EXTENT
100
AcDbLine
10
948.26194671058477
20
44.523893421169447
30
-9.4468333767657507e-13
11
962.19123603246601
21
44.523893421169447
31
-9.9797404285858258e-13
0
ENDSEC
0
SECTION
2
OBJECTS
0
DICTIONARY
5
C
100
AcDbDictionary
3
ACAD_GROUP
350
D
3
ACAD_MLINESTYLE
350
17
0
DICTIONARY
5
D
100
AcDbDictionary
0
DICTIONARY
5
1A
330
C
100
AcDbDictionary
0
DICTIONARY
5
17
100
AcDbDictionary
0
ENDSEC
0
EOF
