0
SECTION
2
HEADER
9
$INSUNITS
70
4
9
$ACADVER
1
AC1014
9
$HANDSEED
5
FFFF
0
ENDSEC
0
SECTION
2
TABLES
0
TABLE
2
VPORT
5
8
100
AcDbSymbolTable
0
ENDTAB
0
TABLE
2
LTYPE
5
5
100
AcDbSymbolTable
0
LTYPE
5
14
100
AcDbSymbolTableRecord
100
AcDbLinetypeTableRecord
2
BYBLOCK
70
0
0
LTYPE
5
15
100
AcDbSymbolTableRecord
100
AcDbLinetypeTableRecord
2
BYLAYER
70
0
0
LTYPE
5
16
100
AcDbSymbolTableRecord
100
AcDbLinetypeTableRecord
2
DASHED
70
0
3
Dashed __ __ __ __ __ __ __ __ __ __ __ __ __ _
72
65
73
2
40
0.75
49
0.5
74
0
49
-0.25
74
0
0
ENDTAB
0
TABLE
2
LAYER
5
2
100
AcDbSymbolTable
70
2
0
LAYER
5
50
100
AcDbSymbolTableRecord
100
AcDbLayerTableRecord
2
0
70
0
62
7
6
CONTINUOUS
0
ENDTAB
0
TABLE
2
STYLE
5
3
100
AcDbSymbolTable
70
1
0
STYLE
5
11
100
AcDbSymbolTableRecord
100
AcDbTextStyleTableRecord
2
STANDARD
70
0
0
ENDTAB
0
TABLE
2
VIEW
5
6
100
AcDbSymbolTable
70
0
0
ENDTAB
0
TABLE
2
UCS
5
7
100
AcDbSymbolTable
70
0
0
ENDTAB
0
TABLE
2
APPID
5
9
100
AcDbSymbolTable
70
2
0
APPID
5
12
100
AcDbSymbolTableRecord
100
AcDbRegAppTableRecord
2
ACAD
70
0
0
ENDTAB
0
TABLE
2
DIMSTYLE
5
A
100
AcDbSymbolTable
70
1
0
ENDTAB
0
TABLE
2
BLOCK_RECORD
5
1
100
AcDbSymbolTable
70
1
0
BLOCK_RECORD
5
1F
100
AcDbSymbolTableRecord
100
AcDbBlockTableRecord
2
*MODEL_SPACE
0
BLOCK_RECORD
5
1B
100
AcDbSymbolTableRecord
100
AcDbBlockTableRecord
2
*PAPER_SPACE
0
ENDTAB
0
ENDSEC
0
SECTION
2
BLOCKS
0
BLOCK
5
20
100
AcDbEntity
100
AcDbBlockBegin
2
*MODEL_SPACE
0
ENDBLK
5
21
100
AcDbEntity
100
AcDbBlockEnd
0
BLOCK
5
1C
100
AcDbEntity
100
AcDbBlockBegin
2
*PAPER_SPACE
0
ENDBLK
5
1D
100
AcDbEntity
100
AcDbBlockEnd
0
ENDSEC
0
SECTION
2
ENTITIES
0
LWPOLYLINE
5
100
100
AcDbEntity
8
OUTER_PROFILES
100
AcDbPolyline
90
40
70
1
43
0.0
10
911.42389342116974
20
-3.5527136788005009e-14
10
911.42389342116974
20
26.979289321880842
10
901.97931616894505
20
36.423866574105702
42
-0.41421356237308127
10
901.97931616894505
20
37.838080136478773
10
911.40318274305105
20
47.261946710584979
10
901.97931616894516
20
56.685813284690369
42
-0.41421356237308404
10
901.97931616894516
20
58.100026847063461
10
911.42389342116974
20
67.544604099287611
10
911.42389342122533
20
94.623893421168574
10
922.47389342112365
20
94.623893421168574
10
922.47389342112365
20
664.42389342116996
10
911.42389342122533
20
664.42389342116996
10
911.42389342116974
20
691.50318274305107
10
901.97931616894539
20
700.94775999527496
42
-0.41421356237309503
10
901.97931616894539
20
702.36197355764818
10
911.40318274305116
20
711.78584013175373
10
901.97931616894505
20
721.20970670585973
42
-0.41421356237309503
10
901.97931616894505
20
722.62392026823295
10
911.42389342116974
20
732.06849752045764
10
911.42389342116974
20
759.04778684233861
10
0
20
759.04778684233861
10
0
20
732.06849752045764
10
9.444577252224919
20
722.62392026823272
42
-0.41421356237309415
10
9.4445772522248301
20
721.20970670585973
10
0.020710678118973647
20
711.78584013175339
10
9.4445772522244393
20
702.36197355764841
42
-0.41421356237311618
10
9.4445772522244393
20
700.94775999527531
10
1.4321877017664519e-13
20
691.50318274305107
10
-1.0132339411939029e-10
20
664.42389342116996
10
-54.311946710585772
20
664.42389342116996
10
-54.311946710585772
20
94.623893421168574
10
-1.0132339411939029e-10
20
94.623893421168574
10
1.4210854715202004e-13
20
67.544604099287611
10
9.4445772522247111
20
58.100026847063468
42
-0.41421356237310653
10
9.4445772522247378
20
56.685813284690347
10
0.020710678118973647
20
47.261946710584908
10
9.4445772522247182
20
37.838080136478773
42
-0.41421356237309137
10
9.4445772522247733
20
36.423866574105681
10
0
20
26.979289321880877
10
0
20
0
0
CIRCLE
5
101
100
AcDbEntity
8
INTERIOR_PROFILES
100
AcDbCircle
10
-26.211946710584897
20
752.04778684233929
30
0
40
1.7000000000000171
210
0
220
0
230
-1
0
CIRCLE
5
102
100
AcDbEntity
8
INTERIOR_PROFILES
100
AcDbCircle
10
51.311946710584664
20
468.5238934211693
30
0
40
1.7000000000000171
210
0
220
0
230
-1
0
CIRCLE
5
103
100
AcDbEntity
8
INTERIOR_PROFILES
100
AcDbCircle
10
51.311946710584664
20
290.5238934211693
30
0
40
1.7000000000000171
210
0
220
0
230
-1
0
CIRCLE
5
104
100
AcDbEntity
8
INTERIOR_PROFILES
100
AcDbCircle
10
-825.21194671058493
20
3.9999999999993463
30
0
40
1.7000000000000004
210
0
220
0
230
-1
0
CIRCLE
5
105
100
AcDbEntity
8
INTERIOR_PROFILES
100
AcDbCircle
10
-51.211946710584897
20
752.04778684233929
30
0
40
1.7000000000000171
210
0
220
0
230
-1
0
CIRCLE
5
106
100
AcDbEntity
8
INTERIOR_PROFILES
100
AcDbCircle
10
51.311946710584664
20
646.5238934211693
30
0
40
1.7000000000000171
210
0
220
0
230
-1
0
CIRCLE
5
107
100
AcDbEntity
8
INTERIOR_PROFILES
100
AcDbCircle
10
-739.21194671058504
20
755.04778684233941
30
0
40
1.264500000000055
210
0
220
0
230
-1
0
CIRCLE
5
108
100
AcDbEntity
8
INTERIOR_PROFILES
100
AcDbCircle
10
-539.21194671058504
20
3.9999999999993463
30
0
40
1.2644999999999995
210
0
220
0
230
-1
0
CIRCLE
5
109
100
AcDbEntity
8
INTERIOR_PROFILES
100
AcDbCircle
10
-825.21194671058493
20
755.04778684233941
30
0
40
1.7000000000000171
210
0
220
0
230
-1
0
CIRCLE
5
110
100
AcDbEntity
8
INTERIOR_PROFILES
100
AcDbCircle
10
51.311946710584664
20
112.52389342116928
30
0
40
1.6999999999999993
210
0
220
0
230
-1
0
CIRCLE
5
111
100
AcDbEntity
8
INTERIOR_PROFILES
100
AcDbCircle
10
-51.211946710584897
20
6.9999999999993179
30
0
40
1.7000000000000004
210
0
220
0
230
-1
0
CIRCLE
5
112
100
AcDbEntity
8
INTERIOR_PROFILES
100
AcDbCircle
10
-339.21194671058504
20
3.9999999999993463
30
0
40
1.2644999999999995
210
0
220
0
230
-1
0
CIRCLE
5
113
100
AcDbEntity
8
INTERIOR_PROFILES
100
AcDbCircle
10
-539.21194671058504
20
755.04778684233941
30
0
40
1.264500000000055
210
0
220
0
230
-1
0
CIRCLE
5
114
100
AcDbEntity
8
INTERIOR_PROFILES
100
AcDbCircle
10
-20.211946710584812
20
47.261946710584617
30
0
40
8.75
210
0
220
0
230
-1
0
CIRCLE
5
115
100
AcDbEntity
8
INTERIOR_PROFILES
100
AcDbCircle
10
-439.21194671058504
20
3.9999999999993463
30
0
40
1.2644999999999995
210
0
220
0
230
-1
0
CIRCLE
5
116
100
AcDbEntity
8
INTERIOR_PROFILES
100
AcDbCircle
10
-139.21194671058501
20
755.04778684233941
30
0
40
1.264500000000055
210
0
220
0
230
-1
0
CIRCLE
5
117
100
AcDbEntity
8
INTERIOR_PROFILES
100
AcDbCircle
10
-26.211946710584897
20
6.9999999999993179
30
0
40
1.7000000000000004
210
0
220
0
230
-1
0
CIRCLE
5
118
100
AcDbEntity
8
INTERIOR_PROFILES
100
AcDbCircle
10
-739.21194671058504
20
3.9999999999993463
30
0
40
1.2644999999999995
210
0
220
0
230
-1
0
CIRCLE
5
119
100
AcDbEntity
8
INTERIOR_PROFILES
100
AcDbCircle
10
-439.21194671058504
20
755.04778684233941
30
0
40
1.264500000000055
210
0
220
0
230
-1
0
CIRCLE
5
120
100
AcDbEntity
8
INTERIOR_PROFILES
100
AcDbCircle
10
-339.21194671058504
20
755.04778684233941
30
0
40
1.264500000000055
210
0
220
0
230
-1
0
CIRCLE
5
121
100
AcDbEntity
8
INTERIOR_PROFILES
100
AcDbCircle
10
-139.21194671058501
20
3.9999999999993463
30
0
40
1.2644999999999995
210
0
220
0
230
-1
0
CIRCLE
5
122
100
AcDbEntity
8
INTERIOR_PROFILES
100
AcDbCircle
10
-20.211946710584812
20
711.78584013175396
30
0
40
8.75
210
0
220
0
230
-1
0
LINE
5
123
100
AcDbEntity
8
BEND
100
AcDbLine
10
-10.180973355292053
20
664.42389342116996
30
3.4630814564837023e-11
11
-10.180973355292053
21
94.623893421168574
31
3.2094791392037752e-12
0
LINE
5
124
100
AcDbEntity
8
BEND
100
AcDbLine
10
10.080973355292429
20
37.130973355292404
30
1.9466243375135626e-12
11
10.080973355292429
21
0
31
4.0217829067046296e-13
0
LINE
5
125
100
AcDbEntity
8
BEND
100
AcDbLine
10
10.080973355292429
20
57.392920065877036
30
2.8938334795955348e-12
11
10.080973355292429
21
37.130973355292404
31
1.9466243375135626e-12
0
LINE
5
126
100
AcDbEntity
8
BEND
100
AcDbLine
10
10.080973355292429
20
701.65486677646163
30
3.8447497878612296e-11
11
10.080973355292429
21
57.392920065877036
31
2.8938334795955348e-12
0
LINE
5
127
100
AcDbEntity
8
BEND
100
AcDbLine
10
10.080973355292429
20
721.91681348704628
30
3.9961468651480217e-11
11
10.080973355292429
21
701.65486677646163
31
3.8447497878612296e-11
0
LINE
5
128
100
AcDbEntity
8
BEND
100
AcDbLine
10
10.080973355292429
20
759.04778684233861
30
4.2353423985326256e-11
11
10.080973355292429
21
721.91681348704628
31
3.9961468651480217e-11
0
LINE
5
129
100
AcDbEntity
8
BEND
100
AcDbLine
10
901.34292006587725
20
57.392920065877036
30
2.8938334795955348e-12
11
901.34292006587725
21
701.65486677646163
31
3.8568914084225199e-11
0
LINE
5
130
100
AcDbEntity
8
BEND
100
AcDbLine
10
901.34292006587725
20
701.65486677646163
30
3.8568914084225199e-11
11
901.34292006587759
21
721.91681348704628
31
3.9865657377321067e-11
0
LINE
5
131
100
AcDbEntity
8
BEND
100
AcDbLine
10
901.34292006587759
20
721.91681348704628
30
3.9865657377321067e-11
11
901.34292006587748
21
759.04778684233861
31
4.2344661513085608e-11
0
LINE
5
132
100
AcDbEntity
8
BEND
100
AcDbLine
10
901.34292006587725
20
37.130973355292404
30
1.9466243375135626e-12
11
901.34292006587725
21
57.392920065877036
31
2.8938334795955348e-12
0
LINE
5
133
100
AcDbEntity
8
BEND
100
AcDbLine
10
901.34292006587748
20
0
30
3.2251978865360797e-13
11
901.34292006587725
21
37.130973355292404
31
1.9466243375135626e-12
0
LINE
5
134
100
AcDbEntity
8
BEND
100
AcDbLine
10
901.68642295013206
20
701.65486677646163
30
3.8447497878612296e-11
11
9.7374704710379945
21
701.65486677646163
31
3.857160256431476e-11
0
LINE
5
135
100
AcDbEntity
8
BEND
100
AcDbLine
10
9.7374704710379945
20
57.392920065877036
30
2.7755014919126205e-12
11
901.68642295013183
21
57.392920065877036
31
2.836138415321076e-12
0
LINE
5
136
100
AcDbEntity
8
BEND
100
AcDbLine
10
9.7374704710381366
20
37.130973355292404
30
2.0663326171607177e-12
11
901.6864229501316
21
37.130973355292404
31
1.8466430173689955e-12
0
LINE
5
137
100
AcDbEntity
8
BEND
100
AcDbLine
10
901.68642295013171
20
721.91681348704628
30
3.9961468651480217e-11
11
9.7374704710381366
21
721.91681348704628
31
3.9811131067104901e-11
0
LINE
5
138
100
AcDbEntity
8
BEND_EXTENT
100
AcDbLine
10
-11.311946710584664
20
94.623893421168574
30
2.9970117769396454e-12
11
-11.311946710584664
21
664.42389342116996
31
3.4406760408851516e-11
0
LINE
5
139
100
AcDbEntity
8
BEND_EXTENT
100
AcDbLine
10
-9.049999999999585
20
664.42389342116996
30
3.4375674164162011e-11
11
-9.049999999999585
21
94.623893421168574
31
2.8238169850981194e-12
0
LINE
5
140
100
AcDbEntity
8
BEND_EXTENT
100
AcDbLine
10
8.9500000000002444
20
58.594604099287722
30
2.9603750081959829e-12
11
8.9500000000002444
21
700.45318274305089
31
3.8502372555624742e-11
0
LINE
5
141
100
AcDbEntity
8
BEND_EXTENT
100
AcDbLine
10
902.47389342116981
20
720.71512945363543
30
3.9691415491033169e-11
11
902.47389342116981
21
702.85655080987249
31
3.8516145751997279e-11
0
LWPOLYLINE
5
142
100
AcDbEntity
8
BEND_EXTENT
100
AcDbPolyline
90
4
70
1
43
0.0
10
900.21194671058515
20
702.78584013175396
10
900.21194671058515
20
720.78584013175373
10
11.211946710584755
20
720.78584013175396
10
11.211946710584755
20
702.78584013175396
0
LINE
5
143
100
AcDbEntity
8
BEND_EXTENT
100
AcDbLine
10
902.47389342116958
20
700.45318274305089
30
3.8445194483851168e-11
11
902.47389342116958
21
58.594604099287722
31
2.9031969364224109e-12
0
LWPOLYLINE
5
144
100
AcDbEntity
8
BEND_EXTENT
100
AcDbPolyline
90
4
70
1
43
0.0
10
900.21194671058515
20
58.523893421169291
10
900.21194671058515
20
700.5238934211693
10
11.211946710584755
20
700.5238934211693
10
11.211946710584755
20
58.523893421169362
0
LINE
5
145
100
AcDbEntity
8
BEND_EXTENT
100
AcDbLine
10
902.47389342116958
20
35.929289321881086
30
1.9758289600450651e-12
11
902.47389342116958
21
-3.5527136788005009e-14
31
3.2245854633749233e-13
0
LINE
5
146
100
AcDbEntity
8
BEND_EXTENT
100
AcDbLine
10
900.21194671058515
20
3.5527136788005009e-14
30
3.1086244689504585e-13
11
900.21194671058515
21
36.000000000000014
31
2.0378572510065887e-12
0
LINE
5
147
100
AcDbEntity
8
BEND_EXTENT
100
AcDbLine
10
900.21194671058515
20
36.000000000000014
30
2.0378572510065887e-12
11
11.211946710584755
21
36.000000000000014
31
2.0378572510065887e-12
0
LINE
5
148
100
AcDbEntity
8
BEND_EXTENT
100
AcDbLine
10
11.211946710584755
20
36.000000000000014
30
2.0378572510065887e-12
11
11.211946710584755
21
3.5527136788005009e-14
31
3.1086244689504585e-13
0
LINE
5
149
100
AcDbEntity
8
BEND_EXTENT
100
AcDbLine
10
8.9500000000003865
20
38.332657388703247
30
1.8383987906070689e-12
11
8.9500000000003865
21
56.191236032466001
31
2.685183403843048e-12
0
LWPOLYLINE
5
150
100
AcDbEntity
8
BEND_EXTENT
100
AcDbPolyline
90
4
70
1
43
0.0
10
11.211946710584755
20
56.261946710584724
10
11.211946710584755
20
38.261946710584709
10
900.21194671058515
20
38.261946710584944
10
900.21194671058515
20
56.261946710584702
0
LINE
5
151
100
AcDbEntity
8
BEND_EXTENT
100
AcDbLine
10
8.9500000000002444
20
702.85655080987249
30
3.8635455612825664e-11
11
8.9500000000003865
21
720.71512945363509
31
3.9766457320365667e-11
0
LINE
5
152
100
AcDbEntity
8
BEND_EXTENT
100
AcDbLine
10
8.9500000000001023
20
723.11849752045737
30
4.0041648924718635e-11
11
8.9500000000001023
21
759.04778684233861
31
4.2315398846732844e-11
0
LINE
5
153
100
AcDbEntity
8
BEND_EXTENT
100
AcDbLine
10
11.211946710584755
20
759.04778684233861
30
4.2342044199323848e-11
11
11.211946710584755
21
723.04778684233861
31
4.0082142343392239e-11
0
LINE
5
154
100
AcDbEntity
8
BEND_EXTENT
100
AcDbLine
10
11.211946710584755
20
723.04778684233861
30
4.0082142343392239e-11
11
900.21194671058515
21
723.04778684233861
31
4.0082142343392239e-11
0
LINE
5
155
100
AcDbEntity
8
BEND_EXTENT
100
AcDbLine
10
900.21194671058515
20
723.04778684233861
30
4.0082142343392239e-11
11
900.21194671058515
21
759.04778684233861
31
4.2342044199323848e-11
0
LINE
5
156
100
AcDbEntity
8
BEND_EXTENT
100
AcDbLine
10
8.9500000000001023
20
0
30
4.2632564145606011e-13
11
8.9500000000001023
21
35.929289321881157
31
1.9895328277101732e-12
0
LINE
5
157
100
AcDbEntity
8
BEND_EXTENT
100
AcDbLine
10
902.47389342116981
20
56.19123603246593
30
2.7079820901666735e-12
11
902.47389342116946
21
38.332657388703318
31
1.905465508426582e-12
0
LINE
5
158
100
AcDbEntity
8
BEND_EXTENT
100
AcDbLine
10
902.47389342116958
20
759.04778684233861
30
4.2341161854562447e-11
11
902.47389342116958
21
723.11849752045759
31
4.0024348397046678e-11
0
ENDSEC
0
SECTION
2
OBJECTS
0
DICTIONARY
5
C
100
AcDbDictionary
3
ACAD_GROUP
350
D
3
ACAD_MLINESTYLE
350
17
0
DICTIONARY
5
D
100
AcDbDictionary
0
DICTIONARY
5
1A
330
C
100
AcDbDictionary
0
DICTIONARY
5
17
100
AcDbDictionary
0
ENDSEC
0
EOF
