0
SECTION
2
HEADER
9
$INSUNITS
70
4
9
$ACADVER
1
AC1014
9
$HANDSEED
5
FFFF
0
ENDSEC
0
SECTION
2
TABLES
0
TABLE
2
VPORT
5
8
100
AcDbSymbolTable
0
ENDTAB
0
TABLE
2
LTYPE
5
5
100
AcDbSymbolTable
0
LTYPE
5
14
100
AcDbSymbolTableRecord
100
AcDbLinetypeTableRecord
2
BYBLOCK
70
0
0
LTYPE
5
15
100
AcDbSymbolTableRecord
100
AcDbLinetypeTableRecord
2
BYLAYER
70
0
0
LTYPE
5
16
100
AcDbSymbolTableRecord
100
AcDbLinetypeTableRecord
2
DASHED
70
0
3
Dashed __ __ __ __ __ __ __ __ __ __ __ __ __ _
72
65
73
2
40
0.75
49
0.5
74
0
49
-0.25
74
0
0
ENDTAB
0
TABLE
2
LAYER
5
2
100
AcDbSymbolTable
70
2
0
LAYER
5
50
100
AcDbSymbolTableRecord
100
AcDbLayerTableRecord
2
0
70
0
62
7
6
CONTINUOUS
0
ENDTAB
0
TABLE
2
STYLE
5
3
100
AcDbSymbolTable
70
1
0
STYLE
5
11
100
AcDbSymbolTableRecord
100
AcDbTextStyleTableRecord
2
STANDARD
70
0
0
ENDTAB
0
TABLE
2
VIEW
5
6
100
AcDbSymbolTable
70
0
0
ENDTAB
0
TABLE
2
UCS
5
7
100
AcDbSymbolTable
70
0
0
ENDTAB
0
TABLE
2
APPID
5
9
100
AcDbSymbolTable
70
2
0
APPID
5
12
100
AcDbSymbolTableRecord
100
AcDbRegAppTableRecord
2
ACAD
70
0
0
ENDTAB
0
TABLE
2
DIMSTYLE
5
A
100
AcDbSymbolTable
70
1
0
ENDTAB
0
TABLE
2
BLOCK_RECORD
5
1
100
AcDbSymbolTable
70
1
0
BLOCK_RECORD
5
1F
100
AcDbSymbolTableRecord
100
AcDbBlockTableRecord
2
*MODEL_SPACE
0
BLOCK_RECORD
5
1B
100
AcDbSymbolTableRecord
100
AcDbBlockTableRecord
2
*PAPER_SPACE
0
ENDTAB
0
ENDSEC
0
SECTION
2
BLOCKS
0
BLOCK
5
20
100
AcDbEntity
100
AcDbBlockBegin
2
*MODEL_SPACE
0
ENDBLK
5
21
100
AcDbEntity
100
AcDbBlockEnd
0
BLOCK
5
1C
100
AcDbEntity
100
AcDbBlockBegin
2
*PAPER_SPACE
0
ENDBLK
5
1D
100
AcDbEntity
100
AcDbBlockEnd
0
ENDSEC
0
SECTION
2
ENTITIES
0
LWPOLYLINE
5
100
100
AcDbEntity
8
OUTER_PROFILES
100
AcDbPolyline
90
36
70
1
43
0.0
10
0
20
42.523893421169277
10
0
20
44.785840131754
10
0
20
51.785840131753957
10
0
20
54.04778684233861
10
-18.261946710584681
20
54.047786842338681
10
-18.261946710584727
20
383.71445350900552
10
-2.2619467105847901
20
425.04778684233861
10
1.4210854715202004e-13
20
425.04778684233861
10
1.4210854715202004e-13
20
427.30973355291735
10
1.4210854715202004e-13
20
449.30973355291741
10
1.4210854715202004e-13
20
457.57168026350769
10
1.4210854715202004e-13
20
467.83362697410837
10
1.4137747003500661e-13
20
470.09557368467193
42
0.41421356237342483
10
6.5000000000071623
20
476.59557368467205
10
6.5000000000070202
20
483.09557368467205
10
689.5
20
483.09557368467887
10
689.49999999999989
20
476.59557368467887
42
0.41421356237309503
10
696
20
470.09557368467887
10
696
20
467.83362697410837
10
696
20
457.57168026350769
10
696
20
449.30973355291741
10
696
20
427.30973355291735
10
696
20
425.04778684233861
10
698.26194671058465
20
425.04778684233861
10
714.26194671058454
20
383.71445350900552
10
714.26194671058454
20
54.047786842338681
10
696
20
54.04778684233861
10
696
20
51.785840131753957
10
696
20
44.785840131754
10
696
20
42.523893421169333
42
0.99999999999999989
10
696
20
23.523893421169308
10
696
20
10.261946710584695
10
696
20
0
10
0
20
0
10
0
20
10.261946710584695
10
-5.6843418860808015e-13
20
23.523893421183146
42
0.99999999999999989
0
CIRCLE
5
101
100
AcDbEntity
8
INTERIOR_PROFILES
100
AcDbCircle
10
-459.00000000000063
20
61.047786842338638
30
0
40
1.7000000000000171
210
0
220
0
230
-1
0
CIRCLE
5
102
100
AcDbEntity
8
INTERIOR_PROFILES
100
AcDbCircle
10
-58.000000000000043
20
442.30973355291746
30
0
40
1.7000000000000171
210
0
220
0
230
-1
0
CIRCLE
5
103
100
AcDbEntity
8
INTERIOR_PROFILES
100
AcDbCircle
10
-688.99999999999966
20
414.54778684233747
30
0
40
1.7000000000000171
210
0
220
0
230
-1
0
CIRCLE
5
104
100
AcDbEntity
8
INTERIOR_PROFILES
100
AcDbCircle
10
-663.99999999999989
20
442.30973355291746
30
0
40
1.7000000000000171
210
0
220
0
230
-1
0
CIRCLE
5
105
100
AcDbEntity
8
INTERIOR_PROFILES
100
AcDbCircle
10
-592
20
442.30973355291746
30
0
40
1.7000000000000171
210
0
220
0
230
-1
0
CIRCLE
5
106
100
AcDbEntity
8
INTERIOR_PROFILES
100
AcDbCircle
10
-688.99999999999989
20
442.30973355291746
30
0
40
1.7000000000000171
210
0
220
0
230
-1
0
CIRCLE
5
107
100
AcDbEntity
8
INTERIOR_PROFILES
100
AcDbCircle
10
-32.000000000000028
20
442.30973355291746
30
0
40
1.7000000000000171
210
0
220
0
230
-1
0
CIRCLE
5
108
100
AcDbEntity
8
INTERIOR_PROFILES
100
AcDbCircle
10
-103.99999999999991
20
442.30973355291746
30
0
40
1.7000000000000171
210
0
220
0
230
-1
0
CIRCLE
5
109
100
AcDbEntity
8
INTERIOR_PROFILES
100
AcDbCircle
10
-7.0000000000000284
20
228.04778684233864
30
0
40
1.7000000000000004
210
0
220
0
230
-1
0
CIRCLE
5
110
100
AcDbEntity
8
INTERIOR_PROFILES
100
AcDbCircle
10
-78.999999999999915
20
442.30973355291746
30
0
40
1.7000000000000171
210
0
220
0
230
-1
0
CIRCLE
5
111
100
AcDbEntity
8
INTERIOR_PROFILES
100
AcDbCircle
10
-638
20
442.30973355291746
30
0
40
1.7000000000000171
210
0
220
0
230
-1
0
CIRCLE
5
112
100
AcDbEntity
8
INTERIOR_PROFILES
100
AcDbCircle
10
-578.00000000000057
20
56.047786842338638
30
0
40
1.7000000000000171
210
0
220
0
230
-1
0
CIRCLE
5
113
100
AcDbEntity
8
INTERIOR_PROFILES
100
AcDbCircle
10
-7.0000000000000284
20
414.54778684233867
30
0
40
1.7000000000000004
210
0
220
0
230
-1
0
CIRCLE
5
114
100
AcDbEntity
8
INTERIOR_PROFILES
100
AcDbCircle
10
-459.00000000000063
20
79.04778684233861
30
0
40
1.7000000000000171
210
0
220
0
230
-1
0
CIRCLE
5
115
100
AcDbEntity
8
INTERIOR_PROFILES
100
AcDbCircle
10
-678.00000000000057
20
56.047786842338638
30
0
40
1.7000000000000171
210
0
220
0
230
-1
0
CIRCLE
5
116
100
AcDbEntity
8
INTERIOR_PROFILES
100
AcDbCircle
10
-441.00000000000057
20
61.047786842338638
30
0
40
1.7000000000000171
210
0
220
0
230
-1
0
CIRCLE
5
117
100
AcDbEntity
8
INTERIOR_PROFILES
100
AcDbCircle
10
-441.00000000000057
20
79.04778684233861
30
0
40
1.7000000000000171
210
0
220
0
230
-1
0
CIRCLE
5
118
100
AcDbEntity
8
INTERIOR_PROFILES
100
AcDbCircle
10
-688.99999999999966
20
395.04778684233742
30
0
40
1.7000000000000171
210
0
220
0
230
-1
0
CIRCLE
5
119
100
AcDbEntity
8
INTERIOR_PROFILES
100
AcDbCircle
10
-688.99999999999886
20
61.04778684233743
30
0
40
1.7000000000000171
210
0
220
0
230
-1
0
CIRCLE
5
120
100
AcDbEntity
8
INTERIOR_PROFILES
100
AcDbCircle
10
-7.0000000000000284
20
442.30973355291746
30
0
40
1.7000000000000171
210
0
220
0
230
-1
0
CIRCLE
5
121
100
AcDbEntity
8
INTERIOR_PROFILES
100
AcDbCircle
10
-617
20
442.30973355291746
30
0
40
1.7000000000000171
210
0
220
0
230
-1
0
CIRCLE
5
122
100
AcDbEntity
8
INTERIOR_PROFILES
100
AcDbCircle
10
-548.00000000000364
20
418.04778684233867
30
0
40
1.7000000000000171
210
0
220
0
230
-1
0
CIRCLE
5
123
100
AcDbEntity
8
INTERIOR_PROFILES
100
AcDbCircle
10
-148.00000000000358
20
418.04778684233867
30
0
40
1.6999999999999993
210
0
220
0
230
-1
0
CIRCLE
5
124
100
AcDbEntity
8
INTERIOR_PROFILES
100
AcDbCircle
10
-348.00000000000358
20
418.04778684233861
30
0
40
1.7000000000000171
210
0
220
0
230
-1
0
CIRCLE
5
125
100
AcDbEntity
8
INTERIOR_PROFILES
100
AcDbCircle
10
-688.99999999999932
20
228.04778684233742
30
0
40
1.7000000000000171
210
0
220
0
230
-1
0
CIRCLE
5
126
100
AcDbEntity
8
INTERIOR_PROFILES
100
AcDbCircle
10
-528.00000000000057
20
56.047786842338638
30
0
40
1.7000000000000171
210
0
220
0
230
-1
0
CIRCLE
5
127
100
AcDbEntity
8
INTERIOR_PROFILES
100
AcDbCircle
10
-478.00000000000057
20
56.047786842338638
30
0
40
1.7000000000000171
210
0
220
0
230
-1
0
CIRCLE
5
128
100
AcDbEntity
8
INTERIOR_PROFILES
100
AcDbCircle
10
-628.00000000000057
20
56.047786842338638
30
0
40
1.7000000000000171
210
0
220
0
230
-1
0
CIRCLE
5
129
100
AcDbEntity
8
INTERIOR_PROFILES
100
AcDbCircle
10
-7.0000000000000284
20
395.04778684233861
30
0
40
1.7000000000000004
210
0
220
0
230
-1
0
CIRCLE
5
130
100
AcDbEntity
8
INTERIOR_PROFILES
100
AcDbCircle
10
-7.0000000000000284
20
61.047786842338638
30
0
40
1.7000000000000004
210
0
220
0
230
-1
0
CIRCLE
5
131
100
AcDbEntity
8
INTERIOR_PROFILES
100
AcDbCircle
10
-548
20
480.09557368467887
30
0
40
1.7000000000000171
210
0
220
0
230
-1
0
CIRCLE
5
132
100
AcDbEntity
8
INTERIOR_PROFILES
100
AcDbCircle
10
-147.99999999999997
20
2.9999999999999716
30
0
40
1.6999999999999993
210
0
220
0
230
-1
0
CIRCLE
5
133
100
AcDbEntity
8
INTERIOR_PROFILES
100
AcDbCircle
10
-47.999999999999972
20
480.09557368467887
30
0
40
1.6999999999999993
210
0
220
0
230
-1
0
CIRCLE
5
134
100
AcDbEntity
8
INTERIOR_PROFILES
100
AcDbCircle
10
-48.000000000003666
20
418.04778684233867
30
0
40
1.6999999999999993
210
0
220
0
230
-1
0
CIRCLE
5
135
100
AcDbEntity
8
INTERIOR_PROFILES
100
AcDbCircle
10
-247.99999999999997
20
2.9999999999999716
30
0
40
1.7000000000000171
210
0
220
0
230
-1
0
CIRCLE
5
136
100
AcDbEntity
8
INTERIOR_PROFILES
100
AcDbCircle
10
-348
20
3.0000000000000426
30
0
40
1.7000000000000171
210
0
220
0
230
-1
0
CIRCLE
5
137
100
AcDbEntity
8
INTERIOR_PROFILES
100
AcDbCircle
10
-648
20
2.9999999999999716
30
0
40
1.7000000000000171
210
0
220
0
230
-1
0
CIRCLE
5
138
100
AcDbEntity
8
INTERIOR_PROFILES
100
AcDbCircle
10
-147.99999999999997
20
33.023893421169319
30
0
40
1.6999999999999993
210
0
220
0
230
-1
0
CIRCLE
5
139
100
AcDbEntity
8
INTERIOR_PROFILES
100
AcDbCircle
10
-247.99999999999997
20
480.09557368467887
30
0
40
1.7000000000000171
210
0
220
0
230
-1
0
CIRCLE
5
140
100
AcDbEntity
8
INTERIOR_PROFILES
100
AcDbCircle
10
-548
20
2.9999999999999716
30
0
40
1.7000000000000171
210
0
220
0
230
-1
0
CIRCLE
5
141
100
AcDbEntity
8
INTERIOR_PROFILES
100
AcDbCircle
10
-47.999999999999972
20
2.9999999999999716
30
0
40
1.6999999999999993
210
0
220
0
230
-1
0
CIRCLE
5
142
100
AcDbEntity
8
INTERIOR_PROFILES
100
AcDbCircle
10
-248.00000000000358
20
418.04778684233867
30
0
40
1.7000000000000171
210
0
220
0
230
-1
0
CIRCLE
5
143
100
AcDbEntity
8
INTERIOR_PROFILES
100
AcDbCircle
10
-448
20
3.0000000000000426
30
0
40
1.7000000000000171
210
0
220
0
230
-1
0
CIRCLE
5
144
100
AcDbEntity
8
INTERIOR_PROFILES
100
AcDbCircle
10
-448
20
480.09557368467887
30
0
40
1.7000000000000171
210
0
220
0
230
-1
0
CIRCLE
5
145
100
AcDbEntity
8
INTERIOR_PROFILES
100
AcDbCircle
10
-147.99999999999997
20
480.09557368467887
30
0
40
1.6999999999999993
210
0
220
0
230
-1
0
CIRCLE
5
146
100
AcDbEntity
8
INTERIOR_PROFILES
100
AcDbCircle
10
-348
20
480.09557368467893
30
0
40
1.7000000000000171
210
0
220
0
230
-1
0
CIRCLE
5
147
100
AcDbEntity
8
INTERIOR_PROFILES
100
AcDbCircle
10
-348
20
33.023893421169248
30
0
40
1.7000000000000171
210
0
220
0
230
-1
0
CIRCLE
5
148
100
AcDbEntity
8
INTERIOR_PROFILES
100
AcDbCircle
10
-247.99999999999997
20
33.023893421169319
30
0
40
1.7000000000000171
210
0
220
0
230
-1
0
CIRCLE
5
149
100
AcDbEntity
8
INTERIOR_PROFILES
100
AcDbCircle
10
-648
20
480.09557368467887
30
0
40
1.7000000000000171
210
0
220
0
230
-1
0
CIRCLE
5
150
100
AcDbEntity
8
INTERIOR_PROFILES
100
AcDbCircle
10
-448.00000000000358
20
418.04778684233867
30
0
40
1.7000000000000171
210
0
220
0
230
-1
0
CIRCLE
5
151
100
AcDbEntity
8
INTERIOR_PROFILES
100
AcDbCircle
10
-648
20
33.023893421169248
30
0
40
1.7000000000000171
210
0
220
0
230
-1
0
CIRCLE
5
152
100
AcDbEntity
8
INTERIOR_PROFILES
100
AcDbCircle
10
-448
20
33.023893421169248
30
0
40
1.7000000000000171
210
0
220
0
230
-1
0
CIRCLE
5
153
100
AcDbEntity
8
INTERIOR_PROFILES
100
AcDbCircle
10
-47.999999999999972
20
33.023893421169248
30
0
40
1.6999999999999993
210
0
220
0
230
-1
0
CIRCLE
5
154
100
AcDbEntity
8
INTERIOR_PROFILES
100
AcDbCircle
10
-548
20
33.023893421169248
30
0
40
1.7000000000000171
210
0
220
0
230
-1
0
CIRCLE
5
155
100
AcDbEntity
8
INTERIOR_PROFILES
100
AcDbCircle
10
-648.00000000000352
20
418.04778684233867
30
0
40
1.7000000000000171
210
0
220
0
230
-1
0
CIRCLE
5
156
100
AcDbEntity
8
INTERIOR_PROFILES
100
AcDbCircle
10
-711.26194671058454
20
370.54778684233867
30
0
40
1.7000000000000171
210
-0
220
0
230
-1
0
CIRCLE
5
157
100
AcDbEntity
8
INTERIOR_PROFILES
100
AcDbCircle
10
-711.26194671058454
20
60.547786842338667
30
0
40
1.6999999999999993
210
-0
220
0
230
-1
0
CIRCLE
5
158
100
AcDbEntity
8
INTERIOR_PROFILES
100
AcDbCircle
10
15.261946710584752
20
370.54778684233861
30
0
40
1.7000000000000171
210
0
220
0
230
-1
0
CIRCLE
5
159
100
AcDbEntity
8
INTERIOR_PROFILES
100
AcDbCircle
10
-711.26194671058454
20
215.54778684233861
30
0
40
1.7000000000000171
210
-0
220
0
230
-1
0
CIRCLE
5
160
100
AcDbEntity
8
INTERIOR_PROFILES
100
AcDbCircle
10
15.261946710584709
20
60.547786842338667
30
0
40
1.6999999999999993
210
0
220
0
230
-1
0
CIRCLE
5
161
100
AcDbEntity
8
INTERIOR_PROFILES
100
AcDbCircle
10
15.261946710584731
20
215.54778684233864
30
0
40
1.7000000000000171
210
0
220
0
230
-1
0
LINE
5
162
100
AcDbEntity
8
BEND
100
AcDbLine
10
696
20
52.916813487046142
30
1.2780214406570635e-12
11
1.4210854715202004e-13
21
52.916813487046142
31
1.2812563243848438e-12
0
LINE
5
163
100
AcDbEntity
8
BEND
100
AcDbLine
10
696
20
22.392920065877036
30
1.1465877505762207e-13
11
0
21
22.392920065877036
31
1.1314326965304801e-13
0
LINE
5
164
100
AcDbEntity
8
BEND
100
AcDbLine
10
696
20
9.1309733552923689
30
-7.663485313273616e-15
11
0
21
9.1309733552923689
31
-7.7924403190283001e-15
0
LINE
5
165
100
AcDbEntity
8
BEND
100
AcDbLine
10
696
20
468.96460032939365
30
3.96474091119108e-12
11
1.4210854715202004e-13
21
468.96460032939365
31
4.0453941725115333e-12
0
LINE
5
166
100
AcDbEntity
8
BEND
100
AcDbLine
10
696
20
43.654866776461674
30
8.5045970216562107e-13
11
0
21
43.654866776461674
31
8.5093252045324539e-13
0
LINE
5
167
100
AcDbEntity
8
BEND
100
AcDbLine
10
696
20
458.70265361880803
30
2.6769773829844217e-12
11
1.4210854715202004e-13
21
458.70265361880803
31
2.7089920652283605e-12
0
LINE
5
168
100
AcDbEntity
8
BEND
100
AcDbLine
10
696
20
426.17876019762804
30
1.277240358737598e-12
11
1.4210854715202004e-13
21
426.17876019762804
31
1.3517112680446244e-12
0
LINE
5
169
100
AcDbEntity
8
BEND
100
AcDbLine
10
-1.1309733552922232
20
425.04778684233861
30
1.1749416663744528e-12
11
-1.1309733552922232
21
54.047786842338681
31
1.229523849207484e-12
0
LINE
5
170
100
AcDbEntity
8
BEND
100
AcDbLine
10
696
20
450.44070690821258
30
1.9336191971559232e-12
11
1.4210854715202004e-13
21
450.44070690821258
31
1.9038200173131288e-12
0
LINE
5
171
100
AcDbEntity
8
BEND
100
AcDbLine
10
697.13097335529233
20
54.047786842338681
30
1.3141528192158087e-12
11
697.13097335529233
21
425.04778684233861
31
1.3100631690576843e-12
0
LINE
5
172
100
AcDbEntity
8
BEND_EXTENT
100
AcDbLine
10
-2.2619467105847377
20
54.047786842338681
30
1.3278267374516872e-12
11
-2.2619467105847906
21
425.04778684233861
31
1.3278267374516872e-12
0
LWPOLYLINE
5
173
100
AcDbEntity
8
BEND_EXTENT
100
AcDbPolyline
90
4
70
1
43
0.0
10
1.4210854715202004e-13
20
425.04778684233861
10
0
20
54.04778684233861
10
696
20
54.04778684233861
10
696
20
425.04778684233861
0
LINE
5
174
100
AcDbEntity
8
BEND_EXTENT
100
AcDbLine
10
698.26194671058465
20
425.04778684233861
30
1.3117260982781132e-12
11
698.26194671058465
21
54.047786842338681
31
1.3117260982781132e-12
0
LINE
5
175
100
AcDbEntity
8
BEND_EXTENT
100
AcDbLine
10
1.4210854715202004e-13
20
427.30973355291735
30
1.3988810110276972e-12
11
696
21
427.30973355291735
31
1.3988810110276972e-12
0
LINE
5
176
100
AcDbEntity
8
BEND_EXTENT
100
AcDbLine
10
696
20
51.785840131753957
30
1.2612133559741778e-12
11
0
21
51.785840131753957
31
1.2612133559741778e-12
0
LINE
5
177
100
AcDbEntity
8
BEND_EXTENT
100
AcDbLine
10
696
20
8.0000000000000426
30
-1.3322676295501878e-14
11
0
21
8.0000000000000426
31
-1.3322676295501878e-14
0
LINE
5
178
100
AcDbEntity
8
BEND_EXTENT
100
AcDbLine
10
0
20
10.261946710584695
30
3.1972672226712957e-14
11
696
21
10.261946710584695
31
-3.9081601349297061e-14
0
LINE
5
179
100
AcDbEntity
8
BEND_EXTENT
100
AcDbLine
10
696
20
21.261946710584638
30
6.0278766294562534e-14
11
0
21
21.261946710584638
31
1.3133303987057255e-13
0
LINE
5
180
100
AcDbEntity
8
BEND_EXTENT
100
AcDbLine
10
0
20
23.52389342116922
30
1.2878587085651816e-13
11
696
21
23.523893421169291
31
1.2878587085651816e-13
0
LINE
5
181
100
AcDbEntity
8
BEND_EXTENT
100
AcDbLine
10
696
20
42.523893421169348
30
7.9269923958236177e-13
11
0
21
42.523893421169277
31
7.9269923958236177e-13
0
LINE
5
182
100
AcDbEntity
8
BEND_EXTENT
100
AcDbLine
10
0
20
44.785840131754
30
9.5479180117763462e-13
11
696
21
44.785840131754
31
8.8373752760162461e-13
0
LINE
5
183
100
AcDbEntity
8
BEND_EXTENT
100
AcDbLine
10
696
20
449.30973355291741
30
1.9673151996357774e-12
11
1.4210854715202004e-13
21
449.30973355291741
31
1.9673151996357774e-12
0
LINE
5
184
100
AcDbEntity
8
BEND_EXTENT
100
AcDbLine
10
1.4210854715202004e-13
20
451.57168026350774
30
1.9495516312417749e-12
11
696
21
451.57168026350774
31
1.9495516312417749e-12
0
LINE
5
185
100
AcDbEntity
8
BEND_EXTENT
100
AcDbLine
10
696
20
457.57168026350769
30
2.5712765250318625e-12
11
1.4210854715202004e-13
21
457.57168026350769
31
2.5712765250318625e-12
0
LINE
5
186
100
AcDbEntity
8
BEND_EXTENT
100
AcDbLine
10
1.4210854715202004e-13
20
459.83362697410848
30
2.8199664825478976e-12
11
696
21
459.83362697410848
31
2.8199664825478976e-12
0
LINE
5
187
100
AcDbEntity
8
BEND_EXTENT
100
AcDbLine
10
696
20
467.83362697410837
30
3.8147263126120379e-12
11
1.4210854715202004e-13
21
467.83362697410837
31
3.8147263126120379e-12
0
LINE
5
188
100
AcDbEntity
8
BEND_EXTENT
100
AcDbLine
10
1.4210854715202004e-13
20
470.09557368467887
30
4.0678571622265736e-12
11
696
21
470.09557368467887
31
4.0678571622265736e-12
0
ENDSEC
0
SECTION
2
OBJECTS
0
DICTIONARY
5
C
100
AcDbDictionary
3
ACAD_GROUP
350
D
3
ACAD_MLINESTYLE
350
17
0
DICTIONARY
5
D
100
AcDbDictionary
0
DICTIONARY
5
1A
330
C
100
AcDbDictionary
0
DICTIONARY
5
17
100
AcDbDictionary
0
ENDSEC
0
EOF
