0
SECTION
2
HEADER
9
$INSUNITS
70
4
9
$ACADVER
1
AC1014
9
$HANDSEED
5
FFFF
0
ENDSEC
0
SECTION
2
TABLES
0
TABLE
2
VPORT
5
8
100
AcDbSymbolTable
0
ENDTAB
0
TABLE
2
LTYPE
5
5
100
AcDbSymbolTable
0
LTYPE
5
14
100
AcDbSymbolTableRecord
100
AcDbLinetypeTableRecord
2
BYBLOCK
70
0
0
LTYPE
5
15
100
AcDbSymbolTableRecord
100
AcDbLinetypeTableRecord
2
BYLAYER
70
0
0
LTYPE
5
16
100
AcDbSymbolTableRecord
100
AcDbLinetypeTableRecord
2
DASHED
70
0
3
Dashed __ __ __ __ __ __ __ __ __ __ __ __ __ _
72
65
73
2
40
0.75
49
0.5
74
0
49
-0.25
74
0
0
ENDTAB
0
TABLE
2
LAYER
5
2
100
AcDbSymbolTable
70
2
0
LAYER
5
50
100
AcDbSymbolTableRecord
100
AcDbLayerTableRecord
2
0
70
0
62
7
6
CONTINUOUS
0
ENDTAB
0
TABLE
2
STYLE
5
3
100
AcDbSymbolTable
70
1
0
STYLE
5
11
100
AcDbSymbolTableRecord
100
AcDbTextStyleTableRecord
2
STANDARD
70
0
0
ENDTAB
0
TABLE
2
VIEW
5
6
100
AcDbSymbolTable
70
0
0
ENDTAB
0
TABLE
2
UCS
5
7
100
AcDbSymbolTable
70
0
0
ENDTAB
0
TABLE
2
APPID
5
9
100
AcDbSymbolTable
70
2
0
APPID
5
12
100
AcDbSymbolTableRecord
100
AcDbRegAppTableRecord
2
ACAD
70
0
0
ENDTAB
0
TABLE
2
DIMSTYLE
5
A
100
AcDbSymbolTable
70
1
0
ENDTAB
0
TABLE
2
BLOCK_RECORD
5
1
100
AcDbSymbolTable
70
1
0
BLOCK_RECORD
5
1F
100
AcDbSymbolTableRecord
100
AcDbBlockTableRecord
2
*MODEL_SPACE
0
BLOCK_RECORD
5
1B
100
AcDbSymbolTableRecord
100
AcDbBlockTableRecord
2
*PAPER_SPACE
0
ENDTAB
0
ENDSEC
0
SECTION
2
BLOCKS
0
BLOCK
5
20
100
AcDbEntity
100
AcDbBlockBegin
2
*MODEL_SPACE
0
ENDBLK
5
21
100
AcDbEntity
100
AcDbBlockEnd
0
BLOCK
5
1C
100
AcDbEntity
100
AcDbBlockBegin
2
*PAPER_SPACE
0
ENDBLK
5
1D
100
AcDbEntity
100
AcDbBlockEnd
0
ENDSEC
0
SECTION
2
ENTITIES
0
LWPOLYLINE
5
100
100
AcDbEntity
8
OUTER_PROFILES
100
AcDbPolyline
90
36
70
1
43
0.0
10
696
20
44.785840131754
10
696.00000000000045
20
42.523893421176268
42
0.99999999999999989
10
696
20
23.523893421176211
10
696
20
10.261946710584704
10
696
20
0
10
0
20
0
10
0
20
10.261946710584704
10
-1.5698072597290132e-60
20
23.523893421169262
42
0.99999999999999989
10
1.5698072597290132e-60
20
42.523893421169284
10
0
20
44.785840131754
10
0
20
51.785840131753957
10
0
20
54.047786842338574
10
-18.261946710584596
20
54.047786842338645
10
-18.261946710584596
20
383.71445350900547
10
-2.2619467105846525
20
425.04778684233855
10
0
20
425.04778684233855
10
0
20
427.30973355291735
10
0
20
449.30973355291741
10
0
20
457.57168026350769
10
0
20
467.83362697410848
10
-3.9801020972288894e-16
20
470.09557368467915
42
0.41421356237309503
10
6.4999999999999858
20
476.59557368467915
10
6.4999999999999147
20
483.09557368467921
10
689.49999999999295
20
483.09557368467239
10
689.49999999999272
20
476.59557368467233
42
0.41421356237342166
10
695.99999999999977
20
470.09557368467227
10
695.99999999999977
20
467.83362697410848
10
695.99999999999977
20
457.57168026350769
10
695.99999999999977
20
449.30973355291741
10
695.99999999999977
20
427.30973355291735
10
695.99999999999977
20
425.04778684233855
10
698.26194671058443
20
425.04778684233855
10
714.26194671058454
20
383.71445350900547
10
714.26194671058443
20
54.04778684233861
10
696
20
54.047786842338574
10
696
20
51.785840131753957
0
CIRCLE
5
101
100
AcDbEntity
8
INTERIOR_PROFILES
100
AcDbCircle
10
-7.0000000000003126
20
414.54778684233747
30
0
40
1.7000000000000004
210
0
220
0
230
-1
0
CIRCLE
5
102
100
AcDbEntity
8
INTERIOR_PROFILES
100
AcDbCircle
10
-637.99999999999989
20
442.30973355291752
30
0
40
1.7000000000000171
210
0
220
0
230
-1
0
CIRCLE
5
103
100
AcDbEntity
8
INTERIOR_PROFILES
100
AcDbCircle
10
-103.99999999999991
20
442.30973355291752
30
0
40
1.7000000000000171
210
0
220
0
230
-1
0
CIRCLE
5
104
100
AcDbEntity
8
INTERIOR_PROFILES
100
AcDbCircle
10
-688.99999999999989
20
442.30973355291752
30
0
40
1.7000000000000171
210
0
220
0
230
-1
0
CIRCLE
5
105
100
AcDbEntity
8
INTERIOR_PROFILES
100
AcDbCircle
10
-78.999999999999915
20
442.30973355291752
30
0
40
1.7000000000000171
210
0
220
0
230
-1
0
CIRCLE
5
106
100
AcDbEntity
8
INTERIOR_PROFILES
100
AcDbCircle
10
-217.9999999999994
20
56.047786842338581
30
0
40
1.7000000000000171
210
0
220
0
230
-1
0
CIRCLE
5
107
100
AcDbEntity
8
INTERIOR_PROFILES
100
AcDbCircle
10
-236.99999999999932
20
61.047786842338596
30
0
40
1.7000000000000171
210
0
220
0
230
-1
0
CIRCLE
5
108
100
AcDbEntity
8
INTERIOR_PROFILES
100
AcDbCircle
10
-32.000000000000028
20
442.30973355291752
30
0
40
1.7000000000000171
210
0
220
0
230
-1
0
CIRCLE
5
109
100
AcDbEntity
8
INTERIOR_PROFILES
100
AcDbCircle
10
-7.0000000000000284
20
442.30973355291752
30
0
40
1.7000000000000171
210
0
220
0
230
-1
0
CIRCLE
5
110
100
AcDbEntity
8
INTERIOR_PROFILES
100
AcDbCircle
10
-663.99999999999989
20
442.30973355291752
30
0
40
1.7000000000000171
210
0
220
0
230
-1
0
CIRCLE
5
111
100
AcDbEntity
8
INTERIOR_PROFILES
100
AcDbCircle
10
-7.0000000000010232
20
61.047786842337395
30
0
40
1.7000000000000004
210
0
220
0
230
-1
0
CIRCLE
5
112
100
AcDbEntity
8
INTERIOR_PROFILES
100
AcDbCircle
10
-592
20
442.30973355291752
30
0
40
1.7000000000000171
210
0
220
0
230
-1
0
CIRCLE
5
113
100
AcDbEntity
8
INTERIOR_PROFILES
100
AcDbCircle
10
-7.0000000000005969
20
228.04778684233739
30
0
40
1.7000000000000004
210
0
220
0
230
-1
0
CIRCLE
5
114
100
AcDbEntity
8
INTERIOR_PROFILES
100
AcDbCircle
10
-688.99999999999989
20
61.047786842338603
30
0
40
1.7000000000000171
210
0
220
0
230
-1
0
CIRCLE
5
115
100
AcDbEntity
8
INTERIOR_PROFILES
100
AcDbCircle
10
-67.999999999999403
20
56.047786842338581
30
0
40
1.6999999999999993
210
0
220
0
230
-1
0
CIRCLE
5
116
100
AcDbEntity
8
INTERIOR_PROFILES
100
AcDbCircle
10
-688.99999999999989
20
395.04778684233855
30
0
40
1.7000000000000171
210
0
220
0
230
-1
0
CIRCLE
5
117
100
AcDbEntity
8
INTERIOR_PROFILES
100
AcDbCircle
10
-57.999999999999901
20
442.30973355291752
30
0
40
1.7000000000000171
210
0
220
0
230
-1
0
CIRCLE
5
118
100
AcDbEntity
8
INTERIOR_PROFILES
100
AcDbCircle
10
-617
20
442.30973355291752
30
0
40
1.7000000000000171
210
0
220
0
230
-1
0
CIRCLE
5
119
100
AcDbEntity
8
INTERIOR_PROFILES
100
AcDbCircle
10
-117.9999999999994
20
56.047786842338581
30
0
40
1.6999999999999993
210
0
220
0
230
-1
0
CIRCLE
5
120
100
AcDbEntity
8
INTERIOR_PROFILES
100
AcDbCircle
10
-254.99999999999937
20
79.047786842338596
30
0
40
1.7000000000000171
210
0
220
0
230
-1
0
CIRCLE
5
121
100
AcDbEntity
8
INTERIOR_PROFILES
100
AcDbCircle
10
-7.0000000000003126
20
395.04778684233742
30
0
40
1.7000000000000004
210
0
220
0
230
-1
0
CIRCLE
5
122
100
AcDbEntity
8
INTERIOR_PROFILES
100
AcDbCircle
10
-17.999999999999403
20
56.047786842338581
30
0
40
1.6999999999999993
210
0
220
0
230
-1
0
CIRCLE
5
123
100
AcDbEntity
8
INTERIOR_PROFILES
100
AcDbCircle
10
-236.99999999999932
20
79.047786842338596
30
0
40
1.7000000000000171
210
0
220
0
230
-1
0
CIRCLE
5
124
100
AcDbEntity
8
INTERIOR_PROFILES
100
AcDbCircle
10
-254.99999999999937
20
61.047786842338596
30
0
40
1.7000000000000171
210
0
220
0
230
-1
0
CIRCLE
5
125
100
AcDbEntity
8
INTERIOR_PROFILES
100
AcDbCircle
10
-688.99999999999989
20
414.54778684233861
30
0
40
1.7000000000000171
210
0
220
0
230
-1
0
CIRCLE
5
126
100
AcDbEntity
8
INTERIOR_PROFILES
100
AcDbCircle
10
-167.9999999999994
20
56.047786842338581
30
0
40
1.7000000000000171
210
0
220
0
230
-1
0
CIRCLE
5
127
100
AcDbEntity
8
INTERIOR_PROFILES
100
AcDbCircle
10
-688.99999999999989
20
228.04778684233861
30
0
40
1.7000000000000171
210
0
220
0
230
-1
0
CIRCLE
5
128
100
AcDbEntity
8
INTERIOR_PROFILES
100
AcDbCircle
10
-147.99999999999997
20
33.023893421169277
30
0
40
1.6999999999999993
210
0
220
0
230
-1
0
CIRCLE
5
129
100
AcDbEntity
8
INTERIOR_PROFILES
100
AcDbCircle
10
-247.99999999999636
20
418.04778684233867
30
0
40
1.7000000000000171
210
0
220
0
230
-1
0
CIRCLE
5
130
100
AcDbEntity
8
INTERIOR_PROFILES
100
AcDbCircle
10
-548
20
480.09557368467927
30
0
40
1.7000000000000171
210
0
220
0
230
-1
0
CIRCLE
5
131
100
AcDbEntity
8
INTERIOR_PROFILES
100
AcDbCircle
10
-348
20
480.09557368467927
30
0
40
1.7000000000000171
210
0
220
0
230
-1
0
CIRCLE
5
132
100
AcDbEntity
8
INTERIOR_PROFILES
100
AcDbCircle
10
-247.99999999999997
20
2.9999999999999716
30
0
40
1.7000000000000171
210
0
220
0
230
-1
0
CIRCLE
5
133
100
AcDbEntity
8
INTERIOR_PROFILES
100
AcDbCircle
10
-147.99999999999636
20
418.04778684233867
30
0
40
1.6999999999999993
210
0
220
0
230
-1
0
CIRCLE
5
134
100
AcDbEntity
8
INTERIOR_PROFILES
100
AcDbCircle
10
-648
20
2.9999999999999716
30
0
40
1.7000000000000171
210
0
220
0
230
-1
0
CIRCLE
5
135
100
AcDbEntity
8
INTERIOR_PROFILES
100
AcDbCircle
10
-547.99999999999636
20
418.04778684233867
30
0
40
1.7000000000000171
210
0
220
0
230
-1
0
CIRCLE
5
136
100
AcDbEntity
8
INTERIOR_PROFILES
100
AcDbCircle
10
-448
20
2.9999999999999716
30
0
40
1.7000000000000171
210
0
220
0
230
-1
0
CIRCLE
5
137
100
AcDbEntity
8
INTERIOR_PROFILES
100
AcDbCircle
10
-47.999999999999972
20
2.9999999999999716
30
0
40
1.6999999999999993
210
0
220
0
230
-1
0
CIRCLE
5
138
100
AcDbEntity
8
INTERIOR_PROFILES
100
AcDbCircle
10
-247.99999999999997
20
480.09557368467927
30
0
40
1.7000000000000171
210
0
220
0
230
-1
0
CIRCLE
5
139
100
AcDbEntity
8
INTERIOR_PROFILES
100
AcDbCircle
10
-47.999999999999972
20
480.09557368467927
30
0
40
1.6999999999999993
210
0
220
0
230
-1
0
CIRCLE
5
140
100
AcDbEntity
8
INTERIOR_PROFILES
100
AcDbCircle
10
-648
20
33.023893421169277
30
0
40
1.7000000000000171
210
0
220
0
230
-1
0
CIRCLE
5
141
100
AcDbEntity
8
INTERIOR_PROFILES
100
AcDbCircle
10
-447.99999999999636
20
418.04778684233867
30
0
40
1.7000000000000171
210
0
220
0
230
-1
0
CIRCLE
5
142
100
AcDbEntity
8
INTERIOR_PROFILES
100
AcDbCircle
10
-247.99999999999997
20
33.023893421169277
30
0
40
1.7000000000000171
210
0
220
0
230
-1
0
CIRCLE
5
143
100
AcDbEntity
8
INTERIOR_PROFILES
100
AcDbCircle
10
-448
20
33.023893421169277
30
0
40
1.7000000000000171
210
0
220
0
230
-1
0
CIRCLE
5
144
100
AcDbEntity
8
INTERIOR_PROFILES
100
AcDbCircle
10
-647.99999999999625
20
418.04778684233867
30
0
40
1.7000000000000171
210
0
220
0
230
-1
0
CIRCLE
5
145
100
AcDbEntity
8
INTERIOR_PROFILES
100
AcDbCircle
10
-548
20
33.023893421169277
30
0
40
1.7000000000000171
210
0
220
0
230
-1
0
CIRCLE
5
146
100
AcDbEntity
8
INTERIOR_PROFILES
100
AcDbCircle
10
-348
20
3.0000000000000426
30
0
40
1.7000000000000171
210
0
220
0
230
-1
0
CIRCLE
5
147
100
AcDbEntity
8
INTERIOR_PROFILES
100
AcDbCircle
10
-147.99999999999997
20
2.9999999999999716
30
0
40
1.6999999999999993
210
0
220
0
230
-1
0
CIRCLE
5
148
100
AcDbEntity
8
INTERIOR_PROFILES
100
AcDbCircle
10
-347.99999999999636
20
418.0477868423385
30
0
40
1.7000000000000171
210
0
220
0
230
-1
0
CIRCLE
5
149
100
AcDbEntity
8
INTERIOR_PROFILES
100
AcDbCircle
10
-548
20
2.9999999999999716
30
0
40
1.7000000000000171
210
0
220
0
230
-1
0
CIRCLE
5
150
100
AcDbEntity
8
INTERIOR_PROFILES
100
AcDbCircle
10
-147.99999999999997
20
480.09557368467927
30
0
40
1.6999999999999993
210
0
220
0
230
-1
0
CIRCLE
5
151
100
AcDbEntity
8
INTERIOR_PROFILES
100
AcDbCircle
10
-47.999999999999972
20
33.023893421169277
30
0
40
1.6999999999999993
210
0
220
0
230
-1
0
CIRCLE
5
152
100
AcDbEntity
8
INTERIOR_PROFILES
100
AcDbCircle
10
-348
20
33.023893421169277
30
0
40
1.7000000000000171
210
0
220
0
230
-1
0
CIRCLE
5
153
100
AcDbEntity
8
INTERIOR_PROFILES
100
AcDbCircle
10
-47.999999999996419
20
418.04778684233867
30
0
40
1.6999999999999993
210
0
220
0
230
-1
0
CIRCLE
5
154
100
AcDbEntity
8
INTERIOR_PROFILES
100
AcDbCircle
10
-448
20
480.09557368467927
30
0
40
1.7000000000000171
210
0
220
0
230
-1
0
CIRCLE
5
155
100
AcDbEntity
8
INTERIOR_PROFILES
100
AcDbCircle
10
-648
20
480.09557368467927
30
0
40
1.7000000000000171
210
0
220
0
230
-1
0
CIRCLE
5
156
100
AcDbEntity
8
INTERIOR_PROFILES
100
AcDbCircle
10
15.261946710584624
20
215.54778684233855
30
0
40
1.7000000000000171
210
0
220
0
230
-1
0
CIRCLE
5
157
100
AcDbEntity
8
INTERIOR_PROFILES
100
AcDbCircle
10
-711.26194671058443
20
370.5477868423385
30
0
40
1.7000000000000171
210
0
220
0
230
-1
0
CIRCLE
5
158
100
AcDbEntity
8
INTERIOR_PROFILES
100
AcDbCircle
10
15.261946710584624
20
370.54778684233867
30
0
40
1.7000000000000171
210
0
220
0
230
-1
0
CIRCLE
5
159
100
AcDbEntity
8
INTERIOR_PROFILES
100
AcDbCircle
10
15.261946710584624
20
60.547786842338631
30
0
40
1.6999999999999993
210
0
220
0
230
-1
0
CIRCLE
5
160
100
AcDbEntity
8
INTERIOR_PROFILES
100
AcDbCircle
10
-711.26194671058443
20
60.547786842338631
30
0
40
1.6999999999999993
210
0
220
0
230
-1
0
CIRCLE
5
161
100
AcDbEntity
8
INTERIOR_PROFILES
100
AcDbCircle
10
-711.26194671058443
20
215.54778684233861
30
0
40
1.7000000000000171
210
0
220
0
230
-1
0
LINE
5
162
100
AcDbEntity
8
BEND
100
AcDbLine
10
0
20
468.96460032939387
30
-6.86281661570402e-12
11
695.99999999999977
21
468.96460032939387
31
-6.7531636545794382e-12
0
LINE
5
163
100
AcDbEntity
8
BEND
100
AcDbLine
10
0
20
9.1309733552923511
30
-8.9436878296986658e-13
11
696
21
9.1309733552923511
31
-8.8982348007797578e-13
0
LINE
5
164
100
AcDbEntity
8
BEND
100
AcDbLine
10
0
20
458.70265361880797
30
-5.680121456750742e-12
11
695.99999999999977
21
458.70265361880797
31
-5.6466428000674446e-12
0
LINE
5
165
100
AcDbEntity
8
BEND
100
AcDbLine
10
0
20
22.392920065876908
30
-2.2248820386977221e-12
11
696
21
22.392920065876908
31
-2.2250189547593593e-12
0
LINE
5
166
100
AcDbEntity
8
BEND
100
AcDbLine
10
0
20
426.17876019762787
30
-4.8859085392766847e-12
11
695.99999999999977
21
426.17876019762787
31
-4.8408143275750168e-12
0
LINE
5
167
100
AcDbEntity
8
BEND
100
AcDbLine
10
0
20
43.654866776461674
30
-4.1525657116405108e-12
11
696
21
43.654866776461674
31
-4.1494843388442823e-12
0
LINE
5
168
100
AcDbEntity
8
BEND
100
AcDbLine
10
697.13097335529233
20
425.04778684233855
30
-4.6173040693055203e-12
11
697.13097335529233
21
54.04778684233861
31
-4.7594126164575395e-12
0
LINE
5
169
100
AcDbEntity
8
BEND
100
AcDbLine
10
-1.1309733552923262
20
54.047786842338645
30
-4.8229475968497582e-12
11
-1.1309733552923262
21
425.04778684233855
31
-4.8232251526059144e-12
0
LINE
5
170
100
AcDbEntity
8
BEND
100
AcDbLine
10
0
20
52.916813487046277
30
-4.7757502286593302e-12
11
695.99999999999977
21
52.916813487046277
31
-4.7723851607071604e-12
0
LINE
5
171
100
AcDbEntity
8
BEND
100
AcDbLine
10
0
20
450.44070690821275
30
-4.9253349680157793e-12
11
695.99999999999977
21
450.44070690821275
31
-4.962265848366698e-12
0
LINE
5
172
100
AcDbEntity
8
BEND_EXTENT
100
AcDbLine
10
696
20
23.523893421169248
30
-2.34035013590983e-12
11
0
21
23.523893421169248
31
-2.34035013590983e-12
0
LINE
5
173
100
AcDbEntity
8
BEND_EXTENT
100
AcDbLine
10
0
20
42.523893421169305
30
-4.0767389464235748e-12
11
696
21
42.523893421169305
31
-4.0767389464235748e-12
0
LINE
5
174
100
AcDbEntity
8
BEND_EXTENT
100
AcDbLine
10
695.99999999999977
20
470.09557368467927
30
-6.8789418605774699e-12
11
0
21
470.09557368467927
31
-6.8789418605774699e-12
0
LINE
5
175
100
AcDbEntity
8
BEND_EXTENT
100
AcDbLine
10
698.26194671058443
20
425.04778684233855
30
-4.8405723873656825e-12
11
698.26194671058443
21
54.04778684233861
31
-4.8405723873656825e-12
0
LINE
5
176
100
AcDbEntity
8
BEND_EXTENT
100
AcDbLine
10
-2.2619467105846525
20
54.047786842338645
30
-4.8283599340948058e-12
11
-2.2619467105846525
21
425.04778684233855
31
-4.8283599340948058e-12
0
LWPOLYLINE
5
177
100
AcDbEntity
8
BEND_EXTENT
100
AcDbPolyline
90
4
70
1
43
0.0
10
696
20
54.047786842338574
10
695.99999999999977
20
425.04778684233855
10
0
20
425.04778684233855
10
0
20
54.04778684233861
0
LINE
5
178
100
AcDbEntity
8
BEND_EXTENT
100
AcDbLine
10
696
20
10.261946710584704
30
-1.0273726314125042e-12
11
0
21
10.261946710584704
31
-1.0273726314125042e-12
0
LINE
5
179
100
AcDbEntity
8
BEND_EXTENT
100
AcDbLine
10
0
20
8.0000000000000426
30
-7.815970093361102e-13
11
696
21
8.0000000000000426
31
-7.815970093361102e-13
0
LINE
5
180
100
AcDbEntity
8
BEND_EXTENT
100
AcDbLine
10
0
20
21.261946710584645
30
-2.1223300894490649e-12
11
696
21
21.261946710584645
31
-2.1223300894490649e-12
0
LINE
5
181
100
AcDbEntity
8
BEND_EXTENT
100
AcDbLine
10
0
20
51.785840131753957
30
-4.7206683007061656e-12
11
696
21
51.785840131753957
31
-4.7206683007061656e-12
0
LINE
5
182
100
AcDbEntity
8
BEND_EXTENT
100
AcDbLine
10
696
20
44.785840131754
30
-4.276579090856103e-12
11
0
21
44.785840131754
31
-4.276579090856103e-12
0
LINE
5
183
100
AcDbEntity
8
BEND_EXTENT
100
AcDbLine
10
695.99999999999977
20
427.30973355291735
30
-4.8405723873656825e-12
11
0
21
427.30973355291735
31
-4.8405723873656825e-12
0
LINE
5
184
100
AcDbEntity
8
BEND_EXTENT
100
AcDbLine
10
0
20
449.30973355291741
30
-4.9826809345177026e-12
11
695.99999999999977
21
449.30973355291741
31
-4.9826809345177026e-12
0
LINE
5
185
100
AcDbEntity
8
BEND_EXTENT
100
AcDbLine
10
695.99999999999977
20
451.57168026350774
30
-4.9515946898281982e-12
11
0
21
451.57168026350774
31
-4.9515946898281982e-12
0
LINE
5
186
100
AcDbEntity
8
BEND_EXTENT
100
AcDbLine
10
0
20
457.57168026350769
30
-5.4800608495497727e-12
11
695.99999999999977
21
457.57168026350769
31
-5.4800608495497727e-12
0
LINE
5
187
100
AcDbEntity
8
BEND_EXTENT
100
AcDbLine
10
695.99999999999977
20
459.83362697410854
30
-5.7642779438538128e-12
11
0
21
459.83362697410854
31
-5.7642779438538128e-12
0
LINE
5
188
100
AcDbEntity
8
BEND_EXTENT
100
AcDbLine
10
0
20
467.83362697410848
30
-6.616929226765933e-12
11
695.99999999999977
21
467.83362697410848
31
-6.616929226765933e-12
0
ENDSEC
0
SECTION
2
OBJECTS
0
DICTIONARY
5
C
100
AcDbDictionary
3
ACAD_GROUP
350
D
3
ACAD_MLINESTYLE
350
17
0
DICTIONARY
5
D
100
AcDbDictionary
0
DICTIONARY
5
1A
330
C
100
AcDbDictionary
0
DICTIONARY
5
17
100
AcDbDictionary
0
ENDSEC
0
EOF
