0
SECTION
2
HEADER
9
$INSUNITS
70
4
9
$ACADVER
1
AC1014
9
$HANDSEED
5
FFFF
0
ENDSEC
0
SECTION
2
TABLES
0
TABLE
2
VPORT
5
8
100
AcDbSymbolTable
0
ENDTAB
0
TABLE
2
LTYPE
5
5
100
AcDbSymbolTable
0
LTYPE
5
14
100
AcDbSymbolTableRecord
100
AcDbLinetypeTableRecord
2
BYBLOCK
70
0
0
LTYPE
5
15
100
AcDbSymbolTableRecord
100
AcDbLinetypeTableRecord
2
BYLAYER
70
0
0
LTYPE
5
16
100
AcDbSymbolTableRecord
100
AcDbLinetypeTableRecord
2
DASHED
70
0
3
Dashed __ __ __ __ __ __ __ __ __ __ __ __ __ _
72
65
73
2
40
0.75
49
0.5
74
0
49
-0.25
74
0
0
ENDTAB
0
TABLE
2
LAYER
5
2
100
AcDbSymbolTable
70
2
0
LAYER
5
50
100
AcDbSymbolTableRecord
100
AcDbLayerTableRecord
2
0
70
0
62
7
6
CONTINUOUS
0
ENDTAB
0
TABLE
2
STYLE
5
3
100
AcDbSymbolTable
70
1
0
STYLE
5
11
100
AcDbSymbolTableRecord
100
AcDbTextStyleTableRecord
2
STANDARD
70
0
0
ENDTAB
0
TABLE
2
VIEW
5
6
100
AcDbSymbolTable
70
0
0
ENDTAB
0
TABLE
2
UCS
5
7
100
AcDbSymbolTable
70
0
0
ENDTAB
0
TABLE
2
APPID
5
9
100
AcDbSymbolTable
70
2
0
APPID
5
12
100
AcDbSymbolTableRecord
100
AcDbRegAppTableRecord
2
ACAD
70
0
0
ENDTAB
0
TABLE
2
DIMSTYLE
5
A
100
AcDbSymbolTable
70
1
0
ENDTAB
0
TABLE
2
BLOCK_RECORD
5
1
100
AcDbSymbolTable
70
1
0
BLOCK_RECORD
5
1F
100
AcDbSymbolTableRecord
100
AcDbBlockTableRecord
2
*MODEL_SPACE
0
BLOCK_RECORD
5
1B
100
AcDbSymbolTableRecord
100
AcDbBlockTableRecord
2
*PAPER_SPACE
0
ENDTAB
0
ENDSEC
0
SECTION
2
BLOCKS
0
BLOCK
5
20
100
AcDbEntity
100
AcDbBlockBegin
2
*MODEL_SPACE
0
ENDBLK
5
21
100
AcDbEntity
100
AcDbBlockEnd
0
BLOCK
5
1C
100
AcDbEntity
100
AcDbBlockBegin
2
*PAPER_SPACE
0
ENDBLK
5
1D
100
AcDbEntity
100
AcDbBlockEnd
0
ENDSEC
0
SECTION
2
ENTITIES
0
LINE
5
100
100
AcDbEntity
8
OUTER_PROFILES
100
AcDbLine
10
-86.88584013175479
20
581.26194659135888
30
0
11
-96.147786842338476
21
581.26194659135888
31
0
0
LINE
5
101
100
AcDbEntity
8
OUTER_PROFILES
100
AcDbLine
10
-96.147786842338476
20
581.26194659135888
30
0
11
-96.349827871205704
21
581.26194659135899
31
0
0
ARC
5
102
100
AcDbEntity
8
OUTER_PROFILES
100
AcDbCircle
10
96.349827871205704
20
579.26194659135899
30
0
40
1.9999999999999964
210
0
220
0
230
-1
100
AcDbArc
50
11.536959032818203
51
90
0
ARC
5
103
100
AcDbEntity
8
OUTER_PROFILES
100
AcDbCircle
10
106.14778684233862
20
581.26194659135888
30
0
40
8.0000000000001918
210
0
220
0
230
-1
100
AcDbArc
50
191.53695903281371
51
348.46304096718524
0
ARC
5
104
100
AcDbEntity
8
OUTER_PROFILES
100
AcDbCircle
10
115.94574581347111
20
579.26194659135899
30
0
40
2.0000000000000284
210
0
220
0
230
-1
100
AcDbArc
50
90
51
168.46304096718373
0
LINE
5
105
100
AcDbEntity
8
OUTER_PROFILES
100
AcDbLine
10
-115.94574581347111
20
581.26194659135899
30
0
11
-118.40973355292157
21
581.26194659135911
31
0
0
LINE
5
106
100
AcDbEntity
8
OUTER_PROFILES
100
AcDbLine
10
-118.40973355292157
20
581.26194659135911
30
0
11
-125.40973355292145
21
581.26194659135899
31
0
0
ARC
5
107
100
AcDbEntity
8
OUTER_PROFILES
100
AcDbCircle
10
125.40973355292174
20
579.26194659135899
30
0
40
1.9999999999999929
210
0
220
0
230
-1
100
AcDbArc
50
0
51
90.000000000008143
0
LINE
5
108
100
AcDbEntity
8
OUTER_PROFILES
100
AcDbLine
10
-127.40973355292172
20
579.26194659135899
30
0
11
-127.40973355292144
21
19.261946591358949
31
0
0
ARC
5
109
100
AcDbEntity
8
OUTER_PROFILES
100
AcDbCircle
10
125.40973355292145
20
19.26194659135902
30
0
40
2.0000000000000018
210
-0
220
0
230
-1
100
AcDbArc
50
270.0000000000004
51
360
0
LINE
5
110
100
AcDbEntity
8
OUTER_PROFILES
100
AcDbLine
10
-125.40973355292147
20
17.26194659135902
30
0
11
-118.40973355292157
21
17.261946591358921
31
0
0
LINE
5
111
100
AcDbEntity
8
OUTER_PROFILES
100
AcDbLine
10
-118.40973355292157
20
17.261946591358921
30
0
11
-115.94574581347111
21
17.261946591358779
31
0
0
ARC
5
112
100
AcDbEntity
8
OUTER_PROFILES
100
AcDbCircle
10
115.94574581347111
20
19.261946591358878
30
0
40
1.9999999999999938
210
0
220
-0
230
-1
100
AcDbArc
50
191.536959032819
51
270
0
ARC
5
113
100
AcDbEntity
8
OUTER_PROFILES
100
AcDbCircle
10
106.14778684233848
20
17.26194659135885
30
0
40
7.9999999999999316
210
0
220
0
230
-1
100
AcDbArc
50
11.536959032814927
51
168.4630409671843
0
ARC
5
114
100
AcDbEntity
8
OUTER_PROFILES
100
AcDbCircle
10
96.349827871205775
20
19.261946591358807
30
0
40
2.0000000000000018
210
0
220
-0
230
-1
100
AcDbArc
50
269.99999999999756
51
348.46304096718654
0
LINE
5
115
100
AcDbEntity
8
OUTER_PROFILES
100
AcDbLine
10
-96.34982787120569
20
17.261946591358807
30
0
11
-96.147786842338334
21
17.261946591358779
31
0
0
LINE
5
116
100
AcDbEntity
8
OUTER_PROFILES
100
AcDbLine
10
-96.147786842338334
20
17.261946591358779
30
0
11
-86.885840131754648
21
17.261946591358779
31
0
0
LINE
5
117
100
AcDbEntity
8
OUTER_PROFILES
100
AcDbLine
10
-86.885840131754648
20
17.261946591358779
30
0
11
-72.623893421169541
21
17.261946591358779
31
0
0
LINE
5
118
100
AcDbEntity
8
OUTER_PROFILES
100
AcDbLine
10
-72.623893421169541
20
17.261946591358779
30
0
11
-70.361946710584746
21
19.261946591358807
31
0
0
LINE
5
119
100
AcDbEntity
8
OUTER_PROFILES
100
AcDbLine
10
-70.361946710584746
20
19.261946591358807
30
0
11
-70.361946710584817
21
16.999999880813093
31
0
0
LINE
5
120
100
AcDbEntity
8
OUTER_PROFILES
100
AcDbLine
10
-70.361946710584817
20
16.999999880813093
30
0
11
-70.361946710585528
21
4.9999998808130641
31
0
0
LINE
5
121
100
AcDbEntity
8
OUTER_PROFILES
100
AcDbLine
10
-70.361946710585528
20
4.9999998808130641
30
0
11
-20.461946710587
21
4.9999998808099377
31
0
0
LINE
5
122
100
AcDbEntity
8
OUTER_PROFILES
100
AcDbLine
10
-20.461946710587
20
4.9999998808099377
30
0
11
-20.461946710586645
21
10.970710558928687
31
0
0
LINE
5
123
100
AcDbEntity
8
OUTER_PROFILES
100
AcDbLine
10
-20.461946710586645
20
10.970710558928687
30
0
11
-14.432657388703376
21
16.999999880811174
31
0
0
LINE
5
124
100
AcDbEntity
8
OUTER_PROFILES
100
AcDbLine
10
-14.432657388703376
20
16.999999880811174
30
0
11
-14.361946710584803
21
19.261946591359518
31
0
0
LINE
5
125
100
AcDbEntity
8
OUTER_PROFILES
100
AcDbLine
10
-14.361946710584803
20
19.261946591359518
30
0
11
-12.10000000000008
21
19.261946591359518
31
0
0
LINE
5
126
100
AcDbEntity
8
OUTER_PROFILES
100
AcDbLine
10
-12.10000000000008
20
19.261946591359518
30
0
11
-12.02928932188108
21
16.999999880773373
31
0
0
LINE
5
127
100
AcDbEntity
8
OUTER_PROFILES
100
AcDbLine
10
-12.02928932188108
20
16.999999880773373
30
0
11
-6.0292893218814925
21
10.999999880773359
31
0
0
LINE
5
128
100
AcDbEntity
8
OUTER_PROFILES
100
AcDbLine
10
-6.0292893218814925
20
10.999999880773359
30
0
11
0
21
10.999999880773359
31
0
0
LINE
5
129
100
AcDbEntity
8
OUTER_PROFILES
100
AcDbLine
10
0
20
10.999999880773359
30
0
11
0
21
0
31
0
0
LINE
5
130
100
AcDbEntity
8
OUTER_PROFILES
100
AcDbLine
10
0
20
0
30
0
11
537.8292893218802
21
0
31
0
0
LINE
5
131
100
AcDbEntity
8
OUTER_PROFILES
100
AcDbLine
10
537.8292893218802
20
0
30
0
11
537.82928932188099
21
16.999999880775079
31
0
0
SPLINE
5
132
100
AcDbEntity
8
OUTER_PROFILES
100
AcDbSpline
70
0
71
3
72
182
73
178
74
0
42
0.000000001
43
0.0000000001
44
0.0000000001
40
-0.1802719844580763
40
-0.1802719844580763
40
-0.1802719844580763
40
-0.1802719844580763
40
-0.17622984782707632
40
-0.17622984782707632
40
-0.17622984782707632
40
-0.17275274432438256
40
-0.17275274432438256
40
-0.17275274432438256
40
-0.16927780633619216
40
-0.16927780633619216
40
-0.16927780633619216
40
-0.1658150139026813
40
-0.1658150139026813
40
-0.1658150139026813
40
-0.16235479856342686
40
-0.16235479856342686
40
-0.16235479856342686
40
-0.15889709332369895
40
-0.15889709332369895
40
-0.15889709332369895
40
-0.15545854930899797
40
-0.15545854930899797
40
-0.15545854930899797
40
-0.15202952240701534
40
-0.15202952240701534
40
-0.15202952240701534
40
-0.14860973215070325
40
-0.14860973215070325
40
-0.14860973215070325
40
-0.14521750103056139
40
-0.14521750103056139
40
-0.14521750103056139
40
-0.14183366965971106
40
-0.14183366965971106
40
-0.14183366965971106
40
-0.13845789509928119
40
-0.13845789509928119
40
-0.13845789509928119
40
-0.13511272592689275
40
-0.13511272592689275
40
-0.13511272592689275
40
-0.13177500613874416
40
-0.13177500613874416
40
-0.13177500613874416
40
-0.12844459725643459
40
-0.12844459725643459
40
-0.12844459725643459
40
-0.1251480915130842
40
-0.1251480915130842
40
-0.1251480915130842
40
-0.12185867580418838
40
-0.12185867580418838
40
-0.12185867580418838
40
-0.11857637598679087
40
-0.11857637598679087
40
-0.11857637598679087
40
-0.11533140002698157
40
-0.11533140002698157
40
-0.11533140002698157
40
-0.11209363989509041
40
-0.11209363989509041
40
-0.11209363989509041
40
-0.10886330531616799
40
-0.10886330531616799
40
-0.10886330531616799
40
-0.10567377739382305
40
-0.10567377739382305
40
-0.10567377739382305
40
-0.10249210836082727
40
-0.10249210836082727
40
-0.10249210836082727
40
-0.099319126302640309
40
-0.099319126302640309
40
-0.099319126302640309
40
-0.096195132358214266
40
-0.096195132358214266
40
-0.096195132358214266
40
-0.093084927635560616
40
-0.093084927635560616
40
-0.093084927635560616
40
-0.089987805312556068
40
-0.089987805312556068
40
-0.089987805312556068
40
-0.086940270500782055
40
-0.086940270500782055
40
-0.086940270500782055
40
-0.083904479495325118
40
-0.083904479495325118
40
-0.083904479495325118
40
-0.080880094671794092
40
-0.080880094671794092
40
-0.080880094671794092
40
-0.077904967231317138
40
-0.077904967231317138
40
-0.077904967231317138
40
-0.074940639913149185
40
-0.074940639913149185
40
-0.074940639913149185
40
-0.07198712114657857
40
-0.07198712114657857
40
-0.07198712114657857
40
-0.069082800096764277
40
-0.069082800096764277
40
-0.069082800096764277
40
-0.066189340757342632
40
-0.066189340757342632
40
-0.066189340757342632
40
-0.063307064736008917
40
-0.063307064736008917
40
-0.063307064736008917
40
-0.060473962359843307
40
-0.060473962359843307
40
-0.060473962359843307
40
-0.057652192031261998
40
-0.057652192031261998
40
-0.057652192031261998
40
-0.054839963414776871
40
-0.054839963414776871
40
-0.054839963414776871
40
-0.0520729025011289
40
-0.0520729025011289
40
-0.0520729025011289
40
-0.049314763831657997
40
-0.049314763831657997
40
-0.049314763831657997
40
-0.046565631119005621
40
-0.046565631119005621
40
-0.046565631119005621
40
-0.043859116485535359
40
-0.043859116485535359
40
-0.043859116485535359
40
-0.041161928604777735
40
-0.041161928604777735
40
-0.041161928604777735
40
-0.038474510626167586
40
-0.038474510626167586
40
-0.038474510626167586
40
-0.035827157535636645
40
-0.035827157535636645
40
-0.035827157535636645
40
-0.03319046471048253
40
-0.03319046471048253
40
-0.03319046471048253
40
-0.027977080402641779
40
-0.027977080402641779
40
-0.027977080402641779
40
-0.025395069370556911
40
-0.025395069370556911
40
-0.025395069370556911
40
-0.022812841604576074
40
-0.022812841604576074
40
-0.022812841604576074
40
-0.020251074176372421
40
-0.020251074176372421
40
-0.020251074176372421
40
-0.017690656820599778
40
-0.017690656820599778
40
-0.017690656820599778
40
-0.015132414761035889
40
-0.015132414761035889
40
-0.015132414761035889
40
-0.012591210136446339
40
-0.012591210136446339
40
-0.012591210136446339
40
-0.010054850121653389
40
-0.010054850121653389
40
-0.010054850121653389
40
-0.007524886591631713
40
-0.007524886591631713
40
-0.007524886591631713
40
-0.0050092894713548459
40
-0.0050092894713548459
40
-0.0050092894713548459
40
-0.0025011934736034248
40
-0.0025011934736034248
40
-0.0025011934736034248
40
-1.0325074142251051e-14
40
-1.0325074142251051e-14
40
-1.0325074142251051e-14
40
-1.0325074142251051e-14
10
536.89999999999986
20
19.160038187325341
30
0
10
536.90961719639608
20
19.146154631311632
30
0
10
536.91923080953973
20
19.132262026295592
30
0
10
536.9288377545671
20
19.118358953047192
30
0
10
536.93710178551271
20
19.106399331415531
30
0
10
536.94536088208656
20
19.094431962794687
30
0
10
536.95361307563883
20
19.082455904745359
30
0
10
536.96186012978569
20
19.07048730529695
30
0
10
536.97010028957925
20
19.058510027557034
30
0
10
536.97833158805781
20
19.046523095113415
30
0
10
536.98653411661689
20
19.034578059228409
30
0
10
536.99472784554496
20
19.022623435983306
30
0
10
537.00291082959257
20
19.010658225173103
30
0
10
537.01108772366479
20
18.998701919163352
30
0
10
537.01925388866698
20
18.986735041285954
30
0
10
537.02740738639488
20
18.974756558874617
30
0
10
537.03555496943568
20
18.962786765859647
30
0
10
537.04368990363321
20
18.950805385403271
30
0
10
537.05181025583772
20
18.938811346990363
30
0
10
537.0598856082853
20
18.926883774760412
30
0
10
537.0679494121315
20
18.914939469965049
30
0
10
537.0760078794217
20
18.902965110405816
30
0
10
537.08404404269561
20
18.891023893167684
30
0
10
537.09207232969288
20
18.879056579352209
30
0
10
537.10009008427937
20
18.86706288031192
30
0
10
537.10808624173058
20
18.855101488264694
30
0
10
537.11607192335941
20
18.843113853276776
30
0
10
537.1240444962923
20
18.831099598867382
30
0
10
537.13195282048264
20
18.819182163984465
30
0
10
537.139848246258
20
18.807238537109328
30
0
10
537.14772820943824
20
18.795268261597897
30
0
10
537.15558866047058
20
18.783327626552975
30
0
10
537.16343372528797
20
18.771360474930816
30
0
10
537.17126086560813
20
18.759366260776034
30
0
10
537.1790693697202
20
18.747400604518916
30
0
10
537.18686003458959
20
18.735408014805017
30
0
10
537.19463034624778
20
18.723387850744331
30
0
10
537.20233021084277
20
18.71147666368401
30
0
10
537.21001008971155
20
18.699538400327995
30
0
10
537.21766754073917
20
18.68757233329589
30
0
10
537.22530793932731
20
18.675632913595095
30
0
10
537.23292600997775
20
18.66366581435102
30
0
10
537.24051932987709
20
18.65167020420877
30
0
10
537.24809601744926
20
18.639700869123033
30
0
10
537.25564806271996
20
18.627703148320407
30
0
10
537.26317306099861
20
18.615676102621137
30
0
10
537.27062145575144
20
18.603771490717875
30
0
10
537.27804335153553
20
18.591838148156228
30
0
10
537.28543641741578
20
18.579875049873777
30
0
10
537.29281358249204
20
18.567937681496147
30
0
10
537.30016204175956
20
18.555970685657996
30
0
10
537.30747947770874
20
18.543972924731946
30
0
10
537.31478108407441
20
18.532001118191985
30
0
10
537.32205180149731
20
18.519998679960707
30
0
10
537.32928932188133
20
18.507964354498085
30
0
10
537.33644454259888
20
18.496066874379977
30
0
10
537.34356731732555
20
18.484138228347859
30
0
10
537.35065540543155
20
18.472177075795315
30
0
10
537.35772773181088
20
18.460242521165213
30
0
10
537.36476552609815
20
18.4482756048493
30
0
10
537.37176654698317
20
18.43627486318141
30
0
10
537.37875151156732
20
18.424301644288406
30
0
10
537.38569987173537
20
18.412294755422991
30
0
10
537.39260937994493
20
18.400252606375034
30
0
10
537.39943160495773
20
18.38836257774318
30
0
10
537.40621595390564
20
18.376438174264962
30
0
10
537.41296023570635
20
18.364477729476434
30
0
10
537.41968789982411
20
18.352546754820906
30
0
10
537.42637569464046
20
18.340579916577298
30
0
10
537.43302140980836
20
18.328575421930395
30
0
10
537.43964898004663
20
18.316603703396126
30
0
10
537.44623252120687
20
18.304598582895437
30
0
10
537.45277912374024
20
18.292540858251698
30
0
10
537.4592246523614
20
18.280669294505216
30
0
10
537.46563368094758
20
18.268747893835666
30
0
10
537.47200251998879
20
18.25677681107166
30
0
10
537.47834324715302
20
18.244858568331708
30
0
10
537.48464413888587
20
18.232891081860032
30
0
10
537.49090157104763
20
18.220874347411424
30
0
10
537.49713268268204
20
18.208908158742503
30
0
10
537.5033206997789
20
18.196893136315424
30
0
10
537.50946205965238
20
18.184829110128646
30
0
10
537.51550509123263
20
18.172958239061927
30
0
10
537.52150294797298
20
18.16103992129996
30
0
10
537.52745224892465
20
18.149073827121285
30
0
10
537.53337862398962
20
18.13715384480048
30
0
10
537.53925681715555
20
18.125186454389492
30
0
10
537.54508349706975
20
18.113171154733152
30
0
10
537.55088828477506
20
18.101200999387999
30
0
10
537.55664194610904
20
18.089183294981837
30
0
10
537.56234119371084
20
18.077117362005666
30
0
10
537.56794761912306
20
18.065247943797758
30
0
10
537.57350138941649
20
18.053331855603147
30
0
10
537.57899937583693
20
18.041368265994961
30
0
10
537.5844774038095
20
18.029448105864532
30
0
10
537.58990005292503
20
18.017480789351197
30
0
10
537.59526422147803
20
18.005465302294539
30
0
10
537.60060883116114
20
17.993493626193384
30
0
10
537.60589538686156
20
17.98147413092579
30
0
10
537.61112080434918
20
17.969405613882685
30
0
10
537.61625918036873
20
17.95753812602868
30
0
10
537.62133843892116
20
17.94562323611359
30
0
10
537.62635562133778
20
17.933659604121459
30
0
10
537.63135404027003
20
17.921740714257908
30
0
10
537.63629084764773
20
17.909773446762358
30
0
10
537.64116308205757
20
17.897756278748744
30
0
10
537.64601648511689
20
17.885785557495311
30
0
10
537.65080581470579
20
17.873765321168591
30
0
10
537.65552809619726
20
17.861693865759491
30
0
10
537.66016981226312
20
17.849828357824009
30
0
10
537.66474674969982
20
17.837913363388864
30
0
10
537.66925602445622
20
17.825947074777986
30
0
10
537.67374726268952
20
17.814028649792846
30
0
10
537.67817172163416
20
17.802058313614992
30
0
10
537.68252324439845
20
17.790043264132009
30
0
10
537.68686005264931
20
17.778068843094914
30
0
10
537.69112499947914
20
17.766048501173302
30
0
10
537.69531472566564
20
17.753982118667295
30
0
10
537.69943715991656
20
17.742109536471915
30
0
10
537.70348677101663
20
17.730192381465883
30
0
10
537.70746037652987
20
17.718230389934178
30
0
10
537.71142116935857
20
17.706306969222965
30
0
10
537.715306446824
20
17.694339001837847
30
0
10
537.71911307615824
20
17.682326070880521
30
0
10
537.72290727597249
20
17.670352364904431
30
0
10
537.7266233415379
20
17.658333989774277
30
0
10
537.73025818978351
20
17.646270369513388
30
0
10
537.73383668925794
20
17.634393763986793
30
0
10
537.7373364711832
20
17.622473306032163
30
0
10
537.74075460555741
20
17.6105082797649
30
0
10
537.74416096090999
20
17.598584485434685
30
0
10
537.7474862317556
20
17.586616430308339
30
0
10
537.75072751064829
20
17.574603225929124
30
0
10
537.75395704880225
20
17.562633536438881
30
0
10
537.75710320360167
20
17.55061902467574
30
0
10
537.76016307052532
20
17.538558621390337
30
0
10
537.76317731997267
20
17.526678018460444
30
0
10
537.76610783614774
20
17.514752881935465
30
0
10
537.76895180283464
20
17.502782005352628
30
0
10
537.77178431753975
20
17.490859332661373
30
0
10
537.77453097998023
20
17.478891287947675
30
0
10
537.77718897741113
20
17.466876507359785
30
0
10
537.78244448611667
20
17.443120357996804
30
0
10
537.78735340563003
20
17.419181654908655
30
0
10
537.79189365512582
20
17.395047956031391
30
0
10
537.79414228549604
20
17.383095359969616
30
0
10
537.79629460346928
20
17.371126002972233
30
0
10
537.79834889992696
20
17.359141278526948
30
0
10
537.80040336882223
20
17.347155548084388
30
0
10
537.80235992968994
20
17.335153753188024
30
0
10
537.8042172346793
20
17.323135123829303
30
0
10
537.80605982327199
20
17.31121172434122
30
0
10
537.80780472106403
20
17.299271755578189
30
0
10
537.80945059274313
20
17.287314402029992
30
0
10
537.8110955970343
20
17.275363350105124
30
0
10
537.81264168063603
20
17.263394932773082
30
0
10
537.81408755246309
20
17.251408284706713
30
0
10
537.81553219589694
20
17.239431820335511
30
0
10
537.81687680252662
20
17.227437158360601
30
0
10
537.81812014661853
20
17.215423376662926
30
0
10
537.81935521026116
20
17.203489604604556
30
0
10
537.82049036223134
20
17.191536968260124
30
0
10
537.82152440669802
20
17.179564483777554
30
0
10
537.82255647983891
20
17.167614823909432
30
0
10
537.82348783163013
20
17.155645390765955
30
0
10
537.82431718101316
20
17.143655112777196
30
0
10
537.82514443884736
20
17.131695073252189
30
0
10
537.82587020089591
20
17.119714292063861
30
0
10
537.82649311906209
20
17.107711628897988
30
0
10
537.82711249998442
20
17.095777122911073
30
0
10
537.82763018837761
20
17.083820982124394
30
0
10
537.82804492096557
20
17.071842027337993
30
0
10
537.82845841688504
20
17.05989879194675
30
0
10
537.82876955935842
20
17.047932879919756
30
0
10
537.82897728140699
20
17.035943052217419
30
0
10
537.82918443178414
20
17.023986221687366
30
0
10
537.82928872483683
20
17.012005609417429
30
0
10
537.82928932188099
20
16.999999880775079
30
0
0
SPLINE
5
133
100
AcDbEntity
8
OUTER_PROFILES
100
AcDbSpline
70
0
71
3
72
14
73
10
74
0
42
0.000000001
43
0.0000000001
44
0.0000000001
40
-0.19017592685227896
40
-0.19017592685227896
40
-0.19017592685227896
40
-0.19017592685227896
40
-0.18668327306060065
40
-0.18668327306060065
40
-0.18668327306060065
40
-0.18319467389974581
40
-0.18319467389974581
40
-0.18319467389974581
40
-0.18027198445806786
40
-0.18027198445806786
40
-0.18027198445806786
40
-0.18027198445806786
10
536.82928932188156
20
19.261946591359589
30
0
10
536.83759835460035
20
19.249981644707646
30
0
10
536.84591035581718
20
19.238012402855063
30
0
10
536.85422333176621
20
19.226038010778552
30
0
10
536.86252665715995
20
19.214077519804817
30
0
10
536.87083095429216
20
19.202111889760403
30
0
10
536.87913423914313
20
19.190140253840724
30
0
10
536.88609059091834
20
19.180110619512192
30
0
10
536.89304623249257
20
19.170076769955813
30
0
10
536.89999999999998
20
19.160038187325341
30
0
0
LINE
5
134
100
AcDbEntity
8
OUTER_PROFILES
100
AcDbLine
10
536.82928932188156
20
19.261946591359589
30
0
11
536.89999999999986
21
19.332657269478233
31
0
0
SPLINE
5
135
100
AcDbEntity
8
OUTER_PROFILES
100
AcDbSpline
70
0
71
3
72
14
73
10
74
0
42
0.000000001
43
0.0000000001
44
0.0000000001
40
-0.010030481138063891
40
-0.010030481138063891
40
-0.010030481138063891
40
-0.010030481138063891
40
-0.0070633764510568547
40
-0.0070633764510568547
40
-0.0070633764510568547
40
-0.003529493922524724
40
-0.003529493922524724
40
-0.003529493922524724
40
-0
40
-0
40
-0
40
-0
10
537.00190840416963
20
19.261946591359447
30
0
10
536.99187976168741
20
19.2688934735407
30
0
10
536.98184593966914
20
19.275849087519106
30
0
10
536.97180633752532
20
19.282812352894751
30
0
10
536.95984896549044
20
19.291105744752599
30
0
10
536.94788339568379
20
19.29940999082973
30
0
10
536.93590858062737
20
19.307723260313523
30
0
10
536.92394863667789
20
19.316026205836607
30
0
10
536.91197946962961
20
19.324338151698228
30
0
10
536.89999999999986
20
19.332657269478233
30
0
0
SPLINE
5
136
100
AcDbEntity
8
OUTER_PROFILES
100
AcDbSpline
70
0
71
3
72
185
73
181
74
0
42
0.000000001
43
0.0000000001
44
0.0000000001
40
-0.21612597909269651
40
-0.21612597909269651
40
-0.21612597909269651
40
-0.21612597909269651
40
-0.21305622822406037
40
-0.21305622822406037
40
-0.21305622822406037
40
-0.20997767234423564
40
-0.20997767234423564
40
-0.20997767234423564
40
-0.20688883919094239
40
-0.20688883919094239
40
-0.20688883919094239
40
-0.20378128553717295
40
-0.20378128553717295
40
-0.20378128553717295
40
-0.20066478528931048
40
-0.20066478528931048
40
-0.20066478528931048
40
-0.19754123263146456
40
-0.19754123263146456
40
-0.19754123263146456
40
-0.19439561733063734
40
-0.19439561733063734
40
-0.19439561733063734
40
-0.19124618829600182
40
-0.19124618829600182
40
-0.19124618829600182
40
-0.18809394122958797
40
-0.18809394122958797
40
-0.18809394122958797
40
-0.18491532472975805
40
-0.18491532472975805
40
-0.18491532472975805
40
-0.18173575257788721
40
-0.18173575257788721
40
-0.18173575257788721
40
-0.17855617181354697
40
-0.17855617181354697
40
-0.17855617181354697
40
-0.1753360737295738
40
-0.1753360737295738
40
-0.1753360737295738
40
-0.17210073520755403
40
-0.17210073520755403
40
-0.17210073520755403
40
-0.16885110877015375
40
-0.16885110877015375
40
-0.16885110877015375
40
-0.16555119367897547
40
-0.16555119367897547
40
-0.16555119367897547
40
-0.16223829374217349
40
-0.16223829374217349
40
-0.16223829374217349
40
-0.15891308124524403
40
-0.15891308124524403
40
-0.15891308124524403
40
-0.15553477173590019
40
-0.15553477173590019
40
-0.15553477173590019
40
-0.15214479051801988
40
-0.15214479051801988
40
-0.15214479051801988
40
-0.1487433726519248
40
-0.1487433726519248
40
-0.1487433726519248
40
-0.14528608521958028
40
-0.14528608521958028
40
-0.14528608521958028
40
-0.14181709940475357
40
-0.14181709940475357
40
-0.14181709940475357
40
-0.13833622206585994
40
-0.13833622206585994
40
-0.13833622206585994
40
-0.13479661868968779
40
-0.13479661868968779
40
-0.13479661868968779
40
-0.13125462306039207
40
-0.13125462306039207
40
-0.13125462306039207
40
-0.12772376565336024
40
-0.12772376565336024
40
-0.12772376565336024
40
-0.12415827067391202
40
-0.12415827067391202
40
-0.12415827067391202
40
-0.12060535772817702
40
-0.12060535772817702
40
-0.12060535772817702
40
-0.11706550350599278
40
-0.11706550350599278
40
-0.11706550350599278
40
-0.1134940132650319
40
-0.1134940132650319
40
-0.1134940132650319
40
-0.10993675149651495
40
-0.10993675149651495
40
-0.10993675149651495
40
-0.10639406870823725
40
-0.10639406870823725
40
-0.10639406870823725
40
-0.10282334627364617
40
-0.10282334627364617
40
-0.10282334627364617
40
-0.099268164131896125
40
-0.099268164131896125
40
-0.099268164131896125
40
-0.09572877389374751
40
-0.09572877389374751
40
-0.09572877389374751
40
-0.092165419463180812
40
-0.092165419463180812
40
-0.092165419463180812
40
-0.088618643975165806
40
-0.088618643975165806
40
-0.088618643975165806
40
-0.085088623102959698
40
-0.085088623102959698
40
-0.085088623102959698
40
-0.081539087856785958
40
-0.081539087856785958
40
-0.081539087856785958
40
-0.078006959705629333
40
-0.078006959705629333
40
-0.078006959705629333
40
-0.074491779590292073
40
-0.074491779590292073
40
-0.074491779590292073
40
-0.07095196597253578
40
-0.07095196597253578
40
-0.07095196597253578
40
-0.067417186436871626
40
-0.067417186436871626
40
-0.067417186436871626
40
-0.063887560569675095
40
-0.063887560569675095
40
-0.063887560569675095
40
-0.060334668360988594
40
-0.060334668360988594
40
-0.060334668360988594
40
-0.056787212323904511
40
-0.056787212323904511
40
-0.056787212323904511
40
-0.053245265525433322
40
-0.053245265525433322
40
-0.053245265525433322
40
-0.049684714926602147
40
-0.049684714926602147
40
-0.049684714926602147
40
-0.046129798301893357
40
-0.046129798301893357
40
-0.046129798301893357
40
-0.042580517300000675
40
-0.042580517300000675
40
-0.042580517300000675
40
-0.03901735851045976
40
-0.03901735851045976
40
-0.03901735851045976
40
-0.035459999074400603
40
-0.035459999074400603
40
-0.035459999074400603
40
-0.031908493760080731
40
-0.031908493760080731
40
-0.031908493760080731
40
-0.02834804441230775
40
-0.02834804441230775
40
-0.02834804441230775
40
-0.024793325432780115
40
-0.024793325432780115
40
-0.024793325432780115
40
-0.021244222779739624
40
-0.021244222779739624
40
-0.021244222779739624
40
-0.017690941497337881
40
-0.017690941497337881
40
-0.017690941497337881
40
-0.014143719795465085
40
-0.014143719795465085
40
-0.014143719795465085
40
-0.010030481140945289
40
-0.010030481140945289
40
-0.010030481140945289
40
-0.010030481140945289
10
539.1619467105802
20
18.332657269478787
30
0
10
539.14995338347694
20
18.332657866206077
30
0
10
539.137961146105
20
18.332762146615877
30
0
10
539.12600353907555
20
18.332969310533542
30
0
10
539.11401163386745
20
18.333177068662536
30
0
10
539.10204573233034
20
18.333488246690095
30
0
10
539.09010456396959
20
18.333901670939383
30
0
10
539.07812353190081
20
18.334316475340415
30
0
10
539.06616739988726
20
18.334834198971208
30
0
10
539.05423496245703
20
18.335453472297587
30
0
10
539.04223020606673
20
18.336076498855789
30
0
10
539.03024943165383
20
18.336802296296781
30
0
10
539.0182914785878
20
18.337629409552889
30
0
10
539.0062990987783
20
18.338458904053994
30
0
10
538.99432967004418
20
18.339390291381932
30
0
10
538.98238210748809
20
18.340422183245906
30
0
10
538.97040750848009
20
18.341456410204984
30
0
10
538.95845487396309
20
18.342591598156446
30
0
10
538.94652321433387
20
18.343826443253377
30
0
10
538.93450727760865
20
18.345070010452815
30
0
10
538.92251261474837
20
18.346414654295131
30
0
10
538.91053830586327
20
18.347859037974388
30
0
10
538.89854947936487
20
18.349305172819825
30
0
10
538.88658105840045
20
18.350851294301549
30
0
10
538.8746321881323
20
18.352495998567093
30
0
10
538.86267262630838
20
18.354142174473651
30
0
10
538.85073265125766
20
18.355887110769231
30
0
10
538.83881146621093
20
18.357729357296577
30
0
10
538.82679055709798
20
18.359587014734302
30
0
10
538.81478875314554
20
18.36154361567921
30
0
10
538.80280531180563
20
18.363597692179567
30
0
10
538.79081826764025
20
18.365652386238622
30
0
10
538.77884959685753
20
18.367804613807692
30
0
10
538.76689863483591
20
18.370052936656407
30
0
10
538.75494764044277
20
18.372301265595041
30
0
10
538.74300777112057
20
18.374647047359645
30
0
10
538.73109971808788
20
18.377084463692199
30
0
10
538.71903992102773
20
18.379552939961172
30
0
10
538.70703063260646
20
18.38211161396984
30
0
10
538.69507008424375
20
18.384757613738216
30
0
10
538.68305292766854
20
18.387416136788346
30
0
10
538.67108497387721
20
18.390162816492079
30
0
10
538.65916458621541
20
18.392994788367787
30
0
10
538.64719155568832
20
18.395839266809517
30
0
10
538.63526651240932
20
18.398769794128782
30
0
10
538.6233879699646
20
18.40178352083413
30
0
10
538.61132560457281
20
18.40484388559517
30
0
10
538.59931118984093
20
18.407990045810649
30
0
10
538.58734336522821
20
18.41121908080197
30
0
10
538.57532844838715
20
18.41446082173249
30
0
10
538.56336048926107
20
18.417786092311417
30
0
10
538.5514383113815
20
18.421191985871346
30
0
10
538.53947182412503
20
18.424610537606867
30
0
10
538.52755145970423
20
18.428110314179094
30
0
10
538.51567622184189
20
18.431688401575883
30
0
10
538.50361136011247
20
18.43532362389297
30
0
10
538.49159307818388
20
18.439039679283553
30
0
10
538.47962052084063
20
18.442833515160615
30
0
10
538.4676065995551
20
18.446640458346621
30
0
10
538.45563872048524
20
18.450525721691946
30
0
10
538.44371620219749
20
18.454486214798393
30
0
10
538.43175346137173
20
18.458460069266849
30
0
10
538.4198363889949
20
18.46250966299209
30
0
10
538.40796447371895
20
18.466631865693728
30
0
10
538.39589755777467
20
18.470821777123234
30
0
10
538.38387729519593
20
18.475086703184473
30
0
10
538.37190332814305
20
18.479423346979047
30
0
10
538.35988884491996
20
18.483774664623738
30
0
10
538.34792097218383
20
18.488198186897762
30
0
10
538.33599951705014
20
18.492690566917105
30
0
10
538.32403719571562
20
18.497198346608954
30
0
10
538.31212161192514
20
18.501775457540361
30
0
10
538.30025272559612
20
18.506418495161938
30
0
10
538.28818359875504
20
18.511139865678956
30
0
10
538.27616275917171
20
18.515929406649008
30
0
10
538.26419031240118
20
18.520783509293892
30
0
10
538.25220977401136
20
18.525640892600777
30
0
10
538.24024683689913
20
18.530575373711002
30
0
10
538.2282869870902
20
18.535590970015718
30
0
10
538.21636474643708
20
18.540590794187395
30
0
10
538.20444982388631
20
18.545669503572313
30
0
10
538.19254097747285
20
18.550825787010297
30
0
10
538.18051530574417
20
18.556032653386225
30
0
10
538.16849583018814
20
18.561318623662331
30
0
10
538.15648128914415
20
18.566682369884262
30
0
10
538.14450914540043
20
18.572027188345572
30
0
10
538.13254190172529
20
18.577449235229722
30
0
10
538.12057832542632
20
18.582947215524541
30
0
10
538.1086587212252
20
18.58842498800513
30
0
10
538.0967427578197
20
18.593978137114675
30
0
10
538.08482922935013
20
18.599605397648276
30
0
10
538.07280922852692
20
18.605282949552375
30
0
10
538.06079170665703
20
18.611035943784486
30
0
10
538.04877543658404
20
18.616863094288902
30
0
10
538.03680703817145
20
18.622667029988094
30
0
10
538.02483988194217
20
18.628544532585494
30
0
10
538.01287276420555
20
18.634494342433854
30
0
10
538.0009546921633
20
18.640419767751126
30
0
10
537.98903665861894
20
18.646416909117178
30
0
10
537.97711748122742
20
18.652484531707074
30
0
10
537.96510396586143
20
18.658600178351463
30
0
10
537.95308928876455
20
18.664787426540244
30
0
10
537.94107224396305
20
18.671045020312533
30
0
10
537.92910749905298
20
18.677275380145062
30
0
10
537.91714040731017
20
18.683575474801444
30
0
10
537.90516978029893
20
18.689944071371656
30
0
10
537.89325232608735
20
18.696284379021719
30
0
10
537.88133136823853
20
18.702692581564975
30
0
10
537.8694057331046
20
18.709167467619352
30
0
10
537.85739935292804
20
18.715686193263252
30
0
10
537.84538823220885
20
18.722272508629203
30
0
10
537.83337116941777
20
18.728925181548419
30
0
10
537.82141001748198
20
18.735546902092892
30
0
10
537.80944297891472
20
18.742234364307535
30
0
10
537.79746886187411
20
18.748986355649109
30
0
10
537.78555130937536
20
18.755706451252934
30
0
10
537.7736267453754
20
18.762490467895958
30
0
10
537.76169398498143
20
18.769337211414339
30
0
10
537.74969525887309
20
18.776221804542814
30
0
10
537.73768824576382
20
18.783169820104177
30
0
10
537.72567172817821
20
18.790180044383789
30
0
10
537.71371414018427
20
18.797155890179553
30
0
10
537.70174714094833
20
18.804193336158477
30
0
10
537.68976951556385
20
18.811291185938046
30
0
10
537.67784936182693
20
18.818354978456142
30
0
10
537.66591144871472
20
18.825482965096185
30
0
10
537.65398223685895
20
18.832657269477977
30
0
10
537.64196942807234
20
18.839881849589304
30
0
10
537.62996693772277
20
18.847152416034163
30
0
10
537.61797366662404
20
18.854467113631586
30
0
10
537.60599745153934
20
18.861771408763701
30
0
10
537.59403042981046
20
18.86911970974225
30
0
10
537.58207154148261
20
18.876510173918817
30
0
10
537.57013008907825
20
18.883889862882484
30
0
10
537.55819674665042
20
18.891311592268778
30
0
10
537.54627048873613
20
18.898773530360558
30
0
10
537.53426561614697
20
18.906284655535046
30
0
10
537.52226792200292
20
18.913836521304646
30
0
10
537.51027638714868
20
18.921427261525494
30
0
10
537.49830320017497
20
18.929006387387162
30
0
10
537.4863361539467
20
18.936624268899607
30
0
10
537.4743742580614
20
18.944279050677011
30
0
10
537.46243093913324
20
18.951921944493151
30
0
10
537.45049275487872
20
18.959601624134308
30
0
10
537.43855874061364
20
18.967316245111547
30
0
10
537.42656204386594
20
18.975071386535944
30
0
10
537.41456956134653
20
18.982861837403036
30
0
10
537.40258033058331
20
18.990685725651133
30
0
10
537.3906100707668
20
18.998497233908438
30
0
10
537.37864305268192
20
19.006342073833267
30
0
10
537.36667832976161
20
19.014218381789263
30
0
10
537.35473257456192
20
19.022082203404409
30
0
10
537.34278910741875
20
19.029977393305444
30
0
10
537.33084699249093
20
19.037902095067167
30
0
10
537.31885818356068
20
19.045857782633675
30
0
10
537.30687073756724
20
19.053843213221313
30
0
10
537.29488371104617
20
19.061856507319916
30
0
10
537.28291619446236
20
19.069856759079471
30
0
10
537.27094909624475
20
19.077884783745844
30
0
10
537.25898148095803
20
19.085938712268771
30
0
10
537.24703356001999
20
19.093979386950224
30
0
10
537.2350851240675
20
19.102045880397327
30
0
10
537.22313524438107
20
19.110136335521872
30
0
10
537.21115527037841
20
19.118247165472013
30
0
10
537.19917384583357
20
19.12638207811483
30
0
10
537.18719003250442
20
19.134539204182062
30
0
10
537.17522550653382
20
19.14268320175573
30
0
10
537.16325859969629
20
19.150849341309879
30
0
10
537.15128836620681
20
19.15903576010507
30
0
10
537.13933704525016
20
19.16720924465686
30
0
10
537.12738240806539
20
19.175402944203626
30
0
10
537.11542349622528
20
19.183615001177259
30
0
10
537.10345050424598
20
19.191836726832179
30
0
10
537.09147322751073
20
19.200076852990975
30
0
10
537.07949068650851
20
19.208333513857951
30
0
10
537.06752857990659
20
19.216576094246136
30
0
10
537.05556122726739
20
19.224835153057853
30
0
10
537.04358763816879
20
19.233108835785941
30
0
10
537.02970346806239
20
19.242702719245415
30
0
10
537.01581091329797
20
19.252316265708629
30
0
10
537.00190840419862
20
19.261946591339267
30
0
0
LINE
5
137
100
AcDbEntity
8
OUTER_PROFILES
100
AcDbLine
10
539.1619467105802
20
18.332657269478787
30
0
11
556.16194671058452
21
18.332657269479355
31
0
0
LINE
5
138
100
AcDbEntity
8
OUTER_PROFILES
100
AcDbLine
10
556.16194671058452
20
18.332657269479355
30
0
11
556.1619467105844
21
580.19123591323262
31
0
0
LINE
5
139
100
AcDbEntity
8
OUTER_PROFILES
100
AcDbLine
10
556.1619467105844
20
580.19123591323262
30
0
11
539.16194671057031
21
580.19123591322682
31
0
0
SPLINE
5
140
100
AcDbEntity
8
OUTER_PROFILES
100
AcDbSpline
70
0
71
3
72
185
73
181
74
0
42
0.000000001
43
0.0000000001
44
0.0000000001
40
-0.18027201035446958
40
-0.18027201035446958
40
-0.18027201035446958
40
-0.18027201035446958
40
-0.17622987313118518
40
-0.17622987313118518
40
-0.17622987313118518
40
-0.1727527691179287
40
-0.1727527691179287
40
-0.1727527691179287
40
-0.16927783061852011
40
-0.16927783061852011
40
-0.16927783061852011
40
-0.16581503767449154
40
-0.16581503767449154
40
-0.16581503767449154
40
-0.16235482182403008
40
-0.16235482182403008
40
-0.16235482182403008
40
-0.15889711607254278
40
-0.15889711607254278
40
-0.15889711607254278
40
-0.15545857157503523
40
-0.15545857157503523
40
-0.15545857157503523
40
-0.15202954419440742
40
-0.15202954419440742
40
-0.15202954419440742
40
-0.14860975345645919
40
-0.14860975345645919
40
-0.14860975345645919
40
-0.14521752185486272
40
-0.14521752185486272
40
-0.14521752185486272
40
-0.14183369000063833
40
-0.14183369000063833
40
-0.14183369000063833
40
-0.13845791495528617
40
-0.13845791495528617
40
-0.13845791495528617
40
-0.13511274529978798
40
-0.13511274529978798
40
-0.13511274529978798
40
-0.13177502502707131
40
-0.13177502502707131
40
-0.13177502502707131
40
-0.12844461565913362
40
-0.12844461565913362
40
-0.12844461565913362
40
-0.12514810943345958
40
-0.12514810943345958
40
-0.12514810943345958
40
-0.12185869324209199
40
-0.12185869324209199
40
-0.12185869324209199
40
-0.1185763929423765
40
-0.1185763929423765
40
-0.1185763929423765
40
-0.11533141650479881
40
-0.11533141650479881
40
-0.11533141650479881
40
-0.11209365589549584
40
-0.11209365589549584
40
-0.11209365589549584
40
-0.10886332083976878
40
-0.10886332083976878
40
-0.10886332083976878
40
-0.10567379244646229
40
-0.10567379244646229
40
-0.10567379244646229
40
-0.10249212294377961
40
-0.10249212294377961
40
-0.10249212294377961
40
-0.099319140424550006
40
-0.099319140424550006
40
-0.099319140424550006
40
-0.096195146018601088
40
-0.096195146018601088
40
-0.096195146018601088
40
-0.093084940809791558
40
-0.093084940809791558
40
-0.093084940809791558
40
-0.089987817977845094
40
-0.089987817977845094
40
-0.089987817977845094
40
-0.08694028264339497
40
-0.08694028264339497
40
-0.08694028264339497
40
-0.083904491099116116
40
-0.083904491099116116
40
-0.083904491099116116
40
-0.080880105724185747
40
-0.080880105724185747
40
-0.080880105724185747
40
-0.077904977727945121
40
-0.077904977727945121
40
-0.077904977727945121
40
-0.074940649840277485
40
-0.074940649840277485
40
-0.074940649840277485
40
-0.071987130488708348
40
-0.071987130488708348
40
-0.071987130488708348
40
-0.069082808849692728
40
-0.069082808849692728
40
-0.069082808849692728
40
-0.066189348919037286
40
-0.066189348919037286
40
-0.066189348919037286
40
-0.06330707231683573
40
-0.06330707231683573
40
-0.06330707231683573
40
-0.060473969379595427
40
-0.060473969379595427
40
-0.060473969379595427
40
-0.057652198488044704
40
-0.057652198488044704
40
-0.057652198488044704
40
-0.054839969320191556
40
-0.054839969320191556
40
-0.054839969320191556
40
-0.052072907874760495
40
-0.052072907874760495
40
-0.052072907874760495
40
-0.049314768695631409
40
-0.049314768695631409
40
-0.049314768695631409
40
-0.046565635505346606
40
-0.046565635505346606
40
-0.046565635505346606
40
-0.043859120435205567
40
-0.043859120435205567
40
-0.043859120435205567
40
-0.041161932153156174
40
-0.041161932153156174
40
-0.041161932153156174
40
-0.038474513803178234
40
-0.038474513803178234
40
-0.038474513803178234
40
-0.03582716036347422
40
-0.03582716036347422
40
-0.03582716036347422
40
-0.033190467195815095
40
-0.033190467195815095
40
-0.033190467195815095
40
-0.030565128383019866
40
-0.030565128383019866
40
-0.030565128383019866
40
-0.02797708220675765
40
-0.02797708220675765
40
-0.02797708220675765
40
-0.025395070816133365
40
-0.025395070816133365
40
-0.025395070816133365
40
-0.022812842734237344
40
-0.022812842734237344
40
-0.022812842734237344
40
-0.020251075046718355
40
-0.020251075046718355
40
-0.020251075046718355
40
-0.017690657482252518
40
-0.017690657482252518
40
-0.017690657482252518
40
-0.015132415251783818
40
-0.015132415251783818
40
-0.015132415251783818
40
-0.012591210483953627
40
-0.012591210483953627
40
-0.012591210483953627
40
-0.010054850348391577
40
-0.010054850348391577
40
-0.010054850348391577
40
-0.0075248867199850513
40
-0.0075248867199850513
40
-0.0075248867199850513
40
-0.005009289526311105
40
-0.005009289526311105
40
-0.005009289526311105
40
-0.0025011934844021968
40
-0.0025011934844021968
40
-0.0025011934844021968
40
-4.0445424838969668e-13
40
-4.0445424838969668e-13
40
-4.0445424838969668e-13
40
-4.0445424838969668e-13
10
537.00190840403593
20
579.26194659135967
30
0
10
537.01579196005196
20
579.27156378775783
30
0
10
537.02968456506778
20
579.2811774009017
30
0
10
537.0435876383134
20
579.29078434592748
30
0
10
537.05554725994637
20
579.29904837687434
30
0
10
537.06751462856698
20
579.30730747344762
30
0
10
537.07949068661446
20
579.3155596669983
30
0
10
537.09145928606426
20
579.32380672114573
30
0
10
537.10343656380428
20
579.33204688093849
30
0
10
537.11542349624597
20
579.34027817941501
30
0
10
537.12736853213278
20
579.34848070797489
30
0
10
537.13932315537795
20
579.35667443690261
30
0
10
537.15128836618635
20
579.36485742094885
30
0
10
537.16324467219783
20
579.37303431502198
30
0
10
537.17521155007546
20
579.3812004800244
30
0
10
537.1871900324852
20
579.38935397775128
30
0
10
537.19915982550151
20
579.39750156079333
30
0
10
537.2111412059578
20
579.40563649499063
30
0
10
537.22313524436902
20
579.41375684719412
30
0
10
537.23506281650668
20
579.42183219957917
30
0
10
537.24700712137644
20
579.42989600347562
30
0
10
537.25898148095257
20
579.43795447077741
30
0
10
537.27092269819775
20
579.44599063405622
30
0
10
537.28289001201256
20
579.45401892105349
30
0
10
537.29488371104526
20
579.46203667563486
30
0
10
537.30684510309993
20
579.47003283309073
30
0
10
537.31883273808864
20
579.47801851471968
30
0
10
537.33084699249218
20
579.48599108764802
30
0
10
537.34276442738224
20
579.49389941184279
30
0
10
537.35470805425803
20
579.50179483761804
30
0
10
537.36667832976434
20
579.50967480079453
30
0
10
537.37861896481502
20
579.5175352518304
30
0
10
537.39058611643736
20
579.52538031664744
30
0
10
537.40258033058649
20
579.53320745696419
30
0
10
537.41454598684766
20
579.54101596107898
30
0
10
537.42653857656035
20
579.54880662594758
30
0
10
537.43855874061501
20
579.55657693760224
30
0
10
537.45046992767834
20
579.56427680219986
30
0
10
537.46240819103321
20
579.57195668106817
30
0
10
537.47437425805992
20
579.5796141320925
30
0
10
537.48631367776443
20
579.58725453068325
30
0
10
537.4982807770084
20
579.59487260133335
30
0
10
537.51027638714709
20
579.60246592123008
30
0
10
537.5222457222369
20
579.61004260880475
30
0
10
537.53424344304062
20
579.61759465407579
30
0
10
537.5462704887376
20
579.6251196523524
30
0
10
537.55817510064469
20
579.63256804710727
30
0
10
537.57010844320723
20
579.63998994289125
30
0
10
537.58207154148795
20
579.64738300876991
30
0
10
537.59400890986808
20
579.65476017384742
30
0
10
537.60597590570626
20
579.66210863311471
30
0
10
537.61797366662995
20
579.66942606906252
30
0
10
537.62994547317101
20
579.67672767542888
30
0
10
537.6419479114013
20
579.68399839285132
30
0
10
537.65398223686111
20
579.6912359132341
30
0
10
537.6658797169797
20
579.69839113395255
30
0
10
537.67780836301074
20
579.70551390867922
30
0
10
537.68976951556124
20
579.71260199678443
30
0
10
537.70170407019191
20
579.71967432316444
30
0
10
537.7136709865074
20
579.7267121174516
30
0
10
537.72567172817458
20
579.73371313833593
30
0
10
537.73764494706882
20
579.74069810292031
30
0
10
537.74965183593531
20
579.74764646308813
30
0
10
537.76169398498405
20
579.7545559712969
30
0
10
537.77358401361744
20
579.76137819630935
30
0
10
537.7855084170975
20
579.76816254525659
30
0
10
537.79746886188718
20
579.77490682705695
30
0
10
537.80939983654343
20
579.78163449117403
30
0
10
537.82136667478778
20
579.78832228599026
30
0
10
537.83337116943471
20
579.79496800115862
30
0
10
537.84534288794123
20
579.80159557138211
30
0
10
537.85734800844227
20
579.80817911254439
30
0
10
537.86940573310676
20
579.81472571509119
30
0
10
537.88127729690268
20
579.82117124374145
30
0
10
537.89319869756707
20
579.82758027232717
30
0
10
537.90516978027529
20
579.83394911134076
30
0
10
537.91708802306198
20
579.8402898385317
30
0
10
537.92905550953128
20
579.84659073026364
30
0
10
537.94107224393201
20
579.85284816239937
30
0
10
537.95303843264924
20
579.85907927405788
30
0
10
537.96505345508069
20
579.86526729115303
30
0
10
537.97711748122993
20
579.87140865100264
30
0
10
537.9889883523449
20
579.87745168260301
30
0
10
538.00090667011557
20
579.88344953934143
30
0
10
538.01287276426376
20
579.88939884027377
30
0
10
538.02479274662539
20
579.89532521535489
30
0
10
538.0367601370391
20
579.90120340851922
30
0
10
538.04877543666089
20
579.90703008841876
30
0
10
538.06074559202943
20
579.91283487613737
30
0
10
538.07276329642275
20
579.91858853747135
30
0
10
538.08482922935286
20
579.92428778506087
30
0
10
538.09669864756881
20
579.92989421048594
30
0
10
538.10861473574039
20
579.93544798077994
30
0
10
538.12057832530115
20
579.94094596718651
30
0
10
538.13249848544763
20
579.9464239951742
30
0
10
538.14446580195374
20
579.95184664429007
30
0
10
538.15648128898385
20
579.95721081282693
30
0
10
538.16845296512997
20
579.96255542252561
30
0
10
538.18047246042408
20
579.96784197822478
30
0
10
538.19254097747546
20
579.97306739569842
30
0
10
538.20440846539452
20
579.97820577172888
30
0
10
538.21632335535764
20
579.98328503027915
30
0
10
538.2282869873759
20
579.98830221268918
30
0
10
538.24020587728285
20
579.99330063162233
30
0
10
538.25217314480051
20
579.99823743899651
30
0
10
538.26419031280852
20
580.00310967340988
30
0
10
538.27616103402283
20
580.0079630764593
30
0
10
538.28818127028251
20
580.01275240604571
30
0
10
538.30025272559828
20
580.0174746875457
30
0
10
538.3121182334005
20
580.02211640360372
30
0
10
538.32403322767721
20
580.02669334104303
30
0
10
538.33599951611893
20
580.03120261579784
30
0
10
538.34791794095304
20
580.03569385403614
30
0
10
538.35988827693075
20
580.04011831296668
30
0
10
538.37190332632872
20
580.0444698357378
30
0
10
538.38387774723981
20
580.0488066439807
30
0
10
538.39589808912717
20
580.05307159081531
30
0
10
538.40796447168475
20
580.05726131701351
30
0
10
538.41983705388498
20
580.06138375125988
30
0
10
538.43175420897796
20
580.06543336236336
30
0
10
538.44371620066659
20
580.06940696789275
30
0
10
538.45563962144593
20
580.07336776070815
30
0
10
538.46760758896812
20
580.07725303817404
30
0
10
538.4796205201211
20
580.08105966752566
30
0
10
538.49159422616015
20
580.08485386731547
30
0
10
538.50361260141142
20
580.08856993287384
30
0
10
538.51567622184393
20
580.09220478113116
30
0
10
538.52755282739236
20
580.09578328057262
30
0
10
538.53947328541699
20
580.0992830624848
30
0
10
538.55143831179373
20
580.10270119687073
30
0
10
538.56336210608322
20
580.10610755219238
30
0
10
538.57533016120681
20
580.10943282303401
30
0
10
538.58734336561679
20
580.11267410195057
30
0
10
538.59931305501084
20
580.11590364009442
30
0
10
538.6113275667102
20
580.11904979491294
30
0
10
538.62338796996687
20
580.12210966187263
30
0
10
538.63526857279362
20
580.12512391133657
30
0
10
538.64719370924922
20
580.12805442754564
30
0
10
538.65916458580364
20
580.13089839425993
30
0
10
538.67108725844275
20
580.13373090898654
30
0
10
538.68305530314478
20
580.13647757144236
30
0
10
538.69507008376456
20
580.13913556886257
30
0
10
538.7070331253027
20
580.14178212018567
30
0
10
538.71904250046907
20
580.14434077071371
30
0
10
538.73109971808924
20
580.14680871901385
30
0
10
538.74298566431696
20
580.14924161039153
30
0
10
538.75491810333745
20
580.15158636035255
30
0
10
538.76689863577712
20
580.15384024626178
30
0
10
538.77885123210592
20
580.15608887657766
30
0
10
538.79082058910353
20
580.15824119445347
30
0
10
538.80280531377662
20
580.16029549090285
30
0
10
538.81479104424909
20
580.16234995975583
30
0
10
538.8267928392354
20
580.16430652064275
30
0
10
538.83881146874467
20
580.16616382572136
30
0
10
538.85073486813019
20
580.16800641436384
30
0
10
538.86267483685015
20
580.169751312279
30
0
10
538.87463219042957
20
580.17139718411545
30
0
10
538.8865832421501
20
580.17304218853155
30
0
10
538.89855165935148
20
580.17458827229609
30
0
10
538.91053830737474
20
580.17603414426628
30
0
10
538.92251477152661
20
580.17747878782177
30
0
10
538.93450943336893
20
580.1788233945565
30
0
10
538.94652321502349
20
580.18006673869877
30
0
10
538.95845698691437
20
580.18130180237836
30
0
10
538.97040962317885
20
580.18243695433364
30
0
10
538.98238210766044
20
580.18347099873972
30
0
10
538.99433176742309
20
580.18450307181138
30
0
10
539.00630120053916
20
580.18543442348926
30
0
10
539.01829147856904
20
580.18626377274757
30
0
10
539.03025151803081
20
580.18709103045023
30
0
10
539.04223229922354
20
580.18781679235769
30
0
10
539.05423496245726
20
580.18843971040826
30
0
10
539.06616946839574
20
580.18905909120963
30
0
10
539.07812560919615
20
580.18957677950868
30
0
10
539.09010456406054
20
580.18999151204798
30
0
10
539.10204779939136
20
580.19040500791391
30
0
10
539.11401371142142
20
580.19071615038092
30
0
10
539.12600353919458
20
580.1909238724736
30
0
10
539.1379603696347
20
580.19113102289214
30
0
10
539.14994098188163
20
580.19123531603907
30
0
10
539.16194671057406
20
580.19123591322682
30
0
0
SPLINE
5
141
100
AcDbEntity
8
OUTER_PROFILES
100
AcDbSpline
70
0
71
3
72
14
73
10
74
0
42
0.000000001
43
0.0000000001
44
0.0000000001
40
-0.1901759541933655
40
-0.1901759541933655
40
-0.1901759541933655
40
-0.1901759541933655
40
-0.18668329989414512
40
-0.18668329989414512
40
-0.18668329989414512
40
-0.183194700224143
40
-0.183194700224143
40
-0.183194700224143
40
-0.18027201035445972
40
-0.18027201035445972
40
-0.18027201035445972
40
-0.18027201035445972
10
536.89999999999986
20
579.19123591324092
30
0
10
536.91196494665132
20
579.19954494595936
30
0
10
536.92393418850156
20
579.20785694717415
30
0
10
536.93590858057337
20
579.21616992311976
30
0
10
536.94786907155003
20
579.22447324851521
30
0
10
536.95983470159535
20
579.23277754564776
30
0
10
536.97180633751361
20
579.24108083049771
30
0
10
536.98183597184595
20
579.24803718227554
30
0
10
536.99186982140452
20
579.25499282385147
30
0
10
537.00190840403582
20
579.26194659135979
30
0
0
LINE
5
142
100
AcDbEntity
8
OUTER_PROFILES
100
AcDbLine
10
536.89999999999986
20
579.19123591324092
30
0
11
536.82928932188133
21
579.26194659135967
31
0
0
SPLINE
5
143
100
AcDbEntity
8
OUTER_PROFILES
100
AcDbSpline
70
0
71
3
72
14
73
10
74
0
42
0.000000001
43
0.0000000001
44
0.0000000001
40
-0.01003048079268183
40
-0.01003048079268183
40
-0.01003048079268183
40
-0.01003048079268183
40
-0.0070633762256276898
40
-0.0070633762256276898
40
-0.0070633762256276898
40
-0.0035294938266385995
40
-0.0035294938266385995
40
-0.0035294938266385995
40
-0
40
-0
40
-0
40
-0
10
536.89999999999975
20
579.36385499576431
30
0
10
536.89305311750002
20
579.35382635314329
30
0
10
536.88609750329601
20
579.34379253105158
30
0
10
536.87913423780299
20
579.33375292888343
30
0
10
536.87084084577407
20
579.32179555677442
30
0
10
536.86253659967906
20
579.30982998696368
30
0
10
536.85422333034239
20
579.29785517196524
30
0
10
536.84592038488734
20
579.2858952279604
30
0
10
536.83760843925836
20
579.27392606091871
30
0
10
536.82928932188133
20
579.26194659135956
30
0
0
SPLINE
5
144
100
AcDbEntity
8
OUTER_PROFILES
100
AcDbSpline
70
0
71
3
72
179
73
175
74
0
42
0.000000001
43
0.0000000001
44
0.0000000001
40
-0.21612590120604719
40
-0.21612590120604719
40
-0.21612590120604719
40
-0.21612590120604719
40
-0.21305615162696059
40
-0.21305615162696059
40
-0.21305615162696059
40
-0.2068887651772055
40
-0.2068887651772055
40
-0.2068887651772055
40
-0.20378121282498854
40
-0.20378121282498854
40
-0.20378121282498854
40
-0.20066471388240426
40
-0.20066471388240426
40
-0.20066471388240426
40
-0.19754116253279405
40
-0.19754116253279405
40
-0.19754116253279405
40
-0.19439554854943764
40
-0.19439554854943764
40
-0.19439554854943764
40
-0.19124612083384965
40
-0.19124612083384965
40
-0.19124612083384965
40
-0.18491525991926608
40
-0.18491525991926608
40
-0.18491525991926608
40
-0.1817356890992991
40
-0.1817356890992991
40
-0.1817356890992991
40
-0.17855610966692248
40
-0.17855610966692248
40
-0.17855610966692248
40
-0.17533601293157919
40
-0.17533601293157919
40
-0.17533601293157919
40
-0.17210067576453791
40
-0.17210067576453791
40
-0.17210067576453791
40
-0.16885105068806061
40
-0.16885105068806061
40
-0.16885105068806061
40
-0.16555113697879481
40
-0.16555113697879481
40
-0.16555113697879481
40
-0.16223823842933757
40
-0.16223823842933757
40
-0.16223823842933757
40
-0.15891302732494378
40
-0.15891302732494378
40
-0.15891302732494378
40
-0.15553471923037962
40
-0.15553471923037962
40
-0.15553471923037962
40
-0.15214473943212325
40
-0.15214473943212325
40
-0.15214473943212325
40
-0.14874332299040222
40
-0.14874332299040222
40
-0.14874332299040222
40
-0.14528603700583986
40
-0.14528603700583986
40
-0.14528603700583986
40
-0.14181705264371025
40
-0.14181705264371025
40
-0.14181705264371025
40
-0.1383361767625938
40
-0.1383361767625938
40
-0.1383361767625938
40
-0.13479657486881066
40
-0.13479657486881066
40
-0.13479657486881066
40
-0.13125458072671581
40
-0.13125458072671581
40
-0.13125458072671581
40
-0.12772372480948579
40
-0.12772372480948579
40
-0.12772372480948579
40
-0.12415823134184079
40
-0.12415823134184079
40
-0.12415823134184079
40
-0.12060531991015577
40
-0.12060531991015577
40
-0.12060531991015577
40
-0.11706546720408774
40
-0.11706546720408774
40
-0.11706546720408774
40
-0.11349397850055272
40
-0.11349397850055272
40
-0.11349397850055272
40
-0.10993671827097437
40
-0.10993671827097437
40
-0.10993671827097437
40
-0.10639403702305479
40
-0.10639403702305479
40
-0.10639403702305479
40
-0.10282331614907256
40
-0.10282331614907256
40
-0.10282331614907256
40
-0.099268135569602706
40
-0.099268135569602706
40
-0.099268135569602706
40
-0.095728746895460723
40
-0.095728746895460723
40
-0.095728746895460723
40
-0.092165394048103894
40
-0.092165394048103894
40
-0.092165394048103894
40
-0.088618620144587643
40
-0.088618620144587643
40
-0.088618620144587643
40
-0.085088600857989583
40
-0.085088600857989583
40
-0.085088600857989583
40
-0.081539067215135944
40
-0.081539067215135944
40
-0.081539067215135944
40
-0.078006940669266583
40
-0.078006940669266583
40
-0.078006940669266583
40
-0.074491762157939317
40
-0.074491762157939317
40
-0.074491762157939317
40
-0.070951950101333275
40
-0.070951950101333275
40
-0.070951950101333275
40
-0.067417172050131702
40
-0.067417172050131702
40
-0.067417172050131702
40
-0.063887547590853772
40
-0.063887547590853772
40
-0.063887547590853772
40
-0.060334656726055085
40
-0.060334656726055085
40
-0.060334656726055085
40
-0.05678720196136653
40
-0.05678720196136653
40
-0.05678720196136653
40
-0.053245256367193371
40
-0.053245256367193371
40
-0.053245256367193371
40
-0.049684706910777282
40
-0.049684706910777282
40
-0.049684706910777282
40
-0.046129791351023942
40
-0.046129791351023942
40
-0.046129791351023942
40
-0.042580511330117525
40
-0.042580511330117525
40
-0.042580511330117525
40
-0.039017353446015195
40
-0.039017353446015195
40
-0.039017353446015195
40
-0.035459994851372731
40
-0.035459994851372731
40
-0.035459994851372731
40
-0.031908490332909822
40
-0.031908490332909822
40
-0.031908490332909822
40
-0.028348041739554811
40
-0.028348041739554811
40
-0.028348041739554811
40
-0.024793323444295037
40
-0.024793323444295037
40
-0.024793323444295037
40
-0.021244221369896212
40
-0.021244221369896212
40
-0.021244221369896212
40
-0.017690940539291329
40
-0.017690940539291329
40
-0.017690940539291329
40
-0.014143719166023791
40
-0.014143719166023791
40
-0.014143719166023791
40
-0.010030480795563877
40
-0.010030480795563877
40
-0.010030480795563877
40
-0.010030480795563877
10
537.82928932188088
20
581.5238933019441
30
0
10
537.82928872515322
20
581.51189997473136
30
0
10
537.82918444474319
20
581.49990773745549
30
0
10
537.82897728082571
20
581.48795013043991
30
0
10
537.82856107099963
20
581.46392628693775
30
0
10
537.82772960524699
20
581.44000672665902
30
0
10
537.82649311906187
20
581.41618155382116
30
0
10
537.82587009250369
20
581.40417679743086
30
0
10
537.82514429506239
20
581.39219602301773
30
0
10
537.82431718180612
20
581.38023806995182
30
0
10
537.82348768730492
20
581.36824569014232
30
0
10
537.82255629997678
20
581.35627626140808
30
0
10
537.82152440811296
20
581.34432869885222
30
0
10
537.8204901811539
20
581.33235409984411
30
0
10
537.81935499320275
20
581.32040146532734
30
0
10
537.818120148106
20
581.30846980569811
30
0
10
537.81687658090675
20
581.296453868973
30
0
10
537.81553193706475
20
581.28445920611296
30
0
10
537.81408755338543
20
581.27248489722786
30
0
10
537.81264141854012
20
581.26049607072935
30
0
10
537.81109529705839
20
581.24852764976492
30
0
10
537.8094505927927
20
581.23657877949665
30
0
10
537.80614447025505
20
581.21255961075053
30
0
10
537.8024400118004
20
581.18861937261238
30
0
10
537.79834889917981
20
581.16475190316976
30
0
10
537.79629420512083
20
581.15276485900472
30
0
10
537.7941419775517
20
581.140796188222
30
0
10
537.7918936547029
20
581.12884522620004
30
0
10
537.78964532576424
20
581.1168942318069
30
0
10
537.78729954399955
20
581.10495436248357
30
0
10
537.78486212766734
20
581.09304630945201
30
0
10
537.78239365139825
20
581.08098651239186
30
0
10
537.77983497738956
20
581.06897722397071
30
0
10
537.77718897762111
20
581.057016675608
30
0
10
537.77453045457105
20
581.0449995190329
30
0
10
537.77178377486746
20
581.03303156524146
30
0
10
537.76895180299175
20
581.02111117757977
30
0
10
537.76610732455015
20
581.00913814705257
30
0
10
537.76317679723081
20
580.99721310377367
30
0
10
537.76016307052555
20
580.98533456132895
30
0
10
537.7571027057644
20
580.97327219593694
30
0
10
537.75395654554882
20
580.96125778120495
30
0
10
537.75072751055734
20
580.94928995659211
30
0
10
537.74748576962668
20
580.93727503975094
30
0
10
537.74416049904767
20
580.92530708062463
30
0
10
537.74075460548784
20
580.91338490274507
30
0
10
537.7373360537523
20
580.90141841548859
30
0
10
537.73383627717999
20
580.8894980510679
30
0
10
537.73025818978329
20
580.87762281320568
30
0
10
537.72662296746626
20
580.86555795147638
30
0
10
537.7229069120757
20
580.85353966954779
30
0
10
537.71911307619871
20
580.84156711220464
30
0
10
537.71530613301275
20
580.82955319091911
30
0
10
537.71142086966745
20
580.81758531184937
30
0
10
537.7074603765609
20
580.80566279356151
30
0
10
537.70348652209225
20
580.79370005273586
30
0
10
537.69943692836716
20
580.7817829803588
30
0
10
537.69531472566553
20
580.76991106508262
30
0
10
537.69112481423588
20
580.75784414913824
30
0
10
537.68685988817469
20
580.74582388655915
30
0
10
537.68252324438004
20
580.73384991950638
30
0
10
537.67817192673522
20
580.72183543628307
30
0
10
537.67374840446143
20
580.70986756354705
30
0
10
537.66925602444201
20
580.69794610841313
30
0
10
537.66474824475017
20
580.68598378707884
30
0
10
537.66017113381849
20
580.67406820328847
30
0
10
537.65552809619703
20
580.6621993169598
30
0
10
537.65080672568013
20
580.65013019011894
30
0
10
537.6460171847101
20
580.63810935053596
30
0
10
537.6411630820653
20
580.62613690376577
30
0
10
537.63630569876364
20
580.61415636538891
30
0
10
537.6313712176534
20
580.60219342827611
30
0
10
537.62635562134358
20
580.59023357845467
30
0
10
537.6213557971771
20
580.5783113378136
30
0
10
537.61627708779235
20
580.56639641526237
30
0
10
537.61112080434907
20
580.55448756883629
30
0
10
537.60591393797858
20
580.54246189711967
30
0
10
537.60062796770251
20
580.53044242156307
30
0
10
537.59526422147462
20
580.51842788050612
30
0
10
537.58991940301894
20
580.50645573677491
30
0
10
537.58449735613499
20
580.49448849309977
30
0
10
537.5789993758342
20
580.48252491678818
30
0
10
537.57352160335938
20
580.47060531260024
30
0
10
537.56796845425026
20
580.45868934919542
30
0
10
537.56234119371084
20
580.44677582071336
30
0
10
537.55666364181332
20
580.43475581990367
30
0
10
537.55091064758199
20
580.42273829803401
30
0
10
537.54508349707169
20
580.4107220279484
30
0
10
537.53927956137909
20
580.39875362954876
30
0
10
537.5334020587818
20
580.38678647331926
30
0
10
537.52745224892681
20
580.37481935556946
30
0
10
537.52152682361577
20
580.36290128353994
30
0
10
537.51552968224939
20
580.35098324999558
30
0
10
537.50946205965204
20
580.33906407259042
30
0
10
537.5033464130139
20
580.32705055723773
30
0
10
537.49715916482444
20
580.3150358801405
30
0
10
537.49090157104422
20
580.30301883532479
30
0
10
537.48467121121871
20
580.29105409042882
30
0
10
537.47837111656236
20
580.27908699868635
30
0
10
537.47200251998481
20
580.2671163716609
30
0
10
537.46566221234286
20
580.25519891746421
30
0
10
537.45925400980082
20
580.24327795961551
30
0
10
537.4527791237399
20
580.23135232446725
30
0
10
537.4462603981051
20
580.21934594430547
30
0
10
537.43967408274091
20
580.20733482358628
30
0
10
537.43302140981439
20
580.19531776078031
30
0
10
537.42639968927904
20
580.18335660885884
30
0
10
537.41971222706502
20
580.17138957029124
30
0
10
537.41296023571454
20
580.15941545323608
30
0
10
537.40624014011837
20
580.14749790075211
30
0
10
537.39945612347401
20
580.1355733367526
30
0
10
537.3926093799447
20
580.1236405763442
30
0
10
537.38572478682249
20
580.11164185025166
30
0
10
537.37877677125823
20
580.09963483714284
30
0
10
537.37176654696691
20
580.08761831954087
30
0
10
537.36479070117889
20
580.07566073156431
30
0
10
537.35775325519921
20
580.0636937323286
30
0
10
537.35065540541052
20
580.05171610692639
30
0
10
537.34359161289626
20
580.03979595319367
30
0
10
537.33646362622335
20
580.02785804002019
30
0
10
537.32928932188122
20
580.01592882822126
30
0
10
537.32206474169959
20
580.00391601930824
30
0
10
537.31479417526077
20
579.99191352895843
30
0
10
537.30747947774557
20
579.97992025798578
30
0
10
537.30017518254169
20
579.96794404277489
30
0
10
537.29282688156536
20
579.95597702104601
30
0
10
537.2854364174641
20
579.94401813284458
30
0
10
537.27805672842021
20
579.93207668031471
30
0
10
537.27063499902511
20
579.92014333788791
30
0
10
537.26317306099861
20
579.90821708009798
30
0
10
537.25566193573468
20
579.8962122073865
30
0
10
537.24811006994878
20
579.88421451324507
30
0
10
537.24051932979182
20
579.87222297851088
30
0
10
537.2329402038456
20
579.86024979142246
30
0
10
537.22532232232675
20
579.84828274519668
30
0
10
537.21766754062764
20
579.83632084942383
30
0
10
537.21002464674689
20
579.82437753038505
30
0
10
537.20234496712374
20
579.81243934612951
30
0
10
537.19463034624755
20
579.80050533197516
30
0
10
537.18687520477613
20
579.78850863510877
30
0
10
537.17908475394427
20
579.77651615258321
30
0
10
537.17126086580447
20
579.76452692194221
30
0
10
537.16344935748896
20
579.75255666199291
30
0
10
537.15560451757722
20
579.74058964390292
30
0
10
537.14772820969768
20
579.72862492111994
30
0
10
537.13986438797644
20
579.71667916578042
30
0
10
537.13196919803067
20
579.70473569863952
30
0
10
537.12404449629207
20
579.69279358385188
30
0
10
537.11608880857159
20
579.68080477479543
30
0
10
537.10810337789712
20
579.66881732881473
30
0
10
537.10009008380632
20
579.65683030241166
30
0
10
537.09208983191377
20
579.6448627857352
30
0
10
537.08406180720783
20
579.63289568752941
30
0
10
537.07600787876834
20
579.6209280723233
30
0
10
537.0679672040701
20
579.60898015131716
30
0
10
537.05990071072847
20
579.59703171536489
30
0
10
537.05181025583772
20
579.58508183574156
30
0
10
537.04369942602307
20
579.57310186165603
30
0
10
537.03556451364443
20
579.56112043709129
30
0
10
537.02740738793932
20
579.54913662385536
30
0
10
537.01926339056911
20
579.53717209774584
30
0
10
537.01109725131482
20
579.52520519088137
30
0
10
537.00291083287038
20
579.51323495755025
30
0
10
536.99473734842798
20
579.50128363639965
30
0
10
536.98654364903985
20
579.48932899920555
30
0
10
536.97833159224774
20
579.47737008758577
30
0
10
536.97010986647945
20
579.46539709539718
30
0
10
536.9618697402293
20
579.45341981868273
30
0
10
536.95361307931319
20
579.44143727791152
30
0
10
536.94537049859127
20
579.42947517112748
30
0
10
536.93711143948701
20
579.41750781851465
30
0
10
536.92883775655298
20
579.40553422959488
30
0
10
536.91924387262861
20
579.39165005936843
30
0
10
536.90963032581658
20
579.37775750468757
30
0
10
536.9000000000201
20
579.36385499579364
30
0
0
LINE
5
145
100
AcDbEntity
8
OUTER_PROFILES
100
AcDbLine
10
537.82928932188088
20
581.5238933019441
30
0
11
537.82928932188008
21
598.52389318271935
31
0
0
LINE
5
146
100
AcDbEntity
8
OUTER_PROFILES
100
AcDbLine
10
537.82928932188008
20
598.52389318271935
30
0
11
-7.1054273576010019e-14
21
598.52389318271912
31
0
0
LINE
5
147
100
AcDbEntity
8
OUTER_PROFILES
100
AcDbLine
10
-7.1054273576010019e-14
20
598.52389318271912
30
0
11
-7.1054273576010019e-14
21
587.52389330192671
31
0
0
LINE
5
148
100
AcDbEntity
8
OUTER_PROFILES
100
AcDbLine
10
-7.1054273576010019e-14
20
587.52389330192671
30
0
11
-6.0292893218987587
21
587.52389330192671
31
0
0
LINE
5
149
100
AcDbEntity
8
OUTER_PROFILES
100
AcDbLine
10
-6.0292893218987587
20
587.52389330192671
30
0
11
-12.029289321881222
21
581.52389330194421
31
0
0
LINE
5
150
100
AcDbEntity
8
OUTER_PROFILES
100
AcDbLine
10
-12.029289321881222
20
581.52389330194421
30
0
11
-12.052859548152313
21
580.76991105767877
31
0
0
LINE
5
151
100
AcDbEntity
8
OUTER_PROFILES
100
AcDbLine
10
-12.052859548152313
20
580.76991105767877
30
0
11
-12.10000000000008
21
579.26194659135956
31
0
0
LINE
5
152
100
AcDbEntity
8
OUTER_PROFILES
100
AcDbLine
10
-12.10000000000008
20
579.26194659135956
30
0
11
-14.361946710584803
21
579.26194659135945
31
0
0
LINE
5
153
100
AcDbEntity
8
OUTER_PROFILES
100
AcDbLine
10
-14.361946710584803
20
579.26194659135945
30
0
11
-14.432657388703731
21
581.52389330192125
31
0
0
LINE
5
154
100
AcDbEntity
8
OUTER_PROFILES
100
AcDbLine
10
-14.432657388703731
20
581.52389330192125
30
0
11
-20.461946710585224
21
587.55318262380229
31
0
0
LINE
5
155
100
AcDbEntity
8
OUTER_PROFILES
100
AcDbLine
10
-20.461946710585224
20
587.55318262380229
30
0
11
-20.461946710585437
21
593.52389330192091
31
0
0
LINE
5
156
100
AcDbEntity
8
OUTER_PROFILES
100
AcDbLine
10
-20.461946710585437
20
593.52389330192091
30
0
11
-70.361946710585457
21
593.52389330191886
31
0
0
LINE
5
157
100
AcDbEntity
8
OUTER_PROFILES
100
AcDbLine
10
-70.361946710585457
20
593.52389330191886
30
0
11
-70.361946710584959
21
581.52389330191886
31
0
0
LINE
5
158
100
AcDbEntity
8
OUTER_PROFILES
100
AcDbLine
10
-70.361946710584959
20
581.52389330191886
30
0
11
-70.361946710584746
21
579.26194659135888
31
0
0
LINE
5
159
100
AcDbEntity
8
OUTER_PROFILES
100
AcDbLine
10
-70.361946710584746
20
579.26194659135888
30
0
11
-72.623893421169683
21
581.26194659135888
31
0
0
LINE
5
160
100
AcDbEntity
8
OUTER_PROFILES
100
AcDbLine
10
-72.623893421169683
20
581.26194659135888
30
0
11
-86.88584013175479
21
581.26194659135888
31
0
0
CIRCLE
5
161
100
AcDbEntity
8
INTERIOR_PROFILES
100
AcDbCircle
10
32.361946710618597
20
588.52389330192307
30
0
40
1.7000000000000171
210
0
220
0
230
-1
0
CIRCLE
5
162
100
AcDbEntity
8
INTERIOR_PROFILES
100
AcDbCircle
10
42.361946710586622
20
9.9999998808086588
30
0
40
1.6999999999999993
210
0
220
0
230
-1
0
CIRCLE
5
163
100
AcDbEntity
8
INTERIOR_PROFILES
100
AcDbCircle
10
-553.16194671058986
20
399.26194659345077
30
0
40
1.7000000000000171
210
0
220
0
230
-1
0
CIRCLE
5
164
100
AcDbEntity
8
INTERIOR_PROFILES
100
AcDbCircle
10
-553.16194671033509
20
499.26194659345003
30
0
40
1.7000000000000171
210
0
220
0
230
-1
0
CIRCLE
5
165
100
AcDbEntity
8
INTERIOR_PROFILES
100
AcDbCircle
10
28.361946710618682
20
588.52389330192068
30
0
40
1.7000000000000171
210
0
220
0
230
-1
0
CIRCLE
5
166
100
AcDbEntity
8
INTERIOR_PROFILES
100
AcDbCircle
10
5.0999999999999801
20
12.999999880773458
30
0
40
1.6999999999999993
210
0
220
0
230
-1
0
CIRCLE
5
167
100
AcDbEntity
8
INTERIOR_PROFILES
100
AcDbCircle
10
42.361946710618668
20
588.52389330192273
30
0
40
1.7000000000000171
210
0
220
0
230
-1
0
CIRCLE
5
168
100
AcDbEntity
8
INTERIOR_PROFILES
100
AcDbCircle
10
28.361946710586707
20
9.9999998808104351
30
0
40
1.6999999999999993
210
0
220
0
230
-1
0
CIRCLE
5
169
100
AcDbEntity
8
INTERIOR_PROFILES
100
AcDbCircle
10
-553.1619467105786
20
199.26194659345077
30
0
40
1.7000000000000171
210
0
220
0
230
-1
0
CIRCLE
5
170
100
AcDbEntity
8
INTERIOR_PROFILES
100
AcDbCircle
10
5.0999999999999801
20
585.52389330197741
30
0
40
1.6999999999999993
210
0
220
0
230
-1
0
CIRCLE
5
171
100
AcDbEntity
8
INTERIOR_PROFILES
100
AcDbCircle
10
-543.16194671083338
20
99.261946593458674
30
0
40
1.7000000000000171
210
0
220
0
230
-1
0
CIRCLE
5
172
100
AcDbEntity
8
INTERIOR_PROFILES
100
AcDbCircle
10
32.361946710586693
20
9.9999998808080193
30
0
40
1.6999999999999993
210
0
220
0
230
-1
0
CIRCLE
5
173
100
AcDbEntity
8
INTERIOR_PROFILES
100
AcDbCircle
10
-278.90000000000003
20
2.9999998807733874
30
0
40
1.7000000000000171
210
0
220
0
230
-1
0
CIRCLE
5
174
100
AcDbEntity
8
INTERIOR_PROFILES
100
AcDbCircle
10
-543.1619467105786
20
199.26194659345128
30
0
40
1.7000000000000171
210
0
220
0
230
-1
0
CIRCLE
5
175
100
AcDbEntity
8
INTERIOR_PROFILES
100
AcDbCircle
10
-22.89999999999992
20
585.52389330197741
30
0
40
1.6999999999999993
210
0
220
0
230
-1
0
CIRCLE
5
176
100
AcDbEntity
8
INTERIOR_PROFILES
100
AcDbCircle
10
-22.900000000000063
20
2.9999998807734585
30
0
40
1.6999999999999993
210
0
220
0
230
-1
0
CIRCLE
5
177
100
AcDbEntity
8
INTERIOR_PROFILES
100
AcDbCircle
10
-22.899999999999849
20
595.52389330197741
30
0
40
1.6999999999999993
210
0
220
0
230
-1
0
CIRCLE
5
178
100
AcDbEntity
8
INTERIOR_PROFILES
100
AcDbCircle
10
-406.89999999999998
20
585.52389330197752
30
0
40
1.7000000000000171
210
0
220
0
230
-1
0
CIRCLE
5
179
100
AcDbEntity
8
INTERIOR_PROFILES
100
AcDbCircle
10
-278.89999999999998
20
595.52389330197752
30
0
40
1.7000000000000171
210
0
220
0
230
-1
0
CIRCLE
5
180
100
AcDbEntity
8
INTERIOR_PROFILES
100
AcDbCircle
10
-553.16194671083338
20
99.261946593458106
30
0
40
1.7000000000000171
210
0
220
0
230
-1
0
CIRCLE
5
181
100
AcDbEntity
8
INTERIOR_PROFILES
100
AcDbCircle
10
-406.90000000000009
20
12.999999880773458
30
0
40
1.7000000000000171
210
0
220
0
230
-1
0
CIRCLE
5
182
100
AcDbEntity
8
INTERIOR_PROFILES
100
AcDbCircle
10
-553.16194671058417
20
299.26194659345077
30
0
40
1.7000000000000171
210
0
220
0
230
-1
0
CIRCLE
5
183
100
AcDbEntity
8
INTERIOR_PROFILES
100
AcDbCircle
10
-22.899999999999991
20
12.999999880773458
30
0
40
1.6999999999999993
210
0
220
0
230
-1
0
CIRCLE
5
184
100
AcDbEntity
8
INTERIOR_PROFILES
100
AcDbCircle
10
-543.16194671058417
20
299.26194659345134
30
0
40
1.7000000000000171
210
0
220
0
230
-1
0
CIRCLE
5
185
100
AcDbEntity
8
INTERIOR_PROFILES
100
AcDbCircle
10
-543.16194671058986
20
399.26194659345134
30
0
40
1.7000000000000171
210
0
220
0
230
-1
0
CIRCLE
5
186
100
AcDbEntity
8
INTERIOR_PROFILES
100
AcDbCircle
10
-534.89999999999986
20
595.52389330197764
30
0
40
1.7000000000000171
210
0
220
0
230
-1
0
CIRCLE
5
187
100
AcDbEntity
8
INTERIOR_PROFILES
100
AcDbCircle
10
-534.89999999999998
20
2.9999998807734585
30
0
40
1.7000000000000171
210
0
220
0
230
-1
0
CIRCLE
5
188
100
AcDbEntity
8
INTERIOR_PROFILES
100
AcDbCircle
10
-543.16194671033509
20
499.2619465934506
30
0
40
1.7000000000000171
210
0
220
0
230
-1
0
CIRCLE
5
189
100
AcDbEntity
8
INTERIOR_PROFILES
100
AcDbCircle
10
-406.90000000000003
20
595.52389330197752
30
0
40
1.7000000000000171
210
0
220
0
230
-1
0
CIRCLE
5
190
100
AcDbEntity
8
INTERIOR_PROFILES
100
AcDbCircle
10
-278.89999999999998
20
12.999999880773458
30
0
40
1.7000000000000171
210
0
220
0
230
-1
0
CIRCLE
5
191
100
AcDbEntity
8
INTERIOR_PROFILES
100
AcDbCircle
10
-406.90000000000009
20
2.9999998807735295
30
0
40
1.7000000000000171
210
0
220
0
230
-1
0
CIRCLE
5
192
100
AcDbEntity
8
INTERIOR_PROFILES
100
AcDbCircle
10
-150.89999999999998
20
595.52389330197741
30
0
40
1.7000000000000171
210
0
220
0
230
-1
0
CIRCLE
5
193
100
AcDbEntity
8
INTERIOR_PROFILES
100
AcDbCircle
10
-278.89999999999992
20
585.52389330197752
30
0
40
1.7000000000000171
210
0
220
0
230
-1
0
CIRCLE
5
194
100
AcDbEntity
8
INTERIOR_PROFILES
100
AcDbCircle
10
-150.90000000000003
20
12.99999988077353
30
0
40
1.7000000000000171
210
0
220
0
230
-1
0
CIRCLE
5
195
100
AcDbEntity
8
INTERIOR_PROFILES
100
AcDbCircle
10
-150.89999999999998
20
2.9999998807734585
30
0
40
1.7000000000000171
210
0
220
0
230
-1
0
CIRCLE
5
196
100
AcDbEntity
8
INTERIOR_PROFILES
100
AcDbCircle
10
-150.89999999999998
20
585.52389330197752
30
0
40
1.7000000000000171
210
0
220
0
230
-1
0
CIRCLE
5
197
100
AcDbEntity
8
INTERIOR_PROFILES
100
AcDbCircle
10
-534.89999999999986
20
585.52389330197764
30
0
40
1.7000000000000171
210
0
220
0
230
-1
0
CIRCLE
5
198
100
AcDbEntity
8
INTERIOR_PROFILES
100
AcDbCircle
10
-534.89999999999998
20
12.999999880773458
30
0
40
1.7000000000000171
210
0
220
0
230
-1
0
CIRCLE
5
199
100
AcDbEntity
8
INTERIOR_PROFILES
100
AcDbCircle
10
-548.1619467105786
20
199.26194659345106
30
0
40
1.7000000000000171
210
0
220
0
230
-1
0
CIRCLE
5
200
100
AcDbEntity
8
INTERIOR_PROFILES
100
AcDbCircle
10
-548.16194671058986
20
399.26194659345106
30
0
40
1.7000000000000171
210
0
220
0
230
-1
0
CIRCLE
5
201
100
AcDbEntity
8
INTERIOR_PROFILES
100
AcDbCircle
10
-501.89999999999986
20
299.26194659135967
30
0
40
30.000000000000036
210
0
220
0
230
-1
0
CIRCLE
5
202
100
AcDbEntity
8
INTERIOR_PROFILES
100
AcDbCircle
10
-548.16194671083338
20
99.26194659345839
30
0
40
1.7000000000000171
210
0
220
0
230
-1
0
CIRCLE
5
203
100
AcDbEntity
8
INTERIOR_PROFILES
100
AcDbCircle
10
-548.16194671058417
20
299.26194659345106
30
0
40
1.7000000000000171
210
0
220
0
230
-1
0
CIRCLE
5
204
100
AcDbEntity
8
INTERIOR_PROFILES
100
AcDbCircle
10
-548.16194671033509
20
499.26194659345026
30
0
40
1.7000000000000171
210
0
220
0
230
-1
0
CIRCLE
5
205
100
AcDbEntity
8
INTERIOR_PROFILES
100
AcDbCircle
10
-150.90000000000003
20
7.9999998807735295
30
0
40
1.6999999999999993
210
0
220
0
230
-1
0
CIRCLE
5
206
100
AcDbEntity
8
INTERIOR_PROFILES
100
AcDbCircle
10
37.361946710586693
20
588.52389330192284
30
0
40
1.7000000000000171
210
0
220
0
230
-1
0
CIRCLE
5
207
100
AcDbEntity
8
INTERIOR_PROFILES
100
AcDbCircle
10
-278.89999999999998
20
590.52389330194558
30
0
40
1.7000000000000171
210
0
220
0
230
-1
0
CIRCLE
5
208
100
AcDbEntity
8
INTERIOR_PROFILES
100
AcDbCircle
10
62.361946710606091
20
299.2619465913935
30
0
40
5
210
0
220
0
230
-1
0
CIRCLE
5
209
100
AcDbEntity
8
INTERIOR_PROFILES
100
AcDbCircle
10
-278.90000000000009
20
7.9999998807734585
30
0
40
1.7000000000000171
210
0
220
0
230
-1
0
CIRCLE
5
210
100
AcDbEntity
8
INTERIOR_PROFILES
100
AcDbCircle
10
-22.899999999999849
20
590.52389330194546
30
0
40
1.6999999999999993
210
0
220
0
230
-1
0
CIRCLE
5
211
100
AcDbEntity
8
INTERIOR_PROFILES
100
AcDbCircle
10
37.361946710586693
20
9.9999998808083745
30
0
40
1.7000000000000004
210
0
220
0
230
-1
0
CIRCLE
5
212
100
AcDbEntity
8
INTERIOR_PROFILES
100
AcDbCircle
10
-22.900000000000063
20
7.9999998807736006
30
0
40
1.6999999999999993
210
0
220
0
230
-1
0
CIRCLE
5
213
100
AcDbEntity
8
INTERIOR_PROFILES
100
AcDbCircle
10
-534.89999999999986
20
590.52389330194569
30
0
40
1.7000000000000171
210
0
220
0
230
-1
0
CIRCLE
5
214
100
AcDbEntity
8
INTERIOR_PROFILES
100
AcDbCircle
10
-23.361946710585215
20
588.52389330192079
30
0
40
1.6999999999999993
210
0
220
0
230
1
0
CIRCLE
5
215
100
AcDbEntity
8
INTERIOR_PROFILES
100
AcDbCircle
10
-534.89999999999998
20
7.9999998807734585
30
0
40
1.7000000000000171
210
0
220
0
230
-1
0
CIRCLE
5
216
100
AcDbEntity
8
INTERIOR_PROFILES
100
AcDbCircle
10
-406.89999999999998
20
590.52389330194569
30
0
40
1.7000000000000171
210
0
220
0
230
-1
0
CIRCLE
5
217
100
AcDbEntity
8
INTERIOR_PROFILES
100
AcDbCircle
10
-406.90000000000009
20
7.9999998807734585
30
0
40
1.7000000000000171
210
0
220
0
230
-1
0
CIRCLE
5
218
100
AcDbEntity
8
INTERIOR_PROFILES
100
AcDbCircle
10
-23.361946710586707
20
9.9999998808100798
30
0
40
1.6999999999999993
210
0
220
0
230
1
0
CIRCLE
5
219
100
AcDbEntity
8
INTERIOR_PROFILES
100
AcDbCircle
10
-150.89999999999998
20
590.52389330194546
30
0
40
1.6999999999999993
210
0
220
0
230
-1
0
CIRCLE
5
220
100
AcDbEntity
8
INTERIOR_PROFILES
100
AcDbCircle
10
106.14778684233833
20
74.261946591358949
30
0
40
1.25
210
0
220
0
230
-1
0
CIRCLE
5
221
100
AcDbEntity
8
INTERIOR_PROFILES
100
AcDbCircle
10
106.14778684233862
20
524.26194659135899
30
0
40
1.25
210
0
220
0
230
-1
0
LINE
5
222
100
AcDbEntity
8
BEND
100
AcDbLine
10
-12.064644660940473
20
18.130973236066126
30
3.3308183249682137e-12
11
537.5363961063855
21
18.130973235783472
31
3.1327718197606279e-12
0
LINE
5
223
100
AcDbEntity
8
BEND
100
AcDbLine
10
-71.492920070250676
20
18.261946587491735
30
1.0348506375336106e-12
11
-71.492920070250747
21
580.26194659522594
31
1.0416851642775283e-12
0
LINE
5
224
100
AcDbEntity
8
BEND
100
AcDbLine
10
-12.064644660940544
20
580.392919946652
30
3.3274396628157548e-12
11
537.53639610620667
21
580.39291994673181
31
3.1724622928703709e-12
0
LINE
5
225
100
AcDbEntity
8
BEND
100
AcDbLine
10
538.03097335536677
20
18.625550485154747
30
3.2440716779507646e-12
11
538.03097335556947
21
579.89834269771438
31
3.1730174043646781e-12
0
LINE
5
226
100
AcDbEntity
8
BEND
100
AcDbLine
10
-13.230973355292761
20
579.26194659135956
30
3.3428815271463391e-12
11
-13.23097335529269
21
19.261946591359234
31
3.6660718450162281e-12
0
LINE
5
227
100
AcDbEntity
8
BEND
100
AcDbLine
10
-70.361946710584888
20
18.130973236086874
30
-8.1729067957661749e-12
11
-14.397302049644196
21
18.130973236085239
31
-6.808697737174986e-12
0
LINE
5
228
100
AcDbEntity
8
BEND
100
AcDbLine
10
-85.754866776462109
20
17.261946591358708
30
4.0585591949701881e-12
11
-85.754866776462038
21
581.26194659135899
31
4.0095555614386683e-12
0
LINE
5
229
100
AcDbEntity
8
BEND
100
AcDbLine
10
-117.27876019763009
20
17.26194659135885
30
8.9249862181067212e-12
11
-117.27876019763038
21
581.26194659135899
31
8.916474636135056e-12
0
LINE
5
230
100
AcDbEntity
8
BEND
100
AcDbLine
10
-95.016813487046718
20
17.26194659135885
30
5.6835135500185687e-12
11
-95.016813487046718
21
581.26194659135899
31
5.6822620219198593e-12
0
LINE
5
231
100
AcDbEntity
8
BEND
100
AcDbLine
10
-14.397302049651515
20
580.39291994687471
30
-3.146396343460705e-12
11
-70.361946710584959
21
580.39291994687346
31
-5.1586512866711816e-12
0
LINE
5
232
100
AcDbEntity
8
BEND_EXTENT
100
AcDbLine
10
539.16194671057031
20
580.19123591322682
30
3.2329694477084756e-12
11
539.16194671058429
21
579.26194659135967
31
3.3750779948604957e-12
0
LINE
5
233
100
AcDbEntity
8
BEND_EXTENT
100
AcDbLine
10
539.16194671058429
20
579.26194659135967
30
3.3750779948604957e-12
11
539.16194671058452
21
19.261946591359589
31
3.3750779948604957e-12
0
LINE
5
234
100
AcDbEntity
8
BEND_EXTENT
100
AcDbLine
10
539.16194671058452
20
19.261946591359589
30
3.3750779948604957e-12
11
539.16194671058656
21
18.332657269478787
31
3.2329694477084756e-12
0
LINE
5
235
100
AcDbEntity
8
BEND_EXTENT
100
AcDbLine
10
537.82928932188088
20
581.5238933019441
30
3.1619151741324656e-12
11
536.89999999999975
21
581.52389330194421
31
3.1619151741324656e-12
0
LINE
5
236
100
AcDbEntity
8
BEND_EXTENT
100
AcDbLine
10
536.89999999999975
20
581.52389330194421
30
3.1619151741324656e-12
11
-12.029289321881222
21
581.52389330194421
31
3.1263880373444408e-12
0
LINE
5
237
100
AcDbEntity
8
BEND_EXTENT
100
AcDbLine
10
-12.10000000000008
20
579.26194659135956
30
3.3750779948604759e-12
11
536.82928932188133
21
579.26194659135967
31
3.2729374765949813e-12
0
LINE
5
238
100
AcDbEntity
8
BEND_EXTENT
100
AcDbLine
10
-12.10000000000008
20
19.261946591359518
30
3.3772984409097262e-12
11
-12.10000000000008
21
579.26194659135956
31
3.3750779948604759e-12
0
LINE
5
239
100
AcDbEntity
8
BEND_EXTENT
100
AcDbLine
10
536.82928932188156
20
19.261946591359589
30
3.299582829185985e-12
11
-12.10000000000008
21
19.261946591359518
31
3.3772984409097262e-12
0
LINE
5
240
100
AcDbEntity
8
BEND_EXTENT
100
AcDbLine
10
536.89999999999998
20
19.332657269478162
30
3.2418512319054769e-12
11
536.90000000000009
21
579.19123591324092
31
3.2407410088808517e-12
0
LINE
5
241
100
AcDbEntity
8
BEND_EXTENT
100
AcDbLine
10
536.89999999999986
20
16.999999880774794
30
3.1263880373444606e-12
11
537.82928932188099
21
16.999999880774936
31
3.1263880373444606e-12
0
LINE
5
242
100
AcDbEntity
8
BEND_EXTENT
100
AcDbLine
10
-12.02928932188108
20
16.999999880773373
30
3.1974423109204508e-12
11
536.89999999999986
21
16.999999880774794
31
3.1263880373444606e-12
0
LWPOLYLINE
5
243
100
AcDbEntity
8
BEND_EXTENT
100
AcDbPolyline
90
4
70
1
43
0.0
10
-14.361946710584803
20
579.26194659135945
10
-14.361946710584803
20
19.261946591359518
10
-70.361946710584746
20
19.261946591358807
10
-70.361946710584746
20
579.26194659135888
0
LINE
5
244
100
AcDbEntity
8
BEND_EXTENT
100
AcDbLine
10
-70.361946710584817
20
16.999999880813093
30
-3.8440362004621427e-11
11
-14.432657388703376
21
16.999999880811174
31
-3.659295089164516e-11
0
LINE
5
245
100
AcDbEntity
8
BEND_EXTENT
100
AcDbLine
10
-14.432657388703731
20
581.52389330192125
30
-2.3341328869719291e-11
11
-70.361946710584959
21
581.52389330191886
31
-2.6467716907063732e-11
0
LINE
5
246
100
AcDbEntity
8
BEND_EXTENT
100
AcDbLine
10
-72.623893421169683
20
581.26194659135888
30
1.3056222769591817e-12
11
-72.623893421169043
21
19.261946591358736
31
1.3322676295501854e-12
0
LINE
5
247
100
AcDbEntity
8
BEND_EXTENT
100
AcDbLine
10
-72.623893421169043
20
19.261946591358736
30
1.3322676295501854e-12
11
-72.623893421169541
21
17.261946591358779
31
1.3233858453531842e-12
0
LINE
5
248
100
AcDbEntity
8
BEND_EXTENT
100
AcDbLine
10
-84.62389342116964
20
581.26194659135888
30
3.8280489889075365e-12
11
-84.623893421169569
21
17.261946591358779
31
3.845812557301539e-12
0
LINE
5
249
100
AcDbEntity
8
BEND_EXTENT
100
AcDbLine
10
-118.40973355292157
20
17.261946591358921
30
9.0416563125472716e-12
11
-118.40973355292157
21
581.26194659135911
31
9.0416563125472716e-12
0
LINE
5
250
100
AcDbEntity
8
BEND_EXTENT
100
AcDbLine
10
-96.147786842338334
20
17.261946591358779
30
5.8353322174298195e-12
11
-96.147786842338476
21
581.26194659135888
31
5.8264504332328183e-12
0
LINE
5
251
100
AcDbEntity
8
BEND_EXTENT
100
AcDbLine
10
-116.14778684233862
20
581.26194659135899
30
8.8107299234252391e-12
11
-116.14778684233848
21
17.261946591358779
31
8.6863849446672215e-12
0
LINE
5
252
100
AcDbEntity
8
BEND_EXTENT
100
AcDbLine
10
-86.885840131754648
20
17.261946591358779
30
4.2033043712308394e-12
11
-86.88584013175479
21
581.26194659135888
31
4.2033043712308394e-12
0
LINE
5
253
100
AcDbEntity
8
BEND_EXTENT
100
AcDbLine
10
-93.885840131754961
20
581.26194659135888
30
5.4933835258452713e-12
11
-93.885840131754819
21
17.261946591358779
31
5.4933835258452713e-12
0
ENDSEC
0
SECTION
2
OBJECTS
0
DICTIONARY
5
C
100
AcDbDictionary
3
ACAD_GROUP
350
D
3
ACAD_MLINESTYLE
350
17
0
DICTIONARY
5
D
100
AcDbDictionary
0
DICTIONARY
5
1A
330
C
100
AcDbDictionary
0
DICTIONARY
5
17
100
AcDbDictionary
0
ENDSEC
0
EOF
