0
SECTION
2
HEADER
9
$INSUNITS
70
4
9
$ACADVER
1
AC1014
9
$HANDSEED
5
FFFF
0
ENDSEC
0
SECTION
2
TABLES
0
TABLE
2
VPORT
5
8
100
AcDbSymbolTable
0
ENDTAB
0
TABLE
2
LTYPE
5
5
100
AcDbSymbolTable
0
LTYPE
5
14
100
AcDbSymbolTableRecord
100
AcDbLinetypeTableRecord
2
BYBLOCK
70
0
0
LTYPE
5
15
100
AcDbSymbolTableRecord
100
AcDbLinetypeTableRecord
2
BYLAYER
70
0
0
LTYPE
5
16
100
AcDbSymbolTableRecord
100
AcDbLinetypeTableRecord
2
DASHED
70
0
3
Dashed __ __ __ __ __ __ __ __ __ __ __ __ __ _
72
65
73
2
40
0.75
49
0.5
74
0
49
-0.25
74
0
0
ENDTAB
0
TABLE
2
LAYER
5
2
100
AcDbSymbolTable
70
2
0
LAYER
5
50
100
AcDbSymbolTableRecord
100
AcDbLayerTableRecord
2
0
70
0
62
7
6
CONTINUOUS
0
ENDTAB
0
TABLE
2
STYLE
5
3
100
AcDbSymbolTable
70
1
0
STYLE
5
11
100
AcDbSymbolTableRecord
100
AcDbTextStyleTableRecord
2
STANDARD
70
0
0
ENDTAB
0
TABLE
2
VIEW
5
6
100
AcDbSymbolTable
70
0
0
ENDTAB
0
TABLE
2
UCS
5
7
100
AcDbSymbolTable
70
0
0
ENDTAB
0
TABLE
2
APPID
5
9
100
AcDbSymbolTable
70
2
0
APPID
5
12
100
AcDbSymbolTableRecord
100
AcDbRegAppTableRecord
2
ACAD
70
0
0
ENDTAB
0
TABLE
2
DIMSTYLE
5
A
100
AcDbSymbolTable
70
1
0
ENDTAB
0
TABLE
2
BLOCK_RECORD
5
1
100
AcDbSymbolTable
70
1
0
BLOCK_RECORD
5
1F
100
AcDbSymbolTableRecord
100
AcDbBlockTableRecord
2
*MODEL_SPACE
0
BLOCK_RECORD
5
1B
100
AcDbSymbolTableRecord
100
AcDbBlockTableRecord
2
*PAPER_SPACE
0
ENDTAB
0
ENDSEC
0
SECTION
2
BLOCKS
0
BLOCK
5
20
100
AcDbEntity
100
AcDbBlockBegin
2
*MODEL_SPACE
0
ENDBLK
5
21
100
AcDbEntity
100
AcDbBlockEnd
0
BLOCK
5
1C
100
AcDbEntity
100
AcDbBlockBegin
2
*PAPER_SPACE
0
ENDBLK
5
1D
100
AcDbEntity
100
AcDbBlockEnd
0
ENDSEC
0
SECTION
2
ENTITIES
0
LWPOLYLINE
5
100
100
AcDbEntity
8
OUTER_PROFILES
100
AcDbPolyline
90
44
70
1
43
0.0
10
769.02931616893966
20
74.100026846950982
42
0.4142135623728247
10
769.02931616893909
20
72.685813284578543
10
774.5531827429661
20
67.161946710541216
10
783.52389342108484
20
67.16194671053286
10
783.52389342104198
20
21.361946710532813
10
774.55318274292335
20
21.361946710541204
10
769.02931616891635
20
15.838080136544523
42
0.41421356237340679
10
769.02931616891578
20
14.423866574170708
10
774.52389342119943
20
8.9292893218870528
10
774.52389342119943
20
5.7376325912628098e-12
10
0
20
0
10
0
20
8.9292893218813063
10
5.4945772522473479
20
14.423866574128661
42
0.41421356237309004
10
5.4945772522371783
20
15.838080136491506
10
-0.029289321786620803
20
21.361946710535893
10
-8.9999999999052704
20
21.361946710536046
10
-8.9999999999044178
20
67.161946710536114
10
-0.029289321785768152
20
67.161946710535915
10
5.494577252259413
20
72.685813284580775
42
0.41421356237314033
10
5.4945772522593472
20
74.100026846953938
10
4.5048409447190352e-11
20
79.594604099167668
10
4.4622083805734292e-11
20
88.523893421048982
10
5.0000000000372324
20
88.523893421112831
10
7.261946710598437
20
86.523893421112916
10
7.2619466248162814
20
95.800338128356856
42
-0.28685989740773005
10
8.6669698714429231
20
98.047786842787502
42
-0.063084606555590853
10
9.2619467105973765
20
98.249827871647454
42
0.81649658092779442
10
9.2619467105947706
20
117.84574581391325
42
-0.063084614289900198
10
8.6669697857468773
20
118.04778684277288
42
-0.286859889092551
10
7.2619466245824169
20
120.29523555720513
10
7.2619467105940601
20
127.30973355386972
42
-0.41421356237311324
10
9.2619467105940601
20
129.30973355386985
10
765.26194671059091
20
129.309733553917
42
-0.41421356237310025
10
767.26194671059102
20
127.30973355391711
10
767.26194679660284
20
120.29523555725204
42
-0.28685989743000401
10
765.85692354974628
20
118.04778684282024
42
-0.063084606555630529
10
765.26194671059147
20
117.84574581396012
42
0.81649658092771793
10
765.26194671059272
20
98.249827871694634
42
-0.06308461426927181
10
765.85692363521184
20
98.04778684283464
42
-0.28685988909242749
10
767.26194671059238
20
95.800338128404263
10
767.26194671059363
20
86.523893421140556
10
769.52389342118249
20
88.52389342114931
10
774.52389342120546
20
88.523893421099444
10
774.52389342120614
20
79.594604099218145
0
CIRCLE
5
101
100
AcDbEntity
8
INTERIOR_PROFILES
100
AcDbCircle
10
-387.26194671059295
20
108.04778684280367
30
0
40
1.25
210
0
220
0
230
-1
0
CIRCLE
5
102
100
AcDbEntity
8
INTERIOR_PROFILES
100
AcDbCircle
10
-687.26194671059466
20
108.04778684281678
30
0
40
1.25
210
0
220
0
230
-1
0
CIRCLE
5
103
100
AcDbEntity
8
INTERIOR_PROFILES
100
AcDbCircle
10
1.9999999999046736
20
54.261946710535938
30
0
40
1.7000000000000004
210
0
220
0
230
-1
0
CIRCLE
5
104
100
AcDbEntity
8
INTERIOR_PROFILES
100
AcDbCircle
10
-387.26194671059659
20
64.261946710540158
30
0
40
5
210
0
220
0
230
-1
0
CIRCLE
5
105
100
AcDbEntity
8
INTERIOR_PROFILES
100
AcDbCircle
10
-1.999999999905242
20
24.261946710535931
30
0
40
1.7000000000000011
210
0
220
0
230
1
0
CIRCLE
5
106
100
AcDbEntity
8
INTERIOR_PROFILES
100
AcDbCircle
10
-776.5238934210447
20
24.261946710539348
30
0
40
1.6999999999999906
210
0
220
0
230
-1
0
CIRCLE
5
107
100
AcDbEntity
8
INTERIOR_PROFILES
100
AcDbCircle
10
-87.2619467105946
20
108.04778684279084
30
0
40
1.25
210
0
220
0
230
-1
0
CIRCLE
5
108
100
AcDbEntity
8
INTERIOR_PROFILES
100
AcDbCircle
10
-776.52389342107267
20
54.261946710539348
30
0
40
1.7000000000000171
210
0
220
0
230
-1
0
LINE
5
109
100
AcDbEntity
8
BEND
100
AcDbLine
10
6.1309733553066792
20
73.392920065820576
30
7.0100560035148836e-10
11
6.1309733553052581
21
15.130973355228754
31
1.3567279529543138e-10
0
LINE
5
110
100
AcDbEntity
8
BEND
100
AcDbLine
10
6.1309733553052581
20
15.130973355228754
30
1.3567279529543138e-10
11
6.1309733552928947
21
-6.3566929497937963e-11
31
-1.1309145554538989e-11
0
LINE
5
111
100
AcDbEntity
8
BEND
100
AcDbLine
10
6.1309733553180479
20
87.523893421112888
30
8.3901968464612604e-10
11
6.1309733553066792
21
73.392920065820576
31
7.0100560035148836e-10
0
LINE
5
112
100
AcDbEntity
8
BEND
100
AcDbLine
10
768.39292006588994
20
15.130973355236668
30
8.0584430490131521e-10
11
768.3929200658863
21
73.392920065868111
31
1.3395939771414945e-09
0
LINE
5
113
100
AcDbEntity
8
BEND
100
AcDbLine
10
768.3929200658863
20
73.392920065868111
30
1.3395939771414945e-09
11
768.39292006589426
21
87.523893421129031
31
1.4769449870796204e-09
0
LINE
5
114
100
AcDbEntity
8
BEND
100
AcDbLine
10
768.3929200658896
20
-5.5662141562606848e-11
30
6.2668693354374412e-10
11
768.39292006588994
21
15.130973355236668
31
8.0584430490131521e-10
0
LINE
5
115
100
AcDbEntity
8
BEND
100
AcDbLine
10
5.787470471048124
20
15.130973355228745
30
1.6751931098643928e-10
11
768.73642295011996
21
15.130973355236668
31
8.1049677620462824e-10
0
LINE
5
116
100
AcDbEntity
8
BEND
100
AcDbLine
10
768.73642295014281
20
73.39292006586814
30
1.3393247086444826e-09
11
5.7874704710444291
21
73.392920065820547
31
7.4334109692372097e-10
0
LINE
5
117
100
AcDbEntity
8
BEND
100
AcDbLine
10
7.5251000108640653
20
119.1787601983213
30
8.7096829071136496e-10
11
766.99879341032124
21
119.17876019836868
31
1.535719997011268e-09
0
LINE
5
118
100
AcDbEntity
8
BEND
100
AcDbLine
10
7.5251000110948496
20
96.916813487234492
30
8.2441597333247822e-10
11
766.99879341009569
21
96.916813487281871
31
1.4889679445279881e-09
0
LINE
5
119
100
AcDbEntity
8
BEND
100
AcDbLine
10
767.26194671059329
20
87.654866776451883
30
1.4771753125586628e-09
11
7.261946710598437
21
87.654866776404475
31
8.4104107432057241e-10
0
LINE
5
120
100
AcDbEntity
8
BEND_EXTENT
100
AcDbLine
10
7.261946710594458
20
120.30973355386979
30
9.9491456204544713e-10
11
767.26194671059011
21
120.3097335539172
31
1.6310411890031426e-09
0
LINE
5
121
100
AcDbEntity
8
BEND_EXTENT
100
AcDbLine
10
8.6669698714429444
20
98.047786842787445
30
9.3618804919235806e-10
11
765.85692354974742
21
98.047786842834682
31
1.5699981043333384e-09
0
LINE
5
122
100
AcDbEntity
8
BEND_EXTENT
100
AcDbLine
10
765.85692354974617
20
118.04778684282013
30
1.621891168359136e-09
11
8.6669698714405286
21
118.04778684277292
31
9.880766723260561e-10
0
LINE
5
123
100
AcDbEntity
8
BEND_EXTENT
100
AcDbLine
10
5.0000000000147793
20
-6.3593574850528967e-11
30
-1.2228376732679169e-11
11
4.9999999999990052
21
13.92928932188024
31
1.2263527635716159e-10
0
LINE
5
124
100
AcDbEntity
8
BEND_EXTENT
100
AcDbLine
10
7.261946710597158
20
13.99999999993577
30
1.171862518077907e-10
11
7.2619467105977265
21
-6.3558047713740962e-11
31
-1.0330613851626142e-11
0
LINE
5
125
100
AcDbEntity
8
BEND_EXTENT
100
AcDbLine
10
767.2619467105967
20
13.999999999943666
30
7.5333064233349975e-10
11
7.261946710597158
21
13.99999999993577
31
1.171862518077907e-10
0
LINE
5
126
100
AcDbEntity
8
BEND_EXTENT
100
AcDbLine
10
767.26194671059773
20
-5.5662141562606848e-11
30
6.2581377667408317e-10
11
767.2619467105967
21
13.999999999943666
31
7.5333064233349975e-10
0
LINE
5
127
100
AcDbEntity
8
BEND_EXTENT
100
AcDbLine
10
5.0000000000434852
20
74.594604099168706
30
7.132048259564049e-10
11
5.0000000000372324
21
88.523893421112831
31
8.4032356322647153e-10
0
LWPOLYLINE
5
128
100
AcDbEntity
8
BEND_EXTENT
100
AcDbPolyline
90
4
70
1
43
0.0
10
7.261946710598437
20
86.523893421112916
10
7.2619467105982949
20
74.523893421112973
10
767.26194671059466
20
74.523893421140627
10
767.26194671059363
20
86.523893421140556
0
LINE
5
129
100
AcDbEntity
8
BEND_EXTENT
100
AcDbLine
10
769.52389342111405
20
72.191236032450291
30
1.3298638993710141e-09
11
769.52389342106835
21
16.332657388660216
31
7.8576721767649628e-10
0
LWPOLYLINE
5
130
100
AcDbEntity
8
BEND_EXTENT
100
AcDbPolyline
90
4
70
1
43
0.0
10
767.26194671059716
20
16.261946710528996
10
767.26194671059397
20
72.261946710575728
10
7.261946710598437
20
72.261946710548003
10
7.2619467105977265
20
16.261946710521098
0
LINE
5
131
100
AcDbEntity
8
BEND_EXTENT
100
AcDbLine
10
767.26194671059284
20
95.785840131729003
30
1.5559082378170101e-09
11
7.2619467105980107
21
95.785840131681567
31
9.1975940639882246e-10
0
LINE
5
132
100
AcDbEntity
8
BEND_EXTENT
100
AcDbLine
10
7.261946710598437
20
88.785840131695934
30
8.5199306845035353e-10
11
767.26194671059284
21
88.785840131743356
31
1.4881330180843437e-09
0
LINE
5
133
100
AcDbEntity
8
BEND_EXTENT
100
AcDbLine
10
769.52389342118249
20
88.52389342114931
30
1.4872889708143747e-09
11
769.52389342119147
21
74.59460409921752
31
1.3517147749888851e-09
0
LINE
5
134
100
AcDbEntity
8
BEND_EXTENT
100
AcDbLine
10
5.0000000000726175
20
16.332657388651228
30
1.4732832291810647e-10
11
5.0000000000639488
21
72.191236032441267
31
6.9085657042397034e-10
0
LINE
5
135
100
AcDbEntity
8
BEND_EXTENT
100
AcDbLine
10
769.52389342119932
20
13.929289321887062
30
7.6142944248358158e-10
11
769.52389342118272
21
-5.5653259778409847e-11
31
6.2756054922378873e-10
0
ENDSEC
0
SECTION
2
OBJECTS
0
DICTIONARY
5
C
100
AcDbDictionary
3
ACAD_GROUP
350
D
3
ACAD_MLINESTYLE
350
17
0
DICTIONARY
5
D
100
AcDbDictionary
0
DICTIONARY
5
1A
330
C
100
AcDbDictionary
0
DICTIONARY
5
17
100
AcDbDictionary
0
ENDSEC
0
EOF
