0
SECTION
2
HEADER
9
$INSUNITS
70
4
9
$ACADVER
1
AC1014
9
$HANDSEED
5
FFFF
0
ENDSEC
0
SECTION
2
TABLES
0
TABLE
2
VPORT
5
8
100
AcDbSymbolTable
0
ENDTAB
0
TABLE
2
LTYPE
5
5
100
AcDbSymbolTable
0
LTYPE
5
14
100
AcDbSymbolTableRecord
100
AcDbLinetypeTableRecord
2
BYBLOCK
70
0
0
LTYPE
5
15
100
AcDbSymbolTableRecord
100
AcDbLinetypeTableRecord
2
BYLAYER
70
0
0
LTYPE
5
16
100
AcDbSymbolTableRecord
100
AcDbLinetypeTableRecord
2
DASHED
70
0
3
Dashed __ __ __ __ __ __ __ __ __ __ __ __ __ _
72
65
73
2
40
0.75
49
0.5
74
0
49
-0.25
74
0
0
ENDTAB
0
TABLE
2
LAYER
5
2
100
AcDbSymbolTable
70
2
0
LAYER
5
50
100
AcDbSymbolTableRecord
100
AcDbLayerTableRecord
2
0
70
0
62
7
6
CONTINUOUS
0
ENDTAB
0
TABLE
2
STYLE
5
3
100
AcDbSymbolTable
70
1
0
STYLE
5
11
100
AcDbSymbolTableRecord
100
AcDbTextStyleTableRecord
2
STANDARD
70
0
0
ENDTAB
0
TABLE
2
VIEW
5
6
100
AcDbSymbolTable
70
0
0
ENDTAB
0
TABLE
2
UCS
5
7
100
AcDbSymbolTable
70
0
0
ENDTAB
0
TABLE
2
APPID
5
9
100
AcDbSymbolTable
70
2
0
APPID
5
12
100
AcDbSymbolTableRecord
100
AcDbRegAppTableRecord
2
ACAD
70
0
0
ENDTAB
0
TABLE
2
DIMSTYLE
5
A
100
AcDbSymbolTable
70
1
0
ENDTAB
0
TABLE
2
BLOCK_RECORD
5
1
100
AcDbSymbolTable
70
1
0
BLOCK_RECORD
5
1F
100
AcDbSymbolTableRecord
100
AcDbBlockTableRecord
2
*MODEL_SPACE
0
BLOCK_RECORD
5
1B
100
AcDbSymbolTableRecord
100
AcDbBlockTableRecord
2
*PAPER_SPACE
0
ENDTAB
0
ENDSEC
0
SECTION
2
BLOCKS
0
BLOCK
5
20
100
AcDbEntity
100
AcDbBlockBegin
2
*MODEL_SPACE
0
ENDBLK
5
21
100
AcDbEntity
100
AcDbBlockEnd
0
BLOCK
5
1C
100
AcDbEntity
100
AcDbBlockBegin
2
*PAPER_SPACE
0
ENDBLK
5
1D
100
AcDbEntity
100
AcDbBlockEnd
0
ENDSEC
0
SECTION
2
ENTITIES
0
LWPOLYLINE
5
100
100
AcDbEntity
8
OUTER_PROFILES
100
AcDbPolyline
90
24
70
1
43
0.0
10
5.332657388703268
20
70.382472064931832
10
5.332657388703268
20
65.523893421169262
10
7.3326573887032254
20
63.261946710584638
10
10.756523962808963
20
59.838080136478879
42
-0.41421356237310381
10
10.75652396280897
20
58.423866574105773
10
7.2619467105845814
20
54.929289321881328
10
4.9999999999998579
20
52.929289321881313
10
0
20
52.929289321881342
10
0
20
0
10
421.0477868423385
20
-9.2032760311459276e-15
10
421.04778684233844
20
52.929289321881328
10
416.0477868423385
20
52.929289321881321
10
413.78584013175384
20
54.929289321881321
10
410.29126287952943
20
58.423866574105759
42
-0.4142135623730766
10
410.29126287952943
20
59.838080136478823
10
413.7151294536352
20
63.261946710584631
10
415.7151294536352
20
65.523893421169234
10
415.7151294536352
20
70.382472064931946
10
410.36197355764813
20
65.029316168944831
42
-0.41421356237311163
10
408.94775999527496
20
65.029316168944845
10
403.45318274305066
20
70.523893421169191
10
17.594604099287992
20
70.523893421169191
10
12.100026847063432
20
65.029316168944774
42
-0.41421356237309004
10
10.685813284690349
20
65.029316168944746
0
CIRCLE
5
101
100
AcDbEntity
8
INTERIOR_PROFILES
100
AcDbCircle
10
-85.523893421107857
20
25.999999999999982
30
0
40
1.2645000000000017
210
0
220
0
230
-1
0
CIRCLE
5
102
100
AcDbEntity
8
INTERIOR_PROFILES
100
AcDbCircle
10
-22.523893421169419
20
3.999999999998316
30
0
40
1.7000000000000004
210
0
220
0
230
-1
0
CIRCLE
5
103
100
AcDbEntity
8
INTERIOR_PROFILES
100
AcDbCircle
10
-296.5238934211485
20
3.9999999999983333
30
0
40
1.7000000000000002
210
-0
220
0
230
-1
0
CIRCLE
5
104
100
AcDbEntity
8
INTERIOR_PROFILES
100
AcDbCircle
10
-210.52389342110786
20
25.999999999999982
30
0
40
1.2645000000000017
210
0
220
0
230
-1
0
LINE
5
105
100
AcDbEntity
8
BEND
100
AcDbLine
10
11.049417181622445
20
59.130973355292305
30
6.6170300755645753e-14
11
409.99836966071598
21
59.130973355292305
31
9.4902723517915402e-13
0
LINE
5
106
100
AcDbEntity
8
BEND
100
AcDbLine
10
6.1309733552921131
20
53.929289321881257
30
1.1442395397547896e-13
11
6.1309733552921131
21
0
31
1.6406323164651669e-13
0
LINE
5
107
100
AcDbEntity
8
BEND
100
AcDbLine
10
409.65486677646152
20
59.130973355292305
30
9.447527082961681e-13
11
409.65486677646152
21
64.736422950131299
31
9.1200538785328996e-13
0
LINE
5
108
100
AcDbEntity
8
BEND
100
AcDbLine
10
409.65486677646163
20
-1.8076361142478644e-14
30
1.0284482851989911e-12
11
409.65486677646152
21
59.130973355292305
31
9.447527082961681e-13
0
LINE
5
109
100
AcDbEntity
8
BEND
100
AcDbLine
10
11.39292006587695
20
64.73642295013137
30
-9.0465527344198714e-15
11
11.39292006587695
21
59.130973355292305
31
2.3159247555129512e-14
0
LINE
5
110
100
AcDbEntity
8
BEND
100
AcDbLine
10
11.39292006587695
20
59.130973355292305
30
2.3159247555129512e-14
11
11.39292006587695
21
-1.7763568394002505e-14
31
1.2683883890120509e-13
0
LINE
5
111
100
AcDbEntity
8
BEND
100
AcDbLine
10
414.91681348704623
20
-1.3638623256498093e-14
30
1.029142306240808e-12
11
414.91681348704623
21
53.929289321881285
31
9.5714584156479142e-13
0
LINE
5
112
100
AcDbEntity
8
BEND
100
AcDbLine
10
11.39292006587695
20
64.392920065876979
30
2.2354835119882316e-14
11
6.3326573887032822
21
64.392920065876979
31
-6.8496416074853989e-14
0
LINE
5
113
100
AcDbEntity
8
BEND
100
AcDbLine
10
409.65486677646152
20
64.39292006587695
30
9.3563262237853239e-13
11
11.39292006587695
21
64.392920065876979
31
2.2354835119882316e-14
0
LINE
5
114
100
AcDbEntity
8
BEND
100
AcDbLine
10
414.7151294536352
20
64.39292006587695
30
9.5125632011305716e-13
11
409.65486677646152
21
64.39292006587695
31
9.3563262237853239e-13
0
LINE
5
115
100
AcDbEntity
8
BEND_EXTENT
100
AcDbLine
10
416.0477868423385
20
52.929289321881321
30
9.5547375584482601e-13
11
416.0477868423385
21
-8.8817841970012523e-15
31
1.0227026221298856e-12
0
LINE
5
116
100
AcDbEntity
8
BEND_EXTENT
100
AcDbLine
10
413.78584013175384
20
-1.8079515354998738e-14
30
1.0119172753302539e-12
11
413.78584013175384
21
54.929289321881321
31
9.4214808148189661e-13
0
LINE
5
117
100
AcDbEntity
8
BEND_EXTENT
100
AcDbLine
10
5
20
-3.8177594571435339e-18
30
1.5367873943818847e-13
11
4.9999999999998579
21
52.929289321881313
31
1.930312835171435e-13
0
LINE
5
118
100
AcDbEntity
8
BEND_EXTENT
100
AcDbLine
10
7.2619467105845814
20
54.929289321881328
30
1.9199726714952383e-14
11
7.2619467105845814
21
-1.7763568394002505e-14
31
8.8968920563309509e-14
0
LINE
5
119
100
AcDbEntity
8
BEND_EXTENT
100
AcDbLine
10
5.332657388703268
20
65.523893421169262
30
-4.8681641486965681e-14
11
10.191236032465838
21
65.523893421169262
31
-2.1895581313052717e-14
0
LINE
5
120
100
AcDbEntity
8
BEND_EXTENT
100
AcDbLine
10
10.261946710584624
20
63.261946710584638
30
5.1085139254640095e-14
11
7.3326573887032254
21
63.261946710584638
31
8.7795143234375282e-15
0
LINE
5
121
100
AcDbEntity
8
BEND_EXTENT
100
AcDbLine
10
10.261946710584553
20
60.332657388703282
30
5.4805816457263809e-14
11
10.261946710584624
21
63.261946710584638
31
5.1085139254640095e-14
0
LINE
5
122
100
AcDbEntity
8
BEND_EXTENT
100
AcDbLine
10
12.594604099287778
20
65.523893421169262
30
-4.1216419086626868e-15
11
408.45318274305043
21
65.523893421169262
31
9.1191033269886247e-13
0
LWPOLYLINE
5
123
100
AcDbEntity
8
BEND_EXTENT
100
AcDbPolyline
90
4
70
1
43
0.0
10
408.52389342116919
20
63.261946710584631
10
12.523893421169277
20
63.261946710584631
10
12.523893421169277
20
60.261946710584631
10
408.52389342116919
20
60.261946710584631
0
LINE
5
124
100
AcDbEntity
8
BEND_EXTENT
100
AcDbLine
10
410.8565508098726
20
65.523893421169262
30
9.2524338000475223e-13
11
415.7151294536352
21
65.523893421169234
31
9.9754858418829691e-13
0
LINE
5
125
100
AcDbEntity
8
BEND_EXTENT
100
AcDbLine
10
413.7151294536352
20
63.261946710584631
30
9.8469131981538204e-13
11
410.78584013175384
21
63.261946710584631
31
9.4238569488417986e-13
0
LINE
5
126
100
AcDbEntity
8
BEND_EXTENT
100
AcDbLine
10
410.78584013175384
20
63.261946710584631
30
9.4238569488417986e-13
11
410.78584013175384
21
60.332657388703282
31
9.461063720868038e-13
0
LINE
5
127
100
AcDbEntity
8
BEND_EXTENT
100
AcDbLine
10
10.261946710584624
20
-1.7771403922824664e-14
30
1.3143817272301565e-13
11
10.261946710584624
21
57.929289321881313
31
5.7858487529712519e-14
0
LINE
5
128
100
AcDbEntity
8
BEND_EXTENT
100
AcDbLine
10
12.523893421169277
20
57.999999999999979
30
2.7459728665858118e-14
11
12.523893421169277
21
-1.7763568394002505e-14
31
1.0118597711398783e-13
0
LINE
5
129
100
AcDbEntity
8
BEND_EXTENT
100
AcDbLine
10
408.52389342116919
20
57.999999999999979
30
9.4381895773039068e-13
11
12.523893421169277
21
57.999999999999979
31
2.7459728665858118e-14
0
LINE
5
130
100
AcDbEntity
8
BEND_EXTENT
100
AcDbLine
10
408.52389342116919
20
-1.8075497585633742e-14
30
1.0175452061785203e-12
11
408.52389342116919
21
57.999999999999979
31
9.4381895773039068e-13
0
LINE
5
131
100
AcDbEntity
8
BEND_EXTENT
100
AcDbLine
10
410.78584013175384
20
57.929289321881313
30
9.6692261155325461e-13
11
410.78584013175384
21
-1.7763568394002505e-14
31
1.0405022967465579e-12
0
ENDSEC
0
SECTION
2
OBJECTS
0
DICTIONARY
5
C
100
AcDbDictionary
3
ACAD_GROUP
350
D
3
ACAD_MLINESTYLE
350
17
0
DICTIONARY
5
D
100
AcDbDictionary
0
DICTIONARY
5
1A
330
C
100
AcDbDictionary
0
DICTIONARY
5
17
100
AcDbDictionary
0
ENDSEC
0
EOF
