0
SECTION
2
HEADER
9
$INSUNITS
70
4
9
$ACADVER
1
AC1014
9
$HANDSEED
5
FFFF
0
ENDSEC
0
SECTION
2
TABLES
0
TABLE
2
VPORT
5
8
100
AcDbSymbolTable
0
ENDTAB
0
TABLE
2
LTYPE
5
5
100
AcDbSymbolTable
0
LTYPE
5
14
100
AcDbSymbolTableRecord
100
AcDbLinetypeTableRecord
2
BYBLOCK
70
0
0
LTYPE
5
15
100
AcDbSymbolTableRecord
100
AcDbLinetypeTableRecord
2
BYLAYER
70
0
0
LTYPE
5
16
100
AcDbSymbolTableRecord
100
AcDbLinetypeTableRecord
2
DASHED
70
0
3
Dashed __ __ __ __ __ __ __ __ __ __ __ __ __ _
72
65
73
2
40
0.75
49
0.5
74
0
49
-0.25
74
0
0
ENDTAB
0
TABLE
2
LAYER
5
2
100
AcDbSymbolTable
70
2
0
LAYER
5
50
100
AcDbSymbolTableRecord
100
AcDbLayerTableRecord
2
0
70
0
62
7
6
CONTINUOUS
0
ENDTAB
0
TABLE
2
STYLE
5
3
100
AcDbSymbolTable
70
1
0
STYLE
5
11
100
AcDbSymbolTableRecord
100
AcDbTextStyleTableRecord
2
STANDARD
70
0
0
ENDTAB
0
TABLE
2
VIEW
5
6
100
AcDbSymbolTable
70
0
0
ENDTAB
0
TABLE
2
UCS
5
7
100
AcDbSymbolTable
70
0
0
ENDTAB
0
TABLE
2
APPID
5
9
100
AcDbSymbolTable
70
2
0
APPID
5
12
100
AcDbSymbolTableRecord
100
AcDbRegAppTableRecord
2
ACAD
70
0
0
ENDTAB
0
TABLE
2
DIMSTYLE
5
A
100
AcDbSymbolTable
70
1
0
ENDTAB
0
TABLE
2
BLOCK_RECORD
5
1
100
AcDbSymbolTable
70
1
0
BLOCK_RECORD
5
1F
100
AcDbSymbolTableRecord
100
AcDbBlockTableRecord
2
*MODEL_SPACE
0
BLOCK_RECORD
5
1B
100
AcDbSymbolTableRecord
100
AcDbBlockTableRecord
2
*PAPER_SPACE
0
ENDTAB
0
ENDSEC
0
SECTION
2
BLOCKS
0
BLOCK
5
20
100
AcDbEntity
100
AcDbBlockBegin
2
*MODEL_SPACE
0
ENDBLK
5
21
100
AcDbEntity
100
AcDbBlockEnd
0
BLOCK
5
1C
100
AcDbEntity
100
AcDbBlockBegin
2
*PAPER_SPACE
0
ENDBLK
5
1D
100
AcDbEntity
100
AcDbBlockEnd
0
ENDSEC
0
SECTION
2
ENTITIES
0
ELLIPSE
5
100
100
AcDbEntity
8
OUTER_PROFILES
100
AcDbEllipse
10
593.99999999939564
20
32.261946710584184
30
0
11
4.9764191744034285e-14
21
-16
31
0.0
40
0.75000000000000011
41
4.7123889803846915
42
6.1167279263301237
0
ARC
5
101
100
AcDbEntity
8
OUTER_PROFILES
100
AcDbCircle
10
-591.45550000003095
20
14.000138673176563
30
0
40
2.5444999999999891
210
0
220
0
230
-1
100
AcDbArc
50
102.62671095779918
51
180
0
LINE
5
102
100
AcDbEntity
8
OUTER_PROFILES
100
AcDbLine
10
594.00000000003092
20
14.000138673183235
30
0
11
593.99999999999977
21
1.9999999999999751
31
0
0
ARC
5
103
100
AcDbEntity
8
OUTER_PROFILES
100
AcDbCircle
10
-591.99999999999989
20
1.9999999999999929
30
0
40
1.9999999999998863
210
0
220
-0
230
-1
100
AcDbArc
50
180
51
270.00000000000324
0
LINE
5
104
100
AcDbEntity
8
OUTER_PROFILES
100
AcDbLine
10
591.99999999999977
20
-7.2164496600635175e-15
30
0
11
0
21
-7.2164496600635175e-15
31
0
0
ARC
5
105
100
AcDbEntity
8
OUTER_PROFILES
100
AcDbCircle
10
-4.7739590058881731e-14
20
1.9999999999999929
30
0
40
2
210
-0
220
0
230
-1
100
AcDbArc
50
270.00000000000136
51
360
0
LINE
5
106
100
AcDbEntity
8
OUTER_PROFILES
100
AcDbLine
10
-1.9999999999999525
20
1.999999999999988
30
0
11
-1.9999999999688338
21
14.000138673395611
31
0
0
ARC
5
107
100
AcDbEntity
8
OUTER_PROFILES
100
AcDbCircle
10
-0.54450000003116616
20
14.000138673388909
30
0
40
2.5445000000000002
210
0
220
0
230
-1
100
AcDbArc
50
0
51
77.373289037500371
0
ELLIPSE
5
108
100
AcDbEntity
8
OUTER_PROFILES
100
AcDbEllipse
10
-2.0000000002814842
20
32.261946710584191
30
0
11
-5.0002628903834361e-14
21
-16
31
0.0
40
0.75000000000000011
41
0.16645738091235263
42
1.5707963267948992
0
LINE
5
109
100
AcDbEntity
8
OUTER_PROFILES
100
AcDbLine
10
9.9999999997185167
20
32.261946710584198
30
0
11
9.9999999996531201
21
90.78584013189132
31
0
0
ELLIPSE
5
110
100
AcDbEntity
8
OUTER_PROFILES
100
AcDbEllipse
10
-2.0000000003469074
20
90.785840131753474
30
0
11
-1.8387092619701502e-10
21
16
31
0.0
40
0.75000000000000011
41
4.7123889803846843
42
6.1167279262679584
0
ARC
5
111
100
AcDbEntity
8
OUTER_PROFILES
100
AcDbCircle
10
-0.54449999974506613
20
109.0476481689804
30
0
40
2.5444999999999989
210
-0
220
0
230
-1
100
AcDbArc
50
282.6267109617886
51
360
0
LINE
5
112
100
AcDbEntity
8
OUTER_PROFILES
100
AcDbLine
10
-2.0000000002549343
20
109.04764816895108
30
0
11
-2.0000000006947047
21
121.04778684233806
31
0
0
ARC
5
113
100
AcDbEntity
8
OUTER_PROFILES
100
AcDbCircle
10
6.9471206565197008e-10
20
121.04778684236103
30
0
40
1.9999999999999929
210
-0
220
0
230
-1
100
AcDbArc
50
0
51
89.999999999341753
0
LINE
5
114
100
AcDbEntity
8
OUTER_PROFILES
100
AcDbLine
10
-7.176893638342923e-10
20
123.04778684236103
30
0
11
142.99999999912086
21
123.04778684400392
31
0
0
ARC
5
115
100
AcDbEntity
8
OUTER_PROFILES
100
AcDbCircle
10
-142.99999999914388
20
121.04778684400394
30
0
40
1.9999999999999929
210
0
220
0
230
-1
100
AcDbArc
50
89.999999999340488
51
180
0
LINE
5
116
100
AcDbEntity
8
OUTER_PROFILES
100
AcDbLine
10
144.99999999914388
20
121.0477868440269
30
0
11
144.99999999952342
21
88.023893422857668
31
0
0
LINE
5
117
100
AcDbEntity
8
OUTER_PROFILES
100
AcDbLine
10
144.99999999952342
20
88.023893422857668
30
0
11
145.99999999952342
21
88.023893422869165
31
0
0
LINE
5
118
100
AcDbEntity
8
OUTER_PROFILES
100
AcDbLine
10
145.99999999952342
20
88.023893422869165
30
0
11
145.99999999946212
21
120.78584013335886
31
0
0
ARC
5
119
100
AcDbEntity
8
OUTER_PROFILES
100
AcDbCircle
10
-147.99999999946212
20
120.78584013336105
30
0
40
1.9999999999999929
210
-0
220
0
230
-1
100
AcDbArc
50
0
51
89.999999999938126
0
LINE
5
120
100
AcDbEntity
8
OUTER_PROFILES
100
AcDbLine
10
147.99999999945996
20
122.78584013336103
30
0
11
443.99999999945999
21
122.7858401336799
31
0
0
ARC
5
121
100
AcDbEntity
8
OUTER_PROFILES
100
AcDbCircle
10
-443.99999999946209
20
120.7858401336799
30
0
40
1.9999999999999929
210
0
220
0
230
-1
100
AcDbArc
50
89.999999999939746
51
180
0
LINE
5
122
100
AcDbEntity
8
OUTER_PROFILES
100
AcDbLine
10
445.99999999946215
20
120.78584013368203
30
0
11
445.99999999952342
21
88.023893426315823
31
0
0
LINE
5
123
100
AcDbEntity
8
OUTER_PROFILES
100
AcDbLine
10
445.99999999952342
20
88.023893426315823
30
0
11
446.99999999952348
21
88.023893426327305
31
0
0
LINE
5
124
100
AcDbEntity
8
OUTER_PROFILES
100
AcDbLine
10
446.99999999952348
20
88.023893426327305
30
0
11
446.99999999914394
21
121.04778684749644
31
0
0
ARC
5
125
100
AcDbEntity
8
OUTER_PROFILES
100
AcDbCircle
10
-448.99999999914399
20
121.04778684751946
30
0
40
2.0000000000000284
210
-0
220
0
230
-1
100
AcDbArc
50
0
51
89.999999999340488
0
LINE
5
126
100
AcDbEntity
8
OUTER_PROFILES
100
AcDbLine
10
448.99999999912097
20
123.04778684751945
30
0
11
591.99999999895977
21
123.04778684916235
31
0
0
ARC
5
127
100
AcDbEntity
8
OUTER_PROFILES
100
AcDbCircle
10
-591.99999999898284
20
121.04778684916235
30
0
40
1.9999999999999929
210
0
220
0
230
-1
100
AcDbArc
50
89.999999999338854
51
180
0
LINE
5
128
100
AcDbEntity
8
OUTER_PROFILES
100
AcDbLine
10
593.99999999898284
20
121.04778684918534
30
0
11
593.99999999942258
21
109.04764817593184
31
0
0
ARC
5
129
100
AcDbEntity
8
OUTER_PROFILES
100
AcDbCircle
10
-591.45549999942261
20
109.04764817590454
30
0
40
2.5444999999999851
210
0
220
0
230
-1
100
AcDbArc
50
180
51
257.37328903989214
0
ELLIPSE
5
130
100
AcDbEntity
8
OUTER_PROFILES
100
AcDbEllipse
10
593.99999999933027
20
90.785840138600804
30
0
11
-1.8377115937636716e-10
21
16
31
0.0
40
0.75000000000000011
41
0.16645738087156126
42
1.5707963267948966
0
LINE
5
131
100
AcDbEntity
8
OUTER_PROFILES
100
AcDbLine
10
581.99999999933016
20
90.785840138462987
30
0
11
581.99999999939564
21
32.261946710584127
31
0
0
CIRCLE
5
132
100
AcDbEntity
8
INTERIOR_PROFILES
100
AcDbCircle
10
-586.99999999902025
20
120.04778685379139
30
0
40
1.7000000000000171
210
0
220
0
230
-1
0
CIRCLE
5
133
100
AcDbEntity
8
INTERIOR_PROFILES
100
AcDbCircle
10
-586.99999999954321
20
2.9999999979193781
30
0
40
1.7000000000000171
210
0
220
0
230
-1
0
CIRCLE
5
134
100
AcDbEntity
8
INTERIOR_PROFILES
100
AcDbCircle
10
-70.99999999955709
20
26.261946710584184
30
0
40
1.7000000000000171
210
0
220
0
230
-1
0
CIRCLE
5
135
100
AcDbEntity
8
INTERIOR_PROFILES
100
AcDbCircle
10
-220.99999999955719
20
26.261946710584184
30
0
40
1.7000000000000171
210
0
220
0
230
-1
0
CIRCLE
5
136
100
AcDbEntity
8
INTERIOR_PROFILES
100
AcDbCircle
10
-370.99999999955713
20
26.261946710584184
30
0
40
1.7000000000000171
210
0
220
0
230
-1
0
CIRCLE
5
137
100
AcDbEntity
8
INTERIOR_PROFILES
100
AcDbCircle
10
-520.99999999955708
20
26.261946710584184
30
0
40
1.7000000000000171
210
0
220
0
230
-1
0
CIRCLE
5
138
100
AcDbEntity
8
INTERIOR_PROFILES
100
AcDbCircle
10
-4.999999999020087
20
120.04778684104544
30
0
40
1.7000000000000004
210
0
220
0
230
-1
0
CIRCLE
5
139
100
AcDbEntity
8
INTERIOR_PROFILES
100
AcDbCircle
10
-520.99999999942281
20
96.785840137762136
30
0
40
1.7000000000000171
210
0
220
0
230
-1
0
CIRCLE
5
140
100
AcDbEntity
8
INTERIOR_PROFILES
100
AcDbCircle
10
-4.9999999995431574
20
2.9999999985463432
30
0
40
1.7000000000000004
210
0
220
0
230
-1
0
CIRCLE
5
141
100
AcDbEntity
8
INTERIOR_PROFILES
100
AcDbCircle
10
-70.999999999422784
20
96.78584013259217
30
0
40
1.7000000000000171
210
0
220
0
230
-1
0
CIRCLE
5
142
100
AcDbEntity
8
INTERIOR_PROFILES
100
AcDbCircle
10
-295.99999999955719
20
26.261946710584184
30
0
40
1.7000000000000171
210
0
220
0
230
-1
0
CIRCLE
5
143
100
AcDbEntity
8
INTERIOR_PROFILES
100
AcDbCircle
10
-574.62749999952598
20
61.52389342323599
30
0
40
1.7000000000000171
210
0
220
0
230
-1
0
CIRCLE
5
144
100
AcDbEntity
8
INTERIOR_PROFILES
100
AcDbCircle
10
-551.9999999995016
20
84.151393423211601
30
0
40
1.7000000000000171
210
0
220
0
230
-1
0
CIRCLE
5
145
100
AcDbEntity
8
INTERIOR_PROFILES
100
AcDbCircle
10
-28.686249999547101
20
41.927903598515471
30
0
40
1.6999999999999993
210
0
220
0
230
-1
0
CIRCLE
5
146
100
AcDbEntity
8
INTERIOR_PROFILES
100
AcDbCircle
10
-529.37249999952587
20
61.523893423187211
30
0
40
1.7000000000000171
210
0
220
0
230
-1
0
CIRCLE
5
147
100
AcDbEntity
8
INTERIOR_PROFILES
100
AcDbCircle
10
-551.99999999955037
20
38.896393423211634
30
0
40
1.7000000000000171
210
0
220
0
230
-1
0
CIRCLE
5
148
100
AcDbEntity
8
INTERIOR_PROFILES
100
AcDbCircle
10
-563.31374999950481
20
81.119883247356185
30
0
40
1.7000000000000171
210
0
220
0
230
-1
0
CIRCLE
5
149
100
AcDbEntity
8
INTERIOR_PROFILES
100
AcDbCircle
10
-39.999999999550312
20
38.896393422660068
30
0
40
1.6999999999999993
210
0
220
0
230
-1
0
CIRCLE
5
150
100
AcDbEntity
8
INTERIOR_PROFILES
100
AcDbCircle
10
-39.999999999501568
20
84.15139342266005
30
0
40
1.7000000000000037
210
0
220
0
230
-1
0
CIRCLE
5
151
100
AcDbEntity
8
INTERIOR_PROFILES
100
AcDbCircle
10
-540.68624999954704
20
41.927903599067029
30
0
40
1.7000000000000171
210
0
220
0
230
-1
0
CIRCLE
5
152
100
AcDbEntity
8
INTERIOR_PROFILES
100
AcDbCircle
10
-540.68624999950475
20
81.119883247331785
30
0
40
1.7000000000000171
210
0
220
0
230
-1
0
CIRCLE
5
153
100
AcDbEntity
8
INTERIOR_PROFILES
100
AcDbCircle
10
-39.99999999952594
20
61.523893422660052
30
0
40
1.6999999999999993
210
0
220
0
230
-1
0
CIRCLE
5
154
100
AcDbEntity
8
INTERIOR_PROFILES
100
AcDbCircle
10
-28.686249999504845
20
81.119883246780233
30
0
40
1.6999999999999993
210
0
220
0
230
-1
0
CIRCLE
5
155
100
AcDbEntity
8
INTERIOR_PROFILES
100
AcDbCircle
10
-51.313749999504815
20
81.119883246804648
30
0
40
1.6999999999999993
210
0
220
0
230
-1
0
CIRCLE
5
156
100
AcDbEntity
8
INTERIOR_PROFILES
100
AcDbCircle
10
-62.627499999525952
20
61.523893422684438
30
0
40
1.6999999999999993
210
0
220
0
230
-1
0
CIRCLE
5
157
100
AcDbEntity
8
INTERIOR_PROFILES
100
AcDbCircle
10
-51.313749999547078
20
41.927903598539864
30
0
40
1.6999999999999993
210
0
220
0
230
-1
0
CIRCLE
5
158
100
AcDbEntity
8
INTERIOR_PROFILES
100
AcDbCircle
10
-17.372499999525939
20
61.523893422635666
30
0
40
1.6999999999999993
210
0
220
0
230
-1
0
CIRCLE
5
159
100
AcDbEntity
8
INTERIOR_PROFILES
100
AcDbCircle
10
-563.31374999954699
20
41.927903599091408
30
0
40
1.7000000000000171
210
0
220
0
230
-1
0
LINE
5
160
100
AcDbEntity
8
BEND
100
AcDbLine
10
593.73490631948687
20
107.91681349389006
30
-3.0760518940441922e-09
11
446.9999999992948
21
107.91681349220424
31
1.8346689622317173e-13
0
LINE
5
161
100
AcDbEntity
8
BEND
100
AcDbLine
10
-1.7349063200860504
20
15.130973355292063
30
3.1827435111871667e-10
11
593.73490632004302
21
15.130973355292072
31
-3.182704639659614e-10
0
LINE
5
162
100
AcDbEntity
8
BEND
100
AcDbLine
10
445.99999999946328
20
119.65486677838975
30
1.7934778373905691e-13
11
145.99999999946337
21
119.65486677806655
31
1.6978627899453272e-13
0
LINE
5
163
100
AcDbEntity
8
BEND
100
AcDbLine
10
581.99999999904139
20
89.654866783170633
30
1.8392558451496491e-13
11
446.99999999950467
21
89.654866781619646
31
1.8102484181638945e-13
0
LINE
5
164
100
AcDbEntity
8
BEND
100
AcDbLine
10
9.9999999996872244
20
33.392920065876517
30
1.6679496265750654e-13
11
581.99999999936779
21
33.39292006587651
31
1.8249998500423458e-13
0
LINE
5
165
100
AcDbEntity
8
BEND
100
AcDbLine
10
144.9999999995045
20
89.654866778149994
30
1.8448539094439917e-13
11
9.9999999993967492
21
89.654866776598993
31
1.7999960969732338e-13
0
LINE
5
166
100
AcDbEntity
8
BEND
100
AcDbLine
10
144.99999999929474
20
107.91681348873465
30
2.1287125898429787e-13
11
-1.7349063203612225
21
107.91681348704883
31
3.0762537187140121e-09
0
LINE
5
167
100
AcDbEntity
8
BEND_EXTENT
100
AcDbLine
10
592.62113487034765
20
106.78584013858497
30
1.8422149268212659e-13
11
446.99999999930782
21
106.78584013691196
31
1.8096635301464626e-13
0
LINE
5
168
100
AcDbEntity
8
BEND_EXTENT
100
AcDbLine
10
446.99999999949165
20
90.785840136911958
30
1.8096635301465038e-13
11
581.99999999933038
21
90.785840138462973
31
-4.6341800195905873e-09
0
LINE
5
169
100
AcDbEntity
8
BEND_EXTENT
100
AcDbLine
10
446.99999999928184
20
109.04778684749647
30
1.7652546091614508e-13
11
593.99999999912052
21
109.04778684918533
31
1.7981142302283268e-13
0
LINE
5
170
100
AcDbEntity
8
BEND_EXTENT
100
AcDbLine
10
144.99999999930785
20
106.78584013344233
30
1.9197916932551443e-13
11
-0.6211348713905096
21
106.78584013176931
31
1.8428313755954107e-13
0
LINE
5
171
100
AcDbEntity
8
BEND_EXTENT
100
AcDbLine
10
-2.0000000005568994
20
109.04778684233807
30
1.9757499141582747e-13
11
144.99999999928173
21
109.04778684402693
31
2.053018456210157e-13
0
LINE
5
172
100
AcDbEntity
8
BEND_EXTENT
100
AcDbLine
10
9.9999999997163211
20
34.523893421168822
30
1.8007966482661103e-13
11
581.99999999939359
21
34.523893421168822
31
2.0174764171117049e-13
0
LINE
5
173
100
AcDbEntity
8
BEND_EXTENT
100
AcDbLine
10
581.9999999993355
20
88.523893427878292
30
2.0174764171116915e-13
11
446.99999999951763
21
88.523893426327305
31
1.8540724511353619e-13
0
LINE
5
174
100
AcDbEntity
8
BEND_EXTENT
100
AcDbLine
10
445.99999999946448
20
118.52389342309742
30
1.8538489162981546e-13
11
145.99999999946459
21
118.52389342277422
31
1.8311973861246014e-13
0
LINE
5
175
100
AcDbEntity
8
BEND_EXTENT
100
AcDbLine
10
144.99999999951771
20
88.523893422857682
30
1.7865649303024115e-13
11
9.9999999996581934
21
88.523893421306695
31
1.8007966482660974e-13
0
LINE
5
176
100
AcDbEntity
8
BEND_EXTENT
100
AcDbLine
10
581.99999999939575
20
32.261946710584148
30
-2.0749161076851693e-09
11
9.999999999718554
21
32.261946710584198
31
-1.4587373516425008e-09
0
LINE
5
177
100
AcDbEntity
8
BEND_EXTENT
100
AcDbLine
10
-0.62113487113514387
20
16.261946710584184
30
6.8819942998530492e-14
11
592.62113487078523
21
16.261946710584194
31
9.0962758613623237e-14
0
LINE
5
178
100
AcDbEntity
8
BEND_EXTENT
100
AcDbLine
10
593.99999999999966
20
13.999999999999977
30
5.3245998215584498e-14
11
-2.0000000000000284
21
13.999999999999995
31
5.1025552165319236e-14
0
LINE
5
179
100
AcDbEntity
8
BEND_EXTENT
100
AcDbLine
10
145.99999999946212
20
120.78584013335886
30
1.6979706231673372e-13
11
445.99999999946203
21
120.78584013368203
31
1.9426667582643261e-13
0
LINE
5
180
100
AcDbEntity
8
BEND_EXTENT
100
AcDbLine
10
9.9999999996531201
20
90.78584013189132
30
1.3212300157742017e-09
11
144.99999999949148
21
90.785840133442335
31
1.8753827722714143e-13
0
ENDSEC
0
SECTION
2
OBJECTS
0
DICTIONARY
5
C
100
AcDbDictionary
3
ACAD_GROUP
350
D
3
ACAD_MLINESTYLE
350
17
0
DICTIONARY
5
D
100
AcDbDictionary
0
DICTIONARY
5
1A
330
C
100
AcDbDictionary
0
DICTIONARY
5
17
100
AcDbDictionary
0
ENDSEC
0
EOF
