0
SECTION
2
HEADER
9
$INSUNITS
70
4
9
$ACADVER
1
AC1014
9
$HANDSEED
5
FFFF
0
ENDSEC
0
SECTION
2
TABLES
0
TABLE
2
VPORT
5
8
100
AcDbSymbolTable
0
ENDTAB
0
TABLE
2
LTYPE
5
5
100
AcDbSymbolTable
0
LTYPE
5
14
100
AcDbSymbolTableRecord
100
AcDbLinetypeTableRecord
2
BYBLOCK
70
0
0
LTYPE
5
15
100
AcDbSymbolTableRecord
100
AcDbLinetypeTableRecord
2
BYLAYER
70
0
0
LTYPE
5
16
100
AcDbSymbolTableRecord
100
AcDbLinetypeTableRecord
2
DASHED
70
0
3
Dashed __ __ __ __ __ __ __ __ __ __ __ __ __ _
72
65
73
2
40
0.75
49
0.5
74
0
49
-0.25
74
0
0
ENDTAB
0
TABLE
2
LAYER
5
2
100
AcDbSymbolTable
70
2
0
LAYER
5
50
100
AcDbSymbolTableRecord
100
AcDbLayerTableRecord
2
0
70
0
62
7
6
CONTINUOUS
0
ENDTAB
0
TABLE
2
STYLE
5
3
100
AcDbSymbolTable
70
1
0
STYLE
5
11
100
AcDbSymbolTableRecord
100
AcDbTextStyleTableRecord
2
STANDARD
70
0
0
ENDTAB
0
TABLE
2
VIEW
5
6
100
AcDbSymbolTable
70
0
0
ENDTAB
0
TABLE
2
UCS
5
7
100
AcDbSymbolTable
70
0
0
ENDTAB
0
TABLE
2
APPID
5
9
100
AcDbSymbolTable
70
2
0
APPID
5
12
100
AcDbSymbolTableRecord
100
AcDbRegAppTableRecord
2
ACAD
70
0
0
ENDTAB
0
TABLE
2
DIMSTYLE
5
A
100
AcDbSymbolTable
70
1
0
ENDTAB
0
TABLE
2
BLOCK_RECORD
5
1
100
AcDbSymbolTable
70
1
0
BLOCK_RECORD
5
1F
100
AcDbSymbolTableRecord
100
AcDbBlockTableRecord
2
*MODEL_SPACE
0
BLOCK_RECORD
5
1B
100
AcDbSymbolTableRecord
100
AcDbBlockTableRecord
2
*PAPER_SPACE
0
ENDTAB
0
ENDSEC
0
SECTION
2
BLOCKS
0
BLOCK
5
20
100
AcDbEntity
100
AcDbBlockBegin
2
*MODEL_SPACE
0
ENDBLK
5
21
100
AcDbEntity
100
AcDbBlockEnd
0
BLOCK
5
1C
100
AcDbEntity
100
AcDbBlockBegin
2
*PAPER_SPACE
0
ENDBLK
5
1D
100
AcDbEntity
100
AcDbBlockEnd
0
ENDSEC
0
SECTION
2
ENTITIES
0
ARC
5
100
100
AcDbEntity
8
OUTER_PROFILES
100
AcDbCircle
10
-0.54450000000073828
20
14.000138673320022
30
0
40
2.5445000000000007
210
0
220
0
230
-1
100
AcDbArc
50
0
51
77.373289039058463
0
LINE
5
101
100
AcDbEntity
8
OUTER_PROFILES
100
AcDbLine
10
-1.9999999999992624
20
14.00013867332528
30
0
11
-1.9999999999998863
21
1.9999999999999929
31
0
0
ARC
5
102
100
AcDbEntity
8
OUTER_PROFILES
100
AcDbCircle
10
0
20
2.0000000000000107
30
0
40
2
210
0
220
-0
230
-1
100
AcDbArc
50
269.99999999999972
51
360
0
LINE
5
103
100
AcDbEntity
8
OUTER_PROFILES
100
AcDbLine
10
8.8817841970012523e-15
20
1.0547118733938987e-14
30
0
11
941.99999999999977
21
0
31
0
0
ARC
5
104
100
AcDbEntity
8
OUTER_PROFILES
100
AcDbCircle
10
-941.99999999999989
20
1.9999999999999929
30
0
40
2.0000000000000284
210
0
220
-0
230
-1
100
AcDbArc
50
180
51
270.00000000000324
0
LINE
5
105
100
AcDbEntity
8
OUTER_PROFILES
100
AcDbLine
10
943.99999999999989
20
1.9999999999999798
30
0
11
944.0000000000008
21
14.000138673325303
31
0
0
ARC
5
106
100
AcDbEntity
8
OUTER_PROFILES
100
AcDbCircle
10
-941.45550000000071
20
14.000138673320128
30
0
40
2.5445000000000002
210
0
220
0
230
-1
100
AcDbArc
50
102.62671096094203
51
180
0
ELLIPSE
5
107
100
AcDbEntity
8
OUTER_PROFILES
100
AcDbEllipse
10
944.00000000000091
20
32.261946710585853
30
0
11
4.6948103811855727e-12
21
16
31
0.0
40
0.75000000000000011
41
1.5707963267951168
42
2.9751352726985276
0
LINE
5
108
100
AcDbEntity
8
OUTER_PROFILES
100
AcDbLine
10
932.00000000000091
20
32.261946710585846
30
0
11
932.00000000005616
21
90.78584013199071
31
0
0
ELLIPSE
5
109
100
AcDbEntity
8
OUTER_PROFILES
100
AcDbEllipse
10
944.00000000005616
20
90.785840131993737
30
0
11
8.7253898495286134e-12
21
-16
31
0.0
40
0.75000000000000011
41
3.3080500344795034
42
4.7123889803844694
0
ARC
5
110
100
AcDbEntity
8
OUTER_PROFILES
100
AcDbCircle
10
-941.45550000007472
20
109.04764816926404
30
0
40
2.5445000000000562
210
0
220
-0
230
-1
100
AcDbArc
50
180
51
257.37328903916284
0
LINE
5
111
100
AcDbEntity
8
OUTER_PROFILES
100
AcDbLine
10
944.00000000007481
20
109.04764816926314
30
0
11
944.0000000000008
21
121.04778684257845
31
0
0
ARC
5
112
100
AcDbEntity
8
OUTER_PROFILES
100
AcDbCircle
10
-942.00000000000057
20
121.04778684257795
30
0
40
1.9999999999999929
210
0
220
0
230
-1
100
AcDbArc
50
89.999999999990237
51
180
0
LINE
5
113
100
AcDbEntity
8
OUTER_PROFILES
100
AcDbLine
10
942.00000000000023
20
123.04778684257795
30
0
11
8.5265128291212022e-13
21
123.04778684234066
31
0
0
ARC
5
114
100
AcDbEntity
8
OUTER_PROFILES
100
AcDbCircle
10
-1.1368683772161603e-12
20
121.04778684234066
30
0
40
2.0000000000000004
210
-0
220
0
230
-1
100
AcDbArc
50
0
51
89.999999999991857
0
LINE
5
115
100
AcDbEntity
8
OUTER_PROFILES
100
AcDbLine
10
-1.9999999999988636
20
121.04778684234014
30
0
11
-1.9999999999249385
21
109.04764816901449
31
0
0
ARC
5
116
100
AcDbEntity
8
OUTER_PROFILES
100
AcDbCircle
10
-0.54450000007506105
20
109.04764816901663
30
0
40
2.5444999999999975
210
-0
220
0
230
-1
100
AcDbArc
50
282.62671096104185
51
360
0
ELLIPSE
5
117
100
AcDbEntity
8
OUTER_PROFILES
100
AcDbEllipse
10
-1.9999999999437534
20
90.785840131755435
30
0
11
6.645243581544242e-13
21
16
31
0.0
40
0.75000000000000011
41
4.7123889803846897
42
6.1167279262867842
0
LINE
5
118
100
AcDbEntity
8
OUTER_PROFILES
100
AcDbLine
10
10.000000000056248
20
90.785840131754938
30
0
11
10.00000000000111
21
32.26194671058937
31
0
0
ELLIPSE
5
119
100
AcDbEntity
8
OUTER_PROFILES
100
AcDbEllipse
10
-1.9999999999988916
20
32.261946710585846
30
0
11
4.6951038264974682e-12
21
-16
31
0.0
40
0.75000000000000011
41
0.16645738089121309
42
1.570796326794897
0
ARC
5
120
100
AcDbEntity
8
INTERIOR_PROFILES
100
AcDbCircle
10
-77.000000000057156
20
12.999999991395352
30
0
40
1.6999999999999984
210
0
220
0
230
-1
100
AcDbArc
50
-216.03187943108048
51
36.031879431086004
0
SPLINE
5
121
100
AcDbEntity
8
INTERIOR_PROFILES
100
AcDbSpline
70
0
71
3
72
11
73
7
74
0
42
0.000000001
43
0.0000000001
44
0.0000000001
40
0.31591804562341136
40
0.31591804562341136
40
0.31591804562341136
40
0.31591804562341136
40
0.50001066431902652
40
0.50001066431902652
40
0.50001066431902652
40
0.62030148941399432
40
0.62030148941399432
40
0.62030148941399432
40
0.62030148941399432
10
78.374772702285043
20
14.00000000000003
30
0
10
77.990850884857252
20
14.380019765490628
30
0
10
77.313941258768466
20
14.587617096406946
30
0
10
76.669465137047013
20
14.490045206975903
30
0
10
76.248347957090488
20
14.426289239089209
30
0
10
75.876091631867837
20
14.248314633510191
30
0
10
75.625227297829554
20
14.00000000000003
30
0
0
SPLINE
5
122
100
AcDbEntity
8
INTERIOR_PROFILES
100
AcDbSpline
70
0
71
3
72
11
73
7
74
0
42
0.000000001
43
0.0000000001
44
0.0000000001
40
0.31591804559492964
40
0.31591804559492964
40
0.31591804559492964
40
0.31591804559492964
40
0.50001066401385896
40
0.50001066401385896
40
0.50001066401385896
40
0.62030149138418977
40
0.62030149138418977
40
0.62030149138418977
40
0.62030149138418977
10
122.37477270826062
20
14.000000000000066
30
0
10
121.9908508949166
20
14.380019766245145
30
0
10
121.31394127143878
20
14.587617100704486
30
0
10
120.66946515048073
20
14.490045215319007
30
0
10
120.24834796242445
20
14.426289248773987
30
0
10
119.87609162828889
20
14.248314639073785
30
0
10
119.62522729179639
20
13.999999999999986
30
0
0
ARC
5
123
100
AcDbEntity
8
INTERIOR_PROFILES
100
AcDbCircle
10
-121.00000000002851
20
12.999999999650038
30
0
40
1.699999999999976
210
0
220
0
230
-1
100
AcDbArc
50
-216.03187908705905
51
36.031879087056907
0
SPLINE
5
124
100
AcDbEntity
8
INTERIOR_PROFILES
100
AcDbSpline
70
0
71
3
72
11
73
7
74
0
42
0.000000001
43
0.0000000001
44
0.0000000001
40
0.31591804559459263
40
0.31591804559459263
40
0.31591804559459263
40
0.31591804559459263
40
0.50001066401248806
40
0.50001066401248806
40
0.50001066401248806
40
0.62030149140784352
40
0.62030149140784352
40
0.62030149140784352
40
0.62030149140784352
10
222.37477270833253
20
14.000000000000012
30
0
10
221.99085089503171
20
14.380019766259879
30
0
10
221.31394127157378
20
14.587617100760752
30
0
10
220.66946515061801
20
14.490045215415552
30
0
10
220.24834796247333
20
14.426289248883233
30
0
10
219.87609162824086
20
14.248314639135469
30
0
10
219.62522729172406
20
14.000000000000066
30
0
0
ARC
5
125
100
AcDbEntity
8
INTERIOR_PROFILES
100
AcDbCircle
10
-221.00000000002851
20
12.999999999749132
30
0
40
1.6999999999998043
210
0
220
0
230
-1
100
AcDbArc
50
-216.03187908293117
51
36.031879082924171
0
SPLINE
5
126
100
AcDbEntity
8
INTERIOR_PROFILES
100
AcDbSpline
70
0
71
3
72
11
73
7
74
0
42
0.000000001
43
0.0000000001
44
0.0000000001
40
0.3159180456268727
40
0.3159180456268727
40
0.3159180456268727
40
0.3159180456268727
40
0.50001066435222163
40
0.50001066435222163
40
0.50001066435222163
40
0.62030148917450456
40
0.62030148917450456
40
0.62030148917450456
40
0.62030148917450456
10
32.374772701555088
20
13.999999999999986
30
0
10
31.990850883639581
20
14.380019765390317
30
0
10
31.313941257253504
20
14.587617095876499
30
0
10
30.669465135451475
20
14.490045205967901
30
0
10
30.248347956464983
20
14.426289237923982
30
0
10
29.876091632307151
20
14.24831463284165
30
0
10
29.625227298559338
20
14.000000000000021
30
0
0
ARC
5
127
100
AcDbEntity
8
INTERIOR_PROFILES
100
AcDbCircle
10
-31.000000000057213
20
12.999999990391924
30
0
40
1.6999999999999673
210
0
220
0
230
-1
100
AcDbArc
50
-216.03187947290218
51
36.031879472903185
0
ARC
5
128
100
AcDbEntity
8
INTERIOR_PROFILES
100
AcDbCircle
10
-4.9999999999930367
20
12.999999999535126
30
0
40
1.6999999999999995
210
0
220
0
230
-1
100
AcDbArc
50
-216.03187909184322
51
36.031879091843123
0
SPLINE
5
129
100
AcDbEntity
8
INTERIOR_PROFILES
100
AcDbSpline
70
0
71
3
72
11
73
7
74
0
42
0.000000001
43
0.0000000001
44
0.0000000001
40
0.31591804559532338
40
0.31591804559532338
40
0.31591804559532338
40
0.31591804559532338
40
0.50001066401941807
40
0.50001066401941807
40
0.50001066401941807
40
0.62030149135676405
40
0.62030149135676405
40
0.62030149135676405
40
0.62030149135676405
10
6.3747727081415917
20
13.999999999999986
30
0
10
5.9908508947371786
20
14.380019766238057
30
0
10
5.3139412712165779
20
14.587617100647305
30
0
10
4.6694651502440365
20
14.4900452152008
30
0
10
4.2483479623057008
20
14.426289248635173
30
0
10
3.8760916282998892
20
14.248314638993378
30
0
10
3.6252272918444817
20
13.999999999999977
30
0
0
ARC
5
130
100
AcDbEntity
8
INTERIOR_PROFILES
100
AcDbCircle
10
-271.00000000002854
20
12.999999999798684
30
0
40
1.7000000000000006
210
0
220
0
230
-1
100
AcDbArc
50
-216.03187908086207
51
36.031879080855923
0
SPLINE
5
131
100
AcDbEntity
8
INTERIOR_PROFILES
100
AcDbSpline
70
0
71
3
72
11
73
7
74
0
42
0.000000001
43
0.0000000001
44
0.0000000001
40
0.31591804559442066
40
0.31591804559442066
40
0.31591804559442066
40
0.31591804559442066
40
0.50001066400964755
40
0.50001066400964755
40
0.50001066400964755
40
0.62030149141966529
40
0.62030149141966529
40
0.62030149141966529
40
0.62030149141966529
10
272.3747727083686
20
13.999999999999986
30
0
10
271.9908508950947
20
14.380019766262118
30
0
10
271.31394127165777
20
14.587617100784502
30
0
10
270.66946515070953
20
14.490045215467227
30
0
10
270.2483479625123
20
14.426289248944455
30
0
10
269.87609162822167
20
14.24831463917096
30
0
10
269.62522729168813
20
14.000000000000039
30
0
0
SPLINE
5
132
100
AcDbEntity
8
INTERIOR_PROFILES
100
AcDbSpline
70
0
71
3
72
11
73
7
74
0
42
0.000000001
43
0.0000000001
44
0.0000000001
40
0.31591804559424896
40
0.31591804559424896
40
0.31591804559424896
40
0.31591804559424896
40
0.50001066400645577
40
0.50001066400645577
40
0.50001066400645577
40
0.62030149143149627
40
0.62030149143149627
40
0.62030149143149627
40
0.62030149143149627
10
322.37477270840481
20
14.000000000000012
30
0
10
321.99085089515836
20
14.380019766263601
30
0
10
321.31394127174394
20
14.587617100807453
30
0
10
320.66946515080463
20
14.490045215519469
30
0
10
320.24834796255391
20
14.426289249006832
30
0
10
319.87609162820314
20
14.2483146392071
30
0
10
319.6252272916521
20
14.000000000000021
30
0
0
ARC
5
133
100
AcDbEntity
8
INTERIOR_PROFILES
100
AcDbCircle
10
-321.00000000002859
20
12.999999999848235
30
0
40
1.6999999999998887
210
0
220
0
230
-1
100
AcDbArc
50
-216.03187907879882
51
36.031879078792308
0
ARC
5
134
100
AcDbEntity
8
INTERIOR_PROFILES
100
AcDbCircle
10
-171.00000000002851
20
12.999999999699581
30
0
40
1.7000000000000013
210
0
220
0
230
-1
100
AcDbArc
50
-216.03187908499402
51
36.031879084987878
0
SPLINE
5
135
100
AcDbEntity
8
INTERIOR_PROFILES
100
AcDbSpline
70
0
71
3
72
11
73
7
74
0
42
0.000000001
43
0.0000000001
44
0.0000000001
40
0.31591804559476228
40
0.31591804559476228
40
0.31591804559476228
40
0.31591804559476228
40
0.50001066401253236
40
0.50001066401253236
40
0.50001066401253236
40
0.62030149139601587
40
0.62030149139601587
40
0.62030149139601587
40
0.62030149139601587
10
172.37477270829658
20
14.000000000000012
30
0
10
171.99085089497544
20
14.380019766251131
30
0
10
171.31394127151111
20
14.587617100731274
30
0
10
170.66946515055619
20
14.490045215368301
30
0
10
170.24834796245329
20
14.426289248830617
30
0
10
169.87609162826601
20
14.248314639105804
30
0
10
169.62522729176015
20
14.000000000000021
30
0
0
SPLINE
5
136
100
AcDbEntity
8
INTERIOR_PROFILES
100
AcDbSpline
70
0
71
3
72
11
73
7
74
0
42
0.000000001
43
0.0000000001
44
0.0000000001
40
0.31591804559356551
40
0.31591804559356551
40
0.31591804559356551
40
0.31591804559356551
40
0.50001066399958494
40
0.50001066399958494
40
0.50001066399958494
40
0.62030149147879876
40
0.62030149147879876
40
0.62030149147879876
40
0.62030149147879876
10
522.37477270854902
20
14.000000000000012
30
0
10
521.99085089539938
20
14.380019766282839
30
0
10
521.31394127204555
20
14.587617100911574
30
0
10
520.66946515112306
20
14.490045215719043
30
0
10
520.24834796267965
20
14.426289249237918
30
0
10
519.87609162811714
20
14.248314639339759
30
0
10
519.62522729150794
20
14.000000000000021
30
0
0
ARC
5
137
100
AcDbEntity
8
INTERIOR_PROFILES
100
AcDbCircle
10
-521.00000000002854
20
13.000000000046423
30
0
40
1.6999999999999531
210
0
220
0
230
-1
100
AcDbArc
50
-216.03187907053686
51
36.031879070534892
0
ARC
5
138
100
AcDbEntity
8
INTERIOR_PROFILES
100
AcDbCircle
10
-371.00000000002859
20
12.999999999897778
30
0
40
1.7000000000000095
210
0
220
0
230
-1
100
AcDbArc
50
-216.03187907673254
51
36.031879076727925
0
SPLINE
5
139
100
AcDbEntity
8
INTERIOR_PROFILES
100
AcDbSpline
70
0
71
3
72
11
73
7
74
0
42
0.000000001
43
0.0000000001
44
0.0000000001
40
0.31591804559407943
40
0.31591804559407943
40
0.31591804559407943
40
0.31591804559407943
40
0.50001066400402927
40
0.50001066400402927
40
0.50001066400402927
40
0.62030149144331981
40
0.62030149144331981
40
0.62030149144331981
40
0.62030149144331981
10
372.3747727084409
20
14.00000000000003
30
0
10
371.99085089522009
20
14.380019766266967
30
0
10
371.31394127182455
20
14.587617100832029
30
0
10
370.66946515089165
20
14.490045215570495
30
0
10
370.24834796259017
20
14.426289249066802
30
0
10
369.87609162818308
20
14.248314639241642
30
0
10
369.62522729161611
20
14.000000000000021
30
0
0
SPLINE
5
140
100
AcDbEntity
8
INTERIOR_PROFILES
100
AcDbSpline
70
0
71
3
72
11
73
7
74
0
42
0.000000001
43
0.0000000001
44
0.0000000001
40
0.31591804559390707
40
0.31591804559390707
40
0.31591804559390707
40
0.31591804559390707
40
0.50001066400235428
40
0.50001066400235428
40
0.50001066400235428
40
0.62030149145514635
40
0.62030149145514635
40
0.62030149145514635
40
0.62030149145514635
10
422.37477270847694
20
14.000000000000039
30
0
10
421.9908508952804
20
14.380019766271781
30
0
10
421.31394127189947
20
14.587617100858141
30
0
10
420.66946515097078
20
14.490045215620331
30
0
10
420.24834796262132
20
14.426289249124462
30
0
10
419.87609162816159
20
14.248314639274877
30
0
10
419.62522729158002
20
14.000000000000021
30
0
0
ARC
5
141
100
AcDbEntity
8
INTERIOR_PROFILES
100
AcDbCircle
10
-421.00000000002854
20
12.999999999947329
30
0
40
1.699999999999994
210
0
220
0
230
-1
100
AcDbArc
50
-216.03187907466747
51
36.03187907466473
0
SPLINE
5
142
100
AcDbEntity
8
INTERIOR_PROFILES
100
AcDbSpline
70
0
71
3
72
11
73
7
74
0
42
0.000000001
43
0.0000000001
44
0.0000000001
40
0.31591804559288428
40
0.31591804559288428
40
0.31591804559288428
40
0.31591804559288428
40
0.50001066399167182
40
0.50001066399167182
40
0.50001066399167182
40
0.62030149152610226
40
0.62030149152610226
40
0.62030149152610226
40
0.62030149152610226
10
722.37477270869306
20
14.000000000000012
30
0
10
721.99085089564289
20
14.380019766299608
30
0
10
721.31394127235455
20
14.587617101013528
30
0
10
720.66946515145241
20
14.490045215920304
30
0
10
720.24834796281243
20
14.426289249472299
30
0
10
719.87609162803301
20
14.248314639474522
30
0
10
719.62522729136367
20
14.000000000000012
30
0
0
ARC
5
143
100
AcDbEntity
8
INTERIOR_PROFILES
100
AcDbCircle
10
-721.00000000002854
20
13.000000000244611
30
0
40
1.6999999999999027
210
0
220
0
230
-1
100
AcDbArc
50
-216.03187906227947
51
36.031879062274967
0
ARC
5
144
100
AcDbEntity
8
INTERIOR_PROFILES
100
AcDbCircle
10
-571.00000000002854
20
13.000000000095975
30
0
40
1.7000000000000108
210
0
220
0
230
-1
100
AcDbArc
50
-216.03187906847032
51
36.031879068470403
0
SPLINE
5
145
100
AcDbEntity
8
INTERIOR_PROFILES
100
AcDbSpline
70
0
71
3
72
11
73
7
74
0
42
0.000000001
43
0.0000000001
44
0.0000000001
40
0.3159180455933957
40
0.3159180455933957
40
0.3159180455933957
40
0.3159180455933957
40
0.50001066399810989
40
0.50001066399810989
40
0.50001066399810989
40
0.6203014914906243
40
0.6203014914906243
40
0.6203014914906243
40
0.6203014914906243
10
572.37477270858494
20
14.000000000000021
30
0
10
571.99085089545929
20
14.380019766287999
30
0
10
571.31394127211911
20
14.587617100938131
30
0
10
570.66946515120003
20
14.490045215768568
30
0
10
570.24834796270932
20
14.426289249294948
30
0
10
569.87609162809508
20
14.248314639372541
30
0
10
569.6252272914719
20
14.000000000000004
30
0
0
SPLINE
5
146
100
AcDbEntity
8
INTERIOR_PROFILES
100
AcDbSpline
70
0
71
3
72
11
73
7
74
0
42
0.000000001
43
0.0000000001
44
0.0000000001
40
0.31591804559253928
40
0.31591804559253928
40
0.31591804559253928
40
0.31591804559253928
40
0.50001066398841498
40
0.50001066398841498
40
0.50001066398841498
40
0.62030149154975556
40
0.62030149154975556
40
0.62030149154975556
40
0.62030149154975556
10
822.37477270876525
20
14.000000000000012
30
0
10
821.99085089576351
20
14.380019766309191
30
0
10
821.31394127250462
20
14.587617101066028
30
0
10
820.66946515160976
20
14.490045216019807
30
0
10
820.24834796287359
20
14.426289249587247
30
0
10
819.87609162798992
20
14.248314639540762
30
0
10
819.62522729129182
20
14.000000000000021
30
0
0
ARC
5
147
100
AcDbEntity
8
INTERIOR_PROFILES
100
AcDbCircle
10
-821.00000000002854
20
13.000000000343706
30
0
40
1.6999999999999922
210
0
220
0
230
-1
100
AcDbArc
50
-216.03187905814735
51
36.031879058149869
0
ARC
5
148
100
AcDbEntity
8
INTERIOR_PROFILES
100
AcDbCircle
10
-471.00000000002859
20
12.999999999996872
30
0
40
1.6999999999999971
210
0
220
0
230
-1
100
AcDbArc
50
-216.03187907260434
51
36.031879072597157
0
SPLINE
5
149
100
AcDbEntity
8
INTERIOR_PROFILES
100
AcDbSpline
70
0
71
3
72
11
73
7
74
0
42
0.000000001
43
0.0000000001
44
0.0000000001
40
0.31591804559373682
40
0.31591804559373682
40
0.31591804559373682
40
0.31591804559373682
40
0.50001066400102423
40
0.50001066400102423
40
0.50001066400102423
40
0.62030149146697278
40
0.62030149146697278
40
0.62030149146697278
40
0.62030149146697278
10
472.37477270851292
20
14.000000000000039
30
0
10
471.99085089533986
20
14.380019766277314
30
0
10
471.31394127197206
20
14.587617100884964
30
0
10
470.66946515104632
20
14.490045215669607
30
0
10
470.24834796265003
20
14.426289249181039
30
0
10
469.87609162813925
20
14.248314639307225
30
0
10
469.62522729154398
20
14.000000000000012
30
0
0
ARC
5
150
100
AcDbEntity
8
INTERIOR_PROFILES
100
AcDbCircle
10
-671.00000000002854
20
13.000000000195069
30
0
40
1.6999999999999833
210
0
220
0
230
-1
100
AcDbArc
50
-216.03187906434263
51
36.031879064341965
0
SPLINE
5
151
100
AcDbEntity
8
INTERIOR_PROFILES
100
AcDbSpline
70
0
71
3
72
11
73
7
74
0
42
0.000000001
43
0.0000000001
44
0.0000000001
40
0.31591804559305398
40
0.31591804559305398
40
0.31591804559305398
40
0.31591804559305398
40
0.50001066399400163
40
0.50001066399400163
40
0.50001066399400163
40
0.62030149151427472
40
0.62030149151427472
40
0.62030149151427472
40
0.62030149151427472
10
672.37477270865702
20
14.00000000000003
30
0
10
671.99085089558139
20
14.380019766296179
30
0
10
671.31394127227463
20
14.587617100988766
30
0
10
670.66946515136635
20
14.490045215869429
30
0
10
670.24834796277673
20
14.426289249412614
30
0
10
669.87609162805325
20
14.248314639440167
30
0
10
669.62522729139982
20
14.00000000000003
30
0
0
SPLINE
5
152
100
AcDbEntity
8
INTERIOR_PROFILES
100
AcDbSpline
70
0
71
3
72
11
73
7
74
0
42
0.000000001
43
0.0000000001
44
0.0000000001
40
0.3159180455932234
40
0.3159180455932234
40
0.3159180455932234
40
0.3159180455932234
40
0.50001066399559779
40
0.50001066399559779
40
0.50001066399559779
40
0.62030149150244651
40
0.62030149150244651
40
0.62030149150244651
40
0.62030149150244651
10
622.37477270862098
20
14.000000000000021
30
0
10
621.99085089552125
20
14.380019766291134
30
0
10
621.31394127220028
20
14.587617100962502
30
0
10
620.66946515128814
20
14.490045215819727
30
0
10
620.24834796274615
20
14.426289249355202
30
0
10
619.87609162807519
20
14.248314639407242
30
0
10
619.62522729143586
20
13.999999999999995
30
0
0
ARC
5
153
100
AcDbEntity
8
INTERIOR_PROFILES
100
AcDbCircle
10
-621.00000000002854
20
13.000000000145508
30
0
40
1.6999999999999382
210
0
220
0
230
-1
100
AcDbArc
50
-216.03187906640983
51
36.031879066404549
0
ARC
5
154
100
AcDbEntity
8
INTERIOR_PROFILES
100
AcDbCircle
10
-771.00000000002854
20
13.000000000294154
30
0
40
1.6999999999999762
210
0
220
0
230
-1
100
AcDbArc
50
-216.03187906021586
51
36.031879060208169
0
SPLINE
5
155
100
AcDbEntity
8
INTERIOR_PROFILES
100
AcDbSpline
70
0
71
3
72
11
73
7
74
0
42
0.000000001
43
0.0000000001
44
0.0000000001
40
0.31591804559271741
40
0.31591804559271741
40
0.31591804559271741
40
0.31591804559271741
40
0.50001066398894845
40
0.50001066398894845
40
0.50001066398894845
40
0.62030149153792635
40
0.62030149153792635
40
0.62030149153792635
40
0.62030149153792635
10
772.3747727087291
20
14.000000000000039
30
0
10
771.99085089570542
20
14.380019766302201
30
0
10
771.31394127243721
20
14.587617101037464
30
0
10
770.66946515154257
20
14.490045215971818
30
0
10
770.24834796285063
20
14.426289249533237
30
0
10
769.87609162801368
20
14.248314639509845
30
0
10
769.62522729132775
20
14.000000000000021
30
0
0
SPLINE
5
156
100
AcDbEntity
8
INTERIOR_PROFILES
100
AcDbSpline
70
0
71
3
72
11
73
7
74
0
42
0.000000001
43
0.0000000001
44
0.0000000001
40
0.31591804559225189
40
0.31591804559225189
40
0.31591804559225189
40
0.31591804559225189
40
0.50001066398565908
40
0.50001066398565908
40
0.50001066398565908
40
0.62030149156939141
40
0.62030149156939141
40
0.62030149156939141
40
0.62030149156939141
10
912.37477270879617
20
14.000000000000021
30
0
10
911.99085089583468
20
14.380019766317309
30
0
10
911.31394127259978
20
14.587617101109398
30
0
10
910.6694651517123
20
14.490045216102496
30
0
10
910.24834796289667
20
14.426289249682904
30
0
10
909.87609162792501
20
14.248314639595581
30
0
10
909.62522729120292
20
14.000000000000004
30
0
0
ARC
5
157
100
AcDbEntity
8
INTERIOR_PROFILES
100
AcDbCircle
10
-910.99999999999966
20
13.000000000425951
30
0
40
1.6999999999999997
210
0
220
0
230
-1
100
AcDbArc
50
-216.03187905472041
51
36.03187905471993
0
ARC
5
158
100
AcDbEntity
8
INTERIOR_PROFILES
100
AcDbCircle
10
-937.00000000001273
20
13.000000000458707
30
0
40
1.7000000000000099
210
0
220
0
230
-1
100
AcDbArc
50
-216.03187905335295
51
36.0318790533507
0
SPLINE
5
159
100
AcDbEntity
8
INTERIOR_PROFILES
100
AcDbSpline
70
0
71
3
72
11
73
7
74
0
42
0.000000001
43
0.0000000001
44
0.0000000001
40
0.31591804559214498
40
0.31591804559214498
40
0.31591804559214498
40
0.31591804559214498
40
0.50001066398326688
40
0.50001066398326688
40
0.50001066398326688
40
0.62030149157719738
40
0.62030149157719738
40
0.62030149157719738
40
0.62030149157719738
10
938.37477270883312
20
14.000000000000021
30
0
10
937.99085089589039
20
14.380019766317647
30
0
10
937.31394127267197
20
14.587617101123946
30
0
10
936.6694651517912
20
14.490045216137482
30
0
10
936.24834796293931
20
14.426289249725048
30
0
10
935.87609162792671
20
14.248314639620254
30
0
10
935.62522729119235
20
14.00000000000003
30
0
0
ARC
5
160
100
AcDbEntity
8
INTERIOR_PROFILES
100
AcDbCircle
10
-864.99999999999955
20
13.00000000038037
30
0
40
1.7000000000000106
210
0
220
0
230
-1
100
AcDbArc
50
-216.03187905661747
51
36.031879056617477
0
SPLINE
5
161
100
AcDbEntity
8
INTERIOR_PROFILES
100
AcDbSpline
70
0
71
3
72
11
73
7
74
0
42
0.000000001
43
0.0000000001
44
0.0000000001
40
0.31591804559241371
40
0.31591804559241371
40
0.31591804559241371
40
0.31591804559241371
40
0.50001066398760763
40
0.50001066398760763
40
0.50001066398760763
40
0.62030149155851
40
0.62030149155851
40
0.62030149155851
40
0.62030149155851
10
866.37477270876298
20
14.00000000000003
30
0
10
865.99085089577852
20
14.380019766313561
30
0
10
865.31394127252736
20
14.587617101086128
30
0
10
864.66946515163511
20
14.490045216056018
30
0
10
864.24834796286564
20
14.426289249628681
30
0
10
863.87609162794422
20
14.248314639564361
30
0
10
863.62522729123623
20
14.00000000000003
30
0
0
CIRCLE
5
162
100
AcDbEntity
8
INTERIOR_PROFILES
100
AcDbCircle
10
-28.686250000047977
20
81.119883245744958
30
0
40
1.6999999999999993
210
0
220
0
230
-1
0
CIRCLE
5
163
100
AcDbEntity
8
INTERIOR_PROFILES
100
AcDbCircle
10
-51.313750000009151
20
41.927903597457757
30
0
40
1.6999999999999993
210
0
220
0
230
-1
0
CIRCLE
5
164
100
AcDbEntity
8
INTERIOR_PROFILES
100
AcDbCircle
10
-902.00000000005139
20
84.151393420747155
30
0
40
1.7000000000000171
210
0
220
0
230
-1
0
CIRCLE
5
165
100
AcDbEntity
8
INTERIOR_PROFILES
100
AcDbCircle
10
-924.6275000000287
20
61.523893420724704
30
0
40
1.7000000000000171
210
0
220
0
230
-1
0
CIRCLE
5
166
100
AcDbEntity
8
INTERIOR_PROFILES
100
AcDbCircle
10
-40.000000000028848
20
61.523893421601358
30
0
40
1.6999999999999993
210
0
220
0
230
-1
0
CIRCLE
5
167
100
AcDbEntity
8
INTERIOR_PROFILES
100
AcDbCircle
10
-890.6862500000093
20
41.927903596625981
30
0
40
1.7000000000000171
210
0
220
0
230
-1
0
CIRCLE
5
168
100
AcDbEntity
8
INTERIOR_PROFILES
100
AcDbCircle
10
-51.313750000048088
20
81.119883245722519
30
0
40
1.6999999999999993
210
0
220
0
230
-1
0
CIRCLE
5
169
100
AcDbEntity
8
INTERIOR_PROFILES
100
AcDbCircle
10
-62.627500000028817
20
61.523893421578904
30
0
40
1.6999999999999993
210
0
220
0
230
-1
0
CIRCLE
5
170
100
AcDbEntity
8
INTERIOR_PROFILES
100
AcDbCircle
10
-40.000000000051301
20
84.151393421601369
30
0
40
1.6999999999999993
210
0
220
0
230
-1
0
CIRCLE
5
171
100
AcDbEntity
8
INTERIOR_PROFILES
100
AcDbCircle
10
-879.37250000002882
20
61.523893420769618
30
0
40
1.7000000000000171
210
0
220
0
230
-1
0
CIRCLE
5
172
100
AcDbEntity
8
INTERIOR_PROFILES
100
AcDbCircle
10
-17.372500000028879
20
61.523893421623811
30
0
40
1.6999999999999993
210
0
220
0
230
-1
0
CIRCLE
5
173
100
AcDbEntity
8
INTERIOR_PROFILES
100
AcDbCircle
10
-493.62750000002853
20
61.52389342115184
30
0
40
1.7000000000000171
210
0
220
0
230
-1
0
CIRCLE
5
174
100
AcDbEntity
8
INTERIOR_PROFILES
100
AcDbCircle
10
-448.37250000002859
20
61.523893421196682
30
0
40
1.7000000000000171
210
0
220
0
230
-1
0
CIRCLE
5
175
100
AcDbEntity
8
INTERIOR_PROFILES
100
AcDbCircle
10
-913.31375000004812
20
81.119883244868319
30
0
40
1.7000000000000171
210
0
220
0
230
-1
0
CIRCLE
5
176
100
AcDbEntity
8
INTERIOR_PROFILES
100
AcDbCircle
10
-459.68625000000935
20
41.927903597053103
30
0
40
1.7000000000000171
210
0
220
0
230
-1
0
CIRCLE
5
177
100
AcDbEntity
8
INTERIOR_PROFILES
100
AcDbCircle
10
-471.00000000005116
20
84.151393421174262
30
0
40
1.7000000000000171
210
0
220
0
230
-1
0
CIRCLE
5
178
100
AcDbEntity
8
INTERIOR_PROFILES
100
AcDbCircle
10
-913.31375000000946
20
41.927903596603556
30
0
40
1.7000000000000171
210
0
220
0
230
-1
0
CIRCLE
5
179
100
AcDbEntity
8
INTERIOR_PROFILES
100
AcDbCircle
10
-471.00000000000625
20
38.89639342117426
30
0
40
1.7000000000000171
210
0
220
0
230
-1
0
CIRCLE
5
180
100
AcDbEntity
8
INTERIOR_PROFILES
100
AcDbCircle
10
-459.68625000004806
20
81.119883245317865
30
0
40
1.7000000000000171
210
0
220
0
230
-1
0
CIRCLE
5
181
100
AcDbEntity
8
INTERIOR_PROFILES
100
AcDbCircle
10
-482.31375000004812
20
81.119883245295426
30
0
40
1.7000000000000171
210
0
220
0
230
-1
0
CIRCLE
5
182
100
AcDbEntity
8
INTERIOR_PROFILES
100
AcDbCircle
10
-396.00000000005468
20
96.785840131855707
30
0
40
1.6999999999999993
210
0
220
0
230
-1
0
CIRCLE
5
183
100
AcDbEntity
8
INTERIOR_PROFILES
100
AcDbCircle
10
-902.00000000000614
20
38.896393420747152
30
0
40
1.7000000000000171
210
0
220
0
230
-1
0
CIRCLE
5
184
100
AcDbEntity
8
INTERIOR_PROFILES
100
AcDbCircle
10
-40.000000000006111
20
38.896393421601367
30
0
40
1.6999999999999993
210
0
220
0
230
-1
0
CIRCLE
5
185
100
AcDbEntity
8
INTERIOR_PROFILES
100
AcDbCircle
10
-890.68625000004795
20
81.119883244890758
30
0
40
1.7000000000000171
210
0
220
0
230
-1
0
CIRCLE
5
186
100
AcDbEntity
8
INTERIOR_PROFILES
100
AcDbCircle
10
-482.31375000000929
20
41.927903597030642
30
0
40
1.7000000000000171
210
0
220
0
230
-1
0
CIRCLE
5
187
100
AcDbEntity
8
INTERIOR_PROFILES
100
AcDbCircle
10
-28.686250000009323
20
41.927903597480196
30
0
40
1.6999999999999993
210
0
220
0
230
-1
0
CIRCLE
5
188
100
AcDbEntity
8
INTERIOR_PROFILES
100
AcDbCircle
10
-546.00000000005468
20
96.785840131893494
30
0
40
1.6999999999999993
210
0
220
0
230
-1
0
CIRCLE
5
189
100
AcDbEntity
8
INTERIOR_PROFILES
100
AcDbCircle
10
-471.00000000000091
20
26.261946710585853
30
0
40
1.6999999999999993
210
0
220
0
230
-1
0
CIRCLE
5
190
100
AcDbEntity
8
INTERIOR_PROFILES
100
AcDbCircle
10
-5.0000000000339639
20
120.04778684187804
30
0
40
1.7000000000000004
210
0
220
0
230
-1
0
CIRCLE
5
191
100
AcDbEntity
8
INTERIOR_PROFILES
100
AcDbCircle
10
-71.000000000000938
20
26.261946710585846
30
0
40
1.6999999999999993
210
0
220
0
230
-1
0
CIRCLE
5
192
100
AcDbEntity
8
INTERIOR_PROFILES
100
AcDbCircle
10
-546.00000000000091
20
26.261946710585853
30
0
40
1.6999999999999993
210
0
220
0
230
-1
0
CIRCLE
5
193
100
AcDbEntity
8
INTERIOR_PROFILES
100
AcDbCircle
10
-871.00000000005468
20
96.785840131975348
30
0
40
1.6999999999999993
210
0
220
0
230
-1
0
CIRCLE
5
194
100
AcDbEntity
8
INTERIOR_PROFILES
100
AcDbCircle
10
-937.00000000003388
20
120.04778684327114
30
0
40
1.7000000000000171
210
0
220
0
230
-1
0
CIRCLE
5
195
100
AcDbEntity
8
INTERIOR_PROFILES
100
AcDbCircle
10
-871.00000000000091
20
26.261946710585853
30
0
40
1.6999999999999993
210
0
220
0
230
-1
0
CIRCLE
5
196
100
AcDbEntity
8
INTERIOR_PROFILES
100
AcDbCircle
10
-396.00000000000091
20
26.261946710585853
30
0
40
1.6999999999999993
210
0
220
0
230
-1
0
CIRCLE
5
197
100
AcDbEntity
8
INTERIOR_PROFILES
100
AcDbCircle
10
-71.000000000054655
20
96.785840131773838
30
0
40
1.6999999999999993
210
0
220
0
230
-1
0
CIRCLE
5
198
100
AcDbEntity
8
INTERIOR_PROFILES
100
AcDbCircle
10
-471.00000000005468
20
96.785840131874593
30
0
40
1.6999999999999993
210
0
220
0
230
-1
0
CIRCLE
5
199
100
AcDbEntity
8
INTERIOR_PROFILES
100
AcDbCircle
10
-5.0000000000129319
20
2.9999999995350279
30
0
40
1.7000000000000004
210
0
220
0
230
-1
0
CIRCLE
5
200
100
AcDbEntity
8
INTERIOR_PROFILES
100
AcDbCircle
10
-937.00000000001296
20
3.0000000004585914
30
0
40
1.7000000000000171
210
0
220
0
230
-1
0
LINE
5
201
100
AcDbEntity
8
BEND
100
AcDbLine
10
-1.734906320012044
20
107.91681348704785
30
-5.8471019692696302e-10
11
943.73490632015705
21
107.91681348728602
31
5.8472018893418465e-10
0
LINE
5
202
100
AcDbEntity
8
BEND
100
AcDbLine
10
943.73490632009225
20
15.130973355292916
30
-4.6616058235748881e-10
11
-1.7349063200907722
21
15.130973355292934
31
4.6624176741616452e-10
0
LINE
5
203
100
AcDbEntity
8
BEND
100
AcDbLine
10
931.99999999999841
20
33.392920065879579
30
2.3661628212323649e-13
11
10.000000000000142
21
33.392920065879565
31
2.0705659409259169e-13
0
LINE
5
204
100
AcDbEntity
8
BEND
100
AcDbLine
10
9.9999999999876366
20
89.654866776463592
30
3.6234903966203547e-13
11
931.99999999998556
21
89.654866776695854
31
3.7955749654372539e-13
0
LINE
5
205
100
AcDbEntity
8
BEND_EXTENT
100
AcDbLine
10
942.62113487109468
20
106.7858401319934
30
2.6867397195928788e-13
11
-0.62113487096411291
21
106.7858401317558
31
2.55351295663786e-13
0
LINE
5
206
100
AcDbEntity
8
BEND_EXTENT
100
AcDbLine
10
-1.9999999999959073
20
109.04778684234014
30
2.6645352591003757e-13
11
944.00000000000409
21
109.04778684257846
31
2.708944180085382e-13
0
LINE
5
207
100
AcDbEntity
8
BEND_EXTENT
100
AcDbLine
10
10.000000000056275
20
90.785840131754938
30
2.5993096564036478e-13
11
932.00000000005616
21
90.78584013199071
31
2.9073965457371287e-13
0
LINE
5
208
100
AcDbEntity
8
BEND_EXTENT
100
AcDbLine
10
932.00000000005548
20
88.523893421406058
30
3.0406233086921475e-13
11
10.000000000055707
21
88.523893421173796
31
2.9545810242836978e-13
0
LINE
5
209
100
AcDbEntity
8
BEND_EXTENT
100
AcDbLine
10
10.00000000000199
20
34.523893421170769
30
2.9545810242836978e-13
11
932.00000000000182
21
34.523893421170797
31
3.0406233086921475e-13
0
LINE
5
210
100
AcDbEntity
8
BEND_EXTENT
100
AcDbLine
10
932.00000000000091
20
32.261946710585853
30
2.8629876247521224e-13
11
10.000000000000995
21
32.26194671058937
31
2.7325364193586665e-13
0
LINE
5
211
100
AcDbEntity
8
BEND_EXTENT
100
AcDbLine
10
-0.62113487102863019
20
16.261946710585828
30
2.4646951146678475e-13
11
942.62113487103034
21
16.261946710585839
31
2.5091040356528538e-13
0
LINE
5
212
100
AcDbEntity
8
BEND_EXTENT
100
AcDbLine
10
3.6252272918443396
20
14.000000000000012
30
1.9109713811360507e-13
11
-2.0000000000001705
21
13.999999999999986
31
2.0872192862952943e-13
0
LINE
5
213
100
AcDbEntity
8
BEND_EXTENT
100
AcDbLine
10
29.62522729855948
20
14.000000000000004
30
2.0025647806676261e-13
11
6.3747727081417338
21
14.000000000000004
31
1.9997892231060632e-13
0
LINE
5
214
100
AcDbEntity
8
BEND_EXTENT
100
AcDbLine
10
75.625227297829554
20
13.999999999999995
30
1.9206858326015208e-13
11
32.37477270155523
21
13.999999999999995
31
1.915134717478395e-13
0
LINE
5
215
100
AcDbEntity
8
BEND_EXTENT
100
AcDbLine
10
119.62522729179625
20
13.999999999999986
30
1.927624726505428e-13
11
78.374772702285043
21
13.999999999999995
31
1.9206858326015208e-13
0
LINE
5
216
100
AcDbEntity
8
BEND_EXTENT
100
AcDbLine
10
169.62522729176015
20
14.000000000000004
30
1.9345636204093353e-13
11
122.37477270826048
21
14.000000000000004
31
1.927624726505428e-13
0
LINE
5
217
100
AcDbEntity
8
BEND_EXTENT
100
AcDbLine
10
219.62522729172406
20
13.999999999999995
30
2.030320356283255e-13
11
172.37477270829658
21
14.000000000000004
31
2.0233814623793478e-13
0
LINE
5
218
100
AcDbEntity
8
BEND_EXTENT
100
AcDbLine
10
269.62522729168796
20
14.000000000000004
30
1.9484414082171497e-13
11
222.37477270833267
21
13.999999999999995
31
1.9415025143132425e-13
0
LINE
5
219
100
AcDbEntity
8
BEND_EXTENT
100
AcDbLine
10
319.62522729165215
20
14.000000000000004
30
1.955380302121057e-13
11
272.37477270836877
21
14.000000000000004
31
1.9484414082171497e-13
0
LINE
5
220
100
AcDbEntity
8
BEND_EXTENT
100
AcDbLine
10
369.62522729161611
20
13.999999999999995
30
1.9623191960249642e-13
11
322.37477270840486
21
13.999999999999995
31
1.955380302121057e-13
0
LINE
5
221
100
AcDbEntity
8
BEND_EXTENT
100
AcDbLine
10
419.62522729158002
20
14.000000000000012
30
1.9692580899288714e-13
11
372.3747727084409
21
14.000000000000004
31
1.9623191960249642e-13
0
LINE
5
222
100
AcDbEntity
8
BEND_EXTENT
100
AcDbLine
10
469.62522729154398
20
14.000000000000004
30
1.9761969838327786e-13
11
422.37477270847694
21
14.000000000000004
31
1.9692580899288714e-13
0
LINE
5
223
100
AcDbEntity
8
BEND_EXTENT
100
AcDbLine
10
519.62522729150794
20
14.000000000000004
30
1.9831358777366859e-13
11
472.37477270851292
21
13.999999999999995
31
1.9761969838327786e-13
0
LINE
5
224
100
AcDbEntity
8
BEND_EXTENT
100
AcDbLine
10
569.6252272914719
20
14.000000000000004
30
1.9900747716405931e-13
11
522.37477270854902
21
13.999999999999995
31
1.9831358777366859e-13
0
LINE
5
225
100
AcDbEntity
8
BEND_EXTENT
100
AcDbLine
10
619.62522729143586
20
14.000000000000004
30
1.9970136655445003e-13
11
572.37477270858506
21
14.000000000000004
31
1.9914625504213745e-13
0
LINE
5
226
100
AcDbEntity
8
BEND_EXTENT
100
AcDbLine
10
669.62522729139994
20
14.000000000000004
30
2.0039525594484076e-13
11
622.37477270862109
21
14.000000000000004
31
1.9984014443252818e-13
0
LINE
5
227
100
AcDbEntity
8
BEND_EXTENT
100
AcDbLine
10
719.62522729136379
20
14.000000000000004
30
2.0108914533523148e-13
11
672.37477270865713
21
13.999999999999995
31
2.005340338229189e-13
0
LINE
5
228
100
AcDbEntity
8
BEND_EXTENT
100
AcDbLine
10
769.62522729132775
20
13.999999999999995
30
2.0192181260370035e-13
11
722.37477270869317
21
14.000000000000004
31
2.0122792321330962e-13
0
LINE
5
229
100
AcDbEntity
8
BEND_EXTENT
100
AcDbLine
10
819.62522729129182
20
14.000000000000004
30
2.0261570199409107e-13
11
772.3747727087291
21
14.000000000000004
31
2.0192181260370035e-13
0
LINE
5
230
100
AcDbEntity
8
BEND_EXTENT
100
AcDbLine
10
863.62522729123611
20
14.000000000000012
30
2.120525977034049e-13
11
822.37477270876525
21
14.000000000000004
31
2.0261570199409107e-13
0
LINE
5
231
100
AcDbEntity
8
BEND_EXTENT
100
AcDbLine
10
909.62522729120315
20
14.000000000000004
30
2.0386470289679437e-13
11
866.37477270876298
21
14.000000000000004
31
2.0317081350640365e-13
0
LINE
5
232
100
AcDbEntity
8
BEND_EXTENT
100
AcDbLine
10
935.62522729119223
20
14.000000000000004
30
2.0192181260370035e-13
11
912.37477270879617
21
14.000000000000004
31
2.0386470289679437e-13
0
LINE
5
233
100
AcDbEntity
8
BEND_EXTENT
100
AcDbLine
10
943.99999999999966
20
13.999999999999995
30
2.0206059048177849e-13
11
938.37477270883312
21
13.999999999999995
31
2.0206059048177849e-13
0
ENDSEC
0
SECTION
2
OBJECTS
0
DICTIONARY
5
C
100
AcDbDictionary
3
ACAD_GROUP
350
D
3
ACAD_MLINESTYLE
350
17
0
DICTIONARY
5
D
100
AcDbDictionary
0
DICTIONARY
5
1A
330
C
100
AcDbDictionary
0
DICTIONARY
5
17
100
AcDbDictionary
0
ENDSEC
0
EOF
