0
SECTION
2
HEADER
9
$INSUNITS
70
4
9
$ACADVER
1
AC1014
9
$HANDSEED
5
FFFF
0
ENDSEC
0
SECTION
2
TABLES
0
TABLE
2
VPORT
5
8
100
AcDbSymbolTable
0
ENDTAB
0
TABLE
2
LTYPE
5
5
100
AcDbSymbolTable
0
LTYPE
5
14
100
AcDbSymbolTableRecord
100
AcDbLinetypeTableRecord
2
BYBLOCK
70
0
0
LTYPE
5
15
100
AcDbSymbolTableRecord
100
AcDbLinetypeTableRecord
2
BYLAYER
70
0
0
LTYPE
5
16
100
AcDbSymbolTableRecord
100
AcDbLinetypeTableRecord
2
DASHED
70
0
3
Dashed __ __ __ __ __ __ __ __ __ __ __ __ __ _
72
65
73
2
40
0.75
49
0.5
74
0
49
-0.25
74
0
0
ENDTAB
0
TABLE
2
LAYER
5
2
100
AcDbSymbolTable
70
2
0
LAYER
5
50
100
AcDbSymbolTableRecord
100
AcDbLayerTableRecord
2
0
70
0
62
7
6
CONTINUOUS
0
ENDTAB
0
TABLE
2
STYLE
5
3
100
AcDbSymbolTable
70
1
0
STYLE
5
11
100
AcDbSymbolTableRecord
100
AcDbTextStyleTableRecord
2
STANDARD
70
0
0
ENDTAB
0
TABLE
2
VIEW
5
6
100
AcDbSymbolTable
70
0
0
ENDTAB
0
TABLE
2
UCS
5
7
100
AcDbSymbolTable
70
0
0
ENDTAB
0
TABLE
2
APPID
5
9
100
AcDbSymbolTable
70
2
0
APPID
5
12
100
AcDbSymbolTableRecord
100
AcDbRegAppTableRecord
2
ACAD
70
0
0
ENDTAB
0
TABLE
2
DIMSTYLE
5
A
100
AcDbSymbolTable
70
1
0
ENDTAB
0
TABLE
2
BLOCK_RECORD
5
1
100
AcDbSymbolTable
70
1
0
BLOCK_RECORD
5
1F
100
AcDbSymbolTableRecord
100
AcDbBlockTableRecord
2
*MODEL_SPACE
0
BLOCK_RECORD
5
1B
100
AcDbSymbolTableRecord
100
AcDbBlockTableRecord
2
*PAPER_SPACE
0
ENDTAB
0
ENDSEC
0
SECTION
2
BLOCKS
0
BLOCK
5
20
100
AcDbEntity
100
AcDbBlockBegin
2
*MODEL_SPACE
0
ENDBLK
5
21
100
AcDbEntity
100
AcDbBlockEnd
0
BLOCK
5
1C
100
AcDbEntity
100
AcDbBlockBegin
2
*PAPER_SPACE
0
ENDBLK
5
1D
100
AcDbEntity
100
AcDbBlockEnd
0
ENDSEC
0
SECTION
2
ENTITIES
0
LWPOLYLINE
5
100
100
AcDbEntity
8
OUTER_PROFILES
100
AcDbPolyline
90
16
70
1
43
0.0
10
-10.76194671058488
20
37.927610115284466
10
1.9999999999998863
20
37.927610115284466
10
1.9999999999998863
20
35.665663404699764
10
0
20
35.665663404699764
10
0
20
0
10
1700
20
0
10
1700
20
35.665663404699764
10
1698
20
35.665663404699764
10
1698
20
37.927610115284445
10
1710.7619467105847
20
37.927610115284466
10
1710.7619467105847
20
79.927610115284466
10
1698
20
79.927610115284466
10
1698
20
92.689556825869118
10
1.9999999999998863
20
92.689556825869118
10
1.9999999999998863
20
79.927610115284466
10
-10.76194671058488
20
79.927610115284466
0
CIRCLE
5
101
100
AcDbEntity
8
INTERIOR_PROFILES
100
AcDbCircle
10
-609
20
89.189556825869118
30
0
40
1.7000000000000171
210
0
220
0
230
-1
0
CIRCLE
5
102
100
AcDbEntity
8
INTERIOR_PROFILES
100
AcDbCircle
10
-850
20
26.165663404699764
30
0
40
1.7000000000000171
210
0
220
0
230
-1
0
CIRCLE
5
103
100
AcDbEntity
8
INTERIOR_PROFILES
100
AcDbCircle
10
-1500
20
89.189556825869118
30
0
40
1.6999999999998749
210
0
220
0
230
-1
0
CIRCLE
5
104
100
AcDbEntity
8
INTERIOR_PROFILES
100
AcDbCircle
10
-1200
20
89.189556825869118
30
0
40
1.7000000000000171
210
0
220
0
230
-1
0
CIRCLE
5
105
100
AcDbEntity
8
INTERIOR_PROFILES
100
AcDbCircle
10
-1400
20
89.189556825869118
30
0
40
1.6999999999998749
210
0
220
0
230
-1
0
CIRCLE
5
106
100
AcDbEntity
8
INTERIOR_PROFILES
100
AcDbCircle
10
-1704.2619467106811
20
50.927610115284466
30
0
40
1.6999999999998749
210
0
220
0
230
-1
0
CIRCLE
5
107
100
AcDbEntity
8
INTERIOR_PROFILES
100
AcDbCircle
10
-475
20
26.165663404699764
30
0
40
1.7000000000000171
210
0
220
0
230
-1
0
CIRCLE
5
108
100
AcDbEntity
8
INTERIOR_PROFILES
100
AcDbCircle
10
-100
20
26.165663404699764
30
0
40
1.6999999999999993
210
0
220
0
230
-1
0
CIRCLE
5
109
100
AcDbEntity
8
INTERIOR_PROFILES
100
AcDbCircle
10
-1600
20
89.189556825869118
30
0
40
1.6999999999998749
210
0
220
0
230
-1
0
CIRCLE
5
110
100
AcDbEntity
8
INTERIOR_PROFILES
100
AcDbCircle
10
-1109
20
89.189556825869118
30
0
40
1.7000000000000171
210
0
220
0
230
-1
0
CIRCLE
5
111
100
AcDbEntity
8
INTERIOR_PROFILES
100
AcDbCircle
10
-500
20
89.189556825869118
30
0
40
1.7000000000000171
210
0
220
0
230
-1
0
CIRCLE
5
112
100
AcDbEntity
8
INTERIOR_PROFILES
100
AcDbCircle
10
-300
20
89.189556825869118
30
0
40
1.7000000000000171
210
0
220
0
230
-1
0
CIRCLE
5
113
100
AcDbEntity
8
INTERIOR_PROFILES
100
AcDbCircle
10
-1225
20
26.165663404699764
30
0
40
1.7000000000000171
210
0
220
0
230
-1
0
CIRCLE
5
114
100
AcDbEntity
8
INTERIOR_PROFILES
100
AcDbCircle
10
-1694.5000000000002
20
41.427610115284459
30
0
40
2.5
210
0
220
0
230
-1
0
CIRCLE
5
115
100
AcDbEntity
8
INTERIOR_PROFILES
100
AcDbCircle
10
-1691
20
89.189556825869118
30
0
40
1.6999999999998749
210
0
220
0
230
-1
0
CIRCLE
5
116
100
AcDbEntity
8
INTERIOR_PROFILES
100
AcDbCircle
10
4.2619467106723619
20
50.927610115284466
30
0
40
1.7000000000000004
210
0
220
0
230
-1
0
CIRCLE
5
117
100
AcDbEntity
8
INTERIOR_PROFILES
100
AcDbCircle
10
-5.4999999999998295
20
41.427610115284459
30
0
40
2.5
210
0
220
0
230
-1
0
CIRCLE
5
118
100
AcDbEntity
8
INTERIOR_PROFILES
100
AcDbCircle
10
-1000
20
89.189556825869118
30
0
40
1.7000000000000171
210
0
220
0
230
-1
0
CIRCLE
5
119
100
AcDbEntity
8
INTERIOR_PROFILES
100
AcDbCircle
10
-800
20
89.189556825869118
30
0
40
1.7000000000000171
210
0
220
0
230
-1
0
CIRCLE
5
120
100
AcDbEntity
8
INTERIOR_PROFILES
100
AcDbCircle
10
-100
20
89.189556825869118
30
0
40
1.6999999999999993
210
0
220
0
230
-1
0
CIRCLE
5
121
100
AcDbEntity
8
INTERIOR_PROFILES
100
AcDbCircle
10
-1300
20
89.189556825869118
30
0
40
1.6999999999998749
210
0
220
0
230
-1
0
CIRCLE
5
122
100
AcDbEntity
8
INTERIOR_PROFILES
100
AcDbCircle
10
-1091
20
89.189556825869118
30
0
40
1.7000000000000171
210
0
220
0
230
-1
0
CIRCLE
5
123
100
AcDbEntity
8
INTERIOR_PROFILES
100
AcDbCircle
10
-1600
20
26.165663404699764
30
0
40
1.6999999999998749
210
0
220
0
230
-1
0
CIRCLE
5
124
100
AcDbEntity
8
INTERIOR_PROFILES
100
AcDbCircle
10
-591
20
89.189556825869118
30
0
40
1.7000000000000171
210
0
220
0
230
-1
0
CIRCLE
5
125
100
AcDbEntity
8
INTERIOR_PROFILES
100
AcDbCircle
10
-400
20
89.189556825869118
30
0
40
1.7000000000000171
210
0
220
0
230
-1
0
CIRCLE
5
126
100
AcDbEntity
8
INTERIOR_PROFILES
100
AcDbCircle
10
-900
20
89.189556825869118
30
0
40
1.7000000000000171
210
0
220
0
230
-1
0
CIRCLE
5
127
100
AcDbEntity
8
INTERIOR_PROFILES
100
AcDbCircle
10
-9.0000000000000568
20
89.189556825869118
30
0
40
1.6999999999999993
210
0
220
0
230
-1
0
CIRCLE
5
128
100
AcDbEntity
8
INTERIOR_PROFILES
100
AcDbCircle
10
-700
20
89.189556825869118
30
0
40
1.7000000000000171
210
0
220
0
230
-1
0
CIRCLE
5
129
100
AcDbEntity
8
INTERIOR_PROFILES
100
AcDbCircle
10
-200
20
89.189556825869118
30
0
40
1.7000000000000171
210
0
220
0
230
-1
0
CIRCLE
5
130
100
AcDbEntity
8
INTERIOR_PROFILES
100
AcDbCircle
10
4.2619467106723619
20
75.927610115284466
30
0
40
1.7000000000000004
210
0
220
0
230
-1
0
CIRCLE
5
131
100
AcDbEntity
8
INTERIOR_PROFILES
100
AcDbCircle
10
-1704.2619467106811
20
75.927610115284466
30
0
40
1.6999999999998749
210
0
220
0
230
-1
0
LINE
5
132
100
AcDbEntity
8
BEND
100
AcDbLine
10
1699.1309733552926
20
37.927610115284445
30
4.5935477643865852e-13
11
1699.1309733552926
21
79.927610115284466
31
4.5935477643865852e-13
0
LINE
5
133
100
AcDbEntity
8
BEND
100
AcDbLine
10
1700
20
14.534690049407594
30
2.9096378742797265e-13
11
0
21
14.534690049407594
31
2.8551399122648637e-13
0
LINE
5
134
100
AcDbEntity
8
BEND
100
AcDbLine
10
1699.9999999999995
20
6.6968583470577103
30
1.5019121598965055e-13
11
-5.6843418860808015e-13
21
6.6968583470577103
31
1.5019121598965055e-13
0
LINE
5
135
100
AcDbEntity
8
BEND
100
AcDbLine
10
0.86902664470726121
20
79.927610115284466
30
4.5741188614556449e-13
11
0.86902664470726121
21
37.927610115284466
31
4.0190073491430667e-13
0
LINE
5
136
100
AcDbEntity
8
BEND
100
AcDbLine
10
1698
20
36.796636759992111
30
5.0238328642463148e-13
11
1.9999999999998863
21
36.796636759992111
31
5.0238328642463148e-13
0
LINE
5
137
100
AcDbEntity
8
BEND
100
AcDbLine
10
1698
20
81.058583470576778
30
5.1702680974413596e-13
11
2.0000000000001705
21
81.058583470576778
31
5.1599211631334717e-13
0
LWPOLYLINE
5
138
100
AcDbEntity
8
BEND_EXTENT
100
AcDbPolyline
90
4
70
1
43
0.0
10
1698
20
37.927610115284445
10
1.9999999999998863
20
37.927610115284466
10
1.9999999999998863
20
79.927610115284466
10
1698
20
79.927610115284466
0
LINE
5
139
100
AcDbEntity
8
BEND_EXTENT
100
AcDbLine
10
1.9999999999998863
20
35.665663404699764
30
4.9737991503207013e-13
11
1698
21
35.665663404699764
31
4.9737991503207013e-13
0
LINE
5
140
100
AcDbEntity
8
BEND_EXTENT
100
AcDbLine
10
1700
20
15.665663404699766
30
3.0198066269804258e-13
11
0
21
15.665663404699766
31
3.0198066269804258e-13
0
LINE
5
141
100
AcDbEntity
8
BEND_EXTENT
100
AcDbLine
10
1700
20
5.990000000000002
30
1.3766765505351941e-13
11
0
21
5.990000000000002
31
1.3766765505351941e-13
0
LINE
5
142
100
AcDbEntity
8
BEND_EXTENT
100
AcDbLine
10
1700
20
7.4037166941154142
30
1.5987211554602254e-13
11
0
21
7.4037166941154142
31
1.5987211554602254e-13
0
LINE
5
143
100
AcDbEntity
8
BEND_EXTENT
100
AcDbLine
10
1700.2619467105847
20
79.927610115284466
30
4.0159304835533856e-13
11
1700.2619467105847
21
37.927610115284445
31
4.0159304835533856e-13
0
LINE
5
144
100
AcDbEntity
8
BEND_EXTENT
100
AcDbLine
10
-0.26194671058505037
20
37.927610115284466
30
2.3092638912203256e-13
11
-0.26194671058505037
21
79.927610115284466
31
5.1514348342607263e-13
0
LINE
5
145
100
AcDbEntity
8
BEND_EXTENT
100
AcDbLine
10
1.9999999999998863
20
82.189556825869118
30
5.1845295032413057e-13
11
1698
21
82.189556825869118
31
5.1845295032413057e-13
0
LINE
5
146
100
AcDbEntity
8
BEND_EXTENT
100
AcDbLine
10
1700
20
13.403716694115424
30
2.8421709430404007e-13
11
0
21
13.403716694115424
31
2.8421709430404007e-13
0
ENDSEC
0
SECTION
2
OBJECTS
0
DICTIONARY
5
C
100
AcDbDictionary
3
ACAD_GROUP
350
D
3
ACAD_MLINESTYLE
350
17
0
DICTIONARY
5
D
100
AcDbDictionary
0
DICTIONARY
5
1A
330
C
100
AcDbDictionary
0
DICTIONARY
5
17
100
AcDbDictionary
0
ENDSEC
0
EOF
