0
SECTION
2
HEADER
9
$INSUNITS
70
4
9
$ACADVER
1
AC1014
9
$HANDSEED
5
FFFF
0
ENDSEC
0
SECTION
2
TABLES
0
TABLE
2
VPORT
5
8
100
AcDbSymbolTable
0
ENDTAB
0
TABLE
2
LTYPE
5
5
100
AcDbSymbolTable
0
LTYPE
5
14
100
AcDbSymbolTableRecord
100
AcDbLinetypeTableRecord
2
BYBLOCK
70
0
0
LTYPE
5
15
100
AcDbSymbolTableRecord
100
AcDbLinetypeTableRecord
2
BYLAYER
70
0
0
LTYPE
5
16
100
AcDbSymbolTableRecord
100
AcDbLinetypeTableRecord
2
DASHED
70
0
3
Dashed __ __ __ __ __ __ __ __ __ __ __ __ __ _
72
65
73
2
40
0.75
49
0.5
74
0
49
-0.25
74
0
0
ENDTAB
0
TABLE
2
LAYER
5
2
100
AcDbSymbolTable
70
2
0
LAYER
5
50
100
AcDbSymbolTableRecord
100
AcDbLayerTableRecord
2
0
70
0
62
7
6
CONTINUOUS
0
ENDTAB
0
TABLE
2
STYLE
5
3
100
AcDbSymbolTable
70
1
0
STYLE
5
11
100
AcDbSymbolTableRecord
100
AcDbTextStyleTableRecord
2
STANDARD
70
0
0
ENDTAB
0
TABLE
2
VIEW
5
6
100
AcDbSymbolTable
70
0
0
ENDTAB
0
TABLE
2
UCS
5
7
100
AcDbSymbolTable
70
0
0
ENDTAB
0
TABLE
2
APPID
5
9
100
AcDbSymbolTable
70
2
0
APPID
5
12
100
AcDbSymbolTableRecord
100
AcDbRegAppTableRecord
2
ACAD
70
0
0
ENDTAB
0
TABLE
2
DIMSTYLE
5
A
100
AcDbSymbolTable
70
1
0
ENDTAB
0
TABLE
2
BLOCK_RECORD
5
1
100
AcDbSymbolTable
70
1
0
BLOCK_RECORD
5
1F
100
AcDbSymbolTableRecord
100
AcDbBlockTableRecord
2
*MODEL_SPACE
0
BLOCK_RECORD
5
1B
100
AcDbSymbolTableRecord
100
AcDbBlockTableRecord
2
*PAPER_SPACE
0
ENDTAB
0
ENDSEC
0
SECTION
2
BLOCKS
0
BLOCK
5
20
100
AcDbEntity
100
AcDbBlockBegin
2
*MODEL_SPACE
0
ENDBLK
5
21
100
AcDbEntity
100
AcDbBlockEnd
0
BLOCK
5
1C
100
AcDbEntity
100
AcDbBlockBegin
2
*PAPER_SPACE
0
ENDBLK
5
1D
100
AcDbEntity
100
AcDbBlockEnd
0
ENDSEC
0
SECTION
2
ENTITIES
0
LINE
5
100
100
AcDbEntity
8
OUTER_PROFILES
100
AcDbLine
10
8.2073237095414697e-13
20
16.261946710698041
30
0
11
-2.2619466785027571
21
16.261946710761919
31
0
0
LINE
5
101
100
AcDbEntity
8
OUTER_PROFILES
100
AcDbLine
10
-2.2619466785027571
20
16.261946710761919
30
0
11
-16.261946677785822
21
16.261946710757869
31
0
0
LINE
5
102
100
AcDbEntity
8
OUTER_PROFILES
100
AcDbLine
10
-16.261946677785822
20
16.261946710757869
30
0
11
-18.52389338836257
21
16.261946710757798
31
0
0
LINE
5
103
100
AcDbEntity
8
OUTER_PROFILES
100
AcDbLine
10
-18.52389338836257
20
16.261946710757798
30
0
11
-23.523893387974613
21
16.261946710776485
31
0
0
LINE
5
104
100
AcDbEntity
8
OUTER_PROFILES
100
AcDbLine
10
-23.523893387974613
20
16.261946710776485
30
0
11
-23.523893387910331
21
545.16194671089625
31
0
0
LINE
5
105
100
AcDbEntity
8
OUTER_PROFILES
100
AcDbLine
10
-23.523893387910331
20
545.16194671089625
30
0
11
-18.523893388299207
21
545.16194671089602
31
0
0
LINE
5
106
100
AcDbEntity
8
OUTER_PROFILES
100
AcDbLine
10
-18.523893388299207
20
545.16194671089602
30
0
11
-16.261946677722616
21
545.1619467108959
31
0
0
LINE
5
107
100
AcDbEntity
8
OUTER_PROFILES
100
AcDbLine
10
-16.261946677722616
20
545.1619467108959
30
0
11
-7.2912359975124019
21
545.16194671089534
31
0
0
LINE
5
108
100
AcDbEntity
8
OUTER_PROFILES
100
AcDbLine
10
-7.2912359975124019
20
545.16194671089534
30
0
11
-2.2619466761410365
21
550.19123604768117
31
0
0
SPLINE
5
109
100
AcDbEntity
8
OUTER_PROFILES
100
AcDbSpline
70
0
71
3
72
23
73
19
74
0
42
0.000000001
43
0.0000000001
44
0.0000000001
40
-0.31498084748666694
40
-0.31498084748666694
40
-0.31498084748666694
40
-0.31498084748666694
40
-0.26911150902637171
40
-0.26911150902637171
40
-0.26911150902637171
40
-0.23952975749350058
40
-0.23952975749350058
40
-0.23952975749350058
40
-0.18000771471833857
40
-0.18000771471833857
40
-0.18000771471833857
40
-0.15976734607643167
40
-0.15976734607643167
40
-0.15976734607643167
40
-0.024350423270270261
40
-0.024350423270270261
40
-0.024350423270270261
40
-3.381229616841546e-09
40
-3.381229616841546e-09
40
-3.381229616841546e-09
40
-3.381229616841546e-09
10
-4.3211927092112745e-10
20
550.26194671915937
30
0
10
-0.11005854573872263
20
550.25850618113213
30
0
10
-0.21964841283318054
20
550.25508388965829
30
0
10
-0.3294861078349926
20
550.25165691438349
30
0
10
-0.40032191038973497
20
550.24944681206932
30
0
10
-0.4713485414326164
20
550.24723150028171
30
0
10
-0.54217542850067912
20
550.24502073657538
30
0
10
-0.6846876457712493
20
550.24057241404284
30
0
10
-0.82738830120919993
20
550.23610745124267
30
0
10
-0.96978582633447297
20
550.2316421457449
30
0
10
-1.0182078607246206
20
550.2301237262626
30
0
10
-1.0665583444733675
20
550.22860711028227
30
0
10
-1.1148982123548459
20
550.22709183523125
30
0
10
-1.4383130805906501
20
550.21695398210022
30
0
10
-1.7634696446673725
20
550.20683339311415
30
0
10
-2.0870769112956475
20
550.19670694347246
30
0
10
-2.1452673697571543
20
550.19488602408023
30
0
10
-2.2035204651951195
20
550.19306250831755
30
0
10
-2.2619466761410365
20
550.19123604768117
30
0
0
LINE
5
110
100
AcDbEntity
8
OUTER_PROFILES
100
AcDbLine
10
-4.3211927092112745e-10
20
550.26194671915937
30
0
11
-1.7139636080829454e-10
21
552.52389341798926
31
0
0
LINE
5
111
100
AcDbEntity
8
OUTER_PROFILES
100
AcDbLine
10
-1.7139636080829454e-10
20
552.52389341798926
30
0
11
-2.261946647689419
21
552.59460407421204
31
0
0
LINE
5
112
100
AcDbEntity
8
OUTER_PROFILES
100
AcDbLine
10
-2.261946647689419
20
552.59460407421204
30
0
11
-7.2619466793016398
21
557.5946040971296
31
0
0
LINE
5
113
100
AcDbEntity
8
OUTER_PROFILES
100
AcDbLine
10
-7.2619466793016398
20
557.5946040971296
30
0
11
-7.2619466793019374
21
561.45318273875341
31
0
0
LINE
5
114
100
AcDbEntity
8
OUTER_PROFILES
100
AcDbLine
10
-7.2619466793019374
20
561.45318273875341
30
0
11
-2.2619466783989983
21
566.45318274034162
31
0
0
LINE
5
115
100
AcDbEntity
8
OUTER_PROFILES
100
AcDbLine
10
-2.2619466783989983
20
566.45318274034162
30
0
11
-1.7886270797795589e-08
21
566.52389341658863
31
0
0
LINE
5
116
100
AcDbEntity
8
OUTER_PROFILES
100
AcDbLine
10
-1.7886270797795589e-08
20
566.52389341658863
30
0
11
-1.8805512702613214e-10
21
568.78584014159287
31
0
0
LINE
5
117
100
AcDbEntity
8
OUTER_PROFILES
100
AcDbLine
10
-1.8805512702613214e-10
20
568.78584014159287
30
0
11
-2.261946692675445
21
568.85655081955952
31
0
0
LINE
5
118
100
AcDbEntity
8
OUTER_PROFILES
100
AcDbLine
10
-2.261946692675445
20
568.85655081955952
30
0
11
-7.1912360178419297
21
573.78584014338048
31
0
0
LINE
5
119
100
AcDbEntity
8
OUTER_PROFILES
100
AcDbLine
10
-7.1912360178419297
20
573.78584014338048
30
0
11
-2.261946693432515
21
573.78584014317721
31
0
0
LINE
5
120
100
AcDbEntity
8
OUTER_PROFILES
100
AcDbLine
10
-2.261946693432515
20
573.78584014317721
30
0
11
-1.8796103562479516e-10
21
573.78584014313458
31
0
0
LINE
5
121
100
AcDbEntity
8
OUTER_PROFILES
100
AcDbLine
10
-1.8796103562479516e-10
20
573.78584014313458
30
0
11
760.00000000000398
21
573.78584014315049
31
0
0
LINE
5
122
100
AcDbEntity
8
OUTER_PROFILES
100
AcDbLine
10
760.00000000000398
20
573.78584014315049
30
0
11
762.26194672047552
21
573.78584014316721
31
0
0
LINE
5
123
100
AcDbEntity
8
OUTER_PROFILES
100
AcDbLine
10
762.26194672047552
20
573.78584014316721
30
0
11
767.19123604307265
21
573.78584014324213
31
0
0
LINE
5
124
100
AcDbEntity
8
OUTER_PROFILES
100
AcDbLine
10
767.19123604307265
20
573.78584014324213
30
0
11
762.26194672198335
21
568.85655082222115
31
0
0
LINE
5
125
100
AcDbEntity
8
OUTER_PROFILES
100
AcDbLine
10
762.26194672198335
20
568.85655082222115
30
0
11
760.00000000004422
21
568.78584014386399
31
0
0
LINE
5
126
100
AcDbEntity
8
OUTER_PROFILES
100
AcDbLine
10
760.00000000004422
20
568.78584014386399
30
0
11
760.00000000000557
21
566.52389341923299
31
0
0
LINE
5
127
100
AcDbEntity
8
OUTER_PROFILES
100
AcDbLine
10
760.00000000000557
20
566.52389341923299
30
0
11
762.26194671301596
21
566.45318274158319
31
0
0
LINE
5
128
100
AcDbEntity
8
OUTER_PROFILES
100
AcDbLine
10
762.26194671301596
20
566.45318274158319
30
0
11
767.26194671362589
21
561.45318274022384
31
0
0
LINE
5
129
100
AcDbEntity
8
OUTER_PROFILES
100
AcDbLine
10
767.26194671362589
20
561.45318274022384
30
0
11
767.26194671362634
21
557.59460409559517
31
0
0
LINE
5
130
100
AcDbEntity
8
OUTER_PROFILES
100
AcDbLine
10
767.26194671362634
20
557.59460409559517
30
0
11
762.26194671614041
21
552.5946041111431
31
0
0
SPLINE
5
131
100
AcDbEntity
8
OUTER_PROFILES
100
AcDbSpline
70
0
71
3
72
11
73
7
74
0
42
0.000000001
43
0.0000000001
44
0.0000000001
40
1.1596235083288775e-10
40
1.1596235083288775e-10
40
1.1596235083288775e-10
40
1.1596235083288775e-10
40
0.67319842543916097
40
0.67319842543916097
40
0.67319842543916097
40
1.5707963259373099
40
1.5707963259373099
40
1.5707963259373099
40
1.5707963259373099
10
759.9999999996578
20
552.52389345049005
30
0
10
760.32313524424785
20
552.53399497565636
30
0
10
760.64765047450169
20
552.54409650082255
30
0
10
760.96978582903444
20
552.55419802598885
30
0
10
761.39929963511054
20
552.56766672621154
30
0
10
761.83109971906401
20
552.58113542643412
30
0
10
762.26194671187557
20
552.5946041266568
30
0
0
LINE
5
132
100
AcDbEntity
8
OUTER_PROFILES
100
AcDbLine
10
759.9999999996578
20
552.52389345049005
30
0
11
760.00000000117836
21
550.2619467480788
31
0
0
SPLINE
5
133
100
AcDbEntity
8
OUTER_PROFILES
100
AcDbSpline
70
0
71
3
72
23
73
19
74
0
42
0.000000001
43
0.0000000001
44
0.0000000001
40
-0.31504357640211555
40
-0.31504357640211555
40
-0.31504357640211555
40
-0.31504357640211555
40
-0.2907266631018206
40
-0.2907266631018206
40
-0.2907266631018206
40
-0.1553765487784971
40
-0.1553765487784971
40
-0.1553765487784971
40
-0.13517246979716377
40
-0.13517246979716377
40
-0.13517246979716377
40
-0.075562894330002017
40
-0.075562894330002017
40
-0.075562894330002017
40
-0.04593284721907083
40
-0.04593284721907083
40
-0.04593284721907083
40
-3.626749486807474e-10
40
-3.626749486807474e-10
40
-3.626749486807474e-10
40
-3.626749486807474e-10
10
762.26194670763323
20
550.19123607002916
30
0
10
762.20360090823874
20
550.19306001708378
30
0
10
762.1453439095294
20
550.19488365266375
30
0
10
762.08706820930411
20
550.19670723958779
30
0
10
761.76270044969908
20
550.2068574875077
30
0
10
761.43959675277893
20
550.21691376963349
30
0
10
761.11490368254135
20
550.22709168993538
30
0
10
761.06643586654752
20
550.22861097572741
30
0
10
761.01808437280965
20
550.23012762499968
30
0
10
760.96978584194653
20
550.23164217176782
30
0
10
760.82728714536688
20
550.23611065013586
30
0
10
760.68508353492211
20
550.24056008496564
30
0
10
760.54214795024325
20
550.24502162180033
30
0
10
760.47109916194586
20
550.2472393115853
30
0
10
760.40028767588683
20
550.24944790828943
30
0
10
760.32951805315111
20
550.25165594573946
30
0
10
760.21981015322649
20
550.25507887131437
30
0
10
760.11021092056228
20
550.25850144638025
30
0
10
760.00000000117836
20
550.2619467480788
30
0
0
LINE
5
134
100
AcDbEntity
8
OUTER_PROFILES
100
AcDbLine
10
762.26194670763323
20
550.19123607002916
30
0
11
767.29123602836489
21
545.1619467109042
31
0
0
LINE
5
135
100
AcDbEntity
8
OUTER_PROFILES
100
AcDbLine
10
767.29123602836489
20
545.1619467109042
30
0
11
776.2619467074461
21
545.16194671090398
31
0
0
LINE
5
136
100
AcDbEntity
8
OUTER_PROFILES
100
AcDbLine
10
776.2619467074461
20
545.16194671090398
30
0
11
778.52389342236222
21
545.16194671090409
31
0
0
LINE
5
137
100
AcDbEntity
8
OUTER_PROFILES
100
AcDbLine
10
778.52389342236222
20
545.16194671090409
30
0
11
783.5238934219733
21
545.16194671090466
31
0
0
LINE
5
138
100
AcDbEntity
8
OUTER_PROFILES
100
AcDbLine
10
783.5238934219733
20
545.16194671090466
30
0
11
783.52389342163406
21
16.261946710779256
31
0
0
LINE
5
139
100
AcDbEntity
8
OUTER_PROFILES
100
AcDbLine
10
783.52389342163406
20
16.261946710779256
30
0
11
778.52389342241327
21
16.261946710776698
31
0
0
LINE
5
140
100
AcDbEntity
8
OUTER_PROFILES
100
AcDbLine
10
778.52389342241327
20
16.261946710776698
30
0
11
776.26194670749771
21
16.261946710776627
31
0
0
LINE
5
141
100
AcDbEntity
8
OUTER_PROFILES
100
AcDbLine
10
776.26194670749771
20
16.261946710776627
30
0
11
762.26194670742552
21
16.261946710730513
31
0
0
LINE
5
142
100
AcDbEntity
8
OUTER_PROFILES
100
AcDbLine
10
762.26194670742552
20
16.261946710730513
30
0
11
760.00000000000659
21
16.261946710560835
31
0
0
LINE
5
143
100
AcDbEntity
8
OUTER_PROFILES
100
AcDbLine
10
760.00000000000659
20
16.261946710560835
30
0
11
760.0000000000324
21
13.999999999989541
31
0
0
LINE
5
144
100
AcDbEntity
8
OUTER_PROFILES
100
AcDbLine
10
760.0000000000324
20
13.999999999989541
30
0
11
760.00000000001114
21
-7.1054273576010019e-14
31
0
0
LINE
5
145
100
AcDbEntity
8
OUTER_PROFILES
100
AcDbLine
10
760.00000000001114
20
-7.1054273576010019e-14
30
0
11
0
21
0
31
0
0
LINE
5
146
100
AcDbEntity
8
OUTER_PROFILES
100
AcDbLine
10
0
20
0
30
0
11
-1.5413361229649105e-12
21
13.999999999970782
31
0
0
LINE
5
147
100
AcDbEntity
8
OUTER_PROFILES
100
AcDbLine
10
-1.5413361229649105e-12
20
13.999999999970782
30
0
11
8.2073237095414697e-13
21
16.261946710698041
31
0
0
CIRCLE
5
148
100
AcDbEntity
8
INTERIOR_PROFILES
100
AcDbCircle
10
-31.999999999936062
20
99.261946710585249
30
0
40
1.6999999999999904
210
0
220
0
230
-1
0
CIRCLE
5
149
100
AcDbEntity
8
INTERIOR_PROFILES
100
AcDbCircle
10
-31.999999999933092
20
355.26194671058505
30
0
40
1.6999999999999904
210
0
220
0
230
-1
0
CIRCLE
5
150
100
AcDbEntity
8
INTERIOR_PROFILES
100
AcDbCircle
10
-127.9999999999316
20
515.26194671058488
30
0
40
1.6999999999999815
210
0
220
0
230
-1
0
CIRCLE
5
151
100
AcDbEntity
8
INTERIOR_PROFILES
100
AcDbCircle
10
-31.999999999937302
20
35.261946710585192
30
0
40
1.6999999999999904
210
0
220
0
230
-1
0
CIRCLE
5
152
100
AcDbEntity
8
INTERIOR_PROFILES
100
AcDbCircle
10
-31.999999999931553
20
515.26194671058511
30
0
40
1.6999999999999904
210
0
220
0
230
-1
0
CIRCLE
5
153
100
AcDbEntity
8
INTERIOR_PROFILES
100
AcDbCircle
10
-31.99999999993328
20
323.26194671058499
30
0
40
1.6999999999999904
210
0
220
0
230
-1
0
CIRCLE
5
154
100
AcDbEntity
8
INTERIOR_PROFILES
100
AcDbCircle
10
-63.999999999931589
20
515.26194671058511
30
0
40
1.6999999999999904
210
0
220
0
230
-1
0
CIRCLE
5
155
100
AcDbEntity
8
INTERIOR_PROFILES
100
AcDbCircle
10
-31.999999999933038
20
387.26194671058511
30
0
40
1.6999999999999904
210
0
220
0
230
-1
0
CIRCLE
5
156
100
AcDbEntity
8
INTERIOR_PROFILES
100
AcDbCircle
10
-127.99999999993591
20
131.26194671058343
30
0
40
1.6999999999999815
210
0
220
0
230
-1
0
CIRCLE
5
157
100
AcDbEntity
8
INTERIOR_PROFILES
100
AcDbCircle
10
-127.99999999993184
20
451.2619467105838
30
0
40
1.6999999999999815
210
0
220
0
230
-1
0
CIRCLE
5
158
100
AcDbEntity
8
INTERIOR_PROFILES
100
AcDbCircle
10
-127.99999999993616
20
67.261946710583445
30
0
40
1.6999999999999815
210
0
220
0
230
-1
0
CIRCLE
5
159
100
AcDbEntity
8
INTERIOR_PROFILES
100
AcDbCircle
10
-327.9999999999344
20
259.26194671057914
30
0
40
1.7000000000000171
210
0
220
0
230
-1
0
CIRCLE
5
160
100
AcDbEntity
8
INTERIOR_PROFILES
100
AcDbCircle
10
-31.999999999931799
20
451.26194671058499
30
0
40
1.6999999999999904
210
0
220
0
230
-1
0
CIRCLE
5
161
100
AcDbEntity
8
INTERIOR_PROFILES
100
AcDbCircle
10
-31.999999999937177
20
67.261946710585221
30
0
40
1.6999999999999904
210
0
220
0
230
-1
0
CIRCLE
5
162
100
AcDbEntity
8
INTERIOR_PROFILES
100
AcDbCircle
10
-31.999999999934452
20
259.26194671058511
30
0
40
1.6999999999999904
210
0
220
0
230
-1
0
CIRCLE
5
163
100
AcDbEntity
8
INTERIOR_PROFILES
100
AcDbCircle
10
-327.99999999993383
20
291.2619467105792
30
0
40
1.7000000000000171
210
0
220
0
230
-1
0
CIRCLE
5
164
100
AcDbEntity
8
INTERIOR_PROFILES
100
AcDbCircle
10
-127.99999999993462
20
227.26194671058346
30
0
40
1.6999999999999815
210
0
220
0
230
-1
0
CIRCLE
5
165
100
AcDbEntity
8
INTERIOR_PROFILES
100
AcDbCircle
10
-327.99999999993531
20
163.2619467105792
30
0
40
1.7000000000000171
210
0
220
0
230
-1
0
CIRCLE
5
166
100
AcDbEntity
8
INTERIOR_PROFILES
100
AcDbCircle
10
-327.9999999999352
20
195.26194671057914
30
0
40
1.7000000000000171
210
0
220
0
230
-1
0
CIRCLE
5
167
100
AcDbEntity
8
INTERIOR_PROFILES
100
AcDbCircle
10
-127.99999999993193
20
419.26194671058346
30
0
40
1.6999999999999815
210
0
220
0
230
-1
0
CIRCLE
5
168
100
AcDbEntity
8
INTERIOR_PROFILES
100
AcDbCircle
10
-127.99999999993628
20
35.261946710583487
30
0
40
1.6999999999999815
210
0
220
0
230
-1
0
CIRCLE
5
169
100
AcDbEntity
8
INTERIOR_PROFILES
100
AcDbCircle
10
-127.99999999993173
20
483.26194671058386
30
0
40
1.6999999999999815
210
0
220
0
230
-1
0
CIRCLE
5
170
100
AcDbEntity
8
INTERIOR_PROFILES
100
AcDbCircle
10
-327.99999999993713
20
35.261946710579153
30
0
40
1.7000000000000171
210
0
220
0
230
-1
0
CIRCLE
5
171
100
AcDbEntity
8
INTERIOR_PROFILES
100
AcDbCircle
10
-327.99999999993361
20
323.2619467105792
30
0
40
1.7000000000000171
210
0
220
0
230
-1
0
CIRCLE
5
172
100
AcDbEntity
8
INTERIOR_PROFILES
100
AcDbCircle
10
-127.99999999993483
20
163.26194671058346
30
0
40
1.6999999999999815
210
0
220
0
230
-1
0
CIRCLE
5
173
100
AcDbEntity
8
INTERIOR_PROFILES
100
AcDbCircle
10
-327.99999999993258
20
419.2619467105792
30
0
40
1.7000000000000171
210
0
220
0
230
-1
0
CIRCLE
5
174
100
AcDbEntity
8
INTERIOR_PROFILES
100
AcDbCircle
10
-327.99999999993673
20
67.261946710579181
30
0
40
1.7000000000000171
210
0
220
0
230
-1
0
CIRCLE
5
175
100
AcDbEntity
8
INTERIOR_PROFILES
100
AcDbCircle
10
-127.99999999993604
20
99.261946710583473
30
0
40
1.6999999999999815
210
0
220
0
230
-1
0
CIRCLE
5
176
100
AcDbEntity
8
INTERIOR_PROFILES
100
AcDbCircle
10
-127.99999999993449
20
259.26194671058346
30
0
40
1.6999999999999815
210
0
220
0
230
-1
0
CIRCLE
5
177
100
AcDbEntity
8
INTERIOR_PROFILES
100
AcDbCircle
10
-127.99999999993302
20
387.26194671058352
30
0
40
1.6999999999999815
210
0
220
0
230
-1
0
CIRCLE
5
178
100
AcDbEntity
8
INTERIOR_PROFILES
100
AcDbCircle
10
-327.99999999993463
20
227.2619467105792
30
0
40
1.7000000000000171
210
0
220
0
230
-1
0
CIRCLE
5
179
100
AcDbEntity
8
INTERIOR_PROFILES
100
AcDbCircle
10
-327.99999999993281
20
387.2619467105792
30
0
40
1.7000000000000171
210
0
220
0
230
-1
0
CIRCLE
5
180
100
AcDbEntity
8
INTERIOR_PROFILES
100
AcDbCircle
10
-327.99999999993616
20
99.261946710579139
30
0
40
1.7000000000000171
210
0
220
0
230
-1
0
CIRCLE
5
181
100
AcDbEntity
8
INTERIOR_PROFILES
100
AcDbCircle
10
-127.99999999993325
20
323.26194671058346
30
0
40
1.6999999999999815
210
0
220
0
230
-1
0
CIRCLE
5
182
100
AcDbEntity
8
INTERIOR_PROFILES
100
AcDbCircle
10
-363.9999999999315
20
515.26194671058215
30
0
40
1.7000000000000171
210
0
220
0
230
-1
0
CIRCLE
5
183
100
AcDbEntity
8
INTERIOR_PROFILES
100
AcDbCircle
10
-327.99999999993577
20
131.26194671057917
30
0
40
1.7000000000000171
210
0
220
0
230
-1
0
CIRCLE
5
184
100
AcDbEntity
8
INTERIOR_PROFILES
100
AcDbCircle
10
-431.99999999993287
20
387.26194671057658
30
0
40
1.7000000000000171
210
0
220
0
230
-1
0
CIRCLE
5
185
100
AcDbEntity
8
INTERIOR_PROFILES
100
AcDbCircle
10
-431.99999999993497
20
227.26194671057655
30
0
40
1.7000000000000171
210
0
220
0
230
-1
0
CIRCLE
5
186
100
AcDbEntity
8
INTERIOR_PROFILES
100
AcDbCircle
10
-127.99999999993474
20
195.26194671058349
30
0
40
1.6999999999999815
210
0
220
0
230
-1
0
CIRCLE
5
187
100
AcDbEntity
8
INTERIOR_PROFILES
100
AcDbCircle
10
-327.99999999993128
20
515.2619467105792
30
0
40
1.7000000000000171
210
0
220
0
230
-1
0
CIRCLE
5
188
100
AcDbEntity
8
INTERIOR_PROFILES
100
AcDbCircle
10
-127.99999999993312
20
355.26194671058352
30
0
40
1.6999999999999815
210
0
220
0
230
-1
0
CIRCLE
5
189
100
AcDbEntity
8
INTERIOR_PROFILES
100
AcDbCircle
10
-327.99999999993315
20
355.2619467105792
30
0
40
1.7000000000000171
210
0
220
0
230
-1
0
CIRCLE
5
190
100
AcDbEntity
8
INTERIOR_PROFILES
100
AcDbCircle
10
-127.99999999993437
20
291.26194671058346
30
0
40
1.6999999999999815
210
0
220
0
230
-1
0
CIRCLE
5
191
100
AcDbEntity
8
INTERIOR_PROFILES
100
AcDbCircle
10
-327.99999999993162
20
483.2619467105792
30
0
40
1.7000000000000171
210
0
220
0
230
-1
0
CIRCLE
5
192
100
AcDbEntity
8
INTERIOR_PROFILES
100
AcDbCircle
10
-327.99999999993213
20
451.26194671057908
30
0
40
1.7000000000000171
210
0
220
0
230
-1
0
CIRCLE
5
193
100
AcDbEntity
8
INTERIOR_PROFILES
100
AcDbCircle
10
-395.99999999993145
20
515.26194671058147
30
0
40
1.7000000000000171
210
0
220
0
230
-1
0
CIRCLE
5
194
100
AcDbEntity
8
INTERIOR_PROFILES
100
AcDbCircle
10
-431.99999999993247
20
419.26194671057658
30
0
40
1.7000000000000171
210
0
220
0
230
-1
0
CIRCLE
5
195
100
AcDbEntity
8
INTERIOR_PROFILES
100
AcDbCircle
10
-431.99999999993145
20
515.26194671057669
30
0
40
1.7000000000000171
210
0
220
0
230
-1
0
CIRCLE
5
196
100
AcDbEntity
8
INTERIOR_PROFILES
100
AcDbCircle
10
-431.99999999993332
20
355.26194671057652
30
0
40
1.7000000000000171
210
0
220
0
230
-1
0
CIRCLE
5
197
100
AcDbEntity
8
INTERIOR_PROFILES
100
AcDbCircle
10
-431.999999999934
20
291.26194671057652
30
0
40
1.7000000000000171
210
0
220
0
230
-1
0
CIRCLE
5
198
100
AcDbEntity
8
INTERIOR_PROFILES
100
AcDbCircle
10
-431.99999999993361
20
323.26194671057647
30
0
40
1.7000000000000171
210
0
220
0
230
-1
0
CIRCLE
5
199
100
AcDbEntity
8
INTERIOR_PROFILES
100
AcDbCircle
10
-431.99999999993673
20
67.261946710576552
30
0
40
1.7000000000000171
210
0
220
0
230
-1
0
CIRCLE
5
200
100
AcDbEntity
8
INTERIOR_PROFILES
100
AcDbCircle
10
-431.9999999999373
20
35.261946710576595
30
0
40
1.7000000000000171
210
0
220
0
230
-1
0
CIRCLE
5
201
100
AcDbEntity
8
INTERIOR_PROFILES
100
AcDbCircle
10
-431.99999999993457
20
259.26194671057652
30
0
40
1.7000000000000171
210
0
220
0
230
-1
0
CIRCLE
5
202
100
AcDbEntity
8
INTERIOR_PROFILES
100
AcDbCircle
10
-631.99999999993577
20
195.26194671057326
30
0
40
1.7000000000000171
210
0
220
0
230
-1
0
CIRCLE
5
203
100
AcDbEntity
8
INTERIOR_PROFILES
100
AcDbCircle
10
-431.99999999993224
20
451.26194671057669
30
0
40
1.7000000000000171
210
0
220
0
230
-1
0
CIRCLE
5
204
100
AcDbEntity
8
INTERIOR_PROFILES
100
AcDbCircle
10
-631.99999999993315
20
355.26194671057328
30
0
40
1.7000000000000171
210
0
220
0
230
-1
0
CIRCLE
5
205
100
AcDbEntity
8
INTERIOR_PROFILES
100
AcDbCircle
10
-631.99999999993736
20
35.261946710573255
30
0
40
1.7000000000000171
210
0
220
0
230
-1
0
CIRCLE
5
206
100
AcDbEntity
8
INTERIOR_PROFILES
100
AcDbCircle
10
-431.9999999999352
20
195.26194671057658
30
0
40
1.7000000000000171
210
0
220
0
230
-1
0
CIRCLE
5
207
100
AcDbEntity
8
INTERIOR_PROFILES
100
AcDbCircle
10
-431.99999999993554
20
163.26194671057658
30
0
40
1.7000000000000171
210
0
220
0
230
-1
0
CIRCLE
5
208
100
AcDbEntity
8
INTERIOR_PROFILES
100
AcDbCircle
10
-431.99999999993179
20
483.26194671057664
30
0
40
1.7000000000000171
210
0
220
0
230
-1
0
CIRCLE
5
209
100
AcDbEntity
8
INTERIOR_PROFILES
100
AcDbCircle
10
-431.99999999993588
20
131.26194671057652
30
0
40
1.7000000000000171
210
0
220
0
230
-1
0
CIRCLE
5
210
100
AcDbEntity
8
INTERIOR_PROFILES
100
AcDbCircle
10
-431.99999999993628
20
99.261946710576581
30
0
40
1.7000000000000171
210
0
220
0
230
-1
0
CIRCLE
5
211
100
AcDbEntity
8
INTERIOR_PROFILES
100
AcDbCircle
10
-631.99999999993315
20
387.26194671057226
30
0
40
1.7000000000000171
210
0
220
0
230
-1
0
CIRCLE
5
212
100
AcDbEntity
8
INTERIOR_PROFILES
100
AcDbCircle
10
-631.99999999993463
20
259.26194671057323
30
0
40
1.7000000000000171
210
0
220
0
230
-1
0
CIRCLE
5
213
100
AcDbEntity
8
INTERIOR_PROFILES
100
AcDbCircle
10
-631.99999999993611
20
99.261946710573241
30
0
40
1.7000000000000171
210
0
220
0
230
-1
0
CIRCLE
5
214
100
AcDbEntity
8
INTERIOR_PROFILES
100
AcDbCircle
10
-631.99999999993588
20
131.26194671057226
30
0
40
1.7000000000000171
210
0
220
0
230
-1
0
CIRCLE
5
215
100
AcDbEntity
8
INTERIOR_PROFILES
100
AcDbCircle
10
-631.99999999993167
20
515.26194671057181
30
0
40
1.7000000000000171
210
0
220
0
230
-1
0
CIRCLE
5
216
100
AcDbEntity
8
INTERIOR_PROFILES
100
AcDbCircle
10
-631.99999999993463
20
227.26194671057323
30
0
40
1.7000000000000171
210
0
220
0
230
-1
0
CIRCLE
5
217
100
AcDbEntity
8
INTERIOR_PROFILES
100
AcDbCircle
10
-631.99999999993179
20
483.26194671057283
30
0
40
1.7000000000000171
210
0
220
0
230
-1
0
CIRCLE
5
218
100
AcDbEntity
8
INTERIOR_PROFILES
100
AcDbCircle
10
-631.99999999993588
20
163.26194671057323
30
0
40
1.7000000000000171
210
0
220
0
230
-1
0
CIRCLE
5
219
100
AcDbEntity
8
INTERIOR_PROFILES
100
AcDbCircle
10
-631.99999999993304
20
419.26194671057226
30
0
40
1.7000000000000171
210
0
220
0
230
-1
0
CIRCLE
5
220
100
AcDbEntity
8
INTERIOR_PROFILES
100
AcDbCircle
10
-631.99999999993622
20
67.261946710573213
30
0
40
1.7000000000000171
210
0
220
0
230
-1
0
CIRCLE
5
221
100
AcDbEntity
8
INTERIOR_PROFILES
100
AcDbCircle
10
-727.99999999993315
20
355.26194671057056
30
0
40
1.7000000000000171
210
0
220
0
230
-1
0
CIRCLE
5
222
100
AcDbEntity
8
INTERIOR_PROFILES
100
AcDbCircle
10
-727.99999999993463
20
227.2619467105705
30
0
40
1.7000000000000171
210
0
220
0
230
-1
0
CIRCLE
5
223
100
AcDbEntity
8
INTERIOR_PROFILES
100
AcDbCircle
10
-631.9999999999319
20
451.2619467105726
30
0
40
1.7000000000000171
210
0
220
0
230
-1
0
CIRCLE
5
224
100
AcDbEntity
8
INTERIOR_PROFILES
100
AcDbCircle
10
-727.99999999993452
20
259.26194671057056
30
0
40
1.7000000000000171
210
0
220
0
230
-1
0
CIRCLE
5
225
100
AcDbEntity
8
INTERIOR_PROFILES
100
AcDbCircle
10
-695.99999999993156
20
515.26194671057158
30
0
40
1.7000000000000171
210
0
220
0
230
-1
0
CIRCLE
5
226
100
AcDbEntity
8
INTERIOR_PROFILES
100
AcDbCircle
10
-727.99999999993429
20
291.26194671057061
30
0
40
1.7000000000000171
210
0
220
0
230
-1
0
CIRCLE
5
227
100
AcDbEntity
8
INTERIOR_PROFILES
100
AcDbCircle
10
-631.99999999993327
20
323.26194671057323
30
0
40
1.7000000000000171
210
0
220
0
230
-1
0
CIRCLE
5
228
100
AcDbEntity
8
INTERIOR_PROFILES
100
AcDbCircle
10
-631.9999999999344
20
291.26194671057323
30
0
40
1.7000000000000171
210
0
220
0
230
-1
0
CIRCLE
5
229
100
AcDbEntity
8
INTERIOR_PROFILES
100
AcDbCircle
10
-727.99999999993599
20
67.261946710570513
30
0
40
1.7000000000000171
210
0
220
0
230
-1
0
CIRCLE
5
230
100
AcDbEntity
8
INTERIOR_PROFILES
100
AcDbCircle
10
-727.9999999999319
20
419.26194671057061
30
0
40
1.7000000000000171
210
0
220
0
230
-1
0
CIRCLE
5
231
100
AcDbEntity
8
INTERIOR_PROFILES
100
AcDbCircle
10
-727.99999999993338
20
323.26194671057061
30
0
40
1.7000000000000171
210
0
220
0
230
-1
0
CIRCLE
5
232
100
AcDbEntity
8
INTERIOR_PROFILES
100
AcDbCircle
10
-727.99999999993588
20
131.2619467105705
30
0
40
1.7000000000000171
210
0
220
0
230
-1
0
CIRCLE
5
233
100
AcDbEntity
8
INTERIOR_PROFILES
100
AcDbCircle
10
-727.99999999993486
20
163.26194671057053
30
0
40
1.7000000000000171
210
0
220
0
230
-1
0
CIRCLE
5
234
100
AcDbEntity
8
INTERIOR_PROFILES
100
AcDbCircle
10
-727.99999999993611
20
35.261946710570484
30
0
40
1.7000000000000171
210
0
220
0
230
-1
0
CIRCLE
5
235
100
AcDbEntity
8
INTERIOR_PROFILES
100
AcDbCircle
10
-727.99999999993463
20
195.26194671057056
30
0
40
1.7000000000000171
210
0
220
0
230
-1
0
CIRCLE
5
236
100
AcDbEntity
8
INTERIOR_PROFILES
100
AcDbCircle
10
-727.99999999993156
20
515.26194671057067
30
0
40
1.7000000000000171
210
0
220
0
230
-1
0
CIRCLE
5
237
100
AcDbEntity
8
INTERIOR_PROFILES
100
AcDbCircle
10
-727.99999999993611
20
99.261946710570541
30
0
40
1.7000000000000171
210
0
220
0
230
-1
0
CIRCLE
5
238
100
AcDbEntity
8
INTERIOR_PROFILES
100
AcDbCircle
10
-10.000000000010624
20
19.261946710677051
30
0
40
1.7000000000000004
210
0
220
0
230
-1
0
CIRCLE
5
239
100
AcDbEntity
8
INTERIOR_PROFILES
100
AcDbCircle
10
-750.00000000001069
20
19.261946710761748
30
0
40
1.7000000000000171
210
0
220
0
230
-1
0
CIRCLE
5
240
100
AcDbEntity
8
INTERIOR_PROFILES
100
AcDbCircle
10
-159.99999999993591
20
419.26194671058363
30
0
40
1.6999999999999993
210
0
220
0
230
-1
0
CIRCLE
5
241
100
AcDbEntity
8
INTERIOR_PROFILES
100
AcDbCircle
10
-663.99999999993452
20
515.26194671057374
30
0
40
1.7000000000000171
210
0
220
0
230
-1
0
CIRCLE
5
242
100
AcDbEntity
8
INTERIOR_PROFILES
100
AcDbCircle
10
-159.99999999993739
20
291.26194671058357
30
0
40
1.6999999999999993
210
0
220
0
230
-1
0
CIRCLE
5
243
100
AcDbEntity
8
INTERIOR_PROFILES
100
AcDbCircle
10
-159.99999999993764
20
227.26194671058357
30
0
40
1.6999999999999993
210
0
220
0
230
-1
0
CIRCLE
5
244
100
AcDbEntity
8
INTERIOR_PROFILES
100
AcDbCircle
10
-95.999999999934587
20
515.2619467105842
30
0
40
1.6999999999999993
210
0
220
0
230
-1
0
CIRCLE
5
245
100
AcDbEntity
8
INTERIOR_PROFILES
100
AcDbCircle
10
-159.99999999993582
20
451.26194671058391
30
0
40
1.6999999999999993
210
0
220
0
230
-1
0
CIRCLE
5
246
100
AcDbEntity
8
INTERIOR_PROFILES
100
AcDbCircle
10
-727.99999999993179
20
451.2619467105705
30
0
40
1.7000000000000171
210
0
220
0
230
-1
0
CIRCLE
5
247
100
AcDbEntity
8
INTERIOR_PROFILES
100
AcDbCircle
10
-727.99999999993145
20
483.26194671057061
30
0
40
1.7000000000000171
210
0
220
0
230
-1
0
CIRCLE
5
248
100
AcDbEntity
8
INTERIOR_PROFILES
100
AcDbCircle
10
-159.99999999994029
20
35.261946710583558
30
0
40
1.6999999999999993
210
0
220
0
230
-1
0
CIRCLE
5
249
100
AcDbEntity
8
INTERIOR_PROFILES
100
AcDbCircle
10
-727.99999999993292
20
387.26194671057056
30
0
40
1.7000000000000171
210
0
220
0
230
-1
0
CIRCLE
5
250
100
AcDbEntity
8
INTERIOR_PROFILES
100
AcDbCircle
10
-159.99999999993457
20
515.26194671058488
30
0
40
1.6999999999999993
210
0
220
0
230
-1
0
CIRCLE
5
251
100
AcDbEntity
8
INTERIOR_PROFILES
100
AcDbCircle
10
-599.99999999993884
20
195.2619467105722
30
0
40
1.7000000000000171
210
0
220
0
230
-1
0
CIRCLE
5
252
100
AcDbEntity
8
INTERIOR_PROFILES
100
AcDbCircle
10
-599.9999999999402
20
67.261946710572218
30
0
40
1.7000000000000171
210
0
220
0
230
-1
0
CIRCLE
5
253
100
AcDbEntity
8
INTERIOR_PROFILES
100
AcDbCircle
10
-599.99999999993724
20
355.26194671057215
30
0
40
1.7000000000000171
210
0
220
0
230
-1
0
CIRCLE
5
254
100
AcDbEntity
8
INTERIOR_PROFILES
100
AcDbCircle
10
-159.9999999999375
20
259.26194671058352
30
0
40
1.6999999999999993
210
0
220
0
230
-1
0
CIRCLE
5
255
100
AcDbEntity
8
INTERIOR_PROFILES
100
AcDbCircle
10
-159.99999999993892
20
131.26194671058352
30
0
40
1.6999999999999993
210
0
220
0
230
-1
0
CIRCLE
5
256
100
AcDbEntity
8
INTERIOR_PROFILES
100
AcDbCircle
10
-159.99999999993906
20
99.261946710583544
30
0
40
1.6999999999999993
210
0
220
0
230
-1
0
CIRCLE
5
257
100
AcDbEntity
8
INTERIOR_PROFILES
100
AcDbCircle
10
-599.99999999994043
20
35.26194671057219
30
0
40
1.7000000000000171
210
0
220
0
230
-1
0
CIRCLE
5
258
100
AcDbEntity
8
INTERIOR_PROFILES
100
AcDbCircle
10
-599.99999999993895
20
163.26194671057223
30
0
40
1.7000000000000171
210
0
220
0
230
-1
0
CIRCLE
5
259
100
AcDbEntity
8
INTERIOR_PROFILES
100
AcDbCircle
10
-599.99999999993599
20
419.26194671057215
30
0
40
1.7000000000000171
210
0
220
0
230
-1
0
CIRCLE
5
260
100
AcDbEntity
8
INTERIOR_PROFILES
100
AcDbCircle
10
-599.99999999993565
20
483.26194671057249
30
0
40
1.7000000000000171
210
0
220
0
230
-1
0
CIRCLE
5
261
100
AcDbEntity
8
INTERIOR_PROFILES
100
AcDbCircle
10
-599.99999999993895
20
131.2619467105722
30
0
40
1.7000000000000171
210
0
220
0
230
-1
0
CIRCLE
5
262
100
AcDbEntity
8
INTERIOR_PROFILES
100
AcDbCircle
10
-599.99999999993588
20
451.26194671057254
30
0
40
1.7000000000000171
210
0
220
0
230
-1
0
CIRCLE
5
263
100
AcDbEntity
8
INTERIOR_PROFILES
100
AcDbCircle
10
-599.99999999993736
20
323.26194671057209
30
0
40
1.7000000000000171
210
0
220
0
230
-1
0
CIRCLE
5
264
100
AcDbEntity
8
INTERIOR_PROFILES
100
AcDbCircle
10
-599.99999999993747
20
291.26194671057209
30
0
40
1.7000000000000171
210
0
220
0
230
-1
0
CIRCLE
5
265
100
AcDbEntity
8
INTERIOR_PROFILES
100
AcDbCircle
10
-599.99999999993872
20
227.26194671057215
30
0
40
1.7000000000000171
210
0
220
0
230
-1
0
CIRCLE
5
266
100
AcDbEntity
8
INTERIOR_PROFILES
100
AcDbCircle
10
-599.99999999994009
20
99.261946710572175
30
0
40
1.7000000000000171
210
0
220
0
230
-1
0
CIRCLE
5
267
100
AcDbEntity
8
INTERIOR_PROFILES
100
AcDbCircle
10
-599.99999999993759
20
259.26194671057209
30
0
40
1.7000000000000171
210
0
220
0
230
-1
0
CIRCLE
5
268
100
AcDbEntity
8
INTERIOR_PROFILES
100
AcDbCircle
10
-159.99999999993469
20
483.26194671058386
30
0
40
1.6999999999999993
210
0
220
0
230
-1
0
CIRCLE
5
269
100
AcDbEntity
8
INTERIOR_PROFILES
100
AcDbCircle
10
-159.99999999994017
20
67.261946710583516
30
0
40
1.6999999999999993
210
0
220
0
230
-1
0
CIRCLE
5
270
100
AcDbEntity
8
INTERIOR_PROFILES
100
AcDbCircle
10
-159.99999999993724
20
323.26194671058363
30
0
40
1.6999999999999993
210
0
220
0
230
-1
0
CIRCLE
5
271
100
AcDbEntity
8
INTERIOR_PROFILES
100
AcDbCircle
10
-159.99999999993611
20
355.26194671058363
30
0
40
1.6999999999999993
210
0
220
0
230
-1
0
CIRCLE
5
272
100
AcDbEntity
8
INTERIOR_PROFILES
100
AcDbCircle
10
-159.99999999993884
20
163.26194671058352
30
0
40
1.6999999999999993
210
0
220
0
230
-1
0
CIRCLE
5
273
100
AcDbEntity
8
INTERIOR_PROFILES
100
AcDbCircle
10
-179.99999999945965
20
19.261946710188624
30
0
40
1.6999999999998394
210
0
220
0
230
-1
0
CIRCLE
5
274
100
AcDbEntity
8
INTERIOR_PROFILES
100
AcDbCircle
10
-479.99999999945953
20
19.261946710189761
30
0
40
1.6999999999998749
210
0
220
0
230
-1
0
CIRCLE
5
275
100
AcDbEntity
8
INTERIOR_PROFILES
100
AcDbCircle
10
-579.99999999945965
20
19.261946710190045
30
0
40
1.6999999999998749
210
0
220
0
230
-1
0
CIRCLE
5
276
100
AcDbEntity
8
INTERIOR_PROFILES
100
AcDbCircle
10
-159.99999999993599
20
387.26194671058357
30
0
40
1.6999999999999993
210
0
220
0
230
-1
0
CIRCLE
5
277
100
AcDbEntity
8
INTERIOR_PROFILES
100
AcDbCircle
10
-263.99999999993457
20
515.26194671057215
30
0
40
1.7000000000000171
210
0
220
0
230
-1
0
CIRCLE
5
278
100
AcDbEntity
8
INTERIOR_PROFILES
100
AcDbCircle
10
-599.99999999993611
20
387.26194671057215
30
0
40
1.7000000000000171
210
0
220
0
230
-1
0
CIRCLE
5
279
100
AcDbEntity
8
INTERIOR_PROFILES
100
AcDbCircle
10
-159.99999999993875
20
195.26194671058357
30
0
40
1.6999999999999993
210
0
220
0
230
-1
0
CIRCLE
5
280
100
AcDbEntity
8
INTERIOR_PROFILES
100
AcDbCircle
10
-279.99999999945965
20
19.26194671018898
30
0
40
1.6999999999998394
210
0
220
0
230
-1
0
CIRCLE
5
281
100
AcDbEntity
8
INTERIOR_PROFILES
100
AcDbCircle
10
-487.49999999999972
20
543.26194671058727
30
0
40
1.7000000000000171
210
0
220
0
230
-1
0
CIRCLE
5
282
100
AcDbEntity
8
INTERIOR_PROFILES
100
AcDbCircle
10
-599.99999999993474
20
515.26194671057158
30
0
40
1.7000000000000171
210
0
220
0
230
-1
0
CIRCLE
5
283
100
AcDbEntity
8
INTERIOR_PROFILES
100
AcDbCircle
10
-463.99999999993327
20
355.26194671057669
30
0
40
1.699999999999946
210
0
220
0
230
-1
0
CIRCLE
5
284
100
AcDbEntity
8
INTERIOR_PROFILES
100
AcDbCircle
10
-295.99999999993315
20
355.26194671057908
30
0
40
1.699999999999946
210
0
220
0
230
-1
0
CIRCLE
5
285
100
AcDbEntity
8
INTERIOR_PROFILES
100
AcDbCircle
10
-295.99999999993213
20
451.26194671057908
30
0
40
1.7000000000000171
210
0
220
0
230
-1
0
CIRCLE
5
286
100
AcDbEntity
8
INTERIOR_PROFILES
100
AcDbCircle
10
-272.49999999999949
20
543.26194671058659
30
0
40
1.7000000000000171
210
0
220
0
230
-1
0
CIRCLE
5
287
100
AcDbEntity
8
INTERIOR_PROFILES
100
AcDbCircle
10
-295.99999999993474
20
227.26194671057902
30
0
40
1.6999999999999815
210
0
220
0
230
-1
0
CIRCLE
5
288
100
AcDbEntity
8
INTERIOR_PROFILES
100
AcDbCircle
10
-495.99999999993167
20
515.26194671057101
30
0
40
1.7000000000000171
210
0
220
0
230
-1
0
CIRCLE
5
289
100
AcDbEntity
8
INTERIOR_PROFILES
100
AcDbCircle
10
-463.99999999993241
20
419.26194671057669
30
0
40
1.7000000000000171
210
0
220
0
230
-1
0
CIRCLE
5
290
100
AcDbEntity
8
INTERIOR_PROFILES
100
AcDbCircle
10
-463.99999999993622
20
99.261946710576723
30
0
40
1.7000000000000171
210
0
220
0
230
-1
0
CIRCLE
5
291
100
AcDbEntity
8
INTERIOR_PROFILES
100
AcDbCircle
10
-463.99999999993673
20
67.261946710576694
30
0
40
1.7000000000000171
210
0
220
0
230
-1
0
CIRCLE
5
292
100
AcDbEntity
8
INTERIOR_PROFILES
100
AcDbCircle
10
-463.99999999993292
20
387.26194671057669
30
0
40
1.7000000000000171
210
0
220
0
230
-1
0
CIRCLE
5
293
100
AcDbEntity
8
INTERIOR_PROFILES
100
AcDbCircle
10
-463.99999999993486
20
227.26194671057669
30
0
40
1.6999999999999815
210
0
220
0
230
-1
0
CIRCLE
5
294
100
AcDbEntity
8
INTERIOR_PROFILES
100
AcDbCircle
10
-463.99999999993497
20
515.26194671057294
30
0
40
1.7000000000000171
210
0
220
0
230
-1
0
CIRCLE
5
295
100
AcDbEntity
8
INTERIOR_PROFILES
100
AcDbCircle
10
-295.99999999993531
20
163.26194671057905
30
0
40
1.7000000000000171
210
0
220
0
230
-1
0
CIRCLE
5
296
100
AcDbEntity
8
INTERIOR_PROFILES
100
AcDbCircle
10
-295.99999999993383
20
291.26194671057902
30
0
40
1.6999999999999815
210
0
220
0
230
-1
0
CIRCLE
5
297
100
AcDbEntity
8
INTERIOR_PROFILES
100
AcDbCircle
10
-463.99999999993543
20
195.26194671057675
30
0
40
1.7000000000000171
210
0
220
0
230
-1
0
CIRCLE
5
298
100
AcDbEntity
8
INTERIOR_PROFILES
100
AcDbCircle
10
-295.99999999993116
20
515.26194671057033
30
0
40
1.7000000000000171
210
0
220
0
230
-1
0
CIRCLE
5
299
100
AcDbEntity
8
INTERIOR_PROFILES
100
AcDbCircle
10
-295.99999999993577
20
131.26194671057902
30
0
40
1.7000000000000171
210
0
220
0
230
-1
0
CIRCLE
5
300
100
AcDbEntity
8
INTERIOR_PROFILES
100
AcDbCircle
10
-295.99999999993167
20
483.26194671057908
30
0
40
1.7000000000000171
210
0
220
0
230
-1
0
CIRCLE
5
301
100
AcDbEntity
8
INTERIOR_PROFILES
100
AcDbCircle
10
-295.9999999999327
20
387.26194671057902
30
0
40
1.7000000000000171
210
0
220
0
230
-1
0
CIRCLE
5
302
100
AcDbEntity
8
INTERIOR_PROFILES
100
AcDbCircle
10
-295.99999999993253
20
419.26194671057908
30
0
40
1.7000000000000171
210
0
220
0
230
-1
0
CIRCLE
5
303
100
AcDbEntity
8
INTERIOR_PROFILES
100
AcDbCircle
10
-463.99999999993599
20
131.26194671057669
30
0
40
1.7000000000000171
210
0
220
0
230
-1
0
CIRCLE
5
304
100
AcDbEntity
8
INTERIOR_PROFILES
100
AcDbCircle
10
-295.99999999993423
20
259.26194671057897
30
0
40
1.6999999999999815
210
0
220
0
230
-1
0
CIRCLE
5
305
100
AcDbEntity
8
INTERIOR_PROFILES
100
AcDbCircle
10
-463.99999999993463
20
259.26194671057664
30
0
40
1.6999999999999815
210
0
220
0
230
-1
0
CIRCLE
5
306
100
AcDbEntity
8
INTERIOR_PROFILES
100
AcDbCircle
10
-463.99999999993548
20
163.26194671057669
30
0
40
1.7000000000000171
210
0
220
0
230
-1
0
CIRCLE
5
307
100
AcDbEntity
8
INTERIOR_PROFILES
100
AcDbCircle
10
-295.99999999993349
20
323.26194671057908
30
0
40
1.699999999999946
210
0
220
0
230
-1
0
CIRCLE
5
308
100
AcDbEntity
8
INTERIOR_PROFILES
100
AcDbCircle
10
-463.99999999993179
20
483.26194671057681
30
0
40
1.7000000000000171
210
0
220
0
230
-1
0
CIRCLE
5
309
100
AcDbEntity
8
INTERIOR_PROFILES
100
AcDbCircle
10
-295.99999999993707
20
35.261946710579011
30
0
40
1.7000000000000215
210
0
220
0
230
-1
0
CIRCLE
5
310
100
AcDbEntity
8
INTERIOR_PROFILES
100
AcDbCircle
10
-295.99999999993508
20
195.26194671057902
30
0
40
1.7000000000000171
210
0
220
0
230
-1
0
CIRCLE
5
311
100
AcDbEntity
8
INTERIOR_PROFILES
100
AcDbCircle
10
-463.99999999993224
20
451.26194671057675
30
0
40
1.7000000000000171
210
0
220
0
230
-1
0
CIRCLE
5
312
100
AcDbEntity
8
INTERIOR_PROFILES
100
AcDbCircle
10
-463.99999999993406
20
291.26194671057658
30
0
40
1.6999999999999815
210
0
220
0
230
-1
0
CIRCLE
5
313
100
AcDbEntity
8
INTERIOR_PROFILES
100
AcDbCircle
10
-463.99999999993724
20
35.261946710576737
30
0
40
1.7000000000000215
210
0
220
0
230
-1
0
CIRCLE
5
314
100
AcDbEntity
8
INTERIOR_PROFILES
100
AcDbCircle
10
-463.99999999993361
20
323.26194671057664
30
0
40
1.699999999999946
210
0
220
0
230
-1
0
CIRCLE
5
315
100
AcDbEntity
8
INTERIOR_PROFILES
100
AcDbCircle
10
-231.99999999993162
20
515.26194671057601
30
0
40
1.7000000000000171
210
0
220
0
230
-1
0
CIRCLE
5
316
100
AcDbEntity
8
INTERIOR_PROFILES
100
AcDbCircle
10
-212.5000000001275
20
543.26194671064104
30
0
40
1.7000000000000171
210
0
220
0
230
-1
0
CIRCLE
5
317
100
AcDbEntity
8
INTERIOR_PROFILES
100
AcDbCircle
10
-585.0000000000075
20
543.26194671058533
30
0
40
1.7000000000000171
210
0
220
0
230
-1
0
CIRCLE
5
318
100
AcDbEntity
8
INTERIOR_PROFILES
100
AcDbCircle
10
-528.00000000007572
20
483.26194671057698
30
0
40
1.7000000000000171
210
0
220
0
230
-1
0
CIRCLE
5
319
100
AcDbEntity
8
INTERIOR_PROFILES
100
AcDbCircle
10
-295.99999999993616
20
99.261946710578997
30
0
40
1.7000000000000171
210
0
220
0
230
-1
0
CIRCLE
5
320
100
AcDbEntity
8
INTERIOR_PROFILES
100
AcDbCircle
10
-231.99999999993315
20
355.26194671057578
30
0
40
1.699999999999946
210
0
220
0
230
-1
0
CIRCLE
5
321
100
AcDbEntity
8
INTERIOR_PROFILES
100
AcDbCircle
10
-231.99999999993594
20
131.26194671057584
30
0
40
1.7000000000000171
210
0
220
0
230
-1
0
CIRCLE
5
322
100
AcDbEntity
8
INTERIOR_PROFILES
100
AcDbCircle
10
-528.00000000007378
20
195.26194671057695
30
0
40
1.7000000000000171
210
0
220
0
230
-1
0
CIRCLE
5
323
100
AcDbEntity
8
INTERIOR_PROFILES
100
AcDbCircle
10
-295.99999999993668
20
67.261946710579039
30
0
40
1.7000000000000171
210
0
220
0
230
-1
0
CIRCLE
5
324
100
AcDbEntity
8
INTERIOR_PROFILES
100
AcDbCircle
10
-231.99999999993327
20
323.26194671057584
30
0
40
1.699999999999946
210
0
220
0
230
-1
0
CIRCLE
5
325
100
AcDbEntity
8
INTERIOR_PROFILES
100
AcDbCircle
10
-528.00000000007424
20
67.261946710576908
30
0
40
1.7000000000000171
210
0
220
0
230
-1
0
CIRCLE
5
326
100
AcDbEntity
8
INTERIOR_PROFILES
100
AcDbCircle
10
-528.0000000000756
20
515.26194671057715
30
0
40
1.7000000000000171
210
0
220
0
230
-1
0
CIRCLE
5
327
100
AcDbEntity
8
INTERIOR_PROFILES
100
AcDbCircle
10
-528.00000000007594
20
419.26194671057686
30
0
40
1.7000000000000171
210
0
220
0
230
-1
0
CIRCLE
5
328
100
AcDbEntity
8
INTERIOR_PROFILES
100
AcDbCircle
10
-528.00000000007515
20
355.26194671057681
30
0
40
1.699999999999946
210
0
220
0
230
-1
0
CIRCLE
5
329
100
AcDbEntity
8
INTERIOR_PROFILES
100
AcDbCircle
10
-231.99999999993605
20
99.26194671057587
30
0
40
1.7000000000000171
210
0
220
0
230
-1
0
CIRCLE
5
330
100
AcDbEntity
8
INTERIOR_PROFILES
100
AcDbCircle
10
-528.00000000007469
20
227.26194671057692
30
0
40
1.6999999999999815
210
0
220
0
230
-1
0
CIRCLE
5
331
100
AcDbEntity
8
INTERIOR_PROFILES
100
AcDbCircle
10
-528.00000000007526
20
323.26194671057686
30
0
40
1.699999999999946
210
0
220
0
230
-1
0
CIRCLE
5
332
100
AcDbEntity
8
INTERIOR_PROFILES
100
AcDbCircle
10
-231.99999999993619
20
67.261946710575842
30
0
40
1.7000000000000171
210
0
220
0
230
-1
0
CIRCLE
5
333
100
AcDbEntity
8
INTERIOR_PROFILES
100
AcDbCircle
10
-231.99999999993457
20
227.2619467105759
30
0
40
1.6999999999999815
210
0
220
0
230
-1
0
CIRCLE
5
334
100
AcDbEntity
8
INTERIOR_PROFILES
100
AcDbCircle
10
-528.00000000007458
20
259.26194671057686
30
0
40
1.6999999999999815
210
0
220
0
230
-1
0
CIRCLE
5
335
100
AcDbEntity
8
INTERIOR_PROFILES
100
AcDbCircle
10
-528.00000000007412
20
99.261946710576936
30
0
40
1.7000000000000171
210
0
220
0
230
-1
0
CIRCLE
5
336
100
AcDbEntity
8
INTERIOR_PROFILES
100
AcDbCircle
10
-528.00000000007333
20
35.26194671057695
30
0
40
1.7000000000000215
210
0
220
0
230
-1
0
CIRCLE
5
337
100
AcDbEntity
8
INTERIOR_PROFILES
100
AcDbCircle
10
-528.00000000007401
20
131.26194671057689
30
0
40
1.7000000000000171
210
0
220
0
230
-1
0
CIRCLE
5
338
100
AcDbEntity
8
INTERIOR_PROFILES
100
AcDbCircle
10
-231.99999999993568
20
195.2619467105759
30
0
40
1.7000000000000171
210
0
220
0
230
-1
0
CIRCLE
5
339
100
AcDbEntity
8
INTERIOR_PROFILES
100
AcDbCircle
10
-231.9999999999358
20
163.26194671057584
30
0
40
1.7000000000000171
210
0
220
0
230
-1
0
CIRCLE
5
340
100
AcDbEntity
8
INTERIOR_PROFILES
100
AcDbCircle
10
-231.9999999999317
20
483.2619467105759
30
0
40
1.7000000000000171
210
0
220
0
230
-1
0
CIRCLE
5
341
100
AcDbEntity
8
INTERIOR_PROFILES
100
AcDbCircle
10
-615.00000000012756
20
543.26194671064241
30
0
40
1.7000000000000171
210
0
220
0
230
-1
0
CIRCLE
5
342
100
AcDbEntity
8
INTERIOR_PROFILES
100
AcDbCircle
10
-231.99999999993182
20
451.26194671057596
30
0
40
1.7000000000000171
210
0
220
0
230
-1
0
CIRCLE
5
343
100
AcDbEntity
8
INTERIOR_PROFILES
100
AcDbCircle
10
-175.0000000000075
20
543.26194671058397
30
0
40
1.7000000000000171
210
0
220
0
230
-1
0
CIRCLE
5
344
100
AcDbEntity
8
INTERIOR_PROFILES
100
AcDbCircle
10
-547.49999999987961
20
543.26194671064229
30
0
40
1.7000000000000171
210
0
220
0
230
-1
0
CIRCLE
5
345
100
AcDbEntity
8
INTERIOR_PROFILES
100
AcDbCircle
10
-528.00000000007446
20
291.26194671057681
30
0
40
1.6999999999999815
210
0
220
0
230
-1
0
CIRCLE
5
346
100
AcDbEntity
8
INTERIOR_PROFILES
100
AcDbCircle
10
-528.00000000007515
20
387.26194671057681
30
0
40
1.7000000000000171
210
0
220
0
230
-1
0
CIRCLE
5
347
100
AcDbEntity
8
INTERIOR_PROFILES
100
AcDbCircle
10
-528.00000000007583
20
451.26194671057704
30
0
40
1.7000000000000171
210
0
220
0
230
-1
0
CIRCLE
5
348
100
AcDbEntity
8
INTERIOR_PROFILES
100
AcDbCircle
10
-528.0000000000739
20
163.26194671057692
30
0
40
1.7000000000000171
210
0
220
0
230
-1
0
CIRCLE
5
349
100
AcDbEntity
8
INTERIOR_PROFILES
100
AcDbCircle
10
-231.99999999993193
20
419.2619467105759
30
0
40
1.7000000000000171
210
0
220
0
230
-1
0
CIRCLE
5
350
100
AcDbEntity
8
INTERIOR_PROFILES
100
AcDbCircle
10
-231.99999999993452
20
259.2619467105759
30
0
40
1.6999999999999815
210
0
220
0
230
-1
0
CIRCLE
5
351
100
AcDbEntity
8
INTERIOR_PROFILES
100
AcDbCircle
10
-231.9999999999344
20
291.26194671057584
30
0
40
1.6999999999999815
210
0
220
0
230
-1
0
CIRCLE
5
352
100
AcDbEntity
8
INTERIOR_PROFILES
100
AcDbCircle
10
-95.999999999934658
20
227.26194671058329
30
0
40
1.6999999999999815
210
0
220
0
230
-1
0
CIRCLE
5
353
100
AcDbEntity
8
INTERIOR_PROFILES
100
AcDbCircle
10
-95.999999999931703
20
483.26194671058369
30
0
40
1.7000000000000171
210
0
220
0
230
-1
0
CIRCLE
5
354
100
AcDbEntity
8
INTERIOR_PROFILES
100
AcDbCircle
10
-663.99999999993588
20
131.26194671057243
30
0
40
1.7000000000000171
210
0
220
0
230
-1
0
CIRCLE
5
355
100
AcDbEntity
8
INTERIOR_PROFILES
100
AcDbCircle
10
-95.999999999934786
20
195.26194671058335
30
0
40
1.7000000000000171
210
0
220
0
230
-1
0
CIRCLE
5
356
100
AcDbEntity
8
INTERIOR_PROFILES
100
AcDbCircle
10
-95.999999999936051
20
99.261946710583331
30
0
40
1.7000000000000171
210
0
220
0
230
-1
0
CIRCLE
5
357
100
AcDbEntity
8
INTERIOR_PROFILES
100
AcDbCircle
10
-663.99999999993292
20
387.26194671057237
30
0
40
1.7000000000000171
210
0
220
0
230
-1
0
CIRCLE
5
358
100
AcDbEntity
8
INTERIOR_PROFILES
100
AcDbCircle
10
-663.99999999993724
20
35.261946710573397
30
0
40
1.7000000000000215
210
0
220
0
230
-1
0
CIRCLE
5
359
100
AcDbEntity
8
INTERIOR_PROFILES
100
AcDbCircle
10
-231.99999999993304
20
387.26194671057584
30
0
40
1.7000000000000171
210
0
220
0
230
-1
0
CIRCLE
5
360
100
AcDbEntity
8
INTERIOR_PROFILES
100
AcDbCircle
10
-144.99999999987946
20
543.26194671064081
30
0
40
1.7000000000000171
210
0
220
0
230
-1
0
CIRCLE
5
361
100
AcDbEntity
8
INTERIOR_PROFILES
100
AcDbCircle
10
-95.999999999934417
20
291.26194671058335
30
0
40
1.6999999999999815
210
0
220
0
230
-1
0
CIRCLE
5
362
100
AcDbEntity
8
INTERIOR_PROFILES
100
AcDbCircle
10
-663.99999999993474
20
227.26194671057343
30
0
40
1.6999999999999815
210
0
220
0
230
-1
0
CIRCLE
5
363
100
AcDbEntity
8
INTERIOR_PROFILES
100
AcDbCircle
10
-663.99999999993611
20
99.261946710573383
30
0
40
1.7000000000000171
210
0
220
0
230
-1
0
CIRCLE
5
364
100
AcDbEntity
8
INTERIOR_PROFILES
100
AcDbCircle
10
-95.999999999934872
20
163.26194671058332
30
0
40
1.7000000000000171
210
0
220
0
230
-1
0
CIRCLE
5
365
100
AcDbEntity
8
INTERIOR_PROFILES
100
AcDbCircle
10
-663.99999999993292
20
419.26194671057237
30
0
40
1.7000000000000171
210
0
220
0
230
-1
0
CIRCLE
5
366
100
AcDbEntity
8
INTERIOR_PROFILES
100
AcDbCircle
10
-663.99999999993179
20
451.26194671057283
30
0
40
1.7000000000000171
210
0
220
0
230
-1
0
CIRCLE
5
367
100
AcDbEntity
8
INTERIOR_PROFILES
100
AcDbCircle
10
-95.999999999931816
20
451.26194671058374
30
0
40
1.7000000000000171
210
0
220
0
230
-1
0
CIRCLE
5
368
100
AcDbEntity
8
INTERIOR_PROFILES
100
AcDbCircle
10
-663.99999999993315
20
355.2619467105734
30
0
40
1.699999999999946
210
0
220
0
230
-1
0
CIRCLE
5
369
100
AcDbEntity
8
INTERIOR_PROFILES
100
AcDbCircle
10
-95.999999999933138
20
355.26194671058335
30
0
40
1.699999999999946
210
0
220
0
230
-1
0
CIRCLE
5
370
100
AcDbEntity
8
INTERIOR_PROFILES
100
AcDbCircle
10
-95.999999999933024
20
387.2619467105834
30
0
40
1.7000000000000171
210
0
220
0
230
-1
0
CIRCLE
5
371
100
AcDbEntity
8
INTERIOR_PROFILES
100
AcDbCircle
10
-231.9999999999373
20
35.261946710575884
30
0
40
1.7000000000000215
210
0
220
0
230
-1
0
CIRCLE
5
372
100
AcDbEntity
8
INTERIOR_PROFILES
100
AcDbCircle
10
-663.99999999993167
20
483.26194671057289
30
0
40
1.7000000000000171
210
0
220
0
230
-1
0
CIRCLE
5
373
100
AcDbEntity
8
INTERIOR_PROFILES
100
AcDbCircle
10
-663.99999999993452
20
259.26194671057328
30
0
40
1.6999999999999815
210
0
220
0
230
-1
0
CIRCLE
5
374
100
AcDbEntity
8
INTERIOR_PROFILES
100
AcDbCircle
10
-663.99999999993588
20
163.26194671057337
30
0
40
1.7000000000000171
210
0
220
0
230
-1
0
CIRCLE
5
375
100
AcDbEntity
8
INTERIOR_PROFILES
100
AcDbCircle
10
-95.999999999933266
20
323.26194671058329
30
0
40
1.699999999999946
210
0
220
0
230
-1
0
CIRCLE
5
376
100
AcDbEntity
8
INTERIOR_PROFILES
100
AcDbCircle
10
-95.999999999931902
20
419.2619467105834
30
0
40
1.7000000000000171
210
0
220
0
230
-1
0
CIRCLE
5
377
100
AcDbEntity
8
INTERIOR_PROFILES
100
AcDbCircle
10
-95.999999999934545
20
259.26194671058329
30
0
40
1.6999999999999815
210
0
220
0
230
-1
0
CIRCLE
5
378
100
AcDbEntity
8
INTERIOR_PROFILES
100
AcDbCircle
10
-663.99999999993429
20
291.26194671057334
30
0
40
1.6999999999999815
210
0
220
0
230
-1
0
CIRCLE
5
379
100
AcDbEntity
8
INTERIOR_PROFILES
100
AcDbCircle
10
-95.999999999935923
20
131.26194671058329
30
0
40
1.7000000000000171
210
0
220
0
230
-1
0
CIRCLE
5
380
100
AcDbEntity
8
INTERIOR_PROFILES
100
AcDbCircle
10
-663.99999999993611
20
67.261946710573355
30
0
40
1.7000000000000171
210
0
220
0
230
-1
0
CIRCLE
5
381
100
AcDbEntity
8
INTERIOR_PROFILES
100
AcDbCircle
10
-663.99999999993327
20
323.2619467105734
30
0
40
1.699999999999946
210
0
220
0
230
-1
0
CIRCLE
5
382
100
AcDbEntity
8
INTERIOR_PROFILES
100
AcDbCircle
10
-663.99999999993474
20
195.2619467105734
30
0
40
1.7000000000000171
210
0
220
0
230
-1
0
CIRCLE
5
383
100
AcDbEntity
8
INTERIOR_PROFILES
100
AcDbCircle
10
-769.26194670638108
20
45.261946710605727
30
0
40
1.7000000000000171
210
0
220
0
230
-1
0
CIRCLE
5
384
100
AcDbEntity
8
INTERIOR_PROFILES
100
AcDbCircle
10
-735.00000000000568
20
503.2619467106631
30
0
40
1.7000000000000171
210
0
220
0
230
-1
0
LWPOLYLINE
5
385
100
AcDbEntity
8
INTERIOR_PROFILES
100
AcDbPolyline
90
4
70
1
43
0.0
10
156.99999999784964
20
16.261946710554653
10
94.999999997849642
20
16.26194671055444
10
94.999999997849685
20
13.499999999973156
10
156.99999999784967
20
13.499999999974648
0
CIRCLE
5
386
100
AcDbEntity
8
INTERIOR_PROFILES
100
AcDbCircle
10
-769.26194670638097
20
29.261946710605784
30
0
40
3.2500000000000018
210
0
220
0
230
-1
0
CIRCLE
5
387
100
AcDbEntity
8
INTERIOR_PROFILES
100
AcDbCircle
10
-769.26194670638506
20
497.26194671060546
30
0
40
3.2500000000000284
210
0
220
0
230
-1
0
LWPOLYLINE
5
388
100
AcDbEntity
8
INTERIOR_PROFILES
100
AcDbPolyline
90
4
70
1
43
0.0
10
664.99999994793359
20
16.261946710556501
10
602.99999994795473
20
16.261946710556288
10
602.99999994795473
20
13.49999999998559
10
664.9999999479337
20
13.499999999987153
0
CIRCLE
5
389
100
AcDbEntity
8
INTERIOR_PROFILES
100
AcDbCircle
10
-769.2619467063746
20
165.26194671011871
30
0
40
1.7000000000000171
210
0
220
0
230
-1
0
CIRCLE
5
390
100
AcDbEntity
8
INTERIOR_PROFILES
100
AcDbCircle
10
-769.26194670638279
20
274.26194671060551
30
0
40
3.2499999999999929
210
0
220
0
230
-1
0
CIRCLE
5
391
100
AcDbEntity
8
INTERIOR_PROFILES
100
AcDbCircle
10
-769.26194670638461
20
449.26194671060546
30
0
40
1.7000000000000171
210
0
220
0
230
-1
0
CIRCLE
5
392
100
AcDbEntity
8
INTERIOR_PROFILES
100
AcDbCircle
10
-769.26194670567725
20
19.261946710207738
30
0
40
1.7000000000000215
210
0
220
0
230
-1
0
CIRCLE
5
393
100
AcDbEntity
8
INTERIOR_PROFILES
100
AcDbCircle
10
-25.00000000000059
20
503.2619467106606
30
0
40
1.7000000000000171
210
0
220
0
230
-1
0
CIRCLE
5
394
100
AcDbEntity
8
INTERIOR_PROFILES
100
AcDbCircle
10
-710.00000000001069
20
19.261946710602444
30
0
40
1.7000000000000171
210
0
220
0
230
-1
0
CIRCLE
5
395
100
AcDbEntity
8
INTERIOR_PROFILES
100
AcDbCircle
10
-769.26194670744621
20
481.26194671061177
30
0
40
6.4999999999999858
210
0
220
0
230
-1
0
CIRCLE
5
396
100
AcDbEntity
8
INTERIOR_PROFILES
100
AcDbCircle
10
-769.2619467074278
20
543.26194671074074
30
0
40
1.7000000000000171
210
0
220
0
230
-1
0
CIRCLE
5
397
100
AcDbEntity
8
INTERIOR_PROFILES
100
AcDbCircle
10
-769.26194670567975
20
296.26194671025155
30
0
40
6.4999999999999858
210
0
220
0
230
-1
0
CIRCLE
5
398
100
AcDbEntity
8
INTERIOR_PROFILES
100
AcDbCircle
10
-769.26194670567781
20
124.76194671020671
30
0
40
6.4999999999999858
210
0
220
0
230
-1
0
CIRCLE
5
399
100
AcDbEntity
8
INTERIOR_PROFILES
100
AcDbCircle
10
-769.26194670638461
20
465.26194671060551
30
0
40
3.2500000000000284
210
0
220
0
230
-1
0
CIRCLE
5
400
100
AcDbEntity
8
INTERIOR_PROFILES
100
AcDbCircle
10
-3.0000000000006337
20
503.26194671066054
30
0
40
1.7000000000000171
210
0
220
0
230
-1
0
CIRCLE
5
401
100
AcDbEntity
8
INTERIOR_PROFILES
100
AcDbCircle
10
-49.999999999963592
20
19.26194671058731
30
0
40
1.6999999999999993
210
0
220
0
230
-1
0
CIRCLE
5
402
100
AcDbEntity
8
INTERIOR_PROFILES
100
AcDbCircle
10
-769.26194670566076
20
343.26194671073154
30
0
40
1.7000000000000171
210
0
220
0
230
-1
0
CIRCLE
5
403
100
AcDbEntity
8
INTERIOR_PROFILES
100
AcDbCircle
10
-95.999999999936165
20
67.261946710583302
30
0
40
1.7000000000000171
210
0
220
0
230
-1
0
CIRCLE
5
404
100
AcDbEntity
8
INTERIOR_PROFILES
100
AcDbCircle
10
-95.999999999937302
20
35.261946710583345
30
0
40
1.7000000000000215
210
0
220
0
230
-1
0
CIRCLE
5
405
100
AcDbEntity
8
INTERIOR_PROFILES
100
AcDbCircle
10
-769.26194670638233
20
242.26194671060554
30
0
40
3.2499999999999929
210
0
220
0
230
-1
0
CIRCLE
5
406
100
AcDbEntity
8
INTERIOR_PROFILES
100
AcDbCircle
10
-769.2619467063812
20
61.26194671060567
30
0
40
3.2500000000000018
210
0
220
0
230
-1
0
CIRCLE
5
407
100
AcDbEntity
8
INTERIOR_PROFILES
100
AcDbCircle
10
-769.26194670741643
20
521.2619467107121
30
0
40
1.7000000000000171
210
0
220
0
230
-1
0
CIRCLE
5
408
100
AcDbEntity
8
INTERIOR_PROFILES
100
AcDbCircle
10
-757.00000000000671
20
503.2619467106631
30
0
40
1.7000000000000171
210
0
220
0
230
-1
0
CIRCLE
5
409
100
AcDbEntity
8
INTERIOR_PROFILES
100
AcDbCircle
10
-195.99999999993753
20
259.26194671058522
30
0
40
1.7000000000000171
210
0
220
0
230
-1
0
CIRCLE
5
410
100
AcDbEntity
8
INTERIOR_PROFILES
100
AcDbCircle
10
-449.99999999999972
20
543.26194671058579
30
0
40
1.7000000000000171
210
0
220
0
230
-1
0
CIRCLE
5
411
100
AcDbEntity
8
INTERIOR_PROFILES
100
AcDbCircle
10
-195.99999999993599
20
387.26194671058522
30
0
40
1.7000000000000171
210
0
220
0
230
-1
0
CIRCLE
5
412
100
AcDbEntity
8
INTERIOR_PROFILES
100
AcDbCircle
10
-563.9999999999402
20
67.261946710570513
30
0
40
1.7000000000000171
210
0
220
0
230
-1
0
CIRCLE
5
413
100
AcDbEntity
8
INTERIOR_PROFILES
100
AcDbCircle
10
-195.99999999993472
20
483.26194671058556
30
0
40
1.7000000000000171
210
0
220
0
230
-1
0
CIRCLE
5
414
100
AcDbEntity
8
INTERIOR_PROFILES
100
AcDbCircle
10
-563.99999999993577
20
483.2619467105709
30
0
40
1.7000000000000171
210
0
220
0
230
-1
0
CIRCLE
5
415
100
AcDbEntity
8
INTERIOR_PROFILES
100
AcDbCircle
10
-195.99999999993614
20
355.26194671058528
30
0
40
1.7000000000000171
210
0
220
0
230
-1
0
CIRCLE
5
416
100
AcDbEntity
8
INTERIOR_PROFILES
100
AcDbCircle
10
-563.99999999993895
20
131.2619467105705
30
0
40
1.7000000000000171
210
0
220
0
230
-1
0
CIRCLE
5
417
100
AcDbEntity
8
INTERIOR_PROFILES
100
AcDbCircle
10
-195.99999999993906
20
99.261946710585249
30
0
40
1.7000000000000171
210
0
220
0
230
-1
0
CIRCLE
5
418
100
AcDbEntity
8
INTERIOR_PROFILES
100
AcDbCircle
10
-256.66666666674416
20
525.26194671061444
30
0
40
6.4999999999999858
210
0
220
0
230
-1
0
CIRCLE
5
419
100
AcDbEntity
8
INTERIOR_PROFILES
100
AcDbCircle
10
-503.33333333341091
20
525.26194671062603
30
0
40
6.4999999999999858
210
0
220
0
230
-1
0
CIRCLE
5
420
100
AcDbEntity
8
INTERIOR_PROFILES
100
AcDbCircle
10
-563.99999999993713
20
355.26194671057044
30
0
40
1.7000000000000171
210
0
220
0
230
-1
0
CIRCLE
5
421
100
AcDbEntity
8
INTERIOR_PROFILES
100
AcDbCircle
10
-563.99999999994043
20
35.261946710570484
30
0
40
1.7000000000000171
210
0
220
0
230
-1
0
CIRCLE
5
422
100
AcDbEntity
8
INTERIOR_PROFILES
100
AcDbCircle
10
-563.99999999993884
20
163.26194671057053
30
0
40
1.7000000000000171
210
0
220
0
230
-1
0
CIRCLE
5
423
100
AcDbEntity
8
INTERIOR_PROFILES
100
AcDbCircle
10
-563.99999999993759
20
259.26194671057044
30
0
40
1.7000000000000171
210
0
220
0
230
-1
0
CIRCLE
5
424
100
AcDbEntity
8
INTERIOR_PROFILES
100
AcDbCircle
10
-563.99999999993861
20
227.26194671057044
30
0
40
1.7000000000000171
210
0
220
0
230
-1
0
CIRCLE
5
425
100
AcDbEntity
8
INTERIOR_PROFILES
100
AcDbCircle
10
-195.99999999993895
20
131.26194671058522
30
0
40
1.7000000000000171
210
0
220
0
230
-1
0
CIRCLE
5
426
100
AcDbEntity
8
INTERIOR_PROFILES
100
AcDbCircle
10
-195.99999999993884
20
163.26194671058522
30
0
40
1.7000000000000171
210
0
220
0
230
-1
0
CIRCLE
5
427
100
AcDbEntity
8
INTERIOR_PROFILES
100
AcDbCircle
10
-517.49999999999977
20
543.26194671058863
30
0
40
1.7000000000000171
210
0
220
0
230
-1
0
CIRCLE
5
428
100
AcDbEntity
8
INTERIOR_PROFILES
100
AcDbCircle
10
-563.99999999993588
20
451.26194671057084
30
0
40
1.7000000000000171
210
0
220
0
230
-1
0
CIRCLE
5
429
100
AcDbEntity
8
INTERIOR_PROFILES
100
AcDbCircle
10
-563.99999999993599
20
419.26194671057044
30
0
40
1.7000000000000171
210
0
220
0
230
-1
0
CIRCLE
5
430
100
AcDbEntity
8
INTERIOR_PROFILES
100
AcDbCircle
10
-563.99999999993611
20
387.26194671057044
30
0
40
1.7000000000000171
210
0
220
0
230
-1
0
CIRCLE
5
431
100
AcDbEntity
8
INTERIOR_PROFILES
100
AcDbCircle
10
-242.5000000001275
20
543.26194671064252
30
0
40
1.7000000000000171
210
0
220
0
230
-1
0
CIRCLE
5
432
100
AcDbEntity
8
INTERIOR_PROFILES
100
AcDbCircle
10
-195.99999999993742
20
291.26194671058522
30
0
40
1.7000000000000171
210
0
220
0
230
-1
0
CIRCLE
5
433
100
AcDbEntity
8
INTERIOR_PROFILES
100
AcDbCircle
10
-195.99999999993767
20
227.26194671058528
30
0
40
1.7000000000000171
210
0
220
0
230
-1
0
CIRCLE
5
434
100
AcDbEntity
8
INTERIOR_PROFILES
100
AcDbCircle
10
-195.99999999993727
20
323.26194671058522
30
0
40
1.7000000000000171
210
0
220
0
230
-1
0
CIRCLE
5
435
100
AcDbEntity
8
INTERIOR_PROFILES
100
AcDbCircle
10
-563.99999999993736
20
323.26194671057038
30
0
40
1.7000000000000171
210
0
220
0
230
-1
0
CIRCLE
5
436
100
AcDbEntity
8
INTERIOR_PROFILES
100
AcDbCircle
10
-195.99999999993594
20
419.26194671058522
30
0
40
1.7000000000000171
210
0
220
0
230
-1
0
CIRCLE
5
437
100
AcDbEntity
8
INTERIOR_PROFILES
100
AcDbCircle
10
-563.99999999993884
20
195.2619467105705
30
0
40
1.7000000000000171
210
0
220
0
230
-1
0
CIRCLE
5
438
100
AcDbEntity
8
INTERIOR_PROFILES
100
AcDbCircle
10
-195.99999999994029
20
35.261946710585264
30
0
40
1.7000000000000171
210
0
220
0
230
-1
0
CIRCLE
5
439
100
AcDbEntity
8
INTERIOR_PROFILES
100
AcDbCircle
10
-195.99999999993878
20
195.26194671058528
30
0
40
1.7000000000000171
210
0
220
0
230
-1
0
CIRCLE
5
440
100
AcDbEntity
8
INTERIOR_PROFILES
100
AcDbCircle
10
-195.9999999999402
20
67.261946710585221
30
0
40
1.7000000000000171
210
0
220
0
230
-1
0
CIRCLE
5
441
100
AcDbEntity
8
INTERIOR_PROFILES
100
AcDbCircle
10
-195.99999999993582
20
451.26194671058556
30
0
40
1.7000000000000171
210
0
220
0
230
-1
0
CIRCLE
5
442
100
AcDbEntity
8
INTERIOR_PROFILES
100
AcDbCircle
10
-195.99999999993457
20
515.26194671058659
30
0
40
1.7000000000000171
210
0
220
0
230
-1
0
CIRCLE
5
443
100
AcDbEntity
8
INTERIOR_PROFILES
100
AcDbCircle
10
-563.99999999994009
20
99.26194671057047
30
0
40
1.7000000000000171
210
0
220
0
230
-1
0
CIRCLE
5
444
100
AcDbEntity
8
INTERIOR_PROFILES
100
AcDbCircle
10
-563.99999999993463
20
515.26194671056999
30
0
40
1.7000000000000171
210
0
220
0
230
-1
0
CIRCLE
5
445
100
AcDbEntity
8
INTERIOR_PROFILES
100
AcDbCircle
10
-563.99999999993747
20
291.26194671057044
30
0
40
1.7000000000000171
210
0
220
0
230
-1
0
CIRCLE
5
446
100
AcDbEntity
8
INTERIOR_PROFILES
100
AcDbCircle
10
-179.99999999990837
20
570.78584014311582
30
0
40
1.7000000000000171
210
0
220
0
230
-1
0
CIRCLE
5
447
100
AcDbEntity
8
INTERIOR_PROFILES
100
AcDbCircle
10
-79.999999999908354
20
570.78584014310661
30
0
40
1.7000000000000171
210
0
220
0
230
-1
0
CIRCLE
5
448
100
AcDbEntity
8
INTERIOR_PROFILES
100
AcDbCircle
10
-272.49999999990837
20
570.78584014312446
30
0
40
1.7000000000000171
210
0
220
0
230
-1
0
CIRCLE
5
449
100
AcDbEntity
8
INTERIOR_PROFILES
100
AcDbCircle
10
-679.99999999990837
20
570.78584014316198
30
0
40
1.7000000000000171
210
0
220
0
230
-1
0
CIRCLE
5
450
100
AcDbEntity
8
INTERIOR_PROFILES
100
AcDbCircle
10
-379.99999999990848
20
570.78584014313424
30
0
40
1.7000000000000171
210
0
220
0
230
-1
0
CIRCLE
5
451
100
AcDbEntity
8
INTERIOR_PROFILES
100
AcDbCircle
10
-579.99999999990848
20
570.78584014315265
30
0
40
1.7000000000000171
210
0
220
0
230
-1
0
CIRCLE
5
452
100
AcDbEntity
8
INTERIOR_PROFILES
100
AcDbCircle
10
-679.99999999993565
20
6.9999999962914927
30
0
40
1.7000000000000171
210
0
220
0
230
-1
0
CIRCLE
5
453
100
AcDbEntity
8
INTERIOR_PROFILES
100
AcDbCircle
10
-79.999999999935611
20
6.9999999962767845
30
0
40
1.6999999999999993
210
0
220
0
230
-1
0
CIRCLE
5
454
100
AcDbEntity
8
INTERIOR_PROFILES
100
AcDbCircle
10
-379.99999999993565
20
6.9999999962841031
30
0
40
1.7000000000000171
210
0
220
0
230
-1
0
CIRCLE
5
455
100
AcDbEntity
8
INTERIOR_PROFILES
100
AcDbCircle
10
-487.49999999990848
20
570.78584014314413
30
0
40
1.7000000000000171
210
0
220
0
230
-1
0
CIRCLE
5
456
100
AcDbEntity
8
INTERIOR_PROFILES
100
AcDbCircle
10
-753.00000000001023
20
6.9999999999998863
30
0
40
1.7000000000000171
210
0
220
0
230
-1
0
CIRCLE
5
457
100
AcDbEntity
8
INTERIOR_PROFILES
100
AcDbCircle
10
-6.9999999999992211
20
6.9999999999999574
30
0
40
1.7000000000000004
210
0
220
0
230
-1
0
CIRCLE
5
458
100
AcDbEntity
8
INTERIOR_PROFILES
100
AcDbCircle
10
9.2619466757576934
20
449.26194671060301
30
0
40
1.7000000000000004
210
0
220
0
230
-1
0
CIRCLE
5
459
100
AcDbEntity
8
INTERIOR_PROFILES
100
AcDbCircle
10
9.2619466765974128
20
497.26194671060313
30
0
40
3.2500000000000284
210
0
220
0
230
-1
0
CIRCLE
5
460
100
AcDbEntity
8
INTERIOR_PROFILES
100
AcDbCircle
10
9.2619466766036513
20
29.261946710603226
30
0
40
3.2500000000000018
210
0
220
0
230
-1
0
CIRCLE
5
461
100
AcDbEntity
8
INTERIOR_PROFILES
100
AcDbCircle
10
9.2619466766005072
20
242.26194671060313
30
0
40
3.2499999999999929
210
0
220
0
230
-1
0
CIRCLE
5
462
100
AcDbEntity
8
INTERIOR_PROFILES
100
AcDbCircle
10
9.2619466766033174
20
61.261946710603112
30
0
40
3.2500000000000018
210
0
220
0
230
-1
0
CIRCLE
5
463
100
AcDbEntity
8
INTERIOR_PROFILES
100
AcDbCircle
10
9.2619466765942011
20
165.26194671011615
30
0
40
1.7000000000000171
210
0
220
0
230
-1
0
CIRCLE
5
464
100
AcDbEntity
8
INTERIOR_PROFILES
100
AcDbCircle
10
9.2619466765998819
20
274.26194671060313
30
0
40
3.2499999999999929
210
0
220
0
230
-1
0
CIRCLE
5
465
100
AcDbEntity
8
INTERIOR_PROFILES
100
AcDbCircle
10
9.26194667659062
20
481.26194671060307
30
0
40
6.4999999999999858
210
0
220
0
230
-1
0
CIRCLE
5
466
100
AcDbEntity
8
INTERIOR_PROFILES
100
AcDbCircle
10
9.2619466765981091
20
465.26194671060301
30
0
40
3.2500000000000284
210
0
220
0
230
-1
0
CIRCLE
5
467
100
AcDbEntity
8
INTERIOR_PROFILES
100
AcDbCircle
10
9.2619466757626352
20
45.261946710603169
30
0
40
1.7000000000000004
210
0
220
0
230
-1
0
CIRCLE
5
468
100
AcDbEntity
8
INTERIOR_PROFILES
100
AcDbCircle
10
-363.99999999994043
20
323.26194671058215
30
0
40
1.7000000000000171
210
0
220
0
230
-1
0
CIRCLE
5
469
100
AcDbEntity
8
INTERIOR_PROFILES
100
AcDbCircle
10
-363.99999999994492
20
227.26194671058224
30
0
40
1.7000000000000171
210
0
220
0
230
-1
0
CIRCLE
5
470
100
AcDbEntity
8
INTERIOR_PROFILES
100
AcDbCircle
10
-363.99999999995094
20
99.261946710582194
30
0
40
1.6999999999999993
210
0
220
0
230
-1
0
CIRCLE
5
471
100
AcDbEntity
8
INTERIOR_PROFILES
100
AcDbCircle
10
9.2619466765712826
20
543.26194671073199
30
0
40
1.7000000000000171
210
0
220
0
230
-1
0
CIRCLE
5
472
100
AcDbEntity
8
INTERIOR_PROFILES
100
AcDbCircle
10
9.2619466543568922
20
296.26194671024911
30
0
40
6.4999999999999858
210
0
220
0
230
-1
0
CIRCLE
5
473
100
AcDbEntity
8
INTERIOR_PROFILES
100
AcDbCircle
10
9.2619466543605782
20
19.261946710204185
30
0
40
1.7000000000000193
210
0
220
0
230
-1
0
CIRCLE
5
474
100
AcDbEntity
8
INTERIOR_PROFILES
100
AcDbCircle
10
9.2619466543371516
20
343.26194671072915
30
0
40
1.7000000000000171
210
0
220
0
230
-1
0
CIRCLE
5
475
100
AcDbEntity
8
INTERIOR_PROFILES
100
AcDbCircle
10
9.261946676560072
20
521.26194671070323
30
0
40
1.7000000000000171
210
0
220
0
230
-1
0
CIRCLE
5
476
100
AcDbEntity
8
INTERIOR_PROFILES
100
AcDbCircle
10
9.2619466543589049
20
124.76194671020416
30
0
40
6.4999999999999858
210
0
220
0
230
-1
0
CIRCLE
5
477
100
AcDbEntity
8
INTERIOR_PROFILES
100
AcDbCircle
10
-363.9999999999344
20
451.26194671058221
30
0
40
1.7000000000000171
210
0
220
0
230
-1
0
CIRCLE
5
478
100
AcDbEntity
8
INTERIOR_PROFILES
100
AcDbCircle
10
-395.99999999994645
20
195.2619467105815
30
0
40
1.7000000000000171
210
0
220
0
230
-1
0
CIRCLE
5
479
100
AcDbEntity
8
INTERIOR_PROFILES
100
AcDbCircle
10
-395.99999999993594
20
419.26194671058158
30
0
40
1.7000000000000171
210
0
220
0
230
-1
0
CIRCLE
5
480
100
AcDbEntity
8
INTERIOR_PROFILES
100
AcDbCircle
10
-395.99999999994344
20
259.26194671058147
30
0
40
1.7000000000000171
210
0
220
0
230
-1
0
CIRCLE
5
481
100
AcDbEntity
8
INTERIOR_PROFILES
100
AcDbCircle
10
-395.99999999994048
20
323.26194671058147
30
0
40
1.7000000000000171
210
0
220
0
230
-1
0
CIRCLE
5
482
100
AcDbEntity
8
INTERIOR_PROFILES
100
AcDbCircle
10
-395.99999999993292
20
483.26194671058153
30
0
40
1.7000000000000171
210
0
220
0
230
-1
0
CIRCLE
5
483
100
AcDbEntity
8
INTERIOR_PROFILES
100
AcDbCircle
10
-363.99999999995401
20
35.261946710582208
30
0
40
1.6999999999999993
210
0
220
0
230
-1
0
CIRCLE
5
484
100
AcDbEntity
8
INTERIOR_PROFILES
100
AcDbCircle
10
-395.99999999995248
20
67.261946710581455
30
0
40
1.6999999999999993
210
0
220
0
230
-1
0
CIRCLE
5
485
100
AcDbEntity
8
INTERIOR_PROFILES
100
AcDbCircle
10
-395.999999999951
20
99.261946710581483
30
0
40
1.6999999999999993
210
0
220
0
230
-1
0
CIRCLE
5
486
100
AcDbEntity
8
INTERIOR_PROFILES
100
AcDbCircle
10
-363.9999999999435
20
259.26194671058221
30
0
40
1.7000000000000171
210
0
220
0
230
-1
0
CIRCLE
5
487
100
AcDbEntity
8
INTERIOR_PROFILES
100
AcDbCircle
10
-363.99999999994645
20
195.26194671058221
30
0
40
1.7000000000000171
210
0
220
0
230
-1
0
CIRCLE
5
488
100
AcDbEntity
8
INTERIOR_PROFILES
100
AcDbCircle
10
-363.99999999995248
20
67.261946710582166
30
0
40
1.6999999999999993
210
0
220
0
230
-1
0
CIRCLE
5
489
100
AcDbEntity
8
INTERIOR_PROFILES
100
AcDbCircle
10
-395.99999999993889
20
355.26194671058147
30
0
40
1.7000000000000171
210
0
220
0
230
-1
0
CIRCLE
5
490
100
AcDbEntity
8
INTERIOR_PROFILES
100
AcDbCircle
10
-395.99999999994498
20
227.26194671058153
30
0
40
1.7000000000000171
210
0
220
0
230
-1
0
CIRCLE
5
491
100
AcDbEntity
8
INTERIOR_PROFILES
100
AcDbCircle
10
-79.999999999999531
20
543.26194671058101
30
0
40
1.7000000000000171
210
0
220
0
230
-1
0
CIRCLE
5
492
100
AcDbEntity
8
INTERIOR_PROFILES
100
AcDbCircle
10
-395.99999999994799
20
163.26194671058147
30
0
40
1.7000000000000171
210
0
220
0
230
-1
0
CIRCLE
5
493
100
AcDbEntity
8
INTERIOR_PROFILES
100
AcDbCircle
10
-379.99999999998687
20
19.261946710584397
30
0
40
1.7000000000000171
210
0
220
0
230
-1
0
CIRCLE
5
494
100
AcDbEntity
8
INTERIOR_PROFILES
100
AcDbCircle
10
-363.99999999994947
20
131.26194671058215
30
0
40
1.6999999999999993
210
0
220
0
230
-1
0
CIRCLE
5
495
100
AcDbEntity
8
INTERIOR_PROFILES
100
AcDbCircle
10
-363.99999999993599
20
419.26194671058221
30
0
40
1.7000000000000171
210
0
220
0
230
-1
0
CIRCLE
5
496
100
AcDbEntity
8
INTERIOR_PROFILES
100
AcDbCircle
10
-395.99999999995396
20
35.261946710581498
30
0
40
1.6999999999999993
210
0
220
0
230
-1
0
CIRCLE
5
497
100
AcDbEntity
8
INTERIOR_PROFILES
100
AcDbCircle
10
-395.99999999994941
20
131.26194671058144
30
0
40
1.6999999999999993
210
0
220
0
230
-1
0
CIRCLE
5
498
100
AcDbEntity
8
INTERIOR_PROFILES
100
AcDbCircle
10
-363.99999999994191
20
291.26194671058221
30
0
40
1.7000000000000171
210
0
220
0
230
-1
0
CIRCLE
5
499
100
AcDbEntity
8
INTERIOR_PROFILES
100
AcDbCircle
10
-395.9999999999344
20
451.26194671058153
30
0
40
1.7000000000000171
210
0
220
0
230
-1
0
CIRCLE
5
500
100
AcDbEntity
8
INTERIOR_PROFILES
100
AcDbCircle
10
-379.99999999999989
20
543.26194671058465
30
0
40
1.7000000000000171
210
0
220
0
230
-1
0
CIRCLE
5
501
100
AcDbEntity
8
INTERIOR_PROFILES
100
AcDbCircle
10
-679.99999999999943
20
543.26194671058806
30
0
40
1.7000000000000171
210
0
220
0
230
-1
0
CIRCLE
5
502
100
AcDbEntity
8
INTERIOR_PROFILES
100
AcDbCircle
10
-395.99999999993747
20
387.26194671058153
30
0
40
1.7000000000000171
210
0
220
0
230
-1
0
CIRCLE
5
503
100
AcDbEntity
8
INTERIOR_PROFILES
100
AcDbCircle
10
-363.99999999993292
20
483.26194671058215
30
0
40
1.7000000000000171
210
0
220
0
230
-1
0
CIRCLE
5
504
100
AcDbEntity
8
INTERIOR_PROFILES
100
AcDbCircle
10
-363.99999999993895
20
355.26194671058221
30
0
40
1.7000000000000171
210
0
220
0
230
-1
0
CIRCLE
5
505
100
AcDbEntity
8
INTERIOR_PROFILES
100
AcDbCircle
10
-106.00000000012102
20
19.261946710568623
30
0
40
1.6999999999999993
210
0
220
0
230
-1
0
CIRCLE
5
506
100
AcDbEntity
8
INTERIOR_PROFILES
100
AcDbCircle
10
-395.99999999994196
20
291.26194671058147
30
0
40
1.7000000000000171
210
0
220
0
230
-1
0
CIRCLE
5
507
100
AcDbEntity
8
INTERIOR_PROFILES
100
AcDbCircle
10
-79.999999999986585
20
19.26194671058127
30
0
40
1.7000000000000171
210
0
220
0
230
-1
0
CIRCLE
5
508
100
AcDbEntity
8
INTERIOR_PROFILES
100
AcDbCircle
10
-363.99999999993747
20
387.26194671058227
30
0
40
1.7000000000000171
210
0
220
0
230
-1
0
CIRCLE
5
509
100
AcDbEntity
8
INTERIOR_PROFILES
100
AcDbCircle
10
-363.99999999994799
20
163.26194671058218
30
0
40
1.7000000000000171
210
0
220
0
230
-1
0
CIRCLE
5
510
100
AcDbEntity
8
INTERIOR_PROFILES
100
AcDbCircle
10
-653.99999999993724
20
19.261946710594273
30
0
40
1.6999999999999993
210
0
220
0
230
-1
0
CIRCLE
5
511
100
AcDbEntity
8
INTERIOR_PROFILES
100
AcDbCircle
10
-146.00000000012102
20
19.26194671053409
30
0
40
1.6999999999999993
210
0
220
0
230
-1
0
CIRCLE
5
512
100
AcDbEntity
8
INTERIOR_PROFILES
100
AcDbCircle
10
-613.99999999993736
20
19.261946710556046
30
0
40
1.6999999999999993
210
0
220
0
230
-1
0
CIRCLE
5
513
100
AcDbEntity
8
INTERIOR_PROFILES
100
AcDbCircle
10
-751.99999999987949
20
543.26194671066321
30
0
40
1.7000000000000171
210
0
220
0
230
-1
0
CIRCLE
5
514
100
AcDbEntity
8
INTERIOR_PROFILES
100
AcDbCircle
10
-349.99999999987921
20
543.26194671064161
30
0
40
1.7000000000000171
210
0
220
0
230
-1
0
CIRCLE
5
515
100
AcDbEntity
8
INTERIOR_PROFILES
100
AcDbCircle
10
-31.999999999931603
20
483.26194671058499
30
0
40
1.6999999999999904
210
0
220
0
230
-1
0
CIRCLE
5
516
100
AcDbEntity
8
INTERIOR_PROFILES
100
AcDbCircle
10
-679.99999999998647
20
19.261946710588518
30
0
40
1.7000000000000171
210
0
220
0
230
-1
0
CIRCLE
5
517
100
AcDbEntity
8
INTERIOR_PROFILES
100
AcDbCircle
10
-410.00000000000318
20
543.26194671068481
30
0
40
1.7000000000000171
210
0
220
0
230
-1
0
CIRCLE
5
518
100
AcDbEntity
8
INTERIOR_PROFILES
100
AcDbCircle
10
-10.000000000077517
20
525.26194671060284
30
0
40
6.5
210
0
220
0
230
-1
0
CIRCLE
5
519
100
AcDbEntity
8
INTERIOR_PROFILES
100
AcDbCircle
10
-8.0000000000744294
20
543.26194671058863
30
0
40
1.7000000000000004
210
0
220
0
230
-1
0
CIRCLE
5
520
100
AcDbEntity
8
INTERIOR_PROFILES
100
AcDbCircle
10
-749.99999999988347
20
525.26194671061171
30
0
40
6.5000000000000568
210
0
220
0
230
-1
0
CIRCLE
5
521
100
AcDbEntity
8
INTERIOR_PROFILES
100
AcDbCircle
10
-31.999999999934644
20
227.26194671058516
30
0
40
1.6999999999999904
210
0
220
0
230
-1
0
CIRCLE
5
522
100
AcDbEntity
8
INTERIOR_PROFILES
100
AcDbCircle
10
-31.999999999932847
20
419.26194671058516
30
0
40
1.6999999999999904
210
0
220
0
230
-1
0
CIRCLE
5
523
100
AcDbEntity
8
INTERIOR_PROFILES
100
AcDbCircle
10
-31.999999999935813
20
163.26194671058522
30
0
40
1.6999999999999904
210
0
220
0
230
-1
0
CIRCLE
5
524
100
AcDbEntity
8
INTERIOR_PROFILES
100
AcDbCircle
10
-31.999999999934403
20
291.26194671058505
30
0
40
1.6999999999999904
210
0
220
0
230
-1
0
CIRCLE
5
525
100
AcDbEntity
8
INTERIOR_PROFILES
100
AcDbCircle
10
-31.999999999935866
20
131.26194671058522
30
0
40
1.6999999999999904
210
0
220
0
230
-1
0
CIRCLE
5
526
100
AcDbEntity
8
INTERIOR_PROFILES
100
AcDbCircle
10
-31.999999999934698
20
195.26194671058528
30
0
40
1.6999999999999904
210
0
220
0
230
-1
0
LINE
5
527
100
AcDbEntity
8
BEND
100
AcDbLine
10
-1.1309733103319506
20
16.261946710758721
30
-1.9100596759525488e-10
11
-1.1309733099648913
21
550.22658797565907
31
-1.8090720768144596e-10
0
LINE
5
528
100
AcDbEntity
8
BEND
100
AcDbLine
10
761.13097335632062
20
552.5592493838916
30
2.9467503208424687e-09
11
761.13097335631994
21
566.48853807987052
31
3.0825823279464077e-09
0
LINE
5
529
100
AcDbEntity
8
BEND
100
AcDbLine
10
-1.4252566709200999e-12
20
15.130973355263322
30
-1.7123993823759489e-10
11
760.00000000000966
21
15.130973355282009
31
-1.7131945583852554e-10
0
LINE
5
530
100
AcDbEntity
8
BEND
100
AcDbLine
10
-1.1309733285795205
20
566.48853808173988
30
-2.033192149673975e-08
11
-1.1309733285788479
21
552.55924875906203
31
-2.0282471269697352e-08
0
LINE
5
531
100
AcDbEntity
8
BEND
100
AcDbLine
10
-17.392920032952958
20
545.16194671089704
30
1.6903796789698576e-08
11
-17.392920033016082
21
16.261946710776272
31
-2.5175494401191962e-10
0
LINE
5
532
100
AcDbEntity
8
BEND
100
AcDbLine
10
761.13097335823966
20
568.82119548227831
30
6.299373068275633e-09
11
761.13097335823932
21
573.78584014316414
31
5.9426870984490365e-09
0
LINE
5
533
100
AcDbEntity
8
BEND
100
AcDbLine
10
-1.8750439257802381e-10
20
567.65486678038565
30
9.5223143602842085e-09
11
760.00000000000557
21
567.65486678042146
31
2.0849193517755226e-10
0
LINE
5
534
100
AcDbEntity
8
BEND
100
AcDbLine
10
777.39292006495566
20
16.261946710777764
30
2.2985448973905125e-09
11
777.39292006490405
21
545.16194671090409
31
-4.6200293317889064e-10
0
LINE
5
535
100
AcDbEntity
8
BEND
100
AcDbLine
10
760.00000000000659
20
551.39292006895118
30
-1.8338081053696128e-10
11
-1.8658852241060231e-10
21
551.39292006891549
31
-1.8313552985638613e-10
0
LINE
5
536
100
AcDbEntity
8
BEND
100
AcDbLine
10
761.13097335111263
20
16.26194671077684
30
-1.803381711428732e-10
11
761.13097335074576
21
550.22658800051727
31
-1.8590026174389613e-10
0
LINE
5
537
100
AcDbEntity
8
BEND
100
AcDbLine
10
-1.1309733468104415
20
573.78584014312128
30
-1.0791992074809223e-08
11
-1.1309733468100316
21
568.82119548228582
31
-9.1367559622968655e-09
0
LINE
5
538
100
AcDbEntity
8
BEND_EXTENT
100
AcDbLine
10
8.2064035671511464e-13
20
16.261946710698041
30
2.6148554252298069e-08
11
-5.2801830961392912e-13
21
550.26194670535449
31
-1.8332002582610585e-10
0
LINE
5
539
100
AcDbEntity
8
BEND_EXTENT
100
AcDbLine
10
-5.2801830961392912e-13
20
550.26194670535449
30
-1.8332002582610585e-10
11
760.00000000000659
21
550.26194671059147
31
-1.8339108009989369e-10
0
LINE
5
540
100
AcDbEntity
8
BEND_EXTENT
100
AcDbLine
10
760.00000000000659
20
550.26194671059147
30
-1.8339108009989369e-10
11
760.00000000000659
21
16.261946710560835
31
2.6898684716676759e-09
0
LINE
5
541
100
AcDbEntity
8
BEND_EXTENT
100
AcDbLine
10
664.99999994793359
20
16.261946710556501
30
4.4487419257858428e-10
11
760.00000000000659
21
16.261946710560835
31
2.6898684716676759e-09
0
LINE
5
542
100
AcDbEntity
8
BEND_EXTENT
100
AcDbLine
10
8.2064035671511464e-13
20
16.261946710698041
30
2.6148554252298069e-08
11
94.999999997849642
21
16.26194671055444
31
1.4268822716246798e-10
0
LINE
5
543
100
AcDbEntity
8
BEND_EXTENT
100
AcDbLine
10
-2.2619466757631868
20
550.1912360355941
30
2.6758258043191011e-08
11
-2.2619466785027571
21
16.261946710761919
31
3.9337990854182125e-08
0
LINE
5
544
100
AcDbEntity
8
BEND_EXTENT
100
AcDbLine
10
156.99999999784964
20
16.261946710554653
30
1.4314053525636283e-10
11
602.99999994795473
21
16.261946710556288
31
3.8626951152906827e-10
0
LWPOLYLINE
5
545
100
AcDbEntity
8
BEND_EXTENT
100
AcDbPolyline
90
4
70
1
43
0.0
10
759.99999999984584
20
552.52389343612333
10
-1.7138290786533616e-10
20
552.52389341798926
10
-1.7886208070194698e-08
20
566.52389341658863
10
760.00000000000557
20
566.52389341923299
0
LINE
5
546
100
AcDbEntity
8
BEND_EXTENT
100
AcDbLine
10
762.26194670742552
20
16.261946710730513
30
2.5602273740156066e-09
11
762.26194670649147
21
550.19123603350965
31
2.2131983018703741e-09
0
LINE
5
547
100
AcDbEntity
8
BEND_EXTENT
100
AcDbLine
10
-2.2619466926754455
20
568.85655081955952
30
-1.8120258732604343e-09
11
-2.261946693432515
21
573.78584014317721
31
-3.856683649683698e-09
0
LINE
5
548
100
AcDbEntity
8
BEND_EXTENT
100
AcDbLine
10
762.26194672047552
20
573.78584014316721
30
2.3553068490223925e-09
11
762.26194672198335
21
568.85655082222115
31
2.0445865106745007e-09
0
LINE
5
549
100
AcDbEntity
8
BEND_EXTENT
100
AcDbLine
10
-1.8796098517095839e-10
20
573.78584014313458
30
-4.1148284779524147e-09
11
-1.8805507175158734e-10
21
568.78584014159287
31
1.0802692074207698e-10
0
LINE
5
550
100
AcDbEntity
8
BEND_EXTENT
100
AcDbLine
10
-1.8805507175158734e-10
20
568.78584014159287
30
1.0802692074207698e-10
11
760.00000000004422
21
568.78584014386399
31
1.6958634496686656e-09
0
LINE
5
551
100
AcDbEntity
8
BEND_EXTENT
100
AcDbLine
10
760.00000000004422
20
568.78584014386399
30
1.6958634496686656e-09
11
760.00000000000398
21
573.78584014315049
31
2.3546808947114797e-09
0
LINE
5
552
100
AcDbEntity
8
BEND_EXTENT
100
AcDbLine
10
-18.52389338836257
20
16.261946710757798
30
1.6862664109392541e-08
11
-18.523893388299207
21
545.16194671089602
31
1.6596945551124805e-08
0
LINE
5
553
100
AcDbEntity
8
BEND_EXTENT
100
AcDbLine
10
-2.2619466476894186
20
552.59460407421204
30
-6.8724401830702962e-09
11
-2.2619466783989988
21
566.45318274034162
31
-6.908393645499754e-09
0
LINE
5
554
100
AcDbEntity
8
BEND_EXTENT
100
AcDbLine
10
762.26194671301596
20
566.45318274158319
30
1.6733989855134252e-09
11
762.26194671614041
21
552.5946041111431
31
1.4340881921094232e-09
0
LINE
5
555
100
AcDbEntity
8
BEND_EXTENT
100
AcDbLine
10
94.99999999784967
20
13.999999999973127
30
-1.6506795930129454e-10
11
-1.5454304502782179e-12
21
13.999999999970782
31
-1.5809575870662229e-10
0
LINE
5
556
100
AcDbEntity
8
BEND_EXTENT
100
AcDbLine
10
760.0000000000324
20
13.999999999989541
30
-1.5816681298041006e-10
11
664.9999999479337
21
13.999999999987196
31
-1.5318413204586103e-10
0
LINE
5
557
100
AcDbEntity
8
BEND_EXTENT
100
AcDbLine
10
602.99999994795473
20
13.999999999985633
30
-1.5445731243736756e-10
11
156.99999999784964
21
13.99999999997469
31
-1.63794778909788e-10
0
LINE
5
558
100
AcDbEntity
8
BEND_EXTENT
100
AcDbLine
10
-16.261946677722616
20
545.1619467108959
30
4.5306351663966153e-09
11
-16.261946677785822
21
16.261946710757869
31
-1.5491948064082579e-09
0
LINE
5
559
100
AcDbEntity
8
BEND_EXTENT
100
AcDbLine
10
776.26194670749771
20
16.261946710776627
30
-8.3774508915819248e-11
11
776.2619467074461
21
545.16194671090398
31
4.8771501345602931e-10
0
LINE
5
560
100
AcDbEntity
8
BEND_EXTENT
100
AcDbLine
10
778.52389342236222
20
545.16194671090409
30
3.0864693033926264e-10
11
778.52389342241327
21
16.261946710776698
31
-4.5237986679659267e-10
0
ENDSEC
0
SECTION
2
OBJECTS
0
DICTIONARY
5
C
100
AcDbDictionary
3
ACAD_GROUP
350
D
3
ACAD_MLINESTYLE
350
17
0
DICTIONARY
5
D
100
AcDbDictionary
0
DICTIONARY
5
1A
330
C
100
AcDbDictionary
0
DICTIONARY
5
17
100
AcDbDictionary
0
ENDSEC
0
EOF
