0
SECTION
2
HEADER
9
$INSUNITS
70
4
9
$ACADVER
1
AC1014
9
$HANDSEED
5
FFFF
0
ENDSEC
0
SECTION
2
TABLES
0
TABLE
2
VPORT
5
8
100
AcDbSymbolTable
0
ENDTAB
0
TABLE
2
LTYPE
5
5
100
AcDbSymbolTable
0
LTYPE
5
14
100
AcDbSymbolTableRecord
100
AcDbLinetypeTableRecord
2
BYBLOCK
70
0
0
LTYPE
5
15
100
AcDbSymbolTableRecord
100
AcDbLinetypeTableRecord
2
BYLAYER
70
0
0
LTYPE
5
16
100
AcDbSymbolTableRecord
100
AcDbLinetypeTableRecord
2
DASHED
70
0
3
Dashed __ __ __ __ __ __ __ __ __ __ __ __ __ _
72
65
73
2
40
0.75
49
0.5
74
0
49
-0.25
74
0
0
ENDTAB
0
TABLE
2
LAYER
5
2
100
AcDbSymbolTable
70
2
0
LAYER
5
50
100
AcDbSymbolTableRecord
100
AcDbLayerTableRecord
2
0
70
0
62
7
6
CONTINUOUS
0
ENDTAB
0
TABLE
2
STYLE
5
3
100
AcDbSymbolTable
70
1
0
STYLE
5
11
100
AcDbSymbolTableRecord
100
AcDbTextStyleTableRecord
2
STANDARD
70
0
0
ENDTAB
0
TABLE
2
VIEW
5
6
100
AcDbSymbolTable
70
0
0
ENDTAB
0
TABLE
2
UCS
5
7
100
AcDbSymbolTable
70
0
0
ENDTAB
0
TABLE
2
APPID
5
9
100
AcDbSymbolTable
70
2
0
APPID
5
12
100
AcDbSymbolTableRecord
100
AcDbRegAppTableRecord
2
ACAD
70
0
0
ENDTAB
0
TABLE
2
DIMSTYLE
5
A
100
AcDbSymbolTable
70
1
0
ENDTAB
0
TABLE
2
BLOCK_RECORD
5
1
100
AcDbSymbolTable
70
1
0
BLOCK_RECORD
5
1F
100
AcDbSymbolTableRecord
100
AcDbBlockTableRecord
2
*MODEL_SPACE
0
BLOCK_RECORD
5
1B
100
AcDbSymbolTableRecord
100
AcDbBlockTableRecord
2
*PAPER_SPACE
0
ENDTAB
0
ENDSEC
0
SECTION
2
BLOCKS
0
BLOCK
5
20
100
AcDbEntity
100
AcDbBlockBegin
2
*MODEL_SPACE
0
ENDBLK
5
21
100
AcDbEntity
100
AcDbBlockEnd
0
BLOCK
5
1C
100
AcDbEntity
100
AcDbBlockBegin
2
*PAPER_SPACE
0
ENDBLK
5
1D
100
AcDbEntity
100
AcDbBlockEnd
0
ENDSEC
0
SECTION
2
ENTITIES
0
LWPOLYLINE
5
100
100
AcDbEntity
8
OUTER_PROFILES
100
AcDbPolyline
90
18
70
1
43
0.0
10
810.453182743051
20
559.5238934211734
10
0.070710678117933412
20
559.52389342116942
10
5.4945772522234959
20
554.10002684706376
42
-0.41421356237309365
10
5.4945772522234426
20
552.68581328469065
10
-1.1712852909795402e-12
20
547.19123603246612
10
-1.1601830607332886e-12
20
543.33265738870364
10
5.4945772522230962
20
537.83808013647933
42
-0.4142135623730836
10
5.4945772522231282
20
536.42386657410623
10
-1.4921397450962104e-12
20
530.92928932188147
10
0
20
0
10
810.52389342116999
20
7.538858426414663e-11
10
810.52389342116999
20
530.92928932188545
10
805.02931616894546
20
536.42386657410998
42
-0.41421356237309503
10
805.02931616894546
20
537.8380801364832
10
810.52389342116976
20
543.33265738870773
10
810.52389342116976
20
547.1912360324701
10
805.02931616894534
20
552.68581328469463
42
-0.41421356237306561
10
805.02931616894534
20
554.10002684706774
0
CIRCLE
5
101
100
AcDbEntity
8
INTERIOR_PROFILES
100
AcDbCircle
10
-305.26194671058761
20
5.0000000000016342
30
0
40
1.7000000000000171
210
0
220
0
230
-1
0
CIRCLE
5
102
100
AcDbEntity
8
INTERIOR_PROFILES
100
AcDbCircle
10
-3.0000000000259823
20
328.9999999999975
30
0
40
1.7000000000000171
210
0
220
0
230
-1
0
CIRCLE
5
103
100
AcDbEntity
8
INTERIOR_PROFILES
100
AcDbCircle
10
-3.0000000000254823
20
506.9999999999975
30
0
40
1.7000000000000171
210
0
220
0
230
-1
0
CIRCLE
5
104
100
AcDbEntity
8
INTERIOR_PROFILES
100
AcDbCircle
10
-3.0000000000264828
20
150.99999999999744
30
0
40
1.7000000000000171
210
0
220
0
230
-1
0
CIRCLE
5
105
100
AcDbEntity
8
INTERIOR_PROFILES
100
AcDbCircle
10
-796.26194671070391
20
467.00000000000421
30
0
40
6.5000000000000568
210
0
220
0
230
-1
0
CIRCLE
5
106
100
AcDbEntity
8
INTERIOR_PROFILES
100
AcDbCircle
10
-14.261946710948179
20
467
30
0
40
6.5
210
0
220
0
230
-1
0
CIRCLE
5
107
100
AcDbEntity
8
INTERIOR_PROFILES
100
AcDbCircle
10
-14.261946710947857
20
529
30
0
40
1.6999999999999993
210
0
220
0
230
-1
0
CIRCLE
5
108
100
AcDbEntity
8
INTERIOR_PROFILES
100
AcDbCircle
10
-205.26194671058761
20
5.0000000000011369
30
0
40
1.7000000000000171
210
0
220
0
230
-1
0
CIRCLE
5
109
100
AcDbEntity
8
INTERIOR_PROFILES
100
AcDbCircle
10
-796.26194671070516
20
260.00000000000421
30
0
40
1.7000000000000171
210
0
220
0
230
-1
0
CIRCLE
5
110
100
AcDbEntity
8
INTERIOR_PROFILES
100
AcDbCircle
10
-796.26194671070391
20
507.00000000000421
30
0
40
1.7000000000000171
210
0
220
0
230
-1
0
CIRCLE
5
111
100
AcDbEntity
8
INTERIOR_PROFILES
100
AcDbCircle
10
-40.261946711069541
20
5.0000000000001421
30
0
40
1.6999999999999993
210
0
220
0
230
-1
0
CIRCLE
5
112
100
AcDbEntity
8
INTERIOR_PROFILES
100
AcDbCircle
10
-605.26194671058772
20
5.0000000000031974
30
0
40
1.7000000000000171
210
0
220
0
230
-1
0
CIRCLE
5
113
100
AcDbEntity
8
INTERIOR_PROFILES
100
AcDbCircle
10
-796.26194671070402
20
451.00000000000421
30
0
40
1.7000000000000171
210
0
220
0
230
-1
0
CIRCLE
5
114
100
AcDbEntity
8
INTERIOR_PROFILES
100
AcDbCircle
10
-14.261946710948298
20
451
30
0
40
1.6999999999999993
210
0
220
0
230
-1
0
CIRCLE
5
115
100
AcDbEntity
8
INTERIOR_PROFILES
100
AcDbCircle
10
-796.26194671064036
20
228.00000000000421
30
0
40
1.7000000000000171
210
0
220
0
230
-1
0
CIRCLE
5
116
100
AcDbEntity
8
INTERIOR_PROFILES
100
AcDbCircle
10
-724.26194671058749
20
5.0000000000038369
30
0
40
1.7000000000000171
210
0
220
0
230
-1
0
CIRCLE
5
117
100
AcDbEntity
8
INTERIOR_PROFILES
100
AcDbCircle
10
-796.26194671064104
20
151.00000000000421
30
0
40
1.7000000000000171
210
0
220
0
230
-1
0
CIRCLE
5
118
100
AcDbEntity
8
INTERIOR_PROFILES
100
AcDbCircle
10
-14.26194671101468
20
151.00000000000009
30
0
40
1.6999999999999993
210
0
220
0
230
-1
0
CIRCLE
5
119
100
AcDbEntity
8
INTERIOR_PROFILES
100
AcDbCircle
10
-796.26194671070368
20
529.00000000000421
30
0
40
1.7000000000000171
210
0
220
0
230
-1
0
CIRCLE
5
120
100
AcDbEntity
8
INTERIOR_PROFILES
100
AcDbCircle
10
-796.26194671070391
20
483.00000000000421
30
0
40
1.7000000000000171
210
0
220
0
230
-1
0
CIRCLE
5
121
100
AcDbEntity
8
INTERIOR_PROFILES
100
AcDbCircle
10
-14.261946711014243
20
228.00000000000009
30
0
40
1.6999999999999993
210
0
220
0
230
-1
0
CIRCLE
5
122
100
AcDbEntity
8
INTERIOR_PROFILES
100
AcDbCircle
10
-14.261946711063915
20
5
30
0
40
1.6999999999999993
210
0
220
0
230
-1
0
CIRCLE
5
123
100
AcDbEntity
8
INTERIOR_PROFILES
100
AcDbCircle
10
-14.261946710947992
20
507
30
0
40
1.6999999999999993
210
0
220
0
230
-1
0
CIRCLE
5
124
100
AcDbEntity
8
INTERIOR_PROFILES
100
AcDbCircle
10
-14.261946711054634
20
45
30
0
40
1.6999999999999993
210
0
220
0
230
-1
0
CIRCLE
5
125
100
AcDbEntity
8
INTERIOR_PROFILES
100
AcDbCircle
10
-796.26194671059329
20
5.0000000000042633
30
0
40
1.7000000000000171
210
0
220
0
230
-1
0
CIRCLE
5
126
100
AcDbEntity
8
INTERIOR_PROFILES
100
AcDbCircle
10
-796.26194671070471
20
329.00000000000421
30
0
40
1.7000000000000171
210
0
220
0
230
-1
0
CIRCLE
5
127
100
AcDbEntity
8
INTERIOR_PROFILES
100
AcDbCircle
10
-770.26194671058761
20
5.0000000000041211
30
0
40
1.7000000000000171
210
0
220
0
230
-1
0
CIRCLE
5
128
100
AcDbEntity
8
INTERIOR_PROFILES
100
AcDbCircle
10
-796.26194671060205
20
45.000000000004192
30
0
40
1.7000000000000171
210
0
220
0
230
-1
0
CIRCLE
5
129
100
AcDbEntity
8
INTERIOR_PROFILES
100
AcDbCircle
10
-14.261946711063892
20
12.999999999999972
30
0
40
1.6999999999999993
210
0
220
0
230
-1
0
CIRCLE
5
130
100
AcDbEntity
8
INTERIOR_PROFILES
100
AcDbCircle
10
-405.26194671058767
20
5.0000000000021316
30
0
40
1.7000000000000171
210
0
220
0
230
-1
0
CIRCLE
5
131
100
AcDbEntity
8
INTERIOR_PROFILES
100
AcDbCircle
10
-86.261946711069555
20
5.0000000000003553
30
0
40
1.6999999999999993
210
0
220
0
230
-1
0
CIRCLE
5
132
100
AcDbEntity
8
INTERIOR_PROFILES
100
AcDbCircle
10
-796.26194671059329
20
13.000000000004235
30
0
40
1.7000000000000171
210
0
220
0
230
-1
0
CIRCLE
5
133
100
AcDbEntity
8
INTERIOR_PROFILES
100
AcDbCircle
10
-705.26194671058761
20
5.0000000000036948
30
0
40
1.7000000000000171
210
0
220
0
230
-1
0
CIRCLE
5
134
100
AcDbEntity
8
INTERIOR_PROFILES
100
AcDbCircle
10
-14.261946710948937
20
329.00000000000006
30
0
40
1.6999999999999993
210
0
220
0
230
-1
0
CIRCLE
5
135
100
AcDbEntity
8
INTERIOR_PROFILES
100
AcDbCircle
10
-505.26194671058767
20
5.0000000000027001
30
0
40
1.7000000000000171
210
0
220
0
230
-1
0
CIRCLE
5
136
100
AcDbEntity
8
INTERIOR_PROFILES
100
AcDbCircle
10
-14.261946710949278
20
260.00000000000006
30
0
40
1.6999999999999993
210
0
220
0
230
-1
0
CIRCLE
5
137
100
AcDbEntity
8
INTERIOR_PROFILES
100
AcDbCircle
10
-14.261946710948132
20
483.00000000000006
30
0
40
1.6999999999999993
210
0
220
0
230
-1
0
CIRCLE
5
138
100
AcDbEntity
8
INTERIOR_PROFILES
100
AcDbCircle
10
-105.26194671058762
20
5.0000000000005684
30
0
40
1.6999999999999993
210
0
220
0
230
-1
0
CIRCLE
5
139
100
AcDbEntity
8
INTERIOR_PROFILES
100
AcDbCircle
10
-807.5238934211701
20
507.00000000000432
30
0
40
1.7000000000000171
210
0
220
0
230
-1
0
CIRCLE
5
140
100
AcDbEntity
8
INTERIOR_PROFILES
100
AcDbCircle
10
-807.52389342116999
20
151.00000000000426
30
0
40
1.7000000000000171
210
0
220
0
230
-1
0
CIRCLE
5
141
100
AcDbEntity
8
INTERIOR_PROFILES
100
AcDbCircle
10
-807.52389342116999
20
329.00000000000432
30
0
40
1.7000000000000171
210
0
220
0
230
-1
0
LINE
5
142
100
AcDbEntity
8
BEND
100
AcDbLine
10
6.130973355291208
20
553.39292006587721
30
-5.5410822596992038e-12
11
6.1309733552912551
21
537.13097335529255
31
-5.0454960221700358e-12
0
LINE
5
143
100
AcDbEntity
8
BEND
100
AcDbLine
10
6.1309733552912551
20
537.13097335529255
30
-5.0454960221700358e-12
11
6.130973355292503
21
0
31
-2.5614477197781009e-13
0
LINE
5
144
100
AcDbEntity
8
BEND
100
AcDbLine
10
6.1309733552913057
20
559.52389342116942
30
-6.0491233898875578e-12
11
6.130973355291208
21
553.39292006587721
31
-5.5410822596992038e-12
0
LINE
5
145
100
AcDbEntity
8
BEND
100
AcDbLine
10
804.39292006587743
20
7.524647571699461e-11
30
-3.6823955203756464e-11
11
804.39292006587766
21
537.13097335529653
31
-4.1576089907340751e-11
0
LINE
5
146
100
AcDbEntity
8
BEND
100
AcDbLine
10
804.39292006587766
20
537.13097335529653
30
-4.1576089907340751e-11
11
804.39292006587743
21
553.3929200658813
31
-4.2071676144869906e-11
0
LINE
5
147
100
AcDbEntity
8
BEND
100
AcDbLine
10
804.39292006587743
20
553.3929200658813
30
-4.2071676144869906e-11
11
804.39292006587743
21
559.5238934211734
31
-4.2472858308938083e-11
0
LINE
5
148
100
AcDbEntity
8
BEND
100
AcDbLine
10
804.7364229501319
20
537.13097335529653
30
-4.175929379777984e-11
11
5.7874704710367553
21
537.13097335529255
31
-5.1436212521744455e-12
0
LINE
5
149
100
AcDbEntity
8
BEND
100
AcDbLine
10
804.7364229501319
20
553.3929200658813
30
-4.2159638738212114e-11
11
5.7874704710368974
21
553.39292006587721
31
-5.6575292646178421e-12
0
LINE
5
150
100
AcDbEntity
8
BEND_EXTENT
100
AcDbLine
10
5
20
0
30
-2.2881332397030172e-13
11
4.9999999999984226
21
535.9292893218809
31
-5.1466709360846601e-12
0
LINE
5
151
100
AcDbEntity
8
BEND_EXTENT
100
AcDbLine
10
7.2619467105835849
20
536.00000000000023
30
-5.1039773890793402e-12
11
7.2619467105850681
21
0
31
-4.0338030664484447e-13
0
LINE
5
152
100
AcDbEntity
8
BEND_EXTENT
100
AcDbLine
10
803.26194671058511
20
536.00000000000421
30
-4.1531058565151535e-11
11
7.2619467105835849
21
536.00000000000023
31
-5.1039773890793402e-12
0
LINE
5
153
100
AcDbEntity
8
BEND_EXTENT
100
AcDbLine
10
803.26194671058488
20
7.545963853772264e-11
30
-3.6830461482717582e-11
11
803.26194671058511
21
536.00000000000421
31
-4.1531058565151535e-11
0
LINE
5
154
100
AcDbEntity
8
BEND_EXTENT
100
AcDbLine
10
4.9999999999989644
20
554.59460409928829
30
-5.8789599670432719e-12
11
4.9999999999989528
21
559.52389342116942
31
-6.1353949176211824e-12
0
LINE
5
155
100
AcDbEntity
8
BEND_EXTENT
100
AcDbLine
10
7.2619467105835875
20
559.52389342116942
30
-6.0457288204349163e-12
11
7.2619467105836026
21
554.52389342116942
31
-5.8375229440376967e-12
0
LINE
5
156
100
AcDbEntity
8
BEND_EXTENT
100
AcDbLine
10
7.2619467105836026
20
554.52389342116942
30
-5.8375229440376967e-12
11
803.26194671058511
21
554.5238934211734
31
-4.2264604120109888e-11
0
LINE
5
157
100
AcDbEntity
8
BEND_EXTENT
100
AcDbLine
10
803.26194671058511
20
554.5238934211734
30
-4.2264604120109888e-11
11
803.26194671058511
21
559.5238934211734
31
-4.2472809996507104e-11
0
LINE
5
158
100
AcDbEntity
8
BEND_EXTENT
100
AcDbLine
10
805.52389342116965
20
552.1912360324701
30
-4.2349859870336173e-11
11
805.52389342116976
21
538.33265738870762
31
-4.1801875674178194e-11
0
LWPOLYLINE
5
159
100
AcDbEntity
8
BEND_EXTENT
100
AcDbPolyline
90
4
70
1
43
0.0
10
803.26194671058511
20
538.26194671058897
10
803.26194671058533
20
552.26194671058897
10
7.2619467105836577
20
552.26194671058488
10
7.2619467105835778
20
538.26194671058499
0
LINE
5
160
100
AcDbEntity
8
BEND_EXTENT
100
AcDbLine
10
805.52389342116999
20
559.5238934211734
30
-4.2556338691162379e-11
11
805.52389342116999
21
554.59460409929238
31
-4.2299903740584471e-11
0
LINE
5
161
100
AcDbEntity
8
BEND_EXTENT
100
AcDbLine
10
805.52389342116999
20
535.92928932188545
30
-4.1496560436049879e-11
11
805.52389342116976
21
7.51754214434186e-11
31
-3.6791865644664083e-11
0
LINE
5
162
100
AcDbEntity
8
BEND_EXTENT
100
AcDbLine
10
4.9999999999987477
20
538.33265738870364
30
-5.0256605327569485e-12
11
4.9999999999987077
21
552.19123603246612
31
-5.5736447289149299e-12
0
ENDSEC
0
SECTION
2
OBJECTS
0
DICTIONARY
5
C
100
AcDbDictionary
3
ACAD_GROUP
350
D
3
ACAD_MLINESTYLE
350
17
0
DICTIONARY
5
D
100
AcDbDictionary
0
DICTIONARY
5
1A
330
C
100
AcDbDictionary
0
DICTIONARY
5
17
100
AcDbDictionary
0
ENDSEC
0
EOF
