0
SECTION
2
HEADER
9
$INSUNITS
70
4
9
$ACADVER
1
AC1014
9
$HANDSEED
5
FFFF
0
ENDSEC
0
SECTION
2
TABLES
0
TABLE
2
VPORT
5
8
100
AcDbSymbolTable
0
ENDTAB
0
TABLE
2
LTYPE
5
5
100
AcDbSymbolTable
0
LTYPE
5
14
100
AcDbSymbolTableRecord
100
AcDbLinetypeTableRecord
2
BYBLOCK
70
0
0
LTYPE
5
15
100
AcDbSymbolTableRecord
100
AcDbLinetypeTableRecord
2
BYLAYER
70
0
0
LTYPE
5
16
100
AcDbSymbolTableRecord
100
AcDbLinetypeTableRecord
2
DASHED
70
0
3
Dashed __ __ __ __ __ __ __ __ __ __ __ __ __ _
72
65
73
2
40
0.75
49
0.5
74
0
49
-0.25
74
0
0
ENDTAB
0
TABLE
2
LAYER
5
2
100
AcDbSymbolTable
70
2
0
LAYER
5
50
100
AcDbSymbolTableRecord
100
AcDbLayerTableRecord
2
0
70
0
62
7
6
CONTINUOUS
0
ENDTAB
0
TABLE
2
STYLE
5
3
100
AcDbSymbolTable
70
1
0
STYLE
5
11
100
AcDbSymbolTableRecord
100
AcDbTextStyleTableRecord
2
STANDARD
70
0
0
ENDTAB
0
TABLE
2
VIEW
5
6
100
AcDbSymbolTable
70
0
0
ENDTAB
0
TABLE
2
UCS
5
7
100
AcDbSymbolTable
70
0
0
ENDTAB
0
TABLE
2
APPID
5
9
100
AcDbSymbolTable
70
2
0
APPID
5
12
100
AcDbSymbolTableRecord
100
AcDbRegAppTableRecord
2
ACAD
70
0
0
ENDTAB
0
TABLE
2
DIMSTYLE
5
A
100
AcDbSymbolTable
70
1
0
ENDTAB
0
TABLE
2
BLOCK_RECORD
5
1
100
AcDbSymbolTable
70
1
0
BLOCK_RECORD
5
1F
100
AcDbSymbolTableRecord
100
AcDbBlockTableRecord
2
*MODEL_SPACE
0
BLOCK_RECORD
5
1B
100
AcDbSymbolTableRecord
100
AcDbBlockTableRecord
2
*PAPER_SPACE
0
ENDTAB
0
ENDSEC
0
SECTION
2
BLOCKS
0
BLOCK
5
20
100
AcDbEntity
100
AcDbBlockBegin
2
*MODEL_SPACE
0
ENDBLK
5
21
100
AcDbEntity
100
AcDbBlockEnd
0
BLOCK
5
1C
100
AcDbEntity
100
AcDbBlockBegin
2
*PAPER_SPACE
0
ENDBLK
5
1D
100
AcDbEntity
100
AcDbBlockEnd
0
ENDSEC
0
SECTION
2
ENTITIES
0
LWPOLYLINE
5
100
100
AcDbEntity
8
OUTER_PROFILES
100
AcDbPolyline
90
18
70
1
43
0.0
10
805.02931616894546
20
554.1000268470757
42
0.41421356237306561
10
805.02931616894546
20
552.6858132847027
10
810.5238934211701
20
547.19123603247806
10
810.52389342116999
20
543.33265738871569
10
805.02931616894568
20
537.83808013649127
42
0.41421356237306561
10
805.02931616894568
20
536.42386657411828
10
810.52389342117021
20
530.92928932189341
10
810.52389342117021
20
7.524647571699461e-11
10
0
20
0
10
-1.4033219031261979e-12
20
530.92928932188954
10
5.4945772522231318
20
536.42386657411419
42
0.41421356237307072
10
5.4945772522231318
20
537.83808013648718
10
-1.2501111257279263e-12
20
543.33265738871182
10
-1.2612133559741778e-12
20
547.19123603247419
10
5.4945772522233494
20
552.68581328469872
42
0.41421356237309004
10
5.4945772522233689
20
554.10002684707183
10
0.070710678117797965
20
559.52389342117738
10
810.45318274305089
20
559.52389342118136
0
CIRCLE
5
101
100
AcDbEntity
8
INTERIOR_PROFILES
100
AcDbCircle
10
-796.2619467107229
20
451.00000000001222
30
0
40
1.7000000000000171
210
0
220
0
230
-1
0
CIRCLE
5
102
100
AcDbEntity
8
INTERIOR_PROFILES
100
AcDbCircle
10
-3.0000000000200262
20
507.00000000000489
30
0
40
1.7000000000000171
210
0
220
0
230
-1
0
CIRCLE
5
103
100
AcDbEntity
8
INTERIOR_PROFILES
100
AcDbCircle
10
-796.26194671072255
20
529.00000000001216
30
0
40
1.7000000000000171
210
0
220
0
230
-1
0
CIRCLE
5
104
100
AcDbEntity
8
INTERIOR_PROFILES
100
AcDbCircle
10
-796.26194671072267
20
507.00000000001228
30
0
40
1.7000000000000171
210
0
220
0
230
-1
0
CIRCLE
5
105
100
AcDbEntity
8
INTERIOR_PROFILES
100
AcDbCircle
10
-796.26194671072267
20
467.00000000001228
30
0
40
6.5000000000000568
210
0
220
0
230
-1
0
CIRCLE
5
106
100
AcDbEntity
8
INTERIOR_PROFILES
100
AcDbCircle
10
-796.26194671072381
20
260.00000000001222
30
0
40
1.7000000000000171
210
0
220
0
230
-1
0
CIRCLE
5
107
100
AcDbEntity
8
INTERIOR_PROFILES
100
AcDbCircle
10
-605.26194671058522
20
5.0000000000118661
30
0
40
1.7000000000000171
210
0
220
0
230
-1
0
CIRCLE
5
108
100
AcDbEntity
8
INTERIOR_PROFILES
100
AcDbCircle
10
-14.26194671105922
20
45.000000000008171
30
0
40
1.6999999999999993
210
0
220
0
230
-1
0
CIRCLE
5
109
100
AcDbEntity
8
INTERIOR_PROFILES
100
AcDbCircle
10
-796.26194671072267
20
483.00000000001228
30
0
40
1.7000000000000171
210
0
220
0
230
-1
0
CIRCLE
5
110
100
AcDbEntity
8
INTERIOR_PROFILES
100
AcDbCircle
10
-796.26194671072335
20
329.00000000001228
30
0
40
1.7000000000000171
210
0
220
0
230
-1
0
CIRCLE
5
111
100
AcDbEntity
8
INTERIOR_PROFILES
100
AcDbCircle
10
-796.26194671061398
20
13.000000000012903
30
0
40
1.7000000000000171
210
0
220
0
230
-1
0
CIRCLE
5
112
100
AcDbEntity
8
INTERIOR_PROFILES
100
AcDbCircle
10
-14.261946710954259
20
467.0000000000083
30
0
40
6.5
210
0
220
0
230
-1
0
CIRCLE
5
113
100
AcDbEntity
8
INTERIOR_PROFILES
100
AcDbCircle
10
-40.261946711096648
20
5.0000000000034817
30
0
40
1.6999999999999993
210
0
220
0
230
-1
0
CIRCLE
5
114
100
AcDbEntity
8
INTERIOR_PROFILES
100
AcDbCircle
10
-796.2619467106141
20
5.0000000000128608
30
0
40
1.7000000000000171
210
0
220
0
230
-1
0
CIRCLE
5
115
100
AcDbEntity
8
INTERIOR_PROFILES
100
AcDbCircle
10
-724.26194671058511
20
5.0000000000125056
30
0
40
1.7000000000000171
210
0
220
0
230
-1
0
CIRCLE
5
116
100
AcDbEntity
8
INTERIOR_PROFILES
100
AcDbCircle
10
-796.26194671066014
20
151.00000000001222
30
0
40
1.7000000000000171
210
0
220
0
230
-1
0
CIRCLE
5
117
100
AcDbEntity
8
INTERIOR_PROFILES
100
AcDbCircle
10
-14.261946710961265
20
529.00000000000819
30
0
40
1.6999999999999993
210
0
220
0
230
-1
0
CIRCLE
5
118
100
AcDbEntity
8
INTERIOR_PROFILES
100
AcDbCircle
10
-796.26194671062217
20
45.000000000012292
30
0
40
1.7000000000000171
210
0
220
0
230
-1
0
CIRCLE
5
119
100
AcDbEntity
8
INTERIOR_PROFILES
100
AcDbCircle
10
-205.26194671059994
20
5.0000000000092371
30
0
40
1.7000000000000171
210
0
220
0
230
-1
0
CIRCLE
5
120
100
AcDbEntity
8
INTERIOR_PROFILES
100
AcDbCircle
10
-3.0000000000204965
20
329.00000000000483
30
0
40
1.7000000000000171
210
0
220
0
230
-1
0
CIRCLE
5
121
100
AcDbEntity
8
INTERIOR_PROFILES
100
AcDbCircle
10
-3.0000000000209672
20
151.00000000000483
30
0
40
1.7000000000000171
210
0
220
0
230
-1
0
CIRCLE
5
122
100
AcDbEntity
8
INTERIOR_PROFILES
100
AcDbCircle
10
-14.261946710953936
20
507.0000000000083
30
0
40
1.6999999999999993
210
0
220
0
230
-1
0
CIRCLE
5
123
100
AcDbEntity
8
INTERIOR_PROFILES
100
AcDbCircle
10
-14.26194671094613
20
451.00000000000824
30
0
40
1.6999999999999993
210
0
220
0
230
-1
0
CIRCLE
5
124
100
AcDbEntity
8
INTERIOR_PROFILES
100
AcDbCircle
10
-14.26194671101957
20
228.00000000001148
30
0
40
1.6999999999999993
210
0
220
0
230
-1
0
CIRCLE
5
125
100
AcDbEntity
8
INTERIOR_PROFILES
100
AcDbCircle
10
-14.261946711020208
20
151.00000000009805
30
0
40
1.6999999999999993
210
0
220
0
230
-1
0
CIRCLE
5
126
100
AcDbEntity
8
INTERIOR_PROFILES
100
AcDbCircle
10
-14.261946711067928
20
5.000000000013074
30
0
40
1.6999999999999993
210
0
220
0
230
-1
0
CIRCLE
5
127
100
AcDbEntity
8
INTERIOR_PROFILES
100
AcDbCircle
10
-796.26194671065969
20
228.00000000001222
30
0
40
1.7000000000000171
210
0
220
0
230
-1
0
CIRCLE
5
128
100
AcDbEntity
8
INTERIOR_PROFILES
100
AcDbCircle
10
-305.26194671058511
20
5.0000000000103029
30
0
40
1.7000000000000171
210
0
220
0
230
-1
0
CIRCLE
5
129
100
AcDbEntity
8
INTERIOR_PROFILES
100
AcDbCircle
10
-14.261946710965766
20
260.00000000000824
30
0
40
1.6999999999999993
210
0
220
0
230
-1
0
CIRCLE
5
130
100
AcDbEntity
8
INTERIOR_PROFILES
100
AcDbCircle
10
-770.26194671058522
20
5.0000000000127187
30
0
40
1.7000000000000171
210
0
220
0
230
-1
0
CIRCLE
5
131
100
AcDbEntity
8
INTERIOR_PROFILES
100
AcDbCircle
10
-14.261946711067763
20
13.00000000001269
30
0
40
1.6999999999999993
210
0
220
0
230
-1
0
CIRCLE
5
132
100
AcDbEntity
8
INTERIOR_PROFILES
100
AcDbCircle
10
-105.26194671059996
20
5.0000000000086686
30
0
40
1.6999999999999993
210
0
220
0
230
-1
0
CIRCLE
5
133
100
AcDbEntity
8
INTERIOR_PROFILES
100
AcDbCircle
10
-405.2619467106
20
5.0000000000101608
30
0
40
1.7000000000000171
210
0
220
0
230
-1
0
CIRCLE
5
134
100
AcDbEntity
8
INTERIOR_PROFILES
100
AcDbCircle
10
-14.261946710962102
20
483.0000000000083
30
0
40
1.6999999999999993
210
0
220
0
230
-1
0
CIRCLE
5
135
100
AcDbEntity
8
INTERIOR_PROFILES
100
AcDbCircle
10
-705.26194671058522
20
5.0000000000124345
30
0
40
1.7000000000000171
210
0
220
0
230
-1
0
CIRCLE
5
136
100
AcDbEntity
8
INTERIOR_PROFILES
100
AcDbCircle
10
-807.52389342117624
20
507.00000000001154
30
0
40
1.7000000000000171
210
0
220
0
230
-1
0
CIRCLE
5
137
100
AcDbEntity
8
INTERIOR_PROFILES
100
AcDbCircle
10
-14.261946710962095
20
329.00000000000824
30
0
40
1.6999999999999993
210
0
220
0
230
-1
0
CIRCLE
5
138
100
AcDbEntity
8
INTERIOR_PROFILES
100
AcDbCircle
10
-807.5238934211759
20
151.00000000001154
30
0
40
1.7000000000000171
210
0
220
0
230
-1
0
CIRCLE
5
139
100
AcDbEntity
8
INTERIOR_PROFILES
100
AcDbCircle
10
-807.52389342117613
20
329.0000000000116
30
0
40
1.7000000000000171
210
0
220
0
230
-1
0
CIRCLE
5
140
100
AcDbEntity
8
INTERIOR_PROFILES
100
AcDbCircle
10
-505.26194671058511
20
5.0000000000114397
30
0
40
1.7000000000000171
210
0
220
0
230
-1
0
CIRCLE
5
141
100
AcDbEntity
8
INTERIOR_PROFILES
100
AcDbCircle
10
-86.261946711096655
20
5.0000000000038369
30
0
40
1.6999999999999993
210
0
220
0
230
-1
0
LINE
5
142
100
AcDbEntity
8
BEND
100
AcDbLine
10
6.1309733552912178
20
559.52389342117749
30
3.0482096140935782e-12
11
6.1309733552912613
21
553.39292006588528
31
3.3395814968586546e-12
0
LINE
5
143
100
AcDbEntity
8
BEND
100
AcDbLine
10
6.1309733552912613
20
553.39292006588528
30
3.3395814968586546e-12
11
6.1309733552911636
21
537.13097335530063
31
3.2587229339619689e-12
0
LINE
5
144
100
AcDbEntity
8
BEND
100
AcDbLine
10
6.1309733552911636
20
537.13097335530063
30
3.2587229339619689e-12
11
6.130973355292606
21
0
31
3.6187605874618432e-13
0
LINE
5
145
100
AcDbEntity
8
BEND
100
AcDbLine
10
804.39292006587743
20
553.39292006588914
30
6.5778975209401303e-11
11
804.39292006587743
21
559.52389342118136
31
6.5594462292756402e-11
0
LINE
5
146
100
AcDbEntity
8
BEND
100
AcDbLine
10
804.39292006587766
20
537.1309733553046
30
6.5698116646504645e-11
11
804.39292006587743
21
553.39292006588914
31
6.5778975209401303e-11
0
LINE
5
147
100
AcDbEntity
8
BEND
100
AcDbLine
10
804.39292006587766
20
7.524647571699461e-11
30
6.274880484707389e-11
11
804.39292006587766
21
537.1309733553046
31
6.5698116646504645e-11
0
LINE
5
148
100
AcDbEntity
8
BEND
100
AcDbLine
10
804.73642295013224
20
537.1309733553046
30
6.5644081083443592e-11
11
5.7874704710367553
21
537.13097335530063
31
3.1079623612682737e-12
0
LINE
5
149
100
AcDbEntity
8
BEND
100
AcDbLine
10
804.73642295013201
20
553.39292006588914
30
6.5678084124450517e-11
11
5.7874704710367553
21
553.39292006588528
31
3.2175738185273591e-12
0
LINE
5
150
100
AcDbEntity
8
BEND_EXTENT
100
AcDbLine
10
5
20
0
30
2.4898734542959368e-13
11
4.9999999999985132
21
535.92928932188909
31
3.0001320870713969e-12
0
LINE
5
151
100
AcDbEntity
8
BEND_EXTENT
100
AcDbLine
10
7.2619467105834934
20
536.0000000000083
30
3.3242778072950064e-12
11
7.2619467105851694
21
0
31
3.5486068540325402e-13
0
LINE
5
152
100
AcDbEntity
8
BEND_EXTENT
100
AcDbLine
10
803.26194671058511
20
536.00000000001228
30
6.5586743906288034e-11
11
7.2619467105834934
21
536.0000000000083
31
3.3242778072950064e-12
0
LINE
5
153
100
AcDbEntity
8
BEND_EXTENT
100
AcDbLine
10
803.26194671058511
20
7.531752999057062e-11
30
6.261732678439655e-11
11
803.26194671058511
21
536.00000000001228
31
6.5586743906288034e-11
0
LINE
5
154
100
AcDbEntity
8
BEND_EXTENT
100
AcDbLine
10
4.9999999999988809
20
554.59460409929636
30
2.9612642749400511e-12
11
4.9999999999988702
21
559.52389342117749
31
2.9174746609097989e-12
0
LINE
5
155
100
AcDbEntity
8
BEND_EXTENT
100
AcDbLine
10
7.2619467105834996
20
559.52389342117738
30
3.194322346675691e-12
11
7.2619467105835138
21
554.52389342117749
31
3.2221777266939171e-12
0
LINE
5
156
100
AcDbEntity
8
BEND_EXTENT
100
AcDbLine
10
7.2619467105835138
20
554.52389342117749
30
3.2221777266939171e-12
11
803.26194671058511
21
554.52389342118136
31
6.5484643825686932e-11
0
LINE
5
157
100
AcDbEntity
8
BEND_EXTENT
100
AcDbLine
10
803.26194671058511
20
554.52389342118136
30
6.5484643825686932e-11
11
803.26194671058511
21
559.52389342118136
31
6.5456788445668713e-11
0
LINE
5
158
100
AcDbEntity
8
BEND_EXTENT
100
AcDbLine
10
805.52389342116999
20
552.19123603247806
30
6.563534647512901e-11
11
805.52389342116999
21
538.33265738871557
31
6.5700801086219084e-11
0
LWPOLYLINE
5
159
100
AcDbEntity
8
BEND_EXTENT
100
AcDbPolyline
90
4
70
1
43
0.0
10
803.26194671058511
20
538.26194671059693
10
803.26194671058533
20
552.26194671059693
10
7.2619467105836577
20
552.26194671059307
10
7.2619467105834872
20
538.26194671059307
0
LINE
5
160
100
AcDbEntity
8
BEND_EXTENT
100
AcDbLine
10
805.52389342116976
20
559.52389342118136
30
6.5675904534154104e-11
11
805.52389342116999
21
554.59460409930023
31
6.5719694148184364e-11
0
LINE
5
161
100
AcDbEntity
8
BEND_EXTENT
100
AcDbLine
10
805.52389342117044
20
535.92928932189341
30
6.5900670507467795e-11
11
805.52389342117044
21
7.51754214434186e-11
31
6.2510037303642197e-11
0
LINE
5
162
100
AcDbEntity
8
BEND_EXTENT
100
AcDbLine
10
4.9999999999986571
20
538.3326573887116
30
3.2265883072787892e-12
11
4.9999999999986189
21
552.19123603247419
31
3.1611336961887124e-12
0
ENDSEC
0
SECTION
2
OBJECTS
0
DICTIONARY
5
C
100
AcDbDictionary
3
ACAD_GROUP
350
D
3
ACAD_MLINESTYLE
350
17
0
DICTIONARY
5
D
100
AcDbDictionary
0
DICTIONARY
5
1A
330
C
100
AcDbDictionary
0
DICTIONARY
5
17
100
AcDbDictionary
0
ENDSEC
0
EOF
