0
SECTION
2
HEADER
9
$INSUNITS
70
4
9
$ACADVER
1
AC1014
9
$HANDSEED
5
FFFF
0
ENDSEC
0
SECTION
2
TABLES
0
TABLE
2
VPORT
5
8
100
AcDbSymbolTable
0
ENDTAB
0
TABLE
2
LTYPE
5
5
100
AcDbSymbolTable
0
LTYPE
5
14
100
AcDbSymbolTableRecord
100
AcDbLinetypeTableRecord
2
BYBLOCK
70
0
0
LTYPE
5
15
100
AcDbSymbolTableRecord
100
AcDbLinetypeTableRecord
2
BYLAYER
70
0
0
LTYPE
5
16
100
AcDbSymbolTableRecord
100
AcDbLinetypeTableRecord
2
DASHED
70
0
3
Dashed __ __ __ __ __ __ __ __ __ __ __ __ __ _
72
65
73
2
40
0.75
49
0.5
74
0
49
-0.25
74
0
0
ENDTAB
0
TABLE
2
LAYER
5
2
100
AcDbSymbolTable
70
2
0
LAYER
5
50
100
AcDbSymbolTableRecord
100
AcDbLayerTableRecord
2
0
70
0
62
7
6
CONTINUOUS
0
ENDTAB
0
TABLE
2
STYLE
5
3
100
AcDbSymbolTable
70
1
0
STYLE
5
11
100
AcDbSymbolTableRecord
100
AcDbTextStyleTableRecord
2
STANDARD
70
0
0
ENDTAB
0
TABLE
2
VIEW
5
6
100
AcDbSymbolTable
70
0
0
ENDTAB
0
TABLE
2
UCS
5
7
100
AcDbSymbolTable
70
0
0
ENDTAB
0
TABLE
2
APPID
5
9
100
AcDbSymbolTable
70
2
0
APPID
5
12
100
AcDbSymbolTableRecord
100
AcDbRegAppTableRecord
2
ACAD
70
0
0
ENDTAB
0
TABLE
2
DIMSTYLE
5
A
100
AcDbSymbolTable
70
1
0
ENDTAB
0
TABLE
2
BLOCK_RECORD
5
1
100
AcDbSymbolTable
70
1
0
BLOCK_RECORD
5
1F
100
AcDbSymbolTableRecord
100
AcDbBlockTableRecord
2
*MODEL_SPACE
0
BLOCK_RECORD
5
1B
100
AcDbSymbolTableRecord
100
AcDbBlockTableRecord
2
*PAPER_SPACE
0
ENDTAB
0
ENDSEC
0
SECTION
2
BLOCKS
0
BLOCK
5
20
100
AcDbEntity
100
AcDbBlockBegin
2
*MODEL_SPACE
0
ENDBLK
5
21
100
AcDbEntity
100
AcDbBlockEnd
0
BLOCK
5
1C
100
AcDbEntity
100
AcDbBlockBegin
2
*PAPER_SPACE
0
ENDBLK
5
1D
100
AcDbEntity
100
AcDbBlockEnd
0
ENDSEC
0
SECTION
2
ENTITIES
0
LINE
5
100
100
AcDbEntity
8
OUTER_PROFILES
100
AcDbLine
10
8.5265128291212022e-13
20
943.5238934211693
30
0
11
0
21
976.54778684233906
31
0
0
LINE
5
101
100
AcDbEntity
8
OUTER_PROFILES
100
AcDbLine
10
0
20
976.54778684233906
30
0
11
2047.8585786437623
21
976.54778684233906
31
0
0
LINE
5
102
100
AcDbEntity
8
OUTER_PROFILES
100
AcDbLine
10
2047.8585786437623
20
976.54778684233906
30
0
11
2047.8585786437616
21
943.5238934211693
31
0
0
SPLINE
5
103
100
AcDbEntity
8
OUTER_PROFILES
100
AcDbSpline
70
0
71
3
72
11
73
7
74
0
42
0.000000001
43
0.0000000001
44
0.0000000001
40
1.5707963267948966
40
1.5707963267948966
40
1.5707963267948966
40
1.5707963267948966
40
1.6686269019992415
40
1.6686269019992415
40
1.6686269019992415
40
3.1415926535897931
40
3.1415926535897931
40
3.1415926535897931
40
3.1415926535897931
10
2046.8585786437616
20
941.26194671059409
30
0
10
2046.891188835496
20
941.30890538669223
30
0
10
2046.9237989774683
20
941.35586406279026
30
0
10
2046.9562532404655
20
941.40282273888829
30
0
10
2047.4448941156502
20
942.10984629965174
30
0
10
2047.8585786437613
20
942.81686986041507
30
0
10
2047.8585786437613
20
943.52389342117863
30
0
0
LINE
5
104
100
AcDbEntity
8
OUTER_PROFILES
100
AcDbLine
10
2046.8585786437616
20
941.26194671059409
30
0
11
2046.9292893217416
21
941.19123603246624
31
0
0
SPLINE
5
105
100
AcDbEntity
8
OUTER_PROFILES
100
AcDbSpline
70
0
71
3
72
11
73
7
74
0
42
0.000000001
43
0.0000000001
44
0.0000000001
40
-3.1415926535897931
40
-3.1415926535897931
40
-3.1415926535897931
40
-3.1415926535897931
40
-1.6686269019992415
40
-1.6686269019992415
40
-1.6686269019992415
40
-1.5707963267948966
40
-1.5707963267948966
40
-1.5707963267948966
40
-1.5707963267948966
10
2049.1912360323263
20
942.19123603246601
30
0
10
2048.4842124715628
20
942.19123603246601
30
0
10
2047.7771889107994
20
941.77755150435462
30
0
10
2047.0701653500359
20
941.28891062917023
30
0
10
2047.0232066739379
20
941.25645636617321
30
0
10
2046.9762479978397
20
941.22384622420088
30
0
10
2046.9292893217416
20
941.19123603246624
30
0
0
LINE
5
106
100
AcDbEntity
8
OUTER_PROFILES
100
AcDbLine
10
2049.1912360323263
20
942.19123603246601
30
0
11
2062.1912360324659
21
942.19123603246612
31
0
0
LINE
5
107
100
AcDbEntity
8
OUTER_PROFILES
100
AcDbLine
10
2062.1912360324659
20
942.19123603246612
30
0
11
2062.1912360324659
21
14.332657388703325
31
0
0
LINE
5
108
100
AcDbEntity
8
OUTER_PROFILES
100
AcDbLine
10
2062.1912360324659
20
14.332657388703325
30
0
11
2049.1912360324659
21
14.332657388703325
31
0
0
SPLINE
5
109
100
AcDbEntity
8
OUTER_PROFILES
100
AcDbSpline
70
0
71
3
72
11
73
7
74
0
42
0.000000001
43
0.0000000001
44
0.0000000001
40
1.5707963267948966
40
1.5707963267948966
40
1.5707963267948966
40
1.5707963267948966
40
1.6686269019992415
40
1.6686269019992415
40
1.6686269019992415
40
3.1415926535897931
40
3.1415926535897931
40
3.1415926535897931
40
3.1415926535897931
10
2046.9292893217994
20
15.332657388703126
30
0
10
2046.9762479978974
20
15.300047196968478
30
0
10
2047.0232066739957
20
15.267437054996265
30
0
10
2047.0701653500937
20
15.234982791999272
30
0
10
2047.7771889108569
20
14.746341916814742
30
0
10
2048.4842124716206
20
14.332657388703325
30
0
10
2049.191236032384
20
14.332657388703325
30
0
0
LINE
5
110
100
AcDbEntity
8
OUTER_PROFILES
100
AcDbLine
10
2046.9292893217994
20
15.332657388703126
30
0
11
2046.8585786437616
21
15.261946710584624
31
0
0
SPLINE
5
111
100
AcDbEntity
8
OUTER_PROFILES
100
AcDbSpline
70
0
71
3
72
11
73
7
74
0
42
0.000000001
43
0.0000000001
44
0.0000000001
40
-3.1415926535897931
40
-3.1415926535897931
40
-3.1415926535897931
40
-3.1415926535897931
40
-1.6686269019992415
40
-1.6686269019992415
40
-1.6686269019992415
40
-1.5707963267948966
40
-1.5707963267948966
40
-1.5707963267948966
40
-1.5707963267948966
10
2047.8585786437613
20
13.000000000000114
30
0
10
2047.8585786437613
20
13.707023560763645
30
0
10
2047.4448941156502
20
14.414047121526892
30
0
10
2046.9562532404655
20
15.121070682290423
30
0
10
2046.9237989774683
20
15.168029358388395
30
0
10
2046.891188835496
20
15.21498803448651
30
0
10
2046.8585786437616
20
15.261946710584624
30
0
0
LINE
5
112
100
AcDbEntity
8
OUTER_PROFILES
100
AcDbLine
10
2047.8585786437613
20
13.000000000000114
30
0
11
2047.8585786437623
21
0
31
0
0
LINE
5
113
100
AcDbEntity
8
OUTER_PROFILES
100
AcDbLine
10
2047.8585786437623
20
0
30
0
11
0
21
0
31
0
0
LINE
5
114
100
AcDbEntity
8
OUTER_PROFILES
100
AcDbLine
10
0
20
0
30
0
11
8.5265128291212022e-13
21
13.000000000000114
31
0
0
SPLINE
5
115
100
AcDbEntity
8
OUTER_PROFILES
100
AcDbSpline
70
0
71
3
72
11
73
7
74
0
42
0.000000001
43
0.0000000001
44
0.0000000001
40
1.5707963267948966
40
1.5707963267948966
40
1.5707963267948966
40
1.5707963267948966
40
1.6686269019992415
40
1.6686269019992415
40
1.6686269019992415
40
3.1415926535897931
40
3.1415926535897931
40
3.1415926535897931
40
3.1415926535897931
10
1.0000000000007958
20
15.261946710584624
30
0
10
0.96738980826614807
20
15.21498803448651
30
0
10
0.9347796662939345
20
15.168029358388395
30
0
10
0.90232540329679978
20
15.121070682290423
30
0
10
0.41368452811212819
20
14.414047121526892
30
0
10
8.5265128291212022e-13
20
13.707023560763645
30
0
10
8.5265128291212022e-13
20
13.000000000000114
30
0
0
LINE
5
116
100
AcDbEntity
8
OUTER_PROFILES
100
AcDbLine
10
1.0000000000007958
20
15.261946710584624
30
0
11
0.92928932188101498
21
15.332657388703126
31
0
0
SPLINE
5
117
100
AcDbEntity
8
OUTER_PROFILES
100
AcDbSpline
70
0
71
3
72
11
73
7
74
0
42
0.000000001
43
0.0000000001
44
0.0000000001
40
-3.1415926535897931
40
-3.1415926535897931
40
-3.1415926535897931
40
-3.1415926535897931
40
-1.6686269019992415
40
-1.6686269019992415
40
-1.6686269019992415
40
-1.5707963267948966
40
-1.5707963267948966
40
-1.5707963267948966
40
-1.5707963267948966
10
-1.3326573887036375
20
14.332657388703325
30
0
10
-0.62563382794024847
20
14.332657388703325
30
0
10
0.081389732823424765
20
14.746341916814742
30
0
10
0.78841329358681378
20
15.234982791999272
30
0
10
0.83537196968478611
20
15.267437054996265
30
0
10
0.88233064578304266
20
15.300047196968478
30
0
10
0.92928932188101498
20
15.332657388703126
30
0
0
LINE
5
118
100
AcDbEntity
8
OUTER_PROFILES
100
AcDbLine
10
-1.3326573887036375
20
14.332657388703325
30
0
11
-14.332657388703467
21
14.332657388703183
31
0
0
LINE
5
119
100
AcDbEntity
8
OUTER_PROFILES
100
AcDbLine
10
-14.332657388703467
20
14.332657388703183
30
0
11
-14.332657388703467
21
942.19123603246612
31
0
0
LINE
5
120
100
AcDbEntity
8
OUTER_PROFILES
100
AcDbLine
10
-14.332657388703467
20
942.19123603246612
30
0
11
-1.3326573887033533
21
942.19123603246612
31
0
0
SPLINE
5
121
100
AcDbEntity
8
OUTER_PROFILES
100
AcDbSpline
70
0
71
3
72
11
73
7
74
0
42
0.000000001
43
0.0000000001
44
0.0000000001
40
1.5707963267948966
40
1.5707963267948966
40
1.5707963267948966
40
1.5707963267948966
40
1.6686269019992415
40
1.6686269019992415
40
1.6686269019992415
40
3.1415926535897931
40
3.1415926535897931
40
3.1415926535897931
40
3.1415926535897931
10
0.92928932188101498
20
941.19123603246624
30
0
10
0.88233064578304266
20
941.22384622420088
30
0
10
0.83537196968478611
20
941.25645636617321
30
0
10
0.78841329358681378
20
941.28891062917023
30
0
10
0.081389732823424765
20
941.77755150435462
30
0
10
-0.62563382794024847
20
942.19123603246601
30
0
10
-1.3326573887036375
20
942.19123603246601
30
0
0
LINE
5
122
100
AcDbEntity
8
OUTER_PROFILES
100
AcDbLine
10
0.92928932188101498
20
941.19123603246624
30
0
11
1.0000000000007958
21
941.26194671056805
31
0
0
SPLINE
5
123
100
AcDbEntity
8
OUTER_PROFILES
100
AcDbSpline
70
0
71
3
72
11
73
7
74
0
42
0.000000001
43
0.0000000001
44
0.0000000001
40
-3.1415926535897931
40
-3.1415926535897931
40
-3.1415926535897931
40
-3.1415926535897931
40
-1.6686269019992415
40
-1.6686269019992415
40
-1.6686269019992415
40
-1.5707963267948966
40
-1.5707963267948966
40
-1.5707963267948966
40
-1.5707963267948966
10
8.5265128291212022e-13
20
943.52389342115259
30
0
10
8.5265128291212022e-13
20
942.81686986038903
30
0
10
0.41368452811212819
20
942.1098462996257
30
0
10
0.90232540329679978
20
941.40282273886226
30
0
10
0.9347796662939345
20
941.35586406276434
30
0
10
0.96738980826614807
20
941.3089053866662
30
0
10
1.0000000000007958
20
941.26194671056805
30
0
0
LWPOLYLINE
5
124
100
AcDbEntity
8
INTERIOR_PROFILES
100
AcDbPolyline
90
4
70
1
43
0.0
10
1914.6292893218811
20
941.52389342116976
10
1914.6292893218811
20
939.26194671058443
10
1917.6292893218811
20
939.26194671058443
10
1917.6292893218811
20
941.52389342116976
0
LWPOLYLINE
5
125
100
AcDbEntity
8
INTERIOR_PROFILES
100
AcDbPolyline
90
4
70
1
43
0.0
10
1017.6292893218812
20
941.52389342116976
10
1014.6292893218811
20
941.52389342116976
10
1014.6292893218811
20
939.26194671058443
10
1017.6292893218812
20
939.26194671058443
0
LWPOLYLINE
5
126
100
AcDbEntity
8
INTERIOR_PROFILES
100
AcDbPolyline
90
4
70
1
43
0.0
10
1030.229289321881
20
939.26194671058443
10
1033.2292893218812
20
939.26194671058443
10
1033.2292893218812
20
941.52389342116976
10
1030.229289321881
20
941.52389342116976
0
LWPOLYLINE
5
127
100
AcDbEntity
8
INTERIOR_PROFILES
100
AcDbPolyline
90
4
70
1
43
0.0
10
1467.6292893218811
20
941.52389342116976
10
1464.6292893218811
20
941.52389342116976
10
1464.6292893218811
20
939.26194671058443
10
1467.6292893218811
20
939.26194671058443
0
CIRCLE
5
128
100
AcDbEntity
8
INTERIOR_PROFILES
100
AcDbCircle
10
-3.9292893218811287
20
932.26194671058477
30
0
40
3.0000000000000004
210
0
220
0
230
-1
0
LWPOLYLINE
5
129
100
AcDbEntity
8
INTERIOR_PROFILES
100
AcDbPolyline
90
4
70
1
43
0.0
10
583.2292893218812
20
939.26194671058443
10
583.2292893218812
20
941.52389342116976
10
580.22928932188108
20
941.52389342116976
10
580.22928932188108
20
939.26194671058443
0
LWPOLYLINE
5
130
100
AcDbEntity
8
INTERIOR_PROFILES
100
AcDbPolyline
90
4
70
1
43
0.0
10
122.82928932188099
20
941.52389342116976
10
119.82928932188116
20
941.52389342116976
10
119.82928932188116
20
939.26194671058443
10
122.82928932188099
20
939.26194671058443
0
LWPOLYLINE
5
131
100
AcDbEntity
8
INTERIOR_PROFILES
100
AcDbPolyline
90
4
70
1
43
0.0
10
128.02928932188109
20
941.52389342116976
10
125.02928932188127
20
941.52389342116976
10
125.02928932188127
20
939.26194671058443
10
128.02928932188109
20
939.26194671058443
0
LWPOLYLINE
5
132
100
AcDbEntity
8
INTERIOR_PROFILES
100
AcDbPolyline
90
4
70
1
43
0.0
10
1469.8292893218811
20
941.52389342116976
10
1469.8292893218811
20
939.26194671058443
10
1472.8292893218809
20
939.26194671058443
10
1472.8292893218809
20
941.52389342116976
0
LWPOLYLINE
5
133
100
AcDbEntity
8
INTERIOR_PROFILES
100
AcDbPolyline
90
4
70
1
43
0.0
10
567.62928932188117
20
939.26194671058443
10
567.62928932188117
20
941.52389342116976
10
564.62928932188106
20
941.52389342116976
10
564.62928932188106
20
939.26194671058443
0
LWPOLYLINE
5
134
100
AcDbEntity
8
INTERIOR_PROFILES
100
AcDbPolyline
90
4
70
1
43
0.0
10
1019.8292893218811
20
941.52389342116976
10
1019.8292893218811
20
939.26194671058443
10
1022.8292893218811
20
939.26194671058443
10
1022.8292893218811
20
941.52389342116976
0
LWPOLYLINE
5
135
100
AcDbEntity
8
INTERIOR_PROFILES
100
AcDbPolyline
90
4
70
1
43
0.0
10
1925.0292893218812
20
941.52389342116976
10
1925.0292893218812
20
939.26194671058443
10
1928.0292893218812
20
939.26194671058443
10
1928.0292893218812
20
941.52389342116976
0
CIRCLE
5
136
100
AcDbEntity
8
INTERIOR_PROFILES
100
AcDbCircle
10
-573.92928932188113
20
952.52389342116976
30
0
40
1.7000000000000171
210
0
220
0
230
-1
0
LWPOLYLINE
5
137
100
AcDbEntity
8
INTERIOR_PROFILES
100
AcDbPolyline
90
4
70
1
43
0.0
10
130.22928932188108
20
941.52389342116976
10
130.22928932188108
20
939.26194671058443
10
133.2292893218812
20
939.26194671058443
10
133.2292893218812
20
941.52389342116976
0
LWPOLYLINE
5
138
100
AcDbEntity
8
INTERIOR_PROFILES
100
AcDbPolyline
90
4
70
1
43
0.0
10
1475.0292893218812
20
941.52389342116976
10
1475.0292893218812
20
939.26194671058443
10
1478.0292893218812
20
939.26194671058443
10
1478.0292893218812
20
941.52389342116976
0
LWPOLYLINE
5
139
100
AcDbEntity
8
INTERIOR_PROFILES
100
AcDbPolyline
90
4
70
1
43
0.0
10
1922.8292893218809
20
939.26194671058443
10
1922.8292893218809
20
941.52389342116976
10
1919.8292893218811
20
941.52389342116976
10
1919.8292893218811
20
939.26194671058443
0
CIRCLE
5
140
100
AcDbEntity
8
INTERIOR_PROFILES
100
AcDbCircle
10
-1473.9292893218812
20
952.52389342116976
30
0
40
1.6999999999998749
210
0
220
0
230
-1
0
LWPOLYLINE
5
141
100
AcDbEntity
8
INTERIOR_PROFILES
100
AcDbPolyline
90
4
70
1
43
0.0
10
114.62928932188106
20
941.52389342116976
10
114.62928932188106
20
939.26194671058443
10
117.62928932188117
20
939.26194671058443
10
117.62928932188117
20
941.52389342116976
0
LWPOLYLINE
5
142
100
AcDbEntity
8
INTERIOR_PROFILES
100
AcDbPolyline
90
4
70
1
43
0.0
10
572.82928932188099
20
939.26194671058443
10
572.82928932188099
20
941.52389342116976
10
569.82928932188111
20
941.52389342116976
10
569.82928932188111
20
939.26194671058443
0
CIRCLE
5
143
100
AcDbEntity
8
INTERIOR_PROFILES
100
AcDbCircle
10
-1023.9292893218811
20
952.52389342116976
30
0
40
1.7000000000000171
210
0
220
0
230
-1
0
LWPOLYLINE
5
144
100
AcDbEntity
8
INTERIOR_PROFILES
100
AcDbPolyline
90
4
70
1
43
0.0
10
578.02928932188115
20
939.26194671058443
10
578.02928932188115
20
941.52389342116976
10
575.02928932188127
20
941.52389342116976
10
575.02928932188127
20
939.26194671058443
0
CIRCLE
5
145
100
AcDbEntity
8
INTERIOR_PROFILES
100
AcDbCircle
10
-123.92928932188113
20
952.52389342116976
30
0
40
1.6999999999999993
210
0
220
0
230
-1
0
LWPOLYLINE
5
146
100
AcDbEntity
8
INTERIOR_PROFILES
100
AcDbPolyline
90
8
70
1
43
0.0
10
1012.429289321881
20
938.76194671058499
10
1012.429289321881
20
962.52389342116987
10
1035.4292893218812
20
962.52389342116987
10
1035.4292893218812
20
938.76194671058499
10
1036.4292893218812
20
938.76194671058499
10
1036.4292893218812
20
963.28584013175441
10
1011.4292893218811
20
963.28584013175441
10
1011.4292893218811
20
938.76194671058499
0
LWPOLYLINE
5
147
100
AcDbEntity
8
INTERIOR_PROFILES
100
AcDbPolyline
90
4
70
1
43
0.0
10
1483.2292893218812
20
939.26194671058443
10
1483.2292893218812
20
941.52389342116976
10
1480.229289321881
20
941.52389342116976
10
1480.229289321881
20
939.26194671058443
0
LWPOLYLINE
5
148
100
AcDbEntity
8
INTERIOR_PROFILES
100
AcDbPolyline
90
4
70
1
43
0.0
10
1028.0292893218812
20
939.26194671058443
10
1028.0292893218812
20
941.52389342116976
10
1025.0292893218812
20
941.52389342116976
10
1025.0292893218812
20
939.26194671058443
0
LWPOLYLINE
5
149
100
AcDbEntity
8
INTERIOR_PROFILES
100
AcDbPolyline
90
4
70
1
43
0.0
10
1933.2292893218812
20
941.52389342116976
10
1930.229289321881
20
941.52389342116976
10
1930.229289321881
20
939.26194671058443
10
1933.2292893218812
20
939.26194671058443
0
LWPOLYLINE
5
150
100
AcDbEntity
8
INTERIOR_PROFILES
100
AcDbPolyline
90
8
70
1
43
0.0
10
1912.429289321881
20
938.76194671058499
10
1912.429289321881
20
962.52389342116987
10
1935.4292893218812
20
962.52389342116987
10
1935.4292893218812
20
938.76194671058499
10
1936.4292893218812
20
938.76194671058499
10
1936.4292893218812
20
963.28584013175441
10
1911.4292893218812
20
963.28584013175441
10
1911.4292893218812
20
938.76194671058499
0
LWPOLYLINE
5
151
100
AcDbEntity
8
INTERIOR_PROFILES
100
AcDbPolyline
90
8
70
1
43
0.0
10
112.42928932188107
20
938.76194671058499
10
112.42928932188107
20
962.52389342116987
10
135.42928932188119
20
962.52389342116987
10
135.42928932188119
20
938.76194671058499
10
136.42928932188113
20
938.76194671058499
10
136.42928932188113
20
963.28584013175441
10
111.42928932188113
20
963.28584013175441
10
111.42928932188113
20
938.76194671058499
0
CIRCLE
5
152
100
AcDbEntity
8
INTERIOR_PROFILES
100
AcDbCircle
10
-1923.9292893218812
20
952.52389342116976
30
0
40
1.6999999999998749
210
0
220
0
230
-1
0
LWPOLYLINE
5
153
100
AcDbEntity
8
INTERIOR_PROFILES
100
AcDbPolyline
90
8
70
1
43
0.0
10
585.42928932188124
20
938.76194671058499
10
586.42928932188113
20
938.76194671058499
10
586.42928932188113
20
963.28584013175441
10
561.42928932188113
20
963.28584013175441
10
561.42928932188113
20
938.76194671058499
10
562.42928932188101
20
938.76194671058499
10
562.42928932188101
20
962.52389342116987
10
585.42928932188124
20
962.52389342116987
0
LWPOLYLINE
5
154
100
AcDbEntity
8
INTERIOR_PROFILES
100
AcDbPolyline
90
8
70
1
43
0.0
10
1486.4292893218812
20
938.76194671058499
10
1486.4292893218812
20
963.28584013175441
10
1461.4292893218812
20
963.28584013175441
10
1461.4292893218812
20
938.76194671058499
10
1462.429289321881
20
938.76194671058499
10
1462.429289321881
20
962.52389342116987
10
1485.4292893218812
20
962.52389342116987
10
1485.4292893218812
20
938.76194671058499
0
CIRCLE
5
155
100
AcDbEntity
8
INTERIOR_PROFILES
100
AcDbCircle
10
-798.92928932188056
20
973.54778684233906
30
0
40
1.7000000000000171
210
0
220
0
230
-1
0
CIRCLE
5
156
100
AcDbEntity
8
INTERIOR_PROFILES
100
AcDbCircle
10
-698.92928932188056
20
973.54778684233906
30
0
40
1.7000000000000171
210
0
220
0
230
-1
0
CIRCLE
5
157
100
AcDbEntity
8
INTERIOR_PROFILES
100
AcDbCircle
10
-1448.9292893218806
20
973.54778684233906
30
0
40
1.6999999999998749
210
0
220
0
230
-1
0
CIRCLE
5
158
100
AcDbEntity
8
INTERIOR_PROFILES
100
AcDbCircle
10
-1598.9292893218806
20
973.54778684233906
30
0
40
1.6999999999998749
210
0
220
0
230
-1
0
CIRCLE
5
159
100
AcDbEntity
8
INTERIOR_PROFILES
100
AcDbCircle
10
-1398.9292893218806
20
973.54778684233906
30
0
40
1.6999999999998749
210
0
220
0
230
-1
0
CIRCLE
5
160
100
AcDbEntity
8
INTERIOR_PROFILES
100
AcDbCircle
10
-1998.9292893218806
20
973.54778684233906
30
0
40
1.6999999999998749
210
0
220
0
230
-1
0
CIRCLE
5
161
100
AcDbEntity
8
INTERIOR_PROFILES
100
AcDbCircle
10
-1548.9292893218806
20
973.54778684233906
30
0
40
1.6999999999998749
210
0
220
0
230
-1
0
CIRCLE
5
162
100
AcDbEntity
8
INTERIOR_PROFILES
100
AcDbCircle
10
-448.92928932188056
20
973.54778684233906
30
0
40
1.7000000000000171
210
0
220
0
230
-1
0
CIRCLE
5
163
100
AcDbEntity
8
INTERIOR_PROFILES
100
AcDbCircle
10
-348.92928932188056
20
973.54778684233906
30
0
40
1.7000000000000171
210
0
220
0
230
-1
0
CIRCLE
5
164
100
AcDbEntity
8
INTERIOR_PROFILES
100
AcDbCircle
10
-1098.9292893218806
20
973.54778684233906
30
0
40
1.7000000000000171
210
0
220
0
230
-1
0
CIRCLE
5
165
100
AcDbEntity
8
INTERIOR_PROFILES
100
AcDbCircle
10
-1698.9292893218806
20
973.54778684233906
30
0
40
1.6999999999998749
210
0
220
0
230
-1
0
CIRCLE
5
166
100
AcDbEntity
8
INTERIOR_PROFILES
100
AcDbCircle
10
-1248.9292893218806
20
973.54778684233906
30
0
40
1.7000000000000171
210
0
220
0
230
-1
0
CIRCLE
5
167
100
AcDbEntity
8
INTERIOR_PROFILES
100
AcDbCircle
10
-1748.9292893218806
20
973.54778684233906
30
0
40
1.6999999999998749
210
0
220
0
230
-1
0
CIRCLE
5
168
100
AcDbEntity
8
INTERIOR_PROFILES
100
AcDbCircle
10
-1848.9292893218806
20
973.54778684233906
30
0
40
1.6999999999998749
210
0
220
0
230
-1
0
CIRCLE
5
169
100
AcDbEntity
8
INTERIOR_PROFILES
100
AcDbCircle
10
-1648.9292893218806
20
973.54778684233906
30
0
40
1.6999999999998749
210
0
220
0
230
-1
0
CIRCLE
5
170
100
AcDbEntity
8
INTERIOR_PROFILES
100
AcDbCircle
10
-548.92928932188056
20
973.54778684233906
30
0
40
1.7000000000000171
210
0
220
0
230
-1
0
CIRCLE
5
171
100
AcDbEntity
8
INTERIOR_PROFILES
100
AcDbCircle
10
-1498.9292893218806
20
973.54778684233906
30
0
40
1.6999999999998749
210
0
220
0
230
-1
0
CIRCLE
5
172
100
AcDbEntity
8
INTERIOR_PROFILES
100
AcDbCircle
10
-1898.9292893218806
20
973.54778684233906
30
0
40
1.6999999999998749
210
0
220
0
230
-1
0
CIRCLE
5
173
100
AcDbEntity
8
INTERIOR_PROFILES
100
AcDbCircle
10
-1048.9292893218806
20
973.54778684233906
30
0
40
1.7000000000000171
210
0
220
0
230
-1
0
CIRCLE
5
174
100
AcDbEntity
8
INTERIOR_PROFILES
100
AcDbCircle
10
-648.92928932188056
20
973.54778684233906
30
0
40
1.7000000000000171
210
0
220
0
230
-1
0
CIRCLE
5
175
100
AcDbEntity
8
INTERIOR_PROFILES
100
AcDbCircle
10
-1198.9292893218806
20
973.54778684233906
30
0
40
1.7000000000000171
210
0
220
0
230
-1
0
CIRCLE
5
176
100
AcDbEntity
8
INTERIOR_PROFILES
100
AcDbCircle
10
-198.92928932188056
20
973.54778684233906
30
0
40
1.7000000000000171
210
0
220
0
230
-1
0
CIRCLE
5
177
100
AcDbEntity
8
INTERIOR_PROFILES
100
AcDbCircle
10
-248.92928932188056
20
973.54778684233906
30
0
40
1.7000000000000171
210
0
220
0
230
-1
0
CIRCLE
5
178
100
AcDbEntity
8
INTERIOR_PROFILES
100
AcDbCircle
10
-98.92928932188056
20
973.54778684233906
30
0
40
1.6999999999999993
210
0
220
0
230
-1
0
CIRCLE
5
179
100
AcDbEntity
8
INTERIOR_PROFILES
100
AcDbCircle
10
-848.92928932188056
20
973.54778684233906
30
0
40
1.7000000000000171
210
0
220
0
230
-1
0
CIRCLE
5
180
100
AcDbEntity
8
INTERIOR_PROFILES
100
AcDbCircle
10
-948.92928932188056
20
973.54778684233906
30
0
40
1.7000000000000171
210
0
220
0
230
-1
0
CIRCLE
5
181
100
AcDbEntity
8
INTERIOR_PROFILES
100
AcDbCircle
10
-1798.9292893218806
20
973.54778684233906
30
0
40
1.6999999999998749
210
0
220
0
230
-1
0
CIRCLE
5
182
100
AcDbEntity
8
INTERIOR_PROFILES
100
AcDbCircle
10
-1948.9292893218806
20
973.54778684233906
30
0
40
1.6999999999998749
210
0
220
0
230
-1
0
CIRCLE
5
183
100
AcDbEntity
8
INTERIOR_PROFILES
100
AcDbCircle
10
-898.92928932188056
20
973.54778684233906
30
0
40
1.7000000000000171
210
0
220
0
230
-1
0
CIRCLE
5
184
100
AcDbEntity
8
INTERIOR_PROFILES
100
AcDbCircle
10
-2058.1912360324659
20
813.26194671058477
30
0
40
1.6999999999998749
210
0
220
0
230
-1
0
CIRCLE
5
185
100
AcDbEntity
8
INTERIOR_PROFILES
100
AcDbCircle
10
-2058.1912360324659
20
143.26194671058474
30
0
40
1.6999999999998749
210
0
220
0
230
-1
0
CIRCLE
5
186
100
AcDbEntity
8
INTERIOR_PROFILES
100
AcDbCircle
10
10.33265738870341
20
813.26194671058477
30
0
40
1.7000000000000004
210
0
220
0
230
-1
0
CIRCLE
5
187
100
AcDbEntity
8
INTERIOR_PROFILES
100
AcDbCircle
10
-1348.9292893218806
20
973.54778684233906
30
0
40
1.6999999999998749
210
0
220
0
230
-1
0
CIRCLE
5
188
100
AcDbEntity
8
INTERIOR_PROFILES
100
AcDbCircle
10
-598.92928932188056
20
973.54778684233906
30
0
40
1.7000000000000171
210
0
220
0
230
-1
0
CIRCLE
5
189
100
AcDbEntity
8
INTERIOR_PROFILES
100
AcDbCircle
10
-148.92928932188056
20
973.54778684233906
30
0
40
1.6999999999999993
210
0
220
0
230
-1
0
CIRCLE
5
190
100
AcDbEntity
8
INTERIOR_PROFILES
100
AcDbCircle
10
7.3326573887035806
20
55.261946710584766
30
0
40
1.7000000000000004
210
0
220
0
230
-1
0
CIRCLE
5
191
100
AcDbEntity
8
INTERIOR_PROFILES
100
AcDbCircle
10
-1298.9292893218806
20
973.54778684233906
30
0
40
1.6999999999998749
210
0
220
0
230
-1
0
CIRCLE
5
192
100
AcDbEntity
8
INTERIOR_PROFILES
100
AcDbCircle
10
-398.92928932188056
20
973.54778684233906
30
0
40
1.7000000000000171
210
0
220
0
230
-1
0
CIRCLE
5
193
100
AcDbEntity
8
INTERIOR_PROFILES
100
AcDbCircle
10
-748.92928932188056
20
973.54778684233906
30
0
40
1.7000000000000171
210
0
220
0
230
-1
0
CIRCLE
5
194
100
AcDbEntity
8
INTERIOR_PROFILES
100
AcDbCircle
10
10.33265738870341
20
513.26194671058477
30
0
40
1.7000000000000004
210
0
220
0
230
-1
0
CIRCLE
5
195
100
AcDbEntity
8
INTERIOR_PROFILES
100
AcDbCircle
10
10.33265738870341
20
743.26194671058477
30
0
40
1.7000000000000004
210
0
220
0
230
-1
0
CIRCLE
5
196
100
AcDbEntity
8
INTERIOR_PROFILES
100
AcDbCircle
10
-998.92928932188056
20
973.54778684233906
30
0
40
1.7000000000000171
210
0
220
0
230
-1
0
CIRCLE
5
197
100
AcDbEntity
8
INTERIOR_PROFILES
100
AcDbCircle
10
-498.92928932188056
20
973.54778684233906
30
0
40
1.7000000000000171
210
0
220
0
230
-1
0
CIRCLE
5
198
100
AcDbEntity
8
INTERIOR_PROFILES
100
AcDbCircle
10
-48.92928932188056
20
973.54778684233906
30
0
40
1.6999999999999993
210
0
220
0
230
-1
0
CIRCLE
5
199
100
AcDbEntity
8
INTERIOR_PROFILES
100
AcDbCircle
10
7.3326573887035806
20
926.26194671058465
30
0
40
1.7000000000000004
210
0
220
0
230
-1
0
CIRCLE
5
200
100
AcDbEntity
8
INTERIOR_PROFILES
100
AcDbCircle
10
-2055.1912360324659
20
55.261946710584766
30
0
40
1.6999999999998749
210
0
220
0
230
-1
0
CIRCLE
5
201
100
AcDbEntity
8
INTERIOR_PROFILES
100
AcDbCircle
10
-2055.1912360324659
20
901.26194671058465
30
0
40
1.6999999999998749
210
0
220
0
230
-1
0
CIRCLE
5
202
100
AcDbEntity
8
INTERIOR_PROFILES
100
AcDbCircle
10
10.33265738870341
20
213.26194671058474
30
0
40
1.7000000000000004
210
0
220
0
230
-1
0
CIRCLE
5
203
100
AcDbEntity
8
INTERIOR_PROFILES
100
AcDbCircle
10
-2055.1912360324659
20
926.26194671058465
30
0
40
1.6999999999998749
210
0
220
0
230
-1
0
CIRCLE
5
204
100
AcDbEntity
8
INTERIOR_PROFILES
100
AcDbCircle
10
-2058.1912360324659
20
443.26194671058477
30
0
40
1.6999999999998749
210
0
220
0
230
-1
0
CIRCLE
5
205
100
AcDbEntity
8
INTERIOR_PROFILES
100
AcDbCircle
10
-2058.1912360324659
20
743.26194671058477
30
0
40
1.6999999999998749
210
0
220
0
230
-1
0
CIRCLE
5
206
100
AcDbEntity
8
INTERIOR_PROFILES
100
AcDbCircle
10
10.33265738870341
20
443.26194671058477
30
0
40
1.7000000000000004
210
0
220
0
230
-1
0
CIRCLE
5
207
100
AcDbEntity
8
INTERIOR_PROFILES
100
AcDbCircle
10
7.3326573887035806
20
901.26194671058465
30
0
40
1.7000000000000004
210
0
220
0
230
-1
0
CIRCLE
5
208
100
AcDbEntity
8
INTERIOR_PROFILES
100
AcDbCircle
10
-298.92928932188056
20
973.54778684233906
30
0
40
1.7000000000000171
210
0
220
0
230
-1
0
CIRCLE
5
209
100
AcDbEntity
8
INTERIOR_PROFILES
100
AcDbCircle
10
-2058.1912360324659
20
513.26194671058477
30
0
40
1.6999999999998749
210
0
220
0
230
-1
0
CIRCLE
5
210
100
AcDbEntity
8
INTERIOR_PROFILES
100
AcDbCircle
10
-1148.9292893218806
20
973.54778684233906
30
0
40
1.7000000000000171
210
0
220
0
230
-1
0
CIRCLE
5
211
100
AcDbEntity
8
INTERIOR_PROFILES
100
AcDbCircle
10
10.33265738870341
20
143.26194671058474
30
0
40
1.7000000000000004
210
0
220
0
230
-1
0
CIRCLE
5
212
100
AcDbEntity
8
INTERIOR_PROFILES
100
AcDbCircle
10
-2058.1912360324659
20
213.26194671058474
30
0
40
1.6999999999998749
210
0
220
0
230
-1
0
CIRCLE
5
213
100
AcDbEntity
8
INTERIOR_PROFILES
100
AcDbCircle
10
7.3326573887035806
20
30.261946710584766
30
0
40
1.7000000000000004
210
0
220
0
230
-1
0
CIRCLE
5
214
100
AcDbEntity
8
INTERIOR_PROFILES
100
AcDbCircle
10
-2055.1912360324659
20
30.261946710584766
30
0
40
1.6999999999998749
210
0
220
0
230
-1
0
ENDSEC
0
SECTION
2
OBJECTS
0
DICTIONARY
5
C
100
AcDbDictionary
3
ACAD_GROUP
350
D
3
ACAD_MLINESTYLE
350
17
0
DICTIONARY
5
D
100
AcDbDictionary
0
DICTIONARY
5
1A
330
C
100
AcDbDictionary
0
DICTIONARY
5
17
100
AcDbDictionary
0
ENDSEC
0
EOF
