  0
SECTION
  2
HEADER
  9
$ACADVER
  1
AC1015
  9
$ACADMAINTVER
 70
6
  9
$DWGCODEPAGE
  3
ANSI_1252
  9
$EXTMIN
 10
1e+20
 20
1e+20
 30
1e+20
  9
$EXTMAX
 10
-1e+20
 20
-1e+20
 30
-1e+20
  9
$LIMMIN
 10
0.0
 20
0.0
  9
$LIMMAX
 10
420.0
 20
297.0
  9
$TDCREATE
 40
2461218.3841550928
  9
$TDUPDATE
 40
2461218.3841550928
  9
$HANDSEED
  5
10073
  9
$PEXTMIN
 10
1e+20
 20
1e+20
 30
1e+20
  9
$PEXTMAX
 10
-1e+20
 20
-1e+20
 30
-1e+20
  9
$PLIMMIN
 10
0.0
 20
0.0
  9
$PLIMMAX
 10
420.0
 20
297.0
  9
$INSUNITS
 70
4
  9
$FINGERPRINTGUID
  2
{D1AF0E8B-779C-4109-B6A9-AD24DB64D135}
  9
$VERSIONGUID
  2
{F1A8CAEF-000B-4B86-9B84-7F5F84370A47}
  0
ENDSEC
  0
SECTION
  2
CLASSES
  0
CLASS
  1
ACDBDICTIONARYWDFLT
  2
AcDbDictionaryWithDefault
  3
ObjectDBX Classes
 90
0
280
0
281
0
  0
CLASS
  1
SUN
  2
AcDbSun
  3
SCENEOE
 90
1153
280
0
281
0
  0
CLASS
  1
VISUALSTYLE
  2
AcDbVisualStyle
  3
ObjectDBX Classes
 90
4095
280
0
281
0
  0
CLASS
  1
MATERIAL
  2
AcDbMaterial
  3
ObjectDBX Classes
 90
1153
280
0
281
0
  0
CLASS
  1
SCALE
  2
AcDbScale
  3
ObjectDBX Classes
 90
1153
280
0
281
0
  0
CLASS
  1
TABLESTYLE
  2
AcDbTableStyle
  3
ObjectDBX Classes
 90
4095
280
0
281
0
  0
CLASS
  1
MLEADERSTYLE
  2
AcDbMLeaderStyle
  3
ACDB_MLEADERSTYLE_CLASS
 90
4095
280
0
281
0
  0
CLASS
  1
DICTIONARYVAR
  2
AcDbDictionaryVar
  3
ObjectDBX Classes
 90
0
280
0
281
0
  0
CLASS
  1
CELLSTYLEMAP
  2
AcDbCellStyleMap
  3
ObjectDBX Classes
 90
1152
280
0
281
0
  0
CLASS
  1
MENTALRAYRENDERSETTINGS
  2
AcDbMentalRayRenderSettings
  3
SCENEOE
 90
1024
280
0
281
0
  0
CLASS
  1
ACDBDETAILVIEWSTYLE
  2
AcDbDetailViewStyle
  3
ObjectDBX Classes
 90
1025
280
0
281
0
  0
CLASS
  1
ACDBSECTIONVIEWSTYLE
  2
AcDbSectionViewStyle
  3
ObjectDBX Classes
 90
1025
280
0
281
0
  0
CLASS
  1
RASTERVARIABLES
  2
AcDbRasterVariables
  3
ISM
 90
0
280
0
281
0
  0
CLASS
  1
ACDBPLACEHOLDER
  2
AcDbPlaceHolder
  3
ObjectDBX Classes
 90
0
280
0
281
0
  0
CLASS
  1
LAYOUT
  2
AcDbLayout
  3
ObjectDBX Classes
 90
0
280
0
281
0
  0
ENDSEC
  0
SECTION
  2
TABLES
  0
TABLE
  2
VPORT
  5
8
330
0
100
AcDbSymbolTable
 70
1
  0
VPORT
  5
1006A
330
8
100
AcDbSymbolTableRecord
100
AcDbViewportTableRecord
  2
*Active
 70
0
 10
0.0
 20
0.0
 11
1.0
 21
1.0
 12
0.0
 22
0.0
 13
0.0
 23
0.0
 14
0.5
 24
0.5
 15
0.5
 25
0.5
 16
0.0
 26
0.0
 36
1.0
 17
0.0
 27
0.0
 37
0.0
 40
1000.0
 41
1.34
 42
50.0
 43
0.0
 44
0.0
 50
0.0
 51
0.0
 71
0
 72
1000
 73
1
 74
3
 75
0
 76
0
 77
0
 78
0
281
0
 65
0
146
0.0
  0
ENDTAB
  0
TABLE
  2
LTYPE
  5
5
330
0
100
AcDbSymbolTable
 70
4
  0
LTYPE
  5
16
330
5
100
AcDbSymbolTableRecord
100
AcDbLinetypeTableRecord
  2
DASHED
 70
0
  3
Dashed __ __ __ __ __ __ __ __ __ __ __ __ __ _
 72
65
 73
2
 40
0.75
 49
0.5
 74
0
 49
-0.25
 74
0
  0
LTYPE
  5
1006B
330
5
100
AcDbSymbolTableRecord
100
AcDbLinetypeTableRecord
  2
Continuous
 70
0
  3

 72
65
 73
0
 40
0.0
  0
ENDTAB
  0
TABLE
  2
LAYER
  5
2
330
0
100
AcDbSymbolTable
 70
2
  0
LAYER
  5
50
330
2
100
AcDbSymbolTableRecord
100
AcDbLayerTableRecord
  2
0
 70
0
 62
7
  6
CONTINUOUS
370
-3
390
10060
  0
LAYER
  5
1006C
330
2
100
AcDbSymbolTableRecord
100
AcDbLayerTableRecord
  2
Defpoints
 70
0
 62
7
  6
Continuous
290
0
370
-3
390
10060
  0
ENDTAB
  0
TABLE
  2
STYLE
  5
3
330
0
100
AcDbSymbolTable
 70
1
  0
STYLE
  5
11
330
3
100
AcDbSymbolTableRecord
100
AcDbTextStyleTableRecord
  2
STANDARD
 70
0
 40
0.0
 41
1.0
 50
0.0
 71
0
 42
2.5
  3
txt
  4

  0
ENDTAB
  0
TABLE
  2
VIEW
  5
6
330
0
100
AcDbSymbolTable
 70
0
  0
ENDTAB
  0
TABLE
  2
UCS
  5
7
330
0
100
AcDbSymbolTable
 70
0
  0
ENDTAB
  0
TABLE
  2
APPID
  5
9
330
0
100
AcDbSymbolTable
 70
3
  0
APPID
  5
12
330
9
100
AcDbSymbolTableRecord
100
AcDbRegAppTableRecord
  2
ACAD
 70
0
  0
APPID
  5
1006F
330
9
100
AcDbSymbolTableRecord
100
AcDbRegAppTableRecord
  2
HATCHBACKGROUNDCOLOR
 70
0
  0
APPID
  5
10070
330
9
100
AcDbSymbolTableRecord
100
AcDbRegAppTableRecord
  2
EZDXF
 70
0
  0
ENDTAB
  0
TABLE
  2
DIMSTYLE
  5
A
330
0
100
AcDbSymbolTable
 70
1
100
AcDbDimStyleTable
  0
DIMSTYLE
105
1006D
330
A
100
AcDbSymbolTableRecord
100
AcDbDimStyleTableRecord
  2
Standard
 70
0
  3

  4

 40
1.0
 41
2.5
 42
0.625
 43
3.75
 44
1.25
 45
0.0
 46
0.0
 47
0.0
 48
0.0
140
2.5
141
2.5
142
0.0
143
0.03937007874
144
1.0
145
0.0
146
1.0
147
0.625
148
0.0
 71
0
 72
0
 73
0
 74
0
 75
0
 76
0
 77
1
 78
8
 79
3
170
0
171
3
172
1
173
0
174
0
175
0
176
0
177
0
178
0
179
2
271
2
272
2
273
2
274
3
275
0
276
0
277
2
278
44
279
0
280
0
281
0
282
0
283
0
284
8
285
0
286
0
288
0
289
3
371
-2
372
-2
  0
ENDTAB
  0
TABLE
  2
BLOCK_RECORD
  5
1
330
0
100
AcDbSymbolTable
 70
22
  0
BLOCK_RECORD
  5
1F
330
1
100
AcDbSymbolTableRecord
100
AcDbBlockTableRecord
  2
*MODEL_SPACE
340
10064
  0
BLOCK_RECORD
  5
1B
330
1
100
AcDbSymbolTableRecord
100
AcDbBlockTableRecord
  2
*PAPER_SPACE
340
10065
  0
BLOCK_RECORD
  5
FFFF
330
1
100
AcDbSymbolTableRecord
100
AcDbBlockTableRecord
  2
_CLOSEDFILLED
340
0
  0
BLOCK_RECORD
  5
10003
330
1
100
AcDbSymbolTableRecord
100
AcDbBlockTableRecord
  2
_OPEN90
340
0
  0
BLOCK_RECORD
  5
10008
330
1
100
AcDbSymbolTableRecord
100
AcDbBlockTableRecord
  2
_DATUMBLANK
340
0
  0
BLOCK_RECORD
  5
1000C
330
1
100
AcDbSymbolTableRecord
100
AcDbBlockTableRecord
  2
_BOXBLANK
340
0
  0
BLOCK_RECORD
  5
10011
330
1
100
AcDbSymbolTableRecord
100
AcDbBlockTableRecord
  2
_ORIGIN
340
0
  0
BLOCK_RECORD
  5
10016
330
1
100
AcDbSymbolTableRecord
100
AcDbBlockTableRecord
  2
_CLOSED
340
0
  0
BLOCK_RECORD
  5
1001B
330
1
100
AcDbSymbolTableRecord
100
AcDbBlockTableRecord
  2
_OPEN30
340
0
  0
BLOCK_RECORD
  5
10020
330
1
100
AcDbSymbolTableRecord
100
AcDbBlockTableRecord
  2
_DOTBLANK
340
0
  0
BLOCK_RECORD
  5
10025
330
1
100
AcDbSymbolTableRecord
100
AcDbBlockTableRecord
  2
_ORIGIN2
340
0
  0
BLOCK_RECORD
  5
1002B
330
1
100
AcDbSymbolTableRecord
100
AcDbBlockTableRecord
  2
_CLOSEDBLANK
340
0
  0
BLOCK_RECORD
  5
1002F
330
1
100
AcDbSymbolTableRecord
100
AcDbBlockTableRecord
  2
_INTEGRAL
340
0
  0
BLOCK_RECORD
  5
10034
330
1
100
AcDbSymbolTableRecord
100
AcDbBlockTableRecord
  2
_DOT
340
0
  0
BLOCK_RECORD
  5
10039
330
1
100
AcDbSymbolTableRecord
100
AcDbBlockTableRecord
  2
_NONE
340
0
  0
BLOCK_RECORD
  5
1003C
330
1
100
AcDbSymbolTableRecord
100
AcDbBlockTableRecord
  2
_ARCHTICK
340
0
  0
BLOCK_RECORD
  5
10040
330
1
100
AcDbSymbolTableRecord
100
AcDbBlockTableRecord
  2
_DATUMFILLED
340
0
  0
BLOCK_RECORD
  5
10044
330
1
100
AcDbSymbolTableRecord
100
AcDbBlockTableRecord
  2
_OPEN
340
0
  0
BLOCK_RECORD
  5
10049
330
1
100
AcDbSymbolTableRecord
100
AcDbBlockTableRecord
  2
_SMALL
340
0
  0
BLOCK_RECORD
  5
1004D
330
1
100
AcDbSymbolTableRecord
100
AcDbBlockTableRecord
  2
_DOTSMALL
340
0
  0
BLOCK_RECORD
  5
10051
330
1
100
AcDbSymbolTableRecord
100
AcDbBlockTableRecord
  2
_BOXFILLED
340
0
  0
BLOCK_RECORD
  5
10056
330
1
100
AcDbSymbolTableRecord
100
AcDbBlockTableRecord
  2
_OBLIQUE
340
0
  0
ENDTAB
  0
ENDSEC
  0
SECTION
  2
BLOCKS
  0
BLOCK
  5
20
330
1F
100
AcDbEntity
  8
0
100
AcDbBlockBegin
  2
*MODEL_SPACE
 70
0
 10
0.0
 20
0.0
 30
0.0
  3
*MODEL_SPACE
  1

  0
ENDBLK
  5
21
330
1F
100
AcDbEntity
  8
0
100
AcDbBlockEnd
  0
BLOCK
  5
1C
330
1B
100
AcDbEntity
  8
0
100
AcDbBlockBegin
  2
*PAPER_SPACE
 70
0
 10
0.0
 20
0.0
 30
0.0
  3
*PAPER_SPACE
  1

  0
ENDBLK
  5
1D
330
1B
100
AcDbEntity
  8
0
100
AcDbBlockEnd
  0
BLOCK
  5
10000
330
FFFF
100
AcDbEntity
  8
0
100
AcDbBlockBegin
  2
_CLOSEDFILLED
 70
0
 10
0.0
 20
0.0
 30
0.0
  3
_CLOSEDFILLED
  1

  0
SOLID
  5
10002
330
FFFF
100
AcDbEntity
  8
0
  6
BYBLOCK
 62
0
100
AcDbTrace
 10
-1.0
 20
0.16439898372402537
 30
0.0
 11
0.0
 21
0.0
 31
0.0
 12
-1.0
 22
-0.16439898372402537
 32
0.0
 13
-1.0
 23
-0.16439898372402537
 33
0.0
  0
ENDBLK
  5
10001
330
FFFF
100
AcDbEntity
  8
0
100
AcDbBlockEnd
  0
BLOCK
  5
10004
330
10003
100
AcDbEntity
  8
0
100
AcDbBlockBegin
  2
_OPEN90
 70
0
 10
0.0
 20
0.0
 30
0.0
  3
_OPEN90
  1

  0
LWPOLYLINE
  5
10006
330
10003
100
AcDbEntity
  8
0
  6
BYBLOCK
 62
0
100
AcDbPolyline
 90
3
 70
0
 10
-1.0
 20
0.7071067811865476
 10
0.0
 20
0.0
 10
-1.0
 20
-0.7071067811865476
  0
LINE
  5
10007
330
10003
100
AcDbEntity
  8
0
  6
BYBLOCK
 62
0
100
AcDbLine
 10
0.0
 20
0.0
 30
0.0
 11
-1.0
 21
0.0
 31
0.0
  0
ENDBLK
  5
10005
330
10003
100
AcDbEntity
  8
0
100
AcDbBlockEnd
  0
BLOCK
  5
10009
330
10008
100
AcDbEntity
  8
0
100
AcDbBlockBegin
  2
_DATUMBLANK
 70
0
 10
0.0
 20
0.0
 30
0.0
  3
_DATUMBLANK
  1

  0
LWPOLYLINE
  5
1000B
330
10008
100
AcDbEntity
  8
0
  6
BYBLOCK
 62
0
100
AcDbPolyline
 90
3
 70
1
 10
0.0
 20
0.577350269
 10
0.0
 20
-0.577350269
 10
-1.0
 20
0.0
  0
ENDBLK
  5
1000A
330
10008
100
AcDbEntity
  8
0
100
AcDbBlockEnd
  0
BLOCK
  5
1000D
330
1000C
100
AcDbEntity
  8
0
100
AcDbBlockBegin
  2
_BOXBLANK
 70
0
 10
0.0
 20
0.0
 30
0.0
  3
_BOXBLANK
  1

  0
LWPOLYLINE
  5
1000F
330
1000C
100
AcDbEntity
  8
0
  6
BYBLOCK
 62
0
100
AcDbPolyline
 90
4
 70
1
 10
-0.5
 20
-0.5
 10
0.5
 20
-0.5
 10
0.5
 20
0.5
 10
-0.5
 20
0.5
  0
LINE
  5
10010
330
1000C
100
AcDbEntity
  8
0
  6
BYBLOCK
 62
0
100
AcDbLine
 10
-0.5
 20
0.0
 30
0.0
 11
-1.0
 21
0.0
 31
0.0
  0
ENDBLK
  5
1000E
330
1000C
100
AcDbEntity
  8
0
100
AcDbBlockEnd
  0
BLOCK
  5
10012
330
10011
100
AcDbEntity
  8
0
100
AcDbBlockBegin
  2
_ORIGIN
 70
0
 10
0.0
 20
0.0
 30
0.0
  3
_ORIGIN
  1

  0
CIRCLE
  5
10014
330
10011
100
AcDbEntity
  8
0
  6
BYBLOCK
 62
0
100
AcDbCircle
 10
0.0
 20
0.0
 30
0.0
 40
0.5
  0
LINE
  5
10015
330
10011
100
AcDbEntity
  8
0
  6
BYBLOCK
 62
0
100
AcDbLine
 10
0.0
 20
0.0
 30
0.0
 11
-1.0
 21
0.0
 31
0.0
  0
ENDBLK
  5
10013
330
10011
100
AcDbEntity
  8
0
100
AcDbBlockEnd
  0
BLOCK
  5
10017
330
10016
100
AcDbEntity
  8
0
100
AcDbBlockBegin
  2
_CLOSED
 70
0
 10
0.0
 20
0.0
 30
0.0
  3
_CLOSED
  1

  0
LWPOLYLINE
  5
10019
330
10016
100
AcDbEntity
  8
0
  6
BYBLOCK
 62
0
100
AcDbPolyline
 90
3
 70
1
 10
-1.0
 20
0.16439898372402537
 10
0.0
 20
0.0
 10
-1.0
 20
-0.16439898372402537
  0
LINE
  5
1001A
330
10016
100
AcDbEntity
  8
0
  6
BYBLOCK
 62
0
100
AcDbLine
 10
0.0
 20
0.0
 30
0.0
 11
-1.0
 21
0.0
 31
0.0
  0
ENDBLK
  5
10018
330
10016
100
AcDbEntity
  8
0
100
AcDbBlockEnd
  0
BLOCK
  5
1001C
330
1001B
100
AcDbEntity
  8
0
100
AcDbBlockBegin
  2
_OPEN30
 70
0
 10
0.0
 20
0.0
 30
0.0
  3
_OPEN30
  1

  0
LWPOLYLINE
  5
1001E
330
1001B
100
AcDbEntity
  8
0
  6
BYBLOCK
 62
0
100
AcDbPolyline
 90
3
 70
0
 10
-1.0
 20
0.25881904510252074
 10
0.0
 20
0.0
 10
-1.0
 20
-0.25881904510252074
  0
LINE
  5
1001F
330
1001B
100
AcDbEntity
  8
0
  6
BYBLOCK
 62
0
100
AcDbLine
 10
0.0
 20
0.0
 30
0.0
 11
-1.0
 21
0.0
 31
0.0
  0
ENDBLK
  5
1001D
330
1001B
100
AcDbEntity
  8
0
100
AcDbBlockEnd
  0
BLOCK
  5
10021
330
10020
100
AcDbEntity
  8
0
100
AcDbBlockBegin
  2
_DOTBLANK
 70
0
 10
0.0
 20
0.0
 30
0.0
  3
_DOTBLANK
  1

  0
CIRCLE
  5
10023
330
10020
100
AcDbEntity
  8
0
  6
BYBLOCK
 62
0
100
AcDbCircle
 10
0.0
 20
0.0
 30
0.0
 40
0.5
  0
LINE
  5
10024
330
10020
100
AcDbEntity
  8
0
  6
BYBLOCK
 62
0
100
AcDbLine
 10
-0.5
 20
0.0
 30
0.0
 11
-1.0
 21
0.0
 31
0.0
  0
ENDBLK
  5
10022
330
10020
100
AcDbEntity
  8
0
100
AcDbBlockEnd
  0
BLOCK
  5
10026
330
10025
100
AcDbEntity
  8
0
100
AcDbBlockBegin
  2
_ORIGIN2
 70
0
 10
0.0
 20
0.0
 30
0.0
  3
_ORIGIN2
  1

  0
CIRCLE
  5
10028
330
10025
100
AcDbEntity
  8
0
  6
BYBLOCK
 62
0
100
AcDbCircle
 10
0.0
 20
0.0
 30
0.0
 40
0.5
  0
CIRCLE
  5
10029
330
10025
100
AcDbEntity
  8
0
  6
BYBLOCK
 62
0
100
AcDbCircle
 10
0.0
 20
0.0
 30
0.0
 40
0.25
  0
LINE
  5
1002A
330
10025
100
AcDbEntity
  8
0
  6
BYBLOCK
 62
0
100
AcDbLine
 10
-0.5
 20
0.0
 30
0.0
 11
-1.0
 21
0.0
 31
0.0
  0
ENDBLK
  5
10027
330
10025
100
AcDbEntity
  8
0
100
AcDbBlockEnd
  0
BLOCK
  5
1002C
330
1002B
100
AcDbEntity
  8
0
100
AcDbBlockBegin
  2
_CLOSEDBLANK
 70
0
 10
0.0
 20
0.0
 30
0.0
  3
_CLOSEDBLANK
  1

  0
LWPOLYLINE
  5
1002E
330
1002B
100
AcDbEntity
  8
0
  6
BYBLOCK
 62
0
100
AcDbPolyline
 90
3
 70
1
 10
-1.0
 20
0.16439898372402537
 10
0.0
 20
0.0
 10
-1.0
 20
-0.16439898372402537
  0
ENDBLK
  5
1002D
330
1002B
100
AcDbEntity
  8
0
100
AcDbBlockEnd
  0
BLOCK
  5
10030
330
1002F
100
AcDbEntity
  8
0
100
AcDbBlockBegin
  2
_INTEGRAL
 70
0
 10
0.0
 20
0.0
 30
0.0
  3
_INTEGRAL
  1

  0
ARC
  5
10032
330
1002F
100
AcDbEntity
  8
0
  6
BYBLOCK
 62
0
100
AcDbCircle
 10
-0.3535534
 20
0.0
 30
0.0
 40
0.3535534
100
AcDbArc
 50
-90.0
 51
0.0
  0
ARC
  5
10033
330
1002F
100
AcDbEntity
  8
0
  6
BYBLOCK
 62
0
100
AcDbCircle
 10
0.3535534
 20
0.0
 30
0.0
 40
0.3535534
100
AcDbArc
 50
90.0
 51
180.0
  0
ENDBLK
  5
10031
330
1002F
100
AcDbEntity
  8
0
100
AcDbBlockEnd
  0
BLOCK
  5
10035
330
10034
100
AcDbEntity
  8
0
100
AcDbBlockBegin
  2
_DOT
 70
0
 10
0.0
 20
0.0
 30
0.0
  3
_DOT
  1

  0
LINE
  5
10037
330
10034
100
AcDbEntity
  8
0
  6
BYBLOCK
 62
0
100
AcDbLine
 10
-0.5
 20
0.0
 30
0.0
 11
-1.0
 21
0.0
 31
0.0
  0
LWPOLYLINE
  5
10038
330
10034
100
AcDbEntity
  8
0
  6
BYBLOCK
 62
0
100
AcDbPolyline
 90
2
 70
1
 43
0.5
 10
-0.25
 20
0.0
 42
1.0
 10
0.25
 20
0.0
 42
1.0
  0
ENDBLK
  5
10036
330
10034
100
AcDbEntity
  8
0
100
AcDbBlockEnd
  0
BLOCK
  5
1003A
330
10039
100
AcDbEntity
  8
0
100
AcDbBlockBegin
  2
_NONE
 70
0
 10
0.0
 20
0.0
 30
0.0
  3
_NONE
  1

  0
ENDBLK
  5
1003B
330
10039
100
AcDbEntity
  8
0
100
AcDbBlockEnd
  0
BLOCK
  5
1003D
330
1003C
100
AcDbEntity
  8
0
100
AcDbBlockBegin
  2
_ARCHTICK
 70
0
 10
0.0
 20
0.0
 30
0.0
  3
_ARCHTICK
  1

  0
LWPOLYLINE
  5
1003F
330
1003C
100
AcDbEntity
  8
0
  6
BYBLOCK
 62
0
100
AcDbPolyline
 90
2
 70
0
 43
0.15
 10
-0.5
 20
-0.5
 10
0.5
 20
0.5
  0
ENDBLK
  5
1003E
330
1003C
100
AcDbEntity
  8
0
100
AcDbBlockEnd
  0
BLOCK
  5
10041
330
10040
100
AcDbEntity
  8
0
100
AcDbBlockBegin
  2
_DATUMFILLED
 70
0
 10
0.0
 20
0.0
 30
0.0
  3
_DATUMFILLED
  1

  0
SOLID
  5
10043
330
10040
100
AcDbEntity
  8
0
  6
BYBLOCK
 62
0
100
AcDbTrace
 10
0.0
 20
0.577350269
 30
0.0
 11
0.0
 21
-0.577350269
 31
0.0
 12
-1.0
 22
0.0
 32
0.0
 13
-1.0
 23
0.0
 33
0.0
  0
ENDBLK
  5
10042
330
10040
100
AcDbEntity
  8
0
100
AcDbBlockEnd
  0
BLOCK
  5
10045
330
10044
100
AcDbEntity
  8
0
100
AcDbBlockBegin
  2
_OPEN
 70
0
 10
0.0
 20
0.0
 30
0.0
  3
_OPEN
  1

  0
LWPOLYLINE
  5
10047
330
10044
100
AcDbEntity
  8
0
  6
BYBLOCK
 62
0
100
AcDbPolyline
 90
3
 70
0
 10
-1.0
 20
0.16439898372402537
 10
0.0
 20
0.0
 10
-1.0
 20
-0.16439898372402537
  0
LINE
  5
10048
330
10044
100
AcDbEntity
  8
0
  6
BYBLOCK
 62
0
100
AcDbLine
 10
0.0
 20
0.0
 30
0.0
 11
-1.0
 21
0.0
 31
0.0
  0
ENDBLK
  5
10046
330
10044
100
AcDbEntity
  8
0
100
AcDbBlockEnd
  0
BLOCK
  5
1004A
330
10049
100
AcDbEntity
  8
0
100
AcDbBlockBegin
  2
_SMALL
 70
0
 10
0.0
 20
0.0
 30
0.0
  3
_SMALL
  1

  0
CIRCLE
  5
1004C
330
10049
100
AcDbEntity
  8
0
  6
BYBLOCK
 62
0
100
AcDbCircle
 10
0.0
 20
0.0
 30
0.0
 40
0.25
  0
ENDBLK
  5
1004B
330
10049
100
AcDbEntity
  8
0
100
AcDbBlockEnd
  0
BLOCK
  5
1004E
330
1004D
100
AcDbEntity
  8
0
100
AcDbBlockBegin
  2
_DOTSMALL
 70
0
 10
0.0
 20
0.0
 30
0.0
  3
_DOTSMALL
  1

  0
LWPOLYLINE
  5
10050
330
1004D
100
AcDbEntity
  8
0
  6
BYBLOCK
 62
0
100
AcDbPolyline
 90
2
 70
1
 43
0.125
 10
-0.0625
 20
0.0
 42
1.0
 10
0.0625
 20
0.0
 42
1.0
  0
ENDBLK
  5
1004F
330
1004D
100
AcDbEntity
  8
0
100
AcDbBlockEnd
  0
BLOCK
  5
10052
330
10051
100
AcDbEntity
  8
0
100
AcDbBlockBegin
  2
_BOXFILLED
 70
0
 10
0.0
 20
0.0
 30
0.0
  3
_BOXFILLED
  1

  0
SOLID
  5
10054
330
10051
100
AcDbEntity
  8
0
  6
BYBLOCK
 62
0
100
AcDbTrace
 10
-0.5
 20
-0.5
 30
0.0
 11
0.5
 21
-0.5
 31
0.0
 12
-0.5
 22
0.5
 32
0.0
 13
0.5
 23
0.5
 33
0.0
  0
LINE
  5
10055
330
10051
100
AcDbEntity
  8
0
  6
BYBLOCK
 62
0
100
AcDbLine
 10
-0.5
 20
0.0
 30
0.0
 11
-1.0
 21
0.0
 31
0.0
  0
ENDBLK
  5
10053
330
10051
100
AcDbEntity
  8
0
100
AcDbBlockEnd
  0
BLOCK
  5
10057
330
10056
100
AcDbEntity
  8
0
100
AcDbBlockBegin
  2
_OBLIQUE
 70
0
 10
0.0
 20
0.0
 30
0.0
  3
_OBLIQUE
  1

  0
LINE
  5
10059
330
10056
100
AcDbEntity
  8
0
  6
BYBLOCK
 62
0
100
AcDbLine
 10
-0.5
 20
-0.5
 30
0.0
 11
0.5
 21
0.5
 31
0.0
  0
ENDBLK
  5
10058
330
10056
100
AcDbEntity
  8
0
100
AcDbBlockEnd
  0
ENDSEC
  0
SECTION
  2
ENTITIES
  0
LWPOLYLINE
  5
100
330
1F
100
AcDbEntity
  8
OUTER_PROFILES
100
AcDbPolyline
 90
34
 70
1
 10
691.8292893218814
 20
298.91681348704145
 10
691.8292893218813
 20
320.2582304850089
 10
691.3792893218813
 20
321.5442304850089
 10
690.8585786440603
 20
322.6752038409285
 10
688.8585786441167
 20
324.67520384200697
 10
-7.51896322981338e-10
 20
324.6752038407659
 10
-2.0000000005185825
 20
322.67520384030803
 10
-2.5207106781186894
 20
321.54423048500894
 10
-2.9707106781187065
 20
320.258230485009
 10
-2.9707106781187065
 20
298.91681348704157
 10
-5.746870951078895
 20
296.93810698354093
 10
-20.332657388703268
 20
282.35232054590665
 10
-22.59460409925822
 20
279.4531827416157
 10
-24.594604098980994
 20
277.4531827412853
 10
-24.594604099257822
 20
24.594604099289725
 10
-22.594604099257936
 20
22.594604099266537
 10
-20.332657388703268
 20
20.52400020235602
 10
-4.332657388703325
 20
20.52400020235602
 10
-2.970603896932147
 20
20.261946710584734
 10
-2.9706038969320048
 20
4.261946710584756
 10
-1.9999999999791385
 20
2.0000000000001705
 10
2.7755575615628914e-16
 20
0.0
 10
688.8585786437626
 20
1.4210854715202004e-13
 10
690.8585786437628
 20
2.0000000000000284
 10
691.8291825407158
 20
4.261946710706348
 10
691.8291825406947
 20
20.261946710584656
 10
693.1912360324661
 20
20.52400020235602
 10
709.191236032466
 20
20.52400020235602
 10
711.4531827430155
 20
22.594604099266675
 10
713.4531827430145
 20
24.594604099286883
 10
713.4531827427382
 20
277.4531827412852
 10
711.4531827430154
 20
279.4531827416157
 10
709.1912360324659
 20
282.3523205459103
 10
694.6054495948352
 20
296.93810698353093
  0
LINE
  5
101
330
1F
100
AcDbEntity
  8
BEND
100
AcDbLine
 10
-2.4853019484447714
 20
3.130973355292548
 30
1.6989465390082614e-10
 11
691.3438805921976
 21
3.1309733552933983
 31
-2.882694083439122e-12
  0
LINE
  5
102
330
1F
100
AcDbEntity
  8
BEND
100
AcDbLine
 10
-21.46363074398053
 20
280.90275164376146
 30
1.6955674363062282e-10
 11
-21.46363074398053
 21
21.559302150800264
 31
1.6992490747824718e-10
  0
LINE
  5
103
330
1F
100
AcDbEntity
  8
BEND
100
AcDbLine
 10
691.1189339830822
 20
322.10971716265703
 30
1.689248740888161e-10
 11
-2.2603553393196307
 21
322.1097171626571
 31
1.7215235537042964e-10
  0
LINE
  5
104
330
1F
100
AcDbEntity
  8
BEND
100
AcDbLine
 10
710.3222093877407
 20
21.559302150800406
 30
1.6987022899428441e-10
 11
710.3222093877407
 21
280.90275164376146
 31
1.698515247725807e-10
  0
LINE
  5
105
330
1F
100
AcDbEntity
  8
BEND
100
AcDbLine
 10
-3.2016840334109986
 20
296.52389341869525
 30
1.6934231794607513e-10
 11
-3.2016840334109986
 21
21.523946811762755
 31
1.6935092217451597e-10
  0
LINE
  5
106
330
1F
100
AcDbEntity
  8
BEND
100
AcDbLine
 10
691.3792893218813
 20
297.22035345409955
 30
1.693578610684199e-10
 11
-2.5207106781186894
 21
297.22035345409967
 31
1.6934786906119825e-10
  0
LINE
  5
107
330
1F
100
AcDbEntity
  8
BEND
100
AcDbLine
 10
692.0602626771736
 20
21.523946811762684
 30
1.6926571255737602e-10
 11
692.0602626771736
 21
296.52389341869514
 31
1.692632145555706e-10
  0
LINE
  5
108
330
1F
100
AcDbEntity
  8
BEND
100
AcDbLine
 10
-2.5206572875254096
 20
21.392920065877085
 30
1.6924045498356577e-10
 11
691.3792359312881
 21
21.392920065877014
 31
1.6924073253932195e-10
  0
LINE
  5
109
330
1F
100
AcDbEntity
  8
BEND_EXTENT
100
AcDbLine
 10
-20.332657388703268
 20
282.35232054590665
 30
1.698308160769102e-10
 11
-20.332657388703268
 21
20.52400020235602
 31
1.6052270623845288e-10
  0
LINE
  5
110
330
1F
100
AcDbEntity
  8
BEND_EXTENT
100
AcDbLine
 10
-22.594604099257936
 20
22.594604099266537
 30
8.469225321050543e-11
 11
-22.59460409925822
 21
279.4531827416157
 31
1.6951995363001515e-10
  0
LINE
  5
111
330
1F
100
AcDbEntity
  8
BEND_EXTENT
100
AcDbLine
 10
693.1912360324641
 20
297.52389341870037
 30
1.6926238188830214e-10
 11
693.1912360324661
 21
20.52400020235602
 31
1.6926238188830214e-10
  0
LWPOLYLINE
  5
112
330
1F
100
AcDbEntity
  8
BEND_EXTENT
100
AcDbPolyline
 90
4
 70
1
 10
690.9292893218812
 20
22.523893421169348
 10
690.9292893218812
 20
295.52389342115765
 10
-2.0707106781186724
 20
295.5238934211577
 10
-2.0707106781186724
 20
22.52389342116942
  0
LINE
  5
113
330
1F
100
AcDbEntity
  8
BEND_EXTENT
100
AcDbLine
 10
-4.332657388703325
 20
20.52400020235602
 30
1.6940449043545414e-10
 11
-4.332657388700483
 21
297.52389341870105
 31
1.6933343616187813e-10
  0
LINE
  5
114
330
1F
100
AcDbEntity
  8
BEND_EXTENT
100
AcDbLine
 10
690.8585786437628
 20
2.0000000000000284
 30
-3.7714276146516535e-11
 11
-1.9999999999791385
 21
2.0000000000001705
 31
8.418821195732562e-11
  0
LINE
  5
115
330
1F
100
AcDbEntity
  8
BEND_EXTENT
100
AcDbLine
 10
-2.9706038969320048
 20
4.261946710584756
 30
1.6961765325618217e-10
 11
691.8291825407158
 21
4.261946710706348
 31
1.6940449043545416e-10
  0
LINE
  5
116
330
1F
100
AcDbEntity
  8
BEND_EXTENT
100
AcDbLine
 10
709.191236032466
 20
20.52400020235602
 30
1.696176532561822e-10
 11
709.1912360324659
 21
282.3523205459103
 31
1.6940449043545416e-10
  0
LINE
  5
117
330
1F
100
AcDbEntity
  8
BEND_EXTENT
100
AcDbLine
 10
711.4531827430154
 20
279.4531827416157
 30
1.6881385178635358e-10
 11
711.4531827430155
 21
22.594604099266675
 31
7.283285086145955e-11
  0
LINE
  5
118
330
1F
100
AcDbEntity
  8
BEND_EXTENT
100
AcDbLine
 10
691.8291825406947
 20
20.261946710584656
 30
1.6926238188830214e-10
 11
-2.970603896932147
 21
20.261946710584734
 31
1.6926238188830212e-10
  0
LINE
  5
119
330
1F
100
AcDbEntity
  8
BEND_EXTENT
100
AcDbLine
 10
-2.0000000005185825
 20
322.67520384030803
 30
1.6863621610241353e-10
 11
690.8585786440603
 21
322.6752038409285
 31
1.7057688594945833e-10
  0
LINE
  5
120
330
1F
100
AcDbEntity
  8
BEND_EXTENT
100
AcDbLine
 10
691.3792893218813
 20
321.5442304850089
 30
1.68338676331814e-10
 11
-2.5207106781186894
 21
321.54423048500894
 31
1.7023937814997225e-10
  0
LINE
  5
121
330
1F
100
AcDbEntity
  8
BEND_EXTENT
100
AcDbLine
 10
-2.9707106781187065
 20
298.91681348704157
 30
1.6938672686706013e-10
 11
691.8292893218814
 21
298.91681348704145
 31
1.7079004877018636e-10
  0
ENDSEC
  0
SECTION
  2
OBJECTS
  0
DICTIONARY
  5
C
330
0
100
AcDbDictionary
281
1
  3
ACAD_GROUP
350
D
  3
ACAD_MLINESTYLE
350
17
  3
ACAD_COLOR
350
1005A
  3
ACAD_LAYOUT
350
1005B
  3
ACAD_MATERIAL
350
1005C
  3
ACAD_MLEADERSTYLE
350
1005D
  3
ACAD_PLOTSETTINGS
350
1005E
  3
ACAD_PLOTSTYLENAME
350
1005F
  3
ACAD_SCALELIST
350
10061
  3
ACAD_TABLESTYLE
350
10062
  3
ACAD_VISUALSTYLE
350
10063
  3
EZDXF_META
350
10071
  0
DICTIONARY
  5
D
330
0
100
AcDbDictionary
281
1
  0
DICTIONARY
  5
1A
330
C
100
AcDbDictionary
281
1
  0
DICTIONARY
  5
17
330
0
100
AcDbDictionary
281
1
  3
Standard
350
10069
  0
DICTIONARY
  5
1005A
330
C
100
AcDbDictionary
281
1
  0
DICTIONARY
  5
1005B
330
C
100
AcDbDictionary
281
1
  3
Model
350
10064
  3
Layout1
350
10065
  0
DICTIONARY
  5
1005C
330
C
100
AcDbDictionary
281
1
  3
ByBlock
350
10066
  3
ByLayer
350
10067
  3
Global
350
10068
  0
DICTIONARY
  5
1005D
330
C
100
AcDbDictionary
281
1
  3
Standard
350
1006E
  0
DICTIONARY
  5
1005E
330
C
100
AcDbDictionary
281
1
  0
ACDBDICTIONARYWDFLT
  5
1005F
330
C
100
AcDbDictionary
281
1
  3
Normal
350
10060
100
AcDbDictionaryWithDefault
340
10060
  0
ACDBPLACEHOLDER
  5
10060
330
1005F
  0
DICTIONARY
  5
10061
330
C
100
AcDbDictionary
281
1
  0
DICTIONARY
  5
10062
330
C
100
AcDbDictionary
281
1
  0
DICTIONARY
  5
10063
330
C
100
AcDbDictionary
281
1
  0
LAYOUT
  5
10064
330
1005B
100
AcDbPlotSettings
  1

  4
A3
  6

 40
7.5
 41
20.0
 42
7.5
 43
20.0
 44
420.0
 45
297.0
 46
0.0
 47
0.0
 48
0.0
 49
0.0
140
0.0
141
0.0
142
1.0
143
1.0
 70
1024
 72
1
 73
0
 74
5
  7

 75
16
 76
0
 77
2
 78
300
147
1.0
148
0.0
149
0.0
100
AcDbLayout
  1
Model
 70
1
 71
0
 10
0.0
 20
0.0
 11
420.0
 21
297.0
 12
0.0
 22
0.0
 32
0.0
 14
1e+20
 24
1e+20
 34
1e+20
 15
-1e+20
 25
-1e+20
 35
-1e+20
146
0.0
 13
0.0
 23
0.0
 33
0.0
 16
1.0
 26
0.0
 36
0.0
 17
0.0
 27
1.0
 37
0.0
 76
1
330
1F
  0
LAYOUT
  5
10065
330
1005B
100
AcDbPlotSettings
  1

  4
A3
  6

 40
7.5
 41
20.0
 42
7.5
 43
20.0
 44
420.0
 45
297.0
 46
0.0
 47
0.0
 48
0.0
 49
0.0
140
0.0
141
0.0
142
1.0
143
1.0
 70
0
 72
1
 73
0
 74
5
  7

 75
16
 76
0
 77
2
 78
300
147
1.0
148
0.0
149
0.0
100
AcDbLayout
  1
Layout1
 70
1
 71
1
 10
0.0
 20
0.0
 11
420.0
 21
297.0
 12
0.0
 22
0.0
 32
0.0
 14
1e+20
 24
1e+20
 34
1e+20
 15
-1e+20
 25
-1e+20
 35
-1e+20
146
0.0
 13
0.0
 23
0.0
 33
0.0
 16
1.0
 26
0.0
 36
0.0
 17
0.0
 27
1.0
 37
0.0
 76
1
330
1B
  0
MATERIAL
  5
10066
102
{ACAD_REACTORS
330
1005C
102
}
330
1005C
100
AcDbMaterial
  1
ByBlock
  2

 70
0
 40
1.0
 71
1
 41
1.0
 91
-1023410177
 42
1.0
 72
1
  3

 73
1
 74
1
 75
1
 44
0.5
 73
0
 45
1.0
 46
1.0
 77
1
  4

 78
1
 79
1
170
1
 48
1.0
171
1
  6

172
1
173
1
174
1
140
1.0
141
1.0
175
1
  7

176
1
177
1
178
1
143
1.0
179
1
  8

270
1
271
1
272
1
145
1.0
146
1.0
273
1
  9

274
1
275
1
276
1
 42
1.0
 72
1
  3

 73
1
 74
1
 75
1
 94
63
  0
MATERIAL
  5
10067
102
{ACAD_REACTORS
330
1005C
102
}
330
1005C
100
AcDbMaterial
  1
ByLayer
  2

 70
0
 40
1.0
 71
1
 41
1.0
 91
-1023410177
 42
1.0
 72
1
  3

 73
1
 74
1
 75
1
 44
0.5
 73
0
 45
1.0
 46
1.0
 77
1
  4

 78
1
 79
1
170
1
 48
1.0
171
1
  6

172
1
173
1
174
1
140
1.0
141
1.0
175
1
  7

176
1
177
1
178
1
143
1.0
179
1
  8

270
1
271
1
272
1
145
1.0
146
1.0
273
1
  9

274
1
275
1
276
1
 42
1.0
 72
1
  3

 73
1
 74
1
 75
1
 94
63
  0
MATERIAL
  5
10068
102
{ACAD_REACTORS
330
1005C
102
}
330
1005C
100
AcDbMaterial
  1
Global
  2

 70
0
 40
1.0
 71
1
 41
1.0
 91
-1023410177
 42
1.0
 72
1
  3

 73
1
 74
1
 75
1
 44
0.5
 73
0
 45
1.0
 46
1.0
 77
1
  4

 78
1
 79
1
170
1
 48
1.0
171
1
  6

172
1
173
1
174
1
140
1.0
141
1.0
175
1
  7

176
1
177
1
178
1
143
1.0
179
1
  8

270
1
271
1
272
1
145
1.0
146
1.0
273
1
  9

274
1
275
1
276
1
 42
1.0
 72
1
  3

 73
1
 74
1
 75
1
 94
63
  0
MLINESTYLE
  5
10069
102
{ACAD_REACTORS
330
17
102
}
330
17
100
AcDbMlineStyle
  2
Standard
 70
0
  3

 62
256
 51
90.0
 52
90.0
 71
2
 49
0.5
 62
256
  6
BYLAYER
 49
-0.5
 62
256
  6
BYLAYER
  0
MLEADERSTYLE
  5
1006E
102
{ACAD_REACTORS
330
1005D
102
}
330
1005D
100
AcDbMLeaderStyle
179
2
170
2
171
1
172
0
 90
2
 40
0.0
 41
0.0
173
1
 91
-1056964608
 92
-2
290
1
 42
2.0
291
1
 43
8.0
  3
Standard
 44
4.0
300

342
11
174
1
175
1
176
0
178
1
 93
-1056964608
 45
4.0
292
0
297
0
 46
4.0
 94
-1056964608
 47
1.0
 49
1.0
140
1.0
294
1
141
0.0
177
0
142
1.0
295
0
296
0
143
3.75
271
0
272
9
273
9
  0
DICTIONARY
  5
10071
330
C
100
AcDbDictionary
280
1
281
1
  3
WRITTEN_BY_EZDXF
350
10072
  0
DICTIONARYVAR
  5
10072
330
10071
100
DictionaryVariables
280
0
  1
1.4.3 @ 2026-06-26T02:13:11.982083+00:00
  0
ENDSEC
  0
EOF
