0
SECTION
2
HEADER
9
$INSUNITS
70
4
9
$ACADVER
1
AC1014
9
$HANDSEED
5
FFFF
0
ENDSEC
0
SECTION
2
TABLES
0
TABLE
2
VPORT
5
8
100
AcDbSymbolTable
0
ENDTAB
0
TABLE
2
LTYPE
5
5
100
AcDbSymbolTable
0
LTYPE
5
14
100
AcDbSymbolTableRecord
100
AcDbLinetypeTableRecord
2
BYBLOCK
70
0
0
LTYPE
5
15
100
AcDbSymbolTableRecord
100
AcDbLinetypeTableRecord
2
BYLAYER
70
0
0
LTYPE
5
16
100
AcDbSymbolTableRecord
100
AcDbLinetypeTableRecord
2
DASHED
70
0
3
Dashed __ __ __ __ __ __ __ __ __ __ __ __ __ _
72
65
73
2
40
0.75
49
0.5
74
0
49
-0.25
74
0
0
ENDTAB
0
TABLE
2
LAYER
5
2
100
AcDbSymbolTable
70
2
0
LAYER
5
50
100
AcDbSymbolTableRecord
100
AcDbLayerTableRecord
2
0
70
0
62
7
6
CONTINUOUS
0
ENDTAB
0
TABLE
2
STYLE
5
3
100
AcDbSymbolTable
70
1
0
STYLE
5
11
100
AcDbSymbolTableRecord
100
AcDbTextStyleTableRecord
2
STANDARD
70
0
0
ENDTAB
0
TABLE
2
VIEW
5
6
100
AcDbSymbolTable
70
0
0
ENDTAB
0
TABLE
2
UCS
5
7
100
AcDbSymbolTable
70
0
0
ENDTAB
0
TABLE
2
APPID
5
9
100
AcDbSymbolTable
70
2
0
APPID
5
12
100
AcDbSymbolTableRecord
100
AcDbRegAppTableRecord
2
ACAD
70
0
0
ENDTAB
0
TABLE
2
DIMSTYLE
5
A
100
AcDbSymbolTable
70
1
0
ENDTAB
0
TABLE
2
BLOCK_RECORD
5
1
100
AcDbSymbolTable
70
1
0
BLOCK_RECORD
5
1F
100
AcDbSymbolTableRecord
100
AcDbBlockTableRecord
2
*MODEL_SPACE
0
BLOCK_RECORD
5
1B
100
AcDbSymbolTableRecord
100
AcDbBlockTableRecord
2
*PAPER_SPACE
0
ENDTAB
0
ENDSEC
0
SECTION
2
BLOCKS
0
BLOCK
5
20
100
AcDbEntity
100
AcDbBlockBegin
2
*MODEL_SPACE
0
ENDBLK
5
21
100
AcDbEntity
100
AcDbBlockEnd
0
BLOCK
5
1C
100
AcDbEntity
100
AcDbBlockBegin
2
*PAPER_SPACE
0
ENDBLK
5
1D
100
AcDbEntity
100
AcDbBlockEnd
0
ENDSEC
0
SECTION
2
ENTITIES
0
LWPOLYLINE
5
100
100
AcDbEntity
8
OUTER_PROFILES
100
AcDbPolyline
90
52
70
1
43
0.0
10
942.9793161689463
20
846.62392026823215
42
0.41421356237309503
10
942.9793161689463
20
845.20970670585893
10
956.40318274305184
20
831.78584013175293
10
943.47389342117071
20
818.85655080987226
10
941.21194671058572
20
818.78584013175339
10
941.21194671058572
20
816.52389342116885
10
943.47389342117071
20
816.45318274305043
10
956.42389342117076
20
803.50318274305084
10
956.42389342117144
20
770.42389342116905
10
971.47389342116696
20
770.42389342116735
10
971.47389342116662
20
220.62389342116873
10
956.42389342117121
20
220.62389342116873
10
956.42389342117042
20
133.54460409928691
10
949.9488934395805
20
127.06960411769742
10
942.97931618330335
20
120.1000268294635
42
0.41421356170165258
10
942.97931618492453
20
118.68581326871146
10
956.40318274305162
20
105.26194671058477
10
942.9793161529675
20
91.838080120500152
42
0.41421356304457801
10
942.97931615458867
20
90.423866556505956
10
949.9488934027604
20
83.454289340291012
10
956.42389342117053
20
76.979289321880486
10
956.42389342117053
20
-10.000000000001137
10
843.21194671058538
20
-10.000000000001279
10
833.21194671058436
20
-2.8421709430404007e-13
10
0
20
0
10
0
20
76.979289321880913
10
6.4749999815897752
20
83.45428930347083
10
13.444577237867321
20
90.423866591705888
42
0.4142135617015813
10
13.444577236246118
20
91.838080152457849
10
0.020710678119399972
20
105.26194671058505
10
13.444577268203057
20
118.6858133006682
42
0.41421356304457657
10
13.444577266581955
20
120.1000268646624
10
6.4750000184098155
20
127.06960408087724
10
-5.6843418860808015e-13
20
133.54460409928734
10
-5.6843418860808015e-13
20
210.62389342116802
10
-58.311946710583982
20
210.62389342116745
10
-58.311946710583697
20
780.42389342117019
10
-2.8421709430404007e-13
20
780.42389342117019
10
-2.8421709430404007e-13
20
803.50318274305107
10
12.949999999999733
20
816.45318274305077
10
15.211946710585522
20
816.52389342116919
10
15.211946710585522
20
818.78584013175384
10
12.95000000000087
20
818.85655080987249
10
0.020710678119684189
20
831.78584013175339
10
13.444577252225315
20
845.20970670585962
42
0.41421356237302975
10
13.444577252225232
20
846.6239202682325
10
8.5265128291212022e-13
20
860.06849752045764
10
8.5265128291212022e-13
20
883.0477868423385
10
833.21194671058583
20
883.04778684233895
10
843.21194671058583
20
893.04778684233895
10
956.42389342117087
20
893.04778684233861
10
956.42389342117099
20
860.06849752045719
0
CIRCLE
5
101
100
AcDbEntity
8
INTERIOR_PROFILES
100
AcDbCircle
10
-55.21194671058538
20
6.9999999999990337
30
0
40
1.7000000000000004
210
0
220
0
230
-1
0
CIRCLE
5
102
100
AcDbEntity
8
INTERIOR_PROFILES
100
AcDbCircle
10
-30.21194671058538
20
6.9999999999990337
30
0
40
1.7000000000000004
210
0
220
0
230
-1
0
CIRCLE
5
103
100
AcDbEntity
8
INTERIOR_PROFILES
100
AcDbCircle
10
-829.21194671058538
20
6.9999999999987494
30
0
40
1.7000000000000004
210
0
220
0
230
-1
0
CIRCLE
5
104
100
AcDbEntity
8
INTERIOR_PROFILES
100
AcDbCircle
10
55.311946710585431
20
679.52389342116942
30
0
40
1.7000000000000171
210
0
220
0
230
-1
0
CIRCLE
5
105
100
AcDbEntity
8
INTERIOR_PROFILES
100
AcDbCircle
10
-18.211946710585352
20
17.999999999998977
30
0
40
1.6999999999999993
210
0
220
0
230
-1
0
CIRCLE
5
106
100
AcDbEntity
8
INTERIOR_PROFILES
100
AcDbCircle
10
55.311946710585431
20
762.52389342116942
30
0
40
1.7000000000000171
210
0
220
0
230
-1
0
CIRCLE
5
107
100
AcDbEntity
8
INTERIOR_PROFILES
100
AcDbCircle
10
30.311946710585431
20
762.52389342116942
30
0
40
1.7000000000000171
210
0
220
0
230
-1
0
CIRCLE
5
108
100
AcDbEntity
8
INTERIOR_PROFILES
100
AcDbCircle
10
-143.21194671058535
20
3.9999999999990621
30
0
40
1.2644999999999995
210
0
220
0
230
-1
0
CIRCLE
5
109
100
AcDbEntity
8
INTERIOR_PROFILES
100
AcDbCircle
10
30.311946710585715
20
228.5238934211693
30
0
40
1.7000000000000171
210
0
220
0
230
-1
0
CIRCLE
5
110
100
AcDbEntity
8
INTERIOR_PROFILES
100
AcDbCircle
10
30.311946710585431
20
679.52389342116942
30
0
40
1.7000000000000171
210
0
220
0
230
-1
0
CIRCLE
5
111
100
AcDbEntity
8
INTERIOR_PROFILES
100
AcDbCircle
10
-18.211946710585352
20
27.999999999998977
30
0
40
1.6999999999999993
210
0
220
0
230
-1
0
CIRCLE
5
112
100
AcDbEntity
8
INTERIOR_PROFILES
100
AcDbCircle
10
-443.21194671058538
20
3.99999999999892
30
0
40
1.2644999999999995
210
0
220
0
230
-1
0
CIRCLE
5
113
100
AcDbEntity
8
INTERIOR_PROFILES
100
AcDbCircle
10
-743.21194671058538
20
3.99999999999892
30
0
40
1.2644999999999995
210
0
220
0
230
-1
0
CIRCLE
5
114
100
AcDbEntity
8
INTERIOR_PROFILES
100
AcDbCircle
10
30.311946710585573
20
406.52389342116925
30
0
40
1.7000000000000171
210
0
220
0
230
-1
0
CIRCLE
5
115
100
AcDbEntity
8
INTERIOR_PROFILES
100
AcDbCircle
10
30.311946710585573
20
584.5238934211693
30
0
40
1.7000000000000171
210
0
220
0
230
-1
0
CIRCLE
5
116
100
AcDbEntity
8
INTERIOR_PROFILES
100
AcDbCircle
10
30.311946710585573
20
311.52389342116925
30
0
40
1.7000000000000171
210
0
220
0
230
-1
0
CIRCLE
5
117
100
AcDbEntity
8
INTERIOR_PROFILES
100
AcDbCircle
10
55.311946710585715
20
228.5238934211693
30
0
40
1.7000000000000171
210
0
220
0
230
-1
0
CIRCLE
5
118
100
AcDbEntity
8
INTERIOR_PROFILES
100
AcDbCircle
10
-443.21194671058572
20
879.04778684233918
30
0
40
1.264500000000055
210
0
220
0
230
-1
0
CIRCLE
5
119
100
AcDbEntity
8
INTERIOR_PROFILES
100
AcDbCircle
10
-829.21194671058572
20
876.04778684233906
30
0
40
1.7000000000000171
210
0
220
0
230
-1
0
CIRCLE
5
120
100
AcDbEntity
8
INTERIOR_PROFILES
100
AcDbCircle
10
55.311946710585573
20
406.52389342116925
30
0
40
1.7000000000000171
210
0
220
0
230
-1
0
CIRCLE
5
121
100
AcDbEntity
8
INTERIOR_PROFILES
100
AcDbCircle
10
-18.211946710585636
20
865.04778684233941
30
0
40
1.7000000000000171
210
0
220
0
230
-1
0
CIRCLE
5
122
100
AcDbEntity
8
INTERIOR_PROFILES
100
AcDbCircle
10
-143.21194671058564
20
879.04778684233918
30
0
40
1.264500000000055
210
0
220
0
230
-1
0
CIRCLE
5
123
100
AcDbEntity
8
INTERIOR_PROFILES
100
AcDbCircle
10
55.311946710585573
20
311.52389342116925
30
0
40
1.7000000000000171
210
0
220
0
230
-1
0
CIRCLE
5
124
100
AcDbEntity
8
INTERIOR_PROFILES
100
AcDbCircle
10
-55.211946710585664
20
876.04778684233918
30
0
40
1.7000000000000171
210
0
220
0
230
-1
0
CIRCLE
5
125
100
AcDbEntity
8
INTERIOR_PROFILES
100
AcDbCircle
10
55.311946710585573
20
584.5238934211693
30
0
40
1.7000000000000171
210
0
220
0
230
-1
0
CIRCLE
5
126
100
AcDbEntity
8
INTERIOR_PROFILES
100
AcDbCircle
10
-30.211946710585664
20
876.04778684233918
30
0
40
1.7000000000000171
210
0
220
0
230
-1
0
CIRCLE
5
127
100
AcDbEntity
8
INTERIOR_PROFILES
100
AcDbCircle
10
-18.211946710585636
20
855.04778684233941
30
0
40
1.7000000000000171
210
0
220
0
230
-1
0
CIRCLE
5
128
100
AcDbEntity
8
INTERIOR_PROFILES
100
AcDbCircle
10
-743.21194671058583
20
879.04778684233918
30
0
40
1.264500000000055
210
0
220
0
230
-1
0
LWPOLYLINE
5
129
100
AcDbEntity
8
BEND_EXTENT
100
AcDbPolyline
90
4
70
1
43
0.0
10
15.211946710585522
20
816.52389342116919
10
941.21194671058572
20
816.52389342116885
10
941.21194671058549
20
120.52389342116896
10
15.211946710585238
20
120.52389342116925
0
LWPOLYLINE
5
130
100
AcDbEntity
8
BEND_EXTENT
100
AcDbPolyline
90
4
70
1
43
0.0
10
941.21194671058572
20
818.78584013175339
10
15.211946710585522
20
818.78584013175384
10
15.211946710585664
20
844.78584013175373
10
941.21194671058583
20
844.78584013175339
0
LWPOLYLINE
5
131
100
AcDbEntity
8
BEND_EXTENT
100
AcDbPolyline
90
4
70
1
43
0.0
10
15.211946710585238
20
118.2619467105846
10
15.21194671058538
20
92.261946710584652
10
941.21194671058561
20
92.261946710584368
10
941.21194671058549
20
118.26194671058431
0
ENDSEC
0
SECTION
2
OBJECTS
0
DICTIONARY
5
C
100
AcDbDictionary
3
ACAD_GROUP
350
D
3
ACAD_MLINESTYLE
350
17
0
DICTIONARY
5
D
100
AcDbDictionary
0
DICTIONARY
5
1A
330
C
100
AcDbDictionary
0
DICTIONARY
5
17
100
AcDbDictionary
0
ENDSEC
0
EOF
