0
SECTION
2
HEADER
9
$INSUNITS
70
4
9
$ACADVER
1
AC1014
9
$HANDSEED
5
FFFF
0
ENDSEC
0
SECTION
2
TABLES
0
TABLE
2
VPORT
5
8
100
AcDbSymbolTable
0
ENDTAB
0
TABLE
2
LTYPE
5
5
100
AcDbSymbolTable
0
LTYPE
5
14
100
AcDbSymbolTableRecord
100
AcDbLinetypeTableRecord
2
BYBLOCK
70
0
0
LTYPE
5
15
100
AcDbSymbolTableRecord
100
AcDbLinetypeTableRecord
2
BYLAYER
70
0
0
LTYPE
5
16
100
AcDbSymbolTableRecord
100
AcDbLinetypeTableRecord
2
DASHED
70
0
3
Dashed __ __ __ __ __ __ __ __ __ __ __ __ __ _
72
65
73
2
40
0.75
49
0.5
74
0
49
-0.25
74
0
0
ENDTAB
0
TABLE
2
LAYER
5
2
100
AcDbSymbolTable
70
2
0
LAYER
5
50
100
AcDbSymbolTableRecord
100
AcDbLayerTableRecord
2
0
70
0
62
7
6
CONTINUOUS
0
ENDTAB
0
TABLE
2
STYLE
5
3
100
AcDbSymbolTable
70
1
0
STYLE
5
11
100
AcDbSymbolTableRecord
100
AcDbTextStyleTableRecord
2
STANDARD
70
0
0
ENDTAB
0
TABLE
2
VIEW
5
6
100
AcDbSymbolTable
70
0
0
ENDTAB
0
TABLE
2
UCS
5
7
100
AcDbSymbolTable
70
0
0
ENDTAB
0
TABLE
2
APPID
5
9
100
AcDbSymbolTable
70
2
0
APPID
5
12
100
AcDbSymbolTableRecord
100
AcDbRegAppTableRecord
2
ACAD
70
0
0
ENDTAB
0
TABLE
2
DIMSTYLE
5
A
100
AcDbSymbolTable
70
1
0
ENDTAB
0
TABLE
2
BLOCK_RECORD
5
1
100
AcDbSymbolTable
70
1
0
BLOCK_RECORD
5
1F
100
AcDbSymbolTableRecord
100
AcDbBlockTableRecord
2
*MODEL_SPACE
0
BLOCK_RECORD
5
1B
100
AcDbSymbolTableRecord
100
AcDbBlockTableRecord
2
*PAPER_SPACE
0
ENDTAB
0
ENDSEC
0
SECTION
2
BLOCKS
0
BLOCK
5
20
100
AcDbEntity
100
AcDbBlockBegin
2
*MODEL_SPACE
0
ENDBLK
5
21
100
AcDbEntity
100
AcDbBlockEnd
0
BLOCK
5
1C
100
AcDbEntity
100
AcDbBlockBegin
2
*PAPER_SPACE
0
ENDBLK
5
1D
100
AcDbEntity
100
AcDbBlockEnd
0
ENDSEC
0
SECTION
2
ENTITIES
0
LWPOLYLINE
5
100
100
AcDbEntity
8
OUTER_PROFILES
100
AcDbPolyline
90
52
70
1
43
0.0
10
942.9793161689463
20
845.20970670585916
10
956.40318274305184
20
831.78584013175293
10
943.47389342117071
20
818.85655080987226
10
941.21194671058572
20
818.78584013175339
10
941.21194671058572
20
816.52389342116885
10
943.47389342117071
20
816.45318274305043
10
956.42389342117076
20
803.50318274305084
10
956.42389342117144
20
770.42389342116905
10
971.47389342116696
20
770.42389342116735
10
971.47389342116662
20
220.62389342116873
10
956.42389342117121
20
220.62389342116873
10
956.42389342117042
20
133.54460409928691
10
949.9488934395805
20
127.06960411769742
10
942.97931618330335
20
120.1000268294635
42
0.41421356170165258
10
942.97931618492453
20
118.68581326871146
10
956.40318274305162
20
105.26194671058477
10
942.9793161529675
20
91.838080120500081
42
0.4142135630445633
10
942.97931615458867
20
90.423866556505956
10
949.9488934027604
20
83.454289340291012
10
956.42389342117053
20
76.979289321880486
10
956.42389342117053
20
-10.000000000001137
10
843.21194671058538
20
-10.000000000001279
10
833.21194671058436
20
-2.8421709430404007e-13
10
0
20
0
10
0
20
76.979289321880913
10
6.4749999815897752
20
83.45428930347083
10
13.444577237867286
20
90.423866591705917
42
0.4142135617015813
10
13.444577236246118
20
91.838080152457849
10
0.020710678119399972
20
105.26194671058505
10
13.444577268203057
20
118.6858133006682
42
0.41421356304457657
10
13.444577266581955
20
120.1000268646624
10
6.4750000184098155
20
127.06960408087724
10
-5.6843418860808015e-13
20
133.54460409928734
10
-5.6843418860808015e-13
20
210.62389342116802
10
-58.311946710583982
20
210.62389342116745
10
-58.311946710583697
20
780.42389342117019
10
-2.8421709430404007e-13
20
780.42389342117019
10
-2.8421709430404007e-13
20
803.50318274305107
10
12.949999999999733
20
816.45318274305077
10
15.211946710585522
20
816.52389342116919
10
15.211946710585522
20
818.78584013175384
10
12.95000000000087
20
818.85655080987249
10
0.020710678119684189
20
831.78584013175339
10
13.4445772522254
20
845.2097067058595
42
0.41421356237304169
10
13.444577252225232
20
846.6239202682325
10
8.5265128291212022e-13
20
860.06849752045764
10
8.5265128291212022e-13
20
883.0477868423385
10
833.21194671058583
20
883.04778684233895
10
843.21194671058583
20
893.04778684233895
10
956.42389342117087
20
893.04778684233861
10
956.42389342117099
20
860.06849752045719
10
942.9793161689463
20
846.62392026823215
42
0.41421356237306561
0
CIRCLE
5
101
100
AcDbEntity
8
INTERIOR_PROFILES
100
AcDbCircle
10
30.311946710585573
20
311.52389342116925
30
0
40
1.7000000000000171
210
0
220
0
230
-1
0
CIRCLE
5
102
100
AcDbEntity
8
INTERIOR_PROFILES
100
AcDbCircle
10
30.311946710585573
20
584.5238934211693
30
0
40
1.7000000000000171
210
0
220
0
230
-1
0
CIRCLE
5
103
100
AcDbEntity
8
INTERIOR_PROFILES
100
AcDbCircle
10
55.311946710585715
20
228.5238934211693
30
0
40
1.7000000000000171
210
0
220
0
230
-1
0
CIRCLE
5
104
100
AcDbEntity
8
INTERIOR_PROFILES
100
AcDbCircle
10
-829.21194671058538
20
6.9999999999987494
30
0
40
1.7000000000000004
210
0
220
0
230
-1
0
CIRCLE
5
105
100
AcDbEntity
8
INTERIOR_PROFILES
100
AcDbCircle
10
-443.21194671058538
20
3.99999999999892
30
0
40
1.2644999999999995
210
0
220
0
230
-1
0
CIRCLE
5
106
100
AcDbEntity
8
INTERIOR_PROFILES
100
AcDbCircle
10
30.311946710585431
20
679.52389342116942
30
0
40
1.7000000000000171
210
0
220
0
230
-1
0
CIRCLE
5
107
100
AcDbEntity
8
INTERIOR_PROFILES
100
AcDbCircle
10
55.311946710585431
20
679.52389342116942
30
0
40
1.7000000000000171
210
0
220
0
230
-1
0
CIRCLE
5
108
100
AcDbEntity
8
INTERIOR_PROFILES
100
AcDbCircle
10
55.311946710585573
20
584.5238934211693
30
0
40
1.7000000000000171
210
0
220
0
230
-1
0
CIRCLE
5
109
100
AcDbEntity
8
INTERIOR_PROFILES
100
AcDbCircle
10
-18.211946710585352
20
27.999999999998977
30
0
40
1.6999999999999993
210
0
220
0
230
-1
0
CIRCLE
5
110
100
AcDbEntity
8
INTERIOR_PROFILES
100
AcDbCircle
10
55.311946710585431
20
762.52389342116942
30
0
40
1.7000000000000171
210
0
220
0
230
-1
0
CIRCLE
5
111
100
AcDbEntity
8
INTERIOR_PROFILES
100
AcDbCircle
10
-143.21194671058535
20
3.9999999999990621
30
0
40
1.2644999999999995
210
0
220
0
230
-1
0
CIRCLE
5
112
100
AcDbEntity
8
INTERIOR_PROFILES
100
AcDbCircle
10
30.311946710585573
20
406.52389342116925
30
0
40
1.7000000000000171
210
0
220
0
230
-1
0
CIRCLE
5
113
100
AcDbEntity
8
INTERIOR_PROFILES
100
AcDbCircle
10
-30.21194671058538
20
6.9999999999990337
30
0
40
1.7000000000000004
210
0
220
0
230
-1
0
CIRCLE
5
114
100
AcDbEntity
8
INTERIOR_PROFILES
100
AcDbCircle
10
-743.21194671058538
20
3.99999999999892
30
0
40
1.2644999999999995
210
0
220
0
230
-1
0
CIRCLE
5
115
100
AcDbEntity
8
INTERIOR_PROFILES
100
AcDbCircle
10
30.311946710585431
20
762.52389342116942
30
0
40
1.7000000000000171
210
0
220
0
230
-1
0
CIRCLE
5
116
100
AcDbEntity
8
INTERIOR_PROFILES
100
AcDbCircle
10
55.311946710585573
20
406.52389342116925
30
0
40
1.7000000000000171
210
0
220
0
230
-1
0
CIRCLE
5
117
100
AcDbEntity
8
INTERIOR_PROFILES
100
AcDbCircle
10
55.311946710585573
20
311.52389342116925
30
0
40
1.7000000000000171
210
0
220
0
230
-1
0
CIRCLE
5
118
100
AcDbEntity
8
INTERIOR_PROFILES
100
AcDbCircle
10
-55.21194671058538
20
6.9999999999990337
30
0
40
1.7000000000000004
210
0
220
0
230
-1
0
CIRCLE
5
119
100
AcDbEntity
8
INTERIOR_PROFILES
100
AcDbCircle
10
-18.211946710585352
20
17.999999999998977
30
0
40
1.6999999999999993
210
0
220
0
230
-1
0
CIRCLE
5
120
100
AcDbEntity
8
INTERIOR_PROFILES
100
AcDbCircle
10
30.311946710585715
20
228.5238934211693
30
0
40
1.7000000000000171
210
0
220
0
230
-1
0
CIRCLE
5
121
100
AcDbEntity
8
INTERIOR_PROFILES
100
AcDbCircle
10
-743.21194671058583
20
879.04778684233918
30
0
40
1.264500000000055
210
0
220
0
230
-1
0
CIRCLE
5
122
100
AcDbEntity
8
INTERIOR_PROFILES
100
AcDbCircle
10
-443.21194671058572
20
879.04778684233918
30
0
40
1.264500000000055
210
0
220
0
230
-1
0
CIRCLE
5
123
100
AcDbEntity
8
INTERIOR_PROFILES
100
AcDbCircle
10
-18.211946710585636
20
855.04778684233941
30
0
40
1.7000000000000171
210
0
220
0
230
-1
0
CIRCLE
5
124
100
AcDbEntity
8
INTERIOR_PROFILES
100
AcDbCircle
10
-55.211946710585664
20
876.04778684233918
30
0
40
1.7000000000000171
210
0
220
0
230
-1
0
CIRCLE
5
125
100
AcDbEntity
8
INTERIOR_PROFILES
100
AcDbCircle
10
-18.211946710585636
20
865.04778684233941
30
0
40
1.7000000000000171
210
0
220
0
230
-1
0
CIRCLE
5
126
100
AcDbEntity
8
INTERIOR_PROFILES
100
AcDbCircle
10
-829.21194671058572
20
876.04778684233906
30
0
40
1.7000000000000171
210
0
220
0
230
-1
0
CIRCLE
5
127
100
AcDbEntity
8
INTERIOR_PROFILES
100
AcDbCircle
10
-30.211946710585664
20
876.04778684233918
30
0
40
1.7000000000000171
210
0
220
0
230
-1
0
CIRCLE
5
128
100
AcDbEntity
8
INTERIOR_PROFILES
100
AcDbCircle
10
-143.21194671058564
20
879.04778684233918
30
0
40
1.264500000000055
210
0
220
0
230
-1
0
LINE
5
129
100
AcDbEntity
8
BEND
100
AcDbLine
10
14.151684068609711
20
119.39292006587692
30
1.7976733202994846e-11
11
942.68642296773214
21
119.39292006587664
31
-4.019367347100339e-10
0
LINE
5
130
100
AcDbEntity
8
BEND
100
AcDbLine
10
14.080973355293054
20
119.39292006587692
30
1.8008748385471567e-11
11
14.080973355293054
21
91.130973355292184
31
1.6512212824272776e-11
0
LINE
5
131
100
AcDbEntity
8
BEND
100
AcDbLine
10
14.080973355293054
20
91.130973355292184
30
1.6512212824272776e-11
11
14.080973355292343
21
-1.4210854715202004e-13
31
1.187811299712236e-11
0
LINE
5
132
100
AcDbEntity
8
BEND
100
AcDbLine
10
942.3429200658785
20
845.91681348704583
30
-3.8856882795388386e-10
11
942.3429200658785
21
893.04778684233861
31
-3.883714140081492e-10
0
LINE
5
133
100
AcDbEntity
8
BEND
100
AcDbLine
10
942.3429200658785
20
818.82119547081288
30
-3.8844907770095941e-10
11
942.3429200658785
21
845.91681348704583
31
-3.8856882795388386e-10
0
LINE
5
134
100
AcDbEntity
8
BEND
100
AcDbLine
10
942.68642295013262
20
845.91681348704583
30
-3.8882753265663586e-10
11
13.737470471038904
21
845.91681348704606
31
3.1439073280336277e-11
0
LINE
5
135
100
AcDbEntity
8
BEND
100
AcDbLine
10
14.080973355292628
20
119.46363077886971
30
1.8252478738062614e-11
11
14.08097335529277
21
816.48853808211004
31
3.1992760650147109e-11
0
LINE
5
136
100
AcDbEntity
8
BEND
100
AcDbLine
10
-14.180973355292821
20
780.42389342116985
30
7.3548041639218521e-11
11
-14.180973355293105
21
210.62389342116745
31
6.250000167363128e-11
0
LINE
5
137
100
AcDbEntity
8
BEND
100
AcDbLine
10
942.34292006773262
20
816.48853808205172
30
-3.8865996612527482e-10
11
942.34292006773205
21
119.39292006587664
31
-4.0227375501832327e-10
0
LINE
5
138
100
AcDbEntity
8
BEND
100
AcDbLine
10
942.34292006587782
20
91.1309733552919
30
-4.0581154967932249e-10
11
942.34292006773205
21
119.39292006587664
31
-4.0227375501832327e-10
0
LINE
5
139
100
AcDbEntity
8
BEND
100
AcDbLine
10
941.21194671058572
20
817.65486677646106
30
-3.8801932477827399e-10
11
15.211946710585522
21
817.6548667764614
31
3.1309739046140875e-11
0
LINE
5
140
100
AcDbEntity
8
BEND
100
AcDbLine
10
13.737470453438334
20
91.130973355292184
30
1.4626479068638422e-11
11
942.27220935256037
21
91.1309733552919
31
-4.0577953449684544e-10
0
LINE
5
141
100
AcDbEntity
8
BEND
100
AcDbLine
10
14.080973355293196
20
845.91681348704606
30
3.1713675449071748e-11
11
14.080973355293196
21
818.82119547081311
31
3.1551330605737385e-11
0
LINE
5
142
100
AcDbEntity
8
BEND
100
AcDbLine
10
14.08097335529348
20
883.0477868423385
30
3.1871303487426178e-11
11
14.080973355293196
21
845.91681348704606
31
3.1713675449071748e-11
0
LINE
5
143
100
AcDbEntity
8
BEND
100
AcDbLine
10
942.34292006587793
20
91.06026264229854
30
-4.0377352753950122e-10
11
942.34292006587793
21
-10.000000000000995
31
-4.0873172407659153e-10
0
LWPOLYLINE
5
144
100
AcDbEntity
8
BEND_EXTENT
100
AcDbPolyline
90
4
70
1
43
0.0
10
15.211946710585522
20
816.52389342116919
10
941.21194671058572
20
816.52389342116885
10
941.21194671058549
20
120.52389342116896
10
15.211946710585238
20
120.52389342116925
0
LWPOLYLINE
5
145
100
AcDbEntity
8
BEND_EXTENT
100
AcDbPolyline
90
4
70
1
43
0.0
10
941.21194671058572
20
818.78584013175339
10
15.211946710585522
20
818.78584013175384
10
15.211946710585664
20
844.78584013175373
10
941.21194671058583
20
844.78584013175339
0
LINE
5
146
100
AcDbEntity
8
BEND_EXTENT
100
AcDbLine
10
12.949999945579691
20
89.929289302660607
30
1.5665351563155166e-11
11
12.950000000000443
21
0
31
9.3423359326340051e-12
0
LINE
5
147
100
AcDbEntity
8
BEND_EXTENT
100
AcDbLine
10
15.21194671058538
20
0
30
1.1564502668909281e-11
11
15.21194671058538
21
90
31
1.6005976119900756e-11
0
LINE
5
148
100
AcDbEntity
8
BEND_EXTENT
100
AcDbLine
10
941.21194671058561
20
89.999999999999716
30
-4.0325240189532614e-10
11
15.21194671058538
21
90
31
1.6005976119900756e-11
0
LINE
5
149
100
AcDbEntity
8
BEND_EXTENT
100
AcDbLine
10
941.21194671058561
20
89.999999999999716
30
-4.0325240189532614e-10
11
941.21194671058561
21
-10.000000000001137
31
-4.0817997090959696e-10
0
LINE
5
150
100
AcDbEntity
8
BEND_EXTENT
100
AcDbLine
10
943.47389342117015
20
-10.000000000000995
30
-4.0939061376546242e-10
11
943.47389336675053
21
89.929289341101679
31
-4.0438006387079619e-10
0
LINE
5
151
100
AcDbEntity
8
BEND_EXTENT
100
AcDbLine
10
12.949999999999733
20
816.45318274305077
30
3.2993942735104135e-11
11
12.950000054419775
21
120.59460408006686
31
1.9539296642754399e-11
0
LINE
5
152
100
AcDbEntity
8
BEND_EXTENT
100
AcDbLine
10
-13.050000000000637
20
780.42389342117019
30
7.1765589379704615e-11
11
-13.050000000000921
21
210.62389342116739
31
6.0657704796417436e-11
0
LINE
5
153
100
AcDbEntity
8
BEND_EXTENT
100
AcDbLine
10
943.47389347559033
20
120.59460411850807
30
-4.0233576633577916e-10
11
943.47389342117071
21
816.45318274305043
31
-3.8921862804367455e-10
0
LINE
5
154
100
AcDbEntity
8
BEND_EXTENT
100
AcDbLine
10
-15.311946710585858
20
210.62389342116745
30
6.4346365443246429e-11
11
-15.311946710585573
21
780.42389342116985
31
7.5383195752957598e-11
0
LINE
5
155
100
AcDbEntity
8
BEND_EXTENT
100
AcDbLine
10
943.47389342117049
20
893.04778684233861
30
-3.8887875825415871e-10
11
943.47389342117037
21
847.11849752045691
31
-3.8907503227753713e-10
0
LINE
5
156
100
AcDbEntity
8
BEND_EXTENT
100
AcDbLine
10
941.21194671058583
20
847.04778684233816
30
-3.8798568960282577e-10
11
941.21194671058583
21
893.04778684233861
31
-3.8739278008818616e-10
0
LINE
5
157
100
AcDbEntity
8
BEND_EXTENT
100
AcDbLine
10
15.211946710585664
20
847.04778684233838
30
3.1272688412401105e-11
11
941.21194671058583
21
847.04778684233816
31
-3.8798568960282577e-10
0
LINE
5
158
100
AcDbEntity
8
BEND_EXTENT
100
AcDbLine
10
15.211946710585664
20
883.0477868423385
30
3.1361738795367405e-11
11
15.211946710585664
21
847.04778684233838
31
3.1272688412401105e-11
0
LINE
5
159
100
AcDbEntity
8
BEND_EXTENT
100
AcDbLine
10
12.950000000001296
20
847.11849752045714
30
3.2178305807964699e-11
11
12.950000000001296
21
883.0477868423385
31
3.2319250801618319e-11
0
LINE
5
160
100
AcDbEntity
8
BEND_EXTENT
100
AcDbLine
10
12.95000000000087
20
818.85655080987249
30
3.1904525874633091e-11
11
12.950000000001012
21
844.7151294536352
31
3.1846637196915155e-11
0
LINE
5
161
100
AcDbEntity
8
BEND_EXTENT
100
AcDbLine
10
12.95000000000087
20
92.332657388703154
30
1.6991779980008613e-11
11
12.95000000000087
21
118.19123603246595
31
1.8497085320963027e-11
0
LWPOLYLINE
5
162
100
AcDbEntity
8
BEND_EXTENT
100
AcDbPolyline
90
4
70
1
43
0.0
10
15.211946710585238
20
118.2619467105846
10
15.21194671058538
20
92.261946710584652
10
941.21194671058561
20
92.261946710584368
10
941.21194671058549
20
118.26194671058431
0
LINE
5
163
100
AcDbEntity
8
BEND_EXTENT
100
AcDbLine
10
943.47389342117049
20
844.71512945363486
30
-3.8915801093107073e-10
11
943.47389342117071
21
818.85655080987226
31
-3.8915341295853501e-10
0
LINE
5
164
100
AcDbEntity
8
BEND_EXTENT
100
AcDbLine
10
943.47389342117026
20
118.19123603246553
30
-4.0289836131169091e-10
11
943.47389342117026
21
92.33265738870287
31
-4.0427932167388728e-10
0
ENDSEC
0
SECTION
2
OBJECTS
0
DICTIONARY
5
C
100
AcDbDictionary
3
ACAD_GROUP
350
D
3
ACAD_MLINESTYLE
350
17
0
DICTIONARY
5
D
100
AcDbDictionary
0
DICTIONARY
5
1A
330
C
100
AcDbDictionary
0
DICTIONARY
5
17
100
AcDbDictionary
0
ENDSEC
0
EOF
