0
SECTION
2
HEADER
9
$INSUNITS
70
4
9
$ACADVER
1
AC1014
9
$HANDSEED
5
FFFF
0
ENDSEC
0
SECTION
2
TABLES
0
TABLE
2
VPORT
5
8
100
AcDbSymbolTable
0
ENDTAB
0
TABLE
2
LTYPE
5
5
100
AcDbSymbolTable
0
LTYPE
5
14
100
AcDbSymbolTableRecord
100
AcDbLinetypeTableRecord
2
BYBLOCK
70
0
0
LTYPE
5
15
100
AcDbSymbolTableRecord
100
AcDbLinetypeTableRecord
2
BYLAYER
70
0
0
LTYPE
5
16
100
AcDbSymbolTableRecord
100
AcDbLinetypeTableRecord
2
DASHED
70
0
3
Dashed __ __ __ __ __ __ __ __ __ __ __ __ __ _
72
65
73
2
40
0.75
49
0.5
74
0
49
-0.25
74
0
0
ENDTAB
0
TABLE
2
LAYER
5
2
100
AcDbSymbolTable
70
2
0
LAYER
5
50
100
AcDbSymbolTableRecord
100
AcDbLayerTableRecord
2
0
70
0
62
7
6
CONTINUOUS
0
ENDTAB
0
TABLE
2
STYLE
5
3
100
AcDbSymbolTable
70
1
0
STYLE
5
11
100
AcDbSymbolTableRecord
100
AcDbTextStyleTableRecord
2
STANDARD
70
0
0
ENDTAB
0
TABLE
2
VIEW
5
6
100
AcDbSymbolTable
70
0
0
ENDTAB
0
TABLE
2
UCS
5
7
100
AcDbSymbolTable
70
0
0
ENDTAB
0
TABLE
2
APPID
5
9
100
AcDbSymbolTable
70
2
0
APPID
5
12
100
AcDbSymbolTableRecord
100
AcDbRegAppTableRecord
2
ACAD
70
0
0
ENDTAB
0
TABLE
2
DIMSTYLE
5
A
100
AcDbSymbolTable
70
1
0
ENDTAB
0
TABLE
2
BLOCK_RECORD
5
1
100
AcDbSymbolTable
70
1
0
BLOCK_RECORD
5
1F
100
AcDbSymbolTableRecord
100
AcDbBlockTableRecord
2
*MODEL_SPACE
0
BLOCK_RECORD
5
1B
100
AcDbSymbolTableRecord
100
AcDbBlockTableRecord
2
*PAPER_SPACE
0
ENDTAB
0
ENDSEC
0
SECTION
2
BLOCKS
0
BLOCK
5
20
100
AcDbEntity
100
AcDbBlockBegin
2
*MODEL_SPACE
0
ENDBLK
5
21
100
AcDbEntity
100
AcDbBlockEnd
0
BLOCK
5
1C
100
AcDbEntity
100
AcDbBlockBegin
2
*PAPER_SPACE
0
ENDBLK
5
1D
100
AcDbEntity
100
AcDbBlockEnd
0
ENDSEC
0
SECTION
2
ENTITIES
0
LWPOLYLINE
5
100
100
AcDbEntity
8
OUTER_PROFILES
100
AcDbPolyline
90
20
70
1
43
0.0
10
2099.1619467105847
20
21.523893421169383
10
2096.9000000000001
20
23.523893421169259
10
2097.8000000000002
20
21.261946710584727
10
2097.8000000000002
20
0
10
0
20
0
10
5.6843418860808015e-13
20
21.261946710584716
10
0.90000000000003388
20
23.523893421169145
10
-1.3619467105844973
20
21.523893421169383
10
-99.361946710584363
20
21.523893421169383
10
-99.361946710584363
20
116.52389342116939
10
-1.3619467105845295
20
116.52389342116916
10
0.90000000000003411
20
114.52389342116928
10
0
20
116.78584013175404
10
0
20
138.04778684233878
10
2097.8000000000002
20
138.04778684233878
10
2097.7999999999997
20
116.78584013175404
10
2096.9000000000001
20
114.52389342116939
10
2099.1619467105847
20
116.52389342116921
10
2197.1619467105843
20
116.52389342116939
10
2197.1619467105843
20
21.523893421169387
0
CIRCLE
5
101
100
AcDbEntity
8
INTERIOR_PROFILES
100
AcDbCircle
10
-2104.661946710577
20
109.02389342116928
30
0
40
1.6999999999998749
210
0
220
0
230
-1
0
CIRCLE
5
102
100
AcDbEntity
8
INTERIOR_PROFILES
100
AcDbCircle
10
6.8619467105768521
20
109.02389342116928
30
0
40
1.7000000000000004
210
0
220
0
230
-1
0
CIRCLE
5
103
100
AcDbEntity
8
INTERIOR_PROFILES
100
AcDbCircle
10
-2104.661946710577
20
29.023893421169383
30
0
40
1.6999999999998749
210
0
220
0
230
-1
0
CIRCLE
5
104
100
AcDbEntity
8
INTERIOR_PROFILES
100
AcDbCircle
10
6.8619467105769356
20
29.023893421169383
30
0
40
1.7000000000000004
210
0
220
0
230
-1
0
LINE
5
105
100
AcDbEntity
8
BEND
100
AcDbLine
10
2097.7999999999997
20
128.9168134870464
30
-1.4870768602546264e-13
11
0
21
128.9168134870464
31
-1.5721832123379894e-13
0
LINE
5
106
100
AcDbEntity
8
BEND
100
AcDbLine
10
0.45000000000015916
20
22.392920065877163
30
-3.8857805861880479e-14
11
2097.3500000000004
21
22.39292006587716
31
-1.992850329202156e-13
0
LINE
5
107
100
AcDbEntity
8
BEND
100
AcDbLine
10
2097.3500000000004
20
115.6548667764616
30
-2.0483614804334138e-13
11
0.44999999999987494
21
115.6548667764616
31
-3.6470826358936392e-13
0
LINE
5
108
100
AcDbEntity
8
BEND
100
AcDbLine
10
5.6843418860808015e-13
20
9.1309733552923529
30
-1.8910823987967721e-14
11
2097.8000000000002
21
9.1309733552923529
31
-2.7222995509007034e-14
0
LINE
5
109
100
AcDbEntity
8
BEND
100
AcDbLine
10
-0.23097335529218749
20
115.52389342116908
30
-2.2315482794965702e-13
11
-0.23097335529219221
21
22.523893421169134
31
-2.3619994848900266e-13
0
LINE
5
110
100
AcDbEntity
8
BEND
100
AcDbLine
10
2098.0309733552926
20
22.523893421169014
30
-3.5527136788005009e-14
11
2098.0309733552926
21
115.52389342116922
31
-2.3619994848900205e-13
0
LINE
5
111
100
AcDbEntity
8
BEND_EXTENT
100
AcDbLine
10
2099.1619467105847
20
116.52389342116921
30
-3.4416913763379853e-13
11
2099.1619467105847
21
21.523893421169387
31
-3.4416913763379853e-13
0
LWPOLYLINE
5
112
100
AcDbEntity
8
BEND_EXTENT
100
AcDbPolyline
90
4
70
1
43
0.0
10
2096.9000000000001
20
23.523893421169259
10
2096.9000000000001
20
114.52389342116939
10
0.90000000000003411
20
114.52389342116928
10
0.90000000000003411
20
23.523893421169149
0
LINE
5
113
100
AcDbEntity
8
BEND_EXTENT
100
AcDbLine
10
0
20
116.78584013175404
30
-3.1752378504279477e-13
11
2097.7999999999997
21
116.78584013175404
31
-2.1094237467877974e-13
0
LINE
5
114
100
AcDbEntity
8
BEND_EXTENT
100
AcDbLine
10
0
20
130.04778684233881
30
-1.4210854715202004e-13
11
2097.7999999999997
21
130.04778684233881
31
-1.5099033134902129e-13
0
LINE
5
115
100
AcDbEntity
8
BEND_EXTENT
100
AcDbLine
10
2097.8000000000002
20
127.78584013175404
30
-1.6653345369377348e-13
11
0
21
127.78584013175404
31
-1.6653345369377348e-13
0
LINE
5
116
100
AcDbEntity
8
BEND_EXTENT
100
AcDbLine
10
2097.8000000000002
20
8.0000000000000036
30
-6.6613381477509392e-15
11
5.6843418860808015e-13
21
7.9999999999999671
31
-1.5543122344752192e-14
0
LINE
5
117
100
AcDbEntity
8
BEND_EXTENT
100
AcDbLine
10
0
20
10.26194671058472
30
-4.2188474935755949e-14
11
2097.8000000000002
21
10.26194671058472
31
-4.2188474935755949e-14
0
LINE
5
118
100
AcDbEntity
8
BEND_EXTENT
100
AcDbLine
10
2097.8000000000002
20
21.261946710584727
30
-2.0206059048177849e-13
11
5.6843418860808015e-13
21
21.261946710584716
31
-2.0206059048177849e-13
0
LINE
5
119
100
AcDbEntity
8
BEND_EXTENT
100
AcDbLine
10
-1.3619467105844973
20
21.523893421169383
30
-3.4416913763379853e-13
11
-1.3619467105845358
21
116.52389342116916
31
-3.4416913763379853e-13
0
ENDSEC
0
SECTION
2
OBJECTS
0
DICTIONARY
5
C
100
AcDbDictionary
3
ACAD_GROUP
350
D
3
ACAD_MLINESTYLE
350
17
0
DICTIONARY
5
D
100
AcDbDictionary
0
DICTIONARY
5
1A
330
C
100
AcDbDictionary
0
DICTIONARY
5
17
100
AcDbDictionary
0
ENDSEC
0
EOF
