0
SECTION
2
HEADER
9
$INSUNITS
70
4
9
$ACADVER
1
AC1014
9
$HANDSEED
5
FFFF
0
ENDSEC
0
SECTION
2
TABLES
0
TABLE
2
VPORT
5
8
100
AcDbSymbolTable
0
ENDTAB
0
TABLE
2
LTYPE
5
5
100
AcDbSymbolTable
0
LTYPE
5
14
100
AcDbSymbolTableRecord
100
AcDbLinetypeTableRecord
2
BYBLOCK
70
0
0
LTYPE
5
15
100
AcDbSymbolTableRecord
100
AcDbLinetypeTableRecord
2
BYLAYER
70
0
0
LTYPE
5
16
100
AcDbSymbolTableRecord
100
AcDbLinetypeTableRecord
2
DASHED
70
0
3
Dashed __ __ __ __ __ __ __ __ __ __ __ __ __ _
72
65
73
2
40
0.75
49
0.5
74
0
49
-0.25
74
0
0
ENDTAB
0
TABLE
2
LAYER
5
2
100
AcDbSymbolTable
70
2
0
LAYER
5
50
100
AcDbSymbolTableRecord
100
AcDbLayerTableRecord
2
0
70
0
62
7
6
CONTINUOUS
0
ENDTAB
0
TABLE
2
STYLE
5
3
100
AcDbSymbolTable
70
1
0
STYLE
5
11
100
AcDbSymbolTableRecord
100
AcDbTextStyleTableRecord
2
STANDARD
70
0
0
ENDTAB
0
TABLE
2
VIEW
5
6
100
AcDbSymbolTable
70
0
0
ENDTAB
0
TABLE
2
UCS
5
7
100
AcDbSymbolTable
70
0
0
ENDTAB
0
TABLE
2
APPID
5
9
100
AcDbSymbolTable
70
2
0
APPID
5
12
100
AcDbSymbolTableRecord
100
AcDbRegAppTableRecord
2
ACAD
70
0
0
ENDTAB
0
TABLE
2
DIMSTYLE
5
A
100
AcDbSymbolTable
70
1
0
ENDTAB
0
TABLE
2
BLOCK_RECORD
5
1
100
AcDbSymbolTable
70
1
0
BLOCK_RECORD
5
1F
100
AcDbSymbolTableRecord
100
AcDbBlockTableRecord
2
*MODEL_SPACE
0
BLOCK_RECORD
5
1B
100
AcDbSymbolTableRecord
100
AcDbBlockTableRecord
2
*PAPER_SPACE
0
ENDTAB
0
ENDSEC
0
SECTION
2
BLOCKS
0
BLOCK
5
20
100
AcDbEntity
100
AcDbBlockBegin
2
*MODEL_SPACE
0
ENDBLK
5
21
100
AcDbEntity
100
AcDbBlockEnd
0
BLOCK
5
1C
100
AcDbEntity
100
AcDbBlockBegin
2
*PAPER_SPACE
0
ENDBLK
5
1D
100
AcDbEntity
100
AcDbBlockEnd
0
ENDSEC
0
SECTION
2
ENTITIES
0
LWPOLYLINE
5
100
100
AcDbEntity
8
OUTER_PROFILES
100
AcDbPolyline
90
18
70
1
43
0.0
10
3.8755649923850579e-14
20
57.023893421169518
10
3.8755649923850592e-14
20
52.023893421169518
10
3.2285131358456174e-15
20
15.761946710584862
10
3.2285131358456134e-15
20
13.500000000000201
10
10.261946710584697
20
13.50000000000021
10
10.261946710584697
20
0
10
2.2204460492503131e-15
20
0
10
-11.500000000000126
20
11.500000000000172
10
-325
20
11.500000000000172
10
-325
20
0
10
-418.26194671058465
20
0
10
-418.26194671058465
20
13.50000000000021
10
-410.26194671058465
20
13.500000000000201
10
-408
20
13.50000000000021
10
-408
20
15.761946710584862
10
-408
20
49.761946710584866
10
-408
20
52.023893421169518
10
-408
20
57.023893421169518
0
CIRCLE
5
101
100
AcDbEntity
8
INTERIOR_PROFILES
100
AcDbCircle
10
401.00000000000068
20
44.761946710584901
30
0
40
1.7000000000000171
210
0
220
0
230
-1
0
CIRCLE
5
102
100
AcDbEntity
8
INTERIOR_PROFILES
100
AcDbCircle
10
414.26194671057965
20
3.0000000000002114
30
0
40
1.7000000000000002
210
0
220
0
230
-1
0
CIRCLE
5
103
100
AcDbEntity
8
INTERIOR_PROFILES
100
AcDbCircle
10
400.99999999999994
20
3.0000000000002114
30
0
40
1.7000000000000171
210
0
220
0
230
-1
0
CIRCLE
5
104
100
AcDbEntity
8
INTERIOR_PROFILES
100
AcDbCircle
10
-6.2619467105777407
20
3.0000000000002114
30
0
40
1.7000000000000002
210
0
220
0
230
-1
0
CIRCLE
5
105
100
AcDbEntity
8
INTERIOR_PROFILES
100
AcDbCircle
10
6.9999999999993143
20
44.761946710584901
30
0
40
1.7000000000000171
210
0
220
0
230
-1
0
CIRCLE
5
106
100
AcDbEntity
8
INTERIOR_PROFILES
100
AcDbCircle
10
328.99999999999989
20
3.0000000000002114
30
0
40
1.7000000000000171
210
0
220
0
230
-1
0
CIRCLE
5
107
100
AcDbEntity
8
INTERIOR_PROFILES
100
AcDbCircle
10
374.99999999999994
20
3.0000000000002114
30
0
40
1.7000000000000171
210
0
220
0
230
-1
0
CIRCLE
5
108
100
AcDbEntity
8
INTERIOR_PROFILES
100
AcDbCircle
10
6.9999999999993143
20
19.76194671058489
30
0
40
1.6999999999999815
210
0
220
0
230
-1
0
CIRCLE
5
109
100
AcDbEntity
8
INTERIOR_PROFILES
100
AcDbCircle
10
401.00000000000068
20
19.76194671058489
30
0
40
1.7000000000000171
210
0
220
0
230
-1
0
LINE
5
110
100
AcDbEntity
8
BEND
100
AcDbLine
10
-408
20
50.892920065877199
30
1.3125611708630913e-12
11
0
21
50.892920065877199
31
-4.7184478546569153e-15
0
LINE
5
111
100
AcDbEntity
8
BEND
100
AcDbLine
10
-409.13097335529233
20
0
30
1.3025691636414649e-12
11
-409.13097335529233
21
13.500000000000201
31
1.3067324999838092e-12
0
LINE
5
112
100
AcDbEntity
8
BEND
100
AcDbLine
10
1.1309733552923333
20
0
30
2.4702462297909733e-14
11
1.1309733552923333
21
13.500000000000201
31
2.4702462297909733e-14
0
LINE
5
113
100
AcDbEntity
8
BEND
100
AcDbLine
10
-408
20
14.630973355292536
30
1.3175571744739045e-12
11
0
21
14.630973355292536
31
2.7755575615628914e-16
0
LINE
5
114
100
AcDbEntity
8
BEND_EXTENT
100
AcDbLine
10
-408
20
13.50000000000021
30
1.3172796187177482e-12
11
0
21
13.500000000000201
31
0
0
LINE
5
115
100
AcDbEntity
8
BEND_EXTENT
100
AcDbLine
10
0
20
13.500000000000201
30
0
11
3.2285131358456134e-15
21
0
31
0
0
LINE
5
116
100
AcDbEntity
8
BEND_EXTENT
100
AcDbLine
10
-408
20
13.50000000000021
30
1.3172796187177482e-12
11
-408
21
0
31
1.3172796187177482e-12
0
LINE
5
117
100
AcDbEntity
8
BEND_EXTENT
100
AcDbLine
10
3.2285131358456158e-15
20
15.761946710584862
30
8.3266726846886741e-16
11
-408
21
15.761946710584862
31
1.3181122859862171e-12
0
LINE
5
118
100
AcDbEntity
8
BEND_EXTENT
100
AcDbLine
10
2.2619467105846907
20
0
30
-2.8727020762175925e-14
11
2.261946710584692
21
13.500000000000201
31
-2.8727020762175925e-14
0
LINE
5
119
100
AcDbEntity
8
BEND_EXTENT
100
AcDbLine
10
-408
20
49.761946710584866
30
1.3114509478384662e-12
11
7.1054273576010019e-14
21
49.761946710584866
31
-5.8286708792820718e-15
0
LINE
5
120
100
AcDbEntity
8
BEND_EXTENT
100
AcDbLine
10
-410.26194671058465
20
0
30
1.3031242751537775e-12
11
-410.26194671058465
21
13.500000000000201
31
1.3031242751537775e-12
0
LINE
5
121
100
AcDbEntity
8
BEND_EXTENT
100
AcDbLine
10
3.8755649923850592e-14
20
52.023893421169518
30
-8.0491169285323849e-15
11
-408
21
52.023893421169518
31
1.3092305017892159e-12
0
ENDSEC
0
SECTION
2
OBJECTS
0
DICTIONARY
5
C
100
AcDbDictionary
3
ACAD_GROUP
350
D
3
ACAD_MLINESTYLE
350
17
0
DICTIONARY
5
D
100
AcDbDictionary
0
DICTIONARY
5
1A
330
C
100
AcDbDictionary
0
DICTIONARY
5
17
100
AcDbDictionary
0
ENDSEC
0
EOF
