0
SECTION
2
HEADER
9
$INSUNITS
70
4
9
$ACADVER
1
AC1014
9
$HANDSEED
5
FFFF
0
ENDSEC
0
SECTION
2
TABLES
0
TABLE
2
VPORT
5
8
100
AcDbSymbolTable
0
ENDTAB
0
TABLE
2
LTYPE
5
5
100
AcDbSymbolTable
0
LTYPE
5
14
100
AcDbSymbolTableRecord
100
AcDbLinetypeTableRecord
2
BYBLOCK
70
0
0
LTYPE
5
15
100
AcDbSymbolTableRecord
100
AcDbLinetypeTableRecord
2
BYLAYER
70
0
0
LTYPE
5
16
100
AcDbSymbolTableRecord
100
AcDbLinetypeTableRecord
2
DASHED
70
0
3
Dashed __ __ __ __ __ __ __ __ __ __ __ __ __ _
72
65
73
2
40
0.75
49
0.5
74
0
49
-0.25
74
0
0
ENDTAB
0
TABLE
2
LAYER
5
2
100
AcDbSymbolTable
70
2
0
LAYER
5
50
100
AcDbSymbolTableRecord
100
AcDbLayerTableRecord
2
0
70
0
62
7
6
CONTINUOUS
0
ENDTAB
0
TABLE
2
STYLE
5
3
100
AcDbSymbolTable
70
1
0
STYLE
5
11
100
AcDbSymbolTableRecord
100
AcDbTextStyleTableRecord
2
STANDARD
70
0
0
ENDTAB
0
TABLE
2
VIEW
5
6
100
AcDbSymbolTable
70
0
0
ENDTAB
0
TABLE
2
UCS
5
7
100
AcDbSymbolTable
70
0
0
ENDTAB
0
TABLE
2
APPID
5
9
100
AcDbSymbolTable
70
2
0
APPID
5
12
100
AcDbSymbolTableRecord
100
AcDbRegAppTableRecord
2
ACAD
70
0
0
ENDTAB
0
TABLE
2
DIMSTYLE
5
A
100
AcDbSymbolTable
70
1
0
ENDTAB
0
TABLE
2
BLOCK_RECORD
5
1
100
AcDbSymbolTable
70
1
0
BLOCK_RECORD
5
1F
100
AcDbSymbolTableRecord
100
AcDbBlockTableRecord
2
*MODEL_SPACE
0
BLOCK_RECORD
5
1B
100
AcDbSymbolTableRecord
100
AcDbBlockTableRecord
2
*PAPER_SPACE
0
ENDTAB
0
ENDSEC
0
SECTION
2
BLOCKS
0
BLOCK
5
20
100
AcDbEntity
100
AcDbBlockBegin
2
*MODEL_SPACE
0
ENDBLK
5
21
100
AcDbEntity
100
AcDbBlockEnd
0
BLOCK
5
1C
100
AcDbEntity
100
AcDbBlockBegin
2
*PAPER_SPACE
0
ENDBLK
5
1D
100
AcDbEntity
100
AcDbBlockEnd
0
ENDSEC
0
SECTION
2
ENTITIES
0
LWPOLYLINE
5
100
100
AcDbEntity
8
OUTER_PROFILES
100
AcDbPolyline
90
26
70
1
43
0.0
10
-12.999999999999972
20
41.523893421169191
10
-13.000000000000114
20
65.785840131753815
10
-13.000000000000114
20
68.047786842338454
10
-26.261946710584567
20
68.047786842338454
10
-26.261946710584425
20
454.81171886483872
10
-13.000000000000114
20
454.81171886483867
10
-13.000000000000114
20
456.02285775045641
10
-12.999999999999972
20
457.23399663607427
10
-12.999999999999972
20
463.49594334665886
10
-12.999999999999972
20
484.49594334665892
10
983
20
484.49594334665892
10
983
20
461.23399663607421
10
983
20
457.23399663607427
10
983.00000000000011
20
456.02285775045641
10
983.00000000000011
20
454.81171886483867
10
996.26194671058454
20
454.81171886483872
10
996.26194671058454
20
68.047786842338454
10
983.00000000000011
20
68.047786842338454
10
983.00000000000011
20
65.785840131753815
10
983
20
41.523893421169191
10
983
20
23.261946710584596
10
983
20
12.999999999999972
42
0.41421356237309509
10
970
20
-2.388061258337333e-15
10
0
20
-7.9602041944577787e-16
42
0.41421356237309503
10
-12.999999999999972
20
12.999999999999972
10
-12.999999999999972
20
23.261946710584596
0
CIRCLE
5
101
100
AcDbEntity
8
INTERIOR_PROFILES
100
AcDbCircle
10
-84.999999999999432
20
2.9999999999999716
30
0
40
1.7000000000000171
210
0
220
0
230
-1
0
CIRCLE
5
102
100
AcDbEntity
8
INTERIOR_PROFILES
100
AcDbCircle
10
-484.99999999999943
20
2.9999999999999716
30
0
40
1.7000000000000171
210
0
220
0
230
-1
0
CIRCLE
5
103
100
AcDbEntity
8
INTERIOR_PROFILES
100
AcDbCircle
10
-950
20
50.785840131753815
30
0
40
1.6999999999999993
210
0
220
0
230
-1
0
CIRCLE
5
104
100
AcDbEntity
8
INTERIOR_PROFILES
100
AcDbCircle
10
-784.99999999999943
20
2.9999999999999716
30
0
40
1.7000000000000171
210
0
220
0
230
-1
0
CIRCLE
5
105
100
AcDbEntity
8
INTERIOR_PROFILES
100
AcDbCircle
10
-65.999999999999517
20
50.785840131753815
30
0
40
1.6999999999999993
210
0
220
0
230
-1
0
CIRCLE
5
106
100
AcDbEntity
8
INTERIOR_PROFILES
100
AcDbCircle
10
-584.99999999999943
20
2.9999999999999716
30
0
40
1.7000000000000171
210
0
220
0
230
-1
0
CIRCLE
5
107
100
AcDbEntity
8
INTERIOR_PROFILES
100
AcDbCircle
10
-284.99999999999943
20
2.9999999999999716
30
0
40
1.7000000000000171
210
0
220
0
230
-1
0
CIRCLE
5
108
100
AcDbEntity
8
INTERIOR_PROFILES
100
AcDbCircle
10
-684.99999999999943
20
2.9999999999999716
30
0
40
1.7000000000000171
210
0
220
0
230
-1
0
CIRCLE
5
109
100
AcDbEntity
8
INTERIOR_PROFILES
100
AcDbCircle
10
-384.99999999999943
20
2.9999999999999716
30
0
40
1.7000000000000171
210
0
220
0
230
-1
0
CIRCLE
5
110
100
AcDbEntity
8
INTERIOR_PROFILES
100
AcDbCircle
10
20.761946710565411
20
355.04778684233838
30
0
40
4.5000000000000284
210
0
220
0
230
-1
0
CIRCLE
5
111
100
AcDbEntity
8
INTERIOR_PROFILES
100
AcDbCircle
10
-990.76194671057078
20
355.04778684233855
30
0
40
4.5000000000000284
210
0
220
0
230
-1
0
CIRCLE
5
112
100
AcDbEntity
8
INTERIOR_PROFILES
100
AcDbCircle
10
6.0000000000005116
20
50.785840131753815
30
0
40
1.6999999999999993
210
0
220
0
230
-1
0
CIRCLE
5
113
100
AcDbEntity
8
INTERIOR_PROFILES
100
AcDbCircle
10
-903.99999999999989
20
50.785840131753815
30
0
40
1.6999999999999993
210
0
220
0
230
-1
0
CIRCLE
5
114
100
AcDbEntity
8
INTERIOR_PROFILES
100
AcDbCircle
10
-19.999999999999574
20
50.785840131753815
30
0
40
1.6999999999999993
210
0
220
0
230
-1
0
CIRCLE
5
115
100
AcDbEntity
8
INTERIOR_PROFILES
100
AcDbCircle
10
-184.99999999999943
20
2.9999999999999716
30
0
40
1.7000000000000171
210
0
220
0
230
-1
0
CIRCLE
5
116
100
AcDbEntity
8
INTERIOR_PROFILES
100
AcDbCircle
10
-976
20
50.785840131753815
30
0
40
1.6999999999999993
210
0
220
0
230
-1
0
CIRCLE
5
117
100
AcDbEntity
8
INTERIOR_PROFILES
100
AcDbCircle
10
-990.76194671057078
20
200.04778684233858
30
0
40
4.4999999999999929
210
0
220
0
230
-1
0
CIRCLE
5
118
100
AcDbEntity
8
INTERIOR_PROFILES
100
AcDbCircle
10
-884.99999999999943
20
2.9999999999999716
30
0
40
1.7000000000000171
210
0
220
0
230
-1
0
CIRCLE
5
119
100
AcDbEntity
8
INTERIOR_PROFILES
100
AcDbCircle
10
20.761946710565411
20
200.04778684233844
30
0
40
4.4999999999999929
210
0
220
0
230
-1
0
CIRCLE
5
120
100
AcDbEntity
8
INTERIOR_PROFILES
100
AcDbCircle
10
-485
20
473.49594334665886
30
0
40
8.75
210
0
220
0
230
-1
0
CIRCLE
5
121
100
AcDbEntity
8
INTERIOR_PROFILES
100
AcDbCircle
10
5.9999999999969589
20
265.04778684234617
30
0
40
1.7000000000000171
210
0
220
0
230
-1
0
CIRCLE
5
122
100
AcDbEntity
8
INTERIOR_PROFILES
100
AcDbCircle
10
-385
20
75.04778684233834
30
0
40
1.7000000000000171
210
0
220
0
230
-1
0
CIRCLE
5
123
100
AcDbEntity
8
INTERIOR_PROFILES
100
AcDbCircle
10
-976
20
98.047786842338454
30
0
40
1.7000000000000171
210
0
220
0
230
-1
0
CIRCLE
5
124
100
AcDbEntity
8
INTERIOR_PROFILES
100
AcDbCircle
10
5.9999999999944009
20
432.04778684234617
30
0
40
1.7000000000000171
210
0
220
0
230
-1
0
CIRCLE
5
125
100
AcDbEntity
8
INTERIOR_PROFILES
100
AcDbCircle
10
-885
20
75.04778684233834
30
0
40
1.7000000000000171
210
0
220
0
230
-1
0
CIRCLE
5
126
100
AcDbEntity
8
INTERIOR_PROFILES
100
AcDbCircle
10
23.261946710565411
20
277.54778684233844
30
0
40
1.6999999999999815
210
0
220
0
230
-1
0
CIRCLE
5
127
100
AcDbEntity
8
INTERIOR_PROFILES
100
AcDbCircle
10
-585
20
75.04778684233834
30
0
40
1.7000000000000171
210
0
220
0
230
-1
0
CIRCLE
5
128
100
AcDbEntity
8
INTERIOR_PROFILES
100
AcDbCircle
10
23.261946710565411
20
122.54778684233841
30
0
40
1.7000000000000171
210
0
220
0
230
-1
0
CIRCLE
5
129
100
AcDbEntity
8
INTERIOR_PROFILES
100
AcDbCircle
10
-685
20
75.04778684233834
30
0
40
1.7000000000000171
210
0
220
0
230
-1
0
CIRCLE
5
130
100
AcDbEntity
8
INTERIOR_PROFILES
100
AcDbCircle
10
5.9999999999999432
20
78.54778684234617
30
0
40
1.7000000000000171
210
0
220
0
230
-1
0
CIRCLE
5
131
100
AcDbEntity
8
INTERIOR_PROFILES
100
AcDbCircle
10
23.261946710565411
20
432.54778684233838
30
0
40
1.7000000000000171
210
0
220
0
230
-1
0
CIRCLE
5
132
100
AcDbEntity
8
INTERIOR_PROFILES
100
AcDbCircle
10
-15.000000000006253
20
459.73399663608171
30
0
40
1.25
210
0
220
0
230
-1
0
CIRCLE
5
133
100
AcDbEntity
8
INTERIOR_PROFILES
100
AcDbCircle
10
-485
20
75.04778684233834
30
0
40
1.7000000000000171
210
0
220
0
230
-1
0
CIRCLE
5
134
100
AcDbEntity
8
INTERIOR_PROFILES
100
AcDbCircle
10
-976
20
451.5477868423385
30
0
40
1.7000000000000171
210
0
220
0
230
-1
0
CIRCLE
5
135
100
AcDbEntity
8
INTERIOR_PROFILES
100
AcDbCircle
10
-993.26194671057078
20
277.54778684233861
30
0
40
1.6999999999999815
210
0
220
0
230
-1
0
CIRCLE
5
136
100
AcDbEntity
8
INTERIOR_PROFILES
100
AcDbCircle
10
-976
20
265.04778684233844
30
0
40
1.7000000000000171
210
0
220
0
230
-1
0
CIRCLE
5
137
100
AcDbEntity
8
INTERIOR_PROFILES
100
AcDbCircle
10
-993.26194671057078
20
122.54778684233855
30
0
40
1.7000000000000171
210
0
220
0
230
-1
0
CIRCLE
5
138
100
AcDbEntity
8
INTERIOR_PROFILES
100
AcDbCircle
10
5.9999999999941167
20
441.79778684234623
30
0
40
6.5000000000000568
210
0
220
0
230
-1
0
CIRCLE
5
139
100
AcDbEntity
8
INTERIOR_PROFILES
100
AcDbCircle
10
-976
20
78.547786842338425
30
0
40
1.7000000000000171
210
0
220
0
230
-1
0
CIRCLE
5
140
100
AcDbEntity
8
INTERIOR_PROFILES
100
AcDbCircle
10
-976
20
441.79778684233844
30
0
40
6.5000000000000568
210
0
220
0
230
-1
0
CIRCLE
5
141
100
AcDbEntity
8
INTERIOR_PROFILES
100
AcDbCircle
10
-185
20
75.04778684233834
30
0
40
1.7000000000000171
210
0
220
0
230
-1
0
CIRCLE
5
142
100
AcDbEntity
8
INTERIOR_PROFILES
100
AcDbCircle
10
5.9999999999996589
20
98.047786842346198
30
0
40
1.7000000000000171
210
0
220
0
230
-1
0
CIRCLE
5
143
100
AcDbEntity
8
INTERIOR_PROFILES
100
AcDbCircle
10
-993.26194671057078
20
432.54778684233855
30
0
40
1.7000000000000171
210
0
220
0
230
-1
0
CIRCLE
5
144
100
AcDbEntity
8
INTERIOR_PROFILES
100
AcDbCircle
10
-976
20
432.04778684233844
30
0
40
1.7000000000000171
210
0
220
0
230
-1
0
CIRCLE
5
145
100
AcDbEntity
8
INTERIOR_PROFILES
100
AcDbCircle
10
-785
20
75.04778684233834
30
0
40
1.7000000000000171
210
0
220
0
230
-1
0
CIRCLE
5
146
100
AcDbEntity
8
INTERIOR_PROFILES
100
AcDbCircle
10
5.9999999999941167
20
451.54778684234623
30
0
40
1.7000000000000171
210
0
220
0
230
-1
0
CIRCLE
5
147
100
AcDbEntity
8
INTERIOR_PROFILES
100
AcDbCircle
10
-955
20
459.73399663607427
30
0
40
1.25
210
0
220
0
230
-1
0
CIRCLE
5
148
100
AcDbEntity
8
INTERIOR_PROFILES
100
AcDbCircle
10
-85
20
75.04778684233834
30
0
40
1.7000000000000171
210
0
220
0
230
-1
0
CIRCLE
5
149
100
AcDbEntity
8
INTERIOR_PROFILES
100
AcDbCircle
10
-285
20
75.04778684233834
30
0
40
1.7000000000000171
210
0
220
0
230
-1
0
LINE
5
150
100
AcDbEntity
8
BEND
100
AcDbLine
10
983
20
14.130973355292333
30
-2.8033131371785203e-14
11
-12.999999999999972
21
14.130973355292333
31
-2.8033131371785203e-14
0
LINE
5
151
100
AcDbEntity
8
BEND
100
AcDbLine
10
983
20
24.392920065876886
30
-1.6264767310758569e-13
11
-12.999999999999972
21
24.392920065876886
31
-1.6264767310758569e-13
0
LINE
5
152
100
AcDbEntity
8
BEND
100
AcDbLine
10
983
20
462.36496999136654
30
6.0701443871380434e-13
11
-12.999999999999972
21
462.36496999136654
31
6.0701443871380434e-13
0
LINE
5
153
100
AcDbEntity
8
BEND
100
AcDbLine
10
983
20
42.654866776461517
30
1.8818280267396424e-13
11
-12.999999999999972
21
42.654866776461517
31
1.8818280267396424e-13
0
LINE
5
154
100
AcDbEntity
8
BEND
100
AcDbLine
10
-14.130973355292298
20
454.81171886483855
30
5.3845816694320092e-13
11
-14.130973355292298
21
68.047786842338454
31
5.0598414347291509e-13
0
LINE
5
155
100
AcDbEntity
8
BEND
100
AcDbLine
10
983
20
456.62842719326534
30
5.9775757629308281e-13
11
-12.999999999999972
21
456.62842719326534
31
5.9775757629308281e-13
0
LINE
5
156
100
AcDbEntity
8
BEND
100
AcDbLine
10
983.00000000000011
20
66.916813487046213
30
5.4539706084710906e-13
11
-13.000000000000114
21
66.916813487046213
31
5.4539706084710906e-13
0
LINE
5
157
100
AcDbEntity
8
BEND
100
AcDbLine
10
983.00000000000011
20
455.4172883076476
30
5.9563465271139658e-13
11
-13.000000000000256
21
455.4172883076476
31
5.9563465271139658e-13
0
LINE
5
158
100
AcDbEntity
8
BEND
100
AcDbLine
10
984.13097335529244
20
68.047786842338454
30
5.3818061118704463e-13
11
984.13097335529244
21
454.81171886483872
31
5.3734794391857577e-13
0
LINE
5
159
100
AcDbEntity
8
BEND_EXTENT
100
AcDbLine
10
983
20
12.999999999999972
30
-4.4408920985006262e-15
11
-12.999999999999972
21
12.999999999999972
31
-4.4408920985006262e-15
0
LINE
5
160
100
AcDbEntity
8
BEND_EXTENT
100
AcDbLine
10
985.26194671058465
20
454.81171886483872
30
5.3733928101503486e-13
11
985.26194671058465
21
68.047786842338454
31
5.3815375609285884e-13
0
LWPOLYLINE
5
161
100
AcDbEntity
8
BEND_EXTENT
100
AcDbPolyline
90
4
70
1
43
0.0
10
983.00000000000011
20
68.047786842338454
10
983.00000000000011
20
454.81171886483867
10
-13.000000000000114
20
454.81171886483867
10
-13.000000000000114
20
68.047786842338454
0
LINE
5
162
100
AcDbEntity
8
BEND_EXTENT
100
AcDbLine
10
-15.261946710584624
20
68.047786842338454
30
4.5297099404706387e-13
11
-15.261946710584482
21
454.81171886483855
31
5.9507954119908391e-13
0
LINE
5
163
100
AcDbEntity
8
BEND_EXTENT
100
AcDbLine
10
983.00000000000011
20
65.785840131753815
30
6.6613381477509392e-13
11
-13.000000000000114
21
65.785840131753815
31
6.6613381477509392e-13
0
LINE
5
164
100
AcDbEntity
8
BEND_EXTENT
100
AcDbLine
10
-13.000000000000114
20
456.02285775045641
30
5.9729998724833422e-13
11
983.00000000000011
21
456.02285775045641
31
5.9729998724833422e-13
0
LINE
5
165
100
AcDbEntity
8
BEND_EXTENT
100
AcDbLine
10
983
20
23.261946710584596
30
-4.4408920985006262e-14
11
-12.999999999999972
21
23.261946710584596
31
-4.4408920985006262e-14
0
LINE
5
166
100
AcDbEntity
8
BEND_EXTENT
100
AcDbLine
10
-12.999999999999972
20
25.523893421169248
30
-8.8817841970012523e-14
11
983
21
25.523893421169248
31
-8.8817841970012523e-14
0
LINE
5
167
100
AcDbEntity
8
BEND_EXTENT
100
AcDbLine
10
983
20
41.523893421169191
30
1.8207657603852567e-13
11
-12.999999999999972
21
41.523893421169191
31
1.8207657603852567e-13
0
LINE
5
168
100
AcDbEntity
8
BEND_EXTENT
100
AcDbLine
10
-12.999999999999972
20
15.261946710584597
30
-4.4408920985006262e-14
11
983
21
15.261946710584597
31
-4.4408920985006262e-14
0
LINE
5
169
100
AcDbEntity
8
BEND_EXTENT
100
AcDbLine
10
-12.999999999999972
20
43.785840131753815
30
2.3980817331903381e-13
11
983
21
43.785840131753815
31
2.3980817331903381e-13
0
LINE
5
170
100
AcDbEntity
8
BEND_EXTENT
100
AcDbLine
10
-12.999999999999972
20
457.23399663607427
30
5.9882654390719381e-13
11
983
21
457.23399663607427
31
5.9868776602911566e-13
0
LINE
5
171
100
AcDbEntity
8
BEND_EXTENT
100
AcDbLine
10
983
20
461.23399663607421
30
6.0507154842071031e-13
11
-12.999999999999972
21
461.23399663607421
31
6.0521032629878846e-13
0
LINE
5
172
100
AcDbEntity
8
BEND_EXTENT
100
AcDbLine
10
-12.999999999999972
20
463.49594334665886
30
6.0968541723152983e-13
11
983
21
463.49594334665886
31
6.0968541723152983e-13
0
ENDSEC
0
SECTION
2
OBJECTS
0
DICTIONARY
5
C
100
AcDbDictionary
3
ACAD_GROUP
350
D
3
ACAD_MLINESTYLE
350
17
0
DICTIONARY
5
D
100
AcDbDictionary
0
DICTIONARY
5
1A
330
C
100
AcDbDictionary
0
DICTIONARY
5
17
100
AcDbDictionary
0
ENDSEC
0
EOF
