0
SECTION
2
HEADER
9
$INSUNITS
70
4
9
$ACADVER
1
AC1014
9
$HANDSEED
5
FFFF
0
ENDSEC
0
SECTION
2
TABLES
0
TABLE
2
VPORT
5
8
100
AcDbSymbolTable
0
ENDTAB
0
TABLE
2
LTYPE
5
5
100
AcDbSymbolTable
0
LTYPE
5
14
100
AcDbSymbolTableRecord
100
AcDbLinetypeTableRecord
2
BYBLOCK
70
0
0
LTYPE
5
15
100
AcDbSymbolTableRecord
100
AcDbLinetypeTableRecord
2
BYLAYER
70
0
0
LTYPE
5
16
100
AcDbSymbolTableRecord
100
AcDbLinetypeTableRecord
2
DASHED
70
0
3
Dashed __ __ __ __ __ __ __ __ __ __ __ __ __ _
72
65
73
2
40
0.75
49
0.5
74
0
49
-0.25
74
0
0
ENDTAB
0
TABLE
2
LAYER
5
2
100
AcDbSymbolTable
70
2
0
LAYER
5
50
100
AcDbSymbolTableRecord
100
AcDbLayerTableRecord
2
0
70
0
62
7
6
CONTINUOUS
0
ENDTAB
0
TABLE
2
STYLE
5
3
100
AcDbSymbolTable
70
1
0
STYLE
5
11
100
AcDbSymbolTableRecord
100
AcDbTextStyleTableRecord
2
STANDARD
70
0
0
ENDTAB
0
TABLE
2
VIEW
5
6
100
AcDbSymbolTable
70
0
0
ENDTAB
0
TABLE
2
UCS
5
7
100
AcDbSymbolTable
70
0
0
ENDTAB
0
TABLE
2
APPID
5
9
100
AcDbSymbolTable
70
2
0
APPID
5
12
100
AcDbSymbolTableRecord
100
AcDbRegAppTableRecord
2
ACAD
70
0
0
ENDTAB
0
TABLE
2
DIMSTYLE
5
A
100
AcDbSymbolTable
70
1
0
ENDTAB
0
TABLE
2
BLOCK_RECORD
5
1
100
AcDbSymbolTable
70
1
0
BLOCK_RECORD
5
1F
100
AcDbSymbolTableRecord
100
AcDbBlockTableRecord
2
*MODEL_SPACE
0
BLOCK_RECORD
5
1B
100
AcDbSymbolTableRecord
100
AcDbBlockTableRecord
2
*PAPER_SPACE
0
ENDTAB
0
ENDSEC
0
SECTION
2
BLOCKS
0
BLOCK
5
20
100
AcDbEntity
100
AcDbBlockBegin
2
*MODEL_SPACE
0
ENDBLK
5
21
100
AcDbEntity
100
AcDbBlockEnd
0
BLOCK
5
1C
100
AcDbEntity
100
AcDbBlockBegin
2
*PAPER_SPACE
0
ENDBLK
5
1D
100
AcDbEntity
100
AcDbBlockEnd
0
ENDSEC
0
SECTION
2
ENTITIES
0
LWPOLYLINE
5
100
100
AcDbEntity
8
OUTER_PROFILES
100
AcDbPolyline
90
34
70
1
43
0.0
10
596
20
470.0955736846791
10
596
20
467.83362697410837
10
596
20
457.57168026350757
10
596
20
449.30973355291741
10
596
20
427.30973355291735
10
596
20
425.04778684233855
10
609.26194671058443
20
425.04778684233855
10
609.26194671058443
20
54.04778684233861
10
596
20
54.047786842338574
10
596
20
51.785840131753964
10
596
20
44.785840131754007
10
596.0000000000008
20
42.523893421169312
42
0.99999999999999989
10
596
20
23.523893421169252
10
596
20
10.261946710584713
10
596
20
0
10
0
20
0
10
0
20
10.261946710584713
10
0
20
23.523893421169262
42
0.99999999999999989
10
0
20
42.523893421169291
10
0
20
44.785840131754007
10
0
20
51.785840131753964
10
0
20
54.047786842338574
10
-13.261946710584596
20
54.04778684233861
10
-13.261946710584596
20
425.04778684233855
10
0
20
425.04778684233855
10
0
20
427.30973355291735
10
0
20
449.30973355291741
10
0
20
457.57168026350757
10
0
20
467.83362697410837
10
-3.9801020972288894e-16
20
470.09557368467904
42
0.41421356237309503
10
6.4999999999999858
20
476.59557368467904
10
6.4999999999999858
20
483.09557368467904
10
589.50000000000034
20
483.09557368467904
10
589.50000000000045
20
476.59557368467904
42
0.41421356237307583
0
CIRCLE
5
101
100
AcDbEntity
8
INTERIOR_PROFILES
100
AcDbCircle
10
-589
20
414.54778684233861
30
0
40
1.7000000000000171
210
0
220
0
230
-1
0
CIRCLE
5
102
100
AcDbEntity
8
INTERIOR_PROFILES
100
AcDbCircle
10
-517
20
442.30973355291752
30
0
40
1.7000000000000171
210
0
220
0
230
-1
0
CIRCLE
5
103
100
AcDbEntity
8
INTERIOR_PROFILES
100
AcDbCircle
10
-7.0000000000010232
20
61.047786842337395
30
0
40
1.7000000000000004
210
0
220
0
230
-1
0
CIRCLE
5
104
100
AcDbEntity
8
INTERIOR_PROFILES
100
AcDbCircle
10
-7.0000000000005969
20
228.04778684233739
30
0
40
1.7000000000000004
210
0
220
0
230
-1
0
CIRCLE
5
105
100
AcDbEntity
8
INTERIOR_PROFILES
100
AcDbCircle
10
-7.0000000000000284
20
442.30973355291752
30
0
40
1.7000000000000171
210
0
220
0
230
-1
0
CIRCLE
5
106
100
AcDbEntity
8
INTERIOR_PROFILES
100
AcDbCircle
10
-589
20
442.30973355291752
30
0
40
1.7000000000000171
210
0
220
0
230
-1
0
CIRCLE
5
107
100
AcDbEntity
8
INTERIOR_PROFILES
100
AcDbCircle
10
-398
20
33.023893421169277
30
0
40
1.7000000000000171
210
0
220
0
230
-1
0
CIRCLE
5
108
100
AcDbEntity
8
INTERIOR_PROFILES
100
AcDbCircle
10
-563
20
442.30973355291752
30
0
40
1.7000000000000171
210
0
220
0
230
-1
0
CIRCLE
5
109
100
AcDbEntity
8
INTERIOR_PROFILES
100
AcDbCircle
10
-498.00000000000011
20
418.04778684233867
30
0
40
1.7000000000000171
210
0
220
0
230
-1
0
CIRCLE
5
110
100
AcDbEntity
8
INTERIOR_PROFILES
100
AcDbCircle
10
-589
20
395.04778684233855
30
0
40
1.7000000000000171
210
0
220
0
230
-1
0
CIRCLE
5
111
100
AcDbEntity
8
INTERIOR_PROFILES
100
AcDbCircle
10
-589
20
228.04778684233861
30
0
40
1.7000000000000171
210
0
220
0
230
-1
0
CIRCLE
5
112
100
AcDbEntity
8
INTERIOR_PROFILES
100
AcDbCircle
10
-32.999999999999901
20
442.30973355291752
30
0
40
1.7000000000000171
210
0
220
0
230
-1
0
CIRCLE
5
113
100
AcDbEntity
8
INTERIOR_PROFILES
100
AcDbCircle
10
-498
20
33.023893421169277
30
0
40
1.7000000000000171
210
0
220
0
230
-1
0
CIRCLE
5
114
100
AcDbEntity
8
INTERIOR_PROFILES
100
AcDbCircle
10
-197.99999999999997
20
33.023893421169277
30
0
40
1.7000000000000171
210
0
220
0
230
-1
0
CIRCLE
5
115
100
AcDbEntity
8
INTERIOR_PROFILES
100
AcDbCircle
10
-398
20
2.9999999999999716
30
0
40
1.7000000000000171
210
0
220
0
230
-1
0
CIRCLE
5
116
100
AcDbEntity
8
INTERIOR_PROFILES
100
AcDbCircle
10
-298
20
33.023893421169277
30
0
40
1.7000000000000171
210
0
220
0
230
-1
0
CIRCLE
5
117
100
AcDbEntity
8
INTERIOR_PROFILES
100
AcDbCircle
10
-589
20
61.047786842338603
30
0
40
1.7000000000000171
210
0
220
0
230
-1
0
CIRCLE
5
118
100
AcDbEntity
8
INTERIOR_PROFILES
100
AcDbCircle
10
-498
20
2.9999999999999716
30
0
40
1.7000000000000171
210
0
220
0
230
-1
0
CIRCLE
5
119
100
AcDbEntity
8
INTERIOR_PROFILES
100
AcDbCircle
10
-97.999999999999972
20
33.023893421169277
30
0
40
1.6999999999999993
210
0
220
0
230
-1
0
CIRCLE
5
120
100
AcDbEntity
8
INTERIOR_PROFILES
100
AcDbCircle
10
-197.99999999999969
20
418.04778684233867
30
0
40
1.7000000000000171
210
0
220
0
230
-1
0
CIRCLE
5
121
100
AcDbEntity
8
INTERIOR_PROFILES
100
AcDbCircle
10
-7.0000000000003126
20
414.54778684233747
30
0
40
1.7000000000000004
210
0
220
0
230
-1
0
CIRCLE
5
122
100
AcDbEntity
8
INTERIOR_PROFILES
100
AcDbCircle
10
-298.00000000000017
20
418.04778684233867
30
0
40
1.7000000000000171
210
0
220
0
230
-1
0
CIRCLE
5
123
100
AcDbEntity
8
INTERIOR_PROFILES
100
AcDbCircle
10
-7.0000000000003126
20
395.04778684233742
30
0
40
1.7000000000000004
210
0
220
0
230
-1
0
CIRCLE
5
124
100
AcDbEntity
8
INTERIOR_PROFILES
100
AcDbCircle
10
-398.00000000000011
20
418.04778684233867
30
0
40
1.7000000000000171
210
0
220
0
230
-1
0
CIRCLE
5
125
100
AcDbEntity
8
INTERIOR_PROFILES
100
AcDbCircle
10
-97.999999999999687
20
418.04778684233867
30
0
40
1.6999999999999993
210
0
220
0
230
-1
0
CIRCLE
5
126
100
AcDbEntity
8
INTERIOR_PROFILES
100
AcDbCircle
10
-78.999999999999915
20
442.30973355291752
30
0
40
1.7000000000000171
210
0
220
0
230
-1
0
CIRCLE
5
127
100
AcDbEntity
8
INTERIOR_PROFILES
100
AcDbCircle
10
-398
20
480.0955736846791
30
0
40
1.7000000000000171
210
0
220
0
230
-1
0
CIRCLE
5
128
100
AcDbEntity
8
INTERIOR_PROFILES
100
AcDbCircle
10
-498
20
480.0955736846791
30
0
40
1.7000000000000171
210
0
220
0
230
-1
0
CIRCLE
5
129
100
AcDbEntity
8
INTERIOR_PROFILES
100
AcDbCircle
10
-298
20
2.9999999999999716
30
0
40
1.7000000000000171
210
0
220
0
230
-1
0
CIRCLE
5
130
100
AcDbEntity
8
INTERIOR_PROFILES
100
AcDbCircle
10
-298
20
480.0955736846791
30
0
40
1.7000000000000171
210
0
220
0
230
-1
0
CIRCLE
5
131
100
AcDbEntity
8
INTERIOR_PROFILES
100
AcDbCircle
10
10.261946710584624
20
215.54778684233855
30
0
40
1.7000000000000171
210
0
220
0
230
-1
0
CIRCLE
5
132
100
AcDbEntity
8
INTERIOR_PROFILES
100
AcDbCircle
10
-606.26194671058465
20
215.54778684233855
30
0
40
1.7000000000000171
210
0
220
0
230
-1
0
CIRCLE
5
133
100
AcDbEntity
8
INTERIOR_PROFILES
100
AcDbCircle
10
-606.26194671058454
20
370.5477868423385
30
0
40
1.7000000000000171
210
0
220
0
230
-1
0
CIRCLE
5
134
100
AcDbEntity
8
INTERIOR_PROFILES
100
AcDbCircle
10
-197.99999999999997
20
480.0955736846791
30
0
40
1.7000000000000171
210
0
220
0
230
-1
0
CIRCLE
5
135
100
AcDbEntity
8
INTERIOR_PROFILES
100
AcDbCircle
10
-97.999999999999972
20
480.0955736846791
30
0
40
1.6999999999999993
210
0
220
0
230
-1
0
CIRCLE
5
136
100
AcDbEntity
8
INTERIOR_PROFILES
100
AcDbCircle
10
-97.999999999999972
20
2.9999999999999716
30
0
40
1.6999999999999993
210
0
220
0
230
-1
0
CIRCLE
5
137
100
AcDbEntity
8
INTERIOR_PROFILES
100
AcDbCircle
10
10.261946710584624
20
370.5477868423385
30
0
40
1.7000000000000171
210
0
220
0
230
-1
0
CIRCLE
5
138
100
AcDbEntity
8
INTERIOR_PROFILES
100
AcDbCircle
10
-606.26194671058454
20
60.54778684233856
30
0
40
1.6999999999999993
210
0
220
0
230
-1
0
CIRCLE
5
139
100
AcDbEntity
8
INTERIOR_PROFILES
100
AcDbCircle
10
-197.99999999999997
20
2.9999999999999716
30
0
40
1.7000000000000171
210
0
220
0
230
-1
0
CIRCLE
5
140
100
AcDbEntity
8
INTERIOR_PROFILES
100
AcDbCircle
10
10.261946710584624
20
60.54778684233856
30
0
40
1.6999999999999993
210
0
220
0
230
-1
0
LINE
5
141
100
AcDbEntity
8
BEND
100
AcDbLine
10
0
20
426.17876019762787
30
-4.9742228509000127e-12
11
596.00000000000011
21
426.17876019762787
31
-4.9295805883794013e-12
0
LINE
5
142
100
AcDbEntity
8
BEND
100
AcDbLine
10
0
20
468.96460032939359
30
-6.9517056887676612e-12
11
596
21
468.96460032939359
31
-6.8419974621682391e-12
0
LINE
5
143
100
AcDbEntity
8
BEND
100
AcDbLine
10
0
20
450.44070690821258
30
-5.0141528099857918e-12
11
596
21
450.44070690821258
31
-5.0510836903367105e-12
0
LINE
5
144
100
AcDbEntity
8
BEND
100
AcDbLine
10
0
20
43.654866776461674
30
-4.2322168450389436e-12
11
596
21
43.654866776461674
31
-4.229705320991872e-12
0
LINE
5
145
100
AcDbEntity
8
BEND
100
AcDbLine
10
0
20
22.392920065876979
30
-2.2692799067551024e-12
11
596
21
22.392920065876979
31
-2.2694389286720048e-12
0
LINE
5
146
100
AcDbEntity
8
BEND
100
AcDbLine
10
0
20
52.916813487046277
30
-4.8648738733138996e-12
11
596
21
52.916813487046277
31
-4.8614523115049286e-12
0
LINE
5
147
100
AcDbEntity
8
BEND
100
AcDbLine
10
0
20
9.1309733552923511
30
-9.1434174448548647e-13
11
596
21
9.1309733552923511
31
-9.0981854744886152e-13
0
LINE
5
148
100
AcDbEntity
8
BEND
100
AcDbLine
10
597.13097335529221
20
425.04778684233855
30
-4.9132919954786303e-12
11
597.13097335529221
21
54.04778684233861
31
-4.9132919954786303e-12
0
LINE
5
149
100
AcDbEntity
8
BEND
100
AcDbLine
10
0
20
458.70265361880786
30
-5.7689392987207545e-12
11
596
21
458.70265361880786
31
-5.7354606420374571e-12
0
LINE
5
150
100
AcDbEntity
8
BEND
100
AcDbLine
10
-1.1309733552922552
20
54.047786842338645
30
-4.9295290072137732e-12
11
-1.1309733552922552
21
425.04778684233855
31
-4.9298065629699295e-12
0
LINE
5
151
100
AcDbEntity
8
BEND_EXTENT
100
AcDbLine
10
596
20
23.523893421169252
30
-2.3869795029440866e-12
11
0
21
23.523893421169252
31
-2.3869795029440866e-12
0
LINE
5
152
100
AcDbEntity
8
BEND_EXTENT
100
AcDbLine
10
0
20
42.523893421169312
30
-4.1544545581473358e-12
11
596
21
42.523893421169312
31
-4.1544545581473358e-12
0
LINE
5
153
100
AcDbEntity
8
BEND_EXTENT
100
AcDbLine
10
596
20
470.0955736846791
30
-6.9677597025474824e-12
11
0
21
470.0955736846791
31
-6.9677597025474824e-12
0
LINE
5
154
100
AcDbEntity
8
BEND_EXTENT
100
AcDbLine
10
598.26194671058454
20
425.04778684233855
30
-4.929390229335695e-12
11
598.26194671058454
21
54.04778684233861
31
-4.929390229335695e-12
0
LWPOLYLINE
5
155
100
AcDbEntity
8
BEND_EXTENT
100
AcDbPolyline
90
4
70
1
43
0.0
10
596
20
54.047786842338574
10
596
20
425.04778684233855
10
0
20
425.04778684233855
10
0
20
54.04778684233861
0
LINE
5
156
100
AcDbEntity
8
BEND_EXTENT
100
AcDbLine
10
-2.2619467105845814
20
54.047786842338645
30
-4.8994142076708158e-12
11
-2.2619467105845814
21
425.04778684233855
31
-4.8994142076708158e-12
0
LINE
5
157
100
AcDbEntity
8
BEND_EXTENT
100
AcDbLine
10
596
20
10.261946710584713
30
-1.0494383140269292e-12
11
0
21
10.261946710584713
31
-1.0494383140269292e-12
0
LINE
5
158
100
AcDbEntity
8
BEND_EXTENT
100
AcDbLine
10
0
20
8.0000000000000426
30
-7.9936057773011271e-13
11
596
21
8.0000000000000426
31
-7.9936057773011271e-13
0
LINE
5
159
100
AcDbEntity
8
BEND_EXTENT
100
AcDbLine
10
0
20
21.261946710584645
30
-2.1647961201409771e-12
11
596
21
21.261946710584645
31
-2.1647961201409771e-12
0
LINE
5
160
100
AcDbEntity
8
BEND_EXTENT
100
AcDbLine
10
0
20
51.785840131753964
30
-4.8094861426761781e-12
11
596
21
51.785840131753964
31
-4.8094861426761781e-12
0
LINE
5
161
100
AcDbEntity
8
BEND_EXTENT
100
AcDbLine
10
596
20
44.785840131754007
30
-4.3520742565306136e-12
11
0
21
44.785840131754007
31
-4.3520742565306136e-12
0
LINE
5
162
100
AcDbEntity
8
BEND_EXTENT
100
AcDbLine
10
596
20
427.30973355291735
30
-4.929390229335695e-12
11
0
21
427.30973355291735
31
-4.929390229335695e-12
0
LINE
5
163
100
AcDbEntity
8
BEND_EXTENT
100
AcDbLine
10
0
20
449.30973355291741
30
-5.0714987764877151e-12
11
596
21
449.30973355291741
31
-5.0714987764877151e-12
0
LINE
5
164
100
AcDbEntity
8
BEND_EXTENT
100
AcDbLine
10
596
20
451.57168026350757
30
-5.0448534238967113e-12
11
0
21
451.57168026350757
31
-5.0448534238967113e-12
0
LINE
5
165
100
AcDbEntity
8
BEND_EXTENT
100
AcDbLine
10
0
20
457.57168026350757
30
-5.5733195836182858e-12
11
596
21
457.57168026350757
31
-5.5733195836182858e-12
0
LINE
5
166
100
AcDbEntity
8
BEND_EXTENT
100
AcDbLine
10
596
20
459.83362697410837
30
-5.8530957858238253e-12
11
0
21
459.83362697410837
31
-5.8530957858238253e-12
0
LINE
5
167
100
AcDbEntity
8
BEND_EXTENT
100
AcDbLine
10
0
20
467.83362697410837
30
-6.7057470687359455e-12
11
596
21
467.83362697410837
31
-6.7057470687359455e-12
0
ENDSEC
0
SECTION
2
OBJECTS
0
DICTIONARY
5
C
100
AcDbDictionary
3
ACAD_GROUP
350
D
3
ACAD_MLINESTYLE
350
17
0
DICTIONARY
5
D
100
AcDbDictionary
0
DICTIONARY
5
1A
330
C
100
AcDbDictionary
0
DICTIONARY
5
17
100
AcDbDictionary
0
ENDSEC
0
EOF
