0
SECTION
2
HEADER
9
$INSUNITS
70
4
9
$ACADVER
1
AC1014
9
$HANDSEED
5
FFFF
0
ENDSEC
0
SECTION
2
TABLES
0
TABLE
2
VPORT
5
8
100
AcDbSymbolTable
0
ENDTAB
0
TABLE
2
LTYPE
5
5
100
AcDbSymbolTable
0
LTYPE
5
14
100
AcDbSymbolTableRecord
100
AcDbLinetypeTableRecord
2
BYBLOCK
70
0
0
LTYPE
5
15
100
AcDbSymbolTableRecord
100
AcDbLinetypeTableRecord
2
BYLAYER
70
0
0
LTYPE
5
16
100
AcDbSymbolTableRecord
100
AcDbLinetypeTableRecord
2
DASHED
70
0
3
Dashed __ __ __ __ __ __ __ __ __ __ __ __ __ _
72
65
73
2
40
0.75
49
0.5
74
0
49
-0.25
74
0
0
ENDTAB
0
TABLE
2
LAYER
5
2
100
AcDbSymbolTable
70
2
0
LAYER
5
50
100
AcDbSymbolTableRecord
100
AcDbLayerTableRecord
2
0
70
0
62
7
6
CONTINUOUS
0
ENDTAB
0
TABLE
2
STYLE
5
3
100
AcDbSymbolTable
70
1
0
STYLE
5
11
100
AcDbSymbolTableRecord
100
AcDbTextStyleTableRecord
2
STANDARD
70
0
0
ENDTAB
0
TABLE
2
VIEW
5
6
100
AcDbSymbolTable
70
0
0
ENDTAB
0
TABLE
2
UCS
5
7
100
AcDbSymbolTable
70
0
0
ENDTAB
0
TABLE
2
APPID
5
9
100
AcDbSymbolTable
70
2
0
APPID
5
12
100
AcDbSymbolTableRecord
100
AcDbRegAppTableRecord
2
ACAD
70
0
0
ENDTAB
0
TABLE
2
DIMSTYLE
5
A
100
AcDbSymbolTable
70
1
0
ENDTAB
0
TABLE
2
BLOCK_RECORD
5
1
100
AcDbSymbolTable
70
1
0
BLOCK_RECORD
5
1F
100
AcDbSymbolTableRecord
100
AcDbBlockTableRecord
2
*MODEL_SPACE
0
BLOCK_RECORD
5
1B
100
AcDbSymbolTableRecord
100
AcDbBlockTableRecord
2
*PAPER_SPACE
0
ENDTAB
0
ENDSEC
0
SECTION
2
BLOCKS
0
BLOCK
5
20
100
AcDbEntity
100
AcDbBlockBegin
2
*MODEL_SPACE
0
ENDBLK
5
21
100
AcDbEntity
100
AcDbBlockEnd
0
BLOCK
5
1C
100
AcDbEntity
100
AcDbBlockBegin
2
*PAPER_SPACE
0
ENDBLK
5
1D
100
AcDbEntity
100
AcDbBlockEnd
0
ENDSEC
0
SECTION
2
ENTITIES
0
LWPOLYLINE
5
100
100
AcDbEntity
8
OUTER_PROFILES
100
AcDbPolyline
90
18
70
1
43
0.0
10
1004.3824720649318
20
-2.6645352591003757e-14
10
1001.9586054908261
20
2.4238665741057419
42
-0.41421356237316131
10
1001.9586054908261
20
3.8380801364789674
10
1004.4531827430505
20
6.3326573887033
10
1004.4531827430505
20
24.191236032465994
10
1001.9586054908261
20
26.685813284690472
42
-0.41421356237306473
10
1001.9586054908261
20
28.100026847063489
10
1004.4531827430502
20
30.594604099287949
10
1004.4531827430502
20
37.523893421169298
10
-0.070710678118643955
20
37.523893421169298
10
-0.070710678118661718
20
30.594604099287949
10
2.4238665741057712
20
28.100026847063514
42
-0.41421356237309531
10
2.4238665741057734
20
26.685813284690422
10
-0.070710678118657
20
24.191236032465994
10
-0.070710678118656722
20
6.3326573887033
10
2.4238665741057797
20
3.8380801364788661
42
-0.41421356237309515
10
2.4238665741057774
20
2.4238665741057703
10
0
20
0
0
CIRCLE
5
101
100
AcDbEntity
8
INTERIOR_PROFILES
100
AcDbCircle
10
-702.19123603246601
20
34.523893421169298
30
0
40
1.7000000000000171
210
0
220
0
230
-1
0
CIRCLE
5
102
100
AcDbEntity
8
INTERIOR_PROFILES
100
AcDbCircle
10
-802.19123603246601
20
34.523893421169298
30
0
40
1.7000000000000171
210
0
220
0
230
-1
0
CIRCLE
5
103
100
AcDbEntity
8
INTERIOR_PROFILES
100
AcDbCircle
10
-902.19123603246601
20
34.523893421169298
30
0
40
1.7000000000000171
210
0
220
0
230
-1
0
CIRCLE
5
104
100
AcDbEntity
8
INTERIOR_PROFILES
100
AcDbCircle
10
-402.19123603246595
20
34.523893421169298
30
0
40
1.7000000000000171
210
0
220
0
230
-1
0
CIRCLE
5
105
100
AcDbEntity
8
INTERIOR_PROFILES
100
AcDbCircle
10
-202.19123603246595
20
34.523893421169298
30
0
40
1.7000000000000171
210
0
220
0
230
-1
0
CIRCLE
5
106
100
AcDbEntity
8
INTERIOR_PROFILES
100
AcDbCircle
10
-102.19123603246594
20
34.523893421169298
30
0
40
1.6999999999999993
210
0
220
0
230
-1
0
CIRCLE
5
107
100
AcDbEntity
8
INTERIOR_PROFILES
100
AcDbCircle
10
-502.19123603246595
20
34.523893421169298
30
0
40
1.7000000000000171
210
0
220
0
230
-1
0
CIRCLE
5
108
100
AcDbEntity
8
INTERIOR_PROFILES
100
AcDbCircle
10
-302.19123603246595
20
34.523893421169298
30
0
40
1.7000000000000171
210
0
220
0
230
-1
0
CIRCLE
5
109
100
AcDbEntity
8
INTERIOR_PROFILES
100
AcDbCircle
10
-602.19123603246589
20
34.523893421169298
30
0
40
1.7000000000000171
210
0
220
0
230
-1
0
LINE
5
110
100
AcDbEntity
8
BEND
100
AcDbLine
10
1001.3222093877583
20
-4.4408920985006262e-15
30
6.2399510075511277e-11
11
1001.3222093877583
21
3.1309733552923147
31
6.2586775102291772e-11
0
LINE
5
111
100
AcDbEntity
8
BEND
100
AcDbLine
10
1001.3222093877583
20
3.1309733552923147
30
6.2586775102291772e-11
11
1001.3222093877586
21
27.392920065876972
31
6.3933504642652359e-11
0
LINE
5
112
100
AcDbEntity
8
BEND
100
AcDbLine
10
1001.3222093877586
20
27.392920065876972
30
6.3933504642652359e-11
11
1001.3222093877586
21
37.523893421169298
31
6.4307796748300595e-11
0
LINE
5
113
100
AcDbEntity
8
BEND
100
AcDbLine
10
3.0602626771736485
20
3.1309733552923147
30
4.27548709263516e-13
11
3.0602626771736485
21
-4.4408920985006262e-15
31
1.9081530609222757e-13
0
LINE
5
114
100
AcDbEntity
8
BEND
100
AcDbLine
10
3.0602626771736485
20
27.392920065876972
30
1.7873677258880119e-12
11
3.0602626771736485
21
3.1309733552923147
31
4.27548709263516e-13
0
LINE
5
115
100
AcDbEntity
8
BEND
100
AcDbLine
10
3.0602626771736485
20
37.523893421169298
30
2.3011625693632978e-12
11
3.0602626771736485
21
27.392920065876972
31
1.7873677258880119e-12
0
LINE
5
116
100
AcDbEntity
8
BEND
100
AcDbLine
10
2.7167597929192344
20
3.1309733552923147
30
3.5889547200850574e-13
11
1001.6657122720126
21
3.1309733552923147
31
6.261163548050897e-11
0
LINE
5
117
100
AcDbEntity
8
BEND
100
AcDbLine
10
2.7167597929192211
20
27.392920065876972
30
1.7056250123690749e-12
11
1001.6657122720126
21
27.392920065876972
31
6.3815132870626866e-11
0
LINE
5
118
100
AcDbEntity
8
BEND_EXTENT
100
AcDbLine
10
1.9292893218813467
20
0
30
1.2020027038862933e-13
11
1.9292893218813467
21
1.9292893218813445
31
2.2900555150949068e-13
0
LINE
5
119
100
AcDbEntity
8
BEND_EXTENT
100
AcDbLine
10
4.1912360324659037
20
1.9999999999999973
30
4.3101455240912627e-13
11
4.1912360324659037
21
-4.4408920985006262e-15
31
3.1791303699801496e-13
0
LINE
5
120
100
AcDbEntity
8
BEND_EXTENT
100
AcDbLine
10
1000.1912360324661
20
1.9999999999999929
30
6.2496536162479114e-11
11
4.1912360324659037
21
1.9999999999999973
31
4.3101455240912627e-13
0
LINE
5
121
100
AcDbEntity
8
BEND_EXTENT
100
AcDbLine
10
1000.1912360324661
20
-4.4408920985006262e-15
30
6.2383434647068019e-11
11
1000.1912360324661
21
1.9999999999999929
31
6.2496536162479114e-11
0
LINE
5
122
100
AcDbEntity
8
BEND_EXTENT
100
AcDbLine
10
1.9292893218813378
20
28.594604099287952
30
1.7257359444953763e-12
11
1.9292893218813378
21
37.523893421169298
31
2.2306940214198924e-12
0
LINE
5
123
100
AcDbEntity
8
BEND_EXTENT
100
AcDbLine
10
4.1912360324659037
20
37.523893421169298
30
2.4288154117813977e-12
11
4.1912360324659037
21
28.523893421169298
31
1.9198585924313978e-12
0
LINE
5
124
100
AcDbEntity
8
BEND_EXTENT
100
AcDbLine
10
4.1912360324659037
20
28.523893421169298
30
1.9198585924313978e-12
11
1000.1912360324661
21
28.523893421169298
31
6.39853802025014e-11
0
LINE
5
125
100
AcDbEntity
8
BEND_EXTENT
100
AcDbLine
10
1000.1912360324661
20
28.523893421169298
30
6.39853802025014e-11
11
1000.1912360324661
21
37.523893421169298
31
6.4494337021851389e-11
0
LINE
5
126
100
AcDbEntity
8
BEND_EXTENT
100
AcDbLine
10
1002.4531827430505
20
26.191236032465987
30
6.3994419373002559e-11
11
1002.4531827430505
21
4.3326573887032938
31
6.2758300188331305e-11
0
LWPOLYLINE
5
127
100
AcDbEntity
8
BEND_EXTENT
100
AcDbPolyline
90
4
70
1
43
0.0
10
1000.1912360324661
20
4.2619467105846454
10
1000.1912360324661
20
26.261946710584645
10
4.1912360324658948
20
26.261946710584645
10
4.1912360324659037
20
4.2619467105846409
0
LINE
5
128
100
AcDbEntity
8
BEND_EXTENT
100
AcDbLine
10
1002.4531827430503
20
37.523893421169298
30
6.4066855546543116e-11
11
1002.4531827430503
21
28.594604099287942
31
6.3846114563922625e-11
0
LINE
5
129
100
AcDbEntity
8
BEND_EXTENT
100
AcDbLine
10
1002.4531827430503
20
1.9292893218813401
30
6.2480279355955166e-11
11
1002.4531827430503
21
-4.4408920985006262e-15
31
6.2371176582969541e-11
0
LINE
5
130
100
AcDbEntity
8
BEND_EXTENT
100
AcDbLine
10
1.9292893218813412
20
4.3326573887033115
30
3.6490852470657112e-13
11
1.9292893218813414
21
26.191236032465998
31
1.5892308148589924e-12
0
ENDSEC
0
SECTION
2
OBJECTS
0
DICTIONARY
5
C
100
AcDbDictionary
3
ACAD_GROUP
350
D
3
ACAD_MLINESTYLE
350
17
0
DICTIONARY
5
D
100
AcDbDictionary
0
DICTIONARY
5
1A
330
C
100
AcDbDictionary
0
DICTIONARY
5
17
100
AcDbDictionary
0
ENDSEC
0
EOF
