0
SECTION
2
HEADER
9
$INSUNITS
70
4
9
$ACADVER
1
AC1014
9
$HANDSEED
5
FFFF
0
ENDSEC
0
SECTION
2
TABLES
0
TABLE
2
VPORT
5
8
100
AcDbSymbolTable
0
ENDTAB
0
TABLE
2
LTYPE
5
5
100
AcDbSymbolTable
0
LTYPE
5
14
100
AcDbSymbolTableRecord
100
AcDbLinetypeTableRecord
2
BYBLOCK
70
0
0
LTYPE
5
15
100
AcDbSymbolTableRecord
100
AcDbLinetypeTableRecord
2
BYLAYER
70
0
0
LTYPE
5
16
100
AcDbSymbolTableRecord
100
AcDbLinetypeTableRecord
2
DASHED
70
0
3
Dashed __ __ __ __ __ __ __ __ __ __ __ __ __ _
72
65
73
2
40
0.75
49
0.5
74
0
49
-0.25
74
0
0
ENDTAB
0
TABLE
2
LAYER
5
2
100
AcDbSymbolTable
70
2
0
LAYER
5
50
100
AcDbSymbolTableRecord
100
AcDbLayerTableRecord
2
0
70
0
62
7
6
CONTINUOUS
0
ENDTAB
0
TABLE
2
STYLE
5
3
100
AcDbSymbolTable
70
1
0
STYLE
5
11
100
AcDbSymbolTableRecord
100
AcDbTextStyleTableRecord
2
STANDARD
70
0
0
ENDTAB
0
TABLE
2
VIEW
5
6
100
AcDbSymbolTable
70
0
0
ENDTAB
0
TABLE
2
UCS
5
7
100
AcDbSymbolTable
70
0
0
ENDTAB
0
TABLE
2
APPID
5
9
100
AcDbSymbolTable
70
2
0
APPID
5
12
100
AcDbSymbolTableRecord
100
AcDbRegAppTableRecord
2
ACAD
70
0
0
ENDTAB
0
TABLE
2
DIMSTYLE
5
A
100
AcDbSymbolTable
70
1
0
ENDTAB
0
TABLE
2
BLOCK_RECORD
5
1
100
AcDbSymbolTable
70
1
0
BLOCK_RECORD
5
1F
100
AcDbSymbolTableRecord
100
AcDbBlockTableRecord
2
*MODEL_SPACE
0
BLOCK_RECORD
5
1B
100
AcDbSymbolTableRecord
100
AcDbBlockTableRecord
2
*PAPER_SPACE
0
ENDTAB
0
ENDSEC
0
SECTION
2
BLOCKS
0
BLOCK
5
20
100
AcDbEntity
100
AcDbBlockBegin
2
*MODEL_SPACE
0
ENDBLK
5
21
100
AcDbEntity
100
AcDbBlockEnd
0
BLOCK
5
1C
100
AcDbEntity
100
AcDbBlockBegin
2
*PAPER_SPACE
0
ENDBLK
5
1D
100
AcDbEntity
100
AcDbBlockEnd
0
ENDSEC
0
SECTION
2
ENTITIES
0
SPLINE
5
100
100
AcDbEntity
8
OUTER_PROFILES
100
AcDbSpline
70
0
71
3
72
11
73
7
74
0
42
0.000000001
43
0.0000000001
44
0.0000000001
40
-3.1415926535897944
40
-3.1415926535897944
40
-3.1415926535897944
40
-3.1415926535897944
40
-3.0437620783854253
40
-3.0437620783854253
40
-3.0437620783854253
40
-1.5707963267948968
40
-1.5707963267948968
40
-1.5707963267948968
40
-1.5707963267948968
10
761.19123603246885
20
14.594604099287025
30
0
10
761.23819470856699
20
14.594604099287025
30
0
10
761.28515338466514
20
14.596200507208117
30
0
10
761.33211206076328
20
14.599385694534242
30
0
10
762.03913562152661
20
14.647342806449403
30
0
10
762.74615918229017
20
15.103615515423531
30
0
10
763.4531827430535
20
15.594604099287046
30
0
0
LINE
5
101
100
AcDbEntity
8
OUTER_PROFILES
100
AcDbLine
10
761.19123603246885
20
14.594604099287025
30
0
11
755.19123603246624
21
14.594604099288034
31
0
0
SPLINE
5
102
100
AcDbEntity
8
OUTER_PROFILES
100
AcDbSpline
70
0
71
3
72
11
73
7
74
0
42
0.000000001
43
0.0000000001
44
0.0000000001
40
1.5707963267948966
40
1.5707963267948966
40
1.5707963267948966
40
1.5707963267948966
40
1.668626901999269
40
1.668626901999269
40
1.668626901999269
40
3.1415926535897931
40
3.1415926535897931
40
3.1415926535897931
40
3.1415926535897931
10
752.92928932188056
20
15.594604099288038
30
0
10
752.97624799797882
20
15.561993907553212
30
0
10
753.02320667407685
20
15.529383765580999
30
0
10
753.07016535017499
20
15.496929502584006
30
0
10
753.77718891093855
20
15.008288627399516
30
0
10
754.48421247170199
20
14.594604099288031
30
0
10
755.19123603246544
20
14.594604099288034
30
0
0
LINE
5
103
100
AcDbEntity
8
OUTER_PROFILES
100
AcDbLine
10
752.92928932188056
20
15.594604099288038
30
0
11
752.85857864376294
21
15.523893421172911
31
0
0
SPLINE
5
104
100
AcDbEntity
8
OUTER_PROFILES
100
AcDbSpline
70
0
71
3
72
11
73
7
74
0
42
0.000000001
43
0.0000000001
44
0.0000000001
40
-3.1415926535897931
40
-3.1415926535897931
40
-3.1415926535897931
40
-3.1415926535897931
40
-1.668626901999269
40
-1.668626901999269
40
-1.668626901999269
40
-1.5707963267948966
40
-1.5707963267948966
40
-1.5707963267948966
40
-1.5707963267948966
10
753.85857864376305
20
13.261946710588228
30
0
10
753.85857864376305
20
13.968970271351653
30
0
10
753.44489411565155
20
14.675993832115076
30
0
10
752.95625324046694
20
15.383017392878532
30
0
10
752.92379897746991
20
15.429976068976718
30
0
10
752.89118883549781
20
15.476934745074796
30
0
10
752.85857864376294
20
15.523893421172911
30
0
0
LINE
5
105
100
AcDbEntity
8
OUTER_PROFILES
100
AcDbLine
10
753.85857864376305
20
13.261946710588228
30
0
11
753.85857864376294
21
7.2619467105806379
31
0
0
SPLINE
5
106
100
AcDbEntity
8
OUTER_PROFILES
100
AcDbSpline
70
0
71
3
72
11
73
7
74
0
42
0.000000001
43
0.0000000001
44
0.0000000001
40
1.5707963267948954
40
1.5707963267948954
40
1.5707963267948954
40
1.5707963267948954
40
3.0437620783854249
40
3.0437620783854249
40
3.0437620783854249
40
3.1415926535897918
40
3.1415926535897918
40
3.1415926535897918
40
3.1415926535897918
10
752.85857864376294
20
4.9999999999960369
30
0
10
753.34956722762638
20
5.7070235607594881
30
0
10
753.80583993660071
20
6.4140471215229233
30
0
10
753.85379704851573
20
7.121070682286355
30
0
10
753.85698223584188
20
7.168029358384449
30
0
10
753.85857864376294
20
7.214988034482543
30
0
10
753.85857864376294
20
7.2619467105806379
30
0
0
LINE
5
107
100
AcDbEntity
8
OUTER_PROFILES
100
AcDbLine
10
752.85857864376294
20
4.9999999999960369
30
0
11
747.85857864376271
21
2.2204460492503131e-14
31
0
0
LINE
5
108
100
AcDbEntity
8
OUTER_PROFILES
100
AcDbLine
10
747.85857864376271
20
2.2204460492503131e-14
30
0
11
0
21
0
31
0
0
LINE
5
109
100
AcDbEntity
8
OUTER_PROFILES
100
AcDbLine
10
0
20
0
30
0
11
-5
21
5.0000000000005489
31
0
0
SPLINE
5
110
100
AcDbEntity
8
OUTER_PROFILES
100
AcDbSpline
70
0
71
3
72
11
73
7
74
0
42
0.000000001
43
0.0000000001
44
0.0000000001
40
-3.1415926535897944
40
-3.1415926535897944
40
-3.1415926535897944
40
-3.1415926535897944
40
-3.0437620783854253
40
-3.0437620783854253
40
-3.0437620783854253
40
-1.5707963267948941
40
-1.5707963267948941
40
-1.5707963267948941
40
-1.5707963267948941
10
-5.9999999999999432
20
7.2619467105816584
30
0
10
-5.9999999999999432
20
7.2149880344835591
30
0
10
-5.998403592078887
20
7.1680293583854624
30
0
10
-5.9952184047527624
20
7.1210706822873657
30
0
10
-5.9472612928377089
20
6.4140471215239101
30
0
10
-5.4909885838634409
20
5.7070235607604536
30
0
10
-5
20
4.9999999999969962
30
0
0
LINE
5
111
100
AcDbEntity
8
OUTER_PROFILES
100
AcDbLine
10
-5.9999999999999432
20
7.2619467105816584
30
0
11
-5.999999999999801
21
13.261946710586955
31
0
0
SPLINE
5
112
100
AcDbEntity
8
OUTER_PROFILES
100
AcDbSpline
70
0
71
3
72
11
73
7
74
0
42
0.000000001
43
0.0000000001
44
0.0000000001
40
1.5707963267948966
40
1.5707963267948966
40
1.5707963267948966
40
1.5707963267948966
40
1.6686269019992668
40
1.6686269019992668
40
1.6686269019992668
40
3.1415926535897931
40
3.1415926535897931
40
3.1415926535897931
40
3.1415926535897931
10
-4.9999999999997158
20
15.523893421171502
30
0
10
-5.0326101917346477
20
15.476934745073423
30
0
10
-5.0652203337068613
20
15.429976068975309
30
0
10
-5.0976745967037118
20
15.383017392877159
30
0
10
-5.5863154718882413
20
14.675993832113768
30
0
10
-5.999999999999801
20
13.968970271350379
30
0
10
-5.999999999999801
20
13.261946710586955
30
0
0
LINE
5
113
100
AcDbEntity
8
OUTER_PROFILES
100
AcDbLine
10
-4.9999999999997158
20
15.523893421171502
30
0
11
-5.0707106781183597
21
15.594604099286878
31
0
0
SPLINE
5
114
100
AcDbEntity
8
OUTER_PROFILES
100
AcDbSpline
70
0
71
3
72
11
73
7
74
0
42
0.000000001
43
0.0000000001
44
0.0000000001
40
-3.1415926535897931
40
-3.1415926535897931
40
-3.1415926535897931
40
-3.1415926535897931
40
-1.6686269019992668
40
-1.6686269019992668
40
-1.6686269019992668
40
-1.5707963267948966
40
-1.5707963267948966
40
-1.5707963267948966
40
-1.5707963267948966
10
-7.3326573887095492
20
14.594604099286748
30
0
10
-6.6256338279460181
20
14.594604099286787
30
0
10
-5.918610267182487
20
15.008288627398315
30
0
10
-5.2115867064190979
20
15.496929502582775
30
0
10
-5.1646280303209835
20
15.529383765579803
30
0
10
-5.1176693542228691
20
15.561993907552017
30
0
10
-5.0707106781248967
20
15.594604099286807
30
0
0
LINE
5
115
100
AcDbEntity
8
OUTER_PROFILES
100
AcDbLine
10
-7.3326573887095492
20
14.594604099286748
30
0
11
-13.332657388707361
21
14.594604099286762
31
0
0
SPLINE
5
116
100
AcDbEntity
8
OUTER_PROFILES
100
AcDbSpline
70
0
71
3
72
11
73
7
74
0
42
0.000000001
43
0.0000000001
44
0.0000000001
40
1.5707963267948966
40
1.5707963267948966
40
1.5707963267948966
40
1.5707963267948966
40
3.0437620783854284
40
3.0437620783854284
40
3.0437620783854284
40
3.1415926535897931
40
3.1415926535897931
40
3.1415926535897931
40
3.1415926535897931
10
-15.594604099292013
20
15.594604099286769
30
0
10
-14.887580538528624
20
15.103615515423259
30
0
10
-14.180556977765093
20
14.647342806449064
30
0
10
-13.473533417001704
20
14.599385694533941
30
0
10
-13.42657474090359
20
14.596200507207817
30
0
10
-13.379616064805475
20
14.594604099286761
30
0
10
-13.332657388707361
20
14.594604099286762
30
0
0
LINE
5
117
100
AcDbEntity
8
OUTER_PROFILES
100
AcDbLine
10
-15.594604099292013
20
15.594604099286769
30
0
11
-20.594604099287608
21
20.594604099286148
31
0
0
LINE
5
118
100
AcDbEntity
8
OUTER_PROFILES
100
AcDbLine
10
-20.594604099287608
20
20.594604099286148
30
0
11
-20.594604099288745
21
568.45318274304657
31
0
0
LINE
5
119
100
AcDbEntity
8
OUTER_PROFILES
100
AcDbLine
10
-20.594604099288745
20
568.45318274304657
30
0
11
-15.59460409929045
21
573.45318274304714
31
0
0
SPLINE
5
120
100
AcDbEntity
8
OUTER_PROFILES
100
AcDbSpline
70
0
71
3
72
11
73
7
74
0
42
0.000000001
43
0.0000000001
44
0.0000000001
40
-3.1415926535897931
40
-3.1415926535897931
40
-3.1415926535897931
40
-3.1415926535897931
40
-3.0437620783854271
40
-3.0437620783854271
40
-3.0437620783854271
40
-1.5707963267948966
40
-1.5707963267948966
40
-1.5707963267948966
40
-1.5707963267948966
10
-13.33265738870594
20
574.45318274304702
30
0
10
-13.379616064804054
20
574.45318274304702
30
0
10
-13.426574740902169
20
574.45158633512597
30
0
10
-13.473533417000141
20
574.44840114779981
30
0
10
-14.18055697776353
20
574.40044403588468
30
0
10
-14.887580538526919
20
573.94417132691058
30
0
10
-15.59460409929045
20
573.45318274304714
30
0
0
LINE
5
121
100
AcDbEntity
8
OUTER_PROFILES
100
AcDbLine
10
-13.33265738870594
20
574.45318274304702
30
0
11
-7.3326573887081281
21
574.45318274304657
31
0
0
SPLINE
5
122
100
AcDbEntity
8
OUTER_PROFILES
100
AcDbSpline
70
0
71
3
72
11
73
7
74
0
42
0.000000001
43
0.0000000001
44
0.0000000001
40
1.5707963267948966
40
1.5707963267948966
40
1.5707963267948966
40
1.5707963267948966
40
1.6686269019992672
40
1.6686269019992672
40
1.6686269019992672
40
3.1415926535897931
40
3.1415926535897931
40
3.1415926535897931
40
3.1415926535897931
10
-5.0707106781233335
20
573.45318274304657
30
0
10
-5.117669354221448
20
573.48579293478133
30
0
10
-5.1646280303194203
20
573.51840307675377
30
0
10
-5.2115867064176769
20
573.55085733975068
30
0
10
-5.9186102671810659
20
574.03949821493518
30
0
10
-6.625633827944597
20
574.45318274304657
30
0
10
-7.3326573887081281
20
574.45318274304657
30
0
0
LINE
5
123
100
AcDbEntity
8
OUTER_PROFILES
100
AcDbLine
10
-5.0707106781233335
20
573.45318274304657
30
0
11
-5.0000000000001421
21
573.52389342116726
31
0
0
SPLINE
5
124
100
AcDbEntity
8
OUTER_PROFILES
100
AcDbSpline
70
0
71
3
72
11
73
7
74
0
42
0.000000001
43
0.0000000001
44
0.0000000001
40
-3.1415926535897931
40
-3.1415926535897931
40
-3.1415926535897931
40
-3.1415926535897931
40
-1.6686269019992672
40
-1.6686269019992672
40
-1.6686269019992672
40
-1.5707963267948966
40
-1.5707963267948966
40
-1.5707963267948966
40
-1.5707963267948966
10
-6.0000000000003695
20
575.78584013175191
30
0
10
-6.0000000000003695
20
575.07881657098847
30
0
10
-5.5863154718886676
20
574.37179301022502
30
0
10
-5.0976745967041381
20
573.66476944946157
30
0
10
-5.0652203337071455
20
573.61781077336343
30
0
10
-5.032610191734932
20
573.57085209726529
30
0
10
-5.0000000000001421
20
573.52389342116726
30
0
0
LINE
5
125
100
AcDbEntity
8
OUTER_PROFILES
100
AcDbLine
10
-6.0000000000003695
20
575.78584013175191
30
0
11
-6.0000000000015064
21
581.78584013175339
31
0
0
SPLINE
5
126
100
AcDbEntity
8
OUTER_PROFILES
100
AcDbSpline
70
0
71
3
72
11
73
7
74
0
42
0.000000001
43
0.0000000001
44
0.0000000001
40
1.5707963267949114
40
1.5707963267949114
40
1.5707963267949114
40
1.5707963267949114
40
3.0437620783854449
40
3.0437620783854449
40
3.0437620783854449
40
3.1415926535897936
40
3.1415926535897936
40
3.1415926535897936
40
3.1415926535897936
10
-5.0000000000015632
20
584.04778684233793
30
0
10
-5.4909885838650041
20
583.34076328157448
30
0
10
-5.94726129283913
20
582.63373972081115
30
0
10
-5.9952184047541834
20
581.9267161600477
30
0
10
-5.9984035920804502
20
581.87975748394956
30
0
10
-6.0000000000015064
20
581.83279880785153
30
0
10
-6.0000000000015064
20
581.78584013175339
30
0
0
LINE
5
127
100
AcDbEntity
8
OUTER_PROFILES
100
AcDbLine
10
-5.0000000000015632
20
584.04778684233793
30
0
11
-1.1368683772161603e-12
21
589.04778684233418
31
0
0
LINE
5
128
100
AcDbEntity
8
OUTER_PROFILES
100
AcDbLine
10
-1.1368683772161603e-12
20
589.04778684233418
30
0
11
747.85857864376089
21
589.04778684233702
31
0
0
LINE
5
129
100
AcDbEntity
8
OUTER_PROFILES
100
AcDbLine
10
747.85857864376089
20
589.04778684233702
30
0
11
752.85857864376101
21
584.04778684233997
31
0
0
SPLINE
5
130
100
AcDbEntity
8
OUTER_PROFILES
100
AcDbSpline
70
0
71
3
72
11
73
7
74
0
42
0.000000001
43
0.0000000001
44
0.0000000001
40
-3.1415926535897931
40
-3.1415926535897931
40
-3.1415926535897931
40
-3.1415926535897931
40
-3.0437620783854431
40
-3.0437620783854431
40
-3.0437620783854431
40
-1.5707963267949101
40
-1.5707963267949101
40
-1.5707963267949101
40
-1.5707963267949101
10
753.85857864376089
20
581.78584013175532
30
0
10
753.85857864376089
20
581.83279880785346
30
0
10
753.85698223583984
20
581.87975748395149
30
0
10
753.8537970485138
20
581.92671616004964
30
0
10
753.80583993659855
20
582.63373972081308
30
0
10
753.34956722762445
20
583.34076328157653
30
0
10
752.85857864376101
20
584.04778684233997
30
0
0
LINE
5
131
100
AcDbEntity
8
OUTER_PROFILES
100
AcDbLine
10
753.85857864376089
20
581.78584013175532
30
0
11
753.85857864376146
21
575.78584013175191
31
0
0
SPLINE
5
132
100
AcDbEntity
8
OUTER_PROFILES
100
AcDbSpline
70
0
71
3
72
11
73
7
74
0
42
0.000000001
43
0.0000000001
44
0.0000000001
40
1.5707963267948966
40
1.5707963267948966
40
1.5707963267948966
40
1.5707963267948966
40
1.6686269019992677
40
1.6686269019992677
40
1.6686269019992677
40
3.1415926535897931
40
3.1415926535897931
40
3.1415926535897931
40
3.1415926535897931
10
752.85857864376158
20
573.52389342116726
30
0
10
752.89118883549634
20
573.57085209726529
30
0
10
752.92379897746855
20
573.61781077336354
30
0
10
752.95625324046557
20
573.66476944946169
30
0
10
753.44489411564996
20
574.37179301022502
30
0
10
753.85857864376146
20
575.07881657098847
30
0
10
753.85857864376146
20
575.78584013175191
30
0
0
LINE
5
133
100
AcDbEntity
8
OUTER_PROFILES
100
AcDbLine
10
752.85857864376158
20
573.52389342116726
30
0
11
752.92928932188897
21
573.45318274305032
31
0
0
SPLINE
5
134
100
AcDbEntity
8
OUTER_PROFILES
100
AcDbSpline
70
0
71
3
72
11
73
7
74
0
42
0.000000001
43
0.0000000001
44
0.0000000001
40
-3.1415926535897931
40
-3.1415926535897931
40
-3.1415926535897931
40
-3.1415926535897931
40
-1.6686269019992677
40
-1.6686269019992677
40
-1.6686269019992677
40
-1.5707963267948966
40
-1.5707963267948966
40
-1.5707963267948966
40
-1.5707963267948966
10
755.19123603247351
20
574.45318274305032
30
0
10
754.48421247171018
20
574.45318274305032
30
0
10
753.77718891094673
20
574.03949821493882
30
0
10
753.07016535018317
20
573.55085733975432
30
0
10
753.02320667408503
20
573.51840307675741
30
0
10
752.976247997987
20
573.48579293478508
30
0
10
752.92928932188897
20
573.45318274305032
30
0
0
LINE
5
135
100
AcDbEntity
8
OUTER_PROFILES
100
AcDbLine
10
755.19123603247351
20
574.45318274305032
30
0
11
761.1912360324601
21
574.45318274305021
31
0
0
SPLINE
5
136
100
AcDbEntity
8
OUTER_PROFILES
100
AcDbSpline
70
0
71
3
72
11
73
7
74
0
42
0.000000001
43
0.0000000001
44
0.0000000001
40
1.5707963267948968
40
1.5707963267948968
40
1.5707963267948968
40
1.5707963267948968
40
3.0437620783854271
40
3.0437620783854271
40
3.0437620783854271
40
3.1415926535897931
40
3.1415926535897931
40
3.1415926535897931
40
3.1415926535897931
10
763.45318274304475
20
573.45318274305032
30
0
10
762.74615918228119
20
573.94417132691376
30
0
10
762.03913562151786
20
574.40044403588797
30
0
10
761.3321120607543
20
574.448401147803
30
0
10
761.28515338465616
20
574.45158633512915
30
0
10
761.23819470855824
20
574.45318274305021
30
0
10
761.1912360324601
20
574.45318274305021
30
0
0
LINE
5
137
100
AcDbEntity
8
OUTER_PROFILES
100
AcDbLine
10
763.45318274304475
20
573.45318274305032
30
0
11
768.45318274304827
21
568.45318274305055
31
0
0
LINE
5
138
100
AcDbEntity
8
OUTER_PROFILES
100
AcDbLine
10
768.45318274304827
20
568.45318274305055
30
0
11
768.45318274305032
21
20.594604099287253
31
0
0
LINE
5
139
100
AcDbEntity
8
OUTER_PROFILES
100
AcDbLine
10
768.45318274305032
20
20.594604099287253
30
0
11
763.4531827430535
21
15.594604099287046
31
0
0
CIRCLE
5
140
100
AcDbEntity
8
INTERIOR_PROFILES
100
AcDbCircle
10
-389.9292893218792
20
394.52389342116811
30
0
40
1.7000000000000171
210
0
220
0
230
-1
0
CIRCLE
5
141
100
AcDbEntity
8
INTERIOR_PROFILES
100
AcDbCircle
10
-357.92928932188033
20
94.523893421167955
30
0
40
1.7000000000000171
210
0
220
0
230
-1
0
CIRCLE
5
142
100
AcDbEntity
8
INTERIOR_PROFILES
100
AcDbCircle
10
-389.92928932187903
20
494.52389342116783
30
0
40
1.7000000000000171
210
0
220
0
230
-1
0
CIRCLE
5
143
100
AcDbEntity
8
INTERIOR_PROFILES
100
AcDbCircle
10
-357.9292893218792
20
394.52389342116805
30
0
40
1.7000000000000171
210
0
220
0
230
-1
0
CIRCLE
5
144
100
AcDbEntity
8
INTERIOR_PROFILES
100
AcDbCircle
10
-357.92928932187965
20
294.52389342116794
30
0
40
1.7000000000000171
210
0
220
0
230
-1
0
CIRCLE
5
145
100
AcDbEntity
8
INTERIOR_PROFILES
100
AcDbCircle
10
-357.92928932187897
20
494.52389342116771
30
0
40
1.7000000000000171
210
0
220
0
230
-1
0
CIRCLE
5
146
100
AcDbEntity
8
INTERIOR_PROFILES
100
AcDbCircle
10
-389.92928932188033
20
94.523893421168083
30
0
40
1.7000000000000171
210
0
220
0
230
-1
0
CIRCLE
5
147
100
AcDbEntity
8
INTERIOR_PROFILES
100
AcDbCircle
10
-389.92928932187965
20
294.52389342116805
30
0
40
1.7000000000000171
210
0
220
0
230
-1
0
CIRCLE
5
148
100
AcDbEntity
8
INTERIOR_PROFILES
100
AcDbCircle
10
-357.92928932187999
20
194.52389342116794
30
0
40
1.7000000000000171
210
0
220
0
230
-1
0
CIRCLE
5
149
100
AcDbEntity
8
INTERIOR_PROFILES
100
AcDbCircle
10
-389.92928932187999
20
194.52389342116805
30
0
40
1.7000000000000171
210
0
220
0
230
-1
0
LINE
5
150
100
AcDbEntity
8
BEND
100
AcDbLine
10
753.56568542494824
20
574.65486677646027
30
-4.0317842306129427e-12
11
-5.707106781185729
21
574.65486677645731
31
-4.0431556384856554e-12
0
LINE
5
151
100
AcDbEntity
8
BEND
100
AcDbLine
10
-6.2016840334118228
20
574.16028952423119
30
-4.3079559376698118e-12
11
-6.2016840334104018
21
14.887497318103584
31
-4.3197520573064484e-12
0
LINE
5
152
100
AcDbEntity
8
BEND
100
AcDbLine
10
754.06026267717391
20
14.887497318101035
30
-4.3799658188999574e-12
11
754.06026267717198
21
574.16028952423221
31
-4.2321673787467334e-12
0
LINE
5
153
100
AcDbEntity
8
BEND
100
AcDbLine
10
762.32220938820615
20
14.887497318318953
30
-4.7090834617704844e-12
11
762.3222093882041
21
574.16028952401496
31
-4.5029983128244397e-12
0
LINE
5
154
100
AcDbEntity
8
BEND
100
AcDbLine
10
-5.7071067811875764
20
14.392920065876936
30
-4.0323309639955593e-12
11
753.5656854249512
21
14.392920065876893
31
-4.0376129014922248e-12
0
LINE
5
155
100
AcDbEntity
8
BEND
100
AcDbLine
10
753.56568542499315
20
582.91681348695442
30
-1.9676020720786196e-12
11
-5.7071067812337617
21
582.91681348695249
31
-1.7459654226581211e-12
0
LINE
5
156
100
AcDbEntity
8
BEND
100
AcDbLine
10
-5.7071067813582488
20
6.1309733556393464
30
-1.6375798998791023e-12
11
753.56568542512139
21
6.1309733556383508
31
-1.6592376269889767e-12
0
LINE
5
157
100
AcDbEntity
8
BEND
100
AcDbLine
10
-14.463630743903479
20
574.16028952427996
30
-4.034349446030524e-12
11
-14.4636307439022
21
14.887497318052354
31
-4.0881952627248441e-12
0
LINE
5
158
100
AcDbEntity
8
BEND_EXTENT
100
AcDbLine
10
763.45318274304827
20
573.45318274305021
30
-4.4643903752106034e-12
11
763.45318274305009
21
15.594604099287039
31
-4.6464669512491299e-12
0
LINE
5
159
100
AcDbEntity
8
BEND_EXTENT
100
AcDbLine
10
761.19123603246635
20
14.594604099287061
30
-4.567696491516989e-12
11
761.19123603246419
21
574.45318274304998
31
-4.3545336707889581e-12
0
LINE
5
160
100
AcDbEntity
8
BEND_EXTENT
100
AcDbLine
10
-5.0000000000015632
20
584.04778684233452
30
-1.6265991367363993e-12
11
752.85857864376089
21
584.04778684233645
31
-1.6369116993929271e-12
0
LINE
5
161
100
AcDbEntity
8
BEND_EXTENT
100
AcDbLine
10
753.85857864376078
20
581.78584013175259
30
-2.2586121120509062e-12
11
-6.0000000000012221
21
581.78584013175066
31
-2.2772143102988504e-12
0
LINE
5
162
100
AcDbEntity
8
BEND_EXTENT
100
AcDbLine
10
-15.594604099287324
20
15.594604099286769
30
-4.0771207199867175e-12
11
-15.594604099288745
21
573.45318274304702
31
-4.101545626528471e-12
0
LINE
5
163
100
AcDbEntity
8
BEND_EXTENT
100
AcDbLine
10
-13.332657388704519
20
574.4531827430468
30
-4.1603320718173591e-12
11
-13.332657388703097
21
14.594604099287096
31
-4.1603320718173591e-12
0
LINE
5
164
100
AcDbEntity
8
BEND_EXTENT
100
AcDbLine
10
752.85857864376294
20
4.9999999999995781
30
-1.3538048281135122e-12
11
-5
21
5.0000000000005489
31
-1.3279491431122322e-12
0
LINE
5
165
100
AcDbEntity
8
BEND_EXTENT
100
AcDbLine
10
-5.9999999999999432
20
7.2619467105844482
30
-1.9574700792068053e-12
11
753.85857864376294
21
7.2619467105834463
31
-1.9743950177468661e-12
0
LINE
5
166
100
AcDbEntity
8
BEND_EXTENT
100
AcDbLine
10
755.1912360324643
20
574.45318274305032
30
-4.2836262840056024e-12
11
755.19123603246624
21
14.59460409928802
31
-4.4967891047336325e-12
0
LINE
5
167
100
AcDbEntity
8
BEND_EXTENT
100
AcDbLine
10
753.85857864376305
20
13.26194671058348
30
-3.7152247203591111e-12
11
-5.999999999999801
21
13.261946710584475
31
-3.6982997818190508e-12
0
LINE
5
168
100
AcDbEntity
8
BEND_EXTENT
100
AcDbLine
10
-6.0000000000003695
20
575.78584013175055
30
-3.7338269186070558e-12
11
753.85857864376146
21
575.78584013175248
31
-3.7152247203591111e-12
0
LINE
5
169
100
AcDbEntity
8
BEND_EXTENT
100
AcDbLine
10
-7.3326573887030122
20
14.594604099286784
30
-4.3022937321767248e-12
11
-7.3326573887044333
21
574.45318274304657
31
-4.3733480057527348e-12
0
LINE
5
170
100
AcDbEntity
8
BEND_EXTENT
100
AcDbLine
10
752.92928932188204
20
15.594604099287078
30
-4.3547359325978576e-12
11
752.92928932187908
21
573.45318274305032
31
-4.3547359325978576e-12
0
LINE
5
171
100
AcDbEntity
8
BEND_EXTENT
100
AcDbLine
10
752.85857864376158
20
573.52389342116805
30
-4.3547376636753105e-12
11
-5.0000000000008527
21
573.52389342116555
31
-4.3732908996590367e-12
0
LINE
5
172
100
AcDbEntity
8
BEND_EXTENT
100
AcDbLine
10
-5.0707106781197808
20
573.45318274304657
30
-4.3732926307364896e-12
11
-5.0707106781183597
21
15.594604099286897
31
-4.3732926307364896e-12
0
LINE
5
173
100
AcDbEntity
8
BEND_EXTENT
100
AcDbLine
10
-5.0000000000001421
20
15.523893421168554
30
-4.3732908996590367e-12
11
752.85857864376294
21
15.523893421168044
31
-4.3547376636753105e-12
0
ENDSEC
0
SECTION
2
OBJECTS
0
DICTIONARY
5
C
100
AcDbDictionary
3
ACAD_GROUP
350
D
3
ACAD_MLINESTYLE
350
17
0
DICTIONARY
5
D
100
AcDbDictionary
0
DICTIONARY
5
1A
330
C
100
AcDbDictionary
0
DICTIONARY
5
17
100
AcDbDictionary
0
ENDSEC
0
EOF
