0
SECTION
2
HEADER
9
$INSUNITS
70
4
9
$ACADVER
1
AC1014
9
$HANDSEED
5
FFFF
0
ENDSEC
0
SECTION
2
TABLES
0
TABLE
2
VPORT
5
8
100
AcDbSymbolTable
0
ENDTAB
0
TABLE
2
LTYPE
5
5
100
AcDbSymbolTable
0
LTYPE
5
14
100
AcDbSymbolTableRecord
100
AcDbLinetypeTableRecord
2
BYBLOCK
70
0
0
LTYPE
5
15
100
AcDbSymbolTableRecord
100
AcDbLinetypeTableRecord
2
BYLAYER
70
0
0
LTYPE
5
16
100
AcDbSymbolTableRecord
100
AcDbLinetypeTableRecord
2
DASHED
70
0
3
Dashed __ __ __ __ __ __ __ __ __ __ __ __ __ _
72
65
73
2
40
0.75
49
0.5
74
0
49
-0.25
74
0
0
ENDTAB
0
TABLE
2
LAYER
5
2
100
AcDbSymbolTable
70
2
0
LAYER
5
50
100
AcDbSymbolTableRecord
100
AcDbLayerTableRecord
2
0
70
0
62
7
6
CONTINUOUS
0
ENDTAB
0
TABLE
2
STYLE
5
3
100
AcDbSymbolTable
70
1
0
STYLE
5
11
100
AcDbSymbolTableRecord
100
AcDbTextStyleTableRecord
2
STANDARD
70
0
0
ENDTAB
0
TABLE
2
VIEW
5
6
100
AcDbSymbolTable
70
0
0
ENDTAB
0
TABLE
2
UCS
5
7
100
AcDbSymbolTable
70
0
0
ENDTAB
0
TABLE
2
APPID
5
9
100
AcDbSymbolTable
70
2
0
APPID
5
12
100
AcDbSymbolTableRecord
100
AcDbRegAppTableRecord
2
ACAD
70
0
0
ENDTAB
0
TABLE
2
DIMSTYLE
5
A
100
AcDbSymbolTable
70
1
0
ENDTAB
0
TABLE
2
BLOCK_RECORD
5
1
100
AcDbSymbolTable
70
1
0
BLOCK_RECORD
5
1F
100
AcDbSymbolTableRecord
100
AcDbBlockTableRecord
2
*MODEL_SPACE
0
BLOCK_RECORD
5
1B
100
AcDbSymbolTableRecord
100
AcDbBlockTableRecord
2
*PAPER_SPACE
0
ENDTAB
0
ENDSEC
0
SECTION
2
BLOCKS
0
BLOCK
5
20
100
AcDbEntity
100
AcDbBlockBegin
2
*MODEL_SPACE
0
ENDBLK
5
21
100
AcDbEntity
100
AcDbBlockEnd
0
BLOCK
5
1C
100
AcDbEntity
100
AcDbBlockBegin
2
*PAPER_SPACE
0
ENDBLK
5
1D
100
AcDbEntity
100
AcDbBlockEnd
0
ENDSEC
0
SECTION
2
ENTITIES
0
LINE
5
100
100
AcDbEntity
8
OUTER_PROFILES
100
AcDbLine
10
815.52378663998275
20
16.262053491771262
30
0
11
787.26183992939821
21
16.262053491771123
31
0
0
LINE
5
101
100
AcDbEntity
8
OUTER_PROFILES
100
AcDbLine
10
787.26183992939821
20
16.261946710584635
30
0
11
784.99989321881344
21
16.261946710584635
31
0
0
LINE
5
102
100
AcDbEntity
8
OUTER_PROFILES
100
AcDbLine
10
784.99989321881344
20
16.261946710584635
30
0
11
784.99989321881344
21
13.999999999999996
31
0
0
LINE
5
103
100
AcDbEntity
8
OUTER_PROFILES
100
AcDbLine
10
784.99978643762688
20
14.000000000000004
30
0
11
784.99978643762688
21
0
31
0
0
LINE
5
104
100
AcDbEntity
8
OUTER_PROFILES
100
AcDbLine
10
784.99978643762688
20
0
30
0
11
0
21
0
31
0
0
LINE
5
105
100
AcDbEntity
8
OUTER_PROFILES
100
AcDbLine
10
0
20
0
30
0
11
1.7279980343756079e-15
21
13.999999999999988
31
0
0
LINE
5
106
100
AcDbEntity
8
OUTER_PROFILES
100
AcDbLine
10
-0.00010678118662892761
20
14.00000000000002
30
0
11
-0.00010678118655765845
21
16.26194671058466
31
0
0
LINE
5
107
100
AcDbEntity
8
OUTER_PROFILES
100
AcDbLine
10
-0.00010678118655765845
20
16.26194671058466
30
0
11
-2.2620534917711641
21
16.261946710584695
31
0
0
LINE
5
108
100
AcDbEntity
8
OUTER_PROFILES
100
AcDbLine
10
-2.2620534917711499
20
16.26205349177129
30
0
11
-30.52400020235595
21
16.262053491771269
31
0
0
LINE
5
109
100
AcDbEntity
8
OUTER_PROFILES
100
AcDbLine
10
-30.52400020235595
20
16.262053491771269
30
0
11
-30.524000202355609
21
488.26183992939843
31
0
0
LINE
5
110
100
AcDbEntity
8
OUTER_PROFILES
100
AcDbLine
10
-30.524000202355609
20
488.26183992939843
30
0
11
-2.2620534917710122
21
488.26183992939843
31
0
0
LINE
5
111
100
AcDbEntity
8
OUTER_PROFILES
100
AcDbLine
10
-2.2620534917709909
20
488.26194671058499
30
0
11
-0.00010678118635726319
21
488.26194671058511
31
0
0
LINE
5
112
100
AcDbEntity
8
OUTER_PROFILES
100
AcDbLine
10
-0.00010678118635726319
20
488.26194671058511
30
0
11
-0.00010678118635694774
21
490.52389342116965
31
0
0
LINE
5
113
100
AcDbEntity
8
OUTER_PROFILES
100
AcDbLine
10
1.3159932467214121e-13
20
490.52389342116965
30
0
11
1.3332732270651682e-13
21
504.52389342116965
31
0
0
LINE
5
114
100
AcDbEntity
8
OUTER_PROFILES
100
AcDbLine
10
1.3332732270651682e-13
20
504.52389342116965
30
0
11
784.99978643762506
21
504.52389342116919
31
0
0
LINE
5
115
100
AcDbEntity
8
OUTER_PROFILES
100
AcDbLine
10
784.99978643762506
20
504.52389342116919
30
0
11
784.99978643762506
21
490.52389342116919
31
0
0
LINE
5
116
100
AcDbEntity
8
OUTER_PROFILES
100
AcDbLine
10
784.99989321881162
20
490.52389342116919
30
0
11
784.99989321881162
21
488.2619467105846
31
0
0
LINE
5
117
100
AcDbEntity
8
OUTER_PROFILES
100
AcDbLine
10
784.99989321881162
20
488.2619467105846
30
0
11
787.26183992939639
21
488.2619467105846
31
0
0
LINE
5
118
100
AcDbEntity
8
OUTER_PROFILES
100
AcDbLine
10
787.26183992939627
20
488.26183992939804
30
0
11
815.5237866399807
21
488.26183992939809
31
0
0
LINE
5
119
100
AcDbEntity
8
OUTER_PROFILES
100
AcDbLine
10
815.5237866399807
20
488.26183992939809
30
0
11
815.52378663998275
21
16.262053491771262
31
0
0
CIRCLE
5
120
100
AcDbEntity
8
INTERIOR_PROFILES
100
AcDbCircle
10
-808.02378663998127
20
187.41194671058483
30
0
40
2.5
210
0
220
0
230
-1
0
CIRCLE
5
121
100
AcDbEntity
8
INTERIOR_PROFILES
100
AcDbCircle
10
-808.02378663998013
20
317.11194671058485
30
0
40
2.5
210
0
220
0
230
-1
0
CIRCLE
5
122
100
AcDbEntity
8
INTERIOR_PROFILES
100
AcDbCircle
10
23.024000202354902
20
446.41194671058554
30
0
40
2.5
210
0
220
0
230
-1
0
CIRCLE
5
123
100
AcDbEntity
8
INTERIOR_PROFILES
100
AcDbCircle
10
-808.02378663997865
20
474.11194671058479
30
0
40
2.5
210
0
220
0
230
-1
0
CIRCLE
5
124
100
AcDbEntity
8
INTERIOR_PROFILES
100
AcDbCircle
10
23.024000202354951
20
58.111946710584817
30
0
40
2.5
210
0
220
0
230
-1
0
CIRCLE
5
125
100
AcDbEntity
8
INTERIOR_PROFILES
100
AcDbCircle
10
23.024000202355076
20
204.11194671058524
30
0
40
2.5
210
0
220
0
230
-1
0
CIRCLE
5
126
100
AcDbEntity
8
INTERIOR_PROFILES
100
AcDbCircle
10
23.024000202355076
20
187.41194671058514
30
0
40
2.5
210
0
220
0
230
-1
0
CIRCLE
5
127
100
AcDbEntity
8
INTERIOR_PROFILES
100
AcDbCircle
10
23.024000202355062
20
317.11194671058524
30
0
40
2.5
210
0
220
0
230
-1
0
CIRCLE
5
128
100
AcDbEntity
8
INTERIOR_PROFILES
100
AcDbCircle
10
23.024000202355097
20
30.411946710585156
30
0
40
2.5
210
0
220
0
230
-1
0
CIRCLE
5
129
100
AcDbEntity
8
INTERIOR_PROFILES
100
AcDbCircle
10
-742.49989321881174
20
496.52389342117056
30
0
40
1.7000000000000171
210
0
220
0
230
-1
0
CIRCLE
5
130
100
AcDbEntity
8
INTERIOR_PROFILES
100
AcDbCircle
10
-392.49989321881338
20
496.52389342117067
30
0
40
1.7000000000000171
210
0
220
0
230
-1
0
CIRCLE
5
131
100
AcDbEntity
8
INTERIOR_PROFILES
100
AcDbCircle
10
-808.02378663998013
20
300.41194671058486
30
0
40
2.5
210
0
220
0
230
-1
0
CIRCLE
5
132
100
AcDbEntity
8
INTERIOR_PROFILES
100
AcDbCircle
10
-808.02378663997888
20
446.4119467105852
30
0
40
2.5
210
0
220
0
230
-1
0
CIRCLE
5
133
100
AcDbEntity
8
INTERIOR_PROFILES
100
AcDbCircle
10
-742.49989321881139
20
7.999999999998769
30
0
40
1.7000000000000004
210
0
220
0
230
-1
0
CIRCLE
5
134
100
AcDbEntity
8
INTERIOR_PROFILES
100
AcDbCircle
10
-808.02378663998093
20
204.11194671058485
30
0
40
2.5
210
0
220
0
230
-1
0
CIRCLE
5
135
100
AcDbEntity
8
INTERIOR_PROFILES
100
AcDbCircle
10
23.02400020235504
20
474.11194671058524
30
0
40
2.5
210
0
220
0
230
-1
0
CIRCLE
5
136
100
AcDbEntity
8
INTERIOR_PROFILES
100
AcDbCircle
10
23.024000202355062
20
300.41194671058514
30
0
40
2.5
210
0
220
0
230
-1
0
CIRCLE
5
137
100
AcDbEntity
8
INTERIOR_PROFILES
100
AcDbCircle
10
-392.49989321881299
20
7.9999999999988036
30
0
40
1.7000000000000004
210
0
220
0
230
-1
0
CIRCLE
5
138
100
AcDbEntity
8
INTERIOR_PROFILES
100
AcDbCircle
10
-42.499893218813646
20
496.5238934211709
30
0
40
1.7000000000000171
210
0
220
0
230
-1
0
CIRCLE
5
139
100
AcDbEntity
8
INTERIOR_PROFILES
100
AcDbCircle
10
-42.499893218813298
20
7.9999999999988809
30
0
40
1.7000000000000004
210
0
220
0
230
-1
0
CIRCLE
5
140
100
AcDbEntity
8
INTERIOR_PROFILES
100
AcDbCircle
10
-808.02378663998206
20
58.111946710584448
30
0
40
2.5
210
0
220
0
230
-1
0
CIRCLE
5
141
100
AcDbEntity
8
INTERIOR_PROFILES
100
AcDbCircle
10
-808.0237866399824
20
30.4119467105848
30
0
40
2.5
210
0
220
0
230
-1
0
LINE
5
142
100
AcDbEntity
8
BEND
100
AcDbLine
10
-1.1310801364786953
20
488.26194671058499
30
7.6029816511785251e-13
11
-1.1310801364788685
21
16.261946710584638
31
7.7417595292566697e-13
0
LINE
5
143
100
AcDbEntity
8
BEND
100
AcDbLine
10
786.13086657410599
20
16.261946710584709
30
8.5471685076330738e-13
11
786.13086657410418
21
488.26194671058454
31
8.6854648800624984e-13
0
LINE
5
144
100
AcDbEntity
8
BEND
100
AcDbLine
10
-15.39302684706341
20
488.26183992939866
30
-1.4641918535595127e-14
11
-15.393026847063583
21
16.262053491771269
31
6.4421913384421153e-14
0
LINE
5
145
100
AcDbEntity
8
BEND
100
AcDbLine
10
784.99989321881162
20
489.39292006587687
30
9.025053338617217e-13
11
-0.00010678118641749279
21
489.39292006587732
31
7.0332626678385314e-13
0
LINE
5
146
100
AcDbEntity
8
BEND
100
AcDbLine
10
800.39281328469042
20
16.262053491771162
30
-7.2942181523197902e-13
11
800.3928132846886
21
488.26183992939804
31
-4.9798627382046483e-13
0
LINE
5
147
100
AcDbEntity
8
BEND
100
AcDbLine
10
-0.00010678118655769931
20
15.130973355292404
30
7.1250968201945273e-13
11
784.99989321881344
21
15.130973355292332
31
7.617604902080459e-13
0
LINE
5
148
100
AcDbEntity
8
BEND_EXTENT
100
AcDbLine
10
801.52378663998093
20
488.26183992939804
30
-7.0543918503614228e-13
11
801.52378663998275
21
16.262053491771127
31
-8.275637177449092e-13
0
LINE
5
149
100
AcDbEntity
8
BEND_EXTENT
100
AcDbLine
10
799.26183992939809
20
16.26205349177123
30
-5.3043312201375932e-13
11
799.26183992939627
21
488.26183992939804
31
-3.8832457486173969e-13
0
LINE
5
150
100
AcDbEntity
8
BEND_EXTENT
100
AcDbLine
10
-16.524000202356032
20
16.262053491771294
30
-5.1838922232928627e-14
11
-16.524000202355833
21
488.26183992939866
31
-1.2511364185818896e-13
0
LINE
5
151
100
AcDbEntity
8
BEND_EXTENT
100
AcDbLine
10
-14.262053491770999
20
488.26183992939843
30
3.2947202506975597e-14
11
-14.262053491771169
21
16.262053491771269
31
3.2947202506975597e-14
0
LINE
5
152
100
AcDbEntity
8
BEND_EXTENT
100
AcDbLine
10
787.26183992939627
20
488.26183992939804
30
8.8848160940998704e-13
11
787.26183992939821
21
16.262053491771127
31
7.4637306225796731e-13
0
LINE
5
153
100
AcDbEntity
8
BEND_EXTENT
100
AcDbLine
10
-2.2620534917711481
20
16.26205349177129
30
6.7460640478751927e-13
11
-2.2620534917710109
21
488.26183992939843
31
7.4566067836352949e-13
0
LINE
5
154
100
AcDbEntity
8
BEND_EXTENT
100
AcDbLine
10
784.99978643762688
20
14.000000000000004
30
7.1043673128538649e-13
11
0
21
13.999999999999988
31
7.460698725481052e-13
0
LWPOLYLINE
5
155
100
AcDbEntity
8
BEND_EXTENT
100
AcDbPolyline
90
4
70
1
43
0.0
10
-0.00010678118655759414
20
16.26194671058466
10
784.99989321881344
20
16.261946710584635
10
784.99989321881162
20
488.2619467105846
10
-0.00010678118641749279
20
488.26194671058511
0
LINE
5
156
100
AcDbEntity
8
BEND_EXTENT
100
AcDbLine
10
1.3159932467214121e-13
20
490.52389342116965
30
7.1054273576010029e-13
11
784.99978643762506
21
490.52389342116919
31
9.5912668880142115e-13
0
ENDSEC
0
SECTION
2
OBJECTS
0
DICTIONARY
5
C
100
AcDbDictionary
3
ACAD_GROUP
350
D
3
ACAD_MLINESTYLE
350
17
0
DICTIONARY
5
D
100
AcDbDictionary
0
DICTIONARY
5
1A
330
C
100
AcDbDictionary
0
DICTIONARY
5
17
100
AcDbDictionary
0
ENDSEC
0
EOF
