0
SECTION
2
HEADER
9
$INSUNITS
70
4
9
$ACADVER
1
AC1014
9
$HANDSEED
5
FFFF
0
ENDSEC
0
SECTION
2
TABLES
0
TABLE
2
VPORT
5
8
100
AcDbSymbolTable
0
ENDTAB
0
TABLE
2
LTYPE
5
5
100
AcDbSymbolTable
0
LTYPE
5
14
100
AcDbSymbolTableRecord
100
AcDbLinetypeTableRecord
2
BYBLOCK
70
0
0
LTYPE
5
15
100
AcDbSymbolTableRecord
100
AcDbLinetypeTableRecord
2
BYLAYER
70
0
0
LTYPE
5
16
100
AcDbSymbolTableRecord
100
AcDbLinetypeTableRecord
2
DASHED
70
0
3
Dashed __ __ __ __ __ __ __ __ __ __ __ __ __ _
72
65
73
2
40
0.75
49
0.5
74
0
49
-0.25
74
0
0
ENDTAB
0
TABLE
2
LAYER
5
2
100
AcDbSymbolTable
70
2
0
LAYER
5
50
100
AcDbSymbolTableRecord
100
AcDbLayerTableRecord
2
0
70
0
62
7
6
CONTINUOUS
0
ENDTAB
0
TABLE
2
STYLE
5
3
100
AcDbSymbolTable
70
1
0
STYLE
5
11
100
AcDbSymbolTableRecord
100
AcDbTextStyleTableRecord
2
STANDARD
70
0
0
ENDTAB
0
TABLE
2
VIEW
5
6
100
AcDbSymbolTable
70
0
0
ENDTAB
0
TABLE
2
UCS
5
7
100
AcDbSymbolTable
70
0
0
ENDTAB
0
TABLE
2
APPID
5
9
100
AcDbSymbolTable
70
2
0
APPID
5
12
100
AcDbSymbolTableRecord
100
AcDbRegAppTableRecord
2
ACAD
70
0
0
ENDTAB
0
TABLE
2
DIMSTYLE
5
A
100
AcDbSymbolTable
70
1
0
ENDTAB
0
TABLE
2
BLOCK_RECORD
5
1
100
AcDbSymbolTable
70
1
0
BLOCK_RECORD
5
1F
100
AcDbSymbolTableRecord
100
AcDbBlockTableRecord
2
*MODEL_SPACE
0
BLOCK_RECORD
5
1B
100
AcDbSymbolTableRecord
100
AcDbBlockTableRecord
2
*PAPER_SPACE
0
ENDTAB
0
ENDSEC
0
SECTION
2
BLOCKS
0
BLOCK
5
20
100
AcDbEntity
100
AcDbBlockBegin
2
*MODEL_SPACE
0
ENDBLK
5
21
100
AcDbEntity
100
AcDbBlockEnd
0
BLOCK
5
1C
100
AcDbEntity
100
AcDbBlockBegin
2
*PAPER_SPACE
0
ENDBLK
5
1D
100
AcDbEntity
100
AcDbBlockEnd
0
ENDSEC
0
SECTION
2
ENTITIES
0
LINE
5
100
100
AcDbEntity
8
OUTER_PROFILES
100
AcDbLine
10
578.45318274305066
20
51.523893421164047
30
0
11
583.45318274305032
21
46.523893421164153
31
0
0
SPLINE
5
101
100
AcDbEntity
8
OUTER_PROFILES
100
AcDbSpline
70
0
71
3
72
11
73
7
74
0
42
0.000000001
43
0.0000000001
44
0.0000000001
40
-3.1415926535898113
40
-3.1415926535898113
40
-3.1415926535898113
40
-3.1415926535898113
40
-3.0437620783854311
40
-3.0437620783854311
40
-3.0437620783854311
40
-1.5707963267949012
40
-1.5707963267949012
40
-1.5707963267949012
40
-1.5707963267949012
10
584.45318274305021
20
44.261946710579814
30
0
10
584.45318274305021
20
44.308905386677921
30
0
10
584.45158633512915
20
44.355864062776014
30
0
10
584.448401147803
20
44.402822738874121
30
0
10
584.40044403588786
20
45.109846299637574
30
0
10
583.94417132691376
20
45.816869860401027
30
0
10
583.45318274305032
20
46.523893421164487
30
0
0
LINE
5
102
100
AcDbEntity
8
OUTER_PROFILES
100
AcDbLine
10
584.45318274305021
20
44.261946710579814
30
0
11
584.45318274305066
21
30.261946710579902
31
0
0
SPLINE
5
103
100
AcDbEntity
8
OUTER_PROFILES
100
AcDbSpline
70
0
71
3
72
11
73
7
74
0
42
0.000000001
43
0.0000000001
44
0.0000000001
40
1.5707963267948966
40
1.5707963267948966
40
1.5707963267948966
40
1.5707963267948966
40
1.6686269019992677
40
1.6686269019992677
40
1.6686269019992677
40
3.1415926535897931
40
3.1415926535897931
40
3.1415926535897931
40
3.1415926535897931
10
583.45318274305066
20
27.99999999999525
30
0
10
583.48579293478542
20
28.046958676093329
30
0
10
583.51840307675764
20
28.093917352191461
30
0
10
583.55085733975466
20
28.14087602828954
30
0
10
584.03949821493916
20
28.847899589052979
30
0
10
584.45318274305066
20
29.554923149816467
30
0
10
584.45318274305066
20
30.261946710579902
30
0
0
LINE
5
104
100
AcDbEntity
8
OUTER_PROFILES
100
AcDbLine
10
583.45318274305066
20
27.99999999999525
30
0
11
583.52389342117056
21
27.929289321876624
31
0
0
SPLINE
5
105
100
AcDbEntity
8
OUTER_PROFILES
100
AcDbSpline
70
0
71
3
72
11
73
7
74
0
42
0.000000001
43
0.0000000001
44
0.0000000001
40
-3.1415926535897931
40
-3.1415926535897931
40
-3.1415926535897931
40
-3.1415926535897931
40
-1.6686269019992677
40
-1.6686269019992677
40
-1.6686269019992677
40
-1.5707963267948966
40
-1.5707963267948966
40
-1.5707963267948966
40
-1.5707963267948966
10
585.78584013175521
20
28.92928932187662
30
0
10
585.07881657099176
20
28.929289321876624
30
0
10
584.37179301022832
20
28.515604793765114
30
0
10
583.66476944946487
20
28.026963918580638
30
0
10
583.61781077336684
20
27.994509655583656
30
0
10
583.5708520972687
20
27.961899513611414
30
0
10
583.52389342117056
20
27.929289321876624
30
0
0
LINE
5
106
100
AcDbEntity
8
OUTER_PROFILES
100
AcDbLine
10
585.78584013175521
20
28.92928932187662
30
0
11
599.78584013175396
21
28.929289321876468
31
0
0
SPLINE
5
107
100
AcDbEntity
8
OUTER_PROFILES
100
AcDbSpline
70
0
71
3
72
11
73
7
74
0
42
0.000000001
43
0.0000000001
44
0.0000000001
40
1.5707963267948817
40
1.5707963267948817
40
1.5707963267948817
40
1.5707963267948817
40
3.04376207838542
40
3.04376207838542
40
3.04376207838542
40
3.14159265358981
40
3.14159265358981
40
3.14159265358981
40
3.14159265358981
10
602.04778684233861
20
27.929289321876418
30
0
10
601.34076328157516
20
28.420277905739933
30
0
10
600.63373972081172
20
28.876550614714102
30
0
10
599.92671616004816
20
28.924507726629265
30
0
10
599.87975748395013
20
28.927692913955401
30
0
10
599.83279880785199
20
28.929289321876468
30
0
10
599.78584013175396
20
28.929289321876468
30
0
0
LINE
5
108
100
AcDbEntity
8
OUTER_PROFILES
100
AcDbLine
10
602.04778684233861
20
27.929289321876418
30
0
11
607.04778684233827
21
22.929289321876496
31
0
0
LINE
5
109
100
AcDbEntity
8
OUTER_PROFILES
100
AcDbLine
10
607.04778684233827
20
22.929289321876496
30
0
11
607.04778684233804
21
-4.9249493372371944e-12
31
0
0
LINE
5
110
100
AcDbEntity
8
OUTER_PROFILES
100
AcDbLine
10
607.04778684233804
20
-4.9249493372371944e-12
30
0
11
0
21
0
31
0
0
LINE
5
111
100
AcDbEntity
8
OUTER_PROFILES
100
AcDbLine
10
0
20
0
30
0
11
7.1054273576010019e-14
21
22.92928932188136
31
0
0
LINE
5
112
100
AcDbEntity
8
OUTER_PROFILES
100
AcDbLine
10
7.1054273576010019e-14
20
22.92928932188136
30
0
11
4.9999999999998579
21
27.929289321881264
31
0
0
SPLINE
5
113
100
AcDbEntity
8
OUTER_PROFILES
100
AcDbSpline
70
0
71
3
72
11
73
7
74
0
42
0.000000001
43
0.0000000001
44
0.0000000001
40
-3.1415926535898122
40
-3.1415926535898122
40
-3.1415926535898122
40
-3.1415926535898122
40
-3.043762078385412
40
-3.043762078385412
40
-3.043762078385412
40
-1.5707963267948784
40
-1.5707963267948784
40
-1.5707963267948784
40
-1.5707963267948784
10
7.2619467105836577
20
28.92928932188131
30
0
10
7.2149880344855433
20
28.92928932188131
30
0
10
7.1680293583874288
20
28.92769291396025
30
0
10
7.1210706822893144
20
28.924507726634111
30
0
10
6.4140471215258543
20
28.876550614718951
30
0
10
5.7070235607623943
20
28.420277905744776
30
0
10
4.9999999999989342
20
27.929289321881264
30
0
0
LINE
5
114
100
AcDbEntity
8
OUTER_PROFILES
100
AcDbLine
10
7.2619467105836577
20
28.92928932188131
30
0
11
21.261946710587623
21
28.929289321881345
31
0
0
SPLINE
5
115
100
AcDbEntity
8
OUTER_PROFILES
100
AcDbSpline
70
0
71
3
72
11
73
7
74
0
42
0.000000001
43
0.0000000001
44
0.0000000001
40
1.5707963267948966
40
1.5707963267948966
40
1.5707963267948966
40
1.5707963267948966
40
1.6686269019992712
40
1.6686269019992712
40
1.6686269019992712
40
3.1415926535897931
40
3.1415926535897931
40
3.1415926535897931
40
3.1415926535897931
10
23.523893421172275
20
27.929289321881328
30
0
10
23.476934745074161
20
27.961899513616121
30
0
10
23.429976068976046
20
27.994509655588363
30
0
10
23.383017392877932
20
28.026963918585345
30
0
10
22.675993832114472
20
28.515604793769832
30
0
10
21.968970271351083
20
28.929289321881349
30
0
10
21.261946710587623
20
28.929289321881345
30
0
0
LINE
5
116
100
AcDbEntity
8
OUTER_PROFILES
100
AcDbLine
10
23.523893421172275
20
27.929289321881328
30
0
11
23.594604099287579
21
27.999999999999968
31
0
0
SPLINE
5
117
100
AcDbEntity
8
OUTER_PROFILES
100
AcDbSpline
70
0
71
3
72
11
73
7
74
0
42
0.000000001
43
0.0000000001
44
0.0000000001
40
-3.1415926535897931
40
-3.1415926535897931
40
-3.1415926535897931
40
-3.1415926535897931
40
-1.668626901999271
40
-1.668626901999271
40
-1.668626901999271
40
-1.5707963267948966
40
-1.5707963267948966
40
-1.5707963267948966
40
-1.5707963267948966
10
22.594604099287636
20
30.261946710584617
30
0
10
22.594604099287636
20
29.554923149821171
30
0
10
23.008288627399125
20
28.847899589057707
30
0
10
23.496929502583512
20
28.140876028294265
30
0
10
23.529383765580505
20
28.093917352196161
30
0
10
23.56199390755279
20
28.046958676098054
30
0
10
23.594604099287579
20
27.999999999999968
30
0
0
LINE
5
118
100
AcDbEntity
8
OUTER_PROFILES
100
AcDbLine
10
22.594604099287636
20
30.261946710584617
30
0
11
22.594604099288347
21
44.261946710584539
31
0
0
SPLINE
5
119
100
AcDbEntity
8
OUTER_PROFILES
100
AcDbSpline
70
0
71
3
72
11
73
7
74
0
42
0.000000001
43
0.0000000001
44
0.0000000001
40
1.5707963267949012
40
1.5707963267949012
40
1.5707963267949012
40
1.5707963267949012
40
3.0437620783854271
40
3.0437620783854271
40
3.0437620783854271
40
3.1415926535898113
40
3.1415926535898113
40
3.1415926535898113
40
3.1415926535898113
10
23.594604099288432
20
46.523893421169184
30
0
10
23.103615515424849
20
45.816869860405731
30
0
10
22.647342806450723
20
45.1098462996423
30
0
10
22.599385694535599
20
44.402822738878847
30
0
10
22.596200507209474
20
44.355864062780739
30
0
10
22.594604099288347
20
44.308905386682639
30
0
10
22.594604099288347
20
44.261946710584539
30
0
0
LINE
5
120
100
AcDbEntity
8
OUTER_PROFILES
100
AcDbLine
10
23.594604099288432
20
46.523893421169184
30
0
11
28.594604099288219
21
51.523893421168651
31
0
0
LINE
5
121
100
AcDbEntity
8
OUTER_PROFILES
100
AcDbLine
10
28.594604099288219
20
51.523893421168651
30
0
11
578.45318274305066
21
51.523893421164047
31
0
0
CIRCLE
5
122
100
AcDbEntity
8
INTERIOR_PROFILES
100
AcDbCircle
10
-103.52389342116894
20
37.261946710583899
30
0
40
1.6999999999999993
210
0
220
0
230
-1
0
CIRCLE
5
123
100
AcDbEntity
8
INTERIOR_PROFILES
100
AcDbCircle
10
-14.261946710636906
20
23.999999999999943
30
0
40
1.6999999999999993
210
0
220
0
230
-1
0
CIRCLE
5
124
100
AcDbEntity
8
INTERIOR_PROFILES
100
AcDbCircle
10
-592.78584013169825
20
3.999999999996477
30
0
40
1.7000000000000171
210
0
220
0
230
-1
0
CIRCLE
5
125
100
AcDbEntity
8
INTERIOR_PROFILES
100
AcDbCircle
10
-303.52389342116913
20
9.9999999999976481
30
0
40
5
210
0
220
0
230
-1
0
CIRCLE
5
126
100
AcDbEntity
8
INTERIOR_PROFILES
100
AcDbCircle
10
-14.261946710636835
20
3.9999999999999414
30
0
40
1.6999999999999993
210
0
220
0
230
-1
0
CIRCLE
5
127
100
AcDbEntity
8
INTERIOR_PROFILES
100
AcDbCircle
10
-503.52389342116913
20
9.9999999999959623
30
0
40
5
210
0
220
0
230
-1
0
CIRCLE
5
128
100
AcDbEntity
8
INTERIOR_PROFILES
100
AcDbCircle
10
-503.52389342116908
20
37.261946710580595
30
0
40
1.7000000000000171
210
0
220
0
230
-1
0
CIRCLE
5
129
100
AcDbEntity
8
INTERIOR_PROFILES
100
AcDbCircle
10
-203.52389342116894
20
37.261946710583054
30
0
40
1.7000000000000171
210
0
220
0
230
-1
0
CIRCLE
5
130
100
AcDbEntity
8
INTERIOR_PROFILES
100
AcDbCircle
10
-592.78584013169836
20
23.999999999996472
30
0
40
1.7000000000000171
210
0
220
0
230
-1
0
CIRCLE
5
131
100
AcDbEntity
8
INTERIOR_PROFILES
100
AcDbCircle
10
-203.52389342116913
20
9.9999999999984883
30
0
40
5
210
0
220
0
230
-1
0
CIRCLE
5
132
100
AcDbEntity
8
INTERIOR_PROFILES
100
AcDbCircle
10
-403.52389342116913
20
9.9999999999968043
30
0
40
5
210
0
220
0
230
-1
0
CIRCLE
5
133
100
AcDbEntity
8
INTERIOR_PROFILES
100
AcDbCircle
10
-103.52389342116915
20
9.9999999999993303
30
0
40
5
210
0
220
0
230
-1
0
CIRCLE
5
134
100
AcDbEntity
8
INTERIOR_PROFILES
100
AcDbCircle
10
-303.52389342116896
20
37.261946710582215
30
0
40
1.7000000000000171
210
0
220
0
230
-1
0
CIRCLE
5
135
100
AcDbEntity
8
INTERIOR_PROFILES
100
AcDbCircle
10
-403.52389342116896
20
37.26194671058137
30
0
40
1.7000000000000171
210
0
220
0
230
-1
0
LINE
5
136
100
AcDbEntity
8
BEND
100
AcDbLine
10
6.1309733552967316
20
28.636396103070496
30
1.3561406871574934e-13
11
6.1309733552967316
21
-4.4408920985006262e-15
31
-1.0570248380291066e-14
0
LINE
5
137
100
AcDbEntity
8
BEND
100
AcDbLine
10
600.91681348704594
20
-4.8500772771475837e-12
30
7.7056289188399726e-12
11
600.91681348704617
21
28.63639610306301
31
7.9478668724902463e-12
0
LINE
5
138
100
AcDbEntity
8
BEND
100
AcDbLine
10
584.1602895242371
20
45.392920065871422
30
8.3247668444814763e-12
11
22.887497318101495
21
45.392920065876119
31
1.0714140454656329e-12
0
LINE
5
139
100
AcDbEntity
8
BEND
100
AcDbLine
10
584.16028952423721
20
29.130973355287576
30
7.7173360721334392e-12
11
22.887497318101069
21
29.130973355292301
31
4.6120771555602514e-13
0
LINE
5
140
100
AcDbEntity
8
BEND
100
AcDbLine
10
584.6548667764614
20
-4.7287197149757628e-12
30
7.724424584410439e-12
11
584.65486677646163
21
28.636396103062548
31
7.7432983758290682e-12
0
LINE
5
141
100
AcDbEntity
8
BEND
100
AcDbLine
10
22.392920065876538
20
28.636396103069544
30
5.0338534999676386e-13
11
22.392920065876609
21
1.3322676295501878e-14
31
4.6882965835530687e-13
0
LINE
5
142
100
AcDbEntity
8
BEND_EXTENT
100
AcDbLine
10
602.0477868423385
20
27.929289321876421
30
7.8085850943794846e-12
11
602.04778684233827
21
-4.8538950636611844e-12
31
7.741971712901972e-12
0
LINE
5
143
100
AcDbEntity
8
BEND_EXTENT
100
AcDbLine
10
599.78584013175362
20
-4.8427766597432964e-12
30
7.799323331466933e-12
11
599.78584013175396
21
28.929289321876489
31
7.7993233314669362e-12
0
LINE
5
144
100
AcDbEntity
8
BEND_EXTENT
100
AcDbLine
10
4.9999999999998579
20
-4.3447591661354621e-15
30
-3.7493156727451113e-14
11
4.9999999999998579
21
27.929289321881264
31
1.1571762067082049e-13
0
LINE
5
145
100
AcDbEntity
8
BEND_EXTENT
100
AcDbLine
10
7.2619467105844393
20
28.929289321881321
30
1.7382919666687413e-13
11
7.2619467105844393
21
-4.4408920985006262e-15
31
1.7382919666687413e-13
0
LINE
5
146
100
AcDbEntity
8
BEND_EXTENT
100
AcDbLine
10
23.594604099288361
20
46.523893421168843
30
1.71726946763404e-12
11
583.45318274305032
21
46.523893421164153
31
8.953725010338905e-12
0
LINE
5
147
100
AcDbEntity
8
BEND_EXTENT
100
AcDbLine
10
584.45318274305077
20
44.261946710579785
30
7.7209842490170991e-12
11
22.594604099287778
21
44.261946710584503
31
4.5644931564774449e-13
0
LINE
5
148
100
AcDbEntity
8
BEND_EXTENT
100
AcDbLine
10
22.594604099287636
20
30.261946710584606
30
4.5866976169699177e-13
11
584.45318274305066
21
30.261946710579906
31
7.7232046950663462e-12
0
LINE
5
149
100
AcDbEntity
8
BEND_EXTENT
100
AcDbLine
10
21.261946710584354
20
1.4185779764812913e-14
30
4.9695035612547561e-13
11
21.261946710584283
21
28.929289321881345
31
5.3247749291347961e-13
0
LINE
5
150
100
AcDbEntity
8
BEND_EXTENT
100
AcDbLine
10
585.78584013175396
20
28.92928932187662
30
7.7248921295243704e-12
11
585.78584013175384
21
-4.7384318691001681e-12
31
7.7248921295243688e-12
0
LINE
5
151
100
AcDbEntity
8
BEND_EXTENT
100
AcDbLine
10
583.52389342116908
20
-4.7103168673252231e-12
30
7.695646352168566e-12
11
583.5238934211693
21
27.929289321876606
31
7.6956463521685692e-12
0
LINE
5
152
100
AcDbEntity
8
BEND_EXTENT
100
AcDbLine
10
23.523893421169007
20
27.929289321881324
30
4.5514185990526617e-13
11
23.523893421169078
21
1.7763568394002505e-14
31
4.5514185990526718e-13
0
LINE
5
153
100
AcDbEntity
8
BEND_EXTENT
100
AcDbLine
10
583.45318274305066
20
27.99999999999525
30
7.6947321004139824e-12
11
23.59460409928765
21
28.000000000000036
31
4.5605611165985405e-13
0
ENDSEC
0
SECTION
2
OBJECTS
0
DICTIONARY
5
C
100
AcDbDictionary
3
ACAD_GROUP
350
D
3
ACAD_MLINESTYLE
350
17
0
DICTIONARY
5
D
100
AcDbDictionary
0
DICTIONARY
5
1A
330
C
100
AcDbDictionary
0
DICTIONARY
5
17
100
AcDbDictionary
0
ENDSEC
0
EOF
