0
SECTION
2
HEADER
9
$INSUNITS
70
4
9
$ACADVER
1
AC1014
9
$HANDSEED
5
FFFF
0
ENDSEC
0
SECTION
2
TABLES
0
TABLE
2
VPORT
5
8
100
AcDbSymbolTable
0
ENDTAB
0
TABLE
2
LTYPE
5
5
100
AcDbSymbolTable
0
LTYPE
5
14
100
AcDbSymbolTableRecord
100
AcDbLinetypeTableRecord
2
BYBLOCK
70
0
0
LTYPE
5
15
100
AcDbSymbolTableRecord
100
AcDbLinetypeTableRecord
2
BYLAYER
70
0
0
LTYPE
5
16
100
AcDbSymbolTableRecord
100
AcDbLinetypeTableRecord
2
DASHED
70
0
3
Dashed __ __ __ __ __ __ __ __ __ __ __ __ __ _
72
65
73
2
40
0.75
49
0.5
74
0
49
-0.25
74
0
0
ENDTAB
0
TABLE
2
LAYER
5
2
100
AcDbSymbolTable
70
2
0
LAYER
5
50
100
AcDbSymbolTableRecord
100
AcDbLayerTableRecord
2
0
70
0
62
7
6
CONTINUOUS
0
ENDTAB
0
TABLE
2
STYLE
5
3
100
AcDbSymbolTable
70
1
0
STYLE
5
11
100
AcDbSymbolTableRecord
100
AcDbTextStyleTableRecord
2
STANDARD
70
0
0
ENDTAB
0
TABLE
2
VIEW
5
6
100
AcDbSymbolTable
70
0
0
ENDTAB
0
TABLE
2
UCS
5
7
100
AcDbSymbolTable
70
0
0
ENDTAB
0
TABLE
2
APPID
5
9
100
AcDbSymbolTable
70
2
0
APPID
5
12
100
AcDbSymbolTableRecord
100
AcDbRegAppTableRecord
2
ACAD
70
0
0
ENDTAB
0
TABLE
2
DIMSTYLE
5
A
100
AcDbSymbolTable
70
1
0
ENDTAB
0
TABLE
2
BLOCK_RECORD
5
1
100
AcDbSymbolTable
70
1
0
BLOCK_RECORD
5
1F
100
AcDbSymbolTableRecord
100
AcDbBlockTableRecord
2
*MODEL_SPACE
0
BLOCK_RECORD
5
1B
100
AcDbSymbolTableRecord
100
AcDbBlockTableRecord
2
*PAPER_SPACE
0
ENDTAB
0
ENDSEC
0
SECTION
2
BLOCKS
0
BLOCK
5
20
100
AcDbEntity
100
AcDbBlockBegin
2
*MODEL_SPACE
0
ENDBLK
5
21
100
AcDbEntity
100
AcDbBlockEnd
0
BLOCK
5
1C
100
AcDbEntity
100
AcDbBlockBegin
2
*PAPER_SPACE
0
ENDBLK
5
1D
100
AcDbEntity
100
AcDbBlockEnd
0
ENDSEC
0
SECTION
2
ENTITIES
0
LWPOLYLINE
5
100
100
AcDbEntity
8
OUTER_PROFILES
100
AcDbPolyline
90
44
70
1
43
0.0
10
5.494577252250048
20
72.685813284605317
42
0.41421356237310908
10
5.4945772522500693
20
74.100026846978452
10
1.2363443602225743e-11
20
79.594604099215772
10
1.2079226507921703e-11
20
88.523893421097085
10
5.0000000000085265
20
88.523893421135696
10
7.2619467105936053
20
86.523893421135654
10
7.26194682895221
20
95.800338128403425
42
-0.28685987762112747
10
8.6669698714009389
20
98.047786841501875
42
-0.063084606559911591
10
9.2619467105941062
20
98.249827870380642
42
0.81649658092776067
10
9.2619467105940103
20
117.8457458126463
42
-0.063084606559896395
10
8.6669698939512134
20
118.04778688780955
42
-0.28685987765076004
10
7.2619468286462059
20
120.29523555462541
10
7.2619467105939179
20
127.30973355129983
42
-0.41421356237310542
10
9.2619467105939179
20
129.30973355129993
10
665.26194671058624
20
129.30973355132292
42
-0.41421356237310542
10
667.26194671058818
20
127.30973355132299
10
667.2619465925344
20
120.29523555464822
42
-0.28685987765066751
10
665.8569235497805
20
118.04778684154803
42
-0.063084606559948256
10
665.26194671058693
20
117.84574581266901
42
0.81649658092762079
10
665.26194671058772
20
98.249827870404062
42
-0.063084606559983686
10
665.85692352717263
20
98.04778679511989
42
-0.28685987762087084
10
667.26194671058852
20
95.800338128427072
10
667.26194671058806
20
86.523893421147221
10
669.52389342117635
20
88.523893421152337
10
674.52389342119136
20
88.523893421098762
10
674.52389342119193
20
79.594604099217449
10
669.02931616893534
20
74.100026846960475
42
0.41421356237279705
10
669.02931616893466
20
72.68581328458805
10
674.55318274296189
20
67.161946710550481
10
683.52389342108052
20
67.161946710542054
10
683.52389342103731
20
21.361946710541979
10
674.55318274291869
20
21.361946710550459
10
669.02931616891033
20
15.838080136552467
42
0.41421356237340634
10
669.02931616890987
20
14.423866574178652
10
674.52389342118511
20
8.9292893219032088
10
674.52389342118499
20
2.1902479829805088e-11
10
0
20
0
10
1.4210854715202004e-13
20
8.9292893218812974
10
5.4945772522488125
20
14.423866574130116
42
0.4142135623730907
10
5.4945772522418679
20
15.838080136496275
10
-0.029289321802252744
20
21.361946710554591
10
-8.9999999999209024
20
21.361946710554811
10
-8.9999999999197655
20
67.161946710554858
10
-0.029289321801115875
20
67.161946710554602
0
CIRCLE
5
101
100
AcDbEntity
8
INTERIOR_PROFILES
100
AcDbCircle
10
1.9999999999201634
20
54.261946710554632
30
0
40
1.7000000000000004
210
0
220
0
230
-1
0
CIRCLE
5
102
100
AcDbEntity
8
INTERIOR_PROFILES
100
AcDbCircle
10
-87.261946710591474
20
108.0477868415075
30
0
40
1.25
210
0
220
0
230
-1
0
CIRCLE
5
103
100
AcDbEntity
8
INTERIOR_PROFILES
100
AcDbCircle
10
-676.52389342106835
20
54.2619467105486
30
0
40
1.7000000000000171
210
0
220
0
230
-1
0
CIRCLE
5
104
100
AcDbEntity
8
INTERIOR_PROFILES
100
AcDbCircle
10
-337.26194671059102
20
64.261946710556131
30
0
40
5
210
0
220
0
230
-1
0
CIRCLE
5
105
100
AcDbEntity
8
INTERIOR_PROFILES
100
AcDbCircle
10
-676.52389342104016
20
24.261946710548603
30
0
40
1.7000000000000262
210
0
220
0
230
-1
0
CIRCLE
5
106
100
AcDbEntity
8
INTERIOR_PROFILES
100
AcDbCircle
10
-337.26194671058892
20
108.04778684152417
30
0
40
1.25
210
0
220
0
230
-1
0
CIRCLE
5
107
100
AcDbEntity
8
INTERIOR_PROFILES
100
AcDbCircle
10
-1.999999999920874
20
24.261946710554625
30
0
40
1.7000000000000006
210
0
220
0
230
1
0
CIRCLE
5
108
100
AcDbEntity
8
INTERIOR_PROFILES
100
AcDbCircle
10
-587.26194671059159
20
108.04778684154256
30
0
40
1.25
210
0
220
0
230
-1
0
LINE
5
109
100
AcDbEntity
8
BEND
100
AcDbLine
10
6.1309733552928947
20
15.130973355253827
30
7.3766864533208875e-11
11
6.1309733552930368
21
-3.8475889141409425e-11
31
-1.1303807878235915e-11
0
LINE
5
110
100
AcDbEntity
8
BEND
100
AcDbLine
10
6.1309733553014212
20
73.392920065843398
30
4.0226506060447605e-10
11
6.1309733552928947
21
15.130973355253827
31
7.3766864533208875e-11
0
LINE
5
111
100
AcDbEntity
8
BEND
100
AcDbLine
10
6.1309733553008527
20
87.523893421135739
30
4.8138393627020438e-10
11
6.1309733553014212
21
73.392920065843398
31
4.0226506060447605e-10
0
LINE
5
112
100
AcDbEntity
8
BEND
100
AcDbLine
10
668.73642295013065
20
73.392920065866633
30
4.0226338869591034e-10
11
5.7874704710462765
21
73.392920065843384
31
4.3296644580869947e-10
0
LINE
5
113
100
AcDbEntity
8
BEND
100
AcDbLine
10
7.525100215074616
20
96.916813486623454
30
7.0306080896627698e-10
11
666.9987932061058
21
96.916813486646589
31
6.5720707888550944e-10
0
LINE
5
114
100
AcDbEntity
8
BEND
100
AcDbLine
10
7.5251002147648194
20
119.17876019641243
30
1.0988926811340064e-09
11
666.99879320641583
21
119.17876019643556
31
1.0530957610307203e-09
0
LINE
5
115
100
AcDbEntity
8
BEND
100
AcDbLine
10
5.7874704710479818
20
15.130973355253836
30
1.0512527613444544e-10
11
668.73642295011348
21
15.130973355253836
31
1.0428031527608944e-10
0
LINE
5
116
100
AcDbEntity
8
BEND
100
AcDbLine
10
668.39292006588664
20
73.392920065866619
30
4.0159565957899572e-10
11
668.39292006588607
21
87.523893421140599
31
4.812104639226339e-10
0
LINE
5
117
100
AcDbEntity
8
BEND
100
AcDbLine
10
668.3929200658838
20
15.130973355253836
30
1.0512497085125013e-10
11
668.39292006588664
21
73.392920065866619
31
4.0159565957899572e-10
0
LINE
5
118
100
AcDbEntity
8
BEND
100
AcDbLine
10
668.39292006588403
20
-3.8484770925606426e-11
30
-1.130623372724312e-11
11
668.3929200658838
21
15.130973355253836
31
1.0512497085125013e-10
0
LINE
5
119
100
AcDbEntity
8
BEND
100
AcDbLine
10
667.26194671058761
20
87.654866776452025
30
4.8180505152423123e-10
11
7.2619467105934632
21
87.654866776428861
31
4.8182847706149974e-10
0
LINE
5
120
100
AcDbEntity
8
BEND_EXTENT
100
AcDbLine
10
7.2619467105940316
20
120.30973355129994
30
9.2390188617938078e-10
11
667.26194671058852
21
120.30973355132306
31
9.2387524082691975e-10
0
LINE
5
121
100
AcDbEntity
8
BEND_EXTENT
100
AcDbLine
10
8.6669698714010224
20
98.047786841501903
30
5.5084905188418738e-10
11
665.85692354978153
21
98.047786841524953
31
5.5087125634480944e-10
0
LINE
5
122
100
AcDbEntity
8
BEND_EXTENT
100
AcDbLine
10
665.8569235497805
20
118.04778684154803
30
8.8906352690790358e-10
11
8.6669698714010224
21
118.04778684152497
31
8.8904132244728162e-10
0
LINE
5
123
100
AcDbEntity
8
BEND_EXTENT
100
AcDbLine
10
5.0000000000083844
20
-3.8475889141409425e-11
30
-1.1368683772378092e-11
11
4.9999999999997158
21
13.929289321892302
31
6.6295855663623261e-11
0
LINE
5
124
100
AcDbEntity
8
BEND_EXTENT
100
AcDbLine
10
7.2619467105911895
20
13.999999999972905
30
6.2870111023944311e-11
11
7.2619467105917579
21
-3.8484770925606426e-11
31
-1.1306511282999148e-11
0
LINE
5
125
100
AcDbEntity
8
BEND_EXTENT
100
AcDbLine
10
667.26194671059056
20
13.999999999972905
30
6.2870111023944182e-11
11
7.2619467105911895
21
13.999999999972905
31
6.2870111023944311e-11
0
LINE
5
126
100
AcDbEntity
8
BEND_EXTENT
100
AcDbLine
10
667.2619467105917
20
-3.8475889141409425e-11
30
-1.1306511282999212e-11
11
667.26194671059056
21
13.999999999972905
31
6.2870111023944182e-11
0
LINE
5
127
100
AcDbEntity
8
BEND_EXTENT
100
AcDbLine
10
5.0000000000116529
20
74.594604099216454
30
4.0927192842086164e-10
11
5.0000000000085265
21
88.523893421135696
31
4.8707857640395018e-10
0
LWPOLYLINE
5
128
100
AcDbEntity
8
BEND_EXTENT
100
AcDbPolyline
90
4
70
1
43
0.0
10
7.2619467105936053
20
86.523893421135654
10
7.2619467105933211
20
74.523893421135753
10
667.2619467105892
20
74.523893421147335
10
667.26194671058806
20
86.523893421147221
0
LINE
5
129
100
AcDbEntity
8
BEND_EXTENT
100
AcDbLine
10
669.52389342110973
20
72.191236032450846
30
3.9482533843227425e-10
11
669.52389342106312
21
16.332657388669798
31
7.8895034539300973e-11
0
LWPOLYLINE
5
130
100
AcDbEntity
8
BEND_EXTENT
100
AcDbPolyline
90
4
70
1
43
0.0
10
667.26194671059125
20
16.261946710546162
10
667.26194671058829
20
72.261946710574222
10
7.2619467105933211
20
72.261946710562597
10
7.2619467105919
20
16.261946710546155
0
LINE
5
131
100
AcDbEntity
8
BEND_EXTENT
100
AcDbLine
10
667.26194671058749
20
95.785840131768282
30
5.2755035073076704e-10
11
7.261946710593179
21
95.78584013174509
31
5.2756367340693236e-10
0
LINE
5
132
100
AcDbEntity
8
BEND_EXTENT
100
AcDbLine
10
7.2619467105937474
20
88.785840131721983
30
4.8817942103843775e-10
11
667.26194671058761
21
88.785840131745161
31
4.8815721657807553e-10
0
LINE
5
133
100
AcDbEntity
8
BEND_EXTENT
100
AcDbLine
10
669.52389342117635
20
88.523893421152337
30
4.8679435930973951e-10
11
669.52389342118249
21
74.594604099228803
31
4.0905876560020288e-10
0
LINE
5
134
100
AcDbEntity
8
BEND_EXTENT
100
AcDbLine
10
5.0000000000656541
20
16.332657388669407
30
8.152404266161134e-11
11
5.0000000000611067
21
72.191236032450462
31
3.8970943073479952e-10
0
LINE
5
135
100
AcDbEntity
8
BEND_EXTENT
100
AcDbLine
10
669.52389342118511
20
13.929289321903253
30
6.4874770192164582e-11
11
669.5238934211759
21
-3.8484770925606426e-11
31
-1.1510792319530306e-11
0
ENDSEC
0
SECTION
2
OBJECTS
0
DICTIONARY
5
C
100
AcDbDictionary
3
ACAD_GROUP
350
D
3
ACAD_MLINESTYLE
350
17
0
DICTIONARY
5
D
100
AcDbDictionary
0
DICTIONARY
5
1A
330
C
100
AcDbDictionary
0
DICTIONARY
5
17
100
AcDbDictionary
0
ENDSEC
0
EOF
