0
SECTION
2
HEADER
9
$INSUNITS
70
4
9
$ACADVER
1
AC1014
9
$HANDSEED
5
FFFF
0
ENDSEC
0
SECTION
2
TABLES
0
TABLE
2
VPORT
5
8
100
AcDbSymbolTable
0
ENDTAB
0
TABLE
2
LTYPE
5
5
100
AcDbSymbolTable
0
LTYPE
5
14
100
AcDbSymbolTableRecord
100
AcDbLinetypeTableRecord
2
BYBLOCK
70
0
0
LTYPE
5
15
100
AcDbSymbolTableRecord
100
AcDbLinetypeTableRecord
2
BYLAYER
70
0
0
LTYPE
5
16
100
AcDbSymbolTableRecord
100
AcDbLinetypeTableRecord
2
DASHED
70
0
3
Dashed __ __ __ __ __ __ __ __ __ __ __ __ __ _
72
65
73
2
40
0.75
49
0.5
74
0
49
-0.25
74
0
0
ENDTAB
0
TABLE
2
LAYER
5
2
100
AcDbSymbolTable
70
2
0
LAYER
5
50
100
AcDbSymbolTableRecord
100
AcDbLayerTableRecord
2
0
70
0
62
7
6
CONTINUOUS
0
ENDTAB
0
TABLE
2
STYLE
5
3
100
AcDbSymbolTable
70
1
0
STYLE
5
11
100
AcDbSymbolTableRecord
100
AcDbTextStyleTableRecord
2
STANDARD
70
0
0
ENDTAB
0
TABLE
2
VIEW
5
6
100
AcDbSymbolTable
70
0
0
ENDTAB
0
TABLE
2
UCS
5
7
100
AcDbSymbolTable
70
0
0
ENDTAB
0
TABLE
2
APPID
5
9
100
AcDbSymbolTable
70
2
0
APPID
5
12
100
AcDbSymbolTableRecord
100
AcDbRegAppTableRecord
2
ACAD
70
0
0
ENDTAB
0
TABLE
2
DIMSTYLE
5
A
100
AcDbSymbolTable
70
1
0
ENDTAB
0
TABLE
2
BLOCK_RECORD
5
1
100
AcDbSymbolTable
70
1
0
BLOCK_RECORD
5
1F
100
AcDbSymbolTableRecord
100
AcDbBlockTableRecord
2
*MODEL_SPACE
0
BLOCK_RECORD
5
1B
100
AcDbSymbolTableRecord
100
AcDbBlockTableRecord
2
*PAPER_SPACE
0
ENDTAB
0
ENDSEC
0
SECTION
2
BLOCKS
0
BLOCK
5
20
100
AcDbEntity
100
AcDbBlockBegin
2
*MODEL_SPACE
0
ENDBLK
5
21
100
AcDbEntity
100
AcDbBlockEnd
0
BLOCK
5
1C
100
AcDbEntity
100
AcDbBlockBegin
2
*PAPER_SPACE
0
ENDBLK
5
1D
100
AcDbEntity
100
AcDbBlockEnd
0
ENDSEC
0
SECTION
2
ENTITIES
0
ARC
5
100
100
AcDbEntity
8
OUTER_PROFILES
100
AcDbCircle
10
2.8570923404913628e-10
20
174.04778684234117
30
0
40
1.9999999999999998
210
-0
220
0
230
-1
100
AcDbArc
50
0
51
89.999999999865096
0
LINE
5
101
100
AcDbEntity
8
OUTER_PROFILES
100
AcDbLine
10
-2.9041847849506623e-10
20
176.04778684234117
30
0
11
1191.999999999709
21
176.04778684500496
31
0
0
ARC
5
102
100
AcDbEntity
8
OUTER_PROFILES
100
AcDbCircle
10
-1191.9999999997135
20
174.04778684500496
30
0
40
1.9999999999999929
210
0
220
0
230
-1
100
AcDbArc
50
89.999999999869729
51
180
0
LINE
5
103
100
AcDbEntity
8
OUTER_PROFILES
100
AcDbLine
10
1193.9999999997135
20
174.0477868450094
30
0
11
1193.9999999997092
21
162.04764817171139
31
0
0
ARC
5
104
100
AcDbEntity
8
OUTER_PROFILES
100
AcDbCircle
10
-1191.455499999709
20
162.04764817171468
30
0
40
2.5445000000000562
210
0
220
-0
230
-1
100
AcDbArc
50
180
51
257.37328903957484
0
ELLIPSE
5
105
100
AcDbEntity
8
OUTER_PROFILES
100
AcDbEllipse
10
1193.9999999996203
20
143.7858401344256
30
0
11
4.0450550486720117e-11
21
-16
31
0.0
40
0.75000000000000011
41
3.3080500344724282
42
4.7123889803844712
0
LINE
5
106
100
AcDbEntity
8
OUTER_PROFILES
100
AcDbLine
10
1181.9999999996203
20
143.78584013439877
30
0
11
1181.9999999997733
21
88.523893423813718
31
0
0
LINE
5
107
100
AcDbEntity
8
OUTER_PROFILES
100
AcDbLine
10
1181.9999999997733
20
88.523893423813718
30
0
11
1181.999999999894
21
34.523893421167841
31
0
0
LINE
5
108
100
AcDbEntity
8
OUTER_PROFILES
100
AcDbLine
10
1181.999999999894
20
34.523893421167841
30
0
11
1181.9999999999266
21
32.261946710582954
31
0
0
ELLIPSE
5
109
100
AcDbEntity
8
OUTER_PROFILES
100
AcDbEllipse
10
1193.9999999999263
20
32.261946710582954
30
0
11
4.6949011917093408e-12
21
16
31
0.0
40
0.75000000000000011
41
1.5707963267951168
42
2.975135272698556
0
ARC
5
110
100
AcDbEntity
8
OUTER_PROFILES
100
AcDbCircle
10
-1191.4554999999266
20
14.000138673291648
30
0
40
2.5445000000248714
210
0
220
0
230
-1
100
AcDbArc
50
102.62671096081391
51
180
0
LINE
5
111
100
AcDbEntity
8
OUTER_PROFILES
100
AcDbLine
10
1193.9999999999293
20
14.000000000000039
30
0
11
1193.9999999999291
21
2.0000000000000107
31
0
0
ARC
5
112
100
AcDbEntity
8
OUTER_PROFILES
100
AcDbCircle
10
-1191.9999999999293
20
2.0000000000000373
30
0
40
1.9999999999998863
210
0
220
0
230
-1
100
AcDbArc
50
180
51
270.00000000000648
0
LINE
5
113
100
AcDbEntity
8
OUTER_PROFILES
100
AcDbLine
10
1191.9999999999291
20
3.7192471324942744e-14
30
0
11
410.99999999989006
21
5.1934900824335273e-10
31
0
0
LINE
5
114
100
AcDbEntity
8
OUTER_PROFILES
100
AcDbLine
10
410.99999999989006
20
5.1934900824335273e-10
30
0
11
410.99999999992906
21
34.523893421167863
31
0
0
LINE
5
115
100
AcDbEntity
8
OUTER_PROFILES
100
AcDbLine
10
410.99999999992906
20
34.523893421167863
30
0
11
397.23805328944189
21
34.523893421135142
31
0
0
LINE
5
116
100
AcDbEntity
8
OUTER_PROFILES
100
AcDbLine
10
397.23805328944189
20
34.523893421135142
30
0
11
397.23805328924288
21
106.02389342071218
31
0
0
LINE
5
117
100
AcDbEntity
8
OUTER_PROFILES
100
AcDbLine
10
397.23805328924288
20
106.02389342071218
30
0
11
408.73805328911345
21
117.52389342064676
31
0
0
LINE
5
118
100
AcDbEntity
8
OUTER_PROFILES
100
AcDbLine
10
408.73805328911345
20
117.52389342064676
30
0
11
410.9999999996981
21
117.52389342065307
31
0
0
LINE
5
119
100
AcDbEntity
8
OUTER_PROFILES
100
AcDbLine
10
410.9999999996981
20
117.52389342065307
30
0
11
410.99999999968975
21
120.523893420653
31
0
0
LINE
5
120
100
AcDbEntity
8
OUTER_PROFILES
100
AcDbLine
10
410.99999999968975
20
120.523893420653
30
0
11
407.99999999968969
21
120.52389342064465
31
0
0
LINE
5
121
100
AcDbEntity
8
OUTER_PROFILES
100
AcDbLine
10
407.99999999968969
20
120.52389342064465
30
0
11
407.999999999696
21
118.26194671006
31
0
0
LINE
5
122
100
AcDbEntity
8
OUTER_PROFILES
100
AcDbLine
10
407.999999999696
20
118.26194671006
30
0
11
396.49999999982549
21
106.76194671012546
31
0
0
LINE
5
123
100
AcDbEntity
8
OUTER_PROFILES
100
AcDbLine
10
396.49999999982549
20
106.76194671012546
30
0
11
98.499999999630816
21
106.76194670929613
31
0
0
LINE
5
124
100
AcDbEntity
8
OUTER_PROFILES
100
AcDbLine
10
98.499999999630816
20
106.76194670929613
30
0
11
86.9999999996962
21
118.26194670916666
31
0
0
LINE
5
125
100
AcDbEntity
8
OUTER_PROFILES
100
AcDbLine
10
86.9999999996962
20
118.26194670916666
30
0
11
86.999999999690232
21
120.42198499895761
31
0
0
LINE
5
126
100
AcDbEntity
8
OUTER_PROFILES
100
AcDbLine
10
86.999999999690232
20
120.42198499895761
30
0
11
84.212132034046192
21
120.42198499894987
31
0
0
SPLINE
5
127
100
AcDbEntity
8
OUTER_PROFILES
100
AcDbSpline
70
0
71
3
72
8
73
4
74
0
42
0.000000001
43
0.0000000001
44
0.0000000001
40
-1.6415660634571838
40
-1.6415660634571838
40
-1.6415660634571838
40
-1.6415660634571838
40
-1.5707963267948966
40
-1.5707963267948966
40
-1.5707963267948966
40
-1.5707963267948966
10
84.212132034046164
20
120.42198499894987
30
0
10
84.165068297566918
20
120.45595447254766
30
0
10
84.117890502250091
20
120.48992394614542
30
0
10
84.070710677808449
20
120.52389341974317
30
0
0
LINE
5
128
100
AcDbEntity
8
OUTER_PROFILES
100
AcDbLine
10
84.070710677808449
20
120.52389341974317
30
0
11
83.999999999689692
21
120.52389341974298
31
0
0
LINE
5
129
100
AcDbEntity
8
OUTER_PROFILES
100
AcDbLine
10
83.999999999689692
20
120.52389341974298
30
0
11
83.999999999698503
21
117.45318274162423
31
0
0
LINE
5
130
100
AcDbEntity
8
OUTER_PROFILES
100
AcDbLine
10
83.999999999698503
20
117.45318274162423
30
0
11
86.26194671025722
21
117.45318274163117
31
0
0
LINE
5
131
100
AcDbEntity
8
OUTER_PROFILES
100
AcDbLine
10
86.26194671025722
20
117.45318274163117
30
0
11
97.761946710195033
21
105.9531827417639
31
0
0
LINE
5
132
100
AcDbEntity
8
OUTER_PROFILES
100
AcDbLine
10
97.761946710195033
20
105.9531827417639
30
0
11
97.761946710413923
21
34.523893420444693
31
0
0
LINE
5
133
100
AcDbEntity
8
OUTER_PROFILES
100
AcDbLine
10
97.761946710413923
20
34.523893420444693
30
0
11
83.999999999929145
21
34.52389342116782
31
0
0
LINE
5
134
100
AcDbEntity
8
OUTER_PROFILES
100
AcDbLine
10
83.999999999929145
20
34.52389342116782
30
0
11
83.999999999932129
21
32.261946710582961
31
0
0
LINE
5
135
100
AcDbEntity
8
OUTER_PROFILES
100
AcDbLine
10
83.999999999932129
20
32.261946710582961
30
0
11
83.999999999931916
21
16.261946710582951
31
0
0
LINE
5
136
100
AcDbEntity
8
OUTER_PROFILES
100
AcDbLine
10
83.999999999931916
20
16.261946710582951
30
0
11
83.999999999890065
21
1.4238032974844828e-09
31
0
0
LINE
5
137
100
AcDbEntity
8
OUTER_PROFILES
100
AcDbLine
10
83.999999999890065
20
1.4238032974844828e-09
30
0
11
1.7763568394002505e-14
21
-7.2164496600635175e-15
31
0
0
ARC
5
138
100
AcDbEntity
8
OUTER_PROFILES
100
AcDbCircle
10
-1.4210854715202004e-13
20
1.9999999999999929
30
0
40
2
210
-0
220
0
230
-1
100
AcDbArc
50
-89.999999999996433
51
0
0
LINE
5
139
100
AcDbEntity
8
OUTER_PROFILES
100
AcDbLine
10
-1.9999999999998579
20
2.0000000000000213
30
0
11
-1.9999999999996021
21
14.000000000000021
31
0
0
ARC
5
140
100
AcDbEntity
8
OUTER_PROFILES
100
AcDbCircle
10
-0.54449999999725662
20
14.000138673292369
30
0
40
2.5444999999999993
210
0
220
0
230
-1
100
AcDbArc
50
0
51
77.373289039013116
0
ELLIPSE
5
141
100
AcDbEntity
8
OUTER_PROFILES
100
AcDbEllipse
10
-2.0000000000025864
20
32.261946710582961
30
0
11
4.6950130159736807e-12
21
-16
31
0.0
40
0.75000000000000011
41
0.16645738089080808
42
1.5707963268136038
0
LINE
5
142
100
AcDbEntity
8
OUTER_PROFILES
100
AcDbLine
10
9.9999999999974154
20
32.261946710885809
30
0
11
9.9999999999650413
21
34.523893421167848
31
0
0
LINE
5
143
100
AcDbEntity
8
OUTER_PROFILES
100
AcDbLine
10
9.9999999999650413
20
34.523893421167848
30
0
11
9.999999999844178
21
88.523893421194643
31
0
0
LINE
5
144
100
AcDbEntity
8
OUTER_PROFILES
100
AcDbLine
10
9.999999999844178
20
88.523893421194643
30
0
11
9.9999999996908429
21
143.78584013177621
31
0
0
ELLIPSE
5
145
100
AcDbEntity
8
OUTER_PROFILES
100
AcDbEllipse
10
-2.0000000003090435
20
143.78584013175285
30
0
11
-3.1060636279037081e-11
21
16
31
0.0
40
0.75000000000000011
41
4.7123889803846932
42
6.1167279262843532
0
ARC
5
146
100
AcDbEntity
8
OUTER_PROFILES
100
AcDbCircle
10
-0.54449999970998419
20
162.04764816901087
30
0
40
2.5444999999999718
210
-0
220
0
230
-1
100
AcDbArc
50
282.62671096110518
51
360
0
LINE
5
147
100
AcDbEntity
8
OUTER_PROFILES
100
AcDbLine
10
-2.000000000290016
20
162.04764816899601
30
0
11
-2.0000000002857092
21
174.04778684233673
31
0
0
CIRCLE
5
148
100
AcDbEntity
8
INTERIOR_PROFILES
100
AcDbCircle
10
-584.68624999993858
20
41.927903597070895
30
0
40
1.7000000000000171
210
0
220
0
230
-1
0
CIRCLE
5
149
100
AcDbEntity
8
INTERIOR_PROFILES
100
AcDbCircle
10
-607.31374999982927
20
81.119883245398725
30
0
40
1.7000000000000171
210
0
220
0
230
-1
0
CIRCLE
5
150
100
AcDbEntity
8
INTERIOR_PROFILES
100
AcDbCircle
10
-584.68624999982933
20
81.119883245335672
30
0
40
1.7000000000000171
210
0
220
0
230
-1
0
CIRCLE
5
151
100
AcDbEntity
8
INTERIOR_PROFILES
100
AcDbCircle
10
-618.62749999988398
20
61.523893421297885
30
0
40
1.7000000000000171
210
0
220
0
230
-1
0
CIRCLE
5
152
100
AcDbEntity
8
INTERIOR_PROFILES
100
AcDbCircle
10
-607.31374999993864
20
41.927903597133955
30
0
40
1.7000000000000171
210
0
220
0
230
-1
0
CIRCLE
5
153
100
AcDbEntity
8
INTERIOR_PROFILES
100
AcDbCircle
10
-17.37249999973649
20
114.52389341962149
30
0
40
1.6999999999999993
210
0
220
0
230
-1
0
CIRCLE
5
154
100
AcDbEntity
8
INTERIOR_PROFILES
100
AcDbCircle
10
-1140.6862499998294
20
81.119883246885877
30
0
40
1.7000000000000171
210
0
220
0
230
-1
0
CIRCLE
5
155
100
AcDbEntity
8
INTERIOR_PROFILES
100
AcDbCircle
10
-28.686249999791329
20
94.927903595520661
30
0
40
1.6999999999999993
210
0
220
0
230
-1
0
CIRCLE
5
156
100
AcDbEntity
8
INTERIOR_PROFILES
100
AcDbCircle
10
-39.999999999799556
20
91.896393419684586
30
0
40
1.6999999999999993
210
0
220
0
230
-1
0
CIRCLE
5
157
100
AcDbEntity
8
INTERIOR_PROFILES
100
AcDbCircle
10
-1151.999999999947
20
38.896393422785039
30
0
40
1.7000000000000171
210
0
220
0
230
-1
0
CIRCLE
5
158
100
AcDbEntity
8
INTERIOR_PROFILES
100
AcDbCircle
10
-1163.3137499999389
20
41.927903598684217
30
0
40
1.7000000000000171
210
0
220
0
230
-1
0
CIRCLE
5
159
100
AcDbEntity
8
INTERIOR_PROFILES
100
AcDbCircle
10
-1163.3137499998293
20
81.119883246948987
30
0
40
1.7000000000000171
210
0
220
0
230
-1
0
CIRCLE
5
160
100
AcDbEntity
8
INTERIOR_PROFILES
100
AcDbCircle
10
-595.99999999982083
20
84.151393421234786
30
0
40
1.7000000000000171
210
0
220
0
230
-1
0
CIRCLE
5
161
100
AcDbEntity
8
INTERIOR_PROFILES
100
AcDbCircle
10
-573.37249999988398
20
61.523893421171714
30
0
40
1.7000000000000171
210
0
220
0
230
-1
0
CIRCLE
5
162
100
AcDbEntity
8
INTERIOR_PROFILES
100
AcDbCircle
10
-595.99999999994714
20
38.896393421234812
30
0
40
1.7000000000000171
210
0
220
0
230
-1
0
CIRCLE
5
163
100
AcDbEntity
8
INTERIOR_PROFILES
100
AcDbCircle
10
-94.76194671019411
20
97.773893419843716
30
0
40
1.6999999999999993
210
0
220
0
230
-1
0
CIRCLE
5
164
100
AcDbEntity
8
INTERIOR_PROFILES
100
AcDbCircle
10
-355.83333333305296
20
109.76194670991482
30
0
40
1.6999999999999993
210
0
220
0
230
-1
0
CIRCLE
5
165
100
AcDbEntity
8
INTERIOR_PROFILES
100
AcDbCircle
10
-94.761946710327408
20
54.273893419843716
30
0
40
1.6999999999999993
210
0
220
0
230
-1
0
CIRCLE
5
166
100
AcDbEntity
8
INTERIOR_PROFILES
100
AcDbCircle
10
-400.23805328941478
20
54.273893420690982
30
0
40
1.6999999999999993
210
0
220
0
230
-1
0
CIRCLE
5
167
100
AcDbEntity
8
INTERIOR_PROFILES
100
AcDbCircle
10
-400.23805328929376
20
97.773893420690982
30
0
40
1.6999999999999993
210
0
220
0
230
-1
0
CIRCLE
5
168
100
AcDbEntity
8
INTERIOR_PROFILES
100
AcDbCircle
10
-139.16666666638622
20
109.76194670931184
30
0
40
1.6999999999999993
210
0
220
0
230
-1
0
CIRCLE
5
169
100
AcDbEntity
8
INTERIOR_PROFILES
100
AcDbCircle
10
-247.49999999971959
20
109.76194670961334
30
0
40
1.6999999999999993
210
0
220
0
230
-1
0
SPLINE
5
170
100
AcDbEntity
8
INTERIOR_PROFILES
100
AcDbSpline
70
0
71
3
72
11
73
7
74
0
42
0.000000001
43
0.0000000001
44
0.0000000001
40
0.3159180455942589
40
0.3159180455942589
40
0.3159180455942589
40
0.3159180455942589
40
0.50001066400792493
40
0.50001066400792493
40
0.50001066400792493
40
0.62030149141740776
40
0.62030149141740776
40
0.62030149141740776
40
0.62030149141740776
10
647.37477270829004
20
13.999999999999995
30
0
10
646.99085089501614
20
14.380019766256829
30
0
10
646.31394127158558
20
14.587617100775725
30
0
10
645.66946515064251
20
14.490045215461063
30
0
10
645.24834796244704
20
14.426289248939742
30
0
10
644.8760916281567
20
14.248314639168536
30
0
10
644.62522729162197
20
14.000000000000007
30
0
0
ARC
5
171
100
AcDbEntity
8
INTERIOR_PROFILES
100
AcDbCircle
10
-645.99999999995612
20
12.999999999790051
30
0
40
1.6999999999998581
210
0
220
0
230
-1
100
AcDbArc
50
-216.03187908122266
51
36.031879081222996
0
ARC
5
172
100
AcDbEntity
8
INTERIOR_PROFILES
100
AcDbCircle
10
-795.99999999995634
20
12.999999999372612
30
0
40
1.6999999999999522
210
0
220
0
230
-1
100
AcDbArc
50
-216.031879098621
51
36.031879098619129
0
SPLINE
5
173
100
AcDbEntity
8
INTERIOR_PROFILES
100
AcDbSpline
70
0
71
3
72
11
73
7
74
0
42
0.000000001
43
0.0000000001
44
0.0000000001
40
0.31591804559570058
40
0.31591804559570058
40
0.31591804559570058
40
0.31591804559570058
40
0.50001066402388961
40
0.50001066402388961
40
0.50001066402388961
40
0.62030149131777657
40
0.62030149131777657
40
0.62030149131777657
40
0.62030149131777657
10
797.37477270798649
20
14.000000000000007
30
0
10
796.99085089450477
20
14.380019766219828
30
0
10
796.31394127093949
20
14.587617100559509
30
0
10
795.66946514995618
20
14.490045215038307
30
0
10
795.24834796217215
20
14.426289248448327
30
0
10
794.87609162833542
20
14.248314638886148
30
0
10
794.62522729192585
20
13.999999999999989
30
0
0
ARC
5
174
100
AcDbEntity
8
INTERIOR_PROFILES
100
AcDbCircle
10
-695.99999999995612
20
12.999999999650909
30
0
40
1.7000000000000048
210
0
220
0
230
-1
100
AcDbArc
50
-216.03187908701912
51
36.031879087026816
0
SPLINE
5
175
100
AcDbEntity
8
INTERIOR_PROFILES
100
AcDbSpline
70
0
71
3
72
11
73
7
74
0
42
0.000000001
43
0.0000000001
44
0.0000000001
40
0.31591804559473907
40
0.31591804559473907
40
0.31591804559473907
40
0.31591804559473907
40
0.50001066401322447
40
0.50001066401322447
40
0.50001066401322447
40
0.6203014913841981
40
0.6203014913841981
40
0.6203014913841981
40
0.6203014913841981
10
697.37477270818886
20
14.000000000000021
30
0
10
696.99085089484572
20
14.380019766244496
30
0
10
696.31394127137037
20
14.587617100703605
30
0
10
695.669465150414
20
14.490045215320189
30
0
10
695.24834796235564
20
14.426289248776021
30
0
10
694.87609162821627
20
14.248314639074442
30
0
10
694.62522729172338
20
14.000000000000018
30
0
0
ARC
5
176
100
AcDbEntity
8
INTERIOR_PROFILES
100
AcDbCircle
10
-1160.9999999999293
20
12.999999998376968
30
0
40
1.700000000000045
210
0
220
0
230
-1
100
AcDbArc
50
-216.03187914011056
51
36.031879140117518
0
SPLINE
5
177
100
AcDbEntity
8
INTERIOR_PROFILES
100
AcDbSpline
70
0
71
3
72
11
73
7
74
0
42
0.000000001
43
0.0000000001
44
0.0000000001
40
0.31591804559912945
40
0.31591804559912945
40
0.31591804559912945
40
0.31591804559912945
40
0.50001066406261385
40
0.50001066406261385
40
0.50001066406261385
40
0.6203014910801613
40
0.6203014910801613
40
0.6203014910801613
40
0.6203014910801613
10
1162.3747727072353
20
13.999999999999989
30
0
10
1161.9908508932569
20
14.380019766132687
30
0
10
1161.3139412693665
20
14.587617100045128
30
0
10
1160.6694651482851
20
14.490045214028978
30
0
10
1160.2483479614855
20
14.42628924727428
30
0
10
1159.8760916287326
20
14.248314638211275
30
0
10
1159.6252272926229
20
14.000000000000018
30
0
0
ARC
5
178
100
AcDbEntity
8
INTERIOR_PROFILES
100
AcDbCircle
10
-1095.9999999999563
20
12.999999998537719
30
0
40
1.6999999999999968
210
0
220
0
230
-1
100
AcDbArc
50
-216.03187913341424
51
36.031879133419572
0
SPLINE
5
179
100
AcDbEntity
8
INTERIOR_PROFILES
100
AcDbSpline
70
0
71
3
72
11
73
7
74
0
42
0.000000001
43
0.0000000001
44
0.0000000001
40
0.31591804559858266
40
0.31591804559858266
40
0.31591804559858266
40
0.31591804559858266
40
0.50001066405416128
40
0.50001066405416128
40
0.50001066405416128
40
0.62030149111850952
40
0.62030149111850952
40
0.62030149111850952
40
0.62030149111850952
10
1097.374772707379
20
14.000000000000007
30
0
10
1096.9908508934855
20
14.380019766142173
30
0
10
1096.3139412696594
20
14.587617100123589
30
0
10
1095.6694651486007
20
14.490045214195435
30
0
10
1095.248347961634
20
14.426289247470683
30
0
10
1094.8760916286953
20
14.248314638324761
30
0
10
1094.6252272925328
20
14.000000000000048
30
0
0
ARC
5
180
100
AcDbEntity
8
INTERIOR_PROFILES
100
AcDbCircle
10
-595.99999999995612
20
12.999999999929205
30
0
40
1.7000000000000117
210
0
220
0
230
-1
100
AcDbArc
50
-216.03187907542008
51
36.031879075426318
0
SPLINE
5
181
100
AcDbEntity
8
INTERIOR_PROFILES
100
AcDbSpline
70
0
71
3
72
11
73
7
74
0
42
0.000000001
43
0.0000000001
44
0.0000000001
40
0.31591804559377978
40
0.31591804559377978
40
0.31591804559377978
40
0.31591804559377978
40
0.50001066400285632
40
0.50001066400285632
40
0.50001066400285632
40
0.62030149145061864
40
0.62030149145061864
40
0.62030149145061864
40
0.62030149145061864
10
597.37477270839133
20
14.000000000000036
30
0
10
596.99085089518599
20
14.380019766269694
30
0
10
596.31394127179919
20
14.587617100848341
30
0
10
595.66946515086875
20
14.490045215601604
30
0
10
595.24834796253697
20
14.426289249102787
30
0
10
594.87609162809679
20
14.248314639262233
30
0
10
594.6252272915209
20
14.00000000000003
30
0
0
SPLINE
5
182
100
AcDbEntity
8
INTERIOR_PROFILES
100
AcDbSpline
70
0
71
3
72
11
73
7
74
0
42
0.000000001
43
0.0000000001
44
0.0000000001
40
0.31591804559870001
40
0.31591804559870001
40
0.31591804559870001
40
0.31591804559870001
40
0.50001066405379702
40
0.50001066405379702
40
0.50001066405379702
40
0.62030149111070221
40
0.62030149111070221
40
0.62030149111070221
40
0.62030149111070221
10
1116.3747727073282
20
13.999999999999989
30
0
10
1115.990850893422
20
14.380019766135783
30
0
10
1115.3139412695932
20
14.587617100103213
30
0
10
1114.6694651485368
20
14.490045214164864
30
0
10
1114.2483479615967
20
14.426289247437229
30
0
10
1113.8760916286858
20
14.248314638305803
30
0
10
1113.6252272925296
20
14.00000000000003
30
0
0
ARC
5
183
100
AcDbEntity
8
INTERIOR_PROFILES
100
AcDbCircle
10
-1114.9999999999293
20
12.999999998504986
30
0
40
1.6999999999997062
210
0
220
0
230
-1
100
AcDbArc
50
-216.03187913478379
51
36.031879134775892
0
SPLINE
5
184
100
AcDbEntity
8
INTERIOR_PROFILES
100
AcDbSpline
70
0
71
3
72
11
73
7
74
0
42
0.000000001
43
0.0000000001
44
0.0000000001
40
0.31591804559713732
40
0.31591804559713732
40
0.31591804559713732
40
0.31591804559713732
40
0.50001066403918892
40
0.50001066403918892
40
0.50001066403918892
40
0.62030149121814426
40
0.62030149121814426
40
0.62030149121814426
40
0.62030149121814426
10
947.37477270768272
20
13.999999999999968
30
0
10
946.99085089399478
20
14.380019766181341
30
0
10
946.31394127029819
20
14.587617100341905
30
0
10
945.66946514927668
20
14.490045214616591
30
0
10
945.24834796190191
20
14.426289247958959
30
0
10
944.87609162851504
20
14.248314638605262
30
0
10
944.62522729222928
20
14.000000000000043
30
0
0
ARC
5
185
100
AcDbEntity
8
INTERIOR_PROFILES
100
AcDbCircle
10
-945.99999999995612
20
12.999999998955145
30
0
40
1.6999999999997875
210
0
220
0
230
-1
100
AcDbArc
50
-216.03187911601813
51
36.031879116017905
0
SPLINE
5
186
100
AcDbEntity
8
INTERIOR_PROFILES
100
AcDbSpline
70
0
71
3
72
11
73
7
74
0
42
0.000000001
43
0.0000000001
44
0.0000000001
40
0.31591804559617875
40
0.31591804559617875
40
0.31591804559617875
40
0.31591804559617875
40
0.50001066402832195
40
0.50001066402832195
40
0.50001066402832195
40
0.62030149128456324
40
0.62030149128456324
40
0.62030149128456324
40
0.62030149128456324
10
847.37477270788531
20
14.000000000000004
30
0
10
846.99085089433629
20
14.380019766205642
30
0
10
846.31394127073077
20
14.587617100485614
30
0
10
845.66946514973665
20
14.490045214898801
30
0
10
845.24834796208665
20
14.426289248287269
30
0
10
844.87609162839658
20
14.248314638793783
30
0
10
844.62522729202703
20
14.000000000000007
30
0
0
ARC
5
187
100
AcDbEntity
8
INTERIOR_PROFILES
100
AcDbCircle
10
-845.99999999995634
20
12.999999999233459
30
0
40
1.6999999999998572
210
0
220
0
230
-1
100
AcDbArc
50
-216.03187910442153
51
36.031879104417108
0
SPLINE
5
188
100
AcDbEntity
8
INTERIOR_PROFILES
100
AcDbSpline
70
0
71
3
72
11
73
7
74
0
42
0.000000001
43
0.0000000001
44
0.0000000001
40
0.31591804559944348
40
0.31591804559944348
40
0.31591804559944348
40
0.31591804559944348
40
0.50001066406338923
40
0.50001066406338923
40
0.50001066406338923
40
0.62030149105803445
40
0.62030149105803445
40
0.62030149105803445
40
0.62030149105803445
10
1188.3747727071657
20
13.999999999999918
30
0
10
1187.9908508931471
20
14.380019766118703
30
0
10
1187.3139412692417
20
14.587617099991423
30
0
10
1186.6694651481598
20
14.490045213939521
30
0
10
1186.2483479614409
20
14.426289247173752
30
0
10
1185.8760916287756
20
14.248314638154156
30
0
10
1185.6252272926881
20
14.000000000000007
30
0
0
ARC
5
189
100
AcDbEntity
8
INTERIOR_PROFILES
100
AcDbCircle
10
-1186.9999999999272
20
12.999999998284327
30
0
40
1.6999999999997171
210
0
220
0
230
-1
100
AcDbArc
50
-216.03187914397853
51
36.03187914397197
0
ARC
5
190
100
AcDbEntity
8
INTERIOR_PROFILES
100
AcDbCircle
10
-495.99999999995634
20
13.000000000207468
30
0
40
1.6999999999999817
210
0
220
0
230
-1
100
AcDbArc
50
-216.03187906382635
51
36.031879063825997
0
SPLINE
5
191
100
AcDbEntity
8
INTERIOR_PROFILES
100
AcDbSpline
70
0
71
3
72
11
73
7
74
0
42
0.000000001
43
0.0000000001
44
0.0000000001
40
0.31591804559281977
40
0.31591804559281977
40
0.31591804559281977
40
0.31591804559281977
40
0.50001066399309946
40
0.50001066399309946
40
0.50001066399309946
40
0.62030149151704173
40
0.62030149151704173
40
0.62030149151704173
40
0.62030149151704173
10
497.3747727085937
20
14.000000000000004
30
0
10
496.990850895525
20
14.380019766296215
30
0
10
496.31394127222342
20
14.58761710099431
30
0
10
495.66946515131696
20
14.490045215882006
30
0
10
495.24834796271421
20
14.426289249427612
30
0
10
494.87609162797611
20
14.248314639448733
30
0
10
494.62522729131848
20
14.000000000000004
30
0
0
SPLINE
5
192
100
AcDbEntity
8
INTERIOR_PROFILES
100
AcDbSpline
70
0
71
3
72
11
73
7
74
0
42
0.000000001
43
0.0000000001
44
0.0000000001
40
0.31591804559809716
40
0.31591804559809716
40
0.31591804559809716
40
0.31591804559809716
40
0.50001066404959926
40
0.50001066404959926
40
0.50001066404959926
40
0.62030149115172217
40
0.62030149115172217
40
0.62030149115172217
40
0.62030149115172217
10
1047.3747727074804
20
13.999999999999941
30
0
10
1046.9908508936546
20
14.380019766155968
30
0
10
1046.3139412698692
20
14.587617100197276
30
0
10
1045.6694651488215
20
14.490045214335098
30
0
10
1045.2483479617199
20
14.426289247632029
30
0
10
1044.8760916286346
20
14.248314638417451
30
0
10
1044.6252272924316
20
13.999999999999982
30
0
0
ARC
5
193
100
AcDbEntity
8
INTERIOR_PROFILES
100
AcDbCircle
10
-1045.9999999999561
20
12.999999998676849
30
0
40
1.6999999999998279
210
0
220
0
230
-1
100
AcDbArc
50
-216.03187912761445
51
36.031879127615589
0
SPLINE
5
194
100
AcDbEntity
8
INTERIOR_PROFILES
100
AcDbSpline
70
0
71
3
72
11
73
7
74
0
42
0.000000001
43
0.0000000001
44
0.0000000001
40
0.31591804558811387
40
0.31591804558811387
40
0.31591804558811387
40
0.31591804558811387
40
0.50001066394582383
40
0.50001066394582383
40
0.50001066394582383
40
0.62030149184314609
40
0.62030149184314609
40
0.62030149184314609
40
0.62030149184314609
10
6.3747727096163942
20
13.999999999999954
30
0
10
5.9908508972166885
20
14.380019766427843
30
0
10
5.3139412743305314
20
14.587617101712262
30
0
10
4.6694651535402443
20
14.490045217257808
30
0
10
4.2483479636087651
20
14.426289251020625
30
0
10
3.876091627410716
20
14.248314640363041
30
0
10
3.6252272903534788
20
13.999999999999977
30
0
0
ARC
5
195
100
AcDbEntity
8
INTERIOR_PROFILES
100
AcDbCircle
10
-4.9999999999851497
20
13.000000001573785
30
0
40
1.6999999999997575
210
0
220
0
230
-1
100
AcDbArc
50
-216.03187900688468
51
36.031879006876864
0
ARC
5
196
100
AcDbEntity
8
INTERIOR_PROFILES
100
AcDbCircle
10
-745.99999999995612
20
12.999999999511722
30
0
40
1.7000000000000379
210
0
220
0
230
-1
100
AcDbArc
50
-216.03187909281792
51
36.031879092825228
0
SPLINE
5
197
100
AcDbEntity
8
INTERIOR_PROFILES
100
AcDbSpline
70
0
71
3
72
11
73
7
74
0
42
0.000000001
43
0.0000000001
44
0.0000000001
40
0.31591804559521897
40
0.31591804559521897
40
0.31591804559521897
40
0.31591804559521897
40
0.50001066401882222
40
0.50001066401882222
40
0.50001066401882222
40
0.62030149135098955
40
0.62030149135098955
40
0.62030149135098955
40
0.62030149135098955
10
747.37477270808768
20
13.999999999999982
30
0
10
746.99085089467474
20
14.380019766232603
30
0
10
746.313941271153
20
14.587617100632077
30
0
10
745.6694651501823
20
14.490045215178785
30
0
10
745.24834796226219
20
14.426289248611305
30
0
10
744.87609162827528
20
14.248314638979735
30
0
10
744.62522729182456
20
13.999999999999954
30
0
0
ARC
5
198
100
AcDbEntity
8
INTERIOR_PROFILES
100
AcDbCircle
10
-995.99999999995612
20
12.999999998816016
30
0
40
1.6999999999999984
210
0
220
0
230
-1
100
AcDbArc
50
-216.03187912180999
51
36.031879121819735
0
SPLINE
5
199
100
AcDbEntity
8
INTERIOR_PROFILES
100
AcDbSpline
70
0
71
3
72
11
73
7
74
0
42
0.000000001
43
0.0000000001
44
0.0000000001
40
0.31591804559761388
40
0.31591804559761388
40
0.31591804559761388
40
0.31591804559761388
40
0.50001066404424988
40
0.50001066404424988
40
0.50001066404424988
40
0.62030149118492883
40
0.62030149118492883
40
0.62030149118492883
40
0.62030149118492883
10
997.37477270758154
20
13.999999999999982
30
0
10
996.99085089382493
20
14.38001976616837
30
0
10
996.31394127008457
20
14.587617100269256
30
0
10
995.66946514905067
20
14.490045214476126
30
0
10
995.24834796181244
20
14.426289247796049
30
0
10
994.87609162857495
20
14.24831463851142
30
0
10
994.62522729233058
20
14.000000000000021
30
0
0
SPLINE
5
200
100
AcDbEntity
8
INTERIOR_PROFILES
100
AcDbSpline
70
0
71
3
72
11
73
7
74
0
42
0.000000001
43
0.0000000001
44
0.0000000001
40
0.31591804559234032
40
0.31591804559234032
40
0.31591804559234032
40
0.31591804559234032
40
0.50001066398812144
40
0.50001066398812144
40
0.50001066398812144
40
0.62030149155025183
40
0.62030149155025183
40
0.62030149155025183
40
0.62030149155025183
10
447.37477270869499
20
14.000000000000018
30
0
10
446.99085089569451
20
14.380019766309488
30
0
10
446.3139412724363
20
14.587617101067146
30
0
10
445.66946515154211
20
14.490045216022427
30
0
10
445.24834796280345
20
14.426289249590397
30
0
10
444.87609162791591
20
14.248314639542246
30
0
10
444.62522729121724
20
14.00000000000003
30
0
0
ARC
5
201
100
AcDbEntity
8
INTERIOR_PROFILES
100
AcDbCircle
10
-445.99999999995634
20
13.000000000346654
30
0
40
1.6999999999998117
210
0
220
0
230
-1
100
AcDbArc
50
-216.03187905802881
51
36.031879058020152
0
ARC
5
202
100
AcDbEntity
8
INTERIOR_PROFILES
100
AcDbCircle
10
-30.999999999832752
20
12.999999999753085
30
0
40
1.7000000000000017
210
0
220
0
230
-1
100
AcDbArc
50
-216.0318790827607
51
36.031879082763183
0
SPLINE
5
203
100
AcDbEntity
8
INTERIOR_PROFILES
100
AcDbSpline
70
0
71
3
72
11
73
7
74
0
42
0.000000001
43
0.0000000001
44
0.0000000001
40
0.31591804559437692
40
0.31591804559437692
40
0.31591804559437692
40
0.31591804559437692
40
0.50001066400982241
40
0.50001066400982241
40
0.50001066400982241
40
0.62030149140858604
40
0.62030149140858604
40
0.62030149140858604
40
0.62030149140858604
10
32.374772708139545
20
13.999999999999982
30
0
10
31.990850894846119
20
14.380019766254506
30
0
10
31.313941271401049
20
14.587617100757564
30
0
10
30.66946515045295
20
14.49004521542285
30
0
10
30.248347962295838
20
14.426289248894722
30
0
10
29.876091628047945
20
14.248314639142556
30
0
10
29.625227291525391
20
14.000000000000007
30
0
0
ARC
5
204
100
AcDbEntity
8
INTERIOR_PROFILES
100
AcDbCircle
10
-76.999999999832696
20
12.999999999769042
30
0
40
1.6999999999999971
210
0
220
0
230
-1
100
AcDbArc
50
-216.03187908209543
51
36.031879082099913
0
SPLINE
5
205
100
AcDbEntity
8
INTERIOR_PROFILES
100
AcDbSpline
70
0
71
3
72
11
73
7
74
0
42
0.000000001
43
0.0000000001
44
0.0000000001
40
0.31591804559433789
40
0.31591804559433789
40
0.31591804559433789
40
0.31591804559433789
40
0.50001066400778926
40
0.50001066400778926
40
0.50001066400778926
40
0.62030149141239976
40
0.62030149141239976
40
0.62030149141239976
40
0.62030149141239976
10
78.374772708151141
20
13.999999999999982
30
0
10
77.990850894868586
20
14.380019766253028
30
0
10
77.313941271436448
20
14.587617100762891
30
0
10
76.669465150494318
20
14.490045215441292
30
0
10
76.248347962316032
20
14.426289248917946
30
0
10
75.87609162804398
20
14.248314639156302
30
0
10
75.625227291513681
20
14.000000000000021
30
0
0
SPLINE
5
206
100
AcDbEntity
8
INTERIOR_PROFILES
100
AcDbSpline
70
0
71
3
72
11
73
7
74
0
42
0.000000001
43
0.0000000001
44
0.0000000001
40
0.31591804559329922
40
0.31591804559329922
40
0.31591804559329922
40
0.31591804559329922
40
0.50001066399807059
40
0.50001066399807059
40
0.50001066399807059
40
0.62030149148383151
40
0.62030149148383151
40
0.62030149148383151
40
0.62030149148383151
10
547.37477270849251
20
13.999999999999995
30
0
10
546.99085089535527
20
14.38001976628315
30
0
10
546.31394127201065
20
14.587617100921527
30
0
10
545.6694651510918
20
14.490045215741659
30
0
10
545.24834796262485
20
14.42628924926491
30
0
10
544.87609162803631
20
14.248314639355343
30
0
10
544.62522729141961
20
14.000000000000018
30
0
0
ARC
5
207
100
AcDbEntity
8
INTERIOR_PROFILES
100
AcDbCircle
10
-545.99999999995612
20
13.00000000006834
30
0
40
1.6999999999999225
210
0
220
0
230
-1
100
AcDbArc
50
-216.0318790696235
51
36.031879069621887
0
CIRCLE
5
208
100
AcDbEntity
8
INTERIOR_PROFILES
100
AcDbCircle
10
-595.99999999996157
20
26.261946710582954
30
0
40
1.6999999999999993
210
0
220
0
230
-1
0
CIRCLE
5
209
100
AcDbEntity
8
INTERIOR_PROFILES
100
AcDbCircle
10
-1186.9999999995969
20
173.04778684593728
30
0
40
1.7000000000000171
210
0
220
0
230
-1
0
CIRCLE
5
210
100
AcDbEntity
8
INTERIOR_PROFILES
100
AcDbCircle
10
-4.9999999999283062
20
3.0000000015738548
30
0
40
1.7000000000000004
210
0
220
0
230
-1
0
CIRCLE
5
211
100
AcDbEntity
8
INTERIOR_PROFILES
100
AcDbCircle
10
-595.99999999964223
20
149.78584013308921
30
0
40
1.6999999999999993
210
0
220
0
230
-1
0
CIRCLE
5
212
100
AcDbEntity
8
INTERIOR_PROFILES
100
AcDbCircle
10
-670.99999999996157
20
26.261946710582954
30
0
40
1.6999999999999993
210
0
220
0
230
-1
0
CIRCLE
5
213
100
AcDbEntity
8
INTERIOR_PROFILES
100
AcDbCircle
10
-70.999999999642256
20
149.78584013191599
30
0
40
1.6999999999999993
210
0
220
0
230
-1
0
CIRCLE
5
214
100
AcDbEntity
8
INTERIOR_PROFILES
100
AcDbCircle
10
-4.9999999995968381
20
173.04778684394387
30
0
40
1.7000000000000004
210
0
220
0
230
-1
0
CIRCLE
5
215
100
AcDbEntity
8
INTERIOR_PROFILES
100
AcDbCircle
10
-670.99999999964223
20
149.78584013325684
30
0
40
1.6999999999999993
210
0
220
0
230
-1
0
CIRCLE
5
216
100
AcDbEntity
8
INTERIOR_PROFILES
100
AcDbCircle
10
-1186.9999999999284
20
2.9999999982843972
30
0
40
1.7000000000000171
210
0
220
0
230
-1
0
CIRCLE
5
217
100
AcDbEntity
8
INTERIOR_PROFILES
100
AcDbCircle
10
-39.999999999673435
20
137.15139341968455
30
0
40
1.6999999999999993
210
0
220
0
230
-1
0
CIRCLE
5
218
100
AcDbEntity
8
INTERIOR_PROFILES
100
AcDbCircle
10
-28.686249999681692
20
134.11988324378541
30
0
40
1.6999999999999993
210
0
220
0
230
-1
0
CIRCLE
5
219
100
AcDbEntity
8
INTERIOR_PROFILES
100
AcDbCircle
10
-39.999999999736602
20
114.52389341968457
30
0
40
1.6999999999999993
210
0
220
0
230
-1
0
CIRCLE
5
220
100
AcDbEntity
8
INTERIOR_PROFILES
100
AcDbCircle
10
-62.627499999736713
20
114.52389341974765
30
0
40
1.6999999999999993
210
0
220
0
230
-1
0
CIRCLE
5
221
100
AcDbEntity
8
INTERIOR_PROFILES
100
AcDbCircle
10
-520.99999999996169
20
26.261946710582972
30
0
40
1.6999999999999993
210
0
220
0
230
-1
0
CIRCLE
5
222
100
AcDbEntity
8
INTERIOR_PROFILES
100
AcDbCircle
10
-70.999999999962
20
26.261946710582968
30
0
40
1.6999999999999993
210
0
220
0
230
-1
0
CIRCLE
5
223
100
AcDbEntity
8
INTERIOR_PROFILES
100
AcDbCircle
10
-520.99999999964223
20
149.78584013292161
30
0
40
1.6999999999999993
210
0
220
0
230
-1
0
CIRCLE
5
224
100
AcDbEntity
8
INTERIOR_PROFILES
100
AcDbCircle
10
-51.313749999681804
20
134.11988324384853
30
0
40
1.6999999999999993
210
0
220
0
230
-1
0
CIRCLE
5
225
100
AcDbEntity
8
INTERIOR_PROFILES
100
AcDbCircle
10
-1129.372499999884
20
61.523893422721969
30
0
40
1.7000000000000171
210
0
220
0
230
-1
0
CIRCLE
5
226
100
AcDbEntity
8
INTERIOR_PROFILES
100
AcDbCircle
10
-51.31374999979144
20
94.927903595583757
30
0
40
1.6999999999999993
210
0
220
0
230
-1
0
CIRCLE
5
227
100
AcDbEntity
8
INTERIOR_PROFILES
100
AcDbCircle
10
-1120.9999999999618
20
26.261946710582961
30
0
40
1.6999999999999993
210
0
220
0
230
-1
0
CIRCLE
5
228
100
AcDbEntity
8
INTERIOR_PROFILES
100
AcDbCircle
10
-1120.9999999996423
20
149.78584013426246
30
0
40
1.6999999999999993
210
0
220
0
230
-1
0
CIRCLE
5
229
100
AcDbEntity
8
INTERIOR_PROFILES
100
AcDbCircle
10
-1151.9999999998208
20
84.15139342278502
30
0
40
1.7000000000000171
210
0
220
0
230
-1
0
CIRCLE
5
230
100
AcDbEntity
8
INTERIOR_PROFILES
100
AcDbCircle
10
-1174.6274999998841
20
61.523893422848147
30
0
40
1.7000000000000171
210
0
220
0
230
-1
0
CIRCLE
5
231
100
AcDbEntity
8
INTERIOR_PROFILES
100
AcDbCircle
10
-1140.686249999939
20
41.927903598621121
30
0
40
1.7000000000000171
210
0
220
0
230
-1
0
LINE
5
232
100
AcDbEntity
8
BEND
100
AcDbLine
10
1181.9999999996521
20
142.65486677910636
30
4.113376306236205e-13
11
9.9999999997233147
21
142.65486677648724
31
4.0731307215935431e-13
0
LINE
5
233
100
AcDbEntity
8
BEND
100
AcDbLine
10
409.86902664463679
20
34.523893421170293
30
4.241051954068098e-13
11
409.86902664440578
21
117.52389342064984
31
4.3284820172573291e-13
0
LINE
5
234
100
AcDbEntity
8
BEND
100
AcDbLine
10
1181.9999999999336
20
33.392920065875401
30
3.4403035975572038e-13
11
410.99999999993531
21
33.392920065875401
31
2.6034729927459921e-13
0
LINE
5
235
100
AcDbEntity
8
BEND
100
AcDbLine
10
83.999999999934545
20
15.130973355291491
30
-4.4728110104585994e-12
11
-1.7349063200754955
21
15.130973355291491
31
-1.6570771144142071e-09
0
LINE
5
236
100
AcDbEntity
8
BEND
100
AcDbLine
10
-1.7349063203852211
20
160.91681348704537
30
3.2717564768525165e-10
11
1193.7349063197887
21
160.9168134897169
31
-3.2573790886836207e-10
0
LINE
5
237
100
AcDbEntity
8
BEND
100
AcDbLine
10
1193.734906319999
20
15.130973355291498
30
1.6572927752367406e-09
11
410.99999999993474
21
15.130973355291498
31
4.4686476741162551e-13
0
LINE
5
238
100
AcDbEntity
8
BEND
100
AcDbLine
10
85.130973354980952
20
117.4531827416277
30
3.0537100625949165e-11
11
85.130973355235042
21
34.523893421165717
31
3.0524333061165976e-11
0
LINE
5
239
100
AcDbEntity
8
BEND
100
AcDbLine
10
407.99999999969282
20
119.39292006535233
30
4.125866315263238e-13
11
86.999999999693074
21
119.39292006445899
31
4.113376306236205e-13
0
LINE
5
240
100
AcDbEntity
8
BEND
100
AcDbLine
10
83.999999999935397
20
33.392920065876638
30
2.3925306180672123e-13
11
10
21
33.392920065876638
31
3.0600522116230877e-13
0
LINE
5
241
100
AcDbEntity
8
BEND_EXTENT
100
AcDbLine
10
407.999999999696
20
118.26194671006
30
4.0953351820860462e-13
11
86.9999999996962
21
118.26194670916666
31
4.0828451730590132e-13
0
LINE
5
242
100
AcDbEntity
8
BEND_EXTENT
100
AcDbLine
10
86.26194671025722
20
117.45318274163117
30
6.0751681463244722e-11
11
86.26194671051131
21
34.523893421169163
31
6.0680627189668712e-11
0
LINE
5
243
100
AcDbEntity
8
BEND_EXTENT
100
AcDbLine
10
408.73805328934446
20
34.523893421167145
30
5.3443360847893473e-13
11
408.73805328911345
21
117.52389342064674
31
5.3443360847893473e-13
0
LINE
5
244
100
AcDbEntity
8
BEND_EXTENT
100
AcDbLine
10
410.9999999996981
20
117.52389342065307
30
4.088396288182139e-13
11
410.99999999992906
21
34.52389342116787
31
4.100886297209172e-13
0
LINE
5
245
100
AcDbEntity
8
BEND_EXTENT
100
AcDbLine
10
410.99999999992906
20
34.52389342116787
30
4.100886297209172e-13
11
1181.999999999894
21
34.523893421167841
31
4.1300296516055823e-13
0
LINE
5
246
100
AcDbEntity
8
BEND_EXTENT
100
AcDbLine
10
84.070710677808478
20
120.52389341974317
30
4.1328052091671452e-13
11
407.99999999968969
21
120.52389342064465
31
4.1480707757557411e-13
0
LINE
5
247
100
AcDbEntity
8
BEND_EXTENT
100
AcDbLine
10
83.999999999929145
20
34.52389342116782
30
4.088396288182139e-13
11
83.999999999698503
21
117.45318274162422
31
3.9745984281580604e-13
0
LINE
5
248
100
AcDbEntity
8
BEND_EXTENT
100
AcDbLine
10
9.9999999999650413
20
34.523893421167848
30
4.0856207306205761e-13
11
83.999999999929145
21
34.52389342116782
31
4.088396288182139e-13
0
LINE
5
249
100
AcDbEntity
8
BEND_EXTENT
100
AcDbLine
10
9.9999999997258016
20
141.52389342119471
30
4.1300296516055823e-13
11
1181.9999999996257
21
141.52389342381383
31
4.1744385725905886e-13
0
LINE
5
250
100
AcDbEntity
8
BEND_EXTENT
100
AcDbLine
10
444.62522729121753
20
14.000000000000053
30
3.2807090377673376e-13
11
410.99999999992906
21
14.000000000000018
31
3.3015257194790593e-13
0
LINE
5
251
100
AcDbEntity
8
BEND_EXTENT
100
AcDbLine
10
494.62522729131865
20
14.000000000000039
30
3.2376878955631128e-13
11
447.37477270869528
21
14.00000000000003
31
3.2807090377673376e-13
0
LINE
5
252
100
AcDbEntity
8
BEND_EXTENT
100
AcDbLine
10
544.62522729141983
20
14.000000000000048
30
3.2182589926321725e-13
11
497.37477270859404
21
14.000000000000036
31
3.2376878955631128e-13
0
LINE
5
253
100
AcDbEntity
8
BEND_EXTENT
100
AcDbLine
10
594.62522729152101
20
14.000000000000071
30
3.1752378504279477e-13
11
547.37477270849263
21
14.000000000000043
31
3.2182589926321725e-13
0
LINE
5
254
100
AcDbEntity
8
BEND_EXTENT
100
AcDbLine
10
644.6252272916222
20
14.000000000000078
30
3.1322167082237229e-13
11
597.37477270839145
21
14.000000000000036
31
3.1752378504279477e-13
0
LINE
5
255
100
AcDbEntity
8
BEND_EXTENT
100
AcDbLine
10
694.62522729172349
20
14.000000000000057
30
3.1127878052927827e-13
11
647.37477270829015
21
14.000000000000048
31
3.1322167082237229e-13
0
LINE
5
256
100
AcDbEntity
8
BEND_EXTENT
100
AcDbLine
10
744.62522729182467
20
14.000000000000048
30
3.0697666630885578e-13
11
697.37477270818908
21
14.000000000000039
31
3.1127878052927827e-13
0
LINE
5
257
100
AcDbEntity
8
BEND_EXTENT
100
AcDbLine
10
794.62522729192585
20
14.000000000000053
30
3.0489499813768361e-13
11
747.3747727080879
21
14.000000000000053
31
3.0697666630885578e-13
0
LINE
5
258
100
AcDbEntity
8
BEND_EXTENT
100
AcDbLine
10
844.62522729202703
20
14.000000000000036
30
3.0073166179533928e-13
11
797.37477270798661
21
14.00000000000006
31
3.0489499813768361e-13
0
LINE
5
259
100
AcDbEntity
8
BEND_EXTENT
100
AcDbLine
10
944.62522729222974
20
14.000000000000075
30
2.9434787940374463e-13
11
847.37477270788531
21
14.000000000000039
31
3.0073166179533928e-13
0
LINE
5
260
100
AcDbEntity
8
BEND_EXTENT
100
AcDbLine
10
994.62522729233092
20
14.000000000000048
30
2.924049891106506e-13
11
947.37477270768318
21
14.000000000000043
31
2.9434787940374463e-13
0
LINE
5
261
100
AcDbEntity
8
BEND_EXTENT
100
AcDbLine
10
1044.6252272924321
20
14.000000000000043
30
2.8810287489022812e-13
11
997.374772707582
21
14.000000000000053
31
2.924049891106506e-13
0
LINE
5
262
100
AcDbEntity
8
BEND_EXTENT
100
AcDbLine
10
1094.6252272925335
20
14.000000000000053
30
2.8602120671905595e-13
11
1047.3747727074808
21
14.00000000000003
31
2.8810287489022812e-13
0
LINE
5
263
100
AcDbEntity
8
BEND_EXTENT
100
AcDbLine
10
1113.6252272925301
20
14.000000000000043
30
2.8393953854788379e-13
11
1097.3747727073794
21
14.000000000000039
31
2.8380076066980564e-13
0
LINE
5
264
100
AcDbEntity
8
BEND_EXTENT
100
AcDbLine
10
1159.6252272926233
20
14.000000000000066
30
2.8185787037671162e-13
11
1116.3747727073289
21
14.00000000000003
31
2.8393953854788379e-13
0
LINE
5
265
100
AcDbEntity
8
BEND_EXTENT
100
AcDbLine
10
1185.6252272926886
20
14.000000000000057
30
2.7977620220553945e-13
11
1162.3747727072355
21
14.000000000000071
31
2.796374243274613e-13
0
LINE
5
266
100
AcDbEntity
8
BEND_EXTENT
100
AcDbLine
10
1193.9999999999293
20
14.000000000000039
30
2.7755575615628914e-13
11
1188.3747727071661
21
14.000000000000025
31
2.7977620220553945e-13
0
LINE
5
267
100
AcDbEntity
8
BEND_EXTENT
100
AcDbLine
10
410.99999999993173
20
16.261946710582954
30
3.0350721935690217e-13
11
1192.6211348709562
21
16.261946710582958
31
2.886579864025407e-13
0
LINE
5
268
100
AcDbEntity
8
BEND_EXTENT
100
AcDbLine
10
1181.9999999996201
20
143.78584013439882
30
4.0412118096355698e-13
11
9.9999999996909139
21
143.78584013177621
31
4.0856207306205761e-13
0
LINE
5
269
100
AcDbEntity
8
BEND_EXTENT
100
AcDbLine
10
1192.6211348706877
20
159.78584013442273
30
3.8191672047105385e-13
11
-0.62113487134070056
21
159.78584013175612
31
4.8405723873656825e-13
0
LINE
5
270
100
AcDbEntity
8
BEND_EXTENT
100
AcDbLine
10
-0.62113487103196974
20
16.261946710582951
30
2.1316282072803006e-13
11
83.999999999931916
21
16.261946710582951
31
1.7791323969618134e-13
0
LINE
5
271
100
AcDbEntity
8
BEND_EXTENT
100
AcDbLine
10
3.625227290353763
20
14.000000000000007
30
2.3092638912203256e-13
11
-1.9999999999996021
21
14.000000000000021
31
2.3314683517128287e-13
0
LINE
5
272
100
AcDbEntity
8
BEND_EXTENT
100
AcDbLine
10
29.625227291525675
20
14.000000000000036
30
2.310651670001107e-13
11
6.3747727096168205
21
14.000000000000021
31
2.3092638912203256e-13
0
LINE
5
273
100
AcDbEntity
8
BEND_EXTENT
100
AcDbLine
10
75.625227291514108
20
14.00000000000003
30
2.2676305277968822e-13
11
32.374772708139972
21
14.00000000000003
31
2.2884472095086039e-13
0
LINE
5
274
100
AcDbEntity
8
BEND_EXTENT
100
AcDbLine
10
83.999999999929145
20
14.00000000000003
30
2.2676305277968822e-13
11
78.374772708151568
21
14.000000000000043
31
2.2676305277968822e-13
0
LINE
5
275
100
AcDbEntity
8
BEND_EXTENT
100
AcDbLine
10
1181.9999999999266
20
32.261946710582954
30
4.1300296516055823e-13
11
410.99999999993173
21
32.261946710582968
31
4.278521981149197e-13
0
LINE
5
276
100
AcDbEntity
8
BEND_EXTENT
100
AcDbLine
10
83.999999999932129
20
32.261946710582961
30
-2.3978041774341818e-12
11
9.999999999997442
21
32.261946710586486
31
3.730349362740526e-13
0
LINE
5
277
100
AcDbEntity
8
BEND_EXTENT
100
AcDbLine
10
-2.0000000002590212
20
162.04778684233671
30
4.7961634663806763e-13
11
1193.9999999997412
21
162.0477868450094
31
4.6407322429331543e-13
0
ENDSEC
0
SECTION
2
OBJECTS
0
DICTIONARY
5
C
100
AcDbDictionary
3
ACAD_GROUP
350
D
3
ACAD_MLINESTYLE
350
17
0
DICTIONARY
5
D
100
AcDbDictionary
0
DICTIONARY
5
1A
330
C
100
AcDbDictionary
0
DICTIONARY
5
17
100
AcDbDictionary
0
ENDSEC
0
EOF
