0
SECTION
2
HEADER
9
$INSUNITS
70
4
9
$ACADVER
1
AC1014
9
$HANDSEED
5
FFFF
0
ENDSEC
0
SECTION
2
TABLES
0
TABLE
2
VPORT
5
8
100
AcDbSymbolTable
0
ENDTAB
0
TABLE
2
LTYPE
5
5
100
AcDbSymbolTable
0
LTYPE
5
14
100
AcDbSymbolTableRecord
100
AcDbLinetypeTableRecord
2
BYBLOCK
70
0
0
LTYPE
5
15
100
AcDbSymbolTableRecord
100
AcDbLinetypeTableRecord
2
BYLAYER
70
0
0
LTYPE
5
16
100
AcDbSymbolTableRecord
100
AcDbLinetypeTableRecord
2
DASHED
70
0
3
Dashed __ __ __ __ __ __ __ __ __ __ __ __ __ _
72
65
73
2
40
0.75
49
0.5
74
0
49
-0.25
74
0
0
ENDTAB
0
TABLE
2
LAYER
5
2
100
AcDbSymbolTable
70
2
0
LAYER
5
50
100
AcDbSymbolTableRecord
100
AcDbLayerTableRecord
2
0
70
0
62
7
6
CONTINUOUS
0
ENDTAB
0
TABLE
2
STYLE
5
3
100
AcDbSymbolTable
70
1
0
STYLE
5
11
100
AcDbSymbolTableRecord
100
AcDbTextStyleTableRecord
2
STANDARD
70
0
0
ENDTAB
0
TABLE
2
VIEW
5
6
100
AcDbSymbolTable
70
0
0
ENDTAB
0
TABLE
2
UCS
5
7
100
AcDbSymbolTable
70
0
0
ENDTAB
0
TABLE
2
APPID
5
9
100
AcDbSymbolTable
70
2
0
APPID
5
12
100
AcDbSymbolTableRecord
100
AcDbRegAppTableRecord
2
ACAD
70
0
0
ENDTAB
0
TABLE
2
DIMSTYLE
5
A
100
AcDbSymbolTable
70
1
0
ENDTAB
0
TABLE
2
BLOCK_RECORD
5
1
100
AcDbSymbolTable
70
1
0
BLOCK_RECORD
5
1F
100
AcDbSymbolTableRecord
100
AcDbBlockTableRecord
2
*MODEL_SPACE
0
BLOCK_RECORD
5
1B
100
AcDbSymbolTableRecord
100
AcDbBlockTableRecord
2
*PAPER_SPACE
0
ENDTAB
0
ENDSEC
0
SECTION
2
BLOCKS
0
BLOCK
5
20
100
AcDbEntity
100
AcDbBlockBegin
2
*MODEL_SPACE
0
ENDBLK
5
21
100
AcDbEntity
100
AcDbBlockEnd
0
BLOCK
5
1C
100
AcDbEntity
100
AcDbBlockBegin
2
*PAPER_SPACE
0
ENDBLK
5
1D
100
AcDbEntity
100
AcDbBlockEnd
0
ENDSEC
0
SECTION
2
ENTITIES
0
LINE
5
100
100
AcDbEntity
8
OUTER_PROFILES
100
AcDbLine
10
-4.0607106781223479
20
4.2619467112520137
30
0
11
-1.99999999999946
21
2.0000000001201408
31
0
0
LINE
5
101
100
AcDbEntity
8
OUTER_PROFILES
100
AcDbLine
10
-1.99999999999946
20
2.0000000001201408
30
0
11
0
21
0
31
0
0
LINE
5
102
100
AcDbEntity
8
OUTER_PROFILES
100
AcDbLine
10
0
20
0
30
0
11
191.84857864373953
21
-1.9095836023552692e-13
31
0
0
LINE
5
103
100
AcDbEntity
8
OUTER_PROFILES
100
AcDbLine
10
191.84857864373953
20
-1.9095836023552692e-13
30
0
11
193.84857864387911
21
2.0000000001068141
31
0
0
LINE
5
104
100
AcDbEntity
8
OUTER_PROFILES
100
AcDbLine
10
193.84857864387911
20
2.0000000001068141
30
0
11
195.90928932200995
21
4.2619467112383713
31
0
0
LINE
5
105
100
AcDbEntity
8
OUTER_PROFILES
100
AcDbLine
10
195.90928932200995
20
4.2619467112383713
30
0
11
195.90928932187293
21
31.6238934222254
31
0
0
LINE
5
106
100
AcDbEntity
8
OUTER_PROFILES
100
AcDbLine
10
195.90928932187293
20
31.6238934222254
30
0
11
222.53061593254731
21
31.623893386141482
31
0
0
SPLINE
5
107
100
AcDbEntity
8
OUTER_PROFILES
100
AcDbSpline
70
0
71
3
72
8
73
4
74
0
42
0.000000001
43
0.0000000001
44
0.0000000001
40
1.5707963267948859
40
1.5707963267948859
40
1.5707963267948859
40
1.5707963267948859
40
2.898967723377718
40
2.898967723377718
40
2.898967723377718
40
2.898967723377718
10
224.44318274411233
20
32.594604062767722
30
0
10
223.80566047359065
20
32.15188026379456
30
0
10
223.16914006017021
20
31.730425593600611
30
0
10
222.53061593254731
20
31.623893386141482
30
0
0
LINE
5
108
100
AcDbEntity
8
OUTER_PROFILES
100
AcDbLine
10
224.44318274411233
20
32.594604062767722
30
0
11
226.44318274416042
21
34.594604100341101
31
0
0
LINE
5
109
100
AcDbEntity
8
OUTER_PROFILES
100
AcDbLine
10
226.44318274416042
20
34.594604100341101
30
0
11
226.44318274417887
21
176.45318274410371
31
0
0
LINE
5
110
100
AcDbEntity
8
OUTER_PROFILES
100
AcDbLine
10
226.44318274417887
20
176.45318274410371
30
0
11
224.44318274386688
21
178.45318274365414
31
0
0
SPLINE
5
111
100
AcDbEntity
8
OUTER_PROFILES
100
AcDbSpline
70
0
71
3
72
8
73
4
74
0
42
0.000000001
43
0.0000000001
44
0.0000000001
40
-2.8989677275219554
40
-2.8989677275219554
40
-2.8989677275219554
40
-2.8989677275219554
40
-1.5707963267946738
40
-1.5707963267946738
40
-1.5707963267946738
40
-1.5707963267946738
10
222.53061592644337
20
179.423893421201
30
0
10
223.16914005606208
20
179.31736121537671
30
0
10
223.80566047146542
20
178.89590654393314
30
0
10
224.44318274386688
20
178.45318274365414
30
0
0
LINE
5
112
100
AcDbEntity
8
OUTER_PROFILES
100
AcDbLine
10
222.53061592644337
20
179.423893421201
30
0
11
195.90928932188098
21
179.42389342222512
31
0
0
LINE
5
113
100
AcDbEntity
8
OUTER_PROFILES
100
AcDbLine
10
195.90928932188098
20
179.42389342222512
30
0
11
195.90928932188646
21
206.7858401337817
31
0
0
LINE
5
114
100
AcDbEntity
8
OUTER_PROFILES
100
AcDbLine
10
195.90928932188646
20
206.7858401337817
30
0
11
193.84857864375164
21
209.04778684501267
31
0
0
LINE
5
115
100
AcDbEntity
8
OUTER_PROFILES
100
AcDbLine
10
193.84857864375164
20
209.04778684501267
30
0
11
191.84857864375186
21
211.04778684510646
31
0
0
LINE
5
116
100
AcDbEntity
8
OUTER_PROFILES
100
AcDbLine
10
191.84857864375186
20
211.04778684510646
30
0
11
6.3593574850528967e-12
21
211.04778684515523
31
0
0
LINE
5
117
100
AcDbEntity
8
OUTER_PROFILES
100
AcDbLine
10
6.3593574850528967e-12
20
211.04778684515523
30
0
11
-1.999999999998181
21
209.04778684505229
31
0
0
LINE
5
118
100
AcDbEntity
8
OUTER_PROFILES
100
AcDbLine
10
-1.999999999998181
20
209.04778684505229
30
0
11
-4.0607106781119739
21
206.78584013382149
31
0
0
LINE
5
119
100
AcDbEntity
8
OUTER_PROFILES
100
AcDbLine
10
-4.0607106781119739
20
206.78584013382149
30
0
11
-4.060710678112045
21
179.42389342223726
31
0
0
LINE
5
120
100
AcDbEntity
8
OUTER_PROFILES
100
AcDbLine
10
-4.060710678112045
20
179.42389342223726
30
0
11
-30.682037282648373
21
179.42389342188073
31
0
0
SPLINE
5
121
100
AcDbEntity
8
OUTER_PROFILES
100
AcDbSpline
70
0
71
3
72
8
73
4
74
0
42
0.000000001
43
0.0000000001
44
0.0000000001
40
1.5707963269184093
40
1.5707963269184093
40
1.5707963269184093
40
1.5707963269184093
40
2.8989677276496661
40
2.8989677276496661
40
2.8989677276496661
40
2.8989677276496661
10
-32.59460410014669
20
178.45318274368128
30
0
10
-31.957081827626613
20
178.89590654403833
30
0
10
-31.320561412214122
20
179.31736121545305
30
0
10
-30.682037282586553
20
179.42389342122098
30
0
0
LINE
5
122
100
AcDbEntity
8
OUTER_PROFILES
100
AcDbLine
10
-32.59460410014669
20
178.45318274368128
30
0
11
-34.594604100441551
21
176.45318274410837
31
0
0
LINE
5
123
100
AcDbEntity
8
OUTER_PROFILES
100
AcDbLine
10
-34.594604100441551
20
176.45318274410837
30
0
11
-34.594604100452884
21
34.594604100371043
31
0
0
LINE
5
124
100
AcDbEntity
8
OUTER_PROFILES
100
AcDbLine
10
-34.594604100452884
20
34.594604100371043
30
0
11
-32.594604100386
21
32.594604061202588
31
0
0
SPLINE
5
125
100
AcDbEntity
8
OUTER_PROFILES
100
AcDbSpline
70
0
71
3
72
8
73
4
74
0
42
0.000000001
43
0.0000000001
44
0.0000000001
40
-2.8989677232178153
40
-2.8989677232178153
40
-2.8989677232178153
40
-2.8989677232178153
40
-1.5707963267949141
40
-1.5707963267949141
40
-1.5707963267949141
40
-1.5707963267949141
10
-30.682037289031182
20
31.62389338460418
30
0
10
-31.320561416583395
20
31.730425592128967
30
0
10
-31.957081829934605
20
32.151880262277913
30
0
10
-32.594604100386
20
32.594604061202588
30
0
0
LINE
5
126
100
AcDbEntity
8
OUTER_PROFILES
100
AcDbLine
10
-30.682037289031182
20
31.62389338460418
30
0
11
-4.0607106781206781
21
31.623893422236957
31
0
0
LINE
5
127
100
AcDbEntity
8
OUTER_PROFILES
100
AcDbLine
10
-4.0607106781206781
20
31.623893422236957
30
0
11
-4.0607106781223479
21
4.2619467112520137
31
0
0
CIRCLE
5
128
100
AcDbEntity
8
INTERIOR_PROFILES
100
AcDbCircle
10
17.332657389150548
20
120.52389342225185
30
0
40
1.6999999999998749
210
0
220
0
230
-1
0
CIRCLE
5
129
100
AcDbEntity
8
INTERIOR_PROFILES
100
AcDbCircle
10
17.332657389151152
20
105.52389342225156
30
0
40
6.5000000000000568
210
0
220
0
230
-1
0
CIRCLE
5
130
100
AcDbEntity
8
INTERIOR_PROFILES
100
AcDbCircle
10
-181.90928932187137
20
17.261946711223121
30
0
40
9.2500000000000071
210
0
220
0
230
-1
0
CIRCLE
5
131
100
AcDbEntity
8
INTERIOR_PROFILES
100
AcDbCircle
10
17.332657389151045
20
150.52389342225186
30
0
40
1.6999999999998749
210
0
220
0
230
-1
0
CIRCLE
5
132
100
AcDbEntity
8
INTERIOR_PROFILES
100
AcDbCircle
10
17.332657389150725
20
60.523893422251845
30
0
40
1.6999999999998749
210
0
220
0
230
-1
0
CIRCLE
5
133
100
AcDbEntity
8
INTERIOR_PROFILES
100
AcDbCircle
10
17.33265738915037
20
90.523893422251845
30
0
40
1.6999999999998749
210
0
220
0
230
-1
0
LINE
5
134
100
AcDbEntity
8
BEND
100
AcDbLine
10
-4.0607106781206781
20
31.392920066735442
30
-1.0056168257864736e-10
11
195.05026267744552
21
31.392920066723558
31
-2.1154127553737563e-10
0
LINE
5
135
100
AcDbEntity
8
BEND
100
AcDbLine
10
195.05026267744552
20
31.392920066723558
30
-2.1154127553737563e-10
11
195.05026267745444
21
180.78584013359165
31
-3.1967395920392728e-10
0
LINE
5
136
100
AcDbEntity
8
BEND
100
AcDbLine
10
223.31220938861634
20
31.887497281442833
30
4.8232719498570187e-07
11
223.31220938863561
21
179.16028952482731
31
4.8264093166122979e-07
0
LINE
5
137
100
AcDbEntity
8
BEND
100
AcDbLine
10
-3.0303553390611881
20
3.1309733556861863
30
-1.1335749054648246e-10
11
194.8789339830841
21
3.130973355672686
31
-1.2344341142560001e-10
0
LINE
5
138
100
AcDbEntity
8
BEND
100
AcDbLine
10
194.87893398281884
20
207.91681348939719
30
-1.1503193231926644e-10
11
-3.0303553390609039
21
207.91681348943649
31
-1.2121608969049983e-10
0
LINE
5
139
100
AcDbEntity
8
BEND
100
AcDbLine
10
195.05026267745436
20
179.65486677789841
30
-3.1805082096429747e-10
11
-4.0607106781120095
21
179.65486677791029
31
-2.0917910635192992e-10
0
LINE
5
140
100
AcDbEntity
8
BEND
100
AcDbLine
10
-31.463630744871232
20
179.16028952486329
30
5.0309875498427201e-07
11
-31.463630744883631
21
31.887497279872683
31
5.0288874991538177e-07
0
LINE
5
141
100
AcDbEntity
8
BEND
100
AcDbLine
10
-3.2016840336915209
20
179.65486677791023
30
-2.1011236018927514e-10
11
-3.2016840336935104
21
30.261946711213827
31
-9.889416142356176e-11
0
LINE
5
142
100
AcDbEntity
8
BEND_EXTENT
100
AcDbLine
10
195.90928932188646
20
206.7858401337817
30
-2.4114105228260462e-10
11
-4.0607106781119739
21
206.78584013382149
31
-1.7605533768692061e-10
0
LINE
5
143
100
AcDbEntity
8
BEND_EXTENT
100
AcDbLine
10
-1.999999999998181
20
209.04778684505229
30
-1.7137732594781928e-10
11
193.84857864375164
21
209.04778684501267
31
-1.7249236544232434e-10
0
LINE
5
144
100
AcDbEntity
8
BEND_EXTENT
100
AcDbLine
10
224.44318274417938
20
178.45318274410414
30
-1.4358761010158783e-10
11
224.4431827441596
21
32.594604100341215
31
-1.4273495881867566e-10
0
LINE
5
145
100
AcDbEntity
8
BEND_EXTENT
100
AcDbLine
10
222.18123603300108
20
31.623893422221826
30
-1.5040250736490008e-10
11
222.18123603302098
21
179.42389342222185
31
-1.5040250736490013e-10
0
LINE
5
146
100
AcDbEntity
8
BEND_EXTENT
100
AcDbLine
10
-32.594604100453388
20
32.594604100369089
30
-1.4400709661635573e-10
11
-32.594604100441558
21
178.45318274410616
31
-1.4485974789926787e-10
0
LINE
5
147
100
AcDbEntity
8
BEND_EXTENT
100
AcDbLine
10
-30.332657389257989
20
179.42389342223942
30
-1.4941353440811725e-10
11
-30.332657389269961
21
31.623893422239373
31
-1.4969775150242127e-10
0
LINE
5
148
100
AcDbEntity
8
BEND_EXTENT
100
AcDbLine
10
193.84857864387911
20
2.0000000001068141
30
-6.3637218323877343e-11
11
-1.99999999999946
21
2.0000000001201412
31
-6.3374830112284023e-11
0
LINE
5
149
100
AcDbEntity
8
BEND_EXTENT
100
AcDbLine
10
-4.0607106781223479
20
4.2619467112520137
30
-1.0824443444308854e-11
11
195.90928932200995
21
4.2619467112383713
31
-6.7941753233741722e-11
0
LINE
5
150
100
AcDbEntity
8
BEND_EXTENT
100
AcDbLine
10
196.18123603304008
20
179.42389342222538
30
-2.0745757839229238e-10
11
196.18123603303093
21
31.623893422225375
31
-2.0745757839229233e-10
0
LINE
5
151
100
AcDbEntity
8
BEND_EXTENT
100
AcDbLine
10
195.90928932187194
20
30.261946711208189
30
-9.684307901078341e-11
11
-4.0607106781213886
21
30.261946711220695
31
-9.7421839365071077e-11
0
LINE
5
152
100
AcDbEntity
8
BEND_EXTENT
100
AcDbLine
10
-4.0607106781124003
20
180.78584013359702
30
-3.1360080297785846e-10
11
195.90928932188092
21
180.7858401335848
31
-3.1502188844935467e-10
0
LINE
5
153
100
AcDbEntity
8
BEND_EXTENT
100
AcDbLine
10
-4.3326573892782605
20
31.623893422237323
30
-2.0860325495107739e-10
11
-4.3326573892765197
21
179.42389342223734
31
-2.0803482076246931e-10
0
LWPOLYLINE
5
154
100
AcDbEntity
8
BEND_EXTENT
100
AcDbPolyline
90
4
70
1
43
0.0
10
-2.070710678108334
20
32.523893422249742
10
193.91928932185974
20
32.523893422238046
10
193.91928932186815
20
178.52389342221241
10
-2.0707106780993456
20
178.52389342222412
0
ENDSEC
0
SECTION
2
OBJECTS
0
DICTIONARY
5
C
100
AcDbDictionary
3
ACAD_GROUP
350
D
3
ACAD_MLINESTYLE
350
17
0
DICTIONARY
5
D
100
AcDbDictionary
0
DICTIONARY
5
1A
330
C
100
AcDbDictionary
0
DICTIONARY
5
17
100
AcDbDictionary
0
ENDSEC
0
EOF
