0
SECTION
2
HEADER
9
$INSUNITS
70
4
9
$ACADVER
1
AC1014
9
$HANDSEED
5
FFFF
0
ENDSEC
0
SECTION
2
TABLES
0
TABLE
2
VPORT
5
8
100
AcDbSymbolTable
0
ENDTAB
0
TABLE
2
LTYPE
5
5
100
AcDbSymbolTable
0
LTYPE
5
14
100
AcDbSymbolTableRecord
100
AcDbLinetypeTableRecord
2
BYBLOCK
70
0
0
LTYPE
5
15
100
AcDbSymbolTableRecord
100
AcDbLinetypeTableRecord
2
BYLAYER
70
0
0
LTYPE
5
16
100
AcDbSymbolTableRecord
100
AcDbLinetypeTableRecord
2
DASHED
70
0
3
Dashed __ __ __ __ __ __ __ __ __ __ __ __ __ _
72
65
73
2
40
0.75
49
0.5
74
0
49
-0.25
74
0
0
ENDTAB
0
TABLE
2
LAYER
5
2
100
AcDbSymbolTable
70
2
0
LAYER
5
50
100
AcDbSymbolTableRecord
100
AcDbLayerTableRecord
2
0
70
0
62
7
6
CONTINUOUS
0
ENDTAB
0
TABLE
2
STYLE
5
3
100
AcDbSymbolTable
70
1
0
STYLE
5
11
100
AcDbSymbolTableRecord
100
AcDbTextStyleTableRecord
2
STANDARD
70
0
0
ENDTAB
0
TABLE
2
VIEW
5
6
100
AcDbSymbolTable
70
0
0
ENDTAB
0
TABLE
2
UCS
5
7
100
AcDbSymbolTable
70
0
0
ENDTAB
0
TABLE
2
APPID
5
9
100
AcDbSymbolTable
70
2
0
APPID
5
12
100
AcDbSymbolTableRecord
100
AcDbRegAppTableRecord
2
ACAD
70
0
0
ENDTAB
0
TABLE
2
DIMSTYLE
5
A
100
AcDbSymbolTable
70
1
0
ENDTAB
0
TABLE
2
BLOCK_RECORD
5
1
100
AcDbSymbolTable
70
1
0
BLOCK_RECORD
5
1F
100
AcDbSymbolTableRecord
100
AcDbBlockTableRecord
2
*MODEL_SPACE
0
BLOCK_RECORD
5
1B
100
AcDbSymbolTableRecord
100
AcDbBlockTableRecord
2
*PAPER_SPACE
0
ENDTAB
0
ENDSEC
0
SECTION
2
BLOCKS
0
BLOCK
5
20
100
AcDbEntity
100
AcDbBlockBegin
2
*MODEL_SPACE
0
ENDBLK
5
21
100
AcDbEntity
100
AcDbBlockEnd
0
BLOCK
5
1C
100
AcDbEntity
100
AcDbBlockBegin
2
*PAPER_SPACE
0
ENDBLK
5
1D
100
AcDbEntity
100
AcDbBlockEnd
0
ENDSEC
0
SECTION
2
ENTITIES
0
LINE
5
100
100
AcDbEntity
8
OUTER_PROFILES
100
AcDbLine
10
195.90928932187293
20
31.623893421232275
30
0
11
195.90928932187126
21
4.2619467106923015
31
0
0
LINE
5
101
100
AcDbEntity
8
OUTER_PROFILES
100
AcDbLine
10
195.90928932187126
20
4.2619467106923015
30
0
11
194.8485786437399
21
4.2619467103899353
31
0
0
SPLINE
5
102
100
AcDbEntity
8
OUTER_PROFILES
100
AcDbSpline
70
0
71
3
72
11
73
7
74
0
42
0.000000001
43
0.0000000001
44
0.0000000001
40
-3.1415926535899037
40
-3.1415926535899037
40
-3.1415926535899037
40
-3.1415926535899037
40
-3.0437620783852513
40
-3.0437620783852513
40
-3.0437620783852513
40
-1.570796326935888
40
-1.570796326935888
40
-1.570796326935888
40
-1.570796326935888
10
194.8485786437399
20
4.2619467103899353
30
0
10
194.8485786437399
20
4.2149880342914203
30
0
10
194.84698223581884
20
4.1680293581931638
30
0
10
194.84379704849258
20
4.1210706820949072
30
0
10
194.79583993658196
20
3.414047121399308
30
0
10
194.33956722769051
20
2.7070235607037363
30
0
10
193.84857864388078
20
2.0000000000084661
30
0
0
LINE
5
103
100
AcDbEntity
8
OUTER_PROFILES
100
AcDbLine
10
193.84857864388078
20
2.0000000000084657
30
0
11
191.84857864373953
21
-1.9095836023552692e-13
31
0
0
LINE
5
104
100
AcDbEntity
8
OUTER_PROFILES
100
AcDbLine
10
191.84857864373953
20
-1.9095836023552692e-13
30
0
11
0
21
0
31
0
0
LINE
5
105
100
AcDbEntity
8
OUTER_PROFILES
100
AcDbLine
10
0
20
0
30
0
11
-2.0000000001754259
21
1.9999999999978924
31
0
0
SPLINE
5
106
100
AcDbEntity
8
OUTER_PROFILES
100
AcDbSpline
70
0
71
3
72
11
73
7
74
0
42
0.000000001
43
0.0000000001
44
0.0000000001
40
1.5707963269712075
40
1.5707963269712075
40
1.5707963269712075
40
1.5707963269712075
40
3.0437620783854826
40
3.0437620783854826
40
3.0437620783854826
40
3.1415926535898868
40
3.1415926535898868
40
3.1415926535898868
40
3.1415926535898868
10
-2.0000000001754259
20
1.9999999999978924
30
0
10
-2.4909885839718093
20
2.7070235606761184
30
0
10
-2.9472612928422697
20
3.4140471213549066
30
0
10
-2.9952184047516894
20
4.1210706820336718
30
0
10
-2.9984035920776719
20
4.1680293581319283
30
0
10
-2.9999999999990123
20
4.2149880342299006
30
0
10
-2.9999999999990123
20
4.2619467103283384
30
0
0
LINE
5
107
100
AcDbEntity
8
OUTER_PROFILES
100
AcDbLine
10
-2.9999999999990123
20
4.2619467103283384
30
0
11
-4.0607106781220637
21
4.2619467107059439
31
0
0
LINE
5
108
100
AcDbEntity
8
OUTER_PROFILES
100
AcDbLine
10
-4.0607106781220637
20
4.2619467107059439
30
0
11
-4.0607106781203939
21
31.623893421244141
31
0
0
LINE
5
109
100
AcDbEntity
8
OUTER_PROFILES
100
AcDbLine
10
-4.0607106781203939
20
31.623893421244141
30
0
11
-30.68203728201528
21
31.623893421607193
31
0
0
SPLINE
5
110
100
AcDbEntity
8
OUTER_PROFILES
100
AcDbSpline
70
0
71
3
72
8
73
4
74
0
42
0.000000001
43
0.0000000001
44
0.0000000001
40
-2.8989677276618058
40
-2.8989677276618058
40
-2.8989677276618058
40
-2.8989677276618058
40
-1.5707963267949141
40
-1.5707963267949141
40
-1.5707963267949141
40
-1.5707963267949141
10
-30.682037281955186
20
31.623893421967118
30
0
10
-31.320561411478323
20
31.730425627711035
30
0
10
-31.957081826787402
20
32.151880299087395
30
0
10
-32.594604099202932
20
32.594604099376198
30
0
0
LINE
5
111
100
AcDbEntity
8
OUTER_PROFILES
100
AcDbLine
10
-32.59460409920294
20
32.594604099376198
30
0
11
-34.594604099269404
21
34.594604099378103
31
0
0
LINE
5
112
100
AcDbEntity
8
OUTER_PROFILES
100
AcDbLine
10
-34.594604099269404
20
34.594604099378103
30
0
11
-34.594604099258071
21
176.45318274311549
31
0
0
LINE
5
113
100
AcDbEntity
8
OUTER_PROFILES
100
AcDbLine
10
-34.594604099258071
20
176.45318274311549
30
0
11
-32.594604099524318
21
178.45318274284705
31
0
0
SPLINE
5
114
100
AcDbEntity
8
OUTER_PROFILES
100
AcDbSpline
70
0
71
3
72
8
73
4
74
0
42
0.000000001
43
0.0000000001
44
0.0000000001
40
1.570796326794949
40
1.570796326794949
40
1.570796326794949
40
1.570796326794949
40
2.8989677276496661
40
2.8989677276496661
40
2.8989677276496661
40
2.8989677276496661
10
-32.594604099140724
20
178.45318274311342
30
0
10
-31.957081826730573
20
178.89590654339813
30
0
10
-31.320561411427647
20
179.31736121476968
30
0
10
-30.682037281909679
20
179.42389342051925
30
0
0
LINE
5
115
100
AcDbEntity
8
OUTER_PROFILES
100
AcDbLine
10
-30.682037281909686
20
179.42389342051925
30
0
11
-4.060710678112045
21
179.42389342124414
31
0
0
LINE
5
116
100
AcDbEntity
8
OUTER_PROFILES
100
AcDbLine
10
-4.060710678112045
20
179.42389342124414
30
0
11
-4.0607106781065738
21
206.7858401320388
31
0
0
LINE
5
117
100
AcDbEntity
8
OUTER_PROFILES
100
AcDbLine
10
-4.0607106781065738
20
206.7858401320388
30
0
11
-2.9999999999937543
21
206.78584013240058
31
0
0
SPLINE
5
118
100
AcDbEntity
8
OUTER_PROFILES
100
AcDbSpline
70
0
71
3
72
11
73
7
74
0
42
0.000000001
43
0.0000000001
44
0.0000000001
40
-3.141592653589754
40
-3.141592653589754
40
-3.141592653589754
40
-3.141592653589754
40
-3.0437620783852726
40
-3.0437620783852726
40
-3.0437620783852726
40
-1.5707963269643939
40
-1.5707963269643939
40
-1.5707963269643939
40
-1.5707963269643939
10
-2.9999999999937543
20
206.78584013240058
30
0
10
-2.9999999999937188
20
206.83279880849881
30
0
10
-2.9984035920723784
20
206.87975748459678
30
0
10
-2.9952184047463959
20
206.92671616069475
30
0
10
-2.9472612928364077
20
207.63373972137691
30
0
10
-2.4909885839617578
20
208.34076328205907
30
0
10
-2.0000000001630447
20
209.04778684274089
30
0
0
LINE
5
119
100
AcDbEntity
8
OUTER_PROFILES
100
AcDbLine
10
-2.0000000001630442
20
209.04778684274089
30
0
11
6.9277916736609768e-12
21
211.04778684272677
31
0
0
LINE
5
120
100
AcDbEntity
8
OUTER_PROFILES
100
AcDbLine
10
6.9277916736609768e-12
20
211.04778684272677
30
0
11
191.84857864375243
21
211.04778684267808
31
0
0
LINE
5
121
100
AcDbEntity
8
OUTER_PROFILES
100
AcDbLine
10
191.84857864375243
20
211.04778684267808
30
0
11
193.84857864389886
21
209.04778684268604
31
0
0
SPLINE
5
122
100
AcDbEntity
8
OUTER_PROFILES
100
AcDbSpline
70
0
71
3
72
11
73
7
74
0
42
0.000000001
43
0.0000000001
44
0.0000000001
40
1.5707963269412919
40
1.5707963269412919
40
1.5707963269412919
40
1.5707963269412919
40
3.0437620783853196
40
3.0437620783853196
40
3.0437620783853196
40
3.1415926535900467
40
3.1415926535900467
40
3.1415926535900467
40
3.1415926535900467
10
193.84857864389886
20
209.04778684268604
30
0
10
194.33956722770631
20
208.34076328199296
30
0
10
194.79583993659458
20
207.63373972129983
30
0
10
194.84379704850468
20
206.92671616060676
30
0
10
194.84698223583095
20
206.8797574845085
30
0
10
194.84857864375201
20
206.83279880841025
30
0
10
194.84857864375198
20
206.78584013231193
30
0
0
LINE
5
123
100
AcDbEntity
8
OUTER_PROFILES
100
AcDbLine
10
194.84857864375198
20
206.78584013231193
30
0
11
195.90928932188675
21
206.78584013199901
31
0
0
LINE
5
124
100
AcDbEntity
8
OUTER_PROFILES
100
AcDbLine
10
195.90928932188675
20
206.78584013199901
30
0
11
195.90928932188126
21
179.42389342123232
31
0
0
LINE
5
125
100
AcDbEntity
8
OUTER_PROFILES
100
AcDbLine
10
195.90928932188126
20
179.42389342123232
30
0
11
222.53061592576773
21
179.42389342048779
31
0
0
SPLINE
5
126
100
AcDbEntity
8
OUTER_PROFILES
100
AcDbSpline
70
0
71
3
72
8
73
4
74
0
42
0.000000001
43
0.0000000001
44
0.0000000001
40
-2.8989677275219554
40
-2.8989677275219554
40
-2.8989677275219554
40
-2.8989677275219554
40
-1.5707963267946738
40
-1.5707963267946738
40
-1.5707963267946738
40
-1.5707963267946738
10
222.53061592576773
20
179.42389342048779
30
0
10
223.1691400552242
20
179.31736121469055
30
0
10
223.80566047046554
20
178.8959065433541
30
0
10
224.44318274281437
20
178.45318274311168
30
0
0
LINE
5
127
100
AcDbEntity
8
OUTER_PROFILES
100
AcDbLine
10
224.44318274281437
20
178.45318274311168
30
0
11
226.44318274301727
21
176.45318274311131
31
0
0
LINE
5
128
100
AcDbEntity
8
OUTER_PROFILES
100
AcDbLine
10
226.44318274301727
20
176.45318274311131
30
0
11
226.44318274299883
21
34.594604099348501
31
0
0
LINE
5
129
100
AcDbEntity
8
OUTER_PROFILES
100
AcDbLine
10
226.44318274299883
20
34.594604099348501
30
0
11
224.443182742998
21
32.594604099348594
31
0
0
SPLINE
5
130
100
AcDbEntity
8
OUTER_PROFILES
100
AcDbSpline
70
0
71
3
72
8
73
4
74
0
42
0.000000001
43
0.0000000001
44
0.0000000001
40
1.5707963267948859
40
1.5707963267948859
40
1.5707963267948859
40
1.5707963267948859
40
2.8989677276409531
40
2.8989677276409531
40
2.8989677276409531
40
2.8989677276409531
10
224.443182742951
20
32.594604099348423
30
0
10
223.80566047054464
20
32.15188029906664
30
0
10
223.16914005524615
20
31.730425627695197
30
0
10
222.53061592573289
20
31.623893421944508
30
0
0
LINE
5
131
100
AcDbEntity
8
OUTER_PROFILES
100
AcDbLine
10
222.53061592573289
20
31.623893421944508
30
0
11
195.90928932187293
21
31.623893421232275
31
0
0
CIRCLE
5
132
100
AcDbEntity
8
INTERIOR_PROFILES
100
AcDbCircle
10
-182.9092893218716
20
17.261946710677275
30
0
40
8.75
210
0
220
0
230
-1
0
CIRCLE
5
133
100
AcDbEntity
8
INTERIOR_PROFILES
100
AcDbCircle
10
17.332657388565735
20
90.523893421258578
30
0
40
1.6999999999998749
210
0
220
0
230
-1
0
CIRCLE
5
134
100
AcDbEntity
8
INTERIOR_PROFILES
100
AcDbCircle
10
17.332657388565913
20
120.52389342125858
30
0
40
1.6999999999998749
210
0
220
0
230
-1
0
CIRCLE
5
135
100
AcDbEntity
8
INTERIOR_PROFILES
100
AcDbCircle
10
17.332657388566091
20
60.523893421258578
30
0
40
1.6999999999998749
210
0
220
0
230
-1
0
CIRCLE
5
136
100
AcDbEntity
8
INTERIOR_PROFILES
100
AcDbCircle
10
17.332657388566126
20
150.52389342125869
30
0
40
1.6999999999998749
210
0
220
0
230
-1
0
CIRCLE
5
137
100
AcDbEntity
8
INTERIOR_PROFILES
100
AcDbCircle
10
17.332657388566233
20
105.52389342125856
30
0
40
6.5000000000000568
210
0
220
0
230
-1
0
LINE
5
138
100
AcDbEntity
8
BEND
100
AcDbLine
10
-3.201684033399701
20
179.65486677652291
30
-2.3250973611703133e-10
11
-3.2016840334017616
21
30.261946710667758
31
-1.2166300771004719e-10
0
LINE
5
139
100
AcDbEntity
8
BEND
100
AcDbLine
10
195.90928932188132
20
179.654866776511
30
-3.4117878161127276e-10
11
-3.201684033399701
21
179.65486677652291
31
-2.3250973611703133e-10
0
LINE
5
140
100
AcDbEntity
8
BEND
100
AcDbLine
10
-4.0607106781203939
20
31.392920065966315
30
-1.2332801514435219e-10
11
195.0502626771522
21
31.392920065954428
31
-2.3357438771736053e-10
0
LINE
5
141
100
AcDbEntity
8
BEND
100
AcDbLine
10
195.05026267715212
20
30.26194671065592
30
-2.3357437937011817e-10
11
195.05026267716104
21
179.65486677651108
31
-3.4117565756248625e-10
0
LINE
5
142
100
AcDbEntity
8
BEND
100
AcDbLine
10
-31.463630743980602
20
179.16028952423466
30
-1.5694102068416188e-10
11
-31.463630743992823
21
31.887497318229823
31
-1.5730114927777425e-10
0
LINE
5
143
100
AcDbEntity
8
BEND
100
AcDbLine
10
194.55568542509417
20
207.91681348728773
30
-2.3441272603242497e-10
11
-2.7071067813601957
21
207.91681348732664
31
-2.3269338642563639e-10
0
LINE
5
144
100
AcDbEntity
8
BEND
100
AcDbLine
10
-2.7071067813714578
20
3.1309733554146746
30
-1.4919809476337683e-11
11
194.55568542507552
21
3.1309733554011565
31
-1.480270142251822e-11
0
LINE
5
145
100
AcDbEntity
8
BEND
100
AcDbLine
10
223.31220938774337
20
31.887497318203746
30
-1.5484197629340071e-10
11
223.31220938776281
21
179.16028952418029
31
-1.5571669325892754e-10
0
LINE
5
146
100
AcDbEntity
8
BEND_EXTENT
100
AcDbLine
10
224.4431827430175
20
178.45318274311154
30
-1.5239834002499627e-10
11
224.443182742998
21
32.594604099348601
31
-1.515456887420841e-10
0
LINE
5
147
100
AcDbEntity
8
BEND_EXTENT
100
AcDbLine
10
222.18123603241389
20
31.623893421228843
30
-1.5864480309970217e-10
11
222.1812360324335
21
179.42389342122885
31
-1.5864480309970225e-10
0
LINE
5
148
100
AcDbEntity
8
BEND_EXTENT
100
AcDbLine
10
-32.594604099270192
20
32.594604099376355
30
-1.5395469491700243e-10
11
-32.594604099258078
21
178.45318274311327
31
-1.5452312910561051e-10
0
LINE
5
149
100
AcDbEntity
8
BEND_EXTENT
100
AcDbLine
10
-30.33265738867307
20
179.42389342124639
30
-1.5964534980306616e-10
11
-30.332657388685327
21
31.623893421246372
31
-1.599295668973702e-10
0
LINE
5
150
100
AcDbEntity
8
BEND_EXTENT
100
AcDbLine
10
-1.9999999999930651
20
209.04778684262297
30
-2.296418302801476e-10
11
193.84857864375221
21
209.04778684258429
31
-2.3075686977464082e-10
0
LINE
5
151
100
AcDbEntity
8
BEND_EXTENT
100
AcDbLine
10
194.84857864375201
20
206.7858401319985
30
-2.3812004464340124e-10
11
-2.9999999999937188
21
206.78584013203732
31
-2.3643266535746751e-10
0
LINE
5
152
100
AcDbEntity
8
BEND_EXTENT
100
AcDbLine
10
193.84857864373956
20
2.0000000001065299
30
-9.6359704060976285e-12
11
-1.99999999999946
21
2.0000000001201412
31
-9.3735821945165347e-12
0
LINE
5
153
100
AcDbEntity
8
BEND_EXTENT
100
AcDbLine
10
-2.9999999999989768
20
4.2619467107044606
30
-2.0082222977341643e-11
11
194.84857864374021
21
4.2619467106915154
31
-2.0065976012135501e-11
0
LINE
5
154
100
AcDbEntity
8
BEND_EXTENT
100
AcDbLine
10
196.1812360324526
20
179.42389342123226
30
-2.3047916303090613e-10
11
196.18123603244373
21
31.623893421232285
31
-2.3047916303090611e-10
0
LINE
5
155
100
AcDbEntity
8
BEND_EXTENT
100
AcDbLine
10
195.90928932187222
20
30.261946710662116
30
-1.1933175659757874e-10
11
-4.0607106781211044
21
30.261946710674621
31
-1.1962629985757445e-10
0
LINE
5
156
100
AcDbEntity
8
BEND_EXTENT
100
AcDbLine
10
-4.0607106781121161
20
180.7858401318143
30
-3.3600009815742935e-10
11
195.9092893218812
21
180.78584013180208
31
-3.3742118362889392e-10
0
LINE
5
157
100
AcDbEntity
8
BEND_EXTENT
100
AcDbLine
10
-4.3326573886936259
20
31.623893421244162
30
-2.3020375411818635e-10
11
-4.3326573886916009
21
179.42389342124414
31
-2.2991953702388231e-10
0
LWPOLYLINE
5
158
100
AcDbEntity
8
BEND_EXTENT
100
AcDbPolyline
90
4
70
1
43
0.0
10
193.91928932186843
20
178.52389342121961
10
-2.0707106780990614
20
178.52389342123132
10
-2.0707106781080498
20
32.523893421256886
10
193.91928932186002
20
32.523893421245184
0
ENDSEC
0
SECTION
2
OBJECTS
0
DICTIONARY
5
C
100
AcDbDictionary
3
ACAD_GROUP
350
D
3
ACAD_MLINESTYLE
350
17
0
DICTIONARY
5
D
100
AcDbDictionary
0
DICTIONARY
5
1A
330
C
100
AcDbDictionary
0
DICTIONARY
5
17
100
AcDbDictionary
0
ENDSEC
0
EOF
