0
SECTION
2
HEADER
9
$INSUNITS
70
4
9
$ACADVER
1
AC1014
9
$HANDSEED
5
FFFF
0
ENDSEC
0
SECTION
2
TABLES
0
TABLE
2
VPORT
5
8
100
AcDbSymbolTable
0
ENDTAB
0
TABLE
2
LTYPE
5
5
100
AcDbSymbolTable
0
LTYPE
5
14
100
AcDbSymbolTableRecord
100
AcDbLinetypeTableRecord
2
BYBLOCK
70
0
0
LTYPE
5
15
100
AcDbSymbolTableRecord
100
AcDbLinetypeTableRecord
2
BYLAYER
70
0
0
LTYPE
5
16
100
AcDbSymbolTableRecord
100
AcDbLinetypeTableRecord
2
DASHED
70
0
3
Dashed __ __ __ __ __ __ __ __ __ __ __ __ __ _
72
65
73
2
40
0.75
49
0.5
74
0
49
-0.25
74
0
0
ENDTAB
0
TABLE
2
LAYER
5
2
100
AcDbSymbolTable
70
2
0
LAYER
5
50
100
AcDbSymbolTableRecord
100
AcDbLayerTableRecord
2
0
70
0
62
7
6
CONTINUOUS
0
ENDTAB
0
TABLE
2
STYLE
5
3
100
AcDbSymbolTable
70
1
0
STYLE
5
11
100
AcDbSymbolTableRecord
100
AcDbTextStyleTableRecord
2
STANDARD
70
0
0
ENDTAB
0
TABLE
2
VIEW
5
6
100
AcDbSymbolTable
70
0
0
ENDTAB
0
TABLE
2
UCS
5
7
100
AcDbSymbolTable
70
0
0
ENDTAB
0
TABLE
2
APPID
5
9
100
AcDbSymbolTable
70
2
0
APPID
5
12
100
AcDbSymbolTableRecord
100
AcDbRegAppTableRecord
2
ACAD
70
0
0
ENDTAB
0
TABLE
2
DIMSTYLE
5
A
100
AcDbSymbolTable
70
1
0
ENDTAB
0
TABLE
2
BLOCK_RECORD
5
1
100
AcDbSymbolTable
70
1
0
BLOCK_RECORD
5
1F
100
AcDbSymbolTableRecord
100
AcDbBlockTableRecord
2
*MODEL_SPACE
0
BLOCK_RECORD
5
1B
100
AcDbSymbolTableRecord
100
AcDbBlockTableRecord
2
*PAPER_SPACE
0
ENDTAB
0
ENDSEC
0
SECTION
2
BLOCKS
0
BLOCK
5
20
100
AcDbEntity
100
AcDbBlockBegin
2
*MODEL_SPACE
0
ENDBLK
5
21
100
AcDbEntity
100
AcDbBlockEnd
0
BLOCK
5
1C
100
AcDbEntity
100
AcDbBlockBegin
2
*PAPER_SPACE
0
ENDBLK
5
1D
100
AcDbEntity
100
AcDbBlockEnd
0
ENDSEC
0
SECTION
2
ENTITIES
0
ARC
5
100
100
AcDbEntity
8
OUTER_PROFILES
100
AcDbCircle
10
-0.54449999925573422
20
109.04764816664581
30
0
40
2.5444999999999984
210
-0
220
0
230
-1
100
AcDbArc
50
282.62671095724698
51
360
0
ELLIPSE
5
101
100
AcDbEntity
8
OUTER_PROFILES
100
AcDbEllipse
10
-1.9999999999999929
20
90.785840129213312
30
0
11
4.6980020889804865e-12
21
16
31
0.0
40
0.75000000000000011
41
4.7123889803846915
42
6.1167279263377052
0
LINE
5
102
100
AcDbEntity
8
OUTER_PROFILES
100
AcDbLine
10
10.000000000000009
20
90.785840129209788
30
0
11
10.000000000000009
21
32.261946710588262
31
0
0
ELLIPSE
5
103
100
AcDbEntity
8
OUTER_PROFILES
100
AcDbEllipse
10
-1.9999999999999929
20
32.261946710584731
30
0
11
4.6980020889804865e-12
21
-16
31
0.0
40
0.75000000000000011
41
0.16645738089125217
42
1.570796326794897
0
ARC
5
104
100
AcDbEntity
8
OUTER_PROFILES
100
AcDbCircle
10
-0.54450000000002774
20
14.000138673318983
30
0
40
2.5445000000000007
210
0
220
0
230
-1
100
AcDbArc
50
0
51
77.37328903906031
0
LINE
5
105
100
AcDbEntity
8
OUTER_PROFILES
100
AcDbLine
10
-1.9999999999999729
20
14.000138673319819
30
0
11
-2.0000000000000639
21
1.9999999999999929
31
0
0
ARC
5
106
100
AcDbEntity
8
OUTER_PROFILES
100
AcDbCircle
10
0
20
1.9999999999999929
30
0
40
2
210
0
220
-0
230
-1
100
AcDbArc
50
-90
51
0
0
LINE
5
107
100
AcDbEntity
8
OUTER_PROFILES
100
AcDbLine
10
1.3877787807814454e-16
20
-7.2164496600635175e-15
30
0
11
192.0000000018473
21
-6.9388939039072284e-15
31
0
0
ARC
5
108
100
AcDbEntity
8
OUTER_PROFILES
100
AcDbCircle
10
-192.0000000018473
20
1.9999999999999929
30
0
40
1.9999999999999929
210
0
220
0
230
-1
100
AcDbArc
50
180
51
270
0
LINE
5
109
100
AcDbEntity
8
OUTER_PROFILES
100
AcDbLine
10
194.0000000018473
20
1.9999999999999929
30
0
11
194.00000000184724
21
14.000138673319665
31
0
0
ARC
5
110
100
AcDbEntity
8
OUTER_PROFILES
100
AcDbCircle
10
-191.45550000184727
20
14.000138673318956
30
0
40
2.5444999999999984
210
0
220
0
230
-1
100
AcDbArc
50
102.62671096093872
51
180
0
ELLIPSE
5
111
100
AcDbEntity
8
OUTER_PROFILES
100
AcDbEllipse
10
194.00000000184721
20
32.261946710584731
30
0
11
4.6980174911050175e-12
21
16
31
0.0
40
0.75000000000000011
41
1.5707963267951177
42
2.9751352726985418
0
LINE
5
112
100
AcDbEntity
8
OUTER_PROFILES
100
AcDbLine
10
182.00000000184724
20
32.261946710584716
30
0
11
182.00000000184724
21
90.785840129213327
31
0
0
ELLIPSE
5
113
100
AcDbEntity
8
OUTER_PROFILES
100
AcDbEllipse
10
194.00000000184721
20
90.785840129213312
30
0
11
4.6980174911050175e-12
21
-16
31
0.0
40
0.75000000000000011
41
3.3080500346529487
42
4.7123889803844685
0
ARC
5
114
100
AcDbEntity
8
OUTER_PROFILES
100
AcDbCircle
10
-191.45549999925566
20
109.04764816589854
30
0
40
2.5444999999999851
210
0
220
-0
230
-1
100
AcDbArc
50
180
51
257.37328902620209
0
LINE
5
115
100
AcDbEntity
8
OUTER_PROFILES
100
AcDbLine
10
193.99999999925566
20
109.04764816589071
30
0
11
193.99999999925566
21
121.04778683979752
31
0
0
ARC
5
116
100
AcDbEntity
8
OUTER_PROFILES
100
AcDbCircle
10
-191.99999999925566
20
121.04778683979752
30
0
40
1.9999999999999929
210
0
220
0
230
-1
100
AcDbArc
50
90
51
180
0
LINE
5
117
100
AcDbEntity
8
OUTER_PROFILES
100
AcDbLine
10
191.99999999925566
20
123.04778683979751
30
0
11
-7.4429351570870494e-10
21
123.04778683979751
31
0
0
ARC
5
118
100
AcDbEntity
8
OUTER_PROFILES
100
AcDbCircle
10
7.4429351570870494e-10
20
121.04778683979752
30
0
40
1.9999999999999998
210
0
220
0
230
-1
100
AcDbArc
50
0
51
90
0
LINE
5
119
100
AcDbEntity
8
OUTER_PROFILES
100
AcDbLine
10
-2.0000000007442935
20
121.04778683979752
30
0
11
-2.000000000744266
21
109.04764816663791
31
0
0
SPLINE
5
120
100
AcDbEntity
8
INTERIOR_PROFILES
100
AcDbSpline
70
0
71
3
72
11
73
7
74
0
42
0.000000001
43
0.0000000001
44
0.0000000001
40
0.3159180455938212
40
0.3159180455938212
40
0.3159180455938212
40
0.3159180455938212
40
0.50001066400218952
40
0.50001066400218952
40
0.50001066400218952
40
0.6203014914578332
40
0.6203014914578332
40
0.6203014914578332
40
0.6203014914578332
10
116.37477271030406
20
14.000000000000004
30
0
10
115.99085089711255
20
14.380019766273291
30
0
10
115.31394127373378
20
14.587617100864527
30
0
10
114.66946515280519
20
14.490045215631238
30
0
10
114.24834796444549
20
14.42628924913679
30
0
10
113.87609162997478
20
14.248314639281787
30
0
10
113.62522729339051
20
14.000000000000004
30
0
0
ARC
5
121
100
AcDbEntity
8
INTERIOR_PROFILES
100
AcDbCircle
10
-115.00000000184728
20
12.99999999995876
30
0
40
1.7000000000000153
210
0
220
0
230
-1
100
AcDbArc
50
-216.03187907418896
51
36.031879074188993
0
ARC
5
122
100
AcDbEntity
8
INTERIOR_PROFILES
100
AcDbCircle
10
-146.00000000092362
20
13.000000000000043
30
0
40
1.7000000000000048
210
0
220
0
230
-1
100
AcDbArc
50
-216.03187907246885
51
36.031879072468307
0
SPLINE
5
123
100
AcDbEntity
8
INTERIOR_PROFILES
100
AcDbSpline
70
0
71
3
72
11
73
7
74
0
42
0.000000001
43
0.0000000001
44
0.0000000001
40
0.31591804559367848
40
0.31591804559367848
40
0.31591804559367848
40
0.31591804559367848
40
0.50001066400051108
40
0.50001066400051108
40
0.50001066400051108
40
0.62030149146768865
40
0.62030149146768865
40
0.62030149146768865
40
0.62030149146768865
10
147.37477270941042
20
14.000000000000004
30
0
10
146.99085089623969
20
14.380019766276719
30
0
10
146.31394127287476
20
14.58761710088571
30
0
10
145.66946515195045
20
14.490045215673213
30
0
10
145.24834796354969
20
14.426289249185702
30
0
10
144.87609162903362
20
14.248314639309907
30
0
10
144.62522729243682
20
14.000000000000004
30
0
0
ARC
5
124
100
AcDbEntity
8
INTERIOR_PROFILES
100
AcDbCircle
10
-46.000000000923613
20
13.000000000000043
30
0
40
1.6999999999999988
210
0
220
0
230
-1
100
AcDbArc
50
-216.03187907246883
51
36.031879072468882
0
SPLINE
5
125
100
AcDbEntity
8
INTERIOR_PROFILES
100
AcDbSpline
70
0
71
3
72
11
73
7
74
0
42
0.000000001
43
0.0000000001
44
0.0000000001
40
0.31591804559367803
40
0.31591804559367803
40
0.31591804559367803
40
0.31591804559367803
40
0.50001066400085659
40
0.50001066400085659
40
0.50001066400085659
40
0.62030149146768809
40
0.62030149146768809
40
0.62030149146768809
40
0.62030149146768809
10
47.374772709410422
20
14.000000000000004
30
0
10
46.990850896238911
20
14.380019766277528
30
0
10
46.313941272872171
20
14.58761710088643
30
0
10
45.669465151946831
20
14.490045215672671
30
0
10
45.248347963547388
20
14.426289249184645
30
0
10
44.876091629032935
20
14.248314639309232
30
0
10
44.625227292436804
20
14.000000000000004
30
0
0
SPLINE
5
126
100
AcDbEntity
8
INTERIOR_PROFILES
100
AcDbSpline
70
0
71
3
72
11
73
7
74
0
42
0.000000001
43
0.0000000001
44
0.0000000001
40
0.31591804559382064
40
0.31591804559382064
40
0.31591804559382064
40
0.31591804559382064
40
0.50001066400211913
40
0.50001066400211913
40
0.50001066400211913
40
0.62030149145783253
40
0.62030149145783253
40
0.62030149145783253
40
0.62030149145783253
10
162.37477271030403
20
14.000000000000004
30
0
10
161.99085089711272
20
14.380019766273149
30
0
10
161.31394127373426
20
14.587617100864385
30
0
10
160.66946515280591
20
14.490045215631353
30
0
10
160.24834796444597
20
14.426289249137012
30
0
10
159.87609162997489
20
14.24831463928192
30
0
10
159.62522729339054
20
14.000000000000012
30
0
0
ARC
5
127
100
AcDbEntity
8
INTERIOR_PROFILES
100
AcDbCircle
10
-161.0000000018473
20
12.99999999995876
30
0
40
1.7000000000000011
210
0
220
0
230
-1
100
AcDbArc
50
-216.03187907418985
51
36.031879074189519
0
SPLINE
5
128
100
AcDbEntity
8
INTERIOR_PROFILES
100
AcDbSpline
70
0
71
3
72
11
73
7
74
0
42
0.000000001
43
0.0000000001
44
0.0000000001
40
0.31591804559305003
40
0.31591804559305003
40
0.31591804559305003
40
0.31591804559305003
40
0.50001066399427818
40
0.50001066399427818
40
0.50001066399427818
40
0.62030149151121727
40
0.62030149151121727
40
0.62030149151121727
40
0.62030149151121727
10
78.374772708925477
20
14.000000000000021
30
0
10
77.990850895843877
20
14.380019766294518
30
0
10
77.313941272534009
20
14.587617100981731
30
0
10
76.669465151624948
20
14.490045215856755
30
0
10
76.248347963047109
20
14.426289249398119
30
0
10
75.876091628336582
20
14.248314639431827
30
0
10
75.625227291686556
20
14.000000000000012
30
0
0
ARC
5
129
100
AcDbEntity
8
INTERIOR_PROFILES
100
AcDbCircle
10
-77.000000000306017
20
13.000000000182421
30
0
40
1.7000000000000171
210
0
220
0
230
-1
100
AcDbArc
50
-216.03187906486812
51
36.031879064867894
0
ARC
5
130
100
AcDbEntity
8
INTERIOR_PROFILES
100
AcDbCircle
10
-96.00000000092362
20
13.000000000000043
30
0
40
1.7000000000000048
210
0
220
0
230
-1
100
AcDbArc
50
-216.03187907246857
51
36.031879072468307
0
SPLINE
5
131
100
AcDbEntity
8
INTERIOR_PROFILES
100
AcDbSpline
70
0
71
3
72
11
73
7
74
0
42
0.000000001
43
0.0000000001
44
0.0000000001
40
0.31591804559367842
40
0.31591804559367842
40
0.31591804559367842
40
0.31591804559367842
40
0.50001066400075389
40
0.50001066400075389
40
0.50001066400075389
40
0.62030149146768843
40
0.62030149146768843
40
0.62030149146768843
40
0.62030149146768843
10
97.374772709410408
20
14.000000000000004
30
0
10
96.990850896239152
20
14.380019766277261
30
0
10
96.313941272873024
20
14.587617100886234
30
0
10
95.669465151947918
20
14.49004521567284
30
0
10
95.248347963548028
20
14.426289249184956
30
0
10
94.876091629033169
20
14.248314639309436
30
0
10
94.625227292436819
20
14.000000000000004
30
0
0
SPLINE
5
132
100
AcDbEntity
8
INTERIOR_PROFILES
100
AcDbSpline
70
0
71
3
72
11
73
7
74
0
42
0.000000001
43
0.0000000001
44
0.0000000001
40
0.31591804559118108
40
0.31591804559118108
40
0.31591804559118108
40
0.31591804559118108
40
0.500010663974223
40
0.500010663974223
40
0.500010663974223
40
0.62030149164046589
40
0.62030149164046589
40
0.62030149164046589
40
0.62030149164046589
10
32.374772709319402
20
14.000000000000004
30
0
10
31.990850896505716
20
14.38001976634399
30
0
10
31.313941273367352
20
14.587617101263568
30
0
10
30.669465152508497
20
14.490045216404122
30
0
10
30.248347963399187
20
14.426289250033557
30
0
10
29.87609162810374
20
14.248314639796851
30
0
10
29.625227291292671
20
14.000000000000012
30
0
0
ARC
5
133
100
AcDbEntity
8
INTERIOR_PROFILES
100
AcDbCircle
10
-31.000000000306027
20
13.000000000723944
30
0
40
1.700000000000027
210
0
220
0
230
-1
100
AcDbArc
50
-216.03187904229856
51
36.031879042299096
0
ARC
5
134
100
AcDbEntity
8
INTERIOR_PROFILES
100
AcDbCircle
10
-5.0000000008647305
20
12.999999999999972
30
0
40
1.7000000000000006
210
0
220
0
230
-1
100
AcDbArc
50
-216.03187907247096
51
36.031879072472442
0
SPLINE
5
135
100
AcDbEntity
8
INTERIOR_PROFILES
100
AcDbSpline
70
0
71
3
72
11
73
7
74
0
42
0.000000001
43
0.0000000001
44
0.0000000001
40
0.31591804559368064
40
0.31591804559368064
40
0.31591804559368064
40
0.31591804559368064
40
0.50001066400100269
40
0.50001066400100269
40
0.50001066400100269
40
0.62030149146767044
40
0.62030149146767044
40
0.62030149146767044
40
0.62030149146767044
10
6.3747727093515039
20
13.999999999999995
30
0
10
5.9908508961796514
20
14.380019766277803
30
0
10
5.3139412728121371
20
14.587617100886678
30
0
10
4.6694651518863139
20
14.490045215672369
30
0
10
4.2483479634874399
20
14.426289249184121
30
0
10
3.8760916289737679
20
14.24831463930885
30
0
10
3.6252272923779927
20
14.000000000000021
30
0
0
ARC
5
136
100
AcDbEntity
8
INTERIOR_PROFILES
100
AcDbCircle
10
-187.00000000098248
20
12.999999999999972
30
0
40
1.7000000000000035
210
0
220
0
230
-1
100
AcDbArc
50
-216.03187907247138
51
36.031879072471888
0
SPLINE
5
137
100
AcDbEntity
8
INTERIOR_PROFILES
100
AcDbSpline
70
0
71
3
72
11
73
7
74
0
42
0.000000001
43
0.0000000001
44
0.0000000001
40
0.31591804559368164
40
0.31591804559368164
40
0.31591804559368164
40
0.31591804559368164
40
0.50001066400082184
40
0.50001066400082184
40
0.50001066400082184
40
0.62030149146767344
40
0.62030149146767344
40
0.62030149146767344
40
0.62030149146767344
10
188.3747727094692
20
14.000000000000004
30
0
10
187.99085089629784
20
14.38001976627735
30
0
10
187.31394127293123
20
14.587617100886305
30
0
10
186.66946515200596
20
14.490045215672653
30
0
10
186.24834796360642
20
14.426289249184672
30
0
10
185.87609162909192
20
14.248314639309276
30
0
10
185.62522729249571
20
14.000000000000004
30
0
0
CIRCLE
5
138
100
AcDbEntity
8
INTERIOR_PROFILES
100
AcDbCircle
10
-40.000000000923635
20
84.151393421169374
30
0
40
1.6999999999999993
210
0
220
0
230
-1
0
CIRCLE
5
139
100
AcDbEntity
8
INTERIOR_PROFILES
100
AcDbCircle
10
-62.627500000923618
20
61.523893421169369
30
0
40
1.6999999999999993
210
0
220
0
230
-1
0
CIRCLE
5
140
100
AcDbEntity
8
INTERIOR_PROFILES
100
AcDbCircle
10
-71.00000000092362
20
96.785840129213327
30
0
40
1.6999999999999993
210
0
220
0
230
-1
0
CIRCLE
5
141
100
AcDbEntity
8
INTERIOR_PROFILES
100
AcDbCircle
10
-121.00000000092362
20
96.785840129213327
30
0
40
1.6999999999999993
210
0
220
0
230
-1
0
CIRCLE
5
142
100
AcDbEntity
8
INTERIOR_PROFILES
100
AcDbCircle
10
-17.37250000092363
20
61.52389342116939
30
0
40
1.6999999999999993
210
0
220
0
230
-1
0
CIRCLE
5
143
100
AcDbEntity
8
INTERIOR_PROFILES
100
AcDbCircle
10
-51.313750000923619
20
81.11988324530175
30
0
40
1.6999999999999993
210
0
220
0
230
-1
0
CIRCLE
5
144
100
AcDbEntity
8
INTERIOR_PROFILES
100
AcDbCircle
10
-28.686250000923614
20
81.119883245301764
30
0
40
1.6999999999999993
210
0
220
0
230
-1
0
CIRCLE
5
145
100
AcDbEntity
8
INTERIOR_PROFILES
100
AcDbCircle
10
-28.686250000923614
20
41.927903597037002
30
0
40
1.6999999999999993
210
0
220
0
230
-1
0
CIRCLE
5
146
100
AcDbEntity
8
INTERIOR_PROFILES
100
AcDbCircle
10
-40.00000000092362
20
61.523893421169376
30
0
40
1.6999999999999993
210
0
220
0
230
-1
0
CIRCLE
5
147
100
AcDbEntity
8
INTERIOR_PROFILES
100
AcDbCircle
10
-129.37250000092359
20
61.52389342116939
30
0
40
1.6999999999999993
210
0
220
0
230
-1
0
CIRCLE
5
148
100
AcDbEntity
8
INTERIOR_PROFILES
100
AcDbCircle
10
-51.313750000923619
20
41.927903597036995
30
0
40
1.6999999999999993
210
0
220
0
230
-1
0
CIRCLE
5
149
100
AcDbEntity
8
INTERIOR_PROFILES
100
AcDbCircle
10
-40.00000000092362
20
38.896393421169378
30
0
40
1.6999999999999993
210
0
220
0
230
-1
0
CIRCLE
5
150
100
AcDbEntity
8
INTERIOR_PROFILES
100
AcDbCircle
10
-140.68625000092362
20
41.927903597037002
30
0
40
1.6999999999999993
210
0
220
0
230
-1
0
CIRCLE
5
151
100
AcDbEntity
8
INTERIOR_PROFILES
100
AcDbCircle
10
-163.31375000092362
20
81.119883245301764
30
0
40
1.7000000000000171
210
0
220
0
230
-1
0
CIRCLE
5
152
100
AcDbEntity
8
INTERIOR_PROFILES
100
AcDbCircle
10
-152.00000000092362
20
38.896393421169378
30
0
40
1.6999999999999993
210
0
220
0
230
-1
0
CIRCLE
5
153
100
AcDbEntity
8
INTERIOR_PROFILES
100
AcDbCircle
10
-152.00000000092359
20
84.151393421169374
30
0
40
1.6999999999999993
210
0
220
0
230
-1
0
CIRCLE
5
154
100
AcDbEntity
8
INTERIOR_PROFILES
100
AcDbCircle
10
-140.68625000092365
20
81.119883245301764
30
0
40
1.6999999999999993
210
0
220
0
230
-1
0
CIRCLE
5
155
100
AcDbEntity
8
INTERIOR_PROFILES
100
AcDbCircle
10
-163.31375000092362
20
41.927903597036995
30
0
40
1.7000000000000171
210
0
220
0
230
-1
0
CIRCLE
5
156
100
AcDbEntity
8
INTERIOR_PROFILES
100
AcDbCircle
10
-174.62750000092365
20
61.523893421169369
30
0
40
1.7000000000000171
210
0
220
0
230
-1
0
CIRCLE
5
157
100
AcDbEntity
8
INTERIOR_PROFILES
100
AcDbCircle
10
-96.00000000092362
20
96.785840129213327
30
0
40
1.6999999999999993
210
0
220
0
230
-1
0
CIRCLE
5
158
100
AcDbEntity
8
INTERIOR_PROFILES
100
AcDbCircle
10
-121.00000000092362
20
26.261946710584738
30
0
40
1.6999999999999993
210
0
220
0
230
-1
0
CIRCLE
5
159
100
AcDbEntity
8
INTERIOR_PROFILES
100
AcDbCircle
10
-5.0000000009236345
20
120.04778683725698
30
0
40
1.7000000000000004
210
0
220
0
230
-1
0
CIRCLE
5
160
100
AcDbEntity
8
INTERIOR_PROFILES
100
AcDbCircle
10
-96.00000000092362
20
26.261946710584738
30
0
40
1.6999999999999993
210
0
220
0
230
-1
0
CIRCLE
5
161
100
AcDbEntity
8
INTERIOR_PROFILES
100
AcDbCircle
10
-187.00000000092359
20
120.04778683725698
30
0
40
1.7000000000000171
210
0
220
0
230
-1
0
CIRCLE
5
162
100
AcDbEntity
8
INTERIOR_PROFILES
100
AcDbCircle
10
-187.00000000092359
20
2.9999999999999893
30
0
40
1.7000000000000171
210
0
220
0
230
-1
0
CIRCLE
5
163
100
AcDbEntity
8
INTERIOR_PROFILES
100
AcDbCircle
10
-71.00000000092362
20
26.261946710584738
30
0
40
1.6999999999999993
210
0
220
0
230
-1
0
CIRCLE
5
164
100
AcDbEntity
8
INTERIOR_PROFILES
100
AcDbCircle
10
-5.0000000009236345
20
2.9999999999999893
30
0
40
1.7000000000000004
210
0
220
0
230
-1
0
ENDSEC
0
SECTION
2
OBJECTS
0
DICTIONARY
5
C
100
AcDbDictionary
3
ACAD_GROUP
350
D
3
ACAD_MLINESTYLE
350
17
0
DICTIONARY
5
D
100
AcDbDictionary
0
DICTIONARY
5
1A
330
C
100
AcDbDictionary
0
DICTIONARY
5
17
100
AcDbDictionary
0
ENDSEC
0
EOF
