0
SECTION
2
HEADER
9
$INSUNITS
70
4
9
$ACADVER
1
AC1014
9
$HANDSEED
5
FFFF
0
ENDSEC
0
SECTION
2
TABLES
0
TABLE
2
VPORT
5
8
100
AcDbSymbolTable
0
ENDTAB
0
TABLE
2
LTYPE
5
5
100
AcDbSymbolTable
0
LTYPE
5
14
100
AcDbSymbolTableRecord
100
AcDbLinetypeTableRecord
2
BYBLOCK
70
0
0
LTYPE
5
15
100
AcDbSymbolTableRecord
100
AcDbLinetypeTableRecord
2
BYLAYER
70
0
0
LTYPE
5
16
100
AcDbSymbolTableRecord
100
AcDbLinetypeTableRecord
2
DASHED
70
0
3
Dashed __ __ __ __ __ __ __ __ __ __ __ __ __ _
72
65
73
2
40
0.75
49
0.5
74
0
49
-0.25
74
0
0
ENDTAB
0
TABLE
2
LAYER
5
2
100
AcDbSymbolTable
70
2
0
LAYER
5
50
100
AcDbSymbolTableRecord
100
AcDbLayerTableRecord
2
0
70
0
62
7
6
CONTINUOUS
0
ENDTAB
0
TABLE
2
STYLE
5
3
100
AcDbSymbolTable
70
1
0
STYLE
5
11
100
AcDbSymbolTableRecord
100
AcDbTextStyleTableRecord
2
STANDARD
70
0
0
ENDTAB
0
TABLE
2
VIEW
5
6
100
AcDbSymbolTable
70
0
0
ENDTAB
0
TABLE
2
UCS
5
7
100
AcDbSymbolTable
70
0
0
ENDTAB
0
TABLE
2
APPID
5
9
100
AcDbSymbolTable
70
2
0
APPID
5
12
100
AcDbSymbolTableRecord
100
AcDbRegAppTableRecord
2
ACAD
70
0
0
ENDTAB
0
TABLE
2
DIMSTYLE
5
A
100
AcDbSymbolTable
70
1
0
ENDTAB
0
TABLE
2
BLOCK_RECORD
5
1
100
AcDbSymbolTable
70
1
0
BLOCK_RECORD
5
1F
100
AcDbSymbolTableRecord
100
AcDbBlockTableRecord
2
*MODEL_SPACE
0
BLOCK_RECORD
5
1B
100
AcDbSymbolTableRecord
100
AcDbBlockTableRecord
2
*PAPER_SPACE
0
ENDTAB
0
ENDSEC
0
SECTION
2
BLOCKS
0
BLOCK
5
20
100
AcDbEntity
100
AcDbBlockBegin
2
*MODEL_SPACE
0
ENDBLK
5
21
100
AcDbEntity
100
AcDbBlockEnd
0
BLOCK
5
1C
100
AcDbEntity
100
AcDbBlockBegin
2
*PAPER_SPACE
0
ENDBLK
5
1D
100
AcDbEntity
100
AcDbBlockEnd
0
ENDSEC
0
SECTION
2
ENTITIES
0
ARC
5
100
100
AcDbEntity
8
OUTER_PROFILES
100
AcDbCircle
10
-0.54450000039309998
20
109.0476481671415
30
0
40
2.5445000000000055
210
-0
220
0
230
-1
100
AcDbArc
50
282.62671096266024
51
360
0
ELLIPSE
5
101
100
AcDbEntity
8
OUTER_PROFILES
100
AcDbEllipse
10
-1.9999999999519957
20
90.785840129953357
30
0
11
9.5640567327720805e-13
21
16
31
0.0
40
0.75000000000000011
41
4.7123889803846915
42
6.1167279262651642
0
LINE
5
102
100
AcDbEntity
8
OUTER_PROFILES
100
AcDbLine
10
10.000000000048006
20
90.785840129952646
30
0
11
10.000000000000711
21
32.261946710590223
31
0
0
ELLIPSE
5
103
100
AcDbEntity
8
OUTER_PROFILES
100
AcDbEllipse
10
-1.9999999999993179
20
32.261946710586713
30
0
11
4.6948347861904528e-12
21
-16
31
0.0
40
0.75000000000000011
41
0.16645738089125484
42
1.5707963267948957
0
ARC
5
104
100
AcDbEntity
8
OUTER_PROFILES
100
AcDbCircle
10
-0.54450000000073828
20
14.000138673320972
30
0
40
2.5445000000000007
210
0
220
0
230
-1
100
AcDbArc
50
0
51
77.373289039060154
0
LINE
5
105
100
AcDbEntity
8
OUTER_PROFILES
100
AcDbLine
10
-1.9999999999992624
20
14.000138673323299
30
0
11
-1.9999999999997158
21
1.999999999999984
31
0
0
ARC
5
106
100
AcDbEntity
8
OUTER_PROFILES
100
AcDbCircle
10
-2.8421709430404007e-13
20
1.9999999999999929
30
0
40
2
210
-0
220
0
230
-1
100
AcDbArc
50
270.0000000000079
51
360
0
LINE
5
107
100
AcDbEntity
8
OUTER_PROFILES
100
AcDbLine
10
8.4654505627668186e-15
20
-7.2164496600635175e-15
30
0
11
1192.0000000000166
21
-2.4980018054066022e-14
31
0
0
ARC
5
108
100
AcDbEntity
8
OUTER_PROFILES
100
AcDbCircle
10
-1192.0000000000168
20
1.9999999999999751
30
0
40
2.0000000000000284
210
0
220
0
230
-1
100
AcDbArc
50
180
51
270.00000000000648
0
LINE
5
109
100
AcDbEntity
8
OUTER_PROFILES
100
AcDbLine
10
1194.0000000000168
20
2.0000000000000089
30
0
11
1194.0000000000173
21
14.000138673323416
31
0
0
ARC
5
110
100
AcDbEntity
8
OUTER_PROFILES
100
AcDbCircle
10
-1191.4555000000175
20
14.000138673320945
30
0
40
2.5444999999999993
210
0
220
0
230
-1
100
AcDbArc
50
102.62671096093938
51
180
0
ELLIPSE
5
111
100
AcDbEntity
8
OUTER_PROFILES
100
AcDbEllipse
10
1194.0000000000177
20
32.261946710586685
30
0
11
4.6950794214925832e-12
21
16
31
0.0
40
0.75000000000000011
41
1.5707963267951168
42
2.9751352726985276
0
LINE
5
112
100
AcDbEntity
8
OUTER_PROFILES
100
AcDbLine
10
1182.0000000000177
20
32.261946710586685
30
0
11
1182.000000000065
21
90.785840130230028
31
0
0
ELLIPSE
5
113
100
AcDbEntity
8
OUTER_PROFILES
100
AcDbEllipse
10
1194.000000000065
20
90.785840130232813
30
0
11
8.4335085344058259e-12
21
-16
31
0.0
40
0.75000000000000011
41
3.3080500344590398
42
4.7123889803844694
0
ARC
5
114
100
AcDbEntity
8
OUTER_PROFILES
100
AcDbCircle
10
-1191.4555000003925
20
109.04764816757235
30
0
40
2.5445000000000562
210
0
220
-0
230
-1
100
AcDbArc
50
180
51
257.37328904069255
0
LINE
5
115
100
AcDbEntity
8
OUTER_PROFILES
100
AcDbLine
10
1194.0000000003924
20
109.04764816756639
30
0
11
1194.0000000003279
21
121.04778684081992
31
0
0
ARC
5
116
100
AcDbEntity
8
OUTER_PROFILES
100
AcDbCircle
10
-1192.0000000003279
20
121.04778684081943
30
0
40
1.9999999999999929
210
0
220
0
230
-1
100
AcDbArc
50
89.999999999986969
51
180
0
LINE
5
117
100
AcDbEntity
8
OUTER_PROFILES
100
AcDbLine
10
1192.0000000003274
20
123.04778684081941
30
0
11
3.2784441827971023e-10
21
123.04778684054088
31
0
0
ARC
5
118
100
AcDbEntity
8
OUTER_PROFILES
100
AcDbCircle
10
-3.2841285246831831e-10
20
121.04778684054089
30
0
40
2
210
-0
220
0
230
-1
100
AcDbArc
50
0
51
89.999999999983714
0
LINE
5
119
100
AcDbEntity
8
OUTER_PROFILES
100
AcDbLine
10
-1.9999999996715871
20
121.04778684054043
30
0
11
-1.9999999996069009
21
109.04764816713441
31
0
0
SPLINE
5
120
100
AcDbEntity
8
INTERIOR_PROFILES
100
AcDbSpline
70
0
71
3
72
11
73
7
74
0
42
0.000000001
43
0.0000000001
44
0.0000000001
40
0.31591804559661718
40
0.31591804559661718
40
0.31591804559661718
40
0.31591804559661718
40
0.50001066403164507
40
0.50001066403164507
40
0.50001066403164507
40
0.6203014912773116
40
0.6203014912773116
40
0.6203014912773116
40
0.6203014912773116
10
32.374772707369459
20
13.999999999999932
30
0
10
31.990850893800626
20
14.380019766206873
30
0
10
31.313941270175576
20
14.587617100473169
30
0
10
30.66946514917305
20
14.490045214864091
30
0
10
30.248347961560995
20
14.426289248244606
30
0
10
29.876091627914292
20
14.248314638769397
30
0
10
29.625227291557366
20
13.999999999999924
30
0
0
ARC
5
121
100
AcDbEntity
8
INTERIOR_PROFILES
100
AcDbCircle
10
-30.999999999463625
20
12.999999999201659
30
0
40
1.6999999999997897
210
0
220
0
230
-1
100
AcDbArc
50
-216.03187910574499
51
36.031879105736301
0
ARC
5
122
100
AcDbEntity
8
INTERIOR_PROFILES
100
AcDbCircle
10
-5.0000000001151079
20
13.000000004583629
30
0
40
1.7000000000000004
210
0
220
0
230
-1
100
AcDbArc
50
-216.03187888144166
51
36.031878881439077
0
SPLINE
5
123
100
AcDbEntity
8
INTERIOR_PROFILES
100
AcDbSpline
70
0
71
3
72
11
73
7
74
0
42
0.000000001
43
0.0000000001
44
0.0000000001
40
0.31591804557803665
40
0.31591804557803665
40
0.31591804557803665
40
0.31591804557803665
40
0.50001066383189219
40
0.50001066383189219
40
0.50001066383189219
40
0.6203014925618483
40
0.6203014925618483
40
0.6203014925618483
40
0.6203014925618483
10
6.3747727119357478
20
13.999999999999932
30
0
10
5.9908509010311661
20
14.380019766697085
30
0
10
5.3139412791129814
20
14.58761710327356
30
0
10
4.6694651586101088
20
14.490045220304948
30
0
10
4.2483479657138901
20
14.426289254561393
30
0
10
3.8760916262523892
20
14.248314642398094
30
0
10
3.6252272882940417
20
13.999999999999941
30
0
0
SPLINE
5
124
100
AcDbEntity
8
INTERIOR_PROFILES
100
AcDbSpline
70
0
71
3
72
11
73
7
74
0
42
0.000000001
43
0.0000000001
44
0.0000000001
40
0.31591804557748127
40
0.31591804557748127
40
0.31591804557748127
40
0.31591804557748127
40
0.50001066382602677
40
0.50001066382602677
40
0.50001066382602677
40
0.6203014926005207
40
0.6203014926005207
40
0.6203014926005207
40
0.6203014926005207
10
197.37477271167876
20
13.999999999999897
30
0
10
196.99085090085376
20
14.380019766712451
30
0
10
196.31394127898602
20
14.587617103358097
30
0
10
195.66946515849835
20
14.490045220468568
30
0
10
195.24834796544397
20
14.426289254751223
30
0
10
194.87609162580782
20
14.24831464250726
30
0
10
194.62522728780129
20
14.000000000000004
30
0
0
ARC
5
125
100
AcDbEntity
8
INTERIOR_PROFILES
100
AcDbCircle
10
-195.99999999974017
20
13.000000004745669
30
0
40
1.6999999999998359
210
0
220
0
230
-1
100
AcDbArc
50
-216.03187887468718
51
36.03187887468448
0
SPLINE
5
126
100
AcDbEntity
8
INTERIOR_PROFILES
100
AcDbSpline
70
0
71
3
72
11
73
7
74
0
42
0.000000001
43
0.0000000001
44
0.0000000001
40
0.31591804557777553
40
0.31591804557777553
40
0.31591804557777553
40
0.31591804557777553
40
0.50001066382748782
40
0.50001066382748782
40
0.50001066382748782
40
0.62030149258025846
40
0.62030149258025846
40
0.62030149258025846
40
0.62030149258025846
10
97.374772711616941
20
13.999999999999995
30
0
10
96.990850900753856
20
14.380019766700975
30
0
10
96.313941278867645
20
14.587617103310393
30
0
10
95.669465158377562
20
14.490045220385444
30
0
10
95.248347965400342
20
14.426289254656872
30
0
10
94.876091625847465
20
14.248314642453215
30
0
10
94.62522728786297
20
13.999999999999995
30
0
0
ARC
5
127
100
AcDbEntity
8
INTERIOR_PROFILES
100
AcDbCircle
10
-95.999999999740169
20
13.000000004660786
30
0
40
1.6999999999998336
210
0
220
0
230
-1
100
AcDbArc
50
-216.03187887822895
51
36.031878878220517
0
ARC
5
128
100
AcDbEntity
8
INTERIOR_PROFILES
100
AcDbCircle
10
-76.999999999463711
20
12.999999999686604
30
0
40
1.6999999999999993
210
0
220
0
230
-1
100
AcDbArc
50
-216.03187908553102
51
36.031879085530399
0
SPLINE
5
129
100
AcDbEntity
8
INTERIOR_PROFILES
100
AcDbSpline
70
0
71
3
72
11
73
7
74
0
42
0.000000001
43
0.0000000001
44
0.0000000001
40
0.31591804559492298
40
0.31591804559492298
40
0.31591804559492298
40
0.31591804559492298
40
0.50001066401205629
40
0.50001066401205629
40
0.50001066401205629
40
0.62030149139305568
40
0.62030149139305568
40
0.62030149139305568
40
0.62030149139305568
10
78.3747727077224
20
13.99999999999995
30
0
10
77.990850894397283
20
14.380019766247543
30
0
10
77.313941270933526
20
14.587617100722134
30
0
10
76.66946514998159
20
14.490045215356853
30
0
10
76.24834796188793
20
14.426289248818769
30
0
10
75.876091627709172
20
14.248314639099497
30
0
10
75.625227291204737
20
13.999999999999888
30
0
0
ARC
5
130
100
AcDbEntity
8
INTERIOR_PROFILES
100
AcDbCircle
10
-245.99999999974017
20
13.000000004788097
30
0
40
1.6999999999999975
210
0
220
0
230
-1
100
AcDbArc
50
-216.03187887291969
51
36.031878872919513
0
SPLINE
5
131
100
AcDbEntity
8
INTERIOR_PROFILES
100
AcDbSpline
70
0
71
3
72
11
73
7
74
0
42
0.000000001
43
0.0000000001
44
0.0000000001
40
0.31591804557734371
40
0.31591804557734371
40
0.31591804557734371
40
0.31591804557734371
40
0.50001066382811399
40
0.50001066382811399
40
0.50001066382811399
40
0.62030149261064693
40
0.62030149261064693
40
0.62030149261064693
40
0.62030149261064693
10
247.37477271170945
20
13.999999999999959
30
0
10
246.99085090089753
20
14.380019766724272
30
0
10
246.31394127902468
20
14.587617103387771
30
0
10
245.66946515852919
20
14.490045220505641
30
0
10
245.24834796544667
20
14.426289254789655
30
0
10
244.8760916257821
20
14.248314642528639
30
0
10
244.62522728777031
20
13.999999999999959
30
0
0
ARC
5
132
100
AcDbEntity
8
INTERIOR_PROFILES
100
AcDbCircle
10
-546.00000000001091
20
13.00000000504272
30
0
40
1.7000000000000028
210
0
220
0
230
-1
100
AcDbArc
50
-216.03187886230629
51
36.031878862306293
0
SPLINE
5
133
100
AcDbEntity
8
INTERIOR_PROFILES
100
AcDbSpline
70
0
71
3
72
11
73
7
74
0
42
0.000000001
43
0.0000000001
44
0.0000000001
40
0.31591804557645847
40
0.31591804557645847
40
0.31591804557645847
40
0.31591804557645847
40
0.50001066381588277
40
0.50001066381588277
40
0.50001066381588277
40
0.62030149267142831
40
0.62030149267142831
40
0.62030149267142831
40
0.62030149267142831
10
547.37477271216551
20
13.999999999999968
30
0
10
546.9908509014856
20
14.380019766741574
30
0
10
546.31394127970782
20
14.587617103514496
30
0
10
545.66946515924474
20
14.490045220767493
30
0
10
545.2483479659021
20
14.42628925509716
30
0
10
544.8760916259489
20
14.248314642705591
30
0
10
544.62522728785598
20
13.999999999999977
30
0
0
ARC
5
134
100
AcDbEntity
8
INTERIOR_PROFILES
100
AcDbCircle
10
-946.00000000001091
20
13.000000005382253
30
0
40
1.6999999999999709
210
0
220
0
230
-1
100
AcDbArc
50
-216.03187884815966
51
36.031878848157426
0
SPLINE
5
135
100
AcDbEntity
8
INTERIOR_PROFILES
100
AcDbSpline
70
0
71
3
72
11
73
7
74
0
42
0.000000001
43
0.0000000001
44
0.0000000001
40
0.31591804557529007
40
0.31591804557529007
40
0.31591804557529007
40
0.31591804557529007
40
0.50001066380263692
40
0.50001066380263692
40
0.50001066380263692
40
0.62030149275247104
40
0.62030149275247104
40
0.62030149275247104
40
0.62030149275247104
10
947.37477271241244
20
13.999999999999959
30
0
10
946.99085090190226
20
14.380019766770982
30
0
10
946.31394128023544
20
14.587617103689823
30
0
10
945.6694651598059
20
14.490045221111778
30
0
10
945.24834796612731
20
14.426289255497693
30
0
10
944.87609162580429
20
14.248314642935807
30
0
10
944.62522728760882
20
13.999999999999959
30
0
0
ARC
5
136
100
AcDbEntity
8
INTERIOR_PROFILES
100
AcDbCircle
10
-646.00000000001091
20
13.00000000512763
30
0
40
1.6999999999999997
210
0
220
0
230
-1
100
AcDbArc
50
-216.03187885876864
51
36.031878858768636
0
SPLINE
5
137
100
AcDbEntity
8
INTERIOR_PROFILES
100
AcDbSpline
70
0
71
3
72
11
73
7
74
0
42
0.000000001
43
0.0000000001
44
0.0000000001
40
0.31591804557616532
40
0.31591804557616532
40
0.31591804557616532
40
0.31591804557616532
40
0.50001066381253989
40
0.50001066381253989
40
0.50001066381253989
40
0.62030149269168744
40
0.62030149269168744
40
0.62030149269168744
40
0.62030149269168744
10
647.37477271222724
20
13.999999999999968
30
0
10
646.99085090158974
20
14.380019766748973
30
0
10
646.31394127983981
20
14.587617103558284
30
0
10
645.66946515938525
20
14.49004522085362
30
0
10
645.2483479659586
20
14.426289255197391
30
0
10
644.87609162591275
20
14.248314642763082
30
0
10
644.62522728779413
20
13.999999999999995
30
0
0
ARC
5
138
100
AcDbEntity
8
INTERIOR_PROFILES
100
AcDbCircle
10
-746.00000000001091
20
13.000000005212513
30
0
40
1.7000000000000335
210
0
220
0
230
-1
100
AcDbArc
50
-216.03187885522769
51
36.031878855230119
0
SPLINE
5
139
100
AcDbEntity
8
INTERIOR_PROFILES
100
AcDbSpline
70
0
71
3
72
11
73
7
74
0
42
0.000000001
43
0.0000000001
44
0.0000000001
40
0.31591804557587388
40
0.31591804557587388
40
0.31591804557587388
40
0.31591804557587388
40
0.50001066380911519
40
0.50001066380911519
40
0.50001066380911519
40
0.62030149271194901
40
0.62030149271194901
40
0.62030149271194901
40
0.62030149271194901
10
747.37477271228909
20
13.999999999999986
30
0
10
746.99085090169433
20
14.380019766755856
30
0
10
746.3139412799726
20
14.587617103601858
30
0
10
745.66946515952679
20
14.490045220939844
30
0
10
745.24834796601567
20
14.426289255297862
30
0
10
744.87609162587682
20
14.248314642820992
30
0
10
744.62522728773251
20
13.999999999999941
30
0
0
ARC
5
140
100
AcDbEntity
8
INTERIOR_PROFILES
100
AcDbCircle
10
-446.00000000001091
20
13.000000004957846
30
0
40
1.7000000000000017
210
0
220
0
230
-1
100
AcDbArc
50
-216.0318788658449
51
36.031878865843659
0
SPLINE
5
141
100
AcDbEntity
8
INTERIOR_PROFILES
100
AcDbSpline
70
0
71
3
72
11
73
7
74
0
42
0.000000001
43
0.0000000001
44
0.0000000001
40
0.31591804557674963
40
0.31591804557674963
40
0.31591804557674963
40
0.31591804557674963
40
0.5000106638191959
40
0.5000106638191959
40
0.5000106638191959
40
0.62030149265116663
40
0.62030149265116663
40
0.62030149265116663
40
0.62030149265116663
10
447.37477271210395
20
13.999999999999977
30
0
10
446.99085090138141
20
14.380019766734362
30
0
10
446.31394127957577
20
14.5876171034707
30
0
10
445.66946515910445
20
14.490045220681411
30
0
10
445.2483479658456
20
14.426289254996991
30
0
10
444.87609162598488
20
14.248314642647832
30
0
10
444.62522728791782
20
13.999999999999977
30
0
0
SPLINE
5
142
100
AcDbEntity
8
INTERIOR_PROFILES
100
AcDbSpline
70
0
71
3
72
11
73
7
74
0
42
0.000000001
43
0.0000000001
44
0.0000000001
40
0.31591804557719128
40
0.31591804557719128
40
0.31591804557719128
40
0.31591804557719128
40
0.50001066382316628
40
0.50001066382316628
40
0.50001066382316628
40
0.62030149262077827
40
0.62030149262077827
40
0.62030149262077827
40
0.62030149262077827
10
297.37477271201129
20
13.999999999999986
30
0
10
296.99085090122753
20
14.380019766721066
30
0
10
296.31394127938552
20
14.587617103402906
30
0
10
295.66946515890447
20
14.490045220553895
30
0
10
295.24834796576772
20
14.426289254849882
30
0
10
294.87609162604133
20
14.248314642563686
30
0
10
294.62522728801036
20
13.999999999999932
30
0
0
ARC
5
143
100
AcDbEntity
8
INTERIOR_PROFILES
100
AcDbCircle
10
-296.00000000001091
20
13.000000004830525
30
0
40
1.6999999999999633
210
0
220
0
230
-1
100
AcDbArc
50
-216.0318788711518
51
36.031878871146972
0
SPLINE
5
144
100
AcDbEntity
8
INTERIOR_PROFILES
100
AcDbSpline
70
0
71
3
72
11
73
7
74
0
42
0.000000001
43
0.0000000001
44
0.0000000001
40
0.3159180455760186
40
0.3159180455760186
40
0.3159180455760186
40
0.3159180455760186
40
0.50001066381105796
40
0.50001066381105796
40
0.50001066381105796
40
0.62030149270181834
40
0.62030149270181834
40
0.62030149270181834
40
0.62030149270181834
10
697.37477271225828
20
13.999999999999977
30
0
10
696.99085090164147
20
14.380019766752952
30
0
10
696.31394127990438
20
14.587617103580532
30
0
10
695.66946515945358
20
14.490045220896342
30
0
10
695.24834796598554
20
14.426289255246871
30
0
10
694.87609162589422
20
14.248314642791478
30
0
10
694.62522728776332
20
13.99999999999995
30
0
0
ARC
5
145
100
AcDbEntity
8
INTERIOR_PROFILES
100
AcDbCircle
10
-696.00000000001091
20
13.000000005170049
30
0
40
1.6999999999999722
210
0
220
0
230
-1
100
AcDbArc
50
-216.031878857001
51
36.031878856998063
0
ARC
5
146
100
AcDbEntity
8
INTERIOR_PROFILES
100
AcDbCircle
10
-145.99999999974017
20
13.000000004703223
30
0
40
1.7000000000000006
210
0
220
0
230
-1
100
AcDbArc
50
-216.03187887645541
51
36.031878876455387
0
SPLINE
5
147
100
AcDbEntity
8
INTERIOR_PROFILES
100
AcDbSpline
70
0
71
3
72
11
73
7
74
0
42
0.000000001
43
0.0000000001
44
0.0000000001
40
0.31591804557762698
40
0.31591804557762698
40
0.31591804557762698
40
0.31591804557762698
40
0.50001066382789816
40
0.50001066382789816
40
0.50001066382789816
40
0.62030149259039058
40
0.62030149259039058
40
0.62030149259039058
40
0.62030149259039058
10
147.37477271164778
20
13.999999999999932
30
0
10
146.9908509008016
20
14.380019766708871
30
0
10
146.31394127891795
20
14.587617103336523
30
0
10
145.66946515842588
20
14.490045220425181
30
0
10
145.24834796541455
20
14.426289254700553
30
0
10
144.8760916258253
20
14.248314642477933
30
0
10
144.62522728783213
20
14.000000000000004
30
0
0
SPLINE
5
148
100
AcDbEntity
8
INTERIOR_PROFILES
100
AcDbSpline
70
0
71
3
72
11
73
7
74
0
42
0.000000001
43
0.0000000001
44
0.0000000001
40
0.31591804557543179
40
0.31591804557543179
40
0.31591804557543179
40
0.31591804557543179
40
0.500010663805183
40
0.500010663805183
40
0.500010663805183
40
0.62030149274233626
40
0.62030149274233626
40
0.62030149274233626
40
0.62030149274233626
10
897.37477271238163
20
13.999999999999959
30
0
10
896.99085090184803
20
14.380019766769445
30
0
10
896.31394128016268
20
14.58761710366975
30
0
10
895.66946515972631
20
14.490045221067289
30
0
10
895.24834796609309
20
14.426289255444802
30
0
10
894.87609162582066
20
14.248314642905253
30
0
10
894.62522728763986
20
13.999999999999968
30
0
0
ARC
5
149
100
AcDbEntity
8
INTERIOR_PROFILES
100
AcDbCircle
10
-896.00000000001091
20
13.000000005339825
30
0
40
1.6999999999998461
210
0
220
0
230
-1
100
AcDbArc
50
-216.03187884992775
51
36.031878849923487
0
SPLINE
5
150
100
AcDbEntity
8
INTERIOR_PROFILES
100
AcDbSpline
70
0
71
3
72
11
73
7
74
0
42
0.000000001
43
0.0000000001
44
0.0000000001
40
0.31591804557631153
40
0.31591804557631153
40
0.31591804557631153
40
0.31591804557631153
40
0.50001066381350845
40
0.50001066381350845
40
0.50001066381350845
40
0.62030149268155854
40
0.62030149268155854
40
0.62030149268155854
40
0.62030149268155854
10
597.37477271219643
20
13.99999999999995
30
0
10
596.99085090153915
20
14.380019766743795
30
0
10
596.31394127977887
20
14.587617103534916
30
0
10
595.66946515932239
20
14.490045220811663
30
0
10
595.24834796593507
20
14.426289255149456
30
0
10
594.87609162593219
20
14.248314642735664
30
0
10
594.62522728782506
20
13.999999999999968
30
0
0
ARC
5
151
100
AcDbEntity
8
INTERIOR_PROFILES
100
AcDbCircle
10
-596.00000000001091
20
13.000000005085193
30
0
40
1.6999999999998812
210
0
220
0
230
-1
100
AcDbArc
50
-216.03187886053925
51
36.031878860532977
0
SPLINE
5
152
100
AcDbEntity
8
INTERIOR_PROFILES
100
AcDbSpline
70
0
71
3
72
11
73
7
74
0
42
0.000000001
43
0.0000000001
44
0.0000000001
40
0.31591804557572445
40
0.31591804557572445
40
0.31591804557572445
40
0.31591804557572445
40
0.50001066380790571
40
0.50001066380790571
40
0.50001066380790571
40
0.6203014927220728
40
0.6203014927220728
40
0.6203014927220728
40
0.6203014927220728
10
797.37477271232001
20
13.999999999999968
30
0
10
796.99085090174526
20
14.380019766760794
30
0
10
796.31394128003524
20
14.587617103624702
30
0
10
795.66946515959216
20
14.490045220982166
30
0
10
795.24834796604068
20
14.426289255346516
30
0
10
794.87609162585784
20
14.248314642848738
30
0
10
794.6252272877017
20
13.99999999999995
30
0
0
ARC
5
153
100
AcDbEntity
8
INTERIOR_PROFILES
100
AcDbCircle
10
-796.00000000001091
20
13.000000005254924
30
0
40
1.6999999999999169
210
0
220
0
230
-1
100
AcDbArc
50
-216.03187885346361
51
36.031878853463141
0
SPLINE
5
154
100
AcDbEntity
8
INTERIOR_PROFILES
100
AcDbSpline
70
0
71
3
72
11
73
7
74
0
42
0.000000001
43
0.0000000001
44
0.0000000001
40
0.3159180455768999
40
0.3159180455768999
40
0.3159180455768999
40
0.3159180455768999
40
0.50001066382148718
40
0.50001066382148718
40
0.50001066382148718
40
0.62030149264103973
40
0.62030149264103973
40
0.62030149264103973
40
0.62030149264103973
10
397.37477271207297
20
13.999999999999941
30
0
10
396.99085090132769
20
14.380019766732222
30
0
10
396.31394127950512
20
14.587617103450059
30
0
10
395.66946515902771
20
14.490045220637366
30
0
10
395.24834796581331
20
14.426289254944988
30
0
10
394.87609162600177
20
14.248314642617874
30
0
10
394.62522728794863
20
13.99999999999995
30
0
0
ARC
5
155
100
AcDbEntity
8
INTERIOR_PROFILES
100
AcDbCircle
10
-396.00000000001091
20
13.000000004915426
30
0
40
1.6999999999998716
210
0
220
0
230
-1
100
AcDbArc
50
-216.03187886761381
51
36.031878867609571
0
SPLINE
5
156
100
AcDbEntity
8
INTERIOR_PROFILES
100
AcDbSpline
70
0
71
3
72
11
73
7
74
0
42
0.000000001
43
0.0000000001
44
0.0000000001
40
0.31591804557660574
40
0.31591804557660574
40
0.31591804557660574
40
0.31591804557660574
40
0.50001066381790027
40
0.50001066381790027
40
0.50001066381790027
40
0.62030149266129997
40
0.62030149266129997
40
0.62030149266129997
40
0.62030149266129997
10
497.37477271213481
20
13.999999999999968
30
0
10
496.99085090143285
20
14.380019766738652
30
0
10
496.31394127963915
20
14.587617103493367
30
0
10
495.66946515917084
20
14.490045220723875
30
0
10
495.24834796587129
20
14.426289255045948
30
0
10
494.87609162596613
20
14.248314642675979
30
0
10
494.62522728788684
20
13.999999999999932
30
0
0
ARC
5
157
100
AcDbEntity
8
INTERIOR_PROFILES
100
AcDbCircle
10
-496.00000000001091
20
13.000000005000309
30
0
40
1.6999999999999469
210
0
220
0
230
-1
100
AcDbArc
50
-216.03187886407486
51
36.031878864070549
0
ARC
5
158
100
AcDbEntity
8
INTERIOR_PROFILES
100
AcDbCircle
10
-846.00000000001091
20
13.000000005297396
30
0
40
1.700000000000004
210
0
220
0
230
-1
100
AcDbArc
50
-216.03187885169382
51
36.031878851693328
0
SPLINE
5
159
100
AcDbEntity
8
INTERIOR_PROFILES
100
AcDbSpline
70
0
71
3
72
11
73
7
74
0
42
0.000000001
43
0.0000000001
44
0.0000000001
40
0.31591804557557862
40
0.31591804557557862
40
0.31591804557557862
40
0.31591804557557862
40
0.50001066380662407
40
0.50001066380662407
40
0.50001066380662407
40
0.62030149273220392
40
0.62030149273220392
40
0.62030149273220392
40
0.62030149273220392
10
847.37477271235082
20
13.999999999999977
30
0
10
846.99085090179642
20
14.38001976676536
30
0
10
846.31394128009845
20
14.587617103647421
30
0
10
845.66946515965833
20
14.490045221024603
30
0
10
845.24834796606638
20
14.426289255395419
30
0
10
844.87609162583908
20
14.24831464287676
30
0
10
844.6252272876709
20
13.999999999999959
30
0
0
SPLINE
5
160
100
AcDbEntity
8
INTERIOR_PROFILES
100
AcDbSpline
70
0
71
3
72
11
73
7
74
0
42
0.000000001
43
0.0000000001
44
0.0000000001
40
0.31591804557514208
40
0.31591804557514208
40
0.31591804557514208
40
0.31591804557514208
40
0.50001066380109216
40
0.50001066380109216
40
0.50001066380109216
40
0.62030149276259272
40
0.62030149276259272
40
0.62030149276259272
40
0.62030149276259272
10
997.37477271244325
20
13.999999999999968
30
0
10
996.99085090195399
20
14.380019766774987
30
0
10
996.31394128030024
20
14.587617103711912
30
0
10
995.66946515987502
20
14.49004522115465
30
0
10
995.24834796615505
20
14.426289255547493
30
0
10
994.8760916257861
20
14.24831464296445
30
0
10
994.62522728757801
20
14.000000000000004
30
0
0
ARC
5
161
100
AcDbEntity
8
INTERIOR_PROFILES
100
AcDbCircle
10
-996.00000000001091
20
13.000000005424717
30
0
40
1.6999999999997906
210
0
220
0
230
-1
100
AcDbArc
50
-216.03187884639254
51
36.031878846384537
0
ARC
5
162
100
AcDbEntity
8
INTERIOR_PROFILES
100
AcDbCircle
10
-346.00000000001091
20
13.000000004872989
30
0
40
1.699999999999984
210
0
220
0
230
-1
100
AcDbArc
50
-216.03187886938156
51
36.031878869379327
0
SPLINE
5
163
100
AcDbEntity
8
INTERIOR_PROFILES
100
AcDbSpline
70
0
71
3
72
11
73
7
74
0
42
0.000000001
43
0.0000000001
44
0.0000000001
40
0.3159180455770435
40
0.3159180455770435
40
0.3159180455770435
40
0.3159180455770435
40
0.50001066382032677
40
0.50001066382032677
40
0.50001066382032677
40
0.62030149263091072
40
0.62030149263091072
40
0.62030149263091072
40
0.62030149263091072
10
347.37477271204216
20
13.999999999999995
30
0
10
346.99085090128222
20
14.380019766722016
30
0
10
346.31394127945981
20
14.587617103422339
30
0
10
345.66946515898707
20
14.490045220598819
30
0
10
345.2483479658041
20
14.426289254903661
30
0
10
344.87609162602553
20
14.248314642594702
30
0
10
344.6252272879795
20
13.99999999999995
30
0
0
SPLINE
5
164
100
AcDbEntity
8
INTERIOR_PROFILES
100
AcDbSpline
70
0
71
3
72
11
73
7
74
0
42
0.000000001
43
0.0000000001
44
0.0000000001
40
0.31591804557440917
40
0.31591804557440917
40
0.31591804557440917
40
0.31591804557440917
40
0.50001066379446746
40
0.50001066379446746
40
0.50001066379446746
40
0.62030149281343772
40
0.62030149281343772
40
0.62030149281343772
40
0.62030149281343772
10
1162.3747727126042
20
13.999999999999968
30
0
10
1161.9908509022175
20
14.380019766797121
30
0
10
1161.3139412806247
20
14.587617103825448
30
0
10
1160.6694651602149
20
14.49004522136792
30
0
10
1160.2483479662903
20
14.426289255793412
30
0
10
1159.8760916256977
20
14.248314643105395
30
0
10
1159.625227287429
20
13.999999999999915
30
0
0
ARC
5
165
100
AcDbEntity
8
INTERIOR_PROFILES
100
AcDbCircle
10
-1161.0000000000168
20
13.000000005637702
30
0
40
1.6999999999998849
210
0
220
0
230
-1
100
AcDbArc
50
-216.03187883751323
51
36.031878837507264
0
SPLINE
5
166
100
AcDbEntity
8
INTERIOR_PROFILES
100
AcDbSpline
70
0
71
3
72
11
73
7
74
0
42
0.000000001
43
0.0000000001
44
0.0000000001
40
0.31591804557484954
40
0.31591804557484954
40
0.31591804557484954
40
0.31591804557484954
40
0.5000106637988786
40
0.5000106637988786
40
0.5000106637988786
40
0.6203014927828483
40
0.6203014927828483
40
0.6203014927828483
40
0.6203014927828483
10
1097.3747727125051
20
13.999999999999968
30
0
10
1096.9908509020556
20
14.380019766784837
30
0
10
1096.3139412804244
20
14.587617103758097
30
0
10
1095.6694651600035
20
14.490045221238947
30
0
10
1095.2483479662035
20
14.426289255644118
30
0
10
1094.8760916257474
20
14.248314643019766
30
0
10
1094.6252272875163
20
13.999999999999977
30
0
0
ARC
5
167
100
AcDbEntity
8
INTERIOR_PROFILES
100
AcDbCircle
10
-1096.0000000000109
20
13.0000000055096
30
0
40
1.6999999999998503
210
0
220
0
230
-1
100
AcDbArc
50
-216.0318788428529
51
36.031878842848663
0
ARC
5
168
100
AcDbEntity
8
INTERIOR_PROFILES
100
AcDbCircle
10
-1115.0000000000166
20
13.000000005598658
30
0
40
1.7000000000000011
210
0
220
0
230
-1
100
AcDbArc
50
-216.03187883913722
51
36.031878839137242
0
SPLINE
5
169
100
AcDbEntity
8
INTERIOR_PROFILES
100
AcDbSpline
70
0
71
3
72
11
73
7
74
0
42
0.000000001
43
0.0000000001
44
0.0000000001
40
0.31591804557453301
40
0.31591804557453301
40
0.31591804557453301
40
0.31591804557453301
40
0.50001066379428583
40
0.50001066379428583
40
0.50001066379428583
40
0.62030149280411262
40
0.62030149280411262
40
0.62030149280411262
40
0.62030149280411262
10
1116.3747727125756
20
13.99999999999995
30
0
10
1115.9908509021734
20
14.380019766789776
30
0
10
1115.3139412805765
20
14.587617103801858
30
0
10
1114.6694651601679
20
14.490045221331025
30
0
10
1114.2483479662756
20
14.426289255752565
30
0
10
1113.8760916257177
20
14.248314643082391
30
0
10
1113.6252272874574
20
13.999999999999968
30
0
0
ARC
5
170
100
AcDbEntity
8
INTERIOR_PROFILES
100
AcDbCircle
10
-1046.0000000000109
20
13.000000005467127
30
0
40
1.7000000000000108
210
0
220
0
230
-1
100
AcDbArc
50
-216.03187884461909
51
36.031878844618994
0
SPLINE
5
171
100
AcDbEntity
8
INTERIOR_PROFILES
100
AcDbSpline
70
0
71
3
72
11
73
7
74
0
42
0.000000001
43
0.0000000001
44
0.0000000001
40
0.31591804557498959
40
0.31591804557498959
40
0.31591804557498959
40
0.31591804557498959
40
0.50001066380162529
40
0.50001066380162529
40
0.50001066380162529
40
0.62030149277272673
40
0.62030149277272673
40
0.62030149277272673
40
0.62030149277272673
10
1047.3747727124742
20
13.999999999999968
30
0
10
1046.9908509020013
20
14.380019766783239
30
0
10
1046.3139412803503
20
14.587617103738468
30
0
10
1045.6694651599219
20
14.490045221194157
30
0
10
1045.2483479661678
20
14.426289255590596
30
0
10
1044.8760916257634
20
14.248314642988831
30
0
10
1044.6252272875472
20
13.999999999999968
30
0
0
ARC
5
172
100
AcDbEntity
8
INTERIOR_PROFILES
100
AcDbCircle
10
-1186.9999999999068
20
13.000000005586898
30
0
40
1.7000000000000099
210
0
220
0
230
-1
100
AcDbArc
50
-216.0318788396284
51
36.031878839623865
0
SPLINE
5
173
100
AcDbEntity
8
INTERIOR_PROFILES
100
AcDbSpline
70
0
71
3
72
11
73
7
74
0
42
0.000000001
43
0.0000000001
44
0.0000000001
40
0.3159180455745802
40
0.3159180455745802
40
0.3159180455745802
40
0.3159180455745802
40
0.50001066379472836
40
0.50001066379472836
40
0.50001066379472836
40
0.62030149280131752
40
0.62030149280131752
40
0.62030149280131752
40
0.62030149280131752
10
1188.3747727124571
20
13.999999999999932
30
0
10
1187.9908509020486
20
14.380019766789234
30
0
10
1187.3139412804485
20
14.587617103795667
30
0
10
1186.6694651600392
20
14.490045221319159
30
0
10
1186.2483479661587
20
14.426289255738851
30
0
10
1185.8760916256126
20
14.248314643074274
30
0
10
1185.6252272873558
20
14.000000000000004
30
0
0
CIRCLE
5
174
100
AcDbEntity
8
INTERIOR_PROFILES
100
AcDbCircle
10
-40.00000000005187
20
84.151393416553347
30
0
40
1.6999999999999993
210
0
220
0
230
-1
0
CIRCLE
5
175
100
AcDbEntity
8
INTERIOR_PROFILES
100
AcDbCircle
10
-1140.6862500000166
20
41.927903591492431
30
0
40
1.7000000000000171
210
0
220
0
230
-1
0
CIRCLE
5
176
100
AcDbEntity
8
INTERIOR_PROFILES
100
AcDbCircle
10
-596.00000000001387
20
38.896393416084301
30
0
40
1.7000000000000171
210
0
220
0
230
-1
0
CIRCLE
5
177
100
AcDbEntity
8
INTERIOR_PROFILES
100
AcDbCircle
10
-1163.3137500000164
20
41.927903591473324
30
0
40
1.7000000000000171
210
0
220
0
230
-1
0
CIRCLE
5
178
100
AcDbEntity
8
INTERIOR_PROFILES
100
AcDbCircle
10
-618.62750000003291
20
61.523893416065214
30
0
40
1.7000000000000171
210
0
220
0
230
-1
0
CIRCLE
5
179
100
AcDbEntity
8
INTERIOR_PROFILES
100
AcDbCircle
10
-573.37250000003291
20
61.523893416103391
30
0
40
1.7000000000000171
210
0
220
0
230
-1
0
CIRCLE
5
180
100
AcDbEntity
8
INTERIOR_PROFILES
100
AcDbCircle
10
-51.313750000016256
20
41.927903592411404
30
0
40
1.6999999999999993
210
0
220
0
230
-1
0
CIRCLE
5
181
100
AcDbEntity
8
INTERIOR_PROFILES
100
AcDbCircle
10
-17.372500000033142
20
61.523893416572434
30
0
40
1.6999999999999993
210
0
220
0
230
-1
0
CIRCLE
5
182
100
AcDbEntity
8
INTERIOR_PROFILES
100
AcDbCircle
10
-1152.0000000000139
20
38.896393415615265
30
0
40
1.7000000000000171
210
0
220
0
230
-1
0
CIRCLE
5
183
100
AcDbEntity
8
INTERIOR_PROFILES
100
AcDbCircle
10
-1174.627500000033
20
61.523893415596177
30
0
40
1.7000000000000171
210
0
220
0
230
-1
0
CIRCLE
5
184
100
AcDbEntity
8
INTERIOR_PROFILES
100
AcDbCircle
10
-1129.3725000000329
20
61.523893415634348
30
0
40
1.7000000000000171
210
0
220
0
230
-1
0
CIRCLE
5
185
100
AcDbEntity
8
INTERIOR_PROFILES
100
AcDbCircle
10
-51.313750000049794
20
81.119883240676174
30
0
40
1.6999999999999993
210
0
220
0
230
-1
0
CIRCLE
5
186
100
AcDbEntity
8
INTERIOR_PROFILES
100
AcDbCircle
10
-1140.6862500000495
20
81.1198832397572
30
0
40
1.7000000000000171
210
0
220
0
230
-1
0
CIRCLE
5
187
100
AcDbEntity
8
INTERIOR_PROFILES
100
AcDbCircle
10
-1163.3137500000496
20
81.119883239738101
30
0
40
1.7000000000000171
210
0
220
0
230
-1
0
CIRCLE
5
188
100
AcDbEntity
8
INTERIOR_PROFILES
100
AcDbCircle
10
-596.00000000005218
20
84.151393416084289
30
0
40
1.7000000000000171
210
0
220
0
230
-1
0
CIRCLE
5
189
100
AcDbEntity
8
INTERIOR_PROFILES
100
AcDbCircle
10
-40.000000000032969
20
61.523893416553335
30
0
40
1.6999999999999993
210
0
220
0
230
-1
0
CIRCLE
5
190
100
AcDbEntity
8
INTERIOR_PROFILES
100
AcDbCircle
10
-40.000000000013785
20
38.896393416553337
30
0
40
1.6999999999999993
210
0
220
0
230
-1
0
CIRCLE
5
191
100
AcDbEntity
8
INTERIOR_PROFILES
100
AcDbCircle
10
-607.3137500000164
20
41.927903591942354
30
0
40
1.7000000000000171
210
0
220
0
230
-1
0
CIRCLE
5
192
100
AcDbEntity
8
INTERIOR_PROFILES
100
AcDbCircle
10
-62.627500000033081
20
61.523893416534243
30
0
40
1.6999999999999993
210
0
220
0
230
-1
0
CIRCLE
5
193
100
AcDbEntity
8
INTERIOR_PROFILES
100
AcDbCircle
10
-28.686250000049682
20
81.119883240695287
30
0
40
1.6999999999999993
210
0
220
0
230
-1
0
CIRCLE
5
194
100
AcDbEntity
8
INTERIOR_PROFILES
100
AcDbCircle
10
-28.686250000016429
20
41.927903592430496
30
0
40
1.6999999999999993
210
0
220
0
230
-1
0
CIRCLE
5
195
100
AcDbEntity
8
INTERIOR_PROFILES
100
AcDbCircle
10
-584.68625000001646
20
41.927903591961467
30
0
40
1.7000000000000171
210
0
220
0
230
-1
0
CIRCLE
5
196
100
AcDbEntity
8
INTERIOR_PROFILES
100
AcDbCircle
10
-1152.0000000000523
20
84.151393415615289
30
0
40
1.7000000000000171
210
0
220
0
230
-1
0
CIRCLE
5
197
100
AcDbEntity
8
INTERIOR_PROFILES
100
AcDbCircle
10
-671.00000000005502
20
96.785840130110614
30
0
40
1.6999999999999993
210
0
220
0
230
-1
0
CIRCLE
5
198
100
AcDbEntity
8
INTERIOR_PROFILES
100
AcDbCircle
10
-71.00000000000918
20
26.261946710586699
30
0
40
1.6999999999999993
210
0
220
0
230
-1
0
CIRCLE
5
199
100
AcDbEntity
8
INTERIOR_PROFILES
100
AcDbCircle
10
-1121.0000000000093
20
26.261946710586699
30
0
40
1.6999999999999993
210
0
220
0
230
-1
0
CIRCLE
5
200
100
AcDbEntity
8
INTERIOR_PROFILES
100
AcDbCircle
10
-596.00000000000909
20
26.261946710586699
30
0
40
1.6999999999999993
210
0
220
0
230
-1
0
CIRCLE
5
201
100
AcDbEntity
8
INTERIOR_PROFILES
100
AcDbCircle
10
-1121.000000000055
20
96.78584013021576
30
0
40
1.6999999999999993
210
0
220
0
230
-1
0
CIRCLE
5
202
100
AcDbEntity
8
INTERIOR_PROFILES
100
AcDbCircle
10
-596.00000000005502
20
96.785840130093078
30
0
40
1.6999999999999993
210
0
220
0
230
-1
0
CIRCLE
5
203
100
AcDbEntity
8
INTERIOR_PROFILES
100
AcDbCircle
10
-5.0000000000365219
20
120.047786843322
30
0
40
1.7000000000000004
210
0
220
0
230
-1
0
CIRCLE
5
204
100
AcDbEntity
8
INTERIOR_PROFILES
100
AcDbCircle
10
-1187.0000000000366
20
120.04778684487768
30
0
40
1.7000000000000171
210
0
220
0
230
-1
0
CIRCLE
5
205
100
AcDbEntity
8
INTERIOR_PROFILES
100
AcDbCircle
10
-5.0000000000193268
20
3.0000000045834874
30
0
40
1.7000000000000004
210
0
220
0
230
-1
0
CIRCLE
5
206
100
AcDbEntity
8
INTERIOR_PROFILES
100
AcDbCircle
10
-607.31375000004959
20
81.119883240207116
30
0
40
1.7000000000000171
210
0
220
0
230
-1
0
CIRCLE
5
207
100
AcDbEntity
8
INTERIOR_PROFILES
100
AcDbCircle
10
-1187.0000000000196
20
3.0000000055867559
30
0
40
1.7000000000000171
210
0
220
0
230
-1
0
CIRCLE
5
208
100
AcDbEntity
8
INTERIOR_PROFILES
100
AcDbCircle
10
-521.00000000005491
20
96.78584013007557
30
0
40
1.6999999999999993
210
0
220
0
230
-1
0
CIRCLE
5
209
100
AcDbEntity
8
INTERIOR_PROFILES
100
AcDbCircle
10
-671.00000000000909
20
26.261946710586692
30
0
40
1.6999999999999993
210
0
220
0
230
-1
0
CIRCLE
5
210
100
AcDbEntity
8
INTERIOR_PROFILES
100
AcDbCircle
10
-71.000000000054939
20
96.785840129970424
30
0
40
1.6999999999999993
210
0
220
0
230
-1
0
CIRCLE
5
211
100
AcDbEntity
8
INTERIOR_PROFILES
100
AcDbCircle
10
-521.00000000000921
20
26.261946710586699
30
0
40
1.6999999999999993
210
0
220
0
230
-1
0
CIRCLE
5
212
100
AcDbEntity
8
INTERIOR_PROFILES
100
AcDbCircle
10
-584.68625000004954
20
81.119883240226244
30
0
40
1.7000000000000171
210
0
220
0
230
-1
0
LINE
5
213
100
AcDbEntity
8
BEND
100
AcDbLine
10
-1.7349063197389114
20
107.91681348524693
30
-6.4535016219835484e-10
11
1193.734906320449
21
107.91681348552628
31
6.4378002928577871e-10
0
LINE
5
214
100
AcDbEntity
8
BEND
100
AcDbLine
10
1193.7349063201063
20
15.130973355293351
30
-5.0554463393304161e-10
11
-1.7349063200880721
21
15.130973355293333
31
5.0530968298545531e-10
0
LINE
5
215
100
AcDbEntity
8
BEND
100
AcDbLine
10
1182.0000000000155
20
33.392920065880205
30
-2.8504976157250894e-13
11
9.9999999999998579
21
33.392920065880212
31
-2.8102520310824275e-13
0
LINE
5
216
100
AcDbEntity
8
BEND
100
AcDbLine
10
9.9999999999884892
20
89.654866774661087
30
-3.7483904868906848e-13
11
1182.0000000000032
21
89.654866774934945
31
-3.7442271505483404e-13
0
LINE
5
217
100
AcDbEntity
8
BEND_EXTENT
100
AcDbLine
10
1192.6211348712782
20
106.78584013023247
30
-5.9285909514983359e-13
11
-0.62113487078789831
21
106.78584012995367
31
-5.9285909514983359e-13
0
LINE
5
218
100
AcDbEntity
8
BEND_EXTENT
100
AcDbLine
10
-1.9999999996684892
20
109.04778684054043
30
-6.2616578588858829e-13
11
1194.0000000003304
21
109.0477868408199
31
-6.1728400169158704e-13
0
LINE
5
219
100
AcDbEntity
8
BEND_EXTENT
100
AcDbLine
10
10.000000000048033
20
90.785840129952646
30
-3.9301895071730542e-13
11
1182.000000000065
21
90.785840130230028
31
-3.8413716652030416e-13
0
LINE
5
220
100
AcDbEntity
8
BEND_EXTENT
100
AcDbLine
10
1182.0000000000643
20
88.523893419644892
30
-3.5749181392930041e-13
11
10.000000000047464
21
88.523893419371049
31
-3.5749181392930041e-13
0
LINE
5
221
100
AcDbEntity
8
BEND_EXTENT
100
AcDbLine
10
10.000000000001421
20
34.523893421171181
30
-3.5749181392930041e-13
11
1182.0000000000182
21
34.523893421171167
31
-3.5749181392930041e-13
0
LINE
5
222
100
AcDbEntity
8
BEND_EXTENT
100
AcDbLine
10
1182.0000000000177
20
32.261946710586685
30
-3.397282455352979e-13
11
10.000000000000711
21
32.261946710590223
31
-3.397282455352979e-13
0
LINE
5
223
100
AcDbEntity
8
BEND_EXTENT
100
AcDbLine
10
-0.6211348710287723
20
16.261946710586692
30
-2.0650148258027912e-13
11
1192.6211348710472
21
16.261946710586692
31
-2.0650148258027912e-13
0
LINE
5
224
100
AcDbEntity
8
BEND_EXTENT
100
AcDbLine
10
3.6252272882941838
20
13.999999999999995
30
-1.0436096431476471e-13
11
-2.000000000000739
21
13.999999999999995
31
-2.1094237467877974e-13
0
LINE
5
225
100
AcDbEntity
8
BEND_EXTENT
100
AcDbLine
10
29.625227291557508
20
13.999999999999995
30
-1.0436096431476471e-13
11
6.3747727119358899
21
13.999999999999977
31
-1.0436096431476471e-13
0
LINE
5
226
100
AcDbEntity
8
BEND_EXTENT
100
AcDbLine
10
75.62522729120488
20
13.999999999999986
30
-1.1324274851176597e-13
11
32.374772707369743
21
14.000000000000004
31
-1.1324274851176597e-13
0
LINE
5
227
100
AcDbEntity
8
BEND_EXTENT
100
AcDbLine
10
94.625227287863254
20
13.999999999999995
30
-1.2212453270876722e-13
11
78.374772707722542
21
13.999999999999986
31
-1.1324274851176597e-13
0
LINE
5
228
100
AcDbEntity
8
BEND_EXTENT
100
AcDbLine
10
144.62522728783227
20
14.000000000000004
30
-1.2434497875801753e-13
11
97.374772711617084
21
14.000000000000004
31
-1.2212453270876722e-13
0
LINE
5
229
100
AcDbEntity
8
BEND_EXTENT
100
AcDbLine
10
194.62522728780144
20
14.000000000000004
30
-1.3322676295501878e-13
11
147.37477271164806
21
13.999999999999995
31
-1.2434497875801753e-13
0
LINE
5
230
100
AcDbEntity
8
BEND_EXTENT
100
AcDbLine
10
244.6252272877706
20
13.999999999999995
30
-1.4210854715202004e-13
11
197.3747727116789
21
13.999999999999986
31
-1.3322676295501878e-13
0
LINE
5
231
100
AcDbEntity
8
BEND_EXTENT
100
AcDbLine
10
294.62522728801048
20
13.999999999999986
30
-1.4210854715202004e-13
11
247.37477271170974
21
13.999999999999995
31
-1.4210854715202004e-13
0
LINE
5
232
100
AcDbEntity
8
BEND_EXTENT
100
AcDbLine
10
344.6252272879795
20
13.999999999999995
30
-1.5987211554602254e-13
11
297.37477271201129
21
13.999999999999986
31
-1.5099033134902129e-13
0
LINE
5
233
100
AcDbEntity
8
BEND_EXTENT
100
AcDbLine
10
394.62522728794863
20
13.999999999999986
30
-1.5987211554602254e-13
11
347.37477271204227
21
14.000000000000004
31
-1.5987211554602254e-13
0
LINE
5
234
100
AcDbEntity
8
BEND_EXTENT
100
AcDbLine
10
444.62522728791782
20
14.000000000000004
30
-1.7097434579227411e-13
11
397.37477271207308
21
13.999999999999986
31
-1.5987211554602254e-13
0
LINE
5
235
100
AcDbEntity
8
BEND_EXTENT
100
AcDbLine
10
494.62522728788701
20
13.999999999999986
30
-1.7985612998927536e-13
11
447.37477271210395
21
13.999999999999995
31
-1.7097434579227411e-13
0
LINE
5
236
100
AcDbEntity
8
BEND_EXTENT
100
AcDbLine
10
544.62522728785609
20
13.999999999999995
30
-1.8873791418627661e-13
11
497.37477271213481
21
13.999999999999968
31
-1.7985612998927536e-13
0
LINE
5
237
100
AcDbEntity
8
BEND_EXTENT
100
AcDbLine
10
594.62522728782517
20
13.999999999999968
30
-1.9761969838327786e-13
11
547.37477271216574
21
13.999999999999986
31
-1.8873791418627661e-13
0
LINE
5
238
100
AcDbEntity
8
BEND_EXTENT
100
AcDbLine
10
644.62522728779436
20
14.000000000000004
30
-1.9761969838327786e-13
11
597.37477271219655
21
14.000000000000004
31
-1.8873791418627661e-13
0
LINE
5
239
100
AcDbEntity
8
BEND_EXTENT
100
AcDbLine
10
694.62522728776344
20
14.000000000000004
30
-2.0650148258027912e-13
11
647.37477271222747
21
13.999999999999986
31
-2.0650148258027912e-13
0
LINE
5
240
100
AcDbEntity
8
BEND_EXTENT
100
AcDbLine
10
744.62522728773251
20
13.999999999999986
30
-2.1760371282653068e-13
11
697.37477271225828
21
13.999999999999995
31
-2.0650148258027912e-13
0
LINE
5
241
100
AcDbEntity
8
BEND_EXTENT
100
AcDbLine
10
794.6252272877017
20
14.000000000000012
30
-2.2648549702353193e-13
11
747.37477271228931
21
13.999999999999968
31
-2.0872192862952943e-13
0
LINE
5
242
100
AcDbEntity
8
BEND_EXTENT
100
AcDbLine
10
844.6252272876709
20
13.999999999999968
30
-2.2648549702353193e-13
11
797.37477271232012
21
14.000000000000004
31
-2.2648549702353193e-13
0
LINE
5
243
100
AcDbEntity
8
BEND_EXTENT
100
AcDbLine
10
894.62522728763997
20
14.000000000000004
30
-2.4424906541753444e-13
11
847.37477271235093
21
14.000000000000004
31
-2.2648549702353193e-13
0
LINE
5
244
100
AcDbEntity
8
BEND_EXTENT
100
AcDbLine
10
944.62522728760905
20
13.999999999999995
30
-2.4424906541753444e-13
11
897.37477271238174
21
13.999999999999986
31
-2.4424906541753444e-13
0
LINE
5
245
100
AcDbEntity
8
BEND_EXTENT
100
AcDbLine
10
994.62522728757813
20
13.999999999999986
30
-2.5313084961453569e-13
11
947.37477271241255
21
13.999999999999995
31
-2.4424906541753444e-13
0
LINE
5
246
100
AcDbEntity
8
BEND_EXTENT
100
AcDbLine
10
1044.6252272875474
20
13.999999999999995
30
-2.6423307986078726e-13
11
997.37477271244347
21
13.999999999999968
31
-2.4424906541753444e-13
0
LINE
5
247
100
AcDbEntity
8
BEND_EXTENT
100
AcDbLine
10
1094.6252272875165
20
13.999999999999986
30
-2.6423307986078726e-13
11
1047.3747727124744
21
13.999999999999995
31
-2.6423307986078726e-13
0
LINE
5
248
100
AcDbEntity
8
BEND_EXTENT
100
AcDbLine
10
1113.6252272874574
20
14.000000000000004
30
-2.7311486405778851e-13
11
1097.3747727125053
21
13.999999999999995
31
-2.6423307986078726e-13
0
LINE
5
249
100
AcDbEntity
8
BEND_EXTENT
100
AcDbLine
10
1159.6252272874292
20
13.999999999999986
30
-2.7311486405778851e-13
11
1116.3747727125758
21
14.000000000000004
31
-2.7311486405778851e-13
0
LINE
5
250
100
AcDbEntity
8
BEND_EXTENT
100
AcDbLine
10
1185.625227287356
20
14.000000000000004
30
-2.8199664825478976e-13
11
1162.3747727126042
21
14.000000000000004
31
-2.8199664825478976e-13
0
LINE
5
251
100
AcDbEntity
8
BEND_EXTENT
100
AcDbLine
10
1194.0000000000166
20
13.999999999999995
30
-2.0206059048177849e-13
11
1188.3747727124573
21
13.999999999999995
31
-2.8199664825478976e-13
0
ENDSEC
0
SECTION
2
OBJECTS
0
DICTIONARY
5
C
100
AcDbDictionary
3
ACAD_GROUP
350
D
3
ACAD_MLINESTYLE
350
17
0
DICTIONARY
5
D
100
AcDbDictionary
0
DICTIONARY
5
1A
330
C
100
AcDbDictionary
0
DICTIONARY
5
17
100
AcDbDictionary
0
ENDSEC
0
EOF
