0
SECTION
2
HEADER
9
$INSUNITS
70
4
9
$ACADVER
1
AC1014
9
$HANDSEED
5
FFFF
0
ENDSEC
0
SECTION
2
TABLES
0
TABLE
2
VPORT
5
8
100
AcDbSymbolTable
0
ENDTAB
0
TABLE
2
LTYPE
5
5
100
AcDbSymbolTable
0
LTYPE
5
14
100
AcDbSymbolTableRecord
100
AcDbLinetypeTableRecord
2
BYBLOCK
70
0
0
LTYPE
5
15
100
AcDbSymbolTableRecord
100
AcDbLinetypeTableRecord
2
BYLAYER
70
0
0
LTYPE
5
16
100
AcDbSymbolTableRecord
100
AcDbLinetypeTableRecord
2
DASHED
70
0
3
Dashed __ __ __ __ __ __ __ __ __ __ __ __ __ _
72
65
73
2
40
0.75
49
0.5
74
0
49
-0.25
74
0
0
ENDTAB
0
TABLE
2
LAYER
5
2
100
AcDbSymbolTable
70
2
0
LAYER
5
50
100
AcDbSymbolTableRecord
100
AcDbLayerTableRecord
2
0
70
0
62
7
6
CONTINUOUS
0
ENDTAB
0
TABLE
2
STYLE
5
3
100
AcDbSymbolTable
70
1
0
STYLE
5
11
100
AcDbSymbolTableRecord
100
AcDbTextStyleTableRecord
2
STANDARD
70
0
0
ENDTAB
0
TABLE
2
VIEW
5
6
100
AcDbSymbolTable
70
0
0
ENDTAB
0
TABLE
2
UCS
5
7
100
AcDbSymbolTable
70
0
0
ENDTAB
0
TABLE
2
APPID
5
9
100
AcDbSymbolTable
70
2
0
APPID
5
12
100
AcDbSymbolTableRecord
100
AcDbRegAppTableRecord
2
ACAD
70
0
0
ENDTAB
0
TABLE
2
DIMSTYLE
5
A
100
AcDbSymbolTable
70
1
0
ENDTAB
0
TABLE
2
BLOCK_RECORD
5
1
100
AcDbSymbolTable
70
1
0
BLOCK_RECORD
5
1F
100
AcDbSymbolTableRecord
100
AcDbBlockTableRecord
2
*MODEL_SPACE
0
BLOCK_RECORD
5
1B
100
AcDbSymbolTableRecord
100
AcDbBlockTableRecord
2
*PAPER_SPACE
0
ENDTAB
0
ENDSEC
0
SECTION
2
BLOCKS
0
BLOCK
5
20
100
AcDbEntity
100
AcDbBlockBegin
2
*MODEL_SPACE
0
ENDBLK
5
21
100
AcDbEntity
100
AcDbBlockEnd
0
BLOCK
5
1C
100
AcDbEntity
100
AcDbBlockBegin
2
*PAPER_SPACE
0
ENDBLK
5
1D
100
AcDbEntity
100
AcDbBlockEnd
0
ENDSEC
0
SECTION
2
ENTITIES
0
LWPOLYLINE
5
100
100
AcDbEntity
8
OUTER_PROFILES
100
AcDbPolyline
90
32
70
1
43
0.0
10
773.00000000000011
20
16.261946710584656
10
803.52389342116965
20
16.261946710584638
10
803.52389342116953
20
82.19123603246544
10
789.52389342116942
20
82.191236032465468
10
787.26194671058465
20
84.191236032465483
10
774.76736945836024
20
96.685813284690042
42
-0.4142135623730766
10
774.76736945836024
20
98.100026847063134
10
787.19123603246589
20
110.52389342116879
10
789.19123603246601
20
112.78584013175353
10
789.19123603246589
20
126.78584013175352
10
779.33265738870318
20
126.78584013175356
10
779.3326573887033
20
116.78584013175356
10
774.83808013647877
20
112.29126287952887
42
-0.41421356237309875
10
773.42386657410555
20
112.29126287952889
10
768.92928932188124
20
116.7858401317534
10
4.0707106781194113
20
116.78584013175393
10
-0.42386657410515349
20
112.29126287952934
42
-0.41421356237309631
10
-1.8380801364782517
20
112.29126287952934
10
-6.3326573887027306
20
116.78584013175387
10
-6.332657388702712
20
126.78584013175387
10
-16.191236032465333
20
126.78584013175384
10
-16.191236032465358
20
112.78584013175387
10
-14.191236032465371
20
110.52389342116932
10
-1.7673694583597563
20
98.100026847063688
42
-0.41421356237309426
10
-1.7673694583597572
20
96.685813284690596
10
-14.26194671058437
20
84.191236032466094
10
-16.523893421169131
20
82.19123603246608
10
-30.523893421168978
20
82.191236032466165
10
-30.523893421169433
20
16.261946710584834
10
-1.1546319456101628e-13
20
16.261946710584656
10
3.0450030941531056e-27
20
0
10
773.00000000000011
20
0
0
CIRCLE
5
101
100
AcDbEntity
8
INTERIOR_PROFILES
100
AcDbCircle
10
23.523893421174634
20
45.761946710584979
30
0
40
1.6999999999999993
210
0
220
0
230
-1
0
CIRCLE
5
102
100
AcDbEntity
8
INTERIOR_PROFILES
100
AcDbCircle
10
386.49999999999892
20
22.261946710585558
30
0
40
1.7000000000000171
210
0
220
0
230
1
0
CIRCLE
5
103
100
AcDbEntity
8
INTERIOR_PROFILES
100
AcDbCircle
10
-796.52389342116805
20
45.761946710584354
30
0
40
1.6999999999999993
210
0
220
0
230
-1
0
CIRCLE
5
104
100
AcDbEntity
8
INTERIOR_PROFILES
100
AcDbCircle
10
-796.52389342116794
20
77.761946710584354
30
0
40
1.6999999999999993
210
0
220
0
230
-1
0
CIRCLE
5
105
100
AcDbEntity
8
INTERIOR_PROFILES
100
AcDbCircle
10
23.523893421174233
20
77.761946710584979
30
0
40
1.6999999999999993
210
0
220
0
230
-1
0
CIRCLE
5
106
100
AcDbEntity
8
INTERIOR_PROFILES
100
AcDbCircle
10
736.50000000000159
20
22.26194671057825
30
0
40
1.7000000000000171
210
0
220
0
230
1
0
CIRCLE
5
107
100
AcDbEntity
8
INTERIOR_PROFILES
100
AcDbCircle
10
36.500000000002252
20
22.261946710584564
30
0
40
1.7000000000000171
210
0
220
0
230
1
0
LINE
5
108
100
AcDbEntity
8
BEND
100
AcDbLine
10
774.1309733552921
20
97.392920065876467
30
9.7223495418523726e-14
11
774.1309733552921
21
111.99836966071508
31
2.228543714710106e-13
0
LINE
5
109
100
AcDbEntity
8
BEND
100
AcDbLine
10
774.13097335529233
20
16.261946710584681
30
-1.3880692931335257e-13
11
774.1309733552921
21
97.392920065876467
31
9.7223495418523726e-14
0
LINE
5
110
100
AcDbEntity
8
BEND
100
AcDbLine
10
788.19123603246612
20
111.65486677646118
30
-7.5422236227710718e-14
11
774.1309733552921
21
111.65486677646118
31
1.9340787648753892e-13
0
LINE
5
111
100
AcDbEntity
8
BEND
100
AcDbLine
10
774.1309733552921
20
111.65486677646118
30
1.9340787648753892e-13
11
-1.1309733552914736
21
111.65486677646155
31
2.1736303563008853e-13
0
LINE
5
112
100
AcDbEntity
8
BEND
100
AcDbLine
10
-1.1309733552914736
20
111.65486677646155
30
2.1736303563008853e-13
11
-15.191236032465309
21
111.65486677646156
31
7.7499181312571101e-14
0
LINE
5
113
100
AcDbEntity
8
BEND
100
AcDbLine
10
788.39292006587721
20
16.261946710584667
30
-2.6833826403250875e-13
11
788.39292006587721
21
83.191236032465312
31
-3.6144901917515264e-13
0
LINE
5
114
100
AcDbEntity
8
BEND
100
AcDbLine
10
-15.392920065876739
20
83.191236032466037
30
9.1467926660369136e-13
11
-15.392920065877142
21
16.261946710584709
31
7.6998947812960305e-13
0
LINE
5
115
100
AcDbEntity
8
BEND
100
AcDbLine
10
-1.13097335529149
20
111.99836966071574
30
2.8465970993863246e-13
11
-1.1309733552915384
21
97.392920065876979
31
9.7223495418525366e-14
0
LINE
5
116
100
AcDbEntity
8
BEND
100
AcDbLine
10
-1.1309733552915384
20
97.392920065876979
30
9.7223495418525366e-14
11
-1.1309733552922949
21
16.261946710584656
31
-1.2381891848091301e-13
0
LINE
5
117
100
AcDbEntity
8
BEND
100
AcDbLine
10
-2.6001453809906977e-13
20
15.130973355292348
30
-1.5423695794319415e-13
11
773.00000000000011
21
15.130973355292348
31
-1.542369579431941e-13
0
LINE
5
118
100
AcDbEntity
8
BEND
100
AcDbLine
10
774.4744762395469
20
97.392920065876467
30
-3.1891813879434202e-14
11
-1.4744762395461919
21
97.392920065876979
31
1.1392693056527292e-13
0
LINE
5
119
100
AcDbEntity
8
BEND_EXTENT
100
AcDbLine
10
-16.523893421169522
20
16.261946710584738
30
9.209009476913595e-13
11
-16.523893421169131
21
82.19123603246608
31
1.1567886127326473e-12
0
LINE
5
120
100
AcDbEntity
8
BEND_EXTENT
100
AcDbLine
10
-14.261946710584368
20
84.191236032466094
30
6.9919758191499758e-13
11
-14.261946710584784
21
16.261946710584738
31
4.7903218389054719e-13
0
LINE
5
121
100
AcDbEntity
8
BEND_EXTENT
100
AcDbLine
10
789.52389342116942
20
82.191236032465468
30
-5.3963216889459377e-13
11
789.52389342116942
21
16.261946710584667
31
-3.6473731482457198e-13
0
LINE
5
122
100
AcDbEntity
8
BEND_EXTENT
100
AcDbLine
10
787.26194671058477
20
16.261946710584638
30
-2.315105518695533e-13
11
787.26194671058465
21
84.191236032465483
31
-8.2399427421114541e-14
0
LINE
5
123
100
AcDbEntity
8
BEND_EXTENT
100
AcDbLine
10
0.070710678119735776
20
112.7858401317539
30
2.078981490279875e-13
11
772.92928932188022
21
112.78584013175339
31
2.1677993322498711e-13
0
LWPOLYLINE
5
124
100
AcDbEntity
8
BEND_EXTENT
100
AcDbPolyline
90
4
70
1
43
0.0
10
773
20
110.52389342116881
10
7.1054273576010019e-13
20
110.52389342116932
10
3.6818863455299089e-13
20
98.523893421169291
10
772.99999999999977
20
98.523893421168808
0
LINE
5
125
100
AcDbEntity
8
BEND_EXTENT
100
AcDbLine
10
775.3326573887033
20
112.78584013175362
30
1.2574164520572496e-13
11
789.19123603246601
21
112.78584013175353
31
-1.4071188070431287e-13
0
LINE
5
126
100
AcDbEntity
8
BEND_EXTENT
100
AcDbLine
10
787.19123603246589
20
110.52389342116879
30
-6.8107011036129402e-14
11
775.26194671058443
21
110.52389342116881
31
7.4001536115890673e-14
0
LINE
5
127
100
AcDbEntity
8
BEND_EXTENT
100
AcDbLine
10
775.26194671058443
20
110.52389342116881
30
7.4001536115890673e-14
11
775.26194671058443
21
98.594604099287452
31
-3.5716718165932672e-14
0
LINE
5
128
100
AcDbEntity
8
BEND_EXTENT
100
AcDbLine
10
-16.191236032465358
20
112.78584013175387
30
-4.3012254537297955e-14
11
-2.3326573887027369
21
112.78584013175387
31
2.500866239637433e-13
0
LINE
5
129
100
AcDbEntity
8
BEND_EXTENT
100
AcDbLine
10
-2.2619467105839695
20
110.52389342116932
30
2.1611008326791238e-13
11
-14.191236032465371
21
110.52389342116932
31
7.4001536115892339e-14
0
LINE
5
130
100
AcDbEntity
8
BEND_EXTENT
100
AcDbLine
10
-2.2619467105840485
20
98.594604099287949
30
1.0639182898608896e-13
11
-2.2619467105839695
21
110.52389342116932
31
2.1611008326791238e-13
0
LINE
5
131
100
AcDbEntity
8
BEND_EXTENT
100
AcDbLine
10
-2.2619467105847164
20
16.261946710584674
30
-1.6045627829354318e-13
11
-2.261946710584259
21
96.19123603246598
31
9.8602280584900714e-14
0
LINE
5
132
100
AcDbEntity
8
BEND_EXTENT
100
AcDbLine
10
775.26194671058477
20
96.191236032465468
30
9.860228058489906e-14
11
775.26194671058477
21
16.261946710584674
31
-1.6045627829354313e-13
0
LWPOLYLINE
5
133
100
AcDbEntity
8
BEND_EXTENT
100
AcDbPolyline
90
4
70
1
43
0.0
10
773.00000000000011
20
16.261946710584656
10
772.99999999999977
20
96.261946710584141
10
2.8421709430404007e-13
20
96.261946710584652
10
-1.1720735188061499e-13
20
16.261946710584656
0
LINE
5
134
100
AcDbEntity
8
BEND_EXTENT
100
AcDbLine
10
773.00000000000011
20
13.999999999999986
30
-1.5890568220136957e-13
11
0
21
14.000000000000004
31
-1.4114211380736704e-13
0
ENDSEC
0
SECTION
2
OBJECTS
0
DICTIONARY
5
C
100
AcDbDictionary
3
ACAD_GROUP
350
D
3
ACAD_MLINESTYLE
350
17
0
DICTIONARY
5
D
100
AcDbDictionary
0
DICTIONARY
5
1A
330
C
100
AcDbDictionary
0
DICTIONARY
5
17
100
AcDbDictionary
0
ENDSEC
0
EOF
