0
SECTION
2
HEADER
9
$INSUNITS
70
4
9
$ACADVER
1
AC1014
9
$HANDSEED
5
FFFF
0
ENDSEC
0
SECTION
2
TABLES
0
TABLE
2
VPORT
5
8
100
AcDbSymbolTable
0
ENDTAB
0
TABLE
2
LTYPE
5
5
100
AcDbSymbolTable
0
LTYPE
5
14
100
AcDbSymbolTableRecord
100
AcDbLinetypeTableRecord
2
BYBLOCK
70
0
0
LTYPE
5
15
100
AcDbSymbolTableRecord
100
AcDbLinetypeTableRecord
2
BYLAYER
70
0
0
LTYPE
5
16
100
AcDbSymbolTableRecord
100
AcDbLinetypeTableRecord
2
DASHED
70
0
3
Dashed __ __ __ __ __ __ __ __ __ __ __ __ __ _
72
65
73
2
40
0.75
49
0.5
74
0
49
-0.25
74
0
0
ENDTAB
0
TABLE
2
LAYER
5
2
100
AcDbSymbolTable
70
2
0
LAYER
5
50
100
AcDbSymbolTableRecord
100
AcDbLayerTableRecord
2
0
70
0
62
7
6
CONTINUOUS
0
ENDTAB
0
TABLE
2
STYLE
5
3
100
AcDbSymbolTable
70
1
0
STYLE
5
11
100
AcDbSymbolTableRecord
100
AcDbTextStyleTableRecord
2
STANDARD
70
0
0
ENDTAB
0
TABLE
2
VIEW
5
6
100
AcDbSymbolTable
70
0
0
ENDTAB
0
TABLE
2
UCS
5
7
100
AcDbSymbolTable
70
0
0
ENDTAB
0
TABLE
2
APPID
5
9
100
AcDbSymbolTable
70
2
0
APPID
5
12
100
AcDbSymbolTableRecord
100
AcDbRegAppTableRecord
2
ACAD
70
0
0
ENDTAB
0
TABLE
2
DIMSTYLE
5
A
100
AcDbSymbolTable
70
1
0
ENDTAB
0
TABLE
2
BLOCK_RECORD
5
1
100
AcDbSymbolTable
70
1
0
BLOCK_RECORD
5
1F
100
AcDbSymbolTableRecord
100
AcDbBlockTableRecord
2
*MODEL_SPACE
0
BLOCK_RECORD
5
1B
100
AcDbSymbolTableRecord
100
AcDbBlockTableRecord
2
*PAPER_SPACE
0
ENDTAB
0
ENDSEC
0
SECTION
2
BLOCKS
0
BLOCK
5
20
100
AcDbEntity
100
AcDbBlockBegin
2
*MODEL_SPACE
0
ENDBLK
5
21
100
AcDbEntity
100
AcDbBlockEnd
0
BLOCK
5
1C
100
AcDbEntity
100
AcDbBlockBegin
2
*PAPER_SPACE
0
ENDBLK
5
1D
100
AcDbEntity
100
AcDbBlockEnd
0
ENDSEC
0
SECTION
2
ENTITIES
0
CIRCLE
5
100
100
AcDbEntity
8
0
100
AcDbCircle
10
-5
20
381.26194671058465
30
0
40
1.7000000000000002
210
-3.944304526105059e-31
220
8.9689930945294833e-32
230
1
0
CIRCLE
5
101
100
AcDbEntity
8
0
100
AcDbCircle
10
-5
20
281.26194671058465
30
0
40
1.7000000000000002
210
-3.944304526105059e-31
220
8.9689930945294833e-32
230
1
0
CIRCLE
5
102
100
AcDbEntity
8
0
100
AcDbCircle
10
-5
20
81.261946710584638
30
0
40
1.7000000000000002
210
-3.944304526105059e-31
220
8.9689930945294833e-32
230
1
0
CIRCLE
5
103
100
AcDbEntity
8
0
100
AcDbCircle
10
-5
20
181.26194671058465
30
0
40
1.7000000000000002
210
-3.944304526105059e-31
220
8.9689930945294833e-32
230
1
0
CIRCLE
5
104
100
AcDbEntity
8
0
100
AcDbCircle
10
594.26194671058465
20
45.261946710584624
30
0
40
1.7000000000000002
210
-2.4672533267963231e-74
220
-6.9185670440779149e-45
230
1
0
CIRCLE
5
105
100
AcDbEntity
8
0
100
AcDbCircle
10
94.261946710584681
20
45.261946710584624
30
0
40
1.7000000000000002
210
-2.4672533267963231e-74
220
-6.9185670440779149e-45
230
1
0
CIRCLE
5
106
100
AcDbEntity
8
0
100
AcDbCircle
10
1094.2619467105847
20
45.261946710584624
30
0
40
1.7000000000000002
210
-2.4672533267963231e-74
220
-6.9185670440779149e-45
230
1
0
CIRCLE
5
107
100
AcDbEntity
8
0
100
AcDbCircle
10
1193.5238934211693
20
181.26194671058465
30
0
40
1.7000000000000002
210
-4.0956638113123159e-48
220
-8.9689930945308562e-32
230
1
0
CIRCLE
5
108
100
AcDbEntity
8
0
100
AcDbCircle
10
1193.5238934211693
20
81.261946710584638
30
0
40
1.7000000000000002
210
-4.0956638113123159e-48
220
-8.9689930945308562e-32
230
1
0
CIRCLE
5
109
100
AcDbEntity
8
0
100
AcDbCircle
10
1193.5238934211693
20
281.26194671058465
30
2.2204460492503131e-15
40
1.7000000000000002
210
-4.0956638113123159e-48
220
-8.9689930945308562e-32
230
1
0
CIRCLE
5
110
100
AcDbEntity
8
0
100
AcDbCircle
10
1193.5238934211693
20
381.26194671058465
30
2.2204460492503131e-15
40
1.7000000000000002
210
-4.0956638113123159e-48
220
-8.9689930945308562e-32
230
1
0
CIRCLE
5
111
100
AcDbEntity
8
0
100
AcDbCircle
10
594.26194671058465
20
22.00000000000006
30
0
40
1.7000000000000002
210
-2.5418345708079789e-74
220
-7.1277046025609696e-45
230
1
0
CIRCLE
5
112
100
AcDbEntity
8
0
100
AcDbCircle
10
760.92861337725128
20
22.00000000000006
30
0
40
1.7000000000000002
210
-2.5418345708079789e-74
220
-7.1277046025609696e-45
230
1
0
CIRCLE
5
113
100
AcDbEntity
8
0
100
AcDbCircle
10
1094.2619467105847
20
22.00000000000006
30
0
40
1.7000000000000002
210
-2.5418345708079789e-74
220
-7.1277046025609696e-45
230
1
0
CIRCLE
5
114
100
AcDbEntity
8
0
100
AcDbCircle
10
94.261946710584539
20
22.00000000000006
30
0
40
1.7000000000000002
210
-2.5418345708079789e-74
220
-7.1277046025609696e-45
230
1
0
CIRCLE
5
115
100
AcDbEntity
8
0
100
AcDbCircle
10
427.59528004391797
20
22.00000000000006
30
0
40
1.7000000000000002
210
-2.5418345708079789e-74
220
-7.1277046025609696e-45
230
1
0
CIRCLE
5
116
100
AcDbEntity
8
0
100
AcDbCircle
10
1180.5238934211693
20
462.52389342116919
30
0
40
1.7000000000000002
210
-7.3641867038236204e-48
220
1.2026629570177068e-31
230
1
0
CIRCLE
5
117
100
AcDbEntity
8
0
100
AcDbCircle
10
1180.5238934211693
20
444.52389342116925
30
0
40
1.7000000000000002
210
-7.3641867038236204e-48
220
1.2026629570177068e-31
230
1
0
CIRCLE
5
118
100
AcDbEntity
8
0
100
AcDbCircle
10
760.92861337725139
20
488.7858401317539
30
0
40
1.7000000000000002
210
-1.8223356214822985e-74
220
-5.1101161915983051e-45
230
1
0
CIRCLE
5
119
100
AcDbEntity
8
0
100
AcDbCircle
10
427.59528004391797
20
488.7858401317539
30
0
40
1.7000000000000002
210
-1.8223356214822985e-74
220
-5.1101161915983051e-45
230
1
0
CIRCLE
5
120
100
AcDbEntity
8
0
100
AcDbCircle
10
1094.2619467105847
20
488.7858401317539
30
0
40
1.7000000000000002
210
-1.8223356214822985e-74
220
-5.1101161915983051e-45
230
1
0
CIRCLE
5
121
100
AcDbEntity
8
0
100
AcDbCircle
10
94.261946710584681
20
488.7858401317539
30
0
40
1.7000000000000002
210
-1.8223356214822985e-74
220
-5.1101161915983051e-45
230
1
0
CIRCLE
5
122
100
AcDbEntity
8
0
100
AcDbCircle
10
594.26194671058465
20
488.7858401317539
30
0
40
1.7000000000000002
210
-1.8223356214822985e-74
220
-5.1101161915983051e-45
230
1
0
CIRCLE
5
123
100
AcDbEntity
8
0
100
AcDbCircle
10
7.9999999999999716
20
444.52389342116925
30
0
40
1.7000000000000002
210
1.5777218104420236e-30
220
-1.2026629570177427e-31
230
1
0
CIRCLE
5
124
100
AcDbEntity
8
0
100
AcDbCircle
10
7.9999999999999716
20
462.52389342116919
30
0
40
1.7000000000000002
210
1.5777218104420236e-30
220
-1.2026629570177427e-31
230
1
0
LINE
5
125
100
AcDbEntity
8
0
100
AcDbLine
10
1168.0293161689449
20
414.10002684706348
30
0
11
1188.5238934211693
21
434.59460409928789
31
0
0
LINE
5
126
100
AcDbEntity
8
0
100
AcDbLine
10
1188.5238934211693
20
434.59460409928789
30
0
11
1188.5238934211693
21
471.16018274305065
31
1.6265176039625905e-44
0
LINE
5
127
100
AcDbEntity
8
0
100
AcDbLine
10
1188.5238934211693
20
471.16018274305065
30
1.6265176039625905e-44
11
1168.5238934211693
21
471.16018274305065
31
0
0
SPLINE
5
128
100
AcDbEntity
8
0
100
AcDbSpline
70
0
71
3
72
8
73
4
74
0
42
0.000000001
43
0.0000000001
44
0.0000000001
40
0.013285710422967554
40
0.013285710422967554
40
0.013285710422967554
40
0.013285710422967554
40
0.32447812099575507
40
0.32447812099575507
40
0.32447812099575507
40
0.32447812099575507
10
1166.4194254310983
20
470.23489800756175
30
0
10
1167.0871092797579
20
470.69812400601762
30
0
10
1167.7804584424869
20
471.16018274305071
30
0
10
1168.5238934211693
20
471.16018274305071
30
0
0
SPLINE
5
129
100
AcDbEntity
8
0
100
AcDbSpline
70
0
71
3
72
8
73
4
74
0
42
0.000000001
43
0.0000000001
44
0.0000000001
40
-1.5707963267948966
40
-1.5707963267948966
40
-1.5707963267948966
40
-1.5707963267948966
40
-1.461436104216089
40
-1.461436104216089
40
-1.461436104216089
40
-1.461436104216089
10
1166.2619467105847
20
470.45318274305066
30
0
10
1166.3144396174225
20
470.38027592799813
30
0
10
1166.3669325242604
20
470.30736928664857
30
0
10
1166.4194254310983
20
470.23489800756181
30
0
0
LINE
5
130
100
AcDbEntity
8
0
100
AcDbLine
10
1166.2619467105847
20
470.45318274305066
30
0
11
1166.1912360324661
21
470.52389342116925
31
0
0
SPLINE
5
131
100
AcDbEntity
8
0
100
AcDbSpline
70
0
71
3
72
8
73
4
74
0
42
0.000000001
43
0.0000000001
44
0.0000000001
40
1.3620894272854014
40
1.3620894272854014
40
1.3620894272854014
40
1.3620894272854014
40
1.5707963267949321
40
1.5707963267949321
40
1.5707963267949321
40
1.5707963267949321
10
1165.9840409988069
20
470.82443135646304
30
-2.2204460492503131e-15
10
1166.0521002948442
20
470.72425204469846
30
-2.2204460492503131e-15
10
1166.121667065963
20
470.62407273293383
30
-2.2204460492503131e-15
10
1166.1912360324661
20
470.52389342116925
30
0
0
SPLINE
5
132
100
AcDbEntity
8
0
100
AcDbSpline
70
0
71
3
72
11
73
7
74
0
42
0.000000001
43
0.0000000001
44
0.0000000001
40
0.0018922989885477278
40
0.0018922989885477278
40
0.0018922989885477278
40
0.0018922989885477278
40
0.15216496230431539
40
0.15216496230431539
40
0.15216496230431539
40
0.1985214678217638
40
0.1985214678217638
40
0.1985214678217638
40
0.1985214678217638
10
1165.9840409988069
20
470.82443135646304
30
0
10
1166.3377139297061
20
471.33372178302045
30
0
10
1166.6704279239075
20
471.80584176723977
30
0
10
1166.8218135346146
20
472.30261421752334
30
0
10
1166.8685133650638
20
472.4558598865915
30
0
10
1166.898236032466
20
472.61850548847809
30
0
10
1166.898236032466
20
472.7858401317539
30
0
0
LINE
5
133
100
AcDbEntity
8
0
100
AcDbLine
10
1166.8982360324658
20
472.7858401317539
30
0
11
1166.898236032466
21
491.78584013175396
31
-3.508903464794543e-44
0
LINE
5
134
100
AcDbEntity
8
0
100
AcDbLine
10
1166.898236032466
20
491.78584013175396
30
-3.508903464794543e-44
11
21.625657388703132
21
491.78584013175396
31
0
0
LINE
5
135
100
AcDbEntity
8
0
100
AcDbLine
10
21.625657388703132
20
491.78584013175396
30
0
11
21.625657388702564
21
472.78584013175396
31
-2.2207951938289123e-31
0
SPLINE
5
136
100
AcDbEntity
8
0
100
AcDbSpline
70
0
71
3
72
11
73
7
74
0
42
0.000000001
43
0.0000000001
44
0.0000000001
40
0
40
0
40
0
40
0
40
0.12694326897407365
40
0.12694326897407365
40
0.12694326897407365
40
0.15127192201442377
40
0.15127192201442377
40
0.15127192201442377
40
0.15127192201442377
10
21.625657388702564
20
472.7858401317539
30
0
10
21.625657388702564
20
472.17651244067832
30
0
10
21.954843970957114
20
471.68224821033425
30
0
10
22.32306789679626
20
471.13906217096007
30
0
10
22.393637941236477
20
471.03496067117129
30
0
10
22.466330364982241
20
470.93030341138547
30
0
10
22.539852430100495
20
470.82443134531877
30
0
0
SPLINE
5
137
100
AcDbEntity
8
0
100
AcDbSpline
70
0
71
3
72
8
73
4
74
0
42
0.000000001
43
0.0000000001
44
0.0000000001
40
-1.5707963267948966
40
-1.5707963267948966
40
-1.5707963267948966
40
-1.5707963267948966
40
-1.3620894300823829
40
-1.3620894300823829
40
-1.3620894300823829
40
-1.3620894300823829
10
22.332657388703012
20
470.5238934211693
30
0
10
22.402226354273765
20
470.6240727315913
30
0
10
22.471793124460085
20
470.72425204201329
30
0
10
22.539852419625532
20
470.82443135243534
30
0
0
LINE
5
138
100
AcDbEntity
8
0
100
AcDbLine
10
22.332657388703012
20
470.5238934211693
30
0
11
22.261946710584368
21
470.45318274305066
31
0
0
SPLINE
5
139
100
AcDbEntity
8
0
100
AcDbSpline
70
0
71
3
72
8
73
4
74
0
42
0.000000001
43
0.0000000001
44
0.0000000001
40
1.4614361042206543
40
1.4614361042206543
40
1.4614361042206543
40
1.4614361042206543
40
1.5707963267948277
40
1.5707963267948277
40
1.5707963267948277
40
1.5707963267948277
10
22.104467990077552
20
470.23489800757056
30
0
10
22.156960896913205
20
470.30736928665442
30
0
10
22.209453803748715
20
470.38027592800097
30
0
10
22.261946710584368
20
470.45318274305055
30
0
0
SPLINE
5
140
100
AcDbEntity
8
0
100
AcDbSpline
70
0
71
3
72
8
73
4
74
0
42
0.000000001
43
0.0000000001
44
0.0000000001
40
2.8393953854787088e-14
40
2.8393953854787088e-14
40
2.8393953854787088e-14
40
2.8393953854787088e-14
40
0.30977787753434821
40
0.30977787753434821
40
0.30977787753434821
40
0.30977787753434821
10
19.999999999999996
20
471.16018274305071
30
0
10
20.743466906082375
20
471.16018274305065
30
0
10
21.436812361036175
20
470.69810442779396
30
0
10
22.104467990096168
20
470.23489800754419
30
0
0
LINE
5
141
100
AcDbEntity
8
0
100
AcDbLine
10
19.999999999999996
20
471.16018274305071
30
0
11
1.4210854715202004e-13
21
471.16018274305065
31
0
0
LINE
5
142
100
AcDbEntity
8
0
100
AcDbLine
10
1.4210854715202004e-13
20
471.16018274305065
30
0
11
1.4210854715201797e-13
21
434.59460409928789
31
1.5895571585403078e-45
0
LINE
5
143
100
AcDbEntity
8
0
100
AcDbLine
10
1.4210854715201797e-13
20
434.59460409928789
30
1.5895571585403078e-45
11
20.494577252224531
21
414.10002684706348
31
0
0
ARC
5
144
100
AcDbEntity
8
0
100
AcDbCircle
10
19.787470471037949
20
413.39292006587692
30
0
40
1.0000000000000107
210
-2.955863948185161e-45
220
-2.7890444774736499e-31
230
1
100
AcDbArc
50
-45.000000000003304
51
44.999999999998849
0
LINE
5
145
100
AcDbEntity
8
0
100
AcDbLine
10
20.494577252224477
20
412.68581328469031
30
-1.9721522630525829e-31
11
1.4210854715202004e-13
21
392.19123603246595
31
0
0
LINE
5
146
100
AcDbEntity
8
0
100
AcDbLine
10
1.4210854715202004e-13
20
392.19123603246595
30
0
11
-8.9999999999999147
21
392.19123603246595
31
0
0
LINE
5
147
100
AcDbEntity
8
0
100
AcDbLine
10
-8.9999999999999147
20
392.19123603246595
30
0
11
-8.9999999999999147
21
51.332657388703282
31
1.4817602068097247e-44
0
LINE
5
148
100
AcDbEntity
8
0
100
AcDbLine
10
-8.9999999999999147
20
51.332657388703282
30
1.4817602068097247e-44
11
1.4210854715202004e-13
21
51.332657388703282
31
0
0
LINE
5
149
100
AcDbEntity
8
0
100
AcDbLine
10
1.4210854715202004e-13
20
51.332657388703282
30
0
11
20.494577252224531
21
30.838080136479121
31
-1.5777218104420236e-29
0
ARC
5
150
100
AcDbEntity
8
0
100
AcDbCircle
10
19.787470471037807
20
30.13097335529233
30
0
40
1.0000000000000011
210
-1.2550700148631268e-30
220
1.5339744626105444e-30
230
1
100
AcDbArc
50
-45.00000000000086
51
45.000000000002736
0
LINE
5
151
100
AcDbEntity
8
0
100
AcDbLine
10
20.494577252224346
20
29.423866574105769
30
1.9721522630525292e-30
11
0
21
8.9292893218813383
31
-1.1044052673094165e-28
0
LINE
5
152
100
AcDbEntity
8
0
100
AcDbLine
10
0
20
8.9292893218813383
30
-1.1044052673094165e-28
11
-4.0352734178630634e-30
21
0
31
3.8816877207290019e-46
0
LINE
5
153
100
AcDbEntity
8
0
100
AcDbLine
10
-4.0352734178630634e-30
20
0
30
3.8816877207290019e-46
11
1188.5238934211693
21
2.8766854962486013e-56
31
0
0
LINE
5
154
100
AcDbEntity
8
0
100
AcDbLine
10
1188.5238934211693
20
2.8766854962486013e-56
30
0
11
1188.5238934211693
21
8.9292893218813383
31
1.4906704504764534e-45
0
LINE
5
155
100
AcDbEntity
8
0
100
AcDbLine
10
1188.5238934211693
20
8.9292893218813383
30
1.4906704504764534e-45
11
1168.0293161689449
21
29.423866574105773
31
-2.2204460492503131e-15
0
ARC
5
156
100
AcDbEntity
8
0
100
AcDbCircle
10
1168.7364229501313
20
30.130973355292348
30
0
40
1.0000000000000107
210
-1.3945222387368249e-31
220
1.3945222387368254e-31
230
1
100
AcDbArc
50
134.99999999999642
51
225.00000000000546
0
LINE
5
157
100
AcDbEntity
8
0
100
AcDbLine
10
1168.0293161689449
20
30.838080136478876
30
-1.9721522630525295e-31
11
1188.5238934211693
21
51.332657388703282
31
0
0
LINE
5
158
100
AcDbEntity
8
0
100
AcDbLine
10
1188.5238934211693
20
51.332657388703282
30
0
11
1197.5238934211693
21
51.332657388703282
31
1.1832913578315177e-29
0
LINE
5
159
100
AcDbEntity
8
0
100
AcDbLine
10
1197.5238934211693
20
51.332657388703282
30
1.1832913578315177e-29
11
1197.5238934211693
21
392.19123603246595
31
-2.2204460492503131e-15
0
LINE
5
160
100
AcDbEntity
8
0
100
AcDbLine
10
1197.5238934211693
20
392.19123603246595
30
-2.2204460492503131e-15
11
1188.5238934211693
21
392.19123603246595
31
1.5777218104420236e-29
0
LINE
5
161
100
AcDbEntity
8
0
100
AcDbLine
10
1188.5238934211693
20
392.19123603246595
30
1.5777218104420236e-29
11
1168.0293161689449
21
412.68581328469043
31
0
0
ARC
5
162
100
AcDbEntity
8
0
100
AcDbCircle
10
1168.7364229501313
20
413.39292006587692
30
0
40
1.0000000000000482
210
0
220
0
230
1
100
AcDbArc
50
134.99999999999542
51
225.00000000000227
0
ENDSEC
0
SECTION
2
OBJECTS
0
DICTIONARY
5
C
100
AcDbDictionary
3
ACAD_GROUP
350
D
3
ACAD_MLINESTYLE
350
17
0
DICTIONARY
5
D
100
AcDbDictionary
0
DICTIONARY
5
1A
330
C
100
AcDbDictionary
0
DICTIONARY
5
17
100
AcDbDictionary
0
ENDSEC
0
EOF
