0
SECTION
2
HEADER
9
$INSUNITS
70
4
9
$ACADVER
1
AC1014
9
$HANDSEED
5
FFFF
0
ENDSEC
0
SECTION
2
TABLES
0
TABLE
2
VPORT
5
8
100
AcDbSymbolTable
0
ENDTAB
0
TABLE
2
LTYPE
5
5
100
AcDbSymbolTable
0
LTYPE
5
14
100
AcDbSymbolTableRecord
100
AcDbLinetypeTableRecord
2
BYBLOCK
70
0
0
LTYPE
5
15
100
AcDbSymbolTableRecord
100
AcDbLinetypeTableRecord
2
BYLAYER
70
0
0
LTYPE
5
16
100
AcDbSymbolTableRecord
100
AcDbLinetypeTableRecord
2
DASHED
70
0
3
Dashed __ __ __ __ __ __ __ __ __ __ __ __ __ _
72
65
73
2
40
0.75
49
0.5
74
0
49
-0.25
74
0
0
ENDTAB
0
TABLE
2
LAYER
5
2
100
AcDbSymbolTable
70
2
0
LAYER
5
50
100
AcDbSymbolTableRecord
100
AcDbLayerTableRecord
2
0
70
0
62
7
6
CONTINUOUS
0
ENDTAB
0
TABLE
2
STYLE
5
3
100
AcDbSymbolTable
70
1
0
STYLE
5
11
100
AcDbSymbolTableRecord
100
AcDbTextStyleTableRecord
2
STANDARD
70
0
0
ENDTAB
0
TABLE
2
VIEW
5
6
100
AcDbSymbolTable
70
0
0
ENDTAB
0
TABLE
2
UCS
5
7
100
AcDbSymbolTable
70
0
0
ENDTAB
0
TABLE
2
APPID
5
9
100
AcDbSymbolTable
70
2
0
APPID
5
12
100
AcDbSymbolTableRecord
100
AcDbRegAppTableRecord
2
ACAD
70
0
0
ENDTAB
0
TABLE
2
DIMSTYLE
5
A
100
AcDbSymbolTable
70
1
0
ENDTAB
0
TABLE
2
BLOCK_RECORD
5
1
100
AcDbSymbolTable
70
1
0
BLOCK_RECORD
5
1F
100
AcDbSymbolTableRecord
100
AcDbBlockTableRecord
2
*MODEL_SPACE
0
BLOCK_RECORD
5
1B
100
AcDbSymbolTableRecord
100
AcDbBlockTableRecord
2
*PAPER_SPACE
0
ENDTAB
0
ENDSEC
0
SECTION
2
BLOCKS
0
BLOCK
5
20
100
AcDbEntity
100
AcDbBlockBegin
2
*MODEL_SPACE
0
ENDBLK
5
21
100
AcDbEntity
100
AcDbBlockEnd
0
BLOCK
5
1C
100
AcDbEntity
100
AcDbBlockBegin
2
*PAPER_SPACE
0
ENDBLK
5
1D
100
AcDbEntity
100
AcDbBlockEnd
0
ENDSEC
0
SECTION
2
ENTITIES
0
LWPOLYLINE
5
100
100
AcDbEntity
8
OUTER_PROFILES
100
AcDbPolyline
90
18
70
1
43
0.0
10
0
20
6.9292893218813489
10
2.4945772522244338
20
9.4238665741057837
42
0.41421356237309392
10
2.4945772522244343
20
10.838080136478876
10
4.7184478546569153e-15
20
13.332657388703307
10
4.9960036108132044e-15
20
31.191236032465994
10
2.4945772522244374
20
33.685813284690425
42
0.41421356237309415
10
2.4945772522244374
20
35.100026847063518
10
0.070710678118643955
20
37.523893421169305
10
904.45318274305066
20
37.523893421169319
10
902.02931616894477
20
35.100026847063425
42
0.41421356237307572
10
902.02931616894477
20
33.685813284690354
10
904.52389342116919
20
31.191236032465994
10
904.52389342116919
20
13.332657388703307
10
902.02931616894477
20
10.838080136478903
42
0.41421356237308771
10
902.02931616894477
20
9.4238665741057748
10
904.52389342116908
20
6.9292893218813489
10
904.52389342116908
20
0
10
0
20
0
0
CIRCLE
5
101
100
AcDbEntity
8
INTERIOR_PROFILES
100
AcDbCircle
10
-152.26194671058462
20
3.0000000000000027
30
0
40
1.6999999999999993
210
0
220
0
230
-1
0
CIRCLE
5
102
100
AcDbEntity
8
INTERIOR_PROFILES
100
AcDbCircle
10
-252.26194671058462
20
3.0000000000000027
30
0
40
1.7000000000000171
210
0
220
0
230
-1
0
CIRCLE
5
103
100
AcDbEntity
8
INTERIOR_PROFILES
100
AcDbCircle
10
-752.26194671058465
20
3.0000000000000027
30
0
40
1.7000000000000171
210
0
220
0
230
-1
0
CIRCLE
5
104
100
AcDbEntity
8
INTERIOR_PROFILES
100
AcDbCircle
10
-352.2619467105846
20
3.0000000000000027
30
0
40
1.7000000000000171
210
0
220
0
230
-1
0
CIRCLE
5
105
100
AcDbEntity
8
INTERIOR_PROFILES
100
AcDbCircle
10
-552.26194671058454
20
3.0000000000000027
30
0
40
1.7000000000000171
210
0
220
0
230
-1
0
CIRCLE
5
106
100
AcDbEntity
8
INTERIOR_PROFILES
100
AcDbCircle
10
-852.26194671058465
20
3.0000000000000027
30
0
40
1.7000000000000171
210
0
220
0
230
-1
0
CIRCLE
5
107
100
AcDbEntity
8
INTERIOR_PROFILES
100
AcDbCircle
10
-652.26194671058465
20
3.0000000000000027
30
0
40
1.7000000000000171
210
0
220
0
230
-1
0
CIRCLE
5
108
100
AcDbEntity
8
INTERIOR_PROFILES
100
AcDbCircle
10
-52.26194671058461
20
3.0000000000000027
30
0
40
1.6999999999999993
210
0
220
0
230
-1
0
CIRCLE
5
109
100
AcDbEntity
8
INTERIOR_PROFILES
100
AcDbCircle
10
-452.2619467105846
20
3.0000000000000027
30
0
40
1.7000000000000171
210
0
220
0
230
-1
0
LINE
5
110
100
AcDbEntity
8
BEND
100
AcDbLine
10
3.1309733552923102
20
34.392920065876986
30
-5.1588414454255453e-13
11
3.1309733552923102
21
37.523893421169305
31
-4.5655271440619729e-13
0
LINE
5
111
100
AcDbEntity
8
BEND
100
AcDbLine
10
3.1309733552923102
20
10.130973355292326
30
-5.0601043715903188e-13
11
3.1309733552923102
21
34.392920065876986
31
-5.1588414454255453e-13
0
LINE
5
112
100
AcDbEntity
8
BEND
100
AcDbLine
10
3.1309733552923102
20
0
30
-4.4191108728616326e-13
11
3.1309733552923102
21
10.130973355292326
31
-5.0601043715903188e-13
0
LINE
5
113
100
AcDbEntity
8
BEND
100
AcDbLine
10
901.39292006587698
20
37.523893421169305
30
-1.2719928688704057e-10
11
901.39292006587698
21
34.392920065876986
31
-1.2725834076142077e-10
0
LINE
5
114
100
AcDbEntity
8
BEND
100
AcDbLine
10
901.39292006587698
20
34.392920065876986
30
-1.2725834076142077e-10
11
901.39292006587675
21
10.130973355292326
31
-1.2724846705403725e-10
0
LINE
5
115
100
AcDbEntity
8
BEND
100
AcDbLine
10
901.39292006587675
20
10.130973355292326
30
-1.2724846705403725e-10
11
901.39292006587675
21
-4.4408920985006262e-15
31
-1.2718436770416437e-10
0
LINE
5
116
100
AcDbEntity
8
BEND
100
AcDbLine
10
2.7874704710378824
20
10.130973355292326
30
-4.1152153339024958e-13
11
901.73642295013133
21
10.130973355292326
31
-1.2700091480464524e-10
0
LINE
5
117
100
AcDbEntity
8
BEND
100
AcDbLine
10
2.7874704710378948
20
34.392920065876986
30
-3.5315090616057542e-13
11
901.73642295013133
21
34.392920065876986
31
-1.2738986595338281e-10
0
LINE
5
118
100
AcDbEntity
8
BEND_EXTENT
100
AcDbLine
10
2.000000000000004
20
35.594604099287956
30
-2.9705121631481948e-13
11
2.000000000000004
21
37.523893421169305
31
-2.9683649707084634e-13
0
LINE
5
119
100
AcDbEntity
8
BEND_EXTENT
100
AcDbLine
10
4.2619467105845654
20
37.523893421169305
30
-6.7386175114397102e-13
11
4.2619467105845654
21
35.523893421169305
31
-6.7515387216649203e-13
0
LINE
5
120
100
AcDbEntity
8
BEND_EXTENT
100
AcDbLine
10
900.26194671058477
20
35.523893421169305
30
-1.2709845561013018e-10
11
4.2619467105845654
21
35.523893421169305
31
-6.7515387216649203e-13
0
LINE
5
121
100
AcDbEntity
8
BEND_EXTENT
100
AcDbLine
10
900.26194671058477
20
35.523893421169305
30
-1.2709845561013018e-10
11
900.26194671058477
21
37.523893421169305
31
-1.2709716348910766e-10
0
LINE
5
122
100
AcDbEntity
8
BEND_EXTENT
100
AcDbLine
10
1.9999999999999996
20
0
30
-2.823336478288898e-13
11
1.9999999999999996
21
8.9292893218813454
31
-2.8647828920309433e-13
0
LINE
5
123
100
AcDbEntity
8
BEND_EXTENT
100
AcDbLine
10
4.2619467105845654
20
9
30
-6.6284247513190617e-13
11
4.2619467105845654
21
0
31
-6.5866501251162436e-13
0
LINE
5
124
100
AcDbEntity
8
BEND_EXTENT
100
AcDbLine
10
4.2619467105845654
20
9
30
-6.6284247513190617e-13
11
900.26194671058477
21
9
31
-1.270861442130956e-10
0
LINE
5
125
100
AcDbEntity
8
BEND_EXTENT
100
AcDbLine
10
900.26194671058477
20
0
30
-1.2708196675047533e-10
11
900.26194671058477
21
9
31
-1.270861442130956e-10
0
LINE
5
126
100
AcDbEntity
8
BEND_EXTENT
100
AcDbLine
10
902.52389342116908
20
33.191236032466009
30
-1.2713231066262431e-10
11
902.52389342116908
21
11.332657388703314
31
-1.2712216472982244e-10
0
LWPOLYLINE
5
127
100
AcDbEntity
8
BEND_EXTENT
100
AcDbPolyline
90
4
70
1
43
0.0
10
900.26194671058477
20
11.261946710584652
10
900.26194671058477
20
33.261946710584652
10
4.2619467105845654
20
33.261946710584652
10
4.2619467105845388
20
11.261946710584652
0
LINE
5
128
100
AcDbEntity
8
BEND_EXTENT
100
AcDbLine
10
902.52389342116908
20
8.929289321881356
30
-1.2754737481791607e-10
11
902.52389342116908
21
-4.4408920985006262e-15
31
-1.2754323017654185e-10
0
LINE
5
129
100
AcDbEntity
8
BEND_EXTENT
100
AcDbLine
10
902.5238934211693
20
37.523893421169305
30
-1.2741853881407144e-10
11
902.5238934211693
21
35.594604099287956
31
-1.274176433102908e-10
0
LINE
5
130
100
AcDbEntity
8
BEND_EXTENT
100
AcDbLine
10
2.0000000000000031
20
11.332657388703296
30
-2.8592850802859348e-13
11
2.0000000000000027
21
33.191236032465987
31
-2.9607444083046114e-13
0
ENDSEC
0
SECTION
2
OBJECTS
0
DICTIONARY
5
C
100
AcDbDictionary
3
ACAD_GROUP
350
D
3
ACAD_MLINESTYLE
350
17
0
DICTIONARY
5
D
100
AcDbDictionary
0
DICTIONARY
5
1A
330
C
100
AcDbDictionary
0
DICTIONARY
5
17
100
AcDbDictionary
0
ENDSEC
0
EOF
