0
SECTION
2
HEADER
9
$INSUNITS
70
4
9
$ACADVER
1
AC1014
9
$HANDSEED
5
FFFF
0
ENDSEC
0
SECTION
2
TABLES
0
TABLE
2
VPORT
5
8
100
AcDbSymbolTable
0
ENDTAB
0
TABLE
2
LTYPE
5
5
100
AcDbSymbolTable
0
LTYPE
5
14
100
AcDbSymbolTableRecord
100
AcDbLinetypeTableRecord
2
BYBLOCK
70
0
0
LTYPE
5
15
100
AcDbSymbolTableRecord
100
AcDbLinetypeTableRecord
2
BYLAYER
70
0
0
LTYPE
5
16
100
AcDbSymbolTableRecord
100
AcDbLinetypeTableRecord
2
DASHED
70
0
3
Dashed __ __ __ __ __ __ __ __ __ __ __ __ __ _
72
65
73
2
40
0.75
49
0.5
74
0
49
-0.25
74
0
0
ENDTAB
0
TABLE
2
LAYER
5
2
100
AcDbSymbolTable
70
2
0
LAYER
5
50
100
AcDbSymbolTableRecord
100
AcDbLayerTableRecord
2
0
70
0
62
7
6
CONTINUOUS
0
ENDTAB
0
TABLE
2
STYLE
5
3
100
AcDbSymbolTable
70
1
0
STYLE
5
11
100
AcDbSymbolTableRecord
100
AcDbTextStyleTableRecord
2
STANDARD
70
0
0
ENDTAB
0
TABLE
2
VIEW
5
6
100
AcDbSymbolTable
70
0
0
ENDTAB
0
TABLE
2
UCS
5
7
100
AcDbSymbolTable
70
0
0
ENDTAB
0
TABLE
2
APPID
5
9
100
AcDbSymbolTable
70
2
0
APPID
5
12
100
AcDbSymbolTableRecord
100
AcDbRegAppTableRecord
2
ACAD
70
0
0
ENDTAB
0
TABLE
2
DIMSTYLE
5
A
100
AcDbSymbolTable
70
1
0
ENDTAB
0
TABLE
2
BLOCK_RECORD
5
1
100
AcDbSymbolTable
70
1
0
BLOCK_RECORD
5
1F
100
AcDbSymbolTableRecord
100
AcDbBlockTableRecord
2
*MODEL_SPACE
0
BLOCK_RECORD
5
1B
100
AcDbSymbolTableRecord
100
AcDbBlockTableRecord
2
*PAPER_SPACE
0
ENDTAB
0
ENDSEC
0
SECTION
2
BLOCKS
0
BLOCK
5
20
100
AcDbEntity
100
AcDbBlockBegin
2
*MODEL_SPACE
0
ENDBLK
5
21
100
AcDbEntity
100
AcDbBlockEnd
0
BLOCK
5
1C
100
AcDbEntity
100
AcDbBlockBegin
2
*PAPER_SPACE
0
ENDBLK
5
1D
100
AcDbEntity
100
AcDbBlockEnd
0
ENDSEC
0
SECTION
2
ENTITIES
0
LWPOLYLINE
5
100
100
AcDbEntity
8
OUTER_PROFILES
100
AcDbPolyline
90
23
70
1
43
0.0
10
596
20
100.78584013175407
10
596
20
66.785840131754071
10
596
20
64.523893421169362
10
606.26194671058488
20
64.523893421169362
10
606.26194671058465
20
43.523893421169362
10
596
20
43.523893421169362
10
596
20
41.261946710584645
10
596
20
7.2619467105846525
10
596
20
5
10
596
20
0
10
0
20
0
10
0
20
5
10
0
20
7.2619467105846525
10
3.5527136788005009e-14
20
41.261946710584645
10
3.5527136788005009e-14
20
43.523893421169362
10
-10.261946710584713
20
43.523893421169362
10
-10.261946710584745
20
64.523893421169362
10
3.5527136788005009e-14
20
64.523893421169362
10
3.5527136788005009e-14
20
66.785840131754071
10
0
20
103.04778684233838
10
0
20
108.04778684233837
10
596
20
108.04778684233837
10
596
20
103.04778684233838
0
CIRCLE
5
101
100
AcDbEntity
8
INTERIOR_PROFILES
100
AcDbCircle
10
-6.9999999999992824
20
12.261946710584617
30
0
40
1.7000000000000171
210
0
220
0
230
-1
0
LWPOLYLINE
5
102
100
AcDbEntity
8
INTERIOR_PROFILES
100
AcDbPolyline
90
4
70
1
43
0.0
10
586
20
43.523893421169362
10
513
20
43.523893421169362
10
513
20
41.261946710584645
10
586
20
41.261946710584645
0
LWPOLYLINE
5
103
100
AcDbEntity
8
INTERIOR_PROFILES
100
AcDbPolyline
90
4
70
1
43
0.0
10
10
20
43.523893421441727
10
10
20
41.261946710584645
10
82.999999999999972
20
41.261946710584645
10
82.999999999999972
20
43.523893421169362
0
LWPOLYLINE
5
104
100
AcDbEntity
8
INTERIOR_PROFILES
100
AcDbPolyline
90
4
70
1
43
0.0
10
513
20
66.785840131754071
10
513
20
64.523893421169362
10
586
20
64.523893421169362
10
586
20
66.785840131754071
0
LWPOLYLINE
5
105
100
AcDbEntity
8
INTERIOR_PROFILES
100
AcDbPolyline
90
4
70
1
43
0.0
10
83
20
64.523893421169362
10
83
20
66.785840131754071
10
10.000000000000036
20
66.785840131754071
10
10.000000000000036
20
64.523893421169362
0
CIRCLE
5
106
100
AcDbEntity
8
INTERIOR_PROFILES
100
AcDbCircle
10
-6.9999999999992824
20
70.785840131754043
30
0
40
1.6999999999999815
210
0
220
0
230
-1
0
CIRCLE
5
107
100
AcDbEntity
8
INTERIOR_PROFILES
100
AcDbCircle
10
-589.0000000000008
20
37.261946710584617
30
0
40
1.7000000000000171
210
0
220
0
230
-1
0
CIRCLE
5
108
100
AcDbEntity
8
INTERIOR_PROFILES
100
AcDbCircle
10
-6.9999999999992824
20
95.785840131754043
30
0
40
1.7000000000000171
210
0
220
0
230
-1
0
CIRCLE
5
109
100
AcDbEntity
8
INTERIOR_PROFILES
100
AcDbCircle
10
-6.9999999999992824
20
37.261946710584617
30
0
40
1.6999999999999815
210
0
220
0
230
-1
0
CIRCLE
5
110
100
AcDbEntity
8
INTERIOR_PROFILES
100
AcDbCircle
10
-589.0000000000008
20
12.261946710584617
30
0
40
1.7000000000000171
210
0
220
0
230
-1
0
CIRCLE
5
111
100
AcDbEntity
8
INTERIOR_PROFILES
100
AcDbCircle
10
-589.0000000000008
20
95.785840131754043
30
0
40
1.7000000000000171
210
0
220
0
230
-1
0
CIRCLE
5
112
100
AcDbEntity
8
INTERIOR_PROFILES
100
AcDbCircle
10
-589.0000000000008
20
70.785840131754043
30
0
40
1.7000000000000171
210
0
220
0
230
-1
0
CIRCLE
5
113
100
AcDbEntity
8
INTERIOR_PROFILES
100
AcDbCircle
10
-298
20
54.023893421169362
30
0
40
1.7000000000000171
210
0
220
0
230
-1
0
CIRCLE
5
114
100
AcDbEntity
8
INTERIOR_PROFILES
100
AcDbCircle
10
-79.000000000000028
20
54.023893421169362
30
0
40
1.6999999999999993
210
0
220
0
230
-1
0
CIRCLE
5
115
100
AcDbEntity
8
INTERIOR_PROFILES
100
AcDbCircle
10
-588.99999999999977
20
54.023893421169362
30
0
40
1.7000000000000171
210
0
220
0
230
-1
0
CIRCLE
5
116
100
AcDbEntity
8
INTERIOR_PROFILES
100
AcDbCircle
10
-289
20
54.023893421169362
30
0
40
1.7000000000000171
210
0
220
0
230
-1
0
CIRCLE
5
117
100
AcDbEntity
8
INTERIOR_PROFILES
100
AcDbCircle
10
-307
20
54.023893421169362
30
0
40
1.7000000000000171
210
0
220
0
230
-1
0
CIRCLE
5
118
100
AcDbEntity
8
INTERIOR_PROFILES
100
AcDbCircle
10
-602.26194671055373
20
54.023893421169362
30
0
40
1.6999999999999993
210
0
220
0
230
-1
0
CIRCLE
5
119
100
AcDbEntity
8
INTERIOR_PROFILES
100
AcDbCircle
10
-562.99999999999977
20
54.023893421169362
30
0
40
1.7000000000000171
210
0
220
0
230
-1
0
CIRCLE
5
120
100
AcDbEntity
8
INTERIOR_PROFILES
100
AcDbCircle
10
-516.99999999999977
20
54.023893421169362
30
0
40
1.7000000000000171
210
0
220
0
230
-1
0
CIRCLE
5
121
100
AcDbEntity
8
INTERIOR_PROFILES
100
AcDbCircle
10
6.2619467105503865
20
54.023893421169362
30
0
40
1.6999999999999993
210
0
220
0
230
-1
0
CIRCLE
5
122
100
AcDbEntity
8
INTERIOR_PROFILES
100
AcDbCircle
10
-6.9999999999999929
20
54.023893421169362
30
0
40
1.7000000000000004
210
0
220
0
230
-1
0
CIRCLE
5
123
100
AcDbEntity
8
INTERIOR_PROFILES
100
AcDbCircle
10
-33.000000000000007
20
54.023893421169362
30
0
40
1.6999999999999993
210
0
220
0
230
-1
0
LINE
5
124
100
AcDbEntity
8
BEND
100
AcDbLine
10
597.13097335529233
20
43.523893421169355
30
1.5792922525292852e-13
11
597.13097335529233
21
64.523893421169362
31
1.9706458687096529e-13
0
LINE
5
125
100
AcDbEntity
8
BEND
100
AcDbLine
10
596
20
101.9168134870462
30
2.3328561304936102e-13
11
0
21
101.9168134870462
31
2.4355517602714372e-13
0
LINE
5
126
100
AcDbEntity
8
BEND
100
AcDbLine
10
596
20
6.130973355292344
30
7.9103390504542404e-15
11
0
21
6.130973355292344
31
3.1918911957973251e-15
0
LINE
5
127
100
AcDbEntity
8
BEND
100
AcDbLine
10
-1.1309733552924697
20
64.523893421169348
30
1.840194663316197e-13
11
-1.1309733552924697
21
43.523893421169362
31
1.7263968032921184e-13
0
LINE
5
128
100
AcDbEntity
8
BEND
100
AcDbLine
10
596
20
42.392920065877
30
1.39194211712379e-13
11
0
21
42.392920065877
31
1.3586354263850353e-13
0
LINE
5
129
100
AcDbEntity
8
BEND
100
AcDbLine
10
596
20
65.654866776461716
30
1.7083556791419596e-13
11
0
21
65.654866776461716
31
1.7222334669497741e-13
0
LINE
5
130
100
AcDbEntity
8
BEND_EXTENT
100
AcDbLine
10
3.5527136788005009e-14
20
43.523893421169362
30
1.4446777107934849e-13
11
10
21
43.523893421441727
31
1.4002687898084787e-13
0
LINE
5
131
100
AcDbEntity
8
BEND_EXTENT
100
AcDbLine
10
3.5527136788005009e-14
20
64.523893421169362
30
1.6861512186494565e-13
11
3.5527136788005009e-14
21
43.523893421169362
31
1.4446777107934849e-13
0
LINE
5
132
100
AcDbEntity
8
BEND_EXTENT
100
AcDbLine
10
10.000000000000036
20
64.523893421169362
30
1.4196976927394189e-13
11
3.5527136788005009e-14
21
64.523893421169362
31
1.6861512186494565e-13
0
LINE
5
133
100
AcDbEntity
8
BEND_EXTENT
100
AcDbLine
10
10
20
41.261946710584645
30
1.2878587085651816e-13
11
3.5527136788005009e-14
21
41.261946710584645
31
1.2878587085651816e-13
0
LINE
5
134
100
AcDbEntity
8
BEND_EXTENT
100
AcDbLine
10
82.999999999999972
20
43.523893421169362
30
1.4002687898084787e-13
11
513
21
43.523893421169362
31
1.4002687898084787e-13
0
LINE
5
135
100
AcDbEntity
8
BEND_EXTENT
100
AcDbLine
10
513
20
41.261946710584645
30
1.2878587085651816e-13
11
82.999999999999972
21
41.261946710584645
31
1.2878587085651816e-13
0
LINE
5
136
100
AcDbEntity
8
BEND_EXTENT
100
AcDbLine
10
596
20
41.261946710584645
30
1.2878587085651816e-13
11
586
21
41.261946710584645
31
1.2878587085651816e-13
0
LINE
5
137
100
AcDbEntity
8
BEND_EXTENT
100
AcDbLine
10
586
20
43.523893421169362
30
1.4002687898084787e-13
11
596
21
43.523893421169362
31
1.4446777107934849e-13
0
LINE
5
138
100
AcDbEntity
8
BEND_EXTENT
100
AcDbLine
10
596
20
43.523893421169362
30
1.4446777107934849e-13
11
596
21
64.523893421169362
31
1.6861512186494565e-13
0
LINE
5
139
100
AcDbEntity
8
BEND_EXTENT
100
AcDbLine
10
596
20
64.523893421169362
30
1.6861512186494565e-13
11
586
21
64.523893421169362
31
1.4196976927394189e-13
0
LINE
5
140
100
AcDbEntity
8
BEND_EXTENT
100
AcDbLine
10
586
20
66.785840131754071
30
1.4432899320127035e-13
11
596
21
66.785840131754071
31
1.7985612998927536e-13
0
LINE
5
141
100
AcDbEntity
8
BEND_EXTENT
100
AcDbLine
10
513
20
64.523893421169362
30
1.4196976927394189e-13
11
82.999999999999972
21
64.523893421169362
31
1.4196976927394189e-13
0
LINE
5
142
100
AcDbEntity
8
BEND_EXTENT
100
AcDbLine
10
83
20
66.785840131754071
30
1.4432899320127035e-13
11
513
21
66.785840131754071
31
1.4432899320127035e-13
0
LINE
5
143
100
AcDbEntity
8
BEND_EXTENT
100
AcDbLine
10
598.26194671058477
20
64.523893421169362
30
1.9539925233402755e-13
11
598.26194671058477
21
43.523893421169355
31
1.9539925233402755e-13
0
LINE
5
144
100
AcDbEntity
8
BEND_EXTENT
100
AcDbLine
10
-2.2619467105847058
20
43.523893421169362
30
2.3092638912203256e-13
11
-2.2619467105847351
21
64.523893421169348
31
1.9539925233402755e-13
0
LINE
5
145
100
AcDbEntity
8
BEND_EXTENT
100
AcDbLine
10
3.5527136788005009e-14
20
66.785840131754071
30
1.7985612998927536e-13
11
10.000000000000036
21
66.785840131754071
31
1.4432899320127035e-13
0
LINE
5
146
100
AcDbEntity
8
BEND_EXTENT
100
AcDbLine
10
0
20
7.2619467105846525
30
1.3322676295501878e-14
11
596
21
7.2619467105846525
31
1.3322676295501878e-14
0
LINE
5
147
100
AcDbEntity
8
BEND_EXTENT
100
AcDbLine
10
596
20
100.78584013175407
30
2.375877272697835e-13
11
0
21
100.78584013175407
31
2.375877272697835e-13
0
LINE
5
148
100
AcDbEntity
8
BEND_EXTENT
100
AcDbLine
10
596
20
5
30
1.3322676295501878e-14
11
0
21
5
31
1.3322676295501878e-14
0
LINE
5
149
100
AcDbEntity
8
BEND_EXTENT
100
AcDbLine
10
0
20
103.04778684233838
30
2.4868995751603507e-13
11
596
21
103.04778684233838
31
2.4868995751603507e-13
0
ENDSEC
0
SECTION
2
OBJECTS
0
DICTIONARY
5
C
100
AcDbDictionary
3
ACAD_GROUP
350
D
3
ACAD_MLINESTYLE
350
17
0
DICTIONARY
5
D
100
AcDbDictionary
0
DICTIONARY
5
1A
330
C
100
AcDbDictionary
0
DICTIONARY
5
17
100
AcDbDictionary
0
ENDSEC
0
EOF
