0
SECTION
2
HEADER
9
$INSUNITS
70
4
9
$ACADVER
1
AC1014
9
$HANDSEED
5
FFFF
0
ENDSEC
0
SECTION
2
TABLES
0
TABLE
2
VPORT
5
8
100
AcDbSymbolTable
0
ENDTAB
0
TABLE
2
LTYPE
5
5
100
AcDbSymbolTable
0
LTYPE
5
14
100
AcDbSymbolTableRecord
100
AcDbLinetypeTableRecord
2
BYBLOCK
70
0
0
LTYPE
5
15
100
AcDbSymbolTableRecord
100
AcDbLinetypeTableRecord
2
BYLAYER
70
0
0
LTYPE
5
16
100
AcDbSymbolTableRecord
100
AcDbLinetypeTableRecord
2
DASHED
70
0
3
Dashed __ __ __ __ __ __ __ __ __ __ __ __ __ _
72
65
73
2
40
0.75
49
0.5
74
0
49
-0.25
74
0
0
ENDTAB
0
TABLE
2
LAYER
5
2
100
AcDbSymbolTable
70
2
0
LAYER
5
50
100
AcDbSymbolTableRecord
100
AcDbLayerTableRecord
2
0
70
0
62
7
6
CONTINUOUS
0
ENDTAB
0
TABLE
2
STYLE
5
3
100
AcDbSymbolTable
70
1
0
STYLE
5
11
100
AcDbSymbolTableRecord
100
AcDbTextStyleTableRecord
2
STANDARD
70
0
0
ENDTAB
0
TABLE
2
VIEW
5
6
100
AcDbSymbolTable
70
0
0
ENDTAB
0
TABLE
2
UCS
5
7
100
AcDbSymbolTable
70
0
0
ENDTAB
0
TABLE
2
APPID
5
9
100
AcDbSymbolTable
70
2
0
APPID
5
12
100
AcDbSymbolTableRecord
100
AcDbRegAppTableRecord
2
ACAD
70
0
0
ENDTAB
0
TABLE
2
DIMSTYLE
5
A
100
AcDbSymbolTable
70
1
0
ENDTAB
0
TABLE
2
BLOCK_RECORD
5
1
100
AcDbSymbolTable
70
1
0
BLOCK_RECORD
5
1F
100
AcDbSymbolTableRecord
100
AcDbBlockTableRecord
2
*MODEL_SPACE
0
BLOCK_RECORD
5
1B
100
AcDbSymbolTableRecord
100
AcDbBlockTableRecord
2
*PAPER_SPACE
0
ENDTAB
0
ENDSEC
0
SECTION
2
BLOCKS
0
BLOCK
5
20
100
AcDbEntity
100
AcDbBlockBegin
2
*MODEL_SPACE
0
ENDBLK
5
21
100
AcDbEntity
100
AcDbBlockEnd
0
BLOCK
5
1C
100
AcDbEntity
100
AcDbBlockBegin
2
*PAPER_SPACE
0
ENDBLK
5
1D
100
AcDbEntity
100
AcDbBlockEnd
0
ENDSEC
0
SECTION
2
ENTITIES
0
LINE
5
100
100
AcDbEntity
8
OUTER_PROFILES
100
AcDbLine
10
-20.594604099276665
20
20.594604099276793
30
0
11
-15.594604099281071
21
15.594604099280707
31
0
0
SPLINE
5
101
100
AcDbEntity
8
OUTER_PROFILES
100
AcDbSpline
70
0
71
3
72
11
73
7
74
0
42
0.000000001
43
0.0000000001
44
0.0000000001
40
1.5707963267948968
40
1.5707963267948968
40
1.5707963267948968
40
1.5707963267948968
40
3.04376207838542
40
3.04376207838542
40
3.04376207838542
40
3.1415926535898109
40
3.1415926535898109
40
3.1415926535898109
40
3.1415926535898109
10
-15.594604099280218
20
15.594604099280636
30
0
10
-14.887580538516829
20
15.103615515417186
30
0
10
-14.180556977753298
20
14.64734280644298
30
0
10
-13.473533416989909
20
14.599385694527776
30
0
10
-13.426574740891795
20
14.596200507201649
30
0
10
-13.37961606479368
20
14.594604099280593
30
0
10
-13.332657388695566
20
14.594604099280593
30
0
0
LINE
5
102
100
AcDbEntity
8
OUTER_PROFILES
100
AcDbLine
10
-13.332657388695567
20
14.594604099280593
30
0
11
-7.3326573886764379
21
14.594604099278381
31
0
0
SPLINE
5
103
100
AcDbEntity
8
OUTER_PROFILES
100
AcDbSpline
70
0
71
3
72
11
73
7
74
0
42
0.000000001
43
0.0000000001
44
0.0000000001
40
-3.1415926535897931
40
-3.1415926535897931
40
-3.1415926535897931
40
-3.1415926535897931
40
-1.6686269019992719
40
-1.6686269019992719
40
-1.6686269019992719
40
-1.5707963267948966
40
-1.5707963267948966
40
-1.5707963267948966
40
-1.5707963267948966
10
-7.3326573886764379
20
14.594604099278381
30
0
10
-6.6256338279130489
20
14.594604099278373
30
0
10
-5.9186102671495178
20
15.008288627389923
30
0
10
-5.2115867063859866
20
15.496929502574373
30
0
10
-5.1646280302880143
20
15.529383765571364
30
0
10
-5.1176693541898999
20
15.561993907543577
30
0
10
-5.0707106780917854
20
15.594604099278367
30
0
0
LINE
5
104
100
AcDbEntity
8
OUTER_PROFILES
100
AcDbLine
10
-5.0707106780917863
20
15.594604099278369
30
0
11
-4.999999999998721
21
15.523893421152192
31
0
0
SPLINE
5
105
100
AcDbEntity
8
OUTER_PROFILES
100
AcDbSpline
70
0
71
3
72
11
73
7
74
0
42
0.000000001
43
0.0000000001
44
0.0000000001
40
1.5707963267948966
40
1.5707963267948966
40
1.5707963267948966
40
1.5707963267948966
40
1.6686269019992721
40
1.6686269019992721
40
1.6686269019992721
40
3.1415926535897931
40
3.1415926535897931
40
3.1415926535897931
40
3.1415926535897931
10
-4.999999999998721
20
15.523893421152192
30
0
10
-5.032610191733653
20
15.476934745054077
30
0
10
-5.0652203337055823
20
15.429976068956034
30
0
10
-5.0976745967027171
20
15.383017392857919
30
0
10
-5.5863154718871044
20
14.675993832094465
30
0
10
-5.9999999999986642
20
13.968970271330939
30
0
10
-5.9999999999986642
20
13.261946710567479
30
0
0
LINE
5
106
100
AcDbEntity
8
OUTER_PROFILES
100
AcDbLine
10
-5.9999999999986633
20
13.26194671056748
30
0
11
-5.9999999999965326
21
7.2619467105809985
31
0
0
SPLINE
5
107
100
AcDbEntity
8
OUTER_PROFILES
100
AcDbSpline
70
0
71
3
72
11
73
7
74
0
42
0.000000001
43
0.0000000001
44
0.0000000001
40
-3.1415926535898122
40
-3.1415926535898122
40
-3.1415926535898122
40
-3.1415926535898122
40
-3.0437620783854289
40
-3.0437620783854289
40
-3.0437620783854289
40
-1.5707963267949046
40
-1.5707963267949046
40
-1.5707963267949046
40
-1.5707963267949046
10
-5.9999999999965326
20
7.2619467105809985
30
0
10
-5.9999999999965326
20
7.2149880344828921
30
0
10
-5.9984035920754764
20
7.1680293583847865
30
0
10
-5.9952184047493517
20
7.1210706822866809
30
0
10
-5.9472612928342983
20
6.4140471215232058
30
0
10
-5.4909885838600303
20
5.7070235607596924
30
0
10
-4.9999999999965894
20
4.9999999999962412
30
0
0
LINE
5
108
100
AcDbEntity
8
OUTER_PROFILES
100
AcDbLine
10
-4.9999999999965894
20
4.9999999999962421
30
0
11
0
21
5.5511151231257827e-16
31
0
0
LINE
5
109
100
AcDbEntity
8
OUTER_PROFILES
100
AcDbLine
10
0
20
5.5511151231257827e-16
30
0
11
1131.8585786437675
21
6.4392935428259079e-14
31
0
0
LINE
5
110
100
AcDbEntity
8
OUTER_PROFILES
100
AcDbLine
10
1131.8585786437675
20
6.4392935428259079e-14
30
0
11
1136.8585786437623
21
4.9999999999958771
31
0
0
SPLINE
5
111
100
AcDbEntity
8
OUTER_PROFILES
100
AcDbSpline
70
0
71
3
72
11
73
7
74
0
42
0.000000001
43
0.0000000001
44
0.0000000001
40
1.5707963267949046
40
1.5707963267949046
40
1.5707963267949046
40
1.5707963267949046
40
3.0437620783854387
40
3.0437620783854387
40
3.0437620783854387
40
3.1415926535898109
40
3.1415926535898109
40
3.1415926535898109
40
3.1415926535898109
10
1136.8585786437623
20
4.9999999999966445
30
0
10
1137.3495672276258
20
5.7070235607601028
30
0
10
1137.8058399365998
20
6.4140471215235175
30
0
10
1137.8537970485152
20
7.1210706822869998
30
0
10
1137.8569822358413
20
7.1680293583851
30
0
10
1137.8585786437623
20
7.2149880344832029
30
0
10
1137.8585786437623
20
7.2619467105813005
30
0
0
LINE
5
112
100
AcDbEntity
8
OUTER_PROFILES
100
AcDbLine
10
1137.8585786437625
20
7.2619467105812996
30
0
11
1137.8585786437657
21
13.261946710575369
31
0
0
SPLINE
5
113
100
AcDbEntity
8
OUTER_PROFILES
100
AcDbSpline
70
0
71
3
72
11
73
7
74
0
42
0.000000001
43
0.0000000001
44
0.0000000001
40
-3.1415926535897931
40
-3.1415926535897931
40
-3.1415926535897931
40
-3.1415926535897931
40
-1.6686269019992628
40
-1.6686269019992628
40
-1.6686269019992628
40
-1.5707963267948966
40
-1.5707963267948966
40
-1.5707963267948966
40
-1.5707963267948966
10
1137.8585786437654
20
13.261946710576197
30
0
10
1137.8585786437654
20
13.968970271339728
30
0
10
1137.4448941156541
20
14.675993832103265
30
0
10
1136.9562532404693
20
15.383017392866732
30
0
10
1136.9237989774724
20
15.429976068964846
30
0
10
1136.8911888355001
20
15.47693474506289
30
0
10
1136.8585786437654
20
15.523893421161004
30
0
0
LINE
5
114
100
AcDbEntity
8
OUTER_PROFILES
100
AcDbLine
10
1136.8585786437652
20
15.523893421161002
30
0
11
1136.9292893218822
21
15.594604099278866
31
0
0
SPLINE
5
115
100
AcDbEntity
8
OUTER_PROFILES
100
AcDbSpline
70
0
71
3
72
11
73
7
74
0
42
0.000000001
43
0.0000000001
44
0.0000000001
40
1.5707963267948966
40
1.5707963267948966
40
1.5707963267948966
40
1.5707963267948966
40
1.6686269019992628
40
1.6686269019992628
40
1.6686269019992628
40
3.1415926535897931
40
3.1415926535897931
40
3.1415926535897931
40
3.1415926535897931
10
1136.9292893218822
20
15.594604099278866
30
0
10
1136.97624799798
20
15.561993907544077
30
0
10
1137.0232066740782
20
15.529383765571861
30
0
10
1137.0701653501762
20
15.496929502574869
30
0
10
1137.7771889109397
20
15.008288627390399
30
0
10
1138.4842124717031
20
14.594604099278833
30
0
10
1139.1912360324666
20
14.594604099278822
30
0
0
LINE
5
116
100
AcDbEntity
8
OUTER_PROFILES
100
AcDbLine
10
1139.1912360324666
20
14.594604099278822
30
0
11
1145.1912360324627
21
14.594604099280378
31
0
0
SPLINE
5
117
100
AcDbEntity
8
OUTER_PROFILES
100
AcDbSpline
70
0
71
3
72
11
73
7
74
0
42
0.000000001
43
0.0000000001
44
0.0000000001
40
-3.1415926535898104
40
-3.1415926535898104
40
-3.1415926535898104
40
-3.1415926535898104
40
-3.0437620783853983
40
-3.0437620783853983
40
-3.0437620783853983
40
-1.5707963267948697
40
-1.5707963267948697
40
-1.5707963267948697
40
-1.5707963267948697
10
1145.1912360324627
20
14.594604099280378
30
0
10
1145.2381947085607
20
14.594604099280378
30
0
10
1145.285153384659
20
14.596200507201505
30
0
10
1145.332112060757
20
14.599385694527626
30
0
10
1146.0391356215205
20
14.647342806442742
30
0
10
1146.7461591822839
20
15.103615515416859
30
0
10
1147.4531827430474
20
15.594604099280433
30
0
0
LINE
5
118
100
AcDbEntity
8
OUTER_PROFILES
100
AcDbLine
10
1147.4531827430474
20
15.594604099280433
30
0
11
1152.4531827430435
21
20.594604099276388
31
0
0
LINE
5
119
100
AcDbEntity
8
OUTER_PROFILES
100
AcDbLine
10
1152.4531827430435
20
20.594604099276388
30
0
11
1152.4531827430521
21
668.4531827430277
31
0
0
LINE
5
120
100
AcDbEntity
8
OUTER_PROFILES
100
AcDbLine
10
1152.4531827430521
20
668.4531827430277
30
0
11
1147.4531827430642
21
673.45318274302349
31
0
0
SPLINE
5
121
100
AcDbEntity
8
OUTER_PROFILES
100
AcDbSpline
70
0
71
3
72
11
73
7
74
0
42
0.000000001
43
0.0000000001
44
0.0000000001
40
1.5707963267948699
40
1.5707963267948699
40
1.5707963267948699
40
1.5707963267948699
40
3.0437620783853938
40
3.0437620783853938
40
3.0437620783853938
40
3.1415926535898104
40
3.1415926535898104
40
3.1415926535898104
40
3.1415926535898104
10
1147.4531827430642
20
673.45318274302349
30
0
10
1146.746159182301
20
673.94417132688682
30
0
10
1146.0391356215373
20
674.40044403586114
30
0
10
1145.3321120607739
20
674.44840114777617
30
0
10
1145.2851533846758
20
674.45158633510232
30
0
10
1145.2381947085778
20
674.45318274302338
30
0
10
1145.1912360324795
20
674.45318274302338
30
0
0
LINE
5
122
100
AcDbEntity
8
OUTER_PROFILES
100
AcDbLine
10
1145.1912360324795
20
674.45318274302349
30
0
11
1139.19123603248
21
674.45318274302633
31
0
0
SPLINE
5
123
100
AcDbEntity
8
OUTER_PROFILES
100
AcDbSpline
70
0
71
3
72
11
73
7
74
0
42
0.000000001
43
0.0000000001
44
0.0000000001
40
-3.1415926535897931
40
-3.1415926535897931
40
-3.1415926535897931
40
-3.1415926535897931
40
-1.6686269019992677
40
-1.6686269019992677
40
-1.6686269019992677
40
-1.5707963267948966
40
-1.5707963267948966
40
-1.5707963267948966
40
-1.5707963267948966
10
1139.19123603248
20
674.45318274302633
30
0
10
1138.4842124717165
20
674.45318274302633
30
0
10
1137.7771889109531
20
674.03949821491483
30
0
10
1137.0701653501894
20
673.55085733973044
30
0
10
1137.0232066740914
20
673.51840307673331
30
0
10
1136.9762479979934
20
673.48579293476109
30
0
10
1136.9292893218953
20
673.45318274302645
30
0
0
LINE
5
124
100
AcDbEntity
8
OUTER_PROFILES
100
AcDbLine
10
1136.9292893218953
20
673.45318274302622
30
0
11
1136.8585786437743
21
673.52389342113975
31
0
0
SPLINE
5
125
100
AcDbEntity
8
OUTER_PROFILES
100
AcDbSpline
70
0
71
3
72
11
73
7
74
0
42
0.000000001
43
0.0000000001
44
0.0000000001
40
1.5707963267948966
40
1.5707963267948966
40
1.5707963267948966
40
1.5707963267948966
40
1.6686269019992677
40
1.6686269019992677
40
1.6686269019992677
40
3.1415926535897931
40
3.1415926535897931
40
3.1415926535897931
40
3.1415926535897931
10
1136.8585786437743
20
673.52389342113975
30
0
10
1136.891188835509
20
673.57085209723789
30
0
10
1136.9237989774813
20
673.61781077333592
30
0
10
1136.9562532404782
20
673.66476944943406
30
0
10
1137.4448941156627
20
674.37179301019739
30
0
10
1137.8585786437743
20
675.07881657096095
30
0
10
1137.8585786437743
20
675.78584013172429
30
0
0
LINE
5
126
100
AcDbEntity
8
OUTER_PROFILES
100
AcDbLine
10
1137.8585786437743
20
675.78584013172429
30
0
11
1137.8585786437723
21
681.78584013172303
31
0
0
SPLINE
5
127
100
AcDbEntity
8
OUTER_PROFILES
100
AcDbSpline
70
0
71
3
72
11
73
7
74
0
42
0.000000001
43
0.0000000001
44
0.0000000001
40
-3.1415926535898109
40
-3.1415926535898109
40
-3.1415926535898109
40
-3.1415926535898109
40
-3.0437620783854262
40
-3.0437620783854262
40
-3.0437620783854262
40
-1.5707963267948983
40
-1.5707963267948983
40
-1.5707963267948983
40
-1.5707963267948983
10
1137.8585786437723
20
681.78584013172303
30
0
10
1137.8585786437723
20
681.83279880782095
30
0
10
1137.8569822358511
20
681.87975748391909
30
0
10
1137.8537970485249
20
681.92671616001712
30
0
10
1137.80583993661
20
682.63373972078068
30
0
10
1137.3495672276358
20
683.34076328154413
30
0
10
1136.858578643772
20
684.04778684230769
30
0
0
LINE
5
128
100
AcDbEntity
8
OUTER_PROFILES
100
AcDbLine
10
1136.858578643772
20
684.04778684230769
30
0
11
1131.8585786437761
21
689.04778684230428
31
0
0
LINE
5
129
100
AcDbEntity
8
OUTER_PROFILES
100
AcDbLine
10
1131.8585786437761
20
689.04778684230428
30
0
11
7.531752999057062e-12
21
689.04778684231928
31
0
0
LINE
5
130
100
AcDbEntity
8
OUTER_PROFILES
100
AcDbLine
10
7.531752999057062e-12
20
689.04778684231928
30
0
11
-4.9999999999877778
21
684.04778684232338
31
0
0
SPLINE
5
131
100
AcDbEntity
8
OUTER_PROFILES
100
AcDbSpline
70
0
71
3
72
11
73
7
74
0
42
0.000000001
43
0.0000000001
44
0.0000000001
40
1.5707963267948981
40
1.5707963267948981
40
1.5707963267948981
40
1.5707963267948981
40
3.0437620783854253
40
3.0437620783854253
40
3.0437620783854253
40
3.1415926535898104
40
3.1415926535898104
40
3.1415926535898104
40
3.1415926535898104
10
-4.9999999999876366
20
684.04778684232224
30
0
10
-5.4909885838510775
20
683.34076328155891
30
0
10
-5.9472612928253454
20
682.63373972079546
30
0
10
-5.995218404740541
20
681.92671616003213
30
0
10
-5.9984035920665235
20
681.87975748393399
30
0
10
-5.9999999999875797
20
681.83279880783584
30
0
10
-5.9999999999875797
20
681.78584013173781
30
0
0
LINE
5
132
100
AcDbEntity
8
OUTER_PROFILES
100
AcDbLine
10
-5.9999999999875806
20
681.78584013173781
30
0
11
-5.9999999999901377
21
675.78584013174407
31
0
0
SPLINE
5
133
100
AcDbEntity
8
OUTER_PROFILES
100
AcDbSpline
70
0
71
3
72
11
73
7
74
0
42
0.000000001
43
0.0000000001
44
0.0000000001
40
-3.1415926535897931
40
-3.1415926535897931
40
-3.1415926535897931
40
-3.1415926535897931
40
-1.6686269019992683
40
-1.6686269019992683
40
-1.6686269019992683
40
-1.5707963267948966
40
-1.5707963267948966
40
-1.5707963267948966
40
-1.5707963267948966
10
-5.9999999999899956
20
675.7858401317485
30
0
10
-5.9999999999899956
20
675.07881657098505
30
0
10
-5.5863154718784358
20
674.37179301022172
30
0
10
-5.0976745966940484
20
673.66476944945816
30
0
10
-5.0652203336969137
20
673.61781077336002
30
0
10
-5.0326101917247001
20
673.57085209726188
30
0
10
-4.9999999999900524
20
673.52389342116385
30
0
0
LINE
5
134
100
AcDbEntity
8
OUTER_PROFILES
100
AcDbLine
10
-4.9999999999900524
20
673.52389342116385
30
0
11
-5.0707106781089806
21
673.453182743041
31
0
0
SPLINE
5
135
100
AcDbEntity
8
OUTER_PROFILES
100
AcDbSpline
70
0
71
3
72
11
73
7
74
0
42
0.000000001
43
0.0000000001
44
0.0000000001
40
1.5707963267948966
40
1.5707963267948966
40
1.5707963267948966
40
1.5707963267948966
40
1.6686269019992683
40
1.6686269019992683
40
1.6686269019992683
40
3.1415926535897931
40
3.1415926535897931
40
3.1415926535897931
40
3.1415926535897931
10
-5.0707106781005962
20
673.453182743041
30
0
10
-5.1176693541987106
20
673.48579293477599
30
0
10
-5.1646280302966829
20
673.5184030767482
30
0
10
-5.2115867063949395
20
673.55085733974511
30
0
10
-5.9186102671583285
20
674.03949821492972
30
0
10
-6.6256338279217175
20
674.45318274304122
30
0
10
-7.3326573886852486
20
674.45318274304122
30
0
0
LINE
5
136
100
AcDbEntity
8
OUTER_PROFILES
100
AcDbLine
10
-7.3326573886852477
20
674.45318274304122
30
0
11
-13.332657388687892
21
674.45318274303941
31
0
0
SPLINE
5
137
100
AcDbEntity
8
OUTER_PROFILES
100
AcDbSpline
70
0
71
3
72
11
73
7
74
0
42
0.000000001
43
0.0000000001
44
0.0000000001
40
-3.1415926535898104
40
-3.1415926535898104
40
-3.1415926535898104
40
-3.1415926535898104
40
-3.0437620783854236
40
-3.0437620783854236
40
-3.0437620783854236
40
-1.5707963267948966
40
-1.5707963267948966
40
-1.5707963267948966
40
-1.5707963267948966
10
-13.332657388687892
20
674.45318274303941
30
0
10
-13.379616064786006
20
674.45318274303941
30
0
10
-13.426574740883979
20
674.45158633511835
30
0
10
-13.473533416982093
20
674.44840114779231
30
0
10
-14.180556977745624
20
674.40044403587706
30
0
10
-14.887580538509013
20
673.94417132690296
30
0
10
-15.594604099272544
20
673.45318274303952
30
0
0
LINE
5
138
100
AcDbEntity
8
OUTER_PROFILES
100
AcDbLine
10
-15.594604099272543
20
673.45318274303941
30
0
11
-20.594604099269418
21
668.45318274304327
31
0
0
LINE
5
139
100
AcDbEntity
8
OUTER_PROFILES
100
AcDbLine
10
-20.594604099269418
20
668.45318274304327
30
0
11
-20.594604099276665
21
20.594604099276793
31
0
0
LINE
5
140
100
AcDbEntity
8
BEND
100
AcDbLine
10
1138.0602626771752
20
14.887497318091913
30
-1.7869062338770877e-11
11
1138.060262677184
21
674.16028952421118
31
-1.2516815914931077e-11
0
LINE
5
141
100
AcDbEntity
8
BEND
100
AcDbLine
10
-14.463630743110798
20
674.16028952465285
30
-1.3374123517498282e-11
11
-14.46363074311833
21
14.887497317667027
31
-1.3416311992434009e-11
0
LINE
5
142
100
AcDbEntity
8
BEND
100
AcDbLine
10
-5.7071067816187337
20
6.1309733561759394
30
-1.33869914192364e-11
11
1137.5656854253843
21
6.1309733561763702
31
-1.3412252147041556e-11
0
LINE
5
143
100
AcDbEntity
8
BEND
100
AcDbLine
10
-5.7071067811816079
20
14.392920065867148
30
-1.2718359602655895e-11
11
1137.5656854249528
21
14.392920065867497
31
-1.2710868751234628e-11
0
LINE
5
144
100
AcDbEntity
8
BEND
100
AcDbLine
10
1137.5656854243293
20
682.91681348829729
30
-1.2292175893073082e-11
11
-5.7071067805446773
21
682.91681348831207
31
-1.2187534219007174e-11
0
LINE
5
145
100
AcDbEntity
8
BEND
100
AcDbLine
10
-6.2016840333883749
20
674.16028952422562
30
-1.258142719974307e-11
11
-6.2016840333957646
21
14.887497318086247
31
-1.2691894390693273e-11
0
LINE
5
146
100
AcDbEntity
8
BEND
100
AcDbLine
10
1146.3222093870311
20
14.887497317738383
30
-1.308594691475674e-11
11
1146.3222093870397
21
674.16028952456941
31
-1.3121196495788554e-11
0
LINE
5
147
100
AcDbEntity
8
BEND
100
AcDbLine
10
1137.5656854249632
20
674.65486677643696
30
-1.2615667126873021e-11
11
-5.7071067811745024
21
674.65486677645208
31
-1.2465089975163279e-11
0
LINE
5
148
100
AcDbEntity
8
BEND_EXTENT
100
AcDbLine
10
1147.4531827430565
20
673.45318274302349
30
-1.1670179194310615e-11
11
1147.4531827430478
21
15.594604099280645
31
-1.149698440246909e-11
0
LINE
5
149
100
AcDbEntity
8
BEND_EXTENT
100
AcDbLine
10
1145.1912360324636
20
14.59460409927846
30
-1.2398674670806495e-11
11
1145.1912360324723
21
674.45318274302576
31
-1.2469728944382505e-11
0
LINE
5
150
100
AcDbEntity
8
BEND_EXTENT
100
AcDbLine
10
-4.9999999999877787
20
684.04778684232338
30
-9.60384732569219e-12
11
1136.858578643772
21
684.04778684230894
31
-9.7925678902633072e-12
0
LINE
5
151
100
AcDbEntity
8
BEND_EXTENT
100
AcDbLine
10
1137.8585786437734
20
681.78584013172497
30
-1.2896667834578328e-11
11
-5.9999999999904219
21
681.78584013173963
31
-1.2637060261505036e-11
0
LINE
5
152
100
AcDbEntity
8
BEND_EXTENT
100
AcDbLine
10
-15.594604099281071
20
15.594604099280707
30
-1.2064987601879997e-11
11
-15.594604099273539
21
673.45318274303952
31
-1.2002815112500989e-11
0
LINE
5
153
100
AcDbEntity
8
BEND_EXTENT
100
AcDbLine
10
-13.332657388689313
20
674.45318274304088
30
-1.2566619236668791e-11
11
-13.332657388696845
21
14.594604099278428
31
-1.2708727783820811e-11
0
LINE
5
154
100
AcDbEntity
8
BEND_EXTENT
100
AcDbLine
10
1136.8585786437623
20
4.9999999999958771
30
-1.0816193518967705e-11
11
-4.9999999999965894
21
4.9999999999955191
31
-1.0818431314632115e-11
0
LINE
5
155
100
AcDbEntity
8
BEND_EXTENT
100
AcDbLine
10
-5.9999999999979536
20
7.2619467105793012
30
-1.3489711544417158e-11
11
1137.8585786437645
21
7.2619467105797568
31
-1.353615629676242e-11
0
LINE
5
156
100
AcDbEntity
8
BEND_EXTENT
100
AcDbLine
10
1139.1912360324768
20
674.45318274302633
30
-1.2541285013180019e-11
11
1139.1912360324679
21
14.594604099278854
31
-1.2470230739604009e-11
0
LINE
5
157
100
AcDbEntity
8
BEND_EXTENT
100
AcDbLine
10
1137.8585786437657
20
13.261946710575369
30
-1.289666783457833e-11
11
-5.9999999999986642
21
13.261946710574868
31
-1.2850223082233068e-11
0
LINE
5
158
100
AcDbEntity
8
BEND_EXTENT
100
AcDbLine
10
-5.9999999999901377
20
675.78584013174407
30
-1.2566005987929026e-11
11
1137.8585786437743
21
675.78584013172929
31
-1.2825613561002318e-11
0
LINE
5
159
100
AcDbEntity
8
BEND_EXTENT
100
AcDbLine
10
-7.3326573887013069
20
14.594604099278381
30
-1.2637171715023296e-11
11
-7.3326573886937751
21
674.45318274304145
31
-1.2495063167871276e-11
0
LINE
5
160
100
AcDbEntity
8
BEND_EXTENT
100
AcDbLine
10
1136.9292893218831
20
15.594604099277516
30
-1.2541474185521799e-11
11
1136.9292893218922
21
673.45318274302667
31
-1.2541890519156033e-11
0
LINE
5
161
100
AcDbEntity
8
BEND_EXTENT
100
AcDbLine
10
1136.8585786437743
20
673.52389342114475
30
-1.2541896432869429e-11
11
-4.9999999999909051
21
673.52389342115941
31
-1.2636976628968118e-11
0
LINE
5
162
100
AcDbEntity
8
BEND_EXTENT
100
AcDbLine
10
-5.0707106781089806
20
673.453182743041
30
-1.2636982542681517e-11
11
-5.0707106781165123
21
15.594604099278371
31
-1.2636982542681517e-11
0
LINE
5
163
100
AcDbEntity
8
BEND_EXTENT
100
AcDbLine
10
-4.9999999999977263
20
15.523893421159652
30
-1.2636976628968121e-11
11
1136.8585786437657
21
15.523893421160151
31
-1.2541480099235198e-11
0
ENDSEC
0
SECTION
2
OBJECTS
0
DICTIONARY
5
C
100
AcDbDictionary
3
ACAD_GROUP
350
D
3
ACAD_MLINESTYLE
350
17
0
DICTIONARY
5
D
100
AcDbDictionary
0
DICTIONARY
5
1A
330
C
100
AcDbDictionary
0
DICTIONARY
5
17
100
AcDbDictionary
0
ENDSEC
0
EOF
