0
SECTION
2
HEADER
9
$ACADVER
1
AC1015
9
$INSUNITS
70
4
0
ENDSEC
0
SECTION
2
ENTITIES
0
LWPOLYLINE
8
SHEET_BORDER
90
5
70
1
10
0.000
20
0.000
10
3050.000
20
0.000
10
3050.000
20
1525.000
10
0.000
20
1525.000
10
0.000
20
0.000
0
TEXT
8
PART_LABELS
10
645.500
20
277.000
30
0
40
50.000
1
2FCVN1-120030-Ruth
72
1
73
2
11
645.500
21
277.000
31
0
0
LWPOLYLINE
8
OUTER_PROFILES
90
32
70
1
10
1245.514
20
488.424
10
1271.786
20
488.424
42
-0.414214
10
1272.686
20
487.524
10
1272.686
20
451.524
10
1271.786
20
451.524
10
1271.786
20
451.424
10
1291.048
20
451.424
10
1291.048
20
102.624
10
1271.786
20
102.624
10
1271.786
20
102.524
10
1272.686
20
102.524
10
1272.686
20
66.524
42
-0.414214
10
1271.786
20
65.624
10
1245.514
20
65.624
10
1245.514
20
0.000
10
45.534
20
0.000
10
45.534
20
65.624
10
19.262
20
65.624
42
-0.414214
10
18.362
20
66.524
10
18.362
20
102.524
10
19.262
20
102.524
10
19.262
20
102.624
10
0.000
20
102.624
10
0.000
20
451.424
10
19.262
20
451.424
10
19.262
20
451.524
10
18.362
20
451.524
10
18.362
20
487.524
42
-0.414214
10
19.262
20
488.424
10
45.534
20
488.424
10
45.534
20
554.048
10
1245.514
20
554.048
0
CIRCLE
8
INTERIOR_PROFILES
10
32.262
20
140.524
30
0
40
6.500
0
CIRCLE
8
INTERIOR_PROFILES
10
1145.524
20
551.048
30
0
40
1.264
0
CIRCLE
8
INTERIOR_PROFILES
10
645.524
20
551.048
30
0
40
1.264
0
CIRCLE
8
INTERIOR_PROFILES
10
478.857
20
551.048
30
0
40
1.264
0
CIRCLE
8
INTERIOR_PROFILES
10
812.191
20
551.048
30
0
40
1.264
0
CIRCLE
8
INTERIOR_PROFILES
10
8.000
20
277.024
30
0
40
1.700
0
CIRCLE
8
INTERIOR_PROFILES
10
8.000
20
122.024
30
0
40
1.700
0
CIRCLE
8
INTERIOR_PROFILES
10
32.262
20
125.524
30
0
40
1.700
0
CIRCLE
8
INTERIOR_PROFILES
10
645.524
20
3.000
30
0
40
1.264
0
CIRCLE
8
INTERIOR_PROFILES
10
3.000
20
277.024
30
0
40
1.700
0
CIRCLE
8
INTERIOR_PROFILES
10
8.000
20
432.024
30
0
40
1.700
0
CIRCLE
8
INTERIOR_PROFILES
10
145.524
20
551.048
30
0
40
1.264
0
CIRCLE
8
INTERIOR_PROFILES
10
812.191
20
3.000
30
0
40
1.264
0
CIRCLE
8
INTERIOR_PROFILES
10
32.262
20
155.524
30
0
40
1.700
0
CIRCLE
8
INTERIOR_PROFILES
10
145.524
20
3.000
30
0
40
1.264
0
CIRCLE
8
INTERIOR_PROFILES
10
1145.524
20
3.000
30
0
40
1.264
0
CIRCLE
8
INTERIOR_PROFILES
10
32.262
20
95.524
30
0
40
1.700
0
CIRCLE
8
INTERIOR_PROFILES
10
478.857
20
3.000
30
0
40
1.264
0
CIRCLE
8
INTERIOR_PROFILES
10
32.262
20
185.524
30
0
40
1.700
0
CIRCLE
8
INTERIOR_PROFILES
10
1288.048
20
277.024
30
0
40
1.700
0
CIRCLE
8
INTERIOR_PROFILES
10
3.000
20
432.024
30
0
40
1.700
0
CIRCLE
8
INTERIOR_PROFILES
10
1283.048
20
122.024
30
0
40
1.700
0
CIRCLE
8
INTERIOR_PROFILES
10
1288.048
20
432.024
30
0
40
1.700
0
CIRCLE
8
INTERIOR_PROFILES
10
1283.048
20
277.024
30
0
40
1.700
0
CIRCLE
8
INTERIOR_PROFILES
10
1288.048
20
122.024
30
0
40
1.700
0
CIRCLE
8
INTERIOR_PROFILES
10
1283.048
20
432.024
30
0
40
1.700
0
CIRCLE
8
INTERIOR_PROFILES
10
3.000
20
122.024
30
0
40
1.700
0
TEXT
8
PART_LABELS
10
1587.500
20
586.500
30
0
40
50.000
1
2BK001-060120
72
1
73
2
11
1587.500
21
586.500
31
0
0
LINE
8
OUTER_PROFILES
10
1874.738
20
1158.453
30
0
11
1868.738
21
1158.453
31
0
0
SPLINE
8
OUTER_PROFILES
70
8
71
3
72
11
73
7
74
0
40
-3.141593
40
-3.141593
40
-3.141593
40
-3.141593
40
-1.668627
40
-1.668627
40
-1.668627
40
-1.570796
40
-1.570796
40
-1.570796
40
-1.570796
10
1868.738
20
1158.453
30
0
10
1868.031
20
1158.453
30
0
10
1867.324
20
1158.039
30
0
10
1866.617
20
1157.551
30
0
10
1866.570
20
1157.518
30
0
10
1866.523
20
1157.486
30
0
10
1866.476
20
1157.453
30
0
0
LINE
8
OUTER_PROFILES
10
1866.476
20
1157.453
30
0
11
1866.405
21
1157.524
31
0
0
SPLINE
8
OUTER_PROFILES
70
8
71
3
72
11
73
7
74
0
40
1.570796
40
1.570796
40
1.570796
40
1.570796
40
1.668627
40
1.668627
40
1.668627
40
3.141593
40
3.141593
40
3.141593
40
3.141593
10
1866.405
20
1157.524
30
0
10
1866.438
20
1157.571
30
0
10
1866.471
20
1157.618
30
0
10
1866.503
20
1157.665
30
0
10
1866.992
20
1158.372
30
0
10
1867.405
20
1159.079
30
0
10
1867.405
20
1159.786
30
0
0
LINE
8
OUTER_PROFILES
10
1867.405
20
1159.786
30
0
11
1867.405
21
1165.786
31
0
0
SPLINE
8
OUTER_PROFILES
70
8
71
3
72
11
73
7
74
0
40
-3.141593
40
-3.141593
40
-3.141593
40
-3.141593
40
-3.043762
40
-3.043762
40
-3.043762
40
-1.570796
40
-1.570796
40
-1.570796
40
-1.570796
10
1867.405
20
1165.786
30
0
10
1867.405
20
1165.833
30
0
10
1867.404
20
1165.880
30
0
10
1867.401
20
1165.927
30
0
10
1867.353
20
1166.634
30
0
10
1866.896
20
1167.341
30
0
10
1866.405
20
1168.048
30
0
0
LINE
8
OUTER_PROFILES
10
1866.405
20
1168.048
30
0
11
1861.405
21
1173.048
31
0
0
LINE
8
OUTER_PROFILES
10
1861.405
20
1173.048
30
0
11
1313.547
21
1173.048
31
0
0
LINE
8
OUTER_PROFILES
10
1313.547
20
1173.048
30
0
11
1308.547
21
1168.048
31
0
0
SPLINE
8
OUTER_PROFILES
70
8
71
3
72
11
73
7
74
0
40
1.570796
40
1.570796
40
1.570796
40
1.570796
40
3.043762
40
3.043762
40
3.043762
40
3.141593
40
3.141593
40
3.141593
40
3.141593
10
1308.547
20
1168.048
30
0
10
1308.056
20
1167.341
30
0
10
1307.600
20
1166.634
30
0
10
1307.552
20
1165.927
30
0
10
1307.548
20
1165.880
30
0
10
1307.547
20
1165.833
30
0
10
1307.547
20
1165.786
30
0
0
LINE
8
OUTER_PROFILES
10
1307.547
20
1165.786
30
0
11
1307.547
21
1159.786
31
0
0
SPLINE
8
OUTER_PROFILES
70
8
71
3
72
11
73
7
74
0
40
-3.141593
40
-3.141593
40
-3.141593
40
-3.141593
40
-1.668627
40
-1.668627
40
-1.668627
40
-1.570796
40
-1.570796
40
-1.570796
40
-1.570796
10
1307.547
20
1159.786
30
0
10
1307.547
20
1159.079
30
0
10
1307.961
20
1158.372
30
0
10
1308.449
20
1157.665
30
0
10
1308.482
20
1157.618
30
0
10
1308.514
20
1157.571
30
0
10
1308.547
20
1157.524
30
0
0
LINE
8
OUTER_PROFILES
10
1308.547
20
1157.524
30
0
11
1308.476
21
1157.453
31
0
0
SPLINE
8
OUTER_PROFILES
70
8
71
3
72
11
73
7
74
0
40
1.570796
40
1.570796
40
1.570796
40
1.570796
40
1.668627
40
1.668627
40
1.668627
40
3.141593
40
3.141593
40
3.141593
40
3.141593
10
1308.476
20
1157.453
30
0
10
1308.429
20
1157.486
30
0
10
1308.382
20
1157.518
30
0
10
1308.335
20
1157.551
30
0
10
1307.628
20
1158.039
30
0
10
1306.921
20
1158.453
30
0
10
1306.214
20
1158.453
30
0
0
LINE
8
OUTER_PROFILES
10
1306.214
20
1158.453
30
0
11
1300.214
21
1158.453
31
0
0
SPLINE
8
OUTER_PROFILES
70
8
71
3
72
11
73
7
74
0
40
-3.141593
40
-3.141593
40
-3.141593
40
-3.141593
40
-3.043762
40
-3.043762
40
-3.043762
40
-1.570796
40
-1.570796
40
-1.570796
40
-1.570796
10
1300.214
20
1158.453
30
0
10
1300.167
20
1158.453
30
0
10
1300.120
20
1158.452
30
0
10
1300.073
20
1158.448
30
0
10
1299.366
20
1158.400
30
0
10
1298.659
20
1157.944
30
0
10
1297.952
20
1157.453
30
0
0
LINE
8
OUTER_PROFILES
10
1297.952
20
1157.453
30
0
11
1292.952
21
1152.453
31
0
0
LINE
8
OUTER_PROFILES
10
1292.952
20
1152.453
30
0
11
1292.952
21
20.595
31
0
0
LINE
8
OUTER_PROFILES
10
1292.952
20
20.595
30
0
11
1297.952
21
15.595
31
0
0
SPLINE
8
OUTER_PROFILES
70
8
71
3
72
11
73
7
74
0
40
1.570796
40
1.570796
40
1.570796
40
1.570796
40
3.043762
40
3.043762
40
3.043762
40
3.141593
40
3.141593
40
3.141593
40
3.141593
10
1297.952
20
15.595
30
0
10
1298.659
20
15.104
30
0
10
1299.366
20
14.647
30
0
10
1300.073
20
14.599
30
0
10
1300.120
20
14.596
30
0
10
1300.167
20
14.595
30
0
10
1300.214
20
14.595
30
0
0
LINE
8
OUTER_PROFILES
10
1300.214
20
14.595
30
0
11
1306.214
21
14.595
31
0
0
SPLINE
8
OUTER_PROFILES
70
8
71
3
72
11
73
7
74
0
40
-3.141593
40
-3.141593
40
-3.141593
40
-3.141593
40
-1.668627
40
-1.668627
40
-1.668627
40
-1.570796
40
-1.570796
40
-1.570796
40
-1.570796
10
1306.214
20
14.595
30
0
10
1306.921
20
14.595
30
0
10
1307.628
20
15.008
30
0
10
1308.335
20
15.497
30
0
10
1308.382
20
15.529
30
0
10
1308.429
20
15.562
30
0
10
1308.476
20
15.595
30
0
0
LINE
8
OUTER_PROFILES
10
1308.476
20
15.595
30
0
11
1308.547
21
15.524
31
0
0
SPLINE
8
OUTER_PROFILES
70
8
71
3
72
11
73
7
74
0
40
1.570796
40
1.570796
40
1.570796
40
1.570796
40
1.668627
40
1.668627
40
1.668627
40
3.141593
40
3.141593
40
3.141593
40
3.141593
10
1308.547
20
15.524
30
0
10
1308.514
20
15.477
30
0
10
1308.482
20
15.430
30
0
10
1308.449
20
15.383
30
0
10
1307.961
20
14.676
30
0
10
1307.547
20
13.969
30
0
10
1307.547
20
13.262
30
0
0
LINE
8
OUTER_PROFILES
10
1307.547
20
13.262
30
0
11
1307.547
21
7.262
31
0
0
SPLINE
8
OUTER_PROFILES
70
8
71
3
72
11
73
7
74
0
40
-3.141593
40
-3.141593
40
-3.141593
40
-3.141593
40
-3.043762
40
-3.043762
40
-3.043762
40
-1.570796
40
-1.570796
40
-1.570796
40
-1.570796
10
1307.547
20
7.262
30
0
10
1307.547
20
7.215
30
0
10
1307.548
20
7.168
30
0
10
1307.552
20
7.121
30
0
10
1307.600
20
6.414
30
0
10
1308.056
20
5.707
30
0
10
1308.547
20
5.000
30
0
0
LINE
8
OUTER_PROFILES
10
1308.547
20
5.000
30
0
11
1313.547
21
0.000
31
0
0
LINE
8
OUTER_PROFILES
10
1313.547
20
0.000
30
0
11
1861.405
21
0.000
31
0
0
LINE
8
OUTER_PROFILES
10
1861.405
20
0.000
30
0
11
1866.405
21
5.000
31
0
0
SPLINE
8
OUTER_PROFILES
70
8
71
3
72
11
73
7
74
0
40
1.570796
40
1.570796
40
1.570796
40
1.570796
40
3.043762
40
3.043762
40
3.043762
40
3.141593
40
3.141593
40
3.141593
40
3.141593
10
1866.405
20
5.000
30
0
10
1866.896
20
5.707
30
0
10
1867.353
20
6.414
30
0
10
1867.401
20
7.121
30
0
10
1867.404
20
7.168
30
0
10
1867.405
20
7.215
30
0
10
1867.405
20
7.262
30
0
0
LINE
8
OUTER_PROFILES
10
1867.405
20
7.262
30
0
11
1867.405
21
13.262
31
0
0
SPLINE
8
OUTER_PROFILES
70
8
71
3
72
11
73
7
74
0
40
-3.141593
40
-3.141593
40
-3.141593
40
-3.141593
40
-1.668627
40
-1.668627
40
-1.668627
40
-1.570796
40
-1.570796
40
-1.570796
40
-1.570796
10
1867.405
20
13.262
30
0
10
1867.405
20
13.969
30
0
10
1866.992
20
14.676
30
0
10
1866.503
20
15.383
30
0
10
1866.471
20
15.430
30
0
10
1866.438
20
15.477
30
0
10
1866.405
20
15.524
30
0
0
LINE
8
OUTER_PROFILES
10
1866.405
20
15.524
30
0
11
1866.476
21
15.595
31
0
0
SPLINE
8
OUTER_PROFILES
70
8
71
3
72
11
73
7
74
0
40
1.570796
40
1.570796
40
1.570796
40
1.570796
40
1.668627
40
1.668627
40
1.668627
40
3.141593
40
3.141593
40
3.141593
40
3.141593
10
1866.476
20
15.595
30
0
10
1866.523
20
15.562
30
0
10
1866.570
20
15.529
30
0
10
1866.617
20
15.497
30
0
10
1867.324
20
15.008
30
0
10
1868.031
20
14.595
30
0
10
1868.738
20
14.595
30
0
0
LINE
8
OUTER_PROFILES
10
1868.738
20
14.595
30
0
11
1874.738
21
14.595
31
0
0
SPLINE
8
OUTER_PROFILES
70
8
71
3
72
11
73
7
74
0
40
-3.141593
40
-3.141593
40
-3.141593
40
-3.141593
40
-3.043762
40
-3.043762
40
-3.043762
40
-1.570796
40
-1.570796
40
-1.570796
40
-1.570796
10
1874.738
20
14.595
30
0
10
1874.785
20
14.595
30
0
10
1874.832
20
14.596
30
0
10
1874.879
20
14.599
30
0
10
1875.586
20
14.647
30
0
10
1876.293
20
15.104
30
0
10
1877.000
20
15.595
30
0
0
LINE
8
OUTER_PROFILES
10
1877.000
20
15.595
30
0
11
1882.000
21
20.595
31
0
0
LINE
8
OUTER_PROFILES
10
1882.000
20
20.595
30
0
11
1882.000
21
1152.453
31
0
0
LINE
8
OUTER_PROFILES
10
1882.000
20
1152.453
30
0
11
1877.000
21
1157.453
31
0
0
SPLINE
8
OUTER_PROFILES
70
8
71
3
72
11
73
7
74
0
40
1.570796
40
1.570796
40
1.570796
40
1.570796
40
3.043762
40
3.043762
40
3.043762
40
3.141593
40
3.141593
40
3.141593
40
3.141593
10
1877.000
20
1157.453
30
0
10
1876.293
20
1157.944
30
0
10
1875.586
20
1158.400
30
0
10
1874.879
20
1158.448
30
0
10
1874.832
20
1158.452
30
0
10
1874.785
20
1158.453
30
0
10
1874.738
20
1158.453
30
0
0
TEXT
8
PART_LABELS
10
2178.500
20
586.500
30
0
40
50.000
1
2BK001-060120
72
1
73
2
11
2178.500
21
586.500
31
0
0
LINE
8
OUTER_PROFILES
10
2465.738
20
1158.453
30
0
11
2459.738
21
1158.453
31
0
0
SPLINE
8
OUTER_PROFILES
70
8
71
3
72
11
73
7
74
0
40
-3.141593
40
-3.141593
40
-3.141593
40
-3.141593
40
-1.668627
40
-1.668627
40
-1.668627
40
-1.570796
40
-1.570796
40
-1.570796
40
-1.570796
10
2459.738
20
1158.453
30
0
10
2459.031
20
1158.453
30
0
10
2458.324
20
1158.039
30
0
10
2457.617
20
1157.551
30
0
10
2457.570
20
1157.518
30
0
10
2457.523
20
1157.486
30
0
10
2457.476
20
1157.453
30
0
0
LINE
8
OUTER_PROFILES
10
2457.476
20
1157.453
30
0
11
2457.405
21
1157.524
31
0
0
SPLINE
8
OUTER_PROFILES
70
8
71
3
72
11
73
7
74
0
40
1.570796
40
1.570796
40
1.570796
40
1.570796
40
1.668627
40
1.668627
40
1.668627
40
3.141593
40
3.141593
40
3.141593
40
3.141593
10
2457.405
20
1157.524
30
0
10
2457.438
20
1157.571
30
0
10
2457.471
20
1157.618
30
0
10
2457.503
20
1157.665
30
0
10
2457.992
20
1158.372
30
0
10
2458.405
20
1159.079
30
0
10
2458.405
20
1159.786
30
0
0
LINE
8
OUTER_PROFILES
10
2458.405
20
1159.786
30
0
11
2458.405
21
1165.786
31
0
0
SPLINE
8
OUTER_PROFILES
70
8
71
3
72
11
73
7
74
0
40
-3.141593
40
-3.141593
40
-3.141593
40
-3.141593
40
-3.043762
40
-3.043762
40
-3.043762
40
-1.570796
40
-1.570796
40
-1.570796
40
-1.570796
10
2458.405
20
1165.786
30
0
10
2458.405
20
1165.833
30
0
10
2458.404
20
1165.880
30
0
10
2458.401
20
1165.927
30
0
10
2458.353
20
1166.634
30
0
10
2457.896
20
1167.341
30
0
10
2457.405
20
1168.048
30
0
0
LINE
8
OUTER_PROFILES
10
2457.405
20
1168.048
30
0
11
2452.405
21
1173.048
31
0
0
LINE
8
OUTER_PROFILES
10
2452.405
20
1173.048
30
0
11
1904.547
21
1173.048
31
0
0
LINE
8
OUTER_PROFILES
10
1904.547
20
1173.048
30
0
11
1899.547
21
1168.048
31
0
0
SPLINE
8
OUTER_PROFILES
70
8
71
3
72
11
73
7
74
0
40
1.570796
40
1.570796
40
1.570796
40
1.570796
40
3.043762
40
3.043762
40
3.043762
40
3.141593
40
3.141593
40
3.141593
40
3.141593
10
1899.547
20
1168.048
30
0
10
1899.056
20
1167.341
30
0
10
1898.600
20
1166.634
30
0
10
1898.552
20
1165.927
30
0
10
1898.548
20
1165.880
30
0
10
1898.547
20
1165.833
30
0
10
1898.547
20
1165.786
30
0
0
LINE
8
OUTER_PROFILES
10
1898.547
20
1165.786
30
0
11
1898.547
21
1159.786
31
0
0
SPLINE
8
OUTER_PROFILES
70
8
71
3
72
11
73
7
74
0
40
-3.141593
40
-3.141593
40
-3.141593
40
-3.141593
40
-1.668627
40
-1.668627
40
-1.668627
40
-1.570796
40
-1.570796
40
-1.570796
40
-1.570796
10
1898.547
20
1159.786
30
0
10
1898.547
20
1159.079
30
0
10
1898.961
20
1158.372
30
0
10
1899.449
20
1157.665
30
0
10
1899.482
20
1157.618
30
0
10
1899.514
20
1157.571
30
0
10
1899.547
20
1157.524
30
0
0
LINE
8
OUTER_PROFILES
10
1899.547
20
1157.524
30
0
11
1899.476
21
1157.453
31
0
0
SPLINE
8
OUTER_PROFILES
70
8
71
3
72
11
73
7
74
0
40
1.570796
40
1.570796
40
1.570796
40
1.570796
40
1.668627
40
1.668627
40
1.668627
40
3.141593
40
3.141593
40
3.141593
40
3.141593
10
1899.476
20
1157.453
30
0
10
1899.429
20
1157.486
30
0
10
1899.382
20
1157.518
30
0
10
1899.335
20
1157.551
30
0
10
1898.628
20
1158.039
30
0
10
1897.921
20
1158.453
30
0
10
1897.214
20
1158.453
30
0
0
LINE
8
OUTER_PROFILES
10
1897.214
20
1158.453
30
0
11
1891.214
21
1158.453
31
0
0
SPLINE
8
OUTER_PROFILES
70
8
71
3
72
11
73
7
74
0
40
-3.141593
40
-3.141593
40
-3.141593
40
-3.141593
40
-3.043762
40
-3.043762
40
-3.043762
40
-1.570796
40
-1.570796
40
-1.570796
40
-1.570796
10
1891.214
20
1158.453
30
0
10
1891.167
20
1158.453
30
0
10
1891.120
20
1158.452
30
0
10
1891.073
20
1158.448
30
0
10
1890.366
20
1158.400
30
0
10
1889.659
20
1157.944
30
0
10
1888.952
20
1157.453
30
0
0
LINE
8
OUTER_PROFILES
10
1888.952
20
1157.453
30
0
11
1883.952
21
1152.453
31
0
0
LINE
8
OUTER_PROFILES
10
1883.952
20
1152.453
30
0
11
1883.952
21
20.595
31
0
0
LINE
8
OUTER_PROFILES
10
1883.952
20
20.595
30
0
11
1888.952
21
15.595
31
0
0
SPLINE
8
OUTER_PROFILES
70
8
71
3
72
11
73
7
74
0
40
1.570796
40
1.570796
40
1.570796
40
1.570796
40
3.043762
40
3.043762
40
3.043762
40
3.141593
40
3.141593
40
3.141593
40
3.141593
10
1888.952
20
15.595
30
0
10
1889.659
20
15.104
30
0
10
1890.366
20
14.647
30
0
10
1891.073
20
14.599
30
0
10
1891.120
20
14.596
30
0
10
1891.167
20
14.595
30
0
10
1891.214
20
14.595
30
0
0
LINE
8
OUTER_PROFILES
10
1891.214
20
14.595
30
0
11
1897.214
21
14.595
31
0
0
SPLINE
8
OUTER_PROFILES
70
8
71
3
72
11
73
7
74
0
40
-3.141593
40
-3.141593
40
-3.141593
40
-3.141593
40
-1.668627
40
-1.668627
40
-1.668627
40
-1.570796
40
-1.570796
40
-1.570796
40
-1.570796
10
1897.214
20
14.595
30
0
10
1897.921
20
14.595
30
0
10
1898.628
20
15.008
30
0
10
1899.335
20
15.497
30
0
10
1899.382
20
15.529
30
0
10
1899.429
20
15.562
30
0
10
1899.476
20
15.595
30
0
0
LINE
8
OUTER_PROFILES
10
1899.476
20
15.595
30
0
11
1899.547
21
15.524
31
0
0
SPLINE
8
OUTER_PROFILES
70
8
71
3
72
11
73
7
74
0
40
1.570796
40
1.570796
40
1.570796
40
1.570796
40
1.668627
40
1.668627
40
1.668627
40
3.141593
40
3.141593
40
3.141593
40
3.141593
10
1899.547
20
15.524
30
0
10
1899.514
20
15.477
30
0
10
1899.482
20
15.430
30
0
10
1899.449
20
15.383
30
0
10
1898.961
20
14.676
30
0
10
1898.547
20
13.969
30
0
10
1898.547
20
13.262
30
0
0
LINE
8
OUTER_PROFILES
10
1898.547
20
13.262
30
0
11
1898.547
21
7.262
31
0
0
SPLINE
8
OUTER_PROFILES
70
8
71
3
72
11
73
7
74
0
40
-3.141593
40
-3.141593
40
-3.141593
40
-3.141593
40
-3.043762
40
-3.043762
40
-3.043762
40
-1.570796
40
-1.570796
40
-1.570796
40
-1.570796
10
1898.547
20
7.262
30
0
10
1898.547
20
7.215
30
0
10
1898.548
20
7.168
30
0
10
1898.552
20
7.121
30
0
10
1898.600
20
6.414
30
0
10
1899.056
20
5.707
30
0
10
1899.547
20
5.000
30
0
0
LINE
8
OUTER_PROFILES
10
1899.547
20
5.000
30
0
11
1904.547
21
0.000
31
0
0
LINE
8
OUTER_PROFILES
10
1904.547
20
0.000
30
0
11
2452.405
21
0.000
31
0
0
LINE
8
OUTER_PROFILES
10
2452.405
20
0.000
30
0
11
2457.405
21
5.000
31
0
0
SPLINE
8
OUTER_PROFILES
70
8
71
3
72
11
73
7
74
0
40
1.570796
40
1.570796
40
1.570796
40
1.570796
40
3.043762
40
3.043762
40
3.043762
40
3.141593
40
3.141593
40
3.141593
40
3.141593
10
2457.405
20
5.000
30
0
10
2457.896
20
5.707
30
0
10
2458.353
20
6.414
30
0
10
2458.401
20
7.121
30
0
10
2458.404
20
7.168
30
0
10
2458.405
20
7.215
30
0
10
2458.405
20
7.262
30
0
0
LINE
8
OUTER_PROFILES
10
2458.405
20
7.262
30
0
11
2458.405
21
13.262
31
0
0
SPLINE
8
OUTER_PROFILES
70
8
71
3
72
11
73
7
74
0
40
-3.141593
40
-3.141593
40
-3.141593
40
-3.141593
40
-1.668627
40
-1.668627
40
-1.668627
40
-1.570796
40
-1.570796
40
-1.570796
40
-1.570796
10
2458.405
20
13.262
30
0
10
2458.405
20
13.969
30
0
10
2457.992
20
14.676
30
0
10
2457.503
20
15.383
30
0
10
2457.471
20
15.430
30
0
10
2457.438
20
15.477
30
0
10
2457.405
20
15.524
30
0
0
LINE
8
OUTER_PROFILES
10
2457.405
20
15.524
30
0
11
2457.476
21
15.595
31
0
0
SPLINE
8
OUTER_PROFILES
70
8
71
3
72
11
73
7
74
0
40
1.570796
40
1.570796
40
1.570796
40
1.570796
40
1.668627
40
1.668627
40
1.668627
40
3.141593
40
3.141593
40
3.141593
40
3.141593
10
2457.476
20
15.595
30
0
10
2457.523
20
15.562
30
0
10
2457.570
20
15.529
30
0
10
2457.617
20
15.497
30
0
10
2458.324
20
15.008
30
0
10
2459.031
20
14.595
30
0
10
2459.738
20
14.595
30
0
0
LINE
8
OUTER_PROFILES
10
2459.738
20
14.595
30
0
11
2465.738
21
14.595
31
0
0
SPLINE
8
OUTER_PROFILES
70
8
71
3
72
11
73
7
74
0
40
-3.141593
40
-3.141593
40
-3.141593
40
-3.141593
40
-3.043762
40
-3.043762
40
-3.043762
40
-1.570796
40
-1.570796
40
-1.570796
40
-1.570796
10
2465.738
20
14.595
30
0
10
2465.785
20
14.595
30
0
10
2465.832
20
14.596
30
0
10
2465.879
20
14.599
30
0
10
2466.586
20
14.647
30
0
10
2467.293
20
15.104
30
0
10
2468.000
20
15.595
30
0
0
LINE
8
OUTER_PROFILES
10
2468.000
20
15.595
30
0
11
2473.000
21
20.595
31
0
0
LINE
8
OUTER_PROFILES
10
2473.000
20
20.595
30
0
11
2473.000
21
1152.453
31
0
0
LINE
8
OUTER_PROFILES
10
2473.000
20
1152.453
30
0
11
2468.000
21
1157.453
31
0
0
SPLINE
8
OUTER_PROFILES
70
8
71
3
72
11
73
7
74
0
40
1.570796
40
1.570796
40
1.570796
40
1.570796
40
3.043762
40
3.043762
40
3.043762
40
3.141593
40
3.141593
40
3.141593
40
3.141593
10
2468.000
20
1157.453
30
0
10
2467.293
20
1157.944
30
0
10
2466.586
20
1158.400
30
0
10
2465.879
20
1158.448
30
0
10
2465.832
20
1158.452
30
0
10
2465.785
20
1158.453
30
0
10
2465.738
20
1158.453
30
0
0
TEXT
8
PART_LABELS
10
635.500
20
823.000
30
0
40
50.000
1
2FCVN1-120020
72
1
73
2
11
635.500
21
823.000
31
0
0
LWPOLYLINE
8
OUTER_PROFILES
90
32
70
1
10
1235.514
20
1034.424
10
1251.786
20
1034.424
42
-0.414214
10
1252.686
20
1033.524
10
1252.686
20
997.524
10
1251.786
20
997.524
10
1251.786
20
997.424
10
1271.048
20
997.424
10
1271.048
20
648.624
10
1251.786
20
648.624
10
1251.786
20
648.524
10
1252.686
20
648.524
10
1252.686
20
612.524
42
-0.414214
10
1251.786
20
611.624
10
1235.514
20
611.624
10
1235.514
20
556.000
10
35.534
20
556.000
10
35.534
20
611.624
10
19.262
20
611.624
42
-0.414214
10
18.362
20
612.524
10
18.362
20
648.524
10
19.262
20
648.524
10
19.262
20
648.624
10
0.000
20
648.624
10
0.000
20
997.424
10
19.262
20
997.424
10
19.262
20
997.524
10
18.362
20
997.524
10
18.362
20
1033.524
42
-0.414214
10
19.262
20
1034.424
10
35.534
20
1034.424
10
35.534
20
1090.048
10
1235.514
20
1090.048
0
CIRCLE
8
INTERIOR_PROFILES
10
635.524
20
559.000
30
0
40
1.264
0
CIRCLE
8
INTERIOR_PROFILES
10
135.524
20
559.000
30
0
40
1.264
0
CIRCLE
8
INTERIOR_PROFILES
10
635.524
20
1087.048
30
0
40
1.264
0
CIRCLE
8
INTERIOR_PROFILES
10
8.000
20
668.024
30
0
40
1.700
0
CIRCLE
8
INTERIOR_PROFILES
10
468.857
20
559.000
30
0
40
1.264
0
CIRCLE
8
INTERIOR_PROFILES
10
8.000
20
823.024
30
0
40
1.700
0
CIRCLE
8
INTERIOR_PROFILES
10
3.000
20
823.024
30
0
40
1.700
0
CIRCLE
8
INTERIOR_PROFILES
10
8.000
20
978.024
30
0
40
1.700
0
CIRCLE
8
INTERIOR_PROFILES
10
1135.524
20
1087.048
30
0
40
1.264
0
CIRCLE
8
INTERIOR_PROFILES
10
1263.048
20
978.024
30
0
40
1.700
0
CIRCLE
8
INTERIOR_PROFILES
10
468.857
20
1087.048
30
0
40
1.264
0
CIRCLE
8
INTERIOR_PROFILES
10
135.524
20
1087.048
30
0
40
1.264
0
CIRCLE
8
INTERIOR_PROFILES
10
802.191
20
559.000
30
0
40
1.264
0
CIRCLE
8
INTERIOR_PROFILES
10
1135.524
20
559.000
30
0
40
1.264
0
CIRCLE
8
INTERIOR_PROFILES
10
802.191
20
1087.048
30
0
40
1.264
0
CIRCLE
8
INTERIOR_PROFILES
10
1263.048
20
823.024
30
0
40
1.700
0
CIRCLE
8
INTERIOR_PROFILES
10
1268.048
20
668.024
30
0
40
1.700
0
CIRCLE
8
INTERIOR_PROFILES
10
1263.048
20
668.024
30
0
40
1.700
0
CIRCLE
8
INTERIOR_PROFILES
10
1268.048
20
978.024
30
0
40
1.700
0
CIRCLE
8
INTERIOR_PROFILES
10
1268.048
20
823.024
30
0
40
1.700
0
CIRCLE
8
INTERIOR_PROFILES
10
3.000
20
978.024
30
0
40
1.700
0
CIRCLE
8
INTERIOR_PROFILES
10
3.000
20
668.024
30
0
40
1.700
0
TEXT
8
PART_LABELS
10
595.500
20
1275.500
30
0
40
50.000
1
2SDCN2-120034
72
1
73
2
11
595.500
21
1275.500
31
0
0
LWPOLYLINE
8
OUTER_PROFILES
90
24
70
1
10
21.757
20
1115.100
10
16.262
20
1120.595
10
0.000
20
1120.595
10
0.000
20
1450.524
10
23.524
20
1450.524
10
23.524
20
1458.786
10
1167.524
20
1458.786
10
1167.524
20
1450.524
10
1191.048
20
1450.524
10
1191.048
20
1120.595
10
1174.786
20
1120.595
10
1169.291
20
1115.100
42
0.414214
10
1169.291
20
1113.686
10
1174.786
20
1108.191
10
1174.786
20
1104.333
10
1169.291
20
1098.838
42
0.414214
10
1169.291
20
1097.424
10
1174.715
20
1092.000
10
16.333
20
1092.000
10
21.757
20
1097.424
42
0.414214
10
21.757
20
1098.838
10
16.262
20
1104.333
10
16.262
20
1108.191
10
21.757
20
1113.686
42
0.414214
0
CIRCLE
8
INTERIOR_PROFILES
10
1045.524
20
1154.524
30
0
40
2.117
0
CIRCLE
8
INTERIOR_PROFILES
10
1045.524
20
1442.524
30
0
40
2.117
0
CIRCLE
8
INTERIOR_PROFILES
10
745.524
20
1442.524
30
0
40
2.117
0
CIRCLE
8
INTERIOR_PROFILES
10
445.524
20
1442.524
30
0
40
2.117
0
CIRCLE
8
INTERIOR_PROFILES
10
645.524
20
1154.524
30
0
40
2.117
0
CIRCLE
8
INTERIOR_PROFILES
10
845.524
20
1154.524
30
0
40
2.117
0
CIRCLE
8
INTERIOR_PROFILES
10
695.524
20
1154.524
30
0
40
2.117
0
CIRCLE
8
INTERIOR_PROFILES
10
495.524
20
1154.524
30
0
40
2.117
0
CIRCLE
8
INTERIOR_PROFILES
10
645.524
20
1442.524
30
0
40
2.117
0
CIRCLE
8
INTERIOR_PROFILES
10
845.524
20
1442.524
30
0
40
2.117
0
CIRCLE
8
INTERIOR_PROFILES
10
745.524
20
1154.524
30
0
40
2.117
0
CIRCLE
8
INTERIOR_PROFILES
10
895.524
20
1154.524
30
0
40
2.117
0
CIRCLE
8
INTERIOR_PROFILES
10
145.524
20
1154.524
30
0
40
2.117
0
CIRCLE
8
INTERIOR_PROFILES
10
545.524
20
1154.524
30
0
40
2.117
0
CIRCLE
8
INTERIOR_PROFILES
10
195.524
20
1154.524
30
0
40
2.117
0
CIRCLE
8
INTERIOR_PROFILES
10
245.524
20
1442.524
30
0
40
2.117
0
CIRCLE
8
INTERIOR_PROFILES
10
395.524
20
1154.524
30
0
40
2.117
0
CIRCLE
8
INTERIOR_PROFILES
10
395.524
20
1442.524
30
0
40
2.117
0
CIRCLE
8
INTERIOR_PROFILES
10
245.524
20
1154.524
30
0
40
2.117
0
CIRCLE
8
INTERIOR_PROFILES
10
295.524
20
1154.524
30
0
40
2.117
0
CIRCLE
8
INTERIOR_PROFILES
10
545.524
20
1442.524
30
0
40
2.117
0
CIRCLE
8
INTERIOR_PROFILES
10
145.524
20
1442.524
30
0
40
2.117
0
CIRCLE
8
INTERIOR_PROFILES
10
445.524
20
1154.524
30
0
40
2.117
0
CIRCLE
8
INTERIOR_PROFILES
10
345.524
20
1154.524
30
0
40
2.117
0
CIRCLE
8
INTERIOR_PROFILES
10
345.524
20
1442.524
30
0
40
2.117
0
CIRCLE
8
INTERIOR_PROFILES
10
595.524
20
1154.524
30
0
40
2.117
0
CIRCLE
8
INTERIOR_PROFILES
10
295.524
20
1442.524
30
0
40
2.117
0
CIRCLE
8
INTERIOR_PROFILES
10
195.524
20
1442.524
30
0
40
2.117
0
CIRCLE
8
INTERIOR_PROFILES
10
695.524
20
1442.524
30
0
40
2.117
0
CIRCLE
8
INTERIOR_PROFILES
10
995.524
20
1154.524
30
0
40
2.117
0
CIRCLE
8
INTERIOR_PROFILES
10
1095.524
20
1442.524
30
0
40
2.117
0
CIRCLE
8
INTERIOR_PROFILES
10
945.524
20
1154.524
30
0
40
2.117
0
CIRCLE
8
INTERIOR_PROFILES
10
895.524
20
1442.524
30
0
40
2.117
0
CIRCLE
8
INTERIOR_PROFILES
10
945.524
20
1442.524
30
0
40
2.117
0
CIRCLE
8
INTERIOR_PROFILES
10
795.524
20
1154.524
30
0
40
2.117
0
CIRCLE
8
INTERIOR_PROFILES
10
795.524
20
1442.524
30
0
40
2.117
0
CIRCLE
8
INTERIOR_PROFILES
10
995.524
20
1442.524
30
0
40
2.117
0
CIRCLE
8
INTERIOR_PROFILES
10
595.524
20
1106.262
30
0
40
1.700
0
CIRCLE
8
INTERIOR_PROFILES
10
595.524
20
1147.524
30
0
40
1.700
0
CIRCLE
8
INTERIOR_PROFILES
10
95.524
20
1147.524
30
0
40
1.700
0
CIRCLE
8
INTERIOR_PROFILES
10
30.524
20
1106.262
30
0
40
1.700
0
CIRCLE
8
INTERIOR_PROFILES
10
1160.524
20
1106.262
30
0
40
1.700
0
CIRCLE
8
INTERIOR_PROFILES
10
1114.524
20
1106.262
30
0
40
1.700
0
CIRCLE
8
INTERIOR_PROFILES
10
76.524
20
1106.262
30
0
40
1.700
0
CIRCLE
8
INTERIOR_PROFILES
10
27.524
20
1122.524
30
0
40
1.700
0
CIRCLE
8
INTERIOR_PROFILES
10
1143.524
20
1122.524
30
0
40
1.700
0
CIRCLE
8
INTERIOR_PROFILES
10
1095.524
20
1147.524
30
0
40
1.700
0
CIRCLE
8
INTERIOR_PROFILES
10
1163.524
20
1122.524
30
0
40
1.700
0
CIRCLE
8
INTERIOR_PROFILES
10
47.524
20
1122.524
30
0
40
1.700
0
CIRCLE
8
INTERIOR_PROFILES
10
1095.524
20
1154.524
30
0
40
2.117
0
CIRCLE
8
INTERIOR_PROFILES
10
95.524
20
1442.524
30
0
40
2.117
0
CIRCLE
8
INTERIOR_PROFILES
10
595.524
20
1442.524
30
0
40
2.117
0
CIRCLE
8
INTERIOR_PROFILES
10
495.524
20
1442.524
30
0
40
2.117
0
CIRCLE
8
INTERIOR_PROFILES
10
762.191
20
1455.786
30
0
40
1.700
0
CIRCLE
8
INTERIOR_PROFILES
10
14.262
20
1126.024
30
0
40
1.700
0
CIRCLE
8
INTERIOR_PROFILES
10
1176.786
20
1312.524
30
0
40
1.700
0
CIRCLE
8
INTERIOR_PROFILES
10
14.262
20
1145.524
30
0
40
1.700
0
CIRCLE
8
INTERIOR_PROFILES
10
1176.786
20
1126.024
30
0
40
1.700
0
CIRCLE
8
INTERIOR_PROFILES
10
595.524
20
1455.786
30
0
40
1.700
0
CIRCLE
8
INTERIOR_PROFILES
10
1095.524
20
1455.786
30
0
40
1.700
0
CIRCLE
8
INTERIOR_PROFILES
10
95.524
20
1455.786
30
0
40
1.700
0
CIRCLE
8
INTERIOR_PROFILES
10
14.262
20
1312.524
30
0
40
1.700
0
CIRCLE
8
INTERIOR_PROFILES
10
428.857
20
1455.786
30
0
40
1.700
0
CIRCLE
8
INTERIOR_PROFILES
10
1176.786
20
1145.524
30
0
40
1.700
0
CIRCLE
8
INTERIOR_PROFILES
10
95.524
20
1154.524
30
0
40
2.117
0
TEXT
8
PART_LABELS
10
2119.000
20
1275.000
30
0
40
50.000
1
2SHSH2-190015
72
1
73
2
11
2119.000
21
1275.000
31
0
0
LWPOLYLINE
8
OUTER_PROFILES
90
34
70
1
10
1201.262
20
1175.000
10
3036.262
20
1175.000
10
3036.262
20
1195.000
10
3036.262
20
1204.262
10
3036.262
20
1206.524
10
3044.524
20
1206.524
10
3044.524
20
1304.453
10
3038.029
20
1310.948
42
-0.414214
10
3038.029
20
1312.362
10
3044.524
20
1318.857
10
3044.524
20
1328.715
10
3038.029
20
1335.210
42
-0.414214
10
3038.029
20
1336.624
10
3044.453
20
1343.048
10
3036.262
20
1343.048
10
3036.262
20
1345.310
10
3036.262
20
1352.310
10
3036.262
20
1374.572
10
1201.262
20
1374.572
10
1201.262
20
1352.310
10
1201.262
20
1345.310
10
1201.262
20
1343.048
10
1193.071
20
1343.048
10
1199.495
20
1336.624
42
-0.414214
10
1199.495
20
1335.210
10
1193.000
20
1328.715
10
1193.000
20
1318.857
10
1199.495
20
1312.362
42
-0.414214
10
1199.495
20
1310.948
10
1193.000
20
1304.453
10
1193.000
20
1206.524
10
1201.262
20
1206.524
10
1201.262
20
1204.262
10
1201.262
20
1197.262
0
CIRCLE
8
INTERIOR_PROFILES
10
1218.762
20
1185.000
30
0
40
1.700
0
CIRCLE
8
INTERIOR_PROFILES
10
1218.762
20
1364.572
30
0
40
1.700
0
CIRCLE
8
INTERIOR_PROFILES
10
2718.762
20
1185.000
30
0
40
1.700
0
CIRCLE
8
INTERIOR_PROFILES
10
1518.762
20
1364.572
30
0
40
1.700
0
CIRCLE
8
INTERIOR_PROFILES
10
1818.762
20
1364.572
30
0
40
1.700
0
CIRCLE
8
INTERIOR_PROFILES
10
3018.762
20
1364.572
30
0
40
1.700
0
CIRCLE
8
INTERIOR_PROFILES
10
2418.762
20
1185.000
30
0
40
1.700
0
CIRCLE
8
INTERIOR_PROFILES
10
2718.762
20
1364.572
30
0
40
1.700
0
CIRCLE
8
INTERIOR_PROFILES
10
3018.762
20
1185.000
30
0
40
1.700
0
CIRCLE
8
INTERIOR_PROFILES
10
2418.762
20
1364.572
30
0
40
1.700
0
CIRCLE
8
INTERIOR_PROFILES
10
2118.762
20
1364.572
30
0
40
1.700
0
CIRCLE
8
INTERIOR_PROFILES
10
1518.762
20
1185.000
30
0
40
1.700
0
CIRCLE
8
INTERIOR_PROFILES
10
1818.762
20
1185.000
30
0
40
1.700
0
CIRCLE
8
INTERIOR_PROFILES
10
2118.762
20
1185.000
30
0
40
1.700
0
TEXT
8
PART_LABELS
10
1545.500
20
1396.000
30
0
40
15.000
1
2CFL00-070000
72
1
73
2
11
1545.500
21
1396.000
31
0
0
LWPOLYLINE
8
OUTER_PROFILES
90
18
70
1
10
1895.029
20
1412.100
10
1897.453
20
1414.524
10
1193.071
20
1414.524
10
1195.495
20
1412.100
42
-0.414214
10
1195.495
20
1410.686
10
1193.000
20
1408.191
10
1193.000
20
1390.333
10
1195.495
20
1387.838
42
-0.414214
10
1195.495
20
1386.424
10
1193.000
20
1383.929
10
1193.000
20
1377.000
10
1897.524
20
1377.000
10
1897.524
20
1383.929
10
1895.029
20
1386.424
42
-0.414214
10
1895.029
20
1387.838
10
1897.524
20
1390.333
10
1897.524
20
1408.191
10
1895.029
20
1410.686
42
-0.414214
0
CIRCLE
8
INTERIOR_PROFILES
10
1833.762
20
1397.262
30
0
40
1.700
0
CIRCLE
8
INTERIOR_PROFILES
10
1245.262
20
1380.000
30
0
40
1.700
0
CIRCLE
8
INTERIOR_PROFILES
10
1678.762
20
1397.262
30
0
40
1.700
0
CIRCLE
8
INTERIOR_PROFILES
10
1745.262
20
1380.000
30
0
40
1.700
0
CIRCLE
8
INTERIOR_PROFILES
10
1445.262
20
1380.000
30
0
40
1.700
0
CIRCLE
8
INTERIOR_PROFILES
10
1545.262
20
1380.000
30
0
40
1.700
0
CIRCLE
8
INTERIOR_PROFILES
10
1345.262
20
1380.000
30
0
40
1.700
0
CIRCLE
8
INTERIOR_PROFILES
10
1645.262
20
1380.000
30
0
40
1.700
0
CIRCLE
8
INTERIOR_PROFILES
10
1845.262
20
1380.000
30
0
40
1.700
0
TEXT
8
PART_LABELS
10
2202.500
20
1396.000
30
0
40
15.000
1
2CF000-060000
72
1
73
2
11
2202.500
21
1396.000
31
0
0
LWPOLYLINE
8
OUTER_PROFILES
90
18
70
1
10
1902.495
20
1386.424
42
0.414214
10
1902.495
20
1387.838
10
1900.000
20
1390.333
10
1900.000
20
1408.191
10
1902.495
20
1410.686
42
0.414214
10
1902.495
20
1412.100
10
1900.071
20
1414.524
10
2504.453
20
1414.524
10
2502.029
20
1412.100
42
0.414214
10
2502.029
20
1410.686
10
2504.524
20
1408.191
10
2504.524
20
1390.333
10
2502.029
20
1387.838
42
0.414214
10
2502.029
20
1386.424
10
2504.524
20
1383.929
10
2504.524
20
1377.000
10
1900.000
20
1377.000
10
1900.000
20
1383.929
0
CIRCLE
8
INTERIOR_PROFILES
10
2302.262
20
1380.000
30
0
40
1.700
0
CIRCLE
8
INTERIOR_PROFILES
10
2202.262
20
1380.000
30
0
40
1.700
0
CIRCLE
8
INTERIOR_PROFILES
10
2102.262
20
1380.000
30
0
40
1.700
0
CIRCLE
8
INTERIOR_PROFILES
10
2402.262
20
1380.000
30
0
40
1.700
0
CIRCLE
8
INTERIOR_PROFILES
10
2002.262
20
1380.000
30
0
40
1.700
0
TEXT
8
PART_LABELS
10
1495.500
20
1436.000
30
0
40
15.000
1
2CF000-060000
72
1
73
2
11
1495.500
21
1436.000
31
0
0
LWPOLYLINE
8
OUTER_PROFILES
90
18
70
1
10
1195.495
20
1426.424
42
0.414214
10
1195.495
20
1427.838
10
1193.000
20
1430.333
10
1193.000
20
1448.191
10
1195.495
20
1450.686
42
0.414214
10
1195.495
20
1452.100
10
1193.071
20
1454.524
10
1797.453
20
1454.524
10
1795.029
20
1452.100
42
0.414214
10
1795.029
20
1450.686
10
1797.524
20
1448.191
10
1797.524
20
1430.333
10
1795.029
20
1427.838
42
0.414214
10
1795.029
20
1426.424
10
1797.524
20
1423.929
10
1797.524
20
1417.000
10
1193.000
20
1417.000
10
1193.000
20
1423.929
0
CIRCLE
8
INTERIOR_PROFILES
10
1595.262
20
1420.000
30
0
40
1.700
0
CIRCLE
8
INTERIOR_PROFILES
10
1495.262
20
1420.000
30
0
40
1.700
0
CIRCLE
8
INTERIOR_PROFILES
10
1395.262
20
1420.000
30
0
40
1.700
0
CIRCLE
8
INTERIOR_PROFILES
10
1695.262
20
1420.000
30
0
40
1.700
0
CIRCLE
8
INTERIOR_PROFILES
10
1295.262
20
1420.000
30
0
40
1.700
0
TEXT
8
PART_LABELS
10
2102.500
20
1436.000
30
0
40
15.000
1
2CF000-060000
72
1
73
2
11
2102.500
21
1436.000
31
0
0
LWPOLYLINE
8
OUTER_PROFILES
90
18
70
1
10
1802.495
20
1426.424
42
0.414214
10
1802.495
20
1427.838
10
1800.000
20
1430.333
10
1800.000
20
1448.191
10
1802.495
20
1450.686
42
0.414214
10
1802.495
20
1452.100
10
1800.071
20
1454.524
10
2404.453
20
1454.524
10
2402.029
20
1452.100
42
0.414214
10
2402.029
20
1450.686
10
2404.524
20
1448.191
10
2404.524
20
1430.333
10
2402.029
20
1427.838
42
0.414214
10
2402.029
20
1426.424
10
2404.524
20
1423.929
10
2404.524
20
1417.000
10
1800.000
20
1417.000
10
1800.000
20
1423.929
0
CIRCLE
8
INTERIOR_PROFILES
10
2202.262
20
1420.000
30
0
40
1.700
0
CIRCLE
8
INTERIOR_PROFILES
10
2102.262
20
1420.000
30
0
40
1.700
0
CIRCLE
8
INTERIOR_PROFILES
10
2002.262
20
1420.000
30
0
40
1.700
0
CIRCLE
8
INTERIOR_PROFILES
10
2302.262
20
1420.000
30
0
40
1.700
0
CIRCLE
8
INTERIOR_PROFILES
10
1902.262
20
1420.000
30
0
40
1.700
0
TEXT
8
PART_LABELS
10
2709.500
20
1436.000
30
0
40
15.000
1
2CF000-060000
72
1
73
2
11
2709.500
21
1436.000
31
0
0
LWPOLYLINE
8
OUTER_PROFILES
90
18
70
1
10
2409.495
20
1426.424
42
0.414214
10
2409.495
20
1427.838
10
2407.000
20
1430.333
10
2407.000
20
1448.191
10
2409.495
20
1450.686
42
0.414214
10
2409.495
20
1452.100
10
2407.071
20
1454.524
10
3011.453
20
1454.524
10
3009.029
20
1452.100
42
0.414214
10
3009.029
20
1450.686
10
3011.524
20
1448.191
10
3011.524
20
1430.333
10
3009.029
20
1427.838
42
0.414214
10
3009.029
20
1426.424
10
3011.524
20
1423.929
10
3011.524
20
1417.000
10
2407.000
20
1417.000
10
2407.000
20
1423.929
0
CIRCLE
8
INTERIOR_PROFILES
10
2809.262
20
1420.000
30
0
40
1.700
0
CIRCLE
8
INTERIOR_PROFILES
10
2709.262
20
1420.000
30
0
40
1.700
0
CIRCLE
8
INTERIOR_PROFILES
10
2609.262
20
1420.000
30
0
40
1.700
0
CIRCLE
8
INTERIOR_PROFILES
10
2909.262
20
1420.000
30
0
40
1.700
0
CIRCLE
8
INTERIOR_PROFILES
10
2509.262
20
1420.000
30
0
40
1.700
0
ENDSEC
0
EOF