0
SECTION
2
HEADER
9
$ACADVER
1
AC1015
9
$INSUNITS
70
4
9
$HANDSEED
5
FFFF
0
ENDSEC
0
SECTION
2
TABLES
0
TABLE
2
LTYPE
5
100
100
AcDbSymbolTable
70
1
0
LTYPE
5
101
100
AcDbSymbolTableRecord
100
AcDbLinetypeTableRecord
2
Continuous
70
0
3
Solid line
72
65
73
0
40
0.0
0
ENDTAB
0
TABLE
2
LAYER
5
102
100
AcDbSymbolTable
70
5
0
LAYER
5
103
100
AcDbSymbolTableRecord
100
AcDbLayerDefinition
2
0
70
0
62
7
6
Continuous
0
LAYER
5
104
100
AcDbSymbolTableRecord
100
AcDbLayerDefinition
2
SHEET_BORDER
70
0
62
7
6
Continuous
0
LAYER
5
105
100
AcDbSymbolTableRecord
100
AcDbLayerDefinition
2
PART_LABELS
70
0
62
7
6
Continuous
0
LAYER
5
106
100
AcDbSymbolTableRecord
100
AcDbLayerDefinition
2
OUTER_PROFILES
70
0
62
7
6
Continuous
0
LAYER
5
107
100
AcDbSymbolTableRecord
100
AcDbLayerDefinition
2
INTERIOR_PROFILES
70
0
62
7
6
Continuous
0
ENDTAB
0
TABLE
2
STYLE
5
108
100
AcDbSymbolTable
70
1
0
STYLE
5
109
100
AcDbSymbolTableRecord
100
AcDbTextStyleTableRecord
2
Standard
70
0
40
0
41
1
3
txt
0
ENDTAB
0
ENDSEC
0
SECTION
2
BLOCKS
0
BLOCK
5
10A
100
AcDbEntity
8
0
100
AcDbBlockBegin
2
*Model_Space
70
0
10
0
20
0
30
0
3
*Model_Space
1

0
ENDBLK
5
10B
100
AcDbEntity
8
0
100
AcDbBlockEnd
0
BLOCK
5
10C
100
AcDbEntity
8
0
100
AcDbBlockBegin
2
*Paper_Space
70
0
10
0
20
0
30
0
3
*Paper_Space
1

0
ENDBLK
5
10D
100
AcDbEntity
8
0
100
AcDbBlockEnd
0
ENDSEC
0
SECTION
2
ENTITIES
0
LWPOLYLINE
5
10E
100
AcDbEntity
8
SHEET_BORDER
100
AcDbPolyline
90
5
70
1
10
0.000
20
0.000
10
3050.000
20
0.000
10
3050.000
20
1525.000
10
0.000
20
1525.000
10
0.000
20
0.000
0
TEXT
5
10F
100
AcDbEntity
8
PART_LABELS
100
AcDbText
10
344.500
20
586.500
30
0
40
50.000
1
2BK001-070120
72
1
11
344.500
21
586.500
31
0
100
AcDbText
73
2
0
SPLINE
5
110
100
AcDbEntity
8
OUTER_PROFILES
100
AcDbSpline
70
8
71
3
72
11
73
7
74
0
40
1.570796
40
1.570796
40
1.570796
40
1.570796
40
3.043762
40
3.043762
40
3.043762
40
3.141593
40
3.141593
40
3.141593
40
3.141593
10
15.547
20
1168.048
30
0
10
15.056
20
1167.341
30
0
10
14.600
20
1166.634
30
0
10
14.552
20
1165.927
30
0
10
14.548
20
1165.880
30
0
10
14.547
20
1165.833
30
0
10
14.547
20
1165.786
30
0
0
LINE
5
111
100
AcDbEntity
8
OUTER_PROFILES
100
AcDbLine
10
14.547
20
1165.786
30
0
11
14.547
21
1159.786
31
0
0
SPLINE
5
112
100
AcDbEntity
8
OUTER_PROFILES
100
AcDbSpline
70
8
71
3
72
11
73
7
74
0
40
-3.141593
40
-3.141593
40
-3.141593
40
-3.141593
40
-1.668627
40
-1.668627
40
-1.668627
40
-1.570796
40
-1.570796
40
-1.570796
40
-1.570796
10
14.547
20
1159.786
30
0
10
14.547
20
1159.079
30
0
10
14.961
20
1158.372
30
0
10
15.449
20
1157.665
30
0
10
15.482
20
1157.618
30
0
10
15.514
20
1157.571
30
0
10
15.547
20
1157.524
30
0
0
LINE
5
113
100
AcDbEntity
8
OUTER_PROFILES
100
AcDbLine
10
15.547
20
1157.524
30
0
11
15.476
21
1157.453
31
0
0
SPLINE
5
114
100
AcDbEntity
8
OUTER_PROFILES
100
AcDbSpline
70
8
71
3
72
11
73
7
74
0
40
1.570796
40
1.570796
40
1.570796
40
1.570796
40
1.668627
40
1.668627
40
1.668627
40
3.141593
40
3.141593
40
3.141593
40
3.141593
10
15.476
20
1157.453
30
0
10
15.429
20
1157.486
30
0
10
15.382
20
1157.518
30
0
10
15.335
20
1157.551
30
0
10
14.628
20
1158.039
30
0
10
13.921
20
1158.453
30
0
10
13.214
20
1158.453
30
0
0
LINE
5
115
100
AcDbEntity
8
OUTER_PROFILES
100
AcDbLine
10
13.214
20
1158.453
30
0
11
7.214
21
1158.453
31
0
0
SPLINE
5
116
100
AcDbEntity
8
OUTER_PROFILES
100
AcDbSpline
70
8
71
3
72
11
73
7
74
0
40
-3.141593
40
-3.141593
40
-3.141593
40
-3.141593
40
-3.043762
40
-3.043762
40
-3.043762
40
-1.570796
40
-1.570796
40
-1.570796
40
-1.570796
10
7.214
20
1158.453
30
0
10
7.167
20
1158.453
30
0
10
7.120
20
1158.452
30
0
10
7.073
20
1158.448
30
0
10
6.366
20
1158.400
30
0
10
5.659
20
1157.944
30
0
10
4.952
20
1157.453
30
0
0
LINE
5
117
100
AcDbEntity
8
OUTER_PROFILES
100
AcDbLine
10
4.952
20
1157.453
30
0
11
-0.048
21
1152.453
31
0
0
LINE
5
118
100
AcDbEntity
8
OUTER_PROFILES
100
AcDbLine
10
-0.048
20
1152.453
30
0
11
-0.048
21
20.595
31
0
0
LINE
5
119
100
AcDbEntity
8
OUTER_PROFILES
100
AcDbLine
10
-0.048
20
20.595
30
0
11
4.952
21
15.595
31
0
0
SPLINE
5
11A
100
AcDbEntity
8
OUTER_PROFILES
100
AcDbSpline
70
8
71
3
72
11
73
7
74
0
40
1.570796
40
1.570796
40
1.570796
40
1.570796
40
3.043762
40
3.043762
40
3.043762
40
3.141593
40
3.141593
40
3.141593
40
3.141593
10
4.952
20
15.595
30
0
10
5.659
20
15.104
30
0
10
6.366
20
14.647
30
0
10
7.073
20
14.599
30
0
10
7.120
20
14.596
30
0
10
7.167
20
14.595
30
0
10
7.214
20
14.595
30
0
0
LINE
5
11B
100
AcDbEntity
8
OUTER_PROFILES
100
AcDbLine
10
7.214
20
14.595
30
0
11
13.214
21
14.595
31
0
0
SPLINE
5
11C
100
AcDbEntity
8
OUTER_PROFILES
100
AcDbSpline
70
8
71
3
72
11
73
7
74
0
40
-3.141593
40
-3.141593
40
-3.141593
40
-3.141593
40
-1.668627
40
-1.668627
40
-1.668627
40
-1.570796
40
-1.570796
40
-1.570796
40
-1.570796
10
13.214
20
14.595
30
0
10
13.921
20
14.595
30
0
10
14.628
20
15.008
30
0
10
15.335
20
15.497
30
0
10
15.382
20
15.529
30
0
10
15.429
20
15.562
30
0
10
15.476
20
15.595
30
0
0
LINE
5
11D
100
AcDbEntity
8
OUTER_PROFILES
100
AcDbLine
10
15.476
20
15.595
30
0
11
15.547
21
15.524
31
0
0
SPLINE
5
11E
100
AcDbEntity
8
OUTER_PROFILES
100
AcDbSpline
70
8
71
3
72
11
73
7
74
0
40
1.570796
40
1.570796
40
1.570796
40
1.570796
40
1.668627
40
1.668627
40
1.668627
40
3.141593
40
3.141593
40
3.141593
40
3.141593
10
15.547
20
15.524
30
0
10
15.514
20
15.477
30
0
10
15.482
20
15.430
30
0
10
15.449
20
15.383
30
0
10
14.961
20
14.676
30
0
10
14.547
20
13.969
30
0
10
14.547
20
13.262
30
0
0
LINE
5
11F
100
AcDbEntity
8
OUTER_PROFILES
100
AcDbLine
10
14.547
20
13.262
30
0
11
14.547
21
7.262
31
0
0
SPLINE
5
120
100
AcDbEntity
8
OUTER_PROFILES
100
AcDbSpline
70
8
71
3
72
11
73
7
74
0
40
-3.141593
40
-3.141593
40
-3.141593
40
-3.141593
40
-3.043762
40
-3.043762
40
-3.043762
40
-1.570796
40
-1.570796
40
-1.570796
40
-1.570796
10
14.547
20
7.262
30
0
10
14.547
20
7.215
30
0
10
14.548
20
7.168
30
0
10
14.552
20
7.121
30
0
10
14.600
20
6.414
30
0
10
15.056
20
5.707
30
0
10
15.547
20
5.000
30
0
0
LINE
5
121
100
AcDbEntity
8
OUTER_PROFILES
100
AcDbLine
10
15.547
20
5.000
30
0
11
20.547
21
0.000
31
0
0
LINE
5
122
100
AcDbEntity
8
OUTER_PROFILES
100
AcDbLine
10
20.547
20
0.000
30
0
11
668.405
21
0.000
31
0
0
LINE
5
123
100
AcDbEntity
8
OUTER_PROFILES
100
AcDbLine
10
668.405
20
0.000
30
0
11
673.405
21
5.000
31
0
0
SPLINE
5
124
100
AcDbEntity
8
OUTER_PROFILES
100
AcDbSpline
70
8
71
3
72
11
73
7
74
0
40
1.570796
40
1.570796
40
1.570796
40
1.570796
40
3.043762
40
3.043762
40
3.043762
40
3.141593
40
3.141593
40
3.141593
40
3.141593
10
673.405
20
5.000
30
0
10
673.896
20
5.707
30
0
10
674.353
20
6.414
30
0
10
674.401
20
7.121
30
0
10
674.404
20
7.168
30
0
10
674.405
20
7.215
30
0
10
674.405
20
7.262
30
0
0
LINE
5
125
100
AcDbEntity
8
OUTER_PROFILES
100
AcDbLine
10
674.405
20
7.262
30
0
11
674.405
21
13.262
31
0
0
SPLINE
5
126
100
AcDbEntity
8
OUTER_PROFILES
100
AcDbSpline
70
8
71
3
72
11
73
7
74
0
40
-3.141593
40
-3.141593
40
-3.141593
40
-3.141593
40
-1.668627
40
-1.668627
40
-1.668627
40
-1.570796
40
-1.570796
40
-1.570796
40
-1.570796
10
674.405
20
13.262
30
0
10
674.405
20
13.969
30
0
10
673.992
20
14.676
30
0
10
673.503
20
15.383
30
0
10
673.471
20
15.430
30
0
10
673.438
20
15.477
30
0
10
673.405
20
15.524
30
0
0
LINE
5
127
100
AcDbEntity
8
OUTER_PROFILES
100
AcDbLine
10
673.405
20
15.524
30
0
11
673.476
21
15.595
31
0
0
SPLINE
5
128
100
AcDbEntity
8
OUTER_PROFILES
100
AcDbSpline
70
8
71
3
72
11
73
7
74
0
40
1.570796
40
1.570796
40
1.570796
40
1.570796
40
1.668627
40
1.668627
40
1.668627
40
3.141593
40
3.141593
40
3.141593
40
3.141593
10
673.476
20
15.595
30
0
10
673.523
20
15.562
30
0
10
673.570
20
15.529
30
0
10
673.617
20
15.497
30
0
10
674.324
20
15.008
30
0
10
675.031
20
14.595
30
0
10
675.738
20
14.595
30
0
0
LINE
5
129
100
AcDbEntity
8
OUTER_PROFILES
100
AcDbLine
10
675.738
20
14.595
30
0
11
681.738
21
14.595
31
0
0
SPLINE
5
12A
100
AcDbEntity
8
OUTER_PROFILES
100
AcDbSpline
70
8
71
3
72
11
73
7
74
0
40
-3.141593
40
-3.141593
40
-3.141593
40
-3.141593
40
-3.043762
40
-3.043762
40
-3.043762
40
-1.570796
40
-1.570796
40
-1.570796
40
-1.570796
10
681.738
20
14.595
30
0
10
681.785
20
14.595
30
0
10
681.832
20
14.596
30
0
10
681.879
20
14.599
30
0
10
682.586
20
14.647
30
0
10
683.293
20
15.104
30
0
10
684.000
20
15.595
30
0
0
LINE
5
12B
100
AcDbEntity
8
OUTER_PROFILES
100
AcDbLine
10
684.000
20
15.595
30
0
11
689.000
21
20.595
31
0
0
LINE
5
12C
100
AcDbEntity
8
OUTER_PROFILES
100
AcDbLine
10
689.000
20
20.595
30
0
11
689.000
21
1152.453
31
0
0
LINE
5
12D
100
AcDbEntity
8
OUTER_PROFILES
100
AcDbLine
10
689.000
20
1152.453
30
0
11
684.000
21
1157.453
31
0
0
SPLINE
5
12E
100
AcDbEntity
8
OUTER_PROFILES
100
AcDbSpline
70
8
71
3
72
11
73
7
74
0
40
1.570796
40
1.570796
40
1.570796
40
1.570796
40
3.043762
40
3.043762
40
3.043762
40
3.141593
40
3.141593
40
3.141593
40
3.141593
10
684.000
20
1157.453
30
0
10
683.293
20
1157.944
30
0
10
682.586
20
1158.400
30
0
10
681.879
20
1158.448
30
0
10
681.832
20
1158.452
30
0
10
681.785
20
1158.453
30
0
10
681.738
20
1158.453
30
0
0
LINE
5
12F
100
AcDbEntity
8
OUTER_PROFILES
100
AcDbLine
10
681.738
20
1158.453
30
0
11
675.738
21
1158.453
31
0
0
SPLINE
5
130
100
AcDbEntity
8
OUTER_PROFILES
100
AcDbSpline
70
8
71
3
72
11
73
7
74
0
40
-3.141593
40
-3.141593
40
-3.141593
40
-3.141593
40
-1.668627
40
-1.668627
40
-1.668627
40
-1.570796
40
-1.570796
40
-1.570796
40
-1.570796
10
675.738
20
1158.453
30
0
10
675.031
20
1158.453
30
0
10
674.324
20
1158.039
30
0
10
673.617
20
1157.551
30
0
10
673.570
20
1157.518
30
0
10
673.523
20
1157.486
30
0
10
673.476
20
1157.453
30
0
0
LINE
5
131
100
AcDbEntity
8
OUTER_PROFILES
100
AcDbLine
10
673.476
20
1157.453
30
0
11
673.405
21
1157.524
31
0
0
SPLINE
5
132
100
AcDbEntity
8
OUTER_PROFILES
100
AcDbSpline
70
8
71
3
72
11
73
7
74
0
40
1.570796
40
1.570796
40
1.570796
40
1.570796
40
1.668627
40
1.668627
40
1.668627
40
3.141593
40
3.141593
40
3.141593
40
3.141593
10
673.405
20
1157.524
30
0
10
673.438
20
1157.571
30
0
10
673.471
20
1157.618
30
0
10
673.503
20
1157.665
30
0
10
673.992
20
1158.372
30
0
10
674.405
20
1159.079
30
0
10
674.405
20
1159.786
30
0
0
LINE
5
133
100
AcDbEntity
8
OUTER_PROFILES
100
AcDbLine
10
674.405
20
1159.786
30
0
11
674.405
21
1165.786
31
0
0
SPLINE
5
134
100
AcDbEntity
8
OUTER_PROFILES
100
AcDbSpline
70
8
71
3
72
11
73
7
74
0
40
-3.141593
40
-3.141593
40
-3.141593
40
-3.141593
40
-3.043762
40
-3.043762
40
-3.043762
40
-1.570796
40
-1.570796
40
-1.570796
40
-1.570796
10
674.405
20
1165.786
30
0
10
674.405
20
1165.833
30
0
10
674.404
20
1165.880
30
0
10
674.401
20
1165.927
30
0
10
674.353
20
1166.634
30
0
10
673.896
20
1167.341
30
0
10
673.405
20
1168.048
30
0
0
LINE
5
135
100
AcDbEntity
8
OUTER_PROFILES
100
AcDbLine
10
673.405
20
1168.048
30
0
11
668.405
21
1173.048
31
0
0
LINE
5
136
100
AcDbEntity
8
OUTER_PROFILES
100
AcDbLine
10
668.405
20
1173.048
30
0
11
20.547
21
1173.048
31
0
0
LINE
5
137
100
AcDbEntity
8
OUTER_PROFILES
100
AcDbLine
10
20.547
20
1173.048
30
0
11
15.547
21
1168.048
31
0
0
TEXT
5
138
100
AcDbEntity
8
PART_LABELS
100
AcDbText
10
1035.500
20
586.500
30
0
40
50.000
1
2BK001-070120
72
1
11
1035.500
21
586.500
31
0
100
AcDbText
73
2
0
SPLINE
5
139
100
AcDbEntity
8
OUTER_PROFILES
100
AcDbSpline
70
8
71
3
72
11
73
7
74
0
40
1.570796
40
1.570796
40
1.570796
40
1.570796
40
3.043762
40
3.043762
40
3.043762
40
3.141593
40
3.141593
40
3.141593
40
3.141593
10
706.547
20
1168.048
30
0
10
706.056
20
1167.341
30
0
10
705.600
20
1166.634
30
0
10
705.552
20
1165.927
30
0
10
705.548
20
1165.880
30
0
10
705.547
20
1165.833
30
0
10
705.547
20
1165.786
30
0
0
LINE
5
13A
100
AcDbEntity
8
OUTER_PROFILES
100
AcDbLine
10
705.547
20
1165.786
30
0
11
705.547
21
1159.786
31
0
0
SPLINE
5
13B
100
AcDbEntity
8
OUTER_PROFILES
100
AcDbSpline
70
8
71
3
72
11
73
7
74
0
40
-3.141593
40
-3.141593
40
-3.141593
40
-3.141593
40
-1.668627
40
-1.668627
40
-1.668627
40
-1.570796
40
-1.570796
40
-1.570796
40
-1.570796
10
705.547
20
1159.786
30
0
10
705.547
20
1159.079
30
0
10
705.961
20
1158.372
30
0
10
706.449
20
1157.665
30
0
10
706.482
20
1157.618
30
0
10
706.514
20
1157.571
30
0
10
706.547
20
1157.524
30
0
0
LINE
5
13C
100
AcDbEntity
8
OUTER_PROFILES
100
AcDbLine
10
706.547
20
1157.524
30
0
11
706.476
21
1157.453
31
0
0
SPLINE
5
13D
100
AcDbEntity
8
OUTER_PROFILES
100
AcDbSpline
70
8
71
3
72
11
73
7
74
0
40
1.570796
40
1.570796
40
1.570796
40
1.570796
40
1.668627
40
1.668627
40
1.668627
40
3.141593
40
3.141593
40
3.141593
40
3.141593
10
706.476
20
1157.453
30
0
10
706.429
20
1157.486
30
0
10
706.382
20
1157.518
30
0
10
706.335
20
1157.551
30
0
10
705.628
20
1158.039
30
0
10
704.921
20
1158.453
30
0
10
704.214
20
1158.453
30
0
0
LINE
5
13E
100
AcDbEntity
8
OUTER_PROFILES
100
AcDbLine
10
704.214
20
1158.453
30
0
11
698.214
21
1158.453
31
0
0
SPLINE
5
13F
100
AcDbEntity
8
OUTER_PROFILES
100
AcDbSpline
70
8
71
3
72
11
73
7
74
0
40
-3.141593
40
-3.141593
40
-3.141593
40
-3.141593
40
-3.043762
40
-3.043762
40
-3.043762
40
-1.570796
40
-1.570796
40
-1.570796
40
-1.570796
10
698.214
20
1158.453
30
0
10
698.167
20
1158.453
30
0
10
698.120
20
1158.452
30
0
10
698.073
20
1158.448
30
0
10
697.366
20
1158.400
30
0
10
696.659
20
1157.944
30
0
10
695.952
20
1157.453
30
0
0
LINE
5
140
100
AcDbEntity
8
OUTER_PROFILES
100
AcDbLine
10
695.952
20
1157.453
30
0
11
690.952
21
1152.453
31
0
0
LINE
5
141
100
AcDbEntity
8
OUTER_PROFILES
100
AcDbLine
10
690.952
20
1152.453
30
0
11
690.952
21
20.595
31
0
0
LINE
5
142
100
AcDbEntity
8
OUTER_PROFILES
100
AcDbLine
10
690.952
20
20.595
30
0
11
695.952
21
15.595
31
0
0
SPLINE
5
143
100
AcDbEntity
8
OUTER_PROFILES
100
AcDbSpline
70
8
71
3
72
11
73
7
74
0
40
1.570796
40
1.570796
40
1.570796
40
1.570796
40
3.043762
40
3.043762
40
3.043762
40
3.141593
40
3.141593
40
3.141593
40
3.141593
10
695.952
20
15.595
30
0
10
696.659
20
15.104
30
0
10
697.366
20
14.647
30
0
10
698.073
20
14.599
30
0
10
698.120
20
14.596
30
0
10
698.167
20
14.595
30
0
10
698.214
20
14.595
30
0
0
LINE
5
144
100
AcDbEntity
8
OUTER_PROFILES
100
AcDbLine
10
698.214
20
14.595
30
0
11
704.214
21
14.595
31
0
0
SPLINE
5
145
100
AcDbEntity
8
OUTER_PROFILES
100
AcDbSpline
70
8
71
3
72
11
73
7
74
0
40
-3.141593
40
-3.141593
40
-3.141593
40
-3.141593
40
-1.668627
40
-1.668627
40
-1.668627
40
-1.570796
40
-1.570796
40
-1.570796
40
-1.570796
10
704.214
20
14.595
30
0
10
704.921
20
14.595
30
0
10
705.628
20
15.008
30
0
10
706.335
20
15.497
30
0
10
706.382
20
15.529
30
0
10
706.429
20
15.562
30
0
10
706.476
20
15.595
30
0
0
LINE
5
146
100
AcDbEntity
8
OUTER_PROFILES
100
AcDbLine
10
706.476
20
15.595
30
0
11
706.547
21
15.524
31
0
0
SPLINE
5
147
100
AcDbEntity
8
OUTER_PROFILES
100
AcDbSpline
70
8
71
3
72
11
73
7
74
0
40
1.570796
40
1.570796
40
1.570796
40
1.570796
40
1.668627
40
1.668627
40
1.668627
40
3.141593
40
3.141593
40
3.141593
40
3.141593
10
706.547
20
15.524
30
0
10
706.514
20
15.477
30
0
10
706.482
20
15.430
30
0
10
706.449
20
15.383
30
0
10
705.961
20
14.676
30
0
10
705.547
20
13.969
30
0
10
705.547
20
13.262
30
0
0
LINE
5
148
100
AcDbEntity
8
OUTER_PROFILES
100
AcDbLine
10
705.547
20
13.262
30
0
11
705.547
21
7.262
31
0
0
SPLINE
5
149
100
AcDbEntity
8
OUTER_PROFILES
100
AcDbSpline
70
8
71
3
72
11
73
7
74
0
40
-3.141593
40
-3.141593
40
-3.141593
40
-3.141593
40
-3.043762
40
-3.043762
40
-3.043762
40
-1.570796
40
-1.570796
40
-1.570796
40
-1.570796
10
705.547
20
7.262
30
0
10
705.547
20
7.215
30
0
10
705.548
20
7.168
30
0
10
705.552
20
7.121
30
0
10
705.600
20
6.414
30
0
10
706.056
20
5.707
30
0
10
706.547
20
5.000
30
0
0
LINE
5
14A
100
AcDbEntity
8
OUTER_PROFILES
100
AcDbLine
10
706.547
20
5.000
30
0
11
711.547
21
0.000
31
0
0
LINE
5
14B
100
AcDbEntity
8
OUTER_PROFILES
100
AcDbLine
10
711.547
20
0.000
30
0
11
1359.405
21
0.000
31
0
0
LINE
5
14C
100
AcDbEntity
8
OUTER_PROFILES
100
AcDbLine
10
1359.405
20
0.000
30
0
11
1364.405
21
5.000
31
0
0
SPLINE
5
14D
100
AcDbEntity
8
OUTER_PROFILES
100
AcDbSpline
70
8
71
3
72
11
73
7
74
0
40
1.570796
40
1.570796
40
1.570796
40
1.570796
40
3.043762
40
3.043762
40
3.043762
40
3.141593
40
3.141593
40
3.141593
40
3.141593
10
1364.405
20
5.000
30
0
10
1364.896
20
5.707
30
0
10
1365.353
20
6.414
30
0
10
1365.401
20
7.121
30
0
10
1365.404
20
7.168
30
0
10
1365.405
20
7.215
30
0
10
1365.405
20
7.262
30
0
0
LINE
5
14E
100
AcDbEntity
8
OUTER_PROFILES
100
AcDbLine
10
1365.405
20
7.262
30
0
11
1365.405
21
13.262
31
0
0
SPLINE
5
14F
100
AcDbEntity
8
OUTER_PROFILES
100
AcDbSpline
70
8
71
3
72
11
73
7
74
0
40
-3.141593
40
-3.141593
40
-3.141593
40
-3.141593
40
-1.668627
40
-1.668627
40
-1.668627
40
-1.570796
40
-1.570796
40
-1.570796
40
-1.570796
10
1365.405
20
13.262
30
0
10
1365.405
20
13.969
30
0
10
1364.992
20
14.676
30
0
10
1364.503
20
15.383
30
0
10
1364.471
20
15.430
30
0
10
1364.438
20
15.477
30
0
10
1364.405
20
15.524
30
0
0
LINE
5
150
100
AcDbEntity
8
OUTER_PROFILES
100
AcDbLine
10
1364.405
20
15.524
30
0
11
1364.476
21
15.595
31
0
0
SPLINE
5
151
100
AcDbEntity
8
OUTER_PROFILES
100
AcDbSpline
70
8
71
3
72
11
73
7
74
0
40
1.570796
40
1.570796
40
1.570796
40
1.570796
40
1.668627
40
1.668627
40
1.668627
40
3.141593
40
3.141593
40
3.141593
40
3.141593
10
1364.476
20
15.595
30
0
10
1364.523
20
15.562
30
0
10
1364.570
20
15.529
30
0
10
1364.617
20
15.497
30
0
10
1365.324
20
15.008
30
0
10
1366.031
20
14.595
30
0
10
1366.738
20
14.595
30
0
0
LINE
5
152
100
AcDbEntity
8
OUTER_PROFILES
100
AcDbLine
10
1366.738
20
14.595
30
0
11
1372.738
21
14.595
31
0
0
SPLINE
5
153
100
AcDbEntity
8
OUTER_PROFILES
100
AcDbSpline
70
8
71
3
72
11
73
7
74
0
40
-3.141593
40
-3.141593
40
-3.141593
40
-3.141593
40
-3.043762
40
-3.043762
40
-3.043762
40
-1.570796
40
-1.570796
40
-1.570796
40
-1.570796
10
1372.738
20
14.595
30
0
10
1372.785
20
14.595
30
0
10
1372.832
20
14.596
30
0
10
1372.879
20
14.599
30
0
10
1373.586
20
14.647
30
0
10
1374.293
20
15.104
30
0
10
1375.000
20
15.595
30
0
0
LINE
5
154
100
AcDbEntity
8
OUTER_PROFILES
100
AcDbLine
10
1375.000
20
15.595
30
0
11
1380.000
21
20.595
31
0
0
LINE
5
155
100
AcDbEntity
8
OUTER_PROFILES
100
AcDbLine
10
1380.000
20
20.595
30
0
11
1380.000
21
1152.453
31
0
0
LINE
5
156
100
AcDbEntity
8
OUTER_PROFILES
100
AcDbLine
10
1380.000
20
1152.453
30
0
11
1375.000
21
1157.453
31
0
0
SPLINE
5
157
100
AcDbEntity
8
OUTER_PROFILES
100
AcDbSpline
70
8
71
3
72
11
73
7
74
0
40
1.570796
40
1.570796
40
1.570796
40
1.570796
40
3.043762
40
3.043762
40
3.043762
40
3.141593
40
3.141593
40
3.141593
40
3.141593
10
1375.000
20
1157.453
30
0
10
1374.293
20
1157.944
30
0
10
1373.586
20
1158.400
30
0
10
1372.879
20
1158.448
30
0
10
1372.832
20
1158.452
30
0
10
1372.785
20
1158.453
30
0
10
1372.738
20
1158.453
30
0
0
LINE
5
158
100
AcDbEntity
8
OUTER_PROFILES
100
AcDbLine
10
1372.738
20
1158.453
30
0
11
1366.738
21
1158.453
31
0
0
SPLINE
5
159
100
AcDbEntity
8
OUTER_PROFILES
100
AcDbSpline
70
8
71
3
72
11
73
7
74
0
40
-3.141593
40
-3.141593
40
-3.141593
40
-3.141593
40
-1.668627
40
-1.668627
40
-1.668627
40
-1.570796
40
-1.570796
40
-1.570796
40
-1.570796
10
1366.738
20
1158.453
30
0
10
1366.031
20
1158.453
30
0
10
1365.324
20
1158.039
30
0
10
1364.617
20
1157.551
30
0
10
1364.570
20
1157.518
30
0
10
1364.523
20
1157.486
30
0
10
1364.476
20
1157.453
30
0
0
LINE
5
15A
100
AcDbEntity
8
OUTER_PROFILES
100
AcDbLine
10
1364.476
20
1157.453
30
0
11
1364.405
21
1157.524
31
0
0
SPLINE
5
15B
100
AcDbEntity
8
OUTER_PROFILES
100
AcDbSpline
70
8
71
3
72
11
73
7
74
0
40
1.570796
40
1.570796
40
1.570796
40
1.570796
40
1.668627
40
1.668627
40
1.668627
40
3.141593
40
3.141593
40
3.141593
40
3.141593
10
1364.405
20
1157.524
30
0
10
1364.438
20
1157.571
30
0
10
1364.471
20
1157.618
30
0
10
1364.503
20
1157.665
30
0
10
1364.992
20
1158.372
30
0
10
1365.405
20
1159.079
30
0
10
1365.405
20
1159.786
30
0
0
LINE
5
15C
100
AcDbEntity
8
OUTER_PROFILES
100
AcDbLine
10
1365.405
20
1159.786
30
0
11
1365.405
21
1165.786
31
0
0
SPLINE
5
15D
100
AcDbEntity
8
OUTER_PROFILES
100
AcDbSpline
70
8
71
3
72
11
73
7
74
0
40
-3.141593
40
-3.141593
40
-3.141593
40
-3.141593
40
-3.043762
40
-3.043762
40
-3.043762
40
-1.570796
40
-1.570796
40
-1.570796
40
-1.570796
10
1365.405
20
1165.786
30
0
10
1365.405
20
1165.833
30
0
10
1365.404
20
1165.880
30
0
10
1365.401
20
1165.927
30
0
10
1365.353
20
1166.634
30
0
10
1364.896
20
1167.341
30
0
10
1364.405
20
1168.048
30
0
0
LINE
5
15E
100
AcDbEntity
8
OUTER_PROFILES
100
AcDbLine
10
1364.405
20
1168.048
30
0
11
1359.405
21
1173.048
31
0
0
LINE
5
15F
100
AcDbEntity
8
OUTER_PROFILES
100
AcDbLine
10
1359.405
20
1173.048
30
0
11
711.547
21
1173.048
31
0
0
LINE
5
160
100
AcDbEntity
8
OUTER_PROFILES
100
AcDbLine
10
711.547
20
1173.048
30
0
11
706.547
21
1168.048
31
0
0
TEXT
5
161
100
AcDbEntity
8
PART_LABELS
100
AcDbText
10
1726.500
20
586.500
30
0
40
50.000
1
2BK001-070120
72
1
11
1726.500
21
586.500
31
0
100
AcDbText
73
2
0
SPLINE
5
162
100
AcDbEntity
8
OUTER_PROFILES
100
AcDbSpline
70
8
71
3
72
11
73
7
74
0
40
1.570796
40
1.570796
40
1.570796
40
1.570796
40
3.043762
40
3.043762
40
3.043762
40
3.141593
40
3.141593
40
3.141593
40
3.141593
10
1397.547
20
1168.048
30
0
10
1397.056
20
1167.341
30
0
10
1396.600
20
1166.634
30
0
10
1396.552
20
1165.927
30
0
10
1396.548
20
1165.880
30
0
10
1396.547
20
1165.833
30
0
10
1396.547
20
1165.786
30
0
0
LINE
5
163
100
AcDbEntity
8
OUTER_PROFILES
100
AcDbLine
10
1396.547
20
1165.786
30
0
11
1396.547
21
1159.786
31
0
0
SPLINE
5
164
100
AcDbEntity
8
OUTER_PROFILES
100
AcDbSpline
70
8
71
3
72
11
73
7
74
0
40
-3.141593
40
-3.141593
40
-3.141593
40
-3.141593
40
-1.668627
40
-1.668627
40
-1.668627
40
-1.570796
40
-1.570796
40
-1.570796
40
-1.570796
10
1396.547
20
1159.786
30
0
10
1396.547
20
1159.079
30
0
10
1396.961
20
1158.372
30
0
10
1397.449
20
1157.665
30
0
10
1397.482
20
1157.618
30
0
10
1397.514
20
1157.571
30
0
10
1397.547
20
1157.524
30
0
0
LINE
5
165
100
AcDbEntity
8
OUTER_PROFILES
100
AcDbLine
10
1397.547
20
1157.524
30
0
11
1397.476
21
1157.453
31
0
0
SPLINE
5
166
100
AcDbEntity
8
OUTER_PROFILES
100
AcDbSpline
70
8
71
3
72
11
73
7
74
0
40
1.570796
40
1.570796
40
1.570796
40
1.570796
40
1.668627
40
1.668627
40
1.668627
40
3.141593
40
3.141593
40
3.141593
40
3.141593
10
1397.476
20
1157.453
30
0
10
1397.429
20
1157.486
30
0
10
1397.382
20
1157.518
30
0
10
1397.335
20
1157.551
30
0
10
1396.628
20
1158.039
30
0
10
1395.921
20
1158.453
30
0
10
1395.214
20
1158.453
30
0
0
LINE
5
167
100
AcDbEntity
8
OUTER_PROFILES
100
AcDbLine
10
1395.214
20
1158.453
30
0
11
1389.214
21
1158.453
31
0
0
SPLINE
5
168
100
AcDbEntity
8
OUTER_PROFILES
100
AcDbSpline
70
8
71
3
72
11
73
7
74
0
40
-3.141593
40
-3.141593
40
-3.141593
40
-3.141593
40
-3.043762
40
-3.043762
40
-3.043762
40
-1.570796
40
-1.570796
40
-1.570796
40
-1.570796
10
1389.214
20
1158.453
30
0
10
1389.167
20
1158.453
30
0
10
1389.120
20
1158.452
30
0
10
1389.073
20
1158.448
30
0
10
1388.366
20
1158.400
30
0
10
1387.659
20
1157.944
30
0
10
1386.952
20
1157.453
30
0
0
LINE
5
169
100
AcDbEntity
8
OUTER_PROFILES
100
AcDbLine
10
1386.952
20
1157.453
30
0
11
1381.952
21
1152.453
31
0
0
LINE
5
16A
100
AcDbEntity
8
OUTER_PROFILES
100
AcDbLine
10
1381.952
20
1152.453
30
0
11
1381.952
21
20.595
31
0
0
LINE
5
16B
100
AcDbEntity
8
OUTER_PROFILES
100
AcDbLine
10
1381.952
20
20.595
30
0
11
1386.952
21
15.595
31
0
0
SPLINE
5
16C
100
AcDbEntity
8
OUTER_PROFILES
100
AcDbSpline
70
8
71
3
72
11
73
7
74
0
40
1.570796
40
1.570796
40
1.570796
40
1.570796
40
3.043762
40
3.043762
40
3.043762
40
3.141593
40
3.141593
40
3.141593
40
3.141593
10
1386.952
20
15.595
30
0
10
1387.659
20
15.104
30
0
10
1388.366
20
14.647
30
0
10
1389.073
20
14.599
30
0
10
1389.120
20
14.596
30
0
10
1389.167
20
14.595
30
0
10
1389.214
20
14.595
30
0
0
LINE
5
16D
100
AcDbEntity
8
OUTER_PROFILES
100
AcDbLine
10
1389.214
20
14.595
30
0
11
1395.214
21
14.595
31
0
0
SPLINE
5
16E
100
AcDbEntity
8
OUTER_PROFILES
100
AcDbSpline
70
8
71
3
72
11
73
7
74
0
40
-3.141593
40
-3.141593
40
-3.141593
40
-3.141593
40
-1.668627
40
-1.668627
40
-1.668627
40
-1.570796
40
-1.570796
40
-1.570796
40
-1.570796
10
1395.214
20
14.595
30
0
10
1395.921
20
14.595
30
0
10
1396.628
20
15.008
30
0
10
1397.335
20
15.497
30
0
10
1397.382
20
15.529
30
0
10
1397.429
20
15.562
30
0
10
1397.476
20
15.595
30
0
0
LINE
5
16F
100
AcDbEntity
8
OUTER_PROFILES
100
AcDbLine
10
1397.476
20
15.595
30
0
11
1397.547
21
15.524
31
0
0
SPLINE
5
170
100
AcDbEntity
8
OUTER_PROFILES
100
AcDbSpline
70
8
71
3
72
11
73
7
74
0
40
1.570796
40
1.570796
40
1.570796
40
1.570796
40
1.668627
40
1.668627
40
1.668627
40
3.141593
40
3.141593
40
3.141593
40
3.141593
10
1397.547
20
15.524
30
0
10
1397.514
20
15.477
30
0
10
1397.482
20
15.430
30
0
10
1397.449
20
15.383
30
0
10
1396.961
20
14.676
30
0
10
1396.547
20
13.969
30
0
10
1396.547
20
13.262
30
0
0
LINE
5
171
100
AcDbEntity
8
OUTER_PROFILES
100
AcDbLine
10
1396.547
20
13.262
30
0
11
1396.547
21
7.262
31
0
0
SPLINE
5
172
100
AcDbEntity
8
OUTER_PROFILES
100
AcDbSpline
70
8
71
3
72
11
73
7
74
0
40
-3.141593
40
-3.141593
40
-3.141593
40
-3.141593
40
-3.043762
40
-3.043762
40
-3.043762
40
-1.570796
40
-1.570796
40
-1.570796
40
-1.570796
10
1396.547
20
7.262
30
0
10
1396.547
20
7.215
30
0
10
1396.548
20
7.168
30
0
10
1396.552
20
7.121
30
0
10
1396.600
20
6.414
30
0
10
1397.056
20
5.707
30
0
10
1397.547
20
5.000
30
0
0
LINE
5
173
100
AcDbEntity
8
OUTER_PROFILES
100
AcDbLine
10
1397.547
20
5.000
30
0
11
1402.547
21
0.000
31
0
0
LINE
5
174
100
AcDbEntity
8
OUTER_PROFILES
100
AcDbLine
10
1402.547
20
0.000
30
0
11
2050.405
21
0.000
31
0
0
LINE
5
175
100
AcDbEntity
8
OUTER_PROFILES
100
AcDbLine
10
2050.405
20
0.000
30
0
11
2055.405
21
5.000
31
0
0
SPLINE
5
176
100
AcDbEntity
8
OUTER_PROFILES
100
AcDbSpline
70
8
71
3
72
11
73
7
74
0
40
1.570796
40
1.570796
40
1.570796
40
1.570796
40
3.043762
40
3.043762
40
3.043762
40
3.141593
40
3.141593
40
3.141593
40
3.141593
10
2055.405
20
5.000
30
0
10
2055.896
20
5.707
30
0
10
2056.353
20
6.414
30
0
10
2056.401
20
7.121
30
0
10
2056.404
20
7.168
30
0
10
2056.405
20
7.215
30
0
10
2056.405
20
7.262
30
0
0
LINE
5
177
100
AcDbEntity
8
OUTER_PROFILES
100
AcDbLine
10
2056.405
20
7.262
30
0
11
2056.405
21
13.262
31
0
0
SPLINE
5
178
100
AcDbEntity
8
OUTER_PROFILES
100
AcDbSpline
70
8
71
3
72
11
73
7
74
0
40
-3.141593
40
-3.141593
40
-3.141593
40
-3.141593
40
-1.668627
40
-1.668627
40
-1.668627
40
-1.570796
40
-1.570796
40
-1.570796
40
-1.570796
10
2056.405
20
13.262
30
0
10
2056.405
20
13.969
30
0
10
2055.992
20
14.676
30
0
10
2055.503
20
15.383
30
0
10
2055.471
20
15.430
30
0
10
2055.438
20
15.477
30
0
10
2055.405
20
15.524
30
0
0
LINE
5
179
100
AcDbEntity
8
OUTER_PROFILES
100
AcDbLine
10
2055.405
20
15.524
30
0
11
2055.476
21
15.595
31
0
0
SPLINE
5
17A
100
AcDbEntity
8
OUTER_PROFILES
100
AcDbSpline
70
8
71
3
72
11
73
7
74
0
40
1.570796
40
1.570796
40
1.570796
40
1.570796
40
1.668627
40
1.668627
40
1.668627
40
3.141593
40
3.141593
40
3.141593
40
3.141593
10
2055.476
20
15.595
30
0
10
2055.523
20
15.562
30
0
10
2055.570
20
15.529
30
0
10
2055.617
20
15.497
30
0
10
2056.324
20
15.008
30
0
10
2057.031
20
14.595
30
0
10
2057.738
20
14.595
30
0
0
LINE
5
17B
100
AcDbEntity
8
OUTER_PROFILES
100
AcDbLine
10
2057.738
20
14.595
30
0
11
2063.738
21
14.595
31
0
0
SPLINE
5
17C
100
AcDbEntity
8
OUTER_PROFILES
100
AcDbSpline
70
8
71
3
72
11
73
7
74
0
40
-3.141593
40
-3.141593
40
-3.141593
40
-3.141593
40
-3.043762
40
-3.043762
40
-3.043762
40
-1.570796
40
-1.570796
40
-1.570796
40
-1.570796
10
2063.738
20
14.595
30
0
10
2063.785
20
14.595
30
0
10
2063.832
20
14.596
30
0
10
2063.879
20
14.599
30
0
10
2064.586
20
14.647
30
0
10
2065.293
20
15.104
30
0
10
2066.000
20
15.595
30
0
0
LINE
5
17D
100
AcDbEntity
8
OUTER_PROFILES
100
AcDbLine
10
2066.000
20
15.595
30
0
11
2071.000
21
20.595
31
0
0
LINE
5
17E
100
AcDbEntity
8
OUTER_PROFILES
100
AcDbLine
10
2071.000
20
20.595
30
0
11
2071.000
21
1152.453
31
0
0
LINE
5
17F
100
AcDbEntity
8
OUTER_PROFILES
100
AcDbLine
10
2071.000
20
1152.453
30
0
11
2066.000
21
1157.453
31
0
0
SPLINE
5
180
100
AcDbEntity
8
OUTER_PROFILES
100
AcDbSpline
70
8
71
3
72
11
73
7
74
0
40
1.570796
40
1.570796
40
1.570796
40
1.570796
40
3.043762
40
3.043762
40
3.043762
40
3.141593
40
3.141593
40
3.141593
40
3.141593
10
2066.000
20
1157.453
30
0
10
2065.293
20
1157.944
30
0
10
2064.586
20
1158.400
30
0
10
2063.879
20
1158.448
30
0
10
2063.832
20
1158.452
30
0
10
2063.785
20
1158.453
30
0
10
2063.738
20
1158.453
30
0
0
LINE
5
181
100
AcDbEntity
8
OUTER_PROFILES
100
AcDbLine
10
2063.738
20
1158.453
30
0
11
2057.738
21
1158.453
31
0
0
SPLINE
5
182
100
AcDbEntity
8
OUTER_PROFILES
100
AcDbSpline
70
8
71
3
72
11
73
7
74
0
40
-3.141593
40
-3.141593
40
-3.141593
40
-3.141593
40
-1.668627
40
-1.668627
40
-1.668627
40
-1.570796
40
-1.570796
40
-1.570796
40
-1.570796
10
2057.738
20
1158.453
30
0
10
2057.031
20
1158.453
30
0
10
2056.324
20
1158.039
30
0
10
2055.617
20
1157.551
30
0
10
2055.570
20
1157.518
30
0
10
2055.523
20
1157.486
30
0
10
2055.476
20
1157.453
30
0
0
LINE
5
183
100
AcDbEntity
8
OUTER_PROFILES
100
AcDbLine
10
2055.476
20
1157.453
30
0
11
2055.405
21
1157.524
31
0
0
SPLINE
5
184
100
AcDbEntity
8
OUTER_PROFILES
100
AcDbSpline
70
8
71
3
72
11
73
7
74
0
40
1.570796
40
1.570796
40
1.570796
40
1.570796
40
1.668627
40
1.668627
40
1.668627
40
3.141593
40
3.141593
40
3.141593
40
3.141593
10
2055.405
20
1157.524
30
0
10
2055.438
20
1157.571
30
0
10
2055.471
20
1157.618
30
0
10
2055.503
20
1157.665
30
0
10
2055.992
20
1158.372
30
0
10
2056.405
20
1159.079
30
0
10
2056.405
20
1159.786
30
0
0
LINE
5
185
100
AcDbEntity
8
OUTER_PROFILES
100
AcDbLine
10
2056.405
20
1159.786
30
0
11
2056.405
21
1165.786
31
0
0
SPLINE
5
186
100
AcDbEntity
8
OUTER_PROFILES
100
AcDbSpline
70
8
71
3
72
11
73
7
74
0
40
-3.141593
40
-3.141593
40
-3.141593
40
-3.141593
40
-3.043762
40
-3.043762
40
-3.043762
40
-1.570796
40
-1.570796
40
-1.570796
40
-1.570796
10
2056.405
20
1165.786
30
0
10
2056.405
20
1165.833
30
0
10
2056.404
20
1165.880
30
0
10
2056.401
20
1165.927
30
0
10
2056.353
20
1166.634
30
0
10
2055.896
20
1167.341
30
0
10
2055.405
20
1168.048
30
0
0
LINE
5
187
100
AcDbEntity
8
OUTER_PROFILES
100
AcDbLine
10
2055.405
20
1168.048
30
0
11
2050.405
21
1173.048
31
0
0
LINE
5
188
100
AcDbEntity
8
OUTER_PROFILES
100
AcDbLine
10
2050.405
20
1173.048
30
0
11
1402.547
21
1173.048
31
0
0
LINE
5
189
100
AcDbEntity
8
OUTER_PROFILES
100
AcDbLine
10
1402.547
20
1173.048
30
0
11
1397.547
21
1168.048
31
0
0
TEXT
5
18A
100
AcDbEntity
8
PART_LABELS
100
AcDbText
10
2367.500
20
586.500
30
0
40
50.000
1
2BK001-060120
72
1
11
2367.500
21
586.500
31
0
100
AcDbText
73
2
0
LINE
5
18B
100
AcDbEntity
8
OUTER_PROFILES
100
AcDbLine
10
2654.738
20
1158.453
30
0
11
2648.738
21
1158.453
31
0
0
SPLINE
5
18C
100
AcDbEntity
8
OUTER_PROFILES
100
AcDbSpline
70
8
71
3
72
11
73
7
74
0
40
-3.141593
40
-3.141593
40
-3.141593
40
-3.141593
40
-1.668627
40
-1.668627
40
-1.668627
40
-1.570796
40
-1.570796
40
-1.570796
40
-1.570796
10
2648.738
20
1158.453
30
0
10
2648.031
20
1158.453
30
0
10
2647.324
20
1158.039
30
0
10
2646.617
20
1157.551
30
0
10
2646.570
20
1157.518
30
0
10
2646.523
20
1157.486
30
0
10
2646.476
20
1157.453
30
0
0
LINE
5
18D
100
AcDbEntity
8
OUTER_PROFILES
100
AcDbLine
10
2646.476
20
1157.453
30
0
11
2646.405
21
1157.524
31
0
0
SPLINE
5
18E
100
AcDbEntity
8
OUTER_PROFILES
100
AcDbSpline
70
8
71
3
72
11
73
7
74
0
40
1.570796
40
1.570796
40
1.570796
40
1.570796
40
1.668627
40
1.668627
40
1.668627
40
3.141593
40
3.141593
40
3.141593
40
3.141593
10
2646.405
20
1157.524
30
0
10
2646.438
20
1157.571
30
0
10
2646.471
20
1157.618
30
0
10
2646.503
20
1157.665
30
0
10
2646.992
20
1158.372
30
0
10
2647.405
20
1159.079
30
0
10
2647.405
20
1159.786
30
0
0
LINE
5
18F
100
AcDbEntity
8
OUTER_PROFILES
100
AcDbLine
10
2647.405
20
1159.786
30
0
11
2647.405
21
1165.786
31
0
0
SPLINE
5
190
100
AcDbEntity
8
OUTER_PROFILES
100
AcDbSpline
70
8
71
3
72
11
73
7
74
0
40
-3.141593
40
-3.141593
40
-3.141593
40
-3.141593
40
-3.043762
40
-3.043762
40
-3.043762
40
-1.570796
40
-1.570796
40
-1.570796
40
-1.570796
10
2647.405
20
1165.786
30
0
10
2647.405
20
1165.833
30
0
10
2647.404
20
1165.880
30
0
10
2647.401
20
1165.927
30
0
10
2647.353
20
1166.634
30
0
10
2646.896
20
1167.341
30
0
10
2646.405
20
1168.048
30
0
0
LINE
5
191
100
AcDbEntity
8
OUTER_PROFILES
100
AcDbLine
10
2646.405
20
1168.048
30
0
11
2641.405
21
1173.048
31
0
0
LINE
5
192
100
AcDbEntity
8
OUTER_PROFILES
100
AcDbLine
10
2641.405
20
1173.048
30
0
11
2093.547
21
1173.048
31
0
0
LINE
5
193
100
AcDbEntity
8
OUTER_PROFILES
100
AcDbLine
10
2093.547
20
1173.048
30
0
11
2088.547
21
1168.048
31
0
0
SPLINE
5
194
100
AcDbEntity
8
OUTER_PROFILES
100
AcDbSpline
70
8
71
3
72
11
73
7
74
0
40
1.570796
40
1.570796
40
1.570796
40
1.570796
40
3.043762
40
3.043762
40
3.043762
40
3.141593
40
3.141593
40
3.141593
40
3.141593
10
2088.547
20
1168.048
30
0
10
2088.056
20
1167.341
30
0
10
2087.600
20
1166.634
30
0
10
2087.552
20
1165.927
30
0
10
2087.548
20
1165.880
30
0
10
2087.547
20
1165.833
30
0
10
2087.547
20
1165.786
30
0
0
LINE
5
195
100
AcDbEntity
8
OUTER_PROFILES
100
AcDbLine
10
2087.547
20
1165.786
30
0
11
2087.547
21
1159.786
31
0
0
SPLINE
5
196
100
AcDbEntity
8
OUTER_PROFILES
100
AcDbSpline
70
8
71
3
72
11
73
7
74
0
40
-3.141593
40
-3.141593
40
-3.141593
40
-3.141593
40
-1.668627
40
-1.668627
40
-1.668627
40
-1.570796
40
-1.570796
40
-1.570796
40
-1.570796
10
2087.547
20
1159.786
30
0
10
2087.547
20
1159.079
30
0
10
2087.961
20
1158.372
30
0
10
2088.449
20
1157.665
30
0
10
2088.482
20
1157.618
30
0
10
2088.514
20
1157.571
30
0
10
2088.547
20
1157.524
30
0
0
LINE
5
197
100
AcDbEntity
8
OUTER_PROFILES
100
AcDbLine
10
2088.547
20
1157.524
30
0
11
2088.476
21
1157.453
31
0
0
SPLINE
5
198
100
AcDbEntity
8
OUTER_PROFILES
100
AcDbSpline
70
8
71
3
72
11
73
7
74
0
40
1.570796
40
1.570796
40
1.570796
40
1.570796
40
1.668627
40
1.668627
40
1.668627
40
3.141593
40
3.141593
40
3.141593
40
3.141593
10
2088.476
20
1157.453
30
0
10
2088.429
20
1157.486
30
0
10
2088.382
20
1157.518
30
0
10
2088.335
20
1157.551
30
0
10
2087.628
20
1158.039
30
0
10
2086.921
20
1158.453
30
0
10
2086.214
20
1158.453
30
0
0
LINE
5
199
100
AcDbEntity
8
OUTER_PROFILES
100
AcDbLine
10
2086.214
20
1158.453
30
0
11
2080.214
21
1158.453
31
0
0
SPLINE
5
19A
100
AcDbEntity
8
OUTER_PROFILES
100
AcDbSpline
70
8
71
3
72
11
73
7
74
0
40
-3.141593
40
-3.141593
40
-3.141593
40
-3.141593
40
-3.043762
40
-3.043762
40
-3.043762
40
-1.570796
40
-1.570796
40
-1.570796
40
-1.570796
10
2080.214
20
1158.453
30
0
10
2080.167
20
1158.453
30
0
10
2080.120
20
1158.452
30
0
10
2080.073
20
1158.448
30
0
10
2079.366
20
1158.400
30
0
10
2078.659
20
1157.944
30
0
10
2077.952
20
1157.453
30
0
0
LINE
5
19B
100
AcDbEntity
8
OUTER_PROFILES
100
AcDbLine
10
2077.952
20
1157.453
30
0
11
2072.952
21
1152.453
31
0
0
LINE
5
19C
100
AcDbEntity
8
OUTER_PROFILES
100
AcDbLine
10
2072.952
20
1152.453
30
0
11
2072.952
21
20.595
31
0
0
LINE
5
19D
100
AcDbEntity
8
OUTER_PROFILES
100
AcDbLine
10
2072.952
20
20.595
30
0
11
2077.952
21
15.595
31
0
0
SPLINE
5
19E
100
AcDbEntity
8
OUTER_PROFILES
100
AcDbSpline
70
8
71
3
72
11
73
7
74
0
40
1.570796
40
1.570796
40
1.570796
40
1.570796
40
3.043762
40
3.043762
40
3.043762
40
3.141593
40
3.141593
40
3.141593
40
3.141593
10
2077.952
20
15.595
30
0
10
2078.659
20
15.104
30
0
10
2079.366
20
14.647
30
0
10
2080.073
20
14.599
30
0
10
2080.120
20
14.596
30
0
10
2080.167
20
14.595
30
0
10
2080.214
20
14.595
30
0
0
LINE
5
19F
100
AcDbEntity
8
OUTER_PROFILES
100
AcDbLine
10
2080.214
20
14.595
30
0
11
2086.214
21
14.595
31
0
0
SPLINE
5
1A0
100
AcDbEntity
8
OUTER_PROFILES
100
AcDbSpline
70
8
71
3
72
11
73
7
74
0
40
-3.141593
40
-3.141593
40
-3.141593
40
-3.141593
40
-1.668627
40
-1.668627
40
-1.668627
40
-1.570796
40
-1.570796
40
-1.570796
40
-1.570796
10
2086.214
20
14.595
30
0
10
2086.921
20
14.595
30
0
10
2087.628
20
15.008
30
0
10
2088.335
20
15.497
30
0
10
2088.382
20
15.529
30
0
10
2088.429
20
15.562
30
0
10
2088.476
20
15.595
30
0
0
LINE
5
1A1
100
AcDbEntity
8
OUTER_PROFILES
100
AcDbLine
10
2088.476
20
15.595
30
0
11
2088.547
21
15.524
31
0
0
SPLINE
5
1A2
100
AcDbEntity
8
OUTER_PROFILES
100
AcDbSpline
70
8
71
3
72
11
73
7
74
0
40
1.570796
40
1.570796
40
1.570796
40
1.570796
40
1.668627
40
1.668627
40
1.668627
40
3.141593
40
3.141593
40
3.141593
40
3.141593
10
2088.547
20
15.524
30
0
10
2088.514
20
15.477
30
0
10
2088.482
20
15.430
30
0
10
2088.449
20
15.383
30
0
10
2087.961
20
14.676
30
0
10
2087.547
20
13.969
30
0
10
2087.547
20
13.262
30
0
0
LINE
5
1A3
100
AcDbEntity
8
OUTER_PROFILES
100
AcDbLine
10
2087.547
20
13.262
30
0
11
2087.547
21
7.262
31
0
0
SPLINE
5
1A4
100
AcDbEntity
8
OUTER_PROFILES
100
AcDbSpline
70
8
71
3
72
11
73
7
74
0
40
-3.141593
40
-3.141593
40
-3.141593
40
-3.141593
40
-3.043762
40
-3.043762
40
-3.043762
40
-1.570796
40
-1.570796
40
-1.570796
40
-1.570796
10
2087.547
20
7.262
30
0
10
2087.547
20
7.215
30
0
10
2087.548
20
7.168
30
0
10
2087.552
20
7.121
30
0
10
2087.600
20
6.414
30
0
10
2088.056
20
5.707
30
0
10
2088.547
20
5.000
30
0
0
LINE
5
1A5
100
AcDbEntity
8
OUTER_PROFILES
100
AcDbLine
10
2088.547
20
5.000
30
0
11
2093.547
21
0.000
31
0
0
LINE
5
1A6
100
AcDbEntity
8
OUTER_PROFILES
100
AcDbLine
10
2093.547
20
0.000
30
0
11
2641.405
21
0.000
31
0
0
LINE
5
1A7
100
AcDbEntity
8
OUTER_PROFILES
100
AcDbLine
10
2641.405
20
0.000
30
0
11
2646.405
21
5.000
31
0
0
SPLINE
5
1A8
100
AcDbEntity
8
OUTER_PROFILES
100
AcDbSpline
70
8
71
3
72
11
73
7
74
0
40
1.570796
40
1.570796
40
1.570796
40
1.570796
40
3.043762
40
3.043762
40
3.043762
40
3.141593
40
3.141593
40
3.141593
40
3.141593
10
2646.405
20
5.000
30
0
10
2646.896
20
5.707
30
0
10
2647.353
20
6.414
30
0
10
2647.401
20
7.121
30
0
10
2647.404
20
7.168
30
0
10
2647.405
20
7.215
30
0
10
2647.405
20
7.262
30
0
0
LINE
5
1A9
100
AcDbEntity
8
OUTER_PROFILES
100
AcDbLine
10
2647.405
20
7.262
30
0
11
2647.405
21
13.262
31
0
0
SPLINE
5
1AA
100
AcDbEntity
8
OUTER_PROFILES
100
AcDbSpline
70
8
71
3
72
11
73
7
74
0
40
-3.141593
40
-3.141593
40
-3.141593
40
-3.141593
40
-1.668627
40
-1.668627
40
-1.668627
40
-1.570796
40
-1.570796
40
-1.570796
40
-1.570796
10
2647.405
20
13.262
30
0
10
2647.405
20
13.969
30
0
10
2646.992
20
14.676
30
0
10
2646.503
20
15.383
30
0
10
2646.471
20
15.430
30
0
10
2646.438
20
15.477
30
0
10
2646.405
20
15.524
30
0
0
LINE
5
1AB
100
AcDbEntity
8
OUTER_PROFILES
100
AcDbLine
10
2646.405
20
15.524
30
0
11
2646.476
21
15.595
31
0
0
SPLINE
5
1AC
100
AcDbEntity
8
OUTER_PROFILES
100
AcDbSpline
70
8
71
3
72
11
73
7
74
0
40
1.570796
40
1.570796
40
1.570796
40
1.570796
40
1.668627
40
1.668627
40
1.668627
40
3.141593
40
3.141593
40
3.141593
40
3.141593
10
2646.476
20
15.595
30
0
10
2646.523
20
15.562
30
0
10
2646.570
20
15.529
30
0
10
2646.617
20
15.497
30
0
10
2647.324
20
15.008
30
0
10
2648.031
20
14.595
30
0
10
2648.738
20
14.595
30
0
0
LINE
5
1AD
100
AcDbEntity
8
OUTER_PROFILES
100
AcDbLine
10
2648.738
20
14.595
30
0
11
2654.738
21
14.595
31
0
0
SPLINE
5
1AE
100
AcDbEntity
8
OUTER_PROFILES
100
AcDbSpline
70
8
71
3
72
11
73
7
74
0
40
-3.141593
40
-3.141593
40
-3.141593
40
-3.141593
40
-3.043762
40
-3.043762
40
-3.043762
40
-1.570796
40
-1.570796
40
-1.570796
40
-1.570796
10
2654.738
20
14.595
30
0
10
2654.785
20
14.595
30
0
10
2654.832
20
14.596
30
0
10
2654.879
20
14.599
30
0
10
2655.586
20
14.647
30
0
10
2656.293
20
15.104
30
0
10
2657.000
20
15.595
30
0
0
LINE
5
1AF
100
AcDbEntity
8
OUTER_PROFILES
100
AcDbLine
10
2657.000
20
15.595
30
0
11
2662.000
21
20.595
31
0
0
LINE
5
1B0
100
AcDbEntity
8
OUTER_PROFILES
100
AcDbLine
10
2662.000
20
20.595
30
0
11
2662.000
21
1152.453
31
0
0
LINE
5
1B1
100
AcDbEntity
8
OUTER_PROFILES
100
AcDbLine
10
2662.000
20
1152.453
30
0
11
2657.000
21
1157.453
31
0
0
SPLINE
5
1B2
100
AcDbEntity
8
OUTER_PROFILES
100
AcDbSpline
70
8
71
3
72
11
73
7
74
0
40
1.570796
40
1.570796
40
1.570796
40
1.570796
40
3.043762
40
3.043762
40
3.043762
40
3.141593
40
3.141593
40
3.141593
40
3.141593
10
2657.000
20
1157.453
30
0
10
2656.293
20
1157.944
30
0
10
2655.586
20
1158.400
30
0
10
2654.879
20
1158.448
30
0
10
2654.832
20
1158.452
30
0
10
2654.785
20
1158.453
30
0
10
2654.738
20
1158.453
30
0
0
TEXT
5
1B3
100
AcDbEntity
8
PART_LABELS
100
AcDbText
10
603.500
20
1346.000
30
0
40
50.000
1
2CN002-120024
72
1
11
603.500
21
1346.000
31
0
100
AcDbText
73
2
0
CIRCLE
5
1B4
100
AcDbEntity
8
OUTER_PROFILES
100
AcDbCircle
10
4.000
20
1256.262
30
0
40
1.700
0
CIRCLE
5
1B5
100
AcDbEntity
8
OUTER_PROFILES
100
AcDbCircle
10
4.000
20
1356.262
30
0
40
1.700
0
CIRCLE
5
1B6
100
AcDbEntity
8
OUTER_PROFILES
100
AcDbCircle
10
603.262
20
1220.262
30
0
40
1.700
0
CIRCLE
5
1B7
100
AcDbEntity
8
OUTER_PROFILES
100
AcDbCircle
10
103.262
20
1220.262
30
0
40
1.700
0
CIRCLE
5
1B8
100
AcDbEntity
8
OUTER_PROFILES
100
AcDbCircle
10
1103.262
20
1220.262
30
0
40
1.700
0
CIRCLE
5
1B9
100
AcDbEntity
8
OUTER_PROFILES
100
AcDbCircle
10
1202.524
20
1356.262
30
0
40
1.700
0
CIRCLE
5
1BA
100
AcDbEntity
8
OUTER_PROFILES
100
AcDbCircle
10
1202.524
20
1256.262
30
0
40
1.700
0
CIRCLE
5
1BB
100
AcDbEntity
8
OUTER_PROFILES
100
AcDbCircle
10
603.262
20
1197.000
30
0
40
1.700
0
CIRCLE
5
1BC
100
AcDbEntity
8
OUTER_PROFILES
100
AcDbCircle
10
769.929
20
1197.000
30
0
40
1.700
0
CIRCLE
5
1BD
100
AcDbEntity
8
OUTER_PROFILES
100
AcDbCircle
10
1103.262
20
1197.000
30
0
40
1.700
0
CIRCLE
5
1BE
100
AcDbEntity
8
OUTER_PROFILES
100
AcDbCircle
10
103.262
20
1197.000
30
0
40
1.700
0
CIRCLE
5
1BF
100
AcDbEntity
8
OUTER_PROFILES
100
AcDbCircle
10
436.595
20
1197.000
30
0
40
1.700
0
CIRCLE
5
1C0
100
AcDbEntity
8
OUTER_PROFILES
100
AcDbCircle
10
1189.524
20
1487.524
30
0
40
1.700
0
CIRCLE
5
1C1
100
AcDbEntity
8
OUTER_PROFILES
100
AcDbCircle
10
1189.524
20
1469.524
30
0
40
1.700
0
CIRCLE
5
1C2
100
AcDbEntity
8
OUTER_PROFILES
100
AcDbCircle
10
769.929
20
1513.786
30
0
40
1.700
0
CIRCLE
5
1C3
100
AcDbEntity
8
OUTER_PROFILES
100
AcDbCircle
10
436.595
20
1513.786
30
0
40
1.700
0
CIRCLE
5
1C4
100
AcDbEntity
8
OUTER_PROFILES
100
AcDbCircle
10
1103.262
20
1513.786
30
0
40
1.700
0
CIRCLE
5
1C5
100
AcDbEntity
8
OUTER_PROFILES
100
AcDbCircle
10
103.262
20
1513.786
30
0
40
1.700
0
CIRCLE
5
1C6
100
AcDbEntity
8
OUTER_PROFILES
100
AcDbCircle
10
603.262
20
1513.786
30
0
40
1.700
0
CIRCLE
5
1C7
100
AcDbEntity
8
OUTER_PROFILES
100
AcDbCircle
10
17.000
20
1469.524
30
0
40
1.700
0
CIRCLE
5
1C8
100
AcDbEntity
8
OUTER_PROFILES
100
AcDbCircle
10
17.000
20
1487.524
30
0
40
1.700
0
LINE
5
1C9
100
AcDbEntity
8
OUTER_PROFILES
100
AcDbLine
10
1177.029
20
1439.100
30
0
11
1197.524
21
1459.595
31
0
0
LINE
5
1CA
100
AcDbEntity
8
OUTER_PROFILES
100
AcDbLine
10
1197.524
20
1459.595
30
0
11
1197.524
21
1496.160
31
0
0
LINE
5
1CB
100
AcDbEntity
8
OUTER_PROFILES
100
AcDbLine
10
1197.524
20
1496.160
30
0
11
1177.524
21
1496.160
31
0
0
SPLINE
5
1CC
100
AcDbEntity
8
OUTER_PROFILES
100
AcDbSpline
70
8
71
3
72
8
73
4
74
0
40
0.013286
40
0.013286
40
0.013286
40
0.013286
40
0.324478
40
0.324478
40
0.324478
40
0.324478
10
1175.419
20
1495.235
30
0
10
1176.087
20
1495.698
30
0
10
1176.780
20
1496.160
30
0
10
1177.524
20
1496.160
30
0
0
SPLINE
5
1CD
100
AcDbEntity
8
OUTER_PROFILES
100
AcDbSpline
70
8
71
3
72
8
73
4
74
0
40
-1.570796
40
-1.570796
40
-1.570796
40
-1.570796
40
-1.461436
40
-1.461436
40
-1.461436
40
-1.461436
10
1175.262
20
1495.453
30
0
10
1175.314
20
1495.380
30
0
10
1175.367
20
1495.307
30
0
10
1175.419
20
1495.235
30
0
0
LINE
5
1CE
100
AcDbEntity
8
OUTER_PROFILES
100
AcDbLine
10
1175.262
20
1495.453
30
0
11
1175.191
21
1495.524
31
0
0
SPLINE
5
1CF
100
AcDbEntity
8
OUTER_PROFILES
100
AcDbSpline
70
8
71
3
72
8
73
4
74
0
40
1.362089
40
1.362089
40
1.362089
40
1.362089
40
1.570796
40
1.570796
40
1.570796
40
1.570796
10
1174.984
20
1495.824
30
0
10
1175.052
20
1495.724
30
0
10
1175.122
20
1495.624
30
0
10
1175.191
20
1495.524
30
0
0
SPLINE
5
1D0
100
AcDbEntity
8
OUTER_PROFILES
100
AcDbSpline
70
8
71
3
72
11
73
7
74
0
40
0.001892
40
0.001892
40
0.001892
40
0.001892
40
0.152165
40
0.152165
40
0.152165
40
0.198521
40
0.198521
40
0.198521
40
0.198521
10
1174.984
20
1495.824
30
0
10
1175.338
20
1496.334
30
0
10
1175.670
20
1496.806
30
0
10
1175.822
20
1497.303
30
0
10
1175.869
20
1497.456
30
0
10
1175.898
20
1497.619
30
0
10
1175.898
20
1497.786
30
0
0
LINE
5
1D1
100
AcDbEntity
8
OUTER_PROFILES
100
AcDbLine
10
1175.898
20
1497.786
30
0
11
1175.898
21
1516.786
31
0
0
LINE
5
1D2
100
AcDbEntity
8
OUTER_PROFILES
100
AcDbLine
10
1175.898
20
1516.786
30
0
11
30.626
21
1516.786
31
0
0
LINE
5
1D3
100
AcDbEntity
8
OUTER_PROFILES
100
AcDbLine
10
30.626
20
1516.786
30
0
11
30.626
21
1497.786
31
0
0
SPLINE
5
1D4
100
AcDbEntity
8
OUTER_PROFILES
100
AcDbSpline
70
8
71
3
72
11
73
7
74
0
40
0.000000
40
0.000000
40
0.000000
40
0.000000
40
0.126943
40
0.126943
40
0.126943
40
0.151272
40
0.151272
40
0.151272
40
0.151272
10
30.626
20
1497.786
30
0
10
30.626
20
1497.177
30
0
10
30.955
20
1496.682
30
0
10
31.323
20
1496.139
30
0
10
31.394
20
1496.035
30
0
10
31.466
20
1495.930
30
0
10
31.540
20
1495.824
30
0
0
SPLINE
5
1D5
100
AcDbEntity
8
OUTER_PROFILES
100
AcDbSpline
70
8
71
3
72
8
73
4
74
0
40
-1.570796
40
-1.570796
40
-1.570796
40
-1.570796
40
-1.362089
40
-1.362089
40
-1.362089
40
-1.362089
10
31.333
20
1495.524
30
0
10
31.402
20
1495.624
30
0
10
31.472
20
1495.724
30
0
10
31.540
20
1495.824
30
0
0
LINE
5
1D6
100
AcDbEntity
8
OUTER_PROFILES
100
AcDbLine
10
31.333
20
1495.524
30
0
11
31.262
21
1495.453
31
0
0
SPLINE
5
1D7
100
AcDbEntity
8
OUTER_PROFILES
100
AcDbSpline
70
8
71
3
72
8
73
4
74
0
40
1.461436
40
1.461436
40
1.461436
40
1.461436
40
1.570796
40
1.570796
40
1.570796
40
1.570796
10
31.104
20
1495.235
30
0
10
31.157
20
1495.307
30
0
10
31.209
20
1495.380
30
0
10
31.262
20
1495.453
30
0
0
SPLINE
5
1D8
100
AcDbEntity
8
OUTER_PROFILES
100
AcDbSpline
70
8
71
3
72
8
73
4
74
0
40
0.000000
40
0.000000
40
0.000000
40
0.000000
40
0.309778
40
0.309778
40
0.309778
40
0.309778
10
29.000
20
1496.160
30
0
10
29.743
20
1496.160
30
0
10
30.437
20
1495.698
30
0
10
31.104
20
1495.235
30
0
0
LINE
5
1D9
100
AcDbEntity
8
OUTER_PROFILES
100
AcDbLine
10
29.000
20
1496.160
30
0
11
9.000
21
1496.160
31
0
0
LINE
5
1DA
100
AcDbEntity
8
OUTER_PROFILES
100
AcDbLine
10
9.000
20
1496.160
30
0
11
9.000
21
1459.595
31
0
0
LINE
5
1DB
100
AcDbEntity
8
OUTER_PROFILES
100
AcDbLine
10
9.000
20
1459.595
30
0
11
29.495
21
1439.100
31
0
0
ARC
5
1DC
100
AcDbEntity
8
OUTER_PROFILES
100
AcDbCircle
10
28.787
20
1438.393
30
0
40
1.000
100
AcDbArc
50
315.0000
51
45.0000
0
LINE
5
1DD
100
AcDbEntity
8
OUTER_PROFILES
100
AcDbLine
10
29.495
20
1437.686
30
0
11
9.000
21
1417.191
31
0
0
LINE
5
1DE
100
AcDbEntity
8
OUTER_PROFILES
100
AcDbLine
10
9.000
20
1417.191
30
0
11
0.000
21
1417.191
31
0
0
LINE
5
1DF
100
AcDbEntity
8
OUTER_PROFILES
100
AcDbLine
10
0.000
20
1417.191
30
0
11
0.000
21
1226.333
31
0
0
LINE
5
1E0
100
AcDbEntity
8
OUTER_PROFILES
100
AcDbLine
10
0.000
20
1226.333
30
0
11
9.000
21
1226.333
31
0
0
LINE
5
1E1
100
AcDbEntity
8
OUTER_PROFILES
100
AcDbLine
10
9.000
20
1226.333
30
0
11
29.495
21
1205.838
31
0
0
ARC
5
1E2
100
AcDbEntity
8
OUTER_PROFILES
100
AcDbCircle
10
28.787
20
1205.131
30
0
40
1.000
100
AcDbArc
50
315.0000
51
45.0000
0
LINE
5
1E3
100
AcDbEntity
8
OUTER_PROFILES
100
AcDbLine
10
29.495
20
1204.424
30
0
11
9.000
21
1183.929
31
0
0
LINE
5
1E4
100
AcDbEntity
8
OUTER_PROFILES
100
AcDbLine
10
9.000
20
1183.929
30
0
11
9.000
21
1175.000
31
0
0
LINE
5
1E5
100
AcDbEntity
8
OUTER_PROFILES
100
AcDbLine
10
9.000
20
1175.000
30
0
11
1197.524
21
1175.000
31
0
0
LINE
5
1E6
100
AcDbEntity
8
OUTER_PROFILES
100
AcDbLine
10
1197.524
20
1175.000
30
0
11
1197.524
21
1183.929
31
0
0
LINE
5
1E7
100
AcDbEntity
8
OUTER_PROFILES
100
AcDbLine
10
1197.524
20
1183.929
30
0
11
1177.029
21
1204.424
31
0
0
ARC
5
1E8
100
AcDbEntity
8
OUTER_PROFILES
100
AcDbCircle
10
1177.736
20
1205.131
30
0
40
1.000
100
AcDbArc
50
135.0000
51
225.0000
0
LINE
5
1E9
100
AcDbEntity
8
OUTER_PROFILES
100
AcDbLine
10
1177.029
20
1205.838
30
0
11
1197.524
21
1226.333
31
0
0
LINE
5
1EA
100
AcDbEntity
8
OUTER_PROFILES
100
AcDbLine
10
1197.524
20
1226.333
30
0
11
1206.524
21
1226.333
31
0
0
LINE
5
1EB
100
AcDbEntity
8
OUTER_PROFILES
100
AcDbLine
10
1206.524
20
1226.333
30
0
11
1206.524
21
1417.191
31
0
0
LINE
5
1EC
100
AcDbEntity
8
OUTER_PROFILES
100
AcDbLine
10
1206.524
20
1417.191
30
0
11
1197.524
21
1417.191
31
0
0
LINE
5
1ED
100
AcDbEntity
8
OUTER_PROFILES
100
AcDbLine
10
1197.524
20
1417.191
30
0
11
1177.029
21
1437.686
31
0
0
ARC
5
1EE
100
AcDbEntity
8
OUTER_PROFILES
100
AcDbCircle
10
1177.736
20
1438.393
30
0
40
1.000
100
AcDbArc
50
135.0000
51
225.0000
0
TEXT
5
1EF
100
AcDbEntity
8
PART_LABELS
100
AcDbText
10
1804.500
20
1324.500
30
0
40
50.000
1
2SD0C1-120026
72
1
11
1804.500
21
1324.500
31
0
100
AcDbText
73
2
0
LWPOLYLINE
5
1F0
100
AcDbEntity
8
OUTER_PROFILES
100
AcDbPolyline
90
45
70
1
10
1230.757
20
1181.838
10
1225.262
20
1187.333
10
1225.262
20
1191.191
10
1230.757
20
1196.686
42
0.414214
10
1230.757
20
1198.100
10
1225.262
20
1203.595
10
1216.262
20
1203.595
10
1209.000
20
1203.595
10
1209.000
20
1445.453
10
1225.262
20
1445.453
10
1230.262
20
1450.453
10
1232.524
20
1450.524
10
1232.524
20
1452.786
10
1230.262
20
1452.857
10
1225.262
20
1457.857
10
1225.262
20
1461.715
10
1230.757
20
1467.210
42
0.414214
10
1230.757
20
1468.624
10
1225.333
20
1474.048
10
2383.715
20
1474.048
10
2378.291
20
1468.624
42
0.414214
10
2378.291
20
1467.210
10
2383.786
20
1461.715
10
2383.786
20
1457.857
10
2378.786
20
1452.857
10
2376.524
20
1452.786
10
2376.524
20
1450.524
10
2378.786
20
1450.453
10
2383.786
20
1445.453
10
2400.048
20
1445.453
10
2400.048
20
1203.595
10
2395.048
20
1203.595
10
2383.786
20
1203.595
10
2381.286
20
1201.095
10
2378.291
20
1198.100
42
0.414214
10
2378.291
20
1196.686
10
2383.786
20
1191.191
10
2383.786
20
1187.333
10
2378.291
20
1181.838
42
0.414214
10
2378.291
20
1180.424
10
2383.715
20
1175.000
10
2376.524
20
1175.000
10
1230.262
20
1175.000
10
1225.333
20
1175.000
10
1230.757
20
1180.424
42
0.414214
0
CIRCLE
5
1F1
100
AcDbEntity
8
INTERIOR_PROFILES
100
AcDbCircle
10
1304.524
20
1443.524
30
0
40
1.700
0
CIRCLE
5
1F2
100
AcDbEntity
8
INTERIOR_PROFILES
100
AcDbCircle
10
1788.524
20
1415.524
30
0
40
1.700
0
CIRCLE
5
1F3
100
AcDbEntity
8
INTERIOR_PROFILES
100
AcDbCircle
10
2288.524
20
1415.524
30
0
40
1.700
0
CIRCLE
5
1F4
100
AcDbEntity
8
INTERIOR_PROFILES
100
AcDbCircle
10
1304.524
20
1230.524
30
0
40
1.700
0
CIRCLE
5
1F5
100
AcDbEntity
8
INTERIOR_PROFILES
100
AcDbCircle
10
2304.524
20
1230.524
30
0
40
1.700
0
CIRCLE
5
1F6
100
AcDbEntity
8
INTERIOR_PROFILES
100
AcDbCircle
10
1320.524
20
1415.524
30
0
40
1.700
0
CIRCLE
5
1F7
100
AcDbEntity
8
INTERIOR_PROFILES
100
AcDbCircle
10
2320.524
20
1415.524
30
0
40
1.700
0
CIRCLE
5
1F8
100
AcDbEntity
8
INTERIOR_PROFILES
100
AcDbCircle
10
1236.524
20
1205.524
30
0
40
1.700
0
CIRCLE
5
1F9
100
AcDbEntity
8
INTERIOR_PROFILES
100
AcDbCircle
10
2372.524
20
1205.524
30
0
40
1.700
0
CIRCLE
5
1FA
100
AcDbEntity
8
INTERIOR_PROFILES
100
AcDbCircle
10
2304.524
20
1253.524
30
0
40
2.117
0
CIRCLE
5
1FB
100
AcDbEntity
8
INTERIOR_PROFILES
100
AcDbCircle
10
1256.524
20
1205.524
30
0
40
1.700
0
CIRCLE
5
1FC
100
AcDbEntity
8
INTERIOR_PROFILES
100
AcDbCircle
10
1304.524
20
1383.524
30
0
40
2.117
0
CIRCLE
5
1FD
100
AcDbEntity
8
INTERIOR_PROFILES
100
AcDbCircle
10
1804.524
20
1383.524
30
0
40
2.117
0
CIRCLE
5
1FE
100
AcDbEntity
8
INTERIOR_PROFILES
100
AcDbCircle
10
1804.524
20
1443.524
30
0
40
1.700
0
CIRCLE
5
1FF
100
AcDbEntity
8
INTERIOR_PROFILES
100
AcDbCircle
10
1288.524
20
1415.524
30
0
40
1.700
0
CIRCLE
5
200
100
AcDbEntity
8
INTERIOR_PROFILES
100
AcDbCircle
10
1804.524
20
1230.524
30
0
40
1.700
0
CIRCLE
5
201
100
AcDbEntity
8
INTERIOR_PROFILES
100
AcDbCircle
10
1820.524
20
1415.524
30
0
40
1.700
0
CIRCLE
5
202
100
AcDbEntity
8
INTERIOR_PROFILES
100
AcDbCircle
10
1704.524
20
1383.524
30
0
40
2.117
0
CIRCLE
5
203
100
AcDbEntity
8
INTERIOR_PROFILES
100
AcDbCircle
10
2352.524
20
1205.524
30
0
40
1.700
0
CIRCLE
5
204
100
AcDbEntity
8
INTERIOR_PROFILES
100
AcDbCircle
10
2304.524
20
1443.524
30
0
40
1.700
0
CIRCLE
5
205
100
AcDbEntity
8
INTERIOR_PROFILES
100
AcDbCircle
10
2054.524
20
1383.524
30
0
40
2.117
0
CIRCLE
5
206
100
AcDbEntity
8
INTERIOR_PROFILES
100
AcDbCircle
10
1954.524
20
1383.524
30
0
40
2.117
0
CIRCLE
5
207
100
AcDbEntity
8
INTERIOR_PROFILES
100
AcDbCircle
10
2254.524
20
1383.524
30
0
40
2.117
0
CIRCLE
5
208
100
AcDbEntity
8
INTERIOR_PROFILES
100
AcDbCircle
10
1904.524
20
1253.524
30
0
40
2.117
0
CIRCLE
5
209
100
AcDbEntity
8
INTERIOR_PROFILES
100
AcDbCircle
10
2254.524
20
1253.524
30
0
40
2.117
0
CIRCLE
5
20A
100
AcDbEntity
8
INTERIOR_PROFILES
100
AcDbCircle
10
2054.524
20
1253.524
30
0
40
2.117
0
CIRCLE
5
20B
100
AcDbEntity
8
INTERIOR_PROFILES
100
AcDbCircle
10
1954.524
20
1253.524
30
0
40
2.117
0
CIRCLE
5
20C
100
AcDbEntity
8
INTERIOR_PROFILES
100
AcDbCircle
10
2104.524
20
1253.524
30
0
40
2.117
0
CIRCLE
5
20D
100
AcDbEntity
8
INTERIOR_PROFILES
100
AcDbCircle
10
2304.524
20
1383.524
30
0
40
2.117
0
CIRCLE
5
20E
100
AcDbEntity
8
INTERIOR_PROFILES
100
AcDbCircle
10
1904.524
20
1383.524
30
0
40
2.117
0
CIRCLE
5
20F
100
AcDbEntity
8
INTERIOR_PROFILES
100
AcDbCircle
10
1404.524
20
1253.524
30
0
40
2.117
0
CIRCLE
5
210
100
AcDbEntity
8
INTERIOR_PROFILES
100
AcDbCircle
10
2154.524
20
1253.524
30
0
40
2.117
0
CIRCLE
5
211
100
AcDbEntity
8
INTERIOR_PROFILES
100
AcDbCircle
10
2204.524
20
1253.524
30
0
40
2.117
0
CIRCLE
5
212
100
AcDbEntity
8
INTERIOR_PROFILES
100
AcDbCircle
10
1654.524
20
1253.524
30
0
40
2.117
0
CIRCLE
5
213
100
AcDbEntity
8
INTERIOR_PROFILES
100
AcDbCircle
10
1454.524
20
1253.524
30
0
40
2.117
0
CIRCLE
5
214
100
AcDbEntity
8
INTERIOR_PROFILES
100
AcDbCircle
10
1996.524
20
1228.524
30
0
40
3.000
0
CIRCLE
5
215
100
AcDbEntity
8
INTERIOR_PROFILES
100
AcDbCircle
10
1354.524
20
1383.524
30
0
40
2.117
0
CIRCLE
5
216
100
AcDbEntity
8
INTERIOR_PROFILES
100
AcDbCircle
10
1854.524
20
1383.524
30
0
40
2.117
0
CIRCLE
5
217
100
AcDbEntity
8
INTERIOR_PROFILES
100
AcDbCircle
10
1654.524
20
1383.524
30
0
40
2.117
0
CIRCLE
5
218
100
AcDbEntity
8
INTERIOR_PROFILES
100
AcDbCircle
10
1704.524
20
1253.524
30
0
40
2.117
0
CIRCLE
5
219
100
AcDbEntity
8
INTERIOR_PROFILES
100
AcDbCircle
10
1854.524
20
1253.524
30
0
40
2.117
0
CIRCLE
5
21A
100
AcDbEntity
8
INTERIOR_PROFILES
100
AcDbCircle
10
1754.524
20
1383.524
30
0
40
2.117
0
CIRCLE
5
21B
100
AcDbEntity
8
INTERIOR_PROFILES
100
AcDbCircle
10
1596.524
20
1228.524
30
0
40
3.000
0
CIRCLE
5
21C
100
AcDbEntity
8
INTERIOR_PROFILES
100
AcDbCircle
10
1404.524
20
1383.524
30
0
40
2.117
0
CIRCLE
5
21D
100
AcDbEntity
8
INTERIOR_PROFILES
100
AcDbCircle
10
1304.524
20
1253.524
30
0
40
2.117
0
CIRCLE
5
21E
100
AcDbEntity
8
INTERIOR_PROFILES
100
AcDbCircle
10
1554.524
20
1253.524
30
0
40
2.117
0
CIRCLE
5
21F
100
AcDbEntity
8
INTERIOR_PROFILES
100
AcDbCircle
10
2004.524
20
1253.524
30
0
40
2.117
0
CIRCLE
5
220
100
AcDbEntity
8
INTERIOR_PROFILES
100
AcDbCircle
10
1604.524
20
1253.524
30
0
40
2.117
0
CIRCLE
5
221
100
AcDbEntity
8
INTERIOR_PROFILES
100
AcDbCircle
10
1454.524
20
1383.524
30
0
40
2.117
0
CIRCLE
5
222
100
AcDbEntity
8
INTERIOR_PROFILES
100
AcDbCircle
10
2104.524
20
1383.524
30
0
40
2.117
0
CIRCLE
5
223
100
AcDbEntity
8
INTERIOR_PROFILES
100
AcDbCircle
10
1554.524
20
1383.524
30
0
40
2.117
0
CIRCLE
5
224
100
AcDbEntity
8
INTERIOR_PROFILES
100
AcDbCircle
10
1504.524
20
1253.524
30
0
40
2.117
0
CIRCLE
5
225
100
AcDbEntity
8
INTERIOR_PROFILES
100
AcDbCircle
10
1354.524
20
1253.524
30
0
40
2.117
0
CIRCLE
5
226
100
AcDbEntity
8
INTERIOR_PROFILES
100
AcDbCircle
10
1504.524
20
1383.524
30
0
40
2.117
0
CIRCLE
5
227
100
AcDbEntity
8
INTERIOR_PROFILES
100
AcDbCircle
10
1604.524
20
1383.524
30
0
40
2.117
0
CIRCLE
5
228
100
AcDbEntity
8
INTERIOR_PROFILES
100
AcDbCircle
10
1804.524
20
1253.524
30
0
40
2.117
0
CIRCLE
5
229
100
AcDbEntity
8
INTERIOR_PROFILES
100
AcDbCircle
10
2154.524
20
1383.524
30
0
40
2.117
0
CIRCLE
5
22A
100
AcDbEntity
8
INTERIOR_PROFILES
100
AcDbCircle
10
2004.524
20
1383.524
30
0
40
2.117
0
CIRCLE
5
22B
100
AcDbEntity
8
INTERIOR_PROFILES
100
AcDbCircle
10
1754.524
20
1253.524
30
0
40
2.117
0
CIRCLE
5
22C
100
AcDbEntity
8
INTERIOR_PROFILES
100
AcDbCircle
10
2204.524
20
1383.524
30
0
40
2.117
0
CIRCLE
5
22D
100
AcDbEntity
8
INTERIOR_PROFILES
100
AcDbCircle
10
2323.524
20
1189.262
30
0
40
1.700
0
CIRCLE
5
22E
100
AcDbEntity
8
INTERIOR_PROFILES
100
AcDbCircle
10
1223.262
20
1440.024
30
0
40
1.700
0
CIRCLE
5
22F
100
AcDbEntity
8
INTERIOR_PROFILES
100
AcDbCircle
10
1804.524
20
1189.262
30
0
40
1.700
0
CIRCLE
5
230
100
AcDbEntity
8
INTERIOR_PROFILES
100
AcDbCircle
10
2385.786
20
1430.274
30
0
40
6.500
0
CIRCLE
5
231
100
AcDbEntity
8
INTERIOR_PROFILES
100
AcDbCircle
10
1223.262
20
1228.524
30
0
40
1.700
0
CIRCLE
5
232
100
AcDbEntity
8
INTERIOR_PROFILES
100
AcDbCircle
10
1285.524
20
1189.262
30
0
40
1.700
0
CIRCLE
5
233
100
AcDbEntity
8
INTERIOR_PROFILES
100
AcDbCircle
10
1223.262
20
1420.524
30
0
40
1.700
0
CIRCLE
5
234
100
AcDbEntity
8
INTERIOR_PROFILES
100
AcDbCircle
10
1223.262
20
1209.024
30
0
40
1.700
0
CIRCLE
5
235
100
AcDbEntity
8
INTERIOR_PROFILES
100
AcDbCircle
10
2385.786
20
1228.524
30
0
40
1.700
0
CIRCLE
5
236
100
AcDbEntity
8
INTERIOR_PROFILES
100
AcDbCircle
10
2385.786
20
1253.524
30
0
40
1.700
0
CIRCLE
5
237
100
AcDbEntity
8
INTERIOR_PROFILES
100
AcDbCircle
10
2369.524
20
1189.262
30
0
40
1.700
0
CIRCLE
5
238
100
AcDbEntity
8
INTERIOR_PROFILES
100
AcDbCircle
10
1223.262
20
1253.524
30
0
40
1.700
0
CIRCLE
5
239
100
AcDbEntity
8
INTERIOR_PROFILES
100
AcDbCircle
10
1223.262
20
1430.274
30
0
40
6.500
0
CIRCLE
5
23A
100
AcDbEntity
8
INTERIOR_PROFILES
100
AcDbCircle
10
2385.786
20
1440.024
30
0
40
1.700
0
CIRCLE
5
23B
100
AcDbEntity
8
INTERIOR_PROFILES
100
AcDbCircle
10
1239.524
20
1189.262
30
0
40
1.700
0
CIRCLE
5
23C
100
AcDbEntity
8
INTERIOR_PROFILES
100
AcDbCircle
10
2385.786
20
1420.524
30
0
40
1.700
0
CIRCLE
5
23D
100
AcDbEntity
8
INTERIOR_PROFILES
100
AcDbCircle
10
2385.786
20
1209.024
30
0
40
1.700
0
TEXT
5
23E
100
AcDbEntity
8
PART_LABELS
100
AcDbText
10
1561.500
20
1495.000
30
0
40
15.000
1
2CF000-070000
72
1
11
1561.500
21
1495.000
31
0
100
AcDbText
73
2
0
LWPOLYLINE
5
23F
100
AcDbEntity
8
OUTER_PROFILES
100
AcDbPolyline
90
18
70
1
10
1209.000
20
1482.929
10
1209.000
20
1476.000
10
1913.524
20
1476.000
10
1913.524
20
1482.929
10
1911.029
20
1485.424
42
-0.414214
10
1911.029
20
1486.838
10
1913.524
20
1489.333
10
1913.524
20
1507.191
10
1911.029
20
1509.686
42
-0.414214
10
1911.029
20
1511.100
10
1913.453
20
1513.524
10
1209.071
20
1513.524
10
1211.495
20
1511.100
42
-0.414214
10
1211.495
20
1509.686
10
1209.000
20
1507.191
10
1209.000
20
1489.333
10
1211.495
20
1486.838
42
-0.414214
10
1211.495
20
1485.424
0
CIRCLE
5
240
100
AcDbEntity
8
INTERIOR_PROFILES
100
AcDbCircle
10
1661.262
20
1479.000
30
0
40
1.700
0
CIRCLE
5
241
100
AcDbEntity
8
INTERIOR_PROFILES
100
AcDbCircle
10
1861.262
20
1479.000
30
0
40
1.700
0
CIRCLE
5
242
100
AcDbEntity
8
INTERIOR_PROFILES
100
AcDbCircle
10
1761.262
20
1479.000
30
0
40
1.700
0
CIRCLE
5
243
100
AcDbEntity
8
INTERIOR_PROFILES
100
AcDbCircle
10
1561.262
20
1479.000
30
0
40
1.700
0
CIRCLE
5
244
100
AcDbEntity
8
INTERIOR_PROFILES
100
AcDbCircle
10
1261.262
20
1479.000
30
0
40
1.700
0
CIRCLE
5
245
100
AcDbEntity
8
INTERIOR_PROFILES
100
AcDbCircle
10
1361.262
20
1479.000
30
0
40
1.700
0
CIRCLE
5
246
100
AcDbEntity
8
INTERIOR_PROFILES
100
AcDbCircle
10
1461.262
20
1479.000
30
0
40
1.700
0
TEXT
5
247
100
AcDbEntity
8
PART_LABELS
100
AcDbText
10
2268.500
20
1495.000
30
0
40
15.000
1
2CF000-070000
72
1
11
2268.500
21
1495.000
31
0
100
AcDbText
73
2
0
LWPOLYLINE
5
248
100
AcDbEntity
8
OUTER_PROFILES
100
AcDbPolyline
90
18
70
1
10
1916.000
20
1482.929
10
1916.000
20
1476.000
10
2620.524
20
1476.000
10
2620.524
20
1482.929
10
2618.029
20
1485.424
42
-0.414214
10
2618.029
20
1486.838
10
2620.524
20
1489.333
10
2620.524
20
1507.191
10
2618.029
20
1509.686
42
-0.414214
10
2618.029
20
1511.100
10
2620.453
20
1513.524
10
1916.071
20
1513.524
10
1918.495
20
1511.100
42
-0.414214
10
1918.495
20
1509.686
10
1916.000
20
1507.191
10
1916.000
20
1489.333
10
1918.495
20
1486.838
42
-0.414214
10
1918.495
20
1485.424
0
CIRCLE
5
249
100
AcDbEntity
8
INTERIOR_PROFILES
100
AcDbCircle
10
2368.262
20
1479.000
30
0
40
1.700
0
CIRCLE
5
24A
100
AcDbEntity
8
INTERIOR_PROFILES
100
AcDbCircle
10
2568.262
20
1479.000
30
0
40
1.700
0
CIRCLE
5
24B
100
AcDbEntity
8
INTERIOR_PROFILES
100
AcDbCircle
10
2468.262
20
1479.000
30
0
40
1.700
0
CIRCLE
5
24C
100
AcDbEntity
8
INTERIOR_PROFILES
100
AcDbCircle
10
2268.262
20
1479.000
30
0
40
1.700
0
CIRCLE
5
24D
100
AcDbEntity
8
INTERIOR_PROFILES
100
AcDbCircle
10
1968.262
20
1479.000
30
0
40
1.700
0
CIRCLE
5
24E
100
AcDbEntity
8
INTERIOR_PROFILES
100
AcDbCircle
10
2068.262
20
1479.000
30
0
40
1.700
0
CIRCLE
5
24F
100
AcDbEntity
8
INTERIOR_PROFILES
100
AcDbCircle
10
2168.262
20
1479.000
30
0
40
1.700
0
ENDSEC
0
SECTION
2
OBJECTS
0
ENDSEC
0
EOF