0
SECTION
2
HEADER
9
$INSUNITS
70
4
0
ENDSEC
0
SECTION
2
ENTITIES
0
LWPOLYLINE
8
SHEET_BORDER
90
5
70
1
10
0.000
20
0.000
10
3050.000
20
0.000
10
3050.000
20
1525.000
10
0.000
20
1525.000
10
0.000
20
0.000
0
TEXT
8
PART_LABELS
10
311.500
20
242.000
30
0
40
50.000
1
2DN000-060000
72
1
73
2
11
311.500
21
242.000
31
0
0
CIRCLE
8
OUTER_PROFILES
10
41.262
20
459.734
30
0
40
1.250
0
CIRCLE
8
OUTER_PROFILES
10
581.262
20
459.734
30
0
40
1.250
0
CIRCLE
8
OUTER_PROFILES
10
36.262
20
3.000
30
0
40
1.700
0
CIRCLE
8
OUTER_PROFILES
10
311.262
20
3.000
30
0
40
1.700
0
CIRCLE
8
OUTER_PROFILES
10
211.262
20
3.000
30
0
40
1.700
0
CIRCLE
8
OUTER_PROFILES
10
411.262
20
3.000
30
0
40
1.700
0
CIRCLE
8
OUTER_PROFILES
10
111.262
20
3.000
30
0
40
1.700
0
CIRCLE
8
OUTER_PROFILES
10
511.262
20
3.000
30
0
40
1.700
0
CIRCLE
8
OUTER_PROFILES
10
5.500
20
200.048
30
0
40
4.500
0
CIRCLE
8
OUTER_PROFILES
10
5.500
20
355.048
30
0
40
4.500
0
CIRCLE
8
OUTER_PROFILES
10
3.000
20
432.548
30
0
40
1.700
0
CIRCLE
8
OUTER_PROFILES
10
3.000
20
122.548
30
0
40
1.700
0
CIRCLE
8
OUTER_PROFILES
10
3.000
20
277.548
30
0
40
1.700
0
CIRCLE
8
OUTER_PROFILES
10
311.262
20
75.048
30
0
40
1.700
0
CIRCLE
8
OUTER_PROFILES
10
20.262
20
98.048
30
0
40
1.700
0
CIRCLE
8
OUTER_PROFILES
10
20.262
20
432.048
30
0
40
1.700
0
CIRCLE
8
OUTER_PROFILES
10
602.262
20
451.548
30
0
40
1.700
0
CIRCLE
8
OUTER_PROFILES
10
602.262
20
78.548
30
0
40
1.700
0
CIRCLE
8
OUTER_PROFILES
10
602.262
20
265.048
30
0
40
1.700
0
CIRCLE
8
OUTER_PROFILES
10
20.262
20
451.548
30
0
40
1.700
0
CIRCLE
8
OUTER_PROFILES
10
111.262
20
75.048
30
0
40
1.700
0
CIRCLE
8
OUTER_PROFILES
10
411.262
20
75.048
30
0
40
1.700
0
CIRCLE
8
OUTER_PROFILES
10
511.262
20
75.048
30
0
40
1.700
0
CIRCLE
8
OUTER_PROFILES
10
20.262
20
78.548
30
0
40
1.700
0
CIRCLE
8
OUTER_PROFILES
10
20.262
20
441.798
30
0
40
6.500
0
CIRCLE
8
OUTER_PROFILES
10
602.262
20
432.048
30
0
40
1.700
0
CIRCLE
8
OUTER_PROFILES
10
602.262
20
98.048
30
0
40
1.700
0
CIRCLE
8
OUTER_PROFILES
10
602.262
20
441.798
30
0
40
6.500
0
CIRCLE
8
OUTER_PROFILES
10
20.262
20
265.048
30
0
40
1.700
0
CIRCLE
8
OUTER_PROFILES
10
211.262
20
75.048
30
0
40
1.700
0
ARC
8
OUTER_PROFILES
10
611.122
20
74.957
30
0
40
1.659
50
207.2793
51
284.0316
0
ARC
8
OUTER_PROFILES
10
611.210
20
75.037
30
0
40
1.774
50
110.3567
51
208.2441
0
ARC
8
OUTER_PROFILES
10
611.290
20
72.233
30
0
40
4.521
50
87.0326
51
98.8713
0
LINE
8
OUTER_PROFILES
10
611.524
20
76.748
30
0
11
611.524
21
73.348
31
0
0
CIRCLE
8
OUTER_PROFILES
10
619.524
20
277.548
30
0
40
1.700
0
CIRCLE
8
OUTER_PROFILES
10
619.524
20
122.548
30
0
40
1.700
0
CIRCLE
8
OUTER_PROFILES
10
619.524
20
432.548
30
0
40
1.700
0
CIRCLE
8
OUTER_PROFILES
10
617.024
20
355.048
30
0
40
4.500
0
CIRCLE
8
OUTER_PROFILES
10
617.024
20
200.048
30
0
40
4.500
0
CIRCLE
8
OUTER_PROFILES
10
46.262
20
50.786
30
0
40
1.700
0
CIRCLE
8
OUTER_PROFILES
10
530.262
20
50.786
30
0
40
1.700
0
CIRCLE
8
OUTER_PROFILES
10
20.262
20
50.786
30
0
40
1.700
0
CIRCLE
8
OUTER_PROFILES
10
602.262
20
50.786
30
0
40
1.700
0
CIRCLE
8
OUTER_PROFILES
10
92.262
20
50.786
30
0
40
1.700
0
CIRCLE
8
OUTER_PROFILES
10
576.262
20
50.786
30
0
40
1.700
0
CIRCLE
8
OUTER_PROFILES
10
311.262
20
473.496
30
0
40
8.750
0
LWPOLYLINE
8
OUTER_PROFILES
90
26
70
1
10
609.262
20
461.234
10
609.262
20
484.496
10
13.262
20
484.496
10
13.262
20
463.496
10
13.262
20
457.234
10
13.262
20
456.023
10
13.262
20
454.812
10
0.000
20
454.812
10
0.000
20
68.048
10
13.262
20
68.048
10
13.262
20
65.786
10
13.262
20
41.524
10
13.262
20
23.262
10
13.262
20
13.000
42
-0.414214
10
26.262
20
0.000
10
596.262
20
0.000
42
-0.414214
10
609.262
20
13.000
10
609.262
20
23.262
10
609.262
20
41.524
10
609.262
20
65.786
10
609.262
20
68.048
10
622.524
20
68.048
10
622.524
20
454.812
10
609.262
20
454.812
10
609.262
20
456.023
10
609.262
20
457.234
0
ENDSEC
0
EOF