0
SECTION
2
HEADER
9
$ACADVER
1
AC1015
9
$INSUNITS
70
4
9
$HANDSEED
5
FFFF
0
ENDSEC
0
SECTION
2
TABLES
0
TABLE
2
LTYPE
5
100
100
AcDbSymbolTable
70
1
0
LTYPE
5
101
100
AcDbSymbolTableRecord
100
AcDbLinetypeTableRecord
2
Continuous
70
0
3
Solid line
72
65
73
0
40
0.0
0
ENDTAB
0
TABLE
2
LAYER
5
102
100
AcDbSymbolTable
70
5
0
LAYER
5
103
100
AcDbSymbolTableRecord
100
AcDbLayerDefinition
2
0
70
0
62
7
6
Continuous
0
LAYER
5
104
100
AcDbSymbolTableRecord
100
AcDbLayerDefinition
2
SHEET_BORDER
70
0
62
7
6
Continuous
0
LAYER
5
105
100
AcDbSymbolTableRecord
100
AcDbLayerDefinition
2
PART_LABELS
70
0
62
7
6
Continuous
0
LAYER
5
106
100
AcDbSymbolTableRecord
100
AcDbLayerDefinition
2
OUTER_PROFILES
70
0
62
7
6
Continuous
0
LAYER
5
107
100
AcDbSymbolTableRecord
100
AcDbLayerDefinition
2
INTERIOR_PROFILES
70
0
62
7
6
Continuous
0
ENDTAB
0
TABLE
2
STYLE
5
108
100
AcDbSymbolTable
70
1
0
STYLE
5
109
100
AcDbSymbolTableRecord
100
AcDbTextStyleTableRecord
2
Standard
70
0
40
0
41
1
3
txt
0
ENDTAB
0
ENDSEC
0
SECTION
2
BLOCKS
0
BLOCK
5
10A
100
AcDbEntity
8
0
100
AcDbBlockBegin
2
*Model_Space
70
0
10
0
20
0
30
0
3
*Model_Space
1

0
ENDBLK
5
10B
100
AcDbEntity
8
0
100
AcDbBlockEnd
0
BLOCK
5
10C
100
AcDbEntity
8
0
100
AcDbBlockBegin
2
*Paper_Space
70
0
10
0
20
0
30
0
3
*Paper_Space
1

0
ENDBLK
5
10D
100
AcDbEntity
8
0
100
AcDbBlockEnd
0
ENDSEC
0
SECTION
2
ENTITIES
0
LWPOLYLINE
5
10E
100
AcDbEntity
8
SHEET_BORDER
100
AcDbPolyline
90
5
70
1
10
0.000
20
0.000
10
3050.000
20
0.000
10
3050.000
20
1525.000
10
0.000
20
1525.000
10
0.000
20
0.000
0
TEXT
5
10F
100
AcDbEntity
8
PART_LABELS
100
AcDbText
10
941.000
20
100.000
30
0
40
50.000
1
2SHSH4-190015
72
1
11
941.000
21
100.000
31
0
100
AcDbText
73
2
0
LWPOLYLINE
5
110
100
AcDbEntity
8
OUTER_PROFILES
100
AcDbPolyline
90
34
70
1
10
0.000
20
129.453
10
6.495
20
135.948
42
0.414214
10
6.495
20
137.362
10
0.000
20
143.857
10
0.000
20
153.715
10
6.495
20
160.210
42
0.414214
10
6.495
20
161.624
10
0.071
20
168.048
10
8.262
20
168.048
10
8.262
20
170.310
10
8.262
20
177.310
10
8.262
20
199.572
10
1873.262
20
199.572
10
1873.262
20
177.310
10
1873.262
20
170.310
10
1873.262
20
168.048
10
1881.453
20
168.048
10
1875.029
20
161.624
42
0.414214
10
1875.029
20
160.210
10
1881.524
20
153.715
10
1881.524
20
143.857
10
1875.029
20
137.362
42
0.414214
10
1875.029
20
135.948
10
1881.524
20
129.453
10
1881.524
20
31.524
10
1873.262
20
31.524
10
1873.262
20
29.262
10
1873.262
20
20.000
10
1873.262
20
0.000
10
8.262
20
0.000
10
8.262
20
22.262
10
8.262
20
29.262
10
8.262
20
31.524
10
0.000
20
31.524
0
CIRCLE
5
111
100
AcDbEntity
8
INTERIOR_PROFILES
100
AcDbCircle
10
640.762
20
189.572
30
0
40
1.700
0
CIRCLE
5
112
100
AcDbEntity
8
INTERIOR_PROFILES
100
AcDbCircle
10
1240.762
20
189.572
30
0
40
1.700
0
CIRCLE
5
113
100
AcDbEntity
8
INTERIOR_PROFILES
100
AcDbCircle
10
940.762
20
10.000
30
0
40
1.700
0
CIRCLE
5
114
100
AcDbEntity
8
INTERIOR_PROFILES
100
AcDbCircle
10
640.762
20
10.000
30
0
40
1.700
0
CIRCLE
5
115
100
AcDbEntity
8
INTERIOR_PROFILES
100
AcDbCircle
10
940.762
20
189.572
30
0
40
1.700
0
CIRCLE
5
116
100
AcDbEntity
8
INTERIOR_PROFILES
100
AcDbCircle
10
40.762
20
10.000
30
0
40
1.700
0
CIRCLE
5
117
100
AcDbEntity
8
INTERIOR_PROFILES
100
AcDbCircle
10
1840.762
20
189.572
30
0
40
1.700
0
CIRCLE
5
118
100
AcDbEntity
8
INTERIOR_PROFILES
100
AcDbCircle
10
1540.762
20
189.572
30
0
40
1.700
0
CIRCLE
5
119
100
AcDbEntity
8
INTERIOR_PROFILES
100
AcDbCircle
10
340.762
20
189.572
30
0
40
1.700
0
CIRCLE
5
11A
100
AcDbEntity
8
INTERIOR_PROFILES
100
AcDbCircle
10
40.762
20
189.572
30
0
40
1.700
0
CIRCLE
5
11B
100
AcDbEntity
8
INTERIOR_PROFILES
100
AcDbCircle
10
340.762
20
10.000
30
0
40
1.700
0
CIRCLE
5
11C
100
AcDbEntity
8
INTERIOR_PROFILES
100
AcDbCircle
10
1240.762
20
10.000
30
0
40
1.700
0
CIRCLE
5
11D
100
AcDbEntity
8
INTERIOR_PROFILES
100
AcDbCircle
10
1840.762
20
10.000
30
0
40
1.700
0
CIRCLE
5
11E
100
AcDbEntity
8
INTERIOR_PROFILES
100
AcDbCircle
10
1540.762
20
10.000
30
0
40
1.700
0
TEXT
5
11F
100
AcDbEntity
8
PART_LABELS
100
AcDbText
10
2250.500
20
241.500
30
0
40
50.000
1
2UPCN2-070000
72
1
11
2250.500
21
241.500
31
0
100
AcDbText
73
2
0
LWPOLYLINE
5
120
100
AcDbEntity
8
OUTER_PROFILES
100
AcDbPolyline
90
40
70
1
10
2229.262
20
285.310
10
2205.262
20
309.310
10
1902.262
20
309.310
10
1902.262
20
283.048
10
1884.000
20
283.048
10
1884.000
20
54.048
10
1902.262
20
54.048
10
1902.262
20
51.786
10
1902.262
20
44.786
10
1902.262
20
42.524
42
-1.000000
10
1902.262
20
23.524
10
1902.262
20
10.262
10
1902.262
20
0.000
10
2598.262
20
0.000
10
2598.262
20
10.262
10
2598.262
20
23.524
42
-1.000000
10
2598.262
20
42.524
10
2598.262
20
44.786
10
2598.262
20
51.786
10
2598.262
20
54.048
10
2616.524
20
54.048
10
2616.524
20
383.714
10
2600.524
20
425.048
10
2598.262
20
425.048
10
2598.262
20
427.310
10
2598.262
20
449.310
10
2598.262
20
457.572
10
2598.262
20
467.834
10
2598.262
20
470.096
42
-0.414214
10
2591.762
20
476.596
10
2591.762
20
483.096
10
2232.262
20
483.096
10
2232.262
20
425.048
10
2230.000
20
425.048
10
2206.000
20
363.048
10
2206.000
20
310.048
10
2230.000
20
286.048
10
2232.262
20
286.048
10
2232.262
20
283.048
10
2229.262
20
283.048
0
CIRCLE
5
121
100
AcDbEntity
8
INTERIOR_PROFILES
100
AcDbCircle
10
2150.262
20
276.048
30
0
40
1.700
0
CIRCLE
5
122
100
AcDbEntity
8
INTERIOR_PROFILES
100
AcDbCircle
10
1981.262
20
300.310
30
0
40
1.700
0
CIRCLE
5
123
100
AcDbEntity
8
INTERIOR_PROFILES
100
AcDbCircle
10
2591.262
20
395.048
30
0
40
1.700
0
CIRCLE
5
124
100
AcDbEntity
8
INTERIOR_PROFILES
100
AcDbCircle
10
2591.262
20
228.048
30
0
40
1.700
0
CIRCLE
5
125
100
AcDbEntity
8
INTERIOR_PROFILES
100
AcDbCircle
10
1950.262
20
276.048
30
0
40
1.700
0
CIRCLE
5
126
100
AcDbEntity
8
INTERIOR_PROFILES
100
AcDbCircle
10
1909.262
20
61.048
30
0
40
1.700
0
CIRCLE
5
127
100
AcDbEntity
8
INTERIOR_PROFILES
100
AcDbCircle
10
2591.262
20
61.048
30
0
40
1.700
0
CIRCLE
5
128
100
AcDbEntity
8
INTERIOR_PROFILES
100
AcDbCircle
10
2450.262
20
276.048
30
0
40
1.700
0
CIRCLE
5
129
100
AcDbEntity
8
INTERIOR_PROFILES
100
AcDbCircle
10
1909.262
20
300.310
30
0
40
1.700
0
CIRCLE
5
12A
100
AcDbEntity
8
INTERIOR_PROFILES
100
AcDbCircle
10
1909.262
20
228.048
30
0
40
1.700
0
CIRCLE
5
12B
100
AcDbEntity
8
INTERIOR_PROFILES
100
AcDbCircle
10
2250.262
20
276.048
30
0
40
1.700
0
CIRCLE
5
12C
100
AcDbEntity
8
INTERIOR_PROFILES
100
AcDbCircle
10
2050.262
20
276.048
30
0
40
1.700
0
CIRCLE
5
12D
100
AcDbEntity
8
INTERIOR_PROFILES
100
AcDbCircle
10
1934.262
20
300.310
30
0
40
1.700
0
CIRCLE
5
12E
100
AcDbEntity
8
INTERIOR_PROFILES
100
AcDbCircle
10
2550.262
20
276.048
30
0
40
1.700
0
CIRCLE
5
12F
100
AcDbEntity
8
INTERIOR_PROFILES
100
AcDbCircle
10
2350.262
20
276.048
30
0
40
1.700
0
CIRCLE
5
130
100
AcDbEntity
8
INTERIOR_PROFILES
100
AcDbCircle
10
2540.262
20
442.310
30
0
40
1.700
0
CIRCLE
5
131
100
AcDbEntity
8
INTERIOR_PROFILES
100
AcDbCircle
10
2050.262
20
3.000
30
0
40
1.700
0
CIRCLE
5
132
100
AcDbEntity
8
INTERIOR_PROFILES
100
AcDbCircle
10
2350.262
20
3.000
30
0
40
1.700
0
CIRCLE
5
133
100
AcDbEntity
8
INTERIOR_PROFILES
100
AcDbCircle
10
2350.262
20
480.096
30
0
40
1.700
0
CIRCLE
5
134
100
AcDbEntity
8
INTERIOR_PROFILES
100
AcDbCircle
10
2550.262
20
3.000
30
0
40
1.700
0
CIRCLE
5
135
100
AcDbEntity
8
INTERIOR_PROFILES
100
AcDbCircle
10
2566.262
20
442.310
30
0
40
1.700
0
CIRCLE
5
136
100
AcDbEntity
8
INTERIOR_PROFILES
100
AcDbCircle
10
2550.262
20
480.096
30
0
40
1.700
0
CIRCLE
5
137
100
AcDbEntity
8
INTERIOR_PROFILES
100
AcDbCircle
10
2350.262
20
33.024
30
0
40
1.700
0
CIRCLE
5
138
100
AcDbEntity
8
INTERIOR_PROFILES
100
AcDbCircle
10
2250.262
20
3.000
30
0
40
1.700
0
CIRCLE
5
139
100
AcDbEntity
8
INTERIOR_PROFILES
100
AcDbCircle
10
2250.262
20
33.024
30
0
40
1.700
0
CIRCLE
5
13A
100
AcDbEntity
8
INTERIOR_PROFILES
100
AcDbCircle
10
2450.262
20
480.096
30
0
40
1.700
0
CIRCLE
5
13B
100
AcDbEntity
8
INTERIOR_PROFILES
100
AcDbCircle
10
1950.262
20
3.000
30
0
40
1.700
0
CIRCLE
5
13C
100
AcDbEntity
8
INTERIOR_PROFILES
100
AcDbCircle
10
2591.262
20
414.548
30
0
40
1.700
0
CIRCLE
5
13D
100
AcDbEntity
8
INTERIOR_PROFILES
100
AcDbCircle
10
2591.262
20
442.310
30
0
40
1.700
0
CIRCLE
5
13E
100
AcDbEntity
8
INTERIOR_PROFILES
100
AcDbCircle
10
2519.262
20
442.310
30
0
40
1.700
0
CIRCLE
5
13F
100
AcDbEntity
8
INTERIOR_PROFILES
100
AcDbCircle
10
2450.262
20
3.000
30
0
40
1.700
0
CIRCLE
5
140
100
AcDbEntity
8
INTERIOR_PROFILES
100
AcDbCircle
10
2150.262
20
3.000
30
0
40
1.700
0
CIRCLE
5
141
100
AcDbEntity
8
INTERIOR_PROFILES
100
AcDbCircle
10
2494.262
20
442.310
30
0
40
1.700
0
CIRCLE
5
142
100
AcDbEntity
8
INTERIOR_PROFILES
100
AcDbCircle
10
2050.262
20
33.024
30
0
40
1.700
0
CIRCLE
5
143
100
AcDbEntity
8
INTERIOR_PROFILES
100
AcDbCircle
10
1950.262
20
33.024
30
0
40
1.700
0
CIRCLE
5
144
100
AcDbEntity
8
INTERIOR_PROFILES
100
AcDbCircle
10
2550.262
20
33.024
30
0
40
1.700
0
CIRCLE
5
145
100
AcDbEntity
8
INTERIOR_PROFILES
100
AcDbCircle
10
2150.262
20
33.024
30
0
40
1.700
0
CIRCLE
5
146
100
AcDbEntity
8
INTERIOR_PROFILES
100
AcDbCircle
10
2450.262
20
33.024
30
0
40
1.700
0
CIRCLE
5
147
100
AcDbEntity
8
INTERIOR_PROFILES
100
AcDbCircle
10
2250.262
20
480.096
30
0
40
1.700
0
CIRCLE
5
148
100
AcDbEntity
8
INTERIOR_PROFILES
100
AcDbCircle
10
2613.524
20
60.548
30
0
40
1.700
0
CIRCLE
5
149
100
AcDbEntity
8
INTERIOR_PROFILES
100
AcDbCircle
10
1887.000
20
60.548
30
0
40
1.700
0
CIRCLE
5
14A
100
AcDbEntity
8
INTERIOR_PROFILES
100
AcDbCircle
10
2613.524
20
215.548
30
0
40
1.700
0
CIRCLE
5
14B
100
AcDbEntity
8
INTERIOR_PROFILES
100
AcDbCircle
10
1887.000
20
215.548
30
0
40
1.700
0
CIRCLE
5
14C
100
AcDbEntity
8
INTERIOR_PROFILES
100
AcDbCircle
10
2613.524
20
370.548
30
0
40
1.700
0
TEXT
5
14D
100
AcDbEntity
8
PART_LABELS
100
AcDbText
10
366.500
20
443.500
30
0
40
50.000
1
2UPLL0-070043
72
1
11
366.500
21
443.500
31
0
100
AcDbText
73
2
0
LWPOLYLINE
5
14E
100
AcDbEntity
8
OUTER_PROFILES
100
AcDbPolyline
90
36
70
1
10
714.262
20
225.524
42
-1.000000
10
714.262
20
244.524
10
714.262
20
246.786
10
714.262
20
253.786
10
714.262
20
256.048
10
732.524
20
256.048
10
732.524
20
585.714
10
716.524
20
627.048
10
714.262
20
627.048
10
714.262
20
629.310
10
714.262
20
651.310
10
714.262
20
659.572
10
714.262
20
669.834
10
714.262
20
672.096
42
-0.414214
10
707.762
20
678.596
10
707.762
20
685.096
10
24.762
20
685.096
10
24.762
20
678.596
42
-0.414214
10
18.262
20
672.096
10
18.262
20
669.834
10
18.262
20
659.572
10
18.262
20
651.310
10
18.262
20
629.310
10
18.262
20
627.048
10
16.000
20
627.048
10
0.000
20
585.714
10
0.000
20
256.048
10
18.262
20
256.048
10
18.262
20
253.786
10
18.262
20
246.786
10
18.262
20
244.524
42
-1.000000
10
18.262
20
225.524
10
18.262
20
212.262
10
18.262
20
202.000
10
714.262
20
202.000
10
714.262
20
212.262
0
CIRCLE
5
14F
100
AcDbEntity
8
INTERIOR_PROFILES
100
AcDbCircle
10
707.262
20
430.048
30
0
40
1.700
0
CIRCLE
5
150
100
AcDbEntity
8
INTERIOR_PROFILES
100
AcDbCircle
10
459.262
20
263.048
30
0
40
1.700
0
CIRCLE
5
151
100
AcDbEntity
8
INTERIOR_PROFILES
100
AcDbCircle
10
566.262
20
620.048
30
0
40
1.700
0
CIRCLE
5
152
100
AcDbEntity
8
INTERIOR_PROFILES
100
AcDbCircle
10
366.262
20
620.048
30
0
40
1.700
0
CIRCLE
5
153
100
AcDbEntity
8
INTERIOR_PROFILES
100
AcDbCircle
10
496.262
20
258.048
30
0
40
1.700
0
CIRCLE
5
154
100
AcDbEntity
8
INTERIOR_PROFILES
100
AcDbCircle
10
477.262
20
281.048
30
0
40
1.700
0
CIRCLE
5
155
100
AcDbEntity
8
INTERIOR_PROFILES
100
AcDbCircle
10
477.262
20
263.048
30
0
40
1.700
0
CIRCLE
5
156
100
AcDbEntity
8
INTERIOR_PROFILES
100
AcDbCircle
10
646.262
20
258.048
30
0
40
1.700
0
CIRCLE
5
157
100
AcDbEntity
8
INTERIOR_PROFILES
100
AcDbCircle
10
76.262
20
644.310
30
0
40
1.700
0
CIRCLE
5
158
100
AcDbEntity
8
INTERIOR_PROFILES
100
AcDbCircle
10
610.262
20
644.310
30
0
40
1.700
0
CIRCLE
5
159
100
AcDbEntity
8
INTERIOR_PROFILES
100
AcDbCircle
10
25.262
20
616.548
30
0
40
1.700
0
CIRCLE
5
15A
100
AcDbEntity
8
INTERIOR_PROFILES
100
AcDbCircle
10
25.262
20
430.048
30
0
40
1.700
0
CIRCLE
5
15B
100
AcDbEntity
8
INTERIOR_PROFILES
100
AcDbCircle
10
707.262
20
644.310
30
0
40
1.700
0
CIRCLE
5
15C
100
AcDbEntity
8
INTERIOR_PROFILES
100
AcDbCircle
10
25.262
20
644.310
30
0
40
1.700
0
CIRCLE
5
15D
100
AcDbEntity
8
INTERIOR_PROFILES
100
AcDbCircle
10
459.262
20
281.048
30
0
40
1.700
0
CIRCLE
5
15E
100
AcDbEntity
8
INTERIOR_PROFILES
100
AcDbCircle
10
707.262
20
616.548
30
0
40
1.700
0
CIRCLE
5
15F
100
AcDbEntity
8
INTERIOR_PROFILES
100
AcDbCircle
10
696.262
20
258.048
30
0
40
1.700
0
CIRCLE
5
160
100
AcDbEntity
8
INTERIOR_PROFILES
100
AcDbCircle
10
97.262
20
644.310
30
0
40
1.700
0
CIRCLE
5
161
100
AcDbEntity
8
INTERIOR_PROFILES
100
AcDbCircle
10
546.262
20
258.048
30
0
40
1.700
0
CIRCLE
5
162
100
AcDbEntity
8
INTERIOR_PROFILES
100
AcDbCircle
10
707.262
20
263.048
30
0
40
1.700
0
CIRCLE
5
163
100
AcDbEntity
8
INTERIOR_PROFILES
100
AcDbCircle
10
50.262
20
644.310
30
0
40
1.700
0
CIRCLE
5
164
100
AcDbEntity
8
INTERIOR_PROFILES
100
AcDbCircle
10
656.262
20
644.310
30
0
40
1.700
0
CIRCLE
5
165
100
AcDbEntity
8
INTERIOR_PROFILES
100
AcDbCircle
10
166.262
20
620.048
30
0
40
1.700
0
CIRCLE
5
166
100
AcDbEntity
8
INTERIOR_PROFILES
100
AcDbCircle
10
122.262
20
644.310
30
0
40
1.700
0
CIRCLE
5
167
100
AcDbEntity
8
INTERIOR_PROFILES
100
AcDbCircle
10
682.262
20
644.310
30
0
40
1.700
0
CIRCLE
5
168
100
AcDbEntity
8
INTERIOR_PROFILES
100
AcDbCircle
10
596.262
20
258.048
30
0
40
1.700
0
CIRCLE
5
169
100
AcDbEntity
8
INTERIOR_PROFILES
100
AcDbCircle
10
25.262
20
263.048
30
0
40
1.700
0
CIRCLE
5
16A
100
AcDbEntity
8
INTERIOR_PROFILES
100
AcDbCircle
10
635.262
20
644.310
30
0
40
1.700
0
CIRCLE
5
16B
100
AcDbEntity
8
INTERIOR_PROFILES
100
AcDbCircle
10
707.262
20
597.048
30
0
40
1.700
0
CIRCLE
5
16C
100
AcDbEntity
8
INTERIOR_PROFILES
100
AcDbCircle
10
25.262
20
597.048
30
0
40
1.700
0
CIRCLE
5
16D
100
AcDbEntity
8
INTERIOR_PROFILES
100
AcDbCircle
10
566.262
20
205.000
30
0
40
1.700
0
CIRCLE
5
16E
100
AcDbEntity
8
INTERIOR_PROFILES
100
AcDbCircle
10
66.262
20
682.096
30
0
40
1.700
0
CIRCLE
5
16F
100
AcDbEntity
8
INTERIOR_PROFILES
100
AcDbCircle
10
466.262
20
682.096
30
0
40
1.700
0
CIRCLE
5
170
100
AcDbEntity
8
INTERIOR_PROFILES
100
AcDbCircle
10
666.262
20
682.096
30
0
40
1.700
0
CIRCLE
5
171
100
AcDbEntity
8
INTERIOR_PROFILES
100
AcDbCircle
10
266.262
20
682.096
30
0
40
1.700
0
CIRCLE
5
172
100
AcDbEntity
8
INTERIOR_PROFILES
100
AcDbCircle
10
166.262
20
235.024
30
0
40
1.700
0
CIRCLE
5
173
100
AcDbEntity
8
INTERIOR_PROFILES
100
AcDbCircle
10
366.262
20
205.000
30
0
40
1.700
0
CIRCLE
5
174
100
AcDbEntity
8
INTERIOR_PROFILES
100
AcDbCircle
10
166.262
20
682.096
30
0
40
1.700
0
CIRCLE
5
175
100
AcDbEntity
8
INTERIOR_PROFILES
100
AcDbCircle
10
666.262
20
235.024
30
0
40
1.700
0
CIRCLE
5
176
100
AcDbEntity
8
INTERIOR_PROFILES
100
AcDbCircle
10
466.262
20
620.048
30
0
40
1.700
0
CIRCLE
5
177
100
AcDbEntity
8
INTERIOR_PROFILES
100
AcDbCircle
10
66.262
20
205.000
30
0
40
1.700
0
CIRCLE
5
178
100
AcDbEntity
8
INTERIOR_PROFILES
100
AcDbCircle
10
366.262
20
235.024
30
0
40
1.700
0
CIRCLE
5
179
100
AcDbEntity
8
INTERIOR_PROFILES
100
AcDbCircle
10
466.262
20
205.000
30
0
40
1.700
0
CIRCLE
5
17A
100
AcDbEntity
8
INTERIOR_PROFILES
100
AcDbCircle
10
666.262
20
205.000
30
0
40
1.700
0
CIRCLE
5
17B
100
AcDbEntity
8
INTERIOR_PROFILES
100
AcDbCircle
10
466.262
20
235.024
30
0
40
1.700
0
CIRCLE
5
17C
100
AcDbEntity
8
INTERIOR_PROFILES
100
AcDbCircle
10
566.262
20
682.096
30
0
40
1.700
0
CIRCLE
5
17D
100
AcDbEntity
8
INTERIOR_PROFILES
100
AcDbCircle
10
666.262
20
620.048
30
0
40
1.700
0
CIRCLE
5
17E
100
AcDbEntity
8
INTERIOR_PROFILES
100
AcDbCircle
10
266.262
20
235.024
30
0
40
1.700
0
CIRCLE
5
17F
100
AcDbEntity
8
INTERIOR_PROFILES
100
AcDbCircle
10
166.262
20
205.000
30
0
40
1.700
0
CIRCLE
5
180
100
AcDbEntity
8
INTERIOR_PROFILES
100
AcDbCircle
10
66.262
20
235.024
30
0
40
1.700
0
CIRCLE
5
181
100
AcDbEntity
8
INTERIOR_PROFILES
100
AcDbCircle
10
266.262
20
205.000
30
0
40
1.700
0
CIRCLE
5
182
100
AcDbEntity
8
INTERIOR_PROFILES
100
AcDbCircle
10
66.262
20
620.048
30
0
40
1.700
0
CIRCLE
5
183
100
AcDbEntity
8
INTERIOR_PROFILES
100
AcDbCircle
10
266.262
20
620.048
30
0
40
1.700
0
CIRCLE
5
184
100
AcDbEntity
8
INTERIOR_PROFILES
100
AcDbCircle
10
366.262
20
682.096
30
0
40
1.700
0
CIRCLE
5
185
100
AcDbEntity
8
INTERIOR_PROFILES
100
AcDbCircle
10
566.262
20
235.024
30
0
40
1.700
0
CIRCLE
5
186
100
AcDbEntity
8
INTERIOR_PROFILES
100
AcDbCircle
10
729.524
20
417.548
30
0
40
1.700
0
CIRCLE
5
187
100
AcDbEntity
8
INTERIOR_PROFILES
100
AcDbCircle
10
3.000
20
417.548
30
0
40
1.700
0
CIRCLE
5
188
100
AcDbEntity
8
INTERIOR_PROFILES
100
AcDbCircle
10
3.000
20
572.548
30
0
40
1.700
0
CIRCLE
5
189
100
AcDbEntity
8
INTERIOR_PROFILES
100
AcDbCircle
10
729.524
20
262.548
30
0
40
1.700
0
CIRCLE
5
18A
100
AcDbEntity
8
INTERIOR_PROFILES
100
AcDbCircle
10
729.524
20
572.548
30
0
40
1.700
0
CIRCLE
5
18B
100
AcDbEntity
8
INTERIOR_PROFILES
100
AcDbCircle
10
3.000
20
262.548
30
0
40
1.700
0
TEXT
5
18C
100
AcDbEntity
8
PART_LABELS
100
AcDbText
10
1096.500
20
444.000
30
0
40
50.000
1
2DN000-070000
72
1
11
1096.500
21
444.000
31
0
100
AcDbText
73
2
0
LWPOLYLINE
5
18D
100
AcDbEntity
8
OUTER_PROFILES
100
AcDbPolyline
90
26
70
1
10
748.262
20
656.812
10
735.000
20
656.812
10
735.000
20
270.048
10
748.262
20
270.048
10
748.262
20
267.786
10
748.262
20
243.524
10
748.262
20
225.262
10
748.262
20
215.000
42
-0.414214
10
761.262
20
202.000
10
1431.262
20
202.000
42
-0.414214
10
1444.262
20
215.000
10
1444.262
20
225.262
10
1444.262
20
243.524
10
1444.262
20
267.786
10
1444.262
20
270.048
10
1457.524
20
270.048
10
1457.524
20
656.812
10
1444.262
20
656.812
10
1444.262
20
658.023
10
1444.262
20
659.234
10
1444.262
20
663.234
10
1444.262
20
686.496
10
748.262
20
686.496
10
748.262
20
665.496
10
748.262
20
659.234
10
748.262
20
658.023
0
CIRCLE
5
18E
100
AcDbEntity
8
INTERIOR_PROFILES
100
AcDbCircle
10
755.262
20
467.048
30
0
40
1.700
0
CIRCLE
5
18F
100
AcDbEntity
8
INTERIOR_PROFILES
100
AcDbCircle
10
776.262
20
661.734
30
0
40
1.250
0
CIRCLE
5
190
100
AcDbEntity
8
INTERIOR_PROFILES
100
AcDbCircle
10
755.262
20
643.798
30
0
40
6.500
0
CIRCLE
5
191
100
AcDbEntity
8
INTERIOR_PROFILES
100
AcDbCircle
10
1437.262
20
634.048
30
0
40
1.700
0
CIRCLE
5
192
100
AcDbEntity
8
INTERIOR_PROFILES
100
AcDbCircle
10
755.262
20
280.548
30
0
40
1.700
0
CIRCLE
5
193
100
AcDbEntity
8
INTERIOR_PROFILES
100
AcDbCircle
10
1437.262
20
300.048
30
0
40
1.700
0
CIRCLE
5
194
100
AcDbEntity
8
INTERIOR_PROFILES
100
AcDbCircle
10
1437.262
20
643.798
30
0
40
6.500
0
CIRCLE
5
195
100
AcDbEntity
8
INTERIOR_PROFILES
100
AcDbCircle
10
1196.262
20
277.048
30
0
40
1.700
0
CIRCLE
5
196
100
AcDbEntity
8
INTERIOR_PROFILES
100
AcDbCircle
10
1296.262
20
277.048
30
0
40
1.700
0
CIRCLE
5
197
100
AcDbEntity
8
INTERIOR_PROFILES
100
AcDbCircle
10
827.262
20
252.786
30
0
40
1.700
0
CIRCLE
5
198
100
AcDbEntity
8
INTERIOR_PROFILES
100
AcDbCircle
10
1411.262
20
252.786
30
0
40
1.700
0
CIRCLE
5
199
100
AcDbEntity
8
INTERIOR_PROFILES
100
AcDbCircle
10
1437.262
20
252.786
30
0
40
1.700
0
CIRCLE
5
19A
100
AcDbEntity
8
INTERIOR_PROFILES
100
AcDbCircle
10
755.262
20
252.786
30
0
40
1.700
0
CIRCLE
5
19B
100
AcDbEntity
8
INTERIOR_PROFILES
100
AcDbCircle
10
781.262
20
252.786
30
0
40
1.700
0
CIRCLE
5
19C
100
AcDbEntity
8
INTERIOR_PROFILES
100
AcDbCircle
10
771.262
20
205.000
30
0
40
1.700
0
CIRCLE
5
19D
100
AcDbEntity
8
INTERIOR_PROFILES
100
AcDbCircle
10
1365.262
20
252.786
30
0
40
1.700
0
CIRCLE
5
19E
100
AcDbEntity
8
INTERIOR_PROFILES
100
AcDbCircle
10
1421.262
20
205.000
30
0
40
1.700
0
CIRCLE
5
19F
100
AcDbEntity
8
INTERIOR_PROFILES
100
AcDbCircle
10
1196.262
20
205.000
30
0
40
1.700
0
CIRCLE
5
1A0
100
AcDbEntity
8
INTERIOR_PROFILES
100
AcDbCircle
10
796.262
20
205.000
30
0
40
1.700
0
CIRCLE
5
1A1
100
AcDbEntity
8
INTERIOR_PROFILES
100
AcDbCircle
10
996.262
20
205.000
30
0
40
1.700
0
CIRCLE
5
1A2
100
AcDbEntity
8
INTERIOR_PROFILES
100
AcDbCircle
10
1096.262
20
205.000
30
0
40
1.700
0
CIRCLE
5
1A3
100
AcDbEntity
8
INTERIOR_PROFILES
100
AcDbCircle
10
896.262
20
205.000
30
0
40
1.700
0
CIRCLE
5
1A4
100
AcDbEntity
8
INTERIOR_PROFILES
100
AcDbCircle
10
740.500
20
402.048
30
0
40
4.500
0
CIRCLE
5
1A5
100
AcDbEntity
8
INTERIOR_PROFILES
100
AcDbCircle
10
1296.262
20
205.000
30
0
40
1.700
0
CIRCLE
5
1A6
100
AcDbEntity
8
INTERIOR_PROFILES
100
AcDbCircle
10
1452.024
20
557.048
30
0
40
4.500
0
CIRCLE
5
1A7
100
AcDbEntity
8
INTERIOR_PROFILES
100
AcDbCircle
10
740.500
20
557.048
30
0
40
4.500
0
CIRCLE
5
1A8
100
AcDbEntity
8
INTERIOR_PROFILES
100
AcDbCircle
10
1452.024
20
402.048
30
0
40
4.500
0
CIRCLE
5
1A9
100
AcDbEntity
8
INTERIOR_PROFILES
100
AcDbCircle
10
1396.262
20
205.000
30
0
40
1.700
0
CIRCLE
5
1AA
100
AcDbEntity
8
INTERIOR_PROFILES
100
AcDbCircle
10
738.000
20
479.548
30
0
40
1.700
0
CIRCLE
5
1AB
100
AcDbEntity
8
INTERIOR_PROFILES
100
AcDbCircle
10
738.000
20
634.548
30
0
40
1.700
0
CIRCLE
5
1AC
100
AcDbEntity
8
INTERIOR_PROFILES
100
AcDbCircle
10
738.000
20
324.548
30
0
40
1.700
0
CIRCLE
5
1AD
100
AcDbEntity
8
INTERIOR_PROFILES
100
AcDbCircle
10
1454.524
20
324.548
30
0
40
1.700
0
CIRCLE
5
1AE
100
AcDbEntity
8
INTERIOR_PROFILES
100
AcDbCircle
10
1454.524
20
634.548
30
0
40
1.700
0
CIRCLE
5
1AF
100
AcDbEntity
8
INTERIOR_PROFILES
100
AcDbCircle
10
996.262
20
277.048
30
0
40
1.700
0
CIRCLE
5
1B0
100
AcDbEntity
8
INTERIOR_PROFILES
100
AcDbCircle
10
1454.524
20
479.548
30
0
40
1.700
0
CIRCLE
5
1B1
100
AcDbEntity
8
INTERIOR_PROFILES
100
AcDbCircle
10
1096.262
20
675.496
30
0
40
8.750
0
CIRCLE
5
1B2
100
AcDbEntity
8
INTERIOR_PROFILES
100
AcDbCircle
10
796.262
20
277.048
30
0
40
1.700
0
CIRCLE
5
1B3
100
AcDbEntity
8
INTERIOR_PROFILES
100
AcDbCircle
10
1437.262
20
653.548
30
0
40
1.700
0
CIRCLE
5
1B4
100
AcDbEntity
8
INTERIOR_PROFILES
100
AcDbCircle
10
1437.262
20
467.048
30
0
40
1.700
0
CIRCLE
5
1B5
100
AcDbEntity
8
INTERIOR_PROFILES
100
AcDbCircle
10
755.262
20
653.548
30
0
40
1.700
0
CIRCLE
5
1B6
100
AcDbEntity
8
INTERIOR_PROFILES
100
AcDbCircle
10
1416.262
20
661.734
30
0
40
1.250
0
CIRCLE
5
1B7
100
AcDbEntity
8
INTERIOR_PROFILES
100
AcDbCircle
10
1437.262
20
280.548
30
0
40
1.700
0
CIRCLE
5
1B8
100
AcDbEntity
8
INTERIOR_PROFILES
100
AcDbCircle
10
755.262
20
634.048
30
0
40
1.700
0
CIRCLE
5
1B9
100
AcDbEntity
8
INTERIOR_PROFILES
100
AcDbCircle
10
755.262
20
300.048
30
0
40
1.700
0
CIRCLE
5
1BA
100
AcDbEntity
8
INTERIOR_PROFILES
100
AcDbCircle
10
1096.262
20
277.048
30
0
40
1.700
0
CIRCLE
5
1BB
100
AcDbEntity
8
INTERIOR_PROFILES
100
AcDbCircle
10
1396.262
20
277.048
30
0
40
1.700
0
CIRCLE
5
1BC
100
AcDbEntity
8
INTERIOR_PROFILES
100
AcDbCircle
10
896.262
20
277.048
30
0
40
1.700
0
TEXT
5
1BD
100
AcDbEntity
8
PART_LABELS
100
AcDbText
10
1821.500
20
727.000
30
0
40
50.000
1
2DNCL2-070000
72
1
11
1821.500
21
727.000
31
0
100
AcDbText
73
2
0
LWPOLYLINE
5
1BE
100
AcDbEntity
8
OUTER_PROFILES
100
AcDbPolyline
90
32
70
1
10
1777.000
20
668.048
10
1801.000
20
692.048
10
1803.262
20
692.048
10
1803.262
20
695.048
10
1800.262
20
695.048
10
1800.262
20
692.786
10
1776.262
20
668.786
10
1473.262
20
668.786
10
1473.262
20
695.048
10
1460.000
20
695.048
10
1460.000
20
939.812
10
1473.262
20
939.812
10
1473.262
20
941.023
10
1473.262
20
942.234
10
1473.262
20
948.496
10
1473.262
20
969.496
10
2169.262
20
969.496
10
2169.262
20
946.234
10
2169.262
20
942.234
10
2169.262
20
941.023
10
2169.262
20
939.812
10
2182.524
20
939.812
10
2182.524
20
553.048
10
2169.262
20
553.048
10
2169.262
20
550.786
10
2169.262
20
526.524
10
2169.262
20
508.262
10
2169.262
20
498.000
42
0.414214
10
2156.262
20
485.000
10
1803.262
20
485.000
10
1803.262
20
553.048
10
1777.000
20
553.048
0
CIRCLE
5
1BF
100
AcDbEntity
8
INTERIOR_PROFILES
100
AcDbCircle
10
1480.262
20
677.786
30
0
40
1.700
0
CIRCLE
5
1C0
100
AcDbEntity
8
INTERIOR_PROFILES
100
AcDbCircle
10
2021.262
20
702.048
30
0
40
1.700
0
CIRCLE
5
1C1
100
AcDbEntity
8
INTERIOR_PROFILES
100
AcDbCircle
10
1921.262
20
702.048
30
0
40
1.700
0
CIRCLE
5
1C2
100
AcDbEntity
8
INTERIOR_PROFILES
100
AcDbCircle
10
1552.262
20
677.786
30
0
40
1.700
0
CIRCLE
5
1C3
100
AcDbEntity
8
INTERIOR_PROFILES
100
AcDbCircle
10
2121.262
20
702.048
30
0
40
1.700
0
CIRCLE
5
1C4
100
AcDbEntity
8
INTERIOR_PROFILES
100
AcDbCircle
10
1506.262
20
677.786
30
0
40
1.700
0
CIRCLE
5
1C5
100
AcDbEntity
8
INTERIOR_PROFILES
100
AcDbCircle
10
1521.262
20
702.048
30
0
40
1.700
0
CIRCLE
5
1C6
100
AcDbEntity
8
INTERIOR_PROFILES
100
AcDbCircle
10
1821.262
20
702.048
30
0
40
1.700
0
CIRCLE
5
1C7
100
AcDbEntity
8
INTERIOR_PROFILES
100
AcDbCircle
10
1621.262
20
702.048
30
0
40
1.700
0
CIRCLE
5
1C8
100
AcDbEntity
8
INTERIOR_PROFILES
100
AcDbCircle
10
1721.262
20
702.048
30
0
40
1.700
0
CIRCLE
5
1C9
100
AcDbEntity
8
INTERIOR_PROFILES
100
AcDbCircle
10
2162.262
20
535.786
30
0
40
1.700
0
CIRCLE
5
1CA
100
AcDbEntity
8
INTERIOR_PROFILES
100
AcDbCircle
10
2121.262
20
488.000
30
0
40
1.700
0
CIRCLE
5
1CB
100
AcDbEntity
8
INTERIOR_PROFILES
100
AcDbCircle
10
2090.262
20
535.786
30
0
40
1.700
0
CIRCLE
5
1CC
100
AcDbEntity
8
INTERIOR_PROFILES
100
AcDbCircle
10
2136.262
20
535.786
30
0
40
1.700
0
CIRCLE
5
1CD
100
AcDbEntity
8
INTERIOR_PROFILES
100
AcDbCircle
10
1821.262
20
488.000
30
0
40
1.700
0
CIRCLE
5
1CE
100
AcDbEntity
8
INTERIOR_PROFILES
100
AcDbCircle
10
2021.262
20
488.000
30
0
40
1.700
0
CIRCLE
5
1CF
100
AcDbEntity
8
INTERIOR_PROFILES
100
AcDbCircle
10
2177.024
20
685.048
30
0
40
4.500
0
CIRCLE
5
1D0
100
AcDbEntity
8
INTERIOR_PROFILES
100
AcDbCircle
10
1465.500
20
840.048
30
0
40
4.500
0
CIRCLE
5
1D1
100
AcDbEntity
8
INTERIOR_PROFILES
100
AcDbCircle
10
2146.262
20
488.000
30
0
40
1.700
0
CIRCLE
5
1D2
100
AcDbEntity
8
INTERIOR_PROFILES
100
AcDbCircle
10
1921.262
20
488.000
30
0
40
1.700
0
CIRCLE
5
1D3
100
AcDbEntity
8
INTERIOR_PROFILES
100
AcDbCircle
10
1463.000
20
762.548
30
0
40
1.700
0
CIRCLE
5
1D4
100
AcDbEntity
8
INTERIOR_PROFILES
100
AcDbCircle
10
1463.000
20
917.548
30
0
40
1.700
0
CIRCLE
5
1D5
100
AcDbEntity
8
INTERIOR_PROFILES
100
AcDbCircle
10
2162.262
20
750.048
30
0
40
1.700
0
CIRCLE
5
1D6
100
AcDbEntity
8
INTERIOR_PROFILES
100
AcDbCircle
10
2141.262
20
944.734
30
0
40
1.250
0
CIRCLE
5
1D7
100
AcDbEntity
8
INTERIOR_PROFILES
100
AcDbCircle
10
2162.262
20
936.548
30
0
40
1.700
0
CIRCLE
5
1D8
100
AcDbEntity
8
INTERIOR_PROFILES
100
AcDbCircle
10
2179.524
20
917.548
30
0
40
1.700
0
CIRCLE
5
1D9
100
AcDbEntity
8
INTERIOR_PROFILES
100
AcDbCircle
10
1821.262
20
958.496
30
0
40
8.750
0
CIRCLE
5
1DA
100
AcDbEntity
8
INTERIOR_PROFILES
100
AcDbCircle
10
2177.024
20
840.048
30
0
40
4.500
0
CIRCLE
5
1DB
100
AcDbEntity
8
INTERIOR_PROFILES
100
AcDbCircle
10
2162.262
20
563.548
30
0
40
1.700
0
CIRCLE
5
1DC
100
AcDbEntity
8
INTERIOR_PROFILES
100
AcDbCircle
10
2179.524
20
762.548
30
0
40
1.700
0
CIRCLE
5
1DD
100
AcDbEntity
8
INTERIOR_PROFILES
100
AcDbCircle
10
1480.262
20
936.548
30
0
40
1.700
0
CIRCLE
5
1DE
100
AcDbEntity
8
INTERIOR_PROFILES
100
AcDbCircle
10
2179.524
20
607.548
30
0
40
1.700
0
CIRCLE
5
1DF
100
AcDbEntity
8
INTERIOR_PROFILES
100
AcDbCircle
10
1480.262
20
926.798
30
0
40
6.500
0
CIRCLE
5
1E0
100
AcDbEntity
8
INTERIOR_PROFILES
100
AcDbCircle
10
1821.262
20
560.048
30
0
40
1.700
0
CIRCLE
5
1E1
100
AcDbEntity
8
INTERIOR_PROFILES
100
AcDbCircle
10
2162.262
20
583.048
30
0
40
1.700
0
CIRCLE
5
1E2
100
AcDbEntity
8
INTERIOR_PROFILES
100
AcDbCircle
10
2162.262
20
926.798
30
0
40
6.500
0
CIRCLE
5
1E3
100
AcDbEntity
8
INTERIOR_PROFILES
100
AcDbCircle
10
1921.262
20
560.048
30
0
40
1.700
0
CIRCLE
5
1E4
100
AcDbEntity
8
INTERIOR_PROFILES
100
AcDbCircle
10
2162.262
20
917.048
30
0
40
1.700
0
CIRCLE
5
1E5
100
AcDbEntity
8
INTERIOR_PROFILES
100
AcDbCircle
10
1480.262
20
750.048
30
0
40
1.700
0
CIRCLE
5
1E6
100
AcDbEntity
8
INTERIOR_PROFILES
100
AcDbCircle
10
1501.262
20
944.734
30
0
40
1.250
0
CIRCLE
5
1E7
100
AcDbEntity
8
INTERIOR_PROFILES
100
AcDbCircle
10
2121.262
20
560.048
30
0
40
1.700
0
CIRCLE
5
1E8
100
AcDbEntity
8
INTERIOR_PROFILES
100
AcDbCircle
10
2021.262
20
560.048
30
0
40
1.700
0
CIRCLE
5
1E9
100
AcDbEntity
8
INTERIOR_PROFILES
100
AcDbCircle
10
1480.262
20
917.048
30
0
40
1.700
0
TEXT
5
1EA
100
AcDbEntity
8
PART_LABELS
100
AcDbText
10
2546.500
20
727.000
30
0
40
50.000
1
2DNCR0-070043
72
1
11
2546.500
21
727.000
31
0
100
AcDbText
73
2
0
LWPOLYLINE
5
1EB
100
AcDbEntity
8
OUTER_PROFILES
100
AcDbPolyline
90
27
70
1
10
2198.262
20
942.234
10
2198.262
20
948.496
10
2198.262
20
969.496
10
2867.662
20
969.496
10
2867.662
20
946.234
10
2894.262
20
946.234
10
2894.262
20
942.234
10
2894.262
20
941.023
10
2894.262
20
939.812
10
2907.524
20
939.812
10
2907.524
20
553.048
10
2894.262
20
553.048
10
2894.262
20
550.786
10
2894.262
20
526.524
10
2894.262
20
508.262
10
2894.262
20
498.000
42
0.414214
10
2881.262
20
485.000
10
2211.262
20
485.000
42
0.414214
10
2198.262
20
498.000
10
2198.262
20
508.262
10
2198.262
20
526.524
10
2198.262
20
550.786
10
2198.262
20
553.048
10
2185.000
20
553.048
10
2185.000
20
939.812
10
2198.262
20
939.812
10
2198.262
20
941.023
0
CIRCLE
5
1EC
100
AcDbEntity
8
INTERIOR_PROFILES
100
AcDbCircle
10
2246.262
20
560.048
30
0
40
1.700
0
CIRCLE
5
1ED
100
AcDbEntity
8
INTERIOR_PROFILES
100
AcDbCircle
10
2887.262
20
563.548
30
0
40
1.700
0
CIRCLE
5
1EE
100
AcDbEntity
8
INTERIOR_PROFILES
100
AcDbCircle
10
2866.262
20
944.734
30
0
40
1.250
0
CIRCLE
5
1EF
100
AcDbEntity
8
INTERIOR_PROFILES
100
AcDbCircle
10
2205.262
20
583.048
30
0
40
1.700
0
CIRCLE
5
1F0
100
AcDbEntity
8
INTERIOR_PROFILES
100
AcDbCircle
10
2887.262
20
750.048
30
0
40
1.700
0
CIRCLE
5
1F1
100
AcDbEntity
8
INTERIOR_PROFILES
100
AcDbCircle
10
2887.262
20
936.548
30
0
40
1.700
0
CIRCLE
5
1F2
100
AcDbEntity
8
INTERIOR_PROFILES
100
AcDbCircle
10
2205.262
20
936.548
30
0
40
1.700
0
CIRCLE
5
1F3
100
AcDbEntity
8
INTERIOR_PROFILES
100
AcDbCircle
10
2205.262
20
917.048
30
0
40
1.700
0
CIRCLE
5
1F4
100
AcDbEntity
8
INTERIOR_PROFILES
100
AcDbCircle
10
2546.262
20
560.048
30
0
40
1.700
0
CIRCLE
5
1F5
100
AcDbEntity
8
INTERIOR_PROFILES
100
AcDbCircle
10
2887.262
20
583.048
30
0
40
1.700
0
CIRCLE
5
1F6
100
AcDbEntity
8
INTERIOR_PROFILES
100
AcDbCircle
10
2205.262
20
750.048
30
0
40
1.700
0
CIRCLE
5
1F7
100
AcDbEntity
8
INTERIOR_PROFILES
100
AcDbCircle
10
2887.262
20
917.048
30
0
40
1.700
0
CIRCLE
5
1F8
100
AcDbEntity
8
INTERIOR_PROFILES
100
AcDbCircle
10
2346.262
20
560.048
30
0
40
1.700
0
CIRCLE
5
1F9
100
AcDbEntity
8
INTERIOR_PROFILES
100
AcDbCircle
10
2226.262
20
944.734
30
0
40
1.250
0
CIRCLE
5
1FA
100
AcDbEntity
8
INTERIOR_PROFILES
100
AcDbCircle
10
2846.262
20
560.048
30
0
40
1.700
0
CIRCLE
5
1FB
100
AcDbEntity
8
INTERIOR_PROFILES
100
AcDbCircle
10
2887.262
20
926.798
30
0
40
6.500
0
CIRCLE
5
1FC
100
AcDbEntity
8
INTERIOR_PROFILES
100
AcDbCircle
10
2746.262
20
560.048
30
0
40
1.700
0
CIRCLE
5
1FD
100
AcDbEntity
8
INTERIOR_PROFILES
100
AcDbCircle
10
2646.262
20
560.048
30
0
40
1.700
0
CIRCLE
5
1FE
100
AcDbEntity
8
INTERIOR_PROFILES
100
AcDbCircle
10
2205.262
20
563.548
30
0
40
1.700
0
CIRCLE
5
1FF
100
AcDbEntity
8
INTERIOR_PROFILES
100
AcDbCircle
10
2205.262
20
926.798
30
0
40
6.500
0
CIRCLE
5
200
100
AcDbEntity
8
INTERIOR_PROFILES
100
AcDbCircle
10
2596.262
20
944.734
30
0
40
1.250
0
CIRCLE
5
201
100
AcDbEntity
8
INTERIOR_PROFILES
100
AcDbCircle
10
2646.262
20
944.734
30
0
40
1.250
0
CIRCLE
5
202
100
AcDbEntity
8
INTERIOR_PROFILES
100
AcDbCircle
10
2639.262
20
936.548
30
0
40
1.700
0
CIRCLE
5
203
100
AcDbEntity
8
INTERIOR_PROFILES
100
AcDbCircle
10
2776.262
20
922.048
30
0
40
1.700
0
CIRCLE
5
204
100
AcDbEntity
8
INTERIOR_PROFILES
100
AcDbCircle
10
2676.262
20
922.048
30
0
40
1.700
0
CIRCLE
5
205
100
AcDbEntity
8
INTERIOR_PROFILES
100
AcDbCircle
10
2657.262
20
899.048
30
0
40
1.700
0
CIRCLE
5
206
100
AcDbEntity
8
INTERIOR_PROFILES
100
AcDbCircle
10
2639.262
20
917.048
30
0
40
1.700
0
CIRCLE
5
207
100
AcDbEntity
8
INTERIOR_PROFILES
100
AcDbCircle
10
2826.262
20
922.048
30
0
40
1.700
0
CIRCLE
5
208
100
AcDbEntity
8
INTERIOR_PROFILES
100
AcDbCircle
10
2876.262
20
922.048
30
0
40
1.700
0
CIRCLE
5
209
100
AcDbEntity
8
INTERIOR_PROFILES
100
AcDbCircle
10
2726.262
20
922.048
30
0
40
1.700
0
CIRCLE
5
20A
100
AcDbEntity
8
INTERIOR_PROFILES
100
AcDbCircle
10
2861.262
20
535.786
30
0
40
1.700
0
CIRCLE
5
20B
100
AcDbEntity
8
INTERIOR_PROFILES
100
AcDbCircle
10
2205.262
20
535.786
30
0
40
1.700
0
CIRCLE
5
20C
100
AcDbEntity
8
INTERIOR_PROFILES
100
AcDbCircle
10
2887.262
20
535.786
30
0
40
1.700
0
CIRCLE
5
20D
100
AcDbEntity
8
INTERIOR_PROFILES
100
AcDbCircle
10
2277.262
20
535.786
30
0
40
1.700
0
CIRCLE
5
20E
100
AcDbEntity
8
INTERIOR_PROFILES
100
AcDbCircle
10
2657.262
20
917.048
30
0
40
1.700
0
CIRCLE
5
20F
100
AcDbEntity
8
INTERIOR_PROFILES
100
AcDbCircle
10
2639.262
20
899.048
30
0
40
1.700
0
CIRCLE
5
210
100
AcDbEntity
8
INTERIOR_PROFILES
100
AcDbCircle
10
2231.262
20
535.786
30
0
40
1.700
0
CIRCLE
5
211
100
AcDbEntity
8
INTERIOR_PROFILES
100
AcDbCircle
10
2221.262
20
488.000
30
0
40
1.700
0
CIRCLE
5
212
100
AcDbEntity
8
INTERIOR_PROFILES
100
AcDbCircle
10
2446.262
20
488.000
30
0
40
1.700
0
CIRCLE
5
213
100
AcDbEntity
8
INTERIOR_PROFILES
100
AcDbCircle
10
2871.262
20
488.000
30
0
40
1.700
0
CIRCLE
5
214
100
AcDbEntity
8
INTERIOR_PROFILES
100
AcDbCircle
10
2246.262
20
488.000
30
0
40
1.700
0
CIRCLE
5
215
100
AcDbEntity
8
INTERIOR_PROFILES
100
AcDbCircle
10
2815.262
20
535.786
30
0
40
1.700
0
CIRCLE
5
216
100
AcDbEntity
8
INTERIOR_PROFILES
100
AcDbCircle
10
2546.262
20
488.000
30
0
40
1.700
0
CIRCLE
5
217
100
AcDbEntity
8
INTERIOR_PROFILES
100
AcDbCircle
10
2646.262
20
488.000
30
0
40
1.700
0
CIRCLE
5
218
100
AcDbEntity
8
INTERIOR_PROFILES
100
AcDbCircle
10
2846.262
20
488.000
30
0
40
1.700
0
CIRCLE
5
219
100
AcDbEntity
8
INTERIOR_PROFILES
100
AcDbCircle
10
2746.262
20
488.000
30
0
40
1.700
0
CIRCLE
5
21A
100
AcDbEntity
8
INTERIOR_PROFILES
100
AcDbCircle
10
2346.262
20
488.000
30
0
40
1.700
0
CIRCLE
5
21B
100
AcDbEntity
8
INTERIOR_PROFILES
100
AcDbCircle
10
2190.500
20
685.048
30
0
40
4.500
0
CIRCLE
5
21C
100
AcDbEntity
8
INTERIOR_PROFILES
100
AcDbCircle
10
2904.524
20
917.548
30
0
40
1.700
0
CIRCLE
5
21D
100
AcDbEntity
8
INTERIOR_PROFILES
100
AcDbCircle
10
2188.000
20
607.548
30
0
40
1.700
0
CIRCLE
5
21E
100
AcDbEntity
8
INTERIOR_PROFILES
100
AcDbCircle
10
2190.500
20
840.048
30
0
40
4.500
0
CIRCLE
5
21F
100
AcDbEntity
8
INTERIOR_PROFILES
100
AcDbCircle
10
2902.024
20
685.048
30
0
40
4.500
0
CIRCLE
5
220
100
AcDbEntity
8
INTERIOR_PROFILES
100
AcDbCircle
10
2188.000
20
917.548
30
0
40
1.700
0
CIRCLE
5
221
100
AcDbEntity
8
INTERIOR_PROFILES
100
AcDbCircle
10
2904.524
20
607.548
30
0
40
1.700
0
CIRCLE
5
222
100
AcDbEntity
8
INTERIOR_PROFILES
100
AcDbCircle
10
2902.024
20
840.048
30
0
40
4.500
0
CIRCLE
5
223
100
AcDbEntity
8
INTERIOR_PROFILES
100
AcDbCircle
10
2188.000
20
762.548
30
0
40
1.700
0
CIRCLE
5
224
100
AcDbEntity
8
INTERIOR_PROFILES
100
AcDbCircle
10
2408.762
20
958.496
30
0
40
8.750
0
CIRCLE
5
225
100
AcDbEntity
8
INTERIOR_PROFILES
100
AcDbCircle
10
2904.524
20
762.548
30
0
40
1.700
0
CIRCLE
5
226
100
AcDbEntity
8
INTERIOR_PROFILES
100
AcDbCircle
10
2834.762
20
955.496
30
0
40
1.700
0
CIRCLE
5
227
100
AcDbEntity
8
INTERIOR_PROFILES
100
AcDbCircle
10
2679.762
20
955.496
30
0
40
1.700
0
CIRCLE
5
228
100
AcDbEntity
8
INTERIOR_PROFILES
100
AcDbCircle
10
2757.262
20
952.996
30
0
40
4.500
0
CIRCLE
5
229
100
AcDbEntity
8
INTERIOR_PROFILES
100
AcDbCircle
10
2446.262
20
560.048
30
0
40
1.700
0
TEXT
5
22A
100
AcDbEntity
8
PART_LABELS
100
AcDbText
10
316.500
20
928.500
30
0
40
50.000
1
2UP000-060000
72
1
11
316.500
21
928.500
31
0
100
AcDbText
73
2
0
LWPOLYLINE
5
22B
100
AcDbEntity
8
OUTER_PROFILES
100
AcDbPolyline
90
36
70
1
10
614.262
20
710.524
42
-1.000000
10
614.262
20
729.524
10
614.262
20
731.786
10
614.262
20
738.786
10
614.262
20
741.048
10
632.524
20
741.048
10
632.524
20
1070.714
10
616.524
20
1112.048
10
614.262
20
1112.048
10
614.262
20
1114.310
10
614.262
20
1136.310
10
614.262
20
1144.572
10
614.262
20
1154.834
10
614.262
20
1157.096
42
-0.414214
10
607.762
20
1163.596
10
607.762
20
1170.096
10
24.762
20
1170.096
10
24.762
20
1163.596
42
-0.414214
10
18.262
20
1157.096
10
18.262
20
1154.834
10
18.262
20
1144.572
10
18.262
20
1136.310
10
18.262
20
1114.310
10
18.262
20
1112.048
10
16.000
20
1112.048
10
0.000
20
1070.714
10
0.000
20
741.048
10
18.262
20
741.048
10
18.262
20
738.786
10
18.262
20
731.786
10
18.262
20
729.524
42
-1.000000
10
18.262
20
710.524
10
18.262
20
697.262
10
18.262
20
687.000
10
614.262
20
687.000
10
614.262
20
697.262
0
CIRCLE
5
22C
100
AcDbEntity
8
INTERIOR_PROFILES
100
AcDbCircle
10
97.262
20
1129.310
30
0
40
1.700
0
CIRCLE
5
22D
100
AcDbEntity
8
INTERIOR_PROFILES
100
AcDbCircle
10
582.262
20
1129.310
30
0
40
1.700
0
CIRCLE
5
22E
100
AcDbEntity
8
INTERIOR_PROFILES
100
AcDbCircle
10
216.262
20
1105.048
30
0
40
1.700
0
CIRCLE
5
22F
100
AcDbEntity
8
INTERIOR_PROFILES
100
AcDbCircle
10
535.262
20
1129.310
30
0
40
1.700
0
CIRCLE
5
230
100
AcDbEntity
8
INTERIOR_PROFILES
100
AcDbCircle
10
416.262
20
1105.048
30
0
40
1.700
0
CIRCLE
5
231
100
AcDbEntity
8
INTERIOR_PROFILES
100
AcDbCircle
10
607.262
20
915.048
30
0
40
1.700
0
CIRCLE
5
232
100
AcDbEntity
8
INTERIOR_PROFILES
100
AcDbCircle
10
607.262
20
1129.310
30
0
40
1.700
0
CIRCLE
5
233
100
AcDbEntity
8
INTERIOR_PROFILES
100
AcDbCircle
10
122.262
20
1129.310
30
0
40
1.700
0
CIRCLE
5
234
100
AcDbEntity
8
INTERIOR_PROFILES
100
AcDbCircle
10
116.262
20
1105.048
30
0
40
1.700
0
CIRCLE
5
235
100
AcDbEntity
8
INTERIOR_PROFILES
100
AcDbCircle
10
25.262
20
1129.310
30
0
40
1.700
0
CIRCLE
5
236
100
AcDbEntity
8
INTERIOR_PROFILES
100
AcDbCircle
10
316.262
20
1105.048
30
0
40
1.700
0
CIRCLE
5
237
100
AcDbEntity
8
INTERIOR_PROFILES
100
AcDbCircle
10
516.262
20
1105.048
30
0
40
1.700
0
CIRCLE
5
238
100
AcDbEntity
8
INTERIOR_PROFILES
100
AcDbCircle
10
416.262
20
720.024
30
0
40
1.700
0
CIRCLE
5
239
100
AcDbEntity
8
INTERIOR_PROFILES
100
AcDbCircle
10
416.262
20
690.000
30
0
40
1.700
0
CIRCLE
5
23A
100
AcDbEntity
8
INTERIOR_PROFILES
100
AcDbCircle
10
25.262
20
1082.048
30
0
40
1.700
0
CIRCLE
5
23B
100
AcDbEntity
8
INTERIOR_PROFILES
100
AcDbCircle
10
607.262
20
1082.048
30
0
40
1.700
0
CIRCLE
5
23C
100
AcDbEntity
8
INTERIOR_PROFILES
100
AcDbCircle
10
510.262
20
1129.310
30
0
40
1.700
0
CIRCLE
5
23D
100
AcDbEntity
8
INTERIOR_PROFILES
100
AcDbCircle
10
25.262
20
1101.548
30
0
40
1.700
0
CIRCLE
5
23E
100
AcDbEntity
8
INTERIOR_PROFILES
100
AcDbCircle
10
216.262
20
720.024
30
0
40
1.700
0
CIRCLE
5
23F
100
AcDbEntity
8
INTERIOR_PROFILES
100
AcDbCircle
10
25.262
20
915.048
30
0
40
1.700
0
CIRCLE
5
240
100
AcDbEntity
8
INTERIOR_PROFILES
100
AcDbCircle
10
116.262
20
720.024
30
0
40
1.700
0
CIRCLE
5
241
100
AcDbEntity
8
INTERIOR_PROFILES
100
AcDbCircle
10
316.262
20
720.024
30
0
40
1.700
0
CIRCLE
5
242
100
AcDbEntity
8
INTERIOR_PROFILES
100
AcDbCircle
10
516.262
20
720.024
30
0
40
1.700
0
CIRCLE
5
243
100
AcDbEntity
8
INTERIOR_PROFILES
100
AcDbCircle
10
607.262
20
748.048
30
0
40
1.700
0
CIRCLE
5
244
100
AcDbEntity
8
INTERIOR_PROFILES
100
AcDbCircle
10
516.262
20
1167.096
30
0
40
1.700
0
CIRCLE
5
245
100
AcDbEntity
8
INTERIOR_PROFILES
100
AcDbCircle
10
607.262
20
1101.548
30
0
40
1.700
0
CIRCLE
5
246
100
AcDbEntity
8
INTERIOR_PROFILES
100
AcDbCircle
10
50.262
20
1129.310
30
0
40
1.700
0
CIRCLE
5
247
100
AcDbEntity
8
INTERIOR_PROFILES
100
AcDbCircle
10
25.262
20
748.048
30
0
40
1.700
0
CIRCLE
5
248
100
AcDbEntity
8
INTERIOR_PROFILES
100
AcDbCircle
10
76.262
20
1129.310
30
0
40
1.700
0
CIRCLE
5
249
100
AcDbEntity
8
INTERIOR_PROFILES
100
AcDbCircle
10
556.262
20
1129.310
30
0
40
1.700
0
CIRCLE
5
24A
100
AcDbEntity
8
INTERIOR_PROFILES
100
AcDbCircle
10
116.262
20
690.000
30
0
40
1.700
0
CIRCLE
5
24B
100
AcDbEntity
8
INTERIOR_PROFILES
100
AcDbCircle
10
316.262
20
1167.096
30
0
40
1.700
0
CIRCLE
5
24C
100
AcDbEntity
8
INTERIOR_PROFILES
100
AcDbCircle
10
629.524
20
1057.548
30
0
40
1.700
0
CIRCLE
5
24D
100
AcDbEntity
8
INTERIOR_PROFILES
100
AcDbCircle
10
3.000
20
747.548
30
0
40
1.700
0
CIRCLE
5
24E
100
AcDbEntity
8
INTERIOR_PROFILES
100
AcDbCircle
10
116.262
20
1167.096
30
0
40
1.700
0
CIRCLE
5
24F
100
AcDbEntity
8
INTERIOR_PROFILES
100
AcDbCircle
10
3.000
20
1057.548
30
0
40
1.700
0
CIRCLE
5
250
100
AcDbEntity
8
INTERIOR_PROFILES
100
AcDbCircle
10
216.262
20
690.000
30
0
40
1.700
0
CIRCLE
5
251
100
AcDbEntity
8
INTERIOR_PROFILES
100
AcDbCircle
10
316.262
20
690.000
30
0
40
1.700
0
CIRCLE
5
252
100
AcDbEntity
8
INTERIOR_PROFILES
100
AcDbCircle
10
3.000
20
902.548
30
0
40
1.700
0
CIRCLE
5
253
100
AcDbEntity
8
INTERIOR_PROFILES
100
AcDbCircle
10
416.262
20
1167.096
30
0
40
1.700
0
CIRCLE
5
254
100
AcDbEntity
8
INTERIOR_PROFILES
100
AcDbCircle
10
216.262
20
1167.096
30
0
40
1.700
0
CIRCLE
5
255
100
AcDbEntity
8
INTERIOR_PROFILES
100
AcDbCircle
10
629.524
20
902.548
30
0
40
1.700
0
CIRCLE
5
256
100
AcDbEntity
8
INTERIOR_PROFILES
100
AcDbCircle
10
516.262
20
690.000
30
0
40
1.700
0
CIRCLE
5
257
100
AcDbEntity
8
INTERIOR_PROFILES
100
AcDbCircle
10
629.524
20
747.548
30
0
40
1.700
0
TEXT
5
258
100
AcDbEntity
8
PART_LABELS
100
AcDbText
10
946.500
20
930.000
30
0
40
50.000
1
2DN000-060000
72
1
11
946.500
21
930.000
31
0
100
AcDbText
73
2
0
CIRCLE
5
259
100
AcDbEntity
8
OUTER_PROFILES
100
AcDbCircle
10
676.262
20
1147.734
30
0
40
1.250
0
CIRCLE
5
25A
100
AcDbEntity
8
OUTER_PROFILES
100
AcDbCircle
10
1216.262
20
1147.734
30
0
40
1.250
0
CIRCLE
5
25B
100
AcDbEntity
8
OUTER_PROFILES
100
AcDbCircle
10
671.262
20
691.000
30
0
40
1.700
0
CIRCLE
5
25C
100
AcDbEntity
8
OUTER_PROFILES
100
AcDbCircle
10
946.262
20
691.000
30
0
40
1.700
0
CIRCLE
5
25D
100
AcDbEntity
8
OUTER_PROFILES
100
AcDbCircle
10
846.262
20
691.000
30
0
40
1.700
0
CIRCLE
5
25E
100
AcDbEntity
8
OUTER_PROFILES
100
AcDbCircle
10
1046.262
20
691.000
30
0
40
1.700
0
CIRCLE
5
25F
100
AcDbEntity
8
OUTER_PROFILES
100
AcDbCircle
10
746.262
20
691.000
30
0
40
1.700
0
CIRCLE
5
260
100
AcDbEntity
8
OUTER_PROFILES
100
AcDbCircle
10
1146.262
20
691.000
30
0
40
1.700
0
CIRCLE
5
261
100
AcDbEntity
8
OUTER_PROFILES
100
AcDbCircle
10
640.500
20
888.048
30
0
40
4.500
0
CIRCLE
5
262
100
AcDbEntity
8
OUTER_PROFILES
100
AcDbCircle
10
640.500
20
1043.048
30
0
40
4.500
0
CIRCLE
5
263
100
AcDbEntity
8
OUTER_PROFILES
100
AcDbCircle
10
638.000
20
1120.548
30
0
40
1.700
0
CIRCLE
5
264
100
AcDbEntity
8
OUTER_PROFILES
100
AcDbCircle
10
638.000
20
810.548
30
0
40
1.700
0
CIRCLE
5
265
100
AcDbEntity
8
OUTER_PROFILES
100
AcDbCircle
10
638.000
20
965.548
30
0
40
1.700
0
CIRCLE
5
266
100
AcDbEntity
8
OUTER_PROFILES
100
AcDbCircle
10
946.262
20
763.048
30
0
40
1.700
0
CIRCLE
5
267
100
AcDbEntity
8
OUTER_PROFILES
100
AcDbCircle
10
655.262
20
786.048
30
0
40
1.700
0
CIRCLE
5
268
100
AcDbEntity
8
OUTER_PROFILES
100
AcDbCircle
10
655.262
20
1120.048
30
0
40
1.700
0
CIRCLE
5
269
100
AcDbEntity
8
OUTER_PROFILES
100
AcDbCircle
10
1237.262
20
1139.548
30
0
40
1.700
0
CIRCLE
5
26A
100
AcDbEntity
8
OUTER_PROFILES
100
AcDbCircle
10
1237.262
20
766.548
30
0
40
1.700
0
CIRCLE
5
26B
100
AcDbEntity
8
OUTER_PROFILES
100
AcDbCircle
10
1237.262
20
953.048
30
0
40
1.700
0
CIRCLE
5
26C
100
AcDbEntity
8
OUTER_PROFILES
100
AcDbCircle
10
655.262
20
1139.548
30
0
40
1.700
0
CIRCLE
5
26D
100
AcDbEntity
8
OUTER_PROFILES
100
AcDbCircle
10
746.262
20
763.048
30
0
40
1.700
0
CIRCLE
5
26E
100
AcDbEntity
8
OUTER_PROFILES
100
AcDbCircle
10
1046.262
20
763.048
30
0
40
1.700
0
CIRCLE
5
26F
100
AcDbEntity
8
OUTER_PROFILES
100
AcDbCircle
10
1146.262
20
763.048
30
0
40
1.700
0
CIRCLE
5
270
100
AcDbEntity
8
OUTER_PROFILES
100
AcDbCircle
10
655.262
20
766.548
30
0
40
1.700
0
CIRCLE
5
271
100
AcDbEntity
8
OUTER_PROFILES
100
AcDbCircle
10
655.262
20
1129.798
30
0
40
6.500
0
CIRCLE
5
272
100
AcDbEntity
8
OUTER_PROFILES
100
AcDbCircle
10
1237.262
20
1120.048
30
0
40
1.700
0
CIRCLE
5
273
100
AcDbEntity
8
OUTER_PROFILES
100
AcDbCircle
10
1237.262
20
786.048
30
0
40
1.700
0
CIRCLE
5
274
100
AcDbEntity
8
OUTER_PROFILES
100
AcDbCircle
10
1237.262
20
1129.798
30
0
40
6.500
0
CIRCLE
5
275
100
AcDbEntity
8
OUTER_PROFILES
100
AcDbCircle
10
655.262
20
953.048
30
0
40
1.700
0
CIRCLE
5
276
100
AcDbEntity
8
OUTER_PROFILES
100
AcDbCircle
10
846.262
20
763.048
30
0
40
1.700
0
SPLINE
5
277
100
AcDbEntity
8
OUTER_PROFILES
100
AcDbSpline
70
8
71
3
72
20
73
16
74
0
40
0.000000
40
0.000000
40
0.000000
40
0.000000
40
0.159237
40
0.159237
40
0.159237
40
0.268187
40
0.268187
40
0.268187
40
0.436219
40
0.436219
40
0.436219
40
0.580328
40
0.580328
40
0.580328
40
0.728635
40
0.728635
40
0.728635
40
0.728635
10
1246.524
20
761.348
30
0
10
1246.142
20
761.348
30
0
10
1245.719
20
761.320
30
0
10
1245.349
20
761.468
30
0
10
1245.097
20
761.570
30
0
10
1244.847
20
761.793
30
0
10
1244.691
20
762.103
30
0
10
1244.450
20
762.581
30
0
10
1244.412
20
763.240
30
0
10
1244.598
20
763.773
30
0
10
1244.757
20
764.230
30
0
10
1245.085
20
764.543
30
0
10
1245.426
20
764.655
30
0
10
1245.777
20
764.771
30
0
10
1246.168
20
764.748
30
0
10
1246.524
20
764.748
30
0
0
LINE
5
278
100
AcDbEntity
8
OUTER_PROFILES
100
AcDbLine
10
1246.524
20
764.748
30
0
11
1246.524
21
761.348
31
0
0
CIRCLE
5
279
100
AcDbEntity
8
OUTER_PROFILES
100
AcDbCircle
10
1254.524
20
965.548
30
0
40
1.700
0
CIRCLE
5
27A
100
AcDbEntity
8
OUTER_PROFILES
100
AcDbCircle
10
1254.524
20
810.548
30
0
40
1.700
0
CIRCLE
5
27B
100
AcDbEntity
8
OUTER_PROFILES
100
AcDbCircle
10
1254.524
20
1120.548
30
0
40
1.700
0
CIRCLE
5
27C
100
AcDbEntity
8
OUTER_PROFILES
100
AcDbCircle
10
1252.024
20
1043.048
30
0
40
4.500
0
CIRCLE
5
27D
100
AcDbEntity
8
OUTER_PROFILES
100
AcDbCircle
10
1252.024
20
888.048
30
0
40
4.500
0
CIRCLE
5
27E
100
AcDbEntity
8
OUTER_PROFILES
100
AcDbCircle
10
681.262
20
738.786
30
0
40
1.700
0
CIRCLE
5
27F
100
AcDbEntity
8
OUTER_PROFILES
100
AcDbCircle
10
1165.262
20
738.786
30
0
40
1.700
0
CIRCLE
5
280
100
AcDbEntity
8
OUTER_PROFILES
100
AcDbCircle
10
655.262
20
738.786
30
0
40
1.700
0
CIRCLE
5
281
100
AcDbEntity
8
OUTER_PROFILES
100
AcDbCircle
10
1237.262
20
738.786
30
0
40
1.700
0
CIRCLE
5
282
100
AcDbEntity
8
OUTER_PROFILES
100
AcDbCircle
10
727.262
20
738.786
30
0
40
1.700
0
CIRCLE
5
283
100
AcDbEntity
8
OUTER_PROFILES
100
AcDbCircle
10
1211.262
20
738.786
30
0
40
1.700
0
CIRCLE
5
284
100
AcDbEntity
8
OUTER_PROFILES
100
AcDbCircle
10
946.262
20
1161.496
30
0
40
8.750
0
LWPOLYLINE
5
285
100
AcDbEntity
8
OUTER_PROFILES
100
AcDbPolyline
90
26
70
1
10
1244.262
20
1149.234
10
1244.262
20
1172.496
10
648.262
20
1172.496
10
648.262
20
1151.496
10
648.262
20
1145.234
10
648.262
20
1144.023
10
648.262
20
1142.812
10
635.000
20
1142.812
10
635.000
20
756.048
10
648.262
20
756.048
10
648.262
20
753.786
10
648.262
20
729.524
10
648.262
20
711.262
10
648.262
20
701.000
42
-0.414214
10
661.262
20
688.000
10
1231.262
20
688.000
42
-0.414214
10
1244.262
20
701.000
10
1244.262
20
711.262
10
1244.262
20
729.524
10
1244.262
20
753.786
10
1244.262
20
756.048
10
1257.524
20
756.048
10
1257.524
20
1142.812
10
1244.262
20
1142.812
10
1244.262
20
1144.023
10
1244.262
20
1145.234
0
TEXT
5
286
100
AcDbEntity
8
PART_LABELS
100
AcDbText
10
1571.500
20
1213.000
30
0
40
50.000
1
2DN000-060000
72
1
11
1571.500
21
1213.000
31
0
100
AcDbText
73
2
0
CIRCLE
5
287
100
AcDbEntity
8
OUTER_PROFILES
100
AcDbCircle
10
1301.262
20
1430.734
30
0
40
1.250
0
CIRCLE
5
288
100
AcDbEntity
8
OUTER_PROFILES
100
AcDbCircle
10
1841.262
20
1430.734
30
0
40
1.250
0
CIRCLE
5
289
100
AcDbEntity
8
OUTER_PROFILES
100
AcDbCircle
10
1296.262
20
974.000
30
0
40
1.700
0
CIRCLE
5
28A
100
AcDbEntity
8
OUTER_PROFILES
100
AcDbCircle
10
1571.262
20
974.000
30
0
40
1.700
0
CIRCLE
5
28B
100
AcDbEntity
8
OUTER_PROFILES
100
AcDbCircle
10
1471.262
20
974.000
30
0
40
1.700
0
CIRCLE
5
28C
100
AcDbEntity
8
OUTER_PROFILES
100
AcDbCircle
10
1671.262
20
974.000
30
0
40
1.700
0
CIRCLE
5
28D
100
AcDbEntity
8
OUTER_PROFILES
100
AcDbCircle
10
1371.262
20
974.000
30
0
40
1.700
0
CIRCLE
5
28E
100
AcDbEntity
8
OUTER_PROFILES
100
AcDbCircle
10
1771.262
20
974.000
30
0
40
1.700
0
CIRCLE
5
28F
100
AcDbEntity
8
OUTER_PROFILES
100
AcDbCircle
10
1265.500
20
1171.048
30
0
40
4.500
0
CIRCLE
5
290
100
AcDbEntity
8
OUTER_PROFILES
100
AcDbCircle
10
1265.500
20
1326.048
30
0
40
4.500
0
CIRCLE
5
291
100
AcDbEntity
8
OUTER_PROFILES
100
AcDbCircle
10
1263.000
20
1403.548
30
0
40
1.700
0
CIRCLE
5
292
100
AcDbEntity
8
OUTER_PROFILES
100
AcDbCircle
10
1263.000
20
1093.548
30
0
40
1.700
0
CIRCLE
5
293
100
AcDbEntity
8
OUTER_PROFILES
100
AcDbCircle
10
1263.000
20
1248.548
30
0
40
1.700
0
CIRCLE
5
294
100
AcDbEntity
8
OUTER_PROFILES
100
AcDbCircle
10
1571.262
20
1046.048
30
0
40
1.700
0
CIRCLE
5
295
100
AcDbEntity
8
OUTER_PROFILES
100
AcDbCircle
10
1280.262
20
1069.048
30
0
40
1.700
0
CIRCLE
5
296
100
AcDbEntity
8
OUTER_PROFILES
100
AcDbCircle
10
1280.262
20
1403.048
30
0
40
1.700
0
CIRCLE
5
297
100
AcDbEntity
8
OUTER_PROFILES
100
AcDbCircle
10
1862.262
20
1422.548
30
0
40
1.700
0
CIRCLE
5
298
100
AcDbEntity
8
OUTER_PROFILES
100
AcDbCircle
10
1862.262
20
1049.548
30
0
40
1.700
0
CIRCLE
5
299
100
AcDbEntity
8
OUTER_PROFILES
100
AcDbCircle
10
1862.262
20
1236.048
30
0
40
1.700
0
CIRCLE
5
29A
100
AcDbEntity
8
OUTER_PROFILES
100
AcDbCircle
10
1280.262
20
1422.548
30
0
40
1.700
0
CIRCLE
5
29B
100
AcDbEntity
8
OUTER_PROFILES
100
AcDbCircle
10
1371.262
20
1046.048
30
0
40
1.700
0
CIRCLE
5
29C
100
AcDbEntity
8
OUTER_PROFILES
100
AcDbCircle
10
1671.262
20
1046.048
30
0
40
1.700
0
CIRCLE
5
29D
100
AcDbEntity
8
OUTER_PROFILES
100
AcDbCircle
10
1771.262
20
1046.048
30
0
40
1.700
0
CIRCLE
5
29E
100
AcDbEntity
8
OUTER_PROFILES
100
AcDbCircle
10
1280.262
20
1049.548
30
0
40
1.700
0
CIRCLE
5
29F
100
AcDbEntity
8
OUTER_PROFILES
100
AcDbCircle
10
1280.262
20
1412.798
30
0
40
6.500
0
CIRCLE
5
2A0
100
AcDbEntity
8
OUTER_PROFILES
100
AcDbCircle
10
1862.262
20
1403.048
30
0
40
1.700
0
CIRCLE
5
2A1
100
AcDbEntity
8
OUTER_PROFILES
100
AcDbCircle
10
1862.262
20
1069.048
30
0
40
1.700
0
CIRCLE
5
2A2
100
AcDbEntity
8
OUTER_PROFILES
100
AcDbCircle
10
1862.262
20
1412.798
30
0
40
6.500
0
CIRCLE
5
2A3
100
AcDbEntity
8
OUTER_PROFILES
100
AcDbCircle
10
1280.262
20
1236.048
30
0
40
1.700
0
CIRCLE
5
2A4
100
AcDbEntity
8
OUTER_PROFILES
100
AcDbCircle
10
1471.262
20
1046.048
30
0
40
1.700
0
SPLINE
5
2A5
100
AcDbEntity
8
OUTER_PROFILES
100
AcDbSpline
70
8
71
3
72
20
73
16
74
0
40
0.000000
40
0.000000
40
0.000000
40
0.000000
40
0.159237
40
0.159237
40
0.159237
40
0.268187
40
0.268187
40
0.268187
40
0.436219
40
0.436219
40
0.436219
40
0.580328
40
0.580328
40
0.580328
40
0.728635
40
0.728635
40
0.728635
40
0.728635
10
1871.524
20
1044.348
30
0
10
1871.142
20
1044.348
30
0
10
1870.719
20
1044.320
30
0
10
1870.349
20
1044.468
30
0
10
1870.097
20
1044.570
30
0
10
1869.847
20
1044.793
30
0
10
1869.691
20
1045.103
30
0
10
1869.450
20
1045.581
30
0
10
1869.412
20
1046.240
30
0
10
1869.598
20
1046.773
30
0
10
1869.757
20
1047.230
30
0
10
1870.085
20
1047.543
30
0
10
1870.426
20
1047.655
30
0
10
1870.777
20
1047.771
30
0
10
1871.168
20
1047.748
30
0
10
1871.524
20
1047.748
30
0
0
LINE
5
2A6
100
AcDbEntity
8
OUTER_PROFILES
100
AcDbLine
10
1871.524
20
1047.748
30
0
11
1871.524
21
1044.348
31
0
0
CIRCLE
5
2A7
100
AcDbEntity
8
OUTER_PROFILES
100
AcDbCircle
10
1879.524
20
1248.548
30
0
40
1.700
0
CIRCLE
5
2A8
100
AcDbEntity
8
OUTER_PROFILES
100
AcDbCircle
10
1879.524
20
1093.548
30
0
40
1.700
0
CIRCLE
5
2A9
100
AcDbEntity
8
OUTER_PROFILES
100
AcDbCircle
10
1879.524
20
1403.548
30
0
40
1.700
0
CIRCLE
5
2AA
100
AcDbEntity
8
OUTER_PROFILES
100
AcDbCircle
10
1877.024
20
1326.048
30
0
40
4.500
0
CIRCLE
5
2AB
100
AcDbEntity
8
OUTER_PROFILES
100
AcDbCircle
10
1877.024
20
1171.048
30
0
40
4.500
0
CIRCLE
5
2AC
100
AcDbEntity
8
OUTER_PROFILES
100
AcDbCircle
10
1306.262
20
1021.786
30
0
40
1.700
0
CIRCLE
5
2AD
100
AcDbEntity
8
OUTER_PROFILES
100
AcDbCircle
10
1790.262
20
1021.786
30
0
40
1.700
0
CIRCLE
5
2AE
100
AcDbEntity
8
OUTER_PROFILES
100
AcDbCircle
10
1280.262
20
1021.786
30
0
40
1.700
0
CIRCLE
5
2AF
100
AcDbEntity
8
OUTER_PROFILES
100
AcDbCircle
10
1862.262
20
1021.786
30
0
40
1.700
0
CIRCLE
5
2B0
100
AcDbEntity
8
OUTER_PROFILES
100
AcDbCircle
10
1352.262
20
1021.786
30
0
40
1.700
0
CIRCLE
5
2B1
100
AcDbEntity
8
OUTER_PROFILES
100
AcDbCircle
10
1836.262
20
1021.786
30
0
40
1.700
0
CIRCLE
5
2B2
100
AcDbEntity
8
OUTER_PROFILES
100
AcDbCircle
10
1571.262
20
1444.496
30
0
40
8.750
0
LWPOLYLINE
5
2B3
100
AcDbEntity
8
OUTER_PROFILES
100
AcDbPolyline
90
26
70
1
10
1869.262
20
1432.234
10
1869.262
20
1455.496
10
1273.262
20
1455.496
10
1273.262
20
1434.496
10
1273.262
20
1428.234
10
1273.262
20
1427.023
10
1273.262
20
1425.812
10
1260.000
20
1425.812
10
1260.000
20
1039.048
10
1273.262
20
1039.048
10
1273.262
20
1036.786
10
1273.262
20
1012.524
10
1273.262
20
994.262
10
1273.262
20
984.000
42
-0.414214
10
1286.262
20
971.000
10
1856.262
20
971.000
42
-0.414214
10
1869.262
20
984.000
10
1869.262
20
994.262
10
1869.262
20
1012.524
10
1869.262
20
1036.786
10
1869.262
20
1039.048
10
1882.524
20
1039.048
10
1882.524
20
1425.812
10
1869.262
20
1425.812
10
1869.262
20
1427.023
10
1869.262
20
1428.234
0
TEXT
5
2B4
100
AcDbEntity
8
PART_LABELS
100
AcDbText
10
2196.500
20
1213.000
30
0
40
50.000
1
2DN000-060000
72
1
11
2196.500
21
1213.000
31
0
100
AcDbText
73
2
0
CIRCLE
5
2B5
100
AcDbEntity
8
OUTER_PROFILES
100
AcDbCircle
10
1926.262
20
1430.734
30
0
40
1.250
0
CIRCLE
5
2B6
100
AcDbEntity
8
OUTER_PROFILES
100
AcDbCircle
10
2466.262
20
1430.734
30
0
40
1.250
0
CIRCLE
5
2B7
100
AcDbEntity
8
OUTER_PROFILES
100
AcDbCircle
10
1921.262
20
974.000
30
0
40
1.700
0
CIRCLE
5
2B8
100
AcDbEntity
8
OUTER_PROFILES
100
AcDbCircle
10
2196.262
20
974.000
30
0
40
1.700
0
CIRCLE
5
2B9
100
AcDbEntity
8
OUTER_PROFILES
100
AcDbCircle
10
2096.262
20
974.000
30
0
40
1.700
0
CIRCLE
5
2BA
100
AcDbEntity
8
OUTER_PROFILES
100
AcDbCircle
10
2296.262
20
974.000
30
0
40
1.700
0
CIRCLE
5
2BB
100
AcDbEntity
8
OUTER_PROFILES
100
AcDbCircle
10
1996.262
20
974.000
30
0
40
1.700
0
CIRCLE
5
2BC
100
AcDbEntity
8
OUTER_PROFILES
100
AcDbCircle
10
2396.262
20
974.000
30
0
40
1.700
0
CIRCLE
5
2BD
100
AcDbEntity
8
OUTER_PROFILES
100
AcDbCircle
10
1890.500
20
1171.048
30
0
40
4.500
0
CIRCLE
5
2BE
100
AcDbEntity
8
OUTER_PROFILES
100
AcDbCircle
10
1890.500
20
1326.048
30
0
40
4.500
0
CIRCLE
5
2BF
100
AcDbEntity
8
OUTER_PROFILES
100
AcDbCircle
10
1888.000
20
1403.548
30
0
40
1.700
0
CIRCLE
5
2C0
100
AcDbEntity
8
OUTER_PROFILES
100
AcDbCircle
10
1888.000
20
1093.548
30
0
40
1.700
0
CIRCLE
5
2C1
100
AcDbEntity
8
OUTER_PROFILES
100
AcDbCircle
10
1888.000
20
1248.548
30
0
40
1.700
0
CIRCLE
5
2C2
100
AcDbEntity
8
OUTER_PROFILES
100
AcDbCircle
10
2196.262
20
1046.048
30
0
40
1.700
0
CIRCLE
5
2C3
100
AcDbEntity
8
OUTER_PROFILES
100
AcDbCircle
10
1905.262
20
1069.048
30
0
40
1.700
0
CIRCLE
5
2C4
100
AcDbEntity
8
OUTER_PROFILES
100
AcDbCircle
10
1905.262
20
1403.048
30
0
40
1.700
0
CIRCLE
5
2C5
100
AcDbEntity
8
OUTER_PROFILES
100
AcDbCircle
10
2487.262
20
1422.548
30
0
40
1.700
0
CIRCLE
5
2C6
100
AcDbEntity
8
OUTER_PROFILES
100
AcDbCircle
10
2487.262
20
1049.548
30
0
40
1.700
0
CIRCLE
5
2C7
100
AcDbEntity
8
OUTER_PROFILES
100
AcDbCircle
10
2487.262
20
1236.048
30
0
40
1.700
0
CIRCLE
5
2C8
100
AcDbEntity
8
OUTER_PROFILES
100
AcDbCircle
10
1905.262
20
1422.548
30
0
40
1.700
0
CIRCLE
5
2C9
100
AcDbEntity
8
OUTER_PROFILES
100
AcDbCircle
10
1996.262
20
1046.048
30
0
40
1.700
0
CIRCLE
5
2CA
100
AcDbEntity
8
OUTER_PROFILES
100
AcDbCircle
10
2296.262
20
1046.048
30
0
40
1.700
0
CIRCLE
5
2CB
100
AcDbEntity
8
OUTER_PROFILES
100
AcDbCircle
10
2396.262
20
1046.048
30
0
40
1.700
0
CIRCLE
5
2CC
100
AcDbEntity
8
OUTER_PROFILES
100
AcDbCircle
10
1905.262
20
1049.548
30
0
40
1.700
0
CIRCLE
5
2CD
100
AcDbEntity
8
OUTER_PROFILES
100
AcDbCircle
10
1905.262
20
1412.798
30
0
40
6.500
0
CIRCLE
5
2CE
100
AcDbEntity
8
OUTER_PROFILES
100
AcDbCircle
10
2487.262
20
1403.048
30
0
40
1.700
0
CIRCLE
5
2CF
100
AcDbEntity
8
OUTER_PROFILES
100
AcDbCircle
10
2487.262
20
1069.048
30
0
40
1.700
0
CIRCLE
5
2D0
100
AcDbEntity
8
OUTER_PROFILES
100
AcDbCircle
10
2487.262
20
1412.798
30
0
40
6.500
0
CIRCLE
5
2D1
100
AcDbEntity
8
OUTER_PROFILES
100
AcDbCircle
10
1905.262
20
1236.048
30
0
40
1.700
0
CIRCLE
5
2D2
100
AcDbEntity
8
OUTER_PROFILES
100
AcDbCircle
10
2096.262
20
1046.048
30
0
40
1.700
0
SPLINE
5
2D3
100
AcDbEntity
8
OUTER_PROFILES
100
AcDbSpline
70
8
71
3
72
20
73
16
74
0
40
0.000000
40
0.000000
40
0.000000
40
0.000000
40
0.159237
40
0.159237
40
0.159237
40
0.268187
40
0.268187
40
0.268187
40
0.436219
40
0.436219
40
0.436219
40
0.580328
40
0.580328
40
0.580328
40
0.728635
40
0.728635
40
0.728635
40
0.728635
10
2496.524
20
1044.348
30
0
10
2496.142
20
1044.348
30
0
10
2495.719
20
1044.320
30
0
10
2495.349
20
1044.468
30
0
10
2495.097
20
1044.570
30
0
10
2494.847
20
1044.793
30
0
10
2494.691
20
1045.103
30
0
10
2494.450
20
1045.581
30
0
10
2494.412
20
1046.240
30
0
10
2494.598
20
1046.773
30
0
10
2494.757
20
1047.230
30
0
10
2495.085
20
1047.543
30
0
10
2495.426
20
1047.655
30
0
10
2495.777
20
1047.771
30
0
10
2496.168
20
1047.748
30
0
10
2496.524
20
1047.748
30
0
0
LINE
5
2D4
100
AcDbEntity
8
OUTER_PROFILES
100
AcDbLine
10
2496.524
20
1047.748
30
0
11
2496.524
21
1044.348
31
0
0
CIRCLE
5
2D5
100
AcDbEntity
8
OUTER_PROFILES
100
AcDbCircle
10
2504.524
20
1248.548
30
0
40
1.700
0
CIRCLE
5
2D6
100
AcDbEntity
8
OUTER_PROFILES
100
AcDbCircle
10
2504.524
20
1093.548
30
0
40
1.700
0
CIRCLE
5
2D7
100
AcDbEntity
8
OUTER_PROFILES
100
AcDbCircle
10
2504.524
20
1403.548
30
0
40
1.700
0
CIRCLE
5
2D8
100
AcDbEntity
8
OUTER_PROFILES
100
AcDbCircle
10
2502.024
20
1326.048
30
0
40
4.500
0
CIRCLE
5
2D9
100
AcDbEntity
8
OUTER_PROFILES
100
AcDbCircle
10
2502.024
20
1171.048
30
0
40
4.500
0
CIRCLE
5
2DA
100
AcDbEntity
8
OUTER_PROFILES
100
AcDbCircle
10
1931.262
20
1021.786
30
0
40
1.700
0
CIRCLE
5
2DB
100
AcDbEntity
8
OUTER_PROFILES
100
AcDbCircle
10
2415.262
20
1021.786
30
0
40
1.700
0
CIRCLE
5
2DC
100
AcDbEntity
8
OUTER_PROFILES
100
AcDbCircle
10
1905.262
20
1021.786
30
0
40
1.700
0
CIRCLE
5
2DD
100
AcDbEntity
8
OUTER_PROFILES
100
AcDbCircle
10
2487.262
20
1021.786
30
0
40
1.700
0
CIRCLE
5
2DE
100
AcDbEntity
8
OUTER_PROFILES
100
AcDbCircle
10
1977.262
20
1021.786
30
0
40
1.700
0
CIRCLE
5
2DF
100
AcDbEntity
8
OUTER_PROFILES
100
AcDbCircle
10
2461.262
20
1021.786
30
0
40
1.700
0
CIRCLE
5
2E0
100
AcDbEntity
8
OUTER_PROFILES
100
AcDbCircle
10
2196.262
20
1444.496
30
0
40
8.750
0
LWPOLYLINE
5
2E1
100
AcDbEntity
8
OUTER_PROFILES
100
AcDbPolyline
90
26
70
1
10
2494.262
20
1432.234
10
2494.262
20
1455.496
10
1898.262
20
1455.496
10
1898.262
20
1434.496
10
1898.262
20
1428.234
10
1898.262
20
1427.023
10
1898.262
20
1425.812
10
1885.000
20
1425.812
10
1885.000
20
1039.048
10
1898.262
20
1039.048
10
1898.262
20
1036.786
10
1898.262
20
1012.524
10
1898.262
20
994.262
10
1898.262
20
984.000
42
-0.414214
10
1911.262
20
971.000
10
2481.262
20
971.000
42
-0.414214
10
2494.262
20
984.000
10
2494.262
20
994.262
10
2494.262
20
1012.524
10
2494.262
20
1036.786
10
2494.262
20
1039.048
10
2507.524
20
1039.048
10
2507.524
20
1425.812
10
2494.262
20
1425.812
10
2494.262
20
1427.023
10
2494.262
20
1428.234
0
TEXT
5
2E2
100
AcDbEntity
8
PART_LABELS
100
AcDbText
10
623.000
20
1276.500
30
0
40
50.000
1
2CN026-120000
72
1
11
623.000
21
1276.500
31
0
100
AcDbText
73
2
0
CIRCLE
5
2E3
100
AcDbEntity
8
OUTER_PROFILES
100
AcDbCircle
10
623.191
20
1190.000
30
0
40
1.700
0
CIRCLE
5
2E4
100
AcDbEntity
8
OUTER_PROFILES
100
AcDbCircle
10
123.191
20
1190.000
30
0
40
1.700
0
CIRCLE
5
2E5
100
AcDbEntity
8
OUTER_PROFILES
100
AcDbCircle
10
456.525
20
1190.000
30
0
40
1.700
0
CIRCLE
5
2E6
100
AcDbEntity
8
OUTER_PROFILES
100
AcDbCircle
10
789.858
20
1190.000
30
0
40
1.700
0
CIRCLE
5
2E7
100
AcDbEntity
8
OUTER_PROFILES
100
AcDbCircle
10
1123.191
20
1190.000
30
0
40
1.700
0
CIRCLE
5
2E8
100
AcDbEntity
8
OUTER_PROFILES
100
AcDbCircle
10
33.929
20
1219.262
30
0
40
1.700
0
CIRCLE
5
2E9
100
AcDbEntity
8
OUTER_PROFILES
100
AcDbCircle
10
33.929
20
1201.262
30
0
40
1.700
0
CIRCLE
5
2EA
100
AcDbEntity
8
OUTER_PROFILES
100
AcDbCircle
10
33.929
20
1238.762
30
0
40
1.700
0
CIRCLE
5
2EB
100
AcDbEntity
8
OUTER_PROFILES
100
AcDbCircle
10
1212.453
20
1219.262
30
0
40
1.700
0
CIRCLE
5
2EC
100
AcDbEntity
8
OUTER_PROFILES
100
AcDbCircle
10
1212.453
20
1201.262
30
0
40
1.700
0
CIRCLE
5
2ED
100
AcDbEntity
8
OUTER_PROFILES
100
AcDbCircle
10
107.191
20
1317.024
30
0
40
1.700
0
CIRCLE
5
2EE
100
AcDbEntity
8
OUTER_PROFILES
100
AcDbCircle
10
639.191
20
1317.024
30
0
40
1.700
0
CIRCLE
5
2EF
100
AcDbEntity
8
OUTER_PROFILES
100
AcDbCircle
10
1139.191
20
1317.024
30
0
40
1.700
0
CIRCLE
5
2F0
100
AcDbEntity
8
OUTER_PROFILES
100
AcDbCircle
10
1107.191
20
1317.024
30
0
40
1.700
0
CIRCLE
5
2F1
100
AcDbEntity
8
OUTER_PROFILES
100
AcDbCircle
10
607.191
20
1317.024
30
0
40
1.700
0
CIRCLE
5
2F2
100
AcDbEntity
8
OUTER_PROFILES
100
AcDbCircle
10
139.191
20
1317.024
30
0
40
1.700
0
CIRCLE
5
2F3
100
AcDbEntity
8
OUTER_PROFILES
100
AcDbCircle
10
139.191
20
1235.762
30
0
40
1.700
0
CIRCLE
5
2F4
100
AcDbEntity
8
OUTER_PROFILES
100
AcDbCircle
10
639.191
20
1235.762
30
0
40
1.700
0
CIRCLE
5
2F5
100
AcDbEntity
8
OUTER_PROFILES
100
AcDbCircle
10
1139.191
20
1235.762
30
0
40
1.700
0
CIRCLE
5
2F6
100
AcDbEntity
8
OUTER_PROFILES
100
AcDbCircle
10
1107.191
20
1235.762
30
0
40
1.700
0
CIRCLE
5
2F7
100
AcDbEntity
8
OUTER_PROFILES
100
AcDbCircle
10
607.191
20
1235.762
30
0
40
1.700
0
CIRCLE
5
2F8
100
AcDbEntity
8
OUTER_PROFILES
100
AcDbCircle
10
107.191
20
1235.762
30
0
40
1.700
0
CIRCLE
5
2F9
100
AcDbEntity
8
OUTER_PROFILES
100
AcDbCircle
10
623.191
20
1362.786
30
0
40
1.700
0
CIRCLE
5
2FA
100
AcDbEntity
8
OUTER_PROFILES
100
AcDbCircle
10
123.191
20
1362.786
30
0
40
1.700
0
CIRCLE
5
2FB
100
AcDbEntity
8
OUTER_PROFILES
100
AcDbCircle
10
456.525
20
1362.786
30
0
40
1.700
0
CIRCLE
5
2FC
100
AcDbEntity
8
OUTER_PROFILES
100
AcDbCircle
10
789.858
20
1362.786
30
0
40
1.700
0
CIRCLE
5
2FD
100
AcDbEntity
8
OUTER_PROFILES
100
AcDbCircle
10
1123.191
20
1362.786
30
0
40
1.700
0
CIRCLE
5
2FE
100
AcDbEntity
8
OUTER_PROFILES
100
AcDbCircle
10
33.929
20
1314.024
30
0
40
1.700
0
CIRCLE
5
2FF
100
AcDbEntity
8
OUTER_PROFILES
100
AcDbCircle
10
33.929
20
1333.524
30
0
40
1.700
0
CIRCLE
5
300
100
AcDbEntity
8
OUTER_PROFILES
100
AcDbCircle
10
33.929
20
1351.524
30
0
40
1.700
0
CIRCLE
5
301
100
AcDbEntity
8
OUTER_PROFILES
100
AcDbCircle
10
1212.453
20
1333.524
30
0
40
1.700
0
CIRCLE
5
302
100
AcDbEntity
8
OUTER_PROFILES
100
AcDbCircle
10
1212.453
20
1351.524
30
0
40
1.700
0
LINE
5
303
100
AcDbEntity
8
OUTER_PROFILES
100
AcDbLine
10
23.353
20
1301.291
30
0
11
13.929
21
1310.715
31
0
0
LINE
5
304
100
AcDbEntity
8
OUTER_PROFILES
100
AcDbLine
10
13.929
20
1310.715
30
0
11
13.929
21
1309.786
31
0
0
LINE
5
305
100
AcDbEntity
8
OUTER_PROFILES
100
AcDbLine
10
13.929
20
1309.786
30
0
11
0.000
21
1309.786
31
0
0
LINE
5
306
100
AcDbEntity
8
OUTER_PROFILES
100
AcDbLine
10
0.000
20
1309.786
30
0
11
0.000
21
1301.786
31
0
0
SPLINE
5
307
100
AcDbEntity
8
OUTER_PROFILES
100
AcDbSpline
70
8
71
3
72
11
73
7
74
0
40
-3.141593
40
-3.141593
40
-3.141593
40
-3.141593
40
-1.668627
40
-1.668627
40
-1.668627
40
-1.570796
40
-1.570796
40
-1.570796
40
-1.570796
10
0.000
20
1301.786
30
0
10
0.000
20
1301.079
30
0
10
0.414
20
1300.372
30
0
10
0.902
20
1299.665
30
0
10
0.935
20
1299.618
30
0
10
0.967
20
1299.571
30
0
10
1.000
20
1299.524
30
0
0
LINE
5
308
100
AcDbEntity
8
OUTER_PROFILES
100
AcDbLine
10
1.000
20
1299.524
30
0
11
23.424
21
1277.100
31
0
0
ARC
5
309
100
AcDbEntity
8
OUTER_PROFILES
100
AcDbCircle
10
22.717
20
1276.393
30
0
40
1.000
100
AcDbArc
50
315.0000
51
45.0000
0
LINE
5
30A
100
AcDbEntity
8
OUTER_PROFILES
100
AcDbLine
10
23.424
20
1275.686
30
0
11
1.000
21
1253.262
31
0
0
SPLINE
5
30B
100
AcDbEntity
8
OUTER_PROFILES
100
AcDbSpline
70
8
71
3
72
11
73
7
74
0
40
1.570796
40
1.570796
40
1.570796
40
1.570796
40
1.668627
40
1.668627
40
1.668627
40
3.141593
40
3.141593
40
3.141593
40
3.141593
10
1.000
20
1253.262
30
0
10
0.967
20
1253.215
30
0
10
0.935
20
1253.168
30
0
10
0.902
20
1253.121
30
0
10
0.414
20
1252.414
30
0
10
0.000
20
1251.707
30
0
10
0.000
20
1251.000
30
0
0
LINE
5
30C
100
AcDbEntity
8
OUTER_PROFILES
100
AcDbLine
10
0.000
20
1251.000
30
0
11
0.000
21
1243.000
31
0
0
LINE
5
30D
100
AcDbEntity
8
OUTER_PROFILES
100
AcDbLine
10
0.000
20
1243.000
30
0
11
14.859
21
1243.000
31
0
0
LINE
5
30E
100
AcDbEntity
8
OUTER_PROFILES
100
AcDbLine
10
14.859
20
1243.000
30
0
11
23.353
21
1251.495
31
0
0
ARC
5
30F
100
AcDbEntity
8
OUTER_PROFILES
100
AcDbCircle
10
24.060
20
1250.787
30
0
40
1.000
100
AcDbArc
50
45.0000
51
135.0000
0
LINE
5
310
100
AcDbEntity
8
OUTER_PROFILES
100
AcDbLine
10
24.767
20
1251.495
30
0
11
33.262
21
1243.000
31
0
0
LINE
5
311
100
AcDbEntity
8
OUTER_PROFILES
100
AcDbLine
10
33.262
20
1243.000
30
0
11
40.891
21
1243.000
31
0
0
LINE
5
312
100
AcDbEntity
8
OUTER_PROFILES
100
AcDbLine
10
40.891
20
1243.000
30
0
11
48.891
21
1251.000
31
0
0
LINE
5
313
100
AcDbEntity
8
OUTER_PROFILES
100
AcDbLine
10
48.891
20
1251.000
30
0
11
48.891
21
1253.262
31
0
0
LINE
5
314
100
AcDbEntity
8
OUTER_PROFILES
100
AcDbLine
10
48.891
20
1253.262
30
0
11
51.191
21
1253.262
31
0
0
LINE
5
315
100
AcDbEntity
8
OUTER_PROFILES
100
AcDbLine
10
51.191
20
1253.262
30
0
11
51.191
21
1250.962
31
0
0
LINE
5
316
100
AcDbEntity
8
OUTER_PROFILES
100
AcDbLine
10
51.191
20
1250.962
30
0
11
48.929
21
1250.962
31
0
0
LINE
5
317
100
AcDbEntity
8
OUTER_PROFILES
100
AcDbLine
10
48.929
20
1250.962
30
0
11
39.729
21
1241.762
31
0
0
LINE
5
318
100
AcDbEntity
8
OUTER_PROFILES
100
AcDbLine
10
39.729
20
1241.762
30
0
11
30.929
21
1241.762
31
0
0
LINE
5
319
100
AcDbEntity
8
OUTER_PROFILES
100
AcDbLine
10
30.929
20
1241.762
30
0
11
30.929
21
1193.333
31
0
0
LINE
5
31A
100
AcDbEntity
8
OUTER_PROFILES
100
AcDbLine
10
30.929
20
1193.333
30
0
11
48.929
21
1193.333
31
0
0
SPLINE
5
31B
100
AcDbEntity
8
OUTER_PROFILES
100
AcDbSpline
70
8
71
3
72
11
73
7
74
0
40
-3.141593
40
-3.141593
40
-3.141593
40
-3.141593
40
-1.668627
40
-1.668627
40
-1.668627
40
-1.570796
40
-1.570796
40
-1.570796
40
-1.570796
10
48.929
20
1193.333
30
0
10
49.636
20
1193.333
30
0
10
50.343
20
1193.746
30
0
10
51.050
20
1194.235
30
0
10
51.097
20
1194.267
30
0
10
51.144
20
1194.300
30
0
10
51.191
20
1194.333
30
0
0
LINE
5
31C
100
AcDbEntity
8
OUTER_PROFILES
100
AcDbLine
10
51.191
20
1194.333
30
0
11
51.262
21
1194.262
31
0
0
SPLINE
5
31D
100
AcDbEntity
8
OUTER_PROFILES
100
AcDbSpline
70
8
71
3
72
11
73
7
74
0
40
1.570796
40
1.570796
40
1.570796
40
1.570796
40
1.668627
40
1.668627
40
1.668627
40
3.141593
40
3.141593
40
3.141593
40
3.141593
10
51.262
20
1194.262
30
0
10
51.229
20
1194.215
30
0
10
51.197
20
1194.168
30
0
10
51.164
20
1194.121
30
0
10
50.676
20
1193.414
30
0
10
50.262
20
1192.707
30
0
10
50.262
20
1192.000
30
0
0
LINE
5
31E
100
AcDbEntity
8
OUTER_PROFILES
100
AcDbLine
10
50.262
20
1192.000
30
0
11
50.262
21
1174.000
31
0
0
LINE
5
31F
100
AcDbEntity
8
OUTER_PROFILES
100
AcDbLine
10
50.262
20
1174.000
30
0
11
1196.121
21
1174.000
31
0
0
LINE
5
320
100
AcDbEntity
8
OUTER_PROFILES
100
AcDbLine
10
1196.121
20
1174.000
30
0
11
1196.121
21
1192.000
31
0
0
SPLINE
5
321
100
AcDbEntity
8
OUTER_PROFILES
100
AcDbSpline
70
8
71
3
72
11
73
7
74
0
40
-3.141593
40
-3.141593
40
-3.141593
40
-3.141593
40
-1.668627
40
-1.668627
40
-1.668627
40
-1.570796
40
-1.570796
40
-1.570796
40
-1.570796
10
1196.121
20
1192.000
30
0
10
1196.121
20
1192.707
30
0
10
1195.707
20
1193.414
30
0
10
1195.218
20
1194.121
30
0
10
1195.186
20
1194.168
30
0
10
1195.153
20
1194.215
30
0
10
1195.121
20
1194.262
30
0
0
LINE
5
322
100
AcDbEntity
8
OUTER_PROFILES
100
AcDbLine
10
1195.121
20
1194.262
30
0
11
1195.191
21
1194.333
31
0
0
SPLINE
5
323
100
AcDbEntity
8
OUTER_PROFILES
100
AcDbSpline
70
8
71
3
72
11
73
7
74
0
40
1.570796
40
1.570796
40
1.570796
40
1.570796
40
1.668627
40
1.668627
40
1.668627
40
3.141593
40
3.141593
40
3.141593
40
3.141593
10
1195.191
20
1194.333
30
0
10
1195.238
20
1194.300
30
0
10
1195.285
20
1194.267
30
0
10
1195.332
20
1194.235
30
0
10
1196.039
20
1193.746
30
0
10
1196.746
20
1193.333
30
0
10
1197.453
20
1193.333
30
0
0
LINE
5
324
100
AcDbEntity
8
OUTER_PROFILES
100
AcDbLine
10
1197.453
20
1193.333
30
0
11
1215.453
21
1193.333
31
0
0
LINE
5
325
100
AcDbEntity
8
OUTER_PROFILES
100
AcDbLine
10
1215.453
20
1193.333
30
0
11
1215.453
21
1241.762
31
0
0
LINE
5
326
100
AcDbEntity
8
OUTER_PROFILES
100
AcDbLine
10
1215.453
20
1241.762
30
0
11
1206.653
21
1241.762
31
0
0
LINE
5
327
100
AcDbEntity
8
OUTER_PROFILES
100
AcDbLine
10
1206.653
20
1241.762
30
0
11
1197.453
21
1250.962
31
0
0
LINE
5
328
100
AcDbEntity
8
OUTER_PROFILES
100
AcDbLine
10
1197.453
20
1250.962
30
0
11
1195.191
21
1250.962
31
0
0
LINE
5
329
100
AcDbEntity
8
OUTER_PROFILES
100
AcDbLine
10
1195.191
20
1250.962
30
0
11
1195.191
21
1253.262
31
0
0
LINE
5
32A
100
AcDbEntity
8
OUTER_PROFILES
100
AcDbLine
10
1195.191
20
1253.262
30
0
11
1197.491
21
1253.262
31
0
0
LINE
5
32B
100
AcDbEntity
8
OUTER_PROFILES
100
AcDbLine
10
1197.491
20
1253.262
30
0
11
1197.491
21
1251.000
31
0
0
LINE
5
32C
100
AcDbEntity
8
OUTER_PROFILES
100
AcDbLine
10
1197.491
20
1251.000
30
0
11
1205.491
21
1243.000
31
0
0
LINE
5
32D
100
AcDbEntity
8
OUTER_PROFILES
100
AcDbLine
10
1205.491
20
1243.000
30
0
11
1213.121
21
1243.000
31
0
0
LINE
5
32E
100
AcDbEntity
8
OUTER_PROFILES
100
AcDbLine
10
1213.121
20
1243.000
30
0
11
1221.615
21
1251.495
31
0
0
ARC
5
32F
100
AcDbEntity
8
OUTER_PROFILES
100
AcDbCircle
10
1222.322
20
1250.787
30
0
40
1.000
100
AcDbArc
50
45.0000
51
135.0000
0
LINE
5
330
100
AcDbEntity
8
OUTER_PROFILES
100
AcDbLine
10
1223.029
20
1251.495
30
0
11
1231.524
21
1243.000
31
0
0
LINE
5
331
100
AcDbEntity
8
OUTER_PROFILES
100
AcDbLine
10
1231.524
20
1243.000
30
0
11
1246.382
21
1243.000
31
0
0
LINE
5
332
100
AcDbEntity
8
OUTER_PROFILES
100
AcDbLine
10
1246.382
20
1243.000
30
0
11
1246.382
21
1251.000
31
0
0
SPLINE
5
333
100
AcDbEntity
8
OUTER_PROFILES
100
AcDbSpline
70
8
71
3
72
11
73
7
74
0
40
-3.141593
40
-3.141593
40
-3.141593
40
-3.141593
40
-1.668627
40
-1.668627
40
-1.668627
40
-1.570796
40
-1.570796
40
-1.570796
40
-1.570796
10
1246.382
20
1251.000
30
0
10
1246.382
20
1251.707
30
0
10
1245.969
20
1252.414
30
0
10
1245.480
20
1253.121
30
0
10
1245.448
20
1253.168
30
0
10
1245.415
20
1253.215
30
0
10
1245.382
20
1253.262
30
0
0
LINE
5
334
100
AcDbEntity
8
OUTER_PROFILES
100
AcDbLine
10
1245.382
20
1253.262
30
0
11
1222.959
21
1275.686
31
0
0
ARC
5
335
100
AcDbEntity
8
OUTER_PROFILES
100
AcDbCircle
10
1223.666
20
1276.393
30
0
40
1.000
100
AcDbArc
50
135.0000
51
225.0000
0
LINE
5
336
100
AcDbEntity
8
OUTER_PROFILES
100
AcDbLine
10
1222.959
20
1277.100
30
0
11
1245.382
21
1299.524
31
0
0
SPLINE
5
337
100
AcDbEntity
8
OUTER_PROFILES
100
AcDbSpline
70
8
71
3
72
11
73
7
74
0
40
1.570796
40
1.570796
40
1.570796
40
1.570796
40
1.668627
40
1.668627
40
1.668627
40
3.141593
40
3.141593
40
3.141593
40
3.141593
10
1245.382
20
1299.524
30
0
10
1245.415
20
1299.571
30
0
10
1245.448
20
1299.618
30
0
10
1245.480
20
1299.665
30
0
10
1245.969
20
1300.372
30
0
10
1246.382
20
1301.079
30
0
10
1246.382
20
1301.786
30
0
0
LINE
5
338
100
AcDbEntity
8
OUTER_PROFILES
100
AcDbLine
10
1246.382
20
1301.786
30
0
11
1246.382
21
1309.786
31
0
0
LINE
5
339
100
AcDbEntity
8
OUTER_PROFILES
100
AcDbLine
10
1246.382
20
1309.786
30
0
11
1232.453
21
1309.786
31
0
0
LINE
5
33A
100
AcDbEntity
8
OUTER_PROFILES
100
AcDbLine
10
1232.453
20
1309.786
30
0
11
1232.453
21
1310.715
31
0
0
LINE
5
33B
100
AcDbEntity
8
OUTER_PROFILES
100
AcDbLine
10
1232.453
20
1310.715
30
0
11
1223.029
21
1301.291
31
0
0
ARC
5
33C
100
AcDbEntity
8
OUTER_PROFILES
100
AcDbCircle
10
1222.322
20
1301.998
30
0
40
1.000
100
AcDbArc
50
225.0000
51
315.0000
0
LINE
5
33D
100
AcDbEntity
8
OUTER_PROFILES
100
AcDbLine
10
1221.615
20
1301.291
30
0
11
1212.121
21
1310.786
31
0
0
LINE
5
33E
100
AcDbEntity
8
OUTER_PROFILES
100
AcDbLine
10
1212.121
20
1310.786
30
0
11
1206.491
21
1310.786
31
0
0
LINE
5
33F
100
AcDbEntity
8
OUTER_PROFILES
100
AcDbLine
10
1206.491
20
1310.786
30
0
11
1197.491
21
1301.786
31
0
0
LINE
5
340
100
AcDbEntity
8
OUTER_PROFILES
100
AcDbLine
10
1197.491
20
1301.786
30
0
11
1197.491
21
1299.524
31
0
0
LINE
5
341
100
AcDbEntity
8
OUTER_PROFILES
100
AcDbLine
10
1197.491
20
1299.524
30
0
11
1195.191
21
1299.524
31
0
0
LINE
5
342
100
AcDbEntity
8
OUTER_PROFILES
100
AcDbLine
10
1195.191
20
1299.524
30
0
11
1195.191
21
1301.824
31
0
0
LINE
5
343
100
AcDbEntity
8
OUTER_PROFILES
100
AcDbLine
10
1195.191
20
1301.824
30
0
11
1197.453
21
1301.824
31
0
0
LINE
5
344
100
AcDbEntity
8
OUTER_PROFILES
100
AcDbLine
10
1197.453
20
1301.824
30
0
11
1206.653
21
1311.024
31
0
0
LINE
5
345
100
AcDbEntity
8
OUTER_PROFILES
100
AcDbLine
10
1206.653
20
1311.024
30
0
11
1215.453
21
1311.024
31
0
0
LINE
5
346
100
AcDbEntity
8
OUTER_PROFILES
100
AcDbLine
10
1215.453
20
1311.024
30
0
11
1215.453
21
1359.453
31
0
0
LINE
5
347
100
AcDbEntity
8
OUTER_PROFILES
100
AcDbLine
10
1215.453
20
1359.453
30
0
11
1197.453
21
1359.453
31
0
0
SPLINE
5
348
100
AcDbEntity
8
OUTER_PROFILES
100
AcDbSpline
70
8
71
3
72
11
73
7
74
0
40
-3.141593
40
-3.141593
40
-3.141593
40
-3.141593
40
-1.668627
40
-1.668627
40
-1.668627
40
-1.570796
40
-1.570796
40
-1.570796
40
-1.570796
10
1197.453
20
1359.453
30
0
10
1196.746
20
1359.453
30
0
10
1196.039
20
1359.039
30
0
10
1195.332
20
1358.551
30
0
10
1195.285
20
1358.518
30
0
10
1195.238
20
1358.486
30
0
10
1195.191
20
1358.453
30
0
0
LINE
5
349
100
AcDbEntity
8
OUTER_PROFILES
100
AcDbLine
10
1195.191
20
1358.453
30
0
11
1195.121
21
1358.524
31
0
0
SPLINE
5
34A
100
AcDbEntity
8
OUTER_PROFILES
100
AcDbSpline
70
8
71
3
72
11
73
7
74
0
40
1.570796
40
1.570796
40
1.570796
40
1.570796
40
1.668627
40
1.668627
40
1.668627
40
3.141593
40
3.141593
40
3.141593
40
3.141593
10
1195.121
20
1358.524
30
0
10
1195.153
20
1358.571
30
0
10
1195.186
20
1358.618
30
0
10
1195.218
20
1358.665
30
0
10
1195.707
20
1359.372
30
0
10
1196.121
20
1360.079
30
0
10
1196.121
20
1360.786
30
0
0
LINE
5
34B
100
AcDbEntity
8
OUTER_PROFILES
100
AcDbLine
10
1196.121
20
1360.786
30
0
11
1196.121
21
1378.786
31
0
0
LINE
5
34C
100
AcDbEntity
8
OUTER_PROFILES
100
AcDbLine
10
1196.121
20
1378.786
30
0
11
50.262
21
1378.786
31
0
0
LINE
5
34D
100
AcDbEntity
8
OUTER_PROFILES
100
AcDbLine
10
50.262
20
1378.786
30
0
11
50.262
21
1360.786
31
0
0
SPLINE
5
34E
100
AcDbEntity
8
OUTER_PROFILES
100
AcDbSpline
70
8
71
3
72
11
73
7
74
0
40
-3.141593
40
-3.141593
40
-3.141593
40
-3.141593
40
-1.668627
40
-1.668627
40
-1.668627
40
-1.570796
40
-1.570796
40
-1.570796
40
-1.570796
10
50.262
20
1360.786
30
0
10
50.262
20
1360.079
30
0
10
50.676
20
1359.372
30
0
10
51.164
20
1358.665
30
0
10
51.197
20
1358.618
30
0
10
51.229
20
1358.571
30
0
10
51.262
20
1358.524
30
0
0
LINE
5
34F
100
AcDbEntity
8
OUTER_PROFILES
100
AcDbLine
10
51.262
20
1358.524
30
0
11
51.191
21
1358.453
31
0
0
SPLINE
5
350
100
AcDbEntity
8
OUTER_PROFILES
100
AcDbSpline
70
8
71
3
72
11
73
7
74
0
40
1.570796
40
1.570796
40
1.570796
40
1.570796
40
1.668627
40
1.668627
40
1.668627
40
3.141593
40
3.141593
40
3.141593
40
3.141593
10
51.191
20
1358.453
30
0
10
51.144
20
1358.486
30
0
10
51.097
20
1358.518
30
0
10
51.050
20
1358.551
30
0
10
50.343
20
1359.039
30
0
10
49.636
20
1359.453
30
0
10
48.929
20
1359.453
30
0
0
LINE
5
351
100
AcDbEntity
8
OUTER_PROFILES
100
AcDbLine
10
48.929
20
1359.453
30
0
11
30.929
21
1359.453
31
0
0
LINE
5
352
100
AcDbEntity
8
OUTER_PROFILES
100
AcDbLine
10
30.929
20
1359.453
30
0
11
30.929
21
1311.024
31
0
0
LINE
5
353
100
AcDbEntity
8
OUTER_PROFILES
100
AcDbLine
10
30.929
20
1311.024
30
0
11
39.729
21
1311.024
31
0
0
LINE
5
354
100
AcDbEntity
8
OUTER_PROFILES
100
AcDbLine
10
39.729
20
1311.024
30
0
11
48.929
21
1301.824
31
0
0
LINE
5
355
100
AcDbEntity
8
OUTER_PROFILES
100
AcDbLine
10
48.929
20
1301.824
30
0
11
51.191
21
1301.824
31
0
0
LINE
5
356
100
AcDbEntity
8
OUTER_PROFILES
100
AcDbLine
10
51.191
20
1301.824
30
0
11
51.191
21
1299.524
31
0
0
LINE
5
357
100
AcDbEntity
8
OUTER_PROFILES
100
AcDbLine
10
51.191
20
1299.524
30
0
11
48.891
21
1299.524
31
0
0
LINE
5
358
100
AcDbEntity
8
OUTER_PROFILES
100
AcDbLine
10
48.891
20
1299.524
30
0
11
48.891
21
1301.786
31
0
0
LINE
5
359
100
AcDbEntity
8
OUTER_PROFILES
100
AcDbLine
10
48.891
20
1301.786
30
0
11
39.891
21
1310.786
31
0
0
LINE
5
35A
100
AcDbEntity
8
OUTER_PROFILES
100
AcDbLine
10
39.891
20
1310.786
30
0
11
34.262
21
1310.786
31
0
0
LINE
5
35B
100
AcDbEntity
8
OUTER_PROFILES
100
AcDbLine
10
34.262
20
1310.786
30
0
11
24.767
21
1301.291
31
0
0
ARC
5
35C
100
AcDbEntity
8
OUTER_PROFILES
100
AcDbCircle
10
24.060
20
1301.998
30
0
40
1.000
100
AcDbArc
50
225.0000
51
315.0000
0
ENDSEC
0
SECTION
2
OBJECTS
0
ENDSEC
0
EOF