0
SECTION
2
HEADER
9
$ACADVER
1
AC1015
9
$INSUNITS
70
4
9
$HANDSEED
5
FFFF
0
ENDSEC
0
SECTION
2
TABLES
0
TABLE
2
LTYPE
5
100
100
AcDbSymbolTable
70
1
0
LTYPE
5
101
100
AcDbSymbolTableRecord
100
AcDbLinetypeTableRecord
2
Continuous
70
0
3
Solid line
72
65
73
0
40
0.0
0
ENDTAB
0
TABLE
2
LAYER
5
102
100
AcDbSymbolTable
70
5
0
LAYER
5
103
100
AcDbSymbolTableRecord
100
AcDbLayerDefinition
2
0
70
0
62
7
6
Continuous
0
LAYER
5
104
100
AcDbSymbolTableRecord
100
AcDbLayerDefinition
2
SHEET_BORDER
70
0
62
7
6
Continuous
0
LAYER
5
105
100
AcDbSymbolTableRecord
100
AcDbLayerDefinition
2
PART_LABELS
70
0
62
7
6
Continuous
0
LAYER
5
106
100
AcDbSymbolTableRecord
100
AcDbLayerDefinition
2
OUTER_PROFILES
70
0
62
7
6
Continuous
0
LAYER
5
107
100
AcDbSymbolTableRecord
100
AcDbLayerDefinition
2
INTERIOR_PROFILES
70
0
62
7
6
Continuous
0
ENDTAB
0
TABLE
2
STYLE
5
108
100
AcDbSymbolTable
70
1
0
STYLE
5
109
100
AcDbSymbolTableRecord
100
AcDbTextStyleTableRecord
2
Standard
70
0
40
0
41
1
3
txt
0
ENDTAB
0
ENDSEC
0
SECTION
2
BLOCKS
0
BLOCK
5
10A
100
AcDbEntity
8
0
100
AcDbBlockBegin
2
*Model_Space
70
0
10
0
20
0
30
0
3
*Model_Space
1

0
ENDBLK
5
10B
100
AcDbEntity
8
0
100
AcDbBlockEnd
0
BLOCK
5
10C
100
AcDbEntity
8
0
100
AcDbBlockBegin
2
*Paper_Space
70
0
10
0
20
0
30
0
3
*Paper_Space
1

0
ENDBLK
5
10D
100
AcDbEntity
8
0
100
AcDbBlockEnd
0
ENDSEC
0
SECTION
2
ENTITIES
0
LWPOLYLINE
5
10E
100
AcDbEntity
8
SHEET_BORDER
100
AcDbPolyline
90
5
70
1
10
0.000
20
0.000
10
3050.000
20
0.000
10
3050.000
20
1525.000
10
0.000
20
1525.000
10
0.000
20
0.000
0
TEXT
5
10F
100
AcDbEntity
8
PART_LABELS
100
AcDbText
10
1239.000
20
436.000
30
0
40
50.000
1
2WL001-000000
72
1
11
1239.000
21
436.000
31
0
100
AcDbText
73
2
0
LWPOLYLINE
5
110
100
AcDbEntity
8
OUTER_PROFILES
100
AcDbPolyline
90
4
70
1
10
2477.524
20
872.000
10
0.000
20
872.000
10
0.000
20
0.000
10
2477.524
20
0.000
0
TEXT
5
111
100
AcDbEntity
8
PART_LABELS
100
AcDbText
10
959.500
20
1081.500
30
0
40
50.000
1
2CVH19-346LL0-Ruth
72
1
11
959.500
21
1081.500
31
0
100
AcDbText
73
2
0
LWPOLYLINE
5
112
100
AcDbEntity
8
OUTER_PROFILES
100
AcDbPolyline
90
32
70
1
10
9.495
20
879.424
42
0.414214
10
9.495
20
880.838
10
4.000
20
886.333
10
4.000
20
898.191
10
9.495
20
903.686
42
0.414214
10
9.495
20
905.100
10
3.954
20
910.641
42
-0.198912
10
0.000
20
920.186
10
0.000
20
1257.524
10
11.262
20
1257.524
10
11.262
20
1259.786
10
11.262
20
1269.048
10
11.262
20
1269.250
42
0.356394
10
19.262
20
1279.048
10
19.262
20
1289.048
10
1899.262
20
1289.048
10
1899.262
20
1279.048
42
0.356394
10
1907.262
20
1269.250
10
1907.262
20
1266.786
10
1907.262
20
1259.786
10
1907.262
20
1257.524
10
1918.524
20
1257.524
10
1918.524
20
920.186
42
-0.198912
10
1914.570
20
910.641
10
1909.029
20
905.100
42
0.414214
10
1909.029
20
903.686
10
1914.524
20
898.191
10
1914.524
20
886.333
10
1909.029
20
880.838
42
0.414214
10
1909.029
20
879.424
10
1914.453
20
874.000
10
4.071
20
874.000
0
CIRCLE
5
113
100
AcDbEntity
8
INTERIOR_PROFILES
100
AcDbCircle
10
1884.262
20
1279.048
30
0
40
1.700
0
CIRCLE
5
114
100
AcDbEntity
8
INTERIOR_PROFILES
100
AcDbCircle
10
584.262
20
1279.048
30
0
40
1.700
0
CIRCLE
5
115
100
AcDbEntity
8
INTERIOR_PROFILES
100
AcDbCircle
10
1659.262
20
1279.048
30
0
40
1.700
0
CIRCLE
5
116
100
AcDbEntity
8
INTERIOR_PROFILES
100
AcDbCircle
10
509.262
20
1279.048
30
0
40
1.700
0
CIRCLE
5
117
100
AcDbEntity
8
INTERIOR_PROFILES
100
AcDbCircle
10
1109.262
20
1279.048
30
0
40
1.700
0
CIRCLE
5
118
100
AcDbEntity
8
INTERIOR_PROFILES
100
AcDbCircle
10
1421.762
20
1279.048
30
0
40
1.700
0
CIRCLE
5
119
100
AcDbEntity
8
INTERIOR_PROFILES
100
AcDbCircle
10
1234.262
20
1279.048
30
0
40
1.700
0
CIRCLE
5
11A
100
AcDbEntity
8
INTERIOR_PROFILES
100
AcDbCircle
10
1184.262
20
1279.048
30
0
40
1.700
0
CIRCLE
5
11B
100
AcDbEntity
8
INTERIOR_PROFILES
100
AcDbCircle
10
209.262
20
1279.048
30
0
40
1.700
0
CIRCLE
5
11C
100
AcDbEntity
8
INTERIOR_PROFILES
100
AcDbCircle
10
1321.762
20
1279.048
30
0
40
1.700
0
CIRCLE
5
11D
100
AcDbEntity
8
INTERIOR_PROFILES
100
AcDbCircle
10
634.262
20
1279.048
30
0
40
1.700
0
CIRCLE
5
11E
100
AcDbEntity
8
INTERIOR_PROFILES
100
AcDbCircle
10
1521.762
20
1279.048
30
0
40
1.700
0
CIRCLE
5
11F
100
AcDbEntity
8
INTERIOR_PROFILES
100
AcDbCircle
10
109.262
20
1279.048
30
0
40
1.700
0
CIRCLE
5
120
100
AcDbEntity
8
INTERIOR_PROFILES
100
AcDbCircle
10
809.262
20
1279.048
30
0
40
1.700
0
CIRCLE
5
121
100
AcDbEntity
8
INTERIOR_PROFILES
100
AcDbCircle
10
34.262
20
1279.048
30
0
40
1.700
0
CIRCLE
5
122
100
AcDbEntity
8
INTERIOR_PROFILES
100
AcDbCircle
10
409.262
20
1279.048
30
0
40
1.700
0
CIRCLE
5
123
100
AcDbEntity
8
INTERIOR_PROFILES
100
AcDbCircle
10
1609.262
20
1279.048
30
0
40
1.700
0
CIRCLE
5
124
100
AcDbEntity
8
INTERIOR_PROFILES
100
AcDbCircle
10
1771.762
20
1279.048
30
0
40
1.700
0
CIRCLE
5
125
100
AcDbEntity
8
INTERIOR_PROFILES
100
AcDbCircle
10
909.262
20
1279.048
30
0
40
1.700
0
CIRCLE
5
126
100
AcDbEntity
8
INTERIOR_PROFILES
100
AcDbCircle
10
1179.262
20
876.500
30
0
40
1.250
0
CIRCLE
5
127
100
AcDbEntity
8
INTERIOR_PROFILES
100
AcDbCircle
10
309.262
20
892.262
30
0
40
5.000
0
CIRCLE
5
128
100
AcDbEntity
8
INTERIOR_PROFILES
100
AcDbCircle
10
1421.762
20
892.262
30
0
40
5.000
0
CIRCLE
5
129
100
AcDbEntity
8
INTERIOR_PROFILES
100
AcDbCircle
10
309.262
20
1279.048
30
0
40
1.700
0
CIRCLE
5
12A
100
AcDbEntity
8
INTERIOR_PROFILES
100
AcDbCircle
10
1845.762
20
889.262
30
0
40
1.700
0
CIRCLE
5
12B
100
AcDbEntity
8
INTERIOR_PROFILES
100
AcDbCircle
10
1690.762
20
889.262
30
0
40
1.700
0
CIRCLE
5
12C
100
AcDbEntity
8
INTERIOR_PROFILES
100
AcDbCircle
10
909.262
20
892.262
30
0
40
5.000
0
CIRCLE
5
12D
100
AcDbEntity
8
INTERIOR_PROFILES
100
AcDbCircle
10
1894.262
20
1226.524
30
0
40
6.500
0
CIRCLE
5
12E
100
AcDbEntity
8
INTERIOR_PROFILES
100
AcDbCircle
10
1899.262
20
1211.524
30
0
40
1.700
0
CIRCLE
5
12F
100
AcDbEntity
8
INTERIOR_PROFILES
100
AcDbCircle
10
1899.262
20
1241.524
30
0
40
1.700
0
CIRCLE
5
130
100
AcDbEntity
8
INTERIOR_PROFILES
100
AcDbCircle
10
1899.262
20
1181.524
30
0
40
1.700
0
CIRCLE
5
131
100
AcDbEntity
8
INTERIOR_PROFILES
100
AcDbCircle
10
1239.262
20
876.500
30
0
40
1.250
0
CIRCLE
5
132
100
AcDbEntity
8
INTERIOR_PROFILES
100
AcDbCircle
10
1768.262
20
885.762
30
0
40
4.500
0
CIRCLE
5
133
100
AcDbEntity
8
INTERIOR_PROFILES
100
AcDbCircle
10
709.262
20
1279.048
30
0
40
1.700
0
CIRCLE
5
134
100
AcDbEntity
8
INTERIOR_PROFILES
100
AcDbCircle
10
34.262
20
876.500
30
0
40
1.250
0
CIRCLE
5
135
100
AcDbEntity
8
INTERIOR_PROFILES
100
AcDbCircle
10
1009.262
20
1279.048
30
0
40
1.700
0
CIRCLE
5
136
100
AcDbEntity
8
INTERIOR_PROFILES
100
AcDbCircle
10
639.262
20
876.500
30
0
40
1.250
0
CIRCLE
5
137
100
AcDbEntity
8
INTERIOR_PROFILES
100
AcDbCircle
10
579.262
20
876.500
30
0
40
1.250
0
CIRCLE
5
138
100
AcDbEntity
8
INTERIOR_PROFILES
100
AcDbCircle
10
1879.262
20
876.500
30
0
40
1.250
0
CIRCLE
5
139
100
AcDbEntity
8
INTERIOR_PROFILES
100
AcDbCircle
10
1664.262
20
876.500
30
0
40
1.250
0
CIRCLE
5
13A
100
AcDbEntity
8
INTERIOR_PROFILES
100
AcDbCircle
10
1604.262
20
876.500
30
0
40
1.250
0
TEXT
5
13B
100
AcDbEntity
8
PART_LABELS
100
AcDbText
10
930.500
20
1395.000
30
0
40
50.000
1
2SHSH1-190015
72
1
11
930.500
21
1395.000
31
0
100
AcDbText
73
2
0
LWPOLYLINE
5
13C
100
AcDbEntity
8
OUTER_PROFILES
100
AcDbPolyline
90
34
70
1
10
11.445
20
1432.362
10
0.021
20
1443.786
10
11.445
20
1455.210
42
0.414214
10
11.445
20
1456.624
10
0.000
20
1468.068
10
0.000
20
1473.048
10
13.212
20
1473.048
10
13.212
20
1475.310
10
13.212
20
1483.310
10
13.212
20
1498.572
10
1848.212
20
1498.572
10
1848.212
20
1483.310
10
1848.212
20
1475.310
10
1848.212
20
1473.048
10
1861.424
20
1473.048
10
1861.424
20
1468.068
10
1849.979
20
1456.624
42
0.414214
10
1849.979
20
1455.210
10
1861.403
20
1443.786
10
1849.979
20
1432.362
42
0.414214
10
1849.979
20
1430.948
10
1861.424
20
1419.503
10
1861.424
20
1316.524
10
1848.212
20
1316.524
10
1848.212
20
1314.262
10
1848.212
20
1306.262
10
1848.212
20
1291.000
10
13.212
20
1291.000
10
13.212
20
1306.262
10
13.212
20
1314.262
10
13.212
20
1316.524
10
0.000
20
1316.524
10
0.000
20
1419.503
10
11.445
20
1430.948
42
0.414214
0
CIRCLE
5
13D
100
AcDbEntity
8
INTERIOR_PROFILES
100
AcDbCircle
10
3.000
20
1319.524
30
0
40
1.700
0
CIRCLE
5
13E
100
AcDbEntity
8
INTERIOR_PROFILES
100
AcDbCircle
10
1830.712
20
1495.572
30
0
40
1.700
0
CIRCLE
5
13F
100
AcDbEntity
8
INTERIOR_PROFILES
100
AcDbCircle
10
930.712
20
1436.786
30
0
40
1.700
0
CIRCLE
5
140
100
AcDbEntity
8
INTERIOR_PROFILES
100
AcDbCircle
10
5.950
20
1470.048
30
0
40
1.700
0
CIRCLE
5
141
100
AcDbEntity
8
INTERIOR_PROFILES
100
AcDbCircle
10
630.712
20
1436.786
30
0
40
1.700
0
CIRCLE
5
142
100
AcDbEntity
8
INTERIOR_PROFILES
100
AcDbCircle
10
330.712
20
1436.786
30
0
40
1.700
0
CIRCLE
5
143
100
AcDbEntity
8
INTERIOR_PROFILES
100
AcDbCircle
10
1855.474
20
1470.048
30
0
40
1.700
0
CIRCLE
5
144
100
AcDbEntity
8
INTERIOR_PROFILES
100
AcDbCircle
10
330.712
20
1495.572
30
0
40
1.700
0
CIRCLE
5
145
100
AcDbEntity
8
INTERIOR_PROFILES
100
AcDbCircle
10
30.712
20
1495.572
30
0
40
1.700
0
CIRCLE
5
146
100
AcDbEntity
8
INTERIOR_PROFILES
100
AcDbCircle
10
1530.712
20
1495.572
30
0
40
1.700
0
CIRCLE
5
147
100
AcDbEntity
8
INTERIOR_PROFILES
100
AcDbCircle
10
1230.712
20
1436.786
30
0
40
1.700
0
CIRCLE
5
148
100
AcDbEntity
8
INTERIOR_PROFILES
100
AcDbCircle
10
30.712
20
1436.786
30
0
40
1.700
0
CIRCLE
5
149
100
AcDbEntity
8
INTERIOR_PROFILES
100
AcDbCircle
10
1858.424
20
1417.524
30
0
40
1.700
0
CIRCLE
5
14A
100
AcDbEntity
8
INTERIOR_PROFILES
100
AcDbCircle
10
3.000
20
1417.524
30
0
40
1.700
0
CIRCLE
5
14B
100
AcDbEntity
8
INTERIOR_PROFILES
100
AcDbCircle
10
3.000
20
1368.524
30
0
40
1.700
0
CIRCLE
5
14C
100
AcDbEntity
8
INTERIOR_PROFILES
100
AcDbCircle
10
1858.424
20
1319.524
30
0
40
1.700
0
CIRCLE
5
14D
100
AcDbEntity
8
INTERIOR_PROFILES
100
AcDbCircle
10
30.712
20
1294.000
30
0
40
1.700
0
CIRCLE
5
14E
100
AcDbEntity
8
INTERIOR_PROFILES
100
AcDbCircle
10
1530.712
20
1294.000
30
0
40
1.700
0
CIRCLE
5
14F
100
AcDbEntity
8
INTERIOR_PROFILES
100
AcDbCircle
10
930.712
20
1294.000
30
0
40
1.700
0
CIRCLE
5
150
100
AcDbEntity
8
INTERIOR_PROFILES
100
AcDbCircle
10
330.712
20
1294.000
30
0
40
1.700
0
CIRCLE
5
151
100
AcDbEntity
8
INTERIOR_PROFILES
100
AcDbCircle
10
1858.424
20
1368.524
30
0
40
1.700
0
CIRCLE
5
152
100
AcDbEntity
8
INTERIOR_PROFILES
100
AcDbCircle
10
630.712
20
1294.000
30
0
40
1.700
0
CIRCLE
5
153
100
AcDbEntity
8
INTERIOR_PROFILES
100
AcDbCircle
10
1230.712
20
1294.000
30
0
40
1.700
0
CIRCLE
5
154
100
AcDbEntity
8
INTERIOR_PROFILES
100
AcDbCircle
10
1830.712
20
1294.000
30
0
40
1.700
0
CIRCLE
5
155
100
AcDbEntity
8
INTERIOR_PROFILES
100
AcDbCircle
10
1830.712
20
1436.786
30
0
40
1.700
0
CIRCLE
5
156
100
AcDbEntity
8
INTERIOR_PROFILES
100
AcDbCircle
10
1530.712
20
1436.786
30
0
40
1.700
0
CIRCLE
5
157
100
AcDbEntity
8
INTERIOR_PROFILES
100
AcDbCircle
10
1230.712
20
1495.572
30
0
40
1.700
0
CIRCLE
5
158
100
AcDbEntity
8
INTERIOR_PROFILES
100
AcDbCircle
10
930.712
20
1495.572
30
0
40
1.700
0
CIRCLE
5
159
100
AcDbEntity
8
INTERIOR_PROFILES
100
AcDbCircle
10
630.712
20
1495.572
30
0
40
1.700
0
TEXT
5
15A
100
AcDbEntity
8
PART_LABELS
100
AcDbText
10
2287.500
20
1115.500
30
0
40
50.000
1
2UP000-070000
72
1
11
2287.500
21
1115.500
31
0
100
AcDbText
73
2
0
LWPOLYLINE
5
15B
100
AcDbEntity
8
OUTER_PROFILES
100
AcDbPolyline
90
36
70
1
10
1939.262
20
916.524
42
-1.000000
10
1939.262
20
897.524
10
1939.262
20
884.262
10
1939.262
20
874.000
10
2635.262
20
874.000
10
2635.262
20
884.262
10
2635.262
20
897.524
42
-1.000000
10
2635.262
20
916.524
10
2635.262
20
918.786
10
2635.262
20
925.786
10
2635.262
20
928.048
10
2653.524
20
928.048
10
2653.524
20
1257.714
10
2637.524
20
1299.048
10
2635.262
20
1299.048
10
2635.262
20
1301.310
10
2635.262
20
1323.310
10
2635.262
20
1331.572
10
2635.262
20
1341.834
10
2635.262
20
1344.096
42
-0.414214
10
2628.762
20
1350.596
10
2628.762
20
1357.096
10
1945.762
20
1357.096
10
1945.762
20
1350.596
42
-0.414214
10
1939.262
20
1344.096
10
1939.262
20
1341.834
10
1939.262
20
1331.572
10
1939.262
20
1323.310
10
1939.262
20
1301.310
10
1939.262
20
1299.048
10
1937.000
20
1299.048
10
1921.000
20
1257.714
10
1921.000
20
928.048
10
1939.262
20
928.048
10
1939.262
20
925.786
10
1939.262
20
918.786
0
CIRCLE
5
15C
100
AcDbEntity
8
INTERIOR_PROFILES
100
AcDbCircle
10
1946.262
20
1269.048
30
0
40
1.700
0
CIRCLE
5
15D
100
AcDbEntity
8
INTERIOR_PROFILES
100
AcDbCircle
10
1946.262
20
935.048
30
0
40
1.700
0
CIRCLE
5
15E
100
AcDbEntity
8
INTERIOR_PROFILES
100
AcDbCircle
10
2087.262
20
1292.048
30
0
40
1.700
0
CIRCLE
5
15F
100
AcDbEntity
8
INTERIOR_PROFILES
100
AcDbCircle
10
2603.262
20
1316.310
30
0
40
1.700
0
CIRCLE
5
160
100
AcDbEntity
8
INTERIOR_PROFILES
100
AcDbCircle
10
2628.262
20
1288.548
30
0
40
1.700
0
CIRCLE
5
161
100
AcDbEntity
8
INTERIOR_PROFILES
100
AcDbCircle
10
2587.262
20
907.024
30
0
40
1.700
0
CIRCLE
5
162
100
AcDbEntity
8
INTERIOR_PROFILES
100
AcDbCircle
10
2628.262
20
1316.310
30
0
40
1.700
0
CIRCLE
5
163
100
AcDbEntity
8
INTERIOR_PROFILES
100
AcDbCircle
10
2018.262
20
1316.310
30
0
40
1.700
0
CIRCLE
5
164
100
AcDbEntity
8
INTERIOR_PROFILES
100
AcDbCircle
10
2043.262
20
1316.310
30
0
40
1.700
0
CIRCLE
5
165
100
AcDbEntity
8
INTERIOR_PROFILES
100
AcDbCircle
10
1946.262
20
1102.048
30
0
40
1.700
0
CIRCLE
5
166
100
AcDbEntity
8
INTERIOR_PROFILES
100
AcDbCircle
10
1946.262
20
1316.310
30
0
40
1.700
0
CIRCLE
5
167
100
AcDbEntity
8
INTERIOR_PROFILES
100
AcDbCircle
10
2287.262
20
1292.048
30
0
40
1.700
0
CIRCLE
5
168
100
AcDbEntity
8
INTERIOR_PROFILES
100
AcDbCircle
10
2487.262
20
1292.048
30
0
40
1.700
0
CIRCLE
5
169
100
AcDbEntity
8
INTERIOR_PROFILES
100
AcDbCircle
10
2387.262
20
907.024
30
0
40
1.700
0
CIRCLE
5
16A
100
AcDbEntity
8
INTERIOR_PROFILES
100
AcDbCircle
10
2287.262
20
907.024
30
0
40
1.700
0
CIRCLE
5
16B
100
AcDbEntity
8
INTERIOR_PROFILES
100
AcDbCircle
10
1946.262
20
1288.548
30
0
40
1.700
0
CIRCLE
5
16C
100
AcDbEntity
8
INTERIOR_PROFILES
100
AcDbCircle
10
2087.262
20
907.024
30
0
40
1.700
0
CIRCLE
5
16D
100
AcDbEntity
8
INTERIOR_PROFILES
100
AcDbCircle
10
2556.262
20
1316.310
30
0
40
1.700
0
CIRCLE
5
16E
100
AcDbEntity
8
INTERIOR_PROFILES
100
AcDbCircle
10
1971.262
20
1316.310
30
0
40
1.700
0
CIRCLE
5
16F
100
AcDbEntity
8
INTERIOR_PROFILES
100
AcDbCircle
10
2628.262
20
935.048
30
0
40
1.700
0
CIRCLE
5
170
100
AcDbEntity
8
INTERIOR_PROFILES
100
AcDbCircle
10
1987.262
20
907.024
30
0
40
1.700
0
CIRCLE
5
171
100
AcDbEntity
8
INTERIOR_PROFILES
100
AcDbCircle
10
2187.262
20
907.024
30
0
40
1.700
0
CIRCLE
5
172
100
AcDbEntity
8
INTERIOR_PROFILES
100
AcDbCircle
10
2628.262
20
1102.048
30
0
40
1.700
0
CIRCLE
5
173
100
AcDbEntity
8
INTERIOR_PROFILES
100
AcDbCircle
10
2531.262
20
1316.310
30
0
40
1.700
0
CIRCLE
5
174
100
AcDbEntity
8
INTERIOR_PROFILES
100
AcDbCircle
10
2487.262
20
907.024
30
0
40
1.700
0
CIRCLE
5
175
100
AcDbEntity
8
INTERIOR_PROFILES
100
AcDbCircle
10
1987.262
20
1292.048
30
0
40
1.700
0
CIRCLE
5
176
100
AcDbEntity
8
INTERIOR_PROFILES
100
AcDbCircle
10
2577.262
20
1316.310
30
0
40
1.700
0
CIRCLE
5
177
100
AcDbEntity
8
INTERIOR_PROFILES
100
AcDbCircle
10
2628.262
20
1269.048
30
0
40
1.700
0
CIRCLE
5
178
100
AcDbEntity
8
INTERIOR_PROFILES
100
AcDbCircle
10
1997.262
20
1316.310
30
0
40
1.700
0
CIRCLE
5
179
100
AcDbEntity
8
INTERIOR_PROFILES
100
AcDbCircle
10
2087.262
20
1354.096
30
0
40
1.700
0
CIRCLE
5
17A
100
AcDbEntity
8
INTERIOR_PROFILES
100
AcDbCircle
10
2087.262
20
877.000
30
0
40
1.700
0
CIRCLE
5
17B
100
AcDbEntity
8
INTERIOR_PROFILES
100
AcDbCircle
10
1987.262
20
1354.096
30
0
40
1.700
0
CIRCLE
5
17C
100
AcDbEntity
8
INTERIOR_PROFILES
100
AcDbCircle
10
1987.262
20
877.000
30
0
40
1.700
0
CIRCLE
5
17D
100
AcDbEntity
8
INTERIOR_PROFILES
100
AcDbCircle
10
2187.262
20
1354.096
30
0
40
1.700
0
CIRCLE
5
17E
100
AcDbEntity
8
INTERIOR_PROFILES
100
AcDbCircle
10
2487.262
20
877.000
30
0
40
1.700
0
CIRCLE
5
17F
100
AcDbEntity
8
INTERIOR_PROFILES
100
AcDbCircle
10
2187.262
20
877.000
30
0
40
1.700
0
CIRCLE
5
180
100
AcDbEntity
8
INTERIOR_PROFILES
100
AcDbCircle
10
2587.262
20
1354.096
30
0
40
1.700
0
CIRCLE
5
181
100
AcDbEntity
8
INTERIOR_PROFILES
100
AcDbCircle
10
2187.262
20
1292.048
30
0
40
1.700
0
CIRCLE
5
182
100
AcDbEntity
8
INTERIOR_PROFILES
100
AcDbCircle
10
2487.262
20
1354.096
30
0
40
1.700
0
CIRCLE
5
183
100
AcDbEntity
8
INTERIOR_PROFILES
100
AcDbCircle
10
2587.262
20
877.000
30
0
40
1.700
0
CIRCLE
5
184
100
AcDbEntity
8
INTERIOR_PROFILES
100
AcDbCircle
10
2387.262
20
877.000
30
0
40
1.700
0
CIRCLE
5
185
100
AcDbEntity
8
INTERIOR_PROFILES
100
AcDbCircle
10
2387.262
20
1354.096
30
0
40
1.700
0
CIRCLE
5
186
100
AcDbEntity
8
INTERIOR_PROFILES
100
AcDbCircle
10
2387.262
20
1292.048
30
0
40
1.700
0
CIRCLE
5
187
100
AcDbEntity
8
INTERIOR_PROFILES
100
AcDbCircle
10
2587.262
20
1292.048
30
0
40
1.700
0
CIRCLE
5
188
100
AcDbEntity
8
INTERIOR_PROFILES
100
AcDbCircle
10
2287.262
20
877.000
30
0
40
1.700
0
CIRCLE
5
189
100
AcDbEntity
8
INTERIOR_PROFILES
100
AcDbCircle
10
2287.262
20
1354.096
30
0
40
1.700
0
CIRCLE
5
18A
100
AcDbEntity
8
INTERIOR_PROFILES
100
AcDbCircle
10
2650.524
20
934.548
30
0
40
1.700
0
CIRCLE
5
18B
100
AcDbEntity
8
INTERIOR_PROFILES
100
AcDbCircle
10
2650.524
20
1089.548
30
0
40
1.700
0
CIRCLE
5
18C
100
AcDbEntity
8
INTERIOR_PROFILES
100
AcDbCircle
10
1924.000
20
1244.548
30
0
40
1.700
0
CIRCLE
5
18D
100
AcDbEntity
8
INTERIOR_PROFILES
100
AcDbCircle
10
1924.000
20
934.548
30
0
40
1.700
0
CIRCLE
5
18E
100
AcDbEntity
8
INTERIOR_PROFILES
100
AcDbCircle
10
1924.000
20
1089.548
30
0
40
1.700
0
CIRCLE
5
18F
100
AcDbEntity
8
INTERIOR_PROFILES
100
AcDbCircle
10
2650.524
20
1244.548
30
0
40
1.700
0
TEXT
5
190
100
AcDbEntity
8
PART_LABELS
100
AcDbText
10
2216.500
20
1385.000
30
0
40
15.000
1
2BK002-070000
72
1
11
2216.500
21
1385.000
31
0
100
AcDbText
73
2
0
SPLINE
5
191
100
AcDbEntity
8
OUTER_PROFILES
100
AcDbSpline
70
8
71
3
72
11
73
7
74
0
40
1.570796
40
1.570796
40
1.570796
40
1.570796
40
3.043762
40
3.043762
40
3.043762
40
3.141593
40
3.141593
40
3.141593
40
3.141593
10
1886.595
20
1405.524
30
0
10
1886.104
20
1404.817
30
0
10
1885.647
20
1404.110
30
0
10
1885.599
20
1403.403
30
0
10
1885.596
20
1403.356
30
0
10
1885.595
20
1403.309
30
0
10
1885.595
20
1403.262
30
0
0
LINE
5
192
100
AcDbEntity
8
OUTER_PROFILES
100
AcDbLine
10
1886.595
20
1405.524
30
0
11
1891.595
21
1410.524
31
0
0
LINE
5
193
100
AcDbEntity
8
OUTER_PROFILES
100
AcDbLine
10
1891.595
20
1410.524
30
0
11
2541.453
21
1410.524
31
0
0
LINE
5
194
100
AcDbEntity
8
OUTER_PROFILES
100
AcDbLine
10
2541.453
20
1410.524
30
0
11
2546.453
21
1405.524
31
0
0
SPLINE
5
195
100
AcDbEntity
8
OUTER_PROFILES
100
AcDbSpline
70
8
71
3
72
11
73
7
74
0
40
-3.141593
40
-3.141593
40
-3.141593
40
-3.141593
40
-3.043762
40
-3.043762
40
-3.043762
40
-1.570796
40
-1.570796
40
-1.570796
40
-1.570796
10
2547.453
20
1403.262
30
0
10
2547.453
20
1403.309
30
0
10
2547.452
20
1403.356
30
0
10
2547.448
20
1403.403
30
0
10
2547.400
20
1404.110
30
0
10
2546.944
20
1404.817
30
0
10
2546.453
20
1405.524
30
0
0
LINE
5
196
100
AcDbEntity
8
OUTER_PROFILES
100
AcDbLine
10
2547.453
20
1403.262
30
0
11
2547.453
21
1389.262
31
0
0
SPLINE
5
197
100
AcDbEntity
8
OUTER_PROFILES
100
AcDbSpline
70
8
71
3
72
11
73
7
74
0
40
1.570796
40
1.570796
40
1.570796
40
1.570796
40
1.668627
40
1.668627
40
1.668627
40
3.141593
40
3.141593
40
3.141593
40
3.141593
10
2546.453
20
1387.000
30
0
10
2546.486
20
1387.047
30
0
10
2546.518
20
1387.094
30
0
10
2546.551
20
1387.141
30
0
10
2547.039
20
1387.848
30
0
10
2547.453
20
1388.555
30
0
10
2547.453
20
1389.262
30
0
0
LINE
5
198
100
AcDbEntity
8
OUTER_PROFILES
100
AcDbLine
10
2546.453
20
1387.000
30
0
11
2546.524
21
1386.929
31
0
0
SPLINE
5
199
100
AcDbEntity
8
OUTER_PROFILES
100
AcDbSpline
70
8
71
3
72
11
73
7
74
0
40
-3.141593
40
-3.141593
40
-3.141593
40
-3.141593
40
-1.668627
40
-1.668627
40
-1.668627
40
-1.570796
40
-1.570796
40
-1.570796
40
-1.570796
10
2548.786
20
1387.929
30
0
10
2548.079
20
1387.929
30
0
10
2547.372
20
1387.516
30
0
10
2546.665
20
1387.027
30
0
10
2546.618
20
1386.995
30
0
10
2546.571
20
1386.962
30
0
10
2546.524
20
1386.929
30
0
0
LINE
5
19A
100
AcDbEntity
8
OUTER_PROFILES
100
AcDbLine
10
2548.786
20
1387.929
30
0
11
2562.786
21
1387.929
31
0
0
SPLINE
5
19B
100
AcDbEntity
8
OUTER_PROFILES
100
AcDbSpline
70
8
71
3
72
11
73
7
74
0
40
1.570796
40
1.570796
40
1.570796
40
1.570796
40
3.043762
40
3.043762
40
3.043762
40
3.141593
40
3.141593
40
3.141593
40
3.141593
10
2565.048
20
1386.929
30
0
10
2564.341
20
1387.420
30
0
10
2563.634
20
1387.877
30
0
10
2562.927
20
1387.925
30
0
10
2562.880
20
1387.928
30
0
10
2562.833
20
1387.929
30
0
10
2562.786
20
1387.929
30
0
0
LINE
5
19C
100
AcDbEntity
8
OUTER_PROFILES
100
AcDbLine
10
2565.048
20
1386.929
30
0
11
2570.048
21
1381.929
31
0
0
LINE
5
19D
100
AcDbEntity
8
OUTER_PROFILES
100
AcDbLine
10
2570.048
20
1381.929
30
0
11
2570.048
21
1359.000
31
0
0
LINE
5
19E
100
AcDbEntity
8
OUTER_PROFILES
100
AcDbLine
10
2570.048
20
1359.000
30
0
11
1863.000
21
1359.000
31
0
0
LINE
5
19F
100
AcDbEntity
8
OUTER_PROFILES
100
AcDbLine
10
1863.000
20
1359.000
30
0
11
1863.000
21
1381.929
31
0
0
LINE
5
1A0
100
AcDbEntity
8
OUTER_PROFILES
100
AcDbLine
10
1863.000
20
1381.929
30
0
11
1868.000
21
1386.929
31
0
0
SPLINE
5
1A1
100
AcDbEntity
8
OUTER_PROFILES
100
AcDbSpline
70
8
71
3
72
11
73
7
74
0
40
-3.141593
40
-3.141593
40
-3.141593
40
-3.141593
40
-3.043762
40
-3.043762
40
-3.043762
40
-1.570796
40
-1.570796
40
-1.570796
40
-1.570796
10
1870.262
20
1387.929
30
0
10
1870.215
20
1387.929
30
0
10
1870.168
20
1387.928
30
0
10
1870.121
20
1387.925
30
0
10
1869.414
20
1387.877
30
0
10
1868.707
20
1387.420
30
0
10
1868.000
20
1386.929
30
0
0
LINE
5
1A2
100
AcDbEntity
8
OUTER_PROFILES
100
AcDbLine
10
1870.262
20
1387.929
30
0
11
1884.262
21
1387.929
31
0
0
SPLINE
5
1A3
100
AcDbEntity
8
OUTER_PROFILES
100
AcDbSpline
70
8
71
3
72
11
73
7
74
0
40
1.570796
40
1.570796
40
1.570796
40
1.570796
40
1.668627
40
1.668627
40
1.668627
40
3.141593
40
3.141593
40
3.141593
40
3.141593
10
1886.524
20
1386.929
30
0
10
1886.477
20
1386.962
30
0
10
1886.430
20
1386.995
30
0
10
1886.383
20
1387.027
30
0
10
1885.676
20
1387.516
30
0
10
1884.969
20
1387.929
30
0
10
1884.262
20
1387.929
30
0
0
LINE
5
1A4
100
AcDbEntity
8
OUTER_PROFILES
100
AcDbLine
10
1886.524
20
1386.929
30
0
11
1886.595
21
1387.000
31
0
0
SPLINE
5
1A5
100
AcDbEntity
8
OUTER_PROFILES
100
AcDbSpline
70
8
71
3
72
11
73
7
74
0
40
-3.141593
40
-3.141593
40
-3.141593
40
-3.141593
40
-1.668627
40
-1.668627
40
-1.668627
40
-1.570796
40
-1.570796
40
-1.570796
40
-1.570796
10
1885.595
20
1389.262
30
0
10
1885.595
20
1388.555
30
0
10
1886.008
20
1387.848
30
0
10
1886.497
20
1387.141
30
0
10
1886.529
20
1387.094
30
0
10
1886.562
20
1387.047
30
0
10
1886.595
20
1387.000
30
0
0
LINE
5
1A6
100
AcDbEntity
8
OUTER_PROFILES
100
AcDbLine
10
1885.595
20
1389.262
30
0
11
1885.595
21
1403.262
31
0
0
CIRCLE
5
1A7
100
AcDbEntity
8
INTERIOR_PROFILES
100
AcDbCircle
10
1905.262
20
1380.000
30
0
40
1.700
0
CIRCLE
5
1A8
100
AcDbEntity
8
INTERIOR_PROFILES
100
AcDbCircle
10
2316.524
20
1369.000
30
0
40
5.000
0
CIRCLE
5
1A9
100
AcDbEntity
8
INTERIOR_PROFILES
100
AcDbCircle
10
2481.786
20
1380.000
30
0
40
1.700
0
CIRCLE
5
1AA
100
AcDbEntity
8
INTERIOR_PROFILES
100
AcDbCircle
10
1951.262
20
1380.000
30
0
40
1.700
0
CIRCLE
5
1AB
100
AcDbEntity
8
INTERIOR_PROFILES
100
AcDbCircle
10
2216.524
20
1369.000
30
0
40
5.000
0
CIRCLE
5
1AC
100
AcDbEntity
8
INTERIOR_PROFILES
100
AcDbCircle
10
2116.524
20
1369.000
30
0
40
5.000
0
CIRCLE
5
1AD
100
AcDbEntity
8
INTERIOR_PROFILES
100
AcDbCircle
10
2527.786
20
1380.000
30
0
40
1.700
0
CIRCLE
5
1AE
100
AcDbEntity
8
INTERIOR_PROFILES
100
AcDbCircle
10
2016.524
20
1369.000
30
0
40
5.000
0
CIRCLE
5
1AF
100
AcDbEntity
8
INTERIOR_PROFILES
100
AcDbCircle
10
2516.524
20
1369.000
30
0
40
5.000
0
CIRCLE
5
1B0
100
AcDbEntity
8
INTERIOR_PROFILES
100
AcDbCircle
10
1916.524
20
1369.000
30
0
40
5.000
0
CIRCLE
5
1B1
100
AcDbEntity
8
INTERIOR_PROFILES
100
AcDbCircle
10
2416.524
20
1369.000
30
0
40
5.000
0
CIRCLE
5
1B2
100
AcDbEntity
8
INTERIOR_PROFILES
100
AcDbCircle
10
2516.524
20
1396.262
30
0
40
1.700
0
CIRCLE
5
1B3
100
AcDbEntity
8
INTERIOR_PROFILES
100
AcDbCircle
10
2116.524
20
1396.262
30
0
40
1.700
0
CIRCLE
5
1B4
100
AcDbEntity
8
INTERIOR_PROFILES
100
AcDbCircle
10
2316.524
20
1396.262
30
0
40
1.700
0
CIRCLE
5
1B5
100
AcDbEntity
8
INTERIOR_PROFILES
100
AcDbCircle
10
2555.786
20
1363.000
30
0
40
1.700
0
CIRCLE
5
1B6
100
AcDbEntity
8
INTERIOR_PROFILES
100
AcDbCircle
10
1877.262
20
1363.000
30
0
40
1.700
0
CIRCLE
5
1B7
100
AcDbEntity
8
INTERIOR_PROFILES
100
AcDbCircle
10
1916.524
20
1396.262
30
0
40
1.700
0
CIRCLE
5
1B8
100
AcDbEntity
8
INTERIOR_PROFILES
100
AcDbCircle
10
1877.262
20
1383.000
30
0
40
1.700
0
CIRCLE
5
1B9
100
AcDbEntity
8
INTERIOR_PROFILES
100
AcDbCircle
10
2416.524
20
1396.262
30
0
40
1.700
0
CIRCLE
5
1BA
100
AcDbEntity
8
INTERIOR_PROFILES
100
AcDbCircle
10
2555.786
20
1383.000
30
0
40
1.700
0
CIRCLE
5
1BB
100
AcDbEntity
8
INTERIOR_PROFILES
100
AcDbCircle
10
2216.524
20
1396.262
30
0
40
1.700
0
CIRCLE
5
1BC
100
AcDbEntity
8
INTERIOR_PROFILES
100
AcDbCircle
10
2016.524
20
1396.262
30
0
40
1.700
0
TEXT
5
1BD
100
AcDbEntity
8
PART_LABELS
100
AcDbText
10
2216.500
20
1439.000
30
0
40
15.000
1
2BK002-070000
72
1
11
2216.500
21
1439.000
31
0
100
AcDbText
73
2
0
SPLINE
5
1BE
100
AcDbEntity
8
OUTER_PROFILES
100
AcDbSpline
70
8
71
3
72
11
73
7
74
0
40
1.570796
40
1.570796
40
1.570796
40
1.570796
40
3.043762
40
3.043762
40
3.043762
40
3.141593
40
3.141593
40
3.141593
40
3.141593
10
1886.595
20
1459.524
30
0
10
1886.104
20
1458.817
30
0
10
1885.647
20
1458.110
30
0
10
1885.599
20
1457.403
30
0
10
1885.596
20
1457.356
30
0
10
1885.595
20
1457.309
30
0
10
1885.595
20
1457.262
30
0
0
LINE
5
1BF
100
AcDbEntity
8
OUTER_PROFILES
100
AcDbLine
10
1886.595
20
1459.524
30
0
11
1891.595
21
1464.524
31
0
0
LINE
5
1C0
100
AcDbEntity
8
OUTER_PROFILES
100
AcDbLine
10
1891.595
20
1464.524
30
0
11
2541.453
21
1464.524
31
0
0
LINE
5
1C1
100
AcDbEntity
8
OUTER_PROFILES
100
AcDbLine
10
2541.453
20
1464.524
30
0
11
2546.453
21
1459.524
31
0
0
SPLINE
5
1C2
100
AcDbEntity
8
OUTER_PROFILES
100
AcDbSpline
70
8
71
3
72
11
73
7
74
0
40
-3.141593
40
-3.141593
40
-3.141593
40
-3.141593
40
-3.043762
40
-3.043762
40
-3.043762
40
-1.570796
40
-1.570796
40
-1.570796
40
-1.570796
10
2547.453
20
1457.262
30
0
10
2547.453
20
1457.309
30
0
10
2547.452
20
1457.356
30
0
10
2547.448
20
1457.403
30
0
10
2547.400
20
1458.110
30
0
10
2546.944
20
1458.817
30
0
10
2546.453
20
1459.524
30
0
0
LINE
5
1C3
100
AcDbEntity
8
OUTER_PROFILES
100
AcDbLine
10
2547.453
20
1457.262
30
0
11
2547.453
21
1443.262
31
0
0
SPLINE
5
1C4
100
AcDbEntity
8
OUTER_PROFILES
100
AcDbSpline
70
8
71
3
72
11
73
7
74
0
40
1.570796
40
1.570796
40
1.570796
40
1.570796
40
1.668627
40
1.668627
40
1.668627
40
3.141593
40
3.141593
40
3.141593
40
3.141593
10
2546.453
20
1441.000
30
0
10
2546.486
20
1441.047
30
0
10
2546.518
20
1441.094
30
0
10
2546.551
20
1441.141
30
0
10
2547.039
20
1441.848
30
0
10
2547.453
20
1442.555
30
0
10
2547.453
20
1443.262
30
0
0
LINE
5
1C5
100
AcDbEntity
8
OUTER_PROFILES
100
AcDbLine
10
2546.453
20
1441.000
30
0
11
2546.524
21
1440.929
31
0
0
SPLINE
5
1C6
100
AcDbEntity
8
OUTER_PROFILES
100
AcDbSpline
70
8
71
3
72
11
73
7
74
0
40
-3.141593
40
-3.141593
40
-3.141593
40
-3.141593
40
-1.668627
40
-1.668627
40
-1.668627
40
-1.570796
40
-1.570796
40
-1.570796
40
-1.570796
10
2548.786
20
1441.929
30
0
10
2548.079
20
1441.929
30
0
10
2547.372
20
1441.516
30
0
10
2546.665
20
1441.027
30
0
10
2546.618
20
1440.995
30
0
10
2546.571
20
1440.962
30
0
10
2546.524
20
1440.929
30
0
0
LINE
5
1C7
100
AcDbEntity
8
OUTER_PROFILES
100
AcDbLine
10
2548.786
20
1441.929
30
0
11
2562.786
21
1441.929
31
0
0
SPLINE
5
1C8
100
AcDbEntity
8
OUTER_PROFILES
100
AcDbSpline
70
8
71
3
72
11
73
7
74
0
40
1.570796
40
1.570796
40
1.570796
40
1.570796
40
3.043762
40
3.043762
40
3.043762
40
3.141593
40
3.141593
40
3.141593
40
3.141593
10
2565.048
20
1440.929
30
0
10
2564.341
20
1441.420
30
0
10
2563.634
20
1441.877
30
0
10
2562.927
20
1441.925
30
0
10
2562.880
20
1441.928
30
0
10
2562.833
20
1441.929
30
0
10
2562.786
20
1441.929
30
0
0
LINE
5
1C9
100
AcDbEntity
8
OUTER_PROFILES
100
AcDbLine
10
2565.048
20
1440.929
30
0
11
2570.048
21
1435.929
31
0
0
LINE
5
1CA
100
AcDbEntity
8
OUTER_PROFILES
100
AcDbLine
10
2570.048
20
1435.929
30
0
11
2570.048
21
1413.000
31
0
0
LINE
5
1CB
100
AcDbEntity
8
OUTER_PROFILES
100
AcDbLine
10
2570.048
20
1413.000
30
0
11
1863.000
21
1413.000
31
0
0
LINE
5
1CC
100
AcDbEntity
8
OUTER_PROFILES
100
AcDbLine
10
1863.000
20
1413.000
30
0
11
1863.000
21
1435.929
31
0
0
LINE
5
1CD
100
AcDbEntity
8
OUTER_PROFILES
100
AcDbLine
10
1863.000
20
1435.929
30
0
11
1868.000
21
1440.929
31
0
0
SPLINE
5
1CE
100
AcDbEntity
8
OUTER_PROFILES
100
AcDbSpline
70
8
71
3
72
11
73
7
74
0
40
-3.141593
40
-3.141593
40
-3.141593
40
-3.141593
40
-3.043762
40
-3.043762
40
-3.043762
40
-1.570796
40
-1.570796
40
-1.570796
40
-1.570796
10
1870.262
20
1441.929
30
0
10
1870.215
20
1441.929
30
0
10
1870.168
20
1441.928
30
0
10
1870.121
20
1441.925
30
0
10
1869.414
20
1441.877
30
0
10
1868.707
20
1441.420
30
0
10
1868.000
20
1440.929
30
0
0
LINE
5
1CF
100
AcDbEntity
8
OUTER_PROFILES
100
AcDbLine
10
1870.262
20
1441.929
30
0
11
1884.262
21
1441.929
31
0
0
SPLINE
5
1D0
100
AcDbEntity
8
OUTER_PROFILES
100
AcDbSpline
70
8
71
3
72
11
73
7
74
0
40
1.570796
40
1.570796
40
1.570796
40
1.570796
40
1.668627
40
1.668627
40
1.668627
40
3.141593
40
3.141593
40
3.141593
40
3.141593
10
1886.524
20
1440.929
30
0
10
1886.477
20
1440.962
30
0
10
1886.430
20
1440.995
30
0
10
1886.383
20
1441.027
30
0
10
1885.676
20
1441.516
30
0
10
1884.969
20
1441.929
30
0
10
1884.262
20
1441.929
30
0
0
LINE
5
1D1
100
AcDbEntity
8
OUTER_PROFILES
100
AcDbLine
10
1886.524
20
1440.929
30
0
11
1886.595
21
1441.000
31
0
0
SPLINE
5
1D2
100
AcDbEntity
8
OUTER_PROFILES
100
AcDbSpline
70
8
71
3
72
11
73
7
74
0
40
-3.141593
40
-3.141593
40
-3.141593
40
-3.141593
40
-1.668627
40
-1.668627
40
-1.668627
40
-1.570796
40
-1.570796
40
-1.570796
40
-1.570796
10
1885.595
20
1443.262
30
0
10
1885.595
20
1442.555
30
0
10
1886.008
20
1441.848
30
0
10
1886.497
20
1441.141
30
0
10
1886.529
20
1441.094
30
0
10
1886.562
20
1441.047
30
0
10
1886.595
20
1441.000
30
0
0
LINE
5
1D3
100
AcDbEntity
8
OUTER_PROFILES
100
AcDbLine
10
1885.595
20
1443.262
30
0
11
1885.595
21
1457.262
31
0
0
CIRCLE
5
1D4
100
AcDbEntity
8
INTERIOR_PROFILES
100
AcDbCircle
10
1905.262
20
1434.000
30
0
40
1.700
0
CIRCLE
5
1D5
100
AcDbEntity
8
INTERIOR_PROFILES
100
AcDbCircle
10
2316.524
20
1423.000
30
0
40
5.000
0
CIRCLE
5
1D6
100
AcDbEntity
8
INTERIOR_PROFILES
100
AcDbCircle
10
2481.786
20
1434.000
30
0
40
1.700
0
CIRCLE
5
1D7
100
AcDbEntity
8
INTERIOR_PROFILES
100
AcDbCircle
10
1951.262
20
1434.000
30
0
40
1.700
0
CIRCLE
5
1D8
100
AcDbEntity
8
INTERIOR_PROFILES
100
AcDbCircle
10
2216.524
20
1423.000
30
0
40
5.000
0
CIRCLE
5
1D9
100
AcDbEntity
8
INTERIOR_PROFILES
100
AcDbCircle
10
2116.524
20
1423.000
30
0
40
5.000
0
CIRCLE
5
1DA
100
AcDbEntity
8
INTERIOR_PROFILES
100
AcDbCircle
10
2527.786
20
1434.000
30
0
40
1.700
0
CIRCLE
5
1DB
100
AcDbEntity
8
INTERIOR_PROFILES
100
AcDbCircle
10
2016.524
20
1423.000
30
0
40
5.000
0
CIRCLE
5
1DC
100
AcDbEntity
8
INTERIOR_PROFILES
100
AcDbCircle
10
2516.524
20
1423.000
30
0
40
5.000
0
CIRCLE
5
1DD
100
AcDbEntity
8
INTERIOR_PROFILES
100
AcDbCircle
10
1916.524
20
1423.000
30
0
40
5.000
0
CIRCLE
5
1DE
100
AcDbEntity
8
INTERIOR_PROFILES
100
AcDbCircle
10
2416.524
20
1423.000
30
0
40
5.000
0
CIRCLE
5
1DF
100
AcDbEntity
8
INTERIOR_PROFILES
100
AcDbCircle
10
2516.524
20
1450.262
30
0
40
1.700
0
CIRCLE
5
1E0
100
AcDbEntity
8
INTERIOR_PROFILES
100
AcDbCircle
10
2116.524
20
1450.262
30
0
40
1.700
0
CIRCLE
5
1E1
100
AcDbEntity
8
INTERIOR_PROFILES
100
AcDbCircle
10
2316.524
20
1450.262
30
0
40
1.700
0
CIRCLE
5
1E2
100
AcDbEntity
8
INTERIOR_PROFILES
100
AcDbCircle
10
2555.786
20
1417.000
30
0
40
1.700
0
CIRCLE
5
1E3
100
AcDbEntity
8
INTERIOR_PROFILES
100
AcDbCircle
10
1877.262
20
1417.000
30
0
40
1.700
0
CIRCLE
5
1E4
100
AcDbEntity
8
INTERIOR_PROFILES
100
AcDbCircle
10
1916.524
20
1450.262
30
0
40
1.700
0
CIRCLE
5
1E5
100
AcDbEntity
8
INTERIOR_PROFILES
100
AcDbCircle
10
1877.262
20
1437.000
30
0
40
1.700
0
CIRCLE
5
1E6
100
AcDbEntity
8
INTERIOR_PROFILES
100
AcDbCircle
10
2416.524
20
1450.262
30
0
40
1.700
0
CIRCLE
5
1E7
100
AcDbEntity
8
INTERIOR_PROFILES
100
AcDbCircle
10
2555.786
20
1437.000
30
0
40
1.700
0
CIRCLE
5
1E8
100
AcDbEntity
8
INTERIOR_PROFILES
100
AcDbCircle
10
2216.524
20
1450.262
30
0
40
1.700
0
CIRCLE
5
1E9
100
AcDbEntity
8
INTERIOR_PROFILES
100
AcDbCircle
10
2016.524
20
1450.262
30
0
40
1.700
0
TEXT
5
1EA
100
AcDbEntity
8
PART_LABELS
100
AcDbText
10
2166.500
20
1493.000
30
0
40
15.000
1
2BK002-060000
72
1
11
2166.500
21
1493.000
31
0
100
AcDbText
73
2
0
LINE
5
1EB
100
AcDbEntity
8
OUTER_PROFILES
100
AcDbLine
10
2470.048
20
1467.000
30
0
11
1863.000
21
1467.000
31
0
0
LINE
5
1EC
100
AcDbEntity
8
OUTER_PROFILES
100
AcDbLine
10
1863.000
20
1467.000
30
0
11
1863.000
21
1489.929
31
0
0
LINE
5
1ED
100
AcDbEntity
8
OUTER_PROFILES
100
AcDbLine
10
1863.000
20
1489.929
30
0
11
1868.000
21
1494.929
31
0
0
SPLINE
5
1EE
100
AcDbEntity
8
OUTER_PROFILES
100
AcDbSpline
70
8
71
3
72
11
73
7
74
0
40
-3.141593
40
-3.141593
40
-3.141593
40
-3.141593
40
-3.043762
40
-3.043762
40
-3.043762
40
-1.570796
40
-1.570796
40
-1.570796
40
-1.570796
10
1870.262
20
1495.929
30
0
10
1870.215
20
1495.929
30
0
10
1870.168
20
1495.928
30
0
10
1870.121
20
1495.925
30
0
10
1869.414
20
1495.877
30
0
10
1868.707
20
1495.420
30
0
10
1868.000
20
1494.929
30
0
0
LINE
5
1EF
100
AcDbEntity
8
OUTER_PROFILES
100
AcDbLine
10
1870.262
20
1495.929
30
0
11
1884.262
21
1495.929
31
0
0
SPLINE
5
1F0
100
AcDbEntity
8
OUTER_PROFILES
100
AcDbSpline
70
8
71
3
72
11
73
7
74
0
40
1.570796
40
1.570796
40
1.570796
40
1.570796
40
1.668627
40
1.668627
40
1.668627
40
3.141593
40
3.141593
40
3.141593
40
3.141593
10
1886.524
20
1494.929
30
0
10
1886.477
20
1494.962
30
0
10
1886.430
20
1494.995
30
0
10
1886.383
20
1495.027
30
0
10
1885.676
20
1495.516
30
0
10
1884.969
20
1495.929
30
0
10
1884.262
20
1495.929
30
0
0
LINE
5
1F1
100
AcDbEntity
8
OUTER_PROFILES
100
AcDbLine
10
1886.524
20
1494.929
30
0
11
1886.595
21
1495.000
31
0
0
SPLINE
5
1F2
100
AcDbEntity
8
OUTER_PROFILES
100
AcDbSpline
70
8
71
3
72
11
73
7
74
0
40
-3.141593
40
-3.141593
40
-3.141593
40
-3.141593
40
-1.668627
40
-1.668627
40
-1.668627
40
-1.570796
40
-1.570796
40
-1.570796
40
-1.570796
10
1885.595
20
1497.262
30
0
10
1885.595
20
1496.555
30
0
10
1886.008
20
1495.848
30
0
10
1886.497
20
1495.141
30
0
10
1886.529
20
1495.094
30
0
10
1886.562
20
1495.047
30
0
10
1886.595
20
1495.000
30
0
0
LINE
5
1F3
100
AcDbEntity
8
OUTER_PROFILES
100
AcDbLine
10
1885.595
20
1497.262
30
0
11
1885.595
21
1511.262
31
0
0
SPLINE
5
1F4
100
AcDbEntity
8
OUTER_PROFILES
100
AcDbSpline
70
8
71
3
72
11
73
7
74
0
40
1.570796
40
1.570796
40
1.570796
40
1.570796
40
3.043762
40
3.043762
40
3.043762
40
3.141593
40
3.141593
40
3.141593
40
3.141593
10
1886.595
20
1513.524
30
0
10
1886.104
20
1512.817
30
0
10
1885.647
20
1512.110
30
0
10
1885.599
20
1511.403
30
0
10
1885.596
20
1511.356
30
0
10
1885.595
20
1511.309
30
0
10
1885.595
20
1511.262
30
0
0
LINE
5
1F5
100
AcDbEntity
8
OUTER_PROFILES
100
AcDbLine
10
1886.595
20
1513.524
30
0
11
1891.595
21
1518.524
31
0
0
LINE
5
1F6
100
AcDbEntity
8
OUTER_PROFILES
100
AcDbLine
10
1891.595
20
1518.524
30
0
11
2441.453
21
1518.524
31
0
0
LINE
5
1F7
100
AcDbEntity
8
OUTER_PROFILES
100
AcDbLine
10
2441.453
20
1518.524
30
0
11
2446.453
21
1513.524
31
0
0
SPLINE
5
1F8
100
AcDbEntity
8
OUTER_PROFILES
100
AcDbSpline
70
8
71
3
72
11
73
7
74
0
40
-3.141593
40
-3.141593
40
-3.141593
40
-3.141593
40
-3.043762
40
-3.043762
40
-3.043762
40
-1.570796
40
-1.570796
40
-1.570796
40
-1.570796
10
2447.453
20
1511.262
30
0
10
2447.453
20
1511.309
30
0
10
2447.452
20
1511.356
30
0
10
2447.448
20
1511.403
30
0
10
2447.400
20
1512.110
30
0
10
2446.944
20
1512.817
30
0
10
2446.453
20
1513.524
30
0
0
LINE
5
1F9
100
AcDbEntity
8
OUTER_PROFILES
100
AcDbLine
10
2447.453
20
1511.262
30
0
11
2447.453
21
1497.262
31
0
0
SPLINE
5
1FA
100
AcDbEntity
8
OUTER_PROFILES
100
AcDbSpline
70
8
71
3
72
11
73
7
74
0
40
1.570796
40
1.570796
40
1.570796
40
1.570796
40
1.668627
40
1.668627
40
1.668627
40
3.141593
40
3.141593
40
3.141593
40
3.141593
10
2446.453
20
1495.000
30
0
10
2446.486
20
1495.047
30
0
10
2446.518
20
1495.094
30
0
10
2446.551
20
1495.141
30
0
10
2447.039
20
1495.848
30
0
10
2447.453
20
1496.555
30
0
10
2447.453
20
1497.262
30
0
0
LINE
5
1FB
100
AcDbEntity
8
OUTER_PROFILES
100
AcDbLine
10
2446.453
20
1495.000
30
0
11
2446.524
21
1494.929
31
0
0
SPLINE
5
1FC
100
AcDbEntity
8
OUTER_PROFILES
100
AcDbSpline
70
8
71
3
72
11
73
7
74
0
40
-3.141593
40
-3.141593
40
-3.141593
40
-3.141593
40
-1.668627
40
-1.668627
40
-1.668627
40
-1.570796
40
-1.570796
40
-1.570796
40
-1.570796
10
2448.786
20
1495.929
30
0
10
2448.079
20
1495.929
30
0
10
2447.372
20
1495.516
30
0
10
2446.665
20
1495.027
30
0
10
2446.618
20
1494.995
30
0
10
2446.571
20
1494.962
30
0
10
2446.524
20
1494.929
30
0
0
LINE
5
1FD
100
AcDbEntity
8
OUTER_PROFILES
100
AcDbLine
10
2448.786
20
1495.929
30
0
11
2462.786
21
1495.929
31
0
0
SPLINE
5
1FE
100
AcDbEntity
8
OUTER_PROFILES
100
AcDbSpline
70
8
71
3
72
11
73
7
74
0
40
1.570796
40
1.570796
40
1.570796
40
1.570796
40
3.043762
40
3.043762
40
3.043762
40
3.141593
40
3.141593
40
3.141593
40
3.141593
10
2465.048
20
1494.929
30
0
10
2464.341
20
1495.420
30
0
10
2463.634
20
1495.877
30
0
10
2462.927
20
1495.925
30
0
10
2462.880
20
1495.928
30
0
10
2462.833
20
1495.929
30
0
10
2462.786
20
1495.929
30
0
0
LINE
5
1FF
100
AcDbEntity
8
OUTER_PROFILES
100
AcDbLine
10
2465.048
20
1494.929
30
0
11
2470.048
21
1489.929
31
0
0
LINE
5
200
100
AcDbEntity
8
OUTER_PROFILES
100
AcDbLine
10
2470.048
20
1489.929
30
0
11
2470.048
21
1467.000
31
0
0
CIRCLE
5
201
100
AcDbEntity
8
INTERIOR_PROFILES
100
AcDbCircle
10
2266.524
20
1504.262
30
0
40
1.700
0
CIRCLE
5
202
100
AcDbEntity
8
INTERIOR_PROFILES
100
AcDbCircle
10
1966.524
20
1504.262
30
0
40
1.700
0
CIRCLE
5
203
100
AcDbEntity
8
INTERIOR_PROFILES
100
AcDbCircle
10
2366.524
20
1504.262
30
0
40
1.700
0
CIRCLE
5
204
100
AcDbEntity
8
INTERIOR_PROFILES
100
AcDbCircle
10
1877.262
20
1491.000
30
0
40
1.700
0
CIRCLE
5
205
100
AcDbEntity
8
INTERIOR_PROFILES
100
AcDbCircle
10
1877.262
20
1471.000
30
0
40
1.700
0
CIRCLE
5
206
100
AcDbEntity
8
INTERIOR_PROFILES
100
AcDbCircle
10
2455.786
20
1491.000
30
0
40
1.700
0
CIRCLE
5
207
100
AcDbEntity
8
INTERIOR_PROFILES
100
AcDbCircle
10
2166.524
20
1504.262
30
0
40
1.700
0
CIRCLE
5
208
100
AcDbEntity
8
INTERIOR_PROFILES
100
AcDbCircle
10
2066.524
20
1504.262
30
0
40
1.700
0
CIRCLE
5
209
100
AcDbEntity
8
INTERIOR_PROFILES
100
AcDbCircle
10
2066.524
20
1477.000
30
0
40
5.000
0
CIRCLE
5
20A
100
AcDbEntity
8
INTERIOR_PROFILES
100
AcDbCircle
10
2381.786
20
1488.000
30
0
40
1.700
0
CIRCLE
5
20B
100
AcDbEntity
8
INTERIOR_PROFILES
100
AcDbCircle
10
1905.262
20
1488.000
30
0
40
1.700
0
CIRCLE
5
20C
100
AcDbEntity
8
INTERIOR_PROFILES
100
AcDbCircle
10
1951.262
20
1488.000
30
0
40
1.700
0
CIRCLE
5
20D
100
AcDbEntity
8
INTERIOR_PROFILES
100
AcDbCircle
10
2455.786
20
1471.000
30
0
40
1.700
0
CIRCLE
5
20E
100
AcDbEntity
8
INTERIOR_PROFILES
100
AcDbCircle
10
2166.524
20
1477.000
30
0
40
5.000
0
CIRCLE
5
20F
100
AcDbEntity
8
INTERIOR_PROFILES
100
AcDbCircle
10
1966.524
20
1477.000
30
0
40
5.000
0
CIRCLE
5
210
100
AcDbEntity
8
INTERIOR_PROFILES
100
AcDbCircle
10
2366.524
20
1477.000
30
0
40
5.000
0
CIRCLE
5
211
100
AcDbEntity
8
INTERIOR_PROFILES
100
AcDbCircle
10
2266.524
20
1477.000
30
0
40
5.000
0
CIRCLE
5
212
100
AcDbEntity
8
INTERIOR_PROFILES
100
AcDbCircle
10
2427.786
20
1488.000
30
0
40
1.700
0
TEXT
5
213
100
AcDbEntity
8
PART_LABELS
100
AcDbText
10
2682.000
20
303.500
30
0
40
15.000
1
2BK002-060000
72
1
11
2682.000
21
303.500
31
0
100
AcDbText
73
2
0
LINE
5
214
100
AcDbEntity
8
OUTER_PROFILES
100
AcDbLine
10
2708.000
20
607.048
30
0
11
2708.000
21
0.000
31
0
0
LINE
5
215
100
AcDbEntity
8
OUTER_PROFILES
100
AcDbLine
10
2708.000
20
0.000
30
0
11
2685.071
21
0.000
31
0
0
LINE
5
216
100
AcDbEntity
8
OUTER_PROFILES
100
AcDbLine
10
2685.071
20
0.000
30
0
11
2680.071
21
5.000
31
0
0
SPLINE
5
217
100
AcDbEntity
8
OUTER_PROFILES
100
AcDbSpline
70
8
71
3
72
11
73
7
74
0
40
-3.141593
40
-3.141593
40
-3.141593
40
-3.141593
40
-3.043762
40
-3.043762
40
-3.043762
40
-1.570796
40
-1.570796
40
-1.570796
40
-1.570796
10
2679.071
20
7.262
30
0
10
2679.071
20
7.215
30
0
10
2679.072
20
7.168
30
0
10
2679.075
20
7.121
30
0
10
2679.123
20
6.414
30
0
10
2679.580
20
5.707
30
0
10
2680.071
20
5.000
30
0
0
LINE
5
218
100
AcDbEntity
8
OUTER_PROFILES
100
AcDbLine
10
2679.071
20
7.262
30
0
11
2679.071
21
21.262
31
0
0
SPLINE
5
219
100
AcDbEntity
8
OUTER_PROFILES
100
AcDbSpline
70
8
71
3
72
11
73
7
74
0
40
1.570796
40
1.570796
40
1.570796
40
1.570796
40
1.668627
40
1.668627
40
1.668627
40
3.141593
40
3.141593
40
3.141593
40
3.141593
10
2680.071
20
23.524
30
0
10
2680.038
20
23.477
30
0
10
2680.005
20
23.430
30
0
10
2679.973
20
23.383
30
0
10
2679.484
20
22.676
30
0
10
2679.071
20
21.969
30
0
10
2679.071
20
21.262
30
0
0
LINE
5
21A
100
AcDbEntity
8
OUTER_PROFILES
100
AcDbLine
10
2680.071
20
23.524
30
0
11
2680.000
21
23.595
31
0
0
SPLINE
5
21B
100
AcDbEntity
8
OUTER_PROFILES
100
AcDbSpline
70
8
71
3
72
11
73
7
74
0
40
-3.141593
40
-3.141593
40
-3.141593
40
-3.141593
40
-1.668627
40
-1.668627
40
-1.668627
40
-1.570796
40
-1.570796
40
-1.570796
40
-1.570796
10
2677.738
20
22.595
30
0
10
2678.445
20
22.595
30
0
10
2679.152
20
23.008
30
0
10
2679.859
20
23.497
30
0
10
2679.906
20
23.529
30
0
10
2679.953
20
23.562
30
0
10
2680.000
20
23.595
30
0
0
LINE
5
21C
100
AcDbEntity
8
OUTER_PROFILES
100
AcDbLine
10
2677.738
20
22.595
30
0
11
2663.738
21
22.595
31
0
0
SPLINE
5
21D
100
AcDbEntity
8
OUTER_PROFILES
100
AcDbSpline
70
8
71
3
72
11
73
7
74
0
40
1.570796
40
1.570796
40
1.570796
40
1.570796
40
3.043762
40
3.043762
40
3.043762
40
3.141593
40
3.141593
40
3.141593
40
3.141593
10
2661.476
20
23.595
30
0
10
2662.183
20
23.104
30
0
10
2662.890
20
22.647
30
0
10
2663.597
20
22.599
30
0
10
2663.644
20
22.596
30
0
10
2663.691
20
22.595
30
0
10
2663.738
20
22.595
30
0
0
LINE
5
21E
100
AcDbEntity
8
OUTER_PROFILES
100
AcDbLine
10
2661.476
20
23.595
30
0
11
2656.476
21
28.595
31
0
0
LINE
5
21F
100
AcDbEntity
8
OUTER_PROFILES
100
AcDbLine
10
2656.476
20
28.595
30
0
11
2656.476
21
578.453
31
0
0
LINE
5
220
100
AcDbEntity
8
OUTER_PROFILES
100
AcDbLine
10
2656.476
20
578.453
30
0
11
2661.476
21
583.453
31
0
0
SPLINE
5
221
100
AcDbEntity
8
OUTER_PROFILES
100
AcDbSpline
70
8
71
3
72
11
73
7
74
0
40
-3.141593
40
-3.141593
40
-3.141593
40
-3.141593
40
-3.043762
40
-3.043762
40
-3.043762
40
-1.570796
40
-1.570796
40
-1.570796
40
-1.570796
10
2663.738
20
584.453
30
0
10
2663.691
20
584.453
30
0
10
2663.644
20
584.452
30
0
10
2663.597
20
584.448
30
0
10
2662.890
20
584.400
30
0
10
2662.183
20
583.944
30
0
10
2661.476
20
583.453
30
0
0
LINE
5
222
100
AcDbEntity
8
OUTER_PROFILES
100
AcDbLine
10
2663.738
20
584.453
30
0
11
2677.738
21
584.453
31
0
0
SPLINE
5
223
100
AcDbEntity
8
OUTER_PROFILES
100
AcDbSpline
70
8
71
3
72
11
73
7
74
0
40
1.570796
40
1.570796
40
1.570796
40
1.570796
40
1.668627
40
1.668627
40
1.668627
40
3.141593
40
3.141593
40
3.141593
40
3.141593
10
2680.000
20
583.453
30
0
10
2679.953
20
583.486
30
0
10
2679.906
20
583.518
30
0
10
2679.859
20
583.551
30
0
10
2679.152
20
584.039
30
0
10
2678.445
20
584.453
30
0
10
2677.738
20
584.453
30
0
0
LINE
5
224
100
AcDbEntity
8
OUTER_PROFILES
100
AcDbLine
10
2680.000
20
583.453
30
0
11
2680.071
21
583.524
31
0
0
SPLINE
5
225
100
AcDbEntity
8
OUTER_PROFILES
100
AcDbSpline
70
8
71
3
72
11
73
7
74
0
40
-3.141593
40
-3.141593
40
-3.141593
40
-3.141593
40
-1.668627
40
-1.668627
40
-1.668627
40
-1.570796
40
-1.570796
40
-1.570796
40
-1.570796
10
2679.071
20
585.786
30
0
10
2679.071
20
585.079
30
0
10
2679.484
20
584.372
30
0
10
2679.973
20
583.665
30
0
10
2680.005
20
583.618
30
0
10
2680.038
20
583.571
30
0
10
2680.071
20
583.524
30
0
0
LINE
5
226
100
AcDbEntity
8
OUTER_PROFILES
100
AcDbLine
10
2679.071
20
585.786
30
0
11
2679.071
21
599.786
31
0
0
SPLINE
5
227
100
AcDbEntity
8
OUTER_PROFILES
100
AcDbSpline
70
8
71
3
72
11
73
7
74
0
40
1.570796
40
1.570796
40
1.570796
40
1.570796
40
3.043762
40
3.043762
40
3.043762
40
3.141593
40
3.141593
40
3.141593
40
3.141593
10
2680.071
20
602.048
30
0
10
2679.580
20
601.341
30
0
10
2679.123
20
600.634
30
0
10
2679.075
20
599.927
30
0
10
2679.072
20
599.880
30
0
10
2679.071
20
599.833
30
0
10
2679.071
20
599.786
30
0
0
LINE
5
228
100
AcDbEntity
8
OUTER_PROFILES
100
AcDbLine
10
2680.071
20
602.048
30
0
11
2685.071
21
607.048
31
0
0
LINE
5
229
100
AcDbEntity
8
OUTER_PROFILES
100
AcDbLine
10
2685.071
20
607.048
30
0
11
2708.000
21
607.048
31
0
0
CIRCLE
5
22A
100
AcDbEntity
8
INTERIOR_PROFILES
100
AcDbCircle
10
2670.738
20
403.524
30
0
40
1.700
0
CIRCLE
5
22B
100
AcDbEntity
8
INTERIOR_PROFILES
100
AcDbCircle
10
2670.738
20
103.524
30
0
40
1.700
0
CIRCLE
5
22C
100
AcDbEntity
8
INTERIOR_PROFILES
100
AcDbCircle
10
2670.738
20
503.524
30
0
40
1.700
0
CIRCLE
5
22D
100
AcDbEntity
8
INTERIOR_PROFILES
100
AcDbCircle
10
2684.000
20
14.262
30
0
40
1.700
0
CIRCLE
5
22E
100
AcDbEntity
8
INTERIOR_PROFILES
100
AcDbCircle
10
2704.000
20
14.262
30
0
40
1.700
0
CIRCLE
5
22F
100
AcDbEntity
8
INTERIOR_PROFILES
100
AcDbCircle
10
2684.000
20
592.786
30
0
40
1.700
0
CIRCLE
5
230
100
AcDbEntity
8
INTERIOR_PROFILES
100
AcDbCircle
10
2670.738
20
303.524
30
0
40
1.700
0
CIRCLE
5
231
100
AcDbEntity
8
INTERIOR_PROFILES
100
AcDbCircle
10
2670.738
20
203.524
30
0
40
1.700
0
CIRCLE
5
232
100
AcDbEntity
8
INTERIOR_PROFILES
100
AcDbCircle
10
2698.000
20
203.524
30
0
40
5.000
0
CIRCLE
5
233
100
AcDbEntity
8
INTERIOR_PROFILES
100
AcDbCircle
10
2687.000
20
518.786
30
0
40
1.700
0
CIRCLE
5
234
100
AcDbEntity
8
INTERIOR_PROFILES
100
AcDbCircle
10
2687.000
20
42.262
30
0
40
1.700
0
CIRCLE
5
235
100
AcDbEntity
8
INTERIOR_PROFILES
100
AcDbCircle
10
2687.000
20
88.262
30
0
40
1.700
0
CIRCLE
5
236
100
AcDbEntity
8
INTERIOR_PROFILES
100
AcDbCircle
10
2704.000
20
592.786
30
0
40
1.700
0
CIRCLE
5
237
100
AcDbEntity
8
INTERIOR_PROFILES
100
AcDbCircle
10
2698.000
20
303.524
30
0
40
5.000
0
CIRCLE
5
238
100
AcDbEntity
8
INTERIOR_PROFILES
100
AcDbCircle
10
2698.000
20
103.524
30
0
40
5.000
0
CIRCLE
5
239
100
AcDbEntity
8
INTERIOR_PROFILES
100
AcDbCircle
10
2698.000
20
503.524
30
0
40
5.000
0
CIRCLE
5
23A
100
AcDbEntity
8
INTERIOR_PROFILES
100
AcDbCircle
10
2698.000
20
403.524
30
0
40
5.000
0
CIRCLE
5
23B
100
AcDbEntity
8
INTERIOR_PROFILES
100
AcDbCircle
10
2687.000
20
564.786
30
0
40
1.700
0
TEXT
5
23C
100
AcDbEntity
8
PART_LABELS
100
AcDbText
10
2736.000
20
303.500
30
0
40
15.000
1
2BK002-060000
72
1
11
2736.000
21
303.500
31
0
100
AcDbText
73
2
0
LINE
5
23D
100
AcDbEntity
8
OUTER_PROFILES
100
AcDbLine
10
2762.000
20
607.048
30
0
11
2762.000
21
0.000
31
0
0
LINE
5
23E
100
AcDbEntity
8
OUTER_PROFILES
100
AcDbLine
10
2762.000
20
0.000
30
0
11
2739.071
21
0.000
31
0
0
LINE
5
23F
100
AcDbEntity
8
OUTER_PROFILES
100
AcDbLine
10
2739.071
20
0.000
30
0
11
2734.071
21
5.000
31
0
0
SPLINE
5
240
100
AcDbEntity
8
OUTER_PROFILES
100
AcDbSpline
70
8
71
3
72
11
73
7
74
0
40
-3.141593
40
-3.141593
40
-3.141593
40
-3.141593
40
-3.043762
40
-3.043762
40
-3.043762
40
-1.570796
40
-1.570796
40
-1.570796
40
-1.570796
10
2733.071
20
7.262
30
0
10
2733.071
20
7.215
30
0
10
2733.072
20
7.168
30
0
10
2733.075
20
7.121
30
0
10
2733.123
20
6.414
30
0
10
2733.580
20
5.707
30
0
10
2734.071
20
5.000
30
0
0
LINE
5
241
100
AcDbEntity
8
OUTER_PROFILES
100
AcDbLine
10
2733.071
20
7.262
30
0
11
2733.071
21
21.262
31
0
0
SPLINE
5
242
100
AcDbEntity
8
OUTER_PROFILES
100
AcDbSpline
70
8
71
3
72
11
73
7
74
0
40
1.570796
40
1.570796
40
1.570796
40
1.570796
40
1.668627
40
1.668627
40
1.668627
40
3.141593
40
3.141593
40
3.141593
40
3.141593
10
2734.071
20
23.524
30
0
10
2734.038
20
23.477
30
0
10
2734.005
20
23.430
30
0
10
2733.973
20
23.383
30
0
10
2733.484
20
22.676
30
0
10
2733.071
20
21.969
30
0
10
2733.071
20
21.262
30
0
0
LINE
5
243
100
AcDbEntity
8
OUTER_PROFILES
100
AcDbLine
10
2734.071
20
23.524
30
0
11
2734.000
21
23.595
31
0
0
SPLINE
5
244
100
AcDbEntity
8
OUTER_PROFILES
100
AcDbSpline
70
8
71
3
72
11
73
7
74
0
40
-3.141593
40
-3.141593
40
-3.141593
40
-3.141593
40
-1.668627
40
-1.668627
40
-1.668627
40
-1.570796
40
-1.570796
40
-1.570796
40
-1.570796
10
2731.738
20
22.595
30
0
10
2732.445
20
22.595
30
0
10
2733.152
20
23.008
30
0
10
2733.859
20
23.497
30
0
10
2733.906
20
23.529
30
0
10
2733.953
20
23.562
30
0
10
2734.000
20
23.595
30
0
0
LINE
5
245
100
AcDbEntity
8
OUTER_PROFILES
100
AcDbLine
10
2731.738
20
22.595
30
0
11
2717.738
21
22.595
31
0
0
SPLINE
5
246
100
AcDbEntity
8
OUTER_PROFILES
100
AcDbSpline
70
8
71
3
72
11
73
7
74
0
40
1.570796
40
1.570796
40
1.570796
40
1.570796
40
3.043762
40
3.043762
40
3.043762
40
3.141593
40
3.141593
40
3.141593
40
3.141593
10
2715.476
20
23.595
30
0
10
2716.183
20
23.104
30
0
10
2716.890
20
22.647
30
0
10
2717.597
20
22.599
30
0
10
2717.644
20
22.596
30
0
10
2717.691
20
22.595
30
0
10
2717.738
20
22.595
30
0
0
LINE
5
247
100
AcDbEntity
8
OUTER_PROFILES
100
AcDbLine
10
2715.476
20
23.595
30
0
11
2710.476
21
28.595
31
0
0
LINE
5
248
100
AcDbEntity
8
OUTER_PROFILES
100
AcDbLine
10
2710.476
20
28.595
30
0
11
2710.476
21
578.453
31
0
0
LINE
5
249
100
AcDbEntity
8
OUTER_PROFILES
100
AcDbLine
10
2710.476
20
578.453
30
0
11
2715.476
21
583.453
31
0
0
SPLINE
5
24A
100
AcDbEntity
8
OUTER_PROFILES
100
AcDbSpline
70
8
71
3
72
11
73
7
74
0
40
-3.141593
40
-3.141593
40
-3.141593
40
-3.141593
40
-3.043762
40
-3.043762
40
-3.043762
40
-1.570796
40
-1.570796
40
-1.570796
40
-1.570796
10
2717.738
20
584.453
30
0
10
2717.691
20
584.453
30
0
10
2717.644
20
584.452
30
0
10
2717.597
20
584.448
30
0
10
2716.890
20
584.400
30
0
10
2716.183
20
583.944
30
0
10
2715.476
20
583.453
30
0
0
LINE
5
24B
100
AcDbEntity
8
OUTER_PROFILES
100
AcDbLine
10
2717.738
20
584.453
30
0
11
2731.738
21
584.453
31
0
0
SPLINE
5
24C
100
AcDbEntity
8
OUTER_PROFILES
100
AcDbSpline
70
8
71
3
72
11
73
7
74
0
40
1.570796
40
1.570796
40
1.570796
40
1.570796
40
1.668627
40
1.668627
40
1.668627
40
3.141593
40
3.141593
40
3.141593
40
3.141593
10
2734.000
20
583.453
30
0
10
2733.953
20
583.486
30
0
10
2733.906
20
583.518
30
0
10
2733.859
20
583.551
30
0
10
2733.152
20
584.039
30
0
10
2732.445
20
584.453
30
0
10
2731.738
20
584.453
30
0
0
LINE
5
24D
100
AcDbEntity
8
OUTER_PROFILES
100
AcDbLine
10
2734.000
20
583.453
30
0
11
2734.071
21
583.524
31
0
0
SPLINE
5
24E
100
AcDbEntity
8
OUTER_PROFILES
100
AcDbSpline
70
8
71
3
72
11
73
7
74
0
40
-3.141593
40
-3.141593
40
-3.141593
40
-3.141593
40
-1.668627
40
-1.668627
40
-1.668627
40
-1.570796
40
-1.570796
40
-1.570796
40
-1.570796
10
2733.071
20
585.786
30
0
10
2733.071
20
585.079
30
0
10
2733.484
20
584.372
30
0
10
2733.973
20
583.665
30
0
10
2734.005
20
583.618
30
0
10
2734.038
20
583.571
30
0
10
2734.071
20
583.524
30
0
0
LINE
5
24F
100
AcDbEntity
8
OUTER_PROFILES
100
AcDbLine
10
2733.071
20
585.786
30
0
11
2733.071
21
599.786
31
0
0
SPLINE
5
250
100
AcDbEntity
8
OUTER_PROFILES
100
AcDbSpline
70
8
71
3
72
11
73
7
74
0
40
1.570796
40
1.570796
40
1.570796
40
1.570796
40
3.043762
40
3.043762
40
3.043762
40
3.141593
40
3.141593
40
3.141593
40
3.141593
10
2734.071
20
602.048
30
0
10
2733.580
20
601.341
30
0
10
2733.123
20
600.634
30
0
10
2733.075
20
599.927
30
0
10
2733.072
20
599.880
30
0
10
2733.071
20
599.833
30
0
10
2733.071
20
599.786
30
0
0
LINE
5
251
100
AcDbEntity
8
OUTER_PROFILES
100
AcDbLine
10
2734.071
20
602.048
30
0
11
2739.071
21
607.048
31
0
0
LINE
5
252
100
AcDbEntity
8
OUTER_PROFILES
100
AcDbLine
10
2739.071
20
607.048
30
0
11
2762.000
21
607.048
31
0
0
CIRCLE
5
253
100
AcDbEntity
8
INTERIOR_PROFILES
100
AcDbCircle
10
2724.738
20
403.524
30
0
40
1.700
0
CIRCLE
5
254
100
AcDbEntity
8
INTERIOR_PROFILES
100
AcDbCircle
10
2724.738
20
103.524
30
0
40
1.700
0
CIRCLE
5
255
100
AcDbEntity
8
INTERIOR_PROFILES
100
AcDbCircle
10
2724.738
20
503.524
30
0
40
1.700
0
CIRCLE
5
256
100
AcDbEntity
8
INTERIOR_PROFILES
100
AcDbCircle
10
2738.000
20
14.262
30
0
40
1.700
0
CIRCLE
5
257
100
AcDbEntity
8
INTERIOR_PROFILES
100
AcDbCircle
10
2758.000
20
14.262
30
0
40
1.700
0
CIRCLE
5
258
100
AcDbEntity
8
INTERIOR_PROFILES
100
AcDbCircle
10
2738.000
20
592.786
30
0
40
1.700
0
CIRCLE
5
259
100
AcDbEntity
8
INTERIOR_PROFILES
100
AcDbCircle
10
2724.738
20
303.524
30
0
40
1.700
0
CIRCLE
5
25A
100
AcDbEntity
8
INTERIOR_PROFILES
100
AcDbCircle
10
2724.738
20
203.524
30
0
40
1.700
0
CIRCLE
5
25B
100
AcDbEntity
8
INTERIOR_PROFILES
100
AcDbCircle
10
2752.000
20
203.524
30
0
40
5.000
0
CIRCLE
5
25C
100
AcDbEntity
8
INTERIOR_PROFILES
100
AcDbCircle
10
2741.000
20
518.786
30
0
40
1.700
0
CIRCLE
5
25D
100
AcDbEntity
8
INTERIOR_PROFILES
100
AcDbCircle
10
2741.000
20
42.262
30
0
40
1.700
0
CIRCLE
5
25E
100
AcDbEntity
8
INTERIOR_PROFILES
100
AcDbCircle
10
2741.000
20
88.262
30
0
40
1.700
0
CIRCLE
5
25F
100
AcDbEntity
8
INTERIOR_PROFILES
100
AcDbCircle
10
2758.000
20
592.786
30
0
40
1.700
0
CIRCLE
5
260
100
AcDbEntity
8
INTERIOR_PROFILES
100
AcDbCircle
10
2752.000
20
303.524
30
0
40
5.000
0
CIRCLE
5
261
100
AcDbEntity
8
INTERIOR_PROFILES
100
AcDbCircle
10
2752.000
20
103.524
30
0
40
5.000
0
CIRCLE
5
262
100
AcDbEntity
8
INTERIOR_PROFILES
100
AcDbCircle
10
2752.000
20
503.524
30
0
40
5.000
0
CIRCLE
5
263
100
AcDbEntity
8
INTERIOR_PROFILES
100
AcDbCircle
10
2752.000
20
403.524
30
0
40
5.000
0
CIRCLE
5
264
100
AcDbEntity
8
INTERIOR_PROFILES
100
AcDbCircle
10
2741.000
20
564.786
30
0
40
1.700
0
TEXT
5
265
100
AcDbEntity
8
PART_LABELS
100
AcDbText
10
2790.000
20
303.500
30
0
40
15.000
1
2BK002-060000
72
1
11
2790.000
21
303.500
31
0
100
AcDbText
73
2
0
LINE
5
266
100
AcDbEntity
8
OUTER_PROFILES
100
AcDbLine
10
2816.000
20
607.048
30
0
11
2816.000
21
0.000
31
0
0
LINE
5
267
100
AcDbEntity
8
OUTER_PROFILES
100
AcDbLine
10
2816.000
20
0.000
30
0
11
2793.071
21
0.000
31
0
0
LINE
5
268
100
AcDbEntity
8
OUTER_PROFILES
100
AcDbLine
10
2793.071
20
0.000
30
0
11
2788.071
21
5.000
31
0
0
SPLINE
5
269
100
AcDbEntity
8
OUTER_PROFILES
100
AcDbSpline
70
8
71
3
72
11
73
7
74
0
40
-3.141593
40
-3.141593
40
-3.141593
40
-3.141593
40
-3.043762
40
-3.043762
40
-3.043762
40
-1.570796
40
-1.570796
40
-1.570796
40
-1.570796
10
2787.071
20
7.262
30
0
10
2787.071
20
7.215
30
0
10
2787.072
20
7.168
30
0
10
2787.075
20
7.121
30
0
10
2787.123
20
6.414
30
0
10
2787.580
20
5.707
30
0
10
2788.071
20
5.000
30
0
0
LINE
5
26A
100
AcDbEntity
8
OUTER_PROFILES
100
AcDbLine
10
2787.071
20
7.262
30
0
11
2787.071
21
21.262
31
0
0
SPLINE
5
26B
100
AcDbEntity
8
OUTER_PROFILES
100
AcDbSpline
70
8
71
3
72
11
73
7
74
0
40
1.570796
40
1.570796
40
1.570796
40
1.570796
40
1.668627
40
1.668627
40
1.668627
40
3.141593
40
3.141593
40
3.141593
40
3.141593
10
2788.071
20
23.524
30
0
10
2788.038
20
23.477
30
0
10
2788.005
20
23.430
30
0
10
2787.973
20
23.383
30
0
10
2787.484
20
22.676
30
0
10
2787.071
20
21.969
30
0
10
2787.071
20
21.262
30
0
0
LINE
5
26C
100
AcDbEntity
8
OUTER_PROFILES
100
AcDbLine
10
2788.071
20
23.524
30
0
11
2788.000
21
23.595
31
0
0
SPLINE
5
26D
100
AcDbEntity
8
OUTER_PROFILES
100
AcDbSpline
70
8
71
3
72
11
73
7
74
0
40
-3.141593
40
-3.141593
40
-3.141593
40
-3.141593
40
-1.668627
40
-1.668627
40
-1.668627
40
-1.570796
40
-1.570796
40
-1.570796
40
-1.570796
10
2785.738
20
22.595
30
0
10
2786.445
20
22.595
30
0
10
2787.152
20
23.008
30
0
10
2787.859
20
23.497
30
0
10
2787.906
20
23.529
30
0
10
2787.953
20
23.562
30
0
10
2788.000
20
23.595
30
0
0
LINE
5
26E
100
AcDbEntity
8
OUTER_PROFILES
100
AcDbLine
10
2785.738
20
22.595
30
0
11
2771.738
21
22.595
31
0
0
SPLINE
5
26F
100
AcDbEntity
8
OUTER_PROFILES
100
AcDbSpline
70
8
71
3
72
11
73
7
74
0
40
1.570796
40
1.570796
40
1.570796
40
1.570796
40
3.043762
40
3.043762
40
3.043762
40
3.141593
40
3.141593
40
3.141593
40
3.141593
10
2769.476
20
23.595
30
0
10
2770.183
20
23.104
30
0
10
2770.890
20
22.647
30
0
10
2771.597
20
22.599
30
0
10
2771.644
20
22.596
30
0
10
2771.691
20
22.595
30
0
10
2771.738
20
22.595
30
0
0
LINE
5
270
100
AcDbEntity
8
OUTER_PROFILES
100
AcDbLine
10
2769.476
20
23.595
30
0
11
2764.476
21
28.595
31
0
0
LINE
5
271
100
AcDbEntity
8
OUTER_PROFILES
100
AcDbLine
10
2764.476
20
28.595
30
0
11
2764.476
21
578.453
31
0
0
LINE
5
272
100
AcDbEntity
8
OUTER_PROFILES
100
AcDbLine
10
2764.476
20
578.453
30
0
11
2769.476
21
583.453
31
0
0
SPLINE
5
273
100
AcDbEntity
8
OUTER_PROFILES
100
AcDbSpline
70
8
71
3
72
11
73
7
74
0
40
-3.141593
40
-3.141593
40
-3.141593
40
-3.141593
40
-3.043762
40
-3.043762
40
-3.043762
40
-1.570796
40
-1.570796
40
-1.570796
40
-1.570796
10
2771.738
20
584.453
30
0
10
2771.691
20
584.453
30
0
10
2771.644
20
584.452
30
0
10
2771.597
20
584.448
30
0
10
2770.890
20
584.400
30
0
10
2770.183
20
583.944
30
0
10
2769.476
20
583.453
30
0
0
LINE
5
274
100
AcDbEntity
8
OUTER_PROFILES
100
AcDbLine
10
2771.738
20
584.453
30
0
11
2785.738
21
584.453
31
0
0
SPLINE
5
275
100
AcDbEntity
8
OUTER_PROFILES
100
AcDbSpline
70
8
71
3
72
11
73
7
74
0
40
1.570796
40
1.570796
40
1.570796
40
1.570796
40
1.668627
40
1.668627
40
1.668627
40
3.141593
40
3.141593
40
3.141593
40
3.141593
10
2788.000
20
583.453
30
0
10
2787.953
20
583.486
30
0
10
2787.906
20
583.518
30
0
10
2787.859
20
583.551
30
0
10
2787.152
20
584.039
30
0
10
2786.445
20
584.453
30
0
10
2785.738
20
584.453
30
0
0
LINE
5
276
100
AcDbEntity
8
OUTER_PROFILES
100
AcDbLine
10
2788.000
20
583.453
30
0
11
2788.071
21
583.524
31
0
0
SPLINE
5
277
100
AcDbEntity
8
OUTER_PROFILES
100
AcDbSpline
70
8
71
3
72
11
73
7
74
0
40
-3.141593
40
-3.141593
40
-3.141593
40
-3.141593
40
-1.668627
40
-1.668627
40
-1.668627
40
-1.570796
40
-1.570796
40
-1.570796
40
-1.570796
10
2787.071
20
585.786
30
0
10
2787.071
20
585.079
30
0
10
2787.484
20
584.372
30
0
10
2787.973
20
583.665
30
0
10
2788.005
20
583.618
30
0
10
2788.038
20
583.571
30
0
10
2788.071
20
583.524
30
0
0
LINE
5
278
100
AcDbEntity
8
OUTER_PROFILES
100
AcDbLine
10
2787.071
20
585.786
30
0
11
2787.071
21
599.786
31
0
0
SPLINE
5
279
100
AcDbEntity
8
OUTER_PROFILES
100
AcDbSpline
70
8
71
3
72
11
73
7
74
0
40
1.570796
40
1.570796
40
1.570796
40
1.570796
40
3.043762
40
3.043762
40
3.043762
40
3.141593
40
3.141593
40
3.141593
40
3.141593
10
2788.071
20
602.048
30
0
10
2787.580
20
601.341
30
0
10
2787.123
20
600.634
30
0
10
2787.075
20
599.927
30
0
10
2787.072
20
599.880
30
0
10
2787.071
20
599.833
30
0
10
2787.071
20
599.786
30
0
0
LINE
5
27A
100
AcDbEntity
8
OUTER_PROFILES
100
AcDbLine
10
2788.071
20
602.048
30
0
11
2793.071
21
607.048
31
0
0
LINE
5
27B
100
AcDbEntity
8
OUTER_PROFILES
100
AcDbLine
10
2793.071
20
607.048
30
0
11
2816.000
21
607.048
31
0
0
CIRCLE
5
27C
100
AcDbEntity
8
INTERIOR_PROFILES
100
AcDbCircle
10
2778.738
20
403.524
30
0
40
1.700
0
CIRCLE
5
27D
100
AcDbEntity
8
INTERIOR_PROFILES
100
AcDbCircle
10
2778.738
20
103.524
30
0
40
1.700
0
CIRCLE
5
27E
100
AcDbEntity
8
INTERIOR_PROFILES
100
AcDbCircle
10
2778.738
20
503.524
30
0
40
1.700
0
CIRCLE
5
27F
100
AcDbEntity
8
INTERIOR_PROFILES
100
AcDbCircle
10
2792.000
20
14.262
30
0
40
1.700
0
CIRCLE
5
280
100
AcDbEntity
8
INTERIOR_PROFILES
100
AcDbCircle
10
2812.000
20
14.262
30
0
40
1.700
0
CIRCLE
5
281
100
AcDbEntity
8
INTERIOR_PROFILES
100
AcDbCircle
10
2792.000
20
592.786
30
0
40
1.700
0
CIRCLE
5
282
100
AcDbEntity
8
INTERIOR_PROFILES
100
AcDbCircle
10
2778.738
20
303.524
30
0
40
1.700
0
CIRCLE
5
283
100
AcDbEntity
8
INTERIOR_PROFILES
100
AcDbCircle
10
2778.738
20
203.524
30
0
40
1.700
0
CIRCLE
5
284
100
AcDbEntity
8
INTERIOR_PROFILES
100
AcDbCircle
10
2806.000
20
203.524
30
0
40
5.000
0
CIRCLE
5
285
100
AcDbEntity
8
INTERIOR_PROFILES
100
AcDbCircle
10
2795.000
20
518.786
30
0
40
1.700
0
CIRCLE
5
286
100
AcDbEntity
8
INTERIOR_PROFILES
100
AcDbCircle
10
2795.000
20
42.262
30
0
40
1.700
0
CIRCLE
5
287
100
AcDbEntity
8
INTERIOR_PROFILES
100
AcDbCircle
10
2795.000
20
88.262
30
0
40
1.700
0
CIRCLE
5
288
100
AcDbEntity
8
INTERIOR_PROFILES
100
AcDbCircle
10
2812.000
20
592.786
30
0
40
1.700
0
CIRCLE
5
289
100
AcDbEntity
8
INTERIOR_PROFILES
100
AcDbCircle
10
2806.000
20
303.524
30
0
40
5.000
0
CIRCLE
5
28A
100
AcDbEntity
8
INTERIOR_PROFILES
100
AcDbCircle
10
2806.000
20
103.524
30
0
40
5.000
0
CIRCLE
5
28B
100
AcDbEntity
8
INTERIOR_PROFILES
100
AcDbCircle
10
2806.000
20
503.524
30
0
40
5.000
0
CIRCLE
5
28C
100
AcDbEntity
8
INTERIOR_PROFILES
100
AcDbCircle
10
2806.000
20
403.524
30
0
40
5.000
0
CIRCLE
5
28D
100
AcDbEntity
8
INTERIOR_PROFILES
100
AcDbCircle
10
2795.000
20
564.786
30
0
40
1.700
0
TEXT
5
28E
100
AcDbEntity
8
PART_LABELS
100
AcDbText
10
2844.000
20
303.500
30
0
40
15.000
1
2BK002-060000
72
1
11
2844.000
21
303.500
31
0
100
AcDbText
73
2
0
LINE
5
28F
100
AcDbEntity
8
OUTER_PROFILES
100
AcDbLine
10
2870.000
20
607.048
30
0
11
2870.000
21
0.000
31
0
0
LINE
5
290
100
AcDbEntity
8
OUTER_PROFILES
100
AcDbLine
10
2870.000
20
0.000
30
0
11
2847.071
21
0.000
31
0
0
LINE
5
291
100
AcDbEntity
8
OUTER_PROFILES
100
AcDbLine
10
2847.071
20
0.000
30
0
11
2842.071
21
5.000
31
0
0
SPLINE
5
292
100
AcDbEntity
8
OUTER_PROFILES
100
AcDbSpline
70
8
71
3
72
11
73
7
74
0
40
-3.141593
40
-3.141593
40
-3.141593
40
-3.141593
40
-3.043762
40
-3.043762
40
-3.043762
40
-1.570796
40
-1.570796
40
-1.570796
40
-1.570796
10
2841.071
20
7.262
30
0
10
2841.071
20
7.215
30
0
10
2841.072
20
7.168
30
0
10
2841.075
20
7.121
30
0
10
2841.123
20
6.414
30
0
10
2841.580
20
5.707
30
0
10
2842.071
20
5.000
30
0
0
LINE
5
293
100
AcDbEntity
8
OUTER_PROFILES
100
AcDbLine
10
2841.071
20
7.262
30
0
11
2841.071
21
21.262
31
0
0
SPLINE
5
294
100
AcDbEntity
8
OUTER_PROFILES
100
AcDbSpline
70
8
71
3
72
11
73
7
74
0
40
1.570796
40
1.570796
40
1.570796
40
1.570796
40
1.668627
40
1.668627
40
1.668627
40
3.141593
40
3.141593
40
3.141593
40
3.141593
10
2842.071
20
23.524
30
0
10
2842.038
20
23.477
30
0
10
2842.005
20
23.430
30
0
10
2841.973
20
23.383
30
0
10
2841.484
20
22.676
30
0
10
2841.071
20
21.969
30
0
10
2841.071
20
21.262
30
0
0
LINE
5
295
100
AcDbEntity
8
OUTER_PROFILES
100
AcDbLine
10
2842.071
20
23.524
30
0
11
2842.000
21
23.595
31
0
0
SPLINE
5
296
100
AcDbEntity
8
OUTER_PROFILES
100
AcDbSpline
70
8
71
3
72
11
73
7
74
0
40
-3.141593
40
-3.141593
40
-3.141593
40
-3.141593
40
-1.668627
40
-1.668627
40
-1.668627
40
-1.570796
40
-1.570796
40
-1.570796
40
-1.570796
10
2839.738
20
22.595
30
0
10
2840.445
20
22.595
30
0
10
2841.152
20
23.008
30
0
10
2841.859
20
23.497
30
0
10
2841.906
20
23.529
30
0
10
2841.953
20
23.562
30
0
10
2842.000
20
23.595
30
0
0
LINE
5
297
100
AcDbEntity
8
OUTER_PROFILES
100
AcDbLine
10
2839.738
20
22.595
30
0
11
2825.738
21
22.595
31
0
0
SPLINE
5
298
100
AcDbEntity
8
OUTER_PROFILES
100
AcDbSpline
70
8
71
3
72
11
73
7
74
0
40
1.570796
40
1.570796
40
1.570796
40
1.570796
40
3.043762
40
3.043762
40
3.043762
40
3.141593
40
3.141593
40
3.141593
40
3.141593
10
2823.476
20
23.595
30
0
10
2824.183
20
23.104
30
0
10
2824.890
20
22.647
30
0
10
2825.597
20
22.599
30
0
10
2825.644
20
22.596
30
0
10
2825.691
20
22.595
30
0
10
2825.738
20
22.595
30
0
0
LINE
5
299
100
AcDbEntity
8
OUTER_PROFILES
100
AcDbLine
10
2823.476
20
23.595
30
0
11
2818.476
21
28.595
31
0
0
LINE
5
29A
100
AcDbEntity
8
OUTER_PROFILES
100
AcDbLine
10
2818.476
20
28.595
30
0
11
2818.476
21
578.453
31
0
0
LINE
5
29B
100
AcDbEntity
8
OUTER_PROFILES
100
AcDbLine
10
2818.476
20
578.453
30
0
11
2823.476
21
583.453
31
0
0
SPLINE
5
29C
100
AcDbEntity
8
OUTER_PROFILES
100
AcDbSpline
70
8
71
3
72
11
73
7
74
0
40
-3.141593
40
-3.141593
40
-3.141593
40
-3.141593
40
-3.043762
40
-3.043762
40
-3.043762
40
-1.570796
40
-1.570796
40
-1.570796
40
-1.570796
10
2825.738
20
584.453
30
0
10
2825.691
20
584.453
30
0
10
2825.644
20
584.452
30
0
10
2825.597
20
584.448
30
0
10
2824.890
20
584.400
30
0
10
2824.183
20
583.944
30
0
10
2823.476
20
583.453
30
0
0
LINE
5
29D
100
AcDbEntity
8
OUTER_PROFILES
100
AcDbLine
10
2825.738
20
584.453
30
0
11
2839.738
21
584.453
31
0
0
SPLINE
5
29E
100
AcDbEntity
8
OUTER_PROFILES
100
AcDbSpline
70
8
71
3
72
11
73
7
74
0
40
1.570796
40
1.570796
40
1.570796
40
1.570796
40
1.668627
40
1.668627
40
1.668627
40
3.141593
40
3.141593
40
3.141593
40
3.141593
10
2842.000
20
583.453
30
0
10
2841.953
20
583.486
30
0
10
2841.906
20
583.518
30
0
10
2841.859
20
583.551
30
0
10
2841.152
20
584.039
30
0
10
2840.445
20
584.453
30
0
10
2839.738
20
584.453
30
0
0
LINE
5
29F
100
AcDbEntity
8
OUTER_PROFILES
100
AcDbLine
10
2842.000
20
583.453
30
0
11
2842.071
21
583.524
31
0
0
SPLINE
5
2A0
100
AcDbEntity
8
OUTER_PROFILES
100
AcDbSpline
70
8
71
3
72
11
73
7
74
0
40
-3.141593
40
-3.141593
40
-3.141593
40
-3.141593
40
-1.668627
40
-1.668627
40
-1.668627
40
-1.570796
40
-1.570796
40
-1.570796
40
-1.570796
10
2841.071
20
585.786
30
0
10
2841.071
20
585.079
30
0
10
2841.484
20
584.372
30
0
10
2841.973
20
583.665
30
0
10
2842.005
20
583.618
30
0
10
2842.038
20
583.571
30
0
10
2842.071
20
583.524
30
0
0
LINE
5
2A1
100
AcDbEntity
8
OUTER_PROFILES
100
AcDbLine
10
2841.071
20
585.786
30
0
11
2841.071
21
599.786
31
0
0
SPLINE
5
2A2
100
AcDbEntity
8
OUTER_PROFILES
100
AcDbSpline
70
8
71
3
72
11
73
7
74
0
40
1.570796
40
1.570796
40
1.570796
40
1.570796
40
3.043762
40
3.043762
40
3.043762
40
3.141593
40
3.141593
40
3.141593
40
3.141593
10
2842.071
20
602.048
30
0
10
2841.580
20
601.341
30
0
10
2841.123
20
600.634
30
0
10
2841.075
20
599.927
30
0
10
2841.072
20
599.880
30
0
10
2841.071
20
599.833
30
0
10
2841.071
20
599.786
30
0
0
LINE
5
2A3
100
AcDbEntity
8
OUTER_PROFILES
100
AcDbLine
10
2842.071
20
602.048
30
0
11
2847.071
21
607.048
31
0
0
LINE
5
2A4
100
AcDbEntity
8
OUTER_PROFILES
100
AcDbLine
10
2847.071
20
607.048
30
0
11
2870.000
21
607.048
31
0
0
CIRCLE
5
2A5
100
AcDbEntity
8
INTERIOR_PROFILES
100
AcDbCircle
10
2832.738
20
403.524
30
0
40
1.700
0
CIRCLE
5
2A6
100
AcDbEntity
8
INTERIOR_PROFILES
100
AcDbCircle
10
2832.738
20
103.524
30
0
40
1.700
0
CIRCLE
5
2A7
100
AcDbEntity
8
INTERIOR_PROFILES
100
AcDbCircle
10
2832.738
20
503.524
30
0
40
1.700
0
CIRCLE
5
2A8
100
AcDbEntity
8
INTERIOR_PROFILES
100
AcDbCircle
10
2846.000
20
14.262
30
0
40
1.700
0
CIRCLE
5
2A9
100
AcDbEntity
8
INTERIOR_PROFILES
100
AcDbCircle
10
2866.000
20
14.262
30
0
40
1.700
0
CIRCLE
5
2AA
100
AcDbEntity
8
INTERIOR_PROFILES
100
AcDbCircle
10
2846.000
20
592.786
30
0
40
1.700
0
CIRCLE
5
2AB
100
AcDbEntity
8
INTERIOR_PROFILES
100
AcDbCircle
10
2832.738
20
303.524
30
0
40
1.700
0
CIRCLE
5
2AC
100
AcDbEntity
8
INTERIOR_PROFILES
100
AcDbCircle
10
2832.738
20
203.524
30
0
40
1.700
0
CIRCLE
5
2AD
100
AcDbEntity
8
INTERIOR_PROFILES
100
AcDbCircle
10
2860.000
20
203.524
30
0
40
5.000
0
CIRCLE
5
2AE
100
AcDbEntity
8
INTERIOR_PROFILES
100
AcDbCircle
10
2849.000
20
518.786
30
0
40
1.700
0
CIRCLE
5
2AF
100
AcDbEntity
8
INTERIOR_PROFILES
100
AcDbCircle
10
2849.000
20
42.262
30
0
40
1.700
0
CIRCLE
5
2B0
100
AcDbEntity
8
INTERIOR_PROFILES
100
AcDbCircle
10
2849.000
20
88.262
30
0
40
1.700
0
CIRCLE
5
2B1
100
AcDbEntity
8
INTERIOR_PROFILES
100
AcDbCircle
10
2866.000
20
592.786
30
0
40
1.700
0
CIRCLE
5
2B2
100
AcDbEntity
8
INTERIOR_PROFILES
100
AcDbCircle
10
2860.000
20
303.524
30
0
40
5.000
0
CIRCLE
5
2B3
100
AcDbEntity
8
INTERIOR_PROFILES
100
AcDbCircle
10
2860.000
20
103.524
30
0
40
5.000
0
CIRCLE
5
2B4
100
AcDbEntity
8
INTERIOR_PROFILES
100
AcDbCircle
10
2860.000
20
503.524
30
0
40
5.000
0
CIRCLE
5
2B5
100
AcDbEntity
8
INTERIOR_PROFILES
100
AcDbCircle
10
2860.000
20
403.524
30
0
40
5.000
0
CIRCLE
5
2B6
100
AcDbEntity
8
INTERIOR_PROFILES
100
AcDbCircle
10
2849.000
20
564.786
30
0
40
1.700
0
TEXT
5
2B7
100
AcDbEntity
8
PART_LABELS
100
AcDbText
10
2898.000
20
303.500
30
0
40
15.000
1
2BK002-060000
72
1
11
2898.000
21
303.500
31
0
100
AcDbText
73
2
0
LINE
5
2B8
100
AcDbEntity
8
OUTER_PROFILES
100
AcDbLine
10
2924.000
20
607.048
30
0
11
2924.000
21
0.000
31
0
0
LINE
5
2B9
100
AcDbEntity
8
OUTER_PROFILES
100
AcDbLine
10
2924.000
20
0.000
30
0
11
2901.071
21
0.000
31
0
0
LINE
5
2BA
100
AcDbEntity
8
OUTER_PROFILES
100
AcDbLine
10
2901.071
20
0.000
30
0
11
2896.071
21
5.000
31
0
0
SPLINE
5
2BB
100
AcDbEntity
8
OUTER_PROFILES
100
AcDbSpline
70
8
71
3
72
11
73
7
74
0
40
-3.141593
40
-3.141593
40
-3.141593
40
-3.141593
40
-3.043762
40
-3.043762
40
-3.043762
40
-1.570796
40
-1.570796
40
-1.570796
40
-1.570796
10
2895.071
20
7.262
30
0
10
2895.071
20
7.215
30
0
10
2895.072
20
7.168
30
0
10
2895.075
20
7.121
30
0
10
2895.123
20
6.414
30
0
10
2895.580
20
5.707
30
0
10
2896.071
20
5.000
30
0
0
LINE
5
2BC
100
AcDbEntity
8
OUTER_PROFILES
100
AcDbLine
10
2895.071
20
7.262
30
0
11
2895.071
21
21.262
31
0
0
SPLINE
5
2BD
100
AcDbEntity
8
OUTER_PROFILES
100
AcDbSpline
70
8
71
3
72
11
73
7
74
0
40
1.570796
40
1.570796
40
1.570796
40
1.570796
40
1.668627
40
1.668627
40
1.668627
40
3.141593
40
3.141593
40
3.141593
40
3.141593
10
2896.071
20
23.524
30
0
10
2896.038
20
23.477
30
0
10
2896.005
20
23.430
30
0
10
2895.973
20
23.383
30
0
10
2895.484
20
22.676
30
0
10
2895.071
20
21.969
30
0
10
2895.071
20
21.262
30
0
0
LINE
5
2BE
100
AcDbEntity
8
OUTER_PROFILES
100
AcDbLine
10
2896.071
20
23.524
30
0
11
2896.000
21
23.595
31
0
0
SPLINE
5
2BF
100
AcDbEntity
8
OUTER_PROFILES
100
AcDbSpline
70
8
71
3
72
11
73
7
74
0
40
-3.141593
40
-3.141593
40
-3.141593
40
-3.141593
40
-1.668627
40
-1.668627
40
-1.668627
40
-1.570796
40
-1.570796
40
-1.570796
40
-1.570796
10
2893.738
20
22.595
30
0
10
2894.445
20
22.595
30
0
10
2895.152
20
23.008
30
0
10
2895.859
20
23.497
30
0
10
2895.906
20
23.529
30
0
10
2895.953
20
23.562
30
0
10
2896.000
20
23.595
30
0
0
LINE
5
2C0
100
AcDbEntity
8
OUTER_PROFILES
100
AcDbLine
10
2893.738
20
22.595
30
0
11
2879.738
21
22.595
31
0
0
SPLINE
5
2C1
100
AcDbEntity
8
OUTER_PROFILES
100
AcDbSpline
70
8
71
3
72
11
73
7
74
0
40
1.570796
40
1.570796
40
1.570796
40
1.570796
40
3.043762
40
3.043762
40
3.043762
40
3.141593
40
3.141593
40
3.141593
40
3.141593
10
2877.476
20
23.595
30
0
10
2878.183
20
23.104
30
0
10
2878.890
20
22.647
30
0
10
2879.597
20
22.599
30
0
10
2879.644
20
22.596
30
0
10
2879.691
20
22.595
30
0
10
2879.738
20
22.595
30
0
0
LINE
5
2C2
100
AcDbEntity
8
OUTER_PROFILES
100
AcDbLine
10
2877.476
20
23.595
30
0
11
2872.476
21
28.595
31
0
0
LINE
5
2C3
100
AcDbEntity
8
OUTER_PROFILES
100
AcDbLine
10
2872.476
20
28.595
30
0
11
2872.476
21
578.453
31
0
0
LINE
5
2C4
100
AcDbEntity
8
OUTER_PROFILES
100
AcDbLine
10
2872.476
20
578.453
30
0
11
2877.476
21
583.453
31
0
0
SPLINE
5
2C5
100
AcDbEntity
8
OUTER_PROFILES
100
AcDbSpline
70
8
71
3
72
11
73
7
74
0
40
-3.141593
40
-3.141593
40
-3.141593
40
-3.141593
40
-3.043762
40
-3.043762
40
-3.043762
40
-1.570796
40
-1.570796
40
-1.570796
40
-1.570796
10
2879.738
20
584.453
30
0
10
2879.691
20
584.453
30
0
10
2879.644
20
584.452
30
0
10
2879.597
20
584.448
30
0
10
2878.890
20
584.400
30
0
10
2878.183
20
583.944
30
0
10
2877.476
20
583.453
30
0
0
LINE
5
2C6
100
AcDbEntity
8
OUTER_PROFILES
100
AcDbLine
10
2879.738
20
584.453
30
0
11
2893.738
21
584.453
31
0
0
SPLINE
5
2C7
100
AcDbEntity
8
OUTER_PROFILES
100
AcDbSpline
70
8
71
3
72
11
73
7
74
0
40
1.570796
40
1.570796
40
1.570796
40
1.570796
40
1.668627
40
1.668627
40
1.668627
40
3.141593
40
3.141593
40
3.141593
40
3.141593
10
2896.000
20
583.453
30
0
10
2895.953
20
583.486
30
0
10
2895.906
20
583.518
30
0
10
2895.859
20
583.551
30
0
10
2895.152
20
584.039
30
0
10
2894.445
20
584.453
30
0
10
2893.738
20
584.453
30
0
0
LINE
5
2C8
100
AcDbEntity
8
OUTER_PROFILES
100
AcDbLine
10
2896.000
20
583.453
30
0
11
2896.071
21
583.524
31
0
0
SPLINE
5
2C9
100
AcDbEntity
8
OUTER_PROFILES
100
AcDbSpline
70
8
71
3
72
11
73
7
74
0
40
-3.141593
40
-3.141593
40
-3.141593
40
-3.141593
40
-1.668627
40
-1.668627
40
-1.668627
40
-1.570796
40
-1.570796
40
-1.570796
40
-1.570796
10
2895.071
20
585.786
30
0
10
2895.071
20
585.079
30
0
10
2895.484
20
584.372
30
0
10
2895.973
20
583.665
30
0
10
2896.005
20
583.618
30
0
10
2896.038
20
583.571
30
0
10
2896.071
20
583.524
30
0
0
LINE
5
2CA
100
AcDbEntity
8
OUTER_PROFILES
100
AcDbLine
10
2895.071
20
585.786
30
0
11
2895.071
21
599.786
31
0
0
SPLINE
5
2CB
100
AcDbEntity
8
OUTER_PROFILES
100
AcDbSpline
70
8
71
3
72
11
73
7
74
0
40
1.570796
40
1.570796
40
1.570796
40
1.570796
40
3.043762
40
3.043762
40
3.043762
40
3.141593
40
3.141593
40
3.141593
40
3.141593
10
2896.071
20
602.048
30
0
10
2895.580
20
601.341
30
0
10
2895.123
20
600.634
30
0
10
2895.075
20
599.927
30
0
10
2895.072
20
599.880
30
0
10
2895.071
20
599.833
30
0
10
2895.071
20
599.786
30
0
0
LINE
5
2CC
100
AcDbEntity
8
OUTER_PROFILES
100
AcDbLine
10
2896.071
20
602.048
30
0
11
2901.071
21
607.048
31
0
0
LINE
5
2CD
100
AcDbEntity
8
OUTER_PROFILES
100
AcDbLine
10
2901.071
20
607.048
30
0
11
2924.000
21
607.048
31
0
0
CIRCLE
5
2CE
100
AcDbEntity
8
INTERIOR_PROFILES
100
AcDbCircle
10
2886.738
20
403.524
30
0
40
1.700
0
CIRCLE
5
2CF
100
AcDbEntity
8
INTERIOR_PROFILES
100
AcDbCircle
10
2886.738
20
103.524
30
0
40
1.700
0
CIRCLE
5
2D0
100
AcDbEntity
8
INTERIOR_PROFILES
100
AcDbCircle
10
2886.738
20
503.524
30
0
40
1.700
0
CIRCLE
5
2D1
100
AcDbEntity
8
INTERIOR_PROFILES
100
AcDbCircle
10
2900.000
20
14.262
30
0
40
1.700
0
CIRCLE
5
2D2
100
AcDbEntity
8
INTERIOR_PROFILES
100
AcDbCircle
10
2920.000
20
14.262
30
0
40
1.700
0
CIRCLE
5
2D3
100
AcDbEntity
8
INTERIOR_PROFILES
100
AcDbCircle
10
2900.000
20
592.786
30
0
40
1.700
0
CIRCLE
5
2D4
100
AcDbEntity
8
INTERIOR_PROFILES
100
AcDbCircle
10
2886.738
20
303.524
30
0
40
1.700
0
CIRCLE
5
2D5
100
AcDbEntity
8
INTERIOR_PROFILES
100
AcDbCircle
10
2886.738
20
203.524
30
0
40
1.700
0
CIRCLE
5
2D6
100
AcDbEntity
8
INTERIOR_PROFILES
100
AcDbCircle
10
2914.000
20
203.524
30
0
40
5.000
0
CIRCLE
5
2D7
100
AcDbEntity
8
INTERIOR_PROFILES
100
AcDbCircle
10
2903.000
20
518.786
30
0
40
1.700
0
CIRCLE
5
2D8
100
AcDbEntity
8
INTERIOR_PROFILES
100
AcDbCircle
10
2903.000
20
42.262
30
0
40
1.700
0
CIRCLE
5
2D9
100
AcDbEntity
8
INTERIOR_PROFILES
100
AcDbCircle
10
2903.000
20
88.262
30
0
40
1.700
0
CIRCLE
5
2DA
100
AcDbEntity
8
INTERIOR_PROFILES
100
AcDbCircle
10
2920.000
20
592.786
30
0
40
1.700
0
CIRCLE
5
2DB
100
AcDbEntity
8
INTERIOR_PROFILES
100
AcDbCircle
10
2914.000
20
303.524
30
0
40
5.000
0
CIRCLE
5
2DC
100
AcDbEntity
8
INTERIOR_PROFILES
100
AcDbCircle
10
2914.000
20
103.524
30
0
40
5.000
0
CIRCLE
5
2DD
100
AcDbEntity
8
INTERIOR_PROFILES
100
AcDbCircle
10
2914.000
20
503.524
30
0
40
5.000
0
CIRCLE
5
2DE
100
AcDbEntity
8
INTERIOR_PROFILES
100
AcDbCircle
10
2914.000
20
403.524
30
0
40
5.000
0
CIRCLE
5
2DF
100
AcDbEntity
8
INTERIOR_PROFILES
100
AcDbCircle
10
2903.000
20
564.786
30
0
40
1.700
0
TEXT
5
2E0
100
AcDbEntity
8
PART_LABELS
100
AcDbText
10
2952.000
20
303.500
30
0
40
15.000
1
2BK002-060000
72
1
11
2952.000
21
303.500
31
0
100
AcDbText
73
2
0
LINE
5
2E1
100
AcDbEntity
8
OUTER_PROFILES
100
AcDbLine
10
2978.000
20
607.048
30
0
11
2978.000
21
0.000
31
0
0
LINE
5
2E2
100
AcDbEntity
8
OUTER_PROFILES
100
AcDbLine
10
2978.000
20
0.000
30
0
11
2955.071
21
0.000
31
0
0
LINE
5
2E3
100
AcDbEntity
8
OUTER_PROFILES
100
AcDbLine
10
2955.071
20
0.000
30
0
11
2950.071
21
5.000
31
0
0
SPLINE
5
2E4
100
AcDbEntity
8
OUTER_PROFILES
100
AcDbSpline
70
8
71
3
72
11
73
7
74
0
40
-3.141593
40
-3.141593
40
-3.141593
40
-3.141593
40
-3.043762
40
-3.043762
40
-3.043762
40
-1.570796
40
-1.570796
40
-1.570796
40
-1.570796
10
2949.071
20
7.262
30
0
10
2949.071
20
7.215
30
0
10
2949.072
20
7.168
30
0
10
2949.075
20
7.121
30
0
10
2949.123
20
6.414
30
0
10
2949.580
20
5.707
30
0
10
2950.071
20
5.000
30
0
0
LINE
5
2E5
100
AcDbEntity
8
OUTER_PROFILES
100
AcDbLine
10
2949.071
20
7.262
30
0
11
2949.071
21
21.262
31
0
0
SPLINE
5
2E6
100
AcDbEntity
8
OUTER_PROFILES
100
AcDbSpline
70
8
71
3
72
11
73
7
74
0
40
1.570796
40
1.570796
40
1.570796
40
1.570796
40
1.668627
40
1.668627
40
1.668627
40
3.141593
40
3.141593
40
3.141593
40
3.141593
10
2950.071
20
23.524
30
0
10
2950.038
20
23.477
30
0
10
2950.005
20
23.430
30
0
10
2949.973
20
23.383
30
0
10
2949.484
20
22.676
30
0
10
2949.071
20
21.969
30
0
10
2949.071
20
21.262
30
0
0
LINE
5
2E7
100
AcDbEntity
8
OUTER_PROFILES
100
AcDbLine
10
2950.071
20
23.524
30
0
11
2950.000
21
23.595
31
0
0
SPLINE
5
2E8
100
AcDbEntity
8
OUTER_PROFILES
100
AcDbSpline
70
8
71
3
72
11
73
7
74
0
40
-3.141593
40
-3.141593
40
-3.141593
40
-3.141593
40
-1.668627
40
-1.668627
40
-1.668627
40
-1.570796
40
-1.570796
40
-1.570796
40
-1.570796
10
2947.738
20
22.595
30
0
10
2948.445
20
22.595
30
0
10
2949.152
20
23.008
30
0
10
2949.859
20
23.497
30
0
10
2949.906
20
23.529
30
0
10
2949.953
20
23.562
30
0
10
2950.000
20
23.595
30
0
0
LINE
5
2E9
100
AcDbEntity
8
OUTER_PROFILES
100
AcDbLine
10
2947.738
20
22.595
30
0
11
2933.738
21
22.595
31
0
0
SPLINE
5
2EA
100
AcDbEntity
8
OUTER_PROFILES
100
AcDbSpline
70
8
71
3
72
11
73
7
74
0
40
1.570796
40
1.570796
40
1.570796
40
1.570796
40
3.043762
40
3.043762
40
3.043762
40
3.141593
40
3.141593
40
3.141593
40
3.141593
10
2931.476
20
23.595
30
0
10
2932.183
20
23.104
30
0
10
2932.890
20
22.647
30
0
10
2933.597
20
22.599
30
0
10
2933.644
20
22.596
30
0
10
2933.691
20
22.595
30
0
10
2933.738
20
22.595
30
0
0
LINE
5
2EB
100
AcDbEntity
8
OUTER_PROFILES
100
AcDbLine
10
2931.476
20
23.595
30
0
11
2926.476
21
28.595
31
0
0
LINE
5
2EC
100
AcDbEntity
8
OUTER_PROFILES
100
AcDbLine
10
2926.476
20
28.595
30
0
11
2926.476
21
578.453
31
0
0
LINE
5
2ED
100
AcDbEntity
8
OUTER_PROFILES
100
AcDbLine
10
2926.476
20
578.453
30
0
11
2931.476
21
583.453
31
0
0
SPLINE
5
2EE
100
AcDbEntity
8
OUTER_PROFILES
100
AcDbSpline
70
8
71
3
72
11
73
7
74
0
40
-3.141593
40
-3.141593
40
-3.141593
40
-3.141593
40
-3.043762
40
-3.043762
40
-3.043762
40
-1.570796
40
-1.570796
40
-1.570796
40
-1.570796
10
2933.738
20
584.453
30
0
10
2933.691
20
584.453
30
0
10
2933.644
20
584.452
30
0
10
2933.597
20
584.448
30
0
10
2932.890
20
584.400
30
0
10
2932.183
20
583.944
30
0
10
2931.476
20
583.453
30
0
0
LINE
5
2EF
100
AcDbEntity
8
OUTER_PROFILES
100
AcDbLine
10
2933.738
20
584.453
30
0
11
2947.738
21
584.453
31
0
0
SPLINE
5
2F0
100
AcDbEntity
8
OUTER_PROFILES
100
AcDbSpline
70
8
71
3
72
11
73
7
74
0
40
1.570796
40
1.570796
40
1.570796
40
1.570796
40
1.668627
40
1.668627
40
1.668627
40
3.141593
40
3.141593
40
3.141593
40
3.141593
10
2950.000
20
583.453
30
0
10
2949.953
20
583.486
30
0
10
2949.906
20
583.518
30
0
10
2949.859
20
583.551
30
0
10
2949.152
20
584.039
30
0
10
2948.445
20
584.453
30
0
10
2947.738
20
584.453
30
0
0
LINE
5
2F1
100
AcDbEntity
8
OUTER_PROFILES
100
AcDbLine
10
2950.000
20
583.453
30
0
11
2950.071
21
583.524
31
0
0
SPLINE
5
2F2
100
AcDbEntity
8
OUTER_PROFILES
100
AcDbSpline
70
8
71
3
72
11
73
7
74
0
40
-3.141593
40
-3.141593
40
-3.141593
40
-3.141593
40
-1.668627
40
-1.668627
40
-1.668627
40
-1.570796
40
-1.570796
40
-1.570796
40
-1.570796
10
2949.071
20
585.786
30
0
10
2949.071
20
585.079
30
0
10
2949.484
20
584.372
30
0
10
2949.973
20
583.665
30
0
10
2950.005
20
583.618
30
0
10
2950.038
20
583.571
30
0
10
2950.071
20
583.524
30
0
0
LINE
5
2F3
100
AcDbEntity
8
OUTER_PROFILES
100
AcDbLine
10
2949.071
20
585.786
30
0
11
2949.071
21
599.786
31
0
0
SPLINE
5
2F4
100
AcDbEntity
8
OUTER_PROFILES
100
AcDbSpline
70
8
71
3
72
11
73
7
74
0
40
1.570796
40
1.570796
40
1.570796
40
1.570796
40
3.043762
40
3.043762
40
3.043762
40
3.141593
40
3.141593
40
3.141593
40
3.141593
10
2950.071
20
602.048
30
0
10
2949.580
20
601.341
30
0
10
2949.123
20
600.634
30
0
10
2949.075
20
599.927
30
0
10
2949.072
20
599.880
30
0
10
2949.071
20
599.833
30
0
10
2949.071
20
599.786
30
0
0
LINE
5
2F5
100
AcDbEntity
8
OUTER_PROFILES
100
AcDbLine
10
2950.071
20
602.048
30
0
11
2955.071
21
607.048
31
0
0
LINE
5
2F6
100
AcDbEntity
8
OUTER_PROFILES
100
AcDbLine
10
2955.071
20
607.048
30
0
11
2978.000
21
607.048
31
0
0
CIRCLE
5
2F7
100
AcDbEntity
8
INTERIOR_PROFILES
100
AcDbCircle
10
2940.738
20
403.524
30
0
40
1.700
0
CIRCLE
5
2F8
100
AcDbEntity
8
INTERIOR_PROFILES
100
AcDbCircle
10
2940.738
20
103.524
30
0
40
1.700
0
CIRCLE
5
2F9
100
AcDbEntity
8
INTERIOR_PROFILES
100
AcDbCircle
10
2940.738
20
503.524
30
0
40
1.700
0
CIRCLE
5
2FA
100
AcDbEntity
8
INTERIOR_PROFILES
100
AcDbCircle
10
2954.000
20
14.262
30
0
40
1.700
0
CIRCLE
5
2FB
100
AcDbEntity
8
INTERIOR_PROFILES
100
AcDbCircle
10
2974.000
20
14.262
30
0
40
1.700
0
CIRCLE
5
2FC
100
AcDbEntity
8
INTERIOR_PROFILES
100
AcDbCircle
10
2954.000
20
592.786
30
0
40
1.700
0
CIRCLE
5
2FD
100
AcDbEntity
8
INTERIOR_PROFILES
100
AcDbCircle
10
2940.738
20
303.524
30
0
40
1.700
0
CIRCLE
5
2FE
100
AcDbEntity
8
INTERIOR_PROFILES
100
AcDbCircle
10
2940.738
20
203.524
30
0
40
1.700
0
CIRCLE
5
2FF
100
AcDbEntity
8
INTERIOR_PROFILES
100
AcDbCircle
10
2968.000
20
203.524
30
0
40
5.000
0
CIRCLE
5
300
100
AcDbEntity
8
INTERIOR_PROFILES
100
AcDbCircle
10
2957.000
20
518.786
30
0
40
1.700
0
CIRCLE
5
301
100
AcDbEntity
8
INTERIOR_PROFILES
100
AcDbCircle
10
2957.000
20
42.262
30
0
40
1.700
0
CIRCLE
5
302
100
AcDbEntity
8
INTERIOR_PROFILES
100
AcDbCircle
10
2957.000
20
88.262
30
0
40
1.700
0
CIRCLE
5
303
100
AcDbEntity
8
INTERIOR_PROFILES
100
AcDbCircle
10
2974.000
20
592.786
30
0
40
1.700
0
CIRCLE
5
304
100
AcDbEntity
8
INTERIOR_PROFILES
100
AcDbCircle
10
2968.000
20
303.524
30
0
40
5.000
0
CIRCLE
5
305
100
AcDbEntity
8
INTERIOR_PROFILES
100
AcDbCircle
10
2968.000
20
103.524
30
0
40
5.000
0
CIRCLE
5
306
100
AcDbEntity
8
INTERIOR_PROFILES
100
AcDbCircle
10
2968.000
20
503.524
30
0
40
5.000
0
CIRCLE
5
307
100
AcDbEntity
8
INTERIOR_PROFILES
100
AcDbCircle
10
2968.000
20
403.524
30
0
40
5.000
0
CIRCLE
5
308
100
AcDbEntity
8
INTERIOR_PROFILES
100
AcDbCircle
10
2957.000
20
564.786
30
0
40
1.700
0
TEXT
5
309
100
AcDbEntity
8
PART_LABELS
100
AcDbText
10
3006.000
20
303.500
30
0
40
15.000
1
2BK002-060000
72
1
11
3006.000
21
303.500
31
0
100
AcDbText
73
2
0
LINE
5
30A
100
AcDbEntity
8
OUTER_PROFILES
100
AcDbLine
10
3032.000
20
607.048
30
0
11
3032.000
21
0.000
31
0
0
LINE
5
30B
100
AcDbEntity
8
OUTER_PROFILES
100
AcDbLine
10
3032.000
20
0.000
30
0
11
3009.071
21
0.000
31
0
0
LINE
5
30C
100
AcDbEntity
8
OUTER_PROFILES
100
AcDbLine
10
3009.071
20
0.000
30
0
11
3004.071
21
5.000
31
0
0
SPLINE
5
30D
100
AcDbEntity
8
OUTER_PROFILES
100
AcDbSpline
70
8
71
3
72
11
73
7
74
0
40
-3.141593
40
-3.141593
40
-3.141593
40
-3.141593
40
-3.043762
40
-3.043762
40
-3.043762
40
-1.570796
40
-1.570796
40
-1.570796
40
-1.570796
10
3003.071
20
7.262
30
0
10
3003.071
20
7.215
30
0
10
3003.072
20
7.168
30
0
10
3003.075
20
7.121
30
0
10
3003.123
20
6.414
30
0
10
3003.580
20
5.707
30
0
10
3004.071
20
5.000
30
0
0
LINE
5
30E
100
AcDbEntity
8
OUTER_PROFILES
100
AcDbLine
10
3003.071
20
7.262
30
0
11
3003.071
21
21.262
31
0
0
SPLINE
5
30F
100
AcDbEntity
8
OUTER_PROFILES
100
AcDbSpline
70
8
71
3
72
11
73
7
74
0
40
1.570796
40
1.570796
40
1.570796
40
1.570796
40
1.668627
40
1.668627
40
1.668627
40
3.141593
40
3.141593
40
3.141593
40
3.141593
10
3004.071
20
23.524
30
0
10
3004.038
20
23.477
30
0
10
3004.005
20
23.430
30
0
10
3003.973
20
23.383
30
0
10
3003.484
20
22.676
30
0
10
3003.071
20
21.969
30
0
10
3003.071
20
21.262
30
0
0
LINE
5
310
100
AcDbEntity
8
OUTER_PROFILES
100
AcDbLine
10
3004.071
20
23.524
30
0
11
3004.000
21
23.595
31
0
0
SPLINE
5
311
100
AcDbEntity
8
OUTER_PROFILES
100
AcDbSpline
70
8
71
3
72
11
73
7
74
0
40
-3.141593
40
-3.141593
40
-3.141593
40
-3.141593
40
-1.668627
40
-1.668627
40
-1.668627
40
-1.570796
40
-1.570796
40
-1.570796
40
-1.570796
10
3001.738
20
22.595
30
0
10
3002.445
20
22.595
30
0
10
3003.152
20
23.008
30
0
10
3003.859
20
23.497
30
0
10
3003.906
20
23.529
30
0
10
3003.953
20
23.562
30
0
10
3004.000
20
23.595
30
0
0
LINE
5
312
100
AcDbEntity
8
OUTER_PROFILES
100
AcDbLine
10
3001.738
20
22.595
30
0
11
2987.738
21
22.595
31
0
0
SPLINE
5
313
100
AcDbEntity
8
OUTER_PROFILES
100
AcDbSpline
70
8
71
3
72
11
73
7
74
0
40
1.570796
40
1.570796
40
1.570796
40
1.570796
40
3.043762
40
3.043762
40
3.043762
40
3.141593
40
3.141593
40
3.141593
40
3.141593
10
2985.476
20
23.595
30
0
10
2986.183
20
23.104
30
0
10
2986.890
20
22.647
30
0
10
2987.597
20
22.599
30
0
10
2987.644
20
22.596
30
0
10
2987.691
20
22.595
30
0
10
2987.738
20
22.595
30
0
0
LINE
5
314
100
AcDbEntity
8
OUTER_PROFILES
100
AcDbLine
10
2985.476
20
23.595
30
0
11
2980.476
21
28.595
31
0
0
LINE
5
315
100
AcDbEntity
8
OUTER_PROFILES
100
AcDbLine
10
2980.476
20
28.595
30
0
11
2980.476
21
578.453
31
0
0
LINE
5
316
100
AcDbEntity
8
OUTER_PROFILES
100
AcDbLine
10
2980.476
20
578.453
30
0
11
2985.476
21
583.453
31
0
0
SPLINE
5
317
100
AcDbEntity
8
OUTER_PROFILES
100
AcDbSpline
70
8
71
3
72
11
73
7
74
0
40
-3.141593
40
-3.141593
40
-3.141593
40
-3.141593
40
-3.043762
40
-3.043762
40
-3.043762
40
-1.570796
40
-1.570796
40
-1.570796
40
-1.570796
10
2987.738
20
584.453
30
0
10
2987.691
20
584.453
30
0
10
2987.644
20
584.452
30
0
10
2987.597
20
584.448
30
0
10
2986.890
20
584.400
30
0
10
2986.183
20
583.944
30
0
10
2985.476
20
583.453
30
0
0
LINE
5
318
100
AcDbEntity
8
OUTER_PROFILES
100
AcDbLine
10
2987.738
20
584.453
30
0
11
3001.738
21
584.453
31
0
0
SPLINE
5
319
100
AcDbEntity
8
OUTER_PROFILES
100
AcDbSpline
70
8
71
3
72
11
73
7
74
0
40
1.570796
40
1.570796
40
1.570796
40
1.570796
40
1.668627
40
1.668627
40
1.668627
40
3.141593
40
3.141593
40
3.141593
40
3.141593
10
3004.000
20
583.453
30
0
10
3003.953
20
583.486
30
0
10
3003.906
20
583.518
30
0
10
3003.859
20
583.551
30
0
10
3003.152
20
584.039
30
0
10
3002.445
20
584.453
30
0
10
3001.738
20
584.453
30
0
0
LINE
5
31A
100
AcDbEntity
8
OUTER_PROFILES
100
AcDbLine
10
3004.000
20
583.453
30
0
11
3004.071
21
583.524
31
0
0
SPLINE
5
31B
100
AcDbEntity
8
OUTER_PROFILES
100
AcDbSpline
70
8
71
3
72
11
73
7
74
0
40
-3.141593
40
-3.141593
40
-3.141593
40
-3.141593
40
-1.668627
40
-1.668627
40
-1.668627
40
-1.570796
40
-1.570796
40
-1.570796
40
-1.570796
10
3003.071
20
585.786
30
0
10
3003.071
20
585.079
30
0
10
3003.484
20
584.372
30
0
10
3003.973
20
583.665
30
0
10
3004.005
20
583.618
30
0
10
3004.038
20
583.571
30
0
10
3004.071
20
583.524
30
0
0
LINE
5
31C
100
AcDbEntity
8
OUTER_PROFILES
100
AcDbLine
10
3003.071
20
585.786
30
0
11
3003.071
21
599.786
31
0
0
SPLINE
5
31D
100
AcDbEntity
8
OUTER_PROFILES
100
AcDbSpline
70
8
71
3
72
11
73
7
74
0
40
1.570796
40
1.570796
40
1.570796
40
1.570796
40
3.043762
40
3.043762
40
3.043762
40
3.141593
40
3.141593
40
3.141593
40
3.141593
10
3004.071
20
602.048
30
0
10
3003.580
20
601.341
30
0
10
3003.123
20
600.634
30
0
10
3003.075
20
599.927
30
0
10
3003.072
20
599.880
30
0
10
3003.071
20
599.833
30
0
10
3003.071
20
599.786
30
0
0
LINE
5
31E
100
AcDbEntity
8
OUTER_PROFILES
100
AcDbLine
10
3004.071
20
602.048
30
0
11
3009.071
21
607.048
31
0
0
LINE
5
31F
100
AcDbEntity
8
OUTER_PROFILES
100
AcDbLine
10
3009.071
20
607.048
30
0
11
3032.000
21
607.048
31
0
0
CIRCLE
5
320
100
AcDbEntity
8
INTERIOR_PROFILES
100
AcDbCircle
10
2994.738
20
403.524
30
0
40
1.700
0
CIRCLE
5
321
100
AcDbEntity
8
INTERIOR_PROFILES
100
AcDbCircle
10
2994.738
20
103.524
30
0
40
1.700
0
CIRCLE
5
322
100
AcDbEntity
8
INTERIOR_PROFILES
100
AcDbCircle
10
2994.738
20
503.524
30
0
40
1.700
0
CIRCLE
5
323
100
AcDbEntity
8
INTERIOR_PROFILES
100
AcDbCircle
10
3008.000
20
14.262
30
0
40
1.700
0
CIRCLE
5
324
100
AcDbEntity
8
INTERIOR_PROFILES
100
AcDbCircle
10
3028.000
20
14.262
30
0
40
1.700
0
CIRCLE
5
325
100
AcDbEntity
8
INTERIOR_PROFILES
100
AcDbCircle
10
3008.000
20
592.786
30
0
40
1.700
0
CIRCLE
5
326
100
AcDbEntity
8
INTERIOR_PROFILES
100
AcDbCircle
10
2994.738
20
303.524
30
0
40
1.700
0
CIRCLE
5
327
100
AcDbEntity
8
INTERIOR_PROFILES
100
AcDbCircle
10
2994.738
20
203.524
30
0
40
1.700
0
CIRCLE
5
328
100
AcDbEntity
8
INTERIOR_PROFILES
100
AcDbCircle
10
3022.000
20
203.524
30
0
40
5.000
0
CIRCLE
5
329
100
AcDbEntity
8
INTERIOR_PROFILES
100
AcDbCircle
10
3011.000
20
518.786
30
0
40
1.700
0
CIRCLE
5
32A
100
AcDbEntity
8
INTERIOR_PROFILES
100
AcDbCircle
10
3011.000
20
42.262
30
0
40
1.700
0
CIRCLE
5
32B
100
AcDbEntity
8
INTERIOR_PROFILES
100
AcDbCircle
10
3011.000
20
88.262
30
0
40
1.700
0
CIRCLE
5
32C
100
AcDbEntity
8
INTERIOR_PROFILES
100
AcDbCircle
10
3028.000
20
592.786
30
0
40
1.700
0
CIRCLE
5
32D
100
AcDbEntity
8
INTERIOR_PROFILES
100
AcDbCircle
10
3022.000
20
303.524
30
0
40
5.000
0
CIRCLE
5
32E
100
AcDbEntity
8
INTERIOR_PROFILES
100
AcDbCircle
10
3022.000
20
103.524
30
0
40
5.000
0
CIRCLE
5
32F
100
AcDbEntity
8
INTERIOR_PROFILES
100
AcDbCircle
10
3022.000
20
503.524
30
0
40
5.000
0
CIRCLE
5
330
100
AcDbEntity
8
INTERIOR_PROFILES
100
AcDbCircle
10
3022.000
20
403.524
30
0
40
5.000
0
CIRCLE
5
331
100
AcDbEntity
8
INTERIOR_PROFILES
100
AcDbCircle
10
3011.000
20
564.786
30
0
40
1.700
0
TEXT
5
332
100
AcDbEntity
8
PART_LABELS
100
AcDbText
10
2717.000
20
644.500
30
0
40
17.750
1
2BK001-000002
72
1
11
2717.000
21
644.500
31
0
100
AcDbText
73
2
0
LWPOLYLINE
5
333
100
AcDbEntity
8
OUTER_PROFILES
100
AcDbPolyline
90
5
70
1
10
2656.000
20
618.899
10
2716.811
20
679.711
10
2777.622
20
618.899
10
2767.723
20
609.000
10
2665.899
20
609.000
0
LWPOLYLINE
5
334
100
AcDbEntity
8
INTERIOR_PROFILES
100
AcDbPolyline
90
4
70
1
10
2697.931
20
653.336
10
2697.224
20
652.628
42
1.000000
10
2699.628
20
650.224
10
2700.336
20
650.931
42
1.000000
0
CIRCLE
5
335
100
AcDbEntity
8
INTERIOR_PROFILES
100
AcDbCircle
10
2716.811
20
669.811
30
0
40
1.700
0
LWPOLYLINE
5
336
100
AcDbEntity
8
INTERIOR_PROFILES
100
AcDbPolyline
90
4
70
1
10
2736.398
20
652.628
42
-1.000000
10
2733.994
20
650.224
10
2733.287
20
650.931
42
-1.000000
10
2735.691
20
653.336
0
CIRCLE
5
337
100
AcDbEntity
8
INTERIOR_PROFILES
100
AcDbCircle
10
2665.899
20
618.899
30
0
40
1.700
0
CIRCLE
5
338
100
AcDbEntity
8
INTERIOR_PROFILES
100
AcDbCircle
10
2767.723
20
618.899
30
0
40
1.700
0
TEXT
5
339
100
AcDbEntity
8
PART_LABELS
100
AcDbText
10
2841.000
20
644.500
30
0
40
17.750
1
2BK200-000000
72
1
11
2841.000
21
644.500
31
0
100
AcDbText
73
2
0
LWPOLYLINE
5
33A
100
AcDbEntity
8
OUTER_PROFILES
100
AcDbPolyline
90
5
70
1
10
2840.811
20
679.711
10
2901.622
20
618.899
10
2891.723
20
609.000
10
2789.899
20
609.000
10
2780.000
20
618.899
0
CIRCLE
5
33B
100
AcDbEntity
8
INTERIOR_PROFILES
100
AcDbCircle
10
2840.811
20
669.811
30
0
40
1.700
0
LWPOLYLINE
5
33C
100
AcDbEntity
8
INTERIOR_PROFILES
100
AcDbPolyline
90
4
70
1
10
2821.931
20
653.336
42
-1.000000
10
2824.336
20
650.931
10
2823.628
20
650.224
42
-1.000000
10
2821.224
20
652.628
0
LWPOLYLINE
5
33D
100
AcDbEntity
8
INTERIOR_PROFILES
100
AcDbPolyline
90
4
70
1
10
2860.398
20
652.628
42
-1.000000
10
2857.994
20
650.224
10
2857.287
20
650.931
42
-1.000000
10
2859.691
20
653.336
0
CIRCLE
5
33E
100
AcDbEntity
8
INTERIOR_PROFILES
100
AcDbCircle
10
2891.723
20
618.899
30
0
40
1.700
0
CIRCLE
5
33F
100
AcDbEntity
8
INTERIOR_PROFILES
100
AcDbCircle
10
2789.899
20
618.899
30
0
40
1.700
0
TEXT
5
340
100
AcDbEntity
8
PART_LABELS
100
AcDbText
10
2965.000
20
644.500
30
0
40
17.750
1
2BK200-000000
72
1
11
2965.000
21
644.500
31
0
100
AcDbText
73
2
0
LWPOLYLINE
5
341
100
AcDbEntity
8
OUTER_PROFILES
100
AcDbPolyline
90
5
70
1
10
2964.811
20
679.711
10
3025.622
20
618.899
10
3015.723
20
609.000
10
2913.899
20
609.000
10
2904.000
20
618.899
0
CIRCLE
5
342
100
AcDbEntity
8
INTERIOR_PROFILES
100
AcDbCircle
10
2964.811
20
669.811
30
0
40
1.700
0
LWPOLYLINE
5
343
100
AcDbEntity
8
INTERIOR_PROFILES
100
AcDbPolyline
90
4
70
1
10
2945.931
20
653.336
42
-1.000000
10
2948.336
20
650.931
10
2947.628
20
650.224
42
-1.000000
10
2945.224
20
652.628
0
LWPOLYLINE
5
344
100
AcDbEntity
8
INTERIOR_PROFILES
100
AcDbPolyline
90
4
70
1
10
2984.398
20
652.628
42
-1.000000
10
2981.994
20
650.224
10
2981.287
20
650.931
42
-1.000000
10
2983.691
20
653.336
0
CIRCLE
5
345
100
AcDbEntity
8
INTERIOR_PROFILES
100
AcDbCircle
10
3015.723
20
618.899
30
0
40
1.700
0
CIRCLE
5
346
100
AcDbEntity
8
INTERIOR_PROFILES
100
AcDbCircle
10
2913.899
20
618.899
30
0
40
1.700
0
TEXT
5
347
100
AcDbEntity
8
PART_LABELS
100
AcDbText
10
2717.000
20
717.500
30
0
40
17.750
1
2BK200-000000
72
1
11
2717.000
21
717.500
31
0
100
AcDbText
73
2
0
LWPOLYLINE
5
348
100
AcDbEntity
8
OUTER_PROFILES
100
AcDbPolyline
90
5
70
1
10
2716.811
20
752.711
10
2777.622
20
691.899
10
2767.723
20
682.000
10
2665.899
20
682.000
10
2656.000
20
691.899
0
CIRCLE
5
349
100
AcDbEntity
8
INTERIOR_PROFILES
100
AcDbCircle
10
2716.811
20
742.811
30
0
40
1.700
0
LWPOLYLINE
5
34A
100
AcDbEntity
8
INTERIOR_PROFILES
100
AcDbPolyline
90
4
70
1
10
2697.931
20
726.336
42
-1.000000
10
2700.336
20
723.931
10
2699.628
20
723.224
42
-1.000000
10
2697.224
20
725.628
0
LWPOLYLINE
5
34B
100
AcDbEntity
8
INTERIOR_PROFILES
100
AcDbPolyline
90
4
70
1
10
2736.398
20
725.628
42
-1.000000
10
2733.994
20
723.224
10
2733.287
20
723.931
42
-1.000000
10
2735.691
20
726.336
0
CIRCLE
5
34C
100
AcDbEntity
8
INTERIOR_PROFILES
100
AcDbCircle
10
2767.723
20
691.899
30
0
40
1.700
0
CIRCLE
5
34D
100
AcDbEntity
8
INTERIOR_PROFILES
100
AcDbCircle
10
2665.899
20
691.899
30
0
40
1.700
0
TEXT
5
34E
100
AcDbEntity
8
PART_LABELS
100
AcDbText
10
2841.000
20
717.500
30
0
40
17.750
1
2BK200-000000
72
1
11
2841.000
21
717.500
31
0
100
AcDbText
73
2
0
LWPOLYLINE
5
34F
100
AcDbEntity
8
OUTER_PROFILES
100
AcDbPolyline
90
5
70
1
10
2840.811
20
752.711
10
2901.622
20
691.899
10
2891.723
20
682.000
10
2789.899
20
682.000
10
2780.000
20
691.899
0
CIRCLE
5
350
100
AcDbEntity
8
INTERIOR_PROFILES
100
AcDbCircle
10
2840.811
20
742.811
30
0
40
1.700
0
LWPOLYLINE
5
351
100
AcDbEntity
8
INTERIOR_PROFILES
100
AcDbPolyline
90
4
70
1
10
2821.931
20
726.336
42
-1.000000
10
2824.336
20
723.931
10
2823.628
20
723.224
42
-1.000000
10
2821.224
20
725.628
0
LWPOLYLINE
5
352
100
AcDbEntity
8
INTERIOR_PROFILES
100
AcDbPolyline
90
4
70
1
10
2860.398
20
725.628
42
-1.000000
10
2857.994
20
723.224
10
2857.287
20
723.931
42
-1.000000
10
2859.691
20
726.336
0
CIRCLE
5
353
100
AcDbEntity
8
INTERIOR_PROFILES
100
AcDbCircle
10
2891.723
20
691.899
30
0
40
1.700
0
CIRCLE
5
354
100
AcDbEntity
8
INTERIOR_PROFILES
100
AcDbCircle
10
2789.899
20
691.899
30
0
40
1.700
0
TEXT
5
355
100
AcDbEntity
8
PART_LABELS
100
AcDbText
10
2965.000
20
717.500
30
0
40
17.750
1
2BK200-000000
72
1
11
2965.000
21
717.500
31
0
100
AcDbText
73
2
0
LWPOLYLINE
5
356
100
AcDbEntity
8
OUTER_PROFILES
100
AcDbPolyline
90
5
70
1
10
2964.811
20
752.711
10
3025.622
20
691.899
10
3015.723
20
682.000
10
2913.899
20
682.000
10
2904.000
20
691.899
0
CIRCLE
5
357
100
AcDbEntity
8
INTERIOR_PROFILES
100
AcDbCircle
10
2964.811
20
742.811
30
0
40
1.700
0
LWPOLYLINE
5
358
100
AcDbEntity
8
INTERIOR_PROFILES
100
AcDbPolyline
90
4
70
1
10
2945.931
20
726.336
42
-1.000000
10
2948.336
20
723.931
10
2947.628
20
723.224
42
-1.000000
10
2945.224
20
725.628
0
LWPOLYLINE
5
359
100
AcDbEntity
8
INTERIOR_PROFILES
100
AcDbPolyline
90
4
70
1
10
2984.398
20
725.628
42
-1.000000
10
2981.994
20
723.224
10
2981.287
20
723.931
42
-1.000000
10
2983.691
20
726.336
0
CIRCLE
5
35A
100
AcDbEntity
8
INTERIOR_PROFILES
100
AcDbCircle
10
3015.723
20
691.899
30
0
40
1.700
0
CIRCLE
5
35B
100
AcDbEntity
8
INTERIOR_PROFILES
100
AcDbCircle
10
2913.899
20
691.899
30
0
40
1.700
0
TEXT
5
35C
100
AcDbEntity
8
PART_LABELS
100
AcDbText
10
2717.000
20
790.500
30
0
40
17.750
1
2BK200-000000
72
1
11
2717.000
21
790.500
31
0
100
AcDbText
73
2
0
LWPOLYLINE
5
35D
100
AcDbEntity
8
OUTER_PROFILES
100
AcDbPolyline
90
5
70
1
10
2716.811
20
825.711
10
2777.622
20
764.899
10
2767.723
20
755.000
10
2665.899
20
755.000
10
2656.000
20
764.899
0
CIRCLE
5
35E
100
AcDbEntity
8
INTERIOR_PROFILES
100
AcDbCircle
10
2716.811
20
815.811
30
0
40
1.700
0
LWPOLYLINE
5
35F
100
AcDbEntity
8
INTERIOR_PROFILES
100
AcDbPolyline
90
4
70
1
10
2697.931
20
799.336
42
-1.000000
10
2700.336
20
796.931
10
2699.628
20
796.224
42
-1.000000
10
2697.224
20
798.628
0
LWPOLYLINE
5
360
100
AcDbEntity
8
INTERIOR_PROFILES
100
AcDbPolyline
90
4
70
1
10
2736.398
20
798.628
42
-1.000000
10
2733.994
20
796.224
10
2733.287
20
796.931
42
-1.000000
10
2735.691
20
799.336
0
CIRCLE
5
361
100
AcDbEntity
8
INTERIOR_PROFILES
100
AcDbCircle
10
2767.723
20
764.899
30
0
40
1.700
0
CIRCLE
5
362
100
AcDbEntity
8
INTERIOR_PROFILES
100
AcDbCircle
10
2665.899
20
764.899
30
0
40
1.700
0
TEXT
5
363
100
AcDbEntity
8
PART_LABELS
100
AcDbText
10
2841.000
20
790.500
30
0
40
17.750
1
2BK200-000000
72
1
11
2841.000
21
790.500
31
0
100
AcDbText
73
2
0
LWPOLYLINE
5
364
100
AcDbEntity
8
OUTER_PROFILES
100
AcDbPolyline
90
5
70
1
10
2840.811
20
825.711
10
2901.622
20
764.899
10
2891.723
20
755.000
10
2789.899
20
755.000
10
2780.000
20
764.899
0
CIRCLE
5
365
100
AcDbEntity
8
INTERIOR_PROFILES
100
AcDbCircle
10
2840.811
20
815.811
30
0
40
1.700
0
LWPOLYLINE
5
366
100
AcDbEntity
8
INTERIOR_PROFILES
100
AcDbPolyline
90
4
70
1
10
2821.931
20
799.336
42
-1.000000
10
2824.336
20
796.931
10
2823.628
20
796.224
42
-1.000000
10
2821.224
20
798.628
0
LWPOLYLINE
5
367
100
AcDbEntity
8
INTERIOR_PROFILES
100
AcDbPolyline
90
4
70
1
10
2860.398
20
798.628
42
-1.000000
10
2857.994
20
796.224
10
2857.287
20
796.931
42
-1.000000
10
2859.691
20
799.336
0
CIRCLE
5
368
100
AcDbEntity
8
INTERIOR_PROFILES
100
AcDbCircle
10
2891.723
20
764.899
30
0
40
1.700
0
CIRCLE
5
369
100
AcDbEntity
8
INTERIOR_PROFILES
100
AcDbCircle
10
2789.899
20
764.899
30
0
40
1.700
0
TEXT
5
36A
100
AcDbEntity
8
PART_LABELS
100
AcDbText
10
2965.000
20
790.500
30
0
40
17.750
1
2BK200-000000
72
1
11
2965.000
21
790.500
31
0
100
AcDbText
73
2
0
LWPOLYLINE
5
36B
100
AcDbEntity
8
OUTER_PROFILES
100
AcDbPolyline
90
5
70
1
10
2964.811
20
825.711
10
3025.622
20
764.899
10
3015.723
20
755.000
10
2913.899
20
755.000
10
2904.000
20
764.899
0
CIRCLE
5
36C
100
AcDbEntity
8
INTERIOR_PROFILES
100
AcDbCircle
10
2964.811
20
815.811
30
0
40
1.700
0
LWPOLYLINE
5
36D
100
AcDbEntity
8
INTERIOR_PROFILES
100
AcDbPolyline
90
4
70
1
10
2945.931
20
799.336
42
-1.000000
10
2948.336
20
796.931
10
2947.628
20
796.224
42
-1.000000
10
2945.224
20
798.628
0
LWPOLYLINE
5
36E
100
AcDbEntity
8
INTERIOR_PROFILES
100
AcDbPolyline
90
4
70
1
10
2984.398
20
798.628
42
-1.000000
10
2981.994
20
796.224
10
2981.287
20
796.931
42
-1.000000
10
2983.691
20
799.336
0
CIRCLE
5
36F
100
AcDbEntity
8
INTERIOR_PROFILES
100
AcDbCircle
10
3015.723
20
764.899
30
0
40
1.700
0
CIRCLE
5
370
100
AcDbEntity
8
INTERIOR_PROFILES
100
AcDbCircle
10
2913.899
20
764.899
30
0
40
1.700
0
TEXT
5
371
100
AcDbEntity
8
PART_LABELS
100
AcDbText
10
2717.000
20
863.500
30
0
40
17.750
1
2BK200-000000
72
1
11
2717.000
21
863.500
31
0
100
AcDbText
73
2
0
LWPOLYLINE
5
372
100
AcDbEntity
8
OUTER_PROFILES
100
AcDbPolyline
90
5
70
1
10
2716.811
20
898.711
10
2777.622
20
837.899
10
2767.723
20
828.000
10
2665.899
20
828.000
10
2656.000
20
837.899
0
CIRCLE
5
373
100
AcDbEntity
8
INTERIOR_PROFILES
100
AcDbCircle
10
2716.811
20
888.811
30
0
40
1.700
0
LWPOLYLINE
5
374
100
AcDbEntity
8
INTERIOR_PROFILES
100
AcDbPolyline
90
4
70
1
10
2697.931
20
872.336
42
-1.000000
10
2700.336
20
869.931
10
2699.628
20
869.224
42
-1.000000
10
2697.224
20
871.628
0
LWPOLYLINE
5
375
100
AcDbEntity
8
INTERIOR_PROFILES
100
AcDbPolyline
90
4
70
1
10
2736.398
20
871.628
42
-1.000000
10
2733.994
20
869.224
10
2733.287
20
869.931
42
-1.000000
10
2735.691
20
872.336
0
CIRCLE
5
376
100
AcDbEntity
8
INTERIOR_PROFILES
100
AcDbCircle
10
2767.723
20
837.899
30
0
40
1.700
0
CIRCLE
5
377
100
AcDbEntity
8
INTERIOR_PROFILES
100
AcDbCircle
10
2665.899
20
837.899
30
0
40
1.700
0
TEXT
5
378
100
AcDbEntity
8
PART_LABELS
100
AcDbText
10
2841.000
20
863.500
30
0
40
17.750
1
2BK200-000000
72
1
11
2841.000
21
863.500
31
0
100
AcDbText
73
2
0
LWPOLYLINE
5
379
100
AcDbEntity
8
OUTER_PROFILES
100
AcDbPolyline
90
5
70
1
10
2840.811
20
898.711
10
2901.622
20
837.899
10
2891.723
20
828.000
10
2789.899
20
828.000
10
2780.000
20
837.899
0
CIRCLE
5
37A
100
AcDbEntity
8
INTERIOR_PROFILES
100
AcDbCircle
10
2840.811
20
888.811
30
0
40
1.700
0
LWPOLYLINE
5
37B
100
AcDbEntity
8
INTERIOR_PROFILES
100
AcDbPolyline
90
4
70
1
10
2821.931
20
872.336
42
-1.000000
10
2824.336
20
869.931
10
2823.628
20
869.224
42
-1.000000
10
2821.224
20
871.628
0
LWPOLYLINE
5
37C
100
AcDbEntity
8
INTERIOR_PROFILES
100
AcDbPolyline
90
4
70
1
10
2860.398
20
871.628
42
-1.000000
10
2857.994
20
869.224
10
2857.287
20
869.931
42
-1.000000
10
2859.691
20
872.336
0
CIRCLE
5
37D
100
AcDbEntity
8
INTERIOR_PROFILES
100
AcDbCircle
10
2891.723
20
837.899
30
0
40
1.700
0
CIRCLE
5
37E
100
AcDbEntity
8
INTERIOR_PROFILES
100
AcDbCircle
10
2789.899
20
837.899
30
0
40
1.700
0
TEXT
5
37F
100
AcDbEntity
8
PART_LABELS
100
AcDbText
10
2965.000
20
863.500
30
0
40
17.750
1
2BK200-000000
72
1
11
2965.000
21
863.500
31
0
100
AcDbText
73
2
0
LWPOLYLINE
5
380
100
AcDbEntity
8
OUTER_PROFILES
100
AcDbPolyline
90
5
70
1
10
2964.811
20
898.711
10
3025.622
20
837.899
10
3015.723
20
828.000
10
2913.899
20
828.000
10
2904.000
20
837.899
0
CIRCLE
5
381
100
AcDbEntity
8
INTERIOR_PROFILES
100
AcDbCircle
10
2964.811
20
888.811
30
0
40
1.700
0
LWPOLYLINE
5
382
100
AcDbEntity
8
INTERIOR_PROFILES
100
AcDbPolyline
90
4
70
1
10
2945.931
20
872.336
42
-1.000000
10
2948.336
20
869.931
10
2947.628
20
869.224
42
-1.000000
10
2945.224
20
871.628
0
LWPOLYLINE
5
383
100
AcDbEntity
8
INTERIOR_PROFILES
100
AcDbPolyline
90
4
70
1
10
2984.398
20
871.628
42
-1.000000
10
2981.994
20
869.224
10
2981.287
20
869.931
42
-1.000000
10
2983.691
20
872.336
0
CIRCLE
5
384
100
AcDbEntity
8
INTERIOR_PROFILES
100
AcDbCircle
10
3015.723
20
837.899
30
0
40
1.700
0
CIRCLE
5
385
100
AcDbEntity
8
INTERIOR_PROFILES
100
AcDbCircle
10
2913.899
20
837.899
30
0
40
1.700
0
TEXT
5
386
100
AcDbEntity
8
PART_LABELS
100
AcDbText
10
2717.000
20
936.500
30
0
40
17.750
1
2BK200-000000
72
1
11
2717.000
21
936.500
31
0
100
AcDbText
73
2
0
LWPOLYLINE
5
387
100
AcDbEntity
8
OUTER_PROFILES
100
AcDbPolyline
90
5
70
1
10
2716.811
20
971.711
10
2777.622
20
910.899
10
2767.723
20
901.000
10
2665.899
20
901.000
10
2656.000
20
910.899
0
CIRCLE
5
388
100
AcDbEntity
8
INTERIOR_PROFILES
100
AcDbCircle
10
2716.811
20
961.811
30
0
40
1.700
0
LWPOLYLINE
5
389
100
AcDbEntity
8
INTERIOR_PROFILES
100
AcDbPolyline
90
4
70
1
10
2697.931
20
945.336
42
-1.000000
10
2700.336
20
942.931
10
2699.628
20
942.224
42
-1.000000
10
2697.224
20
944.628
0
LWPOLYLINE
5
38A
100
AcDbEntity
8
INTERIOR_PROFILES
100
AcDbPolyline
90
4
70
1
10
2736.398
20
944.628
42
-1.000000
10
2733.994
20
942.224
10
2733.287
20
942.931
42
-1.000000
10
2735.691
20
945.336
0
CIRCLE
5
38B
100
AcDbEntity
8
INTERIOR_PROFILES
100
AcDbCircle
10
2767.723
20
910.899
30
0
40
1.700
0
CIRCLE
5
38C
100
AcDbEntity
8
INTERIOR_PROFILES
100
AcDbCircle
10
2665.899
20
910.899
30
0
40
1.700
0
TEXT
5
38D
100
AcDbEntity
8
PART_LABELS
100
AcDbText
10
2841.000
20
936.500
30
0
40
17.750
1
2BK200-000000
72
1
11
2841.000
21
936.500
31
0
100
AcDbText
73
2
0
LWPOLYLINE
5
38E
100
AcDbEntity
8
OUTER_PROFILES
100
AcDbPolyline
90
5
70
1
10
2840.811
20
971.711
10
2901.622
20
910.899
10
2891.723
20
901.000
10
2789.899
20
901.000
10
2780.000
20
910.899
0
CIRCLE
5
38F
100
AcDbEntity
8
INTERIOR_PROFILES
100
AcDbCircle
10
2840.811
20
961.811
30
0
40
1.700
0
LWPOLYLINE
5
390
100
AcDbEntity
8
INTERIOR_PROFILES
100
AcDbPolyline
90
4
70
1
10
2821.931
20
945.336
42
-1.000000
10
2824.336
20
942.931
10
2823.628
20
942.224
42
-1.000000
10
2821.224
20
944.628
0
LWPOLYLINE
5
391
100
AcDbEntity
8
INTERIOR_PROFILES
100
AcDbPolyline
90
4
70
1
10
2860.398
20
944.628
42
-1.000000
10
2857.994
20
942.224
10
2857.287
20
942.931
42
-1.000000
10
2859.691
20
945.336
0
CIRCLE
5
392
100
AcDbEntity
8
INTERIOR_PROFILES
100
AcDbCircle
10
2891.723
20
910.899
30
0
40
1.700
0
CIRCLE
5
393
100
AcDbEntity
8
INTERIOR_PROFILES
100
AcDbCircle
10
2789.899
20
910.899
30
0
40
1.700
0
TEXT
5
394
100
AcDbEntity
8
PART_LABELS
100
AcDbText
10
2965.000
20
936.500
30
0
40
17.750
1
2BK200-000000
72
1
11
2965.000
21
936.500
31
0
100
AcDbText
73
2
0
LWPOLYLINE
5
395
100
AcDbEntity
8
OUTER_PROFILES
100
AcDbPolyline
90
5
70
1
10
2964.811
20
971.711
10
3025.622
20
910.899
10
3015.723
20
901.000
10
2913.899
20
901.000
10
2904.000
20
910.899
0
CIRCLE
5
396
100
AcDbEntity
8
INTERIOR_PROFILES
100
AcDbCircle
10
2964.811
20
961.811
30
0
40
1.700
0
LWPOLYLINE
5
397
100
AcDbEntity
8
INTERIOR_PROFILES
100
AcDbPolyline
90
4
70
1
10
2945.931
20
945.336
42
-1.000000
10
2948.336
20
942.931
10
2947.628
20
942.224
42
-1.000000
10
2945.224
20
944.628
0
LWPOLYLINE
5
398
100
AcDbEntity
8
INTERIOR_PROFILES
100
AcDbPolyline
90
4
70
1
10
2984.398
20
944.628
42
-1.000000
10
2981.994
20
942.224
10
2981.287
20
942.931
42
-1.000000
10
2983.691
20
945.336
0
CIRCLE
5
399
100
AcDbEntity
8
INTERIOR_PROFILES
100
AcDbCircle
10
3015.723
20
910.899
30
0
40
1.700
0
CIRCLE
5
39A
100
AcDbEntity
8
INTERIOR_PROFILES
100
AcDbCircle
10
2913.899
20
910.899
30
0
40
1.700
0
TEXT
5
39B
100
AcDbEntity
8
PART_LABELS
100
AcDbText
10
2717.000
20
1009.500
30
0
40
17.750
1
2BK200-000000
72
1
11
2717.000
21
1009.500
31
0
100
AcDbText
73
2
0
LWPOLYLINE
5
39C
100
AcDbEntity
8
OUTER_PROFILES
100
AcDbPolyline
90
5
70
1
10
2716.811
20
1044.711
10
2777.622
20
983.899
10
2767.723
20
974.000
10
2665.899
20
974.000
10
2656.000
20
983.899
0
CIRCLE
5
39D
100
AcDbEntity
8
INTERIOR_PROFILES
100
AcDbCircle
10
2716.811
20
1034.811
30
0
40
1.700
0
LWPOLYLINE
5
39E
100
AcDbEntity
8
INTERIOR_PROFILES
100
AcDbPolyline
90
4
70
1
10
2697.931
20
1018.336
42
-1.000000
10
2700.336
20
1015.931
10
2699.628
20
1015.224
42
-1.000000
10
2697.224
20
1017.628
0
LWPOLYLINE
5
39F
100
AcDbEntity
8
INTERIOR_PROFILES
100
AcDbPolyline
90
4
70
1
10
2736.398
20
1017.628
42
-1.000000
10
2733.994
20
1015.224
10
2733.287
20
1015.931
42
-1.000000
10
2735.691
20
1018.336
0
CIRCLE
5
3A0
100
AcDbEntity
8
INTERIOR_PROFILES
100
AcDbCircle
10
2767.723
20
983.899
30
0
40
1.700
0
CIRCLE
5
3A1
100
AcDbEntity
8
INTERIOR_PROFILES
100
AcDbCircle
10
2665.899
20
983.899
30
0
40
1.700
0
TEXT
5
3A2
100
AcDbEntity
8
PART_LABELS
100
AcDbText
10
2841.000
20
1009.500
30
0
40
17.750
1
2BK200-000000
72
1
11
2841.000
21
1009.500
31
0
100
AcDbText
73
2
0
LWPOLYLINE
5
3A3
100
AcDbEntity
8
OUTER_PROFILES
100
AcDbPolyline
90
5
70
1
10
2840.811
20
1044.711
10
2901.622
20
983.899
10
2891.723
20
974.000
10
2789.899
20
974.000
10
2780.000
20
983.899
0
CIRCLE
5
3A4
100
AcDbEntity
8
INTERIOR_PROFILES
100
AcDbCircle
10
2840.811
20
1034.811
30
0
40
1.700
0
LWPOLYLINE
5
3A5
100
AcDbEntity
8
INTERIOR_PROFILES
100
AcDbPolyline
90
4
70
1
10
2821.931
20
1018.336
42
-1.000000
10
2824.336
20
1015.931
10
2823.628
20
1015.224
42
-1.000000
10
2821.224
20
1017.628
0
LWPOLYLINE
5
3A6
100
AcDbEntity
8
INTERIOR_PROFILES
100
AcDbPolyline
90
4
70
1
10
2860.398
20
1017.628
42
-1.000000
10
2857.994
20
1015.224
10
2857.287
20
1015.931
42
-1.000000
10
2859.691
20
1018.336
0
CIRCLE
5
3A7
100
AcDbEntity
8
INTERIOR_PROFILES
100
AcDbCircle
10
2891.723
20
983.899
30
0
40
1.700
0
CIRCLE
5
3A8
100
AcDbEntity
8
INTERIOR_PROFILES
100
AcDbCircle
10
2789.899
20
983.899
30
0
40
1.700
0
TEXT
5
3A9
100
AcDbEntity
8
PART_LABELS
100
AcDbText
10
2965.000
20
1009.500
30
0
40
17.750
1
2BK200-000000
72
1
11
2965.000
21
1009.500
31
0
100
AcDbText
73
2
0
LWPOLYLINE
5
3AA
100
AcDbEntity
8
OUTER_PROFILES
100
AcDbPolyline
90
5
70
1
10
2964.811
20
1044.711
10
3025.622
20
983.899
10
3015.723
20
974.000
10
2913.899
20
974.000
10
2904.000
20
983.899
0
CIRCLE
5
3AB
100
AcDbEntity
8
INTERIOR_PROFILES
100
AcDbCircle
10
2964.811
20
1034.811
30
0
40
1.700
0
LWPOLYLINE
5
3AC
100
AcDbEntity
8
INTERIOR_PROFILES
100
AcDbPolyline
90
4
70
1
10
2945.931
20
1018.336
42
-1.000000
10
2948.336
20
1015.931
10
2947.628
20
1015.224
42
-1.000000
10
2945.224
20
1017.628
0
LWPOLYLINE
5
3AD
100
AcDbEntity
8
INTERIOR_PROFILES
100
AcDbPolyline
90
4
70
1
10
2984.398
20
1017.628
42
-1.000000
10
2981.994
20
1015.224
10
2981.287
20
1015.931
42
-1.000000
10
2983.691
20
1018.336
0
CIRCLE
5
3AE
100
AcDbEntity
8
INTERIOR_PROFILES
100
AcDbCircle
10
3015.723
20
983.899
30
0
40
1.700
0
CIRCLE
5
3AF
100
AcDbEntity
8
INTERIOR_PROFILES
100
AcDbCircle
10
2913.899
20
983.899
30
0
40
1.700
0
TEXT
5
3B0
100
AcDbEntity
8
PART_LABELS
100
AcDbText
10
2717.000
20
1082.500
30
0
40
17.750
1
2BK200-000000
72
1
11
2717.000
21
1082.500
31
0
100
AcDbText
73
2
0
LWPOLYLINE
5
3B1
100
AcDbEntity
8
OUTER_PROFILES
100
AcDbPolyline
90
5
70
1
10
2716.811
20
1117.711
10
2777.622
20
1056.899
10
2767.723
20
1047.000
10
2665.899
20
1047.000
10
2656.000
20
1056.899
0
CIRCLE
5
3B2
100
AcDbEntity
8
INTERIOR_PROFILES
100
AcDbCircle
10
2716.811
20
1107.811
30
0
40
1.700
0
LWPOLYLINE
5
3B3
100
AcDbEntity
8
INTERIOR_PROFILES
100
AcDbPolyline
90
4
70
1
10
2697.931
20
1091.336
42
-1.000000
10
2700.336
20
1088.931
10
2699.628
20
1088.224
42
-1.000000
10
2697.224
20
1090.628
0
LWPOLYLINE
5
3B4
100
AcDbEntity
8
INTERIOR_PROFILES
100
AcDbPolyline
90
4
70
1
10
2736.398
20
1090.628
42
-1.000000
10
2733.994
20
1088.224
10
2733.287
20
1088.931
42
-1.000000
10
2735.691
20
1091.336
0
CIRCLE
5
3B5
100
AcDbEntity
8
INTERIOR_PROFILES
100
AcDbCircle
10
2767.723
20
1056.899
30
0
40
1.700
0
CIRCLE
5
3B6
100
AcDbEntity
8
INTERIOR_PROFILES
100
AcDbCircle
10
2665.899
20
1056.899
30
0
40
1.700
0
TEXT
5
3B7
100
AcDbEntity
8
PART_LABELS
100
AcDbText
10
2841.000
20
1082.500
30
0
40
17.750
1
2BK200-000000
72
1
11
2841.000
21
1082.500
31
0
100
AcDbText
73
2
0
LWPOLYLINE
5
3B8
100
AcDbEntity
8
OUTER_PROFILES
100
AcDbPolyline
90
5
70
1
10
2840.811
20
1117.711
10
2901.622
20
1056.899
10
2891.723
20
1047.000
10
2789.899
20
1047.000
10
2780.000
20
1056.899
0
CIRCLE
5
3B9
100
AcDbEntity
8
INTERIOR_PROFILES
100
AcDbCircle
10
2840.811
20
1107.811
30
0
40
1.700
0
LWPOLYLINE
5
3BA
100
AcDbEntity
8
INTERIOR_PROFILES
100
AcDbPolyline
90
4
70
1
10
2821.931
20
1091.336
42
-1.000000
10
2824.336
20
1088.931
10
2823.628
20
1088.224
42
-1.000000
10
2821.224
20
1090.628
0
LWPOLYLINE
5
3BB
100
AcDbEntity
8
INTERIOR_PROFILES
100
AcDbPolyline
90
4
70
1
10
2860.398
20
1090.628
42
-1.000000
10
2857.994
20
1088.224
10
2857.287
20
1088.931
42
-1.000000
10
2859.691
20
1091.336
0
CIRCLE
5
3BC
100
AcDbEntity
8
INTERIOR_PROFILES
100
AcDbCircle
10
2891.723
20
1056.899
30
0
40
1.700
0
CIRCLE
5
3BD
100
AcDbEntity
8
INTERIOR_PROFILES
100
AcDbCircle
10
2789.899
20
1056.899
30
0
40
1.700
0
TEXT
5
3BE
100
AcDbEntity
8
PART_LABELS
100
AcDbText
10
2965.000
20
1082.500
30
0
40
17.750
1
2BK200-000000
72
1
11
2965.000
21
1082.500
31
0
100
AcDbText
73
2
0
LWPOLYLINE
5
3BF
100
AcDbEntity
8
OUTER_PROFILES
100
AcDbPolyline
90
5
70
1
10
2964.811
20
1117.711
10
3025.622
20
1056.899
10
3015.723
20
1047.000
10
2913.899
20
1047.000
10
2904.000
20
1056.899
0
CIRCLE
5
3C0
100
AcDbEntity
8
INTERIOR_PROFILES
100
AcDbCircle
10
2964.811
20
1107.811
30
0
40
1.700
0
LWPOLYLINE
5
3C1
100
AcDbEntity
8
INTERIOR_PROFILES
100
AcDbPolyline
90
4
70
1
10
2945.931
20
1091.336
42
-1.000000
10
2948.336
20
1088.931
10
2947.628
20
1088.224
42
-1.000000
10
2945.224
20
1090.628
0
LWPOLYLINE
5
3C2
100
AcDbEntity
8
INTERIOR_PROFILES
100
AcDbPolyline
90
4
70
1
10
2984.398
20
1090.628
42
-1.000000
10
2981.994
20
1088.224
10
2981.287
20
1088.931
42
-1.000000
10
2983.691
20
1091.336
0
CIRCLE
5
3C3
100
AcDbEntity
8
INTERIOR_PROFILES
100
AcDbCircle
10
3015.723
20
1056.899
30
0
40
1.700
0
CIRCLE
5
3C4
100
AcDbEntity
8
INTERIOR_PROFILES
100
AcDbCircle
10
2913.899
20
1056.899
30
0
40
1.700
0
TEXT
5
3C5
100
AcDbEntity
8
PART_LABELS
100
AcDbText
10
2717.000
20
1155.500
30
0
40
17.750
1
2BK200-000000
72
1
11
2717.000
21
1155.500
31
0
100
AcDbText
73
2
0
LWPOLYLINE
5
3C6
100
AcDbEntity
8
OUTER_PROFILES
100
AcDbPolyline
90
5
70
1
10
2716.811
20
1190.711
10
2777.622
20
1129.899
10
2767.723
20
1120.000
10
2665.899
20
1120.000
10
2656.000
20
1129.899
0
CIRCLE
5
3C7
100
AcDbEntity
8
INTERIOR_PROFILES
100
AcDbCircle
10
2716.811
20
1180.811
30
0
40
1.700
0
LWPOLYLINE
5
3C8
100
AcDbEntity
8
INTERIOR_PROFILES
100
AcDbPolyline
90
4
70
1
10
2697.931
20
1164.336
42
-1.000000
10
2700.336
20
1161.931
10
2699.628
20
1161.224
42
-1.000000
10
2697.224
20
1163.628
0
LWPOLYLINE
5
3C9
100
AcDbEntity
8
INTERIOR_PROFILES
100
AcDbPolyline
90
4
70
1
10
2736.398
20
1163.628
42
-1.000000
10
2733.994
20
1161.224
10
2733.287
20
1161.931
42
-1.000000
10
2735.691
20
1164.336
0
CIRCLE
5
3CA
100
AcDbEntity
8
INTERIOR_PROFILES
100
AcDbCircle
10
2767.723
20
1129.899
30
0
40
1.700
0
CIRCLE
5
3CB
100
AcDbEntity
8
INTERIOR_PROFILES
100
AcDbCircle
10
2665.899
20
1129.899
30
0
40
1.700
0
TEXT
5
3CC
100
AcDbEntity
8
PART_LABELS
100
AcDbText
10
2841.000
20
1155.500
30
0
40
17.750
1
2BK200-000000
72
1
11
2841.000
21
1155.500
31
0
100
AcDbText
73
2
0
LWPOLYLINE
5
3CD
100
AcDbEntity
8
OUTER_PROFILES
100
AcDbPolyline
90
5
70
1
10
2840.811
20
1190.711
10
2901.622
20
1129.899
10
2891.723
20
1120.000
10
2789.899
20
1120.000
10
2780.000
20
1129.899
0
CIRCLE
5
3CE
100
AcDbEntity
8
INTERIOR_PROFILES
100
AcDbCircle
10
2840.811
20
1180.811
30
0
40
1.700
0
LWPOLYLINE
5
3CF
100
AcDbEntity
8
INTERIOR_PROFILES
100
AcDbPolyline
90
4
70
1
10
2821.931
20
1164.336
42
-1.000000
10
2824.336
20
1161.931
10
2823.628
20
1161.224
42
-1.000000
10
2821.224
20
1163.628
0
LWPOLYLINE
5
3D0
100
AcDbEntity
8
INTERIOR_PROFILES
100
AcDbPolyline
90
4
70
1
10
2860.398
20
1163.628
42
-1.000000
10
2857.994
20
1161.224
10
2857.287
20
1161.931
42
-1.000000
10
2859.691
20
1164.336
0
CIRCLE
5
3D1
100
AcDbEntity
8
INTERIOR_PROFILES
100
AcDbCircle
10
2891.723
20
1129.899
30
0
40
1.700
0
CIRCLE
5
3D2
100
AcDbEntity
8
INTERIOR_PROFILES
100
AcDbCircle
10
2789.899
20
1129.899
30
0
40
1.700
0
TEXT
5
3D3
100
AcDbEntity
8
PART_LABELS
100
AcDbText
10
2965.000
20
1155.500
30
0
40
17.750
1
2BK200-000000
72
1
11
2965.000
21
1155.500
31
0
100
AcDbText
73
2
0
LWPOLYLINE
5
3D4
100
AcDbEntity
8
OUTER_PROFILES
100
AcDbPolyline
90
5
70
1
10
2964.811
20
1190.711
10
3025.622
20
1129.899
10
3015.723
20
1120.000
10
2913.899
20
1120.000
10
2904.000
20
1129.899
0
CIRCLE
5
3D5
100
AcDbEntity
8
INTERIOR_PROFILES
100
AcDbCircle
10
2964.811
20
1180.811
30
0
40
1.700
0
LWPOLYLINE
5
3D6
100
AcDbEntity
8
INTERIOR_PROFILES
100
AcDbPolyline
90
4
70
1
10
2945.931
20
1164.336
42
-1.000000
10
2948.336
20
1161.931
10
2947.628
20
1161.224
42
-1.000000
10
2945.224
20
1163.628
0
LWPOLYLINE
5
3D7
100
AcDbEntity
8
INTERIOR_PROFILES
100
AcDbPolyline
90
4
70
1
10
2984.398
20
1163.628
42
-1.000000
10
2981.994
20
1161.224
10
2981.287
20
1161.931
42
-1.000000
10
2983.691
20
1164.336
0
CIRCLE
5
3D8
100
AcDbEntity
8
INTERIOR_PROFILES
100
AcDbCircle
10
3015.723
20
1129.899
30
0
40
1.700
0
CIRCLE
5
3D9
100
AcDbEntity
8
INTERIOR_PROFILES
100
AcDbCircle
10
2913.899
20
1129.899
30
0
40
1.700
0
TEXT
5
3DA
100
AcDbEntity
8
PART_LABELS
100
AcDbText
10
2717.000
20
1228.500
30
0
40
17.750
1
2BK200-000000
72
1
11
2717.000
21
1228.500
31
0
100
AcDbText
73
2
0
LWPOLYLINE
5
3DB
100
AcDbEntity
8
OUTER_PROFILES
100
AcDbPolyline
90
5
70
1
10
2716.811
20
1263.711
10
2777.622
20
1202.899
10
2767.723
20
1193.000
10
2665.899
20
1193.000
10
2656.000
20
1202.899
0
CIRCLE
5
3DC
100
AcDbEntity
8
INTERIOR_PROFILES
100
AcDbCircle
10
2716.811
20
1253.811
30
0
40
1.700
0
LWPOLYLINE
5
3DD
100
AcDbEntity
8
INTERIOR_PROFILES
100
AcDbPolyline
90
4
70
1
10
2697.931
20
1237.336
42
-1.000000
10
2700.336
20
1234.931
10
2699.628
20
1234.224
42
-1.000000
10
2697.224
20
1236.628
0
LWPOLYLINE
5
3DE
100
AcDbEntity
8
INTERIOR_PROFILES
100
AcDbPolyline
90
4
70
1
10
2736.398
20
1236.628
42
-1.000000
10
2733.994
20
1234.224
10
2733.287
20
1234.931
42
-1.000000
10
2735.691
20
1237.336
0
CIRCLE
5
3DF
100
AcDbEntity
8
INTERIOR_PROFILES
100
AcDbCircle
10
2767.723
20
1202.899
30
0
40
1.700
0
CIRCLE
5
3E0
100
AcDbEntity
8
INTERIOR_PROFILES
100
AcDbCircle
10
2665.899
20
1202.899
30
0
40
1.700
0
ENDSEC
0
SECTION
2
OBJECTS
0
ENDSEC
0
EOF