0
SECTION
2
HEADER
9
$INSUNITS
70
4
0
ENDSEC
0
SECTION
2
ENTITIES
0
LWPOLYLINE
8
SHEET_BORDER
90
5
70
1
10
0.000
20
0.000
10
3050.000
20
0.000
10
3050.000
20
1525.000
10
0.000
20
1525.000
10
0.000
20
0.000
0
TEXT
8
PART_LABELS
10
941.000
20
100.000
30
0
40
50.000
1
2SHSH4-190015
72
1
73
2
11
941.000
21
100.000
31
0
0
LWPOLYLINE
8
OUTER_PROFILES
90
34
70
1
10
0.000
20
129.453
10
6.495
20
135.948
42
0.414214
10
6.495
20
137.362
10
0.000
20
143.857
10
0.000
20
153.715
10
6.495
20
160.210
42
0.414214
10
6.495
20
161.624
10
0.071
20
168.048
10
8.262
20
168.048
10
8.262
20
170.310
10
8.262
20
177.310
10
8.262
20
199.572
10
1873.262
20
199.572
10
1873.262
20
177.310
10
1873.262
20
170.310
10
1873.262
20
168.048
10
1881.453
20
168.048
10
1875.029
20
161.624
42
0.414214
10
1875.029
20
160.210
10
1881.524
20
153.715
10
1881.524
20
143.857
10
1875.029
20
137.362
42
0.414214
10
1875.029
20
135.948
10
1881.524
20
129.453
10
1881.524
20
31.524
10
1873.262
20
31.524
10
1873.262
20
29.262
10
1873.262
20
20.000
10
1873.262
20
0.000
10
8.262
20
0.000
10
8.262
20
22.262
10
8.262
20
29.262
10
8.262
20
31.524
10
0.000
20
31.524
0
CIRCLE
8
INTERIOR_PROFILES
10
640.762
20
189.572
30
0
40
1.700
0
CIRCLE
8
INTERIOR_PROFILES
10
1240.762
20
189.572
30
0
40
1.700
0
CIRCLE
8
INTERIOR_PROFILES
10
940.762
20
10.000
30
0
40
1.700
0
CIRCLE
8
INTERIOR_PROFILES
10
640.762
20
10.000
30
0
40
1.700
0
CIRCLE
8
INTERIOR_PROFILES
10
940.762
20
189.572
30
0
40
1.700
0
CIRCLE
8
INTERIOR_PROFILES
10
40.762
20
10.000
30
0
40
1.700
0
CIRCLE
8
INTERIOR_PROFILES
10
1840.762
20
189.572
30
0
40
1.700
0
CIRCLE
8
INTERIOR_PROFILES
10
1540.762
20
189.572
30
0
40
1.700
0
CIRCLE
8
INTERIOR_PROFILES
10
340.762
20
189.572
30
0
40
1.700
0
CIRCLE
8
INTERIOR_PROFILES
10
40.762
20
189.572
30
0
40
1.700
0
CIRCLE
8
INTERIOR_PROFILES
10
340.762
20
10.000
30
0
40
1.700
0
CIRCLE
8
INTERIOR_PROFILES
10
1240.762
20
10.000
30
0
40
1.700
0
CIRCLE
8
INTERIOR_PROFILES
10
1840.762
20
10.000
30
0
40
1.700
0
CIRCLE
8
INTERIOR_PROFILES
10
1540.762
20
10.000
30
0
40
1.700
0
TEXT
8
PART_LABELS
10
2250.500
20
241.500
30
0
40
50.000
1
2UPCN2-070000
72
1
73
2
11
2250.500
21
241.500
31
0
0
LWPOLYLINE
8
OUTER_PROFILES
90
40
70
1
10
2229.262
20
285.310
10
2205.262
20
309.310
10
1902.262
20
309.310
10
1902.262
20
283.048
10
1884.000
20
283.048
10
1884.000
20
54.048
10
1902.262
20
54.048
10
1902.262
20
51.786
10
1902.262
20
44.786
10
1902.262
20
42.524
42
-1.000000
10
1902.262
20
23.524
10
1902.262
20
10.262
10
1902.262
20
0.000
10
2598.262
20
0.000
10
2598.262
20
10.262
10
2598.262
20
23.524
42
-1.000000
10
2598.262
20
42.524
10
2598.262
20
44.786
10
2598.262
20
51.786
10
2598.262
20
54.048
10
2616.524
20
54.048
10
2616.524
20
383.714
10
2600.524
20
425.048
10
2598.262
20
425.048
10
2598.262
20
427.310
10
2598.262
20
449.310
10
2598.262
20
457.572
10
2598.262
20
467.834
10
2598.262
20
470.096
42
-0.414214
10
2591.762
20
476.596
10
2591.762
20
483.096
10
2232.262
20
483.096
10
2232.262
20
425.048
10
2230.000
20
425.048
10
2206.000
20
363.048
10
2206.000
20
310.048
10
2230.000
20
286.048
10
2232.262
20
286.048
10
2232.262
20
283.048
10
2229.262
20
283.048
0
CIRCLE
8
INTERIOR_PROFILES
10
2150.262
20
276.048
30
0
40
1.700
0
CIRCLE
8
INTERIOR_PROFILES
10
1981.262
20
300.310
30
0
40
1.700
0
CIRCLE
8
INTERIOR_PROFILES
10
2591.262
20
395.048
30
0
40
1.700
0
CIRCLE
8
INTERIOR_PROFILES
10
2591.262
20
228.048
30
0
40
1.700
0
CIRCLE
8
INTERIOR_PROFILES
10
1950.262
20
276.048
30
0
40
1.700
0
CIRCLE
8
INTERIOR_PROFILES
10
1909.262
20
61.048
30
0
40
1.700
0
CIRCLE
8
INTERIOR_PROFILES
10
2591.262
20
61.048
30
0
40
1.700
0
CIRCLE
8
INTERIOR_PROFILES
10
2450.262
20
276.048
30
0
40
1.700
0
CIRCLE
8
INTERIOR_PROFILES
10
1909.262
20
300.310
30
0
40
1.700
0
CIRCLE
8
INTERIOR_PROFILES
10
1909.262
20
228.048
30
0
40
1.700
0
CIRCLE
8
INTERIOR_PROFILES
10
2250.262
20
276.048
30
0
40
1.700
0
CIRCLE
8
INTERIOR_PROFILES
10
2050.262
20
276.048
30
0
40
1.700
0
CIRCLE
8
INTERIOR_PROFILES
10
1934.262
20
300.310
30
0
40
1.700
0
CIRCLE
8
INTERIOR_PROFILES
10
2550.262
20
276.048
30
0
40
1.700
0
CIRCLE
8
INTERIOR_PROFILES
10
2350.262
20
276.048
30
0
40
1.700
0
CIRCLE
8
INTERIOR_PROFILES
10
2540.262
20
442.310
30
0
40
1.700
0
CIRCLE
8
INTERIOR_PROFILES
10
2050.262
20
3.000
30
0
40
1.700
0
CIRCLE
8
INTERIOR_PROFILES
10
2350.262
20
3.000
30
0
40
1.700
0
CIRCLE
8
INTERIOR_PROFILES
10
2350.262
20
480.096
30
0
40
1.700
0
CIRCLE
8
INTERIOR_PROFILES
10
2550.262
20
3.000
30
0
40
1.700
0
CIRCLE
8
INTERIOR_PROFILES
10
2566.262
20
442.310
30
0
40
1.700
0
CIRCLE
8
INTERIOR_PROFILES
10
2550.262
20
480.096
30
0
40
1.700
0
CIRCLE
8
INTERIOR_PROFILES
10
2350.262
20
33.024
30
0
40
1.700
0
CIRCLE
8
INTERIOR_PROFILES
10
2250.262
20
3.000
30
0
40
1.700
0
CIRCLE
8
INTERIOR_PROFILES
10
2250.262
20
33.024
30
0
40
1.700
0
CIRCLE
8
INTERIOR_PROFILES
10
2450.262
20
480.096
30
0
40
1.700
0
CIRCLE
8
INTERIOR_PROFILES
10
1950.262
20
3.000
30
0
40
1.700
0
CIRCLE
8
INTERIOR_PROFILES
10
2591.262
20
414.548
30
0
40
1.700
0
CIRCLE
8
INTERIOR_PROFILES
10
2591.262
20
442.310
30
0
40
1.700
0
CIRCLE
8
INTERIOR_PROFILES
10
2519.262
20
442.310
30
0
40
1.700
0
CIRCLE
8
INTERIOR_PROFILES
10
2450.262
20
3.000
30
0
40
1.700
0
CIRCLE
8
INTERIOR_PROFILES
10
2150.262
20
3.000
30
0
40
1.700
0
CIRCLE
8
INTERIOR_PROFILES
10
2494.262
20
442.310
30
0
40
1.700
0
CIRCLE
8
INTERIOR_PROFILES
10
2050.262
20
33.024
30
0
40
1.700
0
CIRCLE
8
INTERIOR_PROFILES
10
1950.262
20
33.024
30
0
40
1.700
0
CIRCLE
8
INTERIOR_PROFILES
10
2550.262
20
33.024
30
0
40
1.700
0
CIRCLE
8
INTERIOR_PROFILES
10
2150.262
20
33.024
30
0
40
1.700
0
CIRCLE
8
INTERIOR_PROFILES
10
2450.262
20
33.024
30
0
40
1.700
0
CIRCLE
8
INTERIOR_PROFILES
10
2250.262
20
480.096
30
0
40
1.700
0
CIRCLE
8
INTERIOR_PROFILES
10
2613.524
20
60.548
30
0
40
1.700
0
CIRCLE
8
INTERIOR_PROFILES
10
1887.000
20
60.548
30
0
40
1.700
0
CIRCLE
8
INTERIOR_PROFILES
10
2613.524
20
215.548
30
0
40
1.700
0
CIRCLE
8
INTERIOR_PROFILES
10
1887.000
20
215.548
30
0
40
1.700
0
CIRCLE
8
INTERIOR_PROFILES
10
2613.524
20
370.548
30
0
40
1.700
0
TEXT
8
PART_LABELS
10
366.500
20
443.500
30
0
40
50.000
1
2UPLL0-070043
72
1
73
2
11
366.500
21
443.500
31
0
0
LWPOLYLINE
8
OUTER_PROFILES
90
36
70
1
10
714.262
20
225.524
42
-1.000000
10
714.262
20
244.524
10
714.262
20
246.786
10
714.262
20
253.786
10
714.262
20
256.048
10
732.524
20
256.048
10
732.524
20
585.714
10
716.524
20
627.048
10
714.262
20
627.048
10
714.262
20
629.310
10
714.262
20
651.310
10
714.262
20
659.572
10
714.262
20
669.834
10
714.262
20
672.096
42
-0.414214
10
707.762
20
678.596
10
707.762
20
685.096
10
24.762
20
685.096
10
24.762
20
678.596
42
-0.414214
10
18.262
20
672.096
10
18.262
20
669.834
10
18.262
20
659.572
10
18.262
20
651.310
10
18.262
20
629.310
10
18.262
20
627.048
10
16.000
20
627.048
10
0.000
20
585.714
10
0.000
20
256.048
10
18.262
20
256.048
10
18.262
20
253.786
10
18.262
20
246.786
10
18.262
20
244.524
42
-1.000000
10
18.262
20
225.524
10
18.262
20
212.262
10
18.262
20
202.000
10
714.262
20
202.000
10
714.262
20
212.262
0
CIRCLE
8
INTERIOR_PROFILES
10
707.262
20
430.048
30
0
40
1.700
0
CIRCLE
8
INTERIOR_PROFILES
10
459.262
20
263.048
30
0
40
1.700
0
CIRCLE
8
INTERIOR_PROFILES
10
566.262
20
620.048
30
0
40
1.700
0
CIRCLE
8
INTERIOR_PROFILES
10
366.262
20
620.048
30
0
40
1.700
0
CIRCLE
8
INTERIOR_PROFILES
10
496.262
20
258.048
30
0
40
1.700
0
CIRCLE
8
INTERIOR_PROFILES
10
477.262
20
281.048
30
0
40
1.700
0
CIRCLE
8
INTERIOR_PROFILES
10
477.262
20
263.048
30
0
40
1.700
0
CIRCLE
8
INTERIOR_PROFILES
10
646.262
20
258.048
30
0
40
1.700
0
CIRCLE
8
INTERIOR_PROFILES
10
76.262
20
644.310
30
0
40
1.700
0
CIRCLE
8
INTERIOR_PROFILES
10
610.262
20
644.310
30
0
40
1.700
0
CIRCLE
8
INTERIOR_PROFILES
10
25.262
20
616.548
30
0
40
1.700
0
CIRCLE
8
INTERIOR_PROFILES
10
25.262
20
430.048
30
0
40
1.700
0
CIRCLE
8
INTERIOR_PROFILES
10
707.262
20
644.310
30
0
40
1.700
0
CIRCLE
8
INTERIOR_PROFILES
10
25.262
20
644.310
30
0
40
1.700
0
CIRCLE
8
INTERIOR_PROFILES
10
459.262
20
281.048
30
0
40
1.700
0
CIRCLE
8
INTERIOR_PROFILES
10
707.262
20
616.548
30
0
40
1.700
0
CIRCLE
8
INTERIOR_PROFILES
10
696.262
20
258.048
30
0
40
1.700
0
CIRCLE
8
INTERIOR_PROFILES
10
97.262
20
644.310
30
0
40
1.700
0
CIRCLE
8
INTERIOR_PROFILES
10
546.262
20
258.048
30
0
40
1.700
0
CIRCLE
8
INTERIOR_PROFILES
10
707.262
20
263.048
30
0
40
1.700
0
CIRCLE
8
INTERIOR_PROFILES
10
50.262
20
644.310
30
0
40
1.700
0
CIRCLE
8
INTERIOR_PROFILES
10
656.262
20
644.310
30
0
40
1.700
0
CIRCLE
8
INTERIOR_PROFILES
10
166.262
20
620.048
30
0
40
1.700
0
CIRCLE
8
INTERIOR_PROFILES
10
122.262
20
644.310
30
0
40
1.700
0
CIRCLE
8
INTERIOR_PROFILES
10
682.262
20
644.310
30
0
40
1.700
0
CIRCLE
8
INTERIOR_PROFILES
10
596.262
20
258.048
30
0
40
1.700
0
CIRCLE
8
INTERIOR_PROFILES
10
25.262
20
263.048
30
0
40
1.700
0
CIRCLE
8
INTERIOR_PROFILES
10
635.262
20
644.310
30
0
40
1.700
0
CIRCLE
8
INTERIOR_PROFILES
10
707.262
20
597.048
30
0
40
1.700
0
CIRCLE
8
INTERIOR_PROFILES
10
25.262
20
597.048
30
0
40
1.700
0
CIRCLE
8
INTERIOR_PROFILES
10
566.262
20
205.000
30
0
40
1.700
0
CIRCLE
8
INTERIOR_PROFILES
10
66.262
20
682.096
30
0
40
1.700
0
CIRCLE
8
INTERIOR_PROFILES
10
466.262
20
682.096
30
0
40
1.700
0
CIRCLE
8
INTERIOR_PROFILES
10
666.262
20
682.096
30
0
40
1.700
0
CIRCLE
8
INTERIOR_PROFILES
10
266.262
20
682.096
30
0
40
1.700
0
CIRCLE
8
INTERIOR_PROFILES
10
166.262
20
235.024
30
0
40
1.700
0
CIRCLE
8
INTERIOR_PROFILES
10
366.262
20
205.000
30
0
40
1.700
0
CIRCLE
8
INTERIOR_PROFILES
10
166.262
20
682.096
30
0
40
1.700
0
CIRCLE
8
INTERIOR_PROFILES
10
666.262
20
235.024
30
0
40
1.700
0
CIRCLE
8
INTERIOR_PROFILES
10
466.262
20
620.048
30
0
40
1.700
0
CIRCLE
8
INTERIOR_PROFILES
10
66.262
20
205.000
30
0
40
1.700
0
CIRCLE
8
INTERIOR_PROFILES
10
366.262
20
235.024
30
0
40
1.700
0
CIRCLE
8
INTERIOR_PROFILES
10
466.262
20
205.000
30
0
40
1.700
0
CIRCLE
8
INTERIOR_PROFILES
10
666.262
20
205.000
30
0
40
1.700
0
CIRCLE
8
INTERIOR_PROFILES
10
466.262
20
235.024
30
0
40
1.700
0
CIRCLE
8
INTERIOR_PROFILES
10
566.262
20
682.096
30
0
40
1.700
0
CIRCLE
8
INTERIOR_PROFILES
10
666.262
20
620.048
30
0
40
1.700
0
CIRCLE
8
INTERIOR_PROFILES
10
266.262
20
235.024
30
0
40
1.700
0
CIRCLE
8
INTERIOR_PROFILES
10
166.262
20
205.000
30
0
40
1.700
0
CIRCLE
8
INTERIOR_PROFILES
10
66.262
20
235.024
30
0
40
1.700
0
CIRCLE
8
INTERIOR_PROFILES
10
266.262
20
205.000
30
0
40
1.700
0
CIRCLE
8
INTERIOR_PROFILES
10
66.262
20
620.048
30
0
40
1.700
0
CIRCLE
8
INTERIOR_PROFILES
10
266.262
20
620.048
30
0
40
1.700
0
CIRCLE
8
INTERIOR_PROFILES
10
366.262
20
682.096
30
0
40
1.700
0
CIRCLE
8
INTERIOR_PROFILES
10
566.262
20
235.024
30
0
40
1.700
0
CIRCLE
8
INTERIOR_PROFILES
10
729.524
20
417.548
30
0
40
1.700
0
CIRCLE
8
INTERIOR_PROFILES
10
3.000
20
417.548
30
0
40
1.700
0
CIRCLE
8
INTERIOR_PROFILES
10
3.000
20
572.548
30
0
40
1.700
0
CIRCLE
8
INTERIOR_PROFILES
10
729.524
20
262.548
30
0
40
1.700
0
CIRCLE
8
INTERIOR_PROFILES
10
729.524
20
572.548
30
0
40
1.700
0
CIRCLE
8
INTERIOR_PROFILES
10
3.000
20
262.548
30
0
40
1.700
0
TEXT
8
PART_LABELS
10
1096.500
20
444.000
30
0
40
50.000
1
2DN000-070000
72
1
73
2
11
1096.500
21
444.000
31
0
0
LWPOLYLINE
8
OUTER_PROFILES
90
26
70
1
10
748.262
20
656.812
10
735.000
20
656.812
10
735.000
20
270.048
10
748.262
20
270.048
10
748.262
20
267.786
10
748.262
20
243.524
10
748.262
20
225.262
10
748.262
20
215.000
42
-0.414214
10
761.262
20
202.000
10
1431.262
20
202.000
42
-0.414214
10
1444.262
20
215.000
10
1444.262
20
225.262
10
1444.262
20
243.524
10
1444.262
20
267.786
10
1444.262
20
270.048
10
1457.524
20
270.048
10
1457.524
20
656.812
10
1444.262
20
656.812
10
1444.262
20
658.023
10
1444.262
20
659.234
10
1444.262
20
663.234
10
1444.262
20
686.496
10
748.262
20
686.496
10
748.262
20
665.496
10
748.262
20
659.234
10
748.262
20
658.023
0
CIRCLE
8
INTERIOR_PROFILES
10
755.262
20
467.048
30
0
40
1.700
0
CIRCLE
8
INTERIOR_PROFILES
10
776.262
20
661.734
30
0
40
1.250
0
CIRCLE
8
INTERIOR_PROFILES
10
755.262
20
643.798
30
0
40
6.500
0
CIRCLE
8
INTERIOR_PROFILES
10
1437.262
20
634.048
30
0
40
1.700
0
CIRCLE
8
INTERIOR_PROFILES
10
755.262
20
280.548
30
0
40
1.700
0
CIRCLE
8
INTERIOR_PROFILES
10
1437.262
20
300.048
30
0
40
1.700
0
CIRCLE
8
INTERIOR_PROFILES
10
1437.262
20
643.798
30
0
40
6.500
0
CIRCLE
8
INTERIOR_PROFILES
10
1196.262
20
277.048
30
0
40
1.700
0
CIRCLE
8
INTERIOR_PROFILES
10
1296.262
20
277.048
30
0
40
1.700
0
CIRCLE
8
INTERIOR_PROFILES
10
827.262
20
252.786
30
0
40
1.700
0
CIRCLE
8
INTERIOR_PROFILES
10
1411.262
20
252.786
30
0
40
1.700
0
CIRCLE
8
INTERIOR_PROFILES
10
1437.262
20
252.786
30
0
40
1.700
0
CIRCLE
8
INTERIOR_PROFILES
10
755.262
20
252.786
30
0
40
1.700
0
CIRCLE
8
INTERIOR_PROFILES
10
781.262
20
252.786
30
0
40
1.700
0
CIRCLE
8
INTERIOR_PROFILES
10
771.262
20
205.000
30
0
40
1.700
0
CIRCLE
8
INTERIOR_PROFILES
10
1365.262
20
252.786
30
0
40
1.700
0
CIRCLE
8
INTERIOR_PROFILES
10
1421.262
20
205.000
30
0
40
1.700
0
CIRCLE
8
INTERIOR_PROFILES
10
1196.262
20
205.000
30
0
40
1.700
0
CIRCLE
8
INTERIOR_PROFILES
10
796.262
20
205.000
30
0
40
1.700
0
CIRCLE
8
INTERIOR_PROFILES
10
996.262
20
205.000
30
0
40
1.700
0
CIRCLE
8
INTERIOR_PROFILES
10
1096.262
20
205.000
30
0
40
1.700
0
CIRCLE
8
INTERIOR_PROFILES
10
896.262
20
205.000
30
0
40
1.700
0
CIRCLE
8
INTERIOR_PROFILES
10
740.500
20
402.048
30
0
40
4.500
0
CIRCLE
8
INTERIOR_PROFILES
10
1296.262
20
205.000
30
0
40
1.700
0
CIRCLE
8
INTERIOR_PROFILES
10
1452.024
20
557.048
30
0
40
4.500
0
CIRCLE
8
INTERIOR_PROFILES
10
740.500
20
557.048
30
0
40
4.500
0
CIRCLE
8
INTERIOR_PROFILES
10
1452.024
20
402.048
30
0
40
4.500
0
CIRCLE
8
INTERIOR_PROFILES
10
1396.262
20
205.000
30
0
40
1.700
0
CIRCLE
8
INTERIOR_PROFILES
10
738.000
20
479.548
30
0
40
1.700
0
CIRCLE
8
INTERIOR_PROFILES
10
738.000
20
634.548
30
0
40
1.700
0
CIRCLE
8
INTERIOR_PROFILES
10
738.000
20
324.548
30
0
40
1.700
0
CIRCLE
8
INTERIOR_PROFILES
10
1454.524
20
324.548
30
0
40
1.700
0
CIRCLE
8
INTERIOR_PROFILES
10
1454.524
20
634.548
30
0
40
1.700
0
CIRCLE
8
INTERIOR_PROFILES
10
996.262
20
277.048
30
0
40
1.700
0
CIRCLE
8
INTERIOR_PROFILES
10
1454.524
20
479.548
30
0
40
1.700
0
CIRCLE
8
INTERIOR_PROFILES
10
1096.262
20
675.496
30
0
40
8.750
0
CIRCLE
8
INTERIOR_PROFILES
10
796.262
20
277.048
30
0
40
1.700
0
CIRCLE
8
INTERIOR_PROFILES
10
1437.262
20
653.548
30
0
40
1.700
0
CIRCLE
8
INTERIOR_PROFILES
10
1437.262
20
467.048
30
0
40
1.700
0
CIRCLE
8
INTERIOR_PROFILES
10
755.262
20
653.548
30
0
40
1.700
0
CIRCLE
8
INTERIOR_PROFILES
10
1416.262
20
661.734
30
0
40
1.250
0
CIRCLE
8
INTERIOR_PROFILES
10
1437.262
20
280.548
30
0
40
1.700
0
CIRCLE
8
INTERIOR_PROFILES
10
755.262
20
634.048
30
0
40
1.700
0
CIRCLE
8
INTERIOR_PROFILES
10
755.262
20
300.048
30
0
40
1.700
0
CIRCLE
8
INTERIOR_PROFILES
10
1096.262
20
277.048
30
0
40
1.700
0
CIRCLE
8
INTERIOR_PROFILES
10
1396.262
20
277.048
30
0
40
1.700
0
CIRCLE
8
INTERIOR_PROFILES
10
896.262
20
277.048
30
0
40
1.700
0
TEXT
8
PART_LABELS
10
1821.500
20
727.000
30
0
40
50.000
1
2DNCL2-070000
72
1
73
2
11
1821.500
21
727.000
31
0
0
LWPOLYLINE
8
OUTER_PROFILES
90
32
70
1
10
1777.000
20
668.048
10
1801.000
20
692.048
10
1803.262
20
692.048
10
1803.262
20
695.048
10
1800.262
20
695.048
10
1800.262
20
692.786
10
1776.262
20
668.786
10
1473.262
20
668.786
10
1473.262
20
695.048
10
1460.000
20
695.048
10
1460.000
20
939.812
10
1473.262
20
939.812
10
1473.262
20
941.023
10
1473.262
20
942.234
10
1473.262
20
948.496
10
1473.262
20
969.496
10
2169.262
20
969.496
10
2169.262
20
946.234
10
2169.262
20
942.234
10
2169.262
20
941.023
10
2169.262
20
939.812
10
2182.524
20
939.812
10
2182.524
20
553.048
10
2169.262
20
553.048
10
2169.262
20
550.786
10
2169.262
20
526.524
10
2169.262
20
508.262
10
2169.262
20
498.000
42
0.414214
10
2156.262
20
485.000
10
1803.262
20
485.000
10
1803.262
20
553.048
10
1777.000
20
553.048
0
CIRCLE
8
INTERIOR_PROFILES
10
1480.262
20
677.786
30
0
40
1.700
0
CIRCLE
8
INTERIOR_PROFILES
10
2021.262
20
702.048
30
0
40
1.700
0
CIRCLE
8
INTERIOR_PROFILES
10
1921.262
20
702.048
30
0
40
1.700
0
CIRCLE
8
INTERIOR_PROFILES
10
1552.262
20
677.786
30
0
40
1.700
0
CIRCLE
8
INTERIOR_PROFILES
10
2121.262
20
702.048
30
0
40
1.700
0
CIRCLE
8
INTERIOR_PROFILES
10
1506.262
20
677.786
30
0
40
1.700
0
CIRCLE
8
INTERIOR_PROFILES
10
1521.262
20
702.048
30
0
40
1.700
0
CIRCLE
8
INTERIOR_PROFILES
10
1821.262
20
702.048
30
0
40
1.700
0
CIRCLE
8
INTERIOR_PROFILES
10
1621.262
20
702.048
30
0
40
1.700
0
CIRCLE
8
INTERIOR_PROFILES
10
1721.262
20
702.048
30
0
40
1.700
0
CIRCLE
8
INTERIOR_PROFILES
10
2162.262
20
535.786
30
0
40
1.700
0
CIRCLE
8
INTERIOR_PROFILES
10
2121.262
20
488.000
30
0
40
1.700
0
CIRCLE
8
INTERIOR_PROFILES
10
2090.262
20
535.786
30
0
40
1.700
0
CIRCLE
8
INTERIOR_PROFILES
10
2136.262
20
535.786
30
0
40
1.700
0
CIRCLE
8
INTERIOR_PROFILES
10
1821.262
20
488.000
30
0
40
1.700
0
CIRCLE
8
INTERIOR_PROFILES
10
2021.262
20
488.000
30
0
40
1.700
0
CIRCLE
8
INTERIOR_PROFILES
10
2177.024
20
685.048
30
0
40
4.500
0
CIRCLE
8
INTERIOR_PROFILES
10
1465.500
20
840.048
30
0
40
4.500
0
CIRCLE
8
INTERIOR_PROFILES
10
2146.262
20
488.000
30
0
40
1.700
0
CIRCLE
8
INTERIOR_PROFILES
10
1921.262
20
488.000
30
0
40
1.700
0
CIRCLE
8
INTERIOR_PROFILES
10
1463.000
20
762.548
30
0
40
1.700
0
CIRCLE
8
INTERIOR_PROFILES
10
1463.000
20
917.548
30
0
40
1.700
0
CIRCLE
8
INTERIOR_PROFILES
10
2162.262
20
750.048
30
0
40
1.700
0
CIRCLE
8
INTERIOR_PROFILES
10
2141.262
20
944.734
30
0
40
1.250
0
CIRCLE
8
INTERIOR_PROFILES
10
2162.262
20
936.548
30
0
40
1.700
0
CIRCLE
8
INTERIOR_PROFILES
10
2179.524
20
917.548
30
0
40
1.700
0
CIRCLE
8
INTERIOR_PROFILES
10
1821.262
20
958.496
30
0
40
8.750
0
CIRCLE
8
INTERIOR_PROFILES
10
2177.024
20
840.048
30
0
40
4.500
0
CIRCLE
8
INTERIOR_PROFILES
10
2162.262
20
563.548
30
0
40
1.700
0
CIRCLE
8
INTERIOR_PROFILES
10
2179.524
20
762.548
30
0
40
1.700
0
CIRCLE
8
INTERIOR_PROFILES
10
1480.262
20
936.548
30
0
40
1.700
0
CIRCLE
8
INTERIOR_PROFILES
10
2179.524
20
607.548
30
0
40
1.700
0
CIRCLE
8
INTERIOR_PROFILES
10
1480.262
20
926.798
30
0
40
6.500
0
CIRCLE
8
INTERIOR_PROFILES
10
1821.262
20
560.048
30
0
40
1.700
0
CIRCLE
8
INTERIOR_PROFILES
10
2162.262
20
583.048
30
0
40
1.700
0
CIRCLE
8
INTERIOR_PROFILES
10
2162.262
20
926.798
30
0
40
6.500
0
CIRCLE
8
INTERIOR_PROFILES
10
1921.262
20
560.048
30
0
40
1.700
0
CIRCLE
8
INTERIOR_PROFILES
10
2162.262
20
917.048
30
0
40
1.700
0
CIRCLE
8
INTERIOR_PROFILES
10
1480.262
20
750.048
30
0
40
1.700
0
CIRCLE
8
INTERIOR_PROFILES
10
1501.262
20
944.734
30
0
40
1.250
0
CIRCLE
8
INTERIOR_PROFILES
10
2121.262
20
560.048
30
0
40
1.700
0
CIRCLE
8
INTERIOR_PROFILES
10
2021.262
20
560.048
30
0
40
1.700
0
CIRCLE
8
INTERIOR_PROFILES
10
1480.262
20
917.048
30
0
40
1.700
0
TEXT
8
PART_LABELS
10
2546.500
20
727.000
30
0
40
50.000
1
2DNCR0-070043
72
1
73
2
11
2546.500
21
727.000
31
0
0
LWPOLYLINE
8
OUTER_PROFILES
90
27
70
1
10
2198.262
20
942.234
10
2198.262
20
948.496
10
2198.262
20
969.496
10
2867.662
20
969.496
10
2867.662
20
946.234
10
2894.262
20
946.234
10
2894.262
20
942.234
10
2894.262
20
941.023
10
2894.262
20
939.812
10
2907.524
20
939.812
10
2907.524
20
553.048
10
2894.262
20
553.048
10
2894.262
20
550.786
10
2894.262
20
526.524
10
2894.262
20
508.262
10
2894.262
20
498.000
42
0.414214
10
2881.262
20
485.000
10
2211.262
20
485.000
42
0.414214
10
2198.262
20
498.000
10
2198.262
20
508.262
10
2198.262
20
526.524
10
2198.262
20
550.786
10
2198.262
20
553.048
10
2185.000
20
553.048
10
2185.000
20
939.812
10
2198.262
20
939.812
10
2198.262
20
941.023
0
CIRCLE
8
INTERIOR_PROFILES
10
2246.262
20
560.048
30
0
40
1.700
0
CIRCLE
8
INTERIOR_PROFILES
10
2887.262
20
563.548
30
0
40
1.700
0
CIRCLE
8
INTERIOR_PROFILES
10
2866.262
20
944.734
30
0
40
1.250
0
CIRCLE
8
INTERIOR_PROFILES
10
2205.262
20
583.048
30
0
40
1.700
0
CIRCLE
8
INTERIOR_PROFILES
10
2887.262
20
750.048
30
0
40
1.700
0
CIRCLE
8
INTERIOR_PROFILES
10
2887.262
20
936.548
30
0
40
1.700
0
CIRCLE
8
INTERIOR_PROFILES
10
2205.262
20
936.548
30
0
40
1.700
0
CIRCLE
8
INTERIOR_PROFILES
10
2205.262
20
917.048
30
0
40
1.700
0
CIRCLE
8
INTERIOR_PROFILES
10
2546.262
20
560.048
30
0
40
1.700
0
CIRCLE
8
INTERIOR_PROFILES
10
2887.262
20
583.048
30
0
40
1.700
0
CIRCLE
8
INTERIOR_PROFILES
10
2205.262
20
750.048
30
0
40
1.700
0
CIRCLE
8
INTERIOR_PROFILES
10
2887.262
20
917.048
30
0
40
1.700
0
CIRCLE
8
INTERIOR_PROFILES
10
2346.262
20
560.048
30
0
40
1.700
0
CIRCLE
8
INTERIOR_PROFILES
10
2226.262
20
944.734
30
0
40
1.250
0
CIRCLE
8
INTERIOR_PROFILES
10
2846.262
20
560.048
30
0
40
1.700
0
CIRCLE
8
INTERIOR_PROFILES
10
2887.262
20
926.798
30
0
40
6.500
0
CIRCLE
8
INTERIOR_PROFILES
10
2746.262
20
560.048
30
0
40
1.700
0
CIRCLE
8
INTERIOR_PROFILES
10
2646.262
20
560.048
30
0
40
1.700
0
CIRCLE
8
INTERIOR_PROFILES
10
2205.262
20
563.548
30
0
40
1.700
0
CIRCLE
8
INTERIOR_PROFILES
10
2205.262
20
926.798
30
0
40
6.500
0
CIRCLE
8
INTERIOR_PROFILES
10
2596.262
20
944.734
30
0
40
1.250
0
CIRCLE
8
INTERIOR_PROFILES
10
2646.262
20
944.734
30
0
40
1.250
0
CIRCLE
8
INTERIOR_PROFILES
10
2639.262
20
936.548
30
0
40
1.700
0
CIRCLE
8
INTERIOR_PROFILES
10
2776.262
20
922.048
30
0
40
1.700
0
CIRCLE
8
INTERIOR_PROFILES
10
2676.262
20
922.048
30
0
40
1.700
0
CIRCLE
8
INTERIOR_PROFILES
10
2657.262
20
899.048
30
0
40
1.700
0
CIRCLE
8
INTERIOR_PROFILES
10
2639.262
20
917.048
30
0
40
1.700
0
CIRCLE
8
INTERIOR_PROFILES
10
2826.262
20
922.048
30
0
40
1.700
0
CIRCLE
8
INTERIOR_PROFILES
10
2876.262
20
922.048
30
0
40
1.700
0
CIRCLE
8
INTERIOR_PROFILES
10
2726.262
20
922.048
30
0
40
1.700
0
CIRCLE
8
INTERIOR_PROFILES
10
2861.262
20
535.786
30
0
40
1.700
0
CIRCLE
8
INTERIOR_PROFILES
10
2205.262
20
535.786
30
0
40
1.700
0
CIRCLE
8
INTERIOR_PROFILES
10
2887.262
20
535.786
30
0
40
1.700
0
CIRCLE
8
INTERIOR_PROFILES
10
2277.262
20
535.786
30
0
40
1.700
0
CIRCLE
8
INTERIOR_PROFILES
10
2657.262
20
917.048
30
0
40
1.700
0
CIRCLE
8
INTERIOR_PROFILES
10
2639.262
20
899.048
30
0
40
1.700
0
CIRCLE
8
INTERIOR_PROFILES
10
2231.262
20
535.786
30
0
40
1.700
0
CIRCLE
8
INTERIOR_PROFILES
10
2221.262
20
488.000
30
0
40
1.700
0
CIRCLE
8
INTERIOR_PROFILES
10
2446.262
20
488.000
30
0
40
1.700
0
CIRCLE
8
INTERIOR_PROFILES
10
2871.262
20
488.000
30
0
40
1.700
0
CIRCLE
8
INTERIOR_PROFILES
10
2246.262
20
488.000
30
0
40
1.700
0
CIRCLE
8
INTERIOR_PROFILES
10
2815.262
20
535.786
30
0
40
1.700
0
CIRCLE
8
INTERIOR_PROFILES
10
2546.262
20
488.000
30
0
40
1.700
0
CIRCLE
8
INTERIOR_PROFILES
10
2646.262
20
488.000
30
0
40
1.700
0
CIRCLE
8
INTERIOR_PROFILES
10
2846.262
20
488.000
30
0
40
1.700
0
CIRCLE
8
INTERIOR_PROFILES
10
2746.262
20
488.000
30
0
40
1.700
0
CIRCLE
8
INTERIOR_PROFILES
10
2346.262
20
488.000
30
0
40
1.700
0
CIRCLE
8
INTERIOR_PROFILES
10
2190.500
20
685.048
30
0
40
4.500
0
CIRCLE
8
INTERIOR_PROFILES
10
2904.524
20
917.548
30
0
40
1.700
0
CIRCLE
8
INTERIOR_PROFILES
10
2188.000
20
607.548
30
0
40
1.700
0
CIRCLE
8
INTERIOR_PROFILES
10
2190.500
20
840.048
30
0
40
4.500
0
CIRCLE
8
INTERIOR_PROFILES
10
2902.024
20
685.048
30
0
40
4.500
0
CIRCLE
8
INTERIOR_PROFILES
10
2188.000
20
917.548
30
0
40
1.700
0
CIRCLE
8
INTERIOR_PROFILES
10
2904.524
20
607.548
30
0
40
1.700
0
CIRCLE
8
INTERIOR_PROFILES
10
2902.024
20
840.048
30
0
40
4.500
0
CIRCLE
8
INTERIOR_PROFILES
10
2188.000
20
762.548
30
0
40
1.700
0
CIRCLE
8
INTERIOR_PROFILES
10
2408.762
20
958.496
30
0
40
8.750
0
CIRCLE
8
INTERIOR_PROFILES
10
2904.524
20
762.548
30
0
40
1.700
0
CIRCLE
8
INTERIOR_PROFILES
10
2834.762
20
955.496
30
0
40
1.700
0
CIRCLE
8
INTERIOR_PROFILES
10
2679.762
20
955.496
30
0
40
1.700
0
CIRCLE
8
INTERIOR_PROFILES
10
2757.262
20
952.996
30
0
40
4.500
0
CIRCLE
8
INTERIOR_PROFILES
10
2446.262
20
560.048
30
0
40
1.700
0
TEXT
8
PART_LABELS
10
316.500
20
928.500
30
0
40
50.000
1
2UP000-060000
72
1
73
2
11
316.500
21
928.500
31
0
0
LWPOLYLINE
8
OUTER_PROFILES
90
36
70
1
10
614.262
20
710.524
42
-1.000000
10
614.262
20
729.524
10
614.262
20
731.786
10
614.262
20
738.786
10
614.262
20
741.048
10
632.524
20
741.048
10
632.524
20
1070.714
10
616.524
20
1112.048
10
614.262
20
1112.048
10
614.262
20
1114.310
10
614.262
20
1136.310
10
614.262
20
1144.572
10
614.262
20
1154.834
10
614.262
20
1157.096
42
-0.414214
10
607.762
20
1163.596
10
607.762
20
1170.096
10
24.762
20
1170.096
10
24.762
20
1163.596
42
-0.414214
10
18.262
20
1157.096
10
18.262
20
1154.834
10
18.262
20
1144.572
10
18.262
20
1136.310
10
18.262
20
1114.310
10
18.262
20
1112.048
10
16.000
20
1112.048
10
0.000
20
1070.714
10
0.000
20
741.048
10
18.262
20
741.048
10
18.262
20
738.786
10
18.262
20
731.786
10
18.262
20
729.524
42
-1.000000
10
18.262
20
710.524
10
18.262
20
697.262
10
18.262
20
687.000
10
614.262
20
687.000
10
614.262
20
697.262
0
CIRCLE
8
INTERIOR_PROFILES
10
97.262
20
1129.310
30
0
40
1.700
0
CIRCLE
8
INTERIOR_PROFILES
10
582.262
20
1129.310
30
0
40
1.700
0
CIRCLE
8
INTERIOR_PROFILES
10
216.262
20
1105.048
30
0
40
1.700
0
CIRCLE
8
INTERIOR_PROFILES
10
535.262
20
1129.310
30
0
40
1.700
0
CIRCLE
8
INTERIOR_PROFILES
10
416.262
20
1105.048
30
0
40
1.700
0
CIRCLE
8
INTERIOR_PROFILES
10
607.262
20
915.048
30
0
40
1.700
0
CIRCLE
8
INTERIOR_PROFILES
10
607.262
20
1129.310
30
0
40
1.700
0
CIRCLE
8
INTERIOR_PROFILES
10
122.262
20
1129.310
30
0
40
1.700
0
CIRCLE
8
INTERIOR_PROFILES
10
116.262
20
1105.048
30
0
40
1.700
0
CIRCLE
8
INTERIOR_PROFILES
10
25.262
20
1129.310
30
0
40
1.700
0
CIRCLE
8
INTERIOR_PROFILES
10
316.262
20
1105.048
30
0
40
1.700
0
CIRCLE
8
INTERIOR_PROFILES
10
516.262
20
1105.048
30
0
40
1.700
0
CIRCLE
8
INTERIOR_PROFILES
10
416.262
20
720.024
30
0
40
1.700
0
CIRCLE
8
INTERIOR_PROFILES
10
416.262
20
690.000
30
0
40
1.700
0
CIRCLE
8
INTERIOR_PROFILES
10
25.262
20
1082.048
30
0
40
1.700
0
CIRCLE
8
INTERIOR_PROFILES
10
607.262
20
1082.048
30
0
40
1.700
0
CIRCLE
8
INTERIOR_PROFILES
10
510.262
20
1129.310
30
0
40
1.700
0
CIRCLE
8
INTERIOR_PROFILES
10
25.262
20
1101.548
30
0
40
1.700
0
CIRCLE
8
INTERIOR_PROFILES
10
216.262
20
720.024
30
0
40
1.700
0
CIRCLE
8
INTERIOR_PROFILES
10
25.262
20
915.048
30
0
40
1.700
0
CIRCLE
8
INTERIOR_PROFILES
10
116.262
20
720.024
30
0
40
1.700
0
CIRCLE
8
INTERIOR_PROFILES
10
316.262
20
720.024
30
0
40
1.700
0
CIRCLE
8
INTERIOR_PROFILES
10
516.262
20
720.024
30
0
40
1.700
0
CIRCLE
8
INTERIOR_PROFILES
10
607.262
20
748.048
30
0
40
1.700
0
CIRCLE
8
INTERIOR_PROFILES
10
516.262
20
1167.096
30
0
40
1.700
0
CIRCLE
8
INTERIOR_PROFILES
10
607.262
20
1101.548
30
0
40
1.700
0
CIRCLE
8
INTERIOR_PROFILES
10
50.262
20
1129.310
30
0
40
1.700
0
CIRCLE
8
INTERIOR_PROFILES
10
25.262
20
748.048
30
0
40
1.700
0
CIRCLE
8
INTERIOR_PROFILES
10
76.262
20
1129.310
30
0
40
1.700
0
CIRCLE
8
INTERIOR_PROFILES
10
556.262
20
1129.310
30
0
40
1.700
0
CIRCLE
8
INTERIOR_PROFILES
10
116.262
20
690.000
30
0
40
1.700
0
CIRCLE
8
INTERIOR_PROFILES
10
316.262
20
1167.096
30
0
40
1.700
0
CIRCLE
8
INTERIOR_PROFILES
10
629.524
20
1057.548
30
0
40
1.700
0
CIRCLE
8
INTERIOR_PROFILES
10
3.000
20
747.548
30
0
40
1.700
0
CIRCLE
8
INTERIOR_PROFILES
10
116.262
20
1167.096
30
0
40
1.700
0
CIRCLE
8
INTERIOR_PROFILES
10
3.000
20
1057.548
30
0
40
1.700
0
CIRCLE
8
INTERIOR_PROFILES
10
216.262
20
690.000
30
0
40
1.700
0
CIRCLE
8
INTERIOR_PROFILES
10
316.262
20
690.000
30
0
40
1.700
0
CIRCLE
8
INTERIOR_PROFILES
10
3.000
20
902.548
30
0
40
1.700
0
CIRCLE
8
INTERIOR_PROFILES
10
416.262
20
1167.096
30
0
40
1.700
0
CIRCLE
8
INTERIOR_PROFILES
10
216.262
20
1167.096
30
0
40
1.700
0
CIRCLE
8
INTERIOR_PROFILES
10
629.524
20
902.548
30
0
40
1.700
0
CIRCLE
8
INTERIOR_PROFILES
10
516.262
20
690.000
30
0
40
1.700
0
CIRCLE
8
INTERIOR_PROFILES
10
629.524
20
747.548
30
0
40
1.700
0
TEXT
8
PART_LABELS
10
946.500
20
930.000
30
0
40
50.000
1
2DN000-060000
72
1
73
2
11
946.500
21
930.000
31
0
0
CIRCLE
8
OUTER_PROFILES
10
676.262
20
1147.734
30
0
40
1.250
0
CIRCLE
8
OUTER_PROFILES
10
1216.262
20
1147.734
30
0
40
1.250
0
CIRCLE
8
OUTER_PROFILES
10
671.262
20
691.000
30
0
40
1.700
0
CIRCLE
8
OUTER_PROFILES
10
946.262
20
691.000
30
0
40
1.700
0
CIRCLE
8
OUTER_PROFILES
10
846.262
20
691.000
30
0
40
1.700
0
CIRCLE
8
OUTER_PROFILES
10
1046.262
20
691.000
30
0
40
1.700
0
CIRCLE
8
OUTER_PROFILES
10
746.262
20
691.000
30
0
40
1.700
0
CIRCLE
8
OUTER_PROFILES
10
1146.262
20
691.000
30
0
40
1.700
0
CIRCLE
8
OUTER_PROFILES
10
640.500
20
888.048
30
0
40
4.500
0
CIRCLE
8
OUTER_PROFILES
10
640.500
20
1043.048
30
0
40
4.500
0
CIRCLE
8
OUTER_PROFILES
10
638.000
20
1120.548
30
0
40
1.700
0
CIRCLE
8
OUTER_PROFILES
10
638.000
20
810.548
30
0
40
1.700
0
CIRCLE
8
OUTER_PROFILES
10
638.000
20
965.548
30
0
40
1.700
0
CIRCLE
8
OUTER_PROFILES
10
946.262
20
763.048
30
0
40
1.700
0
CIRCLE
8
OUTER_PROFILES
10
655.262
20
786.048
30
0
40
1.700
0
CIRCLE
8
OUTER_PROFILES
10
655.262
20
1120.048
30
0
40
1.700
0
CIRCLE
8
OUTER_PROFILES
10
1237.262
20
1139.548
30
0
40
1.700
0
CIRCLE
8
OUTER_PROFILES
10
1237.262
20
766.548
30
0
40
1.700
0
CIRCLE
8
OUTER_PROFILES
10
1237.262
20
953.048
30
0
40
1.700
0
CIRCLE
8
OUTER_PROFILES
10
655.262
20
1139.548
30
0
40
1.700
0
CIRCLE
8
OUTER_PROFILES
10
746.262
20
763.048
30
0
40
1.700
0
CIRCLE
8
OUTER_PROFILES
10
1046.262
20
763.048
30
0
40
1.700
0
CIRCLE
8
OUTER_PROFILES
10
1146.262
20
763.048
30
0
40
1.700
0
CIRCLE
8
OUTER_PROFILES
10
655.262
20
766.548
30
0
40
1.700
0
CIRCLE
8
OUTER_PROFILES
10
655.262
20
1129.798
30
0
40
6.500
0
CIRCLE
8
OUTER_PROFILES
10
1237.262
20
1120.048
30
0
40
1.700
0
CIRCLE
8
OUTER_PROFILES
10
1237.262
20
786.048
30
0
40
1.700
0
CIRCLE
8
OUTER_PROFILES
10
1237.262
20
1129.798
30
0
40
6.500
0
CIRCLE
8
OUTER_PROFILES
10
655.262
20
953.048
30
0
40
1.700
0
CIRCLE
8
OUTER_PROFILES
10
846.262
20
763.048
30
0
40
1.700
0
ARC
8
OUTER_PROFILES
10
1246.122
20
762.957
30
0
40
1.659
50
207.2793
51
284.0316
0
ARC
8
OUTER_PROFILES
10
1246.210
20
763.037
30
0
40
1.774
50
110.3567
51
208.2441
0
ARC
8
OUTER_PROFILES
10
1246.290
20
760.233
30
0
40
4.521
50
87.0326
51
98.8713
0
LINE
8
OUTER_PROFILES
10
1246.524
20
764.748
30
0
11
1246.524
21
761.348
31
0
0
CIRCLE
8
OUTER_PROFILES
10
1254.524
20
965.548
30
0
40
1.700
0
CIRCLE
8
OUTER_PROFILES
10
1254.524
20
810.548
30
0
40
1.700
0
CIRCLE
8
OUTER_PROFILES
10
1254.524
20
1120.548
30
0
40
1.700
0
CIRCLE
8
OUTER_PROFILES
10
1252.024
20
1043.048
30
0
40
4.500
0
CIRCLE
8
OUTER_PROFILES
10
1252.024
20
888.048
30
0
40
4.500
0
CIRCLE
8
OUTER_PROFILES
10
681.262
20
738.786
30
0
40
1.700
0
CIRCLE
8
OUTER_PROFILES
10
1165.262
20
738.786
30
0
40
1.700
0
CIRCLE
8
OUTER_PROFILES
10
655.262
20
738.786
30
0
40
1.700
0
CIRCLE
8
OUTER_PROFILES
10
1237.262
20
738.786
30
0
40
1.700
0
CIRCLE
8
OUTER_PROFILES
10
727.262
20
738.786
30
0
40
1.700
0
CIRCLE
8
OUTER_PROFILES
10
1211.262
20
738.786
30
0
40
1.700
0
CIRCLE
8
OUTER_PROFILES
10
946.262
20
1161.496
30
0
40
8.750
0
LWPOLYLINE
8
OUTER_PROFILES
90
26
70
1
10
1244.262
20
1149.234
10
1244.262
20
1172.496
10
648.262
20
1172.496
10
648.262
20
1151.496
10
648.262
20
1145.234
10
648.262
20
1144.023
10
648.262
20
1142.812
10
635.000
20
1142.812
10
635.000
20
756.048
10
648.262
20
756.048
10
648.262
20
753.786
10
648.262
20
729.524
10
648.262
20
711.262
10
648.262
20
701.000
42
-0.414214
10
661.262
20
688.000
10
1231.262
20
688.000
42
-0.414214
10
1244.262
20
701.000
10
1244.262
20
711.262
10
1244.262
20
729.524
10
1244.262
20
753.786
10
1244.262
20
756.048
10
1257.524
20
756.048
10
1257.524
20
1142.812
10
1244.262
20
1142.812
10
1244.262
20
1144.023
10
1244.262
20
1145.234
0
TEXT
8
PART_LABELS
10
1571.500
20
1213.000
30
0
40
50.000
1
2DN000-060000
72
1
73
2
11
1571.500
21
1213.000
31
0
0
CIRCLE
8
OUTER_PROFILES
10
1301.262
20
1430.734
30
0
40
1.250
0
CIRCLE
8
OUTER_PROFILES
10
1841.262
20
1430.734
30
0
40
1.250
0
CIRCLE
8
OUTER_PROFILES
10
1296.262
20
974.000
30
0
40
1.700
0
CIRCLE
8
OUTER_PROFILES
10
1571.262
20
974.000
30
0
40
1.700
0
CIRCLE
8
OUTER_PROFILES
10
1471.262
20
974.000
30
0
40
1.700
0
CIRCLE
8
OUTER_PROFILES
10
1671.262
20
974.000
30
0
40
1.700
0
CIRCLE
8
OUTER_PROFILES
10
1371.262
20
974.000
30
0
40
1.700
0
CIRCLE
8
OUTER_PROFILES
10
1771.262
20
974.000
30
0
40
1.700
0
CIRCLE
8
OUTER_PROFILES
10
1265.500
20
1171.048
30
0
40
4.500
0
CIRCLE
8
OUTER_PROFILES
10
1265.500
20
1326.048
30
0
40
4.500
0
CIRCLE
8
OUTER_PROFILES
10
1263.000
20
1403.548
30
0
40
1.700
0
CIRCLE
8
OUTER_PROFILES
10
1263.000
20
1093.548
30
0
40
1.700
0
CIRCLE
8
OUTER_PROFILES
10
1263.000
20
1248.548
30
0
40
1.700
0
CIRCLE
8
OUTER_PROFILES
10
1571.262
20
1046.048
30
0
40
1.700
0
CIRCLE
8
OUTER_PROFILES
10
1280.262
20
1069.048
30
0
40
1.700
0
CIRCLE
8
OUTER_PROFILES
10
1280.262
20
1403.048
30
0
40
1.700
0
CIRCLE
8
OUTER_PROFILES
10
1862.262
20
1422.548
30
0
40
1.700
0
CIRCLE
8
OUTER_PROFILES
10
1862.262
20
1049.548
30
0
40
1.700
0
CIRCLE
8
OUTER_PROFILES
10
1862.262
20
1236.048
30
0
40
1.700
0
CIRCLE
8
OUTER_PROFILES
10
1280.262
20
1422.548
30
0
40
1.700
0
CIRCLE
8
OUTER_PROFILES
10
1371.262
20
1046.048
30
0
40
1.700
0
CIRCLE
8
OUTER_PROFILES
10
1671.262
20
1046.048
30
0
40
1.700
0
CIRCLE
8
OUTER_PROFILES
10
1771.262
20
1046.048
30
0
40
1.700
0
CIRCLE
8
OUTER_PROFILES
10
1280.262
20
1049.548
30
0
40
1.700
0
CIRCLE
8
OUTER_PROFILES
10
1280.262
20
1412.798
30
0
40
6.500
0
CIRCLE
8
OUTER_PROFILES
10
1862.262
20
1403.048
30
0
40
1.700
0
CIRCLE
8
OUTER_PROFILES
10
1862.262
20
1069.048
30
0
40
1.700
0
CIRCLE
8
OUTER_PROFILES
10
1862.262
20
1412.798
30
0
40
6.500
0
CIRCLE
8
OUTER_PROFILES
10
1280.262
20
1236.048
30
0
40
1.700
0
CIRCLE
8
OUTER_PROFILES
10
1471.262
20
1046.048
30
0
40
1.700
0
ARC
8
OUTER_PROFILES
10
1871.122
20
1045.957
30
0
40
1.659
50
207.2793
51
284.0316
0
ARC
8
OUTER_PROFILES
10
1871.210
20
1046.037
30
0
40
1.774
50
110.3567
51
208.2441
0
ARC
8
OUTER_PROFILES
10
1871.290
20
1043.233
30
0
40
4.521
50
87.0326
51
98.8713
0
LINE
8
OUTER_PROFILES
10
1871.524
20
1047.748
30
0
11
1871.524
21
1044.348
31
0
0
CIRCLE
8
OUTER_PROFILES
10
1879.524
20
1248.548
30
0
40
1.700
0
CIRCLE
8
OUTER_PROFILES
10
1879.524
20
1093.548
30
0
40
1.700
0
CIRCLE
8
OUTER_PROFILES
10
1879.524
20
1403.548
30
0
40
1.700
0
CIRCLE
8
OUTER_PROFILES
10
1877.024
20
1326.048
30
0
40
4.500
0
CIRCLE
8
OUTER_PROFILES
10
1877.024
20
1171.048
30
0
40
4.500
0
CIRCLE
8
OUTER_PROFILES
10
1306.262
20
1021.786
30
0
40
1.700
0
CIRCLE
8
OUTER_PROFILES
10
1790.262
20
1021.786
30
0
40
1.700
0
CIRCLE
8
OUTER_PROFILES
10
1280.262
20
1021.786
30
0
40
1.700
0
CIRCLE
8
OUTER_PROFILES
10
1862.262
20
1021.786
30
0
40
1.700
0
CIRCLE
8
OUTER_PROFILES
10
1352.262
20
1021.786
30
0
40
1.700
0
CIRCLE
8
OUTER_PROFILES
10
1836.262
20
1021.786
30
0
40
1.700
0
CIRCLE
8
OUTER_PROFILES
10
1571.262
20
1444.496
30
0
40
8.750
0
LWPOLYLINE
8
OUTER_PROFILES
90
26
70
1
10
1869.262
20
1432.234
10
1869.262
20
1455.496
10
1273.262
20
1455.496
10
1273.262
20
1434.496
10
1273.262
20
1428.234
10
1273.262
20
1427.023
10
1273.262
20
1425.812
10
1260.000
20
1425.812
10
1260.000
20
1039.048
10
1273.262
20
1039.048
10
1273.262
20
1036.786
10
1273.262
20
1012.524
10
1273.262
20
994.262
10
1273.262
20
984.000
42
-0.414214
10
1286.262
20
971.000
10
1856.262
20
971.000
42
-0.414214
10
1869.262
20
984.000
10
1869.262
20
994.262
10
1869.262
20
1012.524
10
1869.262
20
1036.786
10
1869.262
20
1039.048
10
1882.524
20
1039.048
10
1882.524
20
1425.812
10
1869.262
20
1425.812
10
1869.262
20
1427.023
10
1869.262
20
1428.234
0
TEXT
8
PART_LABELS
10
2196.500
20
1213.000
30
0
40
50.000
1
2DN000-060000
72
1
73
2
11
2196.500
21
1213.000
31
0
0
CIRCLE
8
OUTER_PROFILES
10
1926.262
20
1430.734
30
0
40
1.250
0
CIRCLE
8
OUTER_PROFILES
10
2466.262
20
1430.734
30
0
40
1.250
0
CIRCLE
8
OUTER_PROFILES
10
1921.262
20
974.000
30
0
40
1.700
0
CIRCLE
8
OUTER_PROFILES
10
2196.262
20
974.000
30
0
40
1.700
0
CIRCLE
8
OUTER_PROFILES
10
2096.262
20
974.000
30
0
40
1.700
0
CIRCLE
8
OUTER_PROFILES
10
2296.262
20
974.000
30
0
40
1.700
0
CIRCLE
8
OUTER_PROFILES
10
1996.262
20
974.000
30
0
40
1.700
0
CIRCLE
8
OUTER_PROFILES
10
2396.262
20
974.000
30
0
40
1.700
0
CIRCLE
8
OUTER_PROFILES
10
1890.500
20
1171.048
30
0
40
4.500
0
CIRCLE
8
OUTER_PROFILES
10
1890.500
20
1326.048
30
0
40
4.500
0
CIRCLE
8
OUTER_PROFILES
10
1888.000
20
1403.548
30
0
40
1.700
0
CIRCLE
8
OUTER_PROFILES
10
1888.000
20
1093.548
30
0
40
1.700
0
CIRCLE
8
OUTER_PROFILES
10
1888.000
20
1248.548
30
0
40
1.700
0
CIRCLE
8
OUTER_PROFILES
10
2196.262
20
1046.048
30
0
40
1.700
0
CIRCLE
8
OUTER_PROFILES
10
1905.262
20
1069.048
30
0
40
1.700
0
CIRCLE
8
OUTER_PROFILES
10
1905.262
20
1403.048
30
0
40
1.700
0
CIRCLE
8
OUTER_PROFILES
10
2487.262
20
1422.548
30
0
40
1.700
0
CIRCLE
8
OUTER_PROFILES
10
2487.262
20
1049.548
30
0
40
1.700
0
CIRCLE
8
OUTER_PROFILES
10
2487.262
20
1236.048
30
0
40
1.700
0
CIRCLE
8
OUTER_PROFILES
10
1905.262
20
1422.548
30
0
40
1.700
0
CIRCLE
8
OUTER_PROFILES
10
1996.262
20
1046.048
30
0
40
1.700
0
CIRCLE
8
OUTER_PROFILES
10
2296.262
20
1046.048
30
0
40
1.700
0
CIRCLE
8
OUTER_PROFILES
10
2396.262
20
1046.048
30
0
40
1.700
0
CIRCLE
8
OUTER_PROFILES
10
1905.262
20
1049.548
30
0
40
1.700
0
CIRCLE
8
OUTER_PROFILES
10
1905.262
20
1412.798
30
0
40
6.500
0
CIRCLE
8
OUTER_PROFILES
10
2487.262
20
1403.048
30
0
40
1.700
0
CIRCLE
8
OUTER_PROFILES
10
2487.262
20
1069.048
30
0
40
1.700
0
CIRCLE
8
OUTER_PROFILES
10
2487.262
20
1412.798
30
0
40
6.500
0
CIRCLE
8
OUTER_PROFILES
10
1905.262
20
1236.048
30
0
40
1.700
0
CIRCLE
8
OUTER_PROFILES
10
2096.262
20
1046.048
30
0
40
1.700
0
ARC
8
OUTER_PROFILES
10
2496.122
20
1045.957
30
0
40
1.659
50
207.2793
51
284.0316
0
ARC
8
OUTER_PROFILES
10
2496.210
20
1046.037
30
0
40
1.774
50
110.3567
51
208.2441
0
ARC
8
OUTER_PROFILES
10
2496.290
20
1043.233
30
0
40
4.521
50
87.0326
51
98.8713
0
LINE
8
OUTER_PROFILES
10
2496.524
20
1047.748
30
0
11
2496.524
21
1044.348
31
0
0
CIRCLE
8
OUTER_PROFILES
10
2504.524
20
1248.548
30
0
40
1.700
0
CIRCLE
8
OUTER_PROFILES
10
2504.524
20
1093.548
30
0
40
1.700
0
CIRCLE
8
OUTER_PROFILES
10
2504.524
20
1403.548
30
0
40
1.700
0
CIRCLE
8
OUTER_PROFILES
10
2502.024
20
1326.048
30
0
40
4.500
0
CIRCLE
8
OUTER_PROFILES
10
2502.024
20
1171.048
30
0
40
4.500
0
CIRCLE
8
OUTER_PROFILES
10
1931.262
20
1021.786
30
0
40
1.700
0
CIRCLE
8
OUTER_PROFILES
10
2415.262
20
1021.786
30
0
40
1.700
0
CIRCLE
8
OUTER_PROFILES
10
1905.262
20
1021.786
30
0
40
1.700
0
CIRCLE
8
OUTER_PROFILES
10
2487.262
20
1021.786
30
0
40
1.700
0
CIRCLE
8
OUTER_PROFILES
10
1977.262
20
1021.786
30
0
40
1.700
0
CIRCLE
8
OUTER_PROFILES
10
2461.262
20
1021.786
30
0
40
1.700
0
CIRCLE
8
OUTER_PROFILES
10
2196.262
20
1444.496
30
0
40
8.750
0
LWPOLYLINE
8
OUTER_PROFILES
90
26
70
1
10
2494.262
20
1432.234
10
2494.262
20
1455.496
10
1898.262
20
1455.496
10
1898.262
20
1434.496
10
1898.262
20
1428.234
10
1898.262
20
1427.023
10
1898.262
20
1425.812
10
1885.000
20
1425.812
10
1885.000
20
1039.048
10
1898.262
20
1039.048
10
1898.262
20
1036.786
10
1898.262
20
1012.524
10
1898.262
20
994.262
10
1898.262
20
984.000
42
-0.414214
10
1911.262
20
971.000
10
2481.262
20
971.000
42
-0.414214
10
2494.262
20
984.000
10
2494.262
20
994.262
10
2494.262
20
1012.524
10
2494.262
20
1036.786
10
2494.262
20
1039.048
10
2507.524
20
1039.048
10
2507.524
20
1425.812
10
2494.262
20
1425.812
10
2494.262
20
1427.023
10
2494.262
20
1428.234
0
TEXT
8
PART_LABELS
10
623.000
20
1276.500
30
0
40
50.000
1
2CN026-120000
72
1
73
2
11
623.000
21
1276.500
31
0
0
CIRCLE
8
OUTER_PROFILES
10
623.191
20
1190.000
30
0
40
1.700
0
CIRCLE
8
OUTER_PROFILES
10
123.191
20
1190.000
30
0
40
1.700
0
CIRCLE
8
OUTER_PROFILES
10
456.525
20
1190.000
30
0
40
1.700
0
CIRCLE
8
OUTER_PROFILES
10
789.858
20
1190.000
30
0
40
1.700
0
CIRCLE
8
OUTER_PROFILES
10
1123.191
20
1190.000
30
0
40
1.700
0
CIRCLE
8
OUTER_PROFILES
10
33.929
20
1219.262
30
0
40
1.700
0
CIRCLE
8
OUTER_PROFILES
10
33.929
20
1201.262
30
0
40
1.700
0
CIRCLE
8
OUTER_PROFILES
10
33.929
20
1238.762
30
0
40
1.700
0
CIRCLE
8
OUTER_PROFILES
10
1212.453
20
1219.262
30
0
40
1.700
0
CIRCLE
8
OUTER_PROFILES
10
1212.453
20
1201.262
30
0
40
1.700
0
CIRCLE
8
OUTER_PROFILES
10
107.191
20
1317.024
30
0
40
1.700
0
CIRCLE
8
OUTER_PROFILES
10
639.191
20
1317.024
30
0
40
1.700
0
CIRCLE
8
OUTER_PROFILES
10
1139.191
20
1317.024
30
0
40
1.700
0
CIRCLE
8
OUTER_PROFILES
10
1107.191
20
1317.024
30
0
40
1.700
0
CIRCLE
8
OUTER_PROFILES
10
607.191
20
1317.024
30
0
40
1.700
0
CIRCLE
8
OUTER_PROFILES
10
139.191
20
1317.024
30
0
40
1.700
0
CIRCLE
8
OUTER_PROFILES
10
139.191
20
1235.762
30
0
40
1.700
0
CIRCLE
8
OUTER_PROFILES
10
639.191
20
1235.762
30
0
40
1.700
0
CIRCLE
8
OUTER_PROFILES
10
1139.191
20
1235.762
30
0
40
1.700
0
CIRCLE
8
OUTER_PROFILES
10
1107.191
20
1235.762
30
0
40
1.700
0
CIRCLE
8
OUTER_PROFILES
10
607.191
20
1235.762
30
0
40
1.700
0
CIRCLE
8
OUTER_PROFILES
10
107.191
20
1235.762
30
0
40
1.700
0
CIRCLE
8
OUTER_PROFILES
10
623.191
20
1362.786
30
0
40
1.700
0
CIRCLE
8
OUTER_PROFILES
10
123.191
20
1362.786
30
0
40
1.700
0
CIRCLE
8
OUTER_PROFILES
10
456.525
20
1362.786
30
0
40
1.700
0
CIRCLE
8
OUTER_PROFILES
10
789.858
20
1362.786
30
0
40
1.700
0
CIRCLE
8
OUTER_PROFILES
10
1123.191
20
1362.786
30
0
40
1.700
0
CIRCLE
8
OUTER_PROFILES
10
33.929
20
1314.024
30
0
40
1.700
0
CIRCLE
8
OUTER_PROFILES
10
33.929
20
1333.524
30
0
40
1.700
0
CIRCLE
8
OUTER_PROFILES
10
33.929
20
1351.524
30
0
40
1.700
0
CIRCLE
8
OUTER_PROFILES
10
1212.453
20
1333.524
30
0
40
1.700
0
CIRCLE
8
OUTER_PROFILES
10
1212.453
20
1351.524
30
0
40
1.700
0
LINE
8
OUTER_PROFILES
10
23.353
20
1301.291
30
0
11
13.929
21
1310.715
31
0
0
LINE
8
OUTER_PROFILES
10
13.929
20
1310.715
30
0
11
13.929
21
1309.786
31
0
0
LINE
8
OUTER_PROFILES
10
13.929
20
1309.786
30
0
11
0.000
21
1309.786
31
0
0
LINE
8
OUTER_PROFILES
10
0.000
20
1309.786
30
0
11
0.000
21
1301.786
31
0
0
ARC
8
OUTER_PROFILES
10
4.252
20
1302.314
30
0
40
4.285
50
187.0769
51
220.6233
0
LINE
8
OUTER_PROFILES
10
1.000
20
1299.524
30
0
11
23.424
21
1277.100
31
0
0
ARC
8
OUTER_PROFILES
10
22.717
20
1276.393
30
0
40
1.000
50
315.0000
51
45.0000
0
LINE
8
OUTER_PROFILES
10
23.424
20
1275.686
30
0
11
1.000
21
1253.262
31
0
0
ARC
8
OUTER_PROFILES
10
4.252
20
1250.472
30
0
40
4.285
50
139.3767
51
172.9231
0
LINE
8
OUTER_PROFILES
10
0.000
20
1251.000
30
0
11
0.000
21
1243.000
31
0
0
LINE
8
OUTER_PROFILES
10
0.000
20
1243.000
30
0
11
14.859
21
1243.000
31
0
0
LINE
8
OUTER_PROFILES
10
14.859
20
1243.000
30
0
11
23.353
21
1251.495
31
0
0
ARC
8
OUTER_PROFILES
10
24.060
20
1250.787
30
0
40
1.000
50
45.0000
51
135.0000
0
LINE
8
OUTER_PROFILES
10
24.767
20
1251.495
30
0
11
33.262
21
1243.000
31
0
0
LINE
8
OUTER_PROFILES
10
33.262
20
1243.000
30
0
11
40.891
21
1243.000
31
0
0
LINE
8
OUTER_PROFILES
10
40.891
20
1243.000
30
0
11
48.891
21
1251.000
31
0
0
LINE
8
OUTER_PROFILES
10
48.891
20
1251.000
30
0
11
48.891
21
1253.262
31
0
0
LINE
8
OUTER_PROFILES
10
48.891
20
1253.262
30
0
11
51.191
21
1253.262
31
0
0
LINE
8
OUTER_PROFILES
10
51.191
20
1253.262
30
0
11
51.191
21
1250.962
31
0
0
LINE
8
OUTER_PROFILES
10
51.191
20
1250.962
30
0
11
48.929
21
1250.962
31
0
0
LINE
8
OUTER_PROFILES
10
48.929
20
1250.962
30
0
11
39.729
21
1241.762
31
0
0
LINE
8
OUTER_PROFILES
10
39.729
20
1241.762
30
0
11
30.929
21
1241.762
31
0
0
LINE
8
OUTER_PROFILES
10
30.929
20
1241.762
30
0
11
30.929
21
1193.333
31
0
0
LINE
8
OUTER_PROFILES
10
30.929
20
1193.333
30
0
11
48.929
21
1193.333
31
0
0
ARC
8
OUTER_PROFILES
10
48.401
20
1197.585
30
0
40
4.285
50
277.0769
51
310.6233
0
LINE
8
OUTER_PROFILES
10
51.191
20
1194.333
30
0
11
51.262
21
1194.262
31
0
0
ARC
8
OUTER_PROFILES
10
54.514
20
1191.472
30
0
40
4.285
50
139.3767
51
172.9231
0
LINE
8
OUTER_PROFILES
10
50.262
20
1192.000
30
0
11
50.262
21
1174.000
31
0
0
LINE
8
OUTER_PROFILES
10
50.262
20
1174.000
30
0
11
1196.121
21
1174.000
31
0
0
LINE
8
OUTER_PROFILES
10
1196.121
20
1174.000
30
0
11
1196.121
21
1192.000
31
0
0
ARC
8
OUTER_PROFILES
10
1191.868
20
1191.472
30
0
40
4.285
50
7.0769
51
40.6233
0
LINE
8
OUTER_PROFILES
10
1195.121
20
1194.262
30
0
11
1195.191
21
1194.333
31
0
0
ARC
8
OUTER_PROFILES
10
1197.981
20
1197.585
30
0
40
4.285
50
229.3767
51
262.9231
0
LINE
8
OUTER_PROFILES
10
1197.453
20
1193.333
30
0
11
1215.453
21
1193.333
31
0
0
LINE
8
OUTER_PROFILES
10
1215.453
20
1193.333
30
0
11
1215.453
21
1241.762
31
0
0
LINE
8
OUTER_PROFILES
10
1215.453
20
1241.762
30
0
11
1206.653
21
1241.762
31
0
0
LINE
8
OUTER_PROFILES
10
1206.653
20
1241.762
30
0
11
1197.453
21
1250.962
31
0
0
LINE
8
OUTER_PROFILES
10
1197.453
20
1250.962
30
0
11
1195.191
21
1250.962
31
0
0
LINE
8
OUTER_PROFILES
10
1195.191
20
1250.962
30
0
11
1195.191
21
1253.262
31
0
0
LINE
8
OUTER_PROFILES
10
1195.191
20
1253.262
30
0
11
1197.491
21
1253.262
31
0
0
LINE
8
OUTER_PROFILES
10
1197.491
20
1253.262
30
0
11
1197.491
21
1251.000
31
0
0
LINE
8
OUTER_PROFILES
10
1197.491
20
1251.000
30
0
11
1205.491
21
1243.000
31
0
0
LINE
8
OUTER_PROFILES
10
1205.491
20
1243.000
30
0
11
1213.121
21
1243.000
31
0
0
LINE
8
OUTER_PROFILES
10
1213.121
20
1243.000
30
0
11
1221.615
21
1251.495
31
0
0
ARC
8
OUTER_PROFILES
10
1222.322
20
1250.787
30
0
40
1.000
50
45.0000
51
135.0000
0
LINE
8
OUTER_PROFILES
10
1223.029
20
1251.495
30
0
11
1231.524
21
1243.000
31
0
0
LINE
8
OUTER_PROFILES
10
1231.524
20
1243.000
30
0
11
1246.382
21
1243.000
31
0
0
LINE
8
OUTER_PROFILES
10
1246.382
20
1243.000
30
0
11
1246.382
21
1251.000
31
0
0
ARC
8
OUTER_PROFILES
10
1242.130
20
1250.472
30
0
40
4.285
50
7.0769
51
40.6233
0
LINE
8
OUTER_PROFILES
10
1245.382
20
1253.262
30
0
11
1222.959
21
1275.686
31
0
0
ARC
8
OUTER_PROFILES
10
1223.666
20
1276.393
30
0
40
1.000
50
135.0000
51
225.0000
0
LINE
8
OUTER_PROFILES
10
1222.959
20
1277.100
30
0
11
1245.382
21
1299.524
31
0
0
ARC
8
OUTER_PROFILES
10
1242.130
20
1302.314
30
0
40
4.285
50
319.3767
51
352.9231
0
LINE
8
OUTER_PROFILES
10
1246.382
20
1301.786
30
0
11
1246.382
21
1309.786
31
0
0
LINE
8
OUTER_PROFILES
10
1246.382
20
1309.786
30
0
11
1232.453
21
1309.786
31
0
0
LINE
8
OUTER_PROFILES
10
1232.453
20
1309.786
30
0
11
1232.453
21
1310.715
31
0
0
LINE
8
OUTER_PROFILES
10
1232.453
20
1310.715
30
0
11
1223.029
21
1301.291
31
0
0
ARC
8
OUTER_PROFILES
10
1222.322
20
1301.998
30
0
40
1.000
50
225.0000
51
315.0000
0
LINE
8
OUTER_PROFILES
10
1221.615
20
1301.291
30
0
11
1212.121
21
1310.786
31
0
0
LINE
8
OUTER_PROFILES
10
1212.121
20
1310.786
30
0
11
1206.491
21
1310.786
31
0
0
LINE
8
OUTER_PROFILES
10
1206.491
20
1310.786
30
0
11
1197.491
21
1301.786
31
0
0
LINE
8
OUTER_PROFILES
10
1197.491
20
1301.786
30
0
11
1197.491
21
1299.524
31
0
0
LINE
8
OUTER_PROFILES
10
1197.491
20
1299.524
30
0
11
1195.191
21
1299.524
31
0
0
LINE
8
OUTER_PROFILES
10
1195.191
20
1299.524
30
0
11
1195.191
21
1301.824
31
0
0
LINE
8
OUTER_PROFILES
10
1195.191
20
1301.824
30
0
11
1197.453
21
1301.824
31
0
0
LINE
8
OUTER_PROFILES
10
1197.453
20
1301.824
30
0
11
1206.653
21
1311.024
31
0
0
LINE
8
OUTER_PROFILES
10
1206.653
20
1311.024
30
0
11
1215.453
21
1311.024
31
0
0
LINE
8
OUTER_PROFILES
10
1215.453
20
1311.024
30
0
11
1215.453
21
1359.453
31
0
0
LINE
8
OUTER_PROFILES
10
1215.453
20
1359.453
30
0
11
1197.453
21
1359.453
31
0
0
ARC
8
OUTER_PROFILES
10
1197.981
20
1355.201
30
0
40
4.285
50
97.0769
51
130.6233
0
LINE
8
OUTER_PROFILES
10
1195.191
20
1358.453
30
0
11
1195.121
21
1358.524
31
0
0
ARC
8
OUTER_PROFILES
10
1191.868
20
1361.314
30
0
40
4.285
50
319.3767
51
352.9231
0
LINE
8
OUTER_PROFILES
10
1196.121
20
1360.786
30
0
11
1196.121
21
1378.786
31
0
0
LINE
8
OUTER_PROFILES
10
1196.121
20
1378.786
30
0
11
50.262
21
1378.786
31
0
0
LINE
8
OUTER_PROFILES
10
50.262
20
1378.786
30
0
11
50.262
21
1360.786
31
0
0
ARC
8
OUTER_PROFILES
10
54.514
20
1361.314
30
0
40
4.285
50
187.0769
51
220.6233
0
LINE
8
OUTER_PROFILES
10
51.262
20
1358.524
30
0
11
51.191
21
1358.453
31
0
0
ARC
8
OUTER_PROFILES
10
48.401
20
1355.201
30
0
40
4.285
50
49.3767
51
82.9231
0
LINE
8
OUTER_PROFILES
10
48.929
20
1359.453
30
0
11
30.929
21
1359.453
31
0
0
LINE
8
OUTER_PROFILES
10
30.929
20
1359.453
30
0
11
30.929
21
1311.024
31
0
0
LINE
8
OUTER_PROFILES
10
30.929
20
1311.024
30
0
11
39.729
21
1311.024
31
0
0
LINE
8
OUTER_PROFILES
10
39.729
20
1311.024
30
0
11
48.929
21
1301.824
31
0
0
LINE
8
OUTER_PROFILES
10
48.929
20
1301.824
30
0
11
51.191
21
1301.824
31
0
0
LINE
8
OUTER_PROFILES
10
51.191
20
1301.824
30
0
11
51.191
21
1299.524
31
0
0
LINE
8
OUTER_PROFILES
10
51.191
20
1299.524
30
0
11
48.891
21
1299.524
31
0
0
LINE
8
OUTER_PROFILES
10
48.891
20
1299.524
30
0
11
48.891
21
1301.786
31
0
0
LINE
8
OUTER_PROFILES
10
48.891
20
1301.786
30
0
11
39.891
21
1310.786
31
0
0
LINE
8
OUTER_PROFILES
10
39.891
20
1310.786
30
0
11
34.262
21
1310.786
31
0
0
LINE
8
OUTER_PROFILES
10
34.262
20
1310.786
30
0
11
24.767
21
1301.291
31
0
0
ARC
8
OUTER_PROFILES
10
24.060
20
1301.998
30
0
40
1.000
50
225.0000
51
315.0000
0
ENDSEC
0
EOF