0
SECTION
2
HEADER
9
$ACADVER
1
AC1015
9
$INSUNITS
70
4
0
ENDSEC
0
SECTION
2
ENTITIES
0
LWPOLYLINE
8
SHEET_BORDER
90
5
70
1
10
0.000
20
0.000
10
3050.000
20
0.000
10
3050.000
20
1525.000
10
0.000
20
1525.000
10
0.000
20
0.000
0
TEXT
8
PART_LABELS
10
311.500
20
242.000
30
0
40
50.000
1
2DN000-060000
72
1
73
2
11
311.500
21
242.000
31
0
0
CIRCLE
8
OUTER_PROFILES
10
41.262
20
459.734
30
0
40
1.250
0
CIRCLE
8
OUTER_PROFILES
10
581.262
20
459.734
30
0
40
1.250
0
CIRCLE
8
OUTER_PROFILES
10
36.262
20
3.000
30
0
40
1.700
0
CIRCLE
8
OUTER_PROFILES
10
311.262
20
3.000
30
0
40
1.700
0
CIRCLE
8
OUTER_PROFILES
10
211.262
20
3.000
30
0
40
1.700
0
CIRCLE
8
OUTER_PROFILES
10
411.262
20
3.000
30
0
40
1.700
0
CIRCLE
8
OUTER_PROFILES
10
111.262
20
3.000
30
0
40
1.700
0
CIRCLE
8
OUTER_PROFILES
10
511.262
20
3.000
30
0
40
1.700
0
CIRCLE
8
OUTER_PROFILES
10
5.500
20
200.048
30
0
40
4.500
0
CIRCLE
8
OUTER_PROFILES
10
5.500
20
355.048
30
0
40
4.500
0
CIRCLE
8
OUTER_PROFILES
10
3.000
20
432.548
30
0
40
1.700
0
CIRCLE
8
OUTER_PROFILES
10
3.000
20
122.548
30
0
40
1.700
0
CIRCLE
8
OUTER_PROFILES
10
3.000
20
277.548
30
0
40
1.700
0
CIRCLE
8
OUTER_PROFILES
10
311.262
20
75.048
30
0
40
1.700
0
CIRCLE
8
OUTER_PROFILES
10
20.262
20
98.048
30
0
40
1.700
0
CIRCLE
8
OUTER_PROFILES
10
20.262
20
432.048
30
0
40
1.700
0
CIRCLE
8
OUTER_PROFILES
10
602.262
20
451.548
30
0
40
1.700
0
CIRCLE
8
OUTER_PROFILES
10
602.262
20
78.548
30
0
40
1.700
0
CIRCLE
8
OUTER_PROFILES
10
602.262
20
265.048
30
0
40
1.700
0
CIRCLE
8
OUTER_PROFILES
10
20.262
20
451.548
30
0
40
1.700
0
CIRCLE
8
OUTER_PROFILES
10
111.262
20
75.048
30
0
40
1.700
0
CIRCLE
8
OUTER_PROFILES
10
411.262
20
75.048
30
0
40
1.700
0
CIRCLE
8
OUTER_PROFILES
10
511.262
20
75.048
30
0
40
1.700
0
CIRCLE
8
OUTER_PROFILES
10
20.262
20
78.548
30
0
40
1.700
0
CIRCLE
8
OUTER_PROFILES
10
20.262
20
441.798
30
0
40
6.500
0
CIRCLE
8
OUTER_PROFILES
10
602.262
20
432.048
30
0
40
1.700
0
CIRCLE
8
OUTER_PROFILES
10
602.262
20
98.048
30
0
40
1.700
0
CIRCLE
8
OUTER_PROFILES
10
602.262
20
441.798
30
0
40
6.500
0
CIRCLE
8
OUTER_PROFILES
10
20.262
20
265.048
30
0
40
1.700
0
CIRCLE
8
OUTER_PROFILES
10
211.262
20
75.048
30
0
40
1.700
0
SPLINE
8
OUTER_PROFILES
70
8
71
3
72
20
73
16
74
0
40
0.000000
40
0.000000
40
0.000000
40
0.000000
40
0.159237
40
0.159237
40
0.159237
40
0.268187
40
0.268187
40
0.268187
40
0.436219
40
0.436219
40
0.436219
40
0.580328
40
0.580328
40
0.580328
40
0.728635
40
0.728635
40
0.728635
40
0.728635
10
611.524
20
73.348
30
0
10
611.142
20
73.348
30
0
10
610.719
20
73.320
30
0
10
610.349
20
73.468
30
0
10
610.097
20
73.570
30
0
10
609.847
20
73.793
30
0
10
609.691
20
74.103
30
0
10
609.450
20
74.581
30
0
10
609.412
20
75.240
30
0
10
609.598
20
75.773
30
0
10
609.757
20
76.230
30
0
10
610.085
20
76.543
30
0
10
610.426
20
76.655
30
0
10
610.777
20
76.771
30
0
10
611.168
20
76.748
30
0
10
611.524
20
76.748
30
0
0
LINE
8
OUTER_PROFILES
10
611.524
20
76.748
30
0
11
611.524
21
73.348
31
0
0
CIRCLE
8
OUTER_PROFILES
10
619.524
20
277.548
30
0
40
1.700
0
CIRCLE
8
OUTER_PROFILES
10
619.524
20
122.548
30
0
40
1.700
0
CIRCLE
8
OUTER_PROFILES
10
619.524
20
432.548
30
0
40
1.700
0
CIRCLE
8
OUTER_PROFILES
10
617.024
20
355.048
30
0
40
4.500
0
CIRCLE
8
OUTER_PROFILES
10
617.024
20
200.048
30
0
40
4.500
0
CIRCLE
8
OUTER_PROFILES
10
46.262
20
50.786
30
0
40
1.700
0
CIRCLE
8
OUTER_PROFILES
10
530.262
20
50.786
30
0
40
1.700
0
CIRCLE
8
OUTER_PROFILES
10
20.262
20
50.786
30
0
40
1.700
0
CIRCLE
8
OUTER_PROFILES
10
602.262
20
50.786
30
0
40
1.700
0
CIRCLE
8
OUTER_PROFILES
10
92.262
20
50.786
30
0
40
1.700
0
CIRCLE
8
OUTER_PROFILES
10
576.262
20
50.786
30
0
40
1.700
0
CIRCLE
8
OUTER_PROFILES
10
311.262
20
473.496
30
0
40
8.750
0
LWPOLYLINE
8
OUTER_PROFILES
90
26
70
1
10
609.262
20
461.234
10
609.262
20
484.496
10
13.262
20
484.496
10
13.262
20
463.496
10
13.262
20
457.234
10
13.262
20
456.023
10
13.262
20
454.812
10
0.000
20
454.812
10
0.000
20
68.048
10
13.262
20
68.048
10
13.262
20
65.786
10
13.262
20
41.524
10
13.262
20
23.262
10
13.262
20
13.000
42
-0.414214
10
26.262
20
0.000
10
596.262
20
0.000
42
-0.414214
10
609.262
20
13.000
10
609.262
20
23.262
10
609.262
20
41.524
10
609.262
20
65.786
10
609.262
20
68.048
10
622.524
20
68.048
10
622.524
20
454.812
10
609.262
20
454.812
10
609.262
20
456.023
10
609.262
20
457.234
0
ENDSEC
0
EOF