0
SECTION
2
HEADER
9
$ACADVER
1
AC1015
9
$INSUNITS
70
4
0
ENDSEC
0
SECTION
2
ENTITIES
0
LWPOLYLINE
8
SHEET_BORDER
90
5
70
1
10
0.000
20
0.000
10
3050.000
20
0.000
10
3050.000
20
1525.000
10
0.000
20
1525.000
10
0.000
20
0.000
0
TEXT
8
PART_LABELS
10
595.500
20
220.500
30
0
40
50.000
1
2SDCN1-120040
72
1
73
2
11
595.500
21
220.500
31
0
0
LWPOLYLINE
8
OUTER_PROFILES
90
36
70
1
10
1174.786
20
12.333
10
1174.786
20
16.191
10
1169.291
20
21.686
42
-0.414214
10
1169.291
20
23.100
10
1174.786
20
28.595
10
1191.048
20
28.595
10
1191.048
20
412.453
10
1174.786
20
412.453
10
1169.291
20
417.948
42
-0.414214
10
1169.291
20
419.362
10
1174.786
20
424.857
10
1174.786
20
428.715
10
1169.291
20
434.210
42
-0.414214
10
1169.291
20
435.624
10
1174.715
20
441.048
10
16.333
20
441.048
10
21.757
20
435.624
42
-0.414214
10
21.757
20
434.210
10
16.262
20
428.715
10
16.262
20
424.857
10
21.757
20
419.362
42
-0.414214
10
21.757
20
417.948
10
16.262
20
412.453
10
0.000
20
412.453
10
0.000
20
28.595
10
16.262
20
28.595
10
21.757
20
23.100
42
-0.414214
10
21.757
20
21.686
10
16.262
20
16.191
10
16.262
20
12.333
10
21.757
20
6.838
42
-0.414214
10
21.757
20
5.424
10
16.333
20
0.000
10
1174.715
20
0.000
10
1169.291
20
5.424
42
-0.414214
10
1169.291
20
6.838
0
CIRCLE
8
INTERIOR_PROFILES
10
795.524
20
62.524
30
0
40
2.117
0
CIRCLE
8
INTERIOR_PROFILES
10
395.524
20
62.524
30
0
40
2.117
0
CIRCLE
8
INTERIOR_PROFILES
10
245.524
20
62.524
30
0
40
2.117
0
CIRCLE
8
INTERIOR_PROFILES
10
145.524
20
350.524
30
0
40
2.117
0
CIRCLE
8
INTERIOR_PROFILES
10
14.262
20
387.524
30
0
40
1.700
0
CIRCLE
8
INTERIOR_PROFILES
10
14.262
20
397.274
30
0
40
6.500
0
CIRCLE
8
INTERIOR_PROFILES
10
14.262
20
407.024
30
0
40
1.700
0
CIRCLE
8
INTERIOR_PROFILES
10
14.262
20
34.024
30
0
40
1.700
0
CIRCLE
8
INTERIOR_PROFILES
10
945.524
20
350.524
30
0
40
2.117
0
CIRCLE
8
INTERIOR_PROFILES
10
895.524
20
350.524
30
0
40
2.117
0
CIRCLE
8
INTERIOR_PROFILES
10
295.524
20
62.524
30
0
40
2.117
0
CIRCLE
8
INTERIOR_PROFILES
10
595.524
20
62.524
30
0
40
2.117
0
CIRCLE
8
INTERIOR_PROFILES
10
345.524
20
350.524
30
0
40
2.117
0
CIRCLE
8
INTERIOR_PROFILES
10
945.524
20
62.524
30
0
40
2.117
0
CIRCLE
8
INTERIOR_PROFILES
10
14.262
20
53.524
30
0
40
1.700
0
CIRCLE
8
INTERIOR_PROFILES
10
1095.524
20
350.524
30
0
40
2.117
0
CIRCLE
8
INTERIOR_PROFILES
10
995.524
20
350.524
30
0
40
2.117
0
CIRCLE
8
INTERIOR_PROFILES
10
395.524
20
350.524
30
0
40
2.117
0
CIRCLE
8
INTERIOR_PROFILES
10
95.524
20
62.524
30
0
40
2.117
0
CIRCLE
8
INTERIOR_PROFILES
10
795.524
20
350.524
30
0
40
2.117
0
CIRCLE
8
INTERIOR_PROFILES
10
145.524
20
62.524
30
0
40
2.117
0
CIRCLE
8
INTERIOR_PROFILES
10
245.524
20
350.524
30
0
40
2.117
0
CIRCLE
8
INTERIOR_PROFILES
10
695.524
20
350.524
30
0
40
2.117
0
CIRCLE
8
INTERIOR_PROFILES
10
14.262
20
220.524
30
0
40
1.700
0
CIRCLE
8
INTERIOR_PROFILES
10
995.524
20
62.524
30
0
40
2.117
0
CIRCLE
8
INTERIOR_PROFILES
10
545.524
20
62.524
30
0
40
2.117
0
CIRCLE
8
INTERIOR_PROFILES
10
545.524
20
350.524
30
0
40
2.117
0
CIRCLE
8
INTERIOR_PROFILES
10
445.524
20
62.524
30
0
40
2.117
0
CIRCLE
8
INTERIOR_PROFILES
10
195.524
20
350.524
30
0
40
2.117
0
CIRCLE
8
INTERIOR_PROFILES
10
345.524
20
62.524
30
0
40
2.117
0
CIRCLE
8
INTERIOR_PROFILES
10
195.524
20
62.524
30
0
40
2.117
0
CIRCLE
8
INTERIOR_PROFILES
10
295.524
20
350.524
30
0
40
2.117
0
CIRCLE
8
INTERIOR_PROFILES
10
445.524
20
350.524
30
0
40
2.117
0
CIRCLE
8
INTERIOR_PROFILES
10
495.524
20
62.524
30
0
40
2.117
0
CIRCLE
8
INTERIOR_PROFILES
10
645.524
20
62.524
30
0
40
2.117
0
CIRCLE
8
INTERIOR_PROFILES
10
695.524
20
62.524
30
0
40
2.117
0
CIRCLE
8
INTERIOR_PROFILES
10
745.524
20
350.524
30
0
40
2.117
0
CIRCLE
8
INTERIOR_PROFILES
10
645.524
20
350.524
30
0
40
2.117
0
CIRCLE
8
INTERIOR_PROFILES
10
845.524
20
62.524
30
0
40
2.117
0
CIRCLE
8
INTERIOR_PROFILES
10
595.524
20
350.524
30
0
40
2.117
0
CIRCLE
8
INTERIOR_PROFILES
10
845.524
20
350.524
30
0
40
2.117
0
CIRCLE
8
INTERIOR_PROFILES
10
95.524
20
350.524
30
0
40
2.117
0
CIRCLE
8
INTERIOR_PROFILES
10
745.524
20
62.524
30
0
40
2.117
0
CIRCLE
8
INTERIOR_PROFILES
10
895.524
20
62.524
30
0
40
2.117
0
CIRCLE
8
INTERIOR_PROFILES
10
1045.524
20
62.524
30
0
40
2.117
0
CIRCLE
8
INTERIOR_PROFILES
10
1045.524
20
350.524
30
0
40
2.117
0
CIRCLE
8
INTERIOR_PROFILES
10
495.524
20
350.524
30
0
40
2.117
0
CIRCLE
8
INTERIOR_PROFILES
10
47.524
20
30.524
30
0
40
1.700
0
CIRCLE
8
INTERIOR_PROFILES
10
1095.524
20
62.524
30
0
40
2.117
0
CIRCLE
8
INTERIOR_PROFILES
10
79.524
20
382.524
30
0
40
1.700
0
CIRCLE
8
INTERIOR_PROFILES
10
95.524
20
410.524
30
0
40
1.700
0
CIRCLE
8
INTERIOR_PROFILES
10
1163.524
20
30.524
30
0
40
1.700
0
CIRCLE
8
INTERIOR_PROFILES
10
611.524
20
382.524
30
0
40
1.700
0
CIRCLE
8
INTERIOR_PROFILES
10
1095.524
20
410.524
30
0
40
1.700
0
CIRCLE
8
INTERIOR_PROFILES
10
1095.524
20
55.524
30
0
40
1.700
0
CIRCLE
8
INTERIOR_PROFILES
10
1111.524
20
382.524
30
0
40
1.700
0
CIRCLE
8
INTERIOR_PROFILES
10
595.524
20
55.524
30
0
40
1.700
0
CIRCLE
8
INTERIOR_PROFILES
10
1143.524
20
30.524
30
0
40
1.700
0
CIRCLE
8
INTERIOR_PROFILES
10
1176.786
20
220.524
30
0
40
1.700
0
CIRCLE
8
INTERIOR_PROFILES
10
27.524
20
30.524
30
0
40
1.700
0
CIRCLE
8
INTERIOR_PROFILES
10
579.524
20
382.524
30
0
40
1.700
0
CIRCLE
8
INTERIOR_PROFILES
10
595.524
20
410.524
30
0
40
1.700
0
CIRCLE
8
INTERIOR_PROFILES
10
1176.786
20
407.024
30
0
40
1.700
0
CIRCLE
8
INTERIOR_PROFILES
10
1176.786
20
387.524
30
0
40
1.700
0
CIRCLE
8
INTERIOR_PROFILES
10
1176.786
20
53.524
30
0
40
1.700
0
CIRCLE
8
INTERIOR_PROFILES
10
1176.786
20
34.024
30
0
40
1.700
0
CIRCLE
8
INTERIOR_PROFILES
10
1176.786
20
397.274
30
0
40
6.500
0
CIRCLE
8
INTERIOR_PROFILES
10
76.524
20
14.262
30
0
40
1.700
0
CIRCLE
8
INTERIOR_PROFILES
10
1079.524
20
382.524
30
0
40
1.700
0
CIRCLE
8
INTERIOR_PROFILES
10
95.524
20
55.524
30
0
40
1.700
0
CIRCLE
8
INTERIOR_PROFILES
10
111.524
20
382.524
30
0
40
1.700
0
CIRCLE
8
INTERIOR_PROFILES
10
1160.524
20
14.262
30
0
40
1.700
0
CIRCLE
8
INTERIOR_PROFILES
10
30.524
20
14.262
30
0
40
1.700
0
CIRCLE
8
INTERIOR_PROFILES
10
595.524
20
14.262
30
0
40
1.700
0
CIRCLE
8
INTERIOR_PROFILES
10
1114.524
20
14.262
30
0
40
1.700
0
TEXT
8
PART_LABELS
10
1788.500
20
220.500
30
0
40
50.000
1
2SDCN1-120040
72
1
73
2
11
1788.500
21
220.500
31
0
0
LWPOLYLINE
8
OUTER_PROFILES
90
36
70
1
10
2367.786
20
12.333
10
2367.786
20
16.191
10
2362.291
20
21.686
42
-0.414214
10
2362.291
20
23.100
10
2367.786
20
28.595
10
2384.048
20
28.595
10
2384.048
20
412.453
10
2367.786
20
412.453
10
2362.291
20
417.948
42
-0.414214
10
2362.291
20
419.362
10
2367.786
20
424.857
10
2367.786
20
428.715
10
2362.291
20
434.210
42
-0.414214
10
2362.291
20
435.624
10
2367.715
20
441.048
10
1209.333
20
441.048
10
1214.757
20
435.624
42
-0.414214
10
1214.757
20
434.210
10
1209.262
20
428.715
10
1209.262
20
424.857
10
1214.757
20
419.362
42
-0.414214
10
1214.757
20
417.948
10
1209.262
20
412.453
10
1193.000
20
412.453
10
1193.000
20
28.595
10
1209.262
20
28.595
10
1214.757
20
23.100
42
-0.414214
10
1214.757
20
21.686
10
1209.262
20
16.191
10
1209.262
20
12.333
10
1214.757
20
6.838
42
-0.414214
10
1214.757
20
5.424
10
1209.333
20
0.000
10
2367.715
20
0.000
10
2362.291
20
5.424
42
-0.414214
10
2362.291
20
6.838
0
CIRCLE
8
INTERIOR_PROFILES
10
1988.524
20
62.524
30
0
40
2.117
0
CIRCLE
8
INTERIOR_PROFILES
10
1588.524
20
62.524
30
0
40
2.117
0
CIRCLE
8
INTERIOR_PROFILES
10
1438.524
20
62.524
30
0
40
2.117
0
CIRCLE
8
INTERIOR_PROFILES
10
1338.524
20
350.524
30
0
40
2.117
0
CIRCLE
8
INTERIOR_PROFILES
10
1207.262
20
387.524
30
0
40
1.700
0
CIRCLE
8
INTERIOR_PROFILES
10
1207.262
20
397.274
30
0
40
6.500
0
CIRCLE
8
INTERIOR_PROFILES
10
1207.262
20
407.024
30
0
40
1.700
0
CIRCLE
8
INTERIOR_PROFILES
10
1207.262
20
34.024
30
0
40
1.700
0
CIRCLE
8
INTERIOR_PROFILES
10
2138.524
20
350.524
30
0
40
2.117
0
CIRCLE
8
INTERIOR_PROFILES
10
2088.524
20
350.524
30
0
40
2.117
0
CIRCLE
8
INTERIOR_PROFILES
10
1488.524
20
62.524
30
0
40
2.117
0
CIRCLE
8
INTERIOR_PROFILES
10
1788.524
20
62.524
30
0
40
2.117
0
CIRCLE
8
INTERIOR_PROFILES
10
1538.524
20
350.524
30
0
40
2.117
0
CIRCLE
8
INTERIOR_PROFILES
10
2138.524
20
62.524
30
0
40
2.117
0
CIRCLE
8
INTERIOR_PROFILES
10
1207.262
20
53.524
30
0
40
1.700
0
CIRCLE
8
INTERIOR_PROFILES
10
2288.524
20
350.524
30
0
40
2.117
0
CIRCLE
8
INTERIOR_PROFILES
10
2188.524
20
350.524
30
0
40
2.117
0
CIRCLE
8
INTERIOR_PROFILES
10
1588.524
20
350.524
30
0
40
2.117
0
CIRCLE
8
INTERIOR_PROFILES
10
1288.524
20
62.524
30
0
40
2.117
0
CIRCLE
8
INTERIOR_PROFILES
10
1988.524
20
350.524
30
0
40
2.117
0
CIRCLE
8
INTERIOR_PROFILES
10
1338.524
20
62.524
30
0
40
2.117
0
CIRCLE
8
INTERIOR_PROFILES
10
1438.524
20
350.524
30
0
40
2.117
0
CIRCLE
8
INTERIOR_PROFILES
10
1888.524
20
350.524
30
0
40
2.117
0
CIRCLE
8
INTERIOR_PROFILES
10
1207.262
20
220.524
30
0
40
1.700
0
CIRCLE
8
INTERIOR_PROFILES
10
2188.524
20
62.524
30
0
40
2.117
0
CIRCLE
8
INTERIOR_PROFILES
10
1738.524
20
62.524
30
0
40
2.117
0
CIRCLE
8
INTERIOR_PROFILES
10
1738.524
20
350.524
30
0
40
2.117
0
CIRCLE
8
INTERIOR_PROFILES
10
1638.524
20
62.524
30
0
40
2.117
0
CIRCLE
8
INTERIOR_PROFILES
10
1388.524
20
350.524
30
0
40
2.117
0
CIRCLE
8
INTERIOR_PROFILES
10
1538.524
20
62.524
30
0
40
2.117
0
CIRCLE
8
INTERIOR_PROFILES
10
1388.524
20
62.524
30
0
40
2.117
0
CIRCLE
8
INTERIOR_PROFILES
10
1488.524
20
350.524
30
0
40
2.117
0
CIRCLE
8
INTERIOR_PROFILES
10
1638.524
20
350.524
30
0
40
2.117
0
CIRCLE
8
INTERIOR_PROFILES
10
1688.524
20
62.524
30
0
40
2.117
0
CIRCLE
8
INTERIOR_PROFILES
10
1838.524
20
62.524
30
0
40
2.117
0
CIRCLE
8
INTERIOR_PROFILES
10
1888.524
20
62.524
30
0
40
2.117
0
CIRCLE
8
INTERIOR_PROFILES
10
1938.524
20
350.524
30
0
40
2.117
0
CIRCLE
8
INTERIOR_PROFILES
10
1838.524
20
350.524
30
0
40
2.117
0
CIRCLE
8
INTERIOR_PROFILES
10
2038.524
20
62.524
30
0
40
2.117
0
CIRCLE
8
INTERIOR_PROFILES
10
1788.524
20
350.524
30
0
40
2.117
0
CIRCLE
8
INTERIOR_PROFILES
10
2038.524
20
350.524
30
0
40
2.117
0
CIRCLE
8
INTERIOR_PROFILES
10
1288.524
20
350.524
30
0
40
2.117
0
CIRCLE
8
INTERIOR_PROFILES
10
1938.524
20
62.524
30
0
40
2.117
0
CIRCLE
8
INTERIOR_PROFILES
10
2088.524
20
62.524
30
0
40
2.117
0
CIRCLE
8
INTERIOR_PROFILES
10
2238.524
20
62.524
30
0
40
2.117
0
CIRCLE
8
INTERIOR_PROFILES
10
2238.524
20
350.524
30
0
40
2.117
0
CIRCLE
8
INTERIOR_PROFILES
10
1688.524
20
350.524
30
0
40
2.117
0
CIRCLE
8
INTERIOR_PROFILES
10
1240.524
20
30.524
30
0
40
1.700
0
CIRCLE
8
INTERIOR_PROFILES
10
2288.524
20
62.524
30
0
40
2.117
0
CIRCLE
8
INTERIOR_PROFILES
10
1272.524
20
382.524
30
0
40
1.700
0
CIRCLE
8
INTERIOR_PROFILES
10
1288.524
20
410.524
30
0
40
1.700
0
CIRCLE
8
INTERIOR_PROFILES
10
2356.524
20
30.524
30
0
40
1.700
0
CIRCLE
8
INTERIOR_PROFILES
10
1804.524
20
382.524
30
0
40
1.700
0
CIRCLE
8
INTERIOR_PROFILES
10
2288.524
20
410.524
30
0
40
1.700
0
CIRCLE
8
INTERIOR_PROFILES
10
2288.524
20
55.524
30
0
40
1.700
0
CIRCLE
8
INTERIOR_PROFILES
10
2304.524
20
382.524
30
0
40
1.700
0
CIRCLE
8
INTERIOR_PROFILES
10
1788.524
20
55.524
30
0
40
1.700
0
CIRCLE
8
INTERIOR_PROFILES
10
2336.524
20
30.524
30
0
40
1.700
0
CIRCLE
8
INTERIOR_PROFILES
10
2369.786
20
220.524
30
0
40
1.700
0
CIRCLE
8
INTERIOR_PROFILES
10
1220.524
20
30.524
30
0
40
1.700
0
CIRCLE
8
INTERIOR_PROFILES
10
1772.524
20
382.524
30
0
40
1.700
0
CIRCLE
8
INTERIOR_PROFILES
10
1788.524
20
410.524
30
0
40
1.700
0
CIRCLE
8
INTERIOR_PROFILES
10
2369.786
20
407.024
30
0
40
1.700
0
CIRCLE
8
INTERIOR_PROFILES
10
2369.786
20
387.524
30
0
40
1.700
0
CIRCLE
8
INTERIOR_PROFILES
10
2369.786
20
53.524
30
0
40
1.700
0
CIRCLE
8
INTERIOR_PROFILES
10
2369.786
20
34.024
30
0
40
1.700
0
CIRCLE
8
INTERIOR_PROFILES
10
2369.786
20
397.274
30
0
40
6.500
0
CIRCLE
8
INTERIOR_PROFILES
10
1269.524
20
14.262
30
0
40
1.700
0
CIRCLE
8
INTERIOR_PROFILES
10
2272.524
20
382.524
30
0
40
1.700
0
CIRCLE
8
INTERIOR_PROFILES
10
1288.524
20
55.524
30
0
40
1.700
0
CIRCLE
8
INTERIOR_PROFILES
10
1304.524
20
382.524
30
0
40
1.700
0
CIRCLE
8
INTERIOR_PROFILES
10
2353.524
20
14.262
30
0
40
1.700
0
CIRCLE
8
INTERIOR_PROFILES
10
1223.524
20
14.262
30
0
40
1.700
0
CIRCLE
8
INTERIOR_PROFILES
10
1788.524
20
14.262
30
0
40
1.700
0
CIRCLE
8
INTERIOR_PROFILES
10
2307.524
20
14.262
30
0
40
1.700
0
TEXT
8
PART_LABELS
10
595.500
20
663.500
30
0
40
50.000
1
2SDCN1-120040
72
1
73
2
11
595.500
21
663.500
31
0
0
LWPOLYLINE
8
OUTER_PROFILES
90
36
70
1
10
1174.786
20
455.333
10
1174.786
20
459.191
10
1169.291
20
464.686
42
-0.414214
10
1169.291
20
466.100
10
1174.786
20
471.595
10
1191.048
20
471.595
10
1191.048
20
855.453
10
1174.786
20
855.453
10
1169.291
20
860.948
42
-0.414214
10
1169.291
20
862.362
10
1174.786
20
867.857
10
1174.786
20
871.715
10
1169.291
20
877.210
42
-0.414214
10
1169.291
20
878.624
10
1174.715
20
884.048
10
16.333
20
884.048
10
21.757
20
878.624
42
-0.414214
10
21.757
20
877.210
10
16.262
20
871.715
10
16.262
20
867.857
10
21.757
20
862.362
42
-0.414214
10
21.757
20
860.948
10
16.262
20
855.453
10
0.000
20
855.453
10
0.000
20
471.595
10
16.262
20
471.595
10
21.757
20
466.100
42
-0.414214
10
21.757
20
464.686
10
16.262
20
459.191
10
16.262
20
455.333
10
21.757
20
449.838
42
-0.414214
10
21.757
20
448.424
10
16.333
20
443.000
10
1174.715
20
443.000
10
1169.291
20
448.424
42
-0.414214
10
1169.291
20
449.838
0
CIRCLE
8
INTERIOR_PROFILES
10
795.524
20
505.524
30
0
40
2.117
0
CIRCLE
8
INTERIOR_PROFILES
10
395.524
20
505.524
30
0
40
2.117
0
CIRCLE
8
INTERIOR_PROFILES
10
245.524
20
505.524
30
0
40
2.117
0
CIRCLE
8
INTERIOR_PROFILES
10
145.524
20
793.524
30
0
40
2.117
0
CIRCLE
8
INTERIOR_PROFILES
10
14.262
20
830.524
30
0
40
1.700
0
CIRCLE
8
INTERIOR_PROFILES
10
14.262
20
840.274
30
0
40
6.500
0
CIRCLE
8
INTERIOR_PROFILES
10
14.262
20
850.024
30
0
40
1.700
0
CIRCLE
8
INTERIOR_PROFILES
10
14.262
20
477.024
30
0
40
1.700
0
CIRCLE
8
INTERIOR_PROFILES
10
945.524
20
793.524
30
0
40
2.117
0
CIRCLE
8
INTERIOR_PROFILES
10
895.524
20
793.524
30
0
40
2.117
0
CIRCLE
8
INTERIOR_PROFILES
10
295.524
20
505.524
30
0
40
2.117
0
CIRCLE
8
INTERIOR_PROFILES
10
595.524
20
505.524
30
0
40
2.117
0
CIRCLE
8
INTERIOR_PROFILES
10
345.524
20
793.524
30
0
40
2.117
0
CIRCLE
8
INTERIOR_PROFILES
10
945.524
20
505.524
30
0
40
2.117
0
CIRCLE
8
INTERIOR_PROFILES
10
14.262
20
496.524
30
0
40
1.700
0
CIRCLE
8
INTERIOR_PROFILES
10
1095.524
20
793.524
30
0
40
2.117
0
CIRCLE
8
INTERIOR_PROFILES
10
995.524
20
793.524
30
0
40
2.117
0
CIRCLE
8
INTERIOR_PROFILES
10
395.524
20
793.524
30
0
40
2.117
0
CIRCLE
8
INTERIOR_PROFILES
10
95.524
20
505.524
30
0
40
2.117
0
CIRCLE
8
INTERIOR_PROFILES
10
795.524
20
793.524
30
0
40
2.117
0
CIRCLE
8
INTERIOR_PROFILES
10
145.524
20
505.524
30
0
40
2.117
0
CIRCLE
8
INTERIOR_PROFILES
10
245.524
20
793.524
30
0
40
2.117
0
CIRCLE
8
INTERIOR_PROFILES
10
695.524
20
793.524
30
0
40
2.117
0
CIRCLE
8
INTERIOR_PROFILES
10
14.262
20
663.524
30
0
40
1.700
0
CIRCLE
8
INTERIOR_PROFILES
10
995.524
20
505.524
30
0
40
2.117
0
CIRCLE
8
INTERIOR_PROFILES
10
545.524
20
505.524
30
0
40
2.117
0
CIRCLE
8
INTERIOR_PROFILES
10
545.524
20
793.524
30
0
40
2.117
0
CIRCLE
8
INTERIOR_PROFILES
10
445.524
20
505.524
30
0
40
2.117
0
CIRCLE
8
INTERIOR_PROFILES
10
195.524
20
793.524
30
0
40
2.117
0
CIRCLE
8
INTERIOR_PROFILES
10
345.524
20
505.524
30
0
40
2.117
0
CIRCLE
8
INTERIOR_PROFILES
10
195.524
20
505.524
30
0
40
2.117
0
CIRCLE
8
INTERIOR_PROFILES
10
295.524
20
793.524
30
0
40
2.117
0
CIRCLE
8
INTERIOR_PROFILES
10
445.524
20
793.524
30
0
40
2.117
0
CIRCLE
8
INTERIOR_PROFILES
10
495.524
20
505.524
30
0
40
2.117
0
CIRCLE
8
INTERIOR_PROFILES
10
645.524
20
505.524
30
0
40
2.117
0
CIRCLE
8
INTERIOR_PROFILES
10
695.524
20
505.524
30
0
40
2.117
0
CIRCLE
8
INTERIOR_PROFILES
10
745.524
20
793.524
30
0
40
2.117
0
CIRCLE
8
INTERIOR_PROFILES
10
645.524
20
793.524
30
0
40
2.117
0
CIRCLE
8
INTERIOR_PROFILES
10
845.524
20
505.524
30
0
40
2.117
0
CIRCLE
8
INTERIOR_PROFILES
10
595.524
20
793.524
30
0
40
2.117
0
CIRCLE
8
INTERIOR_PROFILES
10
845.524
20
793.524
30
0
40
2.117
0
CIRCLE
8
INTERIOR_PROFILES
10
95.524
20
793.524
30
0
40
2.117
0
CIRCLE
8
INTERIOR_PROFILES
10
745.524
20
505.524
30
0
40
2.117
0
CIRCLE
8
INTERIOR_PROFILES
10
895.524
20
505.524
30
0
40
2.117
0
CIRCLE
8
INTERIOR_PROFILES
10
1045.524
20
505.524
30
0
40
2.117
0
CIRCLE
8
INTERIOR_PROFILES
10
1045.524
20
793.524
30
0
40
2.117
0
CIRCLE
8
INTERIOR_PROFILES
10
495.524
20
793.524
30
0
40
2.117
0
CIRCLE
8
INTERIOR_PROFILES
10
47.524
20
473.524
30
0
40
1.700
0
CIRCLE
8
INTERIOR_PROFILES
10
1095.524
20
505.524
30
0
40
2.117
0
CIRCLE
8
INTERIOR_PROFILES
10
79.524
20
825.524
30
0
40
1.700
0
CIRCLE
8
INTERIOR_PROFILES
10
95.524
20
853.524
30
0
40
1.700
0
CIRCLE
8
INTERIOR_PROFILES
10
1163.524
20
473.524
30
0
40
1.700
0
CIRCLE
8
INTERIOR_PROFILES
10
611.524
20
825.524
30
0
40
1.700
0
CIRCLE
8
INTERIOR_PROFILES
10
1095.524
20
853.524
30
0
40
1.700
0
CIRCLE
8
INTERIOR_PROFILES
10
1095.524
20
498.524
30
0
40
1.700
0
CIRCLE
8
INTERIOR_PROFILES
10
1111.524
20
825.524
30
0
40
1.700
0
CIRCLE
8
INTERIOR_PROFILES
10
595.524
20
498.524
30
0
40
1.700
0
CIRCLE
8
INTERIOR_PROFILES
10
1143.524
20
473.524
30
0
40
1.700
0
CIRCLE
8
INTERIOR_PROFILES
10
1176.786
20
663.524
30
0
40
1.700
0
CIRCLE
8
INTERIOR_PROFILES
10
27.524
20
473.524
30
0
40
1.700
0
CIRCLE
8
INTERIOR_PROFILES
10
579.524
20
825.524
30
0
40
1.700
0
CIRCLE
8
INTERIOR_PROFILES
10
595.524
20
853.524
30
0
40
1.700
0
CIRCLE
8
INTERIOR_PROFILES
10
1176.786
20
850.024
30
0
40
1.700
0
CIRCLE
8
INTERIOR_PROFILES
10
1176.786
20
830.524
30
0
40
1.700
0
CIRCLE
8
INTERIOR_PROFILES
10
1176.786
20
496.524
30
0
40
1.700
0
CIRCLE
8
INTERIOR_PROFILES
10
1176.786
20
477.024
30
0
40
1.700
0
CIRCLE
8
INTERIOR_PROFILES
10
1176.786
20
840.274
30
0
40
6.500
0
CIRCLE
8
INTERIOR_PROFILES
10
76.524
20
457.262
30
0
40
1.700
0
CIRCLE
8
INTERIOR_PROFILES
10
1079.524
20
825.524
30
0
40
1.700
0
CIRCLE
8
INTERIOR_PROFILES
10
95.524
20
498.524
30
0
40
1.700
0
CIRCLE
8
INTERIOR_PROFILES
10
111.524
20
825.524
30
0
40
1.700
0
CIRCLE
8
INTERIOR_PROFILES
10
1160.524
20
457.262
30
0
40
1.700
0
CIRCLE
8
INTERIOR_PROFILES
10
30.524
20
457.262
30
0
40
1.700
0
CIRCLE
8
INTERIOR_PROFILES
10
595.524
20
457.262
30
0
40
1.700
0
CIRCLE
8
INTERIOR_PROFILES
10
1114.524
20
457.262
30
0
40
1.700
0
TEXT
8
PART_LABELS
10
1788.500
20
663.500
30
0
40
50.000
1
2SDCN1-120040
72
1
73
2
11
1788.500
21
663.500
31
0
0
LWPOLYLINE
8
OUTER_PROFILES
90
36
70
1
10
2367.786
20
455.333
10
2367.786
20
459.191
10
2362.291
20
464.686
42
-0.414214
10
2362.291
20
466.100
10
2367.786
20
471.595
10
2384.048
20
471.595
10
2384.048
20
855.453
10
2367.786
20
855.453
10
2362.291
20
860.948
42
-0.414214
10
2362.291
20
862.362
10
2367.786
20
867.857
10
2367.786
20
871.715
10
2362.291
20
877.210
42
-0.414214
10
2362.291
20
878.624
10
2367.715
20
884.048
10
1209.333
20
884.048
10
1214.757
20
878.624
42
-0.414214
10
1214.757
20
877.210
10
1209.262
20
871.715
10
1209.262
20
867.857
10
1214.757
20
862.362
42
-0.414214
10
1214.757
20
860.948
10
1209.262
20
855.453
10
1193.000
20
855.453
10
1193.000
20
471.595
10
1209.262
20
471.595
10
1214.757
20
466.100
42
-0.414214
10
1214.757
20
464.686
10
1209.262
20
459.191
10
1209.262
20
455.333
10
1214.757
20
449.838
42
-0.414214
10
1214.757
20
448.424
10
1209.333
20
443.000
10
2367.715
20
443.000
10
2362.291
20
448.424
42
-0.414214
10
2362.291
20
449.838
0
CIRCLE
8
INTERIOR_PROFILES
10
1988.524
20
505.524
30
0
40
2.117
0
CIRCLE
8
INTERIOR_PROFILES
10
1588.524
20
505.524
30
0
40
2.117
0
CIRCLE
8
INTERIOR_PROFILES
10
1438.524
20
505.524
30
0
40
2.117
0
CIRCLE
8
INTERIOR_PROFILES
10
1338.524
20
793.524
30
0
40
2.117
0
CIRCLE
8
INTERIOR_PROFILES
10
1207.262
20
830.524
30
0
40
1.700
0
CIRCLE
8
INTERIOR_PROFILES
10
1207.262
20
840.274
30
0
40
6.500
0
CIRCLE
8
INTERIOR_PROFILES
10
1207.262
20
850.024
30
0
40
1.700
0
CIRCLE
8
INTERIOR_PROFILES
10
1207.262
20
477.024
30
0
40
1.700
0
CIRCLE
8
INTERIOR_PROFILES
10
2138.524
20
793.524
30
0
40
2.117
0
CIRCLE
8
INTERIOR_PROFILES
10
2088.524
20
793.524
30
0
40
2.117
0
CIRCLE
8
INTERIOR_PROFILES
10
1488.524
20
505.524
30
0
40
2.117
0
CIRCLE
8
INTERIOR_PROFILES
10
1788.524
20
505.524
30
0
40
2.117
0
CIRCLE
8
INTERIOR_PROFILES
10
1538.524
20
793.524
30
0
40
2.117
0
CIRCLE
8
INTERIOR_PROFILES
10
2138.524
20
505.524
30
0
40
2.117
0
CIRCLE
8
INTERIOR_PROFILES
10
1207.262
20
496.524
30
0
40
1.700
0
CIRCLE
8
INTERIOR_PROFILES
10
2288.524
20
793.524
30
0
40
2.117
0
CIRCLE
8
INTERIOR_PROFILES
10
2188.524
20
793.524
30
0
40
2.117
0
CIRCLE
8
INTERIOR_PROFILES
10
1588.524
20
793.524
30
0
40
2.117
0
CIRCLE
8
INTERIOR_PROFILES
10
1288.524
20
505.524
30
0
40
2.117
0
CIRCLE
8
INTERIOR_PROFILES
10
1988.524
20
793.524
30
0
40
2.117
0
CIRCLE
8
INTERIOR_PROFILES
10
1338.524
20
505.524
30
0
40
2.117
0
CIRCLE
8
INTERIOR_PROFILES
10
1438.524
20
793.524
30
0
40
2.117
0
CIRCLE
8
INTERIOR_PROFILES
10
1888.524
20
793.524
30
0
40
2.117
0
CIRCLE
8
INTERIOR_PROFILES
10
1207.262
20
663.524
30
0
40
1.700
0
CIRCLE
8
INTERIOR_PROFILES
10
2188.524
20
505.524
30
0
40
2.117
0
CIRCLE
8
INTERIOR_PROFILES
10
1738.524
20
505.524
30
0
40
2.117
0
CIRCLE
8
INTERIOR_PROFILES
10
1738.524
20
793.524
30
0
40
2.117
0
CIRCLE
8
INTERIOR_PROFILES
10
1638.524
20
505.524
30
0
40
2.117
0
CIRCLE
8
INTERIOR_PROFILES
10
1388.524
20
793.524
30
0
40
2.117
0
CIRCLE
8
INTERIOR_PROFILES
10
1538.524
20
505.524
30
0
40
2.117
0
CIRCLE
8
INTERIOR_PROFILES
10
1388.524
20
505.524
30
0
40
2.117
0
CIRCLE
8
INTERIOR_PROFILES
10
1488.524
20
793.524
30
0
40
2.117
0
CIRCLE
8
INTERIOR_PROFILES
10
1638.524
20
793.524
30
0
40
2.117
0
CIRCLE
8
INTERIOR_PROFILES
10
1688.524
20
505.524
30
0
40
2.117
0
CIRCLE
8
INTERIOR_PROFILES
10
1838.524
20
505.524
30
0
40
2.117
0
CIRCLE
8
INTERIOR_PROFILES
10
1888.524
20
505.524
30
0
40
2.117
0
CIRCLE
8
INTERIOR_PROFILES
10
1938.524
20
793.524
30
0
40
2.117
0
CIRCLE
8
INTERIOR_PROFILES
10
1838.524
20
793.524
30
0
40
2.117
0
CIRCLE
8
INTERIOR_PROFILES
10
2038.524
20
505.524
30
0
40
2.117
0
CIRCLE
8
INTERIOR_PROFILES
10
1788.524
20
793.524
30
0
40
2.117
0
CIRCLE
8
INTERIOR_PROFILES
10
2038.524
20
793.524
30
0
40
2.117
0
CIRCLE
8
INTERIOR_PROFILES
10
1288.524
20
793.524
30
0
40
2.117
0
CIRCLE
8
INTERIOR_PROFILES
10
1938.524
20
505.524
30
0
40
2.117
0
CIRCLE
8
INTERIOR_PROFILES
10
2088.524
20
505.524
30
0
40
2.117
0
CIRCLE
8
INTERIOR_PROFILES
10
2238.524
20
505.524
30
0
40
2.117
0
CIRCLE
8
INTERIOR_PROFILES
10
2238.524
20
793.524
30
0
40
2.117
0
CIRCLE
8
INTERIOR_PROFILES
10
1688.524
20
793.524
30
0
40
2.117
0
CIRCLE
8
INTERIOR_PROFILES
10
1240.524
20
473.524
30
0
40
1.700
0
CIRCLE
8
INTERIOR_PROFILES
10
2288.524
20
505.524
30
0
40
2.117
0
CIRCLE
8
INTERIOR_PROFILES
10
1272.524
20
825.524
30
0
40
1.700
0
CIRCLE
8
INTERIOR_PROFILES
10
1288.524
20
853.524
30
0
40
1.700
0
CIRCLE
8
INTERIOR_PROFILES
10
2356.524
20
473.524
30
0
40
1.700
0
CIRCLE
8
INTERIOR_PROFILES
10
1804.524
20
825.524
30
0
40
1.700
0
CIRCLE
8
INTERIOR_PROFILES
10
2288.524
20
853.524
30
0
40
1.700
0
CIRCLE
8
INTERIOR_PROFILES
10
2288.524
20
498.524
30
0
40
1.700
0
CIRCLE
8
INTERIOR_PROFILES
10
2304.524
20
825.524
30
0
40
1.700
0
CIRCLE
8
INTERIOR_PROFILES
10
1788.524
20
498.524
30
0
40
1.700
0
CIRCLE
8
INTERIOR_PROFILES
10
2336.524
20
473.524
30
0
40
1.700
0
CIRCLE
8
INTERIOR_PROFILES
10
2369.786
20
663.524
30
0
40
1.700
0
CIRCLE
8
INTERIOR_PROFILES
10
1220.524
20
473.524
30
0
40
1.700
0
CIRCLE
8
INTERIOR_PROFILES
10
1772.524
20
825.524
30
0
40
1.700
0
CIRCLE
8
INTERIOR_PROFILES
10
1788.524
20
853.524
30
0
40
1.700
0
CIRCLE
8
INTERIOR_PROFILES
10
2369.786
20
850.024
30
0
40
1.700
0
CIRCLE
8
INTERIOR_PROFILES
10
2369.786
20
830.524
30
0
40
1.700
0
CIRCLE
8
INTERIOR_PROFILES
10
2369.786
20
496.524
30
0
40
1.700
0
CIRCLE
8
INTERIOR_PROFILES
10
2369.786
20
477.024
30
0
40
1.700
0
CIRCLE
8
INTERIOR_PROFILES
10
2369.786
20
840.274
30
0
40
6.500
0
CIRCLE
8
INTERIOR_PROFILES
10
1269.524
20
457.262
30
0
40
1.700
0
CIRCLE
8
INTERIOR_PROFILES
10
2272.524
20
825.524
30
0
40
1.700
0
CIRCLE
8
INTERIOR_PROFILES
10
1288.524
20
498.524
30
0
40
1.700
0
CIRCLE
8
INTERIOR_PROFILES
10
1304.524
20
825.524
30
0
40
1.700
0
CIRCLE
8
INTERIOR_PROFILES
10
2353.524
20
457.262
30
0
40
1.700
0
CIRCLE
8
INTERIOR_PROFILES
10
1223.524
20
457.262
30
0
40
1.700
0
CIRCLE
8
INTERIOR_PROFILES
10
1788.524
20
457.262
30
0
40
1.700
0
CIRCLE
8
INTERIOR_PROFILES
10
2307.524
20
457.262
30
0
40
1.700
0
TEXT
8
PART_LABELS
10
595.500
20
1106.500
30
0
40
50.000
1
2SDCN1-120040
72
1
73
2
11
595.500
21
1106.500
31
0
0
LWPOLYLINE
8
OUTER_PROFILES
90
36
70
1
10
1174.786
20
898.333
10
1174.786
20
902.191
10
1169.291
20
907.686
42
-0.414214
10
1169.291
20
909.100
10
1174.786
20
914.595
10
1191.048
20
914.595
10
1191.048
20
1298.453
10
1174.786
20
1298.453
10
1169.291
20
1303.948
42
-0.414214
10
1169.291
20
1305.362
10
1174.786
20
1310.857
10
1174.786
20
1314.715
10
1169.291
20
1320.210
42
-0.414214
10
1169.291
20
1321.624
10
1174.715
20
1327.048
10
16.333
20
1327.048
10
21.757
20
1321.624
42
-0.414214
10
21.757
20
1320.210
10
16.262
20
1314.715
10
16.262
20
1310.857
10
21.757
20
1305.362
42
-0.414214
10
21.757
20
1303.948
10
16.262
20
1298.453
10
0.000
20
1298.453
10
0.000
20
914.595
10
16.262
20
914.595
10
21.757
20
909.100
42
-0.414214
10
21.757
20
907.686
10
16.262
20
902.191
10
16.262
20
898.333
10
21.757
20
892.838
42
-0.414214
10
21.757
20
891.424
10
16.333
20
886.000
10
1174.715
20
886.000
10
1169.291
20
891.424
42
-0.414214
10
1169.291
20
892.838
0
CIRCLE
8
INTERIOR_PROFILES
10
795.524
20
948.524
30
0
40
2.117
0
CIRCLE
8
INTERIOR_PROFILES
10
395.524
20
948.524
30
0
40
2.117
0
CIRCLE
8
INTERIOR_PROFILES
10
245.524
20
948.524
30
0
40
2.117
0
CIRCLE
8
INTERIOR_PROFILES
10
145.524
20
1236.524
30
0
40
2.117
0
CIRCLE
8
INTERIOR_PROFILES
10
14.262
20
1273.524
30
0
40
1.700
0
CIRCLE
8
INTERIOR_PROFILES
10
14.262
20
1283.274
30
0
40
6.500
0
CIRCLE
8
INTERIOR_PROFILES
10
14.262
20
1293.024
30
0
40
1.700
0
CIRCLE
8
INTERIOR_PROFILES
10
14.262
20
920.024
30
0
40
1.700
0
CIRCLE
8
INTERIOR_PROFILES
10
945.524
20
1236.524
30
0
40
2.117
0
CIRCLE
8
INTERIOR_PROFILES
10
895.524
20
1236.524
30
0
40
2.117
0
CIRCLE
8
INTERIOR_PROFILES
10
295.524
20
948.524
30
0
40
2.117
0
CIRCLE
8
INTERIOR_PROFILES
10
595.524
20
948.524
30
0
40
2.117
0
CIRCLE
8
INTERIOR_PROFILES
10
345.524
20
1236.524
30
0
40
2.117
0
CIRCLE
8
INTERIOR_PROFILES
10
945.524
20
948.524
30
0
40
2.117
0
CIRCLE
8
INTERIOR_PROFILES
10
14.262
20
939.524
30
0
40
1.700
0
CIRCLE
8
INTERIOR_PROFILES
10
1095.524
20
1236.524
30
0
40
2.117
0
CIRCLE
8
INTERIOR_PROFILES
10
995.524
20
1236.524
30
0
40
2.117
0
CIRCLE
8
INTERIOR_PROFILES
10
395.524
20
1236.524
30
0
40
2.117
0
CIRCLE
8
INTERIOR_PROFILES
10
95.524
20
948.524
30
0
40
2.117
0
CIRCLE
8
INTERIOR_PROFILES
10
795.524
20
1236.524
30
0
40
2.117
0
CIRCLE
8
INTERIOR_PROFILES
10
145.524
20
948.524
30
0
40
2.117
0
CIRCLE
8
INTERIOR_PROFILES
10
245.524
20
1236.524
30
0
40
2.117
0
CIRCLE
8
INTERIOR_PROFILES
10
695.524
20
1236.524
30
0
40
2.117
0
CIRCLE
8
INTERIOR_PROFILES
10
14.262
20
1106.524
30
0
40
1.700
0
CIRCLE
8
INTERIOR_PROFILES
10
995.524
20
948.524
30
0
40
2.117
0
CIRCLE
8
INTERIOR_PROFILES
10
545.524
20
948.524
30
0
40
2.117
0
CIRCLE
8
INTERIOR_PROFILES
10
545.524
20
1236.524
30
0
40
2.117
0
CIRCLE
8
INTERIOR_PROFILES
10
445.524
20
948.524
30
0
40
2.117
0
CIRCLE
8
INTERIOR_PROFILES
10
195.524
20
1236.524
30
0
40
2.117
0
CIRCLE
8
INTERIOR_PROFILES
10
345.524
20
948.524
30
0
40
2.117
0
CIRCLE
8
INTERIOR_PROFILES
10
195.524
20
948.524
30
0
40
2.117
0
CIRCLE
8
INTERIOR_PROFILES
10
295.524
20
1236.524
30
0
40
2.117
0
CIRCLE
8
INTERIOR_PROFILES
10
445.524
20
1236.524
30
0
40
2.117
0
CIRCLE
8
INTERIOR_PROFILES
10
495.524
20
948.524
30
0
40
2.117
0
CIRCLE
8
INTERIOR_PROFILES
10
645.524
20
948.524
30
0
40
2.117
0
CIRCLE
8
INTERIOR_PROFILES
10
695.524
20
948.524
30
0
40
2.117
0
CIRCLE
8
INTERIOR_PROFILES
10
745.524
20
1236.524
30
0
40
2.117
0
CIRCLE
8
INTERIOR_PROFILES
10
645.524
20
1236.524
30
0
40
2.117
0
CIRCLE
8
INTERIOR_PROFILES
10
845.524
20
948.524
30
0
40
2.117
0
CIRCLE
8
INTERIOR_PROFILES
10
595.524
20
1236.524
30
0
40
2.117
0
CIRCLE
8
INTERIOR_PROFILES
10
845.524
20
1236.524
30
0
40
2.117
0
CIRCLE
8
INTERIOR_PROFILES
10
95.524
20
1236.524
30
0
40
2.117
0
CIRCLE
8
INTERIOR_PROFILES
10
745.524
20
948.524
30
0
40
2.117
0
CIRCLE
8
INTERIOR_PROFILES
10
895.524
20
948.524
30
0
40
2.117
0
CIRCLE
8
INTERIOR_PROFILES
10
1045.524
20
948.524
30
0
40
2.117
0
CIRCLE
8
INTERIOR_PROFILES
10
1045.524
20
1236.524
30
0
40
2.117
0
CIRCLE
8
INTERIOR_PROFILES
10
495.524
20
1236.524
30
0
40
2.117
0
CIRCLE
8
INTERIOR_PROFILES
10
47.524
20
916.524
30
0
40
1.700
0
CIRCLE
8
INTERIOR_PROFILES
10
1095.524
20
948.524
30
0
40
2.117
0
CIRCLE
8
INTERIOR_PROFILES
10
79.524
20
1268.524
30
0
40
1.700
0
CIRCLE
8
INTERIOR_PROFILES
10
95.524
20
1296.524
30
0
40
1.700
0
CIRCLE
8
INTERIOR_PROFILES
10
1163.524
20
916.524
30
0
40
1.700
0
CIRCLE
8
INTERIOR_PROFILES
10
611.524
20
1268.524
30
0
40
1.700
0
CIRCLE
8
INTERIOR_PROFILES
10
1095.524
20
1296.524
30
0
40
1.700
0
CIRCLE
8
INTERIOR_PROFILES
10
1095.524
20
941.524
30
0
40
1.700
0
CIRCLE
8
INTERIOR_PROFILES
10
1111.524
20
1268.524
30
0
40
1.700
0
CIRCLE
8
INTERIOR_PROFILES
10
595.524
20
941.524
30
0
40
1.700
0
CIRCLE
8
INTERIOR_PROFILES
10
1143.524
20
916.524
30
0
40
1.700
0
CIRCLE
8
INTERIOR_PROFILES
10
1176.786
20
1106.524
30
0
40
1.700
0
CIRCLE
8
INTERIOR_PROFILES
10
27.524
20
916.524
30
0
40
1.700
0
CIRCLE
8
INTERIOR_PROFILES
10
579.524
20
1268.524
30
0
40
1.700
0
CIRCLE
8
INTERIOR_PROFILES
10
595.524
20
1296.524
30
0
40
1.700
0
CIRCLE
8
INTERIOR_PROFILES
10
1176.786
20
1293.024
30
0
40
1.700
0
CIRCLE
8
INTERIOR_PROFILES
10
1176.786
20
1273.524
30
0
40
1.700
0
CIRCLE
8
INTERIOR_PROFILES
10
1176.786
20
939.524
30
0
40
1.700
0
CIRCLE
8
INTERIOR_PROFILES
10
1176.786
20
920.024
30
0
40
1.700
0
CIRCLE
8
INTERIOR_PROFILES
10
1176.786
20
1283.274
30
0
40
6.500
0
CIRCLE
8
INTERIOR_PROFILES
10
76.524
20
900.262
30
0
40
1.700
0
CIRCLE
8
INTERIOR_PROFILES
10
1079.524
20
1268.524
30
0
40
1.700
0
CIRCLE
8
INTERIOR_PROFILES
10
95.524
20
941.524
30
0
40
1.700
0
CIRCLE
8
INTERIOR_PROFILES
10
111.524
20
1268.524
30
0
40
1.700
0
CIRCLE
8
INTERIOR_PROFILES
10
1160.524
20
900.262
30
0
40
1.700
0
CIRCLE
8
INTERIOR_PROFILES
10
30.524
20
900.262
30
0
40
1.700
0
CIRCLE
8
INTERIOR_PROFILES
10
595.524
20
900.262
30
0
40
1.700
0
CIRCLE
8
INTERIOR_PROFILES
10
1114.524
20
900.262
30
0
40
1.700
0
TEXT
8
PART_LABELS
10
1788.500
20
1106.500
30
0
40
50.000
1
2SDCN1-120040
72
1
73
2
11
1788.500
21
1106.500
31
0
0
LWPOLYLINE
8
OUTER_PROFILES
90
36
70
1
10
2367.786
20
898.333
10
2367.786
20
902.191
10
2362.291
20
907.686
42
-0.414214
10
2362.291
20
909.100
10
2367.786
20
914.595
10
2384.048
20
914.595
10
2384.048
20
1298.453
10
2367.786
20
1298.453
10
2362.291
20
1303.948
42
-0.414214
10
2362.291
20
1305.362
10
2367.786
20
1310.857
10
2367.786
20
1314.715
10
2362.291
20
1320.210
42
-0.414214
10
2362.291
20
1321.624
10
2367.715
20
1327.048
10
1209.333
20
1327.048
10
1214.757
20
1321.624
42
-0.414214
10
1214.757
20
1320.210
10
1209.262
20
1314.715
10
1209.262
20
1310.857
10
1214.757
20
1305.362
42
-0.414214
10
1214.757
20
1303.948
10
1209.262
20
1298.453
10
1193.000
20
1298.453
10
1193.000
20
914.595
10
1209.262
20
914.595
10
1214.757
20
909.100
42
-0.414214
10
1214.757
20
907.686
10
1209.262
20
902.191
10
1209.262
20
898.333
10
1214.757
20
892.838
42
-0.414214
10
1214.757
20
891.424
10
1209.333
20
886.000
10
2367.715
20
886.000
10
2362.291
20
891.424
42
-0.414214
10
2362.291
20
892.838
0
CIRCLE
8
INTERIOR_PROFILES
10
1988.524
20
948.524
30
0
40
2.117
0
CIRCLE
8
INTERIOR_PROFILES
10
1588.524
20
948.524
30
0
40
2.117
0
CIRCLE
8
INTERIOR_PROFILES
10
1438.524
20
948.524
30
0
40
2.117
0
CIRCLE
8
INTERIOR_PROFILES
10
1338.524
20
1236.524
30
0
40
2.117
0
CIRCLE
8
INTERIOR_PROFILES
10
1207.262
20
1273.524
30
0
40
1.700
0
CIRCLE
8
INTERIOR_PROFILES
10
1207.262
20
1283.274
30
0
40
6.500
0
CIRCLE
8
INTERIOR_PROFILES
10
1207.262
20
1293.024
30
0
40
1.700
0
CIRCLE
8
INTERIOR_PROFILES
10
1207.262
20
920.024
30
0
40
1.700
0
CIRCLE
8
INTERIOR_PROFILES
10
2138.524
20
1236.524
30
0
40
2.117
0
CIRCLE
8
INTERIOR_PROFILES
10
2088.524
20
1236.524
30
0
40
2.117
0
CIRCLE
8
INTERIOR_PROFILES
10
1488.524
20
948.524
30
0
40
2.117
0
CIRCLE
8
INTERIOR_PROFILES
10
1788.524
20
948.524
30
0
40
2.117
0
CIRCLE
8
INTERIOR_PROFILES
10
1538.524
20
1236.524
30
0
40
2.117
0
CIRCLE
8
INTERIOR_PROFILES
10
2138.524
20
948.524
30
0
40
2.117
0
CIRCLE
8
INTERIOR_PROFILES
10
1207.262
20
939.524
30
0
40
1.700
0
CIRCLE
8
INTERIOR_PROFILES
10
2288.524
20
1236.524
30
0
40
2.117
0
CIRCLE
8
INTERIOR_PROFILES
10
2188.524
20
1236.524
30
0
40
2.117
0
CIRCLE
8
INTERIOR_PROFILES
10
1588.524
20
1236.524
30
0
40
2.117
0
CIRCLE
8
INTERIOR_PROFILES
10
1288.524
20
948.524
30
0
40
2.117
0
CIRCLE
8
INTERIOR_PROFILES
10
1988.524
20
1236.524
30
0
40
2.117
0
CIRCLE
8
INTERIOR_PROFILES
10
1338.524
20
948.524
30
0
40
2.117
0
CIRCLE
8
INTERIOR_PROFILES
10
1438.524
20
1236.524
30
0
40
2.117
0
CIRCLE
8
INTERIOR_PROFILES
10
1888.524
20
1236.524
30
0
40
2.117
0
CIRCLE
8
INTERIOR_PROFILES
10
1207.262
20
1106.524
30
0
40
1.700
0
CIRCLE
8
INTERIOR_PROFILES
10
2188.524
20
948.524
30
0
40
2.117
0
CIRCLE
8
INTERIOR_PROFILES
10
1738.524
20
948.524
30
0
40
2.117
0
CIRCLE
8
INTERIOR_PROFILES
10
1738.524
20
1236.524
30
0
40
2.117
0
CIRCLE
8
INTERIOR_PROFILES
10
1638.524
20
948.524
30
0
40
2.117
0
CIRCLE
8
INTERIOR_PROFILES
10
1388.524
20
1236.524
30
0
40
2.117
0
CIRCLE
8
INTERIOR_PROFILES
10
1538.524
20
948.524
30
0
40
2.117
0
CIRCLE
8
INTERIOR_PROFILES
10
1388.524
20
948.524
30
0
40
2.117
0
CIRCLE
8
INTERIOR_PROFILES
10
1488.524
20
1236.524
30
0
40
2.117
0
CIRCLE
8
INTERIOR_PROFILES
10
1638.524
20
1236.524
30
0
40
2.117
0
CIRCLE
8
INTERIOR_PROFILES
10
1688.524
20
948.524
30
0
40
2.117
0
CIRCLE
8
INTERIOR_PROFILES
10
1838.524
20
948.524
30
0
40
2.117
0
CIRCLE
8
INTERIOR_PROFILES
10
1888.524
20
948.524
30
0
40
2.117
0
CIRCLE
8
INTERIOR_PROFILES
10
1938.524
20
1236.524
30
0
40
2.117
0
CIRCLE
8
INTERIOR_PROFILES
10
1838.524
20
1236.524
30
0
40
2.117
0
CIRCLE
8
INTERIOR_PROFILES
10
2038.524
20
948.524
30
0
40
2.117
0
CIRCLE
8
INTERIOR_PROFILES
10
1788.524
20
1236.524
30
0
40
2.117
0
CIRCLE
8
INTERIOR_PROFILES
10
2038.524
20
1236.524
30
0
40
2.117
0
CIRCLE
8
INTERIOR_PROFILES
10
1288.524
20
1236.524
30
0
40
2.117
0
CIRCLE
8
INTERIOR_PROFILES
10
1938.524
20
948.524
30
0
40
2.117
0
CIRCLE
8
INTERIOR_PROFILES
10
2088.524
20
948.524
30
0
40
2.117
0
CIRCLE
8
INTERIOR_PROFILES
10
2238.524
20
948.524
30
0
40
2.117
0
CIRCLE
8
INTERIOR_PROFILES
10
2238.524
20
1236.524
30
0
40
2.117
0
CIRCLE
8
INTERIOR_PROFILES
10
1688.524
20
1236.524
30
0
40
2.117
0
CIRCLE
8
INTERIOR_PROFILES
10
1240.524
20
916.524
30
0
40
1.700
0
CIRCLE
8
INTERIOR_PROFILES
10
2288.524
20
948.524
30
0
40
2.117
0
CIRCLE
8
INTERIOR_PROFILES
10
1272.524
20
1268.524
30
0
40
1.700
0
CIRCLE
8
INTERIOR_PROFILES
10
1288.524
20
1296.524
30
0
40
1.700
0
CIRCLE
8
INTERIOR_PROFILES
10
2356.524
20
916.524
30
0
40
1.700
0
CIRCLE
8
INTERIOR_PROFILES
10
1804.524
20
1268.524
30
0
40
1.700
0
CIRCLE
8
INTERIOR_PROFILES
10
2288.524
20
1296.524
30
0
40
1.700
0
CIRCLE
8
INTERIOR_PROFILES
10
2288.524
20
941.524
30
0
40
1.700
0
CIRCLE
8
INTERIOR_PROFILES
10
2304.524
20
1268.524
30
0
40
1.700
0
CIRCLE
8
INTERIOR_PROFILES
10
1788.524
20
941.524
30
0
40
1.700
0
CIRCLE
8
INTERIOR_PROFILES
10
2336.524
20
916.524
30
0
40
1.700
0
CIRCLE
8
INTERIOR_PROFILES
10
2369.786
20
1106.524
30
0
40
1.700
0
CIRCLE
8
INTERIOR_PROFILES
10
1220.524
20
916.524
30
0
40
1.700
0
CIRCLE
8
INTERIOR_PROFILES
10
1772.524
20
1268.524
30
0
40
1.700
0
CIRCLE
8
INTERIOR_PROFILES
10
1788.524
20
1296.524
30
0
40
1.700
0
CIRCLE
8
INTERIOR_PROFILES
10
2369.786
20
1293.024
30
0
40
1.700
0
CIRCLE
8
INTERIOR_PROFILES
10
2369.786
20
1273.524
30
0
40
1.700
0
CIRCLE
8
INTERIOR_PROFILES
10
2369.786
20
939.524
30
0
40
1.700
0
CIRCLE
8
INTERIOR_PROFILES
10
2369.786
20
920.024
30
0
40
1.700
0
CIRCLE
8
INTERIOR_PROFILES
10
2369.786
20
1283.274
30
0
40
6.500
0
CIRCLE
8
INTERIOR_PROFILES
10
1269.524
20
900.262
30
0
40
1.700
0
CIRCLE
8
INTERIOR_PROFILES
10
2272.524
20
1268.524
30
0
40
1.700
0
CIRCLE
8
INTERIOR_PROFILES
10
1288.524
20
941.524
30
0
40
1.700
0
CIRCLE
8
INTERIOR_PROFILES
10
1304.524
20
1268.524
30
0
40
1.700
0
CIRCLE
8
INTERIOR_PROFILES
10
2353.524
20
900.262
30
0
40
1.700
0
CIRCLE
8
INTERIOR_PROFILES
10
1223.524
20
900.262
30
0
40
1.700
0
CIRCLE
8
INTERIOR_PROFILES
10
1788.524
20
900.262
30
0
40
1.700
0
CIRCLE
8
INTERIOR_PROFILES
10
2307.524
20
900.262
30
0
40
1.700
0
TEXT
8
PART_LABELS
10
2702.500
20
241.500
30
0
40
50.000
1
2UP000-060000
72
1
73
2
11
2702.500
21
241.500
31
0
0
LWPOLYLINE
8
OUTER_PROFILES
90
36
70
1
10
3000.262
20
23.524
42
-1.000000
10
3000.262
20
42.524
10
3000.262
20
44.786
10
3000.262
20
51.786
10
3000.262
20
54.048
10
3018.524
20
54.048
10
3018.524
20
383.714
10
3002.524
20
425.048
10
3000.262
20
425.048
10
3000.262
20
427.310
10
3000.262
20
449.310
10
3000.262
20
457.572
10
3000.262
20
467.834
10
3000.262
20
470.096
42
-0.414214
10
2993.762
20
476.596
10
2993.762
20
483.096
10
2410.762
20
483.096
10
2410.762
20
476.596
42
-0.414214
10
2404.262
20
470.096
10
2404.262
20
467.834
10
2404.262
20
457.572
10
2404.262
20
449.310
10
2404.262
20
427.310
10
2404.262
20
425.048
10
2402.000
20
425.048
10
2386.000
20
383.714
10
2386.000
20
54.048
10
2404.262
20
54.048
10
2404.262
20
51.786
10
2404.262
20
44.786
10
2404.262
20
42.524
42
-1.000000
10
2404.262
20
23.524
10
2404.262
20
10.262
10
2404.262
20
0.000
10
3000.262
20
0.000
10
3000.262
20
10.262
0
CIRCLE
8
INTERIOR_PROFILES
10
2483.262
20
442.310
30
0
40
1.700
0
CIRCLE
8
INTERIOR_PROFILES
10
2968.262
20
442.310
30
0
40
1.700
0
CIRCLE
8
INTERIOR_PROFILES
10
2602.262
20
418.048
30
0
40
1.700
0
CIRCLE
8
INTERIOR_PROFILES
10
2921.262
20
442.310
30
0
40
1.700
0
CIRCLE
8
INTERIOR_PROFILES
10
2802.262
20
418.048
30
0
40
1.700
0
CIRCLE
8
INTERIOR_PROFILES
10
2993.262
20
228.048
30
0
40
1.700
0
CIRCLE
8
INTERIOR_PROFILES
10
2993.262
20
442.310
30
0
40
1.700
0
CIRCLE
8
INTERIOR_PROFILES
10
2508.262
20
442.310
30
0
40
1.700
0
CIRCLE
8
INTERIOR_PROFILES
10
2502.262
20
418.048
30
0
40
1.700
0
CIRCLE
8
INTERIOR_PROFILES
10
2411.262
20
442.310
30
0
40
1.700
0
CIRCLE
8
INTERIOR_PROFILES
10
2702.262
20
418.048
30
0
40
1.700
0
CIRCLE
8
INTERIOR_PROFILES
10
2902.262
20
418.048
30
0
40
1.700
0
CIRCLE
8
INTERIOR_PROFILES
10
2802.262
20
33.024
30
0
40
1.700
0
CIRCLE
8
INTERIOR_PROFILES
10
2802.262
20
3.000
30
0
40
1.700
0
CIRCLE
8
INTERIOR_PROFILES
10
2411.262
20
395.048
30
0
40
1.700
0
CIRCLE
8
INTERIOR_PROFILES
10
2993.262
20
395.048
30
0
40
1.700
0
CIRCLE
8
INTERIOR_PROFILES
10
2896.262
20
442.310
30
0
40
1.700
0
CIRCLE
8
INTERIOR_PROFILES
10
2411.262
20
414.548
30
0
40
1.700
0
CIRCLE
8
INTERIOR_PROFILES
10
2602.262
20
33.024
30
0
40
1.700
0
CIRCLE
8
INTERIOR_PROFILES
10
2411.262
20
228.048
30
0
40
1.700
0
CIRCLE
8
INTERIOR_PROFILES
10
2502.262
20
33.024
30
0
40
1.700
0
CIRCLE
8
INTERIOR_PROFILES
10
2702.262
20
33.024
30
0
40
1.700
0
CIRCLE
8
INTERIOR_PROFILES
10
2902.262
20
33.024
30
0
40
1.700
0
CIRCLE
8
INTERIOR_PROFILES
10
2993.262
20
61.048
30
0
40
1.700
0
CIRCLE
8
INTERIOR_PROFILES
10
2902.262
20
480.096
30
0
40
1.700
0
CIRCLE
8
INTERIOR_PROFILES
10
2993.262
20
414.548
30
0
40
1.700
0
CIRCLE
8
INTERIOR_PROFILES
10
2436.262
20
442.310
30
0
40
1.700
0
CIRCLE
8
INTERIOR_PROFILES
10
2411.262
20
61.048
30
0
40
1.700
0
CIRCLE
8
INTERIOR_PROFILES
10
2462.262
20
442.310
30
0
40
1.700
0
CIRCLE
8
INTERIOR_PROFILES
10
2942.262
20
442.310
30
0
40
1.700
0
CIRCLE
8
INTERIOR_PROFILES
10
2502.262
20
3.000
30
0
40
1.700
0
CIRCLE
8
INTERIOR_PROFILES
10
2702.262
20
480.096
30
0
40
1.700
0
CIRCLE
8
INTERIOR_PROFILES
10
3015.524
20
370.548
30
0
40
1.700
0
CIRCLE
8
INTERIOR_PROFILES
10
2389.000
20
60.548
30
0
40
1.700
0
CIRCLE
8
INTERIOR_PROFILES
10
2502.262
20
480.096
30
0
40
1.700
0
CIRCLE
8
INTERIOR_PROFILES
10
2389.000
20
370.548
30
0
40
1.700
0
CIRCLE
8
INTERIOR_PROFILES
10
2602.262
20
3.000
30
0
40
1.700
0
CIRCLE
8
INTERIOR_PROFILES
10
2702.262
20
3.000
30
0
40
1.700
0
CIRCLE
8
INTERIOR_PROFILES
10
2389.000
20
215.548
30
0
40
1.700
0
CIRCLE
8
INTERIOR_PROFILES
10
2802.262
20
480.096
30
0
40
1.700
0
CIRCLE
8
INTERIOR_PROFILES
10
2602.262
20
480.096
30
0
40
1.700
0
CIRCLE
8
INTERIOR_PROFILES
10
3015.524
20
215.548
30
0
40
1.700
0
CIRCLE
8
INTERIOR_PROFILES
10
2902.262
20
3.000
30
0
40
1.700
0
CIRCLE
8
INTERIOR_PROFILES
10
3015.524
20
60.548
30
0
40
1.700
0
TEXT
8
PART_LABELS
10
2702.500
20
726.500
30
0
40
50.000
1
2UP000-060000
72
1
73
2
11
2702.500
21
726.500
31
0
0
LWPOLYLINE
8
OUTER_PROFILES
90
36
70
1
10
3000.262
20
508.524
42
-1.000000
10
3000.262
20
527.524
10
3000.262
20
529.786
10
3000.262
20
536.786
10
3000.262
20
539.048
10
3018.524
20
539.048
10
3018.524
20
868.714
10
3002.524
20
910.048
10
3000.262
20
910.048
10
3000.262
20
912.310
10
3000.262
20
934.310
10
3000.262
20
942.572
10
3000.262
20
952.834
10
3000.262
20
955.096
42
-0.414214
10
2993.762
20
961.596
10
2993.762
20
968.096
10
2410.762
20
968.096
10
2410.762
20
961.596
42
-0.414214
10
2404.262
20
955.096
10
2404.262
20
952.834
10
2404.262
20
942.572
10
2404.262
20
934.310
10
2404.262
20
912.310
10
2404.262
20
910.048
10
2402.000
20
910.048
10
2386.000
20
868.714
10
2386.000
20
539.048
10
2404.262
20
539.048
10
2404.262
20
536.786
10
2404.262
20
529.786
10
2404.262
20
527.524
42
-1.000000
10
2404.262
20
508.524
10
2404.262
20
495.262
10
2404.262
20
485.000
10
3000.262
20
485.000
10
3000.262
20
495.262
0
CIRCLE
8
INTERIOR_PROFILES
10
2483.262
20
927.310
30
0
40
1.700
0
CIRCLE
8
INTERIOR_PROFILES
10
2968.262
20
927.310
30
0
40
1.700
0
CIRCLE
8
INTERIOR_PROFILES
10
2602.262
20
903.048
30
0
40
1.700
0
CIRCLE
8
INTERIOR_PROFILES
10
2921.262
20
927.310
30
0
40
1.700
0
CIRCLE
8
INTERIOR_PROFILES
10
2802.262
20
903.048
30
0
40
1.700
0
CIRCLE
8
INTERIOR_PROFILES
10
2993.262
20
713.048
30
0
40
1.700
0
CIRCLE
8
INTERIOR_PROFILES
10
2993.262
20
927.310
30
0
40
1.700
0
CIRCLE
8
INTERIOR_PROFILES
10
2508.262
20
927.310
30
0
40
1.700
0
CIRCLE
8
INTERIOR_PROFILES
10
2502.262
20
903.048
30
0
40
1.700
0
CIRCLE
8
INTERIOR_PROFILES
10
2411.262
20
927.310
30
0
40
1.700
0
CIRCLE
8
INTERIOR_PROFILES
10
2702.262
20
903.048
30
0
40
1.700
0
CIRCLE
8
INTERIOR_PROFILES
10
2902.262
20
903.048
30
0
40
1.700
0
CIRCLE
8
INTERIOR_PROFILES
10
2802.262
20
518.024
30
0
40
1.700
0
CIRCLE
8
INTERIOR_PROFILES
10
2802.262
20
488.000
30
0
40
1.700
0
CIRCLE
8
INTERIOR_PROFILES
10
2411.262
20
880.048
30
0
40
1.700
0
CIRCLE
8
INTERIOR_PROFILES
10
2993.262
20
880.048
30
0
40
1.700
0
CIRCLE
8
INTERIOR_PROFILES
10
2896.262
20
927.310
30
0
40
1.700
0
CIRCLE
8
INTERIOR_PROFILES
10
2411.262
20
899.548
30
0
40
1.700
0
CIRCLE
8
INTERIOR_PROFILES
10
2602.262
20
518.024
30
0
40
1.700
0
CIRCLE
8
INTERIOR_PROFILES
10
2411.262
20
713.048
30
0
40
1.700
0
CIRCLE
8
INTERIOR_PROFILES
10
2502.262
20
518.024
30
0
40
1.700
0
CIRCLE
8
INTERIOR_PROFILES
10
2702.262
20
518.024
30
0
40
1.700
0
CIRCLE
8
INTERIOR_PROFILES
10
2902.262
20
518.024
30
0
40
1.700
0
CIRCLE
8
INTERIOR_PROFILES
10
2993.262
20
546.048
30
0
40
1.700
0
CIRCLE
8
INTERIOR_PROFILES
10
2902.262
20
965.096
30
0
40
1.700
0
CIRCLE
8
INTERIOR_PROFILES
10
2993.262
20
899.548
30
0
40
1.700
0
CIRCLE
8
INTERIOR_PROFILES
10
2436.262
20
927.310
30
0
40
1.700
0
CIRCLE
8
INTERIOR_PROFILES
10
2411.262
20
546.048
30
0
40
1.700
0
CIRCLE
8
INTERIOR_PROFILES
10
2462.262
20
927.310
30
0
40
1.700
0
CIRCLE
8
INTERIOR_PROFILES
10
2942.262
20
927.310
30
0
40
1.700
0
CIRCLE
8
INTERIOR_PROFILES
10
2502.262
20
488.000
30
0
40
1.700
0
CIRCLE
8
INTERIOR_PROFILES
10
2702.262
20
965.096
30
0
40
1.700
0
CIRCLE
8
INTERIOR_PROFILES
10
3015.524
20
855.548
30
0
40
1.700
0
CIRCLE
8
INTERIOR_PROFILES
10
2389.000
20
545.548
30
0
40
1.700
0
CIRCLE
8
INTERIOR_PROFILES
10
2502.262
20
965.096
30
0
40
1.700
0
CIRCLE
8
INTERIOR_PROFILES
10
2389.000
20
855.548
30
0
40
1.700
0
CIRCLE
8
INTERIOR_PROFILES
10
2602.262
20
488.000
30
0
40
1.700
0
CIRCLE
8
INTERIOR_PROFILES
10
2702.262
20
488.000
30
0
40
1.700
0
CIRCLE
8
INTERIOR_PROFILES
10
2389.000
20
700.548
30
0
40
1.700
0
CIRCLE
8
INTERIOR_PROFILES
10
2802.262
20
965.096
30
0
40
1.700
0
CIRCLE
8
INTERIOR_PROFILES
10
2602.262
20
965.096
30
0
40
1.700
0
CIRCLE
8
INTERIOR_PROFILES
10
3015.524
20
700.548
30
0
40
1.700
0
CIRCLE
8
INTERIOR_PROFILES
10
2902.262
20
488.000
30
0
40
1.700
0
CIRCLE
8
INTERIOR_PROFILES
10
3015.524
20
545.548
30
0
40
1.700
0
TEXT
8
PART_LABELS
10
2702.500
20
1211.500
30
0
40
50.000
1
2UP000-060000
72
1
73
2
11
2702.500
21
1211.500
31
0
0
LWPOLYLINE
8
OUTER_PROFILES
90
36
70
1
10
3000.262
20
993.524
42
-1.000000
10
3000.262
20
1012.524
10
3000.262
20
1014.786
10
3000.262
20
1021.786
10
3000.262
20
1024.048
10
3018.524
20
1024.048
10
3018.524
20
1353.714
10
3002.524
20
1395.048
10
3000.262
20
1395.048
10
3000.262
20
1397.310
10
3000.262
20
1419.310
10
3000.262
20
1427.572
10
3000.262
20
1437.834
10
3000.262
20
1440.096
42
-0.414214
10
2993.762
20
1446.596
10
2993.762
20
1453.096
10
2410.762
20
1453.096
10
2410.762
20
1446.596
42
-0.414214
10
2404.262
20
1440.096
10
2404.262
20
1437.834
10
2404.262
20
1427.572
10
2404.262
20
1419.310
10
2404.262
20
1397.310
10
2404.262
20
1395.048
10
2402.000
20
1395.048
10
2386.000
20
1353.714
10
2386.000
20
1024.048
10
2404.262
20
1024.048
10
2404.262
20
1021.786
10
2404.262
20
1014.786
10
2404.262
20
1012.524
42
-1.000000
10
2404.262
20
993.524
10
2404.262
20
980.262
10
2404.262
20
970.000
10
3000.262
20
970.000
10
3000.262
20
980.262
0
CIRCLE
8
INTERIOR_PROFILES
10
2483.262
20
1412.310
30
0
40
1.700
0
CIRCLE
8
INTERIOR_PROFILES
10
2968.262
20
1412.310
30
0
40
1.700
0
CIRCLE
8
INTERIOR_PROFILES
10
2602.262
20
1388.048
30
0
40
1.700
0
CIRCLE
8
INTERIOR_PROFILES
10
2921.262
20
1412.310
30
0
40
1.700
0
CIRCLE
8
INTERIOR_PROFILES
10
2802.262
20
1388.048
30
0
40
1.700
0
CIRCLE
8
INTERIOR_PROFILES
10
2993.262
20
1198.048
30
0
40
1.700
0
CIRCLE
8
INTERIOR_PROFILES
10
2993.262
20
1412.310
30
0
40
1.700
0
CIRCLE
8
INTERIOR_PROFILES
10
2508.262
20
1412.310
30
0
40
1.700
0
CIRCLE
8
INTERIOR_PROFILES
10
2502.262
20
1388.048
30
0
40
1.700
0
CIRCLE
8
INTERIOR_PROFILES
10
2411.262
20
1412.310
30
0
40
1.700
0
CIRCLE
8
INTERIOR_PROFILES
10
2702.262
20
1388.048
30
0
40
1.700
0
CIRCLE
8
INTERIOR_PROFILES
10
2902.262
20
1388.048
30
0
40
1.700
0
CIRCLE
8
INTERIOR_PROFILES
10
2802.262
20
1003.024
30
0
40
1.700
0
CIRCLE
8
INTERIOR_PROFILES
10
2802.262
20
973.000
30
0
40
1.700
0
CIRCLE
8
INTERIOR_PROFILES
10
2411.262
20
1365.048
30
0
40
1.700
0
CIRCLE
8
INTERIOR_PROFILES
10
2993.262
20
1365.048
30
0
40
1.700
0
CIRCLE
8
INTERIOR_PROFILES
10
2896.262
20
1412.310
30
0
40
1.700
0
CIRCLE
8
INTERIOR_PROFILES
10
2411.262
20
1384.548
30
0
40
1.700
0
CIRCLE
8
INTERIOR_PROFILES
10
2602.262
20
1003.024
30
0
40
1.700
0
CIRCLE
8
INTERIOR_PROFILES
10
2411.262
20
1198.048
30
0
40
1.700
0
CIRCLE
8
INTERIOR_PROFILES
10
2502.262
20
1003.024
30
0
40
1.700
0
CIRCLE
8
INTERIOR_PROFILES
10
2702.262
20
1003.024
30
0
40
1.700
0
CIRCLE
8
INTERIOR_PROFILES
10
2902.262
20
1003.024
30
0
40
1.700
0
CIRCLE
8
INTERIOR_PROFILES
10
2993.262
20
1031.048
30
0
40
1.700
0
CIRCLE
8
INTERIOR_PROFILES
10
2902.262
20
1450.096
30
0
40
1.700
0
CIRCLE
8
INTERIOR_PROFILES
10
2993.262
20
1384.548
30
0
40
1.700
0
CIRCLE
8
INTERIOR_PROFILES
10
2436.262
20
1412.310
30
0
40
1.700
0
CIRCLE
8
INTERIOR_PROFILES
10
2411.262
20
1031.048
30
0
40
1.700
0
CIRCLE
8
INTERIOR_PROFILES
10
2462.262
20
1412.310
30
0
40
1.700
0
CIRCLE
8
INTERIOR_PROFILES
10
2942.262
20
1412.310
30
0
40
1.700
0
CIRCLE
8
INTERIOR_PROFILES
10
2502.262
20
973.000
30
0
40
1.700
0
CIRCLE
8
INTERIOR_PROFILES
10
2702.262
20
1450.096
30
0
40
1.700
0
CIRCLE
8
INTERIOR_PROFILES
10
3015.524
20
1340.548
30
0
40
1.700
0
CIRCLE
8
INTERIOR_PROFILES
10
2389.000
20
1030.548
30
0
40
1.700
0
CIRCLE
8
INTERIOR_PROFILES
10
2502.262
20
1450.096
30
0
40
1.700
0
CIRCLE
8
INTERIOR_PROFILES
10
2389.000
20
1340.548
30
0
40
1.700
0
CIRCLE
8
INTERIOR_PROFILES
10
2602.262
20
973.000
30
0
40
1.700
0
CIRCLE
8
INTERIOR_PROFILES
10
2702.262
20
973.000
30
0
40
1.700
0
CIRCLE
8
INTERIOR_PROFILES
10
2389.000
20
1185.548
30
0
40
1.700
0
CIRCLE
8
INTERIOR_PROFILES
10
2802.262
20
1450.096
30
0
40
1.700
0
CIRCLE
8
INTERIOR_PROFILES
10
2602.262
20
1450.096
30
0
40
1.700
0
CIRCLE
8
INTERIOR_PROFILES
10
3015.524
20
1185.548
30
0
40
1.700
0
CIRCLE
8
INTERIOR_PROFILES
10
2902.262
20
973.000
30
0
40
1.700
0
CIRCLE
8
INTERIOR_PROFILES
10
3015.524
20
1030.548
30
0
40
1.700
0
ENDSEC
0
EOF