0
SECTION
2
HEADER
9
$INSUNITS
70
4
0
ENDSEC
0
SECTION
2
ENTITIES
0
LWPOLYLINE
8
SHEET_BORDER
90
5
70
1
10
0.000
20
0.000
10
3050.000
20
0.000
10
3050.000
20
1525.000
10
0.000
20
1525.000
10
0.000
20
0.000
0
TEXT
8
PART_LABELS
10
294.500
20
586.500
30
0
40
50.000
1
2BK001-060120
72
1
73
2
11
294.500
21
586.500
31
0
0
LINE
8
OUTER_PROFILES
10
581.738
20
1158.453
30
0
11
575.738
21
1158.453
31
0
0
ARC
8
OUTER_PROFILES
10
576.266
20
1154.201
30
0
40
4.285
50
97.0769
51
130.6233
0
LINE
8
OUTER_PROFILES
10
573.476
20
1157.453
30
0
11
573.405
21
1157.524
31
0
0
ARC
8
OUTER_PROFILES
10
570.153
20
1160.314
30
0
40
4.285
50
319.3767
51
352.9231
0
LINE
8
OUTER_PROFILES
10
574.405
20
1159.786
30
0
11
574.405
21
1165.786
31
0
0
ARC
8
OUTER_PROFILES
10
570.166
20
1165.264
30
0
40
4.272
50
7.0226
51
40.6776
0
LINE
8
OUTER_PROFILES
10
573.405
20
1168.048
30
0
11
568.405
21
1173.048
31
0
0
LINE
8
OUTER_PROFILES
10
568.405
20
1173.048
30
0
11
20.547
21
1173.048
31
0
0
LINE
8
OUTER_PROFILES
10
20.547
20
1173.048
30
0
11
15.547
21
1168.048
31
0
0
ARC
8
OUTER_PROFILES
10
18.786
20
1165.264
30
0
40
4.272
50
139.3224
51
172.9774
0
LINE
8
OUTER_PROFILES
10
14.547
20
1165.786
30
0
11
14.547
21
1159.786
31
0
0
ARC
8
OUTER_PROFILES
10
18.799
20
1160.314
30
0
40
4.285
50
187.0769
51
220.6233
0
LINE
8
OUTER_PROFILES
10
15.547
20
1157.524
30
0
11
15.476
21
1157.453
31
0
0
ARC
8
OUTER_PROFILES
10
12.686
20
1154.201
30
0
40
4.285
50
49.3767
51
82.9231
0
LINE
8
OUTER_PROFILES
10
13.214
20
1158.453
30
0
11
7.214
21
1158.453
31
0
0
ARC
8
OUTER_PROFILES
10
7.736
20
1154.214
30
0
40
4.272
50
97.0226
51
130.6776
0
LINE
8
OUTER_PROFILES
10
4.952
20
1157.453
30
0
11
-0.048
21
1152.453
31
0
0
LINE
8
OUTER_PROFILES
10
-0.048
20
1152.453
30
0
11
-0.048
21
20.595
31
0
0
LINE
8
OUTER_PROFILES
10
-0.048
20
20.595
30
0
11
4.952
21
15.595
31
0
0
ARC
8
OUTER_PROFILES
10
7.736
20
18.834
30
0
40
4.272
50
229.3224
51
262.9774
0
LINE
8
OUTER_PROFILES
10
7.214
20
14.595
30
0
11
13.214
21
14.595
31
0
0
ARC
8
OUTER_PROFILES
10
12.686
20
18.847
30
0
40
4.285
50
277.0769
51
310.6233
0
LINE
8
OUTER_PROFILES
10
15.476
20
15.595
30
0
11
15.547
21
15.524
31
0
0
ARC
8
OUTER_PROFILES
10
18.799
20
12.734
30
0
40
4.285
50
139.3767
51
172.9231
0
LINE
8
OUTER_PROFILES
10
14.547
20
13.262
30
0
11
14.547
21
7.262
31
0
0
ARC
8
OUTER_PROFILES
10
18.786
20
7.784
30
0
40
4.272
50
187.0226
51
220.6776
0
LINE
8
OUTER_PROFILES
10
15.547
20
5.000
30
0
11
20.547
21
0.000
31
0
0
LINE
8
OUTER_PROFILES
10
20.547
20
0.000
30
0
11
568.405
21
0.000
31
0
0
LINE
8
OUTER_PROFILES
10
568.405
20
0.000
30
0
11
573.405
21
5.000
31
0
0
ARC
8
OUTER_PROFILES
10
570.166
20
7.784
30
0
40
4.272
50
319.3224
51
352.9774
0
LINE
8
OUTER_PROFILES
10
574.405
20
7.262
30
0
11
574.405
21
13.262
31
0
0
ARC
8
OUTER_PROFILES
10
570.153
20
12.734
30
0
40
4.285
50
7.0769
51
40.6233
0
LINE
8
OUTER_PROFILES
10
573.405
20
15.524
30
0
11
573.476
21
15.595
31
0
0
ARC
8
OUTER_PROFILES
10
576.266
20
18.847
30
0
40
4.285
50
229.3767
51
262.9231
0
LINE
8
OUTER_PROFILES
10
575.738
20
14.595
30
0
11
581.738
21
14.595
31
0
0
ARC
8
OUTER_PROFILES
10
581.216
20
18.834
30
0
40
4.272
50
277.0226
51
310.6776
0
LINE
8
OUTER_PROFILES
10
584.000
20
15.595
30
0
11
589.000
21
20.595
31
0
0
LINE
8
OUTER_PROFILES
10
589.000
20
20.595
30
0
11
589.000
21
1152.453
31
0
0
LINE
8
OUTER_PROFILES
10
589.000
20
1152.453
30
0
11
584.000
21
1157.453
31
0
0
ARC
8
OUTER_PROFILES
10
581.216
20
1154.214
30
0
40
4.272
50
49.3224
51
82.9774
0
TEXT
8
PART_LABELS
10
1186.500
20
220.500
30
0
40
50.000
1
2SD0C1-120040
72
1
73
2
11
1186.500
21
220.500
31
0
0
LWPOLYLINE
8
OUTER_PROFILES
90
36
70
1
10
1760.291
20
5.424
10
1765.715
20
0.000
10
607.333
20
0.000
10
612.757
20
5.424
42
0.414214
10
612.757
20
6.838
10
607.262
20
12.333
10
607.262
20
16.191
10
612.757
20
21.686
42
0.414214
10
612.757
20
23.100
10
607.262
20
28.595
10
591.000
20
28.595
10
591.000
20
412.453
10
607.262
20
412.453
10
612.757
20
417.948
42
0.414214
10
612.757
20
419.362
10
607.262
20
424.857
10
607.262
20
428.715
10
612.757
20
434.210
42
0.414214
10
612.757
20
435.624
10
607.333
20
441.048
10
1765.715
20
441.048
10
1760.291
20
435.624
42
0.414214
10
1760.291
20
434.210
10
1765.786
20
428.715
10
1765.786
20
424.857
10
1760.291
20
419.362
42
0.414214
10
1760.291
20
417.948
10
1765.786
20
412.453
10
1782.048
20
412.453
10
1782.048
20
28.595
10
1765.786
20
28.595
10
1760.291
20
23.100
42
0.414214
10
1760.291
20
21.686
10
1765.786
20
16.191
10
1765.786
20
12.333
10
1760.291
20
6.838
42
0.414214
0
CIRCLE
8
INTERIOR_PROFILES
10
1186.524
20
220.524
30
0
40
2.117
0
CIRCLE
8
INTERIOR_PROFILES
10
986.524
20
350.524
30
0
40
2.117
0
CIRCLE
8
INTERIOR_PROFILES
10
886.524
20
220.524
30
0
40
2.117
0
CIRCLE
8
INTERIOR_PROFILES
10
1136.524
20
220.524
30
0
40
2.117
0
CIRCLE
8
INTERIOR_PROFILES
10
1136.524
20
350.524
30
0
40
2.117
0
CIRCLE
8
INTERIOR_PROFILES
10
936.524
20
350.524
30
0
40
2.117
0
CIRCLE
8
INTERIOR_PROFILES
10
986.524
20
220.524
30
0
40
2.117
0
CIRCLE
8
INTERIOR_PROFILES
10
736.524
20
220.524
30
0
40
2.117
0
CIRCLE
8
INTERIOR_PROFILES
10
886.524
20
350.524
30
0
40
2.117
0
CIRCLE
8
INTERIOR_PROFILES
10
786.524
20
350.524
30
0
40
2.117
0
CIRCLE
8
INTERIOR_PROFILES
10
836.524
20
350.524
30
0
40
2.117
0
CIRCLE
8
INTERIOR_PROFILES
10
786.524
20
220.524
30
0
40
2.117
0
CIRCLE
8
INTERIOR_PROFILES
10
1036.524
20
220.524
30
0
40
2.117
0
CIRCLE
8
INTERIOR_PROFILES
10
836.524
20
220.524
30
0
40
2.117
0
CIRCLE
8
INTERIOR_PROFILES
10
1336.524
20
350.524
30
0
40
2.117
0
CIRCLE
8
INTERIOR_PROFILES
10
1236.524
20
350.524
30
0
40
2.117
0
CIRCLE
8
INTERIOR_PROFILES
10
736.524
20
350.524
30
0
40
2.117
0
CIRCLE
8
INTERIOR_PROFILES
10
936.524
20
220.524
30
0
40
2.117
0
CIRCLE
8
INTERIOR_PROFILES
10
1236.524
20
220.524
30
0
40
2.117
0
CIRCLE
8
INTERIOR_PROFILES
10
1036.524
20
350.524
30
0
40
2.117
0
CIRCLE
8
INTERIOR_PROFILES
10
1286.524
20
220.524
30
0
40
2.117
0
CIRCLE
8
INTERIOR_PROFILES
10
1436.524
20
220.524
30
0
40
2.117
0
CIRCLE
8
INTERIOR_PROFILES
10
1086.524
20
220.524
30
0
40
2.117
0
CIRCLE
8
INTERIOR_PROFILES
10
621.524
20
156.524
30
0
40
1.700
0
CIRCLE
8
INTERIOR_PROFILES
10
693.524
20
156.524
30
0
40
1.700
0
CIRCLE
8
INTERIOR_PROFILES
10
1751.524
20
156.524
30
0
40
1.700
0
CIRCLE
8
INTERIOR_PROFILES
10
1679.524
20
156.524
30
0
40
1.700
0
CIRCLE
8
INTERIOR_PROFILES
10
1767.786
20
220.524
30
0
40
1.700
0
CIRCLE
8
INTERIOR_PROFILES
10
646.524
20
156.524
30
0
40
1.700
0
CIRCLE
8
INTERIOR_PROFILES
10
1436.524
20
350.524
30
0
40
2.117
0
CIRCLE
8
INTERIOR_PROFILES
10
1636.524
20
350.524
30
0
40
2.117
0
CIRCLE
8
INTERIOR_PROFILES
10
1086.524
20
350.524
30
0
40
2.117
0
CIRCLE
8
INTERIOR_PROFILES
10
686.524
20
350.524
30
0
40
2.117
0
CIRCLE
8
INTERIOR_PROFILES
10
1336.524
20
220.524
30
0
40
2.117
0
CIRCLE
8
INTERIOR_PROFILES
10
638.524
20
172.524
30
0
40
1.700
0
CIRCLE
8
INTERIOR_PROFILES
10
670.524
20
382.524
30
0
40
1.700
0
CIRCLE
8
INTERIOR_PROFILES
10
1686.524
20
410.524
30
0
40
1.700
0
CIRCLE
8
INTERIOR_PROFILES
10
686.524
20
55.524
30
0
40
1.700
0
CIRCLE
8
INTERIOR_PROFILES
10
1686.524
20
55.524
30
0
40
1.700
0
CIRCLE
8
INTERIOR_PROFILES
10
1670.524
20
382.524
30
0
40
1.700
0
CIRCLE
8
INTERIOR_PROFILES
10
1702.524
20
382.524
30
0
40
1.700
0
CIRCLE
8
INTERIOR_PROFILES
10
1486.524
20
220.524
30
0
40
2.117
0
CIRCLE
8
INTERIOR_PROFILES
10
1636.524
20
220.524
30
0
40
2.117
0
CIRCLE
8
INTERIOR_PROFILES
10
1686.524
20
220.524
30
0
40
2.117
0
CIRCLE
8
INTERIOR_PROFILES
10
1186.524
20
55.524
30
0
40
1.700
0
CIRCLE
8
INTERIOR_PROFILES
10
1170.524
20
382.524
30
0
40
1.700
0
CIRCLE
8
INTERIOR_PROFILES
10
702.524
20
382.524
30
0
40
1.700
0
CIRCLE
8
INTERIOR_PROFILES
10
686.524
20
410.524
30
0
40
1.700
0
CIRCLE
8
INTERIOR_PROFILES
10
1202.524
20
382.524
30
0
40
1.700
0
CIRCLE
8
INTERIOR_PROFILES
10
1186.524
20
410.524
30
0
40
1.700
0
CIRCLE
8
INTERIOR_PROFILES
10
618.524
20
172.524
30
0
40
1.700
0
CIRCLE
8
INTERIOR_PROFILES
10
1734.524
20
172.524
30
0
40
1.700
0
CIRCLE
8
INTERIOR_PROFILES
10
1754.524
20
172.524
30
0
40
1.700
0
CIRCLE
8
INTERIOR_PROFILES
10
1186.524
20
350.524
30
0
40
2.117
0
CIRCLE
8
INTERIOR_PROFILES
10
1726.524
20
156.524
30
0
40
1.700
0
CIRCLE
8
INTERIOR_PROFILES
10
621.524
20
14.262
30
0
40
1.700
0
CIRCLE
8
INTERIOR_PROFILES
10
1767.786
20
397.274
30
0
40
6.500
0
CIRCLE
8
INTERIOR_PROFILES
10
1767.786
20
387.524
30
0
40
1.700
0
CIRCLE
8
INTERIOR_PROFILES
10
1767.786
20
34.024
30
0
40
1.700
0
CIRCLE
8
INTERIOR_PROFILES
10
1767.786
20
407.024
30
0
40
1.700
0
CIRCLE
8
INTERIOR_PROFILES
10
1186.524
20
14.262
30
0
40
1.700
0
CIRCLE
8
INTERIOR_PROFILES
10
1767.786
20
53.524
30
0
40
1.700
0
CIRCLE
8
INTERIOR_PROFILES
10
667.524
20
14.262
30
0
40
1.700
0
CIRCLE
8
INTERIOR_PROFILES
10
1705.524
20
14.262
30
0
40
1.700
0
CIRCLE
8
INTERIOR_PROFILES
10
1751.524
20
14.262
30
0
40
1.700
0
CIRCLE
8
INTERIOR_PROFILES
10
994.524
20
195.524
30
0
40
3.000
0
CIRCLE
8
INTERIOR_PROFILES
10
686.524
20
220.524
30
0
40
2.117
0
CIRCLE
8
INTERIOR_PROFILES
10
1686.524
20
350.524
30
0
40
2.117
0
CIRCLE
8
INTERIOR_PROFILES
10
605.262
20
53.524
30
0
40
1.700
0
CIRCLE
8
INTERIOR_PROFILES
10
605.262
20
407.024
30
0
40
1.700
0
CIRCLE
8
INTERIOR_PROFILES
10
605.262
20
34.024
30
0
40
1.700
0
CIRCLE
8
INTERIOR_PROFILES
10
1394.524
20
195.524
30
0
40
3.000
0
CIRCLE
8
INTERIOR_PROFILES
10
1586.524
20
350.524
30
0
40
2.117
0
CIRCLE
8
INTERIOR_PROFILES
10
1536.524
20
350.524
30
0
40
2.117
0
CIRCLE
8
INTERIOR_PROFILES
10
1536.524
20
220.524
30
0
40
2.117
0
CIRCLE
8
INTERIOR_PROFILES
10
605.262
20
220.524
30
0
40
1.700
0
CIRCLE
8
INTERIOR_PROFILES
10
1286.524
20
350.524
30
0
40
2.117
0
CIRCLE
8
INTERIOR_PROFILES
10
605.262
20
397.274
30
0
40
6.500
0
CIRCLE
8
INTERIOR_PROFILES
10
1386.524
20
350.524
30
0
40
2.117
0
CIRCLE
8
INTERIOR_PROFILES
10
1586.524
20
220.524
30
0
40
2.117
0
CIRCLE
8
INTERIOR_PROFILES
10
1386.524
20
220.524
30
0
40
2.117
0
CIRCLE
8
INTERIOR_PROFILES
10
1486.524
20
350.524
30
0
40
2.117
0
CIRCLE
8
INTERIOR_PROFILES
10
605.262
20
387.524
30
0
40
1.700
0
TEXT
8
PART_LABELS
10
2379.500
20
220.500
30
0
40
50.000
1
2SDCN1-120040
72
1
73
2
11
2379.500
21
220.500
31
0
0
LWPOLYLINE
8
OUTER_PROFILES
90
36
70
1
10
2958.786
20
12.333
10
2958.786
20
16.191
10
2953.291
20
21.686
42
-0.414214
10
2953.291
20
23.100
10
2958.786
20
28.595
10
2975.048
20
28.595
10
2975.048
20
412.453
10
2958.786
20
412.453
10
2953.291
20
417.948
42
-0.414214
10
2953.291
20
419.362
10
2958.786
20
424.857
10
2958.786
20
428.715
10
2953.291
20
434.210
42
-0.414214
10
2953.291
20
435.624
10
2958.715
20
441.048
10
1800.333
20
441.048
10
1805.757
20
435.624
42
-0.414214
10
1805.757
20
434.210
10
1800.262
20
428.715
10
1800.262
20
424.857
10
1805.757
20
419.362
42
-0.414214
10
1805.757
20
417.948
10
1800.262
20
412.453
10
1784.000
20
412.453
10
1784.000
20
28.595
10
1800.262
20
28.595
10
1805.757
20
23.100
42
-0.414214
10
1805.757
20
21.686
10
1800.262
20
16.191
10
1800.262
20
12.333
10
1805.757
20
6.838
42
-0.414214
10
1805.757
20
5.424
10
1800.333
20
0.000
10
2958.715
20
0.000
10
2953.291
20
5.424
42
-0.414214
10
2953.291
20
6.838
0
CIRCLE
8
INTERIOR_PROFILES
10
2579.524
20
62.524
30
0
40
2.117
0
CIRCLE
8
INTERIOR_PROFILES
10
2179.524
20
62.524
30
0
40
2.117
0
CIRCLE
8
INTERIOR_PROFILES
10
2029.524
20
62.524
30
0
40
2.117
0
CIRCLE
8
INTERIOR_PROFILES
10
1929.524
20
350.524
30
0
40
2.117
0
CIRCLE
8
INTERIOR_PROFILES
10
1798.262
20
387.524
30
0
40
1.700
0
CIRCLE
8
INTERIOR_PROFILES
10
1798.262
20
397.274
30
0
40
6.500
0
CIRCLE
8
INTERIOR_PROFILES
10
1798.262
20
407.024
30
0
40
1.700
0
CIRCLE
8
INTERIOR_PROFILES
10
1798.262
20
34.024
30
0
40
1.700
0
CIRCLE
8
INTERIOR_PROFILES
10
2729.524
20
350.524
30
0
40
2.117
0
CIRCLE
8
INTERIOR_PROFILES
10
2679.524
20
350.524
30
0
40
2.117
0
CIRCLE
8
INTERIOR_PROFILES
10
2079.524
20
62.524
30
0
40
2.117
0
CIRCLE
8
INTERIOR_PROFILES
10
2379.524
20
62.524
30
0
40
2.117
0
CIRCLE
8
INTERIOR_PROFILES
10
2129.524
20
350.524
30
0
40
2.117
0
CIRCLE
8
INTERIOR_PROFILES
10
2729.524
20
62.524
30
0
40
2.117
0
CIRCLE
8
INTERIOR_PROFILES
10
1798.262
20
53.524
30
0
40
1.700
0
CIRCLE
8
INTERIOR_PROFILES
10
2879.524
20
350.524
30
0
40
2.117
0
CIRCLE
8
INTERIOR_PROFILES
10
2779.524
20
350.524
30
0
40
2.117
0
CIRCLE
8
INTERIOR_PROFILES
10
2179.524
20
350.524
30
0
40
2.117
0
CIRCLE
8
INTERIOR_PROFILES
10
1879.524
20
62.524
30
0
40
2.117
0
CIRCLE
8
INTERIOR_PROFILES
10
2579.524
20
350.524
30
0
40
2.117
0
CIRCLE
8
INTERIOR_PROFILES
10
1929.524
20
62.524
30
0
40
2.117
0
CIRCLE
8
INTERIOR_PROFILES
10
2029.524
20
350.524
30
0
40
2.117
0
CIRCLE
8
INTERIOR_PROFILES
10
2479.524
20
350.524
30
0
40
2.117
0
CIRCLE
8
INTERIOR_PROFILES
10
1798.262
20
220.524
30
0
40
1.700
0
CIRCLE
8
INTERIOR_PROFILES
10
2779.524
20
62.524
30
0
40
2.117
0
CIRCLE
8
INTERIOR_PROFILES
10
2329.524
20
62.524
30
0
40
2.117
0
CIRCLE
8
INTERIOR_PROFILES
10
2329.524
20
350.524
30
0
40
2.117
0
CIRCLE
8
INTERIOR_PROFILES
10
2229.524
20
62.524
30
0
40
2.117
0
CIRCLE
8
INTERIOR_PROFILES
10
1979.524
20
350.524
30
0
40
2.117
0
CIRCLE
8
INTERIOR_PROFILES
10
2129.524
20
62.524
30
0
40
2.117
0
CIRCLE
8
INTERIOR_PROFILES
10
1979.524
20
62.524
30
0
40
2.117
0
CIRCLE
8
INTERIOR_PROFILES
10
2079.524
20
350.524
30
0
40
2.117
0
CIRCLE
8
INTERIOR_PROFILES
10
2229.524
20
350.524
30
0
40
2.117
0
CIRCLE
8
INTERIOR_PROFILES
10
2279.524
20
62.524
30
0
40
2.117
0
CIRCLE
8
INTERIOR_PROFILES
10
2429.524
20
62.524
30
0
40
2.117
0
CIRCLE
8
INTERIOR_PROFILES
10
2479.524
20
62.524
30
0
40
2.117
0
CIRCLE
8
INTERIOR_PROFILES
10
2529.524
20
350.524
30
0
40
2.117
0
CIRCLE
8
INTERIOR_PROFILES
10
2429.524
20
350.524
30
0
40
2.117
0
CIRCLE
8
INTERIOR_PROFILES
10
2629.524
20
62.524
30
0
40
2.117
0
CIRCLE
8
INTERIOR_PROFILES
10
2379.524
20
350.524
30
0
40
2.117
0
CIRCLE
8
INTERIOR_PROFILES
10
2629.524
20
350.524
30
0
40
2.117
0
CIRCLE
8
INTERIOR_PROFILES
10
1879.524
20
350.524
30
0
40
2.117
0
CIRCLE
8
INTERIOR_PROFILES
10
2529.524
20
62.524
30
0
40
2.117
0
CIRCLE
8
INTERIOR_PROFILES
10
2679.524
20
62.524
30
0
40
2.117
0
CIRCLE
8
INTERIOR_PROFILES
10
2829.524
20
62.524
30
0
40
2.117
0
CIRCLE
8
INTERIOR_PROFILES
10
2829.524
20
350.524
30
0
40
2.117
0
CIRCLE
8
INTERIOR_PROFILES
10
2279.524
20
350.524
30
0
40
2.117
0
CIRCLE
8
INTERIOR_PROFILES
10
1831.524
20
30.524
30
0
40
1.700
0
CIRCLE
8
INTERIOR_PROFILES
10
2879.524
20
62.524
30
0
40
2.117
0
CIRCLE
8
INTERIOR_PROFILES
10
1863.524
20
382.524
30
0
40
1.700
0
CIRCLE
8
INTERIOR_PROFILES
10
1879.524
20
410.524
30
0
40
1.700
0
CIRCLE
8
INTERIOR_PROFILES
10
2947.524
20
30.524
30
0
40
1.700
0
CIRCLE
8
INTERIOR_PROFILES
10
2395.524
20
382.524
30
0
40
1.700
0
CIRCLE
8
INTERIOR_PROFILES
10
2879.524
20
410.524
30
0
40
1.700
0
CIRCLE
8
INTERIOR_PROFILES
10
2879.524
20
55.524
30
0
40
1.700
0
CIRCLE
8
INTERIOR_PROFILES
10
2895.524
20
382.524
30
0
40
1.700
0
CIRCLE
8
INTERIOR_PROFILES
10
2379.524
20
55.524
30
0
40
1.700
0
CIRCLE
8
INTERIOR_PROFILES
10
2927.524
20
30.524
30
0
40
1.700
0
CIRCLE
8
INTERIOR_PROFILES
10
2960.786
20
220.524
30
0
40
1.700
0
CIRCLE
8
INTERIOR_PROFILES
10
1811.524
20
30.524
30
0
40
1.700
0
CIRCLE
8
INTERIOR_PROFILES
10
2363.524
20
382.524
30
0
40
1.700
0
CIRCLE
8
INTERIOR_PROFILES
10
2379.524
20
410.524
30
0
40
1.700
0
CIRCLE
8
INTERIOR_PROFILES
10
2960.786
20
407.024
30
0
40
1.700
0
CIRCLE
8
INTERIOR_PROFILES
10
2960.786
20
387.524
30
0
40
1.700
0
CIRCLE
8
INTERIOR_PROFILES
10
2960.786
20
53.524
30
0
40
1.700
0
CIRCLE
8
INTERIOR_PROFILES
10
2960.786
20
34.024
30
0
40
1.700
0
CIRCLE
8
INTERIOR_PROFILES
10
2960.786
20
397.274
30
0
40
6.500
0
CIRCLE
8
INTERIOR_PROFILES
10
1860.524
20
14.262
30
0
40
1.700
0
CIRCLE
8
INTERIOR_PROFILES
10
2863.524
20
382.524
30
0
40
1.700
0
CIRCLE
8
INTERIOR_PROFILES
10
1879.524
20
55.524
30
0
40
1.700
0
CIRCLE
8
INTERIOR_PROFILES
10
1895.524
20
382.524
30
0
40
1.700
0
CIRCLE
8
INTERIOR_PROFILES
10
2944.524
20
14.262
30
0
40
1.700
0
CIRCLE
8
INTERIOR_PROFILES
10
1814.524
20
14.262
30
0
40
1.700
0
CIRCLE
8
INTERIOR_PROFILES
10
2379.524
20
14.262
30
0
40
1.700
0
CIRCLE
8
INTERIOR_PROFILES
10
2898.524
20
14.262
30
0
40
1.700
0
TEXT
8
PART_LABELS
10
1186.500
20
663.500
30
0
40
50.000
1
2SDCN1-120040
72
1
73
2
11
1186.500
21
663.500
31
0
0
LWPOLYLINE
8
OUTER_PROFILES
90
36
70
1
10
1765.786
20
455.333
10
1765.786
20
459.191
10
1760.291
20
464.686
42
-0.414214
10
1760.291
20
466.100
10
1765.786
20
471.595
10
1782.048
20
471.595
10
1782.048
20
855.453
10
1765.786
20
855.453
10
1760.291
20
860.948
42
-0.414214
10
1760.291
20
862.362
10
1765.786
20
867.857
10
1765.786
20
871.715
10
1760.291
20
877.210
42
-0.414214
10
1760.291
20
878.624
10
1765.715
20
884.048
10
607.333
20
884.048
10
612.757
20
878.624
42
-0.414214
10
612.757
20
877.210
10
607.262
20
871.715
10
607.262
20
867.857
10
612.757
20
862.362
42
-0.414214
10
612.757
20
860.948
10
607.262
20
855.453
10
591.000
20
855.453
10
591.000
20
471.595
10
607.262
20
471.595
10
612.757
20
466.100
42
-0.414214
10
612.757
20
464.686
10
607.262
20
459.191
10
607.262
20
455.333
10
612.757
20
449.838
42
-0.414214
10
612.757
20
448.424
10
607.333
20
443.000
10
1765.715
20
443.000
10
1760.291
20
448.424
42
-0.414214
10
1760.291
20
449.838
0
CIRCLE
8
INTERIOR_PROFILES
10
1386.524
20
505.524
30
0
40
2.117
0
CIRCLE
8
INTERIOR_PROFILES
10
986.524
20
505.524
30
0
40
2.117
0
CIRCLE
8
INTERIOR_PROFILES
10
836.524
20
505.524
30
0
40
2.117
0
CIRCLE
8
INTERIOR_PROFILES
10
736.524
20
793.524
30
0
40
2.117
0
CIRCLE
8
INTERIOR_PROFILES
10
605.262
20
830.524
30
0
40
1.700
0
CIRCLE
8
INTERIOR_PROFILES
10
605.262
20
840.274
30
0
40
6.500
0
CIRCLE
8
INTERIOR_PROFILES
10
605.262
20
850.024
30
0
40
1.700
0
CIRCLE
8
INTERIOR_PROFILES
10
605.262
20
477.024
30
0
40
1.700
0
CIRCLE
8
INTERIOR_PROFILES
10
1536.524
20
793.524
30
0
40
2.117
0
CIRCLE
8
INTERIOR_PROFILES
10
1486.524
20
793.524
30
0
40
2.117
0
CIRCLE
8
INTERIOR_PROFILES
10
886.524
20
505.524
30
0
40
2.117
0
CIRCLE
8
INTERIOR_PROFILES
10
1186.524
20
505.524
30
0
40
2.117
0
CIRCLE
8
INTERIOR_PROFILES
10
936.524
20
793.524
30
0
40
2.117
0
CIRCLE
8
INTERIOR_PROFILES
10
1536.524
20
505.524
30
0
40
2.117
0
CIRCLE
8
INTERIOR_PROFILES
10
605.262
20
496.524
30
0
40
1.700
0
CIRCLE
8
INTERIOR_PROFILES
10
1686.524
20
793.524
30
0
40
2.117
0
CIRCLE
8
INTERIOR_PROFILES
10
1586.524
20
793.524
30
0
40
2.117
0
CIRCLE
8
INTERIOR_PROFILES
10
986.524
20
793.524
30
0
40
2.117
0
CIRCLE
8
INTERIOR_PROFILES
10
686.524
20
505.524
30
0
40
2.117
0
CIRCLE
8
INTERIOR_PROFILES
10
1386.524
20
793.524
30
0
40
2.117
0
CIRCLE
8
INTERIOR_PROFILES
10
736.524
20
505.524
30
0
40
2.117
0
CIRCLE
8
INTERIOR_PROFILES
10
836.524
20
793.524
30
0
40
2.117
0
CIRCLE
8
INTERIOR_PROFILES
10
1286.524
20
793.524
30
0
40
2.117
0
CIRCLE
8
INTERIOR_PROFILES
10
605.262
20
663.524
30
0
40
1.700
0
CIRCLE
8
INTERIOR_PROFILES
10
1586.524
20
505.524
30
0
40
2.117
0
CIRCLE
8
INTERIOR_PROFILES
10
1136.524
20
505.524
30
0
40
2.117
0
CIRCLE
8
INTERIOR_PROFILES
10
1136.524
20
793.524
30
0
40
2.117
0
CIRCLE
8
INTERIOR_PROFILES
10
1036.524
20
505.524
30
0
40
2.117
0
CIRCLE
8
INTERIOR_PROFILES
10
786.524
20
793.524
30
0
40
2.117
0
CIRCLE
8
INTERIOR_PROFILES
10
936.524
20
505.524
30
0
40
2.117
0
CIRCLE
8
INTERIOR_PROFILES
10
786.524
20
505.524
30
0
40
2.117
0
CIRCLE
8
INTERIOR_PROFILES
10
886.524
20
793.524
30
0
40
2.117
0
CIRCLE
8
INTERIOR_PROFILES
10
1036.524
20
793.524
30
0
40
2.117
0
CIRCLE
8
INTERIOR_PROFILES
10
1086.524
20
505.524
30
0
40
2.117
0
CIRCLE
8
INTERIOR_PROFILES
10
1236.524
20
505.524
30
0
40
2.117
0
CIRCLE
8
INTERIOR_PROFILES
10
1286.524
20
505.524
30
0
40
2.117
0
CIRCLE
8
INTERIOR_PROFILES
10
1336.524
20
793.524
30
0
40
2.117
0
CIRCLE
8
INTERIOR_PROFILES
10
1236.524
20
793.524
30
0
40
2.117
0
CIRCLE
8
INTERIOR_PROFILES
10
1436.524
20
505.524
30
0
40
2.117
0
CIRCLE
8
INTERIOR_PROFILES
10
1186.524
20
793.524
30
0
40
2.117
0
CIRCLE
8
INTERIOR_PROFILES
10
1436.524
20
793.524
30
0
40
2.117
0
CIRCLE
8
INTERIOR_PROFILES
10
686.524
20
793.524
30
0
40
2.117
0
CIRCLE
8
INTERIOR_PROFILES
10
1336.524
20
505.524
30
0
40
2.117
0
CIRCLE
8
INTERIOR_PROFILES
10
1486.524
20
505.524
30
0
40
2.117
0
CIRCLE
8
INTERIOR_PROFILES
10
1636.524
20
505.524
30
0
40
2.117
0
CIRCLE
8
INTERIOR_PROFILES
10
1636.524
20
793.524
30
0
40
2.117
0
CIRCLE
8
INTERIOR_PROFILES
10
1086.524
20
793.524
30
0
40
2.117
0
CIRCLE
8
INTERIOR_PROFILES
10
638.524
20
473.524
30
0
40
1.700
0
CIRCLE
8
INTERIOR_PROFILES
10
1686.524
20
505.524
30
0
40
2.117
0
CIRCLE
8
INTERIOR_PROFILES
10
670.524
20
825.524
30
0
40
1.700
0
CIRCLE
8
INTERIOR_PROFILES
10
686.524
20
853.524
30
0
40
1.700
0
CIRCLE
8
INTERIOR_PROFILES
10
1754.524
20
473.524
30
0
40
1.700
0
CIRCLE
8
INTERIOR_PROFILES
10
1202.524
20
825.524
30
0
40
1.700
0
CIRCLE
8
INTERIOR_PROFILES
10
1686.524
20
853.524
30
0
40
1.700
0
CIRCLE
8
INTERIOR_PROFILES
10
1686.524
20
498.524
30
0
40
1.700
0
CIRCLE
8
INTERIOR_PROFILES
10
1702.524
20
825.524
30
0
40
1.700
0
CIRCLE
8
INTERIOR_PROFILES
10
1186.524
20
498.524
30
0
40
1.700
0
CIRCLE
8
INTERIOR_PROFILES
10
1734.524
20
473.524
30
0
40
1.700
0
CIRCLE
8
INTERIOR_PROFILES
10
1767.786
20
663.524
30
0
40
1.700
0
CIRCLE
8
INTERIOR_PROFILES
10
618.524
20
473.524
30
0
40
1.700
0
CIRCLE
8
INTERIOR_PROFILES
10
1170.524
20
825.524
30
0
40
1.700
0
CIRCLE
8
INTERIOR_PROFILES
10
1186.524
20
853.524
30
0
40
1.700
0
CIRCLE
8
INTERIOR_PROFILES
10
1767.786
20
850.024
30
0
40
1.700
0
CIRCLE
8
INTERIOR_PROFILES
10
1767.786
20
830.524
30
0
40
1.700
0
CIRCLE
8
INTERIOR_PROFILES
10
1767.786
20
496.524
30
0
40
1.700
0
CIRCLE
8
INTERIOR_PROFILES
10
1767.786
20
477.024
30
0
40
1.700
0
CIRCLE
8
INTERIOR_PROFILES
10
1767.786
20
840.274
30
0
40
6.500
0
CIRCLE
8
INTERIOR_PROFILES
10
667.524
20
457.262
30
0
40
1.700
0
CIRCLE
8
INTERIOR_PROFILES
10
1670.524
20
825.524
30
0
40
1.700
0
CIRCLE
8
INTERIOR_PROFILES
10
686.524
20
498.524
30
0
40
1.700
0
CIRCLE
8
INTERIOR_PROFILES
10
702.524
20
825.524
30
0
40
1.700
0
CIRCLE
8
INTERIOR_PROFILES
10
1751.524
20
457.262
30
0
40
1.700
0
CIRCLE
8
INTERIOR_PROFILES
10
621.524
20
457.262
30
0
40
1.700
0
CIRCLE
8
INTERIOR_PROFILES
10
1186.524
20
457.262
30
0
40
1.700
0
CIRCLE
8
INTERIOR_PROFILES
10
1705.524
20
457.262
30
0
40
1.700
0
TEXT
8
PART_LABELS
10
2379.500
20
663.500
30
0
40
50.000
1
2SDCN1-120040
72
1
73
2
11
2379.500
21
663.500
31
0
0
LWPOLYLINE
8
OUTER_PROFILES
90
36
70
1
10
2958.786
20
455.333
10
2958.786
20
459.191
10
2953.291
20
464.686
42
-0.414214
10
2953.291
20
466.100
10
2958.786
20
471.595
10
2975.048
20
471.595
10
2975.048
20
855.453
10
2958.786
20
855.453
10
2953.291
20
860.948
42
-0.414214
10
2953.291
20
862.362
10
2958.786
20
867.857
10
2958.786
20
871.715
10
2953.291
20
877.210
42
-0.414214
10
2953.291
20
878.624
10
2958.715
20
884.048
10
1800.333
20
884.048
10
1805.757
20
878.624
42
-0.414214
10
1805.757
20
877.210
10
1800.262
20
871.715
10
1800.262
20
867.857
10
1805.757
20
862.362
42
-0.414214
10
1805.757
20
860.948
10
1800.262
20
855.453
10
1784.000
20
855.453
10
1784.000
20
471.595
10
1800.262
20
471.595
10
1805.757
20
466.100
42
-0.414214
10
1805.757
20
464.686
10
1800.262
20
459.191
10
1800.262
20
455.333
10
1805.757
20
449.838
42
-0.414214
10
1805.757
20
448.424
10
1800.333
20
443.000
10
2958.715
20
443.000
10
2953.291
20
448.424
42
-0.414214
10
2953.291
20
449.838
0
CIRCLE
8
INTERIOR_PROFILES
10
2579.524
20
505.524
30
0
40
2.117
0
CIRCLE
8
INTERIOR_PROFILES
10
2179.524
20
505.524
30
0
40
2.117
0
CIRCLE
8
INTERIOR_PROFILES
10
2029.524
20
505.524
30
0
40
2.117
0
CIRCLE
8
INTERIOR_PROFILES
10
1929.524
20
793.524
30
0
40
2.117
0
CIRCLE
8
INTERIOR_PROFILES
10
1798.262
20
830.524
30
0
40
1.700
0
CIRCLE
8
INTERIOR_PROFILES
10
1798.262
20
840.274
30
0
40
6.500
0
CIRCLE
8
INTERIOR_PROFILES
10
1798.262
20
850.024
30
0
40
1.700
0
CIRCLE
8
INTERIOR_PROFILES
10
1798.262
20
477.024
30
0
40
1.700
0
CIRCLE
8
INTERIOR_PROFILES
10
2729.524
20
793.524
30
0
40
2.117
0
CIRCLE
8
INTERIOR_PROFILES
10
2679.524
20
793.524
30
0
40
2.117
0
CIRCLE
8
INTERIOR_PROFILES
10
2079.524
20
505.524
30
0
40
2.117
0
CIRCLE
8
INTERIOR_PROFILES
10
2379.524
20
505.524
30
0
40
2.117
0
CIRCLE
8
INTERIOR_PROFILES
10
2129.524
20
793.524
30
0
40
2.117
0
CIRCLE
8
INTERIOR_PROFILES
10
2729.524
20
505.524
30
0
40
2.117
0
CIRCLE
8
INTERIOR_PROFILES
10
1798.262
20
496.524
30
0
40
1.700
0
CIRCLE
8
INTERIOR_PROFILES
10
2879.524
20
793.524
30
0
40
2.117
0
CIRCLE
8
INTERIOR_PROFILES
10
2779.524
20
793.524
30
0
40
2.117
0
CIRCLE
8
INTERIOR_PROFILES
10
2179.524
20
793.524
30
0
40
2.117
0
CIRCLE
8
INTERIOR_PROFILES
10
1879.524
20
505.524
30
0
40
2.117
0
CIRCLE
8
INTERIOR_PROFILES
10
2579.524
20
793.524
30
0
40
2.117
0
CIRCLE
8
INTERIOR_PROFILES
10
1929.524
20
505.524
30
0
40
2.117
0
CIRCLE
8
INTERIOR_PROFILES
10
2029.524
20
793.524
30
0
40
2.117
0
CIRCLE
8
INTERIOR_PROFILES
10
2479.524
20
793.524
30
0
40
2.117
0
CIRCLE
8
INTERIOR_PROFILES
10
1798.262
20
663.524
30
0
40
1.700
0
CIRCLE
8
INTERIOR_PROFILES
10
2779.524
20
505.524
30
0
40
2.117
0
CIRCLE
8
INTERIOR_PROFILES
10
2329.524
20
505.524
30
0
40
2.117
0
CIRCLE
8
INTERIOR_PROFILES
10
2329.524
20
793.524
30
0
40
2.117
0
CIRCLE
8
INTERIOR_PROFILES
10
2229.524
20
505.524
30
0
40
2.117
0
CIRCLE
8
INTERIOR_PROFILES
10
1979.524
20
793.524
30
0
40
2.117
0
CIRCLE
8
INTERIOR_PROFILES
10
2129.524
20
505.524
30
0
40
2.117
0
CIRCLE
8
INTERIOR_PROFILES
10
1979.524
20
505.524
30
0
40
2.117
0
CIRCLE
8
INTERIOR_PROFILES
10
2079.524
20
793.524
30
0
40
2.117
0
CIRCLE
8
INTERIOR_PROFILES
10
2229.524
20
793.524
30
0
40
2.117
0
CIRCLE
8
INTERIOR_PROFILES
10
2279.524
20
505.524
30
0
40
2.117
0
CIRCLE
8
INTERIOR_PROFILES
10
2429.524
20
505.524
30
0
40
2.117
0
CIRCLE
8
INTERIOR_PROFILES
10
2479.524
20
505.524
30
0
40
2.117
0
CIRCLE
8
INTERIOR_PROFILES
10
2529.524
20
793.524
30
0
40
2.117
0
CIRCLE
8
INTERIOR_PROFILES
10
2429.524
20
793.524
30
0
40
2.117
0
CIRCLE
8
INTERIOR_PROFILES
10
2629.524
20
505.524
30
0
40
2.117
0
CIRCLE
8
INTERIOR_PROFILES
10
2379.524
20
793.524
30
0
40
2.117
0
CIRCLE
8
INTERIOR_PROFILES
10
2629.524
20
793.524
30
0
40
2.117
0
CIRCLE
8
INTERIOR_PROFILES
10
1879.524
20
793.524
30
0
40
2.117
0
CIRCLE
8
INTERIOR_PROFILES
10
2529.524
20
505.524
30
0
40
2.117
0
CIRCLE
8
INTERIOR_PROFILES
10
2679.524
20
505.524
30
0
40
2.117
0
CIRCLE
8
INTERIOR_PROFILES
10
2829.524
20
505.524
30
0
40
2.117
0
CIRCLE
8
INTERIOR_PROFILES
10
2829.524
20
793.524
30
0
40
2.117
0
CIRCLE
8
INTERIOR_PROFILES
10
2279.524
20
793.524
30
0
40
2.117
0
CIRCLE
8
INTERIOR_PROFILES
10
1831.524
20
473.524
30
0
40
1.700
0
CIRCLE
8
INTERIOR_PROFILES
10
2879.524
20
505.524
30
0
40
2.117
0
CIRCLE
8
INTERIOR_PROFILES
10
1863.524
20
825.524
30
0
40
1.700
0
CIRCLE
8
INTERIOR_PROFILES
10
1879.524
20
853.524
30
0
40
1.700
0
CIRCLE
8
INTERIOR_PROFILES
10
2947.524
20
473.524
30
0
40
1.700
0
CIRCLE
8
INTERIOR_PROFILES
10
2395.524
20
825.524
30
0
40
1.700
0
CIRCLE
8
INTERIOR_PROFILES
10
2879.524
20
853.524
30
0
40
1.700
0
CIRCLE
8
INTERIOR_PROFILES
10
2879.524
20
498.524
30
0
40
1.700
0
CIRCLE
8
INTERIOR_PROFILES
10
2895.524
20
825.524
30
0
40
1.700
0
CIRCLE
8
INTERIOR_PROFILES
10
2379.524
20
498.524
30
0
40
1.700
0
CIRCLE
8
INTERIOR_PROFILES
10
2927.524
20
473.524
30
0
40
1.700
0
CIRCLE
8
INTERIOR_PROFILES
10
2960.786
20
663.524
30
0
40
1.700
0
CIRCLE
8
INTERIOR_PROFILES
10
1811.524
20
473.524
30
0
40
1.700
0
CIRCLE
8
INTERIOR_PROFILES
10
2363.524
20
825.524
30
0
40
1.700
0
CIRCLE
8
INTERIOR_PROFILES
10
2379.524
20
853.524
30
0
40
1.700
0
CIRCLE
8
INTERIOR_PROFILES
10
2960.786
20
850.024
30
0
40
1.700
0
CIRCLE
8
INTERIOR_PROFILES
10
2960.786
20
830.524
30
0
40
1.700
0
CIRCLE
8
INTERIOR_PROFILES
10
2960.786
20
496.524
30
0
40
1.700
0
CIRCLE
8
INTERIOR_PROFILES
10
2960.786
20
477.024
30
0
40
1.700
0
CIRCLE
8
INTERIOR_PROFILES
10
2960.786
20
840.274
30
0
40
6.500
0
CIRCLE
8
INTERIOR_PROFILES
10
1860.524
20
457.262
30
0
40
1.700
0
CIRCLE
8
INTERIOR_PROFILES
10
2863.524
20
825.524
30
0
40
1.700
0
CIRCLE
8
INTERIOR_PROFILES
10
1879.524
20
498.524
30
0
40
1.700
0
CIRCLE
8
INTERIOR_PROFILES
10
1895.524
20
825.524
30
0
40
1.700
0
CIRCLE
8
INTERIOR_PROFILES
10
2944.524
20
457.262
30
0
40
1.700
0
CIRCLE
8
INTERIOR_PROFILES
10
1814.524
20
457.262
30
0
40
1.700
0
CIRCLE
8
INTERIOR_PROFILES
10
2379.524
20
457.262
30
0
40
1.700
0
CIRCLE
8
INTERIOR_PROFILES
10
2898.524
20
457.262
30
0
40
1.700
0
TEXT
8
PART_LABELS
10
1186.500
20
1106.500
30
0
40
50.000
1
2SDCN1-120040
72
1
73
2
11
1186.500
21
1106.500
31
0
0
LWPOLYLINE
8
OUTER_PROFILES
90
36
70
1
10
1765.786
20
898.333
10
1765.786
20
902.191
10
1760.291
20
907.686
42
-0.414214
10
1760.291
20
909.100
10
1765.786
20
914.595
10
1782.048
20
914.595
10
1782.048
20
1298.453
10
1765.786
20
1298.453
10
1760.291
20
1303.948
42
-0.414214
10
1760.291
20
1305.362
10
1765.786
20
1310.857
10
1765.786
20
1314.715
10
1760.291
20
1320.210
42
-0.414214
10
1760.291
20
1321.624
10
1765.715
20
1327.048
10
607.333
20
1327.048
10
612.757
20
1321.624
42
-0.414214
10
612.757
20
1320.210
10
607.262
20
1314.715
10
607.262
20
1310.857
10
612.757
20
1305.362
42
-0.414214
10
612.757
20
1303.948
10
607.262
20
1298.453
10
591.000
20
1298.453
10
591.000
20
914.595
10
607.262
20
914.595
10
612.757
20
909.100
42
-0.414214
10
612.757
20
907.686
10
607.262
20
902.191
10
607.262
20
898.333
10
612.757
20
892.838
42
-0.414214
10
612.757
20
891.424
10
607.333
20
886.000
10
1765.715
20
886.000
10
1760.291
20
891.424
42
-0.414214
10
1760.291
20
892.838
0
CIRCLE
8
INTERIOR_PROFILES
10
1386.524
20
948.524
30
0
40
2.117
0
CIRCLE
8
INTERIOR_PROFILES
10
986.524
20
948.524
30
0
40
2.117
0
CIRCLE
8
INTERIOR_PROFILES
10
836.524
20
948.524
30
0
40
2.117
0
CIRCLE
8
INTERIOR_PROFILES
10
736.524
20
1236.524
30
0
40
2.117
0
CIRCLE
8
INTERIOR_PROFILES
10
605.262
20
1273.524
30
0
40
1.700
0
CIRCLE
8
INTERIOR_PROFILES
10
605.262
20
1283.274
30
0
40
6.500
0
CIRCLE
8
INTERIOR_PROFILES
10
605.262
20
1293.024
30
0
40
1.700
0
CIRCLE
8
INTERIOR_PROFILES
10
605.262
20
920.024
30
0
40
1.700
0
CIRCLE
8
INTERIOR_PROFILES
10
1536.524
20
1236.524
30
0
40
2.117
0
CIRCLE
8
INTERIOR_PROFILES
10
1486.524
20
1236.524
30
0
40
2.117
0
CIRCLE
8
INTERIOR_PROFILES
10
886.524
20
948.524
30
0
40
2.117
0
CIRCLE
8
INTERIOR_PROFILES
10
1186.524
20
948.524
30
0
40
2.117
0
CIRCLE
8
INTERIOR_PROFILES
10
936.524
20
1236.524
30
0
40
2.117
0
CIRCLE
8
INTERIOR_PROFILES
10
1536.524
20
948.524
30
0
40
2.117
0
CIRCLE
8
INTERIOR_PROFILES
10
605.262
20
939.524
30
0
40
1.700
0
CIRCLE
8
INTERIOR_PROFILES
10
1686.524
20
1236.524
30
0
40
2.117
0
CIRCLE
8
INTERIOR_PROFILES
10
1586.524
20
1236.524
30
0
40
2.117
0
CIRCLE
8
INTERIOR_PROFILES
10
986.524
20
1236.524
30
0
40
2.117
0
CIRCLE
8
INTERIOR_PROFILES
10
686.524
20
948.524
30
0
40
2.117
0
CIRCLE
8
INTERIOR_PROFILES
10
1386.524
20
1236.524
30
0
40
2.117
0
CIRCLE
8
INTERIOR_PROFILES
10
736.524
20
948.524
30
0
40
2.117
0
CIRCLE
8
INTERIOR_PROFILES
10
836.524
20
1236.524
30
0
40
2.117
0
CIRCLE
8
INTERIOR_PROFILES
10
1286.524
20
1236.524
30
0
40
2.117
0
CIRCLE
8
INTERIOR_PROFILES
10
605.262
20
1106.524
30
0
40
1.700
0
CIRCLE
8
INTERIOR_PROFILES
10
1586.524
20
948.524
30
0
40
2.117
0
CIRCLE
8
INTERIOR_PROFILES
10
1136.524
20
948.524
30
0
40
2.117
0
CIRCLE
8
INTERIOR_PROFILES
10
1136.524
20
1236.524
30
0
40
2.117
0
CIRCLE
8
INTERIOR_PROFILES
10
1036.524
20
948.524
30
0
40
2.117
0
CIRCLE
8
INTERIOR_PROFILES
10
786.524
20
1236.524
30
0
40
2.117
0
CIRCLE
8
INTERIOR_PROFILES
10
936.524
20
948.524
30
0
40
2.117
0
CIRCLE
8
INTERIOR_PROFILES
10
786.524
20
948.524
30
0
40
2.117
0
CIRCLE
8
INTERIOR_PROFILES
10
886.524
20
1236.524
30
0
40
2.117
0
CIRCLE
8
INTERIOR_PROFILES
10
1036.524
20
1236.524
30
0
40
2.117
0
CIRCLE
8
INTERIOR_PROFILES
10
1086.524
20
948.524
30
0
40
2.117
0
CIRCLE
8
INTERIOR_PROFILES
10
1236.524
20
948.524
30
0
40
2.117
0
CIRCLE
8
INTERIOR_PROFILES
10
1286.524
20
948.524
30
0
40
2.117
0
CIRCLE
8
INTERIOR_PROFILES
10
1336.524
20
1236.524
30
0
40
2.117
0
CIRCLE
8
INTERIOR_PROFILES
10
1236.524
20
1236.524
30
0
40
2.117
0
CIRCLE
8
INTERIOR_PROFILES
10
1436.524
20
948.524
30
0
40
2.117
0
CIRCLE
8
INTERIOR_PROFILES
10
1186.524
20
1236.524
30
0
40
2.117
0
CIRCLE
8
INTERIOR_PROFILES
10
1436.524
20
1236.524
30
0
40
2.117
0
CIRCLE
8
INTERIOR_PROFILES
10
686.524
20
1236.524
30
0
40
2.117
0
CIRCLE
8
INTERIOR_PROFILES
10
1336.524
20
948.524
30
0
40
2.117
0
CIRCLE
8
INTERIOR_PROFILES
10
1486.524
20
948.524
30
0
40
2.117
0
CIRCLE
8
INTERIOR_PROFILES
10
1636.524
20
948.524
30
0
40
2.117
0
CIRCLE
8
INTERIOR_PROFILES
10
1636.524
20
1236.524
30
0
40
2.117
0
CIRCLE
8
INTERIOR_PROFILES
10
1086.524
20
1236.524
30
0
40
2.117
0
CIRCLE
8
INTERIOR_PROFILES
10
638.524
20
916.524
30
0
40
1.700
0
CIRCLE
8
INTERIOR_PROFILES
10
1686.524
20
948.524
30
0
40
2.117
0
CIRCLE
8
INTERIOR_PROFILES
10
670.524
20
1268.524
30
0
40
1.700
0
CIRCLE
8
INTERIOR_PROFILES
10
686.524
20
1296.524
30
0
40
1.700
0
CIRCLE
8
INTERIOR_PROFILES
10
1754.524
20
916.524
30
0
40
1.700
0
CIRCLE
8
INTERIOR_PROFILES
10
1202.524
20
1268.524
30
0
40
1.700
0
CIRCLE
8
INTERIOR_PROFILES
10
1686.524
20
1296.524
30
0
40
1.700
0
CIRCLE
8
INTERIOR_PROFILES
10
1686.524
20
941.524
30
0
40
1.700
0
CIRCLE
8
INTERIOR_PROFILES
10
1702.524
20
1268.524
30
0
40
1.700
0
CIRCLE
8
INTERIOR_PROFILES
10
1186.524
20
941.524
30
0
40
1.700
0
CIRCLE
8
INTERIOR_PROFILES
10
1734.524
20
916.524
30
0
40
1.700
0
CIRCLE
8
INTERIOR_PROFILES
10
1767.786
20
1106.524
30
0
40
1.700
0
CIRCLE
8
INTERIOR_PROFILES
10
618.524
20
916.524
30
0
40
1.700
0
CIRCLE
8
INTERIOR_PROFILES
10
1170.524
20
1268.524
30
0
40
1.700
0
CIRCLE
8
INTERIOR_PROFILES
10
1186.524
20
1296.524
30
0
40
1.700
0
CIRCLE
8
INTERIOR_PROFILES
10
1767.786
20
1293.024
30
0
40
1.700
0
CIRCLE
8
INTERIOR_PROFILES
10
1767.786
20
1273.524
30
0
40
1.700
0
CIRCLE
8
INTERIOR_PROFILES
10
1767.786
20
939.524
30
0
40
1.700
0
CIRCLE
8
INTERIOR_PROFILES
10
1767.786
20
920.024
30
0
40
1.700
0
CIRCLE
8
INTERIOR_PROFILES
10
1767.786
20
1283.274
30
0
40
6.500
0
CIRCLE
8
INTERIOR_PROFILES
10
667.524
20
900.262
30
0
40
1.700
0
CIRCLE
8
INTERIOR_PROFILES
10
1670.524
20
1268.524
30
0
40
1.700
0
CIRCLE
8
INTERIOR_PROFILES
10
686.524
20
941.524
30
0
40
1.700
0
CIRCLE
8
INTERIOR_PROFILES
10
702.524
20
1268.524
30
0
40
1.700
0
CIRCLE
8
INTERIOR_PROFILES
10
1751.524
20
900.262
30
0
40
1.700
0
CIRCLE
8
INTERIOR_PROFILES
10
621.524
20
900.262
30
0
40
1.700
0
CIRCLE
8
INTERIOR_PROFILES
10
1186.524
20
900.262
30
0
40
1.700
0
CIRCLE
8
INTERIOR_PROFILES
10
1705.524
20
900.262
30
0
40
1.700
0
TEXT
8
PART_LABELS
10
2379.500
20
1106.500
30
0
40
50.000
1
2SDCN1-120040
72
1
73
2
11
2379.500
21
1106.500
31
0
0
LWPOLYLINE
8
OUTER_PROFILES
90
36
70
1
10
2958.786
20
898.333
10
2958.786
20
902.191
10
2953.291
20
907.686
42
-0.414214
10
2953.291
20
909.100
10
2958.786
20
914.595
10
2975.048
20
914.595
10
2975.048
20
1298.453
10
2958.786
20
1298.453
10
2953.291
20
1303.948
42
-0.414214
10
2953.291
20
1305.362
10
2958.786
20
1310.857
10
2958.786
20
1314.715
10
2953.291
20
1320.210
42
-0.414214
10
2953.291
20
1321.624
10
2958.715
20
1327.048
10
1800.333
20
1327.048
10
1805.757
20
1321.624
42
-0.414214
10
1805.757
20
1320.210
10
1800.262
20
1314.715
10
1800.262
20
1310.857
10
1805.757
20
1305.362
42
-0.414214
10
1805.757
20
1303.948
10
1800.262
20
1298.453
10
1784.000
20
1298.453
10
1784.000
20
914.595
10
1800.262
20
914.595
10
1805.757
20
909.100
42
-0.414214
10
1805.757
20
907.686
10
1800.262
20
902.191
10
1800.262
20
898.333
10
1805.757
20
892.838
42
-0.414214
10
1805.757
20
891.424
10
1800.333
20
886.000
10
2958.715
20
886.000
10
2953.291
20
891.424
42
-0.414214
10
2953.291
20
892.838
0
CIRCLE
8
INTERIOR_PROFILES
10
2579.524
20
948.524
30
0
40
2.117
0
CIRCLE
8
INTERIOR_PROFILES
10
2179.524
20
948.524
30
0
40
2.117
0
CIRCLE
8
INTERIOR_PROFILES
10
2029.524
20
948.524
30
0
40
2.117
0
CIRCLE
8
INTERIOR_PROFILES
10
1929.524
20
1236.524
30
0
40
2.117
0
CIRCLE
8
INTERIOR_PROFILES
10
1798.262
20
1273.524
30
0
40
1.700
0
CIRCLE
8
INTERIOR_PROFILES
10
1798.262
20
1283.274
30
0
40
6.500
0
CIRCLE
8
INTERIOR_PROFILES
10
1798.262
20
1293.024
30
0
40
1.700
0
CIRCLE
8
INTERIOR_PROFILES
10
1798.262
20
920.024
30
0
40
1.700
0
CIRCLE
8
INTERIOR_PROFILES
10
2729.524
20
1236.524
30
0
40
2.117
0
CIRCLE
8
INTERIOR_PROFILES
10
2679.524
20
1236.524
30
0
40
2.117
0
CIRCLE
8
INTERIOR_PROFILES
10
2079.524
20
948.524
30
0
40
2.117
0
CIRCLE
8
INTERIOR_PROFILES
10
2379.524
20
948.524
30
0
40
2.117
0
CIRCLE
8
INTERIOR_PROFILES
10
2129.524
20
1236.524
30
0
40
2.117
0
CIRCLE
8
INTERIOR_PROFILES
10
2729.524
20
948.524
30
0
40
2.117
0
CIRCLE
8
INTERIOR_PROFILES
10
1798.262
20
939.524
30
0
40
1.700
0
CIRCLE
8
INTERIOR_PROFILES
10
2879.524
20
1236.524
30
0
40
2.117
0
CIRCLE
8
INTERIOR_PROFILES
10
2779.524
20
1236.524
30
0
40
2.117
0
CIRCLE
8
INTERIOR_PROFILES
10
2179.524
20
1236.524
30
0
40
2.117
0
CIRCLE
8
INTERIOR_PROFILES
10
1879.524
20
948.524
30
0
40
2.117
0
CIRCLE
8
INTERIOR_PROFILES
10
2579.524
20
1236.524
30
0
40
2.117
0
CIRCLE
8
INTERIOR_PROFILES
10
1929.524
20
948.524
30
0
40
2.117
0
CIRCLE
8
INTERIOR_PROFILES
10
2029.524
20
1236.524
30
0
40
2.117
0
CIRCLE
8
INTERIOR_PROFILES
10
2479.524
20
1236.524
30
0
40
2.117
0
CIRCLE
8
INTERIOR_PROFILES
10
1798.262
20
1106.524
30
0
40
1.700
0
CIRCLE
8
INTERIOR_PROFILES
10
2779.524
20
948.524
30
0
40
2.117
0
CIRCLE
8
INTERIOR_PROFILES
10
2329.524
20
948.524
30
0
40
2.117
0
CIRCLE
8
INTERIOR_PROFILES
10
2329.524
20
1236.524
30
0
40
2.117
0
CIRCLE
8
INTERIOR_PROFILES
10
2229.524
20
948.524
30
0
40
2.117
0
CIRCLE
8
INTERIOR_PROFILES
10
1979.524
20
1236.524
30
0
40
2.117
0
CIRCLE
8
INTERIOR_PROFILES
10
2129.524
20
948.524
30
0
40
2.117
0
CIRCLE
8
INTERIOR_PROFILES
10
1979.524
20
948.524
30
0
40
2.117
0
CIRCLE
8
INTERIOR_PROFILES
10
2079.524
20
1236.524
30
0
40
2.117
0
CIRCLE
8
INTERIOR_PROFILES
10
2229.524
20
1236.524
30
0
40
2.117
0
CIRCLE
8
INTERIOR_PROFILES
10
2279.524
20
948.524
30
0
40
2.117
0
CIRCLE
8
INTERIOR_PROFILES
10
2429.524
20
948.524
30
0
40
2.117
0
CIRCLE
8
INTERIOR_PROFILES
10
2479.524
20
948.524
30
0
40
2.117
0
CIRCLE
8
INTERIOR_PROFILES
10
2529.524
20
1236.524
30
0
40
2.117
0
CIRCLE
8
INTERIOR_PROFILES
10
2429.524
20
1236.524
30
0
40
2.117
0
CIRCLE
8
INTERIOR_PROFILES
10
2629.524
20
948.524
30
0
40
2.117
0
CIRCLE
8
INTERIOR_PROFILES
10
2379.524
20
1236.524
30
0
40
2.117
0
CIRCLE
8
INTERIOR_PROFILES
10
2629.524
20
1236.524
30
0
40
2.117
0
CIRCLE
8
INTERIOR_PROFILES
10
1879.524
20
1236.524
30
0
40
2.117
0
CIRCLE
8
INTERIOR_PROFILES
10
2529.524
20
948.524
30
0
40
2.117
0
CIRCLE
8
INTERIOR_PROFILES
10
2679.524
20
948.524
30
0
40
2.117
0
CIRCLE
8
INTERIOR_PROFILES
10
2829.524
20
948.524
30
0
40
2.117
0
CIRCLE
8
INTERIOR_PROFILES
10
2829.524
20
1236.524
30
0
40
2.117
0
CIRCLE
8
INTERIOR_PROFILES
10
2279.524
20
1236.524
30
0
40
2.117
0
CIRCLE
8
INTERIOR_PROFILES
10
1831.524
20
916.524
30
0
40
1.700
0
CIRCLE
8
INTERIOR_PROFILES
10
2879.524
20
948.524
30
0
40
2.117
0
CIRCLE
8
INTERIOR_PROFILES
10
1863.524
20
1268.524
30
0
40
1.700
0
CIRCLE
8
INTERIOR_PROFILES
10
1879.524
20
1296.524
30
0
40
1.700
0
CIRCLE
8
INTERIOR_PROFILES
10
2947.524
20
916.524
30
0
40
1.700
0
CIRCLE
8
INTERIOR_PROFILES
10
2395.524
20
1268.524
30
0
40
1.700
0
CIRCLE
8
INTERIOR_PROFILES
10
2879.524
20
1296.524
30
0
40
1.700
0
CIRCLE
8
INTERIOR_PROFILES
10
2879.524
20
941.524
30
0
40
1.700
0
CIRCLE
8
INTERIOR_PROFILES
10
2895.524
20
1268.524
30
0
40
1.700
0
CIRCLE
8
INTERIOR_PROFILES
10
2379.524
20
941.524
30
0
40
1.700
0
CIRCLE
8
INTERIOR_PROFILES
10
2927.524
20
916.524
30
0
40
1.700
0
CIRCLE
8
INTERIOR_PROFILES
10
2960.786
20
1106.524
30
0
40
1.700
0
CIRCLE
8
INTERIOR_PROFILES
10
1811.524
20
916.524
30
0
40
1.700
0
CIRCLE
8
INTERIOR_PROFILES
10
2363.524
20
1268.524
30
0
40
1.700
0
CIRCLE
8
INTERIOR_PROFILES
10
2379.524
20
1296.524
30
0
40
1.700
0
CIRCLE
8
INTERIOR_PROFILES
10
2960.786
20
1293.024
30
0
40
1.700
0
CIRCLE
8
INTERIOR_PROFILES
10
2960.786
20
1273.524
30
0
40
1.700
0
CIRCLE
8
INTERIOR_PROFILES
10
2960.786
20
939.524
30
0
40
1.700
0
CIRCLE
8
INTERIOR_PROFILES
10
2960.786
20
920.024
30
0
40
1.700
0
CIRCLE
8
INTERIOR_PROFILES
10
2960.786
20
1283.274
30
0
40
6.500
0
CIRCLE
8
INTERIOR_PROFILES
10
1860.524
20
900.262
30
0
40
1.700
0
CIRCLE
8
INTERIOR_PROFILES
10
2863.524
20
1268.524
30
0
40
1.700
0
CIRCLE
8
INTERIOR_PROFILES
10
1879.524
20
941.524
30
0
40
1.700
0
CIRCLE
8
INTERIOR_PROFILES
10
1895.524
20
1268.524
30
0
40
1.700
0
CIRCLE
8
INTERIOR_PROFILES
10
2944.524
20
900.262
30
0
40
1.700
0
CIRCLE
8
INTERIOR_PROFILES
10
1814.524
20
900.262
30
0
40
1.700
0
CIRCLE
8
INTERIOR_PROFILES
10
2379.524
20
900.262
30
0
40
1.700
0
CIRCLE
8
INTERIOR_PROFILES
10
2898.524
20
900.262
30
0
40
1.700
0
ENDSEC
0
EOF