0
SECTION
2
HEADER
9
$INSUNITS
70
4
0
ENDSEC
0
SECTION
2
ENTITIES
0
LWPOLYLINE
8
SHEET_BORDER
90
5
70
1
10
0.000
20
0.000
10
3050.000
20
0.000
10
3050.000
20
1525.000
10
0.000
20
1525.000
10
0.000
20
0.000
0
TEXT
8
PART_LABELS
10
1451.000
20
436.000
30
0
40
50.000
1
2WL002-000000
72
1
73
2
11
1451.000
21
436.000
31
0
0
LWPOLYLINE
8
OUTER_PROFILES
90
4
70
1
10
0.000
20
0.000
10
2902.048
20
0.000
10
2902.048
20
872.000
10
0.000
20
872.000
0
TEXT
8
PART_LABELS
10
1309.500
20
1081.500
30
0
40
50.000
1
2CVH26-766LER
72
1
73
2
11
1309.500
21
1081.500
31
0
0
LWPOLYLINE
8
OUTER_PROFILES
90
52
70
1
10
9.495
20
879.424
42
0.414214
10
9.495
20
880.838
10
4.000
20
886.333
10
4.000
20
898.191
10
9.495
20
903.686
42
0.414214
10
9.495
20
905.100
10
3.954
20
910.641
42
-0.198912
10
0.000
20
920.186
10
0.000
20
1257.524
10
11.262
20
1257.524
10
11.262
20
1259.786
10
11.262
20
1269.048
10
11.262
20
1269.250
42
0.356394
10
19.262
20
1279.048
10
19.262
20
1289.048
10
1907.262
20
1289.048
10
1907.262
20
1257.524
10
1918.524
20
1257.524
10
1918.524
20
1168.524
10
1909.524
20
1159.524
10
1907.262
20
1159.524
10
1907.262
20
1156.524
10
1910.262
20
1156.524
10
1910.262
20
1158.786
10
1919.262
20
1167.786
10
2230.262
20
1167.786
10
2239.262
20
1158.786
10
2239.262
20
1156.524
10
2242.262
20
1156.524
10
2242.262
20
1159.524
10
2240.000
20
1159.524
10
2231.000
20
1168.524
10
2231.000
20
1257.524
10
2242.262
20
1257.524
10
2242.262
20
1289.048
10
2599.262
20
1289.048
10
2599.262
20
1279.048
42
0.356394
10
2607.262
20
1269.250
10
2607.262
20
1266.786
10
2607.262
20
1259.786
10
2607.262
20
1257.524
10
2618.524
20
1257.524
10
2618.524
20
920.186
42
-0.198912
10
2614.570
20
910.641
10
2609.029
20
905.100
42
0.414214
10
2609.029
20
903.686
10
2614.524
20
898.191
10
2614.524
20
886.333
10
2609.029
20
880.838
42
0.414214
10
2609.029
20
879.424
10
2614.453
20
874.000
10
4.071
20
874.000
0
CIRCLE
8
INTERIOR_PROFILES
10
1609.262
20
1279.048
30
0
40
1.700
0
CIRCLE
8
INTERIOR_PROFILES
10
1284.262
20
1279.048
30
0
40
1.700
0
CIRCLE
8
INTERIOR_PROFILES
10
1894.262
20
1226.524
30
0
40
6.500
0
CIRCLE
8
INTERIOR_PROFILES
10
1609.262
20
892.262
30
0
40
5.000
0
CIRCLE
8
INTERIOR_PROFILES
10
1009.262
20
1279.048
30
0
40
1.700
0
CIRCLE
8
INTERIOR_PROFILES
10
559.262
20
1279.048
30
0
40
1.700
0
CIRCLE
8
INTERIOR_PROFILES
10
2259.262
20
892.262
30
0
40
5.000
0
CIRCLE
8
INTERIOR_PROFILES
10
1334.262
20
1279.048
30
0
40
1.700
0
CIRCLE
8
INTERIOR_PROFILES
10
1509.262
20
1279.048
30
0
40
1.700
0
CIRCLE
8
INTERIOR_PROFILES
10
34.262
20
1279.048
30
0
40
1.700
0
CIRCLE
8
INTERIOR_PROFILES
10
1709.262
20
1279.048
30
0
40
1.700
0
CIRCLE
8
INTERIOR_PROFILES
10
159.262
20
1279.048
30
0
40
1.700
0
CIRCLE
8
INTERIOR_PROFILES
10
684.262
20
1279.048
30
0
40
1.700
0
CIRCLE
8
INTERIOR_PROFILES
10
1809.262
20
1279.048
30
0
40
1.700
0
CIRCLE
8
INTERIOR_PROFILES
10
1409.262
20
1279.048
30
0
40
1.700
0
CIRCLE
8
INTERIOR_PROFILES
10
1009.262
20
892.262
30
0
40
5.000
0
CIRCLE
8
INTERIOR_PROFILES
10
1209.262
20
1279.048
30
0
40
1.700
0
CIRCLE
8
INTERIOR_PROFILES
10
1109.262
20
1279.048
30
0
40
1.700
0
CIRCLE
8
INTERIOR_PROFILES
10
809.262
20
1279.048
30
0
40
1.700
0
CIRCLE
8
INTERIOR_PROFILES
10
1884.262
20
1279.048
30
0
40
1.700
0
CIRCLE
8
INTERIOR_PROFILES
10
359.262
20
1279.048
30
0
40
1.700
0
CIRCLE
8
INTERIOR_PROFILES
10
259.262
20
1279.048
30
0
40
1.700
0
CIRCLE
8
INTERIOR_PROFILES
10
359.262
20
892.262
30
0
40
5.000
0
CIRCLE
8
INTERIOR_PROFILES
10
734.262
20
1279.048
30
0
40
1.700
0
CIRCLE
8
INTERIOR_PROFILES
10
459.262
20
1279.048
30
0
40
1.700
0
CIRCLE
8
INTERIOR_PROFILES
10
909.262
20
1279.048
30
0
40
1.700
0
CIRCLE
8
INTERIOR_PROFILES
10
39.262
20
876.500
30
0
40
1.250
0
CIRCLE
8
INTERIOR_PROFILES
10
19.262
20
1181.524
30
0
40
1.700
0
CIRCLE
8
INTERIOR_PROFILES
10
1899.262
20
1211.524
30
0
40
1.700
0
CIRCLE
8
INTERIOR_PROFILES
10
1939.262
20
876.500
30
0
40
1.250
0
CIRCLE
8
INTERIOR_PROFILES
10
1279.262
20
876.500
30
0
40
1.250
0
CIRCLE
8
INTERIOR_PROFILES
10
2459.262
20
1279.048
30
0
40
1.700
0
CIRCLE
8
INTERIOR_PROFILES
10
2259.262
20
1279.048
30
0
40
1.700
0
CIRCLE
8
INTERIOR_PROFILES
10
1339.262
20
876.500
30
0
40
1.250
0
CIRCLE
8
INTERIOR_PROFILES
10
24.262
20
1226.524
30
0
40
6.500
0
CIRCLE
8
INTERIOR_PROFILES
10
1879.262
20
876.500
30
0
40
1.250
0
CIRCLE
8
INTERIOR_PROFILES
10
2579.262
20
876.500
30
0
40
1.250
0
CIRCLE
8
INTERIOR_PROFILES
10
1899.262
20
1241.524
30
0
40
1.700
0
CIRCLE
8
INTERIOR_PROFILES
10
19.262
20
1241.524
30
0
40
1.700
0
CIRCLE
8
INTERIOR_PROFILES
10
739.262
20
876.500
30
0
40
1.250
0
CIRCLE
8
INTERIOR_PROFILES
10
679.262
20
876.500
30
0
40
1.250
0
CIRCLE
8
INTERIOR_PROFILES
10
19.262
20
1211.524
30
0
40
1.700
0
CIRCLE
8
INTERIOR_PROFILES
10
2584.262
20
1279.048
30
0
40
1.700
0
CIRCLE
8
INTERIOR_PROFILES
10
2359.262
20
1279.048
30
0
40
1.700
0
CIRCLE
8
INTERIOR_PROFILES
10
1899.262
20
1181.524
30
0
40
1.700
0
CIRCLE
8
INTERIOR_PROFILES
10
2559.262
20
1279.048
30
0
40
1.700
0
TEXT
8
PART_LABELS
10
945.500
20
1395.000
30
0
40
50.000
1
2SHSH3-190015
72
1
73
2
11
945.500
21
1395.000
31
0
0
LWPOLYLINE
8
OUTER_PROFILES
90
34
70
1
10
11.445
20
1432.362
10
0.021
20
1443.786
10
11.445
20
1455.210
42
0.414214
10
11.445
20
1456.624
10
0.000
20
1468.068
10
0.000
20
1473.048
10
13.212
20
1473.048
10
13.212
20
1475.310
10
13.212
20
1483.310
10
13.212
20
1498.572
10
1878.212
20
1498.572
10
1878.212
20
1483.310
10
1878.212
20
1475.310
10
1878.212
20
1473.048
10
1891.424
20
1473.048
10
1891.424
20
1468.068
10
1879.979
20
1456.624
42
0.414214
10
1879.979
20
1455.210
10
1891.403
20
1443.786
10
1879.979
20
1432.362
42
0.414214
10
1879.979
20
1430.948
10
1891.424
20
1419.503
10
1891.424
20
1316.524
10
1878.212
20
1316.524
10
1878.212
20
1314.262
10
1878.212
20
1306.262
10
1878.212
20
1291.000
10
13.212
20
1291.000
10
13.212
20
1306.262
10
13.212
20
1314.262
10
13.212
20
1316.524
10
0.000
20
1316.524
10
0.000
20
1419.503
10
11.445
20
1430.948
42
0.414214
0
CIRCLE
8
INTERIOR_PROFILES
10
945.712
20
1436.786
30
0
40
1.700
0
CIRCLE
8
INTERIOR_PROFILES
10
1245.712
20
1495.572
30
0
40
1.700
0
CIRCLE
8
INTERIOR_PROFILES
10
945.712
20
1495.572
30
0
40
1.700
0
CIRCLE
8
INTERIOR_PROFILES
10
1545.712
20
1436.786
30
0
40
1.700
0
CIRCLE
8
INTERIOR_PROFILES
10
645.712
20
1495.572
30
0
40
1.700
0
CIRCLE
8
INTERIOR_PROFILES
10
345.712
20
1495.572
30
0
40
1.700
0
CIRCLE
8
INTERIOR_PROFILES
10
1845.712
20
1495.572
30
0
40
1.700
0
CIRCLE
8
INTERIOR_PROFILES
10
45.712
20
1436.786
30
0
40
1.700
0
CIRCLE
8
INTERIOR_PROFILES
10
345.712
20
1436.786
30
0
40
1.700
0
CIRCLE
8
INTERIOR_PROFILES
10
645.712
20
1436.786
30
0
40
1.700
0
CIRCLE
8
INTERIOR_PROFILES
10
1545.712
20
1495.572
30
0
40
1.700
0
CIRCLE
8
INTERIOR_PROFILES
10
45.712
20
1495.572
30
0
40
1.700
0
CIRCLE
8
INTERIOR_PROFILES
10
1245.712
20
1294.000
30
0
40
1.700
0
CIRCLE
8
INTERIOR_PROFILES
10
3.000
20
1417.524
30
0
40
1.700
0
CIRCLE
8
INTERIOR_PROFILES
10
645.712
20
1294.000
30
0
40
1.700
0
CIRCLE
8
INTERIOR_PROFILES
10
1545.712
20
1294.000
30
0
40
1.700
0
CIRCLE
8
INTERIOR_PROFILES
10
5.950
20
1470.048
30
0
40
1.700
0
CIRCLE
8
INTERIOR_PROFILES
10
945.712
20
1294.000
30
0
40
1.700
0
CIRCLE
8
INTERIOR_PROFILES
10
1845.712
20
1436.786
30
0
40
1.700
0
CIRCLE
8
INTERIOR_PROFILES
10
1845.712
20
1294.000
30
0
40
1.700
0
CIRCLE
8
INTERIOR_PROFILES
10
45.712
20
1294.000
30
0
40
1.700
0
CIRCLE
8
INTERIOR_PROFILES
10
3.000
20
1319.524
30
0
40
1.700
0
CIRCLE
8
INTERIOR_PROFILES
10
3.000
20
1368.524
30
0
40
1.700
0
CIRCLE
8
INTERIOR_PROFILES
10
1888.424
20
1319.524
30
0
40
1.700
0
CIRCLE
8
INTERIOR_PROFILES
10
1888.424
20
1368.524
30
0
40
1.700
0
CIRCLE
8
INTERIOR_PROFILES
10
1888.424
20
1417.524
30
0
40
1.700
0
CIRCLE
8
INTERIOR_PROFILES
10
1885.474
20
1470.048
30
0
40
1.700
0
CIRCLE
8
INTERIOR_PROFILES
10
1245.712
20
1436.786
30
0
40
1.700
0
CIRCLE
8
INTERIOR_PROFILES
10
345.712
20
1294.000
30
0
40
1.700
0
TEXT
8
PART_LABELS
10
2765.000
20
985.500
30
0
40
50.000
1
2SHCV1-190015
72
1
73
2
11
2765.000
21
985.500
31
0
0
LWPOLYLINE
8
OUTER_PROFILES
90
32
70
1
10
2646.262
20
911.624
10
2672.534
20
911.624
10
2672.534
20
874.000
10
2872.514
20
874.000
10
2872.514
20
911.624
10
2898.786
20
911.624
42
0.414214
10
2899.686
20
912.524
10
2899.686
20
919.624
10
2898.286
20
919.624
10
2898.286
20
920.624
10
2909.048
20
920.624
10
2909.048
20
1050.424
10
2898.286
20
1050.424
10
2898.286
20
1051.424
10
2899.686
20
1051.424
10
2899.686
20
1058.524
42
0.414214
10
2898.786
20
1059.424
10
2872.514
20
1059.424
10
2872.514
20
1097.048
10
2672.534
20
1097.048
10
2672.534
20
1059.424
10
2646.262
20
1059.424
42
0.414214
10
2645.362
20
1058.524
10
2645.362
20
1050.524
10
2646.262
20
1050.524
10
2646.262
20
1050.424
10
2621.000
20
1050.424
10
2621.000
20
920.624
10
2646.262
20
920.624
10
2646.262
20
920.524
10
2645.362
20
920.524
10
2645.362
20
912.524
42
0.414214
0
CIRCLE
8
INTERIOR_PROFILES
10
2890.786
20
970.524
30
0
40
1.700
0
CIRCLE
8
INTERIOR_PROFILES
10
2890.786
20
920.524
30
0
40
1.700
0
CIRCLE
8
INTERIOR_PROFILES
10
2890.786
20
1000.524
30
0
40
1.700
0
CIRCLE
8
INTERIOR_PROFILES
10
2626.000
20
1039.524
30
0
40
1.700
0
CIRCLE
8
INTERIOR_PROFILES
10
2890.786
20
940.524
30
0
40
1.700
0
CIRCLE
8
INTERIOR_PROFILES
10
2890.786
20
1030.524
30
0
40
1.700
0
CIRCLE
8
INTERIOR_PROFILES
10
2678.524
20
1029.524
30
0
40
4.000
0
CIRCLE
8
INTERIOR_PROFILES
10
2885.786
20
985.524
30
0
40
6.500
0
CIRCLE
8
INTERIOR_PROFILES
10
2890.786
20
1050.524
30
0
40
1.700
0
CIRCLE
8
INTERIOR_PROFILES
10
2626.000
20
931.524
30
0
40
1.700
0
CIRCLE
8
INTERIOR_PROFILES
10
2679.524
20
1045.524
30
0
40
1.700
0
CIRCLE
8
INTERIOR_PROFILES
10
2688.574
20
947.524
30
0
40
1.700
0
CIRCLE
8
INTERIOR_PROFILES
10
2688.574
20
1045.524
30
0
40
1.700
0
CIRCLE
8
INTERIOR_PROFILES
10
2688.574
20
996.524
30
0
40
1.700
0
CIRCLE
8
INTERIOR_PROFILES
10
2688.574
20
974.524
30
0
40
1.700
0
CIRCLE
8
INTERIOR_PROFILES
10
2679.524
20
925.524
30
0
40
1.700
0
CIRCLE
8
INTERIOR_PROFILES
10
2692.524
20
1039.524
30
0
40
4.000
0
CIRCLE
8
INTERIOR_PROFILES
10
2688.574
20
925.524
30
0
40
1.700
0
CIRCLE
8
INTERIOR_PROFILES
10
2688.574
20
1023.524
30
0
40
1.700
0
CIRCLE
8
INTERIOR_PROFILES
10
2678.524
20
941.524
30
0
40
4.000
0
CIRCLE
8
INTERIOR_PROFILES
10
2692.524
20
931.524
30
0
40
4.000
0
TEXT
8
PART_LABELS
10
2765.000
20
1210.500
30
0
40
50.000
1
2SHCV1-190015
72
1
73
2
11
2765.000
21
1210.500
31
0
0
LWPOLYLINE
8
OUTER_PROFILES
90
32
70
1
10
2646.262
20
1136.624
10
2672.534
20
1136.624
10
2672.534
20
1099.000
10
2872.514
20
1099.000
10
2872.514
20
1136.624
10
2898.786
20
1136.624
42
0.414214
10
2899.686
20
1137.524
10
2899.686
20
1144.624
10
2898.286
20
1144.624
10
2898.286
20
1145.624
10
2909.048
20
1145.624
10
2909.048
20
1275.424
10
2898.286
20
1275.424
10
2898.286
20
1276.424
10
2899.686
20
1276.424
10
2899.686
20
1283.524
42
0.414214
10
2898.786
20
1284.424
10
2872.514
20
1284.424
10
2872.514
20
1322.048
10
2672.534
20
1322.048
10
2672.534
20
1284.424
10
2646.262
20
1284.424
42
0.414214
10
2645.362
20
1283.524
10
2645.362
20
1275.524
10
2646.262
20
1275.524
10
2646.262
20
1275.424
10
2621.000
20
1275.424
10
2621.000
20
1145.624
10
2646.262
20
1145.624
10
2646.262
20
1145.524
10
2645.362
20
1145.524
10
2645.362
20
1137.524
42
0.414214
0
CIRCLE
8
INTERIOR_PROFILES
10
2890.786
20
1195.524
30
0
40
1.700
0
CIRCLE
8
INTERIOR_PROFILES
10
2890.786
20
1145.524
30
0
40
1.700
0
CIRCLE
8
INTERIOR_PROFILES
10
2890.786
20
1225.524
30
0
40
1.700
0
CIRCLE
8
INTERIOR_PROFILES
10
2626.000
20
1264.524
30
0
40
1.700
0
CIRCLE
8
INTERIOR_PROFILES
10
2890.786
20
1165.524
30
0
40
1.700
0
CIRCLE
8
INTERIOR_PROFILES
10
2890.786
20
1255.524
30
0
40
1.700
0
CIRCLE
8
INTERIOR_PROFILES
10
2678.524
20
1254.524
30
0
40
4.000
0
CIRCLE
8
INTERIOR_PROFILES
10
2885.786
20
1210.524
30
0
40
6.500
0
CIRCLE
8
INTERIOR_PROFILES
10
2890.786
20
1275.524
30
0
40
1.700
0
CIRCLE
8
INTERIOR_PROFILES
10
2626.000
20
1156.524
30
0
40
1.700
0
CIRCLE
8
INTERIOR_PROFILES
10
2679.524
20
1270.524
30
0
40
1.700
0
CIRCLE
8
INTERIOR_PROFILES
10
2688.574
20
1172.524
30
0
40
1.700
0
CIRCLE
8
INTERIOR_PROFILES
10
2688.574
20
1270.524
30
0
40
1.700
0
CIRCLE
8
INTERIOR_PROFILES
10
2688.574
20
1221.524
30
0
40
1.700
0
CIRCLE
8
INTERIOR_PROFILES
10
2688.574
20
1199.524
30
0
40
1.700
0
CIRCLE
8
INTERIOR_PROFILES
10
2679.524
20
1150.524
30
0
40
1.700
0
CIRCLE
8
INTERIOR_PROFILES
10
2692.524
20
1264.524
30
0
40
4.000
0
CIRCLE
8
INTERIOR_PROFILES
10
2688.574
20
1150.524
30
0
40
1.700
0
CIRCLE
8
INTERIOR_PROFILES
10
2688.574
20
1248.524
30
0
40
1.700
0
CIRCLE
8
INTERIOR_PROFILES
10
2678.524
20
1166.524
30
0
40
4.000
0
CIRCLE
8
INTERIOR_PROFILES
10
2692.524
20
1156.524
30
0
40
4.000
0
TEXT
8
PART_LABELS
10
2037.000
20
1402.500
30
0
40
50.000
1
2SHCV1-190015
72
1
73
2
11
2037.000
21
1402.500
31
0
0
LWPOLYLINE
8
OUTER_PROFILES
90
32
70
1
10
1918.262
20
1328.624
10
1944.534
20
1328.624
10
1944.534
20
1291.000
10
2144.514
20
1291.000
10
2144.514
20
1328.624
10
2170.786
20
1328.624
42
0.414214
10
2171.686
20
1329.524
10
2171.686
20
1336.624
10
2170.286
20
1336.624
10
2170.286
20
1337.624
10
2181.048
20
1337.624
10
2181.048
20
1467.424
10
2170.286
20
1467.424
10
2170.286
20
1468.424
10
2171.686
20
1468.424
10
2171.686
20
1475.524
42
0.414214
10
2170.786
20
1476.424
10
2144.514
20
1476.424
10
2144.514
20
1514.048
10
1944.534
20
1514.048
10
1944.534
20
1476.424
10
1918.262
20
1476.424
42
0.414214
10
1917.362
20
1475.524
10
1917.362
20
1467.524
10
1918.262
20
1467.524
10
1918.262
20
1467.424
10
1893.000
20
1467.424
10
1893.000
20
1337.624
10
1918.262
20
1337.624
10
1918.262
20
1337.524
10
1917.362
20
1337.524
10
1917.362
20
1329.524
42
0.414214
0
CIRCLE
8
INTERIOR_PROFILES
10
2162.786
20
1387.524
30
0
40
1.700
0
CIRCLE
8
INTERIOR_PROFILES
10
2162.786
20
1337.524
30
0
40
1.700
0
CIRCLE
8
INTERIOR_PROFILES
10
2162.786
20
1417.524
30
0
40
1.700
0
CIRCLE
8
INTERIOR_PROFILES
10
1898.000
20
1456.524
30
0
40
1.700
0
CIRCLE
8
INTERIOR_PROFILES
10
2162.786
20
1357.524
30
0
40
1.700
0
CIRCLE
8
INTERIOR_PROFILES
10
2162.786
20
1447.524
30
0
40
1.700
0
CIRCLE
8
INTERIOR_PROFILES
10
1950.524
20
1446.524
30
0
40
4.000
0
CIRCLE
8
INTERIOR_PROFILES
10
2157.786
20
1402.524
30
0
40
6.500
0
CIRCLE
8
INTERIOR_PROFILES
10
2162.786
20
1467.524
30
0
40
1.700
0
CIRCLE
8
INTERIOR_PROFILES
10
1898.000
20
1348.524
30
0
40
1.700
0
CIRCLE
8
INTERIOR_PROFILES
10
1951.524
20
1462.524
30
0
40
1.700
0
CIRCLE
8
INTERIOR_PROFILES
10
1960.574
20
1364.524
30
0
40
1.700
0
CIRCLE
8
INTERIOR_PROFILES
10
1960.574
20
1462.524
30
0
40
1.700
0
CIRCLE
8
INTERIOR_PROFILES
10
1960.574
20
1413.524
30
0
40
1.700
0
CIRCLE
8
INTERIOR_PROFILES
10
1960.574
20
1391.524
30
0
40
1.700
0
CIRCLE
8
INTERIOR_PROFILES
10
1951.524
20
1342.524
30
0
40
1.700
0
CIRCLE
8
INTERIOR_PROFILES
10
1964.524
20
1456.524
30
0
40
4.000
0
CIRCLE
8
INTERIOR_PROFILES
10
1960.574
20
1342.524
30
0
40
1.700
0
CIRCLE
8
INTERIOR_PROFILES
10
1960.574
20
1440.524
30
0
40
1.700
0
CIRCLE
8
INTERIOR_PROFILES
10
1950.524
20
1358.524
30
0
40
4.000
0
CIRCLE
8
INTERIOR_PROFILES
10
1964.524
20
1348.524
30
0
40
4.000
0
TEXT
8
PART_LABELS
10
2313.500
20
1396.500
30
0
40
50.000
1
2SHCV2-190015
72
1
73
2
11
2313.500
21
1396.500
31
0
0
LINE
8
OUTER_PROFILES
10
2213.534
20
1295.262
30
0
11
2215.595
21
1293.000
31
0
0
LINE
8
OUTER_PROFILES
10
2215.595
20
1293.000
30
0
11
2217.595
21
1291.000
31
0
0
LINE
8
OUTER_PROFILES
10
2217.595
20
1291.000
30
0
11
2409.443
21
1291.000
31
0
0
LINE
8
OUTER_PROFILES
10
2409.443
20
1291.000
30
0
11
2411.443
21
1293.000
31
0
0
LINE
8
OUTER_PROFILES
10
2411.443
20
1293.000
30
0
11
2413.504
21
1295.262
31
0
0
LINE
8
OUTER_PROFILES
10
2413.504
20
1295.262
30
0
11
2413.504
21
1322.624
31
0
0
LINE
8
OUTER_PROFILES
10
2413.504
20
1322.624
30
0
11
2440.125
21
1322.624
31
0
0
ARC
8
OUTER_PROFILES
10
2438.802
20
1327.601
30
0
40
5.150
50
284.8898
51
308.9298
0
LINE
8
OUTER_PROFILES
10
2442.038
20
1323.595
30
0
11
2444.038
21
1325.595
31
0
0
LINE
8
OUTER_PROFILES
10
2444.038
20
1325.595
30
0
11
2444.038
21
1467.453
31
0
0
LINE
8
OUTER_PROFILES
10
2444.038
20
1467.453
30
0
11
2442.038
21
1469.453
31
0
0
ARC
8
OUTER_PROFILES
10
2438.802
20
1465.447
30
0
40
5.150
50
51.0702
51
75.1102
0
LINE
8
OUTER_PROFILES
10
2440.125
20
1470.424
30
0
11
2413.504
21
1470.424
31
0
0
LINE
8
OUTER_PROFILES
10
2413.504
20
1470.424
30
0
11
2413.504
21
1497.786
31
0
0
LINE
8
OUTER_PROFILES
10
2413.504
20
1497.786
30
0
11
2411.443
21
1500.048
31
0
0
LINE
8
OUTER_PROFILES
10
2411.443
20
1500.048
30
0
11
2409.443
21
1502.048
31
0
0
LINE
8
OUTER_PROFILES
10
2409.443
20
1502.048
30
0
11
2217.595
21
1502.048
31
0
0
LINE
8
OUTER_PROFILES
10
2217.595
20
1502.048
30
0
11
2215.595
21
1500.048
31
0
0
LINE
8
OUTER_PROFILES
10
2215.595
20
1500.048
30
0
11
2213.534
21
1497.786
31
0
0
LINE
8
OUTER_PROFILES
10
2213.534
20
1497.786
30
0
11
2213.534
21
1470.424
31
0
0
LINE
8
OUTER_PROFILES
10
2213.534
20
1470.424
30
0
11
2186.913
21
1470.424
31
0
0
ARC
8
OUTER_PROFILES
10
2188.236
20
1465.447
30
0
40
5.150
50
104.8898
51
128.9298
0
LINE
8
OUTER_PROFILES
10
2185.000
20
1469.453
30
0
11
2183.000
21
1467.453
31
0
0
LINE
8
OUTER_PROFILES
10
2183.000
20
1467.453
30
0
11
2183.000
21
1325.595
31
0
0
LINE
8
OUTER_PROFILES
10
2183.000
20
1325.595
30
0
11
2185.000
21
1323.595
31
0
0
ARC
8
OUTER_PROFILES
10
2188.236
20
1327.601
30
0
40
5.150
50
231.0702
51
255.1102
0
LINE
8
OUTER_PROFILES
10
2186.913
20
1322.624
30
0
11
2213.534
21
1322.624
31
0
0
LINE
8
OUTER_PROFILES
10
2213.534
20
1322.624
30
0
11
2213.534
21
1295.262
31
0
0
CIRCLE
8
INTERIOR_PROFILES
10
2200.262
20
1411.524
30
0
40
1.700
0
CIRCLE
8
INTERIOR_PROFILES
10
2200.262
20
1396.524
30
0
40
6.500
0
CIRCLE
8
INTERIOR_PROFILES
10
2399.504
20
1308.262
30
0
40
9.250
0
CIRCLE
8
INTERIOR_PROFILES
10
2200.262
20
1441.524
30
0
40
1.700
0
CIRCLE
8
INTERIOR_PROFILES
10
2200.262
20
1351.524
30
0
40
1.700
0
CIRCLE
8
INTERIOR_PROFILES
10
2200.262
20
1381.524
30
0
40
1.700
0
TEXT
8
PART_LABELS
10
2569.500
20
1422.500
30
0
40
49.250
1
2SHCV3-190015
72
1
73
2
11
2569.500
21
1422.500
31
0
0
LINE
8
OUTER_PROFILES
10
2670.514
20
1374.262
30
0
11
2670.514
21
1470.262
31
0
0
LINE
8
OUTER_PROFILES
10
2670.514
20
1470.262
30
0
11
2692.514
21
1470.262
31
0
0
LINE
8
OUTER_PROFILES
10
2692.514
20
1470.262
30
0
11
2692.514
21
1492.191
31
0
0
LINE
8
OUTER_PROFILES
10
2692.514
20
1492.191
30
0
11
2665.514
21
1492.191
31
0
0
ARC
8
OUTER_PROFILES
10
2666.042
20
1487.939
30
0
40
4.285
50
97.0769
51
130.6233
0
LINE
8
OUTER_PROFILES
10
2663.252
20
1491.191
30
0
11
2663.181
21
1491.262
31
0
0
ARC
8
OUTER_PROFILES
10
2659.929
20
1494.052
30
0
40
4.285
50
319.3767
51
352.9231
0
LINE
8
OUTER_PROFILES
10
2664.181
20
1493.524
30
0
11
2664.181
21
1520.524
31
0
0
LINE
8
OUTER_PROFILES
10
2664.181
20
1520.524
30
0
11
2474.333
21
1520.524
31
0
0
LINE
8
OUTER_PROFILES
10
2474.333
20
1520.524
30
0
11
2474.333
21
1493.524
31
0
0
ARC
8
OUTER_PROFILES
10
2478.585
20
1494.052
30
0
40
4.285
50
187.0769
51
220.6233
0
LINE
8
OUTER_PROFILES
10
2475.333
20
1491.262
30
0
11
2475.262
21
1491.191
31
0
0
ARC
8
OUTER_PROFILES
10
2472.472
20
1487.939
30
0
40
4.285
50
49.3767
51
82.9231
0
LINE
8
OUTER_PROFILES
10
2473.000
20
1492.191
30
0
11
2446.000
21
1492.191
31
0
0
LINE
8
OUTER_PROFILES
10
2446.000
20
1492.191
30
0
11
2446.000
21
1470.262
31
0
0
LINE
8
OUTER_PROFILES
10
2446.000
20
1470.262
30
0
11
2475.262
21
1470.262
31
0
0
ARC
8
OUTER_PROFILES
10
2475.262
20
1466.262
30
0
40
4.000
50
270.0000
51
90.0000
0
LINE
8
OUTER_PROFILES
10
2475.262
20
1462.262
30
0
11
2475.262
21
1382.262
31
0
0
ARC
8
OUTER_PROFILES
10
2475.262
20
1378.262
30
0
40
4.000
50
270.0000
51
90.0000
0
LINE
8
OUTER_PROFILES
10
2475.262
20
1374.262
30
0
11
2446.000
21
1374.262
31
0
0
LINE
8
OUTER_PROFILES
10
2446.000
20
1374.262
30
0
11
2446.000
21
1352.333
31
0
0
LINE
8
OUTER_PROFILES
10
2446.000
20
1352.333
30
0
11
2473.000
21
1352.333
31
0
0
ARC
8
OUTER_PROFILES
10
2472.472
20
1356.585
30
0
40
4.285
50
277.0769
51
310.6233
0
LINE
8
OUTER_PROFILES
10
2475.262
20
1353.333
30
0
11
2475.333
21
1353.262
31
0
0
ARC
8
OUTER_PROFILES
10
2478.585
20
1350.472
30
0
40
4.285
50
139.3767
51
172.9231
0
LINE
8
OUTER_PROFILES
10
2474.333
20
1351.000
30
0
11
2474.333
21
1347.250
31
0
0
LINE
8
OUTER_PROFILES
10
2474.333
20
1347.250
30
0
11
2483.272
21
1347.250
31
0
0
ARC
8
OUTER_PROFILES
10
2483.272
20
1338.000
30
0
40
9.250
50
270.0000
51
90.0000
0
LINE
8
OUTER_PROFILES
10
2483.272
20
1328.750
30
0
11
2474.333
21
1328.750
31
0
0
LINE
8
OUTER_PROFILES
10
2474.333
20
1328.750
30
0
11
2474.333
21
1324.000
31
0
0
LINE
8
OUTER_PROFILES
10
2474.333
20
1324.000
30
0
11
2664.181
21
1324.000
31
0
0
LINE
8
OUTER_PROFILES
10
2664.181
20
1324.000
30
0
11
2664.181
21
1351.000
31
0
0
ARC
8
OUTER_PROFILES
10
2659.929
20
1350.472
30
0
40
4.285
50
7.0769
51
40.6233
0
LINE
8
OUTER_PROFILES
10
2663.181
20
1353.262
30
0
11
2663.252
21
1353.333
31
0
0
ARC
8
OUTER_PROFILES
10
2666.042
20
1356.585
30
0
40
4.285
50
229.3767
51
262.9231
0
LINE
8
OUTER_PROFILES
10
2665.514
20
1352.333
30
0
11
2692.514
21
1352.333
31
0
0
LINE
8
OUTER_PROFILES
10
2692.514
20
1352.333
30
0
11
2692.514
21
1374.262
31
0
0
LINE
8
OUTER_PROFILES
10
2692.514
20
1374.262
30
0
11
2670.514
21
1374.262
31
0
0
ARC
8
INTERIOR_PROFILES
10
2476.844
20
1482.262
30
0
40
2.096
50
139.0022
51
220.9978
0
ARC
8
INTERIOR_PROFILES
10
2476.262
20
1482.262
30
0
40
1.700
50
233.9681
51
126.0319
0
ARC
8
INTERIOR_PROFILES
10
2476.844
20
1362.262
30
0
40
2.096
50
139.0022
51
220.9978
0
ARC
8
INTERIOR_PROFILES
10
2476.262
20
1362.262
30
0
40
1.700
50
233.9681
51
126.0319
0
CIRCLE
8
INTERIOR_PROFILES
10
2489.262
20
1476.262
30
0
40
4.000
0
CIRCLE
8
INTERIOR_PROFILES
10
2485.312
20
1433.262
30
0
40
1.700
0
CIRCLE
8
INTERIOR_PROFILES
10
2489.262
20
1368.262
30
0
40
4.000
0
CIRCLE
8
INTERIOR_PROFILES
10
2485.312
20
1482.262
30
0
40
1.700
0
CIRCLE
8
INTERIOR_PROFILES
10
2485.312
20
1384.262
30
0
40
1.700
0
CIRCLE
8
INTERIOR_PROFILES
10
2485.312
20
1362.262
30
0
40
1.700
0
CIRCLE
8
INTERIOR_PROFILES
10
2485.312
20
1411.262
30
0
40
1.700
0
CIRCLE
8
INTERIOR_PROFILES
10
2485.312
20
1460.262
30
0
40
1.700
0
TEXT
8
PART_LABELS
10
2937.000
20
353.500
30
0
40
15.000
1
2BK002-070000
72
1
73
2
11
2937.000
21
353.500
31
0
0
ARC
8
OUTER_PROFILES
10
2919.260
20
26.834
30
0
40
4.272
50
229.3224
51
262.9774
0
LINE
8
OUTER_PROFILES
10
2916.476
20
23.595
30
0
11
2911.476
21
28.595
31
0
0
LINE
8
OUTER_PROFILES
10
2911.476
20
28.595
30
0
11
2911.476
21
678.453
31
0
0
LINE
8
OUTER_PROFILES
10
2911.476
20
678.453
30
0
11
2916.476
21
683.453
31
0
0
ARC
8
OUTER_PROFILES
10
2919.260
20
680.214
30
0
40
4.272
50
97.0226
51
130.6776
0
LINE
8
OUTER_PROFILES
10
2918.738
20
684.453
30
0
11
2932.738
21
684.453
31
0
0
ARC
8
OUTER_PROFILES
10
2932.210
20
680.201
30
0
40
4.285
50
49.3767
51
82.9231
0
LINE
8
OUTER_PROFILES
10
2935.000
20
683.453
30
0
11
2935.071
21
683.524
31
0
0
ARC
8
OUTER_PROFILES
10
2938.323
20
686.314
30
0
40
4.285
50
187.0769
51
220.6233
0
LINE
8
OUTER_PROFILES
10
2934.071
20
685.786
30
0
11
2934.071
21
699.786
31
0
0
ARC
8
OUTER_PROFILES
10
2938.310
20
699.264
30
0
40
4.272
50
139.3224
51
172.9774
0
LINE
8
OUTER_PROFILES
10
2935.071
20
702.048
30
0
11
2940.071
21
707.048
31
0
0
LINE
8
OUTER_PROFILES
10
2940.071
20
707.048
30
0
11
2963.000
21
707.048
31
0
0
LINE
8
OUTER_PROFILES
10
2963.000
20
707.048
30
0
11
2963.000
21
0.000
31
0
0
LINE
8
OUTER_PROFILES
10
2963.000
20
0.000
30
0
11
2940.071
21
0.000
31
0
0
LINE
8
OUTER_PROFILES
10
2940.071
20
0.000
30
0
11
2935.071
21
5.000
31
0
0
ARC
8
OUTER_PROFILES
10
2938.310
20
7.784
30
0
40
4.272
50
187.0226
51
220.6776
0
LINE
8
OUTER_PROFILES
10
2934.071
20
7.262
30
0
11
2934.071
21
21.262
31
0
0
ARC
8
OUTER_PROFILES
10
2938.323
20
20.734
30
0
40
4.285
50
139.3767
51
172.9231
0
LINE
8
OUTER_PROFILES
10
2935.071
20
23.524
30
0
11
2935.000
21
23.595
31
0
0
ARC
8
OUTER_PROFILES
10
2932.210
20
26.847
30
0
40
4.285
50
277.0769
51
310.6233
0
LINE
8
OUTER_PROFILES
10
2932.738
20
22.595
30
0
11
2918.738
21
22.595
31
0
0
CIRCLE
8
INTERIOR_PROFILES
10
2942.000
20
42.262
30
0
40
1.700
0
CIRCLE
8
INTERIOR_PROFILES
10
2953.000
20
453.524
30
0
40
5.000
0
CIRCLE
8
INTERIOR_PROFILES
10
2942.000
20
618.786
30
0
40
1.700
0
CIRCLE
8
INTERIOR_PROFILES
10
2942.000
20
88.262
30
0
40
1.700
0
CIRCLE
8
INTERIOR_PROFILES
10
2953.000
20
353.524
30
0
40
5.000
0
CIRCLE
8
INTERIOR_PROFILES
10
2953.000
20
253.524
30
0
40
5.000
0
CIRCLE
8
INTERIOR_PROFILES
10
2942.000
20
664.786
30
0
40
1.700
0
CIRCLE
8
INTERIOR_PROFILES
10
2953.000
20
153.524
30
0
40
5.000
0
CIRCLE
8
INTERIOR_PROFILES
10
2953.000
20
653.524
30
0
40
5.000
0
CIRCLE
8
INTERIOR_PROFILES
10
2953.000
20
53.524
30
0
40
5.000
0
CIRCLE
8
INTERIOR_PROFILES
10
2953.000
20
553.524
30
0
40
5.000
0
CIRCLE
8
INTERIOR_PROFILES
10
2925.738
20
653.524
30
0
40
1.700
0
CIRCLE
8
INTERIOR_PROFILES
10
2925.738
20
253.524
30
0
40
1.700
0
CIRCLE
8
INTERIOR_PROFILES
10
2925.738
20
453.524
30
0
40
1.700
0
CIRCLE
8
INTERIOR_PROFILES
10
2959.000
20
692.786
30
0
40
1.700
0
CIRCLE
8
INTERIOR_PROFILES
10
2959.000
20
14.262
30
0
40
1.700
0
CIRCLE
8
INTERIOR_PROFILES
10
2925.738
20
53.524
30
0
40
1.700
0
CIRCLE
8
INTERIOR_PROFILES
10
2939.000
20
14.262
30
0
40
1.700
0
CIRCLE
8
INTERIOR_PROFILES
10
2925.738
20
553.524
30
0
40
1.700
0
CIRCLE
8
INTERIOR_PROFILES
10
2939.000
20
692.786
30
0
40
1.700
0
CIRCLE
8
INTERIOR_PROFILES
10
2925.738
20
353.524
30
0
40
1.700
0
CIRCLE
8
INTERIOR_PROFILES
10
2925.738
20
153.524
30
0
40
1.700
0
TEXT
8
PART_LABELS
10
2991.000
20
353.500
30
0
40
15.000
1
2BK002-070000
72
1
73
2
11
2991.000
21
353.500
31
0
0
ARC
8
OUTER_PROFILES
10
2973.260
20
26.834
30
0
40
4.272
50
229.3224
51
262.9774
0
LINE
8
OUTER_PROFILES
10
2970.476
20
23.595
30
0
11
2965.476
21
28.595
31
0
0
LINE
8
OUTER_PROFILES
10
2965.476
20
28.595
30
0
11
2965.476
21
678.453
31
0
0
LINE
8
OUTER_PROFILES
10
2965.476
20
678.453
30
0
11
2970.476
21
683.453
31
0
0
ARC
8
OUTER_PROFILES
10
2973.260
20
680.214
30
0
40
4.272
50
97.0226
51
130.6776
0
LINE
8
OUTER_PROFILES
10
2972.738
20
684.453
30
0
11
2986.738
21
684.453
31
0
0
ARC
8
OUTER_PROFILES
10
2986.210
20
680.201
30
0
40
4.285
50
49.3767
51
82.9231
0
LINE
8
OUTER_PROFILES
10
2989.000
20
683.453
30
0
11
2989.071
21
683.524
31
0
0
ARC
8
OUTER_PROFILES
10
2992.323
20
686.314
30
0
40
4.285
50
187.0769
51
220.6233
0
LINE
8
OUTER_PROFILES
10
2988.071
20
685.786
30
0
11
2988.071
21
699.786
31
0
0
ARC
8
OUTER_PROFILES
10
2992.310
20
699.264
30
0
40
4.272
50
139.3224
51
172.9774
0
LINE
8
OUTER_PROFILES
10
2989.071
20
702.048
30
0
11
2994.071
21
707.048
31
0
0
LINE
8
OUTER_PROFILES
10
2994.071
20
707.048
30
0
11
3017.000
21
707.048
31
0
0
LINE
8
OUTER_PROFILES
10
3017.000
20
707.048
30
0
11
3017.000
21
0.000
31
0
0
LINE
8
OUTER_PROFILES
10
3017.000
20
0.000
30
0
11
2994.071
21
0.000
31
0
0
LINE
8
OUTER_PROFILES
10
2994.071
20
0.000
30
0
11
2989.071
21
5.000
31
0
0
ARC
8
OUTER_PROFILES
10
2992.310
20
7.784
30
0
40
4.272
50
187.0226
51
220.6776
0
LINE
8
OUTER_PROFILES
10
2988.071
20
7.262
30
0
11
2988.071
21
21.262
31
0
0
ARC
8
OUTER_PROFILES
10
2992.323
20
20.734
30
0
40
4.285
50
139.3767
51
172.9231
0
LINE
8
OUTER_PROFILES
10
2989.071
20
23.524
30
0
11
2989.000
21
23.595
31
0
0
ARC
8
OUTER_PROFILES
10
2986.210
20
26.847
30
0
40
4.285
50
277.0769
51
310.6233
0
LINE
8
OUTER_PROFILES
10
2986.738
20
22.595
30
0
11
2972.738
21
22.595
31
0
0
CIRCLE
8
INTERIOR_PROFILES
10
2996.000
20
42.262
30
0
40
1.700
0
CIRCLE
8
INTERIOR_PROFILES
10
3007.000
20
453.524
30
0
40
5.000
0
CIRCLE
8
INTERIOR_PROFILES
10
2996.000
20
618.786
30
0
40
1.700
0
CIRCLE
8
INTERIOR_PROFILES
10
2996.000
20
88.262
30
0
40
1.700
0
CIRCLE
8
INTERIOR_PROFILES
10
3007.000
20
353.524
30
0
40
5.000
0
CIRCLE
8
INTERIOR_PROFILES
10
3007.000
20
253.524
30
0
40
5.000
0
CIRCLE
8
INTERIOR_PROFILES
10
2996.000
20
664.786
30
0
40
1.700
0
CIRCLE
8
INTERIOR_PROFILES
10
3007.000
20
153.524
30
0
40
5.000
0
CIRCLE
8
INTERIOR_PROFILES
10
3007.000
20
653.524
30
0
40
5.000
0
CIRCLE
8
INTERIOR_PROFILES
10
3007.000
20
53.524
30
0
40
5.000
0
CIRCLE
8
INTERIOR_PROFILES
10
3007.000
20
553.524
30
0
40
5.000
0
CIRCLE
8
INTERIOR_PROFILES
10
2979.738
20
653.524
30
0
40
1.700
0
CIRCLE
8
INTERIOR_PROFILES
10
2979.738
20
253.524
30
0
40
1.700
0
CIRCLE
8
INTERIOR_PROFILES
10
2979.738
20
453.524
30
0
40
1.700
0
CIRCLE
8
INTERIOR_PROFILES
10
3013.000
20
692.786
30
0
40
1.700
0
CIRCLE
8
INTERIOR_PROFILES
10
3013.000
20
14.262
30
0
40
1.700
0
CIRCLE
8
INTERIOR_PROFILES
10
2979.738
20
53.524
30
0
40
1.700
0
CIRCLE
8
INTERIOR_PROFILES
10
2993.000
20
14.262
30
0
40
1.700
0
CIRCLE
8
INTERIOR_PROFILES
10
2979.738
20
553.524
30
0
40
1.700
0
CIRCLE
8
INTERIOR_PROFILES
10
2993.000
20
692.786
30
0
40
1.700
0
CIRCLE
8
INTERIOR_PROFILES
10
2979.738
20
353.524
30
0
40
1.700
0
CIRCLE
8
INTERIOR_PROFILES
10
2979.738
20
153.524
30
0
40
1.700
0
TEXT
8
PART_LABELS
10
2937.000
20
1062.500
30
0
40
15.000
1
2BK002-070000
72
1
73
2
11
2937.000
21
1062.500
31
0
0
ARC
8
OUTER_PROFILES
10
2919.260
20
735.834
30
0
40
4.272
50
229.3224
51
262.9774
0
LINE
8
OUTER_PROFILES
10
2916.476
20
732.595
30
0
11
2911.476
21
737.595
31
0
0
LINE
8
OUTER_PROFILES
10
2911.476
20
737.595
30
0
11
2911.476
21
1387.453
31
0
0
LINE
8
OUTER_PROFILES
10
2911.476
20
1387.453
30
0
11
2916.476
21
1392.453
31
0
0
ARC
8
OUTER_PROFILES
10
2919.260
20
1389.214
30
0
40
4.272
50
97.0226
51
130.6776
0
LINE
8
OUTER_PROFILES
10
2918.738
20
1393.453
30
0
11
2932.738
21
1393.453
31
0
0
ARC
8
OUTER_PROFILES
10
2932.210
20
1389.201
30
0
40
4.285
50
49.3767
51
82.9231
0
LINE
8
OUTER_PROFILES
10
2935.000
20
1392.453
30
0
11
2935.071
21
1392.524
31
0
0
ARC
8
OUTER_PROFILES
10
2938.323
20
1395.314
30
0
40
4.285
50
187.0769
51
220.6233
0
LINE
8
OUTER_PROFILES
10
2934.071
20
1394.786
30
0
11
2934.071
21
1408.786
31
0
0
ARC
8
OUTER_PROFILES
10
2938.310
20
1408.264
30
0
40
4.272
50
139.3224
51
172.9774
0
LINE
8
OUTER_PROFILES
10
2935.071
20
1411.048
30
0
11
2940.071
21
1416.048
31
0
0
LINE
8
OUTER_PROFILES
10
2940.071
20
1416.048
30
0
11
2963.000
21
1416.048
31
0
0
LINE
8
OUTER_PROFILES
10
2963.000
20
1416.048
30
0
11
2963.000
21
709.000
31
0
0
LINE
8
OUTER_PROFILES
10
2963.000
20
709.000
30
0
11
2940.071
21
709.000
31
0
0
LINE
8
OUTER_PROFILES
10
2940.071
20
709.000
30
0
11
2935.071
21
714.000
31
0
0
ARC
8
OUTER_PROFILES
10
2938.310
20
716.784
30
0
40
4.272
50
187.0226
51
220.6776
0
LINE
8
OUTER_PROFILES
10
2934.071
20
716.262
30
0
11
2934.071
21
730.262
31
0
0
ARC
8
OUTER_PROFILES
10
2938.323
20
729.734
30
0
40
4.285
50
139.3767
51
172.9231
0
LINE
8
OUTER_PROFILES
10
2935.071
20
732.524
30
0
11
2935.000
21
732.595
31
0
0
ARC
8
OUTER_PROFILES
10
2932.210
20
735.847
30
0
40
4.285
50
277.0769
51
310.6233
0
LINE
8
OUTER_PROFILES
10
2932.738
20
731.595
30
0
11
2918.738
21
731.595
31
0
0
CIRCLE
8
INTERIOR_PROFILES
10
2942.000
20
751.262
30
0
40
1.700
0
CIRCLE
8
INTERIOR_PROFILES
10
2953.000
20
1162.524
30
0
40
5.000
0
CIRCLE
8
INTERIOR_PROFILES
10
2942.000
20
1327.786
30
0
40
1.700
0
CIRCLE
8
INTERIOR_PROFILES
10
2942.000
20
797.262
30
0
40
1.700
0
CIRCLE
8
INTERIOR_PROFILES
10
2953.000
20
1062.524
30
0
40
5.000
0
CIRCLE
8
INTERIOR_PROFILES
10
2953.000
20
962.524
30
0
40
5.000
0
CIRCLE
8
INTERIOR_PROFILES
10
2942.000
20
1373.786
30
0
40
1.700
0
CIRCLE
8
INTERIOR_PROFILES
10
2953.000
20
862.524
30
0
40
5.000
0
CIRCLE
8
INTERIOR_PROFILES
10
2953.000
20
1362.524
30
0
40
5.000
0
CIRCLE
8
INTERIOR_PROFILES
10
2953.000
20
762.524
30
0
40
5.000
0
CIRCLE
8
INTERIOR_PROFILES
10
2953.000
20
1262.524
30
0
40
5.000
0
CIRCLE
8
INTERIOR_PROFILES
10
2925.738
20
1362.524
30
0
40
1.700
0
CIRCLE
8
INTERIOR_PROFILES
10
2925.738
20
962.524
30
0
40
1.700
0
CIRCLE
8
INTERIOR_PROFILES
10
2925.738
20
1162.524
30
0
40
1.700
0
CIRCLE
8
INTERIOR_PROFILES
10
2959.000
20
1401.786
30
0
40
1.700
0
CIRCLE
8
INTERIOR_PROFILES
10
2959.000
20
723.262
30
0
40
1.700
0
CIRCLE
8
INTERIOR_PROFILES
10
2925.738
20
762.524
30
0
40
1.700
0
CIRCLE
8
INTERIOR_PROFILES
10
2939.000
20
723.262
30
0
40
1.700
0
CIRCLE
8
INTERIOR_PROFILES
10
2925.738
20
1262.524
30
0
40
1.700
0
CIRCLE
8
INTERIOR_PROFILES
10
2939.000
20
1401.786
30
0
40
1.700
0
CIRCLE
8
INTERIOR_PROFILES
10
2925.738
20
1062.524
30
0
40
1.700
0
CIRCLE
8
INTERIOR_PROFILES
10
2925.738
20
862.524
30
0
40
1.700
0
TEXT
8
PART_LABELS
10
2991.000
20
1062.500
30
0
40
15.000
1
2BK002-070000
72
1
73
2
11
2991.000
21
1062.500
31
0
0
ARC
8
OUTER_PROFILES
10
2973.260
20
735.834
30
0
40
4.272
50
229.3224
51
262.9774
0
LINE
8
OUTER_PROFILES
10
2970.476
20
732.595
30
0
11
2965.476
21
737.595
31
0
0
LINE
8
OUTER_PROFILES
10
2965.476
20
737.595
30
0
11
2965.476
21
1387.453
31
0
0
LINE
8
OUTER_PROFILES
10
2965.476
20
1387.453
30
0
11
2970.476
21
1392.453
31
0
0
ARC
8
OUTER_PROFILES
10
2973.260
20
1389.214
30
0
40
4.272
50
97.0226
51
130.6776
0
LINE
8
OUTER_PROFILES
10
2972.738
20
1393.453
30
0
11
2986.738
21
1393.453
31
0
0
ARC
8
OUTER_PROFILES
10
2986.210
20
1389.201
30
0
40
4.285
50
49.3767
51
82.9231
0
LINE
8
OUTER_PROFILES
10
2989.000
20
1392.453
30
0
11
2989.071
21
1392.524
31
0
0
ARC
8
OUTER_PROFILES
10
2992.323
20
1395.314
30
0
40
4.285
50
187.0769
51
220.6233
0
LINE
8
OUTER_PROFILES
10
2988.071
20
1394.786
30
0
11
2988.071
21
1408.786
31
0
0
ARC
8
OUTER_PROFILES
10
2992.310
20
1408.264
30
0
40
4.272
50
139.3224
51
172.9774
0
LINE
8
OUTER_PROFILES
10
2989.071
20
1411.048
30
0
11
2994.071
21
1416.048
31
0
0
LINE
8
OUTER_PROFILES
10
2994.071
20
1416.048
30
0
11
3017.000
21
1416.048
31
0
0
LINE
8
OUTER_PROFILES
10
3017.000
20
1416.048
30
0
11
3017.000
21
709.000
31
0
0
LINE
8
OUTER_PROFILES
10
3017.000
20
709.000
30
0
11
2994.071
21
709.000
31
0
0
LINE
8
OUTER_PROFILES
10
2994.071
20
709.000
30
0
11
2989.071
21
714.000
31
0
0
ARC
8
OUTER_PROFILES
10
2992.310
20
716.784
30
0
40
4.272
50
187.0226
51
220.6776
0
LINE
8
OUTER_PROFILES
10
2988.071
20
716.262
30
0
11
2988.071
21
730.262
31
0
0
ARC
8
OUTER_PROFILES
10
2992.323
20
729.734
30
0
40
4.285
50
139.3767
51
172.9231
0
LINE
8
OUTER_PROFILES
10
2989.071
20
732.524
30
0
11
2989.000
21
732.595
31
0
0
ARC
8
OUTER_PROFILES
10
2986.210
20
735.847
30
0
40
4.285
50
277.0769
51
310.6233
0
LINE
8
OUTER_PROFILES
10
2986.738
20
731.595
30
0
11
2972.738
21
731.595
31
0
0
CIRCLE
8
INTERIOR_PROFILES
10
2996.000
20
751.262
30
0
40
1.700
0
CIRCLE
8
INTERIOR_PROFILES
10
3007.000
20
1162.524
30
0
40
5.000
0
CIRCLE
8
INTERIOR_PROFILES
10
2996.000
20
1327.786
30
0
40
1.700
0
CIRCLE
8
INTERIOR_PROFILES
10
2996.000
20
797.262
30
0
40
1.700
0
CIRCLE
8
INTERIOR_PROFILES
10
3007.000
20
1062.524
30
0
40
5.000
0
CIRCLE
8
INTERIOR_PROFILES
10
3007.000
20
962.524
30
0
40
5.000
0
CIRCLE
8
INTERIOR_PROFILES
10
2996.000
20
1373.786
30
0
40
1.700
0
CIRCLE
8
INTERIOR_PROFILES
10
3007.000
20
862.524
30
0
40
5.000
0
CIRCLE
8
INTERIOR_PROFILES
10
3007.000
20
1362.524
30
0
40
5.000
0
CIRCLE
8
INTERIOR_PROFILES
10
3007.000
20
762.524
30
0
40
5.000
0
CIRCLE
8
INTERIOR_PROFILES
10
3007.000
20
1262.524
30
0
40
5.000
0
CIRCLE
8
INTERIOR_PROFILES
10
2979.738
20
1362.524
30
0
40
1.700
0
CIRCLE
8
INTERIOR_PROFILES
10
2979.738
20
962.524
30
0
40
1.700
0
CIRCLE
8
INTERIOR_PROFILES
10
2979.738
20
1162.524
30
0
40
1.700
0
CIRCLE
8
INTERIOR_PROFILES
10
3013.000
20
1401.786
30
0
40
1.700
0
CIRCLE
8
INTERIOR_PROFILES
10
3013.000
20
723.262
30
0
40
1.700
0
CIRCLE
8
INTERIOR_PROFILES
10
2979.738
20
762.524
30
0
40
1.700
0
CIRCLE
8
INTERIOR_PROFILES
10
2993.000
20
723.262
30
0
40
1.700
0
CIRCLE
8
INTERIOR_PROFILES
10
2979.738
20
1262.524
30
0
40
1.700
0
CIRCLE
8
INTERIOR_PROFILES
10
2993.000
20
1401.786
30
0
40
1.700
0
CIRCLE
8
INTERIOR_PROFILES
10
2979.738
20
1062.524
30
0
40
1.700
0
CIRCLE
8
INTERIOR_PROFILES
10
2979.738
20
862.524
30
0
40
1.700
0
TEXT
8
PART_LABELS
10
2756.000
20
1359.500
30
0
40
17.750
1
2BK000-000000
72
1
73
2
11
2756.000
21
1359.500
31
0
0
LWPOLYLINE
8
OUTER_PROFILES
90
5
70
1
10
2755.811
20
1394.711
10
2816.622
20
1333.899
10
2806.723
20
1324.000
10
2704.899
20
1324.000
10
2695.000
20
1333.899
0
LWPOLYLINE
8
INTERIOR_PROFILES
90
4
70
1
10
2738.628
20
1365.224
10
2739.336
20
1365.931
42
1.000000
10
2736.931
20
1368.336
10
2736.224
20
1367.628
42
1.000000
0
CIRCLE
8
INTERIOR_PROFILES
10
2755.811
20
1384.811
30
0
40
1.700
0
LWPOLYLINE
8
INTERIOR_PROFILES
90
4
70
1
10
2775.398
20
1367.628
42
-1.000000
10
2772.994
20
1365.224
10
2772.287
20
1365.931
42
-1.000000
10
2774.691
20
1368.336
0
CIRCLE
8
INTERIOR_PROFILES
10
2704.899
20
1333.899
30
0
40
1.700
0
CIRCLE
8
INTERIOR_PROFILES
10
2806.723
20
1333.899
30
0
40
1.700
0
TEXT
8
PART_LABELS
10
2756.000
20
1432.500
30
0
40
17.750
1
2BK000-000000
72
1
73
2
11
2756.000
21
1432.500
31
0
0
LWPOLYLINE
8
OUTER_PROFILES
90
5
70
1
10
2755.811
20
1467.711
10
2816.622
20
1406.899
10
2806.723
20
1397.000
10
2704.899
20
1397.000
10
2695.000
20
1406.899
0
LWPOLYLINE
8
INTERIOR_PROFILES
90
4
70
1
10
2738.628
20
1438.224
10
2739.336
20
1438.931
42
1.000000
10
2736.931
20
1441.336
10
2736.224
20
1440.628
42
1.000000
0
CIRCLE
8
INTERIOR_PROFILES
10
2755.811
20
1457.811
30
0
40
1.700
0
LWPOLYLINE
8
INTERIOR_PROFILES
90
4
70
1
10
2775.398
20
1440.628
42
-1.000000
10
2772.994
20
1438.224
10
2772.287
20
1438.931
42
-1.000000
10
2774.691
20
1441.336
0
CIRCLE
8
INTERIOR_PROFILES
10
2704.899
20
1406.899
30
0
40
1.700
0
CIRCLE
8
INTERIOR_PROFILES
10
2806.723
20
1406.899
30
0
40
1.700
0
TEXT
8
PART_LABELS
10
2880.000
20
1453.500
30
0
40
17.750
1
2BK001-000001
72
1
73
2
11
2880.000
21
1453.500
31
0
0
LWPOLYLINE
8
OUTER_PROFILES
90
5
70
1
10
2819.000
20
1427.899
10
2879.811
20
1488.711
10
2940.622
20
1427.899
10
2930.723
20
1418.000
10
2828.899
20
1418.000
0
LWPOLYLINE
8
INTERIOR_PROFILES
90
4
70
1
10
2896.287
20
1459.931
42
-1.000000
10
2898.691
20
1462.336
10
2899.398
20
1461.628
42
-1.000000
10
2896.994
20
1459.224
0
LWPOLYLINE
8
INTERIOR_PROFILES
90
4
70
1
10
2862.628
20
1459.224
10
2863.336
20
1459.931
42
1.000000
10
2860.931
20
1462.336
10
2860.224
20
1461.628
42
1.000000
0
CIRCLE
8
INTERIOR_PROFILES
10
2828.899
20
1427.899
30
0
40
1.700
0
CIRCLE
8
INTERIOR_PROFILES
10
2879.811
20
1478.811
30
0
40
1.700
0
CIRCLE
8
INTERIOR_PROFILES
10
2930.723
20
1427.899
30
0
40
1.700
0
ENDSEC
0
EOF