0
SECTION
2
HEADER
9
$INSUNITS
70
4
9
$ACADVER
1
AC1014
9
$HANDSEED
5
FFFF
0
ENDSEC
0
SECTION
2
TABLES
0
TABLE
2
VPORT
5
8
100
AcDbSymbolTable
0
ENDTAB
0
TABLE
2
LTYPE
5
5
100
AcDbSymbolTable
0
LTYPE
5
14
100
AcDbSymbolTableRecord
100
AcDbLinetypeTableRecord
2
BYBLOCK
70
0
0
LTYPE
5
15
100
AcDbSymbolTableRecord
100
AcDbLinetypeTableRecord
2
BYLAYER
70
0
0
LTYPE
5
16
100
AcDbSymbolTableRecord
100
AcDbLinetypeTableRecord
2
DASHED
70
0
3
Dashed __ __ __ __ __ __ __ __ __ __ __ __ __ _
72
65
73
2
40
0.75
49
0.5
74
0
49
-0.25
74
0
0
ENDTAB
0
TABLE
2
LAYER
5
2
100
AcDbSymbolTable
70
2
0
LAYER
5
50
100
AcDbSymbolTableRecord
100
AcDbLayerTableRecord
2
0
70
0
62
7
6
CONTINUOUS
0
ENDTAB
0
TABLE
2
STYLE
5
3
100
AcDbSymbolTable
70
1
0
STYLE
5
11
100
AcDbSymbolTableRecord
100
AcDbTextStyleTableRecord
2
STANDARD
70
0
0
ENDTAB
0
TABLE
2
VIEW
5
6
100
AcDbSymbolTable
70
0
0
ENDTAB
0
TABLE
2
UCS
5
7
100
AcDbSymbolTable
70
0
0
ENDTAB
0
TABLE
2
APPID
5
9
100
AcDbSymbolTable
70
2
0
APPID
5
12
100
AcDbSymbolTableRecord
100
AcDbRegAppTableRecord
2
ACAD
70
0
0
ENDTAB
0
TABLE
2
DIMSTYLE
5
A
100
AcDbSymbolTable
70
1
0
ENDTAB
0
TABLE
2
BLOCK_RECORD
5
1
100
AcDbSymbolTable
70
1
0
BLOCK_RECORD
5
1F
100
AcDbSymbolTableRecord
100
AcDbBlockTableRecord
2
*MODEL_SPACE
0
BLOCK_RECORD
5
1B
100
AcDbSymbolTableRecord
100
AcDbBlockTableRecord
2
*PAPER_SPACE
0
ENDTAB
0
ENDSEC
0
SECTION
2
BLOCKS
0
BLOCK
5
20
100
AcDbEntity
100
AcDbBlockBegin
2
*MODEL_SPACE
0
ENDBLK
5
21
100
AcDbEntity
100
AcDbBlockEnd
0
BLOCK
5
1C
100
AcDbEntity
100
AcDbBlockBegin
2
*PAPER_SPACE
0
ENDBLK
5
1D
100
AcDbEntity
100
AcDbBlockEnd
0
ENDSEC
0
SECTION
2
ENTITIES
0
LWPOLYLINE
5
100
100
AcDbEntity
8
OUTER_PROFILES
100
AcDbPolyline
90
40
70
1
43
0.0
10
790.92928932183884
20
400.52389342115271
10
791.82928932183904
20
403.91681348704151
10
791.82928932183904
20
425.25823048500962
10
791.379289321839
20
426.54423048500962
10
790.85857864373838
20
427.67520384031013
10
788.85857864407967
20
429.67520384083628
10
-4.0188297134591267e-10
20
429.67520384084753
10
-2.0000000000604246
20
427.67520384031593
10
-2.5207106781610378
20
426.54423048500951
10
-2.9707106781610548
20
425.25823048500956
10
-2.9707106781609127
20
403.91681348704145
10
-2.0707106781610207
20
400.52389342115259
10
-4.3326573886794506
20
402.52389341869775
42
0.19891236738731177
10
-5.7468709511231078
20
401.93810698353866
10
-20.332657388745474
20
387.35232054589551
10
-22.594604099272431
20
384.4531827430128
10
-24.594604098930972
20
382.45318274248513
10
-24.594604099279422
20
24.594604099243753
10
-22.594604099276694
20
22.594604099288063
10
-20.332657388745474
20
20.524000202354529
10
-4.3326573887456732
20
20.524000202354316
10
-2.0707106781610207
20
22.523893421167855
10
-2.9706038969744952
20
20.261946710583256
10
-2.9706038969743531
20
4.2619467105832669
10
-1.9999999999922125
20
1.9999999999987494
10
0
20
2.7755575615628914e-16
10
788.8585786436779
20
-1.2079226507921703e-12
10
790.85857864367711
20
1.9999999999985363
10
791.82918254065885
20
4.2619467106278712
10
791.82918254065248
20
20.261946710583295
10
790.92928932183895
20
22.523893421167926
10
793.1912360324236
20
20.524000202354529
10
809.1912360324236
20
20.5240002023546
10
811.45318274301485
20
22.594604099288276
10
813.45318274301439
20
24.594604099242758
10
813.45318274267333
20
382.45318274248524
10
811.45318274301462
20
384.45318274301303
10
809.1912360324236
20
387.35232054589983
10
794.60544959479239
20
401.9381069835257
42
0.19891236739577375
10
793.19123603229525
20
402.52389342115265
0
LINE
5
101
100
AcDbEntity
8
BEND
100
AcDbLine
10
-2.4853019484801564
20
3.1309733552909069
30
2.4007601462372463e-10
11
791.343880592152
21
3.1309733552913022
31
1.7466111890129807e-10
0
LINE
5
102
100
AcDbEntity
8
BEND
100
AcDbLine
10
-21.463630744008384
20
385.90275164445387
30
2.3857154577976666e-10
11
-21.463630744008384
21
21.559302150844104
31
2.3866852938425609e-10
0
LINE
5
103
100
AcDbEntity
8
BEND
100
AcDbLine
10
791.11893398278869
20
427.10971716265908
30
2.404720866877596e-10
11
-2.2603553391107312
21
427.10971716265902
31
2.4046847846292962e-10
0
LINE
5
104
100
AcDbEntity
8
BEND
100
AcDbLine
10
810.322209387719
20
21.559302150843997
30
2.4002244636278642e-10
11
810.32220938771889
21
385.90275164445416
31
2.3986323723491957e-10
0
LINE
5
105
100
AcDbEntity
8
BEND
100
AcDbLine
10
-3.2016840334532048
20
401.52389341869002
30
2.4023893985258837e-10
11
-3.2016840334532048
21
21.523946811761263
31
2.4024782163678537e-10
0
LINE
5
106
100
AcDbEntity
8
BEND
100
AcDbLine
10
-2.520657287567758
20
21.39292006587543
30
2.4028362632932954e-10
11
791.37923593124583
21
21.392920065875501
31
2.4028362632932948e-10
0
LINE
5
107
100
AcDbEntity
8
BEND
100
AcDbLine
10
791.37928932183877
20
402.22035345409716
30
2.4027835276996251e-10
11
-2.5207106781610378
21
402.22035345409711
31
2.4027418943362022e-10
0
LINE
5
108
100
AcDbEntity
8
BEND
100
AcDbLine
10
792.06026267713139
20
21.523946811761121
30
2.4027835276996251e-10
11
792.06026267713128
21
401.52389341869031
31
2.4027613232391326e-10
0
LINE
5
109
100
AcDbEntity
8
BEND_EXTENT
100
AcDbLine
10
-20.332657388745474
20
387.35232054589551
30
2.3798518711259931e-10
11
-20.332657388745474
21
20.524000202354529
31
2.1929791316210867e-10
0
LINE
5
110
100
AcDbEntity
8
BEND_EXTENT
100
AcDbLine
10
-22.594604099276694
20
22.594604099288063
30
1.1786793763235437e-10
11
-22.594604099272431
21
384.4531827430128
31
2.3679280758415189e-10
0
LINE
5
111
100
AcDbEntity
8
BEND_EXTENT
100
AcDbLine
10
793.19123603229525
20
402.523893418657
30
2.4011681531987955e-10
11
793.1912360324236
21
20.524000202354529
31
2.4018786959345556e-10
0
LWPOLYLINE
5
112
100
AcDbEntity
8
BEND_EXTENT
100
AcDbPolyline
90
4
70
1
43
0.0
10
790.92928932183895
20
22.523893421167926
10
790.92928932183884
20
400.52389342115271
10
-2.0707106781610207
20
400.52389342115259
10
-2.0707106781610207
20
22.523893421167855
0
LINE
5
113
100
AcDbEntity
8
BEND_EXTENT
100
AcDbLine
10
-4.3326573887456732
20
20.524000202354316
30
2.4025892386703163e-10
11
-4.3326573886794506
21
402.52389341869775
31
2.4011681531987961e-10
0
LINE
5
114
100
AcDbEntity
8
BEND_EXTENT
100
AcDbLine
10
790.85857864367711
20
1.9999999999985363
30
7.3747674633750623e-11
11
-1.9999999999922125
21
1.9999999999987494
31
1.1930678667226857e-10
0
LINE
5
115
100
AcDbEntity
8
BEND_EXTENT
100
AcDbLine
10
-2.9706038969743531
20
4.2619467105832669
30
2.3990365249915158e-10
11
791.82918254065885
21
4.2619467106278712
31
2.3969048967842349e-10
0
LINE
5
116
100
AcDbEntity
8
BEND_EXTENT
100
AcDbLine
10
809.1912360324236
20
20.5240002023546
30
2.4004576104630354e-10
11
809.1912360324236
21
387.35232054589983
31
2.4004576104630354e-10
0
LINE
5
117
100
AcDbEntity
8
BEND_EXTENT
100
AcDbLine
10
811.45318274301462
20
384.45318274301303
30
2.3893997891377689e-10
11
811.45318274301485
21
22.594604099288276
31
1.2163603457793212e-10
0
LINE
5
118
100
AcDbEntity
8
BEND_EXTENT
100
AcDbLine
10
791.82918254065248
20
20.261946710583295
30
2.4011681531987955e-10
11
-2.9706038969744952
21
20.261946710583256
31
2.4011681531987961e-10
0
LINE
5
119
100
AcDbEntity
8
BEND_EXTENT
100
AcDbLine
10
-2.0000000000604246
20
427.67520384031593
30
2.4101387552377673e-10
11
790.85857864373838
21
427.67520384031013
31
2.4272805987379792e-10
0
LINE
5
120
100
AcDbEntity
8
BEND_EXTENT
100
AcDbLine
10
791.379289321839
20
426.54423048500962
30
2.4009128019031318e-10
11
-2.5207106781610378
21
426.54423048500951
31
2.4246049612486331e-10
0
LINE
5
121
100
AcDbEntity
8
BEND_EXTENT
100
AcDbLine
10
-2.9707106781609127
20
403.91681348704145
30
2.4026003409005625e-10
11
791.82928932183904
21
403.91681348704151
31
2.4277801990990605e-10
0
ENDSEC
0
SECTION
2
OBJECTS
0
DICTIONARY
5
C
100
AcDbDictionary
3
ACAD_GROUP
350
D
3
ACAD_MLINESTYLE
350
17
0
DICTIONARY
5
D
100
AcDbDictionary
0
DICTIONARY
5
1A
330
C
100
AcDbDictionary
0
DICTIONARY
5
17
100
AcDbDictionary
0
ENDSEC
0
EOF
