0
SECTION
2
HEADER
9
$INSUNITS
70
4
0
ENDSEC
0
SECTION
2
ENTITIES
0
LWPOLYLINE
8
SHEET_BORDER
90
5
70
1
10
0.000
20
0.000
10
3050.000
20
0.000
10
3050.000
20
1220.000
10
0.000
20
1220.000
10
0.000
20
0.000
0
LWPOLYLINE
8
OUTER_PROFILES
90
47
70
1
10
816.424
20
4.262
10
816.424
20
20.262
10
815.524
20
22.524
10
817.786
20
20.524
10
833.786
20
20.524
10
836.048
20
22.595
10
838.048
20
24.595
10
838.048
20
382.453
10
836.048
20
384.453
10
833.786
20
387.352
10
819.200
20
401.938
10
818.897
20
402.187
10
818.551
20
402.372
10
818.176
20
402.485
10
817.786
20
402.524
10
815.524
20
400.524
10
816.424
20
403.917
10
816.424
20
425.258
10
815.974
20
426.544
10
815.453
20
427.675
10
813.453
20
429.675
10
24.595
20
429.675
10
22.595
20
427.675
10
22.074
20
426.544
10
21.624
20
425.258
10
21.624
20
403.917
10
22.524
20
400.524
10
20.262
20
402.524
10
19.872
20
402.485
10
19.497
20
402.372
10
19.151
20
402.187
10
18.848
20
401.938
10
4.262
20
387.352
10
2.000
20
384.453
10
0.000
20
382.453
10
0.000
20
24.595
10
2.000
20
22.595
10
4.262
20
20.524
10
20.262
20
20.524
10
22.524
20
22.524
10
21.624
20
20.262
10
21.624
20
4.262
10
22.595
20
2.000
10
24.595
20
0.000
10
813.453
20
0.000
10
815.453
20
2.000
10
816.424
20
4.262
0
LWPOLYLINE
8
OUTER_PROFILES
90
17
70
1
10
823.524
20
811.191
10
806.524
20
811.191
10
804.262
20
810.262
10
805.191
20
812.524
10
805.191
20
829.524
10
18.333
20
829.524
10
18.333
20
811.191
10
0.000
20
811.191
10
0.000
20
450.333
10
17.000
20
450.333
10
19.262
20
451.262
10
18.333
20
449.000
10
18.333
20
432.000
10
805.191
20
432.000
10
805.191
20
450.333
10
823.524
20
450.333
10
823.524
20
811.191
0
LWPOLYLINE
8
INTERIOR_PROFILES
90
33
70
1
10
776.562
20
751.262
10
776.595
20
751.594
10
776.691
20
751.913
10
776.848
20
752.206
10
777.060
20
752.464
10
777.317
20
752.675
10
777.611
20
752.833
10
777.930
20
752.929
10
778.262
20
752.962
10
778.594
20
752.929
10
778.913
20
752.833
10
779.206
20
752.675
10
779.464
20
752.464
10
779.675
20
752.206
10
779.833
20
751.913
10
779.929
20
751.594
10
779.962
20
751.262
10
779.929
20
750.930
10
779.833
20
750.611
10
779.675
20
750.317
10
779.464
20
750.060
10
779.206
20
749.848
10
778.913
20
749.691
10
778.594
20
749.595
10
778.262
20
749.562
10
777.930
20
749.595
10
777.611
20
749.691
10
777.317
20
749.848
10
777.060
20
750.060
10
776.848
20
750.317
10
776.691
20
750.611
10
776.595
20
750.930
10
776.562
20
751.262
0
LWPOLYLINE
8
INTERIOR_PROFILES
90
33
70
1
10
776.562
20
719.262
10
776.595
20
719.594
10
776.691
20
719.913
10
776.848
20
720.206
10
777.060
20
720.464
10
777.317
20
720.675
10
777.611
20
720.833
10
777.930
20
720.929
10
778.262
20
720.962
10
778.594
20
720.929
10
778.913
20
720.833
10
779.206
20
720.675
10
779.464
20
720.464
10
779.675
20
720.206
10
779.833
20
719.913
10
779.929
20
719.594
10
779.962
20
719.262
10
779.929
20
718.930
10
779.833
20
718.611
10
779.675
20
718.317
10
779.464
20
718.060
10
779.206
20
717.848
10
778.913
20
717.691
10
778.594
20
717.595
10
778.262
20
717.562
10
777.930
20
717.595
10
777.611
20
717.691
10
777.317
20
717.848
10
777.060
20
718.060
10
776.848
20
718.317
10
776.691
20
718.611
10
776.595
20
718.930
10
776.562
20
719.262
0
LWPOLYLINE
8
INTERIOR_PROFILES
90
33
70
1
10
773.262
20
591.262
10
773.358
20
592.237
10
773.643
20
593.175
10
774.105
20
594.040
10
774.726
20
594.797
10
775.484
20
595.419
10
776.349
20
595.881
10
777.286
20
596.166
10
778.262
20
596.262
10
779.237
20
596.166
10
780.175
20
595.881
10
781.040
20
595.419
10
781.797
20
594.797
10
782.419
20
594.040
10
782.881
20
593.175
10
783.166
20
592.237
10
783.262
20
591.262
10
783.166
20
590.286
10
782.881
20
589.349
10
782.419
20
588.484
10
781.797
20
587.726
10
781.040
20
587.105
10
780.175
20
586.643
10
779.237
20
586.358
10
778.262
20
586.262
10
777.286
20
586.358
10
776.349
20
586.643
10
775.484
20
587.105
10
774.726
20
587.726
10
774.105
20
588.484
10
773.643
20
589.349
10
773.358
20
590.286
10
773.262
20
591.262
0
LWPOLYLINE
8
INTERIOR_PROFILES
90
33
70
1
10
43.562
20
719.262
10
43.595
20
719.594
10
43.691
20
719.913
10
43.848
20
720.206
10
44.060
20
720.464
10
44.317
20
720.675
10
44.611
20
720.833
10
44.930
20
720.929
10
45.262
20
720.962
10
45.594
20
720.929
10
45.913
20
720.833
10
46.206
20
720.675
10
46.464
20
720.464
10
46.675
20
720.206
10
46.833
20
719.913
10
46.929
20
719.594
10
46.962
20
719.262
10
46.929
20
718.930
10
46.833
20
718.611
10
46.675
20
718.317
10
46.464
20
718.060
10
46.206
20
717.848
10
45.913
20
717.691
10
45.594
20
717.595
10
45.262
20
717.562
10
44.930
20
717.595
10
44.611
20
717.691
10
44.317
20
717.848
10
44.060
20
718.060
10
43.848
20
718.317
10
43.691
20
718.611
10
43.595
20
718.930
10
43.562
20
719.262
0
LWPOLYLINE
8
INTERIOR_PROFILES
90
33
70
1
10
43.562
20
751.262
10
43.595
20
751.594
10
43.691
20
751.913
10
43.848
20
752.206
10
44.060
20
752.464
10
44.317
20
752.675
10
44.611
20
752.833
10
44.930
20
752.929
10
45.262
20
752.962
10
45.594
20
752.929
10
45.913
20
752.833
10
46.206
20
752.675
10
46.464
20
752.464
10
46.675
20
752.206
10
46.833
20
751.913
10
46.929
20
751.594
10
46.962
20
751.262
10
46.929
20
750.930
10
46.833
20
750.611
10
46.675
20
750.317
10
46.464
20
750.060
10
46.206
20
749.848
10
45.913
20
749.691
10
45.594
20
749.595
10
45.262
20
749.562
10
44.930
20
749.595
10
44.611
20
749.691
10
44.317
20
749.848
10
44.060
20
750.060
10
43.848
20
750.317
10
43.691
20
750.611
10
43.595
20
750.930
10
43.562
20
751.262
0
LWPOLYLINE
8
INTERIOR_PROFILES
90
33
70
1
10
40.262
20
591.262
10
40.358
20
592.237
10
40.643
20
593.175
10
41.105
20
594.040
10
41.726
20
594.797
10
42.484
20
595.419
10
43.349
20
595.881
10
44.286
20
596.166
10
45.262
20
596.262
10
46.237
20
596.166
10
47.175
20
595.881
10
48.040
20
595.419
10
48.797
20
594.797
10
49.419
20
594.040
10
49.881
20
593.175
10
50.166
20
592.237
10
50.262
20
591.262
10
50.166
20
590.286
10
49.881
20
589.349
10
49.419
20
588.484
10
48.797
20
587.726
10
48.040
20
587.105
10
47.175
20
586.643
10
46.237
20
586.358
10
45.262
20
586.262
10
44.286
20
586.358
10
43.349
20
586.643
10
42.484
20
587.105
10
41.726
20
587.726
10
41.105
20
588.484
10
40.643
20
589.349
10
40.358
20
590.286
10
40.262
20
591.262
0
LWPOLYLINE
8
OUTER_PROFILES
90
17
70
1
10
1631.191
20
812.524
10
1630.262
20
810.262
10
1632.524
20
811.191
10
1649.524
20
811.191
10
1649.524
20
450.333
10
1631.191
20
450.333
10
1631.191
20
432.000
10
844.333
20
432.000
10
844.333
20
449.000
10
845.262
20
451.262
10
843.000
20
450.333
10
826.000
20
450.333
10
826.000
20
811.191
10
844.333
20
811.191
10
844.333
20
829.524
10
1631.191
20
829.524
10
1631.191
20
812.524
0
LWPOLYLINE
8
INTERIOR_PROFILES
90
33
70
1
10
869.562
20
761.262
10
869.595
20
761.594
10
869.691
20
761.913
10
869.848
20
762.206
10
870.060
20
762.464
10
870.317
20
762.675
10
870.611
20
762.833
10
870.930
20
762.929
10
871.262
20
762.962
10
871.594
20
762.929
10
871.913
20
762.833
10
872.206
20
762.675
10
872.464
20
762.464
10
872.675
20
762.206
10
872.833
20
761.913
10
872.929
20
761.594
10
872.962
20
761.262
10
872.929
20
760.930
10
872.833
20
760.611
10
872.675
20
760.317
10
872.464
20
760.060
10
872.206
20
759.848
10
871.913
20
759.691
10
871.594
20
759.595
10
871.262
20
759.562
10
870.930
20
759.595
10
870.611
20
759.691
10
870.317
20
759.848
10
870.060
20
760.060
10
869.848
20
760.317
10
869.691
20
760.611
10
869.595
20
760.930
10
869.562
20
761.262
0
LWPOLYLINE
8
INTERIOR_PROFILES
90
33
70
1
10
869.562
20
729.262
10
869.595
20
729.594
10
869.691
20
729.913
10
869.848
20
730.206
10
870.060
20
730.464
10
870.317
20
730.675
10
870.611
20
730.833
10
870.930
20
730.929
10
871.262
20
730.962
10
871.594
20
730.929
10
871.913
20
730.833
10
872.206
20
730.675
10
872.464
20
730.464
10
872.675
20
730.206
10
872.833
20
729.913
10
872.929
20
729.594
10
872.962
20
729.262
10
872.929
20
728.930
10
872.833
20
728.611
10
872.675
20
728.317
10
872.464
20
728.060
10
872.206
20
727.848
10
871.913
20
727.691
10
871.594
20
727.595
10
871.262
20
727.562
10
870.930
20
727.595
10
870.611
20
727.691
10
870.317
20
727.848
10
870.060
20
728.060
10
869.848
20
728.317
10
869.691
20
728.611
10
869.595
20
728.930
10
869.562
20
729.262
0
LWPOLYLINE
8
INTERIOR_PROFILES
90
33
70
1
10
1599.262
20
601.262
10
1599.358
20
602.237
10
1599.643
20
603.175
10
1600.105
20
604.040
10
1600.726
20
604.797
10
1601.484
20
605.419
10
1602.349
20
605.881
10
1603.286
20
606.166
10
1604.262
20
606.262
10
1605.237
20
606.166
10
1606.175
20
605.881
10
1607.040
20
605.419
10
1607.797
20
604.797
10
1608.419
20
604.040
10
1608.881
20
603.175
10
1609.166
20
602.237
10
1609.262
20
601.262
10
1609.166
20
600.286
10
1608.881
20
599.349
10
1608.419
20
598.484
10
1607.797
20
597.726
10
1607.040
20
597.105
10
1606.175
20
596.643
10
1605.237
20
596.358
10
1604.262
20
596.262
10
1603.286
20
596.358
10
1602.349
20
596.643
10
1601.484
20
597.105
10
1600.726
20
597.726
10
1600.105
20
598.484
10
1599.643
20
599.349
10
1599.358
20
600.286
10
1599.262
20
601.262
0
LWPOLYLINE
8
INTERIOR_PROFILES
90
33
70
1
10
1602.562
20
729.262
10
1602.595
20
729.594
10
1602.691
20
729.913
10
1602.848
20
730.206
10
1603.060
20
730.464
10
1603.317
20
730.675
10
1603.611
20
730.833
10
1603.930
20
730.929
10
1604.262
20
730.962
10
1604.594
20
730.929
10
1604.913
20
730.833
10
1605.206
20
730.675
10
1605.464
20
730.464
10
1605.675
20
730.206
10
1605.833
20
729.913
10
1605.929
20
729.594
10
1605.962
20
729.262
10
1605.929
20
728.930
10
1605.833
20
728.611
10
1605.675
20
728.317
10
1605.464
20
728.060
10
1605.206
20
727.848
10
1604.913
20
727.691
10
1604.594
20
727.595
10
1604.262
20
727.562
10
1603.930
20
727.595
10
1603.611
20
727.691
10
1603.317
20
727.848
10
1603.060
20
728.060
10
1602.848
20
728.317
10
1602.691
20
728.611
10
1602.595
20
728.930
10
1602.562
20
729.262
0
LWPOLYLINE
8
INTERIOR_PROFILES
90
33
70
1
10
866.262
20
601.262
10
866.358
20
602.237
10
866.643
20
603.175
10
867.105
20
604.040
10
867.726
20
604.797
10
868.484
20
605.419
10
869.349
20
605.881
10
870.286
20
606.166
10
871.262
20
606.262
10
872.237
20
606.166
10
873.175
20
605.881
10
874.040
20
605.419
10
874.797
20
604.797
10
875.419
20
604.040
10
875.881
20
603.175
10
876.166
20
602.237
10
876.262
20
601.262
10
876.166
20
600.286
10
875.881
20
599.349
10
875.419
20
598.484
10
874.797
20
597.726
10
874.040
20
597.105
10
873.175
20
596.643
10
872.237
20
596.358
10
871.262
20
596.262
10
870.286
20
596.358
10
869.349
20
596.643
10
868.484
20
597.105
10
867.726
20
597.726
10
867.105
20
598.484
10
866.643
20
599.349
10
866.358
20
600.286
10
866.262
20
601.262
0
LWPOLYLINE
8
INTERIOR_PROFILES
90
33
70
1
10
1602.562
20
761.262
10
1602.595
20
761.594
10
1602.691
20
761.913
10
1602.848
20
762.206
10
1603.060
20
762.464
10
1603.317
20
762.675
10
1603.611
20
762.833
10
1603.930
20
762.929
10
1604.262
20
762.962
10
1604.594
20
762.929
10
1604.913
20
762.833
10
1605.206
20
762.675
10
1605.464
20
762.464
10
1605.675
20
762.206
10
1605.833
20
761.913
10
1605.929
20
761.594
10
1605.962
20
761.262
10
1605.929
20
760.930
10
1605.833
20
760.611
10
1605.675
20
760.317
10
1605.464
20
760.060
10
1605.206
20
759.848
10
1604.913
20
759.691
10
1604.594
20
759.595
10
1604.262
20
759.562
10
1603.930
20
759.595
10
1603.611
20
759.691
10
1603.317
20
759.848
10
1603.060
20
760.060
10
1602.848
20
760.317
10
1602.691
20
760.611
10
1602.595
20
760.930
10
1602.562
20
761.262
0
LWPOLYLINE
8
OUTER_PROFILES
90
43
70
1
10
40.595
20
972.048
10
28.595
20
960.048
10
26.524
20
957.786
10
26.524
20
945.786
10
28.524
20
943.524
10
26.262
20
944.424
10
14.262
20
944.424
10
12.000
20
943.453
10
0.000
20
931.453
10
0.000
20
872.624
10
6.307
20
872.624
10
6.307
20
866.287
10
12.000
20
860.595
10
14.262
20
859.624
10
26.262
20
859.624
10
28.524
20
860.524
10
26.524
20
858.262
10
26.524
20
846.262
10
28.595
20
844.000
10
34.317
20
838.278
10
34.317
20
832.000
10
770.731
20
832.000
10
770.731
20
838.278
10
776.453
20
844.000
10
778.524
20
846.262
10
778.524
20
858.262
10
776.524
20
860.524
10
778.786
20
859.624
10
790.786
20
859.624
10
793.048
20
860.595
10
798.741
20
866.287
10
798.741
20
872.624
10
805.048
20
872.624
10
805.048
20
931.453
10
793.048
20
943.453
10
790.786
20
944.424
10
778.786
20
944.424
10
776.524
20
943.524
10
778.524
20
945.786
10
778.524
20
957.786
10
776.453
20
960.048
10
764.453
20
972.048
10
40.595
20
972.048
0
LWPOLYLINE
8
INTERIOR_PROFILES
90
33
70
1
10
68.324
20
837.000
10
68.357
20
837.332
10
68.453
20
837.651
10
68.610
20
837.944
10
68.822
20
838.202
10
69.079
20
838.413
10
69.373
20
838.571
10
69.692
20
838.667
10
70.024
20
838.700
10
70.356
20
838.667
10
70.674
20
838.571
10
70.968
20
838.413
10
71.226
20
838.202
10
71.437
20
837.944
10
71.594
20
837.651
10
71.691
20
837.332
10
71.724
20
837.000
10
71.691
20
836.668
10
71.594
20
836.349
10
71.437
20
836.056
10
71.226
20
835.798
10
70.968
20
835.587
10
70.674
20
835.429
10
70.356
20
835.333
10
70.024
20
835.300
10
69.692
20
835.333
10
69.373
20
835.429
10
69.079
20
835.587
10
68.822
20
835.798
10
68.610
20
836.056
10
68.453
20
836.349
10
68.357
20
836.668
10
68.324
20
837.000
0
LWPOLYLINE
8
INTERIOR_PROFILES
90
27
70
1
10
404.224
20
835.500
10
404.166
20
835.060
10
403.996
20
834.650
10
403.726
20
834.298
10
403.374
20
834.028
10
402.964
20
833.858
10
402.524
20
833.800
10
402.084
20
833.858
10
401.674
20
834.028
10
401.322
20
834.298
10
401.052
20
834.650
10
400.882
20
835.060
10
400.824
20
835.500
10
400.824
20
837.000
10
400.882
20
837.440
10
401.052
20
837.850
10
401.322
20
838.202
10
401.674
20
838.472
10
402.084
20
838.642
10
402.524
20
838.700
10
402.964
20
838.642
10
403.374
20
838.472
10
403.726
20
838.202
10
403.996
20
837.850
10
404.166
20
837.440
10
404.224
20
837.000
10
404.224
20
835.500
0
LWPOLYLINE
8
INTERIOR_PROFILES
90
33
70
1
10
100.824
20
835.500
10
100.857
20
835.832
10
100.953
20
836.151
10
101.110
20
836.444
10
101.322
20
836.702
10
101.579
20
836.913
10
101.873
20
837.071
10
102.192
20
837.167
10
102.524
20
837.200
10
102.856
20
837.167
10
103.174
20
837.071
10
103.468
20
836.913
10
103.726
20
836.702
10
103.937
20
836.444
10
104.094
20
836.151
10
104.191
20
835.832
10
104.224
20
835.500
10
104.191
20
835.168
10
104.094
20
834.849
10
103.937
20
834.556
10
103.726
20
834.298
10
103.468
20
834.087
10
103.174
20
833.929
10
102.856
20
833.833
10
102.524
20
833.800
10
102.192
20
833.833
10
101.873
20
833.929
10
101.579
20
834.087
10
101.322
20
834.298
10
101.110
20
834.556
10
100.953
20
834.849
10
100.857
20
835.168
10
100.824
20
835.500
0
LWPOLYLINE
8
INTERIOR_PROFILES
90
33
70
1
10
768.524
20
837.000
10
768.500
20
837.244
10
768.429
20
837.478
10
768.313
20
837.694
10
768.158
20
837.884
10
767.968
20
838.039
10
767.752
20
838.155
10
767.518
20
838.226
10
767.274
20
838.250
10
767.030
20
838.226
10
766.796
20
838.155
10
766.579
20
838.039
10
766.390
20
837.884
10
766.235
20
837.694
10
766.119
20
837.478
10
766.048
20
837.244
10
766.024
20
837.000
10
766.048
20
836.756
10
766.119
20
836.522
10
766.235
20
836.306
10
766.390
20
836.116
10
766.579
20
835.961
10
766.796
20
835.845
10
767.030
20
835.774
10
767.274
20
835.750
10
767.518
20
835.774
10
767.752
20
835.845
10
767.968
20
835.961
10
768.158
20
836.116
10
768.313
20
836.306
10
768.429
20
836.522
10
768.500
20
836.756
10
768.524
20
837.000
0
LWPOLYLINE
8
INTERIOR_PROFILES
90
33
70
1
10
700.824
20
835.500
10
700.857
20
835.832
10
700.953
20
836.151
10
701.110
20
836.444
10
701.322
20
836.702
10
701.579
20
836.913
10
701.873
20
837.071
10
702.192
20
837.167
10
702.524
20
837.200
10
702.856
20
837.167
10
703.174
20
837.071
10
703.468
20
836.913
10
703.726
20
836.702
10
703.937
20
836.444
10
704.094
20
836.151
10
704.191
20
835.832
10
704.224
20
835.500
10
704.191
20
835.168
10
704.094
20
834.849
10
703.937
20
834.556
10
703.726
20
834.298
10
703.468
20
834.087
10
703.174
20
833.929
10
702.856
20
833.833
10
702.524
20
833.800
10
702.192
20
833.833
10
701.873
20
833.929
10
701.579
20
834.087
10
701.322
20
834.298
10
701.110
20
834.556
10
700.953
20
834.849
10
700.857
20
835.168
10
700.824
20
835.500
0
LWPOLYLINE
8
INTERIOR_PROFILES
90
33
70
1
10
798.848
20
931.524
10
798.880
20
931.856
10
798.977
20
932.174
10
799.134
20
932.468
10
799.346
20
932.726
10
799.603
20
932.937
10
799.897
20
933.094
10
800.216
20
933.191
10
800.548
20
933.224
10
800.879
20
933.191
10
801.198
20
933.094
10
801.492
20
932.937
10
801.750
20
932.726
10
801.961
20
932.468
10
802.118
20
932.174
10
802.215
20
931.856
10
802.248
20
931.524
10
802.215
20
931.192
10
802.118
20
930.873
10
801.961
20
930.579
10
801.750
20
930.322
10
801.492
20
930.110
10
801.198
20
929.953
10
800.879
20
929.857
10
800.548
20
929.824
10
800.216
20
929.857
10
799.897
20
929.953
10
799.603
20
930.110
10
799.346
20
930.322
10
799.134
20
930.579
10
798.977
20
930.873
10
798.880
20
931.192
10
798.848
20
931.524
0
LWPOLYLINE
8
INTERIOR_PROFILES
90
33
70
1
10
1.500
20
922.524
10
1.524
20
922.768
10
1.595
20
923.002
10
1.711
20
923.218
10
1.866
20
923.408
10
2.056
20
923.563
10
2.272
20
923.679
10
2.506
20
923.750
10
2.750
20
923.774
10
2.994
20
923.750
10
3.228
20
923.679
10
3.444
20
923.563
10
3.634
20
923.408
10
3.789
20
923.218
10
3.905
20
923.002
10
3.976
20
922.768
10
4.000
20
922.524
10
3.976
20
922.280
10
3.905
20
922.046
10
3.789
20
921.829
10
3.634
20
921.640
10
3.444
20
921.485
10
3.228
20
921.369
10
2.994
20
921.298
10
2.750
20
921.274
10
2.506
20
921.298
10
2.272
20
921.369
10
2.056
20
921.485
10
1.866
20
921.640
10
1.711
20
921.829
10
1.595
20
922.046
10
1.524
20
922.280
10
1.500
20
922.524
0
LWPOLYLINE
8
INTERIOR_PROFILES
90
33
70
1
10
798.848
20
899.524
10
798.880
20
899.856
10
798.977
20
900.174
10
799.134
20
900.468
10
799.346
20
900.726
10
799.603
20
900.937
10
799.897
20
901.094
10
800.216
20
901.191
10
800.548
20
901.224
10
800.879
20
901.191
10
801.198
20
901.094
10
801.492
20
900.937
10
801.750
20
900.726
10
801.961
20
900.468
10
802.118
20
900.174
10
802.215
20
899.856
10
802.248
20
899.524
10
802.215
20
899.192
10
802.118
20
898.873
10
801.961
20
898.579
10
801.750
20
898.322
10
801.492
20
898.110
10
801.198
20
897.953
10
800.879
20
897.857
10
800.548
20
897.824
10
800.216
20
897.857
10
799.897
20
897.953
10
799.603
20
898.110
10
799.346
20
898.322
10
799.134
20
898.579
10
798.977
20
898.873
10
798.880
20
899.192
10
798.848
20
899.524
0
LWPOLYLINE
8
INTERIOR_PROFILES
90
33
70
1
10
733.324
20
837.000
10
733.357
20
837.332
10
733.453
20
837.651
10
733.610
20
837.944
10
733.822
20
838.202
10
734.079
20
838.413
10
734.373
20
838.571
10
734.692
20
838.667
10
735.024
20
838.700
10
735.356
20
838.667
10
735.674
20
838.571
10
735.968
20
838.413
10
736.226
20
838.202
10
736.437
20
837.944
10
736.594
20
837.651
10
736.691
20
837.332
10
736.724
20
837.000
10
736.691
20
836.668
10
736.594
20
836.349
10
736.437
20
836.056
10
736.226
20
835.798
10
735.968
20
835.587
10
735.674
20
835.429
10
735.356
20
835.333
10
735.024
20
835.300
10
734.692
20
835.333
10
734.373
20
835.429
10
734.079
20
835.587
10
733.822
20
835.798
10
733.610
20
836.056
10
733.453
20
836.349
10
733.357
20
836.668
10
733.324
20
837.000
0
LWPOLYLINE
8
INTERIOR_PROFILES
90
33
70
1
10
801.048
20
922.524
10
801.072
20
922.768
10
801.143
20
923.002
10
801.258
20
923.218
10
801.414
20
923.408
10
801.603
20
923.563
10
801.819
20
923.679
10
802.054
20
923.750
10
802.298
20
923.774
10
802.542
20
923.750
10
802.776
20
923.679
10
802.992
20
923.563
10
803.182
20
923.408
10
803.337
20
923.218
10
803.453
20
923.002
10
803.524
20
922.768
10
803.548
20
922.524
10
803.524
20
922.280
10
803.453
20
922.046
10
803.337
20
921.829
10
803.182
20
921.640
10
802.992
20
921.485
10
802.776
20
921.369
10
802.542
20
921.298
10
802.298
20
921.274
10
802.054
20
921.298
10
801.819
20
921.369
10
801.603
20
921.485
10
801.414
20
921.640
10
801.258
20
921.829
10
801.143
20
922.046
10
801.072
20
922.280
10
801.048
20
922.524
0
LWPOLYLINE
8
INTERIOR_PROFILES
90
33
70
1
10
2.800
20
931.524
10
2.833
20
931.856
10
2.929
20
932.174
10
3.087
20
932.468
10
3.298
20
932.726
10
3.556
20
932.937
10
3.849
20
933.094
10
4.168
20
933.191
10
4.500
20
933.224
10
4.832
20
933.191
10
5.151
20
933.094
10
5.444
20
932.937
10
5.702
20
932.726
10
5.913
20
932.468
10
6.071
20
932.174
10
6.167
20
931.856
10
6.200
20
931.524
10
6.167
20
931.192
10
6.071
20
930.873
10
5.913
20
930.579
10
5.702
20
930.322
10
5.444
20
930.110
10
5.151
20
929.953
10
4.832
20
929.857
10
4.500
20
929.824
10
4.168
20
929.857
10
3.849
20
929.953
10
3.556
20
930.110
10
3.298
20
930.322
10
3.087
20
930.579
10
2.929
20
930.873
10
2.833
20
931.192
10
2.800
20
931.524
0
LWPOLYLINE
8
INTERIOR_PROFILES
90
33
70
1
10
2.800
20
899.524
10
2.833
20
899.856
10
2.929
20
900.174
10
3.087
20
900.468
10
3.298
20
900.726
10
3.556
20
900.937
10
3.849
20
901.094
10
4.168
20
901.191
10
4.500
20
901.224
10
4.832
20
901.191
10
5.151
20
901.094
10
5.444
20
900.937
10
5.702
20
900.726
10
5.913
20
900.468
10
6.071
20
900.174
10
6.167
20
899.856
10
6.200
20
899.524
10
6.167
20
899.192
10
6.071
20
898.873
10
5.913
20
898.579
10
5.702
20
898.322
10
5.444
20
898.110
10
5.151
20
897.953
10
4.832
20
897.857
10
4.500
20
897.824
10
4.168
20
897.857
10
3.849
20
897.953
10
3.556
20
898.110
10
3.298
20
898.322
10
3.087
20
898.579
10
2.929
20
898.873
10
2.833
20
899.192
10
2.800
20
899.524
0
LWPOLYLINE
8
INTERIOR_PROFILES
90
33
70
1
10
39.024
20
837.000
10
39.000
20
837.244
10
38.929
20
837.478
10
38.813
20
837.694
10
38.658
20
837.884
10
38.468
20
838.039
10
38.252
20
838.155
10
38.018
20
838.226
10
37.774
20
838.250
10
37.530
20
838.226
10
37.296
20
838.155
10
37.079
20
838.039
10
36.890
20
837.884
10
36.735
20
837.694
10
36.619
20
837.478
10
36.548
20
837.244
10
36.524
20
837.000
10
36.548
20
836.756
10
36.619
20
836.522
10
36.735
20
836.306
10
36.890
20
836.116
10
37.079
20
835.961
10
37.296
20
835.845
10
37.530
20
835.774
10
37.774
20
835.750
10
38.018
20
835.774
10
38.252
20
835.845
10
38.468
20
835.961
10
38.658
20
836.116
10
38.813
20
836.306
10
38.929
20
836.522
10
39.000
20
836.756
10
39.024
20
837.000
0
LWPOLYLINE
8
OUTER_PROFILES
90
119
70
1
10
778.029
20
1048.100
10
777.870
20
1047.893
10
777.770
20
1047.652
10
777.736
20
1047.393
10
777.770
20
1047.134
10
777.870
20
1046.893
10
778.029
20
1046.686
10
783.553
20
1041.162
10
792.524
20
1041.162
10
792.524
20
995.362
10
783.553
20
995.362
10
778.029
20
989.838
10
777.890
20
989.663
10
777.793
20
989.461
10
777.743
20
989.243
10
777.743
20
989.019
10
777.793
20
988.801
10
777.890
20
988.599
10
778.029
20
988.424
10
783.524
20
982.929
10
783.524
20
974.000
10
9.000
20
974.000
10
9.000
20
982.929
10
14.495
20
988.424
10
14.653
20
988.631
10
14.753
20
988.872
10
14.787
20
989.131
10
14.753
20
989.390
10
14.653
20
989.631
10
14.495
20
989.838
10
8.971
20
995.362
10
0.000
20
995.362
10
0.000
20
1041.162
10
8.971
20
1041.162
10
14.495
20
1046.686
10
14.634
20
1046.861
10
14.731
20
1047.063
10
14.781
20
1047.281
10
14.781
20
1047.505
10
14.731
20
1047.723
10
14.634
20
1047.925
10
14.495
20
1048.100
10
9.000
20
1053.595
10
9.000
20
1062.524
10
14.000
20
1062.524
10
16.262
20
1060.524
10
16.262
20
1069.800
10
16.324
20
1070.354
10
16.508
20
1070.881
10
16.803
20
1071.354
10
17.196
20
1071.749
10
17.667
20
1072.048
10
17.958
20
1072.168
10
18.262
20
1072.250
10
20.615
20
1073.045
10
22.699
20
1074.395
10
24.386
20
1076.217
10
25.573
20
1078.399
10
26.185
20
1080.806
10
26.185
20
1083.290
10
25.573
20
1085.696
10
24.386
20
1087.878
10
22.699
20
1089.700
10
20.615
20
1091.051
10
18.262
20
1091.846
10
17.958
20
1091.928
10
17.667
20
1092.048
10
17.196
20
1092.346
10
16.803
20
1092.742
10
16.508
20
1093.215
10
16.324
20
1093.741
10
16.262
20
1094.295
10
16.262
20
1101.310
10
16.312
20
1101.755
10
16.460
20
1102.178
10
16.698
20
1102.557
10
17.015
20
1102.873
10
17.394
20
1103.112
10
17.817
20
1103.260
10
18.262
20
1103.310
10
774.262
20
1103.310
10
774.707
20
1103.260
10
775.130
20
1103.112
10
775.509
20
1102.873
10
775.826
20
1102.557
10
776.064
20
1102.178
10
776.212
20
1101.755
10
776.262
20
1101.310
10
776.262
20
1094.295
10
776.200
20
1093.741
10
776.016
20
1093.215
10
775.721
20
1092.742
10
775.328
20
1092.346
10
774.857
20
1092.048
10
774.566
20
1091.928
10
774.262
20
1091.846
10
771.909
20
1091.051
10
769.825
20
1089.700
10
768.138
20
1087.878
10
766.951
20
1085.696
10
766.339
20
1083.290
10
766.339
20
1080.806
10
766.951
20
1078.399
10
768.138
20
1076.217
10
769.825
20
1074.395
10
771.909
20
1073.045
10
774.262
20
1072.250
10
774.566
20
1072.168
10
774.857
20
1072.048
10
775.328
20
1071.749
10
775.721
20
1071.354
10
776.016
20
1070.881
10
776.200
20
1070.354
10
776.262
20
1069.800
10
776.262
20
1060.524
10
778.524
20
1062.524
10
783.524
20
1062.524
10
783.524
20
1053.595
10
778.029
20
1048.100
0
LWPOLYLINE
8
INTERIOR_PROFILES
90
33
70
1
10
395.012
20
1082.048
10
395.036
20
1082.292
10
395.107
20
1082.526
10
395.223
20
1082.742
10
395.378
20
1082.932
10
395.567
20
1083.087
10
395.784
20
1083.203
10
396.018
20
1083.274
10
396.262
20
1083.298
10
396.506
20
1083.274
10
396.740
20
1083.203
10
396.956
20
1083.087
10
397.146
20
1082.932
10
397.301
20
1082.742
10
397.417
20
1082.526
10
397.488
20
1082.292
10
397.512
20
1082.048
10
397.488
20
1081.804
10
397.417
20
1081.569
10
397.301
20
1081.353
10
397.146
20
1081.164
10
396.956
20
1081.008
10
396.740
20
1080.893
10
396.506
20
1080.822
10
396.262
20
1080.798
10
396.018
20
1080.822
10
395.784
20
1080.893
10
395.567
20
1081.008
10
395.378
20
1081.164
10
395.223
20
1081.353
10
395.107
20
1081.569
10
395.036
20
1081.804
10
395.012
20
1082.048
0
LWPOLYLINE
8
INTERIOR_PROFILES
90
33
70
1
10
695.012
20
1082.048
10
695.036
20
1082.292
10
695.107
20
1082.526
10
695.223
20
1082.742
10
695.378
20
1082.932
10
695.567
20
1083.087
10
695.784
20
1083.203
10
696.018
20
1083.274
10
696.262
20
1083.298
10
696.506
20
1083.274
10
696.740
20
1083.203
10
696.956
20
1083.087
10
697.146
20
1082.932
10
697.301
20
1082.742
10
697.417
20
1082.526
10
697.488
20
1082.292
10
697.512
20
1082.048
10
697.488
20
1081.804
10
697.417
20
1081.569
10
697.301
20
1081.353
10
697.146
20
1081.164
10
696.956
20
1081.008
10
696.740
20
1080.893
10
696.506
20
1080.822
10
696.262
20
1080.798
10
696.018
20
1080.822
10
695.784
20
1080.893
10
695.567
20
1081.008
10
695.378
20
1081.164
10
695.223
20
1081.353
10
695.107
20
1081.569
10
695.036
20
1081.804
10
695.012
20
1082.048
0
LWPOLYLINE
8
INTERIOR_PROFILES
90
33
70
1
10
5.300
20
1028.262
10
5.333
20
1028.594
10
5.429
20
1028.913
10
5.587
20
1029.206
10
5.798
20
1029.464
10
6.056
20
1029.675
10
6.349
20
1029.833
10
6.668
20
1029.929
10
7.000
20
1029.962
10
7.332
20
1029.929
10
7.651
20
1029.833
10
7.944
20
1029.675
10
8.202
20
1029.464
10
8.413
20
1029.206
10
8.571
20
1028.913
10
8.667
20
1028.594
10
8.700
20
1028.262
10
8.667
20
1027.930
10
8.571
20
1027.611
10
8.413
20
1027.317
10
8.202
20
1027.060
10
7.944
20
1026.848
10
7.651
20
1026.691
10
7.332
20
1026.595
10
7.000
20
1026.562
10
6.668
20
1026.595
10
6.349
20
1026.691
10
6.056
20
1026.848
10
5.798
20
1027.060
10
5.587
20
1027.317
10
5.429
20
1027.611
10
5.333
20
1027.930
10
5.300
20
1028.262
0
LWPOLYLINE
8
INTERIOR_PROFILES
90
33
70
1
10
391.262
20
1038.262
10
391.358
20
1039.237
10
391.643
20
1040.175
10
392.105
20
1041.040
10
392.726
20
1041.797
10
393.484
20
1042.419
10
394.349
20
1042.881
10
395.286
20
1043.166
10
396.262
20
1043.262
10
397.237
20
1043.166
10
398.175
20
1042.881
10
399.040
20
1042.419
10
399.797
20
1041.797
10
400.419
20
1041.040
10
400.881
20
1040.175
10
401.166
20
1039.237
10
401.262
20
1038.262
10
401.166
20
1037.286
10
400.881
20
1036.349
10
400.419
20
1035.484
10
399.797
20
1034.726
10
399.040
20
1034.105
10
398.175
20
1033.643
10
397.237
20
1033.358
10
396.262
20
1033.262
10
395.286
20
1033.358
10
394.349
20
1033.643
10
393.484
20
1034.105
10
392.726
20
1034.726
10
392.105
20
1035.484
10
391.643
20
1036.349
10
391.358
20
1037.286
10
391.262
20
1038.262
0
LWPOLYLINE
8
INTERIOR_PROFILES
90
33
70
1
10
8.700
20
998.262
10
8.667
20
998.594
10
8.571
20
998.913
10
8.413
20
999.206
10
8.202
20
999.464
10
7.944
20
999.675
10
7.651
20
999.833
10
7.332
20
999.929
10
7.000
20
999.962
10
6.668
20
999.929
10
6.349
20
999.833
10
6.056
20
999.675
10
5.798
20
999.464
10
5.587
20
999.206
10
5.429
20
998.913
10
5.333
20
998.594
10
5.300
20
998.262
10
5.333
20
997.930
10
5.429
20
997.611
10
5.587
20
997.317
10
5.798
20
997.060
10
6.056
20
996.848
10
6.349
20
996.691
10
6.668
20
996.595
10
7.000
20
996.562
10
7.332
20
996.595
10
7.651
20
996.691
10
7.944
20
996.848
10
8.202
20
997.060
10
8.413
20
997.317
10
8.571
20
997.611
10
8.667
20
997.930
10
8.700
20
998.262
0
LWPOLYLINE
8
INTERIOR_PROFILES
90
33
70
1
10
783.824
20
998.262
10
783.857
20
998.594
10
783.953
20
998.913
10
784.110
20
999.206
10
784.322
20
999.464
10
784.579
20
999.675
10
784.873
20
999.833
10
785.192
20
999.929
10
785.524
20
999.962
10
785.856
20
999.929
10
786.174
20
999.833
10
786.468
20
999.675
10
786.726
20
999.464
10
786.937
20
999.206
10
787.094
20
998.913
10
787.191
20
998.594
10
787.224
20
998.262
10
787.191
20
997.930
10
787.094
20
997.611
10
786.937
20
997.317
10
786.726
20
997.060
10
786.468
20
996.848
10
786.174
20
996.691
10
785.856
20
996.595
10
785.524
20
996.562
10
785.192
20
996.595
10
784.873
20
996.691
10
784.579
20
996.848
10
784.322
20
997.060
10
784.110
20
997.317
10
783.953
20
997.611
10
783.857
20
997.930
10
783.824
20
998.262
0
LWPOLYLINE
8
INTERIOR_PROFILES
90
33
70
1
10
95.012
20
1082.048
10
95.036
20
1082.292
10
95.107
20
1082.526
10
95.223
20
1082.742
10
95.378
20
1082.932
10
95.567
20
1083.087
10
95.784
20
1083.203
10
96.018
20
1083.274
10
96.262
20
1083.298
10
96.506
20
1083.274
10
96.740
20
1083.203
10
96.956
20
1083.087
10
97.146
20
1082.932
10
97.301
20
1082.742
10
97.417
20
1082.526
10
97.488
20
1082.292
10
97.512
20
1082.048
10
97.488
20
1081.804
10
97.417
20
1081.569
10
97.301
20
1081.353
10
97.146
20
1081.164
10
96.956
20
1081.008
10
96.740
20
1080.893
10
96.506
20
1080.822
10
96.262
20
1080.798
10
96.018
20
1080.822
10
95.784
20
1080.893
10
95.567
20
1081.008
10
95.378
20
1081.164
10
95.223
20
1081.353
10
95.107
20
1081.569
10
95.036
20
1081.804
10
95.012
20
1082.048
0
LWPOLYLINE
8
INTERIOR_PROFILES
90
33
70
1
10
783.824
20
1028.262
10
783.857
20
1028.594
10
783.953
20
1028.913
10
784.110
20
1029.206
10
784.322
20
1029.464
10
784.579
20
1029.675
10
784.873
20
1029.833
10
785.192
20
1029.929
10
785.524
20
1029.962
10
785.856
20
1029.929
10
786.174
20
1029.833
10
786.468
20
1029.675
10
786.726
20
1029.464
10
786.937
20
1029.206
10
787.094
20
1028.913
10
787.191
20
1028.594
10
787.224
20
1028.262
10
787.191
20
1027.930
10
787.094
20
1027.611
10
786.937
20
1027.317
10
786.726
20
1027.060
10
786.468
20
1026.848
10
786.174
20
1026.691
10
785.856
20
1026.595
10
785.524
20
1026.562
10
785.192
20
1026.595
10
784.873
20
1026.691
10
784.579
20
1026.848
10
784.322
20
1027.060
10
784.110
20
1027.317
10
783.953
20
1027.611
10
783.857
20
1027.930
10
783.824
20
1028.262
0
LWPOLYLINE
8
OUTER_PROFILES
90
102
70
1
10
795.000
20
988.000
10
795.064
20
988.568
10
795.253
20
989.107
10
795.558
20
989.591
10
795.963
20
989.994
10
796.448
20
990.296
10
796.988
20
990.483
10
798.479
20
990.949
10
799.913
20
991.664
10
801.267
20
992.617
10
802.519
20
993.792
10
803.648
20
995.170
10
804.637
20
996.728
10
805.469
20
998.442
10
806.131
20
1000.283
10
806.611
20
1002.221
10
806.902
20
1004.225
10
807.000
20
1006.262
10
807.000
20
1064.786
10
806.902
20
1066.823
10
806.611
20
1068.827
10
806.131
20
1070.765
10
805.469
20
1072.606
10
804.637
20
1074.320
10
803.648
20
1075.878
10
802.519
20
1077.256
10
801.267
20
1078.431
10
799.913
20
1079.384
10
798.479
20
1080.099
10
796.988
20
1080.565
10
796.448
20
1080.751
10
795.963
20
1081.054
10
795.558
20
1081.457
10
795.253
20
1081.941
10
795.064
20
1082.480
10
795.000
20
1083.048
10
795.000
20
1095.048
10
795.050
20
1095.493
10
795.198
20
1095.916
10
795.436
20
1096.295
10
795.753
20
1096.611
10
796.132
20
1096.850
10
796.555
20
1096.998
10
797.000
20
1097.048
10
1589.000
20
1097.048
10
1589.518
20
1096.980
10
1590.000
20
1096.780
10
1590.414
20
1096.462
10
1590.732
20
1096.048
10
1590.932
20
1095.565
10
1591.000
20
1095.048
10
1591.000
20
1083.048
10
1590.936
20
1082.480
10
1590.747
20
1081.941
10
1590.442
20
1081.457
10
1590.037
20
1081.054
10
1589.552
20
1080.751
10
1589.012
20
1080.565
10
1587.521
20
1080.099
10
1586.087
20
1079.384
10
1584.733
20
1078.431
10
1583.481
20
1077.256
10
1582.352
20
1075.878
10
1581.363
20
1074.320
10
1580.531
20
1072.606
10
1579.869
20
1070.765
10
1579.389
20
1068.827
10
1579.098
20
1066.823
10
1579.000
20
1064.786
10
1579.000
20
1006.262
10
1579.098
20
1004.225
10
1579.389
20
1002.221
10
1579.869
20
1000.283
10
1580.531
20
998.442
10
1581.363
20
996.728
10
1582.352
20
995.170
10
1583.481
20
993.792
10
1584.733
20
992.617
10
1586.087
20
991.664
10
1587.521
20
990.949
10
1589.012
20
990.483
10
1589.552
20
990.296
10
1590.037
20
989.994
10
1590.442
20
989.591
10
1590.747
20
989.107
10
1590.936
20
988.568
10
1591.000
20
988.000
10
1591.000
20
976.000
10
1590.932
20
975.482
10
1590.732
20
975.000
10
1590.414
20
974.586
10
1590.000
20
974.268
10
1589.518
20
974.068
10
1589.000
20
974.000
10
797.000
20
974.000
10
796.482
20
974.068
10
796.000
20
974.268
10
795.586
20
974.586
10
795.268
20
975.000
10
795.068
20
975.482
10
795.000
20
976.000
10
795.000
20
988.000
0
LWPOLYLINE
8
INTERIOR_PROFILES
90
29
70
1
10
894.375
20
988.000
10
894.304
20
988.065
10
894.227
20
988.127
10
894.145
20
988.185
10
894.058
20
988.239
10
893.966
20
988.288
10
893.871
20
988.333
10
893.771
20
988.373
10
893.669
20
988.409
10
893.563
20
988.440
10
893.455
20
988.466
10
893.345
20
988.486
10
893.233
20
988.501
10
893.120
20
988.510
10
893.006
20
988.514
10
892.891
20
988.512
10
892.776
20
988.503
10
892.662
20
988.489
10
892.549
20
988.468
10
892.439
20
988.443
10
892.332
20
988.412
10
892.229
20
988.376
10
892.129
20
988.335
10
892.033
20
988.289
10
891.941
20
988.240
10
891.855
20
988.186
10
891.773
20
988.127
10
891.696
20
988.066
10
891.625
20
988.000
0
LWPOLYLINE
8
INTERIOR_PROFILES
90
18
70
1
10
894.375
20
988.000
10
894.585
20
987.615
10
894.689
20
987.189
10
894.682
20
986.750
10
894.562
20
986.328
10
894.338
20
985.951
10
894.025
20
985.644
10
893.643
20
985.426
10
893.219
20
985.314
10
892.781
20
985.314
10
892.357
20
985.426
10
891.975
20
985.644
10
891.662
20
985.951
10
891.438
20
986.328
10
891.318
20
986.750
10
891.311
20
987.189
10
891.415
20
987.615
10
891.625
20
988.000
0
LWPOLYLINE
8
INTERIOR_PROFILES
90
18
70
1
10
803.375
20
988.000
10
803.585
20
987.615
10
803.689
20
987.189
10
803.682
20
986.750
10
803.562
20
986.328
10
803.338
20
985.951
10
803.025
20
985.644
10
802.643
20
985.426
10
802.219
20
985.314
10
801.781
20
985.314
10
801.357
20
985.426
10
800.975
20
985.644
10
800.662
20
985.951
10
800.438
20
986.328
10
800.318
20
986.750
10
800.311
20
987.189
10
800.415
20
987.615
10
800.625
20
988.000
0
LWPOLYLINE
8
INTERIOR_PROFILES
90
29
70
1
10
803.375
20
988.000
10
803.304
20
988.065
10
803.227
20
988.127
10
803.145
20
988.185
10
803.058
20
988.239
10
802.966
20
988.288
10
802.871
20
988.333
10
802.771
20
988.373
10
802.669
20
988.409
10
802.563
20
988.440
10
802.455
20
988.466
10
802.345
20
988.486
10
802.233
20
988.501
10
802.120
20
988.510
10
802.006
20
988.514
10
801.891
20
988.512
10
801.776
20
988.503
10
801.662
20
988.489
10
801.549
20
988.468
10
801.439
20
988.443
10
801.332
20
988.412
10
801.229
20
988.376
10
801.129
20
988.335
10
801.033
20
988.289
10
800.941
20
988.240
10
800.855
20
988.186
10
800.773
20
988.127
10
800.696
20
988.066
10
800.625
20
988.000
0
LWPOLYLINE
8
INTERIOR_PROFILES
90
29
70
1
10
829.375
20
988.000
10
829.304
20
988.065
10
829.227
20
988.127
10
829.145
20
988.185
10
829.058
20
988.239
10
828.966
20
988.288
10
828.871
20
988.333
10
828.771
20
988.373
10
828.669
20
988.409
10
828.563
20
988.440
10
828.455
20
988.466
10
828.345
20
988.486
10
828.233
20
988.501
10
828.120
20
988.510
10
828.006
20
988.514
10
827.891
20
988.512
10
827.776
20
988.503
10
827.662
20
988.489
10
827.549
20
988.468
10
827.439
20
988.443
10
827.332
20
988.412
10
827.229
20
988.376
10
827.129
20
988.335
10
827.033
20
988.289
10
826.941
20
988.240
10
826.855
20
988.186
10
826.773
20
988.127
10
826.696
20
988.066
10
826.625
20
988.000
0
LWPOLYLINE
8
INTERIOR_PROFILES
90
18
70
1
10
829.375
20
988.000
10
829.585
20
987.615
10
829.689
20
987.189
10
829.682
20
986.750
10
829.562
20
986.328
10
829.338
20
985.951
10
829.025
20
985.644
10
828.643
20
985.426
10
828.219
20
985.314
10
827.781
20
985.314
10
827.357
20
985.426
10
826.975
20
985.644
10
826.662
20
985.951
10
826.438
20
986.328
10
826.318
20
986.750
10
826.311
20
987.189
10
826.415
20
987.615
10
826.625
20
988.000
0
LWPOLYLINE
8
INTERIOR_PROFILES
90
18
70
1
10
1044.375
20
988.000
10
1044.585
20
987.615
10
1044.689
20
987.189
10
1044.682
20
986.750
10
1044.562
20
986.328
10
1044.338
20
985.951
10
1044.025
20
985.644
10
1043.643
20
985.426
10
1043.219
20
985.314
10
1042.781
20
985.314
10
1042.357
20
985.426
10
1041.975
20
985.644
10
1041.662
20
985.951
10
1041.438
20
986.328
10
1041.318
20
986.750
10
1041.311
20
987.189
10
1041.415
20
987.615
10
1041.625
20
988.000
0
LWPOLYLINE
8
INTERIOR_PROFILES
90
29
70
1
10
1044.375
20
988.000
10
1044.304
20
988.065
10
1044.227
20
988.127
10
1044.145
20
988.185
10
1044.058
20
988.239
10
1043.966
20
988.288
10
1043.871
20
988.333
10
1043.771
20
988.373
10
1043.669
20
988.409
10
1043.563
20
988.440
10
1043.455
20
988.466
10
1043.345
20
988.486
10
1043.233
20
988.501
10
1043.120
20
988.510
10
1043.006
20
988.514
10
1042.891
20
988.512
10
1042.776
20
988.503
10
1042.662
20
988.489
10
1042.549
20
988.468
10
1042.439
20
988.443
10
1042.332
20
988.412
10
1042.229
20
988.376
10
1042.129
20
988.335
10
1042.033
20
988.289
10
1041.941
20
988.240
10
1041.855
20
988.186
10
1041.773
20
988.127
10
1041.696
20
988.066
10
1041.625
20
988.000
0
LWPOLYLINE
8
INTERIOR_PROFILES
90
29
70
1
10
994.375
20
988.000
10
994.304
20
988.065
10
994.227
20
988.127
10
994.145
20
988.185
10
994.058
20
988.239
10
993.966
20
988.288
10
993.871
20
988.333
10
993.771
20
988.373
10
993.669
20
988.409
10
993.563
20
988.440
10
993.455
20
988.466
10
993.345
20
988.486
10
993.233
20
988.501
10
993.120
20
988.510
10
993.006
20
988.514
10
992.891
20
988.512
10
992.776
20
988.503
10
992.662
20
988.489
10
992.549
20
988.468
10
992.439
20
988.443
10
992.332
20
988.412
10
992.229
20
988.376
10
992.129
20
988.335
10
992.033
20
988.289
10
991.941
20
988.240
10
991.855
20
988.186
10
991.773
20
988.127
10
991.696
20
988.066
10
991.625
20
988.000
0
LWPOLYLINE
8
INTERIOR_PROFILES
90
18
70
1
10
994.375
20
988.000
10
994.585
20
987.615
10
994.689
20
987.189
10
994.682
20
986.750
10
994.562
20
986.328
10
994.338
20
985.951
10
994.025
20
985.644
10
993.643
20
985.426
10
993.219
20
985.314
10
992.781
20
985.314
10
992.357
20
985.426
10
991.975
20
985.644
10
991.662
20
985.951
10
991.438
20
986.328
10
991.318
20
986.750
10
991.311
20
987.189
10
991.415
20
987.615
10
991.625
20
988.000
0
LWPOLYLINE
8
INTERIOR_PROFILES
90
18
70
1
10
875.375
20
988.000
10
875.585
20
987.615
10
875.689
20
987.189
10
875.682
20
986.750
10
875.562
20
986.328
10
875.338
20
985.951
10
875.025
20
985.644
10
874.643
20
985.426
10
874.219
20
985.314
10
873.781
20
985.314
10
873.357
20
985.426
10
872.975
20
985.644
10
872.662
20
985.951
10
872.438
20
986.328
10
872.318
20
986.750
10
872.311
20
987.189
10
872.415
20
987.615
10
872.625
20
988.000
0
LWPOLYLINE
8
INTERIOR_PROFILES
90
29
70
1
10
875.375
20
988.000
10
875.304
20
988.065
10
875.227
20
988.127
10
875.145
20
988.185
10
875.058
20
988.239
10
874.966
20
988.288
10
874.871
20
988.333
10
874.771
20
988.373
10
874.669
20
988.409
10
874.563
20
988.440
10
874.455
20
988.466
10
874.345
20
988.486
10
874.233
20
988.501
10
874.120
20
988.510
10
874.006
20
988.514
10
873.891
20
988.512
10
873.776
20
988.503
10
873.662
20
988.489
10
873.549
20
988.468
10
873.439
20
988.443
10
873.332
20
988.412
10
873.229
20
988.376
10
873.129
20
988.335
10
873.033
20
988.289
10
872.941
20
988.240
10
872.855
20
988.186
10
872.773
20
988.127
10
872.696
20
988.066
10
872.625
20
988.000
0
LWPOLYLINE
8
INTERIOR_PROFILES
90
29
70
1
10
1194.375
20
988.000
10
1194.304
20
988.065
10
1194.227
20
988.127
10
1194.145
20
988.185
10
1194.058
20
988.239
10
1193.966
20
988.288
10
1193.871
20
988.333
10
1193.771
20
988.373
10
1193.669
20
988.409
10
1193.563
20
988.440
10
1193.455
20
988.466
10
1193.345
20
988.486
10
1193.233
20
988.501
10
1193.120
20
988.510
10
1193.006
20
988.514
10
1192.891
20
988.512
10
1192.776
20
988.503
10
1192.662
20
988.489
10
1192.549
20
988.468
10
1192.439
20
988.443
10
1192.332
20
988.412
10
1192.229
20
988.376
10
1192.129
20
988.335
10
1192.033
20
988.289
10
1191.941
20
988.240
10
1191.855
20
988.186
10
1191.773
20
988.127
10
1191.696
20
988.066
10
1191.625
20
988.000
0
LWPOLYLINE
8
INTERIOR_PROFILES
90
18
70
1
10
1194.375
20
988.000
10
1194.585
20
987.615
10
1194.689
20
987.189
10
1194.682
20
986.750
10
1194.562
20
986.328
10
1194.338
20
985.951
10
1194.025
20
985.644
10
1193.643
20
985.426
10
1193.219
20
985.314
10
1192.781
20
985.314
10
1192.357
20
985.426
10
1191.975
20
985.644
10
1191.662
20
985.951
10
1191.438
20
986.328
10
1191.318
20
986.750
10
1191.311
20
987.189
10
1191.415
20
987.615
10
1191.625
20
988.000
0
LWPOLYLINE
8
INTERIOR_PROFILES
90
29
70
1
10
1294.375
20
988.000
10
1294.304
20
988.065
10
1294.227
20
988.127
10
1294.145
20
988.185
10
1294.058
20
988.239
10
1293.966
20
988.288
10
1293.871
20
988.333
10
1293.771
20
988.373
10
1293.669
20
988.409
10
1293.563
20
988.440
10
1293.455
20
988.466
10
1293.345
20
988.486
10
1293.233
20
988.501
10
1293.120
20
988.510
10
1293.006
20
988.514
10
1292.891
20
988.512
10
1292.776
20
988.503
10
1292.662
20
988.489
10
1292.549
20
988.468
10
1292.439
20
988.443
10
1292.332
20
988.412
10
1292.229
20
988.376
10
1292.129
20
988.335
10
1292.033
20
988.289
10
1291.941
20
988.240
10
1291.855
20
988.186
10
1291.773
20
988.127
10
1291.696
20
988.066
10
1291.625
20
988.000
0
LWPOLYLINE
8
INTERIOR_PROFILES
90
18
70
1
10
1294.375
20
988.000
10
1294.585
20
987.615
10
1294.689
20
987.189
10
1294.682
20
986.750
10
1294.562
20
986.328
10
1294.338
20
985.951
10
1294.025
20
985.644
10
1293.643
20
985.426
10
1293.219
20
985.314
10
1292.781
20
985.314
10
1292.357
20
985.426
10
1291.975
20
985.644
10
1291.662
20
985.951
10
1291.438
20
986.328
10
1291.318
20
986.750
10
1291.311
20
987.189
10
1291.415
20
987.615
10
1291.625
20
988.000
0
LWPOLYLINE
8
INTERIOR_PROFILES
90
18
70
1
10
1244.375
20
988.000
10
1244.585
20
987.615
10
1244.689
20
987.189
10
1244.682
20
986.750
10
1244.562
20
986.328
10
1244.338
20
985.951
10
1244.025
20
985.644
10
1243.643
20
985.426
10
1243.219
20
985.314
10
1242.781
20
985.314
10
1242.357
20
985.426
10
1241.975
20
985.644
10
1241.662
20
985.951
10
1241.438
20
986.328
10
1241.318
20
986.750
10
1241.311
20
987.189
10
1241.415
20
987.615
10
1241.625
20
988.000
0
LWPOLYLINE
8
INTERIOR_PROFILES
90
29
70
1
10
1244.375
20
988.000
10
1244.304
20
988.065
10
1244.227
20
988.127
10
1244.145
20
988.185
10
1244.058
20
988.239
10
1243.966
20
988.288
10
1243.871
20
988.333
10
1243.771
20
988.373
10
1243.669
20
988.409
10
1243.563
20
988.440
10
1243.455
20
988.466
10
1243.345
20
988.486
10
1243.233
20
988.501
10
1243.120
20
988.510
10
1243.006
20
988.514
10
1242.891
20
988.512
10
1242.776
20
988.503
10
1242.662
20
988.489
10
1242.549
20
988.468
10
1242.439
20
988.443
10
1242.332
20
988.412
10
1242.229
20
988.376
10
1242.129
20
988.335
10
1242.033
20
988.289
10
1241.941
20
988.240
10
1241.855
20
988.186
10
1241.773
20
988.127
10
1241.696
20
988.066
10
1241.625
20
988.000
0
LWPOLYLINE
8
INTERIOR_PROFILES
90
18
70
1
10
944.375
20
988.000
10
944.585
20
987.615
10
944.689
20
987.189
10
944.682
20
986.750
10
944.562
20
986.328
10
944.338
20
985.951
10
944.025
20
985.644
10
943.643
20
985.426
10
943.219
20
985.314
10
942.781
20
985.314
10
942.357
20
985.426
10
941.975
20
985.644
10
941.662
20
985.951
10
941.438
20
986.328
10
941.318
20
986.750
10
941.311
20
987.189
10
941.415
20
987.615
10
941.625
20
988.000
0
LWPOLYLINE
8
INTERIOR_PROFILES
90
29
70
1
10
944.375
20
988.000
10
944.304
20
988.065
10
944.227
20
988.127
10
944.145
20
988.185
10
944.058
20
988.239
10
943.966
20
988.288
10
943.871
20
988.333
10
943.771
20
988.373
10
943.669
20
988.409
10
943.563
20
988.440
10
943.455
20
988.466
10
943.345
20
988.486
10
943.233
20
988.501
10
943.120
20
988.510
10
943.006
20
988.514
10
942.891
20
988.512
10
942.776
20
988.503
10
942.662
20
988.489
10
942.549
20
988.468
10
942.439
20
988.443
10
942.332
20
988.412
10
942.229
20
988.376
10
942.129
20
988.335
10
942.033
20
988.289
10
941.941
20
988.240
10
941.855
20
988.186
10
941.773
20
988.127
10
941.696
20
988.066
10
941.625
20
988.000
0
LWPOLYLINE
8
INTERIOR_PROFILES
90
18
70
1
10
1144.375
20
988.000
10
1144.585
20
987.615
10
1144.689
20
987.189
10
1144.682
20
986.750
10
1144.562
20
986.328
10
1144.338
20
985.951
10
1144.025
20
985.644
10
1143.643
20
985.426
10
1143.219
20
985.314
10
1142.781
20
985.314
10
1142.357
20
985.426
10
1141.975
20
985.644
10
1141.662
20
985.951
10
1141.438
20
986.328
10
1141.318
20
986.750
10
1141.311
20
987.189
10
1141.415
20
987.615
10
1141.625
20
988.000
0
LWPOLYLINE
8
INTERIOR_PROFILES
90
29
70
1
10
1144.375
20
988.000
10
1144.304
20
988.065
10
1144.227
20
988.127
10
1144.145
20
988.185
10
1144.058
20
988.239
10
1143.966
20
988.288
10
1143.871
20
988.333
10
1143.771
20
988.373
10
1143.669
20
988.409
10
1143.563
20
988.440
10
1143.455
20
988.466
10
1143.345
20
988.486
10
1143.233
20
988.501
10
1143.120
20
988.510
10
1143.006
20
988.514
10
1142.891
20
988.512
10
1142.776
20
988.503
10
1142.662
20
988.489
10
1142.549
20
988.468
10
1142.439
20
988.443
10
1142.332
20
988.412
10
1142.229
20
988.376
10
1142.129
20
988.335
10
1142.033
20
988.289
10
1141.941
20
988.240
10
1141.855
20
988.186
10
1141.773
20
988.127
10
1141.696
20
988.066
10
1141.625
20
988.000
0
LWPOLYLINE
8
INTERIOR_PROFILES
90
29
70
1
10
1094.375
20
988.000
10
1094.304
20
988.065
10
1094.227
20
988.127
10
1094.145
20
988.185
10
1094.058
20
988.239
10
1093.966
20
988.288
10
1093.871
20
988.333
10
1093.771
20
988.373
10
1093.669
20
988.409
10
1093.563
20
988.440
10
1093.455
20
988.466
10
1093.345
20
988.486
10
1093.233
20
988.501
10
1093.120
20
988.510
10
1093.006
20
988.514
10
1092.891
20
988.512
10
1092.776
20
988.503
10
1092.662
20
988.489
10
1092.549
20
988.468
10
1092.439
20
988.443
10
1092.332
20
988.412
10
1092.229
20
988.376
10
1092.129
20
988.335
10
1092.033
20
988.289
10
1091.941
20
988.240
10
1091.855
20
988.186
10
1091.773
20
988.127
10
1091.696
20
988.066
10
1091.625
20
988.000
0
LWPOLYLINE
8
INTERIOR_PROFILES
90
18
70
1
10
1094.375
20
988.000
10
1094.585
20
987.615
10
1094.689
20
987.189
10
1094.682
20
986.750
10
1094.562
20
986.328
10
1094.338
20
985.951
10
1094.025
20
985.644
10
1093.643
20
985.426
10
1093.219
20
985.314
10
1092.781
20
985.314
10
1092.357
20
985.426
10
1091.975
20
985.644
10
1091.662
20
985.951
10
1091.438
20
986.328
10
1091.318
20
986.750
10
1091.311
20
987.189
10
1091.415
20
987.615
10
1091.625
20
988.000
0
LWPOLYLINE
8
INTERIOR_PROFILES
90
29
70
1
10
1544.375
20
988.000
10
1544.304
20
988.065
10
1544.227
20
988.127
10
1544.145
20
988.185
10
1544.058
20
988.239
10
1543.966
20
988.288
10
1543.871
20
988.333
10
1543.771
20
988.373
10
1543.669
20
988.409
10
1543.563
20
988.440
10
1543.455
20
988.466
10
1543.345
20
988.486
10
1543.233
20
988.501
10
1543.120
20
988.510
10
1543.006
20
988.514
10
1542.891
20
988.512
10
1542.776
20
988.503
10
1542.662
20
988.489
10
1542.549
20
988.468
10
1542.439
20
988.443
10
1542.332
20
988.412
10
1542.229
20
988.376
10
1542.129
20
988.335
10
1542.033
20
988.289
10
1541.941
20
988.240
10
1541.855
20
988.186
10
1541.773
20
988.127
10
1541.696
20
988.066
10
1541.625
20
988.000
0
LWPOLYLINE
8
INTERIOR_PROFILES
90
18
70
1
10
1544.375
20
988.000
10
1544.585
20
987.615
10
1544.689
20
987.189
10
1544.682
20
986.750
10
1544.562
20
986.328
10
1544.338
20
985.951
10
1544.025
20
985.644
10
1543.643
20
985.426
10
1543.219
20
985.314
10
1542.781
20
985.314
10
1542.357
20
985.426
10
1541.975
20
985.644
10
1541.662
20
985.951
10
1541.438
20
986.328
10
1541.318
20
986.750
10
1541.311
20
987.189
10
1541.415
20
987.615
10
1541.625
20
988.000
0
LWPOLYLINE
8
INTERIOR_PROFILES
90
18
70
1
10
1513.375
20
988.000
10
1513.585
20
987.615
10
1513.689
20
987.189
10
1513.682
20
986.750
10
1513.562
20
986.328
10
1513.338
20
985.951
10
1513.025
20
985.644
10
1512.643
20
985.426
10
1512.219
20
985.314
10
1511.781
20
985.314
10
1511.357
20
985.426
10
1510.975
20
985.644
10
1510.662
20
985.951
10
1510.438
20
986.328
10
1510.318
20
986.750
10
1510.311
20
987.189
10
1510.415
20
987.615
10
1510.625
20
988.000
0
LWPOLYLINE
8
INTERIOR_PROFILES
90
29
70
1
10
1513.375
20
988.000
10
1513.304
20
988.065
10
1513.227
20
988.127
10
1513.145
20
988.185
10
1513.058
20
988.239
10
1512.966
20
988.288
10
1512.871
20
988.333
10
1512.771
20
988.373
10
1512.669
20
988.409
10
1512.563
20
988.440
10
1512.455
20
988.466
10
1512.345
20
988.486
10
1512.233
20
988.501
10
1512.120
20
988.510
10
1512.006
20
988.514
10
1511.891
20
988.512
10
1511.776
20
988.503
10
1511.662
20
988.489
10
1511.549
20
988.468
10
1511.439
20
988.443
10
1511.332
20
988.412
10
1511.229
20
988.376
10
1511.129
20
988.335
10
1511.033
20
988.289
10
1510.941
20
988.240
10
1510.855
20
988.186
10
1510.773
20
988.127
10
1510.696
20
988.066
10
1510.625
20
988.000
0
LWPOLYLINE
8
INTERIOR_PROFILES
90
18
70
1
10
1559.375
20
988.000
10
1559.585
20
987.615
10
1559.689
20
987.189
10
1559.682
20
986.750
10
1559.562
20
986.328
10
1559.338
20
985.951
10
1559.025
20
985.644
10
1558.643
20
985.426
10
1558.219
20
985.314
10
1557.781
20
985.314
10
1557.357
20
985.426
10
1556.975
20
985.644
10
1556.662
20
985.951
10
1556.438
20
986.328
10
1556.318
20
986.750
10
1556.311
20
987.189
10
1556.415
20
987.615
10
1556.625
20
988.000
0
LWPOLYLINE
8
INTERIOR_PROFILES
90
29
70
1
10
1559.375
20
988.000
10
1559.304
20
988.065
10
1559.227
20
988.127
10
1559.145
20
988.185
10
1559.058
20
988.239
10
1558.966
20
988.288
10
1558.871
20
988.333
10
1558.771
20
988.373
10
1558.669
20
988.409
10
1558.563
20
988.440
10
1558.455
20
988.466
10
1558.345
20
988.486
10
1558.233
20
988.501
10
1558.120
20
988.510
10
1558.006
20
988.514
10
1557.891
20
988.512
10
1557.776
20
988.503
10
1557.662
20
988.489
10
1557.549
20
988.468
10
1557.439
20
988.443
10
1557.332
20
988.412
10
1557.229
20
988.376
10
1557.129
20
988.335
10
1557.033
20
988.289
10
1556.941
20
988.240
10
1556.855
20
988.186
10
1556.773
20
988.127
10
1556.696
20
988.066
10
1556.625
20
988.000
0
LWPOLYLINE
8
INTERIOR_PROFILES
90
29
70
1
10
1494.375
20
988.000
10
1494.304
20
988.065
10
1494.227
20
988.127
10
1494.145
20
988.185
10
1494.058
20
988.239
10
1493.966
20
988.288
10
1493.871
20
988.333
10
1493.771
20
988.373
10
1493.669
20
988.409
10
1493.563
20
988.440
10
1493.455
20
988.466
10
1493.345
20
988.486
10
1493.233
20
988.501
10
1493.120
20
988.510
10
1493.006
20
988.514
10
1492.891
20
988.512
10
1492.776
20
988.503
10
1492.662
20
988.489
10
1492.549
20
988.468
10
1492.439
20
988.443
10
1492.332
20
988.412
10
1492.229
20
988.376
10
1492.129
20
988.335
10
1492.033
20
988.289
10
1491.941
20
988.240
10
1491.855
20
988.186
10
1491.773
20
988.127
10
1491.696
20
988.066
10
1491.625
20
988.000
0
LWPOLYLINE
8
INTERIOR_PROFILES
90
18
70
1
10
1494.375
20
988.000
10
1494.585
20
987.615
10
1494.689
20
987.189
10
1494.682
20
986.750
10
1494.562
20
986.328
10
1494.338
20
985.951
10
1494.025
20
985.644
10
1493.643
20
985.426
10
1493.219
20
985.314
10
1492.781
20
985.314
10
1492.357
20
985.426
10
1491.975
20
985.644
10
1491.662
20
985.951
10
1491.438
20
986.328
10
1491.318
20
986.750
10
1491.311
20
987.189
10
1491.415
20
987.615
10
1491.625
20
988.000
0
LWPOLYLINE
8
INTERIOR_PROFILES
90
18
70
1
10
1344.375
20
988.000
10
1344.585
20
987.615
10
1344.689
20
987.189
10
1344.682
20
986.750
10
1344.562
20
986.328
10
1344.338
20
985.951
10
1344.025
20
985.644
10
1343.643
20
985.426
10
1343.219
20
985.314
10
1342.781
20
985.314
10
1342.357
20
985.426
10
1341.975
20
985.644
10
1341.662
20
985.951
10
1341.438
20
986.328
10
1341.318
20
986.750
10
1341.311
20
987.189
10
1341.415
20
987.615
10
1341.625
20
988.000
0
LWPOLYLINE
8
INTERIOR_PROFILES
90
29
70
1
10
1344.375
20
988.000
10
1344.304
20
988.065
10
1344.227
20
988.127
10
1344.145
20
988.185
10
1344.058
20
988.239
10
1343.966
20
988.288
10
1343.871
20
988.333
10
1343.771
20
988.373
10
1343.669
20
988.409
10
1343.563
20
988.440
10
1343.455
20
988.466
10
1343.345
20
988.486
10
1343.233
20
988.501
10
1343.120
20
988.510
10
1343.006
20
988.514
10
1342.891
20
988.512
10
1342.776
20
988.503
10
1342.662
20
988.489
10
1342.549
20
988.468
10
1342.439
20
988.443
10
1342.332
20
988.412
10
1342.229
20
988.376
10
1342.129
20
988.335
10
1342.033
20
988.289
10
1341.941
20
988.240
10
1341.855
20
988.186
10
1341.773
20
988.127
10
1341.696
20
988.066
10
1341.625
20
988.000
0
LWPOLYLINE
8
INTERIOR_PROFILES
90
18
70
1
10
1585.375
20
988.000
10
1585.585
20
987.615
10
1585.689
20
987.189
10
1585.682
20
986.750
10
1585.562
20
986.328
10
1585.338
20
985.951
10
1585.025
20
985.644
10
1584.643
20
985.426
10
1584.219
20
985.314
10
1583.781
20
985.314
10
1583.357
20
985.426
10
1582.975
20
985.644
10
1582.662
20
985.951
10
1582.438
20
986.328
10
1582.318
20
986.750
10
1582.311
20
987.189
10
1582.415
20
987.615
10
1582.625
20
988.000
0
LWPOLYLINE
8
INTERIOR_PROFILES
90
29
70
1
10
1585.375
20
988.000
10
1585.304
20
988.065
10
1585.227
20
988.127
10
1585.145
20
988.185
10
1585.058
20
988.239
10
1584.966
20
988.288
10
1584.871
20
988.333
10
1584.771
20
988.373
10
1584.669
20
988.409
10
1584.563
20
988.440
10
1584.455
20
988.466
10
1584.345
20
988.486
10
1584.233
20
988.501
10
1584.120
20
988.510
10
1584.006
20
988.514
10
1583.891
20
988.512
10
1583.776
20
988.503
10
1583.662
20
988.489
10
1583.549
20
988.468
10
1583.439
20
988.443
10
1583.332
20
988.412
10
1583.229
20
988.376
10
1583.129
20
988.335
10
1583.033
20
988.289
10
1582.941
20
988.240
10
1582.855
20
988.186
10
1582.773
20
988.127
10
1582.696
20
988.066
10
1582.625
20
988.000
0
LWPOLYLINE
8
INTERIOR_PROFILES
90
18
70
1
10
1444.375
20
988.000
10
1444.585
20
987.615
10
1444.689
20
987.189
10
1444.682
20
986.750
10
1444.562
20
986.328
10
1444.338
20
985.951
10
1444.025
20
985.644
10
1443.643
20
985.426
10
1443.219
20
985.314
10
1442.781
20
985.314
10
1442.357
20
985.426
10
1441.975
20
985.644
10
1441.662
20
985.951
10
1441.438
20
986.328
10
1441.318
20
986.750
10
1441.311
20
987.189
10
1441.415
20
987.615
10
1441.625
20
988.000
0
LWPOLYLINE
8
INTERIOR_PROFILES
90
29
70
1
10
1444.375
20
988.000
10
1444.304
20
988.065
10
1444.227
20
988.127
10
1444.145
20
988.185
10
1444.058
20
988.239
10
1443.966
20
988.288
10
1443.871
20
988.333
10
1443.771
20
988.373
10
1443.669
20
988.409
10
1443.563
20
988.440
10
1443.455
20
988.466
10
1443.345
20
988.486
10
1443.233
20
988.501
10
1443.120
20
988.510
10
1443.006
20
988.514
10
1442.891
20
988.512
10
1442.776
20
988.503
10
1442.662
20
988.489
10
1442.549
20
988.468
10
1442.439
20
988.443
10
1442.332
20
988.412
10
1442.229
20
988.376
10
1442.129
20
988.335
10
1442.033
20
988.289
10
1441.941
20
988.240
10
1441.855
20
988.186
10
1441.773
20
988.127
10
1441.696
20
988.066
10
1441.625
20
988.000
0
LWPOLYLINE
8
INTERIOR_PROFILES
90
29
70
1
10
1394.375
20
988.000
10
1394.304
20
988.065
10
1394.227
20
988.127
10
1394.145
20
988.185
10
1394.058
20
988.239
10
1393.966
20
988.288
10
1393.871
20
988.333
10
1393.771
20
988.373
10
1393.669
20
988.409
10
1393.563
20
988.440
10
1393.455
20
988.466
10
1393.345
20
988.486
10
1393.233
20
988.501
10
1393.120
20
988.510
10
1393.006
20
988.514
10
1392.891
20
988.512
10
1392.776
20
988.503
10
1392.662
20
988.489
10
1392.549
20
988.468
10
1392.439
20
988.443
10
1392.332
20
988.412
10
1392.229
20
988.376
10
1392.129
20
988.335
10
1392.033
20
988.289
10
1391.941
20
988.240
10
1391.855
20
988.186
10
1391.773
20
988.127
10
1391.696
20
988.066
10
1391.625
20
988.000
0
LWPOLYLINE
8
INTERIOR_PROFILES
90
18
70
1
10
1394.375
20
988.000
10
1394.585
20
987.615
10
1394.689
20
987.189
10
1394.682
20
986.750
10
1394.562
20
986.328
10
1394.338
20
985.951
10
1394.025
20
985.644
10
1393.643
20
985.426
10
1393.219
20
985.314
10
1392.781
20
985.314
10
1392.357
20
985.426
10
1391.975
20
985.644
10
1391.662
20
985.951
10
1391.438
20
986.328
10
1391.318
20
986.750
10
1391.311
20
987.189
10
1391.415
20
987.615
10
1391.625
20
988.000
0
LWPOLYLINE
8
INTERIOR_PROFILES
90
33
70
1
10
846.614
20
1015.928
10
846.646
20
1016.260
10
846.743
20
1016.578
10
846.900
20
1016.872
10
847.112
20
1017.130
10
847.369
20
1017.341
10
847.663
20
1017.498
10
847.982
20
1017.595
10
848.314
20
1017.628
10
848.645
20
1017.595
10
848.964
20
1017.498
10
849.258
20
1017.341
10
849.516
20
1017.130
10
849.727
20
1016.872
10
849.884
20
1016.578
10
849.981
20
1016.260
10
850.014
20
1015.928
10
849.981
20
1015.596
10
849.884
20
1015.277
10
849.727
20
1014.983
10
849.516
20
1014.726
10
849.258
20
1014.514
10
848.964
20
1014.357
10
848.645
20
1014.261
10
848.314
20
1014.228
10
847.982
20
1014.261
10
847.663
20
1014.357
10
847.369
20
1014.514
10
847.112
20
1014.726
10
846.900
20
1014.983
10
846.743
20
1015.277
10
846.646
20
1015.596
10
846.614
20
1015.928
0
LWPOLYLINE
8
INTERIOR_PROFILES
90
33
70
1
10
846.614
20
1055.120
10
846.646
20
1055.452
10
846.743
20
1055.770
10
846.900
20
1056.064
10
847.112
20
1056.322
10
847.369
20
1056.533
10
847.663
20
1056.690
10
847.982
20
1056.787
10
848.314
20
1056.820
10
848.645
20
1056.787
10
848.964
20
1056.690
10
849.258
20
1056.533
10
849.516
20
1056.322
10
849.727
20
1056.064
10
849.884
20
1055.770
10
849.981
20
1055.452
10
850.014
20
1055.120
10
849.981
20
1054.788
10
849.884
20
1054.469
10
849.727
20
1054.175
10
849.516
20
1053.918
10
849.258
20
1053.706
10
848.964
20
1053.549
10
848.645
20
1053.453
10
848.314
20
1053.420
10
847.982
20
1053.453
10
847.663
20
1053.549
10
847.369
20
1053.706
10
847.112
20
1053.918
10
846.900
20
1054.175
10
846.743
20
1054.469
10
846.646
20
1054.788
10
846.614
20
1055.120
0
LWPOLYLINE
8
INTERIOR_PROFILES
90
33
70
1
10
812.673
20
1035.524
10
812.705
20
1035.856
10
812.802
20
1036.174
10
812.959
20
1036.468
10
813.170
20
1036.726
10
813.428
20
1036.937
10
813.722
20
1037.094
10
814.041
20
1037.191
10
814.373
20
1037.224
10
814.704
20
1037.191
10
815.023
20
1037.094
10
815.317
20
1036.937
10
815.575
20
1036.726
10
815.786
20
1036.468
10
815.943
20
1036.174
10
816.040
20
1035.856
10
816.073
20
1035.524
10
816.040
20
1035.192
10
815.943
20
1034.873
10
815.786
20
1034.579
10
815.575
20
1034.322
10
815.317
20
1034.110
10
815.023
20
1033.953
10
814.704
20
1033.857
10
814.373
20
1033.824
10
814.041
20
1033.857
10
813.722
20
1033.953
10
813.428
20
1034.110
10
813.170
20
1034.322
10
812.959
20
1034.579
10
812.802
20
1034.873
10
812.705
20
1035.192
10
812.673
20
1035.524
0
LWPOLYLINE
8
INTERIOR_PROFILES
90
33
70
1
10
835.300
20
1012.896
10
835.333
20
1013.228
10
835.429
20
1013.547
10
835.587
20
1013.841
10
835.798
20
1014.098
10
836.056
20
1014.310
10
836.349
20
1014.467
10
836.668
20
1014.564
10
837.000
20
1014.596
10
837.332
20
1014.564
10
837.651
20
1014.467
10
837.944
20
1014.310
10
838.202
20
1014.098
10
838.413
20
1013.841
10
838.571
20
1013.547
10
838.667
20
1013.228
10
838.700
20
1012.896
10
838.667
20
1012.565
10
838.571
20
1012.246
10
838.413
20
1011.952
10
838.202
20
1011.694
10
837.944
20
1011.483
10
837.651
20
1011.326
10
837.332
20
1011.229
10
837.000
20
1011.196
10
836.668
20
1011.229
10
836.349
20
1011.326
10
836.056
20
1011.483
10
835.798
20
1011.694
10
835.587
20
1011.952
10
835.429
20
1012.246
10
835.333
20
1012.565
10
835.300
20
1012.896
0
LWPOLYLINE
8
INTERIOR_PROFILES
90
33
70
1
10
1569.928
20
1035.524
10
1569.960
20
1035.856
10
1570.057
20
1036.174
10
1570.214
20
1036.468
10
1570.425
20
1036.726
10
1570.683
20
1036.937
10
1570.977
20
1037.094
10
1571.296
20
1037.191
10
1571.628
20
1037.224
10
1571.959
20
1037.191
10
1572.278
20
1037.094
10
1572.572
20
1036.937
10
1572.830
20
1036.726
10
1573.041
20
1036.468
10
1573.198
20
1036.174
10
1573.295
20
1035.856
10
1573.328
20
1035.524
10
1573.295
20
1035.192
10
1573.198
20
1034.873
10
1573.041
20
1034.579
10
1572.830
20
1034.322
10
1572.572
20
1034.110
10
1572.278
20
1033.953
10
1571.959
20
1033.857
10
1571.628
20
1033.824
10
1571.296
20
1033.857
10
1570.977
20
1033.953
10
1570.683
20
1034.110
10
1570.425
20
1034.322
10
1570.214
20
1034.579
10
1570.057
20
1034.873
10
1569.960
20
1035.192
10
1569.928
20
1035.524
0
LWPOLYLINE
8
INTERIOR_PROFILES
90
33
70
1
10
1524.673
20
1035.524
10
1524.705
20
1035.856
10
1524.802
20
1036.174
10
1524.959
20
1036.468
10
1525.170
20
1036.726
10
1525.428
20
1036.937
10
1525.722
20
1037.094
10
1526.041
20
1037.191
10
1526.373
20
1037.224
10
1526.704
20
1037.191
10
1527.023
20
1037.094
10
1527.317
20
1036.937
10
1527.575
20
1036.726
10
1527.786
20
1036.468
10
1527.943
20
1036.174
10
1528.040
20
1035.856
10
1528.073
20
1035.524
10
1528.040
20
1035.192
10
1527.943
20
1034.873
10
1527.786
20
1034.579
10
1527.575
20
1034.322
10
1527.317
20
1034.110
10
1527.023
20
1033.953
10
1526.704
20
1033.857
10
1526.373
20
1033.824
10
1526.041
20
1033.857
10
1525.722
20
1033.953
10
1525.428
20
1034.110
10
1525.170
20
1034.322
10
1524.959
20
1034.579
10
1524.802
20
1034.873
10
1524.705
20
1035.192
10
1524.673
20
1035.524
0
LWPOLYLINE
8
INTERIOR_PROFILES
90
33
70
1
10
823.986
20
1055.120
10
824.019
20
1055.452
10
824.116
20
1055.770
10
824.273
20
1056.064
10
824.484
20
1056.322
10
824.742
20
1056.533
10
825.036
20
1056.690
10
825.355
20
1056.787
10
825.686
20
1056.820
10
826.018
20
1056.787
10
826.337
20
1056.690
10
826.631
20
1056.533
10
826.888
20
1056.322
10
827.100
20
1056.064
10
827.257
20
1055.770
10
827.354
20
1055.452
10
827.386
20
1055.120
10
827.354
20
1054.788
10
827.257
20
1054.469
10
827.100
20
1054.175
10
826.888
20
1053.918
10
826.631
20
1053.706
10
826.337
20
1053.549
10
826.018
20
1053.453
10
825.686
20
1053.420
10
825.355
20
1053.453
10
825.036
20
1053.549
10
824.742
20
1053.706
10
824.484
20
1053.918
10
824.273
20
1054.175
10
824.116
20
1054.469
10
824.019
20
1054.788
10
823.986
20
1055.120
0
LWPOLYLINE
8
INTERIOR_PROFILES
90
33
70
1
10
857.928
20
1035.524
10
857.960
20
1035.856
10
858.057
20
1036.174
10
858.214
20
1036.468
10
858.425
20
1036.726
10
858.683
20
1036.937
10
858.977
20
1037.094
10
859.296
20
1037.191
10
859.628
20
1037.224
10
859.959
20
1037.191
10
860.278
20
1037.094
10
860.572
20
1036.937
10
860.830
20
1036.726
10
861.041
20
1036.468
10
861.198
20
1036.174
10
861.295
20
1035.856
10
861.328
20
1035.524
10
861.295
20
1035.192
10
861.198
20
1034.873
10
861.041
20
1034.579
10
860.830
20
1034.322
10
860.572
20
1034.110
10
860.278
20
1033.953
10
859.959
20
1033.857
10
859.628
20
1033.824
10
859.296
20
1033.857
10
858.977
20
1033.953
10
858.683
20
1034.110
10
858.425
20
1034.322
10
858.214
20
1034.579
10
858.057
20
1034.873
10
857.960
20
1035.192
10
857.928
20
1035.524
0
LWPOLYLINE
8
INTERIOR_PROFILES
90
33
70
1
10
835.300
20
1058.151
10
835.333
20
1058.483
10
835.429
20
1058.802
10
835.587
20
1059.096
10
835.798
20
1059.353
10
836.056
20
1059.565
10
836.349
20
1059.722
10
836.668
20
1059.819
10
837.000
20
1059.851
10
837.332
20
1059.819
10
837.651
20
1059.722
10
837.944
20
1059.565
10
838.202
20
1059.353
10
838.413
20
1059.096
10
838.571
20
1058.802
10
838.667
20
1058.483
10
838.700
20
1058.151
10
838.667
20
1057.820
10
838.571
20
1057.501
10
838.413
20
1057.207
10
838.202
20
1056.949
10
837.944
20
1056.738
10
837.651
20
1056.581
10
837.332
20
1056.484
10
837.000
20
1056.451
10
836.668
20
1056.484
10
836.349
20
1056.581
10
836.056
20
1056.738
10
835.798
20
1056.949
10
835.587
20
1057.207
10
835.429
20
1057.501
10
835.333
20
1057.820
10
835.300
20
1058.151
0
LWPOLYLINE
8
INTERIOR_PROFILES
90
33
70
1
10
1535.986
20
1015.928
10
1536.019
20
1016.260
10
1536.116
20
1016.578
10
1536.273
20
1016.872
10
1536.484
20
1017.130
10
1536.742
20
1017.341
10
1537.036
20
1017.498
10
1537.355
20
1017.595
10
1537.686
20
1017.628
10
1538.018
20
1017.595
10
1538.337
20
1017.498
10
1538.631
20
1017.341
10
1538.888
20
1017.130
10
1539.100
20
1016.872
10
1539.257
20
1016.578
10
1539.354
20
1016.260
10
1539.386
20
1015.928
10
1539.354
20
1015.596
10
1539.257
20
1015.277
10
1539.100
20
1014.983
10
1538.888
20
1014.726
10
1538.631
20
1014.514
10
1538.337
20
1014.357
10
1538.018
20
1014.261
10
1537.686
20
1014.228
10
1537.355
20
1014.261
10
1537.036
20
1014.357
10
1536.742
20
1014.514
10
1536.484
20
1014.726
10
1536.273
20
1014.983
10
1536.116
20
1015.277
10
1536.019
20
1015.596
10
1535.986
20
1015.928
0
LWPOLYLINE
8
INTERIOR_PROFILES
90
33
70
1
10
1547.300
20
1058.151
10
1547.333
20
1058.483
10
1547.429
20
1058.802
10
1547.587
20
1059.096
10
1547.798
20
1059.353
10
1548.056
20
1059.565
10
1548.349
20
1059.722
10
1548.668
20
1059.819
10
1549.000
20
1059.851
10
1549.332
20
1059.819
10
1549.651
20
1059.722
10
1549.944
20
1059.565
10
1550.202
20
1059.353
10
1550.413
20
1059.096
10
1550.571
20
1058.802
10
1550.667
20
1058.483
10
1550.700
20
1058.151
10
1550.667
20
1057.820
10
1550.571
20
1057.501
10
1550.413
20
1057.207
10
1550.202
20
1056.949
10
1549.944
20
1056.738
10
1549.651
20
1056.581
10
1549.332
20
1056.484
10
1549.000
20
1056.451
10
1548.668
20
1056.484
10
1548.349
20
1056.581
10
1548.056
20
1056.738
10
1547.798
20
1056.949
10
1547.587
20
1057.207
10
1547.429
20
1057.501
10
1547.333
20
1057.820
10
1547.300
20
1058.151
0
LWPOLYLINE
8
INTERIOR_PROFILES
90
33
70
1
10
823.986
20
1015.928
10
824.019
20
1016.260
10
824.116
20
1016.578
10
824.273
20
1016.872
10
824.484
20
1017.130
10
824.742
20
1017.341
10
825.036
20
1017.498
10
825.355
20
1017.595
10
825.686
20
1017.628
10
826.018
20
1017.595
10
826.337
20
1017.498
10
826.631
20
1017.341
10
826.888
20
1017.130
10
827.100
20
1016.872
10
827.257
20
1016.578
10
827.354
20
1016.260
10
827.386
20
1015.928
10
827.354
20
1015.596
10
827.257
20
1015.277
10
827.100
20
1014.983
10
826.888
20
1014.726
10
826.631
20
1014.514
10
826.337
20
1014.357
10
826.018
20
1014.261
10
825.686
20
1014.228
10
825.355
20
1014.261
10
825.036
20
1014.357
10
824.742
20
1014.514
10
824.484
20
1014.726
10
824.273
20
1014.983
10
824.116
20
1015.277
10
824.019
20
1015.596
10
823.986
20
1015.928
0
LWPOLYLINE
8
INTERIOR_PROFILES
90
33
70
1
10
835.300
20
1035.524
10
835.333
20
1035.856
10
835.429
20
1036.174
10
835.587
20
1036.468
10
835.798
20
1036.726
10
836.056
20
1036.937
10
836.349
20
1037.094
10
836.668
20
1037.191
10
837.000
20
1037.224
10
837.332
20
1037.191
10
837.651
20
1037.094
10
837.944
20
1036.937
10
838.202
20
1036.726
10
838.413
20
1036.468
10
838.571
20
1036.174
10
838.667
20
1035.856
10
838.700
20
1035.524
10
838.667
20
1035.192
10
838.571
20
1034.873
10
838.413
20
1034.579
10
838.202
20
1034.322
10
837.944
20
1034.110
10
837.651
20
1033.953
10
837.332
20
1033.857
10
837.000
20
1033.824
10
836.668
20
1033.857
10
836.349
20
1033.953
10
836.056
20
1034.110
10
835.798
20
1034.322
10
835.587
20
1034.579
10
835.429
20
1034.873
10
835.333
20
1035.192
10
835.300
20
1035.524
0
LWPOLYLINE
8
INTERIOR_PROFILES
90
33
70
1
10
1582.300
20
1094.048
10
1582.333
20
1094.379
10
1582.429
20
1094.698
10
1582.587
20
1094.992
10
1582.798
20
1095.250
10
1583.056
20
1095.461
10
1583.349
20
1095.618
10
1583.668
20
1095.715
10
1584.000
20
1095.748
10
1584.332
20
1095.715
10
1584.651
20
1095.618
10
1584.944
20
1095.461
10
1585.202
20
1095.250
10
1585.413
20
1094.992
10
1585.571
20
1094.698
10
1585.667
20
1094.379
10
1585.700
20
1094.048
10
1585.667
20
1093.716
10
1585.571
20
1093.397
10
1585.413
20
1093.103
10
1585.202
20
1092.846
10
1584.944
20
1092.634
10
1584.651
20
1092.477
10
1584.332
20
1092.380
10
1584.000
20
1092.348
10
1583.668
20
1092.380
10
1583.349
20
1092.477
10
1583.056
20
1092.634
10
1582.798
20
1092.846
10
1582.587
20
1093.103
10
1582.429
20
1093.397
10
1582.333
20
1093.716
10
1582.300
20
1094.048
0
LWPOLYLINE
8
INTERIOR_PROFILES
90
33
70
1
10
1213.928
20
1035.524
10
1213.960
20
1035.856
10
1214.057
20
1036.174
10
1214.214
20
1036.468
10
1214.425
20
1036.726
10
1214.683
20
1036.937
10
1214.977
20
1037.094
10
1215.296
20
1037.191
10
1215.628
20
1037.224
10
1215.959
20
1037.191
10
1216.278
20
1037.094
10
1216.572
20
1036.937
10
1216.830
20
1036.726
10
1217.041
20
1036.468
10
1217.198
20
1036.174
10
1217.295
20
1035.856
10
1217.328
20
1035.524
10
1217.295
20
1035.192
10
1217.198
20
1034.873
10
1217.041
20
1034.579
10
1216.830
20
1034.322
10
1216.572
20
1034.110
10
1216.278
20
1033.953
10
1215.959
20
1033.857
10
1215.628
20
1033.824
10
1215.296
20
1033.857
10
1214.977
20
1033.953
10
1214.683
20
1034.110
10
1214.425
20
1034.322
10
1214.214
20
1034.579
10
1214.057
20
1034.873
10
1213.960
20
1035.192
10
1213.928
20
1035.524
0
LWPOLYLINE
8
INTERIOR_PROFILES
90
33
70
1
10
1179.986
20
1055.120
10
1180.019
20
1055.452
10
1180.116
20
1055.770
10
1180.273
20
1056.064
10
1180.484
20
1056.322
10
1180.742
20
1056.533
10
1181.036
20
1056.690
10
1181.355
20
1056.787
10
1181.686
20
1056.820
10
1182.018
20
1056.787
10
1182.337
20
1056.690
10
1182.631
20
1056.533
10
1182.888
20
1056.322
10
1183.100
20
1056.064
10
1183.257
20
1055.770
10
1183.354
20
1055.452
10
1183.386
20
1055.120
10
1183.354
20
1054.788
10
1183.257
20
1054.469
10
1183.100
20
1054.175
10
1182.888
20
1053.918
10
1182.631
20
1053.706
10
1182.337
20
1053.549
10
1182.018
20
1053.453
10
1181.686
20
1053.420
10
1181.355
20
1053.453
10
1181.036
20
1053.549
10
1180.742
20
1053.706
10
1180.484
20
1053.918
10
1180.273
20
1054.175
10
1180.116
20
1054.469
10
1180.019
20
1054.788
10
1179.986
20
1055.120
0
LWPOLYLINE
8
INTERIOR_PROFILES
90
33
70
1
10
1558.614
20
1055.120
10
1558.646
20
1055.452
10
1558.743
20
1055.770
10
1558.900
20
1056.064
10
1559.112
20
1056.322
10
1559.369
20
1056.533
10
1559.663
20
1056.690
10
1559.982
20
1056.787
10
1560.314
20
1056.820
10
1560.645
20
1056.787
10
1560.964
20
1056.690
10
1561.258
20
1056.533
10
1561.516
20
1056.322
10
1561.727
20
1056.064
10
1561.884
20
1055.770
10
1561.981
20
1055.452
10
1562.014
20
1055.120
10
1561.981
20
1054.788
10
1561.884
20
1054.469
10
1561.727
20
1054.175
10
1561.516
20
1053.918
10
1561.258
20
1053.706
10
1560.964
20
1053.549
10
1560.645
20
1053.453
10
1560.314
20
1053.420
10
1559.982
20
1053.453
10
1559.663
20
1053.549
10
1559.369
20
1053.706
10
1559.112
20
1053.918
10
1558.900
20
1054.175
10
1558.743
20
1054.469
10
1558.646
20
1054.788
10
1558.614
20
1055.120
0
LWPOLYLINE
8
INTERIOR_PROFILES
90
33
70
1
10
866.300
20
1070.786
10
866.333
20
1071.117
10
866.429
20
1071.436
10
866.587
20
1071.730
10
866.798
20
1071.988
10
867.056
20
1072.199
10
867.349
20
1072.356
10
867.668
20
1072.453
10
868.000
20
1072.486
10
868.332
20
1072.453
10
868.651
20
1072.356
10
868.944
20
1072.199
10
869.202
20
1071.988
10
869.413
20
1071.730
10
869.571
20
1071.436
10
869.667
20
1071.117
10
869.700
20
1070.786
10
869.667
20
1070.454
10
869.571
20
1070.135
10
869.413
20
1069.841
10
869.202
20
1069.584
10
868.944
20
1069.372
10
868.651
20
1069.215
10
868.332
20
1069.119
10
868.000
20
1069.086
10
867.668
20
1069.119
10
867.349
20
1069.215
10
867.056
20
1069.372
10
866.798
20
1069.584
10
866.587
20
1069.841
10
866.429
20
1070.135
10
866.333
20
1070.454
10
866.300
20
1070.786
0
LWPOLYLINE
8
INTERIOR_PROFILES
90
33
70
1
10
1516.300
20
1070.786
10
1516.333
20
1071.117
10
1516.429
20
1071.436
10
1516.587
20
1071.730
10
1516.798
20
1071.988
10
1517.056
20
1072.199
10
1517.349
20
1072.356
10
1517.668
20
1072.453
10
1518.000
20
1072.486
10
1518.332
20
1072.453
10
1518.651
20
1072.356
10
1518.944
20
1072.199
10
1519.202
20
1071.988
10
1519.413
20
1071.730
10
1519.571
20
1071.436
10
1519.667
20
1071.117
10
1519.700
20
1070.786
10
1519.667
20
1070.454
10
1519.571
20
1070.135
10
1519.413
20
1069.841
10
1519.202
20
1069.584
10
1518.944
20
1069.372
10
1518.651
20
1069.215
10
1518.332
20
1069.119
10
1518.000
20
1069.086
10
1517.668
20
1069.119
10
1517.349
20
1069.215
10
1517.056
20
1069.372
10
1516.798
20
1069.584
10
1516.587
20
1069.841
10
1516.429
20
1070.135
10
1516.333
20
1070.454
10
1516.300
20
1070.786
0
LWPOLYLINE
8
INTERIOR_PROFILES
90
33
70
1
10
1558.614
20
1015.928
10
1558.646
20
1016.260
10
1558.743
20
1016.578
10
1558.900
20
1016.872
10
1559.112
20
1017.130
10
1559.369
20
1017.341
10
1559.663
20
1017.498
10
1559.982
20
1017.595
10
1560.314
20
1017.628
10
1560.645
20
1017.595
10
1560.964
20
1017.498
10
1561.258
20
1017.341
10
1561.516
20
1017.130
10
1561.727
20
1016.872
10
1561.884
20
1016.578
10
1561.981
20
1016.260
10
1562.014
20
1015.928
10
1561.981
20
1015.596
10
1561.884
20
1015.277
10
1561.727
20
1014.983
10
1561.516
20
1014.726
10
1561.258
20
1014.514
10
1560.964
20
1014.357
10
1560.645
20
1014.261
10
1560.314
20
1014.228
10
1559.982
20
1014.261
10
1559.663
20
1014.357
10
1559.369
20
1014.514
10
1559.112
20
1014.726
10
1558.900
20
1014.983
10
1558.743
20
1015.277
10
1558.646
20
1015.596
10
1558.614
20
1015.928
0
LWPOLYLINE
8
INTERIOR_PROFILES
90
33
70
1
10
1179.986
20
1015.928
10
1180.019
20
1016.260
10
1180.116
20
1016.578
10
1180.273
20
1016.872
10
1180.484
20
1017.130
10
1180.742
20
1017.341
10
1181.036
20
1017.498
10
1181.355
20
1017.595
10
1181.686
20
1017.628
10
1182.018
20
1017.595
10
1182.337
20
1017.498
10
1182.631
20
1017.341
10
1182.888
20
1017.130
10
1183.100
20
1016.872
10
1183.257
20
1016.578
10
1183.354
20
1016.260
10
1183.386
20
1015.928
10
1183.354
20
1015.596
10
1183.257
20
1015.277
10
1183.100
20
1014.983
10
1182.888
20
1014.726
10
1182.631
20
1014.514
10
1182.337
20
1014.357
10
1182.018
20
1014.261
10
1181.686
20
1014.228
10
1181.355
20
1014.261
10
1181.036
20
1014.357
10
1180.742
20
1014.514
10
1180.484
20
1014.726
10
1180.273
20
1014.983
10
1180.116
20
1015.277
10
1180.019
20
1015.596
10
1179.986
20
1015.928
0
LWPOLYLINE
8
INTERIOR_PROFILES
90
33
70
1
10
1202.614
20
1055.120
10
1202.646
20
1055.452
10
1202.743
20
1055.770
10
1202.900
20
1056.064
10
1203.112
20
1056.322
10
1203.369
20
1056.533
10
1203.663
20
1056.690
10
1203.982
20
1056.787
10
1204.314
20
1056.820
10
1204.645
20
1056.787
10
1204.964
20
1056.690
10
1205.258
20
1056.533
10
1205.516
20
1056.322
10
1205.727
20
1056.064
10
1205.884
20
1055.770
10
1205.981
20
1055.452
10
1206.014
20
1055.120
10
1205.981
20
1054.788
10
1205.884
20
1054.469
10
1205.727
20
1054.175
10
1205.516
20
1053.918
10
1205.258
20
1053.706
10
1204.964
20
1053.549
10
1204.645
20
1053.453
10
1204.314
20
1053.420
10
1203.982
20
1053.453
10
1203.663
20
1053.549
10
1203.369
20
1053.706
10
1203.112
20
1053.918
10
1202.900
20
1054.175
10
1202.743
20
1054.469
10
1202.646
20
1054.788
10
1202.614
20
1055.120
0
LWPOLYLINE
8
INTERIOR_PROFILES
90
33
70
1
10
1516.300
20
1000.262
10
1516.333
20
1000.594
10
1516.429
20
1000.913
10
1516.587
20
1001.206
10
1516.798
20
1001.464
10
1517.056
20
1001.675
10
1517.349
20
1001.833
10
1517.668
20
1001.929
10
1518.000
20
1001.962
10
1518.332
20
1001.929
10
1518.651
20
1001.833
10
1518.944
20
1001.675
10
1519.202
20
1001.464
10
1519.413
20
1001.206
10
1519.571
20
1000.913
10
1519.667
20
1000.594
10
1519.700
20
1000.262
10
1519.667
20
999.930
10
1519.571
20
999.611
10
1519.413
20
999.317
10
1519.202
20
999.060
10
1518.944
20
998.848
10
1518.651
20
998.691
10
1518.332
20
998.595
10
1518.000
20
998.562
10
1517.668
20
998.595
10
1517.349
20
998.691
10
1517.056
20
998.848
10
1516.798
20
999.060
10
1516.587
20
999.317
10
1516.429
20
999.611
10
1516.333
20
999.930
10
1516.300
20
1000.262
0
LWPOLYLINE
8
INTERIOR_PROFILES
90
33
70
1
10
1535.986
20
1055.120
10
1536.019
20
1055.452
10
1536.116
20
1055.770
10
1536.273
20
1056.064
10
1536.484
20
1056.322
10
1536.742
20
1056.533
10
1537.036
20
1056.690
10
1537.355
20
1056.787
10
1537.686
20
1056.820
10
1538.018
20
1056.787
10
1538.337
20
1056.690
10
1538.631
20
1056.533
10
1538.888
20
1056.322
10
1539.100
20
1056.064
10
1539.257
20
1055.770
10
1539.354
20
1055.452
10
1539.386
20
1055.120
10
1539.354
20
1054.788
10
1539.257
20
1054.469
10
1539.100
20
1054.175
10
1538.888
20
1053.918
10
1538.631
20
1053.706
10
1538.337
20
1053.549
10
1538.018
20
1053.453
10
1537.686
20
1053.420
10
1537.355
20
1053.453
10
1537.036
20
1053.549
10
1536.742
20
1053.706
10
1536.484
20
1053.918
10
1536.273
20
1054.175
10
1536.116
20
1054.469
10
1536.019
20
1054.788
10
1535.986
20
1055.120
0
LWPOLYLINE
8
INTERIOR_PROFILES
90
33
70
1
10
1191.300
20
1012.896
10
1191.333
20
1013.228
10
1191.429
20
1013.547
10
1191.587
20
1013.841
10
1191.798
20
1014.098
10
1192.056
20
1014.310
10
1192.349
20
1014.467
10
1192.668
20
1014.564
10
1193.000
20
1014.596
10
1193.332
20
1014.564
10
1193.651
20
1014.467
10
1193.944
20
1014.310
10
1194.202
20
1014.098
10
1194.413
20
1013.841
10
1194.571
20
1013.547
10
1194.667
20
1013.228
10
1194.700
20
1012.896
10
1194.667
20
1012.565
10
1194.571
20
1012.246
10
1194.413
20
1011.952
10
1194.202
20
1011.694
10
1193.944
20
1011.483
10
1193.651
20
1011.326
10
1193.332
20
1011.229
10
1193.000
20
1011.196
10
1192.668
20
1011.229
10
1192.349
20
1011.326
10
1192.056
20
1011.483
10
1191.798
20
1011.694
10
1191.587
20
1011.952
10
1191.429
20
1012.246
10
1191.333
20
1012.565
10
1191.300
20
1012.896
0
LWPOLYLINE
8
INTERIOR_PROFILES
90
33
70
1
10
1191.300
20
1058.151
10
1191.333
20
1058.483
10
1191.429
20
1058.802
10
1191.587
20
1059.096
10
1191.798
20
1059.353
10
1192.056
20
1059.565
10
1192.349
20
1059.722
10
1192.668
20
1059.819
10
1193.000
20
1059.851
10
1193.332
20
1059.819
10
1193.651
20
1059.722
10
1193.944
20
1059.565
10
1194.202
20
1059.353
10
1194.413
20
1059.096
10
1194.571
20
1058.802
10
1194.667
20
1058.483
10
1194.700
20
1058.151
10
1194.667
20
1057.820
10
1194.571
20
1057.501
10
1194.413
20
1057.207
10
1194.202
20
1056.949
10
1193.944
20
1056.738
10
1193.651
20
1056.581
10
1193.332
20
1056.484
10
1193.000
20
1056.451
10
1192.668
20
1056.484
10
1192.349
20
1056.581
10
1192.056
20
1056.738
10
1191.798
20
1056.949
10
1191.587
20
1057.207
10
1191.429
20
1057.501
10
1191.333
20
1057.820
10
1191.300
20
1058.151
0
LWPOLYLINE
8
INTERIOR_PROFILES
90
33
70
1
10
1191.300
20
1070.786
10
1191.333
20
1071.117
10
1191.429
20
1071.436
10
1191.587
20
1071.730
10
1191.798
20
1071.988
10
1192.056
20
1072.199
10
1192.349
20
1072.356
10
1192.668
20
1072.453
10
1193.000
20
1072.486
10
1193.332
20
1072.453
10
1193.651
20
1072.356
10
1193.944
20
1072.199
10
1194.202
20
1071.988
10
1194.413
20
1071.730
10
1194.571
20
1071.436
10
1194.667
20
1071.117
10
1194.700
20
1070.786
10
1194.667
20
1070.454
10
1194.571
20
1070.135
10
1194.413
20
1069.841
10
1194.202
20
1069.584
10
1193.944
20
1069.372
10
1193.651
20
1069.215
10
1193.332
20
1069.119
10
1193.000
20
1069.086
10
1192.668
20
1069.119
10
1192.349
20
1069.215
10
1192.056
20
1069.372
10
1191.798
20
1069.584
10
1191.587
20
1069.841
10
1191.429
20
1070.135
10
1191.333
20
1070.454
10
1191.300
20
1070.786
0
LWPOLYLINE
8
INTERIOR_PROFILES
90
33
70
1
10
1547.300
20
1012.896
10
1547.333
20
1013.228
10
1547.429
20
1013.547
10
1547.587
20
1013.841
10
1547.798
20
1014.098
10
1548.056
20
1014.310
10
1548.349
20
1014.467
10
1548.668
20
1014.564
10
1549.000
20
1014.596
10
1549.332
20
1014.564
10
1549.651
20
1014.467
10
1549.944
20
1014.310
10
1550.202
20
1014.098
10
1550.413
20
1013.841
10
1550.571
20
1013.547
10
1550.667
20
1013.228
10
1550.700
20
1012.896
10
1550.667
20
1012.565
10
1550.571
20
1012.246
10
1550.413
20
1011.952
10
1550.202
20
1011.694
10
1549.944
20
1011.483
10
1549.651
20
1011.326
10
1549.332
20
1011.229
10
1549.000
20
1011.196
10
1548.668
20
1011.229
10
1548.349
20
1011.326
10
1548.056
20
1011.483
10
1547.798
20
1011.694
10
1547.587
20
1011.952
10
1547.429
20
1012.246
10
1547.333
20
1012.565
10
1547.300
20
1012.896
0
LWPOLYLINE
8
INTERIOR_PROFILES
90
33
70
1
10
1191.300
20
1000.262
10
1191.333
20
1000.594
10
1191.429
20
1000.913
10
1191.587
20
1001.206
10
1191.798
20
1001.464
10
1192.056
20
1001.675
10
1192.349
20
1001.833
10
1192.668
20
1001.929
10
1193.000
20
1001.962
10
1193.332
20
1001.929
10
1193.651
20
1001.833
10
1193.944
20
1001.675
10
1194.202
20
1001.464
10
1194.413
20
1001.206
10
1194.571
20
1000.913
10
1194.667
20
1000.594
10
1194.700
20
1000.262
10
1194.667
20
999.930
10
1194.571
20
999.611
10
1194.413
20
999.317
10
1194.202
20
999.060
10
1193.944
20
998.848
10
1193.651
20
998.691
10
1193.332
20
998.595
10
1193.000
20
998.562
10
1192.668
20
998.595
10
1192.349
20
998.691
10
1192.056
20
998.848
10
1191.798
20
999.060
10
1191.587
20
999.317
10
1191.429
20
999.611
10
1191.333
20
999.930
10
1191.300
20
1000.262
0
LWPOLYLINE
8
INTERIOR_PROFILES
90
33
70
1
10
1202.614
20
1015.928
10
1202.646
20
1016.260
10
1202.743
20
1016.578
10
1202.900
20
1016.872
10
1203.112
20
1017.130
10
1203.369
20
1017.341
10
1203.663
20
1017.498
10
1203.982
20
1017.595
10
1204.314
20
1017.628
10
1204.645
20
1017.595
10
1204.964
20
1017.498
10
1205.258
20
1017.341
10
1205.516
20
1017.130
10
1205.727
20
1016.872
10
1205.884
20
1016.578
10
1205.981
20
1016.260
10
1206.014
20
1015.928
10
1205.981
20
1015.596
10
1205.884
20
1015.277
10
1205.727
20
1014.983
10
1205.516
20
1014.726
10
1205.258
20
1014.514
10
1204.964
20
1014.357
10
1204.645
20
1014.261
10
1204.314
20
1014.228
10
1203.982
20
1014.261
10
1203.663
20
1014.357
10
1203.369
20
1014.514
10
1203.112
20
1014.726
10
1202.900
20
1014.983
10
1202.743
20
1015.277
10
1202.646
20
1015.596
10
1202.614
20
1015.928
0
LWPOLYLINE
8
INTERIOR_PROFILES
90
33
70
1
10
1168.673
20
1035.524
10
1168.705
20
1035.856
10
1168.802
20
1036.174
10
1168.959
20
1036.468
10
1169.170
20
1036.726
10
1169.428
20
1036.937
10
1169.722
20
1037.094
10
1170.041
20
1037.191
10
1170.373
20
1037.224
10
1170.704
20
1037.191
10
1171.023
20
1037.094
10
1171.317
20
1036.937
10
1171.575
20
1036.726
10
1171.786
20
1036.468
10
1171.943
20
1036.174
10
1172.040
20
1035.856
10
1172.073
20
1035.524
10
1172.040
20
1035.192
10
1171.943
20
1034.873
10
1171.786
20
1034.579
10
1171.575
20
1034.322
10
1171.317
20
1034.110
10
1171.023
20
1033.953
10
1170.704
20
1033.857
10
1170.373
20
1033.824
10
1170.041
20
1033.857
10
1169.722
20
1033.953
10
1169.428
20
1034.110
10
1169.170
20
1034.322
10
1168.959
20
1034.579
10
1168.802
20
1034.873
10
1168.705
20
1035.192
10
1168.673
20
1035.524
0
LWPOLYLINE
8
INTERIOR_PROFILES
90
33
70
1
10
866.300
20
1000.262
10
866.333
20
1000.594
10
866.429
20
1000.913
10
866.587
20
1001.206
10
866.798
20
1001.464
10
867.056
20
1001.675
10
867.349
20
1001.833
10
867.668
20
1001.929
10
868.000
20
1001.962
10
868.332
20
1001.929
10
868.651
20
1001.833
10
868.944
20
1001.675
10
869.202
20
1001.464
10
869.413
20
1001.206
10
869.571
20
1000.913
10
869.667
20
1000.594
10
869.700
20
1000.262
10
869.667
20
999.930
10
869.571
20
999.611
10
869.413
20
999.317
10
869.202
20
999.060
10
868.944
20
998.848
10
868.651
20
998.691
10
868.332
20
998.595
10
868.000
20
998.562
10
867.668
20
998.595
10
867.349
20
998.691
10
867.056
20
998.848
10
866.798
20
999.060
10
866.587
20
999.317
10
866.429
20
999.611
10
866.333
20
999.930
10
866.300
20
1000.262
0
LWPOLYLINE
8
INTERIOR_PROFILES
90
33
70
1
10
1582.300
20
977.000
10
1582.333
20
977.332
10
1582.429
20
977.651
10
1582.587
20
977.944
10
1582.798
20
978.202
10
1583.056
20
978.413
10
1583.349
20
978.571
10
1583.668
20
978.667
10
1584.000
20
978.700
10
1584.332
20
978.667
10
1584.651
20
978.571
10
1584.944
20
978.413
10
1585.202
20
978.202
10
1585.413
20
977.944
10
1585.571
20
977.651
10
1585.667
20
977.332
10
1585.700
20
977.000
10
1585.667
20
976.668
10
1585.571
20
976.349
10
1585.413
20
976.056
10
1585.202
20
975.798
10
1584.944
20
975.587
10
1584.651
20
975.429
10
1584.332
20
975.333
10
1584.000
20
975.300
10
1583.668
20
975.333
10
1583.349
20
975.429
10
1583.056
20
975.587
10
1582.798
20
975.798
10
1582.587
20
976.056
10
1582.429
20
976.349
10
1582.333
20
976.668
10
1582.300
20
977.000
0
LWPOLYLINE
8
INTERIOR_PROFILES
90
33
70
1
10
800.300
20
1094.048
10
800.333
20
1094.379
10
800.429
20
1094.698
10
800.587
20
1094.992
10
800.798
20
1095.250
10
801.056
20
1095.461
10
801.349
20
1095.618
10
801.668
20
1095.715
10
802.000
20
1095.748
10
802.332
20
1095.715
10
802.651
20
1095.618
10
802.944
20
1095.461
10
803.202
20
1095.250
10
803.413
20
1094.992
10
803.571
20
1094.698
10
803.667
20
1094.379
10
803.700
20
1094.048
10
803.667
20
1093.716
10
803.571
20
1093.397
10
803.413
20
1093.103
10
803.202
20
1092.846
10
802.944
20
1092.634
10
802.651
20
1092.477
10
802.332
20
1092.380
10
802.000
20
1092.348
10
801.668
20
1092.380
10
801.349
20
1092.477
10
801.056
20
1092.634
10
800.798
20
1092.846
10
800.587
20
1093.103
10
800.429
20
1093.397
10
800.333
20
1093.716
10
800.300
20
1094.048
0
LWPOLYLINE
8
INTERIOR_PROFILES
90
33
70
1
10
800.300
20
977.000
10
800.333
20
977.332
10
800.429
20
977.651
10
800.587
20
977.944
10
800.798
20
978.202
10
801.056
20
978.413
10
801.349
20
978.571
10
801.668
20
978.667
10
802.000
20
978.700
10
802.332
20
978.667
10
802.651
20
978.571
10
802.944
20
978.413
10
803.202
20
978.202
10
803.413
20
977.944
10
803.571
20
977.651
10
803.667
20
977.332
10
803.700
20
977.000
10
803.667
20
976.668
10
803.571
20
976.349
10
803.413
20
976.056
10
803.202
20
975.798
10
802.944
20
975.587
10
802.651
20
975.429
10
802.332
20
975.333
10
802.000
20
975.300
10
801.668
20
975.333
10
801.349
20
975.429
10
801.056
20
975.587
10
800.798
20
975.798
10
800.587
20
976.056
10
800.429
20
976.349
10
800.333
20
976.668
10
800.300
20
977.000
0
LWPOLYLINE
8
OUTER_PROFILES
90
55
70
1
10
1541.048
20
914.191
10
1527.048
20
914.191
10
1524.786
20
916.191
10
1512.291
20
928.686
10
1512.132
20
928.893
10
1512.032
20
929.134
10
1511.998
20
929.393
10
1512.032
20
929.652
10
1512.132
20
929.893
10
1512.291
20
930.100
10
1524.715
20
942.524
10
1526.715
20
944.786
10
1526.715
20
958.786
10
1516.857
20
958.786
10
1516.857
20
948.786
10
1512.362
20
944.291
10
1512.187
20
944.152
10
1511.985
20
944.054
10
1511.767
20
944.005
10
1511.543
20
944.005
10
1511.325
20
944.054
10
1511.123
20
944.152
10
1510.948
20
944.291
10
1506.453
20
948.786
10
841.595
20
948.786
10
837.100
20
944.291
10
836.925
20
944.152
10
836.723
20
944.054
10
836.505
20
944.005
10
836.281
20
944.005
10
836.063
20
944.054
10
835.861
20
944.152
10
835.686
20
944.291
10
831.191
20
948.786
10
831.191
20
958.786
10
821.333
20
958.786
10
821.333
20
944.786
10
823.333
20
942.524
10
835.757
20
930.100
10
835.915
20
929.893
10
836.015
20
929.652
10
836.049
20
929.393
10
836.015
20
929.134
10
835.915
20
928.893
10
835.757
20
928.686
10
823.262
20
916.191
10
821.000
20
914.191
10
807.000
20
914.191
10
807.000
20
848.262
10
837.524
20
848.262
10
837.524
20
832.000
10
1510.524
20
832.000
10
1510.524
20
848.262
10
1541.048
20
848.262
10
1541.048
20
914.191
0
LWPOLYLINE
8
INTERIOR_PROFILES
90
33
70
1
10
1175.724
20
854.262
10
1175.691
20
854.594
10
1175.594
20
854.913
10
1175.437
20
855.206
10
1175.226
20
855.464
10
1174.968
20
855.675
10
1174.674
20
855.833
10
1174.356
20
855.929
10
1174.024
20
855.962
10
1173.692
20
855.929
10
1173.373
20
855.833
10
1173.079
20
855.675
10
1172.822
20
855.464
10
1172.610
20
855.206
10
1172.453
20
854.913
10
1172.357
20
854.594
10
1172.324
20
854.262
10
1172.357
20
853.930
10
1172.453
20
853.611
10
1172.610
20
853.317
10
1172.822
20
853.060
10
1173.079
20
852.848
10
1173.373
20
852.691
10
1173.692
20
852.595
10
1174.024
20
852.562
10
1174.356
20
852.595
10
1174.674
20
852.691
10
1174.968
20
852.848
10
1175.226
20
853.060
10
1175.437
20
853.317
10
1175.594
20
853.611
10
1175.691
20
853.930
10
1175.724
20
854.262
0
LWPOLYLINE
8
INTERIOR_PROFILES
90
33
70
1
10
1475.724
20
854.262
10
1475.691
20
854.594
10
1475.594
20
854.913
10
1475.437
20
855.206
10
1475.226
20
855.464
10
1474.968
20
855.675
10
1474.674
20
855.833
10
1474.356
20
855.929
10
1474.024
20
855.962
10
1473.692
20
855.929
10
1473.373
20
855.833
10
1473.079
20
855.675
10
1472.822
20
855.464
10
1472.610
20
855.206
10
1472.453
20
854.913
10
1472.357
20
854.594
10
1472.324
20
854.262
10
1472.357
20
853.930
10
1472.453
20
853.611
10
1472.610
20
853.317
10
1472.822
20
853.060
10
1473.079
20
852.848
10
1473.373
20
852.691
10
1473.692
20
852.595
10
1474.024
20
852.562
10
1474.356
20
852.595
10
1474.674
20
852.691
10
1474.968
20
852.848
10
1475.226
20
853.060
10
1475.437
20
853.317
10
1475.594
20
853.611
10
1475.691
20
853.930
10
1475.724
20
854.262
0
LWPOLYLINE
8
INTERIOR_PROFILES
90
33
70
1
10
875.724
20
854.262
10
875.691
20
854.594
10
875.594
20
854.913
10
875.437
20
855.206
10
875.226
20
855.464
10
874.968
20
855.675
10
874.674
20
855.833
10
874.356
20
855.929
10
874.024
20
855.962
10
873.692
20
855.929
10
873.373
20
855.833
10
873.079
20
855.675
10
872.822
20
855.464
10
872.610
20
855.206
10
872.453
20
854.913
10
872.357
20
854.594
10
872.324
20
854.262
10
872.357
20
853.930
10
872.453
20
853.611
10
872.610
20
853.317
10
872.822
20
853.060
10
873.079
20
852.848
10
873.373
20
852.691
10
873.692
20
852.595
10
874.024
20
852.562
10
874.356
20
852.595
10
874.674
20
852.691
10
874.968
20
852.848
10
875.226
20
853.060
10
875.437
20
853.317
10
875.594
20
853.611
10
875.691
20
853.930
10
875.724
20
854.262
0
LWPOLYLINE
8
INTERIOR_PROFILES
90
33
70
1
10
1532.348
20
909.762
10
1532.380
20
910.094
10
1532.477
20
910.413
10
1532.634
20
910.706
10
1532.846
20
910.964
10
1533.103
20
911.175
10
1533.397
20
911.333
10
1533.716
20
911.429
10
1534.048
20
911.462
10
1534.379
20
911.429
10
1534.698
20
911.333
10
1534.992
20
911.175
10
1535.250
20
910.964
10
1535.461
20
910.706
10
1535.618
20
910.413
10
1535.715
20
910.094
10
1535.748
20
909.762
10
1535.715
20
909.430
10
1535.618
20
909.111
10
1535.461
20
908.817
10
1535.250
20
908.560
10
1534.992
20
908.348
10
1534.698
20
908.191
10
1534.379
20
908.095
10
1534.048
20
908.062
10
1533.716
20
908.095
10
1533.397
20
908.191
10
1533.103
20
908.348
10
1532.846
20
908.560
10
1532.634
20
908.817
10
1532.477
20
909.111
10
1532.380
20
909.430
10
1532.348
20
909.762
0
LWPOLYLINE
8
INTERIOR_PROFILES
90
33
70
1
10
812.300
20
909.762
10
812.333
20
910.094
10
812.429
20
910.413
10
812.587
20
910.706
10
812.798
20
910.964
10
813.056
20
911.175
10
813.349
20
911.333
10
813.668
20
911.429
10
814.000
20
911.462
10
814.332
20
911.429
10
814.651
20
911.333
10
814.944
20
911.175
10
815.202
20
910.964
10
815.413
20
910.706
10
815.571
20
910.413
10
815.667
20
910.094
10
815.700
20
909.762
10
815.667
20
909.430
10
815.571
20
909.111
10
815.413
20
908.817
10
815.202
20
908.560
10
814.944
20
908.348
10
814.651
20
908.191
10
814.332
20
908.095
10
814.000
20
908.062
10
813.668
20
908.095
10
813.349
20
908.191
10
813.056
20
908.348
10
812.798
20
908.560
10
812.587
20
908.817
10
812.429
20
909.111
10
812.333
20
909.430
10
812.300
20
909.762
0
LWPOLYLINE
8
INTERIOR_PROFILES
90
33
70
1
10
1532.348
20
877.762
10
1532.380
20
878.094
10
1532.477
20
878.413
10
1532.634
20
878.706
10
1532.846
20
878.964
10
1533.103
20
879.175
10
1533.397
20
879.333
10
1533.716
20
879.429
10
1534.048
20
879.462
10
1534.379
20
879.429
10
1534.698
20
879.333
10
1534.992
20
879.175
10
1535.250
20
878.964
10
1535.461
20
878.706
10
1535.618
20
878.413
10
1535.715
20
878.094
10
1535.748
20
877.762
10
1535.715
20
877.430
10
1535.618
20
877.111
10
1535.461
20
876.817
10
1535.250
20
876.560
10
1534.992
20
876.348
10
1534.698
20
876.191
10
1534.379
20
876.095
10
1534.048
20
876.062
10
1533.716
20
876.095
10
1533.397
20
876.191
10
1533.103
20
876.348
10
1532.846
20
876.560
10
1532.634
20
876.817
10
1532.477
20
877.111
10
1532.380
20
877.430
10
1532.348
20
877.762
0
LWPOLYLINE
8
INTERIOR_PROFILES
90
33
70
1
10
812.300
20
877.762
10
812.333
20
878.094
10
812.429
20
878.413
10
812.587
20
878.706
10
812.798
20
878.964
10
813.056
20
879.175
10
813.349
20
879.333
10
813.668
20
879.429
10
814.000
20
879.462
10
814.332
20
879.429
10
814.651
20
879.333
10
814.944
20
879.175
10
815.202
20
878.964
10
815.413
20
878.706
10
815.571
20
878.413
10
815.667
20
878.094
10
815.700
20
877.762
10
815.667
20
877.430
10
815.571
20
877.111
10
815.413
20
876.817
10
815.202
20
876.560
10
814.944
20
876.348
10
814.651
20
876.191
10
814.332
20
876.095
10
814.000
20
876.062
10
813.668
20
876.095
10
813.349
20
876.191
10
813.056
20
876.348
10
812.798
20
876.560
10
812.587
20
876.817
10
812.429
20
877.111
10
812.333
20
877.430
10
812.300
20
877.762
0
LWPOLYLINE
8
OUTER_PROFILES
90
24
70
1
10
806.262
20
1110.000
10
806.262
20
1112.262
10
806.262
20
1146.262
10
806.262
20
1148.524
10
816.524
20
1148.524
10
816.524
20
1169.524
10
806.262
20
1169.524
10
806.262
20
1171.786
10
806.262
20
1205.786
10
806.262
20
1208.048
10
806.262
20
1213.048
10
10.262
20
1213.048
10
10.262
20
1208.048
10
10.262
20
1171.786
10
10.262
20
1169.524
10
0.000
20
1169.524
10
0.000
20
1148.524
10
10.262
20
1148.524
10
10.262
20
1146.262
10
10.262
20
1112.262
10
10.262
20
1110.000
10
10.262
20
1105.000
10
806.262
20
1105.000
10
806.262
20
1110.000
0
LWPOLYLINE
8
INTERIOR_PROFILES
90
33
70
1
10
15.562
20
1200.786
10
15.595
20
1201.117
10
15.691
20
1201.436
10
15.848
20
1201.730
10
16.060
20
1201.988
10
16.317
20
1202.199
10
16.611
20
1202.356
10
16.930
20
1202.453
10
17.262
20
1202.486
10
17.594
20
1202.453
10
17.913
20
1202.356
10
18.206
20
1202.199
10
18.464
20
1201.988
10
18.675
20
1201.730
10
18.833
20
1201.436
10
18.929
20
1201.117
10
18.962
20
1200.786
10
18.929
20
1200.454
10
18.833
20
1200.135
10
18.675
20
1199.841
10
18.464
20
1199.584
10
18.206
20
1199.372
10
17.913
20
1199.215
10
17.594
20
1199.119
10
17.262
20
1199.086
10
16.930
20
1199.119
10
16.611
20
1199.215
10
16.317
20
1199.372
10
16.060
20
1199.584
10
15.848
20
1199.841
10
15.691
20
1200.135
10
15.595
20
1200.454
10
15.562
20
1200.786
0
LWPOLYLINE
8
INTERIOR_PROFILES
90
33
70
1
10
797.562
20
1117.262
10
797.595
20
1117.594
10
797.691
20
1117.913
10
797.848
20
1118.206
10
798.060
20
1118.464
10
798.317
20
1118.675
10
798.611
20
1118.833
10
798.930
20
1118.929
10
799.262
20
1118.962
10
799.594
20
1118.929
10
799.913
20
1118.833
10
800.206
20
1118.675
10
800.464
20
1118.464
10
800.675
20
1118.206
10
800.833
20
1117.913
10
800.929
20
1117.594
10
800.962
20
1117.262
10
800.929
20
1116.930
10
800.833
20
1116.611
10
800.675
20
1116.317
10
800.464
20
1116.060
10
800.206
20
1115.848
10
799.913
20
1115.691
10
799.594
20
1115.595
10
799.262
20
1115.562
10
798.930
20
1115.595
10
798.611
20
1115.691
10
798.317
20
1115.848
10
798.060
20
1116.060
10
797.848
20
1116.317
10
797.691
20
1116.611
10
797.595
20
1116.930
10
797.562
20
1117.262
0
LWPOLYLINE
8
INTERIOR_PROFILES
90
33
70
1
10
15.562
20
1117.262
10
15.595
20
1117.594
10
15.691
20
1117.913
10
15.848
20
1118.206
10
16.060
20
1118.464
10
16.317
20
1118.675
10
16.611
20
1118.833
10
16.930
20
1118.929
10
17.262
20
1118.962
10
17.594
20
1118.929
10
17.913
20
1118.833
10
18.206
20
1118.675
10
18.464
20
1118.464
10
18.675
20
1118.206
10
18.833
20
1117.913
10
18.929
20
1117.594
10
18.962
20
1117.262
10
18.929
20
1116.930
10
18.833
20
1116.611
10
18.675
20
1116.317
10
18.464
20
1116.060
10
18.206
20
1115.848
10
17.913
20
1115.691
10
17.594
20
1115.595
10
17.262
20
1115.562
10
16.930
20
1115.595
10
16.611
20
1115.691
10
16.317
20
1115.848
10
16.060
20
1116.060
10
15.848
20
1116.317
10
15.691
20
1116.611
10
15.595
20
1116.930
10
15.562
20
1117.262
0
LWPOLYLINE
8
INTERIOR_PROFILES
90
33
70
1
10
15.562
20
1142.262
10
15.595
20
1142.594
10
15.691
20
1142.913
10
15.848
20
1143.206
10
16.060
20
1143.464
10
16.317
20
1143.675
10
16.611
20
1143.833
10
16.930
20
1143.929
10
17.262
20
1143.962
10
17.594
20
1143.929
10
17.913
20
1143.833
10
18.206
20
1143.675
10
18.464
20
1143.464
10
18.675
20
1143.206
10
18.833
20
1142.913
10
18.929
20
1142.594
10
18.962
20
1142.262
10
18.929
20
1141.930
10
18.833
20
1141.611
10
18.675
20
1141.317
10
18.464
20
1141.060
10
18.206
20
1140.848
10
17.913
20
1140.691
10
17.594
20
1140.595
10
17.262
20
1140.562
10
16.930
20
1140.595
10
16.611
20
1140.691
10
16.317
20
1140.848
10
16.060
20
1141.060
10
15.848
20
1141.317
10
15.691
20
1141.611
10
15.595
20
1141.930
10
15.562
20
1142.262
0
LWPOLYLINE
8
INTERIOR_PROFILES
90
5
70
1
10
93.262
20
1146.262
10
20.262
20
1146.262
10
20.262
20
1148.524
10
93.262
20
1148.524
10
93.262
20
1146.262
0
LWPOLYLINE
8
INTERIOR_PROFILES
90
5
70
1
10
93.262
20
1169.524
10
20.262
20
1169.524
10
20.262
20
1171.786
10
93.262
20
1171.786
10
93.262
20
1169.524
0
LWPOLYLINE
8
INTERIOR_PROFILES
90
5
70
1
10
796.262
20
1146.262
10
723.262
20
1146.262
10
723.262
20
1148.524
10
796.262
20
1148.524
10
796.262
20
1146.262
0
LWPOLYLINE
8
INTERIOR_PROFILES
90
5
70
1
10
723.262
20
1169.524
10
723.262
20
1171.786
10
796.262
20
1171.786
10
796.262
20
1169.524
10
723.262
20
1169.524
0
LWPOLYLINE
8
INTERIOR_PROFILES
90
33
70
1
10
797.562
20
1142.262
10
797.595
20
1142.594
10
797.691
20
1142.913
10
797.848
20
1143.206
10
798.060
20
1143.464
10
798.317
20
1143.675
10
798.611
20
1143.833
10
798.930
20
1143.929
10
799.262
20
1143.962
10
799.594
20
1143.929
10
799.913
20
1143.833
10
800.206
20
1143.675
10
800.464
20
1143.464
10
800.675
20
1143.206
10
800.833
20
1142.913
10
800.929
20
1142.594
10
800.962
20
1142.262
10
800.929
20
1141.930
10
800.833
20
1141.611
10
800.675
20
1141.317
10
800.464
20
1141.060
10
800.206
20
1140.848
10
799.913
20
1140.691
10
799.594
20
1140.595
10
799.262
20
1140.562
10
798.930
20
1140.595
10
798.611
20
1140.691
10
798.317
20
1140.848
10
798.060
20
1141.060
10
797.848
20
1141.317
10
797.691
20
1141.611
10
797.595
20
1141.930
10
797.562
20
1142.262
0
LWPOLYLINE
8
INTERIOR_PROFILES
90
33
70
1
10
725.562
20
1159.024
10
725.595
20
1159.356
10
725.691
20
1159.674
10
725.848
20
1159.968
10
726.060
20
1160.226
10
726.317
20
1160.437
10
726.611
20
1160.594
10
726.930
20
1160.691
10
727.262
20
1160.724
10
727.594
20
1160.691
10
727.913
20
1160.594
10
728.206
20
1160.437
10
728.464
20
1160.226
10
728.675
20
1159.968
10
728.833
20
1159.674
10
728.929
20
1159.356
10
728.962
20
1159.024
10
728.929
20
1158.692
10
728.833
20
1158.373
10
728.675
20
1158.079
10
728.464
20
1157.822
10
728.206
20
1157.610
10
727.913
20
1157.453
10
727.594
20
1157.357
10
727.262
20
1157.324
10
726.930
20
1157.357
10
726.611
20
1157.453
10
726.317
20
1157.610
10
726.060
20
1157.822
10
725.848
20
1158.079
10
725.691
20
1158.373
10
725.595
20
1158.692
10
725.562
20
1159.024
0
LWPOLYLINE
8
INTERIOR_PROFILES
90
33
70
1
10
797.562
20
1200.786
10
797.595
20
1201.117
10
797.691
20
1201.436
10
797.848
20
1201.730
10
798.060
20
1201.988
10
798.317
20
1202.199
10
798.611
20
1202.356
10
798.930
20
1202.453
10
799.262
20
1202.486
10
799.594
20
1202.453
10
799.913
20
1202.356
10
800.206
20
1202.199
10
800.464
20
1201.988
10
800.675
20
1201.730
10
800.833
20
1201.436
10
800.929
20
1201.117
10
800.962
20
1200.786
10
800.929
20
1200.454
10
800.833
20
1200.135
10
800.675
20
1199.841
10
800.464
20
1199.584
10
800.206
20
1199.372
10
799.913
20
1199.215
10
799.594
20
1199.119
10
799.262
20
1199.086
10
798.930
20
1199.119
10
798.611
20
1199.215
10
798.317
20
1199.372
10
798.060
20
1199.584
10
797.848
20
1199.841
10
797.691
20
1200.135
10
797.595
20
1200.454
10
797.562
20
1200.786
0
LWPOLYLINE
8
INTERIOR_PROFILES
90
33
70
1
10
15.562
20
1175.786
10
15.595
20
1176.117
10
15.691
20
1176.436
10
15.848
20
1176.730
10
16.060
20
1176.988
10
16.317
20
1177.199
10
16.611
20
1177.356
10
16.930
20
1177.453
10
17.262
20
1177.486
10
17.594
20
1177.453
10
17.913
20
1177.356
10
18.206
20
1177.199
10
18.464
20
1176.988
10
18.675
20
1176.730
10
18.833
20
1176.436
10
18.929
20
1176.117
10
18.962
20
1175.786
10
18.929
20
1175.454
10
18.833
20
1175.135
10
18.675
20
1174.841
10
18.464
20
1174.584
10
18.206
20
1174.372
10
17.913
20
1174.215
10
17.594
20
1174.119
10
17.262
20
1174.086
10
16.930
20
1174.119
10
16.611
20
1174.215
10
16.317
20
1174.372
10
16.060
20
1174.584
10
15.848
20
1174.841
10
15.691
20
1175.135
10
15.595
20
1175.454
10
15.562
20
1175.786
0
LWPOLYLINE
8
INTERIOR_PROFILES
90
33
70
1
10
797.562
20
1175.786
10
797.595
20
1176.117
10
797.691
20
1176.436
10
797.848
20
1176.730
10
798.060
20
1176.988
10
798.317
20
1177.199
10
798.611
20
1177.356
10
798.930
20
1177.453
10
799.262
20
1177.486
10
799.594
20
1177.453
10
799.913
20
1177.356
10
800.206
20
1177.199
10
800.464
20
1176.988
10
800.675
20
1176.730
10
800.833
20
1176.436
10
800.929
20
1176.117
10
800.962
20
1175.786
10
800.929
20
1175.454
10
800.833
20
1175.135
10
800.675
20
1174.841
10
800.464
20
1174.584
10
800.206
20
1174.372
10
799.913
20
1174.215
10
799.594
20
1174.119
10
799.262
20
1174.086
10
798.930
20
1174.119
10
798.611
20
1174.215
10
798.317
20
1174.372
10
798.060
20
1174.584
10
797.848
20
1174.841
10
797.691
20
1175.135
10
797.595
20
1175.454
10
797.562
20
1175.786
0
LWPOLYLINE
8
INTERIOR_PROFILES
90
33
70
1
10
87.562
20
1159.024
10
87.595
20
1159.356
10
87.691
20
1159.674
10
87.848
20
1159.968
10
88.060
20
1160.226
10
88.317
20
1160.437
10
88.611
20
1160.594
10
88.930
20
1160.691
10
89.262
20
1160.724
10
89.594
20
1160.691
10
89.913
20
1160.594
10
90.206
20
1160.437
10
90.464
20
1160.226
10
90.675
20
1159.968
10
90.833
20
1159.674
10
90.929
20
1159.356
10
90.962
20
1159.024
10
90.929
20
1158.692
10
90.833
20
1158.373
10
90.675
20
1158.079
10
90.464
20
1157.822
10
90.206
20
1157.610
10
89.913
20
1157.453
10
89.594
20
1157.357
10
89.262
20
1157.324
10
88.930
20
1157.357
10
88.611
20
1157.453
10
88.317
20
1157.610
10
88.060
20
1157.822
10
87.848
20
1158.079
10
87.691
20
1158.373
10
87.595
20
1158.692
10
87.562
20
1159.024
0
LWPOLYLINE
8
INTERIOR_PROFILES
90
33
70
1
10
771.562
20
1159.024
10
771.595
20
1159.356
10
771.691
20
1159.674
10
771.848
20
1159.968
10
772.060
20
1160.226
10
772.317
20
1160.437
10
772.611
20
1160.594
10
772.930
20
1160.691
10
773.262
20
1160.724
10
773.594
20
1160.691
10
773.913
20
1160.594
10
774.206
20
1160.437
10
774.464
20
1160.226
10
774.675
20
1159.968
10
774.833
20
1159.674
10
774.929
20
1159.356
10
774.962
20
1159.024
10
774.929
20
1158.692
10
774.833
20
1158.373
10
774.675
20
1158.079
10
774.464
20
1157.822
10
774.206
20
1157.610
10
773.913
20
1157.453
10
773.594
20
1157.357
10
773.262
20
1157.324
10
772.930
20
1157.357
10
772.611
20
1157.453
10
772.317
20
1157.610
10
772.060
20
1157.822
10
771.848
20
1158.079
10
771.691
20
1158.373
10
771.595
20
1158.692
10
771.562
20
1159.024
0
LWPOLYLINE
8
INTERIOR_PROFILES
90
33
70
1
10
41.562
20
1159.024
10
41.595
20
1159.356
10
41.691
20
1159.674
10
41.848
20
1159.968
10
42.060
20
1160.226
10
42.317
20
1160.437
10
42.611
20
1160.594
10
42.930
20
1160.691
10
43.262
20
1160.724
10
43.594
20
1160.691
10
43.913
20
1160.594
10
44.206
20
1160.437
10
44.464
20
1160.226
10
44.675
20
1159.968
10
44.833
20
1159.674
10
44.929
20
1159.356
10
44.962
20
1159.024
10
44.929
20
1158.692
10
44.833
20
1158.373
10
44.675
20
1158.079
10
44.464
20
1157.822
10
44.206
20
1157.610
10
43.913
20
1157.453
10
43.594
20
1157.357
10
43.262
20
1157.324
10
42.930
20
1157.357
10
42.611
20
1157.453
10
42.317
20
1157.610
10
42.060
20
1157.822
10
41.848
20
1158.079
10
41.691
20
1158.373
10
41.595
20
1158.692
10
41.562
20
1159.024
0
LWPOLYLINE
8
INTERIOR_PROFILES
90
33
70
1
10
15.562
20
1159.024
10
15.595
20
1159.356
10
15.691
20
1159.674
10
15.848
20
1159.968
10
16.060
20
1160.226
10
16.317
20
1160.437
10
16.611
20
1160.594
10
16.930
20
1160.691
10
17.262
20
1160.724
10
17.594
20
1160.691
10
17.913
20
1160.594
10
18.206
20
1160.437
10
18.464
20
1160.226
10
18.675
20
1159.968
10
18.833
20
1159.674
10
18.929
20
1159.356
10
18.962
20
1159.024
10
18.929
20
1158.692
10
18.833
20
1158.373
10
18.675
20
1158.079
10
18.464
20
1157.822
10
18.206
20
1157.610
10
17.913
20
1157.453
10
17.594
20
1157.357
10
17.262
20
1157.324
10
16.930
20
1157.357
10
16.611
20
1157.453
10
16.317
20
1157.610
10
16.060
20
1157.822
10
15.848
20
1158.079
10
15.691
20
1158.373
10
15.595
20
1158.692
10
15.562
20
1159.024
0
LWPOLYLINE
8
INTERIOR_PROFILES
90
33
70
1
10
797.562
20
1159.024
10
797.595
20
1159.356
10
797.691
20
1159.674
10
797.848
20
1159.968
10
798.060
20
1160.226
10
798.317
20
1160.437
10
798.611
20
1160.594
10
798.930
20
1160.691
10
799.262
20
1160.724
10
799.594
20
1160.691
10
799.913
20
1160.594
10
800.206
20
1160.437
10
800.464
20
1160.226
10
800.675
20
1159.968
10
800.833
20
1159.674
10
800.929
20
1159.356
10
800.962
20
1159.024
10
800.929
20
1158.692
10
800.833
20
1158.373
10
800.675
20
1158.079
10
800.464
20
1157.822
10
800.206
20
1157.610
10
799.913
20
1157.453
10
799.594
20
1157.357
10
799.262
20
1157.324
10
798.930
20
1157.357
10
798.611
20
1157.453
10
798.317
20
1157.610
10
798.060
20
1157.822
10
797.848
20
1158.079
10
797.691
20
1158.373
10
797.595
20
1158.692
10
797.562
20
1159.024
0
LWPOLYLINE
8
INTERIOR_PROFILES
90
33
70
1
10
810.824
20
1159.024
10
810.857
20
1159.356
10
810.953
20
1159.674
10
811.110
20
1159.968
10
811.322
20
1160.226
10
811.579
20
1160.437
10
811.873
20
1160.594
10
812.192
20
1160.691
10
812.524
20
1160.724
10
812.856
20
1160.691
10
813.174
20
1160.594
10
813.468
20
1160.437
10
813.726
20
1160.226
10
813.937
20
1159.968
10
814.094
20
1159.674
10
814.191
20
1159.356
10
814.224
20
1159.024
10
814.191
20
1158.692
10
814.094
20
1158.373
10
813.937
20
1158.079
10
813.726
20
1157.822
10
813.468
20
1157.610
10
813.174
20
1157.453
10
812.856
20
1157.357
10
812.524
20
1157.324
10
812.192
20
1157.357
10
811.873
20
1157.453
10
811.579
20
1157.610
10
811.322
20
1157.822
10
811.110
20
1158.079
10
810.953
20
1158.373
10
810.857
20
1158.692
10
810.824
20
1159.024
0
LWPOLYLINE
8
INTERIOR_PROFILES
90
33
70
1
10
2.300
20
1159.024
10
2.333
20
1159.356
10
2.429
20
1159.674
10
2.587
20
1159.968
10
2.798
20
1160.226
10
3.056
20
1160.437
10
3.349
20
1160.594
10
3.668
20
1160.691
10
4.000
20
1160.724
10
4.332
20
1160.691
10
4.651
20
1160.594
10
4.944
20
1160.437
10
5.202
20
1160.226
10
5.413
20
1159.968
10
5.571
20
1159.674
10
5.667
20
1159.356
10
5.700
20
1159.024
10
5.667
20
1158.692
10
5.571
20
1158.373
10
5.413
20
1158.079
10
5.202
20
1157.822
10
4.944
20
1157.610
10
4.651
20
1157.453
10
4.332
20
1157.357
10
4.000
20
1157.324
10
3.668
20
1157.357
10
3.349
20
1157.453
10
3.056
20
1157.610
10
2.798
20
1157.822
10
2.587
20
1158.079
10
2.429
20
1158.373
10
2.333
20
1158.692
10
2.300
20
1159.024
0
LWPOLYLINE
8
OUTER_PROFILES
90
24
70
1
10
1625.262
20
1104.000
10
1625.262
20
1106.262
10
1625.262
20
1140.262
10
1625.262
20
1142.524
10
1635.524
20
1142.524
10
1635.524
20
1163.524
10
1625.262
20
1163.524
10
1625.262
20
1165.786
10
1625.262
20
1199.786
10
1625.262
20
1202.048
10
1625.262
20
1207.048
10
829.262
20
1207.048
10
829.262
20
1202.048
10
829.262
20
1165.786
10
829.262
20
1163.524
10
819.000
20
1163.524
10
819.000
20
1142.524
10
829.262
20
1142.524
10
829.262
20
1140.262
10
829.262
20
1106.262
10
829.262
20
1104.000
10
829.262
20
1099.000
10
1625.262
20
1099.000
10
1625.262
20
1104.000
0
LWPOLYLINE
8
INTERIOR_PROFILES
90
33
70
1
10
834.562
20
1194.786
10
834.595
20
1195.117
10
834.691
20
1195.436
10
834.848
20
1195.730
10
835.060
20
1195.988
10
835.317
20
1196.199
10
835.611
20
1196.356
10
835.930
20
1196.453
10
836.262
20
1196.486
10
836.594
20
1196.453
10
836.913
20
1196.356
10
837.206
20
1196.199
10
837.464
20
1195.988
10
837.675
20
1195.730
10
837.833
20
1195.436
10
837.929
20
1195.117
10
837.962
20
1194.786
10
837.929
20
1194.454
10
837.833
20
1194.135
10
837.675
20
1193.841
10
837.464
20
1193.584
10
837.206
20
1193.372
10
836.913
20
1193.215
10
836.594
20
1193.119
10
836.262
20
1193.086
10
835.930
20
1193.119
10
835.611
20
1193.215
10
835.317
20
1193.372
10
835.060
20
1193.584
10
834.848
20
1193.841
10
834.691
20
1194.135
10
834.595
20
1194.454
10
834.562
20
1194.786
0
LWPOLYLINE
8
INTERIOR_PROFILES
90
33
70
1
10
1616.562
20
1111.262
10
1616.595
20
1111.594
10
1616.691
20
1111.913
10
1616.848
20
1112.206
10
1617.060
20
1112.464
10
1617.317
20
1112.675
10
1617.611
20
1112.833
10
1617.930
20
1112.929
10
1618.262
20
1112.962
10
1618.594
20
1112.929
10
1618.913
20
1112.833
10
1619.206
20
1112.675
10
1619.464
20
1112.464
10
1619.675
20
1112.206
10
1619.833
20
1111.913
10
1619.929
20
1111.594
10
1619.962
20
1111.262
10
1619.929
20
1110.930
10
1619.833
20
1110.611
10
1619.675
20
1110.317
10
1619.464
20
1110.060
10
1619.206
20
1109.848
10
1618.913
20
1109.691
10
1618.594
20
1109.595
10
1618.262
20
1109.562
10
1617.930
20
1109.595
10
1617.611
20
1109.691
10
1617.317
20
1109.848
10
1617.060
20
1110.060
10
1616.848
20
1110.317
10
1616.691
20
1110.611
10
1616.595
20
1110.930
10
1616.562
20
1111.262
0
LWPOLYLINE
8
INTERIOR_PROFILES
90
33
70
1
10
834.562
20
1111.262
10
834.595
20
1111.594
10
834.691
20
1111.913
10
834.848
20
1112.206
10
835.060
20
1112.464
10
835.317
20
1112.675
10
835.611
20
1112.833
10
835.930
20
1112.929
10
836.262
20
1112.962
10
836.594
20
1112.929
10
836.913
20
1112.833
10
837.206
20
1112.675
10
837.464
20
1112.464
10
837.675
20
1112.206
10
837.833
20
1111.913
10
837.929
20
1111.594
10
837.962
20
1111.262
10
837.929
20
1110.930
10
837.833
20
1110.611
10
837.675
20
1110.317
10
837.464
20
1110.060
10
837.206
20
1109.848
10
836.913
20
1109.691
10
836.594
20
1109.595
10
836.262
20
1109.562
10
835.930
20
1109.595
10
835.611
20
1109.691
10
835.317
20
1109.848
10
835.060
20
1110.060
10
834.848
20
1110.317
10
834.691
20
1110.611
10
834.595
20
1110.930
10
834.562
20
1111.262
0
LWPOLYLINE
8
INTERIOR_PROFILES
90
33
70
1
10
834.562
20
1136.262
10
834.595
20
1136.594
10
834.691
20
1136.913
10
834.848
20
1137.206
10
835.060
20
1137.464
10
835.317
20
1137.675
10
835.611
20
1137.833
10
835.930
20
1137.929
10
836.262
20
1137.962
10
836.594
20
1137.929
10
836.913
20
1137.833
10
837.206
20
1137.675
10
837.464
20
1137.464
10
837.675
20
1137.206
10
837.833
20
1136.913
10
837.929
20
1136.594
10
837.962
20
1136.262
10
837.929
20
1135.930
10
837.833
20
1135.611
10
837.675
20
1135.317
10
837.464
20
1135.060
10
837.206
20
1134.848
10
836.913
20
1134.691
10
836.594
20
1134.595
10
836.262
20
1134.562
10
835.930
20
1134.595
10
835.611
20
1134.691
10
835.317
20
1134.848
10
835.060
20
1135.060
10
834.848
20
1135.317
10
834.691
20
1135.611
10
834.595
20
1135.930
10
834.562
20
1136.262
0
LWPOLYLINE
8
INTERIOR_PROFILES
90
5
70
1
10
912.262
20
1140.262
10
839.262
20
1140.262
10
839.262
20
1142.524
10
912.262
20
1142.524
10
912.262
20
1140.262
0
LWPOLYLINE
8
INTERIOR_PROFILES
90
5
70
1
10
912.262
20
1163.524
10
839.262
20
1163.524
10
839.262
20
1165.786
10
912.262
20
1165.786
10
912.262
20
1163.524
0
LWPOLYLINE
8
INTERIOR_PROFILES
90
5
70
1
10
1615.262
20
1140.262
10
1542.262
20
1140.262
10
1542.262
20
1142.524
10
1615.262
20
1142.524
10
1615.262
20
1140.262
0
LWPOLYLINE
8
INTERIOR_PROFILES
90
5
70
1
10
1542.262
20
1163.524
10
1542.262
20
1165.786
10
1615.262
20
1165.786
10
1615.262
20
1163.524
10
1542.262
20
1163.524
0
LWPOLYLINE
8
INTERIOR_PROFILES
90
33
70
1
10
1616.562
20
1136.262
10
1616.595
20
1136.594
10
1616.691
20
1136.913
10
1616.848
20
1137.206
10
1617.060
20
1137.464
10
1617.317
20
1137.675
10
1617.611
20
1137.833
10
1617.930
20
1137.929
10
1618.262
20
1137.962
10
1618.594
20
1137.929
10
1618.913
20
1137.833
10
1619.206
20
1137.675
10
1619.464
20
1137.464
10
1619.675
20
1137.206
10
1619.833
20
1136.913
10
1619.929
20
1136.594
10
1619.962
20
1136.262
10
1619.929
20
1135.930
10
1619.833
20
1135.611
10
1619.675
20
1135.317
10
1619.464
20
1135.060
10
1619.206
20
1134.848
10
1618.913
20
1134.691
10
1618.594
20
1134.595
10
1618.262
20
1134.562
10
1617.930
20
1134.595
10
1617.611
20
1134.691
10
1617.317
20
1134.848
10
1617.060
20
1135.060
10
1616.848
20
1135.317
10
1616.691
20
1135.611
10
1616.595
20
1135.930
10
1616.562
20
1136.262
0
LWPOLYLINE
8
INTERIOR_PROFILES
90
33
70
1
10
1544.562
20
1153.024
10
1544.595
20
1153.356
10
1544.691
20
1153.674
10
1544.848
20
1153.968
10
1545.060
20
1154.226
10
1545.317
20
1154.437
10
1545.611
20
1154.594
10
1545.930
20
1154.691
10
1546.262
20
1154.724
10
1546.594
20
1154.691
10
1546.913
20
1154.594
10
1547.206
20
1154.437
10
1547.464
20
1154.226
10
1547.675
20
1153.968
10
1547.833
20
1153.674
10
1547.929
20
1153.356
10
1547.962
20
1153.024
10
1547.929
20
1152.692
10
1547.833
20
1152.373
10
1547.675
20
1152.079
10
1547.464
20
1151.822
10
1547.206
20
1151.610
10
1546.913
20
1151.453
10
1546.594
20
1151.357
10
1546.262
20
1151.324
10
1545.930
20
1151.357
10
1545.611
20
1151.453
10
1545.317
20
1151.610
10
1545.060
20
1151.822
10
1544.848
20
1152.079
10
1544.691
20
1152.373
10
1544.595
20
1152.692
10
1544.562
20
1153.024
0
LWPOLYLINE
8
INTERIOR_PROFILES
90
33
70
1
10
1616.562
20
1194.786
10
1616.595
20
1195.117
10
1616.691
20
1195.436
10
1616.848
20
1195.730
10
1617.060
20
1195.988
10
1617.317
20
1196.199
10
1617.611
20
1196.356
10
1617.930
20
1196.453
10
1618.262
20
1196.486
10
1618.594
20
1196.453
10
1618.913
20
1196.356
10
1619.206
20
1196.199
10
1619.464
20
1195.988
10
1619.675
20
1195.730
10
1619.833
20
1195.436
10
1619.929
20
1195.117
10
1619.962
20
1194.786
10
1619.929
20
1194.454
10
1619.833
20
1194.135
10
1619.675
20
1193.841
10
1619.464
20
1193.584
10
1619.206
20
1193.372
10
1618.913
20
1193.215
10
1618.594
20
1193.119
10
1618.262
20
1193.086
10
1617.930
20
1193.119
10
1617.611
20
1193.215
10
1617.317
20
1193.372
10
1617.060
20
1193.584
10
1616.848
20
1193.841
10
1616.691
20
1194.135
10
1616.595
20
1194.454
10
1616.562
20
1194.786
0
LWPOLYLINE
8
INTERIOR_PROFILES
90
33
70
1
10
834.562
20
1169.786
10
834.595
20
1170.117
10
834.691
20
1170.436
10
834.848
20
1170.730
10
835.060
20
1170.988
10
835.317
20
1171.199
10
835.611
20
1171.356
10
835.930
20
1171.453
10
836.262
20
1171.486
10
836.594
20
1171.453
10
836.913
20
1171.356
10
837.206
20
1171.199
10
837.464
20
1170.988
10
837.675
20
1170.730
10
837.833
20
1170.436
10
837.929
20
1170.117
10
837.962
20
1169.786
10
837.929
20
1169.454
10
837.833
20
1169.135
10
837.675
20
1168.841
10
837.464
20
1168.584
10
837.206
20
1168.372
10
836.913
20
1168.215
10
836.594
20
1168.119
10
836.262
20
1168.086
10
835.930
20
1168.119
10
835.611
20
1168.215
10
835.317
20
1168.372
10
835.060
20
1168.584
10
834.848
20
1168.841
10
834.691
20
1169.135
10
834.595
20
1169.454
10
834.562
20
1169.786
0
LWPOLYLINE
8
INTERIOR_PROFILES
90
33
70
1
10
1616.562
20
1169.786
10
1616.595
20
1170.117
10
1616.691
20
1170.436
10
1616.848
20
1170.730
10
1617.060
20
1170.988
10
1617.317
20
1171.199
10
1617.611
20
1171.356
10
1617.930
20
1171.453
10
1618.262
20
1171.486
10
1618.594
20
1171.453
10
1618.913
20
1171.356
10
1619.206
20
1171.199
10
1619.464
20
1170.988
10
1619.675
20
1170.730
10
1619.833
20
1170.436
10
1619.929
20
1170.117
10
1619.962
20
1169.786
10
1619.929
20
1169.454
10
1619.833
20
1169.135
10
1619.675
20
1168.841
10
1619.464
20
1168.584
10
1619.206
20
1168.372
10
1618.913
20
1168.215
10
1618.594
20
1168.119
10
1618.262
20
1168.086
10
1617.930
20
1168.119
10
1617.611
20
1168.215
10
1617.317
20
1168.372
10
1617.060
20
1168.584
10
1616.848
20
1168.841
10
1616.691
20
1169.135
10
1616.595
20
1169.454
10
1616.562
20
1169.786
0
LWPOLYLINE
8
INTERIOR_PROFILES
90
33
70
1
10
906.562
20
1153.024
10
906.595
20
1153.356
10
906.691
20
1153.674
10
906.848
20
1153.968
10
907.060
20
1154.226
10
907.317
20
1154.437
10
907.611
20
1154.594
10
907.930
20
1154.691
10
908.262
20
1154.724
10
908.594
20
1154.691
10
908.913
20
1154.594
10
909.206
20
1154.437
10
909.464
20
1154.226
10
909.675
20
1153.968
10
909.833
20
1153.674
10
909.929
20
1153.356
10
909.962
20
1153.024
10
909.929
20
1152.692
10
909.833
20
1152.373
10
909.675
20
1152.079
10
909.464
20
1151.822
10
909.206
20
1151.610
10
908.913
20
1151.453
10
908.594
20
1151.357
10
908.262
20
1151.324
10
907.930
20
1151.357
10
907.611
20
1151.453
10
907.317
20
1151.610
10
907.060
20
1151.822
10
906.848
20
1152.079
10
906.691
20
1152.373
10
906.595
20
1152.692
10
906.562
20
1153.024
0
LWPOLYLINE
8
INTERIOR_PROFILES
90
33
70
1
10
1590.562
20
1153.024
10
1590.595
20
1153.356
10
1590.691
20
1153.674
10
1590.848
20
1153.968
10
1591.060
20
1154.226
10
1591.317
20
1154.437
10
1591.611
20
1154.594
10
1591.930
20
1154.691
10
1592.262
20
1154.724
10
1592.594
20
1154.691
10
1592.913
20
1154.594
10
1593.206
20
1154.437
10
1593.464
20
1154.226
10
1593.675
20
1153.968
10
1593.833
20
1153.674
10
1593.929
20
1153.356
10
1593.962
20
1153.024
10
1593.929
20
1152.692
10
1593.833
20
1152.373
10
1593.675
20
1152.079
10
1593.464
20
1151.822
10
1593.206
20
1151.610
10
1592.913
20
1151.453
10
1592.594
20
1151.357
10
1592.262
20
1151.324
10
1591.930
20
1151.357
10
1591.611
20
1151.453
10
1591.317
20
1151.610
10
1591.060
20
1151.822
10
1590.848
20
1152.079
10
1590.691
20
1152.373
10
1590.595
20
1152.692
10
1590.562
20
1153.024
0
LWPOLYLINE
8
INTERIOR_PROFILES
90
33
70
1
10
860.562
20
1153.024
10
860.595
20
1153.356
10
860.691
20
1153.674
10
860.848
20
1153.968
10
861.060
20
1154.226
10
861.317
20
1154.437
10
861.611
20
1154.594
10
861.930
20
1154.691
10
862.262
20
1154.724
10
862.594
20
1154.691
10
862.913
20
1154.594
10
863.206
20
1154.437
10
863.464
20
1154.226
10
863.675
20
1153.968
10
863.833
20
1153.674
10
863.929
20
1153.356
10
863.962
20
1153.024
10
863.929
20
1152.692
10
863.833
20
1152.373
10
863.675
20
1152.079
10
863.464
20
1151.822
10
863.206
20
1151.610
10
862.913
20
1151.453
10
862.594
20
1151.357
10
862.262
20
1151.324
10
861.930
20
1151.357
10
861.611
20
1151.453
10
861.317
20
1151.610
10
861.060
20
1151.822
10
860.848
20
1152.079
10
860.691
20
1152.373
10
860.595
20
1152.692
10
860.562
20
1153.024
0
LWPOLYLINE
8
INTERIOR_PROFILES
90
33
70
1
10
834.562
20
1153.024
10
834.595
20
1153.356
10
834.691
20
1153.674
10
834.848
20
1153.968
10
835.060
20
1154.226
10
835.317
20
1154.437
10
835.611
20
1154.594
10
835.930
20
1154.691
10
836.262
20
1154.724
10
836.594
20
1154.691
10
836.913
20
1154.594
10
837.206
20
1154.437
10
837.464
20
1154.226
10
837.675
20
1153.968
10
837.833
20
1153.674
10
837.929
20
1153.356
10
837.962
20
1153.024
10
837.929
20
1152.692
10
837.833
20
1152.373
10
837.675
20
1152.079
10
837.464
20
1151.822
10
837.206
20
1151.610
10
836.913
20
1151.453
10
836.594
20
1151.357
10
836.262
20
1151.324
10
835.930
20
1151.357
10
835.611
20
1151.453
10
835.317
20
1151.610
10
835.060
20
1151.822
10
834.848
20
1152.079
10
834.691
20
1152.373
10
834.595
20
1152.692
10
834.562
20
1153.024
0
LWPOLYLINE
8
INTERIOR_PROFILES
90
33
70
1
10
1616.562
20
1153.024
10
1616.595
20
1153.356
10
1616.691
20
1153.674
10
1616.848
20
1153.968
10
1617.060
20
1154.226
10
1617.317
20
1154.437
10
1617.611
20
1154.594
10
1617.930
20
1154.691
10
1618.262
20
1154.724
10
1618.594
20
1154.691
10
1618.913
20
1154.594
10
1619.206
20
1154.437
10
1619.464
20
1154.226
10
1619.675
20
1153.968
10
1619.833
20
1153.674
10
1619.929
20
1153.356
10
1619.962
20
1153.024
10
1619.929
20
1152.692
10
1619.833
20
1152.373
10
1619.675
20
1152.079
10
1619.464
20
1151.822
10
1619.206
20
1151.610
10
1618.913
20
1151.453
10
1618.594
20
1151.357
10
1618.262
20
1151.324
10
1617.930
20
1151.357
10
1617.611
20
1151.453
10
1617.317
20
1151.610
10
1617.060
20
1151.822
10
1616.848
20
1152.079
10
1616.691
20
1152.373
10
1616.595
20
1152.692
10
1616.562
20
1153.024
0
LWPOLYLINE
8
INTERIOR_PROFILES
90
33
70
1
10
1629.824
20
1153.024
10
1629.857
20
1153.356
10
1629.953
20
1153.674
10
1630.110
20
1153.968
10
1630.322
20
1154.226
10
1630.579
20
1154.437
10
1630.873
20
1154.594
10
1631.192
20
1154.691
10
1631.524
20
1154.724
10
1631.856
20
1154.691
10
1632.174
20
1154.594
10
1632.468
20
1154.437
10
1632.726
20
1154.226
10
1632.937
20
1153.968
10
1633.094
20
1153.674
10
1633.191
20
1153.356
10
1633.224
20
1153.024
10
1633.191
20
1152.692
10
1633.094
20
1152.373
10
1632.937
20
1152.079
10
1632.726
20
1151.822
10
1632.468
20
1151.610
10
1632.174
20
1151.453
10
1631.856
20
1151.357
10
1631.524
20
1151.324
10
1631.192
20
1151.357
10
1630.873
20
1151.453
10
1630.579
20
1151.610
10
1630.322
20
1151.822
10
1630.110
20
1152.079
10
1629.953
20
1152.373
10
1629.857
20
1152.692
10
1629.824
20
1153.024
0
LWPOLYLINE
8
INTERIOR_PROFILES
90
33
70
1
10
821.300
20
1153.024
10
821.333
20
1153.356
10
821.429
20
1153.674
10
821.587
20
1153.968
10
821.798
20
1154.226
10
822.056
20
1154.437
10
822.349
20
1154.594
10
822.668
20
1154.691
10
823.000
20
1154.724
10
823.332
20
1154.691
10
823.651
20
1154.594
10
823.944
20
1154.437
10
824.202
20
1154.226
10
824.413
20
1153.968
10
824.571
20
1153.674
10
824.667
20
1153.356
10
824.700
20
1153.024
10
824.667
20
1152.692
10
824.571
20
1152.373
10
824.413
20
1152.079
10
824.202
20
1151.822
10
823.944
20
1151.610
10
823.651
20
1151.453
10
823.332
20
1151.357
10
823.000
20
1151.324
10
822.668
20
1151.357
10
822.349
20
1151.453
10
822.056
20
1151.610
10
821.798
20
1151.822
10
821.587
20
1152.079
10
821.429
20
1152.373
10
821.333
20
1152.692
10
821.300
20
1153.024
0
LWPOLYLINE
8
OUTER_PROFILES
90
24
70
1
10
2349.262
20
837.000
10
2349.262
20
839.262
10
2349.262
20
873.262
10
2349.262
20
875.524
10
2359.524
20
875.524
10
2359.524
20
896.524
10
2349.262
20
896.524
10
2349.262
20
898.786
10
2349.262
20
932.786
10
2349.262
20
935.048
10
2349.262
20
940.048
10
1553.262
20
940.048
10
1553.262
20
935.048
10
1553.262
20
898.786
10
1553.262
20
896.524
10
1543.000
20
896.524
10
1543.000
20
875.524
10
1553.262
20
875.524
10
1553.262
20
873.262
10
1553.262
20
839.262
10
1553.262
20
837.000
10
1553.262
20
832.000
10
2349.262
20
832.000
10
2349.262
20
837.000
0
LWPOLYLINE
8
INTERIOR_PROFILES
90
33
70
1
10
1558.562
20
927.786
10
1558.595
20
928.117
10
1558.691
20
928.436
10
1558.848
20
928.730
10
1559.060
20
928.988
10
1559.317
20
929.199
10
1559.611
20
929.356
10
1559.930
20
929.453
10
1560.262
20
929.486
10
1560.594
20
929.453
10
1560.913
20
929.356
10
1561.206
20
929.199
10
1561.464
20
928.988
10
1561.675
20
928.730
10
1561.833
20
928.436
10
1561.929
20
928.117
10
1561.962
20
927.786
10
1561.929
20
927.454
10
1561.833
20
927.135
10
1561.675
20
926.841
10
1561.464
20
926.584
10
1561.206
20
926.372
10
1560.913
20
926.215
10
1560.594
20
926.119
10
1560.262
20
926.086
10
1559.930
20
926.119
10
1559.611
20
926.215
10
1559.317
20
926.372
10
1559.060
20
926.584
10
1558.848
20
926.841
10
1558.691
20
927.135
10
1558.595
20
927.454
10
1558.562
20
927.786
0
LWPOLYLINE
8
INTERIOR_PROFILES
90
33
70
1
10
2340.562
20
844.262
10
2340.595
20
844.594
10
2340.691
20
844.913
10
2340.848
20
845.206
10
2341.060
20
845.464
10
2341.317
20
845.675
10
2341.611
20
845.833
10
2341.930
20
845.929
10
2342.262
20
845.962
10
2342.594
20
845.929
10
2342.913
20
845.833
10
2343.206
20
845.675
10
2343.464
20
845.464
10
2343.675
20
845.206
10
2343.833
20
844.913
10
2343.929
20
844.594
10
2343.962
20
844.262
10
2343.929
20
843.930
10
2343.833
20
843.611
10
2343.675
20
843.317
10
2343.464
20
843.060
10
2343.206
20
842.848
10
2342.913
20
842.691
10
2342.594
20
842.595
10
2342.262
20
842.562
10
2341.930
20
842.595
10
2341.611
20
842.691
10
2341.317
20
842.848
10
2341.060
20
843.060
10
2340.848
20
843.317
10
2340.691
20
843.611
10
2340.595
20
843.930
10
2340.562
20
844.262
0
LWPOLYLINE
8
INTERIOR_PROFILES
90
33
70
1
10
1558.562
20
844.262
10
1558.595
20
844.594
10
1558.691
20
844.913
10
1558.848
20
845.206
10
1559.060
20
845.464
10
1559.317
20
845.675
10
1559.611
20
845.833
10
1559.930
20
845.929
10
1560.262
20
845.962
10
1560.594
20
845.929
10
1560.913
20
845.833
10
1561.206
20
845.675
10
1561.464
20
845.464
10
1561.675
20
845.206
10
1561.833
20
844.913
10
1561.929
20
844.594
10
1561.962
20
844.262
10
1561.929
20
843.930
10
1561.833
20
843.611
10
1561.675
20
843.317
10
1561.464
20
843.060
10
1561.206
20
842.848
10
1560.913
20
842.691
10
1560.594
20
842.595
10
1560.262
20
842.562
10
1559.930
20
842.595
10
1559.611
20
842.691
10
1559.317
20
842.848
10
1559.060
20
843.060
10
1558.848
20
843.317
10
1558.691
20
843.611
10
1558.595
20
843.930
10
1558.562
20
844.262
0
LWPOLYLINE
8
INTERIOR_PROFILES
90
33
70
1
10
1558.562
20
869.262
10
1558.595
20
869.594
10
1558.691
20
869.913
10
1558.848
20
870.206
10
1559.060
20
870.464
10
1559.317
20
870.675
10
1559.611
20
870.833
10
1559.930
20
870.929
10
1560.262
20
870.962
10
1560.594
20
870.929
10
1560.913
20
870.833
10
1561.206
20
870.675
10
1561.464
20
870.464
10
1561.675
20
870.206
10
1561.833
20
869.913
10
1561.929
20
869.594
10
1561.962
20
869.262
10
1561.929
20
868.930
10
1561.833
20
868.611
10
1561.675
20
868.317
10
1561.464
20
868.060
10
1561.206
20
867.848
10
1560.913
20
867.691
10
1560.594
20
867.595
10
1560.262
20
867.562
10
1559.930
20
867.595
10
1559.611
20
867.691
10
1559.317
20
867.848
10
1559.060
20
868.060
10
1558.848
20
868.317
10
1558.691
20
868.611
10
1558.595
20
868.930
10
1558.562
20
869.262
0
LWPOLYLINE
8
INTERIOR_PROFILES
90
5
70
1
10
1636.262
20
873.262
10
1563.262
20
873.262
10
1563.262
20
875.524
10
1636.262
20
875.524
10
1636.262
20
873.262
0
LWPOLYLINE
8
INTERIOR_PROFILES
90
5
70
1
10
1636.262
20
896.524
10
1563.262
20
896.524
10
1563.262
20
898.786
10
1636.262
20
898.786
10
1636.262
20
896.524
0
LWPOLYLINE
8
INTERIOR_PROFILES
90
5
70
1
10
2339.262
20
873.262
10
2266.262
20
873.262
10
2266.262
20
875.524
10
2339.262
20
875.524
10
2339.262
20
873.262
0
LWPOLYLINE
8
INTERIOR_PROFILES
90
5
70
1
10
2266.262
20
896.524
10
2266.262
20
898.786
10
2339.262
20
898.786
10
2339.262
20
896.524
10
2266.262
20
896.524
0
LWPOLYLINE
8
INTERIOR_PROFILES
90
33
70
1
10
2340.562
20
869.262
10
2340.595
20
869.594
10
2340.691
20
869.913
10
2340.848
20
870.206
10
2341.060
20
870.464
10
2341.317
20
870.675
10
2341.611
20
870.833
10
2341.930
20
870.929
10
2342.262
20
870.962
10
2342.594
20
870.929
10
2342.913
20
870.833
10
2343.206
20
870.675
10
2343.464
20
870.464
10
2343.675
20
870.206
10
2343.833
20
869.913
10
2343.929
20
869.594
10
2343.962
20
869.262
10
2343.929
20
868.930
10
2343.833
20
868.611
10
2343.675
20
868.317
10
2343.464
20
868.060
10
2343.206
20
867.848
10
2342.913
20
867.691
10
2342.594
20
867.595
10
2342.262
20
867.562
10
2341.930
20
867.595
10
2341.611
20
867.691
10
2341.317
20
867.848
10
2341.060
20
868.060
10
2340.848
20
868.317
10
2340.691
20
868.611
10
2340.595
20
868.930
10
2340.562
20
869.262
0
LWPOLYLINE
8
INTERIOR_PROFILES
90
33
70
1
10
2268.562
20
886.024
10
2268.595
20
886.356
10
2268.691
20
886.674
10
2268.848
20
886.968
10
2269.060
20
887.226
10
2269.317
20
887.437
10
2269.611
20
887.594
10
2269.930
20
887.691
10
2270.262
20
887.724
10
2270.594
20
887.691
10
2270.913
20
887.594
10
2271.206
20
887.437
10
2271.464
20
887.226
10
2271.675
20
886.968
10
2271.833
20
886.674
10
2271.929
20
886.356
10
2271.962
20
886.024
10
2271.929
20
885.692
10
2271.833
20
885.373
10
2271.675
20
885.079
10
2271.464
20
884.822
10
2271.206
20
884.610
10
2270.913
20
884.453
10
2270.594
20
884.357
10
2270.262
20
884.324
10
2269.930
20
884.357
10
2269.611
20
884.453
10
2269.317
20
884.610
10
2269.060
20
884.822
10
2268.848
20
885.079
10
2268.691
20
885.373
10
2268.595
20
885.692
10
2268.562
20
886.024
0
LWPOLYLINE
8
INTERIOR_PROFILES
90
33
70
1
10
2340.562
20
927.786
10
2340.595
20
928.117
10
2340.691
20
928.436
10
2340.848
20
928.730
10
2341.060
20
928.988
10
2341.317
20
929.199
10
2341.611
20
929.356
10
2341.930
20
929.453
10
2342.262
20
929.486
10
2342.594
20
929.453
10
2342.913
20
929.356
10
2343.206
20
929.199
10
2343.464
20
928.988
10
2343.675
20
928.730
10
2343.833
20
928.436
10
2343.929
20
928.117
10
2343.962
20
927.786
10
2343.929
20
927.454
10
2343.833
20
927.135
10
2343.675
20
926.841
10
2343.464
20
926.584
10
2343.206
20
926.372
10
2342.913
20
926.215
10
2342.594
20
926.119
10
2342.262
20
926.086
10
2341.930
20
926.119
10
2341.611
20
926.215
10
2341.317
20
926.372
10
2341.060
20
926.584
10
2340.848
20
926.841
10
2340.691
20
927.135
10
2340.595
20
927.454
10
2340.562
20
927.786
0
LWPOLYLINE
8
INTERIOR_PROFILES
90
33
70
1
10
1558.562
20
902.786
10
1558.595
20
903.117
10
1558.691
20
903.436
10
1558.848
20
903.730
10
1559.060
20
903.988
10
1559.317
20
904.199
10
1559.611
20
904.356
10
1559.930
20
904.453
10
1560.262
20
904.486
10
1560.594
20
904.453
10
1560.913
20
904.356
10
1561.206
20
904.199
10
1561.464
20
903.988
10
1561.675
20
903.730
10
1561.833
20
903.436
10
1561.929
20
903.117
10
1561.962
20
902.786
10
1561.929
20
902.454
10
1561.833
20
902.135
10
1561.675
20
901.841
10
1561.464
20
901.584
10
1561.206
20
901.372
10
1560.913
20
901.215
10
1560.594
20
901.119
10
1560.262
20
901.086
10
1559.930
20
901.119
10
1559.611
20
901.215
10
1559.317
20
901.372
10
1559.060
20
901.584
10
1558.848
20
901.841
10
1558.691
20
902.135
10
1558.595
20
902.454
10
1558.562
20
902.786
0
LWPOLYLINE
8
INTERIOR_PROFILES
90
33
70
1
10
2340.562
20
902.786
10
2340.595
20
903.117
10
2340.691
20
903.436
10
2340.848
20
903.730
10
2341.060
20
903.988
10
2341.317
20
904.199
10
2341.611
20
904.356
10
2341.930
20
904.453
10
2342.262
20
904.486
10
2342.594
20
904.453
10
2342.913
20
904.356
10
2343.206
20
904.199
10
2343.464
20
903.988
10
2343.675
20
903.730
10
2343.833
20
903.436
10
2343.929
20
903.117
10
2343.962
20
902.786
10
2343.929
20
902.454
10
2343.833
20
902.135
10
2343.675
20
901.841
10
2343.464
20
901.584
10
2343.206
20
901.372
10
2342.913
20
901.215
10
2342.594
20
901.119
10
2342.262
20
901.086
10
2341.930
20
901.119
10
2341.611
20
901.215
10
2341.317
20
901.372
10
2341.060
20
901.584
10
2340.848
20
901.841
10
2340.691
20
902.135
10
2340.595
20
902.454
10
2340.562
20
902.786
0
LWPOLYLINE
8
INTERIOR_PROFILES
90
33
70
1
10
1630.562
20
886.024
10
1630.595
20
886.356
10
1630.691
20
886.674
10
1630.848
20
886.968
10
1631.060
20
887.226
10
1631.317
20
887.437
10
1631.611
20
887.594
10
1631.930
20
887.691
10
1632.262
20
887.724
10
1632.594
20
887.691
10
1632.913
20
887.594
10
1633.206
20
887.437
10
1633.464
20
887.226
10
1633.675
20
886.968
10
1633.833
20
886.674
10
1633.929
20
886.356
10
1633.962
20
886.024
10
1633.929
20
885.692
10
1633.833
20
885.373
10
1633.675
20
885.079
10
1633.464
20
884.822
10
1633.206
20
884.610
10
1632.913
20
884.453
10
1632.594
20
884.357
10
1632.262
20
884.324
10
1631.930
20
884.357
10
1631.611
20
884.453
10
1631.317
20
884.610
10
1631.060
20
884.822
10
1630.848
20
885.079
10
1630.691
20
885.373
10
1630.595
20
885.692
10
1630.562
20
886.024
0
LWPOLYLINE
8
INTERIOR_PROFILES
90
33
70
1
10
2314.562
20
886.024
10
2314.595
20
886.356
10
2314.691
20
886.674
10
2314.848
20
886.968
10
2315.060
20
887.226
10
2315.317
20
887.437
10
2315.611
20
887.594
10
2315.930
20
887.691
10
2316.262
20
887.724
10
2316.594
20
887.691
10
2316.913
20
887.594
10
2317.206
20
887.437
10
2317.464
20
887.226
10
2317.675
20
886.968
10
2317.833
20
886.674
10
2317.929
20
886.356
10
2317.962
20
886.024
10
2317.929
20
885.692
10
2317.833
20
885.373
10
2317.675
20
885.079
10
2317.464
20
884.822
10
2317.206
20
884.610
10
2316.913
20
884.453
10
2316.594
20
884.357
10
2316.262
20
884.324
10
2315.930
20
884.357
10
2315.611
20
884.453
10
2315.317
20
884.610
10
2315.060
20
884.822
10
2314.848
20
885.079
10
2314.691
20
885.373
10
2314.595
20
885.692
10
2314.562
20
886.024
0
LWPOLYLINE
8
INTERIOR_PROFILES
90
33
70
1
10
1584.562
20
886.024
10
1584.595
20
886.356
10
1584.691
20
886.674
10
1584.848
20
886.968
10
1585.060
20
887.226
10
1585.317
20
887.437
10
1585.611
20
887.594
10
1585.930
20
887.691
10
1586.262
20
887.724
10
1586.594
20
887.691
10
1586.913
20
887.594
10
1587.206
20
887.437
10
1587.464
20
887.226
10
1587.675
20
886.968
10
1587.833
20
886.674
10
1587.929
20
886.356
10
1587.962
20
886.024
10
1587.929
20
885.692
10
1587.833
20
885.373
10
1587.675
20
885.079
10
1587.464
20
884.822
10
1587.206
20
884.610
10
1586.913
20
884.453
10
1586.594
20
884.357
10
1586.262
20
884.324
10
1585.930
20
884.357
10
1585.611
20
884.453
10
1585.317
20
884.610
10
1585.060
20
884.822
10
1584.848
20
885.079
10
1584.691
20
885.373
10
1584.595
20
885.692
10
1584.562
20
886.024
0
LWPOLYLINE
8
INTERIOR_PROFILES
90
33
70
1
10
1558.562
20
886.024
10
1558.595
20
886.356
10
1558.691
20
886.674
10
1558.848
20
886.968
10
1559.060
20
887.226
10
1559.317
20
887.437
10
1559.611
20
887.594
10
1559.930
20
887.691
10
1560.262
20
887.724
10
1560.594
20
887.691
10
1560.913
20
887.594
10
1561.206
20
887.437
10
1561.464
20
887.226
10
1561.675
20
886.968
10
1561.833
20
886.674
10
1561.929
20
886.356
10
1561.962
20
886.024
10
1561.929
20
885.692
10
1561.833
20
885.373
10
1561.675
20
885.079
10
1561.464
20
884.822
10
1561.206
20
884.610
10
1560.913
20
884.453
10
1560.594
20
884.357
10
1560.262
20
884.324
10
1559.930
20
884.357
10
1559.611
20
884.453
10
1559.317
20
884.610
10
1559.060
20
884.822
10
1558.848
20
885.079
10
1558.691
20
885.373
10
1558.595
20
885.692
10
1558.562
20
886.024
0
LWPOLYLINE
8
INTERIOR_PROFILES
90
33
70
1
10
2340.562
20
886.024
10
2340.595
20
886.356
10
2340.691
20
886.674
10
2340.848
20
886.968
10
2341.060
20
887.226
10
2341.317
20
887.437
10
2341.611
20
887.594
10
2341.930
20
887.691
10
2342.262
20
887.724
10
2342.594
20
887.691
10
2342.913
20
887.594
10
2343.206
20
887.437
10
2343.464
20
887.226
10
2343.675
20
886.968
10
2343.833
20
886.674
10
2343.929
20
886.356
10
2343.962
20
886.024
10
2343.929
20
885.692
10
2343.833
20
885.373
10
2343.675
20
885.079
10
2343.464
20
884.822
10
2343.206
20
884.610
10
2342.913
20
884.453
10
2342.594
20
884.357
10
2342.262
20
884.324
10
2341.930
20
884.357
10
2341.611
20
884.453
10
2341.317
20
884.610
10
2341.060
20
884.822
10
2340.848
20
885.079
10
2340.691
20
885.373
10
2340.595
20
885.692
10
2340.562
20
886.024
0
LWPOLYLINE
8
INTERIOR_PROFILES
90
33
70
1
10
2353.824
20
886.024
10
2353.857
20
886.356
10
2353.953
20
886.674
10
2354.110
20
886.968
10
2354.322
20
887.226
10
2354.579
20
887.437
10
2354.873
20
887.594
10
2355.192
20
887.691
10
2355.524
20
887.724
10
2355.856
20
887.691
10
2356.174
20
887.594
10
2356.468
20
887.437
10
2356.726
20
887.226
10
2356.937
20
886.968
10
2357.094
20
886.674
10
2357.191
20
886.356
10
2357.224
20
886.024
10
2357.191
20
885.692
10
2357.094
20
885.373
10
2356.937
20
885.079
10
2356.726
20
884.822
10
2356.468
20
884.610
10
2356.174
20
884.453
10
2355.856
20
884.357
10
2355.524
20
884.324
10
2355.192
20
884.357
10
2354.873
20
884.453
10
2354.579
20
884.610
10
2354.322
20
884.822
10
2354.110
20
885.079
10
2353.953
20
885.373
10
2353.857
20
885.692
10
2353.824
20
886.024
0
LWPOLYLINE
8
INTERIOR_PROFILES
90
33
70
1
10
1545.300
20
886.024
10
1545.333
20
886.356
10
1545.429
20
886.674
10
1545.587
20
886.968
10
1545.798
20
887.226
10
1546.056
20
887.437
10
1546.349
20
887.594
10
1546.668
20
887.691
10
1547.000
20
887.724
10
1547.332
20
887.691
10
1547.651
20
887.594
10
1547.944
20
887.437
10
1548.202
20
887.226
10
1548.413
20
886.968
10
1548.571
20
886.674
10
1548.667
20
886.356
10
1548.700
20
886.024
10
1548.667
20
885.692
10
1548.571
20
885.373
10
1548.413
20
885.079
10
1548.202
20
884.822
10
1547.944
20
884.610
10
1547.651
20
884.453
10
1547.332
20
884.357
10
1547.000
20
884.324
10
1546.668
20
884.357
10
1546.349
20
884.453
10
1546.056
20
884.610
10
1545.798
20
884.822
10
1545.587
20
885.079
10
1545.429
20
885.373
10
1545.333
20
885.692
10
1545.300
20
886.024
0
LWPOLYLINE
8
OUTER_PROFILES
90
24
70
1
10
2399.262
20
947.000
10
2399.262
20
949.262
10
2399.262
20
983.262
10
2399.262
20
985.524
10
2409.524
20
985.524
10
2409.524
20
1006.524
10
2399.262
20
1006.524
10
2399.262
20
1008.786
10
2399.262
20
1042.786
10
2399.262
20
1045.048
10
2399.262
20
1050.048
10
1603.262
20
1050.048
10
1603.262
20
1045.048
10
1603.262
20
1008.786
10
1603.262
20
1006.524
10
1593.000
20
1006.524
10
1593.000
20
985.524
10
1603.262
20
985.524
10
1603.262
20
983.262
10
1603.262
20
949.262
10
1603.262
20
947.000
10
1603.262
20
942.000
10
2399.262
20
942.000
10
2399.262
20
947.000
0
LWPOLYLINE
8
INTERIOR_PROFILES
90
33
70
1
10
1608.562
20
1037.786
10
1608.595
20
1038.117
10
1608.691
20
1038.436
10
1608.848
20
1038.730
10
1609.060
20
1038.988
10
1609.317
20
1039.199
10
1609.611
20
1039.356
10
1609.930
20
1039.453
10
1610.262
20
1039.486
10
1610.594
20
1039.453
10
1610.913
20
1039.356
10
1611.206
20
1039.199
10
1611.464
20
1038.988
10
1611.675
20
1038.730
10
1611.833
20
1038.436
10
1611.929
20
1038.117
10
1611.962
20
1037.786
10
1611.929
20
1037.454
10
1611.833
20
1037.135
10
1611.675
20
1036.841
10
1611.464
20
1036.584
10
1611.206
20
1036.372
10
1610.913
20
1036.215
10
1610.594
20
1036.119
10
1610.262
20
1036.086
10
1609.930
20
1036.119
10
1609.611
20
1036.215
10
1609.317
20
1036.372
10
1609.060
20
1036.584
10
1608.848
20
1036.841
10
1608.691
20
1037.135
10
1608.595
20
1037.454
10
1608.562
20
1037.786
0
LWPOLYLINE
8
INTERIOR_PROFILES
90
33
70
1
10
2390.562
20
954.262
10
2390.595
20
954.594
10
2390.691
20
954.913
10
2390.848
20
955.206
10
2391.060
20
955.464
10
2391.317
20
955.675
10
2391.611
20
955.833
10
2391.930
20
955.929
10
2392.262
20
955.962
10
2392.594
20
955.929
10
2392.913
20
955.833
10
2393.206
20
955.675
10
2393.464
20
955.464
10
2393.675
20
955.206
10
2393.833
20
954.913
10
2393.929
20
954.594
10
2393.962
20
954.262
10
2393.929
20
953.930
10
2393.833
20
953.611
10
2393.675
20
953.317
10
2393.464
20
953.060
10
2393.206
20
952.848
10
2392.913
20
952.691
10
2392.594
20
952.595
10
2392.262
20
952.562
10
2391.930
20
952.595
10
2391.611
20
952.691
10
2391.317
20
952.848
10
2391.060
20
953.060
10
2390.848
20
953.317
10
2390.691
20
953.611
10
2390.595
20
953.930
10
2390.562
20
954.262
0
LWPOLYLINE
8
INTERIOR_PROFILES
90
33
70
1
10
1608.562
20
954.262
10
1608.595
20
954.594
10
1608.691
20
954.913
10
1608.848
20
955.206
10
1609.060
20
955.464
10
1609.317
20
955.675
10
1609.611
20
955.833
10
1609.930
20
955.929
10
1610.262
20
955.962
10
1610.594
20
955.929
10
1610.913
20
955.833
10
1611.206
20
955.675
10
1611.464
20
955.464
10
1611.675
20
955.206
10
1611.833
20
954.913
10
1611.929
20
954.594
10
1611.962
20
954.262
10
1611.929
20
953.930
10
1611.833
20
953.611
10
1611.675
20
953.317
10
1611.464
20
953.060
10
1611.206
20
952.848
10
1610.913
20
952.691
10
1610.594
20
952.595
10
1610.262
20
952.562
10
1609.930
20
952.595
10
1609.611
20
952.691
10
1609.317
20
952.848
10
1609.060
20
953.060
10
1608.848
20
953.317
10
1608.691
20
953.611
10
1608.595
20
953.930
10
1608.562
20
954.262
0
LWPOLYLINE
8
INTERIOR_PROFILES
90
33
70
1
10
1608.562
20
979.262
10
1608.595
20
979.594
10
1608.691
20
979.913
10
1608.848
20
980.206
10
1609.060
20
980.464
10
1609.317
20
980.675
10
1609.611
20
980.833
10
1609.930
20
980.929
10
1610.262
20
980.962
10
1610.594
20
980.929
10
1610.913
20
980.833
10
1611.206
20
980.675
10
1611.464
20
980.464
10
1611.675
20
980.206
10
1611.833
20
979.913
10
1611.929
20
979.594
10
1611.962
20
979.262
10
1611.929
20
978.930
10
1611.833
20
978.611
10
1611.675
20
978.317
10
1611.464
20
978.060
10
1611.206
20
977.848
10
1610.913
20
977.691
10
1610.594
20
977.595
10
1610.262
20
977.562
10
1609.930
20
977.595
10
1609.611
20
977.691
10
1609.317
20
977.848
10
1609.060
20
978.060
10
1608.848
20
978.317
10
1608.691
20
978.611
10
1608.595
20
978.930
10
1608.562
20
979.262
0
LWPOLYLINE
8
INTERIOR_PROFILES
90
5
70
1
10
1686.262
20
983.262
10
1613.262
20
983.262
10
1613.262
20
985.524
10
1686.262
20
985.524
10
1686.262
20
983.262
0
LWPOLYLINE
8
INTERIOR_PROFILES
90
5
70
1
10
1686.262
20
1006.524
10
1613.262
20
1006.524
10
1613.262
20
1008.786
10
1686.262
20
1008.786
10
1686.262
20
1006.524
0
LWPOLYLINE
8
INTERIOR_PROFILES
90
5
70
1
10
2389.262
20
983.262
10
2316.262
20
983.262
10
2316.262
20
985.524
10
2389.262
20
985.524
10
2389.262
20
983.262
0
LWPOLYLINE
8
INTERIOR_PROFILES
90
5
70
1
10
2316.262
20
1006.524
10
2316.262
20
1008.786
10
2389.262
20
1008.786
10
2389.262
20
1006.524
10
2316.262
20
1006.524
0
LWPOLYLINE
8
INTERIOR_PROFILES
90
33
70
1
10
2390.562
20
979.262
10
2390.595
20
979.594
10
2390.691
20
979.913
10
2390.848
20
980.206
10
2391.060
20
980.464
10
2391.317
20
980.675
10
2391.611
20
980.833
10
2391.930
20
980.929
10
2392.262
20
980.962
10
2392.594
20
980.929
10
2392.913
20
980.833
10
2393.206
20
980.675
10
2393.464
20
980.464
10
2393.675
20
980.206
10
2393.833
20
979.913
10
2393.929
20
979.594
10
2393.962
20
979.262
10
2393.929
20
978.930
10
2393.833
20
978.611
10
2393.675
20
978.317
10
2393.464
20
978.060
10
2393.206
20
977.848
10
2392.913
20
977.691
10
2392.594
20
977.595
10
2392.262
20
977.562
10
2391.930
20
977.595
10
2391.611
20
977.691
10
2391.317
20
977.848
10
2391.060
20
978.060
10
2390.848
20
978.317
10
2390.691
20
978.611
10
2390.595
20
978.930
10
2390.562
20
979.262
0
LWPOLYLINE
8
INTERIOR_PROFILES
90
33
70
1
10
2318.562
20
996.024
10
2318.595
20
996.356
10
2318.691
20
996.674
10
2318.848
20
996.968
10
2319.060
20
997.226
10
2319.317
20
997.437
10
2319.611
20
997.594
10
2319.930
20
997.691
10
2320.262
20
997.724
10
2320.594
20
997.691
10
2320.913
20
997.594
10
2321.206
20
997.437
10
2321.464
20
997.226
10
2321.675
20
996.968
10
2321.833
20
996.674
10
2321.929
20
996.356
10
2321.962
20
996.024
10
2321.929
20
995.692
10
2321.833
20
995.373
10
2321.675
20
995.079
10
2321.464
20
994.822
10
2321.206
20
994.610
10
2320.913
20
994.453
10
2320.594
20
994.357
10
2320.262
20
994.324
10
2319.930
20
994.357
10
2319.611
20
994.453
10
2319.317
20
994.610
10
2319.060
20
994.822
10
2318.848
20
995.079
10
2318.691
20
995.373
10
2318.595
20
995.692
10
2318.562
20
996.024
0
LWPOLYLINE
8
INTERIOR_PROFILES
90
33
70
1
10
2390.562
20
1037.786
10
2390.595
20
1038.117
10
2390.691
20
1038.436
10
2390.848
20
1038.730
10
2391.060
20
1038.988
10
2391.317
20
1039.199
10
2391.611
20
1039.356
10
2391.930
20
1039.453
10
2392.262
20
1039.486
10
2392.594
20
1039.453
10
2392.913
20
1039.356
10
2393.206
20
1039.199
10
2393.464
20
1038.988
10
2393.675
20
1038.730
10
2393.833
20
1038.436
10
2393.929
20
1038.117
10
2393.962
20
1037.786
10
2393.929
20
1037.454
10
2393.833
20
1037.135
10
2393.675
20
1036.841
10
2393.464
20
1036.584
10
2393.206
20
1036.372
10
2392.913
20
1036.215
10
2392.594
20
1036.119
10
2392.262
20
1036.086
10
2391.930
20
1036.119
10
2391.611
20
1036.215
10
2391.317
20
1036.372
10
2391.060
20
1036.584
10
2390.848
20
1036.841
10
2390.691
20
1037.135
10
2390.595
20
1037.454
10
2390.562
20
1037.786
0
LWPOLYLINE
8
INTERIOR_PROFILES
90
33
70
1
10
1608.562
20
1012.786
10
1608.595
20
1013.117
10
1608.691
20
1013.436
10
1608.848
20
1013.730
10
1609.060
20
1013.988
10
1609.317
20
1014.199
10
1609.611
20
1014.356
10
1609.930
20
1014.453
10
1610.262
20
1014.486
10
1610.594
20
1014.453
10
1610.913
20
1014.356
10
1611.206
20
1014.199
10
1611.464
20
1013.988
10
1611.675
20
1013.730
10
1611.833
20
1013.436
10
1611.929
20
1013.117
10
1611.962
20
1012.786
10
1611.929
20
1012.454
10
1611.833
20
1012.135
10
1611.675
20
1011.841
10
1611.464
20
1011.584
10
1611.206
20
1011.372
10
1610.913
20
1011.215
10
1610.594
20
1011.119
10
1610.262
20
1011.086
10
1609.930
20
1011.119
10
1609.611
20
1011.215
10
1609.317
20
1011.372
10
1609.060
20
1011.584
10
1608.848
20
1011.841
10
1608.691
20
1012.135
10
1608.595
20
1012.454
10
1608.562
20
1012.786
0
LWPOLYLINE
8
INTERIOR_PROFILES
90
33
70
1
10
2390.562
20
1012.786
10
2390.595
20
1013.117
10
2390.691
20
1013.436
10
2390.848
20
1013.730
10
2391.060
20
1013.988
10
2391.317
20
1014.199
10
2391.611
20
1014.356
10
2391.930
20
1014.453
10
2392.262
20
1014.486
10
2392.594
20
1014.453
10
2392.913
20
1014.356
10
2393.206
20
1014.199
10
2393.464
20
1013.988
10
2393.675
20
1013.730
10
2393.833
20
1013.436
10
2393.929
20
1013.117
10
2393.962
20
1012.786
10
2393.929
20
1012.454
10
2393.833
20
1012.135
10
2393.675
20
1011.841
10
2393.464
20
1011.584
10
2393.206
20
1011.372
10
2392.913
20
1011.215
10
2392.594
20
1011.119
10
2392.262
20
1011.086
10
2391.930
20
1011.119
10
2391.611
20
1011.215
10
2391.317
20
1011.372
10
2391.060
20
1011.584
10
2390.848
20
1011.841
10
2390.691
20
1012.135
10
2390.595
20
1012.454
10
2390.562
20
1012.786
0
LWPOLYLINE
8
INTERIOR_PROFILES
90
33
70
1
10
1680.562
20
996.024
10
1680.595
20
996.356
10
1680.691
20
996.674
10
1680.848
20
996.968
10
1681.060
20
997.226
10
1681.317
20
997.437
10
1681.611
20
997.594
10
1681.930
20
997.691
10
1682.262
20
997.724
10
1682.594
20
997.691
10
1682.913
20
997.594
10
1683.206
20
997.437
10
1683.464
20
997.226
10
1683.675
20
996.968
10
1683.833
20
996.674
10
1683.929
20
996.356
10
1683.962
20
996.024
10
1683.929
20
995.692
10
1683.833
20
995.373
10
1683.675
20
995.079
10
1683.464
20
994.822
10
1683.206
20
994.610
10
1682.913
20
994.453
10
1682.594
20
994.357
10
1682.262
20
994.324
10
1681.930
20
994.357
10
1681.611
20
994.453
10
1681.317
20
994.610
10
1681.060
20
994.822
10
1680.848
20
995.079
10
1680.691
20
995.373
10
1680.595
20
995.692
10
1680.562
20
996.024
0
LWPOLYLINE
8
INTERIOR_PROFILES
90
33
70
1
10
2364.562
20
996.024
10
2364.595
20
996.356
10
2364.691
20
996.674
10
2364.848
20
996.968
10
2365.060
20
997.226
10
2365.317
20
997.437
10
2365.611
20
997.594
10
2365.930
20
997.691
10
2366.262
20
997.724
10
2366.594
20
997.691
10
2366.913
20
997.594
10
2367.206
20
997.437
10
2367.464
20
997.226
10
2367.675
20
996.968
10
2367.833
20
996.674
10
2367.929
20
996.356
10
2367.962
20
996.024
10
2367.929
20
995.692
10
2367.833
20
995.373
10
2367.675
20
995.079
10
2367.464
20
994.822
10
2367.206
20
994.610
10
2366.913
20
994.453
10
2366.594
20
994.357
10
2366.262
20
994.324
10
2365.930
20
994.357
10
2365.611
20
994.453
10
2365.317
20
994.610
10
2365.060
20
994.822
10
2364.848
20
995.079
10
2364.691
20
995.373
10
2364.595
20
995.692
10
2364.562
20
996.024
0
LWPOLYLINE
8
INTERIOR_PROFILES
90
33
70
1
10
1634.562
20
996.024
10
1634.595
20
996.356
10
1634.691
20
996.674
10
1634.848
20
996.968
10
1635.060
20
997.226
10
1635.317
20
997.437
10
1635.611
20
997.594
10
1635.930
20
997.691
10
1636.262
20
997.724
10
1636.594
20
997.691
10
1636.913
20
997.594
10
1637.206
20
997.437
10
1637.464
20
997.226
10
1637.675
20
996.968
10
1637.833
20
996.674
10
1637.929
20
996.356
10
1637.962
20
996.024
10
1637.929
20
995.692
10
1637.833
20
995.373
10
1637.675
20
995.079
10
1637.464
20
994.822
10
1637.206
20
994.610
10
1636.913
20
994.453
10
1636.594
20
994.357
10
1636.262
20
994.324
10
1635.930
20
994.357
10
1635.611
20
994.453
10
1635.317
20
994.610
10
1635.060
20
994.822
10
1634.848
20
995.079
10
1634.691
20
995.373
10
1634.595
20
995.692
10
1634.562
20
996.024
0
LWPOLYLINE
8
INTERIOR_PROFILES
90
33
70
1
10
1608.562
20
996.024
10
1608.595
20
996.356
10
1608.691
20
996.674
10
1608.848
20
996.968
10
1609.060
20
997.226
10
1609.317
20
997.437
10
1609.611
20
997.594
10
1609.930
20
997.691
10
1610.262
20
997.724
10
1610.594
20
997.691
10
1610.913
20
997.594
10
1611.206
20
997.437
10
1611.464
20
997.226
10
1611.675
20
996.968
10
1611.833
20
996.674
10
1611.929
20
996.356
10
1611.962
20
996.024
10
1611.929
20
995.692
10
1611.833
20
995.373
10
1611.675
20
995.079
10
1611.464
20
994.822
10
1611.206
20
994.610
10
1610.913
20
994.453
10
1610.594
20
994.357
10
1610.262
20
994.324
10
1609.930
20
994.357
10
1609.611
20
994.453
10
1609.317
20
994.610
10
1609.060
20
994.822
10
1608.848
20
995.079
10
1608.691
20
995.373
10
1608.595
20
995.692
10
1608.562
20
996.024
0
LWPOLYLINE
8
INTERIOR_PROFILES
90
33
70
1
10
2390.562
20
996.024
10
2390.595
20
996.356
10
2390.691
20
996.674
10
2390.848
20
996.968
10
2391.060
20
997.226
10
2391.317
20
997.437
10
2391.611
20
997.594
10
2391.930
20
997.691
10
2392.262
20
997.724
10
2392.594
20
997.691
10
2392.913
20
997.594
10
2393.206
20
997.437
10
2393.464
20
997.226
10
2393.675
20
996.968
10
2393.833
20
996.674
10
2393.929
20
996.356
10
2393.962
20
996.024
10
2393.929
20
995.692
10
2393.833
20
995.373
10
2393.675
20
995.079
10
2393.464
20
994.822
10
2393.206
20
994.610
10
2392.913
20
994.453
10
2392.594
20
994.357
10
2392.262
20
994.324
10
2391.930
20
994.357
10
2391.611
20
994.453
10
2391.317
20
994.610
10
2391.060
20
994.822
10
2390.848
20
995.079
10
2390.691
20
995.373
10
2390.595
20
995.692
10
2390.562
20
996.024
0
LWPOLYLINE
8
INTERIOR_PROFILES
90
33
70
1
10
2403.824
20
996.024
10
2403.857
20
996.356
10
2403.953
20
996.674
10
2404.110
20
996.968
10
2404.322
20
997.226
10
2404.579
20
997.437
10
2404.873
20
997.594
10
2405.192
20
997.691
10
2405.524
20
997.724
10
2405.856
20
997.691
10
2406.174
20
997.594
10
2406.468
20
997.437
10
2406.726
20
997.226
10
2406.937
20
996.968
10
2407.094
20
996.674
10
2407.191
20
996.356
10
2407.224
20
996.024
10
2407.191
20
995.692
10
2407.094
20
995.373
10
2406.937
20
995.079
10
2406.726
20
994.822
10
2406.468
20
994.610
10
2406.174
20
994.453
10
2405.856
20
994.357
10
2405.524
20
994.324
10
2405.192
20
994.357
10
2404.873
20
994.453
10
2404.579
20
994.610
10
2404.322
20
994.822
10
2404.110
20
995.079
10
2403.953
20
995.373
10
2403.857
20
995.692
10
2403.824
20
996.024
0
LWPOLYLINE
8
INTERIOR_PROFILES
90
33
70
1
10
1595.300
20
996.024
10
1595.333
20
996.356
10
1595.429
20
996.674
10
1595.587
20
996.968
10
1595.798
20
997.226
10
1596.056
20
997.437
10
1596.349
20
997.594
10
1596.668
20
997.691
10
1597.000
20
997.724
10
1597.332
20
997.691
10
1597.651
20
997.594
10
1597.944
20
997.437
10
1598.202
20
997.226
10
1598.413
20
996.968
10
1598.571
20
996.674
10
1598.667
20
996.356
10
1598.700
20
996.024
10
1598.667
20
995.692
10
1598.571
20
995.373
10
1598.413
20
995.079
10
1598.202
20
994.822
10
1597.944
20
994.610
10
1597.651
20
994.453
10
1597.332
20
994.357
10
1597.000
20
994.324
10
1596.668
20
994.357
10
1596.349
20
994.453
10
1596.056
20
994.610
10
1595.798
20
994.822
10
1595.587
20
995.079
10
1595.429
20
995.373
10
1595.333
20
995.692
10
1595.300
20
996.024
0
LWPOLYLINE
8
OUTER_PROFILES
90
21
70
1
10
2373.262
20
1067.262
10
2375.524
20
1067.262
10
2388.524
20
1067.262
10
2388.524
20
1122.262
10
2375.524
20
1122.262
10
2373.262
20
1122.262
10
2373.262
20
1124.524
10
2373.262
20
1137.524
10
1653.262
20
1137.524
10
1653.262
20
1124.524
10
1653.262
20
1122.262
10
1651.000
20
1122.262
10
1638.000
20
1122.262
10
1638.000
20
1067.262
10
1651.000
20
1067.262
10
1653.262
20
1067.262
10
1653.262
20
1065.000
10
1653.262
20
1052.000
10
2373.262
20
1052.000
10
2373.262
20
1065.000
10
2373.262
20
1067.262
0
ENDSEC
0
EOF