0
SECTION
2
HEADER
9
$INSUNITS
70
4
9
$ACADVER
1
AC1014
9
$HANDSEED
5
FFFF
0
ENDSEC
0
SECTION
2
TABLES
0
TABLE
2
VPORT
5
8
100
AcDbSymbolTable
0
ENDTAB
0
TABLE
2
LTYPE
5
5
100
AcDbSymbolTable
0
LTYPE
5
14
100
AcDbSymbolTableRecord
100
AcDbLinetypeTableRecord
2
BYBLOCK
70
0
0
LTYPE
5
15
100
AcDbSymbolTableRecord
100
AcDbLinetypeTableRecord
2
BYLAYER
70
0
0
LTYPE
5
16
100
AcDbSymbolTableRecord
100
AcDbLinetypeTableRecord
2
DASHED
70
0
3
Dashed __ __ __ __ __ __ __ __ __ __ __ __ __ _
72
65
73
2
40
0.75
49
0.5
74
0
49
-0.25
74
0
0
ENDTAB
0
TABLE
2
LAYER
5
2
100
AcDbSymbolTable
70
2
0
LAYER
5
50
100
AcDbSymbolTableRecord
100
AcDbLayerTableRecord
2
0
70
0
62
7
6
CONTINUOUS
0
ENDTAB
0
TABLE
2
STYLE
5
3
100
AcDbSymbolTable
70
1
0
STYLE
5
11
100
AcDbSymbolTableRecord
100
AcDbTextStyleTableRecord
2
STANDARD
70
0
0
ENDTAB
0
TABLE
2
VIEW
5
6
100
AcDbSymbolTable
70
0
0
ENDTAB
0
TABLE
2
UCS
5
7
100
AcDbSymbolTable
70
0
0
ENDTAB
0
TABLE
2
APPID
5
9
100
AcDbSymbolTable
70
2
0
APPID
5
12
100
AcDbSymbolTableRecord
100
AcDbRegAppTableRecord
2
ACAD
70
0
0
ENDTAB
0
TABLE
2
DIMSTYLE
5
A
100
AcDbSymbolTable
70
1
0
ENDTAB
0
TABLE
2
BLOCK_RECORD
5
1
100
AcDbSymbolTable
70
1
0
BLOCK_RECORD
5
1F
100
AcDbSymbolTableRecord
100
AcDbBlockTableRecord
2
*MODEL_SPACE
0
BLOCK_RECORD
5
1B
100
AcDbSymbolTableRecord
100
AcDbBlockTableRecord
2
*PAPER_SPACE
0
ENDTAB
0
ENDSEC
0
SECTION
2
BLOCKS
0
BLOCK
5
20
100
AcDbEntity
100
AcDbBlockBegin
2
*MODEL_SPACE
0
ENDBLK
5
21
100
AcDbEntity
100
AcDbBlockEnd
0
BLOCK
5
1C
100
AcDbEntity
100
AcDbBlockBegin
2
*PAPER_SPACE
0
ENDBLK
5
1D
100
AcDbEntity
100
AcDbBlockEnd
0
ENDSEC
0
SECTION
2
ENTITIES
0
ARC
5
100
100
AcDbEntity
8
OUTER_PROFILES
100
AcDbCircle
10
-0.54450000014213629
20
109.04764815569563
30
0
40
2.5444999999999931
210
-0
220
0
230
-1
100
AcDbArc
50
-77.373289040826847
51
0
0
ELLIPSE
5
101
100
AcDbEntity
8
OUTER_PROFILES
100
AcDbEllipse
10
-1.9999999995532391
20
90.785840118349768
30
0
11
1.2732291824553031e-10
21
16
31
0.0
40
0.75000000000000011
41
4.7123889803846879
42
6.1167279263178269
0
LINE
5
102
100
AcDbEntity
8
OUTER_PROFILES
100
AcDbLine
10
10.000000000446763
20
90.785840118254271
30
0
11
10.00000000000786
21
32.261946710588056
31
0
0
ELLIPSE
5
103
100
AcDbEntity
8
OUTER_PROFILES
100
AcDbEllipse
10
-1.9999999999921414
20
32.261946710584525
30
0
11
4.6975252143049385e-12
21
-16
31
0.0
40
0.75000000000000011
41
0.16645738089124595
42
1.570796326794897
0
ARC
5
104
100
AcDbEntity
8
OUTER_PROFILES
100
AcDbCircle
10
-0.54450000000784371
20
14.000138673318734
30
0
40
2.5445000000000002
210
0
220
0
230
-1
100
AcDbArc
50
0
51
77.373289039059614
0
LINE
5
105
100
AcDbEntity
8
OUTER_PROFILES
100
AcDbLine
10
-1.9999999999921565
20
14.000138673321075
30
0
11
-2.0000000000000715
21
2.0000000000000084
31
0
0
ARC
5
106
100
AcDbEntity
8
OUTER_PROFILES
100
AcDbCircle
10
7.1054273576010019e-14
20
2.0000000000000107
30
0
40
2.0000000000000004
210
0
220
-0
230
-1
100
AcDbArc
50
269.99999999999943
51
360
0
LINE
5
107
100
AcDbEntity
8
OUTER_PROFILES
100
AcDbLine
10
-5.134781488891349e-14
20
1.0269562977782698e-14
30
0
11
592.00000000000034
21
1.7763568394002505e-14
31
0
0
ARC
5
108
100
AcDbEntity
8
OUTER_PROFILES
100
AcDbCircle
10
-592.00000000000034
20
2.0000000000000107
30
0
40
2.0000000000000284
210
0
220
0
230
-1
100
AcDbArc
50
180
51
270
0
LINE
5
109
100
AcDbEntity
8
OUTER_PROFILES
100
AcDbLine
10
594.00000000000034
20
2.0000000000000275
30
0
11
594.00000000000807
21
14.000138673799704
31
0
0
ARC
5
110
100
AcDbEntity
8
OUTER_PROFILES
100
AcDbCircle
10
-591.4555000000081
20
14.000138673797364
30
0
40
2.5445000000000002
210
0
220
0
230
-1
100
AcDbArc
50
102.62671097158776
51
180
0
ELLIPSE
5
111
100
AcDbEntity
8
OUTER_PROFILES
100
AcDbEllipse
10
594.00000000215437
20
32.26194671058451
30
0
11
4.6984943657805565e-12
21
16
31
0.0
40
0.75000000000000011
41
1.5707963267951177
42
2.975135272556193
0
LINE
5
112
100
AcDbEntity
8
OUTER_PROFILES
100
AcDbLine
10
582.00000000215437
20
32.261946710584496
30
0
11
582.00000000259331
21
90.785840113874002
31
0
0
ELLIPSE
5
113
100
AcDbEntity
8
OUTER_PROFILES
100
AcDbEllipse
10
594.00000000259331
20
90.785840113781987
30
0
11
-1.1792689866544481e-10
21
-16
31
0.0
40
0.75000000000000011
41
3.3080500346529202
42
4.7123889803844667
0
ARC
5
114
100
AcDbEntity
8
OUTER_PROFILES
100
AcDbCircle
10
-591.45550000014202
20
109.04764815048678
30
0
40
2.5444999999999851
210
0
220
-0
230
-1
100
AcDbArc
50
180
51
257.37328902664149
0
LINE
5
115
100
AcDbEntity
8
OUTER_PROFILES
100
AcDbLine
10
594.00000000014199
20
109.04764815046479
30
0
11
594.00000000023374
21
121.04778682436665
31
0
0
ARC
5
116
100
AcDbEntity
8
OUTER_PROFILES
100
AcDbCircle
10
-592.00000000023397
20
121.04778682438197
30
0
40
1.9999999999999929
210
0
220
0
230
-1
100
AcDbArc
50
90.000000000439684
51
180
0
LINE
5
117
100
AcDbEntity
8
OUTER_PROFILES
100
AcDbLine
10
592.00000000024932
20
123.04778682438197
30
0
11
2.4954260879894719e-10
21
123.04778682891909
31
0
0
ARC
5
118
100
AcDbEntity
8
OUTER_PROFILES
100
AcDbCircle
10
-2.3412383143295301e-10
20
121.0477868289191
30
0
40
2
210
0
220
0
230
-1
100
AcDbArc
50
0
51
90.000000000441702
0
LINE
5
119
100
AcDbEntity
8
OUTER_PROFILES
100
AcDbLine
10
-1.9999999997658762
20
121.04778682893442
30
0
11
-1.9999999998578635
21
109.04764815571254
31
0
0
CIRCLE
5
120
100
AcDbEntity
8
INTERIOR_PROFILES
100
AcDbCircle
10
-346.000000001253
20
10.999999989351528
30
0
40
1.7000000000000171
210
0
220
0
230
-1
0
CIRCLE
5
121
100
AcDbEntity
8
INTERIOR_PROFILES
100
AcDbCircle
10
-396.00000000125306
20
10.99999998973475
30
0
40
1.7000000000000171
210
0
220
0
230
-1
0
CIRCLE
5
122
100
AcDbEntity
8
INTERIOR_PROFILES
100
AcDbCircle
10
-561.00000000000034
20
10.999999990686176
30
0
40
1.7000000000000171
210
0
220
0
230
-1
0
CIRCLE
5
123
100
AcDbEntity
8
INTERIOR_PROFILES
100
AcDbCircle
10
-296.000000001253
20
10.999999988968341
30
0
40
1.7000000000000171
210
0
220
0
230
-1
0
CIRCLE
5
124
100
AcDbEntity
8
INTERIOR_PROFILES
100
AcDbCircle
10
-96.000000002183867
20
10.999999987435531
30
0
40
1.6999999999999993
210
0
220
0
230
-1
0
CIRCLE
5
125
100
AcDbEntity
8
INTERIOR_PROFILES
100
AcDbCircle
10
-496.00000000218392
20
10.999999990501133
30
0
40
1.7000000000000171
210
0
220
0
230
-1
0
CIRCLE
5
126
100
AcDbEntity
8
INTERIOR_PROFILES
100
AcDbCircle
10
-546.00000000125294
20
10.999999990884346
30
0
40
1.7000000000000171
210
0
220
0
230
-1
0
CIRCLE
5
127
100
AcDbEntity
8
INTERIOR_PROFILES
100
AcDbCircle
10
-196.00000000125306
20
10.999999988201932
30
0
40
1.7000000000000171
210
0
220
0
230
-1
0
CIRCLE
5
128
100
AcDbEntity
8
INTERIOR_PROFILES
100
AcDbCircle
10
-77.000000004367593
20
10.999999989554912
30
0
40
1.6999999999999993
210
0
220
0
230
-1
0
CIRCLE
5
129
100
AcDbEntity
8
INTERIOR_PROFILES
100
AcDbCircle
10
-246.00000000125306
20
10.999999988585145
30
0
40
1.7000000000000171
210
0
220
0
230
-1
0
CIRCLE
5
130
100
AcDbEntity
8
INTERIOR_PROFILES
100
AcDbCircle
10
-31.000000004367507
20
10.999999989743898
30
0
40
1.6999999999999993
210
0
220
0
230
-1
0
CIRCLE
5
131
100
AcDbEntity
8
INTERIOR_PROFILES
100
AcDbCircle
10
-515.00000000000023
20
10.999999990333649
30
0
40
1.7000000000000171
210
0
220
0
230
-1
0
CIRCLE
5
132
100
AcDbEntity
8
INTERIOR_PROFILES
100
AcDbCircle
10
-587.00000000146918
20
10.999999991198202
30
0
40
1.7000000000000171
210
0
220
0
230
-1
0
CIRCLE
5
133
100
AcDbEntity
8
INTERIOR_PROFILES
100
AcDbCircle
10
-5.0000000007541701
20
10.999999986737761
30
0
40
1.7000000000000004
210
0
220
0
230
-1
0
CIRCLE
5
134
100
AcDbEntity
8
INTERIOR_PROFILES
100
AcDbCircle
10
-146.00000000218409
20
10.999999987818745
30
0
40
1.6999999999999993
210
0
220
0
230
-1
0
CIRCLE
5
135
100
AcDbEntity
8
INTERIOR_PROFILES
100
AcDbCircle
10
-529.37250000129575
20
61.523893430412528
30
0
40
1.7000000000000171
210
0
220
0
230
-1
0
CIRCLE
5
136
100
AcDbEntity
8
INTERIOR_PROFILES
100
AcDbCircle
10
-62.627500001295857
20
61.523893433989656
30
0
40
1.6999999999999993
210
0
220
0
230
-1
0
CIRCLE
5
137
100
AcDbEntity
8
INTERIOR_PROFILES
100
AcDbCircle
10
-40.000000001295888
20
61.523893434163092
30
0
40
1.6999999999999993
210
0
220
0
230
-1
0
CIRCLE
5
138
100
AcDbEntity
8
INTERIOR_PROFILES
100
AcDbCircle
10
-17.372500001295919
20
61.523893434336529
30
0
40
1.6999999999999993
210
0
220
0
230
-1
0
CIRCLE
5
139
100
AcDbEntity
8
INTERIOR_PROFILES
100
AcDbCircle
10
-40.000000001122444
20
38.896393434163073
30
0
40
1.6999999999999993
210
0
220
0
230
-1
0
CIRCLE
5
140
100
AcDbEntity
8
INTERIOR_PROFILES
100
AcDbCircle
10
-552.00000000112243
20
38.896393430239087
30
0
40
1.7000000000000171
210
0
220
0
230
-1
0
CIRCLE
5
141
100
AcDbEntity
8
INTERIOR_PROFILES
100
AcDbCircle
10
-71.000000001081105
20
26.261946710584532
30
0
40
1.6999999999999993
210
0
220
0
230
-1
0
CIRCLE
5
142
100
AcDbEntity
8
INTERIOR_PROFILES
100
AcDbCircle
10
-51.313750001145593
20
41.927903609944003
30
0
40
1.6999999999999993
210
0
220
0
230
-1
0
CIRCLE
5
143
100
AcDbEntity
8
INTERIOR_PROFILES
100
AcDbCircle
10
-540.68625000144596
20
81.119883254458188
30
0
40
1.7000000000000171
210
0
220
0
230
-1
0
CIRCLE
5
144
100
AcDbEntity
8
INTERIOR_PROFILES
100
AcDbCircle
10
-5.000000001173035
20
2.999999986737798
30
0
40
1.7000000000000004
210
0
220
0
230
-1
0
CIRCLE
5
145
100
AcDbEntity
8
INTERIOR_PROFILES
100
AcDbCircle
10
-521.00000000108116
20
26.261946710584503
30
0
40
1.6999999999999993
210
0
220
0
230
-1
0
CIRCLE
5
146
100
AcDbEntity
8
INTERIOR_PROFILES
100
AcDbCircle
10
-5.0000000017441693
20
120.04778680216103
30
0
40
1.7000000000000004
210
0
220
0
230
-1
0
CIRCLE
5
147
100
AcDbEntity
8
INTERIOR_PROFILES
100
AcDbCircle
10
-563.3137500014459
20
81.119883254284758
30
0
40
1.7000000000000171
210
0
220
0
230
-1
0
CIRCLE
5
148
100
AcDbEntity
8
INTERIOR_PROFILES
100
AcDbCircle
10
-563.31375000114565
20
41.927903606019996
30
0
40
1.7000000000000171
210
0
220
0
230
-1
0
CIRCLE
5
149
100
AcDbEntity
8
INTERIOR_PROFILES
100
AcDbCircle
10
-552.00000000146918
20
84.151393430239082
30
0
40
1.7000000000000171
210
0
220
0
230
-1
0
CIRCLE
5
150
100
AcDbEntity
8
INTERIOR_PROFILES
100
AcDbCircle
10
-318.62750000129569
20
61.52389343202767
30
0
40
1.6999999999999815
210
0
220
0
230
-1
0
CIRCLE
5
151
100
AcDbEntity
8
INTERIOR_PROFILES
100
AcDbCircle
10
-71.00000000156605
20
96.7858401177903
30
0
40
1.6999999999999993
210
0
220
0
230
-1
0
CIRCLE
5
152
100
AcDbEntity
8
INTERIOR_PROFILES
100
AcDbCircle
10
-296.00000000146918
20
84.151393432201104
30
0
40
1.7000000000000171
210
0
220
0
230
-1
0
CIRCLE
5
153
100
AcDbEntity
8
INTERIOR_PROFILES
100
AcDbCircle
10
-28.686250001445828
20
81.119883258382188
30
0
40
1.6999999999999993
210
0
220
0
230
-1
0
CIRCLE
5
154
100
AcDbEntity
8
INTERIOR_PROFILES
100
AcDbCircle
10
-540.68625000114571
20
41.927903606193439
30
0
40
1.7000000000000171
210
0
220
0
230
-1
0
CIRCLE
5
155
100
AcDbEntity
8
INTERIOR_PROFILES
100
AcDbCircle
10
-521.00000000156592
20
96.785840114341482
30
0
40
1.6999999999999993
210
0
220
0
230
-1
0
CIRCLE
5
156
100
AcDbEntity
8
INTERIOR_PROFILES
100
AcDbCircle
10
-51.313750001445939
20
81.119883258208745
30
0
40
1.6999999999999993
210
0
220
0
230
-1
0
CIRCLE
5
157
100
AcDbEntity
8
INTERIOR_PROFILES
100
AcDbCircle
10
-296.00000000108116
20
26.261946710584514
30
0
40
1.6999999999999993
210
0
220
0
230
-1
0
CIRCLE
5
158
100
AcDbEntity
8
INTERIOR_PROFILES
100
AcDbCircle
10
-28.686250001145623
20
41.927903610117426
30
0
40
1.6999999999999993
210
0
220
0
230
-1
0
CIRCLE
5
159
100
AcDbEntity
8
INTERIOR_PROFILES
100
AcDbCircle
10
-587.0000000017443
20
120.04778679770052
30
0
40
1.7000000000000171
210
0
220
0
230
-1
0
CIRCLE
5
160
100
AcDbEntity
8
INTERIOR_PROFILES
100
AcDbCircle
10
-587.00000000117302
20
2.9999999911982478
30
0
40
1.7000000000000171
210
0
220
0
230
-1
0
CIRCLE
5
161
100
AcDbEntity
8
INTERIOR_PROFILES
100
AcDbCircle
10
-574.62750000129586
20
61.523893430065655
30
0
40
1.7000000000000171
210
0
220
0
230
-1
0
CIRCLE
5
162
100
AcDbEntity
8
INTERIOR_PROFILES
100
AcDbCircle
10
-296.00000000156598
20
96.785840116065884
30
0
40
1.6999999999999993
210
0
220
0
230
-1
0
CIRCLE
5
163
100
AcDbEntity
8
INTERIOR_PROFILES
100
AcDbCircle
10
-446.00000000218404
20
10.999999990117946
30
0
40
1.7000000000000171
210
0
220
0
230
-1
0
CIRCLE
5
164
100
AcDbEntity
8
INTERIOR_PROFILES
100
AcDbCircle
10
-40.000000001469118
20
84.151393434163069
30
0
40
1.6999999999999993
210
0
220
0
230
-1
0
CIRCLE
5
165
100
AcDbEntity
8
INTERIOR_PROFILES
100
AcDbCircle
10
-307.31375000114559
20
41.927903607981989
30
0
40
1.7000000000000171
210
0
220
0
230
-1
0
CIRCLE
5
166
100
AcDbEntity
8
INTERIOR_PROFILES
100
AcDbCircle
10
-307.3137500014459
20
81.119883256246766
30
0
40
1.7000000000000171
210
0
220
0
230
-1
0
CIRCLE
5
167
100
AcDbEntity
8
INTERIOR_PROFILES
100
AcDbCircle
10
-273.37250000129575
20
61.523893432374514
30
0
40
1.7000000000000171
210
0
220
0
230
-1
0
CIRCLE
5
168
100
AcDbEntity
8
INTERIOR_PROFILES
100
AcDbCircle
10
-284.6862500014459
20
81.119883256420181
30
0
40
1.7000000000000171
210
0
220
0
230
-1
0
CIRCLE
5
169
100
AcDbEntity
8
INTERIOR_PROFILES
100
AcDbCircle
10
-284.68625000114559
20
41.927903608155439
30
0
40
1.7000000000000171
210
0
220
0
230
-1
0
CIRCLE
5
170
100
AcDbEntity
8
INTERIOR_PROFILES
100
AcDbCircle
10
-296.00000000112237
20
38.89639343220108
30
0
40
1.7000000000000171
210
0
220
0
230
-1
0
LINE
5
171
100
AcDbEntity
8
BEND
100
AcDbLine
10
-1.7349063199014836
20
107.91681347364008
30
-6.5780714209040525e-14
11
593.73490632050573
21
107.91681346907636
31
-6.6752159355587537e-14
0
LINE
5
172
100
AcDbEntity
8
BEND
100
AcDbLine
10
593.73490632033099
20
15.130973355292268
30
-2.2643097119523503e-09
11
-1.7349063200765613
21
15.130973355292268
31
2.2644457142728669e-09
0
LINE
5
173
100
AcDbEntity
8
BEND
100
AcDbLine
10
582.00000000213481
20
33.392920065878101
30
-4.8988590961585032e-14
11
10.000000000000213
21
33.392920065878108
31
-5.9535709695524019e-14
0
LINE
5
174
100
AcDbEntity
8
BEND
100
AcDbLine
10
10.000000000438121
20
89.654866762962996
30
-5.6482596377804839e-14
11
582.00000000258467
21
89.654866758579161
31
-5.3151927303929369e-14
0
LINE
5
175
100
AcDbEntity
8
BEND_EXTENT
100
AcDbLine
10
592.62113487228055
20
106.78584011379256
30
-4.4408920985006262e-15
11
-0.62113487071144391
21
106.78584011833919
31
-1.7763568394002505e-14
0
LINE
5
176
100
AcDbEntity
8
BEND_EXTENT
100
AcDbLine
10
-1.9999999998577778
20
109.04778682893443
30
-1.3322676295501878e-14
11
594.00000000014177
21
109.04778682436664
31
-8.8817841970012523e-15
0
LINE
5
177
100
AcDbEntity
8
BEND_EXTENT
100
AcDbLine
10
10.000000000446789
20
90.785840118254271
30
-5.3290705182007514e-14
11
582.00000000259331
21
90.785840113873974
31
-5.7870375158586285e-14
0
LINE
5
178
100
AcDbEntity
8
BEND_EXTENT
100
AcDbLine
10
582.00000000257603
20
88.523893403289435
30
-5.3429483060085659e-14
11
10.000000000429594
21
88.523893407673285
31
-6.2172489379008766e-14
0
LINE
5
179
100
AcDbEntity
8
BEND_EXTENT
100
AcDbLine
10
10.000000000015703
20
34.523893421169163
30
-5.773159728050814e-14
11
582.0000000021621
21
34.523893421169156
31
-4.8988590961585032e-14
0
LINE
5
180
100
AcDbEntity
8
BEND_EXTENT
100
AcDbLine
10
582.00000000215448
20
32.26194671058451
30
-5.7870375158586285e-14
11
10.000000000007887
21
32.261946710588056
31
-6.2172489379008766e-14
0
LINE
5
181
100
AcDbEntity
8
BEND_EXTENT
100
AcDbLine
10
-0.62113487102166687
20
16.261946710584503
30
-6.2172489379008766e-14
11
592.62113487197053
21
16.261946710584503
31
-5.773159728050814e-14
0
LINE
5
182
100
AcDbEntity
8
BEND_EXTENT
100
AcDbLine
10
594.00000000000023
20
13.999999999999995
30
-1.1102230246251565e-14
11
-1.9999999999998863
21
13.999999999999995
31
-1.7763568394002505e-14
0
ENDSEC
0
SECTION
2
OBJECTS
0
DICTIONARY
5
C
100
AcDbDictionary
3
ACAD_GROUP
350
D
3
ACAD_MLINESTYLE
350
17
0
DICTIONARY
5
D
100
AcDbDictionary
0
DICTIONARY
5
1A
330
C
100
AcDbDictionary
0
DICTIONARY
5
17
100
AcDbDictionary
0
ENDSEC
0
EOF
