0
SECTION
2
HEADER
9
$INSUNITS
70
4
9
$ACADVER
1
AC1014
9
$HANDSEED
5
FFFF
0
ENDSEC
0
SECTION
2
TABLES
0
TABLE
2
VPORT
5
8
100
AcDbSymbolTable
0
ENDTAB
0
TABLE
2
LTYPE
5
5
100
AcDbSymbolTable
0
LTYPE
5
14
100
AcDbSymbolTableRecord
100
AcDbLinetypeTableRecord
2
BYBLOCK
70
0
0
LTYPE
5
15
100
AcDbSymbolTableRecord
100
AcDbLinetypeTableRecord
2
BYLAYER
70
0
0
LTYPE
5
16
100
AcDbSymbolTableRecord
100
AcDbLinetypeTableRecord
2
DASHED
70
0
3
Dashed __ __ __ __ __ __ __ __ __ __ __ __ __ _
72
65
73
2
40
0.75
49
0.5
74
0
49
-0.25
74
0
0
ENDTAB
0
TABLE
2
LAYER
5
2
100
AcDbSymbolTable
70
2
0
LAYER
5
50
100
AcDbSymbolTableRecord
100
AcDbLayerTableRecord
2
0
70
0
62
7
6
CONTINUOUS
0
ENDTAB
0
TABLE
2
STYLE
5
3
100
AcDbSymbolTable
70
1
0
STYLE
5
11
100
AcDbSymbolTableRecord
100
AcDbTextStyleTableRecord
2
STANDARD
70
0
0
ENDTAB
0
TABLE
2
VIEW
5
6
100
AcDbSymbolTable
70
0
0
ENDTAB
0
TABLE
2
UCS
5
7
100
AcDbSymbolTable
70
0
0
ENDTAB
0
TABLE
2
APPID
5
9
100
AcDbSymbolTable
70
2
0
APPID
5
12
100
AcDbSymbolTableRecord
100
AcDbRegAppTableRecord
2
ACAD
70
0
0
ENDTAB
0
TABLE
2
DIMSTYLE
5
A
100
AcDbSymbolTable
70
1
0
ENDTAB
0
TABLE
2
BLOCK_RECORD
5
1
100
AcDbSymbolTable
70
1
0
BLOCK_RECORD
5
1F
100
AcDbSymbolTableRecord
100
AcDbBlockTableRecord
2
*MODEL_SPACE
0
BLOCK_RECORD
5
1B
100
AcDbSymbolTableRecord
100
AcDbBlockTableRecord
2
*PAPER_SPACE
0
ENDTAB
0
ENDSEC
0
SECTION
2
BLOCKS
0
BLOCK
5
20
100
AcDbEntity
100
AcDbBlockBegin
2
*MODEL_SPACE
0
ENDBLK
5
21
100
AcDbEntity
100
AcDbBlockEnd
0
BLOCK
5
1C
100
AcDbEntity
100
AcDbBlockBegin
2
*PAPER_SPACE
0
ENDBLK
5
1D
100
AcDbEntity
100
AcDbBlockEnd
0
ENDSEC
0
SECTION
2
ENTITIES
0
LWPOLYLINE
5
100
100
AcDbEntity
8
OUTER_PROFILES
100
AcDbPolyline
90
36
70
1
43
0.0
10
5.4238665741089793
20
5.4238665741091774
42
0.41421356237308354
10
5.4238665741090051
20
6.8380801364822439
10
-0.070710678113670156
20
12.332657388704803
10
-0.070710678113670156
20
16.191236032468073
10
5.4238665741104342
20
21.685813284692152
42
0.41421356237309986
10
5.4238665741105487
20
23.100026847065166
10
-0.07071067811324383
20
28.594604099289143
10
-16.332657388698095
20
28.594604099289253
10
-16.332657388698237
20
412.45318274305083
10
-0.070710678113101721
20
412.45318274305077
10
5.4238665741114289
20
417.94775999527536
42
0.41421356237307777
10
5.4238665741114414
20
419.36197355764847
10
-0.070710678112959613
20
424.85655080987277
10
-0.070710678112959613
20
428.71512945363543
10
5.4238665741108605
20
434.20970670585945
42
0.41421356237306145
10
5.423866574110809
20
435.62392026823238
10
4.2632564145606011e-12
20
441.04778684233912
10
758.38247206493861
20
441.04778684233952
10
752.95860549083181
20
435.62392026823284
42
0.41421356237306561
10
752.95860549083181
20
434.20970670585979
10
758.45318274305578
20
428.71512945363583
10
758.45318274305578
20
424.85655080987272
10
752.95860549083147
20
419.36197355764841
42
0.41421356237306561
10
752.95860549083147
20
417.94775999527536
10
758.453182743056
20
412.45318274305077
10
774.71512945364088
20
412.45318274305066
10
774.71512945364066
20
28.594604099288148
10
758.453182743056
20
28.594604099288272
10
752.95860549082988
20
23.100026847062178
42
0.4142135623730766
10
752.95860549082988
20
21.685813284689104
10
758.45318274305646
20
16.191236032462612
10
758.45318274305623
20
12.332657388699639
10
752.95860549083432
20
6.8380801364774868
42
0.41421356237307616
10
752.95860549083432
20
5.4238665741044141
10
758.38247206493872
20
-1.5543122344752192e-13
10
0
20
0
0
CIRCLE
5
101
100
AcDbEntity
8
INTERIOR_PROFILES
100
AcDbCircle
10
-429.19123603247181
20
62.523893421163841
30
0
40
2.1169999999999956
210
0
220
0
230
-1
0
CIRCLE
5
102
100
AcDbEntity
8
INTERIOR_PROFILES
100
AcDbCircle
10
-679.19123603247203
20
382.52389342116362
30
0
40
2.1170000000000044
210
0
220
0
230
-1
0
CIRCLE
5
103
100
AcDbEntity
8
INTERIOR_PROFILES
100
AcDbCircle
10
-79.191236032471863
20
62.523893421164054
30
0
40
2.1169999999999956
210
0
220
0
230
-1
0
CIRCLE
5
104
100
AcDbEntity
8
INTERIOR_PROFILES
100
AcDbCircle
10
-229.19123603247181
20
62.523893421163962
30
0
40
2.1169999999999956
210
0
220
0
230
-1
0
CIRCLE
5
105
100
AcDbEntity
8
INTERIOR_PROFILES
100
AcDbCircle
10
-179.19123603247181
20
62.52389342116399
30
0
40
2.1169999999999956
210
0
220
0
230
-1
0
CIRCLE
5
106
100
AcDbEntity
8
INTERIOR_PROFILES
100
AcDbCircle
10
-129.19123603247181
20
62.523893421164018
30
0
40
2.1169999999999956
210
0
220
0
230
-1
0
CIRCLE
5
107
100
AcDbEntity
8
INTERIOR_PROFILES
100
AcDbCircle
10
-479.19123603247203
20
382.52389342116379
30
0
40
2.1170000000000044
210
0
220
0
230
-1
0
CIRCLE
5
108
100
AcDbEntity
8
INTERIOR_PROFILES
100
AcDbCircle
10
-579.19123603247203
20
382.52389342116373
30
0
40
2.1170000000000044
210
0
220
0
230
-1
0
CIRCLE
5
109
100
AcDbEntity
8
INTERIOR_PROFILES
100
AcDbCircle
10
-329.19123603247181
20
62.523893421163891
30
0
40
2.1169999999999956
210
0
220
0
230
-1
0
CIRCLE
5
110
100
AcDbEntity
8
INTERIOR_PROFILES
100
AcDbCircle
10
-129.19123603247201
20
382.52389342116402
30
0
40
2.1170000000000044
210
0
220
0
230
-1
0
CIRCLE
5
111
100
AcDbEntity
8
INTERIOR_PROFILES
100
AcDbCircle
10
-379.19123603247181
20
62.523893421163869
30
0
40
2.1169999999999956
210
0
220
0
230
-1
0
CIRCLE
5
112
100
AcDbEntity
8
INTERIOR_PROFILES
100
AcDbCircle
10
2.070710678114267
20
397.27389342116192
30
0
40
6.5000000000000107
210
0
220
0
230
-1
0
CIRCLE
5
113
100
AcDbEntity
8
INTERIOR_PROFILES
100
AcDbCircle
10
-479.19123603247181
20
62.523893421163805
30
0
40
2.1169999999999956
210
0
220
0
230
-1
0
CIRCLE
5
114
100
AcDbEntity
8
INTERIOR_PROFILES
100
AcDbCircle
10
-279.19123603247181
20
62.523893421163933
30
0
40
2.1169999999999956
210
0
220
0
230
-1
0
CIRCLE
5
115
100
AcDbEntity
8
INTERIOR_PROFILES
100
AcDbCircle
10
-529.19123603247169
20
62.523893421163777
30
0
40
2.1169999999999956
210
0
220
0
230
-1
0
CIRCLE
5
116
100
AcDbEntity
8
INTERIOR_PROFILES
100
AcDbCircle
10
-379.19123603247203
20
382.52389342116379
30
0
40
2.1170000000000044
210
0
220
0
230
-1
0
CIRCLE
5
117
100
AcDbEntity
8
INTERIOR_PROFILES
100
AcDbCircle
10
-529.19123603247203
20
382.52389342116373
30
0
40
2.1170000000000044
210
0
220
0
230
-1
0
CIRCLE
5
118
100
AcDbEntity
8
INTERIOR_PROFILES
100
AcDbCircle
10
-629.19123603247169
20
62.52389342116372
30
0
40
2.1169999999999956
210
0
220
0
230
-1
0
CIRCLE
5
119
100
AcDbEntity
8
INTERIOR_PROFILES
100
AcDbCircle
10
2.0707106781165407
20
53.523893421161937
30
0
40
1.7000000000000082
210
0
220
0
230
-1
0
CIRCLE
5
120
100
AcDbEntity
8
INTERIOR_PROFILES
100
AcDbCircle
10
2.0707106781144091
20
34.023893421158959
30
0
40
1.6999999999999915
210
0
220
0
230
-1
0
CIRCLE
5
121
100
AcDbEntity
8
INTERIOR_PROFILES
100
AcDbCircle
10
2.0707106781141249
20
407.02389342116192
30
0
40
1.6999999999999915
210
0
220
0
230
-1
0
CIRCLE
5
122
100
AcDbEntity
8
INTERIOR_PROFILES
100
AcDbCircle
10
2.0707106781163986
20
387.52389342116197
30
0
40
1.7000000000000082
210
0
220
0
230
-1
0
CIRCLE
5
123
100
AcDbEntity
8
INTERIOR_PROFILES
100
AcDbCircle
10
-79.191236032472148
20
382.52389342116402
30
0
40
2.1170000000000044
210
0
220
0
230
-1
0
CIRCLE
5
124
100
AcDbEntity
8
INTERIOR_PROFILES
100
AcDbCircle
10
-429.19123603247192
20
382.52389342116379
30
0
40
2.1170000000000044
210
0
220
0
230
-1
0
CIRCLE
5
125
100
AcDbEntity
8
INTERIOR_PROFILES
100
AcDbCircle
10
-629.19123603247192
20
382.52389342116362
30
0
40
2.1170000000000044
210
0
220
0
230
-1
0
CIRCLE
5
126
100
AcDbEntity
8
INTERIOR_PROFILES
100
AcDbCircle
10
2.0707106781165407
20
220.52389342116192
30
0
40
1.7000000000000082
210
0
220
0
230
-1
0
CIRCLE
5
127
100
AcDbEntity
8
INTERIOR_PROFILES
100
AcDbCircle
10
-329.19123603247203
20
382.52389342116385
30
0
40
2.1170000000000044
210
0
220
0
230
-1
0
CIRCLE
5
128
100
AcDbEntity
8
INTERIOR_PROFILES
100
AcDbCircle
10
-229.19123603247201
20
382.52389342116396
30
0
40
2.1170000000000044
210
0
220
0
230
-1
0
CIRCLE
5
129
100
AcDbEntity
8
INTERIOR_PROFILES
100
AcDbCircle
10
-379.19123603247203
20
410.52389342116379
30
0
40
1.7000000000000171
210
0
220
0
230
-1
0
CIRCLE
5
130
100
AcDbEntity
8
INTERIOR_PROFILES
100
AcDbCircle
10
-79.191236032470727
20
14.261946710586656
30
0
40
1.6999999999999993
210
0
220
0
230
-1
0
CIRCLE
5
131
100
AcDbEntity
8
INTERIOR_PROFILES
100
AcDbCircle
10
-479.19123603247073
20
14.261946710586283
30
0
40
1.7000000000000171
210
0
220
0
230
-1
0
CIRCLE
5
132
100
AcDbEntity
8
INTERIOR_PROFILES
100
AcDbCircle
10
-679.19123603247181
20
410.52389342116862
30
0
40
1.7000000000000171
210
0
220
0
230
-1
0
CIRCLE
5
133
100
AcDbEntity
8
INTERIOR_PROFILES
100
AcDbCircle
10
-679.19123603247169
20
62.523893421163677
30
0
40
2.1169999999999956
210
0
220
0
230
-1
0
CIRCLE
5
134
100
AcDbEntity
8
INTERIOR_PROFILES
100
AcDbCircle
10
-60.191236032471096
20
14.261946710585608
30
0
40
1.6999999999999993
210
0
220
0
230
-1
0
CIRCLE
5
135
100
AcDbEntity
8
INTERIOR_PROFILES
100
AcDbCircle
10
-760.45318274306123
20
34.02389342115876
30
0
40
1.7000000000000171
210
0
220
0
230
-1
0
CIRCLE
5
136
100
AcDbEntity
8
INTERIOR_PROFILES
100
AcDbCircle
10
-14.191236032471153
20
14.261946710585654
30
0
40
1.6999999999999993
210
0
220
0
230
-1
0
CIRCLE
5
137
100
AcDbEntity
8
INTERIOR_PROFILES
100
AcDbCircle
10
-744.19123603247169
20
14.261946710584986
30
0
40
1.7000000000000171
210
0
220
0
230
-1
0
CIRCLE
5
138
100
AcDbEntity
8
INTERIOR_PROFILES
100
AcDbCircle
10
-395.19123603247101
20
382.52389342116936
30
0
40
1.7000000000000171
210
0
220
0
230
-1
0
CIRCLE
5
139
100
AcDbEntity
8
INTERIOR_PROFILES
100
AcDbCircle
10
-31.191236032470187
20
30.523893421160466
30
0
40
1.6999999999999993
210
0
220
0
230
-1
0
CIRCLE
5
140
100
AcDbEntity
8
INTERIOR_PROFILES
100
AcDbCircle
10
-363.19123603247101
20
382.52389342116936
30
0
40
1.7000000000000171
210
0
220
0
230
-1
0
CIRCLE
5
141
100
AcDbEntity
8
INTERIOR_PROFILES
100
AcDbCircle
10
-379.19123603247073
20
14.261946710586377
30
0
40
1.7000000000000171
210
0
220
0
230
-1
0
CIRCLE
5
142
100
AcDbEntity
8
INTERIOR_PROFILES
100
AcDbCircle
10
-695.19123603247181
20
382.5238934211668
30
0
40
1.7000000000000171
210
0
220
0
230
-1
0
CIRCLE
5
143
100
AcDbEntity
8
INTERIOR_PROFILES
100
AcDbCircle
10
-760.45318274306339
20
53.523893421161745
30
0
40
1.7000000000000171
210
0
220
0
230
-1
0
CIRCLE
5
144
100
AcDbEntity
8
INTERIOR_PROFILES
100
AcDbCircle
10
-760.45318274306123
20
407.02389342116169
30
0
40
1.7000000000000171
210
0
220
0
230
-1
0
CIRCLE
5
145
100
AcDbEntity
8
INTERIOR_PROFILES
100
AcDbCircle
10
-760.45318274306339
20
220.52389342116174
30
0
40
1.7000000000000171
210
0
220
0
230
-1
0
CIRCLE
5
146
100
AcDbEntity
8
INTERIOR_PROFILES
100
AcDbCircle
10
-747.19123603247135
20
30.523893421159997
30
0
40
1.6999999999999993
210
0
220
0
230
-1
0
CIRCLE
5
147
100
AcDbEntity
8
INTERIOR_PROFILES
100
AcDbCircle
10
-663.19123603247181
20
382.52389342115907
30
0
40
1.7000000000000171
210
0
220
0
230
-1
0
CIRCLE
5
148
100
AcDbEntity
8
INTERIOR_PROFILES
100
AcDbCircle
10
-579.19123603247169
20
62.523893421163748
30
0
40
2.1169999999999956
210
0
220
0
230
-1
0
CIRCLE
5
149
100
AcDbEntity
8
INTERIOR_PROFILES
100
AcDbCircle
10
-179.19123603247201
20
382.52389342116396
30
0
40
2.1170000000000044
210
0
220
0
230
-1
0
CIRCLE
5
150
100
AcDbEntity
8
INTERIOR_PROFILES
100
AcDbCircle
10
-279.19123603247203
20
382.52389342116385
30
0
40
2.1170000000000044
210
0
220
0
230
-1
0
CIRCLE
5
151
100
AcDbEntity
8
INTERIOR_PROFILES
100
AcDbCircle
10
-79.191236032471863
20
410.52389342116896
30
0
40
1.7000000000000171
210
0
220
0
230
-1
0
CIRCLE
5
152
100
AcDbEntity
8
INTERIOR_PROFILES
100
AcDbCircle
10
-679.19123603247169
20
55.523893421169461
30
0
40
1.6999999999999993
210
0
220
0
230
-1
0
CIRCLE
5
153
100
AcDbEntity
8
INTERIOR_PROFILES
100
AcDbCircle
10
-79.191236032469874
20
55.523893421164075
30
0
40
1.6999999999999993
210
0
220
0
230
-1
0
CIRCLE
5
154
100
AcDbEntity
8
INTERIOR_PROFILES
100
AcDbCircle
10
-63.19123603247192
20
382.5238934211593
30
0
40
1.7000000000000171
210
0
220
0
230
-1
0
CIRCLE
5
155
100
AcDbEntity
8
INTERIOR_PROFILES
100
AcDbCircle
10
-727.19123603247135
20
30.523893421160004
30
0
40
1.6999999999999993
210
0
220
0
230
-1
0
CIRCLE
5
156
100
AcDbEntity
8
INTERIOR_PROFILES
100
AcDbCircle
10
-379.19123603247078
20
55.523893421169326
30
0
40
1.6999999999999993
210
0
220
0
230
-1
0
CIRCLE
5
157
100
AcDbEntity
8
INTERIOR_PROFILES
100
AcDbCircle
10
-760.45318274306146
20
397.27389342116169
30
0
40
6.5000000000000568
210
0
220
0
230
-1
0
CIRCLE
5
158
100
AcDbEntity
8
INTERIOR_PROFILES
100
AcDbCircle
10
-760.45318274306351
20
387.52389342116174
30
0
40
1.7000000000000171
210
0
220
0
230
-1
0
CIRCLE
5
159
100
AcDbEntity
8
INTERIOR_PROFILES
100
AcDbCircle
10
-11.191236032470187
20
30.523893421160473
30
0
40
1.6999999999999993
210
0
220
0
230
-1
0
CIRCLE
5
160
100
AcDbEntity
8
INTERIOR_PROFILES
100
AcDbCircle
10
-95.191236032471949
20
382.52389342116714
30
0
40
1.7000000000000171
210
0
220
0
230
-1
0
CIRCLE
5
161
100
AcDbEntity
8
INTERIOR_PROFILES
100
AcDbCircle
10
-679.19123603247067
20
14.261946710586098
30
0
40
1.7000000000000171
210
0
220
0
230
-1
0
CIRCLE
5
162
100
AcDbEntity
8
INTERIOR_PROFILES
100
AcDbCircle
10
-279.19123603247073
20
14.261946710586471
30
0
40
1.7000000000000171
210
0
220
0
230
-1
0
CIRCLE
5
163
100
AcDbEntity
8
INTERIOR_PROFILES
100
AcDbCircle
10
-698.19123603247158
20
14.261946710585029
30
0
40
1.7000000000000171
210
0
220
0
230
-1
0
LINE
5
164
100
AcDbEntity
8
BEND
100
AcDbLine
10
6.0602626771790824
20
441.04778684233918
30
-6.1012283568533369e-11
11
6.0602626771790824
21
434.91681348704645
31
-5.8661874858482694e-11
0
LINE
5
165
100
AcDbEntity
8
BEND
100
AcDbLine
10
6.0602626771790824
20
434.91681348704645
30
-5.8661874858482694e-11
11
6.0602626771795087
21
418.65486677646197
31
-5.436549674113627e-11
0
LINE
5
166
100
AcDbEntity
8
BEND
100
AcDbLine
10
6.0602626771795087
20
418.65486677646197
30
-5.436549674113627e-11
11
6.0602626771787982
21
22.392920065877888
31
5.4848838521786614e-13
0
LINE
5
167
100
AcDbEntity
8
BEND
100
AcDbLine
10
6.0602626771787982
20
22.392920065877888
30
5.4848838521786614e-13
11
6.0602626771792245
21
6.130973355292797
31
6.0456059258248843e-13
0
LINE
5
168
100
AcDbEntity
8
BEND
100
AcDbLine
10
6.0602626771792245
20
6.130973355292797
30
6.0456059258248843e-13
11
6.0602626771792245
21
1.0658141036401503e-13
31
1.3916344128077091e-14
0
LINE
5
169
100
AcDbEntity
8
BEND
100
AcDbLine
10
752.32220938776379
20
434.9168134870468
30
-5.8372745408462306e-11
11
752.32220938776379
21
441.04778684233952
31
-6.0440913210891329e-11
0
LINE
5
170
100
AcDbEntity
8
BEND
100
AcDbLine
10
752.32220938776391
20
418.65486677646186
30
-5.3743553817423529e-11
11
752.32220938776379
21
434.9168134870468
31
-5.8372745408462306e-11
0
LINE
5
171
100
AcDbEntity
8
BEND
100
AcDbLine
10
752.32220938776391
20
22.392920065877199
30
1.100587039353222e-12
11
752.32220938776391
21
418.65486677646186
31
-5.3743553817423529e-11
0
LINE
5
172
100
AcDbEntity
8
BEND
100
AcDbLine
10
752.32220938776413
20
6.1309733552925589
30
1.1566592467177821e-12
11
752.32220938776391
21
22.392920065877199
31
1.100587039353222e-12
0
LINE
5
173
100
AcDbEntity
8
BEND
100
AcDbLine
10
752.32220938776413
20
-1.1990408665951691e-13
30
3.3627743187802829e-13
11
752.32220938776413
21
6.1309733552925589
31
1.1566592467177821e-12
0
LINE
5
174
100
AcDbEntity
8
BEND
100
AcDbLine
10
768.58415609834833
20
28.594604099288272
30
9.1288834216575567e-13
11
768.58415609834856
21
412.45318274305066
31
-5.2040704390905745e-11
0
LINE
5
175
100
AcDbEntity
8
BEND
100
AcDbLine
10
752.66571227201803
20
434.9168134870468
30
-5.8109522074439181e-11
11
5.7167597929247904
21
434.91681348704645
31
-5.8681805109145758e-11
0
LINE
5
176
100
AcDbEntity
8
BEND
100
AcDbLine
10
-10.201684033405627
20
412.45318274305072
30
-5.5205568663466379e-11
11
-10.201684033405769
21
28.594604099289285
31
-2.2859748040089023e-12
0
LINE
5
177
100
AcDbEntity
8
BEND
100
AcDbLine
10
5.7167597929239378
20
6.130973355292797
30
7.2972269235418925e-13
11
752.66571227201871
21
6.1309733552925589
31
1.5458289893911341e-12
0
LINE
5
178
100
AcDbEntity
8
BEND
100
AcDbLine
10
752.66571227201803
20
418.65486677646186
30
-5.3813143957092699e-11
11
5.7167597929245062
21
418.65486677646197
31
-5.4170792962223008e-11
0
LINE
5
179
100
AcDbEntity
8
BEND
100
AcDbLine
10
5.7167597929245062
20
22.392920065877895
30
6.0238211844841624e-13
11
752.66571227201825
21
22.392920065877199
31
1.2569325869176865e-12
0
LINE
5
180
100
AcDbEntity
8
BEND_EXTENT
100
AcDbLine
10
-11.332657388698095
20
28.594604099289253
30
-2.4405382194262929e-12
11
-11.332657388697953
21
412.45318274305066
31
-5.525714393085144e-11
0
LINE
5
181
100
AcDbEntity
8
BEND_EXTENT
100
AcDbLine
10
-9.0707106781131586
20
412.45318274305077
30
-5.5102259722642264e-11
11
-9.0707106781133007
21
28.594604099289143
31
-2.1169001114740651e-12
0
LINE
5
182
100
AcDbEntity
8
BEND_EXTENT
100
AcDbLine
10
769.71512945364066
20
412.45318274305066
30
-5.1959263646192281e-11
11
769.71512945364066
21
28.59460409928829
31
9.0619187831650763e-13
0
LINE
5
183
100
AcDbEntity
8
BEND_EXTENT
100
AcDbLine
10
767.45318274305589
20
28.594604099288272
30
1.0155407499681097e-12
11
767.453182743056
21
412.45318274305077
31
-5.2111927408352233e-11
0
LINE
5
184
100
AcDbEntity
8
BEND_EXTENT
100
AcDbLine
10
4.9292893218867562
20
23.594604099289072
30
3.6183296009854567e-13
11
4.9292893218868983
21
417.45318274305134
31
-5.4007564187654923e-11
0
LINE
5
185
100
AcDbEntity
8
BEND_EXTENT
100
AcDbLine
10
753.453182743056
20
417.45318274305066
30
-5.345379210270865e-11
11
753.453182743056
21
23.594604099288219
31
1.0577135921968587e-12
0
LINE
5
186
100
AcDbEntity
8
BEND_EXTENT
100
AcDbLine
10
753.45318274305578
20
433.71512945363577
30
-5.7836134776528733e-11
11
753.453182743056
21
419.85655080987272
31
-5.4141698632459897e-11
0
LWPOLYLINE
5
187
100
AcDbEntity
8
BEND_EXTENT
100
AcDbPolyline
90
4
70
1
43
0.0
10
751.19123603247147
20
419.78584013175407
10
751.19123603247135
20
433.7858401317547
10
7.1912360324719771
20
433.78584013175413
10
7.1912360324715507
20
419.78584013175413
0
LWPOLYLINE
5
188
100
AcDbEntity
8
BEND_EXTENT
100
AcDbPolyline
90
4
70
1
43
0.0
10
751.19123603247158
20
23.523893421169383
10
751.19123603247147
20
417.52389342116953
10
7.1912360324716929
20
417.52389342116965
10
7.1912360324714086
20
23.523893421170143
0
LINE
5
189
100
AcDbEntity
8
BEND_EXTENT
100
AcDbLine
10
753.45318274305623
20
4.9292893218816625
30
8.6994655114335068e-13
11
753.45318274305623
21
-1.1990408665951691e-13
31
3.442560453684728e-13
0
LINE
5
190
100
AcDbEntity
8
BEND_EXTENT
100
AcDbLine
10
751.19123603247158
20
-1.1990408665951691e-13
30
2.6930789493229634e-13
11
751.19123603247158
21
5.0000000000000933
31
9.1843854038686361e-13
0
LINE
5
191
100
AcDbEntity
8
BEND_EXTENT
100
AcDbLine
10
751.19123603247158
20
5.0000000000000933
30
9.1843854038686361e-13
11
7.1912360324711244
21
5.0000000000002824
31
4.3906759063850196e-13
0
LINE
5
192
100
AcDbEntity
8
BEND_EXTENT
100
AcDbLine
10
7.1912360324711244
20
5.0000000000002824
30
4.3906759063850196e-13
11
7.1912360324709823
21
-3.5527136788005009e-14
31
-1.7453591802804566e-13
0
LINE
5
193
100
AcDbEntity
8
BEND_EXTENT
100
AcDbLine
10
4.9292893218863298
20
7.3326573887037716
30
4.8091921935804741e-13
11
4.929289321886472
21
21.191236032467025
31
5.5235957481771365e-13
0
LWPOLYLINE
5
194
100
AcDbEntity
8
BEND_EXTENT
100
AcDbPolyline
90
4
70
1
43
0.0
10
7.1912360324715507
20
21.261946710585736
10
7.1912360324709823
20
7.2619467105852076
10
751.19123603247158
20
7.2619467105850077
10
751.19123603247158
20
21.261946710584944
0
LINE
5
195
100
AcDbEntity
8
BEND_EXTENT
100
AcDbLine
10
4.9292893218870404
20
419.85655080987283
30
-5.4695470717406092e-11
11
4.9292893218870404
21
433.71512945363554
31
-5.8318852587898867e-11
0
LINE
5
196
100
AcDbEntity
8
BEND_EXTENT
100
AcDbLine
10
4.9292893218868983
20
436.11849752045748
30
-5.9148867664802108e-11
11
4.9292893218867562
21
441.04778684233929
31
-6.1039022460611577e-11
0
LINE
5
197
100
AcDbEntity
8
BEND_EXTENT
100
AcDbLine
10
7.1912360324714086
20
441.04778684233912
30
-6.1059553490293137e-11
11
7.1912360324719771
21
436.04778684233895
31
-5.9159612071208361e-11
0
LINE
5
198
100
AcDbEntity
8
BEND_EXTENT
100
AcDbLine
10
7.1912360324719771
20
436.04778684233895
30
-5.9159612071208361e-11
11
751.19123603247135
21
436.04778684233929
31
-5.8609186847884052e-11
0
LINE
5
199
100
AcDbEntity
8
BEND_EXTENT
100
AcDbLine
10
751.19123603247135
20
436.04778684233929
30
-5.8609186847884052e-11
11
751.19123603247135
21
441.04778684233952
31
-6.0509128266968853e-11
0
LINE
5
200
100
AcDbEntity
8
BEND_EXTENT
100
AcDbLine
10
4.9292893218863298
20
1.0658141036401503e-13
30
3.6467811502943929e-15
11
4.9292893218861877
21
4.9292893218820666
31
5.2933728692514834e-13
0
LINE
5
201
100
AcDbEntity
8
BEND_EXTENT
100
AcDbLine
10
753.45318274305623
20
21.1912360324662
30
1.0350773861879948e-12
11
753.45318274305646
21
7.3326573887031321
31
1.5320712193363831e-12
0
LINE
5
202
100
AcDbEntity
8
BEND_EXTENT
100
AcDbLine
10
753.45318274305612
20
441.04778684233952
30
-6.048525037566542e-11
11
753.453182743056
21
436.11849752045771
31
-5.8595095579855964e-11
0
ENDSEC
0
SECTION
2
OBJECTS
0
DICTIONARY
5
C
100
AcDbDictionary
3
ACAD_GROUP
350
D
3
ACAD_MLINESTYLE
350
17
0
DICTIONARY
5
D
100
AcDbDictionary
0
DICTIONARY
5
1A
330
C
100
AcDbDictionary
0
DICTIONARY
5
17
100
AcDbDictionary
0
ENDSEC
0
EOF
