0
SECTION
2
HEADER
9
$INSUNITS
70
4
9
$ACADVER
1
AC1014
9
$HANDSEED
5
FFFF
0
ENDSEC
0
SECTION
2
TABLES
0
TABLE
2
VPORT
5
8
100
AcDbSymbolTable
0
ENDTAB
0
TABLE
2
LTYPE
5
5
100
AcDbSymbolTable
0
LTYPE
5
14
100
AcDbSymbolTableRecord
100
AcDbLinetypeTableRecord
2
BYBLOCK
70
0
0
LTYPE
5
15
100
AcDbSymbolTableRecord
100
AcDbLinetypeTableRecord
2
BYLAYER
70
0
0
LTYPE
5
16
100
AcDbSymbolTableRecord
100
AcDbLinetypeTableRecord
2
DASHED
70
0
3
Dashed __ __ __ __ __ __ __ __ __ __ __ __ __ _
72
65
73
2
40
0.75
49
0.5
74
0
49
-0.25
74
0
0
ENDTAB
0
TABLE
2
LAYER
5
2
100
AcDbSymbolTable
70
2
0
LAYER
5
50
100
AcDbSymbolTableRecord
100
AcDbLayerTableRecord
2
0
70
0
62
7
6
CONTINUOUS
0
ENDTAB
0
TABLE
2
STYLE
5
3
100
AcDbSymbolTable
70
1
0
STYLE
5
11
100
AcDbSymbolTableRecord
100
AcDbTextStyleTableRecord
2
STANDARD
70
0
0
ENDTAB
0
TABLE
2
VIEW
5
6
100
AcDbSymbolTable
70
0
0
ENDTAB
0
TABLE
2
UCS
5
7
100
AcDbSymbolTable
70
0
0
ENDTAB
0
TABLE
2
APPID
5
9
100
AcDbSymbolTable
70
2
0
APPID
5
12
100
AcDbSymbolTableRecord
100
AcDbRegAppTableRecord
2
ACAD
70
0
0
ENDTAB
0
TABLE
2
DIMSTYLE
5
A
100
AcDbSymbolTable
70
1
0
ENDTAB
0
TABLE
2
BLOCK_RECORD
5
1
100
AcDbSymbolTable
70
1
0
BLOCK_RECORD
5
1F
100
AcDbSymbolTableRecord
100
AcDbBlockTableRecord
2
*MODEL_SPACE
0
BLOCK_RECORD
5
1B
100
AcDbSymbolTableRecord
100
AcDbBlockTableRecord
2
*PAPER_SPACE
0
ENDTAB
0
ENDSEC
0
SECTION
2
BLOCKS
0
BLOCK
5
20
100
AcDbEntity
100
AcDbBlockBegin
2
*MODEL_SPACE
0
ENDBLK
5
21
100
AcDbEntity
100
AcDbBlockEnd
0
BLOCK
5
1C
100
AcDbEntity
100
AcDbBlockBegin
2
*PAPER_SPACE
0
ENDBLK
5
1D
100
AcDbEntity
100
AcDbBlockEnd
0
ENDSEC
0
SECTION
2
ENTITIES
0
LWPOLYLINE
5
100
100
AcDbEntity
8
OUTER_PROFILES
100
AcDbPolyline
90
18
70
1
43
0.0
10
2.4945772522244298
20
9.4238665741057783
42
0.41421356237309437
10
2.4945772522244307
20
10.838080136478872
10
2.7755575615628914e-16
20
13.332657388703307
10
0
20
31.191236032465994
10
2.4945772522244312
20
33.685813284690425
42
0.41421356237309415
10
2.4945772522244312
20
35.100026847063518
10
0.070710678118643955
20
37.523893421169305
10
604.45318274305055
20
37.523893421169284
10
602.02931616894477
20
35.100026847063496
42
0.41421356237306933
10
602.02931616894477
20
33.685813284690461
10
604.52389342116919
20
31.191236032465994
10
604.52389342116919
20
13.332657388703307
10
602.029316168945
20
10.838080136478874
42
0.41421356237309637
10
602.02931616894489
20
9.4238665741057748
10
604.5238934211693
20
6.9292893218813489
10
604.5238934211693
20
0
10
0
20
0
10
0
20
6.9292893218813489
0
CIRCLE
5
101
100
AcDbEntity
8
INTERIOR_PROFILES
100
AcDbCircle
10
-402.2619467105846
20
3.0000000000000027
30
0
40
1.7000000000000171
210
0
220
0
230
-1
0
CIRCLE
5
102
100
AcDbEntity
8
INTERIOR_PROFILES
100
AcDbCircle
10
-302.2619467105846
20
3.0000000000000027
30
0
40
1.7000000000000171
210
0
220
0
230
-1
0
CIRCLE
5
103
100
AcDbEntity
8
INTERIOR_PROFILES
100
AcDbCircle
10
-202.2619467105846
20
3.0000000000000027
30
0
40
1.7000000000000171
210
0
220
0
230
-1
0
CIRCLE
5
104
100
AcDbEntity
8
INTERIOR_PROFILES
100
AcDbCircle
10
-502.2619467105846
20
3.0000000000000027
30
0
40
1.7000000000000171
210
0
220
0
230
-1
0
CIRCLE
5
105
100
AcDbEntity
8
INTERIOR_PROFILES
100
AcDbCircle
10
-102.26194671058458
20
3.0000000000000027
30
0
40
1.6999999999999993
210
0
220
0
230
-1
0
LINE
5
106
100
AcDbEntity
8
BEND
100
AcDbLine
10
601.39292006587675
20
37.523893421169305
30
-5.1965085950021283e-12
11
601.39292006587675
21
34.392920065876986
31
-5.1847857515624748e-12
0
LINE
5
107
100
AcDbEntity
8
BEND
100
AcDbLine
10
601.39292006587675
20
34.392920065876986
30
-5.1847857515624748e-12
11
601.39292006587687
21
10.130973355292326
31
-5.1749120441789477e-12
0
LINE
5
108
100
AcDbEntity
8
BEND
100
AcDbLine
10
601.39292006587687
20
10.130973355292326
30
-5.1749120441789477e-12
11
601.39292006587687
21
-4.4408920985006262e-15
31
-5.1818669678820869e-12
0
LINE
5
109
100
AcDbEntity
8
BEND
100
AcDbLine
10
3.1309733552922037
20
34.392920065876986
30
-3.0034688085817023e-14
11
3.1309733552922037
21
37.523893421169305
31
-4.1757531525470718e-14
0
LINE
5
110
100
AcDbEntity
8
BEND
100
AcDbLine
10
3.1309733552922037
20
10.130973355292326
30
-2.0160980702288289e-14
11
3.1309733552922037
21
34.392920065876986
31
-3.0034688085817023e-14
0
LINE
5
111
100
AcDbEntity
8
BEND
100
AcDbLine
10
3.1309733552922037
20
0
30
-2.7115904405427143e-14
11
3.1309733552922037
21
10.130973355292326
31
-2.0160980702288289e-14
0
LINE
5
112
100
AcDbEntity
8
BEND
100
AcDbLine
10
2.7874704710378895
20
34.392920065876986
30
-1.6342229595751144e-14
11
601.73642295013144
21
34.392920065876986
31
-5.0662507834816578e-12
0
LINE
5
113
100
AcDbEntity
8
BEND
100
AcDbLine
10
2.7874704710378753
20
10.130973355292326
30
-2.640724709838614e-14
11
601.73642295013133
21
10.130973355292326
31
-5.2524738967615963e-12
0
LINE
5
114
100
AcDbEntity
8
BEND_EXTENT
100
AcDbLine
10
1.9999999999999996
20
35.594604099287956
30
-3.2088768020847164e-14
11
1.9999999999999996
21
37.523893421169305
31
-3.1874048776874509e-14
0
LINE
5
115
100
AcDbEntity
8
BEND_EXTENT
100
AcDbLine
10
4.261946710584672
20
37.523893421169305
30
-3.817956010048919e-14
11
4.261946710584672
21
35.523893421169305
31
-3.9471681123009708e-14
0
LINE
5
116
100
AcDbEntity
8
BEND_EXTENT
100
AcDbLine
10
600.26194671058465
20
35.523893421169305
30
-5.1747333348586306e-12
11
4.261946710584672
21
35.523893421169305
31
-3.9471681123009708e-14
0
LINE
5
117
100
AcDbEntity
8
BEND_EXTENT
100
AcDbLine
10
600.26194671058465
20
35.523893421169305
30
-5.1747333348586306e-12
11
600.26194671058465
21
37.523893421169305
31
-5.1734412138361097e-12
0
LINE
5
118
100
AcDbEntity
8
BEND_EXTENT
100
AcDbLine
10
1.9999999999999996
20
0
30
-1.7371199534909078e-14
11
1.9999999999999996
21
8.929289321881356
31
-2.1515840909115866e-14
0
LINE
5
119
100
AcDbEntity
8
BEND_EXTENT
100
AcDbLine
10
4.261946710584672
20
9
30
-2.7160284088417108e-14
11
4.261946710584672
21
0
31
-2.2982821468133036e-14
0
LINE
5
120
100
AcDbEntity
8
BEND_EXTENT
100
AcDbLine
10
4.261946710584672
20
9
30
-2.7160284088417108e-14
11
600.26194671058465
21
9
31
-5.1624219378240383e-12
0
LINE
5
121
100
AcDbEntity
8
BEND_EXTENT
100
AcDbLine
10
600.26194671058465
20
0
30
-5.158244475203754e-12
11
600.26194671058465
21
9
31
-5.1624219378240383e-12
0
LINE
5
122
100
AcDbEntity
8
BEND_EXTENT
100
AcDbLine
10
602.5238934211693
20
33.191236032466023
30
-5.2641942860593176e-12
11
602.5238934211693
21
11.332657388703314
31
-5.254048353257445e-12
0
LWPOLYLINE
5
123
100
AcDbEntity
8
BEND_EXTENT
100
AcDbPolyline
90
4
70
1
43
0.0
10
600.26194671058465
20
11.261946710584652
10
600.26194671058465
20
33.261946710584652
10
4.261946710584672
20
33.261946710584652
10
4.2619467105846809
20
11.261946710584652
0
LINE
5
124
100
AcDbEntity
8
BEND_EXTENT
100
AcDbLine
10
602.5238934211693
20
8.9292893218813454
30
-5.0397699791669781e-12
11
602.5238934211693
21
-4.4408920985006262e-15
31
-5.0356253377927716e-12
0
LINE
5
125
100
AcDbEntity
8
BEND_EXTENT
100
AcDbLine
10
602.5238934211693
20
37.523893421169298
30
-5.0530425224743776e-12
11
602.5238934211693
21
35.594604099287956
31
-5.052147018693726e-12
0
LINE
5
126
100
AcDbEntity
8
BEND_EXTENT
100
AcDbLine
10
1.9999999999999982
20
11.332657388703296
30
-2.0966059734615119e-14
11
1.9999999999999982
21
33.191236032465987
31
-3.1111992536488273e-14
0
ENDSEC
0
SECTION
2
OBJECTS
0
DICTIONARY
5
C
100
AcDbDictionary
3
ACAD_GROUP
350
D
3
ACAD_MLINESTYLE
350
17
0
DICTIONARY
5
D
100
AcDbDictionary
0
DICTIONARY
5
1A
330
C
100
AcDbDictionary
0
DICTIONARY
5
17
100
AcDbDictionary
0
ENDSEC
0
EOF
