0
SECTION
2
HEADER
9
$INSUNITS
70
4
9
$ACADVER
1
AC1014
9
$HANDSEED
5
FFFF
0
ENDSEC
0
SECTION
2
TABLES
0
TABLE
2
VPORT
5
8
100
AcDbSymbolTable
0
ENDTAB
0
TABLE
2
LTYPE
5
5
100
AcDbSymbolTable
0
LTYPE
5
14
100
AcDbSymbolTableRecord
100
AcDbLinetypeTableRecord
2
BYBLOCK
70
0
0
LTYPE
5
15
100
AcDbSymbolTableRecord
100
AcDbLinetypeTableRecord
2
BYLAYER
70
0
0
LTYPE
5
16
100
AcDbSymbolTableRecord
100
AcDbLinetypeTableRecord
2
DASHED
70
0
3
Dashed __ __ __ __ __ __ __ __ __ __ __ __ __ _
72
65
73
2
40
0.75
49
0.5
74
0
49
-0.25
74
0
0
ENDTAB
0
TABLE
2
LAYER
5
2
100
AcDbSymbolTable
70
2
0
LAYER
5
50
100
AcDbSymbolTableRecord
100
AcDbLayerTableRecord
2
0
70
0
62
7
6
CONTINUOUS
0
ENDTAB
0
TABLE
2
STYLE
5
3
100
AcDbSymbolTable
70
1
0
STYLE
5
11
100
AcDbSymbolTableRecord
100
AcDbTextStyleTableRecord
2
STANDARD
70
0
0
ENDTAB
0
TABLE
2
VIEW
5
6
100
AcDbSymbolTable
70
0
0
ENDTAB
0
TABLE
2
UCS
5
7
100
AcDbSymbolTable
70
0
0
ENDTAB
0
TABLE
2
APPID
5
9
100
AcDbSymbolTable
70
2
0
APPID
5
12
100
AcDbSymbolTableRecord
100
AcDbRegAppTableRecord
2
ACAD
70
0
0
ENDTAB
0
TABLE
2
DIMSTYLE
5
A
100
AcDbSymbolTable
70
1
0
ENDTAB
0
TABLE
2
BLOCK_RECORD
5
1
100
AcDbSymbolTable
70
1
0
BLOCK_RECORD
5
1F
100
AcDbSymbolTableRecord
100
AcDbBlockTableRecord
2
*MODEL_SPACE
0
BLOCK_RECORD
5
1B
100
AcDbSymbolTableRecord
100
AcDbBlockTableRecord
2
*PAPER_SPACE
0
ENDTAB
0
ENDSEC
0
SECTION
2
BLOCKS
0
BLOCK
5
20
100
AcDbEntity
100
AcDbBlockBegin
2
*MODEL_SPACE
0
ENDBLK
5
21
100
AcDbEntity
100
AcDbBlockEnd
0
BLOCK
5
1C
100
AcDbEntity
100
AcDbBlockBegin
2
*PAPER_SPACE
0
ENDBLK
5
1D
100
AcDbEntity
100
AcDbBlockEnd
0
ENDSEC
0
SECTION
2
ENTITIES
0
LINE
5
100
100
AcDbEntity
8
OUTER_PROFILES
100
AcDbLine
10
-2.2619466785032909
20
16.26194671076199
30
0
11
-2.2619466785033135
21
14.261946710761961
31
0
0
LINE
5
101
100
AcDbEntity
8
OUTER_PROFILES
100
AcDbLine
10
-2.2619466785033135
20
14.261946710761961
30
0
11
-23.52389338797876
21
14.261946710776527
31
0
0
LINE
5
102
100
AcDbEntity
8
OUTER_PROFILES
100
AcDbLine
10
-23.52389338797876
20
14.261946710776527
30
0
11
-23.523893387910618
21
575.16194671089625
31
0
0
LINE
5
103
100
AcDbEntity
8
OUTER_PROFILES
100
AcDbLine
10
-23.523893387910618
20
575.16194671089625
30
0
11
-18.523893388299498
21
575.16194671089613
31
0
0
LINE
5
104
100
AcDbEntity
8
OUTER_PROFILES
100
AcDbLine
10
-18.523893388299498
20
575.16194671089613
30
0
11
-16.26194667772284
21
575.16194671089602
31
0
0
LINE
5
105
100
AcDbEntity
8
OUTER_PROFILES
100
AcDbLine
10
-16.26194667772284
20
575.16194671089602
30
0
11
-7.291235997512624
21
575.16194671089545
31
0
0
LINE
5
106
100
AcDbEntity
8
OUTER_PROFILES
100
AcDbLine
10
-7.291235997512624
20
575.16194671089545
30
0
11
-2.2619466761412568
21
580.19123604768129
31
0
0
SPLINE
5
107
100
AcDbEntity
8
OUTER_PROFILES
100
AcDbSpline
70
0
71
3
72
23
73
19
74
0
42
0.000000001
43
0.0000000001
44
0.0000000001
40
-0.31498084748812155
40
-0.31498084748812155
40
-0.31498084748812155
40
-0.31498084748812155
40
-0.26911150902859493
40
-0.26911150902859493
40
-0.26911150902859493
40
-0.23952975749525549
40
-0.23952975749525549
40
-0.23952975749525549
40
-0.18000771471957638
40
-0.18000771471957638
40
-0.18000771471957638
40
-0.15976734607800971
40
-0.15976734607800971
40
-0.15976734607800971
40
-0.024350423271394282
40
-0.024350423271394282
40
-0.024350423271394282
40
-3.3812335476798326e-09
40
-3.3812335476798326e-09
40
-3.3812335476798326e-09
40
-3.3812335476798326e-09
10
-4.3282131351185527e-10
20
580.26194671915937
30
0
10
-0.11005854573772815
20
580.25850618113225
30
0
10
-0.21964841283026387
20
580.25508388965829
30
0
10
-0.32948610782991822
20
580.25165691438383
30
0
10
-0.400321910385524
20
580.24944681206955
30
0
10
-0.47134854142936217
20
580.24723150028183
30
0
10
-0.54217542849837785
20
580.2450207365755
30
0
10
-0.68468764576986429
20
580.24057241404296
30
0
10
-0.82738830120883344
20
580.23610745124279
30
0
10
-0.96978582633504162
20
580.23164214574501
30
0
10
-1.0182078607242726
20
580.23012372626272
30
0
10
-1.0665583444721014
20
580.22860711028227
30
0
10
-1.1148982123526443
20
580.22709183523136
30
0
10
-1.4383130805886895
20
580.21695398210045
30
0
10
-1.7634696446615723
20
580.20683339311438
30
0
10
-2.0870769112885261
20
580.19670694347269
30
0
10
-2.1452673697522888
20
580.19488602408057
30
0
10
-2.2035204651926428
20
580.19306250831767
30
0
10
-2.2619466761412568
20
580.19123604768129
30
0
0
LINE
5
108
100
AcDbEntity
8
OUTER_PROFILES
100
AcDbLine
10
-4.3282131351185527e-10
20
580.26194671915937
30
0
11
-1.7218199088731012e-10
21
582.52389341798937
31
0
0
LINE
5
109
100
AcDbEntity
8
OUTER_PROFILES
100
AcDbLine
10
-1.7218199088731012e-10
20
582.52389341798937
30
0
11
-2.2619466476902037
21
582.59460407421216
31
0
0
LINE
5
110
100
AcDbEntity
8
OUTER_PROFILES
100
AcDbLine
10
-2.2619466476902037
20
582.59460407421216
30
0
11
-7.2619466793024241
21
587.59460409712983
31
0
0
LINE
5
111
100
AcDbEntity
8
OUTER_PROFILES
100
AcDbLine
10
-7.2619466793024241
20
587.59460409712983
30
0
11
-7.2619466793027225
21
591.45318273875341
31
0
0
LINE
5
112
100
AcDbEntity
8
OUTER_PROFILES
100
AcDbLine
10
-7.2619466793027225
20
591.45318273875341
30
0
11
-2.2619466783997844
21
596.45318274034173
31
0
0
LINE
5
113
100
AcDbEntity
8
OUTER_PROFILES
100
AcDbLine
10
-2.2619466783997844
20
596.45318274034173
30
0
11
-1.7887056280585512e-08
21
596.52389341658863
31
0
0
LINE
5
114
100
AcDbEntity
8
OUTER_PROFILES
100
AcDbLine
10
-1.7887056280585512e-08
20
596.52389341658863
30
0
11
-1.8884060981605444e-10
21
598.78584014159298
31
0
0
LINE
5
115
100
AcDbEntity
8
OUTER_PROFILES
100
AcDbLine
10
-1.8884060981605444e-10
20
598.78584014159298
30
0
11
-2.2619466926762306
21
598.85655081955952
31
0
0
LINE
5
116
100
AcDbEntity
8
OUTER_PROFILES
100
AcDbLine
10
-2.2619466926762306
20
598.85655081955952
30
0
11
-7.1912360178427148
21
603.78584014338048
31
0
0
LINE
5
117
100
AcDbEntity
8
OUTER_PROFILES
100
AcDbLine
10
-7.1912360178427148
20
603.78584014338048
30
0
11
-2.2619466934333006
21
603.78584014317721
31
0
0
LINE
5
118
100
AcDbEntity
8
OUTER_PROFILES
100
AcDbLine
10
-2.2619466934333006
20
603.78584014317721
30
0
11
-1.8872015061788261e-10
21
603.78584014313469
31
0
0
LINE
5
119
100
AcDbEntity
8
OUTER_PROFILES
100
AcDbLine
10
-1.8872015061788261e-10
20
603.78584014313469
30
0
11
760.00000000000341
21
603.78584014315061
31
0
0
LINE
5
120
100
AcDbEntity
8
OUTER_PROFILES
100
AcDbLine
10
760.00000000000341
20
603.78584014315061
30
0
11
762.26194672047484
21
603.78584014316721
31
0
0
LINE
5
121
100
AcDbEntity
8
OUTER_PROFILES
100
AcDbLine
10
762.26194672047484
20
603.78584014316721
30
0
11
767.19123604307197
21
603.78584014324224
31
0
0
LINE
5
122
100
AcDbEntity
8
OUTER_PROFILES
100
AcDbLine
10
767.19123604307197
20
603.78584014324224
30
0
11
762.26194672198267
21
598.85655082222127
31
0
0
LINE
5
123
100
AcDbEntity
8
OUTER_PROFILES
100
AcDbLine
10
762.26194672198267
20
598.85655082222127
30
0
11
760.00000000004366
21
598.78584014386411
31
0
0
LINE
5
124
100
AcDbEntity
8
OUTER_PROFILES
100
AcDbLine
10
760.00000000004366
20
598.78584014386411
30
0
11
760.00000000000466
21
596.5238934192331
31
0
0
LINE
5
125
100
AcDbEntity
8
OUTER_PROFILES
100
AcDbLine
10
760.00000000000466
20
596.5238934192331
30
0
11
762.26194671301528
21
596.4531827415833
31
0
0
LINE
5
126
100
AcDbEntity
8
OUTER_PROFILES
100
AcDbLine
10
762.26194671301528
20
596.4531827415833
30
0
11
767.26194671362521
21
591.45318274022395
31
0
0
LINE
5
127
100
AcDbEntity
8
OUTER_PROFILES
100
AcDbLine
10
767.26194671362521
20
591.45318274022395
30
0
11
767.26194671362566
21
587.59460409559529
31
0
0
LINE
5
128
100
AcDbEntity
8
OUTER_PROFILES
100
AcDbLine
10
767.26194671362566
20
587.59460409559529
30
0
11
762.26194671187488
21
582.59460412665692
31
0
0
SPLINE
5
129
100
AcDbEntity
8
OUTER_PROFILES
100
AcDbSpline
70
0
71
3
72
11
73
7
74
0
42
0.000000001
43
0.0000000001
44
0.0000000001
40
1.1596235083288775e-10
40
1.1596235083288775e-10
40
1.1596235083288775e-10
40
1.1596235083288775e-10
40
0.67319842543916097
40
0.67319842543916097
40
0.67319842543916097
40
1.5707963259373099
40
1.5707963259373099
40
1.5707963259373099
40
1.5707963259373099
10
759.99999999965712
20
582.52389345049016
30
0
10
760.32313524424706
20
582.53399497565647
30
0
10
760.64765047450101
20
582.54409650082266
30
0
10
760.96978582903375
20
582.55419802598897
30
0
10
761.39929963510986
20
582.56766672621166
30
0
10
761.83109971906333
20
582.58113542643423
30
0
10
762.26194671187488
20
582.59460412665692
30
0
0
LINE
5
130
100
AcDbEntity
8
OUTER_PROFILES
100
AcDbLine
10
759.99999999965712
20
582.52389345049016
30
0
11
760.0000000000058
21
580.26194671059159
31
0
0
SPLINE
5
131
100
AcDbEntity
8
OUTER_PROFILES
100
AcDbSpline
70
0
71
3
72
23
73
19
74
0
42
0.000000001
43
0.0000000001
44
0.0000000001
40
-0.31504357640132341
40
-0.31504357640132341
40
-0.31504357640132341
40
-0.31504357640132341
40
-0.29072666309810674
40
-0.29072666309810674
40
-0.29072666309810674
40
-0.1553765487780201
40
-0.1553765487780201
40
-0.1553765487780201
40
-0.13517246979693381
40
-0.13517246979693381
40
-0.13517246979693381
40
-0.075562894330833741
40
-0.075562894330833741
40
-0.075562894330833741
40
-0.045932847219902193
40
-0.045932847219902193
40
-0.045932847219902193
40
-3.6269467170350153e-10
40
-3.6269467170350153e-10
40
-3.6269467170350153e-10
40
-3.6269467170350153e-10
10
762.26194670763289
20
580.19123607002928
30
0
10
762.20360090823135
20
580.19306001708401
30
0
10
762.14534390951474
20
580.1948836526642
30
0
10
762.08706820928205
20
580.19670723958848
30
0
10
761.76270044968146
20
580.20685748750827
30
0
10
761.43959675277017
20
580.21691376963383
30
0
10
761.11490368253953
20
580.22709168993549
30
0
10
761.06643586654616
20
580.22861097572763
30
0
10
761.01808437280874
20
580.2301276249998
30
0
10
760.96978584194619
20
580.23164217176793
30
0
10
760.82728714536859
20
580.23611065013586
30
0
10
760.68508353492598
20
580.24056008496552
30
0
10
760.54214795024927
20
580.24502162180022
30
0
10
760.47109916195177
20
580.24723931158519
30
0
10
760.40028767589263
20
580.24944790828931
30
0
10
760.32951805315679
20
580.25165594573923
30
0
10
760.21981015323013
20
580.25507887131425
30
0
10
760.11021092056376
20
580.25850144638025
30
0
10
760.0000000011778
20
580.26194674807891
30
0
0
LINE
5
132
100
AcDbEntity
8
OUTER_PROFILES
100
AcDbLine
10
762.26194670763289
20
580.19123607002928
30
0
11
767.29123602836478
21
575.1619467109042
31
0
0
LINE
5
133
100
AcDbEntity
8
OUTER_PROFILES
100
AcDbLine
10
767.29123602836478
20
575.1619467109042
30
0
11
776.26194670744599
21
575.16194671090409
31
0
0
LINE
5
134
100
AcDbEntity
8
OUTER_PROFILES
100
AcDbLine
10
776.26194670744599
20
575.16194671090409
30
0
11
778.52389342237882
21
575.1619467109042
31
0
0
LINE
5
135
100
AcDbEntity
8
OUTER_PROFILES
100
AcDbLine
10
778.52389342237882
20
575.1619467109042
30
0
11
783.52389342199001
21
575.16194671090443
31
0
0
LINE
5
136
100
AcDbEntity
8
OUTER_PROFILES
100
AcDbLine
10
783.52389342199001
20
575.16194671090443
30
0
11
783.52389342163724
21
14.261946710779156
31
0
0
LINE
5
137
100
AcDbEntity
8
OUTER_PROFILES
100
AcDbLine
10
783.52389342163724
20
14.261946710779156
30
0
11
762.26194670742518
21
14.261946710730555
31
0
0
LINE
5
138
100
AcDbEntity
8
OUTER_PROFILES
100
AcDbLine
10
762.26194670742518
20
14.261946710730555
30
0
11
762.2619467074253
21
16.261946710730584
31
0
0
LINE
5
139
100
AcDbEntity
8
OUTER_PROFILES
100
AcDbLine
10
762.2619467074253
20
16.261946710730584
30
0
11
760.00000000000671
21
16.261946710560906
31
0
0
LINE
5
140
100
AcDbEntity
8
OUTER_PROFILES
100
AcDbLine
10
760.00000000000671
20
16.261946710560906
30
0
11
760.00000000003251
21
13.999999999989541
31
0
0
LINE
5
141
100
AcDbEntity
8
OUTER_PROFILES
100
AcDbLine
10
760.00000000003251
20
13.999999999989541
30
0
11
760.00000000001114
21
-7.1054273576010019e-14
31
0
0
LINE
5
142
100
AcDbEntity
8
OUTER_PROFILES
100
AcDbLine
10
760.00000000001114
20
-7.1054273576010019e-14
30
0
11
0
21
0
31
0
0
LINE
5
143
100
AcDbEntity
8
OUTER_PROFILES
100
AcDbLine
10
0
20
0
30
0
11
-1.3992275758128927e-12
21
13.999999999970854
31
0
0
LINE
5
144
100
AcDbEntity
8
OUTER_PROFILES
100
AcDbLine
10
-1.3992275758128927e-12
20
13.999999999970854
30
0
11
8.2064035671511262e-13
21
16.261946710698112
31
0
0
LINE
5
145
100
AcDbEntity
8
OUTER_PROFILES
100
AcDbLine
10
8.2064035671511262e-13
20
16.261946710698112
30
0
11
-2.2619466785032909
21
16.26194671076199
31
0
0
LWPOLYLINE
5
146
100
AcDbEntity
8
INTERIOR_PROFILES
100
AcDbPolyline
90
4
70
1
43
0.0
10
156.99999999784976
20
13.499999999974719
10
156.99999999784976
20
16.261946710554724
10
94.999999997849756
20
16.261946710554511
10
94.999999997849756
20
13.499999999973227
0
CIRCLE
5
147
100
AcDbEntity
8
INTERIOR_PROFILES
100
AcDbCircle
10
-395.9999999999518
20
97.261946710581526
30
0
40
1.6999999999999993
210
0
220
0
230
-1
0
CIRCLE
5
148
100
AcDbEntity
8
INTERIOR_PROFILES
100
AcDbCircle
10
-363.99999999994418
20
257.26194671058232
30
0
40
1.7000000000000171
210
0
220
0
230
-1
0
CIRCLE
5
149
100
AcDbEntity
8
INTERIOR_PROFILES
100
AcDbCircle
10
-395.99999999994424
20
257.26194671058158
30
0
40
1.7000000000000171
210
0
220
0
230
-1
0
CIRCLE
5
150
100
AcDbEntity
8
INTERIOR_PROFILES
100
AcDbCircle
10
-395.99999999995475
20
33.26194671058154
30
0
40
1.6999999999999993
210
0
220
0
230
-1
0
CIRCLE
5
151
100
AcDbEntity
8
INTERIOR_PROFILES
100
AcDbCircle
10
-395.99999999994122
20
321.26194671058158
30
0
40
1.7000000000000171
210
0
220
0
230
-1
0
CIRCLE
5
152
100
AcDbEntity
8
INTERIOR_PROFILES
100
AcDbCircle
10
-395.9999999999352
20
449.26194671058164
30
0
40
1.7000000000000171
210
0
220
0
230
-1
0
CIRCLE
5
153
100
AcDbEntity
8
INTERIOR_PROFILES
100
AcDbCircle
10
-363.99999999993372
20
481.26194671058227
30
0
40
1.7000000000000171
210
0
220
0
230
-1
0
CIRCLE
5
154
100
AcDbEntity
8
INTERIOR_PROFILES
100
AcDbCircle
10
-363.99999999995174
20
97.261946710582237
30
0
40
1.6999999999999993
210
0
220
0
230
-1
0
CIRCLE
5
155
100
AcDbEntity
8
INTERIOR_PROFILES
100
AcDbCircle
10
-395.99999999993224
20
513.26194671058158
30
0
40
1.7000000000000171
210
0
220
0
230
-1
0
CIRCLE
5
156
100
AcDbEntity
8
INTERIOR_PROFILES
100
AcDbCircle
10
-395.99999999993679
20
417.26194671058153
30
0
40
1.7000000000000171
210
0
220
0
230
-1
0
CIRCLE
5
157
100
AcDbEntity
8
INTERIOR_PROFILES
100
AcDbCircle
10
-363.99999999995327
20
65.261946710582279
30
0
40
1.6999999999999993
210
0
220
0
230
-1
0
CIRCLE
5
158
100
AcDbEntity
8
INTERIOR_PROFILES
100
AcDbCircle
10
-395.99999999994282
20
289.26194671058158
30
0
40
1.7000000000000171
210
0
220
0
230
-1
0
CIRCLE
5
159
100
AcDbEntity
8
INTERIOR_PROFILES
100
AcDbCircle
10
-395.99999999993372
20
481.26194671058158
30
0
40
1.7000000000000171
210
0
220
0
230
-1
0
CIRCLE
5
160
100
AcDbEntity
8
INTERIOR_PROFILES
100
AcDbCircle
10
-395.99999999995327
20
65.261946710581569
30
0
40
1.6999999999999993
210
0
220
0
230
-1
0
CIRCLE
5
161
100
AcDbEntity
8
INTERIOR_PROFILES
100
AcDbCircle
10
-395.99999999993975
20
353.26194671058153
30
0
40
1.7000000000000171
210
0
220
0
230
-1
0
CIRCLE
5
162
100
AcDbEntity
8
INTERIOR_PROFILES
100
AcDbCircle
10
-395.99999999994731
20
193.26194671058153
30
0
40
1.7000000000000171
210
0
220
0
230
-1
0
CIRCLE
5
163
100
AcDbEntity
8
INTERIOR_PROFILES
100
AcDbCircle
10
-395.99999999994873
20
161.26194671058153
30
0
40
1.7000000000000171
210
0
220
0
230
-1
0
CIRCLE
5
164
100
AcDbEntity
8
INTERIOR_PROFILES
100
AcDbCircle
10
-363.99999999994725
20
193.26194671058227
30
0
40
1.7000000000000171
210
0
220
0
230
-1
0
CIRCLE
5
165
100
AcDbEntity
8
INTERIOR_PROFILES
100
AcDbCircle
10
-363.99999999995475
20
33.261946710582251
30
0
40
1.6999999999999993
210
0
220
0
230
-1
0
CIRCLE
5
166
100
AcDbEntity
8
INTERIOR_PROFILES
100
AcDbCircle
10
-363.99999999993975
20
353.26194671058227
30
0
40
1.7000000000000171
210
0
220
0
230
-1
0
CIRCLE
5
167
100
AcDbEntity
8
INTERIOR_PROFILES
100
AcDbCircle
10
-363.99999999994577
20
225.26194671058227
30
0
40
1.7000000000000171
210
0
220
0
230
-1
0
CIRCLE
5
168
100
AcDbEntity
8
INTERIOR_PROFILES
100
AcDbCircle
10
-395.99999999994571
20
225.26194671058158
30
0
40
1.7000000000000171
210
0
220
0
230
-1
0
CIRCLE
5
169
100
AcDbEntity
8
INTERIOR_PROFILES
100
AcDbCircle
10
-363.99999999994282
20
289.26194671058227
30
0
40
1.7000000000000171
210
0
220
0
230
-1
0
CIRCLE
5
170
100
AcDbEntity
8
INTERIOR_PROFILES
100
AcDbCircle
10
-363.99999999995026
20
129.26194671058227
30
0
40
1.6999999999999993
210
0
220
0
230
-1
0
CIRCLE
5
171
100
AcDbEntity
8
INTERIOR_PROFILES
100
AcDbCircle
10
-395.99999999993821
20
385.26194671058158
30
0
40
1.7000000000000171
210
0
220
0
230
-1
0
CIRCLE
5
172
100
AcDbEntity
8
INTERIOR_PROFILES
100
AcDbCircle
10
-395.99999999995026
20
129.26194671058155
30
0
40
1.6999999999999993
210
0
220
0
230
-1
0
CIRCLE
5
173
100
AcDbEntity
8
INTERIOR_PROFILES
100
AcDbCircle
10
-379.99999999993571
20
6.9999999962841741
30
0
40
1.7000000000000171
210
0
220
0
230
-1
0
CIRCLE
5
174
100
AcDbEntity
8
INTERIOR_PROFILES
100
AcDbCircle
10
-106.00000000012113
20
19.261946710568694
30
0
40
1.6999999999999993
210
0
220
0
230
-1
0
CIRCLE
5
175
100
AcDbEntity
8
INTERIOR_PROFILES
100
AcDbCircle
10
-146.00000000012113
20
19.261946710534161
30
0
40
1.6999999999999993
210
0
220
0
230
-1
0
CIRCLE
5
176
100
AcDbEntity
8
INTERIOR_PROFILES
100
AcDbCircle
10
-363.99999999994873
20
161.26194671058221
30
0
40
1.7000000000000171
210
0
220
0
230
-1
0
LWPOLYLINE
5
177
100
AcDbEntity
8
INTERIOR_PROFILES
100
AcDbPolyline
90
4
70
1
43
0.0
10
602.99999994795473
20
16.261946710556359
10
602.99999994795485
20
13.499999999985661
10
664.99999994793382
20
13.499999999987224
10
664.99999994793382
20
16.261946710556572
0
CIRCLE
5
178
100
AcDbEntity
8
INTERIOR_PROFILES
100
AcDbCircle
10
-363.99999999994128
20
321.26194671058227
30
0
40
1.7000000000000171
210
0
220
0
230
-1
0
CIRCLE
5
179
100
AcDbEntity
8
INTERIOR_PROFILES
100
AcDbCircle
10
-753.00000000001035
20
6.9999999999998863
30
0
40
1.7000000000000171
210
0
220
0
230
-1
0
CIRCLE
5
180
100
AcDbEntity
8
INTERIOR_PROFILES
100
AcDbCircle
10
-363.99999999993827
20
385.26194671058227
30
0
40
1.7000000000000171
210
0
220
0
230
-1
0
CIRCLE
5
181
100
AcDbEntity
8
INTERIOR_PROFILES
100
AcDbCircle
10
-653.99999999993747
20
19.261946710594344
30
0
40
1.6999999999999993
210
0
220
0
230
-1
0
CIRCLE
5
182
100
AcDbEntity
8
INTERIOR_PROFILES
100
AcDbCircle
10
-613.99999999993747
20
19.261946710556117
30
0
40
1.6999999999999993
210
0
220
0
230
-1
0
CIRCLE
5
183
100
AcDbEntity
8
INTERIOR_PROFILES
100
AcDbCircle
10
-769.26194670637324
20
89.261946710118707
30
0
40
1.7000000000000171
210
0
220
0
230
-1
0
CIRCLE
5
184
100
AcDbEntity
8
INTERIOR_PROFILES
100
AcDbCircle
10
-679.99999999993577
20
6.9999999962915638
30
0
40
1.7000000000000171
210
0
220
0
230
-1
0
CIRCLE
5
185
100
AcDbEntity
8
INTERIOR_PROFILES
100
AcDbCircle
10
-363.99999999993219
20
513.26194671058238
30
0
40
1.7000000000000171
210
0
220
0
230
-1
0
CIRCLE
5
186
100
AcDbEntity
8
INTERIOR_PROFILES
100
AcDbCircle
10
-6.9999999999993641
20
7.0000000000000284
30
0
40
1.7000000000000004
210
0
220
0
230
-1
0
CIRCLE
5
187
100
AcDbEntity
8
INTERIOR_PROFILES
100
AcDbCircle
10
-79.999999999935667
20
6.9999999962767845
30
0
40
1.7000000000000082
210
0
220
0
230
-1
0
CIRCLE
5
188
100
AcDbEntity
8
INTERIOR_PROFILES
100
AcDbCircle
10
-363.99999999993673
20
417.26194671058227
30
0
40
1.7000000000000171
210
0
220
0
230
-1
0
CIRCLE
5
189
100
AcDbEntity
8
INTERIOR_PROFILES
100
AcDbCircle
10
-363.99999999993526
20
449.26194671058227
30
0
40
1.7000000000000171
210
0
220
0
230
-1
0
CIRCLE
5
190
100
AcDbEntity
8
INTERIOR_PROFILES
100
AcDbCircle
10
9.2619466757631912
20
43.261946710603212
30
0
40
1.7000000000000004
210
0
220
0
230
-1
0
CIRCLE
5
191
100
AcDbEntity
8
INTERIOR_PROFILES
100
AcDbCircle
10
-279.99999999990757
20
600.78584014312514
30
0
40
1.7000000000000171
210
0
220
0
230
-1
0
CIRCLE
5
192
100
AcDbEntity
8
INTERIOR_PROFILES
100
AcDbCircle
10
-31.999999999936705
20
33.261946710583317
30
0
40
1.6999999999999993
210
0
220
0
230
-1
0
CIRCLE
5
193
100
AcDbEntity
8
INTERIOR_PROFILES
100
AcDbCircle
10
-727.99999999993577
20
33.261946710573582
30
0
40
1.7000000000000171
210
0
220
0
230
-1
0
CIRCLE
5
194
100
AcDbEntity
8
INTERIOR_PROFILES
100
AcDbCircle
10
-2.9999999999999192
20
533.2619467106606
30
0
40
1.7000000000000171
210
0
220
0
230
-1
0
CIRCLE
5
195
100
AcDbEntity
8
INTERIOR_PROFILES
100
AcDbCircle
10
-599.99999999988188
20
555.26194671061126
30
0
40
6.4999999999999858
210
0
220
0
230
-1
0
CIRCLE
5
196
100
AcDbEntity
8
INTERIOR_PROFILES
100
AcDbCircle
10
-679.9999999999078
20
600.78584014316209
30
0
40
1.7000000000000171
210
0
220
0
230
-1
0
CIRCLE
5
197
100
AcDbEntity
8
INTERIOR_PROFILES
100
AcDbCircle
10
-769.2619467074162
20
551.26194671071221
30
0
40
1.7000000000000171
210
0
220
0
230
-1
0
CIRCLE
5
198
100
AcDbEntity
8
INTERIOR_PROFILES
100
AcDbCircle
10
-769.26194670566065
20
373.26194671073165
30
0
40
1.7000000000000171
210
0
220
0
230
-1
0
CIRCLE
5
199
100
AcDbEntity
8
INTERIOR_PROFILES
100
AcDbCircle
10
-735.000000000005
20
533.26194671066321
30
0
40
1.7000000000000171
210
0
220
0
230
-1
0
CIRCLE
5
200
100
AcDbEntity
8
INTERIOR_PROFILES
100
AcDbCircle
10
-769.26194670742757
20
573.26194671074086
30
0
40
1.7000000000000171
210
0
220
0
230
-1
0
CIRCLE
5
201
100
AcDbEntity
8
INTERIOR_PROFILES
100
AcDbCircle
10
-579.99999999990769
20
600.78584014315288
30
0
40
1.7000000000000171
210
0
220
0
230
-1
0
CIRCLE
5
202
100
AcDbEntity
8
INTERIOR_PROFILES
100
AcDbCircle
10
-49.999999999963656
20
19.261946710587381
30
0
40
1.6999999999999993
210
0
220
0
230
-1
0
CIRCLE
5
203
100
AcDbEntity
8
INTERIOR_PROFILES
100
AcDbCircle
10
-769.2619467074461
20
511.26194671061182
30
0
40
6.4999999999999858
210
0
220
0
230
-1
0
CIRCLE
5
204
100
AcDbEntity
8
INTERIOR_PROFILES
100
AcDbCircle
10
-710.0000000000108
20
19.261946710602516
30
0
40
1.7000000000000171
210
0
220
0
230
-1
0
CIRCLE
5
205
100
AcDbEntity
8
INTERIOR_PROFILES
100
AcDbCircle
10
-757.00000000000603
20
533.26194671066321
30
0
40
1.7000000000000171
210
0
220
0
230
-1
0
CIRCLE
5
206
100
AcDbEntity
8
INTERIOR_PROFILES
100
AcDbCircle
10
-479.99999999990769
20
600.78584014314356
30
0
40
1.7000000000000171
210
0
220
0
230
-1
0
CIRCLE
5
207
100
AcDbEntity
8
INTERIOR_PROFILES
100
AcDbCircle
10
-769.26194670638051
20
43.26194671060577
30
0
40
1.7000000000000171
210
0
220
0
230
-1
0
CIRCLE
5
208
100
AcDbEntity
8
INTERIOR_PROFILES
100
AcDbCircle
10
-24.999999999999876
20
533.26194671066071
30
0
40
1.7000000000000171
210
0
220
0
230
-1
0
CIRCLE
5
209
100
AcDbEntity
8
INTERIOR_PROFILES
100
AcDbCircle
10
9.261946675754821
20
89.26194671011622
30
0
40
1.7000000000000004
210
0
220
0
230
-1
0
CIRCLE
5
210
100
AcDbEntity
8
INTERIOR_PROFILES
100
AcDbCircle
10
-79.999999999907573
20
600.78584014310661
30
0
40
1.7000000000000171
210
0
220
0
230
-1
0
CIRCLE
5
211
100
AcDbEntity
8
INTERIOR_PROFILES
100
AcDbCircle
10
-179.9999999999076
20
600.78584014311593
30
0
40
1.7000000000000171
210
0
220
0
230
-1
0
CIRCLE
5
212
100
AcDbEntity
8
INTERIOR_PROFILES
100
AcDbCircle
10
-160.00000000007688
20
555.26194671060341
30
0
40
6.4999999999999858
210
0
220
0
230
-1
0
CIRCLE
5
213
100
AcDbEntity
8
INTERIOR_PROFILES
100
AcDbCircle
10
9.2619466757579154
20
479.26194671060307
30
0
40
1.7000000000000004
210
0
220
0
230
-1
0
CIRCLE
5
214
100
AcDbEntity
8
INTERIOR_PROFILES
100
AcDbCircle
10
-769.26194670638449
20
479.26194671060557
30
0
40
1.7000000000000171
210
0
220
0
230
-1
0
CIRCLE
5
215
100
AcDbEntity
8
INTERIOR_PROFILES
100
AcDbCircle
10
-379.99999999990769
20
600.78584014313424
30
0
40
1.7000000000000171
210
0
220
0
230
-1
0
CIRCLE
5
216
100
AcDbEntity
8
INTERIOR_PROFILES
100
AcDbCircle
10
9.2619466765944232
20
195.26194671011623
30
0
40
1.7000000000000171
210
0
220
0
230
-1
0
CIRCLE
5
217
100
AcDbEntity
8
INTERIOR_PROFILES
100
AcDbCircle
10
9.2619466543591269
20
154.76194671020423
30
0
40
6.4999999999999858
210
0
220
0
230
-1
0
CIRCLE
5
218
100
AcDbEntity
8
INTERIOR_PROFILES
100
AcDbCircle
10
-769.26194670638495
20
527.26194671060557
30
0
40
3.2500000000000284
210
0
220
0
230
-1
0
CIRCLE
5
219
100
AcDbEntity
8
INTERIOR_PROFILES
100
AcDbCircle
10
9.261946676600104
20
304.26194671060318
30
0
40
3.2499999999999929
210
0
220
0
230
-1
0
CIRCLE
5
220
100
AcDbEntity
8
INTERIOR_PROFILES
100
AcDbCircle
10
-769.26194670637437
20
195.26194671011879
30
0
40
1.7000000000000171
210
0
220
0
230
-1
0
CIRCLE
5
221
100
AcDbEntity
8
INTERIOR_PROFILES
100
AcDbCircle
10
-663.99999999993224
20
449.26194671057249
30
0
40
1.7000000000000171
210
0
220
0
230
-1
0
CIRCLE
5
222
100
AcDbEntity
8
INTERIOR_PROFILES
100
AcDbCircle
10
-769.26194670567963
20
326.26194671025161
30
0
40
6.4999999999999858
210
0
220
0
230
-1
0
CIRCLE
5
223
100
AcDbEntity
8
INTERIOR_PROFILES
100
AcDbCircle
10
-769.26194670638449
20
495.26194671060551
30
0
40
3.2500000000000284
210
0
220
0
230
-1
0
CIRCLE
5
224
100
AcDbEntity
8
INTERIOR_PROFILES
100
AcDbCircle
10
9.2619466543571143
20
326.26194671024916
30
0
40
6.4999999999999858
210
0
220
0
230
-1
0
CIRCLE
5
225
100
AcDbEntity
8
INTERIOR_PROFILES
100
AcDbCircle
10
9.2619466765976348
20
527.26194671060318
30
0
40
3.2500000000000284
210
0
220
0
230
-1
0
CIRCLE
5
226
100
AcDbEntity
8
INTERIOR_PROFILES
100
AcDbCircle
10
9.2619466766038734
20
59.261946710603155
30
0
40
3.2500000000000018
210
0
220
0
230
-1
0
CIRCLE
5
227
100
AcDbEntity
8
INTERIOR_PROFILES
100
AcDbCircle
10
9.261946676590842
20
511.26194671060313
30
0
40
6.4999999999999858
210
0
220
0
230
-1
0
CIRCLE
5
228
100
AcDbEntity
8
INTERIOR_PROFILES
100
AcDbCircle
10
-769.2619467056777
20
154.76194671020679
30
0
40
6.4999999999999858
210
0
220
0
230
-1
0
CIRCLE
5
229
100
AcDbEntity
8
INTERIOR_PROFILES
100
AcDbCircle
10
-769.26194670567679
20
17.261946710207781
30
0
40
1.7000000000000193
210
0
220
0
230
-1
0
CIRCLE
5
230
100
AcDbEntity
8
INTERIOR_PROFILES
100
AcDbCircle
10
-769.26194670638267
20
304.26194671060563
30
0
40
3.2499999999999929
210
0
220
0
230
-1
0
CIRCLE
5
231
100
AcDbEntity
8
INTERIOR_PROFILES
100
AcDbCircle
10
9.2619466766042073
20
27.261946710603269
30
0
40
3.2500000000000018
210
0
220
0
230
-1
0
CIRCLE
5
232
100
AcDbEntity
8
INTERIOR_PROFILES
100
AcDbCircle
10
9.261946676560294
20
551.26194671070334
30
0
40
1.7000000000000171
210
0
220
0
230
-1
0
CIRCLE
5
233
100
AcDbEntity
8
INTERIOR_PROFILES
100
AcDbCircle
10
9.2619466766007292
20
272.26194671060318
30
0
40
3.2499999999999929
210
0
220
0
230
-1
0
CIRCLE
5
234
100
AcDbEntity
8
INTERIOR_PROFILES
100
AcDbCircle
10
-95.999999999936591
20
65.261946710583416
30
0
40
1.7000000000000171
210
0
220
0
230
-1
0
CIRCLE
5
235
100
AcDbEntity
8
INTERIOR_PROFILES
100
AcDbCircle
10
-95.999999999934161
20
193.2619467105834
30
0
40
1.7000000000000171
210
0
220
0
230
-1
0
CIRCLE
5
236
100
AcDbEntity
8
INTERIOR_PROFILES
100
AcDbCircle
10
9.2619466765983312
20
495.26194671060307
30
0
40
3.2500000000000284
210
0
220
0
230
-1
0
CIRCLE
5
237
100
AcDbEntity
8
INTERIOR_PROFILES
100
AcDbCircle
10
-769.26194670638222
20
272.26194671060563
30
0
40
3.2499999999999929
210
0
220
0
230
-1
0
CIRCLE
5
238
100
AcDbEntity
8
INTERIOR_PROFILES
100
AcDbCircle
10
-769.26194670638051
20
27.261946710605827
30
0
40
3.2500000000000018
210
0
220
0
230
-1
0
CIRCLE
5
239
100
AcDbEntity
8
INTERIOR_PROFILES
100
AcDbCircle
10
-769.26194670638074
20
59.261946710605713
30
0
40
3.2500000000000018
210
0
220
0
230
-1
0
CIRCLE
5
240
100
AcDbEntity
8
INTERIOR_PROFILES
100
AcDbCircle
10
9.2619466543373736
20
373.26194671072926
30
0
40
1.7000000000000171
210
0
220
0
230
-1
0
CIRCLE
5
241
100
AcDbEntity
8
INTERIOR_PROFILES
100
AcDbCircle
10
9.2619466765715046
20
573.26194671073199
30
0
40
1.7000000000000171
210
0
220
0
230
-1
0
CIRCLE
5
242
100
AcDbEntity
8
INTERIOR_PROFILES
100
AcDbCircle
10
9.2619466543611306
20
17.261946710204228
30
0
40
1.7000000000000193
210
0
220
0
230
-1
0
CIRCLE
5
243
100
AcDbEntity
8
INTERIOR_PROFILES
100
AcDbCircle
10
-95.999999999935454
20
97.261946710583373
30
0
40
1.7000000000000171
210
0
220
0
230
-1
0
CIRCLE
5
244
100
AcDbEntity
8
INTERIOR_PROFILES
100
AcDbCircle
10
-663.99999999993668
20
65.261946710573469
30
0
40
1.7000000000000171
210
0
220
0
230
-1
0
CIRCLE
5
245
100
AcDbEntity
8
INTERIOR_PROFILES
100
AcDbCircle
10
-663.99999999993099
20
513.26194671057294
30
0
40
1.7000000000000171
210
0
220
0
230
-1
0
CIRCLE
5
246
100
AcDbEntity
8
INTERIOR_PROFILES
100
AcDbCircle
10
-663.99999999993372
20
321.2619467105734
30
0
40
1.699999999999946
210
0
220
0
230
-1
0
CIRCLE
5
247
100
AcDbEntity
8
INTERIOR_PROFILES
100
AcDbCircle
10
-663.99999999993543
20
129.26194671057345
30
0
40
1.7000000000000171
210
0
220
0
230
-1
0
CIRCLE
5
248
100
AcDbEntity
8
INTERIOR_PROFILES
100
AcDbCircle
10
-663.9999999999352
20
161.26194671057249
30
0
40
1.7000000000000171
210
0
220
0
230
-1
0
CIRCLE
5
249
100
AcDbEntity
8
INTERIOR_PROFILES
100
AcDbCircle
10
-663.99999999993508
20
193.26194671057345
30
0
40
1.7000000000000171
210
0
220
0
230
-1
0
CIRCLE
5
250
100
AcDbEntity
8
INTERIOR_PROFILES
100
AcDbCircle
10
-95.999999999933948
20
257.2619467105834
30
0
40
1.6999999999999815
210
0
220
0
230
-1
0
CIRCLE
5
251
100
AcDbEntity
8
INTERIOR_PROFILES
100
AcDbCircle
10
-663.99999999993395
20
257.26194671057351
30
0
40
1.6999999999999815
210
0
220
0
230
-1
0
CIRCLE
5
252
100
AcDbEntity
8
INTERIOR_PROFILES
100
AcDbCircle
10
-663.99999999993395
20
289.2619467105734
30
0
40
1.6999999999999815
210
0
220
0
230
-1
0
CIRCLE
5
253
100
AcDbEntity
8
INTERIOR_PROFILES
100
AcDbCircle
10
-95.999999999930992
20
513.26194671058374
30
0
40
1.7000000000000171
210
0
220
0
230
-1
0
CIRCLE
5
254
100
AcDbEntity
8
INTERIOR_PROFILES
100
AcDbCircle
10
-95.999999999931106
20
481.26194671058374
30
0
40
1.7000000000000171
210
0
220
0
230
-1
0
CIRCLE
5
255
100
AcDbEntity
8
INTERIOR_PROFILES
100
AcDbCircle
10
-95.999999999935341
20
129.2619467105834
30
0
40
1.7000000000000171
210
0
220
0
230
-1
0
CIRCLE
5
256
100
AcDbEntity
8
INTERIOR_PROFILES
100
AcDbCircle
10
-95.999999999936719
20
33.261946710583459
30
0
40
1.7000000000000215
210
0
220
0
230
-1
0
CIRCLE
5
257
100
AcDbEntity
8
INTERIOR_PROFILES
100
AcDbCircle
10
-95.999999999933834
20
289.26194671058335
30
0
40
1.6999999999999815
210
0
220
0
230
-1
0
CIRCLE
5
258
100
AcDbEntity
8
INTERIOR_PROFILES
100
AcDbCircle
10
-663.99999999993258
20
353.26194671057345
30
0
40
1.699999999999946
210
0
220
0
230
-1
0
CIRCLE
5
259
100
AcDbEntity
8
INTERIOR_PROFILES
100
AcDbCircle
10
-95.999999999933706
20
321.2619467105834
30
0
40
1.699999999999946
210
0
220
0
230
-1
0
CIRCLE
5
260
100
AcDbEntity
8
INTERIOR_PROFILES
100
AcDbCircle
10
-663.99999999993679
20
33.26194671057344
30
0
40
1.7000000000000215
210
0
220
0
230
-1
0
CIRCLE
5
261
100
AcDbEntity
8
INTERIOR_PROFILES
100
AcDbCircle
10
-663.99999999993224
20
417.26194671057243
30
0
40
1.7000000000000171
210
0
220
0
230
-1
0
CIRCLE
5
262
100
AcDbEntity
8
INTERIOR_PROFILES
100
AcDbCircle
10
-95.999999999932314
20
417.2619467105834
30
0
40
1.7000000000000171
210
0
220
0
230
-1
0
CIRCLE
5
263
100
AcDbEntity
8
INTERIOR_PROFILES
100
AcDbCircle
10
-528.0000000000739
20
257.26194671057698
30
0
40
1.6999999999999815
210
0
220
0
230
-1
0
CIRCLE
5
264
100
AcDbEntity
8
INTERIOR_PROFILES
100
AcDbCircle
10
-528.00000000007515
20
481.26194671057704
30
0
40
1.7000000000000171
210
0
220
0
230
-1
0
CIRCLE
5
265
100
AcDbEntity
8
INTERIOR_PROFILES
100
AcDbCircle
10
-231.99999999993122
20
449.26194671057596
30
0
40
1.7000000000000171
210
0
220
0
230
-1
0
CIRCLE
5
266
100
AcDbEntity
8
INTERIOR_PROFILES
100
AcDbCircle
10
-231.99999999993656
20
65.261946710575955
30
0
40
1.7000000000000171
210
0
220
0
230
-1
0
CIRCLE
5
267
100
AcDbEntity
8
INTERIOR_PROFILES
100
AcDbCircle
10
-663.99999999993395
20
225.26194671057345
30
0
40
1.7000000000000171
210
0
220
0
230
-1
0
CIRCLE
5
268
100
AcDbEntity
8
INTERIOR_PROFILES
100
AcDbCircle
10
-231.99999999993369
20
321.2619467105759
30
0
40
1.699999999999946
210
0
220
0
230
-1
0
CIRCLE
5
269
100
AcDbEntity
8
INTERIOR_PROFILES
100
AcDbCircle
10
-95.999999999932555
20
353.2619467105834
30
0
40
1.699999999999946
210
0
220
0
230
-1
0
CIRCLE
5
270
100
AcDbEntity
8
INTERIOR_PROFILES
100
AcDbCircle
10
-144.99999999987875
20
573.26194671064093
30
0
40
1.7000000000000171
210
0
220
0
230
-1
0
CIRCLE
5
271
100
AcDbEntity
8
INTERIOR_PROFILES
100
AcDbCircle
10
-528.00000000007446
20
417.26194671057692
30
0
40
1.7000000000000171
210
0
220
0
230
-1
0
CIRCLE
5
272
100
AcDbEntity
8
INTERIOR_PROFILES
100
AcDbCircle
10
-528.00000000007458
20
353.26194671057692
30
0
40
1.699999999999946
210
0
220
0
230
-1
0
CIRCLE
5
273
100
AcDbEntity
8
INTERIOR_PROFILES
100
AcDbCircle
10
-663.99999999993258
20
385.2619467105734
30
0
40
1.699999999999946
210
0
220
0
230
-1
0
CIRCLE
5
274
100
AcDbEntity
8
INTERIOR_PROFILES
100
AcDbCircle
10
-95.999999999931191
20
449.2619467105834
30
0
40
1.7000000000000171
210
0
220
0
230
-1
0
CIRCLE
5
275
100
AcDbEntity
8
INTERIOR_PROFILES
100
AcDbCircle
10
-231.99999999993389
20
257.26194671057601
30
0
40
1.6999999999999815
210
0
220
0
230
-1
0
CIRCLE
5
276
100
AcDbEntity
8
INTERIOR_PROFILES
100
AcDbCircle
10
-528.00000000007367
20
321.26194671057692
30
0
40
1.699999999999946
210
0
220
0
230
-1
0
CIRCLE
5
277
100
AcDbEntity
8
INTERIOR_PROFILES
100
AcDbCircle
10
-528.0000000000739
20
289.26194671057692
30
0
40
1.6999999999999815
210
0
220
0
230
-1
0
CIRCLE
5
278
100
AcDbEntity
8
INTERIOR_PROFILES
100
AcDbCircle
10
-95.999999999932427
20
385.2619467105834
30
0
40
1.699999999999946
210
0
220
0
230
-1
0
CIRCLE
5
279
100
AcDbEntity
8
INTERIOR_PROFILES
100
AcDbCircle
10
-554.99999999987881
20
573.26194671064241
30
0
40
1.7000000000000171
210
0
220
0
230
-1
0
CIRCLE
5
280
100
AcDbEntity
8
INTERIOR_PROFILES
100
AcDbCircle
10
-231.99999999993534
20
129.26194671057596
30
0
40
1.7000000000000171
210
0
220
0
230
-1
0
CIRCLE
5
281
100
AcDbEntity
8
INTERIOR_PROFILES
100
AcDbCircle
10
-95.999999999934076
20
225.2619467105834
30
0
40
1.7000000000000171
210
0
220
0
230
-1
0
CIRCLE
5
282
100
AcDbEntity
8
INTERIOR_PROFILES
100
AcDbCircle
10
-615.00000000012687
20
573.26194671064252
30
0
40
1.7000000000000171
210
0
220
0
230
-1
0
CIRCLE
5
283
100
AcDbEntity
8
INTERIOR_PROFILES
100
AcDbCircle
10
-231.99999999993099
20
513.26194671057601
30
0
40
1.7000000000000171
210
0
220
0
230
-1
0
CIRCLE
5
284
100
AcDbEntity
8
INTERIOR_PROFILES
100
AcDbCircle
10
-175.00000000000679
20
573.26194671058397
30
0
40
1.7000000000000171
210
0
220
0
230
-1
0
CIRCLE
5
285
100
AcDbEntity
8
INTERIOR_PROFILES
100
AcDbCircle
10
-231.99999999993668
20
33.261946710575856
30
0
40
1.7000000000000215
210
0
220
0
230
-1
0
CIRCLE
5
286
100
AcDbEntity
8
INTERIOR_PROFILES
100
AcDbCircle
10
-663.99999999993554
20
97.261946710573426
30
0
40
1.7000000000000171
210
0
220
0
230
-1
0
CIRCLE
5
287
100
AcDbEntity
8
INTERIOR_PROFILES
100
AcDbCircle
10
-231.99999999993111
20
481.26194671057601
30
0
40
1.7000000000000171
210
0
220
0
230
-1
0
CIRCLE
5
288
100
AcDbEntity
8
INTERIOR_PROFILES
100
AcDbCircle
10
-231.99999999993381
20
289.26194671057596
30
0
40
1.6999999999999815
210
0
220
0
230
-1
0
CIRCLE
5
289
100
AcDbEntity
8
INTERIOR_PROFILES
100
AcDbCircle
10
-528.00000000007321
20
193.26194671057698
30
0
40
1.7000000000000171
210
0
220
0
230
-1
0
CIRCLE
5
290
100
AcDbEntity
8
INTERIOR_PROFILES
100
AcDbCircle
10
-95.999999999935213
20
161.26194671058335
30
0
40
1.7000000000000171
210
0
220
0
230
-1
0
CIRCLE
5
291
100
AcDbEntity
8
INTERIOR_PROFILES
100
AcDbCircle
10
-663.99999999993133
20
481.26194671057294
30
0
40
1.7000000000000171
210
0
220
0
230
-1
0
CIRCLE
5
292
100
AcDbEntity
8
INTERIOR_PROFILES
100
AcDbCircle
10
-231.9999999999323
20
417.2619467105759
30
0
40
1.7000000000000171
210
0
220
0
230
-1
0
CIRCLE
5
293
100
AcDbEntity
8
INTERIOR_PROFILES
100
AcDbCircle
10
-528.00000000007276
20
33.261946710576922
30
0
40
1.7000000000000215
210
0
220
0
230
-1
0
CIRCLE
5
294
100
AcDbEntity
8
INTERIOR_PROFILES
100
AcDbCircle
10
-463.99999999993111
20
513.26194671057681
30
0
40
1.7000000000000171
210
0
220
0
230
-1
0
CIRCLE
5
295
100
AcDbEntity
8
INTERIOR_PROFILES
100
AcDbCircle
10
-205.00000000012679
20
573.26194671064115
30
0
40
1.7000000000000171
210
0
220
0
230
-1
0
CIRCLE
5
296
100
AcDbEntity
8
INTERIOR_PROFILES
100
AcDbCircle
10
-463.99999999993486
20
193.26194671057678
30
0
40
1.7000000000000171
210
0
220
0
230
-1
0
CIRCLE
5
297
100
AcDbEntity
8
INTERIOR_PROFILES
100
AcDbCircle
10
-463.99999999993656
20
65.261946710576808
30
0
40
1.7000000000000171
210
0
220
0
230
-1
0
CIRCLE
5
298
100
AcDbEntity
8
INTERIOR_PROFILES
100
AcDbCircle
10
-528.00000000007265
20
65.261946710577021
30
0
40
1.7000000000000171
210
0
220
0
230
-1
0
CIRCLE
5
299
100
AcDbEntity
8
INTERIOR_PROFILES
100
AcDbCircle
10
-295.99999999993275
20
353.26194671057908
30
0
40
1.699999999999946
210
0
220
0
230
-1
0
CIRCLE
5
300
100
AcDbEntity
8
INTERIOR_PROFILES
100
AcDbCircle
10
-585.00000000000682
20
573.26194671058533
30
0
40
1.7000000000000171
210
0
220
0
230
-1
0
CIRCLE
5
301
100
AcDbEntity
8
INTERIOR_PROFILES
100
AcDbCircle
10
-528.00000000007503
20
513.26194671057704
30
0
40
1.7000000000000171
210
0
220
0
230
-1
0
CIRCLE
5
302
100
AcDbEntity
8
INTERIOR_PROFILES
100
AcDbCircle
10
-231.99999999993247
20
385.26194671057596
30
0
40
1.699999999999946
210
0
220
0
230
-1
0
CIRCLE
5
303
100
AcDbEntity
8
INTERIOR_PROFILES
100
AcDbCircle
10
-295.99999999993639
20
65.261946710579082
30
0
40
1.7000000000000171
210
0
220
0
230
-1
0
CIRCLE
5
304
100
AcDbEntity
8
INTERIOR_PROFILES
100
AcDbCircle
10
-295.99999999993202
20
417.26194671057908
30
0
40
1.7000000000000171
210
0
220
0
230
-1
0
CIRCLE
5
305
100
AcDbEntity
8
INTERIOR_PROFILES
100
AcDbCircle
10
-231.99999999993548
20
97.261946710575913
30
0
40
1.7000000000000171
210
0
220
0
230
-1
0
CIRCLE
5
306
100
AcDbEntity
8
INTERIOR_PROFILES
100
AcDbCircle
10
-231.99999999993497
20
225.26194671057596
30
0
40
1.7000000000000171
210
0
220
0
230
-1
0
CIRCLE
5
307
100
AcDbEntity
8
INTERIOR_PROFILES
100
AcDbCircle
10
-528.00000000007333
20
129.26194671057701
30
0
40
1.7000000000000171
210
0
220
0
230
-1
0
CIRCLE
5
308
100
AcDbEntity
8
INTERIOR_PROFILES
100
AcDbCircle
10
-295.99999999993548
20
129.26194671057908
30
0
40
1.7000000000000171
210
0
220
0
230
-1
0
CIRCLE
5
309
100
AcDbEntity
8
INTERIOR_PROFILES
100
AcDbCircle
10
-463.99999999993526
20
161.26194671057675
30
0
40
1.7000000000000171
210
0
220
0
230
-1
0
CIRCLE
5
310
100
AcDbEntity
8
INTERIOR_PROFILES
100
AcDbCircle
10
-231.99999999993256
20
353.2619467105759
30
0
40
1.699999999999946
210
0
220
0
230
-1
0
CIRCLE
5
311
100
AcDbEntity
8
INTERIOR_PROFILES
100
AcDbCircle
10
-528.00000000007492
20
545.26194671057715
30
0
40
1.7000000000000171
210
0
220
0
230
-1
0
CIRCLE
5
312
100
AcDbEntity
8
INTERIOR_PROFILES
100
AcDbCircle
10
-463.99999999993383
20
289.26194671057669
30
0
40
1.6999999999999815
210
0
220
0
230
-1
0
CIRCLE
5
313
100
AcDbEntity
8
INTERIOR_PROFILES
100
AcDbCircle
10
-231.99999999993508
20
193.26194671057593
30
0
40
1.7000000000000171
210
0
220
0
230
-1
0
CIRCLE
5
314
100
AcDbEntity
8
INTERIOR_PROFILES
100
AcDbCircle
10
-463.99999999993292
20
353.26194671057669
30
0
40
1.699999999999946
210
0
220
0
230
-1
0
CIRCLE
5
315
100
AcDbEntity
8
INTERIOR_PROFILES
100
AcDbCircle
10
-231.99999999993088
20
545.26194671057613
30
0
40
1.7000000000000171
210
0
220
0
230
-1
0
CIRCLE
5
316
100
AcDbEntity
8
INTERIOR_PROFILES
100
AcDbCircle
10
-463.99999999993156
20
481.26194671057681
30
0
40
1.7000000000000171
210
0
220
0
230
-1
0
CIRCLE
5
317
100
AcDbEntity
8
INTERIOR_PROFILES
100
AcDbCircle
10
-231.99999999993523
20
161.2619467105759
30
0
40
1.7000000000000171
210
0
220
0
230
-1
0
CIRCLE
5
318
100
AcDbEntity
8
INTERIOR_PROFILES
100
AcDbCircle
10
-463.99999999993332
20
321.26194671057669
30
0
40
1.699999999999946
210
0
220
0
230
-1
0
CIRCLE
5
319
100
AcDbEntity
8
INTERIOR_PROFILES
100
AcDbCircle
10
-528.00000000007446
20
385.26194671057692
30
0
40
1.699999999999946
210
0
220
0
230
-1
0
CIRCLE
5
320
100
AcDbEntity
8
INTERIOR_PROFILES
100
AcDbCircle
10
-528.00000000007333
20
161.26194671057698
30
0
40
1.7000000000000171
210
0
220
0
230
-1
0
CIRCLE
5
321
100
AcDbEntity
8
INTERIOR_PROFILES
100
AcDbCircle
10
-528.00000000007356
20
97.261946710576979
30
0
40
1.7000000000000171
210
0
220
0
230
-1
0
CIRCLE
5
322
100
AcDbEntity
8
INTERIOR_PROFILES
100
AcDbCircle
10
-528.0000000000731
20
225.26194671057704
30
0
40
1.7000000000000171
210
0
220
0
230
-1
0
CIRCLE
5
323
100
AcDbEntity
8
INTERIOR_PROFILES
100
AcDbCircle
10
-528.00000000007526
20
449.26194671057704
30
0
40
1.7000000000000171
210
0
220
0
230
-1
0
CIRCLE
5
324
100
AcDbEntity
8
INTERIOR_PROFILES
100
AcDbCircle
10
-295.99999999993594
20
97.26194671057911
30
0
40
1.7000000000000171
210
0
220
0
230
-1
0
CIRCLE
5
325
100
AcDbEntity
8
INTERIOR_PROFILES
100
AcDbCircle
10
-295.99999999993508
20
161.26194671057908
30
0
40
1.7000000000000171
210
0
220
0
230
-1
0
CIRCLE
5
326
100
AcDbEntity
8
INTERIOR_PROFILES
100
AcDbCircle
10
-295.99999999993349
20
289.26194671057908
30
0
40
1.6999999999999815
210
0
220
0
230
-1
0
CIRCLE
5
327
100
AcDbEntity
8
INTERIOR_PROFILES
100
AcDbCircle
10
-495.99999999993094
20
545.26194671057101
30
0
40
1.7000000000000171
210
0
220
0
230
-1
0
CIRCLE
5
328
100
AcDbEntity
8
INTERIOR_PROFILES
100
AcDbCircle
10
-463.99999999993429
20
545.26194671057306
30
0
40
1.7000000000000171
210
0
220
0
230
-1
0
CIRCLE
5
329
100
AcDbEntity
8
INTERIOR_PROFILES
100
AcDbCircle
10
-295.99999999993184
20
449.26194671057914
30
0
40
1.7000000000000171
210
0
220
0
230
-1
0
CIRCLE
5
330
100
AcDbEntity
8
INTERIOR_PROFILES
100
AcDbCircle
10
-295.9999999999331
20
321.26194671057908
30
0
40
1.699999999999946
210
0
220
0
230
-1
0
CIRCLE
5
331
100
AcDbEntity
8
INTERIOR_PROFILES
100
AcDbCircle
10
-463.99999999993258
20
385.26194671057669
30
0
40
1.699999999999946
210
0
220
0
230
-1
0
CIRCLE
5
332
100
AcDbEntity
8
INTERIOR_PROFILES
100
AcDbCircle
10
-279.99999999999881
20
573.2619467105867
30
0
40
1.7000000000000171
210
0
220
0
230
-1
0
CIRCLE
5
333
100
AcDbEntity
8
INTERIOR_PROFILES
100
AcDbCircle
10
-263.99999999993389
20
545.26194671057226
30
0
40
1.7000000000000171
210
0
220
0
230
-1
0
CIRCLE
5
334
100
AcDbEntity
8
INTERIOR_PROFILES
100
AcDbCircle
10
-295.9999999999344
20
225.26194671057908
30
0
40
1.7000000000000171
210
0
220
0
230
-1
0
CIRCLE
5
335
100
AcDbEntity
8
INTERIOR_PROFILES
100
AcDbCircle
10
-295.99999999993042
20
545.26194671057033
30
0
40
1.7000000000000171
210
0
220
0
230
-1
0
CIRCLE
5
336
100
AcDbEntity
8
INTERIOR_PROFILES
100
AcDbCircle
10
-463.99999999993605
20
97.261946710576765
30
0
40
1.7000000000000171
210
0
220
0
230
-1
0
CIRCLE
5
337
100
AcDbEntity
8
INTERIOR_PROFILES
100
AcDbCircle
10
-479.9999999994597
20
19.261946710189832
30
0
40
1.6999999999998749
210
0
220
0
230
-1
0
CIRCLE
5
338
100
AcDbEntity
8
INTERIOR_PROFILES
100
AcDbCircle
10
-463.99999999993167
20
449.26194671057669
30
0
40
1.7000000000000171
210
0
220
0
230
-1
0
CIRCLE
5
339
100
AcDbEntity
8
INTERIOR_PROFILES
100
AcDbCircle
10
-295.99999999993247
20
385.26194671057908
30
0
40
1.699999999999946
210
0
220
0
230
-1
0
CIRCLE
5
340
100
AcDbEntity
8
INTERIOR_PROFILES
100
AcDbCircle
10
-579.99999999945976
20
19.261946710190117
30
0
40
1.6999999999998749
210
0
220
0
230
-1
0
CIRCLE
5
341
100
AcDbEntity
8
INTERIOR_PROFILES
100
AcDbCircle
10
-279.99999999945976
20
19.261946710189051
30
0
40
1.6999999999998394
210
0
220
0
230
-1
0
CIRCLE
5
342
100
AcDbEntity
8
INTERIOR_PROFILES
100
AcDbCircle
10
-179.99999999945973
20
19.261946710188695
30
0
40
1.6999999999998394
210
0
220
0
230
-1
0
CIRCLE
5
343
100
AcDbEntity
8
INTERIOR_PROFILES
100
AcDbCircle
10
-159.99999999993946
20
97.261946710583587
30
0
40
1.6999999999999993
210
0
220
0
230
-1
0
CIRCLE
5
344
100
AcDbEntity
8
INTERIOR_PROFILES
100
AcDbCircle
10
-295.99999999993662
20
33.261946710579124
30
0
40
1.7000000000000215
210
0
220
0
230
-1
0
CIRCLE
5
345
100
AcDbEntity
8
INTERIOR_PROFILES
100
AcDbCircle
10
-463.99999999993219
20
417.26194671057669
30
0
40
1.7000000000000171
210
0
220
0
230
-1
0
CIRCLE
5
346
100
AcDbEntity
8
INTERIOR_PROFILES
100
AcDbCircle
10
-479.99999999999898
20
573.26194671058727
30
0
40
1.7000000000000171
210
0
220
0
230
-1
0
CIRCLE
5
347
100
AcDbEntity
8
INTERIOR_PROFILES
100
AcDbCircle
10
-295.99999999993099
20
513.26194671057908
30
0
40
1.7000000000000171
210
0
220
0
230
-1
0
CIRCLE
5
348
100
AcDbEntity
8
INTERIOR_PROFILES
100
AcDbCircle
10
-159.99999999993804
20
225.26194671058363
30
0
40
1.6999999999999993
210
0
220
0
230
-1
0
CIRCLE
5
349
100
AcDbEntity
8
INTERIOR_PROFILES
100
AcDbCircle
10
-159.99999999993813
20
193.2619467105836
30
0
40
1.6999999999999993
210
0
220
0
230
-1
0
CIRCLE
5
350
100
AcDbEntity
8
INTERIOR_PROFILES
100
AcDbCircle
10
-159.99999999993656
20
353.26194671058363
30
0
40
1.6999999999999993
210
0
220
0
230
-1
0
CIRCLE
5
351
100
AcDbEntity
8
INTERIOR_PROFILES
100
AcDbCircle
10
-463.99999999993679
20
33.261946710576709
30
0
40
1.7000000000000215
210
0
220
0
230
-1
0
CIRCLE
5
352
100
AcDbEntity
8
INTERIOR_PROFILES
100
AcDbCircle
10
-463.99999999993548
20
129.26194671057681
30
0
40
1.7000000000000171
210
0
220
0
230
-1
0
CIRCLE
5
353
100
AcDbEntity
8
INTERIOR_PROFILES
100
AcDbCircle
10
-295.999999999934
20
257.26194671057908
30
0
40
1.6999999999999815
210
0
220
0
230
-1
0
CIRCLE
5
354
100
AcDbEntity
8
INTERIOR_PROFILES
100
AcDbCircle
10
-295.99999999993139
20
481.2619467105792
30
0
40
1.7000000000000171
210
0
220
0
230
-1
0
CIRCLE
5
355
100
AcDbEntity
8
INTERIOR_PROFILES
100
AcDbCircle
10
-295.99999999993463
20
193.26194671057914
30
0
40
1.7000000000000171
210
0
220
0
230
-1
0
CIRCLE
5
356
100
AcDbEntity
8
INTERIOR_PROFILES
100
AcDbCircle
10
-463.99999999993412
20
257.26194671057675
30
0
40
1.6999999999999815
210
0
220
0
230
-1
0
CIRCLE
5
357
100
AcDbEntity
8
INTERIOR_PROFILES
100
AcDbCircle
10
-463.99999999993463
20
225.26194671057681
30
0
40
1.7000000000000171
210
0
220
0
230
-1
0
CIRCLE
5
358
100
AcDbEntity
8
INTERIOR_PROFILES
100
AcDbCircle
10
-159.999999999934
20
513.26194671058397
30
0
40
1.6999999999999993
210
0
220
0
230
-1
0
CIRCLE
5
359
100
AcDbEntity
8
INTERIOR_PROFILES
100
AcDbCircle
10
-599.99999999993815
20
225.26194671057226
30
0
40
1.7000000000000171
210
0
220
0
230
-1
0
CIRCLE
5
360
100
AcDbEntity
8
INTERIOR_PROFILES
100
AcDbCircle
10
-599.99999999993508
20
481.2619467105726
30
0
40
1.7000000000000171
210
0
220
0
230
-1
0
CIRCLE
5
361
100
AcDbEntity
8
INTERIOR_PROFILES
100
AcDbCircle
10
-159.99999999993668
20
321.26194671058363
30
0
40
1.6999999999999993
210
0
220
0
230
-1
0
CIRCLE
5
362
100
AcDbEntity
8
INTERIOR_PROFILES
100
AcDbCircle
10
-599.99999999993963
20
65.261946710572261
30
0
40
1.7000000000000171
210
0
220
0
230
-1
0
CIRCLE
5
363
100
AcDbEntity
8
INTERIOR_PROFILES
100
AcDbCircle
10
-599.9999999999394
20
129.26194671057226
30
0
40
1.7000000000000171
210
0
220
0
230
-1
0
CIRCLE
5
364
100
AcDbEntity
8
INTERIOR_PROFILES
100
AcDbCircle
10
-599.99999999993645
20
385.26194671057215
30
0
40
1.7000000000000171
210
0
220
0
230
-1
0
CIRCLE
5
365
100
AcDbEntity
8
INTERIOR_PROFILES
100
AcDbCircle
10
-159.99999999993821
20
161.26194671058357
30
0
40
1.6999999999999993
210
0
220
0
230
-1
0
CIRCLE
5
366
100
AcDbEntity
8
INTERIOR_PROFILES
100
AcDbCircle
10
-159.99999999993969
20
33.261946710583672
30
0
40
1.6999999999999993
210
0
220
0
230
-1
0
CIRCLE
5
367
100
AcDbEntity
8
INTERIOR_PROFILES
100
AcDbCircle
10
-159.99999999993386
20
545.26194671058499
30
0
40
1.6999999999999993
210
0
220
0
230
-1
0
CIRCLE
5
368
100
AcDbEntity
8
INTERIOR_PROFILES
100
AcDbCircle
10
-159.9999999999352
20
449.26194671058369
30
0
40
1.6999999999999993
210
0
220
0
230
-1
0
CIRCLE
5
369
100
AcDbEntity
8
INTERIOR_PROFILES
100
AcDbCircle
10
-599.99999999993656
20
353.26194671057215
30
0
40
1.7000000000000171
210
0
220
0
230
-1
0
CIRCLE
5
370
100
AcDbEntity
8
INTERIOR_PROFILES
100
AcDbCircle
10
-159.99999999993958
20
65.261946710583629
30
0
40
1.6999999999999993
210
0
220
0
230
-1
0
CIRCLE
5
371
100
AcDbEntity
8
INTERIOR_PROFILES
100
AcDbCircle
10
-159.9999999999354
20
385.26194671058363
30
0
40
1.6999999999999993
210
0
220
0
230
-1
0
CIRCLE
5
372
100
AcDbEntity
8
INTERIOR_PROFILES
100
AcDbCircle
10
-159.99999999993511
20
481.26194671058397
30
0
40
1.6999999999999993
210
0
220
0
230
-1
0
CIRCLE
5
373
100
AcDbEntity
8
INTERIOR_PROFILES
100
AcDbCircle
10
-663.99999999993395
20
545.26194671057374
30
0
40
1.7000000000000171
210
0
220
0
230
-1
0
CIRCLE
5
374
100
AcDbEntity
8
INTERIOR_PROFILES
100
AcDbCircle
10
-599.99999999993395
20
545.26194671057169
30
0
40
1.7000000000000171
210
0
220
0
230
-1
0
CIRCLE
5
375
100
AcDbEntity
8
INTERIOR_PROFILES
100
AcDbCircle
10
-599.99999999994077
20
33.261946710573227
30
0
40
1.7000000000000171
210
0
220
0
230
-1
0
CIRCLE
5
376
100
AcDbEntity
8
INTERIOR_PROFILES
100
AcDbCircle
10
-159.99999999993835
20
129.26194671058363
30
0
40
1.6999999999999993
210
0
220
0
230
-1
0
CIRCLE
5
377
100
AcDbEntity
8
INTERIOR_PROFILES
100
AcDbCircle
10
-599.9999999999369
20
289.26194671057215
30
0
40
1.7000000000000171
210
0
220
0
230
-1
0
CIRCLE
5
378
100
AcDbEntity
8
INTERIOR_PROFILES
100
AcDbCircle
10
-159.99999999993693
20
257.26194671058363
30
0
40
1.6999999999999993
210
0
220
0
230
-1
0
CIRCLE
5
379
100
AcDbEntity
8
INTERIOR_PROFILES
100
AcDbCircle
10
-95.999999999933877
20
545.26194671058431
30
0
40
1.6999999999999993
210
0
220
0
230
-1
0
CIRCLE
5
380
100
AcDbEntity
8
INTERIOR_PROFILES
100
AcDbCircle
10
-599.99999999993815
20
193.26194671057232
30
0
40
1.7000000000000171
210
0
220
0
230
-1
0
CIRCLE
5
381
100
AcDbEntity
8
INTERIOR_PROFILES
100
AcDbCircle
10
-599.99999999993508
20
513.2619467105726
30
0
40
1.7000000000000171
210
0
220
0
230
-1
0
CIRCLE
5
382
100
AcDbEntity
8
INTERIOR_PROFILES
100
AcDbCircle
10
-599.99999999993827
20
161.26194671057226
30
0
40
1.7000000000000171
210
0
220
0
230
-1
0
CIRCLE
5
383
100
AcDbEntity
8
INTERIOR_PROFILES
100
AcDbCircle
10
-599.99999999993793
20
257.2619467105722
30
0
40
1.7000000000000171
210
0
220
0
230
-1
0
CIRCLE
5
384
100
AcDbEntity
8
INTERIOR_PROFILES
100
AcDbCircle
10
-599.99999999993952
20
97.261946710572289
30
0
40
1.7000000000000171
210
0
220
0
230
-1
0
CIRCLE
5
385
100
AcDbEntity
8
INTERIOR_PROFILES
100
AcDbCircle
10
-159.99999999993679
20
289.26194671058363
30
0
40
1.6999999999999993
210
0
220
0
230
-1
0
CIRCLE
5
386
100
AcDbEntity
8
INTERIOR_PROFILES
100
AcDbCircle
10
-599.99999999993543
20
417.26194671057215
30
0
40
1.7000000000000171
210
0
220
0
230
-1
0
CIRCLE
5
387
100
AcDbEntity
8
INTERIOR_PROFILES
100
AcDbCircle
10
-599.99999999993531
20
449.26194671057215
30
0
40
1.7000000000000171
210
0
220
0
230
-1
0
CIRCLE
5
388
100
AcDbEntity
8
INTERIOR_PROFILES
100
AcDbCircle
10
-159.99999999993528
20
417.26194671058363
30
0
40
1.6999999999999993
210
0
220
0
230
-1
0
CIRCLE
5
389
100
AcDbEntity
8
INTERIOR_PROFILES
100
AcDbCircle
10
-599.99999999993679
20
321.2619467105722
30
0
40
1.7000000000000171
210
0
220
0
230
-1
0
CIRCLE
5
390
100
AcDbEntity
8
INTERIOR_PROFILES
100
AcDbCircle
10
-631.99999999993372
20
321.26194671057334
30
0
40
1.7000000000000171
210
0
220
0
230
-1
0
CIRCLE
5
391
100
AcDbEntity
8
INTERIOR_PROFILES
100
AcDbCircle
10
-727.99999999993429
20
193.26194671057061
30
0
40
1.7000000000000171
210
0
220
0
230
-1
0
CIRCLE
5
392
100
AcDbEntity
8
INTERIOR_PROFILES
100
AcDbCircle
10
-727.9999999999352
20
161.26194671057056
30
0
40
1.7000000000000171
210
0
220
0
230
-1
0
CIRCLE
5
393
100
AcDbEntity
8
INTERIOR_PROFILES
100
AcDbCircle
10
-727.99999999993372
20
321.26194671057067
30
0
40
1.7000000000000171
210
0
220
0
230
-1
0
CIRCLE
5
394
100
AcDbEntity
8
INTERIOR_PROFILES
100
AcDbCircle
10
-631.99999999993122
20
481.26194671057277
30
0
40
1.7000000000000171
210
0
220
0
230
-1
0
CIRCLE
5
395
100
AcDbEntity
8
INTERIOR_PROFILES
100
AcDbCircle
10
-750.0000000000108
20
19.261946710761819
30
0
40
1.7000000000000171
210
0
220
0
230
-1
0
CIRCLE
5
396
100
AcDbEntity
8
INTERIOR_PROFILES
100
AcDbCircle
10
-631.99999999993543
20
129.26194671057331
30
0
40
1.7000000000000171
210
0
220
0
230
-1
0
CIRCLE
5
397
100
AcDbEntity
8
INTERIOR_PROFILES
100
AcDbCircle
10
-727.99999999993543
20
129.26194671057061
30
0
40
1.7000000000000171
210
0
220
0
230
-1
0
CIRCLE
5
398
100
AcDbEntity
8
INTERIOR_PROFILES
100
AcDbCircle
10
-631.99999999993554
20
97.261946710573284
30
0
40
1.7000000000000171
210
0
220
0
230
-1
0
CIRCLE
5
399
100
AcDbEntity
8
INTERIOR_PROFILES
100
AcDbCircle
10
-727.99999999993383
20
257.26194671057056
30
0
40
1.7000000000000171
210
0
220
0
230
-1
0
CIRCLE
5
400
100
AcDbEntity
8
INTERIOR_PROFILES
100
AcDbCircle
10
-631.99999999993668
20
33.261946710573298
30
0
40
1.7000000000000171
210
0
220
0
230
-1
0
CIRCLE
5
401
100
AcDbEntity
8
INTERIOR_PROFILES
100
AcDbCircle
10
-631.99999999993224
20
449.26194671057232
30
0
40
1.7000000000000171
210
0
220
0
230
-1
0
CIRCLE
5
402
100
AcDbEntity
8
INTERIOR_PROFILES
100
AcDbCircle
10
-727.99999999993372
20
289.26194671057067
30
0
40
1.7000000000000171
210
0
220
0
230
-1
0
CIRCLE
5
403
100
AcDbEntity
8
INTERIOR_PROFILES
100
AcDbCircle
10
-727.99999999993088
20
513.26194671057067
30
0
40
1.7000000000000171
210
0
220
0
230
-1
0
CIRCLE
5
404
100
AcDbEntity
8
INTERIOR_PROFILES
100
AcDbCircle
10
-727.99999999993247
20
385.26194671057067
30
0
40
1.7000000000000171
210
0
220
0
230
-1
0
CIRCLE
5
405
100
AcDbEntity
8
INTERIOR_PROFILES
100
AcDbCircle
10
-695.99999999993088
20
545.26194671057169
30
0
40
1.7000000000000171
210
0
220
0
230
-1
0
CIRCLE
5
406
100
AcDbEntity
8
INTERIOR_PROFILES
100
AcDbCircle
10
-10.000000000010695
20
19.261946710677122
30
0
40
1.7000000000000004
210
0
220
0
230
-1
0
CIRCLE
5
407
100
AcDbEntity
8
INTERIOR_PROFILES
100
AcDbCircle
10
-727.99999999993088
20
545.26194671057067
30
0
40
1.7000000000000171
210
0
220
0
230
-1
0
CIRCLE
5
408
100
AcDbEntity
8
INTERIOR_PROFILES
100
AcDbCircle
10
-727.99999999993236
20
417.26194671057067
30
0
40
1.7000000000000171
210
0
220
0
230
-1
0
CIRCLE
5
409
100
AcDbEntity
8
INTERIOR_PROFILES
100
AcDbCircle
10
-631.99999999993258
20
353.2619467105734
30
0
40
1.7000000000000171
210
0
220
0
230
-1
0
CIRCLE
5
410
100
AcDbEntity
8
INTERIOR_PROFILES
100
AcDbCircle
10
-631.99999999993383
20
289.26194671057328
30
0
40
1.7000000000000171
210
0
220
0
230
-1
0
CIRCLE
5
411
100
AcDbEntity
8
INTERIOR_PROFILES
100
AcDbCircle
10
-631.9999999999352
20
161.26194671057235
30
0
40
1.7000000000000171
210
0
220
0
230
-1
0
CIRCLE
5
412
100
AcDbEntity
8
INTERIOR_PROFILES
100
AcDbCircle
10
-631.99999999993099
20
513.26194671057283
30
0
40
1.7000000000000171
210
0
220
0
230
-1
0
CIRCLE
5
413
100
AcDbEntity
8
INTERIOR_PROFILES
100
AcDbCircle
10
-631.99999999993236
20
417.26194671057226
30
0
40
1.7000000000000171
210
0
220
0
230
-1
0
CIRCLE
5
414
100
AcDbEntity
8
INTERIOR_PROFILES
100
AcDbCircle
10
-727.99999999993406
20
225.26194671057061
30
0
40
1.7000000000000171
210
0
220
0
230
-1
0
CIRCLE
5
415
100
AcDbEntity
8
INTERIOR_PROFILES
100
AcDbCircle
10
-727.99999999993122
20
449.26194671057061
30
0
40
1.7000000000000171
210
0
220
0
230
-1
0
CIRCLE
5
416
100
AcDbEntity
8
INTERIOR_PROFILES
100
AcDbCircle
10
-631.99999999993395
20
257.26194671057328
30
0
40
1.7000000000000171
210
0
220
0
230
-1
0
CIRCLE
5
417
100
AcDbEntity
8
INTERIOR_PROFILES
100
AcDbCircle
10
-727.99999999993122
20
481.26194671057056
30
0
40
1.7000000000000171
210
0
220
0
230
-1
0
CIRCLE
5
418
100
AcDbEntity
8
INTERIOR_PROFILES
100
AcDbCircle
10
-631.9999999999352
20
193.26194671057328
30
0
40
1.7000000000000171
210
0
220
0
230
-1
0
CIRCLE
5
419
100
AcDbEntity
8
INTERIOR_PROFILES
100
AcDbCircle
10
-727.99999999993258
20
353.26194671057067
30
0
40
1.7000000000000171
210
0
220
0
230
-1
0
CIRCLE
5
420
100
AcDbEntity
8
INTERIOR_PROFILES
100
AcDbCircle
10
-727.99999999993565
20
65.261946710570555
30
0
40
1.7000000000000171
210
0
220
0
230
-1
0
CIRCLE
5
421
100
AcDbEntity
8
INTERIOR_PROFILES
100
AcDbCircle
10
-727.99999999993543
20
97.261946710570584
30
0
40
1.7000000000000171
210
0
220
0
230
-1
0
CIRCLE
5
422
100
AcDbEntity
8
INTERIOR_PROFILES
100
AcDbCircle
10
-363.99999999993076
20
545.26194671058227
30
0
40
1.7000000000000171
210
0
220
0
230
-1
0
CIRCLE
5
423
100
AcDbEntity
8
INTERIOR_PROFILES
100
AcDbCircle
10
-431.99999999993514
20
161.26194671057661
30
0
40
1.7000000000000171
210
0
220
0
230
-1
0
CIRCLE
5
424
100
AcDbEntity
8
INTERIOR_PROFILES
100
AcDbCircle
10
-431.9999999999348
20
193.26194671057664
30
0
40
1.7000000000000171
210
0
220
0
230
-1
0
CIRCLE
5
425
100
AcDbEntity
8
INTERIOR_PROFILES
100
AcDbCircle
10
-431.9999999999356
20
129.26194671057664
30
0
40
1.7000000000000171
210
0
220
0
230
-1
0
CIRCLE
5
426
100
AcDbEntity
8
INTERIOR_PROFILES
100
AcDbCircle
10
-431.99999999993258
20
385.26194671057658
30
0
40
1.7000000000000171
210
0
220
0
230
-1
0
CIRCLE
5
427
100
AcDbEntity
8
INTERIOR_PROFILES
100
AcDbCircle
10
-431.99999999993076
20
545.26194671057681
30
0
40
1.7000000000000171
210
0
220
0
230
-1
0
CIRCLE
5
428
100
AcDbEntity
8
INTERIOR_PROFILES
100
AcDbCircle
10
-327.99999999993247
20
385.2619467105792
30
0
40
1.7000000000000171
210
0
220
0
230
-1
0
CIRCLE
5
429
100
AcDbEntity
8
INTERIOR_PROFILES
100
AcDbCircle
10
-631.99999999993668
20
65.261946710573326
30
0
40
1.7000000000000171
210
0
220
0
230
-1
0
CIRCLE
5
430
100
AcDbEntity
8
INTERIOR_PROFILES
100
AcDbCircle
10
-431.99999999993457
20
225.26194671057667
30
0
40
1.7000000000000171
210
0
220
0
230
-1
0
CIRCLE
5
431
100
AcDbEntity
8
INTERIOR_PROFILES
100
AcDbCircle
10
-395.99999999993076
20
545.2619467105817
30
0
40
1.7000000000000171
210
0
220
0
230
-1
0
CIRCLE
5
432
100
AcDbEntity
8
INTERIOR_PROFILES
100
AcDbCircle
10
-431.99999999993599
20
97.261946710576623
30
0
40
1.7000000000000171
210
0
220
0
230
-1
0
CIRCLE
5
433
100
AcDbEntity
8
INTERIOR_PROFILES
100
AcDbCircle
10
-431.99999999993179
20
449.26194671057664
30
0
40
1.7000000000000171
210
0
220
0
230
-1
0
CIRCLE
5
434
100
AcDbEntity
8
INTERIOR_PROFILES
100
AcDbCircle
10
-127.99999999993366
20
321.26194671058357
30
0
40
1.6999999999999815
210
0
220
0
230
-1
0
CIRCLE
5
435
100
AcDbEntity
8
INTERIOR_PROFILES
100
AcDbCircle
10
-631.99999999993508
20
225.26194671057334
30
0
40
1.7000000000000171
210
0
220
0
230
-1
0
CIRCLE
5
436
100
AcDbEntity
8
INTERIOR_PROFILES
100
AcDbCircle
10
-431.99999999993389
20
289.26194671057664
30
0
40
1.7000000000000171
210
0
220
0
230
-1
0
CIRCLE
5
437
100
AcDbEntity
8
INTERIOR_PROFILES
100
AcDbCircle
10
-631.99999999993247
20
385.26194671057334
30
0
40
1.7000000000000171
210
0
220
0
230
-1
0
CIRCLE
5
438
100
AcDbEntity
8
INTERIOR_PROFILES
100
AcDbCircle
10
-431.99999999993219
20
417.26194671057664
30
0
40
1.7000000000000171
210
0
220
0
230
-1
0
CIRCLE
5
439
100
AcDbEntity
8
INTERIOR_PROFILES
100
AcDbCircle
10
-127.99999999993241
20
385.26194671058357
30
0
40
1.6999999999999815
210
0
220
0
230
-1
0
CIRCLE
5
440
100
AcDbEntity
8
INTERIOR_PROFILES
100
AcDbCircle
10
-327.99999999993543
20
129.2619467105792
30
0
40
1.7000000000000171
210
0
220
0
230
-1
0
CIRCLE
5
441
100
AcDbEntity
8
INTERIOR_PROFILES
100
AcDbCircle
10
-327.99999999993054
20
545.2619467105792
30
0
40
1.7000000000000171
210
0
220
0
230
-1
0
CIRCLE
5
442
100
AcDbEntity
8
INTERIOR_PROFILES
100
AcDbCircle
10
-327.99999999993139
20
481.2619467105792
30
0
40
1.7000000000000171
210
0
220
0
230
-1
0
CIRCLE
5
443
100
AcDbEntity
8
INTERIOR_PROFILES
100
AcDbCircle
10
-127.99999999993403
20
225.26194671058357
30
0
40
1.6999999999999815
210
0
220
0
230
-1
0
CIRCLE
5
444
100
AcDbEntity
8
INTERIOR_PROFILES
100
AcDbCircle
10
-327.99999999993088
20
513.26194671057931
30
0
40
1.7000000000000171
210
0
220
0
230
-1
0
CIRCLE
5
445
100
AcDbEntity
8
INTERIOR_PROFILES
100
AcDbCircle
10
-127.99999999993254
20
353.26194671058352
30
0
40
1.6999999999999815
210
0
220
0
230
-1
0
CIRCLE
5
446
100
AcDbEntity
8
INTERIOR_PROFILES
100
AcDbCircle
10
-431.99999999993111
20
513.26194671057669
30
0
40
1.7000000000000171
210
0
220
0
230
-1
0
CIRCLE
5
447
100
AcDbEntity
8
INTERIOR_PROFILES
100
AcDbCircle
10
-431.99999999993423
20
257.26194671057664
30
0
40
1.7000000000000171
210
0
220
0
230
-1
0
CIRCLE
5
448
100
AcDbEntity
8
INTERIOR_PROFILES
100
AcDbCircle
10
-631.99999999993099
20
545.26194671057181
30
0
40
1.7000000000000171
210
0
220
0
230
-1
0
CIRCLE
5
449
100
AcDbEntity
8
INTERIOR_PROFILES
100
AcDbCircle
10
-431.99999999993656
20
65.261946710576666
30
0
40
1.7000000000000171
210
0
220
0
230
-1
0
CIRCLE
5
450
100
AcDbEntity
8
INTERIOR_PROFILES
100
AcDbCircle
10
-431.99999999993332
20
321.26194671057658
30
0
40
1.7000000000000171
210
0
220
0
230
-1
0
CIRCLE
5
451
100
AcDbEntity
8
INTERIOR_PROFILES
100
AcDbCircle
10
-431.99999999993156
20
481.26194671057675
30
0
40
1.7000000000000171
210
0
220
0
230
-1
0
CIRCLE
5
452
100
AcDbEntity
8
INTERIOR_PROFILES
100
AcDbCircle
10
-431.99999999993287
20
353.26194671057664
30
0
40
1.7000000000000171
210
0
220
0
230
-1
0
CIRCLE
5
453
100
AcDbEntity
8
INTERIOR_PROFILES
100
AcDbCircle
10
-431.99999999993679
20
33.261946710576566
30
0
40
1.7000000000000171
210
0
220
0
230
-1
0
CIRCLE
5
454
100
AcDbEntity
8
INTERIOR_PROFILES
100
AcDbCircle
10
-127.99999999993412
20
193.26194671058352
30
0
40
1.6999999999999815
210
0
220
0
230
-1
0
CIRCLE
5
455
100
AcDbEntity
8
INTERIOR_PROFILES
100
AcDbCircle
10
-127.99999999993231
20
417.26194671058352
30
0
40
1.6999999999999815
210
0
220
0
230
-1
0
CIRCLE
5
456
100
AcDbEntity
8
INTERIOR_PROFILES
100
AcDbCircle
10
-327.99999999993645
20
65.261946710579224
30
0
40
1.7000000000000171
210
0
220
0
230
-1
0
CIRCLE
5
457
100
AcDbEntity
8
INTERIOR_PROFILES
100
AcDbCircle
10
-127.99999999993122
20
449.26194671058352
30
0
40
1.6999999999999815
210
0
220
0
230
-1
0
CIRCLE
5
458
100
AcDbEntity
8
INTERIOR_PROFILES
100
AcDbCircle
10
-327.99999999993389
20
257.26194671057925
30
0
40
1.7000000000000171
210
0
220
0
230
-1
0
CIRCLE
5
459
100
AcDbEntity
8
INTERIOR_PROFILES
100
AcDbCircle
10
-327.99999999993463
20
193.26194671057925
30
0
40
1.7000000000000171
210
0
220
0
230
-1
0
CIRCLE
5
460
100
AcDbEntity
8
INTERIOR_PROFILES
100
AcDbCircle
10
-127.99999999993533
20
129.26194671058354
30
0
40
1.6999999999999815
210
0
220
0
230
-1
0
CIRCLE
5
461
100
AcDbEntity
8
INTERIOR_PROFILES
100
AcDbCircle
10
-31.999999999932321
20
417.26194671058522
30
0
40
1.6999999999999904
210
0
220
0
230
-1
0
CIRCLE
5
462
100
AcDbEntity
8
INTERIOR_PROFILES
100
AcDbCircle
10
-327.99999999993366
20
289.2619467105792
30
0
40
1.7000000000000171
210
0
220
0
230
-1
0
CIRCLE
5
463
100
AcDbEntity
8
INTERIOR_PROFILES
100
AcDbCircle
10
-327.9999999999331
20
321.26194671057925
30
0
40
1.7000000000000171
210
0
220
0
230
-1
0
CIRCLE
5
464
100
AcDbEntity
8
INTERIOR_PROFILES
100
AcDbCircle
10
-327.9999999999319
20
449.26194671057931
30
0
40
1.7000000000000171
210
0
220
0
230
-1
0
CIRCLE
5
465
100
AcDbEntity
8
INTERIOR_PROFILES
100
AcDbCircle
10
-31.999999999936584
20
65.261946710585264
30
0
40
1.6999999999999904
210
0
220
0
230
-1
0
CIRCLE
5
466
100
AcDbEntity
8
INTERIOR_PROFILES
100
AcDbCircle
10
-127.99999999993113
20
481.26194671058386
30
0
40
1.6999999999999815
210
0
220
0
230
-1
0
CIRCLE
5
467
100
AcDbEntity
8
INTERIOR_PROFILES
100
AcDbCircle
10
-31.999999999930839
20
545.26194671058511
30
0
40
1.6999999999999904
210
0
220
0
230
-1
0
CIRCLE
5
468
100
AcDbEntity
8
INTERIOR_PROFILES
100
AcDbCircle
10
-127.99999999993557
20
65.261946710583558
30
0
40
1.6999999999999815
210
0
220
0
230
-1
0
CIRCLE
5
469
100
AcDbEntity
8
INTERIOR_PROFILES
100
AcDbCircle
10
-127.9999999999352
20
161.26194671058352
30
0
40
1.6999999999999815
210
0
220
0
230
-1
0
CIRCLE
5
470
100
AcDbEntity
8
INTERIOR_PROFILES
100
AcDbCircle
10
-127.99999999993545
20
97.261946710583516
30
0
40
1.6999999999999815
210
0
220
0
230
-1
0
CIRCLE
5
471
100
AcDbEntity
8
INTERIOR_PROFILES
100
AcDbCircle
10
-31.999999999932378
20
385.26194671058522
30
0
40
1.6999999999999904
210
0
220
0
230
-1
0
CIRCLE
5
472
100
AcDbEntity
8
INTERIOR_PROFILES
100
AcDbCircle
10
-31.999999999933738
20
289.26194671058516
30
0
40
1.6999999999999904
210
0
220
0
230
-1
0
CIRCLE
5
473
100
AcDbEntity
8
INTERIOR_PROFILES
100
AcDbCircle
10
-327.99999999993651
20
33.261946710579267
30
0
40
1.7000000000000171
210
0
220
0
230
-1
0
CIRCLE
5
474
100
AcDbEntity
8
INTERIOR_PROFILES
100
AcDbCircle
10
-327.99999999993599
20
97.261946710579252
30
0
40
1.7000000000000171
210
0
220
0
230
-1
0
CIRCLE
5
475
100
AcDbEntity
8
INTERIOR_PROFILES
100
AcDbCircle
10
-31.999999999932566
20
353.26194671058516
30
0
40
1.6999999999999904
210
0
220
0
230
-1
0
CIRCLE
5
476
100
AcDbEntity
8
INTERIOR_PROFILES
100
AcDbCircle
10
-127.99999999993089
20
545.26194671058499
30
0
40
1.6999999999999815
210
0
220
0
230
-1
0
CIRCLE
5
477
100
AcDbEntity
8
INTERIOR_PROFILES
100
AcDbCircle
10
-63.999999999930864
20
545.26194671058511
30
0
40
1.6999999999999904
210
0
220
0
230
-1
0
CIRCLE
5
478
100
AcDbEntity
8
INTERIOR_PROFILES
100
AcDbCircle
10
-127.99999999993102
20
513.26194671058397
30
0
40
1.6999999999999815
210
0
220
0
230
-1
0
CIRCLE
5
479
100
AcDbEntity
8
INTERIOR_PROFILES
100
AcDbCircle
10
-127.99999999993391
20
257.26194671058352
30
0
40
1.6999999999999815
210
0
220
0
230
-1
0
CIRCLE
5
480
100
AcDbEntity
8
INTERIOR_PROFILES
100
AcDbCircle
10
-127.99999999993378
20
289.26194671058352
30
0
40
1.6999999999999815
210
0
220
0
230
-1
0
CIRCLE
5
481
100
AcDbEntity
8
INTERIOR_PROFILES
100
AcDbCircle
10
-127.99999999993668
20
33.261946710583601
30
0
40
1.6999999999999815
210
0
220
0
230
-1
0
CIRCLE
5
482
100
AcDbEntity
8
INTERIOR_PROFILES
100
AcDbCircle
10
-327.99999999993213
20
417.26194671057925
30
0
40
1.7000000000000171
210
0
220
0
230
-1
0
CIRCLE
5
483
100
AcDbEntity
8
INTERIOR_PROFILES
100
AcDbCircle
10
-327.99999999993292
20
353.2619467105792
30
0
40
1.7000000000000171
210
0
220
0
230
-1
0
CIRCLE
5
484
100
AcDbEntity
8
INTERIOR_PROFILES
100
AcDbCircle
10
-327.99999999993446
20
225.26194671057922
30
0
40
1.7000000000000171
210
0
220
0
230
-1
0
CIRCLE
5
485
100
AcDbEntity
8
INTERIOR_PROFILES
100
AcDbCircle
10
-327.99999999993503
20
161.26194671057925
30
0
40
1.7000000000000171
210
0
220
0
230
-1
0
CIRCLE
5
486
100
AcDbEntity
8
INTERIOR_PROFILES
100
AcDbCircle
10
-31.999999999933983
20
225.26194671058533
30
0
40
1.6999999999999904
210
0
220
0
230
-1
0
CIRCLE
5
487
100
AcDbEntity
8
INTERIOR_PROFILES
100
AcDbCircle
10
-679.99999999999886
20
573.26194671058806
30
0
40
1.7000000000000171
210
0
220
0
230
-1
0
CIRCLE
5
488
100
AcDbEntity
8
INTERIOR_PROFILES
100
AcDbCircle
10
-31.999999999935348
20
129.26194671058533
30
0
40
1.6999999999999904
210
0
220
0
230
-1
0
CIRCLE
5
489
100
AcDbEntity
8
INTERIOR_PROFILES
100
AcDbCircle
10
-379.99999999998693
20
19.261946710584468
30
0
40
1.7000000000000171
210
0
220
0
230
-1
0
CIRCLE
5
490
100
AcDbEntity
8
INTERIOR_PROFILES
100
AcDbCircle
10
-8.0000000000737153
20
573.26194671058875
30
0
40
1.7000000000000004
210
0
220
0
230
-1
0
CIRCLE
5
491
100
AcDbEntity
8
INTERIOR_PROFILES
100
AcDbCircle
10
-410.0000000000025
20
573.26194671068481
30
0
40
1.7000000000000171
210
0
220
0
230
-1
0
CIRCLE
5
492
100
AcDbEntity
8
INTERIOR_PROFILES
100
AcDbCircle
10
-79.99999999998667
20
19.261946710581341
30
0
40
1.7000000000000171
210
0
220
0
230
-1
0
CIRCLE
5
493
100
AcDbEntity
8
INTERIOR_PROFILES
100
AcDbCircle
10
-79.99999999999882
20
573.26194671058113
30
0
40
1.7000000000000171
210
0
220
0
230
-1
0
CIRCLE
5
494
100
AcDbEntity
8
INTERIOR_PROFILES
100
AcDbCircle
10
-31.999999999930889
20
513.26194671058511
30
0
40
1.6999999999999904
210
0
220
0
230
-1
0
CIRCLE
5
495
100
AcDbEntity
8
INTERIOR_PROFILES
100
AcDbCircle
10
-751.99999999987881
20
573.26194671066321
30
0
40
1.7000000000000171
210
0
220
0
230
-1
0
CIRCLE
5
496
100
AcDbEntity
8
INTERIOR_PROFILES
100
AcDbCircle
10
-679.99999999998681
20
19.261946710588589
30
0
40
1.7000000000000171
210
0
220
0
230
-1
0
CIRCLE
5
497
100
AcDbEntity
8
INTERIOR_PROFILES
100
AcDbCircle
10
-379.99999999999915
20
573.26194671058477
30
0
40
1.7000000000000171
210
0
220
0
230
-1
0
CIRCLE
5
498
100
AcDbEntity
8
INTERIOR_PROFILES
100
AcDbCircle
10
-31.999999999935152
20
161.26194671058528
30
0
40
1.6999999999999904
210
0
220
0
230
-1
0
CIRCLE
5
499
100
AcDbEntity
8
INTERIOR_PROFILES
100
AcDbCircle
10
-380.00000000000284
20
555.2619467106075
30
0
40
6.4999999999999858
210
0
220
0
230
-1
0
CIRCLE
5
500
100
AcDbEntity
8
INTERIOR_PROFILES
100
AcDbCircle
10
-10.000000000076801
20
555.26194671060296
30
0
40
6.5
210
0
220
0
230
-1
0
CIRCLE
5
501
100
AcDbEntity
8
INTERIOR_PROFILES
100
AcDbCircle
10
-31.999999999932133
20
449.26194671058522
30
0
40
1.6999999999999904
210
0
220
0
230
-1
0
CIRCLE
5
502
100
AcDbEntity
8
INTERIOR_PROFILES
100
AcDbCircle
10
-31.999999999931084
20
481.26194671058499
30
0
40
1.6999999999999904
210
0
220
0
230
-1
0
CIRCLE
5
503
100
AcDbEntity
8
INTERIOR_PROFILES
100
AcDbCircle
10
-749.9999999998829
20
555.26194671061171
30
0
40
6.5000000000000568
210
0
220
0
230
-1
0
CIRCLE
5
504
100
AcDbEntity
8
INTERIOR_PROFILES
100
AcDbCircle
10
-31.999999999936463
20
97.261946710585292
30
0
40
1.6999999999999904
210
0
220
0
230
-1
0
CIRCLE
5
505
100
AcDbEntity
8
INTERIOR_PROFILES
100
AcDbCircle
10
-349.99999999987847
20
573.26194671064161
30
0
40
1.7000000000000171
210
0
220
0
230
-1
0
CIRCLE
5
506
100
AcDbEntity
8
INTERIOR_PROFILES
100
AcDbCircle
10
-31.999999999935099
20
193.26194671058531
30
0
40
1.6999999999999904
210
0
220
0
230
-1
0
CIRCLE
5
507
100
AcDbEntity
8
INTERIOR_PROFILES
100
AcDbCircle
10
-31.999999999933685
20
321.26194671058511
30
0
40
1.6999999999999904
210
0
220
0
230
-1
0
CIRCLE
5
508
100
AcDbEntity
8
INTERIOR_PROFILES
100
AcDbCircle
10
-31.99999999993393
20
257.26194671058522
30
0
40
1.6999999999999904
210
0
220
0
230
-1
0
LINE
5
509
100
AcDbEntity
8
BEND
100
AcDbLine
10
-1.1309733285803174
20
596.48853808173999
30
-2.0331881376544425e-08
11
-1.1309733285796448
21
582.55924875906214
31
-2.0282480550364147e-08
0
LINE
5
510
100
AcDbEntity
8
BEND
100
AcDbLine
10
761.13097335632017
20
582.55924938389171
30
2.9467407317824392e-09
11
761.13097335631949
21
596.48853807987064
31
3.0826221397462726e-09
0
LINE
5
511
100
AcDbEntity
8
BEND
100
AcDbLine
10
-1.8828990429197147e-10
20
597.65486678038565
30
9.5223583663812302e-09
11
760.00000000000477
21
597.65486678042157
31
2.0853591425523003e-10
0
LINE
5
512
100
AcDbEntity
8
BEND
100
AcDbLine
10
-1.3542023973440919e-12
20
15.130973355263464
30
-1.7123966068183956e-10
11
760.00000000000978
21
15.130973355282151
31
-1.7131917828277021e-10
0
LINE
5
513
100
AcDbEntity
8
BEND
100
AcDbLine
10
-17.392920032953157
20
575.16194671089704
30
1.6903869234703544e-08
11
-17.392920033020101
21
14.261946710776243
31
-2.5442048168305623e-10
0
LINE
5
514
100
AcDbEntity
8
BEND
100
AcDbLine
10
777.39292006496942
20
14.261946710777806
30
2.2757818483601921e-09
11
777.39292006493145
21
575.1619467109042
31
-4.8211301118589707e-10
0
LINE
5
515
100
AcDbEntity
8
BEND
100
AcDbLine
10
761.13097335823886
20
598.82119548227843
30
6.2994176025859467e-09
11
761.13097335823852
21
603.78584014316425
31
5.9427492709384156e-09
0
LINE
5
516
100
AcDbEntity
8
BEND
100
AcDbLine
10
-1.1309733468111844
20
603.78584014312139
30
-1.0791929902319844e-08
11
-1.1309733468107748
21
598.82119548228593
31
-9.1367114012094522e-09
0
LINE
5
517
100
AcDbEntity
8
BEND
100
AcDbLine
10
760.00000000000591
20
581.39292006895141
30
-1.8339385565749039e-10
11
-1.8729906514636241e-10
21
581.39292006891571
31
-1.8317037415502781e-10
0
LINE
5
518
100
AcDbEntity
8
BEND
100
AcDbLine
10
761.13097335111252
20
16.261946710776911
30
-1.804586598054422e-10
11
761.13097335074542
21
580.22658800051738
31
-1.8612850776544156e-10
0
LINE
5
519
100
AcDbEntity
8
BEND
100
AcDbLine
10
-1.1309733103319983
20
16.261946710758792
30
-1.9136852909097509e-10
11
-1.1309733099651273
21
580.22658797565907
31
-1.807743082938214e-10
0
LINE
5
520
100
AcDbEntity
8
BEND_EXTENT
100
AcDbLine
10
8.2064035671511262e-13
20
16.261946710698112
30
2.6148554252298069e-08
11
-1.2424757499855851e-12
21
580.2619467053546
31
-1.8332002582610585e-10
0
LINE
5
521
100
AcDbEntity
8
BEND_EXTENT
100
AcDbLine
10
-1.2424757499855851e-12
20
580.2619467053546
30
-1.8332002582610585e-10
11
760.0000000000058
21
580.26194671059159
31
-1.8339108009989367e-10
0
LINE
5
522
100
AcDbEntity
8
BEND_EXTENT
100
AcDbLine
10
760.0000000000058
20
580.26194671059159
30
-1.8339108009989367e-10
11
760.00000000000671
21
16.261946710560906
31
2.6898684716676759e-09
0
LINE
5
523
100
AcDbEntity
8
BEND_EXTENT
100
AcDbLine
10
664.99999994793382
20
16.261946710556572
30
4.4487419257858428e-10
11
760.00000000000671
21
16.261946710560906
31
2.6898684716676759e-09
0
LINE
5
524
100
AcDbEntity
8
BEND_EXTENT
100
AcDbLine
10
8.2064035671511262e-13
20
16.261946710698112
30
2.6148554252298069e-08
11
94.999999997849756
21
16.261946710554511
31
1.4268822716246798e-10
0
LINE
5
525
100
AcDbEntity
8
BEND_EXTENT
100
AcDbLine
10
-2.2619466757634092
20
580.19123603559422
30
2.6758329097464587e-08
11
-2.2619466785032909
21
16.26194671076199
31
3.9337990854182125e-08
0
LINE
5
526
100
AcDbEntity
8
BEND_EXTENT
100
AcDbLine
10
156.99999999784976
20
16.261946710554724
30
1.4314053525636283e-10
11
602.99999994795485
21
16.261946710556359
31
3.8626951152906822e-10
0
LWPOLYLINE
5
527
100
AcDbEntity
8
BEND_EXTENT
100
AcDbPolyline
90
4
70
1
43
0.0
10
759.99999999984516
20
582.52389343612344
10
-1.7223555914824829e-10
20
582.52389341798937
10
-1.788706072147761e-08
20
596.52389341658863
10
760.00000000000466
20
596.5238934192331
0
LINE
5
528
100
AcDbEntity
8
BEND_EXTENT
100
AcDbLine
10
762.2619467074253
20
16.261946710730584
30
2.5603694825627586e-09
11
762.26194670649136
21
580.19123603350977
31
2.2132693561439501e-09
0
LINE
5
529
100
AcDbEntity
8
BEND_EXTENT
100
AcDbLine
10
-16.26194667772284
20
575.16194671089602
30
4.5307062206701913e-09
11
-16.261946677789645
21
14.261946710757911
31
-1.5490526978611059e-09
0
LINE
5
530
100
AcDbEntity
8
BEND_EXTENT
100
AcDbLine
10
776.26194670744599
20
575.16194671090409
30
4.8778606772960532e-10
11
776.26194670750056
21
14.26194671077667
31
-8.3703454642243238e-11
0
LINE
5
531
100
AcDbEntity
8
BEND_EXTENT
100
AcDbLine
10
94.999999997849741
20
13.999999999973198
30
-1.6506795930129454e-10
11
-1.4033219031261979e-12
21
13.999999999970854
31
-1.5809575870662229e-10
0
LINE
5
532
100
AcDbEntity
8
BEND_EXTENT
100
AcDbLine
10
760.00000000003251
20
13.999999999989541
30
-1.5816681298041006e-10
11
664.99999994793382
21
13.999999999987196
31
-1.5318413204586103e-10
0
LINE
5
533
100
AcDbEntity
8
BEND_EXTENT
100
AcDbLine
10
602.99999994795485
20
13.999999999985704
30
-1.5445731243736756e-10
11
156.99999999784973
21
13.999999999974762
31
-1.63794778909788e-10
0
LINE
5
534
100
AcDbEntity
8
BEND_EXTENT
100
AcDbLine
10
-18.523893388366645
20
14.26194671075784
30
1.6862937224256598e-08
11
-18.523893388299498
21
575.16194671089613
31
1.6597021046290479e-08
0
LINE
5
535
100
AcDbEntity
8
BEND_EXTENT
100
AcDbLine
10
778.52389342237882
20
575.1619467109042
30
2.683569367756157e-10
11
778.52389342241634
21
14.261946710776741
31
-4.9283639381393342e-10
0
LINE
5
536
100
AcDbEntity
8
BEND_EXTENT
100
AcDbLine
10
762.26194672047484
20
603.78584014316721
30
2.3553779032959685e-09
11
762.26194672198267
21
598.85655082222127
31
2.0446575649480767e-09
0
LINE
5
537
100
AcDbEntity
8
BEND_EXTENT
100
AcDbLine
10
760.00000000004366
20
598.78584014386411
30
1.6959078585896506e-09
11
760.00000000000341
21
603.78584014315061
31
2.3547430672008588e-09
0
LINE
5
538
100
AcDbEntity
8
BEND_EXTENT
100
AcDbLine
10
-1.88840583465535e-10
20
598.78584014159298
30
1.0807132966306199e-10
11
760.00000000004366
21
598.78584014386411
31
1.6959078585896506e-09
0
LINE
5
539
100
AcDbEntity
8
BEND_EXTENT
100
AcDbLine
10
-1.8874649688490602e-10
20
603.78584014313469
30
-4.1147663054630357e-09
11
-1.88840583465535e-10
21
598.78584014159298
31
1.0807132966306199e-10
0
LINE
5
540
100
AcDbEntity
8
BEND_EXTENT
100
AcDbLine
10
-2.2619466476902041
20
582.59460407421216
30
-6.8724401830702962e-09
11
-2.2619466783997839
21
596.45318274034173
31
-6.9083225912261779e-09
0
LINE
5
541
100
AcDbEntity
8
BEND_EXTENT
100
AcDbLine
10
762.26194671301528
20
596.4531827415833
30
1.6733279312398492e-09
11
762.26194671613962
21
582.5946041111431
31
1.4340171378358472e-09
0
LINE
5
542
100
AcDbEntity
8
BEND_EXTENT
100
AcDbLine
10
-2.2619466926762306
20
598.85655081955952
30
-1.8119548189868583e-09
11
-2.2619466934333006
21
603.78584014317721
31
-3.856612595410122e-09
0
ENDSEC
0
SECTION
2
OBJECTS
0
DICTIONARY
5
C
100
AcDbDictionary
3
ACAD_GROUP
350
D
3
ACAD_MLINESTYLE
350
17
0
DICTIONARY
5
D
100
AcDbDictionary
0
DICTIONARY
5
1A
330
C
100
AcDbDictionary
0
DICTIONARY
5
17
100
AcDbDictionary
0
ENDSEC
0
EOF
