0
SECTION
2
HEADER
9
$INSUNITS
70
4
9
$ACADVER
1
AC1014
9
$HANDSEED
5
FFFF
0
ENDSEC
0
SECTION
2
TABLES
0
TABLE
2
VPORT
5
8
100
AcDbSymbolTable
0
ENDTAB
0
TABLE
2
LTYPE
5
5
100
AcDbSymbolTable
0
LTYPE
5
14
100
AcDbSymbolTableRecord
100
AcDbLinetypeTableRecord
2
BYBLOCK
70
0
0
LTYPE
5
15
100
AcDbSymbolTableRecord
100
AcDbLinetypeTableRecord
2
BYLAYER
70
0
0
LTYPE
5
16
100
AcDbSymbolTableRecord
100
AcDbLinetypeTableRecord
2
DASHED
70
0
3
Dashed __ __ __ __ __ __ __ __ __ __ __ __ __ _
72
65
73
2
40
0.75
49
0.5
74
0
49
-0.25
74
0
0
ENDTAB
0
TABLE
2
LAYER
5
2
100
AcDbSymbolTable
70
2
0
LAYER
5
50
100
AcDbSymbolTableRecord
100
AcDbLayerTableRecord
2
0
70
0
62
7
6
CONTINUOUS
0
ENDTAB
0
TABLE
2
STYLE
5
3
100
AcDbSymbolTable
70
1
0
STYLE
5
11
100
AcDbSymbolTableRecord
100
AcDbTextStyleTableRecord
2
STANDARD
70
0
0
ENDTAB
0
TABLE
2
VIEW
5
6
100
AcDbSymbolTable
70
0
0
ENDTAB
0
TABLE
2
UCS
5
7
100
AcDbSymbolTable
70
0
0
ENDTAB
0
TABLE
2
APPID
5
9
100
AcDbSymbolTable
70
2
0
APPID
5
12
100
AcDbSymbolTableRecord
100
AcDbRegAppTableRecord
2
ACAD
70
0
0
ENDTAB
0
TABLE
2
DIMSTYLE
5
A
100
AcDbSymbolTable
70
1
0
ENDTAB
0
TABLE
2
BLOCK_RECORD
5
1
100
AcDbSymbolTable
70
1
0
BLOCK_RECORD
5
1F
100
AcDbSymbolTableRecord
100
AcDbBlockTableRecord
2
*MODEL_SPACE
0
BLOCK_RECORD
5
1B
100
AcDbSymbolTableRecord
100
AcDbBlockTableRecord
2
*PAPER_SPACE
0
ENDTAB
0
ENDSEC
0
SECTION
2
BLOCKS
0
BLOCK
5
20
100
AcDbEntity
100
AcDbBlockBegin
2
*MODEL_SPACE
0
ENDBLK
5
21
100
AcDbEntity
100
AcDbBlockEnd
0
BLOCK
5
1C
100
AcDbEntity
100
AcDbBlockBegin
2
*PAPER_SPACE
0
ENDBLK
5
1D
100
AcDbEntity
100
AcDbBlockEnd
0
ENDSEC
0
SECTION
2
ENTITIES
0
SPLINE
5
100
100
AcDbEntity
8
OUTER_PROFILES
100
AcDbSpline
70
0
71
3
72
11
73
7
74
0
42
0.000000001
43
0.0000000001
44
0.0000000001
40
1.5707963267948994
40
1.5707963267948994
40
1.5707963267948994
40
1.5707963267948994
40
3.0437620783854289
40
3.0437620783854289
40
3.0437620783854289
40
3.1415926535898011
40
3.1415926535898011
40
3.1415926535898011
40
3.1415926535898011
10
667.04778684233861
20
27.929289321874577
30
0
10
666.34076328157516
20
28.420277905738093
30
0
10
665.63373972081172
20
28.876550614712251
30
0
10
664.92671616004827
20
28.924507726627397
30
0
10
664.87975748395013
20
28.927692913953535
30
0
10
664.83279880785199
20
28.929289321874606
30
0
10
664.78584013175396
20
28.929289321874606
30
0
0
LINE
5
101
100
AcDbEntity
8
OUTER_PROFILES
100
AcDbLine
10
667.04778684233861
20
27.929289321874577
30
0
11
672.04778684233827
21
22.929289321874723
31
0
0
LINE
5
102
100
AcDbEntity
8
OUTER_PROFILES
100
AcDbLine
10
672.04778684233827
20
22.929289321874723
30
0
11
672.04778684233804
21
-6.7545968818194524e-12
31
0
0
LINE
5
103
100
AcDbEntity
8
OUTER_PROFILES
100
AcDbLine
10
672.04778684233804
20
-6.7545968818194524e-12
30
0
11
0
21
0
31
0
0
LINE
5
104
100
AcDbEntity
8
OUTER_PROFILES
100
AcDbLine
10
0
20
0
30
0
11
0
21
22.929289321881381
31
0
0
LINE
5
105
100
AcDbEntity
8
OUTER_PROFILES
100
AcDbLine
10
0
20
22.929289321881381
30
0
11
4.9999999999997158
21
27.929289321881214
31
0
0
SPLINE
5
106
100
AcDbEntity
8
OUTER_PROFILES
100
AcDbSpline
70
0
71
3
72
11
73
7
74
0
42
0.000000001
43
0.0000000001
44
0.0000000001
40
-3.1415926535898024
40
-3.1415926535898024
40
-3.1415926535898024
40
-3.1415926535898024
40
-3.0437620783854213
40
-3.0437620783854213
40
-3.0437620783854213
40
-1.5707963267948968
40
-1.5707963267948968
40
-1.5707963267948968
40
-1.5707963267948968
10
7.2619467105849367
20
28.929289321881221
30
0
10
7.2149880344868222
20
28.929289321881221
30
0
10
7.1680293583887078
20
28.927692913960158
30
0
10
7.1210706822905934
20
28.924507726634019
30
0
10
6.4140471215270622
20
28.876550614718873
30
0
10
5.7070235607636732
20
28.420277905744719
30
0
10
5.0000000000002842
20
27.929289321881207
30
0
0
LINE
5
107
100
AcDbEntity
8
OUTER_PROFILES
100
AcDbLine
10
7.2619467105849367
20
28.929289321881221
30
0
11
21.261946710584496
21
28.929289321881345
31
0
0
SPLINE
5
108
100
AcDbEntity
8
OUTER_PROFILES
100
AcDbSpline
70
0
71
3
72
11
73
7
74
0
42
0.000000001
43
0.0000000001
44
0.0000000001
40
1.5707963267948966
40
1.5707963267948966
40
1.5707963267948966
40
1.5707963267948966
40
1.6686269019992717
40
1.6686269019992717
40
1.6686269019992717
40
3.1415926535897931
40
3.1415926535897931
40
3.1415926535897931
40
3.1415926535897931
10
23.523893421172701
20
27.929289321881321
30
0
10
23.476934745074658
20
27.961899513616114
30
0
10
23.429976068976544
20
27.994509655588359
30
0
10
23.383017392878429
20
28.026963918585341
30
0
10
22.675993832114898
20
28.515604793769825
30
0
10
21.968970271351509
20
28.929289321881342
30
0
10
21.26194671058812
20
28.929289321881345
30
0
0
LINE
5
109
100
AcDbEntity
8
OUTER_PROFILES
100
AcDbLine
10
23.523893421172701
20
27.929289321881321
30
0
11
23.594604099287722
21
27.999999999999968
31
0
0
SPLINE
5
110
100
AcDbEntity
8
OUTER_PROFILES
100
AcDbSpline
70
0
71
3
72
11
73
7
74
0
42
0.000000001
43
0.0000000001
44
0.0000000001
40
-3.1415926535897931
40
-3.1415926535897931
40
-3.1415926535897931
40
-3.1415926535897931
40
-1.6686269019992712
40
-1.6686269019992712
40
-1.6686269019992712
40
-1.5707963267948966
40
-1.5707963267948966
40
-1.5707963267948966
40
-1.5707963267948966
10
22.594604099287636
20
30.261946710584642
30
0
10
22.594604099287636
20
29.5549231498212
30
0
10
23.008288627399196
20
28.847899589057707
30
0
10
23.496929502583583
20
28.140876028294262
30
0
10
23.529383765580647
20
28.093917352196158
30
0
10
23.561993907552932
20
28.046958676098029
30
0
10
23.594604099287722
20
27.999999999999968
30
0
0
LINE
5
111
100
AcDbEntity
8
OUTER_PROFILES
100
AcDbLine
10
22.594604099287636
20
30.261946710584642
30
0
11
22.594604099287778
21
44.26194671058451
31
0
0
SPLINE
5
112
100
AcDbEntity
8
OUTER_PROFILES
100
AcDbSpline
70
0
71
3
72
11
73
7
74
0
42
0.000000001
43
0.0000000001
44
0.0000000001
40
1.5707963267948988
40
1.5707963267948988
40
1.5707963267948988
40
1.5707963267948988
40
3.0437620783854249
40
3.0437620783854249
40
3.0437620783854249
40
3.141592653589802
40
3.141592653589802
40
3.141592653589802
40
3.141592653589802
10
23.594604099287793
20
46.523893421169127
30
0
10
23.103615515424281
20
45.816869860405674
30
0
10
22.647342806450155
20
45.109846299642243
30
0
10
22.599385694534959
20
44.402822738878783
30
0
10
22.596200507208835
20
44.355864062780689
30
0
10
22.594604099287778
20
44.308905386682589
30
0
10
22.594604099287778
20
44.261946710584482
30
0
0
LINE
5
113
100
AcDbEntity
8
OUTER_PROFILES
100
AcDbLine
10
23.594604099287793
20
46.523893421169127
30
0
11
28.594604099287793
21
51.523893421168552
31
0
0
LINE
5
114
100
AcDbEntity
8
OUTER_PROFILES
100
AcDbLine
10
28.594604099287793
20
51.523893421168552
30
0
11
643.45318274305123
21
51.523893421162185
31
0
0
LINE
5
115
100
AcDbEntity
8
OUTER_PROFILES
100
AcDbLine
10
643.45318274305123
20
51.523893421162185
30
0
11
648.45318274305112
21
46.523893421162626
31
0
0
SPLINE
5
116
100
AcDbEntity
8
OUTER_PROFILES
100
AcDbSpline
70
0
71
3
72
11
73
7
74
0
42
0.000000001
43
0.0000000001
44
0.0000000001
40
-3.141592653589802
40
-3.141592653589802
40
-3.141592653589802
40
-3.141592653589802
40
-3.0437620783854298
40
-3.0437620783854298
40
-3.0437620783854298
40
-1.5707963267948988
40
-1.5707963267948988
40
-1.5707963267948988
40
-1.5707963267948988
10
649.45318274305112
20
44.261946710577966
30
0
10
649.45318274305112
20
44.308905386676059
30
0
10
649.45158633513006
20
44.35586406277416
30
0
10
649.44840114780391
20
44.40282273887226
30
0
10
649.40044403588877
20
45.109846299635706
30
0
10
648.94417132691456
20
45.816869860399166
30
0
10
648.45318274305112
20
46.523893421162626
30
0
0
LINE
5
117
100
AcDbEntity
8
OUTER_PROFILES
100
AcDbLine
10
649.45318274305112
20
44.261946710577966
30
0
11
649.45318274304987
21
30.261946710578126
31
0
0
SPLINE
5
118
100
AcDbEntity
8
OUTER_PROFILES
100
AcDbSpline
70
0
71
3
72
11
73
7
74
0
42
0.000000001
43
0.0000000001
44
0.0000000001
40
1.5707963267948966
40
1.5707963267948966
40
1.5707963267948966
40
1.5707963267948966
40
1.6686269019992674
40
1.6686269019992674
40
1.6686269019992674
40
3.1415926535897931
40
3.1415926535897931
40
3.1415926535897931
40
3.1415926535897931
10
648.45318274304975
20
27.99999999999347
30
0
10
648.48579293478451
20
28.046958676091549
30
0
10
648.51840307675673
20
28.093917352189681
30
0
10
648.55085733975386
20
28.140876028287785
30
0
10
649.03949821493825
20
28.847899589051199
30
0
10
649.45318274304987
20
29.554923149814684
30
0
10
649.45318274304987
20
30.261946710578123
30
0
0
LINE
5
119
100
AcDbEntity
8
OUTER_PROFILES
100
AcDbLine
10
648.45318274304975
20
27.99999999999347
30
0
11
648.52389342117067
21
27.929289321874808
31
0
0
SPLINE
5
120
100
AcDbEntity
8
OUTER_PROFILES
100
AcDbSpline
70
0
71
3
72
11
73
7
74
0
42
0.000000001
43
0.0000000001
44
0.0000000001
40
-3.1415926535897931
40
-3.1415926535897931
40
-3.1415926535897931
40
-3.1415926535897931
40
-1.6686269019992677
40
-1.6686269019992677
40
-1.6686269019992677
40
-1.5707963267948966
40
-1.5707963267948966
40
-1.5707963267948966
40
-1.5707963267948966
10
650.78584013175532
20
28.929289321874805
30
0
10
650.07881657099176
20
28.929289321874812
30
0
10
649.37179301022843
20
28.515604793763302
30
0
10
648.66476944946487
20
28.026963918578826
30
0
10
648.61781077336684
20
27.994509655581847
30
0
10
648.5708520972687
20
27.961899513609598
30
0
10
648.52389342117067
20
27.929289321874808
30
0
0
LINE
5
121
100
AcDbEntity
8
OUTER_PROFILES
100
AcDbLine
10
650.78584013175532
20
28.929289321874805
30
0
11
664.78584013175396
21
28.929289321874599
31
0
0
CIRCLE
5
122
100
AcDbEntity
8
INTERIOR_PROFILES
100
AcDbCircle
10
-136.02389342117419
20
37.261946710583452
30
0
40
1.6999999999999993
210
0
220
0
230
-1
0
CIRCLE
5
123
100
AcDbEntity
8
INTERIOR_PROFILES
100
AcDbCircle
10
-536.02389342117419
20
37.261946710579295
30
0
40
1.7000000000000171
210
0
220
0
230
-1
0
CIRCLE
5
124
100
AcDbEntity
8
INTERIOR_PROFILES
100
AcDbCircle
10
-336.02389342117419
20
37.261946710581377
30
0
40
1.7000000000000171
210
0
220
0
230
-1
0
CIRCLE
5
125
100
AcDbEntity
8
INTERIOR_PROFILES
100
AcDbCircle
10
-636.02389342117385
20
9.9999999999940705
30
0
40
5
210
0
220
0
230
-1
0
CIRCLE
5
126
100
AcDbEntity
8
INTERIOR_PROFILES
100
AcDbCircle
10
-536.02389342117385
20
9.9999999999950369
30
0
40
5
210
0
220
0
230
-1
0
CIRCLE
5
127
100
AcDbEntity
8
INTERIOR_PROFILES
100
AcDbCircle
10
-136.02389342117391
20
9.9999999999988951
30
0
40
5
210
0
220
0
230
-1
0
CIRCLE
5
128
100
AcDbEntity
8
INTERIOR_PROFILES
100
AcDbCircle
10
-336.02389342117391
20
9.999999999996966
30
0
40
5
210
0
220
0
230
-1
0
CIRCLE
5
129
100
AcDbEntity
8
INTERIOR_PROFILES
100
AcDbCircle
10
-236.02389342117391
20
9.9999999999979288
30
0
40
5
210
0
220
0
230
-1
0
CIRCLE
5
130
100
AcDbEntity
8
INTERIOR_PROFILES
100
AcDbCircle
10
-36.023893421173909
20
9.9999999999998597
30
0
40
5
210
0
220
0
230
-1
0
CIRCLE
5
131
100
AcDbEntity
8
INTERIOR_PROFILES
100
AcDbCircle
10
-14.261946710641524
20
3.9999999999997837
30
0
40
1.6999999999999993
210
0
220
0
230
-1
0
CIRCLE
5
132
100
AcDbEntity
8
INTERIOR_PROFILES
100
AcDbCircle
10
-236.02389342117419
20
37.261946710582414
30
0
40
1.7000000000000171
210
0
220
0
230
-1
0
CIRCLE
5
133
100
AcDbEntity
8
INTERIOR_PROFILES
100
AcDbCircle
10
-36.023893421174193
20
37.261946710584489
30
0
40
1.6999999999999993
210
0
220
0
230
-1
0
CIRCLE
5
134
100
AcDbEntity
8
INTERIOR_PROFILES
100
AcDbCircle
10
-657.78584013169348
20
23.999999999995136
30
0
40
1.7000000000000171
210
0
220
0
230
-1
0
CIRCLE
5
135
100
AcDbEntity
8
INTERIOR_PROFILES
100
AcDbCircle
10
-436.02389342117391
20
9.9999999999959996
30
0
40
5
210
0
220
0
230
-1
0
CIRCLE
5
136
100
AcDbEntity
8
INTERIOR_PROFILES
100
AcDbCircle
10
-436.02389342117419
20
37.261946710580339
30
0
40
1.7000000000000171
210
0
220
0
230
-1
0
CIRCLE
5
137
100
AcDbEntity
8
INTERIOR_PROFILES
100
AcDbCircle
10
-14.261946710641453
20
23.999999999999787
30
0
40
1.6999999999999993
210
0
220
0
230
-1
0
CIRCLE
5
138
100
AcDbEntity
8
INTERIOR_PROFILES
100
AcDbCircle
10
-657.78584013169336
20
3.9999999999951323
30
0
40
1.7000000000000171
210
0
220
0
230
-1
0
LINE
5
139
100
AcDbEntity
8
BEND
100
AcDbLine
10
6.1309733553056844
20
28.63639610307419
30
9.0434509347267162e-14
11
6.1309733553056844
21
0
31
-4.1903209297507543e-14
0
LINE
5
140
100
AcDbEntity
8
BEND
100
AcDbLine
10
665.91681348704594
20
-6.68580346809002e-12
30
4.2046776053137972e-11
11
665.91681348704628
21
28.636396103061131
31
4.1808954553311244e-11
0
LINE
5
141
100
AcDbEntity
8
BEND
100
AcDbLine
10
22.392920065876609
20
28.636396103069739
30
7.7748812844709212e-13
11
22.392920065876609
21
0
31
7.4473654922065e-13
0
LINE
5
142
100
AcDbEntity
8
BEND
100
AcDbLine
10
649.6548667764614
20
-6.5089479914592298e-12
30
4.126206659106944e-11
11
649.65486677646163
21
28.63639610306074
31
4.1281079160366159e-11
0
LINE
5
143
100
AcDbEntity
8
BEND
100
AcDbLine
10
649.16028952423801
20
45.392920065869468
30
4.1902765104210461e-11
11
22.887497318100856
21
45.392920065875977
31
1.4320035514094511e-12
0
LINE
5
144
100
AcDbEntity
8
BEND
100
AcDbLine
10
649.1602895242363
20
29.130973355285793
30
4.12319128415806e-11
11
22.88749731810114
21
29.130973355292294
31
7.622615118043416e-13
0
LINE
5
145
100
AcDbEntity
8
BEND_EXTENT
100
AcDbLine
10
667.04778684233861
20
27.929289321874577
30
4.2127532184336002e-11
11
667.04778684233827
21
-6.6968652845389443e-12
31
4.2096445939646478e-11
0
LINE
5
146
100
AcDbEntity
8
BEND_EXTENT
100
AcDbLine
10
664.78584013175362
20
-6.6660117081627212e-12
30
4.2047986436404439e-11
11
664.78584013175396
21
28.929289321874666
31
4.2047986436404465e-11
0
LINE
5
147
100
AcDbEntity
8
BEND_EXTENT
100
AcDbLine
10
4.9999999999997158
20
6.1713068102919892e-16
30
-4.1070542029038676e-14
11
4.9999999999997158
21
27.929289321881214
31
4.3306407842473221e-14
0
LINE
5
148
100
AcDbEntity
8
BEND_EXTENT
100
AcDbLine
10
7.2619467105845104
20
28.929289321881328
30
1.6504063070978081e-13
11
7.2619467105845104
21
0
31
1.2951349392177581e-13
0
LINE
5
149
100
AcDbEntity
8
BEND_EXTENT
100
AcDbLine
10
23.594604099287864
20
46.523893421168829
30
2.1907350698646701e-12
11
648.45318274305112
21
46.523893421162342
31
4.257136406178897e-11
0
LINE
5
150
100
AcDbEntity
8
BEND_EXTENT
100
AcDbLine
10
649.45318274305077
20
44.261946710578002
30
4.1245981356967854e-11
11
22.594604099287778
21
44.26194671058451
31
7.3611932102435703e-13
0
LINE
5
151
100
AcDbEntity
8
BEND_EXTENT
100
AcDbLine
10
22.594604099287636
20
30.261946710584631
30
7.4056021312284958e-13
11
649.45318274304987
21
30.261946710578126
31
4.1248201803017053e-11
0
LINE
5
152
100
AcDbEntity
8
BEND_EXTENT
100
AcDbLine
10
21.261946710584425
20
-3.0435541082375313e-15
30
6.7887343417620319e-13
11
21.261946710584496
21
28.929289321881345
31
7.144005709642082e-13
0
LINE
5
153
100
AcDbEntity
8
BEND_EXTENT
100
AcDbLine
10
650.78584013175396
20
28.929289321874805
30
4.1392045085786019e-11
11
650.78584013175373
21
-6.5192296005989192e-12
31
4.1392045085786006e-11
0
LINE
5
154
100
AcDbEntity
8
BEND_EXTENT
100
AcDbLine
10
648.52389342116908
20
-6.511360692024435e-12
30
4.1174831682800943e-11
11
648.5238934211693
21
27.92928932187392
31
4.1174692904922878e-11
0
LINE
5
155
100
AcDbEntity
8
BEND_EXTENT
100
AcDbLine
10
23.523893421169078
20
27.929289321881324
30
7.8950542679724306e-13
11
23.523893421169078
21
0
31
7.8950542679724306e-13
0
LINE
5
156
100
AcDbEntity
8
BEND_EXTENT
100
AcDbLine
10
648.45318274304975
20
27.99999999999347
30
4.1170123826833854e-11
11
23.594604099287722
21
28.000000000000011
31
7.9407450488620701e-13
0
ENDSEC
0
SECTION
2
OBJECTS
0
DICTIONARY
5
C
100
AcDbDictionary
3
ACAD_GROUP
350
D
3
ACAD_MLINESTYLE
350
17
0
DICTIONARY
5
D
100
AcDbDictionary
0
DICTIONARY
5
1A
330
C
100
AcDbDictionary
0
DICTIONARY
5
17
100
AcDbDictionary
0
ENDSEC
0
EOF
