0
SECTION
2
HEADER
9
$INSUNITS
70
4
9
$ACADVER
1
AC1014
9
$HANDSEED
5
FFFF
0
ENDSEC
0
SECTION
2
TABLES
0
TABLE
2
VPORT
5
8
100
AcDbSymbolTable
0
ENDTAB
0
TABLE
2
LTYPE
5
5
100
AcDbSymbolTable
0
LTYPE
5
14
100
AcDbSymbolTableRecord
100
AcDbLinetypeTableRecord
2
BYBLOCK
70
0
0
LTYPE
5
15
100
AcDbSymbolTableRecord
100
AcDbLinetypeTableRecord
2
BYLAYER
70
0
0
LTYPE
5
16
100
AcDbSymbolTableRecord
100
AcDbLinetypeTableRecord
2
DASHED
70
0
3
Dashed __ __ __ __ __ __ __ __ __ __ __ __ __ _
72
65
73
2
40
0.75
49
0.5
74
0
49
-0.25
74
0
0
ENDTAB
0
TABLE
2
LAYER
5
2
100
AcDbSymbolTable
70
2
0
LAYER
5
50
100
AcDbSymbolTableRecord
100
AcDbLayerTableRecord
2
0
70
0
62
7
6
CONTINUOUS
0
ENDTAB
0
TABLE
2
STYLE
5
3
100
AcDbSymbolTable
70
1
0
STYLE
5
11
100
AcDbSymbolTableRecord
100
AcDbTextStyleTableRecord
2
STANDARD
70
0
0
ENDTAB
0
TABLE
2
VIEW
5
6
100
AcDbSymbolTable
70
0
0
ENDTAB
0
TABLE
2
UCS
5
7
100
AcDbSymbolTable
70
0
0
ENDTAB
0
TABLE
2
APPID
5
9
100
AcDbSymbolTable
70
2
0
APPID
5
12
100
AcDbSymbolTableRecord
100
AcDbRegAppTableRecord
2
ACAD
70
0
0
ENDTAB
0
TABLE
2
DIMSTYLE
5
A
100
AcDbSymbolTable
70
1
0
ENDTAB
0
TABLE
2
BLOCK_RECORD
5
1
100
AcDbSymbolTable
70
1
0
BLOCK_RECORD
5
1F
100
AcDbSymbolTableRecord
100
AcDbBlockTableRecord
2
*MODEL_SPACE
0
BLOCK_RECORD
5
1B
100
AcDbSymbolTableRecord
100
AcDbBlockTableRecord
2
*PAPER_SPACE
0
ENDTAB
0
ENDSEC
0
SECTION
2
BLOCKS
0
BLOCK
5
20
100
AcDbEntity
100
AcDbBlockBegin
2
*MODEL_SPACE
0
ENDBLK
5
21
100
AcDbEntity
100
AcDbBlockEnd
0
BLOCK
5
1C
100
AcDbEntity
100
AcDbBlockBegin
2
*PAPER_SPACE
0
ENDBLK
5
1D
100
AcDbEntity
100
AcDbBlockEnd
0
ENDSEC
0
SECTION
2
ENTITIES
0
LWPOLYLINE
5
100
100
AcDbEntity
8
OUTER_PROFILES
100
AcDbPolyline
90
23
70
1
43
0.0
10
495.99999999999994
20
5
10
495.99999999999994
20
0
10
0
20
0
10
0
20
5
10
0
20
7.2619467105846525
10
3.5527136788005009e-14
20
41.261946710584652
10
3.5527136788005009e-14
20
43.523893421169369
10
-10.261946710584649
20
43.523893421169369
10
-10.261946710584674
20
64.523893421169362
10
3.5527136788005009e-14
20
64.523893421169362
10
3.5527136788005009e-14
20
66.785840131754071
10
0
20
103.04778684233838
10
0
20
108.04778684233838
10
495.99999999999994
20
108.04778684233838
10
495.99999999999994
20
103.04778684233838
10
495.99999999999994
20
100.78584013175409
10
495.99999999999994
20
66.785840131754071
10
495.99999999999994
20
64.523893421169362
10
506.26194671058471
20
64.523893421169362
10
506.26194671058454
20
43.523893421169369
10
495.99999999999994
20
43.523893421169369
10
495.99999999999994
20
41.261946710584652
10
495.99999999999994
20
7.2619467105846525
0
LWPOLYLINE
5
101
100
AcDbEntity
8
INTERIOR_PROFILES
100
AcDbPolyline
90
4
70
1
43
0.0
10
485.99999999999994
20
64.523893421169362
10
485.99999999999994
20
66.785840131754071
10
413
20
66.785840131754071
10
413
20
64.523893421169362
0
LWPOLYLINE
5
102
100
AcDbEntity
8
INTERIOR_PROFILES
100
AcDbPolyline
90
4
70
1
43
0.0
10
10.000000000000036
20
41.261946710584652
10
83
20
41.261946710584652
10
83
20
43.523893421169369
10
10.000000000000036
20
43.523893421501739
0
CIRCLE
5
103
100
AcDbEntity
8
INTERIOR_PROFILES
100
AcDbCircle
10
-489.00000000000063
20
95.785840131754043
30
0
40
1.7000000000000171
210
0
220
0
230
-1
0
LWPOLYLINE
5
104
100
AcDbEntity
8
INTERIOR_PROFILES
100
AcDbPolyline
90
4
70
1
43
0.0
10
413
20
43.523893421169369
10
413
20
41.261946710584652
10
485.99999999999994
20
41.261946710584652
10
485.99999999999994
20
43.523893421169369
0
CIRCLE
5
105
100
AcDbEntity
8
INTERIOR_PROFILES
100
AcDbCircle
10
-6.9999999999993534
20
95.785840131754043
30
0
40
1.7000000000000171
210
0
220
0
230
-1
0
CIRCLE
5
106
100
AcDbEntity
8
INTERIOR_PROFILES
100
AcDbCircle
10
-489.00000000000063
20
37.261946710584624
30
0
40
1.7000000000000171
210
0
220
0
230
-1
0
LWPOLYLINE
5
107
100
AcDbEntity
8
INTERIOR_PROFILES
100
AcDbPolyline
90
4
70
1
43
0.0
10
83
20
64.523893421169362
10
83
20
66.785840131754071
10
10.000000000000036
20
66.785840131754071
10
10.000000000000036
20
64.523893421169362
0
CIRCLE
5
108
100
AcDbEntity
8
INTERIOR_PROFILES
100
AcDbCircle
10
-489.00000000000063
20
12.261946710584626
30
0
40
1.7000000000000171
210
0
220
0
230
-1
0
CIRCLE
5
109
100
AcDbEntity
8
INTERIOR_PROFILES
100
AcDbCircle
10
-6.9999999999993534
20
37.261946710584624
30
0
40
1.6999999999999815
210
0
220
0
230
-1
0
CIRCLE
5
110
100
AcDbEntity
8
INTERIOR_PROFILES
100
AcDbCircle
10
-489.00000000000063
20
70.785840131754043
30
0
40
1.7000000000000171
210
0
220
0
230
-1
0
CIRCLE
5
111
100
AcDbEntity
8
INTERIOR_PROFILES
100
AcDbCircle
10
-6.9999999999993534
20
70.785840131754043
30
0
40
1.6999999999999815
210
0
220
0
230
-1
0
CIRCLE
5
112
100
AcDbEntity
8
INTERIOR_PROFILES
100
AcDbCircle
10
-6.9999999999993534
20
12.261946710584626
30
0
40
1.7000000000000171
210
0
220
0
230
-1
0
CIRCLE
5
113
100
AcDbEntity
8
INTERIOR_PROFILES
100
AcDbCircle
10
-502.2619467105618
20
54.023893421169369
30
0
40
1.6999999999999993
210
0
220
0
230
-1
0
CIRCLE
5
114
100
AcDbEntity
8
INTERIOR_PROFILES
100
AcDbCircle
10
6.2619467105591315
20
54.023893421169369
30
0
40
1.6999999999999993
210
0
220
0
230
-1
0
CIRCLE
5
115
100
AcDbEntity
8
INTERIOR_PROFILES
100
AcDbCircle
10
-257
20
54.023893421169369
30
0
40
1.7000000000000171
210
0
220
0
230
-1
0
CIRCLE
5
116
100
AcDbEntity
8
INTERIOR_PROFILES
100
AcDbCircle
10
-463
20
54.023893421169369
30
0
40
1.7000000000000171
210
0
220
0
230
-1
0
CIRCLE
5
117
100
AcDbEntity
8
INTERIOR_PROFILES
100
AcDbCircle
10
-489.00000000000006
20
54.023893421169369
30
0
40
1.7000000000000171
210
0
220
0
230
-1
0
CIRCLE
5
118
100
AcDbEntity
8
INTERIOR_PROFILES
100
AcDbCircle
10
-248
20
54.023893421169369
30
0
40
1.7000000000000171
210
0
220
0
230
-1
0
CIRCLE
5
119
100
AcDbEntity
8
INTERIOR_PROFILES
100
AcDbCircle
10
-33.000000000000007
20
54.023893421169369
30
0
40
1.6999999999999993
210
0
220
0
230
-1
0
CIRCLE
5
120
100
AcDbEntity
8
INTERIOR_PROFILES
100
AcDbCircle
10
-417
20
54.023893421169369
30
0
40
1.7000000000000171
210
0
220
0
230
-1
0
CIRCLE
5
121
100
AcDbEntity
8
INTERIOR_PROFILES
100
AcDbCircle
10
-6.9999999999999929
20
54.023893421169369
30
0
40
1.7000000000000004
210
0
220
0
230
-1
0
CIRCLE
5
122
100
AcDbEntity
8
INTERIOR_PROFILES
100
AcDbCircle
10
-239.00000000000003
20
54.023893421169369
30
0
40
1.7000000000000171
210
0
220
0
230
-1
0
CIRCLE
5
123
100
AcDbEntity
8
INTERIOR_PROFILES
100
AcDbCircle
10
-79.000000000000028
20
54.023893421169369
30
0
40
1.6999999999999993
210
0
220
0
230
-1
0
LINE
5
124
100
AcDbEntity
8
BEND
100
AcDbLine
10
497.13097335529244
20
43.523893421169362
30
2.8768654125599369e-13
11
497.13097335529244
21
64.523893421169362
31
3.8372083288606973e-13
0
LINE
5
125
100
AcDbEntity
8
BEND
100
AcDbLine
10
495.99999999999994
20
101.91681348704621
30
4.0273340218277554e-13
11
0
21
101.91681348704621
31
4.0814573942782317e-13
0
LINE
5
126
100
AcDbEntity
8
BEND
100
AcDbLine
10
495.99999999999994
20
6.1309733552923351
30
3.0114799542957371e-14
11
0
21
6.1309733552923351
31
2.55351295663786e-14
0
LINE
5
127
100
AcDbEntity
8
BEND
100
AcDbLine
10
-1.1309733552923282
20
64.523893421169362
30
3.6928793356594269e-13
11
-1.1309733552923282
21
43.523893421169369
31
3.0322966360074588e-13
0
LINE
5
128
100
AcDbEntity
8
BEND
100
AcDbLine
10
495.99999999999994
20
42.392920065877007
30
2.6548208076349056e-13
11
0
21
42.392920065877007
31
2.6270652320192767e-13
0
LINE
5
129
100
AcDbEntity
8
BEND
100
AcDbLine
10
496.00000000000011
20
65.654866776461731
30
3.5166314305001833e-13
11
0
21
65.654866776461731
31
3.537448112211905e-13
0
LINE
5
130
100
AcDbEntity
8
BEND_EXTENT
100
AcDbLine
10
3.5527136788005009e-14
20
43.523893421169369
30
2.7450264283856995e-13
11
10.000000000000036
21
43.523893421501739
31
2.7006175074006933e-13
0
LINE
5
131
100
AcDbEntity
8
BEND_EXTENT
100
AcDbLine
10
3.5527136788005009e-14
20
64.523893421169362
30
3.5360603334311236e-13
11
3.5527136788005009e-14
21
43.523893421169369
31
2.7450264283856995e-13
0
LINE
5
132
100
AcDbEntity
8
BEND_EXTENT
100
AcDbLine
10
10.000000000000036
20
64.523893421169362
30
3.269606807521086e-13
11
3.5527136788005009e-14
21
64.523893421169362
31
3.5360603334311236e-13
0
LINE
5
133
100
AcDbEntity
8
BEND_EXTENT
100
AcDbLine
10
10.000000000000036
20
41.261946710584652
30
2.5091040356528538e-13
11
3.5527136788005009e-14
21
41.261946710584652
31
2.5091040356528538e-13
0
LINE
5
134
100
AcDbEntity
8
BEND_EXTENT
100
AcDbLine
10
83
20
43.523893421169369
30
2.7006175074006933e-13
11
413
21
43.523893421169369
31
2.7006175074006933e-13
0
LINE
5
135
100
AcDbEntity
8
BEND_EXTENT
100
AcDbLine
10
413
20
41.261946710584652
30
2.5091040356528538e-13
11
82.999999999999972
21
41.261946710584652
31
2.5091040356528538e-13
0
LINE
5
136
100
AcDbEntity
8
BEND_EXTENT
100
AcDbLine
10
495.99999999999994
20
41.261946710584652
30
2.5091040356528538e-13
11
485.99999999999994
21
41.261946710584652
31
2.5091040356528538e-13
0
LINE
5
137
100
AcDbEntity
8
BEND_EXTENT
100
AcDbLine
10
485.99999999999994
20
43.523893421169369
30
2.7006175074006933e-13
11
495.99999999999994
21
43.523893421169369
31
2.7450264283856995e-13
0
LINE
5
138
100
AcDbEntity
8
BEND_EXTENT
100
AcDbLine
10
495.99999999999994
20
43.523893421169369
30
2.7450264283856995e-13
11
495.99999999999994
21
64.523893421169362
31
3.5360603334311236e-13
0
LINE
5
139
100
AcDbEntity
8
BEND_EXTENT
100
AcDbLine
10
495.99999999999994
20
64.523893421169362
30
3.5360603334311236e-13
11
485.99999999999994
21
64.523893421169362
31
3.269606807521086e-13
0
LINE
5
140
100
AcDbEntity
8
BEND_EXTENT
100
AcDbLine
10
485.99999999999994
20
66.785840131754071
30
3.2418512319054571e-13
11
495.99999999999994
21
66.785840131754071
31
3.5971225997855072e-13
0
LINE
5
141
100
AcDbEntity
8
BEND_EXTENT
100
AcDbLine
10
413
20
64.523893421169362
30
3.269606807521086e-13
11
82.999999999999972
21
64.523893421169362
31
3.269606807521086e-13
0
LINE
5
142
100
AcDbEntity
8
BEND_EXTENT
100
AcDbLine
10
83
20
66.785840131754071
30
3.2418512319054571e-13
11
413
21
66.785840131754071
31
3.2418512319054571e-13
0
LINE
5
143
100
AcDbEntity
8
BEND_EXTENT
100
AcDbLine
10
498.26194671058477
20
64.523893421169362
30
4.0856207306205761e-13
11
498.2619467105846
21
43.523893421169362
31
3.3750779948604759e-13
0
LINE
5
144
100
AcDbEntity
8
BEND_EXTENT
100
AcDbLine
10
-2.2619467105846418
20
43.523893421169369
30
3.730349362740526e-13
11
-2.2619467105846653
21
64.523893421169362
31
3.730349362740526e-13
0
LINE
5
145
100
AcDbEntity
8
BEND_EXTENT
100
AcDbLine
10
3.5527136788005009e-14
20
66.785840131754071
30
3.5971225997855072e-13
11
10.000000000000036
21
66.785840131754071
31
3.2418512319054571e-13
0
LINE
5
146
100
AcDbEntity
8
BEND_EXTENT
100
AcDbLine
10
0
20
7.2619467105846525
30
3.7747582837255322e-14
11
495.99999999999994
21
7.2619467105846525
31
3.7747582837255322e-14
0
LINE
5
147
100
AcDbEntity
8
BEND_EXTENT
100
AcDbLine
10
495.99999999999994
20
100.78584013175409
30
4.1522341120980855e-13
11
0
21
100.78584013175409
31
4.1522341120980855e-13
0
LINE
5
148
100
AcDbEntity
8
BEND_EXTENT
100
AcDbLine
10
495.99999999999994
20
5
30
2.6645352591003757e-14
11
0
21
5
31
2.6645352591003757e-14
0
LINE
5
149
100
AcDbEntity
8
BEND_EXTENT
100
AcDbLine
10
0
20
103.04778684233838
30
4.1300296516055823e-13
11
495.99999999999994
21
103.04778684233838
31
4.1300296516055823e-13
0
ENDSEC
0
SECTION
2
OBJECTS
0
DICTIONARY
5
C
100
AcDbDictionary
3
ACAD_GROUP
350
D
3
ACAD_MLINESTYLE
350
17
0
DICTIONARY
5
D
100
AcDbDictionary
0
DICTIONARY
5
1A
330
C
100
AcDbDictionary
0
DICTIONARY
5
17
100
AcDbDictionary
0
ENDSEC
0
EOF
