0
SECTION
2
HEADER
9
$INSUNITS
70
4
9
$ACADVER
1
AC1014
9
$HANDSEED
5
FFFF
0
ENDSEC
0
SECTION
2
TABLES
0
TABLE
2
VPORT
5
8
100
AcDbSymbolTable
0
ENDTAB
0
TABLE
2
LTYPE
5
5
100
AcDbSymbolTable
0
LTYPE
5
14
100
AcDbSymbolTableRecord
100
AcDbLinetypeTableRecord
2
BYBLOCK
70
0
0
LTYPE
5
15
100
AcDbSymbolTableRecord
100
AcDbLinetypeTableRecord
2
BYLAYER
70
0
0
LTYPE
5
16
100
AcDbSymbolTableRecord
100
AcDbLinetypeTableRecord
2
DASHED
70
0
3
Dashed __ __ __ __ __ __ __ __ __ __ __ __ __ _
72
65
73
2
40
0.75
49
0.5
74
0
49
-0.25
74
0
0
ENDTAB
0
TABLE
2
LAYER
5
2
100
AcDbSymbolTable
70
2
0
LAYER
5
50
100
AcDbSymbolTableRecord
100
AcDbLayerTableRecord
2
0
70
0
62
7
6
CONTINUOUS
0
ENDTAB
0
TABLE
2
STYLE
5
3
100
AcDbSymbolTable
70
1
0
STYLE
5
11
100
AcDbSymbolTableRecord
100
AcDbTextStyleTableRecord
2
STANDARD
70
0
0
ENDTAB
0
TABLE
2
VIEW
5
6
100
AcDbSymbolTable
70
0
0
ENDTAB
0
TABLE
2
UCS
5
7
100
AcDbSymbolTable
70
0
0
ENDTAB
0
TABLE
2
APPID
5
9
100
AcDbSymbolTable
70
2
0
APPID
5
12
100
AcDbSymbolTableRecord
100
AcDbRegAppTableRecord
2
ACAD
70
0
0
ENDTAB
0
TABLE
2
DIMSTYLE
5
A
100
AcDbSymbolTable
70
1
0
ENDTAB
0
TABLE
2
BLOCK_RECORD
5
1
100
AcDbSymbolTable
70
1
0
BLOCK_RECORD
5
1F
100
AcDbSymbolTableRecord
100
AcDbBlockTableRecord
2
*MODEL_SPACE
0
BLOCK_RECORD
5
1B
100
AcDbSymbolTableRecord
100
AcDbBlockTableRecord
2
*PAPER_SPACE
0
ENDTAB
0
ENDSEC
0
SECTION
2
BLOCKS
0
BLOCK
5
20
100
AcDbEntity
100
AcDbBlockBegin
2
*MODEL_SPACE
0
ENDBLK
5
21
100
AcDbEntity
100
AcDbBlockEnd
0
BLOCK
5
1C
100
AcDbEntity
100
AcDbBlockBegin
2
*PAPER_SPACE
0
ENDBLK
5
1D
100
AcDbEntity
100
AcDbBlockEnd
0
ENDSEC
0
SECTION
2
ENTITIES
0
LWPOLYLINE
5
100
100
AcDbEntity
8
OUTER_PROFILES
100
AcDbPolyline
90
24
70
1
43
0.0
10
4.9234253357173598e-13
20
397.04778684233759
10
5.6218936771997666e-13
20
389.78584013175316
10
-19.554839929397993
20
389.78584013175316
10
-1.130973355291232
20
371.36197355764671
42
-0.41421356237311768
10
-1.1309733552912324
20
369.94775999527354
10
-20.261946710582798
20
350.8167866399823
10
-20.261946710584866
20
46.231000202356825
10
-1.1309733552923629
20
27.100026847063241
42
-0.41421356237307522
10
-1.1309733552924079
20
25.685813284690191
10
-19.554839929396937
20
7.2619467105845104
10
-6.8833827526759706e-14
20
7.2619467105845104
10
6.3235090162516306e-26
20
0
10
953.99999999999841
20
1.4210854715202004e-13
10
953.99999999999818
20
7.2619467105845104
10
973.55483992939685
20
7.2619467105843682
10
955.13097335529005
20
25.685813284690919
42
-0.414213562373073
10
955.13097335529005
20
27.100026847063976
10
974.26194671058192
20
46.231000202355403
10
974.26194671058533
20
350.81678663998241
10
955.13097335529267
20
369.94775999527542
42
-0.41421356237306561
10
955.13097335529267
20
371.36197355764841
10
973.55483992939776
20
389.78584013175384
10
953.99999999999989
20
389.78584013175379
10
953.99999999999977
20
397.04778684233821
0
CIRCLE
5
101
100
AcDbEntity
8
INTERIOR_PROFILES
100
AcDbCircle
10
11.261946710496558
20
198.52389342116874
30
0
40
1.7000000000000171
210
-0
220
0
230
-1
0
CIRCLE
5
102
100
AcDbEntity
8
INTERIOR_PROFILES
100
AcDbCircle
10
-965.2619467104962
20
198.52389342116896
30
0
40
1.7000000000000171
210
0
220
0
230
-1
0
LINE
5
103
100
AcDbEntity
8
BEND
100
AcDbLine
10
955.13097335529039
20
27.100026847064385
30
-7.7895029420782225e-12
11
955.1309733552921
21
369.94775999527627
31
-1.0963592746440354e-10
0
LINE
5
104
100
AcDbEntity
8
BEND
100
AcDbLine
10
954.83808013647945
20
370.6548667764614
30
-1.1064723244050126e-10
11
-0.83808013647796997
21
370.65486677646078
31
-1.091885236699721e-10
0
LINE
5
105
100
AcDbEntity
8
BEND
100
AcDbLine
10
-2.1199732310102704e-13
20
6.1309733552923262
30
-1.9495066104866564e-12
11
953.99999999999841
21
6.1309733552923262
31
-1.9270433758134063e-12
0
LINE
5
106
100
AcDbEntity
8
BEND
100
AcDbLine
10
955.13097335529051
20
7.2619467105845104
30
-2.4305339636313626e-12
11
955.13097335529051
21
25.685813284690511
31
-7.8776229703407806e-12
0
LINE
5
107
100
AcDbEntity
8
BEND
100
AcDbLine
10
-1.1309733552910886
20
369.947759995274
30
-1.0958906531658464e-10
11
-1.1309733552911951
21
27.100026847062395
31
-7.4284862928767397e-12
0
LINE
5
108
100
AcDbEntity
8
BEND
100
AcDbLine
10
-1.1309733552921779
20
25.685813284690298
30
-7.8159726372491904e-12
11
-1.1309733552921779
21
7.2619467105845104
31
-2.4043199334244286e-12
0
LINE
5
109
100
AcDbEntity
8
BEND
100
AcDbLine
10
955.13097335529221
20
371.36197355764813
30
-1.1064724229317116e-10
11
955.13097335529221
21
389.78584013175379
31
-1.1585355025569145e-10
0
LINE
5
110
100
AcDbEntity
8
BEND
100
AcDbLine
10
953.99999999999955
20
390.91681348704594
30
-1.1639543818517689e-10
11
5.6843418860808015e-13
21
390.91681348704532
31
-1.1621961459524089e-10
0
LINE
5
111
100
AcDbEntity
8
BEND
100
AcDbLine
10
-0.83808013647871249
20
26.392920065876808
30
-8.2113667762966167e-12
11
954.83808013647672
21
26.392920065876808
31
-7.3795473982179703e-12
0
LINE
5
112
100
AcDbEntity
8
BEND
100
AcDbLine
10
-1.1309733552920707
20
389.78584013175316
30
-1.1542786465201544e-10
11
-1.1309733552920582
21
371.3619735576475
31
-1.1059170357591351e-10
0
LINE
5
113
100
AcDbEntity
8
BEND_EXTENT
100
AcDbLine
10
4.9151118663689173e-13
20
392.04778684233759
30
-1.1653475062598754e-10
11
953.99999999999955
21
392.04778684233816
31
-1.1667789754456988e-10
0
LWPOLYLINE
5
114
100
AcDbEntity
8
BEND_EXTENT
100
AcDbPolyline
90
4
70
1
43
0.0
10
953.99999999999989
20
389.78584013175379
10
5.6843418860808015e-13
20
389.78584013175316
10
1.6250106223946877e-12
20
371.78584013175316
10
954.00000000000114
20
371.78584013175373
0
LINE
5
115
100
AcDbEntity
8
BEND_EXTENT
100
AcDbLine
10
953.99999999999841
20
5.0000000000001421
30
-1.5952105290320595e-12
11
-1.4210854715202004e-13
21
5.0000000000001421
31
-1.5764085892079496e-12
0
LWPOLYLINE
5
116
100
AcDbEntity
8
BEND_EXTENT
100
AcDbPolyline
90
4
70
1
43
0.0
10
-6.9846834148177502e-14
20
7.2619467105845104
10
953.99999999999818
20
7.2619467105845104
10
953.9999999999975
20
25.261946710584553
10
-5.6843418860808015e-13
20
25.261946710584411
0
LINE
5
117
100
AcDbEntity
8
BEND_EXTENT
100
AcDbLine
10
956.26194671058465
20
389.78584013175379
30
-1.1578757880019774e-10
11
956.26194671058443
21
372.49294691294034
31
-1.1085579203186978e-10
0
LINE
5
118
100
AcDbEntity
8
BEND_EXTENT
100
AcDbLine
10
-2.2619467105842355
20
372.49294691293971
30
-1.1081871618777847e-10
11
-2.2619467105842679
21
389.78584013175316
31
-1.1539523158822636e-10
0
LINE
5
119
100
AcDbEntity
8
BEND_EXTENT
100
AcDbLine
10
-2.2619467105844384
20
7.2619467105845104
30
-2.5111362545650818e-12
11
-2.2619467105843998
21
24.554839929397971
31
-7.3718687493170209e-12
0
LINE
5
120
100
AcDbEntity
8
BEND_EXTENT
100
AcDbLine
10
-2.2619467105849038
20
28.231000202356142
30
-7.1155619528560696e-12
11
-2.2619467105828792
21
368.81678663998224
31
-1.0873023195623132e-10
0
LWPOLYLINE
5
121
100
AcDbEntity
8
BEND_EXTENT
100
AcDbPolyline
90
4
70
1
43
0.0
10
5.5882042626161227e-13
20
369.52389342116845
10
5.0195629591826707e-13
20
27.523893421169134
10
953.99999999999852
20
27.523893421169205
10
954.00000000000023
20
369.52389342116919
0
LINE
5
122
100
AcDbEntity
8
BEND_EXTENT
100
AcDbLine
10
956.26194671058306
20
24.554839929398042
30
-7.6221074141362035e-12
11
956.26194671058306
21
7.2619467105845104
31
-2.192940730776168e-12
0
LINE
5
123
100
AcDbEntity
8
BEND_EXTENT
100
AcDbLine
10
956.26194671058556
20
368.81678663998281
30
-1.0876730780032263e-10
11
956.26194671058192
21
28.231000202355858
31
-7.7210719855551892e-12
0
ENDSEC
0
SECTION
2
OBJECTS
0
DICTIONARY
5
C
100
AcDbDictionary
3
ACAD_GROUP
350
D
3
ACAD_MLINESTYLE
350
17
0
DICTIONARY
5
D
100
AcDbDictionary
0
DICTIONARY
5
1A
330
C
100
AcDbDictionary
0
DICTIONARY
5
17
100
AcDbDictionary
0
ENDSEC
0
EOF
