0
SECTION
2
HEADER
9
$INSUNITS
70
4
9
$ACADVER
1
AC1014
9
$HANDSEED
5
FFFF
0
ENDSEC
0
SECTION
2
TABLES
0
TABLE
2
VPORT
5
8
100
AcDbSymbolTable
0
ENDTAB
0
TABLE
2
LTYPE
5
5
100
AcDbSymbolTable
0
LTYPE
5
14
100
AcDbSymbolTableRecord
100
AcDbLinetypeTableRecord
2
BYBLOCK
70
0
0
LTYPE
5
15
100
AcDbSymbolTableRecord
100
AcDbLinetypeTableRecord
2
BYLAYER
70
0
0
LTYPE
5
16
100
AcDbSymbolTableRecord
100
AcDbLinetypeTableRecord
2
DASHED
70
0
3
Dashed __ __ __ __ __ __ __ __ __ __ __ __ __ _
72
65
73
2
40
0.75
49
0.5
74
0
49
-0.25
74
0
0
ENDTAB
0
TABLE
2
LAYER
5
2
100
AcDbSymbolTable
70
2
0
LAYER
5
50
100
AcDbSymbolTableRecord
100
AcDbLayerTableRecord
2
0
70
0
62
7
6
CONTINUOUS
0
ENDTAB
0
TABLE
2
STYLE
5
3
100
AcDbSymbolTable
70
1
0
STYLE
5
11
100
AcDbSymbolTableRecord
100
AcDbTextStyleTableRecord
2
STANDARD
70
0
0
ENDTAB
0
TABLE
2
VIEW
5
6
100
AcDbSymbolTable
70
0
0
ENDTAB
0
TABLE
2
UCS
5
7
100
AcDbSymbolTable
70
0
0
ENDTAB
0
TABLE
2
APPID
5
9
100
AcDbSymbolTable
70
2
0
APPID
5
12
100
AcDbSymbolTableRecord
100
AcDbRegAppTableRecord
2
ACAD
70
0
0
ENDTAB
0
TABLE
2
DIMSTYLE
5
A
100
AcDbSymbolTable
70
1
0
ENDTAB
0
TABLE
2
BLOCK_RECORD
5
1
100
AcDbSymbolTable
70
1
0
BLOCK_RECORD
5
1F
100
AcDbSymbolTableRecord
100
AcDbBlockTableRecord
2
*MODEL_SPACE
0
BLOCK_RECORD
5
1B
100
AcDbSymbolTableRecord
100
AcDbBlockTableRecord
2
*PAPER_SPACE
0
ENDTAB
0
ENDSEC
0
SECTION
2
BLOCKS
0
BLOCK
5
20
100
AcDbEntity
100
AcDbBlockBegin
2
*MODEL_SPACE
0
ENDBLK
5
21
100
AcDbEntity
100
AcDbBlockEnd
0
BLOCK
5
1C
100
AcDbEntity
100
AcDbBlockBegin
2
*PAPER_SPACE
0
ENDBLK
5
1D
100
AcDbEntity
100
AcDbBlockEnd
0
ENDSEC
0
SECTION
2
ENTITIES
0
SPLINE
5
100
100
AcDbEntity
8
OUTER_PROFILES
100
AcDbSpline
70
0
71
3
72
11
73
7
74
0
42
0.000000001
43
0.0000000001
44
0.0000000001
40
1.5707963267948966
40
1.5707963267948966
40
1.5707963267948966
40
1.5707963267948966
40
3.0437620783854289
40
3.0437620783854289
40
3.0437620783854289
40
3.1415926535897931
40
3.1415926535897931
40
3.1415926535897931
40
3.1415926535897931
10
-15.594604099294713
20
15.594604099286979
30
0
10
-14.887580538531182
20
15.103615515423471
30
0
10
-14.180556977767651
20
14.647342806449348
30
0
10
-13.473533417004262
20
14.599385694534226
30
0
10
-13.426574740906148
20
14.596200507208101
30
0
10
-13.379616064808033
20
14.594604099286974
30
0
10
-13.332657388710061
20
14.594604099286974
30
0
0
LINE
5
101
100
AcDbEntity
8
OUTER_PROFILES
100
AcDbLine
10
-13.332657388710063
20
14.594604099286974
30
0
11
-7.3326573887032964
21
14.594604099287778
31
0
0
SPLINE
5
102
100
AcDbEntity
8
OUTER_PROFILES
100
AcDbSpline
70
0
71
3
72
11
73
7
74
0
42
0.000000001
43
0.0000000001
44
0.0000000001
40
-3.1415926535897931
40
-3.1415926535897931
40
-3.1415926535897931
40
-3.1415926535897931
40
-1.6686269019992668
40
-1.6686269019992668
40
-1.6686269019992668
40
-1.5707963267948966
40
-1.5707963267948966
40
-1.5707963267948966
40
-1.5707963267948966
10
-7.3326573887098334
20
14.594604099287778
30
0
10
-6.6256338279464444
20
14.59460409928778
30
0
10
-5.9186102671829133
20
15.008288627399274
30
0
10
-5.2115867064193822
20
15.496929502583734
30
0
10
-5.1646280303214098
20
15.529383765580727
30
0
10
-5.1176693542232954
20
15.561993907552941
30
0
10
-5.0707106781251809
20
15.59460409928773
30
0
0
LINE
5
103
100
AcDbEntity
8
OUTER_PROFILES
100
AcDbLine
10
-5.0707106781251818
20
15.594604099287732
30
0
11
-4.9999999999994316
21
15.523893421170792
31
0
0
SPLINE
5
104
100
AcDbEntity
8
OUTER_PROFILES
100
AcDbSpline
70
0
71
3
72
11
73
7
74
0
42
0.000000001
43
0.0000000001
44
0.0000000001
40
1.5707963267948966
40
1.5707963267948966
40
1.5707963267948966
40
1.5707963267948966
40
1.6686269019992668
40
1.6686269019992668
40
1.6686269019992668
40
3.1415926535897931
40
3.1415926535897931
40
3.1415926535897931
40
3.1415926535897931
10
-4.9999999999994316
20
15.523893421170792
30
0
10
-5.0326101917343635
20
15.476934745072677
30
0
10
-5.0652203337065771
20
15.429976068974705
30
0
10
-5.0976745967034276
20
15.383017392876519
30
0
10
-5.5863154718879571
20
14.675993832113058
30
0
10
-5.9999999999995168
20
13.968970271349598
30
0
10
-5.9999999999995168
20
13.261946710586137
30
0
0
LINE
5
105
100
AcDbEntity
8
OUTER_PROFILES
100
AcDbLine
10
-5.9999999999995159
20
13.261946710586139
30
0
11
-6.0000000000006537
21
7.2619467105826185
31
0
0
SPLINE
5
106
100
AcDbEntity
8
OUTER_PROFILES
100
AcDbSpline
70
0
71
3
72
11
73
7
74
0
42
0.000000001
43
0.0000000001
44
0.0000000001
40
-3.1415926535897931
40
-3.1415926535897931
40
-3.1415926535897931
40
-3.1415926535897931
40
-3.043762078385428
40
-3.043762078385428
40
-3.043762078385428
40
-1.5707963267948959
40
-1.5707963267948959
40
-1.5707963267948959
40
-1.5707963267948959
10
-6.0000000000006537
20
7.2619467105826185
30
0
10
-6.0000000000006537
20
7.2149880344845236
30
0
10
-5.9984035920795975
20
7.1680293583864252
30
0
10
-5.9952184047534729
20
7.1210706822883285
30
0
10
-5.9472612928382773
20
6.4140471215248454
30
0
10
-5.4909885838641515
20
5.7070235607614226
30
0
10
-5.0000000000005684
20
4.9999999999979661
30
0
0
LINE
5
107
100
AcDbEntity
8
OUTER_PROFILES
100
AcDbLine
10
-5.0000000000005684
20
4.999999999997967
30
0
11
0
21
0
31
0
0
LINE
5
108
100
AcDbEntity
8
OUTER_PROFILES
100
AcDbLine
10
0
20
0
30
0
11
747.85857864376271
21
-1.3322676295501878e-14
31
0
0
LINE
5
109
100
AcDbEntity
8
OUTER_PROFILES
100
AcDbLine
10
747.85857864376271
20
-1.3322676295501878e-14
30
0
11
752.85857864376271
21
4.9999999999970512
31
0
0
SPLINE
5
110
100
AcDbEntity
8
OUTER_PROFILES
100
AcDbSpline
70
0
71
3
72
11
73
7
74
0
42
0.000000001
43
0.0000000001
44
0.0000000001
40
1.570796326794897
40
1.570796326794897
40
1.570796326794897
40
1.570796326794897
40
3.0437620783854262
40
3.0437620783854262
40
3.0437620783854262
40
3.1415926535897927
40
3.1415926535897927
40
3.1415926535897927
40
3.1415926535897927
10
752.85857864376271
20
4.9999999999970512
30
0
10
753.34956722762615
20
5.7070235607605042
30
0
10
753.80583993660036
20
6.4140471215239883
30
0
10
753.85379704851539
20
7.1210706822874172
30
0
10
753.85698223584154
20
7.1680293583855113
30
0
10
753.8585786437626
20
7.2149880344836061
30
0
10
753.8585786437626
20
7.2619467105817019
30
0
0
LINE
5
111
100
AcDbEntity
8
OUTER_PROFILES
100
AcDbLine
10
753.85857864376271
20
7.2619467105817002
30
0
11
753.85857864376271
21
13.261946710571035
31
0
0
SPLINE
5
112
100
AcDbEntity
8
OUTER_PROFILES
100
AcDbSpline
70
0
71
3
72
11
73
7
74
0
42
0.000000001
43
0.0000000001
44
0.0000000001
40
-3.1415926535897931
40
-3.1415926535897931
40
-3.1415926535897931
40
-3.1415926535897931
40
-1.6686269019992692
40
-1.6686269019992692
40
-1.6686269019992692
40
-1.5707963267948966
40
-1.5707963267948966
40
-1.5707963267948966
40
-1.5707963267948966
10
753.85857864376271
20
13.261946710571035
30
0
10
753.85857864376271
20
13.968970271334495
30
0
10
753.44489411565132
20
14.675993832097953
30
0
10
752.95625324046682
20
15.383017392861412
30
0
10
752.9237989774698
20
15.429976068959526
30
0
10
752.89118883549759
20
15.476934745057569
30
0
10
752.85857864376283
20
15.523893421155684
30
0
0
LINE
5
113
100
AcDbEntity
8
OUTER_PROFILES
100
AcDbLine
10
752.85857864376271
20
15.52389342115568
30
0
11
752.92928932188204
21
15.594604099287828
31
0
0
SPLINE
5
114
100
AcDbEntity
8
OUTER_PROFILES
100
AcDbSpline
70
0
71
3
72
11
73
7
74
0
42
0.000000001
43
0.0000000001
44
0.0000000001
40
1.5707963267948966
40
1.5707963267948966
40
1.5707963267948966
40
1.5707963267948966
40
1.668626901999269
40
1.668626901999269
40
1.668626901999269
40
3.1415926535897931
40
3.1415926535897931
40
3.1415926535897931
40
3.1415926535897931
10
752.92928932188534
20
15.594604099287686
30
0
10
752.97624799798336
20
15.561993907552896
30
0
10
753.02320667408151
20
15.529383765580683
30
0
10
753.07016535017965
20
15.49692950258369
30
0
10
753.7771889109431
20
15.008288627399233
30
0
10
754.48421247170654
20
14.59460409928775
30
0
10
755.1912360324701
20
14.594604099287752
30
0
0
LINE
5
115
100
AcDbEntity
8
OUTER_PROFILES
100
AcDbLine
10
755.1912360324701
20
14.594604099287752
30
0
11
761.19123603246976
21
14.594604099287347
31
0
0
SPLINE
5
116
100
AcDbEntity
8
OUTER_PROFILES
100
AcDbSpline
70
0
71
3
72
11
73
7
74
0
42
0.000000001
43
0.0000000001
44
0.0000000001
40
-3.1415926535897931
40
-3.1415926535897931
40
-3.1415926535897931
40
-3.1415926535897931
40
-3.0437620783854258
40
-3.0437620783854258
40
-3.0437620783854258
40
-1.5707963267948968
40
-1.5707963267948968
40
-1.5707963267948968
40
-1.5707963267948968
10
761.19123603246976
20
14.594604099287347
30
0
10
761.2381947085679
20
14.594604099287347
30
0
10
761.28515338466605
20
14.596200507208403
30
0
10
761.33211206076408
20
14.599385694534528
30
0
10
762.03913562152752
20
14.647342806449654
30
0
10
762.74615918229097
20
15.103615515423856
30
0
10
763.45318274305441
20
15.59460409928737
30
0
0
LINE
5
117
100
AcDbEntity
8
OUTER_PROFILES
100
AcDbLine
10
763.45318274305441
20
15.59460409928737
30
0
11
768.45318274305032
21
20.594604099287817
31
0
0
LINE
5
118
100
AcDbEntity
8
OUTER_PROFILES
100
AcDbLine
10
768.45318274305032
20
20.594604099287817
30
0
11
768.45318274304668
21
968.45318274305157
31
0
0
LINE
5
119
100
AcDbEntity
8
OUTER_PROFILES
100
AcDbLine
10
768.45318274304668
20
968.45318274305157
30
0
11
763.45318274304645
21
973.45318274305123
31
0
0
SPLINE
5
120
100
AcDbEntity
8
OUTER_PROFILES
100
AcDbSpline
70
0
71
3
72
11
73
7
74
0
42
0.000000001
43
0.0000000001
44
0.0000000001
40
1.5707963267948968
40
1.5707963267948968
40
1.5707963267948968
40
1.5707963267948968
40
3.0437620783854271
40
3.0437620783854271
40
3.0437620783854271
40
3.1415926535897931
40
3.1415926535897931
40
3.1415926535897931
40
3.1415926535897931
10
763.453182743046
20
973.45318274305123
30
0
10
762.74615918228255
20
973.94417132691478
30
0
10
762.03913562151911
20
974.400444035889
30
0
10
761.33211206075555
20
974.44840114780413
30
0
10
761.28515338465741
20
974.45158633513017
30
0
10
761.23819470855949
20
974.45318274305123
30
0
10
761.19123603246135
20
974.45318274305123
30
0
0
LINE
5
121
100
AcDbEntity
8
OUTER_PROFILES
100
AcDbLine
10
761.19123603246135
20
974.45318274305134
30
0
11
755.1912360324626
21
974.45318274305123
31
0
0
SPLINE
5
122
100
AcDbEntity
8
OUTER_PROFILES
100
AcDbSpline
70
0
71
3
72
11
73
7
74
0
42
0.000000001
43
0.0000000001
44
0.0000000001
40
-3.1415926535897931
40
-3.1415926535897931
40
-3.1415926535897931
40
-3.1415926535897931
40
-1.6686269019992681
40
-1.6686269019992681
40
-1.6686269019992681
40
-1.5707963267948966
40
-1.5707963267948966
40
-1.5707963267948966
40
-1.5707963267948966
10
755.19123603246896
20
974.45318274305123
30
0
10
754.4842124717054
20
974.45318274305123
30
0
10
753.77718891094207
20
974.03949821493961
30
0
10
753.07016535017851
20
973.55085733975534
30
0
10
753.02320667408037
20
973.51840307675832
30
0
10
752.97624799798245
20
973.48579293478588
30
0
10
752.92928932188431
20
973.45318274305123
30
0
0
LINE
5
123
100
AcDbEntity
8
OUTER_PROFILES
100
AcDbLine
10
752.92928932188431
20
973.45318274305112
30
0
11
752.85857864375942
21
973.52389342116885
31
0
0
SPLINE
5
124
100
AcDbEntity
8
OUTER_PROFILES
100
AcDbSpline
70
0
71
3
72
11
73
7
74
0
42
0.000000001
43
0.0000000001
44
0.0000000001
40
1.5707963267948966
40
1.5707963267948966
40
1.5707963267948966
40
1.5707963267948966
40
1.6686269019992677
40
1.6686269019992677
40
1.6686269019992677
40
3.1415926535897931
40
3.1415926535897931
40
3.1415926535897931
40
3.1415926535897931
10
752.85857864375942
20
973.52389342116771
30
0
10
752.89118883549418
20
973.57085209726563
30
0
10
752.92379897746639
20
973.61781077336377
30
0
10
752.95625324046341
20
973.6647694494618
30
0
10
753.4448941156478
20
974.37179301022525
30
0
10
753.8585786437593
20
975.07881657098881
30
0
10
753.8585786437593
20
975.78584013175237
30
0
0
LINE
5
125
100
AcDbEntity
8
OUTER_PROFILES
100
AcDbLine
10
753.8585786437593
20
975.78584013175237
30
0
11
753.85857864375998
21
981.78584013175634
31
0
0
SPLINE
5
126
100
AcDbEntity
8
OUTER_PROFILES
100
AcDbSpline
70
0
71
3
72
11
73
7
74
0
42
0.000000001
43
0.0000000001
44
0.0000000001
40
-3.1415926535897931
40
-3.1415926535897931
40
-3.1415926535897931
40
-3.1415926535897931
40
-3.0437620783854262
40
-3.0437620783854262
40
-3.0437620783854262
40
-1.5707963267948961
40
-1.5707963267948961
40
-1.5707963267948961
40
-1.5707963267948961
10
753.85857864375998
20
981.78584013175634
30
0
10
753.85857864375998
20
981.83279880785437
30
0
10
753.85698223583881
20
981.87975748395252
30
0
10
753.85379704851277
20
981.92671616005055
30
0
10
753.80583993659775
20
982.63373972081399
30
0
10
753.34956722762342
20
983.34076328157744
30
0
10
752.85857864375998
20
984.047786842341
30
0
0
LINE
5
127
100
AcDbEntity
8
OUTER_PROFILES
100
AcDbLine
10
752.85857864375987
20
984.047786842341
30
0
11
747.85857864375907
21
989.04778684233793
31
0
0
LINE
5
128
100
AcDbEntity
8
OUTER_PROFILES
100
AcDbLine
10
747.85857864375907
20
989.04778684233793
30
0
11
-2.8421709430404007e-12
21
989.04778684233463
31
0
0
LINE
5
129
100
AcDbEntity
8
OUTER_PROFILES
100
AcDbLine
10
-2.8421709430404007e-12
20
989.04778684233463
30
0
11
-5.0000000000029843
21
984.04778684233872
31
0
0
SPLINE
5
130
100
AcDbEntity
8
OUTER_PROFILES
100
AcDbSpline
70
0
71
3
72
11
73
7
74
0
42
0.000000001
43
0.0000000001
44
0.0000000001
40
1.5707963267948974
40
1.5707963267948974
40
1.5707963267948974
40
1.5707963267948974
40
3.043762078385428
40
3.043762078385428
40
3.043762078385428
40
3.1415926535897944
40
3.1415926535897944
40
3.1415926535897944
40
3.1415926535897944
10
-5.0000000000029843
20
984.04778684233872
30
0
10
-5.4909885838665673
20
983.34076328157539
30
0
10
-5.9472612928406932
20
982.63373972081183
30
0
10
-5.9952184047557466
20
981.9267161600485
30
0
10
-5.9984035920820133
20
981.87975748395036
30
0
10
-6.0000000000030695
20
981.83279880785221
30
0
10
-6.0000000000030695
20
981.78584013175407
30
0
0
LINE
5
131
100
AcDbEntity
8
OUTER_PROFILES
100
AcDbLine
10
-6.0000000000030704
20
981.78584013175407
30
0
11
-6.000000000003638
21
975.78584013174373
31
0
0
SPLINE
5
132
100
AcDbEntity
8
OUTER_PROFILES
100
AcDbSpline
70
0
71
3
72
11
73
7
74
0
42
0.000000001
43
0.0000000001
44
0.0000000001
40
-3.1415926535897931
40
-3.1415926535897931
40
-3.1415926535897931
40
-3.1415926535897931
40
-1.6686269019992672
40
-1.6686269019992672
40
-1.6686269019992672
40
-1.5707963267948966
40
-1.5707963267948966
40
-1.5707963267948966
40
-1.5707963267948966
10
-6.000000000003638
20
975.78584013174373
30
0
10
-6.000000000003638
20
975.07881657098039
30
0
10
-5.5863154718920782
20
974.37179301021672
30
0
10
-5.0976745967075487
20
973.66476944945339
30
0
10
-5.0652203337105561
20
973.61781077335525
30
0
10
-5.0326101917383426
20
973.5708520972571
30
0
10
-5.0000000000035527
20
973.52389342115907
30
0
0
LINE
5
133
100
AcDbEntity
8
OUTER_PROFILES
100
AcDbLine
10
-5.0000000000035527
20
973.52389342115907
30
0
11
-5.0707106781214861
21
973.45318274304668
31
0
0
SPLINE
5
134
100
AcDbEntity
8
OUTER_PROFILES
100
AcDbSpline
70
0
71
3
72
11
73
7
74
0
42
0.000000001
43
0.0000000001
44
0.0000000001
40
1.5707963267948966
40
1.5707963267948966
40
1.5707963267948966
40
1.5707963267948966
40
1.6686269019992672
40
1.6686269019992672
40
1.6686269019992672
40
3.1415926535897931
40
3.1415926535897931
40
3.1415926535897931
40
3.1415926535897931
10
-5.0707106781251809
20
973.45318274304668
30
0
10
-5.1176693542234375
20
973.48579293478156
30
0
10
-5.1646280303214098
20
973.51840307675377
30
0
10
-5.2115867064195243
20
973.55085733975079
30
0
10
-5.9186102671830554
20
974.03949821493507
30
0
10
-6.6256338279464444
20
974.45318274304668
30
0
10
-7.3326573887098334
20
974.45318274304668
30
0
0
LINE
5
135
100
AcDbEntity
8
OUTER_PROFILES
100
AcDbLine
10
-7.3326573887098325
20
974.45318274304668
30
0
11
-13.332657388709208
21
974.45318274304714
31
0
0
SPLINE
5
136
100
AcDbEntity
8
OUTER_PROFILES
100
AcDbSpline
70
0
71
3
72
11
73
7
74
0
42
0.000000001
43
0.0000000001
44
0.0000000001
40
-3.1415926535897931
40
-3.1415926535897931
40
-3.1415926535897931
40
-3.1415926535897931
40
-3.043762078385428
40
-3.043762078385428
40
-3.043762078385428
40
-1.5707963267948966
40
-1.5707963267948966
40
-1.5707963267948966
40
-1.5707963267948966
10
-13.332657388709208
20
974.45318274304714
30
0
10
-13.379616064807323
20
974.45318274304714
30
0
10
-13.426574740905295
20
974.45158633512608
30
0
10
-13.473533417003409
20
974.44840114779993
30
0
10
-14.18055697776694
20
974.40044403588468
30
0
10
-14.887580538530329
20
973.94417132691058
30
0
10
-15.594604099293861
20
973.45318274304702
30
0
0
LINE
5
137
100
AcDbEntity
8
OUTER_PROFILES
100
AcDbLine
10
-15.594604099293859
20
973.45318274304691
30
0
11
-20.594604099290308
21
968.45318274304691
31
0
0
LINE
5
138
100
AcDbEntity
8
OUTER_PROFILES
100
AcDbLine
10
-20.594604099290308
20
968.45318274304691
30
0
11
-20.594604099287608
21
20.594604099286755
31
0
0
LINE
5
139
100
AcDbEntity
8
OUTER_PROFILES
100
AcDbLine
10
-20.594604099287608
20
20.594604099286755
30
0
11
-15.594604099294713
21
15.594604099286979
31
0
0
LINE
5
140
100
AcDbEntity
8
BEND
100
AcDbLine
10
-5.7071067811867238
20
14.392920065877131
30
-3.393663487013089e-12
11
753.56568542494256
21
14.392920065877091
31
-3.4398401556429236e-12
0
LINE
5
141
100
AcDbEntity
8
BEND
100
AcDbLine
10
-14.463630743866815
20
974.16028952429974
30
-3.6467948512681951e-12
11
-14.463630743863973
21
14.88749731803253
31
-3.7751643884904821e-12
0
LINE
5
142
100
AcDbEntity
8
BEND
100
AcDbLine
10
753.56568542588445
20
982.91681348513862
30
-1.7685381699480855e-12
11
-5.7071067821274823
21
982.91681348513623
31
-2.0312810579196788e-12
0
LINE
5
143
100
AcDbEntity
8
BEND
100
AcDbLine
10
-6.2016840334135281
20
974.1602895242313
30
-3.7326061306005531e-14
11
-6.201684033410686
21
14.887497318104579
31
-3.6336159938230447e-12
0
LINE
5
144
100
AcDbEntity
8
BEND
100
AcDbLine
10
754.06026267717368
20
14.887497318103168
30
-7.4509316101226912e-12
11
754.06026267717016
21
974.1602895242346
31
-3.8189757629395689e-12
0
LINE
5
145
100
AcDbEntity
8
BEND
100
AcDbLine
10
-5.7071067808020359
20
6.1309733545059819
30
-1.3859639248566737e-12
11
753.56568542456398
21
6.1309733545051497
31
-1.415626025995006e-12
0
LINE
5
146
100
AcDbEntity
8
BEND
100
AcDbLine
10
753.56568542494642
20
974.65486677646095
30
-3.5269926630760025e-12
11
-5.7071067811932608
21
974.65486677645777
31
-3.4759587687134194e-12
0
LINE
5
147
100
AcDbEntity
8
BEND
100
AcDbLine
10
762.32220938756836
20
14.887497318005714
30
-4.2441962223432609e-12
11
762.32220938756484
21
974.16028952433044
31
-4.3213567225547037e-12
0
LINE
5
148
100
AcDbEntity
8
BEND_EXTENT
100
AcDbLine
10
763.45318274304645
20
973.45318274305123
30
-4.33234726486495e-12
11
763.45318274305009
21
15.594604099287324
31
-4.3501108332589541e-12
0
LINE
5
149
100
AcDbEntity
8
BEND_EXTENT
100
AcDbLine
10
761.19123603246635
20
14.594604099287702
30
-4.2140543328583348e-12
11
761.19123603246271
21
974.45318274305066
31
-4.214054332858334e-12
0
LINE
5
150
100
AcDbEntity
8
BEND_EXTENT
100
AcDbLine
10
-5.0000000000028422
20
984.04778684233497
30
-1.5229893831226668e-12
11
752.85857864375998
21
984.04778684233725
31
-1.5761403383285514e-12
0
LINE
5
151
100
AcDbEntity
8
BEND_EXTENT
100
AcDbLine
10
753.85857864375919
20
981.78584013175339
30
-2.0093966838698965e-12
11
-6.0000000000030695
21
981.785840131751
31
-2.0889337597439625e-12
0
LINE
5
152
100
AcDbEntity
8
BEND_EXTENT
100
AcDbLine
10
-15.594604099287608
20
15.594604099286979
30
-3.8893514922067407e-12
11
-15.594604099290166
21
973.45318274304714
31
-3.8249585567784808e-12
0
LINE
5
153
100
AcDbEntity
8
BEND_EXTENT
100
AcDbLine
10
-13.332657388706224
20
974.45318274304725
30
-3.7922611574360763e-12
11
-13.332657388703524
21
14.594604099287807
31
-3.7922611574360763e-12
0
LINE
5
154
100
AcDbEntity
8
BEND_EXTENT
100
AcDbLine
10
752.85857864376283
20
4.9999999999997939
30
-1.080980869345732e-12
11
-5.0000000000005684
21
5.000000000000691
31
-1.1077659719128589e-12
0
LINE
5
155
100
AcDbEntity
8
BEND_EXTENT
100
AcDbLine
10
-6.0000000000000853
20
7.2619467105847946
30
-1.733662391863913e-12
11
753.85857864376294
21
7.2619467105839313
31
-1.6541253159898474e-12
0
LINE
5
156
100
AcDbEntity
8
BEND_EXTENT
100
AcDbLine
10
755.1912360324626
20
974.45318274305123
30
-3.8571667693530774e-12
11
755.19123603246612
21
14.594604099287665
31
-3.8571667693530782e-12
0
LINE
5
157
100
AcDbEntity
8
BEND_EXTENT
100
AcDbLine
10
753.85857864376294
20
13.261946710584061
30
-3.146265061086058e-12
11
-5.9999999999996589
21
13.261946710584986
31
-3.2258021369601236e-12
0
LINE
5
158
100
AcDbEntity
8
BEND_EXTENT
100
AcDbLine
10
-6.000000000003638
20
975.78584013175089
30
-3.2968564105361324e-12
11
753.85857864375953
21
975.78584013175328
31
-3.2173193346620668e-12
0
LINE
5
159
100
AcDbEntity
8
BEND_EXTENT
100
AcDbLine
10
-7.3326573887032964
20
14.594604099287778
30
-3.7228230794852728e-12
11
-7.3326573887061386
21
974.45318274304668
31
-3.7228230794852728e-12
0
LINE
5
160
100
AcDbEntity
8
BEND_EXTENT
100
AcDbLine
10
752.92928932188204
20
15.594604099287828
30
-3.8565574779567289e-12
11
752.92928932187738
21
973.453182743051
31
-3.8565574779567281e-12
0
LINE
5
161
100
AcDbEntity
8
BEND_EXTENT
100
AcDbLine
10
752.85857864375942
20
973.52389342116885
30
-3.8565384309086225e-12
11
-5.0000000000022737
21
973.52389342116578
31
-3.6523971443537169e-12
0
LINE
5
162
100
AcDbEntity
8
BEND_EXTENT
100
AcDbLine
10
-5.0707106781214861
20
973.45318274304668
30
-3.6523780973056122e-12
11
-5.070710678118644
21
15.59460409928775
31
-3.6523780973056122e-12
0
LINE
5
163
100
AcDbEntity
8
BEND_EXTENT
100
AcDbLine
10
-5.0000000000001421
20
15.523893421169015
30
-3.6523971443537177e-12
11
752.85857864376283
21
15.523893421168616
31
-3.8565384309086234e-12
0
ENDSEC
0
SECTION
2
OBJECTS
0
DICTIONARY
5
C
100
AcDbDictionary
3
ACAD_GROUP
350
D
3
ACAD_MLINESTYLE
350
17
0
DICTIONARY
5
D
100
AcDbDictionary
0
DICTIONARY
5
1A
330
C
100
AcDbDictionary
0
DICTIONARY
5
17
100
AcDbDictionary
0
ENDSEC
0
EOF
