0
SECTION
2
HEADER
9
$INSUNITS
70
4
9
$ACADVER
1
AC1014
9
$HANDSEED
5
FFFF
0
ENDSEC
0
SECTION
2
TABLES
0
TABLE
2
VPORT
5
8
100
AcDbSymbolTable
0
ENDTAB
0
TABLE
2
LTYPE
5
5
100
AcDbSymbolTable
0
LTYPE
5
14
100
AcDbSymbolTableRecord
100
AcDbLinetypeTableRecord
2
BYBLOCK
70
0
0
LTYPE
5
15
100
AcDbSymbolTableRecord
100
AcDbLinetypeTableRecord
2
BYLAYER
70
0
0
LTYPE
5
16
100
AcDbSymbolTableRecord
100
AcDbLinetypeTableRecord
2
DASHED
70
0
3
Dashed __ __ __ __ __ __ __ __ __ __ __ __ __ _
72
65
73
2
40
0.75
49
0.5
74
0
49
-0.25
74
0
0
ENDTAB
0
TABLE
2
LAYER
5
2
100
AcDbSymbolTable
70
2
0
LAYER
5
50
100
AcDbSymbolTableRecord
100
AcDbLayerTableRecord
2
0
70
0
62
7
6
CONTINUOUS
0
ENDTAB
0
TABLE
2
STYLE
5
3
100
AcDbSymbolTable
70
1
0
STYLE
5
11
100
AcDbSymbolTableRecord
100
AcDbTextStyleTableRecord
2
STANDARD
70
0
0
ENDTAB
0
TABLE
2
VIEW
5
6
100
AcDbSymbolTable
70
0
0
ENDTAB
0
TABLE
2
UCS
5
7
100
AcDbSymbolTable
70
0
0
ENDTAB
0
TABLE
2
APPID
5
9
100
AcDbSymbolTable
70
2
0
APPID
5
12
100
AcDbSymbolTableRecord
100
AcDbRegAppTableRecord
2
ACAD
70
0
0
ENDTAB
0
TABLE
2
DIMSTYLE
5
A
100
AcDbSymbolTable
70
1
0
ENDTAB
0
TABLE
2
BLOCK_RECORD
5
1
100
AcDbSymbolTable
70
1
0
BLOCK_RECORD
5
1F
100
AcDbSymbolTableRecord
100
AcDbBlockTableRecord
2
*MODEL_SPACE
0
BLOCK_RECORD
5
1B
100
AcDbSymbolTableRecord
100
AcDbBlockTableRecord
2
*PAPER_SPACE
0
ENDTAB
0
ENDSEC
0
SECTION
2
BLOCKS
0
BLOCK
5
20
100
AcDbEntity
100
AcDbBlockBegin
2
*MODEL_SPACE
0
ENDBLK
5
21
100
AcDbEntity
100
AcDbBlockEnd
0
BLOCK
5
1C
100
AcDbEntity
100
AcDbBlockBegin
2
*PAPER_SPACE
0
ENDBLK
5
1D
100
AcDbEntity
100
AcDbBlockEnd
0
ENDSEC
0
SECTION
2
ENTITIES
0
LINE
5
100
100
AcDbEntity
8
OUTER_PROFILES
100
AcDbLine
10
-4.9999999999998934
20
5.0000000000000355
30
0
11
-5.5511151231257827e-16
21
0
31
0
0
LINE
5
101
100
AcDbEntity
8
OUTER_PROFILES
100
AcDbLine
10
-5.5511151231257827e-16
20
0
30
0
11
180.85857864376234
21
0
31
0
0
LINE
5
102
100
AcDbEntity
8
OUTER_PROFILES
100
AcDbLine
10
180.85857864376234
20
0
30
0
11
185.8585786437622
21
5.0000000000000355
31
0
0
SPLINE
5
103
100
AcDbEntity
8
OUTER_PROFILES
100
AcDbSpline
70
0
71
3
72
11
73
7
74
0
42
0.000000001
43
0.0000000001
44
0.0000000001
40
1.5707963267948966
40
1.5707963267948966
40
1.5707963267948966
40
1.5707963267948966
40
3.043762078385428
40
3.043762078385428
40
3.043762078385428
40
3.1415926535897842
40
3.1415926535897842
40
3.1415926535897842
40
3.1415926535897842
10
185.8585786437622
20
4.9999999999996447
30
0
10
186.3495672276257
20
5.7070235607630693
30
0
10
186.80583993659982
20
6.4140471215265293
30
0
10
186.85379704851499
20
7.1210706822899894
30
0
10
186.85698223584114
20
7.1680293583880683
30
0
10
186.8585786437622
20
7.2149880344861828
30
0
10
186.8585786437622
20
7.2619467105842617
30
0
0
LINE
5
104
100
AcDbEntity
8
OUTER_PROFILES
100
AcDbLine
10
186.8585786437622
20
7.2619467105842608
30
0
11
186.85857864376248
21
28.261946710584631
31
0
0
SPLINE
5
105
100
AcDbEntity
8
OUTER_PROFILES
100
AcDbSpline
70
0
71
3
72
11
73
7
74
0
42
0.000000001
43
0.0000000001
44
0.0000000001
40
-3.1415926535897931
40
-3.1415926535897931
40
-3.1415926535897931
40
-3.1415926535897931
40
-1.668626901999261
40
-1.668626901999261
40
-1.668626901999261
40
-1.5707963267948966
40
-1.5707963267948966
40
-1.5707963267948966
40
-1.5707963267948966
10
186.85857864376248
20
28.261946710584844
30
0
10
186.85857864376248
20
28.968970271348269
30
0
10
186.44489411565098
20
29.675993832111729
30
0
10
185.95625324046648
20
30.383017392875189
30
0
10
185.92379897746952
20
30.429976068973303
30
0
10
185.89118883549727
20
30.476934745071382
30
0
10
185.85857864376248
20
30.523893421169461
30
0
0
LINE
5
106
100
AcDbEntity
8
OUTER_PROFILES
100
AcDbLine
10
185.85857864376243
20
30.523893421169461
30
0
11
185.92928932188119
21
30.594604099288105
31
0
0
SPLINE
5
107
100
AcDbEntity
8
OUTER_PROFILES
100
AcDbSpline
70
0
71
3
72
11
73
7
74
0
42
0.000000001
43
0.0000000001
44
0.0000000001
40
1.5707963267948966
40
1.5707963267948966
40
1.5707963267948966
40
1.5707963267948966
40
1.668626901999261
40
1.668626901999261
40
1.668626901999261
40
3.1415926535897931
40
3.1415926535897931
40
3.1415926535897931
40
3.1415926535897931
10
185.92928932188104
20
30.594604099288105
30
0
10
185.97624799797916
20
30.561993907553315
30
0
10
186.02320667407727
20
30.529383765581031
30
0
10
186.07016535017536
20
30.496929502584074
30
0
10
186.77718891093883
20
30.00828862739958
30
0
10
187.48421247170225
20
29.594604099288091
30
0
10
188.1912360324657
20
29.594604099288091
30
0
0
LINE
5
108
100
AcDbEntity
8
OUTER_PROFILES
100
AcDbLine
10
188.1912360324657
20
29.594604099288091
30
0
11
209.19123603246592
21
29.594604099288233
31
0
0
SPLINE
5
109
100
AcDbEntity
8
OUTER_PROFILES
100
AcDbSpline
70
0
71
3
72
11
73
7
74
0
42
0.000000001
43
0.0000000001
44
0.0000000001
40
-3.1415926535897842
40
-3.1415926535897842
40
-3.1415926535897842
40
-3.1415926535897842
40
-3.043762078385428
40
-3.043762078385428
40
-3.043762078385428
40
-1.5707963267948966
40
-1.5707963267948966
40
-1.5707963267948966
40
-1.5707963267948966
10
209.19123603246592
20
29.594604099288233
30
0
10
209.23819470856404
20
29.594604099288233
30
0
10
209.28515338466212
20
29.596200507209289
30
0
10
209.33211206076021
20
29.599385694535414
30
0
10
210.03913562152366
20
29.647342806450574
30
0
10
210.74615918228713
20
30.103615515424735
30
0
10
211.45318274305058
20
30.594604099288247
30
0
0
LINE
5
110
100
AcDbEntity
8
OUTER_PROFILES
100
AcDbLine
10
211.45318274305058
20
30.594604099288247
30
0
11
216.45318274305049
21
35.594604099288105
31
0
0
LINE
5
111
100
AcDbEntity
8
OUTER_PROFILES
100
AcDbLine
10
216.45318274305049
20
35.594604099288105
30
0
11
216.45318274305049
21
206.45318274305049
31
0
0
LINE
5
112
100
AcDbEntity
8
OUTER_PROFILES
100
AcDbLine
10
216.45318274305049
20
206.45318274305049
30
0
11
211.45318274305055
21
211.45318274305032
31
0
0
SPLINE
5
113
100
AcDbEntity
8
OUTER_PROFILES
100
AcDbSpline
70
0
71
3
72
11
73
7
74
0
42
0.000000001
43
0.0000000001
44
0.0000000001
40
1.5707963267948966
40
1.5707963267948966
40
1.5707963267948966
40
1.5707963267948966
40
3.043762078385428
40
3.043762078385428
40
3.043762078385428
40
3.1415926535897842
40
3.1415926535897842
40
3.1415926535897842
40
3.1415926535897842
10
211.45318274305055
20
211.45318274305032
30
0
10
210.7461591822871
20
211.94417132691385
30
0
10
210.03913562152366
20
212.40044403588797
30
0
10
209.33211206076021
20
212.44840114780311
30
0
10
209.2851533846621
20
212.45158633512926
30
0
10
209.23819470856401
20
212.45318274305032
30
0
10
209.19123603246592
20
212.45318274305032
30
0
0
LINE
5
114
100
AcDbEntity
8
OUTER_PROFILES
100
AcDbLine
10
209.19123603246592
20
212.45318274305032
30
0
11
188.19123603246555
21
212.45318274305075
31
0
0
SPLINE
5
115
100
AcDbEntity
8
OUTER_PROFILES
100
AcDbSpline
70
0
71
3
72
11
73
7
74
0
42
0.000000001
43
0.0000000001
44
0.0000000001
40
-3.1415926535897931
40
-3.1415926535897931
40
-3.1415926535897931
40
-3.1415926535897931
40
-1.668626901999261
40
-1.668626901999261
40
-1.668626901999261
40
-1.5707963267948966
40
-1.5707963267948966
40
-1.5707963267948966
40
-1.5707963267948966
10
188.19123603246555
20
212.45318274305075
30
0
10
187.48421247170211
20
212.45318274305075
30
0
10
186.77718891093863
20
212.03949821493921
30
0
10
186.07016535017519
20
211.55085733975477
30
0
10
186.0232066740771
20
211.51840307675775
30
0
10
185.97624799797902
20
211.48579293478554
30
0
10
185.9292893218809
20
211.45318274305077
30
0
0
LINE
5
116
100
AcDbEntity
8
OUTER_PROFILES
100
AcDbLine
10
185.9292893218809
20
211.45318274305072
30
0
11
185.85857864376234
21
211.52389342116925
31
0
0
SPLINE
5
117
100
AcDbEntity
8
OUTER_PROFILES
100
AcDbSpline
70
0
71
3
72
11
73
7
74
0
42
0.000000001
43
0.0000000001
44
0.0000000001
40
1.5707963267948966
40
1.5707963267948966
40
1.5707963267948966
40
1.5707963267948966
40
1.668626901999261
40
1.668626901999261
40
1.668626901999261
40
3.1415926535897931
40
3.1415926535897931
40
3.1415926535897931
40
3.1415926535897931
10
185.85857864376234
20
211.52389342116919
30
0
10
185.89118883549713
20
211.57085209726728
30
0
10
185.9237989774694
20
211.61781077336536
30
0
10
185.95625324046637
20
211.66476944946345
30
0
10
186.44489411565087
20
212.37179301022692
30
0
10
186.85857864376234
20
213.0788165709904
30
0
10
186.85857864376234
20
213.78584013175382
30
0
0
LINE
5
118
100
AcDbEntity
8
OUTER_PROFILES
100
AcDbLine
10
186.85857864376234
20
213.78584013175382
30
0
11
186.85857864376254
21
234.78584013175393
31
0
0
SPLINE
5
119
100
AcDbEntity
8
OUTER_PROFILES
100
AcDbSpline
70
0
71
3
72
11
73
7
74
0
42
0.000000001
43
0.0000000001
44
0.0000000001
40
-3.1415926535897842
40
-3.1415926535897842
40
-3.1415926535897842
40
-3.1415926535897842
40
-3.043762078385428
40
-3.043762078385428
40
-3.043762078385428
40
-1.5707963267948966
40
-1.5707963267948966
40
-1.5707963267948966
40
-1.5707963267948966
10
186.8585786437622
20
234.7858401317543
30
0
10
186.8585786437622
20
234.83279880785236
30
0
10
186.85698223584114
20
234.87975748395044
30
0
10
186.85379704851502
20
234.92671616004856
30
0
10
186.80583993659985
20
235.633739720812
30
0
10
186.3495672276257
20
236.34076328157548
30
0
10
185.8585786437622
20
237.04778684233889
30
0
0
LINE
5
120
100
AcDbEntity
8
OUTER_PROFILES
100
AcDbLine
10
185.8585786437622
20
237.04778684233889
30
0
11
180.85857864376234
21
242.04778684233855
31
0
0
LINE
5
121
100
AcDbEntity
8
OUTER_PROFILES
100
AcDbLine
10
180.85857864376234
20
242.04778684233855
30
0
11
0
21
242.04778684233855
31
0
0
LINE
5
122
100
AcDbEntity
8
OUTER_PROFILES
100
AcDbLine
10
0
20
242.04778684233855
30
0
11
-4.9999999999998757
21
237.04778684233889
31
0
0
SPLINE
5
123
100
AcDbEntity
8
OUTER_PROFILES
100
AcDbSpline
70
0
71
3
72
11
73
7
74
0
42
0.000000001
43
0.0000000001
44
0.0000000001
40
1.5707963267948966
40
1.5707963267948966
40
1.5707963267948966
40
1.5707963267948966
40
3.043762078385428
40
3.043762078385428
40
3.043762078385428
40
3.1415926535897842
40
3.1415926535897842
40
3.1415926535897842
40
3.1415926535897842
10
-4.9999999999998757
20
237.04778684233889
30
0
10
-5.4909885838633876
20
236.34076328157548
30
0
10
-5.9472612928375312
20
235.633739720812
30
0
10
-5.9952184047526735
20
234.92671616004856
30
0
10
-5.9984035920788159
20
234.87975748395044
30
0
10
-5.9999999999998721
20
234.83279880785236
30
0
10
-5.9999999999998721
20
234.7858401317543
30
0
0
LINE
5
124
100
AcDbEntity
8
OUTER_PROFILES
100
AcDbLine
10
-5.999999999999873
20
234.7858401317543
30
0
11
-6.0000000000001563
21
213.78584013175367
31
0
0
SPLINE
5
125
100
AcDbEntity
8
OUTER_PROFILES
100
AcDbSpline
70
0
71
3
72
11
73
7
74
0
42
0.000000001
43
0.0000000001
44
0.0000000001
40
-3.1415926535897931
40
-3.1415926535897931
40
-3.1415926535897931
40
-3.1415926535897931
40
-1.668626901999261
40
-1.668626901999261
40
-1.668626901999261
40
-1.5707963267948966
40
-1.5707963267948966
40
-1.5707963267948966
40
-1.5707963267948966
10
-6.0000000000001563
20
213.78584013175367
30
0
10
-6.0000000000001563
20
213.07881657099023
30
0
10
-5.5863154718886499
20
212.37179301022678
30
0
10
-5.0976745967041737
20
211.66476944946334
30
0
10
-5.0652203337071988
20
211.61781077336519
30
0
10
-5.0326101917349497
20
211.57085209726714
30
0
10
-5.0000000000001599
20
211.52389342116905
30
0
0
LINE
5
126
100
AcDbEntity
8
OUTER_PROFILES
100
AcDbLine
10
-5.0000000000001599
20
211.52389342116905
30
0
11
-5.070710678118715
21
211.45318274305049
31
0
0
SPLINE
5
127
100
AcDbEntity
8
OUTER_PROFILES
100
AcDbSpline
70
0
71
3
72
11
73
7
74
0
42
0.000000001
43
0.0000000001
44
0.0000000001
40
1.5707963267948966
40
1.5707963267948966
40
1.5707963267948966
40
1.5707963267948966
40
1.668626901999261
40
1.668626901999261
40
1.668626901999261
40
3.1415926535897931
40
3.1415926535897931
40
3.1415926535897931
40
3.1415926535897931
10
-5.070710678118715
20
211.45318274305049
30
0
10
-5.1176693542168117
20
211.48579293478525
30
0
10
-5.1646280303149084
20
211.51840307675747
30
0
10
-5.211586706413005
20
211.55085733975449
30
0
10
-5.9186102671764651
20
212.03949821493893
30
0
10
-6.6256338279399074
20
212.45318274305046
30
0
10
-7.3326573887033497
20
212.45318274305046
30
0
0
LINE
5
128
100
AcDbEntity
8
OUTER_PROFILES
100
AcDbLine
10
-7.3326573887033488
20
212.45318274305046
30
0
11
-28.332657388703495
21
212.45318274305063
31
0
0
SPLINE
5
129
100
AcDbEntity
8
OUTER_PROFILES
100
AcDbSpline
70
0
71
3
72
11
73
7
74
0
42
0.000000001
43
0.0000000001
44
0.0000000001
40
-3.1415926535897842
40
-3.1415926535897842
40
-3.1415926535897842
40
-3.1415926535897842
40
-3.043762078385428
40
-3.043762078385428
40
-3.043762078385428
40
-1.5707963267948966
40
-1.5707963267948966
40
-1.5707963267948966
40
-1.5707963267948966
10
-28.332657388703577
20
212.45318274305032
30
0
10
-28.37961606480167
20
212.45318274305032
30
0
10
-28.426574740899756
20
212.45158633512926
30
0
10
-28.473533416997849
20
212.44840114780311
30
0
10
-29.180556977761309
20
212.40044403588797
30
0
10
-29.887580538524759
20
211.94417132691385
30
0
10
-30.594604099288215
20
211.45318274305032
30
0
0
LINE
5
130
100
AcDbEntity
8
OUTER_PROFILES
100
AcDbLine
10
-30.594604099288215
20
211.45318274305032
30
0
11
-35.594604099288119
21
206.45318274305049
31
0
0
LINE
5
131
100
AcDbEntity
8
OUTER_PROFILES
100
AcDbLine
10
-35.594604099288119
20
206.45318274305049
30
0
11
-35.594604099288119
21
35.594604099288105
31
0
0
LINE
5
132
100
AcDbEntity
8
OUTER_PROFILES
100
AcDbLine
10
-35.594604099288119
20
35.594604099288105
30
0
11
-30.594604099288212
21
30.594604099288247
31
0
0
SPLINE
5
133
100
AcDbEntity
8
OUTER_PROFILES
100
AcDbSpline
70
0
71
3
72
11
73
7
74
0
42
0.000000001
43
0.0000000001
44
0.0000000001
40
1.5707963267948966
40
1.5707963267948966
40
1.5707963267948966
40
1.5707963267948966
40
3.043762078385428
40
3.043762078385428
40
3.043762078385428
40
3.1415926535897842
40
3.1415926535897842
40
3.1415926535897842
40
3.1415926535897842
10
-30.594604099288212
20
30.594604099288247
30
0
10
-29.887580538524755
20
30.103615515424735
30
0
10
-29.180556977761306
20
29.647342806450609
30
0
10
-28.473533416997846
20
29.599385694535449
30
0
10
-28.426574740899753
20
29.596200507209289
30
0
10
-28.379616064801667
20
29.594604099288233
30
0
10
-28.332657388703574
20
29.594604099288233
30
0
0
LINE
5
134
100
AcDbEntity
8
OUTER_PROFILES
100
AcDbLine
10
-28.332657388703574
20
29.594604099288237
30
0
11
-7.3326573887031721
21
29.594604099287807
31
0
0
SPLINE
5
135
100
AcDbEntity
8
OUTER_PROFILES
100
AcDbSpline
70
0
71
3
72
11
73
7
74
0
42
0.000000001
43
0.0000000001
44
0.0000000001
40
-3.1415926535897931
40
-3.1415926535897931
40
-3.1415926535897931
40
-3.1415926535897931
40
-1.668626901999261
40
-1.668626901999261
40
-1.668626901999261
40
-1.5707963267948966
40
-1.5707963267948966
40
-1.5707963267948966
40
-1.5707963267948966
10
-7.3326573887031721
20
29.594604099287807
30
0
10
-6.6256338279397298
20
29.594604099287807
30
0
10
-5.9186102671762875
20
30.008288627399331
30
0
10
-5.2115867064128274
20
30.496929502583825
30
0
10
-5.1646280303147307
20
30.529383765580782
30
0
10
-5.117669354216634
20
30.561993907553031
30
0
10
-5.0707106781185374
20
30.594604099287821
30
0
0
LINE
5
136
100
AcDbEntity
8
OUTER_PROFILES
100
AcDbLine
10
-5.0707106781185383
20
30.594604099287821
30
0
11
-5.0000000000000178
21
30.523893421169355
31
0
0
SPLINE
5
137
100
AcDbEntity
8
OUTER_PROFILES
100
AcDbSpline
70
0
71
3
72
11
73
7
74
0
42
0.000000001
43
0.0000000001
44
0.0000000001
40
1.5707963267948966
40
1.5707963267948966
40
1.5707963267948966
40
1.5707963267948966
40
1.668626901999261
40
1.668626901999261
40
1.668626901999261
40
3.1415926535897931
40
3.1415926535897931
40
3.1415926535897931
40
3.1415926535897931
10
-5.0000000000000178
20
30.523893421169355
30
0
10
-5.0326101917348076
20
30.476934745071276
30
0
10
-5.0652203337070567
20
30.429976068973161
30
0
10
-5.0976745967040316
20
30.383017392875047
30
0
10
-5.5863154718885077
20
29.675993832111587
30
0
10
-6.0000000000000142
20
28.968970271348162
30
0
10
-6.0000000000000142
20
28.261946710584738
30
0
0
LINE
5
138
100
AcDbEntity
8
OUTER_PROFILES
100
AcDbLine
10
-6.0000000000000133
20
28.261946710584738
30
0
11
-5.9999999999998721
21
7.2619467105842617
31
0
0
SPLINE
5
139
100
AcDbEntity
8
OUTER_PROFILES
100
AcDbSpline
70
0
71
3
72
11
73
7
74
0
42
0.000000001
43
0.0000000001
44
0.0000000001
40
-3.1415926535897842
40
-3.1415926535897842
40
-3.1415926535897842
40
-3.1415926535897842
40
-3.043762078385428
40
-3.043762078385428
40
-3.043762078385428
40
-1.5707963267948966
40
-1.5707963267948966
40
-1.5707963267948966
40
-1.5707963267948966
10
-5.9999999999998721
20
7.2619467105842617
30
0
10
-5.9999999999998721
20
7.2149880344861828
30
0
10
-5.9984035920788159
20
7.1680293583880683
30
0
10
-5.9952184047526735
20
7.1210706822899894
30
0
10
-5.9472612928375312
20
6.4140471215265293
30
0
10
-5.4909885838633876
20
5.7070235607630693
30
0
10
-4.9999999999998757
20
4.9999999999996092
30
0
0
LINE
5
140
100
AcDbEntity
8
BEND
100
AcDbLine
10
210.32220938775788
20
29.887497318101488
30
3.8857805861880479e-15
11
210.32220938775788
21
212.16028952423702
31
-3.3167912860676552e-14
0
LINE
5
141
100
AcDbEntity
8
BEND
100
AcDbLine
10
-5.7071067811867593
20
6.130973355292646
30
-2.1926904736346842e-14
11
186.56568542494907
21
6.1309733552926104
31
-2.5118795932144167e-14
0
LINE
5
142
100
AcDbEntity
8
BEND
100
AcDbLine
10
-5.7071067811866349
20
29.392920065876922
30
4.98212582300539e-14
11
186.56568542494909
21
29.392920065876922
31
4.3853809472693683e-14
0
LINE
5
143
100
AcDbEntity
8
BEND
100
AcDbLine
10
187.06026267717351
20
29.887497318101452
30
3.9412917374193057e-14
11
187.06026267717351
21
212.16028952423741
31
3.8996583739958623e-14
0
LINE
5
144
100
AcDbEntity
8
BEND
100
AcDbLine
10
-29.46363074399553
20
212.16028952423704
30
8.3266726846886741e-16
11
-29.46363074399553
21
29.887497318101524
31
-3.3167912860676552e-14
0
LINE
5
145
100
AcDbEntity
8
BEND
100
AcDbLine
10
-6.2016840334111833
20
212.1602895242371
30
5.0792703376600912e-14
11
-6.2016840334111842
21
29.887497318101097
31
4.829470157119431e-14
0
LINE
5
146
100
AcDbEntity
8
BEND
100
AcDbLine
10
186.56568542494898
20
212.65486677646163
30
4.8433479449272454e-14
11
-5.7071067811868303
21
212.65486677646163
31
4.2743586448068527e-14
0
LINE
5
147
100
AcDbEntity
8
BEND
100
AcDbLine
10
186.56568542494909
20
235.91681348704589
30
-2.1926904736346842e-14
11
-5.7071067811867593
21
235.91681348704589
31
-2.8171909249863347e-14
0
LINE
5
148
100
AcDbEntity
8
BEND_EXTENT
100
AcDbLine
10
185.8585786437622
20
5.0000000000000355
30
4.4408920985006262e-15
11
-4.9999999999998934
21
5.0000000000000355
31
4.4408920985006262e-15
0
LINE
5
149
100
AcDbEntity
8
BEND_EXTENT
100
AcDbLine
10
-6.0000000000001918
20
7.2619467105845814
30
3.1086244689504383e-14
11
186.85857864376254
21
7.2619467105845814
31
3.1086244689504383e-14
0
LINE
5
150
100
AcDbEntity
8
BEND_EXTENT
100
AcDbLine
10
211.45318274305049
20
211.45318274305032
30
0
11
211.45318274305049
21
30.594604099288247
31
0
0
LINE
5
151
100
AcDbEntity
8
BEND_EXTENT
100
AcDbLine
10
209.19123603246587
20
29.594604099287913
30
1.3322676295501878e-14
11
209.19123603246587
21
212.45318274305063
31
1.3322676295501878e-14
0
LINE
5
152
100
AcDbEntity
8
BEND_EXTENT
100
AcDbLine
10
-4.9999999999998757
20
237.0477868423385
30
4.4408920985006262e-15
11
185.85857864376223
21
237.0477868423385
31
4.4408920985006262e-15
0
LINE
5
153
100
AcDbEntity
8
BEND_EXTENT
100
AcDbLine
10
186.85857864376254
20
234.78584013175393
30
3.1086244689504383e-14
11
-6.0000000000001918
21
234.78584013175393
31
3.1086244689504383e-14
0
LINE
5
154
100
AcDbEntity
8
BEND_EXTENT
100
AcDbLine
10
-30.594604099288123
20
30.594604099288247
30
0
11
-30.594604099288123
21
211.45318274305032
31
0
0
LINE
5
155
100
AcDbEntity
8
BEND_EXTENT
100
AcDbLine
10
-28.332657388703495
20
212.45318274305063
30
1.3322676295501878e-14
11
-28.332657388703495
21
29.594604099287913
31
1.3322676295501878e-14
0
LINE
5
156
100
AcDbEntity
8
BEND_EXTENT
100
AcDbLine
10
186.85857864376248
20
28.261946710584631
30
4.8849813083506888e-14
11
-6.0000000000000142
21
28.261946710584631
31
4.8849813083506888e-14
0
LINE
5
157
100
AcDbEntity
8
BEND_EXTENT
100
AcDbLine
10
-7.3326573887034812
20
29.594604099287807
30
3.1086244689504383e-14
11
-7.3326573887034812
21
212.45318274305046
31
3.1086244689504383e-14
0
LINE
5
158
100
AcDbEntity
8
BEND_EXTENT
100
AcDbLine
10
188.19123603246581
20
212.45318274305075
30
3.1086244689504383e-14
11
188.19123603246581
21
29.594604099288091
31
3.1086244689504383e-14
0
LINE
5
159
100
AcDbEntity
8
BEND_EXTENT
100
AcDbLine
10
-6.0000000000001563
20
213.7858401317539
30
4.8849813083506888e-14
11
186.85857864376234
21
213.7858401317539
31
4.8849813083506888e-14
0
LINE
5
160
100
AcDbEntity
8
BEND_EXTENT
100
AcDbLine
10
-5.0707106781188216
20
211.4531827430506
30
4.8849813083506888e-14
11
-5.0707106781188216
21
30.59460409928807
31
4.8849813083506888e-14
0
LINE
5
161
100
AcDbEntity
8
BEND_EXTENT
100
AcDbLine
10
185.92928932188119
20
30.594604099288105
30
4.8849813083506888e-14
11
185.92928932188116
21
211.45318274305049
31
4.8849813083506888e-14
0
LINE
5
162
100
AcDbEntity
8
BEND_EXTENT
100
AcDbLine
10
185.85857864376234
20
211.52389342116925
30
4.8849813083506888e-14
11
-5.0000000000001776
21
211.52389342116925
31
4.8849813083506888e-14
0
LINE
5
163
100
AcDbEntity
8
BEND_EXTENT
100
AcDbLine
10
-5.0000000000000178
20
30.523893421169248
30
4.8849813083506888e-14
11
185.85857864376237
21
30.523893421169284
31
4.8849813083506888e-14
0
ENDSEC
0
SECTION
2
OBJECTS
0
DICTIONARY
5
C
100
AcDbDictionary
3
ACAD_GROUP
350
D
3
ACAD_MLINESTYLE
350
17
0
DICTIONARY
5
D
100
AcDbDictionary
0
DICTIONARY
5
1A
330
C
100
AcDbDictionary
0
DICTIONARY
5
17
100
AcDbDictionary
0
ENDSEC
0
EOF
