0
SECTION
2
HEADER
9
$INSUNITS
70
4
9
$ACADVER
1
AC1014
9
$HANDSEED
5
FFFF
0
ENDSEC
0
SECTION
2
TABLES
0
TABLE
2
VPORT
5
8
100
AcDbSymbolTable
0
ENDTAB
0
TABLE
2
LTYPE
5
5
100
AcDbSymbolTable
0
LTYPE
5
14
100
AcDbSymbolTableRecord
100
AcDbLinetypeTableRecord
2
BYBLOCK
70
0
0
LTYPE
5
15
100
AcDbSymbolTableRecord
100
AcDbLinetypeTableRecord
2
BYLAYER
70
0
0
LTYPE
5
16
100
AcDbSymbolTableRecord
100
AcDbLinetypeTableRecord
2
DASHED
70
0
3
Dashed __ __ __ __ __ __ __ __ __ __ __ __ __ _
72
65
73
2
40
0.75
49
0.5
74
0
49
-0.25
74
0
0
ENDTAB
0
TABLE
2
LAYER
5
2
100
AcDbSymbolTable
70
2
0
LAYER
5
50
100
AcDbSymbolTableRecord
100
AcDbLayerTableRecord
2
0
70
0
62
7
6
CONTINUOUS
0
ENDTAB
0
TABLE
2
STYLE
5
3
100
AcDbSymbolTable
70
1
0
STYLE
5
11
100
AcDbSymbolTableRecord
100
AcDbTextStyleTableRecord
2
STANDARD
70
0
0
ENDTAB
0
TABLE
2
VIEW
5
6
100
AcDbSymbolTable
70
0
0
ENDTAB
0
TABLE
2
UCS
5
7
100
AcDbSymbolTable
70
0
0
ENDTAB
0
TABLE
2
APPID
5
9
100
AcDbSymbolTable
70
2
0
APPID
5
12
100
AcDbSymbolTableRecord
100
AcDbRegAppTableRecord
2
ACAD
70
0
0
ENDTAB
0
TABLE
2
DIMSTYLE
5
A
100
AcDbSymbolTable
70
1
0
ENDTAB
0
TABLE
2
BLOCK_RECORD
5
1
100
AcDbSymbolTable
70
1
0
BLOCK_RECORD
5
1F
100
AcDbSymbolTableRecord
100
AcDbBlockTableRecord
2
*MODEL_SPACE
0
BLOCK_RECORD
5
1B
100
AcDbSymbolTableRecord
100
AcDbBlockTableRecord
2
*PAPER_SPACE
0
ENDTAB
0
ENDSEC
0
SECTION
2
BLOCKS
0
BLOCK
5
20
100
AcDbEntity
100
AcDbBlockBegin
2
*MODEL_SPACE
0
ENDBLK
5
21
100
AcDbEntity
100
AcDbBlockEnd
0
BLOCK
5
1C
100
AcDbEntity
100
AcDbBlockBegin
2
*PAPER_SPACE
0
ENDBLK
5
1D
100
AcDbEntity
100
AcDbBlockEnd
0
ENDSEC
0
SECTION
2
ENTITIES
0
LWPOLYLINE
5
100
100
AcDbEntity
8
OUTER_PROFILES
100
AcDbPolyline
90
23
70
1
43
0.0
10
646.35315589598713
20
44.029316168944881
42
0.41421356237311707
10
647.76736945836035
20
44.029316168944881
10
660.19123603246601
20
56.453182743050583
10
662.19123603246601
20
56.453182743050583
10
662.19123603246601
20
0.070710678118608428
10
647.76736945836035
20
14.494577252224357
42
0.41421356237311663
10
646.35315589598713
20
14.494577252224358
10
631.85857864376294
20
0
10
0
20
0
10
-14.494577252224172
20
14.494577252224261
42
0.41421356237309503
10
-15.908790814597269
20
14.494577252224305
10
-30.332657388702984
20
0.070710678118608428
10
-30.332657388703126
20
44.523893421169348
10
-16.403368066821855
20
44.523893421169248
10
-16.332657388703069
20
42.261946710584645
10
-14.070710678118559
20
42.261946710584652
10
-13.999999999999915
20
44.523893421169305
10
-2.0000000000000284
20
56.523893421169298
10
-1.4210854715202004e-13
20
58.78584013175395
10
0
20
99.309733552923262
10
631.85857864376294
20
99.309733552923291
10
631.85857864376305
20
58.785840131753957
10
633.85857864376271
20
56.523893421169305
0
CIRCLE
5
101
100
AcDbEntity
8
INTERIOR_PROFILES
100
AcDbCircle
10
-365.92928932188147
20
51.523893421169298
30
0
40
5
210
0
220
0
230
-1
0
CIRCLE
5
102
100
AcDbEntity
8
INTERIOR_PROFILES
100
AcDbCircle
10
-415.92928932188147
20
51.523893421169298
30
0
40
5
210
0
220
0
230
-1
0
CIRCLE
5
103
100
AcDbEntity
8
INTERIOR_PROFILES
100
AcDbCircle
10
-565.92928932188147
20
51.523893421169298
30
0
40
5
210
0
220
0
230
-1
0
CIRCLE
5
104
100
AcDbEntity
8
INTERIOR_PROFILES
100
AcDbCircle
10
-315.92928932188147
20
34.261946710584652
30
0
40
5
210
0
220
0
230
-1
0
CIRCLE
5
105
100
AcDbEntity
8
INTERIOR_PROFILES
100
AcDbCircle
10
-615.92928932188147
20
51.523893421169298
30
0
40
5
210
0
220
0
230
-1
0
CIRCLE
5
106
100
AcDbEntity
8
INTERIOR_PROFILES
100
AcDbCircle
10
-165.92928932188144
20
78.047786842338525
30
0
40
1.7000000000000171
210
0
220
0
230
-1
0
CIRCLE
5
107
100
AcDbEntity
8
INTERIOR_PROFILES
100
AcDbCircle
10
-565.92928932188147
20
7.0000000000000062
30
0
40
5
210
0
220
0
230
-1
0
CIRCLE
5
108
100
AcDbEntity
8
INTERIOR_PROFILES
100
AcDbCircle
10
-615.92928932188147
20
7.0000000000000062
30
0
40
1.7000000000000171
210
0
220
0
230
-1
0
CIRCLE
5
109
100
AcDbEntity
8
INTERIOR_PROFILES
100
AcDbCircle
10
-215.92928932188144
20
7.0000000000000062
30
0
40
1.7000000000000171
210
0
220
0
230
-1
0
CIRCLE
5
110
100
AcDbEntity
8
INTERIOR_PROFILES
100
AcDbCircle
10
-265.92928932188147
20
78.047786842338525
30
0
40
1.7000000000000171
210
0
220
0
230
-1
0
CIRCLE
5
111
100
AcDbEntity
8
INTERIOR_PROFILES
100
AcDbCircle
10
-65.929289321881441
20
51.523893421169298
30
0
40
5
210
0
220
0
230
-1
0
CIRCLE
5
112
100
AcDbEntity
8
INTERIOR_PROFILES
100
AcDbCircle
10
-65.929289321881441
20
7.0000000000000062
30
0
40
5
210
0
220
0
230
-1
0
CIRCLE
5
113
100
AcDbEntity
8
INTERIOR_PROFILES
100
AcDbCircle
10
-15.929289321881441
20
51.523893421169298
30
0
40
5
210
0
220
0
230
-1
0
CIRCLE
5
114
100
AcDbEntity
8
INTERIOR_PROFILES
100
AcDbCircle
10
-515.92928932188147
20
7.0000000000000062
30
0
40
1.7000000000000171
210
0
220
0
230
-1
0
CIRCLE
5
115
100
AcDbEntity
8
INTERIOR_PROFILES
100
AcDbCircle
10
-265.92928932188147
20
51.523893421169298
30
0
40
5
210
0
220
0
230
-1
0
CIRCLE
5
116
100
AcDbEntity
8
INTERIOR_PROFILES
100
AcDbCircle
10
-65.929289321881441
20
78.04778684233851
30
0
40
1.6999999999999993
210
0
220
0
230
-1
0
CIRCLE
5
117
100
AcDbEntity
8
INTERIOR_PROFILES
100
AcDbCircle
10
-465.92928932188147
20
78.047786842338539
30
0
40
1.7000000000000171
210
0
220
0
230
-1
0
CIRCLE
5
118
100
AcDbEntity
8
INTERIOR_PROFILES
100
AcDbCircle
10
-515.92928932188147
20
51.523893421169298
30
0
40
5
210
0
220
0
230
-1
0
CIRCLE
5
119
100
AcDbEntity
8
INTERIOR_PROFILES
100
AcDbCircle
10
-565.92928932188147
20
78.047786842338539
30
0
40
1.7000000000000171
210
0
220
0
230
-1
0
CIRCLE
5
120
100
AcDbEntity
8
INTERIOR_PROFILES
100
AcDbCircle
10
-215.92928932188144
20
51.523893421169298
30
0
40
5
210
0
220
0
230
-1
0
CIRCLE
5
121
100
AcDbEntity
8
INTERIOR_PROFILES
100
AcDbCircle
10
-465.92928932188147
20
51.523893421169298
30
0
40
5
210
0
220
0
230
-1
0
CIRCLE
5
122
100
AcDbEntity
8
INTERIOR_PROFILES
100
AcDbCircle
10
-655.19123603246783
20
24.261946710584652
30
0
40
1.7000000000000171
210
0
220
0
230
-1
0
CIRCLE
5
123
100
AcDbEntity
8
INTERIOR_PROFILES
100
AcDbCircle
10
-115.92928932188144
20
51.523893421169298
30
0
40
5
210
0
220
0
230
-1
0
CIRCLE
5
124
100
AcDbEntity
8
INTERIOR_PROFILES
100
AcDbCircle
10
-165.92928932188144
20
51.523893421169298
30
0
40
5
210
0
220
0
230
-1
0
CIRCLE
5
125
100
AcDbEntity
8
INTERIOR_PROFILES
100
AcDbCircle
10
-365.92928932188147
20
78.047786842338539
30
0
40
1.7000000000000171
210
0
220
0
230
-1
0
CIRCLE
5
126
100
AcDbEntity
8
INTERIOR_PROFILES
100
AcDbCircle
10
-315.92928932188147
20
51.523893421169298
30
0
40
5
210
0
220
0
230
-1
0
CIRCLE
5
127
100
AcDbEntity
8
INTERIOR_PROFILES
100
AcDbCircle
10
-165.92928932188144
20
7.0000000000000062
30
0
40
5
210
0
220
0
230
-1
0
CIRCLE
5
128
100
AcDbEntity
8
INTERIOR_PROFILES
100
AcDbCircle
10
-115.92928932188144
20
7.0000000000000062
30
0
40
1.6999999999999993
210
0
220
0
230
-1
0
CIRCLE
5
129
100
AcDbEntity
8
INTERIOR_PROFILES
100
AcDbCircle
10
-265.92928932188147
20
7.0000000000000062
30
0
40
5
210
0
220
0
230
-1
0
CIRCLE
5
130
100
AcDbEntity
8
INTERIOR_PROFILES
100
AcDbCircle
10
-15.929289321881441
20
7.0000000000000062
30
0
40
1.6999999999999993
210
0
220
0
230
-1
0
CIRCLE
5
131
100
AcDbEntity
8
INTERIOR_PROFILES
100
AcDbCircle
10
-365.92928932188147
20
7.0000000000000062
30
0
40
5
210
0
220
0
230
-1
0
CIRCLE
5
132
100
AcDbEntity
8
INTERIOR_PROFILES
100
AcDbCircle
10
23.332657388701392
20
24.261946710584652
30
0
40
1.6999999999999993
210
0
220
0
230
-1
0
CIRCLE
5
133
100
AcDbEntity
8
INTERIOR_PROFILES
100
AcDbCircle
10
-315.92928932188147
20
7.0000000000000062
30
0
40
1.7000000000000171
210
0
220
0
230
-1
0
CIRCLE
5
134
100
AcDbEntity
8
INTERIOR_PROFILES
100
AcDbCircle
10
-415.92928932188147
20
7.0000000000000062
30
0
40
1.7000000000000171
210
0
220
0
230
-1
0
CIRCLE
5
135
100
AcDbEntity
8
INTERIOR_PROFILES
100
AcDbCircle
10
-465.92928932188147
20
7.0000000000000062
30
0
40
5
210
0
220
0
230
-1
0
LINE
5
136
100
AcDbEntity
8
BEND
100
AcDbLine
10
647.06026267717357
20
14.787470471037881
30
1.1421905685448672e-13
11
647.06026267717357
21
43.736422950131384
31
2.6937668666628294e-13
0
LINE
5
137
100
AcDbEntity
8
BEND
100
AcDbLine
10
647.06026267717357
20
43.392920065876979
30
2.9303086514248613e-13
11
-14.035355339059237
21
43.392920065876979
31
2.6694674517256741e-13
0
LINE
5
138
100
AcDbEntity
8
BEND
100
AcDbLine
10
662.19123603246601
20
43.392920065876943
30
9.8855049760719532e-14
11
647.06026267717357
21
43.392920065876979
31
2.9303086514248613e-13
0
LINE
5
139
100
AcDbEntity
8
BEND
100
AcDbLine
10
-15.201684033410885
20
42.261946710584645
30
2.5887393441118697e-13
11
-15.201684033410885
21
14.787470471037803
31
1.0056941853937644e-13
0
LINE
5
140
100
AcDbEntity
8
BEND
100
AcDbLine
10
-15.201684033410885
20
15.13097335529233
30
8.927903291561275e-14
11
647.06026267717357
21
15.13097335529233
31
8.927903291561275e-14
0
LINE
5
141
100
AcDbEntity
8
BEND
100
AcDbLine
10
647.06026267717357
20
15.13097335529233
30
8.927903291561275e-14
11
662.19123603246601
21
15.130973355292316
31
-9.3605714127665835e-14
0
LINE
5
142
100
AcDbEntity
8
BEND
100
AcDbLine
10
-30.332657388703126
20
15.130973355292369
30
-7.8371951085776905e-14
11
-15.201684033410885
21
15.13097335529233
31
8.927903291561275e-14
0
LINE
5
143
100
AcDbEntity
8
BEND
100
AcDbLine
10
632.85857864376294
20
57.654866776461631
30
2.6774310186625169e-13
11
-1.0000000000000853
21
57.654866776461624
31
2.5371284995717923e-13
0
LINE
5
144
100
AcDbEntity
8
BEND
100
AcDbLine
10
-16.368012727762533
20
43.392920065876972
30
3.6574281809881067e-13
11
-30.332657388703126
21
43.392920065876972
31
1.2552398576836656e-14
0
LINE
5
145
100
AcDbEntity
8
BEND
100
AcDbLine
10
-1.4210854715202004e-13
20
66.916813487046284
30
2.406710737345013e-13
11
631.85857864376305
21
66.916813487046284
31
2.431690755399079e-13
0
LINE
5
146
100
AcDbEntity
8
BEND
100
AcDbLine
10
-1.4210854715202004e-13
20
89.178760197630965
30
4.5093004075740454e-13
11
631.85857864376305
21
89.178760197630979
31
4.4759937168352922e-13
0
LINE
5
147
100
AcDbEntity
8
BEND_EXTENT
100
AcDbLine
10
-1.4210854715202004e-13
20
90.309733552923319
30
4.5347046717052468e-13
11
631.85857864376305
21
90.309733552923319
31
4.5347046717052468e-13
0
LINE
5
148
100
AcDbEntity
8
BEND_EXTENT
100
AcDbLine
10
631.85857864376294
20
88.047786842338638
30
4.5709467445328945e-13
11
0
21
88.047786842338638
31
4.5709467445328935e-13
0
LINE
5
149
100
AcDbEntity
8
BEND_EXTENT
100
AcDbLine
10
-1.4210854715202004e-13
20
68.047786842338596
30
2.4991876990798491e-13
11
631.85857864376305
21
68.04778684233861
31
2.5213921595723532e-13
0
LINE
5
150
100
AcDbEntity
8
BEND_EXTENT
100
AcDbLine
10
631.85857864376294
20
65.785840131753972
30
2.5576342324000035e-13
11
0
21
65.785840131753957
31
2.4244074694449842e-13
0
LINE
5
151
100
AcDbEntity
8
BEND_EXTENT
100
AcDbLine
10
-1.4210854715202004e-13
20
58.78584013175395
30
2.5197466187344093e-13
11
631.85857864376305
21
58.785840131753957
31
2.6529733816894286e-13
0
LINE
5
152
100
AcDbEntity
8
BEND_EXTENT
100
AcDbLine
10
15.929289321881441
20
56.523893421169298
30
2.6892154545170773e-13
11
-2.0000000000000284
21
56.523893421169298
31
2.6892154545170773e-13
0
LINE
5
153
100
AcDbEntity
8
BEND_EXTENT
100
AcDbLine
10
65.929289321881441
20
56.523893421169298
30
2.6892154545170773e-13
11
15.929289321881441
21
56.523893421169298
31
2.6892154545170773e-13
0
LINE
5
154
100
AcDbEntity
8
BEND_EXTENT
100
AcDbLine
10
115.92928932188144
20
56.523893421169298
30
2.6892154545170773e-13
11
65.929289321881441
21
56.523893421169298
31
2.6892154545170773e-13
0
LINE
5
155
100
AcDbEntity
8
BEND_EXTENT
100
AcDbLine
10
165.92928932188144
20
56.523893421169298
30
2.7336243755020841e-13
11
115.92928932188144
21
56.523893421169298
31
2.6892154545170773e-13
0
LINE
5
156
100
AcDbEntity
8
BEND_EXTENT
100
AcDbLine
10
215.92928932188144
20
56.523893421169298
30
2.7780332964870904e-13
11
165.92928932188144
21
56.523893421169298
31
2.7336243755020841e-13
0
LINE
5
157
100
AcDbEntity
8
BEND_EXTENT
100
AcDbLine
10
265.92928932188147
20
56.523893421169298
30
2.7336243755020841e-13
11
215.92928932188144
21
56.523893421169298
31
2.7780332964870904e-13
0
LINE
5
158
100
AcDbEntity
8
BEND_EXTENT
100
AcDbLine
10
315.92928932188147
20
56.523893421169298
30
2.7336243755020841e-13
11
265.92928932188147
21
56.523893421169298
31
2.7336243755020841e-13
0
LINE
5
159
100
AcDbEntity
8
BEND_EXTENT
100
AcDbLine
10
365.92928932188147
20
56.523893421169298
30
2.7336243755020841e-13
11
315.92928932188147
21
56.523893421169298
31
2.7336243755020841e-13
0
LINE
5
160
100
AcDbEntity
8
BEND_EXTENT
100
AcDbLine
10
415.92928932188147
20
56.523893421169298
30
2.7336243755020841e-13
11
365.92928932188147
21
56.523893421169298
31
2.7336243755020841e-13
0
LINE
5
161
100
AcDbEntity
8
BEND_EXTENT
100
AcDbLine
10
465.92928932188147
20
56.523893421169298
30
2.7780332964870904e-13
11
415.92928932188147
21
56.523893421169298
31
2.7336243755020841e-13
0
LINE
5
162
100
AcDbEntity
8
BEND_EXTENT
100
AcDbLine
10
515.92928932188147
20
56.523893421169305
30
2.8224422174720971e-13
11
465.92928932188147
21
56.523893421169298
31
2.7780332964870904e-13
0
LINE
5
163
100
AcDbEntity
8
BEND_EXTENT
100
AcDbLine
10
565.92928932188147
20
56.523893421169305
30
2.8224422174720971e-13
11
515.92928932188147
21
56.523893421169305
31
2.8224422174720971e-13
0
LINE
5
164
100
AcDbEntity
8
BEND_EXTENT
100
AcDbLine
10
615.92928932188147
20
56.523893421169305
30
2.8224422174720971e-13
11
565.92928932188147
21
56.523893421169305
31
2.8224422174720971e-13
0
LINE
5
165
100
AcDbEntity
8
BEND_EXTENT
100
AcDbLine
10
633.85857864376271
20
56.523893421169305
30
2.8224422174720971e-13
11
615.92928932188147
21
56.523893421169305
31
2.8224422174720971e-13
0
LINE
5
166
100
AcDbEntity
8
BEND_EXTENT
100
AcDbLine
10
-16.332657388703069
20
42.261946710584645
30
2.7302927797515771e-13
11
-30.332657388703126
21
42.261946710584652
31
-8.224208990489233e-14
0
LINE
5
167
100
AcDbEntity
8
BEND_EXTENT
100
AcDbLine
10
-16.332657388703069
20
16.261946710584656
30
1.1050405703520228e-13
11
-16.332657388703069
21
42.261946710584645
31
2.7302927797515771e-13
0
LINE
5
168
100
AcDbEntity
8
BEND_EXTENT
100
AcDbLine
10
-30.332657388703126
20
16.261946710584656
30
-2.4476731084484778e-13
11
-16.332657388703069
21
16.261946710584656
31
1.1050405703520228e-13
0
LINE
5
169
100
AcDbEntity
8
BEND_EXTENT
100
AcDbLine
10
662.19123603246601
20
13.999999999999844
30
-1.8512484220293263e-13
11
648.26194671058477
21
13.999999999999986
31
8.1197856324115195e-14
0
LINE
5
170
100
AcDbEntity
8
BEND_EXTENT
100
AcDbLine
10
648.19123603246589
20
16.261946710584656
30
1.1050405703520228e-13
11
662.19123603246601
21
16.261946710584656
31
-2.4476731084484778e-13
0
LINE
5
171
100
AcDbEntity
8
BEND_EXTENT
100
AcDbLine
10
648.19123603246589
20
42.26194671058466
30
2.7302927797515781e-13
11
648.19123603246589
21
16.261946710584656
31
1.1050405703520228e-13
0
LINE
5
172
100
AcDbEntity
8
BEND_EXTENT
100
AcDbLine
10
662.19123603246601
20
42.261946710584652
30
-8.224208990489233e-14
11
648.19123603246589
21
42.26194671058466
31
2.7302927797515781e-13
0
LINE
5
173
100
AcDbEntity
8
BEND_EXTENT
100
AcDbLine
10
-16.403368066821855
20
13.999999999999915
30
8.1128467385088404e-14
11
-30.332657388703126
21
13.999999999999915
31
-1.8519423114195719e-13
0
LINE
5
174
100
AcDbEntity
8
BEND_EXTENT
100
AcDbLine
10
645.85857864376283
20
14.000000000000004
30
9.5772337777180924e-14
11
-13.999999999999915
21
14.000000000000004
31
9.5772337777180924e-14
0
LWPOLYLINE
5
175
100
AcDbEntity
8
BEND_EXTENT
100
AcDbPolyline
90
4
70
1
43
0.0
10
-14.070710678118559
20
16.261946710584656
10
645.92928932188147
20
16.261946710584656
10
645.92928932188147
20
42.261946710584652
10
-14.070710678118559
20
42.261946710584652
0
LINE
5
176
100
AcDbEntity
8
BEND_EXTENT
100
AcDbLine
10
-13.999999999999915
20
44.523893421169305
30
2.6496417859389216e-13
11
645.85857864376283
21
44.523893421169312
31
2.8272774698789471e-13
0
LINE
5
177
100
AcDbEntity
8
BEND_EXTENT
100
AcDbLine
10
648.26194671058488
20
44.523893421169305
30
3.0937309957889842e-13
11
662.19123603246601
21
44.523893421169305
31
4.2919573668860876e-14
0
ENDSEC
0
SECTION
2
OBJECTS
0
DICTIONARY
5
C
100
AcDbDictionary
3
ACAD_GROUP
350
D
3
ACAD_MLINESTYLE
350
17
0
DICTIONARY
5
D
100
AcDbDictionary
0
DICTIONARY
5
1A
330
C
100
AcDbDictionary
0
DICTIONARY
5
17
100
AcDbDictionary
0
ENDSEC
0
EOF
