0
SECTION
2
HEADER
9
$INSUNITS
70
4
9
$ACADVER
1
AC1014
9
$HANDSEED
5
FFFF
0
ENDSEC
0
SECTION
2
TABLES
0
TABLE
2
VPORT
5
8
100
AcDbSymbolTable
0
ENDTAB
0
TABLE
2
LTYPE
5
5
100
AcDbSymbolTable
0
LTYPE
5
14
100
AcDbSymbolTableRecord
100
AcDbLinetypeTableRecord
2
BYBLOCK
70
0
0
LTYPE
5
15
100
AcDbSymbolTableRecord
100
AcDbLinetypeTableRecord
2
BYLAYER
70
0
0
LTYPE
5
16
100
AcDbSymbolTableRecord
100
AcDbLinetypeTableRecord
2
DASHED
70
0
3
Dashed __ __ __ __ __ __ __ __ __ __ __ __ __ _
72
65
73
2
40
0.75
49
0.5
74
0
49
-0.25
74
0
0
ENDTAB
0
TABLE
2
LAYER
5
2
100
AcDbSymbolTable
70
2
0
LAYER
5
50
100
AcDbSymbolTableRecord
100
AcDbLayerTableRecord
2
0
70
0
62
7
6
CONTINUOUS
0
ENDTAB
0
TABLE
2
STYLE
5
3
100
AcDbSymbolTable
70
1
0
STYLE
5
11
100
AcDbSymbolTableRecord
100
AcDbTextStyleTableRecord
2
STANDARD
70
0
0
ENDTAB
0
TABLE
2
VIEW
5
6
100
AcDbSymbolTable
70
0
0
ENDTAB
0
TABLE
2
UCS
5
7
100
AcDbSymbolTable
70
0
0
ENDTAB
0
TABLE
2
APPID
5
9
100
AcDbSymbolTable
70
2
0
APPID
5
12
100
AcDbSymbolTableRecord
100
AcDbRegAppTableRecord
2
ACAD
70
0
0
ENDTAB
0
TABLE
2
DIMSTYLE
5
A
100
AcDbSymbolTable
70
1
0
ENDTAB
0
TABLE
2
BLOCK_RECORD
5
1
100
AcDbSymbolTable
70
1
0
BLOCK_RECORD
5
1F
100
AcDbSymbolTableRecord
100
AcDbBlockTableRecord
2
*MODEL_SPACE
0
BLOCK_RECORD
5
1B
100
AcDbSymbolTableRecord
100
AcDbBlockTableRecord
2
*PAPER_SPACE
0
ENDTAB
0
ENDSEC
0
SECTION
2
BLOCKS
0
BLOCK
5
20
100
AcDbEntity
100
AcDbBlockBegin
2
*MODEL_SPACE
0
ENDBLK
5
21
100
AcDbEntity
100
AcDbBlockEnd
0
BLOCK
5
1C
100
AcDbEntity
100
AcDbBlockBegin
2
*PAPER_SPACE
0
ENDBLK
5
1D
100
AcDbEntity
100
AcDbBlockEnd
0
ENDSEC
0
SECTION
2
ENTITIES
0
LWPOLYLINE
5
100
100
AcDbEntity
8
OUTER_PROFILES
100
AcDbPolyline
90
32
70
1
43
0.0
10
803.98682042833673
20
13.999999999999844
10
803.98682042833639
20
16.261946710419082
10
827.51071384953138
20
16.261946710419224
10
827.51071384953002
20
545.19123603230071
10
811.24876713884078
20
545.19123603230059
10
805.75418988662921
20
550.68581328451228
42
-0.41421356237309503
10
805.75418988662921
20
552.1000268468855
10
811.24876713878689
20
557.59460409904318
10
811.24876713878689
20
561.45318274280578
10
805.75418988662955
20
566.94775999496335
42
-0.41421356237306561
10
805.75418988662943
20
568.36197355733634
10
811.17805646072372
20
573.78584013143052
10
43.986820428327889
20
573.78584013143166
10
39.986820428330567
20
577.78584013142881
10
-2.5000000000077804
20
577.78584013142859
10
-11.500000000001563
20
568.78584013142836
10
-13.579783738641645
20
566.52389342092238
42
0.18355318445266772
10
-13.073062900219865
20
565.19677756162559
10
-1.7819349999459577
20
552.5238934209226
10
0.89673861660838183
20
550.26194671041878
10
-0.31717278472633309
20
550.67020504499271
42
0.13544827861561767
10
-2.0991077846690969
20
551.16194671042035
10
-19.072367981344524
20
551.16194671042035
10
-22.381269293167385
20
550.26194671041776
10
-27.381269293087506
20
545.26194671041401
10
-27.381269293092217
20
16.261946710410768
10
0.89673861661021981
20
16.261946710417021
10
0.89673861661036924
20
13.999999999999986
10
-3.70536934468646e-14
20
13.999999999999915
10
0
20
0
10
805.98682042833673
20
-2.1316282072803006e-13
10
805.98682042833639
20
13.999999999999844
0
CIRCLE
5
101
100
AcDbEntity
8
INTERIOR_PROFILES
100
AcDbCircle
10
-698.98682042833514
20
6.9999999999296847
30
0
40
1.7000000000000171
210
0
220
0
230
-1
0
CIRCLE
5
102
100
AcDbEntity
8
INTERIOR_PROFILES
100
AcDbCircle
10
-523.98682042833514
20
6.9999999999460982
30
0
40
1.7000000000000171
210
0
220
0
230
-1
0
CIRCLE
5
103
100
AcDbEntity
8
INTERIOR_PROFILES
100
AcDbCircle
10
-173.98682042833511
20
6.9999999999789253
30
0
40
1.7000000000000171
210
0
220
0
230
-1
0
CIRCLE
5
104
100
AcDbEntity
8
INTERIOR_PROFILES
100
AcDbCircle
10
-813.24876713921628
20
27.26194671070985
30
0
40
1.7000000000000171
210
0
220
0
230
-1
0
CIRCLE
5
105
100
AcDbEntity
8
INTERIOR_PROFILES
100
AcDbCircle
10
-813.24876713932656
20
497.26194671041947
30
0
40
1.7000000000000171
210
0
220
0
230
-1
0
CIRCLE
5
106
100
AcDbEntity
8
INTERIOR_PROFILES
100
AcDbCircle
10
-813.24876713932645
20
521.26194671041947
30
0
40
1.7000000000000171
210
0
220
0
230
-1
0
CIRCLE
5
107
100
AcDbEntity
8
INTERIOR_PROFILES
100
AcDbCircle
10
-813.24876713932679
20
465.26194671041947
30
0
40
1.7000000000000171
210
0
220
0
230
-1
0
CIRCLE
5
108
100
AcDbEntity
8
INTERIOR_PROFILES
100
AcDbCircle
10
-813.24876713932781
20
343.26194671041947
30
0
40
1.7000000000000171
210
0
220
0
230
-1
0
CIRCLE
5
109
100
AcDbEntity
8
INTERIOR_PROFILES
100
AcDbCircle
10
-813.24876713926767
20
165.26194671041389
30
0
40
1.7000000000000171
210
0
220
0
230
-1
0
CIRCLE
5
110
100
AcDbEntity
8
INTERIOR_PROFILES
100
AcDbCircle
10
-813.24876713922561
20
59.261946710712294
30
0
40
1.7000000000000171
210
0
220
0
230
-1
0
CIRCLE
5
111
100
AcDbEntity
8
INTERIOR_PROFILES
100
AcDbCircle
10
-723.98682042814448
20
543.26194669968322
30
0
40
1.7000000000000171
210
0
220
0
230
-1
0
CIRCLE
5
112
100
AcDbEntity
8
INTERIOR_PROFILES
100
AcDbCircle
10
-813.24876713961271
20
481.26194671041986
30
0
40
6.5000000000000568
210
0
220
0
230
-1
0
CIRCLE
5
113
100
AcDbEntity
8
INTERIOR_PROFILES
100
AcDbCircle
10
-123.98682042814427
20
543.26194669968152
30
0
40
1.7000000000000171
210
0
220
0
230
-1
0
CIRCLE
5
114
100
AcDbEntity
8
INTERIOR_PROFILES
100
AcDbCircle
10
-35.986820428145926
20
572.78584013137981
30
0
40
1.7000000000000171
210
0
220
0
230
-1
0
CIRCLE
5
115
100
AcDbEntity
8
INTERIOR_PROFILES
100
AcDbCircle
10
-581.48682042833445
20
525.26194671041856
30
0
40
6.4999999999999858
210
0
220
0
230
-1
0
CIRCLE
5
116
100
AcDbEntity
8
INTERIOR_PROFILES
100
AcDbCircle
10
-813.24876713921651
20
19.261946710709879
30
0
40
1.7000000000000171
210
0
220
0
230
-1
0
CIRCLE
5
117
100
AcDbEntity
8
INTERIOR_PROFILES
100
AcDbCircle
10
-771.98682042833525
20
259.26194671041907
30
0
40
1.7000000000000171
210
0
220
0
230
-1
0
CIRCLE
5
118
100
AcDbEntity
8
INTERIOR_PROFILES
100
AcDbCircle
10
-423.98682042814448
20
543.26194669968231
30
0
40
1.7000000000000171
210
0
220
0
230
-1
0
CIRCLE
5
119
100
AcDbEntity
8
INTERIOR_PROFILES
100
AcDbCircle
10
-771.98682042833468
20
515.26194671041912
30
0
40
1.7000000000000171
210
0
220
0
230
-1
0
CIRCLE
5
120
100
AcDbEntity
8
INTERIOR_PROFILES
100
AcDbCircle
10
-10.986820428327821
20
572.78584013145337
30
0
40
1.7000000000000171
210
0
220
0
230
-1
0
CIRCLE
5
121
100
AcDbEntity
8
INTERIOR_PROFILES
100
AcDbCircle
10
-534.98682042833548
20
131.2619467104183
30
0
40
1.6999999999999993
210
0
220
0
230
-1
0
CIRCLE
5
122
100
AcDbEntity
8
INTERIOR_PROFILES
100
AcDbCircle
10
-534.98682042833434
20
543.26194671041844
30
0
40
1.7000000000000171
210
0
220
0
230
-1
0
CIRCLE
5
123
100
AcDbEntity
8
INTERIOR_PROFILES
100
AcDbCircle
10
-534.98682042833445
20
515.26194671041844
30
0
40
1.7000000000000171
210
0
220
0
230
-1
0
CIRCLE
5
124
100
AcDbEntity
8
INTERIOR_PROFILES
100
AcDbCircle
10
-771.98682042833525
20
291.26194671041907
30
0
40
1.7000000000000171
210
0
220
0
230
-1
0
CIRCLE
5
125
100
AcDbEntity
8
INTERIOR_PROFILES
100
AcDbCircle
10
-566.98682042833434
20
543.26194671041856
30
0
40
1.7000000000000171
210
0
220
0
230
-1
0
CIRCLE
5
126
100
AcDbEntity
8
INTERIOR_PROFILES
100
AcDbCircle
10
-534.98682042833479
20
387.26194671041844
30
0
40
1.7000000000000171
210
0
220
0
230
-1
0
CIRCLE
5
127
100
AcDbEntity
8
INTERIOR_PROFILES
100
AcDbCircle
10
-448.98682042833411
20
515.26194671041833
30
0
40
1.7000000000000171
210
0
220
0
230
-1
0
CIRCLE
5
128
100
AcDbEntity
8
INTERIOR_PROFILES
100
AcDbCircle
10
-534.98682042833514
20
259.26194671041844
30
0
40
1.7000000000000171
210
0
220
0
230
-1
0
CIRCLE
5
129
100
AcDbEntity
8
INTERIOR_PROFILES
100
AcDbCircle
10
-66.986820428334028
20
515.26194671041731
30
0
40
1.7000000000000171
210
0
220
0
230
-1
0
CIRCLE
5
130
100
AcDbEntity
8
INTERIOR_PROFILES
100
AcDbCircle
10
-416.98682042833411
20
515.26194671041821
30
0
40
1.7000000000000171
210
0
220
0
230
-1
0
CIRCLE
5
131
100
AcDbEntity
8
INTERIOR_PROFILES
100
AcDbCircle
10
-98.986820428334198
20
515.26194671041731
30
0
40
1.7000000000000171
210
0
220
0
230
-1
0
CIRCLE
5
132
100
AcDbEntity
8
INTERIOR_PROFILES
100
AcDbCircle
10
-12.821382168810569
20
33.588889657884309
30
0
40
1.6999999999999993
210
0
220
0
230
-1
0
CIRCLE
5
133
100
AcDbEntity
8
INTERIOR_PROFILES
100
AcDbCircle
10
-12.821382168809246
20
533.58888965788435
30
0
40
1.7000000000000171
210
0
220
0
230
-1
0
CIRCLE
5
134
100
AcDbEntity
8
INTERIOR_PROFILES
100
AcDbCircle
10
-12.821382168809908
20
283.58888965788435
30
0
40
1.7000000000000171
210
0
220
0
230
-1
0
CIRCLE
5
135
100
AcDbEntity
8
INTERIOR_PROFILES
100
AcDbCircle
10
-12.821382168809576
20
408.58888965788435
30
0
40
1.7000000000000171
210
0
220
0
230
-1
0
CIRCLE
5
136
100
AcDbEntity
8
INTERIOR_PROFILES
100
AcDbCircle
10
-12.821382168810239
20
158.58888965788429
30
0
40
1.7000000000000171
210
0
220
0
230
-1
0
CIRCLE
5
137
100
AcDbEntity
8
INTERIOR_PROFILES
100
AcDbCircle
10
-348.98682042833519
20
6.9999999999625828
30
0
40
1.7000000000000171
210
0
220
0
230
-1
0
LINE
5
138
100
AcDbEntity
8
BEND
100
AcDbLine
10
805.11779378358847
20
573.78584013143052
30
7.9100265030866252e-11
11
805.11779378358847
21
567.65486677617719
31
7.8975097393008904e-11
0
LINE
5
139
100
AcDbEntity
8
BEND
100
AcDbLine
10
805.11779378358847
20
567.65486677617719
30
7.8975097393008904e-11
11
805.11779378356096
21
551.392920065672
31
7.7443540499068935e-11
0
LINE
5
140
100
AcDbEntity
8
BEND
100
AcDbLine
10
805.11779378356096
20
551.392920065672
30
7.7443540499068935e-11
11
805.11779378358926
21
16.261946710419011
31
4.5057625953297438e-11
0
LINE
5
141
100
AcDbEntity
8
BEND
100
AcDbLine
10
-20.726818637298091
20
16.261946710416879
30
3.3934394593839194e-11
11
-20.726818637295782
21
550.7119467104194
31
6.7256078974899489e-11
0
LINE
5
142
100
AcDbEntity
8
BEND
100
AcDbLine
10
821.37974049413344
20
545.19123603230082
30
7.2705997740468429e-11
11
821.37974049413492
21
16.261946710419366
31
4.1282398280567566e-11
0
LINE
5
143
100
AcDbEntity
8
BEND
100
AcDbLine
10
-12.53989186932249
20
567.65486677617525
30
7.9040913842123911e-11
11
805.4612966678161
21
567.65486677617719
31
7.8454327983456842e-11
0
LINE
5
144
100
AcDbEntity
8
BEND
100
AcDbLine
10
0.28978291594878386
20
16.26194671041695
30
4.5216183767921161e-11
11
0.28978291594737032
21
550.46607587770598
31
7.6267292801925108e-11
0
LINE
5
145
100
AcDbEntity
8
BEND
100
AcDbLine
10
-0.44259819166862918
20
551.39292006566984
30
7.7652903911903824e-11
11
805.46129666781599
21
551.392920065672
31
7.699559772673168e-11
0
LINE
5
146
100
AcDbEntity
8
BEND
100
AcDbLine
10
803.98682042833696
20
15.130973355208894
30
4.219776431442915e-11
11
0.89673861661026422
21
15.130973355208965
31
4.2318080690933547e-11
0
LINE
5
147
100
AcDbEntity
8
BEND_EXTENT
100
AcDbLine
10
822.51071384942611
20
545.19123603230082
30
7.2419829031185257e-11
11
822.51071384942736
21
16.261946710419366
31
4.1065539910611351e-11
0
LINE
5
148
100
AcDbEntity
8
BEND_EXTENT
100
AcDbLine
10
820.2487671388426
20
16.261946710419295
30
4.1321528631183368e-11
11
820.24876713884112
21
545.19123603230071
31
7.2729108456939255e-11
0
LINE
5
149
100
AcDbEntity
8
BEND_EXTENT
100
AcDbLine
10
806.24876713884089
20
550.19123603230071
30
7.6839671031491064e-11
11
806.24876713884203
21
16.261946710419082
31
4.4851013878327169e-11
0
LINE
5
150
100
AcDbEntity
8
BEND_EXTENT
100
AcDbLine
10
803.98682042833514
20
566.52389342092442
30
7.8933177826868686e-11
11
-13.579783738641709
21
566.52389342092238
31
7.8992889154446857e-11
0
LINE
5
151
100
AcDbEntity
8
BEND_EXTENT
100
AcDbLine
10
803.98682042833514
20
552.52389342092454
30
7.7639450262118888e-11
11
803.98682042833514
21
566.52389342092442
31
7.8933177826868686e-11
0
LINE
5
152
100
AcDbEntity
8
BEND_EXTENT
100
AcDbLine
10
-1.7819349999459588
20
552.5238934209226
30
7.7731217875539385e-11
11
803.98682042833514
21
552.52389342092454
31
7.7639450262118888e-11
0
LINE
5
153
100
AcDbEntity
8
BEND_EXTENT
100
AcDbLine
10
-11.500000000001563
20
568.78584013142836
30
7.876609689440408e-11
11
803.98682042833525
21
568.7858401314304
31
7.8969530111476262e-11
0
LINE
5
154
100
AcDbEntity
8
BEND_EXTENT
100
AcDbLine
10
803.98682042833525
20
568.7858401314304
30
7.8969530111476262e-11
11
803.98682042833525
21
573.78584013143052
31
7.8984393696325387e-11
0
LINE
5
155
100
AcDbEntity
8
BEND_EXTENT
100
AcDbLine
10
-22.381269293088948
20
16.261946710417092
30
3.3054441242848947e-11
11
-22.381269293167385
21
550.26194671041776
31
6.5848909059309555e-11
0
LINE
5
156
100
AcDbEntity
8
BEND_EXTENT
100
AcDbLine
10
-19.072367981344524
20
551.16194671042035
30
6.5713618350963564e-11
11
-19.072367981346517
21
16.261946710417092
31
3.3504804474429241e-11
0
LINE
5
157
100
AcDbEntity
8
BEND_EXTENT
100
AcDbLine
10
-0.31717278472403659
20
16.261946710417163
30
4.5022139697884053e-11
11
-0.31717278472573496
21
550.67020504499374
31
7.5851508290220977e-11
0
LINE
5
158
100
AcDbEntity
8
BEND_EXTENT
100
AcDbLine
10
803.98682042833673
20
13.999999999999844
30
3.9176337498693749e-11
11
0.89673861661040632
21
13.999999999999986
31
3.9390211792826772e-11
0
LWPOLYLINE
5
159
100
AcDbEntity
8
BEND_EXTENT
100
AcDbPolyline
90
4
70
1
43
0.0
10
803.98682042833525
20
550.26194671041935
10
0.89673861660841681
20
550.26194671041878
10
0.89673861661022114
20
16.261946710417021
10
803.98682042833639
20
16.261946710419082
0
LINE
5
160
100
AcDbEntity
8
BEND_EXTENT
100
AcDbLine
10
806.24876713878712
20
566.45318274280578
30
7.8487413443762499e-11
11
806.24876713878712
21
552.59460409904318
31
7.7252105194174883e-11
0
LINE
5
161
100
AcDbEntity
8
BEND_EXTENT
100
AcDbLine
10
806.24876713884203
20
573.78584013143052
30
7.8652909810069076e-11
11
806.24876713884203
21
568.85655080954905
31
7.8378042784886169e-11
0
ENDSEC
0
SECTION
2
OBJECTS
0
DICTIONARY
5
C
100
AcDbDictionary
3
ACAD_GROUP
350
D
3
ACAD_MLINESTYLE
350
17
0
DICTIONARY
5
D
100
AcDbDictionary
0
DICTIONARY
5
1A
330
C
100
AcDbDictionary
0
DICTIONARY
5
17
100
AcDbDictionary
0
ENDSEC
0
EOF
