0
SECTION
2
HEADER
9
$INSUNITS
70
4
9
$ACADVER
1
AC1014
9
$HANDSEED
5
FFFF
0
ENDSEC
0
SECTION
2
TABLES
0
TABLE
2
VPORT
5
8
100
AcDbSymbolTable
0
ENDTAB
0
TABLE
2
LTYPE
5
5
100
AcDbSymbolTable
0
LTYPE
5
14
100
AcDbSymbolTableRecord
100
AcDbLinetypeTableRecord
2
BYBLOCK
70
0
0
LTYPE
5
15
100
AcDbSymbolTableRecord
100
AcDbLinetypeTableRecord
2
BYLAYER
70
0
0
LTYPE
5
16
100
AcDbSymbolTableRecord
100
AcDbLinetypeTableRecord
2
DASHED
70
0
3
Dashed __ __ __ __ __ __ __ __ __ __ __ __ __ _
72
65
73
2
40
0.75
49
0.5
74
0
49
-0.25
74
0
0
ENDTAB
0
TABLE
2
LAYER
5
2
100
AcDbSymbolTable
70
2
0
LAYER
5
50
100
AcDbSymbolTableRecord
100
AcDbLayerTableRecord
2
0
70
0
62
7
6
CONTINUOUS
0
ENDTAB
0
TABLE
2
STYLE
5
3
100
AcDbSymbolTable
70
1
0
STYLE
5
11
100
AcDbSymbolTableRecord
100
AcDbTextStyleTableRecord
2
STANDARD
70
0
0
ENDTAB
0
TABLE
2
VIEW
5
6
100
AcDbSymbolTable
70
0
0
ENDTAB
0
TABLE
2
UCS
5
7
100
AcDbSymbolTable
70
0
0
ENDTAB
0
TABLE
2
APPID
5
9
100
AcDbSymbolTable
70
2
0
APPID
5
12
100
AcDbSymbolTableRecord
100
AcDbRegAppTableRecord
2
ACAD
70
0
0
ENDTAB
0
TABLE
2
DIMSTYLE
5
A
100
AcDbSymbolTable
70
1
0
ENDTAB
0
TABLE
2
BLOCK_RECORD
5
1
100
AcDbSymbolTable
70
1
0
BLOCK_RECORD
5
1F
100
AcDbSymbolTableRecord
100
AcDbBlockTableRecord
2
*MODEL_SPACE
0
BLOCK_RECORD
5
1B
100
AcDbSymbolTableRecord
100
AcDbBlockTableRecord
2
*PAPER_SPACE
0
ENDTAB
0
ENDSEC
0
SECTION
2
BLOCKS
0
BLOCK
5
20
100
AcDbEntity
100
AcDbBlockBegin
2
*MODEL_SPACE
0
ENDBLK
5
21
100
AcDbEntity
100
AcDbBlockEnd
0
BLOCK
5
1C
100
AcDbEntity
100
AcDbBlockBegin
2
*PAPER_SPACE
0
ENDBLK
5
1D
100
AcDbEntity
100
AcDbBlockEnd
0
ENDSEC
0
SECTION
2
ENTITIES
0
LWPOLYLINE
5
100
100
AcDbEntity
8
OUTER_PROFILES
100
AcDbPolyline
90
32
70
1
43
0.0
10
0.2326305417065555
20
552.10002684688266
10
-5.261946710451042
20
557.59460409904034
10
-5.261946710451042
20
561.45318274280294
10
0.2326305417065555
20
566.94775999496051
42
0.41421356237306922
10
0.23263054170653802
20
568.3619735573335
10
-5.1912360323875362
20
573.78584013142768
10
762.00000000000784
20
573.78584013142972
10
766.00000000000523
20
577.78584013142688
10
808.48682042834355
20
577.78584013142677
10
817.48682042833707
20
568.78584013142677
10
819.5666041669773
20
566.52389342092067
42
-0.18355318445268168
10
819.05988332855543
20
565.19677756162389
10
807.76875542828134
20
552.52389342092079
10
805.09008181172646
20
550.26194671041696
10
806.30399321306072
20
550.67020504499044
42
-0.13544827861564107
10
808.08592821300363
20
551.16194671041853
10
825.05918840967956
20
551.16194671041842
10
828.36808972150197
20
550.26194671041412
10
833.36808972142285
20
545.2619467104123
10
833.3680897214283
20
16.261946710409063
10
805.0900818117259
20
16.261946710415245
10
805.09008181172578
20
13.999999999999986
10
805.98682042833639
20
13.999999999999773
10
805.98682042833627
20
1.4210854715202004e-13
10
0
20
0
10
-1.4210854715202004e-13
20
13.999999999999773
10
1.9999999999996021
20
13.999999999999915
10
1.9999999999997442
20
16.261946710416311
10
-21.523893421195055
20
16.26194671041624
10
-21.523893421194487
20
545.19123603229775
10
-5.2619467105051854
20
545.19123603229775
10
0.23263054170664876
20
550.68581328450955
42
0.41421356237311985
0
CIRCLE
5
101
100
AcDbEntity
8
INTERIOR_PROFILES
100
AcDbCircle
10
-770.00000000018963
20
572.785840131378
30
0
40
1.7000000000000171
210
0
220
0
230
-1
0
CIRCLE
5
102
100
AcDbEntity
8
INTERIOR_PROFILES
100
AcDbCircle
10
-793.16543825952613
20
408.58888965788253
30
0
40
1.7000000000000171
210
0
220
0
230
-1
0
CIRCLE
5
103
100
AcDbEntity
8
INTERIOR_PROFILES
100
AcDbCircle
10
-389.00000000000142
20
515.26194671041583
30
0
40
1.7000000000000171
210
-0
220
0
230
-1
0
CIRCLE
5
104
100
AcDbEntity
8
INTERIOR_PROFILES
100
AcDbCircle
10
-357.00000000000136
20
515.26194671041583
30
0
40
1.7000000000000171
210
-0
220
0
230
-1
0
CIRCLE
5
105
100
AcDbEntity
8
INTERIOR_PROFILES
100
AcDbCircle
10
-271.00000000000051
20
131.26194671041583
30
0
40
1.6999999999999993
210
0
220
0
230
-1
0
CIRCLE
5
106
100
AcDbEntity
8
INTERIOR_PROFILES
100
AcDbCircle
10
-793.16543825952567
20
158.58888965788253
30
0
40
1.7000000000000171
210
0
220
0
230
-1
0
CIRCLE
5
107
100
AcDbEntity
8
INTERIOR_PROFILES
100
AcDbCircle
10
-793.16543825952544
20
33.588889657882532
30
0
40
1.6999999999999993
210
0
220
0
230
-1
0
CIRCLE
5
108
100
AcDbEntity
8
INTERIOR_PROFILES
100
AcDbCircle
10
-795.00000000000773
20
572.78584013145155
30
0
40
1.7000000000000171
210
0
220
0
230
-1
0
CIRCLE
5
109
100
AcDbEntity
8
INTERIOR_PROFILES
100
AcDbCircle
10
-793.1654382595259
20
283.58888965788253
30
0
40
1.7000000000000171
210
0
220
0
230
-1
0
CIRCLE
5
110
100
AcDbEntity
8
INTERIOR_PROFILES
100
AcDbCircle
10
-739.00000000000148
20
515.26194671041537
30
0
40
1.7000000000000171
210
-0
220
0
230
-1
0
CIRCLE
5
111
100
AcDbEntity
8
INTERIOR_PROFILES
100
AcDbCircle
10
-793.16543825952624
20
533.58888965788253
30
0
40
1.7000000000000171
210
0
220
0
230
-1
0
CIRCLE
5
112
100
AcDbEntity
8
INTERIOR_PROFILES
100
AcDbCircle
10
-707.00000000000136
20
515.26194671041537
30
0
40
1.7000000000000171
210
-0
220
0
230
-1
0
CIRCLE
5
113
100
AcDbEntity
8
INTERIOR_PROFILES
100
AcDbCircle
10
7.2619467108896174
20
59.261946710709381
30
0
40
1.7000000000000004
210
0
220
0
230
-1
0
CIRCLE
5
114
100
AcDbEntity
8
INTERIOR_PROFILES
100
AcDbCircle
10
7.2619467108803804
20
19.261946710706965
30
0
40
1.7000000000000004
210
0
220
0
230
-1
0
CIRCLE
5
115
100
AcDbEntity
8
INTERIOR_PROFILES
100
AcDbCircle
10
-282.00000000000114
20
6.9999999999439666
30
0
40
1.7000000000000171
210
0
220
0
230
-1
0
CIRCLE
5
116
100
AcDbEntity
8
INTERIOR_PROFILES
100
AcDbCircle
10
-34.000000000000625
20
259.26194671041623
30
0
40
1.7000000000000171
210
0
220
0
230
-1
0
CIRCLE
5
117
100
AcDbEntity
8
INTERIOR_PROFILES
100
AcDbCircle
10
-271.00000000000085
20
387.26194671041594
30
0
40
1.7000000000000171
210
0
220
0
230
-1
0
CIRCLE
5
118
100
AcDbEntity
8
INTERIOR_PROFILES
100
AcDbCircle
10
-271.00000000000108
20
543.26194671041594
30
0
40
1.7000000000000171
210
0
220
0
230
-1
0
CIRCLE
5
119
100
AcDbEntity
8
INTERIOR_PROFILES
100
AcDbCircle
10
-271.00000000000102
20
515.26194671041583
30
0
40
1.7000000000000171
210
0
220
0
230
-1
0
CIRCLE
5
120
100
AcDbEntity
8
INTERIOR_PROFILES
100
AcDbCircle
10
-224.50000000000117
20
525.26194671041594
30
0
40
6.4999999999999858
210
0
220
0
230
-1
0
CIRCLE
5
121
100
AcDbEntity
8
INTERIOR_PROFILES
100
AcDbCircle
10
7.2619467112771474
20
481.26194671041702
30
0
40
6.5
210
0
220
0
230
-1
0
CIRCLE
5
122
100
AcDbEntity
8
INTERIOR_PROFILES
100
AcDbCircle
10
7.2619467109920777
20
343.26194671041657
30
0
40
1.7000000000000004
210
0
220
0
230
-1
0
CIRCLE
5
123
100
AcDbEntity
8
INTERIOR_PROFILES
100
AcDbCircle
10
-457.00000000000114
20
6.9999999999603801
30
0
40
1.7000000000000171
210
0
220
0
230
-1
0
CIRCLE
5
124
100
AcDbEntity
8
INTERIOR_PROFILES
100
AcDbCircle
10
-107.00000000000117
20
6.9999999999275531
30
0
40
1.6999999999999993
210
0
220
0
230
-1
0
CIRCLE
5
125
100
AcDbEntity
8
INTERIOR_PROFILES
100
AcDbCircle
10
7.2619467108800961
20
27.261946710706937
30
0
40
1.7000000000000004
210
0
220
0
230
-1
0
CIRCLE
5
126
100
AcDbEntity
8
INTERIOR_PROFILES
100
AcDbCircle
10
7.2619467109909408
20
497.26194671041662
30
0
40
1.7000000000000004
210
0
220
0
230
-1
0
CIRCLE
5
127
100
AcDbEntity
8
INTERIOR_PROFILES
100
AcDbCircle
10
-82.000000000191307
20
543.26194669968027
30
0
40
1.7000000000000171
210
0
220
0
230
-1
0
CIRCLE
5
128
100
AcDbEntity
8
INTERIOR_PROFILES
100
AcDbCircle
10
7.261946710991225
20
465.26194671041657
30
0
40
1.7000000000000004
210
0
220
0
230
-1
0
CIRCLE
5
129
100
AcDbEntity
8
INTERIOR_PROFILES
100
AcDbCircle
10
7.2619467109907987
20
521.26194671041662
30
0
40
1.7000000000000004
210
0
220
0
230
-1
0
CIRCLE
5
130
100
AcDbEntity
8
INTERIOR_PROFILES
100
AcDbCircle
10
-632.00000000000114
20
6.9999999999767937
30
0
40
1.7000000000000171
210
0
220
0
230
-1
0
CIRCLE
5
131
100
AcDbEntity
8
INTERIOR_PROFILES
100
AcDbCircle
10
-239.00000000000114
20
543.26194671041594
30
0
40
1.7000000000000171
210
0
220
0
230
-1
0
CIRCLE
5
132
100
AcDbEntity
8
INTERIOR_PROFILES
100
AcDbCircle
10
7.2619467109318236
20
165.26194671041105
30
0
40
1.7000000000000004
210
0
220
0
230
-1
0
CIRCLE
5
133
100
AcDbEntity
8
INTERIOR_PROFILES
100
AcDbCircle
10
-682.00000000019133
20
543.26194669967958
30
0
40
1.7000000000000171
210
0
220
0
230
-1
0
CIRCLE
5
134
100
AcDbEntity
8
INTERIOR_PROFILES
100
AcDbCircle
10
-34.000000000001052
20
515.26194671041617
30
0
40
1.7000000000000171
210
0
220
0
230
-1
0
CIRCLE
5
135
100
AcDbEntity
8
INTERIOR_PROFILES
100
AcDbCircle
10
-34.000000000000767
20
291.26194671041623
30
0
40
1.7000000000000171
210
0
220
0
230
-1
0
CIRCLE
5
136
100
AcDbEntity
8
INTERIOR_PROFILES
100
AcDbCircle
10
-271.00000000000074
20
259.26194671041594
30
0
40
1.7000000000000171
210
0
220
0
230
-1
0
CIRCLE
5
137
100
AcDbEntity
8
INTERIOR_PROFILES
100
AcDbCircle
10
-382.00000000019122
20
543.26194669967992
30
0
40
1.7000000000000171
210
0
220
0
230
-1
0
LINE
5
138
100
AcDbEntity
8
BEND
100
AcDbLine
10
0.86902664474692415
20
573.78584013142768
30
1.5130270356893141e-11
11
0.86902664474692415
21
567.65486677617457
31
1.4882837471271185e-11
0
LINE
5
139
100
AcDbEntity
8
BEND
100
AcDbLine
10
0.86902664474692415
20
567.65486677617457
30
1.4882837471271185e-11
11
0.86902664477463532
21
551.39292006566916
31
1.4459694632741407e-11
0
LINE
5
140
100
AcDbEntity
8
BEND
100
AcDbLine
10
0.86902664477463532
20
551.39292006566916
30
1.4459694632741407e-11
11
0.86902664474692415
21
16.261946710416098
31
-3.0104970466202584e-11
0
LINE
5
141
100
AcDbEntity
8
BEND
100
AcDbLine
10
818.52671229765792
20
567.65486677617355
30
1.4940314857493033e-11
11
0.525523760519917
21
567.65486677617457
31
1.5182680899879402e-11
0
LINE
5
142
100
AcDbEntity
8
BEND
100
AcDbLine
10
826.71363906563352
20
16.261946710415103
30
-2.4409116814172186e-11
11
826.71363906563045
21
550.71194671041769
31
1.9366418039742048e-11
0
LINE
5
143
100
AcDbEntity
8
BEND
100
AcDbLine
10
-15.392920065798137
20
545.19123603229787
30
1.6112634228546179e-11
11
-15.392920065798847
21
16.26194671041624
31
-2.8390552435351496e-11
0
LINE
5
144
100
AcDbEntity
8
BEND
100
AcDbLine
10
806.4294186200043
20
551.39292006566802
30
1.4356522657662738e-11
11
0.525523760519917
21
551.39292006566916
31
1.463841143709435e-11
0
LINE
5
145
100
AcDbEntity
8
BEND
100
AcDbLine
10
1.99999999999946
20
15.130973355207544
30
-2.8163054497809388e-11
11
805.09008181172612
21
15.130973355207544
31
-2.8355334504877022e-11
0
LINE
5
146
100
AcDbEntity
8
BEND
100
AcDbLine
10
805.69703751239274
20
16.261946710415174
30
-3.042259334819682e-11
11
805.69703751239342
21
550.46607587770609
31
1.528805213794216e-11
0
LINE
5
147
100
AcDbEntity
8
BEND_EXTENT
100
AcDbLine
10
-16.523893421091174
20
16.26194671041624
30
-2.8488513832114433e-11
11
-16.523893421090463
21
545.19123603229787
31
1.6202989890772558e-11
0
LINE
5
148
100
AcDbEntity
8
BEND_EXTENT
100
AcDbLine
10
-14.261946710505811
20
545.19123603229775
30
1.6433278854986325e-11
11
-14.261946710506521
21
16.261946710416382
31
-2.820493416271861e-11
0
LINE
5
149
100
AcDbEntity
8
BEND_EXTENT
100
AcDbLine
10
825.05918840968218
20
16.261946710415316
30
-2.4231802117218255e-11
11
825.05918840967956
21
551.16194671041842
31
2.0250441490879336e-11
0
LINE
5
150
100
AcDbEntity
8
BEND_EXTENT
100
AcDbLine
10
828.36808972150197
20
550.26194671041412
30
2.0802879156970921e-11
11
828.36808972142489
21
16.261946710415458
31
-2.4314345937457998e-11
0
LINE
5
151
100
AcDbEntity
8
BEND_EXTENT
100
AcDbLine
10
2.0000000000004547
20
568.78584013142768
30
1.5035077365089543e-11
11
817.48682042833707
21
568.78584013142677
31
1.5096402035008308e-11
0
LINE
5
152
100
AcDbEntity
8
BEND_EXTENT
100
AcDbLine
10
2.0000000000004547
20
573.78584013142768
30
1.5312753537039739e-11
11
2.0000000000004547
21
568.78584013142768
31
1.5035077365089543e-11
0
LINE
5
153
100
AcDbEntity
8
BEND_EXTENT
100
AcDbLine
10
819.56660416697719
20
566.52389342092067
30
1.4664332801750548e-11
11
2.0000000000003126
21
566.52389342092158
31
1.4723847486249117e-11
0
LINE
5
154
100
AcDbEntity
8
BEND_EXTENT
100
AcDbLine
10
2.0000000000003126
20
566.52389342092158
30
1.4723847486249117e-11
11
2.0000000000004547
21
552.52389342092181
31
1.4407785033381461e-11
0
LINE
5
155
100
AcDbEntity
8
BEND_EXTENT
100
AcDbLine
10
2.0000000000004547
20
552.52389342092181
30
1.4407785033381461e-11
11
807.76875542828134
21
552.52389342092079
31
1.4316165397102052e-11
0
LINE
5
156
100
AcDbEntity
8
BEND_EXTENT
100
AcDbLine
10
805.09008181172578
20
13.999999999999986
30
-2.6427850023134263e-11
11
1.9999999999996021
21
13.999999999999915
31
-2.6213975729000077e-11
0
LINE
5
157
100
AcDbEntity
8
BEND_EXTENT
100
AcDbLine
10
-0.2619467104508999
20
552.59460409904011
30
1.4484590457986975e-11
11
-0.26194671045104201
21
566.45318274280282
31
1.4986421443935905e-11
0
LINE
5
158
100
AcDbEntity
8
BEND_EXTENT
100
AcDbLine
10
-0.26194671050603802
20
568.85655080954632
30
1.5177098651442177e-11
11
-0.26194671050618012
21
573.78584013142768
31
1.5213470889741515e-11
0
LINE
5
159
100
AcDbEntity
8
BEND_EXTENT
100
AcDbLine
10
-0.26194671050589591
20
16.26194671041624
30
-2.9842599375901171e-11
11
-0.26194671050518537
21
550.19123603229787
31
1.4649184618347151e-11
0
LWPOLYLINE
5
160
100
AcDbEntity
8
BEND_EXTENT
100
AcDbPolyline
90
4
70
1
43
0.0
10
2.0000000000003126
20
550.2619467104164
10
1.9999999999997442
20
16.261946710416311
10
805.0900818117259
20
16.261946710415245
10
805.09008181172646
20
550.26194671041696
0
LINE
5
161
100
AcDbEntity
8
BEND_EXTENT
100
AcDbLine
10
806.30399321306072
20
550.67020504499033
30
1.5299868582615439e-11
11
806.30399321305958
21
16.261946710415316
31
-3.0277958275320277e-11
0
ENDSEC
0
SECTION
2
OBJECTS
0
DICTIONARY
5
C
100
AcDbDictionary
3
ACAD_GROUP
350
D
3
ACAD_MLINESTYLE
350
17
0
DICTIONARY
5
D
100
AcDbDictionary
0
DICTIONARY
5
1A
330
C
100
AcDbDictionary
0
DICTIONARY
5
17
100
AcDbDictionary
0
ENDSEC
0
EOF
