0
SECTION
2
HEADER
9
$INSUNITS
70
4
0
ENDSEC
0
SECTION
2
ENTITIES
0
LWPOLYLINE
8
SHEET_BORDER
90
5
70
1
10
0.000
20
0.000
10
3050.000
20
0.000
10
3050.000
20
1220.000
10
0.000
20
1220.000
10
0.000
20
0.000
0
TEXT
8
PART_LABELS
10
444.500
20
386.500
30
0
40
50.000
1
2BK001-090080
72
1
73
2
11
444.500
21
386.500
31
0
0
LINE
8
OUTER_PROFILES
10
873.405
20
768.048
30
0
11
868.405
21
773.048
31
0
0
LINE
8
OUTER_PROFILES
10
868.405
20
773.048
30
0
11
20.547
21
773.048
31
0
0
LINE
8
OUTER_PROFILES
10
20.547
20
773.048
30
0
11
15.547
21
768.048
31
0
0
ARC
8
OUTER_PROFILES
10
18.786
20
765.264
30
0
40
4.272
50
139.3224
51
172.9774
0
LINE
8
OUTER_PROFILES
10
14.547
20
765.786
30
0
11
14.547
21
759.786
31
0
0
ARC
8
OUTER_PROFILES
10
18.799
20
760.314
30
0
40
4.285
50
187.0769
51
220.6233
0
LINE
8
OUTER_PROFILES
10
15.547
20
757.524
30
0
11
15.476
21
757.453
31
0
0
ARC
8
OUTER_PROFILES
10
12.686
20
754.201
30
0
40
4.285
50
49.3767
51
82.9231
0
LINE
8
OUTER_PROFILES
10
13.214
20
758.453
30
0
11
7.214
21
758.453
31
0
0
ARC
8
OUTER_PROFILES
10
7.736
20
754.214
30
0
40
4.272
50
97.0226
51
130.6776
0
LINE
8
OUTER_PROFILES
10
4.952
20
757.453
30
0
11
-0.048
21
752.453
31
0
0
LINE
8
OUTER_PROFILES
10
-0.048
20
752.453
30
0
11
-0.048
21
20.595
31
0
0
LINE
8
OUTER_PROFILES
10
-0.048
20
20.595
30
0
11
4.952
21
15.595
31
0
0
ARC
8
OUTER_PROFILES
10
7.736
20
18.834
30
0
40
4.272
50
229.3224
51
262.9774
0
LINE
8
OUTER_PROFILES
10
7.214
20
14.595
30
0
11
13.214
21
14.595
31
0
0
ARC
8
OUTER_PROFILES
10
12.686
20
18.847
30
0
40
4.285
50
277.0769
51
310.6233
0
LINE
8
OUTER_PROFILES
10
15.476
20
15.595
30
0
11
15.547
21
15.524
31
0
0
ARC
8
OUTER_PROFILES
10
18.799
20
12.734
30
0
40
4.285
50
139.3767
51
172.9231
0
LINE
8
OUTER_PROFILES
10
14.547
20
13.262
30
0
11
14.547
21
7.262
31
0
0
ARC
8
OUTER_PROFILES
10
18.786
20
7.784
30
0
40
4.272
50
187.0226
51
220.6776
0
LINE
8
OUTER_PROFILES
10
15.547
20
5.000
30
0
11
20.547
21
0.000
31
0
0
LINE
8
OUTER_PROFILES
10
20.547
20
0.000
30
0
11
868.405
21
0.000
31
0
0
LINE
8
OUTER_PROFILES
10
868.405
20
0.000
30
0
11
873.405
21
5.000
31
0
0
ARC
8
OUTER_PROFILES
10
870.166
20
7.784
30
0
40
4.272
50
319.3224
51
352.9774
0
LINE
8
OUTER_PROFILES
10
874.405
20
7.262
30
0
11
874.405
21
13.262
31
0
0
ARC
8
OUTER_PROFILES
10
870.153
20
12.734
30
0
40
4.285
50
7.0769
51
40.6233
0
LINE
8
OUTER_PROFILES
10
873.405
20
15.524
30
0
11
873.476
21
15.595
31
0
0
ARC
8
OUTER_PROFILES
10
876.266
20
18.847
30
0
40
4.285
50
229.3767
51
262.9231
0
LINE
8
OUTER_PROFILES
10
875.738
20
14.595
30
0
11
881.738
21
14.595
31
0
0
ARC
8
OUTER_PROFILES
10
881.216
20
18.834
30
0
40
4.272
50
277.0226
51
310.6776
0
LINE
8
OUTER_PROFILES
10
884.000
20
15.595
30
0
11
889.000
21
20.595
31
0
0
LINE
8
OUTER_PROFILES
10
889.000
20
20.595
30
0
11
889.000
21
752.453
31
0
0
LINE
8
OUTER_PROFILES
10
889.000
20
752.453
30
0
11
884.000
21
757.453
31
0
0
ARC
8
OUTER_PROFILES
10
881.216
20
754.214
30
0
40
4.272
50
49.3224
51
82.9774
0
LINE
8
OUTER_PROFILES
10
881.738
20
758.453
30
0
11
875.738
21
758.453
31
0
0
ARC
8
OUTER_PROFILES
10
876.266
20
754.201
30
0
40
4.285
50
97.0769
51
130.6233
0
LINE
8
OUTER_PROFILES
10
873.476
20
757.453
30
0
11
873.405
21
757.524
31
0
0
ARC
8
OUTER_PROFILES
10
870.153
20
760.314
30
0
40
4.285
50
319.3767
51
352.9231
0
LINE
8
OUTER_PROFILES
10
874.405
20
759.786
30
0
11
874.405
21
765.786
31
0
0
ARC
8
OUTER_PROFILES
10
870.166
20
765.264
30
0
40
4.272
50
7.0226
51
40.6776
0
TEXT
8
PART_LABELS
10
1396.500
20
295.000
30
0
40
50.000
1
FN0F00-100000
72
1
73
2
11
1396.500
21
295.000
31
0
0
LWPOLYLINE
8
OUTER_PROFILES
90
18
70
1
10
1896.029
20
584.100
42
0.414214
10
1896.029
20
582.686
10
1901.524
20
577.191
10
1901.524
20
573.333
10
1896.029
20
567.838
42
0.414214
10
1896.029
20
566.424
10
1901.524
20
560.929
10
1901.524
20
0.000
10
891.000
20
0.000
10
891.000
20
560.929
10
896.495
20
566.424
42
0.414214
10
896.495
20
567.838
10
891.000
20
573.333
10
891.000
20
577.191
10
896.495
20
582.686
42
0.414214
10
896.495
20
584.100
10
891.071
20
589.524
10
1901.453
20
589.524
0
CIRCLE
8
INTERIOR_PROFILES
10
905.262
20
497.000
30
0
40
6.500
0
CIRCLE
8
INTERIOR_PROFILES
10
1596.262
20
5.000
30
0
40
1.700
0
CIRCLE
8
INTERIOR_PROFILES
10
905.262
20
481.000
30
0
40
1.700
0
CIRCLE
8
INTERIOR_PROFILES
10
1887.262
20
258.000
30
0
40
1.700
0
CIRCLE
8
INTERIOR_PROFILES
10
894.000
20
3.000
30
0
40
1.700
0
CIRCLE
8
INTERIOR_PROFILES
10
1887.262
20
181.000
30
0
40
1.700
0
CIRCLE
8
INTERIOR_PROFILES
10
1887.262
20
290.000
30
0
40
1.700
0
CIRCLE
8
INTERIOR_PROFILES
10
1887.262
20
537.000
30
0
40
1.700
0
CIRCLE
8
INTERIOR_PROFILES
10
905.262
20
181.000
30
0
40
1.700
0
CIRCLE
8
INTERIOR_PROFILES
10
1887.262
20
481.000
30
0
40
1.700
0
CIRCLE
8
INTERIOR_PROFILES
10
1887.262
20
513.000
30
0
40
1.700
0
CIRCLE
8
INTERIOR_PROFILES
10
1815.262
20
5.000
30
0
40
1.700
0
CIRCLE
8
INTERIOR_PROFILES
10
905.262
20
559.000
30
0
40
1.700
0
CIRCLE
8
INTERIOR_PROFILES
10
894.000
20
537.000
30
0
40
1.700
0
CIRCLE
8
INTERIOR_PROFILES
10
1696.262
20
5.000
30
0
40
1.700
0
CIRCLE
8
INTERIOR_PROFILES
10
894.000
20
359.000
30
0
40
1.700
0
CIRCLE
8
INTERIOR_PROFILES
10
905.262
20
537.000
30
0
40
1.700
0
CIRCLE
8
INTERIOR_PROFILES
10
1887.262
20
497.000
30
0
40
6.500
0
CIRCLE
8
INTERIOR_PROFILES
10
905.262
20
45.000
30
0
40
1.700
0
CIRCLE
8
INTERIOR_PROFILES
10
1887.262
20
559.000
30
0
40
1.700
0
CIRCLE
8
INTERIOR_PROFILES
10
905.262
20
258.000
30
0
40
1.700
0
CIRCLE
8
INTERIOR_PROFILES
10
1887.262
20
359.000
30
0
40
1.700
0
CIRCLE
8
INTERIOR_PROFILES
10
1887.262
20
45.000
30
0
40
1.700
0
CIRCLE
8
INTERIOR_PROFILES
10
1887.262
20
13.000
30
0
40
1.700
0
CIRCLE
8
INTERIOR_PROFILES
10
1887.262
20
5.000
30
0
40
1.700
0
CIRCLE
8
INTERIOR_PROFILES
10
894.000
20
181.000
30
0
40
1.700
0
CIRCLE
8
INTERIOR_PROFILES
10
931.262
20
5.000
30
0
40
1.700
0
CIRCLE
8
INTERIOR_PROFILES
10
905.262
20
5.000
30
0
40
1.700
0
CIRCLE
8
INTERIOR_PROFILES
10
1898.524
20
3.000
30
0
40
1.700
0
CIRCLE
8
INTERIOR_PROFILES
10
905.262
20
13.000
30
0
40
1.700
0
CIRCLE
8
INTERIOR_PROFILES
10
977.262
20
5.000
30
0
40
1.700
0
CIRCLE
8
INTERIOR_PROFILES
10
905.262
20
513.000
30
0
40
1.700
0
CIRCLE
8
INTERIOR_PROFILES
10
905.262
20
359.000
30
0
40
1.700
0
CIRCLE
8
INTERIOR_PROFILES
10
905.262
20
290.000
30
0
40
1.700
0
CIRCLE
8
INTERIOR_PROFILES
10
1898.524
20
537.000
30
0
40
1.700
0
CIRCLE
8
INTERIOR_PROFILES
10
1898.524
20
181.000
30
0
40
1.700
0
CIRCLE
8
INTERIOR_PROFILES
10
1496.262
20
5.000
30
0
40
1.700
0
CIRCLE
8
INTERIOR_PROFILES
10
1898.524
20
359.000
30
0
40
1.700
0
CIRCLE
8
INTERIOR_PROFILES
10
1796.262
20
5.000
30
0
40
1.700
0
CIRCLE
8
INTERIOR_PROFILES
10
1861.262
20
5.000
30
0
40
1.700
0
CIRCLE
8
INTERIOR_PROFILES
10
1396.262
20
5.000
30
0
40
1.700
0
TEXT
8
PART_LABELS
10
1346.500
20
887.000
30
0
40
50.000
1
FN0F00-090000
72
1
73
2
11
1346.500
21
887.000
31
0
0
LWPOLYLINE
8
OUTER_PROFILES
90
18
70
1
10
1796.029
20
1176.100
42
0.414214
10
1796.029
20
1174.686
10
1801.524
20
1169.191
10
1801.524
20
1165.333
10
1796.029
20
1159.838
42
0.414214
10
1796.029
20
1158.424
10
1801.524
20
1152.929
10
1801.524
20
592.000
10
891.000
20
592.000
10
891.000
20
1152.929
10
896.495
20
1158.424
42
0.414214
10
896.495
20
1159.838
10
891.000
20
1165.333
10
891.000
20
1169.191
10
896.495
20
1174.686
42
0.414214
10
896.495
20
1176.100
10
891.071
20
1181.524
10
1801.453
20
1181.524
0
CIRCLE
8
INTERIOR_PROFILES
10
1787.262
20
1073.000
30
0
40
1.700
0
CIRCLE
8
INTERIOR_PROFILES
10
905.262
20
597.000
30
0
40
1.700
0
CIRCLE
8
INTERIOR_PROFILES
10
1787.262
20
1151.000
30
0
40
1.700
0
CIRCLE
8
INTERIOR_PROFILES
10
905.262
20
1151.000
30
0
40
1.700
0
CIRCLE
8
INTERIOR_PROFILES
10
931.262
20
597.000
30
0
40
1.700
0
CIRCLE
8
INTERIOR_PROFILES
10
1787.262
20
951.000
30
0
40
1.700
0
CIRCLE
8
INTERIOR_PROFILES
10
1787.262
20
1105.000
30
0
40
1.700
0
CIRCLE
8
INTERIOR_PROFILES
10
1787.262
20
637.000
30
0
40
1.700
0
CIRCLE
8
INTERIOR_PROFILES
10
1787.262
20
605.000
30
0
40
1.700
0
CIRCLE
8
INTERIOR_PROFILES
10
1787.262
20
882.000
30
0
40
1.700
0
CIRCLE
8
INTERIOR_PROFILES
10
905.262
20
1089.000
30
0
40
6.500
0
CIRCLE
8
INTERIOR_PROFILES
10
905.262
20
1129.000
30
0
40
1.700
0
CIRCLE
8
INTERIOR_PROFILES
10
894.000
20
1129.000
30
0
40
1.700
0
CIRCLE
8
INTERIOR_PROFILES
10
1546.262
20
597.000
30
0
40
1.700
0
CIRCLE
8
INTERIOR_PROFILES
10
1715.262
20
597.000
30
0
40
1.700
0
CIRCLE
8
INTERIOR_PROFILES
10
1787.262
20
773.000
30
0
40
1.700
0
CIRCLE
8
INTERIOR_PROFILES
10
894.000
20
773.000
30
0
40
1.700
0
CIRCLE
8
INTERIOR_PROFILES
10
905.262
20
850.000
30
0
40
1.700
0
CIRCLE
8
INTERIOR_PROFILES
10
905.262
20
773.000
30
0
40
1.700
0
CIRCLE
8
INTERIOR_PROFILES
10
1787.262
20
850.000
30
0
40
1.700
0
CIRCLE
8
INTERIOR_PROFILES
10
1787.262
20
1089.000
30
0
40
6.500
0
CIRCLE
8
INTERIOR_PROFILES
10
1446.262
20
597.000
30
0
40
1.700
0
CIRCLE
8
INTERIOR_PROFILES
10
894.000
20
951.000
30
0
40
1.700
0
CIRCLE
8
INTERIOR_PROFILES
10
894.000
20
595.000
30
0
40
1.700
0
CIRCLE
8
INTERIOR_PROFILES
10
905.262
20
1073.000
30
0
40
1.700
0
CIRCLE
8
INTERIOR_PROFILES
10
1787.262
20
597.000
30
0
40
1.700
0
CIRCLE
8
INTERIOR_PROFILES
10
1787.262
20
1129.000
30
0
40
1.700
0
CIRCLE
8
INTERIOR_PROFILES
10
905.262
20
637.000
30
0
40
1.700
0
CIRCLE
8
INTERIOR_PROFILES
10
1646.262
20
597.000
30
0
40
1.700
0
CIRCLE
8
INTERIOR_PROFILES
10
977.262
20
597.000
30
0
40
1.700
0
CIRCLE
8
INTERIOR_PROFILES
10
1798.524
20
1129.000
30
0
40
1.700
0
CIRCLE
8
INTERIOR_PROFILES
10
1761.262
20
597.000
30
0
40
1.700
0
CIRCLE
8
INTERIOR_PROFILES
10
905.262
20
1105.000
30
0
40
1.700
0
CIRCLE
8
INTERIOR_PROFILES
10
905.262
20
882.000
30
0
40
1.700
0
CIRCLE
8
INTERIOR_PROFILES
10
1798.524
20
773.000
30
0
40
1.700
0
CIRCLE
8
INTERIOR_PROFILES
10
1798.524
20
951.000
30
0
40
1.700
0
CIRCLE
8
INTERIOR_PROFILES
10
1346.262
20
597.000
30
0
40
1.700
0
CIRCLE
8
INTERIOR_PROFILES
10
905.262
20
951.000
30
0
40
1.700
0
CIRCLE
8
INTERIOR_PROFILES
10
905.262
20
605.000
30
0
40
1.700
0
CIRCLE
8
INTERIOR_PROFILES
10
1798.524
20
595.000
30
0
40
1.700
0
CIRCLE
8
INTERIOR_PROFILES
10
1246.262
20
597.000
30
0
40
1.700
0
TEXT
8
PART_LABELS
10
2420.500
20
241.500
30
0
40
50.000
1
2UPI00-100000
72
1
73
2
11
2420.500
21
241.500
31
0
0
LWPOLYLINE
8
OUTER_PROFILES
90
36
70
1
10
1922.262
20
42.524
42
-1.000000
10
1922.262
20
23.524
10
1922.262
20
10.262
10
1922.262
20
0.000
10
2918.262
20
0.000
10
2918.262
20
10.262
10
2918.262
20
23.524
42
-1.000000
10
2918.262
20
42.524
10
2918.262
20
44.786
10
2918.262
20
51.786
10
2918.262
20
54.048
10
2936.524
20
54.048
10
2936.524
20
383.714
10
2920.524
20
425.048
10
2918.262
20
425.048
10
2918.262
20
427.310
10
2918.262
20
449.310
10
2918.262
20
457.572
10
2918.262
20
467.834
10
2918.262
20
470.096
42
-0.414214
10
2911.762
20
476.596
10
2911.762
20
483.096
10
1928.762
20
483.096
10
1928.762
20
476.596
42
-0.414214
10
1922.262
20
470.096
10
1922.262
20
467.834
10
1922.262
20
457.572
10
1922.262
20
449.310
10
1922.262
20
427.310
10
1922.262
20
425.048
10
1920.000
20
425.048
10
1904.000
20
383.714
10
1904.000
20
54.048
10
1922.262
20
54.048
10
1922.262
20
51.786
10
1922.262
20
44.786
0
CIRCLE
8
INTERIOR_PROFILES
10
2839.262
20
442.310
30
0
40
1.700
0
CIRCLE
8
INTERIOR_PROFILES
10
2911.262
20
395.048
30
0
40
1.700
0
CIRCLE
8
INTERIOR_PROFILES
10
2911.262
20
61.048
30
0
40
1.700
0
CIRCLE
8
INTERIOR_PROFILES
10
2911.262
20
442.310
30
0
40
1.700
0
CIRCLE
8
INTERIOR_PROFILES
10
2911.262
20
414.548
30
0
40
1.700
0
CIRCLE
8
INTERIOR_PROFILES
10
1980.262
20
442.310
30
0
40
1.700
0
CIRCLE
8
INTERIOR_PROFILES
10
2026.262
20
442.310
30
0
40
1.700
0
CIRCLE
8
INTERIOR_PROFILES
10
1929.262
20
228.048
30
0
40
1.700
0
CIRCLE
8
INTERIOR_PROFILES
10
1929.262
20
395.048
30
0
40
1.700
0
CIRCLE
8
INTERIOR_PROFILES
10
1929.262
20
61.048
30
0
40
1.700
0
CIRCLE
8
INTERIOR_PROFILES
10
1954.262
20
442.310
30
0
40
1.700
0
CIRCLE
8
INTERIOR_PROFILES
10
2001.262
20
442.310
30
0
40
1.700
0
CIRCLE
8
INTERIOR_PROFILES
10
1929.262
20
442.310
30
0
40
1.700
0
CIRCLE
8
INTERIOR_PROFILES
10
1929.262
20
414.548
30
0
40
1.700
0
CIRCLE
8
INTERIOR_PROFILES
10
2911.262
20
228.048
30
0
40
1.700
0
CIRCLE
8
INTERIOR_PROFILES
10
2860.262
20
442.310
30
0
40
1.700
0
CIRCLE
8
INTERIOR_PROFILES
10
2814.262
20
442.310
30
0
40
1.700
0
CIRCLE
8
INTERIOR_PROFILES
10
2886.262
20
442.310
30
0
40
1.700
0
CIRCLE
8
INTERIOR_PROFILES
10
2420.262
20
418.048
30
0
40
1.700
0
CIRCLE
8
INTERIOR_PROFILES
10
2520.262
20
33.024
30
0
40
1.700
0
CIRCLE
8
INTERIOR_PROFILES
10
2120.262
20
33.024
30
0
40
1.700
0
CIRCLE
8
INTERIOR_PROFILES
10
2120.262
20
418.048
30
0
40
1.700
0
CIRCLE
8
INTERIOR_PROFILES
10
2320.262
20
418.048
30
0
40
1.700
0
CIRCLE
8
INTERIOR_PROFILES
10
2220.262
20
33.024
30
0
40
1.700
0
CIRCLE
8
INTERIOR_PROFILES
10
2720.262
20
418.048
30
0
40
1.700
0
CIRCLE
8
INTERIOR_PROFILES
10
2020.262
20
33.024
30
0
40
1.700
0
CIRCLE
8
INTERIOR_PROFILES
10
2020.262
20
418.048
30
0
40
1.700
0
CIRCLE
8
INTERIOR_PROFILES
10
2120.262
20
480.096
30
0
40
1.700
0
CIRCLE
8
INTERIOR_PROFILES
10
2320.262
20
480.096
30
0
40
1.700
0
CIRCLE
8
INTERIOR_PROFILES
10
2720.262
20
480.096
30
0
40
1.700
0
CIRCLE
8
INTERIOR_PROFILES
10
2620.262
20
33.024
30
0
40
1.700
0
CIRCLE
8
INTERIOR_PROFILES
10
2520.262
20
418.048
30
0
40
1.700
0
CIRCLE
8
INTERIOR_PROFILES
10
2820.262
20
33.024
30
0
40
1.700
0
CIRCLE
8
INTERIOR_PROFILES
10
2620.262
20
418.048
30
0
40
1.700
0
CIRCLE
8
INTERIOR_PROFILES
10
2120.262
20
3.000
30
0
40
1.700
0
CIRCLE
8
INTERIOR_PROFILES
10
2620.262
20
480.096
30
0
40
1.700
0
CIRCLE
8
INTERIOR_PROFILES
10
2720.262
20
33.024
30
0
40
1.700
0
CIRCLE
8
INTERIOR_PROFILES
10
2320.262
20
33.024
30
0
40
1.700
0
CIRCLE
8
INTERIOR_PROFILES
10
2720.262
20
3.000
30
0
40
1.700
0
CIRCLE
8
INTERIOR_PROFILES
10
2220.262
20
418.048
30
0
40
1.700
0
CIRCLE
8
INTERIOR_PROFILES
10
2420.262
20
33.024
30
0
40
1.700
0
CIRCLE
8
INTERIOR_PROFILES
10
2820.262
20
418.048
30
0
40
1.700
0
CIRCLE
8
INTERIOR_PROFILES
10
2620.262
20
3.000
30
0
40
1.700
0
CIRCLE
8
INTERIOR_PROFILES
10
2320.262
20
3.000
30
0
40
1.700
0
CIRCLE
8
INTERIOR_PROFILES
10
2820.262
20
480.096
30
0
40
1.700
0
CIRCLE
8
INTERIOR_PROFILES
10
2520.262
20
3.000
30
0
40
1.700
0
CIRCLE
8
INTERIOR_PROFILES
10
2020.262
20
480.096
30
0
40
1.700
0
CIRCLE
8
INTERIOR_PROFILES
10
2520.262
20
480.096
30
0
40
1.700
0
CIRCLE
8
INTERIOR_PROFILES
10
2420.262
20
480.096
30
0
40
1.700
0
CIRCLE
8
INTERIOR_PROFILES
10
2420.262
20
3.000
30
0
40
1.700
0
CIRCLE
8
INTERIOR_PROFILES
10
2820.262
20
3.000
30
0
40
1.700
0
CIRCLE
8
INTERIOR_PROFILES
10
2220.262
20
3.000
30
0
40
1.700
0
CIRCLE
8
INTERIOR_PROFILES
10
2220.262
20
480.096
30
0
40
1.700
0
CIRCLE
8
INTERIOR_PROFILES
10
2020.262
20
3.000
30
0
40
1.700
0
CIRCLE
8
INTERIOR_PROFILES
10
1907.000
20
370.548
30
0
40
1.700
0
CIRCLE
8
INTERIOR_PROFILES
10
1907.000
20
215.548
30
0
40
1.700
0
CIRCLE
8
INTERIOR_PROFILES
10
2933.524
20
215.548
30
0
40
1.700
0
CIRCLE
8
INTERIOR_PROFILES
10
2933.524
20
370.548
30
0
40
1.700
0
CIRCLE
8
INTERIOR_PROFILES
10
2933.524
20
60.548
30
0
40
1.700
0
CIRCLE
8
INTERIOR_PROFILES
10
1907.000
20
60.548
30
0
40
1.700
0
TEXT
8
PART_LABELS
10
2415.500
20
727.000
30
0
40
50.000
1
2DN0DD-100000
72
1
73
2
11
2415.500
21
727.000
31
0
0
LWPOLYLINE
8
OUTER_PROFILES
90
26
70
1
10
1917.262
20
498.000
10
1917.262
20
508.262
10
1917.262
20
526.524
10
1917.262
20
550.786
10
1917.262
20
553.048
10
1904.000
20
553.048
10
1904.000
20
939.812
10
1917.262
20
939.812
10
1917.262
20
941.023
10
1917.262
20
942.234
10
1917.262
20
948.496
10
1917.262
20
969.496
10
2913.262
20
969.496
10
2913.262
20
946.234
10
2913.262
20
942.234
10
2913.262
20
941.023
10
2913.262
20
939.812
10
2926.524
20
939.812
10
2926.524
20
553.048
10
2913.262
20
553.048
10
2913.262
20
550.786
10
2913.262
20
526.524
10
2913.262
20
508.262
10
2913.262
20
498.000
42
0.414214
10
2900.262
20
485.000
10
1930.262
20
485.000
42
0.414214
0
CIRCLE
8
INTERIOR_PROFILES
10
2515.262
20
488.000
30
0
40
1.700
0
CIRCLE
8
INTERIOR_PROFILES
10
2921.024
20
685.048
30
0
40
4.500
0
CIRCLE
8
INTERIOR_PROFILES
10
2115.262
20
488.000
30
0
40
1.700
0
CIRCLE
8
INTERIOR_PROFILES
10
2921.024
20
840.048
30
0
40
4.500
0
CIRCLE
8
INTERIOR_PROFILES
10
1909.500
20
840.048
30
0
40
4.500
0
CIRCLE
8
INTERIOR_PROFILES
10
2815.262
20
488.000
30
0
40
1.700
0
CIRCLE
8
INTERIOR_PROFILES
10
1907.000
20
917.548
30
0
40
1.700
0
CIRCLE
8
INTERIOR_PROFILES
10
1996.262
20
535.786
30
0
40
1.700
0
CIRCLE
8
INTERIOR_PROFILES
10
2906.262
20
535.786
30
0
40
1.700
0
CIRCLE
8
INTERIOR_PROFILES
10
2715.262
20
488.000
30
0
40
1.700
0
CIRCLE
8
INTERIOR_PROFILES
10
2215.262
20
488.000
30
0
40
1.700
0
CIRCLE
8
INTERIOR_PROFILES
10
1909.500
20
685.048
30
0
40
4.500
0
CIRCLE
8
INTERIOR_PROFILES
10
1924.262
20
535.786
30
0
40
1.700
0
CIRCLE
8
INTERIOR_PROFILES
10
2015.262
20
488.000
30
0
40
1.700
0
CIRCLE
8
INTERIOR_PROFILES
10
2923.524
20
917.548
30
0
40
1.700
0
CIRCLE
8
INTERIOR_PROFILES
10
2415.262
20
488.000
30
0
40
1.700
0
CIRCLE
8
INTERIOR_PROFILES
10
2615.262
20
488.000
30
0
40
1.700
0
CIRCLE
8
INTERIOR_PROFILES
10
2880.262
20
535.786
30
0
40
1.700
0
CIRCLE
8
INTERIOR_PROFILES
10
2834.262
20
535.786
30
0
40
1.700
0
CIRCLE
8
INTERIOR_PROFILES
10
1950.262
20
535.786
30
0
40
1.700
0
CIRCLE
8
INTERIOR_PROFILES
10
2315.262
20
488.000
30
0
40
1.700
0
CIRCLE
8
INTERIOR_PROFILES
10
2215.262
20
560.048
30
0
40
1.700
0
CIRCLE
8
INTERIOR_PROFILES
10
2715.262
20
560.048
30
0
40
1.700
0
CIRCLE
8
INTERIOR_PROFILES
10
2906.262
20
583.048
30
0
40
1.700
0
CIRCLE
8
INTERIOR_PROFILES
10
1924.262
20
926.798
30
0
40
6.500
0
CIRCLE
8
INTERIOR_PROFILES
10
2415.262
20
560.048
30
0
40
1.700
0
CIRCLE
8
INTERIOR_PROFILES
10
1907.000
20
762.548
30
0
40
1.700
0
CIRCLE
8
INTERIOR_PROFILES
10
1907.000
20
607.548
30
0
40
1.700
0
CIRCLE
8
INTERIOR_PROFILES
10
2515.262
20
560.048
30
0
40
1.700
0
CIRCLE
8
INTERIOR_PROFILES
10
1945.262
20
944.734
30
0
40
1.250
0
CIRCLE
8
INTERIOR_PROFILES
10
2615.262
20
560.048
30
0
40
1.700
0
CIRCLE
8
INTERIOR_PROFILES
10
2415.262
20
958.496
30
0
40
8.750
0
CIRCLE
8
INTERIOR_PROFILES
10
2885.262
20
944.734
30
0
40
1.250
0
CIRCLE
8
INTERIOR_PROFILES
10
2923.524
20
762.548
30
0
40
1.700
0
CIRCLE
8
INTERIOR_PROFILES
10
1924.262
20
917.048
30
0
40
1.700
0
CIRCLE
8
INTERIOR_PROFILES
10
2923.524
20
607.548
30
0
40
1.700
0
CIRCLE
8
INTERIOR_PROFILES
10
2906.262
20
563.548
30
0
40
1.700
0
CIRCLE
8
INTERIOR_PROFILES
10
2315.262
20
560.048
30
0
40
1.700
0
CIRCLE
8
INTERIOR_PROFILES
10
1924.262
20
563.548
30
0
40
1.700
0
CIRCLE
8
INTERIOR_PROFILES
10
2906.262
20
926.798
30
0
40
6.500
0
CIRCLE
8
INTERIOR_PROFILES
10
2115.262
20
560.048
30
0
40
1.700
0
CIRCLE
8
INTERIOR_PROFILES
10
1924.262
20
583.048
30
0
40
1.700
0
CIRCLE
8
INTERIOR_PROFILES
10
2906.262
20
936.548
30
0
40
1.700
0
CIRCLE
8
INTERIOR_PROFILES
10
2906.262
20
917.048
30
0
40
1.700
0
CIRCLE
8
INTERIOR_PROFILES
10
2815.262
20
560.048
30
0
40
1.700
0
CIRCLE
8
INTERIOR_PROFILES
10
1924.262
20
750.048
30
0
40
1.700
0
CIRCLE
8
INTERIOR_PROFILES
10
2906.262
20
750.048
30
0
40
1.700
0
CIRCLE
8
INTERIOR_PROFILES
10
2015.262
20
560.048
30
0
40
1.700
0
CIRCLE
8
INTERIOR_PROFILES
10
1924.262
20
936.548
30
0
40
1.700
0
TEXT
8
PART_LABELS
10
395.500
20
995.500
30
0
40
50.000
1
2SD000-080040
72
1
73
2
11
395.500
21
995.500
31
0
0
LWPOLYLINE
8
OUTER_PROFILES
90
36
70
1
10
21.757
20
780.424
42
0.414214
10
21.757
20
781.838
10
16.262
20
787.333
10
16.262
20
791.191
10
21.757
20
796.686
42
0.414214
10
21.757
20
798.100
10
16.262
20
803.595
10
0.000
20
803.595
10
0.000
20
1187.453
10
16.262
20
1187.453
10
21.757
20
1192.948
42
0.414214
10
21.757
20
1194.362
10
16.262
20
1199.857
10
16.262
20
1203.715
10
21.757
20
1209.210
42
0.414214
10
21.757
20
1210.624
10
16.333
20
1216.048
10
774.715
20
1216.048
10
769.291
20
1210.624
42
0.414214
10
769.291
20
1209.210
10
774.786
20
1203.715
10
774.786
20
1199.857
10
769.291
20
1194.362
42
0.414214
10
769.291
20
1192.948
10
774.786
20
1187.453
10
791.048
20
1187.453
10
791.048
20
803.595
10
774.786
20
803.595
10
769.291
20
798.100
42
0.414214
10
769.291
20
796.686
10
774.786
20
791.191
10
774.786
20
787.333
10
769.291
20
781.838
42
0.414214
10
769.291
20
780.424
10
774.715
20
775.000
10
16.333
20
775.000
0
CIRCLE
8
INTERIOR_PROFILES
10
445.524
20
837.524
30
0
40
2.117
0
CIRCLE
8
INTERIOR_PROFILES
10
695.524
20
1157.524
30
0
40
2.117
0
CIRCLE
8
INTERIOR_PROFILES
10
95.524
20
837.524
30
0
40
2.117
0
CIRCLE
8
INTERIOR_PROFILES
10
245.524
20
837.524
30
0
40
2.117
0
CIRCLE
8
INTERIOR_PROFILES
10
195.524
20
837.524
30
0
40
2.117
0
CIRCLE
8
INTERIOR_PROFILES
10
145.524
20
837.524
30
0
40
2.117
0
CIRCLE
8
INTERIOR_PROFILES
10
495.524
20
1157.524
30
0
40
2.117
0
CIRCLE
8
INTERIOR_PROFILES
10
595.524
20
1157.524
30
0
40
2.117
0
CIRCLE
8
INTERIOR_PROFILES
10
345.524
20
837.524
30
0
40
2.117
0
CIRCLE
8
INTERIOR_PROFILES
10
145.524
20
1157.524
30
0
40
2.117
0
CIRCLE
8
INTERIOR_PROFILES
10
395.524
20
837.524
30
0
40
2.117
0
CIRCLE
8
INTERIOR_PROFILES
10
14.262
20
1172.274
30
0
40
6.500
0
CIRCLE
8
INTERIOR_PROFILES
10
495.524
20
837.524
30
0
40
2.117
0
CIRCLE
8
INTERIOR_PROFILES
10
295.524
20
837.524
30
0
40
2.117
0
CIRCLE
8
INTERIOR_PROFILES
10
545.524
20
837.524
30
0
40
2.117
0
CIRCLE
8
INTERIOR_PROFILES
10
395.524
20
1157.524
30
0
40
2.117
0
CIRCLE
8
INTERIOR_PROFILES
10
545.524
20
1157.524
30
0
40
2.117
0
CIRCLE
8
INTERIOR_PROFILES
10
645.524
20
837.524
30
0
40
2.117
0
CIRCLE
8
INTERIOR_PROFILES
10
14.262
20
828.524
30
0
40
1.700
0
CIRCLE
8
INTERIOR_PROFILES
10
14.262
20
809.024
30
0
40
1.700
0
CIRCLE
8
INTERIOR_PROFILES
10
14.262
20
1182.024
30
0
40
1.700
0
CIRCLE
8
INTERIOR_PROFILES
10
14.262
20
1162.524
30
0
40
1.700
0
CIRCLE
8
INTERIOR_PROFILES
10
95.524
20
1157.524
30
0
40
2.117
0
CIRCLE
8
INTERIOR_PROFILES
10
445.524
20
1157.524
30
0
40
2.117
0
CIRCLE
8
INTERIOR_PROFILES
10
645.524
20
1157.524
30
0
40
2.117
0
CIRCLE
8
INTERIOR_PROFILES
10
14.262
20
995.524
30
0
40
1.700
0
CIRCLE
8
INTERIOR_PROFILES
10
345.524
20
1157.524
30
0
40
2.117
0
CIRCLE
8
INTERIOR_PROFILES
10
245.524
20
1157.524
30
0
40
2.117
0
CIRCLE
8
INTERIOR_PROFILES
10
395.524
20
1185.524
30
0
40
1.700
0
CIRCLE
8
INTERIOR_PROFILES
10
95.524
20
789.262
30
0
40
1.700
0
CIRCLE
8
INTERIOR_PROFILES
10
495.524
20
789.262
30
0
40
1.700
0
CIRCLE
8
INTERIOR_PROFILES
10
695.524
20
1185.524
30
0
40
1.700
0
CIRCLE
8
INTERIOR_PROFILES
10
695.524
20
837.524
30
0
40
2.117
0
CIRCLE
8
INTERIOR_PROFILES
10
76.524
20
789.262
30
0
40
1.700
0
CIRCLE
8
INTERIOR_PROFILES
10
776.786
20
809.024
30
0
40
1.700
0
CIRCLE
8
INTERIOR_PROFILES
10
30.524
20
789.262
30
0
40
1.700
0
CIRCLE
8
INTERIOR_PROFILES
10
760.524
20
789.262
30
0
40
1.700
0
CIRCLE
8
INTERIOR_PROFILES
10
411.524
20
1157.524
30
0
40
1.700
0
CIRCLE
8
INTERIOR_PROFILES
10
47.524
20
805.524
30
0
40
1.700
0
CIRCLE
8
INTERIOR_PROFILES
10
379.524
20
1157.524
30
0
40
1.700
0
CIRCLE
8
INTERIOR_PROFILES
10
395.524
20
789.262
30
0
40
1.700
0
CIRCLE
8
INTERIOR_PROFILES
10
711.524
20
1157.524
30
0
40
1.700
0
CIRCLE
8
INTERIOR_PROFILES
10
776.786
20
828.524
30
0
40
1.700
0
CIRCLE
8
INTERIOR_PROFILES
10
776.786
20
1182.024
30
0
40
1.700
0
CIRCLE
8
INTERIOR_PROFILES
10
776.786
20
995.524
30
0
40
1.700
0
CIRCLE
8
INTERIOR_PROFILES
10
763.524
20
805.524
30
0
40
1.700
0
CIRCLE
8
INTERIOR_PROFILES
10
679.524
20
1157.524
30
0
40
1.700
0
CIRCLE
8
INTERIOR_PROFILES
10
595.524
20
837.524
30
0
40
2.117
0
CIRCLE
8
INTERIOR_PROFILES
10
195.524
20
1157.524
30
0
40
2.117
0
CIRCLE
8
INTERIOR_PROFILES
10
295.524
20
1157.524
30
0
40
2.117
0
CIRCLE
8
INTERIOR_PROFILES
10
95.524
20
1185.524
30
0
40
1.700
0
CIRCLE
8
INTERIOR_PROFILES
10
695.524
20
830.524
30
0
40
1.700
0
CIRCLE
8
INTERIOR_PROFILES
10
95.524
20
830.524
30
0
40
1.700
0
CIRCLE
8
INTERIOR_PROFILES
10
79.524
20
1157.524
30
0
40
1.700
0
CIRCLE
8
INTERIOR_PROFILES
10
743.524
20
805.524
30
0
40
1.700
0
CIRCLE
8
INTERIOR_PROFILES
10
395.524
20
830.524
30
0
40
1.700
0
CIRCLE
8
INTERIOR_PROFILES
10
776.786
20
1172.274
30
0
40
6.500
0
CIRCLE
8
INTERIOR_PROFILES
10
776.786
20
1162.524
30
0
40
1.700
0
CIRCLE
8
INTERIOR_PROFILES
10
27.524
20
805.524
30
0
40
1.700
0
CIRCLE
8
INTERIOR_PROFILES
10
111.524
20
1157.524
30
0
40
1.700
0
CIRCLE
8
INTERIOR_PROFILES
10
695.524
20
789.262
30
0
40
1.700
0
CIRCLE
8
INTERIOR_PROFILES
10
295.524
20
789.262
30
0
40
1.700
0
CIRCLE
8
INTERIOR_PROFILES
10
714.524
20
789.262
30
0
40
1.700
0
TEXT
8
PART_LABELS
10
2273.000
20
1086.000
30
0
40
50.000
1
DSV100-090020
72
1
73
2
11
2273.000
21
1086.000
31
0
0
LWPOLYLINE
8
OUTER_PROFILES
90
40
70
1
10
2719.453
20
1198.675
10
2717.453
20
1200.675
10
1828.595
20
1200.675
10
1826.595
20
1198.675
10
1826.074
20
1197.544
10
1825.624
20
1196.258
10
1825.624
20
1174.917
10
1826.524
20
1171.524
10
1824.262
20
1173.524
42
0.198912
10
1822.848
20
1172.938
10
1808.262
20
1158.352
10
1806.000
20
1155.453
10
1804.000
20
1153.453
10
1804.000
20
995.595
10
1806.000
20
993.595
10
1808.262
20
991.524
10
1824.262
20
991.524
10
1826.524
20
993.524
10
1825.624
20
991.262
10
1825.624
20
975.262
10
1826.595
20
973.000
10
1828.595
20
971.000
10
2717.453
20
971.000
10
2719.453
20
973.000
10
2720.424
20
975.262
10
2720.424
20
991.262
10
2719.524
20
993.524
10
2721.786
20
991.524
10
2737.786
20
991.524
10
2740.048
20
993.595
10
2742.048
20
995.595
10
2742.048
20
1153.453
10
2740.048
20
1155.453
10
2737.786
20
1158.352
10
2723.200
20
1172.938
42
0.198912
10
2721.786
20
1173.524
10
2719.524
20
1171.524
10
2720.424
20
1174.917
10
2720.424
20
1196.258
10
2719.974
20
1197.544
0
LWPOLYLINE
8
OUTER_PROFILES
90
2
70
1
10
1806.000
20
993.595
10
1806.000
20
994.231
0
TEXT
8
PART_LABELS
10
2993.000
20
508.500
30
0
40
27.000
1
TS1BHH-100000
72
1
73
2
11
2993.000
21
508.500
31
0
0
CIRCLE
8
OUTER_PROFILES
10
2992.976
20
1012.524
30
0
40
1.700
0
LWPOLYLINE
8
OUTER_PROFILES
90
4
70
1
10
2980.214
20
923.262
10
2980.214
20
996.262
10
2982.476
20
996.262
10
2982.476
20
923.262
0
LWPOLYLINE
8
OUTER_PROFILES
90
4
70
1
10
3003.476
20
996.262
10
3005.738
20
996.262
10
3005.738
20
923.262
10
3003.476
20
923.262
0
CIRCLE
8
OUTER_PROFILES
10
3034.738
20
17.262
30
0
40
1.700
0
CIRCLE
8
OUTER_PROFILES
10
3009.738
20
999.262
30
0
40
1.700
0
CIRCLE
8
OUTER_PROFILES
10
3009.738
20
17.262
30
0
40
1.700
0
CIRCLE
8
OUTER_PROFILES
10
3034.738
20
999.262
30
0
40
1.700
0
CIRCLE
8
OUTER_PROFILES
10
2992.976
20
43.262
30
0
40
1.700
0
CIRCLE
8
OUTER_PROFILES
10
2992.976
20
927.262
30
0
40
1.700
0
CIRCLE
8
OUTER_PROFILES
10
2992.976
20
999.262
30
0
40
1.700
0
CIRCLE
8
OUTER_PROFILES
10
2992.976
20
973.262
30
0
40
1.700
0
CIRCLE
8
OUTER_PROFILES
10
2992.976
20
17.262
30
0
40
1.700
0
CIRCLE
8
OUTER_PROFILES
10
2992.976
20
89.262
30
0
40
1.700
0
CIRCLE
8
OUTER_PROFILES
10
2992.976
20
499.262
30
0
40
1.700
0
CIRCLE
8
OUTER_PROFILES
10
2992.976
20
508.262
30
0
40
1.700
0
CIRCLE
8
OUTER_PROFILES
10
2992.976
20
517.262
30
0
40
1.700
0
LWPOLYLINE
8
OUTER_PROFILES
90
4
70
1
10
3005.738
20
93.262
10
3005.738
20
20.262
10
3003.476
20
20.262
10
3003.476
20
93.262
0
CIRCLE
8
OUTER_PROFILES
10
2951.214
20
999.262
30
0
40
1.700
0
CIRCLE
8
OUTER_PROFILES
10
2976.214
20
17.262
30
0
40
1.700
0
CIRCLE
8
OUTER_PROFILES
10
2976.214
20
999.262
30
0
40
1.700
0
CIRCLE
8
OUTER_PROFILES
10
2951.214
20
17.262
30
0
40
1.700
0
CIRCLE
8
OUTER_PROFILES
10
2992.976
20
4.000
30
0
40
1.700
0
LWPOLYLINE
8
OUTER_PROFILES
90
4
70
1
10
2982.476
20
20.262
10
2980.214
20
20.262
10
2980.214
20
93.262
10
2982.476
20
93.262
0
LWPOLYLINE
8
OUTER_PROFILES
90
23
70
1
10
2943.952
20
1006.262
10
2938.952
20
1006.262
10
2938.952
20
10.262
10
2943.952
20
10.262
10
2980.214
20
10.262
10
2982.476
20
10.262
10
2982.476
20
0.000
10
3003.476
20
0.000
10
3003.476
20
10.262
10
3005.738
20
10.262
10
3039.738
20
10.262
10
3042.000
20
10.262
10
3047.000
20
10.262
10
3047.000
20
1006.262
10
3042.000
20
1006.262
10
3039.738
20
1006.262
10
3005.738
20
1006.262
10
3003.476
20
1006.262
10
3003.476
20
1016.524
10
2982.476
20
1016.524
10
2982.476
20
1006.262
10
2980.214
20
1006.262
10
2946.214
20
1006.262
0
ENDSEC
0
EOF