0
SECTION
2
HEADER
9
$INSUNITS
70
4
0
ENDSEC
0
SECTION
2
ENTITIES
0
LWPOLYLINE
8
SHEET_BORDER
90
5
70
1
10
0.000
20
0.000
10
925.000
20
0.000
10
925.000
20
645.000
10
0.000
20
645.000
10
0.000
20
0.000
0
TEXT
8
PART_LABELS
10
461.500
20
242.000
30
0
40
50.000
1
2DN0DD-090000
72
1
73
2
11
461.500
21
242.000
31
0
0
LWPOLYLINE
8
OUTER_PROFILES
90
26
70
1
10
896.262
20
0.000
42
-0.414214
10
909.262
20
13.000
10
909.262
20
23.262
10
909.262
20
41.524
10
909.262
20
65.786
10
909.262
20
68.048
10
922.524
20
68.048
10
922.524
20
454.812
10
909.262
20
454.812
10
909.262
20
456.023
10
909.262
20
457.234
10
909.262
20
461.234
10
909.262
20
484.496
10
13.262
20
484.496
10
13.262
20
463.496
10
13.262
20
457.234
10
13.262
20
456.023
10
13.262
20
454.812
10
0.000
20
454.812
10
0.000
20
68.048
10
13.262
20
68.048
10
13.262
20
65.786
10
13.262
20
41.524
10
13.262
20
23.262
10
13.262
20
13.000
42
-0.414214
10
26.262
20
0.000
0
CIRCLE
8
INTERIOR_PROFILES
10
861.262
20
3.000
30
0
40
1.700
0
CIRCLE
8
INTERIOR_PROFILES
10
761.262
20
3.000
30
0
40
1.700
0
CIRCLE
8
INTERIOR_PROFILES
10
46.262
20
50.786
30
0
40
1.700
0
CIRCLE
8
INTERIOR_PROFILES
10
20.262
20
50.786
30
0
40
1.700
0
CIRCLE
8
INTERIOR_PROFILES
10
830.262
20
50.786
30
0
40
1.700
0
CIRCLE
8
INTERIOR_PROFILES
10
92.262
20
50.786
30
0
40
1.700
0
CIRCLE
8
INTERIOR_PROFILES
10
561.262
20
3.000
30
0
40
1.700
0
CIRCLE
8
INTERIOR_PROFILES
10
917.024
20
200.048
30
0
40
4.500
0
CIRCLE
8
INTERIOR_PROFILES
10
3.000
20
122.548
30
0
40
1.700
0
CIRCLE
8
INTERIOR_PROFILES
10
461.262
20
3.000
30
0
40
1.700
0
CIRCLE
8
INTERIOR_PROFILES
10
36.262
20
3.000
30
0
40
1.700
0
CIRCLE
8
INTERIOR_PROFILES
10
917.024
20
355.048
30
0
40
4.500
0
CIRCLE
8
INTERIOR_PROFILES
10
5.500
20
200.048
30
0
40
4.500
0
CIRCLE
8
INTERIOR_PROFILES
10
661.262
20
3.000
30
0
40
1.700
0
CIRCLE
8
INTERIOR_PROFILES
10
876.262
20
50.786
30
0
40
1.700
0
CIRCLE
8
INTERIOR_PROFILES
10
361.262
20
3.000
30
0
40
1.700
0
CIRCLE
8
INTERIOR_PROFILES
10
261.262
20
3.000
30
0
40
1.700
0
CIRCLE
8
INTERIOR_PROFILES
10
919.524
20
122.548
30
0
40
1.700
0
CIRCLE
8
INTERIOR_PROFILES
10
3.000
20
432.548
30
0
40
1.700
0
CIRCLE
8
INTERIOR_PROFILES
10
61.262
20
3.000
30
0
40
1.700
0
CIRCLE
8
INTERIOR_PROFILES
10
919.524
20
432.548
30
0
40
1.700
0
CIRCLE
8
INTERIOR_PROFILES
10
902.262
20
50.786
30
0
40
1.700
0
CIRCLE
8
INTERIOR_PROFILES
10
161.262
20
3.000
30
0
40
1.700
0
CIRCLE
8
INTERIOR_PROFILES
10
5.500
20
355.048
30
0
40
4.500
0
CIRCLE
8
INTERIOR_PROFILES
10
561.262
20
75.048
30
0
40
1.700
0
CIRCLE
8
INTERIOR_PROFILES
10
20.262
20
78.548
30
0
40
1.700
0
CIRCLE
8
INTERIOR_PROFILES
10
461.262
20
75.048
30
0
40
1.700
0
CIRCLE
8
INTERIOR_PROFILES
10
902.262
20
451.548
30
0
40
1.700
0
CIRCLE
8
INTERIOR_PROFILES
10
261.262
20
75.048
30
0
40
1.700
0
CIRCLE
8
INTERIOR_PROFILES
10
461.262
20
473.496
30
0
40
8.750
0
CIRCLE
8
INTERIOR_PROFILES
10
661.262
20
75.048
30
0
40
1.700
0
CIRCLE
8
INTERIOR_PROFILES
10
361.262
20
75.048
30
0
40
1.700
0
CIRCLE
8
INTERIOR_PROFILES
10
902.262
20
265.048
30
0
40
1.700
0
CIRCLE
8
INTERIOR_PROFILES
10
761.262
20
75.048
30
0
40
1.700
0
CIRCLE
8
INTERIOR_PROFILES
10
20.262
20
432.048
30
0
40
1.700
0
CIRCLE
8
INTERIOR_PROFILES
10
861.262
20
75.048
30
0
40
1.700
0
CIRCLE
8
INTERIOR_PROFILES
10
20.262
20
265.048
30
0
40
1.700
0
CIRCLE
8
INTERIOR_PROFILES
10
20.262
20
451.548
30
0
40
1.700
0
CIRCLE
8
INTERIOR_PROFILES
10
3.000
20
277.548
30
0
40
1.700
0
CIRCLE
8
INTERIOR_PROFILES
10
902.262
20
432.048
30
0
40
1.700
0
CIRCLE
8
INTERIOR_PROFILES
10
902.262
20
98.048
30
0
40
1.700
0
CIRCLE
8
INTERIOR_PROFILES
10
41.262
20
459.734
30
0
40
1.250
0
CIRCLE
8
INTERIOR_PROFILES
10
902.262
20
78.548
30
0
40
1.700
0
CIRCLE
8
INTERIOR_PROFILES
10
161.262
20
75.048
30
0
40
1.700
0
CIRCLE
8
INTERIOR_PROFILES
10
881.262
20
459.734
30
0
40
1.250
0
CIRCLE
8
INTERIOR_PROFILES
10
61.262
20
75.048
30
0
40
1.700
0
CIRCLE
8
INTERIOR_PROFILES
10
20.262
20
441.798
30
0
40
6.500
0
CIRCLE
8
INTERIOR_PROFILES
10
902.262
20
441.798
30
0
40
6.500
0
CIRCLE
8
INTERIOR_PROFILES
10
20.262
20
98.048
30
0
40
1.700
0
CIRCLE
8
INTERIOR_PROFILES
10
919.524
20
277.548
30
0
40
1.700
0
TEXT
8
PART_LABELS
10
458.500
20
540.000
30
0
40
27.000
1
TS1BHH-090000
72
1
73
2
11
458.500
21
540.000
31
0
0
CIRCLE
8
OUTER_PROFILES
10
912.524
20
540.024
30
0
40
1.700
0
LWPOLYLINE
8
OUTER_PROFILES
90
4
70
1
10
823.262
20
552.786
10
896.262
20
552.786
10
896.262
20
550.524
10
823.262
20
550.524
0
LWPOLYLINE
8
OUTER_PROFILES
90
4
70
1
10
896.262
20
529.524
10
896.262
20
527.262
10
823.262
20
527.262
10
823.262
20
529.524
0
CIRCLE
8
OUTER_PROFILES
10
17.262
20
498.262
30
0
40
1.700
0
CIRCLE
8
OUTER_PROFILES
10
899.262
20
523.262
30
0
40
1.700
0
CIRCLE
8
OUTER_PROFILES
10
17.262
20
523.262
30
0
40
1.700
0
CIRCLE
8
OUTER_PROFILES
10
899.262
20
498.262
30
0
40
1.700
0
CIRCLE
8
OUTER_PROFILES
10
43.262
20
540.024
30
0
40
1.700
0
CIRCLE
8
OUTER_PROFILES
10
827.262
20
540.024
30
0
40
1.700
0
CIRCLE
8
OUTER_PROFILES
10
899.262
20
540.024
30
0
40
1.700
0
CIRCLE
8
OUTER_PROFILES
10
873.262
20
540.024
30
0
40
1.700
0
CIRCLE
8
OUTER_PROFILES
10
17.262
20
540.024
30
0
40
1.700
0
CIRCLE
8
OUTER_PROFILES
10
89.262
20
540.024
30
0
40
1.700
0
CIRCLE
8
OUTER_PROFILES
10
449.262
20
540.024
30
0
40
1.700
0
CIRCLE
8
OUTER_PROFILES
10
458.262
20
540.024
30
0
40
1.700
0
CIRCLE
8
OUTER_PROFILES
10
467.262
20
540.024
30
0
40
1.700
0
LWPOLYLINE
8
OUTER_PROFILES
90
4
70
1
10
93.262
20
527.262
10
20.262
20
527.262
10
20.262
20
529.524
10
93.262
20
529.524
0
CIRCLE
8
OUTER_PROFILES
10
899.262
20
581.786
30
0
40
1.700
0
CIRCLE
8
OUTER_PROFILES
10
17.262
20
556.786
30
0
40
1.700
0
CIRCLE
8
OUTER_PROFILES
10
899.262
20
556.786
30
0
40
1.700
0
CIRCLE
8
OUTER_PROFILES
10
17.262
20
581.786
30
0
40
1.700
0
CIRCLE
8
OUTER_PROFILES
10
4.000
20
540.024
30
0
40
1.700
0
LWPOLYLINE
8
OUTER_PROFILES
90
4
70
1
10
20.262
20
550.524
10
20.262
20
552.786
10
93.262
20
552.786
10
93.262
20
550.524
0
LWPOLYLINE
8
OUTER_PROFILES
90
23
70
1
10
906.262
20
589.048
10
906.262
20
594.048
10
10.262
20
594.048
10
10.262
20
589.048
10
10.262
20
552.786
10
10.262
20
550.524
10
0.000
20
550.524
10
0.000
20
529.524
10
10.262
20
529.524
10
10.262
20
527.262
10
10.262
20
493.262
10
10.262
20
491.000
10
10.262
20
486.000
10
906.262
20
486.000
10
906.262
20
491.000
10
906.262
20
493.262
10
906.262
20
527.262
10
906.262
20
529.524
10
916.524
20
529.524
10
916.524
20
550.524
10
906.262
20
550.524
10
906.262
20
552.786
10
906.262
20
586.786
0
TEXT
8
PART_LABELS
10
296.000
20
611.500
30
0
40
15.000
1
CV0002-000000
72
1
73
2
11
296.000
21
611.500
31
0
0
LWPOLYLINE
8
OUTER_PROFILES
90
12
70
1
10
579.000
20
626.524
10
13.000
20
626.524
42
0.414214
10
7.000
20
620.524
10
7.000
20
618.262
42
1.000000
10
7.000
20
604.262
10
7.000
20
602.000
42
0.414214
10
13.000
20
596.000
10
579.000
20
596.000
42
0.414214
10
585.000
20
602.000
10
585.000
20
604.262
42
1.000000
10
585.000
20
618.262
10
585.000
20
620.524
42
0.414214
0
CIRCLE
8
INTERIOR_PROFILES
10
7.000
20
611.262
30
0
40
1.700
0
CIRCLE
8
INTERIOR_PROFILES
10
29.000
20
611.262
30
0
40
1.700
0
CIRCLE
8
INTERIOR_PROFILES
10
207.000
20
611.262
30
0
40
1.700
0
CIRCLE
8
INTERIOR_PROFILES
10
385.000
20
611.262
30
0
40
1.700
0
CIRCLE
8
INTERIOR_PROFILES
10
563.000
20
611.262
30
0
40
1.700
0
CIRCLE
8
INTERIOR_PROFILES
10
585.000
20
611.262
30
0
40
1.700
0
ENDSEC
0
EOF