0
SECTION
2
HEADER
9
$INSUNITS
70
4
0
ENDSEC
0
SECTION
2
ENTITIES
0
LWPOLYLINE
8
SHEET_BORDER
90
5
70
1
10
0.000
20
0.000
10
3050.000
20
0.000
10
3050.000
20
1220.000
10
0.000
20
1220.000
10
0.000
20
0.000
0
TEXT
8
PART_LABELS
10
972.000
20
360.000
30
0
40
50.000
1
BS0000-194072
72
1
73
2
11
972.000
21
360.000
31
0
0
LWPOLYLINE
8
OUTER_PROFILES
90
4
70
1
10
1944.000
20
0.000
10
1944.000
20
720.000
10
0.000
20
720.000
10
0.000
20
0.000
0
TEXT
8
PART_LABELS
10
959.500
20
929.500
30
0
40
50.000
1
2CH002-190000
72
1
73
2
11
959.500
21
929.500
31
0
0
LWPOLYLINE
8
OUTER_PROFILES
90
32
70
1
10
9.495
20
728.838
10
4.000
20
734.333
10
4.000
20
746.191
10
9.495
20
751.686
42
0.414214
10
9.495
20
753.100
10
3.954
20
758.641
42
-0.198912
10
0.000
20
768.186
10
0.000
20
1105.524
10
11.262
20
1105.524
10
11.262
20
1107.786
10
11.262
20
1117.048
10
11.262
20
1117.250
42
0.356394
10
19.262
20
1127.048
10
19.262
20
1137.048
10
1899.262
20
1137.048
10
1899.262
20
1127.048
42
0.356394
10
1907.262
20
1117.250
10
1907.262
20
1114.786
10
1907.262
20
1107.786
10
1907.262
20
1105.524
10
1918.524
20
1105.524
10
1918.524
20
768.186
42
-0.198912
10
1914.570
20
758.641
10
1909.029
20
753.100
42
0.414214
10
1909.029
20
751.686
10
1914.524
20
746.191
10
1914.524
20
734.333
10
1909.029
20
728.838
42
0.414214
10
1909.029
20
727.424
10
1914.453
20
722.000
10
4.071
20
722.000
10
9.495
20
727.424
42
0.414214
0
CIRCLE
8
INTERIOR_PROFILES
10
1409.262
20
740.262
30
0
40
5.000
0
CIRCLE
8
INTERIOR_PROFILES
10
359.262
20
1127.048
30
0
40
1.700
0
CIRCLE
8
INTERIOR_PROFILES
10
459.262
20
740.262
30
0
40
5.000
0
CIRCLE
8
INTERIOR_PROFILES
10
1879.262
20
724.500
30
0
40
1.250
0
CIRCLE
8
INTERIOR_PROFILES
10
1809.262
20
1127.048
30
0
40
1.700
0
CIRCLE
8
INTERIOR_PROFILES
10
1109.262
20
1127.048
30
0
40
1.700
0
CIRCLE
8
INTERIOR_PROFILES
10
459.262
20
1127.048
30
0
40
1.700
0
CIRCLE
8
INTERIOR_PROFILES
10
859.262
20
1127.048
30
0
40
1.700
0
CIRCLE
8
INTERIOR_PROFILES
10
759.262
20
1127.048
30
0
40
1.700
0
CIRCLE
8
INTERIOR_PROFILES
10
1609.262
20
1127.048
30
0
40
1.700
0
CIRCLE
8
INTERIOR_PROFILES
10
559.262
20
1127.048
30
0
40
1.700
0
CIRCLE
8
INTERIOR_PROFILES
10
159.262
20
1127.048
30
0
40
1.700
0
CIRCLE
8
INTERIOR_PROFILES
10
1879.262
20
1127.048
30
0
40
1.700
0
CIRCLE
8
INTERIOR_PROFILES
10
939.262
20
1127.048
30
0
40
1.700
0
CIRCLE
8
INTERIOR_PROFILES
10
1409.262
20
1127.048
30
0
40
1.700
0
CIRCLE
8
INTERIOR_PROFILES
10
1009.262
20
1127.048
30
0
40
1.700
0
CIRCLE
8
INTERIOR_PROFILES
10
659.262
20
1127.048
30
0
40
1.700
0
CIRCLE
8
INTERIOR_PROFILES
10
1509.262
20
1127.048
30
0
40
1.700
0
CIRCLE
8
INTERIOR_PROFILES
10
34.262
20
724.500
30
0
40
1.250
0
CIRCLE
8
INTERIOR_PROFILES
10
1309.262
20
1127.048
30
0
40
1.700
0
CIRCLE
8
INTERIOR_PROFILES
10
1709.262
20
1127.048
30
0
40
1.700
0
CIRCLE
8
INTERIOR_PROFILES
10
879.262
20
724.500
30
0
40
1.250
0
CIRCLE
8
INTERIOR_PROFILES
10
59.262
20
1127.048
30
0
40
1.700
0
CIRCLE
8
INTERIOR_PROFILES
10
939.262
20
724.500
30
0
40
1.250
0
CIRCLE
8
INTERIOR_PROFILES
10
1209.262
20
1127.048
30
0
40
1.700
0
CIRCLE
8
INTERIOR_PROFILES
10
259.262
20
1127.048
30
0
40
1.700
0
TEXT
8
PART_LABELS
10
2440.500
20
394.500
30
0
40
50.000
1
BK1DN1-100000
72
1
73
2
11
2440.500
21
394.500
31
0
0
LINE
8
OUTER_PROFILES
10
2919.405
20
784.048
30
0
11
2914.405
21
789.048
31
0
0
LINE
8
OUTER_PROFILES
10
2914.405
20
789.048
30
0
11
1966.547
21
789.048
31
0
0
LINE
8
OUTER_PROFILES
10
1966.547
20
789.048
30
0
11
1961.547
21
784.048
31
0
0
ARC
8
OUTER_PROFILES
10
1964.786
20
781.264
30
0
40
4.272
50
139.3224
51
172.9774
0
LINE
8
OUTER_PROFILES
10
1960.547
20
781.786
30
0
11
1960.547
21
775.786
31
0
0
ARC
8
OUTER_PROFILES
10
1964.799
20
776.314
30
0
40
4.285
50
187.0769
51
220.6233
0
LINE
8
OUTER_PROFILES
10
1961.547
20
773.524
30
0
11
1961.476
21
773.453
31
0
0
ARC
8
OUTER_PROFILES
10
1958.686
20
770.201
30
0
40
4.285
50
49.3767
51
82.9231
0
LINE
8
OUTER_PROFILES
10
1959.214
20
774.453
30
0
11
1953.214
21
774.453
31
0
0
ARC
8
OUTER_PROFILES
10
1953.736
20
770.214
30
0
40
4.272
50
97.0226
51
130.6776
0
LINE
8
OUTER_PROFILES
10
1950.952
20
773.453
30
0
11
1945.952
21
768.453
31
0
0
LINE
8
OUTER_PROFILES
10
1945.952
20
768.453
30
0
11
1945.952
21
20.595
31
0
0
LINE
8
OUTER_PROFILES
10
1945.952
20
20.595
30
0
11
1950.952
21
15.595
31
0
0
ARC
8
OUTER_PROFILES
10
1953.736
20
18.834
30
0
40
4.272
50
229.3224
51
262.9774
0
LINE
8
OUTER_PROFILES
10
1953.214
20
14.595
30
0
11
1959.214
21
14.595
31
0
0
ARC
8
OUTER_PROFILES
10
1958.686
20
18.847
30
0
40
4.285
50
277.0769
51
310.6233
0
LINE
8
OUTER_PROFILES
10
1961.476
20
15.595
30
0
11
1961.547
21
15.524
31
0
0
ARC
8
OUTER_PROFILES
10
1964.799
20
12.734
30
0
40
4.285
50
139.3767
51
172.9231
0
LINE
8
OUTER_PROFILES
10
1960.547
20
13.262
30
0
11
1960.547
21
7.262
31
0
0
ARC
8
OUTER_PROFILES
10
1964.786
20
7.784
30
0
40
4.272
50
187.0226
51
220.6776
0
LINE
8
OUTER_PROFILES
10
1961.547
20
5.000
30
0
11
1966.547
21
0.000
31
0
0
LINE
8
OUTER_PROFILES
10
1966.547
20
0.000
30
0
11
2914.405
21
0.000
31
0
0
LINE
8
OUTER_PROFILES
10
2914.405
20
0.000
30
0
11
2919.405
21
5.000
31
0
0
ARC
8
OUTER_PROFILES
10
2916.166
20
7.784
30
0
40
4.272
50
319.3224
51
352.9774
0
LINE
8
OUTER_PROFILES
10
2920.405
20
7.262
30
0
11
2920.405
21
13.262
31
0
0
ARC
8
OUTER_PROFILES
10
2916.153
20
12.734
30
0
40
4.285
50
7.0769
51
40.6233
0
LINE
8
OUTER_PROFILES
10
2919.405
20
15.524
30
0
11
2919.476
21
15.595
31
0
0
ARC
8
OUTER_PROFILES
10
2922.266
20
18.847
30
0
40
4.285
50
229.3767
51
262.9231
0
LINE
8
OUTER_PROFILES
10
2921.738
20
14.595
30
0
11
2927.738
21
14.595
31
0
0
ARC
8
OUTER_PROFILES
10
2927.216
20
18.834
30
0
40
4.272
50
277.0226
51
310.6776
0
LINE
8
OUTER_PROFILES
10
2930.000
20
15.595
30
0
11
2935.000
21
20.595
31
0
0
LINE
8
OUTER_PROFILES
10
2935.000
20
20.595
30
0
11
2935.000
21
768.453
31
0
0
LINE
8
OUTER_PROFILES
10
2935.000
20
768.453
30
0
11
2930.000
21
773.453
31
0
0
ARC
8
OUTER_PROFILES
10
2927.216
20
770.214
30
0
40
4.272
50
49.3224
51
82.9774
0
LINE
8
OUTER_PROFILES
10
2927.738
20
774.453
30
0
11
2921.738
21
774.453
31
0
0
ARC
8
OUTER_PROFILES
10
2922.266
20
770.201
30
0
40
4.285
50
97.0769
51
130.6233
0
LINE
8
OUTER_PROFILES
10
2919.476
20
773.453
30
0
11
2919.405
21
773.524
31
0
0
ARC
8
OUTER_PROFILES
10
2916.153
20
776.314
30
0
40
4.285
50
319.3767
51
352.9231
0
LINE
8
OUTER_PROFILES
10
2920.405
20
775.786
30
0
11
2920.405
21
781.786
31
0
0
ARC
8
OUTER_PROFILES
10
2916.166
20
781.264
30
0
40
4.272
50
7.0226
51
40.6776
0
TEXT
8
PART_LABELS
10
2427.500
20
1002.000
30
0
40
50.000
1
2CTN00-100000
72
1
73
2
11
2427.500
21
1002.000
31
0
0
LWPOLYLINE
8
OUTER_PROFILES
90
30
70
1
10
1927.495
20
819.100
10
1925.000
20
821.595
10
1921.000
20
821.595
10
1921.000
20
1181.524
10
1927.000
20
1181.524
10
1929.262
20
1181.524
10
1929.262
20
1193.048
42
0.414214
10
1939.262
20
1203.048
10
1939.262
20
1213.048
10
2915.262
20
1213.048
10
2915.262
20
1203.048
42
0.414214
10
2925.262
20
1193.048
10
2925.262
20
1181.524
10
2927.524
20
1181.524
10
2933.524
20
1181.524
10
2933.524
20
821.595
10
2929.524
20
821.595
10
2927.029
20
819.100
42
0.414214
10
2927.029
20
817.686
10
2929.524
20
815.191
10
2929.524
20
797.333
10
2927.029
20
794.838
42
0.414214
10
2927.029
20
793.424
10
2929.453
20
791.000
10
1925.071
20
791.000
10
1927.495
20
793.424
42
0.414214
10
1927.495
20
794.838
10
1925.000
20
797.333
10
1925.000
20
815.191
10
1927.495
20
817.686
42
0.414214
0
CIRCLE
8
INTERIOR_PROFILES
10
2427.262
20
1203.048
30
0
40
1.700
0
CIRCLE
8
INTERIOR_PROFILES
10
2727.262
20
1203.048
30
0
40
1.700
0
CIRCLE
8
INTERIOR_PROFILES
10
2227.262
20
1203.048
30
0
40
1.700
0
CIRCLE
8
INTERIOR_PROFILES
10
2027.262
20
1203.048
30
0
40
1.700
0
CIRCLE
8
INTERIOR_PROFILES
10
2827.262
20
1203.048
30
0
40
1.700
0
CIRCLE
8
INTERIOR_PROFILES
10
2627.262
20
1203.048
30
0
40
1.700
0
CIRCLE
8
INTERIOR_PROFILES
10
2627.262
20
825.524
30
0
40
1.700
0
CIRCLE
8
INTERIOR_PROFILES
10
2527.262
20
825.524
30
0
40
1.700
0
CIRCLE
8
INTERIOR_PROFILES
10
2327.262
20
1203.048
30
0
40
1.700
0
CIRCLE
8
INTERIOR_PROFILES
10
2527.262
20
1203.048
30
0
40
1.700
0
CIRCLE
8
INTERIOR_PROFILES
10
2327.262
20
825.524
30
0
40
1.700
0
CIRCLE
8
INTERIOR_PROFILES
10
2127.262
20
825.524
30
0
40
1.700
0
CIRCLE
8
INTERIOR_PROFILES
10
2427.262
20
825.524
30
0
40
1.700
0
CIRCLE
8
INTERIOR_PROFILES
10
2127.262
20
1203.048
30
0
40
1.700
0
CIRCLE
8
INTERIOR_PROFILES
10
2827.262
20
825.524
30
0
40
1.700
0
CIRCLE
8
INTERIOR_PROFILES
10
2727.262
20
825.524
30
0
40
1.700
0
CIRCLE
8
INTERIOR_PROFILES
10
2027.262
20
825.524
30
0
40
1.700
0
CIRCLE
8
INTERIOR_PROFILES
10
2227.262
20
825.524
30
0
40
1.700
0
TEXT
8
PART_LABELS
10
2991.000
20
508.500
30
0
40
27.000
1
TS1BHH-100000
72
1
73
2
11
2991.000
21
508.500
31
0
0
CIRCLE
8
OUTER_PROFILES
10
2990.976
20
1012.524
30
0
40
1.700
0
LWPOLYLINE
8
OUTER_PROFILES
90
4
70
1
10
2978.214
20
923.262
10
2978.214
20
996.262
10
2980.476
20
996.262
10
2980.476
20
923.262
0
LWPOLYLINE
8
OUTER_PROFILES
90
4
70
1
10
3001.476
20
996.262
10
3003.738
20
996.262
10
3003.738
20
923.262
10
3001.476
20
923.262
0
CIRCLE
8
OUTER_PROFILES
10
3032.738
20
17.262
30
0
40
1.700
0
CIRCLE
8
OUTER_PROFILES
10
3007.738
20
999.262
30
0
40
1.700
0
CIRCLE
8
OUTER_PROFILES
10
3007.738
20
17.262
30
0
40
1.700
0
CIRCLE
8
OUTER_PROFILES
10
3032.738
20
999.262
30
0
40
1.700
0
CIRCLE
8
OUTER_PROFILES
10
2990.976
20
43.262
30
0
40
1.700
0
CIRCLE
8
OUTER_PROFILES
10
2990.976
20
927.262
30
0
40
1.700
0
CIRCLE
8
OUTER_PROFILES
10
2990.976
20
999.262
30
0
40
1.700
0
CIRCLE
8
OUTER_PROFILES
10
2990.976
20
973.262
30
0
40
1.700
0
CIRCLE
8
OUTER_PROFILES
10
2990.976
20
17.262
30
0
40
1.700
0
CIRCLE
8
OUTER_PROFILES
10
2990.976
20
89.262
30
0
40
1.700
0
CIRCLE
8
OUTER_PROFILES
10
2990.976
20
499.262
30
0
40
1.700
0
CIRCLE
8
OUTER_PROFILES
10
2990.976
20
508.262
30
0
40
1.700
0
CIRCLE
8
OUTER_PROFILES
10
2990.976
20
517.262
30
0
40
1.700
0
LWPOLYLINE
8
OUTER_PROFILES
90
4
70
1
10
3003.738
20
93.262
10
3003.738
20
20.262
10
3001.476
20
20.262
10
3001.476
20
93.262
0
CIRCLE
8
OUTER_PROFILES
10
2949.214
20
999.262
30
0
40
1.700
0
CIRCLE
8
OUTER_PROFILES
10
2974.214
20
17.262
30
0
40
1.700
0
CIRCLE
8
OUTER_PROFILES
10
2974.214
20
999.262
30
0
40
1.700
0
CIRCLE
8
OUTER_PROFILES
10
2949.214
20
17.262
30
0
40
1.700
0
CIRCLE
8
OUTER_PROFILES
10
2990.976
20
4.000
30
0
40
1.700
0
LWPOLYLINE
8
OUTER_PROFILES
90
4
70
1
10
2980.476
20
20.262
10
2978.214
20
20.262
10
2978.214
20
93.262
10
2980.476
20
93.262
0
LWPOLYLINE
8
OUTER_PROFILES
90
23
70
1
10
2941.952
20
1006.262
10
2936.952
20
1006.262
10
2936.952
20
10.262
10
2941.952
20
10.262
10
2978.214
20
10.262
10
2980.476
20
10.262
10
2980.476
20
0.000
10
3001.476
20
0.000
10
3001.476
20
10.262
10
3003.738
20
10.262
10
3037.738
20
10.262
10
3040.000
20
10.262
10
3045.000
20
10.262
10
3045.000
20
1006.262
10
3040.000
20
1006.262
10
3037.738
20
1006.262
10
3003.738
20
1006.262
10
3001.476
20
1006.262
10
3001.476
20
1016.524
10
2980.476
20
1016.524
10
2980.476
20
1006.262
10
2978.214
20
1006.262
10
2944.214
20
1006.262
0
ENDSEC
0
EOF