0
SECTION
2
HEADER
9
$INSUNITS
70
4
0
ENDSEC
0
SECTION
2
ENTITIES
0
LWPOLYLINE
8
SHEET_BORDER
90
5
70
1
10
0.000
20
0.000
10
1200.000
20
0.000
10
1200.000
20
140.000
10
0.000
20
140.000
10
0.000
20
0.000
0
TEXT
8
PART_LABELS
10
498.000
20
61.500
30
0
40
30.750
1
FN2BLA-100000
72
1
73
2
11
498.000
21
61.500
31
0
0
LINE
8
OUTER_PROFILES
10
649.000
20
88.024
30
0
11
648.000
21
88.024
31
0
0
LINE
8
OUTER_PROFILES
10
648.000
20
88.024
30
0
11
648.000
21
120.786
31
0
0
ARC
8
OUTER_PROFILES
10
646.000
20
120.786
30
0
40
2.000
50
0.0000
51
90.0000
0
LINE
8
OUTER_PROFILES
10
646.000
20
122.786
30
0
11
350.000
21
122.786
31
0
0
ARC
8
OUTER_PROFILES
10
350.000
20
120.786
30
0
40
2.000
50
90.0000
51
180.0000
0
LINE
8
OUTER_PROFILES
10
348.000
20
120.786
30
0
11
348.000
21
88.024
31
0
0
LINE
8
OUTER_PROFILES
10
348.000
20
88.024
30
0
11
347.000
21
88.024
31
0
0
LINE
8
OUTER_PROFILES
10
347.000
20
88.024
30
0
11
347.000
21
121.048
31
0
0
ARC
8
OUTER_PROFILES
10
345.000
20
121.048
30
0
40
2.000
50
0.0000
51
90.0000
0
LINE
8
OUTER_PROFILES
10
345.000
20
123.048
30
0
11
2.000
21
123.048
31
0
0
ARC
8
OUTER_PROFILES
10
2.000
20
121.048
30
0
40
2.000
50
90.0000
51
180.0000
0
LINE
8
OUTER_PROFILES
10
0.000
20
121.048
30
0
11
0.000
21
109.048
31
0
0
ARC
8
OUTER_PROFILES
10
2.545
20
109.048
30
0
40
2.544
50
180.0000
51
257.3733
0
ARC
8
OUTER_PROFILES
10
-6.295
20
91.230
30
0
40
18.301
50
358.6095
51
42.2344
0
ARC
8
OUTER_PROFILES
10
-0.539
20
96.091
30
0
40
10.775
50
43.6733
51
76.4369
0
LINE
8
OUTER_PROFILES
10
12.000
20
90.786
30
0
11
12.000
21
32.262
31
0
0
ARC
8
OUTER_PROFILES
10
-1.162
20
28.159
30
0
40
12.093
50
285.0973
51
333.9506
0
ARC
8
OUTER_PROFILES
10
-7.789
20
32.103
30
0
40
19.790
50
332.1175
51
0.4598
0
ARC
8
OUTER_PROFILES
10
2.545
20
14.000
30
0
40
2.545
50
102.6267
51
180.0000
0
LINE
8
OUTER_PROFILES
10
0.000
20
14.000
30
0
11
0.000
21
2.000
31
0
0
ARC
8
OUTER_PROFILES
10
2.000
20
2.000
30
0
40
2.000
50
180.0000
51
270.0000
0
LINE
8
OUTER_PROFILES
10
2.000
20
0.000
30
0
11
994.000
21
0.000
31
0
0
ARC
8
OUTER_PROFILES
10
994.000
20
2.000
30
0
40
2.000
50
270.0000
51
0.0000
0
LINE
8
OUTER_PROFILES
10
996.000
20
2.000
30
0
11
996.000
21
14.000
31
0
0
ARC
8
OUTER_PROFILES
10
993.456
20
14.000
30
0
40
2.545
50
0.0000
51
77.3733
0
ARC
8
OUTER_PROFILES
10
1002.295
20
31.818
30
0
40
18.301
50
178.6095
51
222.2344
0
ARC
8
OUTER_PROFILES
10
996.539
20
26.957
30
0
40
10.775
50
223.6733
51
256.4369
0
LINE
8
OUTER_PROFILES
10
984.000
20
32.262
30
0
11
984.000
21
90.786
31
0
0
ARC
8
OUTER_PROFILES
10
997.162
20
94.889
30
0
40
12.093
50
105.0973
51
153.9506
0
ARC
8
OUTER_PROFILES
10
1003.789
20
90.945
30
0
40
19.790
50
152.1175
51
180.4598
0
ARC
8
OUTER_PROFILES
10
993.456
20
109.048
30
0
40
2.545
50
282.6267
51
0.0000
0
LINE
8
OUTER_PROFILES
10
996.000
20
109.048
30
0
11
996.000
21
121.048
31
0
0
ARC
8
OUTER_PROFILES
10
994.000
20
121.048
30
0
40
2.000
50
0.0000
51
90.0000
0
LINE
8
OUTER_PROFILES
10
994.000
20
123.048
30
0
11
651.000
21
123.048
31
0
0
ARC
8
OUTER_PROFILES
10
651.000
20
121.048
30
0
40
2.000
50
90.0000
51
180.0000
0
LINE
8
OUTER_PROFILES
10
649.000
20
121.048
30
0
11
649.000
21
88.024
31
0
0
CIRCLE
8
INTERIOR_PROFILES
10
931.373
20
61.524
30
0
40
1.700
0
CIRCLE
8
INTERIOR_PROFILES
10
976.628
20
61.524
30
0
40
1.700
0
CIRCLE
8
INTERIOR_PROFILES
10
942.686
20
81.120
30
0
40
1.700
0
CIRCLE
8
INTERIOR_PROFILES
10
942.686
20
41.928
30
0
40
1.700
0
CIRCLE
8
INTERIOR_PROFILES
10
73.000
20
26.262
30
0
40
1.700
0
CIRCLE
8
INTERIOR_PROFILES
10
923.000
20
26.262
30
0
40
1.700
0
CIRCLE
8
INTERIOR_PROFILES
10
923.000
20
96.786
30
0
40
1.700
0
CIRCLE
8
INTERIOR_PROFILES
10
498.000
20
26.262
30
0
40
1.700
0
CIRCLE
8
INTERIOR_PROFILES
10
573.000
20
26.262
30
0
40
1.700
0
CIRCLE
8
INTERIOR_PROFILES
10
73.000
20
96.786
30
0
40
1.700
0
CIRCLE
8
INTERIOR_PROFILES
10
423.000
20
26.262
30
0
40
1.700
0
CIRCLE
8
INTERIOR_PROFILES
10
989.000
20
120.048
30
0
40
1.700
0
CIRCLE
8
INTERIOR_PROFILES
10
989.000
20
3.000
30
0
40
1.700
0
CIRCLE
8
INTERIOR_PROFILES
10
7.000
20
3.000
30
0
40
1.700
0
CIRCLE
8
INTERIOR_PROFILES
10
7.000
20
120.048
30
0
40
1.700
0
CIRCLE
8
INTERIOR_PROFILES
10
286.686
20
81.120
30
0
40
1.700
0
CIRCLE
8
INTERIOR_PROFILES
10
298.000
20
38.896
30
0
40
1.700
0
CIRCLE
8
INTERIOR_PROFILES
10
709.314
20
41.928
30
0
40
1.700
0
CIRCLE
8
INTERIOR_PROFILES
10
309.314
20
41.928
30
0
40
1.700
0
CIRCLE
8
INTERIOR_PROFILES
10
275.373
20
61.524
30
0
40
1.700
0
CIRCLE
8
INTERIOR_PROFILES
10
320.628
20
61.524
30
0
40
1.700
0
CIRCLE
8
INTERIOR_PROFILES
10
720.628
20
61.524
30
0
40
1.700
0
CIRCLE
8
INTERIOR_PROFILES
10
309.314
20
81.120
30
0
40
1.700
0
CIRCLE
8
INTERIOR_PROFILES
10
698.000
20
38.896
30
0
40
1.700
0
CIRCLE
8
INTERIOR_PROFILES
10
298.000
20
84.151
30
0
40
1.700
0
CIRCLE
8
INTERIOR_PROFILES
10
286.686
20
41.928
30
0
40
1.700
0
CIRCLE
8
INTERIOR_PROFILES
10
686.686
20
81.120
30
0
40
1.700
0
CIRCLE
8
INTERIOR_PROFILES
10
30.686
20
41.928
30
0
40
1.700
0
CIRCLE
8
INTERIOR_PROFILES
10
42.000
20
61.524
30
0
40
1.700
0
CIRCLE
8
INTERIOR_PROFILES
10
965.314
20
81.120
30
0
40
1.700
0
CIRCLE
8
INTERIOR_PROFILES
10
64.628
20
61.524
30
0
40
1.700
0
CIRCLE
8
INTERIOR_PROFILES
10
965.314
20
41.928
30
0
40
1.700
0
CIRCLE
8
INTERIOR_PROFILES
10
53.314
20
81.120
30
0
40
1.700
0
CIRCLE
8
INTERIOR_PROFILES
10
53.314
20
41.928
30
0
40
1.700
0
CIRCLE
8
INTERIOR_PROFILES
10
30.686
20
81.120
30
0
40
1.700
0
CIRCLE
8
INTERIOR_PROFILES
10
42.000
20
38.896
30
0
40
1.700
0
CIRCLE
8
INTERIOR_PROFILES
10
19.373
20
61.524
30
0
40
1.700
0
CIRCLE
8
INTERIOR_PROFILES
10
42.000
20
84.151
30
0
40
1.700
0
CIRCLE
8
INTERIOR_PROFILES
10
686.686
20
41.928
30
0
40
1.700
0
CIRCLE
8
INTERIOR_PROFILES
10
709.314
20
81.120
30
0
40
1.700
0
CIRCLE
8
INTERIOR_PROFILES
10
954.000
20
38.896
30
0
40
1.700
0
CIRCLE
8
INTERIOR_PROFILES
10
954.000
20
84.151
30
0
40
1.700
0
CIRCLE
8
INTERIOR_PROFILES
10
675.373
20
61.524
30
0
40
1.700
0
CIRCLE
8
INTERIOR_PROFILES
10
698.000
20
84.151
30
0
40
1.700
0
ENDSEC
0
EOF