0
SECTION
2
HEADER
9
$INSUNITS
70
4
0
ENDSEC
0
SECTION
2
ENTITIES
0
LWPOLYLINE
8
SHEET_BORDER
90
5
70
1
10
0.000
20
0.000
10
3050.000
20
0.000
10
3050.000
20
1220.000
10
0.000
20
1220.000
10
0.000
20
0.000
0
TEXT
8
PART_LABELS
10
403.500
20
918.000
30
0
40
50.000
1
SD00NA-080000
72
1
73
2
11
403.500
21
918.000
31
0
0
LINE
8
OUTER_PROFILES
10
21.262
20
1219.786
30
0
11
23.524
21
1219.786
31
0
0
LINE
8
OUTER_PROFILES
10
23.524
20
1219.786
30
0
11
783.524
21
1219.786
31
0
0
LINE
8
OUTER_PROFILES
10
783.524
20
1219.786
30
0
11
785.786
21
1219.786
31
0
0
LINE
8
OUTER_PROFILES
10
785.786
20
1219.786
30
0
11
790.715
21
1219.786
31
0
0
LINE
8
OUTER_PROFILES
10
790.715
20
1219.786
30
0
11
785.786
21
1214.857
31
0
0
LINE
8
OUTER_PROFILES
10
785.786
20
1214.857
30
0
11
783.524
21
1214.786
31
0
0
LINE
8
OUTER_PROFILES
10
783.524
20
1214.786
30
0
11
783.524
21
1212.524
31
0
0
LINE
8
OUTER_PROFILES
10
783.524
20
1212.524
30
0
11
785.786
21
1212.453
31
0
0
LINE
8
OUTER_PROFILES
10
785.786
20
1212.453
30
0
11
790.786
21
1207.453
31
0
0
LINE
8
OUTER_PROFILES
10
790.786
20
1207.453
30
0
11
790.786
21
1203.595
31
0
0
LINE
8
OUTER_PROFILES
10
790.786
20
1203.595
30
0
11
785.786
21
1198.595
31
0
0
ARC
8
OUTER_PROFILES
10
34465.619
20
-1076213.643
30
0
40
1077938.524
50
91.7905
51
91.7906
0
LINE
8
OUTER_PROFILES
10
783.524
20
1198.524
30
0
11
783.524
21
1196.262
31
0
0
ARC
8
OUTER_PROFILES
10
6783.550
20
193093.419
30
0
40
191990.935
50
268.2091
51
268.2098
0
LINE
8
OUTER_PROFILES
10
785.786
20
1196.191
30
0
11
790.815
21
1191.162
31
0
0
LINE
8
OUTER_PROFILES
10
790.815
20
1191.162
30
0
11
799.786
21
1191.162
31
0
0
LINE
8
OUTER_PROFILES
10
799.786
20
1191.162
30
0
11
802.048
21
1191.162
31
0
0
LINE
8
OUTER_PROFILES
10
802.048
20
1191.162
30
0
11
807.048
21
1191.162
31
0
0
LINE
8
OUTER_PROFILES
10
807.048
20
1191.162
30
0
11
807.048
21
630.262
31
0
0
LINE
8
OUTER_PROFILES
10
807.048
20
630.262
30
0
11
785.786
21
630.262
31
0
0
LINE
8
OUTER_PROFILES
10
785.786
20
630.262
30
0
11
785.786
21
632.262
31
0
0
LINE
8
OUTER_PROFILES
10
785.786
20
632.262
30
0
11
783.524
21
632.262
31
0
0
LINE
8
OUTER_PROFILES
10
783.524
20
632.262
30
0
11
783.524
21
630.000
31
0
0
LINE
8
OUTER_PROFILES
10
783.524
20
630.000
30
0
11
783.524
21
616.000
31
0
0
LINE
8
OUTER_PROFILES
10
783.524
20
616.000
30
0
11
23.524
21
616.000
31
0
0
LINE
8
OUTER_PROFILES
10
23.524
20
616.000
30
0
11
23.524
21
630.000
31
0
0
LINE
8
OUTER_PROFILES
10
23.524
20
630.000
30
0
11
23.524
21
632.262
31
0
0
LINE
8
OUTER_PROFILES
10
23.524
20
632.262
30
0
11
21.262
21
632.262
31
0
0
LINE
8
OUTER_PROFILES
10
21.262
20
632.262
30
0
11
21.262
21
630.262
31
0
0
LINE
8
OUTER_PROFILES
10
21.262
20
630.262
30
0
11
0.000
21
630.262
31
0
0
LINE
8
OUTER_PROFILES
10
0.000
20
630.262
30
0
11
0.000
21
1191.162
31
0
0
LINE
8
OUTER_PROFILES
10
0.000
20
1191.162
30
0
11
5.000
21
1191.162
31
0
0
LINE
8
OUTER_PROFILES
10
5.000
20
1191.162
30
0
11
7.262
21
1191.162
31
0
0
LINE
8
OUTER_PROFILES
10
7.262
20
1191.162
30
0
11
16.233
21
1191.162
31
0
0
LINE
8
OUTER_PROFILES
10
16.233
20
1191.162
30
0
11
21.262
21
1196.191
31
0
0
ARC
8
OUTER_PROFILES
10
-5857.184
20
189276.596
30
0
40
188172.247
50
271.7902
51
271.7909
0
LINE
8
OUTER_PROFILES
10
23.524
20
1196.262
30
0
11
23.524
21
1198.524
31
0
0
LINE
8
OUTER_PROFILES
10
23.524
20
1198.524
30
0
11
21.262
21
1198.595
31
0
0
LINE
8
OUTER_PROFILES
10
21.262
20
1198.595
30
0
11
16.262
21
1203.595
31
0
0
LINE
8
OUTER_PROFILES
10
16.262
20
1203.595
30
0
11
16.262
21
1207.453
31
0
0
LINE
8
OUTER_PROFILES
10
16.262
20
1207.453
30
0
11
21.262
21
1212.453
31
0
0
LINE
8
OUTER_PROFILES
10
21.262
20
1212.453
30
0
11
23.524
21
1212.524
31
0
0
LINE
8
OUTER_PROFILES
10
23.524
20
1212.524
30
0
11
23.524
21
1214.786
31
0
0
LINE
8
OUTER_PROFILES
10
23.524
20
1214.786
30
0
11
21.262
21
1214.857
31
0
0
LINE
8
OUTER_PROFILES
10
21.262
20
1214.857
30
0
11
16.333
21
1219.786
31
0
0
LINE
8
OUTER_PROFILES
10
16.333
20
1219.786
30
0
11
21.262
21
1219.786
31
0
0
CIRCLE
8
INTERIOR_PROFILES
10
703.524
20
1216.786
30
0
40
1.700
0
CIRCLE
8
INTERIOR_PROFILES
10
303.524
20
1216.786
30
0
40
1.700
0
CIRCLE
8
INTERIOR_PROFILES
10
503.524
20
1216.786
30
0
40
1.700
0
CIRCLE
8
INTERIOR_PROFILES
10
55.524
20
649.262
30
0
40
1.700
0
CIRCLE
8
INTERIOR_PROFILES
10
751.524
20
649.262
30
0
40
1.700
0
CIRCLE
8
INTERIOR_PROFILES
10
792.786
20
888.262
30
0
40
3.250
0
CIRCLE
8
INTERIOR_PROFILES
10
792.786
20
989.262
30
0
40
1.700
0
CIRCLE
8
INTERIOR_PROFILES
10
792.786
20
643.262
30
0
40
3.250
0
CIRCLE
8
INTERIOR_PROFILES
10
103.524
20
1216.786
30
0
40
1.700
0
CIRCLE
8
INTERIOR_PROFILES
10
792.786
20
1143.262
30
0
40
3.250
0
CIRCLE
8
INTERIOR_PROFILES
10
792.786
20
1111.262
30
0
40
3.250
0
CIRCLE
8
INTERIOR_PROFILES
10
792.786
20
920.262
30
0
40
3.250
0
CIRCLE
8
INTERIOR_PROFILES
10
792.786
20
675.262
30
0
40
3.250
0
CIRCLE
8
INTERIOR_PROFILES
10
792.786
20
811.262
30
0
40
1.700
0
CIRCLE
8
INTERIOR_PROFILES
10
403.524
20
1216.786
30
0
40
1.700
0
CIRCLE
8
INTERIOR_PROFILES
10
73.524
20
635.262
30
0
40
1.700
0
CIRCLE
8
INTERIOR_PROFILES
10
792.786
20
1127.262
30
0
40
6.500
0
CIRCLE
8
INTERIOR_PROFILES
10
792.786
20
633.262
30
0
40
1.700
0
CIRCLE
8
INTERIOR_PROFILES
10
792.786
20
1167.262
30
0
40
1.700
0
CIRCLE
8
INTERIOR_PROFILES
10
603.524
20
1216.786
30
0
40
1.700
0
CIRCLE
8
INTERIOR_PROFILES
10
733.524
20
635.262
30
0
40
1.700
0
CIRCLE
8
INTERIOR_PROFILES
10
792.786
20
770.762
30
0
40
6.500
0
CIRCLE
8
INTERIOR_PROFILES
10
792.786
20
1189.262
30
0
40
1.700
0
CIRCLE
8
INTERIOR_PROFILES
10
792.786
20
942.262
30
0
40
6.500
0
CIRCLE
8
INTERIOR_PROFILES
10
14.262
20
1111.262
30
0
40
3.250
0
CIRCLE
8
INTERIOR_PROFILES
10
14.262
20
675.262
30
0
40
3.250
0
CIRCLE
8
INTERIOR_PROFILES
10
119.524
20
713.262
30
0
40
1.700
0
CIRCLE
8
INTERIOR_PROFILES
10
119.524
20
681.262
30
0
40
1.700
0
CIRCLE
8
INTERIOR_PROFILES
10
687.524
20
745.262
30
0
40
1.700
0
CIRCLE
8
INTERIOR_PROFILES
10
687.524
20
809.262
30
0
40
1.700
0
CIRCLE
8
INTERIOR_PROFILES
10
14.262
20
920.262
30
0
40
3.250
0
CIRCLE
8
INTERIOR_PROFILES
10
14.262
20
1189.262
30
0
40
1.700
0
CIRCLE
8
INTERIOR_PROFILES
10
687.524
20
1129.262
30
0
40
1.700
0
CIRCLE
8
INTERIOR_PROFILES
10
687.524
20
905.262
30
0
40
1.700
0
CIRCLE
8
INTERIOR_PROFILES
10
687.524
20
777.262
30
0
40
1.700
0
CIRCLE
8
INTERIOR_PROFILES
10
119.524
20
1129.262
30
0
40
1.700
0
CIRCLE
8
INTERIOR_PROFILES
10
687.524
20
937.262
30
0
40
1.700
0
CIRCLE
8
INTERIOR_PROFILES
10
14.262
20
888.262
30
0
40
3.250
0
CIRCLE
8
INTERIOR_PROFILES
10
14.262
20
770.762
30
0
40
6.500
0
CIRCLE
8
INTERIOR_PROFILES
10
14.262
20
811.262
30
0
40
1.700
0
CIRCLE
8
INTERIOR_PROFILES
10
14.262
20
942.262
30
0
40
6.500
0
CIRCLE
8
INTERIOR_PROFILES
10
14.262
20
633.262
30
0
40
1.700
0
CIRCLE
8
INTERIOR_PROFILES
10
14.262
20
989.262
30
0
40
1.700
0
CIRCLE
8
INTERIOR_PROFILES
10
14.262
20
1167.262
30
0
40
1.700
0
CIRCLE
8
INTERIOR_PROFILES
10
14.262
20
1143.262
30
0
40
3.250
0
CIRCLE
8
INTERIOR_PROFILES
10
119.524
20
1033.262
30
0
40
1.700
0
CIRCLE
8
INTERIOR_PROFILES
10
687.524
20
681.262
30
0
40
1.700
0
CIRCLE
8
INTERIOR_PROFILES
10
119.524
20
1097.262
30
0
40
1.700
0
CIRCLE
8
INTERIOR_PROFILES
10
119.524
20
905.262
30
0
40
1.700
0
CIRCLE
8
INTERIOR_PROFILES
10
119.524
20
809.262
30
0
40
1.700
0
CIRCLE
8
INTERIOR_PROFILES
10
119.524
20
649.262
30
0
40
1.700
0
CIRCLE
8
INTERIOR_PROFILES
10
14.262
20
643.262
30
0
40
3.250
0
CIRCLE
8
INTERIOR_PROFILES
10
14.262
20
1127.262
30
0
40
6.500
0
CIRCLE
8
INTERIOR_PROFILES
10
687.524
20
1065.262
30
0
40
1.700
0
CIRCLE
8
INTERIOR_PROFILES
10
687.524
20
649.262
30
0
40
1.700
0
CIRCLE
8
INTERIOR_PROFILES
10
551.524
20
809.262
30
0
40
1.700
0
CIRCLE
8
INTERIOR_PROFILES
10
119.524
20
937.262
30
0
40
1.700
0
CIRCLE
8
INTERIOR_PROFILES
10
255.524
20
1065.262
30
0
40
1.700
0
CIRCLE
8
INTERIOR_PROFILES
10
255.524
20
937.262
30
0
40
1.700
0
CIRCLE
8
INTERIOR_PROFILES
10
551.524
20
1033.262
30
0
40
1.700
0
CIRCLE
8
INTERIOR_PROFILES
10
551.524
20
905.262
30
0
40
1.700
0
CIRCLE
8
INTERIOR_PROFILES
10
255.524
20
681.262
30
0
40
1.700
0
CIRCLE
8
INTERIOR_PROFILES
10
551.524
20
873.262
30
0
40
1.700
0
CIRCLE
8
INTERIOR_PROFILES
10
255.524
20
1097.262
30
0
40
1.700
0
CIRCLE
8
INTERIOR_PROFILES
10
551.524
20
937.262
30
0
40
1.700
0
CIRCLE
8
INTERIOR_PROFILES
10
687.524
20
1033.262
30
0
40
1.700
0
CIRCLE
8
INTERIOR_PROFILES
10
687.524
20
841.262
30
0
40
1.700
0
CIRCLE
8
INTERIOR_PROFILES
10
687.524
20
713.262
30
0
40
1.700
0
CIRCLE
8
INTERIOR_PROFILES
10
687.524
20
1001.262
30
0
40
1.700
0
CIRCLE
8
INTERIOR_PROFILES
10
119.524
20
777.262
30
0
40
1.700
0
CIRCLE
8
INTERIOR_PROFILES
10
119.524
20
1001.262
30
0
40
1.700
0
CIRCLE
8
INTERIOR_PROFILES
10
119.524
20
841.262
30
0
40
1.700
0
CIRCLE
8
INTERIOR_PROFILES
10
255.524
20
1033.262
30
0
40
1.700
0
CIRCLE
8
INTERIOR_PROFILES
10
255.524
20
905.262
30
0
40
1.700
0
CIRCLE
8
INTERIOR_PROFILES
10
119.524
20
1065.262
30
0
40
1.700
0
CIRCLE
8
INTERIOR_PROFILES
10
551.524
20
1097.262
30
0
40
1.700
0
CIRCLE
8
INTERIOR_PROFILES
10
119.524
20
745.262
30
0
40
1.700
0
CIRCLE
8
INTERIOR_PROFILES
10
687.524
20
969.262
30
0
40
1.700
0
CIRCLE
8
INTERIOR_PROFILES
10
119.524
20
969.262
30
0
40
1.700
0
CIRCLE
8
INTERIOR_PROFILES
10
119.524
20
873.262
30
0
40
1.700
0
CIRCLE
8
INTERIOR_PROFILES
10
255.524
20
873.262
30
0
40
1.700
0
CIRCLE
8
INTERIOR_PROFILES
10
168.524
20
1189.262
30
0
40
1.700
0
CIRCLE
8
INTERIOR_PROFILES
10
687.524
20
1097.262
30
0
40
1.700
0
CIRCLE
8
INTERIOR_PROFILES
10
551.524
20
969.262
30
0
40
1.700
0
CIRCLE
8
INTERIOR_PROFILES
10
687.524
20
873.262
30
0
40
1.700
0
CIRCLE
8
INTERIOR_PROFILES
10
551.524
20
649.262
30
0
40
1.700
0
CIRCLE
8
INTERIOR_PROFILES
10
255.524
20
745.262
30
0
40
1.700
0
CIRCLE
8
INTERIOR_PROFILES
10
255.524
20
841.262
30
0
40
1.700
0
CIRCLE
8
INTERIOR_PROFILES
10
255.524
20
777.262
30
0
40
1.700
0
CIRCLE
8
INTERIOR_PROFILES
10
255.524
20
969.262
30
0
40
1.700
0
CIRCLE
8
INTERIOR_PROFILES
10
551.524
20
681.262
30
0
40
1.700
0
CIRCLE
8
INTERIOR_PROFILES
10
255.524
20
1161.262
30
0
40
1.700
0
CIRCLE
8
INTERIOR_PROFILES
10
551.524
20
1065.262
30
0
40
1.700
0
CIRCLE
8
INTERIOR_PROFILES
10
608.524
20
1189.262
30
0
40
1.700
0
CIRCLE
8
INTERIOR_PROFILES
10
487.524
20
681.262
30
0
40
1.700
0
CIRCLE
8
INTERIOR_PROFILES
10
255.524
20
713.262
30
0
40
1.700
0
CIRCLE
8
INTERIOR_PROFILES
10
228.524
20
1189.262
30
0
40
1.700
0
CIRCLE
8
INTERIOR_PROFILES
10
487.524
20
969.262
30
0
40
1.700
0
CIRCLE
8
INTERIOR_PROFILES
10
578.524
20
1189.262
30
0
40
1.700
0
CIRCLE
8
INTERIOR_PROFILES
10
198.524
20
1189.262
30
0
40
1.700
0
CIRCLE
8
INTERIOR_PROFILES
10
551.524
20
777.262
30
0
40
1.700
0
CIRCLE
8
INTERIOR_PROFILES
10
487.524
20
809.262
30
0
40
1.700
0
CIRCLE
8
INTERIOR_PROFILES
10
551.524
20
713.262
30
0
40
1.700
0
CIRCLE
8
INTERIOR_PROFILES
10
551.524
20
745.262
30
0
40
1.700
0
CIRCLE
8
INTERIOR_PROFILES
10
255.524
20
649.262
30
0
40
1.700
0
CIRCLE
8
INTERIOR_PROFILES
10
551.524
20
1129.262
30
0
40
1.700
0
CIRCLE
8
INTERIOR_PROFILES
10
638.524
20
1189.262
30
0
40
1.700
0
CIRCLE
8
INTERIOR_PROFILES
10
255.524
20
1001.262
30
0
40
1.700
0
CIRCLE
8
INTERIOR_PROFILES
10
255.524
20
1129.262
30
0
40
1.700
0
CIRCLE
8
INTERIOR_PROFILES
10
319.524
20
681.262
30
0
40
1.700
0
CIRCLE
8
INTERIOR_PROFILES
10
255.524
20
809.262
30
0
40
1.700
0
CIRCLE
8
INTERIOR_PROFILES
10
551.524
20
841.262
30
0
40
1.700
0
CIRCLE
8
INTERIOR_PROFILES
10
319.524
20
713.262
30
0
40
1.700
0
CIRCLE
8
INTERIOR_PROFILES
10
319.524
20
745.262
30
0
40
1.700
0
CIRCLE
8
INTERIOR_PROFILES
10
551.524
20
1161.262
30
0
40
1.700
0
CIRCLE
8
INTERIOR_PROFILES
10
487.524
20
1129.262
30
0
40
1.700
0
CIRCLE
8
INTERIOR_PROFILES
10
319.524
20
777.262
30
0
40
1.700
0
CIRCLE
8
INTERIOR_PROFILES
10
551.524
20
1001.262
30
0
40
1.700
0
CIRCLE
8
INTERIOR_PROFILES
10
319.524
20
937.262
30
0
40
1.700
0
CIRCLE
8
INTERIOR_PROFILES
10
487.524
20
713.262
30
0
40
1.700
0
CIRCLE
8
INTERIOR_PROFILES
10
319.524
20
1065.262
30
0
40
1.700
0
CIRCLE
8
INTERIOR_PROFILES
10
319.524
20
1129.262
30
0
40
1.700
0
CIRCLE
8
INTERIOR_PROFILES
10
319.524
20
1097.262
30
0
40
1.700
0
CIRCLE
8
INTERIOR_PROFILES
10
487.524
20
841.262
30
0
40
1.700
0
CIRCLE
8
INTERIOR_PROFILES
10
487.524
20
745.262
30
0
40
1.700
0
CIRCLE
8
INTERIOR_PROFILES
10
487.524
20
873.262
30
0
40
1.700
0
CIRCLE
8
INTERIOR_PROFILES
10
319.524
20
905.262
30
0
40
1.700
0
CIRCLE
8
INTERIOR_PROFILES
10
319.524
20
873.262
30
0
40
1.700
0
CIRCLE
8
INTERIOR_PROFILES
10
319.524
20
1001.262
30
0
40
1.700
0
CIRCLE
8
INTERIOR_PROFILES
10
487.524
20
1001.262
30
0
40
1.700
0
CIRCLE
8
INTERIOR_PROFILES
10
519.524
20
1161.262
30
0
40
1.700
0
CIRCLE
8
INTERIOR_PROFILES
10
303.524
20
1189.262
30
0
40
1.700
0
CIRCLE
8
INTERIOR_PROFILES
10
503.524
20
1189.262
30
0
40
1.700
0
CIRCLE
8
INTERIOR_PROFILES
10
487.524
20
1097.262
30
0
40
1.700
0
CIRCLE
8
INTERIOR_PROFILES
10
487.524
20
937.262
30
0
40
1.700
0
CIRCLE
8
INTERIOR_PROFILES
10
487.524
20
1161.262
30
0
40
1.700
0
CIRCLE
8
INTERIOR_PROFILES
10
487.524
20
905.262
30
0
40
1.700
0
CIRCLE
8
INTERIOR_PROFILES
10
487.524
20
1033.262
30
0
40
1.700
0
CIRCLE
8
INTERIOR_PROFILES
10
603.524
20
635.262
30
0
40
1.700
0
CIRCLE
8
INTERIOR_PROFILES
10
487.524
20
777.262
30
0
40
1.700
0
CIRCLE
8
INTERIOR_PROFILES
10
319.524
20
969.262
30
0
40
1.700
0
CIRCLE
8
INTERIOR_PROFILES
10
287.524
20
1161.262
30
0
40
1.700
0
CIRCLE
8
INTERIOR_PROFILES
10
319.524
20
1033.262
30
0
40
1.700
0
CIRCLE
8
INTERIOR_PROFILES
10
319.524
20
1161.262
30
0
40
1.700
0
CIRCLE
8
INTERIOR_PROFILES
10
487.524
20
649.262
30
0
40
1.700
0
CIRCLE
8
INTERIOR_PROFILES
10
319.524
20
809.262
30
0
40
1.700
0
CIRCLE
8
INTERIOR_PROFILES
10
503.524
20
635.262
30
0
40
1.700
0
CIRCLE
8
INTERIOR_PROFILES
10
319.524
20
841.262
30
0
40
1.700
0
CIRCLE
8
INTERIOR_PROFILES
10
319.524
20
649.262
30
0
40
1.700
0
CIRCLE
8
INTERIOR_PROFILES
10
487.524
20
1065.262
30
0
40
1.700
0
CIRCLE
8
INTERIOR_PROFILES
10
623.524
20
841.262
30
0
40
1.700
0
CIRCLE
8
INTERIOR_PROFILES
10
623.524
20
1065.262
30
0
40
1.700
0
CIRCLE
8
INTERIOR_PROFILES
10
183.524
20
809.262
30
0
40
1.700
0
CIRCLE
8
INTERIOR_PROFILES
10
623.524
20
1129.262
30
0
40
1.700
0
CIRCLE
8
INTERIOR_PROFILES
10
623.524
20
1161.262
30
0
40
1.700
0
CIRCLE
8
INTERIOR_PROFILES
10
623.524
20
681.262
30
0
40
1.700
0
CIRCLE
8
INTERIOR_PROFILES
10
183.524
20
841.262
30
0
40
1.700
0
CIRCLE
8
INTERIOR_PROFILES
10
183.524
20
1001.262
30
0
40
1.700
0
CIRCLE
8
INTERIOR_PROFILES
10
183.524
20
969.262
30
0
40
1.700
0
CIRCLE
8
INTERIOR_PROFILES
10
623.524
20
1001.262
30
0
40
1.700
0
CIRCLE
8
INTERIOR_PROFILES
10
183.524
20
713.262
30
0
40
1.700
0
CIRCLE
8
INTERIOR_PROFILES
10
623.524
20
745.262
30
0
40
1.700
0
CIRCLE
8
INTERIOR_PROFILES
10
183.524
20
1033.262
30
0
40
1.700
0
CIRCLE
8
INTERIOR_PROFILES
10
183.524
20
905.262
30
0
40
1.700
0
CIRCLE
8
INTERIOR_PROFILES
10
183.524
20
745.262
30
0
40
1.700
0
CIRCLE
8
INTERIOR_PROFILES
10
183.524
20
873.262
30
0
40
1.700
0
CIRCLE
8
INTERIOR_PROFILES
10
623.524
20
713.262
30
0
40
1.700
0
CIRCLE
8
INTERIOR_PROFILES
10
183.524
20
777.262
30
0
40
1.700
0
CIRCLE
8
INTERIOR_PROFILES
10
203.524
20
635.262
30
0
40
1.700
0
CIRCLE
8
INTERIOR_PROFILES
10
623.524
20
809.262
30
0
40
1.700
0
CIRCLE
8
INTERIOR_PROFILES
10
623.524
20
777.262
30
0
40
1.700
0
CIRCLE
8
INTERIOR_PROFILES
10
183.524
20
1161.262
30
0
40
1.700
0
CIRCLE
8
INTERIOR_PROFILES
10
623.524
20
649.262
30
0
40
1.700
0
CIRCLE
8
INTERIOR_PROFILES
10
183.524
20
649.262
30
0
40
1.700
0
CIRCLE
8
INTERIOR_PROFILES
10
623.524
20
905.262
30
0
40
1.700
0
CIRCLE
8
INTERIOR_PROFILES
10
623.524
20
873.262
30
0
40
1.700
0
CIRCLE
8
INTERIOR_PROFILES
10
623.524
20
969.262
30
0
40
1.700
0
CIRCLE
8
INTERIOR_PROFILES
10
183.524
20
1129.262
30
0
40
1.700
0
CIRCLE
8
INTERIOR_PROFILES
10
623.524
20
1097.262
30
0
40
1.700
0
CIRCLE
8
INTERIOR_PROFILES
10
303.524
20
635.262
30
0
40
1.700
0
CIRCLE
8
INTERIOR_PROFILES
10
623.524
20
1033.262
30
0
40
1.700
0
CIRCLE
8
INTERIOR_PROFILES
10
623.524
20
937.262
30
0
40
1.700
0
CIRCLE
8
INTERIOR_PROFILES
10
751.524
20
1033.262
30
0
40
1.700
0
CIRCLE
8
INTERIOR_PROFILES
10
751.524
20
1001.262
30
0
40
1.700
0
CIRCLE
8
INTERIOR_PROFILES
10
773.524
20
635.262
30
0
40
1.700
0
CIRCLE
8
INTERIOR_PROFILES
10
655.524
20
969.262
30
0
40
1.700
0
CIRCLE
8
INTERIOR_PROFILES
10
655.524
20
937.262
30
0
40
1.700
0
CIRCLE
8
INTERIOR_PROFILES
10
183.524
20
1065.262
30
0
40
1.700
0
CIRCLE
8
INTERIOR_PROFILES
10
33.524
20
635.262
30
0
40
1.700
0
CIRCLE
8
INTERIOR_PROFILES
10
751.524
20
969.262
30
0
40
1.700
0
CIRCLE
8
INTERIOR_PROFILES
10
719.524
20
1161.262
30
0
40
1.700
0
CIRCLE
8
INTERIOR_PROFILES
10
751.524
20
1129.262
30
0
40
1.700
0
CIRCLE
8
INTERIOR_PROFILES
10
751.524
20
745.262
30
0
40
1.700
0
CIRCLE
8
INTERIOR_PROFILES
10
655.524
20
649.262
30
0
40
1.700
0
CIRCLE
8
INTERIOR_PROFILES
10
119.524
20
1161.262
30
0
40
1.700
0
CIRCLE
8
INTERIOR_PROFILES
10
751.524
20
809.262
30
0
40
1.700
0
CIRCLE
8
INTERIOR_PROFILES
10
751.524
20
905.262
30
0
40
1.700
0
CIRCLE
8
INTERIOR_PROFILES
10
655.524
20
905.262
30
0
40
1.700
0
CIRCLE
8
INTERIOR_PROFILES
10
655.524
20
713.262
30
0
40
1.700
0
CIRCLE
8
INTERIOR_PROFILES
10
655.524
20
1097.262
30
0
40
1.700
0
CIRCLE
8
INTERIOR_PROFILES
10
751.524
20
1097.262
30
0
40
1.700
0
CIRCLE
8
INTERIOR_PROFILES
10
751.524
20
713.262
30
0
40
1.700
0
CIRCLE
8
INTERIOR_PROFILES
10
751.524
20
1065.262
30
0
40
1.700
0
CIRCLE
8
INTERIOR_PROFILES
10
687.524
20
1161.262
30
0
40
1.700
0
CIRCLE
8
INTERIOR_PROFILES
10
751.524
20
1161.262
30
0
40
1.700
0
CIRCLE
8
INTERIOR_PROFILES
10
751.524
20
873.262
30
0
40
1.700
0
CIRCLE
8
INTERIOR_PROFILES
10
751.524
20
841.262
30
0
40
1.700
0
CIRCLE
8
INTERIOR_PROFILES
10
183.524
20
681.262
30
0
40
1.700
0
CIRCLE
8
INTERIOR_PROFILES
10
751.524
20
937.262
30
0
40
1.700
0
CIRCLE
8
INTERIOR_PROFILES
10
655.524
20
745.262
30
0
40
1.700
0
CIRCLE
8
INTERIOR_PROFILES
10
751.524
20
777.262
30
0
40
1.700
0
CIRCLE
8
INTERIOR_PROFILES
10
183.524
20
937.262
30
0
40
1.700
0
CIRCLE
8
INTERIOR_PROFILES
10
751.524
20
681.262
30
0
40
1.700
0
CIRCLE
8
INTERIOR_PROFILES
10
183.524
20
1097.262
30
0
40
1.700
0
CIRCLE
8
INTERIOR_PROFILES
10
655.524
20
1161.262
30
0
40
1.700
0
CIRCLE
8
INTERIOR_PROFILES
10
655.524
20
841.262
30
0
40
1.700
0
CIRCLE
8
INTERIOR_PROFILES
10
455.524
20
777.262
30
0
40
1.700
0
CIRCLE
8
INTERIOR_PROFILES
10
455.524
20
1097.262
30
0
40
1.700
0
CIRCLE
8
INTERIOR_PROFILES
10
455.524
20
681.262
30
0
40
1.700
0
CIRCLE
8
INTERIOR_PROFILES
10
455.524
20
1161.262
30
0
40
1.700
0
CIRCLE
8
INTERIOR_PROFILES
10
455.524
20
937.262
30
0
40
1.700
0
CIRCLE
8
INTERIOR_PROFILES
10
455.524
20
1001.262
30
0
40
1.700
0
CIRCLE
8
INTERIOR_PROFILES
10
455.524
20
809.262
30
0
40
1.700
0
CIRCLE
8
INTERIOR_PROFILES
10
655.524
20
1129.262
30
0
40
1.700
0
CIRCLE
8
INTERIOR_PROFILES
10
455.524
20
1129.262
30
0
40
1.700
0
CIRCLE
8
INTERIOR_PROFILES
10
455.524
20
1065.262
30
0
40
1.700
0
CIRCLE
8
INTERIOR_PROFILES
10
655.524
20
777.262
30
0
40
1.700
0
CIRCLE
8
INTERIOR_PROFILES
10
455.524
20
713.262
30
0
40
1.700
0
CIRCLE
8
INTERIOR_PROFILES
10
455.524
20
841.262
30
0
40
1.700
0
CIRCLE
8
INTERIOR_PROFILES
10
419.524
20
1161.262
30
0
40
1.700
0
CIRCLE
8
INTERIOR_PROFILES
10
455.524
20
873.262
30
0
40
1.700
0
CIRCLE
8
INTERIOR_PROFILES
10
655.524
20
809.262
30
0
40
1.700
0
CIRCLE
8
INTERIOR_PROFILES
10
387.524
20
1161.262
30
0
40
1.700
0
CIRCLE
8
INTERIOR_PROFILES
10
351.524
20
1097.262
30
0
40
1.700
0
CIRCLE
8
INTERIOR_PROFILES
10
151.524
20
937.262
30
0
40
1.700
0
CIRCLE
8
INTERIOR_PROFILES
10
351.524
20
745.262
30
0
40
1.700
0
CIRCLE
8
INTERIOR_PROFILES
10
655.524
20
1065.262
30
0
40
1.700
0
CIRCLE
8
INTERIOR_PROFILES
10
655.524
20
1033.262
30
0
40
1.700
0
CIRCLE
8
INTERIOR_PROFILES
10
655.524
20
1001.262
30
0
40
1.700
0
CIRCLE
8
INTERIOR_PROFILES
10
455.524
20
905.262
30
0
40
1.700
0
CIRCLE
8
INTERIOR_PROFILES
10
655.524
20
681.262
30
0
40
1.700
0
CIRCLE
8
INTERIOR_PROFILES
10
455.524
20
969.262
30
0
40
1.700
0
CIRCLE
8
INTERIOR_PROFILES
10
455.524
20
649.262
30
0
40
1.700
0
CIRCLE
8
INTERIOR_PROFILES
10
455.524
20
745.262
30
0
40
1.700
0
CIRCLE
8
INTERIOR_PROFILES
10
455.524
20
1033.262
30
0
40
1.700
0
CIRCLE
8
INTERIOR_PROFILES
10
655.524
20
873.262
30
0
40
1.700
0
CIRCLE
8
INTERIOR_PROFILES
10
151.524
20
1065.262
30
0
40
1.700
0
CIRCLE
8
INTERIOR_PROFILES
10
151.524
20
1001.262
30
0
40
1.700
0
CIRCLE
8
INTERIOR_PROFILES
10
151.524
20
745.262
30
0
40
1.700
0
CIRCLE
8
INTERIOR_PROFILES
10
151.524
20
1129.262
30
0
40
1.700
0
CIRCLE
8
INTERIOR_PROFILES
10
351.524
20
905.262
30
0
40
1.700
0
CIRCLE
8
INTERIOR_PROFILES
10
151.524
20
777.262
30
0
40
1.700
0
CIRCLE
8
INTERIOR_PROFILES
10
151.524
20
841.262
30
0
40
1.700
0
CIRCLE
8
INTERIOR_PROFILES
10
151.524
20
681.262
30
0
40
1.700
0
CIRCLE
8
INTERIOR_PROFILES
10
151.524
20
1097.262
30
0
40
1.700
0
CIRCLE
8
INTERIOR_PROFILES
10
351.524
20
1001.262
30
0
40
1.700
0
CIRCLE
8
INTERIOR_PROFILES
10
151.524
20
905.262
30
0
40
1.700
0
CIRCLE
8
INTERIOR_PROFILES
10
151.524
20
1161.262
30
0
40
1.700
0
CIRCLE
8
INTERIOR_PROFILES
10
151.524
20
649.262
30
0
40
1.700
0
CIRCLE
8
INTERIOR_PROFILES
10
351.524
20
937.262
30
0
40
1.700
0
CIRCLE
8
INTERIOR_PROFILES
10
151.524
20
969.262
30
0
40
1.700
0
CIRCLE
8
INTERIOR_PROFILES
10
351.524
20
777.262
30
0
40
1.700
0
CIRCLE
8
INTERIOR_PROFILES
10
351.524
20
809.262
30
0
40
1.700
0
CIRCLE
8
INTERIOR_PROFILES
10
351.524
20
873.262
30
0
40
1.700
0
CIRCLE
8
INTERIOR_PROFILES
10
351.524
20
1033.262
30
0
40
1.700
0
CIRCLE
8
INTERIOR_PROFILES
10
151.524
20
873.262
30
0
40
1.700
0
CIRCLE
8
INTERIOR_PROFILES
10
351.524
20
681.262
30
0
40
1.700
0
CIRCLE
8
INTERIOR_PROFILES
10
351.524
20
1161.262
30
0
40
1.700
0
CIRCLE
8
INTERIOR_PROFILES
10
351.524
20
841.262
30
0
40
1.700
0
CIRCLE
8
INTERIOR_PROFILES
10
351.524
20
969.262
30
0
40
1.700
0
CIRCLE
8
INTERIOR_PROFILES
10
351.524
20
649.262
30
0
40
1.700
0
CIRCLE
8
INTERIOR_PROFILES
10
151.524
20
1033.262
30
0
40
1.700
0
CIRCLE
8
INTERIOR_PROFILES
10
351.524
20
713.262
30
0
40
1.700
0
CIRCLE
8
INTERIOR_PROFILES
10
151.524
20
809.262
30
0
40
1.700
0
CIRCLE
8
INTERIOR_PROFILES
10
351.524
20
1129.262
30
0
40
1.700
0
CIRCLE
8
INTERIOR_PROFILES
10
351.524
20
1065.262
30
0
40
1.700
0
CIRCLE
8
INTERIOR_PROFILES
10
87.524
20
1161.262
30
0
40
1.700
0
CIRCLE
8
INTERIOR_PROFILES
10
151.524
20
713.262
30
0
40
1.700
0
CIRCLE
8
INTERIOR_PROFILES
10
55.524
20
937.262
30
0
40
1.700
0
CIRCLE
8
INTERIOR_PROFILES
10
433.524
20
1189.262
30
0
40
1.700
0
CIRCLE
8
INTERIOR_PROFILES
10
103.524
20
635.262
30
0
40
1.700
0
CIRCLE
8
INTERIOR_PROFILES
10
703.524
20
1189.262
30
0
40
1.700
0
CIRCLE
8
INTERIOR_PROFILES
10
775.524
20
1189.262
30
0
40
1.700
0
CIRCLE
8
INTERIOR_PROFILES
10
403.524
20
635.262
30
0
40
1.700
0
CIRCLE
8
INTERIOR_PROFILES
10
55.524
20
873.262
30
0
40
1.700
0
CIRCLE
8
INTERIOR_PROFILES
10
703.524
20
635.262
30
0
40
1.700
0
CIRCLE
8
INTERIOR_PROFILES
10
55.524
20
1161.262
30
0
40
1.700
0
CIRCLE
8
INTERIOR_PROFILES
10
55.524
20
905.262
30
0
40
1.700
0
CIRCLE
8
INTERIOR_PROFILES
10
403.524
20
1189.262
30
0
40
1.700
0
CIRCLE
8
INTERIOR_PROFILES
10
103.524
20
1189.262
30
0
40
1.700
0
CIRCLE
8
INTERIOR_PROFILES
10
55.524
20
1097.262
30
0
40
1.700
0
CIRCLE
8
INTERIOR_PROFILES
10
55.524
20
1065.262
30
0
40
1.700
0
CIRCLE
8
INTERIOR_PROFILES
10
55.524
20
809.262
30
0
40
1.700
0
CIRCLE
8
INTERIOR_PROFILES
10
55.524
20
1001.262
30
0
40
1.700
0
CIRCLE
8
INTERIOR_PROFILES
10
55.524
20
969.262
30
0
40
1.700
0
CIRCLE
8
INTERIOR_PROFILES
10
773.524
20
1171.262
30
0
40
6.500
0
CIRCLE
8
INTERIOR_PROFILES
10
55.524
20
681.262
30
0
40
1.700
0
CIRCLE
8
INTERIOR_PROFILES
10
55.524
20
713.262
30
0
40
1.700
0
CIRCLE
8
INTERIOR_PROFILES
10
31.524
20
1189.262
30
0
40
1.700
0
CIRCLE
8
INTERIOR_PROFILES
10
403.524
20
1171.262
30
0
40
6.500
0
CIRCLE
8
INTERIOR_PROFILES
10
55.524
20
777.262
30
0
40
1.700
0
CIRCLE
8
INTERIOR_PROFILES
10
55.524
20
1129.262
30
0
40
1.700
0
CIRCLE
8
INTERIOR_PROFILES
10
55.524
20
745.262
30
0
40
1.700
0
CIRCLE
8
INTERIOR_PROFILES
10
55.524
20
1033.262
30
0
40
1.700
0
CIRCLE
8
INTERIOR_PROFILES
10
55.524
20
841.262
30
0
40
1.700
0
CIRCLE
8
INTERIOR_PROFILES
10
33.524
20
1171.262
30
0
40
6.500
0
CIRCLE
8
INTERIOR_PROFILES
10
373.524
20
1189.262
30
0
40
1.700
0
CIRCLE
8
INTERIOR_PROFILES
10
387.524
20
969.262
30
0
40
1.700
0
CIRCLE
8
INTERIOR_PROFILES
10
387.524
20
873.262
30
0
40
1.700
0
CIRCLE
8
INTERIOR_PROFILES
10
387.524
20
905.262
30
0
40
1.700
0
CIRCLE
8
INTERIOR_PROFILES
10
387.524
20
713.262
30
0
40
1.700
0
CIRCLE
8
INTERIOR_PROFILES
10
387.524
20
681.262
30
0
40
1.700
0
CIRCLE
8
INTERIOR_PROFILES
10
419.524
20
649.262
30
0
40
1.700
0
CIRCLE
8
INTERIOR_PROFILES
10
387.524
20
841.262
30
0
40
1.700
0
CIRCLE
8
INTERIOR_PROFILES
10
419.524
20
969.262
30
0
40
1.700
0
LWPOLYLINE
8
INTERIOR_PROFILES
90
4
70
1
10
180.524
20
629.500
10
180.524
20
632.262
10
118.524
20
632.262
10
118.524
20
629.500
0
CIRCLE
8
INTERIOR_PROFILES
10
419.524
20
1065.262
30
0
40
1.700
0
CIRCLE
8
INTERIOR_PROFILES
10
419.524
20
1001.262
30
0
40
1.700
0
CIRCLE
8
INTERIOR_PROFILES
10
387.524
20
1097.262
30
0
40
1.700
0
CIRCLE
8
INTERIOR_PROFILES
10
387.524
20
745.262
30
0
40
1.700
0
CIRCLE
8
INTERIOR_PROFILES
10
419.524
20
841.262
30
0
40
1.700
0
LWPOLYLINE
8
INTERIOR_PROFILES
90
4
70
1
10
626.524
20
629.500
10
688.524
20
629.500
10
688.524
20
632.262
10
626.524
20
632.262
0
CIRCLE
8
INTERIOR_PROFILES
10
419.524
20
681.262
30
0
40
1.700
0
CIRCLE
8
INTERIOR_PROFILES
10
387.524
20
1129.262
30
0
40
1.700
0
CIRCLE
8
INTERIOR_PROFILES
10
419.524
20
713.262
30
0
40
1.700
0
CIRCLE
8
INTERIOR_PROFILES
10
637.524
20
635.262
30
0
40
1.700
0
CIRCLE
8
INTERIOR_PROFILES
10
30.524
20
623.000
30
0
40
1.700
0
CIRCLE
8
INTERIOR_PROFILES
10
419.524
20
937.262
30
0
40
1.700
0
CIRCLE
8
INTERIOR_PROFILES
10
419.524
20
1097.262
30
0
40
1.700
0
CIRCLE
8
INTERIOR_PROFILES
10
419.524
20
777.262
30
0
40
1.700
0
CIRCLE
8
INTERIOR_PROFILES
10
419.524
20
1033.262
30
0
40
1.700
0
CIRCLE
8
INTERIOR_PROFILES
10
387.524
20
777.262
30
0
40
1.700
0
CIRCLE
8
INTERIOR_PROFILES
10
387.524
20
1033.262
30
0
40
1.700
0
CIRCLE
8
INTERIOR_PROFILES
10
677.524
20
635.262
30
0
40
1.700
0
CIRCLE
8
INTERIOR_PROFILES
10
419.524
20
745.262
30
0
40
1.700
0
CIRCLE
8
INTERIOR_PROFILES
10
387.524
20
937.262
30
0
40
1.700
0
CIRCLE
8
INTERIOR_PROFILES
10
129.524
20
635.262
30
0
40
1.700
0
CIRCLE
8
INTERIOR_PROFILES
10
419.524
20
873.262
30
0
40
1.700
0
CIRCLE
8
INTERIOR_PROFILES
10
387.524
20
809.262
30
0
40
1.700
0
CIRCLE
8
INTERIOR_PROFILES
10
419.524
20
809.262
30
0
40
1.700
0
CIRCLE
8
INTERIOR_PROFILES
10
387.524
20
649.262
30
0
40
1.700
0
CIRCLE
8
INTERIOR_PROFILES
10
387.524
20
1065.262
30
0
40
1.700
0
CIRCLE
8
INTERIOR_PROFILES
10
169.524
20
635.262
30
0
40
1.700
0
CIRCLE
8
INTERIOR_PROFILES
10
776.524
20
623.000
30
0
40
1.700
0
CIRCLE
8
INTERIOR_PROFILES
10
419.524
20
905.262
30
0
40
1.700
0
CIRCLE
8
INTERIOR_PROFILES
10
103.524
20
623.000
30
0
40
1.700
0
CIRCLE
8
INTERIOR_PROFILES
10
387.524
20
1001.262
30
0
40
1.700
0
CIRCLE
8
INTERIOR_PROFILES
10
403.524
20
623.000
30
0
40
1.700
0
CIRCLE
8
INTERIOR_PROFILES
10
703.524
20
623.000
30
0
40
1.700
0
CIRCLE
8
INTERIOR_PROFILES
10
419.524
20
1129.262
30
0
40
1.700
0
CIRCLE
8
INTERIOR_PROFILES
10
14.262
20
659.262
30
0
40
1.700
0
CIRCLE
8
INTERIOR_PROFILES
10
183.524
20
1171.262
30
0
40
6.500
0
CIRCLE
8
INTERIOR_PROFILES
10
203.524
20
1216.786
30
0
40
1.700
0
CIRCLE
8
INTERIOR_PROFILES
10
623.524
20
1171.262
30
0
40
6.500
0
CIRCLE
8
INTERIOR_PROFILES
10
758.524
20
1149.262
30
0
40
1.700
0
CIRCLE
8
INTERIOR_PROFILES
10
14.262
20
705.262
30
0
40
1.700
0
CIRCLE
8
INTERIOR_PROFILES
10
26.524
20
1149.262
30
0
40
1.700
0
CIRCLE
8
INTERIOR_PROFILES
10
792.786
20
659.262
30
0
40
1.700
0
CIRCLE
8
INTERIOR_PROFILES
10
792.786
20
705.262
30
0
40
1.700
0
CIRCLE
8
INTERIOR_PROFILES
10
14.262
20
1095.262
30
0
40
1.700
0
CIRCLE
8
INTERIOR_PROFILES
10
48.524
20
1149.262
30
0
40
1.700
0
CIRCLE
8
INTERIOR_PROFILES
10
792.786
20
1095.262
30
0
40
1.700
0
CIRCLE
8
INTERIOR_PROFILES
10
780.524
20
1149.262
30
0
40
1.700
0
TEXT
8
PART_LABELS
10
403.500
20
312.000
30
0
40
50.000
1
SD00NA-080000
72
1
73
2
11
403.500
21
312.000
31
0
0
LINE
8
OUTER_PROFILES
10
21.262
20
613.786
30
0
11
23.524
21
613.786
31
0
0
LINE
8
OUTER_PROFILES
10
23.524
20
613.786
30
0
11
783.524
21
613.786
31
0
0
LINE
8
OUTER_PROFILES
10
783.524
20
613.786
30
0
11
785.786
21
613.786
31
0
0
LINE
8
OUTER_PROFILES
10
785.786
20
613.786
30
0
11
790.715
21
613.786
31
0
0
LINE
8
OUTER_PROFILES
10
790.715
20
613.786
30
0
11
785.786
21
608.857
31
0
0
LINE
8
OUTER_PROFILES
10
785.786
20
608.857
30
0
11
783.524
21
608.786
31
0
0
LINE
8
OUTER_PROFILES
10
783.524
20
608.786
30
0
11
783.524
21
606.524
31
0
0
LINE
8
OUTER_PROFILES
10
783.524
20
606.524
30
0
11
785.786
21
606.453
31
0
0
LINE
8
OUTER_PROFILES
10
785.786
20
606.453
30
0
11
790.786
21
601.453
31
0
0
LINE
8
OUTER_PROFILES
10
790.786
20
601.453
30
0
11
790.786
21
597.595
31
0
0
LINE
8
OUTER_PROFILES
10
790.786
20
597.595
30
0
11
785.786
21
592.595
31
0
0
ARC
8
OUTER_PROFILES
10
34465.625
20
-1076819.848
30
0
40
1077938.729
50
91.7905
51
91.7906
0
LINE
8
OUTER_PROFILES
10
783.524
20
592.524
30
0
11
783.524
21
590.262
31
0
0
ARC
8
OUTER_PROFILES
10
6783.550
20
192487.419
30
0
40
191990.935
50
268.2091
51
268.2098
0
LINE
8
OUTER_PROFILES
10
785.786
20
590.191
30
0
11
790.815
21
585.162
31
0
0
LINE
8
OUTER_PROFILES
10
790.815
20
585.162
30
0
11
799.786
21
585.162
31
0
0
LINE
8
OUTER_PROFILES
10
799.786
20
585.162
30
0
11
802.048
21
585.162
31
0
0
LINE
8
OUTER_PROFILES
10
802.048
20
585.162
30
0
11
807.048
21
585.162
31
0
0
LINE
8
OUTER_PROFILES
10
807.048
20
585.162
30
0
11
807.048
21
24.262
31
0
0
LINE
8
OUTER_PROFILES
10
807.048
20
24.262
30
0
11
785.786
21
24.262
31
0
0
LINE
8
OUTER_PROFILES
10
785.786
20
24.262
30
0
11
785.786
21
26.262
31
0
0
LINE
8
OUTER_PROFILES
10
785.786
20
26.262
30
0
11
783.524
21
26.262
31
0
0
LINE
8
OUTER_PROFILES
10
783.524
20
26.262
30
0
11
783.524
21
24.000
31
0
0
LINE
8
OUTER_PROFILES
10
783.524
20
24.000
30
0
11
783.524
21
10.000
31
0
0
LINE
8
OUTER_PROFILES
10
783.524
20
10.000
30
0
11
23.524
21
10.000
31
0
0
LINE
8
OUTER_PROFILES
10
23.524
20
10.000
30
0
11
23.524
21
24.000
31
0
0
LINE
8
OUTER_PROFILES
10
23.524
20
24.000
30
0
11
23.524
21
26.262
31
0
0
LINE
8
OUTER_PROFILES
10
23.524
20
26.262
30
0
11
21.262
21
26.262
31
0
0
LINE
8
OUTER_PROFILES
10
21.262
20
26.262
30
0
11
21.262
21
24.262
31
0
0
LINE
8
OUTER_PROFILES
10
21.262
20
24.262
30
0
11
0.000
21
24.262
31
0
0
LINE
8
OUTER_PROFILES
10
0.000
20
24.262
30
0
11
0.000
21
585.162
31
0
0
LINE
8
OUTER_PROFILES
10
0.000
20
585.162
30
0
11
5.000
21
585.162
31
0
0
LINE
8
OUTER_PROFILES
10
5.000
20
585.162
30
0
11
7.262
21
585.162
31
0
0
LINE
8
OUTER_PROFILES
10
7.262
20
585.162
30
0
11
16.233
21
585.162
31
0
0
LINE
8
OUTER_PROFILES
10
16.233
20
585.162
30
0
11
21.262
21
590.191
31
0
0
ARC
8
OUTER_PROFILES
10
-5857.184
20
188670.589
30
0
40
188172.241
50
271.7902
51
271.7909
0
LINE
8
OUTER_PROFILES
10
23.524
20
590.262
30
0
11
23.524
21
592.524
31
0
0
LINE
8
OUTER_PROFILES
10
23.524
20
592.524
30
0
11
21.262
21
592.595
31
0
0
LINE
8
OUTER_PROFILES
10
21.262
20
592.595
30
0
11
16.262
21
597.595
31
0
0
LINE
8
OUTER_PROFILES
10
16.262
20
597.595
30
0
11
16.262
21
601.453
31
0
0
LINE
8
OUTER_PROFILES
10
16.262
20
601.453
30
0
11
21.262
21
606.453
31
0
0
LINE
8
OUTER_PROFILES
10
21.262
20
606.453
30
0
11
23.524
21
606.524
31
0
0
LINE
8
OUTER_PROFILES
10
23.524
20
606.524
30
0
11
23.524
21
608.786
31
0
0
LINE
8
OUTER_PROFILES
10
23.524
20
608.786
30
0
11
21.262
21
608.857
31
0
0
LINE
8
OUTER_PROFILES
10
21.262
20
608.857
30
0
11
16.333
21
613.786
31
0
0
LINE
8
OUTER_PROFILES
10
16.333
20
613.786
30
0
11
21.262
21
613.786
31
0
0
CIRCLE
8
INTERIOR_PROFILES
10
703.524
20
610.786
30
0
40
1.700
0
CIRCLE
8
INTERIOR_PROFILES
10
303.524
20
610.786
30
0
40
1.700
0
CIRCLE
8
INTERIOR_PROFILES
10
503.524
20
610.786
30
0
40
1.700
0
CIRCLE
8
INTERIOR_PROFILES
10
55.524
20
43.262
30
0
40
1.700
0
CIRCLE
8
INTERIOR_PROFILES
10
751.524
20
43.262
30
0
40
1.700
0
CIRCLE
8
INTERIOR_PROFILES
10
792.786
20
282.262
30
0
40
3.250
0
CIRCLE
8
INTERIOR_PROFILES
10
792.786
20
383.262
30
0
40
1.700
0
CIRCLE
8
INTERIOR_PROFILES
10
792.786
20
37.262
30
0
40
3.250
0
CIRCLE
8
INTERIOR_PROFILES
10
103.524
20
610.786
30
0
40
1.700
0
CIRCLE
8
INTERIOR_PROFILES
10
792.786
20
537.262
30
0
40
3.250
0
CIRCLE
8
INTERIOR_PROFILES
10
792.786
20
505.262
30
0
40
3.250
0
CIRCLE
8
INTERIOR_PROFILES
10
792.786
20
314.262
30
0
40
3.250
0
CIRCLE
8
INTERIOR_PROFILES
10
792.786
20
69.262
30
0
40
3.250
0
CIRCLE
8
INTERIOR_PROFILES
10
792.786
20
205.262
30
0
40
1.700
0
CIRCLE
8
INTERIOR_PROFILES
10
403.524
20
610.786
30
0
40
1.700
0
CIRCLE
8
INTERIOR_PROFILES
10
73.524
20
29.262
30
0
40
1.700
0
CIRCLE
8
INTERIOR_PROFILES
10
792.786
20
521.262
30
0
40
6.500
0
CIRCLE
8
INTERIOR_PROFILES
10
792.786
20
27.262
30
0
40
1.700
0
CIRCLE
8
INTERIOR_PROFILES
10
792.786
20
561.262
30
0
40
1.700
0
CIRCLE
8
INTERIOR_PROFILES
10
603.524
20
610.786
30
0
40
1.700
0
CIRCLE
8
INTERIOR_PROFILES
10
733.524
20
29.262
30
0
40
1.700
0
CIRCLE
8
INTERIOR_PROFILES
10
792.786
20
164.762
30
0
40
6.500
0
CIRCLE
8
INTERIOR_PROFILES
10
792.786
20
583.262
30
0
40
1.700
0
CIRCLE
8
INTERIOR_PROFILES
10
792.786
20
336.262
30
0
40
6.500
0
CIRCLE
8
INTERIOR_PROFILES
10
14.262
20
505.262
30
0
40
3.250
0
CIRCLE
8
INTERIOR_PROFILES
10
14.262
20
69.262
30
0
40
3.250
0
CIRCLE
8
INTERIOR_PROFILES
10
119.524
20
107.262
30
0
40
1.700
0
CIRCLE
8
INTERIOR_PROFILES
10
119.524
20
75.262
30
0
40
1.700
0
CIRCLE
8
INTERIOR_PROFILES
10
687.524
20
139.262
30
0
40
1.700
0
CIRCLE
8
INTERIOR_PROFILES
10
687.524
20
203.262
30
0
40
1.700
0
CIRCLE
8
INTERIOR_PROFILES
10
14.262
20
314.262
30
0
40
3.250
0
CIRCLE
8
INTERIOR_PROFILES
10
14.262
20
583.262
30
0
40
1.700
0
CIRCLE
8
INTERIOR_PROFILES
10
687.524
20
523.262
30
0
40
1.700
0
CIRCLE
8
INTERIOR_PROFILES
10
687.524
20
299.262
30
0
40
1.700
0
CIRCLE
8
INTERIOR_PROFILES
10
687.524
20
171.262
30
0
40
1.700
0
CIRCLE
8
INTERIOR_PROFILES
10
119.524
20
523.262
30
0
40
1.700
0
CIRCLE
8
INTERIOR_PROFILES
10
687.524
20
331.262
30
0
40
1.700
0
CIRCLE
8
INTERIOR_PROFILES
10
14.262
20
282.262
30
0
40
3.250
0
CIRCLE
8
INTERIOR_PROFILES
10
14.262
20
164.762
30
0
40
6.500
0
CIRCLE
8
INTERIOR_PROFILES
10
14.262
20
205.262
30
0
40
1.700
0
CIRCLE
8
INTERIOR_PROFILES
10
14.262
20
336.262
30
0
40
6.500
0
CIRCLE
8
INTERIOR_PROFILES
10
14.262
20
27.262
30
0
40
1.700
0
CIRCLE
8
INTERIOR_PROFILES
10
14.262
20
383.262
30
0
40
1.700
0
CIRCLE
8
INTERIOR_PROFILES
10
14.262
20
561.262
30
0
40
1.700
0
CIRCLE
8
INTERIOR_PROFILES
10
14.262
20
537.262
30
0
40
3.250
0
CIRCLE
8
INTERIOR_PROFILES
10
119.524
20
427.262
30
0
40
1.700
0
CIRCLE
8
INTERIOR_PROFILES
10
687.524
20
75.262
30
0
40
1.700
0
CIRCLE
8
INTERIOR_PROFILES
10
119.524
20
491.262
30
0
40
1.700
0
CIRCLE
8
INTERIOR_PROFILES
10
119.524
20
299.262
30
0
40
1.700
0
CIRCLE
8
INTERIOR_PROFILES
10
119.524
20
203.262
30
0
40
1.700
0
CIRCLE
8
INTERIOR_PROFILES
10
119.524
20
43.262
30
0
40
1.700
0
CIRCLE
8
INTERIOR_PROFILES
10
14.262
20
37.262
30
0
40
3.250
0
CIRCLE
8
INTERIOR_PROFILES
10
14.262
20
521.262
30
0
40
6.500
0
CIRCLE
8
INTERIOR_PROFILES
10
687.524
20
459.262
30
0
40
1.700
0
CIRCLE
8
INTERIOR_PROFILES
10
687.524
20
43.262
30
0
40
1.700
0
CIRCLE
8
INTERIOR_PROFILES
10
551.524
20
203.262
30
0
40
1.700
0
CIRCLE
8
INTERIOR_PROFILES
10
119.524
20
331.262
30
0
40
1.700
0
CIRCLE
8
INTERIOR_PROFILES
10
255.524
20
459.262
30
0
40
1.700
0
CIRCLE
8
INTERIOR_PROFILES
10
255.524
20
331.262
30
0
40
1.700
0
CIRCLE
8
INTERIOR_PROFILES
10
551.524
20
427.262
30
0
40
1.700
0
CIRCLE
8
INTERIOR_PROFILES
10
551.524
20
299.262
30
0
40
1.700
0
CIRCLE
8
INTERIOR_PROFILES
10
255.524
20
75.262
30
0
40
1.700
0
CIRCLE
8
INTERIOR_PROFILES
10
551.524
20
267.262
30
0
40
1.700
0
CIRCLE
8
INTERIOR_PROFILES
10
255.524
20
491.262
30
0
40
1.700
0
CIRCLE
8
INTERIOR_PROFILES
10
551.524
20
331.262
30
0
40
1.700
0
CIRCLE
8
INTERIOR_PROFILES
10
687.524
20
427.262
30
0
40
1.700
0
CIRCLE
8
INTERIOR_PROFILES
10
687.524
20
235.262
30
0
40
1.700
0
CIRCLE
8
INTERIOR_PROFILES
10
687.524
20
107.262
30
0
40
1.700
0
CIRCLE
8
INTERIOR_PROFILES
10
687.524
20
395.262
30
0
40
1.700
0
CIRCLE
8
INTERIOR_PROFILES
10
119.524
20
171.262
30
0
40
1.700
0
CIRCLE
8
INTERIOR_PROFILES
10
119.524
20
395.262
30
0
40
1.700
0
CIRCLE
8
INTERIOR_PROFILES
10
119.524
20
235.262
30
0
40
1.700
0
CIRCLE
8
INTERIOR_PROFILES
10
255.524
20
427.262
30
0
40
1.700
0
CIRCLE
8
INTERIOR_PROFILES
10
255.524
20
299.262
30
0
40
1.700
0
CIRCLE
8
INTERIOR_PROFILES
10
119.524
20
459.262
30
0
40
1.700
0
CIRCLE
8
INTERIOR_PROFILES
10
551.524
20
491.262
30
0
40
1.700
0
CIRCLE
8
INTERIOR_PROFILES
10
119.524
20
139.262
30
0
40
1.700
0
CIRCLE
8
INTERIOR_PROFILES
10
687.524
20
363.262
30
0
40
1.700
0
CIRCLE
8
INTERIOR_PROFILES
10
119.524
20
363.262
30
0
40
1.700
0
CIRCLE
8
INTERIOR_PROFILES
10
119.524
20
267.262
30
0
40
1.700
0
CIRCLE
8
INTERIOR_PROFILES
10
255.524
20
267.262
30
0
40
1.700
0
CIRCLE
8
INTERIOR_PROFILES
10
168.524
20
583.262
30
0
40
1.700
0
CIRCLE
8
INTERIOR_PROFILES
10
687.524
20
491.262
30
0
40
1.700
0
CIRCLE
8
INTERIOR_PROFILES
10
551.524
20
363.262
30
0
40
1.700
0
CIRCLE
8
INTERIOR_PROFILES
10
687.524
20
267.262
30
0
40
1.700
0
CIRCLE
8
INTERIOR_PROFILES
10
551.524
20
43.262
30
0
40
1.700
0
CIRCLE
8
INTERIOR_PROFILES
10
255.524
20
139.262
30
0
40
1.700
0
CIRCLE
8
INTERIOR_PROFILES
10
255.524
20
235.262
30
0
40
1.700
0
CIRCLE
8
INTERIOR_PROFILES
10
255.524
20
171.262
30
0
40
1.700
0
CIRCLE
8
INTERIOR_PROFILES
10
255.524
20
363.262
30
0
40
1.700
0
CIRCLE
8
INTERIOR_PROFILES
10
551.524
20
75.262
30
0
40
1.700
0
CIRCLE
8
INTERIOR_PROFILES
10
255.524
20
555.262
30
0
40
1.700
0
CIRCLE
8
INTERIOR_PROFILES
10
551.524
20
459.262
30
0
40
1.700
0
CIRCLE
8
INTERIOR_PROFILES
10
608.524
20
583.262
30
0
40
1.700
0
CIRCLE
8
INTERIOR_PROFILES
10
487.524
20
75.262
30
0
40
1.700
0
CIRCLE
8
INTERIOR_PROFILES
10
255.524
20
107.262
30
0
40
1.700
0
CIRCLE
8
INTERIOR_PROFILES
10
228.524
20
583.262
30
0
40
1.700
0
CIRCLE
8
INTERIOR_PROFILES
10
487.524
20
363.262
30
0
40
1.700
0
CIRCLE
8
INTERIOR_PROFILES
10
578.524
20
583.262
30
0
40
1.700
0
CIRCLE
8
INTERIOR_PROFILES
10
198.524
20
583.262
30
0
40
1.700
0
CIRCLE
8
INTERIOR_PROFILES
10
551.524
20
171.262
30
0
40
1.700
0
CIRCLE
8
INTERIOR_PROFILES
10
487.524
20
203.262
30
0
40
1.700
0
CIRCLE
8
INTERIOR_PROFILES
10
551.524
20
107.262
30
0
40
1.700
0
CIRCLE
8
INTERIOR_PROFILES
10
551.524
20
139.262
30
0
40
1.700
0
CIRCLE
8
INTERIOR_PROFILES
10
255.524
20
43.262
30
0
40
1.700
0
CIRCLE
8
INTERIOR_PROFILES
10
551.524
20
523.262
30
0
40
1.700
0
CIRCLE
8
INTERIOR_PROFILES
10
638.524
20
583.262
30
0
40
1.700
0
CIRCLE
8
INTERIOR_PROFILES
10
255.524
20
395.262
30
0
40
1.700
0
CIRCLE
8
INTERIOR_PROFILES
10
255.524
20
523.262
30
0
40
1.700
0
CIRCLE
8
INTERIOR_PROFILES
10
319.524
20
75.262
30
0
40
1.700
0
CIRCLE
8
INTERIOR_PROFILES
10
255.524
20
203.262
30
0
40
1.700
0
CIRCLE
8
INTERIOR_PROFILES
10
551.524
20
235.262
30
0
40
1.700
0
CIRCLE
8
INTERIOR_PROFILES
10
319.524
20
107.262
30
0
40
1.700
0
CIRCLE
8
INTERIOR_PROFILES
10
319.524
20
139.262
30
0
40
1.700
0
CIRCLE
8
INTERIOR_PROFILES
10
551.524
20
555.262
30
0
40
1.700
0
CIRCLE
8
INTERIOR_PROFILES
10
487.524
20
523.262
30
0
40
1.700
0
CIRCLE
8
INTERIOR_PROFILES
10
319.524
20
171.262
30
0
40
1.700
0
CIRCLE
8
INTERIOR_PROFILES
10
551.524
20
395.262
30
0
40
1.700
0
CIRCLE
8
INTERIOR_PROFILES
10
319.524
20
331.262
30
0
40
1.700
0
CIRCLE
8
INTERIOR_PROFILES
10
487.524
20
107.262
30
0
40
1.700
0
CIRCLE
8
INTERIOR_PROFILES
10
319.524
20
459.262
30
0
40
1.700
0
CIRCLE
8
INTERIOR_PROFILES
10
319.524
20
523.262
30
0
40
1.700
0
CIRCLE
8
INTERIOR_PROFILES
10
319.524
20
491.262
30
0
40
1.700
0
CIRCLE
8
INTERIOR_PROFILES
10
487.524
20
235.262
30
0
40
1.700
0
CIRCLE
8
INTERIOR_PROFILES
10
487.524
20
139.262
30
0
40
1.700
0
CIRCLE
8
INTERIOR_PROFILES
10
487.524
20
267.262
30
0
40
1.700
0
CIRCLE
8
INTERIOR_PROFILES
10
319.524
20
299.262
30
0
40
1.700
0
CIRCLE
8
INTERIOR_PROFILES
10
319.524
20
267.262
30
0
40
1.700
0
CIRCLE
8
INTERIOR_PROFILES
10
319.524
20
395.262
30
0
40
1.700
0
CIRCLE
8
INTERIOR_PROFILES
10
487.524
20
395.262
30
0
40
1.700
0
CIRCLE
8
INTERIOR_PROFILES
10
519.524
20
555.262
30
0
40
1.700
0
CIRCLE
8
INTERIOR_PROFILES
10
303.524
20
583.262
30
0
40
1.700
0
CIRCLE
8
INTERIOR_PROFILES
10
503.524
20
583.262
30
0
40
1.700
0
CIRCLE
8
INTERIOR_PROFILES
10
487.524
20
491.262
30
0
40
1.700
0
CIRCLE
8
INTERIOR_PROFILES
10
487.524
20
331.262
30
0
40
1.700
0
CIRCLE
8
INTERIOR_PROFILES
10
487.524
20
555.262
30
0
40
1.700
0
CIRCLE
8
INTERIOR_PROFILES
10
487.524
20
299.262
30
0
40
1.700
0
CIRCLE
8
INTERIOR_PROFILES
10
487.524
20
427.262
30
0
40
1.700
0
CIRCLE
8
INTERIOR_PROFILES
10
603.524
20
29.262
30
0
40
1.700
0
CIRCLE
8
INTERIOR_PROFILES
10
487.524
20
171.262
30
0
40
1.700
0
CIRCLE
8
INTERIOR_PROFILES
10
319.524
20
363.262
30
0
40
1.700
0
CIRCLE
8
INTERIOR_PROFILES
10
287.524
20
555.262
30
0
40
1.700
0
CIRCLE
8
INTERIOR_PROFILES
10
319.524
20
427.262
30
0
40
1.700
0
CIRCLE
8
INTERIOR_PROFILES
10
319.524
20
555.262
30
0
40
1.700
0
CIRCLE
8
INTERIOR_PROFILES
10
487.524
20
43.262
30
0
40
1.700
0
CIRCLE
8
INTERIOR_PROFILES
10
319.524
20
203.262
30
0
40
1.700
0
CIRCLE
8
INTERIOR_PROFILES
10
503.524
20
29.262
30
0
40
1.700
0
CIRCLE
8
INTERIOR_PROFILES
10
319.524
20
235.262
30
0
40
1.700
0
CIRCLE
8
INTERIOR_PROFILES
10
319.524
20
43.262
30
0
40
1.700
0
CIRCLE
8
INTERIOR_PROFILES
10
487.524
20
459.262
30
0
40
1.700
0
CIRCLE
8
INTERIOR_PROFILES
10
623.524
20
235.262
30
0
40
1.700
0
CIRCLE
8
INTERIOR_PROFILES
10
623.524
20
459.262
30
0
40
1.700
0
CIRCLE
8
INTERIOR_PROFILES
10
183.524
20
203.262
30
0
40
1.700
0
CIRCLE
8
INTERIOR_PROFILES
10
623.524
20
523.262
30
0
40
1.700
0
CIRCLE
8
INTERIOR_PROFILES
10
623.524
20
555.262
30
0
40
1.700
0
CIRCLE
8
INTERIOR_PROFILES
10
623.524
20
75.262
30
0
40
1.700
0
CIRCLE
8
INTERIOR_PROFILES
10
183.524
20
235.262
30
0
40
1.700
0
CIRCLE
8
INTERIOR_PROFILES
10
183.524
20
395.262
30
0
40
1.700
0
CIRCLE
8
INTERIOR_PROFILES
10
183.524
20
363.262
30
0
40
1.700
0
CIRCLE
8
INTERIOR_PROFILES
10
623.524
20
395.262
30
0
40
1.700
0
CIRCLE
8
INTERIOR_PROFILES
10
183.524
20
107.262
30
0
40
1.700
0
CIRCLE
8
INTERIOR_PROFILES
10
623.524
20
139.262
30
0
40
1.700
0
CIRCLE
8
INTERIOR_PROFILES
10
183.524
20
427.262
30
0
40
1.700
0
CIRCLE
8
INTERIOR_PROFILES
10
183.524
20
299.262
30
0
40
1.700
0
CIRCLE
8
INTERIOR_PROFILES
10
183.524
20
139.262
30
0
40
1.700
0
CIRCLE
8
INTERIOR_PROFILES
10
183.524
20
267.262
30
0
40
1.700
0
CIRCLE
8
INTERIOR_PROFILES
10
623.524
20
107.262
30
0
40
1.700
0
CIRCLE
8
INTERIOR_PROFILES
10
183.524
20
171.262
30
0
40
1.700
0
CIRCLE
8
INTERIOR_PROFILES
10
203.524
20
29.262
30
0
40
1.700
0
CIRCLE
8
INTERIOR_PROFILES
10
623.524
20
203.262
30
0
40
1.700
0
CIRCLE
8
INTERIOR_PROFILES
10
623.524
20
171.262
30
0
40
1.700
0
CIRCLE
8
INTERIOR_PROFILES
10
183.524
20
555.262
30
0
40
1.700
0
CIRCLE
8
INTERIOR_PROFILES
10
623.524
20
43.262
30
0
40
1.700
0
CIRCLE
8
INTERIOR_PROFILES
10
183.524
20
43.262
30
0
40
1.700
0
CIRCLE
8
INTERIOR_PROFILES
10
623.524
20
299.262
30
0
40
1.700
0
CIRCLE
8
INTERIOR_PROFILES
10
623.524
20
267.262
30
0
40
1.700
0
CIRCLE
8
INTERIOR_PROFILES
10
623.524
20
363.262
30
0
40
1.700
0
CIRCLE
8
INTERIOR_PROFILES
10
183.524
20
523.262
30
0
40
1.700
0
CIRCLE
8
INTERIOR_PROFILES
10
623.524
20
491.262
30
0
40
1.700
0
CIRCLE
8
INTERIOR_PROFILES
10
303.524
20
29.262
30
0
40
1.700
0
CIRCLE
8
INTERIOR_PROFILES
10
623.524
20
427.262
30
0
40
1.700
0
CIRCLE
8
INTERIOR_PROFILES
10
623.524
20
331.262
30
0
40
1.700
0
CIRCLE
8
INTERIOR_PROFILES
10
751.524
20
427.262
30
0
40
1.700
0
CIRCLE
8
INTERIOR_PROFILES
10
751.524
20
395.262
30
0
40
1.700
0
CIRCLE
8
INTERIOR_PROFILES
10
773.524
20
29.262
30
0
40
1.700
0
CIRCLE
8
INTERIOR_PROFILES
10
655.524
20
363.262
30
0
40
1.700
0
CIRCLE
8
INTERIOR_PROFILES
10
655.524
20
331.262
30
0
40
1.700
0
CIRCLE
8
INTERIOR_PROFILES
10
183.524
20
459.262
30
0
40
1.700
0
CIRCLE
8
INTERIOR_PROFILES
10
33.524
20
29.262
30
0
40
1.700
0
CIRCLE
8
INTERIOR_PROFILES
10
751.524
20
363.262
30
0
40
1.700
0
CIRCLE
8
INTERIOR_PROFILES
10
719.524
20
555.262
30
0
40
1.700
0
CIRCLE
8
INTERIOR_PROFILES
10
751.524
20
523.262
30
0
40
1.700
0
CIRCLE
8
INTERIOR_PROFILES
10
751.524
20
139.262
30
0
40
1.700
0
CIRCLE
8
INTERIOR_PROFILES
10
655.524
20
43.262
30
0
40
1.700
0
CIRCLE
8
INTERIOR_PROFILES
10
119.524
20
555.262
30
0
40
1.700
0
CIRCLE
8
INTERIOR_PROFILES
10
751.524
20
203.262
30
0
40
1.700
0
CIRCLE
8
INTERIOR_PROFILES
10
751.524
20
299.262
30
0
40
1.700
0
CIRCLE
8
INTERIOR_PROFILES
10
655.524
20
299.262
30
0
40
1.700
0
CIRCLE
8
INTERIOR_PROFILES
10
655.524
20
107.262
30
0
40
1.700
0
CIRCLE
8
INTERIOR_PROFILES
10
655.524
20
491.262
30
0
40
1.700
0
CIRCLE
8
INTERIOR_PROFILES
10
751.524
20
491.262
30
0
40
1.700
0
CIRCLE
8
INTERIOR_PROFILES
10
751.524
20
107.262
30
0
40
1.700
0
CIRCLE
8
INTERIOR_PROFILES
10
751.524
20
459.262
30
0
40
1.700
0
CIRCLE
8
INTERIOR_PROFILES
10
687.524
20
555.262
30
0
40
1.700
0
CIRCLE
8
INTERIOR_PROFILES
10
751.524
20
555.262
30
0
40
1.700
0
CIRCLE
8
INTERIOR_PROFILES
10
751.524
20
267.262
30
0
40
1.700
0
CIRCLE
8
INTERIOR_PROFILES
10
751.524
20
235.262
30
0
40
1.700
0
CIRCLE
8
INTERIOR_PROFILES
10
183.524
20
75.262
30
0
40
1.700
0
CIRCLE
8
INTERIOR_PROFILES
10
751.524
20
331.262
30
0
40
1.700
0
CIRCLE
8
INTERIOR_PROFILES
10
655.524
20
139.262
30
0
40
1.700
0
CIRCLE
8
INTERIOR_PROFILES
10
751.524
20
171.262
30
0
40
1.700
0
CIRCLE
8
INTERIOR_PROFILES
10
183.524
20
331.262
30
0
40
1.700
0
CIRCLE
8
INTERIOR_PROFILES
10
751.524
20
75.262
30
0
40
1.700
0
CIRCLE
8
INTERIOR_PROFILES
10
183.524
20
491.262
30
0
40
1.700
0
CIRCLE
8
INTERIOR_PROFILES
10
655.524
20
555.262
30
0
40
1.700
0
CIRCLE
8
INTERIOR_PROFILES
10
655.524
20
235.262
30
0
40
1.700
0
CIRCLE
8
INTERIOR_PROFILES
10
455.524
20
171.262
30
0
40
1.700
0
CIRCLE
8
INTERIOR_PROFILES
10
455.524
20
491.262
30
0
40
1.700
0
CIRCLE
8
INTERIOR_PROFILES
10
455.524
20
75.262
30
0
40
1.700
0
CIRCLE
8
INTERIOR_PROFILES
10
455.524
20
555.262
30
0
40
1.700
0
CIRCLE
8
INTERIOR_PROFILES
10
455.524
20
331.262
30
0
40
1.700
0
CIRCLE
8
INTERIOR_PROFILES
10
455.524
20
395.262
30
0
40
1.700
0
CIRCLE
8
INTERIOR_PROFILES
10
455.524
20
203.262
30
0
40
1.700
0
CIRCLE
8
INTERIOR_PROFILES
10
655.524
20
523.262
30
0
40
1.700
0
CIRCLE
8
INTERIOR_PROFILES
10
455.524
20
523.262
30
0
40
1.700
0
CIRCLE
8
INTERIOR_PROFILES
10
455.524
20
459.262
30
0
40
1.700
0
CIRCLE
8
INTERIOR_PROFILES
10
655.524
20
171.262
30
0
40
1.700
0
CIRCLE
8
INTERIOR_PROFILES
10
455.524
20
107.262
30
0
40
1.700
0
CIRCLE
8
INTERIOR_PROFILES
10
455.524
20
235.262
30
0
40
1.700
0
CIRCLE
8
INTERIOR_PROFILES
10
419.524
20
555.262
30
0
40
1.700
0
CIRCLE
8
INTERIOR_PROFILES
10
455.524
20
267.262
30
0
40
1.700
0
CIRCLE
8
INTERIOR_PROFILES
10
655.524
20
203.262
30
0
40
1.700
0
CIRCLE
8
INTERIOR_PROFILES
10
387.524
20
555.262
30
0
40
1.700
0
CIRCLE
8
INTERIOR_PROFILES
10
351.524
20
491.262
30
0
40
1.700
0
CIRCLE
8
INTERIOR_PROFILES
10
151.524
20
331.262
30
0
40
1.700
0
CIRCLE
8
INTERIOR_PROFILES
10
351.524
20
139.262
30
0
40
1.700
0
CIRCLE
8
INTERIOR_PROFILES
10
655.524
20
459.262
30
0
40
1.700
0
CIRCLE
8
INTERIOR_PROFILES
10
655.524
20
427.262
30
0
40
1.700
0
CIRCLE
8
INTERIOR_PROFILES
10
655.524
20
395.262
30
0
40
1.700
0
CIRCLE
8
INTERIOR_PROFILES
10
455.524
20
299.262
30
0
40
1.700
0
CIRCLE
8
INTERIOR_PROFILES
10
655.524
20
75.262
30
0
40
1.700
0
CIRCLE
8
INTERIOR_PROFILES
10
455.524
20
363.262
30
0
40
1.700
0
CIRCLE
8
INTERIOR_PROFILES
10
455.524
20
43.262
30
0
40
1.700
0
CIRCLE
8
INTERIOR_PROFILES
10
455.524
20
139.262
30
0
40
1.700
0
CIRCLE
8
INTERIOR_PROFILES
10
455.524
20
427.262
30
0
40
1.700
0
CIRCLE
8
INTERIOR_PROFILES
10
655.524
20
267.262
30
0
40
1.700
0
CIRCLE
8
INTERIOR_PROFILES
10
151.524
20
459.262
30
0
40
1.700
0
CIRCLE
8
INTERIOR_PROFILES
10
151.524
20
395.262
30
0
40
1.700
0
CIRCLE
8
INTERIOR_PROFILES
10
151.524
20
139.262
30
0
40
1.700
0
CIRCLE
8
INTERIOR_PROFILES
10
151.524
20
523.262
30
0
40
1.700
0
CIRCLE
8
INTERIOR_PROFILES
10
351.524
20
299.262
30
0
40
1.700
0
CIRCLE
8
INTERIOR_PROFILES
10
151.524
20
171.262
30
0
40
1.700
0
CIRCLE
8
INTERIOR_PROFILES
10
151.524
20
235.262
30
0
40
1.700
0
CIRCLE
8
INTERIOR_PROFILES
10
151.524
20
75.262
30
0
40
1.700
0
CIRCLE
8
INTERIOR_PROFILES
10
151.524
20
491.262
30
0
40
1.700
0
CIRCLE
8
INTERIOR_PROFILES
10
351.524
20
395.262
30
0
40
1.700
0
CIRCLE
8
INTERIOR_PROFILES
10
151.524
20
299.262
30
0
40
1.700
0
CIRCLE
8
INTERIOR_PROFILES
10
151.524
20
555.262
30
0
40
1.700
0
CIRCLE
8
INTERIOR_PROFILES
10
151.524
20
43.262
30
0
40
1.700
0
CIRCLE
8
INTERIOR_PROFILES
10
351.524
20
331.262
30
0
40
1.700
0
CIRCLE
8
INTERIOR_PROFILES
10
151.524
20
363.262
30
0
40
1.700
0
CIRCLE
8
INTERIOR_PROFILES
10
351.524
20
171.262
30
0
40
1.700
0
CIRCLE
8
INTERIOR_PROFILES
10
351.524
20
203.262
30
0
40
1.700
0
CIRCLE
8
INTERIOR_PROFILES
10
351.524
20
267.262
30
0
40
1.700
0
CIRCLE
8
INTERIOR_PROFILES
10
351.524
20
427.262
30
0
40
1.700
0
CIRCLE
8
INTERIOR_PROFILES
10
151.524
20
267.262
30
0
40
1.700
0
CIRCLE
8
INTERIOR_PROFILES
10
351.524
20
75.262
30
0
40
1.700
0
CIRCLE
8
INTERIOR_PROFILES
10
351.524
20
555.262
30
0
40
1.700
0
CIRCLE
8
INTERIOR_PROFILES
10
351.524
20
235.262
30
0
40
1.700
0
CIRCLE
8
INTERIOR_PROFILES
10
351.524
20
363.262
30
0
40
1.700
0
CIRCLE
8
INTERIOR_PROFILES
10
351.524
20
43.262
30
0
40
1.700
0
CIRCLE
8
INTERIOR_PROFILES
10
151.524
20
427.262
30
0
40
1.700
0
CIRCLE
8
INTERIOR_PROFILES
10
351.524
20
107.262
30
0
40
1.700
0
CIRCLE
8
INTERIOR_PROFILES
10
151.524
20
203.262
30
0
40
1.700
0
CIRCLE
8
INTERIOR_PROFILES
10
351.524
20
523.262
30
0
40
1.700
0
CIRCLE
8
INTERIOR_PROFILES
10
351.524
20
459.262
30
0
40
1.700
0
CIRCLE
8
INTERIOR_PROFILES
10
87.524
20
555.262
30
0
40
1.700
0
CIRCLE
8
INTERIOR_PROFILES
10
151.524
20
107.262
30
0
40
1.700
0
CIRCLE
8
INTERIOR_PROFILES
10
55.524
20
331.262
30
0
40
1.700
0
CIRCLE
8
INTERIOR_PROFILES
10
433.524
20
583.262
30
0
40
1.700
0
CIRCLE
8
INTERIOR_PROFILES
10
103.524
20
29.262
30
0
40
1.700
0
CIRCLE
8
INTERIOR_PROFILES
10
703.524
20
583.262
30
0
40
1.700
0
CIRCLE
8
INTERIOR_PROFILES
10
775.524
20
583.262
30
0
40
1.700
0
CIRCLE
8
INTERIOR_PROFILES
10
403.524
20
29.262
30
0
40
1.700
0
CIRCLE
8
INTERIOR_PROFILES
10
55.524
20
267.262
30
0
40
1.700
0
CIRCLE
8
INTERIOR_PROFILES
10
703.524
20
29.262
30
0
40
1.700
0
CIRCLE
8
INTERIOR_PROFILES
10
55.524
20
555.262
30
0
40
1.700
0
CIRCLE
8
INTERIOR_PROFILES
10
55.524
20
299.262
30
0
40
1.700
0
CIRCLE
8
INTERIOR_PROFILES
10
403.524
20
583.262
30
0
40
1.700
0
CIRCLE
8
INTERIOR_PROFILES
10
103.524
20
583.262
30
0
40
1.700
0
CIRCLE
8
INTERIOR_PROFILES
10
55.524
20
491.262
30
0
40
1.700
0
CIRCLE
8
INTERIOR_PROFILES
10
55.524
20
459.262
30
0
40
1.700
0
CIRCLE
8
INTERIOR_PROFILES
10
55.524
20
203.262
30
0
40
1.700
0
CIRCLE
8
INTERIOR_PROFILES
10
55.524
20
395.262
30
0
40
1.700
0
CIRCLE
8
INTERIOR_PROFILES
10
55.524
20
363.262
30
0
40
1.700
0
CIRCLE
8
INTERIOR_PROFILES
10
773.524
20
565.262
30
0
40
6.500
0
CIRCLE
8
INTERIOR_PROFILES
10
55.524
20
75.262
30
0
40
1.700
0
CIRCLE
8
INTERIOR_PROFILES
10
55.524
20
107.262
30
0
40
1.700
0
CIRCLE
8
INTERIOR_PROFILES
10
31.524
20
583.262
30
0
40
1.700
0
CIRCLE
8
INTERIOR_PROFILES
10
403.524
20
565.262
30
0
40
6.500
0
CIRCLE
8
INTERIOR_PROFILES
10
55.524
20
171.262
30
0
40
1.700
0
CIRCLE
8
INTERIOR_PROFILES
10
55.524
20
523.262
30
0
40
1.700
0
CIRCLE
8
INTERIOR_PROFILES
10
55.524
20
139.262
30
0
40
1.700
0
CIRCLE
8
INTERIOR_PROFILES
10
55.524
20
427.262
30
0
40
1.700
0
CIRCLE
8
INTERIOR_PROFILES
10
55.524
20
235.262
30
0
40
1.700
0
CIRCLE
8
INTERIOR_PROFILES
10
33.524
20
565.262
30
0
40
6.500
0
CIRCLE
8
INTERIOR_PROFILES
10
373.524
20
583.262
30
0
40
1.700
0
CIRCLE
8
INTERIOR_PROFILES
10
387.524
20
363.262
30
0
40
1.700
0
CIRCLE
8
INTERIOR_PROFILES
10
387.524
20
267.262
30
0
40
1.700
0
CIRCLE
8
INTERIOR_PROFILES
10
387.524
20
299.262
30
0
40
1.700
0
CIRCLE
8
INTERIOR_PROFILES
10
387.524
20
107.262
30
0
40
1.700
0
CIRCLE
8
INTERIOR_PROFILES
10
387.524
20
75.262
30
0
40
1.700
0
CIRCLE
8
INTERIOR_PROFILES
10
419.524
20
43.262
30
0
40
1.700
0
CIRCLE
8
INTERIOR_PROFILES
10
387.524
20
235.262
30
0
40
1.700
0
CIRCLE
8
INTERIOR_PROFILES
10
419.524
20
363.262
30
0
40
1.700
0
LWPOLYLINE
8
INTERIOR_PROFILES
90
4
70
1
10
180.524
20
23.500
10
180.524
20
26.262
10
118.524
20
26.262
10
118.524
20
23.500
0
CIRCLE
8
INTERIOR_PROFILES
10
419.524
20
459.262
30
0
40
1.700
0
CIRCLE
8
INTERIOR_PROFILES
10
419.524
20
395.262
30
0
40
1.700
0
CIRCLE
8
INTERIOR_PROFILES
10
387.524
20
491.262
30
0
40
1.700
0
CIRCLE
8
INTERIOR_PROFILES
10
387.524
20
139.262
30
0
40
1.700
0
CIRCLE
8
INTERIOR_PROFILES
10
419.524
20
235.262
30
0
40
1.700
0
LWPOLYLINE
8
INTERIOR_PROFILES
90
4
70
1
10
626.524
20
23.500
10
688.524
20
23.500
10
688.524
20
26.262
10
626.524
20
26.262
0
CIRCLE
8
INTERIOR_PROFILES
10
419.524
20
75.262
30
0
40
1.700
0
CIRCLE
8
INTERIOR_PROFILES
10
387.524
20
523.262
30
0
40
1.700
0
CIRCLE
8
INTERIOR_PROFILES
10
419.524
20
107.262
30
0
40
1.700
0
CIRCLE
8
INTERIOR_PROFILES
10
637.524
20
29.262
30
0
40
1.700
0
CIRCLE
8
INTERIOR_PROFILES
10
30.524
20
17.000
30
0
40
1.700
0
CIRCLE
8
INTERIOR_PROFILES
10
419.524
20
331.262
30
0
40
1.700
0
CIRCLE
8
INTERIOR_PROFILES
10
419.524
20
491.262
30
0
40
1.700
0
CIRCLE
8
INTERIOR_PROFILES
10
419.524
20
171.262
30
0
40
1.700
0
CIRCLE
8
INTERIOR_PROFILES
10
419.524
20
427.262
30
0
40
1.700
0
CIRCLE
8
INTERIOR_PROFILES
10
387.524
20
171.262
30
0
40
1.700
0
CIRCLE
8
INTERIOR_PROFILES
10
387.524
20
427.262
30
0
40
1.700
0
CIRCLE
8
INTERIOR_PROFILES
10
677.524
20
29.262
30
0
40
1.700
0
CIRCLE
8
INTERIOR_PROFILES
10
419.524
20
139.262
30
0
40
1.700
0
CIRCLE
8
INTERIOR_PROFILES
10
387.524
20
331.262
30
0
40
1.700
0
CIRCLE
8
INTERIOR_PROFILES
10
129.524
20
29.262
30
0
40
1.700
0
CIRCLE
8
INTERIOR_PROFILES
10
419.524
20
267.262
30
0
40
1.700
0
CIRCLE
8
INTERIOR_PROFILES
10
387.524
20
203.262
30
0
40
1.700
0
CIRCLE
8
INTERIOR_PROFILES
10
419.524
20
203.262
30
0
40
1.700
0
CIRCLE
8
INTERIOR_PROFILES
10
387.524
20
43.262
30
0
40
1.700
0
CIRCLE
8
INTERIOR_PROFILES
10
387.524
20
459.262
30
0
40
1.700
0
CIRCLE
8
INTERIOR_PROFILES
10
169.524
20
29.262
30
0
40
1.700
0
CIRCLE
8
INTERIOR_PROFILES
10
776.524
20
17.000
30
0
40
1.700
0
CIRCLE
8
INTERIOR_PROFILES
10
419.524
20
299.262
30
0
40
1.700
0
CIRCLE
8
INTERIOR_PROFILES
10
103.524
20
17.000
30
0
40
1.700
0
CIRCLE
8
INTERIOR_PROFILES
10
387.524
20
395.262
30
0
40
1.700
0
CIRCLE
8
INTERIOR_PROFILES
10
403.524
20
17.000
30
0
40
1.700
0
CIRCLE
8
INTERIOR_PROFILES
10
703.524
20
17.000
30
0
40
1.700
0
CIRCLE
8
INTERIOR_PROFILES
10
419.524
20
523.262
30
0
40
1.700
0
CIRCLE
8
INTERIOR_PROFILES
10
14.262
20
53.262
30
0
40
1.700
0
CIRCLE
8
INTERIOR_PROFILES
10
183.524
20
565.262
30
0
40
6.500
0
CIRCLE
8
INTERIOR_PROFILES
10
203.524
20
610.786
30
0
40
1.700
0
CIRCLE
8
INTERIOR_PROFILES
10
623.524
20
565.262
30
0
40
6.500
0
CIRCLE
8
INTERIOR_PROFILES
10
758.524
20
543.262
30
0
40
1.700
0
CIRCLE
8
INTERIOR_PROFILES
10
14.262
20
99.262
30
0
40
1.700
0
CIRCLE
8
INTERIOR_PROFILES
10
26.524
20
543.262
30
0
40
1.700
0
CIRCLE
8
INTERIOR_PROFILES
10
792.786
20
53.262
30
0
40
1.700
0
CIRCLE
8
INTERIOR_PROFILES
10
792.786
20
99.262
30
0
40
1.700
0
CIRCLE
8
INTERIOR_PROFILES
10
14.262
20
489.262
30
0
40
1.700
0
CIRCLE
8
INTERIOR_PROFILES
10
48.524
20
543.262
30
0
40
1.700
0
CIRCLE
8
INTERIOR_PROFILES
10
792.786
20
489.262
30
0
40
1.700
0
CIRCLE
8
INTERIOR_PROFILES
10
780.524
20
543.262
30
0
40
1.700
0
TEXT
8
PART_LABELS
10
1212.500
20
918.000
30
0
40
50.000
1
SD00NA-080000
72
1
73
2
11
1212.500
21
918.000
31
0
0
LINE
8
OUTER_PROFILES
10
830.262
20
1219.786
30
0
11
832.524
21
1219.786
31
0
0
LINE
8
OUTER_PROFILES
10
832.524
20
1219.786
30
0
11
1592.524
21
1219.786
31
0
0
LINE
8
OUTER_PROFILES
10
1592.524
20
1219.786
30
0
11
1594.786
21
1219.786
31
0
0
LINE
8
OUTER_PROFILES
10
1594.786
20
1219.786
30
0
11
1599.715
21
1219.786
31
0
0
LINE
8
OUTER_PROFILES
10
1599.715
20
1219.786
30
0
11
1594.786
21
1214.857
31
0
0
LINE
8
OUTER_PROFILES
10
1594.786
20
1214.857
30
0
11
1592.524
21
1214.786
31
0
0
LINE
8
OUTER_PROFILES
10
1592.524
20
1214.786
30
0
11
1592.524
21
1212.524
31
0
0
LINE
8
OUTER_PROFILES
10
1592.524
20
1212.524
30
0
11
1594.786
21
1212.453
31
0
0
LINE
8
OUTER_PROFILES
10
1594.786
20
1212.453
30
0
11
1599.786
21
1207.453
31
0
0
LINE
8
OUTER_PROFILES
10
1599.786
20
1207.453
30
0
11
1599.786
21
1203.595
31
0
0
LINE
8
OUTER_PROFILES
10
1599.786
20
1203.595
30
0
11
1594.786
21
1198.595
31
0
0
ARC
8
OUTER_PROFILES
10
35274.618
20
-1076213.633
30
0
40
1077938.513
50
91.7905
51
91.7906
0
LINE
8
OUTER_PROFILES
10
1592.524
20
1198.524
30
0
11
1592.524
21
1196.262
31
0
0
ARC
8
OUTER_PROFILES
10
7592.550
20
193093.419
30
0
40
191990.935
50
268.2091
51
268.2098
0
LINE
8
OUTER_PROFILES
10
1594.786
20
1196.191
30
0
11
1599.815
21
1191.162
31
0
0
LINE
8
OUTER_PROFILES
10
1599.815
20
1191.162
30
0
11
1608.786
21
1191.162
31
0
0
LINE
8
OUTER_PROFILES
10
1608.786
20
1191.162
30
0
11
1611.048
21
1191.162
31
0
0
LINE
8
OUTER_PROFILES
10
1611.048
20
1191.162
30
0
11
1616.048
21
1191.162
31
0
0
LINE
8
OUTER_PROFILES
10
1616.048
20
1191.162
30
0
11
1616.048
21
630.262
31
0
0
LINE
8
OUTER_PROFILES
10
1616.048
20
630.262
30
0
11
1594.786
21
630.262
31
0
0
LINE
8
OUTER_PROFILES
10
1594.786
20
630.262
30
0
11
1594.786
21
632.262
31
0
0
LINE
8
OUTER_PROFILES
10
1594.786
20
632.262
30
0
11
1592.524
21
632.262
31
0
0
LINE
8
OUTER_PROFILES
10
1592.524
20
632.262
30
0
11
1592.524
21
630.000
31
0
0
LINE
8
OUTER_PROFILES
10
1592.524
20
630.000
30
0
11
1592.524
21
616.000
31
0
0
LINE
8
OUTER_PROFILES
10
1592.524
20
616.000
30
0
11
832.524
21
616.000
31
0
0
LINE
8
OUTER_PROFILES
10
832.524
20
616.000
30
0
11
832.524
21
630.000
31
0
0
LINE
8
OUTER_PROFILES
10
832.524
20
630.000
30
0
11
832.524
21
632.262
31
0
0
LINE
8
OUTER_PROFILES
10
832.524
20
632.262
30
0
11
830.262
21
632.262
31
0
0
LINE
8
OUTER_PROFILES
10
830.262
20
632.262
30
0
11
830.262
21
630.262
31
0
0
LINE
8
OUTER_PROFILES
10
830.262
20
630.262
30
0
11
809.000
21
630.262
31
0
0
LINE
8
OUTER_PROFILES
10
809.000
20
630.262
30
0
11
809.000
21
1191.162
31
0
0
LINE
8
OUTER_PROFILES
10
809.000
20
1191.162
30
0
11
814.000
21
1191.162
31
0
0
LINE
8
OUTER_PROFILES
10
814.000
20
1191.162
30
0
11
816.262
21
1191.162
31
0
0
LINE
8
OUTER_PROFILES
10
816.262
20
1191.162
30
0
11
825.233
21
1191.162
31
0
0
LINE
8
OUTER_PROFILES
10
825.233
20
1191.162
30
0
11
830.262
21
1196.191
31
0
0
ARC
8
OUTER_PROFILES
10
-5048.184
20
189276.596
30
0
40
188172.247
50
271.7902
51
271.7909
0
LINE
8
OUTER_PROFILES
10
832.524
20
1196.262
30
0
11
832.524
21
1198.524
31
0
0
LINE
8
OUTER_PROFILES
10
832.524
20
1198.524
30
0
11
830.262
21
1198.595
31
0
0
LINE
8
OUTER_PROFILES
10
830.262
20
1198.595
30
0
11
825.262
21
1203.595
31
0
0
LINE
8
OUTER_PROFILES
10
825.262
20
1203.595
30
0
11
825.262
21
1207.453
31
0
0
LINE
8
OUTER_PROFILES
10
825.262
20
1207.453
30
0
11
830.262
21
1212.453
31
0
0
LINE
8
OUTER_PROFILES
10
830.262
20
1212.453
30
0
11
832.524
21
1212.524
31
0
0
LINE
8
OUTER_PROFILES
10
832.524
20
1212.524
30
0
11
832.524
21
1214.786
31
0
0
LINE
8
OUTER_PROFILES
10
832.524
20
1214.786
30
0
11
830.262
21
1214.857
31
0
0
LINE
8
OUTER_PROFILES
10
830.262
20
1214.857
30
0
11
825.333
21
1219.786
31
0
0
LINE
8
OUTER_PROFILES
10
825.333
20
1219.786
30
0
11
830.262
21
1219.786
31
0
0
CIRCLE
8
INTERIOR_PROFILES
10
1512.524
20
1216.786
30
0
40
1.700
0
CIRCLE
8
INTERIOR_PROFILES
10
1112.524
20
1216.786
30
0
40
1.700
0
CIRCLE
8
INTERIOR_PROFILES
10
1312.524
20
1216.786
30
0
40
1.700
0
CIRCLE
8
INTERIOR_PROFILES
10
864.524
20
649.262
30
0
40
1.700
0
CIRCLE
8
INTERIOR_PROFILES
10
1560.524
20
649.262
30
0
40
1.700
0
CIRCLE
8
INTERIOR_PROFILES
10
1601.786
20
888.262
30
0
40
3.250
0
CIRCLE
8
INTERIOR_PROFILES
10
1601.786
20
989.262
30
0
40
1.700
0
CIRCLE
8
INTERIOR_PROFILES
10
1601.786
20
643.262
30
0
40
3.250
0
CIRCLE
8
INTERIOR_PROFILES
10
912.524
20
1216.786
30
0
40
1.700
0
CIRCLE
8
INTERIOR_PROFILES
10
1601.786
20
1143.262
30
0
40
3.250
0
CIRCLE
8
INTERIOR_PROFILES
10
1601.786
20
1111.262
30
0
40
3.250
0
CIRCLE
8
INTERIOR_PROFILES
10
1601.786
20
920.262
30
0
40
3.250
0
CIRCLE
8
INTERIOR_PROFILES
10
1601.786
20
675.262
30
0
40
3.250
0
CIRCLE
8
INTERIOR_PROFILES
10
1601.786
20
811.262
30
0
40
1.700
0
CIRCLE
8
INTERIOR_PROFILES
10
1212.524
20
1216.786
30
0
40
1.700
0
CIRCLE
8
INTERIOR_PROFILES
10
882.524
20
635.262
30
0
40
1.700
0
CIRCLE
8
INTERIOR_PROFILES
10
1601.786
20
1127.262
30
0
40
6.500
0
CIRCLE
8
INTERIOR_PROFILES
10
1601.786
20
633.262
30
0
40
1.700
0
CIRCLE
8
INTERIOR_PROFILES
10
1601.786
20
1167.262
30
0
40
1.700
0
CIRCLE
8
INTERIOR_PROFILES
10
1412.524
20
1216.786
30
0
40
1.700
0
CIRCLE
8
INTERIOR_PROFILES
10
1542.524
20
635.262
30
0
40
1.700
0
CIRCLE
8
INTERIOR_PROFILES
10
1601.786
20
770.762
30
0
40
6.500
0
CIRCLE
8
INTERIOR_PROFILES
10
1601.786
20
1189.262
30
0
40
1.700
0
CIRCLE
8
INTERIOR_PROFILES
10
1601.786
20
942.262
30
0
40
6.500
0
CIRCLE
8
INTERIOR_PROFILES
10
823.262
20
1111.262
30
0
40
3.250
0
CIRCLE
8
INTERIOR_PROFILES
10
823.262
20
675.262
30
0
40
3.250
0
CIRCLE
8
INTERIOR_PROFILES
10
928.524
20
713.262
30
0
40
1.700
0
CIRCLE
8
INTERIOR_PROFILES
10
928.524
20
681.262
30
0
40
1.700
0
CIRCLE
8
INTERIOR_PROFILES
10
1496.524
20
745.262
30
0
40
1.700
0
CIRCLE
8
INTERIOR_PROFILES
10
1496.524
20
809.262
30
0
40
1.700
0
CIRCLE
8
INTERIOR_PROFILES
10
823.262
20
920.262
30
0
40
3.250
0
CIRCLE
8
INTERIOR_PROFILES
10
823.262
20
1189.262
30
0
40
1.700
0
CIRCLE
8
INTERIOR_PROFILES
10
1496.524
20
1129.262
30
0
40
1.700
0
CIRCLE
8
INTERIOR_PROFILES
10
1496.524
20
905.262
30
0
40
1.700
0
CIRCLE
8
INTERIOR_PROFILES
10
1496.524
20
777.262
30
0
40
1.700
0
CIRCLE
8
INTERIOR_PROFILES
10
928.524
20
1129.262
30
0
40
1.700
0
CIRCLE
8
INTERIOR_PROFILES
10
1496.524
20
937.262
30
0
40
1.700
0
CIRCLE
8
INTERIOR_PROFILES
10
823.262
20
888.262
30
0
40
3.250
0
CIRCLE
8
INTERIOR_PROFILES
10
823.262
20
770.762
30
0
40
6.500
0
CIRCLE
8
INTERIOR_PROFILES
10
823.262
20
811.262
30
0
40
1.700
0
CIRCLE
8
INTERIOR_PROFILES
10
823.262
20
942.262
30
0
40
6.500
0
CIRCLE
8
INTERIOR_PROFILES
10
823.262
20
633.262
30
0
40
1.700
0
CIRCLE
8
INTERIOR_PROFILES
10
823.262
20
989.262
30
0
40
1.700
0
CIRCLE
8
INTERIOR_PROFILES
10
823.262
20
1167.262
30
0
40
1.700
0
CIRCLE
8
INTERIOR_PROFILES
10
823.262
20
1143.262
30
0
40
3.250
0
CIRCLE
8
INTERIOR_PROFILES
10
928.524
20
1033.262
30
0
40
1.700
0
CIRCLE
8
INTERIOR_PROFILES
10
1496.524
20
681.262
30
0
40
1.700
0
CIRCLE
8
INTERIOR_PROFILES
10
928.524
20
1097.262
30
0
40
1.700
0
CIRCLE
8
INTERIOR_PROFILES
10
928.524
20
905.262
30
0
40
1.700
0
CIRCLE
8
INTERIOR_PROFILES
10
928.524
20
809.262
30
0
40
1.700
0
CIRCLE
8
INTERIOR_PROFILES
10
928.524
20
649.262
30
0
40
1.700
0
CIRCLE
8
INTERIOR_PROFILES
10
823.262
20
643.262
30
0
40
3.250
0
CIRCLE
8
INTERIOR_PROFILES
10
823.262
20
1127.262
30
0
40
6.500
0
CIRCLE
8
INTERIOR_PROFILES
10
1496.524
20
1065.262
30
0
40
1.700
0
CIRCLE
8
INTERIOR_PROFILES
10
1496.524
20
649.262
30
0
40
1.700
0
CIRCLE
8
INTERIOR_PROFILES
10
1360.524
20
809.262
30
0
40
1.700
0
CIRCLE
8
INTERIOR_PROFILES
10
928.524
20
937.262
30
0
40
1.700
0
CIRCLE
8
INTERIOR_PROFILES
10
1064.524
20
1065.262
30
0
40
1.700
0
CIRCLE
8
INTERIOR_PROFILES
10
1064.524
20
937.262
30
0
40
1.700
0
CIRCLE
8
INTERIOR_PROFILES
10
1360.524
20
1033.262
30
0
40
1.700
0
CIRCLE
8
INTERIOR_PROFILES
10
1360.524
20
905.262
30
0
40
1.700
0
CIRCLE
8
INTERIOR_PROFILES
10
1064.524
20
681.262
30
0
40
1.700
0
CIRCLE
8
INTERIOR_PROFILES
10
1360.524
20
873.262
30
0
40
1.700
0
CIRCLE
8
INTERIOR_PROFILES
10
1064.524
20
1097.262
30
0
40
1.700
0
CIRCLE
8
INTERIOR_PROFILES
10
1360.524
20
937.262
30
0
40
1.700
0
CIRCLE
8
INTERIOR_PROFILES
10
1496.524
20
1033.262
30
0
40
1.700
0
CIRCLE
8
INTERIOR_PROFILES
10
1496.524
20
841.262
30
0
40
1.700
0
CIRCLE
8
INTERIOR_PROFILES
10
1496.524
20
713.262
30
0
40
1.700
0
CIRCLE
8
INTERIOR_PROFILES
10
1496.524
20
1001.262
30
0
40
1.700
0
CIRCLE
8
INTERIOR_PROFILES
10
928.524
20
777.262
30
0
40
1.700
0
CIRCLE
8
INTERIOR_PROFILES
10
928.524
20
1001.262
30
0
40
1.700
0
CIRCLE
8
INTERIOR_PROFILES
10
928.524
20
841.262
30
0
40
1.700
0
CIRCLE
8
INTERIOR_PROFILES
10
1064.524
20
1033.262
30
0
40
1.700
0
CIRCLE
8
INTERIOR_PROFILES
10
1064.524
20
905.262
30
0
40
1.700
0
CIRCLE
8
INTERIOR_PROFILES
10
928.524
20
1065.262
30
0
40
1.700
0
CIRCLE
8
INTERIOR_PROFILES
10
1360.524
20
1097.262
30
0
40
1.700
0
CIRCLE
8
INTERIOR_PROFILES
10
928.524
20
745.262
30
0
40
1.700
0
CIRCLE
8
INTERIOR_PROFILES
10
1496.524
20
969.262
30
0
40
1.700
0
CIRCLE
8
INTERIOR_PROFILES
10
928.524
20
969.262
30
0
40
1.700
0
CIRCLE
8
INTERIOR_PROFILES
10
928.524
20
873.262
30
0
40
1.700
0
CIRCLE
8
INTERIOR_PROFILES
10
1064.524
20
873.262
30
0
40
1.700
0
CIRCLE
8
INTERIOR_PROFILES
10
977.524
20
1189.262
30
0
40
1.700
0
CIRCLE
8
INTERIOR_PROFILES
10
1496.524
20
1097.262
30
0
40
1.700
0
CIRCLE
8
INTERIOR_PROFILES
10
1360.524
20
969.262
30
0
40
1.700
0
CIRCLE
8
INTERIOR_PROFILES
10
1496.524
20
873.262
30
0
40
1.700
0
CIRCLE
8
INTERIOR_PROFILES
10
1360.524
20
649.262
30
0
40
1.700
0
CIRCLE
8
INTERIOR_PROFILES
10
1064.524
20
745.262
30
0
40
1.700
0
CIRCLE
8
INTERIOR_PROFILES
10
1064.524
20
841.262
30
0
40
1.700
0
CIRCLE
8
INTERIOR_PROFILES
10
1064.524
20
777.262
30
0
40
1.700
0
CIRCLE
8
INTERIOR_PROFILES
10
1064.524
20
969.262
30
0
40
1.700
0
CIRCLE
8
INTERIOR_PROFILES
10
1360.524
20
681.262
30
0
40
1.700
0
CIRCLE
8
INTERIOR_PROFILES
10
1064.524
20
1161.262
30
0
40
1.700
0
CIRCLE
8
INTERIOR_PROFILES
10
1360.524
20
1065.262
30
0
40
1.700
0
CIRCLE
8
INTERIOR_PROFILES
10
1417.524
20
1189.262
30
0
40
1.700
0
CIRCLE
8
INTERIOR_PROFILES
10
1296.524
20
681.262
30
0
40
1.700
0
CIRCLE
8
INTERIOR_PROFILES
10
1064.524
20
713.262
30
0
40
1.700
0
CIRCLE
8
INTERIOR_PROFILES
10
1037.524
20
1189.262
30
0
40
1.700
0
CIRCLE
8
INTERIOR_PROFILES
10
1296.524
20
969.262
30
0
40
1.700
0
CIRCLE
8
INTERIOR_PROFILES
10
1387.524
20
1189.262
30
0
40
1.700
0
CIRCLE
8
INTERIOR_PROFILES
10
1007.524
20
1189.262
30
0
40
1.700
0
CIRCLE
8
INTERIOR_PROFILES
10
1360.524
20
777.262
30
0
40
1.700
0
CIRCLE
8
INTERIOR_PROFILES
10
1296.524
20
809.262
30
0
40
1.700
0
CIRCLE
8
INTERIOR_PROFILES
10
1360.524
20
713.262
30
0
40
1.700
0
CIRCLE
8
INTERIOR_PROFILES
10
1360.524
20
745.262
30
0
40
1.700
0
CIRCLE
8
INTERIOR_PROFILES
10
1064.524
20
649.262
30
0
40
1.700
0
CIRCLE
8
INTERIOR_PROFILES
10
1360.524
20
1129.262
30
0
40
1.700
0
CIRCLE
8
INTERIOR_PROFILES
10
1447.524
20
1189.262
30
0
40
1.700
0
CIRCLE
8
INTERIOR_PROFILES
10
1064.524
20
1001.262
30
0
40
1.700
0
CIRCLE
8
INTERIOR_PROFILES
10
1064.524
20
1129.262
30
0
40
1.700
0
CIRCLE
8
INTERIOR_PROFILES
10
1128.524
20
681.262
30
0
40
1.700
0
CIRCLE
8
INTERIOR_PROFILES
10
1064.524
20
809.262
30
0
40
1.700
0
CIRCLE
8
INTERIOR_PROFILES
10
1360.524
20
841.262
30
0
40
1.700
0
CIRCLE
8
INTERIOR_PROFILES
10
1128.524
20
713.262
30
0
40
1.700
0
CIRCLE
8
INTERIOR_PROFILES
10
1128.524
20
745.262
30
0
40
1.700
0
CIRCLE
8
INTERIOR_PROFILES
10
1360.524
20
1161.262
30
0
40
1.700
0
CIRCLE
8
INTERIOR_PROFILES
10
1296.524
20
1129.262
30
0
40
1.700
0
CIRCLE
8
INTERIOR_PROFILES
10
1128.524
20
777.262
30
0
40
1.700
0
CIRCLE
8
INTERIOR_PROFILES
10
1360.524
20
1001.262
30
0
40
1.700
0
CIRCLE
8
INTERIOR_PROFILES
10
1128.524
20
937.262
30
0
40
1.700
0
CIRCLE
8
INTERIOR_PROFILES
10
1296.524
20
713.262
30
0
40
1.700
0
CIRCLE
8
INTERIOR_PROFILES
10
1128.524
20
1065.262
30
0
40
1.700
0
CIRCLE
8
INTERIOR_PROFILES
10
1128.524
20
1129.262
30
0
40
1.700
0
CIRCLE
8
INTERIOR_PROFILES
10
1128.524
20
1097.262
30
0
40
1.700
0
CIRCLE
8
INTERIOR_PROFILES
10
1296.524
20
841.262
30
0
40
1.700
0
CIRCLE
8
INTERIOR_PROFILES
10
1296.524
20
745.262
30
0
40
1.700
0
CIRCLE
8
INTERIOR_PROFILES
10
1296.524
20
873.262
30
0
40
1.700
0
CIRCLE
8
INTERIOR_PROFILES
10
1128.524
20
905.262
30
0
40
1.700
0
CIRCLE
8
INTERIOR_PROFILES
10
1128.524
20
873.262
30
0
40
1.700
0
CIRCLE
8
INTERIOR_PROFILES
10
1128.524
20
1001.262
30
0
40
1.700
0
CIRCLE
8
INTERIOR_PROFILES
10
1296.524
20
1001.262
30
0
40
1.700
0
CIRCLE
8
INTERIOR_PROFILES
10
1328.524
20
1161.262
30
0
40
1.700
0
CIRCLE
8
INTERIOR_PROFILES
10
1112.524
20
1189.262
30
0
40
1.700
0
CIRCLE
8
INTERIOR_PROFILES
10
1312.524
20
1189.262
30
0
40
1.700
0
CIRCLE
8
INTERIOR_PROFILES
10
1296.524
20
1097.262
30
0
40
1.700
0
CIRCLE
8
INTERIOR_PROFILES
10
1296.524
20
937.262
30
0
40
1.700
0
CIRCLE
8
INTERIOR_PROFILES
10
1296.524
20
1161.262
30
0
40
1.700
0
CIRCLE
8
INTERIOR_PROFILES
10
1296.524
20
905.262
30
0
40
1.700
0
CIRCLE
8
INTERIOR_PROFILES
10
1296.524
20
1033.262
30
0
40
1.700
0
CIRCLE
8
INTERIOR_PROFILES
10
1412.524
20
635.262
30
0
40
1.700
0
CIRCLE
8
INTERIOR_PROFILES
10
1296.524
20
777.262
30
0
40
1.700
0
CIRCLE
8
INTERIOR_PROFILES
10
1128.524
20
969.262
30
0
40
1.700
0
CIRCLE
8
INTERIOR_PROFILES
10
1096.524
20
1161.262
30
0
40
1.700
0
CIRCLE
8
INTERIOR_PROFILES
10
1128.524
20
1033.262
30
0
40
1.700
0
CIRCLE
8
INTERIOR_PROFILES
10
1128.524
20
1161.262
30
0
40
1.700
0
CIRCLE
8
INTERIOR_PROFILES
10
1296.524
20
649.262
30
0
40
1.700
0
CIRCLE
8
INTERIOR_PROFILES
10
1128.524
20
809.262
30
0
40
1.700
0
CIRCLE
8
INTERIOR_PROFILES
10
1312.524
20
635.262
30
0
40
1.700
0
CIRCLE
8
INTERIOR_PROFILES
10
1128.524
20
841.262
30
0
40
1.700
0
CIRCLE
8
INTERIOR_PROFILES
10
1128.524
20
649.262
30
0
40
1.700
0
CIRCLE
8
INTERIOR_PROFILES
10
1296.524
20
1065.262
30
0
40
1.700
0
CIRCLE
8
INTERIOR_PROFILES
10
1432.524
20
841.262
30
0
40
1.700
0
CIRCLE
8
INTERIOR_PROFILES
10
1432.524
20
1065.262
30
0
40
1.700
0
CIRCLE
8
INTERIOR_PROFILES
10
992.524
20
809.262
30
0
40
1.700
0
CIRCLE
8
INTERIOR_PROFILES
10
1432.524
20
1129.262
30
0
40
1.700
0
CIRCLE
8
INTERIOR_PROFILES
10
1432.524
20
1161.262
30
0
40
1.700
0
CIRCLE
8
INTERIOR_PROFILES
10
1432.524
20
681.262
30
0
40
1.700
0
CIRCLE
8
INTERIOR_PROFILES
10
992.524
20
841.262
30
0
40
1.700
0
CIRCLE
8
INTERIOR_PROFILES
10
992.524
20
1001.262
30
0
40
1.700
0
CIRCLE
8
INTERIOR_PROFILES
10
992.524
20
969.262
30
0
40
1.700
0
CIRCLE
8
INTERIOR_PROFILES
10
1432.524
20
1001.262
30
0
40
1.700
0
CIRCLE
8
INTERIOR_PROFILES
10
992.524
20
713.262
30
0
40
1.700
0
CIRCLE
8
INTERIOR_PROFILES
10
1432.524
20
745.262
30
0
40
1.700
0
CIRCLE
8
INTERIOR_PROFILES
10
992.524
20
1033.262
30
0
40
1.700
0
CIRCLE
8
INTERIOR_PROFILES
10
992.524
20
905.262
30
0
40
1.700
0
CIRCLE
8
INTERIOR_PROFILES
10
992.524
20
745.262
30
0
40
1.700
0
CIRCLE
8
INTERIOR_PROFILES
10
992.524
20
873.262
30
0
40
1.700
0
CIRCLE
8
INTERIOR_PROFILES
10
1432.524
20
713.262
30
0
40
1.700
0
CIRCLE
8
INTERIOR_PROFILES
10
992.524
20
777.262
30
0
40
1.700
0
CIRCLE
8
INTERIOR_PROFILES
10
1012.524
20
635.262
30
0
40
1.700
0
CIRCLE
8
INTERIOR_PROFILES
10
1432.524
20
809.262
30
0
40
1.700
0
CIRCLE
8
INTERIOR_PROFILES
10
1432.524
20
777.262
30
0
40
1.700
0
CIRCLE
8
INTERIOR_PROFILES
10
992.524
20
1161.262
30
0
40
1.700
0
CIRCLE
8
INTERIOR_PROFILES
10
1432.524
20
649.262
30
0
40
1.700
0
CIRCLE
8
INTERIOR_PROFILES
10
992.524
20
649.262
30
0
40
1.700
0
CIRCLE
8
INTERIOR_PROFILES
10
1432.524
20
905.262
30
0
40
1.700
0
CIRCLE
8
INTERIOR_PROFILES
10
1432.524
20
873.262
30
0
40
1.700
0
CIRCLE
8
INTERIOR_PROFILES
10
1432.524
20
969.262
30
0
40
1.700
0
CIRCLE
8
INTERIOR_PROFILES
10
992.524
20
1129.262
30
0
40
1.700
0
CIRCLE
8
INTERIOR_PROFILES
10
1432.524
20
1097.262
30
0
40
1.700
0
CIRCLE
8
INTERIOR_PROFILES
10
1112.524
20
635.262
30
0
40
1.700
0
CIRCLE
8
INTERIOR_PROFILES
10
1432.524
20
1033.262
30
0
40
1.700
0
CIRCLE
8
INTERIOR_PROFILES
10
1432.524
20
937.262
30
0
40
1.700
0
CIRCLE
8
INTERIOR_PROFILES
10
1560.524
20
1033.262
30
0
40
1.700
0
CIRCLE
8
INTERIOR_PROFILES
10
1560.524
20
1001.262
30
0
40
1.700
0
CIRCLE
8
INTERIOR_PROFILES
10
1582.524
20
635.262
30
0
40
1.700
0
CIRCLE
8
INTERIOR_PROFILES
10
1464.524
20
969.262
30
0
40
1.700
0
CIRCLE
8
INTERIOR_PROFILES
10
1464.524
20
937.262
30
0
40
1.700
0
CIRCLE
8
INTERIOR_PROFILES
10
992.524
20
1065.262
30
0
40
1.700
0
CIRCLE
8
INTERIOR_PROFILES
10
842.524
20
635.262
30
0
40
1.700
0
CIRCLE
8
INTERIOR_PROFILES
10
1560.524
20
969.262
30
0
40
1.700
0
CIRCLE
8
INTERIOR_PROFILES
10
1528.524
20
1161.262
30
0
40
1.700
0
CIRCLE
8
INTERIOR_PROFILES
10
1560.524
20
1129.262
30
0
40
1.700
0
CIRCLE
8
INTERIOR_PROFILES
10
1560.524
20
745.262
30
0
40
1.700
0
CIRCLE
8
INTERIOR_PROFILES
10
1464.524
20
649.262
30
0
40
1.700
0
CIRCLE
8
INTERIOR_PROFILES
10
928.524
20
1161.262
30
0
40
1.700
0
CIRCLE
8
INTERIOR_PROFILES
10
1560.524
20
809.262
30
0
40
1.700
0
CIRCLE
8
INTERIOR_PROFILES
10
1560.524
20
905.262
30
0
40
1.700
0
CIRCLE
8
INTERIOR_PROFILES
10
1464.524
20
905.262
30
0
40
1.700
0
CIRCLE
8
INTERIOR_PROFILES
10
1464.524
20
713.262
30
0
40
1.700
0
CIRCLE
8
INTERIOR_PROFILES
10
1464.524
20
1097.262
30
0
40
1.700
0
CIRCLE
8
INTERIOR_PROFILES
10
1560.524
20
1097.262
30
0
40
1.700
0
CIRCLE
8
INTERIOR_PROFILES
10
1560.524
20
713.262
30
0
40
1.700
0
CIRCLE
8
INTERIOR_PROFILES
10
1560.524
20
1065.262
30
0
40
1.700
0
CIRCLE
8
INTERIOR_PROFILES
10
1496.524
20
1161.262
30
0
40
1.700
0
CIRCLE
8
INTERIOR_PROFILES
10
1560.524
20
1161.262
30
0
40
1.700
0
CIRCLE
8
INTERIOR_PROFILES
10
1560.524
20
873.262
30
0
40
1.700
0
CIRCLE
8
INTERIOR_PROFILES
10
1560.524
20
841.262
30
0
40
1.700
0
CIRCLE
8
INTERIOR_PROFILES
10
992.524
20
681.262
30
0
40
1.700
0
CIRCLE
8
INTERIOR_PROFILES
10
1560.524
20
937.262
30
0
40
1.700
0
CIRCLE
8
INTERIOR_PROFILES
10
1464.524
20
745.262
30
0
40
1.700
0
CIRCLE
8
INTERIOR_PROFILES
10
1560.524
20
777.262
30
0
40
1.700
0
CIRCLE
8
INTERIOR_PROFILES
10
992.524
20
937.262
30
0
40
1.700
0
CIRCLE
8
INTERIOR_PROFILES
10
1560.524
20
681.262
30
0
40
1.700
0
CIRCLE
8
INTERIOR_PROFILES
10
992.524
20
1097.262
30
0
40
1.700
0
CIRCLE
8
INTERIOR_PROFILES
10
1464.524
20
1161.262
30
0
40
1.700
0
CIRCLE
8
INTERIOR_PROFILES
10
1464.524
20
841.262
30
0
40
1.700
0
CIRCLE
8
INTERIOR_PROFILES
10
1264.524
20
777.262
30
0
40
1.700
0
CIRCLE
8
INTERIOR_PROFILES
10
1264.524
20
1097.262
30
0
40
1.700
0
CIRCLE
8
INTERIOR_PROFILES
10
1264.524
20
681.262
30
0
40
1.700
0
CIRCLE
8
INTERIOR_PROFILES
10
1264.524
20
1161.262
30
0
40
1.700
0
CIRCLE
8
INTERIOR_PROFILES
10
1264.524
20
937.262
30
0
40
1.700
0
CIRCLE
8
INTERIOR_PROFILES
10
1264.524
20
1001.262
30
0
40
1.700
0
CIRCLE
8
INTERIOR_PROFILES
10
1264.524
20
809.262
30
0
40
1.700
0
CIRCLE
8
INTERIOR_PROFILES
10
1464.524
20
1129.262
30
0
40
1.700
0
CIRCLE
8
INTERIOR_PROFILES
10
1264.524
20
1129.262
30
0
40
1.700
0
CIRCLE
8
INTERIOR_PROFILES
10
1264.524
20
1065.262
30
0
40
1.700
0
CIRCLE
8
INTERIOR_PROFILES
10
1464.524
20
777.262
30
0
40
1.700
0
CIRCLE
8
INTERIOR_PROFILES
10
1264.524
20
713.262
30
0
40
1.700
0
CIRCLE
8
INTERIOR_PROFILES
10
1264.524
20
841.262
30
0
40
1.700
0
CIRCLE
8
INTERIOR_PROFILES
10
1228.524
20
1161.262
30
0
40
1.700
0
CIRCLE
8
INTERIOR_PROFILES
10
1264.524
20
873.262
30
0
40
1.700
0
CIRCLE
8
INTERIOR_PROFILES
10
1464.524
20
809.262
30
0
40
1.700
0
CIRCLE
8
INTERIOR_PROFILES
10
1196.524
20
1161.262
30
0
40
1.700
0
CIRCLE
8
INTERIOR_PROFILES
10
1160.524
20
1097.262
30
0
40
1.700
0
CIRCLE
8
INTERIOR_PROFILES
10
960.524
20
937.262
30
0
40
1.700
0
CIRCLE
8
INTERIOR_PROFILES
10
1160.524
20
745.262
30
0
40
1.700
0
CIRCLE
8
INTERIOR_PROFILES
10
1464.524
20
1065.262
30
0
40
1.700
0
CIRCLE
8
INTERIOR_PROFILES
10
1464.524
20
1033.262
30
0
40
1.700
0
CIRCLE
8
INTERIOR_PROFILES
10
1464.524
20
1001.262
30
0
40
1.700
0
CIRCLE
8
INTERIOR_PROFILES
10
1264.524
20
905.262
30
0
40
1.700
0
CIRCLE
8
INTERIOR_PROFILES
10
1464.524
20
681.262
30
0
40
1.700
0
CIRCLE
8
INTERIOR_PROFILES
10
1264.524
20
969.262
30
0
40
1.700
0
CIRCLE
8
INTERIOR_PROFILES
10
1264.524
20
649.262
30
0
40
1.700
0
CIRCLE
8
INTERIOR_PROFILES
10
1264.524
20
745.262
30
0
40
1.700
0
CIRCLE
8
INTERIOR_PROFILES
10
1264.524
20
1033.262
30
0
40
1.700
0
CIRCLE
8
INTERIOR_PROFILES
10
1464.524
20
873.262
30
0
40
1.700
0
CIRCLE
8
INTERIOR_PROFILES
10
960.524
20
1065.262
30
0
40
1.700
0
CIRCLE
8
INTERIOR_PROFILES
10
960.524
20
1001.262
30
0
40
1.700
0
CIRCLE
8
INTERIOR_PROFILES
10
960.524
20
745.262
30
0
40
1.700
0
CIRCLE
8
INTERIOR_PROFILES
10
960.524
20
1129.262
30
0
40
1.700
0
CIRCLE
8
INTERIOR_PROFILES
10
1160.524
20
905.262
30
0
40
1.700
0
CIRCLE
8
INTERIOR_PROFILES
10
960.524
20
777.262
30
0
40
1.700
0
CIRCLE
8
INTERIOR_PROFILES
10
960.524
20
841.262
30
0
40
1.700
0
CIRCLE
8
INTERIOR_PROFILES
10
960.524
20
681.262
30
0
40
1.700
0
CIRCLE
8
INTERIOR_PROFILES
10
960.524
20
1097.262
30
0
40
1.700
0
CIRCLE
8
INTERIOR_PROFILES
10
1160.524
20
1001.262
30
0
40
1.700
0
CIRCLE
8
INTERIOR_PROFILES
10
960.524
20
905.262
30
0
40
1.700
0
CIRCLE
8
INTERIOR_PROFILES
10
960.524
20
1161.262
30
0
40
1.700
0
CIRCLE
8
INTERIOR_PROFILES
10
960.524
20
649.262
30
0
40
1.700
0
CIRCLE
8
INTERIOR_PROFILES
10
1160.524
20
937.262
30
0
40
1.700
0
CIRCLE
8
INTERIOR_PROFILES
10
960.524
20
969.262
30
0
40
1.700
0
CIRCLE
8
INTERIOR_PROFILES
10
1160.524
20
777.262
30
0
40
1.700
0
CIRCLE
8
INTERIOR_PROFILES
10
1160.524
20
809.262
30
0
40
1.700
0
CIRCLE
8
INTERIOR_PROFILES
10
1160.524
20
873.262
30
0
40
1.700
0
CIRCLE
8
INTERIOR_PROFILES
10
1160.524
20
1033.262
30
0
40
1.700
0
CIRCLE
8
INTERIOR_PROFILES
10
960.524
20
873.262
30
0
40
1.700
0
CIRCLE
8
INTERIOR_PROFILES
10
1160.524
20
681.262
30
0
40
1.700
0
CIRCLE
8
INTERIOR_PROFILES
10
1160.524
20
1161.262
30
0
40
1.700
0
CIRCLE
8
INTERIOR_PROFILES
10
1160.524
20
841.262
30
0
40
1.700
0
CIRCLE
8
INTERIOR_PROFILES
10
1160.524
20
969.262
30
0
40
1.700
0
CIRCLE
8
INTERIOR_PROFILES
10
1160.524
20
649.262
30
0
40
1.700
0
CIRCLE
8
INTERIOR_PROFILES
10
960.524
20
1033.262
30
0
40
1.700
0
CIRCLE
8
INTERIOR_PROFILES
10
1160.524
20
713.262
30
0
40
1.700
0
CIRCLE
8
INTERIOR_PROFILES
10
960.524
20
809.262
30
0
40
1.700
0
CIRCLE
8
INTERIOR_PROFILES
10
1160.524
20
1129.262
30
0
40
1.700
0
CIRCLE
8
INTERIOR_PROFILES
10
1160.524
20
1065.262
30
0
40
1.700
0
CIRCLE
8
INTERIOR_PROFILES
10
896.524
20
1161.262
30
0
40
1.700
0
CIRCLE
8
INTERIOR_PROFILES
10
960.524
20
713.262
30
0
40
1.700
0
CIRCLE
8
INTERIOR_PROFILES
10
864.524
20
937.262
30
0
40
1.700
0
CIRCLE
8
INTERIOR_PROFILES
10
1242.524
20
1189.262
30
0
40
1.700
0
CIRCLE
8
INTERIOR_PROFILES
10
912.524
20
635.262
30
0
40
1.700
0
CIRCLE
8
INTERIOR_PROFILES
10
1512.524
20
1189.262
30
0
40
1.700
0
CIRCLE
8
INTERIOR_PROFILES
10
1584.524
20
1189.262
30
0
40
1.700
0
CIRCLE
8
INTERIOR_PROFILES
10
1212.524
20
635.262
30
0
40
1.700
0
CIRCLE
8
INTERIOR_PROFILES
10
864.524
20
873.262
30
0
40
1.700
0
CIRCLE
8
INTERIOR_PROFILES
10
1512.524
20
635.262
30
0
40
1.700
0
CIRCLE
8
INTERIOR_PROFILES
10
864.524
20
1161.262
30
0
40
1.700
0
CIRCLE
8
INTERIOR_PROFILES
10
864.524
20
905.262
30
0
40
1.700
0
CIRCLE
8
INTERIOR_PROFILES
10
1212.524
20
1189.262
30
0
40
1.700
0
CIRCLE
8
INTERIOR_PROFILES
10
912.524
20
1189.262
30
0
40
1.700
0
CIRCLE
8
INTERIOR_PROFILES
10
864.524
20
1097.262
30
0
40
1.700
0
CIRCLE
8
INTERIOR_PROFILES
10
864.524
20
1065.262
30
0
40
1.700
0
CIRCLE
8
INTERIOR_PROFILES
10
864.524
20
809.262
30
0
40
1.700
0
CIRCLE
8
INTERIOR_PROFILES
10
864.524
20
1001.262
30
0
40
1.700
0
CIRCLE
8
INTERIOR_PROFILES
10
864.524
20
969.262
30
0
40
1.700
0
CIRCLE
8
INTERIOR_PROFILES
10
1582.524
20
1171.262
30
0
40
6.500
0
CIRCLE
8
INTERIOR_PROFILES
10
864.524
20
681.262
30
0
40
1.700
0
CIRCLE
8
INTERIOR_PROFILES
10
864.524
20
713.262
30
0
40
1.700
0
CIRCLE
8
INTERIOR_PROFILES
10
840.524
20
1189.262
30
0
40
1.700
0
CIRCLE
8
INTERIOR_PROFILES
10
1212.524
20
1171.262
30
0
40
6.500
0
CIRCLE
8
INTERIOR_PROFILES
10
864.524
20
777.262
30
0
40
1.700
0
CIRCLE
8
INTERIOR_PROFILES
10
864.524
20
1129.262
30
0
40
1.700
0
CIRCLE
8
INTERIOR_PROFILES
10
864.524
20
745.262
30
0
40
1.700
0
CIRCLE
8
INTERIOR_PROFILES
10
864.524
20
1033.262
30
0
40
1.700
0
CIRCLE
8
INTERIOR_PROFILES
10
864.524
20
841.262
30
0
40
1.700
0
CIRCLE
8
INTERIOR_PROFILES
10
842.524
20
1171.262
30
0
40
6.500
0
CIRCLE
8
INTERIOR_PROFILES
10
1182.524
20
1189.262
30
0
40
1.700
0
CIRCLE
8
INTERIOR_PROFILES
10
1196.524
20
969.262
30
0
40
1.700
0
CIRCLE
8
INTERIOR_PROFILES
10
1196.524
20
873.262
30
0
40
1.700
0
CIRCLE
8
INTERIOR_PROFILES
10
1196.524
20
905.262
30
0
40
1.700
0
CIRCLE
8
INTERIOR_PROFILES
10
1196.524
20
713.262
30
0
40
1.700
0
CIRCLE
8
INTERIOR_PROFILES
10
1196.524
20
681.262
30
0
40
1.700
0
CIRCLE
8
INTERIOR_PROFILES
10
1228.524
20
649.262
30
0
40
1.700
0
CIRCLE
8
INTERIOR_PROFILES
10
1196.524
20
841.262
30
0
40
1.700
0
CIRCLE
8
INTERIOR_PROFILES
10
1228.524
20
969.262
30
0
40
1.700
0
LWPOLYLINE
8
INTERIOR_PROFILES
90
4
70
1
10
989.524
20
629.500
10
989.524
20
632.262
10
927.524
20
632.262
10
927.524
20
629.500
0
CIRCLE
8
INTERIOR_PROFILES
10
1228.524
20
1065.262
30
0
40
1.700
0
CIRCLE
8
INTERIOR_PROFILES
10
1228.524
20
1001.262
30
0
40
1.700
0
CIRCLE
8
INTERIOR_PROFILES
10
1196.524
20
1097.262
30
0
40
1.700
0
CIRCLE
8
INTERIOR_PROFILES
10
1196.524
20
745.262
30
0
40
1.700
0
CIRCLE
8
INTERIOR_PROFILES
10
1228.524
20
841.262
30
0
40
1.700
0
LWPOLYLINE
8
INTERIOR_PROFILES
90
4
70
1
10
1435.524
20
629.500
10
1497.524
20
629.500
10
1497.524
20
632.262
10
1435.524
20
632.262
0
CIRCLE
8
INTERIOR_PROFILES
10
1228.524
20
681.262
30
0
40
1.700
0
CIRCLE
8
INTERIOR_PROFILES
10
1196.524
20
1129.262
30
0
40
1.700
0
CIRCLE
8
INTERIOR_PROFILES
10
1228.524
20
713.262
30
0
40
1.700
0
CIRCLE
8
INTERIOR_PROFILES
10
1446.524
20
635.262
30
0
40
1.700
0
CIRCLE
8
INTERIOR_PROFILES
10
839.524
20
623.000
30
0
40
1.700
0
CIRCLE
8
INTERIOR_PROFILES
10
1228.524
20
937.262
30
0
40
1.700
0
CIRCLE
8
INTERIOR_PROFILES
10
1228.524
20
1097.262
30
0
40
1.700
0
CIRCLE
8
INTERIOR_PROFILES
10
1228.524
20
777.262
30
0
40
1.700
0
CIRCLE
8
INTERIOR_PROFILES
10
1228.524
20
1033.262
30
0
40
1.700
0
CIRCLE
8
INTERIOR_PROFILES
10
1196.524
20
777.262
30
0
40
1.700
0
CIRCLE
8
INTERIOR_PROFILES
10
1196.524
20
1033.262
30
0
40
1.700
0
CIRCLE
8
INTERIOR_PROFILES
10
1486.524
20
635.262
30
0
40
1.700
0
CIRCLE
8
INTERIOR_PROFILES
10
1228.524
20
745.262
30
0
40
1.700
0
CIRCLE
8
INTERIOR_PROFILES
10
1196.524
20
937.262
30
0
40
1.700
0
CIRCLE
8
INTERIOR_PROFILES
10
938.524
20
635.262
30
0
40
1.700
0
CIRCLE
8
INTERIOR_PROFILES
10
1228.524
20
873.262
30
0
40
1.700
0
CIRCLE
8
INTERIOR_PROFILES
10
1196.524
20
809.262
30
0
40
1.700
0
CIRCLE
8
INTERIOR_PROFILES
10
1228.524
20
809.262
30
0
40
1.700
0
CIRCLE
8
INTERIOR_PROFILES
10
1196.524
20
649.262
30
0
40
1.700
0
CIRCLE
8
INTERIOR_PROFILES
10
1196.524
20
1065.262
30
0
40
1.700
0
CIRCLE
8
INTERIOR_PROFILES
10
978.524
20
635.262
30
0
40
1.700
0
CIRCLE
8
INTERIOR_PROFILES
10
1585.524
20
623.000
30
0
40
1.700
0
CIRCLE
8
INTERIOR_PROFILES
10
1228.524
20
905.262
30
0
40
1.700
0
CIRCLE
8
INTERIOR_PROFILES
10
912.524
20
623.000
30
0
40
1.700
0
CIRCLE
8
INTERIOR_PROFILES
10
1196.524
20
1001.262
30
0
40
1.700
0
CIRCLE
8
INTERIOR_PROFILES
10
1212.524
20
623.000
30
0
40
1.700
0
CIRCLE
8
INTERIOR_PROFILES
10
1512.524
20
623.000
30
0
40
1.700
0
CIRCLE
8
INTERIOR_PROFILES
10
1228.524
20
1129.262
30
0
40
1.700
0
CIRCLE
8
INTERIOR_PROFILES
10
823.262
20
659.262
30
0
40
1.700
0
CIRCLE
8
INTERIOR_PROFILES
10
992.524
20
1171.262
30
0
40
6.500
0
CIRCLE
8
INTERIOR_PROFILES
10
1012.524
20
1216.786
30
0
40
1.700
0
CIRCLE
8
INTERIOR_PROFILES
10
1432.524
20
1171.262
30
0
40
6.500
0
CIRCLE
8
INTERIOR_PROFILES
10
1567.524
20
1149.262
30
0
40
1.700
0
CIRCLE
8
INTERIOR_PROFILES
10
823.262
20
705.262
30
0
40
1.700
0
CIRCLE
8
INTERIOR_PROFILES
10
835.524
20
1149.262
30
0
40
1.700
0
CIRCLE
8
INTERIOR_PROFILES
10
1601.786
20
659.262
30
0
40
1.700
0
CIRCLE
8
INTERIOR_PROFILES
10
1601.786
20
705.262
30
0
40
1.700
0
CIRCLE
8
INTERIOR_PROFILES
10
823.262
20
1095.262
30
0
40
1.700
0
CIRCLE
8
INTERIOR_PROFILES
10
857.524
20
1149.262
30
0
40
1.700
0
CIRCLE
8
INTERIOR_PROFILES
10
1601.786
20
1095.262
30
0
40
1.700
0
CIRCLE
8
INTERIOR_PROFILES
10
1589.524
20
1149.262
30
0
40
1.700
0
TEXT
8
PART_LABELS
10
1212.500
20
312.000
30
0
40
50.000
1
SD00NA-080000
72
1
73
2
11
1212.500
21
312.000
31
0
0
LINE
8
OUTER_PROFILES
10
830.262
20
613.786
30
0
11
832.524
21
613.786
31
0
0
LINE
8
OUTER_PROFILES
10
832.524
20
613.786
30
0
11
1592.524
21
613.786
31
0
0
LINE
8
OUTER_PROFILES
10
1592.524
20
613.786
30
0
11
1594.786
21
613.786
31
0
0
LINE
8
OUTER_PROFILES
10
1594.786
20
613.786
30
0
11
1599.715
21
613.786
31
0
0
LINE
8
OUTER_PROFILES
10
1599.715
20
613.786
30
0
11
1594.786
21
608.857
31
0
0
LINE
8
OUTER_PROFILES
10
1594.786
20
608.857
30
0
11
1592.524
21
608.786
31
0
0
LINE
8
OUTER_PROFILES
10
1592.524
20
608.786
30
0
11
1592.524
21
606.524
31
0
0
LINE
8
OUTER_PROFILES
10
1592.524
20
606.524
30
0
11
1594.786
21
606.453
31
0
0
LINE
8
OUTER_PROFILES
10
1594.786
20
606.453
30
0
11
1599.786
21
601.453
31
0
0
LINE
8
OUTER_PROFILES
10
1599.786
20
601.453
30
0
11
1599.786
21
597.595
31
0
0
LINE
8
OUTER_PROFILES
10
1599.786
20
597.595
30
0
11
1594.786
21
592.595
31
0
0
ARC
8
OUTER_PROFILES
10
35274.625
20
-1076819.843
30
0
40
1077938.723
50
91.7905
51
91.7906
0
LINE
8
OUTER_PROFILES
10
1592.524
20
592.524
30
0
11
1592.524
21
590.262
31
0
0
ARC
8
OUTER_PROFILES
10
7592.550
20
192487.419
30
0
40
191990.935
50
268.2091
51
268.2098
0
LINE
8
OUTER_PROFILES
10
1594.786
20
590.191
30
0
11
1599.815
21
585.162
31
0
0
LINE
8
OUTER_PROFILES
10
1599.815
20
585.162
30
0
11
1608.786
21
585.162
31
0
0
LINE
8
OUTER_PROFILES
10
1608.786
20
585.162
30
0
11
1611.048
21
585.162
31
0
0
LINE
8
OUTER_PROFILES
10
1611.048
20
585.162
30
0
11
1616.048
21
585.162
31
0
0
LINE
8
OUTER_PROFILES
10
1616.048
20
585.162
30
0
11
1616.048
21
24.262
31
0
0
LINE
8
OUTER_PROFILES
10
1616.048
20
24.262
30
0
11
1594.786
21
24.262
31
0
0
LINE
8
OUTER_PROFILES
10
1594.786
20
24.262
30
0
11
1594.786
21
26.262
31
0
0
LINE
8
OUTER_PROFILES
10
1594.786
20
26.262
30
0
11
1592.524
21
26.262
31
0
0
LINE
8
OUTER_PROFILES
10
1592.524
20
26.262
30
0
11
1592.524
21
24.000
31
0
0
LINE
8
OUTER_PROFILES
10
1592.524
20
24.000
30
0
11
1592.524
21
10.000
31
0
0
LINE
8
OUTER_PROFILES
10
1592.524
20
10.000
30
0
11
832.524
21
10.000
31
0
0
LINE
8
OUTER_PROFILES
10
832.524
20
10.000
30
0
11
832.524
21
24.000
31
0
0
LINE
8
OUTER_PROFILES
10
832.524
20
24.000
30
0
11
832.524
21
26.262
31
0
0
LINE
8
OUTER_PROFILES
10
832.524
20
26.262
30
0
11
830.262
21
26.262
31
0
0
LINE
8
OUTER_PROFILES
10
830.262
20
26.262
30
0
11
830.262
21
24.262
31
0
0
LINE
8
OUTER_PROFILES
10
830.262
20
24.262
30
0
11
809.000
21
24.262
31
0
0
LINE
8
OUTER_PROFILES
10
809.000
20
24.262
30
0
11
809.000
21
585.162
31
0
0
LINE
8
OUTER_PROFILES
10
809.000
20
585.162
30
0
11
814.000
21
585.162
31
0
0
LINE
8
OUTER_PROFILES
10
814.000
20
585.162
30
0
11
816.262
21
585.162
31
0
0
LINE
8
OUTER_PROFILES
10
816.262
20
585.162
30
0
11
825.233
21
585.162
31
0
0
LINE
8
OUTER_PROFILES
10
825.233
20
585.162
30
0
11
830.262
21
590.191
31
0
0
ARC
8
OUTER_PROFILES
10
-5048.184
20
188670.589
30
0
40
188172.241
50
271.7902
51
271.7909
0
LINE
8
OUTER_PROFILES
10
832.524
20
590.262
30
0
11
832.524
21
592.524
31
0
0
LINE
8
OUTER_PROFILES
10
832.524
20
592.524
30
0
11
830.262
21
592.595
31
0
0
LINE
8
OUTER_PROFILES
10
830.262
20
592.595
30
0
11
825.262
21
597.595
31
0
0
LINE
8
OUTER_PROFILES
10
825.262
20
597.595
30
0
11
825.262
21
601.453
31
0
0
LINE
8
OUTER_PROFILES
10
825.262
20
601.453
30
0
11
830.262
21
606.453
31
0
0
LINE
8
OUTER_PROFILES
10
830.262
20
606.453
30
0
11
832.524
21
606.524
31
0
0
LINE
8
OUTER_PROFILES
10
832.524
20
606.524
30
0
11
832.524
21
608.786
31
0
0
LINE
8
OUTER_PROFILES
10
832.524
20
608.786
30
0
11
830.262
21
608.857
31
0
0
LINE
8
OUTER_PROFILES
10
830.262
20
608.857
30
0
11
825.333
21
613.786
31
0
0
LINE
8
OUTER_PROFILES
10
825.333
20
613.786
30
0
11
830.262
21
613.786
31
0
0
CIRCLE
8
INTERIOR_PROFILES
10
1512.524
20
610.786
30
0
40
1.700
0
CIRCLE
8
INTERIOR_PROFILES
10
1112.524
20
610.786
30
0
40
1.700
0
CIRCLE
8
INTERIOR_PROFILES
10
1312.524
20
610.786
30
0
40
1.700
0
CIRCLE
8
INTERIOR_PROFILES
10
864.524
20
43.262
30
0
40
1.700
0
CIRCLE
8
INTERIOR_PROFILES
10
1560.524
20
43.262
30
0
40
1.700
0
CIRCLE
8
INTERIOR_PROFILES
10
1601.786
20
282.262
30
0
40
3.250
0
CIRCLE
8
INTERIOR_PROFILES
10
1601.786
20
383.262
30
0
40
1.700
0
CIRCLE
8
INTERIOR_PROFILES
10
1601.786
20
37.262
30
0
40
3.250
0
CIRCLE
8
INTERIOR_PROFILES
10
912.524
20
610.786
30
0
40
1.700
0
CIRCLE
8
INTERIOR_PROFILES
10
1601.786
20
537.262
30
0
40
3.250
0
CIRCLE
8
INTERIOR_PROFILES
10
1601.786
20
505.262
30
0
40
3.250
0
CIRCLE
8
INTERIOR_PROFILES
10
1601.786
20
314.262
30
0
40
3.250
0
CIRCLE
8
INTERIOR_PROFILES
10
1601.786
20
69.262
30
0
40
3.250
0
CIRCLE
8
INTERIOR_PROFILES
10
1601.786
20
205.262
30
0
40
1.700
0
CIRCLE
8
INTERIOR_PROFILES
10
1212.524
20
610.786
30
0
40
1.700
0
CIRCLE
8
INTERIOR_PROFILES
10
882.524
20
29.262
30
0
40
1.700
0
CIRCLE
8
INTERIOR_PROFILES
10
1601.786
20
521.262
30
0
40
6.500
0
CIRCLE
8
INTERIOR_PROFILES
10
1601.786
20
27.262
30
0
40
1.700
0
CIRCLE
8
INTERIOR_PROFILES
10
1601.786
20
561.262
30
0
40
1.700
0
CIRCLE
8
INTERIOR_PROFILES
10
1412.524
20
610.786
30
0
40
1.700
0
CIRCLE
8
INTERIOR_PROFILES
10
1542.524
20
29.262
30
0
40
1.700
0
CIRCLE
8
INTERIOR_PROFILES
10
1601.786
20
164.762
30
0
40
6.500
0
CIRCLE
8
INTERIOR_PROFILES
10
1601.786
20
583.262
30
0
40
1.700
0
CIRCLE
8
INTERIOR_PROFILES
10
1601.786
20
336.262
30
0
40
6.500
0
CIRCLE
8
INTERIOR_PROFILES
10
823.262
20
505.262
30
0
40
3.250
0
CIRCLE
8
INTERIOR_PROFILES
10
823.262
20
69.262
30
0
40
3.250
0
CIRCLE
8
INTERIOR_PROFILES
10
928.524
20
107.262
30
0
40
1.700
0
CIRCLE
8
INTERIOR_PROFILES
10
928.524
20
75.262
30
0
40
1.700
0
CIRCLE
8
INTERIOR_PROFILES
10
1496.524
20
139.262
30
0
40
1.700
0
CIRCLE
8
INTERIOR_PROFILES
10
1496.524
20
203.262
30
0
40
1.700
0
CIRCLE
8
INTERIOR_PROFILES
10
823.262
20
314.262
30
0
40
3.250
0
CIRCLE
8
INTERIOR_PROFILES
10
823.262
20
583.262
30
0
40
1.700
0
CIRCLE
8
INTERIOR_PROFILES
10
1496.524
20
523.262
30
0
40
1.700
0
CIRCLE
8
INTERIOR_PROFILES
10
1496.524
20
299.262
30
0
40
1.700
0
CIRCLE
8
INTERIOR_PROFILES
10
1496.524
20
171.262
30
0
40
1.700
0
CIRCLE
8
INTERIOR_PROFILES
10
928.524
20
523.262
30
0
40
1.700
0
CIRCLE
8
INTERIOR_PROFILES
10
1496.524
20
331.262
30
0
40
1.700
0
CIRCLE
8
INTERIOR_PROFILES
10
823.262
20
282.262
30
0
40
3.250
0
CIRCLE
8
INTERIOR_PROFILES
10
823.262
20
164.762
30
0
40
6.500
0
CIRCLE
8
INTERIOR_PROFILES
10
823.262
20
205.262
30
0
40
1.700
0
CIRCLE
8
INTERIOR_PROFILES
10
823.262
20
336.262
30
0
40
6.500
0
CIRCLE
8
INTERIOR_PROFILES
10
823.262
20
27.262
30
0
40
1.700
0
CIRCLE
8
INTERIOR_PROFILES
10
823.262
20
383.262
30
0
40
1.700
0
CIRCLE
8
INTERIOR_PROFILES
10
823.262
20
561.262
30
0
40
1.700
0
CIRCLE
8
INTERIOR_PROFILES
10
823.262
20
537.262
30
0
40
3.250
0
CIRCLE
8
INTERIOR_PROFILES
10
928.524
20
427.262
30
0
40
1.700
0
CIRCLE
8
INTERIOR_PROFILES
10
1496.524
20
75.262
30
0
40
1.700
0
CIRCLE
8
INTERIOR_PROFILES
10
928.524
20
491.262
30
0
40
1.700
0
CIRCLE
8
INTERIOR_PROFILES
10
928.524
20
299.262
30
0
40
1.700
0
CIRCLE
8
INTERIOR_PROFILES
10
928.524
20
203.262
30
0
40
1.700
0
CIRCLE
8
INTERIOR_PROFILES
10
928.524
20
43.262
30
0
40
1.700
0
CIRCLE
8
INTERIOR_PROFILES
10
823.262
20
37.262
30
0
40
3.250
0
CIRCLE
8
INTERIOR_PROFILES
10
823.262
20
521.262
30
0
40
6.500
0
CIRCLE
8
INTERIOR_PROFILES
10
1496.524
20
459.262
30
0
40
1.700
0
CIRCLE
8
INTERIOR_PROFILES
10
1496.524
20
43.262
30
0
40
1.700
0
CIRCLE
8
INTERIOR_PROFILES
10
1360.524
20
203.262
30
0
40
1.700
0
CIRCLE
8
INTERIOR_PROFILES
10
928.524
20
331.262
30
0
40
1.700
0
CIRCLE
8
INTERIOR_PROFILES
10
1064.524
20
459.262
30
0
40
1.700
0
CIRCLE
8
INTERIOR_PROFILES
10
1064.524
20
331.262
30
0
40
1.700
0
CIRCLE
8
INTERIOR_PROFILES
10
1360.524
20
427.262
30
0
40
1.700
0
CIRCLE
8
INTERIOR_PROFILES
10
1360.524
20
299.262
30
0
40
1.700
0
CIRCLE
8
INTERIOR_PROFILES
10
1064.524
20
75.262
30
0
40
1.700
0
CIRCLE
8
INTERIOR_PROFILES
10
1360.524
20
267.262
30
0
40
1.700
0
CIRCLE
8
INTERIOR_PROFILES
10
1064.524
20
491.262
30
0
40
1.700
0
CIRCLE
8
INTERIOR_PROFILES
10
1360.524
20
331.262
30
0
40
1.700
0
CIRCLE
8
INTERIOR_PROFILES
10
1496.524
20
427.262
30
0
40
1.700
0
CIRCLE
8
INTERIOR_PROFILES
10
1496.524
20
235.262
30
0
40
1.700
0
CIRCLE
8
INTERIOR_PROFILES
10
1496.524
20
107.262
30
0
40
1.700
0
CIRCLE
8
INTERIOR_PROFILES
10
1496.524
20
395.262
30
0
40
1.700
0
CIRCLE
8
INTERIOR_PROFILES
10
928.524
20
171.262
30
0
40
1.700
0
CIRCLE
8
INTERIOR_PROFILES
10
928.524
20
395.262
30
0
40
1.700
0
CIRCLE
8
INTERIOR_PROFILES
10
928.524
20
235.262
30
0
40
1.700
0
CIRCLE
8
INTERIOR_PROFILES
10
1064.524
20
427.262
30
0
40
1.700
0
CIRCLE
8
INTERIOR_PROFILES
10
1064.524
20
299.262
30
0
40
1.700
0
CIRCLE
8
INTERIOR_PROFILES
10
928.524
20
459.262
30
0
40
1.700
0
CIRCLE
8
INTERIOR_PROFILES
10
1360.524
20
491.262
30
0
40
1.700
0
CIRCLE
8
INTERIOR_PROFILES
10
928.524
20
139.262
30
0
40
1.700
0
CIRCLE
8
INTERIOR_PROFILES
10
1496.524
20
363.262
30
0
40
1.700
0
CIRCLE
8
INTERIOR_PROFILES
10
928.524
20
363.262
30
0
40
1.700
0
CIRCLE
8
INTERIOR_PROFILES
10
928.524
20
267.262
30
0
40
1.700
0
CIRCLE
8
INTERIOR_PROFILES
10
1064.524
20
267.262
30
0
40
1.700
0
CIRCLE
8
INTERIOR_PROFILES
10
977.524
20
583.262
30
0
40
1.700
0
CIRCLE
8
INTERIOR_PROFILES
10
1496.524
20
491.262
30
0
40
1.700
0
CIRCLE
8
INTERIOR_PROFILES
10
1360.524
20
363.262
30
0
40
1.700
0
CIRCLE
8
INTERIOR_PROFILES
10
1496.524
20
267.262
30
0
40
1.700
0
CIRCLE
8
INTERIOR_PROFILES
10
1360.524
20
43.262
30
0
40
1.700
0
CIRCLE
8
INTERIOR_PROFILES
10
1064.524
20
139.262
30
0
40
1.700
0
CIRCLE
8
INTERIOR_PROFILES
10
1064.524
20
235.262
30
0
40
1.700
0
CIRCLE
8
INTERIOR_PROFILES
10
1064.524
20
171.262
30
0
40
1.700
0
CIRCLE
8
INTERIOR_PROFILES
10
1064.524
20
363.262
30
0
40
1.700
0
CIRCLE
8
INTERIOR_PROFILES
10
1360.524
20
75.262
30
0
40
1.700
0
CIRCLE
8
INTERIOR_PROFILES
10
1064.524
20
555.262
30
0
40
1.700
0
CIRCLE
8
INTERIOR_PROFILES
10
1360.524
20
459.262
30
0
40
1.700
0
CIRCLE
8
INTERIOR_PROFILES
10
1417.524
20
583.262
30
0
40
1.700
0
CIRCLE
8
INTERIOR_PROFILES
10
1296.524
20
75.262
30
0
40
1.700
0
CIRCLE
8
INTERIOR_PROFILES
10
1064.524
20
107.262
30
0
40
1.700
0
CIRCLE
8
INTERIOR_PROFILES
10
1037.524
20
583.262
30
0
40
1.700
0
CIRCLE
8
INTERIOR_PROFILES
10
1296.524
20
363.262
30
0
40
1.700
0
CIRCLE
8
INTERIOR_PROFILES
10
1387.524
20
583.262
30
0
40
1.700
0
CIRCLE
8
INTERIOR_PROFILES
10
1007.524
20
583.262
30
0
40
1.700
0
CIRCLE
8
INTERIOR_PROFILES
10
1360.524
20
171.262
30
0
40
1.700
0
CIRCLE
8
INTERIOR_PROFILES
10
1296.524
20
203.262
30
0
40
1.700
0
CIRCLE
8
INTERIOR_PROFILES
10
1360.524
20
107.262
30
0
40
1.700
0
CIRCLE
8
INTERIOR_PROFILES
10
1360.524
20
139.262
30
0
40
1.700
0
CIRCLE
8
INTERIOR_PROFILES
10
1064.524
20
43.262
30
0
40
1.700
0
CIRCLE
8
INTERIOR_PROFILES
10
1360.524
20
523.262
30
0
40
1.700
0
CIRCLE
8
INTERIOR_PROFILES
10
1447.524
20
583.262
30
0
40
1.700
0
CIRCLE
8
INTERIOR_PROFILES
10
1064.524
20
395.262
30
0
40
1.700
0
CIRCLE
8
INTERIOR_PROFILES
10
1064.524
20
523.262
30
0
40
1.700
0
CIRCLE
8
INTERIOR_PROFILES
10
1128.524
20
75.262
30
0
40
1.700
0
CIRCLE
8
INTERIOR_PROFILES
10
1064.524
20
203.262
30
0
40
1.700
0
CIRCLE
8
INTERIOR_PROFILES
10
1360.524
20
235.262
30
0
40
1.700
0
CIRCLE
8
INTERIOR_PROFILES
10
1128.524
20
107.262
30
0
40
1.700
0
CIRCLE
8
INTERIOR_PROFILES
10
1128.524
20
139.262
30
0
40
1.700
0
CIRCLE
8
INTERIOR_PROFILES
10
1360.524
20
555.262
30
0
40
1.700
0
CIRCLE
8
INTERIOR_PROFILES
10
1296.524
20
523.262
30
0
40
1.700
0
CIRCLE
8
INTERIOR_PROFILES
10
1128.524
20
171.262
30
0
40
1.700
0
CIRCLE
8
INTERIOR_PROFILES
10
1360.524
20
395.262
30
0
40
1.700
0
CIRCLE
8
INTERIOR_PROFILES
10
1128.524
20
331.262
30
0
40
1.700
0
CIRCLE
8
INTERIOR_PROFILES
10
1296.524
20
107.262
30
0
40
1.700
0
CIRCLE
8
INTERIOR_PROFILES
10
1128.524
20
459.262
30
0
40
1.700
0
CIRCLE
8
INTERIOR_PROFILES
10
1128.524
20
523.262
30
0
40
1.700
0
CIRCLE
8
INTERIOR_PROFILES
10
1128.524
20
491.262
30
0
40
1.700
0
CIRCLE
8
INTERIOR_PROFILES
10
1296.524
20
235.262
30
0
40
1.700
0
CIRCLE
8
INTERIOR_PROFILES
10
1296.524
20
139.262
30
0
40
1.700
0
CIRCLE
8
INTERIOR_PROFILES
10
1296.524
20
267.262
30
0
40
1.700
0
CIRCLE
8
INTERIOR_PROFILES
10
1128.524
20
299.262
30
0
40
1.700
0
CIRCLE
8
INTERIOR_PROFILES
10
1128.524
20
267.262
30
0
40
1.700
0
CIRCLE
8
INTERIOR_PROFILES
10
1128.524
20
395.262
30
0
40
1.700
0
CIRCLE
8
INTERIOR_PROFILES
10
1296.524
20
395.262
30
0
40
1.700
0
CIRCLE
8
INTERIOR_PROFILES
10
1328.524
20
555.262
30
0
40
1.700
0
CIRCLE
8
INTERIOR_PROFILES
10
1112.524
20
583.262
30
0
40
1.700
0
CIRCLE
8
INTERIOR_PROFILES
10
1312.524
20
583.262
30
0
40
1.700
0
CIRCLE
8
INTERIOR_PROFILES
10
1296.524
20
491.262
30
0
40
1.700
0
CIRCLE
8
INTERIOR_PROFILES
10
1296.524
20
331.262
30
0
40
1.700
0
CIRCLE
8
INTERIOR_PROFILES
10
1296.524
20
555.262
30
0
40
1.700
0
CIRCLE
8
INTERIOR_PROFILES
10
1296.524
20
299.262
30
0
40
1.700
0
CIRCLE
8
INTERIOR_PROFILES
10
1296.524
20
427.262
30
0
40
1.700
0
CIRCLE
8
INTERIOR_PROFILES
10
1412.524
20
29.262
30
0
40
1.700
0
CIRCLE
8
INTERIOR_PROFILES
10
1296.524
20
171.262
30
0
40
1.700
0
CIRCLE
8
INTERIOR_PROFILES
10
1128.524
20
363.262
30
0
40
1.700
0
CIRCLE
8
INTERIOR_PROFILES
10
1096.524
20
555.262
30
0
40
1.700
0
CIRCLE
8
INTERIOR_PROFILES
10
1128.524
20
427.262
30
0
40
1.700
0
CIRCLE
8
INTERIOR_PROFILES
10
1128.524
20
555.262
30
0
40
1.700
0
CIRCLE
8
INTERIOR_PROFILES
10
1296.524
20
43.262
30
0
40
1.700
0
CIRCLE
8
INTERIOR_PROFILES
10
1128.524
20
203.262
30
0
40
1.700
0
CIRCLE
8
INTERIOR_PROFILES
10
1312.524
20
29.262
30
0
40
1.700
0
CIRCLE
8
INTERIOR_PROFILES
10
1128.524
20
235.262
30
0
40
1.700
0
CIRCLE
8
INTERIOR_PROFILES
10
1128.524
20
43.262
30
0
40
1.700
0
CIRCLE
8
INTERIOR_PROFILES
10
1296.524
20
459.262
30
0
40
1.700
0
CIRCLE
8
INTERIOR_PROFILES
10
1432.524
20
235.262
30
0
40
1.700
0
CIRCLE
8
INTERIOR_PROFILES
10
1432.524
20
459.262
30
0
40
1.700
0
CIRCLE
8
INTERIOR_PROFILES
10
992.524
20
203.262
30
0
40
1.700
0
CIRCLE
8
INTERIOR_PROFILES
10
1432.524
20
523.262
30
0
40
1.700
0
CIRCLE
8
INTERIOR_PROFILES
10
1432.524
20
555.262
30
0
40
1.700
0
CIRCLE
8
INTERIOR_PROFILES
10
1432.524
20
75.262
30
0
40
1.700
0
CIRCLE
8
INTERIOR_PROFILES
10
992.524
20
235.262
30
0
40
1.700
0
CIRCLE
8
INTERIOR_PROFILES
10
992.524
20
395.262
30
0
40
1.700
0
CIRCLE
8
INTERIOR_PROFILES
10
992.524
20
363.262
30
0
40
1.700
0
CIRCLE
8
INTERIOR_PROFILES
10
1432.524
20
395.262
30
0
40
1.700
0
CIRCLE
8
INTERIOR_PROFILES
10
992.524
20
107.262
30
0
40
1.700
0
CIRCLE
8
INTERIOR_PROFILES
10
1432.524
20
139.262
30
0
40
1.700
0
CIRCLE
8
INTERIOR_PROFILES
10
992.524
20
427.262
30
0
40
1.700
0
CIRCLE
8
INTERIOR_PROFILES
10
992.524
20
299.262
30
0
40
1.700
0
CIRCLE
8
INTERIOR_PROFILES
10
992.524
20
139.262
30
0
40
1.700
0
CIRCLE
8
INTERIOR_PROFILES
10
992.524
20
267.262
30
0
40
1.700
0
CIRCLE
8
INTERIOR_PROFILES
10
1432.524
20
107.262
30
0
40
1.700
0
CIRCLE
8
INTERIOR_PROFILES
10
992.524
20
171.262
30
0
40
1.700
0
CIRCLE
8
INTERIOR_PROFILES
10
1012.524
20
29.262
30
0
40
1.700
0
CIRCLE
8
INTERIOR_PROFILES
10
1432.524
20
203.262
30
0
40
1.700
0
CIRCLE
8
INTERIOR_PROFILES
10
1432.524
20
171.262
30
0
40
1.700
0
CIRCLE
8
INTERIOR_PROFILES
10
992.524
20
555.262
30
0
40
1.700
0
CIRCLE
8
INTERIOR_PROFILES
10
1432.524
20
43.262
30
0
40
1.700
0
CIRCLE
8
INTERIOR_PROFILES
10
992.524
20
43.262
30
0
40
1.700
0
CIRCLE
8
INTERIOR_PROFILES
10
1432.524
20
299.262
30
0
40
1.700
0
CIRCLE
8
INTERIOR_PROFILES
10
1432.524
20
267.262
30
0
40
1.700
0
CIRCLE
8
INTERIOR_PROFILES
10
1432.524
20
363.262
30
0
40
1.700
0
CIRCLE
8
INTERIOR_PROFILES
10
992.524
20
523.262
30
0
40
1.700
0
CIRCLE
8
INTERIOR_PROFILES
10
1432.524
20
491.262
30
0
40
1.700
0
CIRCLE
8
INTERIOR_PROFILES
10
1112.524
20
29.262
30
0
40
1.700
0
CIRCLE
8
INTERIOR_PROFILES
10
1432.524
20
427.262
30
0
40
1.700
0
CIRCLE
8
INTERIOR_PROFILES
10
1432.524
20
331.262
30
0
40
1.700
0
CIRCLE
8
INTERIOR_PROFILES
10
1560.524
20
427.262
30
0
40
1.700
0
CIRCLE
8
INTERIOR_PROFILES
10
1560.524
20
395.262
30
0
40
1.700
0
CIRCLE
8
INTERIOR_PROFILES
10
1582.524
20
29.262
30
0
40
1.700
0
CIRCLE
8
INTERIOR_PROFILES
10
1464.524
20
363.262
30
0
40
1.700
0
CIRCLE
8
INTERIOR_PROFILES
10
1464.524
20
331.262
30
0
40
1.700
0
CIRCLE
8
INTERIOR_PROFILES
10
992.524
20
459.262
30
0
40
1.700
0
CIRCLE
8
INTERIOR_PROFILES
10
842.524
20
29.262
30
0
40
1.700
0
CIRCLE
8
INTERIOR_PROFILES
10
1560.524
20
363.262
30
0
40
1.700
0
CIRCLE
8
INTERIOR_PROFILES
10
1528.524
20
555.262
30
0
40
1.700
0
CIRCLE
8
INTERIOR_PROFILES
10
1560.524
20
523.262
30
0
40
1.700
0
CIRCLE
8
INTERIOR_PROFILES
10
1560.524
20
139.262
30
0
40
1.700
0
CIRCLE
8
INTERIOR_PROFILES
10
1464.524
20
43.262
30
0
40
1.700
0
CIRCLE
8
INTERIOR_PROFILES
10
928.524
20
555.262
30
0
40
1.700
0
CIRCLE
8
INTERIOR_PROFILES
10
1560.524
20
203.262
30
0
40
1.700
0
CIRCLE
8
INTERIOR_PROFILES
10
1560.524
20
299.262
30
0
40
1.700
0
CIRCLE
8
INTERIOR_PROFILES
10
1464.524
20
299.262
30
0
40
1.700
0
CIRCLE
8
INTERIOR_PROFILES
10
1464.524
20
107.262
30
0
40
1.700
0
CIRCLE
8
INTERIOR_PROFILES
10
1464.524
20
491.262
30
0
40
1.700
0
CIRCLE
8
INTERIOR_PROFILES
10
1560.524
20
491.262
30
0
40
1.700
0
CIRCLE
8
INTERIOR_PROFILES
10
1560.524
20
107.262
30
0
40
1.700
0
CIRCLE
8
INTERIOR_PROFILES
10
1560.524
20
459.262
30
0
40
1.700
0
CIRCLE
8
INTERIOR_PROFILES
10
1496.524
20
555.262
30
0
40
1.700
0
CIRCLE
8
INTERIOR_PROFILES
10
1560.524
20
555.262
30
0
40
1.700
0
CIRCLE
8
INTERIOR_PROFILES
10
1560.524
20
267.262
30
0
40
1.700
0
CIRCLE
8
INTERIOR_PROFILES
10
1560.524
20
235.262
30
0
40
1.700
0
CIRCLE
8
INTERIOR_PROFILES
10
992.524
20
75.262
30
0
40
1.700
0
CIRCLE
8
INTERIOR_PROFILES
10
1560.524
20
331.262
30
0
40
1.700
0
CIRCLE
8
INTERIOR_PROFILES
10
1464.524
20
139.262
30
0
40
1.700
0
CIRCLE
8
INTERIOR_PROFILES
10
1560.524
20
171.262
30
0
40
1.700
0
CIRCLE
8
INTERIOR_PROFILES
10
992.524
20
331.262
30
0
40
1.700
0
CIRCLE
8
INTERIOR_PROFILES
10
1560.524
20
75.262
30
0
40
1.700
0
CIRCLE
8
INTERIOR_PROFILES
10
992.524
20
491.262
30
0
40
1.700
0
CIRCLE
8
INTERIOR_PROFILES
10
1464.524
20
555.262
30
0
40
1.700
0
CIRCLE
8
INTERIOR_PROFILES
10
1464.524
20
235.262
30
0
40
1.700
0
CIRCLE
8
INTERIOR_PROFILES
10
1264.524
20
171.262
30
0
40
1.700
0
CIRCLE
8
INTERIOR_PROFILES
10
1264.524
20
491.262
30
0
40
1.700
0
CIRCLE
8
INTERIOR_PROFILES
10
1264.524
20
75.262
30
0
40
1.700
0
CIRCLE
8
INTERIOR_PROFILES
10
1264.524
20
555.262
30
0
40
1.700
0
CIRCLE
8
INTERIOR_PROFILES
10
1264.524
20
331.262
30
0
40
1.700
0
CIRCLE
8
INTERIOR_PROFILES
10
1264.524
20
395.262
30
0
40
1.700
0
CIRCLE
8
INTERIOR_PROFILES
10
1264.524
20
203.262
30
0
40
1.700
0
CIRCLE
8
INTERIOR_PROFILES
10
1464.524
20
523.262
30
0
40
1.700
0
CIRCLE
8
INTERIOR_PROFILES
10
1264.524
20
523.262
30
0
40
1.700
0
CIRCLE
8
INTERIOR_PROFILES
10
1264.524
20
459.262
30
0
40
1.700
0
CIRCLE
8
INTERIOR_PROFILES
10
1464.524
20
171.262
30
0
40
1.700
0
CIRCLE
8
INTERIOR_PROFILES
10
1264.524
20
107.262
30
0
40
1.700
0
CIRCLE
8
INTERIOR_PROFILES
10
1264.524
20
235.262
30
0
40
1.700
0
CIRCLE
8
INTERIOR_PROFILES
10
1228.524
20
555.262
30
0
40
1.700
0
CIRCLE
8
INTERIOR_PROFILES
10
1264.524
20
267.262
30
0
40
1.700
0
CIRCLE
8
INTERIOR_PROFILES
10
1464.524
20
203.262
30
0
40
1.700
0
CIRCLE
8
INTERIOR_PROFILES
10
1196.524
20
555.262
30
0
40
1.700
0
CIRCLE
8
INTERIOR_PROFILES
10
1160.524
20
491.262
30
0
40
1.700
0
CIRCLE
8
INTERIOR_PROFILES
10
960.524
20
331.262
30
0
40
1.700
0
CIRCLE
8
INTERIOR_PROFILES
10
1160.524
20
139.262
30
0
40
1.700
0
CIRCLE
8
INTERIOR_PROFILES
10
1464.524
20
459.262
30
0
40
1.700
0
CIRCLE
8
INTERIOR_PROFILES
10
1464.524
20
427.262
30
0
40
1.700
0
CIRCLE
8
INTERIOR_PROFILES
10
1464.524
20
395.262
30
0
40
1.700
0
CIRCLE
8
INTERIOR_PROFILES
10
1264.524
20
299.262
30
0
40
1.700
0
CIRCLE
8
INTERIOR_PROFILES
10
1464.524
20
75.262
30
0
40
1.700
0
CIRCLE
8
INTERIOR_PROFILES
10
1264.524
20
363.262
30
0
40
1.700
0
CIRCLE
8
INTERIOR_PROFILES
10
1264.524
20
43.262
30
0
40
1.700
0
CIRCLE
8
INTERIOR_PROFILES
10
1264.524
20
139.262
30
0
40
1.700
0
CIRCLE
8
INTERIOR_PROFILES
10
1264.524
20
427.262
30
0
40
1.700
0
CIRCLE
8
INTERIOR_PROFILES
10
1464.524
20
267.262
30
0
40
1.700
0
CIRCLE
8
INTERIOR_PROFILES
10
960.524
20
459.262
30
0
40
1.700
0
CIRCLE
8
INTERIOR_PROFILES
10
960.524
20
395.262
30
0
40
1.700
0
CIRCLE
8
INTERIOR_PROFILES
10
960.524
20
139.262
30
0
40
1.700
0
CIRCLE
8
INTERIOR_PROFILES
10
960.524
20
523.262
30
0
40
1.700
0
CIRCLE
8
INTERIOR_PROFILES
10
1160.524
20
299.262
30
0
40
1.700
0
CIRCLE
8
INTERIOR_PROFILES
10
960.524
20
171.262
30
0
40
1.700
0
CIRCLE
8
INTERIOR_PROFILES
10
960.524
20
235.262
30
0
40
1.700
0
CIRCLE
8
INTERIOR_PROFILES
10
960.524
20
75.262
30
0
40
1.700
0
CIRCLE
8
INTERIOR_PROFILES
10
960.524
20
491.262
30
0
40
1.700
0
CIRCLE
8
INTERIOR_PROFILES
10
1160.524
20
395.262
30
0
40
1.700
0
CIRCLE
8
INTERIOR_PROFILES
10
960.524
20
299.262
30
0
40
1.700
0
CIRCLE
8
INTERIOR_PROFILES
10
960.524
20
555.262
30
0
40
1.700
0
CIRCLE
8
INTERIOR_PROFILES
10
960.524
20
43.262
30
0
40
1.700
0
CIRCLE
8
INTERIOR_PROFILES
10
1160.524
20
331.262
30
0
40
1.700
0
CIRCLE
8
INTERIOR_PROFILES
10
960.524
20
363.262
30
0
40
1.700
0
CIRCLE
8
INTERIOR_PROFILES
10
1160.524
20
171.262
30
0
40
1.700
0
CIRCLE
8
INTERIOR_PROFILES
10
1160.524
20
203.262
30
0
40
1.700
0
CIRCLE
8
INTERIOR_PROFILES
10
1160.524
20
267.262
30
0
40
1.700
0
CIRCLE
8
INTERIOR_PROFILES
10
1160.524
20
427.262
30
0
40
1.700
0
CIRCLE
8
INTERIOR_PROFILES
10
960.524
20
267.262
30
0
40
1.700
0
CIRCLE
8
INTERIOR_PROFILES
10
1160.524
20
75.262
30
0
40
1.700
0
CIRCLE
8
INTERIOR_PROFILES
10
1160.524
20
555.262
30
0
40
1.700
0
CIRCLE
8
INTERIOR_PROFILES
10
1160.524
20
235.262
30
0
40
1.700
0
CIRCLE
8
INTERIOR_PROFILES
10
1160.524
20
363.262
30
0
40
1.700
0
CIRCLE
8
INTERIOR_PROFILES
10
1160.524
20
43.262
30
0
40
1.700
0
CIRCLE
8
INTERIOR_PROFILES
10
960.524
20
427.262
30
0
40
1.700
0
CIRCLE
8
INTERIOR_PROFILES
10
1160.524
20
107.262
30
0
40
1.700
0
CIRCLE
8
INTERIOR_PROFILES
10
960.524
20
203.262
30
0
40
1.700
0
CIRCLE
8
INTERIOR_PROFILES
10
1160.524
20
523.262
30
0
40
1.700
0
CIRCLE
8
INTERIOR_PROFILES
10
1160.524
20
459.262
30
0
40
1.700
0
CIRCLE
8
INTERIOR_PROFILES
10
896.524
20
555.262
30
0
40
1.700
0
CIRCLE
8
INTERIOR_PROFILES
10
960.524
20
107.262
30
0
40
1.700
0
CIRCLE
8
INTERIOR_PROFILES
10
864.524
20
331.262
30
0
40
1.700
0
CIRCLE
8
INTERIOR_PROFILES
10
1242.524
20
583.262
30
0
40
1.700
0
CIRCLE
8
INTERIOR_PROFILES
10
912.524
20
29.262
30
0
40
1.700
0
CIRCLE
8
INTERIOR_PROFILES
10
1512.524
20
583.262
30
0
40
1.700
0
CIRCLE
8
INTERIOR_PROFILES
10
1584.524
20
583.262
30
0
40
1.700
0
CIRCLE
8
INTERIOR_PROFILES
10
1212.524
20
29.262
30
0
40
1.700
0
CIRCLE
8
INTERIOR_PROFILES
10
864.524
20
267.262
30
0
40
1.700
0
CIRCLE
8
INTERIOR_PROFILES
10
1512.524
20
29.262
30
0
40
1.700
0
CIRCLE
8
INTERIOR_PROFILES
10
864.524
20
555.262
30
0
40
1.700
0
CIRCLE
8
INTERIOR_PROFILES
10
864.524
20
299.262
30
0
40
1.700
0
CIRCLE
8
INTERIOR_PROFILES
10
1212.524
20
583.262
30
0
40
1.700
0
CIRCLE
8
INTERIOR_PROFILES
10
912.524
20
583.262
30
0
40
1.700
0
CIRCLE
8
INTERIOR_PROFILES
10
864.524
20
491.262
30
0
40
1.700
0
CIRCLE
8
INTERIOR_PROFILES
10
864.524
20
459.262
30
0
40
1.700
0
CIRCLE
8
INTERIOR_PROFILES
10
864.524
20
203.262
30
0
40
1.700
0
CIRCLE
8
INTERIOR_PROFILES
10
864.524
20
395.262
30
0
40
1.700
0
CIRCLE
8
INTERIOR_PROFILES
10
864.524
20
363.262
30
0
40
1.700
0
CIRCLE
8
INTERIOR_PROFILES
10
1582.524
20
565.262
30
0
40
6.500
0
CIRCLE
8
INTERIOR_PROFILES
10
864.524
20
75.262
30
0
40
1.700
0
CIRCLE
8
INTERIOR_PROFILES
10
864.524
20
107.262
30
0
40
1.700
0
CIRCLE
8
INTERIOR_PROFILES
10
840.524
20
583.262
30
0
40
1.700
0
CIRCLE
8
INTERIOR_PROFILES
10
1212.524
20
565.262
30
0
40
6.500
0
CIRCLE
8
INTERIOR_PROFILES
10
864.524
20
171.262
30
0
40
1.700
0
CIRCLE
8
INTERIOR_PROFILES
10
864.524
20
523.262
30
0
40
1.700
0
CIRCLE
8
INTERIOR_PROFILES
10
864.524
20
139.262
30
0
40
1.700
0
CIRCLE
8
INTERIOR_PROFILES
10
864.524
20
427.262
30
0
40
1.700
0
CIRCLE
8
INTERIOR_PROFILES
10
864.524
20
235.262
30
0
40
1.700
0
CIRCLE
8
INTERIOR_PROFILES
10
842.524
20
565.262
30
0
40
6.500
0
CIRCLE
8
INTERIOR_PROFILES
10
1182.524
20
583.262
30
0
40
1.700
0
CIRCLE
8
INTERIOR_PROFILES
10
1196.524
20
363.262
30
0
40
1.700
0
CIRCLE
8
INTERIOR_PROFILES
10
1196.524
20
267.262
30
0
40
1.700
0
CIRCLE
8
INTERIOR_PROFILES
10
1196.524
20
299.262
30
0
40
1.700
0
CIRCLE
8
INTERIOR_PROFILES
10
1196.524
20
107.262
30
0
40
1.700
0
CIRCLE
8
INTERIOR_PROFILES
10
1196.524
20
75.262
30
0
40
1.700
0
CIRCLE
8
INTERIOR_PROFILES
10
1228.524
20
43.262
30
0
40
1.700
0
CIRCLE
8
INTERIOR_PROFILES
10
1196.524
20
235.262
30
0
40
1.700
0
CIRCLE
8
INTERIOR_PROFILES
10
1228.524
20
363.262
30
0
40
1.700
0
LWPOLYLINE
8
INTERIOR_PROFILES
90
4
70
1
10
989.524
20
23.500
10
989.524
20
26.262
10
927.524
20
26.262
10
927.524
20
23.500
0
CIRCLE
8
INTERIOR_PROFILES
10
1228.524
20
459.262
30
0
40
1.700
0
CIRCLE
8
INTERIOR_PROFILES
10
1228.524
20
395.262
30
0
40
1.700
0
CIRCLE
8
INTERIOR_PROFILES
10
1196.524
20
491.262
30
0
40
1.700
0
CIRCLE
8
INTERIOR_PROFILES
10
1196.524
20
139.262
30
0
40
1.700
0
CIRCLE
8
INTERIOR_PROFILES
10
1228.524
20
235.262
30
0
40
1.700
0
LWPOLYLINE
8
INTERIOR_PROFILES
90
4
70
1
10
1435.524
20
23.500
10
1497.524
20
23.500
10
1497.524
20
26.262
10
1435.524
20
26.262
0
CIRCLE
8
INTERIOR_PROFILES
10
1228.524
20
75.262
30
0
40
1.700
0
CIRCLE
8
INTERIOR_PROFILES
10
1196.524
20
523.262
30
0
40
1.700
0
CIRCLE
8
INTERIOR_PROFILES
10
1228.524
20
107.262
30
0
40
1.700
0
CIRCLE
8
INTERIOR_PROFILES
10
1446.524
20
29.262
30
0
40
1.700
0
CIRCLE
8
INTERIOR_PROFILES
10
839.524
20
17.000
30
0
40
1.700
0
CIRCLE
8
INTERIOR_PROFILES
10
1228.524
20
331.262
30
0
40
1.700
0
CIRCLE
8
INTERIOR_PROFILES
10
1228.524
20
491.262
30
0
40
1.700
0
CIRCLE
8
INTERIOR_PROFILES
10
1228.524
20
171.262
30
0
40
1.700
0
CIRCLE
8
INTERIOR_PROFILES
10
1228.524
20
427.262
30
0
40
1.700
0
CIRCLE
8
INTERIOR_PROFILES
10
1196.524
20
171.262
30
0
40
1.700
0
CIRCLE
8
INTERIOR_PROFILES
10
1196.524
20
427.262
30
0
40
1.700
0
CIRCLE
8
INTERIOR_PROFILES
10
1486.524
20
29.262
30
0
40
1.700
0
CIRCLE
8
INTERIOR_PROFILES
10
1228.524
20
139.262
30
0
40
1.700
0
CIRCLE
8
INTERIOR_PROFILES
10
1196.524
20
331.262
30
0
40
1.700
0
CIRCLE
8
INTERIOR_PROFILES
10
938.524
20
29.262
30
0
40
1.700
0
CIRCLE
8
INTERIOR_PROFILES
10
1228.524
20
267.262
30
0
40
1.700
0
CIRCLE
8
INTERIOR_PROFILES
10
1196.524
20
203.262
30
0
40
1.700
0
CIRCLE
8
INTERIOR_PROFILES
10
1228.524
20
203.262
30
0
40
1.700
0
CIRCLE
8
INTERIOR_PROFILES
10
1196.524
20
43.262
30
0
40
1.700
0
CIRCLE
8
INTERIOR_PROFILES
10
1196.524
20
459.262
30
0
40
1.700
0
CIRCLE
8
INTERIOR_PROFILES
10
978.524
20
29.262
30
0
40
1.700
0
CIRCLE
8
INTERIOR_PROFILES
10
1585.524
20
17.000
30
0
40
1.700
0
CIRCLE
8
INTERIOR_PROFILES
10
1228.524
20
299.262
30
0
40
1.700
0
CIRCLE
8
INTERIOR_PROFILES
10
912.524
20
17.000
30
0
40
1.700
0
CIRCLE
8
INTERIOR_PROFILES
10
1196.524
20
395.262
30
0
40
1.700
0
CIRCLE
8
INTERIOR_PROFILES
10
1212.524
20
17.000
30
0
40
1.700
0
CIRCLE
8
INTERIOR_PROFILES
10
1512.524
20
17.000
30
0
40
1.700
0
CIRCLE
8
INTERIOR_PROFILES
10
1228.524
20
523.262
30
0
40
1.700
0
CIRCLE
8
INTERIOR_PROFILES
10
823.262
20
53.262
30
0
40
1.700
0
CIRCLE
8
INTERIOR_PROFILES
10
992.524
20
565.262
30
0
40
6.500
0
CIRCLE
8
INTERIOR_PROFILES
10
1012.524
20
610.786
30
0
40
1.700
0
CIRCLE
8
INTERIOR_PROFILES
10
1432.524
20
565.262
30
0
40
6.500
0
CIRCLE
8
INTERIOR_PROFILES
10
1567.524
20
543.262
30
0
40
1.700
0
CIRCLE
8
INTERIOR_PROFILES
10
823.262
20
99.262
30
0
40
1.700
0
CIRCLE
8
INTERIOR_PROFILES
10
835.524
20
543.262
30
0
40
1.700
0
CIRCLE
8
INTERIOR_PROFILES
10
1601.786
20
53.262
30
0
40
1.700
0
CIRCLE
8
INTERIOR_PROFILES
10
1601.786
20
99.262
30
0
40
1.700
0
CIRCLE
8
INTERIOR_PROFILES
10
823.262
20
489.262
30
0
40
1.700
0
CIRCLE
8
INTERIOR_PROFILES
10
857.524
20
543.262
30
0
40
1.700
0
CIRCLE
8
INTERIOR_PROFILES
10
1601.786
20
489.262
30
0
40
1.700
0
CIRCLE
8
INTERIOR_PROFILES
10
1589.524
20
543.262
30
0
40
1.700
0
TEXT
8
PART_LABELS
10
2055.500
20
951.000
30
0
40
50.000
1
2CV122-080S43
72
1
73
2
11
2055.500
21
951.000
31
0
0
LWPOLYLINE
8
OUTER_PROFILES
90
32
70
1
10
1655.534
20
739.624
10
1637.262
20
739.624
42
-0.414214
10
1636.362
20
740.524
10
1636.362
20
776.524
10
1637.262
20
776.524
10
1637.262
20
776.624
10
1618.000
20
776.624
10
1618.000
20
1125.424
10
1637.262
20
1125.424
10
1637.262
20
1125.524
10
1636.362
20
1125.524
10
1636.362
20
1161.524
42
-0.414214
10
1637.262
20
1162.424
10
1655.534
20
1162.424
10
1655.534
20
1220.048
10
2455.514
20
1220.048
10
2455.514
20
1162.424
10
2473.786
20
1162.424
42
-0.414214
10
2474.686
20
1161.524
10
2474.686
20
1125.524
10
2473.786
20
1125.524
10
2473.786
20
1125.424
10
2493.048
20
1125.424
10
2493.048
20
776.624
10
2473.786
20
776.624
10
2473.786
20
776.524
10
2474.686
20
776.524
10
2474.686
20
740.524
42
-0.414214
10
2473.786
20
739.624
10
2455.514
20
739.624
10
2455.514
20
682.000
10
1655.534
20
682.000
0
CIRCLE
8
INTERIOR_PROFILES
10
1666.534
20
1172.786
30
0
40
8.750
0
CIRCLE
8
INTERIOR_PROFILES
10
1955.524
20
1217.048
30
0
40
1.264
0
CIRCLE
8
INTERIOR_PROFILES
10
1755.524
20
1217.048
30
0
40
1.264
0
CIRCLE
8
INTERIOR_PROFILES
10
1955.524
20
685.000
30
0
40
1.264
0
CIRCLE
8
INTERIOR_PROFILES
10
2055.524
20
685.000
30
0
40
1.264
0
CIRCLE
8
INTERIOR_PROFILES
10
2155.524
20
685.000
30
0
40
1.264
0
CIRCLE
8
INTERIOR_PROFILES
10
2355.524
20
685.000
30
0
40
1.264
0
CIRCLE
8
INTERIOR_PROFILES
10
2155.524
20
1217.048
30
0
40
1.264
0
CIRCLE
8
INTERIOR_PROFILES
10
1666.534
20
729.262
30
0
40
8.750
0
CIRCLE
8
INTERIOR_PROFILES
10
2355.524
20
1217.048
30
0
40
1.264
0
CIRCLE
8
INTERIOR_PROFILES
10
1755.524
20
685.000
30
0
40
1.264
0
CIRCLE
8
INTERIOR_PROFILES
10
1621.000
20
796.024
30
0
40
1.700
0
CIRCLE
8
INTERIOR_PROFILES
10
1621.000
20
951.024
30
0
40
1.700
0
CIRCLE
8
INTERIOR_PROFILES
10
2485.048
20
796.024
30
0
40
1.700
0
CIRCLE
8
INTERIOR_PROFILES
10
2490.048
20
951.024
30
0
40
1.700
0
CIRCLE
8
INTERIOR_PROFILES
10
2485.048
20
951.024
30
0
40
1.700
0
CIRCLE
8
INTERIOR_PROFILES
10
2485.048
20
1106.024
30
0
40
1.700
0
CIRCLE
8
INTERIOR_PROFILES
10
1626.000
20
1106.024
30
0
40
1.700
0
CIRCLE
8
INTERIOR_PROFILES
10
2490.048
20
796.024
30
0
40
1.700
0
CIRCLE
8
INTERIOR_PROFILES
10
2055.524
20
1217.048
30
0
40
1.264
0
CIRCLE
8
INTERIOR_PROFILES
10
1626.000
20
796.024
30
0
40
1.700
0
CIRCLE
8
INTERIOR_PROFILES
10
1621.000
20
1106.024
30
0
40
1.700
0
CIRCLE
8
INTERIOR_PROFILES
10
2490.048
20
1106.024
30
0
40
1.700
0
CIRCLE
8
INTERIOR_PROFILES
10
1626.000
20
951.024
30
0
40
1.700
0
TEXT
8
PART_LABELS
10
2764.000
20
797.500
30
0
40
50.000
1
DSV100-050080
72
1
73
2
11
2764.000
21
797.500
31
0
0
LWPOLYLINE
8
OUTER_PROFILES
90
34
70
1
10
3011.424
20
1215.258
10
3010.974
20
1216.544
10
3010.453
20
1217.675
10
3008.453
20
1219.675
10
2519.595
20
1219.675
10
2517.595
20
1217.675
10
2517.074
20
1216.544
10
2516.624
20
1215.258
10
2516.624
20
1193.917
10
2513.848
20
1191.938
10
2499.262
20
1177.352
10
2497.000
20
1174.453
10
2495.000
20
1172.453
10
2495.000
20
399.595
10
2497.000
20
397.595
10
2499.262
20
395.524
10
2515.262
20
395.524
10
2516.624
20
395.262
10
2516.624
20
379.262
10
2517.595
20
377.000
10
2519.595
20
375.000
10
3008.453
20
375.000
10
3010.453
20
377.000
10
3011.424
20
379.262
10
3011.424
20
395.262
10
3012.786
20
395.524
10
3028.786
20
395.524
10
3031.048
20
397.595
10
3033.048
20
399.595
10
3033.048
20
1172.453
10
3031.048
20
1174.453
10
3028.786
20
1177.352
10
3014.200
20
1191.938
10
3011.424
20
1193.917
0
TEXT
8
PART_LABELS
10
2040.500
20
445.000
30
0
40
50.000
1
2CV322-080043
72
1
73
2
11
2040.500
21
445.000
31
0
0
LINE
8
OUTER_PROFILES
10
1640.534
20
675.786
30
0
11
1642.595
21
678.048
31
0
0
LINE
8
OUTER_PROFILES
10
1642.595
20
678.048
30
0
11
1644.595
21
680.048
31
0
0
LINE
8
OUTER_PROFILES
10
1644.595
20
680.048
30
0
11
2436.453
21
680.048
31
0
0
LINE
8
OUTER_PROFILES
10
2436.453
20
680.048
30
0
11
2438.453
21
678.048
31
0
0
LINE
8
OUTER_PROFILES
10
2438.453
20
678.048
30
0
11
2440.514
21
675.786
31
0
0
LINE
8
OUTER_PROFILES
10
2440.514
20
675.786
30
0
11
2440.514
21
656.424
31
0
0
LINE
8
OUTER_PROFILES
10
2440.514
20
656.424
30
0
11
2459.135
21
656.424
31
0
0
ARC
8
OUTER_PROFILES
10
2457.812
20
651.447
30
0
40
5.150
50
51.0702
51
75.1102
0
LINE
8
OUTER_PROFILES
10
2461.048
20
655.453
30
0
11
2463.048
21
653.453
31
0
0
LINE
8
OUTER_PROFILES
10
2463.048
20
653.453
30
0
11
2463.048
21
236.595
31
0
0
LINE
8
OUTER_PROFILES
10
2463.048
20
236.595
30
0
11
2461.048
21
234.595
31
0
0
ARC
8
OUTER_PROFILES
10
2457.812
20
238.601
30
0
40
5.150
50
284.8898
51
308.9298
0
LINE
8
OUTER_PROFILES
10
2459.135
20
233.624
30
0
11
2440.514
21
233.624
31
0
0
LINE
8
OUTER_PROFILES
10
2440.514
20
233.624
30
0
11
2440.514
21
214.262
31
0
0
LINE
8
OUTER_PROFILES
10
2440.514
20
214.262
30
0
11
2438.453
21
212.000
31
0
0
LINE
8
OUTER_PROFILES
10
2438.453
20
212.000
30
0
11
2436.453
21
210.000
31
0
0
LINE
8
OUTER_PROFILES
10
2436.453
20
210.000
30
0
11
1644.595
21
210.000
31
0
0
LINE
8
OUTER_PROFILES
10
1644.595
20
210.000
30
0
11
1642.595
21
212.000
31
0
0
LINE
8
OUTER_PROFILES
10
1642.595
20
212.000
30
0
11
1640.534
21
214.262
31
0
0
LINE
8
OUTER_PROFILES
10
1640.534
20
214.262
30
0
11
1640.534
21
233.624
31
0
0
LINE
8
OUTER_PROFILES
10
1640.534
20
233.624
30
0
11
1621.913
21
233.624
31
0
0
ARC
8
OUTER_PROFILES
10
1623.236
20
238.601
30
0
40
5.150
50
231.0702
51
255.1102
0
LINE
8
OUTER_PROFILES
10
1620.000
20
234.595
30
0
11
1618.000
21
236.595
31
0
0
LINE
8
OUTER_PROFILES
10
1618.000
20
236.595
30
0
11
1618.000
21
653.453
31
0
0
LINE
8
OUTER_PROFILES
10
1618.000
20
653.453
30
0
11
1620.000
21
655.453
31
0
0
ARC
8
OUTER_PROFILES
10
1623.236
20
651.447
30
0
40
5.150
50
104.8898
51
128.9298
0
LINE
8
OUTER_PROFILES
10
1621.913
20
656.424
30
0
11
1640.534
21
656.424
31
0
0
LINE
8
OUTER_PROFILES
10
1640.534
20
656.424
30
0
11
1640.534
21
675.786
31
0
0
CIRCLE
8
INTERIOR_PROFILES
10
2424.524
20
290.024
30
0
40
1.700
0
CIRCLE
8
INTERIOR_PROFILES
10
1940.524
20
267.524
30
0
40
1.265
0
CIRCLE
8
INTERIOR_PROFILES
10
1651.524
20
600.024
30
0
40
1.700
0
CIRCLE
8
INTERIOR_PROFILES
10
1651.524
20
445.024
30
0
40
1.700
0
CIRCLE
8
INTERIOR_PROFILES
10
1656.524
20
445.024
30
0
40
1.700
0
CIRCLE
8
INTERIOR_PROFILES
10
1740.524
20
622.524
30
0
40
1.264
0
CIRCLE
8
INTERIOR_PROFILES
10
1651.524
20
290.024
30
0
40
1.700
0
CIRCLE
8
INTERIOR_PROFILES
10
2429.524
20
290.024
30
0
40
1.700
0
CIRCLE
8
INTERIOR_PROFILES
10
1656.524
20
290.024
30
0
40
1.700
0
CIRCLE
8
INTERIOR_PROFILES
10
1940.524
20
622.524
30
0
40
1.264
0
CIRCLE
8
INTERIOR_PROFILES
10
2424.524
20
600.024
30
0
40
1.700
0
CIRCLE
8
INTERIOR_PROFILES
10
1656.524
20
600.024
30
0
40
1.700
0
CIRCLE
8
INTERIOR_PROFILES
10
2140.524
20
622.524
30
0
40
1.264
0
CIRCLE
8
INTERIOR_PROFILES
10
2340.524
20
267.524
30
0
40
1.265
0
CIRCLE
8
INTERIOR_PROFILES
10
1659.024
20
367.524
30
0
40
4.500
0
CIRCLE
8
INTERIOR_PROFILES
10
1659.024
20
522.524
30
0
40
4.500
0
CIRCLE
8
INTERIOR_PROFILES
10
2422.024
20
522.524
30
0
40
4.500
0
CIRCLE
8
INTERIOR_PROFILES
10
1740.524
20
267.524
30
0
40
1.265
0
CIRCLE
8
INTERIOR_PROFILES
10
2040.524
20
622.524
30
0
40
1.264
0
CIRCLE
8
INTERIOR_PROFILES
10
2422.024
20
367.524
30
0
40
4.500
0
CIRCLE
8
INTERIOR_PROFILES
10
2340.524
20
622.524
30
0
40
1.264
0
CIRCLE
8
INTERIOR_PROFILES
10
2040.524
20
267.524
30
0
40
1.265
0
CIRCLE
8
INTERIOR_PROFILES
10
2140.524
20
267.524
30
0
40
1.265
0
CIRCLE
8
INTERIOR_PROFILES
10
2424.524
20
445.024
30
0
40
1.700
0
CIRCLE
8
INTERIOR_PROFILES
10
2429.524
20
600.024
30
0
40
1.700
0
CIRCLE
8
INTERIOR_PROFILES
10
2429.524
20
445.024
30
0
40
1.700
0
TEXT
8
PART_LABELS
10
2080.000
20
111.500
30
0
40
48.250
1
DSV2B3-090020
72
1
73
2
11
2080.000
21
111.500
31
0
0
LWPOLYLINE
8
OUTER_PROFILES
90
16
70
1
10
2523.191
20
207.524
10
1636.333
20
207.524
10
1636.333
20
189.191
10
1618.000
20
189.191
10
1618.000
20
33.333
10
1635.000
20
33.333
10
1637.262
20
34.262
10
1636.333
20
32.000
10
1636.333
20
15.000
10
2523.191
20
15.000
10
2523.191
20
33.333
10
2541.524
20
33.333
10
2541.524
20
189.191
10
2524.524
20
189.191
10
2522.262
20
188.262
10
2523.191
20
190.524
0
CIRCLE
8
INTERIOR_PROFILES
10
1663.262
20
107.262
30
0
40
1.700
0
CIRCLE
8
INTERIOR_PROFILES
10
2496.262
20
139.262
30
0
40
1.700
0
CIRCLE
8
INTERIOR_PROFILES
10
1663.262
20
139.262
30
0
40
1.700
0
CIRCLE
8
INTERIOR_PROFILES
10
2496.262
20
107.262
30
0
40
1.700
0
ENDSEC
0
EOF