0
SECTION
2
HEADER
9
$INSUNITS
70
4
0
ENDSEC
0
SECTION
2
ENTITIES
0
LWPOLYLINE
8
SHEET_BORDER
90
5
70
1
10
0.000
20
0.000
10
925.000
20
0.000
10
925.000
20
645.000
10
0.000
20
645.000
10
0.000
20
0.000
0
TEXT
8
PART_LABELS
10
458.500
20
54.000
30
0
40
27.000
1
TS1BHH-090000
72
1
73
2
11
458.500
21
54.000
31
0
0
CIRCLE
8
OUTER_PROFILES
10
912.524
20
54.024
30
0
40
1.700
0
LWPOLYLINE
8
OUTER_PROFILES
90
4
70
1
10
823.262
20
66.786
10
896.262
20
66.786
10
896.262
20
64.524
10
823.262
20
64.524
0
LWPOLYLINE
8
OUTER_PROFILES
90
4
70
1
10
896.262
20
43.524
10
896.262
20
41.262
10
823.262
20
41.262
10
823.262
20
43.524
0
CIRCLE
8
OUTER_PROFILES
10
17.262
20
12.262
30
0
40
1.700
0
CIRCLE
8
OUTER_PROFILES
10
899.262
20
37.262
30
0
40
1.700
0
CIRCLE
8
OUTER_PROFILES
10
17.262
20
37.262
30
0
40
1.700
0
CIRCLE
8
OUTER_PROFILES
10
899.262
20
12.262
30
0
40
1.700
0
CIRCLE
8
OUTER_PROFILES
10
43.262
20
54.024
30
0
40
1.700
0
CIRCLE
8
OUTER_PROFILES
10
827.262
20
54.024
30
0
40
1.700
0
CIRCLE
8
OUTER_PROFILES
10
899.262
20
54.024
30
0
40
1.700
0
CIRCLE
8
OUTER_PROFILES
10
873.262
20
54.024
30
0
40
1.700
0
CIRCLE
8
OUTER_PROFILES
10
17.262
20
54.024
30
0
40
1.700
0
CIRCLE
8
OUTER_PROFILES
10
89.262
20
54.024
30
0
40
1.700
0
CIRCLE
8
OUTER_PROFILES
10
449.262
20
54.024
30
0
40
1.700
0
CIRCLE
8
OUTER_PROFILES
10
458.262
20
54.024
30
0
40
1.700
0
CIRCLE
8
OUTER_PROFILES
10
467.262
20
54.024
30
0
40
1.700
0
LWPOLYLINE
8
OUTER_PROFILES
90
4
70
1
10
93.262
20
41.262
10
20.262
20
41.262
10
20.262
20
43.524
10
93.262
20
43.524
0
CIRCLE
8
OUTER_PROFILES
10
899.262
20
95.786
30
0
40
1.700
0
CIRCLE
8
OUTER_PROFILES
10
17.262
20
70.786
30
0
40
1.700
0
CIRCLE
8
OUTER_PROFILES
10
899.262
20
70.786
30
0
40
1.700
0
CIRCLE
8
OUTER_PROFILES
10
17.262
20
95.786
30
0
40
1.700
0
CIRCLE
8
OUTER_PROFILES
10
4.000
20
54.024
30
0
40
1.700
0
LWPOLYLINE
8
OUTER_PROFILES
90
4
70
1
10
20.262
20
64.524
10
20.262
20
66.786
10
93.262
20
66.786
10
93.262
20
64.524
0
LWPOLYLINE
8
OUTER_PROFILES
90
23
70
1
10
906.262
20
103.048
10
906.262
20
108.048
10
10.262
20
108.048
10
10.262
20
103.048
10
10.262
20
66.786
10
10.262
20
64.524
10
0.000
20
64.524
10
0.000
20
43.524
10
10.262
20
43.524
10
10.262
20
41.262
10
10.262
20
7.262
10
10.262
20
5.000
10
10.262
20
0.000
10
906.262
20
0.000
10
906.262
20
5.000
10
906.262
20
7.262
10
906.262
20
41.262
10
906.262
20
43.524
10
916.524
20
43.524
10
916.524
20
64.524
10
906.262
20
64.524
10
906.262
20
66.786
10
906.262
20
100.786
0
TEXT
8
PART_LABELS
10
458.500
20
164.000
30
0
40
27.000
1
TS1BHH-090000
72
1
73
2
11
458.500
21
164.000
31
0
0
CIRCLE
8
OUTER_PROFILES
10
912.524
20
164.024
30
0
40
1.700
0
LWPOLYLINE
8
OUTER_PROFILES
90
4
70
1
10
823.262
20
176.786
10
896.262
20
176.786
10
896.262
20
174.524
10
823.262
20
174.524
0
LWPOLYLINE
8
OUTER_PROFILES
90
4
70
1
10
896.262
20
153.524
10
896.262
20
151.262
10
823.262
20
151.262
10
823.262
20
153.524
0
CIRCLE
8
OUTER_PROFILES
10
17.262
20
122.262
30
0
40
1.700
0
CIRCLE
8
OUTER_PROFILES
10
899.262
20
147.262
30
0
40
1.700
0
CIRCLE
8
OUTER_PROFILES
10
17.262
20
147.262
30
0
40
1.700
0
CIRCLE
8
OUTER_PROFILES
10
899.262
20
122.262
30
0
40
1.700
0
CIRCLE
8
OUTER_PROFILES
10
43.262
20
164.024
30
0
40
1.700
0
CIRCLE
8
OUTER_PROFILES
10
827.262
20
164.024
30
0
40
1.700
0
CIRCLE
8
OUTER_PROFILES
10
899.262
20
164.024
30
0
40
1.700
0
CIRCLE
8
OUTER_PROFILES
10
873.262
20
164.024
30
0
40
1.700
0
CIRCLE
8
OUTER_PROFILES
10
17.262
20
164.024
30
0
40
1.700
0
CIRCLE
8
OUTER_PROFILES
10
89.262
20
164.024
30
0
40
1.700
0
CIRCLE
8
OUTER_PROFILES
10
449.262
20
164.024
30
0
40
1.700
0
CIRCLE
8
OUTER_PROFILES
10
458.262
20
164.024
30
0
40
1.700
0
CIRCLE
8
OUTER_PROFILES
10
467.262
20
164.024
30
0
40
1.700
0
LWPOLYLINE
8
OUTER_PROFILES
90
4
70
1
10
93.262
20
151.262
10
20.262
20
151.262
10
20.262
20
153.524
10
93.262
20
153.524
0
CIRCLE
8
OUTER_PROFILES
10
899.262
20
205.786
30
0
40
1.700
0
CIRCLE
8
OUTER_PROFILES
10
17.262
20
180.786
30
0
40
1.700
0
CIRCLE
8
OUTER_PROFILES
10
899.262
20
180.786
30
0
40
1.700
0
CIRCLE
8
OUTER_PROFILES
10
17.262
20
205.786
30
0
40
1.700
0
CIRCLE
8
OUTER_PROFILES
10
4.000
20
164.024
30
0
40
1.700
0
LWPOLYLINE
8
OUTER_PROFILES
90
4
70
1
10
20.262
20
174.524
10
20.262
20
176.786
10
93.262
20
176.786
10
93.262
20
174.524
0
LWPOLYLINE
8
OUTER_PROFILES
90
23
70
1
10
906.262
20
213.048
10
906.262
20
218.048
10
10.262
20
218.048
10
10.262
20
213.048
10
10.262
20
176.786
10
10.262
20
174.524
10
0.000
20
174.524
10
0.000
20
153.524
10
10.262
20
153.524
10
10.262
20
151.262
10
10.262
20
117.262
10
10.262
20
115.000
10
10.262
20
110.000
10
906.262
20
110.000
10
906.262
20
115.000
10
906.262
20
117.262
10
906.262
20
151.262
10
906.262
20
153.524
10
916.524
20
153.524
10
916.524
20
174.524
10
906.262
20
174.524
10
906.262
20
176.786
10
906.262
20
210.786
0
TEXT
8
PART_LABELS
10
458.500
20
274.000
30
0
40
27.000
1
TS1BHH-090000
72
1
73
2
11
458.500
21
274.000
31
0
0
CIRCLE
8
OUTER_PROFILES
10
912.524
20
274.024
30
0
40
1.700
0
LWPOLYLINE
8
OUTER_PROFILES
90
4
70
1
10
823.262
20
286.786
10
896.262
20
286.786
10
896.262
20
284.524
10
823.262
20
284.524
0
LWPOLYLINE
8
OUTER_PROFILES
90
4
70
1
10
896.262
20
263.524
10
896.262
20
261.262
10
823.262
20
261.262
10
823.262
20
263.524
0
CIRCLE
8
OUTER_PROFILES
10
17.262
20
232.262
30
0
40
1.700
0
CIRCLE
8
OUTER_PROFILES
10
899.262
20
257.262
30
0
40
1.700
0
CIRCLE
8
OUTER_PROFILES
10
17.262
20
257.262
30
0
40
1.700
0
CIRCLE
8
OUTER_PROFILES
10
899.262
20
232.262
30
0
40
1.700
0
CIRCLE
8
OUTER_PROFILES
10
43.262
20
274.024
30
0
40
1.700
0
CIRCLE
8
OUTER_PROFILES
10
827.262
20
274.024
30
0
40
1.700
0
CIRCLE
8
OUTER_PROFILES
10
899.262
20
274.024
30
0
40
1.700
0
CIRCLE
8
OUTER_PROFILES
10
873.262
20
274.024
30
0
40
1.700
0
CIRCLE
8
OUTER_PROFILES
10
17.262
20
274.024
30
0
40
1.700
0
CIRCLE
8
OUTER_PROFILES
10
89.262
20
274.024
30
0
40
1.700
0
CIRCLE
8
OUTER_PROFILES
10
449.262
20
274.024
30
0
40
1.700
0
CIRCLE
8
OUTER_PROFILES
10
458.262
20
274.024
30
0
40
1.700
0
CIRCLE
8
OUTER_PROFILES
10
467.262
20
274.024
30
0
40
1.700
0
LWPOLYLINE
8
OUTER_PROFILES
90
4
70
1
10
93.262
20
261.262
10
20.262
20
261.262
10
20.262
20
263.524
10
93.262
20
263.524
0
CIRCLE
8
OUTER_PROFILES
10
899.262
20
315.786
30
0
40
1.700
0
CIRCLE
8
OUTER_PROFILES
10
17.262
20
290.786
30
0
40
1.700
0
CIRCLE
8
OUTER_PROFILES
10
899.262
20
290.786
30
0
40
1.700
0
CIRCLE
8
OUTER_PROFILES
10
17.262
20
315.786
30
0
40
1.700
0
CIRCLE
8
OUTER_PROFILES
10
4.000
20
274.024
30
0
40
1.700
0
LWPOLYLINE
8
OUTER_PROFILES
90
4
70
1
10
20.262
20
284.524
10
20.262
20
286.786
10
93.262
20
286.786
10
93.262
20
284.524
0
LWPOLYLINE
8
OUTER_PROFILES
90
23
70
1
10
906.262
20
323.048
10
906.262
20
328.048
10
10.262
20
328.048
10
10.262
20
323.048
10
10.262
20
286.786
10
10.262
20
284.524
10
0.000
20
284.524
10
0.000
20
263.524
10
10.262
20
263.524
10
10.262
20
261.262
10
10.262
20
227.262
10
10.262
20
225.000
10
10.262
20
220.000
10
906.262
20
220.000
10
906.262
20
225.000
10
906.262
20
227.262
10
906.262
20
261.262
10
906.262
20
263.524
10
916.524
20
263.524
10
916.524
20
284.524
10
906.262
20
284.524
10
906.262
20
286.786
10
906.262
20
320.786
0
TEXT
8
PART_LABELS
10
453.500
20
356.000
30
0
40
15.000
1
2BK002-090000
72
1
73
2
11
453.500
21
356.000
31
0
0
ARC
8
OUTER_PROFILES
10
7.784
20
354.690
30
0
40
4.272
50
97.0226
51
130.6776
0
LINE
8
OUTER_PROFILES
10
7.262
20
358.929
30
0
11
21.262
21
358.929
31
0
0
ARC
8
OUTER_PROFILES
10
20.734
20
354.677
30
0
40
4.285
50
49.3767
51
82.9231
0
LINE
8
OUTER_PROFILES
10
23.524
20
357.929
30
0
11
23.595
21
358.000
31
0
0
ARC
8
OUTER_PROFILES
10
26.847
20
360.790
30
0
40
4.285
50
187.0769
51
220.6233
0
LINE
8
OUTER_PROFILES
10
22.595
20
360.262
30
0
11
22.595
21
374.262
31
0
0
ARC
8
OUTER_PROFILES
10
26.834
20
373.740
30
0
40
4.272
50
139.3224
51
172.9774
0
LINE
8
OUTER_PROFILES
10
23.595
20
376.524
30
0
11
28.595
21
381.524
31
0
0
LINE
8
OUTER_PROFILES
10
28.595
20
381.524
30
0
11
878.453
21
381.524
31
0
0
LINE
8
OUTER_PROFILES
10
878.453
20
381.524
30
0
11
883.453
21
376.524
31
0
0
ARC
8
OUTER_PROFILES
10
880.214
20
373.740
30
0
40
4.272
50
7.0226
51
40.6776
0
LINE
8
OUTER_PROFILES
10
884.453
20
374.262
30
0
11
884.453
21
360.262
31
0
0
ARC
8
OUTER_PROFILES
10
880.201
20
360.790
30
0
40
4.285
50
319.3767
51
352.9231
0
LINE
8
OUTER_PROFILES
10
883.453
20
358.000
30
0
11
883.524
21
357.929
31
0
0
ARC
8
OUTER_PROFILES
10
886.314
20
354.677
30
0
40
4.285
50
97.0769
51
130.6233
0
LINE
8
OUTER_PROFILES
10
885.786
20
358.929
30
0
11
899.786
21
358.929
31
0
0
ARC
8
OUTER_PROFILES
10
899.264
20
354.690
30
0
40
4.272
50
49.3224
51
82.9774
0
LINE
8
OUTER_PROFILES
10
902.048
20
357.929
30
0
11
907.048
21
352.929
31
0
0
LINE
8
OUTER_PROFILES
10
907.048
20
352.929
30
0
11
907.048
21
330.000
31
0
0
LINE
8
OUTER_PROFILES
10
907.048
20
330.000
30
0
11
0.000
21
330.000
31
0
0
LINE
8
OUTER_PROFILES
10
0.000
20
330.000
30
0
11
0.000
21
352.929
31
0
0
LINE
8
OUTER_PROFILES
10
0.000
20
352.929
30
0
11
5.000
21
357.929
31
0
0
CIRCLE
8
INTERIOR_PROFILES
10
14.262
20
334.000
30
0
40
1.700
0
CIRCLE
8
INTERIOR_PROFILES
10
892.786
20
354.000
30
0
40
1.700
0
CIRCLE
8
INTERIOR_PROFILES
10
153.524
20
367.262
30
0
40
1.700
0
CIRCLE
8
INTERIOR_PROFILES
10
53.524
20
367.262
30
0
40
1.700
0
CIRCLE
8
INTERIOR_PROFILES
10
653.524
20
367.262
30
0
40
1.700
0
CIRCLE
8
INTERIOR_PROFILES
10
892.786
20
334.000
30
0
40
1.700
0
CIRCLE
8
INTERIOR_PROFILES
10
853.524
20
367.262
30
0
40
1.700
0
CIRCLE
8
INTERIOR_PROFILES
10
753.524
20
367.262
30
0
40
1.700
0
CIRCLE
8
INTERIOR_PROFILES
10
353.524
20
367.262
30
0
40
1.700
0
CIRCLE
8
INTERIOR_PROFILES
10
453.524
20
367.262
30
0
40
1.700
0
CIRCLE
8
INTERIOR_PROFILES
10
253.524
20
367.262
30
0
40
1.700
0
CIRCLE
8
INTERIOR_PROFILES
10
14.262
20
354.000
30
0
40
1.700
0
CIRCLE
8
INTERIOR_PROFILES
10
553.524
20
367.262
30
0
40
1.700
0
CIRCLE
8
INTERIOR_PROFILES
10
53.524
20
340.000
30
0
40
5.000
0
CIRCLE
8
INTERIOR_PROFILES
10
818.786
20
351.000
30
0
40
1.700
0
CIRCLE
8
INTERIOR_PROFILES
10
42.262
20
351.000
30
0
40
1.700
0
CIRCLE
8
INTERIOR_PROFILES
10
88.262
20
351.000
30
0
40
1.700
0
CIRCLE
8
INTERIOR_PROFILES
10
864.786
20
351.000
30
0
40
1.700
0
CIRCLE
8
INTERIOR_PROFILES
10
753.524
20
340.000
30
0
40
5.000
0
CIRCLE
8
INTERIOR_PROFILES
10
453.524
20
340.000
30
0
40
5.000
0
CIRCLE
8
INTERIOR_PROFILES
10
653.524
20
340.000
30
0
40
5.000
0
CIRCLE
8
INTERIOR_PROFILES
10
353.524
20
340.000
30
0
40
5.000
0
CIRCLE
8
INTERIOR_PROFILES
10
153.524
20
340.000
30
0
40
5.000
0
CIRCLE
8
INTERIOR_PROFILES
10
553.524
20
340.000
30
0
40
5.000
0
CIRCLE
8
INTERIOR_PROFILES
10
253.524
20
340.000
30
0
40
5.000
0
CIRCLE
8
INTERIOR_PROFILES
10
853.524
20
340.000
30
0
40
5.000
0
TEXT
8
PART_LABELS
10
450.000
20
408.000
30
0
40
15.000
1
FN3BLA-100000
72
1
73
2
11
450.000
21
408.000
31
0
0
LWPOLYLINE
8
OUTER_PROFILES
90
4
70
1
10
900.000
20
384.000
10
900.000
20
432.262
10
0.000
20
432.262
10
0.000
20
384.000
0
CIRCLE
8
INTERIOR_PROFILES
10
662.500
20
393.500
30
0
40
1.250
0
CIRCLE
8
INTERIOR_PROFILES
10
875.000
20
393.500
30
0
40
1.250
0
CIRCLE
8
INTERIOR_PROFILES
10
875.000
20
426.262
30
0
40
1.700
0
CIRCLE
8
INTERIOR_PROFILES
10
450.000
20
393.500
30
0
40
1.250
0
CIRCLE
8
INTERIOR_PROFILES
10
25.000
20
393.500
30
0
40
1.250
0
CIRCLE
8
INTERIOR_PROFILES
10
237.500
20
393.500
30
0
40
1.250
0
CIRCLE
8
INTERIOR_PROFILES
10
450.000
20
426.262
30
0
40
1.700
0
CIRCLE
8
INTERIOR_PROFILES
10
25.000
20
426.262
30
0
40
1.700
0
TEXT
8
PART_LABELS
10
448.000
20
495.500
30
0
40
30.750
1
FN2BLA-090000
72
1
73
2
11
448.000
21
495.500
31
0
0
LINE
8
OUTER_PROFILES
10
2.000
20
434.000
30
0
11
894.000
21
434.000
31
0
0
ARC
8
OUTER_PROFILES
10
894.000
20
436.000
30
0
40
2.000
50
270.0000
51
0.0000
0
LINE
8
OUTER_PROFILES
10
896.000
20
436.000
30
0
11
896.000
21
448.000
31
0
0
ARC
8
OUTER_PROFILES
10
893.456
20
448.000
30
0
40
2.545
50
0.0000
51
77.3733
0
ARC
8
OUTER_PROFILES
10
902.295
20
465.818
30
0
40
18.301
50
178.6095
51
222.2344
0
ARC
8
OUTER_PROFILES
10
896.539
20
460.957
30
0
40
10.775
50
223.6733
51
256.4369
0
LINE
8
OUTER_PROFILES
10
884.000
20
466.262
30
0
11
884.000
21
524.786
31
0
0
ARC
8
OUTER_PROFILES
10
897.162
20
528.889
30
0
40
12.093
50
105.0973
51
153.9506
0
ARC
8
OUTER_PROFILES
10
903.789
20
524.945
30
0
40
19.790
50
152.1175
51
180.4598
0
ARC
8
OUTER_PROFILES
10
893.456
20
543.048
30
0
40
2.545
50
282.6267
51
0.0000
0
LINE
8
OUTER_PROFILES
10
896.000
20
543.048
30
0
11
896.000
21
555.048
31
0
0
ARC
8
OUTER_PROFILES
10
894.000
20
555.048
30
0
40
2.000
50
0.0000
51
90.0000
0
LINE
8
OUTER_PROFILES
10
894.000
20
557.048
30
0
11
601.000
21
557.048
31
0
0
ARC
8
OUTER_PROFILES
10
601.000
20
555.048
30
0
40
2.000
50
90.0000
51
180.0000
0
LINE
8
OUTER_PROFILES
10
599.000
20
555.048
30
0
11
599.000
21
522.024
31
0
0
LINE
8
OUTER_PROFILES
10
599.000
20
522.024
30
0
11
598.000
21
522.024
31
0
0
LINE
8
OUTER_PROFILES
10
598.000
20
522.024
30
0
11
598.000
21
554.786
31
0
0
ARC
8
OUTER_PROFILES
10
596.000
20
554.786
30
0
40
2.000
50
0.0000
51
90.0000
0
LINE
8
OUTER_PROFILES
10
596.000
20
556.786
30
0
11
300.000
21
556.786
31
0
0
ARC
8
OUTER_PROFILES
10
300.000
20
554.786
30
0
40
2.000
50
90.0000
51
180.0000
0
LINE
8
OUTER_PROFILES
10
298.000
20
554.786
30
0
11
298.000
21
522.024
31
0
0
LINE
8
OUTER_PROFILES
10
298.000
20
522.024
30
0
11
297.000
21
522.024
31
0
0
LINE
8
OUTER_PROFILES
10
297.000
20
522.024
30
0
11
297.000
21
555.048
31
0
0
ARC
8
OUTER_PROFILES
10
295.000
20
555.048
30
0
40
2.000
50
0.0000
51
90.0000
0
LINE
8
OUTER_PROFILES
10
295.000
20
557.048
30
0
11
2.000
21
557.048
31
0
0
ARC
8
OUTER_PROFILES
10
2.000
20
555.048
30
0
40
2.000
50
90.0000
51
180.0000
0
LINE
8
OUTER_PROFILES
10
0.000
20
555.048
30
0
11
0.000
21
543.048
31
0
0
ARC
8
OUTER_PROFILES
10
2.545
20
543.048
30
0
40
2.545
50
180.0000
51
257.3733
0
ARC
8
OUTER_PROFILES
10
-6.295
20
525.230
30
0
40
18.301
50
358.6095
51
42.2344
0
ARC
8
OUTER_PROFILES
10
-0.539
20
530.091
30
0
40
10.775
50
43.6733
51
76.4369
0
LINE
8
OUTER_PROFILES
10
12.000
20
524.786
30
0
11
12.000
21
466.262
31
0
0
ARC
8
OUTER_PROFILES
10
-1.162
20
462.159
30
0
40
12.093
50
285.0973
51
333.9506
0
ARC
8
OUTER_PROFILES
10
-7.789
20
466.103
30
0
40
19.790
50
332.1175
51
0.4598
0
ARC
8
OUTER_PROFILES
10
2.545
20
448.000
30
0
40
2.545
50
102.6267
51
180.0000
0
LINE
8
OUTER_PROFILES
10
0.000
20
448.000
30
0
11
0.000
21
436.000
31
0
0
ARC
8
OUTER_PROFILES
10
2.000
20
436.000
30
0
40
2.000
50
180.0000
51
270.0000
0
CIRCLE
8
INTERIOR_PROFILES
10
842.686
20
515.120
30
0
40
1.700
0
CIRCLE
8
INTERIOR_PROFILES
10
523.000
20
460.262
30
0
40
1.700
0
CIRCLE
8
INTERIOR_PROFILES
10
823.000
20
530.786
30
0
40
1.700
0
CIRCLE
8
INTERIOR_PROFILES
10
823.000
20
460.262
30
0
40
1.700
0
CIRCLE
8
INTERIOR_PROFILES
10
448.000
20
460.262
30
0
40
1.700
0
CIRCLE
8
INTERIOR_PROFILES
10
373.000
20
460.262
30
0
40
1.700
0
CIRCLE
8
INTERIOR_PROFILES
10
73.000
20
530.786
30
0
40
1.700
0
CIRCLE
8
INTERIOR_PROFILES
10
7.000
20
554.048
30
0
40
1.700
0
CIRCLE
8
INTERIOR_PROFILES
10
889.000
20
554.048
30
0
40
1.700
0
CIRCLE
8
INTERIOR_PROFILES
10
73.000
20
460.262
30
0
40
1.700
0
CIRCLE
8
INTERIOR_PROFILES
10
889.000
20
437.000
30
0
40
1.700
0
CIRCLE
8
INTERIOR_PROFILES
10
7.000
20
437.000
30
0
40
1.700
0
CIRCLE
8
INTERIOR_PROFILES
10
670.628
20
495.524
30
0
40
1.700
0
CIRCLE
8
INTERIOR_PROFILES
10
659.314
20
475.928
30
0
40
1.700
0
CIRCLE
8
INTERIOR_PROFILES
10
225.373
20
495.524
30
0
40
1.700
0
CIRCLE
8
INTERIOR_PROFILES
10
636.686
20
515.120
30
0
40
1.700
0
CIRCLE
8
INTERIOR_PROFILES
10
236.686
20
475.928
30
0
40
1.700
0
CIRCLE
8
INTERIOR_PROFILES
10
648.000
20
472.896
30
0
40
1.700
0
CIRCLE
8
INTERIOR_PROFILES
10
648.000
20
518.151
30
0
40
1.700
0
CIRCLE
8
INTERIOR_PROFILES
10
636.686
20
475.928
30
0
40
1.700
0
CIRCLE
8
INTERIOR_PROFILES
10
625.373
20
495.524
30
0
40
1.700
0
CIRCLE
8
INTERIOR_PROFILES
10
270.628
20
495.524
30
0
40
1.700
0
CIRCLE
8
INTERIOR_PROFILES
10
259.314
20
475.928
30
0
40
1.700
0
CIRCLE
8
INTERIOR_PROFILES
10
259.314
20
515.120
30
0
40
1.700
0
CIRCLE
8
INTERIOR_PROFILES
10
248.000
20
518.151
30
0
40
1.700
0
CIRCLE
8
INTERIOR_PROFILES
10
248.000
20
472.896
30
0
40
1.700
0
CIRCLE
8
INTERIOR_PROFILES
10
236.686
20
515.120
30
0
40
1.700
0
CIRCLE
8
INTERIOR_PROFILES
10
854.000
20
518.151
30
0
40
1.700
0
CIRCLE
8
INTERIOR_PROFILES
10
64.628
20
495.524
30
0
40
1.700
0
CIRCLE
8
INTERIOR_PROFILES
10
831.373
20
495.524
30
0
40
1.700
0
CIRCLE
8
INTERIOR_PROFILES
10
42.000
20
472.896
30
0
40
1.700
0
CIRCLE
8
INTERIOR_PROFILES
10
53.314
20
515.120
30
0
40
1.700
0
CIRCLE
8
INTERIOR_PROFILES
10
876.628
20
495.524
30
0
40
1.700
0
CIRCLE
8
INTERIOR_PROFILES
10
19.373
20
495.524
30
0
40
1.700
0
CIRCLE
8
INTERIOR_PROFILES
10
42.000
20
495.524
30
0
40
1.700
0
CIRCLE
8
INTERIOR_PROFILES
10
53.314
20
475.928
30
0
40
1.700
0
CIRCLE
8
INTERIOR_PROFILES
10
659.314
20
515.120
30
0
40
1.700
0
CIRCLE
8
INTERIOR_PROFILES
10
854.000
20
472.896
30
0
40
1.700
0
CIRCLE
8
INTERIOR_PROFILES
10
865.314
20
515.120
30
0
40
1.700
0
CIRCLE
8
INTERIOR_PROFILES
10
865.314
20
475.928
30
0
40
1.700
0
CIRCLE
8
INTERIOR_PROFILES
10
30.686
20
475.928
30
0
40
1.700
0
CIRCLE
8
INTERIOR_PROFILES
10
42.000
20
518.151
30
0
40
1.700
0
CIRCLE
8
INTERIOR_PROFILES
10
842.686
20
475.928
30
0
40
1.700
0
CIRCLE
8
INTERIOR_PROFILES
10
30.686
20
515.120
30
0
40
1.700
0
TEXT
8
PART_LABELS
10
879.500
20
589.000
30
0
40
15.000
1
SD0SUP-000000
72
1
73
2
11
879.500
21
589.000
31
0
0
LWPOLYLINE
8
OUTER_PROFILES
90
8
70
1
10
868.582
20
606.428
42
-0.242311
10
842.500
20
593.000
42
-0.414214
10
841.000
20
594.500
10
841.000
20
597.300
42
1.000000
10
836.000
20
597.300
10
836.000
20
583.000
42
0.414214
10
860.000
20
559.000
10
893.000
20
559.000
42
1.639606
0
CIRCLE
8
INTERIOR_PROFILES
10
895.000
20
609.000
30
0
40
1.700
0
CIRCLE
8
INTERIOR_PROFILES
10
895.000
20
569.000
30
0
40
1.700
0
CIRCLE
8
INTERIOR_PROFILES
10
909.000
20
575.750
30
0
40
1.700
0
CIRCLE
8
INTERIOR_PROFILES
10
909.000
20
591.000
30
0
40
1.700
0
TEXT
8
PART_LABELS
10
790.500
20
613.000
30
0
40
15.000
1
SD0SUP-000000
72
1
73
2
11
790.500
21
613.000
31
0
0
LWPOLYLINE
8
OUTER_PROFILES
90
8
70
1
10
779.582
20
630.428
42
-0.242311
10
753.500
20
617.000
42
-0.414214
10
752.000
20
618.500
10
752.000
20
621.300
42
1.000000
10
747.000
20
621.300
10
747.000
20
607.000
42
0.414214
10
771.000
20
583.000
10
804.000
20
583.000
42
1.639606
0
CIRCLE
8
INTERIOR_PROFILES
10
806.000
20
633.000
30
0
40
1.700
0
CIRCLE
8
INTERIOR_PROFILES
10
806.000
20
593.000
30
0
40
1.700
0
CIRCLE
8
INTERIOR_PROFILES
10
820.000
20
599.750
30
0
40
1.700
0
CIRCLE
8
INTERIOR_PROFILES
10
820.000
20
615.000
30
0
40
1.700
0
TEXT
8
PART_LABELS
10
701.500
20
613.000
30
0
40
15.000
1
SD0SUP-000000
72
1
73
2
11
701.500
21
613.000
31
0
0
LWPOLYLINE
8
OUTER_PROFILES
90
8
70
1
10
690.582
20
630.428
42
-0.242311
10
664.500
20
617.000
42
-0.414214
10
663.000
20
618.500
10
663.000
20
621.300
42
1.000000
10
658.000
20
621.300
10
658.000
20
607.000
42
0.414214
10
682.000
20
583.000
10
715.000
20
583.000
42
1.639606
0
CIRCLE
8
INTERIOR_PROFILES
10
717.000
20
633.000
30
0
40
1.700
0
CIRCLE
8
INTERIOR_PROFILES
10
717.000
20
593.000
30
0
40
1.700
0
CIRCLE
8
INTERIOR_PROFILES
10
731.000
20
599.750
30
0
40
1.700
0
CIRCLE
8
INTERIOR_PROFILES
10
731.000
20
615.000
30
0
40
1.700
0
TEXT
8
PART_LABELS
10
612.500
20
613.000
30
0
40
15.000
1
SD0SUP-000000
72
1
73
2
11
612.500
21
613.000
31
0
0
LWPOLYLINE
8
OUTER_PROFILES
90
8
70
1
10
601.582
20
630.428
42
-0.242311
10
575.500
20
617.000
42
-0.414214
10
574.000
20
618.500
10
574.000
20
621.300
42
1.000000
10
569.000
20
621.300
10
569.000
20
607.000
42
0.414214
10
593.000
20
583.000
10
626.000
20
583.000
42
1.639606
0
CIRCLE
8
INTERIOR_PROFILES
10
628.000
20
633.000
30
0
40
1.700
0
CIRCLE
8
INTERIOR_PROFILES
10
628.000
20
593.000
30
0
40
1.700
0
CIRCLE
8
INTERIOR_PROFILES
10
642.000
20
599.750
30
0
40
1.700
0
CIRCLE
8
INTERIOR_PROFILES
10
642.000
20
615.000
30
0
40
1.700
0
ENDSEC
0
EOF