0
SECTION
2
HEADER
9
$INSUNITS
70
4
0
ENDSEC
0
SECTION
2
ENTITIES
0
LWPOLYLINE
8
SHEET_BORDER
90
5
70
1
10
0.000
20
0.000
10
3050.000
20
0.000
10
3050.000
20
1220.000
10
0.000
20
1220.000
10
0.000
20
0.000
0
TEXT
8
PART_LABELS
10
494.500
20
386.500
30
0
40
50.000
1
2BK001-100080
72
1
73
2
11
494.500
21
386.500
31
0
0
LINE
8
OUTER_PROFILES
10
989.000
20
752.453
30
0
11
984.000
21
757.453
31
0
0
ARC
8
OUTER_PROFILES
10
981.216
20
754.214
30
0
40
4.272
50
49.3224
51
82.9774
0
LINE
8
OUTER_PROFILES
10
981.738
20
758.453
30
0
11
975.738
21
758.453
31
0
0
ARC
8
OUTER_PROFILES
10
976.266
20
754.201
30
0
40
4.285
50
97.0769
51
130.6233
0
LINE
8
OUTER_PROFILES
10
973.476
20
757.453
30
0
11
973.405
21
757.524
31
0
0
ARC
8
OUTER_PROFILES
10
970.153
20
760.314
30
0
40
4.285
50
319.3767
51
352.9231
0
LINE
8
OUTER_PROFILES
10
974.405
20
759.786
30
0
11
974.405
21
765.786
31
0
0
ARC
8
OUTER_PROFILES
10
970.166
20
765.264
30
0
40
4.272
50
7.0226
51
40.6776
0
LINE
8
OUTER_PROFILES
10
973.405
20
768.048
30
0
11
968.405
21
773.048
31
0
0
LINE
8
OUTER_PROFILES
10
968.405
20
773.048
30
0
11
20.547
21
773.048
31
0
0
LINE
8
OUTER_PROFILES
10
20.547
20
773.048
30
0
11
15.547
21
768.048
31
0
0
ARC
8
OUTER_PROFILES
10
18.786
20
765.264
30
0
40
4.272
50
139.3224
51
172.9774
0
LINE
8
OUTER_PROFILES
10
14.547
20
765.786
30
0
11
14.547
21
759.786
31
0
0
ARC
8
OUTER_PROFILES
10
18.799
20
760.314
30
0
40
4.285
50
187.0769
51
220.6233
0
LINE
8
OUTER_PROFILES
10
15.547
20
757.524
30
0
11
15.476
21
757.453
31
0
0
ARC
8
OUTER_PROFILES
10
12.686
20
754.201
30
0
40
4.285
50
49.3767
51
82.9231
0
LINE
8
OUTER_PROFILES
10
13.214
20
758.453
30
0
11
7.214
21
758.453
31
0
0
ARC
8
OUTER_PROFILES
10
7.736
20
754.214
30
0
40
4.272
50
97.0226
51
130.6776
0
LINE
8
OUTER_PROFILES
10
4.952
20
757.453
30
0
11
-0.048
21
752.453
31
0
0
LINE
8
OUTER_PROFILES
10
-0.048
20
752.453
30
0
11
-0.048
21
20.595
31
0
0
LINE
8
OUTER_PROFILES
10
-0.048
20
20.595
30
0
11
4.952
21
15.595
31
0
0
ARC
8
OUTER_PROFILES
10
7.736
20
18.834
30
0
40
4.272
50
229.3224
51
262.9774
0
LINE
8
OUTER_PROFILES
10
7.214
20
14.595
30
0
11
13.214
21
14.595
31
0
0
ARC
8
OUTER_PROFILES
10
12.686
20
18.847
30
0
40
4.285
50
277.0769
51
310.6233
0
LINE
8
OUTER_PROFILES
10
15.476
20
15.595
30
0
11
15.547
21
15.524
31
0
0
ARC
8
OUTER_PROFILES
10
18.799
20
12.734
30
0
40
4.285
50
139.3767
51
172.9231
0
LINE
8
OUTER_PROFILES
10
14.547
20
13.262
30
0
11
14.547
21
7.262
31
0
0
ARC
8
OUTER_PROFILES
10
18.786
20
7.784
30
0
40
4.272
50
187.0226
51
220.6776
0
LINE
8
OUTER_PROFILES
10
15.547
20
5.000
30
0
11
20.547
21
0.000
31
0
0
LINE
8
OUTER_PROFILES
10
20.547
20
0.000
30
0
11
968.405
21
0.000
31
0
0
LINE
8
OUTER_PROFILES
10
968.405
20
0.000
30
0
11
973.405
21
5.000
31
0
0
ARC
8
OUTER_PROFILES
10
970.166
20
7.784
30
0
40
4.272
50
319.3224
51
352.9774
0
LINE
8
OUTER_PROFILES
10
974.405
20
7.262
30
0
11
974.405
21
13.262
31
0
0
ARC
8
OUTER_PROFILES
10
970.153
20
12.734
30
0
40
4.285
50
7.0769
51
40.6233
0
LINE
8
OUTER_PROFILES
10
973.405
20
15.524
30
0
11
973.476
21
15.595
31
0
0
ARC
8
OUTER_PROFILES
10
976.266
20
18.847
30
0
40
4.285
50
229.3767
51
262.9231
0
LINE
8
OUTER_PROFILES
10
975.738
20
14.595
30
0
11
981.738
21
14.595
31
0
0
ARC
8
OUTER_PROFILES
10
981.216
20
18.834
30
0
40
4.272
50
277.0226
51
310.6776
0
LINE
8
OUTER_PROFILES
10
984.000
20
15.595
30
0
11
989.000
21
20.595
31
0
0
LINE
8
OUTER_PROFILES
10
989.000
20
20.595
30
0
11
989.000
21
752.453
31
0
0
TEXT
8
PART_LABELS
10
1478.000
20
379.500
30
0
40
50.000
1
CVH122-S65089
72
1
73
2
11
1478.000
21
379.500
31
0
0
LWPOLYLINE
8
OUTER_PROFILES
90
40
70
1
10
1054.757
20
36.424
42
0.414214
10
1054.757
20
37.838
10
1045.333
20
47.262
10
1054.757
20
56.686
42
0.414214
10
1054.757
20
58.100
10
1045.312
20
67.545
10
1045.312
20
94.624
10
991.000
20
94.624
10
991.000
20
664.424
10
1045.312
20
664.424
10
1045.312
20
691.503
10
1054.757
20
700.948
42
0.414214
10
1054.757
20
702.362
10
1045.333
20
711.786
10
1054.757
20
721.210
42
0.414214
10
1054.757
20
722.624
10
1045.312
20
732.068
10
1045.312
20
759.048
10
1953.736
20
759.048
10
1953.736
20
732.068
10
1944.291
20
722.624
42
0.414214
10
1944.291
20
721.210
10
1953.715
20
711.786
10
1944.291
20
702.362
42
0.414214
10
1944.291
20
700.948
10
1953.736
20
691.503
10
1953.736
20
664.424
10
1964.786
20
664.424
10
1964.786
20
94.624
10
1953.736
20
94.624
10
1953.736
20
67.545
10
1944.291
20
58.100
42
0.414214
10
1944.291
20
56.686
10
1953.715
20
47.262
10
1944.291
20
37.838
42
0.414214
10
1944.291
20
36.424
10
1953.736
20
26.979
10
1953.736
20
0.000
10
1045.312
20
0.000
10
1045.312
20
26.979
0
CIRCLE
8
INTERIOR_PROFILES
10
1870.524
20
4.000
30
0
40
1.700
0
CIRCLE
8
INTERIOR_PROFILES
10
1384.524
20
755.048
30
0
40
1.265
0
CIRCLE
8
INTERIOR_PROFILES
10
1065.524
20
711.786
30
0
40
8.750
0
CIRCLE
8
INTERIOR_PROFILES
10
1870.524
20
755.048
30
0
40
1.700
0
CIRCLE
8
INTERIOR_PROFILES
10
994.000
20
112.524
30
0
40
1.700
0
CIRCLE
8
INTERIOR_PROFILES
10
1784.524
20
755.048
30
0
40
1.265
0
CIRCLE
8
INTERIOR_PROFILES
10
994.000
20
468.524
30
0
40
1.700
0
CIRCLE
8
INTERIOR_PROFILES
10
1784.524
20
4.000
30
0
40
1.264
0
CIRCLE
8
INTERIOR_PROFILES
10
1584.524
20
4.000
30
0
40
1.264
0
CIRCLE
8
INTERIOR_PROFILES
10
1184.524
20
4.000
30
0
40
1.264
0
CIRCLE
8
INTERIOR_PROFILES
10
1484.524
20
4.000
30
0
40
1.264
0
CIRCLE
8
INTERIOR_PROFILES
10
994.000
20
290.524
30
0
40
1.700
0
CIRCLE
8
INTERIOR_PROFILES
10
1484.524
20
755.048
30
0
40
1.265
0
CIRCLE
8
INTERIOR_PROFILES
10
1096.524
20
7.000
30
0
40
1.700
0
CIRCLE
8
INTERIOR_PROFILES
10
1384.524
20
4.000
30
0
40
1.264
0
CIRCLE
8
INTERIOR_PROFILES
10
1184.524
20
755.048
30
0
40
1.265
0
CIRCLE
8
INTERIOR_PROFILES
10
1065.524
20
47.262
30
0
40
8.750
0
CIRCLE
8
INTERIOR_PROFILES
10
994.000
20
646.524
30
0
40
1.700
0
CIRCLE
8
INTERIOR_PROFILES
10
1071.524
20
752.048
30
0
40
1.700
0
CIRCLE
8
INTERIOR_PROFILES
10
1071.524
20
7.000
30
0
40
1.700
0
CIRCLE
8
INTERIOR_PROFILES
10
1096.524
20
752.048
30
0
40
1.700
0
CIRCLE
8
INTERIOR_PROFILES
10
1584.524
20
755.048
30
0
40
1.265
0
TEXT
8
PART_LABELS
10
2411.500
20
394.500
30
0
40
50.000
1
BK1DN1-090000
72
1
73
2
11
2411.500
21
394.500
31
0
0
ARC
8
OUTER_PROFILES
10
1985.847
20
776.266
30
0
40
4.285
50
187.0769
51
220.6233
0
LINE
8
OUTER_PROFILES
10
1982.595
20
773.476
30
0
11
1982.524
21
773.405
31
0
0
ARC
8
OUTER_PROFILES
10
1979.734
20
770.153
30
0
40
4.285
50
49.3767
51
82.9231
0
LINE
8
OUTER_PROFILES
10
1980.262
20
774.405
30
0
11
1974.262
21
774.405
31
0
0
ARC
8
OUTER_PROFILES
10
1974.784
20
770.166
30
0
40
4.272
50
97.0226
51
130.6776
0
LINE
8
OUTER_PROFILES
10
1972.000
20
773.405
30
0
11
1967.000
21
768.405
31
0
0
LINE
8
OUTER_PROFILES
10
1967.000
20
768.405
30
0
11
1967.000
21
20.547
31
0
0
LINE
8
OUTER_PROFILES
10
1967.000
20
20.547
30
0
11
1972.000
21
15.547
31
0
0
ARC
8
OUTER_PROFILES
10
1974.784
20
18.786
30
0
40
4.272
50
229.3224
51
262.9774
0
LINE
8
OUTER_PROFILES
10
1974.262
20
14.547
30
0
11
1980.262
21
14.547
31
0
0
ARC
8
OUTER_PROFILES
10
1979.734
20
18.799
30
0
40
4.285
50
277.0769
51
310.6233
0
LINE
8
OUTER_PROFILES
10
1982.524
20
15.547
30
0
11
1982.595
21
15.476
31
0
0
ARC
8
OUTER_PROFILES
10
1985.847
20
12.686
30
0
40
4.285
50
139.3767
51
172.9231
0
LINE
8
OUTER_PROFILES
10
1981.595
20
13.214
30
0
11
1981.595
21
7.214
31
0
0
ARC
8
OUTER_PROFILES
10
1985.834
20
7.736
30
0
40
4.272
50
187.0226
51
220.6776
0
LINE
8
OUTER_PROFILES
10
1982.595
20
4.952
30
0
11
1987.595
21
-0.048
31
0
0
LINE
8
OUTER_PROFILES
10
1987.595
20
-0.048
30
0
11
2835.453
21
-0.048
31
0
0
LINE
8
OUTER_PROFILES
10
2835.453
20
-0.048
30
0
11
2840.453
21
4.952
31
0
0
ARC
8
OUTER_PROFILES
10
2837.214
20
7.736
30
0
40
4.272
50
319.3224
51
352.9774
0
LINE
8
OUTER_PROFILES
10
2841.453
20
7.214
30
0
11
2841.453
21
13.214
31
0
0
ARC
8
OUTER_PROFILES
10
2837.201
20
12.686
30
0
40
4.285
50
7.0769
51
40.6233
0
LINE
8
OUTER_PROFILES
10
2840.453
20
15.476
30
0
11
2840.524
21
15.547
31
0
0
ARC
8
OUTER_PROFILES
10
2843.314
20
18.799
30
0
40
4.285
50
229.3767
51
262.9231
0
LINE
8
OUTER_PROFILES
10
2842.786
20
14.547
30
0
11
2848.786
21
14.547
31
0
0
ARC
8
OUTER_PROFILES
10
2848.264
20
18.786
30
0
40
4.272
50
277.0226
51
310.6776
0
LINE
8
OUTER_PROFILES
10
2851.048
20
15.547
30
0
11
2856.048
21
20.547
31
0
0
LINE
8
OUTER_PROFILES
10
2856.048
20
20.547
30
0
11
2856.048
21
768.405
31
0
0
LINE
8
OUTER_PROFILES
10
2856.048
20
768.405
30
0
11
2851.048
21
773.405
31
0
0
ARC
8
OUTER_PROFILES
10
2848.264
20
770.166
30
0
40
4.272
50
49.3224
51
82.9774
0
LINE
8
OUTER_PROFILES
10
2848.786
20
774.405
30
0
11
2842.786
21
774.405
31
0
0
ARC
8
OUTER_PROFILES
10
2843.314
20
770.153
30
0
40
4.285
50
97.0769
51
130.6233
0
LINE
8
OUTER_PROFILES
10
2840.524
20
773.405
30
0
11
2840.453
21
773.476
31
0
0
ARC
8
OUTER_PROFILES
10
2837.201
20
776.266
30
0
40
4.285
50
319.3767
51
352.9231
0
LINE
8
OUTER_PROFILES
10
2841.453
20
775.738
30
0
11
2841.453
21
781.738
31
0
0
ARC
8
OUTER_PROFILES
10
2837.214
20
781.216
30
0
40
4.272
50
7.0226
51
40.6776
0
LINE
8
OUTER_PROFILES
10
2840.453
20
784.000
30
0
11
2835.453
21
789.000
31
0
0
LINE
8
OUTER_PROFILES
10
2835.453
20
789.000
30
0
11
1987.595
21
789.000
31
0
0
LINE
8
OUTER_PROFILES
10
1987.595
20
789.000
30
0
11
1982.595
21
784.000
31
0
0
ARC
8
OUTER_PROFILES
10
1985.834
20
781.216
30
0
40
4.272
50
139.3224
51
172.9774
0
LINE
8
OUTER_PROFILES
10
1981.595
20
781.738
30
0
11
1981.595
21
775.738
31
0
0
TEXT
8
PART_LABELS
10
469.000
20
992.500
30
0
40
50.000
1
DSV100-090040
72
1
73
2
11
469.000
21
992.500
31
0
0
LWPOLYLINE
8
OUTER_PROFILES
90
34
70
1
10
2.000
20
797.595
10
4.262
20
795.524
10
20.262
20
795.524
10
21.624
20
795.262
10
21.624
20
779.262
10
22.595
20
777.000
10
24.595
20
775.000
10
913.453
20
775.000
10
915.453
20
777.000
10
916.424
20
779.262
10
916.424
20
795.262
10
917.786
20
795.524
10
933.786
20
795.524
10
936.048
20
797.595
10
938.048
20
799.595
10
938.048
20
1162.453
10
936.048
20
1164.453
10
933.786
20
1167.352
10
919.200
20
1181.938
10
916.424
20
1183.917
10
916.424
20
1205.258
10
915.974
20
1206.544
10
915.453
20
1207.675
10
913.453
20
1209.675
10
24.595
20
1209.675
10
22.595
20
1207.675
10
22.074
20
1206.544
10
21.624
20
1205.258
10
21.624
20
1183.917
10
18.848
20
1181.938
10
4.262
20
1167.352
10
2.000
20
1164.453
10
0.000
20
1162.453
10
0.000
20
799.595
0
TEXT
8
PART_LABELS
10
1437.500
20
973.500
30
0
40
50.000
1
SH0S11-100035
72
1
73
2
11
1437.500
21
973.500
31
0
0
LWPOLYLINE
8
OUTER_PROFILES
90
24
70
1
10
959.131
20
800.686
42
0.414214
10
959.131
20
802.100
10
940.000
20
821.231
10
940.000
20
1125.817
10
959.131
20
1144.948
42
0.414214
10
959.131
20
1146.362
10
940.707
20
1164.786
10
960.262
20
1164.786
10
960.262
20
1172.048
10
1914.262
20
1172.048
10
1914.262
20
1164.786
10
1933.817
20
1164.786
10
1915.393
20
1146.362
42
0.414214
10
1915.393
20
1144.948
10
1934.524
20
1125.817
10
1934.524
20
821.231
10
1915.393
20
802.100
42
0.414214
10
1915.393
20
800.686
10
1933.817
20
782.262
10
1914.262
20
782.262
10
1914.262
20
775.000
10
960.262
20
775.000
10
960.262
20
782.262
10
940.707
20
782.262
0
CIRCLE
8
INTERIOR_PROFILES
10
1925.524
20
973.524
30
0
40
1.700
0
CIRCLE
8
INTERIOR_PROFILES
10
949.000
20
973.524
30
0
40
1.700
0
TEXT
8
PART_LABELS
10
2393.500
20
1002.000
30
0
40
50.000
1
2CTN00-090000
72
1
73
2
11
2393.500
21
1002.000
31
0
0
LWPOLYLINE
8
OUTER_PROFILES
90
30
70
1
10
1943.495
20
817.686
42
0.414214
10
1943.495
20
819.100
10
1941.000
20
821.595
10
1937.000
20
821.595
10
1937.000
20
1181.524
10
1943.000
20
1181.524
10
1945.262
20
1181.524
10
1945.262
20
1193.048
42
0.414214
10
1955.262
20
1203.048
10
1955.262
20
1213.048
10
2831.262
20
1213.048
10
2831.262
20
1203.048
42
0.414214
10
2841.262
20
1193.048
10
2841.262
20
1181.524
10
2843.524
20
1181.524
10
2849.524
20
1181.524
10
2849.524
20
821.595
10
2845.524
20
821.595
10
2843.029
20
819.100
42
0.414214
10
2843.029
20
817.686
10
2845.524
20
815.191
10
2845.524
20
797.333
10
2843.029
20
794.838
42
0.414214
10
2843.029
20
793.424
10
2845.453
20
791.000
10
1941.071
20
791.000
10
1943.495
20
793.424
42
0.414214
10
1943.495
20
794.838
10
1941.000
20
797.333
10
1941.000
20
815.191
0
CIRCLE
8
INTERIOR_PROFILES
10
1993.262
20
825.524
30
0
40
1.700
0
CIRCLE
8
INTERIOR_PROFILES
10
2193.262
20
1203.048
30
0
40
1.700
0
CIRCLE
8
INTERIOR_PROFILES
10
2593.262
20
825.524
30
0
40
1.700
0
CIRCLE
8
INTERIOR_PROFILES
10
2793.262
20
825.524
30
0
40
1.700
0
CIRCLE
8
INTERIOR_PROFILES
10
2693.262
20
825.524
30
0
40
1.700
0
CIRCLE
8
INTERIOR_PROFILES
10
2193.262
20
825.524
30
0
40
1.700
0
CIRCLE
8
INTERIOR_PROFILES
10
2393.262
20
825.524
30
0
40
1.700
0
CIRCLE
8
INTERIOR_PROFILES
10
2093.262
20
825.524
30
0
40
1.700
0
CIRCLE
8
INTERIOR_PROFILES
10
2493.262
20
1203.048
30
0
40
1.700
0
CIRCLE
8
INTERIOR_PROFILES
10
1993.262
20
1203.048
30
0
40
1.700
0
CIRCLE
8
INTERIOR_PROFILES
10
2793.262
20
1203.048
30
0
40
1.700
0
CIRCLE
8
INTERIOR_PROFILES
10
2393.262
20
1203.048
30
0
40
1.700
0
CIRCLE
8
INTERIOR_PROFILES
10
2693.262
20
1203.048
30
0
40
1.700
0
CIRCLE
8
INTERIOR_PROFILES
10
2293.262
20
1203.048
30
0
40
1.700
0
CIRCLE
8
INTERIOR_PROFILES
10
2093.262
20
1203.048
30
0
40
1.700
0
CIRCLE
8
INTERIOR_PROFILES
10
2493.262
20
825.524
30
0
40
1.700
0
CIRCLE
8
INTERIOR_PROFILES
10
2293.262
20
825.524
30
0
40
1.700
0
CIRCLE
8
INTERIOR_PROFILES
10
2593.262
20
1203.048
30
0
40
1.700
0
TEXT
8
PART_LABELS
10
2919.500
20
498.000
30
0
40
30.750
1
FN2BNX-100000
72
1
73
2
11
2919.500
21
498.000
31
0
0
ARC
8
OUTER_PROFILES
10
2886.111
20
997.162
30
0
40
12.093
50
195.0973
51
243.9506
0
ARC
8
OUTER_PROFILES
10
2890.055
20
1003.789
30
0
40
19.790
50
242.1175
51
270.4598
0
ARC
8
OUTER_PROFILES
10
2871.952
20
993.456
30
0
40
2.545
50
12.6267
51
90.0000
0
LINE
8
OUTER_PROFILES
10
2871.952
20
996.000
30
0
11
2859.952
21
996.000
31
0
0
ARC
8
OUTER_PROFILES
10
2859.952
20
994.000
30
0
40
2.000
50
90.0000
51
180.0000
0
LINE
8
OUTER_PROFILES
10
2857.952
20
994.000
30
0
11
2857.952
21
2.000
31
0
0
ARC
8
OUTER_PROFILES
10
2859.952
20
2.000
30
0
40
2.000
50
180.0000
51
270.0000
0
LINE
8
OUTER_PROFILES
10
2859.952
20
0.000
30
0
11
2871.952
21
0.000
31
0
0
ARC
8
OUTER_PROFILES
10
2871.952
20
2.545
30
0
40
2.545
50
270.0000
51
347.3733
0
ARC
8
OUTER_PROFILES
10
2889.770
20
-6.295
30
0
40
18.301
50
88.6095
51
132.2344
0
ARC
8
OUTER_PROFILES
10
2884.909
20
-0.539
30
0
40
10.775
50
133.6733
51
166.4369
0
LINE
8
OUTER_PROFILES
10
2890.214
20
12.000
30
0
11
2948.738
21
12.000
31
0
0
ARC
8
OUTER_PROFILES
10
2952.841
20
-1.162
30
0
40
12.093
50
15.0973
51
63.9506
0
ARC
8
OUTER_PROFILES
10
2948.897
20
-7.789
30
0
40
19.790
50
62.1175
51
90.4598
0
ARC
8
OUTER_PROFILES
10
2967.000
20
2.545
30
0
40
2.545
50
192.6267
51
270.0000
0
LINE
8
OUTER_PROFILES
10
2967.000
20
0.000
30
0
11
2979.000
21
0.000
31
0
0
ARC
8
OUTER_PROFILES
10
2979.000
20
2.000
30
0
40
2.000
50
270.0000
51
0.0000
0
LINE
8
OUTER_PROFILES
10
2981.000
20
2.000
30
0
11
2981.000
21
994.000
31
0
0
ARC
8
OUTER_PROFILES
10
2979.000
20
994.000
30
0
40
2.000
50
360.0000
51
90.0000
0
LINE
8
OUTER_PROFILES
10
2979.000
20
996.000
30
0
11
2967.000
21
996.000
31
0
0
ARC
8
OUTER_PROFILES
10
2967.000
20
993.456
30
0
40
2.544
50
90.0000
51
167.3733
0
ARC
8
OUTER_PROFILES
10
2949.182
20
1002.295
30
0
40
18.301
50
268.6095
51
312.2344
0
ARC
8
OUTER_PROFILES
10
2954.043
20
996.539
30
0
40
10.775
50
313.6733
51
346.4369
0
LINE
8
OUTER_PROFILES
10
2948.738
20
984.000
30
0
11
2890.214
21
984.000
31
0
0
CIRCLE
8
INTERIOR_PROFILES
10
2970.000
20
248.000
30
0
40
1.700
0
CIRCLE
8
INTERIOR_PROFILES
10
2970.000
20
498.000
30
0
40
1.700
0
CIRCLE
8
INTERIOR_PROFILES
10
2970.000
20
298.000
30
0
40
1.700
0
CIRCLE
8
INTERIOR_PROFILES
10
2970.000
20
198.000
30
0
40
1.700
0
CIRCLE
8
INTERIOR_PROFILES
10
2970.000
20
98.000
30
0
40
1.700
0
CIRCLE
8
INTERIOR_PROFILES
10
2970.000
20
963.000
30
0
40
1.700
0
CIRCLE
8
INTERIOR_PROFILES
10
2970.000
20
448.000
30
0
40
1.700
0
CIRCLE
8
INTERIOR_PROFILES
10
2970.000
20
7.000
30
0
40
1.700
0
CIRCLE
8
INTERIOR_PROFILES
10
2970.000
20
33.000
30
0
40
1.700
0
CIRCLE
8
INTERIOR_PROFILES
10
2970.000
20
79.000
30
0
40
1.700
0
CIRCLE
8
INTERIOR_PROFILES
10
2970.000
20
148.000
30
0
40
1.700
0
CIRCLE
8
INTERIOR_PROFILES
10
2970.000
20
989.000
30
0
40
1.700
0
CIRCLE
8
INTERIOR_PROFILES
10
2970.000
20
917.000
30
0
40
1.700
0
CIRCLE
8
INTERIOR_PROFILES
10
2899.880
20
30.686
30
0
40
1.700
0
CIRCLE
8
INTERIOR_PROFILES
10
2939.072
20
53.314
30
0
40
1.700
0
CIRCLE
8
INTERIOR_PROFILES
10
2884.214
20
73.000
30
0
40
1.700
0
CIRCLE
8
INTERIOR_PROFILES
10
2954.738
20
498.000
30
0
40
1.700
0
CIRCLE
8
INTERIOR_PROFILES
10
2954.738
20
73.000
30
0
40
1.700
0
CIRCLE
8
INTERIOR_PROFILES
10
2919.476
20
931.373
30
0
40
1.700
0
CIRCLE
8
INTERIOR_PROFILES
10
2896.849
20
42.000
30
0
40
1.700
0
CIRCLE
8
INTERIOR_PROFILES
10
2860.952
20
7.000
30
0
40
1.700
0
CIRCLE
8
INTERIOR_PROFILES
10
2970.000
20
348.000
30
0
40
1.700
0
CIRCLE
8
INTERIOR_PROFILES
10
2954.738
20
923.000
30
0
40
1.700
0
CIRCLE
8
INTERIOR_PROFILES
10
2860.952
20
989.000
30
0
40
1.700
0
CIRCLE
8
INTERIOR_PROFILES
10
2884.214
20
498.000
30
0
40
1.700
0
CIRCLE
8
INTERIOR_PROFILES
10
2978.000
20
989.000
30
0
40
1.700
0
CIRCLE
8
INTERIOR_PROFILES
10
2978.000
20
7.000
30
0
40
1.700
0
CIRCLE
8
INTERIOR_PROFILES
10
2919.476
20
64.628
30
0
40
1.700
0
CIRCLE
8
INTERIOR_PROFILES
10
2884.214
20
423.000
30
0
40
1.700
0
CIRCLE
8
INTERIOR_PROFILES
10
2884.214
20
573.000
30
0
40
1.700
0
CIRCLE
8
INTERIOR_PROFILES
10
2954.738
20
423.000
30
0
40
1.700
0
CIRCLE
8
INTERIOR_PROFILES
10
2884.214
20
923.000
30
0
40
1.700
0
CIRCLE
8
INTERIOR_PROFILES
10
2954.738
20
573.000
30
0
40
1.700
0
CIRCLE
8
INTERIOR_PROFILES
10
2896.849
20
954.000
30
0
40
1.700
0
CIRCLE
8
INTERIOR_PROFILES
10
2939.072
20
942.686
30
0
40
1.700
0
CIRCLE
8
INTERIOR_PROFILES
10
2919.476
20
976.628
30
0
40
1.700
0
CIRCLE
8
INTERIOR_PROFILES
10
2970.000
20
398.000
30
0
40
1.700
0
CIRCLE
8
INTERIOR_PROFILES
10
2919.476
20
42.000
30
0
40
1.700
0
CIRCLE
8
INTERIOR_PROFILES
10
2899.880
20
53.314
30
0
40
1.700
0
CIRCLE
8
INTERIOR_PROFILES
10
2919.476
20
19.373
30
0
40
1.700
0
CIRCLE
8
INTERIOR_PROFILES
10
2939.072
20
30.686
30
0
40
1.700
0
CIRCLE
8
INTERIOR_PROFILES
10
2942.104
20
498.000
30
0
40
1.700
0
CIRCLE
8
INTERIOR_PROFILES
10
2939.072
20
965.314
30
0
40
1.700
0
CIRCLE
8
INTERIOR_PROFILES
10
2939.072
20
486.686
30
0
40
1.700
0
CIRCLE
8
INTERIOR_PROFILES
10
2899.880
20
509.314
30
0
40
1.700
0
CIRCLE
8
INTERIOR_PROFILES
10
2899.880
20
965.314
30
0
40
1.700
0
CIRCLE
8
INTERIOR_PROFILES
10
2899.880
20
486.686
30
0
40
1.700
0
CIRCLE
8
INTERIOR_PROFILES
10
2899.880
20
942.686
30
0
40
1.700
0
CIRCLE
8
INTERIOR_PROFILES
10
2896.849
20
498.000
30
0
40
1.700
0
CIRCLE
8
INTERIOR_PROFILES
10
2942.104
20
954.000
30
0
40
1.700
0
CIRCLE
8
INTERIOR_PROFILES
10
2919.476
20
520.628
30
0
40
1.700
0
CIRCLE
8
INTERIOR_PROFILES
10
2939.072
20
509.314
30
0
40
1.700
0
CIRCLE
8
INTERIOR_PROFILES
10
2919.476
20
475.373
30
0
40
1.700
0
CIRCLE
8
INTERIOR_PROFILES
10
2942.104
20
42.000
30
0
40
1.700
0
ENDSEC
0
EOF