0
SECTION
2
HEADER
9
$INSUNITS
70
4
0
ENDSEC
0
SECTION
2
ENTITIES
0
LWPOLYLINE
8
SHEET_BORDER
90
5
70
1
10
0.000
20
0.000
10
805.000
20
0.000
10
805.000
20
360.000
10
0.000
20
360.000
10
0.000
20
0.000
0
TEXT
8
PART_LABELS
10
400.000
20
24.000
30
0
40
15.000
1
FN3BLA-090000
72
1
73
2
11
400.000
21
24.000
31
0
0
LWPOLYLINE
8
OUTER_PROFILES
90
4
70
1
10
0.000
20
48.262
10
0.000
20
0.000
10
800.000
20
0.000
10
800.000
20
48.262
0
CIRCLE
8
INTERIOR_PROFILES
10
775.000
20
9.500
30
0
40
1.250
0
CIRCLE
8
INTERIOR_PROFILES
10
25.000
20
42.262
30
0
40
1.700
0
CIRCLE
8
INTERIOR_PROFILES
10
400.000
20
9.500
30
0
40
1.250
0
CIRCLE
8
INTERIOR_PROFILES
10
25.000
20
9.500
30
0
40
1.250
0
CIRCLE
8
INTERIOR_PROFILES
10
775.000
20
42.262
30
0
40
1.700
0
CIRCLE
8
INTERIOR_PROFILES
10
587.500
20
9.500
30
0
40
1.250
0
CIRCLE
8
INTERIOR_PROFILES
10
400.000
20
42.262
30
0
40
1.700
0
CIRCLE
8
INTERIOR_PROFILES
10
212.500
20
9.500
30
0
40
1.250
0
TEXT
8
PART_LABELS
10
769.000
20
120.000
30
0
40
17.000
1
BXXTR0-000000
72
1
73
2
11
769.000
21
120.000
31
0
0
LWPOLYLINE
8
OUTER_PROFILES
90
10
70
1
10
744.503
20
108.168
10
737.246
20
100.912
10
788.158
20
50.000
10
803.000
20
64.842
10
803.000
20
175.536
10
788.158
20
190.378
10
737.246
20
139.466
10
744.503
20
132.210
10
737.431
20
125.139
42
0.414214
10
737.431
20
115.239
0
CIRCLE
8
INTERIOR_PROFILES
10
783.915
20
59.899
30
0
40
1.700
0
CIRCLE
8
INTERIOR_PROFILES
10
783.915
20
180.478
30
0
40
1.700
0
CIRCLE
8
INTERIOR_PROFILES
10
751.388
20
92.426
30
0
40
1.700
0
CIRCLE
8
INTERIOR_PROFILES
10
794.000
20
68.570
30
0
40
1.700
0
CIRCLE
8
INTERIOR_PROFILES
10
794.000
20
171.808
30
0
40
1.700
0
CIRCLE
8
INTERIOR_PROFILES
10
742.381
20
120.189
30
0
40
1.700
0
CIRCLE
8
INTERIOR_PROFILES
10
751.388
20
147.951
30
0
40
1.700
0
CIRCLE
8
INTERIOR_PROFILES
10
794.000
20
120.189
30
0
40
5.000
0
TEXT
8
PART_LABELS
10
769.000
20
262.000
30
0
40
17.000
1
BXXTR0-000000
72
1
73
2
11
769.000
21
262.000
31
0
0
LWPOLYLINE
8
OUTER_PROFILES
90
10
70
1
10
744.503
20
250.168
10
737.246
20
242.912
10
788.158
20
192.000
10
803.000
20
206.842
10
803.000
20
317.536
10
788.158
20
332.378
10
737.246
20
281.466
10
744.503
20
274.210
10
737.431
20
267.139
42
0.414214
10
737.431
20
257.239
0
CIRCLE
8
INTERIOR_PROFILES
10
783.915
20
201.899
30
0
40
1.700
0
CIRCLE
8
INTERIOR_PROFILES
10
783.915
20
322.478
30
0
40
1.700
0
CIRCLE
8
INTERIOR_PROFILES
10
751.388
20
234.426
30
0
40
1.700
0
CIRCLE
8
INTERIOR_PROFILES
10
794.000
20
210.570
30
0
40
1.700
0
CIRCLE
8
INTERIOR_PROFILES
10
794.000
20
313.808
30
0
40
1.700
0
CIRCLE
8
INTERIOR_PROFILES
10
742.381
20
262.189
30
0
40
1.700
0
CIRCLE
8
INTERIOR_PROFILES
10
751.388
20
289.951
30
0
40
1.700
0
CIRCLE
8
INTERIOR_PROFILES
10
794.000
20
262.189
30
0
40
5.000
0
TEXT
8
PART_LABELS
10
699.000
20
288.000
30
0
40
17.000
1
BXXTR0-000000
72
1
73
2
11
699.000
21
288.000
31
0
0
LWPOLYLINE
8
OUTER_PROFILES
90
10
70
1
10
674.503
20
276.168
10
667.246
20
268.912
10
718.158
20
218.000
10
733.000
20
232.842
10
733.000
20
343.536
10
718.158
20
358.378
10
667.246
20
307.466
10
674.503
20
300.210
10
667.431
20
293.139
42
0.414214
10
667.431
20
283.239
0
CIRCLE
8
INTERIOR_PROFILES
10
713.915
20
227.899
30
0
40
1.700
0
CIRCLE
8
INTERIOR_PROFILES
10
713.915
20
348.478
30
0
40
1.700
0
CIRCLE
8
INTERIOR_PROFILES
10
681.388
20
260.426
30
0
40
1.700
0
CIRCLE
8
INTERIOR_PROFILES
10
724.000
20
236.570
30
0
40
1.700
0
CIRCLE
8
INTERIOR_PROFILES
10
724.000
20
339.808
30
0
40
1.700
0
CIRCLE
8
INTERIOR_PROFILES
10
672.381
20
288.189
30
0
40
1.700
0
CIRCLE
8
INTERIOR_PROFILES
10
681.388
20
315.951
30
0
40
1.700
0
CIRCLE
8
INTERIOR_PROFILES
10
724.000
20
288.189
30
0
40
5.000
0
TEXT
8
PART_LABELS
10
699.000
20
146.000
30
0
40
17.000
1
BXXTR0-000000
72
1
73
2
11
699.000
21
146.000
31
0
0
LWPOLYLINE
8
OUTER_PROFILES
90
10
70
1
10
674.503
20
134.168
10
667.246
20
126.912
10
718.158
20
76.000
10
733.000
20
90.842
10
733.000
20
201.536
10
718.158
20
216.378
10
667.246
20
165.466
10
674.503
20
158.210
10
667.431
20
151.139
42
0.414214
10
667.431
20
141.239
0
CIRCLE
8
INTERIOR_PROFILES
10
713.915
20
85.899
30
0
40
1.700
0
CIRCLE
8
INTERIOR_PROFILES
10
713.915
20
206.478
30
0
40
1.700
0
CIRCLE
8
INTERIOR_PROFILES
10
681.388
20
118.426
30
0
40
1.700
0
CIRCLE
8
INTERIOR_PROFILES
10
724.000
20
94.570
30
0
40
1.700
0
CIRCLE
8
INTERIOR_PROFILES
10
724.000
20
197.808
30
0
40
1.700
0
CIRCLE
8
INTERIOR_PROFILES
10
672.381
20
146.189
30
0
40
1.700
0
CIRCLE
8
INTERIOR_PROFILES
10
681.388
20
173.951
30
0
40
1.700
0
CIRCLE
8
INTERIOR_PROFILES
10
724.000
20
146.189
30
0
40
5.000
0
TEXT
8
PART_LABELS
10
629.000
20
288.000
30
0
40
17.000
1
BXXTR0-000000
72
1
73
2
11
629.000
21
288.000
31
0
0
LWPOLYLINE
8
OUTER_PROFILES
90
10
70
1
10
604.503
20
276.168
10
597.246
20
268.912
10
648.158
20
218.000
10
663.000
20
232.842
10
663.000
20
343.536
10
648.158
20
358.378
10
597.246
20
307.466
10
604.503
20
300.210
10
597.431
20
293.139
42
0.414214
10
597.431
20
283.239
0
CIRCLE
8
INTERIOR_PROFILES
10
643.915
20
227.899
30
0
40
1.700
0
CIRCLE
8
INTERIOR_PROFILES
10
643.915
20
348.478
30
0
40
1.700
0
CIRCLE
8
INTERIOR_PROFILES
10
611.388
20
260.426
30
0
40
1.700
0
CIRCLE
8
INTERIOR_PROFILES
10
654.000
20
236.570
30
0
40
1.700
0
CIRCLE
8
INTERIOR_PROFILES
10
654.000
20
339.808
30
0
40
1.700
0
CIRCLE
8
INTERIOR_PROFILES
10
602.381
20
288.189
30
0
40
1.700
0
CIRCLE
8
INTERIOR_PROFILES
10
611.388
20
315.951
30
0
40
1.700
0
CIRCLE
8
INTERIOR_PROFILES
10
654.000
20
288.189
30
0
40
5.000
0
TEXT
8
PART_LABELS
10
629.000
20
146.000
30
0
40
17.000
1
BXXTR0-000000
72
1
73
2
11
629.000
21
146.000
31
0
0
LWPOLYLINE
8
OUTER_PROFILES
90
10
70
1
10
604.503
20
134.168
10
597.246
20
126.912
10
648.158
20
76.000
10
663.000
20
90.842
10
663.000
20
201.536
10
648.158
20
216.378
10
597.246
20
165.466
10
604.503
20
158.210
10
597.431
20
151.139
42
0.414214
10
597.431
20
141.239
0
CIRCLE
8
INTERIOR_PROFILES
10
643.915
20
85.899
30
0
40
1.700
0
CIRCLE
8
INTERIOR_PROFILES
10
643.915
20
206.478
30
0
40
1.700
0
CIRCLE
8
INTERIOR_PROFILES
10
611.388
20
118.426
30
0
40
1.700
0
CIRCLE
8
INTERIOR_PROFILES
10
654.000
20
94.570
30
0
40
1.700
0
CIRCLE
8
INTERIOR_PROFILES
10
654.000
20
197.808
30
0
40
1.700
0
CIRCLE
8
INTERIOR_PROFILES
10
602.381
20
146.189
30
0
40
1.700
0
CIRCLE
8
INTERIOR_PROFILES
10
611.388
20
173.951
30
0
40
1.700
0
CIRCLE
8
INTERIOR_PROFILES
10
654.000
20
146.189
30
0
40
5.000
0
TEXT
8
PART_LABELS
10
559.000
20
288.000
30
0
40
17.000
1
BXXTR0-000000
72
1
73
2
11
559.000
21
288.000
31
0
0
LWPOLYLINE
8
OUTER_PROFILES
90
10
70
1
10
534.503
20
276.168
10
527.246
20
268.912
10
578.158
20
218.000
10
593.000
20
232.842
10
593.000
20
343.536
10
578.158
20
358.378
10
527.246
20
307.466
10
534.503
20
300.210
10
527.431
20
293.139
42
0.414214
10
527.431
20
283.239
0
CIRCLE
8
INTERIOR_PROFILES
10
573.915
20
227.899
30
0
40
1.700
0
CIRCLE
8
INTERIOR_PROFILES
10
573.915
20
348.478
30
0
40
1.700
0
CIRCLE
8
INTERIOR_PROFILES
10
541.388
20
260.426
30
0
40
1.700
0
CIRCLE
8
INTERIOR_PROFILES
10
584.000
20
236.570
30
0
40
1.700
0
CIRCLE
8
INTERIOR_PROFILES
10
584.000
20
339.808
30
0
40
1.700
0
CIRCLE
8
INTERIOR_PROFILES
10
532.381
20
288.189
30
0
40
1.700
0
CIRCLE
8
INTERIOR_PROFILES
10
541.388
20
315.951
30
0
40
1.700
0
CIRCLE
8
INTERIOR_PROFILES
10
584.000
20
288.189
30
0
40
5.000
0
TEXT
8
PART_LABELS
10
559.000
20
146.000
30
0
40
17.000
1
BXXTR0-000000
72
1
73
2
11
559.000
21
146.000
31
0
0
LWPOLYLINE
8
OUTER_PROFILES
90
10
70
1
10
534.503
20
134.168
10
527.246
20
126.912
10
578.158
20
76.000
10
593.000
20
90.842
10
593.000
20
201.536
10
578.158
20
216.378
10
527.246
20
165.466
10
534.503
20
158.210
10
527.431
20
151.139
42
0.414214
10
527.431
20
141.239
0
CIRCLE
8
INTERIOR_PROFILES
10
573.915
20
85.899
30
0
40
1.700
0
CIRCLE
8
INTERIOR_PROFILES
10
573.915
20
206.478
30
0
40
1.700
0
CIRCLE
8
INTERIOR_PROFILES
10
541.388
20
118.426
30
0
40
1.700
0
CIRCLE
8
INTERIOR_PROFILES
10
584.000
20
94.570
30
0
40
1.700
0
CIRCLE
8
INTERIOR_PROFILES
10
584.000
20
197.808
30
0
40
1.700
0
CIRCLE
8
INTERIOR_PROFILES
10
532.381
20
146.189
30
0
40
1.700
0
CIRCLE
8
INTERIOR_PROFILES
10
541.388
20
173.951
30
0
40
1.700
0
CIRCLE
8
INTERIOR_PROFILES
10
584.000
20
146.189
30
0
40
5.000
0
TEXT
8
PART_LABELS
10
487.500
20
297.000
30
0
40
17.750
1
2BK200-000000
72
1
73
2
11
487.500
21
297.000
31
0
0
LWPOLYLINE
8
OUTER_PROFILES
90
5
70
1
10
513.101
20
236.000
10
452.289
20
296.811
10
513.101
20
357.622
10
523.000
20
347.723
10
523.000
20
245.899
0
LWPOLYLINE
8
INTERIOR_PROFILES
90
4
70
1
10
481.776
20
279.628
10
481.069
20
280.336
42
1.000000
10
478.664
20
277.931
10
479.372
20
277.224
42
1.000000
0
LWPOLYLINE
8
INTERIOR_PROFILES
90
4
70
1
10
481.069
20
313.287
10
481.776
20
313.994
42
1.000000
10
479.372
20
316.398
10
478.664
20
315.691
42
1.000000
0
CIRCLE
8
INTERIOR_PROFILES
10
513.101
20
347.723
30
0
40
1.700
0
CIRCLE
8
INTERIOR_PROFILES
10
513.101
20
245.899
30
0
40
1.700
0
CIRCLE
8
INTERIOR_PROFILES
10
462.189
20
296.811
30
0
40
1.700
0
TEXT
8
PART_LABELS
10
487.500
20
173.000
30
0
40
17.750
1
2BK200-000000
72
1
73
2
11
487.500
21
173.000
31
0
0
LWPOLYLINE
8
OUTER_PROFILES
90
5
70
1
10
513.101
20
112.000
10
452.289
20
172.811
10
513.101
20
233.622
10
523.000
20
223.723
10
523.000
20
121.899
0
LWPOLYLINE
8
INTERIOR_PROFILES
90
4
70
1
10
481.776
20
155.628
10
481.069
20
156.336
42
1.000000
10
478.664
20
153.931
10
479.372
20
153.224
42
1.000000
0
LWPOLYLINE
8
INTERIOR_PROFILES
90
4
70
1
10
481.069
20
189.287
10
481.776
20
189.994
42
1.000000
10
479.372
20
192.398
10
478.664
20
191.691
42
1.000000
0
CIRCLE
8
INTERIOR_PROFILES
10
513.101
20
223.723
30
0
40
1.700
0
CIRCLE
8
INTERIOR_PROFILES
10
513.101
20
121.899
30
0
40
1.700
0
CIRCLE
8
INTERIOR_PROFILES
10
462.189
20
172.811
30
0
40
1.700
0
TEXT
8
PART_LABELS
10
414.500
20
297.000
30
0
40
17.750
1
2BK200-000000
72
1
73
2
11
414.500
21
297.000
31
0
0
LWPOLYLINE
8
OUTER_PROFILES
90
5
70
1
10
440.101
20
236.000
10
379.289
20
296.811
10
440.101
20
357.622
10
450.000
20
347.723
10
450.000
20
245.899
0
LWPOLYLINE
8
INTERIOR_PROFILES
90
4
70
1
10
408.776
20
279.628
10
408.069
20
280.336
42
1.000000
10
405.664
20
277.931
10
406.372
20
277.224
42
1.000000
0
LWPOLYLINE
8
INTERIOR_PROFILES
90
4
70
1
10
408.069
20
313.287
10
408.776
20
313.994
42
1.000000
10
406.372
20
316.398
10
405.664
20
315.691
42
1.000000
0
CIRCLE
8
INTERIOR_PROFILES
10
440.101
20
347.723
30
0
40
1.700
0
CIRCLE
8
INTERIOR_PROFILES
10
440.101
20
245.899
30
0
40
1.700
0
CIRCLE
8
INTERIOR_PROFILES
10
389.189
20
296.811
30
0
40
1.700
0
TEXT
8
PART_LABELS
10
414.500
20
173.000
30
0
40
17.750
1
2BK200-000000
72
1
73
2
11
414.500
21
173.000
31
0
0
LWPOLYLINE
8
OUTER_PROFILES
90
5
70
1
10
440.101
20
112.000
10
379.289
20
172.811
10
440.101
20
233.622
10
450.000
20
223.723
10
450.000
20
121.899
0
LWPOLYLINE
8
INTERIOR_PROFILES
90
4
70
1
10
408.776
20
155.628
10
408.069
20
156.336
42
1.000000
10
405.664
20
153.931
10
406.372
20
153.224
42
1.000000
0
LWPOLYLINE
8
INTERIOR_PROFILES
90
4
70
1
10
408.069
20
189.287
10
408.776
20
189.994
42
1.000000
10
406.372
20
192.398
10
405.664
20
191.691
42
1.000000
0
CIRCLE
8
INTERIOR_PROFILES
10
440.101
20
223.723
30
0
40
1.700
0
CIRCLE
8
INTERIOR_PROFILES
10
440.101
20
121.899
30
0
40
1.700
0
CIRCLE
8
INTERIOR_PROFILES
10
389.189
20
172.811
30
0
40
1.700
0
TEXT
8
PART_LABELS
10
341.500
20
297.000
30
0
40
17.750
1
2BK200-000000
72
1
73
2
11
341.500
21
297.000
31
0
0
LWPOLYLINE
8
OUTER_PROFILES
90
5
70
1
10
367.101
20
236.000
10
306.289
20
296.811
10
367.101
20
357.622
10
377.000
20
347.723
10
377.000
20
245.899
0
LWPOLYLINE
8
INTERIOR_PROFILES
90
4
70
1
10
335.776
20
279.628
10
335.069
20
280.336
42
1.000000
10
332.664
20
277.931
10
333.372
20
277.224
42
1.000000
0
LWPOLYLINE
8
INTERIOR_PROFILES
90
4
70
1
10
335.069
20
313.287
10
335.776
20
313.994
42
1.000000
10
333.372
20
316.398
10
332.664
20
315.691
42
1.000000
0
CIRCLE
8
INTERIOR_PROFILES
10
367.101
20
347.723
30
0
40
1.700
0
CIRCLE
8
INTERIOR_PROFILES
10
367.101
20
245.899
30
0
40
1.700
0
CIRCLE
8
INTERIOR_PROFILES
10
316.189
20
296.811
30
0
40
1.700
0
TEXT
8
PART_LABELS
10
341.500
20
173.000
30
0
40
17.750
1
2BK200-000000
72
1
73
2
11
341.500
21
173.000
31
0
0
LWPOLYLINE
8
OUTER_PROFILES
90
5
70
1
10
367.101
20
112.000
10
306.289
20
172.811
10
367.101
20
233.622
10
377.000
20
223.723
10
377.000
20
121.899
0
LWPOLYLINE
8
INTERIOR_PROFILES
90
4
70
1
10
335.776
20
155.628
10
335.069
20
156.336
42
1.000000
10
332.664
20
153.931
10
333.372
20
153.224
42
1.000000
0
LWPOLYLINE
8
INTERIOR_PROFILES
90
4
70
1
10
335.069
20
189.287
10
335.776
20
189.994
42
1.000000
10
333.372
20
192.398
10
332.664
20
191.691
42
1.000000
0
CIRCLE
8
INTERIOR_PROFILES
10
367.101
20
223.723
30
0
40
1.700
0
CIRCLE
8
INTERIOR_PROFILES
10
367.101
20
121.899
30
0
40
1.700
0
CIRCLE
8
INTERIOR_PROFILES
10
316.189
20
172.811
30
0
40
1.700
0
TEXT
8
PART_LABELS
10
243.000
20
322.500
30
0
40
17.750
1
2BK200-000000
72
1
73
2
11
243.000
21
322.500
31
0
0
LWPOLYLINE
8
OUTER_PROFILES
90
5
70
1
10
182.000
20
296.899
10
242.811
20
357.711
10
303.622
20
296.899
10
293.723
20
287.000
10
191.899
20
287.000
0
LWPOLYLINE
8
INTERIOR_PROFILES
90
4
70
1
10
225.628
20
328.224
10
226.336
20
328.931
42
1.000000
10
223.931
20
331.336
10
223.224
20
330.628
42
1.000000
0
LWPOLYLINE
8
INTERIOR_PROFILES
90
4
70
1
10
259.287
20
328.931
10
259.994
20
328.224
42
1.000000
10
262.398
20
330.628
10
261.691
20
331.336
42
1.000000
0
CIRCLE
8
INTERIOR_PROFILES
10
293.723
20
296.899
30
0
40
1.700
0
CIRCLE
8
INTERIOR_PROFILES
10
191.899
20
296.899
30
0
40
1.700
0
CIRCLE
8
INTERIOR_PROFILES
10
242.811
20
347.811
30
0
40
1.700
0
TEXT
8
PART_LABELS
10
119.000
20
322.500
30
0
40
17.750
1
2BK200-000000
72
1
73
2
11
119.000
21
322.500
31
0
0
LWPOLYLINE
8
OUTER_PROFILES
90
5
70
1
10
58.000
20
296.899
10
118.811
20
357.711
10
179.622
20
296.899
10
169.723
20
287.000
10
67.899
20
287.000
0
LWPOLYLINE
8
INTERIOR_PROFILES
90
4
70
1
10
101.628
20
328.224
10
102.336
20
328.931
42
1.000000
10
99.931
20
331.336
10
99.224
20
330.628
42
1.000000
0
LWPOLYLINE
8
INTERIOR_PROFILES
90
4
70
1
10
135.287
20
328.931
10
135.994
20
328.224
42
1.000000
10
138.398
20
330.628
10
137.691
20
331.336
42
1.000000
0
CIRCLE
8
INTERIOR_PROFILES
10
169.723
20
296.899
30
0
40
1.700
0
CIRCLE
8
INTERIOR_PROFILES
10
67.899
20
296.899
30
0
40
1.700
0
CIRCLE
8
INTERIOR_PROFILES
10
118.811
20
347.811
30
0
40
1.700
0
TEXT
8
PART_LABELS
10
462.000
20
85.500
30
0
40
15.000
1
TS2TRX-000000
72
1
73
2
11
462.000
21
85.500
31
0
0
LWPOLYLINE
8
OUTER_PROFILES
90
6
70
1
10
483.095
20
110.426
10
440.527
20
110.426
10
401.000
20
70.899
10
410.899
20
61.000
10
512.723
20
61.000
10
522.622
20
70.899
0
CIRCLE
8
INTERIOR_PROFILES
10
512.723
20
70.899
30
0
40
1.700
0
CIRCLE
8
INTERIOR_PROFILES
10
480.196
20
103.426
30
0
40
1.700
0
CIRCLE
8
INTERIOR_PROFILES
10
443.426
20
103.426
30
0
40
1.700
0
CIRCLE
8
INTERIOR_PROFILES
10
410.899
20
70.899
30
0
40
1.700
0
TEXT
8
PART_LABELS
10
338.000
20
85.500
30
0
40
15.000
1
TS2TRX-000000
72
1
73
2
11
338.000
21
85.500
31
0
0
LWPOLYLINE
8
OUTER_PROFILES
90
6
70
1
10
359.095
20
110.426
10
316.527
20
110.426
10
277.000
20
70.899
10
286.899
20
61.000
10
388.723
20
61.000
10
398.622
20
70.899
0
CIRCLE
8
INTERIOR_PROFILES
10
388.723
20
70.899
30
0
40
1.700
0
CIRCLE
8
INTERIOR_PROFILES
10
356.196
20
103.426
30
0
40
1.700
0
CIRCLE
8
INTERIOR_PROFILES
10
319.426
20
103.426
30
0
40
1.700
0
CIRCLE
8
INTERIOR_PROFILES
10
286.899
20
70.899
30
0
40
1.700
0
TEXT
8
PART_LABELS
10
279.500
20
224.000
30
0
40
15.000
1
TS2TRX-000000
72
1
73
2
11
279.500
21
224.000
31
0
0
LWPOLYLINE
8
OUTER_PROFILES
90
6
70
1
10
254.574
20
245.095
10
254.574
20
202.527
10
294.101
20
163.000
10
304.000
20
172.899
10
304.000
20
274.723
10
294.101
20
284.622
0
CIRCLE
8
INTERIOR_PROFILES
10
294.101
20
274.723
30
0
40
1.700
0
CIRCLE
8
INTERIOR_PROFILES
10
261.574
20
242.196
30
0
40
1.700
0
CIRCLE
8
INTERIOR_PROFILES
10
261.574
20
205.426
30
0
40
1.700
0
CIRCLE
8
INTERIOR_PROFILES
10
294.101
20
172.899
30
0
40
1.700
0
TEXT
8
PART_LABELS
10
24.500
20
111.000
30
0
40
15.000
1
TS2TRX-000000
72
1
73
2
11
24.500
21
111.000
31
0
0
LWPOLYLINE
8
OUTER_PROFILES
90
6
70
1
10
-0.426
20
132.095
10
-0.426
20
89.527
10
39.101
20
50.000
10
49.000
20
59.899
10
49.000
20
161.723
10
39.101
20
171.622
0
CIRCLE
8
INTERIOR_PROFILES
10
39.101
20
161.723
30
0
40
1.700
0
CIRCLE
8
INTERIOR_PROFILES
10
6.574
20
129.196
30
0
40
1.700
0
CIRCLE
8
INTERIOR_PROFILES
10
6.574
20
92.426
30
0
40
1.700
0
CIRCLE
8
INTERIOR_PROFILES
10
39.101
20
59.899
30
0
40
1.700
0
TEXT
8
PART_LABELS
10
24.500
20
235.000
30
0
40
15.000
1
TS2TRX-000000
72
1
73
2
11
24.500
21
235.000
31
0
0
LWPOLYLINE
8
OUTER_PROFILES
90
6
70
1
10
-0.426
20
256.095
10
-0.426
20
213.527
10
39.101
20
174.000
10
49.000
20
183.899
10
49.000
20
285.723
10
39.101
20
295.622
0
CIRCLE
8
INTERIOR_PROFILES
10
39.101
20
285.723
30
0
40
1.700
0
CIRCLE
8
INTERIOR_PROFILES
10
6.574
20
253.196
30
0
40
1.700
0
CIRCLE
8
INTERIOR_PROFILES
10
6.574
20
216.426
30
0
40
1.700
0
CIRCLE
8
INTERIOR_PROFILES
10
39.101
20
183.899
30
0
40
1.700
0
TEXT
8
PART_LABELS
10
214.000
20
74.500
30
0
40
15.000
1
TS2TRX-000000
72
1
73
2
11
214.000
21
74.500
31
0
0
LWPOLYLINE
8
OUTER_PROFILES
90
6
70
1
10
235.095
20
99.426
10
192.527
20
99.426
10
153.000
20
59.899
10
162.899
20
50.000
10
264.723
20
50.000
10
274.622
20
59.899
0
CIRCLE
8
INTERIOR_PROFILES
10
264.723
20
59.899
30
0
40
1.700
0
CIRCLE
8
INTERIOR_PROFILES
10
232.196
20
92.426
30
0
40
1.700
0
CIRCLE
8
INTERIOR_PROFILES
10
195.426
20
92.426
30
0
40
1.700
0
CIRCLE
8
INTERIOR_PROFILES
10
162.899
20
59.899
30
0
40
1.700
0
TEXT
8
PART_LABELS
10
75.500
20
224.000
30
0
40
15.000
1
TS2TRX-000000
72
1
73
2
11
75.500
21
224.000
31
0
0
LWPOLYLINE
8
OUTER_PROFILES
90
6
70
1
10
50.574
20
245.095
10
50.574
20
202.527
10
90.101
20
163.000
10
100.000
20
172.899
10
100.000
20
274.723
10
90.101
20
284.622
0
CIRCLE
8
INTERIOR_PROFILES
10
90.101
20
274.723
30
0
40
1.700
0
CIRCLE
8
INTERIOR_PROFILES
10
57.574
20
242.196
30
0
40
1.700
0
CIRCLE
8
INTERIOR_PROFILES
10
57.574
20
205.426
30
0
40
1.700
0
CIRCLE
8
INTERIOR_PROFILES
10
90.101
20
172.899
30
0
40
1.700
0
TEXT
8
PART_LABELS
10
214.000
20
125.500
30
0
40
15.000
1
TS2TRX-000000
72
1
73
2
11
214.000
21
125.500
31
0
0
LWPOLYLINE
8
OUTER_PROFILES
90
6
70
1
10
235.095
20
150.426
10
192.527
20
150.426
10
153.000
20
110.899
10
162.899
20
101.000
10
264.723
20
101.000
10
274.622
20
110.899
0
CIRCLE
8
INTERIOR_PROFILES
10
264.723
20
110.899
30
0
40
1.700
0
CIRCLE
8
INTERIOR_PROFILES
10
232.196
20
143.426
30
0
40
1.700
0
CIRCLE
8
INTERIOR_PROFILES
10
195.426
20
143.426
30
0
40
1.700
0
CIRCLE
8
INTERIOR_PROFILES
10
162.899
20
110.899
30
0
40
1.700
0
TEXT
8
PART_LABELS
10
121.000
20
93.500
30
0
40
15.000
1
SD0SUP-000000
72
1
73
2
11
121.000
21
93.500
31
0
0
LWPOLYLINE
8
OUTER_PROFILES
90
8
70
1
10
103.572
20
82.582
42
-0.242311
10
117.000
20
56.500
42
-0.414214
10
115.500
20
55.000
10
112.700
20
55.000
42
1.000000
10
112.700
20
50.000
10
127.000
20
50.000
42
0.414214
10
151.000
20
74.000
10
151.000
20
107.000
42
1.639606
0
CIRCLE
8
INTERIOR_PROFILES
10
101.000
20
109.000
30
0
40
1.700
0
CIRCLE
8
INTERIOR_PROFILES
10
141.000
20
109.000
30
0
40
1.700
0
CIRCLE
8
INTERIOR_PROFILES
10
134.250
20
123.000
30
0
40
1.700
0
CIRCLE
8
INTERIOR_PROFILES
10
119.000
20
123.000
30
0
40
1.700
0
TEXT
8
PART_LABELS
10
223.000
20
241.500
30
0
40
15.000
1
SD0SUP-000000
72
1
73
2
11
223.000
21
241.500
31
0
0
LWPOLYLINE
8
OUTER_PROFILES
90
8
70
1
10
205.572
20
230.582
42
-0.242311
10
219.000
20
204.500
42
-0.414214
10
217.500
20
203.000
10
214.700
20
203.000
42
1.000000
10
214.700
20
198.000
10
229.000
20
198.000
42
0.414214
10
253.000
20
222.000
10
253.000
20
255.000
42
1.639606
0
CIRCLE
8
INTERIOR_PROFILES
10
203.000
20
257.000
30
0
40
1.700
0
CIRCLE
8
INTERIOR_PROFILES
10
243.000
20
257.000
30
0
40
1.700
0
CIRCLE
8
INTERIOR_PROFILES
10
236.250
20
271.000
30
0
40
1.700
0
CIRCLE
8
INTERIOR_PROFILES
10
221.000
20
271.000
30
0
40
1.700
0
TEXT
8
PART_LABELS
10
147.500
20
255.000
30
0
40
15.000
1
SD0SUP-000000
72
1
73
2
11
147.500
21
255.000
31
0
0
LWPOLYLINE
8
OUTER_PROFILES
90
8
70
1
10
136.582
20
272.428
42
-0.242311
10
110.500
20
259.000
42
-0.414214
10
109.000
20
260.500
10
109.000
20
263.300
42
1.000000
10
104.000
20
263.300
10
104.000
20
249.000
42
0.414214
10
128.000
20
225.000
10
161.000
20
225.000
42
1.639606
0
CIRCLE
8
INTERIOR_PROFILES
10
163.000
20
275.000
30
0
40
1.700
0
CIRCLE
8
INTERIOR_PROFILES
10
163.000
20
235.000
30
0
40
1.700
0
CIRCLE
8
INTERIOR_PROFILES
10
177.000
20
241.750
30
0
40
1.700
0
CIRCLE
8
INTERIOR_PROFILES
10
177.000
20
257.000
30
0
40
1.700
0
TEXT
8
PART_LABELS
10
147.500
20
193.000
30
0
40
15.000
1
SD0SUP-000000
72
1
73
2
11
147.500
21
193.000
31
0
0
LWPOLYLINE
8
OUTER_PROFILES
90
8
70
1
10
136.582
20
210.428
42
-0.242311
10
110.500
20
197.000
42
-0.414214
10
109.000
20
198.500
10
109.000
20
201.300
42
1.000000
10
104.000
20
201.300
10
104.000
20
187.000
42
0.414214
10
128.000
20
163.000
10
161.000
20
163.000
42
1.639606
0
CIRCLE
8
INTERIOR_PROFILES
10
163.000
20
213.000
30
0
40
1.700
0
CIRCLE
8
INTERIOR_PROFILES
10
163.000
20
173.000
30
0
40
1.700
0
CIRCLE
8
INTERIOR_PROFILES
10
177.000
20
179.750
30
0
40
1.700
0
CIRCLE
8
INTERIOR_PROFILES
10
177.000
20
195.000
30
0
40
1.700
0
ENDSEC
0
EOF