0
SECTION
2
HEADER
9
$INSUNITS
70
4
9
$ACADVER
1
AC1014
9
$HANDSEED
5
FFFF
0
ENDSEC
0
SECTION
2
TABLES
0
TABLE
2
VPORT
5
8
100
AcDbSymbolTable
0
ENDTAB
0
TABLE
2
LTYPE
5
5
100
AcDbSymbolTable
0
LTYPE
5
14
100
AcDbSymbolTableRecord
100
AcDbLinetypeTableRecord
2
BYBLOCK
70
0
0
LTYPE
5
15
100
AcDbSymbolTableRecord
100
AcDbLinetypeTableRecord
2
BYLAYER
70
0
0
LTYPE
5
16
100
AcDbSymbolTableRecord
100
AcDbLinetypeTableRecord
2
DASHED
70
0
3
Dashed __ __ __ __ __ __ __ __ __ __ __ __ __ _
72
65
73
2
40
0.75
49
0.5
74
0
49
-0.25
74
0
0
ENDTAB
0
TABLE
2
LAYER
5
2
100
AcDbSymbolTable
70
2
0
LAYER
5
50
100
AcDbSymbolTableRecord
100
AcDbLayerTableRecord
2
0
70
0
62
7
6
CONTINUOUS
0
ENDTAB
0
TABLE
2
STYLE
5
3
100
AcDbSymbolTable
70
1
0
STYLE
5
11
100
AcDbSymbolTableRecord
100
AcDbTextStyleTableRecord
2
STANDARD
70
0
0
ENDTAB
0
TABLE
2
VIEW
5
6
100
AcDbSymbolTable
70
0
0
ENDTAB
0
TABLE
2
UCS
5
7
100
AcDbSymbolTable
70
0
0
ENDTAB
0
TABLE
2
APPID
5
9
100
AcDbSymbolTable
70
2
0
APPID
5
12
100
AcDbSymbolTableRecord
100
AcDbRegAppTableRecord
2
ACAD
70
0
0
ENDTAB
0
TABLE
2
DIMSTYLE
5
A
100
AcDbSymbolTable
70
1
0
ENDTAB
0
TABLE
2
BLOCK_RECORD
5
1
100
AcDbSymbolTable
70
1
0
BLOCK_RECORD
5
1F
100
AcDbSymbolTableRecord
100
AcDbBlockTableRecord
2
*MODEL_SPACE
0
BLOCK_RECORD
5
1B
100
AcDbSymbolTableRecord
100
AcDbBlockTableRecord
2
*PAPER_SPACE
0
ENDTAB
0
ENDSEC
0
SECTION
2
BLOCKS
0
BLOCK
5
20
100
AcDbEntity
100
AcDbBlockBegin
2
*MODEL_SPACE
0
ENDBLK
5
21
100
AcDbEntity
100
AcDbBlockEnd
0
BLOCK
5
1C
100
AcDbEntity
100
AcDbBlockBegin
2
*PAPER_SPACE
0
ENDBLK
5
1D
100
AcDbEntity
100
AcDbBlockEnd
0
ENDSEC
0
SECTION
2
ENTITIES
0
LWPOLYLINE
5
100
100
AcDbEntity
8
OUTER_PROFILES
100
AcDbPolyline
90
27
70
1
43
0.0
10
-13.000000000000114
20
41.523893421168481
10
-13.000000000000114
20
65.785840131753332
10
-13.000000000000114
20
68.047786842337956
10
-26.261946710584709
20
68.047786842337956
10
-26.261946710584567
20
454.81171886483821
10
-13.000000000000114
20
454.81171886483816
10
-13.000000000000114
20
456.02285775045601
10
-12.999999999999972
20
457.2339966360733
10
-12.999999999999972
20
463.49594334665892
10
-12.999999999999972
20
484.49594334665898
10
656.39999999999998
20
484.49594334665898
10
656.39999999999998
20
461.2339966360733
10
683
20
461.2339966360733
10
683
20
457.2339966360733
10
683.00000000000011
20
456.02285775045607
10
683.00000000000011
20
454.81171886483816
10
696.26194671058465
20
454.81171886483821
10
696.26194671058465
20
68.047786842337956
10
683.00000000000011
20
68.047786842337956
10
683.00000000000011
20
65.785840131753332
10
683
20
41.523893421168481
10
683
20
23.261946710583263
10
683
20
12.999999999999972
42
0.41421356237309509
10
670
20
-2.388061258337333e-15
10
-1.4210854715202004e-13
20
-7.9602041944577787e-16
42
0.41421356237309503
10
-13.000000000000114
20
12.999999999999972
10
-13.000000000000114
20
23.261946710583263
0
CIRCLE
5
101
100
AcDbEntity
8
INTERIOR_PROFILES
100
AcDbCircle
10
-428
20
414.04778684233804
30
0
40
1.7000000000000171
210
0
220
0
230
-1
0
CIRCLE
5
102
100
AcDbEntity
8
INTERIOR_PROFILES
100
AcDbCircle
10
-385
20
459.7339966360733
30
0
40
1.25
210
0
220
0
230
-1
0
CIRCLE
5
103
100
AcDbEntity
8
INTERIOR_PROFILES
100
AcDbCircle
10
-465
20
437.04778684233804
30
0
40
1.7000000000000171
210
0
220
0
230
-1
0
CIRCLE
5
104
100
AcDbEntity
8
INTERIOR_PROFILES
100
AcDbCircle
10
-615
20
437.04778684233793
30
0
40
1.7000000000000171
210
0
220
0
230
-1
0
CIRCLE
5
105
100
AcDbEntity
8
INTERIOR_PROFILES
100
AcDbCircle
10
-428
20
451.54778684233804
30
0
40
1.7000000000000171
210
0
220
0
230
-1
0
CIRCLE
5
106
100
AcDbEntity
8
INTERIOR_PROFILES
100
AcDbCircle
10
-10
20
2.9999999999999716
30
0
40
1.7000000000000171
210
0
220
0
230
-1
0
CIRCLE
5
107
100
AcDbEntity
8
INTERIOR_PROFILES
100
AcDbCircle
10
-676
20
50.785840131753339
30
0
40
1.6999999999999993
210
0
220
0
230
-1
0
CIRCLE
5
108
100
AcDbEntity
8
INTERIOR_PROFILES
100
AcDbCircle
10
-20
20
50.785840131753339
30
0
40
1.6999999999999993
210
0
220
0
230
-1
0
CIRCLE
5
109
100
AcDbEntity
8
INTERIOR_PROFILES
100
AcDbCircle
10
-603.99999999999989
20
50.785840131753339
30
0
40
1.6999999999999993
210
0
220
0
230
-1
0
CIRCLE
5
110
100
AcDbEntity
8
INTERIOR_PROFILES
100
AcDbCircle
10
-235
20
2.9999999999999716
30
0
40
1.7000000000000171
210
0
220
0
230
-1
0
CIRCLE
5
111
100
AcDbEntity
8
INTERIOR_PROFILES
100
AcDbCircle
10
-665
20
437.04778684233793
30
0
40
1.7000000000000171
210
0
220
0
230
-1
0
CIRCLE
5
112
100
AcDbEntity
8
INTERIOR_PROFILES
100
AcDbCircle
10
-535
20
2.9999999999999005
30
0
40
1.7000000000000171
210
0
220
0
230
-1
0
CIRCLE
5
113
100
AcDbEntity
8
INTERIOR_PROFILES
100
AcDbCircle
10
-635
20
2.9999999999999716
30
0
40
1.7000000000000171
210
0
220
0
230
-1
0
CIRCLE
5
114
100
AcDbEntity
8
INTERIOR_PROFILES
100
AcDbCircle
10
-445.99999999999994
20
432.04778684233804
30
0
40
1.7000000000000171
210
0
220
0
230
-1
0
CIRCLE
5
115
100
AcDbEntity
8
INTERIOR_PROFILES
100
AcDbCircle
10
-565
20
437.04778684233793
30
0
40
1.7000000000000171
210
0
220
0
230
-1
0
CIRCLE
5
116
100
AcDbEntity
8
INTERIOR_PROFILES
100
AcDbCircle
10
-335
20
2.9999999999999716
30
0
40
1.7000000000000171
210
0
220
0
230
-1
0
CIRCLE
5
117
100
AcDbEntity
8
INTERIOR_PROFILES
100
AcDbCircle
10
-660
20
2.9999999999999716
30
0
40
1.7000000000000171
210
0
220
0
230
-1
0
CIRCLE
5
118
100
AcDbEntity
8
INTERIOR_PROFILES
100
AcDbCircle
10
-428
20
432.04778684233804
30
0
40
1.7000000000000171
210
0
220
0
230
-1
0
CIRCLE
5
119
100
AcDbEntity
8
INTERIOR_PROFILES
100
AcDbCircle
10
-66.000000000000085
20
50.785840131753339
30
0
40
1.6999999999999993
210
0
220
0
230
-1
0
CIRCLE
5
120
100
AcDbEntity
8
INTERIOR_PROFILES
100
AcDbCircle
10
-515
20
437.04778684233804
30
0
40
1.7000000000000171
210
0
220
0
230
-1
0
CIRCLE
5
121
100
AcDbEntity
8
INTERIOR_PROFILES
100
AcDbCircle
10
-435
20
2.9999999999999005
30
0
40
1.7000000000000171
210
0
220
0
230
-1
0
CIRCLE
5
122
100
AcDbEntity
8
INTERIOR_PROFILES
100
AcDbCircle
10
5.9999999999999432
20
50.785840131753339
30
0
40
1.6999999999999993
210
0
220
0
230
-1
0
CIRCLE
5
123
100
AcDbEntity
8
INTERIOR_PROFILES
100
AcDbCircle
10
-435
20
459.73399663607336
30
0
40
1.25
210
0
220
0
230
-1
0
CIRCLE
5
124
100
AcDbEntity
8
INTERIOR_PROFILES
100
AcDbCircle
10
-445.99999999999994
20
414.04778684233804
30
0
40
1.7000000000000171
210
0
220
0
230
-1
0
CIRCLE
5
125
100
AcDbEntity
8
INTERIOR_PROFILES
100
AcDbCircle
10
-650
20
50.785840131753339
30
0
40
1.6999999999999993
210
0
220
0
230
-1
0
CIRCLE
5
126
100
AcDbEntity
8
INTERIOR_PROFILES
100
AcDbCircle
10
-35
20
2.9999999999999716
30
0
40
1.7000000000000171
210
0
220
0
230
-1
0
CIRCLE
5
127
100
AcDbEntity
8
INTERIOR_PROFILES
100
AcDbCircle
10
-690.76194671058784
20
355.04778684233804
30
0
40
4.5000000000000284
210
0
220
0
230
-1
0
CIRCLE
5
128
100
AcDbEntity
8
INTERIOR_PROFILES
100
AcDbCircle
10
20.761946710584311
20
200.04778684233801
30
0
40
4.4999999999999929
210
0
220
0
230
-1
0
CIRCLE
5
129
100
AcDbEntity
8
INTERIOR_PROFILES
100
AcDbCircle
10
-35
20
75.047786842337914
30
0
40
1.7000000000000171
210
0
220
0
230
-1
0
CIRCLE
5
130
100
AcDbEntity
8
INTERIOR_PROFILES
100
AcDbCircle
10
-546
20
467.99594334665898
30
0
40
4.5000000000000284
210
0
220
0
230
-1
0
CIRCLE
5
131
100
AcDbEntity
8
INTERIOR_PROFILES
100
AcDbCircle
10
5.9999999999999432
20
451.54778684233798
30
0
40
1.7000000000000171
210
0
220
0
230
-1
0
CIRCLE
5
132
100
AcDbEntity
8
INTERIOR_PROFILES
100
AcDbCircle
10
-676
20
451.54778684233798
30
0
40
1.7000000000000171
210
0
220
0
230
-1
0
CIRCLE
5
133
100
AcDbEntity
8
INTERIOR_PROFILES
100
AcDbCircle
10
20.761946710584311
20
355.04778684233798
30
0
40
4.5000000000000284
210
0
220
0
230
-1
0
CIRCLE
5
134
100
AcDbEntity
8
INTERIOR_PROFILES
100
AcDbCircle
10
23.261946710584311
20
122.54778684233798
30
0
40
1.7000000000000171
210
0
220
0
230
-1
0
CIRCLE
5
135
100
AcDbEntity
8
INTERIOR_PROFILES
100
AcDbCircle
10
-693.26194671058784
20
277.5477868423381
30
0
40
1.6999999999999815
210
0
220
0
230
-1
0
CIRCLE
5
136
100
AcDbEntity
8
INTERIOR_PROFILES
100
AcDbCircle
10
-693.26194671058784
20
122.54778684233798
30
0
40
1.7000000000000171
210
0
220
0
230
-1
0
CIRCLE
5
137
100
AcDbEntity
8
INTERIOR_PROFILES
100
AcDbCircle
10
-623.5
20
470.49594334665892
30
0
40
1.7000000000000171
210
0
220
0
230
-1
0
CIRCLE
5
138
100
AcDbEntity
8
INTERIOR_PROFILES
100
AcDbCircle
10
-335
20
75.047786842337914
30
0
40
1.7000000000000171
210
0
220
0
230
-1
0
CIRCLE
5
139
100
AcDbEntity
8
INTERIOR_PROFILES
100
AcDbCircle
10
5.9999999999999432
20
265.04778684233804
30
0
40
1.7000000000000171
210
0
220
0
230
-1
0
CIRCLE
5
140
100
AcDbEntity
8
INTERIOR_PROFILES
100
AcDbCircle
10
-135
20
75.047786842337914
30
0
40
1.7000000000000171
210
0
220
0
230
-1
0
CIRCLE
5
141
100
AcDbEntity
8
INTERIOR_PROFILES
100
AcDbCircle
10
-15.000000000000284
20
459.73399663607836
30
0
40
1.25
210
0
220
0
230
-1
0
CIRCLE
5
142
100
AcDbEntity
8
INTERIOR_PROFILES
100
AcDbCircle
10
-655
20
459.7339966360733
30
0
40
1.25
210
0
220
0
230
-1
0
CIRCLE
5
143
100
AcDbEntity
8
INTERIOR_PROFILES
100
AcDbCircle
10
23.261946710584311
20
432.54778684233793
30
0
40
1.7000000000000171
210
0
220
0
230
-1
0
CIRCLE
5
144
100
AcDbEntity
8
INTERIOR_PROFILES
100
AcDbCircle
10
-468.49999999999994
20
470.49594334665892
30
0
40
1.7000000000000171
210
0
220
0
230
-1
0
CIRCLE
5
145
100
AcDbEntity
8
INTERIOR_PROFILES
100
AcDbCircle
10
-676
20
78.547786842337928
30
0
40
1.7000000000000171
210
0
220
0
230
-1
0
CIRCLE
5
146
100
AcDbEntity
8
INTERIOR_PROFILES
100
AcDbCircle
10
-693.26194671058784
20
432.54778684233804
30
0
40
1.7000000000000171
210
0
220
0
230
-1
0
CIRCLE
5
147
100
AcDbEntity
8
INTERIOR_PROFILES
100
AcDbCircle
10
5.9999999999999432
20
432.04778684233793
30
0
40
1.7000000000000171
210
0
220
0
230
-1
0
CIRCLE
5
148
100
AcDbEntity
8
INTERIOR_PROFILES
100
AcDbCircle
10
-235
20
75.047786842337914
30
0
40
1.7000000000000171
210
0
220
0
230
-1
0
CIRCLE
5
149
100
AcDbEntity
8
INTERIOR_PROFILES
100
AcDbCircle
10
-197.5
20
473.49594334665892
30
0
40
8.75
210
0
220
0
230
-1
0
CIRCLE
5
150
100
AcDbEntity
8
INTERIOR_PROFILES
100
AcDbCircle
10
-676
20
265.04778684233798
30
0
40
1.7000000000000171
210
0
220
0
230
-1
0
CIRCLE
5
151
100
AcDbEntity
8
INTERIOR_PROFILES
100
AcDbCircle
10
5.9999999999999432
20
98.047786842337956
30
0
40
1.7000000000000171
210
0
220
0
230
-1
0
CIRCLE
5
152
100
AcDbEntity
8
INTERIOR_PROFILES
100
AcDbCircle
10
-135
20
2.9999999999999716
30
0
40
1.7000000000000171
210
0
220
0
230
-1
0
CIRCLE
5
153
100
AcDbEntity
8
INTERIOR_PROFILES
100
AcDbCircle
10
-635
20
75.047786842337914
30
0
40
1.7000000000000171
210
0
220
0
230
-1
0
CIRCLE
5
154
100
AcDbEntity
8
INTERIOR_PROFILES
100
AcDbCircle
10
23.261946710584311
20
277.54778684233804
30
0
40
1.6999999999999815
210
0
220
0
230
-1
0
CIRCLE
5
155
100
AcDbEntity
8
INTERIOR_PROFILES
100
AcDbCircle
10
-690.76194671058784
20
200.04778684233813
30
0
40
4.4999999999999929
210
0
220
0
230
-1
0
CIRCLE
5
156
100
AcDbEntity
8
INTERIOR_PROFILES
100
AcDbCircle
10
5.9999999999999432
20
78.547786842337928
30
0
40
1.7000000000000171
210
0
220
0
230
-1
0
CIRCLE
5
157
100
AcDbEntity
8
INTERIOR_PROFILES
100
AcDbCircle
10
-676
20
432.04778684233793
30
0
40
1.7000000000000171
210
0
220
0
230
-1
0
CIRCLE
5
158
100
AcDbEntity
8
INTERIOR_PROFILES
100
AcDbCircle
10
-676
20
98.047786842337956
30
0
40
1.7000000000000171
210
0
220
0
230
-1
0
CIRCLE
5
159
100
AcDbEntity
8
INTERIOR_PROFILES
100
AcDbCircle
10
5.9999999999999432
20
441.79778684233793
30
0
40
6.5000000000000568
210
0
220
0
230
-1
0
CIRCLE
5
160
100
AcDbEntity
8
INTERIOR_PROFILES
100
AcDbCircle
10
-676
20
441.79778684233793
30
0
40
6.5000000000000568
210
0
220
0
230
-1
0
CIRCLE
5
161
100
AcDbEntity
8
INTERIOR_PROFILES
100
AcDbCircle
10
-535
20
75.047786842337914
30
0
40
1.7000000000000171
210
0
220
0
230
-1
0
CIRCLE
5
162
100
AcDbEntity
8
INTERIOR_PROFILES
100
AcDbCircle
10
-435
20
75.047786842337985
30
0
40
1.7000000000000171
210
0
220
0
230
-1
0
LINE
5
163
100
AcDbEntity
8
BEND
100
AcDbLine
10
683
20
14.130973355291703
30
2.433095630754841e-12
11
-13.000000000000114
21
14.130973355291703
31
2.3912231633925697e-12
0
LINE
5
164
100
AcDbEntity
8
BEND
100
AcDbLine
10
683
20
24.392920065875803
30
3.2413688061864184e-12
11
-13.000000000000114
21
24.392920065875803
31
3.254361893761463e-12
0
LINE
5
165
100
AcDbEntity
8
BEND
100
AcDbLine
10
656.39999999999998
20
462.36496999136614
30
8.7581918327733552e-12
11
-12.999999999999972
21
462.36496999136614
31
8.7581918327733552e-12
0
LINE
5
166
100
AcDbEntity
8
BEND
100
AcDbLine
10
683
20
42.654866776461034
30
6.0544958736891426e-12
11
-13.000000000000114
21
42.654866776461034
31
6.0833882357304674e-12
0
LINE
5
167
100
AcDbEntity
8
BEND
100
AcDbLine
10
683.00000000000011
20
455.41728830764714
30
8.2198986740971426e-12
11
-12.999999999999972
21
455.41728830764714
31
8.2203717655282657e-12
0
LINE
5
168
100
AcDbEntity
8
BEND
100
AcDbLine
10
684.13097335529244
20
68.047786842338027
30
8.1920753319335972e-12
11
684.13097335529244
21
454.81171886483821
31
8.206709034054126e-12
0
LINE
5
169
100
AcDbEntity
8
BEND
100
AcDbLine
10
683
20
456.62842719326466
30
8.2988591067176698e-12
11
-12.999999999999972
21
456.62842719326466
31
8.2971400138903253e-12
0
LINE
5
170
100
AcDbEntity
8
BEND
100
AcDbLine
10
683.00000000000011
20
66.916813487045673
30
8.1115001264536253e-12
11
-13.000000000000398
21
66.916813487045673
31
8.0462150956999678e-12
0
LINE
5
171
100
AcDbEntity
8
BEND
100
AcDbLine
10
-14.130973355292156
20
454.8117188648381
30
8.136546991721616e-12
11
-14.130973355292156
21
68.047786842338027
31
8.1040729682513302e-12
0
LINE
5
172
100
AcDbEntity
8
BEND_EXTENT
100
AcDbLine
10
683
20
12.999999999999972
30
2.2959412149248237e-12
11
-13.000000000000114
21
12.999999999999972
31
2.2959412149248237e-12
0
LINE
5
173
100
AcDbEntity
8
BEND_EXTENT
100
AcDbLine
10
-12.999999999999972
20
463.49594334665892
30
8.8986711521666154e-12
11
546
21
463.49594334665892
31
8.8986711521666154e-12
0
LINE
5
174
100
AcDbEntity
8
BEND_EXTENT
100
AcDbLine
10
546
20
463.49594334665892
30
8.8986711521666154e-12
11
656.39999999999998
21
463.49594334665892
31
8.8986711521666154e-12
0
LINE
5
175
100
AcDbEntity
8
BEND_EXTENT
100
AcDbLine
10
685.26194671058465
20
454.81171886483821
30
8.1741903987984375e-12
11
685.26194671058465
21
68.047786842338027
31
8.1741903987984375e-12
0
LWPOLYLINE
5
176
100
AcDbEntity
8
BEND_EXTENT
100
AcDbPolyline
90
4
70
1
43
0.0
10
683.00000000000011
20
68.047786842337956
10
683.00000000000011
20
454.81171886483816
10
-13.000000000000114
20
454.81171886483816
10
-13.000000000000114
20
68.047786842337956
0
LINE
5
177
100
AcDbEntity
8
BEND_EXTENT
100
AcDbLine
10
-15.261946710584766
20
68.047786842337956
30
8.1934459217336553e-12
11
-15.261946710584624
21
454.8117188648381
31
8.1934459217336553e-12
0
LINE
5
178
100
AcDbEntity
8
BEND_EXTENT
100
AcDbLine
10
683.00000000000011
20
65.785840131753332
30
8.1934459217336553e-12
11
-13.000000000000114
21
65.785840131753332
31
8.1934459217336553e-12
0
LINE
5
179
100
AcDbEntity
8
BEND_EXTENT
100
AcDbLine
10
-13.000000000000114
20
456.02285775045601
30
8.22675261247241e-12
11
683.00000000000011
21
456.02285775045607
31
8.2800433176544175e-12
0
LINE
5
180
100
AcDbEntity
8
BEND_EXTENT
100
AcDbLine
10
683
20
23.261946710583263
30
3.361755318564974e-12
11
-13.000000000000114
21
23.261946710583263
31
3.361755318564974e-12
0
LINE
5
181
100
AcDbEntity
8
BEND_EXTENT
100
AcDbLine
10
-13.000000000000114
20
25.523893421168538
30
3.4772185131259903e-12
11
683
21
25.523893421168538
31
3.4772185131259903e-12
0
LINE
5
182
100
AcDbEntity
8
BEND_EXTENT
100
AcDbLine
10
683
20
41.523893421168481
30
5.9374727356953372e-12
11
-13.000000000000114
21
41.523893421168481
31
5.9374727356953372e-12
0
LINE
5
183
100
AcDbEntity
8
BEND_EXTENT
100
AcDbLine
10
-13.000000000000114
20
15.261946710583292
30
2.5801583092288638e-12
11
683
21
15.261946710583292
31
2.5801583092288638e-12
0
LINE
5
184
100
AcDbEntity
8
BEND_EXTENT
100
AcDbLine
10
-13.000000000000114
20
43.785840131753382
30
6.2749805351813848e-12
11
683
21
43.785840131753382
31
6.2749805351813848e-12
0
LINE
5
185
100
AcDbEntity
8
BEND_EXTENT
100
AcDbLine
10
-12.999999999999972
20
457.2339966360733
30
8.3537343709139122e-12
11
683
21
457.2339966360733
31
8.3535955930358341e-12
0
LINE
5
186
100
AcDbEntity
8
BEND_EXTENT
100
AcDbLine
10
656.39999999999998
20
461.2339966360733
30
8.6465556936587973e-12
11
-12.999999999999972
21
461.2339966360733
31
8.6465556936587973e-12
0
ENDSEC
0
SECTION
2
OBJECTS
0
DICTIONARY
5
C
100
AcDbDictionary
3
ACAD_GROUP
350
D
3
ACAD_MLINESTYLE
350
17
0
DICTIONARY
5
D
100
AcDbDictionary
0
DICTIONARY
5
1A
330
C
100
AcDbDictionary
0
DICTIONARY
5
17
100
AcDbDictionary
0
ENDSEC
0
EOF
