  0
SECTION
  2
HEADER
  9
$ACADVER
  1
AC1027
  9
$ACADMAINTVER
 70
   105
  9
$DWGCODEPAGE
  3
ANSI_1252
  9
$LASTSAVEDBY
  1
wutti
  9
$REQUIREDVERSIONS
160
                 0
  9
$INSBASE
 10
0.0
 20
0.0
 30
0.0
  9
$EXTMIN
 10
-581.5425852222546
 20
4.88971431483651
 30
0.0
  9
$EXTMAX
 10
624.9813067777453
 20
346.6755543148365
 30
0.0
  9
$LIMMIN
 10
0.0
 20
0.0
  9
$LIMMAX
 10
420.0
 20
297.0
  9
$ORTHOMODE
 70
     0
  9
$REGENMODE
 70
     1
  9
$FILLMODE
 70
     1
  9
$QTEXTMODE
 70
     0
  9
$MIRRTEXT
 70
     0
  9
$LTSCALE
 40
0.75
  9
$ATTMODE
 70
     1
  9
$TEXTSIZE
 40
3.5
  9
$TRACEWID
 40
1.0
  9
$TEXTSTYLE
  7
Standard
  9
$CLAYER
  8
0
  9
$CELTYPE
  6
ByLayer
  9
$CECOLOR
 62
   256
  9
$CELTSCALE
 40
1.0
  9
$DISPSILH
 70
     0
  9
$DIMSCALE
 40
1.0
  9
$DIMASZ
 40
3.5
  9
$DIMEXO
 40
3.0
  9
$DIMDLI
 40
10.5
  9
$DIMRND
 40
0.0
  9
$DIMDLE
 40
0.0
  9
$DIMEXE
 40
2.1
  9
$DIMTP
 40
0.1
  9
$DIMTM
 40
0.1
  9
$DIMTXT
 40
3.5
  9
$DIMCEN
 40
0.0
  9
$DIMTSZ
 40
0.0
  9
$DIMTOL
 70
     0
  9
$DIMLIM
 70
     0
  9
$DIMTIH
 70
     0
  9
$DIMTOH
 70
     0
  9
$DIMSE1
 70
     0
  9
$DIMSE2
 70
     0
  9
$DIMTAD
 70
     1
  9
$DIMZIN
 70
    12
  9
$DIMBLK
  1

  9
$DIMASO
 70
     1
  9
$DIMSHO
 70
     1
  9
$DIMPOST
  1

  9
$DIMAPOST
  1
in
  9
$DIMALT
 70
     0
  9
$DIMALTD
 70
     4
  9
$DIMALTF
 40
0.03937
  9
$DIMLFAC
 40
1.0
  9
$DIMTOFL
 70
     1
  9
$DIMTVP
 40
0.0
  9
$DIMTIX
 70
     0
  9
$DIMSOXD
 70
     0
  9
$DIMSAH
 70
     0
  9
$DIMBLK1
  1

  9
$DIMBLK2
  1

  9
$DIMSTYLE
  2
Standard
  9
$DIMCLRD
 70
     0
  9
$DIMCLRE
 70
     0
  9
$DIMCLRT
 70
     0
  9
$DIMTFAC
 40
0.714286
  9
$DIMGAP
 40
1.4
  9
$DIMJUST
 70
     0
  9
$DIMSD1
 70
     0
  9
$DIMSD2
 70
     0
  9
$DIMTOLJ
 70
     0
  9
$DIMTZIN
 70
    12
  9
$DIMALTZ
 70
     0
  9
$DIMALTTZ
 70
    12
  9
$DIMUPT
 70
     0
  9
$DIMDEC
 70
     2
  9
$DIMTDEC
 70
     2
  9
$DIMALTU
 70
     2
  9
$DIMALTTD
 70
     4
  9
$DIMTXSTY
  7
Standard
  9
$DIMAUNIT
 70
     0
  9
$DIMADEC
 70
     2
  9
$DIMALTRND
 40
0.0
  9
$DIMAZIN
 70
     3
  9
$DIMDSEP
 70
    46
  9
$DIMATFIT
 70
     3
  9
$DIMFRAC
 70
     0
  9
$DIMLDRBLK
  1

  9
$DIMLUNIT
 70
     2
  9
$DIMLWD
 70
    -2
  9
$DIMLWE
 70
    -2
  9
$DIMTMOVE
 70
     0
  9
$DIMFXL
 40
1.0
  9
$DIMFXLON
 70
     0
  9
$DIMJOGANG
 40
0.7853981633974483
  9
$DIMTFILL
 70
     0
  9
$DIMTFILLCLR
 70
     0
  9
$DIMARCSYM
 70
     0
  9
$DIMLTYPE
  6

  9
$DIMLTEX1
  6

  9
$DIMLTEX2
  6

  9
$DIMTXTDIRECTION
 70
     0
  9
$LUNITS
 70
     2
  9
$LUPREC
 70
     4
  9
$SKETCHINC
 40
1.0
  9
$FILLETRAD
 40
0.0
  9
$AUNITS
 70
     0
  9
$AUPREC
 70
     0
  9
$MENU
  1
.
  9
$ELEVATION
 40
0.0
  9
$PELEVATION
 40
0.0
  9
$THICKNESS
 40
0.0
  9
$LIMCHECK
 70
     0
  9
$CHAMFERA
 40
0.0
  9
$CHAMFERB
 40
0.0
  9
$CHAMFERC
 40
0.0
  9
$CHAMFERD
 40
0.0
  9
$SKPOLY
 70
     0
  9
$TDCREATE
 40
2461212.389719699
  9
$TDUCREATE
 40
2461212.098053033
  9
$TDUPDATE
 40
2461212.389719965
  9
$TDUUPDATE
 40
2461212.098053298
  9
$TDINDWG
 40
0.0000000116
  9
$TDUSRTIMER
 40
0.0000000116
  9
$USRTIMER
 70
     1
  9
$ANGBASE
 50
0.0
  9
$ANGDIR
 70
     0
  9
$PDMODE
 70
     0
  9
$PDSIZE
 40
0.0
  9
$PLINEWID
 40
0.0
  9
$SPLFRAME
 70
     0
  9
$SPLINETYPE
 70
     6
  9
$SPLINESEGS
 70
     8
  9
$HANDSEED
  5
4A0
  9
$SURFTAB1
 70
     6
  9
$SURFTAB2
 70
     6
  9
$SURFTYPE
 70
     6
  9
$SURFU
 70
     6
  9
$SURFV
 70
     6
  9
$UCSBASE
  2

  9
$UCSNAME
  2

  9
$UCSORG
 10
0.0
 20
0.0
 30
0.0
  9
$UCSXDIR
 10
1.0
 20
0.0
 30
0.0
  9
$UCSYDIR
 10
0.0
 20
1.0
 30
0.0
  9
$UCSORTHOREF
  2

  9
$UCSORTHOVIEW
 70
     0
  9
$UCSORGTOP
 10
0.0
 20
0.0
 30
0.0
  9
$UCSORGBOTTOM
 10
0.0
 20
0.0
 30
0.0
  9
$UCSORGLEFT
 10
0.0
 20
0.0
 30
0.0
  9
$UCSORGRIGHT
 10
0.0
 20
0.0
 30
0.0
  9
$UCSORGFRONT
 10
0.0
 20
0.0
 30
0.0
  9
$UCSORGBACK
 10
0.0
 20
0.0
 30
0.0
  9
$PUCSBASE
  2

  9
$PUCSNAME
  2

  9
$PUCSORG
 10
0.0
 20
0.0
 30
0.0
  9
$PUCSXDIR
 10
1.0
 20
0.0
 30
0.0
  9
$PUCSYDIR
 10
0.0
 20
1.0
 30
0.0
  9
$PUCSORTHOREF
  2

  9
$PUCSORTHOVIEW
 70
     0
  9
$PUCSORGTOP
 10
0.0
 20
0.0
 30
0.0
  9
$PUCSORGBOTTOM
 10
0.0
 20
0.0
 30
0.0
  9
$PUCSORGLEFT
 10
0.0
 20
0.0
 30
0.0
  9
$PUCSORGRIGHT
 10
0.0
 20
0.0
 30
0.0
  9
$PUCSORGFRONT
 10
0.0
 20
0.0
 30
0.0
  9
$PUCSORGBACK
 10
0.0
 20
0.0
 30
0.0
  9
$USERI1
 70
     0
  9
$USERI2
 70
     0
  9
$USERI3
 70
     0
  9
$USERI4
 70
     0
  9
$USERI5
 70
     0
  9
$USERR1
 40
0.0
  9
$USERR2
 40
0.0
  9
$USERR3
 40
0.0
  9
$USERR4
 40
0.0
  9
$USERR5
 40
0.0
  9
$WORLDVIEW
 70
     1
  9
$SHADEDGE
 70
     3
  9
$SHADEDIF
 70
    70
  9
$TILEMODE
 70
     1
  9
$MAXACTVP
 70
    64
  9
$PINSBASE
 10
0.0
 20
0.0
 30
0.0
  9
$PLIMCHECK
 70
     0
  9
$PEXTMIN
 10
0.0
 20
0.0
 30
0.0
  9
$PEXTMAX
 10
0.0
 20
0.0
 30
0.0
  9
$PLIMMIN
 10
-20.0
 20
-7.5
  9
$PLIMMAX
 10
277.0
 20
202.5
  9
$UNITMODE
 70
     0
  9
$VISRETAIN
 70
     1
  9
$PLINEGEN
 70
     0
  9
$PSLTSCALE
 70
     1
  9
$TREEDEPTH
 70
  3020
  9
$CMLSTYLE
  2
Standard
  9
$CMLJUST
 70
     0
  9
$CMLSCALE
 40
20.0
  9
$PROXYGRAPHICS
 70
     1
  9
$MEASUREMENT
 70
     1
  9
$CELWEIGHT
370
    -1
  9
$ENDCAPS
280
     0
  9
$JOINSTYLE
280
     0
  9
$LWDISPLAY
290
     0
  9
$INSUNITS
 70
     4
  9
$HYPERLINKBASE
  1

  9
$STYLESHEET
  1

  9
$XEDIT
290
     1
  9
$CEPSNTYPE
380
     0
  9
$PSTYLEMODE
290
     1
  9
$FINGERPRINTGUID
  2
{8b9dac5e-f93c-4470-8079-3f2a80ace708}
  9
$VERSIONGUID
  2
{FAEB1C32-E019-11D5-929B-00C0DF256EC4}
  9
$EXTNAMES
290
     1
  9
$PSVPSCALE
 40
0.0
  9
$OLESTARTUP
290
     0
  9
$SORTENTS
280
   127
  9
$INDEXCTL
280
     0
  9
$HIDETEXT
280
     1
  9
$XCLIPFRAME
280
     2
  9
$HALOGAP
280
     0
  9
$OBSCOLOR
 70
   257
  9
$OBSLTYPE
280
     0
  9
$INTERSECTIONDISPLAY
280
     0
  9
$INTERSECTIONCOLOR
 70
   257
  9
$DIMASSOC
280
     2
  9
$PROJECTNAME
  1

  9
$CAMERADISPLAY
290
     0
  9
$LENSLENGTH
 40
50.0
  9
$CAMERAHEIGHT
 40
0.0
  9
$STEPSPERSEC
 40
2.0
  9
$STEPSIZE
 40
6.0
  9
$3DDWFPREC
 40
2.0
  9
$PSOLWIDTH
 40
0.25
  9
$PSOLHEIGHT
 40
4.0
  9
$LOFTANG1
 40
1.570796326794897
  9
$LOFTANG2
 40
1.570796326794897
  9
$LOFTMAG1
 40
0.0
  9
$LOFTMAG2
 40
0.0
  9
$LOFTPARAM
 70
     7
  9
$LOFTNORMALS
280
     1
  9
$LATITUDE
 40
37.795
  9
$LONGITUDE
 40
-122.394
  9
$NORTHDIRECTION
 40
0.0
  9
$TIMEZONE
 70
 -8000
  9
$LIGHTGLYPHDISPLAY
280
     1
  9
$TILEMODELIGHTSYNCH
280
     1
  9
$CMATERIAL
347
3AD
  9
$SOLIDHIST
280
     0
  9
$SHOWHIST
280
     1
  9
$DWFFRAME
280
     2
  9
$DGNFRAME
280
     2
  9
$REALWORLDSCALE
290
     1
  9
$INTERFERECOLOR
 62
   256
  9
$CSHADOW
280
     0
  9
$SHADOWPLANELOCATION
 40
0.0
  0
ENDSEC
  0
SECTION
  2
CLASSES
  0
CLASS
  1
ACDBDICTIONARYWDFLT
  2
AcDbDictionaryWithDefault
  3
ObjectDBX Classes
 90
        0
 91
        3
280
     0
281
     0
  0
CLASS
  1
VISUALSTYLE
  2
AcDbVisualStyle
  3
ObjectDBX Classes
 90
     4095
 91
        3
280
     0
281
     0
  0
CLASS
  1
MATERIAL
  2
AcDbMaterial
  3
ObjectDBX Classes
 90
     1153
 91
        3
280
     0
281
     0
  0
CLASS
  1
SCALE
  2
AcDbScale
  3
ObjectDBX Classes
 90
     1153
 91
        3
280
     0
281
     0
  0
CLASS
  1
TABLESTYLE
  2
AcDbTableStyle
  3
ObjectDBX Classes
 90
     4095
 91
        3
280
     0
281
     0
  0
CLASS
  1
MLEADERSTYLE
  2
AcDbMLeaderStyle
  3
ACDB_MLEADERSTYLE_CLASS
 90
     4095
 91
        3
280
     0
281
     0
  0
CLASS
  1
SUN
  2
AcDbSun
  3
SCENEOE
 90
     1153
 91
        3
280
     0
281
     0
  0
CLASS
  1
DICTIONARYVAR
  2
AcDbDictionaryVar
  3
ObjectDBX Classes
 90
        0
 91
        3
280
     0
281
     0
  0
CLASS
  1
CELLSTYLEMAP
  2
AcDbCellStyleMap
  3
ObjectDBX Classes
 90
     1152
 91
        3
280
     0
281
     0
  0
ENDSEC
  0
SECTION
  2
TABLES
  0
TABLE
  2
VPORT
  5
372
330
0
100
AcDbSymbolTable
 70
     1
  0
VPORT
  5
392
330
372
100
AcDbSymbolTableRecord
100
AcDbViewportTableRecord
  2
*Active
 70
     0
 10
0.0
 20
0.0
 11
1.0
 21
1.0
 12
21.71936077774535
 22
175.7826343148365
 13
0.0
 23
0.0
 14
0.5
 24
0.5
 15
0.5
 25
0.5
 16
0.0
 26
0.0
 36
1.0
 17
0.0
 27
0.0
 37
0.0
 40
633.1575164346531
 41
1.934733257661748
 42
50.0
 43
0.0
 44
0.0
 50
0.0
 51
0.0
 71
     0
 72
   100
 73
     1
 74
     3
 75
     0
 76
     0
 77
     0
 78
     0
281
     0
 65
     1
110
0.0
120
0.0
130
0.0
111
1.0
121
0.0
131
0.0
112
0.0
122
1.0
132
0.0
 79
     0
146
0.0
348
398
 60
     3
 61
     5
292
     1
282
     1
141
0.0
142
0.0
 63
   250
361
3C6
  0
ENDTAB
  0
TABLE
  2
LTYPE
  5
36F
330
0
100
AcDbSymbolTable
 70
    59
  0
LTYPE
  5
37D
330
36F
100
AcDbSymbolTableRecord
100
AcDbLinetypeTableRecord
  2
ByBlock
 70
     0
  3

 72
    65
 73
     0
 40
0.0
  0
LTYPE
  5
37E
330
36F
100
AcDbSymbolTableRecord
100
AcDbLinetypeTableRecord
  2
ByLayer
 70
     0
  3

 72
    65
 73
     0
 40
0.0
  0
LTYPE
  5
37F
330
36F
100
AcDbSymbolTableRecord
100
AcDbLinetypeTableRecord
  2
Continuous
 70
     0
  3
Solid line
 72
    65
 73
     0
 40
0.0
  0
LTYPE
  5
401
330
36F
100
AcDbSymbolTableRecord
100
AcDbLinetypeTableRecord
  2
HIDDENX2
 70
     0
  3
Hidden (2x) ____ ____ ____ ____ ____ ____ ____ 
 72
    65
 73
     2
 40
19.05
 49
12.7
 74
     0
 49
-6.35
 74
     0
  0
LTYPE
  5
403
330
36F
100
AcDbSymbolTableRecord
100
AcDbLinetypeTableRecord
  2
HOT_WATER_SUPPLY
 70
     0
  3
Hot water supply ---- HW ---- HW ---- HW ----
 72
    65
 73
     3
 40
22.86
 49
12.7
 74
     0
 49
-5.08
 74
     2
 75
     0
340
402
 46
2.54
 50
0.0
 44
-2.54
 45
-1.27
  9
HW
 49
-5.08
 74
     0
  0
LTYPE
  5
404
330
36F
100
AcDbSymbolTableRecord
100
AcDbLinetypeTableRecord
  2
PHANTOM
 70
     0
  3
Phantom ______  __  __  ______  __  __  ______ 
 72
    65
 73
     6
 40
63.50000000000001
 49
31.75
 74
     0
 49
-6.35
 74
     0
 49
6.35
 74
     0
 49
-6.35
 74
     0
 49
6.35
 74
     0
 49
-6.35
 74
     0
  0
LTYPE
  5
405
330
36F
100
AcDbSymbolTableRecord
100
AcDbLinetypeTableRecord
  2
PHANTOM2
 70
     0
  3
Phantom (.5x) ___ _ _ ___ _ _ ___ _ _ ___ _ _
 72
    65
 73
     6
 40
31.75
 49
15.875
 74
     0
 49
-3.175
 74
     0
 49
3.175
 74
     0
 49
-3.175
 74
     0
 49
3.175
 74
     0
 49
-3.175
 74
     0
  0
LTYPE
  5
406
330
36F
100
AcDbSymbolTableRecord
100
AcDbLinetypeTableRecord
  2
PHANTOMX2
 70
     0
  3
Phantom (2x) ____________    ____    ____   _
 72
    65
 73
     6
 40
127.0
 49
63.5
 74
     0
 49
-12.7
 74
     0
 49
12.7
 74
     0
 49
-12.7
 74
     0
 49
12.7
 74
     0
 49
-12.7
 74
     0
  0
LTYPE
  5
408
330
36F
100
AcDbSymbolTableRecord
100
AcDbLinetypeTableRecord
  2
TRACKS
 70
     0
  3
Tracks -|-|-|-|-|-|-|-|-|-|-|-|-|-|-|-|-|-|-|-|-|-|-|-|-
 72
    65
 73
     2
 40
7.62
 49
3.81
 74
     2
 75
     0
340
407
 46
6.35
 50
0.0
 44
0.0
 45
0.0
  9
TRACK1
 49
3.81
 74
     0
  0
LTYPE
  5
409
330
36F
100
AcDbSymbolTableRecord
100
AcDbLinetypeTableRecord
  2
ZIGZAG
 70
     0
  3
Zig zag /\/\/\/\/\/\/\/\/\/\/\/\/\/\/\/\/\/\/\/\/\/\/\/
 72
    65
 73
     4
 40
20.32254
 49
0.00254
 74
     0
 49
-5.08
 74
     2
 75
     0
340
407
 46
5.08
 50
0.0
 44
-5.08
 45
0.0
  9
ZIG
 49
-10.16
 74
     2
 75
     0
340
407
 46
5.08
 50
180.0
 44
5.08
 45
0.0
  9
ZIG
 49
-5.08
 74
     0
  0
LTYPE
  5
40A
330
36F
100
AcDbSymbolTableRecord
100
AcDbLinetypeTableRecord
  2
AM_ISO02W050
 70
     0
  3
__ __ __ __ __ __ __ __ __ __ __ __ __ __ __
 72
    65
 73
     2
 40
7.5
 49
6.0
 74
     0
 49
-1.5
 74
     0
  0
LTYPE
  5
40B
330
36F
100
AcDbSymbolTableRecord
100
AcDbLinetypeTableRecord
  2
AM_ISO08W050
 70
     0
  3
____ . ____ . ____ . ____ . ____ . ____ . ____
 72
    65
 73
     4
 40
18.0
 49
12.0
 74
     0
 49
-1.5
 74
     0
 49
3.0
 74
     0
 49
-1.5
 74
     0
  0
LTYPE
  5
40C
330
36F
100
AcDbSymbolTableRecord
100
AcDbLinetypeTableRecord
  2
AM_ISO09W050
 70
     0
  3
_____ . . _____ . . _____ . . ____ .. ____
 72
    65
 73
     6
 40
22.5
 49
12.0
 74
     0
 49
-1.5
 74
     0
 49
3.0
 74
     0
 49
-1.5
 74
     0
 49
3.0
 74
     0
 49
-1.5
 74
     0
  0
LTYPE
  5
40D
330
36F
100
AcDbSymbolTableRecord
100
AcDbLinetypeTableRecord
  2
Amconstr
 70
     0
  3
_______________________
 72
    65
 73
     2
 40
9999.0
 49
9999.0
 74
     0
 49
0.0
 74
     0
  0
LTYPE
  5
40E
330
36F
100
AcDbSymbolTableRecord
100
AcDbLinetypeTableRecord
  2
AM_ISO08W050x2
 70
     0
  3
__ . __ . __ . __ . __ . __
 72
    65
 73
     4
 40
9.0
 49
6.0
 74
     0
 49
-0.75
 74
     0
 49
1.5
 74
     0
 49
-0.75
 74
     0
  0
LTYPE
  5
40F
330
36F
100
AcDbSymbolTableRecord
100
AcDbLinetypeTableRecord
  2
AM_ISO02W050x2
 70
     0
  3
 _ _ _ _ _ _ _ _ _ _ _ _
 72
    65
 73
     2
 40
3.75
 49
3.0
 74
     0
 49
-0.75
 74
     0
  0
LTYPE
  5
411
330
36F
100
AcDbSymbolTableRecord
100
AcDbLinetypeTableRecord
  2
Amzigzag
 70
     0
  3
/\/-/\/-/\/-/\/-/\/-/\/
 72
    65
 73
     2
 40
11.0001
 49
0.0001
 74
     0
 49
-11.0
 74
     0
  0
LTYPE
  5
412
330
36F
100
AcDbSymbolTableRecord
100
AcDbLinetypeTableRecord
  2
DASHED
 70
     0
  3
Dashed __ __ __ __ __ __ __ __ __ __ __ __ __ _
 72
    65
 73
     2
 40
19.05
 49
12.7
 74
     0
 49
-6.35
 74
     0
  0
LTYPE
  5
413
330
36F
100
AcDbSymbolTableRecord
100
AcDbLinetypeTableRecord
  2
DASHED2
 70
     0
  3
Dashed (.5x) _ _ _ _ _ _ _ _ _ _ _ _ _ _ _ _ _ 
 72
    65
 73
     2
 40
9.524999999999999
 49
6.35
 74
     0
 49
-3.175
 74
     0
  0
LTYPE
  5
414
330
36F
100
AcDbSymbolTableRecord
100
AcDbLinetypeTableRecord
  2
DASHEDX2
 70
     0
  3
Dashed (2x) ____  ____  ____  ____  ____  ___
 72
    65
 73
     2
 40
38.09999999999999
 49
25.4
 74
     0
 49
-12.7
 74
     0
  0
LTYPE
  5
415
330
36F
100
AcDbSymbolTableRecord
100
AcDbLinetypeTableRecord
  2
DIVIDE
 70
     0
  3
Divide ____ . . ____ . . ____ . . ____ . . ____
 72
    65
 73
     6
 40
31.75
 49
12.7
 74
     0
 49
-6.35
 74
     0
 49
0.0
 74
     0
 49
-6.35
 74
     0
 49
0.0
 74
     0
 49
-6.35
 74
     0
  0
LTYPE
  5
416
330
36F
100
AcDbSymbolTableRecord
100
AcDbLinetypeTableRecord
  2
DIVIDE2
 70
     0
  3
Divide (.5x) __..__..__..__..__..__..__..__.._
 72
    65
 73
     6
 40
15.875
 49
6.35
 74
     0
 49
-3.175
 74
     0
 49
0.0
 74
     0
 49
-3.175
 74
     0
 49
0.0
 74
     0
 49
-3.175
 74
     0
  0
LTYPE
  5
417
330
36F
100
AcDbSymbolTableRecord
100
AcDbLinetypeTableRecord
  2
DIVIDEX2
 70
     0
  3
Divide (2x) ________  .  .  ________  .  .  _
 72
    65
 73
     6
 40
63.5
 49
25.4
 74
     0
 49
-12.7
 74
     0
 49
0.0
 74
     0
 49
-12.7
 74
     0
 49
0.0
 74
     0
 49
-12.7
 74
     0
  0
LTYPE
  5
418
330
36F
100
AcDbSymbolTableRecord
100
AcDbLinetypeTableRecord
  2
DOT
 70
     0
  3
Dot . . . . . . . . . . . . . . . . . . . . . . . .
 72
    65
 73
     2
 40
6.35
 49
0.0
 74
     0
 49
-6.35
 74
     0
  0
LTYPE
  5
419
330
36F
100
AcDbSymbolTableRecord
100
AcDbLinetypeTableRecord
  2
DOT2
 70
     0
  3
Dot (.5x) ........................................
 72
    65
 73
     2
 40
3.175
 49
0.0
 74
     0
 49
-3.175
 74
     0
  0
LTYPE
  5
41A
330
36F
100
AcDbSymbolTableRecord
100
AcDbLinetypeTableRecord
  2
DOTX2
 70
     0
  3
Dot (2x) .  .  .  .  .  .  .  .  .  .  .  .  .  .
 72
    65
 73
     2
 40
12.7
 49
0.0
 74
     0
 49
-12.7
 74
     0
  0
LTYPE
  5
41C
330
36F
100
AcDbSymbolTableRecord
100
AcDbLinetypeTableRecord
  2
DRAINAGE
 70
     0
  3
Drainage ---->---->---->----
 72
    65
 73
     2
 40
10.16
 49
5.08
 74
     2
 75
     0
340
41B
 46
2.54
 50
180.0
 44
0.0
 45
0.0
  9
RIGHT_ARROW
 49
5.08
 74
     0
  0
LTYPE
  5
41D
330
36F
100
AcDbSymbolTableRecord
100
AcDbLinetypeTableRecord
  2
DRAINAGE2
 70
     0
  3
Drainage reversed----<----<----<----
 72
    65
 73
     2
 40
10.16
 49
5.08
 74
     2
 75
     0
340
41B
 46
2.54
 50
0.0
 44
0.0
 45
0.0
  9
RIGHT_ARROW
 49
5.08
 74
     0
  0
LTYPE
  5
41E
330
36F
100
AcDbSymbolTableRecord
100
AcDbLinetypeTableRecord
  2
FENCELINE1
 70
     0
  3
Fenceline circle ----0-----0----0-----0----0-----0--
 72
    65
 73
     4
 40
36.83
 49
6.35
 74
     0
 49
-2.54
 74
     2
 75
     0
340
407
 46
2.54
 50
0.0
 44
-2.54
 45
0.0
  9
CIRC1
 49
-2.54
 74
     0
 49
25.4
 74
     0
  0
LTYPE
  5
41F
330
36F
100
AcDbSymbolTableRecord
100
AcDbLinetypeTableRecord
  2
FENCELINE2
 70
     0
  3
Fenceline square ----[]-----[]----[]-----[]----[]---
 72
    65
 73
     4
 40
36.83
 49
6.35
 74
     0
 49
-2.54
 74
     2
 75
     0
340
407
 46
2.54
 50
0.0
 44
-2.54
 45
0.0
  9
BOX
 49
-2.54
 74
     0
 49
25.4
 74
     0
  0
LTYPE
  5
420
330
36F
100
AcDbSymbolTableRecord
100
AcDbLinetypeTableRecord
  2
GAS_LINE
 70
     0
  3
Gas line ----GAS----GAS----GAS----GAS----GAS----GAS--
 72
    65
 73
     3
 40
24.13
 49
12.7
 74
     0
 49
-5.08
 74
     2
 75
     0
340
402
 46
2.54
 50
0.0
 44
-2.54
 45
-1.27
  9
GAS
 49
-6.35
 74
     0
  0
LTYPE
  5
421
330
36F
100
AcDbSymbolTableRecord
100
AcDbLinetypeTableRecord
  2
HIDDEN
 70
     0
  3
Hidden __ __ __ __ __ __ __ __ __ __ __ __ __ _
 72
    65
 73
     2
 40
9.524999999999999
 49
6.35
 74
     0
 49
-3.175
 74
     0
  0
LTYPE
  5
422
330
36F
100
AcDbSymbolTableRecord
100
AcDbLinetypeTableRecord
  2
HIDDEN2
 70
     0
  3
Hidden (.5x) _ _ _ _ _ _ _ _ _ _ _ _ _ _ _ _ _ 
 72
    65
 73
     2
 40
4.762499999999999
 49
3.175
 74
     0
 49
-1.5875
 74
     0
  0
LTYPE
  5
423
330
36F
100
AcDbSymbolTableRecord
100
AcDbLinetypeTableRecord
  2
ACAD_ISO10W100
 70
     0
  3
ISO dash dot __ . __ . __ . __ . __ . __ . __ . 
 72
    65
 73
     4
 40
18.0
 49
12.0
 74
     0
 49
-3.0
 74
     0
 49
0.0
 74
     0
 49
-3.0
 74
     0
  0
LTYPE
  5
424
330
36F
100
AcDbSymbolTableRecord
100
AcDbLinetypeTableRecord
  2
ACAD_ISO11W100
 70
     0
  3
ISO double-dash dot __ __ . __ __ . __ __ . __ _
 72
    65
 73
     6
 40
33.0
 49
12.0
 74
     0
 49
-3.0
 74
     0
 49
12.0
 74
     0
 49
-3.0
 74
     0
 49
0.0
 74
     0
 49
-3.0
 74
     0
  0
LTYPE
  5
425
330
36F
100
AcDbSymbolTableRecord
100
AcDbLinetypeTableRecord
  2
ACAD_ISO12W100
 70
     0
  3
ISO dash double-dot __ . . __ . . __ . . __ . . 
 72
    65
 73
     6
 40
21.0
 49
12.0
 74
     0
 49
-3.0
 74
     0
 49
0.0
 74
     0
 49
-3.0
 74
     0
 49
0.0
 74
     0
 49
-3.0
 74
     0
  0
LTYPE
  5
426
330
36F
100
AcDbSymbolTableRecord
100
AcDbLinetypeTableRecord
  2
ACAD_ISO13W100
 70
     0
  3
ISO double-dash double-dot __ __ . . __ __ . . _
 72
    65
 73
     8
 40
36.0
 49
12.0
 74
     0
 49
-3.0
 74
     0
 49
12.0
 74
     0
 49
-3.0
 74
     0
 49
0.0
 74
     0
 49
-3.0
 74
     0
 49
0.0
 74
     0
 49
-3.0
 74
     0
  0
LTYPE
  5
427
330
36F
100
AcDbSymbolTableRecord
100
AcDbLinetypeTableRecord
  2
ACAD_ISO14W100
 70
     0
  3
ISO dash triple-dot __ . . . __ . . . __ . . . _
 72
    65
 73
     8
 40
24.0
 49
12.0
 74
     0
 49
-3.0
 74
     0
 49
0.0
 74
     0
 49
-3.0
 74
     0
 49
0.0
 74
     0
 49
-3.0
 74
     0
 49
0.0
 74
     0
 49
-3.0
 74
     0
  0
LTYPE
  5
428
330
36F
100
AcDbSymbolTableRecord
100
AcDbLinetypeTableRecord
  2
ACAD_ISO15W100
 70
     0
  3
ISO double-dash triple-dot __ __ . . . __ __ . .
 72
    65
 73
    10
 40
39.0
 49
12.0
 74
     0
 49
-3.0
 74
     0
 49
12.0
 74
     0
 49
-3.0
 74
     0
 49
0.0
 74
     0
 49
-3.0
 74
     0
 49
0.0
 74
     0
 49
-3.0
 74
     0
 49
0.0
 74
     0
 49
-3.0
 74
     0
  0
LTYPE
  5
429
330
36F
100
AcDbSymbolTableRecord
100
AcDbLinetypeTableRecord
  2
BATTING
 70
     0
  3
Batting SSSSSSSSSSSSSSSSSSSSSSSSSSSSSSSSSSSSSSSSSSSSSSS
 72
    65
 73
     4
 40
10.16254
 49
0.00254
 74
     0
 49
-2.54
 74
     2
 75
     0
340
407
 46
2.54
 50
0.0
 44
-2.54
 45
0.0
  9
BAT
 49
-5.08
 74
     2
 75
     0
340
407
 46
2.54
 50
180.0
 44
2.54
 45
0.0
  9
BAT
 49
-2.54
 74
     0
  0
LTYPE
  5
42A
330
36F
100
AcDbSymbolTableRecord
100
AcDbLinetypeTableRecord
  2
BORDER
 70
     0
  3
Border __ __ . __ __ . __ __ . __ __ . __ __ .
 72
    65
 73
     6
 40
44.45
 49
12.7
 74
     0
 49
-6.35
 74
     0
 49
12.7
 74
     0
 49
-6.35
 74
     0
 49
0.0
 74
     0
 49
-6.35
 74
     0
  0
LTYPE
  5
42B
330
36F
100
AcDbSymbolTableRecord
100
AcDbLinetypeTableRecord
  2
BORDER2
 70
     0
  3
Border (.5x) __.__.__.__.__.__.__.__.__.__.__.
 72
    65
 73
     6
 40
22.225
 49
6.35
 74
     0
 49
-3.175
 74
     0
 49
6.35
 74
     0
 49
-3.175
 74
     0
 49
0.0
 74
     0
 49
-3.175
 74
     0
  0
LTYPE
  5
42C
330
36F
100
AcDbSymbolTableRecord
100
AcDbLinetypeTableRecord
  2
BORDERX2
 70
     0
  3
Border (2x) ____  ____  .  ____  ____  .  ___
 72
    65
 73
     6
 40
88.89999999999999
 49
25.4
 74
     0
 49
-12.7
 74
     0
 49
25.4
 74
     0
 49
-12.7
 74
     0
 49
0.0
 74
     0
 49
-12.7
 74
     0
  0
LTYPE
  5
42D
330
36F
100
AcDbSymbolTableRecord
100
AcDbLinetypeTableRecord
  2
CENTER
 70
     0
  3
Center ____ _ ____ _ ____ _ ____ _ ____ _ ____
 72
    65
 73
     4
 40
50.8
 49
31.75
 74
     0
 49
-6.35
 74
     0
 49
6.35
 74
     0
 49
-6.35
 74
     0
  0
LTYPE
  5
42E
330
36F
100
AcDbSymbolTableRecord
100
AcDbLinetypeTableRecord
  2
CENTER2
 70
     0
  3
Center (.5x) ___ _ ___ _ ___ _ ___ _ ___ _ ___
 72
    65
 73
     4
 40
28.575
 49
19.05
 74
     0
 49
-3.175
 74
     0
 49
3.175
 74
     0
 49
-3.175
 74
     0
  0
LTYPE
  5
42F
330
36F
100
AcDbSymbolTableRecord
100
AcDbLinetypeTableRecord
  2
CENTERX2
 70
     0
  3
Center (2x) ________  __  ________  __  _____
 72
    65
 73
     4
 40
101.6
 49
63.5
 74
     0
 49
-12.7
 74
     0
 49
12.7
 74
     0
 49
-12.7
 74
     0
  0
LTYPE
  5
430
330
36F
100
AcDbSymbolTableRecord
100
AcDbLinetypeTableRecord
  2
DASHDOT
 70
     0
  3
Dash dot __ . __ . __ . __ . __ . __ . __ . __
 72
    65
 73
     4
 40
25.4
 49
12.7
 74
     0
 49
-6.35
 74
     0
 49
0.0
 74
     0
 49
-6.35
 74
     0
  0
LTYPE
  5
431
330
36F
100
AcDbSymbolTableRecord
100
AcDbLinetypeTableRecord
  2
ACISOWELD
 70
     0
  3
_ _ _ _ _
 72
    65
 73
     2
 40
3.0
 49
2.0
 74
     0
 49
-1.0
 74
     0
  0
LTYPE
  5
432
330
36F
100
AcDbSymbolTableRecord
100
AcDbLinetypeTableRecord
  2
DASHDOT2
 70
     0
  3
Dash dot (.5x) _._._._._._._._._._._._._._._.
 72
    65
 73
     4
 40
12.7
 49
6.35
 74
     0
 49
-3.175
 74
     0
 49
0.0
 74
     0
 49
-3.175
 74
     0
  0
LTYPE
  5
433
330
36F
100
AcDbSymbolTableRecord
100
AcDbLinetypeTableRecord
  2
ACISOTGL
 70
     0
  3
_ _ _ _ _
 72
    65
 73
     2
 40
3.0
 49
2.0
 74
     0
 49
-1.0
 74
     0
  0
LTYPE
  5
434
330
36F
100
AcDbSymbolTableRecord
100
AcDbLinetypeTableRecord
  2
DASHDOTX2
 70
     0
  3
Dash dot (2x) ____  .  ____  .  ____  .  ___
 72
    65
 73
     4
 40
50.8
 49
25.4
 74
     0
 49
-12.7
 74
     0
 49
0.0
 74
     0
 49
-12.7
 74
     0
  0
LTYPE
  5
435
330
36F
100
AcDbSymbolTableRecord
100
AcDbLinetypeTableRecord
  2
ACISOTGB
 70
     0
  3
__ . . __ . .
 72
    65
 73
     6
 40
9.0
 49
4.0
 74
     0
 49
-1.0
 74
     0
 49
1.0
 74
     0
 49
-1.0
 74
     0
 49
1.0
 74
     0
 49
-1.0
 74
     0
  0
LTYPE
  5
436
330
36F
100
AcDbSymbolTableRecord
100
AcDbLinetypeTableRecord
  2
ACAD_VIEWBORDER_LINETYPE
 70
     0
  3
Dashed line in view border
 72
    65
 73
     2
 40
7.94
 49
1.59
 74
     0
 49
-6.35
 74
     0
  0
LTYPE
  5
437
330
36F
100
AcDbSymbolTableRecord
100
AcDbLinetypeTableRecord
  2
ACAD_ISO02W100
 70
     0
  3
ISO dash __ __ __ __ __ __ __ __ __ __ __ __ __
 72
    65
 73
     2
 40
15.0
 49
12.0
 74
     0
 49
-3.0
 74
     0
  0
LTYPE
  5
438
330
36F
100
AcDbSymbolTableRecord
100
AcDbLinetypeTableRecord
  2
ACAD_ISO03W100
 70
     0
  3
ISO dash space __    __    __    __    __    __
 72
    65
 73
     2
 40
30.0
 49
12.0
 74
     0
 49
-18.0
 74
     0
  0
LTYPE
  5
439
330
36F
100
AcDbSymbolTableRecord
100
AcDbLinetypeTableRecord
  2
ACAD_ISO04W100
 70
     0
  3
ISO long-dash dot ____ . ____ . ____ . ____ . _
 72
    65
 73
     4
 40
30.0
 49
24.0
 74
     0
 49
-3.0
 74
     0
 49
0.0
 74
     0
 49
-3.0
 74
     0
  0
LTYPE
  5
43A
330
36F
100
AcDbSymbolTableRecord
100
AcDbLinetypeTableRecord
  2
ACAD_ISO05W100
 70
     0
  3
ISO long-dash double-dot ____ .. ____ .. ____ . 
 72
    65
 73
     6
 40
33.0
 49
24.0
 74
     0
 49
-3.0
 74
     0
 49
0.0
 74
     0
 49
-3.0
 74
     0
 49
0.0
 74
     0
 49
-3.0
 74
     0
  0
LTYPE
  5
43B
330
36F
100
AcDbSymbolTableRecord
100
AcDbLinetypeTableRecord
  2
ACAD_ISO06W100
 70
     0
  3
ISO long-dash triple-dot ____ ... ____ ... ____
 72
    65
 73
     8
 40
36.0
 49
24.0
 74
     0
 49
-3.0
 74
     0
 49
0.0
 74
     0
 49
-3.0
 74
     0
 49
0.0
 74
     0
 49
-3.0
 74
     0
 49
0.0
 74
     0
 49
-3.0
 74
     0
  0
LTYPE
  5
43C
330
36F
100
AcDbSymbolTableRecord
100
AcDbLinetypeTableRecord
  2
ACAD_ISO07W100
 70
     0
  3
ISO dot . . . . . . . . . . . . . . . . . . . . 
 72
    65
 73
     2
 40
3.0
 49
0.0
 74
     0
 49
-3.0
 74
     0
  0
LTYPE
  5
43D
330
36F
100
AcDbSymbolTableRecord
100
AcDbLinetypeTableRecord
  2
ACAD_ISO08W100
 70
     0
  3
ISO long-dash short-dash ____ __ ____ __ ____ _
 72
    65
 73
     4
 40
36.0
 49
24.0
 74
     0
 49
-3.0
 74
     0
 49
6.0
 74
     0
 49
-3.0
 74
     0
  0
LTYPE
  5
43E
330
36F
100
AcDbSymbolTableRecord
100
AcDbLinetypeTableRecord
  2
ACAD_ISO09W100
 70
     0
  3
ISO long-dash double-short-dash ____ __ __ ____
 72
    65
 73
     6
 40
45.0
 49
24.0
 74
     0
 49
-3.0
 74
     0
 49
6.0
 74
     0
 49
-3.0
 74
     0
 49
6.0
 74
     0
 49
-3.0
 74
     0
  0
ENDTAB
  0
TABLE
  2
LAYER
  5
36D
330
0
100
AcDbSymbolTable
 70
    10
  0
LAYER
  5
37A
330
36D
100
AcDbSymbolTableRecord
100
AcDbLayerTableRecord
  2
0
 70
     0
 62
     7
  6
Continuous
370
    -3
390
379
347
3AF
348
0
1001
AcAecLayerStandard
1000

1000

  0
LAYER
  5
440
330
36D
100
AcDbSymbolTableRecord
100
AcDbLayerTableRecord
  2
Bend Center
 70
     1
 62
    -7
  6
CENTER2
370
    25
390
379
347
3AF
348
0
  0
LAYER
  5
441
330
36D
100
AcDbSymbolTableRecord
100
AcDbLayerTableRecord
  2
Bend Tables
 70
     1
 62
    -7
  6
Continuous
370
    25
390
379
347
3AF
348
0
  0
LAYER
  5
442
330
36D
100
AcDbSymbolTableRecord
100
AcDbLayerTableRecord
  2
BendIds
 70
     1
 62
    -7
  6
Continuous
370
    25
390
379
347
3AF
348
0
  0
LAYER
  5
443
330
36D
100
AcDbSymbolTableRecord
100
AcDbLayerTableRecord
  2
Defpoints
 70
     1
 62
    -7
  6
Continuous
290
     0
370
    -3
390
379
347
3AF
348
0
1001
AcAecLayerStandard
1000

1000

  0
LAYER
  5
444
330
36D
100
AcDbSymbolTableRecord
100
AcDbLayerTableRecord
  2
FD_Dimensions
 70
     1
 62
    -7
  6
Continuous
370
    25
390
379
347
3AF
348
0
  0
LAYER
  5
445
330
36D
100
AcDbSymbolTableRecord
100
AcDbLayerTableRecord
  2
Smart Centers
 70
     1
 62
    -7
  6
CENTER2
370
    25
390
379
347
3AF
348
0
  0
LAYER
  5
447
330
36D
100
AcDbSymbolTableRecord
100
AcDbLayerTableRecord
  2
TitleBlock
 70
     1
 62
    -7
  6
Continuous
370
    35
390
379
347
3AF
348
0
1001
AcAecLayerStandard
1000

1000

1001
AcCmTransparency
1071
        0
  0
LAYER
  5
448
330
36D
100
AcDbSymbolTableRecord
100
AcDbLayerTableRecord
  2
Visible
 70
     0
 62
     7
  6
Continuous
370
    50
390
379
347
3AF
348
0
  0
LAYER
  5
449
330
36D
100
AcDbSymbolTableRecord
100
AcDbLayerTableRecord
  2
Visible Narrow
 70
     1
 62
    -7
  6
Continuous
370
    25
390
379
347
3AF
348
0
  0
ENDTAB
  0
TABLE
  2
STYLE
  5
36E
330
0
100
AcDbSymbolTable
 70
     7
  0
STYLE
  5
37B
330
36E
100
AcDbSymbolTableRecord
100
AcDbTextStyleTableRecord
  2
Standard
 70
     0
 40
0.0
 41
1.0
 50
0.0
 71
     0
 42
3.5
  3
txt
  4

  0
STYLE
  5
3FF
330
36E
100
AcDbSymbolTableRecord
100
AcDbTextStyleTableRecord
  2
QCADDimTextStyle
 70
     0
 40
0.0
 41
1.0
 50
0.0
 71
     0
 42
3.5
  3

  4

  0
STYLE
  5
402
330
36E
100
AcDbSymbolTableRecord
100
AcDbTextStyleTableRecord
  2
textstyle0
 70
     0
 40
0.0
 41
1.0
 50
0.0
 71
     0
 42
3.5
  3
STANDARD
  4

  0
STYLE
  5
407
330
36E
100
AcDbSymbolTableRecord
100
AcDbTextStyleTableRecord
  2
textstyle1
 70
     0
 40
0.0
 41
1.0
 50
0.0
 71
     0
 42
3.5
  3
ltypeshp.shx
  4

  0
STYLE
  5
410
330
36E
100
AcDbSymbolTableRecord
100
AcDbTextStyleTableRecord
  2
textstyle2
 70
     0
 40
0.0
 41
1.0
 50
0.0
 71
     0
 42
3.5
  3
genltshp.shx
  4

  0
STYLE
  5
41B
330
36E
100
AcDbSymbolTableRecord
100
AcDbTextStyleTableRecord
  2
textstyle3
 70
     0
 40
0.0
 41
1.0
 50
0.0
 71
     0
 42
3.5
  3
qcadshp.shx
  4

  0
STYLE
  5
48C
330
36E
100
AcDbSymbolTableRecord
100
AcDbTextStyleTableRecord
  2
textstyle4
 70
     0
 40
0.0
 41
1.0
 50
0.0
 71
     0
 42
3.5
  3

  4

1001
ACAD
1000
Flux Architect
1071
        0
  0
ENDTAB
  0
TABLE
  2
VIEW
  5
370
330
0
100
AcDbSymbolTable
 70
     0
  0
ENDTAB
  0
TABLE
  2
UCS
  5
371
330
0
100
AcDbSymbolTable
 70
     0
  0
ENDTAB
  0
TABLE
  2
APPID
  5
373
330
0
100
AcDbSymbolTable
 70
    14
  0
APPID
  5
37C
330
373
100
AcDbSymbolTableRecord
100
AcDbRegAppTableRecord
  2
ACAD
 70
     0
  0
APPID
  5
3C7
330
373
100
AcDbSymbolTableRecord
100
AcDbRegAppTableRecord
  2
QCAD
 70
     0
  0
APPID
  5
43F
330
373
100
AcDbSymbolTableRecord
100
AcDbRegAppTableRecord
  2
AcAecLayerStandard
 70
     0
  0
APPID
  5
446
330
373
100
AcDbSymbolTableRecord
100
AcDbRegAppTableRecord
  2
AcCmTransparency
 70
     0
  0
APPID
  5
453
330
373
100
AcDbSymbolTableRecord
100
AcDbRegAppTableRecord
  2
FUSIONTITLEBLOCK
 70
     0
  0
APPID
  5
48E
330
373
100
AcDbSymbolTableRecord
100
AcDbRegAppTableRecord
  2
ACAD_TSTYLE_FLIPHORIZ
 70
     0
  0
APPID
  5
48F
330
373
100
AcDbSymbolTableRecord
100
AcDbRegAppTableRecord
  2
MLEADERTYPE
 70
     0
  0
APPID
  5
490
330
373
100
AcDbSymbolTableRecord
100
AcDbRegAppTableRecord
  2
ACAD_DIMASSOC_CALC_DIMLFAC
 70
     0
  0
APPID
  5
491
330
373
100
AcDbSymbolTableRecord
100
AcDbRegAppTableRecord
  2
ACAD_DIMASSOC_DIMLFAC
 70
     0
  0
APPID
  5
492
330
373
100
AcDbSymbolTableRecord
100
AcDbRegAppTableRecord
  2
ACAD_DIMASSOC_OVERRIDDEN_DIMLFAC
 70
     0
  0
APPID
  5
493
330
373
100
AcDbSymbolTableRecord
100
AcDbRegAppTableRecord
  2
ACAD_DSTYLE_DIMJAG_POSITION
 70
     0
  0
APPID
  5
494
330
373
100
AcDbSymbolTableRecord
100
AcDbRegAppTableRecord
  2
AUTO_ARRANGE_XDATA
 70
     0
  0
APPID
  5
495
330
373
100
AcDbSymbolTableRecord
100
AcDbRegAppTableRecord
  2
FUSDOC_AUTODIM_XDATA
 70
     0
  0
APPID
  5
496
330
373
100
AcDbSymbolTableRecord
100
AcDbRegAppTableRecord
  2
ACAD_TC
 70
     0
  0
ENDTAB
  0
TABLE
  2
DIMSTYLE
  5
374
330
0
100
AcDbSymbolTable
 70
     2
100
AcDbDimStyleTable
  0
DIMSTYLE
105
390
330
374
100
AcDbSymbolTableRecord
100
AcDbDimStyleTableRecord
  2
Standard
 70
     0
178
     0
340
37B
  0
DIMSTYLE
105
400
102
{ACAD_REACTORS
330
23C
330
24A
330
257
330
264
102
}
330
374
100
AcDbSymbolTableRecord
100
AcDbDimStyleTableRecord
  2
QCADDimStyle
 70
     0
 41
3.5
 42
3.0
 43
10.5
 44
2.1
 73
     0
 77
     1
 78
    12
 79
     3
140
3.5
147
1.4
178
     0
179
     2
271
     2
279
     2
340
3FF
  0
ENDTAB
  0
TABLE
  2
BLOCK_RECORD
  5
36C
330
0
100
AcDbSymbolTable
 70
    20
  0
BLOCK_RECORD
  5
388
330
36C
100
AcDbSymbolTableRecord
100
AcDbBlockTableRecord
  2
*Model_Space
340
38B
 70
     0
280
     1
281
     0
  0
BLOCK_RECORD
  5
44C
330
36C
100
AcDbSymbolTableRecord
100
AcDbBlockTableRecord
  2
*Paper_Space
340
44D
 70
     0
280
     1
281
     0
  0
BLOCK_RECORD
  5
384
330
36C
100
AcDbSymbolTableRecord
100
AcDbBlockTableRecord
  2
*Paper_Space1
340
387
 70
     0
280
     1
281
     0
  0
BLOCK_RECORD
  5
452
330
36C
100
AcDbSymbolTableRecord
100
AcDbBlockTableRecord
  2
rough design 01
340
0
102
{BLKREFS
331
114
102
}
 70
     0
280
     1
281
     0
1001
FUSIONTITLEBLOCK
1000
TitleBlock
  0
BLOCK_RECORD
  5
456
330
36C
100
AcDbSymbolTableRecord
100
AcDbBlockTableRecord
  2
*T3
340
0
102
{BLKREFS
331
1F0
102
}
 70
     0
280
     1
281
     0
  0
BLOCK_RECORD
  5
459
330
36C
100
AcDbSymbolTableRecord
100
AcDbBlockTableRecord
  2
*U4
340
0
102
{BLKREFS
331
145
102
}
 70
     0
280
     1
281
     0
  0
BLOCK_RECORD
  5
45C
330
36C
100
AcDbSymbolTableRecord
100
AcDbBlockTableRecord
  2
*U5
340
0
102
{BLKREFS
331
150
102
}
 70
     0
280
     1
281
     0
  0
BLOCK_RECORD
  5
45F
330
36C
100
AcDbSymbolTableRecord
100
AcDbBlockTableRecord
  2
*U6
340
0
102
{BLKREFS
331
15A
102
}
 70
     0
280
     1
281
     0
  0
BLOCK_RECORD
  5
462
330
36C
100
AcDbSymbolTableRecord
100
AcDbBlockTableRecord
  2
*U7
340
0
102
{BLKREFS
331
164
102
}
 70
     0
280
     1
281
     0
  0
BLOCK_RECORD
  5
465
330
36C
100
AcDbSymbolTableRecord
100
AcDbBlockTableRecord
  2
*U8
340
0
102
{BLKREFS
331
16E
102
}
 70
     0
280
     1
281
     0
  0
BLOCK_RECORD
  5
468
330
36C
100
AcDbSymbolTableRecord
100
AcDbBlockTableRecord
  2
*U9
340
0
102
{BLKREFS
331
178
102
}
 70
     0
280
     1
281
     0
  0
BLOCK_RECORD
  5
46B
330
36C
100
AcDbSymbolTableRecord
100
AcDbBlockTableRecord
  2
*U10
340
0
102
{BLKREFS
331
182
102
}
 70
     0
280
     1
281
     0
  0
BLOCK_RECORD
  5
46E
330
36C
100
AcDbSymbolTableRecord
100
AcDbBlockTableRecord
  2
*U11
340
0
102
{BLKREFS
331
18C
102
}
 70
     0
280
     1
281
     0
  0
BLOCK_RECORD
  5
471
330
36C
100
AcDbSymbolTableRecord
100
AcDbBlockTableRecord
  2
*U12
340
0
102
{BLKREFS
331
196
102
}
 70
     0
280
     1
281
     0
  0
BLOCK_RECORD
  5
474
330
36C
100
AcDbSymbolTableRecord
100
AcDbBlockTableRecord
  2
*U13
340
0
102
{BLKREFS
331
1A0
102
}
 70
     0
280
     1
281
     0
  0
BLOCK_RECORD
  5
477
330
36C
100
AcDbSymbolTableRecord
100
AcDbBlockTableRecord
  2
*U14
340
0
102
{BLKREFS
331
1AA
102
}
 70
     0
280
     1
281
     0
  0
BLOCK_RECORD
  5
47A
330
36C
100
AcDbSymbolTableRecord
100
AcDbBlockTableRecord
  2
*U15
340
0
102
{BLKREFS
331
1B4
102
}
 70
     0
280
     1
281
     0
  0
BLOCK_RECORD
  5
47D
330
36C
100
AcDbSymbolTableRecord
100
AcDbBlockTableRecord
  2
*U16
340
0
102
{BLKREFS
331
1BE
102
}
 70
     0
280
     1
281
     0
  0
BLOCK_RECORD
  5
480
330
36C
100
AcDbSymbolTableRecord
100
AcDbBlockTableRecord
  2
*U17
340
0
102
{BLKREFS
331
1C8
102
}
 70
     0
280
     1
281
     0
  0
BLOCK_RECORD
  5
483
330
36C
100
AcDbSymbolTableRecord
100
AcDbBlockTableRecord
  2
*U18
340
0
102
{BLKREFS
331
1D2
102
}
 70
     0
280
     1
281
     0
  0
BLOCK_RECORD
  5
486
330
36C
100
AcDbSymbolTableRecord
100
AcDbBlockTableRecord
  2
*U19
340
0
102
{BLKREFS
331
1DC
102
}
 70
     0
280
     1
281
     0
  0
BLOCK_RECORD
  5
489
330
36C
100
AcDbSymbolTableRecord
100
AcDbBlockTableRecord
  2
*U20
340
0
102
{BLKREFS
331
1E6
102
}
 70
     0
280
     1
281
     0
  0
ENDTAB
  0
ENDSEC
  0
SECTION
  2
BLOCKS
  0
BLOCK
  5
389
330
388
100
AcDbEntity
  8
0
100
AcDbBlockBegin
  2
*Model_Space
 70
     0
 10
0.0
 20
0.0
 30
0.0
  3
*Model_Space
  1

  0
ENDBLK
  5
38A
330
388
100
AcDbEntity
  8
0
100
AcDbBlockEnd
  0
BLOCK
  5
44E
330
44C
100
AcDbEntity
 67
     1
  8
0
100
AcDbBlockBegin
  2
*Paper_Space
 70
     0
 10
0.0
 20
0.0
 30
0.0
  3
*Paper_Space
  1

  0
ENDBLK
  5
44F
330
44C
100
AcDbEntity
 67
     1
  8
0
100
AcDbBlockEnd
  0
BLOCK
  5
385
330
384
100
AcDbEntity
  8
0
100
AcDbBlockBegin
  2
*Paper_Space1
 70
     0
 10
0.0
 20
0.0
 30
0.0
  3
*Paper_Space1
  1

  0
VIEWPORT
  5
44A
330
384
100
AcDbEntity
  8
0
100
AcDbViewport
 10
128.5
 20
97.5
 30
0.0
 40
314.226
 41
222.18
 68
     1
 69
     1
 12
128.5
 22
97.5
 13
0.0
 23
0.0
 14
10.0
 24
10.0
 15
10.0
 25
10.0
 16
0.0
 26
0.0
 36
1.0
 17
0.0
 27
0.0
 37
0.0
 42
50.0
 43
0.0
 44
0.0
 45
222.18
 50
0.0
 51
0.0
 72
   100
 90
   557152
  1

281
     0
 71
     1
 74
     0
110
0.0
120
0.0
130
0.0
111
1.0
121
0.0
131
0.0
112
0.0
122
1.0
132
0.0
 79
     0
146
0.0
170
     0
 61
     5
348
398
292
     1
282
     1
141
0.0
142
0.0
 63
   256
361
44B
  0
ENDBLK
  5
386
330
384
100
AcDbEntity
  8
0
100
AcDbBlockEnd
  0
BLOCK
  5
454
330
452
100
AcDbEntity
  8
0
100
AcDbBlockBegin
  2
rough design 01
 70
     2
 10
0.0
 20
0.0
 30
0.0
  3
rough design 01
  1

  0
ATTDEF
  5
11A
330
452
100
AcDbEntity
  8
TitleBlock
100
AcDbText
 10
-7.932122
 20
3.064985
 30
0.0
 40
4.0
  1

  7
textstyle4
 72
     1
 11
-7.932122
 21
3.064985
 31
0.0
100
AcDbAttributeDefinition
  3

  2
SHEET
 70
     0
280
     0
  0
ATTDEF
  5
11B
330
452
100
AcDbEntity
  8
TitleBlock
370
     0
100
AcDbText
 10
-170.865818
 20
3.641704
 30
0.0
 40
2.5
  1

  7
textstyle4
100
AcDbAttributeDefinition
  3

  2
TITLE_1
 70
     0
280
     0
  0
MTEXT
  5
11C
330
452
100
AcDbEntity
  8
TitleBlock
370
     0
100
AcDbMText
 10
-231.53455
 20
6.933953
 30
0.0
 40
3.0
 41
0.0
 46
0.0
 71
     1
 72
     1
  1
{\fSignerica Fat|b0|i0|c0|p0;Wuttichai Saeton }
  7
textstyle4
 73
     1
 44
1.0
  0
MTEXT
  5
11D
330
452
100
AcDbEntity
  8
TitleBlock
370
    25
100
AcDbMText
 10
-390.0
 20
8.554692
 30
0.0
 40
8.0
 41
0.0
 46
0.0
 71
     1
 72
     1
  1
{\fKG Second Chances Sketch|b0|i0|c0|p0;rough\fKG Second Chances Solid|b0|i0|c0|p0;design}
  7
textstyle4
 73
     1
 44
1.0
  0
MTEXT
  5
11E
330
452
100
AcDbEntity
  8
TitleBlock
100
AcDbMText
 10
-321.481528
 20
6.360331
 30
0.0
 40
2.5
 41
0.0
 46
0.0
 71
     1
 72
     1
  1
\A1;{\H0.56x;\S41/76;\H1.42857x; moo 12 Lamlukka pathumthani, 12150,   created by :}                                  title :                                 Part :                                                      sheet :
  7
textstyle4
 73
     1
 44
1.0
  0
LINE
  5
11F
330
452
100
AcDbEntity
  8
TitleBlock
370
    35
100
AcDbLine
 10
-390.0
 20
0.0
 30
0.0
 11
0.0
 21
0.0
 31
0.0
  0
LINE
  5
120
330
452
100
AcDbEntity
  8
TitleBlock
370
    50
100
AcDbLine
 10
0.0
 20
0.0
 30
0.0
 11
-1.0
 21
1.0
 31
0.0
  0
LINE
  5
121
330
452
100
AcDbEntity
  8
TitleBlock
370
    50
100
AcDbLine
 10
0.0
 20
0.0
 30
0.0
 11
-1.0
 21
-1.0
 31
0.0
  0
LWPOLYLINE
  5
122
330
452
100
AcDbEntity
  8
TitleBlock
370
    35
100
AcDbPolyline
 90
        4
 70
     1
 43
0.0
 10
-390.0
 20
0.0
 10
-325.0
 20
0.0
 10
-325.0
 20
-5.0
 10
-390.0
 20
-5.0
  0
LINE
  5
123
330
452
100
AcDbEntity
  8
TitleBlock
370
     0
100
AcDbLine
 10
-390.0
 20
-3.0
 30
0.0
 11
-387.0
 21
0.0
 31
0.0
  0
LINE
  5
124
330
452
100
AcDbEntity
  8
TitleBlock
370
    13
100
AcDbLine
 10
-384.0
 20
0.0
 30
0.0
 11
-389.0
 21
-5.0
 31
0.0
  0
LINE
  5
125
330
452
100
AcDbEntity
  8
TitleBlock
370
     0
100
AcDbLine
 10
-386.0
 20
-5.0
 30
0.0
 11
-381.0
 21
0.0
 31
0.0
  0
LINE
  5
126
330
452
100
AcDbEntity
  8
TitleBlock
370
     0
100
AcDbLine
 10
-378.0
 20
0.0
 30
0.0
 11
-383.0
 21
-5.0
 31
0.0
  0
LINE
  5
127
330
452
100
AcDbEntity
  8
TitleBlock
370
     0
100
AcDbLine
 10
-375.0
 20
0.0
 30
0.0
 11
-380.0
 21
-5.0
 31
0.0
  0
LINE
  5
128
330
452
100
AcDbEntity
  8
TitleBlock
370
     0
100
AcDbLine
 10
-372.0
 20
0.0
 30
0.0
 11
-377.0
 21
-5.0
 31
0.0
  0
LINE
  5
129
330
452
100
AcDbEntity
  8
TitleBlock
370
     0
100
AcDbLine
 10
-374.0
 20
-5.0
 30
0.0
 11
-371.0
 21
-2.0
 31
0.0
  0
LINE
  5
12A
330
452
100
AcDbEntity
  8
TitleBlock
370
     0
100
AcDbLine
 10
-371.0
 20
-5.0
 30
0.0
 11
-368.0
 21
-2.0
 31
0.0
  0
LINE
  5
12B
330
452
100
AcDbEntity
  8
TitleBlock
370
     0
100
AcDbLine
 10
-368.0
 20
-5.0
 30
0.0
 11
-363.0
 21
0.0
 31
0.0
  0
LINE
  5
12C
330
452
100
AcDbEntity
  8
TitleBlock
370
     0
100
AcDbLine
 10
-365.0
 20
-5.0
 30
0.0
 11
-360.0
 21
0.0
 31
0.0
  0
LINE
  5
12D
330
452
100
AcDbEntity
  8
TitleBlock
370
     0
100
AcDbLine
 10
-362.0
 20
-5.0
 30
0.0
 11
-357.0
 21
0.0
 31
0.0
  0
LINE
  5
12E
330
452
100
AcDbEntity
  8
TitleBlock
370
     0
100
AcDbLine
 10
-359.0
 20
-5.0
 30
0.0
 11
-354.0
 21
0.0
 31
0.0
  0
LINE
  5
12F
330
452
100
AcDbEntity
  8
TitleBlock
370
     0
100
AcDbLine
 10
-356.0
 20
-5.0
 30
0.0
 11
-351.0
 21
0.0
 31
0.0
  0
LINE
  5
130
330
452
100
AcDbEntity
  8
TitleBlock
370
     0
100
AcDbLine
 10
-353.0
 20
-5.0
 30
0.0
 11
-348.0
 21
0.0
 31
0.0
  0
LINE
  5
131
330
452
100
AcDbEntity
  8
TitleBlock
370
     0
100
AcDbLine
 10
-350.0
 20
-5.0
 30
0.0
 11
-345.0
 21
0.0
 31
0.0
  0
LINE
  5
132
330
452
100
AcDbEntity
  8
TitleBlock
370
     0
100
AcDbLine
 10
-347.0
 20
-5.0
 30
0.0
 11
-342.0
 21
0.0
 31
0.0
  0
LINE
  5
133
330
452
100
AcDbEntity
  8
TitleBlock
370
     0
100
AcDbLine
 10
-344.0
 20
-5.0
 30
0.0
 11
-339.0
 21
0.0
 31
0.0
  0
LINE
  5
134
330
452
100
AcDbEntity
  8
TitleBlock
370
     0
100
AcDbLine
 10
-341.0
 20
-5.0
 30
0.0
 11
-337.0
 21
-1.0
 31
0.0
  0
LINE
  5
135
330
452
100
AcDbEntity
  8
TitleBlock
370
     0
100
AcDbLine
 10
-338.0
 20
-5.0
 30
0.0
 11
-335.0
 21
-2.0
 31
0.0
  0
LINE
  5
136
330
452
100
AcDbEntity
  8
TitleBlock
370
     0
100
AcDbLine
 10
-335.0
 20
-5.0
 30
0.0
 11
-330.0
 21
0.0
 31
0.0
  0
LINE
  5
137
330
452
100
AcDbEntity
  8
TitleBlock
370
     0
100
AcDbLine
 10
-332.0
 20
-5.0
 30
0.0
 11
-327.0
 21
0.0
 31
0.0
  0
LINE
  5
138
330
452
100
AcDbEntity
  8
TitleBlock
370
     0
100
AcDbLine
 10
-329.0
 20
-5.0
 30
0.0
 11
-325.0
 21
-1.0
 31
0.0
  0
LINE
  5
139
330
452
100
AcDbEntity
  8
TitleBlock
370
     0
100
AcDbLine
 10
-325.0
 20
-4.0
 30
0.0
 11
-326.0
 21
-5.0
 31
0.0
  0
MTEXT
  5
13A
330
452
100
AcDbEntity
  8
TitleBlock
370
     0
100
AcDbMText
 10
-322.0
 20
-1.0
 30
0.0
 40
1.95
 41
0.0
 46
0.0
 71
     1
 72
     1
  1
all design are the property of "rough design" and cannot be used without their written permisstion., all copyrights are the properry of "rough design" and shallbe the completion of work.
  7
textstyle4
 73
     1
 44
1.0
  0
ATTDEF
  5
13B
330
452
100
AcDbEntity
  8
TitleBlock
370
    35
100
AcDbText
 10
-109.871734
 20
3.482412
 30
0.0
 40
4.0
  1

  7
textstyle4
100
AcDbAttributeDefinition
  3

  2
MODEL_PART_NO
 70
     0
280
     0
  0
ENDBLK
  5
455
330
452
100
AcDbEntity
  8
0
100
AcDbBlockEnd
  0
BLOCK
  5
457
330
456
100
AcDbEntity
  8
0
100
AcDbBlockBegin
  2
*T3
 70
     1
 10
0.0
 20
0.0
 30
0.0
  3
*T3
  1

  0
MTEXT
  5
1F4
330
456
100
AcDbEntity
  8
Bend Tables
 62
     0
100
AcDbMText
 10
45.0
 20
-3.733333
 30
0.0
 40
3.5
 41
87.2
 46
0.0
 71
     5
 72
     1
  1
Bend Table
  7
textstyle4
 73
     1
 44
1.0
  0
MTEXT
  5
1F5
330
456
100
AcDbEntity
  8
Bend Tables
 62
     0
100
AcDbMText
 10
10.0
 20
-13.556016
 30
0.0
 40
3.5
 41
17.2
 46
0.0
 71
     5
 72
     1
  1
ID
  7
textstyle4
 73
     1
 44
1.0
  0
MTEXT
  5
1F6
330
456
100
AcDbEntity
  8
Bend Tables
 62
     0
100
AcDbMText
 10
35.0
 20
-13.556016
 30
0.0
 40
3.5
 41
27.2
 46
0.0
 71
     5
 72
     1
  1
Direction
  7
textstyle4
 73
     1
 44
1.0
  0
MTEXT
  5
1F7
330
456
100
AcDbEntity
  8
Bend Tables
 62
     0
100
AcDbMText
 10
60.0
 20
-13.556016
 30
0.0
 40
3.5
 41
17.2
 46
0.0
 71
     5
 72
     1
  1
Angle
  7
textstyle4
 73
     1
 44
1.0
  0
MTEXT
  5
1F8
330
456
100
AcDbEntity
  8
Bend Tables
 62
     0
100
AcDbMText
 10
80.0
 20
-13.556016
 30
0.0
 40
3.5
 41
17.2
 46
0.0
 71
     5
 72
     1
  1
Radius
  7
textstyle4
 73
     1
 44
1.0
  0
MTEXT
  5
1F9
330
456
100
AcDbEntity
  8
Bend Tables
 62
     0
100
AcDbMText
 10
10.0
 20
-21.045366
 30
0.0
 40
3.5
 41
17.2
 46
0.0
 71
     2
 72
     1
  1
1
  7
textstyle4
 73
     1
 44
1.0
  0
MTEXT
  5
1FA
330
456
100
AcDbEntity
  8
Bend Tables
 62
     0
100
AcDbMText
 10
35.0
 20
-21.045366
 30
0.0
 40
3.5
 41
27.2
 46
0.0
 71
     2
 72
     1
  1
Down
  7
textstyle4
 73
     1
 44
1.0
  0
MTEXT
  5
1FB
330
456
100
AcDbEntity
  8
Bend Tables
 62
     0
100
AcDbMText
 10
60.0
 20
-21.045366
 30
0.0
 40
3.5
 41
17.2
 46
0.0
 71
     2
 72
     1
  1
90
  7
textstyle4
 73
     1
 44
1.0
  0
MTEXT
  5
1FC
330
456
100
AcDbEntity
  8
Bend Tables
 62
     0
100
AcDbMText
 10
80.0
 20
-21.045366
 30
0.0
 40
3.5
 41
17.2
 46
0.0
 71
     2
 72
     1
  1
1
  7
textstyle4
 73
     1
 44
1.0
  0
MTEXT
  5
1FD
330
456
100
AcDbEntity
  8
Bend Tables
 62
     0
100
AcDbMText
 10
10.0
 20
-28.512033
 30
0.0
 40
3.5
 41
17.2
 46
0.0
 71
     2
 72
     1
  1
2
  7
textstyle4
 73
     1
 44
1.0
  0
MTEXT
  5
1FE
330
456
100
AcDbEntity
  8
Bend Tables
 62
     0
100
AcDbMText
 10
35.0
 20
-28.512033
 30
0.0
 40
3.5
 41
27.2
 46
0.0
 71
     2
 72
     1
  1
Down
  7
textstyle4
 73
     1
 44
1.0
  0
MTEXT
  5
1FF
330
456
100
AcDbEntity
  8
Bend Tables
 62
     0
100
AcDbMText
 10
60.0
 20
-28.512033
 30
0.0
 40
3.5
 41
17.2
 46
0.0
 71
     2
 72
     1
  1
90
  7
textstyle4
 73
     1
 44
1.0
  0
MTEXT
  5
200
330
456
100
AcDbEntity
  8
Bend Tables
 62
     0
100
AcDbMText
 10
80.0
 20
-28.512033
 30
0.0
 40
3.5
 41
17.2
 46
0.0
 71
     2
 72
     1
  1
1
  7
textstyle4
 73
     1
 44
1.0
  0
MTEXT
  5
201
330
456
100
AcDbEntity
  8
Bend Tables
 62
     0
100
AcDbMText
 10
10.0
 20
-35.9787
 30
0.0
 40
3.5
 41
17.2
 46
0.0
 71
     2
 72
     1
  1
3
  7
textstyle4
 73
     1
 44
1.0
  0
MTEXT
  5
202
330
456
100
AcDbEntity
  8
Bend Tables
 62
     0
100
AcDbMText
 10
35.0
 20
-35.9787
 30
0.0
 40
3.5
 41
27.2
 46
0.0
 71
     2
 72
     1
  1
Down
  7
textstyle4
 73
     1
 44
1.0
  0
MTEXT
  5
203
330
456
100
AcDbEntity
  8
Bend Tables
 62
     0
100
AcDbMText
 10
60.0
 20
-35.9787
 30
0.0
 40
3.5
 41
17.2
 46
0.0
 71
     2
 72
     1
  1
90
  7
textstyle4
 73
     1
 44
1.0
  0
MTEXT
  5
204
330
456
100
AcDbEntity
  8
Bend Tables
 62
     0
100
AcDbMText
 10
80.0
 20
-35.9787
 30
0.0
 40
3.5
 41
17.2
 46
0.0
 71
     2
 72
     1
  1
1
  7
textstyle4
 73
     1
 44
1.0
  0
MTEXT
  5
205
330
456
100
AcDbEntity
  8
Bend Tables
 62
     0
100
AcDbMText
 10
10.0
 20
-43.445366
 30
0.0
 40
3.5
 41
17.2
 46
0.0
 71
     2
 72
     1
  1
4
  7
textstyle4
 73
     1
 44
1.0
  0
MTEXT
  5
206
330
456
100
AcDbEntity
  8
Bend Tables
 62
     0
100
AcDbMText
 10
35.0
 20
-43.445366
 30
0.0
 40
3.5
 41
27.2
 46
0.0
 71
     2
 72
     1
  1
Down
  7
textstyle4
 73
     1
 44
1.0
  0
MTEXT
  5
207
330
456
100
AcDbEntity
  8
Bend Tables
 62
     0
100
AcDbMText
 10
60.0
 20
-43.445366
 30
0.0
 40
3.5
 41
17.2
 46
0.0
 71
     2
 72
     1
  1
90
  7
textstyle4
 73
     1
 44
1.0
  0
MTEXT
  5
208
330
456
100
AcDbEntity
  8
Bend Tables
 62
     0
100
AcDbMText
 10
80.0
 20
-43.445366
 30
0.0
 40
3.5
 41
17.2
 46
0.0
 71
     2
 72
     1
  1
1
  7
textstyle4
 73
     1
 44
1.0
  0
MTEXT
  5
209
330
456
100
AcDbEntity
  8
Bend Tables
 62
     0
100
AcDbMText
 10
10.0
 20
-50.912033
 30
0.0
 40
3.5
 41
17.2
 46
0.0
 71
     2
 72
     1
  1
5
  7
textstyle4
 73
     1
 44
1.0
  0
MTEXT
  5
20A
330
456
100
AcDbEntity
  8
Bend Tables
 62
     0
100
AcDbMText
 10
35.0
 20
-50.912033
 30
0.0
 40
3.5
 41
27.2
 46
0.0
 71
     2
 72
     1
  1
Down
  7
textstyle4
 73
     1
 44
1.0
  0
MTEXT
  5
20B
330
456
100
AcDbEntity
  8
Bend Tables
 62
     0
100
AcDbMText
 10
60.0
 20
-50.912033
 30
0.0
 40
3.5
 41
17.2
 46
0.0
 71
     2
 72
     1
  1
90
  7
textstyle4
 73
     1
 44
1.0
  0
MTEXT
  5
20C
330
456
100
AcDbEntity
  8
Bend Tables
 62
     0
100
AcDbMText
 10
80.0
 20
-50.912033
 30
0.0
 40
3.5
 41
17.2
 46
0.0
 71
     2
 72
     1
  1
1
  7
textstyle4
 73
     1
 44
1.0
  0
MTEXT
  5
20D
330
456
100
AcDbEntity
  8
Bend Tables
 62
     0
100
AcDbMText
 10
10.0
 20
-58.3787
 30
0.0
 40
3.5
 41
17.2
 46
0.0
 71
     2
 72
     1
  1
6
  7
textstyle4
 73
     1
 44
1.0
  0
MTEXT
  5
20E
330
456
100
AcDbEntity
  8
Bend Tables
 62
     0
100
AcDbMText
 10
35.0
 20
-58.3787
 30
0.0
 40
3.5
 41
27.2
 46
0.0
 71
     2
 72
     1
  1
Down
  7
textstyle4
 73
     1
 44
1.0
  0
MTEXT
  5
20F
330
456
100
AcDbEntity
  8
Bend Tables
 62
     0
100
AcDbMText
 10
60.0
 20
-58.3787
 30
0.0
 40
3.5
 41
17.2
 46
0.0
 71
     2
 72
     1
  1
90
  7
textstyle4
 73
     1
 44
1.0
  0
MTEXT
  5
210
330
456
100
AcDbEntity
  8
Bend Tables
 62
     0
100
AcDbMText
 10
80.0
 20
-58.3787
 30
0.0
 40
3.5
 41
17.2
 46
0.0
 71
     2
 72
     1
  1
1
  7
textstyle4
 73
     1
 44
1.0
  0
MTEXT
  5
211
330
456
100
AcDbEntity
  8
Bend Tables
 62
     0
100
AcDbMText
 10
10.0
 20
-65.845366
 30
0.0
 40
3.5
 41
17.2
 46
0.0
 71
     2
 72
     1
  1
7
  7
textstyle4
 73
     1
 44
1.0
  0
MTEXT
  5
212
330
456
100
AcDbEntity
  8
Bend Tables
 62
     0
100
AcDbMText
 10
35.0
 20
-65.845366
 30
0.0
 40
3.5
 41
27.2
 46
0.0
 71
     2
 72
     1
  1
Up
  7
textstyle4
 73
     1
 44
1.0
  0
MTEXT
  5
213
330
456
100
AcDbEntity
  8
Bend Tables
 62
     0
100
AcDbMText
 10
60.0
 20
-65.845366
 30
0.0
 40
3.5
 41
17.2
 46
0.0
 71
     2
 72
     1
  1
90
  7
textstyle4
 73
     1
 44
1.0
  0
MTEXT
  5
214
330
456
100
AcDbEntity
  8
Bend Tables
 62
     0
100
AcDbMText
 10
80.0
 20
-65.845366
 30
0.0
 40
3.5
 41
17.2
 46
0.0
 71
     2
 72
     1
  1
1
  7
textstyle4
 73
     1
 44
1.0
  0
MTEXT
  5
215
330
456
100
AcDbEntity
  8
Bend Tables
 62
     0
100
AcDbMText
 10
10.0
 20
-73.312033
 30
0.0
 40
3.5
 41
17.2
 46
0.0
 71
     2
 72
     1
  1
8
  7
textstyle4
 73
     1
 44
1.0
  0
MTEXT
  5
216
330
456
100
AcDbEntity
  8
Bend Tables
 62
     0
100
AcDbMText
 10
35.0
 20
-73.312033
 30
0.0
 40
3.5
 41
27.2
 46
0.0
 71
     2
 72
     1
  1
Down
  7
textstyle4
 73
     1
 44
1.0
  0
MTEXT
  5
217
330
456
100
AcDbEntity
  8
Bend Tables
 62
     0
100
AcDbMText
 10
60.0
 20
-73.312033
 30
0.0
 40
3.5
 41
17.2
 46
0.0
 71
     2
 72
     1
  1
90
  7
textstyle4
 73
     1
 44
1.0
  0
MTEXT
  5
218
330
456
100
AcDbEntity
  8
Bend Tables
 62
     0
100
AcDbMText
 10
80.0
 20
-73.312033
 30
0.0
 40
3.5
 41
17.2
 46
0.0
 71
     2
 72
     1
  1
1
  7
textstyle4
 73
     1
 44
1.0
  0
MTEXT
  5
219
330
456
100
AcDbEntity
  8
Bend Tables
 62
     0
100
AcDbMText
 10
10.0
 20
-80.7787
 30
0.0
 40
3.5
 41
17.2
 46
0.0
 71
     2
 72
     1
  1
9
  7
textstyle4
 73
     1
 44
1.0
  0
MTEXT
  5
21A
330
456
100
AcDbEntity
  8
Bend Tables
 62
     0
100
AcDbMText
 10
35.0
 20
-80.7787
 30
0.0
 40
3.5
 41
27.2
 46
0.0
 71
     2
 72
     1
  1
Down
  7
textstyle4
 73
     1
 44
1.0
  0
MTEXT
  5
21B
330
456
100
AcDbEntity
  8
Bend Tables
 62
     0
100
AcDbMText
 10
60.0
 20
-80.7787
 30
0.0
 40
3.5
 41
17.2
 46
0.0
 71
     2
 72
     1
  1
90
  7
textstyle4
 73
     1
 44
1.0
  0
MTEXT
  5
21C
330
456
100
AcDbEntity
  8
Bend Tables
 62
     0
100
AcDbMText
 10
80.0
 20
-80.7787
 30
0.0
 40
3.5
 41
17.2
 46
0.0
 71
     2
 72
     1
  1
1
  7
textstyle4
 73
     1
 44
1.0
  0
LINE
  5
21D
330
456
100
AcDbEntity
  8
Bend Tables
  6
ByBlock
 62
     0
370
    -2
100
AcDbLine
 10
0.0
 20
0.0
 30
0.0
 11
90.0
 21
0.0
 31
0.0
  0
LINE
  5
21E
330
456
100
AcDbEntity
  8
Bend Tables
  6
ByBlock
 62
     0
370
    -2
100
AcDbLine
 10
0.0
 20
-7.466667
 30
0.0
 11
90.0
 21
-7.466667
 31
0.0
  0
LINE
  5
21F
330
456
100
AcDbEntity
  8
Bend Tables
  6
ByBlock
 62
     0
370
    -2
100
AcDbLine
 10
0.0
 20
-19.645366
 30
0.0
 11
90.0
 21
-19.645366
 31
0.0
  0
LINE
  5
220
330
456
100
AcDbEntity
  8
Bend Tables
  6
ByBlock
 62
     0
370
    -2
100
AcDbLine
 10
0.0
 20
-27.112033
 30
0.0
 11
90.0
 21
-27.112033
 31
0.0
  0
LINE
  5
221
330
456
100
AcDbEntity
  8
Bend Tables
  6
ByBlock
 62
     0
370
    -2
100
AcDbLine
 10
0.0
 20
-34.5787
 30
0.0
 11
90.0
 21
-34.5787
 31
0.0
  0
LINE
  5
222
330
456
100
AcDbEntity
  8
Bend Tables
  6
ByBlock
 62
     0
370
    -2
100
AcDbLine
 10
0.0
 20
-42.045366
 30
0.0
 11
90.0
 21
-42.045366
 31
0.0
  0
LINE
  5
223
330
456
100
AcDbEntity
  8
Bend Tables
  6
ByBlock
 62
     0
370
    -2
100
AcDbLine
 10
0.0
 20
-49.512033
 30
0.0
 11
90.0
 21
-49.512033
 31
0.0
  0
LINE
  5
224
330
456
100
AcDbEntity
  8
Bend Tables
  6
ByBlock
 62
     0
370
    -2
100
AcDbLine
 10
0.0
 20
-56.9787
 30
0.0
 11
90.0
 21
-56.9787
 31
0.0
  0
LINE
  5
225
330
456
100
AcDbEntity
  8
Bend Tables
  6
ByBlock
 62
     0
370
    -2
100
AcDbLine
 10
0.0
 20
-64.445366
 30
0.0
 11
90.0
 21
-64.445366
 31
0.0
  0
LINE
  5
226
330
456
100
AcDbEntity
  8
Bend Tables
  6
ByBlock
 62
     0
370
    -2
100
AcDbLine
 10
0.0
 20
-71.912033
 30
0.0
 11
90.0
 21
-71.912033
 31
0.0
  0
LINE
  5
227
330
456
100
AcDbEntity
  8
Bend Tables
  6
ByBlock
 62
     0
370
    -2
100
AcDbLine
 10
0.0
 20
-79.3787
 30
0.0
 11
90.0
 21
-79.3787
 31
0.0
  0
LINE
  5
228
330
456
100
AcDbEntity
  8
Bend Tables
  6
ByBlock
 62
     0
370
    -2
100
AcDbLine
 10
0.0
 20
-86.845366
 30
0.0
 11
90.0
 21
-86.845366
 31
0.0
  0
LINE
  5
229
330
456
100
AcDbEntity
  8
Bend Tables
  6
ByBlock
 62
     0
370
    -2
100
AcDbLine
 10
0.0
 20
0.0
 30
0.0
 11
0.0
 21
-86.845366
 31
0.0
  0
LINE
  5
22A
330
456
100
AcDbEntity
  8
Bend Tables
  6
ByBlock
 62
     0
370
    -2
100
AcDbLine
 10
20.0
 20
-7.466667
 30
0.0
 11
20.0
 21
-86.845366
 31
0.0
  0
LINE
  5
22B
330
456
100
AcDbEntity
  8
Bend Tables
  6
ByBlock
 62
     0
370
    -2
100
AcDbLine
 10
50.0
 20
-7.466667
 30
0.0
 11
50.0
 21
-86.845366
 31
0.0
  0
LINE
  5
22C
330
456
100
AcDbEntity
  8
Bend Tables
  6
ByBlock
 62
     0
370
    -2
100
AcDbLine
 10
70.0
 20
-7.466667
 30
0.0
 11
70.0
 21
-86.845366
 31
0.0
  0
LINE
  5
22D
330
456
100
AcDbEntity
  8
Bend Tables
  6
ByBlock
 62
     0
370
    -2
100
AcDbLine
 10
90.0
 20
0.0
 30
0.0
 11
90.0
 21
-86.845366
 31
0.0
  0
LINE
  5
22E
330
456
100
AcDbEntity
  8
Defpoints
 62
     8
370
     0
100
AcDbLine
 10
0.0
 20
0.0
 30
0.0
 11
0.0
 21
0.0
 31
0.0
  0
ENDBLK
  5
458
330
456
100
AcDbEntity
  8
0
100
AcDbBlockEnd
  0
BLOCK
  5
45A
330
459
100
AcDbEntity
  8
0
100
AcDbBlockBegin
  2
*U4
 70
     1
 10
0.0
 20
0.0
 30
0.0
  3
*U4
  1

  0
LINE
  5
149
330
459
100
AcDbEntity
  8
Smart Centers
  6
Continuous
 62
     0
 48
0.75
100
AcDbLine
 10
-0.892969
 20
0.0
 30
0.0
 11
0.892969
 21
0.0
 31
0.0
  0
LINE
  5
14A
330
459
100
AcDbEntity
  8
Smart Centers
  6
Continuous
 62
     0
 48
0.75
100
AcDbLine
 10
0.0
 20
-0.892969
 30
0.0
 11
0.0
 21
0.892969
 31
0.0
  0
LINE
  5
14B
330
459
100
AcDbEntity
  8
Smart Centers
 62
     0
 48
0.75
100
AcDbLine
 10
-3.925
 20
0.0
 30
0.0
 11
-2.678906
 21
0.0
 31
0.0
  0
LINE
  5
14C
330
459
100
AcDbEntity
  8
Smart Centers
 62
     0
 48
0.75
100
AcDbLine
 10
2.678906
 20
0.0
 30
0.0
 11
3.925
 21
0.0
 31
0.0
  0
LINE
  5
14D
330
459
100
AcDbEntity
  8
Smart Centers
 62
     0
 48
0.75
100
AcDbLine
 10
0.0
 20
-3.925
 30
0.0
 11
0.0
 21
-2.678906
 31
0.0
  0
LINE
  5
14E
330
459
100
AcDbEntity
  8
Smart Centers
 62
     0
 48
0.75
100
AcDbLine
 10
0.0
 20
2.678906
 30
0.0
 11
0.0
 21
3.925
 31
0.0
  0
ENDBLK
  5
45B
330
459
100
AcDbEntity
  8
0
100
AcDbBlockEnd
  0
BLOCK
  5
45D
330
45C
100
AcDbEntity
  8
0
100
AcDbBlockBegin
  2
*U5
 70
     1
 10
0.0
 20
0.0
 30
0.0
  3
*U5
  1

  0
LINE
  5
153
330
45C
100
AcDbEntity
  8
Smart Centers
  6
Continuous
 62
     0
 48
0.75
100
AcDbLine
 10
-0.892969
 20
0.0
 30
0.0
 11
0.892969
 21
0.0
 31
0.0
  0
LINE
  5
154
330
45C
100
AcDbEntity
  8
Smart Centers
  6
Continuous
 62
     0
 48
0.75
100
AcDbLine
 10
0.0
 20
-0.892969
 30
0.0
 11
0.0
 21
0.892969
 31
0.0
  0
LINE
  5
155
330
45C
100
AcDbEntity
  8
Smart Centers
 62
     0
 48
0.75
100
AcDbLine
 10
-3.925
 20
0.0
 30
0.0
 11
-2.678906
 21
0.0
 31
0.0
  0
LINE
  5
156
330
45C
100
AcDbEntity
  8
Smart Centers
 62
     0
 48
0.75
100
AcDbLine
 10
2.678906
 20
0.0
 30
0.0
 11
3.925
 21
0.0
 31
0.0
  0
LINE
  5
157
330
45C
100
AcDbEntity
  8
Smart Centers
 62
     0
 48
0.75
100
AcDbLine
 10
0.0
 20
-3.925
 30
0.0
 11
0.0
 21
-2.678906
 31
0.0
  0
LINE
  5
158
330
45C
100
AcDbEntity
  8
Smart Centers
 62
     0
 48
0.75
100
AcDbLine
 10
0.0
 20
2.678906
 30
0.0
 11
0.0
 21
3.925
 31
0.0
  0
ENDBLK
  5
45E
330
45C
100
AcDbEntity
  8
0
100
AcDbBlockEnd
  0
BLOCK
  5
460
330
45F
100
AcDbEntity
  8
0
100
AcDbBlockBegin
  2
*U6
 70
     1
 10
0.0
 20
0.0
 30
0.0
  3
*U6
  1

  0
LINE
  5
15D
330
45F
100
AcDbEntity
  8
Smart Centers
  6
Continuous
 62
     0
 48
0.75
100
AcDbLine
 10
-0.892969
 20
0.0
 30
0.0
 11
0.892969
 21
0.0
 31
0.0
  0
LINE
  5
15E
330
45F
100
AcDbEntity
  8
Smart Centers
  6
Continuous
 62
     0
 48
0.75
100
AcDbLine
 10
0.0
 20
-0.892969
 30
0.0
 11
0.0
 21
0.892969
 31
0.0
  0
LINE
  5
15F
330
45F
100
AcDbEntity
  8
Smart Centers
 62
     0
 48
0.75
100
AcDbLine
 10
-3.925
 20
0.0
 30
0.0
 11
-2.678906
 21
0.0
 31
0.0
  0
LINE
  5
160
330
45F
100
AcDbEntity
  8
Smart Centers
 62
     0
 48
0.75
100
AcDbLine
 10
2.678906
 20
0.0
 30
0.0
 11
3.925
 21
0.0
 31
0.0
  0
LINE
  5
161
330
45F
100
AcDbEntity
  8
Smart Centers
 62
     0
 48
0.75
100
AcDbLine
 10
0.0
 20
-3.925
 30
0.0
 11
0.0
 21
-2.678906
 31
0.0
  0
LINE
  5
162
330
45F
100
AcDbEntity
  8
Smart Centers
 62
     0
 48
0.75
100
AcDbLine
 10
0.0
 20
2.678906
 30
0.0
 11
0.0
 21
3.925
 31
0.0
  0
ENDBLK
  5
461
330
45F
100
AcDbEntity
  8
0
100
AcDbBlockEnd
  0
BLOCK
  5
463
330
462
100
AcDbEntity
  8
0
100
AcDbBlockBegin
  2
*U7
 70
     1
 10
0.0
 20
0.0
 30
0.0
  3
*U7
  1

  0
LINE
  5
167
330
462
100
AcDbEntity
  8
Smart Centers
  6
Continuous
 62
     0
 48
0.75
100
AcDbLine
 10
-0.892969
 20
0.0
 30
0.0
 11
0.892969
 21
0.0
 31
0.0
  0
LINE
  5
168
330
462
100
AcDbEntity
  8
Smart Centers
  6
Continuous
 62
     0
 48
0.75
100
AcDbLine
 10
0.0
 20
-0.892969
 30
0.0
 11
0.0
 21
0.892969
 31
0.0
  0
LINE
  5
169
330
462
100
AcDbEntity
  8
Smart Centers
 62
     0
 48
0.75
100
AcDbLine
 10
-3.925
 20
0.0
 30
0.0
 11
-2.678906
 21
0.0
 31
0.0
  0
LINE
  5
16A
330
462
100
AcDbEntity
  8
Smart Centers
 62
     0
 48
0.75
100
AcDbLine
 10
2.678906
 20
0.0
 30
0.0
 11
3.925
 21
0.0
 31
0.0
  0
LINE
  5
16B
330
462
100
AcDbEntity
  8
Smart Centers
 62
     0
 48
0.75
100
AcDbLine
 10
0.0
 20
-3.925
 30
0.0
 11
0.0
 21
-2.678906
 31
0.0
  0
LINE
  5
16C
330
462
100
AcDbEntity
  8
Smart Centers
 62
     0
 48
0.75
100
AcDbLine
 10
0.0
 20
2.678906
 30
0.0
 11
0.0
 21
3.925
 31
0.0
  0
ENDBLK
  5
464
330
462
100
AcDbEntity
  8
0
100
AcDbBlockEnd
  0
BLOCK
  5
466
330
465
100
AcDbEntity
  8
0
100
AcDbBlockBegin
  2
*U8
 70
     1
 10
0.0
 20
0.0
 30
0.0
  3
*U8
  1

  0
LINE
  5
171
330
465
100
AcDbEntity
  8
Smart Centers
  6
Continuous
 62
     0
 48
0.75
100
AcDbLine
 10
-0.892969
 20
0.0
 30
0.0
 11
0.892969
 21
0.0
 31
0.0
  0
LINE
  5
172
330
465
100
AcDbEntity
  8
Smart Centers
  6
Continuous
 62
     0
 48
0.75
100
AcDbLine
 10
0.0
 20
-0.892969
 30
0.0
 11
0.0
 21
0.892969
 31
0.0
  0
LINE
  5
173
330
465
100
AcDbEntity
  8
Smart Centers
 62
     0
 48
0.75
100
AcDbLine
 10
-3.925
 20
0.0
 30
0.0
 11
-2.678906
 21
0.0
 31
0.0
  0
LINE
  5
174
330
465
100
AcDbEntity
  8
Smart Centers
 62
     0
 48
0.75
100
AcDbLine
 10
2.678906
 20
0.0
 30
0.0
 11
3.925
 21
0.0
 31
0.0
  0
LINE
  5
175
330
465
100
AcDbEntity
  8
Smart Centers
 62
     0
 48
0.75
100
AcDbLine
 10
0.0
 20
-3.925
 30
0.0
 11
0.0
 21
-2.678906
 31
0.0
  0
LINE
  5
176
330
465
100
AcDbEntity
  8
Smart Centers
 62
     0
 48
0.75
100
AcDbLine
 10
0.0
 20
2.678906
 30
0.0
 11
0.0
 21
3.925
 31
0.0
  0
ENDBLK
  5
467
330
465
100
AcDbEntity
  8
0
100
AcDbBlockEnd
  0
BLOCK
  5
469
330
468
100
AcDbEntity
  8
0
100
AcDbBlockBegin
  2
*U9
 70
     1
 10
0.0
 20
0.0
 30
0.0
  3
*U9
  1

  0
LINE
  5
17B
330
468
100
AcDbEntity
  8
Smart Centers
  6
Continuous
 62
     0
 48
0.75
100
AcDbLine
 10
-0.892969
 20
0.0
 30
0.0
 11
0.892969
 21
0.0
 31
0.0
  0
LINE
  5
17C
330
468
100
AcDbEntity
  8
Smart Centers
  6
Continuous
 62
     0
 48
0.75
100
AcDbLine
 10
0.0
 20
-0.892969
 30
0.0
 11
0.0
 21
0.892969
 31
0.0
  0
LINE
  5
17D
330
468
100
AcDbEntity
  8
Smart Centers
 62
     0
 48
0.75
100
AcDbLine
 10
-3.925
 20
0.0
 30
0.0
 11
-2.678906
 21
0.0
 31
0.0
  0
LINE
  5
17E
330
468
100
AcDbEntity
  8
Smart Centers
 62
     0
 48
0.75
100
AcDbLine
 10
2.678906
 20
0.0
 30
0.0
 11
3.925
 21
0.0
 31
0.0
  0
LINE
  5
17F
330
468
100
AcDbEntity
  8
Smart Centers
 62
     0
 48
0.75
100
AcDbLine
 10
0.0
 20
-3.925
 30
0.0
 11
0.0
 21
-2.678906
 31
0.0
  0
LINE
  5
180
330
468
100
AcDbEntity
  8
Smart Centers
 62
     0
 48
0.75
100
AcDbLine
 10
0.0
 20
2.678906
 30
0.0
 11
0.0
 21
3.925
 31
0.0
  0
ENDBLK
  5
46A
330
468
100
AcDbEntity
  8
0
100
AcDbBlockEnd
  0
BLOCK
  5
46C
330
46B
100
AcDbEntity
  8
0
100
AcDbBlockBegin
  2
*U10
 70
     1
 10
0.0
 20
0.0
 30
0.0
  3
*U10
  1

  0
LINE
  5
185
330
46B
100
AcDbEntity
  8
Smart Centers
  6
Continuous
 62
     0
 48
0.75
100
AcDbLine
 10
-0.892969
 20
0.0
 30
0.0
 11
0.892969
 21
0.0
 31
0.0
  0
LINE
  5
186
330
46B
100
AcDbEntity
  8
Smart Centers
  6
Continuous
 62
     0
 48
0.75
100
AcDbLine
 10
0.0
 20
-0.892969
 30
0.0
 11
0.0
 21
0.892969
 31
0.0
  0
LINE
  5
187
330
46B
100
AcDbEntity
  8
Smart Centers
 62
     0
 48
0.75
100
AcDbLine
 10
-3.925
 20
0.0
 30
0.0
 11
-2.678906
 21
0.0
 31
0.0
  0
LINE
  5
188
330
46B
100
AcDbEntity
  8
Smart Centers
 62
     0
 48
0.75
100
AcDbLine
 10
2.678906
 20
0.0
 30
0.0
 11
3.925
 21
0.0
 31
0.0
  0
LINE
  5
189
330
46B
100
AcDbEntity
  8
Smart Centers
 62
     0
 48
0.75
100
AcDbLine
 10
0.0
 20
-3.925
 30
0.0
 11
0.0
 21
-2.678906
 31
0.0
  0
LINE
  5
18A
330
46B
100
AcDbEntity
  8
Smart Centers
 62
     0
 48
0.75
100
AcDbLine
 10
0.0
 20
2.678906
 30
0.0
 11
0.0
 21
3.925
 31
0.0
  0
ENDBLK
  5
46D
330
46B
100
AcDbEntity
  8
0
100
AcDbBlockEnd
  0
BLOCK
  5
46F
330
46E
100
AcDbEntity
  8
0
100
AcDbBlockBegin
  2
*U11
 70
     1
 10
0.0
 20
0.0
 30
0.0
  3
*U11
  1

  0
LINE
  5
18F
330
46E
100
AcDbEntity
  8
Smart Centers
  6
Continuous
 62
     0
 48
0.75
100
AcDbLine
 10
-0.892969
 20
0.0
 30
0.0
 11
0.892969
 21
0.0
 31
0.0
  0
LINE
  5
190
330
46E
100
AcDbEntity
  8
Smart Centers
  6
Continuous
 62
     0
 48
0.75
100
AcDbLine
 10
0.0
 20
-0.892969
 30
0.0
 11
0.0
 21
0.892969
 31
0.0
  0
LINE
  5
191
330
46E
100
AcDbEntity
  8
Smart Centers
 62
     0
 48
0.75
100
AcDbLine
 10
-3.925
 20
0.0
 30
0.0
 11
-2.678906
 21
0.0
 31
0.0
  0
LINE
  5
192
330
46E
100
AcDbEntity
  8
Smart Centers
 62
     0
 48
0.75
100
AcDbLine
 10
2.678906
 20
0.0
 30
0.0
 11
3.925
 21
0.0
 31
0.0
  0
LINE
  5
193
330
46E
100
AcDbEntity
  8
Smart Centers
 62
     0
 48
0.75
100
AcDbLine
 10
0.0
 20
-3.925
 30
0.0
 11
0.0
 21
-2.678906
 31
0.0
  0
LINE
  5
194
330
46E
100
AcDbEntity
  8
Smart Centers
 62
     0
 48
0.75
100
AcDbLine
 10
0.0
 20
2.678906
 30
0.0
 11
0.0
 21
3.925
 31
0.0
  0
ENDBLK
  5
470
330
46E
100
AcDbEntity
  8
0
100
AcDbBlockEnd
  0
BLOCK
  5
472
330
471
100
AcDbEntity
  8
0
100
AcDbBlockBegin
  2
*U12
 70
     1
 10
0.0
 20
0.0
 30
0.0
  3
*U12
  1

  0
LINE
  5
199
330
471
100
AcDbEntity
  8
Smart Centers
  6
Continuous
 62
     0
 48
0.75
100
AcDbLine
 10
-0.892969
 20
0.0
 30
0.0
 11
0.892969
 21
0.0
 31
0.0
  0
LINE
  5
19A
330
471
100
AcDbEntity
  8
Smart Centers
  6
Continuous
 62
     0
 48
0.75
100
AcDbLine
 10
0.0
 20
-0.892969
 30
0.0
 11
0.0
 21
0.892969
 31
0.0
  0
LINE
  5
19B
330
471
100
AcDbEntity
  8
Smart Centers
 62
     0
 48
0.75
100
AcDbLine
 10
-3.925
 20
0.0
 30
0.0
 11
-2.678906
 21
0.0
 31
0.0
  0
LINE
  5
19C
330
471
100
AcDbEntity
  8
Smart Centers
 62
     0
 48
0.75
100
AcDbLine
 10
2.678906
 20
0.0
 30
0.0
 11
3.925
 21
0.0
 31
0.0
  0
LINE
  5
19D
330
471
100
AcDbEntity
  8
Smart Centers
 62
     0
 48
0.75
100
AcDbLine
 10
0.0
 20
-3.925
 30
0.0
 11
0.0
 21
-2.678906
 31
0.0
  0
LINE
  5
19E
330
471
100
AcDbEntity
  8
Smart Centers
 62
     0
 48
0.75
100
AcDbLine
 10
0.0
 20
2.678906
 30
0.0
 11
0.0
 21
3.925
 31
0.0
  0
ENDBLK
  5
473
330
471
100
AcDbEntity
  8
0
100
AcDbBlockEnd
  0
BLOCK
  5
475
330
474
100
AcDbEntity
  8
0
100
AcDbBlockBegin
  2
*U13
 70
     1
 10
0.0
 20
0.0
 30
0.0
  3
*U13
  1

  0
LINE
  5
1A3
330
474
100
AcDbEntity
  8
Smart Centers
  6
Continuous
 62
     0
 48
0.75
100
AcDbLine
 10
-0.892969
 20
0.0
 30
0.0
 11
0.892969
 21
0.0
 31
0.0
  0
LINE
  5
1A4
330
474
100
AcDbEntity
  8
Smart Centers
  6
Continuous
 62
     0
 48
0.75
100
AcDbLine
 10
0.0
 20
-0.892969
 30
0.0
 11
0.0
 21
0.892969
 31
0.0
  0
LINE
  5
1A5
330
474
100
AcDbEntity
  8
Smart Centers
 62
     0
 48
0.75
100
AcDbLine
 10
-3.925
 20
0.0
 30
0.0
 11
-2.678906
 21
0.0
 31
0.0
  0
LINE
  5
1A6
330
474
100
AcDbEntity
  8
Smart Centers
 62
     0
 48
0.75
100
AcDbLine
 10
2.678906
 20
0.0
 30
0.0
 11
3.925
 21
0.0
 31
0.0
  0
LINE
  5
1A7
330
474
100
AcDbEntity
  8
Smart Centers
 62
     0
 48
0.75
100
AcDbLine
 10
0.0
 20
-3.925
 30
0.0
 11
0.0
 21
-2.678906
 31
0.0
  0
LINE
  5
1A8
330
474
100
AcDbEntity
  8
Smart Centers
 62
     0
 48
0.75
100
AcDbLine
 10
0.0
 20
2.678906
 30
0.0
 11
0.0
 21
3.925
 31
0.0
  0
ENDBLK
  5
476
330
474
100
AcDbEntity
  8
0
100
AcDbBlockEnd
  0
BLOCK
  5
478
330
477
100
AcDbEntity
  8
0
100
AcDbBlockBegin
  2
*U14
 70
     1
 10
0.0
 20
0.0
 30
0.0
  3
*U14
  1

  0
LINE
  5
1AD
330
477
100
AcDbEntity
  8
Smart Centers
  6
Continuous
 62
     0
 48
0.75
100
AcDbLine
 10
-0.892969
 20
0.0
 30
0.0
 11
0.892969
 21
0.0
 31
0.0
  0
LINE
  5
1AE
330
477
100
AcDbEntity
  8
Smart Centers
  6
Continuous
 62
     0
 48
0.75
100
AcDbLine
 10
0.0
 20
-0.892969
 30
0.0
 11
0.0
 21
0.892969
 31
0.0
  0
LINE
  5
1AF
330
477
100
AcDbEntity
  8
Smart Centers
 62
     0
 48
0.75
100
AcDbLine
 10
-3.925
 20
0.0
 30
0.0
 11
-2.678906
 21
0.0
 31
0.0
  0
LINE
  5
1B0
330
477
100
AcDbEntity
  8
Smart Centers
 62
     0
 48
0.75
100
AcDbLine
 10
2.678906
 20
0.0
 30
0.0
 11
3.925
 21
0.0
 31
0.0
  0
LINE
  5
1B1
330
477
100
AcDbEntity
  8
Smart Centers
 62
     0
 48
0.75
100
AcDbLine
 10
0.0
 20
-3.925
 30
0.0
 11
0.0
 21
-2.678906
 31
0.0
  0
LINE
  5
1B2
330
477
100
AcDbEntity
  8
Smart Centers
 62
     0
 48
0.75
100
AcDbLine
 10
0.0
 20
2.678906
 30
0.0
 11
0.0
 21
3.925
 31
0.0
  0
ENDBLK
  5
479
330
477
100
AcDbEntity
  8
0
100
AcDbBlockEnd
  0
BLOCK
  5
47B
330
47A
100
AcDbEntity
  8
0
100
AcDbBlockBegin
  2
*U15
 70
     1
 10
0.0
 20
0.0
 30
0.0
  3
*U15
  1

  0
LINE
  5
1B7
330
47A
100
AcDbEntity
  8
Smart Centers
  6
Continuous
 62
     0
 48
0.75
100
AcDbLine
 10
-0.892969
 20
0.0
 30
0.0
 11
0.892969
 21
0.0
 31
0.0
  0
LINE
  5
1B8
330
47A
100
AcDbEntity
  8
Smart Centers
  6
Continuous
 62
     0
 48
0.75
100
AcDbLine
 10
0.0
 20
-0.892969
 30
0.0
 11
0.0
 21
0.892969
 31
0.0
  0
LINE
  5
1B9
330
47A
100
AcDbEntity
  8
Smart Centers
 62
     0
 48
0.75
100
AcDbLine
 10
-3.925
 20
0.0
 30
0.0
 11
-2.678906
 21
0.0
 31
0.0
  0
LINE
  5
1BA
330
47A
100
AcDbEntity
  8
Smart Centers
 62
     0
 48
0.75
100
AcDbLine
 10
2.678906
 20
0.0
 30
0.0
 11
3.925
 21
0.0
 31
0.0
  0
LINE
  5
1BB
330
47A
100
AcDbEntity
  8
Smart Centers
 62
     0
 48
0.75
100
AcDbLine
 10
0.0
 20
-3.925
 30
0.0
 11
0.0
 21
-2.678906
 31
0.0
  0
LINE
  5
1BC
330
47A
100
AcDbEntity
  8
Smart Centers
 62
     0
 48
0.75
100
AcDbLine
 10
0.0
 20
2.678906
 30
0.0
 11
0.0
 21
3.925
 31
0.0
  0
ENDBLK
  5
47C
330
47A
100
AcDbEntity
  8
0
100
AcDbBlockEnd
  0
BLOCK
  5
47E
330
47D
100
AcDbEntity
  8
0
100
AcDbBlockBegin
  2
*U16
 70
     1
 10
0.0
 20
0.0
 30
0.0
  3
*U16
  1

  0
LINE
  5
1C1
330
47D
100
AcDbEntity
  8
Smart Centers
  6
Continuous
 62
     0
 48
0.75
100
AcDbLine
 10
-0.892969
 20
0.0
 30
0.0
 11
0.892969
 21
0.0
 31
0.0
  0
LINE
  5
1C2
330
47D
100
AcDbEntity
  8
Smart Centers
  6
Continuous
 62
     0
 48
0.75
100
AcDbLine
 10
0.0
 20
-0.892969
 30
0.0
 11
0.0
 21
0.892969
 31
0.0
  0
LINE
  5
1C3
330
47D
100
AcDbEntity
  8
Smart Centers
 62
     0
 48
0.75
100
AcDbLine
 10
-3.925
 20
0.0
 30
0.0
 11
-2.678906
 21
0.0
 31
0.0
  0
LINE
  5
1C4
330
47D
100
AcDbEntity
  8
Smart Centers
 62
     0
 48
0.75
100
AcDbLine
 10
2.678906
 20
0.0
 30
0.0
 11
3.925
 21
0.0
 31
0.0
  0
LINE
  5
1C5
330
47D
100
AcDbEntity
  8
Smart Centers
 62
     0
 48
0.75
100
AcDbLine
 10
0.0
 20
-3.925
 30
0.0
 11
0.0
 21
-2.678906
 31
0.0
  0
LINE
  5
1C6
330
47D
100
AcDbEntity
  8
Smart Centers
 62
     0
 48
0.75
100
AcDbLine
 10
0.0
 20
2.678906
 30
0.0
 11
0.0
 21
3.925
 31
0.0
  0
ENDBLK
  5
47F
330
47D
100
AcDbEntity
  8
0
100
AcDbBlockEnd
  0
BLOCK
  5
481
330
480
100
AcDbEntity
  8
0
100
AcDbBlockBegin
  2
*U17
 70
     1
 10
0.0
 20
0.0
 30
0.0
  3
*U17
  1

  0
LINE
  5
1CB
330
480
100
AcDbEntity
  8
Smart Centers
  6
Continuous
 62
     0
 48
0.75
100
AcDbLine
 10
-0.892969
 20
0.0
 30
0.0
 11
0.892969
 21
0.0
 31
0.0
  0
LINE
  5
1CC
330
480
100
AcDbEntity
  8
Smart Centers
  6
Continuous
 62
     0
 48
0.75
100
AcDbLine
 10
0.0
 20
-0.892969
 30
0.0
 11
0.0
 21
0.892969
 31
0.0
  0
LINE
  5
1CD
330
480
100
AcDbEntity
  8
Smart Centers
 62
     0
 48
0.75
100
AcDbLine
 10
-3.925
 20
0.0
 30
0.0
 11
-2.678906
 21
0.0
 31
0.0
  0
LINE
  5
1CE
330
480
100
AcDbEntity
  8
Smart Centers
 62
     0
 48
0.75
100
AcDbLine
 10
2.678906
 20
0.0
 30
0.0
 11
3.925
 21
0.0
 31
0.0
  0
LINE
  5
1CF
330
480
100
AcDbEntity
  8
Smart Centers
 62
     0
 48
0.75
100
AcDbLine
 10
0.0
 20
-3.925
 30
0.0
 11
0.0
 21
-2.678906
 31
0.0
  0
LINE
  5
1D0
330
480
100
AcDbEntity
  8
Smart Centers
 62
     0
 48
0.75
100
AcDbLine
 10
0.0
 20
2.678906
 30
0.0
 11
0.0
 21
3.925
 31
0.0
  0
ENDBLK
  5
482
330
480
100
AcDbEntity
  8
0
100
AcDbBlockEnd
  0
BLOCK
  5
484
330
483
100
AcDbEntity
  8
0
100
AcDbBlockBegin
  2
*U18
 70
     1
 10
0.0
 20
0.0
 30
0.0
  3
*U18
  1

  0
LINE
  5
1D5
330
483
100
AcDbEntity
  8
Smart Centers
  6
Continuous
 62
     0
 48
0.75
100
AcDbLine
 10
-0.892969
 20
0.0
 30
0.0
 11
0.892969
 21
0.0
 31
0.0
  0
LINE
  5
1D6
330
483
100
AcDbEntity
  8
Smart Centers
  6
Continuous
 62
     0
 48
0.75
100
AcDbLine
 10
0.0
 20
-0.892969
 30
0.0
 11
0.0
 21
0.892969
 31
0.0
  0
LINE
  5
1D7
330
483
100
AcDbEntity
  8
Smart Centers
 62
     0
 48
0.75
100
AcDbLine
 10
-3.925
 20
0.0
 30
0.0
 11
-2.678906
 21
0.0
 31
0.0
  0
LINE
  5
1D8
330
483
100
AcDbEntity
  8
Smart Centers
 62
     0
 48
0.75
100
AcDbLine
 10
2.678906
 20
0.0
 30
0.0
 11
3.925
 21
0.0
 31
0.0
  0
LINE
  5
1D9
330
483
100
AcDbEntity
  8
Smart Centers
 62
     0
 48
0.75
100
AcDbLine
 10
0.0
 20
-3.925
 30
0.0
 11
0.0
 21
-2.678906
 31
0.0
  0
LINE
  5
1DA
330
483
100
AcDbEntity
  8
Smart Centers
 62
     0
 48
0.75
100
AcDbLine
 10
0.0
 20
2.678906
 30
0.0
 11
0.0
 21
3.925
 31
0.0
  0
ENDBLK
  5
485
330
483
100
AcDbEntity
  8
0
100
AcDbBlockEnd
  0
BLOCK
  5
487
330
486
100
AcDbEntity
  8
0
100
AcDbBlockBegin
  2
*U19
 70
     1
 10
0.0
 20
0.0
 30
0.0
  3
*U19
  1

  0
LINE
  5
1DF
330
486
100
AcDbEntity
  8
Smart Centers
  6
Continuous
 62
     0
 48
0.75
100
AcDbLine
 10
-0.892969
 20
0.0
 30
0.0
 11
0.892969
 21
0.0
 31
0.0
  0
LINE
  5
1E0
330
486
100
AcDbEntity
  8
Smart Centers
  6
Continuous
 62
     0
 48
0.75
100
AcDbLine
 10
0.0
 20
-0.892969
 30
0.0
 11
0.0
 21
0.892969
 31
0.0
  0
LINE
  5
1E1
330
486
100
AcDbEntity
  8
Smart Centers
 62
     0
 48
0.75
100
AcDbLine
 10
-3.925
 20
0.0
 30
0.0
 11
-2.678906
 21
0.0
 31
0.0
  0
LINE
  5
1E2
330
486
100
AcDbEntity
  8
Smart Centers
 62
     0
 48
0.75
100
AcDbLine
 10
2.678906
 20
0.0
 30
0.0
 11
3.925
 21
0.0
 31
0.0
  0
LINE
  5
1E3
330
486
100
AcDbEntity
  8
Smart Centers
 62
     0
 48
0.75
100
AcDbLine
 10
0.0
 20
-3.925
 30
0.0
 11
0.0
 21
-2.678906
 31
0.0
  0
LINE
  5
1E4
330
486
100
AcDbEntity
  8
Smart Centers
 62
     0
 48
0.75
100
AcDbLine
 10
0.0
 20
2.678906
 30
0.0
 11
0.0
 21
3.925
 31
0.0
  0
ENDBLK
  5
488
330
486
100
AcDbEntity
  8
0
100
AcDbBlockEnd
  0
BLOCK
  5
48A
330
489
100
AcDbEntity
  8
0
100
AcDbBlockBegin
  2
*U20
 70
     1
 10
0.0
 20
0.0
 30
0.0
  3
*U20
  1

  0
LINE
  5
1E9
330
489
100
AcDbEntity
  8
Smart Centers
  6
Continuous
 62
     0
 48
0.75
100
AcDbLine
 10
-0.892969
 20
0.0
 30
0.0
 11
0.892969
 21
0.0
 31
0.0
  0
LINE
  5
1EA
330
489
100
AcDbEntity
  8
Smart Centers
  6
Continuous
 62
     0
 48
0.75
100
AcDbLine
 10
0.0
 20
-0.892969
 30
0.0
 11
0.0
 21
0.892969
 31
0.0
  0
LINE
  5
1EB
330
489
100
AcDbEntity
  8
Smart Centers
 62
     0
 48
0.75
100
AcDbLine
 10
-3.925
 20
0.0
 30
0.0
 11
-2.678906
 21
0.0
 31
0.0
  0
LINE
  5
1EC
330
489
100
AcDbEntity
  8
Smart Centers
 62
     0
 48
0.75
100
AcDbLine
 10
2.678906
 20
0.0
 30
0.0
 11
3.925
 21
0.0
 31
0.0
  0
LINE
  5
1ED
330
489
100
AcDbEntity
  8
Smart Centers
 62
     0
 48
0.75
100
AcDbLine
 10
0.0
 20
-3.925
 30
0.0
 11
0.0
 21
-2.678906
 31
0.0
  0
LINE
  5
1EE
330
489
100
AcDbEntity
  8
Smart Centers
 62
     0
 48
0.75
100
AcDbLine
 10
0.0
 20
2.678906
 30
0.0
 11
0.0
 21
3.925
 31
0.0
  0
ENDBLK
  5
48B
330
489
100
AcDbEntity
  8
0
100
AcDbBlockEnd
  0
ENDSEC
  0
SECTION
  2
ENTITIES
  0
INSERT
  5
114
330
388
100
AcDbEntity
  8
TitleBlock
100
AcDbBlockReference
 66
     1
  2
rough design 01
 10
410.0
 20
10.0
 30
0.0
  0
ATTRIB
  5
13D
330
114
100
AcDbEntity
  8
TitleBlock
100
AcDbText
 10
398.2320421641642
 20
13.064985
 30
0.0
 40
4.0
  1
2/2
  7
textstyle4
 72
     1
 11
402.067878
 21
13.064985
 31
0.0
100
AcDbAttribute
  2
SHEET
 70
     0
280
     0
  0
ATTRIB
  5
13E
330
114
100
AcDbEntity
  8
TitleBlock
370
     0
100
AcDbText
 10
239.134182
 20
13.641704
 30
0.0
 40
2.5
  1
2CN002-120024
  7
textstyle4
100
AcDbAttribute
  2
TITLE_1
 70
     0
280
     0
  0
ATTRIB
  5
13F
330
114
100
AcDbEntity
  8
TitleBlock
370
    35
100
AcDbText
 10
300.128266
 20
13.482412
 30
0.0
 40
4.0
  1
2CN002-120024
  7
textstyle4
100
AcDbAttribute
  2
MODEL_PART_NO
 70
     0
280
     0
  0
SEQEND
  5
48D
330
114
100
AcDbEntity
  8
TitleBlock
  0
INSERT
  5
145
330
388
100
AcDbEntity
  8
Smart Centers
 48
0.75
100
AcDbBlockReference
  2
*U4
 10
46.181065
 20
116.756624
 30
0.0
  0
INSERT
  5
150
330
388
100
AcDbEntity
  8
Smart Centers
 48
0.75
100
AcDbBlockReference
  2
*U5
 10
46.181065
 20
141.756624
 30
0.0
  0
INSERT
  5
15A
330
388
100
AcDbEntity
  8
Smart Centers
 48
0.75
100
AcDbBlockReference
  2
*U6
 10
320.996552
 20
181.137598
 30
0.0
  0
INSERT
  5
164
330
388
100
AcDbEntity
  8
Smart Centers
 48
0.75
100
AcDbBlockReference
  2
*U7
 10
320.996552
 20
101.941138
 30
0.0
  0
INSERT
  5
16E
330
388
100
AcDbEntity
  8
Smart Centers
 48
0.75
100
AcDbBlockReference
  2
*U8
 10
195.996552
 20
101.941138
 30
0.0
  0
INSERT
  5
178
330
388
100
AcDbEntity
  8
Smart Centers
 48
0.75
100
AcDbBlockReference
  2
*U9
 10
70.996552
 20
101.941138
 30
0.0
  0
INSERT
  5
182
330
388
100
AcDbEntity
  8
Smart Centers
 48
0.75
100
AcDbBlockReference
  2
*U10
 10
237.663218
 20
101.941138
 30
0.0
  0
INSERT
  5
18C
330
388
100
AcDbEntity
  8
Smart Centers
 48
0.75
100
AcDbBlockReference
  2
*U11
 10
154.329885
 20
101.941138
 30
0.0
  0
INSERT
  5
196
330
388
100
AcDbEntity
  8
Smart Centers
 48
0.75
100
AcDbBlockReference
  2
*U12
 10
70.996552
 20
107.756624
 30
0.0
  0
INSERT
  5
1A0
330
388
100
AcDbEntity
  8
Smart Centers
 48
0.75
100
AcDbBlockReference
  2
*U13
 10
320.996552
 20
107.756624
 30
0.0
  0
INSERT
  5
1AA
330
388
100
AcDbEntity
  8
Smart Centers
 48
0.75
100
AcDbBlockReference
  2
*U14
 10
342.562038
 20
170.072111
 30
0.0
  0
INSERT
  5
1B4
330
388
100
AcDbEntity
  8
Smart Centers
 48
0.75
100
AcDbBlockReference
  2
*U15
 10
342.562038
 20
174.572111
 30
0.0
  0
INSERT
  5
1BE
330
388
100
AcDbEntity
  8
Smart Centers
 48
0.75
100
AcDbBlockReference
  2
*U16
 10
195.996552
 20
107.756624
 30
0.0
  0
INSERT
  5
1C8
330
388
100
AcDbEntity
  8
Smart Centers
 48
0.75
100
AcDbBlockReference
  2
*U17
 10
70.996552
 20
181.137598
 30
0.0
  0
INSERT
  5
1D2
330
388
100
AcDbEntity
  8
Smart Centers
 48
0.75
100
AcDbBlockReference
  2
*U18
 10
154.329885
 20
181.137598
 30
0.0
  0
INSERT
  5
1DC
330
388
100
AcDbEntity
  8
Smart Centers
 48
0.75
100
AcDbBlockReference
  2
*U19
 10
195.996552
 20
181.137598
 30
0.0
  0
INSERT
  5
1E6
330
388
100
AcDbEntity
  8
Smart Centers
 48
0.75
100
AcDbBlockReference
  2
*U20
 10
237.663218
 20
181.137598
 30
0.0
  0
INSERT
  5
1F0
330
388
100
AcDbEntity
  8
Bend Tables
100
AcDbBlockReference
  2
*T3
 10
328.320313
 20
295.488281
 30
0.0
1001
ACAD_TSTYLE_FLIPHORIZ
1071
        1
  0
MTEXT
  5
23E
330
388
100
AcDbEntity
  8
BendIds
100
AcDbMText
 10
334.322587
 20
169.471332
 30
0.0
 40
3.5
 41
0.0
 46
0.0
 71
     2
 72
     1
  1
9
  7
textstyle4
 11
6.123233995736766E-17
 21
1.0
 31
0.0
 73
     1
 44
1.0
  0
LEADER
  5
231
330
388
100
AcDbEntity
  8
BendIds
100
AcDbLeader
  3
QCADDimStyle
 71
     0
 76
     3
 10
339.279295
 20
169.471332
 30
0.0
 10
337.879295
 20
169.471332
 30
0.0
 10
341.379295
 20
169.471332
 30
0.0
1001
MLEADERTYPE
1000
BendId
  0
MTEXT
  5
23F
330
388
100
AcDbEntity
  8
BendIds
100
AcDbMText
 10
334.356612
 20
133.131624
 30
0.0
 40
3.5
 41
0.0
 46
0.0
 71
     2
 72
     1
  1
4
  7
textstyle4
 11
6.123233995736766E-17
 21
1.0
 31
0.0
 73
     1
 44
1.0
  0
LEADER
  5
234
330
388
100
AcDbEntity
  8
BendIds
100
AcDbLeader
  3
QCADDimStyle
 71
     0
 76
     3
 10
339.279295
 20
133.131624
 30
0.0
 10
337.879295
 20
133.131624
 30
0.0
 10
341.379295
 20
133.131624
 30
0.0
1001
MLEADERTYPE
1000
BendId
  0
MTEXT
  5
240
330
388
100
AcDbEntity
  8
BendIds
100
AcDbMText
 10
334.051185
 20
100.207509
 30
0.0
 40
3.5
 41
0.0
 46
0.0
 71
     2
 72
     1
  1
5
  7
textstyle4
 11
6.123233995736766E-17
 21
1.0
 31
0.0
 73
     1
 44
1.0
  0
LEADER
  5
235
330
388
100
AcDbEntity
  8
BendIds
100
AcDbLeader
  3
QCADDimStyle
 71
     0
 76
     3
 10
339.279295
 20
100.207509
 30
0.0
 10
337.596552
 20
100.207509
 30
0.0
 10
341.096552
 20
100.207509
 30
0.0
1001
MLEADERTYPE
1000
BendId
  0
MTEXT
  5
241
330
388
100
AcDbEntity
  8
BendIds
100
AcDbMText
 10
57.659174
 20
169.471332
 30
0.0
 40
3.5
 41
0.0
 46
0.0
 71
     2
 72
     1
  1
8
  7
textstyle4
 11
-1.836970198721030E-16
 21
-1.0
 31
0.0
 73
     1
 44
1.0
  0
LEADER
  5
236
330
388
100
AcDbEntity
  8
BendIds
100
AcDbLeader
  3
QCADDimStyle
 71
     0
 76
     3
 10
52.713808
 20
169.471332
 30
0.0
 10
54.113808
 20
169.471332
 30
0.0
 10
57.613808
 20
169.471332
 30
0.0
1001
MLEADERTYPE
1000
BendId
  0
MTEXT
  5
242
330
388
100
AcDbEntity
  8
BendIds
100
AcDbMText
 10
47.734417
 20
133.131624
 30
0.0
 40
3.5
 41
0.0
 46
0.0
 71
     2
 72
     1
  1
2
  7
textstyle4
 11
6.123233995736766E-17
 21
1.0
 31
0.0
 73
     1
 44
1.0
  0
LEADER
  5
237
330
388
100
AcDbEntity
  8
BendIds
100
AcDbLeader
  3
QCADDimStyle
 71
     0
 76
     3
 10
52.713808
 20
133.131624
 30
0.0
 10
51.313808
 20
133.131624
 30
0.0
 10
54.813808
 20
133.131624
 30
0.0
1001
MLEADERTYPE
1000
BendId
  0
MTEXT
  5
243
330
388
100
AcDbEntity
  8
BendIds
100
AcDbMText
 10
47.485699
 20
100.207509
 30
0.0
 40
3.5
 41
0.0
 46
0.0
 71
     2
 72
     1
  1
6
  7
textstyle4
 11
6.123233995736766E-17
 21
1.0
 31
0.0
 73
     1
 44
1.0
  0
LEADER
  5
238
330
388
100
AcDbEntity
  8
BendIds
100
AcDbLeader
  3
QCADDimStyle
 71
     0
 76
     3
 10
52.713808
 20
100.207509
 30
0.0
 10
51.031065
 20
100.207509
 30
0.0
 10
54.531065
 20
100.207509
 30
0.0
1001
MLEADERTYPE
1000
BendId
  0
MTEXT
  5
244
330
388
100
AcDbEntity
  8
BendIds
100
AcDbMText
 10
195.996552
 20
167.574185
 30
0.0
 40
3.5
 41
0.0
 46
0.0
 71
     2
 72
     1
  1
3
  7
textstyle4
 73
     1
 44
1.0
  0
LEADER
  5
239
330
388
100
AcDbEntity
  8
BendIds
100
AcDbLeader
  3
QCADDimStyle
 71
     0
 76
     3
 10
195.996552
 20
162.289368
 30
0.0
 10
195.996552
 20
163.972111
 30
0.0
 10
198.413849979798
 20
163.972111
 30
0.0
1001
MLEADERTYPE
1000
BendId
  0
MTEXT
  5
245
330
388
100
AcDbEntity
  8
BendIds
100
AcDbMText
 10
195.996552
 20
181.788879
 30
0.0
 40
3.5
 41
0.0
 46
0.0
 71
     2
 72
     1
  1
7
  7
textstyle4
 73
     1
 44
1.0
  0
LEADER
  5
23A
330
388
100
AcDbEntity
  8
BendIds
100
AcDbLeader
  3
QCADDimStyle
 71
     0
 76
     3
 10
195.996552
 20
176.854854
 30
0.0
 10
195.996552
 20
178.254854
 30
0.0
 10
198.0536858383838
 20
178.254854
 30
0.0
1001
MLEADERTYPE
1000
BendId
  0
MTEXT
  5
246
330
388
100
AcDbEntity
  8
BendIds
100
AcDbMText
 10
195.996552
 20
109.179307
 30
0.0
 40
3.5
 41
0.0
 46
0.0
 71
     2
 72
     1
  1
1
  7
textstyle4
 73
     1
 44
1.0
  0
LEADER
  5
23B
330
388
100
AcDbEntity
  8
BendIds
100
AcDbLeader
  3
QCADDimStyle
 71
     0
 76
     3
 10
195.996552
 20
103.973881
 30
0.0
 10
195.996552
 20
105.656624
 30
0.0
 10
196.6108196767677
 20
105.656624
 30
0.0
1001
MLEADERTYPE
1000
BendId
  0
DIMENSION
  5
23C
330
388
100
AcDbEntity
  8
FD_Dimensions
100
AcDbDimension
280
     0
 10
45.18106499999999
 20
86.713191
 30
0.0
 11
195.9965515
 21
89.863191
 31
0.0
 70
    32
 71
     5
 42
-1.0
 73
     0
 74
     0
 75
     0
  3
QCADDimStyle
100
AcDbAlignedDimension
 13
45.181065
 23
109.274302
 33
0.0
 14
346.812038
 24
109.274302
 34
0.0
100
AcDbRotatedDimension
1001
ACAD
1000
DSTYLE
1002
{
1070
   171
1070
     4
1070
   143
1040
0.03937
1070
   274
1070
     4
1070
   286
1070
    12
1070
     4
1000
in
1070
   141
1040
0.0
1070
   144
1040
4.0
1070
   272
1070
     2
1070
   146
1040
0.714286
1070
    48
1040
0.1
1070
   172
1070
     1
1070
    74
1070
     0
1070
   283
1070
     0
1070
    47
1040
0.1
1070
   284
1070
    12
1002
}
1001
ACAD_DIMASSOC_CALC_DIMLFAC
1040
-4.0
1001
ACAD_DIMASSOC_DIMLFAC
1040
-4.0
1001
ACAD_DIMASSOC_OVERRIDDEN_DIMLFAC
1040
0.0
1001
ACAD_DSTYLE_DIMJAG_POSITION
1070
   387
1070
     0
1070
   389
1001
AUTO_ARRANGE_XDATA
1070
     1
1071
        4
1040
22.561111
1040
0.0
1001
FUSDOC_AUTODIM_XDATA
1070
     1
1071
        0
1071
     4000
1071
        0
1071
  1049600
1071
        0
1071
        0
  0
DIMENSION
  5
24A
330
388
100
AcDbEntity
  8
FD_Dimensions
100
AcDbDimension
280
     0
 10
38.391326
 20
96.441138
 30
0.0
 11
35.241326
 21
129.365253
 31
0.0
 70
    32
 71
     5
 42
-1.0
 73
     0
 74
     0
 75
     0
  3
QCADDimStyle
100
AcDbAlignedDimension
 13
47.431065
 23
96.441138
 33
0.0
 14
52.627932
 24
162.289368
 34
0.0
 50
90.0
100
AcDbRotatedDimension
1001
ACAD
1000
DSTYLE
1002
{
1070
   171
1070
     4
1070
   143
1040
0.03937
1070
   274
1070
     4
1070
   286
1070
    12
1070
     4
1000
in
1070
   141
1040
0.0
1070
   144
1040
4.0
1070
   272
1070
     2
1070
   146
1040
0.714286
1070
    48
1040
0.1
1070
   172
1070
     1
1070
    74
1070
     0
1070
   283
1070
     0
1070
    47
1040
0.1
1070
   284
1070
    12
1002
}
1001
ACAD_DIMASSOC_CALC_DIMLFAC
1040
-4.0
1001
ACAD_DIMASSOC_DIMLFAC
1040
-4.0
1001
ACAD_DIMASSOC_OVERRIDDEN_DIMLFAC
1040
0.0
1001
ACAD_DSTYLE_DIMJAG_POSITION
1070
   387
1070
     0
1070
   389
1001
ACAD_TC
1000
DSTYLE_TC
1002
{
1070
   176
1070
   177
1002
}
  0
DIMENSION
  5
257
330
388
100
AcDbEntity
  8
FD_Dimensions
100
AcDbDimension
280
     0
 10
28.441338
 20
96.441138
 30
0.0
 11
25.291338
 21
139.164368
 31
0.0
 70
    32
 71
     5
 42
-1.0
 73
     0
 74
     0
 75
     0
  3
QCADDimStyle
100
AcDbAlignedDimension
 13
47.431065
 23
96.441138
 33
0.0
 14
52.837479
 24
181.887598
 34
0.0
 50
90.0
100
AcDbRotatedDimension
1001
ACAD
1000
DSTYLE
1002
{
1070
   171
1070
     4
1070
   143
1040
0.03937
1070
   274
1070
     4
1070
   286
1070
    12
1070
     4
1000
in
1070
   141
1040
0.0
1070
   144
1040
4.0
1070
   272
1070
     2
1070
   146
1040
0.714286
1070
    48
1040
0.1
1070
   172
1070
     1
1070
    74
1070
     0
1070
   283
1070
     0
1070
    47
1040
0.1
1070
   284
1070
    12
1002
}
1001
ACAD_DIMASSOC_CALC_DIMLFAC
1040
-4.0
1001
ACAD_DIMASSOC_DIMLFAC
1040
-4.0
1001
ACAD_DIMASSOC_OVERRIDDEN_DIMLFAC
1040
0.0
1001
ACAD_DSTYLE_DIMJAG_POSITION
1070
   387
1070
     0
1070
   389
1001
ACAD_TC
1000
DSTYLE_TC
1002
{
1070
   176
1070
   177
1002
}
  0
DIMENSION
  5
264
330
388
100
AcDbEntity
  8
FD_Dimensions
100
AcDbDimension
280
     0
 10
38.391326
 20
162.289368
 30
0.0
 11
35.241326
 21
172.088483
 31
0.0
 70
    32
 71
     5
 42
-1.0
 73
     0
 74
     0
 75
     0
  3
QCADDimStyle
100
AcDbAlignedDimension
 13
52.627932
 23
162.289368
 33
0.0
 14
52.837479
 24
181.887598
 34
0.0
 50
90.0
100
AcDbRotatedDimension
1001
ACAD
1000
DSTYLE
1002
{
1070
   171
1070
     4
1070
   143
1040
0.03937
1070
   274
1070
     4
1070
   286
1070
    12
1070
     4
1000
in
1070
   141
1040
0.0
1070
   144
1040
4.0
1070
   272
1070
     2
1070
   146
1040
0.714286
1070
    48
1040
0.1
1070
   172
1070
     1
1070
    74
1070
     0
1070
   283
1070
     0
1070
    47
1040
0.1
1070
   284
1070
    12
1002
}
1001
ACAD_DIMASSOC_CALC_DIMLFAC
1040
-4.0
1001
ACAD_DIMASSOC_DIMLFAC
1040
-4.0
1001
ACAD_DIMASSOC_OVERRIDDEN_DIMLFAC
1040
0.0
1001
ACAD_DSTYLE_DIMJAG_POSITION
1070
   387
1070
     0
1070
   389
  0
ARC
  5
311
330
388
100
AcDbEntity
  8
Visible
100
AcDbCircle
 10
596.1938387777453
 20
268.2826343148365
 30
0.0
 40
1.0
100
AcDbArc
 50
135.0
 51
225.0
  0
LINE
  5
312
330
388
100
AcDbEntity
  8
Visible
100
AcDbLine
 10
615.9813067777453
 20
247.0809503148365
 30
0.0
 11
595.4867307777455
 21
267.5755263148366
 31
0.0
  0
SPLINE
  5
313
330
388
100
AcDbEntity
  8
Visible
100
AcDbSpline
210
0.0
220
0.0
230
1.0
 70
     8
 71
     3
 72
     8
 73
     4
 74
     0
 42
0.000000001
 43
0.001
 40
1.406531817965077
 40
1.406531817965077
 40
1.406531817965077
 40
1.406531817965077
 40
1.570796326795029
 40
1.570796326795029
 40
1.570796326795029
 40
1.570796326795029
 10
-550.5171800602833
 20
325.1793691680541
 30
0.0
 10
-550.438333096044
 20
325.2333873825373
 30
0.0
 10
-550.3594861318064
 20
325.2881408588581
 30
0.0
 10
-550.2806391675671
 20
325.3428956951358
 30
0.0
  0
SPLINE
  5
314
330
388
100
AcDbEntity
  8
Visible
100
AcDbSpline
210
0.0
220
0.0
230
1.0
 70
     8
 71
     3
 72
     8
 73
     4
 74
     0
 42
0.000000001
 43
0.001
 40
0.0
 40
0.0
 40
0.0
 40
0.0
 40
0.2975510218894033
 40
0.2975510218894033
 40
0.2975510218894033
 40
0.2975510218894033
 10
-550.91692848945
 20
327.6755530838382
 30
0.0
 10
-550.91692848945
 20
326.9614306313033
 30
0.0
 10
-550.4906065522513
 20
326.2935511497873
 30
0.0
 10
-550.0464580645579
 20
325.6502632635513
 30
0.0
  0
SPLINE
  5
315
330
388
100
AcDbEntity
  8
Visible
100
AcDbSpline
210
0.0
220
0.0
230
1.0
 70
     8
 71
     3
 72
     8
 73
     4
 74
     0
 42
0.000000001
 43
0.001
 40
0.0255679307111751
 40
0.0255679307111751
 40
0.0255679307111751
 40
0.0255679307111751
 40
0.3244781209957377
 40
0.3244781209957377
 40
0.3244781209957377
 40
0.3244781209957377
 10
593.4851797881571
 20
325.6502634769985
 30
0.0
 10
593.9293449493515
 20
326.2935775213481
 30
0.0
 10
594.3556501543143
 20
326.9614601837801
 30
0.0
 10
594.3556501543143
 20
327.6755530838382
 30
0.0
  0
SPLINE
  5
316
330
388
100
AcDbEntity
  8
Visible
100
AcDbSpline
210
0.0
220
0.0
230
1.0
 70
     8
 71
     3
 72
     8
 73
     4
 74
     0
 42
0.000000001
 43
0.001
 40
1.40653181796495
 40
1.40653181796495
 40
1.40653181796495
 40
1.40653181796495
 40
1.570796326794896
 40
1.570796326794896
 40
1.570796326794896
 40
1.570796326794896
 10
593.9559017251473
 20
325.1793691680541
 30
0.0
 10
593.8770547609098
 20
325.2333873825373
 30
0.0
 10
593.7982077966702
 20
325.2881408588581
 30
0.0
 10
593.7193608324329
 20
325.3428956951358
 30
0.0
  0
CIRCLE
  5
317
330
388
100
AcDbEntity
  8
Visible
100
AcDbCircle
 10
-577.5425852222546
 20
86.15165831483654
 30
0.0
 40
1.7
  0
CIRCLE
  5
318
330
388
100
AcDbEntity
  8
Visible
100
AcDbCircle
 10
-577.5425852222546
 20
186.1516583148365
 30
0.0
 40
1.7
  0
CIRCLE
  5
319
330
388
100
AcDbEntity
  8
Visible
100
AcDbCircle
 10
21.71936277774543
 20
50.15165831483654
 30
0.0
 40
1.7
  0
CIRCLE
  5
31A
330
388
100
AcDbEntity
  8
Visible
100
AcDbCircle
 10
-478.2806372222547
 20
50.15165831483654
 30
0.0
 40
1.7
  0
CIRCLE
  5
31B
330
388
100
AcDbEntity
  8
Visible
100
AcDbCircle
 10
521.7193627777455
 20
50.15165831483654
 30
0.0
 40
1.7
  0
CIRCLE
  5
31C
330
388
100
AcDbEntity
  8
Visible
100
AcDbCircle
 10
620.9813067777453
 20
186.1516583148365
 30
0.0
 40
1.7
  0
CIRCLE
  5
31D
330
388
100
AcDbEntity
  8
Visible
100
AcDbCircle
 10
620.9813067777453
 20
86.15165831483654
 30
0.0
 40
1.7
  0
CIRCLE
  5
31E
330
388
100
AcDbEntity
  8
Visible
100
AcDbCircle
 10
21.71936277774543
 20
26.88971431483651
 30
0.0
 40
1.7
  0
CIRCLE
  5
31F
330
388
100
AcDbEntity
  8
Visible
100
AcDbCircle
 10
188.3860267777454
 20
26.88971431483651
 30
0.0
 40
1.7
  0
CIRCLE
  5
320
330
388
100
AcDbEntity
  8
Visible
100
AcDbCircle
 10
521.7193627777455
 20
26.88971431483651
 30
0.0
 40
1.7
  0
CIRCLE
  5
321
330
388
100
AcDbEntity
  8
Visible
100
AcDbCircle
 10
-478.2806372222547
 20
26.88971431483651
 30
0.0
 40
1.7
  0
CIRCLE
  5
322
330
388
100
AcDbEntity
  8
Visible
100
AcDbCircle
 10
-144.9473052222546
 20
26.88971431483651
 30
0.0
 40
1.7
  0
CIRCLE
  5
323
330
388
100
AcDbEntity
  8
Visible
100
AcDbCircle
 10
607.9813067777453
 20
317.4136063148366
 30
0.0
 40
1.7
  0
CIRCLE
  5
324
330
388
100
AcDbEntity
  8
Visible
100
AcDbCircle
 10
607.9813067777453
 20
299.4136063148366
 30
0.0
 40
1.7
  0
CIRCLE
  5
325
330
388
100
AcDbEntity
  8
Visible
100
AcDbCircle
 10
188.3860267777454
 20
343.6755543148365
 30
0.0
 40
1.7
  0
CIRCLE
  5
326
330
388
100
AcDbEntity
  8
Visible
100
AcDbCircle
 10
-144.9473052222546
 20
343.6755543148365
 30
0.0
 40
1.7
  0
CIRCLE
  5
327
330
388
100
AcDbEntity
  8
Visible
100
AcDbCircle
 10
521.7193627777455
 20
343.6755543148365
 30
0.0
 40
1.7
  0
CIRCLE
  5
328
330
388
100
AcDbEntity
  8
Visible
100
AcDbCircle
 10
-478.2806372222547
 20
343.6755543148365
 30
0.0
 40
1.7
  0
CIRCLE
  5
329
330
388
100
AcDbEntity
  8
Visible
100
AcDbCircle
 10
21.71936277774543
 20
343.6755543148365
 30
0.0
 40
1.7
  0
CIRCLE
  5
32A
330
388
100
AcDbEntity
  8
Visible
100
AcDbCircle
 10
-564.5425852222546
 20
299.4136063148366
 30
0.0
 40
1.7
  0
CIRCLE
  5
32B
330
388
100
AcDbEntity
  8
Visible
100
AcDbCircle
 10
-564.5425852222546
 20
317.4136063148366
 30
0.0
 40
1.7
  0
LINE
  5
32C
330
388
100
AcDbEntity
  8
Visible
100
AcDbLine
 10
595.4867307777455
 20
268.9897383148366
 30
0.0
 11
615.9813067777453
 21
289.4843183148365
 31
0.0
  0
LINE
  5
32D
330
388
100
AcDbEntity
  8
Visible
100
AcDbLine
 10
615.9813067777453
 20
289.4843183148365
 30
0.0
 11
615.9813067777453
 21
326.0498943148365
 31
0.0
  0
LINE
  5
32E
330
388
100
AcDbEntity
  8
Visible
100
AcDbLine
 10
615.9813067777453
 20
326.0498943148365
 30
0.0
 11
595.9813067777453
 21
326.0498943148365
 31
0.0
  0
SPLINE
  5
32F
330
388
100
AcDbEntity
  8
Visible
100
AcDbSpline
210
0.0
220
0.0
230
1.0
 70
     8
 71
     3
 72
     8
 73
     4
 74
     0
 42
0.000000001
 43
0.001
 40
0.0132857104229675
 40
0.0132857104229675
 40
0.0132857104229675
 40
0.0132857104229675
 40
0.3244781209957555
 40
0.3244781209957555
 40
0.3244781209957555
 40
0.3244781209957555
 10
593.8768395529465
 20
325.1246109596469
 30
0.0
 10
594.5445234016046
 20
325.5878369581026
 30
0.0
 10
595.2378725643347
 20
326.0498956951361
 30
0.0
 10
595.9813075430183
 20
326.0498956951361
 30
0.0
  0
SPLINE
  5
330
330
388
100
AcDbEntity
  8
Visible
100
AcDbSpline
210
0.0
220
0.0
230
1.0
 70
     8
 71
     3
 72
     8
 73
     4
 74
     0
 42
0.000000001
 43
0.001
 40
-1.570796326794896
 40
-1.570796326794896
 40
-1.570796326794896
 40
-1.570796326794896
 40
-1.461436104216089
 40
-1.461436104216089
 40
-1.461436104216089
 40
-1.461436104216089
 10
593.7193608324329
 20
325.3428956951358
 30
0.0
 10
593.7718537392706
 20
325.2699888800837
 30
0.0
 10
593.8243466461087
 20
325.1970822387337
 30
0.0
 10
593.8768395529465
 20
325.1246109596469
 30
0.0
  0
LINE
  5
331
330
388
100
AcDbEntity
  8
Visible
100
AcDbLine
 10
593.7193627777455
 20
325.3428943148365
 30
0.0
 11
593.6486507777455
 21
325.4136063148366
 31
0.0
  0
SPLINE
  5
332
330
388
100
AcDbEntity
  8
Visible
100
AcDbSpline
210
0.0
220
0.0
230
1.0
 70
     8
 71
     3
 72
     8
 73
     4
 74
     0
 42
0.000000001
 43
0.001
 40
1.362089427285383
 40
1.362089427285383
 40
1.362089427285383
 40
1.362089427285383
 40
1.570796326794896
 40
1.570796326794896
 40
1.570796326794896
 40
1.570796326794896
 10
593.4414551206543
 20
325.7141443085474
 30
0.0
 10
593.5095144166922
 20
325.6139649967826
 30
0.0
 10
593.5790811878111
 20
325.5137856850178
 30
0.0
 10
593.6486501543137
 20
325.4136063732549
 30
0.0
  0
SPLINE
  5
333
330
388
100
AcDbEntity
  8
Visible
100
AcDbSpline
210
0.0
220
0.0
230
1.0
 70
     8
 71
     3
 72
    11
 73
     7
 74
     0
 42
0.000000001
 43
0.001
 40
0.0018922989885483
 40
0.0018922989885483
 40
0.0018922989885483
 40
0.0018922989885483
 40
0.1521649623041412
 40
0.1521649623041412
 40
0.1521649623041412
 40
0.1985214678217697
 40
0.1985214678217697
 40
0.1985214678217697
 40
0.1985214678217697
 10
593.4414551206543
 20
325.7141443085474
 30
0.0
 10
593.7951280515541
 20
326.2234347351041
 30
0.0
 10
594.1278420457555
 20
326.6955547193229
 30
0.0
 10
594.2792276564618
 20
327.192327169607
 30
0.0
 10
594.3259274869114
 20
327.3455728386746
 30
0.0
 10
594.3556501543143
 20
327.5082184405617
 30
0.0
 10
594.3556501543143
 20
327.6755530838382
 30
0.0
  0
LINE
  5
334
330
388
100
AcDbEntity
  8
Visible
100
AcDbLine
 10
594.3556507777454
 20
327.6755543148365
 30
0.0
 11
594.3556507777454
 21
346.6755543148365
 31
0.0
  0
LINE
  5
335
330
388
100
AcDbEntity
  8
Visible
100
AcDbLine
 10
594.3556507777454
 20
346.6755543148365
 30
0.0
 11
-550.9169292222546
 21
346.6755543148365
 31
0.0
  0
LINE
  5
336
330
388
100
AcDbEntity
  8
Visible
100
AcDbLine
 10
-550.9169292222546
 20
327.6755543148365
 30
0.0
 11
-550.9169292222546
 21
346.6755543148365
 31
0.0
  0
SPLINE
  5
337
330
388
100
AcDbEntity
  8
Visible
100
AcDbSpline
210
0.0
220
0.0
230
1.0
 70
     8
 71
     3
 72
    11
 73
     7
 74
     0
 42
0.000000001
 43
0.001
 40
0.0
 40
0.0
 40
0.0
 40
0.0
 40
0.1269432689730753
 40
0.1269432689730753
 40
0.1269432689730753
 40
0.1512719220144992
 40
0.1512719220144992
 40
0.1512719220144992
 40
0.1512719220144992
 10
-550.91692848945
 20
327.6755530838382
 30
0.0
 10
-550.91692848945
 20
327.0662253927677
 30
0.0
 10
-550.5877419071998
 20
326.5719611624281
 30
0.0
 10
-550.2195179813656
 20
326.0287751230589
 30
0.0
 10
-550.1489479369224
 20
325.9246736232653
 30
0.0
 10
-550.0762555131727
 20
325.8200163634757
 30
0.0
 10
-550.0027334480523
 20
325.7141442974046
 30
0.0
  0
SPLINE
  5
338
330
388
100
AcDbEntity
  8
Visible
100
AcDbSpline
210
0.0
220
0.0
230
1.0
 70
     8
 71
     3
 72
     8
 73
     4
 74
     0
 42
0.000000001
 43
0.001
 40
-1.570796326794896
 40
-1.570796326794896
 40
-1.570796326794896
 40
-1.570796326794896
 40
-1.362089430082326
 40
-1.362089430082326
 40
-1.362089430082326
 40
-1.362089430082326
 10
-550.2099284894497
 20
325.4136063732549
 30
0.0
 10
-550.1403595238784
 20
325.5137856836753
 30
0.0
 10
-550.0707927536927
 20
325.6139649940977
 30
0.0
 10
-550.002733458526
 20
325.7141443045201
 30
0.0
  0
LINE
  5
339
330
388
100
AcDbEntity
  8
Visible
100
AcDbLine
 10
-550.2099292222546
 20
325.4136063148366
 30
0.0
 11
-550.2806372222545
 21
325.3428943148365
 31
0.0
  0
SPLINE
  5
33A
330
388
100
AcDbEntity
  8
Visible
100
AcDbSpline
210
0.0
220
0.0
230
1.0
 70
     8
 71
     3
 72
     8
 73
     4
 74
     0
 42
0.000000001
 43
0.001
 40
1.461436104220657
 40
1.461436104220657
 40
1.461436104220657
 40
1.461436104220657
 40
1.570796326794896
 40
1.570796326794896
 40
1.570796326794896
 40
1.570796326794896
 10
-550.4381178880752
 20
325.1246109596561
 30
0.0
 10
-550.3856249812392
 20
325.1970822387393
 30
0.0
 10
-550.3331320744031
 20
325.2699888800853
 30
0.0
 10
-550.2806391675671
 20
325.3428956951358
 30
0.0
  0
SPLINE
  5
33B
330
388
100
AcDbEntity
  8
Visible
100
AcDbSpline
210
0.0
220
0.0
230
1.0
 70
     8
 71
     3
 72
     8
 73
     4
 74
     0
 42
0.000000001
 43
0.001
 40
0.0000000000000284
 40
0.0000000000000284
 40
0.0000000000000284
 40
0.0000000000000284
 40
0.3097778775344835
 40
0.3097778775344835
 40
0.3097778775344835
 40
0.3097778775344835
 10
-552.5425858781522
 20
326.0498956951361
 30
0.0
 10
-551.79911897207
 20
326.0498956951361
 30
0.0
 10
-551.1057735171156
 20
325.5878173798793
 30
0.0
 10
-550.4381178880552
 20
325.1246109596285
 30
0.0
  0
LINE
  5
33C
330
388
100
AcDbEntity
  8
Visible
100
AcDbLine
 10
-552.5425852222546
 20
326.0498943148365
 30
0.0
 11
-572.5425852222546
 21
326.0498943148365
 31
0.0
  0
LINE
  5
33D
330
388
100
AcDbEntity
  8
Visible
100
AcDbLine
 10
-572.5425852222546
 20
326.0498943148365
 30
0.0
 11
-572.5425852222546
 21
289.4843183148365
 31
0.0
  0
LINE
  5
33E
330
388
100
AcDbEntity
  8
Visible
100
AcDbLine
 10
-572.5425852222546
 20
289.4843183148365
 30
0.0
 11
-552.0480092222546
 21
268.9897383148366
 31
0.0
  0
ARC
  5
33F
330
388
100
AcDbEntity
  8
Visible
100
AcDbCircle
 10
-552.7551172222545
 20
268.2826343148365
 30
0.0
 40
1.0
100
AcDbArc
 50
315.0
 51
45.0
  0
LINE
  5
340
330
388
100
AcDbEntity
  8
Visible
100
AcDbLine
 10
-552.0480092222546
 20
267.5755263148366
 30
0.0
 11
-572.5425852222546
 21
247.0809503148365
 31
0.0
  0
LINE
  5
341
330
388
100
AcDbEntity
  8
Visible
100
AcDbLine
 10
-572.5425852222546
 20
247.0809503148365
 30
0.0
 11
-581.5425852222546
 21
247.0809503148365
 31
0.0
  0
LINE
  5
342
330
388
100
AcDbEntity
  8
Visible
100
AcDbLine
 10
-581.5425852222546
 20
56.22237031483655
 30
0.0
 11
-581.5425852222546
 21
247.0809503148365
 31
0.0
  0
LINE
  5
343
330
388
100
AcDbEntity
  8
Visible
100
AcDbLine
 10
-572.5425852222546
 20
56.22237031483655
 30
0.0
 11
-581.5425852222546
 21
56.22237031483655
 31
0.0
  0
LINE
  5
344
330
388
100
AcDbEntity
  8
Visible
100
AcDbLine
 10
-572.5425852222546
 20
56.22237031483655
 30
0.0
 11
-552.0480092222546
 21
35.72779431483656
 31
0.0
  0
ARC
  5
345
330
388
100
AcDbEntity
  8
Visible
100
AcDbCircle
 10
-552.7551172222545
 20
35.02068631483655
 30
0.0
 40
1.0
100
AcDbArc
 50
315.0
 51
45.0
  0
LINE
  5
346
330
388
100
AcDbEntity
  8
Visible
100
AcDbLine
 10
-552.0480092222546
 20
34.31357831483655
 30
0.0
 11
-572.5425852222546
 21
13.81900231483655
 31
0.0
  0
LINE
  5
347
330
388
100
AcDbEntity
  8
Visible
100
AcDbLine
 10
-572.5425852222546
 20
13.81900231483655
 30
0.0
 11
-572.5425852222546
 21
4.88971431483651
 31
0.0
  0
LINE
  5
348
330
388
100
AcDbEntity
  8
Visible
100
AcDbLine
 10
-572.5425852222546
 20
4.88971431483651
 30
0.0
 11
615.9813067777453
 21
4.88971431483651
 31
0.0
  0
LINE
  5
349
330
388
100
AcDbEntity
  8
Visible
100
AcDbLine
 10
615.9813067777453
 20
4.88971431483651
 30
0.0
 11
615.9813067777453
 21
13.81900231483655
 31
0.0
  0
LINE
  5
34A
330
388
100
AcDbEntity
  8
Visible
100
AcDbLine
 10
615.9813067777453
 20
13.81900231483655
 30
0.0
 11
595.4867307777455
 21
34.31357831483655
 31
0.0
  0
ARC
  5
34B
330
388
100
AcDbEntity
  8
Visible
100
AcDbCircle
 10
596.1938387777453
 20
35.02068631483655
 30
0.0
 40
1.0
100
AcDbArc
 50
135.0
 51
225.0
  0
LINE
  5
34C
330
388
100
AcDbEntity
  8
Visible
100
AcDbLine
 10
595.4867307777455
 20
35.72779431483656
 30
0.0
 11
615.9813067777453
 21
56.22237031483655
 31
0.0
  0
LINE
  5
34D
330
388
100
AcDbEntity
  8
Visible
100
AcDbLine
 10
615.9813067777453
 20
56.22237031483655
 30
0.0
 11
624.9813067777453
 21
56.22237031483655
 31
0.0
  0
LINE
  5
34E
330
388
100
AcDbEntity
  8
Visible
100
AcDbLine
 10
624.9813067777453
 20
247.0809503148365
 30
0.0
 11
624.9813067777453
 21
56.22237031483655
 31
0.0
  0
LINE
  5
34F
330
388
100
AcDbEntity
  8
Visible
100
AcDbLine
 10
615.9813067777453
 20
247.0809503148365
 30
0.0
 11
624.9813067777453
 21
247.0809503148365
 31
0.0
  0
LINE
  5
350
330
388
100
AcDbEntity
  8
Bend Center
100
AcDbLine
 10
339.279295
 20
162.289368
 30
0.0
 11
339.279295
 21
176.653296
 31
0.0
  0
LINE
  5
351
330
388
100
AcDbEntity
  8
Bend Center
100
AcDbLine
 10
339.279295
 20
103.973881
 30
0.0
 11
339.279295
 21
162.289368
 31
0.0
  0
LINE
  5
352
330
388
100
AcDbEntity
  8
Bend Center
100
AcDbLine
 10
339.279295
 20
96.441138
 30
0.0
 11
339.279295
 21
103.973881
 31
0.0
  0
LINE
  5
353
330
388
100
AcDbEntity
  8
Bend Center
100
AcDbLine
 10
52.713808
 20
176.653296
 30
0.0
 11
52.713808
 21
162.289368
 31
0.0
  0
LINE
  5
354
330
388
100
AcDbEntity
  8
Bend Center
100
AcDbLine
 10
52.713808
 20
162.289368
 30
0.0
 11
52.713808
 21
103.973881
 31
0.0
  0
LINE
  5
355
330
388
100
AcDbEntity
  8
Bend Center
100
AcDbLine
 10
52.713808
 20
103.973881
 30
0.0
 11
52.713808
 21
96.441138
 31
0.0
  0
LINE
  5
356
330
388
100
AcDbEntity
  8
Bend Center
100
AcDbLine
 10
339.365171
 20
162.289368
 30
0.0
 11
52.627932
 21
162.289368
 31
0.0
  0
LINE
  5
357
330
388
100
AcDbEntity
  8
Bend Center
100
AcDbLine
 10
52.930023
 20
176.854854
 30
0.0
 11
339.06308
 21
176.854854
 31
0.0
  0
LINE
  5
358
330
388
100
AcDbEntity
  8
Bend Center
100
AcDbLine
 10
339.365171
 20
103.973881
 30
0.0
 11
52.627932
 21
103.973881
 31
0.0
  0
LINE
  5
359
330
388
100
AcDbEntity
  8
Visible Narrow
100
AcDbLine
 10
338.996552
 20
162.572111
 30
0.0
 11
338.996552
 21
176.554433
 31
0.0
  0
LINE
  5
35A
330
388
100
AcDbEntity
  8
Visible Narrow
100
AcDbLine
 10
52.996552
 20
162.572111
 30
0.0
 11
338.996552
 21
162.572111
 31
0.0
  0
LINE
  5
35B
330
388
100
AcDbEntity
  8
Visible Narrow
100
AcDbLine
 10
52.996552
 20
176.554433
 30
0.0
 11
52.996552
 21
162.572111
 31
0.0
  0
LINE
  5
35C
330
388
100
AcDbEntity
  8
Visible Narrow
100
AcDbLine
 10
339.562038
 20
176.731183
 30
0.0
 11
339.562038
 21
162.589789
 31
0.0
  0
LINE
  5
35D
330
388
100
AcDbEntity
  8
Visible Narrow
100
AcDbLine
 10
52.837479
 20
177.137598
 30
0.0
 11
339.155624
 21
177.137598
 31
0.0
  0
LINE
  5
35E
330
388
100
AcDbEntity
  8
Visible Narrow
100
AcDbLine
 10
338.978874
 20
176.572111
 30
0.0
 11
53.014229
 21
176.572111
 31
0.0
  0
LINE
  5
35F
330
388
100
AcDbEntity
  8
Visible Narrow
100
AcDbLine
 10
52.431065
 20
162.589789
 30
0.0
 11
52.431065
 21
176.731183
 31
0.0
  0
LINE
  5
360
330
388
100
AcDbEntity
  8
Visible Narrow
100
AcDbLine
 10
339.562038
 20
161.988947
 30
0.0
 11
339.562038
 21
104.274302
 31
0.0
  0
LINE
  5
361
330
388
100
AcDbEntity
  8
Visible Narrow
100
AcDbLine
 10
338.996552
 20
104.256624
 30
0.0
 11
338.996552
 21
162.006624
 31
0.0
  0
LINE
  5
362
330
388
100
AcDbEntity
  8
Visible Narrow
100
AcDbLine
 10
338.996552
 20
162.006624
 30
0.0
 11
52.996552
 21
162.006624
 31
0.0
  0
LINE
  5
363
330
388
100
AcDbEntity
  8
Visible Narrow
100
AcDbLine
 10
52.996552
 20
162.006624
 30
0.0
 11
52.996552
 21
104.256624
 31
0.0
  0
LINE
  5
364
330
388
100
AcDbEntity
  8
Visible Narrow
100
AcDbLine
 10
52.996552
 20
104.256624
 30
0.0
 11
338.996552
 21
104.256624
 31
0.0
  0
LINE
  5
365
330
388
100
AcDbEntity
  8
Visible Narrow
100
AcDbLine
 10
52.431065
 20
104.274302
 30
0.0
 11
52.431065
 21
161.988947
 31
0.0
  0
LINE
  5
366
330
388
100
AcDbEntity
  8
Visible Narrow
100
AcDbLine
 10
52.431065
 20
96.441138
 30
0.0
 11
52.431065
 21
103.67346
 31
0.0
  0
LINE
  5
367
330
388
100
AcDbEntity
  8
Visible Narrow
100
AcDbLine
 10
52.996552
 20
103.691138
 30
0.0
 11
52.996552
 21
96.441138
 31
0.0
  0
LINE
  5
368
330
388
100
AcDbEntity
  8
Visible Narrow
100
AcDbLine
 10
338.996552
 20
103.691138
 30
0.0
 11
52.996552
 21
103.691138
 31
0.0
  0
LINE
  5
369
330
388
100
AcDbEntity
  8
Visible Narrow
100
AcDbLine
 10
338.996552
 20
96.441138
 30
0.0
 11
338.996552
 21
103.691138
 31
0.0
  0
LINE
  5
36A
330
388
100
AcDbEntity
  8
Visible Narrow
100
AcDbLine
 10
339.562038
 20
103.67346
 30
0.0
 11
339.562038
 21
96.441138
 31
0.0
  0
VIEWPORT
  5
450
330
44C
100
AcDbEntity
 67
     1
  8
0
100
AcDbViewport
 10
128.5
 20
97.5
 30
0.0
 40
314.226
 41
222.18
 68
     1
 69
     1
 12
128.5
 22
97.5
 13
0.0
 23
0.0
 14
10.0
 24
10.0
 15
10.0
 25
10.0
 16
0.0
 26
0.0
 36
1.0
 17
0.0
 27
0.0
 37
0.0
 42
50.0
 43
0.0
 44
0.0
 45
222.18
 50
0.0
 51
0.0
 72
   100
 90
   557152
  1

281
     0
 71
     1
 74
     0
110
0.0
120
0.0
130
0.0
111
1.0
121
0.0
131
0.0
112
0.0
122
1.0
132
0.0
 79
     0
146
0.0
170
     0
 61
     5
348
398
292
     1
282
     1
141
0.0
142
0.0
 63
   256
361
451
  0
ENDSEC
  0
SECTION
  2
OBJECTS
  0
DICTIONARY
  5
376
330
0
100
AcDbDictionary
281
     1
  3
ACAD_DETAILVIEWSTYLE
350
49E
  3
ACAD_GROUP
350
377
  3
ACAD_LAYOUT
350
383
  3
ACAD_MATERIAL
350
3AC
  3
ACAD_MLEADERSTYLE
350
3C4
  3
ACAD_MLINESTYLE
350
380
  3
ACAD_PLOTSETTINGS
350
382
  3
ACAD_PLOTSTYLENAME
350
378
  3
ACAD_SCALELIST
350
3B0
  3
ACAD_SECTIONVIEWSTYLE
350
49F
  3
ACAD_TABLESTYLE
350
3C2
  3
ACAD_VISUALSTYLE
350
393
  3
ACDB_RECOMPOSE_DATA
350
49B
  3
AcDbVariableDictionary
350
497
  3
QCAD_OBJECTS
350
3C8
  0
SUN
  5
3C6
330
392
100
AcDbSun
 90
        1
290
     0
 63
     7
421
 16777215
 40
1.0
291
     1
 91
  2455826
 92
 54000000
292
     0
 70
     2
 71
   256
280
     1
  0
SUN
  5
44B
330
44A
100
AcDbSun
 90
        1
290
     0
 63
     7
421
 16777215
 40
1.0
291
     1
 91
  2455826
 92
 54000000
292
     0
 70
     2
 71
   256
280
     1
  0
SUN
  5
451
330
450
100
AcDbSun
 90
        1
290
     0
 63
     7
421
 16777215
 40
1.0
291
     1
 91
  2455826
 92
 54000000
292
     0
 70
     2
 71
   256
280
     1
  0
DICTIONARY
  5
49E
102
{ACAD_REACTORS
330
376
102
}
330
376
100
AcDbDictionary
281
     1
  0
DICTIONARY
  5
377
102
{ACAD_REACTORS
330
376
102
}
330
376
100
AcDbDictionary
281
     1
  0
DICTIONARY
  5
383
102
{ACAD_REACTORS
330
376
102
}
330
376
100
AcDbDictionary
281
     1
  3
Model
350
38B
  3
Sheet1
350
387
  3
Sheet2
350
44D
  0
DICTIONARY
  5
3AC
102
{ACAD_REACTORS
330
376
102
}
330
376
100
AcDbDictionary
281
     1
  3
ByBlock
350
3AE
  3
ByLayer
350
3AD
  3
Global
350
3AF
  0
DICTIONARY
  5
3C4
102
{ACAD_REACTORS
330
376
102
}
330
376
100
AcDbDictionary
281
     1
  3
Standard
350
3C5
  0
DICTIONARY
  5
380
102
{ACAD_REACTORS
330
376
102
}
330
376
100
AcDbDictionary
281
     1
  3
Standard
350
381
  0
DICTIONARY
  5
382
102
{ACAD_REACTORS
330
376
102
}
330
376
100
AcDbDictionary
281
     1
  0
ACDBDICTIONARYWDFLT
  5
378
102
{ACAD_REACTORS
330
376
102
}
330
376
100
AcDbDictionary
281
     1
  3
Normal
350
379
100
AcDbDictionaryWithDefault
340
379
  0
DICTIONARY
  5
3B0
102
{ACAD_REACTORS
330
376
102
}
330
376
100
AcDbDictionary
281
     1
  3
A0
350
3B1
  3
A1
350
3B2
  3
A2
350
3B3
  3
A3
350
3B4
  3
A4
350
3B5
  3
A5
350
3B6
  3
A6
350
3B7
  3
A7
350
3B8
  3
A8
350
3B9
  3
A9
350
3BA
  3
B1
350
3BB
  3
B2
350
3BC
  3
B3
350
3BD
  3
B4
350
3BE
  3
B5
350
3BF
  3
B6
350
3C0
  3
B7
350
3C1
  0
DICTIONARY
  5
49F
102
{ACAD_REACTORS
330
376
102
}
330
376
100
AcDbDictionary
281
     1
  0
DICTIONARY
  5
3C2
102
{ACAD_REACTORS
330
376
102
}
330
376
100
AcDbDictionary
281
     1
  3
Standard
350
3C3
  0
DICTIONARY
  5
393
102
{ACAD_REACTORS
330
376
102
}
330
376
100
AcDbDictionary
281
     1
  3
2dWireframe
350
398
  3
Basic
350
39B
  3
Brighten
350
39F
  3
ColorChange
350
3A3
  3
Conceptual
350
39D
  3
Dim
350
39E
  3
EdgeColorOff
350
3A6
  3
Facepattern
350
3A2
  3
Flat
350
394
  3
FlatWithEdges
350
395
  3
Gouraud
350
396
  3
GouraudWithEdges
350
397
  3
Hidden
350
39A
  3
JitterOff
350
3A4
  3
Linepattern
350
3A1
  3
OverhangOff
350
3A5
  3
Realistic
350
39C
  3
Shaded
350
3AB
  3
Shaded with edges
350
3AA
  3
Shades of Gray
350
3A7
  3
Sketchy
350
3A8
  3
Thicken
350
3A0
  3
Wireframe
350
399
  3
X-Ray
350
3A9
  0
XRECORD
  5
49B
102
{ACAD_REACTORS
330
376
102
}
330
376
100
AcDbXrecord
280
     1
 90
        1
330
3C3
  0
DICTIONARY
  5
497
102
{ACAD_REACTORS
330
376
102
}
330
376
100
AcDbDictionary
281
     1
  3
CANNOSCALE
350
498
  3
CMLEADERSTYLE
350
49D
  3
CTABLESTYLE
350
49C
  0
DICTIONARY
  5
3C8
102
{ACAD_REACTORS
330
376
102
}
330
376
100
AcDbDictionary
281
     1
  3
ColorSettings/BackgroundColor
350
3CA
  3
ColorSettings/ColorMode
350
3CB
  3
Grid/DisplayGrid00
350
3CC
  3
Grid/DisplayGrid01
350
3CD
  3
Grid/DisplayGrid02
350
3CE
  3
Grid/DisplayGrid03
350
3CF
  3
Grid/GridSpacingX00
350
3D0
  3
Grid/GridSpacingX01
350
3D1
  3
Grid/GridSpacingX02
350
3D2
  3
Grid/GridSpacingX03
350
3D3
  3
Grid/GridSpacingY00
350
3D4
  3
Grid/GridSpacingY01
350
3D5
  3
Grid/GridSpacingY02
350
3D6
  3
Grid/GridSpacingY03
350
3D7
  3
Grid/IsometricGrid00
350
3D8
  3
Grid/IsometricGrid01
350
3D9
  3
Grid/IsometricGrid02
350
3DA
  3
Grid/IsometricGrid03
350
3DB
  3
Grid/IsometricProjection00
350
3DC
  3
Grid/IsometricProjection01
350
3DD
  3
Grid/IsometricProjection02
350
3DE
  3
Grid/IsometricProjection03
350
3DF
  3
Grid/MetaGridSpacingX00
350
3E0
  3
Grid/MetaGridSpacingX01
350
3E1
  3
Grid/MetaGridSpacingX02
350
3E2
  3
Grid/MetaGridSpacingX03
350
3E3
  3
Grid/MetaGridSpacingY00
350
3E4
  3
Grid/MetaGridSpacingY01
350
3E5
  3
Grid/MetaGridSpacingY02
350
3E6
  3
Grid/MetaGridSpacingY03
350
3E7
  3
MultiPageSettings/Columns
350
3E8
  3
MultiPageSettings/GlueMarginsBottom
350
3E9
  3
MultiPageSettings/GlueMarginsLeft
350
3EA
  3
MultiPageSettings/GlueMarginsRight
350
3EB
  3
MultiPageSettings/GlueMarginsTop
350
3EC
  3
MultiPageSettings/PrintCropMarks
350
3ED
  3
MultiPageSettings/Rows
350
3EE
  3
PageSettings/OffsetX
350
3EF
  3
PageSettings/OffsetY
350
3F0
  3
PageSettings/PageOrientation
350
3F1
  3
PageSettings/PaperHeight
350
3F2
  3
PageSettings/PaperWidth
350
3F3
  3
PageSettings/Scale
350
3F4
  3
PageSettings/ShowPaperBorders
350
3F5
  3
PageTagSettings/EnablePageTags
350
3F6
  3
PageTagSettings/TagAlignment
350
3F7
  3
PageTagSettings/TagFont
350
3F8
  3
PageTagSettings/TagPosition
350
3F9
  3
QCADVersion
350
3FA
  3
UnitSettings/PaperUnit
350
3FB
  3
ViewportCenter
350
3FC
  3
ViewportHeight
350
3FD
  3
ViewportWidth
350
3FE
  0
LAYOUT
  5
38B
102
{ACAD_REACTORS
330
383
102
}
330
383
100
AcDbPlotSettings
  1

  2
none_device
  4
Letter_(8.50_x_11.00_Inches)
  6

 40
6.35
 41
6.35
 42
6.35000508
 43
6.35000508
 44
215.9
 45
279.4
 46
0.0
 47
0.0
 48
0.0
 49
0.0
140
0.0
141
0.0
142
1.0
143
1.0
 70
  1712
 72
     0
 73
     0
 74
     0
  7

 75
     0
 76
     0
 77
     2
 78
   300
147
1.0
148
0.0
149
0.0
100
AcDbLayout
  1
Model
 70
     1
 71
     0
 10
0.0
 20
0.0
 11
420.0
 21
297.0
 12
0.0
 22
0.0
 32
0.0
 14
-581.5425852222546
 24
4.88971431483651
 34
0.0
 15
624.9813067777453
 25
346.6755543148365
 35
0.0
146
0.0
 13
0.0
 23
0.0
 33
0.0
 16
1.0
 26
0.0
 36
0.0
 17
0.0
 27
1.0
 37
0.0
 76
     0
330
388
331
392
  0
LAYOUT
  5
387
102
{ACAD_REACTORS
330
383
102
}
330
383
100
AcDbPlotSettings
  1

  2
none_device
  4
ISO_A4_(210.00_x_297.00_MM)
  6

 40
7.5
 41
20.0
 42
7.5
 43
20.0
 44
210.0
 45
297.0
 46
0.0
 47
0.0
 48
0.0
 49
0.0
140
0.0
141
0.0
142
1.0
143
1.0
 70
   688
 72
     1
 73
     1
 74
     5
  7

 75
    16
 76
     0
 77
     2
 78
   300
147
1.0
148
0.0
149
0.0
100
AcDbLayout
  1
Sheet1
 70
     1
 71
     1
 10
-20.0
 20
-7.5
 11
277.0
 21
202.5
 12
0.0
 22
0.0
 32
0.0
 14
0.0
 24
0.0
 34
0.0
 15
0.0
 25
0.0
 35
0.0
146
0.0
 13
0.0
 23
0.0
 33
0.0
 16
1.0
 26
0.0
 36
0.0
 17
0.0
 27
1.0
 37
0.0
 76
     0
330
384
331
44A
  0
LAYOUT
  5
44D
102
{ACAD_REACTORS
330
383
102
}
330
383
100
AcDbPlotSettings
  1

  2
none_device
  4
ISO_A4_(210.00_x_297.00_MM)
  6

 40
7.5
 41
20.0
 42
7.5
 43
20.0
 44
210.0
 45
297.0
 46
0.0
 47
0.0
 48
0.0
 49
0.0
140
0.0
141
0.0
142
1.0
143
1.0
 70
   688
 72
     1
 73
     1
 74
     5
  7

 75
    16
 76
     0
 77
     2
 78
   300
147
1.0
148
0.0
149
0.0
100
AcDbLayout
  1
Sheet2
 70
     1
 71
     2
 10
0.0
 20
0.0
 11
12.0
 21
9.0
 12
0.0
 22
0.0
 32
0.0
 14
0.0
 24
0.0
 34
0.0
 15
0.0
 25
0.0
 35
0.0
146
0.0
 13
0.0
 23
0.0
 33
0.0
 16
1.0
 26
0.0
 36
0.0
 17
0.0
 27
1.0
 37
0.0
 76
     0
330
44C
331
450
  0
MATERIAL
  5
3AE
102
{ACAD_REACTORS
330
3AC
102
}
330
3AC
100
AcDbMaterial
  1
ByBlock
 72
     1
 94
      127
  0
MATERIAL
  5
3AD
102
{ACAD_REACTORS
330
3AC
102
}
330
3AC
100
AcDbMaterial
  1
ByLayer
 72
     1
 94
      127
  0
MATERIAL
  5
3AF
102
{ACAD_REACTORS
330
3AC
102
}
330
3AC
100
AcDbMaterial
  1
Global
 72
     1
 94
      127
  0
MLEADERSTYLE
  5
3C5
102
{ACAD_REACTORS
330
3C4
102
}
330
3C4
100
AcDbMLeaderStyle
179
     2
170
     2
171
     1
172
     0
 90
        2
 40
0.0
 41
0.0
173
     1
 91
-1056964608
340
37D
 92
       -2
290
     1
 42
0.09
291
     1
 43
0.36
  3
Standard
341
0
 44
0.18
300

342
37B
174
     1
178
     6
175
     1
176
     0
 93
-1056964608
 45
0.18
292
     0
297
     0
 46
0.18
343
0
 94
-1056964608
 47
1.0
 49
1.0
140
1.0
293
     1
141
0.0
294
     1
177
     0
142
1.0
295
     0
296
     0
143
0.125
271
     0
272
     9
273
     9
298
     0
  0
MLINESTYLE
  5
381
102
{ACAD_REACTORS
330
380
102
}
330
380
100
AcDbMlineStyle
  2
Standard
 70
     0
  3

 62
   256
 51
90.0
 52
90.0
 71
     2
 49
0.5
 62
   256
  6
BYLAYER
 49
-0.5
 62
   256
  6
BYLAYER
  0
ACDBPLACEHOLDER
  5
379
102
{ACAD_REACTORS
330
378
102
}
330
378
  0
SCALE
  5
3B1
102
{ACAD_REACTORS
330
3B0
102
}
330
3B0
100
AcDbScale
 70
     0
300
1:1
140
1.0
141
1.0
290
     1
  0
SCALE
  5
3B2
102
{ACAD_REACTORS
330
3B0
102
}
330
3B0
100
AcDbScale
 70
     0
300
1/128" = 1'-0"
140
0.0078125
141
12.0
290
     0
  0
SCALE
  5
3B3
102
{ACAD_REACTORS
330
3B0
102
}
330
3B0
100
AcDbScale
 70
     0
300
1/64" = 1'-0"
140
0.015625
141
12.0
290
     0
  0
SCALE
  5
3B4
102
{ACAD_REACTORS
330
3B0
102
}
330
3B0
100
AcDbScale
 70
     0
300
1/32" = 1'-0"
140
0.03125
141
12.0
290
     0
  0
SCALE
  5
3B5
102
{ACAD_REACTORS
330
3B0
102
}
330
3B0
100
AcDbScale
 70
     0
300
1/16" = 1'-0"
140
0.0625
141
12.0
290
     0
  0
SCALE
  5
3B6
102
{ACAD_REACTORS
330
3B0
102
}
330
3B0
100
AcDbScale
 70
     0
300
3/32" = 1'-0"
140
0.09375
141
12.0
290
     0
  0
SCALE
  5
3B7
102
{ACAD_REACTORS
330
3B0
102
}
330
3B0
100
AcDbScale
 70
     0
300
1/8" = 1'-0"
140
0.125
141
12.0
290
     0
  0
SCALE
  5
3B8
102
{ACAD_REACTORS
330
3B0
102
}
330
3B0
100
AcDbScale
 70
     0
300
3/16" = 1'-0"
140
0.1875
141
12.0
290
     0
  0
SCALE
  5
3B9
102
{ACAD_REACTORS
330
3B0
102
}
330
3B0
100
AcDbScale
 70
     0
300
1/4" = 1'-0"
140
0.25
141
12.0
290
     0
  0
SCALE
  5
3BA
102
{ACAD_REACTORS
330
3B0
102
}
330
3B0
100
AcDbScale
 70
     0
300
3/8" = 1'-0"
140
0.375
141
12.0
290
     0
  0
SCALE
  5
3BB
102
{ACAD_REACTORS
330
3B0
102
}
330
3B0
100
AcDbScale
 70
     0
300
1/2" = 1'-0"
140
0.5
141
12.0
290
     0
  0
SCALE
  5
3BC
102
{ACAD_REACTORS
330
3B0
102
}
330
3B0
100
AcDbScale
 70
     0
300
3/4" = 1'-0"
140
0.75
141
12.0
290
     0
  0
SCALE
  5
3BD
102
{ACAD_REACTORS
330
3B0
102
}
330
3B0
100
AcDbScale
 70
     0
300
1" = 1'-0"
140
1.0
141
12.0
290
     0
  0
SCALE
  5
3BE
102
{ACAD_REACTORS
330
3B0
102
}
330
3B0
100
AcDbScale
 70
     0
300
1-1/2" = 1'-0"
140
1.5
141
12.0
290
     0
  0
SCALE
  5
3BF
102
{ACAD_REACTORS
330
3B0
102
}
330
3B0
100
AcDbScale
 70
     0
300
3" = 1'-0"
140
3.0
141
12.0
290
     0
  0
SCALE
  5
3C0
102
{ACAD_REACTORS
330
3B0
102
}
330
3B0
100
AcDbScale
 70
     0
300
6" = 1'-0"
140
6.0
141
12.0
290
     0
  0
SCALE
  5
3C1
102
{ACAD_REACTORS
330
3B0
102
}
330
3B0
100
AcDbScale
 70
     0
300
1'-0" = 1'-0"
140
12.0
141
12.0
290
     0
  0
TABLESTYLE
  5
3C3
102
{ACAD_REACTORS
330
3C2
102
}
102
{ACAD_XDICTIONARY
360
499
102
}
330
3C2
100
AcDbTableStyle
  3
Standard
 70
     0
 71
     0
 40
0.06
 41
0.06
280
     0
281
     0
  7
Standard
140
0.18
170
     2
 62
     0
 63
   257
283
     0
 90
        4
 91
        0
  1

274
    -2
284
     1
 64
     0
275
    -2
285
     1
 65
     0
276
    -2
286
     1
 66
     0
277
    -2
287
     1
 67
     0
278
    -2
288
     1
 68
     0
279
    -2
289
     1
 69
     0
  7
Standard
140
0.25
170
     5
 62
     0
 63
   257
283
     0
 90
        4
 91
        0
  1

274
    -2
284
     1
 64
     0
275
    -2
285
     1
 65
     0
276
    -2
286
     1
 66
     0
277
    -2
287
     1
 67
     0
278
    -2
288
     1
 68
     0
279
    -2
289
     1
 69
     0
  7
Standard
140
0.18
170
     5
 62
     0
 63
   257
283
     0
 90
        4
 91
        0
  1

274
    -2
284
     1
 64
     0
275
    -2
285
     1
 65
     0
276
    -2
286
     1
 66
     0
277
    -2
287
     1
 67
     0
278
    -2
288
     1
 68
     0
279
    -2
289
     1
 69
     0
  0
VISUALSTYLE
  5
398
102
{ACAD_REACTORS
330
393
102
}
330
393
100
AcDbVisualStyle
  2
2dWireframe
 70
     4
177
     3
291
     0
 70
    58
 90
        0
176
     1
 90
        2
176
     1
 90
        0
176
     1
 90
        0
176
     1
 40
0.6
176
     1
 40
30.0
176
     1
 62
     7
420
 16777215
176
     1
 90
        1
176
     1
 90
        4
176
     1
 62
     7
176
     1
 62
   257
176
     1
 90
        1
176
     1
 90
        1
176
     1
 40
1.0
176
     1
 90
        0
176
     1
 62
   257
176
     1
 40
1.0
176
     1
 90
        1
176
     1
 90
        6
176
     1
 90
        2
176
     1
 62
     7
176
     1
 90
        5
176
     1
 90
        0
176
     1
 90
        0
176
     1
290
     0
176
     1
 90
        1
176
     1
 40
0.0
176
     1
 90
        0
176
     1
290
     1
176
     1
290
     1
176
     1
290
     0
176
     1
290
     0
176
     1
290
     0
176
     1
290
     0
176
     1
290
     0
176
     1
290
     0
176
     1
290
     0
176
     1
 90
       50
176
     1
 40
0.0
176
     1
 40
1.0
176
     1
 90
        0
176
     1
 62
    18
420
        0
176
     1
 90
       50
176
     1
 90
        3
176
     1
 62
     5
420
      255
176
     1
290
     0
176
     1
 90
       50
176
     1
 90
       50
176
     1
 90
       50
176
     1
290
     0
176
     1
 90
       50
176
     1
 62
   256
176
     0
 40
1.0
176
     0
 90
        2
176
     1
  1
strokes_ogs.tif
176
     1
290
     0
176
     1
 40
1.0
176
     1
 40
1.0
176
     1
  0
VISUALSTYLE
  5
39B
102
{ACAD_REACTORS
330
393
102
}
330
393
100
AcDbVisualStyle
  2
Basic
 70
     7
177
     3
291
     1
 70
    58
 90
        1
176
     1
 90
        0
176
     1
 90
        1
176
     1
 90
        0
176
     1
 40
0.6
176
     1
 40
30.0
176
     1
 62
     7
420
 16777215
176
     1
 90
        0
176
     1
 90
        4
176
     1
 62
     7
176
     1
 62
   257
176
     1
 90
        1
176
     1
 90
        1
176
     1
 40
1.0
176
     1
 90
        8
176
     1
 62
     7
176
     1
 40
1.0
176
     1
 90
        1
176
     1
 90
        6
176
     1
 90
        2
176
     1
 62
     7
176
     1
 90
        5
176
     1
 90
        0
176
     1
 90
        0
176
     1
290
     0
176
     1
 90
        1
176
     1
 40
0.0
176
     1
 90
        0
176
     1
290
     0
176
     1
290
     1
176
     1
290
     1
176
     1
290
     0
176
     1
290
     0
176
     1
290
     0
176
     1
290
     0
176
     1
290
     0
176
     1
290
     0
176
     1
 90
       50
176
     1
 40
0.0
176
     1
 40
1.0
176
     1
 90
        0
176
     1
 62
    18
420
        0
176
     1
 90
       50
176
     1
 90
        3
176
     1
 62
     5
420
      255
176
     1
290
     0
176
     1
 90
       50
176
     1
 90
       50
176
     1
 90
       50
176
     1
290
     0
176
     1
 90
       50
176
     1
 62
   256
176
     0
 40
1.0
176
     0
 90
        2
176
     1
  1
strokes_ogs.tif
176
     1
290
     0
176
     1
 40
1.0
176
     1
 40
1.0
176
     1
  0
VISUALSTYLE
  5
39F
102
{ACAD_REACTORS
330
393
102
}
330
393
100
AcDbVisualStyle
  2
Brighten
 70
    12
177
     3
291
     1
 70
    58
 90
        2
176
     1
 90
        2
176
     1
 90
        0
176
     1
 90
        0
176
     1
 40
0.6
176
     1
 40
30.0
176
     1
 62
     7
420
 16777215
176
     1
 90
        1
176
     1
 90
        4
176
     1
 62
     7
176
     1
 62
   257
176
     1
 90
        1
176
     1
 90
        1
176
     1
 40
1.0
176
     1
 90
        8
176
     1
 62
     7
176
     1
 40
1.0
176
     1
 90
        1
176
     1
 90
        6
176
     1
 90
        2
176
     1
 62
     7
176
     1
 90
        5
176
     1
 90
        0
176
     1
 90
        0
176
     1
290
     0
176
     1
 90
        1
176
     1
 40
50.0
176
     1
 90
        0
176
     1
290
     0
176
     1
290
     1
176
     1
290
     1
176
     1
290
     0
176
     1
290
     0
176
     1
290
     0
176
     1
290
     0
176
     1
290
     0
176
     1
290
     0
176
     1
 90
       50
176
     1
 40
0.0
176
     1
 40
1.0
176
     1
 90
        0
176
     1
 62
    18
420
        0
176
     1
 90
       50
176
     1
 90
        3
176
     1
 62
     5
420
      255
176
     1
290
     0
176
     1
 90
       50
176
     1
 90
       50
176
     1
 90
       50
176
     1
290
     0
176
     1
 90
       50
176
     1
 62
   256
176
     0
 40
1.0
176
     0
 90
        2
176
     1
  1
strokes_ogs.tif
176
     1
290
     0
176
     1
 40
1.0
176
     1
 40
1.0
176
     1
  0
VISUALSTYLE
  5
3A3
102
{ACAD_REACTORS
330
393
102
}
330
393
100
AcDbVisualStyle
  2
ColorChange
 70
    16
177
     3
291
     1
 70
    58
 90
        2
176
     1
 90
        2
176
     1
 90
        3
176
     1
 90
        0
176
     1
 40
0.6
176
     1
 40
30.0
176
     1
 62
     8
420
  8421504
176
     1
 90
        1
176
     1
 90
        4
176
     1
 62
     7
176
     1
 62
   257
176
     1
 90
        1
176
     1
 90
        1
176
     1
 40
1.0
176
     1
 90
        8
176
     1
 62
     8
420
  8421504
176
     1
 40
1.0
176
     1
 90
        1
176
     1
 90
        6
176
     1
 90
        2
176
     1
 62
     7
176
     1
 90
        5
176
     1
 90
        0
176
     1
 90
        0
176
     1
290
     0
176
     1
 90
        1
176
     1
 40
0.0
176
     1
 90
        0
176
     1
290
     0
176
     1
290
     1
176
     1
290
     1
176
     1
290
     0
176
     1
290
     0
176
     1
290
     0
176
     1
290
     0
176
     1
290
     0
176
     1
290
     0
176
     1
 90
       50
176
     1
 40
0.0
176
     1
 40
1.0
176
     1
 90
        0
176
     1
 62
    18
420
        0
176
     1
 90
       50
176
     1
 90
        3
176
     1
 62
     5
420
      255
176
     1
290
     0
176
     1
 90
       50
176
     1
 90
       50
176
     1
 90
       50
176
     1
290
     0
176
     1
 90
       50
176
     1
 62
   256
176
     0
 40
1.0
176
     0
 90
        2
176
     1
  1
strokes_ogs.tif
176
     1
290
     0
176
     1
 40
1.0
176
     1
 40
1.0
176
     1
  0
VISUALSTYLE
  5
39D
102
{ACAD_REACTORS
330
393
102
}
330
393
100
AcDbVisualStyle
  2
Conceptual
 70
     9
177
     3
291
     0
 70
    58
 90
        3
176
     1
 90
        2
176
     1
 90
        0
176
     1
 90
        0
176
     1
 40
0.6
176
     1
 40
30.0
176
     1
 62
     7
420
 16777215
176
     1
 90
        2
176
     1
 90
        2
176
     1
 62
     7
176
     1
 62
   257
176
     1
 90
        1
176
     1
 90
        1
176
     1
 40
179.0
176
     1
 90
        8
176
     1
 62
     7
176
     1
 40
1.0
176
     1
 90
        1
176
     1
 90
        6
176
     1
 90
        2
176
     1
 62
     7
176
     1
 90
        3
176
     1
 90
        0
176
     1
 90
        0
176
     1
290
     0
176
     1
 90
        1
176
     1
 40
0.0
176
     1
 90
        0
176
     1
290
     0
176
     1
290
     1
176
     1
290
     1
176
     1
290
     0
176
     1
290
     0
176
     1
290
     0
176
     1
290
     0
176
     1
290
     0
176
     1
290
     0
176
     1
 90
       50
176
     1
 40
0.0
176
     1
 40
1.0
176
     1
 90
        0
176
     1
 62
    18
420
        0
176
     1
 90
       50
176
     1
 90
        3
176
     1
 62
     5
420
      255
176
     1
290
     0
176
     1
 90
       50
176
     1
 90
       50
176
     1
 90
       50
176
     1
290
     0
176
     1
 90
       50
176
     1
 62
   256
176
     0
 40
1.0
176
     0
 90
        2
176
     1
  1
strokes_ogs.tif
176
     1
290
     0
176
     1
 40
1.0
176
     1
 40
1.0
176
     1
  0
VISUALSTYLE
  5
39E
102
{ACAD_REACTORS
330
393
102
}
330
393
100
AcDbVisualStyle
  2
Dim
 70
    11
177
     3
291
     1
 70
    58
 90
        2
176
     1
 90
        2
176
     1
 90
        0
176
     1
 90
        0
176
     1
 40
0.6
176
     1
 40
30.0
176
     1
 62
     7
420
 16777215
176
     1
 90
        1
176
     1
 90
        4
176
     1
 62
     7
176
     1
 62
   257
176
     1
 90
        1
176
     1
 90
        1
176
     1
 40
1.0
176
     1
 90
        8
176
     1
 62
     7
176
     1
 40
1.0
176
     1
 90
        1
176
     1
 90
        6
176
     1
 90
        2
176
     1
 62
     7
176
     1
 90
        5
176
     1
 90
        0
176
     1
 90
        0
176
     1
290
     0
176
     1
 90
        1
176
     1
 40
-50.0
176
     1
 90
        0
176
     1
290
     0
176
     1
290
     1
176
     1
290
     1
176
     1
290
     0
176
     1
290
     0
176
     1
290
     0
176
     1
290
     0
176
     1
290
     0
176
     1
290
     0
176
     1
 90
       50
176
     1
 40
0.0
176
     1
 40
1.0
176
     1
 90
        0
176
     1
 62
    18
420
        0
176
     1
 90
       50
176
     1
 90
        3
176
     1
 62
     5
420
      255
176
     1
290
     0
176
     1
 90
       50
176
     1
 90
       50
176
     1
 90
       50
176
     1
290
     0
176
     1
 90
       50
176
     1
 62
   256
176
     0
 40
1.0
176
     0
 90
        2
176
     1
  1
strokes_ogs.tif
176
     1
290
     0
176
     1
 40
1.0
176
     1
 40
1.0
176
     1
  0
VISUALSTYLE
  5
3A6
102
{ACAD_REACTORS
330
393
102
}
330
393
100
AcDbVisualStyle
  2
EdgeColorOff
 70
    22
177
     3
291
     1
 70
    58
 90
        2
176
     0
 90
        2
176
     0
 90
        0
176
     0
 90
        0
176
     0
 40
0.6
176
     0
 40
30.0
176
     0
 62
     7
420
 16777215
176
     0
 90
        1
176
     0
 90
        4
176
     0
 62
     7
176
     0
 62
   257
176
     0
 90
        1
176
     0
 90
        1
176
     0
 40
1.0
176
     0
 90
        8
176
     2
 62
     7
176
     0
 40
1.0
176
     0
 90
        1
176
     0
 90
        6
176
     0
 90
        2
176
     0
 62
     7
176
     0
 90
        5
176
     0
 90
        0
176
     0
 90
        0
176
     0
290
     0
176
     0
 90
        1
176
     0
 40
0.0
176
     0
 90
        0
176
     0
290
     0
176
     0
290
     1
176
     0
290
     1
176
     0
290
     0
176
     0
290
     0
176
     0
290
     0
176
     0
290
     0
176
     0
290
     0
176
     0
290
     0
176
     0
 90
       50
176
     0
 40
0.0
176
     0
 40
1.0
176
     0
 90
        0
176
     0
 62
    18
420
        0
176
     0
 90
       50
176
     0
 90
        3
176
     0
 62
     5
420
      255
176
     0
290
     0
176
     0
 90
       50
176
     0
 90
       50
176
     0
 90
       50
176
     0
290
     0
176
     0
 90
       50
176
     0
 62
   256
176
     0
 40
1.0
176
     0
 90
        2
176
     0
  1
strokes_ogs.tif
176
     0
290
     0
176
     0
 40
1.0
176
     0
 40
1.0
176
     0
  0
VISUALSTYLE
  5
3A2
102
{ACAD_REACTORS
330
393
102
}
330
393
100
AcDbVisualStyle
  2
Facepattern
 70
    15
177
     3
291
     1
 70
    58
 90
        2
176
     1
 90
        2
176
     1
 90
        0
176
     1
 90
        0
176
     1
 40
0.6
176
     1
 40
30.0
176
     1
 62
     7
420
 16777215
176
     1
 90
        1
176
     1
 90
        4
176
     1
 62
     7
176
     1
 62
   257
176
     1
 90
        1
176
     1
 90
        1
176
     1
 40
1.0
176
     1
 90
        8
176
     1
 62
     7
176
     1
 40
1.0
176
     1
 90
        1
176
     1
 90
        6
176
     1
 90
        2
176
     1
 62
     7
176
     1
 90
        5
176
     1
 90
        0
176
     1
 90
        0
176
     1
290
     0
176
     1
 90
        1
176
     1
 40
0.0
176
     1
 90
        0
176
     1
290
     0
176
     1
290
     1
176
     1
290
     1
176
     1
290
     0
176
     1
290
     0
176
     1
290
     0
176
     1
290
     0
176
     1
290
     0
176
     1
290
     0
176
     1
 90
       50
176
     1
 40
0.0
176
     1
 40
1.0
176
     1
 90
        0
176
     1
 62
    18
420
        0
176
     1
 90
       50
176
     1
 90
        3
176
     1
 62
     5
420
      255
176
     1
290
     0
176
     1
 90
       50
176
     1
 90
       50
176
     1
 90
       50
176
     1
290
     0
176
     1
 90
       50
176
     1
 62
   256
176
     0
 40
1.0
176
     0
 90
        2
176
     1
  1
strokes_ogs.tif
176
     1
290
     0
176
     1
 40
1.0
176
     1
 40
1.0
176
     1
  0
VISUALSTYLE
  5
394
102
{ACAD_REACTORS
330
393
102
}
330
393
100
AcDbVisualStyle
  2
Flat
 70
     0
177
     3
291
     1
 70
    58
 90
        2
176
     1
 90
        1
176
     1
 90
        1
176
     1
 90
        2
176
     1
 40
0.6
176
     1
 40
30.0
176
     1
 62
     7
420
 16777215
176
     1
 90
        0
176
     1
 90
        0
176
     1
 62
     7
176
     1
 62
   257
176
     1
 90
        1
176
     1
 90
        1
176
     1
 40
1.0
176
     1
 90
        8
176
     1
 62
     7
176
     1
 40
1.0
176
     1
 90
        1
176
     1
 90
        6
176
     1
 90
        2
176
     1
 62
     7
176
     1
 90
        5
176
     1
 90
        0
176
     1
 90
        0
176
     1
290
     0
176
     1
 90
       13
176
     1
 40
0.0
176
     1
 90
        0
176
     1
290
     0
176
     1
290
     1
176
     1
290
     1
176
     1
290
     0
176
     1
290
     0
176
     1
290
     0
176
     1
290
     0
176
     1
290
     0
176
     1
290
     0
176
     1
 90
       50
176
     1
 40
0.0
176
     1
 40
1.0
176
     1
 90
        0
176
     1
 62
    18
420
        0
176
     1
 90
       50
176
     1
 90
        3
176
     1
 62
     5
420
      255
176
     1
290
     0
176
     1
 90
       50
176
     1
 90
       50
176
     1
 90
       50
176
     1
290
     0
176
     1
 90
       50
176
     1
 62
   256
176
     0
 40
1.0
176
     0
 90
        2
176
     1
  1
strokes_ogs.tif
176
     1
290
     0
176
     1
 40
1.0
176
     1
 40
1.0
176
     1
  0
VISUALSTYLE
  5
395
102
{ACAD_REACTORS
330
393
102
}
330
393
100
AcDbVisualStyle
  2
FlatWithEdges
 70
     1
177
     3
291
     1
 70
    58
 90
        2
176
     1
 90
        1
176
     1
 90
        1
176
     1
 90
        2
176
     1
 40
0.6
176
     1
 40
30.0
176
     1
 62
     7
420
 16777215
176
     1
 90
        1
176
     1
 90
        0
176
     1
 62
     7
176
     1
 62
   257
176
     1
 90
        1
176
     1
 90
        1
176
     1
 40
1.0
176
     1
 90
        0
176
     1
 62
   257
176
     1
 40
1.0
176
     1
 90
        1
176
     1
 90
        6
176
     1
 90
        2
176
     1
 62
     7
176
     1
 90
        5
176
     1
 90
        0
176
     1
 90
        0
176
     1
290
     0
176
     1
 90
       13
176
     1
 40
0.0
176
     1
 90
        0
176
     1
290
     0
176
     1
290
     1
176
     1
290
     1
176
     1
290
     0
176
     1
290
     0
176
     1
290
     0
176
     1
290
     0
176
     1
290
     0
176
     1
290
     0
176
     1
 90
       50
176
     1
 40
0.0
176
     1
 40
1.0
176
     1
 90
        0
176
     1
 62
    18
420
        0
176
     1
 90
       50
176
     1
 90
        3
176
     1
 62
     5
420
      255
176
     1
290
     0
176
     1
 90
       50
176
     1
 90
       50
176
     1
 90
       50
176
     1
290
     0
176
     1
 90
       50
176
     1
 62
   256
176
     0
 40
1.0
176
     0
 90
        2
176
     1
  1
strokes_ogs.tif
176
     1
290
     0
176
     1
 40
1.0
176
     1
 40
1.0
176
     1
  0
VISUALSTYLE
  5
396
102
{ACAD_REACTORS
330
393
102
}
330
393
100
AcDbVisualStyle
  2
Gouraud
 70
     2
177
     3
291
     1
 70
    58
 90
        2
176
     1
 90
        2
176
     1
 90
        1
176
     1
 90
        2
176
     1
 40
0.6
176
     1
 40
30.0
176
     1
 62
     7
420
 16777215
176
     1
 90
        0
176
     1
 90
        0
176
     1
 62
     7
176
     1
 62
   257
176
     1
 90
        1
176
     1
 90
        1
176
     1
 40
1.0
176
     1
 90
        0
176
     1
 62
     7
176
     1
 40
1.0
176
     1
 90
        1
176
     1
 90
        6
176
     1
 90
        2
176
     1
 62
     7
176
     1
 90
        5
176
     1
 90
        0
176
     1
 90
        0
176
     1
290
     0
176
     1
 90
       13
176
     1
 40
0.0
176
     1
 90
        0
176
     1
290
     0
176
     1
290
     1
176
     1
290
     1
176
     1
290
     0
176
     1
290
     0
176
     1
290
     0
176
     1
290
     0
176
     1
290
     0
176
     1
290
     0
176
     1
 90
       50
176
     1
 40
0.0
176
     1
 40
1.0
176
     1
 90
        0
176
     1
 62
    18
420
        0
176
     1
 90
       50
176
     1
 90
        3
176
     1
 62
     5
420
      255
176
     1
290
     0
176
     1
 90
       50
176
     1
 90
       50
176
     1
 90
       50
176
     1
290
     0
176
     1
 90
       50
176
     1
 62
   256
176
     0
 40
1.0
176
     0
 90
        2
176
     1
  1
strokes_ogs.tif
176
     1
290
     0
176
     1
 40
1.0
176
     1
 40
1.0
176
     1
  0
VISUALSTYLE
  5
397
102
{ACAD_REACTORS
330
393
102
}
330
393
100
AcDbVisualStyle
  2
GouraudWithEdges
 70
     3
177
     3
291
     1
 70
    58
 90
        2
176
     1
 90
        2
176
     1
 90
        1
176
     1
 90
        2
176
     1
 40
0.6
176
     1
 40
30.0
176
     1
 62
     7
420
 16777215
176
     1
 90
        1
176
     1
 90
        0
176
     1
 62
     7
176
     1
 62
   257
176
     1
 90
        1
176
     1
 90
        1
176
     1
 40
1.0
176
     1
 90
        0
176
     1
 62
   257
176
     1
 40
1.0
176
     1
 90
        1
176
     1
 90
        6
176
     1
 90
        2
176
     1
 62
     7
176
     1
 90
        5
176
     1
 90
        0
176
     1
 90
        0
176
     1
290
     0
176
     1
 90
       13
176
     1
 40
0.0
176
     1
 90
        0
176
     1
290
     0
176
     1
290
     1
176
     1
290
     1
176
     1
290
     0
176
     1
290
     0
176
     1
290
     0
176
     1
290
     0
176
     1
290
     0
176
     1
290
     0
176
     1
 90
       50
176
     1
 40
0.0
176
     1
 40
1.0
176
     1
 90
        0
176
     1
 62
    18
420
        0
176
     1
 90
       50
176
     1
 90
        3
176
     1
 62
     5
420
      255
176
     1
290
     0
176
     1
 90
       50
176
     1
 90
       50
176
     1
 90
       50
176
     1
290
     0
176
     1
 90
       50
176
     1
 62
   256
176
     0
 40
1.0
176
     0
 90
        2
176
     1
  1
strokes_ogs.tif
176
     1
290
     0
176
     1
 40
1.0
176
     1
 40
1.0
176
     1
  0
VISUALSTYLE
  5
39A
102
{ACAD_REACTORS
330
393
102
}
330
393
100
AcDbVisualStyle
  2
Hidden
 70
     6
177
     3
291
     0
 70
    58
 90
        1
176
     1
 90
        2
176
     1
 90
        2
176
     1
 90
        0
176
     1
 40
0.6
176
     1
 40
30.0
176
     1
 62
     7
420
 16777215
176
     1
 90
        2
176
     1
 90
        2
176
     1
 62
     7
176
     1
 62
   257
176
     1
 90
        2
176
     1
 90
        1
176
     1
 40
40.0
176
     1
 90
        0
176
     1
 62
   257
176
     1
 40
1.0
176
     1
 90
        1
176
     1
 90
        6
176
     1
 90
        2
176
     1
 62
     7
176
     1
 90
        3
176
     1
 90
        0
176
     1
 90
        0
176
     1
290
     0
176
     1
 90
        1
176
     1
 40
0.0
176
     1
 90
        0
176
     1
290
     0
176
     1
290
     1
176
     1
290
     1
176
     1
290
     0
176
     1
290
     0
176
     1
290
     0
176
     1
290
     0
176
     1
290
     0
176
     1
290
     0
176
     1
 90
       50
176
     1
 40
0.0
176
     1
 40
1.0
176
     1
 90
        0
176
     1
 62
    18
420
        0
176
     1
 90
       50
176
     1
 90
        3
176
     1
 62
     5
420
      255
176
     1
290
     0
176
     1
 90
       50
176
     1
 90
       50
176
     1
 90
       50
176
     1
290
     0
176
     1
 90
       50
176
     1
 62
   256
176
     0
 40
1.0
176
     0
 90
        2
176
     1
  1
strokes_ogs.tif
176
     1
290
     0
176
     1
 40
1.0
176
     1
 40
1.0
176
     1
  0
VISUALSTYLE
  5
3A4
102
{ACAD_REACTORS
330
393
102
}
330
393
100
AcDbVisualStyle
  2
JitterOff
 70
    20
177
     3
291
     1
 70
    58
 90
        2
176
     0
 90
        2
176
     0
 90
        0
176
     0
 90
        0
176
     0
 40
0.6
176
     0
 40
30.0
176
     0
 62
     7
420
 16777215
176
     0
 90
        1
176
     0
 90
        4
176
     0
 62
     7
176
     0
 62
   257
176
     0
 90
        1
176
     0
 90
        1
176
     0
 40
1.0
176
     0
 90
       10
176
     2
 62
     7
176
     0
 40
1.0
176
     0
 90
        1
176
     0
 90
        6
176
     0
 90
        2
176
     0
 62
     7
176
     0
 90
        5
176
     0
 90
        0
176
     0
 90
        0
176
     0
290
     0
176
     0
 90
        1
176
     0
 40
0.0
176
     0
 90
        0
176
     0
290
     0
176
     0
290
     1
176
     0
290
     1
176
     0
290
     0
176
     0
290
     0
176
     0
290
     0
176
     0
290
     0
176
     0
290
     0
176
     0
290
     0
176
     0
 90
       50
176
     0
 40
0.0
176
     0
 40
1.0
176
     0
 90
        0
176
     0
 62
    18
420
        0
176
     0
 90
       50
176
     0
 90
        3
176
     0
 62
     5
420
      255
176
     0
290
     0
176
     0
 90
       50
176
     0
 90
       50
176
     0
 90
       50
176
     0
290
     0
176
     0
 90
       50
176
     0
 62
   256
176
     0
 40
1.0
176
     0
 90
        2
176
     0
  1
strokes_ogs.tif
176
     0
290
     0
176
     0
 40
1.0
176
     0
 40
1.0
176
     0
  0
VISUALSTYLE
  5
3A1
102
{ACAD_REACTORS
330
393
102
}
330
393
100
AcDbVisualStyle
  2
Linepattern
 70
    14
177
     3
291
     1
 70
    58
 90
        2
176
     1
 90
        2
176
     1
 90
        0
176
     1
 90
        0
176
     1
 40
0.6
176
     1
 40
30.0
176
     1
 62
     7
420
 16777215
176
     1
 90
        1
176
     1
 90
        4
176
     1
 62
     7
176
     1
 62
   257
176
     1
 90
        7
176
     1
 90
        7
176
     1
 40
1.0
176
     1
 90
        8
176
     1
 62
     7
176
     1
 40
1.0
176
     1
 90
        1
176
     1
 90
        6
176
     1
 90
        2
176
     1
 62
     7
176
     1
 90
        5
176
     1
 90
        0
176
     1
 90
        0
176
     1
290
     0
176
     1
 90
        1
176
     1
 40
0.0
176
     1
 90
        0
176
     1
290
     0
176
     1
290
     1
176
     1
290
     1
176
     1
290
     0
176
     1
290
     0
176
     1
290
     0
176
     1
290
     0
176
     1
290
     0
176
     1
290
     0
176
     1
 90
       50
176
     1
 40
0.0
176
     1
 40
1.0
176
     1
 90
        0
176
     1
 62
    18
420
        0
176
     1
 90
       50
176
     1
 90
        3
176
     1
 62
     5
420
      255
176
     1
290
     0
176
     1
 90
       50
176
     1
 90
       50
176
     1
 90
       50
176
     1
290
     0
176
     1
 90
       50
176
     1
 62
   256
176
     0
 40
1.0
176
     0
 90
        2
176
     1
  1
strokes_ogs.tif
176
     1
290
     0
176
     1
 40
1.0
176
     1
 40
1.0
176
     1
  0
VISUALSTYLE
  5
3A5
102
{ACAD_REACTORS
330
393
102
}
330
393
100
AcDbVisualStyle
  2
OverhangOff
 70
    21
177
     3
291
     1
 70
    58
 90
        2
176
     0
 90
        2
176
     0
 90
        0
176
     0
 90
        0
176
     0
 40
0.6
176
     0
 40
30.0
176
     0
 62
     7
420
 16777215
176
     0
 90
        1
176
     0
 90
        4
176
     0
 62
     7
176
     0
 62
   257
176
     0
 90
        1
176
     0
 90
        1
176
     0
 40
1.0
176
     0
 90
        9
176
     2
 62
     7
176
     0
 40
1.0
176
     0
 90
        1
176
     0
 90
        6
176
     0
 90
        2
176
     0
 62
     7
176
     0
 90
        5
176
     0
 90
        0
176
     0
 90
        0
176
     0
290
     0
176
     0
 90
        1
176
     0
 40
0.0
176
     0
 90
        0
176
     0
290
     0
176
     0
290
     1
176
     0
290
     1
176
     0
290
     0
176
     0
290
     0
176
     0
290
     0
176
     0
290
     0
176
     0
290
     0
176
     0
290
     0
176
     0
 90
       50
176
     0
 40
0.0
176
     0
 40
1.0
176
     0
 90
        0
176
     0
 62
    18
420
        0
176
     0
 90
       50
176
     0
 90
        3
176
     0
 62
     5
420
      255
176
     0
290
     0
176
     0
 90
       50
176
     0
 90
       50
176
     0
 90
       50
176
     0
290
     0
176
     0
 90
       50
176
     0
 62
   256
176
     0
 40
1.0
176
     0
 90
        2
176
     0
  1
strokes_ogs.tif
176
     0
290
     0
176
     0
 40
1.0
176
     0
 40
1.0
176
     0
  0
VISUALSTYLE
  5
39C
102
{ACAD_REACTORS
330
393
102
}
330
393
100
AcDbVisualStyle
  2
Realistic
 70
     8
177
     3
291
     0
 70
    58
 90
        2
176
     1
 90
        3
176
     1
 90
        0
176
     1
 90
        2
176
     1
 40
0.6
176
     1
 40
30.0
176
     1
 62
     7
420
 16777215
176
     1
 90
        0
176
     1
 90
        0
176
     1
 62
     7
176
     1
 62
   257
176
     1
 90
        1
176
     1
 90
        1
176
     1
 40
1.0
176
     1
 90
        8
176
     1
 62
   257
176
     1
 40
1.0
176
     1
 90
        1
176
     1
 90
        6
176
     1
 90
        2
176
     1
 62
     7
176
     1
 90
        3
176
     1
 90
        0
176
     1
 90
        0
176
     1
290
     0
176
     1
 90
       13
176
     1
 40
0.0
176
     1
 90
        0
176
     1
290
     0
176
     1
290
     1
176
     1
290
     1
176
     1
290
     0
176
     1
290
     0
176
     1
290
     0
176
     1
290
     0
176
     1
290
     0
176
     1
290
     0
176
     1
 90
       50
176
     1
 40
0.0
176
     1
 40
1.0
176
     1
 90
        0
176
     1
 62
    18
420
        0
176
     1
 90
       50
176
     1
 90
        3
176
     1
 62
     5
420
      255
176
     1
290
     0
176
     1
 90
       50
176
     1
 90
       50
176
     1
 90
       50
176
     1
290
     0
176
     1
 90
       50
176
     1
 62
   256
176
     0
 40
1.0
176
     0
 90
        2
176
     1
  1
strokes_ogs.tif
176
     1
290
     0
176
     1
 40
1.0
176
     1
 40
1.0
176
     1
  0
VISUALSTYLE
  5
3AB
102
{ACAD_REACTORS
330
393
102
}
330
393
100
AcDbVisualStyle
  2
Shaded
 70
    27
177
     3
291
     0
 70
    58
 90
        2
176
     1
 90
        2
176
     1
 90
        1
176
     1
 90
        2
176
     1
 40
0.6
176
     1
 40
30.0
176
     1
 62
     7
420
 16777215
176
     1
 90
        0
176
     1
 90
        4
176
     1
 62
     7
176
     1
 62
   257
176
     1
 90
        1
176
     1
 90
        1
176
     1
 40
1.0
176
     1
 90
        8
176
     1
 62
   257
176
     1
 40
1.0
176
     1
 90
        1
176
     1
 90
        6
176
     1
 90
        2
176
     1
 62
     8
420
  7895160
176
     1
 90
        3
176
     1
 90
        0
176
     1
 90
        0
176
     1
290
     0
176
     1
 90
        5
176
     1
 40
0.0
176
     1
 90
        0
176
     1
290
     0
176
     1
290
     1
176
     1
290
     1
176
     1
290
     0
176
     1
290
     0
176
     1
290
     0
176
     1
290
     0
176
     1
290
     0
176
     1
290
     0
176
     1
 90
       50
176
     1
 40
0.0
176
     1
 40
1.0
176
     1
 90
        0
176
     1
 62
    18
420
        0
176
     1
 90
       50
176
     1
 90
        3
176
     1
 62
     5
420
      255
176
     1
290
     0
176
     1
 90
       50
176
     1
 90
       50
176
     1
 90
       50
176
     1
290
     0
176
     1
 90
       50
176
     1
 62
   256
176
     0
 40
1.0
176
     0
 90
        2
176
     1
  1
strokes_ogs.tif
176
     1
290
     0
176
     1
 40
1.0
176
     1
 40
1.0
176
     1
  0
VISUALSTYLE
  5
3AA
102
{ACAD_REACTORS
330
393
102
}
330
393
100
AcDbVisualStyle
  2
Shaded with edges
 70
    26
177
     3
291
     0
 70
    58
 90
        2
176
     1
 90
        2
176
     1
 90
        1
176
     1
 90
        2
176
     1
 40
0.6
176
     1
 40
30.0
176
     1
 62
     7
420
 16777215
176
     1
 90
        1
176
     1
 90
       10
176
     1
 62
     7
176
     1
 62
   257
176
     1
 90
        2
176
     1
 90
        1
176
     1
 40
1.0
176
     1
 90
        8
176
     1
 62
   257
176
     1
 40
1.0
176
     1
 90
        1
176
     1
 90
        6
176
     1
 90
        2
176
     1
 62
     7
176
     1
 90
        3
176
     1
 90
        0
176
     1
 90
        0
176
     1
290
     0
176
     1
 90
        5
176
     1
 40
0.0
176
     1
 90
        0
176
     1
290
     0
176
     1
290
     1
176
     1
290
     1
176
     1
290
     0
176
     1
290
     0
176
     1
290
     0
176
     1
290
     0
176
     1
290
     0
176
     1
290
     0
176
     1
 90
       50
176
     1
 40
0.0
176
     1
 40
1.0
176
     1
 90
        0
176
     1
 62
    18
420
        0
176
     1
 90
       50
176
     1
 90
        3
176
     1
 62
     5
420
      255
176
     1
290
     0
176
     1
 90
       50
176
     1
 90
       50
176
     1
 90
       50
176
     1
290
     0
176
     1
 90
       50
176
     1
 62
   256
176
     0
 40
1.0
176
     0
 90
        2
176
     1
  1
strokes_ogs.tif
176
     1
290
     0
176
     1
 40
1.0
176
     1
 40
1.0
176
     1
  0
VISUALSTYLE
  5
3A7
102
{ACAD_REACTORS
330
393
102
}
330
393
100
AcDbVisualStyle
  2
Shades of Gray
 70
    23
177
     3
291
     0
 70
    58
 90
        2
176
     1
 90
        2
176
     1
 90
        3
176
     1
 90
        0
176
     1
 40
0.6
176
     1
 40
30.0
176
     1
 62
     7
420
 16777215
176
     1
 90
        2
176
     1
 90
        2
176
     1
 62
     7
176
     1
 62
     7
176
     1
 90
        1
176
     1
 90
        1
176
     1
 40
40.0
176
     1
 90
        8
176
     1
 62
     7
176
     1
 40
1.0
176
     1
 90
        1
176
     1
 90
        6
176
     1
 90
        2
176
     1
 62
     7
176
     1
 90
        3
176
     1
 90
        0
176
     1
 90
        0
176
     1
290
     0
176
     1
 90
        1
176
     1
 40
0.0
176
     1
 90
        0
176
     1
290
     0
176
     1
290
     1
176
     1
290
     1
176
     1
290
     0
176
     1
290
     0
176
     1
290
     0
176
     1
290
     0
176
     1
290
     0
176
     1
290
     0
176
     1
 90
       50
176
     1
 40
0.0
176
     1
 40
1.0
176
     1
 90
        0
176
     1
 62
    18
420
        0
176
     1
 90
       50
176
     1
 90
        3
176
     1
 62
     5
420
      255
176
     1
290
     0
176
     1
 90
       50
176
     1
 90
       50
176
     1
 90
       50
176
     1
290
     0
176
     1
 90
       50
176
     1
 62
   256
176
     0
 40
1.0
176
     0
 90
        2
176
     1
  1
strokes_ogs.tif
176
     1
290
     0
176
     1
 40
1.0
176
     1
 40
1.0
176
     1
  0
VISUALSTYLE
  5
3A8
102
{ACAD_REACTORS
330
393
102
}
330
393
100
AcDbVisualStyle
  2
Sketchy
 70
    24
177
     3
291
     0
 70
    58
 90
        1
176
     1
 90
        2
176
     1
 90
        2
176
     1
 90
        0
176
     1
 40
0.6
176
     1
 40
30.0
176
     1
 62
     7
420
 16777215
176
     1
 90
        2
176
     1
 90
        2
176
     1
 62
     7
176
     1
 62
     7
176
     1
 90
        1
176
     1
 90
        1
176
     1
 40
40.0
176
     1
 90
       11
176
     1
 62
     7
176
     1
 40
1.0
176
     1
 90
        1
176
     1
 90
        6
176
     1
 90
        2
176
     1
 62
     7
176
     1
 90
        6
176
     1
 90
        0
176
     1
 90
        0
176
     1
290
     0
176
     1
 90
        1
176
     1
 40
0.0
176
     1
 90
        0
176
     1
290
     0
176
     1
290
     1
176
     1
290
     1
176
     1
290
     0
176
     1
290
     0
176
     1
290
     0
176
     1
290
     0
176
     1
290
     0
176
     1
290
     0
176
     1
 90
       50
176
     1
 40
0.0
176
     1
 40
1.0
176
     1
 90
        0
176
     1
 62
    18
420
        0
176
     1
 90
       50
176
     1
 90
        3
176
     1
 62
     5
420
      255
176
     1
290
     0
176
     1
 90
       50
176
     1
 90
       50
176
     1
 90
       50
176
     1
290
     0
176
     1
 90
       50
176
     1
 62
   256
176
     0
 40
1.0
176
     0
 90
        2
176
     1
  1
strokes_ogs.tif
176
     1
290
     0
176
     1
 40
1.0
176
     1
 40
1.0
176
     1
  0
VISUALSTYLE
  5
3A0
102
{ACAD_REACTORS
330
393
102
}
330
393
100
AcDbVisualStyle
  2
Thicken
 70
    13
177
     3
291
     1
 70
    58
 90
        2
176
     1
 90
        2
176
     1
 90
        0
176
     1
 90
        0
176
     1
 40
0.6
176
     1
 40
30.0
176
     1
 62
     7
420
 16777215
176
     1
 90
        1
176
     1
 90
        4
176
     1
 62
     7
176
     1
 62
   257
176
     1
 90
        1
176
     1
 90
        1
176
     1
 40
1.0
176
     1
 90
       12
176
     1
 62
     7
176
     1
 40
1.0
176
     1
 90
        1
176
     1
 90
        6
176
     1
 90
        2
176
     1
 62
     7
176
     1
 90
        5
176
     1
 90
        0
176
     1
 90
        0
176
     1
290
     0
176
     1
 90
        1
176
     1
 40
0.0
176
     1
 90
        0
176
     1
290
     0
176
     1
290
     1
176
     1
290
     1
176
     1
290
     0
176
     1
290
     0
176
     1
290
     0
176
     1
290
     0
176
     1
290
     0
176
     1
290
     0
176
     1
 90
       50
176
     1
 40
0.0
176
     1
 40
1.0
176
     1
 90
        0
176
     1
 62
    18
420
        0
176
     1
 90
       50
176
     1
 90
        3
176
     1
 62
     5
420
      255
176
     1
290
     0
176
     1
 90
       50
176
     1
 90
       50
176
     1
 90
       50
176
     1
290
     0
176
     1
 90
       50
176
     1
 62
   256
176
     0
 40
1.0
176
     0
 90
        2
176
     1
  1
strokes_ogs.tif
176
     1
290
     0
176
     1
 40
1.0
176
     1
 40
1.0
176
     1
  0
VISUALSTYLE
  5
399
102
{ACAD_REACTORS
330
393
102
}
330
393
100
AcDbVisualStyle
  2
Wireframe
 70
     5
177
     3
291
     0
 70
    58
 90
        0
176
     1
 90
        2
176
     1
 90
        0
176
     1
 90
        0
176
     1
 40
0.6
176
     1
 40
30.0
176
     1
 62
     7
420
 16777215
176
     1
 90
        1
176
     1
 90
        4
176
     1
 62
     7
176
     1
 62
   257
176
     1
 90
        1
176
     1
 90
        1
176
     1
 40
1.0
176
     1
 90
        0
176
     1
 62
   257
176
     1
 40
1.0
176
     1
 90
        1
176
     1
 90
        6
176
     1
 90
        2
176
     1
 62
     7
176
     1
 90
        3
176
     1
 90
        0
176
     1
 90
        0
176
     1
290
     0
176
     1
 90
        1
176
     1
 40
0.0
176
     1
 90
        0
176
     1
290
     0
176
     1
290
     1
176
     1
290
     1
176
     1
290
     0
176
     1
290
     0
176
     1
290
     0
176
     1
290
     0
176
     1
290
     0
176
     1
290
     0
176
     1
 90
       50
176
     1
 40
0.0
176
     1
 40
1.0
176
     1
 90
        0
176
     1
 62
    18
420
        0
176
     1
 90
       50
176
     1
 90
        3
176
     1
 62
     5
420
      255
176
     1
290
     0
176
     1
 90
       50
176
     1
 90
       50
176
     1
 90
       50
176
     1
290
     0
176
     1
 90
       50
176
     1
 62
   256
176
     0
 40
1.0
176
     0
 90
        2
176
     1
  1
strokes_ogs.tif
176
     1
290
     0
176
     1
 40
1.0
176
     1
 40
1.0
176
     1
  0
VISUALSTYLE
  5
3A9
102
{ACAD_REACTORS
330
393
102
}
330
393
100
AcDbVisualStyle
  2
X-Ray
 70
    25
177
     3
291
     0
 70
    58
 90
        2
176
     1
 90
        2
176
     1
 90
        1
176
     1
 90
        1
176
     1
 40
0.5
176
     1
 40
30.0
176
     1
 62
     7
420
 16777215
176
     1
 90
        1
176
     1
 90
        0
176
     1
 62
     7
176
     1
 62
   257
176
     1
 90
        1
176
     1
 90
        1
176
     1
 40
1.0
176
     1
 90
        8
176
     1
 62
     7
176
     1
 40
1.0
176
     1
 90
        1
176
     1
 90
        6
176
     1
 90
        2
176
     1
 62
     7
176
     1
 90
        3
176
     1
 90
        0
176
     1
 90
        0
176
     1
290
     0
176
     1
 90
       13
176
     1
 40
0.0
176
     1
 90
        0
176
     1
290
     0
176
     1
290
     1
176
     1
290
     1
176
     1
290
     0
176
     1
290
     0
176
     1
290
     0
176
     1
290
     0
176
     1
290
     0
176
     1
290
     0
176
     1
 90
       50
176
     1
 40
0.0
176
     1
 40
1.0
176
     1
 90
        0
176
     1
 62
    18
420
        0
176
     1
 90
       50
176
     1
 90
        3
176
     1
 62
     5
420
      255
176
     1
290
     0
176
     1
 90
       50
176
     1
 90
       50
176
     1
 90
       50
176
     1
290
     0
176
     1
 90
       50
176
     1
 62
   256
176
     0
 40
1.0
176
     0
 90
        2
176
     1
  1
strokes_ogs.tif
176
     1
290
     0
176
     1
 40
1.0
176
     1
 40
1.0
176
     1
  0
DICTIONARYVAR
  5
498
102
{ACAD_REACTORS
330
497
102
}
330
497
100
DictionaryVariables
280
     0
  1
1:1
  0
DICTIONARYVAR
  5
49D
102
{ACAD_REACTORS
330
497
102
}
330
497
100
DictionaryVariables
280
     0
  1
Standard
  0
DICTIONARYVAR
  5
49C
102
{ACAD_REACTORS
330
497
102
}
330
497
100
DictionaryVariables
280
     0
  1
Standard
  0
XRECORD
  5
3CA
102
{ACAD_REACTORS
330
3C8
102
}
330
3C8
100
AcDbXrecord
280
     1
1000
#ffffff
  0
XRECORD
  5
3CB
102
{ACAD_REACTORS
330
3C8
102
}
330
3C8
100
AcDbXrecord
280
     1
1000
FullColor
  0
XRECORD
  5
3CC
102
{ACAD_REACTORS
330
3C8
102
}
330
3C8
100
AcDbXrecord
280
     1
290
     0
  0
XRECORD
  5
3CD
102
{ACAD_REACTORS
330
3C8
102
}
330
3C8
100
AcDbXrecord
280
     1
290
     0
  0
XRECORD
  5
3CE
102
{ACAD_REACTORS
330
3C8
102
}
330
3C8
100
AcDbXrecord
280
     1
290
     0
  0
XRECORD
  5
3CF
102
{ACAD_REACTORS
330
3C8
102
}
330
3C8
100
AcDbXrecord
280
     1
290
     0
  0
XRECORD
  5
3D0
102
{ACAD_REACTORS
330
3C8
102
}
330
3C8
100
AcDbXrecord
280
     1
1000
auto
  0
XRECORD
  5
3D1
102
{ACAD_REACTORS
330
3C8
102
}
330
3C8
100
AcDbXrecord
280
     1
1000
auto
  0
XRECORD
  5
3D2
102
{ACAD_REACTORS
330
3C8
102
}
330
3C8
100
AcDbXrecord
280
     1
1000
auto
  0
XRECORD
  5
3D3
102
{ACAD_REACTORS
330
3C8
102
}
330
3C8
100
AcDbXrecord
280
     1
1000
auto
  0
XRECORD
  5
3D4
102
{ACAD_REACTORS
330
3C8
102
}
330
3C8
100
AcDbXrecord
280
     1
1000
auto
  0
XRECORD
  5
3D5
102
{ACAD_REACTORS
330
3C8
102
}
330
3C8
100
AcDbXrecord
280
     1
1000
auto
  0
XRECORD
  5
3D6
102
{ACAD_REACTORS
330
3C8
102
}
330
3C8
100
AcDbXrecord
280
     1
1000
auto
  0
XRECORD
  5
3D7
102
{ACAD_REACTORS
330
3C8
102
}
330
3C8
100
AcDbXrecord
280
     1
1000
auto
  0
XRECORD
  5
3D8
102
{ACAD_REACTORS
330
3C8
102
}
330
3C8
100
AcDbXrecord
280
     1
290
     0
  0
XRECORD
  5
3D9
102
{ACAD_REACTORS
330
3C8
102
}
330
3C8
100
AcDbXrecord
280
     1
290
     0
  0
XRECORD
  5
3DA
102
{ACAD_REACTORS
330
3C8
102
}
330
3C8
100
AcDbXrecord
280
     1
290
     0
  0
XRECORD
  5
3DB
102
{ACAD_REACTORS
330
3C8
102
}
330
3C8
100
AcDbXrecord
280
     1
290
     0
  0
XRECORD
  5
3DC
102
{ACAD_REACTORS
330
3C8
102
}
330
3C8
100
AcDbXrecord
280
     1
 90
    65537
  0
XRECORD
  5
3DD
102
{ACAD_REACTORS
330
3C8
102
}
330
3C8
100
AcDbXrecord
280
     1
 90
    65537
  0
XRECORD
  5
3DE
102
{ACAD_REACTORS
330
3C8
102
}
330
3C8
100
AcDbXrecord
280
     1
 90
    65537
  0
XRECORD
  5
3DF
102
{ACAD_REACTORS
330
3C8
102
}
330
3C8
100
AcDbXrecord
280
     1
 90
    65537
  0
XRECORD
  5
3E0
102
{ACAD_REACTORS
330
3C8
102
}
330
3C8
100
AcDbXrecord
280
     1
1000
auto
  0
XRECORD
  5
3E1
102
{ACAD_REACTORS
330
3C8
102
}
330
3C8
100
AcDbXrecord
280
     1
1000
auto
  0
XRECORD
  5
3E2
102
{ACAD_REACTORS
330
3C8
102
}
330
3C8
100
AcDbXrecord
280
     1
1000
auto
  0
XRECORD
  5
3E3
102
{ACAD_REACTORS
330
3C8
102
}
330
3C8
100
AcDbXrecord
280
     1
1000
auto
  0
XRECORD
  5
3E4
102
{ACAD_REACTORS
330
3C8
102
}
330
3C8
100
AcDbXrecord
280
     1
1000
auto
  0
XRECORD
  5
3E5
102
{ACAD_REACTORS
330
3C8
102
}
330
3C8
100
AcDbXrecord
280
     1
1000
auto
  0
XRECORD
  5
3E6
102
{ACAD_REACTORS
330
3C8
102
}
330
3C8
100
AcDbXrecord
280
     1
1000
auto
  0
XRECORD
  5
3E7
102
{ACAD_REACTORS
330
3C8
102
}
330
3C8
100
AcDbXrecord
280
     1
1000
auto
  0
XRECORD
  5
3E8
102
{ACAD_REACTORS
330
3C8
102
}
330
3C8
100
AcDbXrecord
280
     1
 90
        1
  0
XRECORD
  5
3E9
102
{ACAD_REACTORS
330
3C8
102
}
330
3C8
100
AcDbXrecord
280
     1
 40
10.0
  0
XRECORD
  5
3EA
102
{ACAD_REACTORS
330
3C8
102
}
330
3C8
100
AcDbXrecord
280
     1
 40
10.0
  0
XRECORD
  5
3EB
102
{ACAD_REACTORS
330
3C8
102
}
330
3C8
100
AcDbXrecord
280
     1
 40
10.0
  0
XRECORD
  5
3EC
102
{ACAD_REACTORS
330
3C8
102
}
330
3C8
100
AcDbXrecord
280
     1
 40
10.0
  0
XRECORD
  5
3ED
102
{ACAD_REACTORS
330
3C8
102
}
330
3C8
100
AcDbXrecord
280
     1
290
     0
  0
XRECORD
  5
3EE
102
{ACAD_REACTORS
330
3C8
102
}
330
3C8
100
AcDbXrecord
280
     1
 90
        1
  0
XRECORD
  5
3EF
102
{ACAD_REACTORS
330
3C8
102
}
330
3C8
100
AcDbXrecord
280
     1
 40
0.0
  0
XRECORD
  5
3F0
102
{ACAD_REACTORS
330
3C8
102
}
330
3C8
100
AcDbXrecord
280
     1
 40
0.0
  0
XRECORD
  5
3F1
102
{ACAD_REACTORS
330
3C8
102
}
330
3C8
100
AcDbXrecord
280
     1
1000
Portrait
  0
XRECORD
  5
3F2
102
{ACAD_REACTORS
330
3C8
102
}
330
3C8
100
AcDbXrecord
280
     1
 40
279.4
  0
XRECORD
  5
3F3
102
{ACAD_REACTORS
330
3C8
102
}
330
3C8
100
AcDbXrecord
280
     1
 40
215.9
  0
XRECORD
  5
3F4
102
{ACAD_REACTORS
330
3C8
102
}
330
3C8
100
AcDbXrecord
280
     1
1000
1:1
  0
XRECORD
  5
3F5
102
{ACAD_REACTORS
330
3C8
102
}
330
3C8
100
AcDbXrecord
280
     1
290
     1
  0
XRECORD
  5
3F6
102
{ACAD_REACTORS
330
3C8
102
}
330
3C8
100
AcDbXrecord
280
     1
290
     0
  0
XRECORD
  5
3F7
102
{ACAD_REACTORS
330
3C8
102
}
330
3C8
100
AcDbXrecord
280
     1
1000
Inside
  0
XRECORD
  5
3F8
102
{ACAD_REACTORS
330
3C8
102
}
330
3C8
100
AcDbXrecord
280
     1
1000
Arial,10,-1,5,50,0,0,0,0,0
  0
XRECORD
  5
3F9
102
{ACAD_REACTORS
330
3C8
102
}
330
3C8
100
AcDbXrecord
280
     1
1000
TopLeft
  0
XRECORD
  5
3FA
102
{ACAD_REACTORS
330
3C8
102
}
330
3C8
100
AcDbXrecord
280
     1
1000
3.29.6
  0
XRECORD
  5
3FB
102
{ACAD_REACTORS
330
3C8
102
}
330
3C8
100
AcDbXrecord
280
     1
 90
        4
  0
XRECORD
  5
3FC
102
{ACAD_REACTORS
330
3C8
102
}
330
3C8
100
AcDbXrecord
280
     1
  0
XRECORD
  5
3FD
102
{ACAD_REACTORS
330
3C8
102
}
330
3C8
100
AcDbXrecord
280
     1
 40
633.1575164346531
  0
XRECORD
  5
3FE
102
{ACAD_REACTORS
330
3C8
102
}
330
3C8
100
AcDbXrecord
280
     1
 40
1224.990904384638
  0
DICTIONARY
  5
499
330
3C3
100
AcDbDictionary
280
     1
281
     1
  3
ACAD_ROUNDTRIP_2008_TABLESTYLE_CELLSTYLEMAP
360
49A
  0
CELLSTYLEMAP
  5
49A
102
{ACAD_REACTORS
330
499
102
}
330
499
100
AcDbCellStyleMap
 90
        3
300
CELLSTYLE
  1
TABLEFORMAT_BEGIN
 90
        5
170
     1
 91
        0
 92
    32768
 62
   257
 93
        1
300
CONTENTFORMAT
  1
CONTENTFORMAT_BEGIN
 90
        0
 91
        0
 92
        4
 93
        0
300

 40
0.0
140
1.0
 94
        5
 62
     0
340
37B
144
0.25
309
CONTENTFORMAT_END
171
     1
301
MARGIN
  1
CELLMARGIN_BEGIN
 40
0.06
 40
0.06
 40
0.06
 40
0.06
 40
0.06
 40
0.06
309
CELLMARGIN_END
 94
        6
 95
        1
302
GRIDFORMAT
  1
GRIDFORMAT_BEGIN
 90
        0
 91
        1
 62
     0
 92
       -2
340
37D
 93
        0
 40
0.045
309
GRIDFORMAT_END
 95
        2
302
GRIDFORMAT
  1
GRIDFORMAT_BEGIN
 90
        0
 91
        1
 62
     0
 92
       -2
340
37D
 93
        0
 40
0.045
309
GRIDFORMAT_END
 95
        4
302
GRIDFORMAT
  1
GRIDFORMAT_BEGIN
 90
        0
 91
        1
 62
     0
 92
       -2
340
37D
 93
        0
 40
0.045
309
GRIDFORMAT_END
 95
        8
302
GRIDFORMAT
  1
GRIDFORMAT_BEGIN
 90
        0
 91
        1
 62
     0
 92
       -2
340
37D
 93
        0
 40
0.045
309
GRIDFORMAT_END
 95
       16
302
GRIDFORMAT
  1
GRIDFORMAT_BEGIN
 90
        0
 91
        1
 62
     0
 92
       -2
340
37D
 93
        0
 40
0.045
309
GRIDFORMAT_END
 95
       32
302
GRIDFORMAT
  1
GRIDFORMAT_BEGIN
 90
        0
 91
        1
 62
     0
 92
       -2
340
37D
 93
        0
 40
0.045
309
GRIDFORMAT_END
309
TABLEFORMAT_END
  1
CELLSTYLE_BEGIN
 90
        1
 91
        1
300
_TITLE
309
CELLSTYLE_END
300
CELLSTYLE
  1
TABLEFORMAT_BEGIN
 90
        5
170
     1
 91
        0
 92
        0
 62
   257
 93
        1
300
CONTENTFORMAT
  1
CONTENTFORMAT_BEGIN
 90
        0
 91
        0
 92
        4
 93
        0
300

 40
0.0
140
1.0
 94
        5
 62
     0
340
37B
144
0.18
309
CONTENTFORMAT_END
171
     1
301
MARGIN
  1
CELLMARGIN_BEGIN
 40
0.06
 40
0.06
 40
0.06
 40
0.06
 40
0.06
 40
0.06
309
CELLMARGIN_END
 94
        6
 95
        1
302
GRIDFORMAT
  1
GRIDFORMAT_BEGIN
 90
        0
 91
        1
 62
     0
 92
       -2
340
37D
 93
        0
 40
0.045
309
GRIDFORMAT_END
 95
        2
302
GRIDFORMAT
  1
GRIDFORMAT_BEGIN
 90
        0
 91
        1
 62
     0
 92
       -2
340
37D
 93
        0
 40
0.045
309
GRIDFORMAT_END
 95
        4
302
GRIDFORMAT
  1
GRIDFORMAT_BEGIN
 90
        0
 91
        1
 62
     0
 92
       -2
340
37D
 93
        0
 40
0.045
309
GRIDFORMAT_END
 95
        8
302
GRIDFORMAT
  1
GRIDFORMAT_BEGIN
 90
        0
 91
        1
 62
     0
 92
       -2
340
37D
 93
        0
 40
0.045
309
GRIDFORMAT_END
 95
       16
302
GRIDFORMAT
  1
GRIDFORMAT_BEGIN
 90
        0
 91
        1
 62
     0
 92
       -2
340
37D
 93
        0
 40
0.045
309
GRIDFORMAT_END
 95
       32
302
GRIDFORMAT
  1
GRIDFORMAT_BEGIN
 90
        0
 91
        1
 62
     0
 92
       -2
340
37D
 93
        0
 40
0.045
309
GRIDFORMAT_END
309
TABLEFORMAT_END
  1
CELLSTYLE_BEGIN
 90
        2
 91
        1
300
_HEADER
309
CELLSTYLE_END
300
CELLSTYLE
  1
TABLEFORMAT_BEGIN
 90
        5
170
     1
 91
        0
 92
        0
 62
   257
 93
        1
300
CONTENTFORMAT
  1
CONTENTFORMAT_BEGIN
 90
        0
 91
        0
 92
        4
 93
        0
300

 40
0.0
140
1.0
 94
        2
 62
     0
340
37B
144
0.18
309
CONTENTFORMAT_END
171
     1
301
MARGIN
  1
CELLMARGIN_BEGIN
 40
0.06
 40
0.06
 40
0.06
 40
0.06
 40
0.06
 40
0.06
309
CELLMARGIN_END
 94
        6
 95
        1
302
GRIDFORMAT
  1
GRIDFORMAT_BEGIN
 90
        0
 91
        1
 62
     0
 92
       -2
340
37D
 93
        0
 40
0.045
309
GRIDFORMAT_END
 95
        2
302
GRIDFORMAT
  1
GRIDFORMAT_BEGIN
 90
        0
 91
        1
 62
     0
 92
       -2
340
37D
 93
        0
 40
0.045
309
GRIDFORMAT_END
 95
        4
302
GRIDFORMAT
  1
GRIDFORMAT_BEGIN
 90
        0
 91
        1
 62
     0
 92
       -2
340
37D
 93
        0
 40
0.045
309
GRIDFORMAT_END
 95
        8
302
GRIDFORMAT
  1
GRIDFORMAT_BEGIN
 90
        0
 91
        1
 62
     0
 92
       -2
340
37D
 93
        0
 40
0.045
309
GRIDFORMAT_END
 95
       16
302
GRIDFORMAT
  1
GRIDFORMAT_BEGIN
 90
        0
 91
        1
 62
     0
 92
       -2
340
37D
 93
        0
 40
0.045
309
GRIDFORMAT_END
 95
       32
302
GRIDFORMAT
  1
GRIDFORMAT_BEGIN
 90
        0
 91
        1
 62
     0
 92
       -2
340
37D
 93
        0
 40
0.045
309
GRIDFORMAT_END
309
TABLEFORMAT_END
  1
CELLSTYLE_BEGIN
 90
        3
 91
        2
300
_DATA
309
CELLSTYLE_END
  0
ENDSEC
  0
EOF
