0
SECTION
2
HEADER
9
$INSUNITS
70
4
9
$ACADVER
1
AC1014
9
$HANDSEED
5
FFFF
0
ENDSEC
0
SECTION
2
TABLES
0
TABLE
2
VPORT
5
8
100
AcDbSymbolTable
0
ENDTAB
0
TABLE
2
LTYPE
5
5
100
AcDbSymbolTable
0
LTYPE
5
14
100
AcDbSymbolTableRecord
100
AcDbLinetypeTableRecord
2
BYBLOCK
70
0
0
LTYPE
5
15
100
AcDbSymbolTableRecord
100
AcDbLinetypeTableRecord
2
BYLAYER
70
0
0
LTYPE
5
16
100
AcDbSymbolTableRecord
100
AcDbLinetypeTableRecord
2
DASHED
70
0
3
Dashed __ __ __ __ __ __ __ __ __ __ __ __ __ _
72
65
73
2
40
0.75
49
0.5
74
0
49
-0.25
74
0
0
ENDTAB
0
TABLE
2
LAYER
5
2
100
AcDbSymbolTable
70
2
0
LAYER
5
50
100
AcDbSymbolTableRecord
100
AcDbLayerTableRecord
2
0
70
0
62
7
6
CONTINUOUS
0
ENDTAB
0
TABLE
2
STYLE
5
3
100
AcDbSymbolTable
70
1
0
STYLE
5
11
100
AcDbSymbolTableRecord
100
AcDbTextStyleTableRecord
2
STANDARD
70
0
0
ENDTAB
0
TABLE
2
VIEW
5
6
100
AcDbSymbolTable
70
0
0
ENDTAB
0
TABLE
2
UCS
5
7
100
AcDbSymbolTable
70
0
0
ENDTAB
0
TABLE
2
APPID
5
9
100
AcDbSymbolTable
70
2
0
APPID
5
12
100
AcDbSymbolTableRecord
100
AcDbRegAppTableRecord
2
ACAD
70
0
0
ENDTAB
0
TABLE
2
DIMSTYLE
5
A
100
AcDbSymbolTable
70
1
0
ENDTAB
0
TABLE
2
BLOCK_RECORD
5
1
100
AcDbSymbolTable
70
1
0
BLOCK_RECORD
5
1F
100
AcDbSymbolTableRecord
100
AcDbBlockTableRecord
2
*MODEL_SPACE
0
BLOCK_RECORD
5
1B
100
AcDbSymbolTableRecord
100
AcDbBlockTableRecord
2
*PAPER_SPACE
0
ENDTAB
0
ENDSEC
0
SECTION
2
BLOCKS
0
BLOCK
5
20
100
AcDbEntity
100
AcDbBlockBegin
2
*MODEL_SPACE
0
ENDBLK
5
21
100
AcDbEntity
100
AcDbBlockEnd
0
BLOCK
5
1C
100
AcDbEntity
100
AcDbBlockBegin
2
*PAPER_SPACE
0
ENDBLK
5
1D
100
AcDbEntity
100
AcDbBlockEnd
0
ENDSEC
0
SECTION
2
ENTITIES
0
LWPOLYLINE
5
100
100
AcDbEntity
8
OUTER_PROFILES
100
AcDbPolyline
90
18
70
1
43
0.0
10
705.02931616894398
20
554.10002684670906
42
0.41421356237308032
10
705.02931616894398
20
552.68581328433595
10
710.52389342116851
20
547.19123603211153
10
710.52389342116862
20
543.33265738834893
10
705.02931616894375
20
537.83808013612384
42
0.41421356237308032
10
705.02931616894386
20
536.42386657375084
10
710.52389342116771
20
530.92928932152688
10
710.52389342116771
20
6.5725203057809267e-11
10
0
20
0
10
-1.4732659536775827e-12
20
530.92928932152358
10
5.4945772522224434
20
536.42386657374743
42
0.41421356237311163
10
5.4945772522224701
20
537.83808013612065
10
-2.3914203950425872e-12
20
543.3326573883453
10
-2.5091040356528538e-12
20
547.19123603210801
10
5.4945772522220437
20
552.68581328433254
42
0.41421356237311324
10
5.4945772522220562
20
554.10002684670576
10
0.070710678116654435
20
559.52389342081119
10
710.45318274304975
20
559.52389342081472
0
CIRCLE
5
101
100
AcDbEntity
8
INTERIOR_PROFILES
100
AcDbCircle
10
-707.52389342116703
20
506.99999999964552
30
0
40
1.7000000000000171
210
0
220
0
230
-1
0
CIRCLE
5
102
100
AcDbEntity
8
INTERIOR_PROFILES
100
AcDbCircle
10
-707.5238934211668
20
328.99999999964552
30
0
40
1.7000000000000171
210
0
220
0
230
-1
0
CIRCLE
5
103
100
AcDbEntity
8
INTERIOR_PROFILES
100
AcDbCircle
10
-3.0000000000233134
20
506.99999999963961
30
0
40
1.7000000000000171
210
0
220
0
230
-1
0
CIRCLE
5
104
100
AcDbEntity
8
INTERIOR_PROFILES
100
AcDbCircle
10
-3.0000000000238063
20
328.99999999963961
30
0
40
1.7000000000000171
210
0
220
0
230
-1
0
CIRCLE
5
105
100
AcDbEntity
8
INTERIOR_PROFILES
100
AcDbCircle
10
-3.0000000000243006
20
150.99999999963961
30
0
40
1.7000000000000171
210
0
220
0
230
-1
0
CIRCLE
5
106
100
AcDbEntity
8
INTERIOR_PROFILES
100
AcDbCircle
10
-14.26194671041063
20
466.99999999964206
30
0
40
6.5
210
0
220
0
230
-1
0
CIRCLE
5
107
100
AcDbEntity
8
INTERIOR_PROFILES
100
AcDbCircle
10
-696.26194671076871
20
466.99999999964564
30
0
40
6.5000000000000568
210
0
220
0
230
-1
0
CIRCLE
5
108
100
AcDbEntity
8
INTERIOR_PROFILES
100
AcDbCircle
10
-155.26194671058394
20
4.9999999999963052
30
0
40
1.6999999999999993
210
0
220
0
230
-1
0
CIRCLE
5
109
100
AcDbEntity
8
INTERIOR_PROFILES
100
AcDbCircle
10
-14.261946710410726
20
506.99999999964206
30
0
40
1.6999999999999993
210
0
220
0
230
-1
0
CIRCLE
5
110
100
AcDbEntity
8
INTERIOR_PROFILES
100
AcDbCircle
10
-14.261946710424805
20
528.999999999642
30
0
40
1.6999999999999993
210
0
220
0
230
-1
0
CIRCLE
5
111
100
AcDbEntity
8
INTERIOR_PROFILES
100
AcDbCircle
10
-14.261946710410744
20
450.99999999964206
30
0
40
1.6999999999999993
210
0
220
0
230
-1
0
CIRCLE
5
112
100
AcDbEntity
8
INTERIOR_PROFILES
100
AcDbCircle
10
-14.26194671047455
20
227.99999999909164
30
0
40
1.6999999999999993
210
0
220
0
230
-1
0
CIRCLE
5
113
100
AcDbEntity
8
INTERIOR_PROFILES
100
AcDbCircle
10
-14.261946710436423
20
44.999999999932427
30
0
40
1.6999999999999993
210
0
220
0
230
-1
0
CIRCLE
5
114
100
AcDbEntity
8
INTERIOR_PROFILES
100
AcDbCircle
10
-14.261946710377853
20
150.99999999917139
30
0
40
1.6999999999999993
210
0
220
0
230
-1
0
CIRCLE
5
115
100
AcDbEntity
8
INTERIOR_PROFILES
100
AcDbCircle
10
-455.26194671058386
20
4.9999999999978684
30
0
40
1.7000000000000171
210
0
220
0
230
-1
0
CIRCLE
5
116
100
AcDbEntity
8
INTERIOR_PROFILES
100
AcDbCircle
10
-624.26194671058386
20
4.999999999998721
30
0
40
1.7000000000000171
210
0
220
0
230
-1
0
CIRCLE
5
117
100
AcDbEntity
8
INTERIOR_PROFILES
100
AcDbCircle
10
-40.261946710613472
20
4.9999999999325695
30
0
40
1.6999999999999993
210
0
220
0
230
-1
0
CIRCLE
5
118
100
AcDbEntity
8
INTERIOR_PROFILES
100
AcDbCircle
10
-14.261946710191326
20
4.9999999999584332
30
0
40
1.6999999999999993
210
0
220
0
230
-1
0
CIRCLE
5
119
100
AcDbEntity
8
INTERIOR_PROFILES
100
AcDbCircle
10
-696.26194671076985
20
259.99999999964564
30
0
40
1.7000000000000171
210
0
220
0
230
-1
0
CIRCLE
5
120
100
AcDbEntity
8
INTERIOR_PROFILES
100
AcDbCircle
10
-696.2619467108043
20
227.99999999903469
30
0
40
1.7000000000000171
210
0
220
0
230
-1
0
CIRCLE
5
121
100
AcDbEntity
8
INTERIOR_PROFILES
100
AcDbCircle
10
-696.26194671099245
20
4.9999999999991473
30
0
40
1.7000000000000171
210
0
220
0
230
-1
0
CIRCLE
5
122
100
AcDbEntity
8
INTERIOR_PROFILES
100
AcDbCircle
10
-696.26194671076883
20
450.99999999964558
30
0
40
1.7000000000000171
210
0
220
0
230
-1
0
CIRCLE
5
123
100
AcDbEntity
8
INTERIOR_PROFILES
100
AcDbCircle
10
-696.26194671080475
20
150.99999999903474
30
0
40
1.7000000000000171
210
0
220
0
230
-1
0
CIRCLE
5
124
100
AcDbEntity
8
INTERIOR_PROFILES
100
AcDbCircle
10
-696.26194671076951
20
328.99999999964564
30
0
40
1.7000000000000171
210
0
220
0
230
-1
0
CIRCLE
5
125
100
AcDbEntity
8
INTERIOR_PROFILES
100
AcDbCircle
10
-696.2619467107686
20
528.99999999964564
30
0
40
1.7000000000000171
210
0
220
0
230
-1
0
CIRCLE
5
126
100
AcDbEntity
8
INTERIOR_PROFILES
100
AcDbCircle
10
-696.26194671076871
20
482.99999999964564
30
0
40
1.7000000000000171
210
0
220
0
230
-1
0
CIRCLE
5
127
100
AcDbEntity
8
INTERIOR_PROFILES
100
AcDbCircle
10
-696.26194671076883
20
506.99999999964564
30
0
40
1.7000000000000171
210
0
220
0
230
-1
0
CIRCLE
5
128
100
AcDbEntity
8
INTERIOR_PROFILES
100
AcDbCircle
10
-86.261946710613486
20
4.9999999999327116
30
0
40
1.6999999999999993
210
0
220
0
230
-1
0
CIRCLE
5
129
100
AcDbEntity
8
INTERIOR_PROFILES
100
AcDbCircle
10
-555.26194671058397
20
4.9999999999983658
30
0
40
1.7000000000000171
210
0
220
0
230
-1
0
CIRCLE
5
130
100
AcDbEntity
8
INTERIOR_PROFILES
100
AcDbCircle
10
-696.26194671099245
20
12.999999999999119
30
0
40
1.7000000000000171
210
0
220
0
230
-1
0
CIRCLE
5
131
100
AcDbEntity
8
INTERIOR_PROFILES
100
AcDbCircle
10
-355.26194671035108
20
4.999999999643876
30
0
40
1.7000000000000171
210
0
220
0
230
-1
0
CIRCLE
5
132
100
AcDbEntity
8
INTERIOR_PROFILES
100
AcDbCircle
10
-670.26194671058408
20
4.9999999999989342
30
0
40
1.7000000000000171
210
0
220
0
230
-1
0
CIRCLE
5
133
100
AcDbEntity
8
INTERIOR_PROFILES
100
AcDbCircle
10
-696.26194671074745
20
44.999999999936051
30
0
40
1.7000000000000171
210
0
220
0
230
-1
0
CIRCLE
5
134
100
AcDbEntity
8
INTERIOR_PROFILES
100
AcDbCircle
10
-14.261946710419906
20
328.99999999964211
30
0
40
1.6999999999999993
210
0
220
0
230
-1
0
CIRCLE
5
135
100
AcDbEntity
8
INTERIOR_PROFILES
100
AcDbCircle
10
-14.261946710422304
20
259.99999999964223
30
0
40
1.6999999999999993
210
0
220
0
230
-1
0
CIRCLE
5
136
100
AcDbEntity
8
INTERIOR_PROFILES
100
AcDbCircle
10
-14.261946710191374
20
12.999999999958334
30
0
40
1.6999999999999993
210
0
220
0
230
-1
0
CIRCLE
5
137
100
AcDbEntity
8
INTERIOR_PROFILES
100
AcDbCircle
10
-55.261946710583914
20
4.9999999999957367
30
0
40
1.6999999999999993
210
0
220
0
230
-1
0
CIRCLE
5
138
100
AcDbEntity
8
INTERIOR_PROFILES
100
AcDbCircle
10
-14.261946710411506
20
482.99999999964206
30
0
40
1.6999999999999993
210
0
220
0
230
-1
0
CIRCLE
5
139
100
AcDbEntity
8
INTERIOR_PROFILES
100
AcDbCircle
10
-255.26194671058389
20
4.9999999999968026
30
0
40
1.7000000000000171
210
0
220
0
230
-1
0
CIRCLE
5
140
100
AcDbEntity
8
INTERIOR_PROFILES
100
AcDbCircle
10
-707.5238934211668
20
150.99999999964547
30
0
40
1.7000000000000171
210
0
220
0
230
-1
0
LINE
5
141
100
AcDbEntity
8
BEND
100
AcDbLine
10
704.3929200658763
20
537.13097335493808
30
-3.3684982962934419e-11
11
704.3929200658763
21
553.3929200655225
31
-3.3705100285218694e-11
0
LINE
5
142
100
AcDbEntity
8
BEND
100
AcDbLine
10
704.3929200658763
20
553.3929200655225
30
-3.3705100285218694e-11
11
704.39292006587607
21
559.52389342081472
31
-3.3841978556813948e-11
0
LINE
5
143
100
AcDbEntity
8
BEND
100
AcDbLine
10
704.39292006587596
20
6.5512040237081237e-11
30
-1.7716194994576608e-11
11
704.3929200658763
21
537.13097335493808
31
-3.3684982962934419e-11
0
LINE
5
144
100
AcDbEntity
8
BEND
100
AcDbLine
10
704.73642295013053
20
537.13097335493808
30
-3.3722821776031803e-11
11
5.7874704710359026
21
537.13097335493455
31
-1.6203067934511096e-11
0
LINE
5
145
100
AcDbEntity
8
BEND
100
AcDbLine
10
6.1309733552898349
20
553.39292006551898
30
-1.5848980885814953e-11
11
6.130973355289882
21
537.13097335493455
31
-1.5828863563530681e-11
0
LINE
5
146
100
AcDbEntity
8
BEND
100
AcDbLine
10
6.130973355289882
20
537.13097335493455
30
-1.5828863563530681e-11
11
6.130973355291923
21
0
31
1.4709270392408533e-13
0
LINE
5
147
100
AcDbEntity
8
BEND
100
AcDbLine
10
6.130973355290017
20
559.52389342081131
30
-1.5966152698723124e-11
11
6.1309733552898349
21
553.39292006551898
31
-1.5848980885814953e-11
0
LINE
5
148
100
AcDbEntity
8
BEND
100
AcDbLine
10
704.73642295013076
20
553.3929200655225
30
-3.3720092990993014e-11
11
5.7874704710354763
21
553.39292006551898
31
-1.5956338621473184e-11
0
LINE
5
149
100
AcDbEntity
8
BEND_EXTENT
100
AcDbLine
10
5.0000000000000711
20
0
30
1.4247366376512023e-14
11
4.9999999999984421
21
535.92928932152347
31
-1.616478237881628e-11
0
LINE
5
150
100
AcDbEntity
8
BEND_EXTENT
100
AcDbLine
10
7.261946710582353
20
535.99999999964211
30
-1.5864742140012411e-11
11
7.2619467105839588
21
-7.1054273576010019e-14
31
9.8512878075229109e-14
0
LINE
5
151
100
AcDbEntity
8
BEND_EXTENT
100
AcDbLine
10
703.26194671058397
20
535.99999999964552
30
-3.366301850396282e-11
11
7.261946710582353
21
535.99999999964211
31
-1.5864742140012411e-11
0
LINE
5
152
100
AcDbEntity
8
BEND_EXTENT
100
AcDbLine
10
703.26194671058386
20
6.5796257331385277e-11
30
-1.7699763485876993e-11
11
703.26194671058397
21
535.99999999964552
31
-3.366301850396282e-11
0
LINE
5
153
100
AcDbEntity
8
BEND_EXTENT
100
AcDbLine
10
4.9999999999976783
20
554.59460409893018
30
-1.6010297947345878e-11
11
4.9999999999976712
21
559.52389342081131
31
-1.601503783507782e-11
0
LINE
5
154
100
AcDbEntity
8
BEND_EXTENT
100
AcDbLine
10
7.2619467105822855
20
559.52389342081131
30
-1.5995165258807385e-11
11
7.2619467105822997
21
554.52389342081131
31
-1.6001641505893407e-11
0
LINE
5
155
100
AcDbEntity
8
BEND_EXTENT
100
AcDbLine
10
7.2619467105822997
20
554.52389342081131
30
-1.6001641505893407e-11
11
703.26194671058397
21
554.52389342081483
31
-3.3799917869843816e-11
0
LINE
5
156
100
AcDbEntity
8
BEND_EXTENT
100
AcDbLine
10
703.26194671058397
20
554.52389342081483
30
-3.3799917869843816e-11
11
703.26194671058397
21
559.52389342081472
31
-3.3793441622757797e-11
0
LINE
5
157
100
AcDbEntity
8
BEND_EXTENT
100
AcDbLine
10
705.52389342116862
20
552.19123603211153
30
-3.3781607381910635e-11
11
705.52389342116862
21
538.33265738834893
31
-3.3724017898933548e-11
0
LWPOLYLINE
5
158
100
AcDbEntity
8
BEND_EXTENT
100
AcDbPolyline
90
4
70
1
43
0.0
10
703.26194671058397
20
538.26194671023029
10
703.2619467105842
20
552.26194671023018
10
7.2619467105823787
20
552.26194671022677
10
7.2619467105823468
20
538.26194671022677
0
LINE
5
159
100
AcDbEntity
8
BEND_EXTENT
100
AcDbLine
10
705.52389342116851
20
559.52389342081472
30
-3.3786891722782861e-11
11
705.52389342116851
21
554.59460409893359
31
-3.3711097561474903e-11
0
LINE
5
160
100
AcDbEntity
8
BEND_EXTENT
100
AcDbLine
10
705.52389342116783
20
535.92928932152711
30
-3.3652419172217241e-11
11
705.52389342116771
21
6.5512040237081237e-11
31
-1.7686552247754277e-11
0
LINE
5
161
100
AcDbEntity
8
BEND_EXTENT
100
AcDbLine
10
4.9999999999975877
20
538.33265738834541
30
-1.5810055464076487e-11
11
4.9999999999975122
21
552.19123603210801
31
-1.5938699220629581e-11
0
ENDSEC
0
SECTION
2
OBJECTS
0
DICTIONARY
5
C
100
AcDbDictionary
3
ACAD_GROUP
350
D
3
ACAD_MLINESTYLE
350
17
0
DICTIONARY
5
D
100
AcDbDictionary
0
DICTIONARY
5
1A
330
C
100
AcDbDictionary
0
DICTIONARY
5
17
100
AcDbDictionary
0
ENDSEC
0
EOF
