0
SECTION
2
HEADER
9
$INSUNITS
70
4
9
$ACADVER
1
AC1014
9
$HANDSEED
5
FFFF
0
ENDSEC
0
SECTION
2
TABLES
0
TABLE
2
VPORT
5
8
100
AcDbSymbolTable
0
ENDTAB
0
TABLE
2
LTYPE
5
5
100
AcDbSymbolTable
0
LTYPE
5
14
100
AcDbSymbolTableRecord
100
AcDbLinetypeTableRecord
2
BYBLOCK
70
0
0
LTYPE
5
15
100
AcDbSymbolTableRecord
100
AcDbLinetypeTableRecord
2
BYLAYER
70
0
0
LTYPE
5
16
100
AcDbSymbolTableRecord
100
AcDbLinetypeTableRecord
2
DASHED
70
0
3
Dashed __ __ __ __ __ __ __ __ __ __ __ __ __ _
72
65
73
2
40
0.75
49
0.5
74
0
49
-0.25
74
0
0
ENDTAB
0
TABLE
2
LAYER
5
2
100
AcDbSymbolTable
70
2
0
LAYER
5
50
100
AcDbSymbolTableRecord
100
AcDbLayerTableRecord
2
0
70
0
62
7
6
CONTINUOUS
0
ENDTAB
0
TABLE
2
STYLE
5
3
100
AcDbSymbolTable
70
1
0
STYLE
5
11
100
AcDbSymbolTableRecord
100
AcDbTextStyleTableRecord
2
STANDARD
70
0
0
ENDTAB
0
TABLE
2
VIEW
5
6
100
AcDbSymbolTable
70
0
0
ENDTAB
0
TABLE
2
UCS
5
7
100
AcDbSymbolTable
70
0
0
ENDTAB
0
TABLE
2
APPID
5
9
100
AcDbSymbolTable
70
2
0
APPID
5
12
100
AcDbSymbolTableRecord
100
AcDbRegAppTableRecord
2
ACAD
70
0
0
ENDTAB
0
TABLE
2
DIMSTYLE
5
A
100
AcDbSymbolTable
70
1
0
ENDTAB
0
TABLE
2
BLOCK_RECORD
5
1
100
AcDbSymbolTable
70
1
0
BLOCK_RECORD
5
1F
100
AcDbSymbolTableRecord
100
AcDbBlockTableRecord
2
*MODEL_SPACE
0
BLOCK_RECORD
5
1B
100
AcDbSymbolTableRecord
100
AcDbBlockTableRecord
2
*PAPER_SPACE
0
ENDTAB
0
ENDSEC
0
SECTION
2
BLOCKS
0
BLOCK
5
20
100
AcDbEntity
100
AcDbBlockBegin
2
*MODEL_SPACE
0
ENDBLK
5
21
100
AcDbEntity
100
AcDbBlockEnd
0
BLOCK
5
1C
100
AcDbEntity
100
AcDbBlockBegin
2
*PAPER_SPACE
0
ENDBLK
5
1D
100
AcDbEntity
100
AcDbBlockEnd
0
ENDSEC
0
SECTION
2
ENTITIES
0
LWPOLYLINE
5
100
100
AcDbEntity
8
OUTER_PROFILES
100
AcDbPolyline
90
18
70
1
43
0.0
10
705.02931616894512
20
552.68581328440951
10
710.52389342116976
20
547.19123603218509
10
710.52389342116976
20
543.33265738842249
10
705.02931616894546
20
537.83808013619796
42
0.41421356237306561
10
705.02931616894546
20
536.42386657382485
10
710.52389342116976
20
530.92928932160032
10
710.52389342116999
20
6.6009420152113307e-11
10
0
20
0
10
-1.6509016376176078e-12
20
530.9292893215968
10
5.4945772522229781
20
536.42386657382156
42
0.41421356237307044
10
5.4945772522229799
20
537.83808013619455
10
-1.1646239528317892e-12
20
543.33265738841885
10
-1.1746159600534156e-12
20
547.19123603218134
10
5.4945772522233058
20
552.68581328440587
42
0.41421356237309365
10
5.4945772522233414
20
554.10002684677897
10
0.070710678117644754
20
559.52389342088486
10
710.45318274305077
20
559.52389342088838
10
705.02931616894534
20
554.10002684678273
42
0.41421356237308032
0
CIRCLE
5
101
100
AcDbEntity
8
INTERIOR_PROFILES
100
AcDbCircle
10
-155.26194671037209
20
4.9999999997162092
30
0
40
1.6999999999999993
210
0
220
0
230
-1
0
CIRCLE
5
102
100
AcDbEntity
8
INTERIOR_PROFILES
100
AcDbCircle
10
-14.261946710554945
20
466.99999999971544
30
0
40
6.5
210
0
220
0
230
-1
0
CIRCLE
5
103
100
AcDbEntity
8
INTERIOR_PROFILES
100
AcDbCircle
10
-696.26194671066719
20
259.99999999971902
30
0
40
1.7000000000000171
210
0
220
0
230
-1
0
CIRCLE
5
104
100
AcDbEntity
8
INTERIOR_PROFILES
100
AcDbCircle
10
-14.261946710668173
20
5.0000000000045475
30
0
40
1.6999999999999993
210
0
220
0
230
-1
0
CIRCLE
5
105
100
AcDbEntity
8
INTERIOR_PROFILES
100
AcDbCircle
10
-696.2619467106033
20
227.99999999971902
30
0
40
1.7000000000000171
210
0
220
0
230
-1
0
CIRCLE
5
106
100
AcDbEntity
8
INTERIOR_PROFILES
100
AcDbCircle
10
-40.261946710634902
20
5.0000000000152767
30
0
40
1.6999999999999993
210
0
220
0
230
-1
0
CIRCLE
5
107
100
AcDbEntity
8
INTERIOR_PROFILES
100
AcDbCircle
10
-624.26194671058488
20
5.0000000000076739
30
0
40
1.7000000000000171
210
0
220
0
230
-1
0
CIRCLE
5
108
100
AcDbEntity
8
INTERIOR_PROFILES
100
AcDbCircle
10
-696.26194671060352
20
150.99999999971899
30
0
40
1.7000000000000171
210
0
220
0
230
-1
0
CIRCLE
5
109
100
AcDbEntity
8
INTERIOR_PROFILES
100
AcDbCircle
10
-696.26194671055782
20
5.0000000000081002
30
0
40
1.7000000000000171
210
0
220
0
230
-1
0
CIRCLE
5
110
100
AcDbEntity
8
INTERIOR_PROFILES
100
AcDbCircle
10
-3.0000000000224243
20
506.9999999997126
30
0
40
1.7000000000000171
210
0
220
0
230
-1
0
CIRCLE
5
111
100
AcDbEntity
8
INTERIOR_PROFILES
100
AcDbCircle
10
-3.0000000000233875
20
150.9999999997126
30
0
40
1.7000000000000171
210
0
220
0
230
-1
0
CIRCLE
5
112
100
AcDbEntity
8
INTERIOR_PROFILES
100
AcDbCircle
10
-3.0000000000229052
20
328.9999999997126
30
0
40
1.7000000000000171
210
0
220
0
230
-1
0
CIRCLE
5
113
100
AcDbEntity
8
INTERIOR_PROFILES
100
AcDbCircle
10
-14.261946710554918
20
450.99999999971544
30
0
40
1.6999999999999993
210
0
220
0
230
-1
0
CIRCLE
5
114
100
AcDbEntity
8
INTERIOR_PROFILES
100
AcDbCircle
10
-696.26194671066628
20
466.99999999971908
30
0
40
6.5000000000000568
210
0
220
0
230
-1
0
CIRCLE
5
115
100
AcDbEntity
8
INTERIOR_PROFILES
100
AcDbCircle
10
-14.261946710627782
20
227.99999999984524
30
0
40
1.6999999999999993
210
0
220
0
230
-1
0
CIRCLE
5
116
100
AcDbEntity
8
INTERIOR_PROFILES
100
AcDbCircle
10
-14.261946710659396
20
45.000000000014992
30
0
40
1.6999999999999993
210
0
220
0
230
-1
0
CIRCLE
5
117
100
AcDbEntity
8
INTERIOR_PROFILES
100
AcDbCircle
10
-14.261946710620741
20
150.9999999997153
30
0
40
1.6999999999999993
210
0
220
0
230
-1
0
CIRCLE
5
118
100
AcDbEntity
8
INTERIOR_PROFILES
100
AcDbCircle
10
-14.261946710554767
20
506.99999999971544
30
0
40
1.6999999999999993
210
0
220
0
230
-1
0
CIRCLE
5
119
100
AcDbEntity
8
INTERIOR_PROFILES
100
AcDbCircle
10
-14.26194671051918
20
528.99999999971544
30
0
40
1.6999999999999993
210
0
220
0
230
-1
0
CIRCLE
5
120
100
AcDbEntity
8
INTERIOR_PROFILES
100
AcDbCircle
10
-455.26194671059949
20
5.0000000000105871
30
0
40
1.7000000000000171
210
0
220
0
230
-1
0
CIRCLE
5
121
100
AcDbEntity
8
INTERIOR_PROFILES
100
AcDbCircle
10
-707.52389342116976
20
328.99999999971851
30
0
40
1.7000000000000171
210
0
220
0
230
-1
0
CIRCLE
5
122
100
AcDbEntity
8
INTERIOR_PROFILES
100
AcDbCircle
10
-707.52389342116976
20
506.99999999971863
30
0
40
1.7000000000000171
210
0
220
0
230
-1
0
CIRCLE
5
123
100
AcDbEntity
8
INTERIOR_PROFILES
100
AcDbCircle
10
-696.26194671056612
20
45.000000000008242
30
0
40
1.7000000000000171
210
0
220
0
230
-1
0
CIRCLE
5
124
100
AcDbEntity
8
INTERIOR_PROFILES
100
AcDbCircle
10
-55.261946710372065
20
4.9999999997156408
30
0
40
1.6999999999999993
210
0
220
0
230
-1
0
CIRCLE
5
125
100
AcDbEntity
8
INTERIOR_PROFILES
100
AcDbCircle
10
-696.26194671066628
20
482.99999999971908
30
0
40
1.7000000000000171
210
0
220
0
230
-1
0
CIRCLE
5
126
100
AcDbEntity
8
INTERIOR_PROFILES
100
AcDbCircle
10
-14.261946710547583
20
482.99999999971544
30
0
40
1.6999999999999993
210
0
220
0
230
-1
0
CIRCLE
5
127
100
AcDbEntity
8
INTERIOR_PROFILES
100
AcDbCircle
10
-670.26194671058488
20
5.0000000000079581
30
0
40
1.7000000000000171
210
0
220
0
230
-1
0
CIRCLE
5
128
100
AcDbEntity
8
INTERIOR_PROFILES
100
AcDbCircle
10
-696.26194671066617
20
506.99999999971908
30
0
40
1.7000000000000171
210
0
220
0
230
-1
0
CIRCLE
5
129
100
AcDbEntity
8
INTERIOR_PROFILES
100
AcDbCircle
10
-14.261946710527038
20
328.99999999971544
30
0
40
1.6999999999999993
210
0
220
0
230
-1
0
CIRCLE
5
130
100
AcDbEntity
8
INTERIOR_PROFILES
100
AcDbCircle
10
-696.26194671066628
20
450.99999999971908
30
0
40
1.7000000000000171
210
0
220
0
230
-1
0
CIRCLE
5
131
100
AcDbEntity
8
INTERIOR_PROFILES
100
AcDbCircle
10
-696.26194671055782
20
13.000000000008072
30
0
40
1.7000000000000171
210
0
220
0
230
-1
0
CIRCLE
5
132
100
AcDbEntity
8
INTERIOR_PROFILES
100
AcDbCircle
10
-355.26194671037211
20
4.999999999717204
30
0
40
1.7000000000000171
210
0
220
0
230
-1
0
CIRCLE
5
133
100
AcDbEntity
8
INTERIOR_PROFILES
100
AcDbCircle
10
-696.26194671066696
20
328.99999999971902
30
0
40
1.7000000000000171
210
0
220
0
230
-1
0
CIRCLE
5
134
100
AcDbEntity
8
INTERIOR_PROFILES
100
AcDbCircle
10
-14.261946710668081
20
13.000000000004519
30
0
40
1.6999999999999993
210
0
220
0
230
-1
0
CIRCLE
5
135
100
AcDbEntity
8
INTERIOR_PROFILES
100
AcDbCircle
10
-255.26194671059949
20
5.0000000000095213
30
0
40
1.7000000000000171
210
0
220
0
230
-1
0
CIRCLE
5
136
100
AcDbEntity
8
INTERIOR_PROFILES
100
AcDbCircle
10
-707.52389342116953
20
150.99999999971857
30
0
40
1.7000000000000171
210
0
220
0
230
-1
0
CIRCLE
5
137
100
AcDbEntity
8
INTERIOR_PROFILES
100
AcDbCircle
10
-86.261946710641411
20
5.0000000000054001
30
0
40
1.6999999999999993
210
0
220
0
230
-1
0
CIRCLE
5
138
100
AcDbEntity
8
INTERIOR_PROFILES
100
AcDbCircle
10
-696.26194671066582
20
528.99999999971908
30
0
40
1.7000000000000171
210
0
220
0
230
-1
0
CIRCLE
5
139
100
AcDbEntity
8
INTERIOR_PROFILES
100
AcDbCircle
10
-555.26194671059943
20
5.0000000000111555
30
0
40
1.7000000000000171
210
0
220
0
230
-1
0
CIRCLE
5
140
100
AcDbEntity
8
INTERIOR_PROFILES
100
AcDbCircle
10
-14.261946710541578
20
259.99999999971544
30
0
40
1.6999999999999993
210
0
220
0
230
-1
0
LINE
5
141
100
AcDbEntity
8
BEND
100
AcDbLine
10
704.73642295013201
20
537.13097335501141
30
-3.3834383092818781e-11
11
5.7874704710367553
21
537.13097335500777
31
-1.9506923015762851e-11
0
LINE
5
142
100
AcDbEntity
8
BEND
100
AcDbLine
10
704.39292006587743
20
537.13097335501129
30
-3.380247026644358e-11
11
704.39292006587743
21
553.39292006559606
31
-3.4119215954567907e-11
0
LINE
5
143
100
AcDbEntity
8
BEND
100
AcDbLine
10
704.39292006587743
20
553.39292006559606
30
-3.4119215954567907e-11
11
704.39292006587743
21
559.52389342088838
31
-3.4462764372935861e-11
0
LINE
5
144
100
AcDbEntity
8
BEND
100
AcDbLine
10
704.39292006587743
20
6.6222582972841337e-11
30
-1.4644869923275057e-11
11
704.39292006587743
21
537.13097335501129
31
-3.380247026644358e-11
0
LINE
5
145
100
AcDbEntity
8
BEND
100
AcDbLine
10
6.1309733552908234
20
537.13097335500777
30
-1.9627066928908273e-11
11
6.1309733552923449
21
0
31
-5.2636551574958847e-13
0
LINE
5
146
100
AcDbEntity
8
BEND
100
AcDbLine
10
6.1309733552910641
20
553.39292006559253
30
-1.9943812617032607e-11
11
6.1309733552908234
21
537.13097335500777
31
-1.9627066928908273e-11
0
LINE
5
147
100
AcDbEntity
8
BEND
100
AcDbLine
10
6.1309733552912791
20
559.52389342088486
30
-2.0316781945553128e-11
11
6.1309733552910641
21
553.39292006559253
31
-1.9943812617032607e-11
0
LINE
5
148
100
AcDbEntity
8
BEND
100
AcDbLine
10
704.73642295013178
20
553.39292006559606
30
-3.4106634361897174e-11
11
5.7874704710368974
21
553.39292006559253
31
-2.0005725884566201e-11
0
LINE
5
149
100
AcDbEntity
8
BEND_EXTENT
100
AcDbLine
10
4.9999999999997868
20
0
30
-4.5677627878284908e-13
11
4.9999999999982663
21
535.92928932159623
31
-1.9511539835486006e-11
0
LINE
5
150
100
AcDbEntity
8
BEND_EXTENT
100
AcDbLine
10
7.2619467105834365
20
535.99999999971544
30
-1.9626318867461105e-11
11
7.2619467105848834
21
0
31
-5.0269601864781471e-13
0
LINE
5
151
100
AcDbEntity
8
BEND_EXTENT
100
AcDbLine
10
703.26194671058499
20
535.99999999971897
30
-3.3755802465131447e-11
11
7.2619467105834365
21
535.99999999971544
31
-1.9626318867461105e-11
0
LINE
5
152
100
AcDbEntity
8
BEND_EXTENT
100
AcDbLine
10
703.26194671058477
20
6.5938365878537297e-11
30
-1.4632179616320348e-11
11
703.26194671058499
21
535.99999999971897
31
-3.3755802465131447e-11
0
LINE
5
153
100
AcDbEntity
8
BEND_EXTENT
100
AcDbLine
10
4.9999999999987992
20
554.59460409900362
30
-2.0248707003599678e-11
11
4.9999999999987876
21
559.52389342088486
31
-2.042461955676948e-11
0
LINE
5
154
100
AcDbEntity
8
BEND_EXTENT
100
AcDbLine
10
7.2619467105833735
20
559.52389342088486
30
-2.0288462720595908e-11
11
7.2619467105833868
21
554.52389342088486
31
-2.0158876514120851e-11
0
LINE
5
155
100
AcDbEntity
8
BEND_EXTENT
100
AcDbLine
10
7.2619467105833868
20
554.52389342088486
30
-2.0158876514120851e-11
11
703.26194671058499
21
554.52389342088838
31
-3.4288360111791193e-11
0
LINE
5
156
100
AcDbEntity
8
BEND_EXTENT
100
AcDbLine
10
703.26194671058499
20
554.52389342088838
30
-3.4288360111791193e-11
11
703.26194671058499
21
559.52389342088838
31
-3.4417946318266251e-11
0
LINE
5
157
100
AcDbEntity
8
BEND_EXTENT
100
AcDbLine
10
705.52389342116976
20
552.19123603218497
30
-3.4242152047572324e-11
11
705.52389342116999
21
538.33265738842238
31
-3.3889686672737887e-11
0
LWPOLYLINE
5
158
100
AcDbEntity
8
BEND_EXTENT
100
AcDbPolyline
90
4
70
1
43
0.0
10
703.26194671058499
20
538.26194671030373
10
703.26194671058499
20
552.26194671030373
10
7.2619467105835156
20
552.26194671030021
10
7.2619467105834312
20
538.26194671030021
0
LINE
5
159
100
AcDbEntity
8
BEND_EXTENT
100
AcDbLine
10
705.52389342116965
20
559.52389342088838
30
-3.4432779813441704e-11
11
705.52389342116965
21
554.59460409900726
31
-3.4185812986695892e-11
0
LINE
5
160
100
AcDbEntity
8
BEND_EXTENT
100
AcDbLine
10
705.52389342116999
20
535.92928932160032
30
-3.3803917186462306e-11
11
705.52389342116999
21
6.6293637246417347e-11
31
-1.4678099356185318e-11
0
LINE
5
161
100
AcDbEntity
8
BEND_EXTENT
100
AcDbLine
10
4.9999999999987423
20
538.33265738841885
30
-1.9597309321761616e-11
11
4.999999999998705
21
552.19123603218134
31
-1.9949774696596054e-11
0
ENDSEC
0
SECTION
2
OBJECTS
0
DICTIONARY
5
C
100
AcDbDictionary
3
ACAD_GROUP
350
D
3
ACAD_MLINESTYLE
350
17
0
DICTIONARY
5
D
100
AcDbDictionary
0
DICTIONARY
5
1A
330
C
100
AcDbDictionary
0
DICTIONARY
5
17
100
AcDbDictionary
0
ENDSEC
0
EOF
