0
SECTION
2
HEADER
9
$INSUNITS
70
4
9
$ACADVER
1
AC1014
9
$HANDSEED
5
FFFF
0
ENDSEC
0
SECTION
2
TABLES
0
TABLE
2
VPORT
5
8
100
AcDbSymbolTable
0
ENDTAB
0
TABLE
2
LTYPE
5
5
100
AcDbSymbolTable
0
LTYPE
5
14
100
AcDbSymbolTableRecord
100
AcDbLinetypeTableRecord
2
BYBLOCK
70
0
0
LTYPE
5
15
100
AcDbSymbolTableRecord
100
AcDbLinetypeTableRecord
2
BYLAYER
70
0
0
LTYPE
5
16
100
AcDbSymbolTableRecord
100
AcDbLinetypeTableRecord
2
DASHED
70
0
3
Dashed __ __ __ __ __ __ __ __ __ __ __ __ __ _
72
65
73
2
40
0.75
49
0.5
74
0
49
-0.25
74
0
0
ENDTAB
0
TABLE
2
LAYER
5
2
100
AcDbSymbolTable
70
2
0
LAYER
5
50
100
AcDbSymbolTableRecord
100
AcDbLayerTableRecord
2
0
70
0
62
7
6
CONTINUOUS
0
ENDTAB
0
TABLE
2
STYLE
5
3
100
AcDbSymbolTable
70
1
0
STYLE
5
11
100
AcDbSymbolTableRecord
100
AcDbTextStyleTableRecord
2
STANDARD
70
0
0
ENDTAB
0
TABLE
2
VIEW
5
6
100
AcDbSymbolTable
70
0
0
ENDTAB
0
TABLE
2
UCS
5
7
100
AcDbSymbolTable
70
0
0
ENDTAB
0
TABLE
2
APPID
5
9
100
AcDbSymbolTable
70
2
0
APPID
5
12
100
AcDbSymbolTableRecord
100
AcDbRegAppTableRecord
2
ACAD
70
0
0
ENDTAB
0
TABLE
2
DIMSTYLE
5
A
100
AcDbSymbolTable
70
1
0
ENDTAB
0
TABLE
2
BLOCK_RECORD
5
1
100
AcDbSymbolTable
70
1
0
BLOCK_RECORD
5
1F
100
AcDbSymbolTableRecord
100
AcDbBlockTableRecord
2
*MODEL_SPACE
0
BLOCK_RECORD
5
1B
100
AcDbSymbolTableRecord
100
AcDbBlockTableRecord
2
*PAPER_SPACE
0
ENDTAB
0
ENDSEC
0
SECTION
2
BLOCKS
0
BLOCK
5
20
100
AcDbEntity
100
AcDbBlockBegin
2
*MODEL_SPACE
0
ENDBLK
5
21
100
AcDbEntity
100
AcDbBlockEnd
0
BLOCK
5
1C
100
AcDbEntity
100
AcDbBlockBegin
2
*PAPER_SPACE
0
ENDBLK
5
1D
100
AcDbEntity
100
AcDbBlockEnd
0
ENDSEC
0
SECTION
2
ENTITIES
0
LWPOLYLINE
5
100
100
AcDbEntity
8
OUTER_PROFILES
100
AcDbPolyline
90
36
70
1
43
0.0
10
1158.4531827430521
20
12.332657388702319
10
1158.4531827430521
20
16.191236032464982
10
1152.9586054908266
20
21.685813284690383
42
-0.41421356237306012
10
1152.9586054908268
20
23.100026847063411
10
1158.4531827430515
20
28.594604099288095
10
1174.7151294536363
20
28.594604099287881
10
1174.7151294536363
20
412.45318274304969
10
1158.4531827430515
20
412.45318274304998
10
1152.9586054908261
20
417.94775999527542
42
-0.41421356237306561
10
1152.9586054908261
20
419.36197355764847
10
1158.4531827430512
20
424.8565508098734
10
1158.453182743051
20
428.71512945363679
10
1152.9586054908295
20
434.20970670585825
42
-0.41421356237309503
10
1152.9586054908295
20
435.62392026823142
10
1158.3824720649377
20
441.04778684233958
10
5.5422333389287814e-12
20
441.04778684233838
10
5.4238665741113881
20
435.62392026823255
42
-0.41421356237305318
10
5.4238665741114893
20
434.2097067058595
10
-0.070710678117649195
20
428.71512945363042
10
-0.070710678117649195
20
424.85655080986845
10
5.4238665741048573
20
419.3619735576458
42
-0.41421356237307988
10
5.4238665741048937
20
417.94775999527275
10
-0.070710678117933412
20
412.45318274304964
10
-16.332657388702927
20
412.45318274304975
10
-16.332657388702927
20
28.594604099289427
10
-0.070710678117933412
20
28.594604099289214
10
5.4238665741049017
20
23.10002684706636
42
-0.41421356237308748
10
5.4238665741048333
20
21.685813284693282
10
-0.070710678117933412
20
16.191236032470549
10
-0.070710678117933412
20
12.332657388707776
10
5.4238665741084269
20
6.8380801364815529
42
-0.41421356237309875
10
5.4238665741083842
20
5.4238665741084491
10
0
20
0
10
1158.3824720649338
20
-3.730349362740526e-13
10
1152.9586054908282
20
5.4238665741052348
42
-0.4142135623730725
10
1152.9586054908282
20
6.8380801364782897
0
CIRCLE
5
101
100
AcDbEntity
8
INTERIOR_PROFILES
100
AcDbCircle
10
-779.1912360324751
20
62.523893421169134
30
0
40
2.1169999999999956
210
0
220
0
230
-1
0
CIRCLE
5
102
100
AcDbEntity
8
INTERIOR_PROFILES
100
AcDbCircle
10
-379.1912360324751
20
62.523893421169291
30
0
40
2.1169999999999956
210
0
220
0
230
-1
0
CIRCLE
5
103
100
AcDbEntity
8
INTERIOR_PROFILES
100
AcDbCircle
10
-229.19123603247513
20
62.523893421169355
30
0
40
2.1169999999999956
210
0
220
0
230
-1
0
CIRCLE
5
104
100
AcDbEntity
8
INTERIOR_PROFILES
100
AcDbCircle
10
-129.19123603247542
20
350.52389342116948
30
0
40
2.1170000000000044
210
0
220
0
230
-1
0
CIRCLE
5
105
100
AcDbEntity
8
INTERIOR_PROFILES
100
AcDbCircle
10
2.0707106781200935
20
387.52389342117107
30
0
40
1.7000000000000082
210
0
220
0
230
-1
0
CIRCLE
5
106
100
AcDbEntity
8
INTERIOR_PROFILES
100
AcDbCircle
10
2.0707106781181039
20
397.27389342117107
30
0
40
6.5000000000000107
210
0
220
0
230
-1
0
CIRCLE
5
107
100
AcDbEntity
8
INTERIOR_PROFILES
100
AcDbCircle
10
2.0707106781179618
20
407.02389342117101
30
0
40
1.6999999999999915
210
0
220
0
230
-1
0
CIRCLE
5
108
100
AcDbEntity
8
INTERIOR_PROFILES
100
AcDbCircle
10
2.0707106781179618
20
34.023893421168054
30
0
40
1.6999999999999915
210
0
220
0
230
-1
0
CIRCLE
5
109
100
AcDbEntity
8
INTERIOR_PROFILES
100
AcDbCircle
10
-929.19123603247522
20
350.52389342116908
30
0
40
2.1170000000000044
210
0
220
0
230
-1
0
CIRCLE
5
110
100
AcDbEntity
8
INTERIOR_PROFILES
100
AcDbCircle
10
-879.19123603247522
20
350.52389342116908
30
0
40
2.1170000000000044
210
0
220
0
230
-1
0
CIRCLE
5
111
100
AcDbEntity
8
INTERIOR_PROFILES
100
AcDbCircle
10
-279.1912360324751
20
62.523893421169333
30
0
40
2.1169999999999956
210
0
220
0
230
-1
0
CIRCLE
5
112
100
AcDbEntity
8
INTERIOR_PROFILES
100
AcDbCircle
10
-579.1912360324751
20
62.523893421169213
30
0
40
2.1169999999999956
210
0
220
0
230
-1
0
CIRCLE
5
113
100
AcDbEntity
8
INTERIOR_PROFILES
100
AcDbCircle
10
-329.19123603247527
20
350.52389342116942
30
0
40
2.1170000000000044
210
0
220
0
230
-1
0
CIRCLE
5
114
100
AcDbEntity
8
INTERIOR_PROFILES
100
AcDbCircle
10
-929.19123603247499
20
62.52389342116907
30
0
40
2.1169999999999956
210
0
220
0
230
-1
0
CIRCLE
5
115
100
AcDbEntity
8
INTERIOR_PROFILES
100
AcDbCircle
10
2.0707106781200935
20
53.523893421171032
30
0
40
1.7000000000000082
210
0
220
0
230
-1
0
CIRCLE
5
116
100
AcDbEntity
8
INTERIOR_PROFILES
100
AcDbCircle
10
-1079.1912360324752
20
350.52389342116902
30
0
40
2.1170000000000044
210
0
220
0
230
-1
0
CIRCLE
5
117
100
AcDbEntity
8
INTERIOR_PROFILES
100
AcDbCircle
10
-979.19123603247522
20
350.52389342116902
30
0
40
2.1170000000000044
210
0
220
0
230
-1
0
CIRCLE
5
118
100
AcDbEntity
8
INTERIOR_PROFILES
100
AcDbCircle
10
-379.19123603247527
20
350.52389342116942
30
0
40
2.1170000000000044
210
0
220
0
230
-1
0
CIRCLE
5
119
100
AcDbEntity
8
INTERIOR_PROFILES
100
AcDbCircle
10
-79.191236032475132
20
62.523893421169419
30
0
40
2.1169999999999956
210
0
220
0
230
-1
0
CIRCLE
5
120
100
AcDbEntity
8
INTERIOR_PROFILES
100
AcDbCircle
10
-779.19123603247522
20
350.52389342116919
30
0
40
2.1170000000000044
210
0
220
0
230
-1
0
CIRCLE
5
121
100
AcDbEntity
8
INTERIOR_PROFILES
100
AcDbCircle
10
-129.19123603247513
20
62.523893421169404
30
0
40
2.1169999999999956
210
0
220
0
230
-1
0
CIRCLE
5
122
100
AcDbEntity
8
INTERIOR_PROFILES
100
AcDbCircle
10
-229.19123603247542
20
350.52389342116942
30
0
40
2.1170000000000044
210
0
220
0
230
-1
0
CIRCLE
5
123
100
AcDbEntity
8
INTERIOR_PROFILES
100
AcDbCircle
10
-679.19123603247522
20
350.52389342116919
30
0
40
2.1170000000000044
210
0
220
0
230
-1
0
CIRCLE
5
124
100
AcDbEntity
8
INTERIOR_PROFILES
100
AcDbCircle
10
2.0707106781200935
20
220.52389342117101
30
0
40
1.7000000000000082
210
0
220
0
230
-1
0
CIRCLE
5
125
100
AcDbEntity
8
INTERIOR_PROFILES
100
AcDbCircle
10
-979.19123603247499
20
62.523893421169056
30
0
40
2.1169999999999956
210
0
220
0
230
-1
0
CIRCLE
5
126
100
AcDbEntity
8
INTERIOR_PROFILES
100
AcDbCircle
10
-529.1912360324751
20
62.523893421169241
30
0
40
2.1169999999999956
210
0
220
0
230
-1
0
CIRCLE
5
127
100
AcDbEntity
8
INTERIOR_PROFILES
100
AcDbCircle
10
-529.19123603247522
20
350.52389342116925
30
0
40
2.1170000000000044
210
0
220
0
230
-1
0
CIRCLE
5
128
100
AcDbEntity
8
INTERIOR_PROFILES
100
AcDbCircle
10
-429.1912360324751
20
62.523893421169277
30
0
40
2.1169999999999956
210
0
220
0
230
-1
0
CIRCLE
5
129
100
AcDbEntity
8
INTERIOR_PROFILES
100
AcDbCircle
10
-179.19123603247542
20
350.52389342116942
30
0
40
2.1170000000000044
210
0
220
0
230
-1
0
CIRCLE
5
130
100
AcDbEntity
8
INTERIOR_PROFILES
100
AcDbCircle
10
-329.1912360324751
20
62.523893421169312
30
0
40
2.1169999999999956
210
0
220
0
230
-1
0
CIRCLE
5
131
100
AcDbEntity
8
INTERIOR_PROFILES
100
AcDbCircle
10
-179.19123603247513
20
62.523893421169376
30
0
40
2.1169999999999956
210
0
220
0
230
-1
0
CIRCLE
5
132
100
AcDbEntity
8
INTERIOR_PROFILES
100
AcDbCircle
10
-279.19123603247527
20
350.52389342116942
30
0
40
2.1170000000000044
210
0
220
0
230
-1
0
CIRCLE
5
133
100
AcDbEntity
8
INTERIOR_PROFILES
100
AcDbCircle
10
-429.19123603247527
20
350.52389342116925
30
0
40
2.1170000000000044
210
0
220
0
230
-1
0
CIRCLE
5
134
100
AcDbEntity
8
INTERIOR_PROFILES
100
AcDbCircle
10
-479.1912360324751
20
62.523893421169262
30
0
40
2.1169999999999956
210
0
220
0
230
-1
0
CIRCLE
5
135
100
AcDbEntity
8
INTERIOR_PROFILES
100
AcDbCircle
10
-629.1912360324751
20
62.523893421169198
30
0
40
2.1169999999999956
210
0
220
0
230
-1
0
CIRCLE
5
136
100
AcDbEntity
8
INTERIOR_PROFILES
100
AcDbCircle
10
-679.1912360324751
20
62.52389342116917
30
0
40
2.1169999999999956
210
0
220
0
230
-1
0
CIRCLE
5
137
100
AcDbEntity
8
INTERIOR_PROFILES
100
AcDbCircle
10
-729.19123603247522
20
350.52389342116919
30
0
40
2.1170000000000044
210
0
220
0
230
-1
0
CIRCLE
5
138
100
AcDbEntity
8
INTERIOR_PROFILES
100
AcDbCircle
10
-629.19123603247522
20
350.52389342116919
30
0
40
2.1170000000000044
210
0
220
0
230
-1
0
CIRCLE
5
139
100
AcDbEntity
8
INTERIOR_PROFILES
100
AcDbCircle
10
-829.1912360324751
20
62.52389342116912
30
0
40
2.1169999999999956
210
0
220
0
230
-1
0
CIRCLE
5
140
100
AcDbEntity
8
INTERIOR_PROFILES
100
AcDbCircle
10
-579.19123603247522
20
350.52389342116919
30
0
40
2.1170000000000044
210
0
220
0
230
-1
0
CIRCLE
5
141
100
AcDbEntity
8
INTERIOR_PROFILES
100
AcDbCircle
10
-829.19123603247522
20
350.52389342116908
30
0
40
2.1170000000000044
210
0
220
0
230
-1
0
CIRCLE
5
142
100
AcDbEntity
8
INTERIOR_PROFILES
100
AcDbCircle
10
-79.191236032475416
20
350.52389342116948
30
0
40
2.1170000000000044
210
0
220
0
230
-1
0
CIRCLE
5
143
100
AcDbEntity
8
INTERIOR_PROFILES
100
AcDbCircle
10
-729.1912360324751
20
62.523893421169149
30
0
40
2.1169999999999956
210
0
220
0
230
-1
0
CIRCLE
5
144
100
AcDbEntity
8
INTERIOR_PROFILES
100
AcDbCircle
10
-879.1912360324751
20
62.523893421169099
30
0
40
2.1169999999999956
210
0
220
0
230
-1
0
CIRCLE
5
145
100
AcDbEntity
8
INTERIOR_PROFILES
100
AcDbCircle
10
-1029.191236032475
20
62.523893421169028
30
0
40
2.1169999999999956
210
0
220
0
230
-1
0
CIRCLE
5
146
100
AcDbEntity
8
INTERIOR_PROFILES
100
AcDbCircle
10
-1029.1912360324752
20
350.52389342116902
30
0
40
2.1170000000000044
210
0
220
0
230
-1
0
CIRCLE
5
147
100
AcDbEntity
8
INTERIOR_PROFILES
100
AcDbCircle
10
-479.19123603247527
20
350.52389342116925
30
0
40
2.1170000000000044
210
0
220
0
230
-1
0
CIRCLE
5
148
100
AcDbEntity
8
INTERIOR_PROFILES
100
AcDbCircle
10
-31.191162039916946
20
30.52400861416892
30
0
40
1.6999999999999993
210
0
220
0
230
-1
0
CIRCLE
5
149
100
AcDbEntity
8
INTERIOR_PROFILES
100
AcDbCircle
10
-1079.191236032475
20
62.523893421169007
30
0
40
2.1169999999999956
210
0
220
0
230
-1
0
CIRCLE
5
150
100
AcDbEntity
8
INTERIOR_PROFILES
100
AcDbCircle
10
-63.191236032138107
20
382.5238934211697
30
0
40
1.7000000000000171
210
0
220
0
230
-1
0
CIRCLE
5
151
100
AcDbEntity
8
INTERIOR_PROFILES
100
AcDbCircle
10
-79.191236032142029
20
410.52389342116953
30
0
40
1.7000000000000171
210
0
220
0
230
-1
0
CIRCLE
5
152
100
AcDbEntity
8
INTERIOR_PROFILES
100
AcDbCircle
10
-1147.1912360324668
20
30.523893421169053
30
0
40
1.6999999999999993
210
0
220
0
230
-1
0
CIRCLE
5
153
100
AcDbEntity
8
INTERIOR_PROFILES
100
AcDbCircle
10
-595.19123603212745
20
382.52389342116919
30
0
40
1.7000000000000171
210
0
220
0
230
-1
0
CIRCLE
5
154
100
AcDbEntity
8
INTERIOR_PROFILES
100
AcDbCircle
10
-1079.1912360321421
20
410.52389342116908
30
0
40
1.7000000000000171
210
0
220
0
230
-1
0
CIRCLE
5
155
100
AcDbEntity
8
INTERIOR_PROFILES
100
AcDbCircle
10
-1079.1912360320616
20
55.523893421168907
30
0
40
1.6999999999999993
210
0
220
0
230
-1
0
CIRCLE
5
156
100
AcDbEntity
8
INTERIOR_PROFILES
100
AcDbCircle
10
-1095.1912360321276
20
382.52389342116908
30
0
40
1.7000000000000171
210
0
220
0
230
-1
0
CIRCLE
5
157
100
AcDbEntity
8
INTERIOR_PROFILES
100
AcDbCircle
10
-579.1912016637632
20
55.523893421171032
30
0
40
1.6999999999999993
210
0
220
0
230
-1
0
CIRCLE
5
158
100
AcDbEntity
8
INTERIOR_PROFILES
100
AcDbCircle
10
-1127.1912360324668
20
30.523893421169053
30
0
40
1.6999999999999993
210
0
220
0
230
-1
0
CIRCLE
5
159
100
AcDbEntity
8
INTERIOR_PROFILES
100
AcDbCircle
10
-1160.4531827430601
20
220.52389342117073
30
0
40
1.7000000000000171
210
0
220
0
230
-1
0
CIRCLE
5
160
100
AcDbEntity
8
INTERIOR_PROFILES
100
AcDbCircle
10
-11.191162039917231
20
30.52401281829269
30
0
40
1.6999999999999993
210
0
220
0
230
-1
0
CIRCLE
5
161
100
AcDbEntity
8
INTERIOR_PROFILES
100
AcDbCircle
10
-563.19123603213814
20
382.52389342116942
30
0
40
1.7000000000000171
210
0
220
0
230
-1
0
CIRCLE
5
162
100
AcDbEntity
8
INTERIOR_PROFILES
100
AcDbCircle
10
-579.191236032142
20
410.5238934211693
30
0
40
1.7000000000000171
210
0
220
0
230
-1
0
CIRCLE
5
163
100
AcDbEntity
8
INTERIOR_PROFILES
100
AcDbCircle
10
-1160.4531827430578
20
407.02389342117078
30
0
40
1.7000000000000171
210
0
220
0
230
-1
0
CIRCLE
5
164
100
AcDbEntity
8
INTERIOR_PROFILES
100
AcDbCircle
10
-1160.4531827430601
20
387.52389342117078
30
0
40
1.7000000000000171
210
0
220
0
230
-1
0
CIRCLE
5
165
100
AcDbEntity
8
INTERIOR_PROFILES
100
AcDbCircle
10
-1160.4531827430601
20
53.523893421170769
30
0
40
1.7000000000000171
210
0
220
0
230
-1
0
CIRCLE
5
166
100
AcDbEntity
8
INTERIOR_PROFILES
100
AcDbCircle
10
-1160.4531827430578
20
34.023893421167784
30
0
40
1.7000000000000171
210
0
220
0
230
-1
0
CIRCLE
5
167
100
AcDbEntity
8
INTERIOR_PROFILES
100
AcDbCircle
10
-1160.4531827430578
20
397.27389342117073
30
0
40
6.5000000000000568
210
0
220
0
230
-1
0
CIRCLE
5
168
100
AcDbEntity
8
INTERIOR_PROFILES
100
AcDbCircle
10
-60.191236032777198
20
14.261946710585537
30
0
40
1.6999999999999993
210
0
220
0
230
-1
0
CIRCLE
5
169
100
AcDbEntity
8
INTERIOR_PROFILES
100
AcDbCircle
10
-1063.1912360321382
20
382.52389342116919
30
0
40
1.7000000000000171
210
0
220
0
230
-1
0
CIRCLE
5
170
100
AcDbEntity
8
INTERIOR_PROFILES
100
AcDbCircle
10
-79.191236032878152
20
55.52389342116939
30
0
40
1.6999999999999993
210
0
220
0
230
-1
0
CIRCLE
5
171
100
AcDbEntity
8
INTERIOR_PROFILES
100
AcDbCircle
10
-95.191236032127478
20
382.52389342116942
30
0
40
1.7000000000000171
210
0
220
0
230
-1
0
CIRCLE
5
172
100
AcDbEntity
8
INTERIOR_PROFILES
100
AcDbCircle
10
-1144.1912360329409
20
14.261946710584684
30
0
40
1.7000000000000171
210
0
220
0
230
-1
0
CIRCLE
5
173
100
AcDbEntity
8
INTERIOR_PROFILES
100
AcDbCircle
10
-14.191236032777113
20
14.261946710585573
30
0
40
1.6999999999999993
210
0
220
0
230
-1
0
CIRCLE
5
174
100
AcDbEntity
8
INTERIOR_PROFILES
100
AcDbCircle
10
-579.19123603246987
20
14.261946710580297
30
0
40
1.7000000000000171
210
0
220
0
230
-1
0
CIRCLE
5
175
100
AcDbEntity
8
INTERIOR_PROFILES
100
AcDbCircle
10
-1098.1912360329409
20
14.26194671058472
30
0
40
1.7000000000000171
210
0
220
0
230
-1
0
LINE
5
176
100
AcDbEntity
8
BEND
100
AcDbLine
10
1152.3222093877591
20
22.392920065876915
30
-3.0607740780990508e-13
11
1152.3222093877591
21
418.65486677646106
31
-9.8325798350380695e-11
0
LINE
5
177
100
AcDbEntity
8
BEND
100
AcDbLine
10
1152.3222093877591
20
418.65486677646106
30
-9.8325798350380695e-11
11
1152.3222093877587
21
434.91681348704668
31
-1.0627603519955877e-10
0
LINE
5
178
100
AcDbEntity
8
BEND
100
AcDbLine
10
1152.3222093877587
20
434.91681348704668
30
-1.0627603519955877e-10
11
1152.3222093877587
21
441.04778684233952
31
-1.0975921091117012e-10
0
LINE
5
179
100
AcDbEntity
8
BEND
100
AcDbLine
10
1152.3222093877596
20
6.1309733552922037
30
6.3477192352600376e-13
11
1152.3222093877591
21
22.392920065876915
31
-3.0607740780990508e-13
0
LINE
5
180
100
AcDbEntity
8
BEND
100
AcDbLine
10
1152.3222093877596
20
-6.4392935428259079e-13
30
-7.3306200396195628e-13
11
1152.3222093877596
21
6.1309733552922037
31
6.3477192352600376e-13
0
LINE
5
181
100
AcDbEntity
8
BEND
100
AcDbLine
10
1152.6657122720135
20
418.65486677646106
30
-9.8317584890738719e-11
11
5.7167597929199587
21
418.65486677646095
31
-9.70953377577511e-11
0
LINE
5
182
100
AcDbEntity
8
BEND
100
AcDbLine
10
6.0602626771745349
20
418.65486677646095
30
-9.7528559176355333e-11
11
6.0602626771745349
21
22.392920065877817
31
4.8271192830665326e-13
0
LINE
5
183
100
AcDbEntity
8
BEND
100
AcDbLine
10
6.0602626771745349
20
22.392920065877817
30
4.8271192830665326e-13
11
6.0602626771743928
21
6.1309733552925527
31
1.4057625686568284e-12
0
LINE
5
184
100
AcDbEntity
8
BEND
100
AcDbLine
10
6.0602626771743928
20
6.1309733552925527
30
1.4057625686568284e-12
11
6.0602626771743928
21
-5.773159728050814e-14
31
6.2388670302430742e-14
0
LINE
5
185
100
AcDbEntity
8
BEND
100
AcDbLine
10
6.060262677174677
20
434.91681348704589
30
-1.0494503759467753e-10
11
6.0602626771745349
21
418.65486677646095
31
-9.7528559176355333e-11
0
LINE
5
186
100
AcDbEntity
8
BEND
100
AcDbLine
10
6.060262677174677
20
441.04778684233861
30
-1.0947827000910707e-10
11
6.060262677174677
21
434.91681348704589
31
-1.0494503759467753e-10
0
LINE
5
187
100
AcDbEntity
8
BEND
100
AcDbLine
10
5.7167597929198166
20
22.392920065877835
30
4.2587970016744978e-13
11
1152.6657122720142
21
22.392920065876915
31
5.9942091914347954e-14
0
LINE
5
188
100
AcDbEntity
8
BEND
100
AcDbLine
10
1168.5841560983438
20
28.594604099288201
30
-1.0842671272828177e-12
11
1168.5841560983438
21
412.45318274304969
31
-9.5804343543911889e-11
0
LINE
5
189
100
AcDbEntity
8
BEND
100
AcDbLine
10
1152.6657122720135
20
434.91681348704668
30
-1.0568065123478274e-10
11
5.7167597929202429
21
434.91681348704589
31
-1.0542132387634616e-10
0
LINE
5
190
100
AcDbEntity
8
BEND
100
AcDbLine
10
-10.201684033410174
20
412.45318274304952
30
-9.7485214429688101e-11
11
-10.201684033410174
21
28.594604099289427
31
-2.4513143177451612e-12
0
LINE
5
191
100
AcDbEntity
8
BEND
100
AcDbLine
10
5.7167597929198166
20
6.1309733552925527
30
1.2219667314007014e-12
11
1152.6657122720142
21
6.1309733552922037
31
7.1989838513557053e-13
0
LINE
5
192
100
AcDbEntity
8
BEND_EXTENT
100
AcDbLine
10
-11.332657388702927
20
28.594604099289427
30
-2.4847546185091563e-12
11
-11.332657388702927
21
412.45318274304952
31
-9.7640719094198236e-11
0
LINE
5
193
100
AcDbEntity
8
BEND_EXTENT
100
AcDbLine
10
-9.0707106781178481
20
412.45318274304964
30
-9.7267020249147527e-11
11
-9.0707106781178481
21
28.594604099289214
31
-2.3730684072699042e-12
0
LINE
5
194
100
AcDbEntity
8
BEND_EXTENT
100
AcDbLine
10
1169.7151294536363
20
412.45318274304969
30
-9.5724517783240155e-11
11
1169.7151294536361
21
28.594604099288219
31
-1.021524301597791e-12
0
LINE
5
195
100
AcDbEntity
8
BEND_EXTENT
100
AcDbLine
10
1167.4531827430515
20
28.594604099288095
30
-9.7999973543870177e-13
11
1167.4531827430515
21
412.45318274304998
31
-9.5873951577316699e-11
0
LINE
5
196
100
AcDbEntity
8
BEND_EXTENT
100
AcDbLine
10
4.9292893218820666
20
23.594604099289178
30
4.8759946814717452e-13
11
4.9292893218820666
21
417.45318274305032
31
-9.6878459475704347e-11
0
LINE
5
197
100
AcDbEntity
8
BEND_EXTENT
100
AcDbLine
10
1153.4531827430515
20
417.45318274304992
30
-9.7739859622669608e-11
11
1153.4531827430515
21
23.594604099287437
31
-3.738006788177603e-13
0
LINE
5
198
100
AcDbEntity
8
BEND_EXTENT
100
AcDbLine
10
1153.4531827430512
20
433.71512945363526
30
-1.0517059214983369e-10
11
1153.4531827430512
21
419.85655080987186
31
-9.8902432137942407e-11
0
LWPOLYLINE
5
199
100
AcDbEntity
8
BEND_EXTENT
100
AcDbPolyline
90
4
70
1
43
0.0
10
1151.1912360324668
20
419.78584013175345
10
1151.1912360324666
20
433.78584013175441
10
7.1912360324670033
20
433.78584013175328
10
7.1912360324667191
20
419.78584013175328
0
LWPOLYLINE
5
200
100
AcDbEntity
8
BEND_EXTENT
100
AcDbPolyline
90
4
70
1
43
0.0
10
1151.1912360324673
20
23.523893421168847
10
1151.1912360324668
20
417.52389342116896
10
7.1912360324667191
20
417.52389342116891
10
7.1912360324667191
20
23.523893421170143
0
LINE
5
201
100
AcDbEntity
8
BEND_EXTENT
100
AcDbLine
10
1153.4531827430519
20
4.9292893218814449
30
1.193171759537008e-13
11
1153.4531827430519
21
-5.8619775700208265e-13
31
-7.9373791729582337e-13
0
LINE
5
202
100
AcDbEntity
8
BEND_EXTENT
100
AcDbLine
10
1151.1912360324673
20
-4.0856207306205761e-13
30
-6.7671818546228916e-13
11
1151.1912360324673
21
4.9999999999999112
31
1.7222710379681789e-13
0
LINE
5
203
100
AcDbEntity
8
BEND_EXTENT
100
AcDbLine
10
1151.1912360324673
20
4.9999999999999112
30
1.7222710379681789e-13
11
7.1912360324668612
21
5.0000000000002487
31
9.4169633424695171e-13
0
LINE
5
204
100
AcDbEntity
8
BEND_EXTENT
100
AcDbLine
10
7.1912360324668612
20
5.0000000000002487
30
9.4169633424695171e-13
11
7.1912360324667191
21
-1.0658141036401503e-13
31
9.2751044987854764e-14
0
LINE
5
205
100
AcDbEntity
8
BEND_EXTENT
100
AcDbLine
10
4.9292893218820666
20
7.33265738870434
30
8.129046377101422e-13
11
4.9292893218820666
21
21.191236032467206
31
3.7119505905181795e-13
0
LWPOLYLINE
5
206
100
AcDbEntity
8
BEND_EXTENT
100
AcDbPolyline
90
4
70
1
43
0.0
10
7.1912360324667191
20
21.261946710585601
10
7.1912360324667191
20
7.2619467105850593
10
1151.1912360324673
20
7.2619467105843167
10
1151.1912360324673
20
21.261946710584748
0
LINE
5
207
100
AcDbEntity
8
BEND_EXTENT
100
AcDbLine
10
4.9292893218823508
20
419.85655080987215
30
-9.8254194811705163e-11
11
4.9292893218823508
21
433.7151294536344
31
-1.0480657191790019e-10
0
LINE
5
208
100
AcDbEntity
8
BEND_EXTENT
100
AcDbLine
10
4.9292893218823508
20
436.11849752045663
30
-1.0604019870674909e-10
11
4.9292893218823508
21
441.04778684233872
31
-1.095325085752122e-10
0
LINE
5
209
100
AcDbEntity
8
BEND_EXTENT
100
AcDbLine
10
7.1912360324670033
20
441.04778684233855
30
-1.0939417701138195e-10
11
7.1912360324670033
21
436.04778684233838
31
-1.0599984990052375e-10
0
LINE
5
210
100
AcDbEntity
8
BEND_EXTENT
100
AcDbLine
10
7.1912360324670033
20
436.04778684233838
30
-1.0599984990052375e-10
11
1151.1912360324666
21
436.04778684233901
31
-1.0656059720234458e-10
0
LINE
5
211
100
AcDbEntity
8
BEND_EXTENT
100
AcDbLine
10
1151.1912360324666
20
436.04778684233901
30
-1.0656059720234458e-10
11
1151.1912360324666
21
441.04778684233958
31
-1.0991939717641488e-10
0
LINE
5
212
100
AcDbEntity
8
BEND_EXTENT
100
AcDbLine
10
4.9292893218819245
20
-3.5527136788005009e-14
30
-3.3920439066148321e-15
11
4.9292893218819245
21
4.9292893218822087
31
9.0966304934285481e-13
0
LINE
5
213
100
AcDbEntity
8
BEND_EXTENT
100
AcDbLine
10
1153.4531827430519
20
21.191236032465959
30
-2.7704226718519622e-13
11
1153.4531827430519
21
7.3326573887031943
31
6.6204722650517226e-13
0
LINE
5
214
100
AcDbEntity
8
BEND_EXTENT
100
AcDbLine
10
1153.453182743051
20
441.04778684233952
30
-1.0975442025999365e-10
11
1153.4531827430512
21
436.11849752045691
31
-1.0654632748583447e-10
0
ENDSEC
0
SECTION
2
OBJECTS
0
DICTIONARY
5
C
100
AcDbDictionary
3
ACAD_GROUP
350
D
3
ACAD_MLINESTYLE
350
17
0
DICTIONARY
5
D
100
AcDbDictionary
0
DICTIONARY
5
1A
330
C
100
AcDbDictionary
0
DICTIONARY
5
17
100
AcDbDictionary
0
ENDSEC
0
EOF
