0
SECTION
2
HEADER
9
$INSUNITS
70
4
9
$ACADVER
1
AC1014
9
$HANDSEED
5
FFFF
0
ENDSEC
0
SECTION
2
TABLES
0
TABLE
2
VPORT
5
8
100
AcDbSymbolTable
0
ENDTAB
0
TABLE
2
LTYPE
5
5
100
AcDbSymbolTable
0
LTYPE
5
14
100
AcDbSymbolTableRecord
100
AcDbLinetypeTableRecord
2
BYBLOCK
70
0
0
LTYPE
5
15
100
AcDbSymbolTableRecord
100
AcDbLinetypeTableRecord
2
BYLAYER
70
0
0
LTYPE
5
16
100
AcDbSymbolTableRecord
100
AcDbLinetypeTableRecord
2
DASHED
70
0
3
Dashed __ __ __ __ __ __ __ __ __ __ __ __ __ _
72
65
73
2
40
0.75
49
0.5
74
0
49
-0.25
74
0
0
ENDTAB
0
TABLE
2
LAYER
5
2
100
AcDbSymbolTable
70
2
0
LAYER
5
50
100
AcDbSymbolTableRecord
100
AcDbLayerTableRecord
2
0
70
0
62
7
6
CONTINUOUS
0
ENDTAB
0
TABLE
2
STYLE
5
3
100
AcDbSymbolTable
70
1
0
STYLE
5
11
100
AcDbSymbolTableRecord
100
AcDbTextStyleTableRecord
2
STANDARD
70
0
0
ENDTAB
0
TABLE
2
VIEW
5
6
100
AcDbSymbolTable
70
0
0
ENDTAB
0
TABLE
2
UCS
5
7
100
AcDbSymbolTable
70
0
0
ENDTAB
0
TABLE
2
APPID
5
9
100
AcDbSymbolTable
70
2
0
APPID
5
12
100
AcDbSymbolTableRecord
100
AcDbRegAppTableRecord
2
ACAD
70
0
0
ENDTAB
0
TABLE
2
DIMSTYLE
5
A
100
AcDbSymbolTable
70
1
0
ENDTAB
0
TABLE
2
BLOCK_RECORD
5
1
100
AcDbSymbolTable
70
1
0
BLOCK_RECORD
5
1F
100
AcDbSymbolTableRecord
100
AcDbBlockTableRecord
2
*MODEL_SPACE
0
BLOCK_RECORD
5
1B
100
AcDbSymbolTableRecord
100
AcDbBlockTableRecord
2
*PAPER_SPACE
0
ENDTAB
0
ENDSEC
0
SECTION
2
BLOCKS
0
BLOCK
5
20
100
AcDbEntity
100
AcDbBlockBegin
2
*MODEL_SPACE
0
ENDBLK
5
21
100
AcDbEntity
100
AcDbBlockEnd
0
BLOCK
5
1C
100
AcDbEntity
100
AcDbBlockBegin
2
*PAPER_SPACE
0
ENDBLK
5
1D
100
AcDbEntity
100
AcDbBlockEnd
0
ENDSEC
0
SECTION
2
ENTITIES
0
LWPOLYLINE
5
100
100
AcDbEntity
8
OUTER_PROFILES
100
AcDbPolyline
90
24
70
1
43
0.0
10
0
20
-112.04778684233828
10
0
20
-107.04778684233828
10
0
20
-104.78584013175399
10
0
20
-70.785840131753986
10
0
20
-59.523893421169369
10
-10.261946710584597
20
-59.523893421169362
10
-10.261946710584617
20
-38.523893421169362
10
0
20
-38.523893421169362
10
0
20
-36.261946710584652
10
0
20
-2.2619467105846525
10
0
20
0
10
0
20
5.0000000000000044
10
1196
20
5.0000000000000044
10
1196
20
0
10
1196
20
-2.2619467105846525
10
1196
20
-36.261946710584652
10
1196
20
-38.523893421169362
10
1206.2619467105847
20
-38.523893421169362
10
1206.2619467105847
20
-59.523893421169362
10
1196
20
-59.523893421169362
10
1196
20
-70.785840131753986
10
1196
20
-104.78584013175399
10
1196
20
-107.04778684233828
10
1196
20
-112.04778684233828
0
CIRCLE
5
101
100
AcDbEntity
8
INTERIOR_PROFILES
100
AcDbCircle
10
-777.00000000000068
20
-7.2619467105846702
30
0
40
1.7000000000000171
210
0
220
0
230
-1
0
CIRCLE
5
102
100
AcDbEntity
8
INTERIOR_PROFILES
100
AcDbCircle
10
-777.00000000000068
20
-65.785840131753929
30
0
40
1.7000000000000171
210
0
220
0
230
-1
0
CIRCLE
5
103
100
AcDbEntity
8
INTERIOR_PROFILES
100
AcDbCircle
10
-606.99999999999932
20
-90.785840131753943
30
0
40
1.7000000000000171
210
0
220
0
230
-1
0
CIRCLE
5
104
100
AcDbEntity
8
INTERIOR_PROFILES
100
AcDbCircle
10
-777.00000000000068
20
-32.261946710584674
30
0
40
1.7000000000000171
210
0
220
0
230
-1
0
CIRCLE
5
105
100
AcDbEntity
8
INTERIOR_PROFILES
100
AcDbCircle
10
-589.00000000000068
20
-65.785840131753929
30
0
40
1.7000000000000171
210
0
220
0
230
-1
0
CIRCLE
5
106
100
AcDbEntity
8
INTERIOR_PROFILES
100
AcDbCircle
10
-418.99999999999926
20
-90.785840131753943
30
0
40
1.7000000000000171
210
0
220
0
230
-1
0
CIRCLE
5
107
100
AcDbEntity
8
INTERIOR_PROFILES
100
AcDbCircle
10
-777.00000000000068
20
-90.785840131753943
30
0
40
1.7000000000000171
210
0
220
0
230
-1
0
CIRCLE
5
108
100
AcDbEntity
8
INTERIOR_PROFILES
100
AcDbCircle
10
-606.99999999999932
20
-7.2619467105846702
30
0
40
1.7000000000000171
210
0
220
0
230
-1
0
CIRCLE
5
109
100
AcDbEntity
8
INTERIOR_PROFILES
100
AcDbCircle
10
-589.00000000000068
20
-7.2619467105846702
30
0
40
1.7000000000000171
210
0
220
0
230
-1
0
CIRCLE
5
110
100
AcDbEntity
8
INTERIOR_PROFILES
100
AcDbCircle
10
-606.99999999999932
20
-32.261946710584674
30
0
40
1.7000000000000171
210
0
220
0
230
-1
0
CIRCLE
5
111
100
AcDbEntity
8
INTERIOR_PROFILES
100
AcDbCircle
10
-606.99999999999932
20
-65.785840131753929
30
0
40
1.7000000000000171
210
0
220
0
230
-1
0
CIRCLE
5
112
100
AcDbEntity
8
INTERIOR_PROFILES
100
AcDbCircle
10
-589.00000000000068
20
-90.785840131753943
30
0
40
1.7000000000000171
210
0
220
0
230
-1
0
CIRCLE
5
113
100
AcDbEntity
8
INTERIOR_PROFILES
100
AcDbCircle
10
-418.99999999999926
20
-7.2619467105846702
30
0
40
1.7000000000000171
210
0
220
0
230
-1
0
CIRCLE
5
114
100
AcDbEntity
8
INTERIOR_PROFILES
100
AcDbCircle
10
-589.00000000000068
20
-32.261946710584674
30
0
40
1.7000000000000171
210
0
220
0
230
-1
0
CIRCLE
5
115
100
AcDbEntity
8
INTERIOR_PROFILES
100
AcDbCircle
10
-418.99999999999926
20
-32.261946710584674
30
0
40
1.7000000000000171
210
0
220
0
230
-1
0
LWPOLYLINE
5
116
100
AcDbEntity
8
INTERIOR_PROFILES
100
AcDbPolyline
90
4
70
1
43
0.0
10
420.9999999999992
20
-59.523893421169369
10
420.9999999999992
20
-61.785840131753929
10
497.99999999999909
20
-61.785840131762356
10
497.99999999999909
20
-59.523893421169369
0
CIRCLE
5
117
100
AcDbEntity
8
INTERIOR_PROFILES
100
AcDbCircle
10
-418.99999999999926
20
-65.785840131753929
30
0
40
1.7000000000000171
210
0
220
0
230
-1
0
CIRCLE
5
118
100
AcDbEntity
8
INTERIOR_PROFILES
100
AcDbCircle
10
-1189.0000000000007
20
-90.785840131753986
30
0
40
1.7000000000000171
210
0
220
0
230
-1
0
CIRCLE
5
119
100
AcDbEntity
8
INTERIOR_PROFILES
100
AcDbCircle
10
-705.00000000000023
20
-49.023893421169369
30
0
40
1.7000000000000171
210
0
220
0
230
-1
0
LWPOLYLINE
5
120
100
AcDbEntity
8
INTERIOR_PROFILES
100
AcDbPolyline
90
4
70
1
43
0.0
10
82.999999999999972
20
-61.785840131753972
10
82.999999999999972
20
-59.523893421169362
10
10
20
-59.523893421169362
10
10
20
-61.785840131753972
0
CIRCLE
5
121
100
AcDbEntity
8
INTERIOR_PROFILES
100
AcDbCircle
10
-490.99999999999966
20
-49.02389342116944
30
0
40
1.7000000000000171
210
0
220
0
230
-1
0
CIRCLE
5
122
100
AcDbEntity
8
INTERIOR_PROFILES
100
AcDbCircle
10
-6.9999999999992468
20
-32.261946710584624
30
0
40
1.7000000000000171
210
0
220
0
230
-1
0
CIRCLE
5
123
100
AcDbEntity
8
INTERIOR_PROFILES
100
AcDbCircle
10
-827.00000000000068
20
-90.785840131753943
30
0
40
1.7000000000000171
210
0
220
0
230
-1
0
CIRCLE
5
124
100
AcDbEntity
8
INTERIOR_PROFILES
100
AcDbCircle
10
-6.9999999999992468
20
-65.785840131753986
30
0
40
1.7000000000000171
210
0
220
0
230
-1
0
CIRCLE
5
125
100
AcDbEntity
8
INTERIOR_PROFILES
100
AcDbCircle
10
-368.99999999999926
20
-32.261946710584674
30
0
40
1.7000000000000171
210
0
220
0
230
-1
0
CIRCLE
5
126
100
AcDbEntity
8
INTERIOR_PROFILES
100
AcDbCircle
10
-368.99999999999926
20
-65.785840131753929
30
0
40
1.7000000000000171
210
0
220
0
230
-1
0
CIRCLE
5
127
100
AcDbEntity
8
INTERIOR_PROFILES
100
AcDbCircle
10
-444.99999999999966
20
-49.02389342116944
30
0
40
1.7000000000000171
210
0
220
0
230
-1
0
CIRCLE
5
128
100
AcDbEntity
8
INTERIOR_PROFILES
100
AcDbCircle
10
-751.00000000000023
20
-49.023893421169369
30
0
40
1.7000000000000171
210
0
220
0
230
-1
0
CIRCLE
5
129
100
AcDbEntity
8
INTERIOR_PROFILES
100
AcDbCircle
10
-1189.0000000000007
20
-32.261946710584624
30
0
40
1.7000000000000171
210
0
220
0
230
-1
0
CIRCLE
5
130
100
AcDbEntity
8
INTERIOR_PROFILES
100
AcDbCircle
10
-827.00000000000068
20
-7.2619467105846702
30
0
40
1.7000000000000171
210
0
220
0
230
-1
0
CIRCLE
5
131
100
AcDbEntity
8
INTERIOR_PROFILES
100
AcDbCircle
10
-1189.0000000000007
20
-65.785840131753986
30
0
40
1.7000000000000171
210
0
220
0
230
-1
0
CIRCLE
5
132
100
AcDbEntity
8
INTERIOR_PROFILES
100
AcDbCircle
10
-1189.0000000000007
20
-7.2619467105846214
30
0
40
1.7000000000000171
210
0
220
0
230
-1
0
CIRCLE
5
133
100
AcDbEntity
8
INTERIOR_PROFILES
100
AcDbCircle
10
-6.9999999999992468
20
-90.785840131753986
30
0
40
1.7000000000000171
210
0
220
0
230
-1
0
CIRCLE
5
134
100
AcDbEntity
8
INTERIOR_PROFILES
100
AcDbCircle
10
-827.00000000000068
20
-65.785840131753929
30
0
40
1.7000000000000171
210
0
220
0
230
-1
0
CIRCLE
5
135
100
AcDbEntity
8
INTERIOR_PROFILES
100
AcDbCircle
10
-368.99999999999926
20
-7.2619467105846702
30
0
40
1.7000000000000171
210
0
220
0
230
-1
0
LWPOLYLINE
5
136
100
AcDbEntity
8
INTERIOR_PROFILES
100
AcDbPolyline
90
4
70
1
43
0.0
10
1113
20
-59.523893421169362
10
1113
20
-61.785840131753972
10
1186
20
-61.785840131753972
10
1186
20
-59.523893421169362
0
CIRCLE
5
137
100
AcDbEntity
8
INTERIOR_PROFILES
100
AcDbCircle
10
-6.9999999999992468
20
-7.2619467105846214
30
0
40
1.7000000000000171
210
0
220
0
230
-1
0
CIRCLE
5
138
100
AcDbEntity
8
INTERIOR_PROFILES
100
AcDbCircle
10
-827.00000000000068
20
-32.261946710584674
30
0
40
1.7000000000000171
210
0
220
0
230
-1
0
CIRCLE
5
139
100
AcDbEntity
8
INTERIOR_PROFILES
100
AcDbCircle
10
-368.99999999999926
20
-90.785840131753943
30
0
40
1.7000000000000171
210
0
220
0
230
-1
0
CIRCLE
5
140
100
AcDbEntity
8
INTERIOR_PROFILES
100
AcDbCircle
10
-1202.2619467105778
20
-49.023893421169362
30
0
40
1.6999999999999993
210
0
220
0
230
-1
0
LWPOLYLINE
5
141
100
AcDbEntity
8
INTERIOR_PROFILES
100
AcDbPolyline
90
4
70
1
43
0.0
10
1112.9999999999998
20
-36.261946710584652
10
1112.9999999999998
20
-38.523893421169369
10
1186
20
-38.523893421169369
10
1186
20
-36.261946710584652
0
LWPOLYLINE
5
142
100
AcDbEntity
8
INTERIOR_PROFILES
100
AcDbPolyline
90
4
70
1
43
0.0
10
82.999999999999972
20
-36.261946710584652
10
10
20
-36.261946710584652
10
10
20
-38.523893421169362
10
82.999999999999972
20
-38.523893421169369
0
CIRCLE
5
143
100
AcDbEntity
8
INTERIOR_PROFILES
100
AcDbCircle
10
-1117
20
-49.023893421169369
30
0
40
1.7000000000000171
210
0
220
0
230
-1
0
CIRCLE
5
144
100
AcDbEntity
8
INTERIOR_PROFILES
100
AcDbCircle
10
-78.999999999999986
20
-49.023893421169369
30
0
40
1.6999999999999993
210
0
220
0
230
-1
0
CIRCLE
5
145
100
AcDbEntity
8
INTERIOR_PROFILES
100
AcDbCircle
10
-1189
20
-49.023893421169369
30
0
40
1.7000000000000171
210
0
220
0
230
-1
0
CIRCLE
5
146
100
AcDbEntity
8
INTERIOR_PROFILES
100
AcDbCircle
10
-6.9999999999999574
20
-49.023893421169369
30
0
40
1.7000000000000004
210
0
220
0
230
-1
0
CIRCLE
5
147
100
AcDbEntity
8
INTERIOR_PROFILES
100
AcDbCircle
10
-32.999999999999972
20
-49.023893421169369
30
0
40
1.6999999999999993
210
0
220
0
230
-1
0
CIRCLE
5
148
100
AcDbEntity
8
INTERIOR_PROFILES
100
AcDbCircle
10
-1163
20
-49.023893421169369
30
0
40
1.7000000000000171
210
0
220
0
230
-1
0
CIRCLE
5
149
100
AcDbEntity
8
INTERIOR_PROFILES
100
AcDbCircle
10
6.2619467105715456
20
-49.023893421169362
30
0
40
1.6999999999999993
210
0
220
0
230
-1
0
LINE
5
150
100
AcDbEntity
8
BEND
100
AcDbLine
10
0
20
-60.654866776467671
30
1.1338152638986837e-13
11
1196
21
-60.654866776467671
31
1.1338152638986837e-13
0
LINE
5
151
100
AcDbEntity
8
BEND
100
AcDbLine
10
-1.1309733552923231
20
-59.523893421169362
30
6.3699046037868357e-14
11
-1.1309733552923231
21
-38.523893421169362
31
1.5404344466674047e-14
0
LINE
5
152
100
AcDbEntity
8
BEND
100
AcDbLine
10
1197.1309733552923
20
-38.523893421169362
30
1.5404344466674047e-14
11
1197.1309733552923
21
-59.523893421169362
31
6.3699046037868357e-14
0
LINE
5
153
100
AcDbEntity
8
BEND
100
AcDbLine
10
1196
20
-105.91681348704611
30
2.3203170029215883e-13
11
0
21
-105.91681348704611
31
2.3424846119552437e-13
0
LINE
5
154
100
AcDbEntity
8
BEND
100
AcDbLine
10
1196
20
-1.1309733552923091
30
-8.48632887274499e-16
11
0
21
-1.1309733552923091
31
-2.7522233243352579e-15
0
LINE
5
155
100
AcDbEntity
8
BEND
100
AcDbLine
10
1196
20
-37.392920065877007
30
3.1946544695392717e-14
11
0
21
-37.392920065877007
31
2.9706448718125757e-14
0
LINE
5
156
100
AcDbEntity
8
BEND_EXTENT
100
AcDbLine
10
497.99999999999909
20
-61.785840131762356
30
4.6629367034256575e-14
11
1113
21
-61.785840131753972
31
1.1990408665951691e-13
0
LINE
5
157
100
AcDbEntity
8
BEND_EXTENT
100
AcDbLine
10
1113
20
-59.523893421169362
30
1.0436096431476471e-13
11
497.99999999999909
21
-59.523893421169369
31
1.0783041126671833e-13
0
LINE
5
158
100
AcDbEntity
8
BEND_EXTENT
100
AcDbLine
10
420.9999999999992
20
-59.523893421169369
30
1.0783041126671833e-13
11
82.999999999999972
21
-59.523893421169362
31
1.0436096431476471e-13
0
LINE
5
159
100
AcDbEntity
8
BEND_EXTENT
100
AcDbLine
10
82.999999999999972
20
-61.785840131753972
30
1.1990408665951691e-13
11
420.9999999999992
21
-61.785840131753929
31
4.6629367034256575e-14
0
LINE
5
160
100
AcDbEntity
8
BEND_EXTENT
100
AcDbLine
10
0
20
-61.785840131754043
30
1.1990408665951691e-13
11
10
21
-61.785840131753972
31
1.1990408665951691e-13
0
LINE
5
161
100
AcDbEntity
8
BEND_EXTENT
100
AcDbLine
10
1196
20
-104.78584013175399
30
2.2426505097428162e-13
11
0
21
-104.78584013175399
31
2.2426505097428162e-13
0
LINE
5
162
100
AcDbEntity
8
BEND_EXTENT
100
AcDbLine
10
1186
20
-61.785840131753972
30
1.1990408665951691e-13
11
1196
21
-61.785840131754043
31
1.0658141036401503e-13
0
LINE
5
163
100
AcDbEntity
8
BEND_EXTENT
100
AcDbLine
10
1196
20
-59.523893421169362
30
6.3837823915946501e-14
11
1186
21
-59.523893421169362
31
1.0436096431476471e-13
0
LINE
5
164
100
AcDbEntity
8
BEND_EXTENT
100
AcDbLine
10
1196
20
-59.523893421169362
30
6.3837823915946501e-14
11
1196
21
-38.523893421169362
31
2.9143354396410359e-14
0
LINE
5
165
100
AcDbEntity
8
BEND_EXTENT
100
AcDbLine
10
1186
20
-38.523893421169369
30
3.3584246494910985e-14
11
1196
21
-38.523893421169362
31
2.9143354396410359e-14
0
LINE
5
166
100
AcDbEntity
8
BEND_EXTENT
100
AcDbLine
10
10
20
-59.523893421169362
30
1.0436096431476471e-13
11
0
21
-59.523893421169369
31
1.0436096431476471e-13
0
LINE
5
167
100
AcDbEntity
8
BEND_EXTENT
100
AcDbLine
10
0
20
-38.523893421169362
30
2.9143354396410359e-14
11
0
21
-59.523893421169369
31
1.0436096431476471e-13
0
LINE
5
168
100
AcDbEntity
8
BEND_EXTENT
100
AcDbLine
10
0
20
-38.523893421169362
30
2.9143354396410359e-14
11
10
21
-38.523893421169362
31
3.3584246494910985e-14
0
LINE
5
169
100
AcDbEntity
8
BEND_EXTENT
100
AcDbLine
10
82.999999999999972
20
-38.523893421169369
30
3.3584246494910985e-14
11
1112.9999999999998
21
-38.523893421169369
31
3.3584246494910985e-14
0
LINE
5
170
100
AcDbEntity
8
BEND_EXTENT
100
AcDbLine
10
10
20
-36.261946710584652
30
3.1086244689504383e-14
11
0
21
-36.261946710584652
31
3.1086244689504383e-14
0
LINE
5
171
100
AcDbEntity
8
BEND_EXTENT
100
AcDbLine
10
1112.9999999999998
20
-36.261946710584652
30
3.1086244689504383e-14
11
82.999999999999972
21
-36.261946710584652
31
3.1086244689504383e-14
0
LINE
5
172
100
AcDbEntity
8
BEND_EXTENT
100
AcDbLine
10
1196
20
-36.261946710584652
30
3.1086244689504383e-14
11
1186
21
-36.261946710584652
31
3.1086244689504383e-14
0
LINE
5
173
100
AcDbEntity
8
BEND_EXTENT
100
AcDbLine
10
1198.2619467105847
20
-38.523893421169355
30
1.4210854715202004e-13
11
1198.2619467105847
21
-59.523893421169348
31
1.4210854715202004e-13
0
LINE
5
174
100
AcDbEntity
8
BEND_EXTENT
100
AcDbLine
10
-2.261946710584624
20
-59.523893421169348
30
1.4210854715202004e-13
11
-2.261946710584644
21
-38.523893421169355
31
1.4210854715202004e-13
0
LINE
5
175
100
AcDbEntity
8
BEND_EXTENT
100
AcDbLine
10
0
20
-2.2619467105846525
30
-2.2204460492503131e-15
11
1196
21
-2.2619467105846525
31
-2.2204460492503131e-15
0
LINE
5
176
100
AcDbEntity
8
BEND_EXTENT
100
AcDbLine
10
1196
20
0
30
-4.4408920985006262e-15
11
0
21
0
31
-4.4408920985006262e-15
0
LINE
5
177
100
AcDbEntity
8
BEND_EXTENT
100
AcDbLine
10
0
20
-107.04778684233828
30
2.4868995751603507e-13
11
1196
21
-107.04778684233828
31
2.4868995751603507e-13
0
ENDSEC
0
SECTION
2
OBJECTS
0
DICTIONARY
5
C
100
AcDbDictionary
3
ACAD_GROUP
350
D
3
ACAD_MLINESTYLE
350
17
0
DICTIONARY
5
D
100
AcDbDictionary
0
DICTIONARY
5
1A
330
C
100
AcDbDictionary
0
DICTIONARY
5
17
100
AcDbDictionary
0
ENDSEC
0
EOF
