0
SECTION
2
HEADER
9
$INSUNITS
70
4
0
ENDSEC
0
SECTION
2
ENTITIES
0
LWPOLYLINE
8
SHEET_BORDER
90
5
70
1
10
0.000
20
0.000
10
3050.000
20
0.000
10
3050.000
20
1525.000
10
0.000
20
1525.000
10
0.000
20
0.000
0
TEXT
8
PART_LABELS
10
309.760
20
285.650
30
0
40
50.000
1
DSV1TR-060050
72
1
73
2
11
309.760
21
285.650
31
0
0
ARC
8
OUTER_PROFILES
10
-635306.969
20
-401807.658
30
0
40
752001.732
50
32.3466
51
32.3468
0
LINE
8
OUTER_PROFILES
10
4.241
20
543.273
30
0
11
4.956
21
542.145
31
0
0
LINE
8
OUTER_PROFILES
10
4.956
20
542.144
30
0
11
1.773
21
541.949
31
0
0
ARC
8
OUTER_PROFILES
10
1.043
20
538.248
30
0
40
3.772
50
78.8499
51
106.0520
0
LINE
8
OUTER_PROFILES
10
0.000
20
541.873
30
0
11
0.111
21
541.450
31
0
0
LINE
8
OUTER_PROFILES
10
0.111
20
541.450
30
0
11
6.783
21
516.076
31
0
0
LINE
8
OUTER_PROFILES
10
6.783
20
516.076
30
0
11
12.108
21
505.635
31
0
0
LINE
8
OUTER_PROFILES
10
12.108
20
505.635
30
0
11
578.606
21
1.666
31
0
0
LINE
8
OUTER_PROFILES
10
578.606
20
1.666
30
0
11
583.265
21
0.198
31
0
0
ARC
8
OUTER_PROFILES
10
584.712
20
5.347
30
0
40
5.348
50
254.3001
51
285.8897
0
ARC
8
OUTER_PROFILES
10
585.697
20
1.068
30
0
40
0.989
50
298.9725
51
318.0661
0
LINE
8
OUTER_PROFILES
10
586.433
20
0.407
30
0
11
597.068
21
12.362
31
0
0
ARC
8
OUTER_PROFILES
10
594.613
20
13.593
30
0
40
2.747
50
333.3698
51
23.3502
0
ARC
8
OUTER_PROFILES
10
564.593
20
6.435
30
0
40
33.569
50
14.2193
51
15.7233
0
LINE
8
OUTER_PROFILES
10
596.906
20
15.532
30
0
11
596.998
21
15.573
31
0
0
ARC
8
OUTER_PROFILES
10
601.635
20
17.791
30
0
40
5.140
50
205.5556
51
238.8597
0
ARC
8
OUTER_PROFILES
10
599.266
20
14.277
30
0
40
0.932
50
251.9425
51
269.6194
0
LINE
8
OUTER_PROFILES
10
599.260
20
13.345
30
0
11
615.260
21
13.345
31
0
0
ARC
8
OUTER_PROFILES
10
614.755
20
15.653
30
0
40
2.362
50
282.3391
51
333.8673
0
ARC
8
OUTER_PROFILES
10
598.108
20
27.930
30
0
40
23.012
50
324.6391
51
327.5230
0
LINE
8
OUTER_PROFILES
10
617.522
20
15.573
30
0
11
619.522
21
20.030
31
0
0
LINE
8
OUTER_PROFILES
10
619.522
20
20.030
30
0
11
619.522
21
524.003
31
0
0
LINE
8
OUTER_PROFILES
10
619.522
20
524.003
30
0
11
617.522
21
526.003
31
0
0
LINE
8
OUTER_PROFILES
10
617.522
20
526.003
30
0
11
615.260
21
528.973
31
0
0
LINE
8
OUTER_PROFILES
10
615.260
20
528.973
30
0
11
600.674
21
543.559
31
0
0
ARC
8
OUTER_PROFILES
10
599.260
20
542.145
30
0
40
2.000
50
45.0000
51
90.0000
0
LINE
8
OUTER_PROFILES
10
599.260
20
544.145
30
0
11
596.998
21
542.145
31
0
0
LINE
8
OUTER_PROFILES
10
596.998
20
542.145
30
0
11
597.898
21
545.538
31
0
0
LINE
8
OUTER_PROFILES
10
597.898
20
545.538
30
0
11
597.898
21
566.719
31
0
0
ARC
8
OUTER_PROFILES
10
588.096
20
564.740
30
0
40
10.000
50
11.4188
51
20.0319
0
ARC
8
OUTER_PROFILES
10
588.093
20
564.738
30
0
40
10.003
50
20.0330
51
27.1050
0
LINE
8
OUTER_PROFILES
10
596.997
20
569.296
30
0
11
594.997
21
571.296
31
0
0
LINE
8
OUTER_PROFILES
10
594.997
20
571.296
30
0
11
28.478
21
571.296
31
0
0
LINE
8
OUTER_PROFILES
10
28.478
20
571.296
30
0
11
23.222
21
569.296
31
0
0
ARC
8
OUTER_PROFILES
10
34.141
20
551.542
30
0
40
20.844
50
121.5950
51
125.3222
0
LINE
8
OUTER_PROFILES
10
21.510
20
568.165
30
0
11
22.088
21
568.547
31
0
0
LINE
8
OUTER_PROFILES
10
21.510
20
568.165
30
0
11
19.997
21
567.165
31
0
0
LINE
8
OUTER_PROFILES
10
19.997
20
567.165
30
0
11
2.807
21
545.538
31
0
0
TEXT
8
PART_LABELS
10
918.255
20
266.415
30
0
40
50.000
1
DSV2TR-060050
72
1
73
2
11
918.255
21
266.415
31
0
0
LINE
8
OUTER_PROFILES
10
1184.495
20
532.834
30
0
11
621.520
21
32.000
31
0
0
LINE
8
OUTER_PROFILES
10
621.520
20
32.000
30
0
11
632.819
21
19.298
31
0
0
ARC
8
OUTER_PROFILES
10
634.086
20
21.248
30
0
40
2.325
50
236.9966
51
289.2850
0
ARC
8
OUTER_PROFILES
10
630.217
20
44.619
30
0
40
25.982
50
280.2786
51
283.5087
0
LINE
8
OUTER_PROFILES
10
636.287
20
19.355
30
0
11
636.322
21
19.262
31
0
0
ARC
8
OUTER_PROFILES
10
638.664
20
13.478
30
0
40
6.240
50
112.0414
51
141.4875
0
ARC
8
OUTER_PROFILES
10
634.548
20
16.986
30
0
40
0.855
50
153.8093
51
179.0856
0
LINE
8
OUTER_PROFILES
10
633.694
20
17.000
30
0
11
633.694
21
0.000
31
0
0
LINE
8
OUTER_PROFILES
10
633.694
20
0.000
30
0
11
1196.654
21
0.000
31
0
0
LINE
8
OUTER_PROFILES
10
1196.654
20
0.000
30
0
11
1196.654
21
17.000
31
0
0
ARC
8
OUTER_PROFILES
10
1192.402
20
16.472
30
0
40
4.285
50
7.0769
51
40.6233
0
LINE
8
OUTER_PROFILES
10
1195.654
20
19.262
30
0
11
1195.725
21
19.333
31
0
0
ARC
8
OUTER_PROFILES
10
1198.514
20
22.585
30
0
40
4.285
50
229.3767
51
262.9231
0
LINE
8
OUTER_PROFILES
10
1197.986
20
18.333
30
0
11
1214.986
21
18.333
31
0
0
LINE
8
OUTER_PROFILES
10
1214.986
20
18.333
30
0
11
1214.986
21
519.149
31
0
0
LINE
8
OUTER_PROFILES
10
1214.986
20
519.149
30
0
11
1197.986
21
519.149
31
0
0
ARC
8
OUTER_PROFILES
10
1198.699
20
516.496
30
0
40
2.747
50
105.0268
51
155.0072
0
ARC
8
OUTER_PROFILES
10
1223.999
20
498.825
30
0
40
33.569
50
145.8763
51
147.3803
0
LINE
8
OUTER_PROFILES
10
1195.725
20
516.921
30
0
11
1195.633
21
516.962
31
0
0
ARC
8
OUTER_PROFILES
10
1190.894
20
518.953
30
0
40
5.140
50
337.2126
51
10.5166
0
ARC
8
OUTER_PROFILES
10
1195.094
20
519.518
30
0
40
0.932
50
23.5994
51
41.2764
0
LINE
8
OUTER_PROFILES
10
1195.795
20
520.133
30
0
11
1184.495
21
532.834
31
0
0
CIRCLE
8
INTERIOR_PROFILES
10
1178.225
20
436.762
30
0
40
17.500
0
CIRCLE
8
INTERIOR_PROFILES
10
1172.225
20
62.762
30
0
40
1.700
0
CIRCLE
8
INTERIOR_PROFILES
10
1172.225
20
110.762
30
0
40
1.700
0
CIRCLE
8
INTERIOR_PROFILES
10
1172.225
20
412.762
30
0
40
1.700
0
CIRCLE
8
INTERIOR_PROFILES
10
1172.225
20
460.762
30
0
40
1.700
0
CIRCLE
8
INTERIOR_PROFILES
10
1178.225
20
86.762
30
0
40
17.500
0
TEXT
8
PART_LABELS
10
1614.490
20
198.500
30
0
40
50.000
1
SH0S11-080035
72
1
73
2
11
1614.490
21
198.500
31
0
0
LWPOLYLINE
8
OUTER_PROFILES
90
24
70
1
10
1992.383
20
371.362
10
2010.807
20
389.786
10
1991.252
20
389.786
10
1991.252
20
397.048
10
1237.252
20
397.048
10
1237.252
20
389.786
10
1217.697
20
389.786
10
1236.121
20
371.362
42
-0.414214
10
1236.121
20
369.948
10
1216.990
20
350.817
10
1216.990
20
46.231
10
1236.121
20
27.100
42
-0.414214
10
1236.121
20
25.686
10
1217.697
20
7.262
10
1237.252
20
7.262
10
1237.252
20
0.000
10
1991.252
20
0.000
10
1991.252
20
7.262
10
2010.807
20
7.262
10
1992.383
20
25.686
42
-0.414214
10
1992.383
20
27.100
10
2011.514
20
46.231
10
2011.514
20
350.817
10
1992.383
20
369.948
42
-0.414214
0
CIRCLE
8
INTERIOR_PROFILES
10
1225.990
20
198.524
30
0
40
1.700
0
CIRCLE
8
INTERIOR_PROFILES
10
2002.514
20
198.524
30
0
40
1.700
0
TEXT
8
PART_LABELS
10
2266.250
20
273.025
30
0
40
50.000
1
DSB0F0-060050
72
1
73
2
11
2266.250
21
273.025
31
0
0
LINE
8
OUTER_PROFILES
10
2502.252
20
546.048
30
0
11
2502.252
21
517.786
31
0
0
LINE
8
OUTER_PROFILES
10
2502.252
20
517.786
30
0
11
2502.252
21
515.524
31
0
0
LINE
8
OUTER_PROFILES
10
2502.252
20
515.524
30
0
11
2504.514
21
515.524
31
0
0
LINE
8
OUTER_PROFILES
10
2504.514
20
515.524
30
0
11
2518.514
21
515.524
31
0
0
LINE
8
OUTER_PROFILES
10
2518.514
20
515.524
30
0
11
2518.514
21
30.524
31
0
0
LINE
8
OUTER_PROFILES
10
2518.514
20
30.524
30
0
11
2504.514
21
30.524
31
0
0
LINE
8
OUTER_PROFILES
10
2504.514
20
30.524
30
0
11
2502.252
21
30.524
31
0
0
LINE
8
OUTER_PROFILES
10
2502.252
20
30.524
30
0
11
2502.252
21
28.262
31
0
0
LINE
8
OUTER_PROFILES
10
2502.252
20
28.262
30
0
11
2502.252
21
0.000
31
0
0
LINE
8
OUTER_PROFILES
10
2502.252
20
0.000
30
0
11
2030.252
21
0.000
31
0
0
LINE
8
OUTER_PROFILES
10
2030.252
20
0.000
30
0
11
2030.252
21
28.262
31
0
0
LINE
8
OUTER_PROFILES
10
2030.252
20
28.262
30
0
11
2030.252
21
30.524
31
0
0
LINE
8
OUTER_PROFILES
10
2030.252
20
30.524
30
0
11
2027.990
21
30.524
31
0
0
LINE
8
OUTER_PROFILES
10
2027.990
20
30.524
30
0
11
2013.990
21
30.524
31
0
0
LINE
8
OUTER_PROFILES
10
2013.990
20
30.524
30
0
11
2013.990
21
515.524
31
0
0
LINE
8
OUTER_PROFILES
10
2013.990
20
515.524
30
0
11
2027.990
21
515.524
31
0
0
LINE
8
OUTER_PROFILES
10
2027.990
20
515.524
30
0
11
2030.252
21
515.524
31
0
0
LINE
8
OUTER_PROFILES
10
2030.252
20
515.524
30
0
11
2030.252
21
517.786
31
0
0
LINE
8
OUTER_PROFILES
10
2030.252
20
517.786
30
0
11
2030.252
21
546.048
31
0
0
LINE
8
OUTER_PROFILES
10
2030.252
20
546.048
30
0
11
2502.252
21
546.048
31
0
0
CIRCLE
8
INTERIOR_PROFILES
10
2072.102
20
538.548
30
0
40
2.500
0
CIRCLE
8
INTERIOR_PROFILES
10
2488.102
20
7.500
30
0
40
2.500
0
CIRCLE
8
INTERIOR_PROFILES
10
2072.102
20
7.500
30
0
40
2.500
0
CIRCLE
8
INTERIOR_PROFILES
10
2218.102
20
538.548
30
0
40
2.500
0
CIRCLE
8
INTERIOR_PROFILES
10
2021.990
20
473.024
30
0
40
1.700
0
CIRCLE
8
INTERIOR_PROFILES
10
2201.402
20
7.500
30
0
40
2.500
0
CIRCLE
8
INTERIOR_PROFILES
10
2460.402
20
7.500
30
0
40
2.500
0
CIRCLE
8
INTERIOR_PROFILES
10
2510.514
20
473.024
30
0
40
1.700
0
CIRCLE
8
INTERIOR_PROFILES
10
2314.402
20
538.548
30
0
40
2.500
0
CIRCLE
8
INTERIOR_PROFILES
10
2201.402
20
538.548
30
0
40
2.500
0
CIRCLE
8
INTERIOR_PROFILES
10
2510.514
20
73.024
30
0
40
1.700
0
CIRCLE
8
INTERIOR_PROFILES
10
2314.402
20
7.500
30
0
40
2.500
0
CIRCLE
8
INTERIOR_PROFILES
10
2488.102
20
538.548
30
0
40
2.500
0
CIRCLE
8
INTERIOR_PROFILES
10
2510.514
20
273.024
30
0
40
1.700
0
CIRCLE
8
INTERIOR_PROFILES
10
2460.402
20
538.548
30
0
40
2.500
0
CIRCLE
8
INTERIOR_PROFILES
10
2044.402
20
538.548
30
0
40
2.500
0
CIRCLE
8
INTERIOR_PROFILES
10
2021.990
20
273.024
30
0
40
1.700
0
CIRCLE
8
INTERIOR_PROFILES
10
2331.102
20
7.500
30
0
40
2.500
0
CIRCLE
8
INTERIOR_PROFILES
10
2218.102
20
7.500
30
0
40
2.500
0
CIRCLE
8
INTERIOR_PROFILES
10
2021.990
20
73.024
30
0
40
1.700
0
CIRCLE
8
INTERIOR_PROFILES
10
2044.402
20
7.500
30
0
40
2.500
0
CIRCLE
8
INTERIOR_PROFILES
10
2331.102
20
538.548
30
0
40
2.500
0
TEXT
8
PART_LABELS
10
1536.015
20
561.340
30
0
40
50.000
1
DSV100-060030-Ruth
72
1
73
2
11
1536.015
21
561.340
31
0
0
LWPOLYLINE
8
OUTER_PROFILES
90
34
70
1
10
1238.614
20
697.917
10
1235.838
20
695.938
10
1221.252
20
681.352
10
1218.990
20
678.453
10
1216.990
20
676.453
10
1216.990
20
423.595
10
1218.990
20
421.595
10
1221.252
20
419.524
10
1237.252
20
419.524
10
1238.614
20
419.262
10
1238.614
20
403.262
10
1239.585
20
401.000
10
1241.585
20
399.000
10
1830.443
20
399.000
10
1832.443
20
401.000
10
1833.414
20
403.262
10
1833.414
20
419.262
10
1834.776
20
419.524
10
1850.776
20
419.524
10
1853.038
20
421.595
10
1855.038
20
423.595
10
1855.038
20
676.453
10
1853.038
20
678.453
10
1850.776
20
681.352
10
1836.190
20
695.938
10
1833.414
20
697.917
10
1833.414
20
719.258
10
1832.964
20
720.544
10
1832.443
20
721.675
10
1830.443
20
723.675
10
1241.585
20
723.675
10
1239.585
20
721.675
10
1239.064
20
720.544
10
1238.614
20
719.258
0
TEXT
8
PART_LABELS
10
2168.800
20
691.810
30
0
40
50.000
1
DSV2B3-060031-Ruth
72
1
73
2
11
2168.800
21
691.810
31
0
0
LWPOLYLINE
8
OUTER_PROFILES
90
16
70
1
10
2462.231
20
835.574
10
1875.373
20
835.574
10
1875.373
20
817.241
10
1857.040
20
817.241
10
1857.040
20
566.383
10
1874.040
20
566.383
10
1876.302
20
567.312
10
1875.373
20
565.050
10
1875.373
20
548.050
10
2462.231
20
548.050
10
2462.231
20
566.383
10
2480.564
20
566.383
10
2480.564
20
817.241
10
2463.564
20
817.241
10
2461.302
20
816.312
10
2462.231
20
818.574
0
CIRCLE
8
INTERIOR_PROFILES
10
1902.302
20
725.312
30
0
40
1.700
0
CIRCLE
8
INTERIOR_PROFILES
10
1902.302
20
597.312
30
0
40
5.000
0
CIRCLE
8
INTERIOR_PROFILES
10
2435.302
20
597.312
30
0
40
5.000
0
CIRCLE
8
INTERIOR_PROFILES
10
2435.302
20
725.312
30
0
40
1.700
0
CIRCLE
8
INTERIOR_PROFILES
10
1902.302
20
757.312
30
0
40
1.700
0
CIRCLE
8
INTERIOR_PROFILES
10
2435.302
20
757.312
30
0
40
1.700
0
TEXT
8
PART_LABELS
10
361.760
20
697.060
30
0
40
50.000
1
DSV2B3-070024-Ruth
72
1
73
2
11
361.760
21
697.060
31
0
0
LWPOLYLINE
8
OUTER_PROFILES
90
16
70
1
10
705.191
20
803.824
10
704.262
20
801.562
10
706.524
20
802.491
10
723.524
20
802.491
10
723.524
20
591.633
10
705.191
20
591.633
10
705.191
20
573.300
10
18.333
20
573.300
10
18.333
20
590.300
10
19.262
20
592.562
10
17.000
20
591.633
10
0.000
20
591.633
10
0.000
20
802.491
10
18.333
20
802.491
10
18.333
20
820.824
10
705.191
20
820.824
0
CIRCLE
8
INTERIOR_PROFILES
10
678.262
20
702.562
30
0
40
1.700
0
CIRCLE
8
INTERIOR_PROFILES
10
45.262
20
702.562
30
0
40
1.700
0
CIRCLE
8
INTERIOR_PROFILES
10
45.262
20
734.562
30
0
40
1.700
0
CIRCLE
8
INTERIOR_PROFILES
10
678.262
20
734.562
30
0
40
1.700
0
TEXT
8
PART_LABELS
10
1087.280
20
849.440
30
0
40
50.000
1
DSV2B3-070023-Ruth
72
1
73
2
11
1087.280
21
849.440
31
0
0
LWPOLYLINE
8
OUTER_PROFILES
90
16
70
1
10
725.520
20
744.013
10
742.520
20
744.013
10
744.782
20
744.942
10
743.853
20
742.680
10
743.853
20
725.680
10
1430.711
20
725.680
10
1430.711
20
744.013
10
1449.044
20
744.013
10
1449.044
20
954.871
10
1432.044
20
954.871
10
1429.782
20
953.942
10
1430.711
20
956.204
10
1430.711
20
973.204
10
743.853
20
973.204
10
743.853
20
954.871
10
725.520
20
954.871
0
CIRCLE
8
INTERIOR_PROFILES
10
1403.782
20
914.942
30
0
40
1.700
0
CIRCLE
8
INTERIOR_PROFILES
10
1403.782
20
882.942
30
0
40
1.700
0
CIRCLE
8
INTERIOR_PROFILES
10
770.782
20
882.942
30
0
40
1.700
0
CIRCLE
8
INTERIOR_PROFILES
10
770.782
20
914.942
30
0
40
1.700
0
TEXT
8
PART_LABELS
10
317.025
20
943.715
30
0
40
50.000
1
DSB0BD-070050
72
1
73
2
11
317.025
21
943.715
31
0
0
LWPOLYLINE
8
OUTER_PROFILES
90
32
70
1
10
30.524
20
839.082
10
30.524
20
822.820
10
603.524
20
822.820
10
603.524
20
839.082
10
634.048
20
839.082
10
634.048
20
1020.011
10
620.048
20
1020.011
10
617.786
20
1022.011
10
605.291
20
1034.506
42
-0.414214
10
605.291
20
1035.920
10
617.715
20
1048.344
10
619.715
20
1050.606
10
619.715
20
1064.606
10
609.857
20
1064.606
10
609.857
20
1054.606
10
605.362
20
1050.111
42
-0.414214
10
603.948
20
1050.111
10
599.453
20
1054.606
10
34.595
20
1054.606
10
30.100
20
1050.111
42
-0.414214
10
28.686
20
1050.111
10
24.191
20
1054.606
10
24.191
20
1064.606
10
14.333
20
1064.606
10
14.333
20
1050.606
10
16.333
20
1048.344
10
28.757
20
1035.920
42
-0.414214
10
28.757
20
1034.506
10
16.262
20
1022.011
10
14.000
20
1020.011
10
0.000
20
1020.011
10
0.000
20
839.082
0
CIRCLE
8
INTERIOR_PROFILES
10
7.000
20
900.582
30
0
40
1.700
0
CIRCLE
8
INTERIOR_PROFILES
10
627.048
20
996.082
30
0
40
1.700
0
CIRCLE
8
INTERIOR_PROFILES
10
7.000
20
996.082
30
0
40
1.700
0
CIRCLE
8
INTERIOR_PROFILES
10
627.048
20
900.582
30
0
40
1.700
0
CIRCLE
8
INTERIOR_PROFILES
10
611.786
20
1057.606
30
0
40
1.700
0
CIRCLE
8
INTERIOR_PROFILES
10
7.000
20
932.082
30
0
40
1.700
0
CIRCLE
8
INTERIOR_PROFILES
10
7.000
20
868.582
30
0
40
1.700
0
CIRCLE
8
INTERIOR_PROFILES
10
567.024
20
845.082
30
0
40
1.700
0
CIRCLE
8
INTERIOR_PROFILES
10
627.048
20
868.582
30
0
40
1.700
0
CIRCLE
8
INTERIOR_PROFILES
10
317.024
20
845.082
30
0
40
1.700
0
CIRCLE
8
INTERIOR_PROFILES
10
67.024
20
845.082
30
0
40
1.700
0
CIRCLE
8
INTERIOR_PROFILES
10
22.262
20
1057.606
30
0
40
1.700
0
CIRCLE
8
INTERIOR_PROFILES
10
627.048
20
932.082
30
0
40
1.700
0
TEXT
8
PART_LABELS
10
2749.585
20
668.945
30
0
40
50.000
1
DSB0BD-060050
72
1
73
2
11
2749.585
21
668.945
31
0
0
LWPOLYLINE
8
OUTER_PROFILES
90
32
70
1
10
2506.751
20
779.836
10
2506.751
20
789.836
10
2496.893
20
789.836
10
2496.893
20
775.836
10
2498.893
20
773.574
10
2511.317
20
761.150
42
-0.414214
10
2511.317
20
759.736
10
2498.822
20
747.241
10
2496.560
20
745.241
10
2482.560
20
745.241
10
2482.560
20
564.312
10
2513.084
20
564.312
10
2513.084
20
548.050
10
2986.084
20
548.050
10
2986.084
20
564.312
10
3016.608
20
564.312
10
3016.608
20
745.241
10
3002.608
20
745.241
10
3000.346
20
747.241
10
2987.851
20
759.736
42
-0.414214
10
2987.851
20
761.150
10
3000.275
20
773.574
10
3002.275
20
775.836
10
3002.275
20
789.836
10
2992.417
20
789.836
10
2992.417
20
779.836
10
2987.922
20
775.341
42
-0.414214
10
2986.508
20
775.341
10
2982.013
20
779.836
10
2517.155
20
779.836
10
2512.660
20
775.341
42
-0.414214
10
2511.246
20
775.341
0
CIRCLE
8
INTERIOR_PROFILES
10
2504.822
20
782.836
30
0
40
1.700
0
CIRCLE
8
INTERIOR_PROFILES
10
2949.584
20
570.312
30
0
40
1.700
0
CIRCLE
8
INTERIOR_PROFILES
10
3009.608
20
593.812
30
0
40
1.700
0
CIRCLE
8
INTERIOR_PROFILES
10
2489.560
20
721.312
30
0
40
1.700
0
CIRCLE
8
INTERIOR_PROFILES
10
2489.560
20
657.312
30
0
40
1.700
0
CIRCLE
8
INTERIOR_PROFILES
10
3009.608
20
721.312
30
0
40
1.700
0
CIRCLE
8
INTERIOR_PROFILES
10
2749.584
20
570.312
30
0
40
1.700
0
CIRCLE
8
INTERIOR_PROFILES
10
2489.560
20
625.812
30
0
40
1.700
0
CIRCLE
8
INTERIOR_PROFILES
10
2994.346
20
782.836
30
0
40
1.700
0
CIRCLE
8
INTERIOR_PROFILES
10
2549.584
20
570.312
30
0
40
1.700
0
CIRCLE
8
INTERIOR_PROFILES
10
2489.560
20
593.812
30
0
40
1.700
0
CIRCLE
8
INTERIOR_PROFILES
10
3009.608
20
625.812
30
0
40
1.700
0
CIRCLE
8
INTERIOR_PROFILES
10
3009.608
20
657.312
30
0
40
1.700
0
TEXT
8
PART_LABELS
10
1849.040
20
899.070
30
0
40
30.750
1
FN1BLA-080000
72
1
73
2
11
1849.040
21
899.070
31
0
0
ARC
8
OUTER_PROFILES
10
2244.496
20
946.618
30
0
40
2.545
50
282.6267
51
0.0000
0
LINE
8
OUTER_PROFILES
10
2247.040
20
946.618
30
0
11
2247.040
21
958.618
31
0
0
ARC
8
OUTER_PROFILES
10
2245.040
20
958.618
30
0
40
2.000
50
0.0000
51
90.0000
0
LINE
8
OUTER_PROFILES
10
2245.040
20
960.618
30
0
11
2002.040
21
960.618
31
0
0
ARC
8
OUTER_PROFILES
10
2002.040
20
958.618
30
0
40
2.000
50
90.0000
51
180.0000
0
LINE
8
OUTER_PROFILES
10
2000.040
20
958.618
30
0
11
2000.040
21
925.594
31
0
0
LINE
8
OUTER_PROFILES
10
2000.040
20
925.594
30
0
11
1999.040
21
925.594
31
0
0
LINE
8
OUTER_PROFILES
10
1999.040
20
925.594
30
0
11
1999.040
21
958.356
31
0
0
ARC
8
OUTER_PROFILES
10
1997.040
20
958.356
30
0
40
2.000
50
0.0000
51
90.0000
0
LINE
8
OUTER_PROFILES
10
1997.040
20
960.356
30
0
11
1701.040
21
960.356
31
0
0
ARC
8
OUTER_PROFILES
10
1701.040
20
958.356
30
0
40
2.000
50
90.0000
51
180.0000
0
LINE
8
OUTER_PROFILES
10
1699.040
20
958.356
30
0
11
1699.040
21
925.594
31
0
0
LINE
8
OUTER_PROFILES
10
1699.040
20
925.594
30
0
11
1698.040
21
925.594
31
0
0
LINE
8
OUTER_PROFILES
10
1698.040
20
925.594
30
0
11
1698.040
21
958.618
31
0
0
ARC
8
OUTER_PROFILES
10
1696.040
20
958.618
30
0
40
2.000
50
0.0000
51
90.0000
0
LINE
8
OUTER_PROFILES
10
1696.040
20
960.618
30
0
11
1453.040
21
960.618
31
0
0
ARC
8
OUTER_PROFILES
10
1453.040
20
958.618
30
0
40
2.000
50
90.0000
51
180.0000
0
LINE
8
OUTER_PROFILES
10
1451.040
20
958.618
30
0
11
1451.040
21
946.618
31
0
0
ARC
8
OUTER_PROFILES
10
1453.585
20
946.618
30
0
40
2.544
50
180.0000
51
257.3733
0
ARC
8
OUTER_PROFILES
10
1444.745
20
928.800
30
0
40
18.301
50
358.6095
51
42.2344
0
ARC
8
OUTER_PROFILES
10
1450.501
20
933.661
30
0
40
10.775
50
43.6733
51
76.4369
0
LINE
8
OUTER_PROFILES
10
1463.040
20
928.356
30
0
11
1463.040
21
869.832
31
0
0
ARC
8
OUTER_PROFILES
10
1449.878
20
865.729
30
0
40
12.093
50
285.0973
51
333.9506
0
ARC
8
OUTER_PROFILES
10
1443.251
20
869.673
30
0
40
19.790
50
332.1175
51
0.4598
0
ARC
8
OUTER_PROFILES
10
1453.584
20
851.570
30
0
40
2.545
50
102.6267
51
180.0000
0
LINE
8
OUTER_PROFILES
10
1451.040
20
851.570
30
0
11
1451.040
21
839.570
31
0
0
ARC
8
OUTER_PROFILES
10
1453.040
20
839.570
30
0
40
2.000
50
180.0000
51
270.0000
0
LINE
8
OUTER_PROFILES
10
1453.040
20
837.570
30
0
11
2245.040
21
837.570
31
0
0
ARC
8
OUTER_PROFILES
10
2245.040
20
839.570
30
0
40
2.000
50
270.0000
51
0.0000
0
LINE
8
OUTER_PROFILES
10
2247.040
20
839.570
30
0
11
2247.040
21
851.570
31
0
0
ARC
8
OUTER_PROFILES
10
2244.495
20
851.570
30
0
40
2.545
50
0.0000
51
77.3733
0
ARC
8
OUTER_PROFILES
10
2253.335
20
869.388
30
0
40
18.301
50
178.6095
51
222.2344
0
ARC
8
OUTER_PROFILES
10
2247.579
20
864.527
30
0
40
10.775
50
223.6733
51
256.4369
0
LINE
8
OUTER_PROFILES
10
2235.040
20
869.832
30
0
11
2235.040
21
928.356
31
0
0
ARC
8
OUTER_PROFILES
10
2248.202
20
932.459
30
0
40
12.093
50
105.0973
51
153.9506
0
ARC
8
OUTER_PROFILES
10
2254.829
20
928.515
30
0
40
19.790
50
152.1175
51
180.4598
0
CIRCLE
8
INTERIOR_PROFILES
10
2240.040
20
840.570
30
0
40
1.700
0
CIRCLE
8
INTERIOR_PROFILES
10
1524.040
20
934.356
30
0
40
1.700
0
CIRCLE
8
INTERIOR_PROFILES
10
1524.040
20
863.832
30
0
40
1.700
0
CIRCLE
8
INTERIOR_PROFILES
10
2174.040
20
863.832
30
0
40
1.700
0
CIRCLE
8
INTERIOR_PROFILES
10
1849.040
20
863.832
30
0
40
1.700
0
CIRCLE
8
INTERIOR_PROFILES
10
2240.040
20
957.618
30
0
40
1.700
0
CIRCLE
8
INTERIOR_PROFILES
10
1458.040
20
957.618
30
0
40
1.700
0
CIRCLE
8
INTERIOR_PROFILES
10
1458.040
20
840.570
30
0
40
1.700
0
CIRCLE
8
INTERIOR_PROFILES
10
2174.040
20
934.356
30
0
40
1.700
0
CIRCLE
8
INTERIOR_PROFILES
10
1504.354
20
918.690
30
0
40
1.700
0
CIRCLE
8
INTERIOR_PROFILES
10
1481.726
20
879.498
30
0
40
1.700
0
CIRCLE
8
INTERIOR_PROFILES
10
2049.040
20
876.466
30
0
40
1.700
0
CIRCLE
8
INTERIOR_PROFILES
10
1649.040
20
921.721
30
0
40
1.700
0
CIRCLE
8
INTERIOR_PROFILES
10
2037.726
20
879.498
30
0
40
1.700
0
CIRCLE
8
INTERIOR_PROFILES
10
2026.413
20
899.094
30
0
40
1.700
0
CIRCLE
8
INTERIOR_PROFILES
10
1493.040
20
876.466
30
0
40
1.700
0
CIRCLE
8
INTERIOR_PROFILES
10
2216.354
20
918.690
30
0
40
1.700
0
CIRCLE
8
INTERIOR_PROFILES
10
1470.413
20
899.094
30
0
40
1.700
0
CIRCLE
8
INTERIOR_PROFILES
10
1626.413
20
899.094
30
0
40
1.700
0
CIRCLE
8
INTERIOR_PROFILES
10
1649.040
20
876.466
30
0
40
1.700
0
CIRCLE
8
INTERIOR_PROFILES
10
2049.040
20
921.721
30
0
40
1.700
0
CIRCLE
8
INTERIOR_PROFILES
10
1660.354
20
879.498
30
0
40
1.700
0
CIRCLE
8
INTERIOR_PROFILES
10
1637.726
20
879.498
30
0
40
1.700
0
CIRCLE
8
INTERIOR_PROFILES
10
2205.040
20
876.466
30
0
40
1.700
0
CIRCLE
8
INTERIOR_PROFILES
10
1515.668
20
899.094
30
0
40
1.700
0
CIRCLE
8
INTERIOR_PROFILES
10
2205.040
20
921.721
30
0
40
1.700
0
CIRCLE
8
INTERIOR_PROFILES
10
1481.726
20
918.690
30
0
40
1.700
0
CIRCLE
8
INTERIOR_PROFILES
10
2060.354
20
918.690
30
0
40
1.700
0
CIRCLE
8
INTERIOR_PROFILES
10
1637.726
20
918.690
30
0
40
1.700
0
CIRCLE
8
INTERIOR_PROFILES
10
2037.726
20
918.690
30
0
40
1.700
0
CIRCLE
8
INTERIOR_PROFILES
10
1671.668
20
899.094
30
0
40
1.700
0
CIRCLE
8
INTERIOR_PROFILES
10
2216.354
20
879.498
30
0
40
1.700
0
CIRCLE
8
INTERIOR_PROFILES
10
2060.354
20
879.498
30
0
40
1.700
0
CIRCLE
8
INTERIOR_PROFILES
10
2071.668
20
899.094
30
0
40
1.700
0
CIRCLE
8
INTERIOR_PROFILES
10
1660.354
20
918.690
30
0
40
1.700
0
CIRCLE
8
INTERIOR_PROFILES
10
2193.726
20
879.498
30
0
40
1.700
0
CIRCLE
8
INTERIOR_PROFILES
10
2193.726
20
918.690
30
0
40
1.700
0
CIRCLE
8
INTERIOR_PROFILES
10
1493.040
20
921.721
30
0
40
1.700
0
CIRCLE
8
INTERIOR_PROFILES
10
2182.413
20
899.094
30
0
40
1.700
0
CIRCLE
8
INTERIOR_PROFILES
10
1504.354
20
879.498
30
0
40
1.700
0
CIRCLE
8
INTERIOR_PROFILES
10
2227.668
20
899.094
30
0
40
1.700
0
CIRCLE
8
INTERIOR_PROFILES
10
1493.040
20
899.094
30
0
40
1.700
0
TEXT
8
PART_LABELS
10
2595.540
20
902.070
30
0
40
32.250
1
BM2LI1-070000
72
1
73
2
11
2595.540
21
902.070
31
0
0
LWPOLYLINE
8
OUTER_PROFILES
90
44
70
1
10
2927.069
20
851.994
10
2932.564
20
846.499
10
2932.564
20
837.570
10
2258.040
20
837.570
10
2258.040
20
846.499
10
2263.535
20
851.994
42
0.414214
10
2263.535
20
853.408
10
2258.011
20
858.932
10
2249.040
20
858.932
10
2249.040
20
904.732
10
2258.011
20
904.732
10
2263.535
20
910.256
42
0.414214
10
2263.535
20
911.670
10
2258.040
20
917.165
10
2258.040
20
926.094
10
2263.040
20
926.094
10
2265.302
20
924.094
10
2265.302
20
933.370
42
-0.286860
10
2266.707
20
935.618
42
-0.063085
10
2267.302
20
935.820
42
0.816497
10
2267.302
20
955.416
42
-0.063085
10
2266.707
20
955.618
42
-0.286860
10
2265.302
20
957.865
10
2265.302
20
964.880
42
-0.414214
10
2267.302
20
966.880
10
2923.302
20
966.880
42
-0.414214
10
2925.302
20
964.880
10
2925.302
20
957.865
42
-0.286860
10
2923.897
20
955.618
42
-0.063085
10
2923.302
20
955.416
42
0.816497
10
2923.302
20
935.820
42
-0.063085
10
2923.897
20
935.618
42
-0.286860
10
2925.302
20
933.370
10
2925.302
20
924.094
10
2927.564
20
926.094
10
2932.564
20
926.094
10
2932.564
20
917.165
10
2927.069
20
911.670
42
0.414214
10
2927.069
20
910.256
10
2932.593
20
904.732
10
2941.564
20
904.732
10
2941.564
20
858.932
10
2932.593
20
858.932
10
2927.069
20
853.408
42
0.414214
0
CIRCLE
8
INTERIOR_PROFILES
10
2595.302
20
945.618
30
0
40
1.250
0
CIRCLE
8
INTERIOR_PROFILES
10
2256.040
20
891.832
30
0
40
1.700
0
CIRCLE
8
INTERIOR_PROFILES
10
2256.040
20
861.832
30
0
40
1.700
0
CIRCLE
8
INTERIOR_PROFILES
10
2595.302
20
901.832
30
0
40
5.000
0
CIRCLE
8
INTERIOR_PROFILES
10
2345.302
20
945.618
30
0
40
1.250
0
CIRCLE
8
INTERIOR_PROFILES
10
2845.302
20
945.618
30
0
40
1.250
0
CIRCLE
8
INTERIOR_PROFILES
10
2934.564
20
891.832
30
0
40
1.700
0
CIRCLE
8
INTERIOR_PROFILES
10
2934.564
20
861.832
30
0
40
1.700
0
TEXT
8
PART_LABELS
10
1797.540
20
1027.070
30
0
40
32.250
1
BM2LI1-070000
72
1
73
2
11
1797.540
21
1027.070
31
0
0
LWPOLYLINE
8
OUTER_PROFILES
90
44
70
1
10
2129.069
20
976.994
10
2134.564
20
971.499
10
2134.564
20
962.570
10
1460.040
20
962.570
10
1460.040
20
971.499
10
1465.535
20
976.994
42
0.414214
10
1465.535
20
978.408
10
1460.011
20
983.932
10
1451.040
20
983.932
10
1451.040
20
1029.732
10
1460.011
20
1029.732
10
1465.535
20
1035.256
42
0.414214
10
1465.535
20
1036.670
10
1460.040
20
1042.165
10
1460.040
20
1051.094
10
1465.040
20
1051.094
10
1467.302
20
1049.094
10
1467.302
20
1058.370
42
-0.286860
10
1468.707
20
1060.618
42
-0.063085
10
1469.302
20
1060.820
42
0.816497
10
1469.302
20
1080.416
42
-0.063085
10
1468.707
20
1080.618
42
-0.286860
10
1467.302
20
1082.865
10
1467.302
20
1089.880
42
-0.414214
10
1469.302
20
1091.880
10
2125.302
20
1091.880
42
-0.414214
10
2127.302
20
1089.880
10
2127.302
20
1082.865
42
-0.286860
10
2125.897
20
1080.618
42
-0.063085
10
2125.302
20
1080.416
42
0.816497
10
2125.302
20
1060.820
42
-0.063085
10
2125.897
20
1060.618
42
-0.286860
10
2127.302
20
1058.370
10
2127.302
20
1049.094
10
2129.564
20
1051.094
10
2134.564
20
1051.094
10
2134.564
20
1042.165
10
2129.069
20
1036.670
42
0.414214
10
2129.069
20
1035.256
10
2134.593
20
1029.732
10
2143.564
20
1029.732
10
2143.564
20
983.932
10
2134.593
20
983.932
10
2129.069
20
978.408
42
0.414214
0
CIRCLE
8
INTERIOR_PROFILES
10
1797.302
20
1070.618
30
0
40
1.250
0
CIRCLE
8
INTERIOR_PROFILES
10
1458.040
20
1016.832
30
0
40
1.700
0
CIRCLE
8
INTERIOR_PROFILES
10
1458.040
20
986.832
30
0
40
1.700
0
CIRCLE
8
INTERIOR_PROFILES
10
1797.302
20
1026.832
30
0
40
5.000
0
CIRCLE
8
INTERIOR_PROFILES
10
1547.302
20
1070.618
30
0
40
1.250
0
CIRCLE
8
INTERIOR_PROFILES
10
2047.302
20
1070.618
30
0
40
1.250
0
CIRCLE
8
INTERIOR_PROFILES
10
2136.564
20
1016.832
30
0
40
1.700
0
CIRCLE
8
INTERIOR_PROFILES
10
2136.564
20
986.832
30
0
40
1.700
0
TEXT
8
PART_LABELS
10
2554.540
20
1022.570
30
0
40
27.000
1
TS1BHH-080000
72
1
73
2
11
2554.540
21
1022.570
31
0
0
LWPOLYLINE
8
OUTER_PROFILES
90
4
70
1
10
2869.302
20
1035.356
10
2942.302
20
1035.356
10
2942.302
20
1033.094
10
2869.302
20
1033.094
0
CIRCLE
8
OUTER_PROFILES
10
2150.040
20
1022.594
30
0
40
1.700
0
LWPOLYLINE
8
OUTER_PROFILES
90
4
70
1
10
2166.302
20
1009.832
10
2166.302
20
1012.094
10
2239.302
20
1012.094
10
2239.302
20
1009.832
0
CIRCLE
8
OUTER_PROFILES
10
2945.302
20
1022.594
30
0
40
1.700
0
CIRCLE
8
OUTER_PROFILES
10
2163.302
20
1022.594
30
0
40
1.700
0
CIRCLE
8
OUTER_PROFILES
10
2919.302
20
1022.594
30
0
40
1.700
0
CIRCLE
8
OUTER_PROFILES
10
2189.302
20
1022.594
30
0
40
1.700
0
CIRCLE
8
OUTER_PROFILES
10
2873.302
20
1022.594
30
0
40
1.700
0
CIRCLE
8
OUTER_PROFILES
10
2235.302
20
1022.594
30
0
40
1.700
0
CIRCLE
8
OUTER_PROFILES
10
2163.302
20
980.832
30
0
40
1.700
0
CIRCLE
8
OUTER_PROFILES
10
2945.302
20
1005.832
30
0
40
1.700
0
CIRCLE
8
OUTER_PROFILES
10
2163.302
20
1005.832
30
0
40
1.700
0
CIRCLE
8
OUTER_PROFILES
10
2945.302
20
980.832
30
0
40
1.700
0
LWPOLYLINE
8
OUTER_PROFILES
90
4
70
1
10
2869.302
20
1012.094
10
2942.302
20
1012.094
10
2942.302
20
1009.832
10
2869.302
20
1009.832
0
CIRCLE
8
OUTER_PROFILES
10
2163.302
20
1064.356
30
0
40
1.700
0
CIRCLE
8
OUTER_PROFILES
10
2945.302
20
1039.356
30
0
40
1.700
0
CIRCLE
8
OUTER_PROFILES
10
2163.302
20
1039.356
30
0
40
1.700
0
CIRCLE
8
OUTER_PROFILES
10
2945.302
20
1064.356
30
0
40
1.700
0
LWPOLYLINE
8
OUTER_PROFILES
90
4
70
1
10
2239.302
20
1035.356
10
2239.302
20
1033.094
10
2166.302
20
1033.094
10
2166.302
20
1035.356
0
CIRCLE
8
OUTER_PROFILES
10
2958.564
20
1022.594
30
0
40
1.700
0
LWPOLYLINE
8
OUTER_PROFILES
90
23
70
1
10
2952.302
20
1012.094
10
2962.564
20
1012.094
10
2962.564
20
1033.094
10
2952.302
20
1033.094
10
2952.302
20
1035.356
10
2952.302
20
1071.618
10
2952.302
20
1076.618
10
2156.302
20
1076.618
10
2156.302
20
1071.618
10
2156.302
20
1069.356
10
2156.302
20
1035.356
10
2156.302
20
1033.094
10
2146.040
20
1033.094
10
2146.040
20
1012.094
10
2156.302
20
1012.094
10
2156.302
20
1009.832
10
2156.302
20
975.832
10
2156.302
20
973.570
10
2156.302
20
968.570
10
2952.302
20
968.570
10
2952.302
20
973.570
10
2952.302
20
975.832
10
2952.302
20
1009.832
0
TEXT
8
PART_LABELS
10
408.500
20
1120.610
30
0
40
27.000
1
TS1BHH-080000
72
1
73
2
11
408.500
21
1120.610
31
0
0
LWPOLYLINE
8
OUTER_PROFILES
90
4
70
1
10
723.262
20
1133.396
10
796.262
20
1133.396
10
796.262
20
1131.134
10
723.262
20
1131.134
0
CIRCLE
8
OUTER_PROFILES
10
4.000
20
1120.634
30
0
40
1.700
0
LWPOLYLINE
8
OUTER_PROFILES
90
4
70
1
10
20.262
20
1107.872
10
20.262
20
1110.134
10
93.262
20
1110.134
10
93.262
20
1107.872
0
CIRCLE
8
OUTER_PROFILES
10
799.262
20
1120.634
30
0
40
1.700
0
CIRCLE
8
OUTER_PROFILES
10
17.262
20
1120.634
30
0
40
1.700
0
CIRCLE
8
OUTER_PROFILES
10
773.262
20
1120.634
30
0
40
1.700
0
CIRCLE
8
OUTER_PROFILES
10
43.262
20
1120.634
30
0
40
1.700
0
CIRCLE
8
OUTER_PROFILES
10
727.262
20
1120.634
30
0
40
1.700
0
CIRCLE
8
OUTER_PROFILES
10
89.262
20
1120.634
30
0
40
1.700
0
CIRCLE
8
OUTER_PROFILES
10
17.262
20
1078.872
30
0
40
1.700
0
CIRCLE
8
OUTER_PROFILES
10
799.262
20
1103.872
30
0
40
1.700
0
CIRCLE
8
OUTER_PROFILES
10
17.262
20
1103.872
30
0
40
1.700
0
CIRCLE
8
OUTER_PROFILES
10
799.262
20
1078.872
30
0
40
1.700
0
LWPOLYLINE
8
OUTER_PROFILES
90
4
70
1
10
723.262
20
1110.134
10
796.262
20
1110.134
10
796.262
20
1107.872
10
723.262
20
1107.872
0
CIRCLE
8
OUTER_PROFILES
10
17.262
20
1162.396
30
0
40
1.700
0
CIRCLE
8
OUTER_PROFILES
10
799.262
20
1137.396
30
0
40
1.700
0
CIRCLE
8
OUTER_PROFILES
10
17.262
20
1137.396
30
0
40
1.700
0
CIRCLE
8
OUTER_PROFILES
10
799.262
20
1162.396
30
0
40
1.700
0
LWPOLYLINE
8
OUTER_PROFILES
90
4
70
1
10
93.262
20
1133.396
10
93.262
20
1131.134
10
20.262
20
1131.134
10
20.262
20
1133.396
0
CIRCLE
8
OUTER_PROFILES
10
812.524
20
1120.634
30
0
40
1.700
0
LWPOLYLINE
8
OUTER_PROFILES
90
23
70
1
10
806.262
20
1110.134
10
816.524
20
1110.134
10
816.524
20
1131.134
10
806.262
20
1131.134
10
806.262
20
1133.396
10
806.262
20
1169.658
10
806.262
20
1174.658
10
10.262
20
1174.658
10
10.262
20
1169.658
10
10.262
20
1167.396
10
10.262
20
1133.396
10
10.262
20
1131.134
10
0.000
20
1131.134
10
0.000
20
1110.134
10
10.262
20
1110.134
10
10.262
20
1107.872
10
10.262
20
1073.872
10
10.262
20
1071.610
10
10.262
20
1066.610
10
806.262
20
1066.610
10
806.262
20
1071.610
10
806.262
20
1073.872
10
806.262
20
1107.872
0
TEXT
8
PART_LABELS
10
2554.540
20
1132.570
30
0
40
27.000
1
TS1BHH-080000
72
1
73
2
11
2554.540
21
1132.570
31
0
0
LWPOLYLINE
8
OUTER_PROFILES
90
4
70
1
10
2869.302
20
1145.356
10
2942.302
20
1145.356
10
2942.302
20
1143.094
10
2869.302
20
1143.094
0
CIRCLE
8
OUTER_PROFILES
10
2150.040
20
1132.594
30
0
40
1.700
0
LWPOLYLINE
8
OUTER_PROFILES
90
4
70
1
10
2166.302
20
1119.832
10
2166.302
20
1122.094
10
2239.302
20
1122.094
10
2239.302
20
1119.832
0
CIRCLE
8
OUTER_PROFILES
10
2945.302
20
1132.594
30
0
40
1.700
0
CIRCLE
8
OUTER_PROFILES
10
2163.302
20
1132.594
30
0
40
1.700
0
CIRCLE
8
OUTER_PROFILES
10
2919.302
20
1132.594
30
0
40
1.700
0
CIRCLE
8
OUTER_PROFILES
10
2189.302
20
1132.594
30
0
40
1.700
0
CIRCLE
8
OUTER_PROFILES
10
2873.302
20
1132.594
30
0
40
1.700
0
CIRCLE
8
OUTER_PROFILES
10
2235.302
20
1132.594
30
0
40
1.700
0
CIRCLE
8
OUTER_PROFILES
10
2163.302
20
1090.832
30
0
40
1.700
0
CIRCLE
8
OUTER_PROFILES
10
2945.302
20
1115.832
30
0
40
1.700
0
CIRCLE
8
OUTER_PROFILES
10
2163.302
20
1115.832
30
0
40
1.700
0
CIRCLE
8
OUTER_PROFILES
10
2945.302
20
1090.832
30
0
40
1.700
0
LWPOLYLINE
8
OUTER_PROFILES
90
4
70
1
10
2869.302
20
1122.094
10
2942.302
20
1122.094
10
2942.302
20
1119.832
10
2869.302
20
1119.832
0
CIRCLE
8
OUTER_PROFILES
10
2163.302
20
1174.356
30
0
40
1.700
0
CIRCLE
8
OUTER_PROFILES
10
2945.302
20
1149.356
30
0
40
1.700
0
CIRCLE
8
OUTER_PROFILES
10
2163.302
20
1149.356
30
0
40
1.700
0
CIRCLE
8
OUTER_PROFILES
10
2945.302
20
1174.356
30
0
40
1.700
0
LWPOLYLINE
8
OUTER_PROFILES
90
4
70
1
10
2239.302
20
1145.356
10
2239.302
20
1143.094
10
2166.302
20
1143.094
10
2166.302
20
1145.356
0
CIRCLE
8
OUTER_PROFILES
10
2958.564
20
1132.594
30
0
40
1.700
0
LWPOLYLINE
8
OUTER_PROFILES
90
23
70
1
10
2952.302
20
1122.094
10
2962.564
20
1122.094
10
2962.564
20
1143.094
10
2952.302
20
1143.094
10
2952.302
20
1145.356
10
2952.302
20
1181.618
10
2952.302
20
1186.618
10
2156.302
20
1186.618
10
2156.302
20
1181.618
10
2156.302
20
1179.356
10
2156.302
20
1145.356
10
2156.302
20
1143.094
10
2146.040
20
1143.094
10
2146.040
20
1122.094
10
2156.302
20
1122.094
10
2156.302
20
1119.832
10
2156.302
20
1085.832
10
2156.302
20
1083.570
10
2156.302
20
1078.570
10
2952.302
20
1078.570
10
2952.302
20
1083.570
10
2952.302
20
1085.832
10
2952.302
20
1119.832
0
TEXT
8
PART_LABELS
10
1227.500
20
1147.570
30
0
40
27.000
1
TS1BHH-080000
72
1
73
2
11
1227.500
21
1147.570
31
0
0
LWPOLYLINE
8
OUTER_PROFILES
90
4
70
1
10
1542.262
20
1160.356
10
1615.262
20
1160.356
10
1615.262
20
1158.094
10
1542.262
20
1158.094
0
CIRCLE
8
OUTER_PROFILES
10
823.000
20
1147.594
30
0
40
1.700
0
LWPOLYLINE
8
OUTER_PROFILES
90
4
70
1
10
839.262
20
1134.832
10
839.262
20
1137.094
10
912.262
20
1137.094
10
912.262
20
1134.832
0
CIRCLE
8
OUTER_PROFILES
10
1618.262
20
1147.594
30
0
40
1.700
0
CIRCLE
8
OUTER_PROFILES
10
836.262
20
1147.594
30
0
40
1.700
0
CIRCLE
8
OUTER_PROFILES
10
1592.262
20
1147.594
30
0
40
1.700
0
CIRCLE
8
OUTER_PROFILES
10
862.262
20
1147.594
30
0
40
1.700
0
CIRCLE
8
OUTER_PROFILES
10
1546.262
20
1147.594
30
0
40
1.700
0
CIRCLE
8
OUTER_PROFILES
10
908.262
20
1147.594
30
0
40
1.700
0
CIRCLE
8
OUTER_PROFILES
10
836.262
20
1105.832
30
0
40
1.700
0
CIRCLE
8
OUTER_PROFILES
10
1618.262
20
1130.832
30
0
40
1.700
0
CIRCLE
8
OUTER_PROFILES
10
836.262
20
1130.832
30
0
40
1.700
0
CIRCLE
8
OUTER_PROFILES
10
1618.262
20
1105.832
30
0
40
1.700
0
LWPOLYLINE
8
OUTER_PROFILES
90
4
70
1
10
1542.262
20
1137.094
10
1615.262
20
1137.094
10
1615.262
20
1134.832
10
1542.262
20
1134.832
0
CIRCLE
8
OUTER_PROFILES
10
836.262
20
1189.356
30
0
40
1.700
0
CIRCLE
8
OUTER_PROFILES
10
1618.262
20
1164.356
30
0
40
1.700
0
CIRCLE
8
OUTER_PROFILES
10
836.262
20
1164.356
30
0
40
1.700
0
CIRCLE
8
OUTER_PROFILES
10
1618.262
20
1189.356
30
0
40
1.700
0
LWPOLYLINE
8
OUTER_PROFILES
90
4
70
1
10
912.262
20
1160.356
10
912.262
20
1158.094
10
839.262
20
1158.094
10
839.262
20
1160.356
0
CIRCLE
8
OUTER_PROFILES
10
1631.524
20
1147.594
30
0
40
1.700
0
LWPOLYLINE
8
OUTER_PROFILES
90
23
70
1
10
1625.262
20
1137.094
10
1635.524
20
1137.094
10
1635.524
20
1158.094
10
1625.262
20
1158.094
10
1625.262
20
1160.356
10
1625.262
20
1196.618
10
1625.262
20
1201.618
10
829.262
20
1201.618
10
829.262
20
1196.618
10
829.262
20
1194.356
10
829.262
20
1160.356
10
829.262
20
1158.094
10
819.000
20
1158.094
10
819.000
20
1137.094
10
829.262
20
1137.094
10
829.262
20
1134.832
10
829.262
20
1100.832
10
829.262
20
1098.570
10
829.262
20
1093.570
10
1625.262
20
1093.570
10
1625.262
20
1098.570
10
1625.262
20
1100.832
10
1625.262
20
1134.832
0
TEXT
8
PART_LABELS
10
408.500
20
1230.610
30
0
40
27.000
1
TS1BHH-080000
72
1
73
2
11
408.500
21
1230.610
31
0
0
LWPOLYLINE
8
OUTER_PROFILES
90
4
70
1
10
723.262
20
1243.396
10
796.262
20
1243.396
10
796.262
20
1241.134
10
723.262
20
1241.134
0
CIRCLE
8
OUTER_PROFILES
10
4.000
20
1230.634
30
0
40
1.700
0
LWPOLYLINE
8
OUTER_PROFILES
90
4
70
1
10
20.262
20
1217.872
10
20.262
20
1220.134
10
93.262
20
1220.134
10
93.262
20
1217.872
0
CIRCLE
8
OUTER_PROFILES
10
799.262
20
1230.634
30
0
40
1.700
0
CIRCLE
8
OUTER_PROFILES
10
17.262
20
1230.634
30
0
40
1.700
0
CIRCLE
8
OUTER_PROFILES
10
773.262
20
1230.634
30
0
40
1.700
0
CIRCLE
8
OUTER_PROFILES
10
43.262
20
1230.634
30
0
40
1.700
0
CIRCLE
8
OUTER_PROFILES
10
727.262
20
1230.634
30
0
40
1.700
0
CIRCLE
8
OUTER_PROFILES
10
89.262
20
1230.634
30
0
40
1.700
0
CIRCLE
8
OUTER_PROFILES
10
17.262
20
1188.872
30
0
40
1.700
0
CIRCLE
8
OUTER_PROFILES
10
799.262
20
1213.872
30
0
40
1.700
0
CIRCLE
8
OUTER_PROFILES
10
17.262
20
1213.872
30
0
40
1.700
0
CIRCLE
8
OUTER_PROFILES
10
799.262
20
1188.872
30
0
40
1.700
0
LWPOLYLINE
8
OUTER_PROFILES
90
4
70
1
10
723.262
20
1220.134
10
796.262
20
1220.134
10
796.262
20
1217.872
10
723.262
20
1217.872
0
CIRCLE
8
OUTER_PROFILES
10
17.262
20
1272.396
30
0
40
1.700
0
CIRCLE
8
OUTER_PROFILES
10
799.262
20
1247.396
30
0
40
1.700
0
CIRCLE
8
OUTER_PROFILES
10
17.262
20
1247.396
30
0
40
1.700
0
CIRCLE
8
OUTER_PROFILES
10
799.262
20
1272.396
30
0
40
1.700
0
LWPOLYLINE
8
OUTER_PROFILES
90
4
70
1
10
93.262
20
1243.396
10
93.262
20
1241.134
10
20.262
20
1241.134
10
20.262
20
1243.396
0
CIRCLE
8
OUTER_PROFILES
10
812.524
20
1230.634
30
0
40
1.700
0
LWPOLYLINE
8
OUTER_PROFILES
90
23
70
1
10
806.262
20
1220.134
10
816.524
20
1220.134
10
816.524
20
1241.134
10
806.262
20
1241.134
10
806.262
20
1243.396
10
806.262
20
1279.658
10
806.262
20
1284.658
10
10.262
20
1284.658
10
10.262
20
1279.658
10
10.262
20
1277.396
10
10.262
20
1243.396
10
10.262
20
1241.134
10
0.000
20
1241.134
10
0.000
20
1220.134
10
10.262
20
1220.134
10
10.262
20
1217.872
10
10.262
20
1183.872
10
10.262
20
1181.610
10
10.262
20
1176.610
10
806.262
20
1176.610
10
806.262
20
1181.610
10
806.262
20
1183.872
10
806.262
20
1217.872
0
TEXT
8
PART_LABELS
10
2046.500
20
1242.570
30
0
40
27.000
1
TS1BHH-080000
72
1
73
2
11
2046.500
21
1242.570
31
0
0
LWPOLYLINE
8
OUTER_PROFILES
90
4
70
1
10
2361.262
20
1255.356
10
2434.262
20
1255.356
10
2434.262
20
1253.094
10
2361.262
20
1253.094
0
CIRCLE
8
OUTER_PROFILES
10
1642.000
20
1242.594
30
0
40
1.700
0
LWPOLYLINE
8
OUTER_PROFILES
90
4
70
1
10
1658.262
20
1229.832
10
1658.262
20
1232.094
10
1731.262
20
1232.094
10
1731.262
20
1229.832
0
CIRCLE
8
OUTER_PROFILES
10
2437.262
20
1242.594
30
0
40
1.700
0
CIRCLE
8
OUTER_PROFILES
10
1655.262
20
1242.594
30
0
40
1.700
0
CIRCLE
8
OUTER_PROFILES
10
2411.262
20
1242.594
30
0
40
1.700
0
CIRCLE
8
OUTER_PROFILES
10
1681.262
20
1242.594
30
0
40
1.700
0
CIRCLE
8
OUTER_PROFILES
10
2365.262
20
1242.594
30
0
40
1.700
0
CIRCLE
8
OUTER_PROFILES
10
1727.262
20
1242.594
30
0
40
1.700
0
CIRCLE
8
OUTER_PROFILES
10
1655.262
20
1200.832
30
0
40
1.700
0
CIRCLE
8
OUTER_PROFILES
10
2437.262
20
1225.832
30
0
40
1.700
0
CIRCLE
8
OUTER_PROFILES
10
1655.262
20
1225.832
30
0
40
1.700
0
CIRCLE
8
OUTER_PROFILES
10
2437.262
20
1200.832
30
0
40
1.700
0
LWPOLYLINE
8
OUTER_PROFILES
90
4
70
1
10
2361.262
20
1232.094
10
2434.262
20
1232.094
10
2434.262
20
1229.832
10
2361.262
20
1229.832
0
CIRCLE
8
OUTER_PROFILES
10
1655.262
20
1284.356
30
0
40
1.700
0
CIRCLE
8
OUTER_PROFILES
10
2437.262
20
1259.356
30
0
40
1.700
0
CIRCLE
8
OUTER_PROFILES
10
1655.262
20
1259.356
30
0
40
1.700
0
CIRCLE
8
OUTER_PROFILES
10
2437.262
20
1284.356
30
0
40
1.700
0
LWPOLYLINE
8
OUTER_PROFILES
90
4
70
1
10
1731.262
20
1255.356
10
1731.262
20
1253.094
10
1658.262
20
1253.094
10
1658.262
20
1255.356
0
CIRCLE
8
OUTER_PROFILES
10
2450.524
20
1242.594
30
0
40
1.700
0
LWPOLYLINE
8
OUTER_PROFILES
90
23
70
1
10
2444.262
20
1232.094
10
2454.524
20
1232.094
10
2454.524
20
1253.094
10
2444.262
20
1253.094
10
2444.262
20
1255.356
10
2444.262
20
1291.618
10
2444.262
20
1296.618
10
1648.262
20
1296.618
10
1648.262
20
1291.618
10
1648.262
20
1289.356
10
1648.262
20
1255.356
10
1648.262
20
1253.094
10
1638.000
20
1253.094
10
1638.000
20
1232.094
10
1648.262
20
1232.094
10
1648.262
20
1229.832
10
1648.262
20
1195.832
10
1648.262
20
1193.570
10
1648.262
20
1188.570
10
2444.262
20
1188.570
10
2444.262
20
1193.570
10
2444.262
20
1195.832
10
2444.262
20
1229.832
0
TEXT
8
PART_LABELS
10
1167.000
20
1265.070
30
0
40
30.750
1
FN1BLA-070000
72
1
73
2
11
1167.000
21
1265.070
31
0
0
LINE
8
OUTER_PROFILES
10
831.000
20
1294.356
30
0
11
831.000
21
1235.832
31
0
0
ARC
8
OUTER_PROFILES
10
817.838
20
1231.729
30
0
40
12.093
50
285.0973
51
333.9506
0
ARC
8
OUTER_PROFILES
10
811.211
20
1235.673
30
0
40
19.790
50
332.1175
51
0.4598
0
ARC
8
OUTER_PROFILES
10
821.544
20
1217.570
30
0
40
2.544
50
102.6267
51
180.0000
0
LINE
8
OUTER_PROFILES
10
819.000
20
1217.570
30
0
11
819.000
21
1205.570
31
0
0
ARC
8
OUTER_PROFILES
10
821.000
20
1205.570
30
0
40
2.000
50
180.0000
51
270.0000
0
LINE
8
OUTER_PROFILES
10
821.000
20
1203.570
30
0
11
1513.000
21
1203.570
31
0
0
ARC
8
OUTER_PROFILES
10
1513.000
20
1205.570
30
0
40
2.000
50
270.0000
51
0.0000
0
LINE
8
OUTER_PROFILES
10
1515.000
20
1205.570
30
0
11
1515.000
21
1217.570
31
0
0
ARC
8
OUTER_PROFILES
10
1512.455
20
1217.570
30
0
40
2.545
50
0.0000
51
77.3733
0
ARC
8
OUTER_PROFILES
10
1521.295
20
1235.388
30
0
40
18.301
50
178.6095
51
222.2344
0
ARC
8
OUTER_PROFILES
10
1515.539
20
1230.527
30
0
40
10.775
50
223.6733
51
256.4369
0
LINE
8
OUTER_PROFILES
10
1503.000
20
1235.832
30
0
11
1503.000
21
1294.356
31
0
0
ARC
8
OUTER_PROFILES
10
1516.162
20
1298.459
30
0
40
12.093
50
105.0973
51
153.9506
0
ARC
8
OUTER_PROFILES
10
1522.789
20
1294.515
30
0
40
19.790
50
152.1175
51
180.4598
0
ARC
8
OUTER_PROFILES
10
1512.456
20
1312.618
30
0
40
2.545
50
282.6267
51
0.0000
0
LINE
8
OUTER_PROFILES
10
1515.000
20
1312.618
30
0
11
1515.000
21
1324.618
31
0
0
ARC
8
OUTER_PROFILES
10
1513.000
20
1324.618
30
0
40
2.000
50
0.0000
51
90.0000
0
LINE
8
OUTER_PROFILES
10
1513.000
20
1326.618
30
0
11
1320.000
21
1326.618
31
0
0
ARC
8
OUTER_PROFILES
10
1320.000
20
1324.618
30
0
40
2.000
50
90.0000
51
180.0000
0
LINE
8
OUTER_PROFILES
10
1318.000
20
1324.618
30
0
11
1318.000
21
1291.594
31
0
0
LINE
8
OUTER_PROFILES
10
1318.000
20
1291.594
30
0
11
1317.000
21
1291.594
31
0
0
LINE
8
OUTER_PROFILES
10
1317.000
20
1291.594
30
0
11
1317.000
21
1324.356
31
0
0
ARC
8
OUTER_PROFILES
10
1315.000
20
1324.356
30
0
40
2.000
50
0.0000
51
90.0000
0
LINE
8
OUTER_PROFILES
10
1315.000
20
1326.356
30
0
11
1019.000
21
1326.356
31
0
0
ARC
8
OUTER_PROFILES
10
1019.000
20
1324.356
30
0
40
2.000
50
90.0000
51
180.0000
0
LINE
8
OUTER_PROFILES
10
1017.000
20
1324.356
30
0
11
1017.000
21
1291.594
31
0
0
LINE
8
OUTER_PROFILES
10
1017.000
20
1291.594
30
0
11
1016.000
21
1291.594
31
0
0
LINE
8
OUTER_PROFILES
10
1016.000
20
1291.594
30
0
11
1016.000
21
1324.618
31
0
0
ARC
8
OUTER_PROFILES
10
1014.000
20
1324.618
30
0
40
2.000
50
0.0000
51
90.0000
0
LINE
8
OUTER_PROFILES
10
1014.000
20
1326.618
30
0
11
821.000
21
1326.618
31
0
0
ARC
8
OUTER_PROFILES
10
821.000
20
1324.618
30
0
40
2.000
50
90.0000
51
180.0000
0
LINE
8
OUTER_PROFILES
10
819.000
20
1324.618
30
0
11
819.000
21
1312.618
31
0
0
ARC
8
OUTER_PROFILES
10
821.545
20
1312.618
30
0
40
2.544
50
180.0000
51
257.3733
0
ARC
8
OUTER_PROFILES
10
812.705
20
1294.800
30
0
40
18.301
50
358.6095
51
42.2344
0
ARC
8
OUTER_PROFILES
10
818.461
20
1299.661
30
0
40
10.775
50
43.6733
51
76.4369
0
CIRCLE
8
INTERIOR_PROFILES
10
826.000
20
1206.570
30
0
40
1.700
0
CIRCLE
8
INTERIOR_PROFILES
10
1167.000
20
1229.832
30
0
40
1.700
0
CIRCLE
8
INTERIOR_PROFILES
10
892.000
20
1229.832
30
0
40
1.700
0
CIRCLE
8
INTERIOR_PROFILES
10
1508.000
20
1206.570
30
0
40
1.700
0
CIRCLE
8
INTERIOR_PROFILES
10
1442.000
20
1229.832
30
0
40
1.700
0
CIRCLE
8
INTERIOR_PROFILES
10
826.000
20
1323.618
30
0
40
1.700
0
CIRCLE
8
INTERIOR_PROFILES
10
892.000
20
1300.356
30
0
40
1.700
0
CIRCLE
8
INTERIOR_PROFILES
10
1508.000
20
1323.618
30
0
40
1.700
0
CIRCLE
8
INTERIOR_PROFILES
10
1442.000
20
1300.356
30
0
40
1.700
0
CIRCLE
8
INTERIOR_PROFILES
10
1450.373
20
1265.094
30
0
40
1.700
0
CIRCLE
8
INTERIOR_PROFILES
10
1461.686
20
1245.498
30
0
40
1.700
0
CIRCLE
8
INTERIOR_PROFILES
10
1484.314
20
1245.498
30
0
40
1.700
0
CIRCLE
8
INTERIOR_PROFILES
10
1473.000
20
1287.721
30
0
40
1.700
0
CIRCLE
8
INTERIOR_PROFILES
10
1495.628
20
1265.094
30
0
40
1.700
0
CIRCLE
8
INTERIOR_PROFILES
10
849.686
20
1245.498
30
0
40
1.700
0
CIRCLE
8
INTERIOR_PROFILES
10
861.000
20
1287.721
30
0
40
1.700
0
CIRCLE
8
INTERIOR_PROFILES
10
1473.000
20
1242.466
30
0
40
1.700
0
CIRCLE
8
INTERIOR_PROFILES
10
872.314
20
1284.690
30
0
40
1.700
0
CIRCLE
8
INTERIOR_PROFILES
10
849.686
20
1284.690
30
0
40
1.700
0
CIRCLE
8
INTERIOR_PROFILES
10
861.000
20
1265.094
30
0
40
1.700
0
CIRCLE
8
INTERIOR_PROFILES
10
1484.314
20
1284.690
30
0
40
1.700
0
CIRCLE
8
INTERIOR_PROFILES
10
1461.686
20
1284.690
30
0
40
1.700
0
CIRCLE
8
INTERIOR_PROFILES
10
861.000
20
1242.466
30
0
40
1.700
0
CIRCLE
8
INTERIOR_PROFILES
10
883.628
20
1265.094
30
0
40
1.700
0
CIRCLE
8
INTERIOR_PROFILES
10
872.314
20
1245.498
30
0
40
1.700
0
CIRCLE
8
INTERIOR_PROFILES
10
838.373
20
1265.094
30
0
40
1.700
0
TEXT
8
PART_LABELS
10
317.025
20
1350.005
30
0
40
31.698
1
DSB0BA-070050
72
1
73
2
11
317.025
21
1350.005
31
0
0
LWPOLYLINE
8
OUTER_PROFILES
90
32
70
1
10
28.686
20
1398.901
42
0.414214
10
30.100
20
1398.901
10
34.595
20
1403.396
10
599.453
20
1403.396
10
603.948
20
1398.901
42
0.414214
10
605.362
20
1398.901
10
609.857
20
1403.396
10
609.857
20
1413.396
10
619.715
20
1413.396
10
619.715
20
1399.396
10
617.715
20
1397.134
10
605.291
20
1384.710
42
0.414214
10
605.291
20
1383.296
10
617.786
20
1370.801
10
620.048
20
1368.801
10
634.048
20
1368.801
10
634.048
20
1302.872
10
603.524
20
1302.872
10
603.524
20
1286.610
10
30.524
20
1286.610
10
30.524
20
1302.872
10
0.000
20
1302.872
10
0.000
20
1368.801
10
14.000
20
1368.801
10
16.262
20
1370.801
10
28.757
20
1383.296
42
0.414214
10
28.757
20
1384.710
10
16.333
20
1397.134
10
14.333
20
1399.396
10
14.333
20
1413.396
10
24.191
20
1413.396
10
24.191
20
1403.396
0
CIRCLE
8
INTERIOR_PROFILES
10
7.000
20
1332.372
30
0
40
1.700
0
CIRCLE
8
INTERIOR_PROFILES
10
317.024
20
1308.872
30
0
40
1.700
0
CIRCLE
8
INTERIOR_PROFILES
10
627.048
20
1332.372
30
0
40
1.700
0
CIRCLE
8
INTERIOR_PROFILES
10
567.024
20
1308.872
30
0
40
1.700
0
CIRCLE
8
INTERIOR_PROFILES
10
67.024
20
1308.872
30
0
40
1.700
0
CIRCLE
8
INTERIOR_PROFILES
10
7.000
20
1364.372
30
0
40
1.700
0
CIRCLE
8
INTERIOR_PROFILES
10
627.048
20
1364.372
30
0
40
1.700
0
TEXT
8
PART_LABELS
10
1834.025
20
1361.965
30
0
40
31.698
1
DSB0BA-070050
72
1
73
2
11
1834.025
21
1361.965
31
0
0
LWPOLYLINE
8
OUTER_PROFILES
90
32
70
1
10
1545.686
20
1410.861
42
0.414214
10
1547.100
20
1410.861
10
1551.595
20
1415.356
10
2116.453
20
1415.356
10
2120.948
20
1410.861
42
0.414214
10
2122.362
20
1410.861
10
2126.857
20
1415.356
10
2126.857
20
1425.356
10
2136.715
20
1425.356
10
2136.715
20
1411.356
10
2134.715
20
1409.094
10
2122.291
20
1396.670
42
0.414214
10
2122.291
20
1395.256
10
2134.786
20
1382.761
10
2137.048
20
1380.761
10
2151.048
20
1380.761
10
2151.048
20
1314.832
10
2120.524
20
1314.832
10
2120.524
20
1298.570
10
1547.524
20
1298.570
10
1547.524
20
1314.832
10
1517.000
20
1314.832
10
1517.000
20
1380.761
10
1531.000
20
1380.761
10
1533.262
20
1382.761
10
1545.757
20
1395.256
42
0.414214
10
1545.757
20
1396.670
10
1533.333
20
1409.094
10
1531.333
20
1411.356
10
1531.333
20
1425.356
10
1541.191
20
1425.356
10
1541.191
20
1415.356
0
CIRCLE
8
INTERIOR_PROFILES
10
1524.000
20
1344.332
30
0
40
1.700
0
CIRCLE
8
INTERIOR_PROFILES
10
1834.024
20
1320.832
30
0
40
1.700
0
CIRCLE
8
INTERIOR_PROFILES
10
2144.048
20
1344.332
30
0
40
1.700
0
CIRCLE
8
INTERIOR_PROFILES
10
2084.024
20
1320.832
30
0
40
1.700
0
CIRCLE
8
INTERIOR_PROFILES
10
1584.024
20
1320.832
30
0
40
1.700
0
CIRCLE
8
INTERIOR_PROFILES
10
1524.000
20
1376.332
30
0
40
1.700
0
CIRCLE
8
INTERIOR_PROFILES
10
2144.048
20
1376.332
30
0
40
1.700
0
TEXT
8
PART_LABELS
10
2549.550
20
1348.070
30
0
40
24.750
1
BM1LI0-080000
72
1
73
2
11
2549.550
21
1348.070
31
0
0
LWPOLYLINE
8
OUTER_PROFILES
90
22
70
1
10
2168.888
20
1342.599
10
2181.383
20
1355.094
10
2183.383
20
1357.356
10
2183.383
20
1397.880
10
2915.241
20
1397.880
10
2915.241
20
1357.356
10
2917.241
20
1355.094
10
2929.736
20
1342.599
42
0.414214
10
2931.150
20
1342.599
10
2943.574
20
1355.023
10
2945.574
20
1355.023
10
2945.574
20
1298.641
10
2931.150
20
1313.065
42
0.414214
10
2929.736
20
1313.065
10
2915.241
20
1298.570
10
2183.383
20
1298.570
10
2168.888
20
1313.065
42
0.414214
10
2167.474
20
1313.065
10
2153.050
20
1298.641
10
2153.050
20
1355.023
10
2155.050
20
1355.023
10
2167.474
20
1342.599
42
0.414214
0
CIRCLE
8
INTERIOR_PROFILES
10
2799.312
20
1376.618
30
0
40
1.700
0
CIRCLE
8
INTERIOR_PROFILES
10
2299.312
20
1350.094
30
0
40
5.000
0
CIRCLE
8
INTERIOR_PROFILES
10
2399.312
20
1376.618
30
0
40
1.700
0
CIRCLE
8
INTERIOR_PROFILES
10
2699.312
20
1376.618
30
0
40
1.700
0
CIRCLE
8
INTERIOR_PROFILES
10
2249.312
20
1350.094
30
0
40
5.000
0
CIRCLE
8
INTERIOR_PROFILES
10
2349.312
20
1350.094
30
0
40
5.000
0
CIRCLE
8
INTERIOR_PROFILES
10
2599.312
20
1376.618
30
0
40
1.700
0
CIRCLE
8
INTERIOR_PROFILES
10
2499.312
20
1376.618
30
0
40
1.700
0
CIRCLE
8
INTERIOR_PROFILES
10
2299.312
20
1376.618
30
0
40
1.700
0
CIRCLE
8
INTERIOR_PROFILES
10
2938.574
20
1322.832
30
0
40
1.700
0
CIRCLE
8
INTERIOR_PROFILES
10
2899.312
20
1376.618
30
0
40
1.700
0
CIRCLE
8
INTERIOR_PROFILES
10
2399.312
20
1350.094
30
0
40
5.000
0
CIRCLE
8
INTERIOR_PROFILES
10
2449.312
20
1350.094
30
0
40
5.000
0
CIRCLE
8
INTERIOR_PROFILES
10
2549.312
20
1350.094
30
0
40
5.000
0
CIRCLE
8
INTERIOR_PROFILES
10
2499.312
20
1350.094
30
0
40
5.000
0
CIRCLE
8
INTERIOR_PROFILES
10
2199.312
20
1376.618
30
0
40
1.700
0
CIRCLE
8
INTERIOR_PROFILES
10
2199.312
20
1350.094
30
0
40
5.000
0
CIRCLE
8
INTERIOR_PROFILES
10
2699.312
20
1350.094
30
0
40
5.000
0
CIRCLE
8
INTERIOR_PROFILES
10
2899.312
20
1350.094
30
0
40
5.000
0
CIRCLE
8
INTERIOR_PROFILES
10
2799.312
20
1305.570
30
0
40
5.000
0
CIRCLE
8
INTERIOR_PROFILES
10
2349.312
20
1305.570
30
0
40
1.700
0
CIRCLE
8
INTERIOR_PROFILES
10
2649.312
20
1350.094
30
0
40
5.000
0
CIRCLE
8
INTERIOR_PROFILES
10
2649.312
20
1305.570
30
0
40
1.700
0
CIRCLE
8
INTERIOR_PROFILES
10
2799.312
20
1350.094
30
0
40
5.000
0
CIRCLE
8
INTERIOR_PROFILES
10
2749.312
20
1305.570
30
0
40
1.700
0
CIRCLE
8
INTERIOR_PROFILES
10
2699.312
20
1305.570
30
0
40
5.000
0
CIRCLE
8
INTERIOR_PROFILES
10
2549.312
20
1332.832
30
0
40
5.000
0
CIRCLE
8
INTERIOR_PROFILES
10
2249.312
20
1305.570
30
0
40
1.700
0
CIRCLE
8
INTERIOR_PROFILES
10
2849.312
20
1350.094
30
0
40
5.000
0
CIRCLE
8
INTERIOR_PROFILES
10
2599.312
20
1350.094
30
0
40
5.000
0
CIRCLE
8
INTERIOR_PROFILES
10
2899.312
20
1305.570
30
0
40
5.000
0
CIRCLE
8
INTERIOR_PROFILES
10
2199.312
20
1305.570
30
0
40
5.000
0
CIRCLE
8
INTERIOR_PROFILES
10
2599.312
20
1305.570
30
0
40
5.000
0
CIRCLE
8
INTERIOR_PROFILES
10
2749.312
20
1350.094
30
0
40
5.000
0
CIRCLE
8
INTERIOR_PROFILES
10
2399.312
20
1305.570
30
0
40
5.000
0
CIRCLE
8
INTERIOR_PROFILES
10
2499.312
20
1305.570
30
0
40
5.000
0
CIRCLE
8
INTERIOR_PROFILES
10
2449.312
20
1305.570
30
0
40
1.700
0
CIRCLE
8
INTERIOR_PROFILES
10
2299.312
20
1305.570
30
0
40
5.000
0
CIRCLE
8
INTERIOR_PROFILES
10
2849.312
20
1305.570
30
0
40
1.700
0
CIRCLE
8
INTERIOR_PROFILES
10
2160.050
20
1322.832
30
0
40
1.700
0
CIRCLE
8
INTERIOR_PROFILES
10
2549.312
20
1305.570
30
0
40
1.700
0
TEXT
8
PART_LABELS
10
934.050
20
1390.070
30
0
40
30.750
1
FN1BLA-060000
72
1
73
2
11
934.050
21
1390.070
31
0
0
ARC
8
OUTER_PROFILES
10
1233.212
20
1423.459
30
0
40
12.093
50
105.0973
51
153.9506
0
ARC
8
OUTER_PROFILES
10
1239.839
20
1419.515
30
0
40
19.790
50
152.1175
51
180.4598
0
ARC
8
OUTER_PROFILES
10
1229.506
20
1437.618
30
0
40
2.544
50
282.6267
51
0.0000
0
LINE
8
OUTER_PROFILES
10
1232.050
20
1437.618
30
0
11
1232.050
21
1449.618
31
0
0
ARC
8
OUTER_PROFILES
10
1230.050
20
1449.618
30
0
40
2.000
50
0.0000
51
90.0000
0
LINE
8
OUTER_PROFILES
10
1230.050
20
1451.618
30
0
11
1087.050
21
1451.618
31
0
0
ARC
8
OUTER_PROFILES
10
1087.050
20
1449.618
30
0
40
2.000
50
90.0000
51
180.0000
0
LINE
8
OUTER_PROFILES
10
1085.050
20
1449.618
30
0
11
1085.050
21
1416.594
31
0
0
LINE
8
OUTER_PROFILES
10
1085.050
20
1416.594
30
0
11
1084.050
21
1416.594
31
0
0
LINE
8
OUTER_PROFILES
10
1084.050
20
1416.594
30
0
11
1084.050
21
1449.356
31
0
0
ARC
8
OUTER_PROFILES
10
1082.050
20
1449.356
30
0
40
2.000
50
0.0000
51
90.0000
0
LINE
8
OUTER_PROFILES
10
1082.050
20
1451.356
30
0
11
786.050
21
1451.356
31
0
0
ARC
8
OUTER_PROFILES
10
786.050
20
1449.356
30
0
40
2.000
50
90.0000
51
180.0000
0
LINE
8
OUTER_PROFILES
10
784.050
20
1449.356
30
0
11
784.050
21
1416.594
31
0
0
LINE
8
OUTER_PROFILES
10
784.050
20
1416.594
30
0
11
783.050
21
1416.594
31
0
0
LINE
8
OUTER_PROFILES
10
783.050
20
1416.594
30
0
11
783.050
21
1449.618
31
0
0
ARC
8
OUTER_PROFILES
10
781.050
20
1449.618
30
0
40
2.000
50
0.0000
51
90.0000
0
LINE
8
OUTER_PROFILES
10
781.050
20
1451.618
30
0
11
638.050
21
1451.618
31
0
0
ARC
8
OUTER_PROFILES
10
638.050
20
1449.618
30
0
40
2.000
50
90.0000
51
180.0000
0
LINE
8
OUTER_PROFILES
10
636.050
20
1449.618
30
0
11
636.050
21
1437.618
31
0
0
ARC
8
OUTER_PROFILES
10
638.595
20
1437.618
30
0
40
2.545
50
180.0000
51
257.3733
0
ARC
8
OUTER_PROFILES
10
629.755
20
1419.800
30
0
40
18.301
50
358.6095
51
42.2344
0
ARC
8
OUTER_PROFILES
10
635.511
20
1424.661
30
0
40
10.775
50
43.6733
51
76.4369
0
LINE
8
OUTER_PROFILES
10
648.050
20
1419.356
30
0
11
648.050
21
1360.832
31
0
0
ARC
8
OUTER_PROFILES
10
634.888
20
1356.729
30
0
40
12.093
50
285.0973
51
333.9506
0
ARC
8
OUTER_PROFILES
10
628.261
20
1360.673
30
0
40
19.790
50
332.1175
51
0.4598
0
ARC
8
OUTER_PROFILES
10
638.594
20
1342.570
30
0
40
2.545
50
102.6267
51
180.0000
0
LINE
8
OUTER_PROFILES
10
636.050
20
1342.570
30
0
11
636.050
21
1330.570
31
0
0
ARC
8
OUTER_PROFILES
10
638.050
20
1330.570
30
0
40
2.000
50
180.0000
51
270.0000
0
LINE
8
OUTER_PROFILES
10
638.050
20
1328.570
30
0
11
1230.050
21
1328.570
31
0
0
ARC
8
OUTER_PROFILES
10
1230.050
20
1330.570
30
0
40
2.000
50
270.0000
51
0.0000
0
LINE
8
OUTER_PROFILES
10
1232.050
20
1330.570
30
0
11
1232.050
21
1342.570
31
0
0
ARC
8
OUTER_PROFILES
10
1229.505
20
1342.570
30
0
40
2.545
50
0.0000
51
77.3733
0
ARC
8
OUTER_PROFILES
10
1238.345
20
1360.388
30
0
40
18.301
50
178.6095
51
222.2344
0
ARC
8
OUTER_PROFILES
10
1232.589
20
1355.527
30
0
40
10.775
50
223.6733
51
256.4369
0
LINE
8
OUTER_PROFILES
10
1220.050
20
1360.832
30
0
11
1220.050
21
1419.356
31
0
0
CIRCLE
8
INTERIOR_PROFILES
10
1159.050
20
1425.356
30
0
40
1.700
0
CIRCLE
8
INTERIOR_PROFILES
10
709.050
20
1425.356
30
0
40
1.700
0
CIRCLE
8
INTERIOR_PROFILES
10
934.050
20
1354.832
30
0
40
1.700
0
CIRCLE
8
INTERIOR_PROFILES
10
709.050
20
1354.832
30
0
40
1.700
0
CIRCLE
8
INTERIOR_PROFILES
10
643.050
20
1331.570
30
0
40
1.700
0
CIRCLE
8
INTERIOR_PROFILES
10
1225.050
20
1448.618
30
0
40
1.700
0
CIRCLE
8
INTERIOR_PROFILES
10
1225.050
20
1331.570
30
0
40
1.700
0
CIRCLE
8
INTERIOR_PROFILES
10
1159.050
20
1354.832
30
0
40
1.700
0
CIRCLE
8
INTERIOR_PROFILES
10
643.050
20
1448.618
30
0
40
1.700
0
CIRCLE
8
INTERIOR_PROFILES
10
1201.364
20
1370.498
30
0
40
1.700
0
CIRCLE
8
INTERIOR_PROFILES
10
666.736
20
1370.498
30
0
40
1.700
0
CIRCLE
8
INTERIOR_PROFILES
10
678.050
20
1367.466
30
0
40
1.700
0
CIRCLE
8
INTERIOR_PROFILES
10
689.364
20
1370.498
30
0
40
1.700
0
CIRCLE
8
INTERIOR_PROFILES
10
678.050
20
1412.721
30
0
40
1.700
0
CIRCLE
8
INTERIOR_PROFILES
10
1212.678
20
1390.094
30
0
40
1.700
0
CIRCLE
8
INTERIOR_PROFILES
10
1178.736
20
1370.498
30
0
40
1.700
0
CIRCLE
8
INTERIOR_PROFILES
10
666.736
20
1409.690
30
0
40
1.700
0
CIRCLE
8
INTERIOR_PROFILES
10
655.423
20
1390.094
30
0
40
1.700
0
CIRCLE
8
INTERIOR_PROFILES
10
689.364
20
1409.690
30
0
40
1.700
0
CIRCLE
8
INTERIOR_PROFILES
10
1201.364
20
1409.690
30
0
40
1.700
0
CIRCLE
8
INTERIOR_PROFILES
10
1167.423
20
1390.094
30
0
40
1.700
0
CIRCLE
8
INTERIOR_PROFILES
10
1190.050
20
1367.466
30
0
40
1.700
0
CIRCLE
8
INTERIOR_PROFILES
10
678.050
20
1390.094
30
0
40
1.700
0
CIRCLE
8
INTERIOR_PROFILES
10
1178.736
20
1409.690
30
0
40
1.700
0
CIRCLE
8
INTERIOR_PROFILES
10
1190.050
20
1412.721
30
0
40
1.700
0
CIRCLE
8
INTERIOR_PROFILES
10
700.678
20
1390.094
30
0
40
1.700
0
TEXT
8
PART_LABELS
10
2499.550
20
1449.070
30
0
40
24.750
1
BM1LI0-070000
72
1
73
2
11
2499.550
21
1449.070
31
0
0
LWPOLYLINE
8
OUTER_PROFILES
90
23
70
1
10
2829.736
20
1443.599
42
0.414214
10
2831.150
20
1443.599
10
2843.574
20
1456.023
10
2845.574
20
1456.023
10
2845.574
20
1399.641
10
2831.150
20
1414.065
42
0.414214
10
2829.736
20
1414.065
10
2815.241
20
1399.570
10
2183.383
20
1399.570
10
2168.888
20
1414.065
42
0.414214
10
2167.474
20
1414.065
10
2153.050
20
1399.641
10
2153.050
20
1444.094
10
2166.979
20
1444.094
10
2167.050
20
1441.832
10
2169.312
20
1441.832
10
2169.383
20
1444.094
10
2181.383
20
1456.094
10
2183.383
20
1458.356
10
2183.383
20
1498.880
10
2815.241
20
1498.880
10
2815.241
20
1458.356
10
2817.241
20
1456.094
0
CIRCLE
8
INTERIOR_PROFILES
10
2549.312
20
1451.094
30
0
40
5.000
0
CIRCLE
8
INTERIOR_PROFILES
10
2599.312
20
1451.094
30
0
40
5.000
0
CIRCLE
8
INTERIOR_PROFILES
10
2749.312
20
1451.094
30
0
40
5.000
0
CIRCLE
8
INTERIOR_PROFILES
10
2499.312
20
1433.832
30
0
40
5.000
0
CIRCLE
8
INTERIOR_PROFILES
10
2799.312
20
1451.094
30
0
40
5.000
0
CIRCLE
8
INTERIOR_PROFILES
10
2349.312
20
1477.618
30
0
40
1.700
0
CIRCLE
8
INTERIOR_PROFILES
10
2749.312
20
1406.570
30
0
40
5.000
0
CIRCLE
8
INTERIOR_PROFILES
10
2799.312
20
1406.570
30
0
40
1.700
0
CIRCLE
8
INTERIOR_PROFILES
10
2399.312
20
1406.570
30
0
40
1.700
0
CIRCLE
8
INTERIOR_PROFILES
10
2449.312
20
1477.618
30
0
40
1.700
0
CIRCLE
8
INTERIOR_PROFILES
10
2249.312
20
1451.094
30
0
40
5.000
0
CIRCLE
8
INTERIOR_PROFILES
10
2249.312
20
1406.570
30
0
40
5.000
0
CIRCLE
8
INTERIOR_PROFILES
10
2199.312
20
1451.094
30
0
40
5.000
0
CIRCLE
8
INTERIOR_PROFILES
10
2699.312
20
1406.570
30
0
40
1.700
0
CIRCLE
8
INTERIOR_PROFILES
10
2449.312
20
1451.094
30
0
40
5.000
0
CIRCLE
8
INTERIOR_PROFILES
10
2249.312
20
1477.618
30
0
40
1.700
0
CIRCLE
8
INTERIOR_PROFILES
10
2649.312
20
1477.618
30
0
40
1.700
0
CIRCLE
8
INTERIOR_PROFILES
10
2699.312
20
1451.094
30
0
40
5.000
0
CIRCLE
8
INTERIOR_PROFILES
10
2749.312
20
1477.618
30
0
40
1.700
0
CIRCLE
8
INTERIOR_PROFILES
10
2399.312
20
1451.094
30
0
40
5.000
0
CIRCLE
8
INTERIOR_PROFILES
10
2649.312
20
1451.094
30
0
40
5.000
0
CIRCLE
8
INTERIOR_PROFILES
10
2838.574
20
1423.832
30
0
40
1.700
0
CIRCLE
8
INTERIOR_PROFILES
10
2299.312
20
1451.094
30
0
40
5.000
0
CIRCLE
8
INTERIOR_PROFILES
10
2349.312
20
1451.094
30
0
40
5.000
0
CIRCLE
8
INTERIOR_PROFILES
10
2549.312
20
1477.618
30
0
40
1.700
0
CIRCLE
8
INTERIOR_PROFILES
10
2499.312
20
1451.094
30
0
40
5.000
0
CIRCLE
8
INTERIOR_PROFILES
10
2349.312
20
1406.570
30
0
40
5.000
0
CIRCLE
8
INTERIOR_PROFILES
10
2299.312
20
1406.570
30
0
40
1.700
0
CIRCLE
8
INTERIOR_PROFILES
10
2449.312
20
1406.570
30
0
40
5.000
0
CIRCLE
8
INTERIOR_PROFILES
10
2199.312
20
1406.570
30
0
40
1.700
0
CIRCLE
8
INTERIOR_PROFILES
10
2549.312
20
1406.570
30
0
40
5.000
0
CIRCLE
8
INTERIOR_PROFILES
10
2160.050
20
1423.832
30
0
40
1.700
0
CIRCLE
8
INTERIOR_PROFILES
10
2499.312
20
1406.570
30
0
40
1.700
0
CIRCLE
8
INTERIOR_PROFILES
10
2599.312
20
1406.570
30
0
40
1.700
0
CIRCLE
8
INTERIOR_PROFILES
10
2649.312
20
1406.570
30
0
40
5.000
0
TEXT
8
PART_LABELS
10
1627.550
20
1457.360
30
0
40
15.000
1
SH0S12-080000
72
1
73
2
11
1627.550
21
1457.360
31
0
0
LWPOLYLINE
8
OUTER_PROFILES
90
20
70
1
10
1234.050
20
1463.884
10
1251.312
20
1463.884
10
1251.312
20
1466.146
10
1251.312
20
1480.146
10
1251.312
20
1487.408
10
2003.312
20
1487.408
10
2003.312
20
1480.146
10
2003.312
20
1466.146
10
2003.312
20
1463.884
10
2020.574
20
1463.884
10
2020.574
20
1450.884
10
2003.312
20
1450.884
10
2003.312
20
1448.622
10
2003.312
20
1434.622
10
2003.312
20
1427.360
10
1251.312
20
1427.360
10
1251.312
20
1434.622
10
1251.312
20
1448.622
10
1251.312
20
1450.884
10
1234.050
20
1450.884
0
CIRCLE
8
INTERIOR_PROFILES
10
1242.050
20
1457.384
30
0
40
1.700
0
CIRCLE
8
INTERIOR_PROFILES
10
2012.574
20
1457.384
30
0
40
1.700
0
TEXT
8
PART_LABELS
10
358.500
20
1484.070
30
0
40
15.250
1
TS1BHH-070000-Ruth
72
1
73
2
11
358.500
21
1484.070
31
0
0
CIRCLE
8
OUTER_PROFILES
10
712.524
20
1507.594
30
0
40
1.700
0
LWPOLYLINE
8
OUTER_PROFILES
90
4
70
1
10
93.262
20
1497.094
10
93.262
20
1494.832
10
20.262
20
1494.832
10
20.262
20
1497.094
0
CIRCLE
8
OUTER_PROFILES
10
699.262
20
1507.594
30
0
40
1.700
0
CIRCLE
8
OUTER_PROFILES
10
673.262
20
1507.594
30
0
40
1.700
0
CIRCLE
8
OUTER_PROFILES
10
43.262
20
1507.594
30
0
40
1.700
0
CIRCLE
8
OUTER_PROFILES
10
17.262
20
1507.594
30
0
40
1.700
0
CIRCLE
8
OUTER_PROFILES
10
89.262
20
1507.594
30
0
40
1.700
0
CIRCLE
8
OUTER_PROFILES
10
627.262
20
1507.594
30
0
40
1.700
0
CIRCLE
8
OUTER_PROFILES
10
17.262
20
1465.832
30
0
40
1.700
0
CIRCLE
8
OUTER_PROFILES
10
699.262
20
1490.832
30
0
40
1.700
0
CIRCLE
8
OUTER_PROFILES
10
17.262
20
1490.832
30
0
40
1.700
0
CIRCLE
8
OUTER_PROFILES
10
699.262
20
1465.832
30
0
40
1.700
0
LWPOLYLINE
8
OUTER_PROFILES
90
4
70
1
10
696.262
20
1497.094
10
696.262
20
1494.832
10
623.262
20
1494.832
10
623.262
20
1497.094
0
LWPOLYLINE
8
OUTER_PROFILES
90
14
70
1
10
716.524
20
1514.594
10
0.000
20
1514.594
10
0.000
20
1497.094
10
10.262
20
1497.094
10
10.262
20
1494.832
10
10.262
20
1460.832
10
10.262
20
1458.570
10
10.262
20
1453.570
10
706.262
20
1453.570
10
706.262
20
1458.570
10
706.262
20
1460.832
10
706.262
20
1494.832
10
706.262
20
1497.094
10
716.524
20
1497.094
0
CIRCLE
8
OUTER_PROFILES
10
4.000
20
1507.594
30
0
40
1.700
0
ENDSEC
0
EOF