0
SECTION
2
HEADER
9
$INSUNITS
70
4
0
ENDSEC
0
SECTION
2
ENTITIES
0
LWPOLYLINE
8
SHEET_BORDER
90
5
70
1
10
0.000
20
0.000
10
3050.000
20
0.000
10
3050.000
20
1525.000
10
0.000
20
1525.000
10
0.000
20
0.000
0
TEXT
8
PART_LABELS
10
309.760
20
1239.350
30
0
40
50.000
1
DSV1TR-060050
72
1
73
2
11
309.760
21
1239.350
31
0
0
ARC
8
OUTER_PROFILES
10
-635306.969
20
-400853.958
30
0
40
752001.732
50
32.3466
51
32.3468
0
LINE
8
OUTER_PROFILES
10
4.241
20
1496.973
30
0
11
4.956
21
1495.845
31
0
0
LINE
8
OUTER_PROFILES
10
4.956
20
1495.844
30
0
11
1.773
21
1495.649
31
0
0
ARC
8
OUTER_PROFILES
10
1.043
20
1491.948
30
0
40
3.772
50
78.8499
51
106.0520
0
LINE
8
OUTER_PROFILES
10
0.000
20
1495.573
30
0
11
0.111
21
1495.150
31
0
0
LINE
8
OUTER_PROFILES
10
0.111
20
1495.150
30
0
11
6.783
21
1469.776
31
0
0
LINE
8
OUTER_PROFILES
10
6.783
20
1469.776
30
0
11
12.108
21
1459.335
31
0
0
LINE
8
OUTER_PROFILES
10
12.108
20
1459.335
30
0
11
578.606
21
955.366
31
0
0
LINE
8
OUTER_PROFILES
10
578.606
20
955.366
30
0
11
583.265
21
953.898
31
0
0
ARC
8
OUTER_PROFILES
10
584.712
20
959.047
30
0
40
5.348
50
254.3001
51
285.8897
0
ARC
8
OUTER_PROFILES
10
585.697
20
954.768
30
0
40
0.989
50
298.9725
51
318.0661
0
LINE
8
OUTER_PROFILES
10
586.433
20
954.107
30
0
11
597.068
21
966.062
31
0
0
ARC
8
OUTER_PROFILES
10
594.613
20
967.293
30
0
40
2.747
50
333.3698
51
23.3502
0
ARC
8
OUTER_PROFILES
10
564.593
20
960.135
30
0
40
33.569
50
14.2193
51
15.7233
0
LINE
8
OUTER_PROFILES
10
596.906
20
969.232
30
0
11
596.998
21
969.273
31
0
0
ARC
8
OUTER_PROFILES
10
601.635
20
971.491
30
0
40
5.140
50
205.5556
51
238.8597
0
ARC
8
OUTER_PROFILES
10
599.266
20
967.977
30
0
40
0.932
50
251.9425
51
269.6194
0
LINE
8
OUTER_PROFILES
10
599.260
20
967.045
30
0
11
615.260
21
967.045
31
0
0
ARC
8
OUTER_PROFILES
10
614.755
20
969.353
30
0
40
2.362
50
282.3391
51
333.8673
0
ARC
8
OUTER_PROFILES
10
598.108
20
981.630
30
0
40
23.012
50
324.6391
51
327.5230
0
LINE
8
OUTER_PROFILES
10
617.522
20
969.273
30
0
11
619.522
21
973.730
31
0
0
LINE
8
OUTER_PROFILES
10
619.522
20
973.730
30
0
11
619.522
21
1477.703
31
0
0
LINE
8
OUTER_PROFILES
10
619.522
20
1477.703
30
0
11
617.522
21
1479.703
31
0
0
LINE
8
OUTER_PROFILES
10
617.522
20
1479.703
30
0
11
615.260
21
1482.673
31
0
0
LINE
8
OUTER_PROFILES
10
615.260
20
1482.673
30
0
11
600.674
21
1497.259
31
0
0
ARC
8
OUTER_PROFILES
10
599.260
20
1495.845
30
0
40
2.000
50
45.0000
51
90.0000
0
LINE
8
OUTER_PROFILES
10
599.260
20
1497.845
30
0
11
596.998
21
1495.845
31
0
0
LINE
8
OUTER_PROFILES
10
596.998
20
1495.845
30
0
11
597.898
21
1499.238
31
0
0
LINE
8
OUTER_PROFILES
10
597.898
20
1499.238
30
0
11
597.898
21
1520.419
31
0
0
ARC
8
OUTER_PROFILES
10
588.096
20
1518.440
30
0
40
10.000
50
11.4188
51
20.0319
0
ARC
8
OUTER_PROFILES
10
588.093
20
1518.438
30
0
40
10.003
50
20.0330
51
27.1050
0
LINE
8
OUTER_PROFILES
10
596.997
20
1522.996
30
0
11
594.997
21
1524.996
31
0
0
LINE
8
OUTER_PROFILES
10
594.997
20
1524.996
30
0
11
28.478
21
1524.996
31
0
0
LINE
8
OUTER_PROFILES
10
28.478
20
1524.996
30
0
11
23.222
21
1522.996
31
0
0
ARC
8
OUTER_PROFILES
10
34.141
20
1505.242
30
0
40
20.844
50
121.5950
51
125.3222
0
LINE
8
OUTER_PROFILES
10
21.510
20
1521.865
30
0
11
22.088
21
1522.247
31
0
0
LINE
8
OUTER_PROFILES
10
21.510
20
1521.865
30
0
11
19.997
21
1520.865
31
0
0
LINE
8
OUTER_PROFILES
10
19.997
20
1520.865
30
0
11
2.807
21
1499.238
31
0
0
TEXT
8
PART_LABELS
10
296.735
20
685.285
30
0
40
50.000
1
DSV2TR-060050
72
1
73
2
11
296.735
21
685.285
31
0
0
LINE
8
OUTER_PROFILES
10
562.975
20
951.704
30
0
11
0.000
21
450.870
31
0
0
LINE
8
OUTER_PROFILES
10
0.000
20
450.870
30
0
11
11.299
21
438.168
31
0
0
ARC
8
OUTER_PROFILES
10
12.566
20
440.118
30
0
40
2.325
50
236.9966
51
289.2850
0
ARC
8
OUTER_PROFILES
10
8.697
20
463.489
30
0
40
25.982
50
280.2786
51
283.5087
0
LINE
8
OUTER_PROFILES
10
14.767
20
438.225
30
0
11
14.802
21
438.132
31
0
0
ARC
8
OUTER_PROFILES
10
17.144
20
432.348
30
0
40
6.240
50
112.0414
51
141.4875
0
ARC
8
OUTER_PROFILES
10
13.028
20
435.856
30
0
40
0.855
50
153.8093
51
179.0856
0
LINE
8
OUTER_PROFILES
10
12.174
20
435.870
30
0
11
12.174
21
418.870
31
0
0
LINE
8
OUTER_PROFILES
10
12.174
20
418.870
30
0
11
575.134
21
418.870
31
0
0
LINE
8
OUTER_PROFILES
10
575.134
20
418.870
30
0
11
575.134
21
435.870
31
0
0
ARC
8
OUTER_PROFILES
10
570.882
20
435.342
30
0
40
4.285
50
7.0769
51
40.6233
0
LINE
8
OUTER_PROFILES
10
574.134
20
438.132
30
0
11
574.205
21
438.203
31
0
0
ARC
8
OUTER_PROFILES
10
576.994
20
441.455
30
0
40
4.285
50
229.3767
51
262.9231
0
LINE
8
OUTER_PROFILES
10
576.466
20
437.203
30
0
11
593.466
21
437.203
31
0
0
LINE
8
OUTER_PROFILES
10
593.466
20
437.203
30
0
11
593.466
21
938.019
31
0
0
LINE
8
OUTER_PROFILES
10
593.466
20
938.019
30
0
11
576.466
21
938.019
31
0
0
ARC
8
OUTER_PROFILES
10
577.179
20
935.366
30
0
40
2.747
50
105.0268
51
155.0072
0
ARC
8
OUTER_PROFILES
10
602.479
20
917.695
30
0
40
33.569
50
145.8763
51
147.3803
0
LINE
8
OUTER_PROFILES
10
574.205
20
935.791
30
0
11
574.113
21
935.832
31
0
0
ARC
8
OUTER_PROFILES
10
569.374
20
937.823
30
0
40
5.140
50
337.2126
51
10.5166
0
ARC
8
OUTER_PROFILES
10
573.574
20
938.388
30
0
40
0.932
50
23.5994
51
41.2764
0
LINE
8
OUTER_PROFILES
10
574.275
20
939.003
30
0
11
562.975
21
951.704
31
0
0
CIRCLE
8
INTERIOR_PROFILES
10
556.705
20
855.632
30
0
40
17.500
0
CIRCLE
8
INTERIOR_PROFILES
10
550.705
20
481.632
30
0
40
1.700
0
CIRCLE
8
INTERIOR_PROFILES
10
550.705
20
529.632
30
0
40
1.700
0
CIRCLE
8
INTERIOR_PROFILES
10
550.705
20
831.632
30
0
40
1.700
0
CIRCLE
8
INTERIOR_PROFILES
10
550.705
20
879.632
30
0
40
1.700
0
CIRCLE
8
INTERIOR_PROFILES
10
556.705
20
505.632
30
0
40
17.500
0
TEXT
8
PART_LABELS
10
397.500
20
218.370
30
0
40
50.000
1
SH0S11-080035
72
1
73
2
11
397.500
21
218.370
31
0
0
LWPOLYLINE
8
OUTER_PROFILES
90
24
70
1
10
775.393
20
391.232
10
793.817
20
409.656
10
774.262
20
409.656
10
774.262
20
416.918
10
20.262
20
416.918
10
20.262
20
409.656
10
0.707
20
409.656
10
19.131
20
391.232
42
-0.414214
10
19.131
20
389.818
10
0.000
20
370.687
10
0.000
20
66.101
10
19.131
20
46.970
42
-0.414214
10
19.131
20
45.556
10
0.707
20
27.132
10
20.262
20
27.132
10
20.262
20
19.870
10
774.262
20
19.870
10
774.262
20
27.132
10
793.817
20
27.132
10
775.393
20
45.556
42
-0.414214
10
775.393
20
46.970
10
794.524
20
66.101
10
794.524
20
370.687
10
775.393
20
389.818
42
-0.414214
0
CIRCLE
8
INTERIOR_PROFILES
10
9.000
20
218.394
30
0
40
1.700
0
CIRCLE
8
INTERIOR_PROFILES
10
785.524
20
218.394
30
0
40
1.700
0
TEXT
8
PART_LABELS
10
873.780
20
1251.975
30
0
40
50.000
1
DSB0F0-060050
72
1
73
2
11
873.780
21
1251.975
31
0
0
LINE
8
OUTER_PROFILES
10
1109.782
20
1524.998
30
0
11
1109.782
21
1496.736
31
0
0
LINE
8
OUTER_PROFILES
10
1109.782
20
1496.736
30
0
11
1109.782
21
1494.474
31
0
0
LINE
8
OUTER_PROFILES
10
1109.782
20
1494.474
30
0
11
1112.044
21
1494.474
31
0
0
LINE
8
OUTER_PROFILES
10
1112.044
20
1494.474
30
0
11
1126.044
21
1494.474
31
0
0
LINE
8
OUTER_PROFILES
10
1126.044
20
1494.474
30
0
11
1126.044
21
1009.474
31
0
0
LINE
8
OUTER_PROFILES
10
1126.044
20
1009.474
30
0
11
1112.044
21
1009.474
31
0
0
LINE
8
OUTER_PROFILES
10
1112.044
20
1009.474
30
0
11
1109.782
21
1009.474
31
0
0
LINE
8
OUTER_PROFILES
10
1109.782
20
1009.474
30
0
11
1109.782
21
1007.212
31
0
0
LINE
8
OUTER_PROFILES
10
1109.782
20
1007.212
30
0
11
1109.782
21
978.950
31
0
0
LINE
8
OUTER_PROFILES
10
1109.782
20
978.950
30
0
11
637.782
21
978.950
31
0
0
LINE
8
OUTER_PROFILES
10
637.782
20
978.950
30
0
11
637.782
21
1007.212
31
0
0
LINE
8
OUTER_PROFILES
10
637.782
20
1007.212
30
0
11
637.782
21
1009.474
31
0
0
LINE
8
OUTER_PROFILES
10
637.782
20
1009.474
30
0
11
635.520
21
1009.474
31
0
0
LINE
8
OUTER_PROFILES
10
635.520
20
1009.474
30
0
11
621.520
21
1009.474
31
0
0
LINE
8
OUTER_PROFILES
10
621.520
20
1009.474
30
0
11
621.520
21
1494.474
31
0
0
LINE
8
OUTER_PROFILES
10
621.520
20
1494.474
30
0
11
635.520
21
1494.474
31
0
0
LINE
8
OUTER_PROFILES
10
635.520
20
1494.474
30
0
11
637.782
21
1494.474
31
0
0
LINE
8
OUTER_PROFILES
10
637.782
20
1494.474
30
0
11
637.782
21
1496.736
31
0
0
LINE
8
OUTER_PROFILES
10
637.782
20
1496.736
30
0
11
637.782
21
1524.998
31
0
0
LINE
8
OUTER_PROFILES
10
637.782
20
1524.998
30
0
11
1109.782
21
1524.998
31
0
0
CIRCLE
8
INTERIOR_PROFILES
10
679.632
20
1517.498
30
0
40
2.500
0
CIRCLE
8
INTERIOR_PROFILES
10
1095.632
20
986.450
30
0
40
2.500
0
CIRCLE
8
INTERIOR_PROFILES
10
679.632
20
986.450
30
0
40
2.500
0
CIRCLE
8
INTERIOR_PROFILES
10
825.632
20
1517.498
30
0
40
2.500
0
CIRCLE
8
INTERIOR_PROFILES
10
629.520
20
1451.974
30
0
40
1.700
0
CIRCLE
8
INTERIOR_PROFILES
10
808.932
20
986.450
30
0
40
2.500
0
CIRCLE
8
INTERIOR_PROFILES
10
1067.932
20
986.450
30
0
40
2.500
0
CIRCLE
8
INTERIOR_PROFILES
10
1118.044
20
1451.974
30
0
40
1.700
0
CIRCLE
8
INTERIOR_PROFILES
10
921.932
20
1517.498
30
0
40
2.500
0
CIRCLE
8
INTERIOR_PROFILES
10
808.932
20
1517.498
30
0
40
2.500
0
CIRCLE
8
INTERIOR_PROFILES
10
1118.044
20
1051.974
30
0
40
1.700
0
CIRCLE
8
INTERIOR_PROFILES
10
921.932
20
986.450
30
0
40
2.500
0
CIRCLE
8
INTERIOR_PROFILES
10
1095.632
20
1517.498
30
0
40
2.500
0
CIRCLE
8
INTERIOR_PROFILES
10
1118.044
20
1251.974
30
0
40
1.700
0
CIRCLE
8
INTERIOR_PROFILES
10
1067.932
20
1517.498
30
0
40
2.500
0
CIRCLE
8
INTERIOR_PROFILES
10
651.932
20
1517.498
30
0
40
2.500
0
CIRCLE
8
INTERIOR_PROFILES
10
629.520
20
1251.974
30
0
40
1.700
0
CIRCLE
8
INTERIOR_PROFILES
10
938.632
20
986.450
30
0
40
2.500
0
CIRCLE
8
INTERIOR_PROFILES
10
825.632
20
986.450
30
0
40
2.500
0
CIRCLE
8
INTERIOR_PROFILES
10
629.520
20
1051.974
30
0
40
1.700
0
CIRCLE
8
INTERIOR_PROFILES
10
651.932
20
986.450
30
0
40
2.500
0
CIRCLE
8
INTERIOR_PROFILES
10
938.632
20
1517.498
30
0
40
2.500
0
TEXT
8
PART_LABELS
10
957.230
20
807.940
30
0
40
50.000
1
DSV2B3-070031-Ruth
72
1
73
2
11
957.230
21
807.940
31
0
0
LWPOLYLINE
8
OUTER_PROFILES
90
16
70
1
10
1300.661
20
682.513
10
1300.661
20
664.180
10
613.803
20
664.180
10
613.803
20
681.180
10
614.732
20
683.442
10
612.470
20
682.513
10
595.470
20
682.513
10
595.470
20
933.371
10
613.803
20
933.371
10
613.803
20
951.704
10
1300.661
20
951.704
10
1300.661
20
934.704
10
1299.732
20
932.442
10
1301.994
20
933.371
10
1318.994
20
933.371
10
1318.994
20
682.513
0
CIRCLE
8
INTERIOR_PROFILES
10
1273.732
20
713.442
30
0
40
5.000
0
CIRCLE
8
INTERIOR_PROFILES
10
640.732
20
841.442
30
0
40
1.700
0
CIRCLE
8
INTERIOR_PROFILES
10
1273.732
20
873.442
30
0
40
1.700
0
CIRCLE
8
INTERIOR_PROFILES
10
640.732
20
873.442
30
0
40
1.700
0
CIRCLE
8
INTERIOR_PROFILES
10
640.732
20
713.442
30
0
40
5.000
0
CIRCLE
8
INTERIOR_PROFILES
10
1273.732
20
841.442
30
0
40
1.700
0
TEXT
8
PART_LABELS
10
1116.025
20
499.840
30
0
40
50.000
1
DSV100-060030-Ruth
72
1
73
2
11
1116.025
21
499.840
31
0
0
LWPOLYLINE
8
OUTER_PROFILES
90
34
70
1
10
818.624
20
636.417
10
815.848
20
634.438
10
801.262
20
619.852
10
799.000
20
616.953
10
797.000
20
614.953
10
797.000
20
362.095
10
799.000
20
360.095
10
801.262
20
358.024
10
817.262
20
358.024
10
818.624
20
357.762
10
818.624
20
341.762
10
819.595
20
339.500
10
821.595
20
337.500
10
1410.453
20
337.500
10
1412.453
20
339.500
10
1413.424
20
341.762
10
1413.424
20
357.762
10
1414.786
20
358.024
10
1430.786
20
358.024
10
1433.048
20
360.095
10
1435.048
20
362.095
10
1435.048
20
614.953
10
1433.048
20
616.953
10
1430.786
20
619.852
10
1416.200
20
634.438
10
1413.424
20
636.417
10
1413.424
20
657.758
10
1412.974
20
659.044
10
1412.453
20
660.175
10
1410.453
20
662.175
10
821.595
20
662.175
10
819.595
20
660.175
10
819.074
20
659.044
10
818.624
20
657.758
0
TEXT
8
PART_LABELS
10
1108.760
20
191.740
30
0
40
50.000
1
DSV2B3-060031-Ruth
72
1
73
2
11
1108.760
21
191.740
31
0
0
LWPOLYLINE
8
OUTER_PROFILES
90
16
70
1
10
1402.191
20
335.504
10
815.333
20
335.504
10
815.333
20
317.171
10
797.000
20
317.171
10
797.000
20
66.313
10
814.000
20
66.313
10
816.262
20
67.242
10
815.333
20
64.980
10
815.333
20
47.980
10
1402.191
20
47.980
10
1402.191
20
66.313
10
1420.524
20
66.313
10
1420.524
20
317.171
10
1403.524
20
317.171
10
1401.262
20
316.242
10
1402.191
20
318.504
0
CIRCLE
8
INTERIOR_PROFILES
10
842.262
20
225.242
30
0
40
1.700
0
CIRCLE
8
INTERIOR_PROFILES
10
842.262
20
97.242
30
0
40
5.000
0
CIRCLE
8
INTERIOR_PROFILES
10
1375.262
20
97.242
30
0
40
5.000
0
CIRCLE
8
INTERIOR_PROFILES
10
1375.262
20
225.242
30
0
40
1.700
0
CIRCLE
8
INTERIOR_PROFILES
10
842.262
20
257.242
30
0
40
1.700
0
CIRCLE
8
INTERIOR_PROFILES
10
1375.262
20
257.242
30
0
40
1.700
0
TEXT
8
PART_LABELS
10
1489.800
20
1401.240
30
0
40
50.000
1
DSV2B3-070023-Ruth
72
1
73
2
11
1489.800
21
1401.240
31
0
0
LWPOLYLINE
8
OUTER_PROFILES
90
16
70
1
10
1128.040
20
1295.813
10
1145.040
20
1295.813
10
1147.302
20
1296.742
10
1146.373
20
1294.480
10
1146.373
20
1277.480
10
1833.231
20
1277.480
10
1833.231
20
1295.813
10
1851.564
20
1295.813
10
1851.564
20
1506.671
10
1834.564
20
1506.671
10
1832.302
20
1505.742
10
1833.231
20
1508.004
10
1833.231
20
1525.004
10
1146.373
20
1525.004
10
1146.373
20
1506.671
10
1128.040
20
1506.671
0
CIRCLE
8
INTERIOR_PROFILES
10
1806.302
20
1466.742
30
0
40
1.700
0
CIRCLE
8
INTERIOR_PROFILES
10
1806.302
20
1434.742
30
0
40
1.700
0
CIRCLE
8
INTERIOR_PROFILES
10
1173.302
20
1434.742
30
0
40
1.700
0
CIRCLE
8
INTERIOR_PROFILES
10
1173.302
20
1466.742
30
0
40
1.700
0
TEXT
8
PART_LABELS
10
1445.065
20
1154.585
30
0
40
50.000
1
DSB0BD-070050
72
1
73
2
11
1445.065
21
1154.585
31
0
0
LWPOLYLINE
8
OUTER_PROFILES
90
32
70
1
10
1158.564
20
1049.952
10
1158.564
20
1033.690
10
1731.564
20
1033.690
10
1731.564
20
1049.952
10
1762.088
20
1049.952
10
1762.088
20
1230.881
10
1748.088
20
1230.881
10
1745.826
20
1232.881
10
1733.331
20
1245.376
42
-0.414214
10
1733.331
20
1246.790
10
1745.755
20
1259.214
10
1747.755
20
1261.476
10
1747.755
20
1275.476
10
1737.897
20
1275.476
10
1737.897
20
1265.476
10
1733.402
20
1260.981
42
-0.414214
10
1731.988
20
1260.981
10
1727.493
20
1265.476
10
1162.635
20
1265.476
10
1158.140
20
1260.981
42
-0.414214
10
1156.726
20
1260.981
10
1152.231
20
1265.476
10
1152.231
20
1275.476
10
1142.373
20
1275.476
10
1142.373
20
1261.476
10
1144.373
20
1259.214
10
1156.797
20
1246.790
42
-0.414214
10
1156.797
20
1245.376
10
1144.302
20
1232.881
10
1142.040
20
1230.881
10
1128.040
20
1230.881
10
1128.040
20
1049.952
0
CIRCLE
8
INTERIOR_PROFILES
10
1135.040
20
1111.452
30
0
40
1.700
0
CIRCLE
8
INTERIOR_PROFILES
10
1755.088
20
1206.952
30
0
40
1.700
0
CIRCLE
8
INTERIOR_PROFILES
10
1135.040
20
1206.952
30
0
40
1.700
0
CIRCLE
8
INTERIOR_PROFILES
10
1755.088
20
1111.452
30
0
40
1.700
0
CIRCLE
8
INTERIOR_PROFILES
10
1739.826
20
1268.476
30
0
40
1.700
0
CIRCLE
8
INTERIOR_PROFILES
10
1135.040
20
1142.952
30
0
40
1.700
0
CIRCLE
8
INTERIOR_PROFILES
10
1135.040
20
1079.452
30
0
40
1.700
0
CIRCLE
8
INTERIOR_PROFILES
10
1695.064
20
1055.952
30
0
40
1.700
0
CIRCLE
8
INTERIOR_PROFILES
10
1755.088
20
1079.452
30
0
40
1.700
0
CIRCLE
8
INTERIOR_PROFILES
10
1445.064
20
1055.952
30
0
40
1.700
0
CIRCLE
8
INTERIOR_PROFILES
10
1195.064
20
1055.952
30
0
40
1.700
0
CIRCLE
8
INTERIOR_PROFILES
10
1150.302
20
1268.476
30
0
40
1.700
0
CIRCLE
8
INTERIOR_PROFILES
10
1755.088
20
1142.952
30
0
40
1.700
0
TEXT
8
PART_LABELS
10
1588.015
20
910.795
30
0
40
50.000
1
DSB0BD-060050
72
1
73
2
11
1588.015
21
910.795
31
0
0
LWPOLYLINE
8
OUTER_PROFILES
90
32
70
1
10
1345.181
20
1021.686
10
1345.181
20
1031.686
10
1335.323
20
1031.686
10
1335.323
20
1017.686
10
1337.323
20
1015.424
10
1349.747
20
1003.000
42
-0.414214
10
1349.747
20
1001.586
10
1337.252
20
989.091
10
1334.990
20
987.091
10
1320.990
20
987.091
10
1320.990
20
806.162
10
1351.514
20
806.162
10
1351.514
20
789.900
10
1824.514
20
789.900
10
1824.514
20
806.162
10
1855.038
20
806.162
10
1855.038
20
987.091
10
1841.038
20
987.091
10
1838.776
20
989.091
10
1826.281
20
1001.586
42
-0.414214
10
1826.281
20
1003.000
10
1838.705
20
1015.424
10
1840.705
20
1017.686
10
1840.705
20
1031.686
10
1830.847
20
1031.686
10
1830.847
20
1021.686
10
1826.352
20
1017.191
42
-0.414214
10
1824.938
20
1017.191
10
1820.443
20
1021.686
10
1355.585
20
1021.686
10
1351.090
20
1017.191
42
-0.414214
10
1349.676
20
1017.191
0
CIRCLE
8
INTERIOR_PROFILES
10
1343.252
20
1024.686
30
0
40
1.700
0
CIRCLE
8
INTERIOR_PROFILES
10
1788.014
20
812.162
30
0
40
1.700
0
CIRCLE
8
INTERIOR_PROFILES
10
1848.038
20
835.662
30
0
40
1.700
0
CIRCLE
8
INTERIOR_PROFILES
10
1327.990
20
963.162
30
0
40
1.700
0
CIRCLE
8
INTERIOR_PROFILES
10
1327.990
20
899.162
30
0
40
1.700
0
CIRCLE
8
INTERIOR_PROFILES
10
1848.038
20
963.162
30
0
40
1.700
0
CIRCLE
8
INTERIOR_PROFILES
10
1588.014
20
812.162
30
0
40
1.700
0
CIRCLE
8
INTERIOR_PROFILES
10
1327.990
20
867.662
30
0
40
1.700
0
CIRCLE
8
INTERIOR_PROFILES
10
1832.776
20
1024.686
30
0
40
1.700
0
CIRCLE
8
INTERIOR_PROFILES
10
1388.014
20
812.162
30
0
40
1.700
0
CIRCLE
8
INTERIOR_PROFILES
10
1327.990
20
835.662
30
0
40
1.700
0
CIRCLE
8
INTERIOR_PROFILES
10
1848.038
20
867.662
30
0
40
1.700
0
CIRCLE
8
INTERIOR_PROFILES
10
1848.038
20
899.162
30
0
40
1.700
0
TEXT
8
PART_LABELS
10
1718.990
20
726.400
30
0
40
30.750
1
FN2BNX-080000
72
1
73
2
11
1718.990
21
726.400
31
0
0
ARC
8
OUTER_PROFILES
10
2123.285
20
696.718
30
0
40
18.301
50
178.6095
51
222.2344
0
ARC
8
OUTER_PROFILES
10
2117.529
20
691.857
30
0
40
10.775
50
223.6733
51
256.4369
0
ARC
8
OUTER_PROFILES
10
2114.446
20
678.900
30
0
40
2.544
50
0.0000
51
77.3733
0
LINE
8
OUTER_PROFILES
10
2116.990
20
678.900
30
0
11
2116.990
21
666.900
31
0
0
ARC
8
OUTER_PROFILES
10
2114.990
20
666.900
30
0
40
2.000
50
270.0000
51
0.0000
0
LINE
8
OUTER_PROFILES
10
2114.990
20
664.900
30
0
11
1322.990
21
664.900
31
0
0
ARC
8
OUTER_PROFILES
10
1322.990
20
666.900
30
0
40
2.000
50
180.0000
51
270.0000
0
LINE
8
OUTER_PROFILES
10
1320.990
20
666.900
30
0
11
1320.990
21
678.900
31
0
0
ARC
8
OUTER_PROFILES
10
1323.535
20
678.900
30
0
40
2.544
50
102.6267
51
180.0000
0
ARC
8
OUTER_PROFILES
10
1319.828
20
693.059
30
0
40
12.093
50
285.0973
51
333.9506
0
ARC
8
OUTER_PROFILES
10
1313.201
20
697.003
30
0
40
19.790
50
332.1175
51
0.4598
0
LINE
8
OUTER_PROFILES
10
1332.990
20
697.162
30
0
11
1332.990
21
755.686
31
0
0
ARC
8
OUTER_PROFILES
10
1314.695
20
756.130
30
0
40
18.301
50
358.6095
51
42.2344
0
ARC
8
OUTER_PROFILES
10
1320.451
20
760.991
30
0
40
10.775
50
43.6733
51
76.4369
0
ARC
8
OUTER_PROFILES
10
1323.535
20
773.948
30
0
40
2.545
50
180.0000
51
257.3733
0
LINE
8
OUTER_PROFILES
10
1320.990
20
773.948
30
0
11
1320.990
21
785.948
31
0
0
ARC
8
OUTER_PROFILES
10
1322.990
20
785.948
30
0
40
2.000
50
90.0000
51
180.0000
0
LINE
8
OUTER_PROFILES
10
1322.990
20
787.948
30
0
11
2114.990
21
787.948
31
0
0
ARC
8
OUTER_PROFILES
10
2114.990
20
785.948
30
0
40
2.000
50
0.0000
51
90.0000
0
LINE
8
OUTER_PROFILES
10
2116.990
20
785.948
30
0
11
2116.990
21
773.948
31
0
0
ARC
8
OUTER_PROFILES
10
2114.446
20
773.948
30
0
40
2.545
50
282.6267
51
0.0000
0
ARC
8
OUTER_PROFILES
10
2118.152
20
759.789
30
0
40
12.093
50
105.0973
51
153.9506
0
ARC
8
OUTER_PROFILES
10
2124.779
20
755.845
30
0
40
19.790
50
152.1175
51
180.4598
0
LINE
8
OUTER_PROFILES
10
2104.990
20
755.686
30
0
11
2104.990
21
697.162
31
0
0
CIRCLE
8
INTERIOR_PROFILES
10
1353.990
20
675.900
30
0
40
1.700
0
CIRCLE
8
INTERIOR_PROFILES
10
2037.990
20
675.900
30
0
40
1.700
0
CIRCLE
8
INTERIOR_PROFILES
10
1399.990
20
675.900
30
0
40
1.700
0
CIRCLE
8
INTERIOR_PROFILES
10
1327.990
20
675.900
30
0
40
1.700
0
CIRCLE
8
INTERIOR_PROFILES
10
1768.990
20
675.900
30
0
40
1.700
0
CIRCLE
8
INTERIOR_PROFILES
10
1468.990
20
675.900
30
0
40
1.700
0
CIRCLE
8
INTERIOR_PROFILES
10
1968.990
20
675.900
30
0
40
1.700
0
CIRCLE
8
INTERIOR_PROFILES
10
1518.990
20
675.900
30
0
40
1.700
0
CIRCLE
8
INTERIOR_PROFILES
10
1868.990
20
675.900
30
0
40
1.700
0
CIRCLE
8
INTERIOR_PROFILES
10
1918.990
20
675.900
30
0
40
1.700
0
CIRCLE
8
INTERIOR_PROFILES
10
1668.990
20
675.900
30
0
40
1.700
0
CIRCLE
8
INTERIOR_PROFILES
10
1818.990
20
675.900
30
0
40
1.700
0
CIRCLE
8
INTERIOR_PROFILES
10
1568.990
20
675.900
30
0
40
1.700
0
CIRCLE
8
INTERIOR_PROFILES
10
2083.990
20
675.900
30
0
40
1.700
0
CIRCLE
8
INTERIOR_PROFILES
10
1418.990
20
675.900
30
0
40
1.700
0
CIRCLE
8
INTERIOR_PROFILES
10
2068.990
20
675.900
30
0
40
1.700
0
CIRCLE
8
INTERIOR_PROFILES
10
1618.990
20
675.900
30
0
40
1.700
0
CIRCLE
8
INTERIOR_PROFILES
10
2018.990
20
675.900
30
0
40
1.700
0
CIRCLE
8
INTERIOR_PROFILES
10
2109.990
20
675.900
30
0
40
1.700
0
CIRCLE
8
INTERIOR_PROFILES
10
1718.990
20
675.900
30
0
40
1.700
0
CIRCLE
8
INTERIOR_PROFILES
10
1718.990
20
761.686
30
0
40
1.700
0
CIRCLE
8
INTERIOR_PROFILES
10
1718.990
20
749.051
30
0
40
1.700
0
CIRCLE
8
INTERIOR_PROFILES
10
2063.676
20
706.828
30
0
40
1.700
0
CIRCLE
8
INTERIOR_PROFILES
10
2086.304
20
706.828
30
0
40
1.700
0
CIRCLE
8
INTERIOR_PROFILES
10
2043.990
20
761.686
30
0
40
1.700
0
CIRCLE
8
INTERIOR_PROFILES
10
1393.990
20
691.162
30
0
40
1.700
0
CIRCLE
8
INTERIOR_PROFILES
10
2097.618
20
726.424
30
0
40
1.700
0
CIRCLE
8
INTERIOR_PROFILES
10
1696.363
20
726.424
30
0
40
1.700
0
CIRCLE
8
INTERIOR_PROFILES
10
2074.990
20
703.796
30
0
40
1.700
0
CIRCLE
8
INTERIOR_PROFILES
10
2043.990
20
691.162
30
0
40
1.700
0
CIRCLE
8
INTERIOR_PROFILES
10
1374.304
20
746.020
30
0
40
1.700
0
CIRCLE
8
INTERIOR_PROFILES
10
1362.990
20
703.796
30
0
40
1.700
0
CIRCLE
8
INTERIOR_PROFILES
10
2109.990
20
667.900
30
0
40
1.700
0
CIRCLE
8
INTERIOR_PROFILES
10
1393.990
20
761.686
30
0
40
1.700
0
CIRCLE
8
INTERIOR_PROFILES
10
2109.990
20
784.948
30
0
40
1.700
0
CIRCLE
8
INTERIOR_PROFILES
10
1374.304
20
706.828
30
0
40
1.700
0
CIRCLE
8
INTERIOR_PROFILES
10
1340.363
20
726.424
30
0
40
1.700
0
CIRCLE
8
INTERIOR_PROFILES
10
1327.990
20
784.948
30
0
40
1.700
0
CIRCLE
8
INTERIOR_PROFILES
10
1351.676
20
746.020
30
0
40
1.700
0
CIRCLE
8
INTERIOR_PROFILES
10
2074.990
20
749.051
30
0
40
1.700
0
CIRCLE
8
INTERIOR_PROFILES
10
1362.990
20
726.424
30
0
40
1.700
0
CIRCLE
8
INTERIOR_PROFILES
10
2052.363
20
726.424
30
0
40
1.700
0
CIRCLE
8
INTERIOR_PROFILES
10
1718.990
20
691.162
30
0
40
1.700
0
CIRCLE
8
INTERIOR_PROFILES
10
1362.990
20
749.051
30
0
40
1.700
0
CIRCLE
8
INTERIOR_PROFILES
10
2063.676
20
746.020
30
0
40
1.700
0
CIRCLE
8
INTERIOR_PROFILES
10
2086.304
20
746.020
30
0
40
1.700
0
CIRCLE
8
INTERIOR_PROFILES
10
1327.990
20
667.900
30
0
40
1.700
0
CIRCLE
8
INTERIOR_PROFILES
10
1351.676
20
706.828
30
0
40
1.700
0
CIRCLE
8
INTERIOR_PROFILES
10
1385.618
20
726.424
30
0
40
1.700
0
CIRCLE
8
INTERIOR_PROFILES
10
1741.618
20
726.424
30
0
40
1.700
0
CIRCLE
8
INTERIOR_PROFILES
10
1730.304
20
746.020
30
0
40
1.700
0
CIRCLE
8
INTERIOR_PROFILES
10
1730.304
20
706.828
30
0
40
1.700
0
CIRCLE
8
INTERIOR_PROFILES
10
1707.676
20
706.828
30
0
40
1.700
0
CIRCLE
8
INTERIOR_PROFILES
10
1707.676
20
746.020
30
0
40
1.700
0
CIRCLE
8
INTERIOR_PROFILES
10
1718.990
20
703.796
30
0
40
1.700
0
TEXT
8
PART_LABELS
10
1820.520
20
274.000
30
0
40
30.750
1
FN1BLA-080000
72
1
73
2
11
1820.520
21
274.000
31
0
0
ARC
8
OUTER_PROFILES
10
2215.976
20
321.548
30
0
40
2.545
50
282.6267
51
0.0000
0
LINE
8
OUTER_PROFILES
10
2218.520
20
321.548
30
0
11
2218.520
21
333.548
31
0
0
ARC
8
OUTER_PROFILES
10
2216.520
20
333.548
30
0
40
2.000
50
0.0000
51
90.0000
0
LINE
8
OUTER_PROFILES
10
2216.520
20
335.548
30
0
11
1973.520
21
335.548
31
0
0
ARC
8
OUTER_PROFILES
10
1973.520
20
333.548
30
0
40
2.000
50
90.0000
51
180.0000
0
LINE
8
OUTER_PROFILES
10
1971.520
20
333.548
30
0
11
1971.520
21
300.524
31
0
0
LINE
8
OUTER_PROFILES
10
1971.520
20
300.524
30
0
11
1970.520
21
300.524
31
0
0
LINE
8
OUTER_PROFILES
10
1970.520
20
300.524
30
0
11
1970.520
21
333.286
31
0
0
ARC
8
OUTER_PROFILES
10
1968.520
20
333.286
30
0
40
2.000
50
0.0000
51
90.0000
0
LINE
8
OUTER_PROFILES
10
1968.520
20
335.286
30
0
11
1672.520
21
335.286
31
0
0
ARC
8
OUTER_PROFILES
10
1672.520
20
333.286
30
0
40
2.000
50
90.0000
51
180.0000
0
LINE
8
OUTER_PROFILES
10
1670.520
20
333.286
30
0
11
1670.520
21
300.524
31
0
0
LINE
8
OUTER_PROFILES
10
1670.520
20
300.524
30
0
11
1669.520
21
300.524
31
0
0
LINE
8
OUTER_PROFILES
10
1669.520
20
300.524
30
0
11
1669.520
21
333.548
31
0
0
ARC
8
OUTER_PROFILES
10
1667.520
20
333.548
30
0
40
2.000
50
0.0000
51
90.0000
0
LINE
8
OUTER_PROFILES
10
1667.520
20
335.548
30
0
11
1424.520
21
335.548
31
0
0
ARC
8
OUTER_PROFILES
10
1424.520
20
333.548
30
0
40
2.000
50
90.0000
51
180.0000
0
LINE
8
OUTER_PROFILES
10
1422.520
20
333.548
30
0
11
1422.520
21
321.548
31
0
0
ARC
8
OUTER_PROFILES
10
1425.065
20
321.548
30
0
40
2.544
50
180.0000
51
257.3733
0
ARC
8
OUTER_PROFILES
10
1416.225
20
303.730
30
0
40
18.301
50
358.6095
51
42.2344
0
ARC
8
OUTER_PROFILES
10
1421.981
20
308.591
30
0
40
10.775
50
43.6733
51
76.4369
0
LINE
8
OUTER_PROFILES
10
1434.520
20
303.286
30
0
11
1434.520
21
244.762
31
0
0
ARC
8
OUTER_PROFILES
10
1421.358
20
240.659
30
0
40
12.093
50
285.0973
51
333.9506
0
ARC
8
OUTER_PROFILES
10
1414.731
20
244.603
30
0
40
19.790
50
332.1175
51
0.4598
0
ARC
8
OUTER_PROFILES
10
1425.064
20
226.500
30
0
40
2.545
50
102.6267
51
180.0000
0
LINE
8
OUTER_PROFILES
10
1422.520
20
226.500
30
0
11
1422.520
21
214.500
31
0
0
ARC
8
OUTER_PROFILES
10
1424.520
20
214.500
30
0
40
2.000
50
180.0000
51
270.0000
0
LINE
8
OUTER_PROFILES
10
1424.520
20
212.500
30
0
11
2216.520
21
212.500
31
0
0
ARC
8
OUTER_PROFILES
10
2216.520
20
214.500
30
0
40
2.000
50
270.0000
51
0.0000
0
LINE
8
OUTER_PROFILES
10
2218.520
20
214.500
30
0
11
2218.520
21
226.500
31
0
0
ARC
8
OUTER_PROFILES
10
2215.976
20
226.500
30
0
40
2.545
50
0.0000
51
77.3733
0
ARC
8
OUTER_PROFILES
10
2224.815
20
244.318
30
0
40
18.301
50
178.6095
51
222.2344
0
ARC
8
OUTER_PROFILES
10
2219.059
20
239.457
30
0
40
10.775
50
223.6733
51
256.4369
0
LINE
8
OUTER_PROFILES
10
2206.520
20
244.762
30
0
11
2206.520
21
303.286
31
0
0
ARC
8
OUTER_PROFILES
10
2219.682
20
307.389
30
0
40
12.093
50
105.0973
51
153.9506
0
ARC
8
OUTER_PROFILES
10
2226.309
20
303.445
30
0
40
19.790
50
152.1175
51
180.4598
0
CIRCLE
8
INTERIOR_PROFILES
10
2211.520
20
215.500
30
0
40
1.700
0
CIRCLE
8
INTERIOR_PROFILES
10
1495.520
20
309.286
30
0
40
1.700
0
CIRCLE
8
INTERIOR_PROFILES
10
1495.520
20
238.762
30
0
40
1.700
0
CIRCLE
8
INTERIOR_PROFILES
10
2145.520
20
238.762
30
0
40
1.700
0
CIRCLE
8
INTERIOR_PROFILES
10
1820.520
20
238.762
30
0
40
1.700
0
CIRCLE
8
INTERIOR_PROFILES
10
2211.520
20
332.548
30
0
40
1.700
0
CIRCLE
8
INTERIOR_PROFILES
10
1429.520
20
332.548
30
0
40
1.700
0
CIRCLE
8
INTERIOR_PROFILES
10
1429.520
20
215.500
30
0
40
1.700
0
CIRCLE
8
INTERIOR_PROFILES
10
2145.520
20
309.286
30
0
40
1.700
0
CIRCLE
8
INTERIOR_PROFILES
10
1475.834
20
293.620
30
0
40
1.700
0
CIRCLE
8
INTERIOR_PROFILES
10
1453.206
20
254.428
30
0
40
1.700
0
CIRCLE
8
INTERIOR_PROFILES
10
2020.520
20
251.396
30
0
40
1.700
0
CIRCLE
8
INTERIOR_PROFILES
10
1620.520
20
296.651
30
0
40
1.700
0
CIRCLE
8
INTERIOR_PROFILES
10
2009.206
20
254.428
30
0
40
1.700
0
CIRCLE
8
INTERIOR_PROFILES
10
1997.893
20
274.024
30
0
40
1.700
0
CIRCLE
8
INTERIOR_PROFILES
10
1464.520
20
251.396
30
0
40
1.700
0
CIRCLE
8
INTERIOR_PROFILES
10
2187.834
20
293.620
30
0
40
1.700
0
CIRCLE
8
INTERIOR_PROFILES
10
1441.893
20
274.024
30
0
40
1.700
0
CIRCLE
8
INTERIOR_PROFILES
10
1597.893
20
274.024
30
0
40
1.700
0
CIRCLE
8
INTERIOR_PROFILES
10
1620.520
20
251.396
30
0
40
1.700
0
CIRCLE
8
INTERIOR_PROFILES
10
2020.520
20
296.651
30
0
40
1.700
0
CIRCLE
8
INTERIOR_PROFILES
10
1631.834
20
254.428
30
0
40
1.700
0
CIRCLE
8
INTERIOR_PROFILES
10
1609.206
20
254.428
30
0
40
1.700
0
CIRCLE
8
INTERIOR_PROFILES
10
2176.520
20
251.396
30
0
40
1.700
0
CIRCLE
8
INTERIOR_PROFILES
10
1487.148
20
274.024
30
0
40
1.700
0
CIRCLE
8
INTERIOR_PROFILES
10
2176.520
20
296.651
30
0
40
1.700
0
CIRCLE
8
INTERIOR_PROFILES
10
1453.206
20
293.620
30
0
40
1.700
0
CIRCLE
8
INTERIOR_PROFILES
10
2031.834
20
293.620
30
0
40
1.700
0
CIRCLE
8
INTERIOR_PROFILES
10
1609.206
20
293.620
30
0
40
1.700
0
CIRCLE
8
INTERIOR_PROFILES
10
2009.206
20
293.620
30
0
40
1.700
0
CIRCLE
8
INTERIOR_PROFILES
10
1643.148
20
274.024
30
0
40
1.700
0
CIRCLE
8
INTERIOR_PROFILES
10
2187.834
20
254.428
30
0
40
1.700
0
CIRCLE
8
INTERIOR_PROFILES
10
2031.834
20
254.428
30
0
40
1.700
0
CIRCLE
8
INTERIOR_PROFILES
10
2043.148
20
274.024
30
0
40
1.700
0
CIRCLE
8
INTERIOR_PROFILES
10
1631.834
20
293.620
30
0
40
1.700
0
CIRCLE
8
INTERIOR_PROFILES
10
2165.206
20
254.428
30
0
40
1.700
0
CIRCLE
8
INTERIOR_PROFILES
10
2165.206
20
293.620
30
0
40
1.700
0
CIRCLE
8
INTERIOR_PROFILES
10
1464.520
20
296.651
30
0
40
1.700
0
CIRCLE
8
INTERIOR_PROFILES
10
2153.893
20
274.024
30
0
40
1.700
0
CIRCLE
8
INTERIOR_PROFILES
10
1475.834
20
254.428
30
0
40
1.700
0
CIRCLE
8
INTERIOR_PROFILES
10
2199.148
20
274.024
30
0
40
1.700
0
CIRCLE
8
INTERIOR_PROFILES
10
1464.520
20
274.024
30
0
40
1.700
0
TEXT
8
PART_LABELS
10
1769.020
20
146.000
30
0
40
32.250
1
BM2LI1-070000
72
1
73
2
11
1769.020
21
146.000
31
0
0
LWPOLYLINE
8
OUTER_PROFILES
90
44
70
1
10
2100.549
20
95.924
10
2106.044
20
90.429
10
2106.044
20
81.500
10
1431.520
20
81.500
10
1431.520
20
90.429
10
1437.015
20
95.924
42
0.414214
10
1437.015
20
97.338
10
1431.491
20
102.862
10
1422.520
20
102.862
10
1422.520
20
148.662
10
1431.491
20
148.662
10
1437.015
20
154.186
42
0.414214
10
1437.015
20
155.600
10
1431.520
20
161.095
10
1431.520
20
170.024
10
1436.520
20
170.024
10
1438.782
20
168.024
10
1438.782
20
177.300
42
-0.286860
10
1440.187
20
179.548
42
-0.063085
10
1440.782
20
179.750
42
0.816497
10
1440.782
20
199.346
42
-0.063085
10
1440.187
20
199.548
42
-0.286860
10
1438.782
20
201.795
10
1438.782
20
208.810
42
-0.414214
10
1440.782
20
210.810
10
2096.782
20
210.810
42
-0.414214
10
2098.782
20
208.810
10
2098.782
20
201.795
42
-0.286860
10
2097.377
20
199.548
42
-0.063085
10
2096.782
20
199.346
42
0.816497
10
2096.782
20
179.750
42
-0.063085
10
2097.377
20
179.548
42
-0.286860
10
2098.782
20
177.300
10
2098.782
20
168.024
10
2101.044
20
170.024
10
2106.044
20
170.024
10
2106.044
20
161.095
10
2100.549
20
155.600
42
0.414214
10
2100.549
20
154.186
10
2106.073
20
148.662
10
2115.044
20
148.662
10
2115.044
20
102.862
10
2106.073
20
102.862
10
2100.549
20
97.338
42
0.414214
0
CIRCLE
8
INTERIOR_PROFILES
10
1768.782
20
189.548
30
0
40
1.250
0
CIRCLE
8
INTERIOR_PROFILES
10
1429.520
20
135.762
30
0
40
1.700
0
CIRCLE
8
INTERIOR_PROFILES
10
1429.520
20
105.762
30
0
40
1.700
0
CIRCLE
8
INTERIOR_PROFILES
10
1768.782
20
145.762
30
0
40
5.000
0
CIRCLE
8
INTERIOR_PROFILES
10
1518.782
20
189.548
30
0
40
1.250
0
CIRCLE
8
INTERIOR_PROFILES
10
2018.782
20
189.548
30
0
40
1.250
0
CIRCLE
8
INTERIOR_PROFILES
10
2108.044
20
135.762
30
0
40
1.700
0
CIRCLE
8
INTERIOR_PROFILES
10
2108.044
20
105.762
30
0
40
1.700
0
TEXT
8
PART_LABELS
10
1783.550
20
598.400
30
0
40
32.250
1
BM2LI1-070000
72
1
73
2
11
1783.550
21
598.400
31
0
0
LWPOLYLINE
8
OUTER_PROFILES
90
44
70
1
10
2115.079
20
548.324
10
2120.574
20
542.829
10
2120.574
20
533.900
10
1446.050
20
533.900
10
1446.050
20
542.829
10
1451.545
20
548.324
42
0.414214
10
1451.545
20
549.738
10
1446.021
20
555.262
10
1437.050
20
555.262
10
1437.050
20
601.062
10
1446.021
20
601.062
10
1451.545
20
606.586
42
0.414214
10
1451.545
20
608.000
10
1446.050
20
613.495
10
1446.050
20
622.424
10
1451.050
20
622.424
10
1453.312
20
620.424
10
1453.312
20
629.700
42
-0.286860
10
1454.717
20
631.948
42
-0.063085
10
1455.312
20
632.150
42
0.816497
10
1455.312
20
651.746
42
-0.063085
10
1454.717
20
651.948
42
-0.286860
10
1453.312
20
654.195
10
1453.312
20
661.210
42
-0.414214
10
1455.312
20
663.210
10
2111.312
20
663.210
42
-0.414214
10
2113.312
20
661.210
10
2113.312
20
654.195
42
-0.286860
10
2111.907
20
651.948
42
-0.063085
10
2111.312
20
651.746
42
0.816497
10
2111.312
20
632.150
42
-0.063085
10
2111.907
20
631.948
42
-0.286860
10
2113.312
20
629.700
10
2113.312
20
620.424
10
2115.574
20
622.424
10
2120.574
20
622.424
10
2120.574
20
613.495
10
2115.079
20
608.000
42
0.414214
10
2115.079
20
606.586
10
2120.603
20
601.062
10
2129.574
20
601.062
10
2129.574
20
555.262
10
2120.603
20
555.262
10
2115.079
20
549.738
42
0.414214
0
CIRCLE
8
INTERIOR_PROFILES
10
1783.312
20
641.948
30
0
40
1.250
0
CIRCLE
8
INTERIOR_PROFILES
10
1444.050
20
588.162
30
0
40
1.700
0
CIRCLE
8
INTERIOR_PROFILES
10
1444.050
20
558.162
30
0
40
1.700
0
CIRCLE
8
INTERIOR_PROFILES
10
1783.312
20
598.162
30
0
40
5.000
0
CIRCLE
8
INTERIOR_PROFILES
10
1533.312
20
641.948
30
0
40
1.250
0
CIRCLE
8
INTERIOR_PROFILES
10
2033.312
20
641.948
30
0
40
1.250
0
CIRCLE
8
INTERIOR_PROFILES
10
2122.574
20
588.162
30
0
40
1.700
0
CIRCLE
8
INTERIOR_PROFILES
10
2122.574
20
558.162
30
0
40
1.700
0
TEXT
8
PART_LABELS
10
1845.550
20
477.900
30
0
40
27.000
1
TS1BHH-080000
72
1
73
2
11
1845.550
21
477.900
31
0
0
LWPOLYLINE
8
OUTER_PROFILES
90
4
70
1
10
2160.312
20
490.686
10
2233.312
20
490.686
10
2233.312
20
488.424
10
2160.312
20
488.424
0
CIRCLE
8
OUTER_PROFILES
10
1441.050
20
477.924
30
0
40
1.700
0
LWPOLYLINE
8
OUTER_PROFILES
90
4
70
1
10
1457.312
20
465.162
10
1457.312
20
467.424
10
1530.312
20
467.424
10
1530.312
20
465.162
0
CIRCLE
8
OUTER_PROFILES
10
2236.312
20
477.924
30
0
40
1.700
0
CIRCLE
8
OUTER_PROFILES
10
1454.312
20
477.924
30
0
40
1.700
0
CIRCLE
8
OUTER_PROFILES
10
2210.312
20
477.924
30
0
40
1.700
0
CIRCLE
8
OUTER_PROFILES
10
1480.312
20
477.924
30
0
40
1.700
0
CIRCLE
8
OUTER_PROFILES
10
2164.312
20
477.924
30
0
40
1.700
0
CIRCLE
8
OUTER_PROFILES
10
1526.312
20
477.924
30
0
40
1.700
0
CIRCLE
8
OUTER_PROFILES
10
1454.312
20
436.162
30
0
40
1.700
0
CIRCLE
8
OUTER_PROFILES
10
2236.312
20
461.162
30
0
40
1.700
0
CIRCLE
8
OUTER_PROFILES
10
1454.312
20
461.162
30
0
40
1.700
0
CIRCLE
8
OUTER_PROFILES
10
2236.312
20
436.162
30
0
40
1.700
0
LWPOLYLINE
8
OUTER_PROFILES
90
4
70
1
10
2160.312
20
467.424
10
2233.312
20
467.424
10
2233.312
20
465.162
10
2160.312
20
465.162
0
CIRCLE
8
OUTER_PROFILES
10
1454.312
20
519.686
30
0
40
1.700
0
CIRCLE
8
OUTER_PROFILES
10
2236.312
20
494.686
30
0
40
1.700
0
CIRCLE
8
OUTER_PROFILES
10
1454.312
20
494.686
30
0
40
1.700
0
CIRCLE
8
OUTER_PROFILES
10
2236.312
20
519.686
30
0
40
1.700
0
LWPOLYLINE
8
OUTER_PROFILES
90
4
70
1
10
1530.312
20
490.686
10
1530.312
20
488.424
10
1457.312
20
488.424
10
1457.312
20
490.686
0
CIRCLE
8
OUTER_PROFILES
10
2249.574
20
477.924
30
0
40
1.700
0
LWPOLYLINE
8
OUTER_PROFILES
90
23
70
1
10
2243.312
20
467.424
10
2253.574
20
467.424
10
2253.574
20
488.424
10
2243.312
20
488.424
10
2243.312
20
490.686
10
2243.312
20
526.948
10
2243.312
20
531.948
10
1447.312
20
531.948
10
1447.312
20
526.948
10
1447.312
20
524.686
10
1447.312
20
490.686
10
1447.312
20
488.424
10
1437.050
20
488.424
10
1437.050
20
467.424
10
1447.312
20
467.424
10
1447.312
20
465.162
10
1447.312
20
431.162
10
1447.312
20
428.900
10
1447.312
20
423.900
10
2243.312
20
423.900
10
2243.312
20
428.900
10
2243.312
20
431.162
10
2243.312
20
465.162
0
TEXT
8
PART_LABELS
10
2172.590
20
1221.480
30
0
40
27.000
1
TS1BHH-080000
72
1
73
2
11
2172.590
21
1221.480
31
0
0
LWPOLYLINE
8
OUTER_PROFILES
90
4
70
1
10
2487.352
20
1234.266
10
2560.352
20
1234.266
10
2560.352
20
1232.004
10
2487.352
20
1232.004
0
CIRCLE
8
OUTER_PROFILES
10
1768.090
20
1221.504
30
0
40
1.700
0
LWPOLYLINE
8
OUTER_PROFILES
90
4
70
1
10
1784.352
20
1208.742
10
1784.352
20
1211.004
10
1857.352
20
1211.004
10
1857.352
20
1208.742
0
CIRCLE
8
OUTER_PROFILES
10
2563.352
20
1221.504
30
0
40
1.700
0
CIRCLE
8
OUTER_PROFILES
10
1781.352
20
1221.504
30
0
40
1.700
0
CIRCLE
8
OUTER_PROFILES
10
2537.352
20
1221.504
30
0
40
1.700
0
CIRCLE
8
OUTER_PROFILES
10
1807.352
20
1221.504
30
0
40
1.700
0
CIRCLE
8
OUTER_PROFILES
10
2491.352
20
1221.504
30
0
40
1.700
0
CIRCLE
8
OUTER_PROFILES
10
1853.352
20
1221.504
30
0
40
1.700
0
CIRCLE
8
OUTER_PROFILES
10
1781.352
20
1179.742
30
0
40
1.700
0
CIRCLE
8
OUTER_PROFILES
10
2563.352
20
1204.742
30
0
40
1.700
0
CIRCLE
8
OUTER_PROFILES
10
1781.352
20
1204.742
30
0
40
1.700
0
CIRCLE
8
OUTER_PROFILES
10
2563.352
20
1179.742
30
0
40
1.700
0
LWPOLYLINE
8
OUTER_PROFILES
90
4
70
1
10
2487.352
20
1211.004
10
2560.352
20
1211.004
10
2560.352
20
1208.742
10
2487.352
20
1208.742
0
CIRCLE
8
OUTER_PROFILES
10
1781.352
20
1263.266
30
0
40
1.700
0
CIRCLE
8
OUTER_PROFILES
10
2563.352
20
1238.266
30
0
40
1.700
0
CIRCLE
8
OUTER_PROFILES
10
1781.352
20
1238.266
30
0
40
1.700
0
CIRCLE
8
OUTER_PROFILES
10
2563.352
20
1263.266
30
0
40
1.700
0
LWPOLYLINE
8
OUTER_PROFILES
90
4
70
1
10
1857.352
20
1234.266
10
1857.352
20
1232.004
10
1784.352
20
1232.004
10
1784.352
20
1234.266
0
CIRCLE
8
OUTER_PROFILES
10
2576.614
20
1221.504
30
0
40
1.700
0
LWPOLYLINE
8
OUTER_PROFILES
90
23
70
1
10
2570.352
20
1211.004
10
2580.614
20
1211.004
10
2580.614
20
1232.004
10
2570.352
20
1232.004
10
2570.352
20
1234.266
10
2570.352
20
1270.528
10
2570.352
20
1275.528
10
1774.352
20
1275.528
10
1774.352
20
1270.528
10
1774.352
20
1268.266
10
1774.352
20
1234.266
10
1774.352
20
1232.004
10
1764.090
20
1232.004
10
1764.090
20
1211.004
10
1774.352
20
1211.004
10
1774.352
20
1208.742
10
1774.352
20
1174.742
10
1774.352
20
1172.480
10
1774.352
20
1167.480
10
2570.352
20
1167.480
10
2570.352
20
1172.480
10
2570.352
20
1174.742
10
2570.352
20
1208.742
0
TEXT
8
PART_LABELS
10
2172.590
20
1111.480
30
0
40
27.000
1
TS1BHH-080000
72
1
73
2
11
2172.590
21
1111.480
31
0
0
LWPOLYLINE
8
OUTER_PROFILES
90
4
70
1
10
2487.352
20
1124.266
10
2560.352
20
1124.266
10
2560.352
20
1122.004
10
2487.352
20
1122.004
0
CIRCLE
8
OUTER_PROFILES
10
1768.090
20
1111.504
30
0
40
1.700
0
LWPOLYLINE
8
OUTER_PROFILES
90
4
70
1
10
1784.352
20
1098.742
10
1784.352
20
1101.004
10
1857.352
20
1101.004
10
1857.352
20
1098.742
0
CIRCLE
8
OUTER_PROFILES
10
2563.352
20
1111.504
30
0
40
1.700
0
CIRCLE
8
OUTER_PROFILES
10
1781.352
20
1111.504
30
0
40
1.700
0
CIRCLE
8
OUTER_PROFILES
10
2537.352
20
1111.504
30
0
40
1.700
0
CIRCLE
8
OUTER_PROFILES
10
1807.352
20
1111.504
30
0
40
1.700
0
CIRCLE
8
OUTER_PROFILES
10
2491.352
20
1111.504
30
0
40
1.700
0
CIRCLE
8
OUTER_PROFILES
10
1853.352
20
1111.504
30
0
40
1.700
0
CIRCLE
8
OUTER_PROFILES
10
1781.352
20
1069.742
30
0
40
1.700
0
CIRCLE
8
OUTER_PROFILES
10
2563.352
20
1094.742
30
0
40
1.700
0
CIRCLE
8
OUTER_PROFILES
10
1781.352
20
1094.742
30
0
40
1.700
0
CIRCLE
8
OUTER_PROFILES
10
2563.352
20
1069.742
30
0
40
1.700
0
LWPOLYLINE
8
OUTER_PROFILES
90
4
70
1
10
2487.352
20
1101.004
10
2560.352
20
1101.004
10
2560.352
20
1098.742
10
2487.352
20
1098.742
0
CIRCLE
8
OUTER_PROFILES
10
1781.352
20
1153.266
30
0
40
1.700
0
CIRCLE
8
OUTER_PROFILES
10
2563.352
20
1128.266
30
0
40
1.700
0
CIRCLE
8
OUTER_PROFILES
10
1781.352
20
1128.266
30
0
40
1.700
0
CIRCLE
8
OUTER_PROFILES
10
2563.352
20
1153.266
30
0
40
1.700
0
LWPOLYLINE
8
OUTER_PROFILES
90
4
70
1
10
1857.352
20
1124.266
10
1857.352
20
1122.004
10
1784.352
20
1122.004
10
1784.352
20
1124.266
0
CIRCLE
8
OUTER_PROFILES
10
2576.614
20
1111.504
30
0
40
1.700
0
LWPOLYLINE
8
OUTER_PROFILES
90
23
70
1
10
2570.352
20
1101.004
10
2580.614
20
1101.004
10
2580.614
20
1122.004
10
2570.352
20
1122.004
10
2570.352
20
1124.266
10
2570.352
20
1160.528
10
2570.352
20
1165.528
10
1774.352
20
1165.528
10
1774.352
20
1160.528
10
1774.352
20
1158.266
10
1774.352
20
1124.266
10
1774.352
20
1122.004
10
1764.090
20
1122.004
10
1764.090
20
1101.004
10
1774.352
20
1101.004
10
1774.352
20
1098.742
10
1774.352
20
1064.742
10
1774.352
20
1062.480
10
1774.352
20
1057.480
10
2570.352
20
1057.480
10
2570.352
20
1062.480
10
2570.352
20
1064.742
10
2570.352
20
1098.742
0
TEXT
8
PART_LABELS
10
2262.060
20
1471.000
30
0
40
27.000
1
TS1BHH-080000
72
1
73
2
11
2262.060
21
1471.000
31
0
0
LWPOLYLINE
8
OUTER_PROFILES
90
4
70
1
10
2576.822
20
1483.786
10
2649.822
20
1483.786
10
2649.822
20
1481.524
10
2576.822
20
1481.524
0
CIRCLE
8
OUTER_PROFILES
10
1857.560
20
1471.024
30
0
40
1.700
0
LWPOLYLINE
8
OUTER_PROFILES
90
4
70
1
10
1873.822
20
1458.262
10
1873.822
20
1460.524
10
1946.822
20
1460.524
10
1946.822
20
1458.262
0
CIRCLE
8
OUTER_PROFILES
10
2652.822
20
1471.024
30
0
40
1.700
0
CIRCLE
8
OUTER_PROFILES
10
1870.822
20
1471.024
30
0
40
1.700
0
CIRCLE
8
OUTER_PROFILES
10
2626.822
20
1471.024
30
0
40
1.700
0
CIRCLE
8
OUTER_PROFILES
10
1896.822
20
1471.024
30
0
40
1.700
0
CIRCLE
8
OUTER_PROFILES
10
2580.822
20
1471.024
30
0
40
1.700
0
CIRCLE
8
OUTER_PROFILES
10
1942.822
20
1471.024
30
0
40
1.700
0
CIRCLE
8
OUTER_PROFILES
10
1870.822
20
1429.262
30
0
40
1.700
0
CIRCLE
8
OUTER_PROFILES
10
2652.822
20
1454.262
30
0
40
1.700
0
CIRCLE
8
OUTER_PROFILES
10
1870.822
20
1454.262
30
0
40
1.700
0
CIRCLE
8
OUTER_PROFILES
10
2652.822
20
1429.262
30
0
40
1.700
0
LWPOLYLINE
8
OUTER_PROFILES
90
4
70
1
10
2576.822
20
1460.524
10
2649.822
20
1460.524
10
2649.822
20
1458.262
10
2576.822
20
1458.262
0
CIRCLE
8
OUTER_PROFILES
10
1870.822
20
1512.786
30
0
40
1.700
0
CIRCLE
8
OUTER_PROFILES
10
2652.822
20
1487.786
30
0
40
1.700
0
CIRCLE
8
OUTER_PROFILES
10
1870.822
20
1487.786
30
0
40
1.700
0
CIRCLE
8
OUTER_PROFILES
10
2652.822
20
1512.786
30
0
40
1.700
0
LWPOLYLINE
8
OUTER_PROFILES
90
4
70
1
10
1946.822
20
1483.786
10
1946.822
20
1481.524
10
1873.822
20
1481.524
10
1873.822
20
1483.786
0
CIRCLE
8
OUTER_PROFILES
10
2666.084
20
1471.024
30
0
40
1.700
0
LWPOLYLINE
8
OUTER_PROFILES
90
23
70
1
10
2659.822
20
1460.524
10
2670.084
20
1460.524
10
2670.084
20
1481.524
10
2659.822
20
1481.524
10
2659.822
20
1483.786
10
2659.822
20
1520.048
10
2659.822
20
1525.048
10
1863.822
20
1525.048
10
1863.822
20
1520.048
10
1863.822
20
1517.786
10
1863.822
20
1483.786
10
1863.822
20
1481.524
10
1853.560
20
1481.524
10
1853.560
20
1460.524
10
1863.822
20
1460.524
10
1863.822
20
1458.262
10
1863.822
20
1424.262
10
1863.822
20
1422.000
10
1863.822
20
1417.000
10
2659.822
20
1417.000
10
2659.822
20
1422.000
10
2659.822
20
1424.262
10
2659.822
20
1458.262
0
TEXT
8
PART_LABELS
10
2262.060
20
1361.000
30
0
40
27.000
1
TS1BHH-080000
72
1
73
2
11
2262.060
21
1361.000
31
0
0
LWPOLYLINE
8
OUTER_PROFILES
90
4
70
1
10
2576.822
20
1373.786
10
2649.822
20
1373.786
10
2649.822
20
1371.524
10
2576.822
20
1371.524
0
CIRCLE
8
OUTER_PROFILES
10
1857.560
20
1361.024
30
0
40
1.700
0
LWPOLYLINE
8
OUTER_PROFILES
90
4
70
1
10
1873.822
20
1348.262
10
1873.822
20
1350.524
10
1946.822
20
1350.524
10
1946.822
20
1348.262
0
CIRCLE
8
OUTER_PROFILES
10
2652.822
20
1361.024
30
0
40
1.700
0
CIRCLE
8
OUTER_PROFILES
10
1870.822
20
1361.024
30
0
40
1.700
0
CIRCLE
8
OUTER_PROFILES
10
2626.822
20
1361.024
30
0
40
1.700
0
CIRCLE
8
OUTER_PROFILES
10
1896.822
20
1361.024
30
0
40
1.700
0
CIRCLE
8
OUTER_PROFILES
10
2580.822
20
1361.024
30
0
40
1.700
0
CIRCLE
8
OUTER_PROFILES
10
1942.822
20
1361.024
30
0
40
1.700
0
CIRCLE
8
OUTER_PROFILES
10
1870.822
20
1319.262
30
0
40
1.700
0
CIRCLE
8
OUTER_PROFILES
10
2652.822
20
1344.262
30
0
40
1.700
0
CIRCLE
8
OUTER_PROFILES
10
1870.822
20
1344.262
30
0
40
1.700
0
CIRCLE
8
OUTER_PROFILES
10
2652.822
20
1319.262
30
0
40
1.700
0
LWPOLYLINE
8
OUTER_PROFILES
90
4
70
1
10
2576.822
20
1350.524
10
2649.822
20
1350.524
10
2649.822
20
1348.262
10
2576.822
20
1348.262
0
CIRCLE
8
OUTER_PROFILES
10
1870.822
20
1402.786
30
0
40
1.700
0
CIRCLE
8
OUTER_PROFILES
10
2652.822
20
1377.786
30
0
40
1.700
0
CIRCLE
8
OUTER_PROFILES
10
1870.822
20
1377.786
30
0
40
1.700
0
CIRCLE
8
OUTER_PROFILES
10
2652.822
20
1402.786
30
0
40
1.700
0
LWPOLYLINE
8
OUTER_PROFILES
90
4
70
1
10
1946.822
20
1373.786
10
1946.822
20
1371.524
10
1873.822
20
1371.524
10
1873.822
20
1373.786
0
CIRCLE
8
OUTER_PROFILES
10
2666.084
20
1361.024
30
0
40
1.700
0
LWPOLYLINE
8
OUTER_PROFILES
90
23
70
1
10
2659.822
20
1350.524
10
2670.084
20
1350.524
10
2670.084
20
1371.524
10
2659.822
20
1371.524
10
2659.822
20
1373.786
10
2659.822
20
1410.048
10
2659.822
20
1415.048
10
1863.822
20
1415.048
10
1863.822
20
1410.048
10
1863.822
20
1407.786
10
1863.822
20
1373.786
10
1863.822
20
1371.524
10
1853.560
20
1371.524
10
1853.560
20
1350.524
10
1863.822
20
1350.524
10
1863.822
20
1348.262
10
1863.822
20
1314.262
10
1863.822
20
1312.000
10
1863.822
20
1307.000
10
2659.822
20
1307.000
10
2659.822
20
1312.000
10
2659.822
20
1314.262
10
2659.822
20
1348.262
0
TEXT
8
PART_LABELS
10
2205.040
20
993.980
30
0
40
30.750
1
FN1BLA-070000
72
1
73
2
11
2205.040
21
993.980
31
0
0
LINE
8
OUTER_PROFILES
10
1869.040
20
1023.266
30
0
11
1869.040
21
964.742
31
0
0
ARC
8
OUTER_PROFILES
10
1855.878
20
960.639
30
0
40
12.093
50
285.0973
51
333.9506
0
ARC
8
OUTER_PROFILES
10
1849.251
20
964.583
30
0
40
19.790
50
332.1175
51
0.4598
0
ARC
8
OUTER_PROFILES
10
1859.584
20
946.480
30
0
40
2.544
50
102.6267
51
180.0000
0
LINE
8
OUTER_PROFILES
10
1857.040
20
946.480
30
0
11
1857.040
21
934.480
31
0
0
ARC
8
OUTER_PROFILES
10
1859.040
20
934.480
30
0
40
2.000
50
180.0000
51
270.0000
0
LINE
8
OUTER_PROFILES
10
1859.040
20
932.480
30
0
11
2551.040
21
932.480
31
0
0
ARC
8
OUTER_PROFILES
10
2551.040
20
934.480
30
0
40
2.000
50
270.0000
51
0.0000
0
LINE
8
OUTER_PROFILES
10
2553.040
20
934.480
30
0
11
2553.040
21
946.480
31
0
0
ARC
8
OUTER_PROFILES
10
2550.495
20
946.480
30
0
40
2.545
50
0.0000
51
77.3733
0
ARC
8
OUTER_PROFILES
10
2559.335
20
964.298
30
0
40
18.301
50
178.6095
51
222.2344
0
ARC
8
OUTER_PROFILES
10
2553.579
20
959.437
30
0
40
10.775
50
223.6733
51
256.4369
0
LINE
8
OUTER_PROFILES
10
2541.040
20
964.742
30
0
11
2541.040
21
1023.266
31
0
0
ARC
8
OUTER_PROFILES
10
2554.202
20
1027.369
30
0
40
12.093
50
105.0973
51
153.9506
0
ARC
8
OUTER_PROFILES
10
2560.829
20
1023.425
30
0
40
19.790
50
152.1175
51
180.4598
0
ARC
8
OUTER_PROFILES
10
2550.496
20
1041.528
30
0
40
2.545
50
282.6267
51
0.0000
0
LINE
8
OUTER_PROFILES
10
2553.040
20
1041.528
30
0
11
2553.040
21
1053.528
31
0
0
ARC
8
OUTER_PROFILES
10
2551.040
20
1053.528
30
0
40
2.000
50
0.0000
51
90.0000
0
LINE
8
OUTER_PROFILES
10
2551.040
20
1055.528
30
0
11
2358.040
21
1055.528
31
0
0
ARC
8
OUTER_PROFILES
10
2358.040
20
1053.528
30
0
40
2.000
50
90.0000
51
180.0000
0
LINE
8
OUTER_PROFILES
10
2356.040
20
1053.528
30
0
11
2356.040
21
1020.504
31
0
0
LINE
8
OUTER_PROFILES
10
2356.040
20
1020.504
30
0
11
2355.040
21
1020.504
31
0
0
LINE
8
OUTER_PROFILES
10
2355.040
20
1020.504
30
0
11
2355.040
21
1053.266
31
0
0
ARC
8
OUTER_PROFILES
10
2353.040
20
1053.266
30
0
40
2.000
50
0.0000
51
90.0000
0
LINE
8
OUTER_PROFILES
10
2353.040
20
1055.266
30
0
11
2057.040
21
1055.266
31
0
0
ARC
8
OUTER_PROFILES
10
2057.040
20
1053.266
30
0
40
2.000
50
90.0000
51
180.0000
0
LINE
8
OUTER_PROFILES
10
2055.040
20
1053.266
30
0
11
2055.040
21
1020.504
31
0
0
LINE
8
OUTER_PROFILES
10
2055.040
20
1020.504
30
0
11
2054.040
21
1020.504
31
0
0
LINE
8
OUTER_PROFILES
10
2054.040
20
1020.504
30
0
11
2054.040
21
1053.528
31
0
0
ARC
8
OUTER_PROFILES
10
2052.040
20
1053.528
30
0
40
2.000
50
0.0000
51
90.0000
0
LINE
8
OUTER_PROFILES
10
2052.040
20
1055.528
30
0
11
1859.040
21
1055.528
31
0
0
ARC
8
OUTER_PROFILES
10
1859.040
20
1053.528
30
0
40
2.000
50
90.0000
51
180.0000
0
LINE
8
OUTER_PROFILES
10
1857.040
20
1053.528
30
0
11
1857.040
21
1041.528
31
0
0
ARC
8
OUTER_PROFILES
10
1859.585
20
1041.528
30
0
40
2.544
50
180.0000
51
257.3733
0
ARC
8
OUTER_PROFILES
10
1850.745
20
1023.710
30
0
40
18.301
50
358.6095
51
42.2344
0
ARC
8
OUTER_PROFILES
10
1856.501
20
1028.571
30
0
40
10.775
50
43.6733
51
76.4369
0
CIRCLE
8
INTERIOR_PROFILES
10
1864.040
20
935.480
30
0
40
1.700
0
CIRCLE
8
INTERIOR_PROFILES
10
2205.040
20
958.742
30
0
40
1.700
0
CIRCLE
8
INTERIOR_PROFILES
10
1930.040
20
958.742
30
0
40
1.700
0
CIRCLE
8
INTERIOR_PROFILES
10
2546.040
20
935.480
30
0
40
1.700
0
CIRCLE
8
INTERIOR_PROFILES
10
2480.040
20
958.742
30
0
40
1.700
0
CIRCLE
8
INTERIOR_PROFILES
10
1864.040
20
1052.528
30
0
40
1.700
0
CIRCLE
8
INTERIOR_PROFILES
10
1930.040
20
1029.266
30
0
40
1.700
0
CIRCLE
8
INTERIOR_PROFILES
10
2546.040
20
1052.528
30
0
40
1.700
0
CIRCLE
8
INTERIOR_PROFILES
10
2480.040
20
1029.266
30
0
40
1.700
0
CIRCLE
8
INTERIOR_PROFILES
10
2488.413
20
994.004
30
0
40
1.700
0
CIRCLE
8
INTERIOR_PROFILES
10
2499.726
20
974.408
30
0
40
1.700
0
CIRCLE
8
INTERIOR_PROFILES
10
2522.354
20
974.408
30
0
40
1.700
0
CIRCLE
8
INTERIOR_PROFILES
10
2511.040
20
1016.631
30
0
40
1.700
0
CIRCLE
8
INTERIOR_PROFILES
10
2533.668
20
994.004
30
0
40
1.700
0
CIRCLE
8
INTERIOR_PROFILES
10
1887.726
20
974.408
30
0
40
1.700
0
CIRCLE
8
INTERIOR_PROFILES
10
1899.040
20
1016.631
30
0
40
1.700
0
CIRCLE
8
INTERIOR_PROFILES
10
2511.040
20
971.376
30
0
40
1.700
0
CIRCLE
8
INTERIOR_PROFILES
10
1910.354
20
1013.600
30
0
40
1.700
0
CIRCLE
8
INTERIOR_PROFILES
10
1887.726
20
1013.600
30
0
40
1.700
0
CIRCLE
8
INTERIOR_PROFILES
10
1899.040
20
994.004
30
0
40
1.700
0
CIRCLE
8
INTERIOR_PROFILES
10
2522.354
20
1013.600
30
0
40
1.700
0
CIRCLE
8
INTERIOR_PROFILES
10
2499.726
20
1013.600
30
0
40
1.700
0
CIRCLE
8
INTERIOR_PROFILES
10
1899.040
20
971.376
30
0
40
1.700
0
CIRCLE
8
INTERIOR_PROFILES
10
1921.668
20
994.004
30
0
40
1.700
0
CIRCLE
8
INTERIOR_PROFILES
10
1910.354
20
974.408
30
0
40
1.700
0
CIRCLE
8
INTERIOR_PROFILES
10
1876.413
20
994.004
30
0
40
1.700
0
TEXT
8
PART_LABELS
10
2174.065
20
867.085
30
0
40
31.698
1
DSB0BA-070050
72
1
73
2
11
2174.065
21
867.085
31
0
0
LWPOLYLINE
8
OUTER_PROFILES
90
32
70
1
10
1885.726
20
915.981
42
0.414214
10
1887.140
20
915.981
10
1891.635
20
920.476
10
2456.493
20
920.476
10
2460.988
20
915.981
42
0.414214
10
2462.402
20
915.981
10
2466.897
20
920.476
10
2466.897
20
930.476
10
2476.755
20
930.476
10
2476.755
20
916.476
10
2474.755
20
914.214
10
2462.331
20
901.790
42
0.414214
10
2462.331
20
900.376
10
2474.826
20
887.881
10
2477.088
20
885.881
10
2491.088
20
885.881
10
2491.088
20
819.952
10
2460.564
20
819.952
10
2460.564
20
803.690
10
1887.564
20
803.690
10
1887.564
20
819.952
10
1857.040
20
819.952
10
1857.040
20
885.881
10
1871.040
20
885.881
10
1873.302
20
887.881
10
1885.797
20
900.376
42
0.414214
10
1885.797
20
901.790
10
1873.373
20
914.214
10
1871.373
20
916.476
10
1871.373
20
930.476
10
1881.231
20
930.476
10
1881.231
20
920.476
0
CIRCLE
8
INTERIOR_PROFILES
10
1864.040
20
849.452
30
0
40
1.700
0
CIRCLE
8
INTERIOR_PROFILES
10
2174.064
20
825.952
30
0
40
1.700
0
CIRCLE
8
INTERIOR_PROFILES
10
2484.088
20
849.452
30
0
40
1.700
0
CIRCLE
8
INTERIOR_PROFILES
10
2424.064
20
825.952
30
0
40
1.700
0
CIRCLE
8
INTERIOR_PROFILES
10
1924.064
20
825.952
30
0
40
1.700
0
CIRCLE
8
INTERIOR_PROFILES
10
1864.040
20
881.452
30
0
40
1.700
0
CIRCLE
8
INTERIOR_PROFILES
10
2484.088
20
881.452
30
0
40
1.700
0
TEXT
8
PART_LABELS
10
2434.545
20
147.105
30
0
40
31.698
1
DSB0BA-070050
72
1
73
2
11
2434.545
21
147.105
31
0
0
LWPOLYLINE
8
OUTER_PROFILES
90
32
70
1
10
2146.206
20
196.001
42
0.414214
10
2147.620
20
196.001
10
2152.115
20
200.496
10
2716.973
20
200.496
10
2721.468
20
196.001
42
0.414214
10
2722.882
20
196.001
10
2727.377
20
200.496
10
2727.377
20
210.496
10
2737.235
20
210.496
10
2737.235
20
196.496
10
2735.235
20
194.234
10
2722.811
20
181.810
42
0.414214
10
2722.811
20
180.396
10
2735.306
20
167.901
10
2737.568
20
165.901
10
2751.568
20
165.901
10
2751.568
20
99.972
10
2721.044
20
99.972
10
2721.044
20
83.710
10
2148.044
20
83.710
10
2148.044
20
99.972
10
2117.520
20
99.972
10
2117.520
20
165.901
10
2131.520
20
165.901
10
2133.782
20
167.901
10
2146.277
20
180.396
42
0.414214
10
2146.277
20
181.810
10
2133.853
20
194.234
10
2131.853
20
196.496
10
2131.853
20
210.496
10
2141.711
20
210.496
10
2141.711
20
200.496
0
CIRCLE
8
INTERIOR_PROFILES
10
2124.520
20
129.472
30
0
40
1.700
0
CIRCLE
8
INTERIOR_PROFILES
10
2434.544
20
105.972
30
0
40
1.700
0
CIRCLE
8
INTERIOR_PROFILES
10
2744.568
20
129.472
30
0
40
1.700
0
CIRCLE
8
INTERIOR_PROFILES
10
2684.544
20
105.972
30
0
40
1.700
0
CIRCLE
8
INTERIOR_PROFILES
10
2184.544
20
105.972
30
0
40
1.700
0
CIRCLE
8
INTERIOR_PROFILES
10
2124.520
20
161.472
30
0
40
1.700
0
CIRCLE
8
INTERIOR_PROFILES
10
2744.568
20
161.472
30
0
40
1.700
0
TEXT
8
PART_LABELS
10
2515.490
20
752.190
30
0
40
24.750
1
BM1LI0-080000
72
1
73
2
11
2515.490
21
752.190
31
0
0
LWPOLYLINE
8
OUTER_PROFILES
90
22
70
1
10
2134.828
20
746.719
10
2147.323
20
759.214
10
2149.323
20
761.476
10
2149.323
20
802.000
10
2881.181
20
802.000
10
2881.181
20
761.476
10
2883.181
20
759.214
10
2895.676
20
746.719
42
0.414214
10
2897.090
20
746.719
10
2909.514
20
759.143
10
2911.514
20
759.143
10
2911.514
20
702.761
10
2897.090
20
717.185
42
0.414214
10
2895.676
20
717.185
10
2881.181
20
702.690
10
2149.323
20
702.690
10
2134.828
20
717.185
42
0.414214
10
2133.414
20
717.185
10
2118.990
20
702.761
10
2118.990
20
759.143
10
2120.990
20
759.143
10
2133.414
20
746.719
42
0.414214
0
CIRCLE
8
INTERIOR_PROFILES
10
2765.252
20
780.738
30
0
40
1.700
0
CIRCLE
8
INTERIOR_PROFILES
10
2265.252
20
754.214
30
0
40
5.000
0
CIRCLE
8
INTERIOR_PROFILES
10
2365.252
20
780.738
30
0
40
1.700
0
CIRCLE
8
INTERIOR_PROFILES
10
2665.252
20
780.738
30
0
40
1.700
0
CIRCLE
8
INTERIOR_PROFILES
10
2215.252
20
754.214
30
0
40
5.000
0
CIRCLE
8
INTERIOR_PROFILES
10
2315.252
20
754.214
30
0
40
5.000
0
CIRCLE
8
INTERIOR_PROFILES
10
2565.252
20
780.738
30
0
40
1.700
0
CIRCLE
8
INTERIOR_PROFILES
10
2465.252
20
780.738
30
0
40
1.700
0
CIRCLE
8
INTERIOR_PROFILES
10
2265.252
20
780.738
30
0
40
1.700
0
CIRCLE
8
INTERIOR_PROFILES
10
2904.514
20
726.952
30
0
40
1.700
0
CIRCLE
8
INTERIOR_PROFILES
10
2865.252
20
780.738
30
0
40
1.700
0
CIRCLE
8
INTERIOR_PROFILES
10
2365.252
20
754.214
30
0
40
5.000
0
CIRCLE
8
INTERIOR_PROFILES
10
2415.252
20
754.214
30
0
40
5.000
0
CIRCLE
8
INTERIOR_PROFILES
10
2515.252
20
754.214
30
0
40
5.000
0
CIRCLE
8
INTERIOR_PROFILES
10
2465.252
20
754.214
30
0
40
5.000
0
CIRCLE
8
INTERIOR_PROFILES
10
2165.252
20
780.738
30
0
40
1.700
0
CIRCLE
8
INTERIOR_PROFILES
10
2165.252
20
754.214
30
0
40
5.000
0
CIRCLE
8
INTERIOR_PROFILES
10
2665.252
20
754.214
30
0
40
5.000
0
CIRCLE
8
INTERIOR_PROFILES
10
2865.252
20
754.214
30
0
40
5.000
0
CIRCLE
8
INTERIOR_PROFILES
10
2765.252
20
709.690
30
0
40
5.000
0
CIRCLE
8
INTERIOR_PROFILES
10
2315.252
20
709.690
30
0
40
1.700
0
CIRCLE
8
INTERIOR_PROFILES
10
2615.252
20
754.214
30
0
40
5.000
0
CIRCLE
8
INTERIOR_PROFILES
10
2615.252
20
709.690
30
0
40
1.700
0
CIRCLE
8
INTERIOR_PROFILES
10
2765.252
20
754.214
30
0
40
5.000
0
CIRCLE
8
INTERIOR_PROFILES
10
2715.252
20
709.690
30
0
40
1.700
0
CIRCLE
8
INTERIOR_PROFILES
10
2665.252
20
709.690
30
0
40
5.000
0
CIRCLE
8
INTERIOR_PROFILES
10
2515.252
20
736.952
30
0
40
5.000
0
CIRCLE
8
INTERIOR_PROFILES
10
2215.252
20
709.690
30
0
40
1.700
0
CIRCLE
8
INTERIOR_PROFILES
10
2815.252
20
754.214
30
0
40
5.000
0
CIRCLE
8
INTERIOR_PROFILES
10
2565.252
20
754.214
30
0
40
5.000
0
CIRCLE
8
INTERIOR_PROFILES
10
2865.252
20
709.690
30
0
40
5.000
0
CIRCLE
8
INTERIOR_PROFILES
10
2165.252
20
709.690
30
0
40
5.000
0
CIRCLE
8
INTERIOR_PROFILES
10
2565.252
20
709.690
30
0
40
5.000
0
CIRCLE
8
INTERIOR_PROFILES
10
2715.252
20
754.214
30
0
40
5.000
0
CIRCLE
8
INTERIOR_PROFILES
10
2365.252
20
709.690
30
0
40
5.000
0
CIRCLE
8
INTERIOR_PROFILES
10
2465.252
20
709.690
30
0
40
5.000
0
CIRCLE
8
INTERIOR_PROFILES
10
2415.252
20
709.690
30
0
40
1.700
0
CIRCLE
8
INTERIOR_PROFILES
10
2265.252
20
709.690
30
0
40
5.000
0
CIRCLE
8
INTERIOR_PROFILES
10
2815.252
20
709.690
30
0
40
1.700
0
CIRCLE
8
INTERIOR_PROFILES
10
2125.990
20
726.952
30
0
40
1.700
0
CIRCLE
8
INTERIOR_PROFILES
10
2515.252
20
709.690
30
0
40
1.700
0
TEXT
8
PART_LABELS
10
2430.050
20
639.190
30
0
40
30.750
1
FN2BNX-060000
72
1
73
2
11
2430.050
21
639.190
31
0
0
ARC
8
OUTER_PROFILES
10
2130.888
20
605.849
30
0
40
12.093
50
285.0973
51
333.9506
0
ARC
8
OUTER_PROFILES
10
2124.261
20
609.793
30
0
40
19.790
50
332.1175
51
0.4598
0
ARC
8
OUTER_PROFILES
10
2134.595
20
591.690
30
0
40
2.545
50
102.6267
51
180.0000
0
LINE
8
OUTER_PROFILES
10
2132.050
20
591.690
30
0
11
2132.050
21
579.690
31
0
0
ARC
8
OUTER_PROFILES
10
2134.050
20
579.690
30
0
40
2.000
50
180.0000
51
270.0000
0
LINE
8
OUTER_PROFILES
10
2134.050
20
577.690
30
0
11
2726.050
21
577.690
31
0
0
ARC
8
OUTER_PROFILES
10
2726.050
20
579.690
30
0
40
2.000
50
270.0000
51
0.0000
0
LINE
8
OUTER_PROFILES
10
2728.050
20
579.690
30
0
11
2728.050
21
591.690
31
0
0
ARC
8
OUTER_PROFILES
10
2725.506
20
591.690
30
0
40
2.545
50
0.0000
51
77.3733
0
ARC
8
OUTER_PROFILES
10
2734.345
20
609.508
30
0
40
18.301
50
178.6095
51
222.2344
0
ARC
8
OUTER_PROFILES
10
2728.589
20
604.647
30
0
40
10.775
50
223.6733
51
256.4369
0
LINE
8
OUTER_PROFILES
10
2716.050
20
609.952
30
0
11
2716.050
21
668.476
31
0
0
ARC
8
OUTER_PROFILES
10
2729.212
20
672.579
30
0
40
12.093
50
105.0973
51
153.9506
0
ARC
8
OUTER_PROFILES
10
2735.839
20
668.635
30
0
40
19.790
50
152.1175
51
180.4598
0
ARC
8
OUTER_PROFILES
10
2725.506
20
686.738
30
0
40
2.544
50
282.6267
51
0.0000
0
LINE
8
OUTER_PROFILES
10
2728.050
20
686.738
30
0
11
2728.050
21
698.738
31
0
0
ARC
8
OUTER_PROFILES
10
2726.050
20
698.738
30
0
40
2.000
50
0.0000
51
90.0000
0
LINE
8
OUTER_PROFILES
10
2726.050
20
700.738
30
0
11
2134.050
21
700.738
31
0
0
ARC
8
OUTER_PROFILES
10
2134.050
20
698.738
30
0
40
2.000
50
90.0000
51
180.0000
0
LINE
8
OUTER_PROFILES
10
2132.050
20
698.738
30
0
11
2132.050
21
686.738
31
0
0
ARC
8
OUTER_PROFILES
10
2134.595
20
686.738
30
0
40
2.544
50
180.0000
51
257.3733
0
ARC
8
OUTER_PROFILES
10
2125.755
20
668.920
30
0
40
18.301
50
358.6095
51
42.2344
0
ARC
8
OUTER_PROFILES
10
2131.511
20
673.781
30
0
40
10.775
50
43.6733
51
76.4369
0
LINE
8
OUTER_PROFILES
10
2144.050
20
668.476
30
0
11
2144.050
21
609.952
31
0
0
CIRCLE
8
INTERIOR_PROFILES
10
2211.050
20
588.690
30
0
40
1.700
0
CIRCLE
8
INTERIOR_PROFILES
10
2680.050
20
588.690
30
0
40
1.700
0
CIRCLE
8
INTERIOR_PROFILES
10
2330.050
20
588.690
30
0
40
1.700
0
CIRCLE
8
INTERIOR_PROFILES
10
2280.050
20
588.690
30
0
40
1.700
0
CIRCLE
8
INTERIOR_PROFILES
10
2721.050
20
588.690
30
0
40
1.700
0
CIRCLE
8
INTERIOR_PROFILES
10
2695.050
20
588.690
30
0
40
1.700
0
CIRCLE
8
INTERIOR_PROFILES
10
2165.050
20
588.690
30
0
40
1.700
0
CIRCLE
8
INTERIOR_PROFILES
10
2649.050
20
588.690
30
0
40
1.700
0
CIRCLE
8
INTERIOR_PROFILES
10
2230.050
20
588.690
30
0
40
1.700
0
CIRCLE
8
INTERIOR_PROFILES
10
2380.050
20
588.690
30
0
40
1.700
0
CIRCLE
8
INTERIOR_PROFILES
10
2480.050
20
588.690
30
0
40
1.700
0
CIRCLE
8
INTERIOR_PROFILES
10
2721.050
20
697.738
30
0
40
1.700
0
CIRCLE
8
INTERIOR_PROFILES
10
2630.050
20
588.690
30
0
40
1.700
0
CIRCLE
8
INTERIOR_PROFILES
10
2580.050
20
588.690
30
0
40
1.700
0
CIRCLE
8
INTERIOR_PROFILES
10
2139.050
20
697.738
30
0
40
1.700
0
CIRCLE
8
INTERIOR_PROFILES
10
2139.050
20
580.690
30
0
40
1.700
0
CIRCLE
8
INTERIOR_PROFILES
10
2721.050
20
580.690
30
0
40
1.700
0
CIRCLE
8
INTERIOR_PROFILES
10
2530.050
20
588.690
30
0
40
1.700
0
CIRCLE
8
INTERIOR_PROFILES
10
2430.050
20
588.690
30
0
40
1.700
0
CIRCLE
8
INTERIOR_PROFILES
10
2139.050
20
588.690
30
0
40
1.700
0
CIRCLE
8
INTERIOR_PROFILES
10
2185.364
20
658.810
30
0
40
1.700
0
CIRCLE
8
INTERIOR_PROFILES
10
2174.050
20
616.586
30
0
40
1.700
0
CIRCLE
8
INTERIOR_PROFILES
10
2686.050
20
616.586
30
0
40
1.700
0
CIRCLE
8
INTERIOR_PROFILES
10
2697.364
20
619.618
30
0
40
1.700
0
CIRCLE
8
INTERIOR_PROFILES
10
2686.050
20
661.841
30
0
40
1.700
0
CIRCLE
8
INTERIOR_PROFILES
10
2452.678
20
639.214
30
0
40
1.700
0
CIRCLE
8
INTERIOR_PROFILES
10
2663.423
20
639.214
30
0
40
1.700
0
CIRCLE
8
INTERIOR_PROFILES
10
2430.050
20
661.841
30
0
40
1.700
0
CIRCLE
8
INTERIOR_PROFILES
10
2162.736
20
658.810
30
0
40
1.700
0
CIRCLE
8
INTERIOR_PROFILES
10
2174.050
20
639.214
30
0
40
1.700
0
CIRCLE
8
INTERIOR_PROFILES
10
2674.736
20
658.810
30
0
40
1.700
0
CIRCLE
8
INTERIOR_PROFILES
10
2697.364
20
658.810
30
0
40
1.700
0
CIRCLE
8
INTERIOR_PROFILES
10
2430.050
20
674.476
30
0
40
1.700
0
CIRCLE
8
INTERIOR_PROFILES
10
2430.050
20
603.952
30
0
40
1.700
0
CIRCLE
8
INTERIOR_PROFILES
10
2655.050
20
674.476
30
0
40
1.700
0
CIRCLE
8
INTERIOR_PROFILES
10
2708.678
20
639.214
30
0
40
1.700
0
CIRCLE
8
INTERIOR_PROFILES
10
2185.364
20
619.618
30
0
40
1.700
0
CIRCLE
8
INTERIOR_PROFILES
10
2674.736
20
619.618
30
0
40
1.700
0
CIRCLE
8
INTERIOR_PROFILES
10
2205.050
20
603.952
30
0
40
1.700
0
CIRCLE
8
INTERIOR_PROFILES
10
2205.050
20
674.476
30
0
40
1.700
0
CIRCLE
8
INTERIOR_PROFILES
10
2196.678
20
639.214
30
0
40
1.700
0
CIRCLE
8
INTERIOR_PROFILES
10
2174.050
20
661.841
30
0
40
1.700
0
CIRCLE
8
INTERIOR_PROFILES
10
2655.050
20
603.952
30
0
40
1.700
0
CIRCLE
8
INTERIOR_PROFILES
10
2151.423
20
639.214
30
0
40
1.700
0
CIRCLE
8
INTERIOR_PROFILES
10
2162.736
20
619.618
30
0
40
1.700
0
CIRCLE
8
INTERIOR_PROFILES
10
2418.736
20
619.618
30
0
40
1.700
0
CIRCLE
8
INTERIOR_PROFILES
10
2418.736
20
658.810
30
0
40
1.700
0
CIRCLE
8
INTERIOR_PROFILES
10
2441.364
20
658.810
30
0
40
1.700
0
CIRCLE
8
INTERIOR_PROFILES
10
2407.423
20
639.214
30
0
40
1.700
0
CIRCLE
8
INTERIOR_PROFILES
10
2430.050
20
616.586
30
0
40
1.700
0
CIRCLE
8
INTERIOR_PROFILES
10
2441.364
20
619.618
30
0
40
1.700
0
TEXT
8
PART_LABELS
10
2518.520
20
360.400
30
0
40
30.750
1
FN1BLA-060000
72
1
73
2
11
2518.520
21
360.400
31
0
0
ARC
8
OUTER_PROFILES
10
2817.682
20
393.789
30
0
40
12.093
50
105.0973
51
153.9506
0
ARC
8
OUTER_PROFILES
10
2824.309
20
389.845
30
0
40
19.790
50
152.1175
51
180.4598
0
ARC
8
OUTER_PROFILES
10
2813.976
20
407.948
30
0
40
2.544
50
282.6267
51
0.0000
0
LINE
8
OUTER_PROFILES
10
2816.520
20
407.948
30
0
11
2816.520
21
419.948
31
0
0
ARC
8
OUTER_PROFILES
10
2814.520
20
419.948
30
0
40
2.000
50
0.0000
51
90.0000
0
LINE
8
OUTER_PROFILES
10
2814.520
20
421.948
30
0
11
2671.520
21
421.948
31
0
0
ARC
8
OUTER_PROFILES
10
2671.520
20
419.948
30
0
40
2.000
50
90.0000
51
180.0000
0
LINE
8
OUTER_PROFILES
10
2669.520
20
419.948
30
0
11
2669.520
21
386.924
31
0
0
LINE
8
OUTER_PROFILES
10
2669.520
20
386.924
30
0
11
2668.520
21
386.924
31
0
0
LINE
8
OUTER_PROFILES
10
2668.520
20
386.924
30
0
11
2668.520
21
419.686
31
0
0
ARC
8
OUTER_PROFILES
10
2666.520
20
419.686
30
0
40
2.000
50
0.0000
51
90.0000
0
LINE
8
OUTER_PROFILES
10
2666.520
20
421.686
30
0
11
2370.520
21
421.686
31
0
0
ARC
8
OUTER_PROFILES
10
2370.520
20
419.686
30
0
40
2.000
50
90.0000
51
180.0000
0
LINE
8
OUTER_PROFILES
10
2368.520
20
419.686
30
0
11
2368.520
21
386.924
31
0
0
LINE
8
OUTER_PROFILES
10
2368.520
20
386.924
30
0
11
2367.520
21
386.924
31
0
0
LINE
8
OUTER_PROFILES
10
2367.520
20
386.924
30
0
11
2367.520
21
419.948
31
0
0
ARC
8
OUTER_PROFILES
10
2365.520
20
419.948
30
0
40
2.000
50
0.0000
51
90.0000
0
LINE
8
OUTER_PROFILES
10
2365.520
20
421.948
30
0
11
2222.520
21
421.948
31
0
0
ARC
8
OUTER_PROFILES
10
2222.520
20
419.948
30
0
40
2.000
50
90.0000
51
180.0000
0
LINE
8
OUTER_PROFILES
10
2220.520
20
419.948
30
0
11
2220.520
21
407.948
31
0
0
ARC
8
OUTER_PROFILES
10
2223.065
20
407.948
30
0
40
2.545
50
180.0000
51
257.3733
0
ARC
8
OUTER_PROFILES
10
2214.225
20
390.130
30
0
40
18.301
50
358.6095
51
42.2344
0
ARC
8
OUTER_PROFILES
10
2219.981
20
394.991
30
0
40
10.775
50
43.6733
51
76.4369
0
LINE
8
OUTER_PROFILES
10
2232.520
20
389.686
30
0
11
2232.520
21
331.162
31
0
0
ARC
8
OUTER_PROFILES
10
2219.358
20
327.059
30
0
40
12.093
50
285.0973
51
333.9506
0
ARC
8
OUTER_PROFILES
10
2212.731
20
331.003
30
0
40
19.790
50
332.1175
51
0.4598
0
ARC
8
OUTER_PROFILES
10
2223.064
20
312.900
30
0
40
2.545
50
102.6267
51
180.0000
0
LINE
8
OUTER_PROFILES
10
2220.520
20
312.900
30
0
11
2220.520
21
300.900
31
0
0
ARC
8
OUTER_PROFILES
10
2222.520
20
300.900
30
0
40
2.000
50
180.0000
51
270.0000
0
LINE
8
OUTER_PROFILES
10
2222.520
20
298.900
30
0
11
2814.520
21
298.900
31
0
0
ARC
8
OUTER_PROFILES
10
2814.520
20
300.900
30
0
40
2.000
50
270.0000
51
0.0000
0
LINE
8
OUTER_PROFILES
10
2816.520
20
300.900
30
0
11
2816.520
21
312.900
31
0
0
ARC
8
OUTER_PROFILES
10
2813.976
20
312.900
30
0
40
2.545
50
0.0000
51
77.3733
0
ARC
8
OUTER_PROFILES
10
2822.815
20
330.718
30
0
40
18.301
50
178.6095
51
222.2344
0
ARC
8
OUTER_PROFILES
10
2817.059
20
325.857
30
0
40
10.775
50
223.6733
51
256.4369
0
LINE
8
OUTER_PROFILES
10
2804.520
20
331.162
30
0
11
2804.520
21
389.686
31
0
0
CIRCLE
8
INTERIOR_PROFILES
10
2743.520
20
395.686
30
0
40
1.700
0
CIRCLE
8
INTERIOR_PROFILES
10
2293.520
20
395.686
30
0
40
1.700
0
CIRCLE
8
INTERIOR_PROFILES
10
2518.520
20
325.162
30
0
40
1.700
0
CIRCLE
8
INTERIOR_PROFILES
10
2293.520
20
325.162
30
0
40
1.700
0
CIRCLE
8
INTERIOR_PROFILES
10
2227.520
20
301.900
30
0
40
1.700
0
CIRCLE
8
INTERIOR_PROFILES
10
2809.520
20
418.948
30
0
40
1.700
0
CIRCLE
8
INTERIOR_PROFILES
10
2809.520
20
301.900
30
0
40
1.700
0
CIRCLE
8
INTERIOR_PROFILES
10
2743.520
20
325.162
30
0
40
1.700
0
CIRCLE
8
INTERIOR_PROFILES
10
2227.520
20
418.948
30
0
40
1.700
0
CIRCLE
8
INTERIOR_PROFILES
10
2785.834
20
340.828
30
0
40
1.700
0
CIRCLE
8
INTERIOR_PROFILES
10
2251.206
20
340.828
30
0
40
1.700
0
CIRCLE
8
INTERIOR_PROFILES
10
2262.520
20
337.796
30
0
40
1.700
0
CIRCLE
8
INTERIOR_PROFILES
10
2273.834
20
340.828
30
0
40
1.700
0
CIRCLE
8
INTERIOR_PROFILES
10
2262.520
20
383.051
30
0
40
1.700
0
CIRCLE
8
INTERIOR_PROFILES
10
2797.148
20
360.424
30
0
40
1.700
0
CIRCLE
8
INTERIOR_PROFILES
10
2763.206
20
340.828
30
0
40
1.700
0
CIRCLE
8
INTERIOR_PROFILES
10
2251.206
20
380.020
30
0
40
1.700
0
CIRCLE
8
INTERIOR_PROFILES
10
2239.893
20
360.424
30
0
40
1.700
0
CIRCLE
8
INTERIOR_PROFILES
10
2273.834
20
380.020
30
0
40
1.700
0
CIRCLE
8
INTERIOR_PROFILES
10
2785.834
20
380.020
30
0
40
1.700
0
CIRCLE
8
INTERIOR_PROFILES
10
2751.893
20
360.424
30
0
40
1.700
0
CIRCLE
8
INTERIOR_PROFILES
10
2774.520
20
337.796
30
0
40
1.700
0
CIRCLE
8
INTERIOR_PROFILES
10
2262.520
20
360.424
30
0
40
1.700
0
CIRCLE
8
INTERIOR_PROFILES
10
2763.206
20
380.020
30
0
40
1.700
0
CIRCLE
8
INTERIOR_PROFILES
10
2774.520
20
383.051
30
0
40
1.700
0
CIRCLE
8
INTERIOR_PROFILES
10
2285.148
20
360.424
30
0
40
1.700
0
TEXT
8
PART_LABELS
10
2602.550
20
526.190
30
0
40
24.750
1
BM1LI0-070000
72
1
73
2
11
2602.550
21
526.190
31
0
0
LWPOLYLINE
8
OUTER_PROFILES
90
23
70
1
10
2932.736
20
520.719
42
0.414214
10
2934.150
20
520.719
10
2946.574
20
533.143
10
2948.574
20
533.143
10
2948.574
20
476.761
10
2934.150
20
491.185
42
0.414214
10
2932.736
20
491.185
10
2918.241
20
476.690
10
2286.383
20
476.690
10
2271.888
20
491.185
42
0.414214
10
2270.474
20
491.185
10
2256.050
20
476.761
10
2256.050
20
521.214
10
2269.979
20
521.214
10
2270.050
20
518.952
10
2272.312
20
518.952
10
2272.383
20
521.214
10
2284.383
20
533.214
10
2286.383
20
535.476
10
2286.383
20
576.000
10
2918.241
20
576.000
10
2918.241
20
535.476
10
2920.241
20
533.214
0
CIRCLE
8
INTERIOR_PROFILES
10
2652.312
20
528.214
30
0
40
5.000
0
CIRCLE
8
INTERIOR_PROFILES
10
2702.312
20
528.214
30
0
40
5.000
0
CIRCLE
8
INTERIOR_PROFILES
10
2852.312
20
528.214
30
0
40
5.000
0
CIRCLE
8
INTERIOR_PROFILES
10
2602.312
20
510.952
30
0
40
5.000
0
CIRCLE
8
INTERIOR_PROFILES
10
2902.312
20
528.214
30
0
40
5.000
0
CIRCLE
8
INTERIOR_PROFILES
10
2452.312
20
554.738
30
0
40
1.700
0
CIRCLE
8
INTERIOR_PROFILES
10
2852.312
20
483.690
30
0
40
5.000
0
CIRCLE
8
INTERIOR_PROFILES
10
2902.312
20
483.690
30
0
40
1.700
0
CIRCLE
8
INTERIOR_PROFILES
10
2502.312
20
483.690
30
0
40
1.700
0
CIRCLE
8
INTERIOR_PROFILES
10
2552.312
20
554.738
30
0
40
1.700
0
CIRCLE
8
INTERIOR_PROFILES
10
2352.312
20
528.214
30
0
40
5.000
0
CIRCLE
8
INTERIOR_PROFILES
10
2352.312
20
483.690
30
0
40
5.000
0
CIRCLE
8
INTERIOR_PROFILES
10
2302.312
20
528.214
30
0
40
5.000
0
CIRCLE
8
INTERIOR_PROFILES
10
2802.312
20
483.690
30
0
40
1.700
0
CIRCLE
8
INTERIOR_PROFILES
10
2552.312
20
528.214
30
0
40
5.000
0
CIRCLE
8
INTERIOR_PROFILES
10
2352.312
20
554.738
30
0
40
1.700
0
CIRCLE
8
INTERIOR_PROFILES
10
2752.312
20
554.738
30
0
40
1.700
0
CIRCLE
8
INTERIOR_PROFILES
10
2802.312
20
528.214
30
0
40
5.000
0
CIRCLE
8
INTERIOR_PROFILES
10
2852.312
20
554.738
30
0
40
1.700
0
CIRCLE
8
INTERIOR_PROFILES
10
2502.312
20
528.214
30
0
40
5.000
0
CIRCLE
8
INTERIOR_PROFILES
10
2752.312
20
528.214
30
0
40
5.000
0
CIRCLE
8
INTERIOR_PROFILES
10
2941.574
20
500.952
30
0
40
1.700
0
CIRCLE
8
INTERIOR_PROFILES
10
2402.312
20
528.214
30
0
40
5.000
0
CIRCLE
8
INTERIOR_PROFILES
10
2452.312
20
528.214
30
0
40
5.000
0
CIRCLE
8
INTERIOR_PROFILES
10
2652.312
20
554.738
30
0
40
1.700
0
CIRCLE
8
INTERIOR_PROFILES
10
2602.312
20
528.214
30
0
40
5.000
0
CIRCLE
8
INTERIOR_PROFILES
10
2452.312
20
483.690
30
0
40
5.000
0
CIRCLE
8
INTERIOR_PROFILES
10
2402.312
20
483.690
30
0
40
1.700
0
CIRCLE
8
INTERIOR_PROFILES
10
2552.312
20
483.690
30
0
40
5.000
0
CIRCLE
8
INTERIOR_PROFILES
10
2302.312
20
483.690
30
0
40
1.700
0
CIRCLE
8
INTERIOR_PROFILES
10
2652.312
20
483.690
30
0
40
5.000
0
CIRCLE
8
INTERIOR_PROFILES
10
2263.050
20
500.952
30
0
40
1.700
0
CIRCLE
8
INTERIOR_PROFILES
10
2602.312
20
483.690
30
0
40
1.700
0
CIRCLE
8
INTERIOR_PROFILES
10
2702.312
20
483.690
30
0
40
1.700
0
CIRCLE
8
INTERIOR_PROFILES
10
2752.312
20
483.690
30
0
40
5.000
0
TEXT
8
PART_LABELS
10
1816.020
20
49.500
30
0
40
15.000
1
SH0S12-080000
72
1
73
2
11
1816.020
21
49.500
31
0
0
LWPOLYLINE
8
OUTER_PROFILES
90
20
70
1
10
1422.520
20
56.024
10
1439.782
20
56.024
10
1439.782
20
58.286
10
1439.782
20
72.286
10
1439.782
20
79.548
10
2191.782
20
79.548
10
2191.782
20
72.286
10
2191.782
20
58.286
10
2191.782
20
56.024
10
2209.044
20
56.024
10
2209.044
20
43.024
10
2191.782
20
43.024
10
2191.782
20
40.762
10
2191.782
20
26.762
10
2191.782
20
19.500
10
1439.782
20
19.500
10
1439.782
20
26.762
10
1439.782
20
40.762
10
1439.782
20
43.024
10
1422.520
20
43.024
0
CIRCLE
8
INTERIOR_PROFILES
10
1430.520
20
49.524
30
0
40
1.700
0
CIRCLE
8
INTERIOR_PROFILES
10
2201.044
20
49.524
30
0
40
1.700
0
TEXT
8
PART_LABELS
10
2570.020
20
51.210
30
0
40
15.250
1
TS1BHH-070000-Ruth
72
1
73
2
11
2570.020
21
51.210
31
0
0
CIRCLE
8
OUTER_PROFILES
10
2924.044
20
74.734
30
0
40
1.700
0
LWPOLYLINE
8
OUTER_PROFILES
90
4
70
1
10
2304.782
20
64.234
10
2304.782
20
61.972
10
2231.782
20
61.972
10
2231.782
20
64.234
0
CIRCLE
8
OUTER_PROFILES
10
2910.782
20
74.734
30
0
40
1.700
0
CIRCLE
8
OUTER_PROFILES
10
2884.782
20
74.734
30
0
40
1.700
0
CIRCLE
8
OUTER_PROFILES
10
2254.782
20
74.734
30
0
40
1.700
0
CIRCLE
8
OUTER_PROFILES
10
2228.782
20
74.734
30
0
40
1.700
0
CIRCLE
8
OUTER_PROFILES
10
2300.782
20
74.734
30
0
40
1.700
0
CIRCLE
8
OUTER_PROFILES
10
2838.782
20
74.734
30
0
40
1.700
0
CIRCLE
8
OUTER_PROFILES
10
2228.782
20
32.972
30
0
40
1.700
0
CIRCLE
8
OUTER_PROFILES
10
2910.782
20
57.972
30
0
40
1.700
0
CIRCLE
8
OUTER_PROFILES
10
2228.782
20
57.972
30
0
40
1.700
0
CIRCLE
8
OUTER_PROFILES
10
2910.782
20
32.972
30
0
40
1.700
0
LWPOLYLINE
8
OUTER_PROFILES
90
4
70
1
10
2907.782
20
64.234
10
2907.782
20
61.972
10
2834.782
20
61.972
10
2834.782
20
64.234
0
LWPOLYLINE
8
OUTER_PROFILES
90
14
70
1
10
2928.044
20
81.734
10
2211.520
20
81.734
10
2211.520
20
64.234
10
2221.782
20
64.234
10
2221.782
20
61.972
10
2221.782
20
27.972
10
2221.782
20
25.710
10
2221.782
20
20.710
10
2917.782
20
20.710
10
2917.782
20
25.710
10
2917.782
20
27.972
10
2917.782
20
61.972
10
2917.782
20
64.234
10
2928.044
20
64.234
0
CIRCLE
8
OUTER_PROFILES
10
2215.520
20
74.734
30
0
40
1.700
0
ENDSEC
0
EOF