0
SECTION
2
HEADER
9
$INSUNITS
70
4
0
ENDSEC
0
SECTION
2
ENTITIES
0
LWPOLYLINE
8
SHEET_BORDER
90
5
70
1
10
0.000
20
0.000
10
3050.000
20
0.000
10
3050.000
20
1525.000
10
0.000
20
1525.000
10
0.000
20
0.000
0
TEXT
8
PART_LABELS
10
309.760
20
1239.350
30
0
40
50.000
1
DSV1TR-060050
72
1
73
2
11
309.760
21
1239.350
31
0
0
ARC
8
OUTER_PROFILES
10
-635306.969
20
-400853.958
30
0
40
752001.732
50
32.3466
51
32.3468
0
LINE
8
OUTER_PROFILES
10
4.241
20
1496.973
30
0
11
4.956
21
1495.845
31
0
0
LINE
8
OUTER_PROFILES
10
4.956
20
1495.844
30
0
11
1.773
21
1495.649
31
0
0
ARC
8
OUTER_PROFILES
10
1.043
20
1491.948
30
0
40
3.772
50
78.8499
51
106.0520
0
LINE
8
OUTER_PROFILES
10
0.000
20
1495.573
30
0
11
0.111
21
1495.150
31
0
0
LINE
8
OUTER_PROFILES
10
0.111
20
1495.150
30
0
11
6.783
21
1469.776
31
0
0
LINE
8
OUTER_PROFILES
10
6.783
20
1469.776
30
0
11
12.108
21
1459.335
31
0
0
LINE
8
OUTER_PROFILES
10
12.108
20
1459.335
30
0
11
578.606
21
955.366
31
0
0
LINE
8
OUTER_PROFILES
10
578.606
20
955.366
30
0
11
583.265
21
953.898
31
0
0
ARC
8
OUTER_PROFILES
10
584.712
20
959.047
30
0
40
5.348
50
254.3001
51
285.8897
0
ARC
8
OUTER_PROFILES
10
585.697
20
954.768
30
0
40
0.989
50
298.9725
51
318.0661
0
LINE
8
OUTER_PROFILES
10
586.433
20
954.107
30
0
11
597.068
21
966.062
31
0
0
ARC
8
OUTER_PROFILES
10
594.613
20
967.293
30
0
40
2.747
50
333.3698
51
23.3502
0
ARC
8
OUTER_PROFILES
10
564.593
20
960.135
30
0
40
33.569
50
14.2193
51
15.7233
0
ARC
8
OUTER_PROFILES
10
601.635
20
971.491
30
0
40
5.140
50
205.5556
51
238.8597
0
ARC
8
OUTER_PROFILES
10
599.266
20
967.977
30
0
40
0.932
50
251.9425
51
269.6194
0
ARC
8
OUTER_PROFILES
10
614.755
20
969.353
30
0
40
2.362
50
282.3391
51
333.8673
0
ARC
8
OUTER_PROFILES
10
598.108
20
981.630
30
0
40
23.012
50
324.6391
51
327.5230
0
LINE
8
OUTER_PROFILES
10
617.522
20
969.273
30
0
11
619.522
21
973.730
31
0
0
LINE
8
OUTER_PROFILES
10
619.522
20
1477.703
30
0
11
617.522
21
1479.703
31
0
0
LINE
8
OUTER_PROFILES
10
617.522
20
1479.703
30
0
11
615.260
21
1482.673
31
0
0
LINE
8
OUTER_PROFILES
10
615.260
20
1482.673
30
0
11
600.674
21
1497.259
31
0
0
ARC
8
OUTER_PROFILES
10
599.260
20
1495.845
30
0
40
2.000
50
45.0000
51
90.0000
0
LINE
8
OUTER_PROFILES
10
599.260
20
1497.845
30
0
11
596.998
21
1495.845
31
0
0
LINE
8
OUTER_PROFILES
10
596.998
20
1495.845
30
0
11
597.898
21
1499.238
31
0
0
ARC
8
OUTER_PROFILES
10
588.096
20
1518.440
30
0
40
10.000
50
11.4188
51
20.0319
0
ARC
8
OUTER_PROFILES
10
588.093
20
1518.438
30
0
40
10.003
50
20.0330
51
27.1050
0
LINE
8
OUTER_PROFILES
10
596.997
20
1522.996
30
0
11
594.997
21
1524.996
31
0
0
LINE
8
OUTER_PROFILES
10
28.478
20
1524.996
30
0
11
23.222
21
1522.996
31
0
0
ARC
8
OUTER_PROFILES
10
34.141
20
1505.242
30
0
40
20.844
50
121.5950
51
125.3222
0
LINE
8
OUTER_PROFILES
10
21.510
20
1521.865
30
0
11
22.088
21
1522.247
31
0
0
LINE
8
OUTER_PROFILES
10
21.510
20
1521.865
30
0
11
19.997
21
1520.865
31
0
0
LINE
8
OUTER_PROFILES
10
19.997
20
1520.865
30
0
11
2.807
21
1499.238
31
0
0
TEXT
8
PART_LABELS
10
252.260
20
630.675
30
0
40
50.000
1
DSB0F0-070050
72
1
73
2
11
252.260
21
630.675
31
0
0
CIRCLE
8
INTERIOR_PROFILES
10
58.112
20
946.198
30
0
40
2.500
0
CIRCLE
8
INTERIOR_PROFILES
10
300.412
20
315.150
30
0
40
2.500
0
CIRCLE
8
INTERIOR_PROFILES
10
496.524
20
630.674
30
0
40
1.700
0
CIRCLE
8
INTERIOR_PROFILES
10
8.000
20
880.674
30
0
40
1.700
0
CIRCLE
8
INTERIOR_PROFILES
10
58.112
20
315.150
30
0
40
2.500
0
CIRCLE
8
INTERIOR_PROFILES
10
8.000
20
380.674
30
0
40
1.700
0
CIRCLE
8
INTERIOR_PROFILES
10
446.412
20
315.150
30
0
40
2.500
0
CIRCLE
8
INTERIOR_PROFILES
10
204.112
20
315.150
30
0
40
2.500
0
CIRCLE
8
INTERIOR_PROFILES
10
317.112
20
315.150
30
0
40
2.500
0
CIRCLE
8
INTERIOR_PROFILES
10
187.412
20
315.150
30
0
40
2.500
0
CIRCLE
8
INTERIOR_PROFILES
10
474.112
20
315.150
30
0
40
2.500
0
CIRCLE
8
INTERIOR_PROFILES
10
317.112
20
946.198
30
0
40
2.500
0
CIRCLE
8
INTERIOR_PROFILES
10
474.112
20
946.198
30
0
40
2.500
0
CIRCLE
8
INTERIOR_PROFILES
10
446.412
20
946.198
30
0
40
2.500
0
CIRCLE
8
INTERIOR_PROFILES
10
187.412
20
946.198
30
0
40
2.500
0
CIRCLE
8
INTERIOR_PROFILES
10
30.412
20
315.150
30
0
40
2.500
0
CIRCLE
8
INTERIOR_PROFILES
10
496.524
20
380.674
30
0
40
1.700
0
CIRCLE
8
INTERIOR_PROFILES
10
496.524
20
880.674
30
0
40
1.700
0
CIRCLE
8
INTERIOR_PROFILES
10
300.412
20
946.198
30
0
40
2.500
0
CIRCLE
8
INTERIOR_PROFILES
10
30.412
20
946.198
30
0
40
2.500
0
CIRCLE
8
INTERIOR_PROFILES
10
204.112
20
946.198
30
0
40
2.500
0
CIRCLE
8
INTERIOR_PROFILES
10
8.000
20
630.674
30
0
40
1.700
0
TEXT
8
PART_LABELS
10
801.255
20
687.285
30
0
40
50.000
1
DSV2TR-060050
72
1
73
2
11
801.255
21
687.285
31
0
0
LINE
8
OUTER_PROFILES
10
1067.495
20
953.704
30
0
11
504.520
21
452.870
31
0
0
LINE
8
OUTER_PROFILES
10
504.520
20
452.870
30
0
11
515.819
21
440.168
31
0
0
ARC
8
OUTER_PROFILES
10
517.086
20
442.118
30
0
40
2.325
50
236.9966
51
289.2850
0
ARC
8
OUTER_PROFILES
10
513.217
20
465.489
30
0
40
25.982
50
280.2786
51
283.5087
0
ARC
8
OUTER_PROFILES
10
521.664
20
434.348
30
0
40
6.240
50
112.0414
51
141.4875
0
ARC
8
OUTER_PROFILES
10
517.548
20
437.856
30
0
40
0.855
50
153.8093
51
179.0856
0
ARC
8
OUTER_PROFILES
10
1075.402
20
437.342
30
0
40
4.285
50
7.0769
51
40.6233
0
LINE
8
OUTER_PROFILES
10
1078.654
20
440.132
30
0
11
1078.725
21
440.203
31
0
0
ARC
8
OUTER_PROFILES
10
1081.514
20
443.455
30
0
40
4.285
50
229.3767
51
262.9231
0
ARC
8
OUTER_PROFILES
10
1081.699
20
937.366
30
0
40
2.747
50
105.0268
51
155.0072
0
ARC
8
OUTER_PROFILES
10
1106.999
20
919.695
30
0
40
33.569
50
145.8763
51
147.3803
0
ARC
8
OUTER_PROFILES
10
1073.894
20
939.823
30
0
40
5.140
50
337.2126
51
10.5166
0
ARC
8
OUTER_PROFILES
10
1078.094
20
940.388
30
0
40
0.932
50
23.5994
51
41.2764
0
LINE
8
OUTER_PROFILES
10
1078.795
20
941.003
30
0
11
1067.495
21
953.704
31
0
0
CIRCLE
8
INTERIOR_PROFILES
10
1061.225
20
857.632
30
0
40
17.500
0
CIRCLE
8
INTERIOR_PROFILES
10
1055.225
20
483.632
30
0
40
1.700
0
CIRCLE
8
INTERIOR_PROFILES
10
1055.225
20
531.632
30
0
40
1.700
0
CIRCLE
8
INTERIOR_PROFILES
10
1055.225
20
833.632
30
0
40
1.700
0
CIRCLE
8
INTERIOR_PROFILES
10
1055.225
20
881.632
30
0
40
1.700
0
CIRCLE
8
INTERIOR_PROFILES
10
1061.225
20
507.632
30
0
40
17.500
0
TEXT
8
PART_LABELS
10
361.760
20
163.890
30
0
40
50.000
1
DSV2B3-070031-Ruth
72
1
73
2
11
361.760
21
163.890
31
0
0
LINE
8
OUTER_PROFILES
10
18.333
20
37.130
30
0
11
19.262
21
39.392
31
0
0
LINE
8
OUTER_PROFILES
10
19.262
20
39.392
30
0
11
17.000
21
38.463
31
0
0
LINE
8
OUTER_PROFILES
10
705.191
20
290.654
30
0
11
704.262
21
288.392
31
0
0
LINE
8
OUTER_PROFILES
10
704.262
20
288.392
30
0
11
706.524
21
289.321
31
0
0
CIRCLE
8
INTERIOR_PROFILES
10
678.262
20
69.392
30
0
40
5.000
0
CIRCLE
8
INTERIOR_PROFILES
10
45.262
20
197.392
30
0
40
1.700
0
CIRCLE
8
INTERIOR_PROFILES
10
678.262
20
229.392
30
0
40
1.700
0
CIRCLE
8
INTERIOR_PROFILES
10
45.262
20
229.392
30
0
40
1.700
0
CIRCLE
8
INTERIOR_PROFILES
10
45.262
20
69.392
30
0
40
5.000
0
CIRCLE
8
INTERIOR_PROFILES
10
678.262
20
197.392
30
0
40
1.700
0
TEXT
8
PART_LABELS
10
938.545
20
1362.660
30
0
40
50.000
1
DSV100-060030-Ruth
72
1
73
2
11
938.545
21
1362.660
31
0
0
LINE
8
OUTER_PROFILES
10
641.144
20
1499.237
30
0
11
638.368
21
1497.258
31
0
0
LINE
8
OUTER_PROFILES
10
638.368
20
1497.258
30
0
11
623.782
21
1482.672
31
0
0
LINE
8
OUTER_PROFILES
10
623.782
20
1482.672
30
0
11
621.520
21
1479.773
31
0
0
LINE
8
OUTER_PROFILES
10
621.520
20
1479.773
30
0
11
619.520
21
1477.773
31
0
0
LINE
8
OUTER_PROFILES
10
619.520
20
1224.915
30
0
11
621.520
21
1222.915
31
0
0
LINE
8
OUTER_PROFILES
10
621.520
20
1222.915
30
0
11
623.782
21
1220.844
31
0
0
LINE
8
OUTER_PROFILES
10
639.782
20
1220.844
30
0
11
641.144
21
1220.582
31
0
0
LINE
8
OUTER_PROFILES
10
641.144
20
1204.582
30
0
11
642.115
21
1202.320
31
0
0
LINE
8
OUTER_PROFILES
10
642.115
20
1202.320
30
0
11
644.115
21
1200.320
31
0
0
LINE
8
OUTER_PROFILES
10
1232.973
20
1200.320
30
0
11
1234.973
21
1202.320
31
0
0
LINE
8
OUTER_PROFILES
10
1234.973
20
1202.320
30
0
11
1235.944
21
1204.582
31
0
0
LINE
8
OUTER_PROFILES
10
1235.944
20
1220.582
30
0
11
1237.306
21
1220.844
31
0
0
LINE
8
OUTER_PROFILES
10
1253.306
20
1220.844
30
0
11
1255.568
21
1222.915
31
0
0
LINE
8
OUTER_PROFILES
10
1255.568
20
1222.915
30
0
11
1257.568
21
1224.915
31
0
0
LINE
8
OUTER_PROFILES
10
1257.568
20
1477.773
30
0
11
1255.568
21
1479.773
31
0
0
LINE
8
OUTER_PROFILES
10
1255.568
20
1479.773
30
0
11
1253.306
21
1482.672
31
0
0
LINE
8
OUTER_PROFILES
10
1253.306
20
1482.672
30
0
11
1238.720
21
1497.258
31
0
0
LINE
8
OUTER_PROFILES
10
1238.720
20
1497.258
30
0
11
1235.944
21
1499.237
31
0
0
LINE
8
OUTER_PROFILES
10
1235.944
20
1520.578
30
0
11
1235.494
21
1521.864
31
0
0
LINE
8
OUTER_PROFILES
10
1235.494
20
1521.864
30
0
11
1234.973
21
1522.995
31
0
0
LINE
8
OUTER_PROFILES
10
1234.973
20
1522.995
30
0
11
1232.973
21
1524.995
31
0
0
LINE
8
OUTER_PROFILES
10
644.115
20
1524.995
30
0
11
642.115
21
1522.995
31
0
0
LINE
8
OUTER_PROFILES
10
642.115
20
1522.995
30
0
11
641.594
21
1521.864
31
0
0
LINE
8
OUTER_PROFILES
10
641.594
20
1521.864
30
0
11
641.144
21
1520.578
31
0
0
TEXT
8
PART_LABELS
10
1035.280
20
277.110
30
0
40
50.000
1
DSV2B3-060031-Ruth
72
1
73
2
11
1035.280
21
277.110
31
0
0
LINE
8
OUTER_PROFILES
10
740.520
20
151.683
30
0
11
742.782
21
152.612
31
0
0
LINE
8
OUTER_PROFILES
10
742.782
20
152.612
30
0
11
741.853
21
150.350
31
0
0
LINE
8
OUTER_PROFILES
10
1330.044
20
402.541
30
0
11
1327.782
21
401.612
31
0
0
LINE
8
OUTER_PROFILES
10
1327.782
20
401.612
30
0
11
1328.711
21
403.874
31
0
0
CIRCLE
8
INTERIOR_PROFILES
10
768.782
20
310.612
30
0
40
1.700
0
CIRCLE
8
INTERIOR_PROFILES
10
768.782
20
182.612
30
0
40
5.000
0
CIRCLE
8
INTERIOR_PROFILES
10
1301.782
20
182.612
30
0
40
5.000
0
CIRCLE
8
INTERIOR_PROFILES
10
1301.782
20
310.612
30
0
40
1.700
0
CIRCLE
8
INTERIOR_PROFILES
10
768.782
20
342.612
30
0
40
1.700
0
CIRCLE
8
INTERIOR_PROFILES
10
1301.782
20
342.612
30
0
40
1.700
0
TEXT
8
PART_LABELS
10
1459.750
20
1076.560
30
0
40
50.000
1
DSV2B3-070024-Ruth
72
1
73
2
11
1459.750
21
1076.560
31
0
0
LINE
8
OUTER_PROFILES
10
1803.181
20
1183.324
30
0
11
1802.252
21
1181.062
31
0
0
LINE
8
OUTER_PROFILES
10
1802.252
20
1181.062
30
0
11
1804.514
21
1181.991
31
0
0
LINE
8
OUTER_PROFILES
10
1116.323
20
969.800
30
0
11
1117.252
21
972.062
31
0
0
LINE
8
OUTER_PROFILES
10
1117.252
20
972.062
30
0
11
1114.990
21
971.133
31
0
0
CIRCLE
8
INTERIOR_PROFILES
10
1776.252
20
1082.062
30
0
40
1.700
0
CIRCLE
8
INTERIOR_PROFILES
10
1143.252
20
1082.062
30
0
40
1.700
0
CIRCLE
8
INTERIOR_PROFILES
10
1143.252
20
1114.062
30
0
40
1.700
0
CIRCLE
8
INTERIOR_PROFILES
10
1776.252
20
1114.062
30
0
40
1.700
0
TEXT
8
PART_LABELS
10
1459.750
20
829.040
30
0
40
50.000
1
DSV2B3-070023-Ruth
72
1
73
2
11
1459.750
21
829.040
31
0
0
LINE
8
OUTER_PROFILES
10
1114.990
20
723.613
30
0
11
1117.252
21
724.542
31
0
0
LINE
8
OUTER_PROFILES
10
1117.252
20
724.542
30
0
11
1116.323
21
722.280
31
0
0
LINE
8
OUTER_PROFILES
10
1804.514
20
934.471
30
0
11
1802.252
21
933.542
31
0
0
LINE
8
OUTER_PROFILES
10
1802.252
20
933.542
30
0
11
1803.181
21
935.804
31
0
0
CIRCLE
8
INTERIOR_PROFILES
10
1776.252
20
894.542
30
0
40
1.700
0
CIRCLE
8
INTERIOR_PROFILES
10
1776.252
20
862.542
30
0
40
1.700
0
CIRCLE
8
INTERIOR_PROFILES
10
1143.252
20
862.542
30
0
40
1.700
0
CIRCLE
8
INTERIOR_PROFILES
10
1143.252
20
894.542
30
0
40
1.700
0
TEXT
8
PART_LABELS
10
1415.015
20
584.385
30
0
40
50.000
1
DSB0BD-070050
72
1
73
2
11
1415.015
21
584.385
31
0
0
LWPOLYLINE
8
OUTER_PROFILES
90
32
70
1
10
1128.514
20
479.752
10
1128.514
20
463.490
10
1701.514
20
463.490
10
1701.514
20
479.752
10
1732.038
20
479.752
10
1732.038
20
660.681
10
1718.038
20
660.681
10
1715.776
20
662.681
10
1703.281
20
675.176
42
-0.414214
10
1703.281
20
676.590
10
1715.705
20
689.014
10
1717.705
20
691.276
10
1717.705
20
705.276
10
1707.847
20
705.276
10
1707.847
20
695.276
10
1703.352
20
690.781
42
-0.414214
10
1701.938
20
690.781
10
1697.443
20
695.276
10
1132.585
20
695.276
10
1128.090
20
690.781
42
-0.414214
10
1126.676
20
690.781
10
1122.181
20
695.276
10
1122.181
20
705.276
10
1112.323
20
705.276
10
1112.323
20
691.276
10
1114.323
20
689.014
10
1126.747
20
676.590
42
-0.414214
10
1126.747
20
675.176
10
1114.252
20
662.681
10
1111.990
20
660.681
10
1097.990
20
660.681
10
1097.990
20
479.752
0
CIRCLE
8
INTERIOR_PROFILES
10
1104.990
20
541.252
30
0
40
1.700
0
CIRCLE
8
INTERIOR_PROFILES
10
1725.038
20
636.752
30
0
40
1.700
0
CIRCLE
8
INTERIOR_PROFILES
10
1104.990
20
636.752
30
0
40
1.700
0
CIRCLE
8
INTERIOR_PROFILES
10
1725.038
20
541.252
30
0
40
1.700
0
CIRCLE
8
INTERIOR_PROFILES
10
1709.776
20
698.276
30
0
40
1.700
0
CIRCLE
8
INTERIOR_PROFILES
10
1104.990
20
572.752
30
0
40
1.700
0
CIRCLE
8
INTERIOR_PROFILES
10
1104.990
20
509.252
30
0
40
1.700
0
CIRCLE
8
INTERIOR_PROFILES
10
1665.014
20
485.752
30
0
40
1.700
0
CIRCLE
8
INTERIOR_PROFILES
10
1725.038
20
509.252
30
0
40
1.700
0
CIRCLE
8
INTERIOR_PROFILES
10
1415.014
20
485.752
30
0
40
1.700
0
CIRCLE
8
INTERIOR_PROFILES
10
1165.014
20
485.752
30
0
40
1.700
0
CIRCLE
8
INTERIOR_PROFILES
10
1120.252
20
698.276
30
0
40
1.700
0
CIRCLE
8
INTERIOR_PROFILES
10
1725.038
20
572.752
30
0
40
1.700
0
TEXT
8
PART_LABELS
10
1524.595
20
1404.105
30
0
40
50.000
1
DSB0BD-060050
72
1
73
2
11
1524.595
21
1404.105
31
0
0
LWPOLYLINE
8
OUTER_PROFILES
90
32
70
1
10
1281.761
20
1514.996
10
1281.761
20
1524.996
10
1271.903
20
1524.996
10
1271.903
20
1510.996
10
1273.903
20
1508.734
10
1286.327
20
1496.310
42
-0.414214
10
1286.327
20
1494.896
10
1273.832
20
1482.401
10
1271.570
20
1480.401
10
1257.570
20
1480.401
10
1257.570
20
1299.472
10
1288.094
20
1299.472
10
1288.094
20
1283.210
10
1761.094
20
1283.210
10
1761.094
20
1299.472
10
1791.618
20
1299.472
10
1791.618
20
1480.401
10
1777.618
20
1480.401
10
1775.356
20
1482.401
10
1762.861
20
1494.896
42
-0.414214
10
1762.861
20
1496.310
10
1775.285
20
1508.734
10
1777.285
20
1510.996
10
1777.285
20
1524.996
10
1767.427
20
1524.996
10
1767.427
20
1514.996
10
1762.932
20
1510.501
42
-0.414214
10
1761.518
20
1510.501
10
1757.023
20
1514.996
10
1292.165
20
1514.996
10
1287.670
20
1510.501
42
-0.414214
10
1286.256
20
1510.501
0
CIRCLE
8
INTERIOR_PROFILES
10
1279.832
20
1517.996
30
0
40
1.700
0
CIRCLE
8
INTERIOR_PROFILES
10
1724.594
20
1305.472
30
0
40
1.700
0
CIRCLE
8
INTERIOR_PROFILES
10
1784.618
20
1328.972
30
0
40
1.700
0
CIRCLE
8
INTERIOR_PROFILES
10
1264.570
20
1456.472
30
0
40
1.700
0
CIRCLE
8
INTERIOR_PROFILES
10
1264.570
20
1392.472
30
0
40
1.700
0
CIRCLE
8
INTERIOR_PROFILES
10
1784.618
20
1456.472
30
0
40
1.700
0
CIRCLE
8
INTERIOR_PROFILES
10
1524.594
20
1305.472
30
0
40
1.700
0
CIRCLE
8
INTERIOR_PROFILES
10
1264.570
20
1360.972
30
0
40
1.700
0
CIRCLE
8
INTERIOR_PROFILES
10
1769.356
20
1517.996
30
0
40
1.700
0
CIRCLE
8
INTERIOR_PROFILES
10
1324.594
20
1305.472
30
0
40
1.700
0
CIRCLE
8
INTERIOR_PROFILES
10
1264.570
20
1328.972
30
0
40
1.700
0
CIRCLE
8
INTERIOR_PROFILES
10
1784.618
20
1360.972
30
0
40
1.700
0
CIRCLE
8
INTERIOR_PROFILES
10
1784.618
20
1392.472
30
0
40
1.700
0
TEXT
8
PART_LABELS
10
1121.520
20
71.850
30
0
40
30.750
1
FN1BLA-080000
72
1
73
2
11
1121.520
21
71.850
31
0
0
ARC
8
OUTER_PROFILES
10
1516.976
20
119.398
30
0
40
2.545
50
282.6267
51
0.0000
0
ARC
8
OUTER_PROFILES
10
1517.520
20
131.398
30
0
40
2.000
50
0.0000
51
90.0000
0
ARC
8
OUTER_PROFILES
10
1274.520
20
131.398
30
0
40
2.000
50
90.0000
51
180.0000
0
ARC
8
OUTER_PROFILES
10
1269.520
20
131.136
30
0
40
2.000
50
0.0000
51
90.0000
0
ARC
8
OUTER_PROFILES
10
973.520
20
131.136
30
0
40
2.000
50
90.0000
51
180.0000
0
ARC
8
OUTER_PROFILES
10
968.520
20
131.398
30
0
40
2.000
50
0.0000
51
90.0000
0
ARC
8
OUTER_PROFILES
10
725.520
20
131.398
30
0
40
2.000
50
90.0000
51
180.0000
0
ARC
8
OUTER_PROFILES
10
726.065
20
119.398
30
0
40
2.544
50
180.0000
51
257.3733
0
ARC
8
OUTER_PROFILES
10
717.225
20
101.580
30
0
40
18.301
50
358.6095
51
42.2344
0
ARC
8
OUTER_PROFILES
10
722.981
20
106.441
30
0
40
10.775
50
43.6733
51
76.4369
0
ARC
8
OUTER_PROFILES
10
722.358
20
38.509
30
0
40
12.093
50
285.0973
51
333.9506
0
ARC
8
OUTER_PROFILES
10
715.731
20
42.453
30
0
40
19.790
50
332.1175
51
0.4598
0
ARC
8
OUTER_PROFILES
10
726.064
20
24.350
30
0
40
2.545
50
102.6267
51
180.0000
0
ARC
8
OUTER_PROFILES
10
725.520
20
12.350
30
0
40
2.000
50
180.0000
51
270.0000
0
ARC
8
OUTER_PROFILES
10
1517.520
20
12.350
30
0
40
2.000
50
270.0000
51
0.0000
0
ARC
8
OUTER_PROFILES
10
1516.976
20
24.350
30
0
40
2.545
50
0.0000
51
77.3733
0
ARC
8
OUTER_PROFILES
10
1525.815
20
42.168
30
0
40
18.301
50
178.6095
51
222.2344
0
ARC
8
OUTER_PROFILES
10
1520.059
20
37.307
30
0
40
10.775
50
223.6733
51
256.4369
0
ARC
8
OUTER_PROFILES
10
1520.682
20
105.239
30
0
40
12.093
50
105.0973
51
153.9506
0
ARC
8
OUTER_PROFILES
10
1527.309
20
101.295
30
0
40
19.790
50
152.1175
51
180.4598
0
CIRCLE
8
INTERIOR_PROFILES
10
1512.520
20
13.350
30
0
40
1.700
0
CIRCLE
8
INTERIOR_PROFILES
10
796.520
20
107.136
30
0
40
1.700
0
CIRCLE
8
INTERIOR_PROFILES
10
796.520
20
36.612
30
0
40
1.700
0
CIRCLE
8
INTERIOR_PROFILES
10
1446.520
20
36.612
30
0
40
1.700
0
CIRCLE
8
INTERIOR_PROFILES
10
1121.520
20
36.612
30
0
40
1.700
0
CIRCLE
8
INTERIOR_PROFILES
10
1512.520
20
130.398
30
0
40
1.700
0
CIRCLE
8
INTERIOR_PROFILES
10
730.520
20
130.398
30
0
40
1.700
0
CIRCLE
8
INTERIOR_PROFILES
10
730.520
20
13.350
30
0
40
1.700
0
CIRCLE
8
INTERIOR_PROFILES
10
1446.520
20
107.136
30
0
40
1.700
0
CIRCLE
8
INTERIOR_PROFILES
10
776.834
20
91.470
30
0
40
1.700
0
CIRCLE
8
INTERIOR_PROFILES
10
754.206
20
52.278
30
0
40
1.700
0
CIRCLE
8
INTERIOR_PROFILES
10
1321.520
20
49.246
30
0
40
1.700
0
CIRCLE
8
INTERIOR_PROFILES
10
921.520
20
94.501
30
0
40
1.700
0
CIRCLE
8
INTERIOR_PROFILES
10
1310.206
20
52.278
30
0
40
1.700
0
CIRCLE
8
INTERIOR_PROFILES
10
1298.893
20
71.874
30
0
40
1.700
0
CIRCLE
8
INTERIOR_PROFILES
10
765.520
20
49.246
30
0
40
1.700
0
CIRCLE
8
INTERIOR_PROFILES
10
1488.834
20
91.470
30
0
40
1.700
0
CIRCLE
8
INTERIOR_PROFILES
10
742.893
20
71.874
30
0
40
1.700
0
CIRCLE
8
INTERIOR_PROFILES
10
898.893
20
71.874
30
0
40
1.700
0
CIRCLE
8
INTERIOR_PROFILES
10
921.520
20
49.246
30
0
40
1.700
0
CIRCLE
8
INTERIOR_PROFILES
10
1321.520
20
94.501
30
0
40
1.700
0
CIRCLE
8
INTERIOR_PROFILES
10
932.834
20
52.278
30
0
40
1.700
0
CIRCLE
8
INTERIOR_PROFILES
10
910.206
20
52.278
30
0
40
1.700
0
CIRCLE
8
INTERIOR_PROFILES
10
1477.520
20
49.246
30
0
40
1.700
0
CIRCLE
8
INTERIOR_PROFILES
10
788.148
20
71.874
30
0
40
1.700
0
CIRCLE
8
INTERIOR_PROFILES
10
1477.520
20
94.501
30
0
40
1.700
0
CIRCLE
8
INTERIOR_PROFILES
10
754.206
20
91.470
30
0
40
1.700
0
CIRCLE
8
INTERIOR_PROFILES
10
1332.834
20
91.470
30
0
40
1.700
0
CIRCLE
8
INTERIOR_PROFILES
10
910.206
20
91.470
30
0
40
1.700
0
CIRCLE
8
INTERIOR_PROFILES
10
1310.206
20
91.470
30
0
40
1.700
0
CIRCLE
8
INTERIOR_PROFILES
10
944.148
20
71.874
30
0
40
1.700
0
CIRCLE
8
INTERIOR_PROFILES
10
1488.834
20
52.278
30
0
40
1.700
0
CIRCLE
8
INTERIOR_PROFILES
10
1332.834
20
52.278
30
0
40
1.700
0
CIRCLE
8
INTERIOR_PROFILES
10
1344.148
20
71.874
30
0
40
1.700
0
CIRCLE
8
INTERIOR_PROFILES
10
932.834
20
91.470
30
0
40
1.700
0
CIRCLE
8
INTERIOR_PROFILES
10
1466.206
20
52.278
30
0
40
1.700
0
CIRCLE
8
INTERIOR_PROFILES
10
1466.206
20
91.470
30
0
40
1.700
0
CIRCLE
8
INTERIOR_PROFILES
10
765.520
20
94.501
30
0
40
1.700
0
CIRCLE
8
INTERIOR_PROFILES
10
1454.893
20
71.874
30
0
40
1.700
0
CIRCLE
8
INTERIOR_PROFILES
10
776.834
20
52.278
30
0
40
1.700
0
CIRCLE
8
INTERIOR_PROFILES
10
1500.148
20
71.874
30
0
40
1.700
0
CIRCLE
8
INTERIOR_PROFILES
10
765.520
20
71.874
30
0
40
1.700
0
TEXT
8
PART_LABELS
10
1693.540
20
398.990
30
0
40
32.250
1
BM2LI1-070000
72
1
73
2
11
1693.540
21
398.990
31
0
0
LWPOLYLINE
8
OUTER_PROFILES
90
44
70
1
10
2025.069
20
348.914
10
2030.564
20
343.419
10
2030.564
20
334.490
10
1356.040
20
334.490
10
1356.040
20
343.419
10
1361.535
20
348.914
42
0.414214
10
1361.535
20
350.328
10
1356.011
20
355.852
10
1347.040
20
355.852
10
1347.040
20
401.652
10
1356.011
20
401.652
10
1361.535
20
407.176
42
0.414214
10
1361.535
20
408.590
10
1356.040
20
414.085
10
1356.040
20
423.014
10
1361.040
20
423.014
10
1363.302
20
421.014
10
1363.302
20
430.290
42
-0.286860
10
1364.707
20
432.538
42
-0.063085
10
1365.302
20
432.740
42
0.816497
10
1365.302
20
452.336
42
-0.063085
10
1364.707
20
452.538
42
-0.286860
10
1363.302
20
454.785
10
1363.302
20
461.800
42
-0.414214
10
1365.302
20
463.800
10
2021.302
20
463.800
42
-0.414214
10
2023.302
20
461.800
10
2023.302
20
454.785
42
-0.286860
10
2021.897
20
452.538
42
-0.063085
10
2021.302
20
452.336
42
0.816497
10
2021.302
20
432.740
42
-0.063085
10
2021.897
20
432.538
42
-0.286860
10
2023.302
20
430.290
10
2023.302
20
421.014
10
2025.564
20
423.014
10
2030.564
20
423.014
10
2030.564
20
414.085
10
2025.069
20
408.590
42
0.414214
10
2025.069
20
407.176
10
2030.593
20
401.652
10
2039.564
20
401.652
10
2039.564
20
355.852
10
2030.593
20
355.852
10
2025.069
20
350.328
42
0.414214
0
CIRCLE
8
INTERIOR_PROFILES
10
1693.302
20
442.538
30
0
40
1.250
0
CIRCLE
8
INTERIOR_PROFILES
10
1354.040
20
388.752
30
0
40
1.700
0
CIRCLE
8
INTERIOR_PROFILES
10
1354.040
20
358.752
30
0
40
1.700
0
CIRCLE
8
INTERIOR_PROFILES
10
1693.302
20
398.752
30
0
40
5.000
0
CIRCLE
8
INTERIOR_PROFILES
10
1443.302
20
442.538
30
0
40
1.250
0
CIRCLE
8
INTERIOR_PROFILES
10
1943.302
20
442.538
30
0
40
1.250
0
CIRCLE
8
INTERIOR_PROFILES
10
2032.564
20
388.752
30
0
40
1.700
0
CIRCLE
8
INTERIOR_PROFILES
10
2032.564
20
358.752
30
0
40
1.700
0
TEXT
8
PART_LABELS
10
1693.540
20
269.990
30
0
40
32.250
1
BM2LI1-070000
72
1
73
2
11
1693.540
21
269.990
31
0
0
LWPOLYLINE
8
OUTER_PROFILES
90
44
70
1
10
2025.069
20
219.914
10
2030.564
20
214.419
10
2030.564
20
205.490
10
1356.040
20
205.490
10
1356.040
20
214.419
10
1361.535
20
219.914
42
0.414214
10
1361.535
20
221.328
10
1356.011
20
226.852
10
1347.040
20
226.852
10
1347.040
20
272.652
10
1356.011
20
272.652
10
1361.535
20
278.176
42
0.414214
10
1361.535
20
279.590
10
1356.040
20
285.085
10
1356.040
20
294.014
10
1361.040
20
294.014
10
1363.302
20
292.014
10
1363.302
20
301.290
42
-0.286860
10
1364.707
20
303.538
42
-0.063085
10
1365.302
20
303.740
42
0.816497
10
1365.302
20
323.336
42
-0.063085
10
1364.707
20
323.538
42
-0.286860
10
1363.302
20
325.785
10
1363.302
20
332.800
42
-0.414214
10
1365.302
20
334.800
10
2021.302
20
334.800
42
-0.414214
10
2023.302
20
332.800
10
2023.302
20
325.785
42
-0.286860
10
2021.897
20
323.538
42
-0.063085
10
2021.302
20
323.336
42
0.816497
10
2021.302
20
303.740
42
-0.063085
10
2021.897
20
303.538
42
-0.286860
10
2023.302
20
301.290
10
2023.302
20
292.014
10
2025.564
20
294.014
10
2030.564
20
294.014
10
2030.564
20
285.085
10
2025.069
20
279.590
42
0.414214
10
2025.069
20
278.176
10
2030.593
20
272.652
10
2039.564
20
272.652
10
2039.564
20
226.852
10
2030.593
20
226.852
10
2025.069
20
221.328
42
0.414214
0
CIRCLE
8
INTERIOR_PROFILES
10
1693.302
20
313.538
30
0
40
1.250
0
CIRCLE
8
INTERIOR_PROFILES
10
1354.040
20
259.752
30
0
40
1.700
0
CIRCLE
8
INTERIOR_PROFILES
10
1354.040
20
229.752
30
0
40
1.700
0
CIRCLE
8
INTERIOR_PROFILES
10
1693.302
20
269.752
30
0
40
5.000
0
CIRCLE
8
INTERIOR_PROFILES
10
1443.302
20
313.538
30
0
40
1.250
0
CIRCLE
8
INTERIOR_PROFILES
10
1943.302
20
313.538
30
0
40
1.250
0
CIRCLE
8
INTERIOR_PROFILES
10
2032.564
20
259.752
30
0
40
1.700
0
CIRCLE
8
INTERIOR_PROFILES
10
2032.564
20
229.752
30
0
40
1.700
0
TEXT
8
PART_LABELS
10
1928.020
20
151.490
30
0
40
27.000
1
TS1BHH-080000
72
1
73
2
11
1928.020
21
151.490
31
0
0
CIRCLE
8
OUTER_PROFILES
10
1523.520
20
151.514
30
0
40
1.700
0
CIRCLE
8
OUTER_PROFILES
10
2318.782
20
151.514
30
0
40
1.700
0
CIRCLE
8
OUTER_PROFILES
10
1536.782
20
151.514
30
0
40
1.700
0
CIRCLE
8
OUTER_PROFILES
10
2292.782
20
151.514
30
0
40
1.700
0
CIRCLE
8
OUTER_PROFILES
10
1562.782
20
151.514
30
0
40
1.700
0
CIRCLE
8
OUTER_PROFILES
10
2246.782
20
151.514
30
0
40
1.700
0
CIRCLE
8
OUTER_PROFILES
10
1608.782
20
151.514
30
0
40
1.700
0
CIRCLE
8
OUTER_PROFILES
10
1536.782
20
109.752
30
0
40
1.700
0
CIRCLE
8
OUTER_PROFILES
10
2318.782
20
134.752
30
0
40
1.700
0
CIRCLE
8
OUTER_PROFILES
10
1536.782
20
134.752
30
0
40
1.700
0
CIRCLE
8
OUTER_PROFILES
10
2318.782
20
109.752
30
0
40
1.700
0
CIRCLE
8
OUTER_PROFILES
10
1536.782
20
193.276
30
0
40
1.700
0
CIRCLE
8
OUTER_PROFILES
10
2318.782
20
168.276
30
0
40
1.700
0
CIRCLE
8
OUTER_PROFILES
10
1536.782
20
168.276
30
0
40
1.700
0
CIRCLE
8
OUTER_PROFILES
10
2318.782
20
193.276
30
0
40
1.700
0
CIRCLE
8
OUTER_PROFILES
10
2332.044
20
151.514
30
0
40
1.700
0
TEXT
8
PART_LABELS
10
2140.540
20
651.280
30
0
40
27.000
1
TS1BHH-080000
72
1
73
2
11
2140.540
21
651.280
31
0
0
CIRCLE
8
OUTER_PROFILES
10
1736.040
20
651.304
30
0
40
1.700
0
CIRCLE
8
OUTER_PROFILES
10
2531.302
20
651.304
30
0
40
1.700
0
CIRCLE
8
OUTER_PROFILES
10
1749.302
20
651.304
30
0
40
1.700
0
CIRCLE
8
OUTER_PROFILES
10
2505.302
20
651.304
30
0
40
1.700
0
CIRCLE
8
OUTER_PROFILES
10
1775.302
20
651.304
30
0
40
1.700
0
CIRCLE
8
OUTER_PROFILES
10
2459.302
20
651.304
30
0
40
1.700
0
CIRCLE
8
OUTER_PROFILES
10
1821.302
20
651.304
30
0
40
1.700
0
CIRCLE
8
OUTER_PROFILES
10
1749.302
20
609.542
30
0
40
1.700
0
CIRCLE
8
OUTER_PROFILES
10
2531.302
20
634.542
30
0
40
1.700
0
CIRCLE
8
OUTER_PROFILES
10
1749.302
20
634.542
30
0
40
1.700
0
CIRCLE
8
OUTER_PROFILES
10
2531.302
20
609.542
30
0
40
1.700
0
CIRCLE
8
OUTER_PROFILES
10
1749.302
20
693.066
30
0
40
1.700
0
CIRCLE
8
OUTER_PROFILES
10
2531.302
20
668.066
30
0
40
1.700
0
CIRCLE
8
OUTER_PROFILES
10
1749.302
20
668.066
30
0
40
1.700
0
CIRCLE
8
OUTER_PROFILES
10
2531.302
20
693.066
30
0
40
1.700
0
CIRCLE
8
OUTER_PROFILES
10
2544.564
20
651.304
30
0
40
1.700
0
TEXT
8
PART_LABELS
10
2140.540
20
543.280
30
0
40
27.000
1
TS1BHH-080000
72
1
73
2
11
2140.540
21
543.280
31
0
0
CIRCLE
8
OUTER_PROFILES
10
1736.040
20
543.304
30
0
40
1.700
0
CIRCLE
8
OUTER_PROFILES
10
2531.302
20
543.304
30
0
40
1.700
0
CIRCLE
8
OUTER_PROFILES
10
1749.302
20
543.304
30
0
40
1.700
0
CIRCLE
8
OUTER_PROFILES
10
2505.302
20
543.304
30
0
40
1.700
0
CIRCLE
8
OUTER_PROFILES
10
1775.302
20
543.304
30
0
40
1.700
0
CIRCLE
8
OUTER_PROFILES
10
2459.302
20
543.304
30
0
40
1.700
0
CIRCLE
8
OUTER_PROFILES
10
1821.302
20
543.304
30
0
40
1.700
0
CIRCLE
8
OUTER_PROFILES
10
1749.302
20
501.542
30
0
40
1.700
0
CIRCLE
8
OUTER_PROFILES
10
2531.302
20
526.542
30
0
40
1.700
0
CIRCLE
8
OUTER_PROFILES
10
1749.302
20
526.542
30
0
40
1.700
0
CIRCLE
8
OUTER_PROFILES
10
2531.302
20
501.542
30
0
40
1.700
0
CIRCLE
8
OUTER_PROFILES
10
1749.302
20
585.066
30
0
40
1.700
0
CIRCLE
8
OUTER_PROFILES
10
2531.302
20
560.066
30
0
40
1.700
0
CIRCLE
8
OUTER_PROFILES
10
1749.302
20
560.066
30
0
40
1.700
0
CIRCLE
8
OUTER_PROFILES
10
2531.302
20
585.066
30
0
40
1.700
0
CIRCLE
8
OUTER_PROFILES
10
2544.564
20
543.304
30
0
40
1.700
0
TEXT
8
PART_LABELS
10
2200.120
20
1471.000
30
0
40
27.000
1
TS1BHH-080000
72
1
73
2
11
2200.120
21
1471.000
31
0
0
CIRCLE
8
OUTER_PROFILES
10
1795.620
20
1471.024
30
0
40
1.700
0
CIRCLE
8
OUTER_PROFILES
10
2590.882
20
1471.024
30
0
40
1.700
0
CIRCLE
8
OUTER_PROFILES
10
1808.882
20
1471.024
30
0
40
1.700
0
CIRCLE
8
OUTER_PROFILES
10
2564.882
20
1471.024
30
0
40
1.700
0
CIRCLE
8
OUTER_PROFILES
10
1834.882
20
1471.024
30
0
40
1.700
0
CIRCLE
8
OUTER_PROFILES
10
2518.882
20
1471.024
30
0
40
1.700
0
CIRCLE
8
OUTER_PROFILES
10
1880.882
20
1471.024
30
0
40
1.700
0
CIRCLE
8
OUTER_PROFILES
10
1808.882
20
1429.262
30
0
40
1.700
0
CIRCLE
8
OUTER_PROFILES
10
2590.882
20
1454.262
30
0
40
1.700
0
CIRCLE
8
OUTER_PROFILES
10
1808.882
20
1454.262
30
0
40
1.700
0
CIRCLE
8
OUTER_PROFILES
10
2590.882
20
1429.262
30
0
40
1.700
0
CIRCLE
8
OUTER_PROFILES
10
1808.882
20
1512.786
30
0
40
1.700
0
CIRCLE
8
OUTER_PROFILES
10
2590.882
20
1487.786
30
0
40
1.700
0
CIRCLE
8
OUTER_PROFILES
10
1808.882
20
1487.786
30
0
40
1.700
0
CIRCLE
8
OUTER_PROFILES
10
2590.882
20
1512.786
30
0
40
1.700
0
CIRCLE
8
OUTER_PROFILES
10
2604.144
20
1471.024
30
0
40
1.700
0
TEXT
8
PART_LABELS
10
2200.120
20
1363.000
30
0
40
27.000
1
TS1BHH-080000
72
1
73
2
11
2200.120
21
1363.000
31
0
0
CIRCLE
8
OUTER_PROFILES
10
1795.620
20
1363.024
30
0
40
1.700
0
CIRCLE
8
OUTER_PROFILES
10
2590.882
20
1363.024
30
0
40
1.700
0
CIRCLE
8
OUTER_PROFILES
10
1808.882
20
1363.024
30
0
40
1.700
0
CIRCLE
8
OUTER_PROFILES
10
2564.882
20
1363.024
30
0
40
1.700
0
CIRCLE
8
OUTER_PROFILES
10
1834.882
20
1363.024
30
0
40
1.700
0
CIRCLE
8
OUTER_PROFILES
10
2518.882
20
1363.024
30
0
40
1.700
0
CIRCLE
8
OUTER_PROFILES
10
1880.882
20
1363.024
30
0
40
1.700
0
CIRCLE
8
OUTER_PROFILES
10
1808.882
20
1321.262
30
0
40
1.700
0
CIRCLE
8
OUTER_PROFILES
10
2590.882
20
1346.262
30
0
40
1.700
0
CIRCLE
8
OUTER_PROFILES
10
1808.882
20
1346.262
30
0
40
1.700
0
CIRCLE
8
OUTER_PROFILES
10
2590.882
20
1321.262
30
0
40
1.700
0
CIRCLE
8
OUTER_PROFILES
10
1808.882
20
1404.786
30
0
40
1.700
0
CIRCLE
8
OUTER_PROFILES
10
2590.882
20
1379.786
30
0
40
1.700
0
CIRCLE
8
OUTER_PROFILES
10
1808.882
20
1379.786
30
0
40
1.700
0
CIRCLE
8
OUTER_PROFILES
10
2590.882
20
1404.786
30
0
40
1.700
0
CIRCLE
8
OUTER_PROFILES
10
2604.144
20
1363.024
30
0
40
1.700
0
TEXT
8
PART_LABELS
10
2200.120
20
1255.000
30
0
40
27.000
1
TS1BHH-080000
72
1
73
2
11
2200.120
21
1255.000
31
0
0
CIRCLE
8
OUTER_PROFILES
10
1795.620
20
1255.024
30
0
40
1.700
0
CIRCLE
8
OUTER_PROFILES
10
2590.882
20
1255.024
30
0
40
1.700
0
CIRCLE
8
OUTER_PROFILES
10
1808.882
20
1255.024
30
0
40
1.700
0
CIRCLE
8
OUTER_PROFILES
10
2564.882
20
1255.024
30
0
40
1.700
0
CIRCLE
8
OUTER_PROFILES
10
1834.882
20
1255.024
30
0
40
1.700
0
CIRCLE
8
OUTER_PROFILES
10
2518.882
20
1255.024
30
0
40
1.700
0
CIRCLE
8
OUTER_PROFILES
10
1880.882
20
1255.024
30
0
40
1.700
0
CIRCLE
8
OUTER_PROFILES
10
1808.882
20
1213.262
30
0
40
1.700
0
CIRCLE
8
OUTER_PROFILES
10
2590.882
20
1238.262
30
0
40
1.700
0
CIRCLE
8
OUTER_PROFILES
10
1808.882
20
1238.262
30
0
40
1.700
0
CIRCLE
8
OUTER_PROFILES
10
2590.882
20
1213.262
30
0
40
1.700
0
CIRCLE
8
OUTER_PROFILES
10
1808.882
20
1296.786
30
0
40
1.700
0
CIRCLE
8
OUTER_PROFILES
10
2590.882
20
1271.786
30
0
40
1.700
0
CIRCLE
8
OUTER_PROFILES
10
1808.882
20
1271.786
30
0
40
1.700
0
CIRCLE
8
OUTER_PROFILES
10
2590.882
20
1296.786
30
0
40
1.700
0
CIRCLE
8
OUTER_PROFILES
10
2604.144
20
1255.024
30
0
40
1.700
0
TEXT
8
PART_LABELS
10
2169.510
20
1139.500
30
0
40
30.750
1
FN1BLA-070000
72
1
73
2
11
2169.510
21
1139.500
31
0
0
ARC
8
OUTER_PROFILES
10
1820.348
20
1106.159
30
0
40
12.093
50
285.0973
51
333.9506
0
ARC
8
OUTER_PROFILES
10
1813.721
20
1110.103
30
0
40
19.790
50
332.1175
51
0.4598
0
ARC
8
OUTER_PROFILES
10
1824.054
20
1092.000
30
0
40
2.544
50
102.6267
51
180.0000
0
ARC
8
OUTER_PROFILES
10
1823.510
20
1080.000
30
0
40
2.000
50
180.0000
51
270.0000
0
ARC
8
OUTER_PROFILES
10
2515.510
20
1080.000
30
0
40
2.000
50
270.0000
51
0.0000
0
ARC
8
OUTER_PROFILES
10
2514.965
20
1092.000
30
0
40
2.545
50
0.0000
51
77.3733
0
ARC
8
OUTER_PROFILES
10
2523.805
20
1109.818
30
0
40
18.301
50
178.6095
51
222.2344
0
ARC
8
OUTER_PROFILES
10
2518.049
20
1104.957
30
0
40
10.775
50
223.6733
51
256.4369
0
ARC
8
OUTER_PROFILES
10
2518.672
20
1172.889
30
0
40
12.093
50
105.0973
51
153.9506
0
ARC
8
OUTER_PROFILES
10
2525.299
20
1168.945
30
0
40
19.790
50
152.1175
51
180.4598
0
ARC
8
OUTER_PROFILES
10
2514.966
20
1187.048
30
0
40
2.545
50
282.6267
51
0.0000
0
ARC
8
OUTER_PROFILES
10
2515.510
20
1199.048
30
0
40
2.000
50
0.0000
51
90.0000
0
ARC
8
OUTER_PROFILES
10
2322.510
20
1199.048
30
0
40
2.000
50
90.0000
51
180.0000
0
ARC
8
OUTER_PROFILES
10
2317.510
20
1198.786
30
0
40
2.000
50
0.0000
51
90.0000
0
ARC
8
OUTER_PROFILES
10
2021.510
20
1198.786
30
0
40
2.000
50
90.0000
51
180.0000
0
ARC
8
OUTER_PROFILES
10
2016.510
20
1199.048
30
0
40
2.000
50
0.0000
51
90.0000
0
ARC
8
OUTER_PROFILES
10
1823.510
20
1199.048
30
0
40
2.000
50
90.0000
51
180.0000
0
ARC
8
OUTER_PROFILES
10
1824.055
20
1187.048
30
0
40
2.544
50
180.0000
51
257.3733
0
ARC
8
OUTER_PROFILES
10
1815.215
20
1169.230
30
0
40
18.301
50
358.6095
51
42.2344
0
ARC
8
OUTER_PROFILES
10
1820.971
20
1174.091
30
0
40
10.775
50
43.6733
51
76.4369
0
CIRCLE
8
INTERIOR_PROFILES
10
1828.510
20
1081.000
30
0
40
1.700
0
CIRCLE
8
INTERIOR_PROFILES
10
2169.510
20
1104.262
30
0
40
1.700
0
CIRCLE
8
INTERIOR_PROFILES
10
1894.510
20
1104.262
30
0
40
1.700
0
CIRCLE
8
INTERIOR_PROFILES
10
2510.510
20
1081.000
30
0
40
1.700
0
CIRCLE
8
INTERIOR_PROFILES
10
2444.510
20
1104.262
30
0
40
1.700
0
CIRCLE
8
INTERIOR_PROFILES
10
1828.510
20
1198.048
30
0
40
1.700
0
CIRCLE
8
INTERIOR_PROFILES
10
1894.510
20
1174.786
30
0
40
1.700
0
CIRCLE
8
INTERIOR_PROFILES
10
2510.510
20
1198.048
30
0
40
1.700
0
CIRCLE
8
INTERIOR_PROFILES
10
2444.510
20
1174.786
30
0
40
1.700
0
CIRCLE
8
INTERIOR_PROFILES
10
2452.883
20
1139.524
30
0
40
1.700
0
CIRCLE
8
INTERIOR_PROFILES
10
2464.196
20
1119.928
30
0
40
1.700
0
CIRCLE
8
INTERIOR_PROFILES
10
2486.824
20
1119.928
30
0
40
1.700
0
CIRCLE
8
INTERIOR_PROFILES
10
2475.510
20
1162.151
30
0
40
1.700
0
CIRCLE
8
INTERIOR_PROFILES
10
2498.138
20
1139.524
30
0
40
1.700
0
CIRCLE
8
INTERIOR_PROFILES
10
1852.196
20
1119.928
30
0
40
1.700
0
CIRCLE
8
INTERIOR_PROFILES
10
1863.510
20
1162.151
30
0
40
1.700
0
CIRCLE
8
INTERIOR_PROFILES
10
2475.510
20
1116.896
30
0
40
1.700
0
CIRCLE
8
INTERIOR_PROFILES
10
1874.824
20
1159.120
30
0
40
1.700
0
CIRCLE
8
INTERIOR_PROFILES
10
1852.196
20
1159.120
30
0
40
1.700
0
CIRCLE
8
INTERIOR_PROFILES
10
1863.510
20
1139.524
30
0
40
1.700
0
CIRCLE
8
INTERIOR_PROFILES
10
2486.824
20
1159.120
30
0
40
1.700
0
CIRCLE
8
INTERIOR_PROFILES
10
2464.196
20
1159.120
30
0
40
1.700
0
CIRCLE
8
INTERIOR_PROFILES
10
1863.510
20
1116.896
30
0
40
1.700
0
CIRCLE
8
INTERIOR_PROFILES
10
1886.138
20
1139.524
30
0
40
1.700
0
CIRCLE
8
INTERIOR_PROFILES
10
1874.824
20
1119.928
30
0
40
1.700
0
CIRCLE
8
INTERIOR_PROFILES
10
1840.883
20
1139.524
30
0
40
1.700
0
TEXT
8
PART_LABELS
10
2138.535
20
1014.605
30
0
40
31.698
1
DSB0BA-070050
72
1
73
2
11
2138.535
21
1014.605
31
0
0
LWPOLYLINE
8
OUTER_PROFILES
90
32
70
1
10
1850.196
20
1063.501
42
0.414214
10
1851.610
20
1063.501
10
1856.105
20
1067.996
10
2420.963
20
1067.996
10
2425.458
20
1063.501
42
0.414214
10
2426.872
20
1063.501
10
2431.367
20
1067.996
10
2431.367
20
1077.996
10
2441.225
20
1077.996
10
2441.225
20
1063.996
10
2439.225
20
1061.734
10
2426.801
20
1049.310
42
0.414214
10
2426.801
20
1047.896
10
2439.296
20
1035.401
10
2441.558
20
1033.401
10
2455.558
20
1033.401
10
2455.558
20
967.472
10
2425.034
20
967.472
10
2425.034
20
951.210
10
1852.034
20
951.210
10
1852.034
20
967.472
10
1821.510
20
967.472
10
1821.510
20
1033.401
10
1835.510
20
1033.401
10
1837.772
20
1035.401
10
1850.267
20
1047.896
42
0.414214
10
1850.267
20
1049.310
10
1837.843
20
1061.734
10
1835.843
20
1063.996
10
1835.843
20
1077.996
10
1845.701
20
1077.996
10
1845.701
20
1067.996
0
CIRCLE
8
INTERIOR_PROFILES
10
1828.510
20
996.972
30
0
40
1.700
0
CIRCLE
8
INTERIOR_PROFILES
10
2138.534
20
973.472
30
0
40
1.700
0
CIRCLE
8
INTERIOR_PROFILES
10
2448.558
20
996.972
30
0
40
1.700
0
CIRCLE
8
INTERIOR_PROFILES
10
2388.534
20
973.472
30
0
40
1.700
0
CIRCLE
8
INTERIOR_PROFILES
10
1888.534
20
973.472
30
0
40
1.700
0
CIRCLE
8
INTERIOR_PROFILES
10
1828.510
20
1028.972
30
0
40
1.700
0
CIRCLE
8
INTERIOR_PROFILES
10
2448.558
20
1028.972
30
0
40
1.700
0
TEXT
8
PART_LABELS
10
2138.535
20
887.815
30
0
40
31.698
1
DSB0BA-070050
72
1
73
2
11
2138.535
21
887.815
31
0
0
LWPOLYLINE
8
OUTER_PROFILES
90
32
70
1
10
1850.196
20
936.711
42
0.414214
10
1851.610
20
936.711
10
1856.105
20
941.206
10
2420.963
20
941.206
10
2425.458
20
936.711
42
0.414214
10
2426.872
20
936.711
10
2431.367
20
941.206
10
2431.367
20
951.206
10
2441.225
20
951.206
10
2441.225
20
937.206
10
2439.225
20
934.944
10
2426.801
20
922.520
42
0.414214
10
2426.801
20
921.106
10
2439.296
20
908.611
10
2441.558
20
906.611
10
2455.558
20
906.611
10
2455.558
20
840.682
10
2425.034
20
840.682
10
2425.034
20
824.420
10
1852.034
20
824.420
10
1852.034
20
840.682
10
1821.510
20
840.682
10
1821.510
20
906.611
10
1835.510
20
906.611
10
1837.772
20
908.611
10
1850.267
20
921.106
42
0.414214
10
1850.267
20
922.520
10
1837.843
20
934.944
10
1835.843
20
937.206
10
1835.843
20
951.206
10
1845.701
20
951.206
10
1845.701
20
941.206
0
CIRCLE
8
INTERIOR_PROFILES
10
1828.510
20
870.182
30
0
40
1.700
0
CIRCLE
8
INTERIOR_PROFILES
10
2138.534
20
846.682
30
0
40
1.700
0
CIRCLE
8
INTERIOR_PROFILES
10
2448.558
20
870.182
30
0
40
1.700
0
CIRCLE
8
INTERIOR_PROFILES
10
2388.534
20
846.682
30
0
40
1.700
0
CIRCLE
8
INTERIOR_PROFILES
10
1888.534
20
846.682
30
0
40
1.700
0
CIRCLE
8
INTERIOR_PROFILES
10
1828.510
20
902.182
30
0
40
1.700
0
CIRCLE
8
INTERIOR_PROFILES
10
2448.558
20
902.182
30
0
40
1.700
0
TEXT
8
PART_LABELS
10
2218.010
20
774.920
30
0
40
24.750
1
BM1LI0-080000
72
1
73
2
11
2218.010
21
774.920
31
0
0
LWPOLYLINE
8
OUTER_PROFILES
90
22
70
1
10
1837.348
20
769.449
10
1849.843
20
781.944
10
1851.843
20
784.206
10
1851.843
20
824.730
10
2583.701
20
824.730
10
2583.701
20
784.206
10
2585.701
20
781.944
10
2598.196
20
769.449
42
0.414214
10
2599.610
20
769.449
10
2612.034
20
781.873
10
2614.034
20
781.873
10
2614.034
20
725.491
10
2599.610
20
739.915
42
0.414214
10
2598.196
20
739.915
10
2583.701
20
725.420
10
1851.843
20
725.420
10
1837.348
20
739.915
42
0.414214
10
1835.934
20
739.915
10
1821.510
20
725.491
10
1821.510
20
781.873
10
1823.510
20
781.873
10
1835.934
20
769.449
42
0.414214
0
CIRCLE
8
INTERIOR_PROFILES
10
2467.772
20
803.468
30
0
40
1.700
0
CIRCLE
8
INTERIOR_PROFILES
10
1967.772
20
776.944
30
0
40
5.000
0
CIRCLE
8
INTERIOR_PROFILES
10
2067.772
20
803.468
30
0
40
1.700
0
CIRCLE
8
INTERIOR_PROFILES
10
2367.772
20
803.468
30
0
40
1.700
0
CIRCLE
8
INTERIOR_PROFILES
10
1917.772
20
776.944
30
0
40
5.000
0
CIRCLE
8
INTERIOR_PROFILES
10
2017.772
20
776.944
30
0
40
5.000
0
CIRCLE
8
INTERIOR_PROFILES
10
2267.772
20
803.468
30
0
40
1.700
0
CIRCLE
8
INTERIOR_PROFILES
10
2167.772
20
803.468
30
0
40
1.700
0
CIRCLE
8
INTERIOR_PROFILES
10
1967.772
20
803.468
30
0
40
1.700
0
CIRCLE
8
INTERIOR_PROFILES
10
2607.034
20
749.682
30
0
40
1.700
0
CIRCLE
8
INTERIOR_PROFILES
10
2567.772
20
803.468
30
0
40
1.700
0
CIRCLE
8
INTERIOR_PROFILES
10
2067.772
20
776.944
30
0
40
5.000
0
CIRCLE
8
INTERIOR_PROFILES
10
2117.772
20
776.944
30
0
40
5.000
0
CIRCLE
8
INTERIOR_PROFILES
10
2217.772
20
776.944
30
0
40
5.000
0
CIRCLE
8
INTERIOR_PROFILES
10
2167.772
20
776.944
30
0
40
5.000
0
CIRCLE
8
INTERIOR_PROFILES
10
1867.772
20
803.468
30
0
40
1.700
0
CIRCLE
8
INTERIOR_PROFILES
10
1867.772
20
776.944
30
0
40
5.000
0
CIRCLE
8
INTERIOR_PROFILES
10
2367.772
20
776.944
30
0
40
5.000
0
CIRCLE
8
INTERIOR_PROFILES
10
2567.772
20
776.944
30
0
40
5.000
0
CIRCLE
8
INTERIOR_PROFILES
10
2467.772
20
732.420
30
0
40
5.000
0
CIRCLE
8
INTERIOR_PROFILES
10
2017.772
20
732.420
30
0
40
1.700
0
CIRCLE
8
INTERIOR_PROFILES
10
2317.772
20
776.944
30
0
40
5.000
0
CIRCLE
8
INTERIOR_PROFILES
10
2317.772
20
732.420
30
0
40
1.700
0
CIRCLE
8
INTERIOR_PROFILES
10
2467.772
20
776.944
30
0
40
5.000
0
CIRCLE
8
INTERIOR_PROFILES
10
2417.772
20
732.420
30
0
40
1.700
0
CIRCLE
8
INTERIOR_PROFILES
10
2367.772
20
732.420
30
0
40
5.000
0
CIRCLE
8
INTERIOR_PROFILES
10
2217.772
20
759.682
30
0
40
5.000
0
CIRCLE
8
INTERIOR_PROFILES
10
1917.772
20
732.420
30
0
40
1.700
0
CIRCLE
8
INTERIOR_PROFILES
10
2517.772
20
776.944
30
0
40
5.000
0
CIRCLE
8
INTERIOR_PROFILES
10
2267.772
20
776.944
30
0
40
5.000
0
CIRCLE
8
INTERIOR_PROFILES
10
2567.772
20
732.420
30
0
40
5.000
0
CIRCLE
8
INTERIOR_PROFILES
10
1867.772
20
732.420
30
0
40
5.000
0
CIRCLE
8
INTERIOR_PROFILES
10
2267.772
20
732.420
30
0
40
5.000
0
CIRCLE
8
INTERIOR_PROFILES
10
2417.772
20
776.944
30
0
40
5.000
0
CIRCLE
8
INTERIOR_PROFILES
10
2067.772
20
732.420
30
0
40
5.000
0
CIRCLE
8
INTERIOR_PROFILES
10
2167.772
20
732.420
30
0
40
5.000
0
CIRCLE
8
INTERIOR_PROFILES
10
2117.772
20
732.420
30
0
40
1.700
0
CIRCLE
8
INTERIOR_PROFILES
10
1967.772
20
732.420
30
0
40
5.000
0
CIRCLE
8
INTERIOR_PROFILES
10
2517.772
20
732.420
30
0
40
1.700
0
CIRCLE
8
INTERIOR_PROFILES
10
1828.510
20
749.682
30
0
40
1.700
0
CIRCLE
8
INTERIOR_PROFILES
10
2217.772
20
732.420
30
0
40
1.700
0
TEXT
8
PART_LABELS
10
2386.540
20
439.780
30
0
40
24.750
1
BM1LI0-070000
72
1
73
2
11
2386.540
21
439.780
31
0
0
LWPOLYLINE
8
OUTER_PROFILES
90
23
70
1
10
2716.726
20
434.309
42
0.414214
10
2718.140
20
434.309
10
2730.564
20
446.733
10
2732.564
20
446.733
10
2732.564
20
390.351
10
2718.140
20
404.775
42
0.414214
10
2716.726
20
404.775
10
2702.231
20
390.280
10
2070.373
20
390.280
10
2055.878
20
404.775
42
0.414214
10
2054.464
20
404.775
10
2040.040
20
390.351
10
2040.040
20
434.804
10
2053.969
20
434.804
10
2054.040
20
432.542
10
2056.302
20
432.542
10
2056.373
20
434.804
10
2068.373
20
446.804
10
2070.373
20
449.066
10
2070.373
20
489.590
10
2702.231
20
489.590
10
2702.231
20
449.066
10
2704.231
20
446.804
0
CIRCLE
8
INTERIOR_PROFILES
10
2436.302
20
441.804
30
0
40
5.000
0
CIRCLE
8
INTERIOR_PROFILES
10
2486.302
20
441.804
30
0
40
5.000
0
CIRCLE
8
INTERIOR_PROFILES
10
2636.302
20
441.804
30
0
40
5.000
0
CIRCLE
8
INTERIOR_PROFILES
10
2386.302
20
424.542
30
0
40
5.000
0
CIRCLE
8
INTERIOR_PROFILES
10
2686.302
20
441.804
30
0
40
5.000
0
CIRCLE
8
INTERIOR_PROFILES
10
2236.302
20
468.328
30
0
40
1.700
0
CIRCLE
8
INTERIOR_PROFILES
10
2636.302
20
397.280
30
0
40
5.000
0
CIRCLE
8
INTERIOR_PROFILES
10
2686.302
20
397.280
30
0
40
1.700
0
CIRCLE
8
INTERIOR_PROFILES
10
2286.302
20
397.280
30
0
40
1.700
0
CIRCLE
8
INTERIOR_PROFILES
10
2336.302
20
468.328
30
0
40
1.700
0
CIRCLE
8
INTERIOR_PROFILES
10
2136.302
20
441.804
30
0
40
5.000
0
CIRCLE
8
INTERIOR_PROFILES
10
2136.302
20
397.280
30
0
40
5.000
0
CIRCLE
8
INTERIOR_PROFILES
10
2086.302
20
441.804
30
0
40
5.000
0
CIRCLE
8
INTERIOR_PROFILES
10
2586.302
20
397.280
30
0
40
1.700
0
CIRCLE
8
INTERIOR_PROFILES
10
2336.302
20
441.804
30
0
40
5.000
0
CIRCLE
8
INTERIOR_PROFILES
10
2136.302
20
468.328
30
0
40
1.700
0
CIRCLE
8
INTERIOR_PROFILES
10
2536.302
20
468.328
30
0
40
1.700
0
CIRCLE
8
INTERIOR_PROFILES
10
2586.302
20
441.804
30
0
40
5.000
0
CIRCLE
8
INTERIOR_PROFILES
10
2636.302
20
468.328
30
0
40
1.700
0
CIRCLE
8
INTERIOR_PROFILES
10
2286.302
20
441.804
30
0
40
5.000
0
CIRCLE
8
INTERIOR_PROFILES
10
2536.302
20
441.804
30
0
40
5.000
0
CIRCLE
8
INTERIOR_PROFILES
10
2725.564
20
414.542
30
0
40
1.700
0
CIRCLE
8
INTERIOR_PROFILES
10
2186.302
20
441.804
30
0
40
5.000
0
CIRCLE
8
INTERIOR_PROFILES
10
2236.302
20
441.804
30
0
40
5.000
0
CIRCLE
8
INTERIOR_PROFILES
10
2436.302
20
468.328
30
0
40
1.700
0
CIRCLE
8
INTERIOR_PROFILES
10
2386.302
20
441.804
30
0
40
5.000
0
CIRCLE
8
INTERIOR_PROFILES
10
2236.302
20
397.280
30
0
40
5.000
0
CIRCLE
8
INTERIOR_PROFILES
10
2186.302
20
397.280
30
0
40
1.700
0
CIRCLE
8
INTERIOR_PROFILES
10
2336.302
20
397.280
30
0
40
5.000
0
CIRCLE
8
INTERIOR_PROFILES
10
2086.302
20
397.280
30
0
40
1.700
0
CIRCLE
8
INTERIOR_PROFILES
10
2436.302
20
397.280
30
0
40
5.000
0
CIRCLE
8
INTERIOR_PROFILES
10
2047.040
20
414.542
30
0
40
1.700
0
CIRCLE
8
INTERIOR_PROFILES
10
2386.302
20
397.280
30
0
40
1.700
0
CIRCLE
8
INTERIOR_PROFILES
10
2486.302
20
397.280
30
0
40
1.700
0
CIRCLE
8
INTERIOR_PROFILES
10
2536.302
20
397.280
30
0
40
5.000
0
TEXT
8
PART_LABELS
10
1913.020
20
67.490
30
0
40
15.000
1
SH0S12-080000
72
1
73
2
11
1913.020
21
67.490
31
0
0
CIRCLE
8
INTERIOR_PROFILES
10
1527.520
20
67.514
30
0
40
1.700
0
CIRCLE
8
INTERIOR_PROFILES
10
2298.044
20
67.514
30
0
40
1.700
0
LINE
8
OUTER_PROFILES
10
619.522
20
973.730
30
0
11
619.522
21
1224.915
31
0
0
LINE
8
OUTER_PROFILES
10
619.522
20
1224.915
30
0
11
619.522
21
1351.159
31
0
0
LINE
8
OUTER_PROFILES
10
619.522
20
1351.459
30
0
11
619.522
21
1477.703
31
0
0
LINE
8
OUTER_PROFILES
10
597.898
20
1499.238
30
0
11
597.898
21
1520.419
31
0
0
LINE
8
OUTER_PROFILES
10
16.262
20
307.650
30
0
11
16.262
21
335.912
31
0
0
LINE
8
OUTER_PROFILES
10
16.262
20
335.912
30
0
11
16.262
21
338.174
31
0
0
LINE
8
OUTER_PROFILES
10
16.262
20
923.174
30
0
11
16.262
21
925.436
31
0
0
LINE
8
OUTER_PROFILES
10
16.262
20
925.436
30
0
11
16.262
21
953.698
31
0
0
LINE
8
OUTER_PROFILES
10
0.000
20
38.463
30
0
11
0.000
21
289.321
31
0
0
LINE
8
OUTER_PROFILES
10
0.000
20
338.174
30
0
11
0.000
21
923.174
31
0
0
LINE
8
OUTER_PROFILES
10
488.262
20
307.650
30
0
11
488.262
21
335.912
31
0
0
LINE
8
OUTER_PROFILES
10
488.262
20
335.912
30
0
11
488.262
21
338.174
31
0
0
LINE
8
OUTER_PROFILES
10
488.262
20
923.174
30
0
11
488.262
21
925.436
31
0
0
LINE
8
OUTER_PROFILES
10
488.262
20
925.436
30
0
11
488.262
21
953.698
31
0
0
LINE
8
OUTER_PROFILES
10
504.524
20
338.174
30
0
11
504.524
21
923.174
31
0
0
LINE
8
OUTER_PROFILES
10
519.305
20
440.132
30
0
11
519.305
21
440.225
31
0
0
LINE
8
OUTER_PROFILES
10
516.694
20
420.870
30
0
11
516.694
21
437.870
31
0
0
LINE
8
OUTER_PROFILES
10
1079.654
20
420.870
30
0
11
1079.654
21
437.870
31
0
0
LINE
8
OUTER_PROFILES
10
1097.986
20
439.203
30
0
11
1097.986
21
723.613
31
0
0
LINE
8
OUTER_PROFILES
10
1097.986
20
723.613
30
0
11
1097.986
21
828.892
31
0
0
LINE
8
OUTER_PROFILES
10
1097.986
20
829.192
30
0
11
1097.986
21
934.471
31
0
0
LINE
8
OUTER_PROFILES
10
1097.986
20
934.471
30
0
11
1097.986
21
940.019
31
0
0
LINE
8
OUTER_PROFILES
10
1097.986
20
971.133
30
0
11
1097.986
21
1181.991
31
0
0
LINE
8
OUTER_PROFILES
10
705.191
20
20.130
30
0
11
705.191
21
38.463
31
0
0
LINE
8
OUTER_PROFILES
10
705.191
20
290.654
30
0
11
705.191
21
307.654
31
0
0
LINE
8
OUTER_PROFILES
10
18.333
20
20.130
30
0
11
18.333
21
37.130
31
0
0
LINE
8
OUTER_PROFILES
10
18.333
20
289.321
30
0
11
18.333
21
307.654
31
0
0
LINE
8
OUTER_PROFILES
10
723.524
20
12.350
30
0
11
723.524
21
24.350
31
0
0
LINE
8
OUTER_PROFILES
10
723.524
20
38.463
30
0
11
723.524
21
119.398
31
0
0
LINE
8
OUTER_PROFILES
10
723.524
20
119.398
30
0
11
723.524
21
125.248
31
0
0
LINE
8
OUTER_PROFILES
10
723.524
20
125.548
30
0
11
723.524
21
131.398
31
0
0
LINE
8
OUTER_PROFILES
10
723.524
20
131.398
30
0
11
723.524
21
151.683
31
0
0
LINE
8
OUTER_PROFILES
10
723.524
20
151.683
30
0
11
723.524
21
220.352
31
0
0
LINE
8
OUTER_PROFILES
10
723.524
20
220.652
30
0
11
723.524
21
289.321
31
0
0
LINE
8
OUTER_PROFILES
10
723.524
20
289.321
30
0
11
723.524
21
402.541
31
0
0
LINE
8
OUTER_PROFILES
10
641.144
20
1204.582
30
0
11
641.144
21
1220.582
31
0
0
LINE
8
OUTER_PROFILES
10
641.144
20
1499.237
30
0
11
641.144
21
1520.578
31
0
0
LINE
8
OUTER_PROFILES
10
1235.944
20
1204.582
30
0
11
1235.944
21
1220.582
31
0
0
LINE
8
OUTER_PROFILES
10
1235.944
20
1499.237
30
0
11
1235.944
21
1520.578
31
0
0
LINE
8
OUTER_PROFILES
10
1257.568
20
1224.915
30
0
11
1257.568
21
1477.773
31
0
0
LINE
8
OUTER_PROFILES
10
741.853
20
133.350
30
0
11
741.853
21
150.350
31
0
0
LINE
8
OUTER_PROFILES
10
741.853
20
402.541
30
0
11
741.853
21
420.874
31
0
0
LINE
8
OUTER_PROFILES
10
1328.711
20
133.350
30
0
11
1328.711
21
151.683
31
0
0
LINE
8
OUTER_PROFILES
10
1328.711
20
403.874
30
0
11
1328.711
21
420.874
31
0
0
LINE
8
OUTER_PROFILES
10
1347.044
20
151.683
30
0
11
1347.044
21
402.541
31
0
0
LINE
8
OUTER_PROFILES
10
1821.514
20
723.613
30
0
11
1821.514
21
934.471
31
0
0
LINE
8
OUTER_PROFILES
10
1821.514
20
971.133
30
0
11
1821.514
21
1080.000
31
0
0
LINE
8
OUTER_PROFILES
10
1821.514
20
1080.000
30
0
11
1821.514
21
1085.850
31
0
0
LINE
8
OUTER_PROFILES
10
1821.514
20
1086.150
30
0
11
1821.514
21
1092.000
31
0
0
LINE
8
OUTER_PROFILES
10
1821.514
20
1092.000
30
0
11
1821.514
21
1181.991
31
0
0
LINE
8
OUTER_PROFILES
10
1821.514
20
1187.048
30
0
11
1821.514
21
1199.048
31
0
0
LINE
8
OUTER_PROFILES
10
1803.181
20
705.280
30
0
11
1803.181
21
723.613
31
0
0
LINE
8
OUTER_PROFILES
10
1803.181
20
935.804
30
0
11
1803.181
21
952.800
31
0
0
LINE
8
OUTER_PROFILES
10
1803.181
20
952.800
30
0
11
1803.181
21
971.133
31
0
0
LINE
8
OUTER_PROFILES
10
1803.181
20
1183.324
30
0
11
1803.181
21
1200.324
31
0
0
LINE
8
OUTER_PROFILES
10
1116.323
20
705.280
30
0
11
1116.323
21
722.280
31
0
0
LINE
8
OUTER_PROFILES
10
1116.323
20
934.471
30
0
11
1116.323
21
952.800
31
0
0
LINE
8
OUTER_PROFILES
10
1116.323
20
952.800
30
0
11
1116.323
21
969.800
31
0
0
LINE
8
OUTER_PROFILES
10
1116.323
20
1181.991
30
0
11
1116.323
21
1200.324
31
0
0
LINE
8
OUTER_PROFILES
10
1519.520
20
12.350
30
0
11
1519.520
21
24.350
31
0
0
LINE
8
OUTER_PROFILES
10
1519.520
20
61.014
30
0
11
1519.520
21
74.014
31
0
0
LINE
8
OUTER_PROFILES
10
1519.520
20
119.398
30
0
11
1519.520
21
131.398
31
0
0
LINE
8
OUTER_PROFILES
10
1519.520
20
141.014
30
0
11
1519.520
21
162.014
31
0
0
LINE
8
OUTER_PROFILES
10
1272.520
20
98.374
30
0
11
1272.520
21
131.398
31
0
0
LINE
8
OUTER_PROFILES
10
1271.520
20
98.374
30
0
11
1271.520
21
131.136
31
0
0
LINE
8
OUTER_PROFILES
10
971.520
20
98.374
30
0
11
971.520
21
131.136
31
0
0
LINE
8
OUTER_PROFILES
10
970.520
20
98.374
30
0
11
970.520
21
131.398
31
0
0
LINE
8
OUTER_PROFILES
10
735.520
20
42.612
30
0
11
735.520
21
101.136
31
0
0
LINE
8
OUTER_PROFILES
10
1507.520
20
42.612
30
0
11
1507.520
21
101.136
31
0
0
LINE
8
OUTER_PROFILES
10
2315.782
20
138.752
30
0
11
2315.782
21
141.014
31
0
0
LINE
8
OUTER_PROFILES
10
2315.782
20
162.014
30
0
11
2315.782
21
164.276
31
0
0
LINE
8
OUTER_PROFILES
10
2242.782
20
138.752
30
0
11
2242.782
21
141.014
31
0
0
LINE
8
OUTER_PROFILES
10
2242.782
20
162.014
30
0
11
2242.782
21
164.276
31
0
0
LINE
8
OUTER_PROFILES
10
1539.782
20
138.752
30
0
11
1539.782
21
141.014
31
0
0
LINE
8
OUTER_PROFILES
10
1539.782
20
162.014
30
0
11
1539.782
21
164.276
31
0
0
LINE
8
OUTER_PROFILES
10
1612.782
20
138.752
30
0
11
1612.782
21
141.014
31
0
0
LINE
8
OUTER_PROFILES
10
1612.782
20
162.014
30
0
11
1612.782
21
164.276
31
0
0
LINE
8
OUTER_PROFILES
10
2336.044
20
141.014
30
0
11
2336.044
21
162.014
31
0
0
LINE
8
OUTER_PROFILES
10
2325.782
20
97.490
30
0
11
2325.782
21
102.490
31
0
0
LINE
8
OUTER_PROFILES
10
2325.782
20
102.490
30
0
11
2325.782
21
104.752
31
0
0
LINE
8
OUTER_PROFILES
10
2325.782
20
104.752
30
0
11
2325.782
21
138.752
31
0
0
LINE
8
OUTER_PROFILES
10
2325.782
20
138.752
30
0
11
2325.782
21
141.014
31
0
0
LINE
8
OUTER_PROFILES
10
2325.782
20
162.014
30
0
11
2325.782
21
164.276
31
0
0
LINE
8
OUTER_PROFILES
10
2325.782
20
164.276
30
0
11
2325.782
21
200.538
31
0
0
LINE
8
OUTER_PROFILES
10
2325.782
20
200.538
30
0
11
2325.782
21
205.538
31
0
0
LINE
8
OUTER_PROFILES
10
1529.782
20
97.490
30
0
11
1529.782
21
102.490
31
0
0
LINE
8
OUTER_PROFILES
10
1529.782
20
102.490
30
0
11
1529.782
21
104.752
31
0
0
LINE
8
OUTER_PROFILES
10
1529.782
20
104.752
30
0
11
1529.782
21
138.752
31
0
0
LINE
8
OUTER_PROFILES
10
1529.782
20
138.752
30
0
11
1529.782
21
141.014
31
0
0
LINE
8
OUTER_PROFILES
10
1529.782
20
162.014
30
0
11
1529.782
21
164.276
31
0
0
LINE
8
OUTER_PROFILES
10
1529.782
20
164.276
30
0
11
1529.782
21
198.276
31
0
0
LINE
8
OUTER_PROFILES
10
1529.782
20
198.276
30
0
11
1529.782
21
200.538
31
0
0
LINE
8
OUTER_PROFILES
10
1529.782
20
200.538
30
0
11
1529.782
21
205.538
31
0
0
LINE
8
OUTER_PROFILES
10
2528.302
20
530.542
30
0
11
2528.302
21
532.804
31
0
0
LINE
8
OUTER_PROFILES
10
2528.302
20
553.804
30
0
11
2528.302
21
556.066
31
0
0
LINE
8
OUTER_PROFILES
10
2528.302
20
638.542
30
0
11
2528.302
21
640.804
31
0
0
LINE
8
OUTER_PROFILES
10
2528.302
20
661.804
30
0
11
2528.302
21
664.066
31
0
0
LINE
8
OUTER_PROFILES
10
2455.302
20
530.542
30
0
11
2455.302
21
532.804
31
0
0
LINE
8
OUTER_PROFILES
10
2455.302
20
553.804
30
0
11
2455.302
21
556.066
31
0
0
LINE
8
OUTER_PROFILES
10
2455.302
20
638.542
30
0
11
2455.302
21
640.804
31
0
0
LINE
8
OUTER_PROFILES
10
2455.302
20
661.804
30
0
11
2455.302
21
664.066
31
0
0
LINE
8
OUTER_PROFILES
10
1752.302
20
530.542
30
0
11
1752.302
21
532.804
31
0
0
LINE
8
OUTER_PROFILES
10
1752.302
20
553.804
30
0
11
1752.302
21
556.066
31
0
0
LINE
8
OUTER_PROFILES
10
1752.302
20
638.542
30
0
11
1752.302
21
640.804
31
0
0
LINE
8
OUTER_PROFILES
10
1752.302
20
661.804
30
0
11
1752.302
21
664.066
31
0
0
LINE
8
OUTER_PROFILES
10
1825.302
20
530.542
30
0
11
1825.302
21
532.804
31
0
0
LINE
8
OUTER_PROFILES
10
1825.302
20
553.804
30
0
11
1825.302
21
556.066
31
0
0
LINE
8
OUTER_PROFILES
10
1825.302
20
638.542
30
0
11
1825.302
21
640.804
31
0
0
LINE
8
OUTER_PROFILES
10
1825.302
20
661.804
30
0
11
1825.302
21
664.066
31
0
0
LINE
8
OUTER_PROFILES
10
2548.564
20
532.804
30
0
11
2548.564
21
553.804
31
0
0
LINE
8
OUTER_PROFILES
10
2548.564
20
640.804
30
0
11
2548.564
21
661.804
31
0
0
LINE
8
OUTER_PROFILES
10
2538.302
20
489.280
30
0
11
2538.302
21
494.280
31
0
0
LINE
8
OUTER_PROFILES
10
2538.302
20
494.280
30
0
11
2538.302
21
496.542
31
0
0
LINE
8
OUTER_PROFILES
10
2538.302
20
496.542
30
0
11
2538.302
21
530.542
31
0
0
LINE
8
OUTER_PROFILES
10
2538.302
20
530.542
30
0
11
2538.302
21
532.804
31
0
0
LINE
8
OUTER_PROFILES
10
2538.302
20
553.804
30
0
11
2538.302
21
556.066
31
0
0
LINE
8
OUTER_PROFILES
10
2538.302
20
556.066
30
0
11
2538.302
21
592.328
31
0
0
LINE
8
OUTER_PROFILES
10
2538.302
20
592.328
30
0
11
2538.302
21
597.280
31
0
0
LINE
8
OUTER_PROFILES
10
2538.302
20
597.280
30
0
11
2538.302
21
602.280
31
0
0
LINE
8
OUTER_PROFILES
10
2538.302
20
602.280
30
0
11
2538.302
21
604.542
31
0
0
LINE
8
OUTER_PROFILES
10
2538.302
20
604.542
30
0
11
2538.302
21
638.542
31
0
0
LINE
8
OUTER_PROFILES
10
2538.302
20
638.542
30
0
11
2538.302
21
640.804
31
0
0
LINE
8
OUTER_PROFILES
10
2538.302
20
661.804
30
0
11
2538.302
21
664.066
31
0
0
LINE
8
OUTER_PROFILES
10
2538.302
20
664.066
30
0
11
2538.302
21
700.328
31
0
0
LINE
8
OUTER_PROFILES
10
2538.302
20
700.328
30
0
11
2538.302
21
705.328
31
0
0
LINE
8
OUTER_PROFILES
10
1742.302
20
489.280
30
0
11
1742.302
21
494.280
31
0
0
LINE
8
OUTER_PROFILES
10
1742.302
20
494.280
30
0
11
1742.302
21
496.542
31
0
0
LINE
8
OUTER_PROFILES
10
1742.302
20
496.542
30
0
11
1742.302
21
530.542
31
0
0
LINE
8
OUTER_PROFILES
10
1742.302
20
530.542
30
0
11
1742.302
21
532.804
31
0
0
LINE
8
OUTER_PROFILES
10
1742.302
20
553.804
30
0
11
1742.302
21
556.066
31
0
0
LINE
8
OUTER_PROFILES
10
1742.302
20
556.066
30
0
11
1742.302
21
590.066
31
0
0
LINE
8
OUTER_PROFILES
10
1742.302
20
590.066
30
0
11
1742.302
21
592.328
31
0
0
LINE
8
OUTER_PROFILES
10
1742.302
20
592.328
30
0
11
1742.302
21
597.280
31
0
0
LINE
8
OUTER_PROFILES
10
1742.302
20
597.280
30
0
11
1742.302
21
602.280
31
0
0
LINE
8
OUTER_PROFILES
10
1742.302
20
602.280
30
0
11
1742.302
21
604.542
31
0
0
LINE
8
OUTER_PROFILES
10
1742.302
20
604.542
30
0
11
1742.302
21
638.542
31
0
0
LINE
8
OUTER_PROFILES
10
1742.302
20
638.542
30
0
11
1742.302
21
640.804
31
0
0
LINE
8
OUTER_PROFILES
10
1742.302
20
661.804
30
0
11
1742.302
21
664.066
31
0
0
LINE
8
OUTER_PROFILES
10
1742.302
20
664.066
30
0
11
1742.302
21
698.066
31
0
0
LINE
8
OUTER_PROFILES
10
1742.302
20
698.066
30
0
11
1742.302
21
700.328
31
0
0
LINE
8
OUTER_PROFILES
10
1742.302
20
700.328
30
0
11
1742.302
21
705.328
31
0
0
LINE
8
OUTER_PROFILES
10
1732.040
20
532.804
30
0
11
1732.040
21
553.804
31
0
0
LINE
8
OUTER_PROFILES
10
1732.040
20
640.804
30
0
11
1732.040
21
661.804
31
0
0
LINE
8
OUTER_PROFILES
10
2587.882
20
1242.262
30
0
11
2587.882
21
1244.524
31
0
0
LINE
8
OUTER_PROFILES
10
2587.882
20
1265.524
30
0
11
2587.882
21
1267.786
31
0
0
LINE
8
OUTER_PROFILES
10
2587.882
20
1350.262
30
0
11
2587.882
21
1352.524
31
0
0
LINE
8
OUTER_PROFILES
10
2587.882
20
1373.524
30
0
11
2587.882
21
1375.786
31
0
0
LINE
8
OUTER_PROFILES
10
2587.882
20
1458.262
30
0
11
2587.882
21
1460.524
31
0
0
LINE
8
OUTER_PROFILES
10
2587.882
20
1481.524
30
0
11
2587.882
21
1483.786
31
0
0
LINE
8
OUTER_PROFILES
10
2514.882
20
1242.262
30
0
11
2514.882
21
1244.524
31
0
0
LINE
8
OUTER_PROFILES
10
2514.882
20
1265.524
30
0
11
2514.882
21
1267.786
31
0
0
LINE
8
OUTER_PROFILES
10
2514.882
20
1350.262
30
0
11
2514.882
21
1352.524
31
0
0
LINE
8
OUTER_PROFILES
10
2514.882
20
1373.524
30
0
11
2514.882
21
1375.786
31
0
0
LINE
8
OUTER_PROFILES
10
2514.882
20
1458.262
30
0
11
2514.882
21
1460.524
31
0
0
LINE
8
OUTER_PROFILES
10
2514.882
20
1481.524
30
0
11
2514.882
21
1483.786
31
0
0
LINE
8
OUTER_PROFILES
10
1811.882
20
1242.262
30
0
11
1811.882
21
1244.524
31
0
0
LINE
8
OUTER_PROFILES
10
1811.882
20
1265.524
30
0
11
1811.882
21
1267.786
31
0
0
LINE
8
OUTER_PROFILES
10
1811.882
20
1350.262
30
0
11
1811.882
21
1352.524
31
0
0
LINE
8
OUTER_PROFILES
10
1811.882
20
1373.524
30
0
11
1811.882
21
1375.786
31
0
0
LINE
8
OUTER_PROFILES
10
1811.882
20
1458.262
30
0
11
1811.882
21
1460.524
31
0
0
LINE
8
OUTER_PROFILES
10
1811.882
20
1481.524
30
0
11
1811.882
21
1483.786
31
0
0
LINE
8
OUTER_PROFILES
10
1884.882
20
1242.262
30
0
11
1884.882
21
1244.524
31
0
0
LINE
8
OUTER_PROFILES
10
1884.882
20
1265.524
30
0
11
1884.882
21
1267.786
31
0
0
LINE
8
OUTER_PROFILES
10
1884.882
20
1350.262
30
0
11
1884.882
21
1352.524
31
0
0
LINE
8
OUTER_PROFILES
10
1884.882
20
1373.524
30
0
11
1884.882
21
1375.786
31
0
0
LINE
8
OUTER_PROFILES
10
1884.882
20
1458.262
30
0
11
1884.882
21
1460.524
31
0
0
LINE
8
OUTER_PROFILES
10
1884.882
20
1481.524
30
0
11
1884.882
21
1483.786
31
0
0
LINE
8
OUTER_PROFILES
10
2608.144
20
1244.524
30
0
11
2608.144
21
1265.524
31
0
0
LINE
8
OUTER_PROFILES
10
2608.144
20
1352.524
30
0
11
2608.144
21
1373.524
31
0
0
LINE
8
OUTER_PROFILES
10
2608.144
20
1460.524
30
0
11
2608.144
21
1481.524
31
0
0
LINE
8
OUTER_PROFILES
10
2597.882
20
1201.000
30
0
11
2597.882
21
1206.000
31
0
0
LINE
8
OUTER_PROFILES
10
2597.882
20
1206.000
30
0
11
2597.882
21
1208.262
31
0
0
LINE
8
OUTER_PROFILES
10
2597.882
20
1208.262
30
0
11
2597.882
21
1242.262
31
0
0
LINE
8
OUTER_PROFILES
10
2597.882
20
1242.262
30
0
11
2597.882
21
1244.524
31
0
0
LINE
8
OUTER_PROFILES
10
2597.882
20
1265.524
30
0
11
2597.882
21
1267.786
31
0
0
LINE
8
OUTER_PROFILES
10
2597.882
20
1267.786
30
0
11
2597.882
21
1304.048
31
0
0
LINE
8
OUTER_PROFILES
10
2597.882
20
1304.048
30
0
11
2597.882
21
1309.000
31
0
0
LINE
8
OUTER_PROFILES
10
2597.882
20
1309.000
30
0
11
2597.882
21
1314.000
31
0
0
LINE
8
OUTER_PROFILES
10
2597.882
20
1314.000
30
0
11
2597.882
21
1316.262
31
0
0
LINE
8
OUTER_PROFILES
10
2597.882
20
1316.262
30
0
11
2597.882
21
1350.262
31
0
0
LINE
8
OUTER_PROFILES
10
2597.882
20
1350.262
30
0
11
2597.882
21
1352.524
31
0
0
LINE
8
OUTER_PROFILES
10
2597.882
20
1373.524
30
0
11
2597.882
21
1375.786
31
0
0
LINE
8
OUTER_PROFILES
10
2597.882
20
1375.786
30
0
11
2597.882
21
1412.048
31
0
0
LINE
8
OUTER_PROFILES
10
2597.882
20
1412.048
30
0
11
2597.882
21
1417.000
31
0
0
LINE
8
OUTER_PROFILES
10
2597.882
20
1417.000
30
0
11
2597.882
21
1422.000
31
0
0
LINE
8
OUTER_PROFILES
10
2597.882
20
1422.000
30
0
11
2597.882
21
1424.262
31
0
0
LINE
8
OUTER_PROFILES
10
2597.882
20
1424.262
30
0
11
2597.882
21
1458.262
31
0
0
LINE
8
OUTER_PROFILES
10
2597.882
20
1458.262
30
0
11
2597.882
21
1460.524
31
0
0
LINE
8
OUTER_PROFILES
10
2597.882
20
1481.524
30
0
11
2597.882
21
1483.786
31
0
0
LINE
8
OUTER_PROFILES
10
2597.882
20
1483.786
30
0
11
2597.882
21
1520.048
31
0
0
LINE
8
OUTER_PROFILES
10
2597.882
20
1520.048
30
0
11
2597.882
21
1525.048
31
0
0
LINE
8
OUTER_PROFILES
10
1801.882
20
1201.000
30
0
11
1801.882
21
1206.000
31
0
0
LINE
8
OUTER_PROFILES
10
1801.882
20
1206.000
30
0
11
1801.882
21
1208.262
31
0
0
LINE
8
OUTER_PROFILES
10
1801.882
20
1208.262
30
0
11
1801.882
21
1242.262
31
0
0
LINE
8
OUTER_PROFILES
10
1801.882
20
1242.262
30
0
11
1801.882
21
1244.524
31
0
0
LINE
8
OUTER_PROFILES
10
1801.882
20
1265.524
30
0
11
1801.882
21
1267.786
31
0
0
LINE
8
OUTER_PROFILES
10
1801.882
20
1267.786
30
0
11
1801.882
21
1301.786
31
0
0
LINE
8
OUTER_PROFILES
10
1801.882
20
1301.786
30
0
11
1801.882
21
1304.048
31
0
0
LINE
8
OUTER_PROFILES
10
1801.882
20
1304.048
30
0
11
1801.882
21
1309.000
31
0
0
LINE
8
OUTER_PROFILES
10
1801.882
20
1309.000
30
0
11
1801.882
21
1314.000
31
0
0
LINE
8
OUTER_PROFILES
10
1801.882
20
1314.000
30
0
11
1801.882
21
1316.262
31
0
0
LINE
8
OUTER_PROFILES
10
1801.882
20
1316.262
30
0
11
1801.882
21
1350.262
31
0
0
LINE
8
OUTER_PROFILES
10
1801.882
20
1350.262
30
0
11
1801.882
21
1352.524
31
0
0
LINE
8
OUTER_PROFILES
10
1801.882
20
1373.524
30
0
11
1801.882
21
1375.786
31
0
0
LINE
8
OUTER_PROFILES
10
1801.882
20
1375.786
30
0
11
1801.882
21
1409.786
31
0
0
LINE
8
OUTER_PROFILES
10
1801.882
20
1409.786
30
0
11
1801.882
21
1412.048
31
0
0
LINE
8
OUTER_PROFILES
10
1801.882
20
1412.048
30
0
11
1801.882
21
1417.000
31
0
0
LINE
8
OUTER_PROFILES
10
1801.882
20
1417.000
30
0
11
1801.882
21
1422.000
31
0
0
LINE
8
OUTER_PROFILES
10
1801.882
20
1422.000
30
0
11
1801.882
21
1424.262
31
0
0
LINE
8
OUTER_PROFILES
10
1801.882
20
1424.262
30
0
11
1801.882
21
1458.262
31
0
0
LINE
8
OUTER_PROFILES
10
1801.882
20
1458.262
30
0
11
1801.882
21
1460.524
31
0
0
LINE
8
OUTER_PROFILES
10
1801.882
20
1481.524
30
0
11
1801.882
21
1483.786
31
0
0
LINE
8
OUTER_PROFILES
10
1801.882
20
1483.786
30
0
11
1801.882
21
1517.786
31
0
0
LINE
8
OUTER_PROFILES
10
1801.882
20
1517.786
30
0
11
1801.882
21
1520.048
31
0
0
LINE
8
OUTER_PROFILES
10
1801.882
20
1520.048
30
0
11
1801.882
21
1525.048
31
0
0
LINE
8
OUTER_PROFILES
10
1791.620
20
1244.524
30
0
11
1791.620
21
1265.524
31
0
0
LINE
8
OUTER_PROFILES
10
1791.620
20
1352.524
30
0
11
1791.620
21
1373.524
31
0
0
LINE
8
OUTER_PROFILES
10
1791.620
20
1460.524
30
0
11
1791.620
21
1481.524
31
0
0
LINE
8
OUTER_PROFILES
10
1833.510
20
1110.262
30
0
11
1833.510
21
1168.786
31
0
0
LINE
8
OUTER_PROFILES
10
2517.510
20
1080.000
30
0
11
2517.510
21
1092.000
31
0
0
LINE
8
OUTER_PROFILES
10
2517.510
20
1187.048
30
0
11
2517.510
21
1199.048
31
0
0
LINE
8
OUTER_PROFILES
10
2505.510
20
1110.262
30
0
11
2505.510
21
1168.786
31
0
0
LINE
8
OUTER_PROFILES
10
2320.510
20
1166.024
30
0
11
2320.510
21
1199.048
31
0
0
LINE
8
OUTER_PROFILES
10
2319.510
20
1166.024
30
0
11
2319.510
21
1198.786
31
0
0
LINE
8
OUTER_PROFILES
10
2019.510
20
1166.024
30
0
11
2019.510
21
1198.786
31
0
0
LINE
8
OUTER_PROFILES
10
2018.510
20
1166.024
30
0
11
2018.510
21
1199.048
31
0
0
LINE
8
OUTER_PROFILES
10
1536.782
20
37.490
30
0
11
1536.782
21
44.752
31
0
0
LINE
8
OUTER_PROFILES
10
1536.782
20
44.752
30
0
11
1536.782
21
58.752
31
0
0
LINE
8
OUTER_PROFILES
10
1536.782
20
58.752
30
0
11
1536.782
21
61.014
31
0
0
LINE
8
OUTER_PROFILES
10
1536.782
20
74.014
30
0
11
1536.782
21
76.276
31
0
0
LINE
8
OUTER_PROFILES
10
1536.782
20
76.276
30
0
11
1536.782
21
90.276
31
0
0
LINE
8
OUTER_PROFILES
10
1536.782
20
90.276
30
0
11
1536.782
21
97.538
31
0
0
LINE
8
OUTER_PROFILES
10
2288.782
20
37.490
30
0
11
2288.782
21
44.752
31
0
0
LINE
8
OUTER_PROFILES
10
2288.782
20
44.752
30
0
11
2288.782
21
58.752
31
0
0
LINE
8
OUTER_PROFILES
10
2288.782
20
58.752
30
0
11
2288.782
21
61.014
31
0
0
LINE
8
OUTER_PROFILES
10
2288.782
20
74.014
30
0
11
2288.782
21
76.276
31
0
0
LINE
8
OUTER_PROFILES
10
2288.782
20
76.276
30
0
11
2288.782
21
90.276
31
0
0
LINE
8
OUTER_PROFILES
10
2288.782
20
90.276
30
0
11
2288.782
21
97.538
31
0
0
LINE
8
OUTER_PROFILES
10
2306.044
20
61.014
30
0
11
2306.044
21
74.014
31
0
0
LINE
8
OUTER_PROFILES
10
596.906
20
969.253
30
0
11
596.998
21
969.253
31
0
0
LINE
8
OUTER_PROFILES
10
599.260
20
967.045
30
0
11
615.260
21
967.045
31
0
0
LINE
8
OUTER_PROFILES
10
28.478
20
1524.996
30
0
11
594.997
21
1524.996
31
0
0
LINE
8
OUTER_PROFILES
10
644.115
20
1524.996
30
0
11
1232.973
21
1524.996
31
0
0
LINE
8
OUTER_PROFILES
10
0.000
20
338.174
30
0
11
14.000
21
338.174
31
0
0
LINE
8
OUTER_PROFILES
10
14.000
20
338.174
30
0
11
16.262
21
338.174
31
0
0
LINE
8
OUTER_PROFILES
10
488.262
20
338.174
30
0
11
490.524
21
338.174
31
0
0
LINE
8
OUTER_PROFILES
10
490.524
20
338.174
30
0
11
504.524
21
338.174
31
0
0
LINE
8
OUTER_PROFILES
10
0.000
20
923.174
30
0
11
14.000
21
923.174
31
0
0
LINE
8
OUTER_PROFILES
10
14.000
20
923.174
30
0
11
16.262
21
923.174
31
0
0
LINE
8
OUTER_PROFILES
10
488.262
20
923.174
30
0
11
490.524
21
923.174
31
0
0
LINE
8
OUTER_PROFILES
10
490.524
20
923.174
30
0
11
504.524
21
923.174
31
0
0
LINE
8
OUTER_PROFILES
10
16.262
20
953.698
30
0
11
488.262
21
953.698
31
0
0
LINE
8
OUTER_PROFILES
10
16.262
20
307.650
30
0
11
18.333
21
307.650
31
0
0
LINE
8
OUTER_PROFILES
10
18.333
20
307.650
30
0
11
253.147
21
307.650
31
0
0
LINE
8
OUTER_PROFILES
10
253.447
20
307.650
30
0
11
488.262
21
307.650
31
0
0
LINE
8
OUTER_PROFILES
10
488.262
20
307.650
30
0
11
705.191
21
307.650
31
0
0
LINE
8
OUTER_PROFILES
10
516.694
20
420.870
30
0
11
741.853
21
420.870
31
0
0
LINE
8
OUTER_PROFILES
10
741.853
20
420.870
30
0
11
910.603
21
420.870
31
0
0
LINE
8
OUTER_PROFILES
10
910.903
20
420.870
30
0
11
1079.654
21
420.870
31
0
0
LINE
8
OUTER_PROFILES
10
1079.654
20
420.870
30
0
11
1328.711
21
420.870
31
0
0
LINE
8
OUTER_PROFILES
10
1080.986
20
439.203
30
0
11
1097.986
21
439.203
31
0
0
LINE
8
OUTER_PROFILES
10
1080.986
20
940.019
30
0
11
1097.986
21
940.019
31
0
0
LINE
8
OUTER_PROFILES
10
1078.633
20
937.812
30
0
11
1078.725
21
937.812
31
0
0
LINE
8
OUTER_PROFILES
10
18.333
20
20.130
30
0
11
705.191
21
20.130
31
0
0
LINE
8
OUTER_PROFILES
10
0.000
20
38.463
30
0
11
17.000
21
38.463
31
0
0
LINE
8
OUTER_PROFILES
10
705.191
20
38.463
30
0
11
723.524
21
38.463
31
0
0
LINE
8
OUTER_PROFILES
10
0.000
20
289.321
30
0
11
18.333
21
289.321
31
0
0
LINE
8
OUTER_PROFILES
10
706.524
20
289.321
30
0
11
723.524
21
289.321
31
0
0
LINE
8
OUTER_PROFILES
10
623.782
20
1220.844
30
0
11
639.782
21
1220.844
31
0
0
LINE
8
OUTER_PROFILES
10
1237.306
20
1220.844
30
0
11
1253.306
21
1220.844
31
0
0
LINE
8
OUTER_PROFILES
10
644.115
20
1200.320
30
0
11
1116.323
21
1200.320
31
0
0
LINE
8
OUTER_PROFILES
10
1116.323
20
1200.320
30
0
11
1174.498
21
1200.320
31
0
0
LINE
8
OUTER_PROFILES
10
1174.798
20
1200.320
30
0
11
1232.973
21
1200.320
31
0
0
LINE
8
OUTER_PROFILES
10
1232.973
20
1200.320
30
0
11
1803.181
21
1200.320
31
0
0
LINE
8
OUTER_PROFILES
10
723.520
20
402.541
30
0
11
741.853
21
402.541
31
0
0
LINE
8
OUTER_PROFILES
10
1330.044
20
402.541
30
0
11
1347.044
21
402.541
31
0
0
LINE
8
OUTER_PROFILES
10
723.520
20
151.683
30
0
11
740.520
21
151.683
31
0
0
LINE
8
OUTER_PROFILES
10
1328.711
20
151.683
30
0
11
1347.044
21
151.683
31
0
0
LINE
8
OUTER_PROFILES
10
725.520
20
133.350
30
0
11
741.853
21
133.350
31
0
0
LINE
8
OUTER_PROFILES
10
741.853
20
133.350
30
0
11
855.036
21
133.350
31
0
0
LINE
8
OUTER_PROFILES
10
855.336
20
133.350
30
0
11
968.520
21
133.350
31
0
0
LINE
8
OUTER_PROFILES
10
968.520
20
133.350
30
0
11
1274.520
21
133.350
31
0
0
LINE
8
OUTER_PROFILES
10
1274.520
20
133.350
30
0
11
1301.466
21
133.350
31
0
0
LINE
8
OUTER_PROFILES
10
1301.766
20
133.350
30
0
11
1328.711
21
133.350
31
0
0
LINE
8
OUTER_PROFILES
10
1328.711
20
133.350
30
0
11
1517.520
21
133.350
31
0
0
LINE
8
OUTER_PROFILES
10
1097.990
20
1181.991
30
0
11
1116.323
21
1181.991
31
0
0
LINE
8
OUTER_PROFILES
10
1804.514
20
1181.991
30
0
11
1821.514
21
1181.991
31
0
0
LINE
8
OUTER_PROFILES
10
1097.990
20
971.133
30
0
11
1114.990
21
971.133
31
0
0
LINE
8
OUTER_PROFILES
10
1803.181
20
971.133
30
0
11
1821.514
21
971.133
31
0
0
LINE
8
OUTER_PROFILES
10
1116.323
20
952.800
30
0
11
1345.076
21
952.800
31
0
0
LINE
8
OUTER_PROFILES
10
1345.376
20
952.800
30
0
11
1574.128
21
952.800
31
0
0
LINE
8
OUTER_PROFILES
10
1574.428
20
952.800
30
0
11
1803.181
21
952.800
31
0
0
LINE
8
OUTER_PROFILES
10
1097.990
20
723.613
30
0
11
1114.990
21
723.613
31
0
0
LINE
8
OUTER_PROFILES
10
1803.181
20
723.613
30
0
11
1821.514
21
723.613
31
0
0
LINE
8
OUTER_PROFILES
10
1116.323
20
705.280
30
0
11
1803.181
21
705.280
31
0
0
LINE
8
OUTER_PROFILES
10
1097.990
20
934.471
30
0
11
1116.323
21
934.471
31
0
0
LINE
8
OUTER_PROFILES
10
1804.514
20
934.471
30
0
11
1821.514
21
934.471
31
0
0
LINE
8
OUTER_PROFILES
10
970.520
20
98.374
30
0
11
971.520
21
98.374
31
0
0
LINE
8
OUTER_PROFILES
10
1271.520
20
98.374
30
0
11
1272.520
21
98.374
31
0
0
LINE
8
OUTER_PROFILES
10
973.520
20
133.136
30
0
11
1269.520
21
133.136
31
0
0
LINE
8
OUTER_PROFILES
10
725.520
20
10.350
30
0
11
1517.520
21
10.350
31
0
0
LINE
8
OUTER_PROFILES
10
1539.782
20
164.276
30
0
11
1612.782
21
164.276
31
0
0
LINE
8
OUTER_PROFILES
10
2242.782
20
164.276
30
0
11
2315.782
21
164.276
31
0
0
LINE
8
OUTER_PROFILES
10
1519.520
20
162.014
30
0
11
1529.782
21
162.014
31
0
0
LINE
8
OUTER_PROFILES
10
1539.782
20
162.014
30
0
11
1612.782
21
162.014
31
0
0
LINE
8
OUTER_PROFILES
10
2242.782
20
162.014
30
0
11
2315.782
21
162.014
31
0
0
LINE
8
OUTER_PROFILES
10
2325.782
20
162.014
30
0
11
2336.044
21
162.014
31
0
0
LINE
8
OUTER_PROFILES
10
1519.520
20
141.014
30
0
11
1529.782
21
141.014
31
0
0
LINE
8
OUTER_PROFILES
10
1539.782
20
141.014
30
0
11
1612.782
21
141.014
31
0
0
LINE
8
OUTER_PROFILES
10
2242.782
20
141.014
30
0
11
2315.782
21
141.014
31
0
0
LINE
8
OUTER_PROFILES
10
2325.782
20
141.014
30
0
11
2336.044
21
141.014
31
0
0
LINE
8
OUTER_PROFILES
10
1539.782
20
138.752
30
0
11
1612.782
21
138.752
31
0
0
LINE
8
OUTER_PROFILES
10
2242.782
20
138.752
30
0
11
2315.782
21
138.752
31
0
0
LINE
8
OUTER_PROFILES
10
1529.782
20
205.538
30
0
11
2325.782
21
205.538
31
0
0
LINE
8
OUTER_PROFILES
10
1529.782
20
97.490
30
0
11
1536.782
21
97.490
31
0
0
LINE
8
OUTER_PROFILES
10
1536.782
20
97.490
30
0
11
1787.249
21
97.490
31
0
0
LINE
8
OUTER_PROFILES
10
1787.549
20
97.490
30
0
11
2038.015
21
97.490
31
0
0
LINE
8
OUTER_PROFILES
10
2038.315
20
97.490
30
0
11
2288.782
21
97.490
31
0
0
LINE
8
OUTER_PROFILES
10
2288.782
20
97.490
30
0
11
2325.782
21
97.490
31
0
0
LINE
8
OUTER_PROFILES
10
1752.302
20
664.066
30
0
11
1825.302
21
664.066
31
0
0
LINE
8
OUTER_PROFILES
10
2455.302
20
664.066
30
0
11
2528.302
21
664.066
31
0
0
LINE
8
OUTER_PROFILES
10
1732.040
20
661.804
30
0
11
1742.302
21
661.804
31
0
0
LINE
8
OUTER_PROFILES
10
1752.302
20
661.804
30
0
11
1825.302
21
661.804
31
0
0
LINE
8
OUTER_PROFILES
10
2455.302
20
661.804
30
0
11
2528.302
21
661.804
31
0
0
LINE
8
OUTER_PROFILES
10
2538.302
20
661.804
30
0
11
2548.564
21
661.804
31
0
0
LINE
8
OUTER_PROFILES
10
1732.040
20
640.804
30
0
11
1742.302
21
640.804
31
0
0
LINE
8
OUTER_PROFILES
10
1752.302
20
640.804
30
0
11
1825.302
21
640.804
31
0
0
LINE
8
OUTER_PROFILES
10
2455.302
20
640.804
30
0
11
2528.302
21
640.804
31
0
0
LINE
8
OUTER_PROFILES
10
2538.302
20
640.804
30
0
11
2548.564
21
640.804
31
0
0
LINE
8
OUTER_PROFILES
10
1752.302
20
638.542
30
0
11
1825.302
21
638.542
31
0
0
LINE
8
OUTER_PROFILES
10
2455.302
20
638.542
30
0
11
2528.302
21
638.542
31
0
0
LINE
8
OUTER_PROFILES
10
1742.302
20
705.328
30
0
11
2538.302
21
705.328
31
0
0
LINE
8
OUTER_PROFILES
10
1742.302
20
597.280
30
0
11
2538.302
21
597.280
31
0
0
LINE
8
OUTER_PROFILES
10
1752.302
20
556.066
30
0
11
1825.302
21
556.066
31
0
0
LINE
8
OUTER_PROFILES
10
2455.302
20
556.066
30
0
11
2528.302
21
556.066
31
0
0
LINE
8
OUTER_PROFILES
10
1732.040
20
553.804
30
0
11
1742.302
21
553.804
31
0
0
LINE
8
OUTER_PROFILES
10
1752.302
20
553.804
30
0
11
1825.302
21
553.804
31
0
0
LINE
8
OUTER_PROFILES
10
2455.302
20
553.804
30
0
11
2528.302
21
553.804
31
0
0
LINE
8
OUTER_PROFILES
10
2538.302
20
553.804
30
0
11
2548.564
21
553.804
31
0
0
LINE
8
OUTER_PROFILES
10
1732.040
20
532.804
30
0
11
1742.302
21
532.804
31
0
0
LINE
8
OUTER_PROFILES
10
1752.302
20
532.804
30
0
11
1825.302
21
532.804
31
0
0
LINE
8
OUTER_PROFILES
10
2455.302
20
532.804
30
0
11
2528.302
21
532.804
31
0
0
LINE
8
OUTER_PROFILES
10
2538.302
20
532.804
30
0
11
2548.564
21
532.804
31
0
0
LINE
8
OUTER_PROFILES
10
1752.302
20
530.542
30
0
11
1825.302
21
530.542
31
0
0
LINE
8
OUTER_PROFILES
10
2455.302
20
530.542
30
0
11
2528.302
21
530.542
31
0
0
LINE
8
OUTER_PROFILES
10
1742.302
20
597.328
30
0
11
2538.302
21
597.328
31
0
0
LINE
8
OUTER_PROFILES
10
1742.302
20
489.280
30
0
11
2538.302
21
489.280
31
0
0
LINE
8
OUTER_PROFILES
10
1811.882
20
1483.786
30
0
11
1884.882
21
1483.786
31
0
0
LINE
8
OUTER_PROFILES
10
2514.882
20
1483.786
30
0
11
2587.882
21
1483.786
31
0
0
LINE
8
OUTER_PROFILES
10
1791.620
20
1481.524
30
0
11
1801.882
21
1481.524
31
0
0
LINE
8
OUTER_PROFILES
10
1811.882
20
1481.524
30
0
11
1884.882
21
1481.524
31
0
0
LINE
8
OUTER_PROFILES
10
2514.882
20
1481.524
30
0
11
2587.882
21
1481.524
31
0
0
LINE
8
OUTER_PROFILES
10
2597.882
20
1481.524
30
0
11
2608.144
21
1481.524
31
0
0
LINE
8
OUTER_PROFILES
10
1791.620
20
1460.524
30
0
11
1801.882
21
1460.524
31
0
0
LINE
8
OUTER_PROFILES
10
1811.882
20
1460.524
30
0
11
1884.882
21
1460.524
31
0
0
LINE
8
OUTER_PROFILES
10
2514.882
20
1460.524
30
0
11
2587.882
21
1460.524
31
0
0
LINE
8
OUTER_PROFILES
10
2597.882
20
1460.524
30
0
11
2608.144
21
1460.524
31
0
0
LINE
8
OUTER_PROFILES
10
1811.882
20
1458.262
30
0
11
1884.882
21
1458.262
31
0
0
LINE
8
OUTER_PROFILES
10
2514.882
20
1458.262
30
0
11
2587.882
21
1458.262
31
0
0
LINE
8
OUTER_PROFILES
10
1801.882
20
1525.048
30
0
11
2597.882
21
1525.048
31
0
0
LINE
8
OUTER_PROFILES
10
1801.882
20
1417.000
30
0
11
2067.015
21
1417.000
31
0
0
LINE
8
OUTER_PROFILES
10
2067.315
20
1417.000
30
0
11
2332.449
21
1417.000
31
0
0
LINE
8
OUTER_PROFILES
10
2332.749
20
1417.000
30
0
11
2597.882
21
1417.000
31
0
0
LINE
8
OUTER_PROFILES
10
1811.882
20
1375.786
30
0
11
1884.882
21
1375.786
31
0
0
LINE
8
OUTER_PROFILES
10
2514.882
20
1375.786
30
0
11
2587.882
21
1375.786
31
0
0
LINE
8
OUTER_PROFILES
10
1791.620
20
1373.524
30
0
11
1801.882
21
1373.524
31
0
0
LINE
8
OUTER_PROFILES
10
1811.882
20
1373.524
30
0
11
1884.882
21
1373.524
31
0
0
LINE
8
OUTER_PROFILES
10
2514.882
20
1373.524
30
0
11
2587.882
21
1373.524
31
0
0
LINE
8
OUTER_PROFILES
10
2597.882
20
1373.524
30
0
11
2608.144
21
1373.524
31
0
0
LINE
8
OUTER_PROFILES
10
1791.620
20
1352.524
30
0
11
1801.882
21
1352.524
31
0
0
LINE
8
OUTER_PROFILES
10
1811.882
20
1352.524
30
0
11
1884.882
21
1352.524
31
0
0
LINE
8
OUTER_PROFILES
10
2514.882
20
1352.524
30
0
11
2587.882
21
1352.524
31
0
0
LINE
8
OUTER_PROFILES
10
2597.882
20
1352.524
30
0
11
2608.144
21
1352.524
31
0
0
LINE
8
OUTER_PROFILES
10
1811.882
20
1350.262
30
0
11
1884.882
21
1350.262
31
0
0
LINE
8
OUTER_PROFILES
10
2514.882
20
1350.262
30
0
11
2587.882
21
1350.262
31
0
0
LINE
8
OUTER_PROFILES
10
1801.882
20
1309.000
30
0
11
2067.015
21
1309.000
31
0
0
LINE
8
OUTER_PROFILES
10
2067.315
20
1309.000
30
0
11
2332.449
21
1309.000
31
0
0
LINE
8
OUTER_PROFILES
10
2332.749
20
1309.000
30
0
11
2597.882
21
1309.000
31
0
0
LINE
8
OUTER_PROFILES
10
1811.882
20
1267.786
30
0
11
1884.882
21
1267.786
31
0
0
LINE
8
OUTER_PROFILES
10
2514.882
20
1267.786
30
0
11
2587.882
21
1267.786
31
0
0
LINE
8
OUTER_PROFILES
10
1791.620
20
1265.524
30
0
11
1801.882
21
1265.524
31
0
0
LINE
8
OUTER_PROFILES
10
1811.882
20
1265.524
30
0
11
1884.882
21
1265.524
31
0
0
LINE
8
OUTER_PROFILES
10
2514.882
20
1265.524
30
0
11
2587.882
21
1265.524
31
0
0
LINE
8
OUTER_PROFILES
10
2597.882
20
1265.524
30
0
11
2608.144
21
1265.524
31
0
0
LINE
8
OUTER_PROFILES
10
1791.620
20
1244.524
30
0
11
1801.882
21
1244.524
31
0
0
LINE
8
OUTER_PROFILES
10
1811.882
20
1244.524
30
0
11
1884.882
21
1244.524
31
0
0
LINE
8
OUTER_PROFILES
10
2514.882
20
1244.524
30
0
11
2587.882
21
1244.524
31
0
0
LINE
8
OUTER_PROFILES
10
2597.882
20
1244.524
30
0
11
2608.144
21
1244.524
31
0
0
LINE
8
OUTER_PROFILES
10
1811.882
20
1242.262
30
0
11
1884.882
21
1242.262
31
0
0
LINE
8
OUTER_PROFILES
10
2514.882
20
1242.262
30
0
11
2587.882
21
1242.262
31
0
0
LINE
8
OUTER_PROFILES
10
1801.882
20
1201.000
30
0
11
1823.510
21
1201.000
31
0
0
LINE
8
OUTER_PROFILES
10
1823.510
20
1201.000
30
0
11
1919.860
21
1201.000
31
0
0
LINE
8
OUTER_PROFILES
10
1920.160
20
1201.000
30
0
11
2016.510
21
1201.000
31
0
0
LINE
8
OUTER_PROFILES
10
2016.510
20
1201.000
30
0
11
2322.510
21
1201.000
31
0
0
LINE
8
OUTER_PROFILES
10
2322.510
20
1201.000
30
0
11
2418.860
21
1201.000
31
0
0
LINE
8
OUTER_PROFILES
10
2419.160
20
1201.000
30
0
11
2515.510
21
1201.000
31
0
0
LINE
8
OUTER_PROFILES
10
2515.510
20
1201.000
30
0
11
2597.882
21
1201.000
31
0
0
LINE
8
OUTER_PROFILES
10
1823.510
20
1078.000
30
0
11
2515.510
21
1078.000
31
0
0
LINE
8
OUTER_PROFILES
10
2018.510
20
1166.024
30
0
11
2019.510
21
1166.024
31
0
0
LINE
8
OUTER_PROFILES
10
2319.510
20
1166.024
30
0
11
2320.510
21
1166.024
31
0
0
LINE
8
OUTER_PROFILES
10
2021.510
20
1200.786
30
0
11
2317.510
21
1200.786
31
0
0
LINE
8
OUTER_PROFILES
10
1519.520
20
74.014
30
0
11
1536.782
21
74.014
31
0
0
LINE
8
OUTER_PROFILES
10
2288.782
20
74.014
30
0
11
2306.044
21
74.014
31
0
0
LINE
8
OUTER_PROFILES
10
1519.520
20
61.014
30
0
11
1536.782
21
61.014
31
0
0
LINE
8
OUTER_PROFILES
10
2288.782
20
61.014
30
0
11
2306.044
21
61.014
31
0
0
LINE
8
OUTER_PROFILES
10
1536.782
20
37.490
30
0
11
2288.782
21
37.490
31
0
0
ENDSEC
0
EOF