0
SECTION
2
HEADER
9
$INSUNITS
70
4
0
ENDSEC
0
SECTION
2
ENTITIES
0
LWPOLYLINE
8
SHEET_BORDER
90
5
70
1
10
0.000
20
0.000
10
3050.000
20
0.000
10
3050.000
20
1525.000
10
0.000
20
1525.000
10
0.000
20
0.000
0
TEXT
8
PART_LABELS
10
1231.885
20
628.130
30
0
40
50.000
1
BSRUTH-000000
72
1
73
2
11
1231.885
21
628.130
31
0
0
ARC
8
OUTER_PROFILES
10
1034.821
20
555.900
30
0
40
10.000
50
71.9483
51
90.0000
0
LINE
8
OUTER_PROFILES
10
1034.821
20
565.900
30
0
11
0.000
21
565.900
31
0
0
LINE
8
OUTER_PROFILES
10
0.000
20
565.900
30
0
11
0.000
21
0.000
31
0
0
LINE
8
OUTER_PROFILES
10
0.000
20
0.000
30
0
11
2463.767
21
0.000
31
0
0
LINE
8
OUTER_PROFILES
10
2463.767
20
0.000
30
0
11
2463.767
21
565.900
31
0
0
LINE
8
OUTER_PROFILES
10
2463.767
20
565.900
30
0
11
1774.767
21
565.900
31
0
0
LINE
8
OUTER_PROFILES
10
1774.767
20
565.900
30
0
11
1772.505
21
565.000
31
0
0
LINE
8
OUTER_PROFILES
10
1772.505
20
565.000
30
0
11
1774.505
21
567.262
31
0
0
LINE
8
OUTER_PROFILES
10
1774.505
20
567.262
30
0
11
1774.505
21
1256.262
31
0
0
LINE
8
OUTER_PROFILES
10
1774.505
20
1256.262
30
0
11
261.880
21
1256.262
31
0
0
LINE
8
OUTER_PROFILES
10
261.880
20
1256.262
30
0
11
1035.959
21
567.262
31
0
0
ARC
8
OUTER_PROFILES
10
1030.022
20
556.235
30
0
40
12.524
50
44.4167
51
61.7011
0
ARC
8
OUTER_PROFILES
10
1034.821
20
555.900
30
0
40
10.000
50
65.5054
51
71.9483
0
TEXT
8
PART_LABELS
10
2173.500
20
964.500
30
0
40
50.000
1
BK1DN1-080000
72
1
73
2
11
2173.500
21
964.500
31
0
0
LINE
8
OUTER_PROFILES
10
2563.048
20
585.595
30
0
11
2568.048
21
590.595
31
0
0
LINE
8
OUTER_PROFILES
10
2568.048
20
590.595
30
0
11
2568.048
21
1338.453
31
0
0
LINE
8
OUTER_PROFILES
10
2568.048
20
1338.453
30
0
11
2563.048
21
1343.453
31
0
0
ARC
8
OUTER_PROFILES
10
2560.264
20
1340.214
30
0
40
4.272
50
49.3224
51
82.9774
0
LINE
8
OUTER_PROFILES
10
2560.786
20
1344.453
30
0
11
2554.786
21
1344.453
31
0
0
ARC
8
OUTER_PROFILES
10
2555.314
20
1340.201
30
0
40
4.285
50
97.0769
51
130.6233
0
LINE
8
OUTER_PROFILES
10
2552.524
20
1343.453
30
0
11
2552.453
21
1343.524
31
0
0
ARC
8
OUTER_PROFILES
10
2549.201
20
1346.314
30
0
40
4.285
50
319.3767
51
352.9231
0
LINE
8
OUTER_PROFILES
10
2553.453
20
1345.786
30
0
11
2553.453
21
1351.786
31
0
0
ARC
8
OUTER_PROFILES
10
2549.214
20
1351.264
30
0
40
4.272
50
7.0226
51
40.6776
0
LINE
8
OUTER_PROFILES
10
2552.453
20
1354.048
30
0
11
2547.453
21
1359.048
31
0
0
LINE
8
OUTER_PROFILES
10
2547.453
20
1359.048
30
0
11
1799.595
21
1359.048
31
0
0
LINE
8
OUTER_PROFILES
10
1799.595
20
1359.048
30
0
11
1794.595
21
1354.048
31
0
0
ARC
8
OUTER_PROFILES
10
1797.834
20
1351.264
30
0
40
4.272
50
139.3224
51
172.9774
0
LINE
8
OUTER_PROFILES
10
1793.595
20
1351.786
30
0
11
1793.595
21
1345.786
31
0
0
ARC
8
OUTER_PROFILES
10
1797.847
20
1346.314
30
0
40
4.285
50
187.0769
51
220.6233
0
LINE
8
OUTER_PROFILES
10
1794.595
20
1343.524
30
0
11
1794.524
21
1343.453
31
0
0
ARC
8
OUTER_PROFILES
10
1791.734
20
1340.201
30
0
40
4.285
50
49.3767
51
82.9231
0
LINE
8
OUTER_PROFILES
10
1792.262
20
1344.453
30
0
11
1786.262
21
1344.453
31
0
0
ARC
8
OUTER_PROFILES
10
1786.784
20
1340.214
30
0
40
4.272
50
97.0226
51
130.6776
0
LINE
8
OUTER_PROFILES
10
1784.000
20
1343.453
30
0
11
1779.000
21
1338.453
31
0
0
LINE
8
OUTER_PROFILES
10
1779.000
20
1338.453
30
0
11
1779.000
21
590.595
31
0
0
LINE
8
OUTER_PROFILES
10
1779.000
20
590.595
30
0
11
1784.000
21
585.595
31
0
0
ARC
8
OUTER_PROFILES
10
1786.784
20
588.834
30
0
40
4.272
50
229.3224
51
262.9774
0
LINE
8
OUTER_PROFILES
10
1786.262
20
584.595
30
0
11
1792.262
21
584.595
31
0
0
ARC
8
OUTER_PROFILES
10
1791.734
20
588.847
30
0
40
4.285
50
277.0769
51
310.6233
0
LINE
8
OUTER_PROFILES
10
1794.524
20
585.595
30
0
11
1794.595
21
585.524
31
0
0
ARC
8
OUTER_PROFILES
10
1797.847
20
582.734
30
0
40
4.285
50
139.3767
51
172.9231
0
LINE
8
OUTER_PROFILES
10
1793.595
20
583.262
30
0
11
1793.595
21
577.262
31
0
0
ARC
8
OUTER_PROFILES
10
1797.834
20
577.784
30
0
40
4.272
50
187.0226
51
220.6776
0
LINE
8
OUTER_PROFILES
10
1794.595
20
575.000
30
0
11
1799.595
21
570.000
31
0
0
LINE
8
OUTER_PROFILES
10
1799.595
20
570.000
30
0
11
2547.453
21
570.000
31
0
0
LINE
8
OUTER_PROFILES
10
2547.453
20
570.000
30
0
11
2552.453
21
575.000
31
0
0
ARC
8
OUTER_PROFILES
10
2549.214
20
577.784
30
0
40
4.272
50
319.3224
51
352.9774
0
LINE
8
OUTER_PROFILES
10
2553.453
20
577.262
30
0
11
2553.453
21
583.262
31
0
0
ARC
8
OUTER_PROFILES
10
2549.201
20
582.734
30
0
40
4.285
50
7.0769
51
40.6233
0
LINE
8
OUTER_PROFILES
10
2552.453
20
585.524
30
0
11
2552.524
21
585.595
31
0
0
ARC
8
OUTER_PROFILES
10
2555.314
20
588.847
30
0
40
4.285
50
229.3767
51
262.9231
0
LINE
8
OUTER_PROFILES
10
2554.786
20
584.595
30
0
11
2560.786
21
584.595
31
0
0
ARC
8
OUTER_PROFILES
10
2560.264
20
588.834
30
0
40
4.272
50
277.0226
51
310.6776
0
TEXT
8
PART_LABELS
10
2790.025
20
422.340
30
0
40
50.000
1
DSV100-040080
72
1
73
2
11
2790.025
21
422.340
31
0
0
LWPOLYLINE
8
OUTER_PROFILES
90
34
70
1
10
2592.626
20
818.922
10
2589.850
20
816.943
10
2575.264
20
802.357
10
2573.002
20
799.458
10
2571.002
20
797.458
10
2571.002
20
24.599
10
2573.002
20
22.599
10
2575.264
20
20.529
10
2591.264
20
20.529
10
2592.626
20
20.267
10
2592.626
20
4.267
10
2593.597
20
2.005
10
2595.597
20
0.005
10
2984.455
20
0.005
10
2986.455
20
2.005
10
2987.426
20
4.267
10
2987.426
20
20.267
10
2988.788
20
20.529
10
3004.788
20
20.529
10
3007.050
20
22.599
10
3009.050
20
24.599
10
3009.050
20
797.458
10
3007.050
20
799.458
10
3004.788
20
802.357
10
2990.202
20
816.943
10
2987.426
20
818.922
10
2987.426
20
840.263
10
2986.976
20
841.549
10
2986.455
20
842.680
10
2984.455
20
844.680
10
2595.597
20
844.680
10
2593.597
20
842.680
10
2593.076
20
841.549
10
2592.626
20
840.263
0
TEXT
8
PART_LABELS
10
302.630
20
980.995
30
0
40
50.000
1
BAKTRI-000000
72
1
73
2
11
302.630
21
980.995
31
0
0
LWPOLYLINE
8
OUTER_PROFILES
90
7
70
1
10
605.262
20
570.000
10
9.262
20
570.000
10
9.262
20
593.000
10
0.000
20
593.000
10
0.000
20
1391.987
10
22.253
20
1391.987
10
605.262
20
873.330
0
CIRCLE
8
INTERIOR_PROFILES
10
532.262
20
857.000
30
0
40
1.700
0
CIRCLE
8
INTERIOR_PROFILES
10
598.262
20
693.000
30
0
40
1.700
0
CIRCLE
8
INTERIOR_PROFILES
10
307.262
20
573.000
30
0
40
1.700
0
CIRCLE
8
INTERIOR_PROFILES
10
568.760
20
896.433
30
0
40
1.700
0
CIRCLE
8
INTERIOR_PROFILES
10
82.262
20
857.000
30
0
40
1.700
0
CIRCLE
8
INTERIOR_PROFILES
10
532.262
20
573.000
30
0
40
1.700
0
CIRCLE
8
INTERIOR_PROFILES
10
438.011
20
1012.751
30
0
40
1.700
0
CIRCLE
8
INTERIOR_PROFILES
10
3.000
20
1268.000
30
0
40
1.700
0
CIRCLE
8
INTERIOR_PROFILES
10
3.000
20
968.000
30
0
40
1.700
0
CIRCLE
8
INTERIOR_PROFILES
10
3.000
20
1356.000
30
0
40
1.700
0
CIRCLE
8
INTERIOR_PROFILES
10
176.513
20
1245.385
30
0
40
1.700
0
CIRCLE
8
INTERIOR_PROFILES
10
16.262
20
868.000
30
0
40
1.700
0
CIRCLE
8
INTERIOR_PROFILES
10
45.764
20
1361.702
30
0
40
1.700
0
CIRCLE
8
INTERIOR_PROFILES
10
307.262
20
1129.068
30
0
40
1.700
0
CIRCLE
8
INTERIOR_PROFILES
10
16.262
20
1043.000
30
0
40
1.700
0
CIRCLE
8
INTERIOR_PROFILES
10
307.262
20
857.000
30
0
40
1.700
0
CIRCLE
8
INTERIOR_PROFILES
10
16.262
20
1218.000
30
0
40
1.700
0
CIRCLE
8
INTERIOR_PROFILES
10
82.262
20
573.000
30
0
40
1.700
0
CIRCLE
8
INTERIOR_PROFILES
10
16.262
20
693.000
30
0
40
1.700
0
CIRCLE
8
INTERIOR_PROFILES
10
3.000
20
668.000
30
0
40
1.700
0
TEXT
8
PART_LABELS
10
1187.260
20
1431.025
30
0
40
34.513
1
FT2100-000000
72
1
73
2
11
1187.260
21
1431.025
31
0
0
LWPOLYLINE
8
OUTER_PROFILES
90
20
70
1
10
137.000
20
1383.524
10
139.262
20
1385.524
10
138.362
20
1383.262
10
138.362
20
1362.000
10
2236.162
20
1362.000
10
2236.162
20
1383.262
10
2235.262
20
1385.524
10
2237.524
20
1383.524
10
2335.524
20
1383.524
10
2335.524
20
1478.524
10
2237.524
20
1478.524
10
2235.262
20
1476.524
10
2236.162
20
1478.786
10
2236.162
20
1500.048
10
138.362
20
1500.048
10
138.362
20
1478.786
10
139.262
20
1476.524
10
137.000
20
1478.524
10
39.000
20
1478.524
10
39.000
20
1383.524
0
CIRCLE
8
INTERIOR_PROFILES
10
2243.024
20
1471.024
30
0
40
1.700
0
CIRCLE
8
INTERIOR_PROFILES
10
131.500
20
1471.024
30
0
40
1.700
0
CIRCLE
8
INTERIOR_PROFILES
10
131.500
20
1391.024
30
0
40
1.700
0
CIRCLE
8
INTERIOR_PROFILES
10
2243.024
20
1391.024
30
0
40
1.700
0
TEXT
8
PART_LABELS
10
2738.525
20
1135.895
30
0
40
50.000
1
SDTRIR-000000
72
1
73
2
11
2738.525
21
1135.895
31
0
0
LWPOLYLINE
8
OUTER_PROFILES
90
24
70
1
10
2884.291
20
1417.362
42
0.414214
10
2884.291
20
1415.948
10
2889.786
20
1410.453
10
2889.786
20
1406.595
10
2884.291
20
1401.100
42
0.414214
10
2884.291
20
1399.686
10
2889.786
20
1394.191
10
2906.048
20
1394.191
10
2906.048
20
865.262
10
2882.524
20
865.262
10
2882.524
20
849.000
10
2604.524
20
849.000
10
2604.524
20
865.262
10
2571.000
20
865.262
10
2571.000
20
1394.191
10
2597.262
20
1394.191
10
2602.757
20
1399.686
42
0.414214
10
2602.757
20
1401.100
10
2597.262
20
1406.595
10
2597.262
20
1410.453
10
2602.757
20
1415.948
42
0.414214
10
2602.757
20
1417.362
10
2597.333
20
1422.786
10
2889.715
20
1422.786
0
CIRCLE
8
INTERIOR_PROFILES
10
2850.524
20
1140.262
30
0
40
1.700
0
CIRCLE
8
INTERIOR_PROFILES
10
2850.524
20
1108.262
30
0
40
1.700
0
CIRCLE
8
INTERIOR_PROFILES
10
2891.786
20
1330.262
30
0
40
6.500
0
CIRCLE
8
INTERIOR_PROFILES
10
2850.524
20
1364.262
30
0
40
1.700
0
CIRCLE
8
INTERIOR_PROFILES
10
2891.786
20
1192.262
30
0
40
1.700
0
CIRCLE
8
INTERIOR_PROFILES
10
2891.786
20
1314.262
30
0
40
1.700
0
CIRCLE
8
INTERIOR_PROFILES
10
2613.524
20
1392.262
30
0
40
1.700
0
CIRCLE
8
INTERIOR_PROFILES
10
2595.262
20
1370.262
30
0
40
1.700
0
CIRCLE
8
INTERIOR_PROFILES
10
2891.786
20
876.262
30
0
40
1.700
0
CIRCLE
8
INTERIOR_PROFILES
10
2891.786
20
1370.262
30
0
40
1.700
0
CIRCLE
8
INTERIOR_PROFILES
10
2576.000
20
1370.262
30
0
40
1.700
0
CIRCLE
8
INTERIOR_PROFILES
10
2891.786
20
868.262
30
0
40
1.700
0
CIRCLE
8
INTERIOR_PROFILES
10
2613.524
20
980.262
30
0
40
1.700
0
CIRCLE
8
INTERIOR_PROFILES
10
2645.524
20
1392.262
30
0
40
1.700
0
CIRCLE
8
INTERIOR_PROFILES
10
2891.786
20
1346.262
30
0
40
1.700
0
CIRCLE
8
INTERIOR_PROFILES
10
2613.524
20
1108.262
30
0
40
1.700
0
CIRCLE
8
INTERIOR_PROFILES
10
2595.262
20
868.262
30
0
40
1.700
0
CIRCLE
8
INTERIOR_PROFILES
10
2660.024
20
1374.262
30
0
40
6.500
0
CIRCLE
8
INTERIOR_PROFILES
10
2613.524
20
1236.262
30
0
40
1.700
0
CIRCLE
8
INTERIOR_PROFILES
10
2777.524
20
856.000
30
0
40
1.700
0
CIRCLE
8
INTERIOR_PROFILES
10
2891.786
20
1014.262
30
0
40
1.700
0
CIRCLE
8
INTERIOR_PROFILES
10
2891.786
20
908.262
30
0
40
1.700
0
CIRCLE
8
INTERIOR_PROFILES
10
2677.524
20
1392.262
30
0
40
1.700
0
CIRCLE
8
INTERIOR_PROFILES
10
2595.262
20
1014.262
30
0
40
1.700
0
CIRCLE
8
INTERIOR_PROFILES
10
2595.262
20
1192.262
30
0
40
1.700
0
CIRCLE
8
INTERIOR_PROFILES
10
2802.524
20
1392.262
30
0
40
1.700
0
CIRCLE
8
INTERIOR_PROFILES
10
2613.524
20
1364.262
30
0
40
1.700
0
CIRCLE
8
INTERIOR_PROFILES
10
2595.262
20
1330.262
30
0
40
6.500
0
TEXT
8
PART_LABELS
10
925.760
20
1305.845
30
0
40
22.922
1
BTHLSR-140000
72
1
73
2
11
925.760
21
1305.845
31
0
0
LWPOLYLINE
8
OUTER_PROFILES
90
18
70
1
10
177.762
20
1274.666
10
177.762
20
1266.404
10
177.762
20
1260.000
10
1673.762
20
1260.000
10
1673.762
20
1266.404
10
1673.762
20
1274.666
10
1673.762
20
1291.666
10
1673.762
20
1296.928
10
1686.524
20
1296.928
10
1686.524
20
1338.928
10
1673.762
20
1338.928
10
1673.762
20
1351.690
10
177.762
20
1351.690
10
177.762
20
1338.928
10
165.000
20
1338.928
10
165.000
20
1296.928
10
177.762
20
1296.928
10
177.762
20
1291.666
0
CIRCLE
8
INTERIOR_PROFILES
10
171.500
20
1309.928
30
0
40
1.700
0
CIRCLE
8
INTERIOR_PROFILES
10
525.762
20
1348.190
30
0
40
1.700
0
CIRCLE
8
INTERIOR_PROFILES
10
1275.762
20
1348.190
30
0
40
1.700
0
CIRCLE
8
INTERIOR_PROFILES
10
925.762
20
1285.166
30
0
40
1.700
0
CIRCLE
8
INTERIOR_PROFILES
10
275.762
20
1285.166
30
0
40
1.700
0
CIRCLE
8
INTERIOR_PROFILES
10
1250.762
20
1285.166
30
0
40
1.700
0
CIRCLE
8
INTERIOR_PROFILES
10
1666.762
20
1348.190
30
0
40
1.700
0
CIRCLE
8
INTERIOR_PROFILES
10
1575.762
20
1285.166
30
0
40
1.700
0
CIRCLE
8
INTERIOR_PROFILES
10
181.262
20
1300.428
30
0
40
2.500
0
CIRCLE
8
INTERIOR_PROFILES
10
1670.262
20
1300.428
30
0
40
2.500
0
CIRCLE
8
INTERIOR_PROFILES
10
866.762
20
1348.190
30
0
40
1.700
0
CIRCLE
8
INTERIOR_PROFILES
10
625.762
20
1348.190
30
0
40
1.700
0
CIRCLE
8
INTERIOR_PROFILES
10
875.762
20
1348.190
30
0
40
1.700
0
CIRCLE
8
INTERIOR_PROFILES
10
1075.762
20
1348.190
30
0
40
1.700
0
CIRCLE
8
INTERIOR_PROFILES
10
195.762
20
1313.928
30
0
40
8.750
0
CIRCLE
8
INTERIOR_PROFILES
10
1680.024
20
1309.928
30
0
40
1.700
0
CIRCLE
8
INTERIOR_PROFILES
10
975.762
20
1348.190
30
0
40
1.700
0
CIRCLE
8
INTERIOR_PROFILES
10
1475.762
20
1348.190
30
0
40
1.700
0
CIRCLE
8
INTERIOR_PROFILES
10
184.762
20
1348.190
30
0
40
1.700
0
CIRCLE
8
INTERIOR_PROFILES
10
1575.762
20
1348.190
30
0
40
1.700
0
CIRCLE
8
INTERIOR_PROFILES
10
600.762
20
1285.166
30
0
40
1.700
0
CIRCLE
8
INTERIOR_PROFILES
10
884.762
20
1348.190
30
0
40
1.700
0
CIRCLE
8
INTERIOR_PROFILES
10
325.762
20
1348.190
30
0
40
1.700
0
CIRCLE
8
INTERIOR_PROFILES
10
1680.024
20
1334.928
30
0
40
1.700
0
CIRCLE
8
INTERIOR_PROFILES
10
425.762
20
1348.190
30
0
40
1.700
0
CIRCLE
8
INTERIOR_PROFILES
10
1175.762
20
1348.190
30
0
40
1.700
0
CIRCLE
8
INTERIOR_PROFILES
10
725.762
20
1348.190
30
0
40
1.700
0
CIRCLE
8
INTERIOR_PROFILES
10
825.762
20
1348.190
30
0
40
1.700
0
CIRCLE
8
INTERIOR_PROFILES
10
171.500
20
1334.928
30
0
40
1.700
0
CIRCLE
8
INTERIOR_PROFILES
10
1375.762
20
1348.190
30
0
40
1.700
0
CIRCLE
8
INTERIOR_PROFILES
10
225.762
20
1348.190
30
0
40
1.700
0
TEXT
8
PART_LABELS
10
3024.000
20
1116.000
30
0
40
15.000
1
FN3BLA-070000
72
1
73
2
11
3024.000
21
1116.000
31
0
0
LWPOLYLINE
8
OUTER_PROFILES
90
4
70
1
10
3048.000
20
1416.000
10
2999.738
20
1416.000
10
2999.738
20
816.000
10
3048.000
20
816.000
0
CIRCLE
8
INTERIOR_PROFILES
10
3038.500
20
841.000
30
0
40
1.250
0
CIRCLE
8
INTERIOR_PROFILES
10
3005.738
20
841.000
30
0
40
1.700
0
CIRCLE
8
INTERIOR_PROFILES
10
3038.500
20
1391.000
30
0
40
1.250
0
CIRCLE
8
INTERIOR_PROFILES
10
3005.738
20
1116.000
30
0
40
1.700
0
CIRCLE
8
INTERIOR_PROFILES
10
3038.500
20
1116.000
30
0
40
1.250
0
CIRCLE
8
INTERIOR_PROFILES
10
3038.500
20
1253.500
30
0
40
1.250
0
CIRCLE
8
INTERIOR_PROFILES
10
3038.500
20
978.500
30
0
40
1.250
0
CIRCLE
8
INTERIOR_PROFILES
10
3005.738
20
1391.000
30
0
40
1.700
0
TEXT
8
PART_LABELS
10
2493.000
20
250.000
30
0
40
15.000
1
FN3BLA-060000
72
1
73
2
11
2493.000
21
250.000
31
0
0
LWPOLYLINE
8
OUTER_PROFILES
90
4
70
1
10
2468.738
20
0.000
10
2468.738
20
500.000
10
2517.000
20
500.000
10
2517.000
20
0.000
0
CIRCLE
8
INTERIOR_PROFILES
10
2507.500
20
250.000
30
0
40
1.250
0
CIRCLE
8
INTERIOR_PROFILES
10
2507.500
20
137.500
30
0
40
1.250
0
CIRCLE
8
INTERIOR_PROFILES
10
2507.500
20
25.000
30
0
40
1.250
0
CIRCLE
8
INTERIOR_PROFILES
10
2507.500
20
475.000
30
0
40
1.250
0
CIRCLE
8
INTERIOR_PROFILES
10
2507.500
20
362.500
30
0
40
1.250
0
CIRCLE
8
INTERIOR_PROFILES
10
2474.738
20
250.000
30
0
40
1.700
0
CIRCLE
8
INTERIOR_PROFILES
10
2474.738
20
25.000
30
0
40
1.700
0
CIRCLE
8
INTERIOR_PROFILES
10
2474.738
20
475.000
30
0
40
1.700
0
TEXT
8
PART_LABELS
10
2542.500
20
266.500
30
0
40
15.000
1
SDTRIR-000002
72
1
73
2
11
2542.500
21
266.500
31
0
0
LWPOLYLINE
8
OUTER_PROFILES
90
8
70
1
10
2565.000
20
3.000
10
2565.000
20
530.000
10
2548.738
20
530.000
42
0.500000
10
2536.738
20
530.000
10
2520.476
20
530.000
10
2520.476
20
3.000
10
2536.738
20
3.000
42
0.500000
10
2548.738
20
3.000
0
CIRCLE
8
INTERIOR_PROFILES
10
2542.738
20
505.000
30
0
40
1.700
0
CIRCLE
8
INTERIOR_PROFILES
10
2542.738
20
3.000
30
0
40
1.700
0
CIRCLE
8
INTERIOR_PROFILES
10
2542.738
20
327.000
30
0
40
1.700
0
CIRCLE
8
INTERIOR_PROFILES
10
2542.738
20
149.000
30
0
40
1.700
0
CIRCLE
8
INTERIOR_PROFILES
10
2542.738
20
384.000
30
0
40
1.700
0
CIRCLE
8
INTERIOR_PROFILES
10
2542.738
20
530.000
30
0
40
1.700
0
CIRCLE
8
INTERIOR_PROFILES
10
2542.738
20
28.000
30
0
40
1.700
0
CIRCLE
8
INTERIOR_PROFILES
10
2542.738
20
206.000
30
0
40
1.700
0
TEXT
8
PART_LABELS
10
679.000
20
604.000
30
0
40
17.000
1
BXXTR0-000000
72
1
73
2
11
679.000
21
604.000
31
0
0
LWPOLYLINE
8
OUTER_PROFILES
90
10
70
1
10
749.378
20
584.842
10
698.466
20
635.754
10
691.210
20
628.497
10
684.139
20
635.569
42
0.414214
10
674.239
20
635.569
10
667.168
20
628.497
10
659.912
20
635.754
10
609.000
20
584.842
10
623.842
20
570.000
10
734.536
20
570.000
0
CIRCLE
8
INTERIOR_PROFILES
10
651.426
20
621.612
30
0
40
1.700
0
CIRCLE
8
INTERIOR_PROFILES
10
679.189
20
579.000
30
0
40
5.000
0
CIRCLE
8
INTERIOR_PROFILES
10
618.899
20
589.085
30
0
40
1.700
0
CIRCLE
8
INTERIOR_PROFILES
10
730.808
20
579.000
30
0
40
1.700
0
CIRCLE
8
INTERIOR_PROFILES
10
627.570
20
579.000
30
0
40
1.700
0
CIRCLE
8
INTERIOR_PROFILES
10
679.189
20
630.619
30
0
40
1.700
0
CIRCLE
8
INTERIOR_PROFILES
10
706.951
20
621.612
30
0
40
1.700
0
CIRCLE
8
INTERIOR_PROFILES
10
739.478
20
589.085
30
0
40
1.700
0
TEXT
8
PART_LABELS
10
823.000
20
604.000
30
0
40
17.000
1
BXXTR0-000000
72
1
73
2
11
823.000
21
604.000
31
0
0
LWPOLYLINE
8
OUTER_PROFILES
90
10
70
1
10
893.378
20
584.842
10
842.466
20
635.754
10
835.210
20
628.497
10
828.139
20
635.569
42
0.414214
10
818.239
20
635.569
10
811.168
20
628.497
10
803.912
20
635.754
10
753.000
20
584.842
10
767.842
20
570.000
10
878.536
20
570.000
0
CIRCLE
8
INTERIOR_PROFILES
10
795.426
20
621.612
30
0
40
1.700
0
CIRCLE
8
INTERIOR_PROFILES
10
823.189
20
579.000
30
0
40
5.000
0
CIRCLE
8
INTERIOR_PROFILES
10
762.899
20
589.085
30
0
40
1.700
0
CIRCLE
8
INTERIOR_PROFILES
10
874.808
20
579.000
30
0
40
1.700
0
CIRCLE
8
INTERIOR_PROFILES
10
771.570
20
579.000
30
0
40
1.700
0
CIRCLE
8
INTERIOR_PROFILES
10
823.189
20
630.619
30
0
40
1.700
0
CIRCLE
8
INTERIOR_PROFILES
10
850.951
20
621.612
30
0
40
1.700
0
CIRCLE
8
INTERIOR_PROFILES
10
883.478
20
589.085
30
0
40
1.700
0
TEXT
8
PART_LABELS
10
772.000
20
667.000
30
0
40
17.000
1
BXXTR0-000000
72
1
73
2
11
772.000
21
667.000
31
0
0
LWPOLYLINE
8
OUTER_PROFILES
90
10
70
1
10
752.842
20
596.622
10
803.754
20
647.534
10
796.497
20
654.790
10
803.569
20
661.861
42
0.414214
10
803.569
20
671.761
10
796.497
20
678.832
10
803.754
20
686.088
10
752.842
20
737.000
10
738.000
20
722.158
10
738.000
20
611.464
0
CIRCLE
8
INTERIOR_PROFILES
10
789.612
20
694.574
30
0
40
1.700
0
CIRCLE
8
INTERIOR_PROFILES
10
747.000
20
666.811
30
0
40
5.000
0
CIRCLE
8
INTERIOR_PROFILES
10
757.085
20
727.101
30
0
40
1.700
0
CIRCLE
8
INTERIOR_PROFILES
10
747.000
20
615.192
30
0
40
1.700
0
CIRCLE
8
INTERIOR_PROFILES
10
747.000
20
718.430
30
0
40
1.700
0
CIRCLE
8
INTERIOR_PROFILES
10
798.619
20
666.811
30
0
40
1.700
0
CIRCLE
8
INTERIOR_PROFILES
10
789.612
20
639.049
30
0
40
1.700
0
CIRCLE
8
INTERIOR_PROFILES
10
757.085
20
606.522
30
0
40
1.700
0
TEXT
8
PART_LABELS
10
643.000
20
682.000
30
0
40
17.000
1
BXXTR0-000000
72
1
73
2
11
643.000
21
682.000
31
0
0
LWPOLYLINE
8
OUTER_PROFILES
90
10
70
1
10
623.842
20
611.622
10
674.754
20
662.534
10
667.497
20
669.790
10
674.569
20
676.861
42
0.414214
10
674.569
20
686.761
10
667.497
20
693.832
10
674.754
20
701.088
10
623.842
20
752.000
10
609.000
20
737.158
10
609.000
20
626.464
0
CIRCLE
8
INTERIOR_PROFILES
10
660.612
20
709.574
30
0
40
1.700
0
CIRCLE
8
INTERIOR_PROFILES
10
618.000
20
681.811
30
0
40
5.000
0
CIRCLE
8
INTERIOR_PROFILES
10
628.085
20
742.101
30
0
40
1.700
0
CIRCLE
8
INTERIOR_PROFILES
10
618.000
20
630.192
30
0
40
1.700
0
CIRCLE
8
INTERIOR_PROFILES
10
618.000
20
733.430
30
0
40
1.700
0
CIRCLE
8
INTERIOR_PROFILES
10
669.619
20
681.811
30
0
40
1.700
0
CIRCLE
8
INTERIOR_PROFILES
10
660.612
20
654.049
30
0
40
1.700
0
CIRCLE
8
INTERIOR_PROFILES
10
628.085
20
621.522
30
0
40
1.700
0
TEXT
8
PART_LABELS
10
697.000
20
742.000
30
0
40
17.000
1
BXXTR0-000000
72
1
73
2
11
697.000
21
742.000
31
0
0
LWPOLYLINE
8
OUTER_PROFILES
90
10
70
1
10
716.158
20
812.378
10
665.246
20
761.466
10
672.503
20
754.210
10
665.431
20
747.139
42
0.414214
10
665.431
20
737.239
10
672.503
20
730.168
10
665.246
20
722.912
10
716.158
20
672.000
10
731.000
20
686.842
10
731.000
20
797.536
0
CIRCLE
8
INTERIOR_PROFILES
10
679.388
20
714.426
30
0
40
1.700
0
CIRCLE
8
INTERIOR_PROFILES
10
722.000
20
742.189
30
0
40
5.000
0
CIRCLE
8
INTERIOR_PROFILES
10
711.915
20
681.899
30
0
40
1.700
0
CIRCLE
8
INTERIOR_PROFILES
10
722.000
20
793.808
30
0
40
1.700
0
CIRCLE
8
INTERIOR_PROFILES
10
722.000
20
690.570
30
0
40
1.700
0
CIRCLE
8
INTERIOR_PROFILES
10
670.381
20
742.189
30
0
40
1.700
0
CIRCLE
8
INTERIOR_PROFILES
10
679.388
20
769.951
30
0
40
1.700
0
CIRCLE
8
INTERIOR_PROFILES
10
711.915
20
802.478
30
0
40
1.700
0
TEXT
8
PART_LABELS
10
655.000
20
823.000
30
0
40
17.000
1
BXXTR0-000000
72
1
73
2
11
655.000
21
823.000
31
0
0
LWPOLYLINE
8
OUTER_PROFILES
90
10
70
1
10
635.842
20
752.622
10
686.754
20
803.534
10
679.497
20
810.790
10
686.569
20
817.861
42
0.414214
10
686.569
20
827.761
10
679.497
20
834.832
10
686.754
20
842.088
10
635.842
20
893.000
10
621.000
20
878.158
10
621.000
20
767.464
0
CIRCLE
8
INTERIOR_PROFILES
10
672.612
20
850.574
30
0
40
1.700
0
CIRCLE
8
INTERIOR_PROFILES
10
630.000
20
822.811
30
0
40
5.000
0
CIRCLE
8
INTERIOR_PROFILES
10
640.085
20
883.101
30
0
40
1.700
0
CIRCLE
8
INTERIOR_PROFILES
10
630.000
20
771.192
30
0
40
1.700
0
CIRCLE
8
INTERIOR_PROFILES
10
630.000
20
874.430
30
0
40
1.700
0
CIRCLE
8
INTERIOR_PROFILES
10
681.619
20
822.811
30
0
40
1.700
0
CIRCLE
8
INTERIOR_PROFILES
10
672.612
20
795.049
30
0
40
1.700
0
CIRCLE
8
INTERIOR_PROFILES
10
640.085
20
762.522
30
0
40
1.700
0
TEXT
8
PART_LABELS
10
2944.000
20
919.000
30
0
40
17.000
1
BXXTR0-000000
72
1
73
2
11
2944.000
21
919.000
31
0
0
LWPOLYLINE
8
OUTER_PROFILES
90
10
70
1
10
2963.158
20
989.378
10
2912.246
20
938.466
10
2919.503
20
931.210
10
2912.431
20
924.139
42
0.414214
10
2912.431
20
914.239
10
2919.503
20
907.168
10
2912.246
20
899.912
10
2963.158
20
849.000
10
2978.000
20
863.842
10
2978.000
20
974.536
0
CIRCLE
8
INTERIOR_PROFILES
10
2926.388
20
891.426
30
0
40
1.700
0
CIRCLE
8
INTERIOR_PROFILES
10
2969.000
20
919.189
30
0
40
5.000
0
CIRCLE
8
INTERIOR_PROFILES
10
2958.915
20
858.899
30
0
40
1.700
0
CIRCLE
8
INTERIOR_PROFILES
10
2969.000
20
970.808
30
0
40
1.700
0
CIRCLE
8
INTERIOR_PROFILES
10
2969.000
20
867.570
30
0
40
1.700
0
CIRCLE
8
INTERIOR_PROFILES
10
2917.381
20
919.189
30
0
40
1.700
0
CIRCLE
8
INTERIOR_PROFILES
10
2926.388
20
946.951
30
0
40
1.700
0
CIRCLE
8
INTERIOR_PROFILES
10
2958.915
20
979.478
30
0
40
1.700
0
TEXT
8
PART_LABELS
10
2944.000
20
1036.000
30
0
40
17.000
1
BXXTR0-000000
72
1
73
2
11
2944.000
21
1036.000
31
0
0
LWPOLYLINE
8
OUTER_PROFILES
90
10
70
1
10
2924.842
20
965.622
10
2975.754
20
1016.534
10
2968.497
20
1023.790
10
2975.569
20
1030.861
42
0.414214
10
2975.569
20
1040.761
10
2968.497
20
1047.832
10
2975.754
20
1055.088
10
2924.842
20
1106.000
10
2910.000
20
1091.158
10
2910.000
20
980.464
0
CIRCLE
8
INTERIOR_PROFILES
10
2961.612
20
1063.574
30
0
40
1.700
0
CIRCLE
8
INTERIOR_PROFILES
10
2919.000
20
1035.811
30
0
40
5.000
0
CIRCLE
8
INTERIOR_PROFILES
10
2929.085
20
1096.101
30
0
40
1.700
0
CIRCLE
8
INTERIOR_PROFILES
10
2919.000
20
984.192
30
0
40
1.700
0
CIRCLE
8
INTERIOR_PROFILES
10
2919.000
20
1087.430
30
0
40
1.700
0
CIRCLE
8
INTERIOR_PROFILES
10
2970.619
20
1035.811
30
0
40
1.700
0
CIRCLE
8
INTERIOR_PROFILES
10
2961.612
20
1008.049
30
0
40
1.700
0
CIRCLE
8
INTERIOR_PROFILES
10
2929.085
20
975.522
30
0
40
1.700
0
TEXT
8
PART_LABELS
10
2961.500
20
1126.000
30
0
40
15.000
1
TS2TRX-000000
72
1
73
2
11
2961.500
21
1126.000
31
0
0
LWPOLYLINE
8
OUTER_PROFILES
90
6
70
1
10
2976.101
20
1186.622
10
2936.574
20
1147.095
10
2936.574
20
1104.527
10
2976.101
20
1065.000
10
2986.000
20
1074.899
10
2986.000
20
1176.723
0
CIRCLE
8
INTERIOR_PROFILES
10
2943.574
20
1144.196
30
0
40
1.700
0
CIRCLE
8
INTERIOR_PROFILES
10
2976.101
20
1074.899
30
0
40
1.700
0
CIRCLE
8
INTERIOR_PROFILES
10
2976.101
20
1176.723
30
0
40
1.700
0
CIRCLE
8
INTERIOR_PROFILES
10
2943.574
20
1107.426
30
0
40
1.700
0
TEXT
8
PART_LABELS
10
2934.500
20
1204.000
30
0
40
15.000
1
TS2TRX-000000
72
1
73
2
11
2934.500
21
1204.000
31
0
0
LWPOLYLINE
8
OUTER_PROFILES
90
6
70
1
10
2919.899
20
1143.378
10
2959.426
20
1182.905
10
2959.426
20
1225.473
10
2919.899
20
1265.000
10
2910.000
20
1255.101
10
2910.000
20
1153.277
0
CIRCLE
8
INTERIOR_PROFILES
10
2952.426
20
1185.804
30
0
40
1.700
0
CIRCLE
8
INTERIOR_PROFILES
10
2919.899
20
1255.101
30
0
40
1.700
0
CIRCLE
8
INTERIOR_PROFILES
10
2919.899
20
1153.277
30
0
40
1.700
0
CIRCLE
8
INTERIOR_PROFILES
10
2952.426
20
1222.574
30
0
40
1.700
0
TEXT
8
PART_LABELS
10
2943.500
20
1300.000
30
0
40
15.000
1
TS2TRX-000000
72
1
73
2
11
2943.500
21
1300.000
31
0
0
LWPOLYLINE
8
OUTER_PROFILES
90
6
70
1
10
2958.101
20
1360.622
10
2918.574
20
1321.095
10
2918.574
20
1278.527
10
2958.101
20
1239.000
10
2968.000
20
1248.899
10
2968.000
20
1350.723
0
CIRCLE
8
INTERIOR_PROFILES
10
2925.574
20
1318.196
30
0
40
1.700
0
CIRCLE
8
INTERIOR_PROFILES
10
2958.101
20
1248.899
30
0
40
1.700
0
CIRCLE
8
INTERIOR_PROFILES
10
2958.101
20
1350.723
30
0
40
1.700
0
CIRCLE
8
INTERIOR_PROFILES
10
2925.574
20
1281.426
30
0
40
1.700
0
TEXT
8
PART_LABELS
10
2934.500
20
1396.000
30
0
40
15.000
1
TS2TRX-000000
72
1
73
2
11
2934.500
21
1396.000
31
0
0
LWPOLYLINE
8
OUTER_PROFILES
90
6
70
1
10
2919.899
20
1335.378
10
2959.426
20
1374.905
10
2959.426
20
1417.473
10
2919.899
20
1457.000
10
2910.000
20
1447.101
10
2910.000
20
1345.277
0
CIRCLE
8
INTERIOR_PROFILES
10
2952.426
20
1377.804
30
0
40
1.700
0
CIRCLE
8
INTERIOR_PROFILES
10
2919.899
20
1447.101
30
0
40
1.700
0
CIRCLE
8
INTERIOR_PROFILES
10
2919.899
20
1345.277
30
0
40
1.700
0
CIRCLE
8
INTERIOR_PROFILES
10
2952.426
20
1414.574
30
0
40
1.700
0
TEXT
8
PART_LABELS
10
2401.000
20
1386.500
30
0
40
15.000
1
TS2TRX-000000
72
1
73
2
11
2401.000
21
1386.500
31
0
0
LWPOLYLINE
8
OUTER_PROFILES
90
6
70
1
10
2461.622
20
1371.899
10
2422.095
20
1411.426
10
2379.527
20
1411.426
10
2340.000
20
1371.899
10
2349.899
20
1362.000
10
2451.723
20
1362.000
0
CIRCLE
8
INTERIOR_PROFILES
10
2419.196
20
1404.426
30
0
40
1.700
0
CIRCLE
8
INTERIOR_PROFILES
10
2349.899
20
1371.899
30
0
40
1.700
0
CIRCLE
8
INTERIOR_PROFILES
10
2451.723
20
1371.899
30
0
40
1.700
0
CIRCLE
8
INTERIOR_PROFILES
10
2382.426
20
1404.426
30
0
40
1.700
0
TEXT
8
PART_LABELS
10
2484.500
20
1423.000
30
0
40
15.000
1
TS2TRX-000000
72
1
73
2
11
2484.500
21
1423.000
31
0
0
LWPOLYLINE
8
OUTER_PROFILES
90
6
70
1
10
2499.101
20
1483.622
10
2459.574
20
1444.095
10
2459.574
20
1401.527
10
2499.101
20
1362.000
10
2509.000
20
1371.899
10
2509.000
20
1473.723
0
CIRCLE
8
INTERIOR_PROFILES
10
2466.574
20
1441.196
30
0
40
1.700
0
CIRCLE
8
INTERIOR_PROFILES
10
2499.101
20
1371.899
30
0
40
1.700
0
CIRCLE
8
INTERIOR_PROFILES
10
2499.101
20
1473.723
30
0
40
1.700
0
CIRCLE
8
INTERIOR_PROFILES
10
2466.574
20
1404.426
30
0
40
1.700
0
TEXT
8
PART_LABELS
10
2538.500
20
1423.000
30
0
40
15.000
1
TS2TRX-000000
72
1
73
2
11
2538.500
21
1423.000
31
0
0
LWPOLYLINE
8
OUTER_PROFILES
90
6
70
1
10
2553.101
20
1483.622
10
2513.574
20
1444.095
10
2513.574
20
1401.527
10
2553.101
20
1362.000
10
2563.000
20
1371.899
10
2563.000
20
1473.723
0
CIRCLE
8
INTERIOR_PROFILES
10
2520.574
20
1441.196
30
0
40
1.700
0
CIRCLE
8
INTERIOR_PROFILES
10
2553.101
20
1371.899
30
0
40
1.700
0
CIRCLE
8
INTERIOR_PROFILES
10
2553.101
20
1473.723
30
0
40
1.700
0
CIRCLE
8
INTERIOR_PROFILES
10
2520.574
20
1404.426
30
0
40
1.700
0
TEXT
8
PART_LABELS
10
2364.500
20
1456.000
30
0
40
15.000
1
TS2TRX-000000
72
1
73
2
11
2364.500
21
1456.000
31
0
0
LWPOLYLINE
8
OUTER_PROFILES
90
6
70
1
10
2349.899
20
1395.378
10
2389.426
20
1434.905
10
2389.426
20
1477.473
10
2349.899
20
1517.000
10
2340.000
20
1507.101
10
2340.000
20
1405.277
0
CIRCLE
8
INTERIOR_PROFILES
10
2382.426
20
1437.804
30
0
40
1.700
0
CIRCLE
8
INTERIOR_PROFILES
10
2349.899
20
1507.101
30
0
40
1.700
0
CIRCLE
8
INTERIOR_PROFILES
10
2349.899
20
1405.277
30
0
40
1.700
0
CIRCLE
8
INTERIOR_PROFILES
10
2382.426
20
1474.574
30
0
40
1.700
0
TEXT
8
PART_LABELS
10
1722.000
20
1303.500
30
0
40
15.000
1
SD0SUP-000000
72
1
73
2
11
1722.000
21
1303.500
31
0
0
LWPOLYLINE
8
OUTER_PROFILES
90
8
70
1
10
1718.000
20
1266.500
42
-0.414214
10
1716.500
20
1265.000
10
1713.700
20
1265.000
42
1.000000
10
1713.700
20
1260.000
10
1728.000
20
1260.000
42
0.414214
10
1752.000
20
1284.000
10
1752.000
20
1317.000
42
1.639606
10
1704.572
20
1292.582
42
-0.242311
0
CIRCLE
8
INTERIOR_PROFILES
10
1742.000
20
1317.000
30
0
40
1.700
0
CIRCLE
8
INTERIOR_PROFILES
10
1702.000
20
1317.000
30
0
40
1.700
0
CIRCLE
8
INTERIOR_PROFILES
10
1720.000
20
1333.000
30
0
40
1.700
0
CIRCLE
8
INTERIOR_PROFILES
10
1735.250
20
1333.000
30
0
40
1.700
0
ENDSEC
0
EOF