0
SECTION
2
HEADER
9
$INSUNITS
70
4
0
ENDSEC
0
SECTION
2
ENTITIES
0
LWPOLYLINE
8
SHEET_BORDER
90
5
70
1
10
0.000
20
0.000
10
3050.000
20
0.000
10
3050.000
20
1525.000
10
0.000
20
1525.000
10
0.000
20
0.000
0
TEXT
8
PART_LABELS
10
1231.885
20
628.130
30
0
40
50.000
1
BSRUTH-000000
72
1
73
2
11
1231.885
21
628.130
31
0
0
ARC
8
OUTER_PROFILES
10
1034.821
20
555.900
30
0
40
10.000
50
71.9483
51
90.0000
0
LINE
8
OUTER_PROFILES
10
1774.767
20
565.900
30
0
11
1772.505
21
565.000
31
0
0
LINE
8
OUTER_PROFILES
10
1772.505
20
565.000
30
0
11
1774.505
21
567.262
31
0
0
LINE
8
OUTER_PROFILES
10
261.880
20
1256.262
30
0
11
1035.959
21
567.262
31
0
0
ARC
8
OUTER_PROFILES
10
1030.022
20
556.235
30
0
40
12.524
50
44.4167
51
61.7011
0
ARC
8
OUTER_PROFILES
10
1034.821
20
555.900
30
0
40
10.000
50
65.5054
51
71.9483
0
TEXT
8
PART_LABELS
10
2170.500
20
962.500
30
0
40
50.000
1
BK1DN1-080000
72
1
73
2
11
2170.500
21
962.500
31
0
0
LINE
8
OUTER_PROFILES
10
2560.048
20
583.595
30
0
11
2565.048
21
588.595
31
0
0
LINE
8
OUTER_PROFILES
10
2565.048
20
1336.453
30
0
11
2560.048
21
1341.453
31
0
0
ARC
8
OUTER_PROFILES
10
2557.264
20
1338.214
30
0
40
4.272
50
49.3224
51
82.9774
0
ARC
8
OUTER_PROFILES
10
2552.314
20
1338.201
30
0
40
4.285
50
97.0769
51
130.6233
0
LINE
8
OUTER_PROFILES
10
2549.524
20
1341.453
30
0
11
2549.453
21
1341.524
31
0
0
ARC
8
OUTER_PROFILES
10
2546.201
20
1344.314
30
0
40
4.285
50
319.3767
51
352.9231
0
ARC
8
OUTER_PROFILES
10
2546.214
20
1349.264
30
0
40
4.272
50
7.0226
51
40.6776
0
LINE
8
OUTER_PROFILES
10
2549.453
20
1352.048
30
0
11
2544.453
21
1357.048
31
0
0
LINE
8
OUTER_PROFILES
10
1796.595
20
1357.048
30
0
11
1791.595
21
1352.048
31
0
0
ARC
8
OUTER_PROFILES
10
1794.834
20
1349.264
30
0
40
4.272
50
139.3224
51
172.9774
0
ARC
8
OUTER_PROFILES
10
1794.847
20
1344.314
30
0
40
4.285
50
187.0769
51
220.6233
0
LINE
8
OUTER_PROFILES
10
1791.595
20
1341.524
30
0
11
1791.524
21
1341.453
31
0
0
ARC
8
OUTER_PROFILES
10
1788.734
20
1338.201
30
0
40
4.285
50
49.3767
51
82.9231
0
ARC
8
OUTER_PROFILES
10
1783.784
20
1338.214
30
0
40
4.272
50
97.0226
51
130.6776
0
LINE
8
OUTER_PROFILES
10
1781.000
20
1341.453
30
0
11
1776.000
21
1336.453
31
0
0
LINE
8
OUTER_PROFILES
10
1776.000
20
588.595
30
0
11
1781.000
21
583.595
31
0
0
ARC
8
OUTER_PROFILES
10
1783.784
20
586.834
30
0
40
4.272
50
229.3224
51
262.9774
0
ARC
8
OUTER_PROFILES
10
1788.734
20
586.847
30
0
40
4.285
50
277.0769
51
310.6233
0
LINE
8
OUTER_PROFILES
10
1791.524
20
583.595
30
0
11
1791.595
21
583.524
31
0
0
ARC
8
OUTER_PROFILES
10
1794.847
20
580.734
30
0
40
4.285
50
139.3767
51
172.9231
0
ARC
8
OUTER_PROFILES
10
1794.834
20
575.784
30
0
40
4.272
50
187.0226
51
220.6776
0
LINE
8
OUTER_PROFILES
10
1791.595
20
573.000
30
0
11
1796.595
21
568.000
31
0
0
LINE
8
OUTER_PROFILES
10
2544.453
20
568.000
30
0
11
2549.453
21
573.000
31
0
0
ARC
8
OUTER_PROFILES
10
2546.214
20
575.784
30
0
40
4.272
50
319.3224
51
352.9774
0
ARC
8
OUTER_PROFILES
10
2546.201
20
580.734
30
0
40
4.285
50
7.0769
51
40.6233
0
LINE
8
OUTER_PROFILES
10
2549.453
20
583.524
30
0
11
2549.524
21
583.595
31
0
0
ARC
8
OUTER_PROFILES
10
2552.314
20
586.847
30
0
40
4.285
50
229.3767
51
262.9231
0
ARC
8
OUTER_PROFILES
10
2557.264
20
586.834
30
0
40
4.272
50
277.0226
51
310.6776
0
TEXT
8
PART_LABELS
10
2787.025
20
422.340
30
0
40
50.000
1
DSV100-040080
72
1
73
2
11
2787.025
21
422.340
31
0
0
LINE
8
OUTER_PROFILES
10
2589.626
20
818.922
30
0
11
2586.850
21
816.943
31
0
0
LINE
8
OUTER_PROFILES
10
2586.850
20
816.943
30
0
11
2572.264
21
802.357
31
0
0
LINE
8
OUTER_PROFILES
10
2572.264
20
802.357
30
0
11
2570.002
21
799.458
31
0
0
LINE
8
OUTER_PROFILES
10
2570.002
20
799.458
30
0
11
2568.002
21
797.458
31
0
0
LINE
8
OUTER_PROFILES
10
2568.002
20
24.599
30
0
11
2570.002
21
22.599
31
0
0
LINE
8
OUTER_PROFILES
10
2570.002
20
22.599
30
0
11
2572.264
21
20.529
31
0
0
LINE
8
OUTER_PROFILES
10
2588.264
20
20.529
30
0
11
2589.626
21
20.267
31
0
0
LINE
8
OUTER_PROFILES
10
2589.626
20
4.267
30
0
11
2590.597
21
2.005
31
0
0
LINE
8
OUTER_PROFILES
10
2590.597
20
2.005
30
0
11
2592.597
21
0.005
31
0
0
LINE
8
OUTER_PROFILES
10
2981.455
20
0.005
30
0
11
2983.455
21
2.005
31
0
0
LINE
8
OUTER_PROFILES
10
2983.455
20
2.005
30
0
11
2984.426
21
4.267
31
0
0
LINE
8
OUTER_PROFILES
10
2984.426
20
20.267
30
0
11
2985.788
21
20.529
31
0
0
LINE
8
OUTER_PROFILES
10
3001.788
20
20.529
30
0
11
3004.050
21
22.599
31
0
0
LINE
8
OUTER_PROFILES
10
3004.050
20
22.599
30
0
11
3006.050
21
24.599
31
0
0
LINE
8
OUTER_PROFILES
10
3006.050
20
797.458
30
0
11
3004.050
21
799.458
31
0
0
LINE
8
OUTER_PROFILES
10
3004.050
20
799.458
30
0
11
3001.788
21
802.357
31
0
0
LINE
8
OUTER_PROFILES
10
3001.788
20
802.357
30
0
11
2987.202
21
816.943
31
0
0
LINE
8
OUTER_PROFILES
10
2987.202
20
816.943
30
0
11
2984.426
21
818.922
31
0
0
LINE
8
OUTER_PROFILES
10
2984.426
20
840.263
30
0
11
2983.976
21
841.549
31
0
0
LINE
8
OUTER_PROFILES
10
2983.976
20
841.549
30
0
11
2983.455
21
842.680
31
0
0
LINE
8
OUTER_PROFILES
10
2983.455
20
842.680
30
0
11
2981.455
21
844.680
31
0
0
LINE
8
OUTER_PROFILES
10
2592.597
20
844.680
30
0
11
2590.597
21
842.680
31
0
0
LINE
8
OUTER_PROFILES
10
2590.597
20
842.680
30
0
11
2590.076
21
841.549
31
0
0
LINE
8
OUTER_PROFILES
10
2590.076
20
841.549
30
0
11
2589.626
21
840.263
31
0
0
TEXT
8
PART_LABELS
10
302.630
20
978.995
30
0
40
50.000
1
BAKTRI-000000
72
1
73
2
11
302.630
21
978.995
31
0
0
LINE
8
OUTER_PROFILES
10
22.253
20
1389.987
30
0
11
605.262
21
871.330
31
0
0
CIRCLE
8
INTERIOR_PROFILES
10
532.262
20
855.000
30
0
40
1.700
0
CIRCLE
8
INTERIOR_PROFILES
10
598.262
20
691.000
30
0
40
1.700
0
CIRCLE
8
INTERIOR_PROFILES
10
307.262
20
571.000
30
0
40
1.700
0
CIRCLE
8
INTERIOR_PROFILES
10
568.760
20
894.433
30
0
40
1.700
0
CIRCLE
8
INTERIOR_PROFILES
10
82.262
20
855.000
30
0
40
1.700
0
CIRCLE
8
INTERIOR_PROFILES
10
532.262
20
571.000
30
0
40
1.700
0
CIRCLE
8
INTERIOR_PROFILES
10
438.011
20
1010.751
30
0
40
1.700
0
CIRCLE
8
INTERIOR_PROFILES
10
3.000
20
1266.000
30
0
40
1.700
0
CIRCLE
8
INTERIOR_PROFILES
10
3.000
20
966.000
30
0
40
1.700
0
CIRCLE
8
INTERIOR_PROFILES
10
3.000
20
1354.000
30
0
40
1.700
0
CIRCLE
8
INTERIOR_PROFILES
10
176.513
20
1243.385
30
0
40
1.700
0
CIRCLE
8
INTERIOR_PROFILES
10
16.262
20
866.000
30
0
40
1.700
0
CIRCLE
8
INTERIOR_PROFILES
10
45.764
20
1359.702
30
0
40
1.700
0
CIRCLE
8
INTERIOR_PROFILES
10
307.262
20
1127.068
30
0
40
1.700
0
CIRCLE
8
INTERIOR_PROFILES
10
16.262
20
1041.000
30
0
40
1.700
0
CIRCLE
8
INTERIOR_PROFILES
10
307.262
20
855.000
30
0
40
1.700
0
CIRCLE
8
INTERIOR_PROFILES
10
16.262
20
1216.000
30
0
40
1.700
0
CIRCLE
8
INTERIOR_PROFILES
10
82.262
20
571.000
30
0
40
1.700
0
CIRCLE
8
INTERIOR_PROFILES
10
16.262
20
691.000
30
0
40
1.700
0
CIRCLE
8
INTERIOR_PROFILES
10
3.000
20
666.000
30
0
40
1.700
0
TEXT
8
PART_LABELS
10
1188.260
20
1429.025
30
0
40
34.513
1
FT2100-000000
72
1
73
2
11
1188.260
21
1429.025
31
0
0
LINE
8
OUTER_PROFILES
10
138.000
20
1381.524
30
0
11
140.262
21
1383.524
31
0
0
LINE
8
OUTER_PROFILES
10
140.262
20
1383.524
30
0
11
139.362
21
1381.262
31
0
0
LINE
8
OUTER_PROFILES
10
2237.162
20
1381.262
30
0
11
2236.262
21
1383.524
31
0
0
LINE
8
OUTER_PROFILES
10
2236.262
20
1383.524
30
0
11
2238.524
21
1381.524
31
0
0
LINE
8
OUTER_PROFILES
10
2238.524
20
1476.524
30
0
11
2236.262
21
1474.524
31
0
0
LINE
8
OUTER_PROFILES
10
2236.262
20
1474.524
30
0
11
2237.162
21
1476.786
31
0
0
LINE
8
OUTER_PROFILES
10
139.362
20
1476.786
30
0
11
140.262
21
1474.524
31
0
0
LINE
8
OUTER_PROFILES
10
140.262
20
1474.524
30
0
11
138.000
21
1476.524
31
0
0
CIRCLE
8
INTERIOR_PROFILES
10
2244.024
20
1469.024
30
0
40
1.700
0
CIRCLE
8
INTERIOR_PROFILES
10
132.500
20
1469.024
30
0
40
1.700
0
CIRCLE
8
INTERIOR_PROFILES
10
132.500
20
1389.024
30
0
40
1.700
0
CIRCLE
8
INTERIOR_PROFILES
10
2244.024
20
1389.024
30
0
40
1.700
0
TEXT
8
PART_LABELS
10
2735.525
20
1134.895
30
0
40
50.000
1
SDTRIR-000000
72
1
73
2
11
2735.525
21
1134.895
31
0
0
LWPOLYLINE
8
OUTER_PROFILES
90
24
70
1
10
2881.291
20
1416.362
42
0.414214
10
2881.291
20
1414.948
10
2886.786
20
1409.453
10
2886.786
20
1405.595
10
2881.291
20
1400.100
42
0.414214
10
2881.291
20
1398.686
10
2886.786
20
1393.191
10
2903.048
20
1393.191
10
2903.048
20
864.262
10
2879.524
20
864.262
10
2879.524
20
848.000
10
2601.524
20
848.000
10
2601.524
20
864.262
10
2568.000
20
864.262
10
2568.000
20
1393.191
10
2594.262
20
1393.191
10
2599.757
20
1398.686
42
0.414214
10
2599.757
20
1400.100
10
2594.262
20
1405.595
10
2594.262
20
1409.453
10
2599.757
20
1414.948
42
0.414214
10
2599.757
20
1416.362
10
2594.333
20
1421.786
10
2886.715
20
1421.786
0
CIRCLE
8
INTERIOR_PROFILES
10
2847.524
20
1139.262
30
0
40
1.700
0
CIRCLE
8
INTERIOR_PROFILES
10
2847.524
20
1107.262
30
0
40
1.700
0
CIRCLE
8
INTERIOR_PROFILES
10
2888.786
20
1329.262
30
0
40
6.500
0
CIRCLE
8
INTERIOR_PROFILES
10
2847.524
20
1363.262
30
0
40
1.700
0
CIRCLE
8
INTERIOR_PROFILES
10
2888.786
20
1191.262
30
0
40
1.700
0
CIRCLE
8
INTERIOR_PROFILES
10
2888.786
20
1313.262
30
0
40
1.700
0
CIRCLE
8
INTERIOR_PROFILES
10
2610.524
20
1391.262
30
0
40
1.700
0
CIRCLE
8
INTERIOR_PROFILES
10
2592.262
20
1369.262
30
0
40
1.700
0
CIRCLE
8
INTERIOR_PROFILES
10
2888.786
20
875.262
30
0
40
1.700
0
CIRCLE
8
INTERIOR_PROFILES
10
2888.786
20
1369.262
30
0
40
1.700
0
CIRCLE
8
INTERIOR_PROFILES
10
2573.000
20
1369.262
30
0
40
1.700
0
CIRCLE
8
INTERIOR_PROFILES
10
2888.786
20
867.262
30
0
40
1.700
0
CIRCLE
8
INTERIOR_PROFILES
10
2610.524
20
979.262
30
0
40
1.700
0
CIRCLE
8
INTERIOR_PROFILES
10
2642.524
20
1391.262
30
0
40
1.700
0
CIRCLE
8
INTERIOR_PROFILES
10
2888.786
20
1345.262
30
0
40
1.700
0
CIRCLE
8
INTERIOR_PROFILES
10
2610.524
20
1107.262
30
0
40
1.700
0
CIRCLE
8
INTERIOR_PROFILES
10
2592.262
20
867.262
30
0
40
1.700
0
CIRCLE
8
INTERIOR_PROFILES
10
2657.024
20
1373.262
30
0
40
6.500
0
CIRCLE
8
INTERIOR_PROFILES
10
2610.524
20
1235.262
30
0
40
1.700
0
CIRCLE
8
INTERIOR_PROFILES
10
2774.524
20
855.000
30
0
40
1.700
0
CIRCLE
8
INTERIOR_PROFILES
10
2888.786
20
1013.262
30
0
40
1.700
0
CIRCLE
8
INTERIOR_PROFILES
10
2888.786
20
907.262
30
0
40
1.700
0
CIRCLE
8
INTERIOR_PROFILES
10
2674.524
20
1391.262
30
0
40
1.700
0
CIRCLE
8
INTERIOR_PROFILES
10
2592.262
20
1013.262
30
0
40
1.700
0
CIRCLE
8
INTERIOR_PROFILES
10
2592.262
20
1191.262
30
0
40
1.700
0
CIRCLE
8
INTERIOR_PROFILES
10
2799.524
20
1391.262
30
0
40
1.700
0
CIRCLE
8
INTERIOR_PROFILES
10
2610.524
20
1363.262
30
0
40
1.700
0
CIRCLE
8
INTERIOR_PROFILES
10
2592.262
20
1329.262
30
0
40
6.500
0
TEXT
8
PART_LABELS
10
920.760
20
1309.845
30
0
40
22.922
1
BTHLSR-140000
72
1
73
2
11
920.760
21
1309.845
31
0
0
CIRCLE
8
INTERIOR_PROFILES
10
166.500
20
1313.928
30
0
40
1.700
0
CIRCLE
8
INTERIOR_PROFILES
10
520.762
20
1352.190
30
0
40
1.700
0
CIRCLE
8
INTERIOR_PROFILES
10
1270.762
20
1352.190
30
0
40
1.700
0
CIRCLE
8
INTERIOR_PROFILES
10
920.762
20
1289.166
30
0
40
1.700
0
CIRCLE
8
INTERIOR_PROFILES
10
270.762
20
1289.166
30
0
40
1.700
0
CIRCLE
8
INTERIOR_PROFILES
10
1245.762
20
1289.166
30
0
40
1.700
0
CIRCLE
8
INTERIOR_PROFILES
10
1661.762
20
1352.190
30
0
40
1.700
0
CIRCLE
8
INTERIOR_PROFILES
10
1570.762
20
1289.166
30
0
40
1.700
0
CIRCLE
8
INTERIOR_PROFILES
10
176.262
20
1304.428
30
0
40
2.500
0
CIRCLE
8
INTERIOR_PROFILES
10
1665.262
20
1304.428
30
0
40
2.500
0
CIRCLE
8
INTERIOR_PROFILES
10
861.762
20
1352.190
30
0
40
1.700
0
CIRCLE
8
INTERIOR_PROFILES
10
620.762
20
1352.190
30
0
40
1.700
0
CIRCLE
8
INTERIOR_PROFILES
10
870.762
20
1352.190
30
0
40
1.700
0
CIRCLE
8
INTERIOR_PROFILES
10
1070.762
20
1352.190
30
0
40
1.700
0
CIRCLE
8
INTERIOR_PROFILES
10
190.762
20
1317.928
30
0
40
8.750
0
CIRCLE
8
INTERIOR_PROFILES
10
1675.024
20
1313.928
30
0
40
1.700
0
CIRCLE
8
INTERIOR_PROFILES
10
970.762
20
1352.190
30
0
40
1.700
0
CIRCLE
8
INTERIOR_PROFILES
10
1470.762
20
1352.190
30
0
40
1.700
0
CIRCLE
8
INTERIOR_PROFILES
10
179.762
20
1352.190
30
0
40
1.700
0
CIRCLE
8
INTERIOR_PROFILES
10
1570.762
20
1352.190
30
0
40
1.700
0
CIRCLE
8
INTERIOR_PROFILES
10
595.762
20
1289.166
30
0
40
1.700
0
CIRCLE
8
INTERIOR_PROFILES
10
879.762
20
1352.190
30
0
40
1.700
0
CIRCLE
8
INTERIOR_PROFILES
10
320.762
20
1352.190
30
0
40
1.700
0
CIRCLE
8
INTERIOR_PROFILES
10
1675.024
20
1338.928
30
0
40
1.700
0
CIRCLE
8
INTERIOR_PROFILES
10
420.762
20
1352.190
30
0
40
1.700
0
CIRCLE
8
INTERIOR_PROFILES
10
1170.762
20
1352.190
30
0
40
1.700
0
CIRCLE
8
INTERIOR_PROFILES
10
720.762
20
1352.190
30
0
40
1.700
0
CIRCLE
8
INTERIOR_PROFILES
10
820.762
20
1352.190
30
0
40
1.700
0
CIRCLE
8
INTERIOR_PROFILES
10
166.500
20
1338.928
30
0
40
1.700
0
CIRCLE
8
INTERIOR_PROFILES
10
1370.762
20
1352.190
30
0
40
1.700
0
CIRCLE
8
INTERIOR_PROFILES
10
220.762
20
1352.190
30
0
40
1.700
0
TEXT
8
PART_LABELS
10
2965.500
20
1146.000
30
0
40
30.750
1
FN2BNX-060000
72
1
73
2
11
2965.500
21
1146.000
31
0
0
ARC
8
OUTER_PROFILES
10
2998.841
20
846.838
30
0
40
12.093
50
15.0973
51
63.9506
0
ARC
8
OUTER_PROFILES
10
2994.897
20
840.211
30
0
40
19.790
50
62.1175
51
90.4598
0
ARC
8
OUTER_PROFILES
10
3013.000
20
850.545
30
0
40
2.545
50
192.6267
51
270.0000
0
ARC
8
OUTER_PROFILES
10
3025.000
20
850.000
30
0
40
2.000
50
270.0000
51
0.0000
0
ARC
8
OUTER_PROFILES
10
3025.000
20
1442.000
30
0
40
2.000
50
0.0000
51
90.0000
0
ARC
8
OUTER_PROFILES
10
3013.000
20
1441.456
30
0
40
2.545
50
90.0000
51
167.3733
0
ARC
8
OUTER_PROFILES
10
2995.182
20
1450.295
30
0
40
18.301
50
268.6095
51
312.2344
0
ARC
8
OUTER_PROFILES
10
3000.043
20
1444.539
30
0
40
10.775
50
313.6733
51
346.4369
0
ARC
8
OUTER_PROFILES
10
2932.111
20
1445.162
30
0
40
12.093
50
195.0973
51
243.9506
0
ARC
8
OUTER_PROFILES
10
2936.055
20
1451.789
30
0
40
19.790
50
242.1175
51
270.4598
0
ARC
8
OUTER_PROFILES
10
2917.952
20
1441.456
30
0
40
2.544
50
12.6267
51
90.0000
0
ARC
8
OUTER_PROFILES
10
2905.952
20
1442.000
30
0
40
2.000
50
90.0000
51
180.0000
0
ARC
8
OUTER_PROFILES
10
2905.952
20
850.000
30
0
40
2.000
50
180.0000
51
270.0000
0
ARC
8
OUTER_PROFILES
10
2917.952
20
850.545
30
0
40
2.544
50
270.0000
51
347.3733
0
ARC
8
OUTER_PROFILES
10
2935.770
20
841.705
30
0
40
18.301
50
88.6095
51
132.2344
0
ARC
8
OUTER_PROFILES
10
2930.909
20
847.461
30
0
40
10.775
50
133.6733
51
166.4369
0
CIRCLE
8
INTERIOR_PROFILES
10
3016.000
20
927.000
30
0
40
1.700
0
CIRCLE
8
INTERIOR_PROFILES
10
3016.000
20
1396.000
30
0
40
1.700
0
CIRCLE
8
INTERIOR_PROFILES
10
3016.000
20
1046.000
30
0
40
1.700
0
CIRCLE
8
INTERIOR_PROFILES
10
3016.000
20
996.000
30
0
40
1.700
0
CIRCLE
8
INTERIOR_PROFILES
10
3016.000
20
1437.000
30
0
40
1.700
0
CIRCLE
8
INTERIOR_PROFILES
10
3016.000
20
1411.000
30
0
40
1.700
0
CIRCLE
8
INTERIOR_PROFILES
10
3016.000
20
881.000
30
0
40
1.700
0
CIRCLE
8
INTERIOR_PROFILES
10
3016.000
20
1365.000
30
0
40
1.700
0
CIRCLE
8
INTERIOR_PROFILES
10
3016.000
20
946.000
30
0
40
1.700
0
CIRCLE
8
INTERIOR_PROFILES
10
3016.000
20
1096.000
30
0
40
1.700
0
CIRCLE
8
INTERIOR_PROFILES
10
3016.000
20
1196.000
30
0
40
1.700
0
CIRCLE
8
INTERIOR_PROFILES
10
2906.952
20
1437.000
30
0
40
1.700
0
CIRCLE
8
INTERIOR_PROFILES
10
3016.000
20
1346.000
30
0
40
1.700
0
CIRCLE
8
INTERIOR_PROFILES
10
3016.000
20
1296.000
30
0
40
1.700
0
CIRCLE
8
INTERIOR_PROFILES
10
2906.952
20
855.000
30
0
40
1.700
0
CIRCLE
8
INTERIOR_PROFILES
10
3024.000
20
855.000
30
0
40
1.700
0
CIRCLE
8
INTERIOR_PROFILES
10
3024.000
20
1437.000
30
0
40
1.700
0
CIRCLE
8
INTERIOR_PROFILES
10
3016.000
20
1246.000
30
0
40
1.700
0
CIRCLE
8
INTERIOR_PROFILES
10
3016.000
20
1146.000
30
0
40
1.700
0
CIRCLE
8
INTERIOR_PROFILES
10
3016.000
20
855.000
30
0
40
1.700
0
CIRCLE
8
INTERIOR_PROFILES
10
2945.880
20
901.314
30
0
40
1.700
0
CIRCLE
8
INTERIOR_PROFILES
10
2988.104
20
890.000
30
0
40
1.700
0
CIRCLE
8
INTERIOR_PROFILES
10
2988.104
20
1402.000
30
0
40
1.700
0
CIRCLE
8
INTERIOR_PROFILES
10
2985.072
20
1413.314
30
0
40
1.700
0
CIRCLE
8
INTERIOR_PROFILES
10
2942.849
20
1402.000
30
0
40
1.700
0
CIRCLE
8
INTERIOR_PROFILES
10
2965.476
20
1168.628
30
0
40
1.700
0
CIRCLE
8
INTERIOR_PROFILES
10
2965.476
20
1379.373
30
0
40
1.700
0
CIRCLE
8
INTERIOR_PROFILES
10
2942.849
20
1146.000
30
0
40
1.700
0
CIRCLE
8
INTERIOR_PROFILES
10
2945.880
20
878.686
30
0
40
1.700
0
CIRCLE
8
INTERIOR_PROFILES
10
2965.476
20
890.000
30
0
40
1.700
0
CIRCLE
8
INTERIOR_PROFILES
10
2945.880
20
1390.686
30
0
40
1.700
0
CIRCLE
8
INTERIOR_PROFILES
10
2945.880
20
1413.314
30
0
40
1.700
0
CIRCLE
8
INTERIOR_PROFILES
10
2930.214
20
1146.000
30
0
40
1.700
0
CIRCLE
8
INTERIOR_PROFILES
10
3000.738
20
1146.000
30
0
40
1.700
0
CIRCLE
8
INTERIOR_PROFILES
10
2930.214
20
1371.000
30
0
40
1.700
0
CIRCLE
8
INTERIOR_PROFILES
10
2965.476
20
1424.628
30
0
40
1.700
0
CIRCLE
8
INTERIOR_PROFILES
10
2985.072
20
901.314
30
0
40
1.700
0
CIRCLE
8
INTERIOR_PROFILES
10
2985.072
20
1390.686
30
0
40
1.700
0
CIRCLE
8
INTERIOR_PROFILES
10
3000.738
20
921.000
30
0
40
1.700
0
CIRCLE
8
INTERIOR_PROFILES
10
2930.214
20
921.000
30
0
40
1.700
0
CIRCLE
8
INTERIOR_PROFILES
10
2965.476
20
912.628
30
0
40
1.700
0
CIRCLE
8
INTERIOR_PROFILES
10
2942.849
20
890.000
30
0
40
1.700
0
CIRCLE
8
INTERIOR_PROFILES
10
3000.738
20
1371.000
30
0
40
1.700
0
CIRCLE
8
INTERIOR_PROFILES
10
2965.476
20
867.373
30
0
40
1.700
0
CIRCLE
8
INTERIOR_PROFILES
10
2985.072
20
878.686
30
0
40
1.700
0
CIRCLE
8
INTERIOR_PROFILES
10
2985.072
20
1134.686
30
0
40
1.700
0
CIRCLE
8
INTERIOR_PROFILES
10
2945.880
20
1134.686
30
0
40
1.700
0
CIRCLE
8
INTERIOR_PROFILES
10
2945.880
20
1157.314
30
0
40
1.700
0
CIRCLE
8
INTERIOR_PROFILES
10
2965.476
20
1123.373
30
0
40
1.700
0
CIRCLE
8
INTERIOR_PROFILES
10
2988.104
20
1146.000
30
0
40
1.700
0
CIRCLE
8
INTERIOR_PROFILES
10
2985.072
20
1157.314
30
0
40
1.700
0
TEXT
8
PART_LABELS
10
2694.500
20
1478.500
30
0
40
15.250
1
TS1BHH-070000-Ruth
72
1
73
2
11
2694.500
21
1478.500
31
0
0
CIRCLE
8
OUTER_PROFILES
10
3048.524
20
1502.024
30
0
40
1.700
0
CIRCLE
8
OUTER_PROFILES
10
3035.262
20
1502.024
30
0
40
1.700
0
CIRCLE
8
OUTER_PROFILES
10
3009.262
20
1502.024
30
0
40
1.700
0
CIRCLE
8
OUTER_PROFILES
10
2379.262
20
1502.024
30
0
40
1.700
0
CIRCLE
8
OUTER_PROFILES
10
2353.262
20
1502.024
30
0
40
1.700
0
CIRCLE
8
OUTER_PROFILES
10
2425.262
20
1502.024
30
0
40
1.700
0
CIRCLE
8
OUTER_PROFILES
10
2963.262
20
1502.024
30
0
40
1.700
0
CIRCLE
8
OUTER_PROFILES
10
2353.262
20
1460.262
30
0
40
1.700
0
CIRCLE
8
OUTER_PROFILES
10
3035.262
20
1485.262
30
0
40
1.700
0
CIRCLE
8
OUTER_PROFILES
10
2353.262
20
1485.262
30
0
40
1.700
0
CIRCLE
8
OUTER_PROFILES
10
3035.262
20
1460.262
30
0
40
1.700
0
CIRCLE
8
OUTER_PROFILES
10
2340.000
20
1502.024
30
0
40
1.700
0
TEXT
8
PART_LABELS
10
3032.000
20
350.000
30
0
40
15.000
1
FN3BLA-080000
72
1
73
2
11
3032.000
21
350.000
31
0
0
CIRCLE
8
INTERIOR_PROFILES
10
3046.500
20
187.500
30
0
40
1.250
0
CIRCLE
8
INTERIOR_PROFILES
10
3046.500
20
512.500
30
0
40
1.250
0
CIRCLE
8
INTERIOR_PROFILES
10
3013.738
20
350.000
30
0
40
1.700
0
CIRCLE
8
INTERIOR_PROFILES
10
3046.500
20
675.000
30
0
40
1.250
0
CIRCLE
8
INTERIOR_PROFILES
10
3013.738
20
25.000
30
0
40
1.700
0
CIRCLE
8
INTERIOR_PROFILES
10
3013.738
20
675.000
30
0
40
1.700
0
CIRCLE
8
INTERIOR_PROFILES
10
3046.500
20
25.000
30
0
40
1.250
0
CIRCLE
8
INTERIOR_PROFILES
10
3046.500
20
350.000
30
0
40
1.250
0
TEXT
8
PART_LABELS
10
2488.000
20
250.000
30
0
40
15.000
1
FN3BLA-060000
72
1
73
2
11
2488.000
21
250.000
31
0
0
CIRCLE
8
INTERIOR_PROFILES
10
2502.500
20
250.000
30
0
40
1.250
0
CIRCLE
8
INTERIOR_PROFILES
10
2502.500
20
137.500
30
0
40
1.250
0
CIRCLE
8
INTERIOR_PROFILES
10
2502.500
20
25.000
30
0
40
1.250
0
CIRCLE
8
INTERIOR_PROFILES
10
2502.500
20
475.000
30
0
40
1.250
0
CIRCLE
8
INTERIOR_PROFILES
10
2502.500
20
362.500
30
0
40
1.250
0
CIRCLE
8
INTERIOR_PROFILES
10
2469.738
20
250.000
30
0
40
1.700
0
CIRCLE
8
INTERIOR_PROFILES
10
2469.738
20
25.000
30
0
40
1.700
0
CIRCLE
8
INTERIOR_PROFILES
10
2469.738
20
475.000
30
0
40
1.700
0
TEXT
8
PART_LABELS
10
2534.500
20
266.500
30
0
40
15.000
1
SDTRIR-000002
72
1
73
2
11
2534.500
21
266.500
31
0
0
LWPOLYLINE
8
OUTER_PROFILES
90
8
70
1
10
2557.000
20
3.000
10
2557.000
20
530.000
10
2540.738
20
530.000
42
0.500000
10
2528.738
20
530.000
10
2512.476
20
530.000
10
2512.476
20
3.000
10
2528.738
20
3.000
42
0.500000
10
2540.738
20
3.000
0
CIRCLE
8
INTERIOR_PROFILES
10
2534.738
20
505.000
30
0
40
1.700
0
CIRCLE
8
INTERIOR_PROFILES
10
2534.738
20
3.000
30
0
40
1.700
0
CIRCLE
8
INTERIOR_PROFILES
10
2534.738
20
327.000
30
0
40
1.700
0
CIRCLE
8
INTERIOR_PROFILES
10
2534.738
20
149.000
30
0
40
1.700
0
CIRCLE
8
INTERIOR_PROFILES
10
2534.738
20
384.000
30
0
40
1.700
0
CIRCLE
8
INTERIOR_PROFILES
10
2534.738
20
530.000
30
0
40
1.700
0
CIRCLE
8
INTERIOR_PROFILES
10
2534.738
20
28.000
30
0
40
1.700
0
CIRCLE
8
INTERIOR_PROFILES
10
2534.738
20
206.000
30
0
40
1.700
0
TEXT
8
PART_LABELS
10
678.000
20
602.000
30
0
40
17.000
1
BXXTR0-000000
72
1
73
2
11
678.000
21
602.000
31
0
0
LWPOLYLINE
8
OUTER_PROFILES
90
10
70
1
10
748.378
20
582.842
10
697.466
20
633.754
10
690.210
20
626.497
10
683.139
20
633.569
42
0.414214
10
673.239
20
633.569
10
666.168
20
626.497
10
658.912
20
633.754
10
608.000
20
582.842
10
622.842
20
568.000
10
733.536
20
568.000
0
CIRCLE
8
INTERIOR_PROFILES
10
650.426
20
619.612
30
0
40
1.700
0
CIRCLE
8
INTERIOR_PROFILES
10
678.189
20
577.000
30
0
40
5.000
0
CIRCLE
8
INTERIOR_PROFILES
10
617.899
20
587.085
30
0
40
1.700
0
CIRCLE
8
INTERIOR_PROFILES
10
729.808
20
577.000
30
0
40
1.700
0
CIRCLE
8
INTERIOR_PROFILES
10
626.570
20
577.000
30
0
40
1.700
0
CIRCLE
8
INTERIOR_PROFILES
10
678.189
20
628.619
30
0
40
1.700
0
CIRCLE
8
INTERIOR_PROFILES
10
705.951
20
619.612
30
0
40
1.700
0
CIRCLE
8
INTERIOR_PROFILES
10
738.478
20
587.085
30
0
40
1.700
0
TEXT
8
PART_LABELS
10
822.000
20
602.000
30
0
40
17.000
1
BXXTR0-000000
72
1
73
2
11
822.000
21
602.000
31
0
0
LWPOLYLINE
8
OUTER_PROFILES
90
10
70
1
10
892.378
20
582.842
10
841.466
20
633.754
10
834.210
20
626.497
10
827.139
20
633.569
42
0.414214
10
817.239
20
633.569
10
810.168
20
626.497
10
802.912
20
633.754
10
752.000
20
582.842
10
766.842
20
568.000
10
877.536
20
568.000
0
CIRCLE
8
INTERIOR_PROFILES
10
794.426
20
619.612
30
0
40
1.700
0
CIRCLE
8
INTERIOR_PROFILES
10
822.189
20
577.000
30
0
40
5.000
0
CIRCLE
8
INTERIOR_PROFILES
10
761.899
20
587.085
30
0
40
1.700
0
CIRCLE
8
INTERIOR_PROFILES
10
873.808
20
577.000
30
0
40
1.700
0
CIRCLE
8
INTERIOR_PROFILES
10
770.570
20
577.000
30
0
40
1.700
0
CIRCLE
8
INTERIOR_PROFILES
10
822.189
20
628.619
30
0
40
1.700
0
CIRCLE
8
INTERIOR_PROFILES
10
849.951
20
619.612
30
0
40
1.700
0
CIRCLE
8
INTERIOR_PROFILES
10
882.478
20
587.085
30
0
40
1.700
0
TEXT
8
PART_LABELS
10
770.000
20
670.000
30
0
40
17.000
1
BXXTR0-000000
72
1
73
2
11
770.000
21
670.000
31
0
0
LWPOLYLINE
8
OUTER_PROFILES
90
10
70
1
10
750.842
20
599.622
10
801.754
20
650.534
10
794.497
20
657.790
10
801.569
20
664.861
42
0.414214
10
801.569
20
674.761
10
794.497
20
681.832
10
801.754
20
689.088
10
750.842
20
740.000
10
736.000
20
725.158
10
736.000
20
614.464
0
CIRCLE
8
INTERIOR_PROFILES
10
787.612
20
697.574
30
0
40
1.700
0
CIRCLE
8
INTERIOR_PROFILES
10
745.000
20
669.811
30
0
40
5.000
0
CIRCLE
8
INTERIOR_PROFILES
10
755.085
20
730.101
30
0
40
1.700
0
CIRCLE
8
INTERIOR_PROFILES
10
745.000
20
618.192
30
0
40
1.700
0
CIRCLE
8
INTERIOR_PROFILES
10
745.000
20
721.430
30
0
40
1.700
0
CIRCLE
8
INTERIOR_PROFILES
10
796.619
20
669.811
30
0
40
1.700
0
CIRCLE
8
INTERIOR_PROFILES
10
787.612
20
642.049
30
0
40
1.700
0
CIRCLE
8
INTERIOR_PROFILES
10
755.085
20
609.522
30
0
40
1.700
0
TEXT
8
PART_LABELS
10
642.000
20
678.000
30
0
40
17.000
1
BXXTR0-000000
72
1
73
2
11
642.000
21
678.000
31
0
0
LWPOLYLINE
8
OUTER_PROFILES
90
10
70
1
10
622.842
20
607.622
10
673.754
20
658.534
10
666.497
20
665.790
10
673.569
20
672.861
42
0.414214
10
673.569
20
682.761
10
666.497
20
689.832
10
673.754
20
697.088
10
622.842
20
748.000
10
608.000
20
733.158
10
608.000
20
622.464
0
CIRCLE
8
INTERIOR_PROFILES
10
659.612
20
705.574
30
0
40
1.700
0
CIRCLE
8
INTERIOR_PROFILES
10
617.000
20
677.811
30
0
40
5.000
0
CIRCLE
8
INTERIOR_PROFILES
10
627.085
20
738.101
30
0
40
1.700
0
CIRCLE
8
INTERIOR_PROFILES
10
617.000
20
626.192
30
0
40
1.700
0
CIRCLE
8
INTERIOR_PROFILES
10
617.000
20
729.430
30
0
40
1.700
0
CIRCLE
8
INTERIOR_PROFILES
10
668.619
20
677.811
30
0
40
1.700
0
CIRCLE
8
INTERIOR_PROFILES
10
659.612
20
650.049
30
0
40
1.700
0
CIRCLE
8
INTERIOR_PROFILES
10
627.085
20
617.522
30
0
40
1.700
0
TEXT
8
PART_LABELS
10
714.000
20
766.000
30
0
40
17.000
1
BXXTR0-000000
72
1
73
2
11
714.000
21
766.000
31
0
0
LWPOLYLINE
8
OUTER_PROFILES
90
10
70
1
10
694.842
20
695.622
10
745.754
20
746.534
10
738.497
20
753.790
10
745.569
20
760.861
42
0.414214
10
745.569
20
770.761
10
738.497
20
777.832
10
745.754
20
785.088
10
694.842
20
836.000
10
680.000
20
821.158
10
680.000
20
710.464
0
CIRCLE
8
INTERIOR_PROFILES
10
731.612
20
793.574
30
0
40
1.700
0
CIRCLE
8
INTERIOR_PROFILES
10
689.000
20
765.811
30
0
40
5.000
0
CIRCLE
8
INTERIOR_PROFILES
10
699.085
20
826.101
30
0
40
1.700
0
CIRCLE
8
INTERIOR_PROFILES
10
689.000
20
714.192
30
0
40
1.700
0
CIRCLE
8
INTERIOR_PROFILES
10
689.000
20
817.430
30
0
40
1.700
0
CIRCLE
8
INTERIOR_PROFILES
10
740.619
20
765.811
30
0
40
1.700
0
CIRCLE
8
INTERIOR_PROFILES
10
731.612
20
738.049
30
0
40
1.700
0
CIRCLE
8
INTERIOR_PROFILES
10
699.085
20
705.522
30
0
40
1.700
0
TEXT
8
PART_LABELS
10
642.000
20
822.000
30
0
40
17.000
1
BXXTR0-000000
72
1
73
2
11
642.000
21
822.000
31
0
0
LWPOLYLINE
8
OUTER_PROFILES
90
10
70
1
10
622.842
20
751.622
10
673.754
20
802.534
10
666.497
20
809.790
10
673.569
20
816.861
42
0.414214
10
673.569
20
826.761
10
666.497
20
833.832
10
673.754
20
841.088
10
622.842
20
892.000
10
608.000
20
877.158
10
608.000
20
766.464
0
CIRCLE
8
INTERIOR_PROFILES
10
659.612
20
849.574
30
0
40
1.700
0
CIRCLE
8
INTERIOR_PROFILES
10
617.000
20
821.811
30
0
40
5.000
0
CIRCLE
8
INTERIOR_PROFILES
10
627.085
20
882.101
30
0
40
1.700
0
CIRCLE
8
INTERIOR_PROFILES
10
617.000
20
770.192
30
0
40
1.700
0
CIRCLE
8
INTERIOR_PROFILES
10
617.000
20
873.430
30
0
40
1.700
0
CIRCLE
8
INTERIOR_PROFILES
10
668.619
20
821.811
30
0
40
1.700
0
CIRCLE
8
INTERIOR_PROFILES
10
659.612
20
794.049
30
0
40
1.700
0
CIRCLE
8
INTERIOR_PROFILES
10
627.085
20
761.522
30
0
40
1.700
0
TEXT
8
PART_LABELS
10
2414.000
20
1394.000
30
0
40
17.000
1
BXXTR0-000000
72
1
73
2
11
2414.000
21
1394.000
31
0
0
LWPOLYLINE
8
OUTER_PROFILES
90
10
70
1
10
2484.378
20
1374.842
10
2433.466
20
1425.754
10
2426.210
20
1418.497
10
2419.139
20
1425.569
42
0.414214
10
2409.239
20
1425.569
10
2402.168
20
1418.497
10
2394.912
20
1425.754
10
2344.000
20
1374.842
10
2358.842
20
1360.000
10
2469.536
20
1360.000
0
CIRCLE
8
INTERIOR_PROFILES
10
2386.426
20
1411.612
30
0
40
1.700
0
CIRCLE
8
INTERIOR_PROFILES
10
2414.189
20
1369.000
30
0
40
5.000
0
CIRCLE
8
INTERIOR_PROFILES
10
2353.899
20
1379.085
30
0
40
1.700
0
CIRCLE
8
INTERIOR_PROFILES
10
2465.808
20
1369.000
30
0
40
1.700
0
CIRCLE
8
INTERIOR_PROFILES
10
2362.570
20
1369.000
30
0
40
1.700
0
CIRCLE
8
INTERIOR_PROFILES
10
2414.189
20
1420.619
30
0
40
1.700
0
CIRCLE
8
INTERIOR_PROFILES
10
2441.951
20
1411.612
30
0
40
1.700
0
CIRCLE
8
INTERIOR_PROFILES
10
2474.478
20
1379.085
30
0
40
1.700
0
TEXT
8
PART_LABELS
10
2518.000
20
1410.000
30
0
40
17.000
1
BXXTR0-000000
72
1
73
2
11
2518.000
21
1410.000
31
0
0
LWPOLYLINE
8
OUTER_PROFILES
90
10
70
1
10
2447.622
20
1429.158
10
2498.534
20
1378.246
10
2505.790
20
1385.503
10
2512.861
20
1378.431
42
0.414214
10
2522.761
20
1378.431
10
2529.832
20
1385.503
10
2537.088
20
1378.246
10
2588.000
20
1429.158
10
2573.158
20
1444.000
10
2462.464
20
1444.000
0
CIRCLE
8
INTERIOR_PROFILES
10
2545.574
20
1392.388
30
0
40
1.700
0
CIRCLE
8
INTERIOR_PROFILES
10
2517.811
20
1435.000
30
0
40
5.000
0
CIRCLE
8
INTERIOR_PROFILES
10
2578.101
20
1424.915
30
0
40
1.700
0
CIRCLE
8
INTERIOR_PROFILES
10
2466.192
20
1435.000
30
0
40
1.700
0
CIRCLE
8
INTERIOR_PROFILES
10
2569.430
20
1435.000
30
0
40
1.700
0
CIRCLE
8
INTERIOR_PROFILES
10
2517.811
20
1383.381
30
0
40
1.700
0
CIRCLE
8
INTERIOR_PROFILES
10
2490.049
20
1392.388
30
0
40
1.700
0
CIRCLE
8
INTERIOR_PROFILES
10
2457.522
20
1424.915
30
0
40
1.700
0
TEXT
8
PART_LABELS
10
1731.500
20
1294.000
30
0
40
15.000
1
SD0SUP-000000
72
1
73
2
11
1731.500
21
1294.000
31
0
0
LWPOLYLINE
8
OUTER_PROFILES
90
8
70
1
10
1694.500
20
1298.000
42
-0.414214
10
1693.000
20
1299.500
10
1693.000
20
1302.300
42
1.000000
10
1688.000
20
1302.300
10
1688.000
20
1288.000
42
0.414214
10
1712.000
20
1264.000
10
1745.000
20
1264.000
42
1.639606
10
1720.582
20
1311.428
42
-0.242311
0
CIRCLE
8
INTERIOR_PROFILES
10
1745.000
20
1274.000
30
0
40
1.700
0
CIRCLE
8
INTERIOR_PROFILES
10
1745.000
20
1314.000
30
0
40
1.700
0
CIRCLE
8
INTERIOR_PROFILES
10
1761.000
20
1296.000
30
0
40
1.700
0
CIRCLE
8
INTERIOR_PROFILES
10
1761.000
20
1280.750
30
0
40
1.700
0
LINE
8
OUTER_PROFILES
10
0.000
20
0.000
30
0
11
0.000
21
565.900
31
0
0
LINE
8
OUTER_PROFILES
10
0.000
20
591.000
30
0
11
0.000
21
1389.987
31
0
0
LINE
8
OUTER_PROFILES
10
2463.767
20
0.000
30
0
11
2463.767
21
249.850
31
0
0
LINE
8
OUTER_PROFILES
10
2463.767
20
250.150
30
0
11
2463.767
21
500.000
31
0
0
LINE
8
OUTER_PROFILES
10
2463.767
20
500.000
30
0
11
2463.767
21
565.900
31
0
0
LINE
8
OUTER_PROFILES
10
1774.505
20
567.262
30
0
11
1774.505
21
1256.262
31
0
0
LINE
8
OUTER_PROFILES
10
2565.048
20
588.595
30
0
11
2565.048
21
1336.453
31
0
0
LINE
8
OUTER_PROFILES
10
2550.453
20
575.262
30
0
11
2550.453
21
581.262
31
0
0
LINE
8
OUTER_PROFILES
10
2550.453
20
1343.786
30
0
11
2550.453
21
1349.786
31
0
0
LINE
8
OUTER_PROFILES
10
1790.595
20
575.262
30
0
11
1790.595
21
581.262
31
0
0
LINE
8
OUTER_PROFILES
10
1790.595
20
1343.786
30
0
11
1790.595
21
1349.786
31
0
0
LINE
8
OUTER_PROFILES
10
1776.000
20
588.595
30
0
11
1776.000
21
1336.453
31
0
0
LINE
8
OUTER_PROFILES
10
2568.002
20
24.599
30
0
11
2568.002
21
797.458
31
0
0
LINE
8
OUTER_PROFILES
10
2589.626
20
4.267
30
0
11
2589.626
21
20.267
31
0
0
LINE
8
OUTER_PROFILES
10
2589.626
20
818.922
30
0
11
2589.626
21
840.263
31
0
0
LINE
8
OUTER_PROFILES
10
2984.426
20
4.267
30
0
11
2984.426
21
20.267
31
0
0
LINE
8
OUTER_PROFILES
10
2984.426
20
818.922
30
0
11
2984.426
21
840.263
31
0
0
LINE
8
OUTER_PROFILES
10
3006.050
20
24.599
30
0
11
3006.050
21
797.458
31
0
0
LINE
8
OUTER_PROFILES
10
9.262
20
568.000
30
0
11
9.262
21
591.000
31
0
0
LINE
8
OUTER_PROFILES
10
605.262
20
568.000
30
0
11
605.262
21
871.330
31
0
0
LINE
8
OUTER_PROFILES
10
139.362
20
1360.000
30
0
11
139.362
21
1381.262
31
0
0
LINE
8
OUTER_PROFILES
10
139.362
20
1476.786
30
0
11
139.362
21
1498.048
31
0
0
LINE
8
OUTER_PROFILES
10
2237.162
20
1360.000
30
0
11
2237.162
21
1381.262
31
0
0
LINE
8
OUTER_PROFILES
10
2237.162
20
1476.786
30
0
11
2237.162
21
1498.048
31
0
0
LINE
8
OUTER_PROFILES
10
2336.524
20
1381.524
30
0
11
2336.524
21
1476.524
31
0
0
LINE
8
OUTER_PROFILES
10
40.000
20
1381.524
30
0
11
40.000
21
1476.524
31
0
0
LINE
8
OUTER_PROFILES
10
172.762
20
1264.000
30
0
11
172.762
21
1270.404
31
0
0
LINE
8
OUTER_PROFILES
10
172.762
20
1270.404
30
0
11
172.762
21
1278.666
31
0
0
LINE
8
OUTER_PROFILES
10
172.762
20
1278.666
30
0
11
172.762
21
1295.666
31
0
0
LINE
8
OUTER_PROFILES
10
172.762
20
1295.666
30
0
11
172.762
21
1300.928
31
0
0
LINE
8
OUTER_PROFILES
10
172.762
20
1342.928
30
0
11
172.762
21
1355.690
31
0
0
LINE
8
OUTER_PROFILES
10
1668.762
20
1264.000
30
0
11
1668.762
21
1270.404
31
0
0
LINE
8
OUTER_PROFILES
10
1668.762
20
1270.404
30
0
11
1668.762
21
1278.666
31
0
0
LINE
8
OUTER_PROFILES
10
1668.762
20
1278.666
30
0
11
1668.762
21
1295.666
31
0
0
LINE
8
OUTER_PROFILES
10
1668.762
20
1295.666
30
0
11
1668.762
21
1300.928
31
0
0
LINE
8
OUTER_PROFILES
10
1668.762
20
1342.928
30
0
11
1668.762
21
1355.690
31
0
0
LINE
8
OUTER_PROFILES
10
1681.524
20
1300.928
30
0
11
1681.524
21
1342.928
31
0
0
LINE
8
OUTER_PROFILES
10
160.000
20
1300.928
30
0
11
160.000
21
1342.928
31
0
0
LINE
8
OUTER_PROFILES
10
3027.000
20
850.000
30
0
11
3027.000
21
1442.000
31
0
0
LINE
8
OUTER_PROFILES
10
2903.952
20
850.000
30
0
11
2903.952
21
1442.000
31
0
0
LINE
8
OUTER_PROFILES
10
2429.262
20
1489.262
30
0
11
2429.262
21
1491.524
31
0
0
LINE
8
OUTER_PROFILES
10
2356.262
20
1489.262
30
0
11
2356.262
21
1491.524
31
0
0
LINE
8
OUTER_PROFILES
10
3032.262
20
1489.262
30
0
11
3032.262
21
1491.524
31
0
0
LINE
8
OUTER_PROFILES
10
2959.262
20
1489.262
30
0
11
2959.262
21
1491.524
31
0
0
LINE
8
OUTER_PROFILES
10
2336.000
20
1491.524
30
0
11
2336.000
21
1509.024
31
0
0
LINE
8
OUTER_PROFILES
10
2346.262
20
1448.000
30
0
11
2346.262
21
1453.000
31
0
0
LINE
8
OUTER_PROFILES
10
2346.262
20
1453.000
30
0
11
2346.262
21
1455.262
31
0
0
LINE
8
OUTER_PROFILES
10
2346.262
20
1455.262
30
0
11
2346.262
21
1489.262
31
0
0
LINE
8
OUTER_PROFILES
10
2346.262
20
1489.262
30
0
11
2346.262
21
1491.524
31
0
0
LINE
8
OUTER_PROFILES
10
3042.262
20
1448.000
30
0
11
3042.262
21
1453.000
31
0
0
LINE
8
OUTER_PROFILES
10
3042.262
20
1453.000
30
0
11
3042.262
21
1455.262
31
0
0
LINE
8
OUTER_PROFILES
10
3042.262
20
1455.262
30
0
11
3042.262
21
1489.262
31
0
0
LINE
8
OUTER_PROFILES
10
3042.262
20
1489.262
30
0
11
3042.262
21
1491.524
31
0
0
LINE
8
OUTER_PROFILES
10
3052.524
20
1491.524
30
0
11
3052.524
21
1509.024
31
0
0
LINE
8
OUTER_PROFILES
10
3056.000
20
0.000
30
0
11
3056.000
21
700.000
31
0
0
LINE
8
OUTER_PROFILES
10
3007.738
20
0.000
30
0
11
3007.738
21
700.000
31
0
0
LINE
8
OUTER_PROFILES
10
2512.000
20
0.000
30
0
11
2512.000
21
500.000
31
0
0
LINE
8
OUTER_PROFILES
10
0.000
20
565.900
30
0
11
1034.821
21
565.900
31
0
0
LINE
8
OUTER_PROFILES
10
1774.767
20
565.900
30
0
11
2463.767
21
565.900
31
0
0
LINE
8
OUTER_PROFILES
10
0.000
20
0.000
30
0
11
2463.738
21
0.000
31
0
0
LINE
8
OUTER_PROFILES
10
2463.738
20
0.000
30
0
11
2512.000
21
0.000
31
0
0
LINE
8
OUTER_PROFILES
10
2592.597
20
0.000
30
0
11
2981.455
21
0.000
31
0
0
LINE
8
OUTER_PROFILES
10
3007.738
20
0.000
30
0
11
3056.000
21
0.000
31
0
0
LINE
8
OUTER_PROFILES
10
261.880
20
1256.262
30
0
11
1774.505
21
1256.262
31
0
0
LINE
8
OUTER_PROFILES
10
1783.262
20
1342.453
30
0
11
1789.262
21
1342.453
31
0
0
LINE
8
OUTER_PROFILES
10
2551.786
20
1342.453
30
0
11
2557.786
21
1342.453
31
0
0
LINE
8
OUTER_PROFILES
10
1796.595
20
1357.048
30
0
11
2544.453
21
1357.048
31
0
0
LINE
8
OUTER_PROFILES
10
1783.262
20
582.595
30
0
11
1789.262
21
582.595
31
0
0
LINE
8
OUTER_PROFILES
10
2551.786
20
582.595
30
0
11
2557.786
21
582.595
31
0
0
LINE
8
OUTER_PROFILES
10
9.262
20
568.000
30
0
11
605.262
21
568.000
31
0
0
LINE
8
OUTER_PROFILES
10
1796.595
20
568.000
30
0
11
2544.453
21
568.000
31
0
0
LINE
8
OUTER_PROFILES
10
2572.264
20
20.529
30
0
11
2588.264
21
20.529
31
0
0
LINE
8
OUTER_PROFILES
10
2985.788
20
20.529
30
0
11
3001.788
21
20.529
31
0
0
LINE
8
OUTER_PROFILES
10
2592.597
20
844.680
30
0
11
2981.455
21
844.680
31
0
0
LINE
8
OUTER_PROFILES
10
0.000
20
591.000
30
0
11
9.262
21
591.000
31
0
0
LINE
8
OUTER_PROFILES
10
0.000
20
1389.987
30
0
11
22.253
21
1389.987
31
0
0
LINE
8
OUTER_PROFILES
10
139.362
20
1360.000
30
0
11
2237.162
21
1360.000
31
0
0
LINE
8
OUTER_PROFILES
10
40.000
20
1381.524
30
0
11
138.000
21
1381.524
31
0
0
LINE
8
OUTER_PROFILES
10
2238.524
20
1381.524
30
0
11
2336.524
21
1381.524
31
0
0
LINE
8
OUTER_PROFILES
10
40.000
20
1476.524
30
0
11
138.000
21
1476.524
31
0
0
LINE
8
OUTER_PROFILES
10
2238.524
20
1476.524
30
0
11
2336.524
21
1476.524
31
0
0
LINE
8
OUTER_PROFILES
10
139.362
20
1498.048
30
0
11
2237.162
21
1498.048
31
0
0
LINE
8
OUTER_PROFILES
10
172.762
20
1264.000
30
0
11
1668.762
21
1264.000
31
0
0
LINE
8
OUTER_PROFILES
10
160.000
20
1300.928
30
0
11
172.762
21
1300.928
31
0
0
LINE
8
OUTER_PROFILES
10
1668.762
20
1300.928
30
0
11
1681.524
21
1300.928
31
0
0
LINE
8
OUTER_PROFILES
10
160.000
20
1342.928
30
0
11
172.762
21
1342.928
31
0
0
LINE
8
OUTER_PROFILES
10
1668.762
20
1342.928
30
0
11
1681.524
21
1342.928
31
0
0
LINE
8
OUTER_PROFILES
10
172.762
20
1355.690
30
0
11
1668.762
21
1355.690
31
0
0
LINE
8
OUTER_PROFILES
10
2905.952
20
848.000
30
0
11
2917.952
21
848.000
31
0
0
LINE
8
OUTER_PROFILES
10
3013.000
20
848.000
30
0
11
3025.000
21
848.000
31
0
0
LINE
8
OUTER_PROFILES
10
2905.952
20
1444.000
30
0
11
2917.952
21
1444.000
31
0
0
LINE
8
OUTER_PROFILES
10
3013.000
20
1444.000
30
0
11
3025.000
21
1444.000
31
0
0
LINE
8
OUTER_PROFILES
10
2936.214
20
1432.000
30
0
11
2994.738
21
1432.000
31
0
0
LINE
8
OUTER_PROFILES
10
2936.214
20
860.000
30
0
11
2994.738
21
860.000
31
0
0
LINE
8
OUTER_PROFILES
10
2356.262
20
1489.262
30
0
11
2429.262
21
1489.262
31
0
0
LINE
8
OUTER_PROFILES
10
2959.262
20
1489.262
30
0
11
3032.262
21
1489.262
31
0
0
LINE
8
OUTER_PROFILES
10
2336.000
20
1491.524
30
0
11
2346.262
21
1491.524
31
0
0
LINE
8
OUTER_PROFILES
10
2356.262
20
1491.524
30
0
11
2429.262
21
1491.524
31
0
0
LINE
8
OUTER_PROFILES
10
2959.262
20
1491.524
30
0
11
3032.262
21
1491.524
31
0
0
LINE
8
OUTER_PROFILES
10
3042.262
20
1491.524
30
0
11
3052.524
21
1491.524
31
0
0
LINE
8
OUTER_PROFILES
10
2336.000
20
1509.024
30
0
11
3052.524
21
1509.024
31
0
0
LINE
8
OUTER_PROFILES
10
2346.262
20
1448.000
30
0
11
3042.262
21
1448.000
31
0
0
LINE
8
OUTER_PROFILES
10
3007.738
20
700.000
30
0
11
3056.000
21
700.000
31
0
0
LINE
8
OUTER_PROFILES
10
2463.738
20
500.000
30
0
11
2512.000
21
500.000
31
0
0
ENDSEC
0
EOF