0
SECTION
2
HEADER
9
$INSUNITS
70
4
0
ENDSEC
0
SECTION
2
ENTITIES
0
LWPOLYLINE
8
SHEET_BORDER
90
5
70
1
10
0.000
20
0.000
10
3050.000
20
0.000
10
3050.000
20
1525.000
10
0.000
20
1525.000
10
0.000
20
0.000
0
TEXT
8
PART_LABELS
10
1231.885
20
628.130
30
0
40
50.000
1
BSRUTH-000000
72
1
73
2
11
1231.885
21
628.130
31
0
0
ARC
8
OUTER_PROFILES
10
1034.821
20
555.900
30
0
40
10.000
50
71.9483
51
90.0000
0
LINE
8
OUTER_PROFILES
10
1034.821
20
565.900
30
0
11
0.000
21
565.900
31
0
0
LINE
8
OUTER_PROFILES
10
0.000
20
565.900
30
0
11
0.000
21
0.000
31
0
0
LINE
8
OUTER_PROFILES
10
0.000
20
0.000
30
0
11
2463.767
21
0.000
31
0
0
LINE
8
OUTER_PROFILES
10
2463.767
20
0.000
30
0
11
2463.767
21
565.900
31
0
0
LINE
8
OUTER_PROFILES
10
2463.767
20
565.900
30
0
11
1774.767
21
565.900
31
0
0
LINE
8
OUTER_PROFILES
10
1774.767
20
565.900
30
0
11
1772.505
21
565.000
31
0
0
LINE
8
OUTER_PROFILES
10
1772.505
20
565.000
30
0
11
1774.505
21
567.262
31
0
0
LINE
8
OUTER_PROFILES
10
1774.505
20
567.262
30
0
11
1774.505
21
1256.262
31
0
0
LINE
8
OUTER_PROFILES
10
1774.505
20
1256.262
30
0
11
261.880
21
1256.262
31
0
0
LINE
8
OUTER_PROFILES
10
261.880
20
1256.262
30
0
11
1035.959
21
567.262
31
0
0
ARC
8
OUTER_PROFILES
10
1030.022
20
556.235
30
0
40
12.524
50
44.4167
51
61.7011
0
ARC
8
OUTER_PROFILES
10
1034.821
20
555.900
30
0
40
10.000
50
65.5054
51
71.9483
0
TEXT
8
PART_LABELS
10
2186.500
20
978.500
30
0
40
50.000
1
BK1DN1-080000
72
1
73
2
11
2186.500
21
978.500
31
0
0
LINE
8
OUTER_PROFILES
10
2576.048
20
599.595
30
0
11
2581.048
21
604.595
31
0
0
LINE
8
OUTER_PROFILES
10
2581.048
20
604.595
30
0
11
2581.048
21
1352.453
31
0
0
LINE
8
OUTER_PROFILES
10
2581.048
20
1352.453
30
0
11
2576.048
21
1357.453
31
0
0
ARC
8
OUTER_PROFILES
10
2573.264
20
1354.214
30
0
40
4.272
50
49.3224
51
82.9774
0
LINE
8
OUTER_PROFILES
10
2573.786
20
1358.453
30
0
11
2567.786
21
1358.453
31
0
0
ARC
8
OUTER_PROFILES
10
2568.314
20
1354.201
30
0
40
4.285
50
97.0769
51
130.6233
0
LINE
8
OUTER_PROFILES
10
2565.524
20
1357.453
30
0
11
2565.453
21
1357.524
31
0
0
ARC
8
OUTER_PROFILES
10
2562.201
20
1360.314
30
0
40
4.285
50
319.3767
51
352.9231
0
LINE
8
OUTER_PROFILES
10
2566.453
20
1359.786
30
0
11
2566.453
21
1365.786
31
0
0
ARC
8
OUTER_PROFILES
10
2562.214
20
1365.264
30
0
40
4.272
50
7.0226
51
40.6776
0
LINE
8
OUTER_PROFILES
10
2565.453
20
1368.048
30
0
11
2560.453
21
1373.048
31
0
0
LINE
8
OUTER_PROFILES
10
2560.453
20
1373.048
30
0
11
1812.595
21
1373.048
31
0
0
LINE
8
OUTER_PROFILES
10
1812.595
20
1373.048
30
0
11
1807.595
21
1368.048
31
0
0
ARC
8
OUTER_PROFILES
10
1810.834
20
1365.264
30
0
40
4.272
50
139.3224
51
172.9774
0
LINE
8
OUTER_PROFILES
10
1806.595
20
1365.786
30
0
11
1806.595
21
1359.786
31
0
0
ARC
8
OUTER_PROFILES
10
1810.847
20
1360.314
30
0
40
4.285
50
187.0769
51
220.6233
0
LINE
8
OUTER_PROFILES
10
1807.595
20
1357.524
30
0
11
1807.524
21
1357.453
31
0
0
ARC
8
OUTER_PROFILES
10
1804.734
20
1354.201
30
0
40
4.285
50
49.3767
51
82.9231
0
LINE
8
OUTER_PROFILES
10
1805.262
20
1358.453
30
0
11
1799.262
21
1358.453
31
0
0
ARC
8
OUTER_PROFILES
10
1799.784
20
1354.214
30
0
40
4.272
50
97.0226
51
130.6776
0
LINE
8
OUTER_PROFILES
10
1797.000
20
1357.453
30
0
11
1792.000
21
1352.453
31
0
0
LINE
8
OUTER_PROFILES
10
1792.000
20
1352.453
30
0
11
1792.000
21
604.595
31
0
0
LINE
8
OUTER_PROFILES
10
1792.000
20
604.595
30
0
11
1797.000
21
599.595
31
0
0
ARC
8
OUTER_PROFILES
10
1799.784
20
602.834
30
0
40
4.272
50
229.3224
51
262.9774
0
LINE
8
OUTER_PROFILES
10
1799.262
20
598.595
30
0
11
1805.262
21
598.595
31
0
0
ARC
8
OUTER_PROFILES
10
1804.734
20
602.847
30
0
40
4.285
50
277.0769
51
310.6233
0
LINE
8
OUTER_PROFILES
10
1807.524
20
599.595
30
0
11
1807.595
21
599.524
31
0
0
ARC
8
OUTER_PROFILES
10
1810.847
20
596.734
30
0
40
4.285
50
139.3767
51
172.9231
0
LINE
8
OUTER_PROFILES
10
1806.595
20
597.262
30
0
11
1806.595
21
591.262
31
0
0
ARC
8
OUTER_PROFILES
10
1810.834
20
591.784
30
0
40
4.272
50
187.0226
51
220.6776
0
LINE
8
OUTER_PROFILES
10
1807.595
20
589.000
30
0
11
1812.595
21
584.000
31
0
0
LINE
8
OUTER_PROFILES
10
1812.595
20
584.000
30
0
11
2560.453
21
584.000
31
0
0
LINE
8
OUTER_PROFILES
10
2560.453
20
584.000
30
0
11
2565.453
21
589.000
31
0
0
ARC
8
OUTER_PROFILES
10
2562.214
20
591.784
30
0
40
4.272
50
319.3224
51
352.9774
0
LINE
8
OUTER_PROFILES
10
2566.453
20
591.262
30
0
11
2566.453
21
597.262
31
0
0
ARC
8
OUTER_PROFILES
10
2562.201
20
596.734
30
0
40
4.285
50
7.0769
51
40.6233
0
LINE
8
OUTER_PROFILES
10
2565.453
20
599.524
30
0
11
2565.524
21
599.595
31
0
0
ARC
8
OUTER_PROFILES
10
2568.314
20
602.847
30
0
40
4.285
50
229.3767
51
262.9231
0
LINE
8
OUTER_PROFILES
10
2567.786
20
598.595
30
0
11
2573.786
21
598.595
31
0
0
ARC
8
OUTER_PROFILES
10
2573.264
20
602.834
30
0
40
4.272
50
277.0226
51
310.6776
0
TEXT
8
PART_LABELS
10
2811.025
20
422.340
30
0
40
50.000
1
DSV100-040080
72
1
73
2
11
2811.025
21
422.340
31
0
0
LWPOLYLINE
8
OUTER_PROFILES
90
34
70
1
10
2613.626
20
818.922
10
2610.850
20
816.943
10
2596.264
20
802.357
10
2594.002
20
799.458
10
2592.002
20
797.458
10
2592.002
20
24.599
10
2594.002
20
22.599
10
2596.264
20
20.529
10
2612.264
20
20.529
10
2613.626
20
20.267
10
2613.626
20
4.267
10
2614.597
20
2.005
10
2616.597
20
0.005
10
3005.455
20
0.005
10
3007.455
20
2.005
10
3008.426
20
4.267
10
3008.426
20
20.267
10
3009.788
20
20.529
10
3025.788
20
20.529
10
3028.050
20
22.599
10
3030.050
20
24.599
10
3030.050
20
797.458
10
3028.050
20
799.458
10
3025.788
20
802.357
10
3011.202
20
816.943
10
3008.426
20
818.922
10
3008.426
20
840.263
10
3007.976
20
841.549
10
3007.455
20
842.680
10
3005.455
20
844.680
10
2616.597
20
844.680
10
2614.597
20
842.680
10
2614.076
20
841.549
10
2613.626
20
840.263
0
TEXT
8
PART_LABELS
10
302.630
20
994.995
30
0
40
50.000
1
BAKTRI-000000
72
1
73
2
11
302.630
21
994.995
31
0
0
LWPOLYLINE
8
OUTER_PROFILES
90
7
70
1
10
605.262
20
584.000
10
9.262
20
584.000
10
9.262
20
607.000
10
0.000
20
607.000
10
0.000
20
1405.987
10
22.253
20
1405.987
10
605.262
20
887.330
0
CIRCLE
8
INTERIOR_PROFILES
10
532.262
20
871.000
30
0
40
1.700
0
CIRCLE
8
INTERIOR_PROFILES
10
598.262
20
707.000
30
0
40
1.700
0
CIRCLE
8
INTERIOR_PROFILES
10
307.262
20
587.000
30
0
40
1.700
0
CIRCLE
8
INTERIOR_PROFILES
10
568.760
20
910.433
30
0
40
1.700
0
CIRCLE
8
INTERIOR_PROFILES
10
82.262
20
871.000
30
0
40
1.700
0
CIRCLE
8
INTERIOR_PROFILES
10
532.262
20
587.000
30
0
40
1.700
0
CIRCLE
8
INTERIOR_PROFILES
10
438.011
20
1026.751
30
0
40
1.700
0
CIRCLE
8
INTERIOR_PROFILES
10
3.000
20
1282.000
30
0
40
1.700
0
CIRCLE
8
INTERIOR_PROFILES
10
3.000
20
982.000
30
0
40
1.700
0
CIRCLE
8
INTERIOR_PROFILES
10
3.000
20
1370.000
30
0
40
1.700
0
CIRCLE
8
INTERIOR_PROFILES
10
176.513
20
1259.385
30
0
40
1.700
0
CIRCLE
8
INTERIOR_PROFILES
10
16.262
20
882.000
30
0
40
1.700
0
CIRCLE
8
INTERIOR_PROFILES
10
45.764
20
1375.702
30
0
40
1.700
0
CIRCLE
8
INTERIOR_PROFILES
10
307.262
20
1143.068
30
0
40
1.700
0
CIRCLE
8
INTERIOR_PROFILES
10
16.262
20
1057.000
30
0
40
1.700
0
CIRCLE
8
INTERIOR_PROFILES
10
307.262
20
871.000
30
0
40
1.700
0
CIRCLE
8
INTERIOR_PROFILES
10
16.262
20
1232.000
30
0
40
1.700
0
CIRCLE
8
INTERIOR_PROFILES
10
82.262
20
587.000
30
0
40
1.700
0
CIRCLE
8
INTERIOR_PROFILES
10
16.262
20
707.000
30
0
40
1.700
0
CIRCLE
8
INTERIOR_PROFILES
10
3.000
20
682.000
30
0
40
1.700
0
TEXT
8
PART_LABELS
10
1220.260
20
1453.025
30
0
40
34.513
1
FT2100-000000
72
1
73
2
11
1220.260
21
1453.025
31
0
0
LWPOLYLINE
8
OUTER_PROFILES
90
20
70
1
10
170.000
20
1405.524
10
172.262
20
1407.524
10
171.362
20
1405.262
10
171.362
20
1384.000
10
2269.162
20
1384.000
10
2269.162
20
1405.262
10
2268.262
20
1407.524
10
2270.524
20
1405.524
10
2368.524
20
1405.524
10
2368.524
20
1500.524
10
2270.524
20
1500.524
10
2268.262
20
1498.524
10
2269.162
20
1500.786
10
2269.162
20
1522.048
10
171.362
20
1522.048
10
171.362
20
1500.786
10
172.262
20
1498.524
10
170.000
20
1500.524
10
72.000
20
1500.524
10
72.000
20
1405.524
0
CIRCLE
8
INTERIOR_PROFILES
10
2276.024
20
1493.024
30
0
40
1.700
0
CIRCLE
8
INTERIOR_PROFILES
10
164.500
20
1493.024
30
0
40
1.700
0
CIRCLE
8
INTERIOR_PROFILES
10
164.500
20
1413.024
30
0
40
1.700
0
CIRCLE
8
INTERIOR_PROFILES
10
2276.024
20
1413.024
30
0
40
1.700
0
TEXT
8
PART_LABELS
10
2759.525
20
1142.895
30
0
40
50.000
1
SDTRIR-000000
72
1
73
2
11
2759.525
21
1142.895
31
0
0
LWPOLYLINE
8
OUTER_PROFILES
90
24
70
1
10
2905.291
20
1424.362
42
0.414214
10
2905.291
20
1422.948
10
2910.786
20
1417.453
10
2910.786
20
1413.595
10
2905.291
20
1408.100
42
0.414214
10
2905.291
20
1406.686
10
2910.786
20
1401.191
10
2927.048
20
1401.191
10
2927.048
20
872.262
10
2903.524
20
872.262
10
2903.524
20
856.000
10
2625.524
20
856.000
10
2625.524
20
872.262
10
2592.000
20
872.262
10
2592.000
20
1401.191
10
2618.262
20
1401.191
10
2623.757
20
1406.686
42
0.414214
10
2623.757
20
1408.100
10
2618.262
20
1413.595
10
2618.262
20
1417.453
10
2623.757
20
1422.948
42
0.414214
10
2623.757
20
1424.362
10
2618.333
20
1429.786
10
2910.715
20
1429.786
0
CIRCLE
8
INTERIOR_PROFILES
10
2871.524
20
1147.262
30
0
40
1.700
0
CIRCLE
8
INTERIOR_PROFILES
10
2871.524
20
1115.262
30
0
40
1.700
0
CIRCLE
8
INTERIOR_PROFILES
10
2912.786
20
1337.262
30
0
40
6.500
0
CIRCLE
8
INTERIOR_PROFILES
10
2871.524
20
1371.262
30
0
40
1.700
0
CIRCLE
8
INTERIOR_PROFILES
10
2912.786
20
1199.262
30
0
40
1.700
0
CIRCLE
8
INTERIOR_PROFILES
10
2912.786
20
1321.262
30
0
40
1.700
0
CIRCLE
8
INTERIOR_PROFILES
10
2634.524
20
1399.262
30
0
40
1.700
0
CIRCLE
8
INTERIOR_PROFILES
10
2616.262
20
1377.262
30
0
40
1.700
0
CIRCLE
8
INTERIOR_PROFILES
10
2912.786
20
883.262
30
0
40
1.700
0
CIRCLE
8
INTERIOR_PROFILES
10
2912.786
20
1377.262
30
0
40
1.700
0
CIRCLE
8
INTERIOR_PROFILES
10
2597.000
20
1377.262
30
0
40
1.700
0
CIRCLE
8
INTERIOR_PROFILES
10
2912.786
20
875.262
30
0
40
1.700
0
CIRCLE
8
INTERIOR_PROFILES
10
2634.524
20
987.262
30
0
40
1.700
0
CIRCLE
8
INTERIOR_PROFILES
10
2666.524
20
1399.262
30
0
40
1.700
0
CIRCLE
8
INTERIOR_PROFILES
10
2912.786
20
1353.262
30
0
40
1.700
0
CIRCLE
8
INTERIOR_PROFILES
10
2634.524
20
1115.262
30
0
40
1.700
0
CIRCLE
8
INTERIOR_PROFILES
10
2616.262
20
875.262
30
0
40
1.700
0
CIRCLE
8
INTERIOR_PROFILES
10
2681.024
20
1381.262
30
0
40
6.500
0
CIRCLE
8
INTERIOR_PROFILES
10
2634.524
20
1243.262
30
0
40
1.700
0
CIRCLE
8
INTERIOR_PROFILES
10
2798.524
20
863.000
30
0
40
1.700
0
CIRCLE
8
INTERIOR_PROFILES
10
2912.786
20
1021.262
30
0
40
1.700
0
CIRCLE
8
INTERIOR_PROFILES
10
2912.786
20
915.262
30
0
40
1.700
0
CIRCLE
8
INTERIOR_PROFILES
10
2698.524
20
1399.262
30
0
40
1.700
0
CIRCLE
8
INTERIOR_PROFILES
10
2616.262
20
1021.262
30
0
40
1.700
0
CIRCLE
8
INTERIOR_PROFILES
10
2616.262
20
1199.262
30
0
40
1.700
0
CIRCLE
8
INTERIOR_PROFILES
10
2823.524
20
1399.262
30
0
40
1.700
0
CIRCLE
8
INTERIOR_PROFILES
10
2634.524
20
1371.262
30
0
40
1.700
0
CIRCLE
8
INTERIOR_PROFILES
10
2616.262
20
1337.262
30
0
40
6.500
0
TEXT
8
PART_LABELS
10
968.760
20
1317.845
30
0
40
22.922
1
BTHLSR-140000
72
1
73
2
11
968.760
21
1317.845
31
0
0
LWPOLYLINE
8
OUTER_PROFILES
90
18
70
1
10
220.762
20
1286.666
10
220.762
20
1278.404
10
220.762
20
1272.000
10
1716.762
20
1272.000
10
1716.762
20
1278.404
10
1716.762
20
1286.666
10
1716.762
20
1303.666
10
1716.762
20
1308.928
10
1729.524
20
1308.928
10
1729.524
20
1350.928
10
1716.762
20
1350.928
10
1716.762
20
1363.690
10
220.762
20
1363.690
10
220.762
20
1350.928
10
208.000
20
1350.928
10
208.000
20
1308.928
10
220.762
20
1308.928
10
220.762
20
1303.666
0
CIRCLE
8
INTERIOR_PROFILES
10
214.500
20
1321.928
30
0
40
1.700
0
CIRCLE
8
INTERIOR_PROFILES
10
568.762
20
1360.190
30
0
40
1.700
0
CIRCLE
8
INTERIOR_PROFILES
10
1318.762
20
1360.190
30
0
40
1.700
0
CIRCLE
8
INTERIOR_PROFILES
10
968.762
20
1297.166
30
0
40
1.700
0
CIRCLE
8
INTERIOR_PROFILES
10
318.762
20
1297.166
30
0
40
1.700
0
CIRCLE
8
INTERIOR_PROFILES
10
1293.762
20
1297.166
30
0
40
1.700
0
CIRCLE
8
INTERIOR_PROFILES
10
1709.762
20
1360.190
30
0
40
1.700
0
CIRCLE
8
INTERIOR_PROFILES
10
1618.762
20
1297.166
30
0
40
1.700
0
CIRCLE
8
INTERIOR_PROFILES
10
224.262
20
1312.428
30
0
40
2.500
0
CIRCLE
8
INTERIOR_PROFILES
10
1713.262
20
1312.428
30
0
40
2.500
0
CIRCLE
8
INTERIOR_PROFILES
10
909.762
20
1360.190
30
0
40
1.700
0
CIRCLE
8
INTERIOR_PROFILES
10
668.762
20
1360.190
30
0
40
1.700
0
CIRCLE
8
INTERIOR_PROFILES
10
918.762
20
1360.190
30
0
40
1.700
0
CIRCLE
8
INTERIOR_PROFILES
10
1118.762
20
1360.190
30
0
40
1.700
0
CIRCLE
8
INTERIOR_PROFILES
10
238.762
20
1325.928
30
0
40
8.750
0
CIRCLE
8
INTERIOR_PROFILES
10
1723.024
20
1321.928
30
0
40
1.700
0
CIRCLE
8
INTERIOR_PROFILES
10
1018.762
20
1360.190
30
0
40
1.700
0
CIRCLE
8
INTERIOR_PROFILES
10
1518.762
20
1360.190
30
0
40
1.700
0
CIRCLE
8
INTERIOR_PROFILES
10
227.762
20
1360.190
30
0
40
1.700
0
CIRCLE
8
INTERIOR_PROFILES
10
1618.762
20
1360.190
30
0
40
1.700
0
CIRCLE
8
INTERIOR_PROFILES
10
643.762
20
1297.166
30
0
40
1.700
0
CIRCLE
8
INTERIOR_PROFILES
10
927.762
20
1360.190
30
0
40
1.700
0
CIRCLE
8
INTERIOR_PROFILES
10
368.762
20
1360.190
30
0
40
1.700
0
CIRCLE
8
INTERIOR_PROFILES
10
1723.024
20
1346.928
30
0
40
1.700
0
CIRCLE
8
INTERIOR_PROFILES
10
468.762
20
1360.190
30
0
40
1.700
0
CIRCLE
8
INTERIOR_PROFILES
10
1218.762
20
1360.190
30
0
40
1.700
0
CIRCLE
8
INTERIOR_PROFILES
10
768.762
20
1360.190
30
0
40
1.700
0
CIRCLE
8
INTERIOR_PROFILES
10
868.762
20
1360.190
30
0
40
1.700
0
CIRCLE
8
INTERIOR_PROFILES
10
214.500
20
1346.928
30
0
40
1.700
0
CIRCLE
8
INTERIOR_PROFILES
10
1418.762
20
1360.190
30
0
40
1.700
0
CIRCLE
8
INTERIOR_PROFILES
10
268.762
20
1360.190
30
0
40
1.700
0
TEXT
8
PART_LABELS
10
2960.000
20
1156.000
30
0
40
15.000
1
FN3BLA-070000
72
1
73
2
11
2960.000
21
1156.000
31
0
0
LWPOLYLINE
8
OUTER_PROFILES
90
4
70
1
10
2984.000
20
1456.000
10
2935.738
20
1456.000
10
2935.738
20
856.000
10
2984.000
20
856.000
0
CIRCLE
8
INTERIOR_PROFILES
10
2974.500
20
881.000
30
0
40
1.250
0
CIRCLE
8
INTERIOR_PROFILES
10
2941.738
20
881.000
30
0
40
1.700
0
CIRCLE
8
INTERIOR_PROFILES
10
2974.500
20
1431.000
30
0
40
1.250
0
CIRCLE
8
INTERIOR_PROFILES
10
2941.738
20
1156.000
30
0
40
1.700
0
CIRCLE
8
INTERIOR_PROFILES
10
2974.500
20
1156.000
30
0
40
1.250
0
CIRCLE
8
INTERIOR_PROFILES
10
2974.500
20
1293.500
30
0
40
1.250
0
CIRCLE
8
INTERIOR_PROFILES
10
2974.500
20
1018.500
30
0
40
1.250
0
CIRCLE
8
INTERIOR_PROFILES
10
2941.738
20
1431.000
30
0
40
1.700
0
TEXT
8
PART_LABELS
10
2496.000
20
250.000
30
0
40
15.000
1
FN3BLA-060000
72
1
73
2
11
2496.000
21
250.000
31
0
0
LWPOLYLINE
8
OUTER_PROFILES
90
4
70
1
10
2471.738
20
0.000
10
2471.738
20
500.000
10
2520.000
20
500.000
10
2520.000
20
0.000
0
CIRCLE
8
INTERIOR_PROFILES
10
2510.500
20
250.000
30
0
40
1.250
0
CIRCLE
8
INTERIOR_PROFILES
10
2510.500
20
137.500
30
0
40
1.250
0
CIRCLE
8
INTERIOR_PROFILES
10
2510.500
20
25.000
30
0
40
1.250
0
CIRCLE
8
INTERIOR_PROFILES
10
2510.500
20
475.000
30
0
40
1.250
0
CIRCLE
8
INTERIOR_PROFILES
10
2510.500
20
362.500
30
0
40
1.250
0
CIRCLE
8
INTERIOR_PROFILES
10
2477.738
20
250.000
30
0
40
1.700
0
CIRCLE
8
INTERIOR_PROFILES
10
2477.738
20
25.000
30
0
40
1.700
0
CIRCLE
8
INTERIOR_PROFILES
10
2477.738
20
475.000
30
0
40
1.700
0
TEXT
8
PART_LABELS
10
2550.500
20
266.500
30
0
40
15.000
1
SDTRIR-000002
72
1
73
2
11
2550.500
21
266.500
31
0
0
LWPOLYLINE
8
OUTER_PROFILES
90
8
70
1
10
2573.000
20
3.000
10
2573.000
20
530.000
10
2556.738
20
530.000
42
0.500000
10
2544.738
20
530.000
10
2528.476
20
530.000
10
2528.476
20
3.000
10
2544.738
20
3.000
42
0.500000
10
2556.738
20
3.000
0
CIRCLE
8
INTERIOR_PROFILES
10
2550.738
20
505.000
30
0
40
1.700
0
CIRCLE
8
INTERIOR_PROFILES
10
2550.738
20
3.000
30
0
40
1.700
0
CIRCLE
8
INTERIOR_PROFILES
10
2550.738
20
327.000
30
0
40
1.700
0
CIRCLE
8
INTERIOR_PROFILES
10
2550.738
20
149.000
30
0
40
1.700
0
CIRCLE
8
INTERIOR_PROFILES
10
2550.738
20
384.000
30
0
40
1.700
0
CIRCLE
8
INTERIOR_PROFILES
10
2550.738
20
530.000
30
0
40
1.700
0
CIRCLE
8
INTERIOR_PROFILES
10
2550.738
20
28.000
30
0
40
1.700
0
CIRCLE
8
INTERIOR_PROFILES
10
2550.738
20
206.000
30
0
40
1.700
0
TEXT
8
PART_LABELS
10
686.000
20
618.000
30
0
40
17.000
1
BXXTR0-000000
72
1
73
2
11
686.000
21
618.000
31
0
0
LWPOLYLINE
8
OUTER_PROFILES
90
10
70
1
10
756.378
20
598.842
10
705.466
20
649.754
10
698.210
20
642.497
10
691.139
20
649.569
42
0.414214
10
681.239
20
649.569
10
674.168
20
642.497
10
666.912
20
649.754
10
616.000
20
598.842
10
630.842
20
584.000
10
741.536
20
584.000
0
CIRCLE
8
INTERIOR_PROFILES
10
658.426
20
635.612
30
0
40
1.700
0
CIRCLE
8
INTERIOR_PROFILES
10
686.189
20
593.000
30
0
40
5.000
0
CIRCLE
8
INTERIOR_PROFILES
10
625.899
20
603.085
30
0
40
1.700
0
CIRCLE
8
INTERIOR_PROFILES
10
737.808
20
593.000
30
0
40
1.700
0
CIRCLE
8
INTERIOR_PROFILES
10
634.570
20
593.000
30
0
40
1.700
0
CIRCLE
8
INTERIOR_PROFILES
10
686.189
20
644.619
30
0
40
1.700
0
CIRCLE
8
INTERIOR_PROFILES
10
713.951
20
635.612
30
0
40
1.700
0
CIRCLE
8
INTERIOR_PROFILES
10
746.478
20
603.085
30
0
40
1.700
0
TEXT
8
PART_LABELS
10
838.000
20
618.000
30
0
40
17.000
1
BXXTR0-000000
72
1
73
2
11
838.000
21
618.000
31
0
0
LWPOLYLINE
8
OUTER_PROFILES
90
10
70
1
10
908.378
20
598.842
10
857.466
20
649.754
10
850.210
20
642.497
10
843.139
20
649.569
42
0.414214
10
833.239
20
649.569
10
826.168
20
642.497
10
818.912
20
649.754
10
768.000
20
598.842
10
782.842
20
584.000
10
893.536
20
584.000
0
CIRCLE
8
INTERIOR_PROFILES
10
810.426
20
635.612
30
0
40
1.700
0
CIRCLE
8
INTERIOR_PROFILES
10
838.189
20
593.000
30
0
40
5.000
0
CIRCLE
8
INTERIOR_PROFILES
10
777.899
20
603.085
30
0
40
1.700
0
CIRCLE
8
INTERIOR_PROFILES
10
889.808
20
593.000
30
0
40
1.700
0
CIRCLE
8
INTERIOR_PROFILES
10
786.570
20
593.000
30
0
40
1.700
0
CIRCLE
8
INTERIOR_PROFILES
10
838.189
20
644.619
30
0
40
1.700
0
CIRCLE
8
INTERIOR_PROFILES
10
865.951
20
635.612
30
0
40
1.700
0
CIRCLE
8
INTERIOR_PROFILES
10
898.478
20
603.085
30
0
40
1.700
0
TEXT
8
PART_LABELS
10
686.000
20
698.000
30
0
40
17.000
1
BXXTR0-000000
72
1
73
2
11
686.000
21
698.000
31
0
0
LWPOLYLINE
8
OUTER_PROFILES
90
10
70
1
10
756.378
20
678.842
10
705.466
20
729.754
10
698.210
20
722.497
10
691.139
20
729.569
42
0.414214
10
681.239
20
729.569
10
674.168
20
722.497
10
666.912
20
729.754
10
616.000
20
678.842
10
630.842
20
664.000
10
741.536
20
664.000
0
CIRCLE
8
INTERIOR_PROFILES
10
658.426
20
715.612
30
0
40
1.700
0
CIRCLE
8
INTERIOR_PROFILES
10
686.189
20
673.000
30
0
40
5.000
0
CIRCLE
8
INTERIOR_PROFILES
10
625.899
20
683.085
30
0
40
1.700
0
CIRCLE
8
INTERIOR_PROFILES
10
737.808
20
673.000
30
0
40
1.700
0
CIRCLE
8
INTERIOR_PROFILES
10
634.570
20
673.000
30
0
40
1.700
0
CIRCLE
8
INTERIOR_PROFILES
10
686.189
20
724.619
30
0
40
1.700
0
CIRCLE
8
INTERIOR_PROFILES
10
713.951
20
715.612
30
0
40
1.700
0
CIRCLE
8
INTERIOR_PROFILES
10
746.478
20
683.085
30
0
40
1.700
0
TEXT
8
PART_LABELS
10
2454.000
20
1418.000
30
0
40
17.000
1
BXXTR0-000000
72
1
73
2
11
2454.000
21
1418.000
31
0
0
LWPOLYLINE
8
OUTER_PROFILES
90
10
70
1
10
2524.378
20
1398.842
10
2473.466
20
1449.754
10
2466.210
20
1442.497
10
2459.139
20
1449.569
42
0.414214
10
2449.239
20
1449.569
10
2442.168
20
1442.497
10
2434.912
20
1449.754
10
2384.000
20
1398.842
10
2398.842
20
1384.000
10
2509.536
20
1384.000
0
CIRCLE
8
INTERIOR_PROFILES
10
2426.426
20
1435.612
30
0
40
1.700
0
CIRCLE
8
INTERIOR_PROFILES
10
2454.189
20
1393.000
30
0
40
5.000
0
CIRCLE
8
INTERIOR_PROFILES
10
2393.899
20
1403.085
30
0
40
1.700
0
CIRCLE
8
INTERIOR_PROFILES
10
2505.808
20
1393.000
30
0
40
1.700
0
CIRCLE
8
INTERIOR_PROFILES
10
2402.570
20
1393.000
30
0
40
1.700
0
CIRCLE
8
INTERIOR_PROFILES
10
2454.189
20
1444.619
30
0
40
1.700
0
CIRCLE
8
INTERIOR_PROFILES
10
2481.951
20
1435.612
30
0
40
1.700
0
CIRCLE
8
INTERIOR_PROFILES
10
2514.478
20
1403.085
30
0
40
1.700
0
TEXT
8
PART_LABELS
10
2574.000
20
1474.000
30
0
40
17.000
1
BXXTR0-000000
72
1
73
2
11
2574.000
21
1474.000
31
0
0
LWPOLYLINE
8
OUTER_PROFILES
90
10
70
1
10
2503.622
20
1493.158
10
2554.534
20
1442.246
10
2561.790
20
1449.503
10
2568.861
20
1442.431
42
0.414214
10
2578.761
20
1442.431
10
2585.832
20
1449.503
10
2593.088
20
1442.246
10
2644.000
20
1493.158
10
2629.158
20
1508.000
10
2518.464
20
1508.000
0
CIRCLE
8
INTERIOR_PROFILES
10
2601.574
20
1456.388
30
0
40
1.700
0
CIRCLE
8
INTERIOR_PROFILES
10
2573.811
20
1499.000
30
0
40
5.000
0
CIRCLE
8
INTERIOR_PROFILES
10
2634.101
20
1488.915
30
0
40
1.700
0
CIRCLE
8
INTERIOR_PROFILES
10
2522.192
20
1499.000
30
0
40
1.700
0
CIRCLE
8
INTERIOR_PROFILES
10
2625.430
20
1499.000
30
0
40
1.700
0
CIRCLE
8
INTERIOR_PROFILES
10
2573.811
20
1447.381
30
0
40
1.700
0
CIRCLE
8
INTERIOR_PROFILES
10
2546.049
20
1456.388
30
0
40
1.700
0
CIRCLE
8
INTERIOR_PROFILES
10
2513.522
20
1488.915
30
0
40
1.700
0
TEXT
8
PART_LABELS
10
2726.000
20
1474.000
30
0
40
17.000
1
BXXTR0-000000
72
1
73
2
11
2726.000
21
1474.000
31
0
0
LWPOLYLINE
8
OUTER_PROFILES
90
10
70
1
10
2796.378
20
1454.842
10
2745.466
20
1505.754
10
2738.210
20
1498.497
10
2731.139
20
1505.569
42
0.414214
10
2721.239
20
1505.569
10
2714.168
20
1498.497
10
2706.912
20
1505.754
10
2656.000
20
1454.842
10
2670.842
20
1440.000
10
2781.536
20
1440.000
0
CIRCLE
8
INTERIOR_PROFILES
10
2698.426
20
1491.612
30
0
40
1.700
0
CIRCLE
8
INTERIOR_PROFILES
10
2726.189
20
1449.000
30
0
40
5.000
0
CIRCLE
8
INTERIOR_PROFILES
10
2665.899
20
1459.085
30
0
40
1.700
0
CIRCLE
8
INTERIOR_PROFILES
10
2777.808
20
1449.000
30
0
40
1.700
0
CIRCLE
8
INTERIOR_PROFILES
10
2674.570
20
1449.000
30
0
40
1.700
0
CIRCLE
8
INTERIOR_PROFILES
10
2726.189
20
1500.619
30
0
40
1.700
0
CIRCLE
8
INTERIOR_PROFILES
10
2753.951
20
1491.612
30
0
40
1.700
0
CIRCLE
8
INTERIOR_PROFILES
10
2786.478
20
1459.085
30
0
40
1.700
0
TEXT
8
PART_LABELS
10
2878.000
20
1482.000
30
0
40
17.000
1
BXXTR0-000000
72
1
73
2
11
2878.000
21
1482.000
31
0
0
LWPOLYLINE
8
OUTER_PROFILES
90
10
70
1
10
2807.622
20
1501.158
10
2858.534
20
1450.246
10
2865.790
20
1457.503
10
2872.861
20
1450.431
42
0.414214
10
2882.761
20
1450.431
10
2889.832
20
1457.503
10
2897.088
20
1450.246
10
2948.000
20
1501.158
10
2933.158
20
1516.000
10
2822.464
20
1516.000
0
CIRCLE
8
INTERIOR_PROFILES
10
2905.574
20
1464.388
30
0
40
1.700
0
CIRCLE
8
INTERIOR_PROFILES
10
2877.811
20
1507.000
30
0
40
5.000
0
CIRCLE
8
INTERIOR_PROFILES
10
2938.101
20
1496.915
30
0
40
1.700
0
CIRCLE
8
INTERIOR_PROFILES
10
2826.192
20
1507.000
30
0
40
1.700
0
CIRCLE
8
INTERIOR_PROFILES
10
2929.430
20
1507.000
30
0
40
1.700
0
CIRCLE
8
INTERIOR_PROFILES
10
2877.811
20
1455.381
30
0
40
1.700
0
CIRCLE
8
INTERIOR_PROFILES
10
2850.049
20
1464.388
30
0
40
1.700
0
CIRCLE
8
INTERIOR_PROFILES
10
2817.522
20
1496.915
30
0
40
1.700
0
TEXT
8
PART_LABELS
10
677.000
20
768.500
30
0
40
15.000
1
TS2TRX-000000
72
1
73
2
11
677.000
21
768.500
31
0
0
LWPOLYLINE
8
OUTER_PROFILES
90
6
70
1
10
737.622
20
753.899
10
698.095
20
793.426
10
655.527
20
793.426
10
616.000
20
753.899
10
625.899
20
744.000
10
727.723
20
744.000
0
CIRCLE
8
INTERIOR_PROFILES
10
695.196
20
786.426
30
0
40
1.700
0
CIRCLE
8
INTERIOR_PROFILES
10
625.899
20
753.899
30
0
40
1.700
0
CIRCLE
8
INTERIOR_PROFILES
10
727.723
20
753.899
30
0
40
1.700
0
CIRCLE
8
INTERIOR_PROFILES
10
658.426
20
786.426
30
0
40
1.700
0
TEXT
8
PART_LABELS
10
3016.500
20
917.000
30
0
40
15.000
1
TS2TRX-000000
72
1
73
2
11
3016.500
21
917.000
31
0
0
LWPOLYLINE
8
OUTER_PROFILES
90
6
70
1
10
3031.101
20
977.622
10
2991.574
20
938.095
10
2991.574
20
895.527
10
3031.101
20
856.000
10
3041.000
20
865.899
10
3041.000
20
967.723
0
CIRCLE
8
INTERIOR_PROFILES
10
2998.574
20
935.196
30
0
40
1.700
0
CIRCLE
8
INTERIOR_PROFILES
10
3031.101
20
865.899
30
0
40
1.700
0
CIRCLE
8
INTERIOR_PROFILES
10
3031.101
20
967.723
30
0
40
1.700
0
CIRCLE
8
INTERIOR_PROFILES
10
2998.574
20
898.426
30
0
40
1.700
0
TEXT
8
PART_LABELS
10
3016.500
20
1053.000
30
0
40
15.000
1
TS2TRX-000000
72
1
73
2
11
3016.500
21
1053.000
31
0
0
LWPOLYLINE
8
OUTER_PROFILES
90
6
70
1
10
3031.101
20
1113.622
10
2991.574
20
1074.095
10
2991.574
20
1031.527
10
3031.101
20
992.000
10
3041.000
20
1001.899
10
3041.000
20
1103.723
0
CIRCLE
8
INTERIOR_PROFILES
10
2998.574
20
1071.196
30
0
40
1.700
0
CIRCLE
8
INTERIOR_PROFILES
10
3031.101
20
1001.899
30
0
40
1.700
0
CIRCLE
8
INTERIOR_PROFILES
10
3031.101
20
1103.723
30
0
40
1.700
0
CIRCLE
8
INTERIOR_PROFILES
10
2998.574
20
1034.426
30
0
40
1.700
0
TEXT
8
PART_LABELS
10
3016.500
20
1189.000
30
0
40
15.000
1
TS2TRX-000000
72
1
73
2
11
3016.500
21
1189.000
31
0
0
LWPOLYLINE
8
OUTER_PROFILES
90
6
70
1
10
3031.101
20
1249.622
10
2991.574
20
1210.095
10
2991.574
20
1167.527
10
3031.101
20
1128.000
10
3041.000
20
1137.899
10
3041.000
20
1239.723
0
CIRCLE
8
INTERIOR_PROFILES
10
2998.574
20
1207.196
30
0
40
1.700
0
CIRCLE
8
INTERIOR_PROFILES
10
3031.101
20
1137.899
30
0
40
1.700
0
CIRCLE
8
INTERIOR_PROFILES
10
3031.101
20
1239.723
30
0
40
1.700
0
CIRCLE
8
INTERIOR_PROFILES
10
2998.574
20
1170.426
30
0
40
1.700
0
TEXT
8
PART_LABELS
10
3016.500
20
1325.000
30
0
40
15.000
1
TS2TRX-000000
72
1
73
2
11
3016.500
21
1325.000
31
0
0
LWPOLYLINE
8
OUTER_PROFILES
90
6
70
1
10
3031.101
20
1385.622
10
2991.574
20
1346.095
10
2991.574
20
1303.527
10
3031.101
20
1264.000
10
3041.000
20
1273.899
10
3041.000
20
1375.723
0
CIRCLE
8
INTERIOR_PROFILES
10
2998.574
20
1343.196
30
0
40
1.700
0
CIRCLE
8
INTERIOR_PROFILES
10
3031.101
20
1273.899
30
0
40
1.700
0
CIRCLE
8
INTERIOR_PROFILES
10
3031.101
20
1375.723
30
0
40
1.700
0
CIRCLE
8
INTERIOR_PROFILES
10
2998.574
20
1306.426
30
0
40
1.700
0
TEXT
8
PART_LABELS
10
3016.500
20
1461.000
30
0
40
15.000
1
TS2TRX-000000
72
1
73
2
11
3016.500
21
1461.000
31
0
0
LWPOLYLINE
8
OUTER_PROFILES
90
6
70
1
10
3031.101
20
1521.622
10
2991.574
20
1482.095
10
2991.574
20
1439.527
10
3031.101
20
1400.000
10
3041.000
20
1409.899
10
3041.000
20
1511.723
0
CIRCLE
8
INTERIOR_PROFILES
10
2998.574
20
1479.196
30
0
40
1.700
0
CIRCLE
8
INTERIOR_PROFILES
10
3031.101
20
1409.899
30
0
40
1.700
0
CIRCLE
8
INTERIOR_PROFILES
10
3031.101
20
1511.723
30
0
40
1.700
0
CIRCLE
8
INTERIOR_PROFILES
10
2998.574
20
1442.426
30
0
40
1.700
0
TEXT
8
PART_LABELS
10
30.000
20
1459.500
30
0
40
15.000
1
SD0SUP-000000
72
1
73
2
11
30.000
21
1459.500
31
0
0
LWPOLYLINE
8
OUTER_PROFILES
90
8
70
1
10
26.000
20
1422.500
42
-0.414214
10
24.500
20
1421.000
10
21.700
20
1421.000
42
1.000000
10
21.700
20
1416.000
10
36.000
20
1416.000
42
0.414214
10
60.000
20
1440.000
10
60.000
20
1473.000
42
1.639606
10
12.572
20
1448.582
42
-0.242311
0
CIRCLE
8
INTERIOR_PROFILES
10
50.000
20
1473.000
30
0
40
1.700
0
CIRCLE
8
INTERIOR_PROFILES
10
10.000
20
1473.000
30
0
40
1.700
0
CIRCLE
8
INTERIOR_PROFILES
10
28.000
20
1489.000
30
0
40
1.700
0
CIRCLE
8
INTERIOR_PROFILES
10
43.250
20
1489.000
30
0
40
1.700
0
TEXT
8
PART_LABELS
10
2427.500
20
1494.000
30
0
40
15.000
1
SD0SUP-000000
72
1
73
2
11
2427.500
21
1494.000
31
0
0
LWPOLYLINE
8
OUTER_PROFILES
90
8
70
1
10
2390.500
20
1498.000
42
-0.414214
10
2389.000
20
1499.500
10
2389.000
20
1502.300
42
1.000000
10
2384.000
20
1502.300
10
2384.000
20
1488.000
42
0.414214
10
2408.000
20
1464.000
10
2441.000
20
1464.000
42
1.639606
10
2416.582
20
1511.428
42
-0.242311
0
CIRCLE
8
INTERIOR_PROFILES
10
2441.000
20
1474.000
30
0
40
1.700
0
CIRCLE
8
INTERIOR_PROFILES
10
2441.000
20
1514.000
30
0
40
1.700
0
CIRCLE
8
INTERIOR_PROFILES
10
2457.000
20
1496.000
30
0
40
1.700
0
CIRCLE
8
INTERIOR_PROFILES
10
2457.000
20
1480.750
30
0
40
1.700
0
ENDSEC
0
EOF