0
SECTION
2
HEADER
9
$INSUNITS
70
4
0
ENDSEC
0
SECTION
2
ENTITIES
0
LWPOLYLINE
8
SHEET_BORDER
90
5
70
1
10
0.000
20
0.000
10
3050.000
20
0.000
10
3050.000
20
1525.000
10
0.000
20
1525.000
10
0.000
20
0.000
0
TEXT
8
PART_LABELS
10
344.525
20
394.525
30
0
40
50.000
1
BK1DN1-070000
72
1
73
2
11
344.525
21
394.525
31
0
0
ARC
8
OUTER_PROFILES
10
7.784
20
18.834
30
0
40
4.272
50
229.3224
51
262.9774
0
ARC
8
OUTER_PROFILES
10
12.734
20
18.847
30
0
40
4.285
50
277.0769
51
310.6233
0
LINE
8
OUTER_PROFILES
10
15.524
20
15.595
30
0
11
15.595
21
15.524
31
0
0
ARC
8
OUTER_PROFILES
10
18.847
20
12.734
30
0
40
4.285
50
139.3767
51
172.9231
0
ARC
8
OUTER_PROFILES
10
18.834
20
7.784
30
0
40
4.272
50
187.0226
51
220.6776
0
LINE
8
OUTER_PROFILES
10
15.595
20
5.000
30
0
11
20.595
21
0.000
31
0
0
LINE
8
OUTER_PROFILES
10
668.453
20
0.000
30
0
11
673.453
21
5.000
31
0
0
ARC
8
OUTER_PROFILES
10
670.214
20
7.784
30
0
40
4.272
50
319.3224
51
352.9774
0
ARC
8
OUTER_PROFILES
10
670.201
20
12.734
30
0
40
4.285
50
7.0769
51
40.6233
0
LINE
8
OUTER_PROFILES
10
673.453
20
15.524
30
0
11
673.524
21
15.595
31
0
0
ARC
8
OUTER_PROFILES
10
676.314
20
18.847
30
0
40
4.285
50
229.3767
51
262.9231
0
ARC
8
OUTER_PROFILES
10
681.264
20
18.834
30
0
40
4.272
50
277.0226
51
310.6776
0
LINE
8
OUTER_PROFILES
10
684.048
20
15.595
30
0
11
689.048
21
20.595
31
0
0
LINE
8
OUTER_PROFILES
10
689.048
20
768.453
30
0
11
684.048
21
773.453
31
0
0
ARC
8
OUTER_PROFILES
10
681.264
20
770.214
30
0
40
4.272
50
49.3224
51
82.9774
0
ARC
8
OUTER_PROFILES
10
676.314
20
770.201
30
0
40
4.285
50
97.0769
51
130.6233
0
LINE
8
OUTER_PROFILES
10
673.524
20
773.453
30
0
11
673.453
21
773.524
31
0
0
ARC
8
OUTER_PROFILES
10
670.201
20
776.314
30
0
40
4.285
50
319.3767
51
352.9231
0
ARC
8
OUTER_PROFILES
10
670.214
20
781.264
30
0
40
4.272
50
7.0226
51
40.6776
0
LINE
8
OUTER_PROFILES
10
673.453
20
784.048
30
0
11
668.453
21
789.048
31
0
0
LINE
8
OUTER_PROFILES
10
20.595
20
789.048
30
0
11
15.595
21
784.048
31
0
0
ARC
8
OUTER_PROFILES
10
18.834
20
781.264
30
0
40
4.272
50
139.3224
51
172.9774
0
ARC
8
OUTER_PROFILES
10
18.847
20
776.314
30
0
40
4.285
50
187.0769
51
220.6233
0
LINE
8
OUTER_PROFILES
10
15.595
20
773.524
30
0
11
15.524
21
773.453
31
0
0
ARC
8
OUTER_PROFILES
10
12.734
20
770.201
30
0
40
4.285
50
49.3767
51
82.9231
0
ARC
8
OUTER_PROFILES
10
7.784
20
770.214
30
0
40
4.272
50
97.0226
51
130.6776
0
LINE
8
OUTER_PROFILES
10
5.000
20
773.453
30
0
11
0.000
21
768.453
31
0
0
LINE
8
OUTER_PROFILES
10
0.000
20
20.595
30
0
11
5.000
21
15.595
31
0
0
TEXT
8
PART_LABELS
10
1123.445
20
288.895
30
0
40
50.000
1
SDTRIL-000001
72
1
73
2
11
1123.445
21
288.895
31
0
0
LWPOLYLINE
8
OUTER_PROFILES
90
32
70
1
10
717.755
20
25.690
10
712.260
20
20.195
10
712.260
20
16.337
10
717.755
20
10.842
42
-0.414214
10
717.755
20
9.428
10
712.331
20
4.004
10
1479.522
20
4.004
10
1483.522
20
0.004
10
1526.009
20
0.004
10
1535.009
20
9.004
10
1537.089
20
11.266
42
0.183553
10
1536.582
20
12.593
10
1525.291
20
25.266
10
1522.612
20
27.528
10
1523.826
20
27.120
42
0.135448
10
1525.608
20
26.628
10
1542.581
20
26.628
10
1545.890
20
27.528
10
1550.890
20
32.528
10
1550.890
20
561.528
10
1522.612
20
561.528
10
1522.612
20
563.790
10
1523.509
20
563.790
10
1523.509
20
577.790
10
717.522
20
577.790
10
717.522
20
563.790
10
719.522
20
563.790
10
719.522
20
561.528
10
695.998
20
561.528
10
695.998
20
32.599
10
712.260
20
32.599
10
717.755
20
27.104
42
-0.414214
0
CIRCLE
8
INTERIOR_PROFILES
10
956.522
20
34.528
30
0
40
1.700
0
CIRCLE
8
INTERIOR_PROFILES
10
988.522
20
446.528
30
0
40
1.700
0
CIRCLE
8
INTERIOR_PROFILES
10
1510.687
20
544.201
30
0
40
1.700
0
CIRCLE
8
INTERIOR_PROFILES
10
1399.522
20
34.528
30
0
40
1.700
0
CIRCLE
8
INTERIOR_PROFILES
10
1099.522
20
34.528
30
0
40
1.700
0
CIRCLE
8
INTERIOR_PROFILES
10
799.522
20
34.528
30
0
40
1.700
0
CIRCLE
8
INTERIOR_PROFILES
10
710.260
20
96.528
30
0
40
6.500
0
CIRCLE
8
INTERIOR_PROFILES
10
1424.522
20
62.528
30
0
40
1.700
0
CIRCLE
8
INTERIOR_PROFILES
10
1510.687
20
419.201
30
0
40
1.700
0
CIRCLE
8
INTERIOR_PROFILES
10
1510.687
20
294.201
30
0
40
1.700
0
CIRCLE
8
INTERIOR_PROFILES
10
1106.522
20
62.528
30
0
40
1.700
0
CIRCLE
8
INTERIOR_PROFILES
10
1510.687
20
169.201
30
0
40
1.700
0
CIRCLE
8
INTERIOR_PROFILES
10
1512.522
20
5.004
30
0
40
1.700
0
CIRCLE
8
INTERIOR_PROFILES
10
751.522
20
62.528
30
0
40
1.700
0
CIRCLE
8
INTERIOR_PROFILES
10
751.522
20
286.528
30
0
40
1.700
0
CIRCLE
8
INTERIOR_PROFILES
10
751.522
20
318.528
30
0
40
1.700
0
CIRCLE
8
INTERIOR_PROFILES
10
942.022
20
52.528
30
0
40
6.500
0
CIRCLE
8
INTERIOR_PROFILES
10
988.522
20
62.528
30
0
40
1.700
0
CIRCLE
8
INTERIOR_PROFILES
10
988.522
20
34.528
30
0
40
1.700
0
CIRCLE
8
INTERIOR_PROFILES
10
1487.522
20
5.004
30
0
40
1.700
0
CIRCLE
8
INTERIOR_PROFILES
10
1456.522
20
62.528
30
0
40
1.700
0
CIRCLE
8
INTERIOR_PROFILES
10
1074.522
20
62.528
30
0
40
1.700
0
CIRCLE
8
INTERIOR_PROFILES
10
988.522
20
190.528
30
0
40
1.700
0
CIRCLE
8
INTERIOR_PROFILES
10
1510.687
20
44.201
30
0
40
1.700
0
CIRCLE
8
INTERIOR_PROFILES
10
988.522
20
318.528
30
0
40
1.700
0
CIRCLE
8
INTERIOR_PROFILES
10
710.260
20
234.528
30
0
40
1.700
0
CIRCLE
8
INTERIOR_PROFILES
10
710.260
20
558.528
30
0
40
1.700
0
CIRCLE
8
INTERIOR_PROFILES
10
710.260
20
80.528
30
0
40
1.700
0
CIRCLE
8
INTERIOR_PROFILES
10
710.260
20
518.528
30
0
40
1.700
0
CIRCLE
8
INTERIOR_PROFILES
10
1349.522
20
570.790
30
0
40
1.700
0
CIRCLE
8
INTERIOR_PROFILES
10
710.260
20
56.528
30
0
40
1.700
0
CIRCLE
8
INTERIOR_PROFILES
10
1174.522
20
570.790
30
0
40
1.700
0
CIRCLE
8
INTERIOR_PROFILES
10
710.260
20
412.528
30
0
40
1.700
0
CIRCLE
8
INTERIOR_PROFILES
10
710.260
20
550.528
30
0
40
1.700
0
CIRCLE
8
INTERIOR_PROFILES
10
824.522
20
570.790
30
0
40
1.700
0
CIRCLE
8
INTERIOR_PROFILES
10
710.260
20
112.528
30
0
40
1.700
0
CIRCLE
8
INTERIOR_PROFILES
10
999.522
20
570.790
30
0
40
1.700
0
TEXT
8
PART_LABELS
10
1955.500
20
287.000
30
0
40
50.000
1
SD00NA-080050
72
1
73
2
11
1955.500
21
287.000
31
0
0
ARC
8
OUTER_PROFILES
10
-4305.184
20
188630.600
30
0
40
188172.251
50
271.7902
51
271.7909
0
LINE
8
OUTER_PROFILES
10
1573.262
20
552.595
30
0
11
1568.262
21
557.595
31
0
0
LINE
8
OUTER_PROFILES
10
1568.262
20
561.453
30
0
11
1573.262
21
566.453
31
0
0
LINE
8
OUTER_PROFILES
10
1573.262
20
568.857
30
0
11
1568.333
21
573.786
31
0
0
LINE
8
OUTER_PROFILES
10
2342.715
20
573.786
30
0
11
2337.786
21
568.857
31
0
0
LINE
8
OUTER_PROFILES
10
2337.786
20
566.453
30
0
11
2342.786
21
561.453
31
0
0
LINE
8
OUTER_PROFILES
10
2342.786
20
557.595
30
0
11
2337.786
21
552.595
31
0
0
ARC
8
OUTER_PROFILES
10
36017.625
20
-1076859.849
30
0
40
1077938.729
50
91.7905
51
91.7906
0
ARC
8
OUTER_PROFILES
10
8335.550
20
192447.412
30
0
40
191990.929
50
268.2091
51
268.2098
0
LINE
8
OUTER_PROFILES
10
2337.786
20
550.191
30
0
11
2342.815
21
545.162
31
0
0
LINE
8
OUTER_PROFILES
10
1568.233
20
545.162
30
0
11
1573.262
21
550.191
31
0
0
CIRCLE
8
INTERIOR_PROFILES
10
1771.524
20
131.262
30
0
40
1.700
0
CIRCLE
8
INTERIOR_PROFILES
10
1771.524
20
355.262
30
0
40
1.700
0
CIRCLE
8
INTERIOR_PROFILES
10
2139.524
20
355.262
30
0
40
1.700
0
CIRCLE
8
INTERIOR_PROFILES
10
2139.524
20
259.262
30
0
40
1.700
0
CIRCLE
8
INTERIOR_PROFILES
10
2078.857
20
525.262
30
0
40
6.500
0
CIRCLE
8
INTERIOR_PROFILES
10
1771.524
20
99.262
30
0
40
1.700
0
CIRCLE
8
INTERIOR_PROFILES
10
1771.524
20
195.262
30
0
40
1.700
0
CIRCLE
8
INTERIOR_PROFILES
10
1771.524
20
419.262
30
0
40
1.700
0
CIRCLE
8
INTERIOR_PROFILES
10
1771.524
20
483.262
30
0
40
1.700
0
CIRCLE
8
INTERIOR_PROFILES
10
1771.524
20
35.262
30
0
40
1.700
0
CIRCLE
8
INTERIOR_PROFILES
10
2139.524
20
163.262
30
0
40
1.700
0
CIRCLE
8
INTERIOR_PROFILES
10
2139.524
20
99.262
30
0
40
1.700
0
CIRCLE
8
INTERIOR_PROFILES
10
2139.524
20
419.262
30
0
40
1.700
0
CIRCLE
8
INTERIOR_PROFILES
10
1771.524
20
259.262
30
0
40
1.700
0
LWPOLYLINE
8
INTERIOR_PROFILES
90
4
70
1
10
1732.524
20
13.500
10
1732.524
20
16.262
10
1670.524
20
16.262
10
1670.524
20
13.500
0
CIRCLE
8
INTERIOR_PROFILES
10
1771.524
20
387.262
30
0
40
1.700
0
CIRCLE
8
INTERIOR_PROFILES
10
2139.524
20
35.262
30
0
40
1.700
0
CIRCLE
8
INTERIOR_PROFILES
10
2139.524
20
67.262
30
0
40
1.700
0
CIRCLE
8
INTERIOR_PROFILES
10
1771.524
20
163.262
30
0
40
1.700
0
CIRCLE
8
INTERIOR_PROFILES
10
1771.524
20
515.262
30
0
40
1.700
0
CIRCLE
8
INTERIOR_PROFILES
10
1832.191
20
525.262
30
0
40
6.500
0
CIRCLE
8
INTERIOR_PROFILES
10
2139.524
20
131.262
30
0
40
1.700
0
CIRCLE
8
INTERIOR_PROFILES
10
2139.524
20
483.262
30
0
40
1.700
0
CIRCLE
8
INTERIOR_PROFILES
10
1818.024
20
543.262
30
0
40
1.700
0
CIRCLE
8
INTERIOR_PROFILES
10
1771.524
20
451.262
30
0
40
1.700
0
CIRCLE
8
INTERIOR_PROFILES
10
2025.524
20
543.262
30
0
40
1.700
0
CIRCLE
8
INTERIOR_PROFILES
10
2139.524
20
227.262
30
0
40
1.700
0
CIRCLE
8
INTERIOR_PROFILES
10
2139.524
20
323.262
30
0
40
1.700
0
CIRCLE
8
INTERIOR_PROFILES
10
1771.524
20
323.262
30
0
40
1.700
0
CIRCLE
8
INTERIOR_PROFILES
10
1771.524
20
291.262
30
0
40
1.700
0
CIRCLE
8
INTERIOR_PROFILES
10
2139.524
20
515.262
30
0
40
1.700
0
CIRCLE
8
INTERIOR_PROFILES
10
2139.524
20
387.262
30
0
40
1.700
0
CIRCLE
8
INTERIOR_PROFILES
10
2093.024
20
543.262
30
0
40
1.700
0
CIRCLE
8
INTERIOR_PROFILES
10
2139.524
20
291.262
30
0
40
1.700
0
CIRCLE
8
INTERIOR_PROFILES
10
2139.524
20
195.262
30
0
40
1.700
0
CIRCLE
8
INTERIOR_PROFILES
10
2139.524
20
451.262
30
0
40
1.700
0
CIRCLE
8
INTERIOR_PROFILES
10
1771.524
20
67.262
30
0
40
1.700
0
CIRCLE
8
INTERIOR_PROFILES
10
1771.524
20
227.262
30
0
40
1.700
0
CIRCLE
8
INTERIOR_PROFILES
10
1955.524
20
570.786
30
0
40
1.700
0
CIRCLE
8
INTERIOR_PROFILES
10
2255.524
20
570.786
30
0
40
1.700
0
CIRCLE
8
INTERIOR_PROFILES
10
2063.024
20
570.786
30
0
40
1.700
0
CIRCLE
8
INTERIOR_PROFILES
10
1655.524
20
570.786
30
0
40
1.700
0
CIRCLE
8
INTERIOR_PROFILES
10
2155.524
20
570.786
30
0
40
1.700
0
CIRCLE
8
INTERIOR_PROFILES
10
1848.024
20
570.786
30
0
40
1.700
0
CIRCLE
8
INTERIOR_PROFILES
10
1755.524
20
570.786
30
0
40
1.700
0
CIRCLE
8
INTERIOR_PROFILES
10
1566.262
20
449.262
30
0
40
1.700
0
LWPOLYLINE
8
INTERIOR_PROFILES
90
4
70
1
10
2178.524
20
13.500
10
2240.524
20
13.500
10
2240.524
20
16.262
10
2178.524
20
16.262
0
CIRCLE
8
INTERIOR_PROFILES
10
1955.524
20
7.000
30
0
40
1.700
0
CIRCLE
8
INTERIOR_PROFILES
10
1566.262
20
45.262
30
0
40
1.700
0
CIRCLE
8
INTERIOR_PROFILES
10
1655.524
20
7.000
30
0
40
1.700
0
CIRCLE
8
INTERIOR_PROFILES
10
2255.524
20
7.000
30
0
40
1.700
0
CIRCLE
8
INTERIOR_PROFILES
10
1566.262
20
497.262
30
0
40
3.250
0
CIRCLE
8
INTERIOR_PROFILES
10
2328.524
20
7.000
30
0
40
1.700
0
CIRCLE
8
INTERIOR_PROFILES
10
1566.262
20
274.262
30
0
40
3.250
0
CIRCLE
8
INTERIOR_PROFILES
10
1582.524
20
7.000
30
0
40
1.700
0
CIRCLE
8
INTERIOR_PROFILES
10
1566.262
20
61.262
30
0
40
3.250
0
CIRCLE
8
INTERIOR_PROFILES
10
1566.262
20
481.262
30
0
40
6.500
0
CIRCLE
8
INTERIOR_PROFILES
10
1939.524
20
67.262
30
0
40
1.700
0
CIRCLE
8
INTERIOR_PROFILES
10
1566.262
20
29.262
30
0
40
3.250
0
CIRCLE
8
INTERIOR_PROFILES
10
1566.262
20
465.262
30
0
40
3.250
0
CIRCLE
8
INTERIOR_PROFILES
10
1566.262
20
242.262
30
0
40
3.250
0
CIRCLE
8
INTERIOR_PROFILES
10
1939.524
20
451.262
30
0
40
1.700
0
CIRCLE
8
INTERIOR_PROFILES
10
1939.524
20
323.262
30
0
40
1.700
0
CIRCLE
8
INTERIOR_PROFILES
10
1971.524
20
195.262
30
0
40
1.700
0
CIRCLE
8
INTERIOR_PROFILES
10
1939.524
20
227.262
30
0
40
1.700
0
CIRCLE
8
INTERIOR_PROFILES
10
1939.524
20
259.262
30
0
40
1.700
0
CIRCLE
8
INTERIOR_PROFILES
10
1971.524
20
99.262
30
0
40
1.700
0
CIRCLE
8
INTERIOR_PROFILES
10
1971.524
20
323.262
30
0
40
1.700
0
CIRCLE
8
INTERIOR_PROFILES
10
1971.524
20
419.262
30
0
40
1.700
0
CIRCLE
8
INTERIOR_PROFILES
10
1971.524
20
227.262
30
0
40
1.700
0
CIRCLE
8
INTERIOR_PROFILES
10
1939.524
20
35.262
30
0
40
1.700
0
CIRCLE
8
INTERIOR_PROFILES
10
1971.524
20
259.262
30
0
40
1.700
0
CIRCLE
8
INTERIOR_PROFILES
10
1971.524
20
483.262
30
0
40
1.700
0
CIRCLE
8
INTERIOR_PROFILES
10
1566.262
20
165.262
30
0
40
1.700
0
CIRCLE
8
INTERIOR_PROFILES
10
1566.262
20
521.262
30
0
40
1.700
0
CIRCLE
8
INTERIOR_PROFILES
10
1939.524
20
99.262
30
0
40
1.700
0
CIRCLE
8
INTERIOR_PROFILES
10
1566.262
20
296.262
30
0
40
6.500
0
CIRCLE
8
INTERIOR_PROFILES
10
1566.262
20
543.262
30
0
40
1.700
0
CIRCLE
8
INTERIOR_PROFILES
10
1971.524
20
67.262
30
0
40
1.700
0
CIRCLE
8
INTERIOR_PROFILES
10
1971.524
20
291.262
30
0
40
1.700
0
CIRCLE
8
INTERIOR_PROFILES
10
1971.524
20
163.262
30
0
40
1.700
0
CIRCLE
8
INTERIOR_PROFILES
10
1566.262
20
19.262
30
0
40
1.700
0
CIRCLE
8
INTERIOR_PROFILES
10
1971.524
20
355.262
30
0
40
1.700
0
CIRCLE
8
INTERIOR_PROFILES
10
1939.524
20
195.262
30
0
40
1.700
0
CIRCLE
8
INTERIOR_PROFILES
10
1566.262
20
343.262
30
0
40
1.700
0
CIRCLE
8
INTERIOR_PROFILES
10
1566.262
20
124.762
30
0
40
6.500
0
CIRCLE
8
INTERIOR_PROFILES
10
1955.524
20
543.262
30
0
40
1.700
0
CIRCLE
8
INTERIOR_PROFILES
10
2255.524
20
543.262
30
0
40
1.700
0
CIRCLE
8
INTERIOR_PROFILES
10
1939.524
20
387.262
30
0
40
1.700
0
CIRCLE
8
INTERIOR_PROFILES
10
1939.524
20
483.262
30
0
40
1.700
0
CIRCLE
8
INTERIOR_PROFILES
10
2327.524
20
543.262
30
0
40
1.700
0
CIRCLE
8
INTERIOR_PROFILES
10
1971.524
20
451.262
30
0
40
1.700
0
CIRCLE
8
INTERIOR_PROFILES
10
2229.524
20
19.262
30
0
40
1.700
0
CIRCLE
8
INTERIOR_PROFILES
10
1583.524
20
543.262
30
0
40
1.700
0
CIRCLE
8
INTERIOR_PROFILES
10
1655.524
20
543.262
30
0
40
1.700
0
CIRCLE
8
INTERIOR_PROFILES
10
1585.524
20
525.262
30
0
40
6.500
0
CIRCLE
8
INTERIOR_PROFILES
10
1971.524
20
35.262
30
0
40
1.700
0
CIRCLE
8
INTERIOR_PROFILES
10
1971.524
20
131.262
30
0
40
1.700
0
CIRCLE
8
INTERIOR_PROFILES
10
1607.524
20
483.262
30
0
40
1.700
0
CIRCLE
8
INTERIOR_PROFILES
10
1607.524
20
419.262
30
0
40
1.700
0
CIRCLE
8
INTERIOR_PROFILES
10
1607.524
20
291.262
30
0
40
1.700
0
CIRCLE
8
INTERIOR_PROFILES
10
1655.524
20
19.262
30
0
40
1.700
0
CIRCLE
8
INTERIOR_PROFILES
10
1607.524
20
227.262
30
0
40
1.700
0
CIRCLE
8
INTERIOR_PROFILES
10
1939.524
20
131.262
30
0
40
1.700
0
CIRCLE
8
INTERIOR_PROFILES
10
2189.524
20
19.262
30
0
40
1.700
0
CIRCLE
8
INTERIOR_PROFILES
10
1721.524
20
19.262
30
0
40
1.700
0
CIRCLE
8
INTERIOR_PROFILES
10
1939.524
20
355.262
30
0
40
1.700
0
CIRCLE
8
INTERIOR_PROFILES
10
1939.524
20
291.262
30
0
40
1.700
0
CIRCLE
8
INTERIOR_PROFILES
10
1939.524
20
419.262
30
0
40
1.700
0
CIRCLE
8
INTERIOR_PROFILES
10
1985.524
20
543.262
30
0
40
1.700
0
CIRCLE
8
INTERIOR_PROFILES
10
1925.524
20
543.262
30
0
40
1.700
0
CIRCLE
8
INTERIOR_PROFILES
10
2325.524
20
525.262
30
0
40
6.500
0
CIRCLE
8
INTERIOR_PROFILES
10
1971.524
20
387.262
30
0
40
1.700
0
CIRCLE
8
INTERIOR_PROFILES
10
1681.524
20
19.262
30
0
40
1.700
0
CIRCLE
8
INTERIOR_PROFILES
10
1939.524
20
163.262
30
0
40
1.700
0
CIRCLE
8
INTERIOR_PROFILES
10
2255.524
20
19.262
30
0
40
1.700
0
CIRCLE
8
INTERIOR_PROFILES
10
1955.524
20
19.262
30
0
40
1.700
0
CIRCLE
8
INTERIOR_PROFILES
10
1607.524
20
355.262
30
0
40
1.700
0
CIRCLE
8
INTERIOR_PROFILES
10
1703.524
20
419.262
30
0
40
1.700
0
CIRCLE
8
INTERIOR_PROFILES
10
1607.524
20
131.262
30
0
40
1.700
0
CIRCLE
8
INTERIOR_PROFILES
10
1607.524
20
67.262
30
0
40
1.700
0
CIRCLE
8
INTERIOR_PROFILES
10
1639.524
20
515.262
30
0
40
1.700
0
CIRCLE
8
INTERIOR_PROFILES
10
1607.524
20
35.262
30
0
40
1.700
0
CIRCLE
8
INTERIOR_PROFILES
10
1903.524
20
259.262
30
0
40
1.700
0
CIRCLE
8
INTERIOR_PROFILES
10
1903.524
20
67.262
30
0
40
1.700
0
CIRCLE
8
INTERIOR_PROFILES
10
1903.524
20
291.262
30
0
40
1.700
0
CIRCLE
8
INTERIOR_PROFILES
10
1703.524
20
227.262
30
0
40
1.700
0
CIRCLE
8
INTERIOR_PROFILES
10
1903.524
20
227.262
30
0
40
1.700
0
CIRCLE
8
INTERIOR_PROFILES
10
1703.524
20
387.262
30
0
40
1.700
0
CIRCLE
8
INTERIOR_PROFILES
10
1903.524
20
195.262
30
0
40
1.700
0
CIRCLE
8
INTERIOR_PROFILES
10
1607.524
20
163.262
30
0
40
1.700
0
CIRCLE
8
INTERIOR_PROFILES
10
1903.524
20
323.262
30
0
40
1.700
0
CIRCLE
8
INTERIOR_PROFILES
10
1607.524
20
259.262
30
0
40
1.700
0
CIRCLE
8
INTERIOR_PROFILES
10
1607.524
20
387.262
30
0
40
1.700
0
CIRCLE
8
INTERIOR_PROFILES
10
1703.524
20
99.262
30
0
40
1.700
0
CIRCLE
8
INTERIOR_PROFILES
10
1703.524
20
483.262
30
0
40
1.700
0
CIRCLE
8
INTERIOR_PROFILES
10
1903.524
20
35.262
30
0
40
1.700
0
CIRCLE
8
INTERIOR_PROFILES
10
1703.524
20
515.262
30
0
40
1.700
0
CIRCLE
8
INTERIOR_PROFILES
10
1607.524
20
99.262
30
0
40
1.700
0
CIRCLE
8
INTERIOR_PROFILES
10
1703.524
20
131.262
30
0
40
1.700
0
CIRCLE
8
INTERIOR_PROFILES
10
1703.524
20
451.262
30
0
40
1.700
0
CIRCLE
8
INTERIOR_PROFILES
10
1607.524
20
515.262
30
0
40
1.700
0
CIRCLE
8
INTERIOR_PROFILES
10
1703.524
20
35.262
30
0
40
1.700
0
CIRCLE
8
INTERIOR_PROFILES
10
1903.524
20
163.262
30
0
40
1.700
0
CIRCLE
8
INTERIOR_PROFILES
10
1703.524
20
259.262
30
0
40
1.700
0
CIRCLE
8
INTERIOR_PROFILES
10
1607.524
20
451.262
30
0
40
1.700
0
CIRCLE
8
INTERIOR_PROFILES
10
1703.524
20
67.262
30
0
40
1.700
0
CIRCLE
8
INTERIOR_PROFILES
10
1607.524
20
195.262
30
0
40
1.700
0
CIRCLE
8
INTERIOR_PROFILES
10
1607.524
20
323.262
30
0
40
1.700
0
CIRCLE
8
INTERIOR_PROFILES
10
1703.524
20
163.262
30
0
40
1.700
0
CIRCLE
8
INTERIOR_PROFILES
10
1971.524
20
515.262
30
0
40
1.700
0
CIRCLE
8
INTERIOR_PROFILES
10
1903.524
20
99.262
30
0
40
1.700
0
CIRCLE
8
INTERIOR_PROFILES
10
2007.524
20
419.262
30
0
40
1.700
0
CIRCLE
8
INTERIOR_PROFILES
10
1703.524
20
355.262
30
0
40
1.700
0
CIRCLE
8
INTERIOR_PROFILES
10
2007.524
20
227.262
30
0
40
1.700
0
CIRCLE
8
INTERIOR_PROFILES
10
2007.524
20
451.262
30
0
40
1.700
0
CIRCLE
8
INTERIOR_PROFILES
10
2007.524
20
163.262
30
0
40
1.700
0
CIRCLE
8
INTERIOR_PROFILES
10
2007.524
20
515.262
30
0
40
1.700
0
CIRCLE
8
INTERIOR_PROFILES
10
1939.524
20
515.262
30
0
40
1.700
0
CIRCLE
8
INTERIOR_PROFILES
10
2007.524
20
483.262
30
0
40
1.700
0
CIRCLE
8
INTERIOR_PROFILES
10
2007.524
20
99.262
30
0
40
1.700
0
CIRCLE
8
INTERIOR_PROFILES
10
2207.524
20
195.262
30
0
40
1.700
0
CIRCLE
8
INTERIOR_PROFILES
10
2007.524
20
35.262
30
0
40
1.700
0
CIRCLE
8
INTERIOR_PROFILES
10
1903.524
20
451.262
30
0
40
1.700
0
CIRCLE
8
INTERIOR_PROFILES
10
1903.524
20
515.262
30
0
40
1.700
0
CIRCLE
8
INTERIOR_PROFILES
10
1903.524
20
131.262
30
0
40
1.700
0
CIRCLE
8
INTERIOR_PROFILES
10
1703.524
20
291.262
30
0
40
1.700
0
CIRCLE
8
INTERIOR_PROFILES
10
2007.524
20
355.262
30
0
40
1.700
0
CIRCLE
8
INTERIOR_PROFILES
10
2007.524
20
195.262
30
0
40
1.700
0
CIRCLE
8
INTERIOR_PROFILES
10
2007.524
20
259.262
30
0
40
1.700
0
CIRCLE
8
INTERIOR_PROFILES
10
2007.524
20
291.262
30
0
40
1.700
0
CIRCLE
8
INTERIOR_PROFILES
10
1703.524
20
195.262
30
0
40
1.700
0
CIRCLE
8
INTERIOR_PROFILES
10
1703.524
20
323.262
30
0
40
1.700
0
CIRCLE
8
INTERIOR_PROFILES
10
2007.524
20
131.262
30
0
40
1.700
0
CIRCLE
8
INTERIOR_PROFILES
10
2007.524
20
67.262
30
0
40
1.700
0
CIRCLE
8
INTERIOR_PROFILES
10
2007.524
20
387.262
30
0
40
1.700
0
CIRCLE
8
INTERIOR_PROFILES
10
2007.524
20
323.262
30
0
40
1.700
0
CIRCLE
8
INTERIOR_PROFILES
10
1903.524
20
483.262
30
0
40
1.700
0
CIRCLE
8
INTERIOR_PROFILES
10
1903.524
20
355.262
30
0
40
1.700
0
CIRCLE
8
INTERIOR_PROFILES
10
1903.524
20
387.262
30
0
40
1.700
0
CIRCLE
8
INTERIOR_PROFILES
10
1903.524
20
419.262
30
0
40
1.700
0
CIRCLE
8
INTERIOR_PROFILES
10
2207.524
20
67.262
30
0
40
1.700
0
CIRCLE
8
INTERIOR_PROFILES
10
2207.524
20
323.262
30
0
40
1.700
0
CIRCLE
8
INTERIOR_PROFILES
10
2207.524
20
451.262
30
0
40
1.700
0
CIRCLE
8
INTERIOR_PROFILES
10
2303.524
20
67.262
30
0
40
1.700
0
CIRCLE
8
INTERIOR_PROFILES
10
2207.524
20
387.262
30
0
40
1.700
0
CIRCLE
8
INTERIOR_PROFILES
10
2207.524
20
163.262
30
0
40
1.700
0
CIRCLE
8
INTERIOR_PROFILES
10
2207.524
20
291.262
30
0
40
1.700
0
CIRCLE
8
INTERIOR_PROFILES
10
2207.524
20
259.262
30
0
40
1.700
0
CIRCLE
8
INTERIOR_PROFILES
10
2303.524
20
227.262
30
0
40
1.700
0
CIRCLE
8
INTERIOR_PROFILES
10
2303.524
20
195.262
30
0
40
1.700
0
CIRCLE
8
INTERIOR_PROFILES
10
2207.524
20
35.262
30
0
40
1.700
0
CIRCLE
8
INTERIOR_PROFILES
10
2303.524
20
259.262
30
0
40
1.700
0
CIRCLE
8
INTERIOR_PROFILES
10
2303.524
20
291.262
30
0
40
1.700
0
CIRCLE
8
INTERIOR_PROFILES
10
2207.524
20
99.262
30
0
40
1.700
0
CIRCLE
8
INTERIOR_PROFILES
10
2207.524
20
483.262
30
0
40
1.700
0
CIRCLE
8
INTERIOR_PROFILES
10
2303.524
20
355.262
30
0
40
1.700
0
CIRCLE
8
INTERIOR_PROFILES
10
2303.524
20
419.262
30
0
40
1.700
0
CIRCLE
8
INTERIOR_PROFILES
10
2303.524
20
515.262
30
0
40
1.700
0
CIRCLE
8
INTERIOR_PROFILES
10
2207.524
20
227.262
30
0
40
1.700
0
CIRCLE
8
INTERIOR_PROFILES
10
2271.524
20
515.262
30
0
40
1.700
0
CIRCLE
8
INTERIOR_PROFILES
10
2207.524
20
355.262
30
0
40
1.700
0
CIRCLE
8
INTERIOR_PROFILES
10
2207.524
20
515.262
30
0
40
1.700
0
CIRCLE
8
INTERIOR_PROFILES
10
2207.524
20
131.262
30
0
40
1.700
0
CIRCLE
8
INTERIOR_PROFILES
10
2207.524
20
419.262
30
0
40
1.700
0
CIRCLE
8
INTERIOR_PROFILES
10
2303.524
20
387.262
30
0
40
1.700
0
CIRCLE
8
INTERIOR_PROFILES
10
1735.524
20
419.262
30
0
40
1.700
0
CIRCLE
8
INTERIOR_PROFILES
10
1671.524
20
515.262
30
0
40
1.700
0
CIRCLE
8
INTERIOR_PROFILES
10
2303.524
20
99.262
30
0
40
1.700
0
CIRCLE
8
INTERIOR_PROFILES
10
1735.524
20
291.262
30
0
40
1.700
0
CIRCLE
8
INTERIOR_PROFILES
10
2175.524
20
131.262
30
0
40
1.700
0
CIRCLE
8
INTERIOR_PROFILES
10
2175.524
20
67.262
30
0
40
1.700
0
CIRCLE
8
INTERIOR_PROFILES
10
1735.524
20
35.262
30
0
40
1.700
0
CIRCLE
8
INTERIOR_PROFILES
10
1735.524
20
99.262
30
0
40
1.700
0
CIRCLE
8
INTERIOR_PROFILES
10
2303.524
20
131.262
30
0
40
1.700
0
CIRCLE
8
INTERIOR_PROFILES
10
2303.524
20
323.262
30
0
40
1.700
0
CIRCLE
8
INTERIOR_PROFILES
10
2303.524
20
483.262
30
0
40
1.700
0
CIRCLE
8
INTERIOR_PROFILES
10
1735.524
20
227.262
30
0
40
1.700
0
CIRCLE
8
INTERIOR_PROFILES
10
1735.524
20
515.262
30
0
40
1.700
0
CIRCLE
8
INTERIOR_PROFILES
10
1735.524
20
259.262
30
0
40
1.700
0
CIRCLE
8
INTERIOR_PROFILES
10
1735.524
20
451.262
30
0
40
1.700
0
CIRCLE
8
INTERIOR_PROFILES
10
2175.524
20
163.262
30
0
40
1.700
0
CIRCLE
8
INTERIOR_PROFILES
10
1735.524
20
131.262
30
0
40
1.700
0
CIRCLE
8
INTERIOR_PROFILES
10
2303.524
20
163.262
30
0
40
1.700
0
CIRCLE
8
INTERIOR_PROFILES
10
2303.524
20
451.262
30
0
40
1.700
0
CIRCLE
8
INTERIOR_PROFILES
10
2239.524
20
515.262
30
0
40
1.700
0
CIRCLE
8
INTERIOR_PROFILES
10
2175.524
20
35.262
30
0
40
1.700
0
CIRCLE
8
INTERIOR_PROFILES
10
2325.524
20
19.262
30
0
40
1.700
0
CIRCLE
8
INTERIOR_PROFILES
10
2175.524
20
355.262
30
0
40
1.700
0
CIRCLE
8
INTERIOR_PROFILES
10
2175.524
20
291.262
30
0
40
1.700
0
CIRCLE
8
INTERIOR_PROFILES
10
1585.524
20
19.262
30
0
40
1.700
0
CIRCLE
8
INTERIOR_PROFILES
10
2303.524
20
35.262
30
0
40
1.700
0
CIRCLE
8
INTERIOR_PROFILES
10
1735.524
20
483.262
30
0
40
1.700
0
CIRCLE
8
INTERIOR_PROFILES
10
2155.524
20
19.262
30
0
40
1.700
0
CIRCLE
8
INTERIOR_PROFILES
10
1735.524
20
323.262
30
0
40
1.700
0
CIRCLE
8
INTERIOR_PROFILES
10
1735.524
20
387.262
30
0
40
1.700
0
CIRCLE
8
INTERIOR_PROFILES
10
2055.524
20
19.262
30
0
40
1.700
0
CIRCLE
8
INTERIOR_PROFILES
10
1855.524
20
19.262
30
0
40
1.700
0
CIRCLE
8
INTERIOR_PROFILES
10
2039.524
20
515.262
30
0
40
1.700
0
CIRCLE
8
INTERIOR_PROFILES
10
2175.524
20
419.262
30
0
40
1.700
0
CIRCLE
8
INTERIOR_PROFILES
10
2175.524
20
515.262
30
0
40
1.700
0
CIRCLE
8
INTERIOR_PROFILES
10
2175.524
20
387.262
30
0
40
1.700
0
CIRCLE
8
INTERIOR_PROFILES
10
2175.524
20
195.262
30
0
40
1.700
0
CIRCLE
8
INTERIOR_PROFILES
10
2175.524
20
259.262
30
0
40
1.700
0
CIRCLE
8
INTERIOR_PROFILES
10
1735.524
20
163.262
30
0
40
1.700
0
CIRCLE
8
INTERIOR_PROFILES
10
1735.524
20
67.262
30
0
40
1.700
0
CIRCLE
8
INTERIOR_PROFILES
10
1848.024
20
543.262
30
0
40
1.700
0
CIRCLE
8
INTERIOR_PROFILES
10
2175.524
20
323.262
30
0
40
1.700
0
CIRCLE
8
INTERIOR_PROFILES
10
2175.524
20
483.262
30
0
40
1.700
0
CIRCLE
8
INTERIOR_PROFILES
10
2175.524
20
99.262
30
0
40
1.700
0
CIRCLE
8
INTERIOR_PROFILES
10
2071.524
20
515.262
30
0
40
1.700
0
CIRCLE
8
INTERIOR_PROFILES
10
1839.524
20
515.262
30
0
40
1.700
0
CIRCLE
8
INTERIOR_PROFILES
10
2063.024
20
543.262
30
0
40
1.700
0
CIRCLE
8
INTERIOR_PROFILES
10
1735.524
20
355.262
30
0
40
1.700
0
CIRCLE
8
INTERIOR_PROFILES
10
1735.524
20
195.262
30
0
40
1.700
0
CIRCLE
8
INTERIOR_PROFILES
10
1755.524
20
19.262
30
0
40
1.700
0
CIRCLE
8
INTERIOR_PROFILES
10
2175.524
20
451.262
30
0
40
1.700
0
CIRCLE
8
INTERIOR_PROFILES
10
2175.524
20
227.262
30
0
40
1.700
0
CIRCLE
8
INTERIOR_PROFILES
10
2039.524
20
195.262
30
0
40
1.700
0
CIRCLE
8
INTERIOR_PROFILES
10
1871.524
20
259.262
30
0
40
1.700
0
CIRCLE
8
INTERIOR_PROFILES
10
1871.524
20
387.262
30
0
40
1.700
0
CIRCLE
8
INTERIOR_PROFILES
10
2039.524
20
131.262
30
0
40
1.700
0
CIRCLE
8
INTERIOR_PROFILES
10
2039.524
20
483.262
30
0
40
1.700
0
CIRCLE
8
INTERIOR_PROFILES
10
1871.524
20
419.262
30
0
40
1.700
0
CIRCLE
8
INTERIOR_PROFILES
10
2039.524
20
35.262
30
0
40
1.700
0
CIRCLE
8
INTERIOR_PROFILES
10
1871.524
20
323.262
30
0
40
1.700
0
CIRCLE
8
INTERIOR_PROFILES
10
1871.524
20
99.262
30
0
40
1.700
0
CIRCLE
8
INTERIOR_PROFILES
10
2039.524
20
419.262
30
0
40
1.700
0
CIRCLE
8
INTERIOR_PROFILES
10
1788.024
20
543.262
30
0
40
1.700
0
CIRCLE
8
INTERIOR_PROFILES
10
1871.524
20
131.262
30
0
40
1.700
0
CIRCLE
8
INTERIOR_PROFILES
10
2039.524
20
387.262
30
0
40
1.700
0
CIRCLE
8
INTERIOR_PROFILES
10
1871.524
20
163.262
30
0
40
1.700
0
CIRCLE
8
INTERIOR_PROFILES
10
2039.524
20
259.262
30
0
40
1.700
0
CIRCLE
8
INTERIOR_PROFILES
10
2039.524
20
451.262
30
0
40
1.700
0
CIRCLE
8
INTERIOR_PROFILES
10
1871.524
20
483.262
30
0
40
1.700
0
CIRCLE
8
INTERIOR_PROFILES
10
1871.524
20
291.262
30
0
40
1.700
0
CIRCLE
8
INTERIOR_PROFILES
10
1871.524
20
195.262
30
0
40
1.700
0
CIRCLE
8
INTERIOR_PROFILES
10
1871.524
20
355.262
30
0
40
1.700
0
CIRCLE
8
INTERIOR_PROFILES
10
2039.524
20
355.262
30
0
40
1.700
0
CIRCLE
8
INTERIOR_PROFILES
10
2039.524
20
291.262
30
0
40
1.700
0
CIRCLE
8
INTERIOR_PROFILES
10
1871.524
20
515.262
30
0
40
1.700
0
CIRCLE
8
INTERIOR_PROFILES
10
2039.524
20
163.262
30
0
40
1.700
0
CIRCLE
8
INTERIOR_PROFILES
10
1871.524
20
67.262
30
0
40
1.700
0
CIRCLE
8
INTERIOR_PROFILES
10
2039.524
20
323.262
30
0
40
1.700
0
CIRCLE
8
INTERIOR_PROFILES
10
1871.524
20
35.262
30
0
40
1.700
0
CIRCLE
8
INTERIOR_PROFILES
10
1871.524
20
451.262
30
0
40
1.700
0
CIRCLE
8
INTERIOR_PROFILES
10
2039.524
20
227.262
30
0
40
1.700
0
CIRCLE
8
INTERIOR_PROFILES
10
2039.524
20
99.262
30
0
40
1.700
0
CIRCLE
8
INTERIOR_PROFILES
10
1871.524
20
227.262
30
0
40
1.700
0
CIRCLE
8
INTERIOR_PROFILES
10
2039.524
20
67.262
30
0
40
1.700
0
CIRCLE
8
INTERIOR_PROFILES
10
1807.524
20
515.262
30
0
40
1.700
0
CIRCLE
8
INTERIOR_PROFILES
10
2103.524
20
195.262
30
0
40
1.700
0
CIRCLE
8
INTERIOR_PROFILES
10
1807.524
20
131.262
30
0
40
1.700
0
CIRCLE
8
INTERIOR_PROFILES
10
2103.524
20
483.262
30
0
40
1.700
0
CIRCLE
8
INTERIOR_PROFILES
10
1807.524
20
323.262
30
0
40
1.700
0
CIRCLE
8
INTERIOR_PROFILES
10
2103.524
20
515.262
30
0
40
1.700
0
CIRCLE
8
INTERIOR_PROFILES
10
2103.524
20
35.262
30
0
40
1.700
0
CIRCLE
8
INTERIOR_PROFILES
10
1807.524
20
195.262
30
0
40
1.700
0
CIRCLE
8
INTERIOR_PROFILES
10
1807.524
20
67.262
30
0
40
1.700
0
CIRCLE
8
INTERIOR_PROFILES
10
1807.524
20
163.262
30
0
40
1.700
0
CIRCLE
8
INTERIOR_PROFILES
10
2160.524
20
543.262
30
0
40
1.700
0
CIRCLE
8
INTERIOR_PROFILES
10
1807.524
20
355.262
30
0
40
1.700
0
CIRCLE
8
INTERIOR_PROFILES
10
2103.524
20
355.262
30
0
40
1.700
0
CIRCLE
8
INTERIOR_PROFILES
10
2103.524
20
67.262
30
0
40
1.700
0
CIRCLE
8
INTERIOR_PROFILES
10
2103.524
20
419.262
30
0
40
1.700
0
CIRCLE
8
INTERIOR_PROFILES
10
2103.524
20
131.262
30
0
40
1.700
0
CIRCLE
8
INTERIOR_PROFILES
10
2103.524
20
99.262
30
0
40
1.700
0
CIRCLE
8
INTERIOR_PROFILES
10
2103.524
20
291.262
30
0
40
1.700
0
CIRCLE
8
INTERIOR_PROFILES
10
2103.524
20
163.262
30
0
40
1.700
0
CIRCLE
8
INTERIOR_PROFILES
10
1807.524
20
483.262
30
0
40
1.700
0
CIRCLE
8
INTERIOR_PROFILES
10
1807.524
20
451.262
30
0
40
1.700
0
CIRCLE
8
INTERIOR_PROFILES
10
2103.524
20
323.262
30
0
40
1.700
0
CIRCLE
8
INTERIOR_PROFILES
10
2103.524
20
451.262
30
0
40
1.700
0
CIRCLE
8
INTERIOR_PROFILES
10
1807.524
20
387.262
30
0
40
1.700
0
CIRCLE
8
INTERIOR_PROFILES
10
1807.524
20
419.262
30
0
40
1.700
0
CIRCLE
8
INTERIOR_PROFILES
10
1807.524
20
99.262
30
0
40
1.700
0
CIRCLE
8
INTERIOR_PROFILES
10
1807.524
20
259.262
30
0
40
1.700
0
CIRCLE
8
INTERIOR_PROFILES
10
1750.524
20
543.262
30
0
40
1.700
0
CIRCLE
8
INTERIOR_PROFILES
10
1807.524
20
291.262
30
0
40
1.700
0
CIRCLE
8
INTERIOR_PROFILES
10
1671.524
20
355.262
30
0
40
1.700
0
CIRCLE
8
INTERIOR_PROFILES
10
2103.524
20
387.262
30
0
40
1.700
0
CIRCLE
8
INTERIOR_PROFILES
10
2190.524
20
543.262
30
0
40
1.700
0
CIRCLE
8
INTERIOR_PROFILES
10
1807.524
20
227.262
30
0
40
1.700
0
CIRCLE
8
INTERIOR_PROFILES
10
1720.524
20
543.262
30
0
40
1.700
0
CIRCLE
8
INTERIOR_PROFILES
10
1807.524
20
35.262
30
0
40
1.700
0
CIRCLE
8
INTERIOR_PROFILES
10
1671.524
20
323.262
30
0
40
1.700
0
CIRCLE
8
INTERIOR_PROFILES
10
2103.524
20
259.262
30
0
40
1.700
0
CIRCLE
8
INTERIOR_PROFILES
10
2103.524
20
227.262
30
0
40
1.700
0
CIRCLE
8
INTERIOR_PROFILES
10
1671.524
20
419.262
30
0
40
1.700
0
CIRCLE
8
INTERIOR_PROFILES
10
2123.024
20
543.262
30
0
40
1.700
0
CIRCLE
8
INTERIOR_PROFILES
10
2239.524
20
195.262
30
0
40
1.700
0
CIRCLE
8
INTERIOR_PROFILES
10
2239.524
20
227.262
30
0
40
1.700
0
CIRCLE
8
INTERIOR_PROFILES
10
2239.524
20
355.262
30
0
40
1.700
0
CIRCLE
8
INTERIOR_PROFILES
10
1671.524
20
195.262
30
0
40
1.700
0
CIRCLE
8
INTERIOR_PROFILES
10
2239.524
20
387.262
30
0
40
1.700
0
CIRCLE
8
INTERIOR_PROFILES
10
1671.524
20
227.262
30
0
40
1.700
0
CIRCLE
8
INTERIOR_PROFILES
10
2239.524
20
323.262
30
0
40
1.700
0
CIRCLE
8
INTERIOR_PROFILES
10
1671.524
20
131.262
30
0
40
1.700
0
CIRCLE
8
INTERIOR_PROFILES
10
2239.524
20
451.262
30
0
40
1.700
0
CIRCLE
8
INTERIOR_PROFILES
10
2239.524
20
67.262
30
0
40
1.700
0
CIRCLE
8
INTERIOR_PROFILES
10
2310.524
20
503.262
30
0
40
1.700
0
CIRCLE
8
INTERIOR_PROFILES
10
1671.524
20
99.262
30
0
40
1.700
0
CIRCLE
8
INTERIOR_PROFILES
10
2239.524
20
259.262
30
0
40
1.700
0
CIRCLE
8
INTERIOR_PROFILES
10
2344.786
20
481.262
30
0
40
6.500
0
CIRCLE
8
INTERIOR_PROFILES
10
1600.524
20
503.262
30
0
40
1.700
0
CIRCLE
8
INTERIOR_PROFILES
10
2239.524
20
131.262
30
0
40
1.700
0
CIRCLE
8
INTERIOR_PROFILES
10
1671.524
20
483.262
30
0
40
1.700
0
CIRCLE
8
INTERIOR_PROFILES
10
2344.786
20
543.262
30
0
40
1.700
0
CIRCLE
8
INTERIOR_PROFILES
10
2344.786
20
165.262
30
0
40
1.700
0
CIRCLE
8
INTERIOR_PROFILES
10
2239.524
20
163.262
30
0
40
1.700
0
CIRCLE
8
INTERIOR_PROFILES
10
2344.786
20
521.262
30
0
40
1.700
0
CIRCLE
8
INTERIOR_PROFILES
10
2239.524
20
99.262
30
0
40
1.700
0
CIRCLE
8
INTERIOR_PROFILES
10
2239.524
20
419.262
30
0
40
1.700
0
CIRCLE
8
INTERIOR_PROFILES
10
1671.524
20
67.262
30
0
40
1.700
0
CIRCLE
8
INTERIOR_PROFILES
10
1671.524
20
451.262
30
0
40
1.700
0
CIRCLE
8
INTERIOR_PROFILES
10
1671.524
20
259.262
30
0
40
1.700
0
CIRCLE
8
INTERIOR_PROFILES
10
1671.524
20
291.262
30
0
40
1.700
0
CIRCLE
8
INTERIOR_PROFILES
10
1578.524
20
503.262
30
0
40
1.700
0
CIRCLE
8
INTERIOR_PROFILES
10
2332.524
20
503.262
30
0
40
1.700
0
CIRCLE
8
INTERIOR_PROFILES
10
2239.524
20
291.262
30
0
40
1.700
0
CIRCLE
8
INTERIOR_PROFILES
10
1671.524
20
35.262
30
0
40
1.700
0
CIRCLE
8
INTERIOR_PROFILES
10
2239.524
20
35.262
30
0
40
1.700
0
CIRCLE
8
INTERIOR_PROFILES
10
1671.524
20
163.262
30
0
40
1.700
0
CIRCLE
8
INTERIOR_PROFILES
10
1671.524
20
387.262
30
0
40
1.700
0
CIRCLE
8
INTERIOR_PROFILES
10
2239.524
20
483.262
30
0
40
1.700
0
CIRCLE
8
INTERIOR_PROFILES
10
2285.524
20
19.262
30
0
40
1.700
0
CIRCLE
8
INTERIOR_PROFILES
10
1625.524
20
19.262
30
0
40
1.700
0
CIRCLE
8
INTERIOR_PROFILES
10
2344.786
20
296.262
30
0
40
6.500
0
CIRCLE
8
INTERIOR_PROFILES
10
2344.786
20
19.262
30
0
40
1.700
0
CIRCLE
8
INTERIOR_PROFILES
10
2344.786
20
29.262
30
0
40
3.250
0
CIRCLE
8
INTERIOR_PROFILES
10
2344.786
20
45.262
30
0
40
1.700
0
CIRCLE
8
INTERIOR_PROFILES
10
2344.786
20
242.262
30
0
40
3.250
0
CIRCLE
8
INTERIOR_PROFILES
10
2344.786
20
465.262
30
0
40
3.250
0
CIRCLE
8
INTERIOR_PROFILES
10
2344.786
20
274.262
30
0
40
3.250
0
CIRCLE
8
INTERIOR_PROFILES
10
2344.786
20
61.262
30
0
40
3.250
0
CIRCLE
8
INTERIOR_PROFILES
10
2344.786
20
343.262
30
0
40
1.700
0
CIRCLE
8
INTERIOR_PROFILES
10
2344.786
20
124.762
30
0
40
6.500
0
CIRCLE
8
INTERIOR_PROFILES
10
2344.786
20
449.262
30
0
40
1.700
0
CIRCLE
8
INTERIOR_PROFILES
10
2344.786
20
497.262
30
0
40
3.250
0
TEXT
8
PART_LABELS
10
1915.500
20
863.000
30
0
40
50.000
1
SD00NA-080050
72
1
73
2
11
1915.500
21
863.000
31
0
0
ARC
8
OUTER_PROFILES
10
-4345.184
20
189206.603
30
0
40
188172.254
50
271.7902
51
271.7909
0
LINE
8
OUTER_PROFILES
10
1533.262
20
1128.595
30
0
11
1528.262
21
1133.595
31
0
0
LINE
8
OUTER_PROFILES
10
1528.262
20
1137.453
30
0
11
1533.262
21
1142.453
31
0
0
LINE
8
OUTER_PROFILES
10
1533.262
20
1144.857
30
0
11
1528.333
21
1149.786
31
0
0
LINE
8
OUTER_PROFILES
10
2302.715
20
1149.786
30
0
11
2297.786
21
1144.857
31
0
0
LINE
8
OUTER_PROFILES
10
2297.786
20
1142.453
30
0
11
2302.786
21
1137.453
31
0
0
LINE
8
OUTER_PROFILES
10
2302.786
20
1133.595
30
0
11
2297.786
21
1128.595
31
0
0
ARC
8
OUTER_PROFILES
10
35977.625
20
-1076283.849
30
0
40
1077938.730
50
91.7905
51
91.7906
0
ARC
8
OUTER_PROFILES
10
8295.549
20
193023.406
30
0
40
191990.922
50
268.2091
51
268.2098
0
LINE
8
OUTER_PROFILES
10
2297.786
20
1126.191
30
0
11
2302.815
21
1121.162
31
0
0
LINE
8
OUTER_PROFILES
10
1528.233
20
1121.162
30
0
11
1533.262
21
1126.191
31
0
0
CIRCLE
8
INTERIOR_PROFILES
10
1731.524
20
707.262
30
0
40
1.700
0
CIRCLE
8
INTERIOR_PROFILES
10
1731.524
20
931.262
30
0
40
1.700
0
CIRCLE
8
INTERIOR_PROFILES
10
2099.524
20
931.262
30
0
40
1.700
0
CIRCLE
8
INTERIOR_PROFILES
10
2099.524
20
835.262
30
0
40
1.700
0
CIRCLE
8
INTERIOR_PROFILES
10
2038.857
20
1101.262
30
0
40
6.500
0
CIRCLE
8
INTERIOR_PROFILES
10
1731.524
20
675.262
30
0
40
1.700
0
CIRCLE
8
INTERIOR_PROFILES
10
1731.524
20
771.262
30
0
40
1.700
0
CIRCLE
8
INTERIOR_PROFILES
10
1731.524
20
995.262
30
0
40
1.700
0
CIRCLE
8
INTERIOR_PROFILES
10
1731.524
20
1059.262
30
0
40
1.700
0
CIRCLE
8
INTERIOR_PROFILES
10
1731.524
20
611.262
30
0
40
1.700
0
CIRCLE
8
INTERIOR_PROFILES
10
2099.524
20
739.262
30
0
40
1.700
0
CIRCLE
8
INTERIOR_PROFILES
10
2099.524
20
675.262
30
0
40
1.700
0
CIRCLE
8
INTERIOR_PROFILES
10
2099.524
20
995.262
30
0
40
1.700
0
CIRCLE
8
INTERIOR_PROFILES
10
1731.524
20
835.262
30
0
40
1.700
0
LWPOLYLINE
8
INTERIOR_PROFILES
90
4
70
1
10
1692.524
20
589.500
10
1692.524
20
592.262
10
1630.524
20
592.262
10
1630.524
20
589.500
0
CIRCLE
8
INTERIOR_PROFILES
10
1731.524
20
963.262
30
0
40
1.700
0
CIRCLE
8
INTERIOR_PROFILES
10
2099.524
20
611.262
30
0
40
1.700
0
CIRCLE
8
INTERIOR_PROFILES
10
2099.524
20
643.262
30
0
40
1.700
0
CIRCLE
8
INTERIOR_PROFILES
10
1731.524
20
739.262
30
0
40
1.700
0
CIRCLE
8
INTERIOR_PROFILES
10
1731.524
20
1091.262
30
0
40
1.700
0
CIRCLE
8
INTERIOR_PROFILES
10
1792.191
20
1101.262
30
0
40
6.500
0
CIRCLE
8
INTERIOR_PROFILES
10
2099.524
20
707.262
30
0
40
1.700
0
CIRCLE
8
INTERIOR_PROFILES
10
2099.524
20
1059.262
30
0
40
1.700
0
CIRCLE
8
INTERIOR_PROFILES
10
1778.024
20
1119.262
30
0
40
1.700
0
CIRCLE
8
INTERIOR_PROFILES
10
1731.524
20
1027.262
30
0
40
1.700
0
CIRCLE
8
INTERIOR_PROFILES
10
1985.524
20
1119.262
30
0
40
1.700
0
CIRCLE
8
INTERIOR_PROFILES
10
2099.524
20
803.262
30
0
40
1.700
0
CIRCLE
8
INTERIOR_PROFILES
10
2099.524
20
899.262
30
0
40
1.700
0
CIRCLE
8
INTERIOR_PROFILES
10
1731.524
20
899.262
30
0
40
1.700
0
CIRCLE
8
INTERIOR_PROFILES
10
1731.524
20
867.262
30
0
40
1.700
0
CIRCLE
8
INTERIOR_PROFILES
10
2099.524
20
1091.262
30
0
40
1.700
0
CIRCLE
8
INTERIOR_PROFILES
10
2099.524
20
963.262
30
0
40
1.700
0
CIRCLE
8
INTERIOR_PROFILES
10
2053.024
20
1119.262
30
0
40
1.700
0
CIRCLE
8
INTERIOR_PROFILES
10
2099.524
20
867.262
30
0
40
1.700
0
CIRCLE
8
INTERIOR_PROFILES
10
2099.524
20
771.262
30
0
40
1.700
0
CIRCLE
8
INTERIOR_PROFILES
10
2099.524
20
1027.262
30
0
40
1.700
0
CIRCLE
8
INTERIOR_PROFILES
10
1731.524
20
643.262
30
0
40
1.700
0
CIRCLE
8
INTERIOR_PROFILES
10
1731.524
20
803.262
30
0
40
1.700
0
CIRCLE
8
INTERIOR_PROFILES
10
1915.524
20
1146.786
30
0
40
1.700
0
CIRCLE
8
INTERIOR_PROFILES
10
2215.524
20
1146.786
30
0
40
1.700
0
CIRCLE
8
INTERIOR_PROFILES
10
2023.024
20
1146.786
30
0
40
1.700
0
CIRCLE
8
INTERIOR_PROFILES
10
1615.524
20
1146.786
30
0
40
1.700
0
CIRCLE
8
INTERIOR_PROFILES
10
2115.524
20
1146.786
30
0
40
1.700
0
CIRCLE
8
INTERIOR_PROFILES
10
1808.024
20
1146.786
30
0
40
1.700
0
CIRCLE
8
INTERIOR_PROFILES
10
1715.524
20
1146.786
30
0
40
1.700
0
CIRCLE
8
INTERIOR_PROFILES
10
1526.262
20
1025.262
30
0
40
1.700
0
LWPOLYLINE
8
INTERIOR_PROFILES
90
4
70
1
10
2138.524
20
589.500
10
2200.524
20
589.500
10
2200.524
20
592.262
10
2138.524
20
592.262
0
CIRCLE
8
INTERIOR_PROFILES
10
1915.524
20
583.000
30
0
40
1.700
0
CIRCLE
8
INTERIOR_PROFILES
10
1526.262
20
621.262
30
0
40
1.700
0
CIRCLE
8
INTERIOR_PROFILES
10
1615.524
20
583.000
30
0
40
1.700
0
CIRCLE
8
INTERIOR_PROFILES
10
2215.524
20
583.000
30
0
40
1.700
0
CIRCLE
8
INTERIOR_PROFILES
10
1526.262
20
1073.262
30
0
40
3.250
0
CIRCLE
8
INTERIOR_PROFILES
10
2288.524
20
583.000
30
0
40
1.700
0
CIRCLE
8
INTERIOR_PROFILES
10
1526.262
20
850.262
30
0
40
3.250
0
CIRCLE
8
INTERIOR_PROFILES
10
1542.524
20
583.000
30
0
40
1.700
0
CIRCLE
8
INTERIOR_PROFILES
10
1526.262
20
637.262
30
0
40
3.250
0
CIRCLE
8
INTERIOR_PROFILES
10
1526.262
20
1057.262
30
0
40
6.500
0
CIRCLE
8
INTERIOR_PROFILES
10
1899.524
20
643.262
30
0
40
1.700
0
CIRCLE
8
INTERIOR_PROFILES
10
1526.262
20
605.262
30
0
40
3.250
0
CIRCLE
8
INTERIOR_PROFILES
10
1526.262
20
1041.262
30
0
40
3.250
0
CIRCLE
8
INTERIOR_PROFILES
10
1526.262
20
818.262
30
0
40
3.250
0
CIRCLE
8
INTERIOR_PROFILES
10
1899.524
20
1027.262
30
0
40
1.700
0
CIRCLE
8
INTERIOR_PROFILES
10
1899.524
20
899.262
30
0
40
1.700
0
CIRCLE
8
INTERIOR_PROFILES
10
1931.524
20
771.262
30
0
40
1.700
0
CIRCLE
8
INTERIOR_PROFILES
10
1899.524
20
803.262
30
0
40
1.700
0
CIRCLE
8
INTERIOR_PROFILES
10
1899.524
20
835.262
30
0
40
1.700
0
CIRCLE
8
INTERIOR_PROFILES
10
1931.524
20
675.262
30
0
40
1.700
0
CIRCLE
8
INTERIOR_PROFILES
10
1931.524
20
899.262
30
0
40
1.700
0
CIRCLE
8
INTERIOR_PROFILES
10
1931.524
20
995.262
30
0
40
1.700
0
CIRCLE
8
INTERIOR_PROFILES
10
1931.524
20
803.262
30
0
40
1.700
0
CIRCLE
8
INTERIOR_PROFILES
10
1899.524
20
611.262
30
0
40
1.700
0
CIRCLE
8
INTERIOR_PROFILES
10
1931.524
20
835.262
30
0
40
1.700
0
CIRCLE
8
INTERIOR_PROFILES
10
1931.524
20
1059.262
30
0
40
1.700
0
CIRCLE
8
INTERIOR_PROFILES
10
1526.262
20
741.262
30
0
40
1.700
0
CIRCLE
8
INTERIOR_PROFILES
10
1526.262
20
1097.262
30
0
40
1.700
0
CIRCLE
8
INTERIOR_PROFILES
10
1899.524
20
675.262
30
0
40
1.700
0
CIRCLE
8
INTERIOR_PROFILES
10
1526.262
20
872.262
30
0
40
6.500
0
CIRCLE
8
INTERIOR_PROFILES
10
1526.262
20
1119.262
30
0
40
1.700
0
CIRCLE
8
INTERIOR_PROFILES
10
1931.524
20
643.262
30
0
40
1.700
0
CIRCLE
8
INTERIOR_PROFILES
10
1931.524
20
867.262
30
0
40
1.700
0
CIRCLE
8
INTERIOR_PROFILES
10
1931.524
20
739.262
30
0
40
1.700
0
CIRCLE
8
INTERIOR_PROFILES
10
1526.262
20
595.262
30
0
40
1.700
0
CIRCLE
8
INTERIOR_PROFILES
10
1931.524
20
931.262
30
0
40
1.700
0
CIRCLE
8
INTERIOR_PROFILES
10
1899.524
20
771.262
30
0
40
1.700
0
CIRCLE
8
INTERIOR_PROFILES
10
1526.262
20
919.262
30
0
40
1.700
0
CIRCLE
8
INTERIOR_PROFILES
10
1526.262
20
700.762
30
0
40
6.500
0
CIRCLE
8
INTERIOR_PROFILES
10
1915.524
20
1119.262
30
0
40
1.700
0
CIRCLE
8
INTERIOR_PROFILES
10
2215.524
20
1119.262
30
0
40
1.700
0
CIRCLE
8
INTERIOR_PROFILES
10
1899.524
20
963.262
30
0
40
1.700
0
CIRCLE
8
INTERIOR_PROFILES
10
1899.524
20
1059.262
30
0
40
1.700
0
CIRCLE
8
INTERIOR_PROFILES
10
2287.524
20
1119.262
30
0
40
1.700
0
CIRCLE
8
INTERIOR_PROFILES
10
1931.524
20
1027.262
30
0
40
1.700
0
CIRCLE
8
INTERIOR_PROFILES
10
2189.524
20
595.262
30
0
40
1.700
0
CIRCLE
8
INTERIOR_PROFILES
10
1543.524
20
1119.262
30
0
40
1.700
0
CIRCLE
8
INTERIOR_PROFILES
10
1615.524
20
1119.262
30
0
40
1.700
0
CIRCLE
8
INTERIOR_PROFILES
10
1545.524
20
1101.262
30
0
40
6.500
0
CIRCLE
8
INTERIOR_PROFILES
10
1931.524
20
611.262
30
0
40
1.700
0
CIRCLE
8
INTERIOR_PROFILES
10
1931.524
20
707.262
30
0
40
1.700
0
CIRCLE
8
INTERIOR_PROFILES
10
1567.524
20
1059.262
30
0
40
1.700
0
CIRCLE
8
INTERIOR_PROFILES
10
1567.524
20
995.262
30
0
40
1.700
0
CIRCLE
8
INTERIOR_PROFILES
10
1567.524
20
867.262
30
0
40
1.700
0
CIRCLE
8
INTERIOR_PROFILES
10
1615.524
20
595.262
30
0
40
1.700
0
CIRCLE
8
INTERIOR_PROFILES
10
1567.524
20
803.262
30
0
40
1.700
0
CIRCLE
8
INTERIOR_PROFILES
10
1899.524
20
707.262
30
0
40
1.700
0
CIRCLE
8
INTERIOR_PROFILES
10
2149.524
20
595.262
30
0
40
1.700
0
CIRCLE
8
INTERIOR_PROFILES
10
1681.524
20
595.262
30
0
40
1.700
0
CIRCLE
8
INTERIOR_PROFILES
10
1899.524
20
931.262
30
0
40
1.700
0
CIRCLE
8
INTERIOR_PROFILES
10
1899.524
20
867.262
30
0
40
1.700
0
CIRCLE
8
INTERIOR_PROFILES
10
1899.524
20
995.262
30
0
40
1.700
0
CIRCLE
8
INTERIOR_PROFILES
10
1945.524
20
1119.262
30
0
40
1.700
0
CIRCLE
8
INTERIOR_PROFILES
10
1885.524
20
1119.262
30
0
40
1.700
0
CIRCLE
8
INTERIOR_PROFILES
10
2285.524
20
1101.262
30
0
40
6.500
0
CIRCLE
8
INTERIOR_PROFILES
10
1931.524
20
963.262
30
0
40
1.700
0
CIRCLE
8
INTERIOR_PROFILES
10
1641.524
20
595.262
30
0
40
1.700
0
CIRCLE
8
INTERIOR_PROFILES
10
1899.524
20
739.262
30
0
40
1.700
0
CIRCLE
8
INTERIOR_PROFILES
10
2215.524
20
595.262
30
0
40
1.700
0
CIRCLE
8
INTERIOR_PROFILES
10
1915.524
20
595.262
30
0
40
1.700
0
CIRCLE
8
INTERIOR_PROFILES
10
1567.524
20
931.262
30
0
40
1.700
0
CIRCLE
8
INTERIOR_PROFILES
10
1663.524
20
995.262
30
0
40
1.700
0
CIRCLE
8
INTERIOR_PROFILES
10
1567.524
20
707.262
30
0
40
1.700
0
CIRCLE
8
INTERIOR_PROFILES
10
1567.524
20
643.262
30
0
40
1.700
0
CIRCLE
8
INTERIOR_PROFILES
10
1599.524
20
1091.262
30
0
40
1.700
0
CIRCLE
8
INTERIOR_PROFILES
10
1567.524
20
611.262
30
0
40
1.700
0
CIRCLE
8
INTERIOR_PROFILES
10
1863.524
20
835.262
30
0
40
1.700
0
CIRCLE
8
INTERIOR_PROFILES
10
1863.524
20
643.262
30
0
40
1.700
0
CIRCLE
8
INTERIOR_PROFILES
10
1863.524
20
867.262
30
0
40
1.700
0
CIRCLE
8
INTERIOR_PROFILES
10
1663.524
20
803.262
30
0
40
1.700
0
CIRCLE
8
INTERIOR_PROFILES
10
1863.524
20
803.262
30
0
40
1.700
0
CIRCLE
8
INTERIOR_PROFILES
10
1663.524
20
963.262
30
0
40
1.700
0
CIRCLE
8
INTERIOR_PROFILES
10
1863.524
20
771.262
30
0
40
1.700
0
CIRCLE
8
INTERIOR_PROFILES
10
1567.524
20
739.262
30
0
40
1.700
0
CIRCLE
8
INTERIOR_PROFILES
10
1863.524
20
899.262
30
0
40
1.700
0
CIRCLE
8
INTERIOR_PROFILES
10
1567.524
20
835.262
30
0
40
1.700
0
CIRCLE
8
INTERIOR_PROFILES
10
1567.524
20
963.262
30
0
40
1.700
0
CIRCLE
8
INTERIOR_PROFILES
10
1663.524
20
675.262
30
0
40
1.700
0
CIRCLE
8
INTERIOR_PROFILES
10
1663.524
20
1059.262
30
0
40
1.700
0
CIRCLE
8
INTERIOR_PROFILES
10
1863.524
20
611.262
30
0
40
1.700
0
CIRCLE
8
INTERIOR_PROFILES
10
1663.524
20
1091.262
30
0
40
1.700
0
CIRCLE
8
INTERIOR_PROFILES
10
1567.524
20
675.262
30
0
40
1.700
0
CIRCLE
8
INTERIOR_PROFILES
10
1663.524
20
707.262
30
0
40
1.700
0
CIRCLE
8
INTERIOR_PROFILES
10
1663.524
20
1027.262
30
0
40
1.700
0
CIRCLE
8
INTERIOR_PROFILES
10
1567.524
20
1091.262
30
0
40
1.700
0
CIRCLE
8
INTERIOR_PROFILES
10
1663.524
20
611.262
30
0
40
1.700
0
CIRCLE
8
INTERIOR_PROFILES
10
1863.524
20
739.262
30
0
40
1.700
0
CIRCLE
8
INTERIOR_PROFILES
10
1663.524
20
835.262
30
0
40
1.700
0
CIRCLE
8
INTERIOR_PROFILES
10
1567.524
20
1027.262
30
0
40
1.700
0
CIRCLE
8
INTERIOR_PROFILES
10
1663.524
20
643.262
30
0
40
1.700
0
CIRCLE
8
INTERIOR_PROFILES
10
1567.524
20
771.262
30
0
40
1.700
0
CIRCLE
8
INTERIOR_PROFILES
10
1567.524
20
899.262
30
0
40
1.700
0
CIRCLE
8
INTERIOR_PROFILES
10
1663.524
20
739.262
30
0
40
1.700
0
CIRCLE
8
INTERIOR_PROFILES
10
1931.524
20
1091.262
30
0
40
1.700
0
CIRCLE
8
INTERIOR_PROFILES
10
1863.524
20
675.262
30
0
40
1.700
0
CIRCLE
8
INTERIOR_PROFILES
10
1967.524
20
995.262
30
0
40
1.700
0
CIRCLE
8
INTERIOR_PROFILES
10
1663.524
20
931.262
30
0
40
1.700
0
CIRCLE
8
INTERIOR_PROFILES
10
1967.524
20
803.262
30
0
40
1.700
0
CIRCLE
8
INTERIOR_PROFILES
10
1967.524
20
1027.262
30
0
40
1.700
0
CIRCLE
8
INTERIOR_PROFILES
10
1967.524
20
739.262
30
0
40
1.700
0
CIRCLE
8
INTERIOR_PROFILES
10
1967.524
20
1091.262
30
0
40
1.700
0
CIRCLE
8
INTERIOR_PROFILES
10
1899.524
20
1091.262
30
0
40
1.700
0
CIRCLE
8
INTERIOR_PROFILES
10
1967.524
20
1059.262
30
0
40
1.700
0
CIRCLE
8
INTERIOR_PROFILES
10
1967.524
20
675.262
30
0
40
1.700
0
CIRCLE
8
INTERIOR_PROFILES
10
2167.524
20
771.262
30
0
40
1.700
0
CIRCLE
8
INTERIOR_PROFILES
10
1967.524
20
611.262
30
0
40
1.700
0
CIRCLE
8
INTERIOR_PROFILES
10
1863.524
20
1027.262
30
0
40
1.700
0
CIRCLE
8
INTERIOR_PROFILES
10
1863.524
20
1091.262
30
0
40
1.700
0
CIRCLE
8
INTERIOR_PROFILES
10
1863.524
20
707.262
30
0
40
1.700
0
CIRCLE
8
INTERIOR_PROFILES
10
1663.524
20
867.262
30
0
40
1.700
0
CIRCLE
8
INTERIOR_PROFILES
10
1967.524
20
931.262
30
0
40
1.700
0
CIRCLE
8
INTERIOR_PROFILES
10
1967.524
20
771.262
30
0
40
1.700
0
CIRCLE
8
INTERIOR_PROFILES
10
1967.524
20
835.262
30
0
40
1.700
0
CIRCLE
8
INTERIOR_PROFILES
10
1967.524
20
867.262
30
0
40
1.700
0
CIRCLE
8
INTERIOR_PROFILES
10
1663.524
20
771.262
30
0
40
1.700
0
CIRCLE
8
INTERIOR_PROFILES
10
1663.524
20
899.262
30
0
40
1.700
0
CIRCLE
8
INTERIOR_PROFILES
10
1967.524
20
707.262
30
0
40
1.700
0
CIRCLE
8
INTERIOR_PROFILES
10
1967.524
20
643.262
30
0
40
1.700
0
CIRCLE
8
INTERIOR_PROFILES
10
1967.524
20
963.262
30
0
40
1.700
0
CIRCLE
8
INTERIOR_PROFILES
10
1967.524
20
899.262
30
0
40
1.700
0
CIRCLE
8
INTERIOR_PROFILES
10
1863.524
20
1059.262
30
0
40
1.700
0
CIRCLE
8
INTERIOR_PROFILES
10
1863.524
20
931.262
30
0
40
1.700
0
CIRCLE
8
INTERIOR_PROFILES
10
1863.524
20
963.262
30
0
40
1.700
0
CIRCLE
8
INTERIOR_PROFILES
10
1863.524
20
995.262
30
0
40
1.700
0
CIRCLE
8
INTERIOR_PROFILES
10
2167.524
20
643.262
30
0
40
1.700
0
CIRCLE
8
INTERIOR_PROFILES
10
2167.524
20
899.262
30
0
40
1.700
0
CIRCLE
8
INTERIOR_PROFILES
10
2167.524
20
1027.262
30
0
40
1.700
0
CIRCLE
8
INTERIOR_PROFILES
10
2263.524
20
643.262
30
0
40
1.700
0
CIRCLE
8
INTERIOR_PROFILES
10
2167.524
20
963.262
30
0
40
1.700
0
CIRCLE
8
INTERIOR_PROFILES
10
2167.524
20
739.262
30
0
40
1.700
0
CIRCLE
8
INTERIOR_PROFILES
10
2167.524
20
867.262
30
0
40
1.700
0
CIRCLE
8
INTERIOR_PROFILES
10
2167.524
20
835.262
30
0
40
1.700
0
CIRCLE
8
INTERIOR_PROFILES
10
2263.524
20
803.262
30
0
40
1.700
0
CIRCLE
8
INTERIOR_PROFILES
10
2263.524
20
771.262
30
0
40
1.700
0
CIRCLE
8
INTERIOR_PROFILES
10
2167.524
20
611.262
30
0
40
1.700
0
CIRCLE
8
INTERIOR_PROFILES
10
2263.524
20
835.262
30
0
40
1.700
0
CIRCLE
8
INTERIOR_PROFILES
10
2263.524
20
867.262
30
0
40
1.700
0
CIRCLE
8
INTERIOR_PROFILES
10
2167.524
20
675.262
30
0
40
1.700
0
CIRCLE
8
INTERIOR_PROFILES
10
2167.524
20
1059.262
30
0
40
1.700
0
CIRCLE
8
INTERIOR_PROFILES
10
2263.524
20
931.262
30
0
40
1.700
0
CIRCLE
8
INTERIOR_PROFILES
10
2263.524
20
995.262
30
0
40
1.700
0
CIRCLE
8
INTERIOR_PROFILES
10
2263.524
20
1091.262
30
0
40
1.700
0
CIRCLE
8
INTERIOR_PROFILES
10
2167.524
20
803.262
30
0
40
1.700
0
CIRCLE
8
INTERIOR_PROFILES
10
2231.524
20
1091.262
30
0
40
1.700
0
CIRCLE
8
INTERIOR_PROFILES
10
2167.524
20
931.262
30
0
40
1.700
0
CIRCLE
8
INTERIOR_PROFILES
10
2167.524
20
1091.262
30
0
40
1.700
0
CIRCLE
8
INTERIOR_PROFILES
10
2167.524
20
707.262
30
0
40
1.700
0
CIRCLE
8
INTERIOR_PROFILES
10
2167.524
20
995.262
30
0
40
1.700
0
CIRCLE
8
INTERIOR_PROFILES
10
2263.524
20
963.262
30
0
40
1.700
0
CIRCLE
8
INTERIOR_PROFILES
10
1695.524
20
995.262
30
0
40
1.700
0
CIRCLE
8
INTERIOR_PROFILES
10
1631.524
20
1091.262
30
0
40
1.700
0
CIRCLE
8
INTERIOR_PROFILES
10
2263.524
20
675.262
30
0
40
1.700
0
CIRCLE
8
INTERIOR_PROFILES
10
1695.524
20
867.262
30
0
40
1.700
0
CIRCLE
8
INTERIOR_PROFILES
10
2135.524
20
707.262
30
0
40
1.700
0
CIRCLE
8
INTERIOR_PROFILES
10
2135.524
20
643.262
30
0
40
1.700
0
CIRCLE
8
INTERIOR_PROFILES
10
1695.524
20
611.262
30
0
40
1.700
0
CIRCLE
8
INTERIOR_PROFILES
10
1695.524
20
675.262
30
0
40
1.700
0
CIRCLE
8
INTERIOR_PROFILES
10
2263.524
20
707.262
30
0
40
1.700
0
CIRCLE
8
INTERIOR_PROFILES
10
2263.524
20
899.262
30
0
40
1.700
0
CIRCLE
8
INTERIOR_PROFILES
10
2263.524
20
1059.262
30
0
40
1.700
0
CIRCLE
8
INTERIOR_PROFILES
10
1695.524
20
803.262
30
0
40
1.700
0
CIRCLE
8
INTERIOR_PROFILES
10
1695.524
20
1091.262
30
0
40
1.700
0
CIRCLE
8
INTERIOR_PROFILES
10
1695.524
20
835.262
30
0
40
1.700
0
CIRCLE
8
INTERIOR_PROFILES
10
1695.524
20
1027.262
30
0
40
1.700
0
CIRCLE
8
INTERIOR_PROFILES
10
2135.524
20
739.262
30
0
40
1.700
0
CIRCLE
8
INTERIOR_PROFILES
10
1695.524
20
707.262
30
0
40
1.700
0
CIRCLE
8
INTERIOR_PROFILES
10
2263.524
20
739.262
30
0
40
1.700
0
CIRCLE
8
INTERIOR_PROFILES
10
2263.524
20
1027.262
30
0
40
1.700
0
CIRCLE
8
INTERIOR_PROFILES
10
2199.524
20
1091.262
30
0
40
1.700
0
CIRCLE
8
INTERIOR_PROFILES
10
2135.524
20
611.262
30
0
40
1.700
0
CIRCLE
8
INTERIOR_PROFILES
10
2285.524
20
595.262
30
0
40
1.700
0
CIRCLE
8
INTERIOR_PROFILES
10
2135.524
20
931.262
30
0
40
1.700
0
CIRCLE
8
INTERIOR_PROFILES
10
2135.524
20
867.262
30
0
40
1.700
0
CIRCLE
8
INTERIOR_PROFILES
10
1545.524
20
595.262
30
0
40
1.700
0
CIRCLE
8
INTERIOR_PROFILES
10
2263.524
20
611.262
30
0
40
1.700
0
CIRCLE
8
INTERIOR_PROFILES
10
1695.524
20
1059.262
30
0
40
1.700
0
CIRCLE
8
INTERIOR_PROFILES
10
2115.524
20
595.262
30
0
40
1.700
0
CIRCLE
8
INTERIOR_PROFILES
10
1695.524
20
899.262
30
0
40
1.700
0
CIRCLE
8
INTERIOR_PROFILES
10
1695.524
20
963.262
30
0
40
1.700
0
CIRCLE
8
INTERIOR_PROFILES
10
2015.524
20
595.262
30
0
40
1.700
0
CIRCLE
8
INTERIOR_PROFILES
10
1815.524
20
595.262
30
0
40
1.700
0
CIRCLE
8
INTERIOR_PROFILES
10
1999.524
20
1091.262
30
0
40
1.700
0
CIRCLE
8
INTERIOR_PROFILES
10
2135.524
20
995.262
30
0
40
1.700
0
CIRCLE
8
INTERIOR_PROFILES
10
2135.524
20
1091.262
30
0
40
1.700
0
CIRCLE
8
INTERIOR_PROFILES
10
2135.524
20
963.262
30
0
40
1.700
0
CIRCLE
8
INTERIOR_PROFILES
10
2135.524
20
771.262
30
0
40
1.700
0
CIRCLE
8
INTERIOR_PROFILES
10
2135.524
20
835.262
30
0
40
1.700
0
CIRCLE
8
INTERIOR_PROFILES
10
1695.524
20
739.262
30
0
40
1.700
0
CIRCLE
8
INTERIOR_PROFILES
10
1695.524
20
643.262
30
0
40
1.700
0
CIRCLE
8
INTERIOR_PROFILES
10
1808.024
20
1119.262
30
0
40
1.700
0
CIRCLE
8
INTERIOR_PROFILES
10
2135.524
20
899.262
30
0
40
1.700
0
CIRCLE
8
INTERIOR_PROFILES
10
2135.524
20
1059.262
30
0
40
1.700
0
CIRCLE
8
INTERIOR_PROFILES
10
2135.524
20
675.262
30
0
40
1.700
0
CIRCLE
8
INTERIOR_PROFILES
10
2031.524
20
1091.262
30
0
40
1.700
0
CIRCLE
8
INTERIOR_PROFILES
10
1799.524
20
1091.262
30
0
40
1.700
0
CIRCLE
8
INTERIOR_PROFILES
10
2023.024
20
1119.262
30
0
40
1.700
0
CIRCLE
8
INTERIOR_PROFILES
10
1695.524
20
931.262
30
0
40
1.700
0
CIRCLE
8
INTERIOR_PROFILES
10
1695.524
20
771.262
30
0
40
1.700
0
CIRCLE
8
INTERIOR_PROFILES
10
1715.524
20
595.262
30
0
40
1.700
0
CIRCLE
8
INTERIOR_PROFILES
10
2135.524
20
1027.262
30
0
40
1.700
0
CIRCLE
8
INTERIOR_PROFILES
10
2135.524
20
803.262
30
0
40
1.700
0
CIRCLE
8
INTERIOR_PROFILES
10
1999.524
20
771.262
30
0
40
1.700
0
CIRCLE
8
INTERIOR_PROFILES
10
1831.524
20
835.262
30
0
40
1.700
0
CIRCLE
8
INTERIOR_PROFILES
10
1831.524
20
963.262
30
0
40
1.700
0
CIRCLE
8
INTERIOR_PROFILES
10
1999.524
20
707.262
30
0
40
1.700
0
CIRCLE
8
INTERIOR_PROFILES
10
1999.524
20
1059.262
30
0
40
1.700
0
CIRCLE
8
INTERIOR_PROFILES
10
1831.524
20
995.262
30
0
40
1.700
0
CIRCLE
8
INTERIOR_PROFILES
10
1999.524
20
611.262
30
0
40
1.700
0
CIRCLE
8
INTERIOR_PROFILES
10
1831.524
20
899.262
30
0
40
1.700
0
CIRCLE
8
INTERIOR_PROFILES
10
1831.524
20
675.262
30
0
40
1.700
0
CIRCLE
8
INTERIOR_PROFILES
10
1999.524
20
995.262
30
0
40
1.700
0
CIRCLE
8
INTERIOR_PROFILES
10
1748.024
20
1119.262
30
0
40
1.700
0
CIRCLE
8
INTERIOR_PROFILES
10
1831.524
20
707.262
30
0
40
1.700
0
CIRCLE
8
INTERIOR_PROFILES
10
1999.524
20
963.262
30
0
40
1.700
0
CIRCLE
8
INTERIOR_PROFILES
10
1831.524
20
739.262
30
0
40
1.700
0
CIRCLE
8
INTERIOR_PROFILES
10
1999.524
20
835.262
30
0
40
1.700
0
CIRCLE
8
INTERIOR_PROFILES
10
1999.524
20
1027.262
30
0
40
1.700
0
CIRCLE
8
INTERIOR_PROFILES
10
1831.524
20
1059.262
30
0
40
1.700
0
CIRCLE
8
INTERIOR_PROFILES
10
1831.524
20
867.262
30
0
40
1.700
0
CIRCLE
8
INTERIOR_PROFILES
10
1831.524
20
771.262
30
0
40
1.700
0
CIRCLE
8
INTERIOR_PROFILES
10
1831.524
20
931.262
30
0
40
1.700
0
CIRCLE
8
INTERIOR_PROFILES
10
1999.524
20
931.262
30
0
40
1.700
0
CIRCLE
8
INTERIOR_PROFILES
10
1999.524
20
867.262
30
0
40
1.700
0
CIRCLE
8
INTERIOR_PROFILES
10
1831.524
20
1091.262
30
0
40
1.700
0
CIRCLE
8
INTERIOR_PROFILES
10
1999.524
20
739.262
30
0
40
1.700
0
CIRCLE
8
INTERIOR_PROFILES
10
1831.524
20
643.262
30
0
40
1.700
0
CIRCLE
8
INTERIOR_PROFILES
10
1999.524
20
899.262
30
0
40
1.700
0
CIRCLE
8
INTERIOR_PROFILES
10
1831.524
20
611.262
30
0
40
1.700
0
CIRCLE
8
INTERIOR_PROFILES
10
1831.524
20
1027.262
30
0
40
1.700
0
CIRCLE
8
INTERIOR_PROFILES
10
1999.524
20
803.262
30
0
40
1.700
0
CIRCLE
8
INTERIOR_PROFILES
10
1999.524
20
675.262
30
0
40
1.700
0
CIRCLE
8
INTERIOR_PROFILES
10
1831.524
20
803.262
30
0
40
1.700
0
CIRCLE
8
INTERIOR_PROFILES
10
1999.524
20
643.262
30
0
40
1.700
0
CIRCLE
8
INTERIOR_PROFILES
10
1767.524
20
1091.262
30
0
40
1.700
0
CIRCLE
8
INTERIOR_PROFILES
10
2063.524
20
771.262
30
0
40
1.700
0
CIRCLE
8
INTERIOR_PROFILES
10
1767.524
20
707.262
30
0
40
1.700
0
CIRCLE
8
INTERIOR_PROFILES
10
2063.524
20
1059.262
30
0
40
1.700
0
CIRCLE
8
INTERIOR_PROFILES
10
1767.524
20
899.262
30
0
40
1.700
0
CIRCLE
8
INTERIOR_PROFILES
10
2063.524
20
1091.262
30
0
40
1.700
0
CIRCLE
8
INTERIOR_PROFILES
10
2063.524
20
611.262
30
0
40
1.700
0
CIRCLE
8
INTERIOR_PROFILES
10
1767.524
20
771.262
30
0
40
1.700
0
CIRCLE
8
INTERIOR_PROFILES
10
1767.524
20
643.262
30
0
40
1.700
0
CIRCLE
8
INTERIOR_PROFILES
10
1767.524
20
739.262
30
0
40
1.700
0
CIRCLE
8
INTERIOR_PROFILES
10
2120.524
20
1119.262
30
0
40
1.700
0
CIRCLE
8
INTERIOR_PROFILES
10
1767.524
20
931.262
30
0
40
1.700
0
CIRCLE
8
INTERIOR_PROFILES
10
2063.524
20
931.262
30
0
40
1.700
0
CIRCLE
8
INTERIOR_PROFILES
10
2063.524
20
643.262
30
0
40
1.700
0
CIRCLE
8
INTERIOR_PROFILES
10
2063.524
20
995.262
30
0
40
1.700
0
CIRCLE
8
INTERIOR_PROFILES
10
2063.524
20
707.262
30
0
40
1.700
0
CIRCLE
8
INTERIOR_PROFILES
10
2063.524
20
675.262
30
0
40
1.700
0
CIRCLE
8
INTERIOR_PROFILES
10
2063.524
20
867.262
30
0
40
1.700
0
CIRCLE
8
INTERIOR_PROFILES
10
2063.524
20
739.262
30
0
40
1.700
0
CIRCLE
8
INTERIOR_PROFILES
10
1767.524
20
1059.262
30
0
40
1.700
0
CIRCLE
8
INTERIOR_PROFILES
10
1767.524
20
1027.262
30
0
40
1.700
0
CIRCLE
8
INTERIOR_PROFILES
10
2063.524
20
899.262
30
0
40
1.700
0
CIRCLE
8
INTERIOR_PROFILES
10
2063.524
20
1027.262
30
0
40
1.700
0
CIRCLE
8
INTERIOR_PROFILES
10
1767.524
20
963.262
30
0
40
1.700
0
CIRCLE
8
INTERIOR_PROFILES
10
1767.524
20
995.262
30
0
40
1.700
0
CIRCLE
8
INTERIOR_PROFILES
10
1767.524
20
675.262
30
0
40
1.700
0
CIRCLE
8
INTERIOR_PROFILES
10
1767.524
20
835.262
30
0
40
1.700
0
CIRCLE
8
INTERIOR_PROFILES
10
1710.524
20
1119.262
30
0
40
1.700
0
CIRCLE
8
INTERIOR_PROFILES
10
1767.524
20
867.262
30
0
40
1.700
0
CIRCLE
8
INTERIOR_PROFILES
10
1631.524
20
931.262
30
0
40
1.700
0
CIRCLE
8
INTERIOR_PROFILES
10
2063.524
20
963.262
30
0
40
1.700
0
CIRCLE
8
INTERIOR_PROFILES
10
2150.524
20
1119.262
30
0
40
1.700
0
CIRCLE
8
INTERIOR_PROFILES
10
1767.524
20
803.262
30
0
40
1.700
0
CIRCLE
8
INTERIOR_PROFILES
10
1680.524
20
1119.262
30
0
40
1.700
0
CIRCLE
8
INTERIOR_PROFILES
10
1767.524
20
611.262
30
0
40
1.700
0
CIRCLE
8
INTERIOR_PROFILES
10
1631.524
20
899.262
30
0
40
1.700
0
CIRCLE
8
INTERIOR_PROFILES
10
2063.524
20
835.262
30
0
40
1.700
0
CIRCLE
8
INTERIOR_PROFILES
10
2063.524
20
803.262
30
0
40
1.700
0
CIRCLE
8
INTERIOR_PROFILES
10
1631.524
20
995.262
30
0
40
1.700
0
CIRCLE
8
INTERIOR_PROFILES
10
2083.024
20
1119.262
30
0
40
1.700
0
CIRCLE
8
INTERIOR_PROFILES
10
2199.524
20
771.262
30
0
40
1.700
0
CIRCLE
8
INTERIOR_PROFILES
10
2199.524
20
803.262
30
0
40
1.700
0
CIRCLE
8
INTERIOR_PROFILES
10
2199.524
20
931.262
30
0
40
1.700
0
CIRCLE
8
INTERIOR_PROFILES
10
1631.524
20
771.262
30
0
40
1.700
0
CIRCLE
8
INTERIOR_PROFILES
10
2199.524
20
963.262
30
0
40
1.700
0
CIRCLE
8
INTERIOR_PROFILES
10
1631.524
20
803.262
30
0
40
1.700
0
CIRCLE
8
INTERIOR_PROFILES
10
2199.524
20
899.262
30
0
40
1.700
0
CIRCLE
8
INTERIOR_PROFILES
10
1631.524
20
707.262
30
0
40
1.700
0
CIRCLE
8
INTERIOR_PROFILES
10
2199.524
20
1027.262
30
0
40
1.700
0
CIRCLE
8
INTERIOR_PROFILES
10
2199.524
20
643.262
30
0
40
1.700
0
CIRCLE
8
INTERIOR_PROFILES
10
2270.524
20
1079.262
30
0
40
1.700
0
CIRCLE
8
INTERIOR_PROFILES
10
1631.524
20
675.262
30
0
40
1.700
0
CIRCLE
8
INTERIOR_PROFILES
10
2199.524
20
835.262
30
0
40
1.700
0
CIRCLE
8
INTERIOR_PROFILES
10
2304.786
20
1057.262
30
0
40
6.500
0
CIRCLE
8
INTERIOR_PROFILES
10
1560.524
20
1079.262
30
0
40
1.700
0
CIRCLE
8
INTERIOR_PROFILES
10
2199.524
20
707.262
30
0
40
1.700
0
CIRCLE
8
INTERIOR_PROFILES
10
1631.524
20
1059.262
30
0
40
1.700
0
CIRCLE
8
INTERIOR_PROFILES
10
2304.786
20
1119.262
30
0
40
1.700
0
CIRCLE
8
INTERIOR_PROFILES
10
2304.786
20
741.262
30
0
40
1.700
0
CIRCLE
8
INTERIOR_PROFILES
10
2199.524
20
739.262
30
0
40
1.700
0
CIRCLE
8
INTERIOR_PROFILES
10
2304.786
20
1097.262
30
0
40
1.700
0
CIRCLE
8
INTERIOR_PROFILES
10
2199.524
20
675.262
30
0
40
1.700
0
CIRCLE
8
INTERIOR_PROFILES
10
2199.524
20
995.262
30
0
40
1.700
0
CIRCLE
8
INTERIOR_PROFILES
10
1631.524
20
643.262
30
0
40
1.700
0
CIRCLE
8
INTERIOR_PROFILES
10
1631.524
20
1027.262
30
0
40
1.700
0
CIRCLE
8
INTERIOR_PROFILES
10
1631.524
20
835.262
30
0
40
1.700
0
CIRCLE
8
INTERIOR_PROFILES
10
1631.524
20
867.262
30
0
40
1.700
0
CIRCLE
8
INTERIOR_PROFILES
10
1538.524
20
1079.262
30
0
40
1.700
0
CIRCLE
8
INTERIOR_PROFILES
10
2292.524
20
1079.262
30
0
40
1.700
0
CIRCLE
8
INTERIOR_PROFILES
10
2199.524
20
867.262
30
0
40
1.700
0
CIRCLE
8
INTERIOR_PROFILES
10
1631.524
20
611.262
30
0
40
1.700
0
CIRCLE
8
INTERIOR_PROFILES
10
2199.524
20
611.262
30
0
40
1.700
0
CIRCLE
8
INTERIOR_PROFILES
10
1631.524
20
739.262
30
0
40
1.700
0
CIRCLE
8
INTERIOR_PROFILES
10
1631.524
20
963.262
30
0
40
1.700
0
CIRCLE
8
INTERIOR_PROFILES
10
2199.524
20
1059.262
30
0
40
1.700
0
CIRCLE
8
INTERIOR_PROFILES
10
2245.524
20
595.262
30
0
40
1.700
0
CIRCLE
8
INTERIOR_PROFILES
10
1585.524
20
595.262
30
0
40
1.700
0
CIRCLE
8
INTERIOR_PROFILES
10
2304.786
20
872.262
30
0
40
6.500
0
CIRCLE
8
INTERIOR_PROFILES
10
2304.786
20
595.262
30
0
40
1.700
0
CIRCLE
8
INTERIOR_PROFILES
10
2304.786
20
605.262
30
0
40
3.250
0
CIRCLE
8
INTERIOR_PROFILES
10
2304.786
20
621.262
30
0
40
1.700
0
CIRCLE
8
INTERIOR_PROFILES
10
2304.786
20
818.262
30
0
40
3.250
0
CIRCLE
8
INTERIOR_PROFILES
10
2304.786
20
1041.262
30
0
40
3.250
0
CIRCLE
8
INTERIOR_PROFILES
10
2304.786
20
850.262
30
0
40
3.250
0
CIRCLE
8
INTERIOR_PROFILES
10
2304.786
20
637.262
30
0
40
3.250
0
CIRCLE
8
INTERIOR_PROFILES
10
2304.786
20
919.262
30
0
40
1.700
0
CIRCLE
8
INTERIOR_PROFILES
10
2304.786
20
700.762
30
0
40
6.500
0
CIRCLE
8
INTERIOR_PROFILES
10
2304.786
20
1025.262
30
0
40
1.700
0
CIRCLE
8
INTERIOR_PROFILES
10
2304.786
20
1073.262
30
0
40
3.250
0
TEXT
8
PART_LABELS
10
1099.500
20
871.000
30
0
40
50.000
1
SD00NA-080050
72
1
73
2
11
1099.500
21
871.000
31
0
0
ARC
8
OUTER_PROFILES
10
-5161.184
20
189214.602
30
0
40
188172.254
50
271.7902
51
271.7909
0
LINE
8
OUTER_PROFILES
10
717.262
20
1136.595
30
0
11
712.262
21
1141.595
31
0
0
LINE
8
OUTER_PROFILES
10
712.262
20
1145.453
30
0
11
717.262
21
1150.453
31
0
0
LINE
8
OUTER_PROFILES
10
717.262
20
1152.857
30
0
11
712.333
21
1157.786
31
0
0
LINE
8
OUTER_PROFILES
10
1486.715
20
1157.786
30
0
11
1481.786
21
1152.857
31
0
0
LINE
8
OUTER_PROFILES
10
1481.786
20
1150.453
30
0
11
1486.786
21
1145.453
31
0
0
LINE
8
OUTER_PROFILES
10
1486.786
20
1141.595
30
0
11
1481.786
21
1136.595
31
0
0
ARC
8
OUTER_PROFILES
10
35161.625
20
-1076275.843
30
0
40
1077938.723
50
91.7905
51
91.7906
0
ARC
8
OUTER_PROFILES
10
7479.549
20
193031.406
30
0
40
191990.923
50
268.2091
51
268.2098
0
LINE
8
OUTER_PROFILES
10
1481.786
20
1134.191
30
0
11
1486.815
21
1129.162
31
0
0
LINE
8
OUTER_PROFILES
10
712.233
20
1129.162
30
0
11
717.262
21
1134.191
31
0
0
CIRCLE
8
INTERIOR_PROFILES
10
915.524
20
715.262
30
0
40
1.700
0
CIRCLE
8
INTERIOR_PROFILES
10
915.524
20
939.262
30
0
40
1.700
0
CIRCLE
8
INTERIOR_PROFILES
10
1283.524
20
939.262
30
0
40
1.700
0
CIRCLE
8
INTERIOR_PROFILES
10
1283.524
20
843.262
30
0
40
1.700
0
CIRCLE
8
INTERIOR_PROFILES
10
1222.857
20
1109.262
30
0
40
6.500
0
CIRCLE
8
INTERIOR_PROFILES
10
915.524
20
683.262
30
0
40
1.700
0
CIRCLE
8
INTERIOR_PROFILES
10
915.524
20
779.262
30
0
40
1.700
0
CIRCLE
8
INTERIOR_PROFILES
10
915.524
20
1003.262
30
0
40
1.700
0
CIRCLE
8
INTERIOR_PROFILES
10
915.524
20
1067.262
30
0
40
1.700
0
CIRCLE
8
INTERIOR_PROFILES
10
915.524
20
619.262
30
0
40
1.700
0
CIRCLE
8
INTERIOR_PROFILES
10
1283.524
20
747.262
30
0
40
1.700
0
CIRCLE
8
INTERIOR_PROFILES
10
1283.524
20
683.262
30
0
40
1.700
0
CIRCLE
8
INTERIOR_PROFILES
10
1283.524
20
1003.262
30
0
40
1.700
0
CIRCLE
8
INTERIOR_PROFILES
10
915.524
20
843.262
30
0
40
1.700
0
LWPOLYLINE
8
INTERIOR_PROFILES
90
4
70
1
10
876.524
20
597.500
10
876.524
20
600.262
10
814.524
20
600.262
10
814.524
20
597.500
0
CIRCLE
8
INTERIOR_PROFILES
10
915.524
20
971.262
30
0
40
1.700
0
CIRCLE
8
INTERIOR_PROFILES
10
1283.524
20
619.262
30
0
40
1.700
0
CIRCLE
8
INTERIOR_PROFILES
10
1283.524
20
651.262
30
0
40
1.700
0
CIRCLE
8
INTERIOR_PROFILES
10
915.524
20
747.262
30
0
40
1.700
0
CIRCLE
8
INTERIOR_PROFILES
10
915.524
20
1099.262
30
0
40
1.700
0
CIRCLE
8
INTERIOR_PROFILES
10
976.191
20
1109.262
30
0
40
6.500
0
CIRCLE
8
INTERIOR_PROFILES
10
1283.524
20
715.262
30
0
40
1.700
0
CIRCLE
8
INTERIOR_PROFILES
10
1283.524
20
1067.262
30
0
40
1.700
0
CIRCLE
8
INTERIOR_PROFILES
10
962.024
20
1127.262
30
0
40
1.700
0
CIRCLE
8
INTERIOR_PROFILES
10
915.524
20
1035.262
30
0
40
1.700
0
CIRCLE
8
INTERIOR_PROFILES
10
1169.524
20
1127.262
30
0
40
1.700
0
CIRCLE
8
INTERIOR_PROFILES
10
1283.524
20
811.262
30
0
40
1.700
0
CIRCLE
8
INTERIOR_PROFILES
10
1283.524
20
907.262
30
0
40
1.700
0
CIRCLE
8
INTERIOR_PROFILES
10
915.524
20
907.262
30
0
40
1.700
0
CIRCLE
8
INTERIOR_PROFILES
10
915.524
20
875.262
30
0
40
1.700
0
CIRCLE
8
INTERIOR_PROFILES
10
1283.524
20
1099.262
30
0
40
1.700
0
CIRCLE
8
INTERIOR_PROFILES
10
1283.524
20
971.262
30
0
40
1.700
0
CIRCLE
8
INTERIOR_PROFILES
10
1237.024
20
1127.262
30
0
40
1.700
0
CIRCLE
8
INTERIOR_PROFILES
10
1283.524
20
875.262
30
0
40
1.700
0
CIRCLE
8
INTERIOR_PROFILES
10
1283.524
20
779.262
30
0
40
1.700
0
CIRCLE
8
INTERIOR_PROFILES
10
1283.524
20
1035.262
30
0
40
1.700
0
CIRCLE
8
INTERIOR_PROFILES
10
915.524
20
651.262
30
0
40
1.700
0
CIRCLE
8
INTERIOR_PROFILES
10
915.524
20
811.262
30
0
40
1.700
0
CIRCLE
8
INTERIOR_PROFILES
10
1099.524
20
1154.786
30
0
40
1.700
0
CIRCLE
8
INTERIOR_PROFILES
10
1399.524
20
1154.786
30
0
40
1.700
0
CIRCLE
8
INTERIOR_PROFILES
10
1207.024
20
1154.786
30
0
40
1.700
0
CIRCLE
8
INTERIOR_PROFILES
10
799.524
20
1154.786
30
0
40
1.700
0
CIRCLE
8
INTERIOR_PROFILES
10
1299.524
20
1154.786
30
0
40
1.700
0
CIRCLE
8
INTERIOR_PROFILES
10
992.024
20
1154.786
30
0
40
1.700
0
CIRCLE
8
INTERIOR_PROFILES
10
899.524
20
1154.786
30
0
40
1.700
0
CIRCLE
8
INTERIOR_PROFILES
10
710.262
20
1033.262
30
0
40
1.700
0
LWPOLYLINE
8
INTERIOR_PROFILES
90
4
70
1
10
1322.524
20
597.500
10
1384.524
20
597.500
10
1384.524
20
600.262
10
1322.524
20
600.262
0
CIRCLE
8
INTERIOR_PROFILES
10
1099.524
20
591.000
30
0
40
1.700
0
CIRCLE
8
INTERIOR_PROFILES
10
710.262
20
629.262
30
0
40
1.700
0
CIRCLE
8
INTERIOR_PROFILES
10
799.524
20
591.000
30
0
40
1.700
0
CIRCLE
8
INTERIOR_PROFILES
10
1399.524
20
591.000
30
0
40
1.700
0
CIRCLE
8
INTERIOR_PROFILES
10
710.262
20
1081.262
30
0
40
3.250
0
CIRCLE
8
INTERIOR_PROFILES
10
1472.524
20
591.000
30
0
40
1.700
0
CIRCLE
8
INTERIOR_PROFILES
10
710.262
20
858.262
30
0
40
3.250
0
CIRCLE
8
INTERIOR_PROFILES
10
726.524
20
591.000
30
0
40
1.700
0
CIRCLE
8
INTERIOR_PROFILES
10
710.262
20
645.262
30
0
40
3.250
0
CIRCLE
8
INTERIOR_PROFILES
10
710.262
20
1065.262
30
0
40
6.500
0
CIRCLE
8
INTERIOR_PROFILES
10
1083.524
20
651.262
30
0
40
1.700
0
CIRCLE
8
INTERIOR_PROFILES
10
710.262
20
613.262
30
0
40
3.250
0
CIRCLE
8
INTERIOR_PROFILES
10
710.262
20
1049.262
30
0
40
3.250
0
CIRCLE
8
INTERIOR_PROFILES
10
710.262
20
826.262
30
0
40
3.250
0
CIRCLE
8
INTERIOR_PROFILES
10
1083.524
20
1035.262
30
0
40
1.700
0
CIRCLE
8
INTERIOR_PROFILES
10
1083.524
20
907.262
30
0
40
1.700
0
CIRCLE
8
INTERIOR_PROFILES
10
1115.524
20
779.262
30
0
40
1.700
0
CIRCLE
8
INTERIOR_PROFILES
10
1083.524
20
811.262
30
0
40
1.700
0
CIRCLE
8
INTERIOR_PROFILES
10
1083.524
20
843.262
30
0
40
1.700
0
CIRCLE
8
INTERIOR_PROFILES
10
1115.524
20
683.262
30
0
40
1.700
0
CIRCLE
8
INTERIOR_PROFILES
10
1115.524
20
907.262
30
0
40
1.700
0
CIRCLE
8
INTERIOR_PROFILES
10
1115.524
20
1003.262
30
0
40
1.700
0
CIRCLE
8
INTERIOR_PROFILES
10
1115.524
20
811.262
30
0
40
1.700
0
CIRCLE
8
INTERIOR_PROFILES
10
1083.524
20
619.262
30
0
40
1.700
0
CIRCLE
8
INTERIOR_PROFILES
10
1115.524
20
843.262
30
0
40
1.700
0
CIRCLE
8
INTERIOR_PROFILES
10
1115.524
20
1067.262
30
0
40
1.700
0
CIRCLE
8
INTERIOR_PROFILES
10
710.262
20
749.262
30
0
40
1.700
0
CIRCLE
8
INTERIOR_PROFILES
10
710.262
20
1105.262
30
0
40
1.700
0
CIRCLE
8
INTERIOR_PROFILES
10
1083.524
20
683.262
30
0
40
1.700
0
CIRCLE
8
INTERIOR_PROFILES
10
710.262
20
880.262
30
0
40
6.500
0
CIRCLE
8
INTERIOR_PROFILES
10
710.262
20
1127.262
30
0
40
1.700
0
CIRCLE
8
INTERIOR_PROFILES
10
1115.524
20
651.262
30
0
40
1.700
0
CIRCLE
8
INTERIOR_PROFILES
10
1115.524
20
875.262
30
0
40
1.700
0
CIRCLE
8
INTERIOR_PROFILES
10
1115.524
20
747.262
30
0
40
1.700
0
CIRCLE
8
INTERIOR_PROFILES
10
710.262
20
603.262
30
0
40
1.700
0
CIRCLE
8
INTERIOR_PROFILES
10
1115.524
20
939.262
30
0
40
1.700
0
CIRCLE
8
INTERIOR_PROFILES
10
1083.524
20
779.262
30
0
40
1.700
0
CIRCLE
8
INTERIOR_PROFILES
10
710.262
20
927.262
30
0
40
1.700
0
CIRCLE
8
INTERIOR_PROFILES
10
710.262
20
708.762
30
0
40
6.500
0
CIRCLE
8
INTERIOR_PROFILES
10
1099.524
20
1127.262
30
0
40
1.700
0
CIRCLE
8
INTERIOR_PROFILES
10
1399.524
20
1127.262
30
0
40
1.700
0
CIRCLE
8
INTERIOR_PROFILES
10
1083.524
20
971.262
30
0
40
1.700
0
CIRCLE
8
INTERIOR_PROFILES
10
1083.524
20
1067.262
30
0
40
1.700
0
CIRCLE
8
INTERIOR_PROFILES
10
1471.524
20
1127.262
30
0
40
1.700
0
CIRCLE
8
INTERIOR_PROFILES
10
1115.524
20
1035.262
30
0
40
1.700
0
CIRCLE
8
INTERIOR_PROFILES
10
1373.524
20
603.262
30
0
40
1.700
0
CIRCLE
8
INTERIOR_PROFILES
10
727.524
20
1127.262
30
0
40
1.700
0
CIRCLE
8
INTERIOR_PROFILES
10
799.524
20
1127.262
30
0
40
1.700
0
CIRCLE
8
INTERIOR_PROFILES
10
729.524
20
1109.262
30
0
40
6.500
0
CIRCLE
8
INTERIOR_PROFILES
10
1115.524
20
619.262
30
0
40
1.700
0
CIRCLE
8
INTERIOR_PROFILES
10
1115.524
20
715.262
30
0
40
1.700
0
CIRCLE
8
INTERIOR_PROFILES
10
751.524
20
1067.262
30
0
40
1.700
0
CIRCLE
8
INTERIOR_PROFILES
10
751.524
20
1003.262
30
0
40
1.700
0
CIRCLE
8
INTERIOR_PROFILES
10
751.524
20
875.262
30
0
40
1.700
0
CIRCLE
8
INTERIOR_PROFILES
10
799.524
20
603.262
30
0
40
1.700
0
CIRCLE
8
INTERIOR_PROFILES
10
751.524
20
811.262
30
0
40
1.700
0
CIRCLE
8
INTERIOR_PROFILES
10
1083.524
20
715.262
30
0
40
1.700
0
CIRCLE
8
INTERIOR_PROFILES
10
1333.524
20
603.262
30
0
40
1.700
0
CIRCLE
8
INTERIOR_PROFILES
10
865.524
20
603.262
30
0
40
1.700
0
CIRCLE
8
INTERIOR_PROFILES
10
1083.524
20
939.262
30
0
40
1.700
0
CIRCLE
8
INTERIOR_PROFILES
10
1083.524
20
875.262
30
0
40
1.700
0
CIRCLE
8
INTERIOR_PROFILES
10
1083.524
20
1003.262
30
0
40
1.700
0
CIRCLE
8
INTERIOR_PROFILES
10
1129.524
20
1127.262
30
0
40
1.700
0
CIRCLE
8
INTERIOR_PROFILES
10
1069.524
20
1127.262
30
0
40
1.700
0
CIRCLE
8
INTERIOR_PROFILES
10
1469.524
20
1109.262
30
0
40
6.500
0
CIRCLE
8
INTERIOR_PROFILES
10
1115.524
20
971.262
30
0
40
1.700
0
CIRCLE
8
INTERIOR_PROFILES
10
825.524
20
603.262
30
0
40
1.700
0
CIRCLE
8
INTERIOR_PROFILES
10
1083.524
20
747.262
30
0
40
1.700
0
CIRCLE
8
INTERIOR_PROFILES
10
1399.524
20
603.262
30
0
40
1.700
0
CIRCLE
8
INTERIOR_PROFILES
10
1099.524
20
603.262
30
0
40
1.700
0
CIRCLE
8
INTERIOR_PROFILES
10
751.524
20
939.262
30
0
40
1.700
0
CIRCLE
8
INTERIOR_PROFILES
10
847.524
20
1003.262
30
0
40
1.700
0
CIRCLE
8
INTERIOR_PROFILES
10
751.524
20
715.262
30
0
40
1.700
0
CIRCLE
8
INTERIOR_PROFILES
10
751.524
20
651.262
30
0
40
1.700
0
CIRCLE
8
INTERIOR_PROFILES
10
783.524
20
1099.262
30
0
40
1.700
0
CIRCLE
8
INTERIOR_PROFILES
10
751.524
20
619.262
30
0
40
1.700
0
CIRCLE
8
INTERIOR_PROFILES
10
1047.524
20
843.262
30
0
40
1.700
0
CIRCLE
8
INTERIOR_PROFILES
10
1047.524
20
651.262
30
0
40
1.700
0
CIRCLE
8
INTERIOR_PROFILES
10
1047.524
20
875.262
30
0
40
1.700
0
CIRCLE
8
INTERIOR_PROFILES
10
847.524
20
811.262
30
0
40
1.700
0
CIRCLE
8
INTERIOR_PROFILES
10
1047.524
20
811.262
30
0
40
1.700
0
CIRCLE
8
INTERIOR_PROFILES
10
847.524
20
971.262
30
0
40
1.700
0
CIRCLE
8
INTERIOR_PROFILES
10
1047.524
20
779.262
30
0
40
1.700
0
CIRCLE
8
INTERIOR_PROFILES
10
751.524
20
747.262
30
0
40
1.700
0
CIRCLE
8
INTERIOR_PROFILES
10
1047.524
20
907.262
30
0
40
1.700
0
CIRCLE
8
INTERIOR_PROFILES
10
751.524
20
843.262
30
0
40
1.700
0
CIRCLE
8
INTERIOR_PROFILES
10
751.524
20
971.262
30
0
40
1.700
0
CIRCLE
8
INTERIOR_PROFILES
10
847.524
20
683.262
30
0
40
1.700
0
CIRCLE
8
INTERIOR_PROFILES
10
847.524
20
1067.262
30
0
40
1.700
0
CIRCLE
8
INTERIOR_PROFILES
10
1047.524
20
619.262
30
0
40
1.700
0
CIRCLE
8
INTERIOR_PROFILES
10
847.524
20
1099.262
30
0
40
1.700
0
CIRCLE
8
INTERIOR_PROFILES
10
751.524
20
683.262
30
0
40
1.700
0
CIRCLE
8
INTERIOR_PROFILES
10
847.524
20
715.262
30
0
40
1.700
0
CIRCLE
8
INTERIOR_PROFILES
10
847.524
20
1035.262
30
0
40
1.700
0
CIRCLE
8
INTERIOR_PROFILES
10
751.524
20
1099.262
30
0
40
1.700
0
CIRCLE
8
INTERIOR_PROFILES
10
847.524
20
619.262
30
0
40
1.700
0
CIRCLE
8
INTERIOR_PROFILES
10
1047.524
20
747.262
30
0
40
1.700
0
CIRCLE
8
INTERIOR_PROFILES
10
847.524
20
843.262
30
0
40
1.700
0
CIRCLE
8
INTERIOR_PROFILES
10
751.524
20
1035.262
30
0
40
1.700
0
CIRCLE
8
INTERIOR_PROFILES
10
847.524
20
651.262
30
0
40
1.700
0
CIRCLE
8
INTERIOR_PROFILES
10
751.524
20
779.262
30
0
40
1.700
0
CIRCLE
8
INTERIOR_PROFILES
10
751.524
20
907.262
30
0
40
1.700
0
CIRCLE
8
INTERIOR_PROFILES
10
847.524
20
747.262
30
0
40
1.700
0
CIRCLE
8
INTERIOR_PROFILES
10
1115.524
20
1099.262
30
0
40
1.700
0
CIRCLE
8
INTERIOR_PROFILES
10
1047.524
20
683.262
30
0
40
1.700
0
CIRCLE
8
INTERIOR_PROFILES
10
1151.524
20
1003.262
30
0
40
1.700
0
CIRCLE
8
INTERIOR_PROFILES
10
847.524
20
939.262
30
0
40
1.700
0
CIRCLE
8
INTERIOR_PROFILES
10
1151.524
20
811.262
30
0
40
1.700
0
CIRCLE
8
INTERIOR_PROFILES
10
1151.524
20
1035.262
30
0
40
1.700
0
CIRCLE
8
INTERIOR_PROFILES
10
1151.524
20
747.262
30
0
40
1.700
0
CIRCLE
8
INTERIOR_PROFILES
10
1151.524
20
1099.262
30
0
40
1.700
0
CIRCLE
8
INTERIOR_PROFILES
10
1083.524
20
1099.262
30
0
40
1.700
0
CIRCLE
8
INTERIOR_PROFILES
10
1151.524
20
1067.262
30
0
40
1.700
0
CIRCLE
8
INTERIOR_PROFILES
10
1151.524
20
683.262
30
0
40
1.700
0
CIRCLE
8
INTERIOR_PROFILES
10
1351.524
20
779.262
30
0
40
1.700
0
CIRCLE
8
INTERIOR_PROFILES
10
1151.524
20
619.262
30
0
40
1.700
0
CIRCLE
8
INTERIOR_PROFILES
10
1047.524
20
1035.262
30
0
40
1.700
0
CIRCLE
8
INTERIOR_PROFILES
10
1047.524
20
1099.262
30
0
40
1.700
0
CIRCLE
8
INTERIOR_PROFILES
10
1047.524
20
715.262
30
0
40
1.700
0
CIRCLE
8
INTERIOR_PROFILES
10
847.524
20
875.262
30
0
40
1.700
0
CIRCLE
8
INTERIOR_PROFILES
10
1151.524
20
939.262
30
0
40
1.700
0
CIRCLE
8
INTERIOR_PROFILES
10
1151.524
20
779.262
30
0
40
1.700
0
CIRCLE
8
INTERIOR_PROFILES
10
1151.524
20
843.262
30
0
40
1.700
0
CIRCLE
8
INTERIOR_PROFILES
10
1151.524
20
875.262
30
0
40
1.700
0
CIRCLE
8
INTERIOR_PROFILES
10
847.524
20
779.262
30
0
40
1.700
0
CIRCLE
8
INTERIOR_PROFILES
10
847.524
20
907.262
30
0
40
1.700
0
CIRCLE
8
INTERIOR_PROFILES
10
1151.524
20
715.262
30
0
40
1.700
0
CIRCLE
8
INTERIOR_PROFILES
10
1151.524
20
651.262
30
0
40
1.700
0
CIRCLE
8
INTERIOR_PROFILES
10
1151.524
20
971.262
30
0
40
1.700
0
CIRCLE
8
INTERIOR_PROFILES
10
1151.524
20
907.262
30
0
40
1.700
0
CIRCLE
8
INTERIOR_PROFILES
10
1047.524
20
1067.262
30
0
40
1.700
0
CIRCLE
8
INTERIOR_PROFILES
10
1047.524
20
939.262
30
0
40
1.700
0
CIRCLE
8
INTERIOR_PROFILES
10
1047.524
20
971.262
30
0
40
1.700
0
CIRCLE
8
INTERIOR_PROFILES
10
1047.524
20
1003.262
30
0
40
1.700
0
CIRCLE
8
INTERIOR_PROFILES
10
1351.524
20
651.262
30
0
40
1.700
0
CIRCLE
8
INTERIOR_PROFILES
10
1351.524
20
907.262
30
0
40
1.700
0
CIRCLE
8
INTERIOR_PROFILES
10
1351.524
20
1035.262
30
0
40
1.700
0
CIRCLE
8
INTERIOR_PROFILES
10
1447.524
20
651.262
30
0
40
1.700
0
CIRCLE
8
INTERIOR_PROFILES
10
1351.524
20
971.262
30
0
40
1.700
0
CIRCLE
8
INTERIOR_PROFILES
10
1351.524
20
747.262
30
0
40
1.700
0
CIRCLE
8
INTERIOR_PROFILES
10
1351.524
20
875.262
30
0
40
1.700
0
CIRCLE
8
INTERIOR_PROFILES
10
1351.524
20
843.262
30
0
40
1.700
0
CIRCLE
8
INTERIOR_PROFILES
10
1447.524
20
811.262
30
0
40
1.700
0
CIRCLE
8
INTERIOR_PROFILES
10
1447.524
20
779.262
30
0
40
1.700
0
CIRCLE
8
INTERIOR_PROFILES
10
1351.524
20
619.262
30
0
40
1.700
0
CIRCLE
8
INTERIOR_PROFILES
10
1447.524
20
843.262
30
0
40
1.700
0
CIRCLE
8
INTERIOR_PROFILES
10
1447.524
20
875.262
30
0
40
1.700
0
CIRCLE
8
INTERIOR_PROFILES
10
1351.524
20
683.262
30
0
40
1.700
0
CIRCLE
8
INTERIOR_PROFILES
10
1351.524
20
1067.262
30
0
40
1.700
0
CIRCLE
8
INTERIOR_PROFILES
10
1447.524
20
939.262
30
0
40
1.700
0
CIRCLE
8
INTERIOR_PROFILES
10
1447.524
20
1003.262
30
0
40
1.700
0
CIRCLE
8
INTERIOR_PROFILES
10
1447.524
20
1099.262
30
0
40
1.700
0
CIRCLE
8
INTERIOR_PROFILES
10
1351.524
20
811.262
30
0
40
1.700
0
CIRCLE
8
INTERIOR_PROFILES
10
1415.524
20
1099.262
30
0
40
1.700
0
CIRCLE
8
INTERIOR_PROFILES
10
1351.524
20
939.262
30
0
40
1.700
0
CIRCLE
8
INTERIOR_PROFILES
10
1351.524
20
1099.262
30
0
40
1.700
0
CIRCLE
8
INTERIOR_PROFILES
10
1351.524
20
715.262
30
0
40
1.700
0
CIRCLE
8
INTERIOR_PROFILES
10
1351.524
20
1003.262
30
0
40
1.700
0
CIRCLE
8
INTERIOR_PROFILES
10
1447.524
20
971.262
30
0
40
1.700
0
CIRCLE
8
INTERIOR_PROFILES
10
879.524
20
1003.262
30
0
40
1.700
0
CIRCLE
8
INTERIOR_PROFILES
10
815.524
20
1099.262
30
0
40
1.700
0
CIRCLE
8
INTERIOR_PROFILES
10
1447.524
20
683.262
30
0
40
1.700
0
CIRCLE
8
INTERIOR_PROFILES
10
879.524
20
875.262
30
0
40
1.700
0
CIRCLE
8
INTERIOR_PROFILES
10
1319.524
20
715.262
30
0
40
1.700
0
CIRCLE
8
INTERIOR_PROFILES
10
1319.524
20
651.262
30
0
40
1.700
0
CIRCLE
8
INTERIOR_PROFILES
10
879.524
20
619.262
30
0
40
1.700
0
CIRCLE
8
INTERIOR_PROFILES
10
879.524
20
683.262
30
0
40
1.700
0
CIRCLE
8
INTERIOR_PROFILES
10
1447.524
20
715.262
30
0
40
1.700
0
CIRCLE
8
INTERIOR_PROFILES
10
1447.524
20
907.262
30
0
40
1.700
0
CIRCLE
8
INTERIOR_PROFILES
10
1447.524
20
1067.262
30
0
40
1.700
0
CIRCLE
8
INTERIOR_PROFILES
10
879.524
20
811.262
30
0
40
1.700
0
CIRCLE
8
INTERIOR_PROFILES
10
879.524
20
1099.262
30
0
40
1.700
0
CIRCLE
8
INTERIOR_PROFILES
10
879.524
20
843.262
30
0
40
1.700
0
CIRCLE
8
INTERIOR_PROFILES
10
879.524
20
1035.262
30
0
40
1.700
0
CIRCLE
8
INTERIOR_PROFILES
10
1319.524
20
747.262
30
0
40
1.700
0
CIRCLE
8
INTERIOR_PROFILES
10
879.524
20
715.262
30
0
40
1.700
0
CIRCLE
8
INTERIOR_PROFILES
10
1447.524
20
747.262
30
0
40
1.700
0
CIRCLE
8
INTERIOR_PROFILES
10
1447.524
20
1035.262
30
0
40
1.700
0
CIRCLE
8
INTERIOR_PROFILES
10
1383.524
20
1099.262
30
0
40
1.700
0
CIRCLE
8
INTERIOR_PROFILES
10
1319.524
20
619.262
30
0
40
1.700
0
CIRCLE
8
INTERIOR_PROFILES
10
1469.524
20
603.262
30
0
40
1.700
0
CIRCLE
8
INTERIOR_PROFILES
10
1319.524
20
939.262
30
0
40
1.700
0
CIRCLE
8
INTERIOR_PROFILES
10
1319.524
20
875.262
30
0
40
1.700
0
CIRCLE
8
INTERIOR_PROFILES
10
729.524
20
603.262
30
0
40
1.700
0
CIRCLE
8
INTERIOR_PROFILES
10
1447.524
20
619.262
30
0
40
1.700
0
CIRCLE
8
INTERIOR_PROFILES
10
879.524
20
1067.262
30
0
40
1.700
0
CIRCLE
8
INTERIOR_PROFILES
10
1299.524
20
603.262
30
0
40
1.700
0
CIRCLE
8
INTERIOR_PROFILES
10
879.524
20
907.262
30
0
40
1.700
0
CIRCLE
8
INTERIOR_PROFILES
10
879.524
20
971.262
30
0
40
1.700
0
CIRCLE
8
INTERIOR_PROFILES
10
1199.524
20
603.262
30
0
40
1.700
0
CIRCLE
8
INTERIOR_PROFILES
10
999.524
20
603.262
30
0
40
1.700
0
CIRCLE
8
INTERIOR_PROFILES
10
1183.524
20
1099.262
30
0
40
1.700
0
CIRCLE
8
INTERIOR_PROFILES
10
1319.524
20
1003.262
30
0
40
1.700
0
CIRCLE
8
INTERIOR_PROFILES
10
1319.524
20
1099.262
30
0
40
1.700
0
CIRCLE
8
INTERIOR_PROFILES
10
1319.524
20
971.262
30
0
40
1.700
0
CIRCLE
8
INTERIOR_PROFILES
10
1319.524
20
779.262
30
0
40
1.700
0
CIRCLE
8
INTERIOR_PROFILES
10
1319.524
20
843.262
30
0
40
1.700
0
CIRCLE
8
INTERIOR_PROFILES
10
879.524
20
747.262
30
0
40
1.700
0
CIRCLE
8
INTERIOR_PROFILES
10
879.524
20
651.262
30
0
40
1.700
0
CIRCLE
8
INTERIOR_PROFILES
10
992.024
20
1127.262
30
0
40
1.700
0
CIRCLE
8
INTERIOR_PROFILES
10
1319.524
20
907.262
30
0
40
1.700
0
CIRCLE
8
INTERIOR_PROFILES
10
1319.524
20
1067.262
30
0
40
1.700
0
CIRCLE
8
INTERIOR_PROFILES
10
1319.524
20
683.262
30
0
40
1.700
0
CIRCLE
8
INTERIOR_PROFILES
10
1215.524
20
1099.262
30
0
40
1.700
0
CIRCLE
8
INTERIOR_PROFILES
10
983.524
20
1099.262
30
0
40
1.700
0
CIRCLE
8
INTERIOR_PROFILES
10
1207.024
20
1127.262
30
0
40
1.700
0
CIRCLE
8
INTERIOR_PROFILES
10
879.524
20
939.262
30
0
40
1.700
0
CIRCLE
8
INTERIOR_PROFILES
10
879.524
20
779.262
30
0
40
1.700
0
CIRCLE
8
INTERIOR_PROFILES
10
899.524
20
603.262
30
0
40
1.700
0
CIRCLE
8
INTERIOR_PROFILES
10
1319.524
20
1035.262
30
0
40
1.700
0
CIRCLE
8
INTERIOR_PROFILES
10
1319.524
20
811.262
30
0
40
1.700
0
CIRCLE
8
INTERIOR_PROFILES
10
1183.524
20
779.262
30
0
40
1.700
0
CIRCLE
8
INTERIOR_PROFILES
10
1015.524
20
843.262
30
0
40
1.700
0
CIRCLE
8
INTERIOR_PROFILES
10
1015.524
20
971.262
30
0
40
1.700
0
CIRCLE
8
INTERIOR_PROFILES
10
1183.524
20
715.262
30
0
40
1.700
0
CIRCLE
8
INTERIOR_PROFILES
10
1183.524
20
1067.262
30
0
40
1.700
0
CIRCLE
8
INTERIOR_PROFILES
10
1015.524
20
1003.262
30
0
40
1.700
0
CIRCLE
8
INTERIOR_PROFILES
10
1183.524
20
619.262
30
0
40
1.700
0
CIRCLE
8
INTERIOR_PROFILES
10
1015.524
20
907.262
30
0
40
1.700
0
CIRCLE
8
INTERIOR_PROFILES
10
1015.524
20
683.262
30
0
40
1.700
0
CIRCLE
8
INTERIOR_PROFILES
10
1183.524
20
1003.262
30
0
40
1.700
0
CIRCLE
8
INTERIOR_PROFILES
10
932.024
20
1127.262
30
0
40
1.700
0
CIRCLE
8
INTERIOR_PROFILES
10
1015.524
20
715.262
30
0
40
1.700
0
CIRCLE
8
INTERIOR_PROFILES
10
1183.524
20
971.262
30
0
40
1.700
0
CIRCLE
8
INTERIOR_PROFILES
10
1015.524
20
747.262
30
0
40
1.700
0
CIRCLE
8
INTERIOR_PROFILES
10
1183.524
20
843.262
30
0
40
1.700
0
CIRCLE
8
INTERIOR_PROFILES
10
1183.524
20
1035.262
30
0
40
1.700
0
CIRCLE
8
INTERIOR_PROFILES
10
1015.524
20
1067.262
30
0
40
1.700
0
CIRCLE
8
INTERIOR_PROFILES
10
1015.524
20
875.262
30
0
40
1.700
0
CIRCLE
8
INTERIOR_PROFILES
10
1015.524
20
779.262
30
0
40
1.700
0
CIRCLE
8
INTERIOR_PROFILES
10
1015.524
20
939.262
30
0
40
1.700
0
CIRCLE
8
INTERIOR_PROFILES
10
1183.524
20
939.262
30
0
40
1.700
0
CIRCLE
8
INTERIOR_PROFILES
10
1183.524
20
875.262
30
0
40
1.700
0
CIRCLE
8
INTERIOR_PROFILES
10
1015.524
20
1099.262
30
0
40
1.700
0
CIRCLE
8
INTERIOR_PROFILES
10
1183.524
20
747.262
30
0
40
1.700
0
CIRCLE
8
INTERIOR_PROFILES
10
1015.524
20
651.262
30
0
40
1.700
0
CIRCLE
8
INTERIOR_PROFILES
10
1183.524
20
907.262
30
0
40
1.700
0
CIRCLE
8
INTERIOR_PROFILES
10
1015.524
20
619.262
30
0
40
1.700
0
CIRCLE
8
INTERIOR_PROFILES
10
1015.524
20
1035.262
30
0
40
1.700
0
CIRCLE
8
INTERIOR_PROFILES
10
1183.524
20
811.262
30
0
40
1.700
0
CIRCLE
8
INTERIOR_PROFILES
10
1183.524
20
683.262
30
0
40
1.700
0
CIRCLE
8
INTERIOR_PROFILES
10
1015.524
20
811.262
30
0
40
1.700
0
CIRCLE
8
INTERIOR_PROFILES
10
1183.524
20
651.262
30
0
40
1.700
0
CIRCLE
8
INTERIOR_PROFILES
10
951.524
20
1099.262
30
0
40
1.700
0
CIRCLE
8
INTERIOR_PROFILES
10
1247.524
20
779.262
30
0
40
1.700
0
CIRCLE
8
INTERIOR_PROFILES
10
951.524
20
715.262
30
0
40
1.700
0
CIRCLE
8
INTERIOR_PROFILES
10
1247.524
20
1067.262
30
0
40
1.700
0
CIRCLE
8
INTERIOR_PROFILES
10
951.524
20
907.262
30
0
40
1.700
0
CIRCLE
8
INTERIOR_PROFILES
10
1247.524
20
1099.262
30
0
40
1.700
0
CIRCLE
8
INTERIOR_PROFILES
10
1247.524
20
619.262
30
0
40
1.700
0
CIRCLE
8
INTERIOR_PROFILES
10
951.524
20
779.262
30
0
40
1.700
0
CIRCLE
8
INTERIOR_PROFILES
10
951.524
20
651.262
30
0
40
1.700
0
CIRCLE
8
INTERIOR_PROFILES
10
951.524
20
747.262
30
0
40
1.700
0
CIRCLE
8
INTERIOR_PROFILES
10
1304.524
20
1127.262
30
0
40
1.700
0
CIRCLE
8
INTERIOR_PROFILES
10
951.524
20
939.262
30
0
40
1.700
0
CIRCLE
8
INTERIOR_PROFILES
10
1247.524
20
939.262
30
0
40
1.700
0
CIRCLE
8
INTERIOR_PROFILES
10
1247.524
20
651.262
30
0
40
1.700
0
CIRCLE
8
INTERIOR_PROFILES
10
1247.524
20
1003.262
30
0
40
1.700
0
CIRCLE
8
INTERIOR_PROFILES
10
1247.524
20
715.262
30
0
40
1.700
0
CIRCLE
8
INTERIOR_PROFILES
10
1247.524
20
683.262
30
0
40
1.700
0
CIRCLE
8
INTERIOR_PROFILES
10
1247.524
20
875.262
30
0
40
1.700
0
CIRCLE
8
INTERIOR_PROFILES
10
1247.524
20
747.262
30
0
40
1.700
0
CIRCLE
8
INTERIOR_PROFILES
10
951.524
20
1067.262
30
0
40
1.700
0
CIRCLE
8
INTERIOR_PROFILES
10
951.524
20
1035.262
30
0
40
1.700
0
CIRCLE
8
INTERIOR_PROFILES
10
1247.524
20
907.262
30
0
40
1.700
0
CIRCLE
8
INTERIOR_PROFILES
10
1247.524
20
1035.262
30
0
40
1.700
0
CIRCLE
8
INTERIOR_PROFILES
10
951.524
20
971.262
30
0
40
1.700
0
CIRCLE
8
INTERIOR_PROFILES
10
951.524
20
1003.262
30
0
40
1.700
0
CIRCLE
8
INTERIOR_PROFILES
10
951.524
20
683.262
30
0
40
1.700
0
CIRCLE
8
INTERIOR_PROFILES
10
951.524
20
843.262
30
0
40
1.700
0
CIRCLE
8
INTERIOR_PROFILES
10
894.524
20
1127.262
30
0
40
1.700
0
CIRCLE
8
INTERIOR_PROFILES
10
951.524
20
875.262
30
0
40
1.700
0
CIRCLE
8
INTERIOR_PROFILES
10
815.524
20
939.262
30
0
40
1.700
0
CIRCLE
8
INTERIOR_PROFILES
10
1247.524
20
971.262
30
0
40
1.700
0
CIRCLE
8
INTERIOR_PROFILES
10
1334.524
20
1127.262
30
0
40
1.700
0
CIRCLE
8
INTERIOR_PROFILES
10
951.524
20
811.262
30
0
40
1.700
0
CIRCLE
8
INTERIOR_PROFILES
10
864.524
20
1127.262
30
0
40
1.700
0
CIRCLE
8
INTERIOR_PROFILES
10
951.524
20
619.262
30
0
40
1.700
0
CIRCLE
8
INTERIOR_PROFILES
10
815.524
20
907.262
30
0
40
1.700
0
CIRCLE
8
INTERIOR_PROFILES
10
1247.524
20
843.262
30
0
40
1.700
0
CIRCLE
8
INTERIOR_PROFILES
10
1247.524
20
811.262
30
0
40
1.700
0
CIRCLE
8
INTERIOR_PROFILES
10
815.524
20
1003.262
30
0
40
1.700
0
CIRCLE
8
INTERIOR_PROFILES
10
1267.024
20
1127.262
30
0
40
1.700
0
CIRCLE
8
INTERIOR_PROFILES
10
1383.524
20
779.262
30
0
40
1.700
0
CIRCLE
8
INTERIOR_PROFILES
10
1383.524
20
811.262
30
0
40
1.700
0
CIRCLE
8
INTERIOR_PROFILES
10
1383.524
20
939.262
30
0
40
1.700
0
CIRCLE
8
INTERIOR_PROFILES
10
815.524
20
779.262
30
0
40
1.700
0
CIRCLE
8
INTERIOR_PROFILES
10
1383.524
20
971.262
30
0
40
1.700
0
CIRCLE
8
INTERIOR_PROFILES
10
815.524
20
811.262
30
0
40
1.700
0
CIRCLE
8
INTERIOR_PROFILES
10
1383.524
20
907.262
30
0
40
1.700
0
CIRCLE
8
INTERIOR_PROFILES
10
815.524
20
715.262
30
0
40
1.700
0
CIRCLE
8
INTERIOR_PROFILES
10
1383.524
20
1035.262
30
0
40
1.700
0
CIRCLE
8
INTERIOR_PROFILES
10
1383.524
20
651.262
30
0
40
1.700
0
CIRCLE
8
INTERIOR_PROFILES
10
1454.524
20
1087.262
30
0
40
1.700
0
CIRCLE
8
INTERIOR_PROFILES
10
815.524
20
683.262
30
0
40
1.700
0
CIRCLE
8
INTERIOR_PROFILES
10
1383.524
20
843.262
30
0
40
1.700
0
CIRCLE
8
INTERIOR_PROFILES
10
1488.786
20
1065.262
30
0
40
6.500
0
CIRCLE
8
INTERIOR_PROFILES
10
744.524
20
1087.262
30
0
40
1.700
0
CIRCLE
8
INTERIOR_PROFILES
10
1383.524
20
715.262
30
0
40
1.700
0
CIRCLE
8
INTERIOR_PROFILES
10
815.524
20
1067.262
30
0
40
1.700
0
CIRCLE
8
INTERIOR_PROFILES
10
1488.786
20
1127.262
30
0
40
1.700
0
CIRCLE
8
INTERIOR_PROFILES
10
1488.786
20
749.262
30
0
40
1.700
0
CIRCLE
8
INTERIOR_PROFILES
10
1383.524
20
747.262
30
0
40
1.700
0
CIRCLE
8
INTERIOR_PROFILES
10
1488.786
20
1105.262
30
0
40
1.700
0
CIRCLE
8
INTERIOR_PROFILES
10
1383.524
20
683.262
30
0
40
1.700
0
CIRCLE
8
INTERIOR_PROFILES
10
1383.524
20
1003.262
30
0
40
1.700
0
CIRCLE
8
INTERIOR_PROFILES
10
815.524
20
651.262
30
0
40
1.700
0
CIRCLE
8
INTERIOR_PROFILES
10
815.524
20
1035.262
30
0
40
1.700
0
CIRCLE
8
INTERIOR_PROFILES
10
815.524
20
843.262
30
0
40
1.700
0
CIRCLE
8
INTERIOR_PROFILES
10
815.524
20
875.262
30
0
40
1.700
0
CIRCLE
8
INTERIOR_PROFILES
10
722.524
20
1087.262
30
0
40
1.700
0
CIRCLE
8
INTERIOR_PROFILES
10
1476.524
20
1087.262
30
0
40
1.700
0
CIRCLE
8
INTERIOR_PROFILES
10
1383.524
20
875.262
30
0
40
1.700
0
CIRCLE
8
INTERIOR_PROFILES
10
815.524
20
619.262
30
0
40
1.700
0
CIRCLE
8
INTERIOR_PROFILES
10
1383.524
20
619.262
30
0
40
1.700
0
CIRCLE
8
INTERIOR_PROFILES
10
815.524
20
747.262
30
0
40
1.700
0
CIRCLE
8
INTERIOR_PROFILES
10
815.524
20
971.262
30
0
40
1.700
0
CIRCLE
8
INTERIOR_PROFILES
10
1383.524
20
1067.262
30
0
40
1.700
0
CIRCLE
8
INTERIOR_PROFILES
10
1429.524
20
603.262
30
0
40
1.700
0
CIRCLE
8
INTERIOR_PROFILES
10
769.524
20
603.262
30
0
40
1.700
0
CIRCLE
8
INTERIOR_PROFILES
10
1488.786
20
880.262
30
0
40
6.500
0
CIRCLE
8
INTERIOR_PROFILES
10
1488.786
20
603.262
30
0
40
1.700
0
CIRCLE
8
INTERIOR_PROFILES
10
1488.786
20
613.262
30
0
40
3.250
0
CIRCLE
8
INTERIOR_PROFILES
10
1488.786
20
629.262
30
0
40
1.700
0
CIRCLE
8
INTERIOR_PROFILES
10
1488.786
20
826.262
30
0
40
3.250
0
CIRCLE
8
INTERIOR_PROFILES
10
1488.786
20
1049.262
30
0
40
3.250
0
CIRCLE
8
INTERIOR_PROFILES
10
1488.786
20
858.262
30
0
40
3.250
0
CIRCLE
8
INTERIOR_PROFILES
10
1488.786
20
645.262
30
0
40
3.250
0
CIRCLE
8
INTERIOR_PROFILES
10
1488.786
20
927.262
30
0
40
1.700
0
CIRCLE
8
INTERIOR_PROFILES
10
1488.786
20
708.762
30
0
40
6.500
0
CIRCLE
8
INTERIOR_PROFILES
10
1488.786
20
1033.262
30
0
40
1.700
0
CIRCLE
8
INTERIOR_PROFILES
10
1488.786
20
1081.262
30
0
40
3.250
0
TEXT
8
PART_LABELS
10
2699.500
20
832.000
30
0
40
50.000
1
FN0F00-070540
72
1
73
2
11
2699.500
21
832.000
31
0
0
LWPOLYLINE
8
OUTER_PROFILES
90
18
70
1
10
3054.524
20
1099.191
10
3049.029
20
1104.686
42
-0.414214
10
3049.029
20
1106.100
10
3054.453
20
1111.524
10
2344.071
20
1111.524
10
2349.495
20
1106.100
42
-0.414214
10
2349.495
20
1104.686
10
2344.000
20
1099.191
10
2344.000
20
1095.333
10
2349.495
20
1089.838
42
-0.414214
10
2349.495
20
1088.424
10
2344.000
20
1082.929
10
2344.000
20
552.000
10
3054.524
20
552.000
10
3054.524
20
1082.929
10
3049.029
20
1088.424
42
-0.414214
10
3049.029
20
1089.838
10
3054.524
20
1095.333
0
CIRCLE
8
INTERIOR_PROFILES
10
2358.262
20
597.000
30
0
40
1.700
0
CIRCLE
8
INTERIOR_PROFILES
10
2347.000
20
1059.000
30
0
40
1.700
0
CIRCLE
8
INTERIOR_PROFILES
10
2358.262
20
1019.000
30
0
40
6.500
0
CIRCLE
8
INTERIOR_PROFILES
10
3040.262
20
1019.000
30
0
40
6.500
0
CIRCLE
8
INTERIOR_PROFILES
10
2358.262
20
1081.000
30
0
40
1.700
0
CIRCLE
8
INTERIOR_PROFILES
10
2358.262
20
557.000
30
0
40
1.700
0
CIRCLE
8
INTERIOR_PROFILES
10
2358.262
20
1059.000
30
0
40
1.700
0
CIRCLE
8
INTERIOR_PROFILES
10
2799.262
20
557.000
30
0
40
1.700
0
CIRCLE
8
INTERIOR_PROFILES
10
2968.262
20
557.000
30
0
40
1.700
0
CIRCLE
8
INTERIOR_PROFILES
10
3040.262
20
703.000
30
0
40
1.700
0
CIRCLE
8
INTERIOR_PROFILES
10
3040.262
20
1003.000
30
0
40
1.700
0
CIRCLE
8
INTERIOR_PROFILES
10
2499.262
20
557.000
30
0
40
1.700
0
CIRCLE
8
INTERIOR_PROFILES
10
2358.262
20
703.000
30
0
40
1.700
0
CIRCLE
8
INTERIOR_PROFILES
10
3040.262
20
1081.000
30
0
40
1.700
0
CIRCLE
8
INTERIOR_PROFILES
10
3040.262
20
780.000
30
0
40
1.700
0
CIRCLE
8
INTERIOR_PROFILES
10
2358.262
20
780.000
30
0
40
1.700
0
CIRCLE
8
INTERIOR_PROFILES
10
3040.262
20
1059.000
30
0
40
1.700
0
CIRCLE
8
INTERIOR_PROFILES
10
2384.262
20
557.000
30
0
40
1.700
0
CIRCLE
8
INTERIOR_PROFILES
10
3040.262
20
557.000
30
0
40
1.700
0
CIRCLE
8
INTERIOR_PROFILES
10
2347.000
20
881.000
30
0
40
1.700
0
CIRCLE
8
INTERIOR_PROFILES
10
2358.262
20
1003.000
30
0
40
1.700
0
CIRCLE
8
INTERIOR_PROFILES
10
3040.262
20
812.000
30
0
40
1.700
0
CIRCLE
8
INTERIOR_PROFILES
10
2347.000
20
703.000
30
0
40
1.700
0
CIRCLE
8
INTERIOR_PROFILES
10
3040.262
20
1035.000
30
0
40
1.700
0
CIRCLE
8
INTERIOR_PROFILES
10
2430.262
20
557.000
30
0
40
1.700
0
CIRCLE
8
INTERIOR_PROFILES
10
3040.262
20
565.000
30
0
40
1.700
0
CIRCLE
8
INTERIOR_PROFILES
10
2358.262
20
812.000
30
0
40
1.700
0
CIRCLE
8
INTERIOR_PROFILES
10
2599.262
20
557.000
30
0
40
1.700
0
CIRCLE
8
INTERIOR_PROFILES
10
2899.262
20
557.000
30
0
40
1.700
0
CIRCLE
8
INTERIOR_PROFILES
10
2699.262
20
557.000
30
0
40
1.700
0
CIRCLE
8
INTERIOR_PROFILES
10
3051.524
20
881.000
30
0
40
1.700
0
CIRCLE
8
INTERIOR_PROFILES
10
2399.262
20
557.000
30
0
40
1.700
0
CIRCLE
8
INTERIOR_PROFILES
10
3014.262
20
557.000
30
0
40
1.700
0
CIRCLE
8
INTERIOR_PROFILES
10
3040.262
20
597.000
30
0
40
1.700
0
CIRCLE
8
INTERIOR_PROFILES
10
2358.262
20
565.000
30
0
40
1.700
0
CIRCLE
8
INTERIOR_PROFILES
10
2358.262
20
881.000
30
0
40
1.700
0
CIRCLE
8
INTERIOR_PROFILES
10
2358.262
20
1035.000
30
0
40
1.700
0
CIRCLE
8
INTERIOR_PROFILES
10
3051.524
20
703.000
30
0
40
1.700
0
CIRCLE
8
INTERIOR_PROFILES
10
3040.262
20
881.000
30
0
40
1.700
0
CIRCLE
8
INTERIOR_PROFILES
10
3051.524
20
1059.000
30
0
40
1.700
0
TEXT
8
PART_LABELS
10
299.500
20
1125.000
30
0
40
50.000
1
SHRUTH-060000
72
1
73
2
11
299.500
21
1125.000
31
0
0
LWPOLYLINE
8
OUTER_PROFILES
90
40
70
1
10
17.495
20
1401.448
42
0.414214
10
17.495
20
1402.862
10
5.071
20
1415.286
10
19.262
20
1415.286
10
19.262
20
1417.548
10
19.262
20
1424.548
10
19.262
20
1426.810
42
0.414214
10
29.262
20
1436.810
10
29.262
20
1458.072
10
569.262
20
1458.072
10
569.262
20
1436.810
42
0.414214
10
579.262
20
1426.810
10
579.262
20
1424.548
10
579.262
20
1417.548
10
579.262
20
1415.286
10
593.453
20
1415.286
10
581.029
20
1402.862
42
0.414214
10
581.029
20
1401.448
10
593.524
20
1388.953
10
593.524
20
1354.124
10
588.053
20
1354.124
10
581.029
20
1347.100
42
0.414214
10
581.029
20
1345.686
10
588.024
20
1338.691
10
588.024
20
1333.191
10
598.524
20
1333.191
10
598.524
20
811.262
10
579.262
20
811.262
10
579.262
20
792.000
10
19.262
20
792.000
10
19.262
20
811.262
10
0.000
20
811.262
10
0.000
20
1333.191
10
10.500
20
1333.191
10
10.500
20
1338.691
10
17.495
20
1345.686
42
0.414214
10
17.495
20
1347.100
10
10.471
20
1354.124
10
5.000
20
1354.124
10
5.000
20
1388.953
0
CIRCLE
8
INTERIOR_PROFILES
10
13.000
20
1182.262
30
0
40
1.700
0
CIRCLE
8
INTERIOR_PROFILES
10
10.000
20
1361.524
30
0
40
1.700
0
CIRCLE
8
INTERIOR_PROFILES
10
3.000
20
1054.262
30
0
40
1.700
0
CIRCLE
8
INTERIOR_PROFILES
10
13.000
20
926.262
30
0
40
1.700
0
CIRCLE
8
INTERIOR_PROFILES
10
10.000
20
1356.524
30
0
40
1.700
0
CIRCLE
8
INTERIOR_PROFILES
10
8.000
20
1182.262
30
0
40
1.700
0
CIRCLE
8
INTERIOR_PROFILES
10
3.000
20
1310.262
30
0
40
1.700
0
CIRCLE
8
INTERIOR_PROFILES
10
3.000
20
1182.262
30
0
40
1.700
0
CIRCLE
8
INTERIOR_PROFILES
10
595.524
20
926.262
30
0
40
1.700
0
CIRCLE
8
INTERIOR_PROFILES
10
149.262
20
1436.810
30
0
40
1.700
0
CIRCLE
8
INTERIOR_PROFILES
10
74.262
20
800.000
30
0
40
1.700
0
CIRCLE
8
INTERIOR_PROFILES
10
13.000
20
1310.262
30
0
40
1.700
0
CIRCLE
8
INTERIOR_PROFILES
10
13.000
20
1054.262
30
0
40
1.700
0
CIRCLE
8
INTERIOR_PROFILES
10
8.000
20
926.262
30
0
40
1.700
0
CIRCLE
8
INTERIOR_PROFILES
10
8.000
20
1054.262
30
0
40
1.700
0
CIRCLE
8
INTERIOR_PROFILES
10
8.000
20
1310.262
30
0
40
1.700
0
CIRCLE
8
INTERIOR_PROFILES
10
449.262
20
1436.810
30
0
40
1.700
0
CIRCLE
8
INTERIOR_PROFILES
10
588.524
20
1388.524
30
0
40
1.700
0
CIRCLE
8
INTERIOR_PROFILES
10
10.000
20
1388.524
30
0
40
1.700
0
CIRCLE
8
INTERIOR_PROFILES
10
299.262
20
1393.024
30
0
40
5.000
0
CIRCLE
8
INTERIOR_PROFILES
10
588.524
20
1361.524
30
0
40
1.700
0
CIRCLE
8
INTERIOR_PROFILES
10
3.000
20
926.262
30
0
40
1.700
0
CIRCLE
8
INTERIOR_PROFILES
10
13.000
20
1338.262
30
0
40
1.700
0
CIRCLE
8
INTERIOR_PROFILES
10
299.262
20
800.000
30
0
40
1.700
0
CIRCLE
8
INTERIOR_PROFILES
10
588.524
20
1356.524
30
0
40
1.700
0
CIRCLE
8
INTERIOR_PROFILES
10
524.262
20
800.000
30
0
40
1.700
0
CIRCLE
8
INTERIOR_PROFILES
10
585.524
20
1338.262
30
0
40
1.700
0
CIRCLE
8
INTERIOR_PROFILES
10
595.524
20
1310.262
30
0
40
1.700
0
CIRCLE
8
INTERIOR_PROFILES
10
595.524
20
1054.262
30
0
40
1.700
0
CIRCLE
8
INTERIOR_PROFILES
10
585.524
20
1310.262
30
0
40
1.700
0
CIRCLE
8
INTERIOR_PROFILES
10
585.524
20
926.262
30
0
40
1.700
0
CIRCLE
8
INTERIOR_PROFILES
10
585.524
20
1182.262
30
0
40
1.700
0
CIRCLE
8
INTERIOR_PROFILES
10
585.524
20
1054.262
30
0
40
1.700
0
CIRCLE
8
INTERIOR_PROFILES
10
595.524
20
1182.262
30
0
40
1.700
0
CIRCLE
8
INTERIOR_PROFILES
10
590.524
20
926.262
30
0
40
1.700
0
CIRCLE
8
INTERIOR_PROFILES
10
590.524
20
1054.262
30
0
40
1.700
0
CIRCLE
8
INTERIOR_PROFILES
10
590.524
20
1182.262
30
0
40
1.700
0
CIRCLE
8
INTERIOR_PROFILES
10
590.524
20
1310.262
30
0
40
1.700
0
TEXT
8
PART_LABELS
10
2612.260
20
273.025
30
0
40
50.000
1
DSB0F0-060050
72
1
73
2
11
2612.260
21
273.025
31
0
0
CIRCLE
8
INTERIOR_PROFILES
10
2418.112
20
538.548
30
0
40
2.500
0
CIRCLE
8
INTERIOR_PROFILES
10
2834.112
20
7.500
30
0
40
2.500
0
CIRCLE
8
INTERIOR_PROFILES
10
2418.112
20
7.500
30
0
40
2.500
0
CIRCLE
8
INTERIOR_PROFILES
10
2564.112
20
538.548
30
0
40
2.500
0
CIRCLE
8
INTERIOR_PROFILES
10
2368.000
20
473.024
30
0
40
1.700
0
CIRCLE
8
INTERIOR_PROFILES
10
2547.412
20
7.500
30
0
40
2.500
0
CIRCLE
8
INTERIOR_PROFILES
10
2806.412
20
7.500
30
0
40
2.500
0
CIRCLE
8
INTERIOR_PROFILES
10
2856.524
20
473.024
30
0
40
1.700
0
CIRCLE
8
INTERIOR_PROFILES
10
2660.412
20
538.548
30
0
40
2.500
0
CIRCLE
8
INTERIOR_PROFILES
10
2547.412
20
538.548
30
0
40
2.500
0
CIRCLE
8
INTERIOR_PROFILES
10
2856.524
20
73.024
30
0
40
1.700
0
CIRCLE
8
INTERIOR_PROFILES
10
2660.412
20
7.500
30
0
40
2.500
0
CIRCLE
8
INTERIOR_PROFILES
10
2834.112
20
538.548
30
0
40
2.500
0
CIRCLE
8
INTERIOR_PROFILES
10
2856.524
20
273.024
30
0
40
1.700
0
CIRCLE
8
INTERIOR_PROFILES
10
2806.412
20
538.548
30
0
40
2.500
0
CIRCLE
8
INTERIOR_PROFILES
10
2390.412
20
538.548
30
0
40
2.500
0
CIRCLE
8
INTERIOR_PROFILES
10
2368.000
20
273.024
30
0
40
1.700
0
CIRCLE
8
INTERIOR_PROFILES
10
2677.112
20
7.500
30
0
40
2.500
0
CIRCLE
8
INTERIOR_PROFILES
10
2564.112
20
7.500
30
0
40
2.500
0
CIRCLE
8
INTERIOR_PROFILES
10
2368.000
20
73.024
30
0
40
1.700
0
CIRCLE
8
INTERIOR_PROFILES
10
2390.412
20
7.500
30
0
40
2.500
0
CIRCLE
8
INTERIOR_PROFILES
10
2677.112
20
538.548
30
0
40
2.500
0
TEXT
8
PART_LABELS
10
2681.025
20
1274.340
30
0
40
50.000
1
DSV100-070030-Ruth
72
1
73
2
11
2681.025
21
1274.340
31
0
0
LINE
8
OUTER_PROFILES
10
3048.048
20
1391.453
30
0
11
3045.786
21
1394.352
31
0
0
LINE
8
OUTER_PROFILES
10
3045.786
20
1394.352
30
0
11
3031.200
21
1408.938
31
0
0
LINE
8
OUTER_PROFILES
10
3031.200
20
1408.938
30
0
11
3028.424
21
1410.917
31
0
0
LINE
8
OUTER_PROFILES
10
3028.424
20
1432.258
30
0
11
3027.974
21
1433.544
31
0
0
LINE
8
OUTER_PROFILES
10
3027.974
20
1433.544
30
0
11
3027.453
21
1434.675
31
0
0
LINE
8
OUTER_PROFILES
10
3027.453
20
1434.675
30
0
11
3025.453
21
1436.675
31
0
0
LINE
8
OUTER_PROFILES
10
2336.595
20
1436.675
30
0
11
2334.595
21
1434.675
31
0
0
LINE
8
OUTER_PROFILES
10
2334.595
20
1434.675
30
0
11
2334.074
21
1433.544
31
0
0
LINE
8
OUTER_PROFILES
10
2334.074
20
1433.544
30
0
11
2333.624
21
1432.258
31
0
0
LINE
8
OUTER_PROFILES
10
2333.624
20
1410.917
30
0
11
2330.848
21
1408.938
31
0
0
LINE
8
OUTER_PROFILES
10
2330.848
20
1408.938
30
0
11
2316.262
21
1394.352
31
0
0
LINE
8
OUTER_PROFILES
10
2316.262
20
1394.352
30
0
11
2314.000
21
1391.453
31
0
0
LINE
8
OUTER_PROFILES
10
2314.000
20
1391.453
30
0
11
2312.000
21
1389.453
31
0
0
LINE
8
OUTER_PROFILES
10
2312.000
20
1136.595
30
0
11
2314.000
21
1134.595
31
0
0
LINE
8
OUTER_PROFILES
10
2314.000
20
1134.595
30
0
11
2316.262
21
1132.524
31
0
0
LINE
8
OUTER_PROFILES
10
2332.262
20
1132.524
30
0
11
2333.624
21
1132.262
31
0
0
LINE
8
OUTER_PROFILES
10
2333.624
20
1116.262
30
0
11
2334.595
21
1114.000
31
0
0
LINE
8
OUTER_PROFILES
10
2334.595
20
1114.000
30
0
11
2336.595
21
1112.000
31
0
0
LINE
8
OUTER_PROFILES
10
3025.453
20
1112.000
30
0
11
3027.453
21
1114.000
31
0
0
LINE
8
OUTER_PROFILES
10
3027.453
20
1114.000
30
0
11
3028.424
21
1116.262
31
0
0
LINE
8
OUTER_PROFILES
10
3028.424
20
1132.262
30
0
11
3029.786
21
1132.524
31
0
0
LINE
8
OUTER_PROFILES
10
3045.786
20
1132.524
30
0
11
3048.048
21
1134.595
31
0
0
LINE
8
OUTER_PROFILES
10
3048.048
20
1134.595
30
0
11
3050.048
21
1136.595
31
0
0
LINE
8
OUTER_PROFILES
10
3050.048
20
1389.453
30
0
11
3048.048
21
1391.453
31
0
0
TEXT
8
PART_LABELS
10
1857.025
20
1294.340
30
0
40
50.000
1
DSV100-070020-Ruth
72
1
73
2
11
1857.025
21
1294.340
31
0
0
LINE
8
OUTER_PROFILES
10
1490.000
20
1174.595
30
0
11
1492.262
21
1172.524
31
0
0
LINE
8
OUTER_PROFILES
10
1508.262
20
1172.524
30
0
11
1509.624
21
1172.262
31
0
0
LINE
8
OUTER_PROFILES
10
1509.624
20
1156.262
30
0
11
1510.595
21
1154.000
31
0
0
LINE
8
OUTER_PROFILES
10
1510.595
20
1154.000
30
0
11
1512.595
21
1152.000
31
0
0
LINE
8
OUTER_PROFILES
10
2201.453
20
1152.000
30
0
11
2203.453
21
1154.000
31
0
0
LINE
8
OUTER_PROFILES
10
2203.453
20
1154.000
30
0
11
2204.424
21
1156.262
31
0
0
LINE
8
OUTER_PROFILES
10
2204.424
20
1172.262
30
0
11
2205.786
21
1172.524
31
0
0
LINE
8
OUTER_PROFILES
10
2221.786
20
1172.524
30
0
11
2224.048
21
1174.595
31
0
0
LINE
8
OUTER_PROFILES
10
2224.048
20
1174.595
30
0
11
2226.048
21
1176.595
31
0
0
LINE
8
OUTER_PROFILES
10
2226.048
20
1389.453
30
0
11
2224.048
21
1391.453
31
0
0
LINE
8
OUTER_PROFILES
10
2224.048
20
1391.453
30
0
11
2221.786
21
1394.352
31
0
0
LINE
8
OUTER_PROFILES
10
2221.786
20
1394.352
30
0
11
2207.200
21
1408.938
31
0
0
LINE
8
OUTER_PROFILES
10
2207.200
20
1408.938
30
0
11
2204.424
21
1410.917
31
0
0
LINE
8
OUTER_PROFILES
10
2204.424
20
1432.258
30
0
11
2203.974
21
1433.544
31
0
0
LINE
8
OUTER_PROFILES
10
2203.974
20
1433.544
30
0
11
2203.453
21
1434.675
31
0
0
LINE
8
OUTER_PROFILES
10
2203.453
20
1434.675
30
0
11
2201.453
21
1436.675
31
0
0
LINE
8
OUTER_PROFILES
10
1512.595
20
1436.675
30
0
11
1510.595
21
1434.675
31
0
0
LINE
8
OUTER_PROFILES
10
1510.595
20
1434.675
30
0
11
1510.074
21
1433.544
31
0
0
LINE
8
OUTER_PROFILES
10
1510.074
20
1433.544
30
0
11
1509.624
21
1432.258
31
0
0
LINE
8
OUTER_PROFILES
10
1509.624
20
1410.917
30
0
11
1506.848
21
1408.938
31
0
0
LINE
8
OUTER_PROFILES
10
1506.848
20
1408.938
30
0
11
1492.262
21
1394.352
31
0
0
LINE
8
OUTER_PROFILES
10
1492.262
20
1394.352
30
0
11
1490.000
21
1391.453
31
0
0
LINE
8
OUTER_PROFILES
10
1490.000
20
1391.453
30
0
11
1488.000
21
1389.453
31
0
0
LINE
8
OUTER_PROFILES
10
1488.000
20
1176.595
30
0
11
1490.000
21
1174.595
31
0
0
TEXT
8
PART_LABELS
10
969.025
20
1302.340
30
0
40
50.000
1
DSV100-070020-Ruth
72
1
73
2
11
969.025
21
1302.340
31
0
0
LINE
8
OUTER_PROFILES
10
602.000
20
1182.595
30
0
11
604.262
21
1180.524
31
0
0
LINE
8
OUTER_PROFILES
10
620.262
20
1180.524
30
0
11
621.624
21
1180.262
31
0
0
LINE
8
OUTER_PROFILES
10
621.624
20
1164.262
30
0
11
622.595
21
1162.000
31
0
0
LINE
8
OUTER_PROFILES
10
622.595
20
1162.000
30
0
11
624.595
21
1160.000
31
0
0
LINE
8
OUTER_PROFILES
10
1313.453
20
1160.000
30
0
11
1315.453
21
1162.000
31
0
0
LINE
8
OUTER_PROFILES
10
1315.453
20
1162.000
30
0
11
1316.424
21
1164.262
31
0
0
LINE
8
OUTER_PROFILES
10
1316.424
20
1180.262
30
0
11
1317.786
21
1180.524
31
0
0
LINE
8
OUTER_PROFILES
10
1333.786
20
1180.524
30
0
11
1336.048
21
1182.595
31
0
0
LINE
8
OUTER_PROFILES
10
1336.048
20
1182.595
30
0
11
1338.048
21
1184.595
31
0
0
LINE
8
OUTER_PROFILES
10
1338.048
20
1397.453
30
0
11
1336.048
21
1399.453
31
0
0
LINE
8
OUTER_PROFILES
10
1336.048
20
1399.453
30
0
11
1333.786
21
1402.352
31
0
0
LINE
8
OUTER_PROFILES
10
1333.786
20
1402.352
30
0
11
1319.200
21
1416.938
31
0
0
LINE
8
OUTER_PROFILES
10
1319.200
20
1416.938
30
0
11
1316.424
21
1418.917
31
0
0
LINE
8
OUTER_PROFILES
10
1316.424
20
1440.258
30
0
11
1315.974
21
1441.544
31
0
0
LINE
8
OUTER_PROFILES
10
1315.974
20
1441.544
30
0
11
1315.453
21
1442.675
31
0
0
LINE
8
OUTER_PROFILES
10
1315.453
20
1442.675
30
0
11
1313.453
21
1444.675
31
0
0
LINE
8
OUTER_PROFILES
10
624.595
20
1444.675
30
0
11
622.595
21
1442.675
31
0
0
LINE
8
OUTER_PROFILES
10
622.595
20
1442.675
30
0
11
622.074
21
1441.544
31
0
0
LINE
8
OUTER_PROFILES
10
622.074
20
1441.544
30
0
11
621.624
21
1440.258
31
0
0
LINE
8
OUTER_PROFILES
10
621.624
20
1418.917
30
0
11
618.848
21
1416.938
31
0
0
LINE
8
OUTER_PROFILES
10
618.848
20
1416.938
30
0
11
604.262
21
1402.352
31
0
0
LINE
8
OUTER_PROFILES
10
604.262
20
1402.352
30
0
11
602.000
21
1399.453
31
0
0
LINE
8
OUTER_PROFILES
10
602.000
20
1399.453
30
0
11
600.000
21
1397.453
31
0
0
LINE
8
OUTER_PROFILES
10
600.000
20
1184.595
30
0
11
602.000
21
1182.595
31
0
0
TEXT
8
PART_LABELS
10
1790.525
20
1476.760
30
0
40
18.380
1
1CVDVL-006010
72
1
73
2
11
1790.525
21
1476.760
31
0
0
LWPOLYLINE
8
OUTER_PROFILES
90
22
70
1
10
1322.314
20
1441.975
10
1325.759
20
1445.420
42
0.414214
10
1325.759
20
1446.834
10
1322.335
20
1450.258
10
1325.759
20
1453.682
42
0.414214
10
1325.759
20
1455.096
10
1322.314
20
1458.541
10
1322.314
20
1460.620
10
1312.002
20
1460.620
10
1312.002
20
1513.520
10
2269.050
20
1513.520
10
2269.050
20
1460.620
10
2258.738
20
1460.620
10
2258.738
20
1458.541
10
2255.293
20
1455.096
42
0.414214
10
2255.293
20
1453.682
10
2258.717
20
1450.258
10
2255.293
20
1446.834
42
0.414214
10
2255.293
20
1445.420
10
2258.738
20
1441.975
10
2258.738
20
1439.996
10
1322.314
20
1439.996
0
CIRCLE
8
INTERIOR_PROFILES
10
1855.526
20
1487.520
30
0
40
1.700
0
CIRCLE
8
INTERIOR_PROFILES
10
1439.526
20
1509.520
30
0
40
1.700
0
CIRCLE
8
INTERIOR_PROFILES
10
1825.526
20
1487.520
30
0
40
1.700
0
CIRCLE
8
INTERIOR_PROFILES
10
1525.526
20
1487.520
30
0
40
1.700
0
CIRCLE
8
INTERIOR_PROFILES
10
1367.526
20
1484.520
30
0
40
1.700
0
CIRCLE
8
INTERIOR_PROFILES
10
2213.526
20
1509.520
30
0
40
1.700
0
CIRCLE
8
INTERIOR_PROFILES
10
1925.526
20
1487.520
30
0
40
1.700
0
CIRCLE
8
INTERIOR_PROFILES
10
2055.526
20
1487.520
30
0
40
1.700
0
CIRCLE
8
INTERIOR_PROFILES
10
1655.526
20
1487.520
30
0
40
1.700
0
CIRCLE
8
INTERIOR_PROFILES
10
1342.526
20
1484.520
30
0
40
1.700
0
CIRCLE
8
INTERIOR_PROFILES
10
1455.526
20
1487.520
30
0
40
1.700
0
CIRCLE
8
INTERIOR_PROFILES
10
1755.526
20
1487.520
30
0
40
1.700
0
CIRCLE
8
INTERIOR_PROFILES
10
1725.526
20
1487.520
30
0
40
1.700
0
CIRCLE
8
INTERIOR_PROFILES
10
2125.526
20
1487.520
30
0
40
1.700
0
CIRCLE
8
INTERIOR_PROFILES
10
1367.526
20
1509.520
30
0
40
1.700
0
CIRCLE
8
INTERIOR_PROFILES
10
2141.526
20
1509.520
30
0
40
1.700
0
TEXT
8
PART_LABELS
10
408.500
20
1494.500
30
0
40
15.250
1
TS1BHH-000000-Ruth
72
1
73
2
11
408.500
21
1494.500
31
0
0
CIRCLE
8
OUTER_PROFILES
10
812.524
20
1518.024
30
0
40
1.700
0
CIRCLE
8
OUTER_PROFILES
10
799.262
20
1518.024
30
0
40
1.700
0
CIRCLE
8
OUTER_PROFILES
10
773.262
20
1518.024
30
0
40
1.700
0
CIRCLE
8
OUTER_PROFILES
10
43.262
20
1518.024
30
0
40
1.700
0
CIRCLE
8
OUTER_PROFILES
10
17.262
20
1518.024
30
0
40
1.700
0
CIRCLE
8
OUTER_PROFILES
10
89.262
20
1518.024
30
0
40
1.700
0
CIRCLE
8
OUTER_PROFILES
10
727.262
20
1518.024
30
0
40
1.700
0
CIRCLE
8
OUTER_PROFILES
10
17.262
20
1476.262
30
0
40
1.700
0
CIRCLE
8
OUTER_PROFILES
10
799.262
20
1501.262
30
0
40
1.700
0
CIRCLE
8
OUTER_PROFILES
10
17.262
20
1501.262
30
0
40
1.700
0
CIRCLE
8
OUTER_PROFILES
10
799.262
20
1476.262
30
0
40
1.700
0
CIRCLE
8
OUTER_PROFILES
10
4.000
20
1518.024
30
0
40
1.700
0
TEXT
8
PART_LABELS
10
2572.000
20
1464.000
30
0
40
15.000
1
FN3BLA-070000
72
1
73
2
11
2572.000
21
1464.000
31
0
0
CIRCLE
8
INTERIOR_PROFILES
10
2297.000
20
1449.500
30
0
40
1.250
0
CIRCLE
8
INTERIOR_PROFILES
10
2297.000
20
1482.262
30
0
40
1.700
0
CIRCLE
8
INTERIOR_PROFILES
10
2847.000
20
1449.500
30
0
40
1.250
0
CIRCLE
8
INTERIOR_PROFILES
10
2572.000
20
1482.262
30
0
40
1.700
0
CIRCLE
8
INTERIOR_PROFILES
10
2572.000
20
1449.500
30
0
40
1.250
0
CIRCLE
8
INTERIOR_PROFILES
10
2709.500
20
1449.500
30
0
40
1.250
0
CIRCLE
8
INTERIOR_PROFILES
10
2434.500
20
1449.500
30
0
40
1.250
0
CIRCLE
8
INTERIOR_PROFILES
10
2847.000
20
1482.262
30
0
40
1.700
0
TEXT
8
PART_LABELS
10
2933.000
20
24.500
30
0
40
15.000
1
TS2TRX-000000
72
1
73
2
11
2933.000
21
24.500
31
0
0
LINE
8
OUTER_PROFILES
10
2993.622
20
9.899
30
0
11
2954.095
21
49.426
31
0
0
LINE
8
OUTER_PROFILES
10
2911.527
20
49.426
30
0
11
2872.000
21
9.899
31
0
0
LINE
8
OUTER_PROFILES
10
2872.000
20
9.899
30
0
11
2881.899
21
0.000
31
0
0
LINE
8
OUTER_PROFILES
10
2983.723
20
0.000
30
0
11
2993.622
21
9.899
31
0
0
CIRCLE
8
INTERIOR_PROFILES
10
2951.196
20
42.426
30
0
40
1.700
0
CIRCLE
8
INTERIOR_PROFILES
10
2881.899
20
9.899
30
0
40
1.700
0
CIRCLE
8
INTERIOR_PROFILES
10
2983.723
20
9.899
30
0
40
1.700
0
CIRCLE
8
INTERIOR_PROFILES
10
2914.426
20
42.426
30
0
40
1.700
0
TEXT
8
PART_LABELS
10
3024.500
20
61.000
30
0
40
15.000
1
TS2TRX-000000
72
1
73
2
11
3024.500
21
61.000
31
0
0
LINE
8
OUTER_PROFILES
10
3039.101
20
121.622
30
0
11
2999.574
21
82.095
31
0
0
LINE
8
OUTER_PROFILES
10
2999.574
20
39.527
30
0
11
3039.101
21
0.000
31
0
0
LINE
8
OUTER_PROFILES
10
3039.101
20
0.000
30
0
11
3049.000
21
9.899
31
0
0
LINE
8
OUTER_PROFILES
10
3049.000
20
111.723
30
0
11
3039.101
21
121.622
31
0
0
CIRCLE
8
INTERIOR_PROFILES
10
3006.574
20
79.196
30
0
40
1.700
0
CIRCLE
8
INTERIOR_PROFILES
10
3039.101
20
9.899
30
0
40
1.700
0
CIRCLE
8
INTERIOR_PROFILES
10
3039.101
20
111.723
30
0
40
1.700
0
CIRCLE
8
INTERIOR_PROFILES
10
3006.574
20
42.426
30
0
40
1.700
0
TEXT
8
PART_LABELS
10
2896.500
20
101.000
30
0
40
15.000
1
TS2TRX-000000
72
1
73
2
11
2896.500
21
101.000
31
0
0
LINE
8
OUTER_PROFILES
10
2881.899
20
40.378
30
0
11
2921.426
21
79.905
31
0
0
LINE
8
OUTER_PROFILES
10
2921.426
20
122.473
30
0
11
2881.899
21
162.000
31
0
0
LINE
8
OUTER_PROFILES
10
2881.899
20
162.000
30
0
11
2872.000
21
152.101
31
0
0
LINE
8
OUTER_PROFILES
10
2872.000
20
50.277
30
0
11
2881.899
21
40.378
31
0
0
CIRCLE
8
INTERIOR_PROFILES
10
2914.426
20
82.804
30
0
40
1.700
0
CIRCLE
8
INTERIOR_PROFILES
10
2881.899
20
152.101
30
0
40
1.700
0
CIRCLE
8
INTERIOR_PROFILES
10
2881.899
20
50.277
30
0
40
1.700
0
CIRCLE
8
INTERIOR_PROFILES
10
2914.426
20
119.574
30
0
40
1.700
0
TEXT
8
PART_LABELS
10
2968.500
20
101.000
30
0
40
15.000
1
TS2TRX-000000
72
1
73
2
11
2968.500
21
101.000
31
0
0
LINE
8
OUTER_PROFILES
10
2983.101
20
161.622
30
0
11
2943.574
21
122.095
31
0
0
LINE
8
OUTER_PROFILES
10
2943.574
20
79.527
30
0
11
2983.101
21
40.000
31
0
0
LINE
8
OUTER_PROFILES
10
2983.101
20
40.000
30
0
11
2993.000
21
49.899
31
0
0
LINE
8
OUTER_PROFILES
10
2993.000
20
151.723
30
0
11
2983.101
21
161.622
31
0
0
CIRCLE
8
INTERIOR_PROFILES
10
2950.574
20
119.196
30
0
40
1.700
0
CIRCLE
8
INTERIOR_PROFILES
10
2983.101
20
49.899
30
0
40
1.700
0
CIRCLE
8
INTERIOR_PROFILES
10
2983.101
20
151.723
30
0
40
1.700
0
CIRCLE
8
INTERIOR_PROFILES
10
2950.574
20
82.426
30
0
40
1.700
0
TEXT
8
PART_LABELS
10
3024.500
20
173.000
30
0
40
15.000
1
TS2TRX-000000
72
1
73
2
11
3024.500
21
173.000
31
0
0
LINE
8
OUTER_PROFILES
10
3009.899
20
112.378
30
0
11
3049.426
21
151.905
31
0
0
LINE
8
OUTER_PROFILES
10
3049.426
20
194.473
30
0
11
3009.899
21
234.000
31
0
0
LINE
8
OUTER_PROFILES
10
3009.899
20
234.000
30
0
11
3000.000
21
224.101
31
0
0
LINE
8
OUTER_PROFILES
10
3000.000
20
122.277
30
0
11
3009.899
21
112.378
31
0
0
CIRCLE
8
INTERIOR_PROFILES
10
3042.426
20
154.804
30
0
40
1.700
0
CIRCLE
8
INTERIOR_PROFILES
10
3009.899
20
224.101
30
0
40
1.700
0
CIRCLE
8
INTERIOR_PROFILES
10
3009.899
20
122.277
30
0
40
1.700
0
CIRCLE
8
INTERIOR_PROFILES
10
3042.426
20
191.574
30
0
40
1.700
0
TEXT
8
PART_LABELS
10
2944.500
20
189.000
30
0
40
15.000
1
TS2TRX-000000
72
1
73
2
11
2944.500
21
189.000
31
0
0
LINE
8
OUTER_PROFILES
10
2929.899
20
128.378
30
0
11
2969.426
21
167.905
31
0
0
LINE
8
OUTER_PROFILES
10
2969.426
20
210.473
30
0
11
2929.899
21
250.000
31
0
0
LINE
8
OUTER_PROFILES
10
2929.899
20
250.000
30
0
11
2920.000
21
240.101
31
0
0
LINE
8
OUTER_PROFILES
10
2920.000
20
138.277
30
0
11
2929.899
21
128.378
31
0
0
CIRCLE
8
INTERIOR_PROFILES
10
2962.426
20
170.804
30
0
40
1.700
0
CIRCLE
8
INTERIOR_PROFILES
10
2929.899
20
240.101
30
0
40
1.700
0
CIRCLE
8
INTERIOR_PROFILES
10
2929.899
20
138.277
30
0
40
1.700
0
CIRCLE
8
INTERIOR_PROFILES
10
2962.426
20
207.574
30
0
40
1.700
0
TEXT
8
PART_LABELS
10
2896.500
20
285.000
30
0
40
15.000
1
TS2TRX-000000
72
1
73
2
11
2896.500
21
285.000
31
0
0
LINE
8
OUTER_PROFILES
10
2881.899
20
224.378
30
0
11
2921.426
21
263.905
31
0
0
LINE
8
OUTER_PROFILES
10
2921.426
20
306.473
30
0
11
2881.899
21
346.000
31
0
0
LINE
8
OUTER_PROFILES
10
2881.899
20
346.000
30
0
11
2872.000
21
336.101
31
0
0
LINE
8
OUTER_PROFILES
10
2872.000
20
234.277
30
0
11
2881.899
21
224.378
31
0
0
CIRCLE
8
INTERIOR_PROFILES
10
2914.426
20
266.804
30
0
40
1.700
0
CIRCLE
8
INTERIOR_PROFILES
10
2881.899
20
336.101
30
0
40
1.700
0
CIRCLE
8
INTERIOR_PROFILES
10
2881.899
20
234.277
30
0
40
1.700
0
CIRCLE
8
INTERIOR_PROFILES
10
2914.426
20
303.574
30
0
40
1.700
0
TEXT
8
PART_LABELS
10
2984.500
20
285.000
30
0
40
15.000
1
TS2TRX-000000
72
1
73
2
11
2984.500
21
285.000
31
0
0
LINE
8
OUTER_PROFILES
10
2969.899
20
224.378
30
0
11
3009.426
21
263.905
31
0
0
LINE
8
OUTER_PROFILES
10
3009.426
20
306.473
30
0
11
2969.899
21
346.000
31
0
0
LINE
8
OUTER_PROFILES
10
2969.899
20
346.000
30
0
11
2960.000
21
336.101
31
0
0
LINE
8
OUTER_PROFILES
10
2960.000
20
234.277
30
0
11
2969.899
21
224.378
31
0
0
CIRCLE
8
INTERIOR_PROFILES
10
3002.426
20
266.804
30
0
40
1.700
0
CIRCLE
8
INTERIOR_PROFILES
10
2969.899
20
336.101
30
0
40
1.700
0
CIRCLE
8
INTERIOR_PROFILES
10
2969.899
20
234.277
30
0
40
1.700
0
CIRCLE
8
INTERIOR_PROFILES
10
3002.426
20
303.574
30
0
40
1.700
0
TEXT
8
PART_LABELS
10
3022.000
20
355.500
30
0
40
15.000
1
SD0SUP-000000
72
1
73
2
11
3022.000
21
355.500
31
0
0
LWPOLYLINE
8
OUTER_PROFILES
90
8
70
1
10
3018.000
20
318.500
42
-0.414214
10
3016.500
20
317.000
10
3013.700
20
317.000
42
1.000000
10
3013.700
20
312.000
10
3028.000
20
312.000
42
0.414214
10
3052.000
20
336.000
10
3052.000
20
369.000
42
1.639606
10
3004.572
20
344.582
42
-0.242311
0
CIRCLE
8
INTERIOR_PROFILES
10
3042.000
20
369.000
30
0
40
1.700
0
CIRCLE
8
INTERIOR_PROFILES
10
3002.000
20
369.000
30
0
40
1.700
0
CIRCLE
8
INTERIOR_PROFILES
10
3020.000
20
385.000
30
0
40
1.700
0
CIRCLE
8
INTERIOR_PROFILES
10
3035.250
20
385.000
30
0
40
1.700
0
TEXT
8
PART_LABELS
10
2926.000
20
371.500
30
0
40
15.000
1
SD0SUP-000000
72
1
73
2
11
2926.000
21
371.500
31
0
0
LWPOLYLINE
8
OUTER_PROFILES
90
8
70
1
10
2930.000
20
408.500
42
-0.414214
10
2931.500
20
410.000
10
2934.300
20
410.000
42
1.000000
10
2934.300
20
415.000
10
2920.000
20
415.000
42
0.414214
10
2896.000
20
391.000
10
2896.000
20
358.000
42
1.639606
10
2943.428
20
382.418
42
-0.242311
0
CIRCLE
8
INTERIOR_PROFILES
10
2906.000
20
358.000
30
0
40
1.700
0
CIRCLE
8
INTERIOR_PROFILES
10
2946.000
20
358.000
30
0
40
1.700
0
CIRCLE
8
INTERIOR_PROFILES
10
2928.000
20
342.000
30
0
40
1.700
0
CIRCLE
8
INTERIOR_PROFILES
10
2912.750
20
342.000
30
0
40
1.700
0
TEXT
8
PART_LABELS
10
2958.000
20
435.500
30
0
40
15.000
1
SD0SUP-000000
72
1
73
2
11
2958.000
21
435.500
31
0
0
LWPOLYLINE
8
OUTER_PROFILES
90
8
70
1
10
2954.000
20
398.500
42
-0.414214
10
2952.500
20
397.000
10
2949.700
20
397.000
42
1.000000
10
2949.700
20
392.000
10
2964.000
20
392.000
42
0.414214
10
2988.000
20
416.000
10
2988.000
20
449.000
42
1.639606
10
2940.572
20
424.582
42
-0.242311
0
CIRCLE
8
INTERIOR_PROFILES
10
2978.000
20
449.000
30
0
40
1.700
0
CIRCLE
8
INTERIOR_PROFILES
10
2938.000
20
449.000
30
0
40
1.700
0
CIRCLE
8
INTERIOR_PROFILES
10
2956.000
20
465.000
30
0
40
1.700
0
CIRCLE
8
INTERIOR_PROFILES
10
2971.250
20
465.000
30
0
40
1.700
0
TEXT
8
PART_LABELS
10
3022.000
20
443.500
30
0
40
15.000
1
SD0SUP-000000
72
1
73
2
11
3022.000
21
443.500
31
0
0
LWPOLYLINE
8
OUTER_PROFILES
90
8
70
1
10
3018.000
20
406.500
42
-0.414214
10
3016.500
20
405.000
10
3013.700
20
405.000
42
1.000000
10
3013.700
20
400.000
10
3028.000
20
400.000
42
0.414214
10
3052.000
20
424.000
10
3052.000
20
457.000
42
1.639606
10
3004.572
20
432.582
42
-0.242311
0
CIRCLE
8
INTERIOR_PROFILES
10
3042.000
20
457.000
30
0
40
1.700
0
CIRCLE
8
INTERIOR_PROFILES
10
3002.000
20
457.000
30
0
40
1.700
0
CIRCLE
8
INTERIOR_PROFILES
10
3020.000
20
473.000
30
0
40
1.700
0
CIRCLE
8
INTERIOR_PROFILES
10
3035.250
20
473.000
30
0
40
1.700
0
TEXT
8
PART_LABELS
10
2902.000
20
507.500
30
0
40
15.000
1
SD0SUP-000000
72
1
73
2
11
2902.000
21
507.500
31
0
0
LWPOLYLINE
8
OUTER_PROFILES
90
8
70
1
10
2898.000
20
470.500
42
-0.414214
10
2896.500
20
469.000
10
2893.700
20
469.000
42
1.000000
10
2893.700
20
464.000
10
2908.000
20
464.000
42
0.414214
10
2932.000
20
488.000
10
2932.000
20
521.000
42
1.639606
10
2884.572
20
496.582
42
-0.242311
0
CIRCLE
8
INTERIOR_PROFILES
10
2922.000
20
521.000
30
0
40
1.700
0
CIRCLE
8
INTERIOR_PROFILES
10
2882.000
20
521.000
30
0
40
1.700
0
CIRCLE
8
INTERIOR_PROFILES
10
2900.000
20
537.000
30
0
40
1.700
0
CIRCLE
8
INTERIOR_PROFILES
10
2915.250
20
537.000
30
0
40
1.700
0
TEXT
8
PART_LABELS
10
2979.500
20
510.000
30
0
40
15.000
1
SD0SUP-000000
72
1
73
2
11
2979.500
21
510.000
31
0
0
LWPOLYLINE
8
OUTER_PROFILES
90
8
70
1
10
3016.500
20
506.000
42
-0.414214
10
3018.000
20
504.500
10
3018.000
20
501.700
42
1.000000
10
3023.000
20
501.700
10
3023.000
20
516.000
42
0.414214
10
2999.000
20
540.000
10
2966.000
20
540.000
42
1.639606
10
2990.418
20
492.572
42
-0.242311
0
CIRCLE
8
INTERIOR_PROFILES
10
2966.000
20
530.000
30
0
40
1.700
0
CIRCLE
8
INTERIOR_PROFILES
10
2966.000
20
490.000
30
0
40
1.700
0
CIRCLE
8
INTERIOR_PROFILES
10
2950.000
20
508.000
30
0
40
1.700
0
CIRCLE
8
INTERIOR_PROFILES
10
2950.000
20
523.250
30
0
40
1.700
0
TEXT
8
PART_LABELS
10
643.500
20
822.000
30
0
40
15.000
1
SD0SUP-000000
72
1
73
2
11
643.500
21
822.000
31
0
0
LWPOLYLINE
8
OUTER_PROFILES
90
8
70
1
10
606.500
20
826.000
42
-0.414214
10
605.000
20
827.500
10
605.000
20
830.300
42
1.000000
10
600.000
20
830.300
10
600.000
20
816.000
42
0.414214
10
624.000
20
792.000
10
657.000
20
792.000
42
1.639606
10
632.582
20
839.428
42
-0.242311
0
CIRCLE
8
INTERIOR_PROFILES
10
657.000
20
802.000
30
0
40
1.700
0
CIRCLE
8
INTERIOR_PROFILES
10
657.000
20
842.000
30
0
40
1.700
0
CIRCLE
8
INTERIOR_PROFILES
10
673.000
20
824.000
30
0
40
1.700
0
CIRCLE
8
INTERIOR_PROFILES
10
673.000
20
808.750
30
0
40
1.700
0
LINE
8
OUTER_PROFILES
10
14.595
20
7.262
30
0
11
14.595
21
13.262
31
0
0
LINE
8
OUTER_PROFILES
10
14.595
20
775.786
30
0
11
14.595
21
781.786
31
0
0
LINE
8
OUTER_PROFILES
10
674.453
20
7.262
30
0
11
674.453
21
13.262
31
0
0
LINE
8
OUTER_PROFILES
10
674.453
20
775.786
30
0
11
674.453
21
781.786
31
0
0
LINE
8
OUTER_PROFILES
10
689.048
20
20.595
30
0
11
689.048
21
768.453
31
0
0
LINE
8
OUTER_PROFILES
10
0.000
20
20.595
30
0
11
0.000
21
768.453
31
0
0
LINE
8
OUTER_PROFILES
10
0.000
20
1507.524
30
0
11
0.000
21
1525.024
31
0
0
LINE
8
OUTER_PROFILES
10
1575.524
20
0.000
30
0
11
1575.524
21
14.000
31
0
0
LINE
8
OUTER_PROFILES
10
1575.524
20
14.000
30
0
11
1575.524
21
16.262
31
0
0
LINE
8
OUTER_PROFILES
10
1575.524
20
550.262
30
0
11
1575.524
21
552.524
31
0
0
LINE
8
OUTER_PROFILES
10
1575.524
20
566.524
30
0
11
1575.524
21
568.786
31
0
0
LINE
8
OUTER_PROFILES
10
1568.262
20
557.595
30
0
11
1568.262
21
561.453
31
0
0
LINE
8
OUTER_PROFILES
10
2335.524
20
0.000
30
0
11
2335.524
21
14.000
31
0
0
LINE
8
OUTER_PROFILES
10
2335.524
20
14.000
30
0
11
2335.524
21
16.262
31
0
0
LINE
8
OUTER_PROFILES
10
2335.524
20
550.262
30
0
11
2335.524
21
552.524
31
0
0
LINE
8
OUTER_PROFILES
10
2335.524
20
566.524
30
0
11
2335.524
21
568.786
31
0
0
LINE
8
OUTER_PROFILES
10
2342.786
20
557.595
30
0
11
2342.786
21
561.453
31
0
0
LINE
8
OUTER_PROFILES
10
2359.048
20
16.262
30
0
11
2359.048
21
545.162
31
0
0
LINE
8
OUTER_PROFILES
10
1552.000
20
16.262
30
0
11
1552.000
21
545.162
31
0
0
LINE
8
OUTER_PROFILES
10
1535.524
20
576.000
30
0
11
1535.524
21
590.000
31
0
0
LINE
8
OUTER_PROFILES
10
1535.524
20
590.000
30
0
11
1535.524
21
592.262
31
0
0
LINE
8
OUTER_PROFILES
10
1535.524
20
1126.262
30
0
11
1535.524
21
1128.524
31
0
0
LINE
8
OUTER_PROFILES
10
1535.524
20
1142.524
30
0
11
1535.524
21
1144.786
31
0
0
LINE
8
OUTER_PROFILES
10
1528.262
20
1133.595
30
0
11
1528.262
21
1137.453
31
0
0
LINE
8
OUTER_PROFILES
10
2295.524
20
576.000
30
0
11
2295.524
21
590.000
31
0
0
LINE
8
OUTER_PROFILES
10
2295.524
20
590.000
30
0
11
2295.524
21
592.262
31
0
0
LINE
8
OUTER_PROFILES
10
2295.524
20
1126.262
30
0
11
2295.524
21
1128.524
31
0
0
LINE
8
OUTER_PROFILES
10
2295.524
20
1142.524
30
0
11
2295.524
21
1144.786
31
0
0
LINE
8
OUTER_PROFILES
10
2302.786
20
1133.595
30
0
11
2302.786
21
1137.453
31
0
0
LINE
8
OUTER_PROFILES
10
2319.048
20
592.262
30
0
11
2319.048
21
1121.162
31
0
0
LINE
8
OUTER_PROFILES
10
1512.000
20
592.262
30
0
11
1512.000
21
1121.162
31
0
0
LINE
8
OUTER_PROFILES
10
719.524
20
584.000
30
0
11
719.524
21
598.000
31
0
0
LINE
8
OUTER_PROFILES
10
719.524
20
598.000
30
0
11
719.524
21
600.262
31
0
0
LINE
8
OUTER_PROFILES
10
719.524
20
1134.262
30
0
11
719.524
21
1136.524
31
0
0
LINE
8
OUTER_PROFILES
10
719.524
20
1150.524
30
0
11
719.524
21
1152.786
31
0
0
LINE
8
OUTER_PROFILES
10
712.262
20
1141.595
30
0
11
712.262
21
1145.453
31
0
0
LINE
8
OUTER_PROFILES
10
1479.524
20
584.000
30
0
11
1479.524
21
598.000
31
0
0
LINE
8
OUTER_PROFILES
10
1479.524
20
598.000
30
0
11
1479.524
21
600.262
31
0
0
LINE
8
OUTER_PROFILES
10
1479.524
20
1134.262
30
0
11
1479.524
21
1136.524
31
0
0
LINE
8
OUTER_PROFILES
10
1479.524
20
1150.524
30
0
11
1479.524
21
1152.786
31
0
0
LINE
8
OUTER_PROFILES
10
1486.786
20
1141.595
30
0
11
1486.786
21
1145.453
31
0
0
LINE
8
OUTER_PROFILES
10
1503.048
20
600.262
30
0
11
1503.048
21
1129.162
31
0
0
LINE
8
OUTER_PROFILES
10
696.000
20
600.262
30
0
11
696.000
21
1129.162
31
0
0
LINE
8
OUTER_PROFILES
10
2848.262
20
0.000
30
0
11
2848.262
21
28.262
31
0
0
LINE
8
OUTER_PROFILES
10
2848.262
20
28.262
30
0
11
2848.262
21
30.524
31
0
0
LINE
8
OUTER_PROFILES
10
2848.262
20
515.524
30
0
11
2848.262
21
517.786
31
0
0
LINE
8
OUTER_PROFILES
10
2848.262
20
517.786
30
0
11
2848.262
21
546.048
31
0
0
LINE
8
OUTER_PROFILES
10
2864.524
20
30.524
30
0
11
2864.524
21
515.524
31
0
0
LINE
8
OUTER_PROFILES
10
2376.262
20
0.000
30
0
11
2376.262
21
28.262
31
0
0
LINE
8
OUTER_PROFILES
10
2376.262
20
28.262
30
0
11
2376.262
21
30.524
31
0
0
LINE
8
OUTER_PROFILES
10
2376.262
20
515.524
30
0
11
2376.262
21
517.786
31
0
0
LINE
8
OUTER_PROFILES
10
2376.262
20
517.786
30
0
11
2376.262
21
546.048
31
0
0
LINE
8
OUTER_PROFILES
10
2360.000
20
30.524
30
0
11
2360.000
21
515.524
31
0
0
LINE
8
OUTER_PROFILES
10
3028.424
20
1116.262
30
0
11
3028.424
21
1132.262
31
0
0
LINE
8
OUTER_PROFILES
10
3028.424
20
1410.917
30
0
11
3028.424
21
1432.258
31
0
0
LINE
8
OUTER_PROFILES
10
2333.624
20
1116.262
30
0
11
2333.624
21
1132.262
31
0
0
LINE
8
OUTER_PROFILES
10
2333.624
20
1410.917
30
0
11
2333.624
21
1432.258
31
0
0
LINE
8
OUTER_PROFILES
10
2312.000
20
1136.595
30
0
11
2312.000
21
1389.453
31
0
0
LINE
8
OUTER_PROFILES
10
3050.048
20
1136.595
30
0
11
3050.048
21
1389.453
31
0
0
LINE
8
OUTER_PROFILES
10
1509.624
20
1156.262
30
0
11
1509.624
21
1172.262
31
0
0
LINE
8
OUTER_PROFILES
10
1509.624
20
1410.917
30
0
11
1509.624
21
1432.258
31
0
0
LINE
8
OUTER_PROFILES
10
2204.424
20
1156.262
30
0
11
2204.424
21
1172.262
31
0
0
LINE
8
OUTER_PROFILES
10
2204.424
20
1410.917
30
0
11
2204.424
21
1432.258
31
0
0
LINE
8
OUTER_PROFILES
10
2226.048
20
1176.595
30
0
11
2226.048
21
1389.453
31
0
0
LINE
8
OUTER_PROFILES
10
1488.000
20
1176.595
30
0
11
1488.000
21
1389.453
31
0
0
LINE
8
OUTER_PROFILES
10
621.624
20
1164.262
30
0
11
621.624
21
1180.262
31
0
0
LINE
8
OUTER_PROFILES
10
621.624
20
1418.917
30
0
11
621.624
21
1440.258
31
0
0
LINE
8
OUTER_PROFILES
10
1316.424
20
1164.262
30
0
11
1316.424
21
1180.262
31
0
0
LINE
8
OUTER_PROFILES
10
1316.424
20
1418.917
30
0
11
1316.424
21
1440.258
31
0
0
LINE
8
OUTER_PROFILES
10
1338.048
20
1184.595
30
0
11
1338.048
21
1397.453
31
0
0
LINE
8
OUTER_PROFILES
10
600.000
20
1184.595
30
0
11
600.000
21
1397.453
31
0
0
LINE
8
OUTER_PROFILES
10
93.262
20
1505.262
30
0
11
93.262
21
1507.524
31
0
0
LINE
8
OUTER_PROFILES
10
20.262
20
1505.262
30
0
11
20.262
21
1507.524
31
0
0
LINE
8
OUTER_PROFILES
10
796.262
20
1505.262
30
0
11
796.262
21
1507.524
31
0
0
LINE
8
OUTER_PROFILES
10
723.262
20
1505.262
30
0
11
723.262
21
1507.524
31
0
0
LINE
8
OUTER_PROFILES
10
10.262
20
1464.000
30
0
11
10.262
21
1469.000
31
0
0
LINE
8
OUTER_PROFILES
10
10.262
20
1469.000
30
0
11
10.262
21
1471.262
31
0
0
LINE
8
OUTER_PROFILES
10
10.262
20
1471.262
30
0
11
10.262
21
1505.262
31
0
0
LINE
8
OUTER_PROFILES
10
10.262
20
1505.262
30
0
11
10.262
21
1507.524
31
0
0
LINE
8
OUTER_PROFILES
10
806.262
20
1464.000
30
0
11
806.262
21
1469.000
31
0
0
LINE
8
OUTER_PROFILES
10
806.262
20
1469.000
30
0
11
806.262
21
1471.262
31
0
0
LINE
8
OUTER_PROFILES
10
806.262
20
1471.262
30
0
11
806.262
21
1505.262
31
0
0
LINE
8
OUTER_PROFILES
10
806.262
20
1505.262
30
0
11
806.262
21
1507.524
31
0
0
LINE
8
OUTER_PROFILES
10
816.524
20
1507.524
30
0
11
816.524
21
1525.024
31
0
0
LINE
8
OUTER_PROFILES
10
2872.000
20
50.277
30
0
11
2872.000
21
152.101
31
0
0
LINE
8
OUTER_PROFILES
10
2872.000
20
234.277
30
0
11
2872.000
21
336.101
31
0
0
LINE
8
OUTER_PROFILES
10
2872.000
20
1440.000
30
0
11
2872.000
21
1488.262
31
0
0
LINE
8
OUTER_PROFILES
10
2272.000
20
1440.000
30
0
11
2272.000
21
1488.262
31
0
0
LINE
8
OUTER_PROFILES
10
2999.574
20
39.527
30
0
11
2999.574
21
82.095
31
0
0
LINE
8
OUTER_PROFILES
10
3049.000
20
9.899
30
0
11
3049.000
21
111.723
31
0
0
LINE
8
OUTER_PROFILES
10
2921.426
20
79.905
30
0
11
2921.426
21
122.473
31
0
0
LINE
8
OUTER_PROFILES
10
2921.426
20
263.905
30
0
11
2921.426
21
306.473
31
0
0
LINE
8
OUTER_PROFILES
10
2943.574
20
79.527
30
0
11
2943.574
21
122.095
31
0
0
LINE
8
OUTER_PROFILES
10
2993.000
20
49.899
30
0
11
2993.000
21
151.723
31
0
0
LINE
8
OUTER_PROFILES
10
3049.426
20
151.905
30
0
11
3049.426
21
194.473
31
0
0
LINE
8
OUTER_PROFILES
10
3000.000
20
122.277
30
0
11
3000.000
21
224.101
31
0
0
LINE
8
OUTER_PROFILES
10
2969.426
20
167.905
30
0
11
2969.426
21
210.473
31
0
0
LINE
8
OUTER_PROFILES
10
2920.000
20
138.277
30
0
11
2920.000
21
240.101
31
0
0
LINE
8
OUTER_PROFILES
10
3009.426
20
263.905
30
0
11
3009.426
21
306.473
31
0
0
LINE
8
OUTER_PROFILES
10
2960.000
20
234.277
30
0
11
2960.000
21
336.101
31
0
0
LINE
8
OUTER_PROFILES
10
7.262
20
14.595
30
0
11
13.262
21
14.595
31
0
0
LINE
8
OUTER_PROFILES
10
675.786
20
14.595
30
0
11
681.786
21
14.595
31
0
0
LINE
8
OUTER_PROFILES
10
20.595
20
0.000
30
0
11
668.453
21
0.000
31
0
0
LINE
8
OUTER_PROFILES
10
1575.524
20
0.000
30
0
11
2335.524
21
0.000
31
0
0
LINE
8
OUTER_PROFILES
10
2376.262
20
0.000
30
0
11
2848.262
21
0.000
31
0
0
LINE
8
OUTER_PROFILES
10
2881.899
20
0.000
30
0
11
2983.723
21
0.000
31
0
0
LINE
8
OUTER_PROFILES
10
7.262
20
774.453
30
0
11
13.262
21
774.453
31
0
0
LINE
8
OUTER_PROFILES
10
675.786
20
774.453
30
0
11
681.786
21
774.453
31
0
0
LINE
8
OUTER_PROFILES
10
20.595
20
789.048
30
0
11
668.453
21
789.048
31
0
0
LINE
8
OUTER_PROFILES
10
1573.262
20
552.559
30
0
11
1575.524
21
552.559
31
0
0
LINE
8
OUTER_PROFILES
10
1573.262
20
566.489
30
0
11
1575.524
21
566.489
31
0
0
LINE
8
OUTER_PROFILES
10
2335.524
20
566.489
30
0
11
2337.786
21
566.489
31
0
0
LINE
8
OUTER_PROFILES
10
1573.262
20
568.821
30
0
11
1575.524
21
568.821
31
0
0
LINE
8
OUTER_PROFILES
10
2335.524
20
568.821
30
0
11
2337.786
21
568.821
31
0
0
LINE
8
OUTER_PROFILES
10
1568.333
20
573.786
30
0
11
1573.262
21
573.786
31
0
0
LINE
8
OUTER_PROFILES
10
1573.262
20
573.786
30
0
11
1575.524
21
573.786
31
0
0
LINE
8
OUTER_PROFILES
10
1575.524
20
573.786
30
0
11
2335.524
21
573.786
31
0
0
LINE
8
OUTER_PROFILES
10
2335.524
20
573.786
30
0
11
2337.786
21
573.786
31
0
0
LINE
8
OUTER_PROFILES
10
2337.786
20
573.786
30
0
11
2342.715
21
573.786
31
0
0
LINE
8
OUTER_PROFILES
10
1552.000
20
545.162
30
0
11
1557.000
21
545.162
31
0
0
LINE
8
OUTER_PROFILES
10
1557.000
20
545.162
30
0
11
1559.262
21
545.162
31
0
0
LINE
8
OUTER_PROFILES
10
1559.262
20
545.162
30
0
11
1568.233
21
545.162
31
0
0
LINE
8
OUTER_PROFILES
10
2342.815
20
545.162
30
0
11
2351.786
21
545.162
31
0
0
LINE
8
OUTER_PROFILES
10
2351.786
20
545.162
30
0
11
2354.048
21
545.162
31
0
0
LINE
8
OUTER_PROFILES
10
2354.048
20
545.162
30
0
11
2359.048
21
545.162
31
0
0
LINE
8
OUTER_PROFILES
10
1552.000
20
16.262
30
0
11
1557.000
21
16.262
31
0
0
LINE
8
OUTER_PROFILES
10
1557.000
20
16.262
30
0
11
1559.262
21
16.262
31
0
0
LINE
8
OUTER_PROFILES
10
1559.262
20
16.262
30
0
11
1573.262
21
16.262
31
0
0
LINE
8
OUTER_PROFILES
10
1573.262
20
16.262
30
0
11
1575.524
21
16.262
31
0
0
LINE
8
OUTER_PROFILES
10
2335.524
20
16.262
30
0
11
2337.786
21
16.262
31
0
0
LINE
8
OUTER_PROFILES
10
2337.786
20
16.262
30
0
11
2351.786
21
16.262
31
0
0
LINE
8
OUTER_PROFILES
10
2351.786
20
16.262
30
0
11
2354.048
21
16.262
31
0
0
LINE
8
OUTER_PROFILES
10
2354.048
20
16.262
30
0
11
2359.048
21
16.262
31
0
0
LINE
8
OUTER_PROFILES
10
1533.262
20
1128.559
30
0
11
1535.524
21
1128.559
31
0
0
LINE
8
OUTER_PROFILES
10
1533.262
20
1142.489
30
0
11
1535.524
21
1142.489
31
0
0
LINE
8
OUTER_PROFILES
10
2295.524
20
1142.489
30
0
11
2297.786
21
1142.489
31
0
0
LINE
8
OUTER_PROFILES
10
1533.262
20
1144.821
30
0
11
1535.524
21
1144.821
31
0
0
LINE
8
OUTER_PROFILES
10
2295.524
20
1144.821
30
0
11
2297.786
21
1144.821
31
0
0
LINE
8
OUTER_PROFILES
10
1528.333
20
1149.786
30
0
11
1533.262
21
1149.786
31
0
0
LINE
8
OUTER_PROFILES
10
1533.262
20
1149.786
30
0
11
1535.524
21
1149.786
31
0
0
LINE
8
OUTER_PROFILES
10
1535.524
20
1149.786
30
0
11
2295.524
21
1149.786
31
0
0
LINE
8
OUTER_PROFILES
10
2295.524
20
1149.786
30
0
11
2297.786
21
1149.786
31
0
0
LINE
8
OUTER_PROFILES
10
2297.786
20
1149.786
30
0
11
2302.715
21
1149.786
31
0
0
LINE
8
OUTER_PROFILES
10
1512.000
20
1121.162
30
0
11
1517.000
21
1121.162
31
0
0
LINE
8
OUTER_PROFILES
10
1517.000
20
1121.162
30
0
11
1519.262
21
1121.162
31
0
0
LINE
8
OUTER_PROFILES
10
1519.262
20
1121.162
30
0
11
1528.233
21
1121.162
31
0
0
LINE
8
OUTER_PROFILES
10
2302.815
20
1121.162
30
0
11
2311.786
21
1121.162
31
0
0
LINE
8
OUTER_PROFILES
10
2311.786
20
1121.162
30
0
11
2314.048
21
1121.162
31
0
0
LINE
8
OUTER_PROFILES
10
2314.048
20
1121.162
30
0
11
2319.048
21
1121.162
31
0
0
LINE
8
OUTER_PROFILES
10
1512.000
20
592.262
30
0
11
1517.000
21
592.262
31
0
0
LINE
8
OUTER_PROFILES
10
1517.000
20
592.262
30
0
11
1519.262
21
592.262
31
0
0
LINE
8
OUTER_PROFILES
10
1519.262
20
592.262
30
0
11
1533.262
21
592.262
31
0
0
LINE
8
OUTER_PROFILES
10
1533.262
20
592.262
30
0
11
1535.524
21
592.262
31
0
0
LINE
8
OUTER_PROFILES
10
2295.524
20
592.262
30
0
11
2297.786
21
592.262
31
0
0
LINE
8
OUTER_PROFILES
10
2297.786
20
592.262
30
0
11
2311.786
21
592.262
31
0
0
LINE
8
OUTER_PROFILES
10
2311.786
20
592.262
30
0
11
2314.048
21
592.262
31
0
0
LINE
8
OUTER_PROFILES
10
2314.048
20
592.262
30
0
11
2319.048
21
592.262
31
0
0
LINE
8
OUTER_PROFILES
10
1535.524
20
576.000
30
0
11
2295.524
21
576.000
31
0
0
LINE
8
OUTER_PROFILES
10
717.262
20
1136.559
30
0
11
719.524
21
1136.559
31
0
0
LINE
8
OUTER_PROFILES
10
717.262
20
1150.489
30
0
11
719.524
21
1150.489
31
0
0
LINE
8
OUTER_PROFILES
10
1479.524
20
1150.489
30
0
11
1481.786
21
1150.489
31
0
0
LINE
8
OUTER_PROFILES
10
717.262
20
1152.821
30
0
11
719.524
21
1152.821
31
0
0
LINE
8
OUTER_PROFILES
10
1479.524
20
1152.821
30
0
11
1481.786
21
1152.821
31
0
0
LINE
8
OUTER_PROFILES
10
712.333
20
1157.786
30
0
11
717.262
21
1157.786
31
0
0
LINE
8
OUTER_PROFILES
10
717.262
20
1157.786
30
0
11
719.524
21
1157.786
31
0
0
LINE
8
OUTER_PROFILES
10
719.524
20
1157.786
30
0
11
1479.524
21
1157.786
31
0
0
LINE
8
OUTER_PROFILES
10
1479.524
20
1157.786
30
0
11
1481.786
21
1157.786
31
0
0
LINE
8
OUTER_PROFILES
10
1481.786
20
1157.786
30
0
11
1486.715
21
1157.786
31
0
0
LINE
8
OUTER_PROFILES
10
696.000
20
1129.162
30
0
11
701.000
21
1129.162
31
0
0
LINE
8
OUTER_PROFILES
10
701.000
20
1129.162
30
0
11
703.262
21
1129.162
31
0
0
LINE
8
OUTER_PROFILES
10
703.262
20
1129.162
30
0
11
712.233
21
1129.162
31
0
0
LINE
8
OUTER_PROFILES
10
1486.815
20
1129.162
30
0
11
1495.786
21
1129.162
31
0
0
LINE
8
OUTER_PROFILES
10
1495.786
20
1129.162
30
0
11
1498.048
21
1129.162
31
0
0
LINE
8
OUTER_PROFILES
10
1498.048
20
1129.162
30
0
11
1503.048
21
1129.162
31
0
0
LINE
8
OUTER_PROFILES
10
696.000
20
600.262
30
0
11
701.000
21
600.262
31
0
0
LINE
8
OUTER_PROFILES
10
701.000
20
600.262
30
0
11
703.262
21
600.262
31
0
0
LINE
8
OUTER_PROFILES
10
703.262
20
600.262
30
0
11
717.262
21
600.262
31
0
0
LINE
8
OUTER_PROFILES
10
717.262
20
600.262
30
0
11
719.524
21
600.262
31
0
0
LINE
8
OUTER_PROFILES
10
1479.524
20
600.262
30
0
11
1481.786
21
600.262
31
0
0
LINE
8
OUTER_PROFILES
10
1481.786
20
600.262
30
0
11
1495.786
21
600.262
31
0
0
LINE
8
OUTER_PROFILES
10
1495.786
20
600.262
30
0
11
1498.048
21
600.262
31
0
0
LINE
8
OUTER_PROFILES
10
1498.048
20
600.262
30
0
11
1503.048
21
600.262
31
0
0
LINE
8
OUTER_PROFILES
10
719.524
20
584.000
30
0
11
1479.524
21
584.000
31
0
0
LINE
8
OUTER_PROFILES
10
2360.000
20
515.524
30
0
11
2374.000
21
515.524
31
0
0
LINE
8
OUTER_PROFILES
10
2374.000
20
515.524
30
0
11
2376.262
21
515.524
31
0
0
LINE
8
OUTER_PROFILES
10
2848.262
20
515.524
30
0
11
2850.524
21
515.524
31
0
0
LINE
8
OUTER_PROFILES
10
2850.524
20
515.524
30
0
11
2864.524
21
515.524
31
0
0
LINE
8
OUTER_PROFILES
10
2360.000
20
30.524
30
0
11
2374.000
21
30.524
31
0
0
LINE
8
OUTER_PROFILES
10
2374.000
20
30.524
30
0
11
2376.262
21
30.524
31
0
0
LINE
8
OUTER_PROFILES
10
2848.262
20
30.524
30
0
11
2850.524
21
30.524
31
0
0
LINE
8
OUTER_PROFILES
10
2850.524
20
30.524
30
0
11
2864.524
21
30.524
31
0
0
LINE
8
OUTER_PROFILES
10
2376.262
20
546.048
30
0
11
2848.262
21
546.048
31
0
0
LINE
8
OUTER_PROFILES
10
1512.595
20
1436.675
30
0
11
2201.453
21
1436.675
31
0
0
LINE
8
OUTER_PROFILES
10
2336.595
20
1436.675
30
0
11
3025.453
21
1436.675
31
0
0
LINE
8
OUTER_PROFILES
10
2316.262
20
1132.524
30
0
11
2332.262
21
1132.524
31
0
0
LINE
8
OUTER_PROFILES
10
3029.786
20
1132.524
30
0
11
3045.786
21
1132.524
31
0
0
LINE
8
OUTER_PROFILES
10
2336.595
20
1112.000
30
0
11
3025.453
21
1112.000
31
0
0
LINE
8
OUTER_PROFILES
10
1492.262
20
1172.524
30
0
11
1508.262
21
1172.524
31
0
0
LINE
8
OUTER_PROFILES
10
2205.786
20
1172.524
30
0
11
2221.786
21
1172.524
31
0
0
LINE
8
OUTER_PROFILES
10
1512.595
20
1152.000
30
0
11
2201.453
21
1152.000
31
0
0
LINE
8
OUTER_PROFILES
10
604.262
20
1180.524
30
0
11
620.262
21
1180.524
31
0
0
LINE
8
OUTER_PROFILES
10
1317.786
20
1180.524
30
0
11
1333.786
21
1180.524
31
0
0
LINE
8
OUTER_PROFILES
10
624.595
20
1160.000
30
0
11
1313.453
21
1160.000
31
0
0
LINE
8
OUTER_PROFILES
10
624.595
20
1444.675
30
0
11
1313.453
21
1444.675
31
0
0
LINE
8
OUTER_PROFILES
10
20.262
20
1505.262
30
0
11
93.262
21
1505.262
31
0
0
LINE
8
OUTER_PROFILES
10
723.262
20
1505.262
30
0
11
796.262
21
1505.262
31
0
0
LINE
8
OUTER_PROFILES
10
0.000
20
1507.524
30
0
11
10.262
21
1507.524
31
0
0
LINE
8
OUTER_PROFILES
10
20.262
20
1507.524
30
0
11
93.262
21
1507.524
31
0
0
LINE
8
OUTER_PROFILES
10
723.262
20
1507.524
30
0
11
796.262
21
1507.524
31
0
0
LINE
8
OUTER_PROFILES
10
806.262
20
1507.524
30
0
11
816.524
21
1507.524
31
0
0
LINE
8
OUTER_PROFILES
10
0.000
20
1525.024
30
0
11
816.524
21
1525.024
31
0
0
LINE
8
OUTER_PROFILES
10
10.262
20
1464.000
30
0
11
806.262
21
1464.000
31
0
0
LINE
8
OUTER_PROFILES
10
2272.000
20
1488.262
30
0
11
2872.000
21
1488.262
31
0
0
LINE
8
OUTER_PROFILES
10
2272.000
20
1440.000
30
0
11
2872.000
21
1440.000
31
0
0
LINE
8
OUTER_PROFILES
10
2911.527
20
49.426
30
0
11
2954.095
21
49.426
31
0
0
ENDSEC
0
EOF