0
SECTION
2
HEADER
9
$INSUNITS
70
4
9
$ACADVER
1
AC1014
9
$HANDSEED
5
FFFF
0
ENDSEC
0
SECTION
2
TABLES
0
TABLE
2
VPORT
5
8
100
AcDbSymbolTable
0
ENDTAB
0
TABLE
2
LTYPE
5
5
100
AcDbSymbolTable
0
LTYPE
5
14
100
AcDbSymbolTableRecord
100
AcDbLinetypeTableRecord
2
BYBLOCK
70
0
0
LTYPE
5
15
100
AcDbSymbolTableRecord
100
AcDbLinetypeTableRecord
2
BYLAYER
70
0
0
LTYPE
5
16
100
AcDbSymbolTableRecord
100
AcDbLinetypeTableRecord
2
DASHED
70
0
3
Dashed __ __ __ __ __ __ __ __ __ __ __ __ __ _
72
65
73
2
40
0.75
49
0.5
74
0
49
-0.25
74
0
0
ENDTAB
0
TABLE
2
LAYER
5
2
100
AcDbSymbolTable
70
2
0
LAYER
5
50
100
AcDbSymbolTableRecord
100
AcDbLayerTableRecord
2
0
70
0
62
7
6
CONTINUOUS
0
ENDTAB
0
TABLE
2
STYLE
5
3
100
AcDbSymbolTable
70
1
0
STYLE
5
11
100
AcDbSymbolTableRecord
100
AcDbTextStyleTableRecord
2
STANDARD
70
0
0
ENDTAB
0
TABLE
2
VIEW
5
6
100
AcDbSymbolTable
70
0
0
ENDTAB
0
TABLE
2
UCS
5
7
100
AcDbSymbolTable
70
0
0
ENDTAB
0
TABLE
2
APPID
5
9
100
AcDbSymbolTable
70
2
0
APPID
5
12
100
AcDbSymbolTableRecord
100
AcDbRegAppTableRecord
2
ACAD
70
0
0
ENDTAB
0
TABLE
2
DIMSTYLE
5
A
100
AcDbSymbolTable
70
1
0
ENDTAB
0
TABLE
2
BLOCK_RECORD
5
1
100
AcDbSymbolTable
70
1
0
BLOCK_RECORD
5
1F
100
AcDbSymbolTableRecord
100
AcDbBlockTableRecord
2
*MODEL_SPACE
0
BLOCK_RECORD
5
1B
100
AcDbSymbolTableRecord
100
AcDbBlockTableRecord
2
*PAPER_SPACE
0
ENDTAB
0
ENDSEC
0
SECTION
2
BLOCKS
0
BLOCK
5
20
100
AcDbEntity
100
AcDbBlockBegin
2
*MODEL_SPACE
0
ENDBLK
5
21
100
AcDbEntity
100
AcDbBlockEnd
0
BLOCK
5
1C
100
AcDbEntity
100
AcDbBlockBegin
2
*PAPER_SPACE
0
ENDBLK
5
1D
100
AcDbEntity
100
AcDbBlockEnd
0
ENDSEC
0
SECTION
2
ENTITIES
0
LINE
5
100
100
AcDbEntity
8
OUTER_PROFILES
100
AcDbLine
10
180.85857864376243
20
0
30
0
11
185.85857864376243
21
5
31
0
0
SPLINE
5
101
100
AcDbEntity
8
OUTER_PROFILES
100
AcDbSpline
70
0
71
3
72
11
73
7
74
0
42
0.000000001
43
0.0000000001
44
0.0000000001
40
1.5707963267948966
40
1.5707963267948966
40
1.5707963267948966
40
1.5707963267948966
40
3.043762078385428
40
3.043762078385428
40
3.043762078385428
40
3.1415926535897842
40
3.1415926535897842
40
3.1415926535897842
40
3.1415926535897842
10
185.85857864376243
20
5.0000000000001776
30
0
10
186.34956722762595
20
5.7070235607636377
30
0
10
186.80583993660008
20
6.4140471215270978
30
0
10
186.85379704851522
20
7.1210706822905578
30
0
10
186.85698223584137
20
7.1680293583886368
30
0
10
186.85857864376243
20
7.2149880344867157
30
0
10
186.85857864376243
20
7.2619467105848301
30
0
0
LINE
5
102
100
AcDbEntity
8
OUTER_PROFILES
100
AcDbLine
10
186.85857864376243
20
7.2619467105848292
30
0
11
186.85857864376257
21
23.26194671058488
31
0
0
SPLINE
5
103
100
AcDbEntity
8
OUTER_PROFILES
100
AcDbSpline
70
0
71
3
72
11
73
7
74
0
42
0.000000001
43
0.0000000001
44
0.0000000001
40
-3.1415926535897931
40
-3.1415926535897931
40
-3.1415926535897931
40
-3.1415926535897931
40
-1.668626901999261
40
-1.668626901999261
40
-1.668626901999261
40
-1.5707963267948966
40
-1.5707963267948966
40
-1.5707963267948966
40
-1.5707963267948966
10
186.85857864376257
20
23.26194671058488
30
0
10
186.85857864376257
20
23.968970271348304
30
0
10
186.44489411565104
20
24.675993832111764
30
0
10
185.95625324046659
20
25.383017392875225
30
0
10
185.92379897746957
20
25.429976068973339
30
0
10
185.89118883549736
20
25.476934745071418
30
0
10
185.8585786437626
20
25.523893421169497
30
0
0
LINE
5
104
100
AcDbEntity
8
OUTER_PROFILES
100
AcDbLine
10
185.85857864376254
20
25.523893421169497
30
0
11
185.92928932188124
21
25.594604099288141
31
0
0
SPLINE
5
105
100
AcDbEntity
8
OUTER_PROFILES
100
AcDbSpline
70
0
71
3
72
11
73
7
74
0
42
0.000000001
43
0.0000000001
44
0.0000000001
40
1.5707963267948966
40
1.5707963267948966
40
1.5707963267948966
40
1.5707963267948966
40
1.668626901999261
40
1.668626901999261
40
1.668626901999261
40
3.1415926535897931
40
3.1415926535897931
40
3.1415926535897931
40
3.1415926535897931
10
185.92928932188113
20
25.594604099288141
30
0
10
185.97624799797921
20
25.561993907553351
30
0
10
186.0232066740773
20
25.529383765581066
30
0
10
186.07016535017544
20
25.496929502584109
30
0
10
186.77718891093889
20
25.008288627399615
30
0
10
187.48421247170231
20
24.594604099288127
30
0
10
188.19123603246572
20
24.594604099288127
30
0
0
LINE
5
106
100
AcDbEntity
8
OUTER_PROFILES
100
AcDbLine
10
188.19123603246572
20
24.594604099288127
30
0
11
204.19123603246589
21
24.594604099287949
31
0
0
SPLINE
5
107
100
AcDbEntity
8
OUTER_PROFILES
100
AcDbSpline
70
0
71
3
72
11
73
7
74
0
42
0.000000001
43
0.0000000001
44
0.0000000001
40
-3.1415926535897842
40
-3.1415926535897842
40
-3.1415926535897842
40
-3.1415926535897842
40
-3.043762078385428
40
-3.043762078385428
40
-3.043762078385428
40
-1.5707963267948966
40
-1.5707963267948966
40
-1.5707963267948966
40
-1.5707963267948966
10
204.19123603246595
20
24.594604099288127
30
0
10
204.23819470856404
20
24.594604099288127
30
0
10
204.28515338466212
20
24.596200507209183
30
0
10
204.33211206076024
20
24.599385694535307
30
0
10
205.03913562152371
20
24.647342806450467
30
0
10
205.74615918228713
20
25.103615515424629
30
0
10
206.45318274305058
20
25.594604099288141
30
0
0
LINE
5
108
100
AcDbEntity
8
OUTER_PROFILES
100
AcDbLine
10
206.45318274305058
20
25.594604099288141
30
0
11
211.45318274305055
21
30.59460409928807
31
0
0
LINE
5
109
100
AcDbEntity
8
OUTER_PROFILES
100
AcDbLine
10
211.45318274305055
20
30.59460409928807
30
0
11
211.45318274305055
21
201.45318274305055
31
0
0
LINE
5
110
100
AcDbEntity
8
OUTER_PROFILES
100
AcDbLine
10
211.45318274305055
20
201.45318274305055
30
0
11
206.45318274305058
21
206.4531827430506
31
0
0
SPLINE
5
111
100
AcDbEntity
8
OUTER_PROFILES
100
AcDbSpline
70
0
71
3
72
11
73
7
74
0
42
0.000000001
43
0.0000000001
44
0.0000000001
40
1.5707963267948966
40
1.5707963267948966
40
1.5707963267948966
40
1.5707963267948966
40
3.043762078385428
40
3.043762078385428
40
3.043762078385428
40
3.1415926535897842
40
3.1415926535897842
40
3.1415926535897842
40
3.1415926535897842
10
206.45318274305058
20
206.4531827430506
30
0
10
205.74615918228713
20
206.94417132691413
30
0
10
205.03913562152371
20
207.40044403588828
30
0
10
204.33211206076024
20
207.44840114780345
30
0
10
204.28515338466212
20
207.45158633512958
30
0
10
204.23819470856404
20
207.45318274305063
30
0
10
204.19123603246595
20
207.45318274305063
30
0
0
LINE
5
112
100
AcDbEntity
8
OUTER_PROFILES
100
AcDbLine
10
204.19123603246595
20
207.45318274305063
30
0
11
188.19123603246589
21
207.45318274305077
31
0
0
SPLINE
5
113
100
AcDbEntity
8
OUTER_PROFILES
100
AcDbSpline
70
0
71
3
72
11
73
7
74
0
42
0.000000001
43
0.0000000001
44
0.0000000001
40
-3.1415926535897931
40
-3.1415926535897931
40
-3.1415926535897931
40
-3.1415926535897931
40
-1.668626901999261
40
-1.668626901999261
40
-1.668626901999261
40
-1.5707963267948966
40
-1.5707963267948966
40
-1.5707963267948966
40
-1.5707963267948966
10
188.19123603246561
20
207.45318274305077
30
0
10
187.48421247170214
20
207.45318274305077
30
0
10
186.77718891093866
20
207.03949821493927
30
0
10
186.07016535017522
20
206.5508573397548
30
0
10
186.02320667407713
20
206.51840307675783
30
0
10
185.97624799797904
20
206.48579293478554
30
0
10
185.92928932188096
20
206.45318274305077
30
0
0
LINE
5
114
100
AcDbEntity
8
OUTER_PROFILES
100
AcDbLine
10
185.92928932188096
20
206.45318274305072
30
0
11
185.85857864376243
21
206.52389342116919
31
0
0
SPLINE
5
115
100
AcDbEntity
8
OUTER_PROFILES
100
AcDbSpline
70
0
71
3
72
11
73
7
74
0
42
0.000000001
43
0.0000000001
44
0.0000000001
40
1.5707963267948966
40
1.5707963267948966
40
1.5707963267948966
40
1.5707963267948966
40
1.668626901999261
40
1.668626901999261
40
1.668626901999261
40
3.1415926535897931
40
3.1415926535897931
40
3.1415926535897931
40
3.1415926535897931
10
185.85857864376243
20
206.52389342116919
30
0
10
185.89118883549725
20
206.57085209726731
30
0
10
185.92379897746946
20
206.61781077336542
30
0
10
185.95625324046642
20
206.66476944946351
30
0
10
186.4448941156509
20
207.37179301022695
30
0
10
186.85857864376243
20
208.0788165709904
30
0
10
186.85857864376243
20
208.78584013175384
30
0
0
LINE
5
116
100
AcDbEntity
8
OUTER_PROFILES
100
AcDbLine
10
186.85857864376243
20
208.78584013175384
30
0
11
186.85857864376243
21
224.78584013175382
31
0
0
SPLINE
5
117
100
AcDbEntity
8
OUTER_PROFILES
100
AcDbSpline
70
0
71
3
72
11
73
7
74
0
42
0.000000001
43
0.0000000001
44
0.0000000001
40
-3.1415926535897842
40
-3.1415926535897842
40
-3.1415926535897842
40
-3.1415926535897842
40
-3.043762078385428
40
-3.043762078385428
40
-3.043762078385428
40
-1.5707963267948966
40
-1.5707963267948966
40
-1.5707963267948966
40
-1.5707963267948966
10
186.85857864376243
20
224.78584013175382
30
0
10
186.85857864376243
20
224.8327988078519
30
0
10
186.85698223584137
20
224.87975748395002
30
0
10
186.85379704851522
20
224.9267161600481
30
0
10
186.80583993660008
20
225.63373972081155
30
0
10
186.34956722762595
20
226.34076328157502
30
0
10
185.85857864376243
20
227.04778684233844
30
0
0
LINE
5
118
100
AcDbEntity
8
OUTER_PROFILES
100
AcDbLine
10
185.85857864376243
20
227.04778684233844
30
0
11
180.85857864376243
21
232.04778684233861
31
0
0
LINE
5
119
100
AcDbEntity
8
OUTER_PROFILES
100
AcDbLine
10
180.85857864376243
20
232.04778684233861
30
0
11
0
21
232.04778684233861
31
0
0
LINE
5
120
100
AcDbEntity
8
OUTER_PROFILES
100
AcDbLine
10
0
20
232.04778684233861
30
0
11
-4.9999999999999298
21
227.04778684233861
31
0
0
SPLINE
5
121
100
AcDbEntity
8
OUTER_PROFILES
100
AcDbSpline
70
0
71
3
72
11
73
7
74
0
42
0.000000001
43
0.0000000001
44
0.0000000001
40
1.5707963267948966
40
1.5707963267948966
40
1.5707963267948966
40
1.5707963267948966
40
3.043762078385428
40
3.043762078385428
40
3.043762078385428
40
3.1415926535897842
40
3.1415926535897842
40
3.1415926535897842
40
3.1415926535897842
10
-4.9999999999999289
20
227.04778684233844
30
0
10
-5.4909885838634409
20
226.34076328157502
30
0
10
-5.9472612928375668
20
225.63373972081155
30
0
10
-5.9952184047527268
20
224.9267161600481
30
0
10
-5.998403592078887
20
224.87975748395002
30
0
10
-5.9999999999999432
20
224.8327988078519
30
0
10
-5.9999999999999432
20
224.78584013175382
30
0
0
LINE
5
122
100
AcDbEntity
8
OUTER_PROFILES
100
AcDbLine
10
-5.999999999999944
20
224.78584013175382
30
0
11
-6.0000000000000853
21
208.7858401317537
31
0
0
SPLINE
5
123
100
AcDbEntity
8
OUTER_PROFILES
100
AcDbSpline
70
0
71
3
72
11
73
7
74
0
42
0.000000001
43
0.0000000001
44
0.0000000001
40
-3.1415926535897931
40
-3.1415926535897931
40
-3.1415926535897931
40
-3.1415926535897931
40
-1.668626901999261
40
-1.668626901999261
40
-1.668626901999261
40
-1.5707963267948966
40
-1.5707963267948966
40
-1.5707963267948966
40
-1.5707963267948966
10
-6.0000000000000853
20
208.7858401317537
30
0
10
-6.0000000000000853
20
208.07881657099023
30
0
10
-5.586315471888561
20
207.37179301022681
30
0
10
-5.0976745967040671
20
206.66476944946336
30
0
10
-5.06522033370711
20
206.61781077336528
30
0
10
-5.0326101917348609
20
206.57085209726716
30
0
10
-5.0000000000000711
20
206.52389342116905
30
0
0
LINE
5
124
100
AcDbEntity
8
OUTER_PROFILES
100
AcDbLine
10
-5.0000000000000711
20
206.52389342116905
30
0
11
-5.0707106781187861
21
206.45318274305049
31
0
0
SPLINE
5
125
100
AcDbEntity
8
OUTER_PROFILES
100
AcDbSpline
70
0
71
3
72
11
73
7
74
0
42
0.000000001
43
0.0000000001
44
0.0000000001
40
1.5707963267948966
40
1.5707963267948966
40
1.5707963267948966
40
1.5707963267948966
40
1.668626901999261
40
1.668626901999261
40
1.668626901999261
40
3.1415926535897931
40
3.1415926535897931
40
3.1415926535897931
40
3.1415926535897931
10
-5.070710678118644
20
206.45318274305049
30
0
10
-5.1176693542167584
20
206.48579293478525
30
0
10
-5.1646280303148728
20
206.51840307675755
30
0
10
-5.2115867064129517
20
206.55085733975451
30
0
10
-5.9186102671764118
20
207.03949821493899
30
0
10
-6.6256338279398364
20
207.45318274305049
30
0
10
-7.3326573887032964
20
207.45318274305049
30
0
0
LINE
5
126
100
AcDbEntity
8
OUTER_PROFILES
100
AcDbLine
10
-7.3326573887032955
20
207.45318274305049
30
0
11
-23.332657388703488
21
207.45318274305049
31
0
0
SPLINE
5
127
100
AcDbEntity
8
OUTER_PROFILES
100
AcDbSpline
70
0
71
3
72
11
73
7
74
0
42
0.000000001
43
0.0000000001
44
0.0000000001
40
-3.1415926535897842
40
-3.1415926535897842
40
-3.1415926535897842
40
-3.1415926535897842
40
-3.043762078385428
40
-3.043762078385428
40
-3.043762078385428
40
-1.5707963267948966
40
-1.5707963267948966
40
-1.5707963267948966
40
-1.5707963267948966
10
-23.332657388703488
20
207.45318274305049
30
0
10
-23.379616064801567
20
207.45318274305049
30
0
10
-23.426574740899682
20
207.45158633512943
30
0
10
-23.473533416997761
20
207.44840114780331
30
0
10
-24.180556977761221
20
207.40044403588814
30
0
10
-24.887580538524681
20
206.94417132691399
30
0
10
-25.594604099288105
20
206.45318274305049
30
0
0
LINE
5
128
100
AcDbEntity
8
OUTER_PROFILES
100
AcDbLine
10
-25.594604099288105
20
206.45318274305049
30
0
11
-30.59460409928807
21
201.45318274305055
31
0
0
LINE
5
129
100
AcDbEntity
8
OUTER_PROFILES
100
AcDbLine
10
-30.59460409928807
20
201.45318274305055
30
0
11
-30.59460409928807
21
30.59460409928807
31
0
0
LINE
5
130
100
AcDbEntity
8
OUTER_PROFILES
100
AcDbLine
10
-30.59460409928807
20
30.59460409928807
30
0
11
-25.594604099288034
21
25.594604099287999
31
0
0
SPLINE
5
131
100
AcDbEntity
8
OUTER_PROFILES
100
AcDbSpline
70
0
71
3
72
11
73
7
74
0
42
0.000000001
43
0.0000000001
44
0.0000000001
40
1.5707963267948966
40
1.5707963267948966
40
1.5707963267948966
40
1.5707963267948966
40
3.043762078385428
40
3.043762078385428
40
3.043762078385428
40
3.1415926535897842
40
3.1415926535897842
40
3.1415926535897842
40
3.1415926535897842
10
-25.594604099288141
20
25.594604099287999
30
0
10
-24.887580538524681
20
25.103615515424487
30
0
10
-24.180556977761221
20
24.647342806450361
30
0
10
-23.473533416997796
20
24.599385694535201
30
0
10
-23.426574740899682
20
24.596200507209041
30
0
10
-23.379616064801603
20
24.594604099287984
30
0
10
-23.332657388703524
20
24.594604099287984
30
0
0
LINE
5
132
100
AcDbEntity
8
OUTER_PROFILES
100
AcDbLine
10
-23.332657388703524
20
24.594604099287988
30
0
11
-7.332657388703403
21
24.594604099287842
31
0
0
SPLINE
5
133
100
AcDbEntity
8
OUTER_PROFILES
100
AcDbSpline
70
0
71
3
72
11
73
7
74
0
42
0.000000001
43
0.0000000001
44
0.0000000001
40
-3.1415926535897931
40
-3.1415926535897931
40
-3.1415926535897931
40
-3.1415926535897931
40
-1.668626901999261
40
-1.668626901999261
40
-1.668626901999261
40
-1.5707963267948966
40
-1.5707963267948966
40
-1.5707963267948966
40
-1.5707963267948966
10
-7.3326573887031543
20
24.594604099287842
30
0
10
-6.6256338279396942
20
24.594604099287842
30
0
10
-5.9186102671762342
20
25.008288627399367
30
0
10
-5.2115867064127741
20
25.49692950258386
30
0
10
-5.1646280303146952
20
25.529383765580818
30
0
10
-5.1176693542166163
20
25.561993907553067
30
0
10
-5.0707106781185018
20
25.594604099287857
30
0
0
LINE
5
134
100
AcDbEntity
8
OUTER_PROFILES
100
AcDbLine
10
-5.0707106781185027
20
25.594604099287857
30
0
11
-4.9999999999999289
21
25.52389342116939
31
0
0
SPLINE
5
135
100
AcDbEntity
8
OUTER_PROFILES
100
AcDbSpline
70
0
71
3
72
11
73
7
74
0
42
0.000000001
43
0.0000000001
44
0.0000000001
40
1.5707963267948966
40
1.5707963267948966
40
1.5707963267948966
40
1.5707963267948966
40
1.668626901999261
40
1.668626901999261
40
1.668626901999261
40
3.1415926535897931
40
3.1415926535897931
40
3.1415926535897931
40
3.1415926535897931
10
-4.9999999999999289
20
25.52389342116939
30
0
10
-5.0326101917347188
20
25.476934745071311
30
0
10
-5.0652203337070034
20
25.429976068973197
30
0
10
-5.0976745967039605
20
25.383017392875082
30
0
10
-5.5863154718884545
20
24.675993832111622
30
0
10
-5.9999999999999432
20
23.968970271348198
30
0
10
-5.9999999999999432
20
23.261946710584773
30
0
0
LINE
5
136
100
AcDbEntity
8
OUTER_PROFILES
100
AcDbLine
10
-5.9999999999999423
20
23.261946710584773
30
0
11
-5.9999999999999432
21
7.2619467105848301
31
0
0
SPLINE
5
137
100
AcDbEntity
8
OUTER_PROFILES
100
AcDbSpline
70
0
71
3
72
11
73
7
74
0
42
0.000000001
43
0.0000000001
44
0.0000000001
40
-3.1415926535897842
40
-3.1415926535897842
40
-3.1415926535897842
40
-3.1415926535897842
40
-3.043762078385428
40
-3.043762078385428
40
-3.043762078385428
40
-1.5707963267948966
40
-1.5707963267948966
40
-1.5707963267948966
40
-1.5707963267948966
10
-5.9999999999999432
20
7.2619467105848301
30
0
10
-5.9999999999999432
20
7.2149880344867157
30
0
10
-5.998403592078887
20
7.1680293583886368
30
0
10
-5.9952184047527624
20
7.1210706822905578
30
0
10
-5.9472612928376023
20
6.4140471215270978
30
0
10
-5.4909885838634409
20
5.7070235607636377
30
0
10
-4.9999999999999289
20
5.0000000000001776
30
0
0
LINE
5
138
100
AcDbEntity
8
OUTER_PROFILES
100
AcDbLine
10
-4.9999999999999289
20
5.0000000000001785
30
0
11
0
21
0
31
0
0
LINE
5
139
100
AcDbEntity
8
OUTER_PROFILES
100
AcDbLine
10
0
20
0
30
0
11
180.85857864376243
21
0
31
0
0
LINE
5
140
100
AcDbEntity
8
BEND
100
AcDbLine
10
-5.7071067811865817
20
6.130973355292717
30
-4.0245584642661925e-15
11
186.56568542494909
21
6.130973355292717
31
-8.7430063189231078e-15
0
LINE
5
141
100
AcDbEntity
8
BEND
100
AcDbLine
10
-24.463630743995459
20
207.16028952423721
30
-3.2474023470285829e-14
11
-24.463630743995459
21
24.887497318101275
31
-2.6784130469081902e-14
0
LINE
5
142
100
AcDbEntity
8
BEND
100
AcDbLine
10
-6.2016840334111123
20
207.16028952423713
30
1.4710455076283324e-14
11
-6.2016840334111123
21
24.887497318101133
31
2.3037127760971998e-14
0
LINE
5
143
100
AcDbEntity
8
BEND
100
AcDbLine
10
-5.7071067811865817
20
24.392920065876957
30
2.1371793224034263e-14
11
186.56568542494924
21
24.392920065876957
31
1.1796119636642288e-14
0
LINE
5
144
100
AcDbEntity
8
BEND
100
AcDbLine
10
186.56568542494907
20
225.91681348704594
30
-1.1934897514720385e-14
11
-5.7071067811865817
21
225.91681348704594
31
-1.3461454173579976e-14
0
LINE
5
145
100
AcDbEntity
8
BEND
100
AcDbLine
10
186.56568542494904
20
207.65486677646166
30
2.6229018956769323e-14
11
-5.7071067811867948
21
207.65486677646166
31
2.3037127760971998e-14
0
LINE
5
146
100
AcDbEntity
8
BEND
100
AcDbLine
10
187.06026267717357
20
24.887497318101488
30
1.6930901125533637e-14
11
187.06026267717357
21
207.1602895242375
31
1.5959455978986625e-14
0
LINE
5
147
100
AcDbEntity
8
BEND
100
AcDbLine
10
205.32220938775791
20
24.887497318101417
30
-2.7755575615628888e-14
11
205.32220938775791
21
207.16028952423738
31
-3.3029134982598407e-14
0
LINE
5
148
100
AcDbEntity
8
BEND_EXTENT
100
AcDbLine
10
-4.9999999999999289
20
227.04778684233861
30
8.8817841970012523e-15
11
185.85857864376243
21
227.04778684233861
31
8.8817841970012523e-15
0
LINE
5
149
100
AcDbEntity
8
BEND_EXTENT
100
AcDbLine
10
186.8585786437626
20
224.78584013175396
30
6.6613381477509392e-15
11
-6.0000000000001208
21
224.78584013175396
31
6.6613381477509392e-15
0
LINE
5
150
100
AcDbEntity
8
BEND_EXTENT
100
AcDbLine
10
-25.594604099288034
20
25.594604099287999
30
4.4408920985006262e-15
11
-25.594604099288034
21
206.45318274305049
31
4.4408920985006262e-15
0
LINE
5
151
100
AcDbEntity
8
BEND_EXTENT
100
AcDbLine
10
-23.332657388703417
20
207.45318274305066
30
6.6613381477509392e-15
11
-23.332657388703417
21
24.594604099287949
31
6.6613381477509392e-15
0
LINE
5
152
100
AcDbEntity
8
BEND_EXTENT
100
AcDbLine
10
185.85857864376243
20
5
30
8.8817841970012523e-15
11
-4.9999999999999289
21
5
31
8.8817841970012523e-15
0
LINE
5
153
100
AcDbEntity
8
BEND_EXTENT
100
AcDbLine
10
-6.0000000000001208
20
7.2619467105846525
30
6.6613381477509392e-15
11
186.8585786437626
21
7.2619467105846525
31
6.6613381477509392e-15
0
LINE
5
154
100
AcDbEntity
8
BEND_EXTENT
100
AcDbLine
10
206.45318274305055
20
206.4531827430506
30
4.4408920985006262e-15
11
206.45318274305055
21
25.594604099288141
31
4.4408920985006262e-15
0
LINE
5
155
100
AcDbEntity
8
BEND_EXTENT
100
AcDbLine
10
204.19123603246589
20
24.594604099287949
30
6.6613381477509392e-15
11
204.19123603246589
21
207.45318274305066
31
6.6613381477509392e-15
0
LINE
5
156
100
AcDbEntity
8
BEND_EXTENT
100
AcDbLine
10
-6.0000000000000853
20
208.78584013175396
30
2.4424906541753444e-14
11
186.85857864376243
21
208.78584013175396
31
2.4424906541753444e-14
0
LINE
5
157
100
AcDbEntity
8
BEND_EXTENT
100
AcDbLine
10
188.19123603246589
20
207.45318274305077
30
6.6613381477509392e-15
11
188.19123603246589
21
24.594604099288127
31
6.6613381477509392e-15
0
LINE
5
158
100
AcDbEntity
8
BEND_EXTENT
100
AcDbLine
10
-7.332657388703403
20
24.594604099287842
30
6.6613381477509392e-15
11
-7.332657388703403
21
207.45318274305049
31
6.6613381477509392e-15
0
LINE
5
159
100
AcDbEntity
8
BEND_EXTENT
100
AcDbLine
10
186.85857864376257
20
23.261946710584667
30
2.4424906541753444e-14
11
-5.9999999999999432
21
23.261946710584667
31
2.4424906541753444e-14
0
LINE
5
160
100
AcDbEntity
8
BEND_EXTENT
100
AcDbLine
10
185.85857864376271
20
206.5238934211693
30
2.4424906541753444e-14
11
-4.9999999999999645
21
206.5238934211693
31
2.4424906541753444e-14
0
LINE
5
161
100
AcDbEntity
8
BEND_EXTENT
100
AcDbLine
10
-4.9999999999999289
20
25.523893421169284
30
2.4424906541753444e-14
11
185.85857864376243
21
25.523893421169319
31
2.4424906541753444e-14
0
LINE
5
162
100
AcDbEntity
8
BEND_EXTENT
100
AcDbLine
10
185.92928932188124
20
25.594604099288141
30
2.4424906541753444e-14
11
185.92928932188124
21
206.45318274305077
31
2.4424906541753444e-14
0
LINE
5
163
100
AcDbEntity
8
BEND_EXTENT
100
AcDbLine
10
-5.0707106781187861
20
206.45318274305049
30
2.4424906541753444e-14
11
-5.0707106781187505
21
25.594604099288105
31
2.4424906541753444e-14
0
ENDSEC
0
SECTION
2
OBJECTS
0
DICTIONARY
5
C
100
AcDbDictionary
3
ACAD_GROUP
350
D
3
ACAD_MLINESTYLE
350
17
0
DICTIONARY
5
D
100
AcDbDictionary
0
DICTIONARY
5
1A
330
C
100
AcDbDictionary
0
DICTIONARY
5
17
100
AcDbDictionary
0
ENDSEC
0
EOF
