0
SECTION
2
HEADER
9
$INSUNITS
70
4
9
$ACADVER
1
AC1014
9
$HANDSEED
5
FFFF
0
ENDSEC
0
SECTION
2
TABLES
0
TABLE
2
VPORT
5
8
100
AcDbSymbolTable
0
ENDTAB
0
TABLE
2
LTYPE
5
5
100
AcDbSymbolTable
0
LTYPE
5
14
100
AcDbSymbolTableRecord
100
AcDbLinetypeTableRecord
2
BYBLOCK
70
0
0
LTYPE
5
15
100
AcDbSymbolTableRecord
100
AcDbLinetypeTableRecord
2
BYLAYER
70
0
0
LTYPE
5
16
100
AcDbSymbolTableRecord
100
AcDbLinetypeTableRecord
2
DASHED
70
0
3
Dashed __ __ __ __ __ __ __ __ __ __ __ __ __ _
72
65
73
2
40
0.75
49
0.5
74
0
49
-0.25
74
0
0
ENDTAB
0
TABLE
2
LAYER
5
2
100
AcDbSymbolTable
70
2
0
LAYER
5
50
100
AcDbSymbolTableRecord
100
AcDbLayerTableRecord
2
0
70
0
62
7
6
CONTINUOUS
0
ENDTAB
0
TABLE
2
STYLE
5
3
100
AcDbSymbolTable
70
1
0
STYLE
5
11
100
AcDbSymbolTableRecord
100
AcDbTextStyleTableRecord
2
STANDARD
70
0
0
ENDTAB
0
TABLE
2
VIEW
5
6
100
AcDbSymbolTable
70
0
0
ENDTAB
0
TABLE
2
UCS
5
7
100
AcDbSymbolTable
70
0
0
ENDTAB
0
TABLE
2
APPID
5
9
100
AcDbSymbolTable
70
2
0
APPID
5
12
100
AcDbSymbolTableRecord
100
AcDbRegAppTableRecord
2
ACAD
70
0
0
ENDTAB
0
TABLE
2
DIMSTYLE
5
A
100
AcDbSymbolTable
70
1
0
ENDTAB
0
TABLE
2
BLOCK_RECORD
5
1
100
AcDbSymbolTable
70
1
0
BLOCK_RECORD
5
1F
100
AcDbSymbolTableRecord
100
AcDbBlockTableRecord
2
*MODEL_SPACE
0
BLOCK_RECORD
5
1B
100
AcDbSymbolTableRecord
100
AcDbBlockTableRecord
2
*PAPER_SPACE
0
ENDTAB
0
ENDSEC
0
SECTION
2
BLOCKS
0
BLOCK
5
20
100
AcDbEntity
100
AcDbBlockBegin
2
*MODEL_SPACE
0
ENDBLK
5
21
100
AcDbEntity
100
AcDbBlockEnd
0
BLOCK
5
1C
100
AcDbEntity
100
AcDbBlockBegin
2
*PAPER_SPACE
0
ENDBLK
5
1D
100
AcDbEntity
100
AcDbBlockEnd
0
ENDSEC
0
SECTION
2
ENTITIES
0
LWPOLYLINE
5
100
100
AcDbEntity
8
OUTER_PROFILES
100
AcDbPolyline
90
18
70
1
43
0.0
10
1205.0293161689444
20
582.68581328479604
10
1210.5238934211686
20
577.19123603257162
10
1210.5238934211686
20
573.33265738880914
10
1205.0293161689438
20
567.83808013658404
42
0.41421356237306561
10
1205.0293161689438
20
566.42386657421105
10
1210.5238934211675
20
560.92928932198708
10
1210.5238934211675
20
1.1013412404281553e-10
10
0
20
0
10
-2.078337502098293e-12
20
560.92928932198402
10
5.4945772522220357
20
566.4238665742082
42
0.41421356237311324
10
5.4945772522220189
20
567.83808013658131
10
-2.687849942617504e-12
20
573.33265738880596
10
-2.7700064464397656e-12
20
577.19123603256844
10
5.4945772522217338
20
582.68581328479297
42
0.4142135623730806
10
5.4945772522217098
20
584.10002684716608
10
0.070710678116145953
20
589.52389342127174
10
1210.4531827430501
20
589.52389342127492
10
1205.0293161689442
20
584.10002684716915
42
0.41421356237312451
0
CIRCLE
5
101
100
AcDbEntity
8
INTERIOR_PROFILES
100
AcDbCircle
10
-2.9999999999965796
20
537.00000000014461
30
0
40
1.7000000000000171
210
0
220
0
230
-1
0
CIRCLE
5
102
100
AcDbEntity
8
INTERIOR_PROFILES
100
AcDbCircle
10
-1196.2619467106024
20
497.00000000010141
30
0
40
6.5000000000000568
210
0
220
0
230
-1
0
CIRCLE
5
103
100
AcDbEntity
8
INTERIOR_PROFILES
100
AcDbCircle
10
-14.261946710418648
20
559.00000000011482
30
0
40
1.6999999999999993
210
0
220
0
230
-1
0
CIRCLE
5
104
100
AcDbEntity
8
INTERIOR_PROFILES
100
AcDbCircle
10
-2.9999999999977192
20
181.00000000014447
30
0
40
1.7000000000000171
210
0
220
0
230
-1
0
CIRCLE
5
105
100
AcDbEntity
8
INTERIOR_PROFILES
100
AcDbCircle
10
-2.9999999999971498
20
359.0000000001445
30
0
40
1.7000000000000171
210
0
220
0
230
-1
0
CIRCLE
5
106
100
AcDbEntity
8
INTERIOR_PROFILES
100
AcDbCircle
10
-405.26194671044715
20
3.0000000000757865
30
0
40
1.7000000000000171
210
0
220
0
230
-1
0
CIRCLE
5
107
100
AcDbEntity
8
INTERIOR_PROFILES
100
AcDbCircle
10
-105.26194671044705
20
3.0000000000749338
30
0
40
1.6999999999999993
210
0
220
0
230
-1
0
CIRCLE
5
108
100
AcDbEntity
8
INTERIOR_PROFILES
100
AcDbCircle
10
-14.261946710418769
20
497.00000000013205
30
0
40
6.5
210
0
220
0
230
-1
0
CIRCLE
5
109
100
AcDbEntity
8
INTERIOR_PROFILES
100
AcDbCircle
10
-2.9999999999982885
20
3.000000000144496
30
0
40
1.7000000000000171
210
0
220
0
230
-1
0
CIRCLE
5
110
100
AcDbEntity
8
INTERIOR_PROFILES
100
AcDbCircle
10
-1196.2619467099614
20
258.00000000001199
30
0
40
1.7000000000000171
210
0
220
0
230
-1
0
CIRCLE
5
111
100
AcDbEntity
8
INTERIOR_PROFILES
100
AcDbCircle
10
-1196.2619467106024
20
481.00000000011846
30
0
40
1.7000000000000171
210
0
220
0
230
-1
0
CIRCLE
5
112
100
AcDbEntity
8
INTERIOR_PROFILES
100
AcDbCircle
10
-1196.2619467106028
20
290.00000000011846
30
0
40
1.7000000000000171
210
0
220
0
230
-1
0
CIRCLE
5
113
100
AcDbEntity
8
INTERIOR_PROFILES
100
AcDbCircle
10
-14.261946711061654
20
44.999999999659437
30
0
40
1.6999999999999993
210
0
220
0
230
-1
0
CIRCLE
5
114
100
AcDbEntity
8
INTERIOR_PROFILES
100
AcDbCircle
10
-14.261946711061784
20
3.0000000000000426
30
0
40
1.6999999999999993
210
0
220
0
230
-1
0
CIRCLE
5
115
100
AcDbEntity
8
INTERIOR_PROFILES
100
AcDbCircle
10
-1005.261946710584
20
3.0000000000072902
30
0
40
1.7000000000000171
210
0
220
0
230
-1
0
CIRCLE
5
116
100
AcDbEntity
8
INTERIOR_PROFILES
100
AcDbCircle
10
-1196.2619467099621
20
3.0000000000035953
30
0
40
1.7000000000000171
210
0
220
0
230
-1
0
CIRCLE
5
117
100
AcDbEntity
8
INTERIOR_PROFILES
100
AcDbCircle
10
-505.26194671044709
20
3.0000000000761418
30
0
40
1.7000000000000171
210
0
220
0
230
-1
0
CIRCLE
5
118
100
AcDbEntity
8
INTERIOR_PROFILES
100
AcDbCircle
10
-14.261946711061089
20
181.000000000017
30
0
40
1.6999999999999993
210
0
220
0
230
-1
0
CIRCLE
5
119
100
AcDbEntity
8
INTERIOR_PROFILES
100
AcDbCircle
10
-14.261946710418503
20
537.000000000098
30
0
40
1.6999999999999993
210
0
220
0
230
-1
0
CIRCLE
5
120
100
AcDbEntity
8
INTERIOR_PROFILES
100
AcDbCircle
10
-1196.2619467099614
20
181.0000000000035
30
0
40
1.7000000000000171
210
0
220
0
230
-1
0
CIRCLE
5
121
100
AcDbEntity
8
INTERIOR_PROFILES
100
AcDbCircle
10
-14.261946710210632
20
481.00000000011471
30
0
40
1.6999999999999993
210
0
220
0
230
-1
0
CIRCLE
5
122
100
AcDbEntity
8
INTERIOR_PROFILES
100
AcDbCircle
10
-40.261946710589712
20
2.9999999995189341
30
0
40
1.6999999999999993
210
0
220
0
230
-1
0
CIRCLE
5
123
100
AcDbEntity
8
INTERIOR_PROFILES
100
AcDbCircle
10
-1124.261946710584
20
2.9999999999991189
30
0
40
1.7000000000000171
210
0
220
0
230
-1
0
CIRCLE
5
124
100
AcDbEntity
8
INTERIOR_PROFILES
100
AcDbCircle
10
-1196.2619467106024
20
537.00000000010164
30
0
40
1.7000000000000171
210
0
220
0
230
-1
0
CIRCLE
5
125
100
AcDbEntity
8
INTERIOR_PROFILES
100
AcDbCircle
10
-14.26194671077905
20
258.00000000000841
30
0
40
1.6999999999999993
210
0
220
0
230
-1
0
CIRCLE
5
126
100
AcDbEntity
8
INTERIOR_PROFILES
100
AcDbCircle
10
-14.261946710419057
20
359.00000000011505
30
0
40
1.6999999999999993
210
0
220
0
230
-1
0
CIRCLE
5
127
100
AcDbEntity
8
INTERIOR_PROFILES
100
AcDbCircle
10
-1196.2619467106024
20
513.00000000010164
30
0
40
1.7000000000000171
210
0
220
0
230
-1
0
CIRCLE
5
128
100
AcDbEntity
8
INTERIOR_PROFILES
100
AcDbCircle
10
-805.26194671044686
20
3.0000000000769944
30
0
40
1.7000000000000171
210
0
220
0
230
-1
0
CIRCLE
5
129
100
AcDbEntity
8
INTERIOR_PROFILES
100
AcDbCircle
10
-605.26194671044709
20
3.0000000000763549
30
0
40
1.7000000000000171
210
0
220
0
230
-1
0
CIRCLE
5
130
100
AcDbEntity
8
INTERIOR_PROFILES
100
AcDbCircle
10
-705.26194671044686
20
3.0000000000767102
30
0
40
1.7000000000000171
210
0
220
0
230
-1
0
CIRCLE
5
131
100
AcDbEntity
8
INTERIOR_PROFILES
100
AcDbCircle
10
-14.261946711061753
20
13.000000000000043
30
0
40
1.6999999999999993
210
0
220
0
230
-1
0
CIRCLE
5
132
100
AcDbEntity
8
INTERIOR_PROFILES
100
AcDbCircle
10
-1196.2619467106019
20
559.00000000010164
30
0
40
1.7000000000000171
210
0
220
0
230
-1
0
CIRCLE
5
133
100
AcDbEntity
8
INTERIOR_PROFILES
100
AcDbCircle
10
-1196.2619467099621
20
13.000000000003453
30
0
40
1.7000000000000171
210
0
220
0
230
-1
0
CIRCLE
5
134
100
AcDbEntity
8
INTERIOR_PROFILES
100
AcDbCircle
10
-1105.261946710584
20
3.0000000000075744
30
0
40
1.7000000000000171
210
0
220
0
230
-1
0
CIRCLE
5
135
100
AcDbEntity
8
INTERIOR_PROFILES
100
AcDbCircle
10
-14.261946710418719
20
513.00000000013199
30
0
40
1.6999999999999993
210
0
220
0
230
-1
0
CIRCLE
5
136
100
AcDbEntity
8
INTERIOR_PROFILES
100
AcDbCircle
10
-86.261946710589712
20
3.0000000000087823
30
0
40
1.6999999999999993
210
0
220
0
230
-1
0
CIRCLE
5
137
100
AcDbEntity
8
INTERIOR_PROFILES
100
AcDbCircle
10
-14.261946710083468
20
290.00000000011499
30
0
40
1.6999999999999993
210
0
220
0
230
-1
0
CIRCLE
5
138
100
AcDbEntity
8
INTERIOR_PROFILES
100
AcDbCircle
10
-1196.2619467106028
20
359.00000000011846
30
0
40
1.7000000000000171
210
0
220
0
230
-1
0
CIRCLE
5
139
100
AcDbEntity
8
INTERIOR_PROFILES
100
AcDbCircle
10
-1196.2619467099616
20
45.000000000003624
30
0
40
1.7000000000000171
210
0
220
0
230
-1
0
CIRCLE
5
140
100
AcDbEntity
8
INTERIOR_PROFILES
100
AcDbCircle
10
-1170.261946710584
20
2.999999999999261
30
0
40
1.7000000000000171
210
0
220
0
230
-1
0
CIRCLE
5
141
100
AcDbEntity
8
INTERIOR_PROFILES
100
AcDbCircle
10
-205.26194671044703
20
3.0000000000752891
30
0
40
1.7000000000000171
210
0
220
0
230
-1
0
CIRCLE
5
142
100
AcDbEntity
8
INTERIOR_PROFILES
100
AcDbCircle
10
-1207.52389342121
20
537.00000000015177
30
0
40
1.7000000000000171
210
0
220
0
230
-1
0
CIRCLE
5
143
100
AcDbEntity
8
INTERIOR_PROFILES
100
AcDbCircle
10
-1207.52389342121
20
181.00000000015177
30
0
40
1.7000000000000171
210
0
220
0
230
-1
0
CIRCLE
5
144
100
AcDbEntity
8
INTERIOR_PROFILES
100
AcDbCircle
10
-305.26194671044709
20
3.0000000000755733
30
0
40
1.7000000000000171
210
0
220
0
230
-1
0
CIRCLE
5
145
100
AcDbEntity
8
INTERIOR_PROFILES
100
AcDbCircle
10
-1207.52389342121
20
359.00000000015177
30
0
40
1.7000000000000171
210
0
220
0
230
-1
0
CIRCLE
5
146
100
AcDbEntity
8
INTERIOR_PROFILES
100
AcDbCircle
10
-1207.5238934212098
20
3.0000000001518146
30
0
40
1.7000000000000171
210
0
220
0
230
-1
0
LWPOLYLINE
5
147
100
AcDbEntity
8
BEND_EXTENT
100
AcDbPolyline
90
4
70
1
43
0.0
10
1203.261946710584
20
568.26194671069049
10
1203.2619467105842
20
582.26194671069049
10
7.2619467105819524
20
582.26194671068731
10
7.2619467105818742
20
568.26194671068731
0
ENDSEC
0
SECTION
2
OBJECTS
0
DICTIONARY
5
C
100
AcDbDictionary
3
ACAD_GROUP
350
D
3
ACAD_MLINESTYLE
350
17
0
DICTIONARY
5
D
100
AcDbDictionary
0
DICTIONARY
5
1A
330
C
100
AcDbDictionary
0
DICTIONARY
5
17
100
AcDbDictionary
0
ENDSEC
0
EOF
