0
SECTION
2
HEADER
9
$INSUNITS
70
4
9
$ACADVER
1
AC1014
9
$HANDSEED
5
FFFF
0
ENDSEC
0
SECTION
2
TABLES
0
TABLE
2
VPORT
5
8
100
AcDbSymbolTable
0
ENDTAB
0
TABLE
2
LTYPE
5
5
100
AcDbSymbolTable
0
LTYPE
5
14
100
AcDbSymbolTableRecord
100
AcDbLinetypeTableRecord
2
BYBLOCK
70
0
0
LTYPE
5
15
100
AcDbSymbolTableRecord
100
AcDbLinetypeTableRecord
2
BYLAYER
70
0
0
LTYPE
5
16
100
AcDbSymbolTableRecord
100
AcDbLinetypeTableRecord
2
DASHED
70
0
3
Dashed __ __ __ __ __ __ __ __ __ __ __ __ __ _
72
65
73
2
40
0.75
49
0.5
74
0
49
-0.25
74
0
0
ENDTAB
0
TABLE
2
LAYER
5
2
100
AcDbSymbolTable
70
2
0
LAYER
5
50
100
AcDbSymbolTableRecord
100
AcDbLayerTableRecord
2
0
70
0
62
7
6
CONTINUOUS
0
ENDTAB
0
TABLE
2
STYLE
5
3
100
AcDbSymbolTable
70
1
0
STYLE
5
11
100
AcDbSymbolTableRecord
100
AcDbTextStyleTableRecord
2
STANDARD
70
0
0
ENDTAB
0
TABLE
2
VIEW
5
6
100
AcDbSymbolTable
70
0
0
ENDTAB
0
TABLE
2
UCS
5
7
100
AcDbSymbolTable
70
0
0
ENDTAB
0
TABLE
2
APPID
5
9
100
AcDbSymbolTable
70
2
0
APPID
5
12
100
AcDbSymbolTableRecord
100
AcDbRegAppTableRecord
2
ACAD
70
0
0
ENDTAB
0
TABLE
2
DIMSTYLE
5
A
100
AcDbSymbolTable
70
1
0
ENDTAB
0
TABLE
2
BLOCK_RECORD
5
1
100
AcDbSymbolTable
70
1
0
BLOCK_RECORD
5
1F
100
AcDbSymbolTableRecord
100
AcDbBlockTableRecord
2
*MODEL_SPACE
0
BLOCK_RECORD
5
1B
100
AcDbSymbolTableRecord
100
AcDbBlockTableRecord
2
*PAPER_SPACE
0
ENDTAB
0
ENDSEC
0
SECTION
2
BLOCKS
0
BLOCK
5
20
100
AcDbEntity
100
AcDbBlockBegin
2
*MODEL_SPACE
0
ENDBLK
5
21
100
AcDbEntity
100
AcDbBlockEnd
0
BLOCK
5
1C
100
AcDbEntity
100
AcDbBlockBegin
2
*PAPER_SPACE
0
ENDBLK
5
1D
100
AcDbEntity
100
AcDbBlockEnd
0
ENDSEC
0
SECTION
2
ENTITIES
0
LWPOLYLINE
5
100
100
AcDbEntity
8
OUTER_PROFILES
100
AcDbPolyline
90
16
70
1
43
0.0
10
10.261946710584839
20
61.023893421169589
10
10.261946710584841
20
58.761946710584652
10
10.261946710584882
20
24.761946710584649
10
10.261946710584894
20
13.500000000000005
10
7.9999999999998845
20
13.500000000000032
10
-4.8849813083506888e-14
20
13.500000000000005
10
0
20
0
10
786.52389342116965
20
9.1482377229112899e-13
10
786.52389342116965
20
13.500000000000911
10
778.52389342116965
20
13.500000000000911
10
776.26194671058488
20
13.50000000000092
10
776.26194671058488
20
24.761946710585534
10
776.26194671058488
20
58.761946710585534
10
776.26194671058488
20
61.023893421170484
10
776.26194671058488
20
66.023893421170484
10
10.261946710584766
20
66.023893421169589
0
CIRCLE
5
101
100
AcDbEntity
8
INTERIOR_PROFILES
100
AcDbCircle
10
-17.261946710584134
20
19.76194671058467
30
0
40
1.7000000000000171
210
0
220
0
230
-1
0
CIRCLE
5
102
100
AcDbEntity
8
INTERIOR_PROFILES
100
AcDbCircle
10
-769.26194671058556
20
19.761946710585541
30
0
40
1.7000000000000171
210
0
220
0
230
-1
0
CIRCLE
5
103
100
AcDbEntity
8
INTERIOR_PROFILES
100
AcDbCircle
10
-769.26194671058556
20
44.761946710585541
30
0
40
1.7000000000000171
210
0
220
0
230
-1
0
CIRCLE
5
104
100
AcDbEntity
8
INTERIOR_PROFILES
100
AcDbCircle
10
-169.26194671058562
20
19.761946710584752
30
0
40
1.6999999999999993
210
0
220
0
230
-1
0
CIRCLE
5
105
100
AcDbEntity
8
INTERIOR_PROFILES
100
AcDbCircle
10
-187.26194671058411
20
44.761946710584766
30
0
40
1.6999999999999993
210
0
220
0
230
-1
0
CIRCLE
5
106
100
AcDbEntity
8
INTERIOR_PROFILES
100
AcDbCircle
10
-187.26194671058411
20
19.761946710584766
30
0
40
1.6999999999999993
210
0
220
0
230
-1
0
CIRCLE
5
107
100
AcDbEntity
8
INTERIOR_PROFILES
100
AcDbCircle
10
-617.2619467105842
20
19.76194671058531
30
0
40
1.7000000000000171
210
0
220
0
230
-1
0
CIRCLE
5
108
100
AcDbEntity
8
INTERIOR_PROFILES
100
AcDbCircle
10
-17.261946710584105
20
44.761946710584667
30
0
40
1.7000000000000171
210
0
220
0
230
-1
0
CIRCLE
5
109
100
AcDbEntity
8
INTERIOR_PROFILES
100
AcDbCircle
10
-169.26194671058556
20
44.761946710584752
30
0
40
1.6999999999999993
210
0
220
0
230
-1
0
CIRCLE
5
110
100
AcDbEntity
8
INTERIOR_PROFILES
100
AcDbCircle
10
-17.261946710584791
20
3.0000000000000426
30
0
40
1.6999999999999993
210
0
220
0
230
-1
0
LWPOLYLINE
5
111
100
AcDbEntity
8
INTERIOR_PROFILES
100
AcDbPolyline
90
4
70
1
43
0.0
10
693.26194671058488
20
13.500000000000822
10
693.26194671058488
20
15.761946710585493
10
766.26194671058488
20
15.761946710585519
10
766.26194671058488
20
13.500000000000902
0
CIRCLE
5
112
100
AcDbEntity
8
INTERIOR_PROFILES
100
AcDbCircle
10
-599.26194671058556
20
19.761946710585292
30
0
40
1.7000000000000171
210
0
220
0
230
-1
0
CIRCLE
5
113
100
AcDbEntity
8
INTERIOR_PROFILES
100
AcDbCircle
10
-769.26194671058499
20
3.000000000000913
30
0
40
1.7000000000000171
210
0
220
0
230
-1
0
LWPOLYLINE
5
114
100
AcDbEntity
8
INTERIOR_PROFILES
100
AcDbPolyline
90
4
70
1
43
0.0
10
20.26194671058489
20
15.761946710584711
10
93.261946710584866
20
15.761946710584747
10
93.261946710584866
20
13.500000000000103
10
20.26194671058489
20
13.500000000000041
0
CIRCLE
5
115
100
AcDbEntity
8
INTERIOR_PROFILES
100
AcDbCircle
10
-4.0000000000067137
20
3.000000000000016
30
0
40
1.7000000000000002
210
0
220
0
230
-1
0
CIRCLE
5
116
100
AcDbEntity
8
INTERIOR_PROFILES
100
AcDbCircle
10
-599.26194671058556
20
44.761946710585292
30
0
40
1.7000000000000171
210
0
220
0
230
-1
0
CIRCLE
5
117
100
AcDbEntity
8
INTERIOR_PROFILES
100
AcDbCircle
10
-617.26194671058408
20
44.761946710585306
30
0
40
1.7000000000000171
210
0
220
0
230
-1
0
CIRCLE
5
118
100
AcDbEntity
8
INTERIOR_PROFILES
100
AcDbCircle
10
-89.261946710584965
20
3.0000000000001226
30
0
40
1.6999999999999993
210
0
220
0
230
-1
0
CIRCLE
5
119
100
AcDbEntity
8
INTERIOR_PROFILES
100
AcDbCircle
10
-697.26194671058477
20
3.0000000000008242
30
0
40
1.7000000000000171
210
0
220
0
230
-1
0
CIRCLE
5
120
100
AcDbEntity
8
INTERIOR_PROFILES
100
AcDbCircle
10
-782.52389342115657
20
3.0000000000009308
30
0
40
1.7000000000000002
210
0
220
0
230
-1
0
CIRCLE
5
121
100
AcDbEntity
8
INTERIOR_PROFILES
100
AcDbCircle
10
-743.26194671058488
20
3.0000000000008775
30
0
40
1.7000000000000171
210
0
220
0
230
-1
0
CIRCLE
5
122
100
AcDbEntity
8
INTERIOR_PROFILES
100
AcDbCircle
10
-43.26194671058488
20
3.0000000000000693
30
0
40
1.6999999999999993
210
0
220
0
230
-1
0
LINE
5
123
100
AcDbEntity
8
BEND
100
AcDbLine
10
776.26194671058488
20
14.630973355293238
30
5.4469793338023076e-11
11
10.261946710584908
21
14.630973355292349
31
1.5684718973207466e-12
0
LINE
5
124
100
AcDbEntity
8
BEND
100
AcDbLine
10
777.39292006587732
20
2.2382096176443156e-12
30
5.4371224654817845e-11
11
777.39292006587732
21
13.500000000000929
31
5.4471144727034096e-11
0
LINE
5
125
100
AcDbEntity
8
BEND
100
AcDbLine
10
776.26194671058488
20
59.892920065877782
30
5.4793823718553408e-11
11
10.261946710584908
21
59.892920065876893
31
1.913473702223014e-12
0
LINE
5
126
100
AcDbEntity
8
BEND
100
AcDbLine
10
9.1309733552923191
20
-3.6415315207705135e-13
30
1.3864317110519799e-12
11
9.1309733552922889
21
13.500000000000041
31
1.4508246464802368e-12
0
LINE
5
127
100
AcDbEntity
8
BEND_EXTENT
100
AcDbLine
10
778.52389342116965
20
9.2370555648813024e-13
30
5.4397833617639062e-11
11
778.52389342116965
21
13.500000000000911
31
5.4468887891215065e-11
0
LINE
5
128
100
AcDbEntity
8
BEND_EXTENT
100
AcDbLine
10
776.26194671058488
20
13.50000000000092
30
5.4460911553826075e-11
11
776.26194671058488
21
9.2370555648813024e-13
31
5.4372510045490304e-11
0
LINE
5
129
100
AcDbEntity
8
BEND_EXTENT
100
AcDbLine
10
766.26194671058488
20
13.500000000000902
30
5.3767342123543214e-11
11
776.26194671058488
21
13.50000000000092
31
5.4460911553826075e-11
0
LINE
5
130
100
AcDbEntity
8
BEND_EXTENT
100
AcDbLine
10
10.261946710584841
20
58.761946710584652
30
1.9143063694914813e-12
11
776.26194671058488
21
58.761946710585534
31
5.4807856249021437e-11
0
LINE
5
131
100
AcDbEntity
8
BEND_EXTENT
100
AcDbLine
10
776.26194671058488
20
61.023893421170484
30
5.4712377068903673e-11
11
10.261946710584908
21
61.023893421169589
31
1.8188271893737194e-12
0
LINE
5
132
100
AcDbEntity
8
BEND_EXTENT
100
AcDbLine
10
20.26194671058489
20
15.761946710584711
30
2.2761966711675814e-12
11
10.261946710584892
21
15.761946710584702
31
1.5723576779069363e-12
0
LINE
5
133
100
AcDbEntity
8
BEND_EXTENT
100
AcDbLine
10
693.26194671058488
20
15.761946710585493
30
4.8747944802921708e-11
11
93.26194671058488
21
15.761946710584747
31
7.3147453389638736e-12
0
LINE
5
134
100
AcDbEntity
8
BEND_EXTENT
100
AcDbLine
10
776.26194671058488
20
15.761946710585599
30
5.447923023373239e-11
11
766.26194671058488
21
15.761946710585519
31
5.3786493470717998e-11
0
LINE
5
135
100
AcDbEntity
8
BEND_EXTENT
100
AcDbLine
10
93.261946710584866
20
13.500000000000103
30
7.2955939917890897e-12
11
693.26194671058488
21
13.500000000000822
31
4.8720744338818391e-11
0
LINE
5
136
100
AcDbEntity
8
BEND_EXTENT
100
AcDbLine
10
10.261946710584894
20
13.500000000000005
30
1.5643085609784041e-12
11
20.261946710584894
21
13.500000000000041
31
2.2548248779435471e-12
0
LINE
5
137
100
AcDbEntity
8
BEND_EXTENT
100
AcDbLine
10
10.261946710584768
20
3.5527136788005009e-14
30
1.4707722711537258e-12
11
10.261946710584894
21
13.500000000000005
31
1.5643085609784041e-12
0
LINE
5
138
100
AcDbEntity
8
BEND_EXTENT
100
AcDbLine
10
7.9999999999998845
20
13.500000000000032
30
1.4050643364842268e-12
11
7.9999999999999547
21
3.5527136788005009e-14
31
1.3340100629082214e-12
0
ENDSEC
0
SECTION
2
OBJECTS
0
DICTIONARY
5
C
100
AcDbDictionary
3
ACAD_GROUP
350
D
3
ACAD_MLINESTYLE
350
17
0
DICTIONARY
5
D
100
AcDbDictionary
0
DICTIONARY
5
1A
330
C
100
AcDbDictionary
0
DICTIONARY
5
17
100
AcDbDictionary
0
ENDSEC
0
EOF
