0
SECTION
2
HEADER
9
$INSUNITS
70
4
9
$ACADVER
1
AC1014
9
$HANDSEED
5
FFFF
0
ENDSEC
0
SECTION
2
TABLES
0
TABLE
2
VPORT
5
8
100
AcDbSymbolTable
0
ENDTAB
0
TABLE
2
LTYPE
5
5
100
AcDbSymbolTable
0
LTYPE
5
14
100
AcDbSymbolTableRecord
100
AcDbLinetypeTableRecord
2
BYBLOCK
70
0
0
LTYPE
5
15
100
AcDbSymbolTableRecord
100
AcDbLinetypeTableRecord
2
BYLAYER
70
0
0
LTYPE
5
16
100
AcDbSymbolTableRecord
100
AcDbLinetypeTableRecord
2
DASHED
70
0
3
Dashed __ __ __ __ __ __ __ __ __ __ __ __ __ _
72
65
73
2
40
0.75
49
0.5
74
0
49
-0.25
74
0
0
ENDTAB
0
TABLE
2
LAYER
5
2
100
AcDbSymbolTable
70
2
0
LAYER
5
50
100
AcDbSymbolTableRecord
100
AcDbLayerTableRecord
2
0
70
0
62
7
6
CONTINUOUS
0
ENDTAB
0
TABLE
2
STYLE
5
3
100
AcDbSymbolTable
70
1
0
STYLE
5
11
100
AcDbSymbolTableRecord
100
AcDbTextStyleTableRecord
2
STANDARD
70
0
0
ENDTAB
0
TABLE
2
VIEW
5
6
100
AcDbSymbolTable
70
0
0
ENDTAB
0
TABLE
2
UCS
5
7
100
AcDbSymbolTable
70
0
0
ENDTAB
0
TABLE
2
APPID
5
9
100
AcDbSymbolTable
70
2
0
APPID
5
12
100
AcDbSymbolTableRecord
100
AcDbRegAppTableRecord
2
ACAD
70
0
0
ENDTAB
0
TABLE
2
DIMSTYLE
5
A
100
AcDbSymbolTable
70
1
0
ENDTAB
0
TABLE
2
BLOCK_RECORD
5
1
100
AcDbSymbolTable
70
1
0
BLOCK_RECORD
5
1F
100
AcDbSymbolTableRecord
100
AcDbBlockTableRecord
2
*MODEL_SPACE
0
BLOCK_RECORD
5
1B
100
AcDbSymbolTableRecord
100
AcDbBlockTableRecord
2
*PAPER_SPACE
0
ENDTAB
0
ENDSEC
0
SECTION
2
BLOCKS
0
BLOCK
5
20
100
AcDbEntity
100
AcDbBlockBegin
2
*MODEL_SPACE
0
ENDBLK
5
21
100
AcDbEntity
100
AcDbBlockEnd
0
BLOCK
5
1C
100
AcDbEntity
100
AcDbBlockBegin
2
*PAPER_SPACE
0
ENDBLK
5
1D
100
AcDbEntity
100
AcDbBlockEnd
0
ENDSEC
0
SECTION
2
ENTITIES
0
LWPOLYLINE
5
100
100
AcDbEntity
8
OUTER_PROFILES
100
AcDbPolyline
90
18
70
1
43
0.0
10
605.02931616894364
20
554.10002684676465
42
0.41421356237309503
10
605.02931616894375
20
552.68581328439166
10
610.52389342116828
20
547.19123603216735
10
610.52389342116828
20
543.33265738840475
10
605.02931616894352
20
537.83808013617977
42
0.41421356237309503
10
605.02931616894352
20
536.42386657380666
10
610.52389342116771
20
530.9292893215827
10
610.52389342116783
20
5.6559201766503975e-11
10
0
20
0
10
-1.5254464358349651e-12
20
530.92928932157974
10
5.4945772522225926
20
536.42386657380382
42
0.41421356237311735
10
5.4945772522225926
20
537.83808013617693
10
-2.1693757901175559e-12
20
543.33265738840157
10
-2.1083135237631723e-12
20
547.19123603216417
10
5.4945772522222827
20
552.6858132843887
42
0.41421356237307411
10
5.4945772522222969
20
554.10002684676169
10
0.070710678116665537
20
559.52389342086735
10
610.45318274304941
20
559.52389342087054
0
CIRCLE
5
101
100
AcDbEntity
8
INTERIOR_PROFILES
100
AcDbCircle
10
-3.0000000000186908
20
506.999999999696
30
0
40
1.7000000000000171
210
0
220
0
230
-1
0
CIRCLE
5
102
100
AcDbEntity
8
INTERIOR_PROFILES
100
AcDbCircle
10
-596.2619467107005
20
328.99999999970134
30
0
40
1.7000000000000171
210
0
220
0
230
-1
0
CIRCLE
5
103
100
AcDbEntity
8
INTERIOR_PROFILES
100
AcDbCircle
10
-14.261946710490104
20
450.99999999969816
30
0
40
1.6999999999999993
210
0
220
0
230
-1
0
CIRCLE
5
104
100
AcDbEntity
8
INTERIOR_PROFILES
100
AcDbCircle
10
-596.26194671059739
20
44.999999999994316
30
0
40
1.7000000000000171
210
0
220
0
230
-1
0
CIRCLE
5
105
100
AcDbEntity
8
INTERIOR_PROFILES
100
AcDbCircle
10
-14.261946710552827
20
150.99999999946584
30
0
40
1.6999999999999993
210
0
220
0
230
-1
0
CIRCLE
5
106
100
AcDbEntity
8
INTERIOR_PROFILES
100
AcDbCircle
10
-14.26194671059574
20
44.999999999990692
30
0
40
1.6999999999999993
210
0
220
0
230
-1
0
CIRCLE
5
107
100
AcDbEntity
8
INTERIOR_PROFILES
100
AcDbCircle
10
-14.261946710489848
20
466.99999999969828
30
0
40
6.5
210
0
220
0
230
-1
0
CIRCLE
5
108
100
AcDbEntity
8
INTERIOR_PROFILES
100
AcDbCircle
10
-3.0000000000196425
20
150.99999999969589
30
0
40
1.7000000000000171
210
0
220
0
230
-1
0
CIRCLE
5
109
100
AcDbEntity
8
INTERIOR_PROFILES
100
AcDbCircle
10
-3.0000000000191669
20
328.99999999969594
30
0
40
1.7000000000000171
210
0
220
0
230
-1
0
CIRCLE
5
110
100
AcDbEntity
8
INTERIOR_PROFILES
100
AcDbCircle
10
-105.26194671035634
20
4.9999999996988009
30
0
40
1.6999999999999993
210
0
220
0
230
-1
0
CIRCLE
5
111
100
AcDbEntity
8
INTERIOR_PROFILES
100
AcDbCircle
10
-596.26194671070084
20
259.99999999970134
30
0
40
1.7000000000000171
210
0
220
0
230
-1
0
CIRCLE
5
112
100
AcDbEntity
8
INTERIOR_PROFILES
100
AcDbCircle
10
-596.26194671069982
20
450.99999999970134
30
0
40
1.7000000000000171
210
0
220
0
230
-1
0
CIRCLE
5
113
100
AcDbEntity
8
INTERIOR_PROFILES
100
AcDbCircle
10
-14.261946710606967
20
4.9999999999911182
30
0
40
1.6999999999999993
210
0
220
0
230
-1
0
CIRCLE
5
114
100
AcDbEntity
8
INTERIOR_PROFILES
100
AcDbCircle
10
-14.261946710472273
20
528.99999999969816
30
0
40
1.6999999999999993
210
0
220
0
230
-1
0
CIRCLE
5
115
100
AcDbEntity
8
INTERIOR_PROFILES
100
AcDbCircle
10
-14.261946710550774
20
227.99999999996993
30
0
40
1.6999999999999993
210
0
220
0
230
-1
0
CIRCLE
5
116
100
AcDbEntity
8
INTERIOR_PROFILES
100
AcDbCircle
10
-596.26194671069936
20
528.99999999970134
30
0
40
1.7000000000000171
210
0
220
0
230
-1
0
CIRCLE
5
117
100
AcDbEntity
8
INTERIOR_PROFILES
100
AcDbCircle
10
-14.261946710489493
20
506.99999999969828
30
0
40
1.6999999999999993
210
0
220
0
230
-1
0
CIRCLE
5
118
100
AcDbEntity
8
INTERIOR_PROFILES
100
AcDbCircle
10
-596.2619467106997
20
466.9999999997014
30
0
40
6.4999999999999858
210
0
220
0
230
-1
0
CIRCLE
5
119
100
AcDbEntity
8
INTERIOR_PROFILES
100
AcDbCircle
10
-596.26194671064002
20
227.99999999969577
30
0
40
1.7000000000000171
210
0
220
0
230
-1
0
CIRCLE
5
120
100
AcDbEntity
8
INTERIOR_PROFILES
100
AcDbCircle
10
-40.261946710614666
20
4.9999999999913314
30
0
40
1.6999999999999993
210
0
220
0
230
-1
0
CIRCLE
5
121
100
AcDbEntity
8
INTERIOR_PROFILES
100
AcDbCircle
10
-596.26194671058761
20
4.9999999999942446
30
0
40
1.7000000000000171
210
0
220
0
230
-1
0
CIRCLE
5
122
100
AcDbEntity
8
INTERIOR_PROFILES
100
AcDbCircle
10
-596.26194671064025
20
150.99999999969577
30
0
40
1.7000000000000171
210
0
220
0
230
-1
0
CIRCLE
5
123
100
AcDbEntity
8
INTERIOR_PROFILES
100
AcDbCircle
10
-524.26194671058386
20
4.9999999999937472
30
0
40
1.7000000000000171
210
0
220
0
230
-1
0
CIRCLE
5
124
100
AcDbEntity
8
INTERIOR_PROFILES
100
AcDbCircle
10
-596.26194671069948
20
506.9999999997014
30
0
40
1.7000000000000171
210
0
220
0
230
-1
0
CIRCLE
5
125
100
AcDbEntity
8
INTERIOR_PROFILES
100
AcDbCircle
10
-596.26194671069959
20
482.9999999997014
30
0
40
1.7000000000000171
210
0
220
0
230
-1
0
CIRCLE
5
126
100
AcDbEntity
8
INTERIOR_PROFILES
100
AcDbCircle
10
-405.26194671058374
20
4.9999999999931788
30
0
40
1.7000000000000171
210
0
220
0
230
-1
0
CIRCLE
5
127
100
AcDbEntity
8
INTERIOR_PROFILES
100
AcDbCircle
10
-596.26194671058761
20
12.999999999994216
30
0
40
1.7000000000000171
210
0
220
0
230
-1
0
CIRCLE
5
128
100
AcDbEntity
8
INTERIOR_PROFILES
100
AcDbCircle
10
-505.26194671058374
20
4.9999999999937472
30
0
40
1.7000000000000171
210
0
220
0
230
-1
0
CIRCLE
5
129
100
AcDbEntity
8
INTERIOR_PROFILES
100
AcDbCircle
10
-570.26194671058386
20
4.9999999999940314
30
0
40
1.7000000000000171
210
0
220
0
230
-1
0
CIRCLE
5
130
100
AcDbEntity
8
INTERIOR_PROFILES
100
AcDbCircle
10
-14.261946710606983
20
12.99999999999109
30
0
40
1.6999999999999993
210
0
220
0
230
-1
0
CIRCLE
5
131
100
AcDbEntity
8
INTERIOR_PROFILES
100
AcDbCircle
10
-607.52389342116794
20
328.99999999970106
30
0
40
1.7000000000000171
210
0
220
0
230
-1
0
CIRCLE
5
132
100
AcDbEntity
8
INTERIOR_PROFILES
100
AcDbCircle
10
-607.52389342116794
20
506.99999999970112
30
0
40
1.7000000000000171
210
0
220
0
230
-1
0
CIRCLE
5
133
100
AcDbEntity
8
INTERIOR_PROFILES
100
AcDbCircle
10
-305.26194671035631
20
4.9999999996997957
30
0
40
1.7000000000000171
210
0
220
0
230
-1
0
CIRCLE
5
134
100
AcDbEntity
8
INTERIOR_PROFILES
100
AcDbCircle
10
-14.261946710489024
20
482.99999999969828
30
0
40
1.6999999999999993
210
0
220
0
230
-1
0
CIRCLE
5
135
100
AcDbEntity
8
INTERIOR_PROFILES
100
AcDbCircle
10
-14.261946710473516
20
328.99999999969822
30
0
40
1.6999999999999993
210
0
220
0
230
-1
0
CIRCLE
5
136
100
AcDbEntity
8
INTERIOR_PROFILES
100
AcDbCircle
10
-86.261946710614666
20
4.9999999999916156
30
0
40
1.6999999999999993
210
0
220
0
230
-1
0
CIRCLE
5
137
100
AcDbEntity
8
INTERIOR_PROFILES
100
AcDbCircle
10
-205.26194671058377
20
4.999999999992113
30
0
40
1.7000000000000171
210
0
220
0
230
-1
0
CIRCLE
5
138
100
AcDbEntity
8
INTERIOR_PROFILES
100
AcDbCircle
10
-607.52389342116783
20
150.99999999970109
30
0
40
1.7000000000000171
210
0
220
0
230
-1
0
CIRCLE
5
139
100
AcDbEntity
8
INTERIOR_PROFILES
100
AcDbCircle
10
-14.261946710488658
20
259.99999999969822
30
0
40
1.6999999999999993
210
0
220
0
230
-1
0
LINE
5
140
100
AcDbEntity
8
BEND
100
AcDbLine
10
604.39292006587561
20
5.6346038945775945e-11
30
1.2780306828997078e-11
11
604.39292006587573
21
537.13097335499367
31
-1.718888191520393e-11
0
LINE
5
141
100
AcDbEntity
8
BEND
100
AcDbLine
10
604.39292006587573
20
537.13097335499367
30
-1.718888191520393e-11
11
604.39292006587596
21
553.39292006557821
31
-1.7988140727624466e-11
0
LINE
5
142
100
AcDbEntity
8
BEND
100
AcDbLine
10
604.39292006587596
20
553.39292006557821
30
-1.7988140727624466e-11
11
604.39292006587584
21
559.52389342087054
31
-1.8238360085245502e-11
0
LINE
5
143
100
AcDbEntity
8
BEND
100
AcDbLine
10
6.1309733552900534
20
559.52389342086747
30
-3.0983207488380025e-11
11
6.1309733552900596
21
553.39292006557525
31
-3.0615026934392562e-11
0
LINE
5
144
100
AcDbEntity
8
BEND
100
AcDbLine
10
6.1309733552900596
20
553.39292006557525
30
-3.0615026934392562e-11
11
6.1309733552902443
21
537.1309733549906
31
-2.9815768121972021e-11
0
LINE
5
145
100
AcDbEntity
8
BEND
100
AcDbLine
10
6.1309733552902443
20
537.1309733549906
30
-2.9815768121972021e-11
11
6.1309733552920287
21
0
31
1.8559301466369359e-13
0
LINE
5
146
100
AcDbEntity
8
BEND
100
AcDbLine
10
604.7364229501303
20
553.39292006557821
30
-1.7850264869105495e-11
11
5.7874704710357605
21
553.39292006557525
31
-3.0642305745778385e-11
0
LINE
5
147
100
AcDbEntity
8
BEND
100
AcDbLine
10
604.73642295013019
20
537.13097335499367
30
-1.7216303091401007e-11
11
5.7874704710361158
21
537.1309733549906
31
-2.9824737279295822e-11
0
LINE
5
148
100
AcDbEntity
8
BEND_EXTENT
100
AcDbLine
10
5
20
0
30
1.4105688238016926e-13
11
4.9999999999984626
21
535.92928932157963
31
-2.9793888740245413e-11
0
LINE
5
149
100
AcDbEntity
8
BEND_EXTENT
100
AcDbLine
10
7.2619467105825031
20
535.99999999969828
30
-2.9745379386300282e-11
11
7.2619467105838247
21
-7.1054273576010019e-14
31
1.8879741456235906e-13
0
LINE
5
150
100
AcDbEntity
8
BEND_EXTENT
100
AcDbLine
10
603.26194671058363
20
535.99999999970134
30
-1.7166233711714391e-11
11
7.2619467105825031
21
535.99999999969828
31
-2.9745379386300282e-11
0
LINE
5
151
100
AcDbEntity
8
BEND_EXTENT
100
AcDbLine
10
603.26194671058374
20
5.6488147492927965e-11
30
1.2767943089145238e-11
11
603.26194671058363
21
535.99999999970134
31
-1.7166233711714391e-11
0
LINE
5
152
100
AcDbEntity
8
BEND_EXTENT
100
AcDbLine
10
4.9999999999977804
20
554.59460409898622
30
-3.0836461322158536e-11
11
4.9999999999977724
21
559.52389342086747
31
-3.1040738161751385e-11
0
LINE
5
153
100
AcDbEntity
8
BEND_EXTENT
100
AcDbLine
10
7.2619467105824409
20
559.52389342086747
30
-3.0961911384879669e-11
11
7.2619467105824542
21
554.52389342086747
31
-3.073370090475185e-11
0
LINE
5
154
100
AcDbEntity
8
BEND_EXTENT
100
AcDbLine
10
7.2619467105824542
20
554.52389342086747
30
-3.073370090475185e-11
11
603.26194671058352
21
554.52389342087054
31
-1.8154555230165955e-11
0
LINE
5
155
100
AcDbEntity
8
BEND_EXTENT
100
AcDbLine
10
603.26194671058352
20
554.52389342087054
30
-1.8154555230165955e-11
11
603.26194671058352
21
559.52389342087042
31
-1.8382765710293774e-11
0
LINE
5
156
100
AcDbEntity
8
BEND_EXTENT
100
AcDbLine
10
605.52389342116817
20
552.19123603216735
30
-1.7956537427548759e-11
11
605.52389342116828
21
538.33265738840464
31
-1.7253504883378587e-11
0
LWPOLYLINE
5
157
100
AcDbEntity
8
BEND_EXTENT
100
AcDbPolyline
90
4
70
1
43
0.0
10
603.26194671058363
20
538.261946710286
10
603.26194671058363
20
552.261946710286
10
7.2619467105825919
20
552.26194671028304
10
7.2619467105824977
20
538.26194671028293
0
LINE
5
158
100
AcDbEntity
8
BEND_EXTENT
100
AcDbLine
10
605.52389342116828
20
559.52389342087042
30
-1.8117421465285038e-11
11
605.52389342116828
21
554.59460409898929
31
-1.7913144625692196e-11
0
LINE
5
159
100
AcDbEntity
8
BEND_EXTENT
100
AcDbLine
10
605.52389342116771
20
535.9292893215827
30
-1.7190316274871151e-11
11
605.52389342116771
21
5.6346038945775945e-11
31
1.281568362132744e-11
0
LINE
5
160
100
AcDbEntity
8
BEND_EXTENT
100
AcDbLine
10
4.9999999999978799
20
538.33265738840157
30
-2.9892604485540884e-11
11
4.9999999999978781
21
552.19123603216428
31
-3.0595637029711059e-11
0
ENDSEC
0
SECTION
2
OBJECTS
0
DICTIONARY
5
C
100
AcDbDictionary
3
ACAD_GROUP
350
D
3
ACAD_MLINESTYLE
350
17
0
DICTIONARY
5
D
100
AcDbDictionary
0
DICTIONARY
5
1A
330
C
100
AcDbDictionary
0
DICTIONARY
5
17
100
AcDbDictionary
0
ENDSEC
0
EOF
