0
SECTION
2
HEADER
9
$INSUNITS
70
4
9
$ACADVER
1
AC1014
9
$HANDSEED
5
FFFF
0
ENDSEC
0
SECTION
2
TABLES
0
TABLE
2
VPORT
5
8
100
AcDbSymbolTable
0
ENDTAB
0
TABLE
2
LTYPE
5
5
100
AcDbSymbolTable
0
LTYPE
5
14
100
AcDbSymbolTableRecord
100
AcDbLinetypeTableRecord
2
BYBLOCK
70
0
0
LTYPE
5
15
100
AcDbSymbolTableRecord
100
AcDbLinetypeTableRecord
2
BYLAYER
70
0
0
LTYPE
5
16
100
AcDbSymbolTableRecord
100
AcDbLinetypeTableRecord
2
DASHED
70
0
3
Dashed __ __ __ __ __ __ __ __ __ __ __ __ __ _
72
65
73
2
40
0.75
49
0.5
74
0
49
-0.25
74
0
0
ENDTAB
0
TABLE
2
LAYER
5
2
100
AcDbSymbolTable
70
2
0
LAYER
5
50
100
AcDbSymbolTableRecord
100
AcDbLayerTableRecord
2
0
70
0
62
7
6
CONTINUOUS
0
ENDTAB
0
TABLE
2
STYLE
5
3
100
AcDbSymbolTable
70
1
0
STYLE
5
11
100
AcDbSymbolTableRecord
100
AcDbTextStyleTableRecord
2
STANDARD
70
0
0
ENDTAB
0
TABLE
2
VIEW
5
6
100
AcDbSymbolTable
70
0
0
ENDTAB
0
TABLE
2
UCS
5
7
100
AcDbSymbolTable
70
0
0
ENDTAB
0
TABLE
2
APPID
5
9
100
AcDbSymbolTable
70
2
0
APPID
5
12
100
AcDbSymbolTableRecord
100
AcDbRegAppTableRecord
2
ACAD
70
0
0
ENDTAB
0
TABLE
2
DIMSTYLE
5
A
100
AcDbSymbolTable
70
1
0
ENDTAB
0
TABLE
2
BLOCK_RECORD
5
1
100
AcDbSymbolTable
70
1
0
BLOCK_RECORD
5
1F
100
AcDbSymbolTableRecord
100
AcDbBlockTableRecord
2
*MODEL_SPACE
0
BLOCK_RECORD
5
1B
100
AcDbSymbolTableRecord
100
AcDbBlockTableRecord
2
*PAPER_SPACE
0
ENDTAB
0
ENDSEC
0
SECTION
2
BLOCKS
0
BLOCK
5
20
100
AcDbEntity
100
AcDbBlockBegin
2
*MODEL_SPACE
0
ENDBLK
5
21
100
AcDbEntity
100
AcDbBlockEnd
0
BLOCK
5
1C
100
AcDbEntity
100
AcDbBlockBegin
2
*PAPER_SPACE
0
ENDBLK
5
1D
100
AcDbEntity
100
AcDbBlockEnd
0
ENDSEC
0
SECTION
2
ENTITIES
0
LWPOLYLINE
5
100
100
AcDbEntity
8
OUTER_PROFILES
100
AcDbPolyline
90
32
70
1
43
0.0
10
1.9922857355655417e-13
20
16.261946710584674
10
-2.0194839173657902e-27
20
0
10
473.00000000000119
20
0
10
473.00000000000114
20
16.261946710584674
10
503.52389342117044
20
16.261946710584638
10
503.5238934211705
20
197.19123603246558
10
489.52389342117056
20
197.19123603246561
10
487.26194671058579
20
199.19123603246572
10
474.76736945836149
20
211.68581328469017
42
-0.41421356237310247
10
474.7673694583616
20
213.1000268470633
10
487.1912360324672
20
225.52389342116896
10
489.19123603246726
20
227.78584013175364
10
489.19123603246732
20
241.78584013175373
10
479.33265738870466
20
241.78584013175373
10
479.33265738870477
20
231.78584013175373
10
474.83808013648013
20
227.29126287952926
42
-0.41421356237309503
10
473.42386657410702
20
227.29126287952931
10
468.92928932188283
20
231.78584013175356
10
4.0707106781199087
20
231.78584013175384
10
-0.42386657410438427
20
227.29126287952951
42
-0.41421356237309537
10
-1.8380801364774801
20
227.29126287952951
10
-6.3326573887019446
20
231.78584013175401
10
-6.332657388702029
20
241.78584013175401
10
-16.191236032464815
20
241.78584013175396
10
-16.191236032464751
20
227.7858401317539
10
-14.191236032464733
20
225.5238934211693
10
-1.7673694583590196
20
213.1000268470635
42
-0.41421356237308771
10
-1.7673694583590343
20
211.68581328469043
10
-14.261946710583334
20
199.19123603246612
10
-16.52389342116814
20
197.19123603246601
10
-30.52389342116809
20
197.19123603246604
10
-30.523893421169014
20
16.26194671058478
0
CIRCLE
5
101
100
AcDbEntity
8
INTERIOR_PROFILES
100
AcDbCircle
10
-496.52389342116925
20
77.761946710584425
30
0
40
1.6999999999999993
210
0
220
0
230
-1
0
CIRCLE
5
102
100
AcDbEntity
8
INTERIOR_PROFILES
100
AcDbCircle
10
23.523893421164786
20
173.26194671058488
30
0
40
1.7000000000000171
210
0
220
0
230
-1
0
CIRCLE
5
103
100
AcDbEntity
8
INTERIOR_PROFILES
100
AcDbCircle
10
8.2619467105832936
20
234.7858401317506
30
0
40
1.7000000000000004
210
0
220
0
230
-1
0
CIRCLE
5
104
100
AcDbEntity
8
INTERIOR_PROFILES
100
AcDbCircle
10
-496.52389342116925
20
45.761946710584418
30
0
40
1.6999999999999993
210
0
220
0
230
-1
0
CIRCLE
5
105
100
AcDbEntity
8
INTERIOR_PROFILES
100
AcDbCircle
10
436.49999999999693
20
22.261946710584049
30
0
40
1.7000000000000171
210
0
220
0
230
1
0
CIRCLE
5
106
100
AcDbEntity
8
INTERIOR_PROFILES
100
AcDbCircle
10
-496.52389342116925
20
173.26194671058443
30
0
40
1.7000000000000171
210
0
220
0
230
-1
0
CIRCLE
5
107
100
AcDbEntity
8
INTERIOR_PROFILES
100
AcDbCircle
10
23.523893421166115
20
45.761946710584915
30
0
40
1.6999999999999993
210
0
220
0
230
-1
0
CIRCLE
5
108
100
AcDbEntity
8
INTERIOR_PROFILES
100
AcDbCircle
10
-496.5238934211693
20
109.26194671058443
30
0
40
1.6999999999999993
210
0
220
0
230
-1
0
CIRCLE
5
109
100
AcDbEntity
8
INTERIOR_PROFILES
100
AcDbCircle
10
236.49999999999835
20
22.261946710584688
30
0
40
1.7000000000000171
210
0
220
0
230
1
0
CIRCLE
5
110
100
AcDbEntity
8
INTERIOR_PROFILES
100
AcDbCircle
10
23.523893421165472
20
109.26194671058491
30
0
40
1.6999999999999993
210
0
220
0
230
-1
0
CIRCLE
5
111
100
AcDbEntity
8
INTERIOR_PROFILES
100
AcDbCircle
10
23.523893421165791
20
77.761946710584908
30
0
40
1.6999999999999993
210
0
220
0
230
-1
0
CIRCLE
5
112
100
AcDbEntity
8
INTERIOR_PROFILES
100
AcDbCircle
10
36.50000000000086
20
22.261946710584546
30
0
40
1.6999999999999815
210
0
220
0
230
1
0
CIRCLE
5
113
100
AcDbEntity
8
INTERIOR_PROFILES
100
AcDbCircle
10
-481.2619467105859
20
234.78584013175265
30
0
40
1.7000000000000171
210
0
220
0
230
-1
0
LINE
5
114
100
AcDbEntity
8
BEND
100
AcDbLine
10
488.19123603246726
20
226.65486677646132
30
1.108574325429083e-12
11
474.13097335529363
21
226.65486677646132
31
1.4335220492897157e-12
0
LINE
5
115
100
AcDbEntity
8
BEND
100
AcDbLine
10
474.13097335529363
20
226.65486677646132
30
1.4335220492897157e-12
11
-1.1309733552911183
21
226.65486677646163
31
1.4755660835764062e-12
0
LINE
5
116
100
AcDbEntity
8
BEND
100
AcDbLine
10
-1.1309733552911183
20
226.65486677646163
30
1.4755660835764062e-12
11
-15.191236032464772
21
226.65486677646163
31
1.3811859135476628e-12
0
LINE
5
117
100
AcDbEntity
8
BEND
100
AcDbLine
10
474.13097335529363
20
212.39292006587669
30
1.3966975635826386e-12
11
474.13097335529363
21
226.99836966071587
31
1.4794923459017958e-12
0
LINE
5
118
100
AcDbEntity
8
BEND
100
AcDbLine
10
474.13097335529346
20
16.261946710584603
30
9.6587308264641705e-14
11
474.13097335529363
21
212.39292006587669
31
1.3966975635826386e-12
0
LINE
5
119
100
AcDbEntity
8
BEND
100
AcDbLine
10
-1.1309733552911052
20
226.99836966071612
30
1.3451980734225919e-12
11
-1.1309733552910808
21
212.39292006587701
31
1.396697563582641e-12
0
LINE
5
120
100
AcDbEntity
8
BEND
100
AcDbLine
10
-1.1309733552910808
20
212.39292006587701
30
1.396697563582641e-12
11
-1.1309733552920487
21
16.261946710584709
31
7.5215515040608199e-14
0
LINE
5
121
100
AcDbEntity
8
BEND
100
AcDbLine
10
488.39292006587806
20
16.261946710584603
30
-1.6997822231875835e-13
11
488.39292006587817
21
198.1912360324657
31
1.1320604772817757e-12
0
LINE
5
122
100
AcDbEntity
8
BEND
100
AcDbLine
10
-15.392920065875737
20
198.19123603246609
30
1.0005420442162726e-12
11
-15.392920065876741
21
16.26194671058478
31
-3.1883899115020951e-13
0
LINE
5
123
100
AcDbEntity
8
BEND
100
AcDbLine
10
2.259324791276394e-13
20
15.130973355292348
30
5.3358326750319608e-14
11
473.00000000000114
21
15.130973355292348
31
5.3358326750319608e-14
0
LINE
5
124
100
AcDbEntity
8
BEND
100
AcDbLine
10
474.4744762395481
20
212.39292006587669
30
1.3856918609436106e-12
11
-1.4744762395454813
21
212.39292006587701
31
1.4249866860193472e-12
0
LINE
5
125
100
AcDbEntity
8
BEND_EXTENT
100
AcDbLine
10
-16.523893421169063
20
16.26194671058478
30
-3.4222834221845016e-13
11
-16.52389342116814
21
197.19123603246601
31
1.0164521331153298e-12
0
LINE
5
126
100
AcDbEntity
8
BEND_EXTENT
100
AcDbLine
10
-14.261946710583334
20
199.19123603246612
30
1.0544968914250809e-12
11
-14.261946710584345
21
16.261946710584745
31
-1.5571087408142411e-13
0
LINE
5
127
100
AcDbEntity
8
BEND_EXTENT
100
AcDbLine
10
489.52389342117056
20
197.19123603246561
30
1.0875064066913374e-12
11
489.52389342117044
21
16.261946710584567
31
-1.4460864383517355e-13
0
LINE
5
128
100
AcDbEntity
8
BEND_EXTENT
100
AcDbLine
10
487.26194671058568
20
16.261946710584674
30
-1.5571087408142461e-13
11
487.26194671058579
21
199.19123603246572
31
1.0900240282130833e-12
0
LINE
5
129
100
AcDbEntity
8
BEND_EXTENT
100
AcDbLine
10
0.070710678119799586
20
227.7858401317539
30
1.4757095230470392e-12
11
472.92928932188283
21
227.78584013175359
31
1.475709523047037e-12
0
LWPOLYLINE
5
130
100
AcDbEntity
8
BEND_EXTENT
100
AcDbPolyline
90
4
70
1
43
0.0
10
473.00000000000131
20
225.52389342116896
10
1.2789769243681803e-12
20
225.52389342116928
10
1.3230644890117715e-12
20
213.52389342116936
10
473.00000000000136
20
213.52389342116905
0
LINE
5
131
100
AcDbEntity
8
BEND_EXTENT
100
AcDbLine
10
475.3326573887046
20
227.78584013175367
30
1.4157574797172793e-12
11
489.19123603246726
21
227.78584013175364
31
1.0271794210984741e-12
0
LINE
5
132
100
AcDbEntity
8
BEND_EXTENT
100
AcDbLine
10
487.1912360324672
20
225.52389342116896
30
1.1982931997828649e-12
11
475.26194671058596
21
225.52389342116896
31
1.4825102940869049e-12
0
LINE
5
133
100
AcDbEntity
8
BEND_EXTENT
100
AcDbLine
10
475.26194671058596
20
225.52389342116896
30
1.4825102940869049e-12
11
475.26194671058596
21
213.59460409928769
31
1.4012727179561198e-12
0
LINE
5
134
100
AcDbEntity
8
BEND_EXTENT
100
AcDbLine
10
-16.191236032464751
20
227.7858401317539
30
1.4002143573725284e-12
11
-2.3326573887019997
21
227.78584013175393
31
1.3558054363875227e-12
0
LINE
5
135
100
AcDbEntity
8
BEND_EXTENT
100
AcDbLine
10
-2.261946710583421
20
225.52389342116928
30
1.4469831572989021e-12
11
-14.191236032464733
21
225.5238934211693
31
1.5535645676629172e-12
0
LINE
5
136
100
AcDbEntity
8
BEND_EXTENT
100
AcDbLine
10
-2.2619467105834712
20
213.59460409928801
30
1.4367998547441272e-12
11
-2.261946710583421
21
225.52389342116928
31
1.4469831572989021e-12
0
LINE
5
137
100
AcDbEntity
8
BEND_EXTENT
100
AcDbLine
10
-2.2619467105844655
20
16.261946710584674
30
5.7451946646605442e-14
11
-2.2619467105833695
21
211.19123603246601
31
1.4204330963371009e-12
0
LINE
5
138
100
AcDbEntity
8
BEND_EXTENT
100
AcDbLine
10
475.2619467105859
20
211.19123603246567
30
1.3849059595490936e-12
11
475.26194671058579
21
16.261946710584603
31
5.7451946646604937e-14
0
LWPOLYLINE
5
139
100
AcDbEntity
8
BEND_EXTENT
100
AcDbPolyline
90
4
70
1
43
0.0
10
473.00000000000114
20
16.261946710584674
10
473.00000000000136
20
211.2619467105844
10
1.2789769243681803e-12
20
211.26194671058468
10
1.9922857355655417e-13
20
16.261946710584674
0
LINE
5
140
100
AcDbEntity
8
BEND_EXTENT
100
AcDbLine
10
473.00000000000114
20
14.000000000000021
30
5.9811825587972508e-14
11
7.1054273576010019e-14
21
14.000000000000021
31
5.9811825587972508e-14
0
ENDSEC
0
SECTION
2
OBJECTS
0
DICTIONARY
5
C
100
AcDbDictionary
3
ACAD_GROUP
350
D
3
ACAD_MLINESTYLE
350
17
0
DICTIONARY
5
D
100
AcDbDictionary
0
DICTIONARY
5
1A
330
C
100
AcDbDictionary
0
DICTIONARY
5
17
100
AcDbDictionary
0
ENDSEC
0
EOF
