0
SECTION
2
HEADER
9
$INSUNITS
70
4
9
$ACADVER
1
AC1014
9
$HANDSEED
5
FFFF
0
ENDSEC
0
SECTION
2
TABLES
0
TABLE
2
VPORT
5
8
100
AcDbSymbolTable
0
ENDTAB
0
TABLE
2
LTYPE
5
5
100
AcDbSymbolTable
0
LTYPE
5
14
100
AcDbSymbolTableRecord
100
AcDbLinetypeTableRecord
2
BYBLOCK
70
0
0
LTYPE
5
15
100
AcDbSymbolTableRecord
100
AcDbLinetypeTableRecord
2
BYLAYER
70
0
0
LTYPE
5
16
100
AcDbSymbolTableRecord
100
AcDbLinetypeTableRecord
2
DASHED
70
0
3
Dashed __ __ __ __ __ __ __ __ __ __ __ __ __ _
72
65
73
2
40
0.75
49
0.5
74
0
49
-0.25
74
0
0
ENDTAB
0
TABLE
2
LAYER
5
2
100
AcDbSymbolTable
70
2
0
LAYER
5
50
100
AcDbSymbolTableRecord
100
AcDbLayerTableRecord
2
0
70
0
62
7
6
CONTINUOUS
0
ENDTAB
0
TABLE
2
STYLE
5
3
100
AcDbSymbolTable
70
1
0
STYLE
5
11
100
AcDbSymbolTableRecord
100
AcDbTextStyleTableRecord
2
STANDARD
70
0
0
ENDTAB
0
TABLE
2
VIEW
5
6
100
AcDbSymbolTable
70
0
0
ENDTAB
0
TABLE
2
UCS
5
7
100
AcDbSymbolTable
70
0
0
ENDTAB
0
TABLE
2
APPID
5
9
100
AcDbSymbolTable
70
2
0
APPID
5
12
100
AcDbSymbolTableRecord
100
AcDbRegAppTableRecord
2
ACAD
70
0
0
ENDTAB
0
TABLE
2
DIMSTYLE
5
A
100
AcDbSymbolTable
70
1
0
ENDTAB
0
TABLE
2
BLOCK_RECORD
5
1
100
AcDbSymbolTable
70
1
0
BLOCK_RECORD
5
1F
100
AcDbSymbolTableRecord
100
AcDbBlockTableRecord
2
*MODEL_SPACE
0
BLOCK_RECORD
5
1B
100
AcDbSymbolTableRecord
100
AcDbBlockTableRecord
2
*PAPER_SPACE
0
ENDTAB
0
ENDSEC
0
SECTION
2
BLOCKS
0
BLOCK
5
20
100
AcDbEntity
100
AcDbBlockBegin
2
*MODEL_SPACE
0
ENDBLK
5
21
100
AcDbEntity
100
AcDbBlockEnd
0
BLOCK
5
1C
100
AcDbEntity
100
AcDbBlockBegin
2
*PAPER_SPACE
0
ENDBLK
5
1D
100
AcDbEntity
100
AcDbBlockEnd
0
ENDSEC
0
SECTION
2
ENTITIES
0
LWPOLYLINE
5
100
100
AcDbEntity
8
OUTER_PROFILES
100
AcDbPolyline
90
40
70
1
43
0.0
10
-2.0000000454825795
20
842.67520384033742
10
-2.5207106781192579
20
841.54423048501872
10
-2.9707106781192749
20
840.25823048501877
10
-2.9707106781192749
20
818.91681348704992
10
-2.0707106781192408
20
815.52389342117283
10
-4.3326573887018327
20
817.52389341871049
42
0.19891236737968138
10
-5.746870951075147
20
816.93810698354605
10
-20.332657388703694
20
802.35232054591722
10
-22.594604099274989
20
799.45318260165982
10
-24.594604099460611
20
797.45318260910051
10
-24.594604099274733
20
24.59460409929406
10
-22.594604099274775
20
22.594604099294955
10
-20.332657388703623
20
20.52400020235865
10
-4.3326573887037512
20
20.524000202358437
10
-2.0707106781192408
20
22.523893421172048
10
-2.9706038969325732
20
20.261946710587505
10
-2.9706038969327153
20
4.2619467105875053
10
-2.0000000000027995
20
2.0000000000006679
10
0
20
0
10
438.85857864376146
20
-1.9984014443252818e-13
10
440.85857864376356
20
1.9999999999998996
10
441.82918254069352
20
4.2619467108566571
10
441.82918254069409
20
20.261946710587516
10
440.92928932188073
20
22.523893421172062
10
443.19123603246521
20
20.524000202358451
10
459.19123603246521
20
20.524000202358735
10
461.45318274302599
20
22.594604099294827
10
463.45318274302628
20
24.594604099292795
10
463.45318274321153
20
797.45318260910051
10
461.45318273928035
20
799.45318259791418
10
459.19123603246521
20
802.3523205459187
10
444.60544959483775
20
816.93810698354571
42
0.19891236737989534
10
443.19123603246288
20
817.52389342117272
10
440.92928932188073
20
815.52389342117283
10
441.82928932188065
20
818.91681348704981
10
441.82928932188076
20
840.25823048501877
10
441.37928932188072
20
841.54423048501872
10
440.85857866710313
20
842.67520390735751
10
438.85857877761975
20
844.6752038391744
10
-4.2887648987743887e-08
20
844.67520384038664
0
LWPOLYLINE
5
101
100
AcDbEntity
8
BEND_EXTENT
100
AcDbPolyline
90
4
70
1
43
0.0
10
440.92928932188073
20
22.523893421172062
10
440.92928932188073
20
815.52389342117283
10
-2.0707106781192408
20
815.52389342117283
10
-2.0707106781192408
20
22.523893421172119
0
ENDSEC
0
SECTION
2
OBJECTS
0
DICTIONARY
5
C
100
AcDbDictionary
3
ACAD_GROUP
350
D
3
ACAD_MLINESTYLE
350
17
0
DICTIONARY
5
D
100
AcDbDictionary
0
DICTIONARY
5
1A
330
C
100
AcDbDictionary
0
DICTIONARY
5
17
100
AcDbDictionary
0
ENDSEC
0
EOF
