0
SECTION
2
HEADER
9
$INSUNITS
70
4
9
$ACADVER
1
AC1014
9
$HANDSEED
5
FFFF
0
ENDSEC
0
SECTION
2
TABLES
0
TABLE
2
VPORT
5
8
100
AcDbSymbolTable
0
ENDTAB
0
TABLE
2
LTYPE
5
5
100
AcDbSymbolTable
0
LTYPE
5
14
100
AcDbSymbolTableRecord
100
AcDbLinetypeTableRecord
2
BYBLOCK
70
0
0
LTYPE
5
15
100
AcDbSymbolTableRecord
100
AcDbLinetypeTableRecord
2
BYLAYER
70
0
0
LTYPE
5
16
100
AcDbSymbolTableRecord
100
AcDbLinetypeTableRecord
2
DASHED
70
0
3
Dashed __ __ __ __ __ __ __ __ __ __ __ __ __ _
72
65
73
2
40
0.75
49
0.5
74
0
49
-0.25
74
0
0
ENDTAB
0
TABLE
2
LAYER
5
2
100
AcDbSymbolTable
70
2
0
LAYER
5
50
100
AcDbSymbolTableRecord
100
AcDbLayerTableRecord
2
0
70
0
62
7
6
CONTINUOUS
0
ENDTAB
0
TABLE
2
STYLE
5
3
100
AcDbSymbolTable
70
1
0
STYLE
5
11
100
AcDbSymbolTableRecord
100
AcDbTextStyleTableRecord
2
STANDARD
70
0
0
ENDTAB
0
TABLE
2
VIEW
5
6
100
AcDbSymbolTable
70
0
0
ENDTAB
0
TABLE
2
UCS
5
7
100
AcDbSymbolTable
70
0
0
ENDTAB
0
TABLE
2
APPID
5
9
100
AcDbSymbolTable
70
2
0
APPID
5
12
100
AcDbSymbolTableRecord
100
AcDbRegAppTableRecord
2
ACAD
70
0
0
ENDTAB
0
TABLE
2
DIMSTYLE
5
A
100
AcDbSymbolTable
70
1
0
ENDTAB
0
TABLE
2
BLOCK_RECORD
5
1
100
AcDbSymbolTable
70
1
0
BLOCK_RECORD
5
1F
100
AcDbSymbolTableRecord
100
AcDbBlockTableRecord
2
*MODEL_SPACE
0
BLOCK_RECORD
5
1B
100
AcDbSymbolTableRecord
100
AcDbBlockTableRecord
2
*PAPER_SPACE
0
ENDTAB
0
ENDSEC
0
SECTION
2
BLOCKS
0
BLOCK
5
20
100
AcDbEntity
100
AcDbBlockBegin
2
*MODEL_SPACE
0
ENDBLK
5
21
100
AcDbEntity
100
AcDbBlockEnd
0
BLOCK
5
1C
100
AcDbEntity
100
AcDbBlockBegin
2
*PAPER_SPACE
0
ENDBLK
5
1D
100
AcDbEntity
100
AcDbBlockEnd
0
ENDSEC
0
SECTION
2
ENTITIES
0
SPLINE
5
100
100
AcDbEntity
8
OUTER_PROFILES
100
AcDbSpline
70
0
71
3
72
11
73
7
74
0
42
0.000000001
43
0.0000000001
44
0.0000000001
40
1.5707963267949017
40
1.5707963267949017
40
1.5707963267949017
40
1.5707963267949017
40
3.0437620783854302
40
3.0437620783854302
40
3.0437620783854302
40
3.1415926535898109
40
3.1415926535898109
40
3.1415926535898109
40
3.1415926535898109
10
763.45318274305055
20
773.45318274306339
30
0
10
762.7461591822871
20
773.94417132692695
30
0
10
762.03913562152366
20
774.40044403590105
30
0
10
761.3321120607601
20
774.4484011478163
30
0
10
761.28515338466195
20
774.45158633514257
30
0
10
761.23819470856392
20
774.45318274306362
30
0
10
761.19123603246589
20
774.45318274306362
30
0
0
LINE
5
101
100
AcDbEntity
8
OUTER_PROFILES
100
AcDbLine
10
761.19123603246589
20
774.45318274306373
30
0
11
755.19123603246749
21
774.45318274306157
31
0
0
SPLINE
5
102
100
AcDbEntity
8
OUTER_PROFILES
100
AcDbSpline
70
0
71
3
72
11
73
7
74
0
42
0.000000001
43
0.0000000001
44
0.0000000001
40
-3.1415926535897931
40
-3.1415926535897931
40
-3.1415926535897931
40
-3.1415926535897931
40
-1.6686269019992677
40
-1.6686269019992677
40
-1.6686269019992677
40
-1.5707963267948966
40
-1.5707963267948966
40
-1.5707963267948966
40
-1.5707963267948966
10
755.19123603246749
20
774.45318274306157
30
0
10
754.48421247170404
20
774.45318274306157
30
0
10
753.77718891094059
20
774.03949821495007
30
0
10
753.07016535017715
20
773.55085733976568
30
0
10
753.02320667407901
20
773.51840307676855
30
0
10
752.97624799798098
20
773.48579293479634
30
0
10
752.92928932188283
20
773.45318274306169
30
0
0
LINE
5
103
100
AcDbEntity
8
OUTER_PROFILES
100
AcDbLine
10
752.92928932188283
20
773.45318274306146
30
0
11
752.85857864375748
21
773.52389342117795
31
0
0
SPLINE
5
104
100
AcDbEntity
8
OUTER_PROFILES
100
AcDbSpline
70
0
71
3
72
11
73
7
74
0
42
0.000000001
43
0.0000000001
44
0.0000000001
40
1.5707963267948966
40
1.5707963267948966
40
1.5707963267948966
40
1.5707963267948966
40
1.6686269019992677
40
1.6686269019992677
40
1.6686269019992677
40
3.1415926535897931
40
3.1415926535897931
40
3.1415926535897931
40
3.1415926535897931
10
752.85857864375748
20
773.52389342117795
30
0
10
752.89118883549224
20
773.57085209727597
30
0
10
752.92379897746446
20
773.617810773374
30
0
10
752.95625324046136
20
773.66476944947226
30
0
10
753.44489411564598
20
774.37179301023559
30
0
10
753.85857864375748
20
775.07881657099915
30
0
10
753.85857864375748
20
775.7858401317626
30
0
0
LINE
5
105
100
AcDbEntity
8
OUTER_PROFILES
100
AcDbLine
10
753.85857864375748
20
775.7858401317626
30
0
11
753.85857864376089
21
781.78584013177147
31
0
0
SPLINE
5
106
100
AcDbEntity
8
OUTER_PROFILES
100
AcDbSpline
70
0
71
3
72
11
73
7
74
0
42
0.000000001
43
0.0000000001
44
0.0000000001
40
-3.1415926535898113
40
-3.1415926535898113
40
-3.1415926535898113
40
-3.1415926535898113
40
-3.0437620783854298
40
-3.0437620783854298
40
-3.0437620783854298
40
-1.5707963267949014
40
-1.5707963267949014
40
-1.5707963267949014
40
-1.5707963267949014
10
753.85857864376089
20
781.78584013177147
30
0
10
753.85857864376089
20
781.83279880786949
30
0
10
753.85698223583984
20
781.87975748396764
30
0
10
753.8537970485138
20
781.92671616006578
30
0
10
753.80583993659855
20
782.63373972082923
30
0
10
753.34956722762445
20
783.34076328159267
30
0
10
752.85857864376089
20
784.04778684235612
30
0
0
LINE
5
107
100
AcDbEntity
8
OUTER_PROFILES
100
AcDbLine
10
752.85857864376067
20
784.04778684235612
30
0
11
747.85857864375521
21
789.04778684235851
31
0
0
LINE
5
108
100
AcDbEntity
8
OUTER_PROFILES
100
AcDbLine
10
747.85857864375521
20
789.04778684235851
30
0
11
-1.5631940186722204e-12
21
789.04778684235509
31
0
0
LINE
5
109
100
AcDbEntity
8
OUTER_PROFILES
100
AcDbLine
10
-1.5631940186722204e-12
20
789.04778684235509
30
0
11
-5.0000000000063949
21
784.04778684235055
31
0
0
SPLINE
5
110
100
AcDbEntity
8
OUTER_PROFILES
100
AcDbSpline
70
0
71
3
72
11
73
7
74
0
42
0.000000001
43
0.0000000001
44
0.0000000001
40
1.5707963267949021
40
1.5707963267949021
40
1.5707963267949021
40
1.5707963267949021
40
3.0437620783854316
40
3.0437620783854316
40
3.0437620783854316
40
3.1415926535898109
40
3.1415926535898109
40
3.1415926535898109
40
3.1415926535898109
10
-5.0000000000066791
20
784.04778684235362
30
0
10
-5.49098858387012
20
783.34076328159028
30
0
10
-5.947261292844388
20
782.63373972082672
30
0
10
-5.9952184047594415
20
781.92671616006339
30
0
10
-5.9984035920855661
20
781.87975748396525
30
0
10
-6.0000000000066223
20
781.83279880786711
30
0
10
-6.0000000000066223
20
781.78584013176896
30
0
0
LINE
5
111
100
AcDbEntity
8
OUTER_PROFILES
100
AcDbLine
10
-6.0000000000066231
20
781.78584013176896
30
0
11
-6.0000000000046327
21
775.78584013175544
31
0
0
SPLINE
5
112
100
AcDbEntity
8
OUTER_PROFILES
100
AcDbSpline
70
0
71
3
72
11
73
7
74
0
42
0.000000001
43
0.0000000001
44
0.0000000001
40
-3.1415926535897931
40
-3.1415926535897931
40
-3.1415926535897931
40
-3.1415926535897931
40
-1.6686269019992672
40
-1.6686269019992672
40
-1.6686269019992672
40
-1.5707963267948966
40
-1.5707963267948966
40
-1.5707963267948966
40
-1.5707963267948966
10
-6.0000000000046327
20
775.78584013175544
30
0
10
-6.0000000000047748
20
775.07881657099188
30
0
10
-5.5863154718932151
20
774.37179301022843
30
0
10
-5.0976745967086856
20
773.66476944946498
30
0
10
-5.0652203337118351
20
773.61781077336673
30
0
10
-5.0326101917396215
20
773.5708520972687
30
0
10
-5.0000000000046896
20
773.52389342117067
30
0
0
LINE
5
113
100
AcDbEntity
8
OUTER_PROFILES
100
AcDbLine
10
-5.0000000000046896
20
773.52389342117067
30
0
11
-5.0707106781170808
21
773.4531827430568
31
0
0
SPLINE
5
114
100
AcDbEntity
8
OUTER_PROFILES
100
AcDbSpline
70
0
71
3
72
11
73
7
74
0
42
0.000000001
43
0.0000000001
44
0.0000000001
40
1.5707963267948966
40
1.5707963267948966
40
1.5707963267948966
40
1.5707963267948966
40
1.6686269019992674
40
1.6686269019992674
40
1.6686269019992674
40
3.1415926535897931
40
3.1415926535897931
40
3.1415926535897931
40
3.1415926535897931
10
-5.0707106781170808
20
773.4531827430568
30
0
10
-5.1176693542151952
20
773.48579293479156
30
0
10
-5.1646280303133096
20
773.51840307676389
30
0
10
-5.211586706411282
20
773.5508573397608
30
0
10
-5.9186102671748131
20
774.0394982149453
30
0
10
-6.6256338279383442
20
774.4531827430568
30
0
10
-7.3326573887017332
20
774.45318274305691
30
0
0
LINE
5
115
100
AcDbEntity
8
OUTER_PROFILES
100
AcDbLine
10
-7.3326573887017323
20
774.45318274305691
30
0
11
-13.332657388715461
21
774.45318274305941
31
0
0
SPLINE
5
116
100
AcDbEntity
8
OUTER_PROFILES
100
AcDbSpline
70
0
71
3
72
11
73
7
74
0
42
0.000000001
43
0.0000000001
44
0.0000000001
40
-3.1415926535898109
40
-3.1415926535898109
40
-3.1415926535898109
40
-3.1415926535898109
40
-3.0437620783854253
40
-3.0437620783854253
40
-3.0437620783854253
40
-1.5707963267948966
40
-1.5707963267948966
40
-1.5707963267948966
40
-1.5707963267948966
10
-13.332657388715461
20
774.45318274305941
30
0
10
-13.379616064813575
20
774.45318274305941
30
0
10
-13.42657474091169
20
774.45158633513847
30
0
10
-13.473533417009662
20
774.44840114781232
30
0
10
-14.180556977773193
20
774.40044403589707
30
0
10
-14.887580538536582
20
773.94417132692297
30
0
10
-15.594604099300113
20
773.45318274305953
30
0
0
LINE
5
117
100
AcDbEntity
8
OUTER_PROFILES
100
AcDbLine
10
-15.594604099300112
20
773.45318274305941
30
0
11
-20.594604099302245
21
768.45318274305464
31
0
0
LINE
5
118
100
AcDbEntity
8
OUTER_PROFILES
100
AcDbLine
10
-20.594604099302245
20
768.45318274305464
30
0
11
-20.594604099300255
21
20.594604099299829
31
0
0
LINE
5
119
100
AcDbEntity
8
OUTER_PROFILES
100
AcDbLine
10
-20.594604099300255
20
20.594604099299829
30
0
11
-15.594604099305514
21
15.59460409929544
31
0
0
SPLINE
5
120
100
AcDbEntity
8
OUTER_PROFILES
100
AcDbSpline
70
0
71
3
72
11
73
7
74
0
42
0.000000001
43
0.0000000001
44
0.0000000001
40
1.5707963267948966
40
1.5707963267948966
40
1.5707963267948966
40
1.5707963267948966
40
3.0437620783854258
40
3.0437620783854258
40
3.0437620783854258
40
3.1415926535898109
40
3.1415926535898109
40
3.1415926535898109
40
3.1415926535898109
10
-15.594604099305514
20
15.59460409929544
30
0
10
-14.887580538542124
20
15.103615515432001
30
0
10
-14.180556977778593
20
14.647342806457877
30
0
10
-13.473533417015204
20
14.599385694542683
30
0
10
-13.42657474091709
20
14.596200507216558
30
0
10
-13.379616064818975
20
14.594604099295431
30
0
10
-13.332657388720861
20
14.594604099295431
30
0
0
LINE
5
121
100
AcDbEntity
8
OUTER_PROFILES
100
AcDbLine
10
-13.332657388720863
20
14.594604099295431
30
0
11
-7.3326573887102597
21
14.594604099297799
31
0
0
SPLINE
5
122
100
AcDbEntity
8
OUTER_PROFILES
100
AcDbSpline
70
0
71
3
72
11
73
7
74
0
42
0.000000001
43
0.0000000001
44
0.0000000001
40
-3.1415926535897931
40
-3.1415926535897931
40
-3.1415926535897931
40
-3.1415926535897931
40
-1.6686269019992668
40
-1.6686269019992668
40
-1.6686269019992668
40
-1.5707963267948966
40
-1.5707963267948966
40
-1.5707963267948966
40
-1.5707963267948966
10
-7.3326573887102597
20
14.594604099297799
30
0
10
-6.6256338279467286
20
14.594604099297801
30
0
10
-5.9186102671833396
20
15.008288627409364
30
0
10
-5.2115867064199506
20
15.496929502593824
30
0
10
-5.164628030321694
20
15.529383765590817
30
0
10
-5.1176693542237217
20
15.561993907563032
30
0
10
-5.0707106781256073
20
15.594604099297822
30
0
0
LINE
5
123
100
AcDbEntity
8
OUTER_PROFILES
100
AcDbLine
10
-5.0707106781256082
20
15.594604099297824
30
0
11
-5.0000000000024158
21
15.523893421179462
31
0
0
SPLINE
5
124
100
AcDbEntity
8
OUTER_PROFILES
100
AcDbSpline
70
0
71
3
72
11
73
7
74
0
42
0.000000001
43
0.0000000001
44
0.0000000001
40
1.5707963267948966
40
1.5707963267948966
40
1.5707963267948966
40
1.5707963267948966
40
1.6686269019992668
40
1.6686269019992668
40
1.6686269019992668
40
3.1415926535897931
40
3.1415926535897931
40
3.1415926535897931
40
3.1415926535897931
10
-5.0000000000014211
20
15.523893421181025
30
0
10
-5.0326101917362109
20
15.476934745082911
30
0
10
-5.0652203337084245
20
15.429976068984868
30
0
10
-5.0976745967054171
20
15.383017392886682
30
0
10
-5.5863154718898045
20
14.67599383212322
30
0
10
-6.0000000000013642
20
13.968970271359758
30
0
10
-6.0000000000015064
20
13.261946710596298
30
0
0
LINE
5
125
100
AcDbEntity
8
OUTER_PROFILES
100
AcDbLine
10
-6.0000000000015055
20
13.2619467105963
30
0
11
-6.0000000000053433
21
7.2619467105872912
31
0
0
SPLINE
5
126
100
AcDbEntity
8
OUTER_PROFILES
100
AcDbSpline
70
0
71
3
72
11
73
7
74
0
42
0.000000001
43
0.0000000001
44
0.0000000001
40
-3.1415926535898104
40
-3.1415926535898104
40
-3.1415926535898104
40
-3.1415926535898104
40
-3.0437620783854311
40
-3.0437620783854311
40
-3.0437620783854311
40
-1.570796326794901
40
-1.570796326794901
40
-1.570796326794901
40
-1.570796326794901
10
-6.0000000000053433
20
7.2619467105872912
30
0
10
-6.0000000000053433
20
7.2149880344891892
30
0
10
-5.9984035920842871
20
7.1680293583910846
30
0
10
-5.9952184047581625
20
7.1210706822929808
30
0
10
-5.947261292843109
20
6.4140471215295003
30
0
10
-5.490988583868841
20
5.7070235607660837
30
0
10
-5.0000000000054001
20
5.0000000000026308
30
0
0
LINE
5
127
100
AcDbEntity
8
OUTER_PROFILES
100
AcDbLine
10
-5.000000000005401
20
5.0000000000026326
30
0
11
0
21
0
31
0
0
LINE
5
128
100
AcDbEntity
8
OUTER_PROFILES
100
AcDbLine
10
0
20
0
30
0
11
747.85857864375782
21
-2.2204460492503131e-15
31
0
0
LINE
5
129
100
AcDbEntity
8
OUTER_PROFILES
100
AcDbLine
10
747.85857864375782
20
-2.2204460492503131e-15
30
0
11
752.85857864376317
21
5.0000000000046345
31
0
0
SPLINE
5
130
100
AcDbEntity
8
OUTER_PROFILES
100
AcDbSpline
70
0
71
3
72
11
73
7
74
0
42
0.000000001
43
0.0000000001
44
0.0000000001
40
1.5707963267949019
40
1.5707963267949019
40
1.5707963267949019
40
1.5707963267949019
40
3.0437620783854289
40
3.0437620783854289
40
3.0437620783854289
40
3.14159265358981
40
3.14159265358981
40
3.14159265358981
40
3.14159265358981
10
752.85857864376317
20
5.0000000000017186
30
0
10
753.34956722762649
20
5.7070235607651743
30
0
10
753.80583993660082
20
6.4140471215286485
30
0
10
753.85379704851584
20
7.1210706822920775
30
0
10
753.856982235842
20
7.1680293583901786
30
0
10
753.85857864376305
20
7.2149880344882797
30
0
10
753.85857864376305
20
7.2619467105863826
30
0
0
LINE
5
131
100
AcDbEntity
8
OUTER_PROFILES
100
AcDbLine
10
753.85857864376317
20
7.2619467105863809
30
0
11
753.85857864376032
21
13.261946710583903
31
0
0
SPLINE
5
132
100
AcDbEntity
8
OUTER_PROFILES
100
AcDbSpline
70
0
71
3
72
11
73
7
74
0
42
0.000000001
43
0.0000000001
44
0.0000000001
40
-3.1415926535897931
40
-3.1415926535897931
40
-3.1415926535897931
40
-3.1415926535897931
40
-1.6686269019992692
40
-1.6686269019992692
40
-1.6686269019992692
40
-1.5707963267948966
40
-1.5707963267948966
40
-1.5707963267948966
40
-1.5707963267948966
10
753.85857864376032
20
13.261946710583903
30
0
10
753.85857864376044
20
13.968970271347363
30
0
10
753.44489411564894
20
14.675993832110823
30
0
10
752.95625324046443
20
15.383017392874281
30
0
10
752.92379897746741
20
15.429976068972396
30
0
10
752.8911888354952
20
15.476934745070439
30
0
10
752.85857864376044
20
15.523893421168554
30
0
0
LINE
5
133
100
AcDbEntity
8
OUTER_PROFILES
100
AcDbLine
10
752.85857864376021
20
15.523893421168552
30
0
11
752.92928932188283
21
15.594604099298637
31
0
0
SPLINE
5
134
100
AcDbEntity
8
OUTER_PROFILES
100
AcDbSpline
70
0
71
3
72
11
73
7
74
0
42
0.000000001
43
0.0000000001
44
0.0000000001
40
1.5707963267948966
40
1.5707963267948966
40
1.5707963267948966
40
1.5707963267948966
40
1.6686269019992692
40
1.6686269019992692
40
1.6686269019992692
40
3.1415926535897931
40
3.1415926535897931
40
3.1415926535897931
40
3.1415926535897931
10
752.92928932188283
20
15.594604099298637
30
0
10
752.97624799798098
20
15.561993907563847
30
0
10
753.02320667407912
20
15.529383765591634
30
0
10
753.07016535017726
20
15.496929502594641
30
0
10
753.77718891094059
20
15.008288627410185
30
0
10
754.48421247170415
20
14.594604099298627
30
0
10
755.19123603246749
20
14.594604099298632
30
0
0
LINE
5
135
100
AcDbEntity
8
OUTER_PROFILES
100
AcDbLine
10
755.19123603246749
20
14.594604099298632
30
0
11
761.19123603247226
21
14.594604099294317
31
0
0
SPLINE
5
136
100
AcDbEntity
8
OUTER_PROFILES
100
AcDbSpline
70
0
71
3
72
11
73
7
74
0
42
0.000000001
43
0.0000000001
44
0.0000000001
40
-3.1415926535898109
40
-3.1415926535898109
40
-3.1415926535898109
40
-3.1415926535898109
40
-3.0437620783854284
40
-3.0437620783854284
40
-3.0437620783854284
40
-1.5707963267949017
40
-1.5707963267949017
40
-1.5707963267949017
40
-1.5707963267949017
10
761.19123603247226
20
14.594604099294317
30
0
10
761.2381947085704
20
14.594604099294317
30
0
10
761.28515338466855
20
14.596200507215373
30
0
10
761.33211206076669
20
14.599385694541498
30
0
10
762.03913562153002
20
14.647342806456695
30
0
10
762.74615918229347
20
15.103615515430898
30
0
10
763.45318274305691
20
15.594604099294411
30
0
0
LINE
5
137
100
AcDbEntity
8
OUTER_PROFILES
100
AcDbLine
10
763.45318274305691
20
15.594604099294411
30
0
11
768.45318274305828
21
20.594604099300255
31
0
0
LINE
5
138
100
AcDbEntity
8
OUTER_PROFILES
100
AcDbLine
10
768.45318274305828
20
20.594604099300255
30
0
11
768.45318274305566
21
768.45318274305885
31
0
0
LINE
5
139
100
AcDbEntity
8
OUTER_PROFILES
100
AcDbLine
10
768.45318274305566
20
768.45318274305885
30
0
11
763.45318274305055
21
773.45318274306339
31
0
0
LINE
5
140
100
AcDbEntity
8
BEND
100
AcDbLine
10
-6.2016840334153756
20
774.16028952424631
30
1.105158150865007e-11
11
-6.2016840334132439
21
14.887497318113532
31
5.7622014635796681e-12
0
LINE
5
141
100
AcDbEntity
8
BEND
100
AcDbLine
10
762.32220938762907
20
14.887497318041248
30
6.1369441694127369e-12
11
762.32220938762657
21
774.16028952431486
31
6.1433279518043373e-12
0
LINE
5
142
100
AcDbEntity
8
BEND
100
AcDbLine
10
-5.7071067811885712
20
14.392920065887537
30
5.800370935664004e-12
11
753.56568542494165
21
14.392920065887164
31
5.8178933130705113e-12
0
LINE
5
143
100
AcDbEntity
8
BEND
100
AcDbLine
10
753.56568542569926
20
782.91681348553254
30
8.2716249753699851e-12
11
-5.7071067819451571
21
782.91681348553016
31
8.1992853361230234e-12
0
LINE
5
144
100
AcDbEntity
8
BEND
100
AcDbLine
10
-5.7071067809019382
20
6.1309733547043574
30
8.2690906087960474e-12
11
753.56568542465948
21
6.1309733547033325
31
8.466469116192007e-12
0
LINE
5
145
100
AcDbEntity
8
BEND
100
AcDbLine
10
753.56568542494426
20
774.65486677647073
30
5.7394838119563629e-12
11
-5.7071067811936871
21
774.65486677646777
31
5.7594314616309481e-12
0
LINE
5
146
100
AcDbEntity
8
BEND
100
AcDbLine
10
-14.463630744297973
20
774.16028952410352
30
6.4415242177445721e-12
11
-14.463630744295841
21
14.887497318247824
31
6.5972329969482648e-12
0
LINE
5
147
100
AcDbEntity
8
BEND
100
AcDbLine
10
754.06026267717141
20
14.887497318113978
30
5.4601294989979056e-12
11
754.06026267716868
21
774.16028952424494
31
5.4518028263132169e-12
0
LINE
5
148
100
AcDbEntity
8
BEND_EXTENT
100
AcDbLine
10
763.45318274305055
20
773.45318274306339
30
4.4861542197311433e-12
11
763.45318274305328
21
15.594604099294429
31
4.4506270829431375e-12
0
LINE
5
149
100
AcDbEntity
8
BEND_EXTENT
100
AcDbLine
10
761.19123603246862
20
14.594604099297728
30
5.29056498095611e-12
11
761.19123603246612
21
774.45318274306044
31
5.2905649809561108e-12
0
LINE
5
150
100
AcDbEntity
8
BEND_EXTENT
100
AcDbLine
10
-5.0000000000063949
20
784.04778684235055
30
6.7070938984236285e-12
11
752.85857864376101
21
784.04778684235293
31
6.7827288140727493e-12
0
LINE
5
151
100
AcDbEntity
8
BEND_EXTENT
100
AcDbLine
10
753.85857864375771
20
781.78584013176817
30
7.2110055356405241e-12
11
-6.0000000000042064
21
781.78584013176578
31
7.1314684597679755e-12
0
LINE
5
152
100
AcDbEntity
8
BEND_EXTENT
100
AcDbLine
10
-15.59460409929514
20
15.59460409929544
30
4.6849009269733756e-12
11
-15.594604099297413
21
773.45318274305953
31
4.6227284375943676e-12
0
LINE
5
153
100
AcDbEntity
8
BEND_EXTENT
100
AcDbLine
10
-13.332657388712619
20
774.45318274305737
30
5.4991953356518878e-12
11
-13.332657388710487
21
14.594604099298039
31
5.6413038828039063e-12
0
LINE
5
154
100
AcDbEntity
8
BEND_EXTENT
100
AcDbLine
10
752.85857864376317
20
5.0000000000046345
30
6.7560834614817447e-12
11
-5.0000000000054001
21
5.0000000000055245
31
6.7381801431131329e-12
0
LINE
5
155
100
AcDbEntity
8
BEND_EXTENT
100
AcDbLine
10
-6.0000000000022169
20
7.2619467105902427
30
7.1314684597679739e-12
11
753.85857864376067
21
7.2619467105892337
31
7.2110055356405233e-12
0
LINE
5
156
100
AcDbEntity
8
BEND_EXTENT
100
AcDbLine
10
755.19123603246101
20
774.45318274306157
30
5.3632354501573403e-12
11
755.19123603246373
21
14.594604099298607
31
5.3632354501573395e-12
0
LINE
5
157
100
AcDbEntity
8
BEND_EXTENT
100
AcDbLine
10
753.85857864376032
20
13.261946710594238
30
6.0030828848483529e-12
11
-6.0000000000013642
21
13.261946710595307
31
5.9235458089758036e-12
0
LINE
5
158
100
AcDbEntity
8
BEND_EXTENT
100
AcDbLine
10
-6.0000000000046327
20
775.78584013176078
30
5.9235458089758052e-12
11
753.85857864375771
21
775.78584013176328
31
6.0030828848483538e-12
0
LINE
5
159
100
AcDbEntity
8
BEND_EXTENT
100
AcDbLine
10
-7.3326573887055702
20
14.59460409929787
30
5.7107419607546969e-12
11
-7.3326573887075597
21
774.4531827430568
31
5.6396876871786876e-12
0
LINE
5
160
100
AcDbEntity
8
BEND_EXTENT
100
AcDbLine
10
752.92928932187942
20
15.594604099297927
30
5.4348990151297037e-12
11
752.9292893218759
21
773.45318274306021
31
5.4351765708858608e-12
0
LINE
5
161
100
AcDbEntity
8
BEND_EXTENT
100
AcDbLine
10
752.85857864375748
20
773.52389342117874
30
5.4351956179339663e-12
11
-5.0000000000035527
21
773.52389342117613
31
5.6393369044903842e-12
0
LINE
5
162
100
AcDbEntity
8
BEND_EXTENT
100
AcDbLine
10
-5.0707106781229072
20
773.4531827430568
30
5.6393559515384889e-12
11
-5.0707106781207756
21
15.594604099297982
31
5.6390783957823326e-12
0
LINE
5
163
100
AcDbEntity
8
BEND_EXTENT
100
AcDbLine
10
-5.0000000000024158
20
15.523893421179462
30
5.6390593487342271e-12
11
752.85857864376021
21
15.523893421178785
31
5.4349180621778092e-12
0
ENDSEC
0
SECTION
2
OBJECTS
0
DICTIONARY
5
C
100
AcDbDictionary
3
ACAD_GROUP
350
D
3
ACAD_MLINESTYLE
350
17
0
DICTIONARY
5
D
100
AcDbDictionary
0
DICTIONARY
5
1A
330
C
100
AcDbDictionary
0
DICTIONARY
5
17
100
AcDbDictionary
0
ENDSEC
0
EOF
