0
SECTION
2
HEADER
9
$INSUNITS
70
4
9
$ACADVER
1
AC1014
9
$HANDSEED
5
FFFF
0
ENDSEC
0
SECTION
2
TABLES
0
TABLE
2
VPORT
5
8
100
AcDbSymbolTable
0
ENDTAB
0
TABLE
2
LTYPE
5
5
100
AcDbSymbolTable
0
LTYPE
5
14
100
AcDbSymbolTableRecord
100
AcDbLinetypeTableRecord
2
BYBLOCK
70
0
0
LTYPE
5
15
100
AcDbSymbolTableRecord
100
AcDbLinetypeTableRecord
2
BYLAYER
70
0
0
LTYPE
5
16
100
AcDbSymbolTableRecord
100
AcDbLinetypeTableRecord
2
DASHED
70
0
3
Dashed __ __ __ __ __ __ __ __ __ __ __ __ __ _
72
65
73
2
40
0.75
49
0.5
74
0
49
-0.25
74
0
0
ENDTAB
0
TABLE
2
LAYER
5
2
100
AcDbSymbolTable
70
2
0
LAYER
5
50
100
AcDbSymbolTableRecord
100
AcDbLayerTableRecord
2
0
70
0
62
7
6
CONTINUOUS
0
ENDTAB
0
TABLE
2
STYLE
5
3
100
AcDbSymbolTable
70
1
0
STYLE
5
11
100
AcDbSymbolTableRecord
100
AcDbTextStyleTableRecord
2
STANDARD
70
0
0
ENDTAB
0
TABLE
2
VIEW
5
6
100
AcDbSymbolTable
70
0
0
ENDTAB
0
TABLE
2
UCS
5
7
100
AcDbSymbolTable
70
0
0
ENDTAB
0
TABLE
2
APPID
5
9
100
AcDbSymbolTable
70
2
0
APPID
5
12
100
AcDbSymbolTableRecord
100
AcDbRegAppTableRecord
2
ACAD
70
0
0
ENDTAB
0
TABLE
2
DIMSTYLE
5
A
100
AcDbSymbolTable
70
1
0
ENDTAB
0
TABLE
2
BLOCK_RECORD
5
1
100
AcDbSymbolTable
70
1
0
BLOCK_RECORD
5
1F
100
AcDbSymbolTableRecord
100
AcDbBlockTableRecord
2
*MODEL_SPACE
0
BLOCK_RECORD
5
1B
100
AcDbSymbolTableRecord
100
AcDbBlockTableRecord
2
*PAPER_SPACE
0
ENDTAB
0
ENDSEC
0
SECTION
2
BLOCKS
0
BLOCK
5
20
100
AcDbEntity
100
AcDbBlockBegin
2
*MODEL_SPACE
0
ENDBLK
5
21
100
AcDbEntity
100
AcDbBlockEnd
0
BLOCK
5
1C
100
AcDbEntity
100
AcDbBlockBegin
2
*PAPER_SPACE
0
ENDBLK
5
1D
100
AcDbEntity
100
AcDbBlockEnd
0
ENDSEC
0
SECTION
2
ENTITIES
0
SPLINE
5
100
100
AcDbEntity
8
OUTER_PROFILES
100
AcDbSpline
70
0
71
3
72
11
73
7
74
0
42
0.000000001
43
0.0000000001
44
0.0000000001
40
-3.1415926535897931
40
-3.1415926535897931
40
-3.1415926535897931
40
-3.1415926535897931
40
-3.0437620783853943
40
-3.0437620783853943
40
-3.0437620783853943
40
-1.5707963267948679
40
-1.5707963267948679
40
-1.5707963267948679
40
-1.5707963267948679
10
753.85857864375907
20
781.78584013175498
30
0
10
753.85857864375907
20
781.83279880785312
30
0
10
753.85698223583802
20
781.87975748395115
30
0
10
753.85379704851186
20
781.9267161600493
30
0
10
753.80583993659684
20
782.63373972081263
30
0
10
753.34956722762274
20
783.34076328157619
30
0
10
752.85857864375907
20
784.04778684233963
30
0
0
LINE
5
101
100
AcDbEntity
8
OUTER_PROFILES
100
AcDbLine
10
752.85857864375896
20
784.04778684233963
30
0
11
747.85857864375987
21
789.04778684233736
31
0
0
LINE
5
102
100
AcDbEntity
8
OUTER_PROFILES
100
AcDbLine
10
747.85857864375987
20
789.04778684233736
30
0
11
-1.8474111129762605e-12
21
789.04778684233452
31
0
0
LINE
5
103
100
AcDbEntity
8
OUTER_PROFILES
100
AcDbLine
10
-1.8474111129762605e-12
20
789.04778684233452
30
0
11
-5.0000000000019895
21
784.04778684233759
31
0
0
SPLINE
5
104
100
AcDbEntity
8
OUTER_PROFILES
100
AcDbSpline
70
0
71
3
72
11
73
7
74
0
42
0.000000001
43
0.0000000001
44
0.0000000001
40
1.570796326794869
40
1.570796326794869
40
1.570796326794869
40
1.570796326794869
40
3.0437620783853956
40
3.0437620783853956
40
3.0437620783853956
40
3.1415926535897931
40
3.1415926535897931
40
3.1415926535897931
40
3.1415926535897931
10
-5.0000000000019895
20
784.04778684233759
30
0
10
-5.4909885838655725
20
783.34076328157403
30
0
10
-5.9472612928396984
20
782.63373972081058
30
0
10
-5.995218404754894
20
781.92671616004714
30
0
10
-5.9984035920808765
20
781.87975748394911
30
0
10
-6.0000000000019327
20
781.83279880785096
30
0
10
-6.0000000000019327
20
781.78584013175282
30
0
0
LINE
5
105
100
AcDbEntity
8
OUTER_PROFILES
100
AcDbLine
10
-6.0000000000019336
20
781.78584013175282
30
0
11
-6.0000000000025011
21
775.78584013175055
31
0
0
SPLINE
5
106
100
AcDbEntity
8
OUTER_PROFILES
100
AcDbSpline
70
0
71
3
72
11
73
7
74
0
42
0.000000001
43
0.0000000001
44
0.0000000001
40
-3.1415926535897931
40
-3.1415926535897931
40
-3.1415926535897931
40
-3.1415926535897931
40
-1.6686269019992672
40
-1.6686269019992672
40
-1.6686269019992672
40
-1.5707963267948966
40
-1.5707963267948966
40
-1.5707963267948966
40
-1.5707963267948966
10
-6.0000000000025011
20
775.78584013175737
30
0
10
-6.0000000000025011
20
775.07881657099392
30
0
10
-5.5863154718909414
20
774.37179301023036
30
0
10
-5.097674596706554
20
773.66476944946703
30
0
10
-5.0652203337094193
20
773.61781077336889
30
0
10
-5.0326101917372057
20
773.57085209727074
30
0
10
-5.000000000002558
20
773.52389342117272
30
0
0
LINE
5
107
100
AcDbEntity
8
OUTER_PROFILES
100
AcDbLine
10
-5.000000000002558
20
773.52389342117272
30
0
11
-5.0707106781243283
21
773.45318274304634
31
0
0
SPLINE
5
108
100
AcDbEntity
8
OUTER_PROFILES
100
AcDbSpline
70
0
71
3
72
11
73
7
74
0
42
0.000000001
43
0.0000000001
44
0.0000000001
40
1.5707963267948966
40
1.5707963267948966
40
1.5707963267948966
40
1.5707963267948966
40
1.6686269019992672
40
1.6686269019992672
40
1.6686269019992672
40
3.1415926535897931
40
3.1415926535897931
40
3.1415926535897931
40
3.1415926535897931
10
-5.0707106781243283
20
773.45318274304634
30
0
10
-5.1176693542225848
20
773.4857929347811
30
0
10
-5.1646280303205572
20
773.51840307675332
30
0
10
-5.2115867064186716
20
773.55085733975034
30
0
10
-5.9186102671822027
20
774.03949821493484
30
0
10
-6.6256338279455917
20
774.45318274304645
30
0
10
-7.3326573887091229
20
774.45318274304645
30
0
0
LINE
5
109
100
AcDbEntity
8
OUTER_PROFILES
100
AcDbLine
10
-7.332657388709122
20
774.45318274304645
30
0
11
-13.332657388707219
21
774.45318274304839
31
0
0
SPLINE
5
110
100
AcDbEntity
8
OUTER_PROFILES
100
AcDbSpline
70
0
71
3
72
11
73
7
74
0
42
0.000000001
43
0.0000000001
44
0.0000000001
40
-3.1415926535897931
40
-3.1415926535897931
40
-3.1415926535897931
40
-3.1415926535897931
40
-3.0437620783854276
40
-3.0437620783854276
40
-3.0437620783854276
40
-1.5707963267948966
40
-1.5707963267948966
40
-1.5707963267948966
40
-1.5707963267948966
10
-13.332657388707219
20
774.45318274304839
30
0
10
-13.379616064805333
20
774.45318274304839
30
0
10
-13.426574740903447
20
774.45158633512733
30
0
10
-13.473533417001562
20
774.44840114780118
30
0
10
-14.180556977764951
20
774.40044403588615
30
0
10
-14.887580538528482
20
773.94417132691183
30
0
10
-15.594604099291871
20
773.4531827430485
30
0
0
LINE
5
111
100
AcDbEntity
8
OUTER_PROFILES
100
AcDbLine
10
-15.594604099291869
20
773.45318274304827
30
0
11
-20.594604099289455
21
768.45318274304736
31
0
0
LINE
5
112
100
AcDbEntity
8
OUTER_PROFILES
100
AcDbLine
10
-20.594604099289455
20
768.45318274304736
30
0
11
-20.594604099287466
21
20.594604099286613
31
0
0
LINE
5
113
100
AcDbEntity
8
OUTER_PROFILES
100
AcDbLine
10
-20.594604099287466
20
20.594604099286613
30
0
11
-15.59460409929244
21
15.594604099287269
31
0
0
SPLINE
5
114
100
AcDbEntity
8
OUTER_PROFILES
100
AcDbSpline
70
0
71
3
72
11
73
7
74
0
42
0.000000001
43
0.0000000001
44
0.0000000001
40
1.5707963267948966
40
1.5707963267948966
40
1.5707963267948966
40
1.5707963267948966
40
3.0437620783854284
40
3.0437620783854284
40
3.0437620783854284
40
3.1415926535897931
40
3.1415926535897931
40
3.1415926535897931
40
3.1415926535897931
10
-15.59460409929244
20
15.594604099287269
30
0
10
-14.887580538529051
20
15.103615515423758
30
0
10
-14.180556977765519
20
14.647342806449634
30
0
10
-13.47353341700213
20
14.599385694534512
30
0
10
-13.426574740904016
20
14.596200507208387
30
0
10
-13.379616064805901
20
14.59460409928726
30
0
10
-13.332657388707787
20
14.59460409928726
30
0
0
LINE
5
115
100
AcDbEntity
8
OUTER_PROFILES
100
AcDbLine
10
-13.332657388707789
20
14.59460409928726
30
0
11
-7.3326573887032964
21
14.594604099286288
31
0
0
SPLINE
5
116
100
AcDbEntity
8
OUTER_PROFILES
100
AcDbSpline
70
0
71
3
72
11
73
7
74
0
42
0.000000001
43
0.0000000001
44
0.0000000001
40
-3.1415926535897931
40
-3.1415926535897931
40
-3.1415926535897931
40
-3.1415926535897931
40
-1.6686269019992668
40
-1.6686269019992668
40
-1.6686269019992668
40
-1.5707963267948966
40
-1.5707963267948966
40
-1.5707963267948966
40
-1.5707963267948966
10
-7.3326573887099755
20
14.594604099286288
30
0
10
-6.6256338279465865
20
14.59460409928629
30
0
10
-5.9186102671830554
20
15.008288627397924
30
0
10
-5.2115867064195243
20
15.496929502582313
30
0
10
-5.1646280303215519
20
15.529383765579306
30
0
10
-5.1176693542234375
20
15.561993907551521
30
0
10
-5.0707106781253231
20
15.594604099286311
30
0
0
LINE
5
117
100
AcDbEntity
8
OUTER_PROFILES
100
AcDbLine
10
-5.0707106781253239
20
15.594604099286313
30
0
11
-5.000000000001279
21
15.523893421168733
31
0
0
SPLINE
5
118
100
AcDbEntity
8
OUTER_PROFILES
100
AcDbSpline
70
0
71
3
72
11
73
7
74
0
42
0.000000001
43
0.0000000001
44
0.0000000001
40
1.5707963267948966
40
1.5707963267948966
40
1.5707963267948966
40
1.5707963267948966
40
1.6686269019992668
40
1.6686269019992668
40
1.6686269019992668
40
3.1415926535897931
40
3.1415926535897931
40
3.1415926535897931
40
3.1415926535897931
10
-5.0000000000004263
20
15.523893421160988
30
0
10
-5.0326101917352162
20
15.476934745062874
30
0
10
-5.0652203337074297
20
15.42997606896483
30
0
10
-5.0976745967044224
20
15.383017392866716
30
0
10
-5.5863154718888097
20
14.675993832103254
30
0
10
-6.0000000000003695
20
13.968970271339792
30
0
10
-6.0000000000003695
20
13.261946710576332
30
0
0
LINE
5
119
100
AcDbEntity
8
OUTER_PROFILES
100
AcDbLine
10
-6.0000000000003686
20
13.261946710576334
30
0
11
-6.0000000000009379
21
7.2619467105824453
31
0
0
SPLINE
5
120
100
AcDbEntity
8
OUTER_PROFILES
100
AcDbSpline
70
0
71
3
72
11
73
7
74
0
42
0.000000001
43
0.0000000001
44
0.0000000001
40
-3.1415926535897936
40
-3.1415926535897936
40
-3.1415926535897936
40
-3.1415926535897936
40
-3.043762078385432
40
-3.043762078385432
40
-3.043762078385432
40
-1.5707963267948997
40
-1.5707963267948997
40
-1.5707963267948997
40
-1.5707963267948997
10
-6.0000000000009379
20
7.2619467105824453
30
0
10
-6.0000000000009379
20
7.2149880344843496
30
0
10
-5.9984035920798817
20
7.1680293583862476
30
0
10
-5.9952184047537571
20
7.12107068228815
30
0
10
-5.9472612928387036
20
6.414047121524618
30
0
10
-5.4909885838644357
20
5.7070235607611579
30
0
10
-5.0000000000009948
20
4.9999999999977085
30
0
0
LINE
5
121
100
AcDbEntity
8
OUTER_PROFILES
100
AcDbLine
10
-5.0000000000009948
20
4.9999999999977094
30
0
11
0
21
0
31
0
0
LINE
5
122
100
AcDbEntity
8
OUTER_PROFILES
100
AcDbLine
10
0
20
0
30
0
11
747.85857864376248
21
-4.8849813083506888e-14
31
0
0
LINE
5
123
100
AcDbEntity
8
OUTER_PROFILES
100
AcDbLine
10
747.85857864376248
20
-4.8849813083506888e-14
30
0
11
752.85857864376294
21
4.9999999999968203
31
0
0
SPLINE
5
124
100
AcDbEntity
8
OUTER_PROFILES
100
AcDbSpline
70
0
71
3
72
11
73
7
74
0
42
0.000000001
43
0.0000000001
44
0.0000000001
40
1.5707963267949008
40
1.5707963267949008
40
1.5707963267949008
40
1.5707963267949008
40
3.0437620783854307
40
3.0437620783854307
40
3.0437620783854307
40
3.1415926535897944
40
3.1415926535897944
40
3.1415926535897944
40
3.1415926535897944
10
752.85857864376294
20
4.9999999999968203
30
0
10
753.34956722762649
20
5.7070235607602759
30
0
10
753.80583993660082
20
6.4140471215237573
30
0
10
753.85379704851584
20
7.1210706822871872
30
0
10
753.856982235842
20
7.1680293583852794
30
0
10
753.85857864376305
20
7.2149880344833717
30
0
10
753.85857864376305
20
7.2619467105814657
30
0
0
LINE
5
125
100
AcDbEntity
8
OUTER_PROFILES
100
AcDbLine
10
753.85857864376317
20
7.2619467105814648
30
0
11
753.85857864376248
21
13.261946710583734
31
0
0
SPLINE
5
126
100
AcDbEntity
8
OUTER_PROFILES
100
AcDbSpline
70
0
71
3
72
11
73
7
74
0
42
0.000000001
43
0.0000000001
44
0.0000000001
40
-3.1415926535897931
40
-3.1415926535897931
40
-3.1415926535897931
40
-3.1415926535897931
40
-1.668626901999269
40
-1.668626901999269
40
-1.668626901999269
40
-1.5707963267948966
40
-1.5707963267948966
40
-1.5707963267948966
40
-1.5707963267948966
10
753.85857864376248
20
13.261946710571566
30
0
10
753.85857864376248
20
13.968970271335026
30
0
10
753.44489411565087
20
14.675993832098555
30
0
10
752.95625324046637
20
15.383017392862083
30
0
10
752.92379897746946
20
15.429976068960126
30
0
10
752.89118883549713
20
15.47693474505817
30
0
10
752.85857864376237
20
15.523893421156284
30
0
0
LINE
5
127
100
AcDbEntity
8
OUTER_PROFILES
100
AcDbLine
10
752.85857864376226
20
15.523893421156282
30
0
11
752.92928932188158
21
15.594604099287434
31
0
0
SPLINE
5
128
100
AcDbEntity
8
OUTER_PROFILES
100
AcDbSpline
70
0
71
3
72
11
73
7
74
0
42
0.000000001
43
0.0000000001
44
0.0000000001
40
1.5707963267948966
40
1.5707963267948966
40
1.5707963267948966
40
1.5707963267948966
40
1.668626901999269
40
1.668626901999269
40
1.668626901999269
40
3.1415926535897931
40
3.1415926535897931
40
3.1415926535897931
40
3.1415926535897931
10
752.92928932188499
20
15.594604099287007
30
0
10
752.97624799798314
20
15.561993907552218
30
0
10
753.02320667408128
20
15.529383765580004
30
0
10
753.0701653501792
20
15.496929502583011
30
0
10
753.77718891094275
20
15.008288627398557
30
0
10
754.48421247170631
20
14.594604099286999
30
0
10
755.19123603246965
20
14.594604099287004
30
0
0
LINE
5
129
100
AcDbEntity
8
OUTER_PROFILES
100
AcDbLine
10
755.19123603246965
20
14.594604099287004
30
0
11
761.19123603246805
21
14.594604099286597
31
0
0
SPLINE
5
130
100
AcDbEntity
8
OUTER_PROFILES
100
AcDbSpline
70
0
71
3
72
11
73
7
74
0
42
0.000000001
43
0.0000000001
44
0.0000000001
40
-3.1415926535897931
40
-3.1415926535897931
40
-3.1415926535897931
40
-3.1415926535897931
40
-3.0437620783854262
40
-3.0437620783854262
40
-3.0437620783854262
40
-1.5707963267948968
40
-1.5707963267948968
40
-1.5707963267948968
40
-1.5707963267948968
10
761.19123603246805
20
14.594604099286597
30
0
10
761.2381947085662
20
14.594604099286597
30
0
10
761.28515338466411
20
14.596200507207653
30
0
10
761.33211206076226
20
14.599385694533778
30
0
10
762.03913562152582
20
14.647342806448906
30
0
10
762.74615918228915
20
15.103615515423105
30
0
10
763.45318274305271
20
15.59460409928662
30
0
0
LINE
5
131
100
AcDbEntity
8
OUTER_PROFILES
100
AcDbLine
10
763.45318274305271
20
15.59460409928662
30
0
11
768.45318274305009
21
20.594604099287707
31
0
0
LINE
5
132
100
AcDbEntity
8
OUTER_PROFILES
100
AcDbLine
10
768.45318274305009
20
20.594604099287707
30
0
11
768.45318274304748
21
768.45318274305112
31
0
0
LINE
5
133
100
AcDbEntity
8
OUTER_PROFILES
100
AcDbLine
10
768.45318274304748
20
768.45318274305112
30
0
11
763.45318274304441
21
773.45318274305055
31
0
0
SPLINE
5
134
100
AcDbEntity
8
OUTER_PROFILES
100
AcDbSpline
70
0
71
3
72
11
73
7
74
0
42
0.000000001
43
0.0000000001
44
0.0000000001
40
1.5707963267948968
40
1.5707963267948968
40
1.5707963267948968
40
1.5707963267948968
40
3.043762078385428
40
3.043762078385428
40
3.043762078385428
40
3.1415926535897931
40
3.1415926535897931
40
3.1415926535897931
40
3.1415926535897931
10
763.45318274304441
20
773.45318274305055
30
0
10
762.74615918228096
20
773.94417132691399
30
0
10
762.03913562151752
20
774.40044403588831
30
0
10
761.33211206075407
20
774.44840114780345
30
0
10
761.28515338465593
20
774.45158633512949
30
0
10
761.2381947085579
20
774.45318274305055
30
0
10
761.19123603245976
20
774.45318274305055
30
0
0
LINE
5
135
100
AcDbEntity
8
OUTER_PROFILES
100
AcDbLine
10
761.19123603245976
20
774.45318274305066
30
0
11
755.19123603246317
21
774.45318274304998
31
0
0
SPLINE
5
136
100
AcDbEntity
8
OUTER_PROFILES
100
AcDbSpline
70
0
71
3
72
11
73
7
74
0
42
0.000000001
43
0.0000000001
44
0.0000000001
40
-3.1415926535897931
40
-3.1415926535897931
40
-3.1415926535897931
40
-3.1415926535897931
40
-1.6686269019992677
40
-1.6686269019992677
40
-1.6686269019992677
40
-1.5707963267948966
40
-1.5707963267948966
40
-1.5707963267948966
40
-1.5707963267948966
10
755.19123603246976
20
774.45318274304998
30
0
10
754.48421247170631
20
774.45318274304998
30
0
10
753.77718891094287
20
774.03949821493836
30
0
10
753.07016535017942
20
773.55085733975397
30
0
10
753.02320667408128
20
773.51840307675684
30
0
10
752.97624799798314
20
773.48579293478463
30
0
10
752.92928932188511
20
773.45318274304998
30
0
0
LINE
5
137
100
AcDbEntity
8
OUTER_PROFILES
100
AcDbLine
10
752.92928932188511
20
773.45318274304987
30
0
11
752.85857864376021
21
773.52389342116805
31
0
0
SPLINE
5
138
100
AcDbEntity
8
OUTER_PROFILES
100
AcDbSpline
70
0
71
3
72
11
73
7
74
0
42
0.000000001
43
0.0000000001
44
0.0000000001
40
1.5707963267948966
40
1.5707963267948966
40
1.5707963267948966
40
1.5707963267948966
40
1.6686269019992677
40
1.6686269019992677
40
1.6686269019992677
40
3.1415926535897931
40
3.1415926535897931
40
3.1415926535897931
40
3.1415926535897931
10
752.85857864376021
20
773.52389342117181
30
0
10
752.89118883549509
20
773.57085209726984
30
0
10
752.9237989774673
20
773.61781077336798
30
0
10
752.95625324046432
20
773.66476944946612
30
0
10
753.44489411564882
20
774.37179301022968
30
0
10
753.85857864376032
20
775.07881657099301
30
0
10
753.85857864376032
20
775.78584013175646
30
0
0
LINE
5
139
100
AcDbEntity
8
OUTER_PROFILES
100
AcDbLine
10
753.85857864376032
20
775.78584013175646
30
0
11
753.85857864375907
21
781.78584013175498
31
0
0
ENDSEC
0
SECTION
2
OBJECTS
0
DICTIONARY
5
C
100
AcDbDictionary
3
ACAD_GROUP
350
D
3
ACAD_MLINESTYLE
350
17
0
DICTIONARY
5
D
100
AcDbDictionary
0
DICTIONARY
5
1A
330
C
100
AcDbDictionary
0
DICTIONARY
5
17
100
AcDbDictionary
0
ENDSEC
0
EOF
