0
SECTION
2
HEADER
9
$INSUNITS
70
4
9
$ACADVER
1
AC1014
9
$HANDSEED
5
FFFF
0
ENDSEC
0
SECTION
2
TABLES
0
TABLE
2
VPORT
5
8
100
AcDbSymbolTable
0
ENDTAB
0
TABLE
2
LTYPE
5
5
100
AcDbSymbolTable
0
LTYPE
5
14
100
AcDbSymbolTableRecord
100
AcDbLinetypeTableRecord
2
BYBLOCK
70
0
0
LTYPE
5
15
100
AcDbSymbolTableRecord
100
AcDbLinetypeTableRecord
2
BYLAYER
70
0
0
LTYPE
5
16
100
AcDbSymbolTableRecord
100
AcDbLinetypeTableRecord
2
DASHED
70
0
3
Dashed __ __ __ __ __ __ __ __ __ __ __ __ __ _
72
65
73
2
40
0.75
49
0.5
74
0
49
-0.25
74
0
0
ENDTAB
0
TABLE
2
LAYER
5
2
100
AcDbSymbolTable
70
2
0
LAYER
5
50
100
AcDbSymbolTableRecord
100
AcDbLayerTableRecord
2
0
70
0
62
7
6
CONTINUOUS
0
ENDTAB
0
TABLE
2
STYLE
5
3
100
AcDbSymbolTable
70
1
0
STYLE
5
11
100
AcDbSymbolTableRecord
100
AcDbTextStyleTableRecord
2
STANDARD
70
0
0
ENDTAB
0
TABLE
2
VIEW
5
6
100
AcDbSymbolTable
70
0
0
ENDTAB
0
TABLE
2
UCS
5
7
100
AcDbSymbolTable
70
0
0
ENDTAB
0
TABLE
2
APPID
5
9
100
AcDbSymbolTable
70
2
0
APPID
5
12
100
AcDbSymbolTableRecord
100
AcDbRegAppTableRecord
2
ACAD
70
0
0
ENDTAB
0
TABLE
2
DIMSTYLE
5
A
100
AcDbSymbolTable
70
1
0
ENDTAB
0
TABLE
2
BLOCK_RECORD
5
1
100
AcDbSymbolTable
70
1
0
BLOCK_RECORD
5
1F
100
AcDbSymbolTableRecord
100
AcDbBlockTableRecord
2
*MODEL_SPACE
0
BLOCK_RECORD
5
1B
100
AcDbSymbolTableRecord
100
AcDbBlockTableRecord
2
*PAPER_SPACE
0
ENDTAB
0
ENDSEC
0
SECTION
2
BLOCKS
0
BLOCK
5
20
100
AcDbEntity
100
AcDbBlockBegin
2
*MODEL_SPACE
0
ENDBLK
5
21
100
AcDbEntity
100
AcDbBlockEnd
0
BLOCK
5
1C
100
AcDbEntity
100
AcDbBlockBegin
2
*PAPER_SPACE
0
ENDBLK
5
1D
100
AcDbEntity
100
AcDbBlockEnd
0
ENDSEC
0
SECTION
2
ENTITIES
0
LINE
5
100
100
AcDbEntity
8
OUTER_PROFILES
100
AcDbLine
10
-22.332657388703229
20
22.53389342118183
30
0
11
-2.9707106781185688
21
22.53389342118183
31
0
0
LINE
5
101
100
AcDbEntity
8
OUTER_PROFILES
100
AcDbLine
10
-2.9707106781185688
20
22.53389342118183
30
0
11
-2.9707106781184232
21
3.0655041722383913
31
0
0
LINE
5
102
100
AcDbEntity
8
OUTER_PROFILES
100
AcDbLine
10
-2.9707106781184232
20
3.0655041722383913
30
0
11
-1.9999999999998868
21
1.9999999999998863
31
0
0
LINE
5
103
100
AcDbEntity
8
OUTER_PROFILES
100
AcDbLine
10
-1.9999999999998868
20
1.9999999999998863
30
0
11
0
21
0
31
0
0
LINE
5
104
100
AcDbEntity
8
OUTER_PROFILES
100
AcDbLine
10
0
20
0
30
0
11
791.85857864376294
21
2.1316282072803006e-13
31
0
0
LINE
5
105
100
AcDbEntity
8
OUTER_PROFILES
100
AcDbLine
10
791.85857864376294
20
2.1316282072803006e-13
30
0
11
793.85857864376271
21
2.0000000000001705
31
0
0
LINE
5
106
100
AcDbEntity
8
OUTER_PROFILES
100
AcDbLine
10
793.85857864376271
20
2.0000000000001705
30
0
11
794.82928932188133
21
3.0655041722388887
31
0
0
LINE
5
107
100
AcDbEntity
8
OUTER_PROFILES
100
AcDbLine
10
794.82928932188133
20
3.0655041722388887
30
0
11
794.82928932188133
21
22.533893421181972
31
0
0
LINE
5
108
100
AcDbEntity
8
OUTER_PROFILES
100
AcDbLine
10
794.82928932188133
20
22.533893421181972
30
0
11
814.19123603246589
21
22.533893421182043
31
0
0
LINE
5
109
100
AcDbEntity
8
OUTER_PROFILES
100
AcDbLine
10
814.19123603246589
20
22.533893421182043
30
0
11
814.19123603246601
21
23.594604099300227
31
0
0
SPLINE
5
110
100
AcDbEntity
8
OUTER_PROFILES
100
AcDbSpline
70
0
71
3
72
11
73
7
74
0
42
0.000000001
43
0.0000000001
44
0.0000000001
40
1.5707963267948966
40
1.5707963267948966
40
1.5707963267948966
40
1.5707963267948966
40
3.0437620783854276
40
3.0437620783854276
40
3.0437620783854276
40
3.141592652383943
40
3.141592652383943
40
3.141592652383943
40
3.141592652383943
10
816.45318274131432
20
24.594604099300241
30
0
10
815.74615918055088
20
24.1036155154368
30
0
10
815.0391356197872
20
23.647342806462532
30
0
10
814.33211205902376
20
23.599385694547479
30
0
10
814.28515338350462
20
23.596200507260615
30
0
10
814.23819470798526
20
23.594604099339655
30
0
10
814.19123603246601
20
23.594604099300227
30
0
0
LINE
5
111
100
AcDbEntity
8
OUTER_PROFILES
100
AcDbLine
10
816.45318274131432
20
24.594604099300241
30
0
11
818.4531827430601
21
26.594604099300412
31
0
0
LINE
5
112
100
AcDbEntity
8
OUTER_PROFILES
100
AcDbLine
10
818.4531827430601
20
26.594604099300412
30
0
11
818.45318274305964
21
443.45318274306339
31
0
0
LINE
5
113
100
AcDbEntity
8
OUTER_PROFILES
100
AcDbLine
10
818.45318274305964
20
443.45318274306339
30
0
11
816.45318274305976
21
445.45318274306345
31
0
0
SPLINE
5
114
100
AcDbEntity
8
OUTER_PROFILES
100
AcDbSpline
70
0
71
3
72
8
73
4
74
0
42
0.000000001
43
0.0000000001
44
0.0000000001
40
-2.8989677265062075
40
-2.8989677265062075
40
-2.8989677265062075
40
-2.8989677265062075
40
-1.5707963267948966
40
-1.5707963267948966
40
-1.5707963267948966
40
-1.5707963267948966
10
814.54061592574931
20
446.42389342019504
30
0
10
815.17914005471596
20
446.31736121399712
30
0
10
815.81566046947216
20
445.89590654296723
30
0
10
816.45318274133365
20
445.45318274306345
30
0
0
LINE
5
115
100
AcDbEntity
8
OUTER_PROFILES
100
AcDbLine
10
814.54061592574931
20
446.42389342019504
30
0
11
795.91928932188125
21
446.4238934211819
31
0
0
LINE
5
116
100
AcDbEntity
8
OUTER_PROFILES
100
AcDbLine
10
795.91928932188125
20
446.4238934211819
30
0
11
795.91928932188125
21
465.78584013176658
31
0
0
LINE
5
117
100
AcDbEntity
8
OUTER_PROFILES
100
AcDbLine
10
795.91928932188125
20
465.78584013176658
30
0
11
793.8585786437626
21
468.04778684235555
31
0
0
LINE
5
118
100
AcDbEntity
8
OUTER_PROFILES
100
AcDbLine
10
793.8585786437626
20
468.04778684235555
30
0
11
791.85857864376248
21
470.04778684235544
31
0
0
LINE
5
119
100
AcDbEntity
8
OUTER_PROFILES
100
AcDbLine
10
791.85857864376248
20
470.04778684235544
30
0
11
-1.4210854715202004e-13
21
470.04778684235532
31
0
0
LINE
5
120
100
AcDbEntity
8
OUTER_PROFILES
100
AcDbLine
10
-1.4210854715202004e-13
20
470.04778684235532
30
0
11
-2.0000000000001403
21
468.04778684235544
31
0
0
LINE
5
121
100
AcDbEntity
8
OUTER_PROFILES
100
AcDbLine
10
-2.0000000000001403
20
468.04778684235544
30
0
11
-4.0607106781187641
21
465.78584013176635
31
0
0
LINE
5
122
100
AcDbEntity
8
OUTER_PROFILES
100
AcDbLine
10
-4.0607106781187641
20
465.78584013176635
30
0
11
-4.0607106781186166
21
446.42389342118179
31
0
0
LINE
5
123
100
AcDbEntity
8
OUTER_PROFILES
100
AcDbLine
10
-4.0607106781186166
20
446.42389342118179
30
0
11
-22.68203728198916
21
446.4238934201947
31
0
0
SPLINE
5
124
100
AcDbEntity
8
OUTER_PROFILES
100
AcDbSpline
70
0
71
3
72
8
73
4
74
0
42
0.000000001
43
0.0000000001
44
0.0000000001
40
1.5707963267948966
40
1.5707963267948966
40
1.5707963267948966
40
1.5707963267948966
40
2.898967726504341
40
2.898967726504341
40
2.898967726504341
40
2.898967726504341
10
-24.594604097570773
20
445.45318274306351
30
0
10
-23.957081825710222
20
445.89590654296671
30
0
10
-23.320561410955047
20
446.31736121399615
30
0
10
-22.68203728198916
20
446.4238934201947
30
0
0
LINE
5
125
100
AcDbEntity
8
OUTER_PROFILES
100
AcDbLine
10
-24.594604097570773
20
445.45318274306351
30
0
11
-26.594604099297392
21
443.45318274306328
31
0
0
LINE
5
126
100
AcDbEntity
8
OUTER_PROFILES
100
AcDbLine
10
-26.594604099297392
20
443.45318274306328
30
0
11
-26.594604099297218
21
26.594604099300341
31
0
0
LINE
5
127
100
AcDbEntity
8
OUTER_PROFILES
100
AcDbLine
10
-26.594604099297218
20
26.594604099300341
30
0
11
-24.594604097579392
21
24.594604099300383
31
0
0
SPLINE
5
128
100
AcDbEntity
8
OUTER_PROFILES
100
AcDbSpline
70
0
71
3
72
11
73
7
74
0
42
0.000000001
43
0.0000000001
44
0.0000000001
40
-3.1415926524033284
40
-3.1415926524033284
40
-3.1415926524033284
40
-3.1415926524033284
40
-3.043762078385428
40
-3.043762078385428
40
-3.043762078385428
40
-1.5707963267948966
40
-1.5707963267948966
40
-1.5707963267948966
40
-1.5707963267948966
10
-22.332657388703254
20
23.594604099300369
30
0
10
-22.379616064231925
20
23.594604099339094
30
0
10
-22.426574739760461
20
23.596200507260122
30
0
10
-22.473533415289072
20
23.599385694547621
30
0
10
-23.180556976052532
20
23.647342806462675
30
0
10
-23.887580536815992
20
24.103615515436871
30
0
10
-24.594604097579392
20
24.594604099300383
30
0
0
LINE
5
129
100
AcDbEntity
8
OUTER_PROFILES
100
AcDbLine
10
-22.332657388703254
20
23.594604099300369
30
0
11
-22.332657388703229
21
22.53389342118183
31
0
0
CIRCLE
5
130
100
AcDbEntity
8
INTERIOR_PROFILES
100
AcDbCircle
10
-777.42928932188124
20
312.52389342118198
30
0
40
4.4999999999999929
210
0
220
0
230
-1
0
CIRCLE
5
131
100
AcDbEntity
8
INTERIOR_PROFILES
100
AcDbCircle
10
-779.92928932188136
20
390.02389342118198
30
0
40
1.7000000000000171
210
0
220
0
230
-1
0
CIRCLE
5
132
100
AcDbEntity
8
INTERIOR_PROFILES
100
AcDbCircle
10
-695.92928932188158
20
57.523893421181924
30
0
40
1.2645000000000017
210
0
220
0
230
-1
0
CIRCLE
5
133
100
AcDbEntity
8
INTERIOR_PROFILES
100
AcDbCircle
10
-95.929289321881456
20
57.523893421181782
30
0
40
1.2645000000000017
210
0
220
0
230
-1
0
CIRCLE
5
134
100
AcDbEntity
8
INTERIOR_PROFILES
100
AcDbCircle
10
-95.92928932188137
20
412.52389342118181
30
0
40
1.264499999999984
210
0
220
0
230
-1
0
CIRCLE
5
135
100
AcDbEntity
8
INTERIOR_PROFILES
100
AcDbCircle
10
-777.42928932188124
20
157.52389342118192
30
0
40
4.4999999999999929
210
0
220
0
230
-1
0
CIRCLE
5
136
100
AcDbEntity
8
INTERIOR_PROFILES
100
AcDbCircle
10
-495.92928932188147
20
57.523893421181924
30
0
40
1.2645000000000017
210
0
220
0
230
-1
0
CIRCLE
5
137
100
AcDbEntity
8
INTERIOR_PROFILES
100
AcDbCircle
10
-779.92928932188136
20
80.023893421181995
30
0
40
1.6999999999999993
210
0
220
0
230
-1
0
CIRCLE
5
138
100
AcDbEntity
8
INTERIOR_PROFILES
100
AcDbCircle
10
-779.92928932188124
20
235.02389342118192
30
0
40
1.7000000000000171
210
0
220
0
230
-1
0
CIRCLE
5
139
100
AcDbEntity
8
INTERIOR_PROFILES
100
AcDbCircle
10
-395.92928932188147
20
57.523893421181995
30
0
40
1.2645000000000017
210
0
220
0
230
-1
0
CIRCLE
5
140
100
AcDbEntity
8
INTERIOR_PROFILES
100
AcDbCircle
10
-295.92928932188136
20
412.52389342118187
30
0
40
1.264499999999984
210
0
220
0
230
-1
0
CIRCLE
5
141
100
AcDbEntity
8
INTERIOR_PROFILES
100
AcDbCircle
10
-14.429289321881489
20
157.52389342118187
30
0
40
4.4999999999999929
210
0
220
0
230
-1
0
CIRCLE
5
142
100
AcDbEntity
8
INTERIOR_PROFILES
100
AcDbCircle
10
-14.429289321881452
20
312.52389342118175
30
0
40
4.4999999999999929
210
0
220
0
230
-1
0
CIRCLE
5
143
100
AcDbEntity
8
INTERIOR_PROFILES
100
AcDbCircle
10
-295.92928932188147
20
57.523893421181853
30
0
40
1.2645000000000017
210
0
220
0
230
-1
0
CIRCLE
5
144
100
AcDbEntity
8
INTERIOR_PROFILES
100
AcDbCircle
10
-395.9292893218813
20
412.5238934211817
30
0
40
1.264499999999984
210
0
220
0
230
-1
0
CIRCLE
5
145
100
AcDbEntity
8
INTERIOR_PROFILES
100
AcDbCircle
10
-495.9292893218813
20
412.52389342118192
30
0
40
1.264499999999984
210
0
220
0
230
-1
0
CIRCLE
5
146
100
AcDbEntity
8
INTERIOR_PROFILES
100
AcDbCircle
10
-695.92928932188124
20
412.52389342118187
30
0
40
1.264499999999984
210
0
220
0
230
-1
0
CIRCLE
5
147
100
AcDbEntity
8
INTERIOR_PROFILES
100
AcDbCircle
10
-11.929289321881472
20
235.02389342118175
30
0
40
1.7000000000000171
210
0
220
0
230
-1
0
CIRCLE
5
148
100
AcDbEntity
8
INTERIOR_PROFILES
100
AcDbCircle
10
-6.9292893218815079
20
80.023893421181782
30
0
40
1.6999999999999993
210
0
220
0
230
-1
0
CIRCLE
5
149
100
AcDbEntity
8
INTERIOR_PROFILES
100
AcDbCircle
10
-784.92928932188136
20
80.023893421181995
30
0
40
1.6999999999999993
210
0
220
0
230
-1
0
CIRCLE
5
150
100
AcDbEntity
8
INTERIOR_PROFILES
100
AcDbCircle
10
-11.929289321881507
20
80.023893421181782
30
0
40
1.6999999999999993
210
0
220
0
230
-1
0
CIRCLE
5
151
100
AcDbEntity
8
INTERIOR_PROFILES
100
AcDbCircle
10
-11.929289321881434
20
390.0238934211817
30
0
40
1.7000000000000171
210
0
220
0
230
-1
0
CIRCLE
5
152
100
AcDbEntity
8
INTERIOR_PROFILES
100
AcDbCircle
10
-6.9292893218814333
20
390.02389342118164
30
0
40
1.7000000000000171
210
0
220
0
230
-1
0
CIRCLE
5
153
100
AcDbEntity
8
INTERIOR_PROFILES
100
AcDbCircle
10
-784.92928932188124
20
235.02389342118192
30
0
40
1.7000000000000171
210
0
220
0
230
-1
0
CIRCLE
5
154
100
AcDbEntity
8
INTERIOR_PROFILES
100
AcDbCircle
10
-784.92928932188136
20
390.02389342118198
30
0
40
1.7000000000000171
210
0
220
0
230
-1
0
CIRCLE
5
155
100
AcDbEntity
8
INTERIOR_PROFILES
100
AcDbCircle
10
-6.9292893218814697
20
235.02389342118175
30
0
40
1.7000000000000171
210
0
220
0
230
-1
0
LINE
5
156
100
AcDbEntity
8
BEND
100
AcDbLine
10
-3.2016840334110377
20
447.78584013176641
30
3.660791369193287e-14
11
-3.2016840334109355
21
23.392920065889484
31
3.6536249171483254e-14
0
LINE
5
157
100
AcDbEntity
8
BEND
100
AcDbLine
10
795.91928932188125
20
446.65486677647431
30
-3.1812160252670192e-13
11
-3.2016840334109986
21
446.65486677647408
31
3.6703143333678526e-14
0
LINE
5
158
100
AcDbEntity
8
BEND
100
AcDbLine
10
794.88893398282187
20
466.91681348706106
30
4.7676133276143734e-13
11
-3.0303553390594118
21
466.91681348706089
31
4.8938703141092298e-13
0
LINE
5
159
100
AcDbEntity
8
BEND
100
AcDbLine
10
-2.9707106781184232
20
3.1309733552988206
30
-6.4927148114079741e-14
11
794.82928932188133
21
3.1309733552990338
31
-3.2925792760090401e-13
0
LINE
5
160
100
AcDbEntity
8
BEND
100
AcDbLine
10
795.0602626771738
20
23.392920065889697
30
-3.2077766897710792e-13
11
795.06026267717357
21
447.78584013176663
31
-3.1805245329196169e-13
0
LINE
5
161
100
AcDbEntity
8
BEND
100
AcDbLine
10
-4.3326573887031872
20
23.392920065889484
30
3.6838128637215264e-14
11
795.0602626771738
21
23.392920065889697
31
-3.2077766897710792e-13
0
LINE
5
162
100
AcDbEntity
8
BEND
100
AcDbLine
10
-23.463630744000426
20
446.16028952340457
30
9.0062377425091551e-12
11
-23.46363074400028
21
23.887497318955084
31
5.5591396845285785e-13
0
LINE
5
163
100
AcDbEntity
8
BEND
100
AcDbLine
10
815.322209387763
20
23.887497318968656
30
1.0566780425146622e-11
11
815.32220938776288
21
446.16028952340457
31
1.7088660231748053e-12
0
LINE
5
164
100
AcDbEntity
8
BEND_EXTENT
100
AcDbLine
10
-2.9707106781185653
20
4.2619467105972575
30
-1.4091757467910119e-13
11
794.82928932188133
21
4.2619467105973996
31
-3.5417809503329754e-13
0
LINE
5
165
100
AcDbEntity
8
BEND_EXTENT
100
AcDbLine
10
793.85857864376271
20
2.0000000000001705
30
-3.0493911928062764e-13
11
-1.9999999999998863
21
1.9999999999998863
31
2.184055226302865e-13
0
LINE
5
166
100
AcDbEntity
8
BEND_EXTENT
100
AcDbLine
10
794.82928932188133
20
22.261946710597442
30
-2.1206954788127745e-13
11
-2.9707106781184223
21
22.261946710597229
31
1.1909724729187878e-15
0
LINE
5
167
100
AcDbEntity
8
BEND_EXTENT
100
AcDbLine
10
795.91928932188125
20
465.78584013176658
30
7.1710560079715699e-14
11
-4.0607106781187952
21
465.78584013176635
31
2.5031791633200092e-13
0
LINE
5
168
100
AcDbEntity
8
BEND_EXTENT
100
AcDbLine
10
-2.0000000000001403
20
468.04778684235544
30
2.7613711991079474e-13
11
793.8585786437626
21
468.04778684235555
31
2.5017239303195074e-13
0
LINE
5
169
100
AcDbEntity
8
BEND_EXTENT
100
AcDbLine
10
816.45318274305976
20
445.45318274306345
30
1.8782340031054381e-13
11
816.45318274305987
21
24.594604099300241
31
1.8782340031054376e-13
0
LINE
5
170
100
AcDbEntity
8
BEND_EXTENT
100
AcDbLine
10
814.19123603246589
20
23.594604099300298
30
-7.7723300075430004e-14
11
814.19123603246578
21
446.42389342118202
31
6.4385247076590084e-14
0
LINE
5
171
100
AcDbEntity
8
BEND_EXTENT
100
AcDbLine
10
-24.594604099297261
20
24.594604099300312
30
6.5378945162574622e-13
11
-24.594604099297364
21
445.45318274306345
31
6.5378945162574622e-13
0
LINE
5
172
100
AcDbEntity
8
BEND_EXTENT
100
AcDbLine
10
-22.332657388703332
20
446.42389342118179
30
3.997517764871466e-13
11
-22.332657388703264
21
23.594604099300298
31
4.7080605006315656e-13
0
LINE
5
173
100
AcDbEntity
8
BEND_EXTENT
100
AcDbLine
10
796.19123603246578
20
446.42389342118184
30
-1.4156128541763725e-13
11
796.19123603246589
21
22.533893421182043
31
-2.8366983256965736e-13
0
LINE
5
174
100
AcDbEntity
8
BEND_EXTENT
100
AcDbLine
10
-4.0607106781189026
20
447.78584013176635
30
1.0820936917998096e-13
11
795.91928932188102
21
447.78584013176658
31
-3.5461508137634431e-13
0
LINE
5
175
100
AcDbEntity
8
BEND_EXTENT
100
AcDbLine
10
-4.3326573887031872
20
22.53389342118183
30
1.0831839394930376e-13
11
-4.3326573887032884
21
446.42389342118184
31
1.0831839394930382e-13
0
LWPOLYLINE
5
176
100
AcDbEntity
8
BEND_EXTENT
100
AcDbPolyline
90
4
70
1
43
0.0
10
-2.070710678118536
20
24.52389342118181
10
793.92928932188124
20
24.523893421182024
10
793.92928932188124
20
445.52389342118198
10
-2.0707106781186724
20
445.52389342118175
0
ENDSEC
0
SECTION
2
OBJECTS
0
DICTIONARY
5
C
100
AcDbDictionary
3
ACAD_GROUP
350
D
3
ACAD_MLINESTYLE
350
17
0
DICTIONARY
5
D
100
AcDbDictionary
0
DICTIONARY
5
1A
330
C
100
AcDbDictionary
0
DICTIONARY
5
17
100
AcDbDictionary
0
ENDSEC
0
EOF
