0
SECTION
2
HEADER
9
$INSUNITS
70
4
9
$ACADVER
1
AC1014
9
$HANDSEED
5
FFFF
0
ENDSEC
0
SECTION
2
TABLES
0
TABLE
2
VPORT
5
8
100
AcDbSymbolTable
0
ENDTAB
0
TABLE
2
LTYPE
5
5
100
AcDbSymbolTable
0
LTYPE
5
14
100
AcDbSymbolTableRecord
100
AcDbLinetypeTableRecord
2
BYBLOCK
70
0
0
LTYPE
5
15
100
AcDbSymbolTableRecord
100
AcDbLinetypeTableRecord
2
BYLAYER
70
0
0
LTYPE
5
16
100
AcDbSymbolTableRecord
100
AcDbLinetypeTableRecord
2
DASHED
70
0
3
Dashed __ __ __ __ __ __ __ __ __ __ __ __ __ _
72
65
73
2
40
0.75
49
0.5
74
0
49
-0.25
74
0
0
ENDTAB
0
TABLE
2
LAYER
5
2
100
AcDbSymbolTable
70
2
0
LAYER
5
50
100
AcDbSymbolTableRecord
100
AcDbLayerTableRecord
2
0
70
0
62
7
6
CONTINUOUS
0
ENDTAB
0
TABLE
2
STYLE
5
3
100
AcDbSymbolTable
70
1
0
STYLE
5
11
100
AcDbSymbolTableRecord
100
AcDbTextStyleTableRecord
2
STANDARD
70
0
0
ENDTAB
0
TABLE
2
VIEW
5
6
100
AcDbSymbolTable
70
0
0
ENDTAB
0
TABLE
2
UCS
5
7
100
AcDbSymbolTable
70
0
0
ENDTAB
0
TABLE
2
APPID
5
9
100
AcDbSymbolTable
70
2
0
APPID
5
12
100
AcDbSymbolTableRecord
100
AcDbRegAppTableRecord
2
ACAD
70
0
0
ENDTAB
0
TABLE
2
DIMSTYLE
5
A
100
AcDbSymbolTable
70
1
0
ENDTAB
0
TABLE
2
BLOCK_RECORD
5
1
100
AcDbSymbolTable
70
1
0
BLOCK_RECORD
5
1F
100
AcDbSymbolTableRecord
100
AcDbBlockTableRecord
2
*MODEL_SPACE
0
BLOCK_RECORD
5
1B
100
AcDbSymbolTableRecord
100
AcDbBlockTableRecord
2
*PAPER_SPACE
0
ENDTAB
0
ENDSEC
0
SECTION
2
BLOCKS
0
BLOCK
5
20
100
AcDbEntity
100
AcDbBlockBegin
2
*MODEL_SPACE
0
ENDBLK
5
21
100
AcDbEntity
100
AcDbBlockEnd
0
BLOCK
5
1C
100
AcDbEntity
100
AcDbBlockBegin
2
*PAPER_SPACE
0
ENDBLK
5
1D
100
AcDbEntity
100
AcDbBlockEnd
0
ENDSEC
0
SECTION
2
ENTITIES
0
LWPOLYLINE
5
100
100
AcDbEntity
8
OUTER_PROFILES
100
AcDbPolyline
90
20
70
1
43
0.0
10
-7.1054273576010019e-13
20
21.261946710584688
10
0.90000000000003411
20
23.523893421169433
10
-1.3619467105848113
20
21.523893421169291
10
-99.361946710584675
20
21.523893421169351
10
-99.361946710584675
20
116.52389342116935
10
-1.3619467105848493
20
116.52389342116945
10
0.90000000000003411
20
114.52389342116942
10
-2.8421709430404007e-13
20
116.78584013175409
10
0
20
138.04778684233872
10
1827.8000000000002
20
138.04778684233872
10
1827.8000000000009
20
116.78584013175401
10
1826.9000000000003
20
114.52389342116936
10
1829.1619467105852
20
116.52389342116949
10
1927.161946710585
20
116.52389342116935
10
1927.161946710585
20
21.523893421169351
10
1829.161946710585
20
21.523893421169351
10
1826.9000000000003
20
23.52389342116939
10
1827.8000000000006
20
21.261946710584603
10
1827.8000000000002
20
0
10
0
20
0
0
CIRCLE
5
101
100
AcDbEntity
8
INTERIOR_PROFILES
100
AcDbCircle
10
-1834.6619467105852
20
109.52389342116923
30
0
40
1.6999999999998749
210
0
220
0
230
-1
0
CIRCLE
5
102
100
AcDbEntity
8
INTERIOR_PROFILES
100
AcDbCircle
10
-6.4000000000005741
20
109.52389342116923
30
0
40
1.6999999999999993
210
0
220
0
230
-1
0
CIRCLE
5
103
100
AcDbEntity
8
INTERIOR_PROFILES
100
AcDbCircle
10
-1818.9000000000008
20
109.52389342116923
30
0
40
1.6999999999999993
210
0
220
0
230
-1
0
CIRCLE
5
104
100
AcDbEntity
8
INTERIOR_PROFILES
100
AcDbCircle
10
-1818.9000000000008
20
28.523893421169355
30
0
40
1.6999999999999993
210
0
220
0
230
-1
0
CIRCLE
5
105
100
AcDbEntity
8
INTERIOR_PROFILES
100
AcDbCircle
10
-1834.6619467105857
20
28.523893421169355
30
0
40
1.6999999999998749
210
0
220
0
230
-1
0
CIRCLE
5
106
100
AcDbEntity
8
INTERIOR_PROFILES
100
AcDbCircle
10
6.8619467105850269
20
109.52389342116923
30
0
40
1.7000000000000004
210
0
220
0
230
-1
0
CIRCLE
5
107
100
AcDbEntity
8
INTERIOR_PROFILES
100
AcDbCircle
10
-6.4000000000005741
20
28.523893421169355
30
0
40
1.6999999999999993
210
0
220
0
230
-1
0
CIRCLE
5
108
100
AcDbEntity
8
INTERIOR_PROFILES
100
AcDbCircle
10
6.8619467105851122
20
28.523893421169355
30
0
40
1.7000000000000004
210
0
220
0
230
-1
0
LINE
5
109
100
AcDbEntity
8
BEND
100
AcDbLine
10
0.44999999999973284
20
22.392920065876933
30
-3.1336044870045043e-13
11
1827.3500000000001
21
22.392920065876936
31
-2.5257573810222311e-13
0
LINE
5
110
100
AcDbEntity
8
BEND
100
AcDbLine
10
1827.8000000000009
20
128.9168134870464
30
-1.9694405200358766e-13
11
0
21
128.9168134870464
31
-2.0828858036655604e-13
0
LINE
5
111
100
AcDbEntity
8
BEND
100
AcDbLine
10
1828.0309733552929
20
22.523893421169223
30
-1.9984014443252818e-13
11
1828.0309733552929
21
115.52389342116962
31
-3.0059288391726113e-13
0
LINE
5
112
100
AcDbEntity
8
BEND
100
AcDbLine
10
1827.3500000000004
20
115.6548667764618
30
-2.5063284780912909e-13
11
0.44999999999987494
21
115.6548667764618
31
-1.8984813721090177e-13
0
LINE
5
113
100
AcDbEntity
8
BEND
100
AcDbLine
10
-0.23097335529211366
20
115.52389342116922
30
-2.6090241078691179e-13
11
-0.23097335529215474
21
22.523893421169561
31
-1.73749903353837e-13
0
LINE
5
114
100
AcDbEntity
8
BEND
100
AcDbLine
10
-5.6843418860808015e-13
20
9.1309733552923316
30
-6.8455140652845922e-14
11
1827.8000000000002
21
9.1309733552923316
31
-7.829325464176433e-14
0
LINE
5
115
100
AcDbEntity
8
BEND_EXTENT
100
AcDbLine
10
1829.1619467105852
20
116.52389342116949
30
-3.9523939676655573e-13
11
1829.161946710585
21
21.523893421169351
31
-3.9523939676655573e-13
0
LWPOLYLINE
5
116
100
AcDbEntity
8
BEND_EXTENT
100
AcDbPolyline
90
4
70
1
43
0.0
10
1826.9000000000003
20
23.52389342116939
10
1826.9000000000003
20
114.52389342116938
10
0.90000000000003411
20
114.52389342116942
10
0.90000000000003411
20
23.523893421169433
0
LINE
5
117
100
AcDbEntity
8
BEND_EXTENT
100
AcDbLine
10
-2.8421709430404007e-13
20
116.78584013175409
30
-2.0872192862952943e-13
11
1827.8000000000009
21
116.78584013175401
31
-2.6201263381153694e-13
0
LINE
5
118
100
AcDbEntity
8
BEND_EXTENT
100
AcDbLine
10
0
20
130.04778684233872
30
-1.9317880628477724e-13
11
1827.8000000000009
21
130.04778684233872
31
-2.0206059048177849e-13
0
LINE
5
119
100
AcDbEntity
8
BEND_EXTENT
100
AcDbLine
10
1827.8000000000002
20
127.78584013175401
30
-2.1760371282653068e-13
11
0
21
127.78584013175401
31
-2.1760371282653068e-13
0
LINE
5
120
100
AcDbEntity
8
BEND_EXTENT
100
AcDbLine
10
1827.8000000000002
20
7.9999999999999893
30
-5.773159728050814e-14
11
-5.6843418860808015e-13
21
7.9999999999999893
31
-6.6613381477509392e-14
0
LINE
5
121
100
AcDbEntity
8
BEND_EXTENT
100
AcDbLine
10
0
20
10.261946710584688
30
-9.3258734068513149e-14
11
1827.8000000000002
21
10.261946710584688
31
-9.3258734068513149e-14
0
LINE
5
122
100
AcDbEntity
8
BEND_EXTENT
100
AcDbLine
10
1827.8000000000006
20
21.261946710584603
30
-2.5313084961453569e-13
11
-8.5265128291212022e-13
21
21.261946710584688
31
-2.5313084961453569e-13
0
LINE
5
123
100
AcDbEntity
8
BEND_EXTENT
100
AcDbLine
10
-1.3619467105848113
20
21.523893421169291
30
-3.9523939676655573e-13
11
-1.3619467105848424
21
116.52389342116945
31
-3.9523939676655573e-13
0
ENDSEC
0
SECTION
2
OBJECTS
0
DICTIONARY
5
C
100
AcDbDictionary
3
ACAD_GROUP
350
D
3
ACAD_MLINESTYLE
350
17
0
DICTIONARY
5
D
100
AcDbDictionary
0
DICTIONARY
5
1A
330
C
100
AcDbDictionary
0
DICTIONARY
5
17
100
AcDbDictionary
0
ENDSEC
0
EOF
