0
SECTION
2
HEADER
9
$INSUNITS
70
4
9
$ACADVER
1
AC1014
9
$HANDSEED
5
FFFF
0
ENDSEC
0
SECTION
2
TABLES
0
TABLE
2
VPORT
5
8
100
AcDbSymbolTable
0
ENDTAB
0
TABLE
2
LTYPE
5
5
100
AcDbSymbolTable
0
LTYPE
5
14
100
AcDbSymbolTableRecord
100
AcDbLinetypeTableRecord
2
BYBLOCK
70
0
0
LTYPE
5
15
100
AcDbSymbolTableRecord
100
AcDbLinetypeTableRecord
2
BYLAYER
70
0
0
LTYPE
5
16
100
AcDbSymbolTableRecord
100
AcDbLinetypeTableRecord
2
DASHED
70
0
3
Dashed __ __ __ __ __ __ __ __ __ __ __ __ __ _
72
65
73
2
40
0.75
49
0.5
74
0
49
-0.25
74
0
0
ENDTAB
0
TABLE
2
LAYER
5
2
100
AcDbSymbolTable
70
2
0
LAYER
5
50
100
AcDbSymbolTableRecord
100
AcDbLayerTableRecord
2
0
70
0
62
7
6
CONTINUOUS
0
ENDTAB
0
TABLE
2
STYLE
5
3
100
AcDbSymbolTable
70
1
0
STYLE
5
11
100
AcDbSymbolTableRecord
100
AcDbTextStyleTableRecord
2
STANDARD
70
0
0
ENDTAB
0
TABLE
2
VIEW
5
6
100
AcDbSymbolTable
70
0
0
ENDTAB
0
TABLE
2
UCS
5
7
100
AcDbSymbolTable
70
0
0
ENDTAB
0
TABLE
2
APPID
5
9
100
AcDbSymbolTable
70
2
0
APPID
5
12
100
AcDbSymbolTableRecord
100
AcDbRegAppTableRecord
2
ACAD
70
0
0
ENDTAB
0
TABLE
2
DIMSTYLE
5
A
100
AcDbSymbolTable
70
1
0
ENDTAB
0
TABLE
2
BLOCK_RECORD
5
1
100
AcDbSymbolTable
70
1
0
BLOCK_RECORD
5
1F
100
AcDbSymbolTableRecord
100
AcDbBlockTableRecord
2
*MODEL_SPACE
0
BLOCK_RECORD
5
1B
100
AcDbSymbolTableRecord
100
AcDbBlockTableRecord
2
*PAPER_SPACE
0
ENDTAB
0
ENDSEC
0
SECTION
2
BLOCKS
0
BLOCK
5
20
100
AcDbEntity
100
AcDbBlockBegin
2
*MODEL_SPACE
0
ENDBLK
5
21
100
AcDbEntity
100
AcDbBlockEnd
0
BLOCK
5
1C
100
AcDbEntity
100
AcDbBlockBegin
2
*PAPER_SPACE
0
ENDBLK
5
1D
100
AcDbEntity
100
AcDbBlockEnd
0
ENDSEC
0
SECTION
2
ENTITIES
0
LINE
5
100
100
AcDbEntity
8
OUTER_PROFILES
100
AcDbLine
10
719.999786437441
20
0
30
0
11
719.999786437441
21
12.999999999999833
31
0
0
LINE
5
101
100
AcDbEntity
8
OUTER_PROFILES
100
AcDbLine
10
719.99989321862768
20
12.999999999999883
30
0
11
719.99989321862768
21
15.261946710584571
31
0
0
LINE
5
102
100
AcDbEntity
8
OUTER_PROFILES
100
AcDbLine
10
719.99989321862768
20
15.261946710584571
30
0
11
722.26183992921233
21
15.261946710584496
31
0
0
LINE
5
103
100
AcDbEntity
8
OUTER_PROFILES
100
AcDbLine
10
722.26183992921233
20
15.262053491771109
30
0
11
735.26183992921233
21
15.262053491770889
31
0
0
LINE
5
104
100
AcDbEntity
8
OUTER_PROFILES
100
AcDbLine
10
735.26183992921233
20
15.262053491770889
30
0
11
735.26183992921324
21
70.261839929402157
31
0
0
LINE
5
105
100
AcDbEntity
8
OUTER_PROFILES
100
AcDbLine
10
735.26183992921324
20
70.261839929402157
30
0
11
722.26183992921324
21
70.261839929402385
31
0
0
LINE
5
106
100
AcDbEntity
8
OUTER_PROFILES
100
AcDbLine
10
722.26183992921324
20
70.261946710588944
30
0
11
719.99989321862824
21
70.261946710588717
31
0
0
LINE
5
107
100
AcDbEntity
8
OUTER_PROFILES
100
AcDbLine
10
719.99989321862824
20
70.261946710588717
30
0
11
719.99989321862824
21
72.523893421173568
31
0
0
LINE
5
108
100
AcDbEntity
8
OUTER_PROFILES
100
AcDbLine
10
719.99978643744168
20
72.523893421173526
30
0
11
719.9997864374418
21
85.523893421173483
31
0
0
LINE
5
109
100
AcDbEntity
8
OUTER_PROFILES
100
AcDbLine
10
719.9997864374418
20
85.523893421173483
30
0
11
7.1054273576010019e-13
21
85.523893421180958
31
0
0
LINE
5
110
100
AcDbEntity
8
OUTER_PROFILES
100
AcDbLine
10
7.1054273576010019e-13
20
85.523893421180958
30
0
11
5.6843418860808015e-13
21
72.5238934211811
31
0
0
LINE
5
111
100
AcDbEntity
8
OUTER_PROFILES
100
AcDbLine
10
-0.0001067811858490586
20
72.523893421181057
30
0
11
-0.0001067811858490586
21
70.261946710596163
31
0
0
LINE
5
112
100
AcDbEntity
8
OUTER_PROFILES
100
AcDbLine
10
-0.0001067811858490586
20
70.261946710596163
30
0
11
-2.2620534917706436
21
70.261946710596192
31
0
0
LINE
5
113
100
AcDbEntity
8
OUTER_PROFILES
100
AcDbLine
10
-2.2620534917705015
20
70.261839929409646
30
0
11
-15.262053491770473
21
70.261839929409788
31
0
0
LINE
5
114
100
AcDbEntity
8
OUTER_PROFILES
100
AcDbLine
10
-15.262053491770473
20
70.261839929409788
30
0
11
-15.262053491771042
21
15.262053491771272
31
0
0
LINE
5
115
100
AcDbEntity
8
OUTER_PROFILES
100
AcDbLine
10
-15.262053491771042
20
15.262053491771272
30
0
11
-2.26205349177107
21
15.26205349177115
31
0
0
LINE
5
116
100
AcDbEntity
8
OUTER_PROFILES
100
AcDbLine
10
-2.2620534917712121
20
15.261946710584599
30
0
11
-0.00010678118641749279
21
15.261946710584581
31
0
0
LINE
5
117
100
AcDbEntity
8
OUTER_PROFILES
100
AcDbLine
10
-0.00010678118641749279
20
15.261946710584581
30
0
11
-0.00010678118641749279
21
12.999999999999892
31
0
0
LINE
5
118
100
AcDbEntity
8
OUTER_PROFILES
100
AcDbLine
10
1.4210854715202004e-13
20
12.999999999999956
30
0
11
0
21
0
31
0
0
LINE
5
119
100
AcDbEntity
8
OUTER_PROFILES
100
AcDbLine
10
0
20
0
30
0
11
719.999786437441
21
0
31
0
0
LINE
5
120
100
AcDbEntity
8
BEND
100
AcDbLine
10
719.99989321862824
20
71.392920065881199
30
-2.0389074294340887e-12
11
-0.0001067811858490586
21
71.392920065888688
31
-1.8324456746162567e-12
0
LINE
5
121
100
AcDbEntity
8
BEND
100
AcDbLine
10
721.13086657392
20
15.261946710584514
30
-2.1788076469228735e-12
11
721.13086657392091
21
70.261946710588958
31
-2.2187756758093788e-12
0
LINE
5
122
100
AcDbEntity
8
BEND
100
AcDbLine
10
-0.00010678118641749279
20
14.130973355292145
30
-2.020207993763517e-12
11
719.99989321862768
21
14.130973355292147
31
-2.0135152276382233e-12
0
LINE
5
123
100
AcDbEntity
8
BEND
100
AcDbLine
10
-1.1310801364783174
20
70.261946710596177
30
-2.1832640340117964e-12
11
-1.1310801364788858
21
15.261946710584589
31
-2.1854844800610467e-12
0
LINE
5
124
100
AcDbEntity
8
BEND_EXTENT
100
AcDbLine
10
722.26183992921324
20
70.261839929402385
30
-2.3159097353647756e-12
11
722.26183992921233
21
15.262053491771113
31
-2.1027469146367456e-12
0
LWPOLYLINE
5
125
100
AcDbEntity
8
BEND_EXTENT
100
AcDbPolyline
90
4
70
1
43
0.0
10
719.99989321862768
20
15.261946710584571
10
719.99989321862824
20
70.261946710588717
10
-0.0001067811858490586
20
70.261946710596163
10
-0.00010678118641749279
20
15.26194671058458
0
LINE
5
126
100
AcDbEntity
8
BEND_EXTENT
100
AcDbLine
10
719.999786437441
20
12.999999999999833
30
-1.8185507315184366e-12
11
1.4210854715202004e-13
21
12.999999999999956
31
-1.8518520050747611e-12
0
LINE
5
127
100
AcDbEntity
8
BEND_EXTENT
100
AcDbLine
10
5.6843418860808015e-13
20
72.5238934211811
30
-1.7186252421197423e-12
11
719.99978643744168
21
72.523893421173526
31
-1.6808830764649172e-12
0
LINE
5
128
100
AcDbEntity
8
BEND_EXTENT
100
AcDbLine
10
-2.26205349177107
20
15.26205349177115
30
-2.1804989315495386e-12
11
-2.2620534917705015
21
70.261839929409646
31
-2.2515532051255486e-12
0
ENDSEC
0
SECTION
2
OBJECTS
0
DICTIONARY
5
C
100
AcDbDictionary
3
ACAD_GROUP
350
D
3
ACAD_MLINESTYLE
350
17
0
DICTIONARY
5
D
100
AcDbDictionary
0
DICTIONARY
5
1A
330
C
100
AcDbDictionary
0
DICTIONARY
5
17
100
AcDbDictionary
0
ENDSEC
0
EOF
