0
SECTION
2
HEADER
9
$INSUNITS
70
4
9
$ACADVER
1
AC1014
9
$HANDSEED
5
FFFF
0
ENDSEC
0
SECTION
2
TABLES
0
TABLE
2
VPORT
5
8
100
AcDbSymbolTable
0
ENDTAB
0
TABLE
2
LTYPE
5
5
100
AcDbSymbolTable
0
LTYPE
5
14
100
AcDbSymbolTableRecord
100
AcDbLinetypeTableRecord
2
BYBLOCK
70
0
0
LTYPE
5
15
100
AcDbSymbolTableRecord
100
AcDbLinetypeTableRecord
2
BYLAYER
70
0
0
LTYPE
5
16
100
AcDbSymbolTableRecord
100
AcDbLinetypeTableRecord
2
DASHED
70
0
3
Dashed __ __ __ __ __ __ __ __ __ __ __ __ __ _
72
65
73
2
40
0.75
49
0.5
74
0
49
-0.25
74
0
0
ENDTAB
0
TABLE
2
LAYER
5
2
100
AcDbSymbolTable
70
2
0
LAYER
5
50
100
AcDbSymbolTableRecord
100
AcDbLayerTableRecord
2
0
70
0
62
7
6
CONTINUOUS
0
ENDTAB
0
TABLE
2
STYLE
5
3
100
AcDbSymbolTable
70
1
0
STYLE
5
11
100
AcDbSymbolTableRecord
100
AcDbTextStyleTableRecord
2
STANDARD
70
0
0
ENDTAB
0
TABLE
2
VIEW
5
6
100
AcDbSymbolTable
70
0
0
ENDTAB
0
TABLE
2
UCS
5
7
100
AcDbSymbolTable
70
0
0
ENDTAB
0
TABLE
2
APPID
5
9
100
AcDbSymbolTable
70
2
0
APPID
5
12
100
AcDbSymbolTableRecord
100
AcDbRegAppTableRecord
2
ACAD
70
0
0
ENDTAB
0
TABLE
2
DIMSTYLE
5
A
100
AcDbSymbolTable
70
1
0
ENDTAB
0
TABLE
2
BLOCK_RECORD
5
1
100
AcDbSymbolTable
70
1
0
BLOCK_RECORD
5
1F
100
AcDbSymbolTableRecord
100
AcDbBlockTableRecord
2
*MODEL_SPACE
0
BLOCK_RECORD
5
1B
100
AcDbSymbolTableRecord
100
AcDbBlockTableRecord
2
*PAPER_SPACE
0
ENDTAB
0
ENDSEC
0
SECTION
2
BLOCKS
0
BLOCK
5
20
100
AcDbEntity
100
AcDbBlockBegin
2
*MODEL_SPACE
0
ENDBLK
5
21
100
AcDbEntity
100
AcDbBlockEnd
0
BLOCK
5
1C
100
AcDbEntity
100
AcDbBlockBegin
2
*PAPER_SPACE
0
ENDBLK
5
1D
100
AcDbEntity
100
AcDbBlockEnd
0
ENDSEC
0
SECTION
2
ENTITIES
0
LWPOLYLINE
5
100
100
AcDbEntity
8
OUTER_PROFILES
100
AcDbPolyline
90
20
70
1
43
0.0
10
-1.3619467105845979
20
116.52389342116894
10
0.90000000000003411
20
114.52389342116895
10
0
20
116.7858401317537
10
0
20
138.04778684233793
10
1447.8000000000002
20
138.04778684233793
10
1447.8000000000009
20
116.78584013175364
10
1446.9000000000003
20
114.52389342116896
10
1449.161946710585
20
116.52389342116894
10
1547.1619467105847
20
116.52389342116896
10
1547.1619467105847
20
21.52389342116896
10
1449.1619467105847
20
21.523893421168964
10
1446.9000000000003
20
23.52389342116895
10
1447.8000000000002
20
21.261946710584219
10
1447.8000000000002
20
0
10
0
20
0
10
-5.6843418860808015e-13
20
21.261946710584301
10
0.90000000000003411
20
23.523893421168939
10
-1.3619467105845473
20
21.523893421168911
10
-99.361946710584292
20
21.52389342116896
10
-99.361946710584292
20
116.52389342116896
0
CIRCLE
5
101
100
AcDbEntity
8
INTERIOR_PROFILES
100
AcDbCircle
10
-1143.9000000000001
20
76.523893421168964
30
0
40
5
210
0
220
0
230
-1
0
CIRCLE
5
102
100
AcDbEntity
8
INTERIOR_PROFILES
100
AcDbCircle
10
-1083.9000000000001
20
96.523893421168964
30
0
40
5
210
0
220
0
230
-1
0
CIRCLE
5
103
100
AcDbEntity
8
INTERIOR_PROFILES
100
AcDbCircle
10
-1183.9000000000001
20
76.523893421168964
30
0
40
5
210
0
220
0
230
-1
0
CIRCLE
5
104
100
AcDbEntity
8
INTERIOR_PROFILES
100
AcDbCircle
10
-1343.9000000000001
20
96.523893421168964
30
0
40
5
210
0
220
0
230
-1
0
CIRCLE
5
105
100
AcDbEntity
8
INTERIOR_PROFILES
100
AcDbCircle
10
-1283.9000000000001
20
36.523893421168964
30
0
40
4.9999999999999956
210
0
220
0
230
-1
0
CIRCLE
5
106
100
AcDbEntity
8
INTERIOR_PROFILES
100
AcDbCircle
10
-1363.9000000000001
20
96.523893421168964
30
0
40
5
210
0
220
0
230
-1
0
CIRCLE
5
107
100
AcDbEntity
8
INTERIOR_PROFILES
100
AcDbCircle
10
-1403.9000000000001
20
56.523893421168964
30
0
40
5
210
0
220
0
230
-1
0
CIRCLE
5
108
100
AcDbEntity
8
INTERIOR_PROFILES
100
AcDbCircle
10
-1163.9000000000001
20
96.523893421168964
30
0
40
5
210
0
220
0
230
-1
0
CIRCLE
5
109
100
AcDbEntity
8
INTERIOR_PROFILES
100
AcDbCircle
10
-1383.9000000000001
20
76.523893421168964
30
0
40
5
210
0
220
0
230
-1
0
CIRCLE
5
110
100
AcDbEntity
8
INTERIOR_PROFILES
100
AcDbCircle
10
-1303.9000000000001
20
96.523893421168964
30
0
40
5
210
0
220
0
230
-1
0
CIRCLE
5
111
100
AcDbEntity
8
INTERIOR_PROFILES
100
AcDbCircle
10
-1123.9000000000001
20
76.523893421168964
30
0
40
5
210
0
220
0
230
-1
0
CIRCLE
5
112
100
AcDbEntity
8
INTERIOR_PROFILES
100
AcDbCircle
10
-1383.9000000000001
20
36.523893421168964
30
0
40
4.9999999999999956
210
0
220
0
230
-1
0
CIRCLE
5
113
100
AcDbEntity
8
INTERIOR_PROFILES
100
AcDbCircle
10
-1163.9000000000001
20
56.523893421168964
30
0
40
5
210
0
220
0
230
-1
0
CIRCLE
5
114
100
AcDbEntity
8
INTERIOR_PROFILES
100
AcDbCircle
10
-1103.9000000000001
20
56.523893421168964
30
0
40
5
210
0
220
0
230
-1
0
CIRCLE
5
115
100
AcDbEntity
8
INTERIOR_PROFILES
100
AcDbCircle
10
-1423.9000000000001
20
76.523893421168964
30
0
40
5
210
0
220
0
230
-1
0
CIRCLE
5
116
100
AcDbEntity
8
INTERIOR_PROFILES
100
AcDbCircle
10
-1203.9000000000001
20
96.523893421168964
30
0
40
5
210
0
220
0
230
-1
0
CIRCLE
5
117
100
AcDbEntity
8
INTERIOR_PROFILES
100
AcDbCircle
10
-1043.9000000000001
20
36.523893421168964
30
0
40
4.9999999999999956
210
0
220
0
230
-1
0
CIRCLE
5
118
100
AcDbEntity
8
INTERIOR_PROFILES
100
AcDbCircle
10
-1363.9000000000001
20
36.523893421168964
30
0
40
4.9999999999999956
210
0
220
0
230
-1
0
CIRCLE
5
119
100
AcDbEntity
8
INTERIOR_PROFILES
100
AcDbCircle
10
-843.90000000000009
20
96.523893421168964
30
0
40
5
210
0
220
0
230
-1
0
CIRCLE
5
120
100
AcDbEntity
8
INTERIOR_PROFILES
100
AcDbCircle
10
-1343.9000000000001
20
36.523893421168964
30
0
40
4.9999999999999956
210
0
220
0
230
-1
0
CIRCLE
5
121
100
AcDbEntity
8
INTERIOR_PROFILES
100
AcDbCircle
10
-1063.9000000000001
20
36.523893421168964
30
0
40
4.9999999999999956
210
0
220
0
230
-1
0
CIRCLE
5
122
100
AcDbEntity
8
INTERIOR_PROFILES
100
AcDbCircle
10
-763.90000000000009
20
76.523893421168964
30
0
40
5
210
0
220
0
230
-1
0
CIRCLE
5
123
100
AcDbEntity
8
INTERIOR_PROFILES
100
AcDbCircle
10
-1103.9000000000001
20
36.523893421168964
30
0
40
4.9999999999999956
210
0
220
0
230
-1
0
CIRCLE
5
124
100
AcDbEntity
8
INTERIOR_PROFILES
100
AcDbCircle
10
-863.90000000000009
20
76.523893421168964
30
0
40
5
210
0
220
0
230
-1
0
CIRCLE
5
125
100
AcDbEntity
8
INTERIOR_PROFILES
100
AcDbCircle
10
-843.90000000000009
20
36.523893421168964
30
0
40
4.9999999999999956
210
0
220
0
230
-1
0
CIRCLE
5
126
100
AcDbEntity
8
INTERIOR_PROFILES
100
AcDbCircle
10
-783.90000000000009
20
96.523893421168964
30
0
40
5
210
0
220
0
230
-1
0
CIRCLE
5
127
100
AcDbEntity
8
INTERIOR_PROFILES
100
AcDbCircle
10
-1263.9000000000001
20
56.523893421168964
30
0
40
5
210
0
220
0
230
-1
0
CIRCLE
5
128
100
AcDbEntity
8
INTERIOR_PROFILES
100
AcDbCircle
10
-1203.9000000000001
20
76.523893421168964
30
0
40
5
210
0
220
0
230
-1
0
CIRCLE
5
129
100
AcDbEntity
8
INTERIOR_PROFILES
100
AcDbCircle
10
-783.90000000000009
20
76.523893421168964
30
0
40
5
210
0
220
0
230
-1
0
CIRCLE
5
130
100
AcDbEntity
8
INTERIOR_PROFILES
100
AcDbCircle
10
-1343.9000000000001
20
56.523893421168964
30
0
40
5
210
0
220
0
230
-1
0
CIRCLE
5
131
100
AcDbEntity
8
INTERIOR_PROFILES
100
AcDbCircle
10
-1223.9000000000001
20
36.523893421168964
30
0
40
4.9999999999999956
210
0
220
0
230
-1
0
CIRCLE
5
132
100
AcDbEntity
8
INTERIOR_PROFILES
100
AcDbCircle
10
-863.90000000000009
20
56.523893421168964
30
0
40
5
210
0
220
0
230
-1
0
CIRCLE
5
133
100
AcDbEntity
8
INTERIOR_PROFILES
100
AcDbCircle
10
-1143.9000000000001
20
36.523893421168964
30
0
40
4.9999999999999956
210
0
220
0
230
-1
0
CIRCLE
5
134
100
AcDbEntity
8
INTERIOR_PROFILES
100
AcDbCircle
10
-1043.9000000000001
20
96.523893421168964
30
0
40
5
210
0
220
0
230
-1
0
CIRCLE
5
135
100
AcDbEntity
8
INTERIOR_PROFILES
100
AcDbCircle
10
-823.90000000000009
20
76.523893421168964
30
0
40
5
210
0
220
0
230
-1
0
CIRCLE
5
136
100
AcDbEntity
8
INTERIOR_PROFILES
100
AcDbCircle
10
-803.90000000000009
20
96.523893421168964
30
0
40
5
210
0
220
0
230
-1
0
CIRCLE
5
137
100
AcDbEntity
8
INTERIOR_PROFILES
100
AcDbCircle
10
-843.90000000000009
20
56.523893421168964
30
0
40
5
210
0
220
0
230
-1
0
CIRCLE
5
138
100
AcDbEntity
8
INTERIOR_PROFILES
100
AcDbCircle
10
-1383.9000000000001
20
56.523893421168964
30
0
40
5
210
0
220
0
230
-1
0
CIRCLE
5
139
100
AcDbEntity
8
INTERIOR_PROFILES
100
AcDbCircle
10
-1063.9000000000001
20
96.523893421168964
30
0
40
5
210
0
220
0
230
-1
0
CIRCLE
5
140
100
AcDbEntity
8
INTERIOR_PROFILES
100
AcDbCircle
10
-1143.9000000000001
20
56.523893421168964
30
0
40
5
210
0
220
0
230
-1
0
CIRCLE
5
141
100
AcDbEntity
8
INTERIOR_PROFILES
100
AcDbCircle
10
-823.90000000000009
20
56.523893421168964
30
0
40
5
210
0
220
0
230
-1
0
CIRCLE
5
142
100
AcDbEntity
8
INTERIOR_PROFILES
100
AcDbCircle
10
-1223.9000000000001
20
56.523893421168964
30
0
40
5
210
0
220
0
230
-1
0
CIRCLE
5
143
100
AcDbEntity
8
INTERIOR_PROFILES
100
AcDbCircle
10
-1203.9000000000001
20
56.523893421168964
30
0
40
5
210
0
220
0
230
-1
0
CIRCLE
5
144
100
AcDbEntity
8
INTERIOR_PROFILES
100
AcDbCircle
10
-803.90000000000009
20
76.523893421168964
30
0
40
5
210
0
220
0
230
-1
0
CIRCLE
5
145
100
AcDbEntity
8
INTERIOR_PROFILES
100
AcDbCircle
10
-1043.9000000000001
20
56.523893421168964
30
0
40
5
210
0
220
0
230
-1
0
CIRCLE
5
146
100
AcDbEntity
8
INTERIOR_PROFILES
100
AcDbCircle
10
-1063.9000000000001
20
56.523893421168964
30
0
40
5
210
0
220
0
230
-1
0
CIRCLE
5
147
100
AcDbEntity
8
INTERIOR_PROFILES
100
AcDbCircle
10
-1083.9000000000001
20
36.523893421168964
30
0
40
4.9999999999999956
210
0
220
0
230
-1
0
CIRCLE
5
148
100
AcDbEntity
8
INTERIOR_PROFILES
100
AcDbCircle
10
-783.90000000000009
20
56.523893421168964
30
0
40
5
210
0
220
0
230
-1
0
CIRCLE
5
149
100
AcDbEntity
8
INTERIOR_PROFILES
100
AcDbCircle
10
-723.90000000000009
20
36.523893421168964
30
0
40
4.9999999999999956
210
0
220
0
230
-1
0
CIRCLE
5
150
100
AcDbEntity
8
INTERIOR_PROFILES
100
AcDbCircle
10
-1243.9000000000001
20
36.523893421168964
30
0
40
4.9999999999999956
210
0
220
0
230
-1
0
CIRCLE
5
151
100
AcDbEntity
8
INTERIOR_PROFILES
100
AcDbCircle
10
-823.90000000000009
20
36.523893421168964
30
0
40
4.9999999999999956
210
0
220
0
230
-1
0
CIRCLE
5
152
100
AcDbEntity
8
INTERIOR_PROFILES
100
AcDbCircle
10
-1083.9000000000001
20
56.523893421168964
30
0
40
5
210
0
220
0
230
-1
0
CIRCLE
5
153
100
AcDbEntity
8
INTERIOR_PROFILES
100
AcDbCircle
10
-803.90000000000009
20
36.523893421168964
30
0
40
4.9999999999999956
210
0
220
0
230
-1
0
CIRCLE
5
154
100
AcDbEntity
8
INTERIOR_PROFILES
100
AcDbCircle
10
-1323.9000000000001
20
76.523893421168964
30
0
40
5
210
0
220
0
230
-1
0
CIRCLE
5
155
100
AcDbEntity
8
INTERIOR_PROFILES
100
AcDbCircle
10
-763.90000000000009
20
56.523893421168964
30
0
40
5
210
0
220
0
230
-1
0
CIRCLE
5
156
100
AcDbEntity
8
INTERIOR_PROFILES
100
AcDbCircle
10
-1323.9000000000001
20
56.523893421168964
30
0
40
5
210
0
220
0
230
-1
0
CIRCLE
5
157
100
AcDbEntity
8
INTERIOR_PROFILES
100
AcDbCircle
10
-1203.9000000000001
20
36.523893421168964
30
0
40
4.9999999999999956
210
0
220
0
230
-1
0
CIRCLE
5
158
100
AcDbEntity
8
INTERIOR_PROFILES
100
AcDbCircle
10
-1343.9000000000001
20
76.523893421168964
30
0
40
5
210
0
220
0
230
-1
0
CIRCLE
5
159
100
AcDbEntity
8
INTERIOR_PROFILES
100
AcDbCircle
10
-823.90000000000009
20
96.523893421168964
30
0
40
5
210
0
220
0
230
-1
0
CIRCLE
5
160
100
AcDbEntity
8
INTERIOR_PROFILES
100
AcDbCircle
10
-1223.9000000000001
20
96.523893421168964
30
0
40
5
210
0
220
0
230
-1
0
CIRCLE
5
161
100
AcDbEntity
8
INTERIOR_PROFILES
100
AcDbCircle
10
-763.90000000000009
20
36.523893421168964
30
0
40
4.9999999999999956
210
0
220
0
230
-1
0
CIRCLE
5
162
100
AcDbEntity
8
INTERIOR_PROFILES
100
AcDbCircle
10
-923.90000000000009
20
56.523893421168964
30
0
40
5
210
0
220
0
230
-1
0
CIRCLE
5
163
100
AcDbEntity
8
INTERIOR_PROFILES
100
AcDbCircle
10
-763.90000000000009
20
96.523893421168964
30
0
40
5
210
0
220
0
230
-1
0
CIRCLE
5
164
100
AcDbEntity
8
INTERIOR_PROFILES
100
AcDbCircle
10
-783.90000000000009
20
36.523893421168964
30
0
40
4.9999999999999956
210
0
220
0
230
-1
0
CIRCLE
5
165
100
AcDbEntity
8
INTERIOR_PROFILES
100
AcDbCircle
10
-723.90000000000009
20
76.523893421168964
30
0
40
5
210
0
220
0
230
-1
0
CIRCLE
5
166
100
AcDbEntity
8
INTERIOR_PROFILES
100
AcDbCircle
10
-843.90000000000009
20
76.523893421168964
30
0
40
5
210
0
220
0
230
-1
0
CIRCLE
5
167
100
AcDbEntity
8
INTERIOR_PROFILES
100
AcDbCircle
10
-723.90000000000009
20
56.523893421168964
30
0
40
5
210
0
220
0
230
-1
0
CIRCLE
5
168
100
AcDbEntity
8
INTERIOR_PROFILES
100
AcDbCircle
10
-1183.9000000000001
20
36.523893421168964
30
0
40
4.9999999999999956
210
0
220
0
230
-1
0
CIRCLE
5
169
100
AcDbEntity
8
INTERIOR_PROFILES
100
AcDbCircle
10
-1323.9000000000001
20
36.523893421168964
30
0
40
4.9999999999999956
210
0
220
0
230
-1
0
CIRCLE
5
170
100
AcDbEntity
8
INTERIOR_PROFILES
100
AcDbCircle
10
-1243.9000000000001
20
56.523893421168964
30
0
40
5
210
0
220
0
230
-1
0
CIRCLE
5
171
100
AcDbEntity
8
INTERIOR_PROFILES
100
AcDbCircle
10
-943.90000000000009
20
36.523893421168964
30
0
40
4.9999999999999956
210
0
220
0
230
-1
0
CIRCLE
5
172
100
AcDbEntity
8
INTERIOR_PROFILES
100
AcDbCircle
10
-1183.9000000000001
20
56.523893421168964
30
0
40
5
210
0
220
0
230
-1
0
CIRCLE
5
173
100
AcDbEntity
8
INTERIOR_PROFILES
100
AcDbCircle
10
-863.90000000000009
20
36.523893421168964
30
0
40
4.9999999999999956
210
0
220
0
230
-1
0
CIRCLE
5
174
100
AcDbEntity
8
INTERIOR_PROFILES
100
AcDbCircle
10
-803.90000000000009
20
56.523893421168964
30
0
40
5
210
0
220
0
230
-1
0
CIRCLE
5
175
100
AcDbEntity
8
INTERIOR_PROFILES
100
AcDbCircle
10
-883.90000000000009
20
36.523893421168964
30
0
40
4.9999999999999956
210
0
220
0
230
-1
0
CIRCLE
5
176
100
AcDbEntity
8
INTERIOR_PROFILES
100
AcDbCircle
10
-1263.9000000000001
20
36.523893421168964
30
0
40
4.9999999999999956
210
0
220
0
230
-1
0
CIRCLE
5
177
100
AcDbEntity
8
INTERIOR_PROFILES
100
AcDbCircle
10
-743.90000000000009
20
76.523893421168964
30
0
40
5
210
0
220
0
230
-1
0
CIRCLE
5
178
100
AcDbEntity
8
INTERIOR_PROFILES
100
AcDbCircle
10
-1303.9000000000001
20
36.523893421168964
30
0
40
4.9999999999999956
210
0
220
0
230
-1
0
CIRCLE
5
179
100
AcDbEntity
8
INTERIOR_PROFILES
100
AcDbCircle
10
-723.90000000000009
20
96.523893421168964
30
0
40
5
210
0
220
0
230
-1
0
CIRCLE
5
180
100
AcDbEntity
8
INTERIOR_PROFILES
100
AcDbCircle
10
-1323.9000000000001
20
96.523893421168964
30
0
40
5
210
0
220
0
230
-1
0
CIRCLE
5
181
100
AcDbEntity
8
INTERIOR_PROFILES
100
AcDbCircle
10
-1383.9000000000001
20
96.523893421168964
30
0
40
5
210
0
220
0
230
-1
0
CIRCLE
5
182
100
AcDbEntity
8
INTERIOR_PROFILES
100
AcDbCircle
10
-1103.9000000000001
20
96.523893421168964
30
0
40
5
210
0
220
0
230
-1
0
CIRCLE
5
183
100
AcDbEntity
8
INTERIOR_PROFILES
100
AcDbCircle
10
-1003.9000000000001
20
76.523893421168964
30
0
40
5
210
0
220
0
230
-1
0
CIRCLE
5
184
100
AcDbEntity
8
INTERIOR_PROFILES
100
AcDbCircle
10
-963.90000000000009
20
76.523893421168964
30
0
40
5
210
0
220
0
230
-1
0
CIRCLE
5
185
100
AcDbEntity
8
INTERIOR_PROFILES
100
AcDbCircle
10
-883.90000000000009
20
96.523893421168964
30
0
40
5
210
0
220
0
230
-1
0
CIRCLE
5
186
100
AcDbEntity
8
INTERIOR_PROFILES
100
AcDbCircle
10
-883.90000000000009
20
56.523893421168964
30
0
40
5
210
0
220
0
230
-1
0
CIRCLE
5
187
100
AcDbEntity
8
INTERIOR_PROFILES
100
AcDbCircle
10
-1423.9000000000001
20
56.523893421168964
30
0
40
5
210
0
220
0
230
-1
0
CIRCLE
5
188
100
AcDbEntity
8
INTERIOR_PROFILES
100
AcDbCircle
10
-1243.9000000000001
20
96.523893421168964
30
0
40
5
210
0
220
0
230
-1
0
CIRCLE
5
189
100
AcDbEntity
8
INTERIOR_PROFILES
100
AcDbCircle
10
-963.90000000000009
20
96.523893421168964
30
0
40
5
210
0
220
0
230
-1
0
CIRCLE
5
190
100
AcDbEntity
8
INTERIOR_PROFILES
100
AcDbCircle
10
-1243.9000000000001
20
76.523893421168964
30
0
40
5
210
0
220
0
230
-1
0
CIRCLE
5
191
100
AcDbEntity
8
INTERIOR_PROFILES
100
AcDbCircle
10
-1303.9000000000001
20
76.523893421168964
30
0
40
5
210
0
220
0
230
-1
0
CIRCLE
5
192
100
AcDbEntity
8
INTERIOR_PROFILES
100
AcDbCircle
10
-943.90000000000009
20
76.523893421168964
30
0
40
5
210
0
220
0
230
-1
0
CIRCLE
5
193
100
AcDbEntity
8
INTERIOR_PROFILES
100
AcDbCircle
10
-1423.9000000000001
20
36.523893421168964
30
0
40
4.9999999999999956
210
0
220
0
230
-1
0
CIRCLE
5
194
100
AcDbEntity
8
INTERIOR_PROFILES
100
AcDbCircle
10
-1303.9000000000001
20
56.523893421168964
30
0
40
5
210
0
220
0
230
-1
0
CIRCLE
5
195
100
AcDbEntity
8
INTERIOR_PROFILES
100
AcDbCircle
10
-1283.9000000000001
20
76.523893421168964
30
0
40
5
210
0
220
0
230
-1
0
CIRCLE
5
196
100
AcDbEntity
8
INTERIOR_PROFILES
100
AcDbCircle
10
-1363.9000000000001
20
76.523893421168964
30
0
40
5
210
0
220
0
230
-1
0
CIRCLE
5
197
100
AcDbEntity
8
INTERIOR_PROFILES
100
AcDbCircle
10
-743.90000000000009
20
96.523893421168964
30
0
40
5
210
0
220
0
230
-1
0
CIRCLE
5
198
100
AcDbEntity
8
INTERIOR_PROFILES
100
AcDbCircle
10
-1043.9000000000001
20
76.523893421168964
30
0
40
5
210
0
220
0
230
-1
0
CIRCLE
5
199
100
AcDbEntity
8
INTERIOR_PROFILES
100
AcDbCircle
10
-1283.9000000000001
20
56.523893421168964
30
0
40
5
210
0
220
0
230
-1
0
CIRCLE
5
200
100
AcDbEntity
8
INTERIOR_PROFILES
100
AcDbCircle
10
-1363.9000000000001
20
56.523893421168964
30
0
40
5
210
0
220
0
230
-1
0
CIRCLE
5
201
100
AcDbEntity
8
INTERIOR_PROFILES
100
AcDbCircle
10
-1083.9000000000001
20
76.523893421168964
30
0
40
5
210
0
220
0
230
-1
0
CIRCLE
5
202
100
AcDbEntity
8
INTERIOR_PROFILES
100
AcDbCircle
10
-1403.9000000000001
20
36.523893421168964
30
0
40
4.9999999999999956
210
0
220
0
230
-1
0
CIRCLE
5
203
100
AcDbEntity
8
INTERIOR_PROFILES
100
AcDbCircle
10
-1263.9000000000001
20
76.523893421168964
30
0
40
5
210
0
220
0
230
-1
0
CIRCLE
5
204
100
AcDbEntity
8
INTERIOR_PROFILES
100
AcDbCircle
10
-1223.9000000000001
20
76.523893421168964
30
0
40
5
210
0
220
0
230
-1
0
CIRCLE
5
205
100
AcDbEntity
8
INTERIOR_PROFILES
100
AcDbCircle
10
-1163.9000000000001
20
36.523893421168964
30
0
40
4.9999999999999956
210
0
220
0
230
-1
0
CIRCLE
5
206
100
AcDbEntity
8
INTERIOR_PROFILES
100
AcDbCircle
10
-1403.9000000000001
20
76.523893421168964
30
0
40
5
210
0
220
0
230
-1
0
CIRCLE
5
207
100
AcDbEntity
8
INTERIOR_PROFILES
100
AcDbCircle
10
-1123.9000000000001
20
56.523893421168964
30
0
40
5
210
0
220
0
230
-1
0
CIRCLE
5
208
100
AcDbEntity
8
INTERIOR_PROFILES
100
AcDbCircle
10
-1123.9000000000001
20
96.523893421168964
30
0
40
5
210
0
220
0
230
-1
0
CIRCLE
5
209
100
AcDbEntity
8
INTERIOR_PROFILES
100
AcDbCircle
10
-1283.9000000000001
20
96.523893421168964
30
0
40
5
210
0
220
0
230
-1
0
CIRCLE
5
210
100
AcDbEntity
8
INTERIOR_PROFILES
100
AcDbCircle
10
-1183.9000000000001
20
96.523893421168964
30
0
40
5
210
0
220
0
230
-1
0
CIRCLE
5
211
100
AcDbEntity
8
INTERIOR_PROFILES
100
AcDbCircle
10
-1123.9000000000001
20
36.523893421168964
30
0
40
4.9999999999999956
210
0
220
0
230
-1
0
CIRCLE
5
212
100
AcDbEntity
8
INTERIOR_PROFILES
100
AcDbCircle
10
-1063.9000000000001
20
76.523893421168964
30
0
40
5
210
0
220
0
230
-1
0
CIRCLE
5
213
100
AcDbEntity
8
INTERIOR_PROFILES
100
AcDbCircle
10
-963.90000000000009
20
56.523893421168964
30
0
40
5
210
0
220
0
230
-1
0
CIRCLE
5
214
100
AcDbEntity
8
INTERIOR_PROFILES
100
AcDbCircle
10
-903.90000000000009
20
56.523893421168964
30
0
40
5
210
0
220
0
230
-1
0
CIRCLE
5
215
100
AcDbEntity
8
INTERIOR_PROFILES
100
AcDbCircle
10
-923.90000000000009
20
36.523893421168964
30
0
40
4.9999999999999956
210
0
220
0
230
-1
0
CIRCLE
5
216
100
AcDbEntity
8
INTERIOR_PROFILES
100
AcDbCircle
10
-903.90000000000009
20
76.523893421168964
30
0
40
5
210
0
220
0
230
-1
0
CIRCLE
5
217
100
AcDbEntity
8
INTERIOR_PROFILES
100
AcDbCircle
10
-983.90000000000009
20
96.523893421168964
30
0
40
5
210
0
220
0
230
-1
0
CIRCLE
5
218
100
AcDbEntity
8
INTERIOR_PROFILES
100
AcDbCircle
10
6.8619467105856513
20
28.523893421168967
30
0
40
1.7000000000000004
210
0
220
0
230
-1
0
CIRCLE
5
219
100
AcDbEntity
8
INTERIOR_PROFILES
100
AcDbCircle
10
-863.90000000000009
20
96.523893421168964
30
0
40
5
210
0
220
0
230
-1
0
CIRCLE
5
220
100
AcDbEntity
8
INTERIOR_PROFILES
100
AcDbCircle
10
-1023.9000000000001
20
96.523893421168964
30
0
40
5
210
0
220
0
230
-1
0
CIRCLE
5
221
100
AcDbEntity
8
INTERIOR_PROFILES
100
AcDbCircle
10
-1003.9000000000001
20
56.523893421168964
30
0
40
5
210
0
220
0
230
-1
0
CIRCLE
5
222
100
AcDbEntity
8
INTERIOR_PROFILES
100
AcDbCircle
10
-903.90000000000009
20
36.523893421168964
30
0
40
4.9999999999999956
210
0
220
0
230
-1
0
CIRCLE
5
223
100
AcDbEntity
8
INTERIOR_PROFILES
100
AcDbCircle
10
-1454.6619467105859
20
109.52389342116885
30
0
40
1.6999999999998749
210
0
220
0
230
-1
0
CIRCLE
5
224
100
AcDbEntity
8
INTERIOR_PROFILES
100
AcDbCircle
10
-743.90000000000009
20
36.523893421168964
30
0
40
4.9999999999999956
210
0
220
0
230
-1
0
CIRCLE
5
225
100
AcDbEntity
8
INTERIOR_PROFILES
100
AcDbCircle
10
-1454.6619467105859
20
28.523893421168967
30
0
40
1.6999999999998749
210
0
220
0
230
-1
0
CIRCLE
5
226
100
AcDbEntity
8
INTERIOR_PROFILES
100
AcDbCircle
10
6.8619467105855669
20
109.52389342116885
30
0
40
1.7000000000000004
210
0
220
0
230
-1
0
CIRCLE
5
227
100
AcDbEntity
8
INTERIOR_PROFILES
100
AcDbCircle
10
-923.90000000000009
20
76.523893421168964
30
0
40
5
210
0
220
0
230
-1
0
CIRCLE
5
228
100
AcDbEntity
8
INTERIOR_PROFILES
100
AcDbCircle
10
-1023.9000000000001
20
36.523893421168964
30
0
40
4.9999999999999956
210
0
220
0
230
-1
0
CIRCLE
5
229
100
AcDbEntity
8
INTERIOR_PROFILES
100
AcDbCircle
10
-1023.9000000000001
20
56.523893421168964
30
0
40
5
210
0
220
0
230
-1
0
CIRCLE
5
230
100
AcDbEntity
8
INTERIOR_PROFILES
100
AcDbCircle
10
-1103.9000000000001
20
76.523893421168964
30
0
40
5
210
0
220
0
230
-1
0
CIRCLE
5
231
100
AcDbEntity
8
INTERIOR_PROFILES
100
AcDbCircle
10
-1163.9000000000001
20
76.523893421168964
30
0
40
5
210
0
220
0
230
-1
0
CIRCLE
5
232
100
AcDbEntity
8
INTERIOR_PROFILES
100
AcDbCircle
10
-1403.9000000000001
20
96.523893421168964
30
0
40
5
210
0
220
0
230
-1
0
CIRCLE
5
233
100
AcDbEntity
8
INTERIOR_PROFILES
100
AcDbCircle
10
-1143.9000000000001
20
96.523893421168964
30
0
40
5
210
0
220
0
230
-1
0
CIRCLE
5
234
100
AcDbEntity
8
INTERIOR_PROFILES
100
AcDbCircle
10
-943.90000000000009
20
96.523893421168964
30
0
40
5
210
0
220
0
230
-1
0
CIRCLE
5
235
100
AcDbEntity
8
INTERIOR_PROFILES
100
AcDbCircle
10
-1423.9000000000001
20
96.523893421168964
30
0
40
5
210
0
220
0
230
-1
0
CIRCLE
5
236
100
AcDbEntity
8
INTERIOR_PROFILES
100
AcDbCircle
10
-1263.9000000000001
20
96.523893421168964
30
0
40
5
210
0
220
0
230
-1
0
CIRCLE
5
237
100
AcDbEntity
8
INTERIOR_PROFILES
100
AcDbCircle
10
-983.90000000000009
20
36.523893421168964
30
0
40
4.9999999999999956
210
0
220
0
230
-1
0
CIRCLE
5
238
100
AcDbEntity
8
INTERIOR_PROFILES
100
AcDbCircle
10
-963.90000000000009
20
36.523893421168964
30
0
40
4.9999999999999956
210
0
220
0
230
-1
0
CIRCLE
5
239
100
AcDbEntity
8
INTERIOR_PROFILES
100
AcDbCircle
10
-1023.9000000000001
20
76.523893421168964
30
0
40
5
210
0
220
0
230
-1
0
CIRCLE
5
240
100
AcDbEntity
8
INTERIOR_PROFILES
100
AcDbCircle
10
-903.90000000000009
20
96.523893421168964
30
0
40
5
210
0
220
0
230
-1
0
CIRCLE
5
241
100
AcDbEntity
8
INTERIOR_PROFILES
100
AcDbCircle
10
-1003.9000000000001
20
96.523893421168964
30
0
40
5
210
0
220
0
230
-1
0
CIRCLE
5
242
100
AcDbEntity
8
INTERIOR_PROFILES
100
AcDbCircle
10
-743.90000000000009
20
56.523893421168964
30
0
40
5
210
0
220
0
230
-1
0
CIRCLE
5
243
100
AcDbEntity
8
INTERIOR_PROFILES
100
AcDbCircle
10
-1003.9000000000001
20
36.523893421168964
30
0
40
4.9999999999999956
210
0
220
0
230
-1
0
CIRCLE
5
244
100
AcDbEntity
8
INTERIOR_PROFILES
100
AcDbCircle
10
-983.90000000000009
20
76.523893421168964
30
0
40
5
210
0
220
0
230
-1
0
CIRCLE
5
245
100
AcDbEntity
8
INTERIOR_PROFILES
100
AcDbCircle
10
-983.90000000000009
20
56.523893421168964
30
0
40
5
210
0
220
0
230
-1
0
CIRCLE
5
246
100
AcDbEntity
8
INTERIOR_PROFILES
100
AcDbCircle
10
-923.90000000000009
20
96.523893421168964
30
0
40
5
210
0
220
0
230
-1
0
CIRCLE
5
247
100
AcDbEntity
8
INTERIOR_PROFILES
100
AcDbCircle
10
-943.90000000000009
20
56.523893421168964
30
0
40
5
210
0
220
0
230
-1
0
CIRCLE
5
248
100
AcDbEntity
8
INTERIOR_PROFILES
100
AcDbCircle
10
-883.90000000000009
20
76.523893421168964
30
0
40
5
210
0
220
0
230
-1
0
LINE
5
249
100
AcDbEntity
8
BEND
100
AcDbLine
10
1447.3500000000004
20
115.65486677646142
30
-3.0836444508963723e-13
11
0.44999999999987494
21
115.65486677646142
31
-3.219646771412954e-13
0
LINE
5
250
100
AcDbEntity
8
BEND
100
AcDbLine
10
-0.23097335529232071
20
115.52389342116898
30
-2.886579864025405e-13
11
-0.23097335529228463
21
22.523893421168868
31
-1.8790524691780785e-13
0
LINE
5
251
100
AcDbEntity
8
BEND
100
AcDbLine
10
-5.6843418860808015e-13
20
9.1309733552921646
30
-1.5511129525742491e-13
11
1447.8000000000002
21
9.1309733552921646
31
-1.5836582462916386e-13
0
LINE
5
252
100
AcDbEntity
8
BEND
100
AcDbLine
10
0.45000000000001705
20
22.392920065876542
30
-2.9781732635569824e-13
11
1447.3500000000008
21
22.392920065876542
31
-3.1141755840735641e-13
0
LINE
5
253
100
AcDbEntity
8
BEND
100
AcDbLine
10
1447.8000000000009
20
128.91681348704583
30
-3.6095831348423294e-13
11
0
21
128.91681348704583
31
-3.7141369156311247e-13
0
LINE
5
254
100
AcDbEntity
8
BEND
100
AcDbLine
10
1448.0309733552926
20
22.523893421168847
30
-1.8790524691780774e-13
11
1448.0309733552926
21
115.52389342116896
31
-2.7505775435088253e-13
0
LINE
5
255
100
AcDbEntity
8
BEND_EXTENT
100
AcDbLine
10
1449.161946710585
20
116.52389342116894
30
-4.5297099404706387e-13
11
1449.1619467105847
21
21.52389342116896
31
-4.5297099404706387e-13
0
LWPOLYLINE
5
256
100
AcDbEntity
8
BEND_EXTENT
100
AcDbPolyline
90
4
70
1
43
0.0
10
1446.9000000000003
20
23.52389342116895
10
1446.9000000000003
20
114.52389342116896
10
0.90000000000003411
20
114.52389342116895
10
0.90000000000003411
20
23.523893421168935
0
LINE
5
257
100
AcDbEntity
8
BEND_EXTENT
100
AcDbLine
10
0
20
116.7858401317537
30
-3.1974423109204508e-13
11
1447.8000000000009
21
116.78584013175364
31
-3.1086244689504383e-13
0
LINE
5
258
100
AcDbEntity
8
BEND_EXTENT
100
AcDbLine
10
0
20
130.04778684233796
30
-3.7525538232330291e-13
11
1447.8000000000009
21
130.04778684233796
31
-3.8413716652030416e-13
0
LINE
5
259
100
AcDbEntity
8
BEND_EXTENT
100
AcDbLine
10
1447.8000000000002
20
127.78584013175363
30
-3.6415315207705135e-13
11
0
21
127.78584013175363
31
-3.6415315207705135e-13
0
LINE
5
260
100
AcDbEntity
8
BEND_EXTENT
100
AcDbLine
10
1447.8000000000002
20
7.9999999999999938
30
-1.4210854715202004e-13
11
-5.6843418860808015e-13
21
7.9999999999999938
31
-1.5099033134902129e-13
0
LINE
5
261
100
AcDbEntity
8
BEND_EXTENT
100
AcDbLine
10
0
20
10.261946710584303
30
-1.865174681370263e-13
11
1447.8000000000002
21
10.261946710584303
31
-1.865174681370263e-13
0
LINE
5
262
100
AcDbEntity
8
BEND_EXTENT
100
AcDbLine
10
1447.8000000000002
20
21.261946710584219
30
-3.1974423109204508e-13
11
-5.6843418860808015e-13
21
21.261946710584301
31
-3.1974423109204508e-13
0
LINE
5
263
100
AcDbEntity
8
BEND_EXTENT
100
AcDbLine
10
-1.3619467105845453
20
21.523893421168911
30
-4.5297099404706387e-13
11
-1.3619467105845979
21
116.52389342116894
31
-4.5297099404706387e-13
0
ENDSEC
0
SECTION
2
OBJECTS
0
DICTIONARY
5
C
100
AcDbDictionary
3
ACAD_GROUP
350
D
3
ACAD_MLINESTYLE
350
17
0
DICTIONARY
5
D
100
AcDbDictionary
0
DICTIONARY
5
1A
330
C
100
AcDbDictionary
0
DICTIONARY
5
17
100
AcDbDictionary
0
ENDSEC
0
EOF
