0
SECTION
2
HEADER
9
$INSUNITS
70
4
0
ENDSEC
0
SECTION
2
ENTITIES
0
LWPOLYLINE
8
SHEET_BORDER
90
5
70
1
10
0.000
20
0.000
10
2236.000
20
0.000
10
2236.000
20
468.000
10
0.000
20
468.000
10
0.000
20
0.000
0
LWPOLYLINE
8
OUTER_PROFILES
90
24
70
1
10
10.262
20
43.262
10
10.262
20
9.262
10
10.262
20
7.000
10
10.262
20
0.000
10
1206.262
20
0.000
10
1206.262
20
7.000
10
1206.262
20
9.262
10
1206.262
20
43.262
10
1206.262
20
45.524
10
1216.524
20
45.524
10
1216.524
20
66.524
10
1206.262
20
66.524
10
1206.262
20
68.786
10
1206.262
20
102.786
10
1206.262
20
105.048
10
1206.262
20
112.048
10
10.262
20
112.048
10
10.262
20
105.048
10
10.262
20
68.786
10
10.262
20
66.524
10
0.000
20
66.524
10
0.000
20
45.524
10
10.262
20
45.524
10
10.262
20
43.262
0
LWPOLYLINE
8
INTERIOR_PROFILES
90
5
70
1
10
1123.262
20
45.524
10
1196.262
20
45.524
10
1196.262
20
43.262
10
1123.262
20
43.262
10
1123.262
20
45.524
0
LWPOLYLINE
8
INTERIOR_PROFILES
90
33
70
1
10
15.562
20
14.262
10
15.595
20
14.594
10
15.691
20
14.913
10
15.848
20
15.206
10
16.060
20
15.464
10
16.317
20
15.675
10
16.611
20
15.833
10
16.930
20
15.929
10
17.262
20
15.962
10
17.594
20
15.929
10
17.913
20
15.833
10
18.206
20
15.675
10
18.464
20
15.464
10
18.675
20
15.206
10
18.833
20
14.913
10
18.929
20
14.594
10
18.962
20
14.262
10
18.929
20
13.930
10
18.833
20
13.611
10
18.675
20
13.317
10
18.464
20
13.060
10
18.206
20
12.848
10
17.913
20
12.691
10
17.594
20
12.595
10
17.262
20
12.562
10
16.930
20
12.595
10
16.611
20
12.691
10
16.317
20
12.848
10
16.060
20
13.060
10
15.848
20
13.317
10
15.691
20
13.611
10
15.595
20
13.930
10
15.562
20
14.262
0
LWPOLYLINE
8
INTERIOR_PROFILES
90
5
70
1
10
1123.262
20
68.786
10
1196.262
20
68.786
10
1196.262
20
66.524
10
1123.262
20
66.524
10
1123.262
20
68.786
0
LWPOLYLINE
8
INTERIOR_PROFILES
90
5
70
1
10
93.262
20
45.524
10
93.262
20
43.262
10
20.262
20
43.262
10
20.262
20
45.524
10
93.262
20
45.524
0
LWPOLYLINE
8
INTERIOR_PROFILES
90
33
70
1
10
1197.562
20
39.262
10
1197.595
20
39.594
10
1197.691
20
39.913
10
1197.848
20
40.206
10
1198.060
20
40.464
10
1198.317
20
40.675
10
1198.611
20
40.833
10
1198.930
20
40.929
10
1199.262
20
40.962
10
1199.594
20
40.929
10
1199.913
20
40.833
10
1200.206
20
40.675
10
1200.464
20
40.464
10
1200.675
20
40.206
10
1200.833
20
39.913
10
1200.929
20
39.594
10
1200.962
20
39.262
10
1200.929
20
38.930
10
1200.833
20
38.611
10
1200.675
20
38.317
10
1200.464
20
38.060
10
1200.206
20
37.848
10
1199.913
20
37.691
10
1199.594
20
37.595
10
1199.262
20
37.562
10
1198.930
20
37.595
10
1198.611
20
37.691
10
1198.317
20
37.848
10
1198.060
20
38.060
10
1197.848
20
38.317
10
1197.691
20
38.611
10
1197.595
20
38.930
10
1197.562
20
39.262
0
LWPOLYLINE
8
INTERIOR_PROFILES
90
33
70
1
10
15.562
20
72.786
10
15.595
20
73.117
10
15.691
20
73.436
10
15.848
20
73.730
10
16.060
20
73.988
10
16.317
20
74.199
10
16.611
20
74.356
10
16.930
20
74.453
10
17.262
20
74.486
10
17.594
20
74.453
10
17.913
20
74.356
10
18.206
20
74.199
10
18.464
20
73.988
10
18.675
20
73.730
10
18.833
20
73.436
10
18.929
20
73.117
10
18.962
20
72.786
10
18.929
20
72.454
10
18.833
20
72.135
10
18.675
20
71.841
10
18.464
20
71.584
10
18.206
20
71.372
10
17.913
20
71.215
10
17.594
20
71.119
10
17.262
20
71.086
10
16.930
20
71.119
10
16.611
20
71.215
10
16.317
20
71.372
10
16.060
20
71.584
10
15.848
20
71.841
10
15.691
20
72.135
10
15.595
20
72.454
10
15.562
20
72.786
0
LWPOLYLINE
8
INTERIOR_PROFILES
90
33
70
1
10
15.562
20
39.262
10
15.595
20
39.594
10
15.691
20
39.913
10
15.848
20
40.206
10
16.060
20
40.464
10
16.317
20
40.675
10
16.611
20
40.833
10
16.930
20
40.929
10
17.262
20
40.962
10
17.594
20
40.929
10
17.913
20
40.833
10
18.206
20
40.675
10
18.464
20
40.464
10
18.675
20
40.206
10
18.833
20
39.913
10
18.929
20
39.594
10
18.962
20
39.262
10
18.929
20
38.930
10
18.833
20
38.611
10
18.675
20
38.317
10
18.464
20
38.060
10
18.206
20
37.848
10
17.913
20
37.691
10
17.594
20
37.595
10
17.262
20
37.562
10
16.930
20
37.595
10
16.611
20
37.691
10
16.317
20
37.848
10
16.060
20
38.060
10
15.848
20
38.317
10
15.691
20
38.611
10
15.595
20
38.930
10
15.562
20
39.262
0
LWPOLYLINE
8
INTERIOR_PROFILES
90
5
70
1
10
93.262
20
68.786
10
93.262
20
66.524
10
20.262
20
66.524
10
20.262
20
68.786
10
93.262
20
68.786
0
LWPOLYLINE
8
INTERIOR_PROFILES
90
33
70
1
10
1197.562
20
97.786
10
1197.595
20
98.117
10
1197.691
20
98.436
10
1197.848
20
98.730
10
1198.060
20
98.988
10
1198.317
20
99.199
10
1198.611
20
99.356
10
1198.930
20
99.453
10
1199.262
20
99.486
10
1199.594
20
99.453
10
1199.913
20
99.356
10
1200.206
20
99.199
10
1200.464
20
98.988
10
1200.675
20
98.730
10
1200.833
20
98.436
10
1200.929
20
98.117
10
1200.962
20
97.786
10
1200.929
20
97.454
10
1200.833
20
97.135
10
1200.675
20
96.841
10
1200.464
20
96.584
10
1200.206
20
96.372
10
1199.913
20
96.215
10
1199.594
20
96.119
10
1199.262
20
96.086
10
1198.930
20
96.119
10
1198.611
20
96.215
10
1198.317
20
96.372
10
1198.060
20
96.584
10
1197.848
20
96.841
10
1197.691
20
97.135
10
1197.595
20
97.454
10
1197.562
20
97.786
0
LWPOLYLINE
8
INTERIOR_PROFILES
90
33
70
1
10
1197.562
20
14.262
10
1197.595
20
14.594
10
1197.691
20
14.913
10
1197.848
20
15.206
10
1198.060
20
15.464
10
1198.317
20
15.675
10
1198.611
20
15.833
10
1198.930
20
15.929
10
1199.262
20
15.962
10
1199.594
20
15.929
10
1199.913
20
15.833
10
1200.206
20
15.675
10
1200.464
20
15.464
10
1200.675
20
15.206
10
1200.833
20
14.913
10
1200.929
20
14.594
10
1200.962
20
14.262
10
1200.929
20
13.930
10
1200.833
20
13.611
10
1200.675
20
13.317
10
1200.464
20
13.060
10
1200.206
20
12.848
10
1199.913
20
12.691
10
1199.594
20
12.595
10
1199.262
20
12.562
10
1198.930
20
12.595
10
1198.611
20
12.691
10
1198.317
20
12.848
10
1198.060
20
13.060
10
1197.848
20
13.317
10
1197.691
20
13.611
10
1197.595
20
13.930
10
1197.562
20
14.262
0
LWPOLYLINE
8
INTERIOR_PROFILES
90
33
70
1
10
1197.562
20
72.786
10
1197.595
20
73.117
10
1197.691
20
73.436
10
1197.848
20
73.730
10
1198.060
20
73.988
10
1198.317
20
74.199
10
1198.611
20
74.356
10
1198.930
20
74.453
10
1199.262
20
74.486
10
1199.594
20
74.453
10
1199.913
20
74.356
10
1200.206
20
74.199
10
1200.464
20
73.988
10
1200.675
20
73.730
10
1200.833
20
73.436
10
1200.929
20
73.117
10
1200.962
20
72.786
10
1200.929
20
72.454
10
1200.833
20
72.135
10
1200.675
20
71.841
10
1200.464
20
71.584
10
1200.206
20
71.372
10
1199.913
20
71.215
10
1199.594
20
71.119
10
1199.262
20
71.086
10
1198.930
20
71.119
10
1198.611
20
71.215
10
1198.317
20
71.372
10
1198.060
20
71.584
10
1197.848
20
71.841
10
1197.691
20
72.135
10
1197.595
20
72.454
10
1197.562
20
72.786
0
LWPOLYLINE
8
INTERIOR_PROFILES
90
33
70
1
10
15.562
20
97.786
10
15.595
20
98.117
10
15.691
20
98.436
10
15.848
20
98.730
10
16.060
20
98.988
10
16.317
20
99.199
10
16.611
20
99.356
10
16.930
20
99.453
10
17.262
20
99.486
10
17.594
20
99.453
10
17.913
20
99.356
10
18.206
20
99.199
10
18.464
20
98.988
10
18.675
20
98.730
10
18.833
20
98.436
10
18.929
20
98.117
10
18.962
20
97.786
10
18.929
20
97.454
10
18.833
20
97.135
10
18.675
20
96.841
10
18.464
20
96.584
10
18.206
20
96.372
10
17.913
20
96.215
10
17.594
20
96.119
10
17.262
20
96.086
10
16.930
20
96.119
10
16.611
20
96.215
10
16.317
20
96.372
10
16.060
20
96.584
10
15.848
20
96.841
10
15.691
20
97.135
10
15.595
20
97.454
10
15.562
20
97.786
0
LWPOLYLINE
8
INTERIOR_PROFILES
90
33
70
1
10
1006.562
20
56.024
10
1006.595
20
56.356
10
1006.691
20
56.674
10
1006.848
20
56.968
10
1007.060
20
57.226
10
1007.317
20
57.437
10
1007.611
20
57.594
10
1007.930
20
57.691
10
1008.262
20
57.724
10
1008.594
20
57.691
10
1008.913
20
57.594
10
1009.206
20
57.437
10
1009.464
20
57.226
10
1009.675
20
56.968
10
1009.833
20
56.674
10
1009.929
20
56.356
10
1009.962
20
56.024
10
1009.929
20
55.692
10
1009.833
20
55.373
10
1009.675
20
55.079
10
1009.464
20
54.822
10
1009.206
20
54.610
10
1008.913
20
54.453
10
1008.594
20
54.357
10
1008.262
20
54.324
10
1007.930
20
54.357
10
1007.611
20
54.453
10
1007.317
20
54.610
10
1007.060
20
54.822
10
1006.848
20
55.079
10
1006.691
20
55.373
10
1006.595
20
55.692
10
1006.562
20
56.024
0
LWPOLYLINE
8
INTERIOR_PROFILES
90
33
70
1
10
647.562
20
56.024
10
647.595
20
56.356
10
647.691
20
56.674
10
647.848
20
56.968
10
648.060
20
57.226
10
648.317
20
57.437
10
648.611
20
57.594
10
648.930
20
57.691
10
649.262
20
57.724
10
649.594
20
57.691
10
649.913
20
57.594
10
650.206
20
57.437
10
650.464
20
57.226
10
650.675
20
56.968
10
650.833
20
56.674
10
650.929
20
56.356
10
650.962
20
56.024
10
650.929
20
55.692
10
650.833
20
55.373
10
650.675
20
55.079
10
650.464
20
54.822
10
650.206
20
54.610
10
649.913
20
54.453
10
649.594
20
54.357
10
649.262
20
54.324
10
648.930
20
54.357
10
648.611
20
54.453
10
648.317
20
54.610
10
648.060
20
54.822
10
647.848
20
55.079
10
647.691
20
55.373
10
647.595
20
55.692
10
647.562
20
56.024
0
LWPOLYLINE
8
INTERIOR_PROFILES
90
33
70
1
10
597.562
20
56.024
10
597.595
20
56.356
10
597.691
20
56.674
10
597.848
20
56.968
10
598.060
20
57.226
10
598.317
20
57.437
10
598.611
20
57.594
10
598.930
20
57.691
10
599.262
20
57.724
10
599.594
20
57.691
10
599.913
20
57.594
10
600.206
20
57.437
10
600.464
20
57.226
10
600.675
20
56.968
10
600.833
20
56.674
10
600.929
20
56.356
10
600.962
20
56.024
10
600.929
20
55.692
10
600.833
20
55.373
10
600.675
20
55.079
10
600.464
20
54.822
10
600.206
20
54.610
10
599.913
20
54.453
10
599.594
20
54.357
10
599.262
20
54.324
10
598.930
20
54.357
10
598.611
20
54.453
10
598.317
20
54.610
10
598.060
20
54.822
10
597.848
20
55.079
10
597.691
20
55.373
10
597.595
20
55.692
10
597.562
20
56.024
0
LWPOLYLINE
8
INTERIOR_PROFILES
90
33
70
1
10
606.562
20
56.024
10
606.595
20
56.356
10
606.691
20
56.674
10
606.848
20
56.968
10
607.060
20
57.226
10
607.317
20
57.437
10
607.611
20
57.594
10
607.930
20
57.691
10
608.262
20
57.724
10
608.594
20
57.691
10
608.913
20
57.594
10
609.206
20
57.437
10
609.464
20
57.226
10
609.675
20
56.968
10
609.833
20
56.674
10
609.929
20
56.356
10
609.962
20
56.024
10
609.929
20
55.692
10
609.833
20
55.373
10
609.675
20
55.079
10
609.464
20
54.822
10
609.206
20
54.610
10
608.913
20
54.453
10
608.594
20
54.357
10
608.262
20
54.324
10
607.930
20
54.357
10
607.611
20
54.453
10
607.317
20
54.610
10
607.060
20
54.822
10
606.848
20
55.079
10
606.691
20
55.373
10
606.595
20
55.692
10
606.562
20
56.024
0
LWPOLYLINE
8
INTERIOR_PROFILES
90
33
70
1
10
2.300
20
56.024
10
2.333
20
56.356
10
2.429
20
56.674
10
2.587
20
56.968
10
2.798
20
57.226
10
3.056
20
57.437
10
3.349
20
57.594
10
3.668
20
57.691
10
4.000
20
57.724
10
4.332
20
57.691
10
4.651
20
57.594
10
4.944
20
57.437
10
5.202
20
57.226
10
5.413
20
56.968
10
5.571
20
56.674
10
5.667
20
56.356
10
5.700
20
56.024
10
5.667
20
55.692
10
5.571
20
55.373
10
5.413
20
55.079
10
5.202
20
54.822
10
4.944
20
54.610
10
4.651
20
54.453
10
4.332
20
54.357
10
4.000
20
54.324
10
3.668
20
54.357
10
3.349
20
54.453
10
3.056
20
54.610
10
2.798
20
54.822
10
2.587
20
55.079
10
2.429
20
55.373
10
2.333
20
55.692
10
2.300
20
56.024
0
LWPOLYLINE
8
INTERIOR_PROFILES
90
33
70
1
10
156.562
20
56.024
10
156.595
20
56.356
10
156.691
20
56.674
10
156.848
20
56.968
10
157.060
20
57.226
10
157.317
20
57.437
10
157.611
20
57.594
10
157.930
20
57.691
10
158.262
20
57.724
10
158.594
20
57.691
10
158.913
20
57.594
10
159.206
20
57.437
10
159.464
20
57.226
10
159.675
20
56.968
10
159.833
20
56.674
10
159.929
20
56.356
10
159.962
20
56.024
10
159.929
20
55.692
10
159.833
20
55.373
10
159.675
20
55.079
10
159.464
20
54.822
10
159.206
20
54.610
10
158.913
20
54.453
10
158.594
20
54.357
10
158.262
20
54.324
10
157.930
20
54.357
10
157.611
20
54.453
10
157.317
20
54.610
10
157.060
20
54.822
10
156.848
20
55.079
10
156.691
20
55.373
10
156.595
20
55.692
10
156.562
20
56.024
0
LWPOLYLINE
8
INTERIOR_PROFILES
90
33
70
1
10
947.562
20
56.024
10
947.595
20
56.356
10
947.691
20
56.674
10
947.848
20
56.968
10
948.060
20
57.226
10
948.317
20
57.437
10
948.611
20
57.594
10
948.930
20
57.691
10
949.262
20
57.724
10
949.594
20
57.691
10
949.913
20
57.594
10
950.206
20
57.437
10
950.464
20
57.226
10
950.675
20
56.968
10
950.833
20
56.674
10
950.929
20
56.356
10
950.962
20
56.024
10
950.929
20
55.692
10
950.833
20
55.373
10
950.675
20
55.079
10
950.464
20
54.822
10
950.206
20
54.610
10
949.913
20
54.453
10
949.594
20
54.357
10
949.262
20
54.324
10
948.930
20
54.357
10
948.611
20
54.453
10
948.317
20
54.610
10
948.060
20
54.822
10
947.848
20
55.079
10
947.691
20
55.373
10
947.595
20
55.692
10
947.562
20
56.024
0
LWPOLYLINE
8
INTERIOR_PROFILES
90
33
70
1
10
406.562
20
56.024
10
406.595
20
56.356
10
406.691
20
56.674
10
406.848
20
56.968
10
407.060
20
57.226
10
407.317
20
57.437
10
407.611
20
57.594
10
407.930
20
57.691
10
408.262
20
57.724
10
408.594
20
57.691
10
408.913
20
57.594
10
409.206
20
57.437
10
409.464
20
57.226
10
409.675
20
56.968
10
409.833
20
56.674
10
409.929
20
56.356
10
409.962
20
56.024
10
409.929
20
55.692
10
409.833
20
55.373
10
409.675
20
55.079
10
409.464
20
54.822
10
409.206
20
54.610
10
408.913
20
54.453
10
408.594
20
54.357
10
408.262
20
54.324
10
407.930
20
54.357
10
407.611
20
54.453
10
407.317
20
54.610
10
407.060
20
54.822
10
406.848
20
55.079
10
406.691
20
55.373
10
406.595
20
55.692
10
406.562
20
56.024
0
LWPOLYLINE
8
INTERIOR_PROFILES
90
33
70
1
10
656.562
20
56.024
10
656.595
20
56.356
10
656.691
20
56.674
10
656.848
20
56.968
10
657.060
20
57.226
10
657.317
20
57.437
10
657.611
20
57.594
10
657.930
20
57.691
10
658.262
20
57.724
10
658.594
20
57.691
10
658.913
20
57.594
10
659.206
20
57.437
10
659.464
20
57.226
10
659.675
20
56.968
10
659.833
20
56.674
10
659.929
20
56.356
10
659.962
20
56.024
10
659.929
20
55.692
10
659.833
20
55.373
10
659.675
20
55.079
10
659.464
20
54.822
10
659.206
20
54.610
10
658.913
20
54.453
10
658.594
20
54.357
10
658.262
20
54.324
10
657.930
20
54.357
10
657.611
20
54.453
10
657.317
20
54.610
10
657.060
20
54.822
10
656.848
20
55.079
10
656.691
20
55.373
10
656.595
20
55.692
10
656.562
20
56.024
0
LWPOLYLINE
8
INTERIOR_PROFILES
90
33
70
1
10
556.562
20
56.024
10
556.595
20
56.356
10
556.691
20
56.674
10
556.848
20
56.968
10
557.060
20
57.226
10
557.317
20
57.437
10
557.611
20
57.594
10
557.930
20
57.691
10
558.262
20
57.724
10
558.594
20
57.691
10
558.913
20
57.594
10
559.206
20
57.437
10
559.464
20
57.226
10
559.675
20
56.968
10
559.833
20
56.674
10
559.929
20
56.356
10
559.962
20
56.024
10
559.929
20
55.692
10
559.833
20
55.373
10
559.675
20
55.079
10
559.464
20
54.822
10
559.206
20
54.610
10
558.913
20
54.453
10
558.594
20
54.357
10
558.262
20
54.324
10
557.930
20
54.357
10
557.611
20
54.453
10
557.317
20
54.610
10
557.060
20
54.822
10
556.848
20
55.079
10
556.691
20
55.373
10
556.595
20
55.692
10
556.562
20
56.024
0
LWPOLYLINE
8
INTERIOR_PROFILES
90
33
70
1
10
715.562
20
56.024
10
715.595
20
56.356
10
715.691
20
56.674
10
715.848
20
56.968
10
716.060
20
57.226
10
716.317
20
57.437
10
716.611
20
57.594
10
716.930
20
57.691
10
717.262
20
57.724
10
717.594
20
57.691
10
717.913
20
57.594
10
718.206
20
57.437
10
718.464
20
57.226
10
718.675
20
56.968
10
718.833
20
56.674
10
718.929
20
56.356
10
718.962
20
56.024
10
718.929
20
55.692
10
718.833
20
55.373
10
718.675
20
55.079
10
718.464
20
54.822
10
718.206
20
54.610
10
717.913
20
54.453
10
717.594
20
54.357
10
717.262
20
54.324
10
716.930
20
54.357
10
716.611
20
54.453
10
716.317
20
54.610
10
716.060
20
54.822
10
715.848
20
55.079
10
715.691
20
55.373
10
715.595
20
55.692
10
715.562
20
56.024
0
LWPOLYLINE
8
INTERIOR_PROFILES
90
33
70
1
10
747.562
20
56.024
10
747.595
20
56.356
10
747.691
20
56.674
10
747.848
20
56.968
10
748.060
20
57.226
10
748.317
20
57.437
10
748.611
20
57.594
10
748.930
20
57.691
10
749.262
20
57.724
10
749.594
20
57.691
10
749.913
20
57.594
10
750.206
20
57.437
10
750.464
20
57.226
10
750.675
20
56.968
10
750.833
20
56.674
10
750.929
20
56.356
10
750.962
20
56.024
10
750.929
20
55.692
10
750.833
20
55.373
10
750.675
20
55.079
10
750.464
20
54.822
10
750.206
20
54.610
10
749.913
20
54.453
10
749.594
20
54.357
10
749.262
20
54.324
10
748.930
20
54.357
10
748.611
20
54.453
10
748.317
20
54.610
10
748.060
20
54.822
10
747.848
20
55.079
10
747.691
20
55.373
10
747.595
20
55.692
10
747.562
20
56.024
0
LWPOLYLINE
8
INTERIOR_PROFILES
90
33
70
1
10
997.562
20
56.024
10
997.595
20
56.356
10
997.691
20
56.674
10
997.848
20
56.968
10
998.060
20
57.226
10
998.317
20
57.437
10
998.611
20
57.594
10
998.930
20
57.691
10
999.262
20
57.724
10
999.594
20
57.691
10
999.913
20
57.594
10
1000.206
20
57.437
10
1000.464
20
57.226
10
1000.675
20
56.968
10
1000.833
20
56.674
10
1000.929
20
56.356
10
1000.962
20
56.024
10
1000.929
20
55.692
10
1000.833
20
55.373
10
1000.675
20
55.079
10
1000.464
20
54.822
10
1000.206
20
54.610
10
999.913
20
54.453
10
999.594
20
54.357
10
999.262
20
54.324
10
998.930
20
54.357
10
998.611
20
54.453
10
998.317
20
54.610
10
998.060
20
54.822
10
997.848
20
55.079
10
997.691
20
55.373
10
997.595
20
55.692
10
997.562
20
56.024
0
LWPOLYLINE
8
INTERIOR_PROFILES
90
33
70
1
10
965.562
20
56.024
10
965.595
20
56.356
10
965.691
20
56.674
10
965.848
20
56.968
10
966.060
20
57.226
10
966.317
20
57.437
10
966.611
20
57.594
10
966.930
20
57.691
10
967.262
20
57.724
10
967.594
20
57.691
10
967.913
20
57.594
10
968.206
20
57.437
10
968.464
20
57.226
10
968.675
20
56.968
10
968.833
20
56.674
10
968.929
20
56.356
10
968.962
20
56.024
10
968.929
20
55.692
10
968.833
20
55.373
10
968.675
20
55.079
10
968.464
20
54.822
10
968.206
20
54.610
10
967.913
20
54.453
10
967.594
20
54.357
10
967.262
20
54.324
10
966.930
20
54.357
10
966.611
20
54.453
10
966.317
20
54.610
10
966.060
20
54.822
10
965.848
20
55.079
10
965.691
20
55.373
10
965.595
20
55.692
10
965.562
20
56.024
0
LWPOLYLINE
8
INTERIOR_PROFILES
90
33
70
1
10
1147.562
20
56.024
10
1147.595
20
56.356
10
1147.691
20
56.674
10
1147.848
20
56.968
10
1148.060
20
57.226
10
1148.317
20
57.437
10
1148.611
20
57.594
10
1148.930
20
57.691
10
1149.262
20
57.724
10
1149.594
20
57.691
10
1149.913
20
57.594
10
1150.206
20
57.437
10
1150.464
20
57.226
10
1150.675
20
56.968
10
1150.833
20
56.674
10
1150.929
20
56.356
10
1150.962
20
56.024
10
1150.929
20
55.692
10
1150.833
20
55.373
10
1150.675
20
55.079
10
1150.464
20
54.822
10
1150.206
20
54.610
10
1149.913
20
54.453
10
1149.594
20
54.357
10
1149.262
20
54.324
10
1148.930
20
54.357
10
1148.611
20
54.453
10
1148.317
20
54.610
10
1148.060
20
54.822
10
1147.848
20
55.079
10
1147.691
20
55.373
10
1147.595
20
55.692
10
1147.562
20
56.024
0
LWPOLYLINE
8
INTERIOR_PROFILES
90
33
70
1
10
756.562
20
56.024
10
756.595
20
56.356
10
756.691
20
56.674
10
756.848
20
56.968
10
757.060
20
57.226
10
757.317
20
57.437
10
757.611
20
57.594
10
757.930
20
57.691
10
758.262
20
57.724
10
758.594
20
57.691
10
758.913
20
57.594
10
759.206
20
57.437
10
759.464
20
57.226
10
759.675
20
56.968
10
759.833
20
56.674
10
759.929
20
56.356
10
759.962
20
56.024
10
759.929
20
55.692
10
759.833
20
55.373
10
759.675
20
55.079
10
759.464
20
54.822
10
759.206
20
54.610
10
758.913
20
54.453
10
758.594
20
54.357
10
758.262
20
54.324
10
757.930
20
54.357
10
757.611
20
54.453
10
757.317
20
54.610
10
757.060
20
54.822
10
756.848
20
55.079
10
756.691
20
55.373
10
756.595
20
55.692
10
756.562
20
56.024
0
LWPOLYLINE
8
INTERIOR_PROFILES
90
33
70
1
10
806.562
20
56.024
10
806.595
20
56.356
10
806.691
20
56.674
10
806.848
20
56.968
10
807.060
20
57.226
10
807.317
20
57.437
10
807.611
20
57.594
10
807.930
20
57.691
10
808.262
20
57.724
10
808.594
20
57.691
10
808.913
20
57.594
10
809.206
20
57.437
10
809.464
20
57.226
10
809.675
20
56.968
10
809.833
20
56.674
10
809.929
20
56.356
10
809.962
20
56.024
10
809.929
20
55.692
10
809.833
20
55.373
10
809.675
20
55.079
10
809.464
20
54.822
10
809.206
20
54.610
10
808.913
20
54.453
10
808.594
20
54.357
10
808.262
20
54.324
10
807.930
20
54.357
10
807.611
20
54.453
10
807.317
20
54.610
10
807.060
20
54.822
10
806.848
20
55.079
10
806.691
20
55.373
10
806.595
20
55.692
10
806.562
20
56.024
0
LWPOLYLINE
8
INTERIOR_PROFILES
90
33
70
1
10
765.562
20
56.024
10
765.595
20
56.356
10
765.691
20
56.674
10
765.848
20
56.968
10
766.060
20
57.226
10
766.317
20
57.437
10
766.611
20
57.594
10
766.930
20
57.691
10
767.262
20
57.724
10
767.594
20
57.691
10
767.913
20
57.594
10
768.206
20
57.437
10
768.464
20
57.226
10
768.675
20
56.968
10
768.833
20
56.674
10
768.929
20
56.356
10
768.962
20
56.024
10
768.929
20
55.692
10
768.833
20
55.373
10
768.675
20
55.079
10
768.464
20
54.822
10
768.206
20
54.610
10
767.913
20
54.453
10
767.594
20
54.357
10
767.262
20
54.324
10
766.930
20
54.357
10
766.611
20
54.453
10
766.317
20
54.610
10
766.060
20
54.822
10
765.848
20
55.079
10
765.691
20
55.373
10
765.595
20
55.692
10
765.562
20
56.024
0
LWPOLYLINE
8
INTERIOR_PROFILES
90
33
70
1
10
665.562
20
56.024
10
665.595
20
56.356
10
665.691
20
56.674
10
665.848
20
56.968
10
666.060
20
57.226
10
666.317
20
57.437
10
666.611
20
57.594
10
666.930
20
57.691
10
667.262
20
57.724
10
667.594
20
57.691
10
667.913
20
57.594
10
668.206
20
57.437
10
668.464
20
57.226
10
668.675
20
56.968
10
668.833
20
56.674
10
668.929
20
56.356
10
668.962
20
56.024
10
668.929
20
55.692
10
668.833
20
55.373
10
668.675
20
55.079
10
668.464
20
54.822
10
668.206
20
54.610
10
667.913
20
54.453
10
667.594
20
54.357
10
667.262
20
54.324
10
666.930
20
54.357
10
666.611
20
54.453
10
666.317
20
54.610
10
666.060
20
54.822
10
665.848
20
55.079
10
665.691
20
55.373
10
665.595
20
55.692
10
665.562
20
56.024
0
LWPOLYLINE
8
INTERIOR_PROFILES
90
33
70
1
10
697.562
20
56.024
10
697.595
20
56.356
10
697.691
20
56.674
10
697.848
20
56.968
10
698.060
20
57.226
10
698.317
20
57.437
10
698.611
20
57.594
10
698.930
20
57.691
10
699.262
20
57.724
10
699.594
20
57.691
10
699.913
20
57.594
10
700.206
20
57.437
10
700.464
20
57.226
10
700.675
20
56.968
10
700.833
20
56.674
10
700.929
20
56.356
10
700.962
20
56.024
10
700.929
20
55.692
10
700.833
20
55.373
10
700.675
20
55.079
10
700.464
20
54.822
10
700.206
20
54.610
10
699.913
20
54.453
10
699.594
20
54.357
10
699.262
20
54.324
10
698.930
20
54.357
10
698.611
20
54.453
10
698.317
20
54.610
10
698.060
20
54.822
10
697.848
20
55.079
10
697.691
20
55.373
10
697.595
20
55.692
10
697.562
20
56.024
0
LWPOLYLINE
8
INTERIOR_PROFILES
90
33
70
1
10
897.562
20
56.024
10
897.595
20
56.356
10
897.691
20
56.674
10
897.848
20
56.968
10
898.060
20
57.226
10
898.317
20
57.437
10
898.611
20
57.594
10
898.930
20
57.691
10
899.262
20
57.724
10
899.594
20
57.691
10
899.913
20
57.594
10
900.206
20
57.437
10
900.464
20
57.226
10
900.675
20
56.968
10
900.833
20
56.674
10
900.929
20
56.356
10
900.962
20
56.024
10
900.929
20
55.692
10
900.833
20
55.373
10
900.675
20
55.079
10
900.464
20
54.822
10
900.206
20
54.610
10
899.913
20
54.453
10
899.594
20
54.357
10
899.262
20
54.324
10
898.930
20
54.357
10
898.611
20
54.453
10
898.317
20
54.610
10
898.060
20
54.822
10
897.848
20
55.079
10
897.691
20
55.373
10
897.595
20
55.692
10
897.562
20
56.024
0
LWPOLYLINE
8
INTERIOR_PROFILES
90
33
70
1
10
1210.824
20
56.024
10
1210.857
20
56.356
10
1210.953
20
56.674
10
1211.110
20
56.968
10
1211.322
20
57.226
10
1211.579
20
57.437
10
1211.873
20
57.594
10
1212.192
20
57.691
10
1212.524
20
57.724
10
1212.856
20
57.691
10
1213.174
20
57.594
10
1213.468
20
57.437
10
1213.726
20
57.226
10
1213.937
20
56.968
10
1214.094
20
56.674
10
1214.191
20
56.356
10
1214.224
20
56.024
10
1214.191
20
55.692
10
1214.094
20
55.373
10
1213.937
20
55.079
10
1213.726
20
54.822
10
1213.468
20
54.610
10
1213.174
20
54.453
10
1212.856
20
54.357
10
1212.524
20
54.324
10
1212.192
20
54.357
10
1211.873
20
54.453
10
1211.579
20
54.610
10
1211.322
20
54.822
10
1211.110
20
55.079
10
1210.953
20
55.373
10
1210.857
20
55.692
10
1210.824
20
56.024
0
LWPOLYLINE
8
INTERIOR_PROFILES
90
33
70
1
10
206.562
20
56.024
10
206.595
20
56.356
10
206.691
20
56.674
10
206.848
20
56.968
10
207.060
20
57.226
10
207.317
20
57.437
10
207.611
20
57.594
10
207.930
20
57.691
10
208.262
20
57.724
10
208.594
20
57.691
10
208.913
20
57.594
10
209.206
20
57.437
10
209.464
20
57.226
10
209.675
20
56.968
10
209.833
20
56.674
10
209.929
20
56.356
10
209.962
20
56.024
10
209.929
20
55.692
10
209.833
20
55.373
10
209.675
20
55.079
10
209.464
20
54.822
10
209.206
20
54.610
10
208.913
20
54.453
10
208.594
20
54.357
10
208.262
20
54.324
10
207.930
20
54.357
10
207.611
20
54.453
10
207.317
20
54.610
10
207.060
20
54.822
10
206.848
20
55.079
10
206.691
20
55.373
10
206.595
20
55.692
10
206.562
20
56.024
0
LWPOLYLINE
8
INTERIOR_PROFILES
90
33
70
1
10
906.562
20
56.024
10
906.595
20
56.356
10
906.691
20
56.674
10
906.848
20
56.968
10
907.060
20
57.226
10
907.317
20
57.437
10
907.611
20
57.594
10
907.930
20
57.691
10
908.262
20
57.724
10
908.594
20
57.691
10
908.913
20
57.594
10
909.206
20
57.437
10
909.464
20
57.226
10
909.675
20
56.968
10
909.833
20
56.674
10
909.929
20
56.356
10
909.962
20
56.024
10
909.929
20
55.692
10
909.833
20
55.373
10
909.675
20
55.079
10
909.464
20
54.822
10
909.206
20
54.610
10
908.913
20
54.453
10
908.594
20
54.357
10
908.262
20
54.324
10
907.930
20
54.357
10
907.611
20
54.453
10
907.317
20
54.610
10
907.060
20
54.822
10
906.848
20
55.079
10
906.691
20
55.373
10
906.595
20
55.692
10
906.562
20
56.024
0
LWPOLYLINE
8
INTERIOR_PROFILES
90
33
70
1
10
47.562
20
56.024
10
47.595
20
56.356
10
47.691
20
56.674
10
47.848
20
56.968
10
48.060
20
57.226
10
48.317
20
57.437
10
48.611
20
57.594
10
48.930
20
57.691
10
49.262
20
57.724
10
49.594
20
57.691
10
49.913
20
57.594
10
50.206
20
57.437
10
50.464
20
57.226
10
50.675
20
56.968
10
50.833
20
56.674
10
50.929
20
56.356
10
50.962
20
56.024
10
50.929
20
55.692
10
50.833
20
55.373
10
50.675
20
55.079
10
50.464
20
54.822
10
50.206
20
54.610
10
49.913
20
54.453
10
49.594
20
54.357
10
49.262
20
54.324
10
48.930
20
54.357
10
48.611
20
54.453
10
48.317
20
54.610
10
48.060
20
54.822
10
47.848
20
55.079
10
47.691
20
55.373
10
47.595
20
55.692
10
47.562
20
56.024
0
LWPOLYLINE
8
INTERIOR_PROFILES
90
33
70
1
10
615.562
20
56.024
10
615.595
20
56.356
10
615.691
20
56.674
10
615.848
20
56.968
10
616.060
20
57.226
10
616.317
20
57.437
10
616.611
20
57.594
10
616.930
20
57.691
10
617.262
20
57.724
10
617.594
20
57.691
10
617.913
20
57.594
10
618.206
20
57.437
10
618.464
20
57.226
10
618.675
20
56.968
10
618.833
20
56.674
10
618.929
20
56.356
10
618.962
20
56.024
10
618.929
20
55.692
10
618.833
20
55.373
10
618.675
20
55.079
10
618.464
20
54.822
10
618.206
20
54.610
10
617.913
20
54.453
10
617.594
20
54.357
10
617.262
20
54.324
10
616.930
20
54.357
10
616.611
20
54.453
10
616.317
20
54.610
10
616.060
20
54.822
10
615.848
20
55.079
10
615.691
20
55.373
10
615.595
20
55.692
10
615.562
20
56.024
0
LWPOLYLINE
8
INTERIOR_PROFILES
90
33
70
1
10
956.562
20
56.024
10
956.595
20
56.356
10
956.691
20
56.674
10
956.848
20
56.968
10
957.060
20
57.226
10
957.317
20
57.437
10
957.611
20
57.594
10
957.930
20
57.691
10
958.262
20
57.724
10
958.594
20
57.691
10
958.913
20
57.594
10
959.206
20
57.437
10
959.464
20
57.226
10
959.675
20
56.968
10
959.833
20
56.674
10
959.929
20
56.356
10
959.962
20
56.024
10
959.929
20
55.692
10
959.833
20
55.373
10
959.675
20
55.079
10
959.464
20
54.822
10
959.206
20
54.610
10
958.913
20
54.453
10
958.594
20
54.357
10
958.262
20
54.324
10
957.930
20
54.357
10
957.611
20
54.453
10
957.317
20
54.610
10
957.060
20
54.822
10
956.848
20
55.079
10
956.691
20
55.373
10
956.595
20
55.692
10
956.562
20
56.024
0
LWPOLYLINE
8
INTERIOR_PROFILES
90
33
70
1
10
106.562
20
56.024
10
106.595
20
56.356
10
106.691
20
56.674
10
106.848
20
56.968
10
107.060
20
57.226
10
107.317
20
57.437
10
107.611
20
57.594
10
107.930
20
57.691
10
108.262
20
57.724
10
108.594
20
57.691
10
108.913
20
57.594
10
109.206
20
57.437
10
109.464
20
57.226
10
109.675
20
56.968
10
109.833
20
56.674
10
109.929
20
56.356
10
109.962
20
56.024
10
109.929
20
55.692
10
109.833
20
55.373
10
109.675
20
55.079
10
109.464
20
54.822
10
109.206
20
54.610
10
108.913
20
54.453
10
108.594
20
54.357
10
108.262
20
54.324
10
107.930
20
54.357
10
107.611
20
54.453
10
107.317
20
54.610
10
107.060
20
54.822
10
106.848
20
55.079
10
106.691
20
55.373
10
106.595
20
55.692
10
106.562
20
56.024
0
LWPOLYLINE
8
INTERIOR_PROFILES
90
33
70
1
10
315.562
20
56.024
10
315.595
20
56.356
10
315.691
20
56.674
10
315.848
20
56.968
10
316.060
20
57.226
10
316.317
20
57.437
10
316.611
20
57.594
10
316.930
20
57.691
10
317.262
20
57.724
10
317.594
20
57.691
10
317.913
20
57.594
10
318.206
20
57.437
10
318.464
20
57.226
10
318.675
20
56.968
10
318.833
20
56.674
10
318.929
20
56.356
10
318.962
20
56.024
10
318.929
20
55.692
10
318.833
20
55.373
10
318.675
20
55.079
10
318.464
20
54.822
10
318.206
20
54.610
10
317.913
20
54.453
10
317.594
20
54.357
10
317.262
20
54.324
10
316.930
20
54.357
10
316.611
20
54.453
10
316.317
20
54.610
10
316.060
20
54.822
10
315.848
20
55.079
10
315.691
20
55.373
10
315.595
20
55.692
10
315.562
20
56.024
0
LWPOLYLINE
8
INTERIOR_PROFILES
90
33
70
1
10
415.562
20
56.024
10
415.595
20
56.356
10
415.691
20
56.674
10
415.848
20
56.968
10
416.060
20
57.226
10
416.317
20
57.437
10
416.611
20
57.594
10
416.930
20
57.691
10
417.262
20
57.724
10
417.594
20
57.691
10
417.913
20
57.594
10
418.206
20
57.437
10
418.464
20
57.226
10
418.675
20
56.968
10
418.833
20
56.674
10
418.929
20
56.356
10
418.962
20
56.024
10
418.929
20
55.692
10
418.833
20
55.373
10
418.675
20
55.079
10
418.464
20
54.822
10
418.206
20
54.610
10
417.913
20
54.453
10
417.594
20
54.357
10
417.262
20
54.324
10
416.930
20
54.357
10
416.611
20
54.453
10
416.317
20
54.610
10
416.060
20
54.822
10
415.848
20
55.079
10
415.691
20
55.373
10
415.595
20
55.692
10
415.562
20
56.024
0
LWPOLYLINE
8
INTERIOR_PROFILES
90
33
70
1
10
365.562
20
56.024
10
365.595
20
56.356
10
365.691
20
56.674
10
365.848
20
56.968
10
366.060
20
57.226
10
366.317
20
57.437
10
366.611
20
57.594
10
366.930
20
57.691
10
367.262
20
57.724
10
367.594
20
57.691
10
367.913
20
57.594
10
368.206
20
57.437
10
368.464
20
57.226
10
368.675
20
56.968
10
368.833
20
56.674
10
368.929
20
56.356
10
368.962
20
56.024
10
368.929
20
55.692
10
368.833
20
55.373
10
368.675
20
55.079
10
368.464
20
54.822
10
368.206
20
54.610
10
367.913
20
54.453
10
367.594
20
54.357
10
367.262
20
54.324
10
366.930
20
54.357
10
366.611
20
54.453
10
366.317
20
54.610
10
366.060
20
54.822
10
365.848
20
55.079
10
365.691
20
55.373
10
365.595
20
55.692
10
365.562
20
56.024
0
LWPOLYLINE
8
INTERIOR_PROFILES
90
33
70
1
10
65.562
20
56.024
10
65.595
20
56.356
10
65.691
20
56.674
10
65.848
20
56.968
10
66.060
20
57.226
10
66.317
20
57.437
10
66.611
20
57.594
10
66.930
20
57.691
10
67.262
20
57.724
10
67.594
20
57.691
10
67.913
20
57.594
10
68.206
20
57.437
10
68.464
20
57.226
10
68.675
20
56.968
10
68.833
20
56.674
10
68.929
20
56.356
10
68.962
20
56.024
10
68.929
20
55.692
10
68.833
20
55.373
10
68.675
20
55.079
10
68.464
20
54.822
10
68.206
20
54.610
10
67.913
20
54.453
10
67.594
20
54.357
10
67.262
20
54.324
10
66.930
20
54.357
10
66.611
20
54.453
10
66.317
20
54.610
10
66.060
20
54.822
10
65.848
20
55.079
10
65.691
20
55.373
10
65.595
20
55.692
10
65.562
20
56.024
0
LWPOLYLINE
8
INTERIOR_PROFILES
90
33
70
1
10
56.562
20
56.024
10
56.595
20
56.356
10
56.691
20
56.674
10
56.848
20
56.968
10
57.060
20
57.226
10
57.317
20
57.437
10
57.611
20
57.594
10
57.930
20
57.691
10
58.262
20
57.724
10
58.594
20
57.691
10
58.913
20
57.594
10
59.206
20
57.437
10
59.464
20
57.226
10
59.675
20
56.968
10
59.833
20
56.674
10
59.929
20
56.356
10
59.962
20
56.024
10
59.929
20
55.692
10
59.833
20
55.373
10
59.675
20
55.079
10
59.464
20
54.822
10
59.206
20
54.610
10
58.913
20
54.453
10
58.594
20
54.357
10
58.262
20
54.324
10
57.930
20
54.357
10
57.611
20
54.453
10
57.317
20
54.610
10
57.060
20
54.822
10
56.848
20
55.079
10
56.691
20
55.373
10
56.595
20
55.692
10
56.562
20
56.024
0
LWPOLYLINE
8
INTERIOR_PROFILES
90
33
70
1
10
297.562
20
56.024
10
297.595
20
56.356
10
297.691
20
56.674
10
297.848
20
56.968
10
298.060
20
57.226
10
298.317
20
57.437
10
298.611
20
57.594
10
298.930
20
57.691
10
299.262
20
57.724
10
299.594
20
57.691
10
299.913
20
57.594
10
300.206
20
57.437
10
300.464
20
57.226
10
300.675
20
56.968
10
300.833
20
56.674
10
300.929
20
56.356
10
300.962
20
56.024
10
300.929
20
55.692
10
300.833
20
55.373
10
300.675
20
55.079
10
300.464
20
54.822
10
300.206
20
54.610
10
299.913
20
54.453
10
299.594
20
54.357
10
299.262
20
54.324
10
298.930
20
54.357
10
298.611
20
54.453
10
298.317
20
54.610
10
298.060
20
54.822
10
297.848
20
55.079
10
297.691
20
55.373
10
297.595
20
55.692
10
297.562
20
56.024
0
LWPOLYLINE
8
INTERIOR_PROFILES
90
33
70
1
10
465.562
20
56.024
10
465.595
20
56.356
10
465.691
20
56.674
10
465.848
20
56.968
10
466.060
20
57.226
10
466.317
20
57.437
10
466.611
20
57.594
10
466.930
20
57.691
10
467.262
20
57.724
10
467.594
20
57.691
10
467.913
20
57.594
10
468.206
20
57.437
10
468.464
20
57.226
10
468.675
20
56.968
10
468.833
20
56.674
10
468.929
20
56.356
10
468.962
20
56.024
10
468.929
20
55.692
10
468.833
20
55.373
10
468.675
20
55.079
10
468.464
20
54.822
10
468.206
20
54.610
10
467.913
20
54.453
10
467.594
20
54.357
10
467.262
20
54.324
10
466.930
20
54.357
10
466.611
20
54.453
10
466.317
20
54.610
10
466.060
20
54.822
10
465.848
20
55.079
10
465.691
20
55.373
10
465.595
20
55.692
10
465.562
20
56.024
0
LWPOLYLINE
8
INTERIOR_PROFILES
90
33
70
1
10
456.562
20
56.024
10
456.595
20
56.356
10
456.691
20
56.674
10
456.848
20
56.968
10
457.060
20
57.226
10
457.317
20
57.437
10
457.611
20
57.594
10
457.930
20
57.691
10
458.262
20
57.724
10
458.594
20
57.691
10
458.913
20
57.594
10
459.206
20
57.437
10
459.464
20
57.226
10
459.675
20
56.968
10
459.833
20
56.674
10
459.929
20
56.356
10
459.962
20
56.024
10
459.929
20
55.692
10
459.833
20
55.373
10
459.675
20
55.079
10
459.464
20
54.822
10
459.206
20
54.610
10
458.913
20
54.453
10
458.594
20
54.357
10
458.262
20
54.324
10
457.930
20
54.357
10
457.611
20
54.453
10
457.317
20
54.610
10
457.060
20
54.822
10
456.848
20
55.079
10
456.691
20
55.373
10
456.595
20
55.692
10
456.562
20
56.024
0
LWPOLYLINE
8
INTERIOR_PROFILES
90
33
70
1
10
197.562
20
56.024
10
197.595
20
56.356
10
197.691
20
56.674
10
197.848
20
56.968
10
198.060
20
57.226
10
198.317
20
57.437
10
198.611
20
57.594
10
198.930
20
57.691
10
199.262
20
57.724
10
199.594
20
57.691
10
199.913
20
57.594
10
200.206
20
57.437
10
200.464
20
57.226
10
200.675
20
56.968
10
200.833
20
56.674
10
200.929
20
56.356
10
200.962
20
56.024
10
200.929
20
55.692
10
200.833
20
55.373
10
200.675
20
55.079
10
200.464
20
54.822
10
200.206
20
54.610
10
199.913
20
54.453
10
199.594
20
54.357
10
199.262
20
54.324
10
198.930
20
54.357
10
198.611
20
54.453
10
198.317
20
54.610
10
198.060
20
54.822
10
197.848
20
55.079
10
197.691
20
55.373
10
197.595
20
55.692
10
197.562
20
56.024
0
LWPOLYLINE
8
INTERIOR_PROFILES
90
33
70
1
10
256.562
20
56.024
10
256.595
20
56.356
10
256.691
20
56.674
10
256.848
20
56.968
10
257.060
20
57.226
10
257.317
20
57.437
10
257.611
20
57.594
10
257.930
20
57.691
10
258.262
20
57.724
10
258.594
20
57.691
10
258.913
20
57.594
10
259.206
20
57.437
10
259.464
20
57.226
10
259.675
20
56.968
10
259.833
20
56.674
10
259.929
20
56.356
10
259.962
20
56.024
10
259.929
20
55.692
10
259.833
20
55.373
10
259.675
20
55.079
10
259.464
20
54.822
10
259.206
20
54.610
10
258.913
20
54.453
10
258.594
20
54.357
10
258.262
20
54.324
10
257.930
20
54.357
10
257.611
20
54.453
10
257.317
20
54.610
10
257.060
20
54.822
10
256.848
20
55.079
10
256.691
20
55.373
10
256.595
20
55.692
10
256.562
20
56.024
0
LWPOLYLINE
8
INTERIOR_PROFILES
90
33
70
1
10
347.562
20
56.024
10
347.595
20
56.356
10
347.691
20
56.674
10
347.848
20
56.968
10
348.060
20
57.226
10
348.317
20
57.437
10
348.611
20
57.594
10
348.930
20
57.691
10
349.262
20
57.724
10
349.594
20
57.691
10
349.913
20
57.594
10
350.206
20
57.437
10
350.464
20
57.226
10
350.675
20
56.968
10
350.833
20
56.674
10
350.929
20
56.356
10
350.962
20
56.024
10
350.929
20
55.692
10
350.833
20
55.373
10
350.675
20
55.079
10
350.464
20
54.822
10
350.206
20
54.610
10
349.913
20
54.453
10
349.594
20
54.357
10
349.262
20
54.324
10
348.930
20
54.357
10
348.611
20
54.453
10
348.317
20
54.610
10
348.060
20
54.822
10
347.848
20
55.079
10
347.691
20
55.373
10
347.595
20
55.692
10
347.562
20
56.024
0
LWPOLYLINE
8
INTERIOR_PROFILES
90
33
70
1
10
506.562
20
56.024
10
506.595
20
56.356
10
506.691
20
56.674
10
506.848
20
56.968
10
507.060
20
57.226
10
507.317
20
57.437
10
507.611
20
57.594
10
507.930
20
57.691
10
508.262
20
57.724
10
508.594
20
57.691
10
508.913
20
57.594
10
509.206
20
57.437
10
509.464
20
57.226
10
509.675
20
56.968
10
509.833
20
56.674
10
509.929
20
56.356
10
509.962
20
56.024
10
509.929
20
55.692
10
509.833
20
55.373
10
509.675
20
55.079
10
509.464
20
54.822
10
509.206
20
54.610
10
508.913
20
54.453
10
508.594
20
54.357
10
508.262
20
54.324
10
507.930
20
54.357
10
507.611
20
54.453
10
507.317
20
54.610
10
507.060
20
54.822
10
506.848
20
55.079
10
506.691
20
55.373
10
506.595
20
55.692
10
506.562
20
56.024
0
LWPOLYLINE
8
INTERIOR_PROFILES
90
33
70
1
10
447.562
20
56.024
10
447.595
20
56.356
10
447.691
20
56.674
10
447.848
20
56.968
10
448.060
20
57.226
10
448.317
20
57.437
10
448.611
20
57.594
10
448.930
20
57.691
10
449.262
20
57.724
10
449.594
20
57.691
10
449.913
20
57.594
10
450.206
20
57.437
10
450.464
20
57.226
10
450.675
20
56.968
10
450.833
20
56.674
10
450.929
20
56.356
10
450.962
20
56.024
10
450.929
20
55.692
10
450.833
20
55.373
10
450.675
20
55.079
10
450.464
20
54.822
10
450.206
20
54.610
10
449.913
20
54.453
10
449.594
20
54.357
10
449.262
20
54.324
10
448.930
20
54.357
10
448.611
20
54.453
10
448.317
20
54.610
10
448.060
20
54.822
10
447.848
20
55.079
10
447.691
20
55.373
10
447.595
20
55.692
10
447.562
20
56.024
0
LWPOLYLINE
8
INTERIOR_PROFILES
90
33
70
1
10
497.562
20
56.024
10
497.595
20
56.356
10
497.691
20
56.674
10
497.848
20
56.968
10
498.060
20
57.226
10
498.317
20
57.437
10
498.611
20
57.594
10
498.930
20
57.691
10
499.262
20
57.724
10
499.594
20
57.691
10
499.913
20
57.594
10
500.206
20
57.437
10
500.464
20
57.226
10
500.675
20
56.968
10
500.833
20
56.674
10
500.929
20
56.356
10
500.962
20
56.024
10
500.929
20
55.692
10
500.833
20
55.373
10
500.675
20
55.079
10
500.464
20
54.822
10
500.206
20
54.610
10
499.913
20
54.453
10
499.594
20
54.357
10
499.262
20
54.324
10
498.930
20
54.357
10
498.611
20
54.453
10
498.317
20
54.610
10
498.060
20
54.822
10
497.848
20
55.079
10
497.691
20
55.373
10
497.595
20
55.692
10
497.562
20
56.024
0
LWPOLYLINE
8
INTERIOR_PROFILES
90
33
70
1
10
165.562
20
56.024
10
165.595
20
56.356
10
165.691
20
56.674
10
165.848
20
56.968
10
166.060
20
57.226
10
166.317
20
57.437
10
166.611
20
57.594
10
166.930
20
57.691
10
167.262
20
57.724
10
167.594
20
57.691
10
167.913
20
57.594
10
168.206
20
57.437
10
168.464
20
57.226
10
168.675
20
56.968
10
168.833
20
56.674
10
168.929
20
56.356
10
168.962
20
56.024
10
168.929
20
55.692
10
168.833
20
55.373
10
168.675
20
55.079
10
168.464
20
54.822
10
168.206
20
54.610
10
167.913
20
54.453
10
167.594
20
54.357
10
167.262
20
54.324
10
166.930
20
54.357
10
166.611
20
54.453
10
166.317
20
54.610
10
166.060
20
54.822
10
165.848
20
55.079
10
165.691
20
55.373
10
165.595
20
55.692
10
165.562
20
56.024
0
LWPOLYLINE
8
INTERIOR_PROFILES
90
33
70
1
10
247.562
20
56.024
10
247.595
20
56.356
10
247.691
20
56.674
10
247.848
20
56.968
10
248.060
20
57.226
10
248.317
20
57.437
10
248.611
20
57.594
10
248.930
20
57.691
10
249.262
20
57.724
10
249.594
20
57.691
10
249.913
20
57.594
10
250.206
20
57.437
10
250.464
20
57.226
10
250.675
20
56.968
10
250.833
20
56.674
10
250.929
20
56.356
10
250.962
20
56.024
10
250.929
20
55.692
10
250.833
20
55.373
10
250.675
20
55.079
10
250.464
20
54.822
10
250.206
20
54.610
10
249.913
20
54.453
10
249.594
20
54.357
10
249.262
20
54.324
10
248.930
20
54.357
10
248.611
20
54.453
10
248.317
20
54.610
10
248.060
20
54.822
10
247.848
20
55.079
10
247.691
20
55.373
10
247.595
20
55.692
10
247.562
20
56.024
0
LWPOLYLINE
8
INTERIOR_PROFILES
90
33
70
1
10
356.562
20
56.024
10
356.595
20
56.356
10
356.691
20
56.674
10
356.848
20
56.968
10
357.060
20
57.226
10
357.317
20
57.437
10
357.611
20
57.594
10
357.930
20
57.691
10
358.262
20
57.724
10
358.594
20
57.691
10
358.913
20
57.594
10
359.206
20
57.437
10
359.464
20
57.226
10
359.675
20
56.968
10
359.833
20
56.674
10
359.929
20
56.356
10
359.962
20
56.024
10
359.929
20
55.692
10
359.833
20
55.373
10
359.675
20
55.079
10
359.464
20
54.822
10
359.206
20
54.610
10
358.913
20
54.453
10
358.594
20
54.357
10
358.262
20
54.324
10
357.930
20
54.357
10
357.611
20
54.453
10
357.317
20
54.610
10
357.060
20
54.822
10
356.848
20
55.079
10
356.691
20
55.373
10
356.595
20
55.692
10
356.562
20
56.024
0
LWPOLYLINE
8
INTERIOR_PROFILES
90
33
70
1
10
97.562
20
56.024
10
97.595
20
56.356
10
97.691
20
56.674
10
97.848
20
56.968
10
98.060
20
57.226
10
98.317
20
57.437
10
98.611
20
57.594
10
98.930
20
57.691
10
99.262
20
57.724
10
99.594
20
57.691
10
99.913
20
57.594
10
100.206
20
57.437
10
100.464
20
57.226
10
100.675
20
56.968
10
100.833
20
56.674
10
100.929
20
56.356
10
100.962
20
56.024
10
100.929
20
55.692
10
100.833
20
55.373
10
100.675
20
55.079
10
100.464
20
54.822
10
100.206
20
54.610
10
99.913
20
54.453
10
99.594
20
54.357
10
99.262
20
54.324
10
98.930
20
54.357
10
98.611
20
54.453
10
98.317
20
54.610
10
98.060
20
54.822
10
97.848
20
55.079
10
97.691
20
55.373
10
97.595
20
55.692
10
97.562
20
56.024
0
LWPOLYLINE
8
INTERIOR_PROFILES
90
33
70
1
10
306.562
20
56.024
10
306.595
20
56.356
10
306.691
20
56.674
10
306.848
20
56.968
10
307.060
20
57.226
10
307.317
20
57.437
10
307.611
20
57.594
10
307.930
20
57.691
10
308.262
20
57.724
10
308.594
20
57.691
10
308.913
20
57.594
10
309.206
20
57.437
10
309.464
20
57.226
10
309.675
20
56.968
10
309.833
20
56.674
10
309.929
20
56.356
10
309.962
20
56.024
10
309.929
20
55.692
10
309.833
20
55.373
10
309.675
20
55.079
10
309.464
20
54.822
10
309.206
20
54.610
10
308.913
20
54.453
10
308.594
20
54.357
10
308.262
20
54.324
10
307.930
20
54.357
10
307.611
20
54.453
10
307.317
20
54.610
10
307.060
20
54.822
10
306.848
20
55.079
10
306.691
20
55.373
10
306.595
20
55.692
10
306.562
20
56.024
0
LWPOLYLINE
8
INTERIOR_PROFILES
90
33
70
1
10
397.562
20
56.024
10
397.595
20
56.356
10
397.691
20
56.674
10
397.848
20
56.968
10
398.060
20
57.226
10
398.317
20
57.437
10
398.611
20
57.594
10
398.930
20
57.691
10
399.262
20
57.724
10
399.594
20
57.691
10
399.913
20
57.594
10
400.206
20
57.437
10
400.464
20
57.226
10
400.675
20
56.968
10
400.833
20
56.674
10
400.929
20
56.356
10
400.962
20
56.024
10
400.929
20
55.692
10
400.833
20
55.373
10
400.675
20
55.079
10
400.464
20
54.822
10
400.206
20
54.610
10
399.913
20
54.453
10
399.594
20
54.357
10
399.262
20
54.324
10
398.930
20
54.357
10
398.611
20
54.453
10
398.317
20
54.610
10
398.060
20
54.822
10
397.848
20
55.079
10
397.691
20
55.373
10
397.595
20
55.692
10
397.562
20
56.024
0
LWPOLYLINE
8
INTERIOR_PROFILES
90
33
70
1
10
265.562
20
56.024
10
265.595
20
56.356
10
265.691
20
56.674
10
265.848
20
56.968
10
266.060
20
57.226
10
266.317
20
57.437
10
266.611
20
57.594
10
266.930
20
57.691
10
267.262
20
57.724
10
267.594
20
57.691
10
267.913
20
57.594
10
268.206
20
57.437
10
268.464
20
57.226
10
268.675
20
56.968
10
268.833
20
56.674
10
268.929
20
56.356
10
268.962
20
56.024
10
268.929
20
55.692
10
268.833
20
55.373
10
268.675
20
55.079
10
268.464
20
54.822
10
268.206
20
54.610
10
267.913
20
54.453
10
267.594
20
54.357
10
267.262
20
54.324
10
266.930
20
54.357
10
266.611
20
54.453
10
266.317
20
54.610
10
266.060
20
54.822
10
265.848
20
55.079
10
265.691
20
55.373
10
265.595
20
55.692
10
265.562
20
56.024
0
LWPOLYLINE
8
INTERIOR_PROFILES
90
33
70
1
10
147.562
20
56.024
10
147.595
20
56.356
10
147.691
20
56.674
10
147.848
20
56.968
10
148.060
20
57.226
10
148.317
20
57.437
10
148.611
20
57.594
10
148.930
20
57.691
10
149.262
20
57.724
10
149.594
20
57.691
10
149.913
20
57.594
10
150.206
20
57.437
10
150.464
20
57.226
10
150.675
20
56.968
10
150.833
20
56.674
10
150.929
20
56.356
10
150.962
20
56.024
10
150.929
20
55.692
10
150.833
20
55.373
10
150.675
20
55.079
10
150.464
20
54.822
10
150.206
20
54.610
10
149.913
20
54.453
10
149.594
20
54.357
10
149.262
20
54.324
10
148.930
20
54.357
10
148.611
20
54.453
10
148.317
20
54.610
10
148.060
20
54.822
10
147.848
20
55.079
10
147.691
20
55.373
10
147.595
20
55.692
10
147.562
20
56.024
0
LWPOLYLINE
8
INTERIOR_PROFILES
90
33
70
1
10
115.562
20
56.024
10
115.595
20
56.356
10
115.691
20
56.674
10
115.848
20
56.968
10
116.060
20
57.226
10
116.317
20
57.437
10
116.611
20
57.594
10
116.930
20
57.691
10
117.262
20
57.724
10
117.594
20
57.691
10
117.913
20
57.594
10
118.206
20
57.437
10
118.464
20
57.226
10
118.675
20
56.968
10
118.833
20
56.674
10
118.929
20
56.356
10
118.962
20
56.024
10
118.929
20
55.692
10
118.833
20
55.373
10
118.675
20
55.079
10
118.464
20
54.822
10
118.206
20
54.610
10
117.913
20
54.453
10
117.594
20
54.357
10
117.262
20
54.324
10
116.930
20
54.357
10
116.611
20
54.453
10
116.317
20
54.610
10
116.060
20
54.822
10
115.848
20
55.079
10
115.691
20
55.373
10
115.595
20
55.692
10
115.562
20
56.024
0
LWPOLYLINE
8
INTERIOR_PROFILES
90
33
70
1
10
215.562
20
56.024
10
215.595
20
56.356
10
215.691
20
56.674
10
215.848
20
56.968
10
216.060
20
57.226
10
216.317
20
57.437
10
216.611
20
57.594
10
216.930
20
57.691
10
217.262
20
57.724
10
217.594
20
57.691
10
217.913
20
57.594
10
218.206
20
57.437
10
218.464
20
57.226
10
218.675
20
56.968
10
218.833
20
56.674
10
218.929
20
56.356
10
218.962
20
56.024
10
218.929
20
55.692
10
218.833
20
55.373
10
218.675
20
55.079
10
218.464
20
54.822
10
218.206
20
54.610
10
217.913
20
54.453
10
217.594
20
54.357
10
217.262
20
54.324
10
216.930
20
54.357
10
216.611
20
54.453
10
216.317
20
54.610
10
216.060
20
54.822
10
215.848
20
55.079
10
215.691
20
55.373
10
215.595
20
55.692
10
215.562
20
56.024
0
LWPOLYLINE
8
INTERIOR_PROFILES
90
33
70
1
10
515.562
20
56.024
10
515.595
20
56.356
10
515.691
20
56.674
10
515.848
20
56.968
10
516.060
20
57.226
10
516.317
20
57.437
10
516.611
20
57.594
10
516.930
20
57.691
10
517.262
20
57.724
10
517.594
20
57.691
10
517.913
20
57.594
10
518.206
20
57.437
10
518.464
20
57.226
10
518.675
20
56.968
10
518.833
20
56.674
10
518.929
20
56.356
10
518.962
20
56.024
10
518.929
20
55.692
10
518.833
20
55.373
10
518.675
20
55.079
10
518.464
20
54.822
10
518.206
20
54.610
10
517.913
20
54.453
10
517.594
20
54.357
10
517.262
20
54.324
10
516.930
20
54.357
10
516.611
20
54.453
10
516.317
20
54.610
10
516.060
20
54.822
10
515.848
20
55.079
10
515.691
20
55.373
10
515.595
20
55.692
10
515.562
20
56.024
0
LWPOLYLINE
8
INTERIOR_PROFILES
90
33
70
1
10
565.562
20
56.024
10
565.595
20
56.356
10
565.691
20
56.674
10
565.848
20
56.968
10
566.060
20
57.226
10
566.317
20
57.437
10
566.611
20
57.594
10
566.930
20
57.691
10
567.262
20
57.724
10
567.594
20
57.691
10
567.913
20
57.594
10
568.206
20
57.437
10
568.464
20
57.226
10
568.675
20
56.968
10
568.833
20
56.674
10
568.929
20
56.356
10
568.962
20
56.024
10
568.929
20
55.692
10
568.833
20
55.373
10
568.675
20
55.079
10
568.464
20
54.822
10
568.206
20
54.610
10
567.913
20
54.453
10
567.594
20
54.357
10
567.262
20
54.324
10
566.930
20
54.357
10
566.611
20
54.453
10
566.317
20
54.610
10
566.060
20
54.822
10
565.848
20
55.079
10
565.691
20
55.373
10
565.595
20
55.692
10
565.562
20
56.024
0
LWPOLYLINE
8
INTERIOR_PROFILES
90
33
70
1
10
1047.562
20
56.024
10
1047.595
20
56.356
10
1047.691
20
56.674
10
1047.848
20
56.968
10
1048.060
20
57.226
10
1048.317
20
57.437
10
1048.611
20
57.594
10
1048.930
20
57.691
10
1049.262
20
57.724
10
1049.594
20
57.691
10
1049.913
20
57.594
10
1050.206
20
57.437
10
1050.464
20
57.226
10
1050.675
20
56.968
10
1050.833
20
56.674
10
1050.929
20
56.356
10
1050.962
20
56.024
10
1050.929
20
55.692
10
1050.833
20
55.373
10
1050.675
20
55.079
10
1050.464
20
54.822
10
1050.206
20
54.610
10
1049.913
20
54.453
10
1049.594
20
54.357
10
1049.262
20
54.324
10
1048.930
20
54.357
10
1048.611
20
54.453
10
1048.317
20
54.610
10
1048.060
20
54.822
10
1047.848
20
55.079
10
1047.691
20
55.373
10
1047.595
20
55.692
10
1047.562
20
56.024
0
LWPOLYLINE
8
INTERIOR_PROFILES
90
33
70
1
10
815.562
20
56.024
10
815.595
20
56.356
10
815.691
20
56.674
10
815.848
20
56.968
10
816.060
20
57.226
10
816.317
20
57.437
10
816.611
20
57.594
10
816.930
20
57.691
10
817.262
20
57.724
10
817.594
20
57.691
10
817.913
20
57.594
10
818.206
20
57.437
10
818.464
20
57.226
10
818.675
20
56.968
10
818.833
20
56.674
10
818.929
20
56.356
10
818.962
20
56.024
10
818.929
20
55.692
10
818.833
20
55.373
10
818.675
20
55.079
10
818.464
20
54.822
10
818.206
20
54.610
10
817.913
20
54.453
10
817.594
20
54.357
10
817.262
20
54.324
10
816.930
20
54.357
10
816.611
20
54.453
10
816.317
20
54.610
10
816.060
20
54.822
10
815.848
20
55.079
10
815.691
20
55.373
10
815.595
20
55.692
10
815.562
20
56.024
0
LWPOLYLINE
8
INTERIOR_PROFILES
90
33
70
1
10
1056.562
20
56.024
10
1056.595
20
56.356
10
1056.691
20
56.674
10
1056.848
20
56.968
10
1057.060
20
57.226
10
1057.317
20
57.437
10
1057.611
20
57.594
10
1057.930
20
57.691
10
1058.262
20
57.724
10
1058.594
20
57.691
10
1058.913
20
57.594
10
1059.206
20
57.437
10
1059.464
20
57.226
10
1059.675
20
56.968
10
1059.833
20
56.674
10
1059.929
20
56.356
10
1059.962
20
56.024
10
1059.929
20
55.692
10
1059.833
20
55.373
10
1059.675
20
55.079
10
1059.464
20
54.822
10
1059.206
20
54.610
10
1058.913
20
54.453
10
1058.594
20
54.357
10
1058.262
20
54.324
10
1057.930
20
54.357
10
1057.611
20
54.453
10
1057.317
20
54.610
10
1057.060
20
54.822
10
1056.848
20
55.079
10
1056.691
20
55.373
10
1056.595
20
55.692
10
1056.562
20
56.024
0
LWPOLYLINE
8
INTERIOR_PROFILES
90
33
70
1
10
1165.562
20
56.024
10
1165.595
20
56.356
10
1165.691
20
56.674
10
1165.848
20
56.968
10
1166.060
20
57.226
10
1166.317
20
57.437
10
1166.611
20
57.594
10
1166.930
20
57.691
10
1167.262
20
57.724
10
1167.594
20
57.691
10
1167.913
20
57.594
10
1168.206
20
57.437
10
1168.464
20
57.226
10
1168.675
20
56.968
10
1168.833
20
56.674
10
1168.929
20
56.356
10
1168.962
20
56.024
10
1168.929
20
55.692
10
1168.833
20
55.373
10
1168.675
20
55.079
10
1168.464
20
54.822
10
1168.206
20
54.610
10
1167.913
20
54.453
10
1167.594
20
54.357
10
1167.262
20
54.324
10
1166.930
20
54.357
10
1166.611
20
54.453
10
1166.317
20
54.610
10
1166.060
20
54.822
10
1165.848
20
55.079
10
1165.691
20
55.373
10
1165.595
20
55.692
10
1165.562
20
56.024
0
LWPOLYLINE
8
INTERIOR_PROFILES
90
33
70
1
10
1156.562
20
56.024
10
1156.595
20
56.356
10
1156.691
20
56.674
10
1156.848
20
56.968
10
1157.060
20
57.226
10
1157.317
20
57.437
10
1157.611
20
57.594
10
1157.930
20
57.691
10
1158.262
20
57.724
10
1158.594
20
57.691
10
1158.913
20
57.594
10
1159.206
20
57.437
10
1159.464
20
57.226
10
1159.675
20
56.968
10
1159.833
20
56.674
10
1159.929
20
56.356
10
1159.962
20
56.024
10
1159.929
20
55.692
10
1159.833
20
55.373
10
1159.675
20
55.079
10
1159.464
20
54.822
10
1159.206
20
54.610
10
1158.913
20
54.453
10
1158.594
20
54.357
10
1158.262
20
54.324
10
1157.930
20
54.357
10
1157.611
20
54.453
10
1157.317
20
54.610
10
1157.060
20
54.822
10
1156.848
20
55.079
10
1156.691
20
55.373
10
1156.595
20
55.692
10
1156.562
20
56.024
0
LWPOLYLINE
8
INTERIOR_PROFILES
90
33
70
1
10
1065.562
20
56.024
10
1065.595
20
56.356
10
1065.691
20
56.674
10
1065.848
20
56.968
10
1066.060
20
57.226
10
1066.317
20
57.437
10
1066.611
20
57.594
10
1066.930
20
57.691
10
1067.262
20
57.724
10
1067.594
20
57.691
10
1067.913
20
57.594
10
1068.206
20
57.437
10
1068.464
20
57.226
10
1068.675
20
56.968
10
1068.833
20
56.674
10
1068.929
20
56.356
10
1068.962
20
56.024
10
1068.929
20
55.692
10
1068.833
20
55.373
10
1068.675
20
55.079
10
1068.464
20
54.822
10
1068.206
20
54.610
10
1067.913
20
54.453
10
1067.594
20
54.357
10
1067.262
20
54.324
10
1066.930
20
54.357
10
1066.611
20
54.453
10
1066.317
20
54.610
10
1066.060
20
54.822
10
1065.848
20
55.079
10
1065.691
20
55.373
10
1065.595
20
55.692
10
1065.562
20
56.024
0
LWPOLYLINE
8
INTERIOR_PROFILES
90
33
70
1
10
1197.562
20
56.024
10
1197.595
20
56.356
10
1197.691
20
56.674
10
1197.848
20
56.968
10
1198.060
20
57.226
10
1198.317
20
57.437
10
1198.611
20
57.594
10
1198.930
20
57.691
10
1199.262
20
57.724
10
1199.594
20
57.691
10
1199.913
20
57.594
10
1200.206
20
57.437
10
1200.464
20
57.226
10
1200.675
20
56.968
10
1200.833
20
56.674
10
1200.929
20
56.356
10
1200.962
20
56.024
10
1200.929
20
55.692
10
1200.833
20
55.373
10
1200.675
20
55.079
10
1200.464
20
54.822
10
1200.206
20
54.610
10
1199.913
20
54.453
10
1199.594
20
54.357
10
1199.262
20
54.324
10
1198.930
20
54.357
10
1198.611
20
54.453
10
1198.317
20
54.610
10
1198.060
20
54.822
10
1197.848
20
55.079
10
1197.691
20
55.373
10
1197.595
20
55.692
10
1197.562
20
56.024
0
LWPOLYLINE
8
INTERIOR_PROFILES
90
33
70
1
10
1106.562
20
56.024
10
1106.595
20
56.356
10
1106.691
20
56.674
10
1106.848
20
56.968
10
1107.060
20
57.226
10
1107.317
20
57.437
10
1107.611
20
57.594
10
1107.930
20
57.691
10
1108.262
20
57.724
10
1108.594
20
57.691
10
1108.913
20
57.594
10
1109.206
20
57.437
10
1109.464
20
57.226
10
1109.675
20
56.968
10
1109.833
20
56.674
10
1109.929
20
56.356
10
1109.962
20
56.024
10
1109.929
20
55.692
10
1109.833
20
55.373
10
1109.675
20
55.079
10
1109.464
20
54.822
10
1109.206
20
54.610
10
1108.913
20
54.453
10
1108.594
20
54.357
10
1108.262
20
54.324
10
1107.930
20
54.357
10
1107.611
20
54.453
10
1107.317
20
54.610
10
1107.060
20
54.822
10
1106.848
20
55.079
10
1106.691
20
55.373
10
1106.595
20
55.692
10
1106.562
20
56.024
0
LWPOLYLINE
8
INTERIOR_PROFILES
90
33
70
1
10
547.562
20
56.024
10
547.595
20
56.356
10
547.691
20
56.674
10
547.848
20
56.968
10
548.060
20
57.226
10
548.317
20
57.437
10
548.611
20
57.594
10
548.930
20
57.691
10
549.262
20
57.724
10
549.594
20
57.691
10
549.913
20
57.594
10
550.206
20
57.437
10
550.464
20
57.226
10
550.675
20
56.968
10
550.833
20
56.674
10
550.929
20
56.356
10
550.962
20
56.024
10
550.929
20
55.692
10
550.833
20
55.373
10
550.675
20
55.079
10
550.464
20
54.822
10
550.206
20
54.610
10
549.913
20
54.453
10
549.594
20
54.357
10
549.262
20
54.324
10
548.930
20
54.357
10
548.611
20
54.453
10
548.317
20
54.610
10
548.060
20
54.822
10
547.848
20
55.079
10
547.691
20
55.373
10
547.595
20
55.692
10
547.562
20
56.024
0
LWPOLYLINE
8
INTERIOR_PROFILES
90
33
70
1
10
915.562
20
56.024
10
915.595
20
56.356
10
915.691
20
56.674
10
915.848
20
56.968
10
916.060
20
57.226
10
916.317
20
57.437
10
916.611
20
57.594
10
916.930
20
57.691
10
917.262
20
57.724
10
917.594
20
57.691
10
917.913
20
57.594
10
918.206
20
57.437
10
918.464
20
57.226
10
918.675
20
56.968
10
918.833
20
56.674
10
918.929
20
56.356
10
918.962
20
56.024
10
918.929
20
55.692
10
918.833
20
55.373
10
918.675
20
55.079
10
918.464
20
54.822
10
918.206
20
54.610
10
917.913
20
54.453
10
917.594
20
54.357
10
917.262
20
54.324
10
916.930
20
54.357
10
916.611
20
54.453
10
916.317
20
54.610
10
916.060
20
54.822
10
915.848
20
55.079
10
915.691
20
55.373
10
915.595
20
55.692
10
915.562
20
56.024
0
LWPOLYLINE
8
INTERIOR_PROFILES
90
33
70
1
10
1115.562
20
56.024
10
1115.595
20
56.356
10
1115.691
20
56.674
10
1115.848
20
56.968
10
1116.060
20
57.226
10
1116.317
20
57.437
10
1116.611
20
57.594
10
1116.930
20
57.691
10
1117.262
20
57.724
10
1117.594
20
57.691
10
1117.913
20
57.594
10
1118.206
20
57.437
10
1118.464
20
57.226
10
1118.675
20
56.968
10
1118.833
20
56.674
10
1118.929
20
56.356
10
1118.962
20
56.024
10
1118.929
20
55.692
10
1118.833
20
55.373
10
1118.675
20
55.079
10
1118.464
20
54.822
10
1118.206
20
54.610
10
1117.913
20
54.453
10
1117.594
20
54.357
10
1117.262
20
54.324
10
1116.930
20
54.357
10
1116.611
20
54.453
10
1116.317
20
54.610
10
1116.060
20
54.822
10
1115.848
20
55.079
10
1115.691
20
55.373
10
1115.595
20
55.692
10
1115.562
20
56.024
0
LWPOLYLINE
8
INTERIOR_PROFILES
90
33
70
1
10
1097.562
20
56.024
10
1097.595
20
56.356
10
1097.691
20
56.674
10
1097.848
20
56.968
10
1098.060
20
57.226
10
1098.317
20
57.437
10
1098.611
20
57.594
10
1098.930
20
57.691
10
1099.262
20
57.724
10
1099.594
20
57.691
10
1099.913
20
57.594
10
1100.206
20
57.437
10
1100.464
20
57.226
10
1100.675
20
56.968
10
1100.833
20
56.674
10
1100.929
20
56.356
10
1100.962
20
56.024
10
1100.929
20
55.692
10
1100.833
20
55.373
10
1100.675
20
55.079
10
1100.464
20
54.822
10
1100.206
20
54.610
10
1099.913
20
54.453
10
1099.594
20
54.357
10
1099.262
20
54.324
10
1098.930
20
54.357
10
1098.611
20
54.453
10
1098.317
20
54.610
10
1098.060
20
54.822
10
1097.848
20
55.079
10
1097.691
20
55.373
10
1097.595
20
55.692
10
1097.562
20
56.024
0
LWPOLYLINE
8
INTERIOR_PROFILES
90
33
70
1
10
41.562
20
56.024
10
41.595
20
56.356
10
41.691
20
56.674
10
41.848
20
56.968
10
42.060
20
57.226
10
42.317
20
57.437
10
42.611
20
57.594
10
42.930
20
57.691
10
43.262
20
57.724
10
43.594
20
57.691
10
43.913
20
57.594
10
44.206
20
57.437
10
44.464
20
57.226
10
44.675
20
56.968
10
44.833
20
56.674
10
44.929
20
56.356
10
44.962
20
56.024
10
44.929
20
55.692
10
44.833
20
55.373
10
44.675
20
55.079
10
44.464
20
54.822
10
44.206
20
54.610
10
43.913
20
54.453
10
43.594
20
54.357
10
43.262
20
54.324
10
42.930
20
54.357
10
42.611
20
54.453
10
42.317
20
54.610
10
42.060
20
54.822
10
41.848
20
55.079
10
41.691
20
55.373
10
41.595
20
55.692
10
41.562
20
56.024
0
LWPOLYLINE
8
INTERIOR_PROFILES
90
33
70
1
10
1015.562
20
56.024
10
1015.595
20
56.356
10
1015.691
20
56.674
10
1015.848
20
56.968
10
1016.060
20
57.226
10
1016.317
20
57.437
10
1016.611
20
57.594
10
1016.930
20
57.691
10
1017.262
20
57.724
10
1017.594
20
57.691
10
1017.913
20
57.594
10
1018.206
20
57.437
10
1018.464
20
57.226
10
1018.675
20
56.968
10
1018.833
20
56.674
10
1018.929
20
56.356
10
1018.962
20
56.024
10
1018.929
20
55.692
10
1018.833
20
55.373
10
1018.675
20
55.079
10
1018.464
20
54.822
10
1018.206
20
54.610
10
1017.913
20
54.453
10
1017.594
20
54.357
10
1017.262
20
54.324
10
1016.930
20
54.357
10
1016.611
20
54.453
10
1016.317
20
54.610
10
1016.060
20
54.822
10
1015.848
20
55.079
10
1015.691
20
55.373
10
1015.595
20
55.692
10
1015.562
20
56.024
0
LWPOLYLINE
8
INTERIOR_PROFILES
90
33
70
1
10
15.562
20
56.024
10
15.595
20
56.356
10
15.691
20
56.674
10
15.848
20
56.968
10
16.060
20
57.226
10
16.317
20
57.437
10
16.611
20
57.594
10
16.930
20
57.691
10
17.262
20
57.724
10
17.594
20
57.691
10
17.913
20
57.594
10
18.206
20
57.437
10
18.464
20
57.226
10
18.675
20
56.968
10
18.833
20
56.674
10
18.929
20
56.356
10
18.962
20
56.024
10
18.929
20
55.692
10
18.833
20
55.373
10
18.675
20
55.079
10
18.464
20
54.822
10
18.206
20
54.610
10
17.913
20
54.453
10
17.594
20
54.357
10
17.262
20
54.324
10
16.930
20
54.357
10
16.611
20
54.453
10
16.317
20
54.610
10
16.060
20
54.822
10
15.848
20
55.079
10
15.691
20
55.373
10
15.595
20
55.692
10
15.562
20
56.024
0
LWPOLYLINE
8
INTERIOR_PROFILES
90
33
70
1
10
797.562
20
56.024
10
797.595
20
56.356
10
797.691
20
56.674
10
797.848
20
56.968
10
798.060
20
57.226
10
798.317
20
57.437
10
798.611
20
57.594
10
798.930
20
57.691
10
799.262
20
57.724
10
799.594
20
57.691
10
799.913
20
57.594
10
800.206
20
57.437
10
800.464
20
57.226
10
800.675
20
56.968
10
800.833
20
56.674
10
800.929
20
56.356
10
800.962
20
56.024
10
800.929
20
55.692
10
800.833
20
55.373
10
800.675
20
55.079
10
800.464
20
54.822
10
800.206
20
54.610
10
799.913
20
54.453
10
799.594
20
54.357
10
799.262
20
54.324
10
798.930
20
54.357
10
798.611
20
54.453
10
798.317
20
54.610
10
798.060
20
54.822
10
797.848
20
55.079
10
797.691
20
55.373
10
797.595
20
55.692
10
797.562
20
56.024
0
LWPOLYLINE
8
INTERIOR_PROFILES
90
33
70
1
10
706.562
20
56.024
10
706.595
20
56.356
10
706.691
20
56.674
10
706.848
20
56.968
10
707.060
20
57.226
10
707.317
20
57.437
10
707.611
20
57.594
10
707.930
20
57.691
10
708.262
20
57.724
10
708.594
20
57.691
10
708.913
20
57.594
10
709.206
20
57.437
10
709.464
20
57.226
10
709.675
20
56.968
10
709.833
20
56.674
10
709.929
20
56.356
10
709.962
20
56.024
10
709.929
20
55.692
10
709.833
20
55.373
10
709.675
20
55.079
10
709.464
20
54.822
10
709.206
20
54.610
10
708.913
20
54.453
10
708.594
20
54.357
10
708.262
20
54.324
10
707.930
20
54.357
10
707.611
20
54.453
10
707.317
20
54.610
10
707.060
20
54.822
10
706.848
20
55.079
10
706.691
20
55.373
10
706.595
20
55.692
10
706.562
20
56.024
0
LWPOLYLINE
8
INTERIOR_PROFILES
90
33
70
1
10
1125.562
20
56.024
10
1125.595
20
56.356
10
1125.691
20
56.674
10
1125.848
20
56.968
10
1126.060
20
57.226
10
1126.317
20
57.437
10
1126.611
20
57.594
10
1126.930
20
57.691
10
1127.262
20
57.724
10
1127.594
20
57.691
10
1127.913
20
57.594
10
1128.206
20
57.437
10
1128.464
20
57.226
10
1128.675
20
56.968
10
1128.833
20
56.674
10
1128.929
20
56.356
10
1128.962
20
56.024
10
1128.929
20
55.692
10
1128.833
20
55.373
10
1128.675
20
55.079
10
1128.464
20
54.822
10
1128.206
20
54.610
10
1127.913
20
54.453
10
1127.594
20
54.357
10
1127.262
20
54.324
10
1126.930
20
54.357
10
1126.611
20
54.453
10
1126.317
20
54.610
10
1126.060
20
54.822
10
1125.848
20
55.079
10
1125.691
20
55.373
10
1125.595
20
55.692
10
1125.562
20
56.024
0
LWPOLYLINE
8
INTERIOR_PROFILES
90
33
70
1
10
1171.562
20
56.024
10
1171.595
20
56.356
10
1171.691
20
56.674
10
1171.848
20
56.968
10
1172.060
20
57.226
10
1172.317
20
57.437
10
1172.611
20
57.594
10
1172.930
20
57.691
10
1173.262
20
57.724
10
1173.594
20
57.691
10
1173.913
20
57.594
10
1174.206
20
57.437
10
1174.464
20
57.226
10
1174.675
20
56.968
10
1174.833
20
56.674
10
1174.929
20
56.356
10
1174.962
20
56.024
10
1174.929
20
55.692
10
1174.833
20
55.373
10
1174.675
20
55.079
10
1174.464
20
54.822
10
1174.206
20
54.610
10
1173.913
20
54.453
10
1173.594
20
54.357
10
1173.262
20
54.324
10
1172.930
20
54.357
10
1172.611
20
54.453
10
1172.317
20
54.610
10
1172.060
20
54.822
10
1171.848
20
55.079
10
1171.691
20
55.373
10
1171.595
20
55.692
10
1171.562
20
56.024
0
LWPOLYLINE
8
INTERIOR_PROFILES
90
33
70
1
10
87.562
20
56.024
10
87.595
20
56.356
10
87.691
20
56.674
10
87.848
20
56.968
10
88.060
20
57.226
10
88.317
20
57.437
10
88.611
20
57.594
10
88.930
20
57.691
10
89.262
20
57.724
10
89.594
20
57.691
10
89.913
20
57.594
10
90.206
20
57.437
10
90.464
20
57.226
10
90.675
20
56.968
10
90.833
20
56.674
10
90.929
20
56.356
10
90.962
20
56.024
10
90.929
20
55.692
10
90.833
20
55.373
10
90.675
20
55.079
10
90.464
20
54.822
10
90.206
20
54.610
10
89.913
20
54.453
10
89.594
20
54.357
10
89.262
20
54.324
10
88.930
20
54.357
10
88.611
20
54.453
10
88.317
20
54.610
10
88.060
20
54.822
10
87.848
20
55.079
10
87.691
20
55.373
10
87.595
20
55.692
10
87.562
20
56.024
0
LWPOLYLINE
8
OUTER_PROFILES
90
24
70
1
10
10.262
20
157.262
10
10.262
20
123.262
10
10.262
20
121.000
10
10.262
20
114.000
10
1206.262
20
114.000
10
1206.262
20
121.000
10
1206.262
20
123.262
10
1206.262
20
157.262
10
1206.262
20
159.524
10
1216.524
20
159.524
10
1216.524
20
180.524
10
1206.262
20
180.524
10
1206.262
20
182.786
10
1206.262
20
216.786
10
1206.262
20
219.048
10
1206.262
20
226.048
10
10.262
20
226.048
10
10.262
20
219.048
10
10.262
20
182.786
10
10.262
20
180.524
10
0.000
20
180.524
10
0.000
20
159.524
10
10.262
20
159.524
10
10.262
20
157.262
0
LWPOLYLINE
8
INTERIOR_PROFILES
90
5
70
1
10
1123.262
20
159.524
10
1196.262
20
159.524
10
1196.262
20
157.262
10
1123.262
20
157.262
10
1123.262
20
159.524
0
LWPOLYLINE
8
INTERIOR_PROFILES
90
33
70
1
10
15.562
20
128.262
10
15.595
20
128.594
10
15.691
20
128.913
10
15.848
20
129.206
10
16.060
20
129.464
10
16.317
20
129.675
10
16.611
20
129.833
10
16.930
20
129.929
10
17.262
20
129.962
10
17.594
20
129.929
10
17.913
20
129.833
10
18.206
20
129.675
10
18.464
20
129.464
10
18.675
20
129.206
10
18.833
20
128.913
10
18.929
20
128.594
10
18.962
20
128.262
10
18.929
20
127.930
10
18.833
20
127.611
10
18.675
20
127.317
10
18.464
20
127.060
10
18.206
20
126.848
10
17.913
20
126.691
10
17.594
20
126.595
10
17.262
20
126.562
10
16.930
20
126.595
10
16.611
20
126.691
10
16.317
20
126.848
10
16.060
20
127.060
10
15.848
20
127.317
10
15.691
20
127.611
10
15.595
20
127.930
10
15.562
20
128.262
0
LWPOLYLINE
8
INTERIOR_PROFILES
90
5
70
1
10
1123.262
20
182.786
10
1196.262
20
182.786
10
1196.262
20
180.524
10
1123.262
20
180.524
10
1123.262
20
182.786
0
LWPOLYLINE
8
INTERIOR_PROFILES
90
5
70
1
10
93.262
20
159.524
10
93.262
20
157.262
10
20.262
20
157.262
10
20.262
20
159.524
10
93.262
20
159.524
0
LWPOLYLINE
8
INTERIOR_PROFILES
90
33
70
1
10
1197.562
20
153.262
10
1197.595
20
153.594
10
1197.691
20
153.913
10
1197.848
20
154.206
10
1198.060
20
154.464
10
1198.317
20
154.675
10
1198.611
20
154.833
10
1198.930
20
154.929
10
1199.262
20
154.962
10
1199.594
20
154.929
10
1199.913
20
154.833
10
1200.206
20
154.675
10
1200.464
20
154.464
10
1200.675
20
154.206
10
1200.833
20
153.913
10
1200.929
20
153.594
10
1200.962
20
153.262
10
1200.929
20
152.930
10
1200.833
20
152.611
10
1200.675
20
152.317
10
1200.464
20
152.060
10
1200.206
20
151.848
10
1199.913
20
151.691
10
1199.594
20
151.595
10
1199.262
20
151.562
10
1198.930
20
151.595
10
1198.611
20
151.691
10
1198.317
20
151.848
10
1198.060
20
152.060
10
1197.848
20
152.317
10
1197.691
20
152.611
10
1197.595
20
152.930
10
1197.562
20
153.262
0
LWPOLYLINE
8
INTERIOR_PROFILES
90
33
70
1
10
15.562
20
186.786
10
15.595
20
187.117
10
15.691
20
187.436
10
15.848
20
187.730
10
16.060
20
187.988
10
16.317
20
188.199
10
16.611
20
188.356
10
16.930
20
188.453
10
17.262
20
188.486
10
17.594
20
188.453
10
17.913
20
188.356
10
18.206
20
188.199
10
18.464
20
187.988
10
18.675
20
187.730
10
18.833
20
187.436
10
18.929
20
187.117
10
18.962
20
186.786
10
18.929
20
186.454
10
18.833
20
186.135
10
18.675
20
185.841
10
18.464
20
185.584
10
18.206
20
185.372
10
17.913
20
185.215
10
17.594
20
185.119
10
17.262
20
185.086
10
16.930
20
185.119
10
16.611
20
185.215
10
16.317
20
185.372
10
16.060
20
185.584
10
15.848
20
185.841
10
15.691
20
186.135
10
15.595
20
186.454
10
15.562
20
186.786
0
LWPOLYLINE
8
INTERIOR_PROFILES
90
33
70
1
10
15.562
20
153.262
10
15.595
20
153.594
10
15.691
20
153.913
10
15.848
20
154.206
10
16.060
20
154.464
10
16.317
20
154.675
10
16.611
20
154.833
10
16.930
20
154.929
10
17.262
20
154.962
10
17.594
20
154.929
10
17.913
20
154.833
10
18.206
20
154.675
10
18.464
20
154.464
10
18.675
20
154.206
10
18.833
20
153.913
10
18.929
20
153.594
10
18.962
20
153.262
10
18.929
20
152.930
10
18.833
20
152.611
10
18.675
20
152.317
10
18.464
20
152.060
10
18.206
20
151.848
10
17.913
20
151.691
10
17.594
20
151.595
10
17.262
20
151.562
10
16.930
20
151.595
10
16.611
20
151.691
10
16.317
20
151.848
10
16.060
20
152.060
10
15.848
20
152.317
10
15.691
20
152.611
10
15.595
20
152.930
10
15.562
20
153.262
0
LWPOLYLINE
8
INTERIOR_PROFILES
90
5
70
1
10
93.262
20
182.786
10
93.262
20
180.524
10
20.262
20
180.524
10
20.262
20
182.786
10
93.262
20
182.786
0
LWPOLYLINE
8
INTERIOR_PROFILES
90
33
70
1
10
1197.562
20
211.786
10
1197.595
20
212.117
10
1197.691
20
212.436
10
1197.848
20
212.730
10
1198.060
20
212.988
10
1198.317
20
213.199
10
1198.611
20
213.356
10
1198.930
20
213.453
10
1199.262
20
213.486
10
1199.594
20
213.453
10
1199.913
20
213.356
10
1200.206
20
213.199
10
1200.464
20
212.988
10
1200.675
20
212.730
10
1200.833
20
212.436
10
1200.929
20
212.117
10
1200.962
20
211.786
10
1200.929
20
211.454
10
1200.833
20
211.135
10
1200.675
20
210.841
10
1200.464
20
210.584
10
1200.206
20
210.372
10
1199.913
20
210.215
10
1199.594
20
210.119
10
1199.262
20
210.086
10
1198.930
20
210.119
10
1198.611
20
210.215
10
1198.317
20
210.372
10
1198.060
20
210.584
10
1197.848
20
210.841
10
1197.691
20
211.135
10
1197.595
20
211.454
10
1197.562
20
211.786
0
LWPOLYLINE
8
INTERIOR_PROFILES
90
33
70
1
10
1197.562
20
128.262
10
1197.595
20
128.594
10
1197.691
20
128.913
10
1197.848
20
129.206
10
1198.060
20
129.464
10
1198.317
20
129.675
10
1198.611
20
129.833
10
1198.930
20
129.929
10
1199.262
20
129.962
10
1199.594
20
129.929
10
1199.913
20
129.833
10
1200.206
20
129.675
10
1200.464
20
129.464
10
1200.675
20
129.206
10
1200.833
20
128.913
10
1200.929
20
128.594
10
1200.962
20
128.262
10
1200.929
20
127.930
10
1200.833
20
127.611
10
1200.675
20
127.317
10
1200.464
20
127.060
10
1200.206
20
126.848
10
1199.913
20
126.691
10
1199.594
20
126.595
10
1199.262
20
126.562
10
1198.930
20
126.595
10
1198.611
20
126.691
10
1198.317
20
126.848
10
1198.060
20
127.060
10
1197.848
20
127.317
10
1197.691
20
127.611
10
1197.595
20
127.930
10
1197.562
20
128.262
0
LWPOLYLINE
8
INTERIOR_PROFILES
90
33
70
1
10
1197.562
20
186.786
10
1197.595
20
187.117
10
1197.691
20
187.436
10
1197.848
20
187.730
10
1198.060
20
187.988
10
1198.317
20
188.199
10
1198.611
20
188.356
10
1198.930
20
188.453
10
1199.262
20
188.486
10
1199.594
20
188.453
10
1199.913
20
188.356
10
1200.206
20
188.199
10
1200.464
20
187.988
10
1200.675
20
187.730
10
1200.833
20
187.436
10
1200.929
20
187.117
10
1200.962
20
186.786
10
1200.929
20
186.454
10
1200.833
20
186.135
10
1200.675
20
185.841
10
1200.464
20
185.584
10
1200.206
20
185.372
10
1199.913
20
185.215
10
1199.594
20
185.119
10
1199.262
20
185.086
10
1198.930
20
185.119
10
1198.611
20
185.215
10
1198.317
20
185.372
10
1198.060
20
185.584
10
1197.848
20
185.841
10
1197.691
20
186.135
10
1197.595
20
186.454
10
1197.562
20
186.786
0
LWPOLYLINE
8
INTERIOR_PROFILES
90
33
70
1
10
15.562
20
211.786
10
15.595
20
212.117
10
15.691
20
212.436
10
15.848
20
212.730
10
16.060
20
212.988
10
16.317
20
213.199
10
16.611
20
213.356
10
16.930
20
213.453
10
17.262
20
213.486
10
17.594
20
213.453
10
17.913
20
213.356
10
18.206
20
213.199
10
18.464
20
212.988
10
18.675
20
212.730
10
18.833
20
212.436
10
18.929
20
212.117
10
18.962
20
211.786
10
18.929
20
211.454
10
18.833
20
211.135
10
18.675
20
210.841
10
18.464
20
210.584
10
18.206
20
210.372
10
17.913
20
210.215
10
17.594
20
210.119
10
17.262
20
210.086
10
16.930
20
210.119
10
16.611
20
210.215
10
16.317
20
210.372
10
16.060
20
210.584
10
15.848
20
210.841
10
15.691
20
211.135
10
15.595
20
211.454
10
15.562
20
211.786
0
LWPOLYLINE
8
INTERIOR_PROFILES
90
33
70
1
10
1006.562
20
170.024
10
1006.595
20
170.356
10
1006.691
20
170.674
10
1006.848
20
170.968
10
1007.060
20
171.226
10
1007.317
20
171.437
10
1007.611
20
171.594
10
1007.930
20
171.691
10
1008.262
20
171.724
10
1008.594
20
171.691
10
1008.913
20
171.594
10
1009.206
20
171.437
10
1009.464
20
171.226
10
1009.675
20
170.968
10
1009.833
20
170.674
10
1009.929
20
170.356
10
1009.962
20
170.024
10
1009.929
20
169.692
10
1009.833
20
169.373
10
1009.675
20
169.079
10
1009.464
20
168.822
10
1009.206
20
168.610
10
1008.913
20
168.453
10
1008.594
20
168.357
10
1008.262
20
168.324
10
1007.930
20
168.357
10
1007.611
20
168.453
10
1007.317
20
168.610
10
1007.060
20
168.822
10
1006.848
20
169.079
10
1006.691
20
169.373
10
1006.595
20
169.692
10
1006.562
20
170.024
0
LWPOLYLINE
8
INTERIOR_PROFILES
90
33
70
1
10
647.562
20
170.024
10
647.595
20
170.356
10
647.691
20
170.674
10
647.848
20
170.968
10
648.060
20
171.226
10
648.317
20
171.437
10
648.611
20
171.594
10
648.930
20
171.691
10
649.262
20
171.724
10
649.594
20
171.691
10
649.913
20
171.594
10
650.206
20
171.437
10
650.464
20
171.226
10
650.675
20
170.968
10
650.833
20
170.674
10
650.929
20
170.356
10
650.962
20
170.024
10
650.929
20
169.692
10
650.833
20
169.373
10
650.675
20
169.079
10
650.464
20
168.822
10
650.206
20
168.610
10
649.913
20
168.453
10
649.594
20
168.357
10
649.262
20
168.324
10
648.930
20
168.357
10
648.611
20
168.453
10
648.317
20
168.610
10
648.060
20
168.822
10
647.848
20
169.079
10
647.691
20
169.373
10
647.595
20
169.692
10
647.562
20
170.024
0
LWPOLYLINE
8
INTERIOR_PROFILES
90
33
70
1
10
597.562
20
170.024
10
597.595
20
170.356
10
597.691
20
170.674
10
597.848
20
170.968
10
598.060
20
171.226
10
598.317
20
171.437
10
598.611
20
171.594
10
598.930
20
171.691
10
599.262
20
171.724
10
599.594
20
171.691
10
599.913
20
171.594
10
600.206
20
171.437
10
600.464
20
171.226
10
600.675
20
170.968
10
600.833
20
170.674
10
600.929
20
170.356
10
600.962
20
170.024
10
600.929
20
169.692
10
600.833
20
169.373
10
600.675
20
169.079
10
600.464
20
168.822
10
600.206
20
168.610
10
599.913
20
168.453
10
599.594
20
168.357
10
599.262
20
168.324
10
598.930
20
168.357
10
598.611
20
168.453
10
598.317
20
168.610
10
598.060
20
168.822
10
597.848
20
169.079
10
597.691
20
169.373
10
597.595
20
169.692
10
597.562
20
170.024
0
LWPOLYLINE
8
INTERIOR_PROFILES
90
33
70
1
10
606.562
20
170.024
10
606.595
20
170.356
10
606.691
20
170.674
10
606.848
20
170.968
10
607.060
20
171.226
10
607.317
20
171.437
10
607.611
20
171.594
10
607.930
20
171.691
10
608.262
20
171.724
10
608.594
20
171.691
10
608.913
20
171.594
10
609.206
20
171.437
10
609.464
20
171.226
10
609.675
20
170.968
10
609.833
20
170.674
10
609.929
20
170.356
10
609.962
20
170.024
10
609.929
20
169.692
10
609.833
20
169.373
10
609.675
20
169.079
10
609.464
20
168.822
10
609.206
20
168.610
10
608.913
20
168.453
10
608.594
20
168.357
10
608.262
20
168.324
10
607.930
20
168.357
10
607.611
20
168.453
10
607.317
20
168.610
10
607.060
20
168.822
10
606.848
20
169.079
10
606.691
20
169.373
10
606.595
20
169.692
10
606.562
20
170.024
0
LWPOLYLINE
8
INTERIOR_PROFILES
90
33
70
1
10
2.300
20
170.024
10
2.333
20
170.356
10
2.429
20
170.674
10
2.587
20
170.968
10
2.798
20
171.226
10
3.056
20
171.437
10
3.349
20
171.594
10
3.668
20
171.691
10
4.000
20
171.724
10
4.332
20
171.691
10
4.651
20
171.594
10
4.944
20
171.437
10
5.202
20
171.226
10
5.413
20
170.968
10
5.571
20
170.674
10
5.667
20
170.356
10
5.700
20
170.024
10
5.667
20
169.692
10
5.571
20
169.373
10
5.413
20
169.079
10
5.202
20
168.822
10
4.944
20
168.610
10
4.651
20
168.453
10
4.332
20
168.357
10
4.000
20
168.324
10
3.668
20
168.357
10
3.349
20
168.453
10
3.056
20
168.610
10
2.798
20
168.822
10
2.587
20
169.079
10
2.429
20
169.373
10
2.333
20
169.692
10
2.300
20
170.024
0
LWPOLYLINE
8
INTERIOR_PROFILES
90
33
70
1
10
156.562
20
170.024
10
156.595
20
170.356
10
156.691
20
170.674
10
156.848
20
170.968
10
157.060
20
171.226
10
157.317
20
171.437
10
157.611
20
171.594
10
157.930
20
171.691
10
158.262
20
171.724
10
158.594
20
171.691
10
158.913
20
171.594
10
159.206
20
171.437
10
159.464
20
171.226
10
159.675
20
170.968
10
159.833
20
170.674
10
159.929
20
170.356
10
159.962
20
170.024
10
159.929
20
169.692
10
159.833
20
169.373
10
159.675
20
169.079
10
159.464
20
168.822
10
159.206
20
168.610
10
158.913
20
168.453
10
158.594
20
168.357
10
158.262
20
168.324
10
157.930
20
168.357
10
157.611
20
168.453
10
157.317
20
168.610
10
157.060
20
168.822
10
156.848
20
169.079
10
156.691
20
169.373
10
156.595
20
169.692
10
156.562
20
170.024
0
LWPOLYLINE
8
INTERIOR_PROFILES
90
33
70
1
10
947.562
20
170.024
10
947.595
20
170.356
10
947.691
20
170.674
10
947.848
20
170.968
10
948.060
20
171.226
10
948.317
20
171.437
10
948.611
20
171.594
10
948.930
20
171.691
10
949.262
20
171.724
10
949.594
20
171.691
10
949.913
20
171.594
10
950.206
20
171.437
10
950.464
20
171.226
10
950.675
20
170.968
10
950.833
20
170.674
10
950.929
20
170.356
10
950.962
20
170.024
10
950.929
20
169.692
10
950.833
20
169.373
10
950.675
20
169.079
10
950.464
20
168.822
10
950.206
20
168.610
10
949.913
20
168.453
10
949.594
20
168.357
10
949.262
20
168.324
10
948.930
20
168.357
10
948.611
20
168.453
10
948.317
20
168.610
10
948.060
20
168.822
10
947.848
20
169.079
10
947.691
20
169.373
10
947.595
20
169.692
10
947.562
20
170.024
0
LWPOLYLINE
8
INTERIOR_PROFILES
90
33
70
1
10
406.562
20
170.024
10
406.595
20
170.356
10
406.691
20
170.674
10
406.848
20
170.968
10
407.060
20
171.226
10
407.317
20
171.437
10
407.611
20
171.594
10
407.930
20
171.691
10
408.262
20
171.724
10
408.594
20
171.691
10
408.913
20
171.594
10
409.206
20
171.437
10
409.464
20
171.226
10
409.675
20
170.968
10
409.833
20
170.674
10
409.929
20
170.356
10
409.962
20
170.024
10
409.929
20
169.692
10
409.833
20
169.373
10
409.675
20
169.079
10
409.464
20
168.822
10
409.206
20
168.610
10
408.913
20
168.453
10
408.594
20
168.357
10
408.262
20
168.324
10
407.930
20
168.357
10
407.611
20
168.453
10
407.317
20
168.610
10
407.060
20
168.822
10
406.848
20
169.079
10
406.691
20
169.373
10
406.595
20
169.692
10
406.562
20
170.024
0
LWPOLYLINE
8
INTERIOR_PROFILES
90
33
70
1
10
656.562
20
170.024
10
656.595
20
170.356
10
656.691
20
170.674
10
656.848
20
170.968
10
657.060
20
171.226
10
657.317
20
171.437
10
657.611
20
171.594
10
657.930
20
171.691
10
658.262
20
171.724
10
658.594
20
171.691
10
658.913
20
171.594
10
659.206
20
171.437
10
659.464
20
171.226
10
659.675
20
170.968
10
659.833
20
170.674
10
659.929
20
170.356
10
659.962
20
170.024
10
659.929
20
169.692
10
659.833
20
169.373
10
659.675
20
169.079
10
659.464
20
168.822
10
659.206
20
168.610
10
658.913
20
168.453
10
658.594
20
168.357
10
658.262
20
168.324
10
657.930
20
168.357
10
657.611
20
168.453
10
657.317
20
168.610
10
657.060
20
168.822
10
656.848
20
169.079
10
656.691
20
169.373
10
656.595
20
169.692
10
656.562
20
170.024
0
LWPOLYLINE
8
INTERIOR_PROFILES
90
33
70
1
10
556.562
20
170.024
10
556.595
20
170.356
10
556.691
20
170.674
10
556.848
20
170.968
10
557.060
20
171.226
10
557.317
20
171.437
10
557.611
20
171.594
10
557.930
20
171.691
10
558.262
20
171.724
10
558.594
20
171.691
10
558.913
20
171.594
10
559.206
20
171.437
10
559.464
20
171.226
10
559.675
20
170.968
10
559.833
20
170.674
10
559.929
20
170.356
10
559.962
20
170.024
10
559.929
20
169.692
10
559.833
20
169.373
10
559.675
20
169.079
10
559.464
20
168.822
10
559.206
20
168.610
10
558.913
20
168.453
10
558.594
20
168.357
10
558.262
20
168.324
10
557.930
20
168.357
10
557.611
20
168.453
10
557.317
20
168.610
10
557.060
20
168.822
10
556.848
20
169.079
10
556.691
20
169.373
10
556.595
20
169.692
10
556.562
20
170.024
0
LWPOLYLINE
8
INTERIOR_PROFILES
90
33
70
1
10
715.562
20
170.024
10
715.595
20
170.356
10
715.691
20
170.674
10
715.848
20
170.968
10
716.060
20
171.226
10
716.317
20
171.437
10
716.611
20
171.594
10
716.930
20
171.691
10
717.262
20
171.724
10
717.594
20
171.691
10
717.913
20
171.594
10
718.206
20
171.437
10
718.464
20
171.226
10
718.675
20
170.968
10
718.833
20
170.674
10
718.929
20
170.356
10
718.962
20
170.024
10
718.929
20
169.692
10
718.833
20
169.373
10
718.675
20
169.079
10
718.464
20
168.822
10
718.206
20
168.610
10
717.913
20
168.453
10
717.594
20
168.357
10
717.262
20
168.324
10
716.930
20
168.357
10
716.611
20
168.453
10
716.317
20
168.610
10
716.060
20
168.822
10
715.848
20
169.079
10
715.691
20
169.373
10
715.595
20
169.692
10
715.562
20
170.024
0
LWPOLYLINE
8
INTERIOR_PROFILES
90
33
70
1
10
747.562
20
170.024
10
747.595
20
170.356
10
747.691
20
170.674
10
747.848
20
170.968
10
748.060
20
171.226
10
748.317
20
171.437
10
748.611
20
171.594
10
748.930
20
171.691
10
749.262
20
171.724
10
749.594
20
171.691
10
749.913
20
171.594
10
750.206
20
171.437
10
750.464
20
171.226
10
750.675
20
170.968
10
750.833
20
170.674
10
750.929
20
170.356
10
750.962
20
170.024
10
750.929
20
169.692
10
750.833
20
169.373
10
750.675
20
169.079
10
750.464
20
168.822
10
750.206
20
168.610
10
749.913
20
168.453
10
749.594
20
168.357
10
749.262
20
168.324
10
748.930
20
168.357
10
748.611
20
168.453
10
748.317
20
168.610
10
748.060
20
168.822
10
747.848
20
169.079
10
747.691
20
169.373
10
747.595
20
169.692
10
747.562
20
170.024
0
LWPOLYLINE
8
INTERIOR_PROFILES
90
33
70
1
10
997.562
20
170.024
10
997.595
20
170.356
10
997.691
20
170.674
10
997.848
20
170.968
10
998.060
20
171.226
10
998.317
20
171.437
10
998.611
20
171.594
10
998.930
20
171.691
10
999.262
20
171.724
10
999.594
20
171.691
10
999.913
20
171.594
10
1000.206
20
171.437
10
1000.464
20
171.226
10
1000.675
20
170.968
10
1000.833
20
170.674
10
1000.929
20
170.356
10
1000.962
20
170.024
10
1000.929
20
169.692
10
1000.833
20
169.373
10
1000.675
20
169.079
10
1000.464
20
168.822
10
1000.206
20
168.610
10
999.913
20
168.453
10
999.594
20
168.357
10
999.262
20
168.324
10
998.930
20
168.357
10
998.611
20
168.453
10
998.317
20
168.610
10
998.060
20
168.822
10
997.848
20
169.079
10
997.691
20
169.373
10
997.595
20
169.692
10
997.562
20
170.024
0
LWPOLYLINE
8
INTERIOR_PROFILES
90
33
70
1
10
965.562
20
170.024
10
965.595
20
170.356
10
965.691
20
170.674
10
965.848
20
170.968
10
966.060
20
171.226
10
966.317
20
171.437
10
966.611
20
171.594
10
966.930
20
171.691
10
967.262
20
171.724
10
967.594
20
171.691
10
967.913
20
171.594
10
968.206
20
171.437
10
968.464
20
171.226
10
968.675
20
170.968
10
968.833
20
170.674
10
968.929
20
170.356
10
968.962
20
170.024
10
968.929
20
169.692
10
968.833
20
169.373
10
968.675
20
169.079
10
968.464
20
168.822
10
968.206
20
168.610
10
967.913
20
168.453
10
967.594
20
168.357
10
967.262
20
168.324
10
966.930
20
168.357
10
966.611
20
168.453
10
966.317
20
168.610
10
966.060
20
168.822
10
965.848
20
169.079
10
965.691
20
169.373
10
965.595
20
169.692
10
965.562
20
170.024
0
LWPOLYLINE
8
INTERIOR_PROFILES
90
33
70
1
10
1147.562
20
170.024
10
1147.595
20
170.356
10
1147.691
20
170.674
10
1147.848
20
170.968
10
1148.060
20
171.226
10
1148.317
20
171.437
10
1148.611
20
171.594
10
1148.930
20
171.691
10
1149.262
20
171.724
10
1149.594
20
171.691
10
1149.913
20
171.594
10
1150.206
20
171.437
10
1150.464
20
171.226
10
1150.675
20
170.968
10
1150.833
20
170.674
10
1150.929
20
170.356
10
1150.962
20
170.024
10
1150.929
20
169.692
10
1150.833
20
169.373
10
1150.675
20
169.079
10
1150.464
20
168.822
10
1150.206
20
168.610
10
1149.913
20
168.453
10
1149.594
20
168.357
10
1149.262
20
168.324
10
1148.930
20
168.357
10
1148.611
20
168.453
10
1148.317
20
168.610
10
1148.060
20
168.822
10
1147.848
20
169.079
10
1147.691
20
169.373
10
1147.595
20
169.692
10
1147.562
20
170.024
0
LWPOLYLINE
8
INTERIOR_PROFILES
90
33
70
1
10
756.562
20
170.024
10
756.595
20
170.356
10
756.691
20
170.674
10
756.848
20
170.968
10
757.060
20
171.226
10
757.317
20
171.437
10
757.611
20
171.594
10
757.930
20
171.691
10
758.262
20
171.724
10
758.594
20
171.691
10
758.913
20
171.594
10
759.206
20
171.437
10
759.464
20
171.226
10
759.675
20
170.968
10
759.833
20
170.674
10
759.929
20
170.356
10
759.962
20
170.024
10
759.929
20
169.692
10
759.833
20
169.373
10
759.675
20
169.079
10
759.464
20
168.822
10
759.206
20
168.610
10
758.913
20
168.453
10
758.594
20
168.357
10
758.262
20
168.324
10
757.930
20
168.357
10
757.611
20
168.453
10
757.317
20
168.610
10
757.060
20
168.822
10
756.848
20
169.079
10
756.691
20
169.373
10
756.595
20
169.692
10
756.562
20
170.024
0
LWPOLYLINE
8
INTERIOR_PROFILES
90
33
70
1
10
806.562
20
170.024
10
806.595
20
170.356
10
806.691
20
170.674
10
806.848
20
170.968
10
807.060
20
171.226
10
807.317
20
171.437
10
807.611
20
171.594
10
807.930
20
171.691
10
808.262
20
171.724
10
808.594
20
171.691
10
808.913
20
171.594
10
809.206
20
171.437
10
809.464
20
171.226
10
809.675
20
170.968
10
809.833
20
170.674
10
809.929
20
170.356
10
809.962
20
170.024
10
809.929
20
169.692
10
809.833
20
169.373
10
809.675
20
169.079
10
809.464
20
168.822
10
809.206
20
168.610
10
808.913
20
168.453
10
808.594
20
168.357
10
808.262
20
168.324
10
807.930
20
168.357
10
807.611
20
168.453
10
807.317
20
168.610
10
807.060
20
168.822
10
806.848
20
169.079
10
806.691
20
169.373
10
806.595
20
169.692
10
806.562
20
170.024
0
LWPOLYLINE
8
INTERIOR_PROFILES
90
33
70
1
10
765.562
20
170.024
10
765.595
20
170.356
10
765.691
20
170.674
10
765.848
20
170.968
10
766.060
20
171.226
10
766.317
20
171.437
10
766.611
20
171.594
10
766.930
20
171.691
10
767.262
20
171.724
10
767.594
20
171.691
10
767.913
20
171.594
10
768.206
20
171.437
10
768.464
20
171.226
10
768.675
20
170.968
10
768.833
20
170.674
10
768.929
20
170.356
10
768.962
20
170.024
10
768.929
20
169.692
10
768.833
20
169.373
10
768.675
20
169.079
10
768.464
20
168.822
10
768.206
20
168.610
10
767.913
20
168.453
10
767.594
20
168.357
10
767.262
20
168.324
10
766.930
20
168.357
10
766.611
20
168.453
10
766.317
20
168.610
10
766.060
20
168.822
10
765.848
20
169.079
10
765.691
20
169.373
10
765.595
20
169.692
10
765.562
20
170.024
0
LWPOLYLINE
8
INTERIOR_PROFILES
90
33
70
1
10
665.562
20
170.024
10
665.595
20
170.356
10
665.691
20
170.674
10
665.848
20
170.968
10
666.060
20
171.226
10
666.317
20
171.437
10
666.611
20
171.594
10
666.930
20
171.691
10
667.262
20
171.724
10
667.594
20
171.691
10
667.913
20
171.594
10
668.206
20
171.437
10
668.464
20
171.226
10
668.675
20
170.968
10
668.833
20
170.674
10
668.929
20
170.356
10
668.962
20
170.024
10
668.929
20
169.692
10
668.833
20
169.373
10
668.675
20
169.079
10
668.464
20
168.822
10
668.206
20
168.610
10
667.913
20
168.453
10
667.594
20
168.357
10
667.262
20
168.324
10
666.930
20
168.357
10
666.611
20
168.453
10
666.317
20
168.610
10
666.060
20
168.822
10
665.848
20
169.079
10
665.691
20
169.373
10
665.595
20
169.692
10
665.562
20
170.024
0
LWPOLYLINE
8
INTERIOR_PROFILES
90
33
70
1
10
697.562
20
170.024
10
697.595
20
170.356
10
697.691
20
170.674
10
697.848
20
170.968
10
698.060
20
171.226
10
698.317
20
171.437
10
698.611
20
171.594
10
698.930
20
171.691
10
699.262
20
171.724
10
699.594
20
171.691
10
699.913
20
171.594
10
700.206
20
171.437
10
700.464
20
171.226
10
700.675
20
170.968
10
700.833
20
170.674
10
700.929
20
170.356
10
700.962
20
170.024
10
700.929
20
169.692
10
700.833
20
169.373
10
700.675
20
169.079
10
700.464
20
168.822
10
700.206
20
168.610
10
699.913
20
168.453
10
699.594
20
168.357
10
699.262
20
168.324
10
698.930
20
168.357
10
698.611
20
168.453
10
698.317
20
168.610
10
698.060
20
168.822
10
697.848
20
169.079
10
697.691
20
169.373
10
697.595
20
169.692
10
697.562
20
170.024
0
LWPOLYLINE
8
INTERIOR_PROFILES
90
33
70
1
10
897.562
20
170.024
10
897.595
20
170.356
10
897.691
20
170.674
10
897.848
20
170.968
10
898.060
20
171.226
10
898.317
20
171.437
10
898.611
20
171.594
10
898.930
20
171.691
10
899.262
20
171.724
10
899.594
20
171.691
10
899.913
20
171.594
10
900.206
20
171.437
10
900.464
20
171.226
10
900.675
20
170.968
10
900.833
20
170.674
10
900.929
20
170.356
10
900.962
20
170.024
10
900.929
20
169.692
10
900.833
20
169.373
10
900.675
20
169.079
10
900.464
20
168.822
10
900.206
20
168.610
10
899.913
20
168.453
10
899.594
20
168.357
10
899.262
20
168.324
10
898.930
20
168.357
10
898.611
20
168.453
10
898.317
20
168.610
10
898.060
20
168.822
10
897.848
20
169.079
10
897.691
20
169.373
10
897.595
20
169.692
10
897.562
20
170.024
0
LWPOLYLINE
8
INTERIOR_PROFILES
90
33
70
1
10
1210.824
20
170.024
10
1210.857
20
170.356
10
1210.953
20
170.674
10
1211.110
20
170.968
10
1211.322
20
171.226
10
1211.579
20
171.437
10
1211.873
20
171.594
10
1212.192
20
171.691
10
1212.524
20
171.724
10
1212.856
20
171.691
10
1213.174
20
171.594
10
1213.468
20
171.437
10
1213.726
20
171.226
10
1213.937
20
170.968
10
1214.094
20
170.674
10
1214.191
20
170.356
10
1214.224
20
170.024
10
1214.191
20
169.692
10
1214.094
20
169.373
10
1213.937
20
169.079
10
1213.726
20
168.822
10
1213.468
20
168.610
10
1213.174
20
168.453
10
1212.856
20
168.357
10
1212.524
20
168.324
10
1212.192
20
168.357
10
1211.873
20
168.453
10
1211.579
20
168.610
10
1211.322
20
168.822
10
1211.110
20
169.079
10
1210.953
20
169.373
10
1210.857
20
169.692
10
1210.824
20
170.024
0
LWPOLYLINE
8
INTERIOR_PROFILES
90
33
70
1
10
206.562
20
170.024
10
206.595
20
170.356
10
206.691
20
170.674
10
206.848
20
170.968
10
207.060
20
171.226
10
207.317
20
171.437
10
207.611
20
171.594
10
207.930
20
171.691
10
208.262
20
171.724
10
208.594
20
171.691
10
208.913
20
171.594
10
209.206
20
171.437
10
209.464
20
171.226
10
209.675
20
170.968
10
209.833
20
170.674
10
209.929
20
170.356
10
209.962
20
170.024
10
209.929
20
169.692
10
209.833
20
169.373
10
209.675
20
169.079
10
209.464
20
168.822
10
209.206
20
168.610
10
208.913
20
168.453
10
208.594
20
168.357
10
208.262
20
168.324
10
207.930
20
168.357
10
207.611
20
168.453
10
207.317
20
168.610
10
207.060
20
168.822
10
206.848
20
169.079
10
206.691
20
169.373
10
206.595
20
169.692
10
206.562
20
170.024
0
LWPOLYLINE
8
INTERIOR_PROFILES
90
33
70
1
10
906.562
20
170.024
10
906.595
20
170.356
10
906.691
20
170.674
10
906.848
20
170.968
10
907.060
20
171.226
10
907.317
20
171.437
10
907.611
20
171.594
10
907.930
20
171.691
10
908.262
20
171.724
10
908.594
20
171.691
10
908.913
20
171.594
10
909.206
20
171.437
10
909.464
20
171.226
10
909.675
20
170.968
10
909.833
20
170.674
10
909.929
20
170.356
10
909.962
20
170.024
10
909.929
20
169.692
10
909.833
20
169.373
10
909.675
20
169.079
10
909.464
20
168.822
10
909.206
20
168.610
10
908.913
20
168.453
10
908.594
20
168.357
10
908.262
20
168.324
10
907.930
20
168.357
10
907.611
20
168.453
10
907.317
20
168.610
10
907.060
20
168.822
10
906.848
20
169.079
10
906.691
20
169.373
10
906.595
20
169.692
10
906.562
20
170.024
0
LWPOLYLINE
8
INTERIOR_PROFILES
90
33
70
1
10
47.562
20
170.024
10
47.595
20
170.356
10
47.691
20
170.674
10
47.848
20
170.968
10
48.060
20
171.226
10
48.317
20
171.437
10
48.611
20
171.594
10
48.930
20
171.691
10
49.262
20
171.724
10
49.594
20
171.691
10
49.913
20
171.594
10
50.206
20
171.437
10
50.464
20
171.226
10
50.675
20
170.968
10
50.833
20
170.674
10
50.929
20
170.356
10
50.962
20
170.024
10
50.929
20
169.692
10
50.833
20
169.373
10
50.675
20
169.079
10
50.464
20
168.822
10
50.206
20
168.610
10
49.913
20
168.453
10
49.594
20
168.357
10
49.262
20
168.324
10
48.930
20
168.357
10
48.611
20
168.453
10
48.317
20
168.610
10
48.060
20
168.822
10
47.848
20
169.079
10
47.691
20
169.373
10
47.595
20
169.692
10
47.562
20
170.024
0
LWPOLYLINE
8
INTERIOR_PROFILES
90
33
70
1
10
615.562
20
170.024
10
615.595
20
170.356
10
615.691
20
170.674
10
615.848
20
170.968
10
616.060
20
171.226
10
616.317
20
171.437
10
616.611
20
171.594
10
616.930
20
171.691
10
617.262
20
171.724
10
617.594
20
171.691
10
617.913
20
171.594
10
618.206
20
171.437
10
618.464
20
171.226
10
618.675
20
170.968
10
618.833
20
170.674
10
618.929
20
170.356
10
618.962
20
170.024
10
618.929
20
169.692
10
618.833
20
169.373
10
618.675
20
169.079
10
618.464
20
168.822
10
618.206
20
168.610
10
617.913
20
168.453
10
617.594
20
168.357
10
617.262
20
168.324
10
616.930
20
168.357
10
616.611
20
168.453
10
616.317
20
168.610
10
616.060
20
168.822
10
615.848
20
169.079
10
615.691
20
169.373
10
615.595
20
169.692
10
615.562
20
170.024
0
LWPOLYLINE
8
INTERIOR_PROFILES
90
33
70
1
10
956.562
20
170.024
10
956.595
20
170.356
10
956.691
20
170.674
10
956.848
20
170.968
10
957.060
20
171.226
10
957.317
20
171.437
10
957.611
20
171.594
10
957.930
20
171.691
10
958.262
20
171.724
10
958.594
20
171.691
10
958.913
20
171.594
10
959.206
20
171.437
10
959.464
20
171.226
10
959.675
20
170.968
10
959.833
20
170.674
10
959.929
20
170.356
10
959.962
20
170.024
10
959.929
20
169.692
10
959.833
20
169.373
10
959.675
20
169.079
10
959.464
20
168.822
10
959.206
20
168.610
10
958.913
20
168.453
10
958.594
20
168.357
10
958.262
20
168.324
10
957.930
20
168.357
10
957.611
20
168.453
10
957.317
20
168.610
10
957.060
20
168.822
10
956.848
20
169.079
10
956.691
20
169.373
10
956.595
20
169.692
10
956.562
20
170.024
0
LWPOLYLINE
8
INTERIOR_PROFILES
90
33
70
1
10
106.562
20
170.024
10
106.595
20
170.356
10
106.691
20
170.674
10
106.848
20
170.968
10
107.060
20
171.226
10
107.317
20
171.437
10
107.611
20
171.594
10
107.930
20
171.691
10
108.262
20
171.724
10
108.594
20
171.691
10
108.913
20
171.594
10
109.206
20
171.437
10
109.464
20
171.226
10
109.675
20
170.968
10
109.833
20
170.674
10
109.929
20
170.356
10
109.962
20
170.024
10
109.929
20
169.692
10
109.833
20
169.373
10
109.675
20
169.079
10
109.464
20
168.822
10
109.206
20
168.610
10
108.913
20
168.453
10
108.594
20
168.357
10
108.262
20
168.324
10
107.930
20
168.357
10
107.611
20
168.453
10
107.317
20
168.610
10
107.060
20
168.822
10
106.848
20
169.079
10
106.691
20
169.373
10
106.595
20
169.692
10
106.562
20
170.024
0
LWPOLYLINE
8
INTERIOR_PROFILES
90
33
70
1
10
315.562
20
170.024
10
315.595
20
170.356
10
315.691
20
170.674
10
315.848
20
170.968
10
316.060
20
171.226
10
316.317
20
171.437
10
316.611
20
171.594
10
316.930
20
171.691
10
317.262
20
171.724
10
317.594
20
171.691
10
317.913
20
171.594
10
318.206
20
171.437
10
318.464
20
171.226
10
318.675
20
170.968
10
318.833
20
170.674
10
318.929
20
170.356
10
318.962
20
170.024
10
318.929
20
169.692
10
318.833
20
169.373
10
318.675
20
169.079
10
318.464
20
168.822
10
318.206
20
168.610
10
317.913
20
168.453
10
317.594
20
168.357
10
317.262
20
168.324
10
316.930
20
168.357
10
316.611
20
168.453
10
316.317
20
168.610
10
316.060
20
168.822
10
315.848
20
169.079
10
315.691
20
169.373
10
315.595
20
169.692
10
315.562
20
170.024
0
LWPOLYLINE
8
INTERIOR_PROFILES
90
33
70
1
10
415.562
20
170.024
10
415.595
20
170.356
10
415.691
20
170.674
10
415.848
20
170.968
10
416.060
20
171.226
10
416.317
20
171.437
10
416.611
20
171.594
10
416.930
20
171.691
10
417.262
20
171.724
10
417.594
20
171.691
10
417.913
20
171.594
10
418.206
20
171.437
10
418.464
20
171.226
10
418.675
20
170.968
10
418.833
20
170.674
10
418.929
20
170.356
10
418.962
20
170.024
10
418.929
20
169.692
10
418.833
20
169.373
10
418.675
20
169.079
10
418.464
20
168.822
10
418.206
20
168.610
10
417.913
20
168.453
10
417.594
20
168.357
10
417.262
20
168.324
10
416.930
20
168.357
10
416.611
20
168.453
10
416.317
20
168.610
10
416.060
20
168.822
10
415.848
20
169.079
10
415.691
20
169.373
10
415.595
20
169.692
10
415.562
20
170.024
0
LWPOLYLINE
8
INTERIOR_PROFILES
90
33
70
1
10
365.562
20
170.024
10
365.595
20
170.356
10
365.691
20
170.674
10
365.848
20
170.968
10
366.060
20
171.226
10
366.317
20
171.437
10
366.611
20
171.594
10
366.930
20
171.691
10
367.262
20
171.724
10
367.594
20
171.691
10
367.913
20
171.594
10
368.206
20
171.437
10
368.464
20
171.226
10
368.675
20
170.968
10
368.833
20
170.674
10
368.929
20
170.356
10
368.962
20
170.024
10
368.929
20
169.692
10
368.833
20
169.373
10
368.675
20
169.079
10
368.464
20
168.822
10
368.206
20
168.610
10
367.913
20
168.453
10
367.594
20
168.357
10
367.262
20
168.324
10
366.930
20
168.357
10
366.611
20
168.453
10
366.317
20
168.610
10
366.060
20
168.822
10
365.848
20
169.079
10
365.691
20
169.373
10
365.595
20
169.692
10
365.562
20
170.024
0
LWPOLYLINE
8
INTERIOR_PROFILES
90
33
70
1
10
65.562
20
170.024
10
65.595
20
170.356
10
65.691
20
170.674
10
65.848
20
170.968
10
66.060
20
171.226
10
66.317
20
171.437
10
66.611
20
171.594
10
66.930
20
171.691
10
67.262
20
171.724
10
67.594
20
171.691
10
67.913
20
171.594
10
68.206
20
171.437
10
68.464
20
171.226
10
68.675
20
170.968
10
68.833
20
170.674
10
68.929
20
170.356
10
68.962
20
170.024
10
68.929
20
169.692
10
68.833
20
169.373
10
68.675
20
169.079
10
68.464
20
168.822
10
68.206
20
168.610
10
67.913
20
168.453
10
67.594
20
168.357
10
67.262
20
168.324
10
66.930
20
168.357
10
66.611
20
168.453
10
66.317
20
168.610
10
66.060
20
168.822
10
65.848
20
169.079
10
65.691
20
169.373
10
65.595
20
169.692
10
65.562
20
170.024
0
LWPOLYLINE
8
INTERIOR_PROFILES
90
33
70
1
10
56.562
20
170.024
10
56.595
20
170.356
10
56.691
20
170.674
10
56.848
20
170.968
10
57.060
20
171.226
10
57.317
20
171.437
10
57.611
20
171.594
10
57.930
20
171.691
10
58.262
20
171.724
10
58.594
20
171.691
10
58.913
20
171.594
10
59.206
20
171.437
10
59.464
20
171.226
10
59.675
20
170.968
10
59.833
20
170.674
10
59.929
20
170.356
10
59.962
20
170.024
10
59.929
20
169.692
10
59.833
20
169.373
10
59.675
20
169.079
10
59.464
20
168.822
10
59.206
20
168.610
10
58.913
20
168.453
10
58.594
20
168.357
10
58.262
20
168.324
10
57.930
20
168.357
10
57.611
20
168.453
10
57.317
20
168.610
10
57.060
20
168.822
10
56.848
20
169.079
10
56.691
20
169.373
10
56.595
20
169.692
10
56.562
20
170.024
0
LWPOLYLINE
8
INTERIOR_PROFILES
90
33
70
1
10
297.562
20
170.024
10
297.595
20
170.356
10
297.691
20
170.674
10
297.848
20
170.968
10
298.060
20
171.226
10
298.317
20
171.437
10
298.611
20
171.594
10
298.930
20
171.691
10
299.262
20
171.724
10
299.594
20
171.691
10
299.913
20
171.594
10
300.206
20
171.437
10
300.464
20
171.226
10
300.675
20
170.968
10
300.833
20
170.674
10
300.929
20
170.356
10
300.962
20
170.024
10
300.929
20
169.692
10
300.833
20
169.373
10
300.675
20
169.079
10
300.464
20
168.822
10
300.206
20
168.610
10
299.913
20
168.453
10
299.594
20
168.357
10
299.262
20
168.324
10
298.930
20
168.357
10
298.611
20
168.453
10
298.317
20
168.610
10
298.060
20
168.822
10
297.848
20
169.079
10
297.691
20
169.373
10
297.595
20
169.692
10
297.562
20
170.024
0
LWPOLYLINE
8
INTERIOR_PROFILES
90
33
70
1
10
465.562
20
170.024
10
465.595
20
170.356
10
465.691
20
170.674
10
465.848
20
170.968
10
466.060
20
171.226
10
466.317
20
171.437
10
466.611
20
171.594
10
466.930
20
171.691
10
467.262
20
171.724
10
467.594
20
171.691
10
467.913
20
171.594
10
468.206
20
171.437
10
468.464
20
171.226
10
468.675
20
170.968
10
468.833
20
170.674
10
468.929
20
170.356
10
468.962
20
170.024
10
468.929
20
169.692
10
468.833
20
169.373
10
468.675
20
169.079
10
468.464
20
168.822
10
468.206
20
168.610
10
467.913
20
168.453
10
467.594
20
168.357
10
467.262
20
168.324
10
466.930
20
168.357
10
466.611
20
168.453
10
466.317
20
168.610
10
466.060
20
168.822
10
465.848
20
169.079
10
465.691
20
169.373
10
465.595
20
169.692
10
465.562
20
170.024
0
LWPOLYLINE
8
INTERIOR_PROFILES
90
33
70
1
10
456.562
20
170.024
10
456.595
20
170.356
10
456.691
20
170.674
10
456.848
20
170.968
10
457.060
20
171.226
10
457.317
20
171.437
10
457.611
20
171.594
10
457.930
20
171.691
10
458.262
20
171.724
10
458.594
20
171.691
10
458.913
20
171.594
10
459.206
20
171.437
10
459.464
20
171.226
10
459.675
20
170.968
10
459.833
20
170.674
10
459.929
20
170.356
10
459.962
20
170.024
10
459.929
20
169.692
10
459.833
20
169.373
10
459.675
20
169.079
10
459.464
20
168.822
10
459.206
20
168.610
10
458.913
20
168.453
10
458.594
20
168.357
10
458.262
20
168.324
10
457.930
20
168.357
10
457.611
20
168.453
10
457.317
20
168.610
10
457.060
20
168.822
10
456.848
20
169.079
10
456.691
20
169.373
10
456.595
20
169.692
10
456.562
20
170.024
0
LWPOLYLINE
8
INTERIOR_PROFILES
90
33
70
1
10
197.562
20
170.024
10
197.595
20
170.356
10
197.691
20
170.674
10
197.848
20
170.968
10
198.060
20
171.226
10
198.317
20
171.437
10
198.611
20
171.594
10
198.930
20
171.691
10
199.262
20
171.724
10
199.594
20
171.691
10
199.913
20
171.594
10
200.206
20
171.437
10
200.464
20
171.226
10
200.675
20
170.968
10
200.833
20
170.674
10
200.929
20
170.356
10
200.962
20
170.024
10
200.929
20
169.692
10
200.833
20
169.373
10
200.675
20
169.079
10
200.464
20
168.822
10
200.206
20
168.610
10
199.913
20
168.453
10
199.594
20
168.357
10
199.262
20
168.324
10
198.930
20
168.357
10
198.611
20
168.453
10
198.317
20
168.610
10
198.060
20
168.822
10
197.848
20
169.079
10
197.691
20
169.373
10
197.595
20
169.692
10
197.562
20
170.024
0
LWPOLYLINE
8
INTERIOR_PROFILES
90
33
70
1
10
256.562
20
170.024
10
256.595
20
170.356
10
256.691
20
170.674
10
256.848
20
170.968
10
257.060
20
171.226
10
257.317
20
171.437
10
257.611
20
171.594
10
257.930
20
171.691
10
258.262
20
171.724
10
258.594
20
171.691
10
258.913
20
171.594
10
259.206
20
171.437
10
259.464
20
171.226
10
259.675
20
170.968
10
259.833
20
170.674
10
259.929
20
170.356
10
259.962
20
170.024
10
259.929
20
169.692
10
259.833
20
169.373
10
259.675
20
169.079
10
259.464
20
168.822
10
259.206
20
168.610
10
258.913
20
168.453
10
258.594
20
168.357
10
258.262
20
168.324
10
257.930
20
168.357
10
257.611
20
168.453
10
257.317
20
168.610
10
257.060
20
168.822
10
256.848
20
169.079
10
256.691
20
169.373
10
256.595
20
169.692
10
256.562
20
170.024
0
LWPOLYLINE
8
INTERIOR_PROFILES
90
33
70
1
10
347.562
20
170.024
10
347.595
20
170.356
10
347.691
20
170.674
10
347.848
20
170.968
10
348.060
20
171.226
10
348.317
20
171.437
10
348.611
20
171.594
10
348.930
20
171.691
10
349.262
20
171.724
10
349.594
20
171.691
10
349.913
20
171.594
10
350.206
20
171.437
10
350.464
20
171.226
10
350.675
20
170.968
10
350.833
20
170.674
10
350.929
20
170.356
10
350.962
20
170.024
10
350.929
20
169.692
10
350.833
20
169.373
10
350.675
20
169.079
10
350.464
20
168.822
10
350.206
20
168.610
10
349.913
20
168.453
10
349.594
20
168.357
10
349.262
20
168.324
10
348.930
20
168.357
10
348.611
20
168.453
10
348.317
20
168.610
10
348.060
20
168.822
10
347.848
20
169.079
10
347.691
20
169.373
10
347.595
20
169.692
10
347.562
20
170.024
0
LWPOLYLINE
8
INTERIOR_PROFILES
90
33
70
1
10
506.562
20
170.024
10
506.595
20
170.356
10
506.691
20
170.674
10
506.848
20
170.968
10
507.060
20
171.226
10
507.317
20
171.437
10
507.611
20
171.594
10
507.930
20
171.691
10
508.262
20
171.724
10
508.594
20
171.691
10
508.913
20
171.594
10
509.206
20
171.437
10
509.464
20
171.226
10
509.675
20
170.968
10
509.833
20
170.674
10
509.929
20
170.356
10
509.962
20
170.024
10
509.929
20
169.692
10
509.833
20
169.373
10
509.675
20
169.079
10
509.464
20
168.822
10
509.206
20
168.610
10
508.913
20
168.453
10
508.594
20
168.357
10
508.262
20
168.324
10
507.930
20
168.357
10
507.611
20
168.453
10
507.317
20
168.610
10
507.060
20
168.822
10
506.848
20
169.079
10
506.691
20
169.373
10
506.595
20
169.692
10
506.562
20
170.024
0
LWPOLYLINE
8
INTERIOR_PROFILES
90
33
70
1
10
447.562
20
170.024
10
447.595
20
170.356
10
447.691
20
170.674
10
447.848
20
170.968
10
448.060
20
171.226
10
448.317
20
171.437
10
448.611
20
171.594
10
448.930
20
171.691
10
449.262
20
171.724
10
449.594
20
171.691
10
449.913
20
171.594
10
450.206
20
171.437
10
450.464
20
171.226
10
450.675
20
170.968
10
450.833
20
170.674
10
450.929
20
170.356
10
450.962
20
170.024
10
450.929
20
169.692
10
450.833
20
169.373
10
450.675
20
169.079
10
450.464
20
168.822
10
450.206
20
168.610
10
449.913
20
168.453
10
449.594
20
168.357
10
449.262
20
168.324
10
448.930
20
168.357
10
448.611
20
168.453
10
448.317
20
168.610
10
448.060
20
168.822
10
447.848
20
169.079
10
447.691
20
169.373
10
447.595
20
169.692
10
447.562
20
170.024
0
LWPOLYLINE
8
INTERIOR_PROFILES
90
33
70
1
10
497.562
20
170.024
10
497.595
20
170.356
10
497.691
20
170.674
10
497.848
20
170.968
10
498.060
20
171.226
10
498.317
20
171.437
10
498.611
20
171.594
10
498.930
20
171.691
10
499.262
20
171.724
10
499.594
20
171.691
10
499.913
20
171.594
10
500.206
20
171.437
10
500.464
20
171.226
10
500.675
20
170.968
10
500.833
20
170.674
10
500.929
20
170.356
10
500.962
20
170.024
10
500.929
20
169.692
10
500.833
20
169.373
10
500.675
20
169.079
10
500.464
20
168.822
10
500.206
20
168.610
10
499.913
20
168.453
10
499.594
20
168.357
10
499.262
20
168.324
10
498.930
20
168.357
10
498.611
20
168.453
10
498.317
20
168.610
10
498.060
20
168.822
10
497.848
20
169.079
10
497.691
20
169.373
10
497.595
20
169.692
10
497.562
20
170.024
0
LWPOLYLINE
8
INTERIOR_PROFILES
90
33
70
1
10
165.562
20
170.024
10
165.595
20
170.356
10
165.691
20
170.674
10
165.848
20
170.968
10
166.060
20
171.226
10
166.317
20
171.437
10
166.611
20
171.594
10
166.930
20
171.691
10
167.262
20
171.724
10
167.594
20
171.691
10
167.913
20
171.594
10
168.206
20
171.437
10
168.464
20
171.226
10
168.675
20
170.968
10
168.833
20
170.674
10
168.929
20
170.356
10
168.962
20
170.024
10
168.929
20
169.692
10
168.833
20
169.373
10
168.675
20
169.079
10
168.464
20
168.822
10
168.206
20
168.610
10
167.913
20
168.453
10
167.594
20
168.357
10
167.262
20
168.324
10
166.930
20
168.357
10
166.611
20
168.453
10
166.317
20
168.610
10
166.060
20
168.822
10
165.848
20
169.079
10
165.691
20
169.373
10
165.595
20
169.692
10
165.562
20
170.024
0
LWPOLYLINE
8
INTERIOR_PROFILES
90
33
70
1
10
247.562
20
170.024
10
247.595
20
170.356
10
247.691
20
170.674
10
247.848
20
170.968
10
248.060
20
171.226
10
248.317
20
171.437
10
248.611
20
171.594
10
248.930
20
171.691
10
249.262
20
171.724
10
249.594
20
171.691
10
249.913
20
171.594
10
250.206
20
171.437
10
250.464
20
171.226
10
250.675
20
170.968
10
250.833
20
170.674
10
250.929
20
170.356
10
250.962
20
170.024
10
250.929
20
169.692
10
250.833
20
169.373
10
250.675
20
169.079
10
250.464
20
168.822
10
250.206
20
168.610
10
249.913
20
168.453
10
249.594
20
168.357
10
249.262
20
168.324
10
248.930
20
168.357
10
248.611
20
168.453
10
248.317
20
168.610
10
248.060
20
168.822
10
247.848
20
169.079
10
247.691
20
169.373
10
247.595
20
169.692
10
247.562
20
170.024
0
LWPOLYLINE
8
INTERIOR_PROFILES
90
33
70
1
10
356.562
20
170.024
10
356.595
20
170.356
10
356.691
20
170.674
10
356.848
20
170.968
10
357.060
20
171.226
10
357.317
20
171.437
10
357.611
20
171.594
10
357.930
20
171.691
10
358.262
20
171.724
10
358.594
20
171.691
10
358.913
20
171.594
10
359.206
20
171.437
10
359.464
20
171.226
10
359.675
20
170.968
10
359.833
20
170.674
10
359.929
20
170.356
10
359.962
20
170.024
10
359.929
20
169.692
10
359.833
20
169.373
10
359.675
20
169.079
10
359.464
20
168.822
10
359.206
20
168.610
10
358.913
20
168.453
10
358.594
20
168.357
10
358.262
20
168.324
10
357.930
20
168.357
10
357.611
20
168.453
10
357.317
20
168.610
10
357.060
20
168.822
10
356.848
20
169.079
10
356.691
20
169.373
10
356.595
20
169.692
10
356.562
20
170.024
0
LWPOLYLINE
8
INTERIOR_PROFILES
90
33
70
1
10
97.562
20
170.024
10
97.595
20
170.356
10
97.691
20
170.674
10
97.848
20
170.968
10
98.060
20
171.226
10
98.317
20
171.437
10
98.611
20
171.594
10
98.930
20
171.691
10
99.262
20
171.724
10
99.594
20
171.691
10
99.913
20
171.594
10
100.206
20
171.437
10
100.464
20
171.226
10
100.675
20
170.968
10
100.833
20
170.674
10
100.929
20
170.356
10
100.962
20
170.024
10
100.929
20
169.692
10
100.833
20
169.373
10
100.675
20
169.079
10
100.464
20
168.822
10
100.206
20
168.610
10
99.913
20
168.453
10
99.594
20
168.357
10
99.262
20
168.324
10
98.930
20
168.357
10
98.611
20
168.453
10
98.317
20
168.610
10
98.060
20
168.822
10
97.848
20
169.079
10
97.691
20
169.373
10
97.595
20
169.692
10
97.562
20
170.024
0
LWPOLYLINE
8
INTERIOR_PROFILES
90
33
70
1
10
306.562
20
170.024
10
306.595
20
170.356
10
306.691
20
170.674
10
306.848
20
170.968
10
307.060
20
171.226
10
307.317
20
171.437
10
307.611
20
171.594
10
307.930
20
171.691
10
308.262
20
171.724
10
308.594
20
171.691
10
308.913
20
171.594
10
309.206
20
171.437
10
309.464
20
171.226
10
309.675
20
170.968
10
309.833
20
170.674
10
309.929
20
170.356
10
309.962
20
170.024
10
309.929
20
169.692
10
309.833
20
169.373
10
309.675
20
169.079
10
309.464
20
168.822
10
309.206
20
168.610
10
308.913
20
168.453
10
308.594
20
168.357
10
308.262
20
168.324
10
307.930
20
168.357
10
307.611
20
168.453
10
307.317
20
168.610
10
307.060
20
168.822
10
306.848
20
169.079
10
306.691
20
169.373
10
306.595
20
169.692
10
306.562
20
170.024
0
LWPOLYLINE
8
INTERIOR_PROFILES
90
33
70
1
10
397.562
20
170.024
10
397.595
20
170.356
10
397.691
20
170.674
10
397.848
20
170.968
10
398.060
20
171.226
10
398.317
20
171.437
10
398.611
20
171.594
10
398.930
20
171.691
10
399.262
20
171.724
10
399.594
20
171.691
10
399.913
20
171.594
10
400.206
20
171.437
10
400.464
20
171.226
10
400.675
20
170.968
10
400.833
20
170.674
10
400.929
20
170.356
10
400.962
20
170.024
10
400.929
20
169.692
10
400.833
20
169.373
10
400.675
20
169.079
10
400.464
20
168.822
10
400.206
20
168.610
10
399.913
20
168.453
10
399.594
20
168.357
10
399.262
20
168.324
10
398.930
20
168.357
10
398.611
20
168.453
10
398.317
20
168.610
10
398.060
20
168.822
10
397.848
20
169.079
10
397.691
20
169.373
10
397.595
20
169.692
10
397.562
20
170.024
0
LWPOLYLINE
8
INTERIOR_PROFILES
90
33
70
1
10
265.562
20
170.024
10
265.595
20
170.356
10
265.691
20
170.674
10
265.848
20
170.968
10
266.060
20
171.226
10
266.317
20
171.437
10
266.611
20
171.594
10
266.930
20
171.691
10
267.262
20
171.724
10
267.594
20
171.691
10
267.913
20
171.594
10
268.206
20
171.437
10
268.464
20
171.226
10
268.675
20
170.968
10
268.833
20
170.674
10
268.929
20
170.356
10
268.962
20
170.024
10
268.929
20
169.692
10
268.833
20
169.373
10
268.675
20
169.079
10
268.464
20
168.822
10
268.206
20
168.610
10
267.913
20
168.453
10
267.594
20
168.357
10
267.262
20
168.324
10
266.930
20
168.357
10
266.611
20
168.453
10
266.317
20
168.610
10
266.060
20
168.822
10
265.848
20
169.079
10
265.691
20
169.373
10
265.595
20
169.692
10
265.562
20
170.024
0
LWPOLYLINE
8
INTERIOR_PROFILES
90
33
70
1
10
147.562
20
170.024
10
147.595
20
170.356
10
147.691
20
170.674
10
147.848
20
170.968
10
148.060
20
171.226
10
148.317
20
171.437
10
148.611
20
171.594
10
148.930
20
171.691
10
149.262
20
171.724
10
149.594
20
171.691
10
149.913
20
171.594
10
150.206
20
171.437
10
150.464
20
171.226
10
150.675
20
170.968
10
150.833
20
170.674
10
150.929
20
170.356
10
150.962
20
170.024
10
150.929
20
169.692
10
150.833
20
169.373
10
150.675
20
169.079
10
150.464
20
168.822
10
150.206
20
168.610
10
149.913
20
168.453
10
149.594
20
168.357
10
149.262
20
168.324
10
148.930
20
168.357
10
148.611
20
168.453
10
148.317
20
168.610
10
148.060
20
168.822
10
147.848
20
169.079
10
147.691
20
169.373
10
147.595
20
169.692
10
147.562
20
170.024
0
LWPOLYLINE
8
INTERIOR_PROFILES
90
33
70
1
10
115.562
20
170.024
10
115.595
20
170.356
10
115.691
20
170.674
10
115.848
20
170.968
10
116.060
20
171.226
10
116.317
20
171.437
10
116.611
20
171.594
10
116.930
20
171.691
10
117.262
20
171.724
10
117.594
20
171.691
10
117.913
20
171.594
10
118.206
20
171.437
10
118.464
20
171.226
10
118.675
20
170.968
10
118.833
20
170.674
10
118.929
20
170.356
10
118.962
20
170.024
10
118.929
20
169.692
10
118.833
20
169.373
10
118.675
20
169.079
10
118.464
20
168.822
10
118.206
20
168.610
10
117.913
20
168.453
10
117.594
20
168.357
10
117.262
20
168.324
10
116.930
20
168.357
10
116.611
20
168.453
10
116.317
20
168.610
10
116.060
20
168.822
10
115.848
20
169.079
10
115.691
20
169.373
10
115.595
20
169.692
10
115.562
20
170.024
0
LWPOLYLINE
8
INTERIOR_PROFILES
90
33
70
1
10
215.562
20
170.024
10
215.595
20
170.356
10
215.691
20
170.674
10
215.848
20
170.968
10
216.060
20
171.226
10
216.317
20
171.437
10
216.611
20
171.594
10
216.930
20
171.691
10
217.262
20
171.724
10
217.594
20
171.691
10
217.913
20
171.594
10
218.206
20
171.437
10
218.464
20
171.226
10
218.675
20
170.968
10
218.833
20
170.674
10
218.929
20
170.356
10
218.962
20
170.024
10
218.929
20
169.692
10
218.833
20
169.373
10
218.675
20
169.079
10
218.464
20
168.822
10
218.206
20
168.610
10
217.913
20
168.453
10
217.594
20
168.357
10
217.262
20
168.324
10
216.930
20
168.357
10
216.611
20
168.453
10
216.317
20
168.610
10
216.060
20
168.822
10
215.848
20
169.079
10
215.691
20
169.373
10
215.595
20
169.692
10
215.562
20
170.024
0
LWPOLYLINE
8
INTERIOR_PROFILES
90
33
70
1
10
515.562
20
170.024
10
515.595
20
170.356
10
515.691
20
170.674
10
515.848
20
170.968
10
516.060
20
171.226
10
516.317
20
171.437
10
516.611
20
171.594
10
516.930
20
171.691
10
517.262
20
171.724
10
517.594
20
171.691
10
517.913
20
171.594
10
518.206
20
171.437
10
518.464
20
171.226
10
518.675
20
170.968
10
518.833
20
170.674
10
518.929
20
170.356
10
518.962
20
170.024
10
518.929
20
169.692
10
518.833
20
169.373
10
518.675
20
169.079
10
518.464
20
168.822
10
518.206
20
168.610
10
517.913
20
168.453
10
517.594
20
168.357
10
517.262
20
168.324
10
516.930
20
168.357
10
516.611
20
168.453
10
516.317
20
168.610
10
516.060
20
168.822
10
515.848
20
169.079
10
515.691
20
169.373
10
515.595
20
169.692
10
515.562
20
170.024
0
LWPOLYLINE
8
INTERIOR_PROFILES
90
33
70
1
10
565.562
20
170.024
10
565.595
20
170.356
10
565.691
20
170.674
10
565.848
20
170.968
10
566.060
20
171.226
10
566.317
20
171.437
10
566.611
20
171.594
10
566.930
20
171.691
10
567.262
20
171.724
10
567.594
20
171.691
10
567.913
20
171.594
10
568.206
20
171.437
10
568.464
20
171.226
10
568.675
20
170.968
10
568.833
20
170.674
10
568.929
20
170.356
10
568.962
20
170.024
10
568.929
20
169.692
10
568.833
20
169.373
10
568.675
20
169.079
10
568.464
20
168.822
10
568.206
20
168.610
10
567.913
20
168.453
10
567.594
20
168.357
10
567.262
20
168.324
10
566.930
20
168.357
10
566.611
20
168.453
10
566.317
20
168.610
10
566.060
20
168.822
10
565.848
20
169.079
10
565.691
20
169.373
10
565.595
20
169.692
10
565.562
20
170.024
0
LWPOLYLINE
8
INTERIOR_PROFILES
90
33
70
1
10
1047.562
20
170.024
10
1047.595
20
170.356
10
1047.691
20
170.674
10
1047.848
20
170.968
10
1048.060
20
171.226
10
1048.317
20
171.437
10
1048.611
20
171.594
10
1048.930
20
171.691
10
1049.262
20
171.724
10
1049.594
20
171.691
10
1049.913
20
171.594
10
1050.206
20
171.437
10
1050.464
20
171.226
10
1050.675
20
170.968
10
1050.833
20
170.674
10
1050.929
20
170.356
10
1050.962
20
170.024
10
1050.929
20
169.692
10
1050.833
20
169.373
10
1050.675
20
169.079
10
1050.464
20
168.822
10
1050.206
20
168.610
10
1049.913
20
168.453
10
1049.594
20
168.357
10
1049.262
20
168.324
10
1048.930
20
168.357
10
1048.611
20
168.453
10
1048.317
20
168.610
10
1048.060
20
168.822
10
1047.848
20
169.079
10
1047.691
20
169.373
10
1047.595
20
169.692
10
1047.562
20
170.024
0
LWPOLYLINE
8
INTERIOR_PROFILES
90
33
70
1
10
815.562
20
170.024
10
815.595
20
170.356
10
815.691
20
170.674
10
815.848
20
170.968
10
816.060
20
171.226
10
816.317
20
171.437
10
816.611
20
171.594
10
816.930
20
171.691
10
817.262
20
171.724
10
817.594
20
171.691
10
817.913
20
171.594
10
818.206
20
171.437
10
818.464
20
171.226
10
818.675
20
170.968
10
818.833
20
170.674
10
818.929
20
170.356
10
818.962
20
170.024
10
818.929
20
169.692
10
818.833
20
169.373
10
818.675
20
169.079
10
818.464
20
168.822
10
818.206
20
168.610
10
817.913
20
168.453
10
817.594
20
168.357
10
817.262
20
168.324
10
816.930
20
168.357
10
816.611
20
168.453
10
816.317
20
168.610
10
816.060
20
168.822
10
815.848
20
169.079
10
815.691
20
169.373
10
815.595
20
169.692
10
815.562
20
170.024
0
LWPOLYLINE
8
INTERIOR_PROFILES
90
33
70
1
10
1056.562
20
170.024
10
1056.595
20
170.356
10
1056.691
20
170.674
10
1056.848
20
170.968
10
1057.060
20
171.226
10
1057.317
20
171.437
10
1057.611
20
171.594
10
1057.930
20
171.691
10
1058.262
20
171.724
10
1058.594
20
171.691
10
1058.913
20
171.594
10
1059.206
20
171.437
10
1059.464
20
171.226
10
1059.675
20
170.968
10
1059.833
20
170.674
10
1059.929
20
170.356
10
1059.962
20
170.024
10
1059.929
20
169.692
10
1059.833
20
169.373
10
1059.675
20
169.079
10
1059.464
20
168.822
10
1059.206
20
168.610
10
1058.913
20
168.453
10
1058.594
20
168.357
10
1058.262
20
168.324
10
1057.930
20
168.357
10
1057.611
20
168.453
10
1057.317
20
168.610
10
1057.060
20
168.822
10
1056.848
20
169.079
10
1056.691
20
169.373
10
1056.595
20
169.692
10
1056.562
20
170.024
0
LWPOLYLINE
8
INTERIOR_PROFILES
90
33
70
1
10
1165.562
20
170.024
10
1165.595
20
170.356
10
1165.691
20
170.674
10
1165.848
20
170.968
10
1166.060
20
171.226
10
1166.317
20
171.437
10
1166.611
20
171.594
10
1166.930
20
171.691
10
1167.262
20
171.724
10
1167.594
20
171.691
10
1167.913
20
171.594
10
1168.206
20
171.437
10
1168.464
20
171.226
10
1168.675
20
170.968
10
1168.833
20
170.674
10
1168.929
20
170.356
10
1168.962
20
170.024
10
1168.929
20
169.692
10
1168.833
20
169.373
10
1168.675
20
169.079
10
1168.464
20
168.822
10
1168.206
20
168.610
10
1167.913
20
168.453
10
1167.594
20
168.357
10
1167.262
20
168.324
10
1166.930
20
168.357
10
1166.611
20
168.453
10
1166.317
20
168.610
10
1166.060
20
168.822
10
1165.848
20
169.079
10
1165.691
20
169.373
10
1165.595
20
169.692
10
1165.562
20
170.024
0
LWPOLYLINE
8
INTERIOR_PROFILES
90
33
70
1
10
1156.562
20
170.024
10
1156.595
20
170.356
10
1156.691
20
170.674
10
1156.848
20
170.968
10
1157.060
20
171.226
10
1157.317
20
171.437
10
1157.611
20
171.594
10
1157.930
20
171.691
10
1158.262
20
171.724
10
1158.594
20
171.691
10
1158.913
20
171.594
10
1159.206
20
171.437
10
1159.464
20
171.226
10
1159.675
20
170.968
10
1159.833
20
170.674
10
1159.929
20
170.356
10
1159.962
20
170.024
10
1159.929
20
169.692
10
1159.833
20
169.373
10
1159.675
20
169.079
10
1159.464
20
168.822
10
1159.206
20
168.610
10
1158.913
20
168.453
10
1158.594
20
168.357
10
1158.262
20
168.324
10
1157.930
20
168.357
10
1157.611
20
168.453
10
1157.317
20
168.610
10
1157.060
20
168.822
10
1156.848
20
169.079
10
1156.691
20
169.373
10
1156.595
20
169.692
10
1156.562
20
170.024
0
LWPOLYLINE
8
INTERIOR_PROFILES
90
33
70
1
10
1065.562
20
170.024
10
1065.595
20
170.356
10
1065.691
20
170.674
10
1065.848
20
170.968
10
1066.060
20
171.226
10
1066.317
20
171.437
10
1066.611
20
171.594
10
1066.930
20
171.691
10
1067.262
20
171.724
10
1067.594
20
171.691
10
1067.913
20
171.594
10
1068.206
20
171.437
10
1068.464
20
171.226
10
1068.675
20
170.968
10
1068.833
20
170.674
10
1068.929
20
170.356
10
1068.962
20
170.024
10
1068.929
20
169.692
10
1068.833
20
169.373
10
1068.675
20
169.079
10
1068.464
20
168.822
10
1068.206
20
168.610
10
1067.913
20
168.453
10
1067.594
20
168.357
10
1067.262
20
168.324
10
1066.930
20
168.357
10
1066.611
20
168.453
10
1066.317
20
168.610
10
1066.060
20
168.822
10
1065.848
20
169.079
10
1065.691
20
169.373
10
1065.595
20
169.692
10
1065.562
20
170.024
0
LWPOLYLINE
8
INTERIOR_PROFILES
90
33
70
1
10
1197.562
20
170.024
10
1197.595
20
170.356
10
1197.691
20
170.674
10
1197.848
20
170.968
10
1198.060
20
171.226
10
1198.317
20
171.437
10
1198.611
20
171.594
10
1198.930
20
171.691
10
1199.262
20
171.724
10
1199.594
20
171.691
10
1199.913
20
171.594
10
1200.206
20
171.437
10
1200.464
20
171.226
10
1200.675
20
170.968
10
1200.833
20
170.674
10
1200.929
20
170.356
10
1200.962
20
170.024
10
1200.929
20
169.692
10
1200.833
20
169.373
10
1200.675
20
169.079
10
1200.464
20
168.822
10
1200.206
20
168.610
10
1199.913
20
168.453
10
1199.594
20
168.357
10
1199.262
20
168.324
10
1198.930
20
168.357
10
1198.611
20
168.453
10
1198.317
20
168.610
10
1198.060
20
168.822
10
1197.848
20
169.079
10
1197.691
20
169.373
10
1197.595
20
169.692
10
1197.562
20
170.024
0
LWPOLYLINE
8
INTERIOR_PROFILES
90
33
70
1
10
1106.562
20
170.024
10
1106.595
20
170.356
10
1106.691
20
170.674
10
1106.848
20
170.968
10
1107.060
20
171.226
10
1107.317
20
171.437
10
1107.611
20
171.594
10
1107.930
20
171.691
10
1108.262
20
171.724
10
1108.594
20
171.691
10
1108.913
20
171.594
10
1109.206
20
171.437
10
1109.464
20
171.226
10
1109.675
20
170.968
10
1109.833
20
170.674
10
1109.929
20
170.356
10
1109.962
20
170.024
10
1109.929
20
169.692
10
1109.833
20
169.373
10
1109.675
20
169.079
10
1109.464
20
168.822
10
1109.206
20
168.610
10
1108.913
20
168.453
10
1108.594
20
168.357
10
1108.262
20
168.324
10
1107.930
20
168.357
10
1107.611
20
168.453
10
1107.317
20
168.610
10
1107.060
20
168.822
10
1106.848
20
169.079
10
1106.691
20
169.373
10
1106.595
20
169.692
10
1106.562
20
170.024
0
LWPOLYLINE
8
INTERIOR_PROFILES
90
33
70
1
10
547.562
20
170.024
10
547.595
20
170.356
10
547.691
20
170.674
10
547.848
20
170.968
10
548.060
20
171.226
10
548.317
20
171.437
10
548.611
20
171.594
10
548.930
20
171.691
10
549.262
20
171.724
10
549.594
20
171.691
10
549.913
20
171.594
10
550.206
20
171.437
10
550.464
20
171.226
10
550.675
20
170.968
10
550.833
20
170.674
10
550.929
20
170.356
10
550.962
20
170.024
10
550.929
20
169.692
10
550.833
20
169.373
10
550.675
20
169.079
10
550.464
20
168.822
10
550.206
20
168.610
10
549.913
20
168.453
10
549.594
20
168.357
10
549.262
20
168.324
10
548.930
20
168.357
10
548.611
20
168.453
10
548.317
20
168.610
10
548.060
20
168.822
10
547.848
20
169.079
10
547.691
20
169.373
10
547.595
20
169.692
10
547.562
20
170.024
0
LWPOLYLINE
8
INTERIOR_PROFILES
90
33
70
1
10
915.562
20
170.024
10
915.595
20
170.356
10
915.691
20
170.674
10
915.848
20
170.968
10
916.060
20
171.226
10
916.317
20
171.437
10
916.611
20
171.594
10
916.930
20
171.691
10
917.262
20
171.724
10
917.594
20
171.691
10
917.913
20
171.594
10
918.206
20
171.437
10
918.464
20
171.226
10
918.675
20
170.968
10
918.833
20
170.674
10
918.929
20
170.356
10
918.962
20
170.024
10
918.929
20
169.692
10
918.833
20
169.373
10
918.675
20
169.079
10
918.464
20
168.822
10
918.206
20
168.610
10
917.913
20
168.453
10
917.594
20
168.357
10
917.262
20
168.324
10
916.930
20
168.357
10
916.611
20
168.453
10
916.317
20
168.610
10
916.060
20
168.822
10
915.848
20
169.079
10
915.691
20
169.373
10
915.595
20
169.692
10
915.562
20
170.024
0
LWPOLYLINE
8
INTERIOR_PROFILES
90
33
70
1
10
1115.562
20
170.024
10
1115.595
20
170.356
10
1115.691
20
170.674
10
1115.848
20
170.968
10
1116.060
20
171.226
10
1116.317
20
171.437
10
1116.611
20
171.594
10
1116.930
20
171.691
10
1117.262
20
171.724
10
1117.594
20
171.691
10
1117.913
20
171.594
10
1118.206
20
171.437
10
1118.464
20
171.226
10
1118.675
20
170.968
10
1118.833
20
170.674
10
1118.929
20
170.356
10
1118.962
20
170.024
10
1118.929
20
169.692
10
1118.833
20
169.373
10
1118.675
20
169.079
10
1118.464
20
168.822
10
1118.206
20
168.610
10
1117.913
20
168.453
10
1117.594
20
168.357
10
1117.262
20
168.324
10
1116.930
20
168.357
10
1116.611
20
168.453
10
1116.317
20
168.610
10
1116.060
20
168.822
10
1115.848
20
169.079
10
1115.691
20
169.373
10
1115.595
20
169.692
10
1115.562
20
170.024
0
LWPOLYLINE
8
INTERIOR_PROFILES
90
33
70
1
10
1097.562
20
170.024
10
1097.595
20
170.356
10
1097.691
20
170.674
10
1097.848
20
170.968
10
1098.060
20
171.226
10
1098.317
20
171.437
10
1098.611
20
171.594
10
1098.930
20
171.691
10
1099.262
20
171.724
10
1099.594
20
171.691
10
1099.913
20
171.594
10
1100.206
20
171.437
10
1100.464
20
171.226
10
1100.675
20
170.968
10
1100.833
20
170.674
10
1100.929
20
170.356
10
1100.962
20
170.024
10
1100.929
20
169.692
10
1100.833
20
169.373
10
1100.675
20
169.079
10
1100.464
20
168.822
10
1100.206
20
168.610
10
1099.913
20
168.453
10
1099.594
20
168.357
10
1099.262
20
168.324
10
1098.930
20
168.357
10
1098.611
20
168.453
10
1098.317
20
168.610
10
1098.060
20
168.822
10
1097.848
20
169.079
10
1097.691
20
169.373
10
1097.595
20
169.692
10
1097.562
20
170.024
0
LWPOLYLINE
8
INTERIOR_PROFILES
90
33
70
1
10
41.562
20
170.024
10
41.595
20
170.356
10
41.691
20
170.674
10
41.848
20
170.968
10
42.060
20
171.226
10
42.317
20
171.437
10
42.611
20
171.594
10
42.930
20
171.691
10
43.262
20
171.724
10
43.594
20
171.691
10
43.913
20
171.594
10
44.206
20
171.437
10
44.464
20
171.226
10
44.675
20
170.968
10
44.833
20
170.674
10
44.929
20
170.356
10
44.962
20
170.024
10
44.929
20
169.692
10
44.833
20
169.373
10
44.675
20
169.079
10
44.464
20
168.822
10
44.206
20
168.610
10
43.913
20
168.453
10
43.594
20
168.357
10
43.262
20
168.324
10
42.930
20
168.357
10
42.611
20
168.453
10
42.317
20
168.610
10
42.060
20
168.822
10
41.848
20
169.079
10
41.691
20
169.373
10
41.595
20
169.692
10
41.562
20
170.024
0
LWPOLYLINE
8
INTERIOR_PROFILES
90
33
70
1
10
1015.562
20
170.024
10
1015.595
20
170.356
10
1015.691
20
170.674
10
1015.848
20
170.968
10
1016.060
20
171.226
10
1016.317
20
171.437
10
1016.611
20
171.594
10
1016.930
20
171.691
10
1017.262
20
171.724
10
1017.594
20
171.691
10
1017.913
20
171.594
10
1018.206
20
171.437
10
1018.464
20
171.226
10
1018.675
20
170.968
10
1018.833
20
170.674
10
1018.929
20
170.356
10
1018.962
20
170.024
10
1018.929
20
169.692
10
1018.833
20
169.373
10
1018.675
20
169.079
10
1018.464
20
168.822
10
1018.206
20
168.610
10
1017.913
20
168.453
10
1017.594
20
168.357
10
1017.262
20
168.324
10
1016.930
20
168.357
10
1016.611
20
168.453
10
1016.317
20
168.610
10
1016.060
20
168.822
10
1015.848
20
169.079
10
1015.691
20
169.373
10
1015.595
20
169.692
10
1015.562
20
170.024
0
LWPOLYLINE
8
INTERIOR_PROFILES
90
33
70
1
10
15.562
20
170.024
10
15.595
20
170.356
10
15.691
20
170.674
10
15.848
20
170.968
10
16.060
20
171.226
10
16.317
20
171.437
10
16.611
20
171.594
10
16.930
20
171.691
10
17.262
20
171.724
10
17.594
20
171.691
10
17.913
20
171.594
10
18.206
20
171.437
10
18.464
20
171.226
10
18.675
20
170.968
10
18.833
20
170.674
10
18.929
20
170.356
10
18.962
20
170.024
10
18.929
20
169.692
10
18.833
20
169.373
10
18.675
20
169.079
10
18.464
20
168.822
10
18.206
20
168.610
10
17.913
20
168.453
10
17.594
20
168.357
10
17.262
20
168.324
10
16.930
20
168.357
10
16.611
20
168.453
10
16.317
20
168.610
10
16.060
20
168.822
10
15.848
20
169.079
10
15.691
20
169.373
10
15.595
20
169.692
10
15.562
20
170.024
0
LWPOLYLINE
8
INTERIOR_PROFILES
90
33
70
1
10
797.562
20
170.024
10
797.595
20
170.356
10
797.691
20
170.674
10
797.848
20
170.968
10
798.060
20
171.226
10
798.317
20
171.437
10
798.611
20
171.594
10
798.930
20
171.691
10
799.262
20
171.724
10
799.594
20
171.691
10
799.913
20
171.594
10
800.206
20
171.437
10
800.464
20
171.226
10
800.675
20
170.968
10
800.833
20
170.674
10
800.929
20
170.356
10
800.962
20
170.024
10
800.929
20
169.692
10
800.833
20
169.373
10
800.675
20
169.079
10
800.464
20
168.822
10
800.206
20
168.610
10
799.913
20
168.453
10
799.594
20
168.357
10
799.262
20
168.324
10
798.930
20
168.357
10
798.611
20
168.453
10
798.317
20
168.610
10
798.060
20
168.822
10
797.848
20
169.079
10
797.691
20
169.373
10
797.595
20
169.692
10
797.562
20
170.024
0
LWPOLYLINE
8
INTERIOR_PROFILES
90
33
70
1
10
706.562
20
170.024
10
706.595
20
170.356
10
706.691
20
170.674
10
706.848
20
170.968
10
707.060
20
171.226
10
707.317
20
171.437
10
707.611
20
171.594
10
707.930
20
171.691
10
708.262
20
171.724
10
708.594
20
171.691
10
708.913
20
171.594
10
709.206
20
171.437
10
709.464
20
171.226
10
709.675
20
170.968
10
709.833
20
170.674
10
709.929
20
170.356
10
709.962
20
170.024
10
709.929
20
169.692
10
709.833
20
169.373
10
709.675
20
169.079
10
709.464
20
168.822
10
709.206
20
168.610
10
708.913
20
168.453
10
708.594
20
168.357
10
708.262
20
168.324
10
707.930
20
168.357
10
707.611
20
168.453
10
707.317
20
168.610
10
707.060
20
168.822
10
706.848
20
169.079
10
706.691
20
169.373
10
706.595
20
169.692
10
706.562
20
170.024
0
LWPOLYLINE
8
INTERIOR_PROFILES
90
33
70
1
10
1125.562
20
170.024
10
1125.595
20
170.356
10
1125.691
20
170.674
10
1125.848
20
170.968
10
1126.060
20
171.226
10
1126.317
20
171.437
10
1126.611
20
171.594
10
1126.930
20
171.691
10
1127.262
20
171.724
10
1127.594
20
171.691
10
1127.913
20
171.594
10
1128.206
20
171.437
10
1128.464
20
171.226
10
1128.675
20
170.968
10
1128.833
20
170.674
10
1128.929
20
170.356
10
1128.962
20
170.024
10
1128.929
20
169.692
10
1128.833
20
169.373
10
1128.675
20
169.079
10
1128.464
20
168.822
10
1128.206
20
168.610
10
1127.913
20
168.453
10
1127.594
20
168.357
10
1127.262
20
168.324
10
1126.930
20
168.357
10
1126.611
20
168.453
10
1126.317
20
168.610
10
1126.060
20
168.822
10
1125.848
20
169.079
10
1125.691
20
169.373
10
1125.595
20
169.692
10
1125.562
20
170.024
0
LWPOLYLINE
8
INTERIOR_PROFILES
90
33
70
1
10
1171.562
20
170.024
10
1171.595
20
170.356
10
1171.691
20
170.674
10
1171.848
20
170.968
10
1172.060
20
171.226
10
1172.317
20
171.437
10
1172.611
20
171.594
10
1172.930
20
171.691
10
1173.262
20
171.724
10
1173.594
20
171.691
10
1173.913
20
171.594
10
1174.206
20
171.437
10
1174.464
20
171.226
10
1174.675
20
170.968
10
1174.833
20
170.674
10
1174.929
20
170.356
10
1174.962
20
170.024
10
1174.929
20
169.692
10
1174.833
20
169.373
10
1174.675
20
169.079
10
1174.464
20
168.822
10
1174.206
20
168.610
10
1173.913
20
168.453
10
1173.594
20
168.357
10
1173.262
20
168.324
10
1172.930
20
168.357
10
1172.611
20
168.453
10
1172.317
20
168.610
10
1172.060
20
168.822
10
1171.848
20
169.079
10
1171.691
20
169.373
10
1171.595
20
169.692
10
1171.562
20
170.024
0
LWPOLYLINE
8
INTERIOR_PROFILES
90
33
70
1
10
87.562
20
170.024
10
87.595
20
170.356
10
87.691
20
170.674
10
87.848
20
170.968
10
88.060
20
171.226
10
88.317
20
171.437
10
88.611
20
171.594
10
88.930
20
171.691
10
89.262
20
171.724
10
89.594
20
171.691
10
89.913
20
171.594
10
90.206
20
171.437
10
90.464
20
171.226
10
90.675
20
170.968
10
90.833
20
170.674
10
90.929
20
170.356
10
90.962
20
170.024
10
90.929
20
169.692
10
90.833
20
169.373
10
90.675
20
169.079
10
90.464
20
168.822
10
90.206
20
168.610
10
89.913
20
168.453
10
89.594
20
168.357
10
89.262
20
168.324
10
88.930
20
168.357
10
88.611
20
168.453
10
88.317
20
168.610
10
88.060
20
168.822
10
87.848
20
169.079
10
87.691
20
169.373
10
87.595
20
169.692
10
87.562
20
170.024
0
ENDSEC
0
EOF