0
SECTION
2
HEADER
9
$INSUNITS
70
4
9
$ACADVER
1
AC1014
9
$HANDSEED
5
FFFF
0
ENDSEC
0
SECTION
2
TABLES
0
TABLE
2
VPORT
5
8
100
AcDbSymbolTable
0
ENDTAB
0
TABLE
2
LTYPE
5
5
100
AcDbSymbolTable
0
LTYPE
5
14
100
AcDbSymbolTableRecord
100
AcDbLinetypeTableRecord
2
BYBLOCK
70
0
0
LTYPE
5
15
100
AcDbSymbolTableRecord
100
AcDbLinetypeTableRecord
2
BYLAYER
70
0
0
LTYPE
5
16
100
AcDbSymbolTableRecord
100
AcDbLinetypeTableRecord
2
DASHED
70
0
3
Dashed __ __ __ __ __ __ __ __ __ __ __ __ __ _
72
65
73
2
40
0.75
49
0.5
74
0
49
-0.25
74
0
0
ENDTAB
0
TABLE
2
LAYER
5
2
100
AcDbSymbolTable
70
2
0
LAYER
5
50
100
AcDbSymbolTableRecord
100
AcDbLayerTableRecord
2
0
70
0
62
7
6
CONTINUOUS
0
ENDTAB
0
TABLE
2
STYLE
5
3
100
AcDbSymbolTable
70
1
0
STYLE
5
11
100
AcDbSymbolTableRecord
100
AcDbTextStyleTableRecord
2
STANDARD
70
0
0
ENDTAB
0
TABLE
2
VIEW
5
6
100
AcDbSymbolTable
70
0
0
ENDTAB
0
TABLE
2
UCS
5
7
100
AcDbSymbolTable
70
0
0
ENDTAB
0
TABLE
2
APPID
5
9
100
AcDbSymbolTable
70
2
0
APPID
5
12
100
AcDbSymbolTableRecord
100
AcDbRegAppTableRecord
2
ACAD
70
0
0
ENDTAB
0
TABLE
2
DIMSTYLE
5
A
100
AcDbSymbolTable
70
1
0
ENDTAB
0
TABLE
2
BLOCK_RECORD
5
1
100
AcDbSymbolTable
70
1
0
BLOCK_RECORD
5
1F
100
AcDbSymbolTableRecord
100
AcDbBlockTableRecord
2
*MODEL_SPACE
0
BLOCK_RECORD
5
1B
100
AcDbSymbolTableRecord
100
AcDbBlockTableRecord
2
*PAPER_SPACE
0
ENDTAB
0
ENDSEC
0
SECTION
2
BLOCKS
0
BLOCK
5
20
100
AcDbEntity
100
AcDbBlockBegin
2
*MODEL_SPACE
0
ENDBLK
5
21
100
AcDbEntity
100
AcDbBlockEnd
0
BLOCK
5
1C
100
AcDbEntity
100
AcDbBlockBegin
2
*PAPER_SPACE
0
ENDBLK
5
1D
100
AcDbEntity
100
AcDbBlockEnd
0
ENDSEC
0
SECTION
2
ENTITIES
0
LINE
5
100
100
AcDbEntity
8
OUTER_PROFILES
100
AcDbLine
10
10.000000000756017
20
90.785840133142585
30
0
11
10.00000000074408
21
32.261946710584617
31
0
0
ELLIPSE
5
101
100
AcDbEntity
8
OUTER_PROFILES
100
AcDbEllipse
10
-1.999999999255806
20
32.261946710584589
30
0
11
9.5828288873192082e-15
21
-16
31
0.0
40
0.75000000000000011
41
0.16645738084223272
42
1.5707963267948979
0
ARC
5
102
100
AcDbEntity
8
OUTER_PROFILES
100
AcDbCircle
10
-0.54449999999974352
20
14.000138673152524
30
0
40
2.5444999999999993
210
0
220
0
230
-1
100
AcDbArc
50
0
51
77.373289042746492
0
LINE
5
103
100
AcDbEntity
8
OUTER_PROFILES
100
AcDbLine
10
-2.0000000000002558
20
14.000138673154376
30
0
11
-2.0000000000001705
21
2.0000000000000018
31
0
0
ARC
5
104
100
AcDbEntity
8
OUTER_PROFILES
100
AcDbCircle
10
1.4210854715202004e-13
20
1.9999999999999929
30
0
40
2
210
0
220
-0
230
-1
100
AcDbArc
50
-90.000000000004079
51
0
0
LINE
5
105
100
AcDbEntity
8
OUTER_PROFILES
100
AcDbLine
10
8.3266726846883585e-16
20
-7.2164496600635175e-15
30
0
11
691.99999999999977
21
1.6653345369377348e-15
31
0
0
ARC
5
106
100
AcDbEntity
8
OUTER_PROFILES
100
AcDbCircle
10
-691.99999999999955
20
2.0000000000000018
30
0
40
2.0000000000000284
210
0
220
0
230
-1
100
AcDbArc
50
180
51
269.99999999999346
0
LINE
5
107
100
AcDbEntity
8
OUTER_PROFILES
100
AcDbLine
10
693.99999999999966
20
2.0000000000000333
30
0
11
693.99999999999955
21
14.00013867390177
31
0
0
ARC
5
108
100
AcDbEntity
8
OUTER_PROFILES
100
AcDbCircle
10
-691.45549999999957
20
14.000138673899819
30
0
40
2.5445000000000007
210
0
220
0
230
-1
100
AcDbArc
50
102.62671097380708
51
180
0
ELLIPSE
5
109
100
AcDbEntity
8
OUTER_PROFILES
100
AcDbEllipse
10
694.00000000259126
20
32.261946710584589
30
0
11
-9.7633216740158471e-15
21
-16
31
0.0
40
0.75000000000000011
41
4.7123889803846897
42
6.116727926116063
0
LINE
5
110
100
AcDbEntity
8
OUTER_PROFILES
100
AcDbLine
10
682.00000000259126
20
32.261946710584581
30
0
11
682.00000000260297
21
90.785840103116584
31
0
0
ELLIPSE
5
111
100
AcDbEntity
8
OUTER_PROFILES
100
AcDbEllipse
10
694.00000000260297
20
90.785840102580408
30
0
11
7.1489902677890059e-10
21
16
31
0.0
40
0.75000000000000011
41
0.16645738097756091
42
1.5707963267948966
0
ARC
5
112
100
AcDbEntity
8
OUTER_PROFILES
100
AcDbCircle
10
-691.45550000212324
20
109.04764813966915
30
0
40
2.5445000000000562
210
0
220
-0
230
-1
100
AcDbArc
50
180
51
257.37328903518329
0
LINE
5
113
100
AcDbEntity
8
OUTER_PROFILES
100
AcDbLine
10
694.00000000212333
20
109.04764813955535
30
0
11
694.00000000395505
21
121.0477868131651
31
0
0
ARC
5
114
100
AcDbEntity
8
OUTER_PROFILES
100
AcDbCircle
10
-692.00000000395505
20
121.04778681325448
30
0
40
1.9999999999999929
210
0
220
0
230
-1
100
AcDbArc
50
90.000000002556661
51
180
0
LINE
5
115
100
AcDbEntity
8
OUTER_PROFILES
100
AcDbLine
10
692.0000000040443
20
123.04778681325446
30
0
11
499.00000000312093
21
123.04778682187803
31
0
0
ARC
5
116
100
AcDbEntity
8
OUTER_PROFILES
100
AcDbCircle
10
-499.00000000303157
20
121.04778682187805
30
0
40
2.0000000000000284
210
0
220
0
230
-1
100
AcDbArc
50
0
51
90.000000002559915
0
LINE
5
117
100
AcDbEntity
8
OUTER_PROFILES
100
AcDbLine
10
497.00000000303157
20
121.04778682196738
30
0
11
497.00000000155597
21
88.023893400798073
31
0
0
LINE
5
118
100
AcDbEntity
8
OUTER_PROFILES
100
AcDbLine
10
497.00000000155597
20
88.023893400798073
30
0
11
496.00000000155603
21
88.023893400842752
31
0
0
LINE
5
119
100
AcDbEntity
8
OUTER_PROFILES
100
AcDbLine
10
496.00000000155603
20
88.023893400842752
30
0
11
496.00000000166773
21
120.78584012921337
31
0
0
ARC
5
120
100
AcDbEntity
8
OUTER_PROFILES
100
AcDbCircle
10
-494.00000000166767
20
120.78584012921337
30
0
40
1.9999999999999929
210
0
220
0
230
-1
100
AcDbArc
50
90
51
180
0
LINE
5
121
100
AcDbEntity
8
OUTER_PROFILES
100
AcDbLine
10
494.00000000166767
20
122.78584012921335
30
0
11
198.00000000166776
21
122.78584012921335
31
0
0
ARC
5
122
100
AcDbEntity
8
OUTER_PROFILES
100
AcDbCircle
10
-198.00000000166776
20
120.78584012921337
30
0
40
1.9999999999999929
210
0
220
0
230
-1
100
AcDbArc
50
0
51
90
0
LINE
5
123
100
AcDbEntity
8
OUTER_PROFILES
100
AcDbLine
10
196.00000000166776
20
120.78584012921337
30
0
11
196.00000000155603
21
88.023893414247297
31
0
0
LINE
5
124
100
AcDbEntity
8
OUTER_PROFILES
100
AcDbLine
10
196.00000000155603
20
88.023893414247297
30
0
11
195.00000000155603
21
88.023893414291976
31
0
0
LINE
5
125
100
AcDbEntity
8
OUTER_PROFILES
100
AcDbLine
10
195.00000000155603
20
88.023893414291976
30
0
11
195.00000000303163
21
121.04778683546128
31
0
0
ARC
5
126
100
AcDbEntity
8
OUTER_PROFILES
100
AcDbCircle
10
-193.00000000303163
20
121.04778683555062
30
0
40
1.9999999999999929
210
0
220
0
230
-1
100
AcDbArc
50
90.000000002558281
51
180
0
LINE
5
127
100
AcDbEntity
8
OUTER_PROFILES
100
AcDbLine
10
193.00000000312093
20
123.04778683555062
30
0
11
4.0445513604936423e-09
21
123.0477868441742
31
0
0
ARC
5
128
100
AcDbEntity
8
OUTER_PROFILES
100
AcDbCircle
10
-3.9551650843350217e-09
20
121.0477868441742
30
0
40
1.9999999999999996
210
0
220
0
230
-1
100
AcDbArc
50
0
51
90.000000002560725
0
LINE
5
129
100
AcDbEntity
8
OUTER_PROFILES
100
AcDbLine
10
-1.9999999960448345
20
121.04778684426356
30
0
11
-1.9999999978768708
21
109.04764817081977
31
0
0
ARC
5
130
100
AcDbEntity
8
OUTER_PROFILES
100
AcDbCircle
10
-0.54450000212312943
20
109.04764817070692
30
0
40
2.5444999999999918
210
-0
220
0
230
-1
100
AcDbArc
50
-77.373289033754773
51
0
0
ELLIPSE
5
131
100
AcDbEntity
8
OUTER_PROFILES
100
AcDbEllipse
10
-1.9999999992441531
20
90.785840133678803
30
0
11
7.1491837293366307e-10
21
16
31
0.0
40
0.75000000000000011
41
4.7123889803846879
42
6.1167279262514125
0
CIRCLE
5
132
100
AcDbEntity
8
INTERIOR_PROFILES
100
AcDbCircle
10
-687.00000000166767
20
3.0000000025404638
30
0
40
1.7000000000000171
210
0
220
0
230
-1
0
CIRCLE
5
133
100
AcDbEntity
8
INTERIOR_PROFILES
100
AcDbCircle
10
-71.000000001947399
20
96.785840130417029
30
0
40
1.7000000000000171
210
0
220
0
230
-1
0
CIRCLE
5
134
100
AcDbEntity
8
INTERIOR_PROFILES
100
AcDbCircle
10
-621.00000000194746
20
96.785840105842169
30
0
40
1.7000000000000171
210
0
220
0
230
-1
0
CIRCLE
5
135
100
AcDbEntity
8
INTERIOR_PROFILES
100
AcDbCircle
10
-687.00000000356783
20
120.04778678715768
30
0
40
1.7000000000000171
210
0
220
0
230
-1
0
CIRCLE
5
136
100
AcDbEntity
8
INTERIOR_PROFILES
100
AcDbCircle
10
-5.0000000016677859
20
3.0000000025404727
30
0
40
1.7000000000000004
210
0
220
0
230
-1
0
CIRCLE
5
137
100
AcDbEntity
8
INTERIOR_PROFILES
100
AcDbCircle
10
-346.00000000166773
20
26.261946710584581
30
0
40
1.7000000000000171
210
0
220
0
230
-1
0
CIRCLE
5
138
100
AcDbEntity
8
INTERIOR_PROFILES
100
AcDbCircle
10
-71.000000001667729
20
26.261946710584581
30
0
40
1.7000000000000171
210
0
220
0
230
-1
0
CIRCLE
5
139
100
AcDbEntity
8
INTERIOR_PROFILES
100
AcDbCircle
10
-5.0000000035677772
20
120.0477868481036
30
0
40
1.7000000000000004
210
0
220
0
230
-1
0
CIRCLE
5
140
100
AcDbEntity
8
INTERIOR_PROFILES
100
AcDbCircle
10
-621.00000000166779
20
26.261946710584581
30
0
40
1.7000000000000171
210
0
220
0
230
-1
0
CIRCLE
5
141
100
AcDbEntity
8
INTERIOR_PROFILES
100
AcDbCircle
10
-28.68625000166773
20
41.927903594496357
30
0
40
1.6999999999999993
210
0
220
0
230
-1
0
CIRCLE
5
142
100
AcDbEntity
8
INTERIOR_PROFILES
100
AcDbCircle
10
-17.372500001667674
20
61.523893418628731
30
0
40
1.6999999999999993
210
0
220
0
230
-1
0
CIRCLE
5
143
100
AcDbEntity
8
INTERIOR_PROFILES
100
AcDbCircle
10
-62.627500001667755
20
61.523893418628731
30
0
40
1.6999999999999993
210
0
220
0
230
-1
0
CIRCLE
5
144
100
AcDbEntity
8
INTERIOR_PROFILES
100
AcDbCircle
10
-51.313750001667771
20
41.927903594496357
30
0
40
1.6999999999999993
210
0
220
0
230
-1
0
CIRCLE
5
145
100
AcDbEntity
8
INTERIOR_PROFILES
100
AcDbCircle
10
-40.000000001667786
20
61.523893418628731
30
0
40
1.6999999999999993
210
0
220
0
230
-1
0
CIRCLE
5
146
100
AcDbEntity
8
INTERIOR_PROFILES
100
AcDbCircle
10
-652.00000000166767
20
84.151393418628743
30
0
40
1.7000000000000171
210
0
220
0
230
-1
0
CIRCLE
5
147
100
AcDbEntity
8
INTERIOR_PROFILES
100
AcDbCircle
10
-629.37250000166773
20
61.523893418628731
30
0
40
1.7000000000000171
210
0
220
0
230
-1
0
CIRCLE
5
148
100
AcDbEntity
8
INTERIOR_PROFILES
100
AcDbCircle
10
-674.62750000166784
20
61.523893418628731
30
0
40
1.7000000000000171
210
0
220
0
230
-1
0
CIRCLE
5
149
100
AcDbEntity
8
INTERIOR_PROFILES
100
AcDbCircle
10
-663.3137500016677
20
41.927903594496371
30
0
40
1.7000000000000171
210
0
220
0
230
-1
0
CIRCLE
5
150
100
AcDbEntity
8
INTERIOR_PROFILES
100
AcDbCircle
10
-640.68625000166764
20
81.119883242761119
30
0
40
1.7000000000000171
210
0
220
0
230
-1
0
CIRCLE
5
151
100
AcDbEntity
8
INTERIOR_PROFILES
100
AcDbCircle
10
-40.000000001667786
20
38.89639341862874
30
0
40
1.6999999999999993
210
0
220
0
230
-1
0
CIRCLE
5
152
100
AcDbEntity
8
INTERIOR_PROFILES
100
AcDbCircle
10
-28.68625000166773
20
81.119883242761119
30
0
40
1.6999999999999993
210
0
220
0
230
-1
0
CIRCLE
5
153
100
AcDbEntity
8
INTERIOR_PROFILES
100
AcDbCircle
10
-640.68625000166776
20
41.927903594496357
30
0
40
1.7000000000000171
210
0
220
0
230
-1
0
CIRCLE
5
154
100
AcDbEntity
8
INTERIOR_PROFILES
100
AcDbCircle
10
-40.000000001667786
20
84.151393418628743
30
0
40
1.6999999999999993
210
0
220
0
230
-1
0
CIRCLE
5
155
100
AcDbEntity
8
INTERIOR_PROFILES
100
AcDbCircle
10
-51.3137500016677
20
81.119883242761119
30
0
40
1.6999999999999993
210
0
220
0
230
-1
0
CIRCLE
5
156
100
AcDbEntity
8
INTERIOR_PROFILES
100
AcDbCircle
10
-652.00000000166767
20
38.896393418628755
30
0
40
1.7000000000000171
210
0
220
0
230
-1
0
CIRCLE
5
157
100
AcDbEntity
8
INTERIOR_PROFILES
100
AcDbCircle
10
-663.31375000166759
20
81.119883242761119
30
0
40
1.7000000000000171
210
0
220
0
230
-1
0
LINE
5
158
100
AcDbEntity
8
BEND
100
AcDbLine
10
195.00000000244489
20
107.91681348016887
30
-3.8789102680388054e-13
11
-1.7349063180755309
21
107.91681348895932
31
-1.5436115414953193e-08
0
LINE
5
159
100
AcDbEntity
8
BEND
100
AcDbLine
10
693.73490632230278
20
107.91681345788459
30
1.5435240200274521e-08
11
497.00000000244478
21
107.91681346667502
31
-2.6274115788076458e-13
0
LINE
5
160
100
AcDbEntity
8
BEND
100
AcDbLine
10
195.00000000162891
20
89.654866769584231
30
-2.5718914837269491e-13
11
10.000000001860769
21
89.654866777850373
31
-2.6479559350652665e-13
0
LINE
5
161
100
AcDbEntity
8
BEND
100
AcDbLine
10
496.00000000166773
20
119.65486677392107
30
-2.4208768066990381e-13
11
196.00000000166773
21
119.65486677392107
31
-2.4561708588352132e-13
0
LINE
5
162
100
AcDbEntity
8
BEND
100
AcDbLine
10
-1.7349063200023807
20
15.130973355292287
30
-2.9818153143267229e-13
11
693.7349063203726
21
15.130973355292287
31
-3.0088147162285846e-13
0
LINE
5
163
100
AcDbEntity
8
BEND
100
AcDbLine
10
10.000000000744365
20
33.392920065876936
30
-2.4773485882280648e-13
11
682.00000000259126
21
33.392920065876936
31
-2.4433219384304225e-13
0
LINE
5
164
100
AcDbEntity
8
BEND
100
AcDbLine
10
682.00000000384807
20
89.654866747824258
30
-2.5112840717576475e-13
11
497.00000000162891
21
89.654866756090399
31
-2.5317136601365296e-13
0
LINE
5
165
100
AcDbEntity
8
BEND_EXTENT
100
AcDbLine
10
692.6211348736158
20
106.78584010264201
30
-2.6645352590444264e-13
11
497.00000000239424
21
106.78584011138271
31
-2.7533531010302409e-13
0
LINE
5
166
100
AcDbEntity
8
BEND_EXTENT
100
AcDbLine
10
497.00000000167933
20
90.785840111382726
30
-2.6645352590602284e-13
11
682.00000000260297
21
90.785840103116584
31
2.6096547145471053e-08
0
LINE
5
167
100
AcDbEntity
8
BEND_EXTENT
100
AcDbLine
10
497.00000000249537
20
109.04778682196738
30
-2.7311486405377377e-13
11
694.0000000034189
21
109.04778681316508
31
-2.6201263380593086e-13
0
LINE
5
168
100
AcDbEntity
8
BEND_EXTENT
100
AcDbLine
10
195.00000000239424
20
106.7858401248765
30
-3.7747582837097803e-13
11
-0.62113486924801009
21
106.7858401336172
31
-3.7747582837255827e-13
0
LINE
5
169
100
AcDbEntity
8
BEND_EXTENT
100
AcDbLine
10
-1.9999999965810389
20
109.04778684426356
30
-4.0412118096357314e-13
11
195.00000000249548
21
109.04778683546125
31
-3.907985046664799e-13
0
LINE
5
170
100
AcDbEntity
8
BEND_EXTENT
100
AcDbLine
10
10.000000000744365
20
34.523893421169234
30
-2.4868995751475022e-13
11
682.00000000259115
21
34.523893421169234
31
-2.531308496071776e-13
0
LINE
5
171
100
AcDbEntity
8
BEND_EXTENT
100
AcDbLine
10
682.00000000259115
20
32.261946710584589
30
2.5402568937238415e-09
11
10.00000000074408
21
32.261946710584624
31
2.5402568937238357e-09
0
LINE
5
172
100
AcDbEntity
8
BEND_EXTENT
100
AcDbLine
10
682.00000000259115
20
88.523893392531932
30
-2.531308496071776e-13
11
497.00000000157831
21
88.523893400798073
31
-2.4868995751034891e-13
0
LINE
5
173
100
AcDbEntity
8
BEND_EXTENT
100
AcDbLine
10
496.00000000166773
20
118.52389341862875
30
-2.4868995751035799e-13
11
196.00000000166773
21
118.52389341862873
31
-2.4868995751306925e-13
0
LINE
5
174
100
AcDbEntity
8
BEND_EXTENT
100
AcDbLine
10
195.0000000015784
20
88.52389341429199
30
-2.5313084961157891e-13
11
10.000000000744365
21
88.523893422558103
31
-2.5313084961325085e-13
0
LINE
5
175
100
AcDbEntity
8
BEND_EXTENT
100
AcDbLine
10
-0.62113487070718065
20
16.261946710584571
30
-2.3536728122053818e-13
11
692.62113487215652
21
16.261946710584571
31
-2.3536728121493826e-13
0
LINE
5
176
100
AcDbEntity
8
BEND_EXTENT
100
AcDbLine
10
693.99999999999977
20
13.999999999999995
30
-2.0428103652542272e-13
11
-2.0000000000001705
21
14.000000000000004
31
-2.2204460492504746e-13
0
LINE
5
177
100
AcDbEntity
8
BEND_EXTENT
100
AcDbLine
10
196.00000000166773
20
120.78584012921337
30
-2.3980817331745054e-13
11
496.00000000166773
21
120.78584012921337
31
-2.3980817331502716e-13
0
LINE
5
178
100
AcDbEntity
8
BEND_EXTENT
100
AcDbLine
10
10.000000000756017
20
90.785840133142585
30
-3.9296299547686431e-09
11
195.00000000167944
21
90.785840124876501
31
-2.5757174171148535e-13
0
ENDSEC
0
SECTION
2
OBJECTS
0
DICTIONARY
5
C
100
AcDbDictionary
3
ACAD_GROUP
350
D
3
ACAD_MLINESTYLE
350
17
0
DICTIONARY
5
D
100
AcDbDictionary
0
DICTIONARY
5
1A
330
C
100
AcDbDictionary
0
DICTIONARY
5
17
100
AcDbDictionary
0
ENDSEC
0
EOF
