0
SECTION
2
HEADER
9
$INSUNITS
70
4
9
$ACADVER
1
AC1014
9
$HANDSEED
5
FFFF
0
ENDSEC
0
SECTION
2
TABLES
0
TABLE
2
VPORT
5
8
100
AcDbSymbolTable
0
ENDTAB
0
TABLE
2
LTYPE
5
5
100
AcDbSymbolTable
0
LTYPE
5
14
100
AcDbSymbolTableRecord
100
AcDbLinetypeTableRecord
2
BYBLOCK
70
0
0
LTYPE
5
15
100
AcDbSymbolTableRecord
100
AcDbLinetypeTableRecord
2
BYLAYER
70
0
0
LTYPE
5
16
100
AcDbSymbolTableRecord
100
AcDbLinetypeTableRecord
2
DASHED
70
0
3
Dashed __ __ __ __ __ __ __ __ __ __ __ __ __ _
72
65
73
2
40
0.75
49
0.5
74
0
49
-0.25
74
0
0
ENDTAB
0
TABLE
2
LAYER
5
2
100
AcDbSymbolTable
70
2
0
LAYER
5
50
100
AcDbSymbolTableRecord
100
AcDbLayerTableRecord
2
0
70
0
62
7
6
CONTINUOUS
0
ENDTAB
0
TABLE
2
STYLE
5
3
100
AcDbSymbolTable
70
1
0
STYLE
5
11
100
AcDbSymbolTableRecord
100
AcDbTextStyleTableRecord
2
STANDARD
70
0
0
ENDTAB
0
TABLE
2
VIEW
5
6
100
AcDbSymbolTable
70
0
0
ENDTAB
0
TABLE
2
UCS
5
7
100
AcDbSymbolTable
70
0
0
ENDTAB
0
TABLE
2
APPID
5
9
100
AcDbSymbolTable
70
2
0
APPID
5
12
100
AcDbSymbolTableRecord
100
AcDbRegAppTableRecord
2
ACAD
70
0
0
ENDTAB
0
TABLE
2
DIMSTYLE
5
A
100
AcDbSymbolTable
70
1
0
ENDTAB
0
TABLE
2
BLOCK_RECORD
5
1
100
AcDbSymbolTable
70
1
0
BLOCK_RECORD
5
1F
100
AcDbSymbolTableRecord
100
AcDbBlockTableRecord
2
*MODEL_SPACE
0
BLOCK_RECORD
5
1B
100
AcDbSymbolTableRecord
100
AcDbBlockTableRecord
2
*PAPER_SPACE
0
ENDTAB
0
ENDSEC
0
SECTION
2
BLOCKS
0
BLOCK
5
20
100
AcDbEntity
100
AcDbBlockBegin
2
*MODEL_SPACE
0
ENDBLK
5
21
100
AcDbEntity
100
AcDbBlockEnd
0
BLOCK
5
1C
100
AcDbEntity
100
AcDbBlockBegin
2
*PAPER_SPACE
0
ENDBLK
5
1D
100
AcDbEntity
100
AcDbBlockEnd
0
ENDSEC
0
SECTION
2
ENTITIES
0
LINE
5
100
100
AcDbEntity
8
OUTER_PROFILES
100
AcDbLine
10
515.52378663998104
20
488.26183992939832
30
0
11
515.52378663998286
21
16.262053491771269
31
0
0
LINE
5
101
100
AcDbEntity
8
OUTER_PROFILES
100
AcDbLine
10
515.52378663998286
20
16.262053491771269
30
0
11
487.26183992939832
21
16.262053491771166
31
0
0
LINE
5
102
100
AcDbEntity
8
OUTER_PROFILES
100
AcDbLine
10
487.26183992939832
20
16.261946710584642
30
0
11
484.9998932188135
21
16.261946710584642
31
0
0
LINE
5
103
100
AcDbEntity
8
OUTER_PROFILES
100
AcDbLine
10
484.9998932188135
20
16.261946710584642
30
0
11
484.9998932188135
21
13.999999999999996
31
0
0
LINE
5
104
100
AcDbEntity
8
OUTER_PROFILES
100
AcDbLine
10
484.99978643762694
20
14.000000000000004
30
0
11
484.99978643762694
21
0
31
0
0
LINE
5
105
100
AcDbEntity
8
OUTER_PROFILES
100
AcDbLine
10
484.99978643762694
20
0
30
0
11
0
21
0
31
0
0
LINE
5
106
100
AcDbEntity
8
OUTER_PROFILES
100
AcDbLine
10
0
20
0
30
0
11
-3.3756685462313016e-14
21
13.999999999999988
31
0
0
LINE
5
107
100
AcDbEntity
8
OUTER_PROFILES
100
AcDbLine
10
-0.00010678118659335803
20
14.000000000000007
30
0
11
-0.00010678118652201771
21
16.261946710584741
31
0
0
LINE
5
108
100
AcDbEntity
8
OUTER_PROFILES
100
AcDbLine
10
-0.00010678118652201771
20
16.261946710584741
30
0
11
-2.2620534917711836
21
16.261946710584812
31
0
0
LINE
5
109
100
AcDbEntity
8
OUTER_PROFILES
100
AcDbLine
10
-2.2620534917711765
20
16.262053491771301
30
0
11
-30.524000202355914
21
16.262053491771304
31
0
0
LINE
5
110
100
AcDbEntity
8
OUTER_PROFILES
100
AcDbLine
10
-30.524000202355914
20
16.262053491771304
30
0
11
-30.524000202355715
21
488.26183992939832
31
0
0
LINE
5
111
100
AcDbEntity
8
OUTER_PROFILES
100
AcDbLine
10
-30.524000202355715
20
488.26183992939832
30
0
11
-2.26205349177107
21
488.26183992939832
31
0
0
LINE
5
112
100
AcDbEntity
8
OUTER_PROFILES
100
AcDbLine
10
-2.2620534917710384
20
488.26194671058494
30
0
11
-0.00010678118628482114
21
488.26194671058488
31
0
0
LINE
5
113
100
AcDbEntity
8
OUTER_PROFILES
100
AcDbLine
10
-0.00010678118628482114
20
488.26194671058488
30
0
11
-0.00010678118631993369
21
490.52389342116953
31
0
0
LINE
5
114
100
AcDbEntity
8
OUTER_PROFILES
100
AcDbLine
10
2.3966765055308432e-13
20
490.52389342116959
30
0
11
2.4143808493811737e-13
21
504.52389342116959
31
0
0
LINE
5
115
100
AcDbEntity
8
OUTER_PROFILES
100
AcDbLine
10
2.4143808493811737e-13
20
504.52389342116959
30
0
11
484.99978643762506
21
504.52389342116936
31
0
0
LINE
5
116
100
AcDbEntity
8
OUTER_PROFILES
100
AcDbLine
10
484.99978643762506
20
504.52389342116936
30
0
11
484.99978643762506
21
490.5238934211693
31
0
0
LINE
5
117
100
AcDbEntity
8
OUTER_PROFILES
100
AcDbLine
10
484.99989321881151
20
490.5238934211693
30
0
11
484.99989321881151
21
488.26194671058465
31
0
0
LINE
5
118
100
AcDbEntity
8
OUTER_PROFILES
100
AcDbLine
10
484.99989321881151
20
488.26194671058465
30
0
11
487.26183992939633
21
488.26194671058477
31
0
0
LINE
5
119
100
AcDbEntity
8
OUTER_PROFILES
100
AcDbLine
10
487.26183992939633
20
488.26183992939826
30
0
11
515.52378663998104
21
488.26183992939832
31
0
0
CIRCLE
5
120
100
AcDbEntity
8
INTERIOR_PROFILES
100
AcDbCircle
10
23.02400020235433
20
187.41194671058554
30
0
40
2.5
210
0
220
0
230
-1
0
CIRCLE
5
121
100
AcDbEntity
8
INTERIOR_PROFILES
100
AcDbCircle
10
23.024000202354294
20
474.11194671058519
30
0
40
2.5
210
0
220
0
230
-1
0
CIRCLE
5
122
100
AcDbEntity
8
INTERIOR_PROFILES
100
AcDbCircle
10
-508.02378663998132
20
187.41194671058543
30
0
40
2.5
210
0
220
0
230
-1
0
CIRCLE
5
123
100
AcDbEntity
8
INTERIOR_PROFILES
100
AcDbCircle
10
23.024000202354312
20
317.11194671058524
30
0
40
2.5
210
0
220
0
230
-1
0
CIRCLE
5
124
100
AcDbEntity
8
INTERIOR_PROFILES
100
AcDbCircle
10
-508.02378663998024
20
317.11194671058496
30
0
40
2.5
210
0
220
0
230
-1
0
CIRCLE
5
125
100
AcDbEntity
8
INTERIOR_PROFILES
100
AcDbCircle
10
23.02400020235433
20
204.11194671058522
30
0
40
2.5
210
0
220
0
230
-1
0
CIRCLE
5
126
100
AcDbEntity
8
INTERIOR_PROFILES
100
AcDbCircle
10
23.024000202354156
20
446.41194671058571
30
0
40
2.5
210
0
220
0
230
-1
0
CIRCLE
5
127
100
AcDbEntity
8
INTERIOR_PROFILES
100
AcDbCircle
10
-508.02378663997888
20
474.1119467105849
30
0
40
2.5
210
0
220
0
230
-1
0
CIRCLE
5
128
100
AcDbEntity
8
INTERIOR_PROFILES
100
AcDbCircle
10
-508.02378663998121
20
204.11194671058496
30
0
40
2.5
210
0
220
0
230
-1
0
CIRCLE
5
129
100
AcDbEntity
8
INTERIOR_PROFILES
100
AcDbCircle
10
-508.02378663998041
20
300.41194671058543
30
0
40
2.5
210
0
220
0
230
-1
0
CIRCLE
5
130
100
AcDbEntity
8
INTERIOR_PROFILES
100
AcDbCircle
10
-508.02378663998275
20
30.411946710585411
30
0
40
2.5
210
0
220
0
230
-1
0
CIRCLE
5
131
100
AcDbEntity
8
INTERIOR_PROFILES
100
AcDbCircle
10
-508.0237866399824
20
58.111946710584768
30
0
40
2.5
210
0
220
0
230
-1
0
CIRCLE
5
132
100
AcDbEntity
8
INTERIOR_PROFILES
100
AcDbCircle
10
-508.02378663997894
20
446.41194671058554
30
0
40
2.5
210
0
220
0
230
-1
0
CIRCLE
5
133
100
AcDbEntity
8
INTERIOR_PROFILES
100
AcDbCircle
10
-242.4998932188133
20
496.52389342117084
30
0
40
1.7000000000000171
210
0
220
0
230
-1
0
CIRCLE
5
134
100
AcDbEntity
8
INTERIOR_PROFILES
100
AcDbCircle
10
-442.49989321881185
20
496.52389342117067
30
0
40
1.7000000000000171
210
0
220
0
230
-1
0
CIRCLE
5
135
100
AcDbEntity
8
INTERIOR_PROFILES
100
AcDbCircle
10
-42.499893218813718
20
496.52389342117084
30
0
40
1.7000000000000171
210
0
220
0
230
-1
0
CIRCLE
5
136
100
AcDbEntity
8
INTERIOR_PROFILES
100
AcDbCircle
10
-442.49989321881151
20
7.999999999998745
30
0
40
1.7000000000000004
210
0
220
0
230
-1
0
CIRCLE
5
137
100
AcDbEntity
8
INTERIOR_PROFILES
100
AcDbCircle
10
-42.49989321881344
20
7.999999999998801
30
0
40
1.7000000000000004
210
0
220
0
230
-1
0
CIRCLE
5
138
100
AcDbEntity
8
INTERIOR_PROFILES
100
AcDbCircle
10
-242.49989321881301
20
7.9999999999987503
30
0
40
1.7000000000000004
210
0
220
0
230
-1
0
CIRCLE
5
139
100
AcDbEntity
8
INTERIOR_PROFILES
100
AcDbCircle
10
23.024000202354205
20
58.111946710584945
30
0
40
2.5
210
0
220
0
230
-1
0
CIRCLE
5
140
100
AcDbEntity
8
INTERIOR_PROFILES
100
AcDbCircle
10
23.024000202354316
20
300.41194671058554
30
0
40
2.5
210
0
220
0
230
-1
0
CIRCLE
5
141
100
AcDbEntity
8
INTERIOR_PROFILES
100
AcDbCircle
10
23.024000202354351
20
30.411946710585518
30
0
40
2.5
210
0
220
0
230
-1
0
LINE
5
142
100
AcDbEntity
8
BEND
100
AcDbLine
10
484.99989321881162
20
489.39292006587709
30
1.2103759289315818e-12
11
-0.00010678118634643852
21
489.39292006587726
31
1.0823406775227446e-12
0
LINE
5
143
100
AcDbEntity
8
BEND
100
AcDbLine
10
486.13086657410622
20
16.26194671058461
30
1.1389948625890867e-12
11
486.13086657410429
21
488.26194671058477
31
1.1172973630440164e-12
0
LINE
5
144
100
AcDbEntity
8
BEND
100
AcDbLine
10
-0.00010678118659315876
20
15.130973355292383
30
9.9617165287743857e-13
11
484.9998932188135
21
15.130973355292346
31
1.0459121057677619e-12
0
LINE
5
145
100
AcDbEntity
8
BEND
100
AcDbLine
10
500.39281328469059
20
16.262053491770956
30
9.3607904006020622e-13
11
500.3928132846886
21
488.26183992939826
31
1.0450511157423886e-12
0
LINE
5
146
100
AcDbEntity
8
BEND
100
AcDbLine
10
-15.393026847063274
20
488.26183992939821
30
-3.0158017538181046e-13
11
-15.393026847063398
21
16.262053491771269
31
-2.7403622270260824e-13
0
LINE
5
147
100
AcDbEntity
8
BEND
100
AcDbLine
10
-1.1310801364786458
20
488.26194671058494
30
9.7212168966704081e-13
11
-1.1310801364788423
21
16.26194671058478
31
9.8648236313984481e-13
0
LINE
5
148
100
AcDbEntity
8
BEND_EXTENT
100
AcDbLine
10
501.52378663998093
20
488.26183992939826
30
1.0660375285717666e-12
11
501.52378663998297
21
16.262053491770985
31
9.8832191684800609e-13
0
LINE
5
149
100
AcDbEntity
8
BEND_EXTENT
100
AcDbLine
10
499.26183992939826
20
16.262053491771201
30
9.2770790611772996e-13
11
499.26183992939627
21
488.26183992939826
31
8.5665363254171943e-13
0
LINE
5
150
100
AcDbEntity
8
BEND_EXTENT
100
AcDbLine
10
-16.524000202355854
20
16.262053491771301
30
-3.8231164055544968e-13
11
-16.524000202355722
21
488.26183992939821
31
-4.1783877734345469e-13
0
LINE
5
151
100
AcDbEntity
8
BEND_EXTENT
100
AcDbLine
10
-14.262053491771079
20
488.26183992939832
30
-2.1733666551040883e-13
11
-14.262053491771203
21
16.262053491771269
31
-2.1733666551040883e-13
0
LINE
5
152
100
AcDbEntity
8
BEND_EXTENT
100
AcDbLine
10
487.26183992939633
20
488.26183992939826
30
1.1018317439258182e-12
11
487.26183992939832
21
16.262053491771198
31
1.1728860175018289e-12
0
LINE
5
153
100
AcDbEntity
8
BEND_EXTENT
100
AcDbLine
10
-2.2620534917711761
20
16.262053491771301
30
8.8751642104968276e-13
11
-2.2620534917710682
21
488.26183992939832
31
9.2304355783768787e-13
0
LINE
5
154
100
AcDbEntity
8
BEND_EXTENT
100
AcDbLine
10
484.99978643762694
20
14.000000000000004
30
9.9458833491136125e-13
11
0
21
13.999999999999988
31
1.0302869668521451e-12
0
LWPOLYLINE
5
155
100
AcDbEntity
8
BEND_EXTENT
100
AcDbPolyline
90
4
70
1
43
0.0
10
-0.00010678118652201771
20
16.261946710584741
10
484.9998932188135
20
16.261946710584642
10
484.99989321881151
20
488.26194671058465
10
-0.00010678118627538424
20
488.26194671058488
0
LINE
5
156
100
AcDbEntity
8
BEND_EXTENT
100
AcDbLine
10
2.3966765055308432e-13
20
490.52389342116959
30
1.1013412404281553e-12
11
484.99978643762506
21
490.5238934211693
31
1.2432782924273959e-12
0
ENDSEC
0
SECTION
2
OBJECTS
0
DICTIONARY
5
C
100
AcDbDictionary
3
ACAD_GROUP
350
D
3
ACAD_MLINESTYLE
350
17
0
DICTIONARY
5
D
100
AcDbDictionary
0
DICTIONARY
5
1A
330
C
100
AcDbDictionary
0
DICTIONARY
5
17
100
AcDbDictionary
0
ENDSEC
0
EOF
