0
SECTION
2
HEADER
9
$INSUNITS
70
4
9
$ACADVER
1
AC1014
9
$HANDSEED
5
FFFF
0
ENDSEC
0
SECTION
2
TABLES
0
TABLE
2
VPORT
5
8
100
AcDbSymbolTable
0
ENDTAB
0
TABLE
2
LTYPE
5
5
100
AcDbSymbolTable
0
LTYPE
5
14
100
AcDbSymbolTableRecord
100
AcDbLinetypeTableRecord
2
BYBLOCK
70
0
0
LTYPE
5
15
100
AcDbSymbolTableRecord
100
AcDbLinetypeTableRecord
2
BYLAYER
70
0
0
LTYPE
5
16
100
AcDbSymbolTableRecord
100
AcDbLinetypeTableRecord
2
DASHED
70
0
3
Dashed __ __ __ __ __ __ __ __ __ __ __ __ __ _
72
65
73
2
40
0.75
49
0.5
74
0
49
-0.25
74
0
0
ENDTAB
0
TABLE
2
LAYER
5
2
100
AcDbSymbolTable
70
2
0
LAYER
5
50
100
AcDbSymbolTableRecord
100
AcDbLayerTableRecord
2
0
70
0
62
7
6
CONTINUOUS
0
ENDTAB
0
TABLE
2
STYLE
5
3
100
AcDbSymbolTable
70
1
0
STYLE
5
11
100
AcDbSymbolTableRecord
100
AcDbTextStyleTableRecord
2
STANDARD
70
0
0
ENDTAB
0
TABLE
2
VIEW
5
6
100
AcDbSymbolTable
70
0
0
ENDTAB
0
TABLE
2
UCS
5
7
100
AcDbSymbolTable
70
0
0
ENDTAB
0
TABLE
2
APPID
5
9
100
AcDbSymbolTable
70
2
0
APPID
5
12
100
AcDbSymbolTableRecord
100
AcDbRegAppTableRecord
2
ACAD
70
0
0
ENDTAB
0
TABLE
2
DIMSTYLE
5
A
100
AcDbSymbolTable
70
1
0
ENDTAB
0
TABLE
2
BLOCK_RECORD
5
1
100
AcDbSymbolTable
70
1
0
BLOCK_RECORD
5
1F
100
AcDbSymbolTableRecord
100
AcDbBlockTableRecord
2
*MODEL_SPACE
0
BLOCK_RECORD
5
1B
100
AcDbSymbolTableRecord
100
AcDbBlockTableRecord
2
*PAPER_SPACE
0
ENDTAB
0
ENDSEC
0
SECTION
2
BLOCKS
0
BLOCK
5
20
100
AcDbEntity
100
AcDbBlockBegin
2
*MODEL_SPACE
0
ENDBLK
5
21
100
AcDbEntity
100
AcDbBlockEnd
0
BLOCK
5
1C
100
AcDbEntity
100
AcDbBlockBegin
2
*PAPER_SPACE
0
ENDBLK
5
1D
100
AcDbEntity
100
AcDbBlockEnd
0
ENDSEC
0
SECTION
2
ENTITIES
0
LWPOLYLINE
5
100
100
AcDbEntity
8
OUTER_PROFILES
100
AcDbPolyline
90
23
70
1
43
0.0
10
447.76736945835984
20
44.029316168944924
10
460.19123603246578
20
56.453182743050476
10
462.19123603246572
20
56.453182743050441
10
462.19123603246572
20
0.070710678118892645
10
447.76736945835989
20
14.494577252224419
42
0.41421356237308904
10
446.35315589598684
20
14.494577252224438
10
431.85857864376209
20
0
10
0
20
0
10
-14.49457725222473
20
14.494577252224396
42
0.41421356237309137
10
-15.908790814597843
20
14.494577252224392
10
-30.332657388703623
20
0.070710678118857118
10
-30.332657388703623
20
44.52389342116917
10
-16.403368066822281
20
44.523893421169198
10
-16.332657388703566
20
42.261946710584652
10
-14.070710678118914
20
42.261946710584652
10
-14.000000000000341
20
44.523893421169305
10
-2.0000000000000284
20
56.523893421169298
10
0
20
58.785840131753972
10
0
20
99.309733552923248
10
431.85857864376209
20
99.309733552923248
10
431.85857864376203
20
58.785840131753972
10
433.85857864376203
20
56.523893421169298
10
446.35315589598684
20
44.029316168944888
42
0.4142135623730766
0
CIRCLE
5
101
100
AcDbEntity
8
INTERIOR_PROFILES
100
AcDbCircle
10
-165.92928932188104
20
7.0000000000000062
30
0
40
5
210
0
220
0
230
-1
0
CIRCLE
5
102
100
AcDbEntity
8
INTERIOR_PROFILES
100
AcDbCircle
10
-315.92928932188107
20
51.523893421169305
30
0
40
5
210
0
220
0
230
-1
0
CIRCLE
5
103
100
AcDbEntity
8
INTERIOR_PROFILES
100
AcDbCircle
10
-265.92928932188107
20
78.047786842338539
30
0
40
1.7000000000000171
210
0
220
0
230
-1
0
CIRCLE
5
104
100
AcDbEntity
8
INTERIOR_PROFILES
100
AcDbCircle
10
-65.929289321881015
20
7.0000000000000062
30
0
40
5
210
0
220
0
230
-1
0
CIRCLE
5
105
100
AcDbEntity
8
INTERIOR_PROFILES
100
AcDbCircle
10
-265.92928932188107
20
7.0000000000000062
30
0
40
5
210
0
220
0
230
-1
0
CIRCLE
5
106
100
AcDbEntity
8
INTERIOR_PROFILES
100
AcDbCircle
10
-415.92928932188101
20
51.523893421169305
30
0
40
5
210
0
220
0
230
-1
0
CIRCLE
5
107
100
AcDbEntity
8
INTERIOR_PROFILES
100
AcDbCircle
10
-65.929289321881015
20
51.523893421169305
30
0
40
5
210
0
220
0
230
-1
0
CIRCLE
5
108
100
AcDbEntity
8
INTERIOR_PROFILES
100
AcDbCircle
10
-215.92928932188104
20
34.261946710584652
30
0
40
5
210
0
220
0
230
-1
0
CIRCLE
5
109
100
AcDbEntity
8
INTERIOR_PROFILES
100
AcDbCircle
10
-455.19123603246555
20
24.261946710584652
30
0
40
1.7000000000000171
210
0
220
0
230
-1
0
CIRCLE
5
110
100
AcDbEntity
8
INTERIOR_PROFILES
100
AcDbCircle
10
-215.92928932188104
20
7.0000000000000062
30
0
40
1.7000000000000171
210
0
220
0
230
-1
0
CIRCLE
5
111
100
AcDbEntity
8
INTERIOR_PROFILES
100
AcDbCircle
10
-15.929289321881015
20
51.523893421169305
30
0
40
5
210
0
220
0
230
-1
0
CIRCLE
5
112
100
AcDbEntity
8
INTERIOR_PROFILES
100
AcDbCircle
10
-315.92928932188107
20
7.0000000000000062
30
0
40
1.7000000000000171
210
0
220
0
230
-1
0
CIRCLE
5
113
100
AcDbEntity
8
INTERIOR_PROFILES
100
AcDbCircle
10
-115.92928932188101
20
7.0000000000000062
30
0
40
1.6999999999999993
210
0
220
0
230
-1
0
CIRCLE
5
114
100
AcDbEntity
8
INTERIOR_PROFILES
100
AcDbCircle
10
-165.92928932188104
20
78.047786842338539
30
0
40
1.7000000000000171
210
0
220
0
230
-1
0
CIRCLE
5
115
100
AcDbEntity
8
INTERIOR_PROFILES
100
AcDbCircle
10
-365.92928932188101
20
78.047786842338539
30
0
40
1.7000000000000171
210
0
220
0
230
-1
0
CIRCLE
5
116
100
AcDbEntity
8
INTERIOR_PROFILES
100
AcDbCircle
10
-65.929289321881015
20
78.047786842338539
30
0
40
1.6999999999999993
210
0
220
0
230
-1
0
CIRCLE
5
117
100
AcDbEntity
8
INTERIOR_PROFILES
100
AcDbCircle
10
-115.92928932188101
20
51.523893421169305
30
0
40
5
210
0
220
0
230
-1
0
CIRCLE
5
118
100
AcDbEntity
8
INTERIOR_PROFILES
100
AcDbCircle
10
-215.92928932188104
20
51.523893421169305
30
0
40
5
210
0
220
0
230
-1
0
CIRCLE
5
119
100
AcDbEntity
8
INTERIOR_PROFILES
100
AcDbCircle
10
-165.92928932188104
20
51.523893421169305
30
0
40
5
210
0
220
0
230
-1
0
CIRCLE
5
120
100
AcDbEntity
8
INTERIOR_PROFILES
100
AcDbCircle
10
-265.92928932188107
20
51.523893421169305
30
0
40
5
210
0
220
0
230
-1
0
CIRCLE
5
121
100
AcDbEntity
8
INTERIOR_PROFILES
100
AcDbCircle
10
-365.92928932188101
20
51.523893421169305
30
0
40
5
210
0
220
0
230
-1
0
CIRCLE
5
122
100
AcDbEntity
8
INTERIOR_PROFILES
100
AcDbCircle
10
-415.92928932188101
20
7.0000000000000062
30
0
40
1.7000000000000171
210
0
220
0
230
-1
0
CIRCLE
5
123
100
AcDbEntity
8
INTERIOR_PROFILES
100
AcDbCircle
10
-15.929289321881015
20
7.0000000000000062
30
0
40
1.6999999999999993
210
0
220
0
230
-1
0
CIRCLE
5
124
100
AcDbEntity
8
INTERIOR_PROFILES
100
AcDbCircle
10
23.332657388700895
20
24.261946710584652
30
0
40
1.6999999999999993
210
0
220
0
230
-1
0
CIRCLE
5
125
100
AcDbEntity
8
INTERIOR_PROFILES
100
AcDbCircle
10
-365.92928932188101
20
7.0000000000000062
30
0
40
5
210
0
220
0
230
-1
0
LINE
5
126
100
AcDbEntity
8
BEND
100
AcDbLine
10
-16.368012727762959
20
43.392920065876922
30
4.5171719437094194e-13
11
-30.332657388703623
21
43.392920065876922
31
2.0544066666781445e-13
0
LINE
5
127
100
AcDbEntity
8
BEND
100
AcDbLine
10
-30.332657388703623
20
15.130973355292312
30
2.1542904371079599e-14
11
-15.20168403341124
21
15.130973355292312
31
2.008512301310337e-13
0
LINE
5
128
100
AcDbEntity
8
BEND
100
AcDbLine
10
-15.20168403341124
20
15.130973355292312
30
2.008512301310337e-13
11
447.06026267717334
21
15.13097335529233
31
2.008512301310339e-13
0
LINE
5
129
100
AcDbEntity
8
BEND
100
AcDbLine
10
447.06026267717334
20
15.13097335529233
30
2.008512301310339e-13
11
462.19123603246572
21
15.130973355292387
31
-1.4754320324863142e-13
0
LINE
5
130
100
AcDbEntity
8
BEND
100
AcDbLine
10
0
20
66.916813487046269
30
8.1276940709697048e-13
11
431.85857864376203
21
66.916813487046269
31
8.1276940709697048e-13
0
LINE
5
131
100
AcDbEntity
8
BEND
100
AcDbLine
10
0
20
89.178760197630936
30
1.0505157036098719e-12
11
431.85857864376203
21
89.178760197630936
31
1.0505157036098719e-12
0
LINE
5
132
100
AcDbEntity
8
BEND
100
AcDbLine
10
447.06026267717334
20
43.392920065876979
30
4.1794655427940025e-13
11
-14.035355339059663
21
43.392920065876979
31
4.9932947445047849e-13
0
LINE
5
133
100
AcDbEntity
8
BEND
100
AcDbLine
10
462.19123603246572
20
43.392920065876979
30
3.4029002617292481e-13
11
447.06026267717334
21
43.392920065876979
31
4.1794655427940025e-13
0
LINE
5
134
100
AcDbEntity
8
BEND
100
AcDbLine
10
447.06026267717334
20
14.787470471037864
30
9.5894553512812603e-14
11
447.06026267717334
21
43.73642295013147
31
4.7732148833560951e-13
0
LINE
5
135
100
AcDbEntity
8
BEND
100
AcDbLine
10
-15.20168403341124
20
42.261946710584652
30
5.0630296662089756e-13
11
-15.20168403341124
21
14.78747047103791
31
1.7461685168739722e-13
0
LINE
5
136
100
AcDbEntity
8
BEND
100
AcDbLine
10
432.85857864376214
20
57.654866776461631
30
6.6879277700367258e-13
11
-1.0000000000000142
21
57.654866776461631
31
6.6820843635939462e-13
0
LINE
5
137
100
AcDbEntity
8
BEND_EXTENT
100
AcDbLine
10
0
20
90.309733552923262
30
1.0569593051795671e-12
11
431.85857864376203
21
90.309733552923262
31
1.0569593051795671e-12
0
LINE
5
138
100
AcDbEntity
8
BEND_EXTENT
100
AcDbLine
10
431.85857864376209
20
88.04778684233861
30
1.0403751563432132e-12
11
0
21
88.04778684233861
31
1.0403751563432132e-12
0
LINE
5
139
100
AcDbEntity
8
BEND_EXTENT
100
AcDbLine
10
0
20
68.04778684233861
30
8.285295480439566e-13
11
431.85857864376203
21
68.04778684233861
31
8.285295480439566e-13
0
LINE
5
140
100
AcDbEntity
8
BEND_EXTENT
100
AcDbLine
10
431.85857864376209
20
65.785840131753957
30
7.9418183081360023e-13
11
0
21
65.785840131753957
31
7.9418183081360023e-13
0
LINE
5
141
100
AcDbEntity
8
BEND_EXTENT
100
AcDbLine
10
0
20
58.785840131753972
30
6.7984579441742991e-13
11
431.85857864376203
21
58.785840131753972
31
6.7984579441742991e-13
0
LINE
5
142
100
AcDbEntity
8
BEND_EXTENT
100
AcDbLine
10
15.929289321881015
20
56.523893421169298
30
6.4993896928557407e-13
11
-2.0000000000000284
21
56.523893421169298
31
6.4993896928557407e-13
0
LINE
5
143
100
AcDbEntity
8
BEND_EXTENT
100
AcDbLine
10
65.929289321881015
20
56.523893421169298
30
6.4993896928557407e-13
11
15.929289321881015
21
56.523893421169298
31
6.4993896928557407e-13
0
LINE
5
144
100
AcDbEntity
8
BEND_EXTENT
100
AcDbLine
10
115.92928932188101
20
56.523893421169298
30
6.4993896928557407e-13
11
65.929289321881015
21
56.523893421169298
31
6.4993896928557407e-13
0
LINE
5
145
100
AcDbEntity
8
BEND_EXTENT
100
AcDbLine
10
165.92928932188104
20
56.523893421169298
30
6.4993896928557407e-13
11
115.92928932188101
21
56.523893421169298
31
6.4993896928557407e-13
0
LINE
5
146
100
AcDbEntity
8
BEND_EXTENT
100
AcDbLine
10
215.92928932188104
20
56.523893421169298
30
6.4993896928557407e-13
11
165.92928932188104
21
56.523893421169298
31
6.4993896928557407e-13
0
LINE
5
147
100
AcDbEntity
8
BEND_EXTENT
100
AcDbLine
10
265.92928932188107
20
56.523893421169298
30
6.4993896928557407e-13
11
215.92928932188104
21
56.523893421169298
31
6.4993896928557407e-13
0
LINE
5
148
100
AcDbEntity
8
BEND_EXTENT
100
AcDbLine
10
315.92928932188107
20
56.523893421169298
30
6.4993896928557407e-13
11
265.92928932188107
21
56.523893421169298
31
6.4993896928557407e-13
0
LINE
5
149
100
AcDbEntity
8
BEND_EXTENT
100
AcDbLine
10
365.92928932188101
20
56.523893421169298
30
6.4993896928557407e-13
11
315.92928932188107
21
56.523893421169298
31
6.4993896928557407e-13
0
LINE
5
150
100
AcDbEntity
8
BEND_EXTENT
100
AcDbLine
10
415.92928932188101
20
56.523893421169298
30
6.4993896928557407e-13
11
365.92928932188101
21
56.523893421169298
31
6.4993896928557407e-13
0
LINE
5
151
100
AcDbEntity
8
BEND_EXTENT
100
AcDbLine
10
433.85857864376203
20
56.523893421169298
30
6.4993896928557407e-13
11
415.92928932188101
21
56.523893421169298
31
6.4993896928557407e-13
0
LINE
5
152
100
AcDbEntity
8
BEND_EXTENT
100
AcDbLine
10
-16.332657388703566
20
42.261946710584652
30
5.204583101848682e-13
11
-30.332657388703623
21
42.261946710584652
31
3.7834976303284816e-13
0
LINE
5
153
100
AcDbEntity
8
BEND_EXTENT
100
AcDbLine
10
-16.332657388703566
20
16.261946710584656
30
2.2773954021168221e-13
11
-16.332657388703566
21
42.261946710584652
31
5.204583101848682e-13
0
LINE
5
154
100
AcDbEntity
8
BEND_EXTENT
100
AcDbLine
10
-30.332657388703623
20
16.261946710584656
30
8.5630993059662157e-14
11
-16.332657388703566
21
16.261946710584656
31
2.2773954021168221e-13
0
LINE
5
155
100
AcDbEntity
8
BEND_EXTENT
100
AcDbLine
10
462.19123603246572
20
14.000000000000021
30
-1.7990032411140754e-13
11
448.26194671058437
21
13.999999999999986
31
7.4785373750643544e-14
0
LINE
5
156
100
AcDbEntity
8
BEND_EXTENT
100
AcDbLine
10
448.19123603246567
20
16.261946710584656
30
2.2773954021168221e-13
11
462.19123603246572
21
16.261946710584656
31
8.5630993059662157e-14
0
LINE
5
157
100
AcDbEntity
8
BEND_EXTENT
100
AcDbLine
10
448.19123603246567
20
42.261946710584652
30
5.204583101848682e-13
11
448.19123603246567
21
16.261946710584656
31
2.2773954021168221e-13
0
LINE
5
158
100
AcDbEntity
8
BEND_EXTENT
100
AcDbLine
10
462.19123603246572
20
42.261946710584652
30
3.7834976303284816e-13
11
448.19123603246567
21
42.261946710584652
31
5.204583101848682e-13
0
LINE
5
159
100
AcDbEntity
8
BEND_EXTENT
100
AcDbLine
10
-16.403368066822281
20
13.99999999999995
30
1.6374970348082218e-13
11
-30.332657388703623
21
13.999999999999986
31
5.1172552770789332e-14
0
LINE
5
160
100
AcDbEntity
8
BEND_EXTENT
100
AcDbLine
10
445.85857864376237
20
14.000000000000004
30
1.6587655648738201e-13
11
-14.00000000000027
21
14.000000000000004
31
1.6587655648738201e-13
0
LWPOLYLINE
5
161
100
AcDbEntity
8
BEND_EXTENT
100
AcDbPolyline
90
4
70
1
43
0.0
10
-14.070710678118914
20
16.261946710584656
10
445.92928932188101
20
16.261946710584656
10
445.92928932188101
20
42.261946710584652
10
-14.070710678118914
20
42.261946710584652
0
LINE
5
162
100
AcDbEntity
8
BEND_EXTENT
100
AcDbLine
10
-14.000000000000341
20
44.523893421169305
30
5.1039710643021831e-13
11
445.85857864376237
21
44.523893421169305
31
5.1039710643021831e-13
0
LINE
5
163
100
AcDbEntity
8
BEND_EXTENT
100
AcDbLine
10
448.26194671058437
20
44.523893421169412
30
5.1039710643021952e-13
11
462.19123603246572
21
44.52389342116934
31
3.9937480396770306e-13
0
ENDSEC
0
SECTION
2
OBJECTS
0
DICTIONARY
5
C
100
AcDbDictionary
3
ACAD_GROUP
350
D
3
ACAD_MLINESTYLE
350
17
0
DICTIONARY
5
D
100
AcDbDictionary
0
DICTIONARY
5
1A
330
C
100
AcDbDictionary
0
DICTIONARY
5
17
100
AcDbDictionary
0
ENDSEC
0
EOF
