0
SECTION
2
HEADER
9
$INSUNITS
70
4
9
$ACADVER
1
AC1014
9
$HANDSEED
5
FFFF
0
ENDSEC
0
SECTION
2
TABLES
0
TABLE
2
VPORT
5
8
100
AcDbSymbolTable
0
ENDTAB
0
TABLE
2
LTYPE
5
5
100
AcDbSymbolTable
0
LTYPE
5
14
100
AcDbSymbolTableRecord
100
AcDbLinetypeTableRecord
2
BYBLOCK
70
0
0
LTYPE
5
15
100
AcDbSymbolTableRecord
100
AcDbLinetypeTableRecord
2
BYLAYER
70
0
0
LTYPE
5
16
100
AcDbSymbolTableRecord
100
AcDbLinetypeTableRecord
2
DASHED
70
0
3
Dashed __ __ __ __ __ __ __ __ __ __ __ __ __ _
72
65
73
2
40
0.75
49
0.5
74
0
49
-0.25
74
0
0
ENDTAB
0
TABLE
2
LAYER
5
2
100
AcDbSymbolTable
70
2
0
LAYER
5
50
100
AcDbSymbolTableRecord
100
AcDbLayerTableRecord
2
0
70
0
62
7
6
CONTINUOUS
0
ENDTAB
0
TABLE
2
STYLE
5
3
100
AcDbSymbolTable
70
1
0
STYLE
5
11
100
AcDbSymbolTableRecord
100
AcDbTextStyleTableRecord
2
STANDARD
70
0
0
ENDTAB
0
TABLE
2
VIEW
5
6
100
AcDbSymbolTable
70
0
0
ENDTAB
0
TABLE
2
UCS
5
7
100
AcDbSymbolTable
70
0
0
ENDTAB
0
TABLE
2
APPID
5
9
100
AcDbSymbolTable
70
2
0
APPID
5
12
100
AcDbSymbolTableRecord
100
AcDbRegAppTableRecord
2
ACAD
70
0
0
ENDTAB
0
TABLE
2
DIMSTYLE
5
A
100
AcDbSymbolTable
70
1
0
ENDTAB
0
TABLE
2
BLOCK_RECORD
5
1
100
AcDbSymbolTable
70
1
0
BLOCK_RECORD
5
1F
100
AcDbSymbolTableRecord
100
AcDbBlockTableRecord
2
*MODEL_SPACE
0
BLOCK_RECORD
5
1B
100
AcDbSymbolTableRecord
100
AcDbBlockTableRecord
2
*PAPER_SPACE
0
ENDTAB
0
ENDSEC
0
SECTION
2
BLOCKS
0
BLOCK
5
20
100
AcDbEntity
100
AcDbBlockBegin
2
*MODEL_SPACE
0
ENDBLK
5
21
100
AcDbEntity
100
AcDbBlockEnd
0
BLOCK
5
1C
100
AcDbEntity
100
AcDbBlockBegin
2
*PAPER_SPACE
0
ENDBLK
5
1D
100
AcDbEntity
100
AcDbBlockEnd
0
ENDSEC
0
SECTION
2
ENTITIES
0
LWPOLYLINE
5
100
100
AcDbEntity
8
OUTER_PROFILES
100
AcDbPolyline
90
18
70
1
43
0.0
10
505.02931616894381
20
582.68581328473374
10
510.52389342116811
20
577.19123603250955
10
510.52389342116828
20
573.33265738874729
10
505.02931616894364
20
567.83808013652265
42
0.41421356237309503
10
505.02931616894358
20
566.42386657414954
10
510.52389342116788
20
560.92928932192513
10
510.52389342116794
20
4.5830006456526462e-11
10
0
20
0
10
-1.80855330711438e-12
20
560.92928932192387
10
5.4945772522221601
20
566.42386657414795
42
0.41421356237308815
10
5.4945772522221752
20
567.83808013652106
10
-2.666755705149626e-12
20
573.33265738874593
10
-2.6423307986078726e-12
20
577.19123603250819
10
5.4945772522220331
20
582.68581328473272
42
0.41421356237311735
10
5.4945772522220313
20
584.10002684710594
10
0.070710678116086001
20
589.5238934212116
10
510.45318274305009
20
589.52389342121307
10
505.02931616894375
20
584.10002684710685
42
0.41421356237312451
0
CIRCLE
5
101
100
AcDbEntity
8
INTERIOR_PROFILES
100
AcDbCircle
10
-155.26194671058408
20
2.9999999999714788
30
0
40
1.6999999999999993
210
0
220
0
230
-1
0
CIRCLE
5
102
100
AcDbEntity
8
INTERIOR_PROFILES
100
AcDbCircle
10
-2.9999999999749556
20
537.00000000004161
30
0
40
1.7000000000000171
210
0
220
0
230
-1
0
CIRCLE
5
103
100
AcDbEntity
8
INTERIOR_PROFILES
100
AcDbCircle
10
-14.261946710534431
20
2.9999999999682814
30
0
40
1.6999999999999993
210
0
220
0
230
-1
0
CIRCLE
5
104
100
AcDbEntity
8
INTERIOR_PROFILES
100
AcDbCircle
10
-496.26194671065059
20
257.9999999999705
30
0
40
1.7000000000000171
210
0
220
0
230
-1
0
CIRCLE
5
105
100
AcDbEntity
8
INTERIOR_PROFILES
100
AcDbCircle
10
-496.26194671065082
20
180.99999999997038
30
0
40
1.7000000000000171
210
0
220
0
230
-1
0
CIRCLE
5
106
100
AcDbEntity
8
INTERIOR_PROFILES
100
AcDbCircle
10
-496.26194671103212
20
537.00000000004047
30
0
40
1.7000000000000171
210
0
220
0
230
-1
0
CIRCLE
5
107
100
AcDbEntity
8
INTERIOR_PROFILES
100
AcDbCircle
10
-14.261946710150401
20
559.00000000003877
30
0
40
1.6999999999999993
210
0
220
0
230
-1
0
CIRCLE
5
108
100
AcDbEntity
8
INTERIOR_PROFILES
100
AcDbCircle
10
-2.999999999976013
20
181.00000000004167
30
0
40
1.7000000000000171
210
0
220
0
230
-1
0
CIRCLE
5
109
100
AcDbEntity
8
INTERIOR_PROFILES
100
AcDbCircle
10
-424.26194671058408
20
2.9999999999741789
30
0
40
1.7000000000000171
210
0
220
0
230
-1
0
CIRCLE
5
110
100
AcDbEntity
8
INTERIOR_PROFILES
100
AcDbCircle
10
-496.26194671103229
20
497.00000000004036
30
0
40
6.4999999999999858
210
0
220
0
230
-1
0
CIRCLE
5
111
100
AcDbEntity
8
INTERIOR_PROFILES
100
AcDbCircle
10
-496.26194671103235
20
481.00000000003996
30
0
40
1.7000000000000171
210
0
220
0
230
-1
0
CIRCLE
5
112
100
AcDbEntity
8
INTERIOR_PROFILES
100
AcDbCircle
10
-496.26194671103207
20
559.00000000004047
30
0
40
1.7000000000000171
210
0
220
0
230
-1
0
CIRCLE
5
113
100
AcDbEntity
8
INTERIOR_PROFILES
100
AcDbCircle
10
-496.26194671103269
20
359.00000000004002
30
0
40
1.7000000000000171
210
0
220
0
230
-1
0
CIRCLE
5
114
100
AcDbEntity
8
INTERIOR_PROFILES
100
AcDbCircle
10
-496.26194671065127
20
2.9999999999706262
30
0
40
1.7000000000000171
210
0
220
0
230
-1
0
CIRCLE
5
115
100
AcDbEntity
8
INTERIOR_PROFILES
100
AcDbCircle
10
-40.261946710602381
20
2.999999999969063
30
0
40
1.6999999999999993
210
0
220
0
230
-1
0
CIRCLE
5
116
100
AcDbEntity
8
INTERIOR_PROFILES
100
AcDbCircle
10
-496.26194671065116
20
44.999999999970655
30
0
40
1.7000000000000171
210
0
220
0
230
-1
0
CIRCLE
5
117
100
AcDbEntity
8
INTERIOR_PROFILES
100
AcDbCircle
10
-14.2619467105342
20
44.999999999967386
30
0
40
1.6999999999999993
210
0
220
0
230
-1
0
CIRCLE
5
118
100
AcDbEntity
8
INTERIOR_PROFILES
100
AcDbCircle
10
-496.26194671103224
20
513.0000000000399
30
0
40
1.7000000000000171
210
0
220
0
230
-1
0
CIRCLE
5
119
100
AcDbEntity
8
INTERIOR_PROFILES
100
AcDbCircle
10
-496.26194671065122
20
12.999999999970555
30
0
40
1.7000000000000171
210
0
220
0
230
-1
0
CIRCLE
5
120
100
AcDbEntity
8
INTERIOR_PROFILES
100
AcDbCircle
10
-496.26194671103292
20
290.0000000000399
30
0
40
1.7000000000000171
210
0
220
0
230
-1
0
CIRCLE
5
121
100
AcDbEntity
8
INTERIOR_PROFILES
100
AcDbCircle
10
-14.261946710150589
20
497.00000000003718
30
0
40
6.5
210
0
220
0
230
-1
0
CIRCLE
5
122
100
AcDbEntity
8
INTERIOR_PROFILES
100
AcDbCircle
10
-14.261946710530193
20
257.99999999996811
30
0
40
1.6999999999999993
210
0
220
0
230
-1
0
CIRCLE
5
123
100
AcDbEntity
8
INTERIOR_PROFILES
100
AcDbCircle
10
-55.261946710528051
20
2.9999999999692761
30
0
40
1.6999999999999993
210
0
220
0
230
-1
0
CIRCLE
5
124
100
AcDbEntity
8
INTERIOR_PROFILES
100
AcDbCircle
10
-2.9999999999765419
20
3.0000000000416094
30
0
40
1.7000000000000171
210
0
220
0
230
-1
0
CIRCLE
5
125
100
AcDbEntity
8
INTERIOR_PROFILES
100
AcDbCircle
10
-2.9999999999754845
20
359.00000000004161
30
0
40
1.7000000000000171
210
0
220
0
230
-1
0
CIRCLE
5
126
100
AcDbEntity
8
INTERIOR_PROFILES
100
AcDbCircle
10
-14.261946710192735
20
481.0000000000378
30
0
40
1.6999999999999993
210
0
220
0
230
-1
0
CIRCLE
5
127
100
AcDbEntity
8
INTERIOR_PROFILES
100
AcDbCircle
10
-14.261946710150468
20
537.00000000003843
30
0
40
1.6999999999999993
210
0
220
0
230
-1
0
CIRCLE
5
128
100
AcDbEntity
8
INTERIOR_PROFILES
100
AcDbCircle
10
-14.261946710533939
20
180.9999999999676
30
0
40
1.6999999999999993
210
0
220
0
230
-1
0
CIRCLE
5
129
100
AcDbEntity
8
INTERIOR_PROFILES
100
AcDbCircle
10
-14.261946710534403
20
12.999999999968281
30
0
40
1.6999999999999993
210
0
220
0
230
-1
0
CIRCLE
5
130
100
AcDbEntity
8
INTERIOR_PROFILES
100
AcDbCircle
10
-507.52389342120813
20
3.0000000000446647
30
0
40
1.7000000000000171
210
0
220
0
230
-1
0
CIRCLE
5
131
100
AcDbEntity
8
INTERIOR_PROFILES
100
AcDbCircle
10
-14.261946710150539
20
513.00000000022476
30
0
40
1.6999999999999993
210
0
220
0
230
-1
0
CIRCLE
5
132
100
AcDbEntity
8
INTERIOR_PROFILES
100
AcDbCircle
10
-507.52389342120819
20
537.00000000004468
30
0
40
1.7000000000000171
210
0
220
0
230
-1
0
CIRCLE
5
133
100
AcDbEntity
8
INTERIOR_PROFILES
100
AcDbCircle
10
-507.52389342120819
20
359.00000000004468
30
0
40
1.7000000000000171
210
0
220
0
230
-1
0
CIRCLE
5
134
100
AcDbEntity
8
INTERIOR_PROFILES
100
AcDbCircle
10
-470.26194671058408
20
2.999999999974321
30
0
40
1.7000000000000171
210
0
220
0
230
-1
0
CIRCLE
5
135
100
AcDbEntity
8
INTERIOR_PROFILES
100
AcDbCircle
10
-455.26194671052804
20
2.999999999970413
30
0
40
1.7000000000000171
210
0
220
0
230
-1
0
CIRCLE
5
136
100
AcDbEntity
8
INTERIOR_PROFILES
100
AcDbCircle
10
-14.261946710159904
20
290.00000000003757
30
0
40
1.6999999999999993
210
0
220
0
230
-1
0
CIRCLE
5
137
100
AcDbEntity
8
INTERIOR_PROFILES
100
AcDbCircle
10
-255.26194671052804
20
2.9999999999698446
30
0
40
1.7000000000000171
210
0
220
0
230
-1
0
CIRCLE
5
138
100
AcDbEntity
8
INTERIOR_PROFILES
100
AcDbCircle
10
-14.261946710150962
20
359.00000000003854
30
0
40
1.6999999999999993
210
0
220
0
230
-1
0
CIRCLE
5
139
100
AcDbEntity
8
INTERIOR_PROFILES
100
AcDbCircle
10
-86.261946710602317
20
2.9999999999700577
30
0
40
1.6999999999999993
210
0
220
0
230
-1
0
CIRCLE
5
140
100
AcDbEntity
8
INTERIOR_PROFILES
100
AcDbCircle
10
-355.26194671058408
20
2.9999999999721183
30
0
40
1.7000000000000171
210
0
220
0
230
-1
0
CIRCLE
5
141
100
AcDbEntity
8
INTERIOR_PROFILES
100
AcDbCircle
10
-507.52389342120813
20
181.00000000004462
30
0
40
1.7000000000000171
210
0
220
0
230
-1
0
LINE
5
142
100
AcDbEntity
8
BEND
100
AcDbLine
10
504.39292006587635
20
583.39292006592063
30
-4.0344693901195824e-12
11
504.39292006587635
21
589.52389342121307
31
-4.7724049827380046e-12
0
LINE
5
143
100
AcDbEntity
8
BEND
100
AcDbLine
10
504.39292006587607
20
567.1309733553361
30
-2.7356031297067392e-12
11
504.39292006587635
21
583.39292006592063
31
-4.0344693901195824e-12
0
LINE
5
144
100
AcDbEntity
8
BEND
100
AcDbLine
10
504.39292006587578
20
4.5758952182950452e-11
30
4.6365905161378917e-11
11
504.39292006587607
21
567.1309733553361
31
-2.7356031297067392e-12
0
LINE
5
145
100
AcDbEntity
8
BEND
100
AcDbLine
10
6.1309733552897789
20
589.5238934212116
30
-5.013191842113793e-11
11
6.1309733552898082
21
583.39292006591927
31
-4.9287519488311781e-11
0
LINE
5
146
100
AcDbEntity
8
BEND
100
AcDbLine
10
6.1309733552898082
20
583.39292006591927
30
-4.9287519488311781e-11
11
6.1309733552901404
21
567.13097335533473
31
-4.8023784738774437e-11
0
LINE
5
147
100
AcDbEntity
8
BEND
100
AcDbLine
10
6.1309733552901404
20
567.13097335533473
30
-4.8023784738774437e-11
11
6.1309733552918182
21
0
31
1.1001092674340995e-12
0
LINE
5
148
100
AcDbEntity
8
BEND
100
AcDbLine
10
504.73642295013042
20
567.1309733553361
30
-2.8471624345341382e-12
11
5.7874704710354763
21
567.13097335533473
31
-4.8229863663105709e-11
0
LINE
5
149
100
AcDbEntity
8
BEND
100
AcDbLine
10
504.7364229501303
20
583.39292006592063
30
-3.8915194205402925e-12
11
5.7874704710355473
21
583.39292006591927
31
-4.9714687716043831e-11
0
LINE
5
150
100
AcDbEntity
8
BEND_EXTENT
100
AcDbLine
10
5
20
0
30
8.8078721441030207e-13
11
4.9999999999981055
21
565.9292893219241
31
-4.8221401738286101e-11
0
LINE
5
151
100
AcDbEntity
8
BEND_EXTENT
100
AcDbLine
10
7.2619467105821141
20
566.00000000004241
30
-4.7799616695413678e-11
11
7.2619467105839028
21
-7.1054273576010019e-14
31
1.264016470356465e-12
0
LINE
5
152
100
AcDbEntity
8
BEND_EXTENT
100
AcDbLine
10
503.26194671058374
20
566.00000000004388
30
-2.7245226637683822e-12
11
7.2619467105821141
21
566.00000000004241
31
-4.7799616695413678e-11
0
LINE
5
153
100
AcDbEntity
8
BEND_EXTENT
100
AcDbLine
10
503.26194671058386
20
4.5901060730102472e-11
30
4.634660450741397e-11
11
503.26194671058374
21
566.00000000004388
31
-2.7245226637683822e-12
0
LINE
5
154
100
AcDbEntity
8
BEND_EXTENT
100
AcDbLine
10
4.9999999999974936
20
584.59460409933035
30
-4.9662068384956723e-11
11
4.9999999999974367
21
589.5238934212116
31
-5.0231551476443264e-11
0
LINE
5
155
100
AcDbEntity
8
BEND_EXTENT
100
AcDbLine
10
7.2619467105821158
20
589.5238934212116
30
-4.9979328537402808e-11
11
7.26194671058213
21
584.5238934212116
31
-4.9394832971904321e-11
0
LINE
5
156
100
AcDbEntity
8
BEND_EXTENT
100
AcDbLine
10
7.26194671058213
20
584.5238934212116
30
-4.9394832971904321e-11
11
503.26194671058403
21
584.52389342121296
31
-4.345551625581516e-12
0
LINE
5
157
100
AcDbEntity
8
BEND_EXTENT
100
AcDbLine
10
503.26194671058403
20
584.52389342121296
30
-4.345551625581516e-12
11
503.26194671058403
21
589.52389342121296
31
-4.9322676371292633e-12
0
LINE
5
158
100
AcDbEntity
8
BEND_EXTENT
100
AcDbLine
10
505.52389342116817
20
582.19123603250932
30
-4.3151900444518298e-12
11
505.52389342116834
21
568.33265738874718
31
-2.8649468109472067e-12
0
LWPOLYLINE
5
159
100
AcDbEntity
8
BEND_EXTENT
100
AcDbPolyline
90
4
70
1
43
0.0
10
503.26194671058374
20
568.26194671062842
10
503.26194671058408
20
582.26194671062831
10
7.2619467105822366
20
582.26194671062694
10
7.2619467105821078
20
568.26194671062706
0
LINE
5
160
100
AcDbEntity
8
BEND_EXTENT
100
AcDbLine
10
505.52389342116874
20
589.52389342121296
30
-4.5956677482172843e-12
11
505.52389342116874
21
584.59460409933172
31
-4.026184656730742e-12
0
LINE
5
161
100
AcDbEntity
8
BEND_EXTENT
100
AcDbLine
10
505.52389342116794
20
565.92928932192558
30
-2.7276265572122829e-12
11
505.52389342116783
21
4.5758952182950452e-11
31
4.6339035258692094e-11
0
LINE
5
162
100
AcDbEntity
8
BEND_EXTENT
100
AcDbLine
10
4.9999999999973488
20
568.33265738874593
30
-4.8216613444869119e-11
11
4.9999999999973435
21
582.19123603250796
31
-4.9666856678373731e-11
0
ENDSEC
0
SECTION
2
OBJECTS
0
DICTIONARY
5
C
100
AcDbDictionary
3
ACAD_GROUP
350
D
3
ACAD_MLINESTYLE
350
17
0
DICTIONARY
5
D
100
AcDbDictionary
0
DICTIONARY
5
1A
330
C
100
AcDbDictionary
0
DICTIONARY
5
17
100
AcDbDictionary
0
ENDSEC
0
EOF
