0
SECTION
2
HEADER
9
$INSUNITS
70
4
9
$ACADVER
1
AC1014
9
$HANDSEED
5
FFFF
0
ENDSEC
0
SECTION
2
TABLES
0
TABLE
2
VPORT
5
8
100
AcDbSymbolTable
0
ENDTAB
0
TABLE
2
LTYPE
5
5
100
AcDbSymbolTable
0
LTYPE
5
14
100
AcDbSymbolTableRecord
100
AcDbLinetypeTableRecord
2
BYBLOCK
70
0
0
LTYPE
5
15
100
AcDbSymbolTableRecord
100
AcDbLinetypeTableRecord
2
BYLAYER
70
0
0
LTYPE
5
16
100
AcDbSymbolTableRecord
100
AcDbLinetypeTableRecord
2
DASHED
70
0
3
Dashed __ __ __ __ __ __ __ __ __ __ __ __ __ _
72
65
73
2
40
0.75
49
0.5
74
0
49
-0.25
74
0
0
ENDTAB
0
TABLE
2
LAYER
5
2
100
AcDbSymbolTable
70
2
0
LAYER
5
50
100
AcDbSymbolTableRecord
100
AcDbLayerTableRecord
2
0
70
0
62
7
6
CONTINUOUS
0
ENDTAB
0
TABLE
2
STYLE
5
3
100
AcDbSymbolTable
70
1
0
STYLE
5
11
100
AcDbSymbolTableRecord
100
AcDbTextStyleTableRecord
2
STANDARD
70
0
0
ENDTAB
0
TABLE
2
VIEW
5
6
100
AcDbSymbolTable
70
0
0
ENDTAB
0
TABLE
2
UCS
5
7
100
AcDbSymbolTable
70
0
0
ENDTAB
0
TABLE
2
APPID
5
9
100
AcDbSymbolTable
70
2
0
APPID
5
12
100
AcDbSymbolTableRecord
100
AcDbRegAppTableRecord
2
ACAD
70
0
0
ENDTAB
0
TABLE
2
DIMSTYLE
5
A
100
AcDbSymbolTable
70
1
0
ENDTAB
0
TABLE
2
BLOCK_RECORD
5
1
100
AcDbSymbolTable
70
1
0
BLOCK_RECORD
5
1F
100
AcDbSymbolTableRecord
100
AcDbBlockTableRecord
2
*MODEL_SPACE
0
BLOCK_RECORD
5
1B
100
AcDbSymbolTableRecord
100
AcDbBlockTableRecord
2
*PAPER_SPACE
0
ENDTAB
0
ENDSEC
0
SECTION
2
BLOCKS
0
BLOCK
5
20
100
AcDbEntity
100
AcDbBlockBegin
2
*MODEL_SPACE
0
ENDBLK
5
21
100
AcDbEntity
100
AcDbBlockEnd
0
BLOCK
5
1C
100
AcDbEntity
100
AcDbBlockBegin
2
*PAPER_SPACE
0
ENDBLK
5
1D
100
AcDbEntity
100
AcDbBlockEnd
0
ENDSEC
0
SECTION
2
ENTITIES
0
LWPOLYLINE
5
100
100
AcDbEntity
8
OUTER_PROFILES
100
AcDbPolyline
90
40
70
1
43
0.0
10
-2.0707106781186724
20
200.5238934211992
10
-4.332657388698351
20
202.5238934187216
42
0.19891236737901377
10
-5.7468709510466311
20
201.93810698355412
10
-20.33265738870341
20
187.35232054593871
10
-22.594604099300568
20
184.45318273626862
10
-24.594604099156072
20
182.45318273532894
10
-24.594604099300028
20
24.594604099290063
10
-22.594604099300426
20
22.59460409930162
10
-20.332657388703268
20
20.524000202356078
10
-4.3326573887033248
20
20.52400020235623
10
-2.0707106781186724
20
22.52389342116949
10
-2.9706038969318627
20
20.261946710584759
10
-2.9706038969321469
20
4.2619467105847324
10
-2.0000000000000284
20
1.9999999999999574
10
0
20
0
10
1088.8585786437627
20
6.3948846218409017e-13
10
1090.8585786437623
20
2.0000000000004547
10
1091.8291825406943
20
4.2619467106396947
10
1091.8291825406948
20
20.261946710585313
10
1090.9292893218815
20
22.523893421170058
10
1093.1912360324661
20
20.524000202356731
10
1109.1912360324661
20
20.524000202356738
10
1111.4531827430196
20
22.594604099302209
10
1113.4531827430187
20
24.594604099287608
10
1113.4531827428748
20
182.45318273532951
10
1111.4531827430192
20
184.45318273626918
10
1109.1912360324661
20
187.35232054594522
10
1094.6054495948333
20
201.93810698357285
42
0.19891236737945814
10
1093.1912360324618
20
202.52389342119972
10
1090.9292893218812
20
200.52389342119977
10
1091.8292893218813
20
203.91681348708568
10
1091.8292893218813
20
225.25823048505367
10
1091.3792893218813
20
226.54423048505365
10
1090.8585786454364
20
227.67520384383198
10
1088.8585786508834
20
229.67520384107354
10
-3.6079939036426367e-09
20
229.67520384110642
10
-2.0000000033755327
20
227.67520384034626
10
-2.5207106781188315
20
226.54423048505308
10
-2.9707106781188486
20
225.2582304850531
10
-2.9707106781187065
20
203.91681348708514
0
LINE
5
101
100
AcDbEntity
8
BEND
100
AcDbLine
10
-2.4853019484662298
20
3.1309733552923924
30
1.0762335467262574e-10
11
1091.3438805922046
21
3.1309733552933405
31
3.1013802637147333e-11
0
LINE
5
102
100
AcDbEntity
8
BEND
100
AcDbLine
10
-21.463630744001847
20
185.90275164110403
30
1.0877013524828008e-10
11
-21.463630744001847
21
21.559302150835862
31
1.089722756475453e-10
0
LINE
5
103
100
AcDbEntity
8
BEND
100
AcDbLine
10
1091.1189339845102
20
227.10971716269952
30
1.1013995271369457e-10
11
-2.2603553407476795
21
227.10971716269896
31
1.0817072480099081e-10
0
LINE
5
104
100
AcDbEntity
8
BEND
100
AcDbLine
10
1110.3222093877428
20
21.559302150836366
30
1.0900336189223456e-10
11
1110.3222093877425
21
185.9027516411044
31
1.0903190267786157e-10
0
LINE
5
105
100
AcDbEntity
8
BEND
100
AcDbLine
10
-3.2016840334111407
20
201.52389341873644
30
1.0848766329729642e-10
11
-3.2016840334109986
21
21.523946811762897
31
1.0848433262822255e-10
0
LINE
5
106
100
AcDbEntity
8
BEND
100
AcDbLine
10
1091.3792893218811
20
202.22035345414267
30
1.0862644117537432e-10
11
-2.5207106781186894
21
202.22035345414213
31
1.0863920874015776e-10
0
LINE
5
107
100
AcDbEntity
8
BEND
100
AcDbLine
10
1092.0602626771736
20
21.523946811763466
30
1.0856981980111844e-10
11
1092.0602626771736
21
201.52389341873712
31
1.0855705223633525e-10
0
LINE
5
108
100
AcDbEntity
8
BEND
100
AcDbLine
10
-2.5206572875252675
20
21.392920065877096
30
1.0852235776681596e-10
11
1091.3792359312881
21
21.392920065877664
31
1.0852235776681571e-10
0
LINE
5
109
100
AcDbEntity
8
BEND_EXTENT
100
AcDbLine
10
-20.33265738870341
20
187.35232054593871
30
1.088618084565951e-10
11
-20.332657388703268
21
20.524000202356092
31
1.1284084777685166e-10
0
LINE
5
110
100
AcDbEntity
8
BEND_EXTENT
100
AcDbLine
10
-22.594604099300426
20
22.59460409930162
30
5.4933835258452746e-11
11
-22.594604099300568
21
184.45318273626862
31
1.0804024341837248e-10
0
LINE
5
111
100
AcDbEntity
8
BEND_EXTENT
100
AcDbLine
10
1093.1912360324618
20
202.52389341872089
30
1.0864864563586682e-10
11
1093.1912360324661
21
20.524000202356731
31
1.0857759136229081e-10
0
LWPOLYLINE
5
112
100
AcDbEntity
8
BEND_EXTENT
100
AcDbPolyline
90
4
70
1
43
0.0
10
1090.9292893218815
20
22.523893421170058
10
1090.9292893218812
20
200.52389342119977
10
-2.0707106781186724
20
200.5238934211992
10
-2.0707106781186724
20
22.52389342116949
0
LINE
5
113
100
AcDbEntity
8
BEND_EXTENT
100
AcDbLine
10
-4.3326573887033248
20
20.52400020235623
30
1.0857759136229106e-10
11
-4.332657388698351
21
202.5238934187216
31
1.0857759136229106e-10
0
LINE
5
114
100
AcDbEntity
8
BEND_EXTENT
100
AcDbLine
10
1090.8585786437623
20
2.0000000000004547
30
-7.6605388699160035e-13
11
-2.0000000000000284
21
1.9999999999999574
31
5.3366200347682018e-11
0
LINE
5
115
100
AcDbEntity
8
BEND_EXTENT
100
AcDbLine
10
-2.9706038969321469
20
4.2619467105847324
30
1.0765388580580293e-10
11
1091.8291825406943
21
4.2619467106396947
31
1.0758283153222667e-10
0
LINE
5
116
100
AcDbEntity
8
BEND_EXTENT
100
AcDbLine
10
1109.1912360324661
20
20.524000202356738
30
1.0871969990944283e-10
11
1109.1912360324661
21
187.35232054594522
31
1.0843548281513879e-10
0
LINE
5
117
100
AcDbEntity
8
BEND_EXTENT
100
AcDbLine
10
1111.4531827430192
20
184.45318273626918
30
1.0748735235210891e-10
11
1111.4531827430196
21
22.594604099302202
31
4.433786671143e-11
0
LINE
5
118
100
AcDbEntity
8
BEND_EXTENT
100
AcDbLine
10
1091.8291825406948
20
20.261946710585313
30
1.0857759136229081e-10
11
-2.9706038969318627
21
20.261946710584759
31
1.0857759136229106e-10
0
LINE
5
119
100
AcDbEntity
8
BEND_EXTENT
100
AcDbLine
10
-2.0000000033755327
20
227.67520384034626
30
1.1002532218640226e-10
11
1090.8585786454364
21
227.67520384383198
31
1.091993162560809e-10
0
LINE
5
120
100
AcDbEntity
8
BEND_EXTENT
100
AcDbLine
10
1091.3792893218813
20
226.54423048505365
30
1.0980327758147699e-10
11
-2.5207106781188315
21
226.54423048505308
31
1.0898615343535312e-10
0
LINE
5
121
100
AcDbEntity
8
BEND_EXTENT
100
AcDbLine
10
-2.9707106781187065
20
203.91681348708514
30
1.0873746347783708e-10
11
1091.8292893218813
21
203.91681348708568
31
1.106204017276011e-10
0
ENDSEC
0
SECTION
2
OBJECTS
0
DICTIONARY
5
C
100
AcDbDictionary
3
ACAD_GROUP
350
D
3
ACAD_MLINESTYLE
350
17
0
DICTIONARY
5
D
100
AcDbDictionary
0
DICTIONARY
5
1A
330
C
100
AcDbDictionary
0
DICTIONARY
5
17
100
AcDbDictionary
0
ENDSEC
0
EOF
