0
SECTION
2
HEADER
9
$INSUNITS
70
4
9
$ACADVER
1
AC1014
9
$HANDSEED
5
FFFF
0
ENDSEC
0
SECTION
2
TABLES
0
TABLE
2
VPORT
5
8
100
AcDbSymbolTable
0
ENDTAB
0
TABLE
2
LTYPE
5
5
100
AcDbSymbolTable
0
LTYPE
5
14
100
AcDbSymbolTableRecord
100
AcDbLinetypeTableRecord
2
BYBLOCK
70
0
0
LTYPE
5
15
100
AcDbSymbolTableRecord
100
AcDbLinetypeTableRecord
2
BYLAYER
70
0
0
LTYPE
5
16
100
AcDbSymbolTableRecord
100
AcDbLinetypeTableRecord
2
DASHED
70
0
3
Dashed __ __ __ __ __ __ __ __ __ __ __ __ __ _
72
65
73
2
40
0.75
49
0.5
74
0
49
-0.25
74
0
0
ENDTAB
0
TABLE
2
LAYER
5
2
100
AcDbSymbolTable
70
2
0
LAYER
5
50
100
AcDbSymbolTableRecord
100
AcDbLayerTableRecord
2
0
70
0
62
7
6
CONTINUOUS
0
ENDTAB
0
TABLE
2
STYLE
5
3
100
AcDbSymbolTable
70
1
0
STYLE
5
11
100
AcDbSymbolTableRecord
100
AcDbTextStyleTableRecord
2
STANDARD
70
0
0
ENDTAB
0
TABLE
2
VIEW
5
6
100
AcDbSymbolTable
70
0
0
ENDTAB
0
TABLE
2
UCS
5
7
100
AcDbSymbolTable
70
0
0
ENDTAB
0
TABLE
2
APPID
5
9
100
AcDbSymbolTable
70
2
0
APPID
5
12
100
AcDbSymbolTableRecord
100
AcDbRegAppTableRecord
2
ACAD
70
0
0
ENDTAB
0
TABLE
2
DIMSTYLE
5
A
100
AcDbSymbolTable
70
1
0
ENDTAB
0
TABLE
2
BLOCK_RECORD
5
1
100
AcDbSymbolTable
70
1
0
BLOCK_RECORD
5
1F
100
AcDbSymbolTableRecord
100
AcDbBlockTableRecord
2
*MODEL_SPACE
0
BLOCK_RECORD
5
1B
100
AcDbSymbolTableRecord
100
AcDbBlockTableRecord
2
*PAPER_SPACE
0
ENDTAB
0
ENDSEC
0
SECTION
2
BLOCKS
0
BLOCK
5
20
100
AcDbEntity
100
AcDbBlockBegin
2
*MODEL_SPACE
0
ENDBLK
5
21
100
AcDbEntity
100
AcDbBlockEnd
0
BLOCK
5
1C
100
AcDbEntity
100
AcDbBlockBegin
2
*PAPER_SPACE
0
ENDBLK
5
1D
100
AcDbEntity
100
AcDbBlockEnd
0
ENDSEC
0
SECTION
2
ENTITIES
0
LWPOLYLINE
5
100
100
AcDbEntity
8
OUTER_PROFILES
100
AcDbPolyline
90
40
70
1
43
0.0
10
-22.594604099281383
20
22.594604099301122
10
-20.332657388702913
20
20.524000202355651
10
-4.3326573887029696
20
20.524000202355662
10
-2.0707106781183171
20
22.523893421168989
10
-2.9706038969320048
20
20.261946710584354
10
-2.9706038969317916
20
4.2619467105843771
10
-1.9999999999996732
20
2.000000000000024
10
0
20
2.7755575615628914e-16
10
588.85857864376339
20
4.2632564145606011e-13
10
590.85857864376339
20
2.0000000000002416
10
591.82918254069511
20
4.2619467106455433
10
591.829182540695
20
20.261946710584713
10
590.9292893218817
20
22.523893421169348
10
593.19123603246624
20
20.524000202356163
10
609.19123603246624
20
20.524000202355957
10
611.45318274306089
20
22.594604099301364
10
613.45318274305998
20
24.594604099287039
10
613.4531827427254
20
387.45318274649952
10
611.45318274306067
20
389.45318274698298
10
609.19123603246601
20
392.35232054588806
10
594.60544959483593
20
406.93810698351314
42
0.19891236737962101
10
593.19123603246317
20
407.52389342114009
10
590.92928932188147
20
405.52389342114003
10
591.82928932188156
20
408.91681348703025
10
591.82928932188145
20
430.25823048499836
10
591.37928932188152
20
431.54423048499837
10
590.85857864576747
20
432.67520383833096
10
588.85857864411139
20
434.67520383675742
10
-4.2422243495821021e-09
20
434.67520384068871
10
-2.0000000039961208
20
432.67520384029638
10
-2.5207106781185473
20
431.54423048499802
10
-2.9707106781185644
20
430.25823048499802
10
-2.9707106781185644
20
408.91681348702997
10
-2.0707106781185303
20
405.52389342113969
10
-4.3326573887001274
20
407.5238934186919
42
0.19891236737935841
10
-5.7468709510921867
20
406.93810698353508
10
-20.332657388703126
20
392.35232054588442
10
-22.594604099281526
20
389.45318274698258
10
-24.594604098946107
20
387.45318274649918
10
-24.594604099281199
20
24.594604099289583
0
LINE
5
101
100
AcDbEntity
8
BEND
100
AcDbLine
10
-2.4853019484660166
20
3.1309733552920949
30
2.4277579946385686e-10
11
591.34388059220328
21
3.1309733552929231
31
1.5706436151674531e-10
0
LINE
5
102
100
AcDbEntity
8
BEND
100
AcDbLine
10
-21.463630743992397
20
390.90275164643339
30
2.4196444152354379e-10
11
-21.463630743992184
21
21.559302150835222
31
2.4209551030551784e-10
0
LINE
5
103
100
AcDbEntity
8
BEND
100
AcDbLine
10
591.11893398482073
20
432.1097171626468
30
2.4145296873001578e-10
11
-2.2603553410579025
21
432.10971716264652
31
2.4608460576354848e-10
0
LINE
5
104
100
AcDbEntity
8
BEND
100
AcDbLine
10
610.32220938776345
20
21.55930215083545
30
2.4323515424029531e-10
11
610.32220938776322
21
390.90275164643407
31
2.427473673236446e-10
0
LINE
5
105
100
AcDbEntity
8
BEND
100
AcDbLine
10
-3.2016840334108565
20
406.52389341867729
30
2.419570099831958e-10
11
-3.2016840334106433
21
21.523946811762329
31
2.4196644687890512e-10
0
LINE
5
106
100
AcDbEntity
8
BEND
100
AcDbLine
10
591.37928932188152
20
407.22035345408523
30
2.4193952397055775e-10
11
-2.5207106781185473
21
407.22035345408483
31
2.4193813619177718e-10
0
LINE
5
107
100
AcDbEntity
8
BEND
100
AcDbLine
10
592.06026267717391
20
21.523946811762755
30
2.419481281989986e-10
11
592.06026267717368
21
406.52389341867752
31
2.4193869130328928e-10
0
LINE
5
108
100
AcDbEntity
8
BEND
100
AcDbLine
10
-2.5206572875250544
20
21.39292006587668
30
2.4190122127620839e-10
11
591.37923593128835
21
21.392920065877036
31
2.4190122127620818e-10
0
LINE
5
109
100
AcDbEntity
8
BEND_EXTENT
100
AcDbLine
10
-20.332657388703126
20
392.35232054588442
30
2.4199309223149617e-10
11
-20.332657388702913
21
20.524000202355666
31
2.4000357257136789e-10
0
LINE
5
110
100
AcDbEntity
8
BEND_EXTENT
100
AcDbLine
10
-22.594604099281383
20
22.594604099301122
30
1.2015721750913147e-10
11
-22.594604099281526
21
389.45318274698258
31
2.411248978262393e-10
0
LINE
5
111
100
AcDbEntity
8
BEND_EXTENT
100
AcDbLine
10
593.19123603246317
20
407.52389341869133
30
2.419220379579199e-10
11
593.19123603246624
21
20.524000202356163
31
2.419220379579199e-10
0
LWPOLYLINE
5
112
100
AcDbEntity
8
BEND_EXTENT
100
AcDbPolyline
90
4
70
1
43
0.0
10
590.9292893218817
20
22.523893421169348
10
590.92928932188147
20
405.52389342114003
10
-2.0707106781185303
20
405.52389342113969
10
-2.0707106781183171
20
22.523893421168992
0
LINE
5
113
100
AcDbEntity
8
BEND_EXTENT
100
AcDbLine
10
-4.3326573887029696
20
20.524000202355662
30
2.4195756509470812e-10
11
-4.3326573887001274
21
407.5238934186919
31
2.4195756509470812e-10
0
LINE
5
114
100
AcDbEntity
8
BEND_EXTENT
100
AcDbLine
10
590.85857864376339
20
2.0000000000002416
30
6.031175558973681e-11
11
-1.9999999999996732
21
2.000000000000024
31
1.2077006061872455e-10
0
LINE
5
115
100
AcDbEntity
8
BEND_EXTENT
100
AcDbLine
10
-2.9706038969317916
20
4.2619467105843771
30
2.4270363496725622e-10
11
591.82918254069511
21
4.2619467106455433
31
2.4256152642010399e-10
0
LINE
5
116
100
AcDbEntity
8
BEND_EXTENT
100
AcDbLine
10
609.19123603246624
20
20.524000202355957
30
2.4312996060871207e-10
11
609.19123603246601
21
392.35232054588806
31
2.4312996060871207e-10
0
LINE
5
117
100
AcDbEntity
8
BEND_EXTENT
100
AcDbLine
10
611.45318274306067
20
389.45318274698298
30
2.4235946582962222e-10
11
611.45318274306089
21
22.59460409930135
31
1.2458256648528711e-10
0
LINE
5
118
100
AcDbEntity
8
BEND_EXTENT
100
AcDbLine
10
591.829182540695
20
20.261946710584713
30
2.419220379579199e-10
11
-2.9706038969320048
21
20.261946710584354
31
2.4192203795792011e-10
0
LINE
5
119
100
AcDbEntity
8
BEND_EXTENT
100
AcDbLine
10
-2.0000000039961208
20
432.67520384029638
30
2.4130919484832702e-10
11
590.85857864576747
21
432.67520383833096
31
2.4384938512866918e-10
0
LINE
5
120
100
AcDbEntity
8
BEND_EXTENT
100
AcDbLine
10
591.37928932188152
20
431.54423048499837
30
2.4114210628312073e-10
11
-2.5207106781185473
21
431.54423048499802
31
2.4362678541223204e-10
0
LINE
5
121
100
AcDbEntity
8
BEND_EXTENT
100
AcDbLine
10
-2.9707106781185644
20
408.91681348702997
30
2.419436873069003e-10
11
591.82928932188156
21
408.91681348703025
31
2.4475144133617712e-10
0
ENDSEC
0
SECTION
2
OBJECTS
0
DICTIONARY
5
C
100
AcDbDictionary
3
ACAD_GROUP
350
D
3
ACAD_MLINESTYLE
350
17
0
DICTIONARY
5
D
100
AcDbDictionary
0
DICTIONARY
5
1A
330
C
100
AcDbDictionary
0
DICTIONARY
5
17
100
AcDbDictionary
0
ENDSEC
0
EOF
