0
SECTION
2
HEADER
9
$INSUNITS
70
4
9
$ACADVER
1
AC1014
9
$HANDSEED
5
FFFF
0
ENDSEC
0
SECTION
2
TABLES
0
TABLE
2
VPORT
5
8
100
AcDbSymbolTable
0
ENDTAB
0
TABLE
2
LTYPE
5
5
100
AcDbSymbolTable
0
LTYPE
5
14
100
AcDbSymbolTableRecord
100
AcDbLinetypeTableRecord
2
BYBLOCK
70
0
0
LTYPE
5
15
100
AcDbSymbolTableRecord
100
AcDbLinetypeTableRecord
2
BYLAYER
70
0
0
LTYPE
5
16
100
AcDbSymbolTableRecord
100
AcDbLinetypeTableRecord
2
DASHED
70
0
3
Dashed __ __ __ __ __ __ __ __ __ __ __ __ __ _
72
65
73
2
40
0.75
49
0.5
74
0
49
-0.25
74
0
0
ENDTAB
0
TABLE
2
LAYER
5
2
100
AcDbSymbolTable
70
2
0
LAYER
5
50
100
AcDbSymbolTableRecord
100
AcDbLayerTableRecord
2
0
70
0
62
7
6
CONTINUOUS
0
ENDTAB
0
TABLE
2
STYLE
5
3
100
AcDbSymbolTable
70
1
0
STYLE
5
11
100
AcDbSymbolTableRecord
100
AcDbTextStyleTableRecord
2
STANDARD
70
0
0
ENDTAB
0
TABLE
2
VIEW
5
6
100
AcDbSymbolTable
70
0
0
ENDTAB
0
TABLE
2
UCS
5
7
100
AcDbSymbolTable
70
0
0
ENDTAB
0
TABLE
2
APPID
5
9
100
AcDbSymbolTable
70
2
0
APPID
5
12
100
AcDbSymbolTableRecord
100
AcDbRegAppTableRecord
2
ACAD
70
0
0
ENDTAB
0
TABLE
2
DIMSTYLE
5
A
100
AcDbSymbolTable
70
1
0
ENDTAB
0
TABLE
2
BLOCK_RECORD
5
1
100
AcDbSymbolTable
70
1
0
BLOCK_RECORD
5
1F
100
AcDbSymbolTableRecord
100
AcDbBlockTableRecord
2
*MODEL_SPACE
0
BLOCK_RECORD
5
1B
100
AcDbSymbolTableRecord
100
AcDbBlockTableRecord
2
*PAPER_SPACE
0
ENDTAB
0
ENDSEC
0
SECTION
2
BLOCKS
0
BLOCK
5
20
100
AcDbEntity
100
AcDbBlockBegin
2
*MODEL_SPACE
0
ENDBLK
5
21
100
AcDbEntity
100
AcDbBlockEnd
0
BLOCK
5
1C
100
AcDbEntity
100
AcDbBlockBegin
2
*PAPER_SPACE
0
ENDBLK
5
1D
100
AcDbEntity
100
AcDbBlockEnd
0
ENDSEC
0
SECTION
2
ENTITIES
0
LWPOLYLINE
5
100
100
AcDbEntity
8
OUTER_PROFILES
100
AcDbPolyline
90
40
70
1
43
0.0
10
809.19123603246692
20
20.524000202356376
10
811.45318274305828
20
22.594604099302131
10
813.4531827430576
20
24.594604099288162
10
813.45318274272495
20
387.45318274589664
10
811.45318274305794
20
389.4531827465139
10
809.19123603246703
20
392.35232054588715
10
794.60544959483582
20
406.93810698351319
42
0.1989123673969676
10
793.19123603232947
20
407.52389342114009
10
790.92928932188227
20
405.52389342114009
10
791.82928932188247
20
408.91681348703031
10
791.82928932188247
20
430.25823048499831
10
791.37928932188242
20
431.54423048499831
10
790.85857864552486
20
432.67520383856538
10
788.85857864411332
20
434.67520383735905
10
-3.7489655824174406e-09
20
434.67520384082377
10
-2.0000000035047094
20
432.67520384029763
10
-2.5207106781175526
20
431.54423048499825
10
-2.9707106781175696
20
430.25823048499825
10
-2.9707106781175696
20
408.91681348703025
10
-2.0707106781175355
20
405.52389342114003
10
-4.3326573886311337
20
407.52389341869218
42
0.19891236738794058
10
-5.7468709510896385
20
406.93810698353616
10
-20.332657388701989
20
392.35232054588272
10
-22.594604099282378
20
389.45318274651385
10
-24.594604098949304
20
387.45318274589658
10
-24.594604099282549
20
24.594604099291359
10
-22.594604099282378
20
22.594604099301989
10
-20.332657388701989
20
20.524000202356305
10
-4.3326573887020459
20
20.524000202356305
10
-2.0707106781175355
20
22.523893421169632
10
-2.97060389693101
20
20.261946710585033
10
-2.9706038969308679
20
4.2619467105850788
10
-1.9999999999997442
20
2.0000000000005258
10
0
20
0
10
788.85857864376487
20
4.9737991503207013e-13
10
790.8585786437643
20
2.0000000000006679
10
791.82918254069534
20
4.2619467106411228
10
791.82918254069591
20
20.261946710585072
10
790.92928932188238
20
22.523893421169703
10
793.19123603246703
20
20.524000202356376
0
LINE
5
101
100
AcDbEntity
8
BEND
100
AcDbLine
10
-2.4853019484653771
20
3.1309733552931007
30
2.4322766023487929e-10
11
791.34388059220532
21
3.1309733552936136
31
1.6422502246982157e-10
0
LINE
5
102
100
AcDbEntity
8
BEND
100
AcDbLine
10
-21.463630743992326
20
390.902751646198
30
2.4329900850108588e-10
11
-21.463630743992326
21
21.559302150836004
31
2.4409196885954998e-10
0
LINE
5
103
100
AcDbEntity
8
BEND
100
AcDbLine
10
791.11893398457653
20
432.10971716264726
30
2.4257568176366812e-10
11
-2.2603553408117705
21
432.10971716264714
31
2.4837241091465592e-10
0
LINE
5
104
100
AcDbEntity
8
BEND
100
AcDbLine
10
810.32220938776231
20
21.559302150835755
30
2.4320323532833749e-10
11
810.3222093877622
21
390.90275164619857
31
2.430269071209141e-10
0
LINE
5
105
100
AcDbEntity
8
BEND
100
AcDbLine
10
-3.2016840334098617
20
406.5238934186774
30
2.4349161575898393e-10
11
-3.2016840334098617
21
21.523946811762968
31
2.4344387616892504e-10
0
LINE
5
106
100
AcDbEntity
8
BEND
100
AcDbLine
10
791.37928932188231
20
407.22035345408523
30
2.4348606464386075e-10
11
-2.5207106781175526
21
407.22035345408517
31
2.4348689731112927e-10
0
LINE
5
107
100
AcDbEntity
8
BEND
100
AcDbLine
10
792.06026267717471
20
21.523946811763039
30
2.4345053750707274e-10
11
792.06026267717459
21
406.52389341867746
31
2.4344776194951118e-10
0
LINE
5
108
100
AcDbEntity
8
BEND
100
AcDbLine
10
-2.5206572875242728
20
21.392920065877302
30
2.4344887217253586e-10
11
791.37923593128926
21
21.392920065877373
31
2.4344887217253581e-10
0
LINE
5
109
100
AcDbEntity
8
BEND_EXTENT
100
AcDbLine
10
-20.332657388701989
20
392.35232054588272
30
2.4389379404965439e-10
11
-20.332657388701989
21
20.524000202356305
31
2.4275692567243823e-10
0
LINE
5
110
100
AcDbEntity
8
BEND_EXTENT
100
AcDbLine
10
-22.594604099282378
20
22.594604099301989
30
1.22317711515052e-10
11
-22.594604099282378
21
389.45318274651385
31
2.4357404981856234e-10
0
LINE
5
111
100
AcDbEntity
8
BEND_EXTENT
100
AcDbLine
10
793.19123603232947
20
407.52389341864847
30
2.4332535986104626e-10
11
793.19123603246703
21
20.524000202356376
31
2.4339641413462227e-10
0
LWPOLYLINE
5
112
100
AcDbEntity
8
BEND_EXTENT
100
AcDbPolyline
90
4
70
1
43
0.0
10
790.92928932188238
20
22.523893421169703
10
790.92928932188227
20
405.52389342114009
10
-2.0707106781175355
20
405.52389342114003
10
-2.0707106781175355
20
22.523893421169632
0
LINE
5
113
100
AcDbEntity
8
BEND_EXTENT
100
AcDbLine
10
-4.3326573887020459
20
20.524000202356305
30
2.4339641413462232e-10
11
-4.3326573886311337
21
407.52389341869218
31
2.4332535986104631e-10
0
LINE
5
114
100
AcDbEntity
8
BEND_EXTENT
100
AcDbLine
10
790.8585786437643
20
2.0000000000006679
30
6.5294436524254681e-11
11
-1.9999999999997442
21
2.0000000000005258
31
1.2088108292118704e-10
0
LINE
5
115
100
AcDbEntity
8
BEND_EXTENT
100
AcDbLine
10
-2.9706038969308679
20
4.2619467105850788
30
2.4304114276674227e-10
11
791.82918254069534
21
4.2619467106411228
31
2.4282797994601419e-10
0
LINE
5
116
100
AcDbEntity
8
BEND_EXTENT
100
AcDbLine
10
809.19123603246692
20
20.524000202356376
30
2.4325430558747025e-10
11
809.19123603246703
21
392.35232054588715
31
2.4325430558747025e-10
0
LINE
5
117
100
AcDbEntity
8
BEND_EXTENT
100
AcDbLine
10
811.45318274305794
20
389.4531827465139
30
2.4247936991628189e-10
11
811.45318274305828
21
22.594604099302131
31
1.2334133714375637e-10
0
LINE
5
118
100
AcDbEntity
8
BEND_EXTENT
100
AcDbLine
10
791.82918254069591
20
20.261946710585072
30
2.4332535986104626e-10
11
-2.97060389693101
21
20.261946710585033
31
2.4332535986104631e-10
0
LINE
5
119
100
AcDbEntity
8
BEND_EXTENT
100
AcDbLine
10
-2.0000000035047094
20
432.67520384029763
30
2.4261037623318771e-10
11
790.85857864552486
21
432.67520383856538
31
2.4570123713374409e-10
0
LINE
5
120
100
AcDbEntity
8
BEND_EXTENT
100
AcDbLine
10
791.37928932188242
20
431.54423048499831
30
2.4226232131496767e-10
11
-2.5207106781175526
21
431.54423048499825
31
2.453243164168839e-10
0
LINE
5
121
100
AcDbEntity
8
BEND_EXTENT
100
AcDbLine
10
-2.9707106781175696
20
408.91681348703025
30
2.4347246441180914e-10
11
791.82928932188247
21
408.91681348703031
31
2.4627688777201224e-10
0
ENDSEC
0
SECTION
2
OBJECTS
0
DICTIONARY
5
C
100
AcDbDictionary
3
ACAD_GROUP
350
D
3
ACAD_MLINESTYLE
350
17
0
DICTIONARY
5
D
100
AcDbDictionary
0
DICTIONARY
5
1A
330
C
100
AcDbDictionary
0
DICTIONARY
5
17
100
AcDbDictionary
0
ENDSEC
0
EOF
