0
SECTION
2
HEADER
9
$INSUNITS
70
4
9
$ACADVER
1
AC1014
9
$HANDSEED
5
FFFF
0
ENDSEC
0
SECTION
2
TABLES
0
TABLE
2
VPORT
5
8
100
AcDbSymbolTable
0
ENDTAB
0
TABLE
2
LTYPE
5
5
100
AcDbSymbolTable
0
LTYPE
5
14
100
AcDbSymbolTableRecord
100
AcDbLinetypeTableRecord
2
BYBLOCK
70
0
0
LTYPE
5
15
100
AcDbSymbolTableRecord
100
AcDbLinetypeTableRecord
2
BYLAYER
70
0
0
LTYPE
5
16
100
AcDbSymbolTableRecord
100
AcDbLinetypeTableRecord
2
DASHED
70
0
3
Dashed __ __ __ __ __ __ __ __ __ __ __ __ __ _
72
65
73
2
40
0.75
49
0.5
74
0
49
-0.25
74
0
0
ENDTAB
0
TABLE
2
LAYER
5
2
100
AcDbSymbolTable
70
2
0
LAYER
5
50
100
AcDbSymbolTableRecord
100
AcDbLayerTableRecord
2
0
70
0
62
7
6
CONTINUOUS
0
ENDTAB
0
TABLE
2
STYLE
5
3
100
AcDbSymbolTable
70
1
0
STYLE
5
11
100
AcDbSymbolTableRecord
100
AcDbTextStyleTableRecord
2
STANDARD
70
0
0
ENDTAB
0
TABLE
2
VIEW
5
6
100
AcDbSymbolTable
70
0
0
ENDTAB
0
TABLE
2
UCS
5
7
100
AcDbSymbolTable
70
0
0
ENDTAB
0
TABLE
2
APPID
5
9
100
AcDbSymbolTable
70
2
0
APPID
5
12
100
AcDbSymbolTableRecord
100
AcDbRegAppTableRecord
2
ACAD
70
0
0
ENDTAB
0
TABLE
2
DIMSTYLE
5
A
100
AcDbSymbolTable
70
1
0
ENDTAB
0
TABLE
2
BLOCK_RECORD
5
1
100
AcDbSymbolTable
70
1
0
BLOCK_RECORD
5
1F
100
AcDbSymbolTableRecord
100
AcDbBlockTableRecord
2
*MODEL_SPACE
0
BLOCK_RECORD
5
1B
100
AcDbSymbolTableRecord
100
AcDbBlockTableRecord
2
*PAPER_SPACE
0
ENDTAB
0
ENDSEC
0
SECTION
2
BLOCKS
0
BLOCK
5
20
100
AcDbEntity
100
AcDbBlockBegin
2
*MODEL_SPACE
0
ENDBLK
5
21
100
AcDbEntity
100
AcDbBlockEnd
0
BLOCK
5
1C
100
AcDbEntity
100
AcDbBlockBegin
2
*PAPER_SPACE
0
ENDBLK
5
1D
100
AcDbEntity
100
AcDbBlockEnd
0
ENDSEC
0
SECTION
2
ENTITIES
0
LWPOLYLINE
5
100
100
AcDbEntity
8
OUTER_PROFILES
100
AcDbPolyline
90
40
70
1
43
0.0
10
-22.594604099261772
20
22.594604099301847
10
-20.332657388703126
20
20.524000202356447
10
-4.3326573887031827
20
20.524000202356305
10
-2.0707106781185303
20
22.523893421169774
10
-2.9706038969321469
20
20.261946710585161
10
-2.9706038969320048
20
4.2619467105851001
10
-1.9999999999997442
20
2.0000000000005258
10
0
20
0
10
988.85857864376294
20
5.6843418860808015e-13
10
990.85857864376271
20
2.0000000000003837
10
991.82918254069466
20
4.2619467106411779
10
991.82918254069477
20
20.261946710585157
10
990.92928932188147
20
22.523893421169774
10
993.19123603246612
20
20.524000202356447
10
1009.191236032466
20
20.524000202356447
10
1011.4531827430392
20
22.594604099301776
10
1013.4531827430383
20
24.594604099287523
10
1013.4531827427063
20
387.45318274529257
10
1011.453182743039
20
389.45318274604404
10
1009.191236032466
20
392.35232054588596
10
994.60544959483389
20
406.93810698351297
42
0.19891236737931373
10
993.19123603246339
20
407.52389342113986
10
990.92928932188147
20
405.52389342113992
10
991.82928932188156
20
408.91681348703008
10
991.82928932188145
20
430.25823048499819
10
991.37928932188152
20
431.54423048499814
10
990.85857864526793
20
432.67520383879679
10
988.85857864411321
20
434.67520383795795
10
-3.2379432468587765e-09
20
434.67520384095513
10
-2.0000000029928344
20
432.67520384029535
10
-2.5207106781185473
20
431.54423048499814
10
-2.9707106781185644
20
430.25823048499819
10
-2.9707106781185644
20
408.91681348703014
10
-2.0707106781185303
20
405.52389342113992
10
-4.3326573886990616
20
407.52389341869213
42
0.19891236737901838
10
-5.7468709510893126
20
406.93810698353673
10
-20.332657388702984
20
392.35232054588062
10
-22.594604099261772
20
389.45318274604404
10
-24.594604098929125
20
387.45318274529257
10
-24.594604099262227
20
24.594604099291359
0
LINE
5
101
100
AcDbEntity
8
BEND
100
AcDbLine
10
-2.4853019484662298
20
3.1309733552927055
30
2.4368201900770714e-10
11
991.34388059220453
21
3.1309733552931629
31
1.6463608254468904e-10
0
LINE
5
102
100
AcDbEntity
8
BEND
100
AcDbLine
10
-21.463630743982662
20
390.9027516459617
30
2.4403965976881807e-10
11
-21.463630743982662
21
21.559302150836217
31
2.4431290324145039e-10
0
LINE
5
103
100
AcDbEntity
8
BEND
100
AcDbLine
10
991.11893398431903
20
432.10971716264601
30
2.4424157141211822e-10
11
-2.2603553405561172
21
432.10971716264601
31
2.4722172944678399e-10
0
LINE
5
104
100
AcDbEntity
8
BEND
100
AcDbLine
10
1010.3222093877523
20
21.559302150835968
30
2.4276636256814754e-10
11
1010.3222093877521
21
390.9027516459625
31
2.4270744529739255e-10
0
LINE
5
105
100
AcDbEntity
8
BEND
100
AcDbLine
10
-3.2016840334109986
20
406.5238934186774
30
2.447039793018746e-10
11
-3.2016840334109986
21
21.523946811763039
31
2.4471341619758391e-10
0
LINE
5
106
100
AcDbEntity
8
BEND
100
AcDbLine
10
991.37928932188152
20
407.22035345408506
30
2.4471341619758391e-10
11
-2.5207106781185473
21
407.22035345408506
31
2.4471202841880313e-10
0
LINE
5
107
100
AcDbEntity
8
BEND
100
AcDbLine
10
992.0602626771738
20
21.523946811763182
30
2.4466956238811122e-10
11
992.0602626771738
21
406.52389341867723
31
2.447173019781701e-10
0
LINE
5
108
100
AcDbEntity
8
BEND
100
AcDbLine
10
-2.5206572875252675
20
21.392920065877444
30
2.4467677883777128e-10
11
991.37923593128801
21
21.392920065877444
31
2.4467677883777128e-10
0
LINE
5
109
100
AcDbEntity
8
BEND_EXTENT
100
AcDbLine
10
-20.332657388702984
20
392.35232054588062
30
2.4440893753308046e-10
11
-20.332657388703126
21
20.524000202356447
31
2.3609558752468729e-10
0
LINE
5
110
100
AcDbEntity
8
BEND_EXTENT
100
AcDbLine
10
-22.594604099261772
20
22.594604099301847
30
1.2239542712677576e-10
11
-22.594604099261772
21
389.45318274604404
31
2.4347635019239533e-10
0
LINE
5
111
100
AcDbEntity
8
BEND_EXTENT
100
AcDbLine
10
993.19123603246339
20
407.52389341869127
30
2.4462210035380849e-10
11
993.19123603246612
21
20.524000202356447
31
2.4462210035380849e-10
0
LWPOLYLINE
5
112
100
AcDbEntity
8
BEND_EXTENT
100
AcDbPolyline
90
4
70
1
43
0.0
10
990.92928932188147
20
22.523893421169774
10
990.92928932188147
20
405.52389342113992
10
-2.0707106781185303
20
405.52389342113992
10
-2.0707106781185303
20
22.523893421169774
0
LINE
5
113
100
AcDbEntity
8
BEND_EXTENT
100
AcDbLine
10
-4.3326573887031827
20
20.524000202356305
30
2.4462210035380849e-10
11
-4.3326573886990616
21
407.52389341869213
31
2.4462210035380849e-10
0
LINE
5
114
100
AcDbEntity
8
BEND_EXTENT
100
AcDbLine
10
990.85857864376271
20
2.0000000000003837
30
6.5498717560785735e-11
11
-1.9999999999997442
21
2.0000000000005258
31
1.2118306358388509e-10
0
LINE
5
115
100
AcDbEntity
8
BEND_EXTENT
100
AcDbLine
10
-2.9706038969320048
20
4.2619467105851001
30
2.4376944907089637e-10
11
991.82918254069466
21
4.2619467106411779
31
2.4355628625016834e-10
0
LINE
5
116
100
AcDbEntity
8
BEND_EXTENT
100
AcDbLine
10
1009.191236032466
20
20.524000202356447
30
2.4284574351440824e-10
11
1009.191236032466
21
392.35232054588596
31
2.4263258069368021e-10
0
LINE
5
117
100
AcDbEntity
8
BEND_EXTENT
100
AcDbLine
10
1011.453182743039
20
389.45318274604404
30
2.4127810860363752e-10
11
1011.4531827430392
21
22.594604099301776
31
1.1646017483712967e-10
0
LINE
5
118
100
AcDbEntity
8
BEND_EXTENT
100
AcDbLine
10
991.82918254069477
20
20.261946710585157
30
2.4462210035380849e-10
11
-2.9706038969321469
21
20.261946710585161
31
2.4462210035380849e-10
0
LINE
5
119
100
AcDbEntity
8
BEND_EXTENT
100
AcDbLine
10
-2.0000000029928344
20
432.67520384029535
30
2.4418689292815543e-10
11
990.85857864526793
21
432.67520383879679
31
2.4579449586781266e-10
0
LINE
5
120
100
AcDbEntity
8
BEND_EXTENT
100
AcDbLine
10
991.37928932188152
20
431.54423048499814
30
2.4390989228351145e-10
11
-2.5207106781185473
21
431.54423048499814
31
2.4557300637439994e-10
0
LINE
5
121
100
AcDbEntity
8
BEND_EXTENT
100
AcDbLine
10
-2.9707106781185644
20
408.91681348703014
30
2.4471813464543857e-10
11
991.82928932188156
21
408.91681348703008
31
2.4752366822866634e-10
0
ENDSEC
0
SECTION
2
OBJECTS
0
DICTIONARY
5
C
100
AcDbDictionary
3
ACAD_GROUP
350
D
3
ACAD_MLINESTYLE
350
17
0
DICTIONARY
5
D
100
AcDbDictionary
0
DICTIONARY
5
1A
330
C
100
AcDbDictionary
0
DICTIONARY
5
17
100
AcDbDictionary
0
ENDSEC
0
EOF
