0
SECTION
2
HEADER
9
$INSUNITS
70
4
9
$ACADVER
1
AC1014
9
$HANDSEED
5
FFFF
0
ENDSEC
0
SECTION
2
TABLES
0
TABLE
2
VPORT
5
8
100
AcDbSymbolTable
0
ENDTAB
0
TABLE
2
LTYPE
5
5
100
AcDbSymbolTable
0
LTYPE
5
14
100
AcDbSymbolTableRecord
100
AcDbLinetypeTableRecord
2
BYBLOCK
70
0
0
LTYPE
5
15
100
AcDbSymbolTableRecord
100
AcDbLinetypeTableRecord
2
BYLAYER
70
0
0
LTYPE
5
16
100
AcDbSymbolTableRecord
100
AcDbLinetypeTableRecord
2
DASHED
70
0
3
Dashed __ __ __ __ __ __ __ __ __ __ __ __ __ _
72
65
73
2
40
0.75
49
0.5
74
0
49
-0.25
74
0
0
ENDTAB
0
TABLE
2
LAYER
5
2
100
AcDbSymbolTable
70
2
0
LAYER
5
50
100
AcDbSymbolTableRecord
100
AcDbLayerTableRecord
2
0
70
0
62
7
6
CONTINUOUS
0
ENDTAB
0
TABLE
2
STYLE
5
3
100
AcDbSymbolTable
70
1
0
STYLE
5
11
100
AcDbSymbolTableRecord
100
AcDbTextStyleTableRecord
2
STANDARD
70
0
0
ENDTAB
0
TABLE
2
VIEW
5
6
100
AcDbSymbolTable
70
0
0
ENDTAB
0
TABLE
2
UCS
5
7
100
AcDbSymbolTable
70
0
0
ENDTAB
0
TABLE
2
APPID
5
9
100
AcDbSymbolTable
70
2
0
APPID
5
12
100
AcDbSymbolTableRecord
100
AcDbRegAppTableRecord
2
ACAD
70
0
0
ENDTAB
0
TABLE
2
DIMSTYLE
5
A
100
AcDbSymbolTable
70
1
0
ENDTAB
0
TABLE
2
BLOCK_RECORD
5
1
100
AcDbSymbolTable
70
1
0
BLOCK_RECORD
5
1F
100
AcDbSymbolTableRecord
100
AcDbBlockTableRecord
2
*MODEL_SPACE
0
BLOCK_RECORD
5
1B
100
AcDbSymbolTableRecord
100
AcDbBlockTableRecord
2
*PAPER_SPACE
0
ENDTAB
0
ENDSEC
0
SECTION
2
BLOCKS
0
BLOCK
5
20
100
AcDbEntity
100
AcDbBlockBegin
2
*MODEL_SPACE
0
ENDBLK
5
21
100
AcDbEntity
100
AcDbBlockEnd
0
BLOCK
5
1C
100
AcDbEntity
100
AcDbBlockBegin
2
*PAPER_SPACE
0
ENDBLK
5
1D
100
AcDbEntity
100
AcDbBlockEnd
0
ENDSEC
0
SECTION
2
ENTITIES
0
LWPOLYLINE
5
100
100
AcDbEntity
8
OUTER_PROFILES
100
AcDbPolyline
90
40
70
1
43
0.0
10
890.85857865062894
20
1.9999999988054284
10
891.37928932543116
20
3.1309733541012719
10
891.82928932543382
20
4.4169733541003353
10
891.82928932547668
20
25.758390352068474
10
890.9292893254833
20
29.151310417956182
10
893.19123603605976
20
27.151310420429517
42
0.19891236737915771
10
894.60544959841002
20
27.737096855594388
10
909.19123603609432
20
42.32288329317786
10
911.45318274669592
20
45.222021099357654
10
913.45318274655608
20
47.222021100068297
10
913.4531827470164
20
205.08059973981946
10
911.45318274702072
20
207.08059973981301
10
909.19123603642913
20
209.15120363676266
10
893.19123603642925
20
209.15120363679466
10
890.92928932584061
20
207.15131041798588
10
891.82918254465881
20
209.41325712856877
10
891.82918254469064
20
225.41325712856874
10
890.85857864776267
20
227.67520383915556
10
888.85857864776756
20
229.67520383915954
10
4.0040504245553166e-09
20
229.6752038409432
10
-1.9999999959978987
20
227.67520384094726
10
-2.9706038929349114
20
225.41325713030636
10
-2.9706038929685108
20
209.41325713036437
10
-2.0707106741593622
20
207.15131041977787
10
-4.3326573847400205
20
209.15120363859583
10
-20.332657384739949
20
209.15120363862792
10
-22.594604095304454
20
207.08059974168742
10
-24.59460409530729
20
205.08059974170504
10
-24.594604095480818
20
47.222021101950666
10
-22.59460409562876
20
45.222021101231995
10
-20.332657385074725
20
42.322883295038274
10
-5.7468709474723827
20
27.737096857382433
42
0.19891236737951151
10
-4.33265738510155
20
27.151310419752711
10
-2.0707106745165555
20
29.151310419748171
10
-2.9707106745235401
20
25.758390353864051
10
-2.9707106745662242
20
4.4169733558959479
10
-2.5207106745687877
20
3.130973355895037
10
-1.9999999980970895
20
1.9999999988995043
10
-2.7755575615628914e-16
20
0
10
888.85857865085552
20
-1.8171419924328802e-09
0
LINE
5
101
100
AcDbEntity
8
BEND
100
AcDbLine
10
891.34388059622722
20
226.54423048386209
30
1.6403267633037951e-11
11
-2.4853019444408631
21
226.54423048565531
31
-6.5153715755883352e-11
0
LINE
5
102
100
AcDbEntity
8
BEND
100
AcDbLine
10
910.32220939139518
20
43.772452196267757
30
1.6281121844077623e-11
11
910.32220939172498
21
208.11590168828053
31
1.648875480593318e-11
0
LINE
5
103
100
AcDbEntity
8
BEND
100
AcDbLine
10
-2.2603553371704201
20
2.5654866782468133
30
1.6822376824876635e-11
11
891.11893398803045
21
2.5654866764540785
31
1.9464241605041966e-11
0
LINE
5
104
100
AcDbEntity
8
BEND
100
AcDbLine
10
-21.463630740022136
20
208.11590169015039
30
1.6543433289940485e-11
11
-21.463630740351864
21
43.772452198137302
31
1.6685620259702906e-11
0
LINE
5
105
100
AcDbEntity
8
BEND
100
AcDbLine
10
892.06026268077369
20
28.151310420416884
30
1.6160128790645006e-11
11
892.06026268113487
21
208.15125702739022
31
1.617928013781979e-11
0
LINE
5
106
100
AcDbEntity
8
BEND
100
AcDbLine
10
-2.520710674519977
20
27.454850386806164
30
1.6195100815963438e-11
11
891.37928932548004
21
27.454850385012399
31
1.6195100815920731e-11
0
LINE
5
107
100
AcDbEntity
8
BEND
100
AcDbLine
10
-3.2016840294498872
20
208.15125702918704
30
1.6245060852071602e-11
11
-3.2016840298110982
21
28.151310422213243
31
1.6232570843044569e-11
0
LINE
5
108
100
AcDbEntity
8
BEND
100
AcDbLine
10
891.37923593524965
20
208.28228377327744
30
1.6126544544150128e-11
11
-2.5206572835638497
21
208.28228377507119
31
1.6126544544192834e-11
0
LINE
5
109
100
AcDbEntity
8
BEND_EXTENT
100
AcDbLine
10
909.19123603609432
20
42.32288329317786
30
1.6471268793295389e-11
11
909.19123603642913
21
209.15120363676266
31
1.995292819851988e-11
0
LINE
5
110
100
AcDbEntity
8
BEND_EXTENT
100
AcDbLine
10
911.45318274702072
20
207.08059973981301
30
-4.1189274213636851e-11
11
911.45318274669592
21
45.222021099357654
31
-9.0816243418691812e-13
0
LINE
5
111
100
AcDbEntity
8
BEND_EXTENT
100
AcDbLine
10
-4.3326573851015491
20
27.151310422231738
30
1.6258105972610999e-11
11
-4.3326573847400205
21
209.15120363859583
31
1.6258105972610999e-11
0
LWPOLYLINE
5
112
100
AcDbEntity
8
BEND_EXTENT
100
AcDbPolyline
90
4
70
1
43
0.0
10
-2.0707106741593622
20
207.15131041977787
10
-2.0707106745165555
20
29.151310419748171
10
890.9292893254833
20
29.151310417956182
10
890.92928932584061
20
207.15131041798588
0
LINE
5
113
100
AcDbEntity
8
BEND_EXTENT
100
AcDbLine
10
893.19123603642925
20
209.15120363679466
30
1.6258105972568125e-11
11
893.19123603605976
21
27.151310420429517
31
1.6187051698992115e-11
0
LINE
5
114
100
AcDbEntity
8
BEND_EXTENT
100
AcDbLine
10
-1.9999999959978987
20
227.67520384094726
30
-9.8978603091381852e-11
11
890.85857864776267
21
227.67520383915556
31
-4.1318060084492387e-11
0
LINE
5
115
100
AcDbEntity
8
BEND_EXTENT
100
AcDbLine
10
891.82918254469064
20
225.41325712856874
30
1.6400214519720209e-11
11
-2.9706038929349177
21
225.41325713030636
31
1.6329160246186945e-11
0
LINE
5
116
100
AcDbEntity
8
BEND_EXTENT
100
AcDbLine
10
-20.332657384739949
20
209.15120363862792
30
1.6329160246187775e-11
11
-20.332657385074725
21
42.322883295038274
31
1.6187051699035755e-11
0
LINE
5
117
100
AcDbEntity
8
BEND_EXTENT
100
AcDbLine
10
-22.59460409562876
20
45.222021101231995
30
-1.1635137298060856e-12
11
-22.594604095304454
21
207.08059974168742
31
-4.9431569948409384e-11
0
LINE
5
118
100
AcDbEntity
8
BEND_EXTENT
100
AcDbLine
10
-2.9706038929685108
20
209.41325713036437
30
1.6187051699034925e-11
11
891.82918254465881
21
209.41325712856877
31
1.6187051698992179e-11
0
LINE
5
119
100
AcDbEntity
8
BEND_EXTENT
100
AcDbLine
10
890.85857865062894
20
1.9999999988054284
30
8.313350008350616e-12
11
-1.9999999980970529
21
1.9999999988995043
31
9.7655217246029739e-12
0
LINE
5
120
100
AcDbEntity
8
BEND_EXTENT
100
AcDbLine
10
-2.5207106745687877
20
3.130973355895037
30
1.6524559498520953e-11
11
891.37928932543116
21
3.1309733541012719
31
1.7963408538392449e-11
0
LINE
5
121
100
AcDbEntity
8
BEND_EXTENT
100
AcDbLine
10
891.82928932547668
20
25.758390352068474
30
1.6293633109356194e-11
11
-2.9707106745235023
21
25.758390353864051
31
1.821209849595121e-11
0
ENDSEC
0
SECTION
2
OBJECTS
0
DICTIONARY
5
C
100
AcDbDictionary
3
ACAD_GROUP
350
D
3
ACAD_MLINESTYLE
350
17
0
DICTIONARY
5
D
100
AcDbDictionary
0
DICTIONARY
5
1A
330
C
100
AcDbDictionary
0
DICTIONARY
5
17
100
AcDbDictionary
0
ENDSEC
0
EOF
