0
SECTION
2
HEADER
9
$INSUNITS
70
4
9
$ACADVER
1
AC1014
9
$HANDSEED
5
FFFF
0
ENDSEC
0
SECTION
2
TABLES
0
TABLE
2
VPORT
5
8
100
AcDbSymbolTable
0
ENDTAB
0
TABLE
2
LTYPE
5
5
100
AcDbSymbolTable
0
LTYPE
5
14
100
AcDbSymbolTableRecord
100
AcDbLinetypeTableRecord
2
BYBLOCK
70
0
0
LTYPE
5
15
100
AcDbSymbolTableRecord
100
AcDbLinetypeTableRecord
2
BYLAYER
70
0
0
LTYPE
5
16
100
AcDbSymbolTableRecord
100
AcDbLinetypeTableRecord
2
DASHED
70
0
3
Dashed __ __ __ __ __ __ __ __ __ __ __ __ __ _
72
65
73
2
40
0.75
49
0.5
74
0
49
-0.25
74
0
0
ENDTAB
0
TABLE
2
LAYER
5
2
100
AcDbSymbolTable
70
2
0
LAYER
5
50
100
AcDbSymbolTableRecord
100
AcDbLayerTableRecord
2
0
70
0
62
7
6
CONTINUOUS
0
ENDTAB
0
TABLE
2
STYLE
5
3
100
AcDbSymbolTable
70
1
0
STYLE
5
11
100
AcDbSymbolTableRecord
100
AcDbTextStyleTableRecord
2
STANDARD
70
0
0
ENDTAB
0
TABLE
2
VIEW
5
6
100
AcDbSymbolTable
70
0
0
ENDTAB
0
TABLE
2
UCS
5
7
100
AcDbSymbolTable
70
0
0
ENDTAB
0
TABLE
2
APPID
5
9
100
AcDbSymbolTable
70
2
0
APPID
5
12
100
AcDbSymbolTableRecord
100
AcDbRegAppTableRecord
2
ACAD
70
0
0
ENDTAB
0
TABLE
2
DIMSTYLE
5
A
100
AcDbSymbolTable
70
1
0
ENDTAB
0
TABLE
2
BLOCK_RECORD
5
1
100
AcDbSymbolTable
70
1
0
BLOCK_RECORD
5
1F
100
AcDbSymbolTableRecord
100
AcDbBlockTableRecord
2
*MODEL_SPACE
0
BLOCK_RECORD
5
1B
100
AcDbSymbolTableRecord
100
AcDbBlockTableRecord
2
*PAPER_SPACE
0
ENDTAB
0
ENDSEC
0
SECTION
2
BLOCKS
0
BLOCK
5
20
100
AcDbEntity
100
AcDbBlockBegin
2
*MODEL_SPACE
0
ENDBLK
5
21
100
AcDbEntity
100
AcDbBlockEnd
0
BLOCK
5
1C
100
AcDbEntity
100
AcDbBlockBegin
2
*PAPER_SPACE
0
ENDBLK
5
1D
100
AcDbEntity
100
AcDbBlockEnd
0
ENDSEC
0
SECTION
2
ENTITIES
0
LWPOLYLINE
5
100
100
AcDbEntity
8
OUTER_PROFILES
100
AcDbPolyline
90
40
70
1
43
0.0
10
-22.594604098103744
20
412.08059974170396
10
-24.594604098107006
20
410.08059974172085
10
-24.594604098507943
20
47.222021098671121
10
-22.594604098839774
20
45.222021098005598
10
-20.332657388272736
20
42.322883295114408
10
-5.746870950669793
20
27.737096857458106
42
0.19891236737948184
10
-4.332657388299249
20
27.151310419828324
10
-2.0707106777144957
20
29.151310419823844
10
-2.9707106777214802
20
25.758390353935425
10
-2.9707106777642349
20
4.4169733559670732
10
-2.5207106777667985
20
3.1309733559662334
10
-2.0000000011309647
20
2.000000000665878
10
0
20
0
10
988.85857864729348
20
-1.9802115502898236e-09
10
990.85857864705588
20
1.9999999986764294
10
991.37928932223315
20
3.1309733539716689
10
991.82928932223581
20
4.4169733539708744
10
991.82928932227856
20
25.758390351939227
10
990.92928932228551
20
29.151310417831198
10
993.19123603286141
20
27.15131041779674
42
0.19891236737908299
10
994.60544959525339
20
27.737096855426906
10
1009.1912360328963
20
42.322883293053692
10
1011.453182743461
20
45.222021095930529
10
1013.4531827431372
20
47.222021096588094
10
1013.4531827441937
20
410.08059973963327
10
1011.4531827441971
20
412.08059973962889
10
1009.1912360336426
20
414.15120363657797
10
993.19123603364255
20
414.15120363661026
10
990.92928932305404
20
412.15131041780131
10
991.82918254187211
20
414.41325712838415
10
991.82918254190417
20
430.4132571283842
10
990.85857864497552
20
432.67520383897073
10
988.85857864498098
20
434.67520383897534
10
1.2174439234513557e-09
20
434.67520384095906
10
-1.9999999987843278
20
432.67520384096321
10
-2.9706038957217666
20
430.41325713031762
10
-2.9706038957547976
20
414.41325713038043
10
-2.0707106769460042
20
412.15131041979396
10
-4.3326573875266341
20
414.15120363861178
10
-20.332657387526588
20
414.15120363864395
0
LINE
5
101
100
AcDbEntity
8
BEND
100
AcDbLine
10
991.34388059344064
20
431.54423048367755
30
1.6134316103491218e-12
11
-2.4853019472256221
21
431.54423048567133
31
-8.6989859759966802e-11
0
LINE
5
102
100
AcDbEntity
8
BEND
100
AcDbLine
10
1010.3222093881789
20
43.772452194492431
30
1.9716371279658919e-12
11
1010.3222093889201
21
413.11590168809579
31
2.2443158440887738e-12
0
LINE
5
103
100
AcDbEntity
8
BEND
100
AcDbLine
10
-2.2603553401804213
20
2.5654866783166597
30
2.1577184483594191e-12
11
991.11893398464463
21
2.5654866763233031
31
2.1568857809031725e-12
0
LINE
5
104
100
AcDbEntity
8
BEND
100
AcDbLine
10
-21.463630742815212
20
413.11590169016642
30
9.1954222014984668e-13
11
-21.463630743556298
21
43.77245219656281
31
8.410960803039268e-13
0
LINE
5
105
100
AcDbEntity
8
BEND
100
AcDbLine
10
992.06026267757625
20
28.151310420291509
30
2.6154078900731841e-12
11
992.06026267834875
21
413.15125702720604
31
2.611522109486996e-12
0
LINE
5
106
100
AcDbEntity
8
BEND
100
AcDbLine
10
991.37923593246296
20
413.28228377309273
30
2.6081914404132494e-12
11
-2.5206572863503141
21
413.28228377508719
31
2.6081914406011252e-12
0
LINE
5
107
100
AcDbEntity
8
BEND
100
AcDbLine
10
-2.5207106777179171
20
27.454850386879599
30
2.6439961331452865e-12
11
991.37928932228203
21
27.454850384885106
31
2.6439961329574107e-12
0
LINE
5
108
100
AcDbEntity
8
BEND
100
AcDbLine
10
-3.2016840322363316
20
413.15125702920284
30
2.6009749909411905e-12
11
-3.2016840330089265
21
28.151310422289058
31
2.6487145810000727e-12
0
LINE
5
109
100
AcDbEntity
8
BEND_EXTENT
100
AcDbLine
10
1009.1912360328963
20
42.322883293053692
30
2.3403501357190635e-12
11
1009.1912360336426
21
414.15120363657797
31
-5.9729998726741091e-12
0
LINE
5
110
100
AcDbEntity
8
BEND_EXTENT
100
AcDbLine
10
1011.4531827441971
20
412.08059973962889
30
-1.1022294188497675e-10
11
1011.453182743461
21
45.222021095930529
31
-5.8175686509477061e-13
0
LINE
5
111
100
AcDbEntity
8
BEND_EXTENT
100
AcDbLine
10
-4.3326573882992472
20
27.151310422277746
30
2.5535129566386791e-12
11
-4.3326573875266341
21
414.15120363861178
31
2.5535129566386791e-12
0
LWPOLYLINE
5
112
100
AcDbEntity
8
BEND_EXTENT
100
AcDbPolyline
90
4
70
1
43
0.0
10
-2.0707106769460042
20
412.15131041979396
10
-2.0707106777144957
20
29.151310419823844
10
990.92928932228551
20
29.151310417831198
10
990.92928932305404
20
412.15131041780131
0
LINE
5
113
100
AcDbEntity
8
BEND_EXTENT
100
AcDbLine
10
993.19123603364255
20
414.15120363661026
30
2.5535129564501183e-12
11
993.1912360328613
21
27.151310420274726
31
2.5535129564501183e-12
0
LINE
5
114
100
AcDbEntity
8
BEND_EXTENT
100
AcDbLine
10
-1.9999999987843278
20
432.67520384096321
30
-1.7390533457728413e-10
11
990.85857864497552
21
432.67520383897073
31
-1.1143530542786352e-10
0
LINE
5
115
100
AcDbEntity
8
BEND_EXTENT
100
AcDbLine
10
991.82918254190417
20
430.4132571283842
30
1.7008616735382554e-12
11
-2.9706038957218084
21
430.41325713031762
31
1.4876988529982712e-12
0
LINE
5
116
100
AcDbEntity
8
BEND_EXTENT
100
AcDbLine
10
-20.332657387526588
20
414.15120363864395
30
7.7715611724145286e-13
11
-20.332657388272736
21
42.322883295114408
31
5.639932965134228e-13
0
LINE
5
117
100
AcDbEntity
8
BEND_EXTENT
100
AcDbLine
10
-22.594604098839774
20
45.222021098005598
30
-2.4713564528113277e-12
11
-22.594604098103744
21
412.08059974170396
31
-1.1588729975641882e-10
0
LINE
5
118
100
AcDbEntity
8
BEND_EXTENT
100
AcDbLine
10
-2.9706038957547976
20
414.41325713038043
30
2.5535129566384215e-12
11
991.82918254187211
21
414.41325712838415
31
2.5535129564503756e-12
0
LINE
5
119
100
AcDbEntity
8
BEND_EXTENT
100
AcDbLine
10
990.85857864705588
20
1.9999999986764294
30
1.6564527525534325e-12
11
-2.0000000011309282
21
2.000000000665878
31
2.7711166694647684e-12
0
LINE
5
120
100
AcDbEntity
8
BEND_EXTENT
100
AcDbLine
10
-2.5207106777667985
20
3.1309733559662334
30
1.8279822100457964e-12
11
991.37928932223315
21
3.1309733539716689
31
3.6087799413566717e-12
0
LINE
5
121
100
AcDbEntity
8
BEND_EXTENT
100
AcDbLine
10
991.82928932227856
20
25.758390351939227
30
2.6495472480804516e-12
11
-2.9707106777215131
21
25.758390353935425
31
5.4550808314962681e-12
0
ENDSEC
0
SECTION
2
OBJECTS
0
DICTIONARY
5
C
100
AcDbDictionary
3
ACAD_GROUP
350
D
3
ACAD_MLINESTYLE
350
17
0
DICTIONARY
5
D
100
AcDbDictionary
0
DICTIONARY
5
1A
330
C
100
AcDbDictionary
0
DICTIONARY
5
17
100
AcDbDictionary
0
ENDSEC
0
EOF
