0
SECTION
2
HEADER
9
$INSUNITS
70
4
9
$ACADVER
1
AC1014
9
$HANDSEED
5
FFFF
0
ENDSEC
0
SECTION
2
TABLES
0
TABLE
2
VPORT
5
8
100
AcDbSymbolTable
0
ENDTAB
0
TABLE
2
LTYPE
5
5
100
AcDbSymbolTable
0
LTYPE
5
14
100
AcDbSymbolTableRecord
100
AcDbLinetypeTableRecord
2
BYBLOCK
70
0
0
LTYPE
5
15
100
AcDbSymbolTableRecord
100
AcDbLinetypeTableRecord
2
BYLAYER
70
0
0
LTYPE
5
16
100
AcDbSymbolTableRecord
100
AcDbLinetypeTableRecord
2
DASHED
70
0
3
Dashed __ __ __ __ __ __ __ __ __ __ __ __ __ _
72
65
73
2
40
0.75
49
0.5
74
0
49
-0.25
74
0
0
ENDTAB
0
TABLE
2
LAYER
5
2
100
AcDbSymbolTable
70
2
0
LAYER
5
50
100
AcDbSymbolTableRecord
100
AcDbLayerTableRecord
2
0
70
0
62
7
6
CONTINUOUS
0
ENDTAB
0
TABLE
2
STYLE
5
3
100
AcDbSymbolTable
70
1
0
STYLE
5
11
100
AcDbSymbolTableRecord
100
AcDbTextStyleTableRecord
2
STANDARD
70
0
0
ENDTAB
0
TABLE
2
VIEW
5
6
100
AcDbSymbolTable
70
0
0
ENDTAB
0
TABLE
2
UCS
5
7
100
AcDbSymbolTable
70
0
0
ENDTAB
0
TABLE
2
APPID
5
9
100
AcDbSymbolTable
70
2
0
APPID
5
12
100
AcDbSymbolTableRecord
100
AcDbRegAppTableRecord
2
ACAD
70
0
0
ENDTAB
0
TABLE
2
DIMSTYLE
5
A
100
AcDbSymbolTable
70
1
0
ENDTAB
0
TABLE
2
BLOCK_RECORD
5
1
100
AcDbSymbolTable
70
1
0
BLOCK_RECORD
5
1F
100
AcDbSymbolTableRecord
100
AcDbBlockTableRecord
2
*MODEL_SPACE
0
BLOCK_RECORD
5
1B
100
AcDbSymbolTableRecord
100
AcDbBlockTableRecord
2
*PAPER_SPACE
0
ENDTAB
0
ENDSEC
0
SECTION
2
BLOCKS
0
BLOCK
5
20
100
AcDbEntity
100
AcDbBlockBegin
2
*MODEL_SPACE
0
ENDBLK
5
21
100
AcDbEntity
100
AcDbBlockEnd
0
BLOCK
5
1C
100
AcDbEntity
100
AcDbBlockBegin
2
*PAPER_SPACE
0
ENDBLK
5
1D
100
AcDbEntity
100
AcDbBlockEnd
0
ENDSEC
0
SECTION
2
ENTITIES
0
LWPOLYLINE
5
100
100
AcDbEntity
8
OUTER_PROFILES
100
AcDbPolyline
90
40
70
1
43
0.0
10
391.37928932395369
20
3.1309724218402124
10
391.82928932654465
20
4.4169724209336181
10
391.82928936954221
20
25.758389418902183
10
390.92928937637805
20
29.15130948660142
10
393.19123608293171
20
27.151309484508026
42
0.19891236737940576
10
394.60544964648187
20
27.737095916822312
10
409.19123611350011
20
42.32288232506118
10
411.45318282997027
20
45.222020131044403
10
413.45318283385598
20
47.222020129634181
10
413.45318315204344
20
205.08059876310165
10
411.45318315607364
20
207.08059876712133
10
409.19123644961707
20
209.15120266862374
10
393.19123644961712
20
209.15120270085961
10
390.92928973500318
20
207.15130948660357
10
391.82918295837391
20
209.41325619537514
10
391.82918299060992
20
225.41325619537517
10
390.85857909823454
20
227.67520290791578
10
388.85857910226463
20
229.67520291194529
10
4.5850171659367334e-07
20
229.6752036953967
10
-1.9999995455258084
20
227.67520369942687
10
-2.9706034470157485
20
225.41325699073332
10
-2.9706034792530667
20
209.41325699079724
10
-2.0707102649967735
20
207.15131027839954
10
-4.3326569715521295
20
209.15120350177023
10
-20.332656971552151
20
209.15120353400613
10
-22.59460368629292
20
207.08059964161828
10
-24.594603690321666
20
205.08059964566183
10
-24.594604008222227
20
47.222021012190055
10
-22.594604013575079
20
45.222021004361856
10
-20.332657307669244
20
42.322883190441374
10
-5.746870899426872
20
27.737096723430845
42
0.19891236737952445
10
-4.3326573382350402
20
27.151310282954629
10
-2.0707106236219217
20
29.151310278397382
10
-2.9707106304576927
20
25.75839021432472
10
-2.9707106734554123
20
4.4169732163561193
10
-2.5207106760463613
20
3.1309732154494796
10
-1.9999999995642801
20
2.0000000072807467
10
0
20
0
10
388.85857864261334
20
9.2035534748902137e-09
10
390.8585786426267
20
2.0000000074308133
0
LINE
5
101
100
AcDbEntity
8
BEND
100
AcDbLine
10
391.3438810444228
20
226.54422955164503
30
5.9638487029264298e-07
11
-2.4853014962427267
21
226.54423034511103
31
5.9628868469148397e-07
0
LINE
5
102
100
AcDbEntity
8
BEND
100
AcDbLine
10
410.32220947173533
20
43.772451228052809
30
5.9638511762082669e-07
11
410.32220980284592
21
208.11590071786549
31
5.9638554662400409e-07
0
LINE
5
103
100
AcDbEntity
8
BEND
100
AcDbLine
10
391.37923634668857
20
208.28228284098938
30
5.963844265775463e-07
11
-2.5206568721248601
21
208.2822836345984
31
5.9638335081423432e-07
0
LINE
5
104
100
AcDbEntity
8
BEND
100
AcDbLine
10
392.06026272965573
20
28.151309486785507
30
5.9638443038035885e-07
11
392.06026309231027
21
208.15125609373166
31
5.9638444453570347e-07
0
LINE
5
105
100
AcDbEntity
8
BEND
100
AcDbLine
10
-2.5207106270398425
20
27.454850246361069
30
5.9638339966390055e-07
11
391.37928937296016
21
27.454849452751802
31
5.9638447542750412e-07
0
LINE
5
106
100
AcDbEntity
8
BEND
100
AcDbLine
10
-21.463630328461495
20
208.11590158822636
30
5.9638430494194229e-07
11
-21.463630659572193
21
43.772452097402734
31
5.9638413533931024e-07
0
LINE
5
107
100
AcDbEntity
8
BEND
100
AcDbLine
10
-2.2603557869848374
20
2.5654875131917265
30
5.9640290846523209e-07
11
391.11893443261351
21
2.5654867206315402
31
5.9640397985080187e-07
0
LINE
5
108
100
AcDbEntity
8
BEND
100
AcDbLine
10
-3.2016836182743775
20
208.15125689008477
30
5.963833528400916e-07
11
-3.2016839809289186
21
28.151310283138891
31
5.9638333868474708e-07
0
LINE
5
109
100
AcDbEntity
8
BEND_EXTENT
100
AcDbLine
10
409.19123611350011
20
42.32288232506118
30
5.9638552160834501e-07
11
409.19123644961707
21
209.15120266862374
31
5.9639973246306105e-07
0
LINE
5
110
100
AcDbEntity
8
BEND_EXTENT
100
AcDbLine
10
411.45318315607364
20
207.08059876712133
30
5.9633969333850412e-07
11
411.45318282997027
21
45.222020131044403
31
5.9639176279835809e-07
0
LINE
5
111
100
AcDbEntity
8
BEND_EXTENT
100
AcDbLine
10
-4.3326573382350411
20
27.15131028541883
30
5.9638332643665374e-07
11
-4.3326569715521295
21
209.15120350177023
31
5.9638336196379148e-07
0
LWPOLYLINE
5
112
100
AcDbEntity
8
BEND_EXTENT
100
AcDbPolyline
90
4
70
1
43
0.0
10
-2.0707102649967735
20
207.15131027839954
10
-2.0707106236219217
20
29.151310278397382
10
390.92928937637805
20
29.15130948660142
10
390.92928973500318
20
207.15130948660357
0
LINE
5
113
100
AcDbEntity
8
BEND_EXTENT
100
AcDbLine
10
393.19123644961712
20
209.15120270085961
30
5.9638441209732008e-07
11
393.19123608293171
21
27.151309484508026
31
5.9638434104304544e-07
0
LINE
5
114
100
AcDbEntity
8
BEND_EXTENT
100
AcDbLine
10
-1.9999995455258084
20
227.67520369942687
30
5.9627052082529831e-07
11
390.85857909823454
21
227.67520290791578
31
5.9633880664663095e-07
0
LINE
5
115
100
AcDbEntity
8
BEND_EXTENT
100
AcDbLine
10
391.82918299060992
20
225.41325619537517
30
5.9638483470311502e-07
11
-2.9706034470157761
21
225.41325699073332
31
5.9638361437359572e-07
0
LINE
5
116
100
AcDbEntity
8
BEND_EXTENT
100
AcDbLine
10
-20.332656971552151
20
209.15120353400613
30
5.9638424197242583e-07
11
-20.332657307669244
21
42.322883190441374
31
5.9638424197242488e-07
0
LINE
5
117
100
AcDbEntity
8
BEND_EXTENT
100
AcDbLine
10
-22.594604013575079
20
45.222021004361856
30
5.9639045082340983e-07
11
-22.59460368629292
21
207.08059964161828
31
5.9633285911423138e-07
0
LINE
5
118
100
AcDbEntity
8
BEND_EXTENT
100
AcDbLine
10
-2.9706034792530667
20
209.41325699079724
30
5.9638340121077478e-07
11
391.82918295837391
21
209.41325619537514
31
5.9638447943174714e-07
0
LINE
5
119
100
AcDbEntity
8
BEND_EXTENT
100
AcDbLine
10
390.8585786426267
20
2.0000000074308133
30
5.9639079617042683e-07
11
-1.9999999995642526
21
2.0000000072807467
31
5.9639890701586479e-07
0
LINE
5
120
100
AcDbEntity
8
BEND_EXTENT
100
AcDbLine
10
-2.5207106760463613
20
3.1309732154494796
30
5.9639395399908404e-07
11
391.37928932395369
21
3.1309724218402124
31
5.9639502976268762e-07
0
LINE
5
121
100
AcDbEntity
8
BEND_EXTENT
100
AcDbLine
10
391.82928936954221
20
25.758389418902183
30
5.9638458601344793e-07
11
-2.9707106304577025
21
25.75839021432472
31
5.9638542625727904e-07
0
ENDSEC
0
SECTION
2
OBJECTS
0
DICTIONARY
5
C
100
AcDbDictionary
3
ACAD_GROUP
350
D
3
ACAD_MLINESTYLE
350
17
0
DICTIONARY
5
D
100
AcDbDictionary
0
DICTIONARY
5
1A
330
C
100
AcDbDictionary
0
DICTIONARY
5
17
100
AcDbDictionary
0
ENDSEC
0
EOF
