0
SECTION
2
HEADER
9
$INSUNITS
70
4
9
$ACADVER
1
AC1014
9
$HANDSEED
5
FFFF
0
ENDSEC
0
SECTION
2
TABLES
0
TABLE
2
VPORT
5
8
100
AcDbSymbolTable
0
ENDTAB
0
TABLE
2
LTYPE
5
5
100
AcDbSymbolTable
0
LTYPE
5
14
100
AcDbSymbolTableRecord
100
AcDbLinetypeTableRecord
2
BYBLOCK
70
0
0
LTYPE
5
15
100
AcDbSymbolTableRecord
100
AcDbLinetypeTableRecord
2
BYLAYER
70
0
0
LTYPE
5
16
100
AcDbSymbolTableRecord
100
AcDbLinetypeTableRecord
2
DASHED
70
0
3
Dashed __ __ __ __ __ __ __ __ __ __ __ __ __ _
72
65
73
2
40
0.75
49
0.5
74
0
49
-0.25
74
0
0
ENDTAB
0
TABLE
2
LAYER
5
2
100
AcDbSymbolTable
70
2
0
LAYER
5
50
100
AcDbSymbolTableRecord
100
AcDbLayerTableRecord
2
0
70
0
62
7
6
CONTINUOUS
0
ENDTAB
0
TABLE
2
STYLE
5
3
100
AcDbSymbolTable
70
1
0
STYLE
5
11
100
AcDbSymbolTableRecord
100
AcDbTextStyleTableRecord
2
STANDARD
70
0
0
ENDTAB
0
TABLE
2
VIEW
5
6
100
AcDbSymbolTable
70
0
0
ENDTAB
0
TABLE
2
UCS
5
7
100
AcDbSymbolTable
70
0
0
ENDTAB
0
TABLE
2
APPID
5
9
100
AcDbSymbolTable
70
2
0
APPID
5
12
100
AcDbSymbolTableRecord
100
AcDbRegAppTableRecord
2
ACAD
70
0
0
ENDTAB
0
TABLE
2
DIMSTYLE
5
A
100
AcDbSymbolTable
70
1
0
ENDTAB
0
TABLE
2
BLOCK_RECORD
5
1
100
AcDbSymbolTable
70
1
0
BLOCK_RECORD
5
1F
100
AcDbSymbolTableRecord
100
AcDbBlockTableRecord
2
*MODEL_SPACE
0
BLOCK_RECORD
5
1B
100
AcDbSymbolTableRecord
100
AcDbBlockTableRecord
2
*PAPER_SPACE
0
ENDTAB
0
ENDSEC
0
SECTION
2
BLOCKS
0
BLOCK
5
20
100
AcDbEntity
100
AcDbBlockBegin
2
*MODEL_SPACE
0
ENDBLK
5
21
100
AcDbEntity
100
AcDbBlockEnd
0
BLOCK
5
1C
100
AcDbEntity
100
AcDbBlockBegin
2
*PAPER_SPACE
0
ENDBLK
5
1D
100
AcDbEntity
100
AcDbBlockEnd
0
ENDSEC
0
SECTION
2
ENTITIES
0
LWPOLYLINE
5
100
100
AcDbEntity
8
OUTER_PROFILES
100
AcDbPolyline
90
40
70
1
43
0.0
10
390.92928932228131
20
29.151310418635887
10
393.19123603285993
20
27.151310421079202
42
0.19891236737945625
10
394.60544959525407
20
27.737096856233329
10
409.19123603289245
20
42.3228832938522
10
411.4531827434796
20
45.222021096729605
10
413.45318274315298
20
47.222021096985785
10
413.45318274420828
20
410.0805997404388
10
411.45318274421368
20
412.08059974043306
10
409.19123603363857
20
414.15120363738282
10
393.19123603363857
20
414.15120363741488
10
390.92928932304994
20
412.1513104186061
10
391.82918254186791
20
414.41325712918888
10
391.82918254190008
20
430.41325712918888
10
390.858578644972
20
432.67520383977603
10
388.8585786449766
20
434.67520383978012
10
1.2136780469518271e-09
20
434.6752038405599
10
-1.9999999987883426
20
432.67520384056456
10
-2.9706038957256045
20
430.41325712991721
10
-2.9706038957590613
20
414.41325712998116
10
-2.0707106769500547
20
412.15131041939469
10
-4.332657387530805
20
414.15120363821245
10
-20.332657387530759
20
414.15120363824479
10
-22.594604098126695
20
412.08059974130413
10
-24.594604098130098
20
410.08059974132209
10
-24.594604098524499
20
47.222021097864655
10
-22.594604098859172
20
45.222021097600589
10
-20.332657388276868
20
42.322883294711957
10
-5.746870950677156
20
27.737096857058809
42
0.19891236737963278
10
-4.3326573883054298
20
27.151310419429066
10
-2.0707106777186168
20
29.151310419424519
10
-2.9707106777253527
20
25.7583903535361
10
-2.970710677768285
20
4.4169733555678903
10
-2.5207106777708486
20
3.1309733555670505
10
-2.000000017680855
20
2.000000000265274
10
2.7755575615628914e-16
20
2.7755575615628914e-16
10
388.85857867975369
20
-7.7477579907281324e-10
10
390.8585786801504
20
1.9999999994804085
10
391.37928932222917
20
3.1309733547765717
10
391.82928932223177
20
4.4169733547757062
10
391.82928932227463
20
25.758390352743916
0
LINE
5
101
100
AcDbEntity
8
BEND
100
AcDbLine
10
391.34388059343672
20
431.54423048448194
30
-7.9380946210515906e-14
11
-2.4853019472288906
21
431.54423048527173
31
-9.518774657379963e-11
0
LINE
5
102
100
AcDbEntity
8
BEND
100
AcDbLine
10
410.3222093881862
20
43.772452195290654
30
-1.0664060158829767e-12
11
410.32220938892738
21
413.11590168890115
31
-1.0300094110433727e-12
0
LINE
5
103
100
AcDbEntity
8
BEND
100
AcDbLine
10
-2.2603553567337578
20
2.5654866779171215
30
-1.7902346272109641e-13
11
391.11893400118987
21
2.5654866771277796
31
-1.7763568388987129e-13
0
LINE
5
104
100
AcDbEntity
8
BEND
100
AcDbLine
10
-21.463630742826446
20
413.1159016897675
30
-1.6364687383002329e-12
11
-21.463630743567599
21
43.772452196157303
31
-1.6553193404213478e-12
0
LINE
5
105
100
AcDbEntity
8
BEND
100
AcDbLine
10
392.0602626775717
20
28.151310421096412
30
-8.5847995374112775e-13
11
392.06026267834426
21
413.15125702801049
31
-8.4904305803181392e-13
0
LINE
5
106
100
AcDbEntity
8
BEND
100
AcDbLine
10
391.37923593245887
20
413.2822837738974
30
-9.1399110497247292e-13
11
-2.5206572863544352
21
413.28228377468793
31
-9.1399110502298344e-13
0
LINE
5
107
100
AcDbEntity
8
BEND
100
AcDbLine
10
-2.5207106777220734
20
27.454850386480345
30
-8.0657702739049945e-13
11
391.379289322278
21
27.454850385689866
31
-8.0851991763308305e-13
0
LINE
5
108
100
AcDbEntity
8
BEND
100
AcDbLine
10
-3.2016840322405398
20
413.1512570288038
30
-8.6181062286568833e-13
11
-3.2016840330131178
21
28.151310421889377
31
-8.7069240706268958e-13
0
LINE
5
109
100
AcDbEntity
8
BEND_EXTENT
100
AcDbLine
10
409.19123603289245
20
42.3228832938522
30
-1.0036416142086703e-12
11
409.19123603363857
21
414.15120363738282
31
-1.8207657603327857e-12
0
LINE
5
110
100
AcDbEntity
8
BEND_EXTENT
100
AcDbLine
10
411.45318274421368
20
412.08059974043306
30
-1.1254996934434711e-10
11
411.4531827434796
21
45.222021096729605
31
-2.0117241205680186e-12
0
LINE
5
111
100
AcDbEntity
8
BEND_EXTENT
100
AcDbLine
10
-4.3326573883054307
20
27.151310421877568
30
-9.3258734068568705e-13
11
-4.332657387530805
21
414.15120363821245
31
-8.9706020389768204e-13
0
LWPOLYLINE
5
112
100
AcDbEntity
8
BEND_EXTENT
100
AcDbPolyline
90
4
70
1
43
0.0
10
-2.0707106769500547
20
412.15131041939469
10
-2.0707106777186168
20
29.151310419424519
10
390.92928932228131
20
29.151310418635887
10
390.92928932304994
20
412.1513104186061
0
LINE
5
113
100
AcDbEntity
8
BEND_EXTENT
100
AcDbLine
10
393.19123603363857
20
414.15120363741488
30
-8.6153306705870193e-13
11
393.19123603285993
21
27.151310421079202
31
-9.3258734063471185e-13
0
LINE
5
114
100
AcDbEntity
8
BEND_EXTENT
100
AcDbLine
10
-1.9999999987883426
20
432.67520384056456
30
-1.7896351067747699e-10
11
390.858578644972
21
432.67520383977603
31
-1.1175060876661962e-10
0
LINE
5
115
100
AcDbEntity
8
BEND_EXTENT
100
AcDbLine
10
391.82918254190008
20
430.41325712918888
30
-1.8651746808678141e-13
11
-2.9706038957255743
21
430.41325712991721
31
-3.2862601528942731e-13
0
LINE
5
116
100
AcDbEntity
8
BEND_EXTENT
100
AcDbLine
10
-20.332657387530759
20
414.15120363824479
30
-1.6431300764478388e-12
11
-20.332657388276868
21
42.322883294711957
31
-1.5720758028718288e-12
0
LINE
5
117
100
AcDbEntity
8
BEND_EXTENT
100
AcDbLine
10
-22.594604098859172
20
45.222021097600589
30
-2.620126338118267e-12
11
-22.594604098126695
21
412.08059974130413
31
-1.1227241358824648e-10
0
LINE
5
118
100
AcDbEntity
8
BEND_EXTENT
100
AcDbLine
10
-2.9706038957590613
20
414.41325712998116
30
-8.9706020389750736e-13
11
391.82918254186791
21
414.41325712918888
31
-8.9706020384688162e-13
0
LINE
5
119
100
AcDbEntity
8
BEND_EXTENT
100
AcDbLine
10
390.8585786801504
20
1.9999999994804085
30
3.5083047583166978e-13
11
-2.0000000176808896
21
2.000000000265274
31
1.989519660128024e-12
0
LINE
5
120
100
AcDbEntity
8
BEND_EXTENT
100
AcDbLine
10
-2.5207106777708486
20
3.1309733555670505
30
-5.5899729289908954e-13
11
391.37928932222917
21
3.1309733547765717
31
1.7413848141747452e-12
0
LINE
5
121
100
AcDbEntity
8
BEND_EXTENT
100
AcDbLine
10
391.82928932227463
20
25.758390352743916
30
-7.5661699123179932e-13
11
-2.97071067772535
21
25.7583903535361
31
2.0755619445363489e-12
0
ENDSEC
0
SECTION
2
OBJECTS
0
DICTIONARY
5
C
100
AcDbDictionary
3
ACAD_GROUP
350
D
3
ACAD_MLINESTYLE
350
17
0
DICTIONARY
5
D
100
AcDbDictionary
0
DICTIONARY
5
1A
330
C
100
AcDbDictionary
0
DICTIONARY
5
17
100
AcDbDictionary
0
ENDSEC
0
EOF
