0
SECTION
2
HEADER
9
$INSUNITS
70
4
9
$ACADVER
1
AC1014
9
$HANDSEED
5
FFFF
0
ENDSEC
0
SECTION
2
TABLES
0
TABLE
2
VPORT
5
8
100
AcDbSymbolTable
0
ENDTAB
0
TABLE
2
LTYPE
5
5
100
AcDbSymbolTable
0
LTYPE
5
14
100
AcDbSymbolTableRecord
100
AcDbLinetypeTableRecord
2
BYBLOCK
70
0
0
LTYPE
5
15
100
AcDbSymbolTableRecord
100
AcDbLinetypeTableRecord
2
BYLAYER
70
0
0
LTYPE
5
16
100
AcDbSymbolTableRecord
100
AcDbLinetypeTableRecord
2
DASHED
70
0
3
Dashed __ __ __ __ __ __ __ __ __ __ __ __ __ _
72
65
73
2
40
0.75
49
0.5
74
0
49
-0.25
74
0
0
ENDTAB
0
TABLE
2
LAYER
5
2
100
AcDbSymbolTable
70
2
0
LAYER
5
50
100
AcDbSymbolTableRecord
100
AcDbLayerTableRecord
2
0
70
0
62
7
6
CONTINUOUS
0
ENDTAB
0
TABLE
2
STYLE
5
3
100
AcDbSymbolTable
70
1
0
STYLE
5
11
100
AcDbSymbolTableRecord
100
AcDbTextStyleTableRecord
2
STANDARD
70
0
0
ENDTAB
0
TABLE
2
VIEW
5
6
100
AcDbSymbolTable
70
0
0
ENDTAB
0
TABLE
2
UCS
5
7
100
AcDbSymbolTable
70
0
0
ENDTAB
0
TABLE
2
APPID
5
9
100
AcDbSymbolTable
70
2
0
APPID
5
12
100
AcDbSymbolTableRecord
100
AcDbRegAppTableRecord
2
ACAD
70
0
0
ENDTAB
0
TABLE
2
DIMSTYLE
5
A
100
AcDbSymbolTable
70
1
0
ENDTAB
0
TABLE
2
BLOCK_RECORD
5
1
100
AcDbSymbolTable
70
1
0
BLOCK_RECORD
5
1F
100
AcDbSymbolTableRecord
100
AcDbBlockTableRecord
2
*MODEL_SPACE
0
BLOCK_RECORD
5
1B
100
AcDbSymbolTableRecord
100
AcDbBlockTableRecord
2
*PAPER_SPACE
0
ENDTAB
0
ENDSEC
0
SECTION
2
BLOCKS
0
BLOCK
5
20
100
AcDbEntity
100
AcDbBlockBegin
2
*MODEL_SPACE
0
ENDBLK
5
21
100
AcDbEntity
100
AcDbBlockEnd
0
BLOCK
5
1C
100
AcDbEntity
100
AcDbBlockBegin
2
*PAPER_SPACE
0
ENDBLK
5
1D
100
AcDbEntity
100
AcDbBlockEnd
0
ENDSEC
0
SECTION
2
ENTITIES
0
LWPOLYLINE
5
100
100
AcDbEntity
8
OUTER_PROFILES
100
AcDbPolyline
90
40
70
1
43
0.0
10
-20.332657388703339
20
20.524000202355666
10
-4.3326573887033959
20
20.524000202355737
10
-2.0707106781187434
20
22.523893421169063
10
-2.9706038969324311
20
20.261946710584425
10
-2.9706038969322179
20
4.2619467105844322
10
-2.0000000000001705
20
1.9999999999998863
10
0
20
0
10
488.85857864376248
20
-7.1054273576010019e-14
10
490.85857864376203
20
1.9999999999997442
10
491.82918254069409
20
4.2619467106407471
10
491.82918254069449
20
20.261946710584429
10
490.92928932188124
20
22.523893421169063
10
493.19123603246589
20
20.524000202355737
10
509.19123603246589
20
20.524000202355666
10
511.45318274304884
20
22.594604099301208
10
513.45318274304782
20
24.594604099287025
10
513.4531827427129
20
387.45318273442541
10
511.45318274304896
20
389.45318273457383
10
509.19123603246589
20
392.35232054588857
10
494.60544959483633
20
406.93810698351314
42
0.19891236739709026
10
493.19123603232913
20
407.52389342114009
10
490.92928932188124
20
405.52389342114003
10
491.82928932188139
20
408.91681348703031
10
491.82928932188128
20
430.25823048499831
10
491.37928932188123
20
431.54423048499831
10
490.85857864513025
20
432.67520384447232
10
488.85857865245947
20
434.67520384062306
10
-3.0026825470486074e-09
20
434.67520384062311
10
-2.0000000027240361
20
432.67520384029763
10
-2.5207106781187605
20
431.54423048499831
10
-2.9707106781187775
20
430.25823048499831
10
-2.9707106781187775
20
408.91681348703031
10
-2.0707106781187434
20
405.52389342114003
10
-4.3326573886336206
20
407.52389341869213
42
0.1989123673881375
10
-5.746870951092955
20
406.93810698353502
10
-20.332657388703339
20
392.35232054588585
10
-22.59460409928991
20
389.45318273457383
10
-24.594604098953852
20
387.45318273442541
10
-24.594604099289867
20
24.594604099289938
10
-22.59460409928991
20
22.59460409930135
0
LINE
5
101
100
AcDbEntity
8
BEND
100
AcDbLine
10
-2.4853019484664429
20
3.1309733552921837
30
2.4171387114080289e-10
11
491.3438805922035
21
3.1309733552926433
31
1.6266127333963714e-10
0
LINE
5
102
100
AcDbEntity
8
BEND
100
AcDbLine
10
-21.463630743996731
20
390.90275164022978
30
2.4145759878944518e-10
11
-21.463630743996731
21
21.559302150835435
31
2.4165419665322929e-10
0
LINE
5
103
100
AcDbEntity
8
BEND
100
AcDbLine
10
491.11893398418442
20
432.10971716264714
30
2.4139912291332166e-10
11
-2.2603553404220378
21
432.10971716264714
31
2.4713925390809406e-10
0
LINE
5
104
100
AcDbEntity
8
BEND
100
AcDbLine
10
510.32220938775743
20
21.559302150835293
30
2.4197199799402824e-10
11
510.32220938775743
21
390.90275164023001
31
2.4198712496702643e-10
0
LINE
5
105
100
AcDbEntity
8
BEND
100
AcDbLine
10
-3.2016840334110697
20
406.52389341867763
30
2.4112267738019e-10
11
-3.2016840334110697
21
21.5239468117624
31
2.411251753819954e-10
0
LINE
5
106
100
AcDbEntity
8
BEND
100
AcDbLine
10
491.37928932188117
20
407.22035345408517
30
2.4113933072555938e-10
11
-2.5207106781187605
21
407.22035345408517
31
2.4113960828131553e-10
0
LINE
5
107
100
AcDbEntity
8
BEND
100
AcDbLine
10
492.06026267717357
20
21.5239468117624
30
2.411251753819954e-10
11
492.06026267717357
21
406.52389341867763
31
2.4111934671111612e-10
0
LINE
5
108
100
AcDbEntity
8
BEND
100
AcDbLine
10
-2.5206572875254807
20
21.392920065876861
30
2.4111157514994375e-10
11
491.37923593128795
21
21.392920065876861
31
2.4111157514994375e-10
0
LINE
5
109
100
AcDbEntity
8
BEND_EXTENT
100
AcDbLine
10
-20.332657388703339
20
392.35232054588585
30
2.4161783684917282e-10
11
-20.332657388703339
21
20.524000202355666
31
2.422217981745689e-10
0
LINE
5
110
100
AcDbEntity
8
BEND_EXTENT
100
AcDbLine
10
-22.59460409928991
20
22.59460409930135
30
1.2011058814209719e-10
11
-22.59460409928991
21
389.45318273457383
31
2.4147350785597155e-10
0
LINE
5
111
100
AcDbEntity
8
BEND_EXTENT
100
AcDbLine
10
493.19123603232913
20
407.52389341864853
30
2.4112045693414075e-10
11
493.19123603246589
21
20.524000202355737
31
2.4112045693414075e-10
0
LWPOLYLINE
5
112
100
AcDbEntity
8
BEND_EXTENT
100
AcDbPolyline
90
4
70
1
43
0.0
10
490.92928932188124
20
22.523893421169063
10
490.92928932188124
20
405.52389342114003
10
-2.0707106781187434
20
405.52389342114003
10
-2.0707106781187434
20
22.523893421169063
0
LINE
5
113
100
AcDbEntity
8
BEND_EXTENT
100
AcDbLine
10
-4.3326573887033959
20
20.524000202355737
30
2.4108492979735274e-10
11
-4.3326573886336206
21
407.52389341869213
31
2.4112045693414075e-10
0
LINE
5
114
100
AcDbEntity
8
BEND_EXTENT
100
AcDbLine
10
490.85857864376203
20
1.9999999999997442
30
6.4419580780850083e-11
11
-2.0000000000001705
21
1.9999999999998863
31
1.2025269668924921e-10
0
LINE
5
115
100
AcDbEntity
8
BEND_EXTENT
100
AcDbLine
10
-2.9706038969322179
20
4.2619467105844322
30
2.4168889112274883e-10
11
491.82918254069409
21
4.2619467106407471
31
2.4161783684917282e-10
0
LINE
5
116
100
AcDbEntity
8
BEND_EXTENT
100
AcDbLine
10
509.19123603246589
20
20.524000202355666
30
2.4183099966990085e-10
11
509.19123603246589
21
392.35232054588857
31
2.4168889112274883e-10
0
LINE
5
117
100
AcDbEntity
8
BEND_EXTENT
100
AcDbLine
10
511.45318274304896
20
389.45318273457383
30
2.4162671863336982e-10
11
511.45318274304884
21
22.594604099301208
31
1.1980860747939914e-10
0
LINE
5
118
100
AcDbEntity
8
BEND_EXTENT
100
AcDbLine
10
491.82918254069449
20
20.261946710584429
30
2.4112045693414075e-10
11
-2.9706038969324311
21
20.261946710584425
31
2.4112045693414075e-10
0
LINE
5
119
100
AcDbEntity
8
BEND_EXTENT
100
AcDbLine
10
-2.0000000027240361
20
432.67520384029763
30
2.4171997736743833e-10
11
490.85857864513025
21
432.67520384447232
31
2.4475754756281276e-10
0
LINE
5
120
100
AcDbEntity
8
BEND_EXTENT
100
AcDbLine
10
491.37928932188123
20
431.54423048499831
30
2.410432964339293e-10
11
-2.5207106781187605
21
431.54423048499831
31
2.4406976439905748e-10
0
LINE
5
121
100
AcDbEntity
8
BEND_EXTENT
100
AcDbLine
10
-2.9707106781187775
20
408.91681348703031
30
2.4111990182262844e-10
11
491.82928932188139
21
408.91681348703031
31
2.4392488029434389e-10
0
ENDSEC
0
SECTION
2
OBJECTS
0
DICTIONARY
5
C
100
AcDbDictionary
3
ACAD_GROUP
350
D
3
ACAD_MLINESTYLE
350
17
0
DICTIONARY
5
D
100
AcDbDictionary
0
DICTIONARY
5
1A
330
C
100
AcDbDictionary
0
DICTIONARY
5
17
100
AcDbDictionary
0
ENDSEC
0
EOF
