0
SECTION
2
HEADER
9
$INSUNITS
70
4
9
$ACADVER
1
AC1014
9
$HANDSEED
5
FFFF
0
ENDSEC
0
SECTION
2
TABLES
0
TABLE
2
VPORT
5
8
100
AcDbSymbolTable
0
ENDTAB
0
TABLE
2
LTYPE
5
5
100
AcDbSymbolTable
0
LTYPE
5
14
100
AcDbSymbolTableRecord
100
AcDbLinetypeTableRecord
2
BYBLOCK
70
0
0
LTYPE
5
15
100
AcDbSymbolTableRecord
100
AcDbLinetypeTableRecord
2
BYLAYER
70
0
0
LTYPE
5
16
100
AcDbSymbolTableRecord
100
AcDbLinetypeTableRecord
2
DASHED
70
0
3
Dashed __ __ __ __ __ __ __ __ __ __ __ __ __ _
72
65
73
2
40
0.75
49
0.5
74
0
49
-0.25
74
0
0
ENDTAB
0
TABLE
2
LAYER
5
2
100
AcDbSymbolTable
70
2
0
LAYER
5
50
100
AcDbSymbolTableRecord
100
AcDbLayerTableRecord
2
0
70
0
62
7
6
CONTINUOUS
0
ENDTAB
0
TABLE
2
STYLE
5
3
100
AcDbSymbolTable
70
1
0
STYLE
5
11
100
AcDbSymbolTableRecord
100
AcDbTextStyleTableRecord
2
STANDARD
70
0
0
ENDTAB
0
TABLE
2
VIEW
5
6
100
AcDbSymbolTable
70
0
0
ENDTAB
0
TABLE
2
UCS
5
7
100
AcDbSymbolTable
70
0
0
ENDTAB
0
TABLE
2
APPID
5
9
100
AcDbSymbolTable
70
2
0
APPID
5
12
100
AcDbSymbolTableRecord
100
AcDbRegAppTableRecord
2
ACAD
70
0
0
ENDTAB
0
TABLE
2
DIMSTYLE
5
A
100
AcDbSymbolTable
70
1
0
ENDTAB
0
TABLE
2
BLOCK_RECORD
5
1
100
AcDbSymbolTable
70
1
0
BLOCK_RECORD
5
1F
100
AcDbSymbolTableRecord
100
AcDbBlockTableRecord
2
*MODEL_SPACE
0
BLOCK_RECORD
5
1B
100
AcDbSymbolTableRecord
100
AcDbBlockTableRecord
2
*PAPER_SPACE
0
ENDTAB
0
ENDSEC
0
SECTION
2
BLOCKS
0
BLOCK
5
20
100
AcDbEntity
100
AcDbBlockBegin
2
*MODEL_SPACE
0
ENDBLK
5
21
100
AcDbEntity
100
AcDbBlockEnd
0
BLOCK
5
1C
100
AcDbEntity
100
AcDbBlockBegin
2
*PAPER_SPACE
0
ENDBLK
5
1D
100
AcDbEntity
100
AcDbBlockEnd
0
ENDSEC
0
SECTION
2
ENTITIES
0
LWPOLYLINE
5
100
100
AcDbEntity
8
OUTER_PROFILES
100
AcDbPolyline
90
40
70
1
43
0.0
10
-2.5207106781188315
20
226.54423048504427
10
-2.9707106781188486
20
225.25823048504429
10
-2.9707106781189907
20
203.91681348707579
10
-2.0707106781188145
20
200.52389342119881
10
-4.3326573886999142
20
202.52389341872146
42
0.19891236737906645
10
-5.7468709510486242
20
201.93810698355347
10
-20.33265738870341
20
187.35232054594042
10
-22.59460409932899
20
184.45318273628476
10
-24.594604099184352
20
182.45318273547929
10
-24.594604099328876
20
24.594604099290081
10
-22.59460409932899
20
22.594604099301769
10
-20.332657388703268
20
20.524000202356085
10
-4.3326573887034669
20
20.524000202356159
10
-2.0707106781186724
20
22.52389342116949
10
-2.970603896932289
20
20.261946710584823
10
-2.9706038969320048
20
4.2619467105848141
10
-2.0000000000001705
20
1.9999999999999574
10
0
20
0
10
888.8585786437626
20
3.5527136788005009e-13
10
890.85857864376248
20
2.0000000000003126
10
891.82918254069432
20
4.2619467106394477
10
891.829182540695
20
20.261946710585153
10
890.92928932188124
20
22.523893421169845
10
893.19123603246589
20
20.524000202356589
10
909.19123603246589
20
20.524000202356454
10
911.45318274305623
20
22.594604099302281
10
913.45318274305509
20
24.594604099287388
10
913.45318274291105
20
182.45318273547966
10
911.45318274305578
20
184.45318273628513
10
909.19123603246589
20
187.35232054594564
10
894.60544959483423
20
201.9381069835722
42
0.19891236737935392
10
893.19123603246351
20
202.52389342119915
10
890.92928932188124
20
200.52389342119915
10
891.82928932188145
20
203.91681348707613
10
891.82928932188122
20
225.25823048504463
10
891.37928932188117
20
226.54423048504464
10
890.85857864543652
20
227.67520384382107
10
888.85857865086587
20
229.67520384093638
10
-3.6114045087742852e-09
20
229.67520384096954
10
-2.000000003378517
20
227.67520384034316
0
LINE
5
101
100
AcDbEntity
8
BEND
100
AcDbLine
10
-2.4853019484663719
20
3.1309733552924324
30
1.0712181142125132e-10
11
891.34388059220464
21
3.1309733552932095
31
3.0794811145540118e-11
0
LINE
5
102
100
AcDbEntity
8
BEND
100
AcDbLine
10
-21.4636307440162
20
185.90275164111264
30
1.0762317733962091e-10
11
-21.4636307440162
21
21.559302150836004
31
1.0846934461739011e-10
0
LINE
5
103
100
AcDbEntity
8
BEND
100
AcDbLine
10
891.11893398451161
20
227.10971716269336
30
1.0738798739140505e-10
11
-2.2603553407491006
21
227.10971716269296
31
1.122959247445628e-10
0
LINE
5
104
100
AcDbEntity
8
BEND
100
AcDbLine
10
910.32220938776095
20
21.559302150836224
30
1.0739326095077202e-10
11
910.32220938776072
21
185.90275164111318
31
1.0711359150996138e-10
0
LINE
5
105
100
AcDbEntity
8
BEND
100
AcDbLine
10
-3.2016840334111407
20
201.52389341873607
30
1.0688533391700616e-10
11
-3.2016840334109986
21
21.523946811762897
31
1.068978239260332e-10
0
LINE
5
106
100
AcDbEntity
8
BEND
100
AcDbLine
10
891.37928932188129
20
202.22035345413781
30
1.0685591300685344e-10
11
-2.5207106781188315
21
202.22035345413741
31
1.0687589702129685e-10
0
LINE
5
107
100
AcDbEntity
8
BEND
100
AcDbLine
10
892.06026267717391
20
21.523946811763039
30
1.0692835505921023e-10
11
892.0602626771738
21
201.52389341873672
31
1.0691530993867089e-10
0
LINE
5
108
100
AcDbEntity
8
BEND
100
AcDbLine
10
-2.5206572875254096
20
21.392920065877057
30
1.068450883323635e-10
11
891.37923593128801
21
21.392920065877416
31
1.0684508833236335e-10
0
LINE
5
109
100
AcDbEntity
8
BEND_EXTENT
100
AcDbLine
10
-20.33265738870341
20
187.35232054594042
30
1.0846878950587779e-10
11
-20.332657388703268
21
20.524000202356092
31
1.2147172157028763e-10
0
LINE
5
110
100
AcDbEntity
8
BEND_EXTENT
100
AcDbLine
10
-22.59460409932899
20
22.594604099301769
30
5.4605209243163699e-11
11
-22.59460409932899
21
184.45318273628476
31
1.0786704862653096e-10
0
LINE
5
111
100
AcDbEntity
8
BEND_EXTENT
100
AcDbLine
10
893.19123603246339
20
202.52389341872103
30
1.0697664976078143e-10
11
893.19123603246589
21
20.524000202356589
31
1.0690559548720542e-10
0
LWPOLYLINE
5
112
100
AcDbEntity
8
BEND_EXTENT
100
AcDbPolyline
90
4
70
1
43
0.0
10
890.92928932188124
20
22.523893421169845
10
890.92928932188124
20
200.52389342119915
10
-2.0707106781188145
20
200.52389342119881
10
-2.0707106781186724
20
22.52389342116949
0
LINE
5
113
100
AcDbEntity
8
BEND_EXTENT
100
AcDbLine
10
-4.3326573887034669
20
20.524000202356159
30
1.0697664976078158e-10
11
-4.3326573886999142
21
202.52389341872146
31
1.0690559548720557e-10
0
LINE
5
114
100
AcDbEntity
8
BEND_EXTENT
100
AcDbLine
10
890.85857864376248
20
2.0000000000003126
30
-8.7041485130628429e-13
11
-2.0000000000001705
21
1.9999999999999574
31
5.3095305929673486e-11
0
LINE
5
115
100
AcDbEntity
8
BEND_EXTENT
100
AcDbLine
10
-2.9706038969320048
20
4.2619467105848141
30
1.071187583079336e-10
11
891.82918254069432
21
4.2619467106394477
31
1.0704770403435744e-10
0
LINE
5
116
100
AcDbEntity
8
BEND_EXTENT
100
AcDbLine
10
909.19123603246589
20
20.524000202356454
30
1.0726086685508547e-10
11
909.19123603246589
21
187.35232054594564
31
1.0726086685508547e-10
0
LINE
5
117
100
AcDbEntity
8
BEND_EXTENT
100
AcDbLine
10
911.45318274305578
20
184.45318273628513
30
1.0687672968856516e-10
11
911.45318274305623
21
22.594604099302273
31
5.5253579489544629e-11
0
LINE
5
118
100
AcDbEntity
8
BEND_EXTENT
100
AcDbLine
10
891.829182540695
20
20.261946710585153
30
1.0690559548720542e-10
11
-2.970603896932289
21
20.261946710584823
31
1.0690559548720557e-10
0
LINE
5
119
100
AcDbEntity
8
BEND_EXTENT
100
AcDbLine
10
-2.000000003378517
20
227.67520384034316
30
1.0726530774718412e-10
11
890.85857864543652
21
227.67520384382107
31
1.0987655230110234e-10
0
LINE
5
120
100
AcDbEntity
8
BEND_EXTENT
100
AcDbLine
10
891.37928932188117
20
226.54423048504464
30
1.0704770403435744e-10
11
-2.5207106781188315
21
226.54423048504427
31
1.0964118501988196e-10
0
LINE
5
121
100
AcDbEntity
8
BEND_EXTENT
100
AcDbLine
10
-2.9707106781189907
20
203.91681348707579
30
1.0687006835041757e-10
11
891.82928932188145
21
203.91681348707613
31
1.0683454121362941e-10
0
ENDSEC
0
SECTION
2
OBJECTS
0
DICTIONARY
5
C
100
AcDbDictionary
3
ACAD_GROUP
350
D
3
ACAD_MLINESTYLE
350
17
0
DICTIONARY
5
D
100
AcDbDictionary
0
DICTIONARY
5
1A
330
C
100
AcDbDictionary
0
DICTIONARY
5
17
100
AcDbDictionary
0
ENDSEC
0
EOF
