0
SECTION
2
HEADER
9
$INSUNITS
70
4
9
$ACADVER
1
AC1014
9
$HANDSEED
5
FFFF
0
ENDSEC
0
SECTION
2
TABLES
0
TABLE
2
VPORT
5
8
100
AcDbSymbolTable
0
ENDTAB
0
TABLE
2
LTYPE
5
5
100
AcDbSymbolTable
0
LTYPE
5
14
100
AcDbSymbolTableRecord
100
AcDbLinetypeTableRecord
2
BYBLOCK
70
0
0
LTYPE
5
15
100
AcDbSymbolTableRecord
100
AcDbLinetypeTableRecord
2
BYLAYER
70
0
0
LTYPE
5
16
100
AcDbSymbolTableRecord
100
AcDbLinetypeTableRecord
2
DASHED
70
0
3
Dashed __ __ __ __ __ __ __ __ __ __ __ __ __ _
72
65
73
2
40
0.75
49
0.5
74
0
49
-0.25
74
0
0
ENDTAB
0
TABLE
2
LAYER
5
2
100
AcDbSymbolTable
70
2
0
LAYER
5
50
100
AcDbSymbolTableRecord
100
AcDbLayerTableRecord
2
0
70
0
62
7
6
CONTINUOUS
0
ENDTAB
0
TABLE
2
STYLE
5
3
100
AcDbSymbolTable
70
1
0
STYLE
5
11
100
AcDbSymbolTableRecord
100
AcDbTextStyleTableRecord
2
STANDARD
70
0
0
ENDTAB
0
TABLE
2
VIEW
5
6
100
AcDbSymbolTable
70
0
0
ENDTAB
0
TABLE
2
UCS
5
7
100
AcDbSymbolTable
70
0
0
ENDTAB
0
TABLE
2
APPID
5
9
100
AcDbSymbolTable
70
2
0
APPID
5
12
100
AcDbSymbolTableRecord
100
AcDbRegAppTableRecord
2
ACAD
70
0
0
ENDTAB
0
TABLE
2
DIMSTYLE
5
A
100
AcDbSymbolTable
70
1
0
ENDTAB
0
TABLE
2
BLOCK_RECORD
5
1
100
AcDbSymbolTable
70
1
0
BLOCK_RECORD
5
1F
100
AcDbSymbolTableRecord
100
AcDbBlockTableRecord
2
*MODEL_SPACE
0
BLOCK_RECORD
5
1B
100
AcDbSymbolTableRecord
100
AcDbBlockTableRecord
2
*PAPER_SPACE
0
ENDTAB
0
ENDSEC
0
SECTION
2
BLOCKS
0
BLOCK
5
20
100
AcDbEntity
100
AcDbBlockBegin
2
*MODEL_SPACE
0
ENDBLK
5
21
100
AcDbEntity
100
AcDbBlockEnd
0
BLOCK
5
1C
100
AcDbEntity
100
AcDbBlockBegin
2
*PAPER_SPACE
0
ENDBLK
5
1D
100
AcDbEntity
100
AcDbBlockEnd
0
ENDSEC
0
SECTION
2
ENTITIES
0
LWPOLYLINE
5
100
100
AcDbEntity
8
OUTER_PROFILES
100
AcDbPolyline
90
40
70
1
43
0.0
10
-20.332657384761788
20
209.15120363835689
10
-22.594604095341477
20
207.0805997414169
10
-24.594604095344526
20
205.08059974143453
10
-24.594604095518264
20
47.222021101390794
10
-22.594604095666348
20
45.222021100939997
10
-20.33265738509661
20
42.322883294765212
10
-5.7468709474962631
20
27.737096857111496
42
0.19891236736866263
10
-4.3326573852089565
20
27.151310419481753
10
-2.0707106745383705
20
29.151310419477205
10
-2.9707106745453196
20
25.758390353602039
10
-2.9707106745879668
20
4.4169733556340063
10
-2.5207106745905303
20
3.1309733556330954
10
-1.9999999981105545
20
1.9999999986402273
10
0
20
0
10
488.85857865082238
20
-1.014370809571119e-09
10
490.85857865059575
20
1.9999999993404671
10
491.37928932540933
20
3.1309733546420304
10
491.82928932541193
20
4.4169733546410939
10
491.82928932545479
20
25.758390352609126
10
490.92928932546158
20
29.151310418487917
10
493.19123603608193
20
27.151310418513148
42
0.19891236737390208
10
494.60544959839137
20
27.737096856127156
10
509.19123603607272
20
42.322883293705331
10
511.45318274670672
20
45.222021099868357
10
513.45318274656654
20
47.222021100311125
10
513.45318274702754
20
205.08059974035061
10
511.45318274703152
20
207.08059974034498
10
509.19123603640736
20
209.15120363729443
10
493.19123603640742
20
209.15120363732643
10
490.92928932581879
20
207.15131041851765
10
491.82918254463698
20
209.41325712910049
10
491.82918254466892
20
225.41325712910054
10
490.85857864774073
20
227.67520383968719
10
488.85857864774528
20
229.67520383969116
10
3.9826630882089376e-09
20
229.67520384067205
10
-1.999999996019366
20
227.6752038406762
10
-2.9706038929566625
20
225.41325713004346
10
-2.9706038929899066
20
209.41325713009343
10
-2.0707106741811838
20
207.15131041950696
10
-4.3326573847618306
20
209.15120363832497
0
LINE
5
101
100
AcDbEntity
8
BEND
100
AcDbLine
10
491.34388059620539
20
226.54423048439372
30
8.4932061435529196e-14
11
-2.4853019444658742
21
226.54423048538433
31
-7.0029260168525088e-11
0
LINE
5
102
100
AcDbEntity
8
BEND
100
AcDbLine
10
510.32220939138989
20
43.772452196786809
30
2.6312581924400971e-13
11
510.32220939171958
21
208.11590168881247
31
1.4849232959731731e-13
0
LINE
5
103
100
AcDbEntity
8
BEND
100
AcDbLine
10
-2.2603553371864784
20
2.5654866779821006
30
1.2323475573315453e-13
11
491.11893398800305
21
2.5654866769920304
31
1.0007771585961833e-11
0
LINE
5
104
100
AcDbEntity
8
BEND
100
AcDbLine
10
-21.463630740051748
20
208.11590168987971
30
-2.4036328483360544e-13
11
-21.463630740381593
21
43.772452197853902
31
-2.2883506877804194e-13
0
LINE
5
105
100
AcDbEntity
8
BEND
100
AcDbLine
10
492.06026268075192
20
28.151310420948441
30
-3.1946667528410791e-13
11
492.0602626811131
21
208.15125702792213
31
-3.1558089469791987e-13
0
LINE
5
106
100
AcDbEntity
8
BEND
100
AcDbLine
10
-2.520710674541756
20
27.454850386539604
30
-3.1447067172534085e-13
11
491.37928932545822
21
27.454850385548539
31
-3.1474822742952269e-13
0
LINE
5
107
100
AcDbEntity
8
BEND
100
AcDbLine
10
-3.2016840294715014
20
208.15125702891595
30
-3.155808947500377e-13
11
-3.2016840298327027
21
28.151310421942277
31
-3.1946667533622575e-13
0
LINE
5
108
100
AcDbEntity
8
BEND
100
AcDbLine
10
491.37923593522777
20
208.28228377380913
30
-2.9559688025473864e-13
11
-2.5206572835856633
21
208.28228377480025
31
-2.9587443606286938e-13
0
LINE
5
109
100
AcDbEntity
8
BEND_EXTENT
100
AcDbLine
10
509.19123603607272
20
42.322883293705331
30
1.8207657609210927e-13
11
509.19123603640736
21
209.15120363729443
31
1.4002132786626057e-11
0
LINE
5
110
100
AcDbEntity
8
BEND_EXTENT
100
AcDbLine
10
511.45318274703152
20
207.08059974034498
30
-4.9222848019727115e-11
11
511.45318274670672
21
45.222021099868357
31
-6.8611782916452346e-13
0
LINE
5
111
100
AcDbEntity
8
BEND_EXTENT
100
AcDbLine
10
-4.3326573852089574
20
27.151310421933346
30
-3.1530333899400041e-13
11
-4.3326573847618306
21
209.15120363832497
31
-3.1530333899400041e-13
0
LWPOLYLINE
5
112
100
AcDbEntity
8
BEND_EXTENT
100
AcDbPolyline
90
4
70
1
43
0.0
10
-2.0707106741811838
20
207.15131041950696
10
-2.0707106745383705
20
29.151310419477205
10
490.92928932546158
20
29.151310418487917
10
490.92928932581879
20
207.15131041851765
0
LINE
5
113
100
AcDbEntity
8
BEND_EXTENT
100
AcDbLine
10
493.19123603640742
20
209.15120363732643
30
-3.5083047572964954e-13
11
493.19123603608193
21
27.151310420961003
31
-3.1530333894164453e-13
0
LINE
5
114
100
AcDbEntity
8
BEND_EXTENT
100
AcDbLine
10
-1.999999996019366
20
227.6752038406762
30
-9.8916430602003154e-11
11
490.85857864774073
21
227.67520383968719
31
-4.9455994854900576e-11
0
LINE
5
115
100
AcDbEntity
8
BEND_EXTENT
100
AcDbLine
10
491.82918254466892
20
225.41325712910054
30
3.9968028938262168e-14
11
-2.9706038929566603
21
225.41325713004346
31
-3.1086244689816993e-14
0
LINE
5
116
100
AcDbEntity
8
BEND_EXTENT
100
AcDbLine
10
-20.332657384761788
20
209.15120363835689
30
-2.4424906541967413e-13
11
-20.33265738509661
21
42.322883294765212
31
-2.4424906541967413e-13
0
LINE
5
117
100
AcDbEntity
8
BEND_EXTENT
100
AcDbLine
10
-22.594604095666348
20
45.222021100939997
30
-1.101341240430533e-12
11
-22.594604095341477
21
207.0805997414169
31
-5.2489124158230529e-11
0
LINE
5
118
100
AcDbEntity
8
BEND_EXTENT
100
AcDbLine
10
-2.9706038929899066
20
209.41325713009343
30
-2.4424906541784706e-13
11
491.82918254463698
21
209.41325712910049
31
-2.4424906536577789e-13
0
LINE
5
119
100
AcDbEntity
8
BEND_EXTENT
100
AcDbLine
10
490.85857865059575
20
1.9999999993404671
30
-1.37667655001865e-13
11
-1.9999999981105532
21
1.9999999986402273
31
4.9782400424189911e-12
0
LINE
5
120
100
AcDbEntity
8
BEND_EXTENT
100
AcDbLine
10
-2.5207106745905303
20
3.1309733556330954
30
-2.0872192862979469e-13
11
491.37928932540933
21
3.1309733546420304
31
4.8538950637128929e-12
0
LINE
5
121
100
AcDbEntity
8
BEND_EXTENT
100
AcDbLine
10
491.82928932545479
20
25.758390352609126
30
-3.1530333894178786e-13
11
-2.970710674545316
21
25.758390353602039
31
-3.3306690738785958e-13
0
ENDSEC
0
SECTION
2
OBJECTS
0
DICTIONARY
5
C
100
AcDbDictionary
3
ACAD_GROUP
350
D
3
ACAD_MLINESTYLE
350
17
0
DICTIONARY
5
D
100
AcDbDictionary
0
DICTIONARY
5
1A
330
C
100
AcDbDictionary
0
DICTIONARY
5
17
100
AcDbDictionary
0
ENDSEC
0
EOF
