0
SECTION
2
HEADER
9
$INSUNITS
70
4
9
$ACADVER
1
AC1014
9
$HANDSEED
5
FFFF
0
ENDSEC
0
SECTION
2
TABLES
0
TABLE
2
VPORT
5
8
100
AcDbSymbolTable
0
ENDTAB
0
TABLE
2
LTYPE
5
5
100
AcDbSymbolTable
0
LTYPE
5
14
100
AcDbSymbolTableRecord
100
AcDbLinetypeTableRecord
2
BYBLOCK
70
0
0
LTYPE
5
15
100
AcDbSymbolTableRecord
100
AcDbLinetypeTableRecord
2
BYLAYER
70
0
0
LTYPE
5
16
100
AcDbSymbolTableRecord
100
AcDbLinetypeTableRecord
2
DASHED
70
0
3
Dashed __ __ __ __ __ __ __ __ __ __ __ __ __ _
72
65
73
2
40
0.75
49
0.5
74
0
49
-0.25
74
0
0
ENDTAB
0
TABLE
2
LAYER
5
2
100
AcDbSymbolTable
70
2
0
LAYER
5
50
100
AcDbSymbolTableRecord
100
AcDbLayerTableRecord
2
0
70
0
62
7
6
CONTINUOUS
0
ENDTAB
0
TABLE
2
STYLE
5
3
100
AcDbSymbolTable
70
1
0
STYLE
5
11
100
AcDbSymbolTableRecord
100
AcDbTextStyleTableRecord
2
STANDARD
70
0
0
ENDTAB
0
TABLE
2
VIEW
5
6
100
AcDbSymbolTable
70
0
0
ENDTAB
0
TABLE
2
UCS
5
7
100
AcDbSymbolTable
70
0
0
ENDTAB
0
TABLE
2
APPID
5
9
100
AcDbSymbolTable
70
2
0
APPID
5
12
100
AcDbSymbolTableRecord
100
AcDbRegAppTableRecord
2
ACAD
70
0
0
ENDTAB
0
TABLE
2
DIMSTYLE
5
A
100
AcDbSymbolTable
70
1
0
ENDTAB
0
TABLE
2
BLOCK_RECORD
5
1
100
AcDbSymbolTable
70
1
0
BLOCK_RECORD
5
1F
100
AcDbSymbolTableRecord
100
AcDbBlockTableRecord
2
*MODEL_SPACE
0
BLOCK_RECORD
5
1B
100
AcDbSymbolTableRecord
100
AcDbBlockTableRecord
2
*PAPER_SPACE
0
ENDTAB
0
ENDSEC
0
SECTION
2
BLOCKS
0
BLOCK
5
20
100
AcDbEntity
100
AcDbBlockBegin
2
*MODEL_SPACE
0
ENDBLK
5
21
100
AcDbEntity
100
AcDbBlockEnd
0
BLOCK
5
1C
100
AcDbEntity
100
AcDbBlockBegin
2
*PAPER_SPACE
0
ENDBLK
5
1D
100
AcDbEntity
100
AcDbBlockEnd
0
ENDSEC
0
SECTION
2
ENTITIES
0
LWPOLYLINE
5
100
100
AcDbEntity
8
OUTER_PROFILES
100
AcDbPolyline
90
40
70
1
43
0.0
10
1209.1912360324659
20
20.52400020235666
10
1211.4531827430192
20
22.594604099302416
10
1213.4531827430183
20
24.594604099287594
10
1213.4531827428743
20
182.45318274577701
10
1211.4531827430189
20
184.45318274651569
10
1209.1912360324659
20
187.35232054594468
10
1194.6054495948326
20
201.93810698357285
42
0.19891236737922671
10
1193.1912360324627
20
202.52389342119977
10
1190.9292893218812
20
200.5238934211998
10
1191.8292893218816
20
203.91681348707681
10
1191.8292893218813
20
225.25823048504481
10
1191.3792893218813
20
226.54423048504475
10
1190.8585786454298
20
227.67520383856902
10
1188.8585786438809
20
229.67520383762599
10
-3.5927882890973706e-09
20
229.67520384116631
10
-2.0000000033607535
20
227.67520384033924
10
-2.5207106781186894
20
226.54423048504475
10
-2.9707106781187065
20
225.25823048504481
10
-2.9707106781188486
20
203.91681348707678
10
-2.0707106781185303
20
200.5238934211998
10
-4.3326573886986353
20
202.5238934187222
42
0.19891236737884699
10
-5.7468709510458087
20
201.93810698355497
10
-20.33265738870341
20
187.35232054593823
10
-22.594604099264473
20
184.45318274651569
10
-24.594604099119977
20
182.45318274577701
10
-24.594604099264927
20
24.594604099291857
10
-22.594604099264473
20
22.594604099302131
10
-20.33265738870341
20
20.52400020235666
10
-4.3326573887034669
20
20.524000202356731
10
-2.0707106781186724
20
22.523893421170058
10
-2.9706038969321469
20
20.261946710585278
10
-2.9706038969320048
20
4.2619467105852511
10
-2.0000000000001705
20
2.0000000000005258
10
0
20
0
10
1188.8585786437627
20
6.3948846218409017e-13
10
1190.858578643762
20
2.0000000000005258
10
1191.8291825406939
20
4.2619467106396431
10
1191.8291825406941
20
20.261946710585249
10
1190.9292893218812
20
22.523893421170058
10
1193.1912360324659
20
20.52400020235666
0
LINE
5
101
100
AcDbEntity
8
BEND
100
AcDbLine
10
-2.4853019484663719
20
3.1309733552930563
30
1.0747430723156981e-10
11
1191.3438805922044
21
3.1309733552934893
31
3.0808411377591938e-11
0
LINE
5
102
100
AcDbEntity
8
BEND
100
AcDbLine
10
-21.463630743983941
20
185.90275164622705
30
1.0806887028686501e-10
11
-21.463630743983941
21
21.559302150836572
31
1.0804940275832564e-10
0
LINE
5
103
100
AcDbEntity
8
BEND
100
AcDbLine
10
1191.118933984503
20
227.1097171626912
30
1.0801831651363614e-10
11
-2.2603553407402899
21
227.1097171626912
31
1.0781175913777403e-10
0
LINE
5
104
100
AcDbEntity
8
BEND
100
AcDbLine
10
1210.3222093877425
20
21.55930215083643
30
1.0651951543039218e-10
11
1210.3222093877425
21
185.90275164622727
31
1.0653961999040362e-10
0
LINE
5
105
100
AcDbEntity
8
BEND
100
AcDbLine
10
-3.2016840334111407
20
201.52389341873715
30
1.0763584468165277e-10
11
-3.2016840334111407
21
21.523946811763324
31
1.0764888980219212e-10
0
LINE
5
106
100
AcDbEntity
8
BEND
100
AcDbLine
10
1191.3792893218815
20
202.22035345413829
30
1.0759282353944855e-10
11
-2.5207106781186894
21
202.22035345413829
31
1.0759282353944855e-10
0
LINE
5
107
100
AcDbEntity
8
BEND
100
AcDbLine
10
1192.0602626771738
20
21.523946811763253
30
1.0764195090828821e-10
11
1192.0602626771736
21
201.52389341873715
31
1.0763556712589661e-10
0
LINE
5
108
100
AcDbEntity
8
BEND
100
AcDbLine
10
-2.5206572875254096
20
21.392920065877689
30
1.0760670132725636e-10
11
1191.3792359312881
21
21.392920065877689
31
1.0760670132725636e-10
0
LINE
5
109
100
AcDbEntity
8
BEND_EXTENT
100
AcDbLine
10
-20.33265738870341
20
187.35232054593823
30
1.0752065904284791e-10
11
-20.33265738870341
21
20.52400020235666
31
9.9988906043790848e-11
0
LINE
5
110
100
AcDbEntity
8
BEND_EXTENT
100
AcDbLine
10
-22.594604099264473
20
22.594604099302131
30
5.3650417441986065e-11
11
-22.594604099264473
21
184.45318274651569
31
1.0646372672340476e-10
0
LINE
5
111
100
AcDbEntity
8
BEND_EXTENT
100
AcDbLine
10
1193.1912360324627
20
202.52389341872117
30
1.0773382186357594e-10
11
1193.1912360324659
21
20.52400020235666
31
1.0766276758999993e-10
0
LWPOLYLINE
5
112
100
AcDbEntity
8
BEND_EXTENT
100
AcDbPolyline
90
4
70
1
43
0.0
10
1190.9292893218812
20
22.523893421170058
10
1190.9292893218812
20
200.5238934211998
10
-2.0707106781185303
20
200.5238934211998
10
-2.0707106781186724
20
22.523893421170058
0
LINE
5
113
100
AcDbEntity
8
BEND_EXTENT
100
AcDbLine
10
-4.3326573887034669
20
20.524000202356731
30
1.0773382186357594e-10
11
-4.3326573886986353
21
202.5238934187222
31
1.0773382186357594e-10
0
LINE
5
114
100
AcDbEntity
8
BEND_EXTENT
100
AcDbLine
10
1190.858578643762
20
2.0000000000005258
30
-9.3258734068513149e-13
11
-2.0000000000001705
21
2.0000000000005258
31
5.3228532692628505e-11
0
LINE
5
115
100
AcDbEntity
8
BEND_EXTENT
100
AcDbLine
10
-2.9706038969320048
20
4.2619467105852511
30
1.074496047692719e-10
11
1191.8291825406939
21
4.2619467106396431
31
1.0737855049569589e-10
0
LINE
5
116
100
AcDbEntity
8
BEND_EXTENT
100
AcDbLine
10
1209.1912360324659
20
20.52400020235666
30
1.0645484493920776e-10
11
1209.1912360324659
21
187.35232054594468
31
1.0624168211847973e-10
0
LINE
5
117
100
AcDbEntity
8
BEND_EXTENT
100
AcDbLine
10
1211.4531827430189
20
184.45318274651569
30
1.0494050073361905e-10
11
1211.4531827430192
21
22.594604099302416
31
4.1764369740349139e-11
0
LINE
5
118
100
AcDbEntity
8
BEND_EXTENT
100
AcDbLine
10
1191.8291825406941
20
20.261946710585249
30
1.0766276758999993e-10
11
-2.9706038969321469
21
20.261946710585278
31
1.0766276758999993e-10
0
LINE
5
119
100
AcDbEntity
8
BEND_EXTENT
100
AcDbLine
10
-2.0000000033607535
20
227.67520384033924
30
1.0788481219492496e-10
11
1190.8585786454298
21
227.67520383856902
31
1.0794254379220547e-10
0
LINE
5
120
100
AcDbEntity
8
BEND_EXTENT
100
AcDbLine
10
1191.3792893218813
20
226.54423048504475
30
1.0768053115839393e-10
11
-2.5207106781186894
21
226.54423048504475
31
1.0773382186357594e-10
0
LINE
5
121
100
AcDbEntity
8
BEND_EXTENT
100
AcDbLine
10
-2.9707106781188486
20
203.91681348707678
30
1.0755618617963592e-10
11
1191.8292893218816
21
203.91681348707681
31
1.0752065904284791e-10
0
ENDSEC
0
SECTION
2
OBJECTS
0
DICTIONARY
5
C
100
AcDbDictionary
3
ACAD_GROUP
350
D
3
ACAD_MLINESTYLE
350
17
0
DICTIONARY
5
D
100
AcDbDictionary
0
DICTIONARY
5
1A
330
C
100
AcDbDictionary
0
DICTIONARY
5
17
100
AcDbDictionary
0
ENDSEC
0
EOF
