0
SECTION
2
HEADER
9
$INSUNITS
70
4
9
$ACADVER
1
AC1014
9
$HANDSEED
5
FFFF
0
ENDSEC
0
SECTION
2
TABLES
0
TABLE
2
VPORT
5
8
100
AcDbSymbolTable
0
ENDTAB
0
TABLE
2
LTYPE
5
5
100
AcDbSymbolTable
0
LTYPE
5
14
100
AcDbSymbolTableRecord
100
AcDbLinetypeTableRecord
2
BYBLOCK
70
0
0
LTYPE
5
15
100
AcDbSymbolTableRecord
100
AcDbLinetypeTableRecord
2
BYLAYER
70
0
0
LTYPE
5
16
100
AcDbSymbolTableRecord
100
AcDbLinetypeTableRecord
2
DASHED
70
0
3
Dashed __ __ __ __ __ __ __ __ __ __ __ __ __ _
72
65
73
2
40
0.75
49
0.5
74
0
49
-0.25
74
0
0
ENDTAB
0
TABLE
2
LAYER
5
2
100
AcDbSymbolTable
70
2
0
LAYER
5
50
100
AcDbSymbolTableRecord
100
AcDbLayerTableRecord
2
0
70
0
62
7
6
CONTINUOUS
0
ENDTAB
0
TABLE
2
STYLE
5
3
100
AcDbSymbolTable
70
1
0
STYLE
5
11
100
AcDbSymbolTableRecord
100
AcDbTextStyleTableRecord
2
STANDARD
70
0
0
ENDTAB
0
TABLE
2
VIEW
5
6
100
AcDbSymbolTable
70
0
0
ENDTAB
0
TABLE
2
UCS
5
7
100
AcDbSymbolTable
70
0
0
ENDTAB
0
TABLE
2
APPID
5
9
100
AcDbSymbolTable
70
2
0
APPID
5
12
100
AcDbSymbolTableRecord
100
AcDbRegAppTableRecord
2
ACAD
70
0
0
ENDTAB
0
TABLE
2
DIMSTYLE
5
A
100
AcDbSymbolTable
70
1
0
ENDTAB
0
TABLE
2
BLOCK_RECORD
5
1
100
AcDbSymbolTable
70
1
0
BLOCK_RECORD
5
1F
100
AcDbSymbolTableRecord
100
AcDbBlockTableRecord
2
*MODEL_SPACE
0
BLOCK_RECORD
5
1B
100
AcDbSymbolTableRecord
100
AcDbBlockTableRecord
2
*PAPER_SPACE
0
ENDTAB
0
ENDSEC
0
SECTION
2
BLOCKS
0
BLOCK
5
20
100
AcDbEntity
100
AcDbBlockBegin
2
*MODEL_SPACE
0
ENDBLK
5
21
100
AcDbEntity
100
AcDbBlockEnd
0
BLOCK
5
1C
100
AcDbEntity
100
AcDbBlockBegin
2
*PAPER_SPACE
0
ENDBLK
5
1D
100
AcDbEntity
100
AcDbBlockEnd
0
ENDSEC
0
SECTION
2
ENTITIES
0
LWPOLYLINE
5
100
100
AcDbEntity
8
OUTER_PROFILES
100
AcDbPolyline
90
40
70
1
43
0.0
10
-20.332657384406808
20
414.15120363857272
10
-22.594604095015086
20
412.08059974163228
10
-24.594604095018205
20
410.08059974164996
10
-24.594604095417438
20
47.222021101602323
10
-22.594604095750974
20
45.222021101090064
10
-20.332657385152942
20
42.322883295045486
10
-5.7468709475477597
20
27.737096857386803
42
0.19891236739695167
10
-4.3326573850427419
20
27.151310419757056
10
-2.0707106745947157
20
29.151310419752576
10
-2.9707106746017002
20
25.758390353864158
10
-2.9707106746443839
20
4.4169733558958058
10
-2.5207106746469474
20
3.1309733558949659
10
-1.9999999981263639
20
1.999999999037243
10
0
20
0
10
888.85857865064668
20
-1.7837464838521553e-09
10
890.85857865040737
20
1.9999999988051798
10
891.37928932535306
20
3.1309733541012008
10
891.8292893253556
20
4.4169733541002643
10
891.82928932539858
20
25.758390352068545
10
890.92928932540531
20
29.151310417960588
10
893.19123603591163
20
27.151310420404116
42
0.19891236738762838
10
894.60544959836977
20
27.737096855555169
10
909.19123603601633
20
42.322883293187843
10
911.45318274658337
20
45.222021099215723
10
913.45318274625788
20
47.222021099719953
10
913.45318274731517
20
410.0805997397643
10
911.45318274731972
20
412.08059973975787
10
909.19123603676258
20
414.15120363670735
10
893.19123603676258
20
414.15120363673964
10
890.92928932617383
20
412.15131041793074
10
891.82918254499202
20
414.41325712851352
10
891.82918254502385
20
430.41325712851352
10
890.858578648096
20
432.67520383910011
10
888.85857864810077
20
434.67520383910414
10
4.3372949676268036e-09
20
434.67520384088772
10
-1.9999999956646906
20
432.67520384089187
10
-2.9706038926017033
20
430.41325713025117
10
-2.9706038926353022
20
414.41325713030915
10
-2.070710673826154
20
412.15131041972268
10
-4.332657384406823
20
414.15120363854055
0
LINE
5
101
100
AcDbEntity
8
BEND
100
AcDbLine
10
891.34388059656044
20
431.54423048380693
30
1.5845658118130744e-12
11
-2.4853019441077606
21
431.54423048560011
31
-8.0029038951323447e-11
0
LINE
5
102
100
AcDbEntity
8
BEND
100
AcDbLine
10
910.32220939130002
20
43.772452196201925
30
1.6165824869621448e-12
11
910.32220939204126
21
413.11590168822545
31
1.9834134334078889e-12
0
LINE
5
103
100
AcDbEntity
8
BEND
100
AcDbLine
10
-2.2603553371768861
20
2.5654866782466001
30
1.4266365866435372e-12
11
891.11893398788072
21
2.5654866764539008
31
4.386285103011964e-12
0
LINE
5
104
100
AcDbEntity
8
BEND
100
AcDbLine
10
-21.463630739710588
20
413.11590169009543
30
2.0886070650780795e-12
11
-21.463630740451713
21
43.772452198071505
31
1.7347464515410854e-12
0
LINE
5
105
100
AcDbEntity
8
BEND
100
AcDbLine
10
892.06026268069581
20
28.151310420421183
30
1.8848811399741103e-12
11
892.06026268146832
21
413.1512570273353
31
1.8809953593879223e-12
0
LINE
5
106
100
AcDbEntity
8
BEND
100
AcDbLine
10
-2.5207106745981367
20
27.454850386808332
30
1.892930256986127e-12
11
891.37928932540194
21
27.454850385014566
31
1.8932078126588624e-12
0
LINE
5
107
100
AcDbEntity
8
BEND
100
AcDbLine
10
-3.201684029116481
20
413.15125702913167
30
1.8504642262942785e-12
11
-3.2016840298890745
21
28.151310422217861
31
1.8982038163531607e-12
0
LINE
5
108
100
AcDbEntity
8
BEND
100
AcDbLine
10
891.37923593558287
20
413.28228377322216
30
1.8565704528462323e-12
11
-2.5206572832306051
21
413.28228377501597
31
1.8565704529296531e-12
0
LINE
5
109
100
AcDbEntity
8
BEND_EXTENT
100
AcDbLine
10
909.19123603601633
20
42.322883293187843
30
2.0161650126344365e-12
11
909.19123603676258
21
414.15120363670735
31
-5.5155879864226267e-12
0
LINE
5
110
100
AcDbEntity
8
BEND_EXTENT
100
AcDbLine
10
911.45318274731972
20
412.08059973975787
30
-1.1012968315080209e-10
11
911.45318274658337
21
45.222021099215723
31
-1.6431300772958383e-13
0
LINE
5
111
100
AcDbEntity
8
BEND_EXTENT
100
AcDbLine
10
-4.3326573850427401
20
27.151310422249963
30
1.8030021919916585e-12
11
-4.332657384406823
21
414.15120363854055
31
1.8030021919916585e-12
0
LWPOLYLINE
5
112
100
AcDbEntity
8
BEND_EXTENT
100
AcDbPolyline
90
4
70
1
43
0.0
10
-2.070710673826154
20
412.15131041972268
10
-2.0707106745947157
20
29.151310419752576
10
890.92928932540531
20
29.151310417960588
10
890.92928932617383
20
412.15131041793074
0
LINE
5
113
100
AcDbEntity
8
BEND_EXTENT
100
AcDbLine
10
893.19123603676258
20
414.15120363673964
30
1.8030021919078996e-12
11
893.19123603591163
21
27.151310420404116
31
1.8030021919078996e-12
0
LINE
5
114
100
AcDbEntity
8
BEND_EXTENT
100
AcDbLine
10
-1.9999999956646906
20
432.67520384089187
30
-1.6853851647624631e-10
11
890.858578648096
21
432.67520383910011
31
-1.1105116826123904e-10
0
LINE
5
115
100
AcDbEntity
8
BEND_EXTENT
100
AcDbLine
10
891.82918254502385
20
430.41325712851352
30
1.5187850976039868e-12
11
-2.9706038926016731
21
430.41325713025117
31
1.3056222769594616e-12
0
LINE
5
116
100
AcDbEntity
8
BEND_EXTENT
100
AcDbLine
10
-20.332657384406808
20
414.15120363857272
30
2.0161650127211818e-12
11
-20.332657385152942
21
42.322883295045486
31
2.0872192862971918e-12
0
LINE
5
117
100
AcDbEntity
8
BEND_EXTENT
100
AcDbLine
10
-22.594604095750974
20
45.222021101090064
30
-1.0436096431265612e-13
11
-22.594604095015086
21
412.08059974163228
31
-1.0398126804034079e-10
0
LINE
5
118
100
AcDbEntity
8
BEND_EXTENT
100
AcDbLine
10
-2.9706038926353022
20
414.41325713030915
30
1.7319479184155217e-12
11
891.82918254499202
21
414.41325712851352
31
1.7319479183320168e-12
0
LINE
5
119
100
AcDbEntity
8
BEND_EXTENT
100
AcDbLine
10
890.85857865040737
20
1.9999999988051798
30
5.9063864901744618e-13
11
-1.9999999981263272
21
1.999999999037243
31
2.2293278334475009e-12
0
LINE
5
120
100
AcDbEntity
8
BEND_EXTENT
100
AcDbLine
10
-2.5207106746469474
20
3.1309733558949659
30
1.0941247907683272e-12
11
891.37928932535306
21
3.1309733541012008
31
2.7372548671301377e-12
0
LINE
5
121
100
AcDbEntity
8
BEND_EXTENT
100
AcDbLine
10
891.82928932539858
20
25.758390352068545
30
1.8973711490011652e-12
11
-2.970710674601662
21
25.758390353864158
31
4.7029047323124394e-12
0
ENDSEC
0
SECTION
2
OBJECTS
0
DICTIONARY
5
C
100
AcDbDictionary
3
ACAD_GROUP
350
D
3
ACAD_MLINESTYLE
350
17
0
DICTIONARY
5
D
100
AcDbDictionary
0
DICTIONARY
5
1A
330
C
100
AcDbDictionary
0
DICTIONARY
5
17
100
AcDbDictionary
0
ENDSEC
0
EOF
