0
SECTION
2
HEADER
9
$INSUNITS
70
4
9
$ACADVER
1
AC1014
9
$HANDSEED
5
FFFF
0
ENDSEC
0
SECTION
2
TABLES
0
TABLE
2
VPORT
5
8
100
AcDbSymbolTable
0
ENDTAB
0
TABLE
2
LTYPE
5
5
100
AcDbSymbolTable
0
LTYPE
5
14
100
AcDbSymbolTableRecord
100
AcDbLinetypeTableRecord
2
BYBLOCK
70
0
0
LTYPE
5
15
100
AcDbSymbolTableRecord
100
AcDbLinetypeTableRecord
2
BYLAYER
70
0
0
LTYPE
5
16
100
AcDbSymbolTableRecord
100
AcDbLinetypeTableRecord
2
DASHED
70
0
3
Dashed __ __ __ __ __ __ __ __ __ __ __ __ __ _
72
65
73
2
40
0.75
49
0.5
74
0
49
-0.25
74
0
0
ENDTAB
0
TABLE
2
LAYER
5
2
100
AcDbSymbolTable
70
2
0
LAYER
5
50
100
AcDbSymbolTableRecord
100
AcDbLayerTableRecord
2
0
70
0
62
7
6
CONTINUOUS
0
ENDTAB
0
TABLE
2
STYLE
5
3
100
AcDbSymbolTable
70
1
0
STYLE
5
11
100
AcDbSymbolTableRecord
100
AcDbTextStyleTableRecord
2
STANDARD
70
0
0
ENDTAB
0
TABLE
2
VIEW
5
6
100
AcDbSymbolTable
70
0
0
ENDTAB
0
TABLE
2
UCS
5
7
100
AcDbSymbolTable
70
0
0
ENDTAB
0
TABLE
2
APPID
5
9
100
AcDbSymbolTable
70
2
0
APPID
5
12
100
AcDbSymbolTableRecord
100
AcDbRegAppTableRecord
2
ACAD
70
0
0
ENDTAB
0
TABLE
2
DIMSTYLE
5
A
100
AcDbSymbolTable
70
1
0
ENDTAB
0
TABLE
2
BLOCK_RECORD
5
1
100
AcDbSymbolTable
70
1
0
BLOCK_RECORD
5
1F
100
AcDbSymbolTableRecord
100
AcDbBlockTableRecord
2
*MODEL_SPACE
0
BLOCK_RECORD
5
1B
100
AcDbSymbolTableRecord
100
AcDbBlockTableRecord
2
*PAPER_SPACE
0
ENDTAB
0
ENDSEC
0
SECTION
2
BLOCKS
0
BLOCK
5
20
100
AcDbEntity
100
AcDbBlockBegin
2
*MODEL_SPACE
0
ENDBLK
5
21
100
AcDbEntity
100
AcDbBlockEnd
0
BLOCK
5
1C
100
AcDbEntity
100
AcDbBlockBegin
2
*PAPER_SPACE
0
ENDBLK
5
1D
100
AcDbEntity
100
AcDbBlockEnd
0
ENDSEC
0
SECTION
2
ENTITIES
0
LWPOLYLINE
5
100
100
AcDbEntity
8
OUTER_PROFILES
100
AcDbPolyline
90
40
70
1
43
0.0
10
-2.9706038969320048
20
20.261946710585047
10
-2.9706038969318627
20
4.2619467105850539
10
-2.0000000000003126
20
2.0000000000003793
10
0
20
0
10
688.85857864376294
20
8.5265128291212022e-13
10
690.85857864376294
20
2.00000000000081
10
691.82918254069455
20
4.2619467106417597
10
691.82918254069489
20
20.261946710585434
10
690.92928932188147
20
22.523893421170058
10
693.19123603246612
20
20.524000202356874
10
709.19123603246601
20
20.524000202356603
10
711.45318274304259
20
22.594604099302643
10
713.45318274304168
20
24.594604099288105
10
713.45318274270755
20
387.45318273524606
10
711.45318274304213
20
389.45318273552846
10
709.19123603246567
20
392.35232054588829
10
694.60544959483514
20
406.93810698351376
42
0.19891236737943097
10
693.19123603246385
20
407.52389342114071
10
690.92928932188113
20
405.52389342114077
10
691.82928932188133
20
408.91681348703094
10
691.82928932188122
20
430.25823048499893
10
691.37928932188117
20
431.54423048499893
10
690.85857864564343
20
432.67520384399393
10
688.85857865150456
20
434.67520384075647
10
-3.9933922835189151e-09
20
434.67520384075607
10
-2.0000000037479992
20
432.67520384029689
10
-2.5207106781188315
20
431.54423048499848
10
-2.9707106781188486
20
430.25823048499853
10
-2.9707106781188486
20
408.91681348703059
10
-2.0707106781188145
20
405.52389342114031
10
-4.3326573887004827
20
407.52389341869241
42
0.19891236737921775
10
-5.7468709510915064
20
406.93810698353587
10
-20.332657388703268
20
392.35232054588408
10
-22.594604099270157
20
389.453182735528
10
-24.594604098935662
20
387.4531827352456
10
-24.594604099269901
20
24.594604099290649
10
-22.594604099270015
20
22.594604099301975
10
-20.332657388702984
20
20.52400020235622
10
-4.3326573887031827
20
20.52400020235623
10
-2.0707106781185303
20
22.523893421169628
0
LINE
5
101
100
AcDbEntity
8
BEND
100
AcDbLine
10
-2.4853019484662298
20
3.1309733552929409
30
2.4214213967255205e-10
11
691.3438805922043
21
3.1309733552938268
31
1.6299517291429287e-10
0
LINE
5
102
100
AcDbEntity
8
BEND
100
AcDbLine
10
-21.463630743986926
20
390.90275164070619
30
2.4151328872372153e-10
11
-21.463630743986641
21
21.559302150836004
31
2.418357181177555e-10
0
LINE
5
103
100
AcDbEntity
8
BEND
100
AcDbLine
10
691.11893398469635
20
432.10971716264726
30
2.4168139711733235e-10
11
-2.2603553409338417
21
432.1097171626468
31
2.4633380587029793e-10
0
LINE
5
104
100
AcDbEntity
8
BEND
100
AcDbLine
10
710.32220938775424
20
21.559302150836338
30
2.402028576042878e-10
11
710.3222093877539
21
390.90275164070653
31
2.4026046912397244e-10
0
LINE
5
105
100
AcDbEntity
8
BEND
100
AcDbLine
10
-3.2016840334109986
20
406.52389341867769
30
2.4208191007346613e-10
11
-3.2016840334107144
21
21.523946811762968
31
2.4208440807527154e-10
0
LINE
5
106
100
AcDbEntity
8
BEND
100
AcDbLine
10
691.37928932188117
20
407.22035345408591
30
2.4209023674615056e-10
11
-2.5207106781188315
21
407.22035345408551
31
2.420891265231262e-10
0
LINE
5
107
100
AcDbEntity
8
BEND
100
AcDbLine
10
692.06026267717391
20
21.523946811763253
30
2.4207136295473194e-10
11
692.06026267717357
21
406.52389341867826
31
2.4206858739717037e-10
0
LINE
5
108
100
AcDbEntity
8
BEND
100
AcDbLine
10
-2.5206572875252675
20
21.392920065877263
30
2.4205332183058204e-10
11
691.37923593128835
21
21.392920065877693
31
2.4205332183058178e-10
0
LINE
5
109
100
AcDbEntity
8
BEND_EXTENT
100
AcDbLine
10
-20.332657388703268
20
392.35232054588408
30
2.4193091974211711e-10
11
-20.332657388702984
21
20.524000202356234
31
2.361755235824603e-10
0
LINE
5
110
100
AcDbEntity
8
BEND_EXTENT
100
AcDbLine
10
-22.594604099270015
20
22.594604099301975
30
1.2027046025764323e-10
11
-22.594604099270157
21
389.453182735528
31
2.4164226175571457e-10
0
LINE
5
111
100
AcDbEntity
8
BEND_EXTENT
100
AcDbLine
10
693.19123603246396
20
407.52389341869224
30
2.4200197401569286e-10
11
693.19123603246612
21
20.524000202356874
31
2.4200197401569286e-10
0
LWPOLYLINE
5
112
100
AcDbEntity
8
BEND_EXTENT
100
AcDbPolyline
90
4
70
1
43
0.0
10
690.92928932188147
20
22.523893421170058
10
690.92928932188113
20
405.52389342114077
10
-2.0707106781188145
20
405.52389342114031
10
-2.0707106781185303
20
22.523893421169632
0
LINE
5
113
100
AcDbEntity
8
BEND_EXTENT
100
AcDbLine
10
-4.3326573887031827
20
20.52400020235623
30
2.4200197401569312e-10
11
-4.3326573887004827
21
407.52389341869241
31
2.4200197401569312e-10
0
LINE
5
114
100
AcDbEntity
8
BEND_EXTENT
100
AcDbLine
10
690.85857864376294
20
2.00000000000081
30
6.4517280407016838e-11
11
-2.0000000000003126
21
2.0000000000003793
31
1.2039036434430272e-10
0
LINE
5
115
100
AcDbEntity
8
BEND_EXTENT
100
AcDbLine
10
-2.9706038969318627
20
4.2619467105850539
30
2.4207302828926913e-10
11
691.82918254069455
21
4.2619467106417597
31
2.4193091974211685e-10
0
LINE
5
116
100
AcDbEntity
8
BEND_EXTENT
100
AcDbLine
10
709.19123603246601
20
20.524000202356603
30
2.4029667144986862e-10
11
709.19123603246567
21
392.35232054588829
31
2.401545629027166e-10
0
LINE
5
117
100
AcDbEntity
8
BEND_EXTENT
100
AcDbLine
10
711.45318274304213
20
389.45318273552846
30
2.394173748143655e-10
11
711.45318274304259
21
22.594604099302629
31
1.1538991984139076e-10
0
LINE
5
118
100
AcDbEntity
8
BEND_EXTENT
100
AcDbLine
10
691.82918254069489
20
20.261946710585434
30
2.4200197401569286e-10
11
-2.9706038969320048
21
20.261946710585047
31
2.4200197401569312e-10
0
LINE
5
119
100
AcDbEntity
8
BEND_EXTENT
100
AcDbLine
10
-2.0000000037479992
20
432.67520384029689
30
2.4189983349742761e-10
11
690.85857864564343
21
432.67520384399393
31
2.4442670110147421e-10
0
LINE
5
120
100
AcDbEntity
8
BEND_EXTENT
100
AcDbLine
10
691.37928932188117
20
431.54423048499893
30
2.4133750553545471e-10
11
-2.5207106781188315
21
431.54423048499848
31
2.4382440511061532e-10
0
LINE
5
121
100
AcDbEntity
8
BEND_EXTENT
100
AcDbLine
10
-2.9707106781188486
20
408.91681348703059
30
2.4209467763824932e-10
11
691.82928932188133
21
408.91681348703094
31
2.4490243166752609e-10
0
ENDSEC
0
SECTION
2
OBJECTS
0
DICTIONARY
5
C
100
AcDbDictionary
3
ACAD_GROUP
350
D
3
ACAD_MLINESTYLE
350
17
0
DICTIONARY
5
D
100
AcDbDictionary
0
DICTIONARY
5
1A
330
C
100
AcDbDictionary
0
DICTIONARY
5
17
100
AcDbDictionary
0
ENDSEC
0
EOF
