0
SECTION
2
HEADER
9
$INSUNITS
70
4
9
$ACADVER
1
AC1014
9
$HANDSEED
5
FFFF
0
ENDSEC
0
SECTION
2
TABLES
0
TABLE
2
VPORT
5
8
100
AcDbSymbolTable
0
ENDTAB
0
TABLE
2
LTYPE
5
5
100
AcDbSymbolTable
0
LTYPE
5
14
100
AcDbSymbolTableRecord
100
AcDbLinetypeTableRecord
2
BYBLOCK
70
0
0
LTYPE
5
15
100
AcDbSymbolTableRecord
100
AcDbLinetypeTableRecord
2
BYLAYER
70
0
0
LTYPE
5
16
100
AcDbSymbolTableRecord
100
AcDbLinetypeTableRecord
2
DASHED
70
0
3
Dashed __ __ __ __ __ __ __ __ __ __ __ __ __ _
72
65
73
2
40
0.75
49
0.5
74
0
49
-0.25
74
0
0
ENDTAB
0
TABLE
2
LAYER
5
2
100
AcDbSymbolTable
70
2
0
LAYER
5
50
100
AcDbSymbolTableRecord
100
AcDbLayerTableRecord
2
0
70
0
62
7
6
CONTINUOUS
0
ENDTAB
0
TABLE
2
STYLE
5
3
100
AcDbSymbolTable
70
1
0
STYLE
5
11
100
AcDbSymbolTableRecord
100
AcDbTextStyleTableRecord
2
STANDARD
70
0
0
ENDTAB
0
TABLE
2
VIEW
5
6
100
AcDbSymbolTable
70
0
0
ENDTAB
0
TABLE
2
UCS
5
7
100
AcDbSymbolTable
70
0
0
ENDTAB
0
TABLE
2
APPID
5
9
100
AcDbSymbolTable
70
2
0
APPID
5
12
100
AcDbSymbolTableRecord
100
AcDbRegAppTableRecord
2
ACAD
70
0
0
ENDTAB
0
TABLE
2
DIMSTYLE
5
A
100
AcDbSymbolTable
70
1
0
ENDTAB
0
TABLE
2
BLOCK_RECORD
5
1
100
AcDbSymbolTable
70
1
0
BLOCK_RECORD
5
1F
100
AcDbSymbolTableRecord
100
AcDbBlockTableRecord
2
*MODEL_SPACE
0
BLOCK_RECORD
5
1B
100
AcDbSymbolTableRecord
100
AcDbBlockTableRecord
2
*PAPER_SPACE
0
ENDTAB
0
ENDSEC
0
SECTION
2
BLOCKS
0
BLOCK
5
20
100
AcDbEntity
100
AcDbBlockBegin
2
*MODEL_SPACE
0
ENDBLK
5
21
100
AcDbEntity
100
AcDbBlockEnd
0
BLOCK
5
1C
100
AcDbEntity
100
AcDbBlockBegin
2
*PAPER_SPACE
0
ENDBLK
5
1D
100
AcDbEntity
100
AcDbBlockEnd
0
ENDSEC
0
SECTION
2
ENTITIES
0
LWPOLYLINE
5
100
100
AcDbEntity
8
OUTER_PROFILES
100
AcDbPolyline
90
40
70
1
43
0.0
10
1093.191236036364
20
209.15120363652233
10
1090.9292893257752
20
207.15131041771355
10
1091.8291825445931
20
209.41325712829644
10
1091.8291825446254
20
225.41325712829649
10
1090.8585786476979
20
227.67520383888322
10
1088.858578647702
20
229.67520383888535
10
3.9388226014125394e-09
20
229.67520384107212
10
-1.999999996064411
20
227.6752038410763
10
-2.9706038930009266
20
225.41325713042724
10
-2.9706038930335303
20
209.41325713049338
10
-2.0707106742248085
20
207.15131041990685
10
-4.332657384805465
20
209.15120363872478
10
-20.33265738480544
20
209.15120363875687
10
-22.594604095363149
20
207.08059974181572
10
-24.594604095366197
20
205.08059974183408
10
-24.594604095541143
20
47.222021102148624
10
-22.594604095687522
20
45.222021101297898
10
-20.332657385140237
20
42.322883295168268
10
-5.7468709475367152
20
27.7370968575114
42
0.1989123673623957
10
-4.3326573852976393
20
27.151310419881636
10
-2.0707106745818553
20
29.151310419877134
10
-2.9707106745888403
20
25.75839035399305
10
-2.9707106746315941
20
4.4169733560246982
10
-2.5207106746341577
20
3.1309733560238584
10
-1.9999999981371641
20
1.9999999990665529
10
0
20
0
10
1088.8585786507338
20
-2.2184565295901848e-09
10
1090.8585786505103
20
1.9999999985378025
10
1091.3792893253658
20
3.1309733538287787
10
1091.8292893253686
20
4.4169733538277711
10
1091.8292893254113
20
25.758390351796088
10
1090.929289325418
20
29.151310417683831
10
1093.1912360360593
20
27.151310420157166
42
0.19891236737048706
10
1094.6054495983431
20
27.737096855321397
10
1109.1912360360291
20
42.322883292907569
10
1111.4531827466321
20
45.222021099022243
10
1113.4531827464937
20
47.222021099864939
10
1113.4531827469505
20
205.08059973955125
10
1111.4531827469571
20
207.08059973954008
10
1109.191236036364
20
209.15120363649032
0
LINE
5
101
100
AcDbEntity
8
BEND
100
AcDbLine
10
1091.3438805961619
20
226.54423048358984
30
3.0360158831218133e-11
11
-2.4853019445039592
21
226.54423048578428
31
-6.2889138341403917e-11
0
LINE
5
102
100
AcDbEntity
8
BEND
100
AcDbLine
10
1110.3222093913305
20
43.772452195964817
30
3.1501984360677652e-11
11
1110.3222093916604
21
208.11590168800819
31
3.1696589797107511e-11
0
LINE
5
103
100
AcDbEntity
8
BEND
100
AcDbLine
10
-2.2603553372092158
20
2.5654866783781571
30
3.2943370253946489e-11
11
1091.1189339879386
21
2.5654866761840012
31
2.9818308870268611e-11
0
LINE
5
104
100
AcDbEntity
8
BEND
100
AcDbLine
10
-21.46363074008417
20
208.11590169027923
30
3.1741831385549105e-11
11
-21.463630740413983
21
43.772452198236032
31
3.1784835771678517e-11
0
LINE
5
105
100
AcDbEntity
8
BEND
100
AcDbLine
10
1092.0602626807085
20
28.15131042014464
30
3.1218361229253262e-11
11
1092.0602626810696
21
208.15125702711785
31
3.1221691898327138e-11
0
LINE
5
106
100
AcDbEntity
8
BEND
100
AcDbLine
10
-2.5207106745852053
20
27.454850386935128
30
3.1357139107513341e-11
11
1091.3792893254147
21
27.454850384740013
31
3.1369906672114706e-11
0
LINE
5
107
100
AcDbEntity
8
BEND
100
AcDbLine
10
-3.2016840295150315
20
208.15125702931579
30
3.1300517733257568e-11
11
-3.201684029876239
21
28.151310422342419
31
3.1287750168474379e-11
0
LINE
5
108
100
AcDbEntity
8
BEND
100
AcDbLine
10
1091.3792359351842
20
208.28228377300502
30
3.1253055698772908e-11
11
-2.5206572836290775
21
208.28228377520014
31
3.1253055698954733e-11
0
LINE
5
109
100
AcDbEntity
8
BEND_EXTENT
100
AcDbLine
10
1109.1912360360291
20
42.322883292907569
30
3.16635606621251e-11
11
1109.191236036364
21
209.15120363649032
31
3.5571545708805651e-11
0
LINE
5
110
100
AcDbEntity
8
BEND_EXTENT
100
AcDbLine
10
1111.4531827469571
20
207.08059973954008
30
-3.4094949086423297e-11
11
1111.4531827466321
21
45.222021099022243
31
-1.9140244946385123e-12
0
LINE
5
111
100
AcDbEntity
8
BEND_EXTENT
100
AcDbLine
10
-4.3326573852976384
20
27.151310422319135
30
3.1379343568006142e-11
11
-4.3326573848054659
21
209.15120363872478
31
3.1308289294430132e-11
0
LWPOLYLINE
5
112
100
AcDbEntity
8
BEND_EXTENT
100
AcDbPolyline
90
4
70
1
43
0.0
10
-2.0707106742248085
20
207.15131041990685
10
-2.0707106745818553
20
29.151310419877134
10
1090.929289325418
20
29.151310417683831
10
1090.9292893257752
20
207.15131041771355
0
LINE
5
113
100
AcDbEntity
8
BEND_EXTENT
100
AcDbLine
10
1093.191236036364
20
209.15120363652233
30
3.1308289294247706e-11
11
1093.1912360360593
21
27.151310420157166
31
3.1308289294247706e-11
0
LINE
5
114
100
AcDbEntity
8
BEND_EXTENT
100
AcDbLine
10
-1.999999996064411
20
227.6752038410763
30
-1.01554320508512e-10
11
1090.8585786476979
21
227.67520383888322
31
-3.5662583997190599e-11
0
LINE
5
115
100
AcDbEntity
8
BEND_EXTENT
100
AcDbLine
10
1091.8291825446254
20
225.41325712829649
30
3.0384583737759809e-11
11
-2.970603893000856
21
225.41325713042724
31
3.0313529464365765e-11
0
LINE
5
116
100
AcDbEntity
8
BEND_EXTENT
100
AcDbLine
10
-20.33265738480544
20
209.15120363875687
30
3.1450397841584814e-11
11
-20.332657385140237
21
42.322883295168268
31
3.1166180747280774e-11
0
LINE
5
117
100
AcDbEntity
8
BEND_EXTENT
100
AcDbLine
10
-22.594604095687522
20
45.222021101297898
30
-2.3980817331865819e-12
11
-22.594604095363149
21
207.08059974181572
31
-4.4657610942518549e-11
0
LINE
5
118
100
AcDbEntity
8
BEND_EXTENT
100
AcDbLine
10
-2.9706038930335303
20
209.41325713049338
30
3.1308289294429906e-11
11
1091.8291825445931
21
209.41325712829644
31
3.1308289294247939e-11
0
LINE
5
119
100
AcDbEntity
8
BEND_EXTENT
100
AcDbLine
10
1090.8585786505103
20
1.9999999985378025
30
1.6409096303778496e-11
11
-1.9999999981371275
21
1.9999999990665529
31
1.5005774400833945e-11
0
LINE
5
120
100
AcDbEntity
8
BEND_EXTENT
100
AcDbLine
10
-2.5207106746341577
20
3.1309733560238584
30
3.2569502650404012e-11
11
1091.3792893253658
21
3.1309733538287787
31
3.1183944315489992e-11
0
LINE
5
121
100
AcDbEntity
8
BEND_EXTENT
100
AcDbLine
10
1091.8292893254113
20
25.758390351796088
30
3.1468161409793961e-11
11
-2.9707106745888723
21
25.75839035399305
31
3.3351099659740194e-11
0
ENDSEC
0
SECTION
2
OBJECTS
0
DICTIONARY
5
C
100
AcDbDictionary
3
ACAD_GROUP
350
D
3
ACAD_MLINESTYLE
350
17
0
DICTIONARY
5
D
100
AcDbDictionary
0
DICTIONARY
5
1A
330
C
100
AcDbDictionary
0
DICTIONARY
5
17
100
AcDbDictionary
0
ENDSEC
0
EOF
