0
SECTION
2
HEADER
9
$INSUNITS
70
4
9
$ACADVER
1
AC1014
9
$HANDSEED
5
FFFF
0
ENDSEC
0
SECTION
2
TABLES
0
TABLE
2
VPORT
5
8
100
AcDbSymbolTable
0
ENDTAB
0
TABLE
2
LTYPE
5
5
100
AcDbSymbolTable
0
LTYPE
5
14
100
AcDbSymbolTableRecord
100
AcDbLinetypeTableRecord
2
BYBLOCK
70
0
0
LTYPE
5
15
100
AcDbSymbolTableRecord
100
AcDbLinetypeTableRecord
2
BYLAYER
70
0
0
LTYPE
5
16
100
AcDbSymbolTableRecord
100
AcDbLinetypeTableRecord
2
DASHED
70
0
3
Dashed __ __ __ __ __ __ __ __ __ __ __ __ __ _
72
65
73
2
40
0.75
49
0.5
74
0
49
-0.25
74
0
0
ENDTAB
0
TABLE
2
LAYER
5
2
100
AcDbSymbolTable
70
2
0
LAYER
5
50
100
AcDbSymbolTableRecord
100
AcDbLayerTableRecord
2
0
70
0
62
7
6
CONTINUOUS
0
ENDTAB
0
TABLE
2
STYLE
5
3
100
AcDbSymbolTable
70
1
0
STYLE
5
11
100
AcDbSymbolTableRecord
100
AcDbTextStyleTableRecord
2
STANDARD
70
0
0
ENDTAB
0
TABLE
2
VIEW
5
6
100
AcDbSymbolTable
70
0
0
ENDTAB
0
TABLE
2
UCS
5
7
100
AcDbSymbolTable
70
0
0
ENDTAB
0
TABLE
2
APPID
5
9
100
AcDbSymbolTable
70
2
0
APPID
5
12
100
AcDbSymbolTableRecord
100
AcDbRegAppTableRecord
2
ACAD
70
0
0
ENDTAB
0
TABLE
2
DIMSTYLE
5
A
100
AcDbSymbolTable
70
1
0
ENDTAB
0
TABLE
2
BLOCK_RECORD
5
1
100
AcDbSymbolTable
70
1
0
BLOCK_RECORD
5
1F
100
AcDbSymbolTableRecord
100
AcDbBlockTableRecord
2
*MODEL_SPACE
0
BLOCK_RECORD
5
1B
100
AcDbSymbolTableRecord
100
AcDbBlockTableRecord
2
*PAPER_SPACE
0
ENDTAB
0
ENDSEC
0
SECTION
2
BLOCKS
0
BLOCK
5
20
100
AcDbEntity
100
AcDbBlockBegin
2
*MODEL_SPACE
0
ENDBLK
5
21
100
AcDbEntity
100
AcDbBlockEnd
0
BLOCK
5
1C
100
AcDbEntity
100
AcDbBlockBegin
2
*PAPER_SPACE
0
ENDBLK
5
1D
100
AcDbEntity
100
AcDbBlockEnd
0
ENDSEC
0
SECTION
2
ENTITIES
0
LWPOLYLINE
5
100
100
AcDbEntity
8
OUTER_PROFILES
100
AcDbPolyline
90
40
70
1
43
0.0
10
-2.0707106208481521
20
222.1513104194058
10
-4.3326573314288472
20
224.15120363822382
10
-20.332657331428855
20
224.15120363825582
10
-22.594604042022834
20
222.08059974131589
10
-24.594604042026095
20
220.08059974133445
10
-24.594604042214307
20
47.222021154666223
10
-22.594604043148742
20
45.222021152829548
10
-20.332657331793719
20
42.322883294695473
10
-5.7468708941939717
20
27.737096857042431
42
0.19891236737952464
10
-4.332657331823091
20
27.151310419412653
10
-2.0707106212354431
20
29.151310419408105
10
-2.9707106212421435
20
25.758390353532938
10
-2.9707106212851113
20
4.416973355564906
10
-2.5207106212876749
20
3.1309733555639596
10
-1.999999954135846
20
1.9999999716293004
10
0
20
0
10
388.85857872349595
20
-6.1312732668739045e-10
10
390.85857872295435
20
1.9999999994748663
10
391.37928937871237
20
3.1309733547735163
10
391.82928937871498
20
4.4169733547726509
10
391.82928937875778
20
25.758390352740683
10
390.92928937876451
20
29.151310418619474
10
393.19123608934365
20
27.151310421076573
42
0.19891236737940382
10
394.60544965171789
20
27.737096856236413
10
409.19123608937571
20
42.322883293835751
10
411.45318279996252
20
45.222021152731386
10
413.45318279980887
20
47.222021153787281
10
413.45318280031171
20
220.08059974045111
10
411.45318280031643
20
222.08059974044485
10
409.19123608974053
20
224.15120363739393
10
393.19123608974053
20
224.15120363742597
10
390.92928937915184
20
222.15131041861719
10
391.82918259796975
20
224.41325712920002
10
391.82918259800198
20
240.41325712920002
10
390.85857870107372
20
242.67520383978663
10
388.8585787010785
20
244.6752038397901
10
5.7315574508720601e-08
20
244.67520384056979
10
-1.9999999426864756
20
242.67520384057497
10
-2.9706038396237018
20
240.41325712992835
10
-2.9706038396571586
20
224.41325712999225
0
LINE
5
101
100
AcDbEntity
8
BEND
100
AcDbLine
10
391.34388064953845
20
241.54423048449337
30
1.6969481375629597e-11
11
-2.4853018911269231
21
241.54423048528315
31
-7.8138884251899247e-11
0
LINE
5
102
100
AcDbEntity
8
BEND
100
AcDbLine
10
410.32220944466934
20
43.772452223283658
30
1.6313630472754453e-11
11
410.32220944502922
21
223.11590168891198
31
1.632416424256575e-11
0
LINE
5
103
100
AcDbEntity
8
BEND
100
AcDbLine
10
-2.2603552934115037
20
2.5654866779145991
30
1.6587287099412209e-11
11
391.1189340508339
21
2.5654866771251861
31
2.2206666883952333e-11
0
LINE
5
104
100
AcDbEntity
8
BEND
100
AcDbLine
10
-21.463630686423283
20
223.11590169005444
30
1.6609769115661347e-11
11
-21.463630686783169
21
43.772452223763629
31
1.6614906507032428e-11
0
LINE
5
105
100
AcDbEntity
8
BEND
100
AcDbLine
10
392.06026273405485
20
28.151310421079998
30
1.6447676554055754e-11
11
392.06026273444616
21
223.15125702802158
31
1.6451284778885786e-11
0
LINE
5
106
100
AcDbEntity
8
BEND
100
AcDbLine
10
-2.5207106212388291
20
27.454850386470504
30
1.6421308757230755e-11
11
391.37928937876109
21
27.454850385680096
31
1.6421308757220926e-11
0
LINE
5
107
100
AcDbEntity
8
BEND
100
AcDbLine
10
-3.2016839761384706
20
223.15125702881474
30
1.6451562334651807e-11
11
-3.2016839765297735
21
28.151310421873177
31
1.6407708525179113e-11
0
LINE
5
108
100
AcDbEntity
8
BEND
100
AcDbLine
10
391.37923598856082
20
223.28228377390869
30
1.6426304760831739e-11
11
-2.5206572302526098
21
223.28228377469912
31
1.6426304760841565e-11
0
LINE
5
109
100
AcDbEntity
8
BEND_EXTENT
100
AcDbLine
10
409.19123608937571
20
42.322883293835751
30
1.6333601138275093e-11
11
409.19123608974053
21
224.15120363739393
31
1.5232259897846937e-11
0
LINE
5
110
100
AcDbEntity
8
BEND_EXTENT
100
AcDbLine
10
411.45318280031643
20
222.08059974044485
30
-5.0954795938206447e-11
11
411.45318279996252
21
45.222021152731386
31
-1.1146639167339242e-12
0
LINE
5
111
100
AcDbEntity
8
BEND_EXTENT
100
AcDbLine
10
-4.3326573318230901
20
27.151310421874655
30
1.6369128275073418e-11
11
-4.3326573314288472
21
224.15120363822382
31
1.6440182548649428e-11
0
LWPOLYLINE
5
112
100
AcDbEntity
8
BEND_EXTENT
100
AcDbPolyline
90
4
70
1
43
0.0
10
-2.0707106208481521
20
222.1513104194058
10
-2.0707106212354431
20
29.151310419408105
10
390.92928937876451
20
29.151310418619474
10
390.92928937915184
20
222.15131041861719
0
LINE
5
113
100
AcDbEntity
8
BEND_EXTENT
100
AcDbLine
10
393.19123608974053
20
224.15120363742597
30
1.6440182548639508e-11
11
393.19123608934365
21
27.151310421076573
31
1.6369128275063498e-11
0
LINE
5
114
100
AcDbEntity
8
BEND_EXTENT
100
AcDbLine
10
-1.9999999426864756
20
242.67520384057497
30
-1.1764367258138004e-10
11
390.85857870107372
21
242.67520383978663
31
-5.0315307476021853e-11
0
LINE
5
115
100
AcDbEntity
8
BEND_EXTENT
100
AcDbLine
10
391.82918259800198
20
240.41325712920002
30
1.6973089600459616e-11
11
-2.9706038396236778
21
240.41325712992835
31
1.6973089600469468e-11
0
LINE
5
116
100
AcDbEntity
8
BEND_EXTENT
100
AcDbLine
10
-20.332657331428855
20
224.15120363825582
30
1.6546763959013844e-11
11
-20.332657331793719
21
42.322883294695473
31
1.6475709685437834e-11
0
LINE
5
117
100
AcDbEntity
8
BEND_EXTENT
100
AcDbLine
10
-22.594604043148742
20
45.222021152829548
30
-6.9944050551328316e-13
11
-22.594604042022834
21
222.08059974131589
31
-4.9646953215187181e-11
0
LINE
5
118
100
AcDbEntity
8
BEND_EXTENT
100
AcDbLine
10
-2.9706038396571586
20
224.41325712999225
30
1.6404655411861387e-11
11
391.82918259796975
21
224.41325712920002
31
1.6404655411851536e-11
0
LINE
5
119
100
AcDbEntity
8
BEND_EXTENT
100
AcDbLine
10
390.85857872295435
20
1.9999999994748663
30
8.1668005691328982e-12
11
-1.9999999541358449
21
1.9999999716293004
31
1.1119993814645618e-11
0
LINE
5
120
100
AcDbEntity
8
BEND_EXTENT
100
AcDbLine
10
-2.5207106212876749
20
3.1309733555639596
30
1.628031043310336e-11
11
391.37928937871237
21
3.1309733547735163
31
1.9229062786497947e-11
0
LINE
5
121
100
AcDbEntity
8
BEND_EXTENT
100
AcDbLine
10
391.82928937875778
20
25.758390352740683
30
1.6404655411851536e-11
11
-2.9707106212421763
21
25.758390353532938
31
1.6404655411861387e-11
0
ENDSEC
0
SECTION
2
OBJECTS
0
DICTIONARY
5
C
100
AcDbDictionary
3
ACAD_GROUP
350
D
3
ACAD_MLINESTYLE
350
17
0
DICTIONARY
5
D
100
AcDbDictionary
0
DICTIONARY
5
1A
330
C
100
AcDbDictionary
0
DICTIONARY
5
17
100
AcDbDictionary
0
ENDSEC
0
EOF
