0
SECTION
2
HEADER
9
$INSUNITS
70
4
9
$ACADVER
1
AC1014
9
$HANDSEED
5
FFFF
0
ENDSEC
0
SECTION
2
TABLES
0
TABLE
2
VPORT
5
8
100
AcDbSymbolTable
0
ENDTAB
0
TABLE
2
LTYPE
5
5
100
AcDbSymbolTable
0
LTYPE
5
14
100
AcDbSymbolTableRecord
100
AcDbLinetypeTableRecord
2
BYBLOCK
70
0
0
LTYPE
5
15
100
AcDbSymbolTableRecord
100
AcDbLinetypeTableRecord
2
BYLAYER
70
0
0
LTYPE
5
16
100
AcDbSymbolTableRecord
100
AcDbLinetypeTableRecord
2
DASHED
70
0
3
Dashed __ __ __ __ __ __ __ __ __ __ __ __ __ _
72
65
73
2
40
0.75
49
0.5
74
0
49
-0.25
74
0
0
ENDTAB
0
TABLE
2
LAYER
5
2
100
AcDbSymbolTable
70
2
0
LAYER
5
50
100
AcDbSymbolTableRecord
100
AcDbLayerTableRecord
2
0
70
0
62
7
6
CONTINUOUS
0
ENDTAB
0
TABLE
2
STYLE
5
3
100
AcDbSymbolTable
70
1
0
STYLE
5
11
100
AcDbSymbolTableRecord
100
AcDbTextStyleTableRecord
2
STANDARD
70
0
0
ENDTAB
0
TABLE
2
VIEW
5
6
100
AcDbSymbolTable
70
0
0
ENDTAB
0
TABLE
2
UCS
5
7
100
AcDbSymbolTable
70
0
0
ENDTAB
0
TABLE
2
APPID
5
9
100
AcDbSymbolTable
70
2
0
APPID
5
12
100
AcDbSymbolTableRecord
100
AcDbRegAppTableRecord
2
ACAD
70
0
0
ENDTAB
0
TABLE
2
DIMSTYLE
5
A
100
AcDbSymbolTable
70
1
0
ENDTAB
0
TABLE
2
BLOCK_RECORD
5
1
100
AcDbSymbolTable
70
1
0
BLOCK_RECORD
5
1F
100
AcDbSymbolTableRecord
100
AcDbBlockTableRecord
2
*MODEL_SPACE
0
BLOCK_RECORD
5
1B
100
AcDbSymbolTableRecord
100
AcDbBlockTableRecord
2
*PAPER_SPACE
0
ENDTAB
0
ENDSEC
0
SECTION
2
BLOCKS
0
BLOCK
5
20
100
AcDbEntity
100
AcDbBlockBegin
2
*MODEL_SPACE
0
ENDBLK
5
21
100
AcDbEntity
100
AcDbBlockEnd
0
BLOCK
5
1C
100
AcDbEntity
100
AcDbBlockBegin
2
*PAPER_SPACE
0
ENDBLK
5
1D
100
AcDbEntity
100
AcDbBlockEnd
0
ENDSEC
0
SECTION
2
ENTITIES
0
LWPOLYLINE
5
100
100
AcDbEntity
8
OUTER_PROFILES
100
AcDbPolyline
90
40
70
1
43
0.0
10
991.82918254123308
20
209.41325712843536
10
991.82918254126537
20
225.41325712843536
10
990.85857864433706
20
227.67520383902212
10
988.85857864434217
20
229.67520383902666
10
5.7866600400302559e-10
20
229.67520384102454
10
-1.9999999994230091
20
227.67520384102878
10
-2.9706038963605517
20
225.41325713038302
10
-2.9706038963938113
20
209.41325713044588
10
-2.0707106775850508
20
207.15131041985939
10
-4.3326573881658037
20
209.15120363867729
10
-20.332657388165725
20
209.15120363870969
10
-22.594604098759344
20
207.08059974176965
10
-24.594604098762844
20
205.08059974178684
10
-24.594604098939207
20
47.222021098695294
10
-22.594604099086322
20
45.222021097996432
10
-20.332657388502927
20
42.322883295120484
10
-5.746870950900127
20
27.737096857463904
42
0.19891236737930781
10
-4.3326573885308903
20
27.151310419834171
10
-2.070710677944791
20
29.151310419829635
10
-2.9707106779518244
20
25.758390353954468
10
-2.970710677994814
20
4.4169733559862578
10
-2.5207106779973958
20
3.1309733559854536
10
-2.0000000015225163
20
2.0000000006932339
10
0
20
2.7755575615628914e-16
10
988.85857864741808
20
-1.992610521028837e-09
10
990.85857864719264
20
1.999999998691564
10
991.37928932200248
20
3.1309733539766782
10
991.82928932200525
20
4.4169733539757416
10
991.82928932204834
20
25.758390351943952
10
990.92928932205518
20
29.151310417822778
10
993.19123603263176
20
27.151310420296042
42
0.19891236737901127
10
994.60544959498122
20
27.737096855460514
10
1009.1912360326666
20
42.322883293045166
10
1011.4531827432683
20
45.222021095906584
10
1013.4531827431292
20
47.222021096597388
10
1013.453182743592
20
205.08059973968417
10
1011.4531827435953
20
207.08059973967988
10
1009.1912360330036
20
209.15120363662902
10
993.19123603300363
20
209.15120363666119
10
990.92928932241489
20
207.15131041785253
0
LINE
5
101
100
AcDbEntity
8
BEND
100
AcDbLine
10
991.34388059280184
20
226.54423048372871
30
-1.6493750767557672e-11
11
-2.485301947864258
21
226.54423048573676
31
-1.0508288683663264e-10
0
LINE
5
102
100
AcDbEntity
8
BEND
100
AcDbLine
10
1010.3222093879672
20
43.772452194475591
30
-1.5889804217438915e-11
11
1010.3222093882994
21
208.11590168814715
31
-1.5709378199855382e-11
0
LINE
5
103
100
AcDbEntity
8
BEND
100
AcDbLine
10
-2.2603553405947725
20
2.565486678335489
30
-1.5669410213899133e-11
11
991.11893398459756
21
2.5654866763278505
31
-1.5647483267046685e-11
0
LINE
5
104
100
AcDbEntity
8
BEND
100
AcDbLine
10
-21.463630743462588
20
208.11590169023214
30
-1.5877854587586665e-11
11
-21.463630743794717
21
43.772452196561318
31
-1.6096044558725512e-11
0
LINE
5
105
100
AcDbEntity
8
BEND
100
AcDbLine
10
992.06026267734546
20
28.151310420283409
30
-1.6060763787923492e-11
11
992.06026267770926
21
208.15125702725675
31
-1.6041612440748708e-11
0
LINE
5
106
100
AcDbEntity
8
BEND
100
AcDbLine
10
991.37923593182393
20
208.28228377314394
30
-1.6088241807811838e-11
11
-2.5206572869893762
21
208.28228377515268
31
-1.6088241849950011e-11
0
LINE
5
107
100
AcDbEntity
8
BEND
100
AcDbLine
10
-2.5207106779482369
20
27.454850386891998
30
-1.6078527398484541e-11
11
991.3792893220517
21
27.454850384883294
31
-1.6078527356346365e-11
0
LINE
5
108
100
AcDbEntity
8
BEND
100
AcDbLine
10
-3.2016840328754053
20
208.15125702926832
30
-1.6047996265336223e-11
11
-3.2016840332391929
21
28.151310422294813
31
-1.6061041385875569e-11
0
LINE
5
109
100
AcDbEntity
8
BEND_EXTENT
100
AcDbLine
10
1009.1912360326666
20
42.322883293045166
30
-1.5678569510969981e-11
11
1009.1912360330036
21
209.15120363662902
31
-1.219691010574549e-11
0
LINE
5
110
100
AcDbEntity
8
BEND_EXTENT
100
AcDbLine
10
1011.4531827435953
20
207.08059973967988
30
-7.8266282301092674e-11
11
1011.4531827432683
21
45.222021095906584
31
-4.2816861124811413e-11
0
LINE
5
111
100
AcDbEntity
8
BEND_EXTENT
100
AcDbLine
10
-4.3326573885308886
20
27.151310422312847
30
-1.596278664824419e-11
11
-4.3326573881658037
21
209.15120363867729
31
-1.60338409218202e-11
0
LWPOLYLINE
5
112
100
AcDbEntity
8
BEND_EXTENT
100
AcDbPolyline
90
4
70
1
43
0.0
10
-2.0707106775850508
20
207.15131041985939
10
-2.070710677944791
20
29.151310419829635
10
990.92928932205518
20
29.151310417822778
10
990.92928932241489
20
207.15131041785253
0
LINE
5
113
100
AcDbEntity
8
BEND_EXTENT
100
AcDbLine
10
993.19123603300363
20
209.15120363666119
30
-1.5962786605952371e-11
11
993.19123603263176
21
27.151310420296042
31
-1.6033840879528381e-11
0
LINE
5
114
100
AcDbEntity
8
BEND_EXTENT
100
AcDbLine
10
-1.9999999994230091
20
227.67520384102878
30
-1.4187540031693354e-10
11
990.85857864433706
21
227.67520383902212
31
-7.9247719455734428e-11
0
LINE
5
115
100
AcDbEntity
8
BEND_EXTENT
100
AcDbLine
10
991.82918254126537
20
225.41325712843536
30
-1.6460166521042189e-11
11
-2.9706038963605863
21
225.41325713038302
31
-1.6531220836794526e-11
0
LINE
5
116
100
AcDbEntity
8
BEND_EXTENT
100
AcDbLine
10
-20.332657388165725
20
209.15120363870969
30
-1.5820678101770519e-11
11
-20.332657388502927
21
42.322883295120484
31
-1.5820678101770519e-11
0
LINE
5
117
100
AcDbEntity
8
BEND_EXTENT
100
AcDbLine
10
-22.594604099086322
20
45.222021097996432
30
-4.2965631053951498e-11
11
-22.594604098759344
21
207.08059974176965
31
-7.6909589808841047e-11
0
LINE
5
118
100
AcDbEntity
8
BEND_EXTENT
100
AcDbLine
10
-2.9706038963938113
20
209.41325713044588
30
-1.5962786648186445e-11
11
991.82918254123308
21
209.41325712843536
31
-1.5962786606010118e-11
0
LINE
5
119
100
AcDbEntity
8
BEND_EXTENT
100
AcDbLine
10
990.85857864719264
20
1.999999998691564
30
-2.8335111992474012e-11
11
-2.0000000015225794
21
2.0000000006932339
31
-2.658095965566029e-11
0
LINE
5
120
100
AcDbEntity
8
BEND_EXTENT
100
AcDbLine
10
-2.5207106779973958
20
3.1309733559854536
30
-1.5980550216561371e-11
11
991.37928932200248
21
3.1309733539766782
31
-1.3600232009626859e-11
0
LINE
5
121
100
AcDbEntity
8
BEND_EXTENT
100
AcDbLine
10
991.82928932204834
20
25.758390351943952
30
-1.6158185858344143e-11
11
-2.970710677951871
21
25.758390353954468
31
-1.6175949468914479e-11
0
ENDSEC
0
SECTION
2
OBJECTS
0
DICTIONARY
5
C
100
AcDbDictionary
3
ACAD_GROUP
350
D
3
ACAD_MLINESTYLE
350
17
0
DICTIONARY
5
D
100
AcDbDictionary
0
DICTIONARY
5
1A
330
C
100
AcDbDictionary
0
DICTIONARY
5
17
100
AcDbDictionary
0
ENDSEC
0
EOF
