0
SECTION
2
HEADER
9
$INSUNITS
70
4
9
$ACADVER
1
AC1014
9
$HANDSEED
5
FFFF
0
ENDSEC
0
SECTION
2
TABLES
0
TABLE
2
VPORT
5
8
100
AcDbSymbolTable
0
ENDTAB
0
TABLE
2
LTYPE
5
5
100
AcDbSymbolTable
0
LTYPE
5
14
100
AcDbSymbolTableRecord
100
AcDbLinetypeTableRecord
2
BYBLOCK
70
0
0
LTYPE
5
15
100
AcDbSymbolTableRecord
100
AcDbLinetypeTableRecord
2
BYLAYER
70
0
0
LTYPE
5
16
100
AcDbSymbolTableRecord
100
AcDbLinetypeTableRecord
2
DASHED
70
0
3
Dashed __ __ __ __ __ __ __ __ __ __ __ __ __ _
72
65
73
2
40
0.75
49
0.5
74
0
49
-0.25
74
0
0
ENDTAB
0
TABLE
2
LAYER
5
2
100
AcDbSymbolTable
70
2
0
LAYER
5
50
100
AcDbSymbolTableRecord
100
AcDbLayerTableRecord
2
0
70
0
62
7
6
CONTINUOUS
0
ENDTAB
0
TABLE
2
STYLE
5
3
100
AcDbSymbolTable
70
1
0
STYLE
5
11
100
AcDbSymbolTableRecord
100
AcDbTextStyleTableRecord
2
STANDARD
70
0
0
ENDTAB
0
TABLE
2
VIEW
5
6
100
AcDbSymbolTable
70
0
0
ENDTAB
0
TABLE
2
UCS
5
7
100
AcDbSymbolTable
70
0
0
ENDTAB
0
TABLE
2
APPID
5
9
100
AcDbSymbolTable
70
2
0
APPID
5
12
100
AcDbSymbolTableRecord
100
AcDbRegAppTableRecord
2
ACAD
70
0
0
ENDTAB
0
TABLE
2
DIMSTYLE
5
A
100
AcDbSymbolTable
70
1
0
ENDTAB
0
TABLE
2
BLOCK_RECORD
5
1
100
AcDbSymbolTable
70
1
0
BLOCK_RECORD
5
1F
100
AcDbSymbolTableRecord
100
AcDbBlockTableRecord
2
*MODEL_SPACE
0
BLOCK_RECORD
5
1B
100
AcDbSymbolTableRecord
100
AcDbBlockTableRecord
2
*PAPER_SPACE
0
ENDTAB
0
ENDSEC
0
SECTION
2
BLOCKS
0
BLOCK
5
20
100
AcDbEntity
100
AcDbBlockBegin
2
*MODEL_SPACE
0
ENDBLK
5
21
100
AcDbEntity
100
AcDbBlockEnd
0
BLOCK
5
1C
100
AcDbEntity
100
AcDbBlockBegin
2
*PAPER_SPACE
0
ENDBLK
5
1D
100
AcDbEntity
100
AcDbBlockEnd
0
ENDSEC
0
SECTION
2
ENTITIES
0
LWPOLYLINE
5
100
100
AcDbEntity
8
OUTER_PROFILES
100
AcDbPolyline
90
40
70
1
43
0.0
10
791.37928932200202
20
3.1309733542595453
10
791.82928932200457
20
4.4169733542586442
10
791.82928932204743
20
25.758390352226748
10
790.92928932205427
20
29.151310418105538
10
793.19123603269657
20
27.15131041813077
42
0.19891236737069223
10
794.60544959498168
20
27.737096855744024
10
809.19123603266542
20
42.322883293325972
10
811.4531827432827
20
45.222021096189309
10
813.4531827431432
20
47.222021096746388
10
813.45318274360488
20
205.08059973996853
10
811.45318274360875
20
207.08059973996282
10
809.19123603300136
20
209.1512036369119
10
793.19123603300136
20
209.15120363694399
10
790.92928932241284
20
207.15131041813527
10
791.82918254123081
20
209.41325712871813
10
791.82918254126298
20
225.41325712871813
10
790.85857864433535
20
227.67520383930469
10
788.85857864434024
20
229.67520383930895
10
5.7596594160713721e-10
20
229.6752038408975
10
-1.9999999994254145
20
227.67520384090133
10
-2.9706038963622303
20
225.41325713027072
10
-2.9706038963960868
20
209.41325713031884
10
-2.0707106775872388
20
207.15131041973228
10
-4.3326573881677817
20
209.15120363855016
10
-20.332657388167775
20
209.15120363858247
10
-22.594604098777449
20
207.08059974164246
10
-24.594604098780724
20
205.08059974165985
10
-24.594604098955671
20
47.222021098434119
10
-22.594604099103201
20
45.222021097868961
10
-20.33265738850378
20
42.322883294992195
10
-5.7468709509019611
20
27.737096857336851
42
0.19891236736249135
10
-4.332657388662172
20
27.151310419707091
10
-2.0707106779457094
20
29.151310419702554
10
-2.9707106779527188
20
25.758390353827352
10
-2.9707106779955561
20
4.4169733558592839
10
-2.5207106779981285
20
3.130973355858373
10
-2.000000001524449
20
2.0000000005604335
10
0
20
0
10
788.85857864742195
20
-1.5893419913481921e-09
10
790.85857864719605
20
1.99999999896459
0
LINE
5
101
100
AcDbEntity
8
BEND
100
AcDbLine
10
791.34388059279956
20
226.54423048401151
30
-2.0097534734160119e-11
11
-2.4853019478720739
21
226.54423048560975
31
-8.7839180373847427e-11
0
LINE
5
102
100
AcDbEntity
8
BEND
100
AcDbLine
10
810.32220938797411
20
43.772452194757889
30
-1.9956128584589237e-11
11
810.32220938830505
21
208.11590168842994
31
-1.945776871589945e-11
0
LINE
5
103
100
AcDbEntity
8
BEND
100
AcDbLine
10
-2.2603553405974912
20
2.5654866782069519
30
-2.0052848270817741e-11
11
791.11893398459893
21
2.5654866766091189
31
-2.0055623814984312e-11
0
LINE
5
104
100
AcDbEntity
8
BEND
100
AcDbLine
10
-21.463630743472617
20
208.11590169010512
30
-2.1006529849294966e-11
11
-21.463630743803584
21
43.772452196432781
31
-2.1613195861508646e-11
0
LINE
5
105
100
AcDbEntity
8
BEND
100
AcDbLine
10
792.06026267734478
20
28.151310420566027
30
-2.046335322076201e-11
11
792.06026267770721
21
208.15125702753966
31
-2.0460022551688135e-11
0
LINE
5
106
100
AcDbEntity
8
BEND
100
AcDbLine
10
791.37923593182177
20
208.28228377342674
30
-2.0421719857350063e-11
11
-2.520657286991792
21
208.28228377502555
31
-2.0421719870753843e-11
0
LINE
5
107
100
AcDbEntity
8
BEND
100
AcDbLine
10
-2.5207106779491433
20
27.454850386764917
30
-2.0448365223344847e-11
11
791.37928932205091
21
27.45485038516609
31
-2.0448365209941067e-11
0
LINE
5
108
100
AcDbEntity
8
BEND
100
AcDbLine
10
-3.2016840328775786
20
208.15125702914116
30
-2.0453638782723316e-11
11
-3.2016840332400784
21
28.151310422167697
31
-2.0456969451797192e-11
0
LINE
5
109
100
AcDbEntity
8
BEND_EXTENT
100
AcDbLine
10
809.19123603266542
20
42.322883293325972
30
-1.9551027449987056e-11
11
809.19123603300136
21
209.1512036369119
31
-1.0953460347289847e-11
0
LINE
5
110
100
AcDbEntity
8
BEND_EXTENT
100
AcDbLine
10
811.45318274360875
20
207.08059973996282
30
-6.7215122343156087e-11
11
811.4531827432827
21
45.222021096189309
31
-1.7064127874788516e-11
0
LINE
5
111
100
AcDbEntity
8
BEND_EXTENT
100
AcDbLine
10
-4.332657388662172
20
27.151310422144164
30
-2.0474733020210287e-11
11
-4.3326573881677817
21
209.15120363855016
31
-2.0403678746634277e-11
0
LWPOLYLINE
5
112
100
AcDbEntity
8
BEND_EXTENT
100
AcDbPolyline
90
4
70
1
43
0.0
10
-2.0707106775872388
20
207.15131041973228
10
-2.0707106779457094
20
29.151310419702554
10
790.92928932205427
20
29.151310418105538
10
790.92928932241284
20
207.15131041813527
0
LINE
5
113
100
AcDbEntity
8
BEND_EXTENT
100
AcDbLine
10
793.19123603300136
20
209.15120363694399
30
-2.0403678733169315e-11
11
793.19123603269657
21
27.151310420578767
31
-2.0474733006745325e-11
0
LINE
5
114
100
AcDbEntity
8
BEND_EXTENT
100
AcDbLine
10
-1.9999999994254145
20
227.67520384090133
30
-1.158584339578166e-10
11
790.85857864433535
21
227.67520383930469
31
-6.8038907827775666e-11
0
LINE
5
115
100
AcDbEntity
8
BEND_EXTENT
100
AcDbLine
10
791.82918254126298
20
225.41325712871813
30
-2.0119461638888268e-11
11
-2.9706038963622916
21
225.41325713027072
31
-2.0190515925883251e-11
0
LINE
5
116
100
AcDbEntity
8
BEND_EXTENT
100
AcDbLine
10
-20.332657388167775
20
209.15120363858247
30
-2.0830004388360473e-11
11
-20.33265738850378
21
42.322883294992195
31
-2.0830004388360473e-11
0
LINE
5
117
100
AcDbEntity
8
BEND_EXTENT
100
AcDbLine
10
-22.594604099103201
20
45.222021097868961
30
-1.8689494396921361e-11
11
-22.594604098777449
21
207.08059974164246
31
-6.2327920602837761e-11
0
LINE
5
118
100
AcDbEntity
8
BEND_EXTENT
100
AcDbLine
10
-2.9706038963960868
20
209.41325713031884
30
-2.0332624473035271e-11
11
791.82918254123081
21
209.41325712871813
31
-2.0403678733192308e-11
0
LINE
5
119
100
AcDbEntity
8
BEND_EXTENT
100
AcDbLine
10
790.85857864719605
20
1.99999999896459
30
-1.7941204064590099e-11
11
-2.0000000015244268
21
2.0000000005604335
31
-1.4250822744122277e-11
0
LINE
5
120
100
AcDbEntity
8
BEND_EXTENT
100
AcDbLine
10
-2.5207106779981285
20
3.130973355858373
30
-2.0385915178209682e-11
11
791.37928932200202
21
3.1309733542595453
31
-1.6122658750245301e-11
0
LINE
5
121
100
AcDbEntity
8
BEND_EXTENT
100
AcDbLine
10
791.82928932204743
20
25.758390352226748
30
-2.0510260143556323e-11
11
-2.9707106779527237
21
25.758390353827352
31
-2.0545787293763301e-11
0
ENDSEC
0
SECTION
2
OBJECTS
0
DICTIONARY
5
C
100
AcDbDictionary
3
ACAD_GROUP
350
D
3
ACAD_MLINESTYLE
350
17
0
DICTIONARY
5
D
100
AcDbDictionary
0
DICTIONARY
5
1A
330
C
100
AcDbDictionary
0
DICTIONARY
5
17
100
AcDbDictionary
0
ENDSEC
0
EOF
