0
SECTION
2
HEADER
9
$INSUNITS
70
4
9
$ACADVER
1
AC1014
9
$HANDSEED
5
FFFF
0
ENDSEC
0
SECTION
2
TABLES
0
TABLE
2
VPORT
5
8
100
AcDbSymbolTable
0
ENDTAB
0
TABLE
2
LTYPE
5
5
100
AcDbSymbolTable
0
LTYPE
5
14
100
AcDbSymbolTableRecord
100
AcDbLinetypeTableRecord
2
BYBLOCK
70
0
0
LTYPE
5
15
100
AcDbSymbolTableRecord
100
AcDbLinetypeTableRecord
2
BYLAYER
70
0
0
LTYPE
5
16
100
AcDbSymbolTableRecord
100
AcDbLinetypeTableRecord
2
DASHED
70
0
3
Dashed __ __ __ __ __ __ __ __ __ __ __ __ __ _
72
65
73
2
40
0.75
49
0.5
74
0
49
-0.25
74
0
0
ENDTAB
0
TABLE
2
LAYER
5
2
100
AcDbSymbolTable
70
2
0
LAYER
5
50
100
AcDbSymbolTableRecord
100
AcDbLayerTableRecord
2
0
70
0
62
7
6
CONTINUOUS
0
ENDTAB
0
TABLE
2
STYLE
5
3
100
AcDbSymbolTable
70
1
0
STYLE
5
11
100
AcDbSymbolTableRecord
100
AcDbTextStyleTableRecord
2
STANDARD
70
0
0
ENDTAB
0
TABLE
2
VIEW
5
6
100
AcDbSymbolTable
70
0
0
ENDTAB
0
TABLE
2
UCS
5
7
100
AcDbSymbolTable
70
0
0
ENDTAB
0
TABLE
2
APPID
5
9
100
AcDbSymbolTable
70
2
0
APPID
5
12
100
AcDbSymbolTableRecord
100
AcDbRegAppTableRecord
2
ACAD
70
0
0
ENDTAB
0
TABLE
2
DIMSTYLE
5
A
100
AcDbSymbolTable
70
1
0
ENDTAB
0
TABLE
2
BLOCK_RECORD
5
1
100
AcDbSymbolTable
70
1
0
BLOCK_RECORD
5
1F
100
AcDbSymbolTableRecord
100
AcDbBlockTableRecord
2
*MODEL_SPACE
0
BLOCK_RECORD
5
1B
100
AcDbSymbolTableRecord
100
AcDbBlockTableRecord
2
*PAPER_SPACE
0
ENDTAB
0
ENDSEC
0
SECTION
2
BLOCKS
0
BLOCK
5
20
100
AcDbEntity
100
AcDbBlockBegin
2
*MODEL_SPACE
0
ENDBLK
5
21
100
AcDbEntity
100
AcDbBlockEnd
0
BLOCK
5
1C
100
AcDbEntity
100
AcDbBlockBegin
2
*PAPER_SPACE
0
ENDBLK
5
1D
100
AcDbEntity
100
AcDbBlockEnd
0
ENDSEC
0
SECTION
2
ENTITIES
0
LWPOLYLINE
5
100
100
AcDbEntity
8
OUTER_PROFILES
100
AcDbPolyline
90
40
70
1
43
0.0
10
790.85857864751142
20
1.9999999989401118
10
791.37928932223463
20
3.1309733542355644
10
791.82928932223717
20
4.4169733542346989
10
791.82928932228015
20
25.758390352202838
10
790.92928932228688
20
29.15131041809488
10
793.19123603286414
20
27.151310420538266
42
0.19891236737914891
10
794.60544959525635
20
27.737096855691135
10
809.19123603289779
20
42.322883293315314
10
811.45318274345732
20
45.222021096187888
10
813.45318274313081
20
47.222021096711799
10
813.45318274418958
20
410.08059973989822
10
811.45318274419367
20
412.08059973989259
10
809.19123603364392
20
414.15120363684167
10
793.19123603364403
20
414.1512036368739
10
790.9292893230554
20
412.15131041806501
10
791.82918254187348
20
414.41325712864784
10
791.82918254190542
20
430.41325712864773
10
790.8585786449778
20
432.67520383923426
10
788.8585786449828
20
434.67520383923852
10
1.2184386832814198e-09
20
434.67520384082138
10
-1.9999999987829651
20
432.67520384082525
10
-2.9706038957196936
20
430.41325713019467
10
-2.9706038957534355
20
414.41325713024276
10
-2.0707106769445711
20
412.15131041965634
10
-4.3326573875251428
20
414.15120363847416
10
-20.332657387525067
20
414.15120363850633
10
-22.594604098147215
20
412.08059974156629
10
-24.594604098150192
20
410.08059974158363
10
-24.594604098548444
20
47.222021098393512
10
-22.594604098883117
20
45.222021097861642
10
-20.332657388271272
20
42.322883294975711
10
-5.7468709506694626
20
27.737096857320466
42
0.19891236737939064
10
-4.3326573882996149
20
27.151310419690692
10
-2.0707106777131448
20
29.151310419686212
10
-2.9707106777201298
20
25.758390353797793
10
-2.9707106777628138
20
4.4169733558295832
10
-2.5207106777653774
20
3.1309733558287434
10
-2.000000001355994
20
2.0000000005302354
10
0
20
0
10
788.85857864775187
20
-1.5827339439056232e-09
0
LINE
5
101
100
AcDbEntity
8
BEND
100
AcDbLine
10
791.34388059344224
20
431.54423048394074
30
3.0642155475251957e-13
11
-2.4853019472296012
21
431.54423048553332
31
-6.7429117844852623e-11
0
LINE
5
102
100
AcDbEntity
8
BEND
100
AcDbLine
10
810.32220938817773
20
43.772452194751708
30
-5.4368251628945827e-13
11
810.32220938891885
21
413.11590168835977
31
-3.6637359817138507e-13
0
LINE
5
103
100
AcDbEntity
8
BEND
100
AcDbLine
10
-2.2603553404060897
20
2.5654866781791696
30
8.9650509238607104e-14
11
791.11893398487314
21
2.5654866765871276
31
8.7152507389064743e-14
0
LINE
5
104
100
AcDbEntity
8
BEND
100
AcDbLine
10
-21.463630742835793
20
413.11590169002926
30
1.7794099527191636e-12
11
-21.4636307435769
21
43.772452196420488
31
9.3843577455145381e-13
0
LINE
5
105
100
AcDbEntity
8
BEND
100
AcDbLine
10
792.06026267757716
20
28.151310420555475
30
5.7037707885711186e-13
11
792.06026267834977
21
413.1512570274694
31
5.2263748879823013e-13
0
LINE
5
106
100
AcDbEntity
8
BEND
100
AcDbLine
10
791.37923593246444
20
413.28228377335643
30
5.276334924090811e-13
11
-2.5206572863491772
21
413.28228377494958
31
5.276334924532459e-13
0
LINE
5
107
100
AcDbEntity
8
BEND
100
AcDbLine
10
-2.5207106777165662
20
27.454850386742109
30
5.6510351953434493e-13
11
791.37928932228351
21
27.45485038514893
31
5.6510351949018013e-13
0
LINE
5
108
100
AcDbEntity
8
BEND
100
AcDbLine
10
-3.201684032234934
20
413.15125702906528
30
5.2263748884247036e-13
11
-3.20168403300754
21
28.151310422151283
31
5.7037707890135229e-13
0
LINE
5
109
100
AcDbEntity
8
BEND_EXTENT
100
AcDbLine
10
809.19123603289779
20
42.322883293315314
30
-4.485301019935786e-13
11
809.19123603364392
21
414.15120363684167
31
-1.0182965581906953e-11
0
LINE
5
110
100
AcDbEntity
8
BEND_EXTENT
100
AcDbLine
10
811.45318274419367
20
412.08059973989259
30
-1.1193268534275342e-10
11
811.45318274345732
21
45.222021096187888
31
-1.3145040612013248e-12
0
LINE
5
111
100
AcDbEntity
8
BEND_EXTENT
100
AcDbLine
10
-4.3326573882996158
20
27.151310422139403
30
4.7517545453980802e-13
11
-4.3326573875251428
21
414.15120363847416
31
5.4622972811581804e-13
0
LWPOLYLINE
5
112
100
AcDbEntity
8
BEND_EXTENT
100
AcDbPolyline
90
4
70
1
43
0.0
10
-2.0707106769445711
20
412.15131041965634
10
-2.0707106777131448
20
29.151310419686212
10
790.92928932228688
20
29.15131041809488
10
790.9292893230554
20
412.15131041806501
0
LINE
5
113
100
AcDbEntity
8
BEND_EXTENT
100
AcDbLine
10
793.19123603364403
20
414.1512036368739
30
5.462297280714517e-13
11
793.19123603286414
21
27.151310420538266
31
4.7517545449544168e-13
0
LINE
5
114
100
AcDbEntity
8
BEND_EXTENT
100
AcDbLine
10
-1.9999999987829651
20
432.67520384082525
30
-1.5940138098358135e-10
11
790.8585786449778
21
432.67520383923426
31
-1.1177281322720626e-10
0
LINE
5
115
100
AcDbEntity
8
BEND_EXTENT
100
AcDbLine
10
791.82918254190542
20
430.41325712864773
30
1.1990408661546737e-13
11
-2.9706038957196768
21
430.41325713019467
31
-9.3258734068347867e-14
0
LINE
5
116
100
AcDbEntity
8
BEND_EXTENT
100
AcDbLine
10
-20.332657387525067
20
414.15120363850633
30
1.8252066524848883e-12
11
-20.332657388271272
21
42.322883294975711
31
1.7541523789088782e-12
0
LINE
5
117
100
AcDbEntity
8
BEND_EXTENT
100
AcDbLine
10
-22.594604098883117
20
45.222021097861642
30
8.9261931179988279e-13
11
-22.594604098147215
21
412.08059974156629
31
-9.9218411264699723e-11
0
LINE
5
118
100
AcDbEntity
8
BEND_EXTENT
100
AcDbLine
10
-2.9706038957534355
20
414.41325713024276
30
4.0412118096372217e-13
11
791.82918254187348
21
414.41325712864784
31
4.0412118091950744e-13
0
LINE
5
119
100
AcDbEntity
8
BEND_EXTENT
100
AcDbLine
10
790.85857864751142
20
1.9999999989401118
30
5.373479438745802e-13
11
-2.0000000013560282
21
2.0000000005302354
31
1.6253665080513404e-12
0
LINE
5
120
100
AcDbEntity
8
BEND_EXTENT
100
AcDbLine
10
-2.5207106777653774
20
3.1309733558287434
30
-2.2037927038795342e-13
11
791.37928932223463
21
3.1309733542355644
31
1.5093482019338758e-12
0
LINE
5
121
100
AcDbEntity
8
BEND_EXTENT
100
AcDbLine
10
791.82928932228015
20
25.758390352202838
30
5.700995231009684e-13
11
-2.970710677720092
21
25.758390353797793
31
3.3750779948606411e-12
0
ENDSEC
0
SECTION
2
OBJECTS
0
DICTIONARY
5
C
100
AcDbDictionary
3
ACAD_GROUP
350
D
3
ACAD_MLINESTYLE
350
17
0
DICTIONARY
5
D
100
AcDbDictionary
0
DICTIONARY
5
1A
330
C
100
AcDbDictionary
0
DICTIONARY
5
17
100
AcDbDictionary
0
ENDSEC
0
EOF
