0
SECTION
2
HEADER
9
$INSUNITS
70
4
9
$ACADVER
1
AC1014
9
$HANDSEED
5
FFFF
0
ENDSEC
0
SECTION
2
TABLES
0
TABLE
2
VPORT
5
8
100
AcDbSymbolTable
0
ENDTAB
0
TABLE
2
LTYPE
5
5
100
AcDbSymbolTable
0
LTYPE
5
14
100
AcDbSymbolTableRecord
100
AcDbLinetypeTableRecord
2
BYBLOCK
70
0
0
LTYPE
5
15
100
AcDbSymbolTableRecord
100
AcDbLinetypeTableRecord
2
BYLAYER
70
0
0
LTYPE
5
16
100
AcDbSymbolTableRecord
100
AcDbLinetypeTableRecord
2
DASHED
70
0
3
Dashed __ __ __ __ __ __ __ __ __ __ __ __ __ _
72
65
73
2
40
0.75
49
0.5
74
0
49
-0.25
74
0
0
ENDTAB
0
TABLE
2
LAYER
5
2
100
AcDbSymbolTable
70
2
0
LAYER
5
50
100
AcDbSymbolTableRecord
100
AcDbLayerTableRecord
2
0
70
0
62
7
6
CONTINUOUS
0
ENDTAB
0
TABLE
2
STYLE
5
3
100
AcDbSymbolTable
70
1
0
STYLE
5
11
100
AcDbSymbolTableRecord
100
AcDbTextStyleTableRecord
2
STANDARD
70
0
0
ENDTAB
0
TABLE
2
VIEW
5
6
100
AcDbSymbolTable
70
0
0
ENDTAB
0
TABLE
2
UCS
5
7
100
AcDbSymbolTable
70
0
0
ENDTAB
0
TABLE
2
APPID
5
9
100
AcDbSymbolTable
70
2
0
APPID
5
12
100
AcDbSymbolTableRecord
100
AcDbRegAppTableRecord
2
ACAD
70
0
0
ENDTAB
0
TABLE
2
DIMSTYLE
5
A
100
AcDbSymbolTable
70
1
0
ENDTAB
0
TABLE
2
BLOCK_RECORD
5
1
100
AcDbSymbolTable
70
1
0
BLOCK_RECORD
5
1F
100
AcDbSymbolTableRecord
100
AcDbBlockTableRecord
2
*MODEL_SPACE
0
BLOCK_RECORD
5
1B
100
AcDbSymbolTableRecord
100
AcDbBlockTableRecord
2
*PAPER_SPACE
0
ENDTAB
0
ENDSEC
0
SECTION
2
BLOCKS
0
BLOCK
5
20
100
AcDbEntity
100
AcDbBlockBegin
2
*MODEL_SPACE
0
ENDBLK
5
21
100
AcDbEntity
100
AcDbBlockEnd
0
BLOCK
5
1C
100
AcDbEntity
100
AcDbBlockBegin
2
*PAPER_SPACE
0
ENDBLK
5
1D
100
AcDbEntity
100
AcDbBlockEnd
0
ENDSEC
0
SECTION
2
ENTITIES
0
LWPOLYLINE
5
100
100
AcDbEntity
8
OUTER_PROFILES
100
AcDbPolyline
90
40
70
1
43
0.0
10
-20.332657243299263
20
209.15120355989842
10
-22.594603955305438
20
207.08059966450259
10
-24.594603956674383
20
205.08059966588607
10
-24.594604064640933
20
47.222021025987075
10
-22.594604066154279
20
45.222021024036536
10
-20.332657357551732
20
42.322883216307652
10
-5.7468709299101528
20
27.737096768693121
42
0.19891236737941428
10
-4.3326573679401097
20
27.151310330097669
10
-2.0707106559875141
20
29.151310328548625
10
-2.970710658311333
20
25.758390263279054
10
-2.9707106729269404
20
4.4169732653109151
10
-2.520710673807641
20
3.130973265002801
10
-1.999999998105876
20
1.9999999994572093
10
0
20
0
10
688.85857865084154
20
-1.4157919281387876e-09
10
690.85857865061541
20
1.9999999983852135
10
691.37928932619229
20
3.1309727897850692
10
691.82928932707296
20
4.4169727894768585
10
691.82928934168854
20
25.758389787444997
10
690.92928934401232
20
29.151309853947289
10
693.19123605322443
20
27.151309854875869
42
0.19891236737915502
10
694.60544961597463
20
27.737096289075602
10
709.19123606361745
20
42.322882716696633
10
711.4531827761723
20
45.222020521323572
10
713.45318277739852
20
47.222020520534741
10
713.45318288565159
20
205.08059916043021
10
711.45318288702128
20
207.08059916178968
10
709.19123617787
20
209.15120306028368
10
693.19123617787
20
209.15120307124124
10
690.92928946591564
20
207.15130985397701
10
691.82918268627827
20
209.41325656394537
10
691.82918269723575
20
225.41325656394537
10
690.85857880185222
20
227.67520327519452
10
688.85857880322249
20
229.67520327656473
10
1.5946000075928168e-07
20
229.67520374832941
10
-1.9999998419078502
20
227.67520374969908
10
-2.9706037403895613
20
225.41325703973101
10
-2.9706037513485177
20
209.4132570397793
10
-2.0707105340842098
20
207.15131032857835
10
-4.3326572432993471
20
209.15120354894088
0
LINE
5
101
100
AcDbEntity
8
BEND
100
AcDbLine
10
692.06026269861991
20
28.151309855635454
30
3.5757121007933405e-07
11
692.06026282189305
21
208.15125646260924
31
3.5757126670070835e-07
0
LINE
5
102
100
AcDbEntity
8
BEND
100
AcDbLine
10
-2.5207106571493525
20
27.454850295913893
30
3.5757091980665694e-07
11
691.3792893428506
21
27.454849820696161
31
3.5757130490303602e-07
0
LINE
5
103
100
AcDbEntity
8
BEND
100
AcDbLine
10
691.37923607609696
20
208.28228320896116
30
3.5757123273850983e-07
11
-2.5206571427165159
21
208.28228368417879
31
3.5757084764219009e-07
0
LINE
5
104
100
AcDbEntity
8
BEND
100
AcDbLine
10
-3.2016838886917847
20
208.15125693875962
30
3.5757080785132064e-07
11
-3.2016840119648253
21
28.15131033178595
31
3.5757080452065151e-07
0
LINE
5
105
100
AcDbEntity
8
BEND
100
AcDbLine
10
691.3438807495445
20
226.54422991956991
30
3.5757172038435214e-07
11
-2.485301791127057
21
226.5442303947388
31
3.5750345712421665e-07
0
LINE
5
106
100
AcDbEntity
8
BEND
100
AcDbLine
10
710.32220941989499
20
43.772451619010155
30
3.5757138079758869e-07
11
710.32220953244564
21
208.11590111102936
31
3.5757136121256181e-07
0
LINE
5
107
100
AcDbEntity
8
BEND
100
AcDbLine
10
-2.2603556061914096
20
2.5654871723024542
30
3.5757411110684778e-07
11
691.11893425780158
21
2.5654866974413437
31
3.5757448740891264e-07
0
LINE
5
108
100
AcDbEntity
8
BEND
100
AcDbLine
10
-21.463630599302384
20
208.11590161219314
30
3.5757083157821935e-07
11
-21.46363071185306
21
43.77245212017403
31
3.5757053268029029e-07
0
LINE
5
109
100
AcDbEntity
8
BEND_EXTENT
100
AcDbLine
10
709.19123606361745
20
42.322882716696633
30
3.5757096895372909e-07
11
709.19123617787
21
209.15120306028368
31
3.5756599515457882e-07
0
LINE
5
110
100
AcDbEntity
8
BEND_EXTENT
100
AcDbLine
10
711.45318288702128
20
207.08059916178968
30
3.5752340825467556e-07
11
711.4531827761723
21
45.222020521323572
31
3.5757330167740216e-07
0
LINE
5
111
100
AcDbEntity
8
BEND_EXTENT
100
AcDbLine
10
-4.3326573679401097
20
27.151310332575953
30
3.5757085718369601e-07
11
-4.3326572432993471
21
209.15120354894088
31
3.5757085718369607e-07
0
LWPOLYLINE
5
112
100
AcDbEntity
8
BEND_EXTENT
100
AcDbPolyline
90
4
70
1
43
0.0
10
-2.0707105340842098
20
207.15131032857835
10
-2.0707106559875141
20
29.151310328548625
10
690.92928934401232
20
29.151309853947289
10
690.92928946591564
20
207.15130985397701
0
LINE
5
113
100
AcDbEntity
8
BEND_EXTENT
100
AcDbLine
10
693.19123617787
20
209.15120307124124
30
3.575713153455149e-07
11
693.19123605322443
21
27.151309854875869
31
3.575713153455148e-07
0
LINE
5
114
100
AcDbEntity
8
BEND_EXTENT
100
AcDbLine
10
-1.9999998419078502
20
227.67520374969908
30
3.5747537707769617e-07
11
690.85857880185222
21
227.67520327519452
31
3.5752354337464736e-07
0
LINE
5
115
100
AcDbEntity
8
BEND_EXTENT
100
AcDbLine
10
691.82918269723575
20
225.41325656394537
30
3.5757166986097861e-07
11
-2.9706037403894925
21
225.41325703973101
31
3.5757100004814733e-07
0
LINE
5
116
100
AcDbEntity
8
BEND_EXTENT
100
AcDbLine
10
-20.332657243299263
20
209.15120355989842
30
3.5757084830411389e-07
11
-20.332657357551732
21
42.322883216307652
31
3.5757084830411384e-07
0
LINE
5
117
100
AcDbEntity
8
BEND_EXTENT
100
AcDbLine
10
-22.594604066154279
20
45.222021024036536
30
3.5757324513052567e-07
11
-22.594603955305438
21
207.08059966450259
31
3.5752403338473619e-07
0
LINE
5
118
100
AcDbEntity
8
BEND_EXTENT
100
AcDbLine
10
-2.9706037513485177
20
209.4132570397793
30
3.5757092899387375e-07
11
691.82918268627827
21
209.41325656394537
31
3.5757124353533716e-07
0
LINE
5
119
100
AcDbEntity
8
BEND_EXTENT
100
AcDbLine
10
690.85857865061541
20
1.9999999983852135
30
3.57574520375046e-07
11
-1.9999999981058636
21
1.9999999994572093
31
3.5757524163876115e-07
0
LINE
5
120
100
AcDbEntity
8
BEND_EXTENT
100
AcDbLine
10
-2.520710673807641
20
3.130973265002801
30
3.5757306087175993e-07
11
691.37928932619229
21
3.1309727897850692
31
3.5757342820457062e-07
0
LINE
5
121
100
AcDbEntity
8
BEND_EXTENT
100
AcDbLine
10
691.82928934168854
20
25.758389787444997
30
3.5757138564394355e-07
11
-2.970710658311333
21
25.758390263279054
31
3.575728829863378e-07
0
ENDSEC
0
SECTION
2
OBJECTS
0
DICTIONARY
5
C
100
AcDbDictionary
3
ACAD_GROUP
350
D
3
ACAD_MLINESTYLE
350
17
0
DICTIONARY
5
D
100
AcDbDictionary
0
DICTIONARY
5
1A
330
C
100
AcDbDictionary
0
DICTIONARY
5
17
100
AcDbDictionary
0
ENDSEC
0
EOF
