0
SECTION
2
HEADER
9
$INSUNITS
70
4
9
$ACADVER
1
AC1014
9
$HANDSEED
5
FFFF
0
ENDSEC
0
SECTION
2
TABLES
0
TABLE
2
VPORT
5
8
100
AcDbSymbolTable
0
ENDTAB
0
TABLE
2
LTYPE
5
5
100
AcDbSymbolTable
0
LTYPE
5
14
100
AcDbSymbolTableRecord
100
AcDbLinetypeTableRecord
2
BYBLOCK
70
0
0
LTYPE
5
15
100
AcDbSymbolTableRecord
100
AcDbLinetypeTableRecord
2
BYLAYER
70
0
0
LTYPE
5
16
100
AcDbSymbolTableRecord
100
AcDbLinetypeTableRecord
2
DASHED
70
0
3
Dashed __ __ __ __ __ __ __ __ __ __ __ __ __ _
72
65
73
2
40
0.75
49
0.5
74
0
49
-0.25
74
0
0
ENDTAB
0
TABLE
2
LAYER
5
2
100
AcDbSymbolTable
70
2
0
LAYER
5
50
100
AcDbSymbolTableRecord
100
AcDbLayerTableRecord
2
0
70
0
62
7
6
CONTINUOUS
0
ENDTAB
0
TABLE
2
STYLE
5
3
100
AcDbSymbolTable
70
1
0
STYLE
5
11
100
AcDbSymbolTableRecord
100
AcDbTextStyleTableRecord
2
STANDARD
70
0
0
ENDTAB
0
TABLE
2
VIEW
5
6
100
AcDbSymbolTable
70
0
0
ENDTAB
0
TABLE
2
UCS
5
7
100
AcDbSymbolTable
70
0
0
ENDTAB
0
TABLE
2
APPID
5
9
100
AcDbSymbolTable
70
2
0
APPID
5
12
100
AcDbSymbolTableRecord
100
AcDbRegAppTableRecord
2
ACAD
70
0
0
ENDTAB
0
TABLE
2
DIMSTYLE
5
A
100
AcDbSymbolTable
70
1
0
ENDTAB
0
TABLE
2
BLOCK_RECORD
5
1
100
AcDbSymbolTable
70
1
0
BLOCK_RECORD
5
1F
100
AcDbSymbolTableRecord
100
AcDbBlockTableRecord
2
*MODEL_SPACE
0
BLOCK_RECORD
5
1B
100
AcDbSymbolTableRecord
100
AcDbBlockTableRecord
2
*PAPER_SPACE
0
ENDTAB
0
ENDSEC
0
SECTION
2
BLOCKS
0
BLOCK
5
20
100
AcDbEntity
100
AcDbBlockBegin
2
*MODEL_SPACE
0
ENDBLK
5
21
100
AcDbEntity
100
AcDbBlockEnd
0
BLOCK
5
1C
100
AcDbEntity
100
AcDbBlockBegin
2
*PAPER_SPACE
0
ENDBLK
5
1D
100
AcDbEntity
100
AcDbBlockEnd
0
ENDSEC
0
SECTION
2
ENTITIES
0
LWPOLYLINE
5
100
100
AcDbEntity
8
OUTER_PROFILES
100
AcDbPolyline
90
40
70
1
43
0.0
10
891.82928932188122
20
408.91681348703025
10
891.82928932188111
20
430.25823048499831
10
891.37928932188106
20
431.54423048499831
10
890.85857864538411
20
432.67520384349734
10
888.85857865051105
20
434.67520384089073
10
-3.4721381325653056e-09
20
434.67520384089028
10
-2.0000000032271714
20
432.67520384029729
10
-2.5207106781189736
20
431.5442304849978
10
-2.9707106781189907
20
430.2582304849978
10
-2.9707106781189907
20
408.9168134870298
10
-2.0707106781189566
20
405.52389342113946
10
-4.3326573886993458
20
407.52389341869161
42
0.19891236737916163
10
-5.7468709510905764
20
406.93810698353587
10
-20.33265738870341
20
392.35232054588124
10
-22.594604099265467
20
389.45318273651935
10
-24.59460409893282
20
387.45318273610189
10
-24.594604099265212
20
24.594604099289867
10
-22.594604099265467
20
22.594604099301549
10
-20.33265738870341
20
20.524000202355865
10
-4.3326573887034669
20
20.524000202355875
10
-2.0707106781186724
20
22.523893421169202
10
-2.970603896932289
20
20.261946710584606
10
-2.9706038969320048
20
4.2619467105845903
10
-2.0000000000001705
20
1.9999999999999574
10
0
20
0
10
888.8585786437626
20
4.9737991503207013e-13
10
890.85857864376248
20
2.0000000000003837
10
891.82918254069432
20
4.2619467106393483
10
891.829182540695
20
20.261946710585079
10
890.92928932188124
20
22.523893421169703
10
893.19123603246589
20
20.524000202356376
10
909.19123603246589
20
20.524000202356383
10
911.45318274307078
20
22.594604099302146
10
913.45318274306965
20
24.594604099287253
10
913.45318274273734
20
387.45318273610235
10
911.45318274306999
20
389.45318273651986
10
909.19123603246567
20
392.35232054588653
10
894.605449594834
20
406.93810698351308
42
0.19891236737949836
10
893.19123603246214
20
407.52389342113992
10
890.92928932188101
20
405.52389342113997
0
LINE
5
101
100
AcDbEntity
8
BEND
100
AcDbLine
10
-2.4853019484663719
20
3.1309733552921726
30
2.4271612497628331e-10
11
891.34388059220487
21
3.1309733552931118
31
1.6633278088207223e-10
0
LINE
5
102
100
AcDbEntity
8
BEND
100
AcDbLine
10
-21.463630743984794
20
390.90275164119993
30
2.4277002443378323e-10
11
-21.463630743984652
21
21.559302150835791
31
2.4311441748636758e-10
0
LINE
5
103
100
AcDbEntity
8
BEND
100
AcDbLine
10
891.1189339844359
20
432.10971716264709
30
2.4259400044357428e-10
11
-2.260355340673641
21
432.10971716264658
31
2.4847635369799823e-10
0
LINE
5
104
100
AcDbEntity
8
BEND
100
AcDbLine
10
910.32220938776823
20
21.559302150836047
30
2.428396372877726e-10
11
910.32220938776788
21
390.90275164120072
31
2.4253889334473866e-10
0
LINE
5
105
100
AcDbEntity
8
BEND
100
AcDbLine
10
-3.2016840334114249
20
406.52389341867695
30
2.4301644030444441e-10
11
-3.2016840334111407
21
21.5239468117624
31
2.4301255452385822e-10
0
LINE
5
106
100
AcDbEntity
8
BEND
100
AcDbLine
10
891.37928932188106
20
407.22035345408506
30
2.4302226897532343e-10
11
-2.5207106781189736
21
407.2203534540846
31
2.4302226897532369e-10
0
LINE
5
107
100
AcDbEntity
8
BEND
100
AcDbLine
10
892.06026267717357
20
21.523946811763111
30
2.4298868472882852e-10
11
892.06026267717334
21
406.52389341867723
31
2.4298590917126696e-10
0
LINE
5
108
100
AcDbEntity
8
BEND
100
AcDbLine
10
-2.5206572875254096
20
21.392920065876872
30
2.4298812961731647e-10
11
891.37923593128801
21
21.392920065877373
31
2.4298812961731621e-10
0
LINE
5
109
100
AcDbEntity
8
BEND_EXTENT
100
AcDbLine
10
-20.33265738870341
20
392.35232054588124
30
2.4314772417710634e-10
11
-20.33265738870341
21
20.524000202355879
31
2.3597124254592932e-10
0
LINE
5
110
100
AcDbEntity
8
BEND_EXTENT
100
AcDbLine
10
-22.594604099265467
20
22.594604099301549
30
1.2160494833324267e-10
11
-22.594604099265467
21
389.45318273651935
31
2.4304780410489007e-10
0
LINE
5
111
100
AcDbEntity
8
BEND_EXTENT
100
AcDbLine
10
893.19123603246203
20
407.52389341869099
30
2.4293456135637805e-10
11
893.19123603246589
21
20.524000202356376
31
2.4293456135637805e-10
0
LWPOLYLINE
5
112
100
AcDbEntity
8
BEND_EXTENT
100
AcDbPolyline
90
4
70
1
43
0.0
10
890.92928932188124
20
22.523893421169703
10
890.92928932188101
20
405.52389342113997
10
-2.0707106781189566
20
405.52389342113946
10
-2.0707106781186724
20
22.523893421169205
0
LINE
5
113
100
AcDbEntity
8
BEND_EXTENT
100
AcDbLine
10
-4.3326573887034669
20
20.524000202355875
30
2.4293456135637831e-10
11
-4.3326573886993458
21
407.52389341869161
31
2.4293456135637831e-10
0
LINE
5
114
100
AcDbEntity
8
BEND_EXTENT
100
AcDbLine
10
890.85857864376248
20
2.0000000000003837
30
6.6873173665271485e-11
11
-2.0000000000001705
21
1.9999999999999574
31
1.2066569965440979e-10
0
LINE
5
115
100
AcDbEntity
8
BEND_EXTENT
100
AcDbLine
10
-2.9706038969320048
20
4.2619467105845903
30
2.4265034426207427e-10
11
891.82918254069432
21
4.2619467106393483
31
2.4243718144134598e-10
0
LINE
5
116
100
AcDbEntity
8
BEND_EXTENT
100
AcDbLine
10
909.19123603246589
20
20.524000202356383
30
2.4279245280922603e-10
11
909.19123603246567
21
392.35232054588653
31
2.4286350708280204e-10
0
LINE
5
117
100
AcDbEntity
8
BEND_EXTENT
100
AcDbLine
10
911.45318274306999
20
389.45318273651986
30
2.4273028031984702e-10
11
911.45318274307078
21
22.594604099302131
31
1.2778222924225681e-10
0
LINE
5
118
100
AcDbEntity
8
BEND_EXTENT
100
AcDbLine
10
891.829182540695
20
20.261946710585079
30
2.4286350708280204e-10
11
-2.970603896932289
21
20.261946710584606
31
2.428635070828023e-10
0
LINE
5
119
100
AcDbEntity
8
BEND_EXTENT
100
AcDbLine
10
-2.0000000032271714
20
432.67520384029729
30
2.428901524353933e-10
11
890.85857864538411
21
432.67520384349734
31
2.4600765868854048e-10
0
LINE
5
120
100
AcDbEntity
8
BEND_EXTENT
100
AcDbLine
10
891.37928932188106
20
431.54423048499831
30
2.4223234529330264e-10
11
-2.5207106781189736
21
431.5442304849978
31
2.4533874931620408e-10
0
LINE
5
121
100
AcDbEntity
8
BEND_EXTENT
100
AcDbLine
10
-2.9707106781189907
20
408.9168134870298
30
2.4300284007239275e-10
11
891.82928932188122
21
408.91681348703025
31
2.4580892876713258e-10
0
ENDSEC
0
SECTION
2
OBJECTS
0
DICTIONARY
5
C
100
AcDbDictionary
3
ACAD_GROUP
350
D
3
ACAD_MLINESTYLE
350
17
0
DICTIONARY
5
D
100
AcDbDictionary
0
DICTIONARY
5
1A
330
C
100
AcDbDictionary
0
DICTIONARY
5
17
100
AcDbDictionary
0
ENDSEC
0
EOF
