0
SECTION
2
HEADER
9
$INSUNITS
70
4
9
$ACADVER
1
AC1014
9
$HANDSEED
5
FFFF
0
ENDSEC
0
SECTION
2
TABLES
0
TABLE
2
VPORT
5
8
100
AcDbSymbolTable
0
ENDTAB
0
TABLE
2
LTYPE
5
5
100
AcDbSymbolTable
0
LTYPE
5
14
100
AcDbSymbolTableRecord
100
AcDbLinetypeTableRecord
2
BYBLOCK
70
0
0
LTYPE
5
15
100
AcDbSymbolTableRecord
100
AcDbLinetypeTableRecord
2
BYLAYER
70
0
0
LTYPE
5
16
100
AcDbSymbolTableRecord
100
AcDbLinetypeTableRecord
2
DASHED
70
0
3
Dashed __ __ __ __ __ __ __ __ __ __ __ __ __ _
72
65
73
2
40
0.75
49
0.5
74
0
49
-0.25
74
0
0
ENDTAB
0
TABLE
2
LAYER
5
2
100
AcDbSymbolTable
70
2
0
LAYER
5
50
100
AcDbSymbolTableRecord
100
AcDbLayerTableRecord
2
0
70
0
62
7
6
CONTINUOUS
0
ENDTAB
0
TABLE
2
STYLE
5
3
100
AcDbSymbolTable
70
1
0
STYLE
5
11
100
AcDbSymbolTableRecord
100
AcDbTextStyleTableRecord
2
STANDARD
70
0
0
ENDTAB
0
TABLE
2
VIEW
5
6
100
AcDbSymbolTable
70
0
0
ENDTAB
0
TABLE
2
UCS
5
7
100
AcDbSymbolTable
70
0
0
ENDTAB
0
TABLE
2
APPID
5
9
100
AcDbSymbolTable
70
2
0
APPID
5
12
100
AcDbSymbolTableRecord
100
AcDbRegAppTableRecord
2
ACAD
70
0
0
ENDTAB
0
TABLE
2
DIMSTYLE
5
A
100
AcDbSymbolTable
70
1
0
ENDTAB
0
TABLE
2
BLOCK_RECORD
5
1
100
AcDbSymbolTable
70
1
0
BLOCK_RECORD
5
1F
100
AcDbSymbolTableRecord
100
AcDbBlockTableRecord
2
*MODEL_SPACE
0
BLOCK_RECORD
5
1B
100
AcDbSymbolTableRecord
100
AcDbBlockTableRecord
2
*PAPER_SPACE
0
ENDTAB
0
ENDSEC
0
SECTION
2
BLOCKS
0
BLOCK
5
20
100
AcDbEntity
100
AcDbBlockBegin
2
*MODEL_SPACE
0
ENDBLK
5
21
100
AcDbEntity
100
AcDbBlockEnd
0
BLOCK
5
1C
100
AcDbEntity
100
AcDbBlockBegin
2
*PAPER_SPACE
0
ENDBLK
5
1D
100
AcDbEntity
100
AcDbBlockEnd
0
ENDSEC
0
SECTION
2
ENTITIES
0
LWPOLYLINE
5
100
100
AcDbEntity
8
OUTER_PROFILES
100
AcDbPolyline
90
40
70
1
43
0.0
10
511.4531827482482
20
412.08059974029459
10
509.19123603766565
20
414.15120363724412
10
493.1912360376657
20
414.15120363727618
10
490.92928932707707
20
412.1513104184674
10
491.82918254589532
20
414.41325712905018
10
491.82918254592721
20
430.41325712905018
10
490.85857864899901
20
432.67520383963671
10
488.85857864900356
20
434.67520383964074
10
5.240963218966499e-09
20
434.67520384062169
10
-1.9999999947610916
20
432.67520384062578
10
-2.9706038916983886
20
430.41325712999316
10
-2.9706038917316322
20
414.41325713004312
10
-2.0707106729229103
20
412.15131041945665
10
-4.3326573835036228
20
414.15120363827452
10
-20.332657383503602
20
414.15120363830675
10
-22.59460409408242
20
412.0805997413666
10
-24.59460409408554
20
410.08059974138428
10
-24.59460409448414
20
47.22202110197145
10
-22.594604094818806
20
45.222021101726568
10
-20.332657384249796
20
42.322883294750397
10
-5.7468709466734591
20
27.737096857120704
42
0.19891236738038839
10
-4.3326573842959242
20
27.151310419490954
10
-2.0707106736914733
20
29.151310419486407
10
-2.9707106736984583
20
25.758390353597918
10
-2.9707106737411419
20
4.4169733556297786
10
-2.5207106737437055
20
3.1309733556289387
10
-1.9999999976708704
20
1.9999999983159711
10
0
20
0
10
488.85857865245191
20
-9.8111740953754634e-10
10
490.85857865221135
20
1.9999999993402895
10
491.37928932625636
20
3.1309733546378027
10
491.8292893262589
20
4.4169733546368661
10
491.82928932630176
20
25.758390352605005
10
490.92928932630849
20
29.151310418497118
10
493.1912360369077
20
27.151310420940504
42
0.19891236738199053
10
494.60544959931644
20
27.73709685610644
10
509.19123603691952
20
42.322883293666393
10
511.45318274751196
20
45.222021100654857
10
513.45318274718534
20
47.22202110089178
10
513.4531827482441
20
410.08059974030033
0
LINE
5
101
100
AcDbEntity
8
BEND
100
AcDbLine
10
491.34388059746368
20
431.54423048434347
30
1.4932499683559918e-13
11
-2.485301943207503
21
431.54423048533397
31
-6.9920735867867785e-11
0
LINE
5
102
100
AcDbEntity
8
BEND
100
AcDbLine
10
510.32220939221565
20
43.772452197160447
30
-1.0694735456560686e-13
11
510.32220939295684
21
413.11590168876222
31
8.0213613553593029e-14
0
LINE
5
103
100
AcDbEntity
8
BEND
100
AcDbLine
10
-2.2603553367240217
20
2.5654866779798624
30
-8.6541884769541767e-13
11
491.11893398923451
21
2.5654866769897922
31
3.89478928949704e-12
0
LINE
5
104
100
AcDbEntity
8
BEND
100
AcDbLine
10
-21.463630738793174
20
413.11590168982923
30
-4.3409720262946357e-13
11
-21.463630739534338
21
43.772452198227825
31
-4.310591187885124e-13
0
LINE
5
105
100
AcDbEntity
8
BEND
100
AcDbLine
10
492.06026268159883
20
28.151310420957643
30
-4.4186876377726088e-13
11
492.06026268237139
21
413.15125702787185
31
-4.3937076197185428e-13
0
LINE
5
106
100
AcDbEntity
8
BEND
100
AcDbLine
10
-2.5207106736948592
20
27.454850386542233
30
-4.2799097599311846e-13
11
491.37928932630518
21
27.454850385551097
31
-4.277134202133227e-13
0
LINE
5
107
100
AcDbEntity
8
BEND
100
AcDbLine
10
-3.2016840282132257
20
413.1512570288657
30
-4.3937076199555893e-13
11
-3.2016840289858042
21
28.151310421951479
31
-4.4186876380096553e-13
0
LINE
5
108
100
AcDbEntity
8
BEND
100
AcDbLine
10
491.37923593648611
20
413.28228377375865
30
-4.5297099402354496e-13
11
-2.5206572823273632
21
413.28228377474977
31
-4.5297099404718443e-13
0
LINE
5
109
100
AcDbEntity
8
BEND_EXTENT
100
AcDbLine
10
509.19123603691952
20
42.322883293666393
30
5.3290705206378898e-14
11
509.19123603766565
21
414.15120363724412
31
6.5725203060246401e-13
0
LINE
5
110
100
AcDbEntity
8
BEND_EXTENT
100
AcDbLine
10
511.4531827482482
20
412.08059974029459
30
-1.1100675934014642e-10
11
511.45318274751196
21
45.222021100654857
31
-5.3290705157531369e-14
0
LINE
5
111
100
AcDbEntity
8
BEND_EXTENT
100
AcDbLine
10
-4.3326573842959224
20
27.151310421933914
30
-4.0856207306226501e-13
11
-4.3326573835036228
21
414.15120363827452
31
-4.7961634663827503e-13
0
LWPOLYLINE
5
112
100
AcDbEntity
8
BEND_EXTENT
100
AcDbPolyline
90
4
70
1
43
0.0
10
-2.0707106729229103
20
412.15131041945665
10
-2.0707106736914733
20
29.151310419486407
10
490.92928932630849
20
29.151310418497118
10
490.92928932707707
20
412.1513104184674
0
LINE
5
113
100
AcDbEntity
8
BEND_EXTENT
100
AcDbLine
10
493.1912360376657
20
414.15120363727618
30
-4.7961634661446208e-13
11
493.1912360369077
21
27.151310420940504
31
-4.7961634661446208e-13
0
LINE
5
114
100
AcDbEntity
8
BEND_EXTENT
100
AcDbLine
10
-1.9999999947610916
20
432.67520384062578
30
-1.6037615679920247e-10
11
490.85857864899901
21
432.67520383963671
31
-1.1090239837583264e-10
0
LINE
5
115
100
AcDbEntity
8
BEND_EXTENT
100
AcDbLine
10
491.82918254592721
20
430.41325712905018
30
1.243449787815579e-13
11
-2.9706038916983601
21
430.41325712999316
31
5.3290705181865393e-14
0
LINE
5
116
100
AcDbEntity
8
BEND_EXTENT
100
AcDbLine
10
-20.332657383503602
20
414.15120363830675
30
-6.9277916736707087e-13
11
-20.332657384249796
21
42.322883294750397
31
-1.048050535247121e-12
0
LINE
5
117
100
AcDbEntity
8
BEND_EXTENT
100
AcDbLine
10
-22.594604094818806
20
45.222021101726568
30
-1.2900791546155133e-12
11
-22.59460409408242
21
412.0805997413666
31
-1.1532996779806235e-10
0
LINE
5
118
100
AcDbEntity
8
BEND_EXTENT
100
AcDbLine
10
-2.9706038917316322
20
414.41325713004312
30
-4.4408920985020474e-13
11
491.82918254589532
21
414.41325712905018
31
-4.4408920982652225e-13
0
LINE
5
119
100
AcDbEntity
8
BEND_EXTENT
100
AcDbLine
10
490.85857865221135
20
1.9999999993402895
30
-6.5281113845609818e-13
11
-1.9999999976708693
21
1.9999999983159711
31
1.9095836023551735e-12
0
LINE
5
120
100
AcDbEntity
8
BEND_EXTENT
100
AcDbLine
10
-2.5207106737437055
20
3.1309733556289387
30
-1.1907141939106012e-12
11
491.37928932625636
21
3.1309733546378027
31
1.3605783167016482e-12
0
LINE
5
121
100
AcDbEntity
8
BEND_EXTENT
100
AcDbLine
10
491.82928932630176
20
25.758390352605005
30
-4.479749904127103e-13
11
-2.9707106736984912
21
25.758390353597918
31
2.3592239273283155e-12
0
ENDSEC
0
SECTION
2
OBJECTS
0
DICTIONARY
5
C
100
AcDbDictionary
3
ACAD_GROUP
350
D
3
ACAD_MLINESTYLE
350
17
0
DICTIONARY
5
D
100
AcDbDictionary
0
DICTIONARY
5
1A
330
C
100
AcDbDictionary
0
DICTIONARY
5
17
100
AcDbDictionary
0
ENDSEC
0
EOF
