0
SECTION
2
HEADER
9
$INSUNITS
70
4
9
$ACADVER
1
AC1014
9
$HANDSEED
5
FFFF
0
ENDSEC
0
SECTION
2
TABLES
0
TABLE
2
VPORT
5
8
100
AcDbSymbolTable
0
ENDTAB
0
TABLE
2
LTYPE
5
5
100
AcDbSymbolTable
0
LTYPE
5
14
100
AcDbSymbolTableRecord
100
AcDbLinetypeTableRecord
2
BYBLOCK
70
0
0
LTYPE
5
15
100
AcDbSymbolTableRecord
100
AcDbLinetypeTableRecord
2
BYLAYER
70
0
0
LTYPE
5
16
100
AcDbSymbolTableRecord
100
AcDbLinetypeTableRecord
2
DASHED
70
0
3
Dashed __ __ __ __ __ __ __ __ __ __ __ __ __ _
72
65
73
2
40
0.75
49
0.5
74
0
49
-0.25
74
0
0
ENDTAB
0
TABLE
2
LAYER
5
2
100
AcDbSymbolTable
70
2
0
LAYER
5
50
100
AcDbSymbolTableRecord
100
AcDbLayerTableRecord
2
0
70
0
62
7
6
CONTINUOUS
0
ENDTAB
0
TABLE
2
STYLE
5
3
100
AcDbSymbolTable
70
1
0
STYLE
5
11
100
AcDbSymbolTableRecord
100
AcDbTextStyleTableRecord
2
STANDARD
70
0
0
ENDTAB
0
TABLE
2
VIEW
5
6
100
AcDbSymbolTable
70
0
0
ENDTAB
0
TABLE
2
UCS
5
7
100
AcDbSymbolTable
70
0
0
ENDTAB
0
TABLE
2
APPID
5
9
100
AcDbSymbolTable
70
2
0
APPID
5
12
100
AcDbSymbolTableRecord
100
AcDbRegAppTableRecord
2
ACAD
70
0
0
ENDTAB
0
TABLE
2
DIMSTYLE
5
A
100
AcDbSymbolTable
70
1
0
ENDTAB
0
TABLE
2
BLOCK_RECORD
5
1
100
AcDbSymbolTable
70
1
0
BLOCK_RECORD
5
1F
100
AcDbSymbolTableRecord
100
AcDbBlockTableRecord
2
*MODEL_SPACE
0
BLOCK_RECORD
5
1B
100
AcDbSymbolTableRecord
100
AcDbBlockTableRecord
2
*PAPER_SPACE
0
ENDTAB
0
ENDSEC
0
SECTION
2
BLOCKS
0
BLOCK
5
20
100
AcDbEntity
100
AcDbBlockBegin
2
*MODEL_SPACE
0
ENDBLK
5
21
100
AcDbEntity
100
AcDbBlockEnd
0
BLOCK
5
1C
100
AcDbEntity
100
AcDbBlockBegin
2
*PAPER_SPACE
0
ENDBLK
5
1D
100
AcDbEntity
100
AcDbBlockEnd
0
ENDSEC
0
SECTION
2
ENTITIES
0
LWPOLYLINE
5
100
100
AcDbEntity
8
OUTER_PROFILES
100
AcDbPolyline
90
40
70
1
43
0.0
10
1188.8585786437627
20
7.815970093361102e-13
10
1190.858578643762
20
2.0000000000006679
10
1191.8291825406941
20
4.2619467106395836
10
1191.8291825406941
20
20.261946710585207
10
1190.9292893218812
20
22.523893421169845
10
1193.1912360324659
20
20.524000202356518
10
1209.1912360324659
20
20.524000202356447
10
1211.4531827430367
20
22.594604099302135
10
1213.4531827430355
20
24.594604099287384
10
1213.453182742704
20
387.45318274470105
10
1211.4531827430362
20
389.45318274558639
10
1209.1912360324657
20
392.35232054588494
10
1194.6054495948326
20
406.93810698351308
42
0.19891236737942453
10
1193.1912360324613
20
407.52389342113997
10
1190.9292893218812
20
405.52389342113997
10
1191.8292893218816
20
408.91681348703014
10
1191.8292893218813
20
430.25823048499836
10
1191.3792893218813
20
431.54423048499837
10
1190.858578645034
20
432.67520383902814
10
1188.8585786441151
20
434.67520383855071
10
-2.7674218472384382e-09
20
434.67520384109258
10
-2.0000000025225972
20
432.67520384029893
10
-2.5207106781186894
20
431.54423048499825
10
-2.9707106781187065
20
430.25823048499825
10
-2.9707106781188486
20
408.91681348703008
10
-2.0707106781186724
20
405.52389342113986
10
-4.3326573886979256
20
407.52389342116965
42
0.19891236737894039
10
-5.7468709510878488
20
406.93810698353724
10
-20.332657388703268
20
392.35232054587823
10
-22.59460409921985
20
389.45318274558622
10
-24.594604098887771
20
387.45318274470094
10
-24.594604099220447
20
24.594604099291502
10
-22.594604099220135
20
22.594604099301772
10
-20.332657388703268
20
20.524000202356373
10
-4.3326573887033248
20
20.524000202356234
10
-2.0707106781186724
20
22.523893421169703
10
-2.9706038969320048
20
20.261946710585093
10
-2.9706038969320048
20
4.2619467105850717
10
-2.0000000000001705
20
2.0000000000005258
10
0
20
0
0
LINE
5
101
100
AcDbEntity
8
BEND
100
AcDbLine
10
-2.4853019484663719
20
3.1309733552927987
30
2.4511420670947364e-10
11
1191.3438805922044
21
3.1309733552933716
31
1.6844831085549562e-10
0
LINE
5
102
100
AcDbEntity
8
BEND
100
AcDbLine
10
-21.463630743961772
20
390.90275164573205
30
2.4494679593715134e-10
11
-21.463630743961772
21
21.559302150836217
31
2.4499596795735101e-10
0
LINE
5
103
100
AcDbEntity
8
BEND
100
AcDbLine
10
1191.1189339840837
20
432.10971716264805
30
2.454764169712575e-10
11
-2.2603553403210697
21
432.10971716264794
31
2.5308773265723223e-10
0
LINE
5
104
100
AcDbEntity
8
BEND
100
AcDbLine
10
1210.3222093877512
20
21.559302150836327
30
2.4560437017484555e-10
11
1210.3222093877509
21
390.90275164573228
31
2.4567155700596317e-10
0
LINE
5
105
100
AcDbEntity
8
BEND
100
AcDbLine
10
-3.2016840334107144
20
406.52389341867672
30
2.4594132286281933e-10
11
-3.2016840334107144
21
21.523946811763182
31
2.4593715952647699e-10
0
LINE
5
106
100
AcDbEntity
8
BEND
100
AcDbLine
10
1191.3792893218815
20
407.22035345408517
30
2.4596075176575022e-10
11
-2.5207106781186894
21
407.220353454085
31
2.4595991909848181e-10
0
LINE
5
107
100
AcDbEntity
8
BEND
100
AcDbLine
10
1192.0602626771738
20
21.523946811763111
30
2.4596130687726253e-10
11
1192.0602626771736
21
406.52389341867718
31
2.4595853131970097e-10
0
LINE
5
108
100
AcDbEntity
8
BEND
100
AcDbLine
10
-2.5206572875254096
20
21.392920065877412
30
2.4593355130164696e-10
11
1191.3792359312881
21
21.392920065877554
31
2.4593355130164691e-10
0
LINE
5
109
100
AcDbEntity
8
BEND_EXTENT
100
AcDbLine
10
-20.332657388703268
20
392.35232054587823
30
2.4480417692984702e-10
11
-20.332657388703268
21
20.524000202356376
31
2.2313262348916396e-10
0
LINE
5
110
100
AcDbEntity
8
BEND_EXTENT
100
AcDbLine
10
-22.594604099220135
20
22.594604099301772
30
1.2211565092457024e-10
11
-22.59460409921985
21
389.45318274558622
31
2.4230395467839116e-10
0
LINE
5
111
100
AcDbEntity
8
BEND_EXTENT
100
AcDbLine
10
1193.1912360324613
20
407.5238934186907
30
2.4586999103348712e-10
11
1193.1912360324659
21
20.524000202356518
31
2.4586999103348712e-10
0
LWPOLYLINE
5
112
100
AcDbEntity
8
BEND_EXTENT
100
AcDbPolyline
90
4
70
1
43
0.0
10
1190.9292893218812
20
22.523893421169845
10
1190.9292893218812
20
405.52389342113997
10
-2.0707106781186724
20
405.52389342113986
10
-2.0707106781186724
20
22.523893421169703
0
LINE
5
113
100
AcDbEntity
8
BEND_EXTENT
100
AcDbLine
10
-4.3326573887033248
20
20.524000202356234
30
2.4594104530706318e-10
11
-4.3326573886979247
21
407.5238934186919
31
2.4594104530706318e-10
0
LINE
5
114
100
AcDbEntity
8
BEND_EXTENT
100
AcDbLine
10
1190.858578643762
20
2.0000000000006679
30
6.7938987768911803e-11
11
-2.0000000000001705
21
2.0000000000005258
31
1.2198020371556597e-10
0
LINE
5
115
100
AcDbEntity
8
BEND_EXTENT
100
AcDbLine
10
-2.9706038969320048
20
4.2619467105850717
30
2.4508839402415106e-10
11
1191.8291825406941
21
4.2619467106395836
31
2.4487523120342298e-10
0
LINE
5
116
100
AcDbEntity
8
BEND_EXTENT
100
AcDbLine
10
1209.1912360324659
20
20.524000202356447
30
2.4558577393918308e-10
11
1209.1912360324657
21
392.35232054588494
31
2.4544366539203106e-10
0
LINE
5
117
100
AcDbEntity
8
BEND_EXTENT
100
AcDbLine
10
1211.4531827430362
20
389.45318274558639
30
2.429167977879842e-10
11
1211.4531827430367
21
22.594604099302131
31
1.1796341681247211e-10
0
LINE
5
118
100
AcDbEntity
8
BEND_EXTENT
100
AcDbLine
10
1191.8291825406941
20
20.261946710585207
30
2.4586999103348712e-10
11
-2.9706038969320048
21
20.261946710585093
31
2.4586999103348717e-10
0
LINE
5
119
100
AcDbEntity
8
BEND_EXTENT
100
AcDbLine
10
-2.0000000025225972
20
432.67520384029893
30
2.4460877767751299e-10
11
1190.858578645034
21
432.67520383902814
31
2.48601139674065e-10
0
LINE
5
120
100
AcDbEntity
8
BEND_EXTENT
100
AcDbLine
10
1191.3792893218813
20
431.54423048499837
30
2.4517665675460871e-10
11
-2.5207106781186894
21
431.54423048499825
31
2.4913793250647132e-10
0
LINE
5
121
100
AcDbEntity
8
BEND_EXTENT
100
AcDbLine
10
-2.9707106781188486
20
408.91681348703008
30
2.4596435999058031e-10
11
1191.8292893218816
21
408.91681348703014
31
2.4876989357380802e-10
0
ENDSEC
0
SECTION
2
OBJECTS
0
DICTIONARY
5
C
100
AcDbDictionary
3
ACAD_GROUP
350
D
3
ACAD_MLINESTYLE
350
17
0
DICTIONARY
5
D
100
AcDbDictionary
0
DICTIONARY
5
1A
330
C
100
AcDbDictionary
0
DICTIONARY
5
17
100
AcDbDictionary
0
ENDSEC
0
EOF
