0
SECTION
2
HEADER
9
$INSUNITS
70
4
9
$ACADVER
1
AC1014
9
$HANDSEED
5
FFFF
0
ENDSEC
0
SECTION
2
TABLES
0
TABLE
2
VPORT
5
8
100
AcDbSymbolTable
0
ENDTAB
0
TABLE
2
LTYPE
5
5
100
AcDbSymbolTable
0
LTYPE
5
14
100
AcDbSymbolTableRecord
100
AcDbLinetypeTableRecord
2
BYBLOCK
70
0
0
LTYPE
5
15
100
AcDbSymbolTableRecord
100
AcDbLinetypeTableRecord
2
BYLAYER
70
0
0
LTYPE
5
16
100
AcDbSymbolTableRecord
100
AcDbLinetypeTableRecord
2
DASHED
70
0
3
Dashed __ __ __ __ __ __ __ __ __ __ __ __ __ _
72
65
73
2
40
0.75
49
0.5
74
0
49
-0.25
74
0
0
ENDTAB
0
TABLE
2
LAYER
5
2
100
AcDbSymbolTable
70
2
0
LAYER
5
50
100
AcDbSymbolTableRecord
100
AcDbLayerTableRecord
2
0
70
0
62
7
6
CONTINUOUS
0
ENDTAB
0
TABLE
2
STYLE
5
3
100
AcDbSymbolTable
70
1
0
STYLE
5
11
100
AcDbSymbolTableRecord
100
AcDbTextStyleTableRecord
2
STANDARD
70
0
0
ENDTAB
0
TABLE
2
VIEW
5
6
100
AcDbSymbolTable
70
0
0
ENDTAB
0
TABLE
2
UCS
5
7
100
AcDbSymbolTable
70
0
0
ENDTAB
0
TABLE
2
APPID
5
9
100
AcDbSymbolTable
70
2
0
APPID
5
12
100
AcDbSymbolTableRecord
100
AcDbRegAppTableRecord
2
ACAD
70
0
0
ENDTAB
0
TABLE
2
DIMSTYLE
5
A
100
AcDbSymbolTable
70
1
0
ENDTAB
0
TABLE
2
BLOCK_RECORD
5
1
100
AcDbSymbolTable
70
1
0
BLOCK_RECORD
5
1F
100
AcDbSymbolTableRecord
100
AcDbBlockTableRecord
2
*MODEL_SPACE
0
BLOCK_RECORD
5
1B
100
AcDbSymbolTableRecord
100
AcDbBlockTableRecord
2
*PAPER_SPACE
0
ENDTAB
0
ENDSEC
0
SECTION
2
BLOCKS
0
BLOCK
5
20
100
AcDbEntity
100
AcDbBlockBegin
2
*MODEL_SPACE
0
ENDBLK
5
21
100
AcDbEntity
100
AcDbBlockEnd
0
BLOCK
5
1C
100
AcDbEntity
100
AcDbBlockBegin
2
*PAPER_SPACE
0
ENDBLK
5
1D
100
AcDbEntity
100
AcDbBlockEnd
0
ENDSEC
0
SECTION
2
ENTITIES
0
LWPOLYLINE
5
100
100
AcDbEntity
8
OUTER_PROFILES
100
AcDbPolyline
90
40
70
1
43
0.0
10
391.82918254066328
20
20.261946710585562
10
390.92928932184975
20
22.5238934211702
10
393.1912360324344
20
20.524000202356874
10
409.1912360324344
20
20.524000202356795
10
411.45318274302667
20
22.59460409928684
10
413.45318274302628
20
24.5946040992566
10
413.45318274294959
20
197.45318274094217
10
411.45318274302861
20
199.45318274106916
10
409.19123603243457
20
202.35232054591719
10
394.60544959480558
20
216.9381069835411
42
0.19891236738097895
10
393.19123603242235
20
217.52389342116803
10
390.92928932184981
20
215.52389342116805
10
391.82928932184979
20
218.91681348704503
10
391.82928932184996
20
240.2582304850136
10
391.37928932184991
20
241.5442304850136
10
390.85857865241309
20
242.67520384130933
10
388.85857864550576
20
244.675203840563
10
-1.7921877315529855e-08
20
244.67520384039597
10
-2.0000000175422628
20
242.67520384030465
10
-2.5207106781500954
20
241.54423048501377
10
-2.9707106781501125
20
240.2582304850138
10
-2.9707106781501125
20
218.91681348704523
10
-2.0707106781501494
20
215.52389342116825
10
-4.3326573887275543
20
217.52389341870682
42
0.19891236738012444
10
-5.7468709511061906
20
216.93810698354386
10
-20.332657388734816
20
202.35232054591521
10
-22.594604099316555
20
199.45318274106936
10
-24.594604099237714
20
197.4531827409424
10
-24.59460409931836
20
24.594604099260096
10
-22.594604099317621
20
22.59460409928694
10
-20.332657388734887
20
20.52400020235703
10
-4.3326573887348729
20
20.52400020235709
10
-2.0707106781502205
20
22.523893421170413
10
-2.9706038969636239
20
20.261946710585775
10
-2.970603896963695
20
4.2619467105857689
10
-2.0000000000163709
20
2.0000000000006679
10
0
20
0
10
388.8585786436995
20
5.6843418860808005e-13
10
390.85857864369996
20
2.0000000000003837
10
391.82918254064731
20
4.2619467106488447
0
LINE
5
101
100
AcDbEntity
8
BEND
100
AcDbLine
10
-2.48530194849792
20
3.1309733552933605
30
1.324748644115914e-10
11
391.34388059213848
21
3.1309733552936492
31
3.8225256293600393e-11
0
LINE
5
102
100
AcDbEntity
8
BEND
100
AcDbLine
10
-21.463630744025508
20
200.90275164349225
30
1.3171173453793668e-10
11
-21.463630744025579
21
21.559302150836643
31
1.3173961921353339e-10
0
LINE
5
103
100
AcDbEntity
8
BEND
100
AcDbLine
10
410.32220938773156
20
21.559302150836423
30
1.324856890860816e-10
11
410.32220938773173
21
200.90275164349205
31
1.3216899784673628e-10
0
LINE
5
104
100
AcDbEntity
8
BEND
100
AcDbLine
10
392.06026267714208
20
21.523946811763537
30
1.3195694537060387e-10
11
392.06026267714213
21
216.5238934187056
31
1.3191309156113117e-10
0
LINE
5
105
100
AcDbEntity
8
BEND
100
AcDbLine
10
391.11893399154656
20
242.10971716265823
30
1.3256645781112308e-10
11
-2.260355347846783
21
242.10971716265846
31
1.2730318531443142e-10
0
LINE
5
106
100
AcDbEntity
8
BEND
100
AcDbLine
10
391.37928932184985
20
217.22035345410654
30
1.3191392422839964e-10
11
-2.5207106781500954
21
217.22035345410674
31
1.3192669179318273e-10
0
LINE
5
107
100
AcDbEntity
8
BEND
100
AcDbLine
10
-2.5206572875569577
20
21.392920065878013
30
1.3193168779679354e-10
11
391.37923593125652
21
21.392920065877796
31
1.3193168779679364e-10
0
LINE
5
108
100
AcDbEntity
8
BEND
100
AcDbLine
10
-3.2016840334424757
20
216.52389341870582
30
1.3195305959001757e-10
11
-3.2016840334425467
21
21.52394681176375
31
1.3195666781484761e-10
0
LINE
5
109
100
AcDbEntity
8
BEND_EXTENT
100
AcDbLine
10
-20.332657388734816
20
202.35232054591521
30
1.3173240276387332e-10
11
-20.332657388734887
21
20.524000202357016
31
1.3063106152344517e-10
0
LINE
5
110
100
AcDbEntity
8
BEND_EXTENT
100
AcDbLine
10
-22.594604099317621
20
22.59460409928694
30
6.5052407904886409e-11
11
-22.594604099316555
21
199.45318274106936
31
1.1549206035965653e-10
0
LINE
5
111
100
AcDbEntity
8
BEND_EXTENT
100
AcDbLine
10
393.19123603242235
20
217.52389341870276
30
1.3187451131102545e-10
11
393.1912360324344
21
20.524000202356874
31
1.3194556558460146e-10
0
LWPOLYLINE
5
112
100
AcDbEntity
8
BEND_EXTENT
100
AcDbPolyline
90
4
70
1
43
0.0
10
390.92928932184975
20
22.5238934211702
10
390.92928932184981
20
215.52389342116805
10
-2.0707106781501494
20
215.52389342116825
10
-2.0707106781502205
20
22.523893421170413
0
LINE
5
113
100
AcDbEntity
8
BEND_EXTENT
100
AcDbLine
10
-4.3326573887348729
20
20.52400020235709
30
1.3194556558460135e-10
11
-4.3326573887275543
21
217.52389341870682
31
1.3187451131102534e-10
0
LINE
5
114
100
AcDbEntity
8
BEND_EXTENT
100
AcDbLine
10
390.85857864369996
20
2.0000000000003837
30
-9.2814644858653393e-13
11
-2.0000000000163709
21
2.0000000000006679
31
6.5796257331385277e-11
0
LINE
5
115
100
AcDbEntity
8
BEND_EXTENT
100
AcDbLine
10
-2.970603896963695
20
4.2619467105857689
30
1.3247847263642143e-10
11
391.82918254064731
21
4.2619467106488447
31
1.3247847263642153e-10
0
LINE
5
116
100
AcDbEntity
8
BEND_EXTENT
100
AcDbLine
10
409.1912360324344
20
20.524000202356795
30
1.3244294549963353e-10
11
409.19123603243457
21
202.35232054591719
31
1.3240741836284552e-10
0
LINE
5
117
100
AcDbEntity
8
BEND_EXTENT
100
AcDbLine
10
411.45318274302861
20
199.45318274106916
30
1.1650458375811478e-10
11
411.45318274302667
21
22.594604099286855
31
6.905365168563559e-11
0
LINE
5
118
100
AcDbEntity
8
BEND_EXTENT
100
AcDbLine
10
391.82918254066328
20
20.261946710585562
30
1.3191003844781345e-10
11
-2.9706038969636239
21
20.261946710585775
31
1.3191003844781335e-10
0
LINE
5
119
100
AcDbEntity
8
BEND_EXTENT
100
AcDbLine
10
-2.0000000175422628
20
242.67520384030465
30
1.2466694343515883e-10
11
390.85857865241309
21
242.67520384130933
31
1.2224221634937759e-10
0
LINE
5
120
100
AcDbEntity
8
BEND_EXTENT
100
AcDbLine
10
391.37928932184991
20
241.5442304850136
30
1.322120191105115e-10
11
-2.5207106781500954
21
241.54423048501377
31
1.2977841024053305e-10
0
LINE
5
121
100
AcDbEntity
8
BEND_EXTENT
100
AcDbLine
10
-2.9707106781501125
20
218.91681348704523
30
1.3191003844781335e-10
11
391.82928932184979
21
218.91681348704503
31
1.3189227487941945e-10
0
ENDSEC
0
SECTION
2
OBJECTS
0
DICTIONARY
5
C
100
AcDbDictionary
3
ACAD_GROUP
350
D
3
ACAD_MLINESTYLE
350
17
0
DICTIONARY
5
D
100
AcDbDictionary
0
DICTIONARY
5
1A
330
C
100
AcDbDictionary
0
DICTIONARY
5
17
100
AcDbDictionary
0
ENDSEC
0
EOF
