0
SECTION
2
HEADER
9
$INSUNITS
70
4
9
$ACADVER
1
AC1014
9
$HANDSEED
5
FFFF
0
ENDSEC
0
SECTION
2
TABLES
0
TABLE
2
VPORT
5
8
100
AcDbSymbolTable
0
ENDTAB
0
TABLE
2
LTYPE
5
5
100
AcDbSymbolTable
0
LTYPE
5
14
100
AcDbSymbolTableRecord
100
AcDbLinetypeTableRecord
2
BYBLOCK
70
0
0
LTYPE
5
15
100
AcDbSymbolTableRecord
100
AcDbLinetypeTableRecord
2
BYLAYER
70
0
0
LTYPE
5
16
100
AcDbSymbolTableRecord
100
AcDbLinetypeTableRecord
2
DASHED
70
0
3
Dashed __ __ __ __ __ __ __ __ __ __ __ __ __ _
72
65
73
2
40
0.75
49
0.5
74
0
49
-0.25
74
0
0
ENDTAB
0
TABLE
2
LAYER
5
2
100
AcDbSymbolTable
70
2
0
LAYER
5
50
100
AcDbSymbolTableRecord
100
AcDbLayerTableRecord
2
0
70
0
62
7
6
CONTINUOUS
0
ENDTAB
0
TABLE
2
STYLE
5
3
100
AcDbSymbolTable
70
1
0
STYLE
5
11
100
AcDbSymbolTableRecord
100
AcDbTextStyleTableRecord
2
STANDARD
70
0
0
ENDTAB
0
TABLE
2
VIEW
5
6
100
AcDbSymbolTable
70
0
0
ENDTAB
0
TABLE
2
UCS
5
7
100
AcDbSymbolTable
70
0
0
ENDTAB
0
TABLE
2
APPID
5
9
100
AcDbSymbolTable
70
2
0
APPID
5
12
100
AcDbSymbolTableRecord
100
AcDbRegAppTableRecord
2
ACAD
70
0
0
ENDTAB
0
TABLE
2
DIMSTYLE
5
A
100
AcDbSymbolTable
70
1
0
ENDTAB
0
TABLE
2
BLOCK_RECORD
5
1
100
AcDbSymbolTable
70
1
0
BLOCK_RECORD
5
1F
100
AcDbSymbolTableRecord
100
AcDbBlockTableRecord
2
*MODEL_SPACE
0
BLOCK_RECORD
5
1B
100
AcDbSymbolTableRecord
100
AcDbBlockTableRecord
2
*PAPER_SPACE
0
ENDTAB
0
ENDSEC
0
SECTION
2
BLOCKS
0
BLOCK
5
20
100
AcDbEntity
100
AcDbBlockBegin
2
*MODEL_SPACE
0
ENDBLK
5
21
100
AcDbEntity
100
AcDbBlockEnd
0
BLOCK
5
1C
100
AcDbEntity
100
AcDbBlockBegin
2
*PAPER_SPACE
0
ENDBLK
5
1D
100
AcDbEntity
100
AcDbBlockEnd
0
ENDSEC
0
SECTION
2
ENTITIES
0
LWPOLYLINE
5
100
100
AcDbEntity
8
OUTER_PROFILES
100
AcDbPolyline
90
40
70
1
43
0.0
10
-22.59460409934114
20
22.594604099301272
10
-20.332657388702842
20
20.524000202355801
10
-4.3326573887028985
20
20.524000202355808
10
-2.0707106781183171
20
22.523893421169205
10
-2.9706038969320048
20
20.261946710584546
10
-2.9706038969317916
20
4.2619467105845317
10
-2.0000000000000284
20
1.9999999999999574
10
0
20
0
10
588.85857864376339
20
2.8421709430404007e-13
10
590.85857864376328
20
2.0000000000000284
10
591.82918254069511
20
4.2619467106455611
10
591.829182540695
20
20.261946710584763
10
590.9292893218817
20
22.523893421169419
10
593.19123603246624
20
20.524000202356021
10
609.19123603246612
20
20.524000202356028
10
611.45318274305225
20
22.594604099301357
10
613.45318274305123
20
24.594604099287032
10
613.45318274290605
20
182.45318274614462
10
611.45318274305225
20
184.45318274648272
10
609.19123603246624
20
187.35232054594627
10
594.60544959483616
20
201.93810698357123
42
0.19891236737946791
10
593.19123603246464
20
202.52389342119824
10
590.92928932188158
20
200.52389342119821
10
591.82928932188179
20
203.91681348706635
10
591.82928932188156
20
225.25823048503497
10
591.37928932188163
20
226.54423048503492
10
590.8585786454629
20
227.67520383856623
10
588.85857864387492
20
229.67520383724124
10
-3.6699532302009175e-09
20
229.67520384074305
10
-2.0000000034341525
20
227.67520384031701
10
-2.5207106781184052
20
226.54423048503463
10
-2.9707106781184223
20
225.25823048503474
10
-2.9707106781184223
20
203.91681348706612
10
-2.0707106781183882
20
200.52389342119798
10
-4.3326573887006248
20
202.52389341872112
42
0.19891236737925855
10
-5.7468709510509637
20
201.93810698355225
10
-20.332657388702984
20
187.3523205459428
10
-22.594604099341211
20
184.45318274648255
10
-24.59460409919501
20
182.45318274614442
10
-24.594604099340884
20
24.594604099289725
0
LINE
5
101
100
AcDbEntity
8
BEND
100
AcDbLine
10
-2.4853019484660166
20
3.1309733552923569
30
1.2017858930235548e-10
11
591.34388059220328
21
3.1309733552930386
31
3.4468816689781001e-11
0
LINE
5
102
100
AcDbEntity
8
BEND
100
AcDbLine
10
-21.463630744022169
20
185.90275164621275
30
1.201632309100633e-10
11
-21.463630744022026
21
21.559302150835435
31
1.2024242712627142e-10
0
LINE
5
103
100
AcDbEntity
8
BEND
100
AcDbLine
10
591.11893398453992
20
227.10971716267539
30
1.1874584648907661e-10
11
-2.2603553407768118
21
227.1097171626752
31
1.0201645304612008e-10
0
LINE
5
104
100
AcDbEntity
8
BEND
100
AcDbLine
10
610.32220938775924
20
21.559302150835514
30
1.2113032799021529e-10
11
610.32220938775924
21
185.90275164621303
31
1.2056161167195043e-10
0
LINE
5
105
100
AcDbEntity
8
BEND
100
AcDbLine
10
-3.2016840334107144
20
201.52389341873555
30
1.1978279479407661e-10
11
-3.2016840334106433
21
21.523946811762542
31
1.197955623588598e-10
0
LINE
5
106
100
AcDbEntity
8
BEND
100
AcDbLine
10
591.37928932188163
20
202.22035345413241
30
1.19751708549387e-10
11
-2.5207106781184052
21
202.22035345413215
31
1.1973894098460391e-10
0
LINE
5
107
100
AcDbEntity
8
BEND
100
AcDbLine
10
592.06026267717402
20
21.523946811762755
30
1.1979223168978582e-10
11
592.06026267717402
21
201.52389341873575
31
1.1977946412500263e-10
0
LINE
5
108
100
AcDbEntity
8
BEND
100
AcDbLine
10
-2.5206572875250544
20
21.392920065876861
30
1.1980777481213067e-10
11
591.37923593128835
21
21.392920065877075
31
1.1980777481213057e-10
0
LINE
5
109
100
AcDbEntity
8
BEND_EXTENT
100
AcDbLine
10
-20.332657388702984
20
187.3523205459428
30
1.2025047624319996e-10
11
-20.332657388702842
21
20.524000202355808
31
1.3719692049107834e-10
0
LINE
5
110
100
AcDbEntity
8
BEND_EXTENT
100
AcDbLine
10
-22.59460409934114
20
22.594604099301272
30
5.9789950768163193e-11
11
-22.594604099341211
21
184.45318274648255
31
1.0639267244982875e-10
0
LINE
5
111
100
AcDbEntity
8
BEND_EXTENT
100
AcDbLine
10
593.19123603246453
20
202.52389341872077
30
1.1975309632816778e-10
11
593.19123603246624
21
20.524000202356021
31
1.1975309632816778e-10
0
LWPOLYLINE
5
112
100
AcDbEntity
8
BEND_EXTENT
100
AcDbPolyline
90
4
70
1
43
0.0
10
590.9292893218817
20
22.523893421169419
10
590.92928932188158
20
200.52389342119821
10
-2.0707106781183882
20
200.52389342119798
10
-2.0707106781183171
20
22.523893421169205
0
LINE
5
113
100
AcDbEntity
8
BEND_EXTENT
100
AcDbLine
10
-4.3326573887028985
20
20.524000202355808
30
1.1975309632816789e-10
11
-4.3326573887006248
21
202.52389341872112
31
1.1975309632816789e-10
0
LINE
5
114
100
AcDbEntity
8
BEND_EXTENT
100
AcDbLine
10
590.85857864376328
20
2.0000000000000284
30
-9.0816243414347499e-13
11
-2.0000000000000284
21
1.9999999999999574
31
5.9547922148794896e-11
0
LINE
5
115
100
AcDbEntity
8
BEND_EXTENT
100
AcDbLine
10
-2.9706038969317916
20
4.2619467105845317
30
1.2017942196962395e-10
11
591.82918254069511
21
4.2619467106455611
31
1.2003731342247182e-10
0
LINE
5
116
100
AcDbEntity
8
BEND_EXTENT
100
AcDbLine
10
609.19123603246612
20
20.524000202356028
30
1.2113865466289998e-10
11
609.19123603246624
21
187.35232054594627
31
1.2113865466289998e-10
0
LINE
5
117
100
AcDbEntity
8
BEND_EXTENT
100
AcDbLine
10
611.45318274305225
20
184.45318274648272
30
1.0731415756026753e-10
11
611.45318274305225
21
22.59460409930135
31
6.115996598055052e-11
0
LINE
5
118
100
AcDbEntity
8
BEND_EXTENT
100
AcDbLine
10
591.829182540695
20
20.261946710584763
30
1.198952048753198e-10
11
-2.9706038969320048
21
20.261946710584546
31
1.198241506017439e-10
0
LINE
5
119
100
AcDbEntity
8
BEND_EXTENT
100
AcDbLine
10
-2.0000000034341525
20
227.67520384031701
30
1.1154188683804023e-10
11
590.8585786454629
21
227.67520383856623
31
1.0327738664273046e-10
0
LINE
5
120
100
AcDbEntity
8
BEND_EXTENT
100
AcDbLine
10
591.37928932188163
20
226.54423048503492
30
1.184385922670116e-10
11
-2.5207106781184052
21
226.54423048503463
31
1.1026735080577055e-10
0
LINE
5
121
100
AcDbEntity
8
BEND_EXTENT
100
AcDbLine
10
-2.9707106781184223
20
203.91681348706612
30
1.1961098778101587e-10
11
591.82928932188179
21
203.91681348706635
31
1.1765699525767549e-10
0
ENDSEC
0
SECTION
2
OBJECTS
0
DICTIONARY
5
C
100
AcDbDictionary
3
ACAD_GROUP
350
D
3
ACAD_MLINESTYLE
350
17
0
DICTIONARY
5
D
100
AcDbDictionary
0
DICTIONARY
5
1A
330
C
100
AcDbDictionary
0
DICTIONARY
5
17
100
AcDbDictionary
0
ENDSEC
0
EOF
