0
SECTION
2
HEADER
9
$INSUNITS
70
4
9
$ACADVER
1
AC1014
9
$HANDSEED
5
FFFF
0
ENDSEC
0
SECTION
2
TABLES
0
TABLE
2
VPORT
5
8
100
AcDbSymbolTable
0
ENDTAB
0
TABLE
2
LTYPE
5
5
100
AcDbSymbolTable
0
LTYPE
5
14
100
AcDbSymbolTableRecord
100
AcDbLinetypeTableRecord
2
BYBLOCK
70
0
0
LTYPE
5
15
100
AcDbSymbolTableRecord
100
AcDbLinetypeTableRecord
2
BYLAYER
70
0
0
LTYPE
5
16
100
AcDbSymbolTableRecord
100
AcDbLinetypeTableRecord
2
DASHED
70
0
3
Dashed __ __ __ __ __ __ __ __ __ __ __ __ __ _
72
65
73
2
40
0.75
49
0.5
74
0
49
-0.25
74
0
0
ENDTAB
0
TABLE
2
LAYER
5
2
100
AcDbSymbolTable
70
2
0
LAYER
5
50
100
AcDbSymbolTableRecord
100
AcDbLayerTableRecord
2
0
70
0
62
7
6
CONTINUOUS
0
ENDTAB
0
TABLE
2
STYLE
5
3
100
AcDbSymbolTable
70
1
0
STYLE
5
11
100
AcDbSymbolTableRecord
100
AcDbTextStyleTableRecord
2
STANDARD
70
0
0
ENDTAB
0
TABLE
2
VIEW
5
6
100
AcDbSymbolTable
70
0
0
ENDTAB
0
TABLE
2
UCS
5
7
100
AcDbSymbolTable
70
0
0
ENDTAB
0
TABLE
2
APPID
5
9
100
AcDbSymbolTable
70
2
0
APPID
5
12
100
AcDbSymbolTableRecord
100
AcDbRegAppTableRecord
2
ACAD
70
0
0
ENDTAB
0
TABLE
2
DIMSTYLE
5
A
100
AcDbSymbolTable
70
1
0
ENDTAB
0
TABLE
2
BLOCK_RECORD
5
1
100
AcDbSymbolTable
70
1
0
BLOCK_RECORD
5
1F
100
AcDbSymbolTableRecord
100
AcDbBlockTableRecord
2
*MODEL_SPACE
0
BLOCK_RECORD
5
1B
100
AcDbSymbolTableRecord
100
AcDbBlockTableRecord
2
*PAPER_SPACE
0
ENDTAB
0
ENDSEC
0
SECTION
2
BLOCKS
0
BLOCK
5
20
100
AcDbEntity
100
AcDbBlockBegin
2
*MODEL_SPACE
0
ENDBLK
5
21
100
AcDbEntity
100
AcDbBlockEnd
0
BLOCK
5
1C
100
AcDbEntity
100
AcDbBlockBegin
2
*PAPER_SPACE
0
ENDBLK
5
1D
100
AcDbEntity
100
AcDbBlockEnd
0
ENDSEC
0
SECTION
2
ENTITIES
0
LWPOLYLINE
5
100
100
AcDbEntity
8
OUTER_PROFILES
100
AcDbPolyline
90
53
70
1
43
0.0
10
942.97931616894539
20
559.20970670585962
10
956.40318274305105
20
545.7858401317535
10
942.97931616894527
20
532.36197355764807
42
0.41421356237308032
10
942.97931616894527
20
530.94775999527496
10
956.42389342116962
20
517.50318274305118
10
956.42389342117031
20
484.42389342116928
10
971.47389342116583
20
484.42389342116758
10
971.47389342116583
20
112.62389342116919
10
956.42389342117031
20
112.62389342116907
10
956.42389342116962
20
79.544604099287355
10
943.47389342116958
20
66.594604099287665
10
941.21194671058493
20
66.52389342116922
10
941.21194671058493
20
64.261946710584695
10
943.47389342116969
20
64.191236032465923
10
956.40318274305105
20
51.2619467105851
10
942.97931616894527
20
37.838080136478986
42
0.41421356237306656
10
942.97931616894527
20
36.423866574105958
10
956.42389342116996
20
22.97928932188082
10
956.42389342116996
20
-10.000000000000746
10
843.21194671058481
20
-10.000000000000924
10
833.21194671058481
20
-9.2370555648813024e-13
10
0
20
0
10
1.7763568394002505e-14
20
22.979289321880856
10
13.444577252224503
20
36.423866574106007
42
0.41421356237308632
10
13.444577252224502
20
37.838080136479078
10
0.020710678119078008
20
51.261946710585065
10
12.950000000000371
20
64.19123603246598
10
15.211946710584739
20
64.261946710584695
10
15.211946710584739
20
66.52389342116922
10
12.950000000000095
20
66.594604099287665
10
7.9936057773011271e-14
20
79.544604099287355
10
7.9936057773011271e-14
20
102.62389342116802
10
-58.311946710583484
20
102.62389342116741
10
-58.311946710583484
20
494.42389342117008
10
-15.31194671058536
20
494.42389342117008
10
7.9936057773011271e-14
20
494.42389342117008
10
7.9936057773011271e-14
20
517.50318274305118
10
6.4749999815899422
20
523.97818272464065
10
13.444577237867099
20
530.94776001287471
42
0.41421356170161167
10
13.44457723624595
20
532.36197357362676
10
0.020710678118918135
20
545.7858401317535
10
13.444577252224592
20
559.20970670585939
42
0.41421356237309137
10
13.444577252224637
20
560.6239202682325
10
1.7763568394002505e-14
20
574.06849752045764
10
0
20
597.04778684233838
10
12.950000000000312
20
597.04778684233838
10
15.211946710584812
20
597.04778684233838
10
833.21194671058493
20
597.04778684233929
10
843.21194671058481
20
607.04778684233929
10
943.47389342116958
20
607.04778684233918
10
956.42389342116996
20
607.04778684233918
10
956.42389342116996
20
574.06849752045775
10
942.97931616894539
20
560.6239202682325
42
0.41421356237305096
0
CIRCLE
5
101
100
AcDbEntity
8
INTERIOR_PROFILES
100
AcDbCircle
10
-143.21194671058487
20
3.9999999999990976
30
0
40
1.2644999999999995
210
0
220
0
230
-1
0
CIRCLE
5
102
100
AcDbEntity
8
INTERIOR_PROFILES
100
AcDbCircle
10
30.311946710585218
20
120.52389342116922
30
0
40
1.6999999999999993
210
0
220
0
230
-1
0
CIRCLE
5
103
100
AcDbEntity
8
INTERIOR_PROFILES
100
AcDbCircle
10
-443.21194671058493
20
593.04778684233929
30
0
40
1.264499999999984
210
0
220
0
230
-1
0
CIRCLE
5
104
100
AcDbEntity
8
INTERIOR_PROFILES
100
AcDbCircle
10
-743.21194671058481
20
593.04778684233941
30
0
40
1.264499999999984
210
0
220
0
230
-1
0
CIRCLE
5
105
100
AcDbEntity
8
INTERIOR_PROFILES
100
AcDbCircle
10
-55.211946710584883
20
590.04778684233929
30
0
40
1.7000000000000171
210
0
220
0
230
-1
0
CIRCLE
5
106
100
AcDbEntity
8
INTERIOR_PROFILES
100
AcDbCircle
10
-18.211946710584851
20
17.999999999999083
30
0
40
1.6999999999999993
210
0
220
0
230
-1
0
CIRCLE
5
107
100
AcDbEntity
8
INTERIOR_PROFILES
100
AcDbCircle
10
-743.21194671058481
20
3.9999999999990976
30
0
40
1.2644999999999995
210
0
220
0
230
-1
0
CIRCLE
5
108
100
AcDbEntity
8
INTERIOR_PROFILES
100
AcDbCircle
10
-143.21194671058487
20
593.04778684233929
30
0
40
1.264499999999984
210
0
220
0
230
-1
0
CIRCLE
5
109
100
AcDbEntity
8
INTERIOR_PROFILES
100
AcDbCircle
10
-55.211946710584883
20
6.9999999999990692
30
0
40
1.7000000000000004
210
0
220
0
230
-1
0
CIRCLE
5
110
100
AcDbEntity
8
INTERIOR_PROFILES
100
AcDbCircle
10
-443.21194671058487
20
3.9999999999990976
30
0
40
1.2644999999999995
210
0
220
0
230
-1
0
CIRCLE
5
111
100
AcDbEntity
8
INTERIOR_PROFILES
100
AcDbCircle
10
55.311946710585218
20
476.52389342116919
30
0
40
1.7000000000000171
210
0
220
0
230
-1
0
CIRCLE
5
112
100
AcDbEntity
8
INTERIOR_PROFILES
100
AcDbCircle
10
-18.211946710584851
20
27.999999999999083
30
0
40
1.6999999999999993
210
0
220
0
230
-1
0
CIRCLE
5
113
100
AcDbEntity
8
INTERIOR_PROFILES
100
AcDbCircle
10
55.311946710585218
20
120.52389342116922
30
0
40
1.6999999999999993
210
0
220
0
230
-1
0
CIRCLE
5
114
100
AcDbEntity
8
INTERIOR_PROFILES
100
AcDbCircle
10
30.311946710585218
20
476.52389342116919
30
0
40
1.7000000000000171
210
0
220
0
230
-1
0
CIRCLE
5
115
100
AcDbEntity
8
INTERIOR_PROFILES
100
AcDbCircle
10
-30.211946710584883
20
6.9999999999990692
30
0
40
1.7000000000000004
210
0
220
0
230
-1
0
CIRCLE
5
116
100
AcDbEntity
8
INTERIOR_PROFILES
100
AcDbCircle
10
30.311946710585218
20
298.52389342116919
30
0
40
1.7000000000000171
210
0
220
0
230
-1
0
CIRCLE
5
117
100
AcDbEntity
8
INTERIOR_PROFILES
100
AcDbCircle
10
55.311946710585218
20
298.52389342116919
30
0
40
1.7000000000000171
210
0
220
0
230
-1
0
CIRCLE
5
118
100
AcDbEntity
8
INTERIOR_PROFILES
100
AcDbCircle
10
-829.21194671058493
20
6.9999999999990692
30
0
40
1.7000000000000004
210
0
220
0
230
-1
0
CIRCLE
5
119
100
AcDbEntity
8
INTERIOR_PROFILES
100
AcDbCircle
10
-18.211946710584851
20
579.04778684233929
30
0
40
1.7000000000000171
210
0
220
0
230
-1
0
CIRCLE
5
120
100
AcDbEntity
8
INTERIOR_PROFILES
100
AcDbCircle
10
-30.211946710584883
20
590.04778684233929
30
0
40
1.7000000000000171
210
0
220
0
230
-1
0
CIRCLE
5
121
100
AcDbEntity
8
INTERIOR_PROFILES
100
AcDbCircle
10
-18.211946710584851
20
569.04778684233929
30
0
40
1.7000000000000171
210
0
220
0
230
-1
0
CIRCLE
5
122
100
AcDbEntity
8
INTERIOR_PROFILES
100
AcDbCircle
10
-829.21194671058493
20
590.04778684233941
30
0
40
1.7000000000000171
210
0
220
0
230
-1
0
LWPOLYLINE
5
123
100
AcDbEntity
8
BEND_EXTENT
100
AcDbPolyline
90
4
70
1
43
0.0
10
941.21194671058493
20
66.52389342116922
10
15.21194671058467
20
66.52389342116922
10
15.21194671058467
20
530.5238934211693
10
941.21194671058493
20
530.5238934211693
0
LWPOLYLINE
5
124
100
AcDbEntity
8
BEND_EXTENT
100
AcDbPolyline
90
4
70
1
43
0.0
10
15.211946710584739
20
64.261946710584695
10
941.21194671058493
20
64.261946710584695
10
941.21194671058504
20
38.261946710584709
10
15.211946710584881
20
38.261946710584709
0
LWPOLYLINE
5
125
100
AcDbEntity
8
BEND_EXTENT
100
AcDbPolyline
90
4
70
1
43
0.0
10
15.211946710584881
20
558.78584013175384
10
15.211946710584739
20
532.78584013175396
10
941.21194671058493
20
532.78584013175396
10
941.21194671058504
20
558.78584013175384
0
ENDSEC
0
SECTION
2
OBJECTS
0
DICTIONARY
5
C
100
AcDbDictionary
3
ACAD_GROUP
350
D
3
ACAD_MLINESTYLE
350
17
0
DICTIONARY
5
D
100
AcDbDictionary
0
DICTIONARY
5
1A
330
C
100
AcDbDictionary
0
DICTIONARY
5
17
100
AcDbDictionary
0
ENDSEC
0
EOF
