0
SECTION
2
HEADER
9
$INSUNITS
70
4
9
$ACADVER
1
AC1014
9
$HANDSEED
5
FFFF
0
ENDSEC
0
SECTION
2
TABLES
0
TABLE
2
VPORT
5
8
100
AcDbSymbolTable
0
ENDTAB
0
TABLE
2
LTYPE
5
5
100
AcDbSymbolTable
0
LTYPE
5
14
100
AcDbSymbolTableRecord
100
AcDbLinetypeTableRecord
2
BYBLOCK
70
0
0
LTYPE
5
15
100
AcDbSymbolTableRecord
100
AcDbLinetypeTableRecord
2
BYLAYER
70
0
0
LTYPE
5
16
100
AcDbSymbolTableRecord
100
AcDbLinetypeTableRecord
2
DASHED
70
0
3
Dashed __ __ __ __ __ __ __ __ __ __ __ __ __ _
72
65
73
2
40
0.75
49
0.5
74
0
49
-0.25
74
0
0
ENDTAB
0
TABLE
2
LAYER
5
2
100
AcDbSymbolTable
70
2
0
LAYER
5
50
100
AcDbSymbolTableRecord
100
AcDbLayerTableRecord
2
0
70
0
62
7
6
CONTINUOUS
0
ENDTAB
0
TABLE
2
STYLE
5
3
100
AcDbSymbolTable
70
1
0
STYLE
5
11
100
AcDbSymbolTableRecord
100
AcDbTextStyleTableRecord
2
STANDARD
70
0
0
ENDTAB
0
TABLE
2
VIEW
5
6
100
AcDbSymbolTable
70
0
0
ENDTAB
0
TABLE
2
UCS
5
7
100
AcDbSymbolTable
70
0
0
ENDTAB
0
TABLE
2
APPID
5
9
100
AcDbSymbolTable
70
2
0
APPID
5
12
100
AcDbSymbolTableRecord
100
AcDbRegAppTableRecord
2
ACAD
70
0
0
ENDTAB
0
TABLE
2
DIMSTYLE
5
A
100
AcDbSymbolTable
70
1
0
ENDTAB
0
TABLE
2
BLOCK_RECORD
5
1
100
AcDbSymbolTable
70
1
0
BLOCK_RECORD
5
1F
100
AcDbSymbolTableRecord
100
AcDbBlockTableRecord
2
*MODEL_SPACE
0
BLOCK_RECORD
5
1B
100
AcDbSymbolTableRecord
100
AcDbBlockTableRecord
2
*PAPER_SPACE
0
ENDTAB
0
ENDSEC
0
SECTION
2
BLOCKS
0
BLOCK
5
20
100
AcDbEntity
100
AcDbBlockBegin
2
*MODEL_SPACE
0
ENDBLK
5
21
100
AcDbEntity
100
AcDbBlockEnd
0
BLOCK
5
1C
100
AcDbEntity
100
AcDbBlockBegin
2
*PAPER_SPACE
0
ENDBLK
5
1D
100
AcDbEntity
100
AcDbBlockEnd
0
ENDSEC
0
SECTION
2
ENTITIES
0
LWPOLYLINE
5
100
100
AcDbEntity
8
OUTER_PROFILES
100
AcDbPolyline
90
53
70
1
43
0.0
10
942.97931616894539
20
560.6239202682325
42
0.41421356237306561
10
942.97931616894539
20
559.2097067058595
10
956.40318274305105
20
545.7858401317535
10
942.97931616894527
20
532.36197355764807
42
0.41421356237308032
10
942.97931616894527
20
530.94775999527496
10
956.42389342116962
20
517.50318274305118
10
956.42389342117031
20
484.42389342116928
10
971.47389342116583
20
484.42389342116758
10
971.47389342116583
20
112.62389342116919
10
956.42389342117031
20
112.62389342116907
10
956.42389342116962
20
79.544604099287355
10
943.47389342116958
20
66.594604099287665
10
941.21194671058493
20
66.52389342116922
10
941.21194671058493
20
64.261946710584695
10
943.47389342116969
20
64.191236032465923
10
956.40318274305105
20
51.2619467105851
10
942.97931616894527
20
37.838080136478986
42
0.41421356237306656
10
942.97931616894527
20
36.423866574105958
10
956.42389342116996
20
22.97928932188082
10
956.42389342116996
20
-10.000000000000746
10
843.21194671058481
20
-10.000000000000924
10
833.21194671058481
20
-9.2370555648813024e-13
10
0
20
0
10
1.7763568394002505e-14
20
22.979289321880856
10
13.444577252224503
20
36.423866574106007
42
0.41421356237308632
10
13.444577252224502
20
37.838080136479078
10
0.020710678119078008
20
51.261946710585065
10
12.950000000000371
20
64.19123603246598
10
15.211946710584739
20
64.261946710584695
10
15.211946710584739
20
66.52389342116922
10
12.950000000000095
20
66.594604099287665
10
7.9936057773011271e-14
20
79.544604099287355
10
7.9936057773011271e-14
20
102.62389342116802
10
-58.311946710583484
20
102.62389342116741
10
-58.311946710583484
20
494.42389342117008
10
-15.31194671058536
20
494.42389342117008
10
7.9936057773011271e-14
20
494.42389342117008
10
7.9936057773011271e-14
20
517.50318274305118
10
6.4749999815899422
20
523.97818272464065
10
13.44457723786709
20
530.94776001287471
42
0.41421356170161344
10
13.44457723624595
20
532.36197357362676
10
0.020710678118918135
20
545.7858401317535
10
13.444577252224592
20
559.20970670585939
42
0.41421356237309137
10
13.444577252224637
20
560.6239202682325
10
1.7763568394002505e-14
20
574.06849752045764
10
0
20
597.04778684233838
10
12.950000000000312
20
597.04778684233838
10
15.211946710584812
20
597.04778684233838
10
833.21194671058493
20
597.04778684233929
10
843.21194671058481
20
607.04778684233929
10
943.47389342116958
20
607.04778684233918
10
956.42389342116996
20
607.04778684233918
10
956.42389342116996
20
574.06849752045775
0
CIRCLE
5
101
100
AcDbEntity
8
INTERIOR_PROFILES
100
AcDbCircle
10
55.311946710585218
20
298.52389342116919
30
0
40
1.7000000000000171
210
0
220
0
230
-1
0
CIRCLE
5
102
100
AcDbEntity
8
INTERIOR_PROFILES
100
AcDbCircle
10
-143.21194671058487
20
593.04778684233929
30
0
40
1.264499999999984
210
0
220
0
230
-1
0
CIRCLE
5
103
100
AcDbEntity
8
INTERIOR_PROFILES
100
AcDbCircle
10
-18.211946710584851
20
17.999999999999083
30
0
40
1.6999999999999993
210
0
220
0
230
-1
0
CIRCLE
5
104
100
AcDbEntity
8
INTERIOR_PROFILES
100
AcDbCircle
10
-443.21194671058493
20
593.04778684233929
30
0
40
1.264499999999984
210
0
220
0
230
-1
0
CIRCLE
5
105
100
AcDbEntity
8
INTERIOR_PROFILES
100
AcDbCircle
10
-143.21194671058487
20
3.9999999999990976
30
0
40
1.2644999999999995
210
0
220
0
230
-1
0
CIRCLE
5
106
100
AcDbEntity
8
INTERIOR_PROFILES
100
AcDbCircle
10
-30.211946710584883
20
6.9999999999990692
30
0
40
1.7000000000000004
210
0
220
0
230
-1
0
CIRCLE
5
107
100
AcDbEntity
8
INTERIOR_PROFILES
100
AcDbCircle
10
-743.21194671058481
20
3.9999999999990976
30
0
40
1.2644999999999995
210
0
220
0
230
-1
0
CIRCLE
5
108
100
AcDbEntity
8
INTERIOR_PROFILES
100
AcDbCircle
10
-18.211946710584851
20
27.999999999999083
30
0
40
1.6999999999999993
210
0
220
0
230
-1
0
CIRCLE
5
109
100
AcDbEntity
8
INTERIOR_PROFILES
100
AcDbCircle
10
-443.21194671058487
20
3.9999999999990976
30
0
40
1.2644999999999995
210
0
220
0
230
-1
0
CIRCLE
5
110
100
AcDbEntity
8
INTERIOR_PROFILES
100
AcDbCircle
10
55.311946710585218
20
476.52389342116919
30
0
40
1.7000000000000171
210
0
220
0
230
-1
0
CIRCLE
5
111
100
AcDbEntity
8
INTERIOR_PROFILES
100
AcDbCircle
10
30.311946710585218
20
120.52389342116922
30
0
40
1.6999999999999993
210
0
220
0
230
-1
0
CIRCLE
5
112
100
AcDbEntity
8
INTERIOR_PROFILES
100
AcDbCircle
10
-55.211946710584883
20
6.9999999999990692
30
0
40
1.7000000000000004
210
0
220
0
230
-1
0
CIRCLE
5
113
100
AcDbEntity
8
INTERIOR_PROFILES
100
AcDbCircle
10
30.311946710585218
20
298.52389342116919
30
0
40
1.7000000000000171
210
0
220
0
230
-1
0
CIRCLE
5
114
100
AcDbEntity
8
INTERIOR_PROFILES
100
AcDbCircle
10
30.311946710585218
20
476.52389342116919
30
0
40
1.7000000000000171
210
0
220
0
230
-1
0
CIRCLE
5
115
100
AcDbEntity
8
INTERIOR_PROFILES
100
AcDbCircle
10
-829.21194671058493
20
6.9999999999990692
30
0
40
1.7000000000000004
210
0
220
0
230
-1
0
CIRCLE
5
116
100
AcDbEntity
8
INTERIOR_PROFILES
100
AcDbCircle
10
55.311946710585218
20
120.52389342116922
30
0
40
1.6999999999999993
210
0
220
0
230
-1
0
CIRCLE
5
117
100
AcDbEntity
8
INTERIOR_PROFILES
100
AcDbCircle
10
-743.21194671058481
20
593.04778684233941
30
0
40
1.264499999999984
210
0
220
0
230
-1
0
CIRCLE
5
118
100
AcDbEntity
8
INTERIOR_PROFILES
100
AcDbCircle
10
-55.211946710584883
20
590.04778684233929
30
0
40
1.7000000000000171
210
0
220
0
230
-1
0
CIRCLE
5
119
100
AcDbEntity
8
INTERIOR_PROFILES
100
AcDbCircle
10
-18.211946710584851
20
579.04778684233929
30
0
40
1.7000000000000171
210
0
220
0
230
-1
0
CIRCLE
5
120
100
AcDbEntity
8
INTERIOR_PROFILES
100
AcDbCircle
10
-829.21194671058493
20
590.04778684233941
30
0
40
1.7000000000000171
210
0
220
0
230
-1
0
CIRCLE
5
121
100
AcDbEntity
8
INTERIOR_PROFILES
100
AcDbCircle
10
-30.211946710584883
20
590.04778684233929
30
0
40
1.7000000000000171
210
0
220
0
230
-1
0
CIRCLE
5
122
100
AcDbEntity
8
INTERIOR_PROFILES
100
AcDbCircle
10
-18.211946710584851
20
569.04778684233929
30
0
40
1.7000000000000171
210
0
220
0
230
-1
0
LINE
5
123
100
AcDbEntity
8
BEND
100
AcDbLine
10
14.080973355292482
20
597.04778684233838
30
8.1338931239577827e-12
11
14.080973355292413
21
559.91681348704617
31
8.6222464382381649e-12
0
LINE
5
124
100
AcDbEntity
8
BEND
100
AcDbLine
10
14.080973355292413
20
559.91681348704617
30
8.6222464382381649e-12
11
14.080973353437896
21
531.65486677646163
31
9.1019126536860512e-12
0
LINE
5
125
100
AcDbEntity
8
BEND
100
AcDbLine
10
14.080973353437896
20
531.65486677646163
30
9.1019126536860512e-12
11
14.080973353437896
21
66.559248760286351
31
1.5798862248160998e-12
0
LINE
5
126
100
AcDbEntity
8
BEND
100
AcDbLine
10
942.34292006587737
20
-10.000000000000711
30
1.8109122175079506e-12
11
942.34292006587737
21
37.130973355292326
31
3.2753959185549423e-12
0
LINE
5
127
100
AcDbEntity
8
BEND
100
AcDbLine
10
942.34292006587737
20
37.130973355292326
30
3.2753959185549423e-12
11
942.34292006587725
21
64.226591371525302
31
4.209306401202456e-12
0
LINE
5
128
100
AcDbEntity
8
BEND
100
AcDbLine
10
14.080973355293613
20
37.130973355292326
30
4.3323945382360352e-13
11
14.080973355293613
21
-8.8817841970012523e-15
31
-8.1077120326097991e-13
0
LINE
5
129
100
AcDbEntity
8
BEND
100
AcDbLine
10
14.08097335529262
20
64.22659137152533
30
1.4999914122501749e-12
11
14.080973355293613
21
37.130973355292326
31
4.3323945382360352e-13
0
LINE
5
130
100
AcDbEntity
8
BEND
100
AcDbLine
10
13.737470471038314
20
37.130973355292326
30
4.1162049929766459e-13
11
942.68642295013183
21
37.130973355292326
31
3.2595081449891255e-12
0
LINE
5
131
100
AcDbEntity
8
BEND
100
AcDbLine
10
942.34292006587771
20
559.91681348704617
30
1.1484962510797876e-11
11
942.34292006587771
21
607.04778684233906
31
1.086864989204454e-11
0
LINE
5
132
100
AcDbEntity
8
BEND
100
AcDbLine
10
942.34292006572775
20
531.65486677646163
30
1.1964628726251021e-11
11
942.34292006587771
21
559.91681348704617
31
1.1484962510797876e-11
0
LINE
5
133
100
AcDbEntity
8
BEND
100
AcDbLine
10
942.34292006572775
20
531.65486677646163
30
1.1964628726251021e-11
11
942.34292006572775
21
66.559248760223824
31
4.416581632832248e-12
0
LINE
5
134
100
AcDbEntity
8
BEND
100
AcDbLine
10
15.211946710584739
20
65.392920065877036
30
1.4910371498122597e-12
11
941.21194671058493
21
65.392920065877036
31
4.3821203899699324e-12
0
LINE
5
135
100
AcDbEntity
8
BEND
100
AcDbLine
10
-14.180973355292556
20
494.42389342117042
30
9.9942774041449292e-12
11
-14.180973355292556
21
102.62389342116734
31
3.7609931158302674e-12
0
LINE
5
136
100
AcDbEntity
8
BEND
100
AcDbLine
10
942.68642295013183
20
559.91681348704617
30
1.1534242198829266e-11
11
13.737470471038336
21
559.91681348704617
31
8.4923802645408904e-12
0
LINE
5
137
100
AcDbEntity
8
BEND
100
AcDbLine
10
942.68642295013194
20
531.65486677646163
30
1.1847910909243358e-11
11
13.737470453438334
21
531.65486677646163
31
9.2898179612562359e-12
0
LWPOLYLINE
5
138
100
AcDbEntity
8
BEND_EXTENT
100
AcDbPolyline
90
4
70
1
43
0.0
10
941.21194671058493
20
66.52389342116922
10
15.21194671058467
20
66.52389342116922
10
15.21194671058467
20
530.5238934211693
10
941.21194671058493
20
530.5238934211693
0
LWPOLYLINE
5
139
100
AcDbEntity
8
BEND_EXTENT
100
AcDbPolyline
90
4
70
1
43
0.0
10
15.211946710584739
20
64.261946710584695
10
941.21194671058493
20
64.261946710584695
10
941.21194671058504
20
38.261946710584709
10
15.211946710584881
20
38.261946710584709
0
LINE
5
140
100
AcDbEntity
8
BEND_EXTENT
100
AcDbLine
10
12.949999945580066
20
530.45318272382997
30
9.2210223072470509e-12
11
12.950000000000095
21
66.594604099287693
31
1.5475195704698886e-12
0
LINE
5
141
100
AcDbEntity
8
BEND_EXTENT
100
AcDbLine
10
943.47389342116958
20
66.594604099287665
30
4.3461571064496061e-12
11
943.47389342116958
21
530.45318274305077
31
1.1877551296554654e-11
0
LINE
5
142
100
AcDbEntity
8
BEND_EXTENT
100
AcDbLine
10
-13.050000000000253
20
494.42389342117025
30
1.1682241558597218e-11
11
-13.050000000000253
21
102.62389342116741
31
3.4734082804628333e-12
0
LINE
5
143
100
AcDbEntity
8
BEND_EXTENT
100
AcDbLine
10
-15.311946710585362
20
102.62389342116741
30
3.9460488901048813e-12
11
-15.311946710585362
21
494.42389342117008
31
1.0165362508110985e-11
0
LINE
5
144
100
AcDbEntity
8
BEND_EXTENT
100
AcDbLine
10
943.47389342116958
20
35.929289321881335
30
3.2798285504945576e-12
11
943.47389342116958
21
-10.000000000000711
31
1.8235594259591164e-12
0
LINE
5
145
100
AcDbEntity
8
BEND_EXTENT
100
AcDbLine
10
941.21194671058504
20
-10.000000000000711
30
2.2962000356011668e-12
11
941.21194671058504
21
35.999999999999979
31
3.3228507135526888e-12
0
LINE
5
146
100
AcDbEntity
8
BEND_EXTENT
100
AcDbLine
10
941.21194671058504
20
35.999999999999979
30
3.3228507135526888e-12
11
15.211946710584812
21
35.999999999999979
31
4.6711037798899627e-13
0
LINE
5
147
100
AcDbEntity
8
BEND_EXTENT
100
AcDbLine
10
15.211946710584812
20
35.999999999999979
30
4.6711037798899627e-13
11
15.211946710584881
21
0
31
-7.3912497508054755e-13
0
LINE
5
148
100
AcDbEntity
8
BEND_EXTENT
100
AcDbLine
10
943.47389342116958
20
607.04778684233918
30
1.0900726003426649e-11
11
943.47389342116958
21
561.11849752045725
31
1.1469503675807498e-11
0
LINE
5
149
100
AcDbEntity
8
BEND_EXTENT
100
AcDbLine
10
941.21194671058504
20
561.0477868423385
30
1.1510229664924341e-11
11
941.21194671058504
21
607.04778684233906
31
1.0849341345445625e-11
0
LINE
5
150
100
AcDbEntity
8
BEND_EXTENT
100
AcDbLine
10
15.211946710584881
20
561.0477868423385
30
8.6544893293606472e-12
11
941.21194671058504
21
561.0477868423385
31
1.1510229664924341e-11
0
LINE
5
151
100
AcDbEntity
8
BEND_EXTENT
100
AcDbLine
10
15.211946710584881
20
597.04778684233838
30
8.1198949798179475e-12
11
15.211946710584881
21
561.0477868423385
31
8.6544893293606472e-12
0
LINE
5
152
100
AcDbEntity
8
BEND_EXTENT
100
AcDbLine
10
12.950000000000442
20
0
30
-8.1271409355407342e-13
11
12.950000000000472
21
35.929289321881264
31
3.390824673628198e-13
0
LINE
5
153
100
AcDbEntity
8
BEND_EXTENT
100
AcDbLine
10
12.950000000000472
20
561.11849752045714
30
8.5820482978577646e-12
11
12.950000000000312
21
597.04778684233838
31
8.3127593872544585e-12
0
LINE
5
154
100
AcDbEntity
8
BEND_EXTENT
100
AcDbLine
10
12.950000000000264
20
532.85655080987249
30
8.9758272626605722e-12
11
12.950000000000388
21
558.7151294536352
31
8.5430262486201069e-12
0
LWPOLYLINE
5
155
100
AcDbEntity
8
BEND_EXTENT
100
AcDbPolyline
90
4
70
1
43
0.0
10
15.211946710584881
20
558.78584013175384
10
15.211946710584739
20
532.78584013175396
10
941.21194671058493
20
532.78584013175396
10
941.21194671058504
20
558.78584013175384
0
LINE
5
156
100
AcDbEntity
8
BEND_EXTENT
100
AcDbLine
10
12.950000000000371
20
38.332657388703268
30
2.359959694484581e-13
11
12.950000000000371
21
64.19123603246598
31
1.2242804269281957e-12
0
LINE
5
157
100
AcDbEntity
8
BEND_EXTENT
100
AcDbLine
10
943.47389342116969
20
558.71512945363531
30
1.1412718058175835e-11
11
943.47389342116981
21
532.85655080987249
31
1.18455190722163e-11
0
LINE
5
158
100
AcDbEntity
8
BEND_EXTENT
100
AcDbLine
10
943.47389342116969
20
64.191236032465923
30
4.2005536468479374e-12
11
943.47389342116958
21
38.332657388703318
31
3.2655598945502086e-12
0
ENDSEC
0
SECTION
2
OBJECTS
0
DICTIONARY
5
C
100
AcDbDictionary
3
ACAD_GROUP
350
D
3
ACAD_MLINESTYLE
350
17
0
DICTIONARY
5
D
100
AcDbDictionary
0
DICTIONARY
5
1A
330
C
100
AcDbDictionary
0
DICTIONARY
5
17
100
AcDbDictionary
0
ENDSEC
0
EOF
