0
SECTION
2
HEADER
9
$INSUNITS
70
4
9
$ACADVER
1
AC1014
9
$HANDSEED
5
FFFF
0
ENDSEC
0
SECTION
2
TABLES
0
TABLE
2
VPORT
5
8
100
AcDbSymbolTable
0
ENDTAB
0
TABLE
2
LTYPE
5
5
100
AcDbSymbolTable
0
LTYPE
5
14
100
AcDbSymbolTableRecord
100
AcDbLinetypeTableRecord
2
BYBLOCK
70
0
0
LTYPE
5
15
100
AcDbSymbolTableRecord
100
AcDbLinetypeTableRecord
2
BYLAYER
70
0
0
LTYPE
5
16
100
AcDbSymbolTableRecord
100
AcDbLinetypeTableRecord
2
DASHED
70
0
3
Dashed __ __ __ __ __ __ __ __ __ __ __ __ __ _
72
65
73
2
40
0.75
49
0.5
74
0
49
-0.25
74
0
0
ENDTAB
0
TABLE
2
LAYER
5
2
100
AcDbSymbolTable
70
2
0
LAYER
5
50
100
AcDbSymbolTableRecord
100
AcDbLayerTableRecord
2
0
70
0
62
7
6
CONTINUOUS
0
ENDTAB
0
TABLE
2
STYLE
5
3
100
AcDbSymbolTable
70
1
0
STYLE
5
11
100
AcDbSymbolTableRecord
100
AcDbTextStyleTableRecord
2
STANDARD
70
0
0
ENDTAB
0
TABLE
2
VIEW
5
6
100
AcDbSymbolTable
70
0
0
ENDTAB
0
TABLE
2
UCS
5
7
100
AcDbSymbolTable
70
0
0
ENDTAB
0
TABLE
2
APPID
5
9
100
AcDbSymbolTable
70
2
0
APPID
5
12
100
AcDbSymbolTableRecord
100
AcDbRegAppTableRecord
2
ACAD
70
0
0
ENDTAB
0
TABLE
2
DIMSTYLE
5
A
100
AcDbSymbolTable
70
1
0
ENDTAB
0
TABLE
2
BLOCK_RECORD
5
1
100
AcDbSymbolTable
70
1
0
BLOCK_RECORD
5
1F
100
AcDbSymbolTableRecord
100
AcDbBlockTableRecord
2
*MODEL_SPACE
0
BLOCK_RECORD
5
1B
100
AcDbSymbolTableRecord
100
AcDbBlockTableRecord
2
*PAPER_SPACE
0
ENDTAB
0
ENDSEC
0
SECTION
2
BLOCKS
0
BLOCK
5
20
100
AcDbEntity
100
AcDbBlockBegin
2
*MODEL_SPACE
0
ENDBLK
5
21
100
AcDbEntity
100
AcDbBlockEnd
0
BLOCK
5
1C
100
AcDbEntity
100
AcDbBlockBegin
2
*PAPER_SPACE
0
ENDBLK
5
1D
100
AcDbEntity
100
AcDbBlockEnd
0
ENDSEC
0
SECTION
2
ENTITIES
0
LWPOLYLINE
5
100
100
AcDbEntity
8
OUTER_PROFILES
100
AcDbPolyline
90
32
70
1
43
0.0
10
-1.8380801364774162
20
227.29126287952963
42
0.41421356237309404
10
-0.42386657410432904
20
227.29126287952963
10
4.0707106781199087
20
231.78584013175379
10
568.92928932188261
20
231.78584013175342
10
573.42386657410668
20
227.29126287952923
42
0.41421356237312451
10
574.8380801364799
20
227.29126287952914
10
579.33265738870421
20
231.78584013175364
10
579.33265738870421
20
241.78584013175364
10
589.19123603246692
20
241.78584013175356
10
589.19123603246692
20
227.78584013175356
10
587.19123603246692
20
225.52389342116882
10
574.76736945836137
20
213.10002684706316
42
0.41421356237311713
10
574.76736945836137
20
211.68581328469003
10
587.26194671058556
20
199.19123603246558
10
589.52389342117033
20
197.19123603246547
10
603.52389342117021
20
197.19123603246544
10
603.5238934211701
20
16.261946710584567
10
573.00000000000091
20
16.261946710584638
10
573.00000000000091
20
3.5527136788005009e-14
10
-1.8932661725304283e-27
20
0
10
-8.4376949871511897e-14
20
16.261946710584638
10
-30.523893421169333
20
16.261946710585171
10
-30.523893421168381
20
197.19123603246635
10
-16.523893421168466
20
197.19123603246607
10
-14.261946710583615
20
199.19123603246612
10
-1.7673694583591897
20
211.68581328469048
42
0.41421356237309381
10
-1.7673694583591892
20
213.10002684706359
10
-14.191236032464726
20
225.52389342116922
10
-16.191236032464779
20
227.78584013175393
10
-16.191236032464698
20
241.78584013175418
10
-6.3326573887020752
20
241.78584013175413
10
-6.3326573887020956
20
231.78584013175413
0
CIRCLE
5
101
100
AcDbEntity
8
INTERIOR_PROFILES
100
AcDbCircle
10
-596.52389342116885
20
173.26194671058434
30
0
40
1.7000000000000171
210
0
220
0
230
-1
0
CIRCLE
5
102
100
AcDbEntity
8
INTERIOR_PROFILES
100
AcDbCircle
10
-596.52389342116874
20
77.76194671058434
30
0
40
1.6999999999999993
210
0
220
0
230
-1
0
CIRCLE
5
103
100
AcDbEntity
8
INTERIOR_PROFILES
100
AcDbCircle
10
-596.52389342116874
20
45.761946710584347
30
0
40
1.6999999999999993
210
0
220
0
230
-1
0
CIRCLE
5
104
100
AcDbEntity
8
INTERIOR_PROFILES
100
AcDbCircle
10
-596.52389342116874
20
109.26194671058434
30
0
40
1.6999999999999993
210
0
220
0
230
-1
0
CIRCLE
5
105
100
AcDbEntity
8
INTERIOR_PROFILES
100
AcDbCircle
10
536.49999999999966
20
22.261946710584404
30
0
40
1.699999999999946
210
0
220
0
230
1
0
CIRCLE
5
106
100
AcDbEntity
8
INTERIOR_PROFILES
100
AcDbCircle
10
23.52389342116949
20
77.761946710584851
30
0
40
1.6999999999999993
210
0
220
0
230
-1
0
CIRCLE
5
107
100
AcDbEntity
8
INTERIOR_PROFILES
100
AcDbCircle
10
23.523893421169852
20
45.76194671058488
30
0
40
1.6999999999999993
210
0
220
0
230
-1
0
CIRCLE
5
108
100
AcDbEntity
8
INTERIOR_PROFILES
100
AcDbCircle
10
23.52389342116917
20
109.26194671058485
30
0
40
1.6999999999999993
210
0
220
0
230
-1
0
CIRCLE
5
109
100
AcDbEntity
8
INTERIOR_PROFILES
100
AcDbCircle
10
286.49999999999807
20
22.261946710584652
30
0
40
1.7000000000000171
210
0
220
0
230
1
0
CIRCLE
5
110
100
AcDbEntity
8
INTERIOR_PROFILES
100
AcDbCircle
10
23.523893421168488
20
173.26194671058488
30
0
40
1.7000000000000171
210
0
220
0
230
-1
0
CIRCLE
5
111
100
AcDbEntity
8
INTERIOR_PROFILES
100
AcDbCircle
10
36.500000000000568
20
22.26194671058451
30
0
40
1.6999999999999815
210
0
220
0
230
1
0
CIRCLE
5
112
100
AcDbEntity
8
INTERIOR_PROFILES
100
AcDbCircle
10
-581.26194671058556
20
234.78584013175242
30
0
40
1.7000000000000171
210
0
220
0
230
-1
0
CIRCLE
5
113
100
AcDbEntity
8
INTERIOR_PROFILES
100
AcDbCircle
10
8.2619467105835689
20
234.7858401317541
30
0
40
1.7000000000000004
210
0
220
0
230
-1
0
LINE
5
114
100
AcDbEntity
8
BEND
100
AcDbLine
10
588.19123603246703
20
226.65486677646129
30
1.5552496444367034e-12
11
574.13097335529346
21
226.65486677646129
31
1.6810874754864757e-12
0
LINE
5
115
100
AcDbEntity
8
BEND
100
AcDbLine
10
574.13097335529346
20
226.65486677646129
30
1.6810874754864757e-12
11
-1.1309733552911183
21
226.6548667764614
31
1.6838904500336683e-12
0
LINE
5
116
100
AcDbEntity
8
BEND
100
AcDbLine
10
-1.1309733552911183
20
226.6548667764614
30
1.6838904500336683e-12
11
-15.191236032464634
21
226.65486677646143
31
1.2706282182236039e-12
0
LINE
5
117
100
AcDbEntity
8
BEND
100
AcDbLine
10
574.13097335529346
20
212.39292006587661
30
1.5998786975063147e-12
11
574.13097335529346
21
226.99836966071575
31
1.6724127635350898e-12
0
LINE
5
118
100
AcDbEntity
8
BEND
100
AcDbLine
10
574.13097335529346
20
16.261946710584603
30
-1.9083999870060338e-14
11
574.13097335529346
21
212.39292006587661
31
1.5998786975063147e-12
0
LINE
5
119
100
AcDbEntity
8
BEND
100
AcDbLine
10
-1.1309733552911152
20
226.99836966071601
30
1.7161100618199461e-12
11
-1.1309733552910897
21
212.39292006587698
31
1.5998786975063177e-12
0
LINE
5
120
100
AcDbEntity
8
BEND
100
AcDbLine
10
-1.1309733552910897
20
212.39292006587698
30
1.5998786975063177e-12
11
-1.1309733552924035
21
16.261946710584674
31
-4.0455793094093592e-14
0
LINE
5
121
100
AcDbEntity
8
BEND
100
AcDbLine
10
588.39292006587789
20
16.261946710584567
30
-4.5325439632592497e-13
11
588.392920065878
21
198.19123603246553
31
1.1268599955169431e-12
0
LINE
5
122
100
AcDbEntity
8
BEND
100
AcDbLine
10
-15.392920065876012
20
198.19123603246609
30
1.2166745396436261e-12
11
-15.392920065877046
21
16.261946710584709
31
-3.6598743247560426e-13
0
LINE
5
123
100
AcDbEntity
8
BEND
100
AcDbLine
10
-7.8249026696408231e-14
20
15.130973355292276
30
-6.4151618138530976e-14
11
573.00000000000091
21
15.130973355292276
31
-6.4151618138530976e-14
0
LINE
5
124
100
AcDbEntity
8
BEND
100
AcDbLine
10
574.47447623954781
20
212.39292006587661
30
1.6142519113085249e-12
11
-1.4744762395456945
21
212.39292006587698
31
1.6281678199430264e-12
0
LINE
5
125
100
AcDbEntity
8
BEND_EXTENT
100
AcDbLine
10
-16.523893421169454
20
16.26194671058478
30
-3.8018403862939074e-13
11
-16.523893421168466
21
197.19123603246607
31
1.2015810477382245e-12
0
LINE
5
126
100
AcDbEntity
8
BEND_EXTENT
100
AcDbLine
10
-14.261946710583615
20
199.19123603246612
30
1.271743028332375e-12
11
-14.261946710584654
21
16.261946710584745
31
-2.713821822161254e-13
0
LINE
5
127
100
AcDbEntity
8
BEND_EXTENT
100
AcDbLine
10
589.52389342117033
20
197.19123603246547
30
1.0794565150294522e-12
11
589.52389342117021
21
16.261946710584567
31
-4.8232455689490665e-13
0
LINE
5
128
100
AcDbEntity
8
BEND_EXTENT
100
AcDbLine
10
587.26194671058545
20
16.261946710584603
30
-3.0690931900413192e-13
11
587.26194671058556
21
199.19123603246558
31
1.2362158915443653e-12
0
LINE
5
129
100
AcDbEntity
8
BEND_EXTENT
100
AcDbLine
10
0.070710678119790094
20
227.78584013175384
30
1.6928128788517847e-12
11
572.92928932188249
21
227.78584013175347
31
1.6839310946547804e-12
0
LWPOLYLINE
5
130
100
AcDbEntity
8
BEND_EXTENT
100
AcDbPolyline
90
4
70
1
43
0.0
10
573.00000000000102
20
225.52389342116885
10
1.2789769243681803e-12
20
225.52389342116922
10
1.0299448324783783e-12
20
213.52389342116925
10
573.00000000000114
20
213.52389342116891
0
LINE
5
131
100
AcDbEntity
8
BEND_EXTENT
100
AcDbLine
10
575.33265738870432
20
227.78584013175359
30
1.5706883461430156e-12
11
589.19123603246692
21
227.78584013175356
31
1.4752091660252516e-12
0
LINE
5
132
100
AcDbEntity
8
BEND_EXTENT
100
AcDbLine
10
587.19123603246692
20
225.52389342116882
30
1.6359843330535946e-12
11
575.26194671058579
21
225.52389342116885
31
1.6715114698415996e-12
0
LINE
5
133
100
AcDbEntity
8
BEND_EXTENT
100
AcDbLine
10
575.26194671058579
20
225.52389342116885
30
1.6715114698415996e-12
11
575.26194671058579
21
213.59460409928758
31
1.6419345806073135e-12
0
LINE
5
134
100
AcDbEntity
8
BEND_EXTENT
100
AcDbLine
10
-16.191236032464779
20
227.78584013175393
30
1.1843307335734638e-12
11
-2.3326573887020974
21
227.78584013175387
31
1.6750493104577826e-12
0
LINE
5
135
100
AcDbEntity
8
BEND_EXTENT
100
AcDbLine
10
-2.2619467105834481
20
225.52389342116922
30
1.6715114698416026e-12
11
-14.191236032464726
21
225.52389342116922
31
1.1741315548095327e-12
0
LINE
5
136
100
AcDbEntity
8
BEND_EXTENT
100
AcDbLine
10
-2.2619467105835152
20
213.59460409928795
30
1.6064074438193113e-12
11
-2.2619467105834481
21
225.52389342116922
31
1.6715114698416026e-12
0
LINE
5
137
100
AcDbEntity
8
BEND_EXTENT
100
AcDbLine
10
-2.2619467105847497
20
16.261946710584638
30
-5.8219361488096602e-14
11
-2.2619467105836617
21
211.19123603246589
31
1.6216606383212645e-12
0
LINE
5
138
100
AcDbEntity
8
BEND_EXTENT
100
AcDbLine
10
575.26194671058568
20
211.19123603246567
30
1.6216606383212627e-12
11
575.26194671058556
21
16.261946710584567
31
-2.2692224700092097e-14
0
LWPOLYLINE
5
139
100
AcDbEntity
8
BEND_EXTENT
100
AcDbPolyline
90
4
70
1
43
0.0
10
573.00000000000091
20
16.261946710584638
10
573.00000000000114
20
211.26194671058425
10
9.9475983006414026e-13
20
211.26194671058457
10
-8.5666538510471621e-14
20
16.261946710584638
0
LINE
5
140
100
AcDbEntity
8
BEND_EXTENT
100
AcDbLine
10
573.00000000000091
20
14.000000000000021
30
-7.730032444902811e-14
11
-7.1054273576010019e-14
21
13.999999999999986
31
-7.7300324449028363e-14
0
ENDSEC
0
SECTION
2
OBJECTS
0
DICTIONARY
5
C
100
AcDbDictionary
3
ACAD_GROUP
350
D
3
ACAD_MLINESTYLE
350
17
0
DICTIONARY
5
D
100
AcDbDictionary
0
DICTIONARY
5
1A
330
C
100
AcDbDictionary
0
DICTIONARY
5
17
100
AcDbDictionary
0
ENDSEC
0
EOF
