0
SECTION
2
HEADER
9
$INSUNITS
70
4
9
$ACADVER
1
AC1014
9
$HANDSEED
5
FFFF
0
ENDSEC
0
SECTION
2
TABLES
0
TABLE
2
VPORT
5
8
100
AcDbSymbolTable
0
ENDTAB
0
TABLE
2
LTYPE
5
5
100
AcDbSymbolTable
0
LTYPE
5
14
100
AcDbSymbolTableRecord
100
AcDbLinetypeTableRecord
2
BYBLOCK
70
0
0
LTYPE
5
15
100
AcDbSymbolTableRecord
100
AcDbLinetypeTableRecord
2
BYLAYER
70
0
0
LTYPE
5
16
100
AcDbSymbolTableRecord
100
AcDbLinetypeTableRecord
2
DASHED
70
0
3
Dashed __ __ __ __ __ __ __ __ __ __ __ __ __ _
72
65
73
2
40
0.75
49
0.5
74
0
49
-0.25
74
0
0
ENDTAB
0
TABLE
2
LAYER
5
2
100
AcDbSymbolTable
70
2
0
LAYER
5
50
100
AcDbSymbolTableRecord
100
AcDbLayerTableRecord
2
0
70
0
62
7
6
CONTINUOUS
0
ENDTAB
0
TABLE
2
STYLE
5
3
100
AcDbSymbolTable
70
1
0
STYLE
5
11
100
AcDbSymbolTableRecord
100
AcDbTextStyleTableRecord
2
STANDARD
70
0
0
ENDTAB
0
TABLE
2
VIEW
5
6
100
AcDbSymbolTable
70
0
0
ENDTAB
0
TABLE
2
UCS
5
7
100
AcDbSymbolTable
70
0
0
ENDTAB
0
TABLE
2
APPID
5
9
100
AcDbSymbolTable
70
2
0
APPID
5
12
100
AcDbSymbolTableRecord
100
AcDbRegAppTableRecord
2
ACAD
70
0
0
ENDTAB
0
TABLE
2
DIMSTYLE
5
A
100
AcDbSymbolTable
70
1
0
ENDTAB
0
TABLE
2
BLOCK_RECORD
5
1
100
AcDbSymbolTable
70
1
0
BLOCK_RECORD
5
1F
100
AcDbSymbolTableRecord
100
AcDbBlockTableRecord
2
*MODEL_SPACE
0
BLOCK_RECORD
5
1B
100
AcDbSymbolTableRecord
100
AcDbBlockTableRecord
2
*PAPER_SPACE
0
ENDTAB
0
ENDSEC
0
SECTION
2
BLOCKS
0
BLOCK
5
20
100
AcDbEntity
100
AcDbBlockBegin
2
*MODEL_SPACE
0
ENDBLK
5
21
100
AcDbEntity
100
AcDbBlockEnd
0
BLOCK
5
1C
100
AcDbEntity
100
AcDbBlockBegin
2
*PAPER_SPACE
0
ENDBLK
5
1D
100
AcDbEntity
100
AcDbBlockEnd
0
ENDSEC
0
SECTION
2
ENTITIES
0
LINE
5
100
100
AcDbEntity
8
OUTER_PROFILES
100
AcDbLine
10
347.99999999962489
20
122.78584013501987
30
0
11
643.99999999962472
21
122.78584013533874
31
0
0
ARC
5
101
100
AcDbEntity
8
OUTER_PROFILES
100
AcDbCircle
10
-643.99999999962688
20
120.78584013533876
30
0
40
1.9999999999999929
210
0
220
0
230
-1
100
AcDbArc
50
89.999999999938126
51
180
0
LINE
5
102
100
AcDbEntity
8
OUTER_PROFILES
100
AcDbLine
10
645.99999999962688
20
120.78584013534086
30
0
11
645.99999999966019
21
88.023893420120473
31
0
0
LINE
5
103
100
AcDbEntity
8
OUTER_PROFILES
100
AcDbLine
10
645.99999999966019
20
88.023893420120473
30
0
11
646.99999999966008
21
88.0238934201207
31
0
0
LINE
5
104
100
AcDbEntity
8
OUTER_PROFILES
100
AcDbLine
10
646.99999999966008
20
88.0238934201207
30
0
11
646.99999999965212
21
121.04778684129016
31
0
0
ARC
5
105
100
AcDbEntity
8
OUTER_PROFILES
100
AcDbCircle
10
-648.99999999965212
20
121.04778684129066
30
0
40
2.0000000000000284
210
-0
220
0
230
-1
100
AcDbArc
50
0
51
89.999999999986969
0
LINE
5
106
100
AcDbEntity
8
OUTER_PROFILES
100
AcDbLine
10
648.99999999965166
20
123.04778684129064
30
0
11
991.99999999966008
21
123.04778684137082
31
0
0
ARC
5
107
100
AcDbEntity
8
OUTER_PROFILES
100
AcDbCircle
10
-991.99999999966064
20
121.04778684137082
30
0
40
1.9999999999999929
210
0
220
0
230
-1
100
AcDbArc
50
89.999999999983714
51
180
0
LINE
5
108
100
AcDbEntity
8
OUTER_PROFILES
100
AcDbLine
10
993.99999999966076
20
121.04778684137125
30
0
11
993.99999999966371
21
109.047648168046
31
0
0
ARC
5
109
100
AcDbEntity
8
OUTER_PROFILES
100
AcDbCircle
10
-991.4554999996393
20
109.04764816804547
30
0
40
2.5445000000243567
210
0
220
0
230
-1
100
AcDbArc
50
180
51
257.3732890389112
0
ELLIPSE
5
110
100
AcDbEntity
8
OUTER_PROFILES
100
AcDbEllipse
10
993.99999999966803
20
90.785840130786184
30
0
11
-3.6886867992428845e-12
21
16
31
0.0
40
0.75000000000000011
41
0.16645738089322482
42
1.5707963267948966
0
LINE
5
111
100
AcDbEntity
8
OUTER_PROFILES
100
AcDbLine
10
981.99999999966803
20
90.785840130783413
30
0
11
981.99999999973011
21
32.261946710586287
31
0
0
ELLIPSE
5
112
100
AcDbEntity
8
OUTER_PROFILES
100
AcDbEllipse
10
993.99999999973022
20
32.261946710586244
30
0
11
4.9883410323944421e-14
21
-16
31
0.0
40
0.75000000000000011
41
4.7123889803846843
42
6.1167279263078749
0
ARC
5
113
100
AcDbEntity
8
OUTER_PROFILES
100
AcDbCircle
10
-991.45550000003084
20
14.000138673253648
30
0
40
2.5444999999999367
210
0
220
0
230
-1
100
AcDbArc
50
102.62671095945215
51
180
0
LINE
5
114
100
AcDbEntity
8
OUTER_PROFILES
100
AcDbLine
10
994.0000000000307
20
14.000138673255423
30
0
11
993.99999999999932
21
1.9999999999999751
31
0
0
ARC
5
115
100
AcDbEntity
8
OUTER_PROFILES
100
AcDbCircle
10
-991.9999999999992
20
1.9999999999999751
30
0
40
2.0000000000001705
210
0
220
0
230
-1
100
AcDbArc
50
180
51
270.00000000000324
0
LINE
5
116
100
AcDbEntity
8
OUTER_PROFILES
100
AcDbLine
10
991.99999999999909
20
-2.4980018054066022e-14
30
0
11
0
21
1.0547118733938987e-14
31
0
0
ARC
5
117
100
AcDbEntity
8
OUTER_PROFILES
100
AcDbCircle
10
-4.7739590058881731e-14
20
2.0000000000000107
30
0
40
2
210
-0
220
0
230
-1
100
AcDbArc
50
270.00000000000136
51
360
0
LINE
5
118
100
AcDbEntity
8
OUTER_PROFILES
100
AcDbLine
10
-1.9999999999999525
20
2.0000000000000058
30
0
11
-1.9999999999997631
21
14.000138673391893
31
0
0
ARC
5
119
100
AcDbEntity
8
OUTER_PROFILES
100
AcDbCircle
10
-0.5445000000313438
20
14.000138673392071
30
0
40
2.5445000000311069
210
-0
220
0
230
-1
100
AcDbArc
50
0
51
77.373289037472503
0
ELLIPSE
5
120
100
AcDbEntity
8
OUTER_PROFILES
100
AcDbEllipse
10
-2.0000000002862448
20
32.26194671058623
30
0
11
-4.9976430816650573e-14
21
-16
31
0.0
40
0.75000000000000011
41
0.16645738091266793
42
1.5707963267948992
0
LINE
5
121
100
AcDbEntity
8
OUTER_PROFILES
100
AcDbLine
10
9.9999999997137561
20
32.261946710586244
30
0
11
9.9999999996510684
21
90.785840130556622
31
0
0
ELLIPSE
5
122
100
AcDbEntity
8
OUTER_PROFILES
100
AcDbEllipse
10
-2.0000000003489324
20
90.785840130553837
30
0
11
-3.7885466403834811e-12
21
16
31
0.0
40
0.75000000000000011
41
4.7123889803846861
42
6.1167279262896175
0
ARC
5
123
100
AcDbEntity
8
OUTER_PROFILES
100
AcDbCircle
10
-0.54449999962221329
20
109.04764816782524
30
0
40
2.5444999999999829
210
-0
220
0
230
-1
100
AcDbArc
50
282.62671096081709
51
360
0
LINE
5
124
100
AcDbEntity
8
OUTER_PROFILES
100
AcDbLine
10
-2.0000000003777876
20
109.04764816782364
30
0
11
-2.0000000003563088
21
121.0477868411391
31
0
0
ARC
5
125
100
AcDbEntity
8
OUTER_PROFILES
100
AcDbCircle
10
3.5635161488301037e-10
20
121.04778684113955
30
0
40
1.9999999999999574
210
-0
220
0
230
-1
100
AcDbArc
50
0
51
89.999999999985249
0
LINE
5
126
100
AcDbEntity
8
OUTER_PROFILES
100
AcDbLine
10
-3.5686643674190653e-10
20
123.04778684113955
30
0
11
342.99999999965172
21
123.0477868412197
31
0
0
ARC
5
127
100
AcDbEntity
8
OUTER_PROFILES
100
AcDbCircle
10
-342.99999999965223
20
121.0477868412197
30
0
40
1.9999999999999929
210
0
220
0
230
-1
100
AcDbArc
50
89.999999999985349
51
180
0
LINE
5
128
100
AcDbEntity
8
OUTER_PROFILES
100
AcDbLine
10
344.99999999965223
20
121.04778684122022
30
0
11
344.99999999966019
21
88.023893420050129
31
0
0
LINE
5
129
100
AcDbEntity
8
OUTER_PROFILES
100
AcDbLine
10
344.99999999966019
20
88.023893420050129
30
0
11
345.99999999966019
21
88.023893420050356
31
0
0
LINE
5
130
100
AcDbEntity
8
OUTER_PROFILES
100
AcDbLine
10
345.99999999966019
20
88.023893420050356
30
0
11
345.99999999962699
21
120.78584013501774
31
0
0
ARC
5
131
100
AcDbEntity
8
OUTER_PROFILES
100
AcDbCircle
10
-347.99999999962699
20
120.78584013501988
30
0
40
2.0000000000000284
210
-0
220
0
230
-1
100
AcDbArc
50
0
51
89.999999999939746
0
CIRCLE
5
132
100
AcDbEntity
8
INTERIOR_PROFILES
100
AcDbCircle
10
-4.9999999997080034
20
2.9999999971061619
30
0
40
1.6999999999999997
210
0
220
0
230
-1
0
CIRCLE
5
133
100
AcDbEntity
8
INTERIOR_PROFILES
100
AcDbCircle
10
-986.99999999970817
20
2.9999999960482526
30
0
40
1.7000000000000171
210
0
220
0
230
-1
0
CIRCLE
5
134
100
AcDbEntity
8
INTERIOR_PROFILES
100
AcDbCircle
10
-4.9999999996632711
20
120.04778683704536
30
0
40
1.6999999999999997
210
0
220
0
230
-1
0
CIRCLE
5
135
100
AcDbEntity
8
INTERIOR_PROFILES
100
AcDbCircle
10
-718.62749999969083
20
61.523893424834512
30
0
40
1.7000000000000171
210
0
220
0
230
-1
0
CIRCLE
5
136
100
AcDbEntity
8
INTERIOR_PROFILES
100
AcDbCircle
10
-684.68624999966983
20
81.119883248930321
30
0
40
1.7000000000000171
210
0
220
0
230
-1
0
CIRCLE
5
137
100
AcDbEntity
8
INTERIOR_PROFILES
100
AcDbCircle
10
-707.31374999971183
20
41.927903600689945
30
0
40
1.7000000000000171
210
0
220
0
230
-1
0
CIRCLE
5
138
100
AcDbEntity
8
INTERIOR_PROFILES
100
AcDbCircle
10
-695.9999999997151
20
38.896393424810142
30
0
40
1.7000000000000171
210
0
220
0
230
-1
0
CIRCLE
5
139
100
AcDbEntity
8
INTERIOR_PROFILES
100
AcDbCircle
10
-273.37249999969072
20
61.523893424354853
30
0
40
1.7000000000000171
210
0
220
0
230
-1
0
CIRCLE
5
140
100
AcDbEntity
8
INTERIOR_PROFILES
100
AcDbCircle
10
-295.99999999971516
20
38.896393424379241
30
0
40
1.7000000000000171
210
0
220
0
230
-1
0
CIRCLE
5
141
100
AcDbEntity
8
INTERIOR_PROFILES
100
AcDbCircle
10
-695.99999999966644
20
84.151393424810138
30
0
40
1.7000000000000171
210
0
220
0
230
-1
0
CIRCLE
5
142
100
AcDbEntity
8
INTERIOR_PROFILES
100
AcDbCircle
10
-684.68624999971189
20
41.927903600665545
30
0
40
1.7000000000000171
210
0
220
0
230
-1
0
CIRCLE
5
143
100
AcDbEntity
8
INTERIOR_PROFILES
100
AcDbCircle
10
-295.99999999966644
20
84.151393424379236
30
0
40
1.7000000000000171
210
0
220
0
230
-1
0
CIRCLE
5
144
100
AcDbEntity
8
INTERIOR_PROFILES
100
AcDbCircle
10
-307.31374999971189
20
41.927903600259043
30
0
40
1.7000000000000171
210
0
220
0
230
-1
0
CIRCLE
5
145
100
AcDbEntity
8
INTERIOR_PROFILES
100
AcDbCircle
10
-307.31374999966971
20
81.11988324852382
30
0
40
1.7000000000000171
210
0
220
0
230
-1
0
CIRCLE
5
146
100
AcDbEntity
8
INTERIOR_PROFILES
100
AcDbCircle
10
-673.37249999969072
20
61.523893424785747
30
0
40
1.7000000000000171
210
0
220
0
230
-1
0
CIRCLE
5
147
100
AcDbEntity
8
INTERIOR_PROFILES
100
AcDbCircle
10
-284.68624999966971
20
81.119883248499406
30
0
40
1.7000000000000171
210
0
220
0
230
-1
0
CIRCLE
5
148
100
AcDbEntity
8
INTERIOR_PROFILES
100
AcDbCircle
10
-318.62749999969077
20
61.52389342440361
30
0
40
1.7000000000000171
210
0
220
0
230
-1
0
CIRCLE
5
149
100
AcDbEntity
8
INTERIOR_PROFILES
100
AcDbCircle
10
-284.68624999971183
20
41.927903600234643
30
0
40
1.7000000000000171
210
0
220
0
230
-1
0
CIRCLE
5
150
100
AcDbEntity
8
INTERIOR_PROFILES
100
AcDbCircle
10
-707.31374999966965
20
81.119883248954721
30
0
40
1.7000000000000171
210
0
220
0
230
-1
0
CIRCLE
5
151
100
AcDbEntity
8
INTERIOR_PROFILES
100
AcDbCircle
10
-951.99999999966622
20
84.151393425085899
30
0
40
1.7000000000000171
210
0
220
0
230
-1
0
CIRCLE
5
152
100
AcDbEntity
8
INTERIOR_PROFILES
100
AcDbCircle
10
-28.686249999711983
20
41.927903599958881
30
0
40
1.6999999999999993
210
0
220
0
230
-1
0
CIRCLE
5
153
100
AcDbEntity
8
INTERIOR_PROFILES
100
AcDbCircle
10
-951.99999999971521
20
38.896393425085918
30
0
40
1.7000000000000171
210
0
220
0
230
-1
0
CIRCLE
5
154
100
AcDbEntity
8
INTERIOR_PROFILES
100
AcDbCircle
10
-963.31374999966965
20
81.119883249230483
30
0
40
1.7000000000000171
210
0
220
0
230
-1
0
CIRCLE
5
155
100
AcDbEntity
8
INTERIOR_PROFILES
100
AcDbCircle
10
-963.31374999971194
20
41.92790360096572
30
0
40
1.7000000000000171
210
0
220
0
230
-1
0
CIRCLE
5
156
100
AcDbEntity
8
INTERIOR_PROFILES
100
AcDbCircle
10
-39.999999999715158
20
38.896393424103472
30
0
40
1.6999999999999993
210
0
220
0
230
-1
0
CIRCLE
5
157
100
AcDbEntity
8
INTERIOR_PROFILES
100
AcDbCircle
10
-70.999999999722036
20
26.261946710586244
30
0
40
1.7000000000000171
210
0
220
0
230
-1
0
CIRCLE
5
158
100
AcDbEntity
8
INTERIOR_PROFILES
100
AcDbCircle
10
-70.999999999658002
20
96.78584013057089
30
0
40
1.7000000000000171
210
0
220
0
230
-1
0
CIRCLE
5
159
100
AcDbEntity
8
INTERIOR_PROFILES
100
AcDbCircle
10
-920.99999999965803
20
96.785840130769145
30
0
40
1.7000000000000171
210
0
220
0
230
-1
0
CIRCLE
5
160
100
AcDbEntity
8
INTERIOR_PROFILES
100
AcDbCircle
10
-495.99999999972198
20
26.261946710586244
30
0
40
1.7000000000000171
210
0
220
0
230
-1
0
CIRCLE
5
161
100
AcDbEntity
8
INTERIOR_PROFILES
100
AcDbCircle
10
-570.99999999972204
20
26.261946710586237
30
0
40
1.7000000000000171
210
0
220
0
230
-1
0
CIRCLE
5
162
100
AcDbEntity
8
INTERIOR_PROFILES
100
AcDbCircle
10
-920.99999999972192
20
26.261946710586237
30
0
40
1.7000000000000171
210
0
220
0
230
-1
0
CIRCLE
5
163
100
AcDbEntity
8
INTERIOR_PROFILES
100
AcDbCircle
10
-420.99999999972204
20
26.261946710586237
30
0
40
1.7000000000000171
210
0
220
0
230
-1
0
CIRCLE
5
164
100
AcDbEntity
8
INTERIOR_PROFILES
100
AcDbCircle
10
-986.99999999966337
20
120.04778683644588
30
0
40
1.7000000000000171
210
0
220
0
230
-1
0
CIRCLE
5
165
100
AcDbEntity
8
INTERIOR_PROFILES
100
AcDbCircle
10
-51.313749999711817
20
41.92790359998326
30
0
40
1.6999999999999993
210
0
220
0
230
-1
0
CIRCLE
5
166
100
AcDbEntity
8
INTERIOR_PROFILES
100
AcDbCircle
10
-62.627499999690684
20
61.523893424127834
30
0
40
1.6999999999999993
210
0
220
0
230
-1
0
CIRCLE
5
167
100
AcDbEntity
8
INTERIOR_PROFILES
100
AcDbCircle
10
-17.372499999690749
20
61.523893424079077
30
0
40
1.6999999999999993
210
0
220
0
230
-1
0
CIRCLE
5
168
100
AcDbEntity
8
INTERIOR_PROFILES
100
AcDbCircle
10
-974.62749999969094
20
61.523893425110288
30
0
40
1.7000000000000171
210
0
220
0
230
-1
0
CIRCLE
5
169
100
AcDbEntity
8
INTERIOR_PROFILES
100
AcDbCircle
10
-940.6862499996696
20
81.119883249206097
30
0
40
1.7000000000000171
210
0
220
0
230
-1
0
CIRCLE
5
170
100
AcDbEntity
8
INTERIOR_PROFILES
100
AcDbCircle
10
-28.686249999669549
20
81.119883248223644
30
0
40
1.6999999999999993
210
0
220
0
230
-1
0
CIRCLE
5
171
100
AcDbEntity
8
INTERIOR_PROFILES
100
AcDbCircle
10
-929.37249999969083
20
61.52389342506153
30
0
40
1.7000000000000171
210
0
220
0
230
-1
0
CIRCLE
5
172
100
AcDbEntity
8
INTERIOR_PROFILES
100
AcDbCircle
10
-51.313749999669518
20
81.119883248248044
30
0
40
1.6999999999999993
210
0
220
0
230
-1
0
CIRCLE
5
173
100
AcDbEntity
8
INTERIOR_PROFILES
100
AcDbCircle
10
-940.68624999971178
20
41.927903600941328
30
0
40
1.7000000000000171
210
0
220
0
230
-1
0
CIRCLE
5
174
100
AcDbEntity
8
INTERIOR_PROFILES
100
AcDbCircle
10
-39.999999999666343
20
84.151393424103446
30
0
40
1.7000000000000037
210
0
220
0
230
-1
0
CIRCLE
5
175
100
AcDbEntity
8
INTERIOR_PROFILES
100
AcDbCircle
10
-39.999999999690715
20
61.523893424103456
30
0
40
1.6999999999999993
210
0
220
0
230
-1
0
LINE
5
176
100
AcDbEntity
8
BEND
100
AcDbLine
10
993.73490631972743
20
107.91681348607868
30
4.1736589254717797e-10
11
646.9999999996553
21
107.91681348599766
31
-3.4771175157323587e-13
0
LINE
5
177
100
AcDbEntity
8
BEND
100
AcDbLine
10
-1.7349063200920323
20
15.130973355293103
30
5.3352489425287126e-10
11
993.73490632008543
21
15.13097335529312
31
-5.3397087099767713e-10
0
LINE
5
178
100
AcDbEntity
8
BEND
100
AcDbLine
10
645.99999999962824
20
119.65486678004859
30
-2.6912324733895146e-13
11
345.99999999962819
21
119.65486677972542
31
-2.6387695190727608e-13
0
LINE
5
179
100
AcDbEntity
8
BEND
100
AcDbLine
10
981.99999999969225
20
89.654866775491215
30
-2.8657829183437572e-13
11
646.99999999965962
21
89.654866775412941
31
-2.7292295266070752e-13
0
LINE
5
180
100
AcDbEntity
8
BEND
100
AcDbLine
10
9.9999999996823572
20
33.392920065878627
30
-2.2545674145309682e-13
11
981.9999999997026
21
33.392920065878627
31
-2.5776088522734834e-13
0
LINE
5
181
100
AcDbEntity
8
BEND
100
AcDbLine
10
344.99999999965939
20
89.654866775342512
30
-2.4330944869716982e-13
11
9.9999999996730793
21
89.654866775264253
31
-2.4768588280925219e-13
0
LINE
5
182
100
AcDbEntity
8
BEND
100
AcDbLine
10
344.9999999996553
20
107.91681348592755
30
-2.3719207085084918e-13
11
-1.7349063204621018
21
107.91681348584653
31
-4.1816451088567356e-10
0
LINE
5
183
100
AcDbEntity
8
BEND_EXTENT
100
AcDbLine
10
992.62113487068109
20
106.78584013078589
30
-3.5516590981974019e-13
11
646.99999999965576
21
106.78584013070511
31
-3.3549691360616799e-13
0
LINE
5
184
100
AcDbEntity
8
BEND_EXTENT
100
AcDbLine
10
646.99999999965951
20
90.785840130705125
30
-2.6888353212865875e-13
11
981.99999999966792
21
90.785840130783427
31
4.918976774319958e-09
0
LINE
5
185
100
AcDbEntity
8
BEND_EXTENT
100
AcDbLine
10
646.99999999965496
20
109.0477868412902
30
-3.4437869780316925e-13
11
993.99999999966371
21
109.04778684137129
31
-3.729725140960655e-13
0
LINE
5
186
100
AcDbEntity
8
BEND_EXTENT
100
AcDbLine
10
344.99999999965559
20
106.78584013063488
30
-2.1060797015331934e-13
11
-0.62113487139690449
21
106.78584013055413
31
-2.1314343443224942e-13
0
LINE
5
187
100
AcDbEntity
8
BEND_EXTENT
100
AcDbLine
10
-2.0000000003535421
20
109.04778684113909
30
-2.3530485904243058e-13
11
344.99999999965507
21
109.0477868412202
31
-2.3725332274432307e-13
0
LINE
5
188
100
AcDbEntity
8
BEND_EXTENT
100
AcDbLine
10
9.9999999997113473
20
34.52389342117101
30
-2.490020684064737e-13
11
981.99999999972817
21
34.523893421171003
31
-2.7933924695897369e-13
0
LINE
5
189
100
AcDbEntity
8
BEND_EXTENT
100
AcDbLine
10
981.99999999967008
20
88.523893420198974
30
-2.7933924695897188e-13
11
646.99999999965996
21
88.523893420120714
31
-2.644426400301342e-13
0
LINE
5
190
100
AcDbEntity
8
BEND_EXTENT
100
AcDbLine
10
645.99999999962938
20
118.52389342475625
30
-2.6441142894108748e-13
11
345.99999999962938
21
118.5238934244331
31
-2.5504810222735305e-13
0
LINE
5
191
100
AcDbEntity
8
BEND_EXTENT
100
AcDbLine
10
344.99999999965996
20
88.523893420050129
30
-2.5501689113830826e-13
11
9.999999999653113
21
88.523893419971841
31
-2.4456117630797131e-13
0
LINE
5
192
100
AcDbEntity
8
BEND_EXTENT
100
AcDbLine
10
981.99999999973033
20
32.261946710586201
30
-3.9474819040493687e-09
11
9.9999999997137934
21
32.261946710586244
31
-2.9003691461021419e-09
0
LINE
5
193
100
AcDbEntity
8
BEND_EXTENT
100
AcDbLine
10
-0.62113487113702681
20
16.261946710586273
30
-1.2876648456074565e-13
11
992.62113487093052
21
16.261946710586265
31
-1.5088487328871916e-13
0
LINE
5
194
100
AcDbEntity
8
BEND_EXTENT
100
AcDbLine
10
993.9999999999992
20
13.999999999999986
30
-1.1984166448154031e-13
11
-2.0000000000000284
21
14.000000000000012
31
-1.2872344867842655e-13
0
LINE
5
195
100
AcDbEntity
8
BEND_EXTENT
100
AcDbLine
10
345.99999999962699
20
120.78584013501771
30
-2.6392988642437178e-13
11
645.99999999962688
21
120.78584013534089
31
-2.5552964474411006e-13
0
LINE
5
196
100
AcDbEntity
8
BEND_EXTENT
100
AcDbLine
10
9.9999999996510951
20
90.785840130556622
30
4.0990496762155516e-09
11
344.99999999965905
21
90.785840130634895
31
-2.4613510694134508e-13
0
ENDSEC
0
SECTION
2
OBJECTS
0
DICTIONARY
5
C
100
AcDbDictionary
3
ACAD_GROUP
350
D
3
ACAD_MLINESTYLE
350
17
0
DICTIONARY
5
D
100
AcDbDictionary
0
DICTIONARY
5
1A
330
C
100
AcDbDictionary
0
DICTIONARY
5
17
100
AcDbDictionary
0
ENDSEC
0
EOF
