0
SECTION
2
HEADER
9
$INSUNITS
70
4
9
$ACADVER
1
AC1014
9
$HANDSEED
5
FFFF
0
ENDSEC
0
SECTION
2
TABLES
0
TABLE
2
VPORT
5
8
100
AcDbSymbolTable
0
ENDTAB
0
TABLE
2
LTYPE
5
5
100
AcDbSymbolTable
0
LTYPE
5
14
100
AcDbSymbolTableRecord
100
AcDbLinetypeTableRecord
2
BYBLOCK
70
0
0
LTYPE
5
15
100
AcDbSymbolTableRecord
100
AcDbLinetypeTableRecord
2
BYLAYER
70
0
0
LTYPE
5
16
100
AcDbSymbolTableRecord
100
AcDbLinetypeTableRecord
2
DASHED
70
0
3
Dashed __ __ __ __ __ __ __ __ __ __ __ __ __ _
72
65
73
2
40
0.75
49
0.5
74
0
49
-0.25
74
0
0
ENDTAB
0
TABLE
2
LAYER
5
2
100
AcDbSymbolTable
70
2
0
LAYER
5
50
100
AcDbSymbolTableRecord
100
AcDbLayerTableRecord
2
0
70
0
62
7
6
CONTINUOUS
0
ENDTAB
0
TABLE
2
STYLE
5
3
100
AcDbSymbolTable
70
1
0
STYLE
5
11
100
AcDbSymbolTableRecord
100
AcDbTextStyleTableRecord
2
STANDARD
70
0
0
ENDTAB
0
TABLE
2
VIEW
5
6
100
AcDbSymbolTable
70
0
0
ENDTAB
0
TABLE
2
UCS
5
7
100
AcDbSymbolTable
70
0
0
ENDTAB
0
TABLE
2
APPID
5
9
100
AcDbSymbolTable
70
2
0
APPID
5
12
100
AcDbSymbolTableRecord
100
AcDbRegAppTableRecord
2
ACAD
70
0
0
ENDTAB
0
TABLE
2
DIMSTYLE
5
A
100
AcDbSymbolTable
70
1
0
ENDTAB
0
TABLE
2
BLOCK_RECORD
5
1
100
AcDbSymbolTable
70
1
0
BLOCK_RECORD
5
1F
100
AcDbSymbolTableRecord
100
AcDbBlockTableRecord
2
*MODEL_SPACE
0
BLOCK_RECORD
5
1B
100
AcDbSymbolTableRecord
100
AcDbBlockTableRecord
2
*PAPER_SPACE
0
ENDTAB
0
ENDSEC
0
SECTION
2
BLOCKS
0
BLOCK
5
20
100
AcDbEntity
100
AcDbBlockBegin
2
*MODEL_SPACE
0
ENDBLK
5
21
100
AcDbEntity
100
AcDbBlockEnd
0
BLOCK
5
1C
100
AcDbEntity
100
AcDbBlockBegin
2
*PAPER_SPACE
0
ENDBLK
5
1D
100
AcDbEntity
100
AcDbBlockEnd
0
ENDSEC
0
SECTION
2
ENTITIES
0
LINE
5
100
100
AcDbEntity
8
OUTER_PROFILES
100
AcDbLine
10
770.85857864376203
20
6.6613381477509392e-14
30
0
11
770.85857864376248
21
16.999999999999119
31
0
0
SPLINE
5
101
100
AcDbEntity
8
OUTER_PROFILES
100
AcDbSpline
70
0
71
3
72
182
73
178
74
0
42
0.000000001
43
0.0000000001
44
0.0000000001
40
-0.18027200165792839
40
-0.18027200165792839
40
-0.18027200165792839
40
-0.18027200165792839
40
-0.17622986449867872
40
-0.17622986449867872
40
-0.17622986449867872
40
-0.17275276054088778
40
-0.17275276054088778
40
-0.17275276054088778
40
-0.16927782209718403
40
-0.16927782209718403
40
-0.16927782209718403
40
-0.16581502920884866
40
-0.16581502920884866
40
-0.16581502920884866
40
-0.16235481341417712
40
-0.16235481341417712
40
-0.16235481341417712
40
-0.15889710771851312
40
-0.15889710771851312
40
-0.15889710771851312
40
-0.15545856327204899
40
-0.15545856327204899
40
-0.15545856327204899
40
-0.15202953594159296
40
-0.15202953594159296
40
-0.15202953594159296
40
-0.14860974525426524
40
-0.14860974525426524
40
-0.14860974525426524
40
-0.1452175137031369
40
-0.1452175137031369
40
-0.1452175137031369
40
-0.14183368189935969
40
-0.14183368189935969
40
-0.14183368189935969
40
-0.13845790690423962
40
-0.13845790690423962
40
-0.13845790690423962
40
-0.13511273729864415
40
-0.13511273729864415
40
-0.13511273729864415
40
-0.13177501707596431
40
-0.13177501707596431
40
-0.13177501707596431
40
-0.12844460775808034
40
-0.12844460775808034
40
-0.12844460775808034
40
-0.12514810158186992
40
-0.12514810158186992
40
-0.12514810158186992
40
-0.12185868543958817
40
-0.12185868543958817
40
-0.12185868543958817
40
-0.11857638518846413
40
-0.11857638518846413
40
-0.11857638518846413
40
-0.11533140879864479
40
-0.11533140879864479
40
-0.11533140879864479
40
-0.11209364823687003
40
-0.11209364823687003
40
-0.11209364823687003
40
-0.1088633132285675
40
-0.1088633132285675
40
-0.1088633132285675
40
-0.10567378488192909
40
-0.10567378488192909
40
-0.10567378488192909
40
-0.10249211542501918
40
-0.10249211542501918
40
-0.10249211542501918
40
-0.099319132952141162
40
-0.099319132952141162
40
-0.099319132952141162
40
-0.096195138625010806
40
-0.096195138625010806
40
-0.096195138625010806
40
-0.09308493353697106
40
-0.09308493353697106
40
-0.09308493353697106
40
-0.089987810865027745
40
-0.089987810865027745
40
-0.089987810865027745
40
-0.086940275723129276
40
-0.086940275723129276
40
-0.086940275723129276
40
-0.083904484399735274
40
-0.083904484399735274
40
-0.083904484399735274
40
-0.08088009926842564
40
-0.08088009926842564
40
-0.08088009926842564
40
-0.077904971534085196
40
-0.077904971534085196
40
-0.077904971534085196
40
-0.074940643934144652
40
-0.074940643934144652
40
-0.074940643934144652
40
-0.071987124899283245
40
-0.071987124899283245
40
-0.071987124899283245
40
-0.069082803595956255
40
-0.069082803595956255
40
-0.069082803595956255
40
-0.066189344008129009
40
-0.066189344008129009
40
-0.066189344008129009
40
-0.063307067735602365
40
-0.063307067735602365
40
-0.063307067735602365
40
-0.060473965107844467
40
-0.060473965107844467
40
-0.060473965107844467
40
-0.057652194533634946
40
-0.057652194533634946
40
-0.057652194533634946
40
-0.05483996569758362
40
-0.05483996569758362
40
-0.05483996569758362
40
-0.052072904596539647
40
-0.052072904596539647
40
-0.052072904596539647
40
-0.049314765759958072
40
-0.049314765759958072
40
-0.049314765759958072
40
-0.046565632891453761
40
-0.046565632891453761
40
-0.046565632891453761
40
-0.04385911810923461
40
-0.04385911810923461
40
-0.04385911810923461
40
-0.041161930080020143
40
-0.041161930080020143
40
-0.041161930080020143
40
-0.038474511953232753
40
-0.038474511953232753
40
-0.038474511953232753
40
-0.035827158723773574
40
-0.035827158723773574
40
-0.035827158723773574
40
-0.033190465777553121
40
-0.033190465777553121
40
-0.033190465777553121
40
-0.030565127209791272
40
-0.030565127209791272
40
-0.030565127209791272
40
-0.027977081297504106
40
-0.027977081297504106
40
-0.027977081297504106
40
-0.025395070173338773
40
-0.025395070173338773
40
-0.025395070173338773
40
-0.020251074750794542
40
-0.020251074750794542
40
-0.020251074750794542
40
-0.017690657263758007
40
-0.017690657263758007
40
-0.017690657263758007
40
-0.015132415082524657
40
-0.015132415082524657
40
-0.015132415082524657
40
-0.012591210357746716
40
-0.012591210357746716
40
-0.012591210357746716
40
-0.010054850264801438
40
-0.010054850264801438
40
-0.010054850264801438
40
-0.0075248866756370894
40
-0.0075248866756370894
40
-0.0075248866756370894
40
-0.005009289512579322
40
-0.005009289512579322
40
-0.005009289512579322
40
-0.0025011934867222516
40
-0.0025011934867222516
40
-0.0025011934867222516
40
-0
40
-0
40
-0
40
-0
10
769.92928932188033
20
19.160038306550199
30
0
10
769.93890651827883
20
19.146154750534826
30
0
10
769.94852013142327
20
19.132262145518578
30
0
10
769.95812707644984
20
19.118359072271673
30
0
10
769.96639110739648
20
19.1063994506389
30
0
10
769.97465020396987
20
19.094432082018088
30
0
10
769.98290239752112
20
19.082456023970018
30
0
10
769.99114945166843
20
19.070487424520408
30
0
10
769.99938961146131
20
19.058510146780499
30
0
10
770.00762090993817
20
19.046523214338446
30
0
10
770.01582343849805
20
19.034578178452005
30
0
10
770.02401716742588
20
19.022623555206994
30
0
10
770.03220015147235
20
19.010658344398436
30
0
10
770.0403770455456
20
18.998702038387222
30
0
10
770.0485432105479
20
18.986735160509916
30
0
10
770.05669670827501
20
18.974756678099972
30
0
10
770.06484429131717
20
18.962786885083577
30
0
10
770.0729792255147
20
18.950805504626832
30
0
10
770.08109957771853
20
18.93881146621521
30
0
10
770.08917493011427
20
18.926883894061611
30
0
10
770.09723873400276
20
18.914939589203762
30
0
10
770.10529720130251
20
18.902965229630468
30
0
10
770.11333336458108
20
18.89102401238555
30
0
10
770.12136165157824
20
18.879056698570309
30
0
10
770.1293794061603
20
18.867062999536707
30
0
10
770.13737556361559
20
18.855101607483192
30
0
10
770.1453612452442
20
18.843113972495431
30
0
10
770.153333818173
20
18.831099718092297
30
0
10
770.16124214236743
20
18.819182283203528
30
0
10
770.16913756814279
20
18.807238656328586
30
0
10
770.17701753131951
20
18.795268380822584
30
0
10
770.18487798235526
20
18.783327745772564
30
0
10
770.19272304717242
20
18.771360594150096
30
0
10
770.2005501874894
20
18.759366380000575
30
0
10
770.20835869160453
20
18.747400723738657
30
0
10
770.21614935647358
20
18.735408134024947
30
0
10
770.2239196681287
20
18.723387969968933
30
0
10
770.23161953272643
20
18.711476782904413
30
0
10
770.23929941159486
20
18.699538519548721
30
0
10
770.24695686261964
20
18.687572452520889
30
0
10
770.25459726121028
20
18.675633032816151
30
0
10
770.2622153318606
20
18.663665933572183
30
0
10
770.26980865175744
20
18.65167032343367
30
0
10
770.277385339332
20
18.639700988344547
30
0
10
770.28493738460315
20
18.627703267541829
30
0
10
770.29246238287988
20
18.615676221845867
30
0
10
770.29991077763486
20
18.603771609939635
30
0
10
770.30733267341873
20
18.591838267378517
30
0
10
770.31472573929727
20
18.579875169098933
30
0
10
770.32210290437536
20
18.567937800718873
30
0
10
770.32945136364287
20
18.55597080488085
30
0
10
770.33676879959035
20
18.543973043957251
30
0
10
770.34407040595738
20
18.532001237415006
30
0
10
770.35134112337983
20
18.519998799183448
30
0
10
770.35857864376226
20
18.50796447372273
30
0
10
770.36573386448117
20
18.496066993602227
30
0
10
770.37285663920784
20
18.484138347569601
30
0
10
770.37994472731282
20
18.4721771950183
30
0
10
770.38701705369306
20
18.460242640386259
30
0
10
770.39405484798021
20
18.44827572407036
30
0
10
770.40105586886466
20
18.436274982403816
30
0
10
770.40804083344915
20
18.424301763510297
30
0
10
770.4149891936172
20
18.412294874645653
30
0
10
770.42189870182597
20
18.40025272559966
30
0
10
770.42872092683876
20
18.388362696968588
30
0
10
770.43550527578634
20
18.376438293491887
30
0
10
770.44224955758614
20
18.364477848705764
30
0
10
770.44897722170435
20
18.352546874050198
30
0
10
770.4556650165207
20
18.340580035807214
30
0
10
770.46231073168792
20
18.328575541160994
30
0
10
770.46893830190902
20
18.316603822657815
30
0
10
770.47552184305027
20
18.304598702191218
30
0
10
770.48206844562083
20
18.292540977476559
30
0
10
770.48851397422607
20
18.280669413757359
30
0
10
770.49492300281315
20
18.268748013083911
30
0
10
770.50129184187085
20
18.25677693028689
30
0
10
770.50763256901962
20
18.244858687573899
30
0
10
770.5139334607527
20
18.232891201100696
30
0
10
770.52019089292969
20
18.220874466624121
30
0
10
770.52642200454943
20
18.208908277984868
30
0
10
770.53261002164641
20
18.196893255561534
30
0
10
770.5387513815333
20
18.184829229353376
30
0
10
770.54479441310082
20
18.172958358317103
30
0
10
770.55079226984151
20
18.161040040561819
30
0
10
770.55674157080432
20
18.149073946365757
30
0
10
770.56266794585906
20
18.137153964070571
30
0
10
770.5685461390259
20
18.125186573661669
30
0
10
770.57437281894954
20
18.113171273983831
30
0
10
770.580177606647
20
18.101201118652735
30
0
10
770.58593126798189
20
18.089183414237503
30
0
10
770.59163051559221
20
18.077117481230431
30
0
10
770.59723694099603
20
18.065248063027578
30
0
10
770.602790711289
20
18.053331974817127
30
0
10
770.60828869771899
20
18.04136838517611
30
0
10
770.61376672568053
20
18.029448225057337
30
0
10
770.61918937479561
20
18.017480908539081
30
0
10
770.62455354335964
20
18.005465421463924
30
0
10
770.62989815303126
20
17.993493745394655
30
0
10
770.63518470873203
20
17.981474250145702
30
0
10
770.64041012623034
20
17.969405733107202
30
0
10
770.64554850224215
20
17.957538245300025
30
0
10
770.65062776079697
20
17.945623355418476
30
0
10
770.65564494321973
20
17.933659723442268
30
0
10
770.66064336215106
20
17.921740833611747
30
0
10
770.66558016953184
20
17.909773566131712
30
0
10
770.67045240394032
20
17.897756398110737
30
0
10
770.67530580700463
20
17.885785676834541
30
0
10
770.68009513659354
20
17.873765440461916
30
0
10
770.6848174180783
20
17.861693984984189
30
0
10
770.68945913414541
20
17.849828476961655
30
0
10
770.69403607157687
20
17.837913482417676
30
0
10
770.69854534633339
20
17.825947193686662
30
0
10
770.70303658455896
20
17.814028768602835
30
0
10
770.70746104349439
20
17.802058432336242
30
0
10
770.71181256627438
20
17.790043382741334
30
0
10
770.71614937450204
20
17.778068961700114
30
0
10
770.72041432133415
20
17.766048619753377
30
0
10
770.72460404754679
20
17.753982237201768
30
0
10
770.72872648178065
20
17.74210965508442
30
0
10
770.73277609288766
20
17.730192500137083
30
0
10
770.73674969842023
20
17.718230508638452
30
0
10
770.74071049123995
20
17.706307088045108
30
0
10
770.74459576870947
20
17.694339120752943
30
0
10
770.74840239805144
20
17.682326189859335
30
0
10
770.75219659785876
20
17.670352483993426
30
0
10
770.75591266342144
20
17.658334108945184
30
0
10
770.75954751166489
20
17.646270488737965
30
0
10
770.76312601113113
20
17.63439388328467
30
0
10
770.76662579304957
20
17.622473425376313
30
0
10
770.77004392741833
20
17.610508399130854
30
0
10
770.77345028276591
20
17.598584604821475
30
0
10
770.77677555360788
20
17.586616549691506
30
0
10
770.7800168325025
20
17.574603345288033
30
0
10
770.78324637065884
20
17.562633655772515
30
0
10
770.78639252546634
20
17.550619143963839
30
0
10
770.7894523924067
20
17.538558740615002
30
0
10
770.79246664186246
20
17.526678137654159
30
0
10
770.79539715805493
20
17.514753001081118
30
0
10
770.79824112476354
20
17.502782124431114
30
0
10
770.80107363947161
20
17.490859451751128
30
0
10
770.80382030192027
20
17.478891407030194
30
0
10
770.80647829935617
20
17.466876626413338
30
0
10
770.80912485067029
20
17.45491358498986
30
0
10
770.81168350121357
20
17.442904209960428
30
0
10
770.81415144954872
20
17.430846992491759
30
0
10
770.81658434093993
20
17.418961046516415
30
0
10
770.81892909093551
20
17.407028607763138
30
0
10
770.82118297687862
20
17.395048075592975
30
0
10
770.82343160722542
20
17.383095479547475
30
0
10
770.82558392514125
20
17.371126122776445
30
0
10
770.82763822158086
20
17.359141398458821
30
0
10
770.83173088074227
20
17.33526490681502
30
0
10
770.83543502587247
20
17.311324730221024
30
0
10
770.83873991463952
20
17.287314522081221
30
0
10
770.84038491901777
20
17.275363470080062
30
0
10
770.84193100271614
20
17.263395052657756
30
0
10
770.84337687462562
20
17.251408404475775
30
0
10
770.84482151813643
20
17.239431940033548
30
0
10
770.84616612482955
20
17.227437277962274
30
0
10
770.84740946895306
20
17.215423496136175
30
0
10
770.84864453261685
20
17.203489724047319
30
0
10
770.84977968457838
20
17.191537087641041
30
0
10
770.85081372900936
20
17.179564603064236
30
0
10
770.85184580210591
20
17.167614943204917
30
0
10
770.85277715382767
20
17.155645510038468
30
0
10
770.85360650313464
20
17.143655231994881
30
0
10
770.85443376088688
20
17.131695192504196
30
0
10
770.85515952284879
20
17.11971441131886
30
0
10
770.85578244094381
20
17.10771174812248
30
0
10
770.85640182179168
20
17.09577724218126
30
0
10
770.85691951012689
20
17.083821101407381
30
0
10
770.85733424268471
20
17.071842146595245
30
0
10
770.85774773857167
20
17.059898911247615
30
0
10
770.85805888104119
20
17.047932999226074
30
0
10
770.85826660311682
20
17.035943171484696
30
0
10
770.85847375351977
20
17.023986340986777
30
0
10
770.8585780466301
20
17.01200572870485
30
0
10
770.85857864376248
20
16.999999999999378
30
0
0
SPLINE
5
102
100
AcDbEntity
8
OUTER_PROFILES
100
AcDbSpline
70
0
71
3
72
14
73
10
74
0
42
0.000000001
43
0.0000000001
44
0.0000000001
40
-0.1901759453413594
40
-0.1901759453413594
40
-0.1901759453413594
40
-0.1901759453413594
40
-0.18668329109620846
40
-0.18668329109620846
40
-0.18668329109620846
40
-0.18319469148107254
40
-0.18319469148107254
40
-0.18319469148107254
40
-0.18027200165794538
40
-0.18027200165794538
40
-0.18027200165794538
40
-0.18027200165794538
10
769.85857864376214
20
19.261946710584542
30
0
10
769.86688767647979
20
19.249981763931039
30
0
10
769.87519967769504
20
19.238012522078972
30
0
10
769.8835126536419
20
19.226038130005104
30
0
10
769.89181597903666
20
19.214077639029373
30
0
10
769.90012027616922
20
19.202112008985065
30
0
10
769.90842356101996
20
19.190140373067003
30
0
10
769.91537991279688
20
19.180110738736936
30
0
10
769.92233555437235
20
19.170076889180297
30
0
10
769.92928932188033
20
19.160038306550298
30
0
0
ARC
5
103
100
AcDbEntity
8
OUTER_PROFILES
100
AcDbCircle
10
769.8939339828213
20
19.297302049643822
30
0
40
0.050000000000004929
210
0
220
-0
230
1
100
AcDbArc
50
44.999999999968338
51
225.0000000001036
0
SPLINE
5
104
100
AcDbEntity
8
OUTER_PROFILES
100
AcDbSpline
70
0
71
3
72
14
73
10
74
0
42
0.000000001
43
0.0000000001
44
0.0000000001
40
-0.010030481399287781
40
-0.010030481399287781
40
-0.010030481399287781
40
-0.010030481399287781
40
-0.0070633766150122266
40
-0.0070633766150122266
40
-0.0070633766150122266
40
-0.0035294939875648327
40
-0.0035294939875648327
40
-0.0035294939875648327
40
-0
40
-0
40
-0
40
-0
10
770.03119772599302
20
19.261946710584535
30
0
10
770.02116908357596
20
19.268893592543808
30
0
10
770.01113526157064
20
19.275849206366907
30
0
10
770.00109565940556
20
19.28281247166845
30
0
10
769.98913828740251
20
19.291105863398254
30
0
10
769.97717271757938
20
19.299410109462517
30
0
10
769.96519790246521
20
19.307723379059599
30
0
10
769.95323795857246
20
19.316026324616427
30
0
10
769.9412687915401
20
19.324338270637178
30
0
10
769.92928932188067
20
19.332657388703161
30
0
0
SPLINE
5
105
100
AcDbEntity
8
OUTER_PROFILES
100
AcDbSpline
70
0
71
3
72
185
73
181
74
0
42
0.000000001
43
0.0000000001
44
0.0000000001
40
-0.21612603655215648
40
-0.21612603655215648
40
-0.21612603655215648
40
-0.21612603655215648
40
-0.2130562847399731
40
-0.2130562847399731
40
-0.2130562847399731
40
-0.20997772791262553
40
-0.20997772791262553
40
-0.20997772791262553
40
-0.20688889380824285
40
-0.20688889380824285
40
-0.20688889380824285
40
-0.20378133919723884
40
-0.20378133919723884
40
-0.20378133919723884
40
-0.20066483798904208
40
-0.20066483798904208
40
-0.20066483798904208
40
-0.19754128436836735
40
-0.19754128436836735
40
-0.19754128436836735
40
-0.19439566809754
40
-0.19439566809754
40
-0.19439566809754
40
-0.19124623809134603
40
-0.19124623809134603
40
-0.19124623809134603
40
-0.18809399005215144
40
-0.18809399005215144
40
-0.18809399005215144
40
-0.18491537257109966
40
-0.18491537257109966
40
-0.18491537257109966
40
-0.18173579943739565
40
-0.18173579943739565
40
-0.18173579943739565
40
-0.1785562176909854
40
-0.1785562176909854
40
-0.1785562176909854
40
-0.1753361186127706
40
-0.1753361186127706
40
-0.1753361186127706
40
-0.17210077909174198
40
-0.17210077909174198
40
-0.17210077909174198
40
-0.16885115165086897
40
-0.16885115165086897
40
-0.16885115165086897
40
-0.16555123554066936
40
-0.16555123554066936
40
-0.16555123554066936
40
-0.16223833458085279
40
-0.16223833458085279
40
-0.16223833458085279
40
-0.15891312105706801
40
-0.15891312105706801
40
-0.15891312105706801
40
-0.15553481050449436
40
-0.15553481050449436
40
-0.15553481050449436
40
-0.15214482823982256
40
-0.15214482823982256
40
-0.15214482823982256
40
-0.14874340932345412
40
-0.14874340932345412
40
-0.14874340932345412
40
-0.14528612082363077
40
-0.14528612082363077
40
-0.14528612082363077
40
-0.14181713393773177
40
-0.14181713393773177
40
-0.14181713393773177
40
-0.13833625552422454
40
-0.13833625552422454
40
-0.13833625552422454
40
-0.13479665105539509
40
-0.13479665105539509
40
-0.13479665105539509
40
-0.13125465432944397
40
-0.13125465432944397
40
-0.13125465432944397
40
-0.12772379582362733
40
-0.12772379582362733
40
-0.12772379582362733
40
-0.12415829972890509
40
-0.12415829972890509
40
-0.12415829972890509
40
-0.120605385666086
40
-0.120605385666086
40
-0.120605385666086
40
-0.11706553032517404
40
-0.11706553032517404
40
-0.11706553032517404
40
-0.11349403894961517
40
-0.11349403894961517
40
-0.11349403894961517
40
-0.10993677604515714
40
-0.10993677604515714
40
-0.10993677604515714
40
-0.10639409211970154
40
-0.10639409211970154
40
-0.10639409211970154
40
-0.1028233685327475
40
-0.1028233685327475
40
-0.1028233685327475
40
-0.099268185237454537
40
-0.099268185237454537
40
-0.099268185237454537
40
-0.09572879384453957
40
-0.09572879384453957
40
-0.09572879384453957
40
-0.092165438244760131
40
-0.092165438244760131
40
-0.092165438244760131
40
-0.088618661586427921
40
-0.088618661586427921
40
-0.088618661586427921
40
-0.085088639542995559
40
-0.085088639542995559
40
-0.085088639542995559
40
-0.081539103112377664
40
-0.081539103112377664
40
-0.081539103112377664
40
-0.078006973775308033
40
-0.078006973775308033
40
-0.078006973775308033
40
-0.074491792475073537
40
-0.074491792475073537
40
-0.074491792475073537
40
-0.070951977704103983
40
-0.070951977704103983
40
-0.070951977704103983
40
-0.06741719707175621
40
-0.06741719707175621
40
-0.06741719707175621
40
-0.063887570164251437
40
-0.063887570164251437
40
-0.063887570164251437
40
-0.060334676962504712
40
-0.060334676962504712
40
-0.060334676962504712
40
-0.05678721998514049
40
-0.05678721998514049
40
-0.05678721998514049
40
-0.053245272296654718
40
-0.053245272296654718
40
-0.053245272296654718
40
-0.049684720853531858
40
-0.049684720853531858
40
-0.049684720853531858
40
-0.046129803441730059
40
-0.046129803441730059
40
-0.046129803441730059
40
-0.042580521714495681
40
-0.042580521714495681
40
-0.042580521714495681
40
-0.039017362255086417
40
-0.039017362255086417
40
-0.039017362255086417
40
-0.035460002196353431
40
-0.035460002196353431
40
-0.035460002196353431
40
-0.031908496294029164
40
-0.031908496294029164
40
-0.031908496294029164
40
-0.028348046390233736
40
-0.028348046390233736
40
-0.028348046390233736
40
-0.024793326907357163
40
-0.024793326907357163
40
-0.024793326907357163
40
-0.021244223830904452
40
-0.021244223830904452
40
-0.021244223830904452
40
-0.017690942219764128
40
-0.017690942219764128
40
-0.017690942219764128
40
-0.014143720274847033
40
-0.014143720274847033
40
-0.014143720274847033
40
-0.010030481399290119
40
-0.010030481399290119
40
-0.010030481399290119
40
-0.010030481399290119
10
772.19123603246521
20
18.332657388703478
30
0
10
772.17924270533172
20
18.332657985431783
30
0
10
772.16725046798638
20
18.332762265842177
30
0
10
772.15529286096114
20
18.332969429759956
30
0
10
772.14330095575224
20
18.333177187889095
30
0
10
772.13133505421513
20
18.333488365916285
30
0
10
772.11939388585506
20
18.33390179016514
30
0
10
772.10741285378549
20
18.334316594565742
30
0
10
772.09545672177182
20
18.334834318196197
30
0
10
772.08352428434205
20
18.335453591522313
30
0
10
772.07151952795118
20
18.336076618080249
30
0
10
772.05953875353794
20
18.336802415521511
30
0
10
772.04758080047259
20
18.337629528777668
30
0
10
772.03558842066241
20
18.338459023278904
30
0
10
772.0236189919284
20
18.339390410607074
30
0
10
772.01167142937288
20
18.340422302471023
30
0
10
771.99969683036443
20
18.341456529430186
30
0
10
771.98774419584765
20
18.342591717381584
30
0
10
771.97581253621911
20
18.343826562478352
30
0
10
771.96379659949343
20
18.345070129677804
30
0
10
771.95180193663316
20
18.3464147735199
30
0
10
771.93982762774885
20
18.347859157199096
30
0
10
771.92783880124966
20
18.349305292044566
30
0
10
771.91587038028513
20
18.350851413526318
30
0
10
771.90392151001777
20
18.352496117791855
30
0
10
771.89196194819306
20
18.354142293698573
30
0
10
771.88002197314222
20
18.355887229994259
30
0
10
771.86810078809594
20
18.357729476521641
30
0
10
771.85607987898254
20
18.359587133959593
30
0
10
771.84407807503021
20
18.361543734904465
30
0
10
771.83209463369076
20
18.363597811404684
30
0
10
771.82010758952492
20
18.365652505463842
30
0
10
771.80813891874209
20
18.367804733033072
30
0
10
771.79618795672104
20
18.370053055881684
30
0
10
771.78423696232744
20
18.372301384820467
30
0
10
771.77229709300696
20
18.374647166584534
30
0
10
771.76038903997301
20
18.377084582917298
30
0
10
771.74832924291263
20
18.379553059186286
30
0
10
771.73631995449159
20
18.382111733194996
30
0
10
771.72435940612911
20
18.384757732963315
30
0
10
771.71234224955379
20
18.387416256013434
30
0
10
771.70037429576257
20
18.390162935717036
30
0
10
771.68845390810088
20
18.392994907592801
30
0
10
771.67648087757368
20
18.39583938603452
30
0
10
771.66455583429456
20
18.398769913353942
30
0
10
771.65267729184973
20
18.401783640059229
30
0
10
771.64061492645806
20
18.404844004820266
30
0
10
771.62860051172606
20
18.407990165035649
30
0
10
771.61663268711322
20
18.411219200026892
30
0
10
771.60461777027206
20
18.414460940957436
30
0
10
771.59264981114598
20
18.417786211536303
30
0
10
771.58072763326641
20
18.421192105096232
30
0
10
771.56876114600993
20
18.424610656831828
30
0
10
771.55684078158913
20
18.428110433404097
30
0
10
771.54496554372668
20
18.431688520800982
30
0
10
771.53290068199738
20
18.435323743118129
30
0
10
771.52088240006856
20
18.439039798508798
30
0
10
771.50890984272519
20
18.442833634385913
30
0
10
771.49689592143977
20
18.446640577571966
30
0
10
771.48492804237003
20
18.450525840917244
30
0
10
771.47300552408205
20
18.454486334023727
30
0
10
771.46104278325663
20
18.458460188492211
30
0
10
771.4491257108798
20
18.462509782217428
30
0
10
771.43725379560374
20
18.466631984918969
30
0
10
771.42518687965958
20
18.47082189634839
30
0
10
771.41316661708061
20
18.475086822409693
30
0
10
771.40119265002772
20
18.479423466204238
30
0
10
771.38917816680464
20
18.48377478384894
30
0
10
771.3772102940685
20
18.488198306122733
30
0
10
771.36528883893436
20
18.492690686142296
30
0
10
771.35332651760007
20
18.497198465834096
30
0
10
771.34141093380958
20
18.501775576765745
30
0
10
771.32954204748057
20
18.506418614387414
30
0
10
771.3174729206396
20
18.511139984904361
30
0
10
771.30545208105661
20
18.515929525874409
30
0
10
771.29347963428586
20
18.520783628519368
30
0
10
771.2814990958849
20
18.525641011830775
30
0
10
771.26953615877392
20
18.530575492940621
30
0
10
771.25757630897454
20
18.535591089241244
30
0
10
771.24565406831209
20
18.540590913416732
30
0
10
771.23373914576155
20
18.545669622801586
30
0
10
771.22183029935752
20
18.550825906235325
30
0
10
771.20980462761906
20
18.556032772615271
30
0
10
771.19778515206292
20
18.561318742891423
30
0
10
771.18577061102872
20
18.566682489109027
30
0
10
771.17379846727522
20
18.572027307574558
30
0
10
771.16183122359996
20
18.5774493544588
30
0
10
771.14986764731066
20
18.582947334749324
30
0
10
771.1379480431001
20
18.588425107234524
30
0
10
771.12603207969437
20
18.593978256344293
30
0
10
771.11411855123447
20
18.599605516873574
30
0
10
771.10209855040125
20
18.60528306878258
30
0
10
771.09008102853113
20
18.611036063014854
30
0
10
771.07806475846803
20
18.616863213514591
30
0
10
771.06609636004532
20
18.622667149218678
30
0
10
771.05412920381593
20
18.62854465181643
30
0
10
771.04216208608932
20
18.634494461659809
30
0
10
771.03024401403695
20
18.640419886981988
30
0
10
771.0183259804927
20
18.646417028347937
30
0
10
771.00640680311119
20
18.652484650932408
30
0
10
770.99439328773451
20
18.658600297581948
30
0
10
770.98237861063717
20
18.664787545770665
30
0
10
770.97036156584613
20
18.671045139537245
30
0
10
770.95839682092537
20
18.677275499374932
30
0
10
770.94642972918234
20
18.683575594031364
30
0
10
770.93445910218202
20
18.689944190595924
30
0
10
770.92254164795986
20
18.696284498251895
30
0
10
770.91062069011127
20
18.702692700795556
30
0
10
770.89869505498859
20
18.709167586844544
30
0
10
770.88668867480101
20
18.715686312495166
30
0
10
770.87467755408215
20
18.722272627862029
30
0
10
770.86266049130222
20
18.728925300775831
30
0
10
770.8506993393554
20
18.735547021327005
30
0
10
770.83873230078768
20
18.742234483542262
30
0
10
770.82675818375787
20
18.748986474877409
30
0
10
770.81484063124822
20
18.755706570487057
30
0
10
770.80291606724802
20
18.762490587129193
30
0
10
770.7909833068652
20
18.769337330639708
30
0
10
770.77898458074515
20
18.776221923773285
30
0
10
770.76697756763519
20
18.783169939332826
30
0
10
770.75496105006164
20
18.790180163603829
30
0
10
770.74300346205519
20
18.79715600940542
30
0
10
770.73103646281868
20
18.804193455383825
30
0
10
770.71905883744716
20
18.811291305156416
30
0
10
770.70713868370729
20
18.818355097676864
30
0
10
770.69520077064044
20
18.825483084292291
30
0
10
770.68327155874215
20
18.832657388703314
30
0
10
770.67125875004854
20
18.839881968762352
30
0
10
770.65925625969851
20
18.847152535211617
30
0
10
770.64726298850655
20
18.854467232869304
30
0
10
770.63528677351485
20
18.861771527948221
30
0
10
770.62331975178563
20
18.869119828927971
30
0
10
770.61136086336478
20
18.876510293160266
30
0
10
770.59941941105285
20
18.883889982065018
30
0
10
770.58748606862446
20
18.891311711445343
30
0
10
770.57555981061898
20
18.89877364958577
30
0
10
770.56355493812089
20
18.906284774694946
30
0
10
770.55155724397537
20
18.913836640453386
30
0
10
770.53956570903324
20
18.921427380721948
30
0
10
770.52759252214457
20
18.929006506521652
30
0
10
770.51562547591448
20
18.936624388029809
30
0
10
770.50366357994585
20
18.944279169864458
30
0
10
770.49172026109898
20
18.951922063632615
30
0
10
770.47978207684423
20
18.959601743286399
30
0
10
770.46784806249605
20
18.967316364336849
30
0
10
770.45585136583452
20
18.9750715057252
30
0
10
770.44385888331749
20
18.982861956616425
30
0
10
770.43186965246275
20
18.990685844943084
30
0
10
770.41989939274299
20
18.998497353155976
30
0
10
770.40793237466107
20
19.006342193089743
30
0
10
770.39596765164038
20
19.014218501102423
30
0
10
770.38402189654403
20
19.022082322640088
30
0
10
770.3720784294012
20
19.029977512510367
30
0
10
770.36013631437299
20
19.037902214292327
30
0
10
770.34814750553835
20
19.045857901748953
30
0
10
770.33616005953877
20
19.053843332276951
30
0
10
770.32417303293232
20
19.061856626384635
30
0
10
770.31220551641809
20
19.06985687804951
30
0
10
770.30023841819013
20
19.077884902688908
30
0
10
770.28827080283918
20
19.085938831272756
30
0
10
770.27632288195025
20
19.093979505938815
30
0
10
770.26437444599287
20
19.102045999457662
30
0
10
770.25242456625108
20
19.110136454746836
30
0
10
770.24044459230583
20
19.118247284785756
30
0
10
770.22846316776736
20
19.126382197609836
30
0
10
770.21647935436079
20
19.134539323930163
30
0
10
770.20451482848728
20
19.142683321637925
30
0
10
770.19254792166237
20
19.150849461397115
30
0
10
770.18057768805772
20
19.159035880440488
30
0
10
770.1686263672525
20
19.167209365057751
30
0
10
770.15667173009206
20
19.175403064712601
30
0
10
770.14471281811996
20
19.183615121820928
30
0
10
770.13273982632882
20
19.191836847390466
30
0
10
770.12076254962494
20
19.200076973489079
30
0
10
770.10878000849743
20
19.208333634325921
30
0
10
770.09681790205741
20
19.216576214486309
30
0
10
770.08485054942275
20
19.224835273098545
30
0
10
770.07287696020308
20
19.23310895568212
30
0
10
770.05899279016171
20
19.242702838832194
30
0
10
770.04510023529394
20
19.252316385059729
30
0
10
770.03119772599325
20
19.261946710584535
30
0
0
LINE
5
106
100
AcDbEntity
8
OUTER_PROFILES
100
AcDbLine
10
772.19123603246521
20
18.332657388703478
30
0
11
789.19123603246521
21
18.332657388703296
31
0
0
LINE
5
107
100
AcDbEntity
8
OUTER_PROFILES
100
AcDbLine
10
789.19123603246521
20
18.332657388703296
30
0
11
789.19123603246601
21
205.19123603247604
31
0
0
LINE
5
108
100
AcDbEntity
8
OUTER_PROFILES
100
AcDbLine
10
789.19123603246601
20
205.19123603247604
30
0
11
772.19123603246601
21
205.19123603247604
31
0
0
SPLINE
5
109
100
AcDbEntity
8
OUTER_PROFILES
100
AcDbSpline
70
0
71
3
72
185
73
181
74
0
42
0.000000001
43
0.0000000001
44
0.0000000001
40
-0.18027202987980848
40
-0.18027202987980848
40
-0.18027202987980848
40
-0.18027202987980848
40
-0.17622989187647664
40
-0.17622989187647664
40
-0.17622989187647664
40
-0.17275278719059342
40
-0.17275278719059342
40
-0.17275278719059342
40
-0.16927784801759657
40
-0.16927784801759657
40
-0.16927784801759657
40
-0.16581505440110347
40
-0.16581505440110347
40
-0.16581505440110347
40
-0.16235483787749838
40
-0.16235483787749838
40
-0.16235483787749838
40
-0.15889713145207501
40
-0.15889713145207501
40
-0.15889713145207501
40
-0.15545858631747025
40
-0.15545858631747025
40
-0.15545858631747025
40
-0.15202955830427889
40
-0.15202955830427889
40
-0.15202955830427889
40
-0.14860976692943167
40
-0.14860976692943167
40
-0.14860976692943167
40
-0.14521753469051046
40
-0.14521753469051046
40
-0.14521753469051046
40
-0.14183370219541472
40
-0.14183370219541472
40
-0.14183370219541472
40
-0.13845792650594324
40
-0.13845792650594324
40
-0.13845792650594324
40
-0.13511275620790245
40
-0.13511275620790245
40
-0.13511275620790245
40
-0.13177503529029416
40
-0.13177503529029416
40
-0.13177503529029416
40
-0.12844462527551281
40
-0.12844462527551281
40
-0.12844462527551281
40
-0.12514811840656506
40
-0.12514811840656506
40
-0.12514811840656506
40
-0.12185870157043946
40
-0.12185870157043946
40
-0.12185870157043946
40
-0.11857640062468132
40
-0.11857640062468132
40
-0.11857640062468132
40
-0.11533142354617226
40
-0.11533142354617226
40
-0.11533142354617226
40
-0.11209366229572823
40
-0.11209366229572823
40
-0.11209366229572823
40
-0.10886332659927951
40
-0.10886332659927951
40
-0.10886332659927951
40
-0.1056737975724201
40
-0.1056737975724201
40
-0.1056737975724201
40
-0.10249212743610718
40
-0.10249212743610718
40
-0.10249212743610718
40
-0.099319144299770734
40
-0.099319144299770734
40
-0.099319144299770734
40
-0.096195149363355534
40
-0.096195149363355534
40
-0.096195149363355534
40
-0.093084943695037725
40
-0.093084943695037725
40
-0.093084943695037725
40
-0.089987820470326135
40
-0.089987820470326135
40
-0.089987820470326135
40
-0.086940284806846735
40
-0.086940284806846735
40
-0.086940284806846735
40
-0.08390449298249536
40
-0.08390449298249536
40
-0.08390449298249536
40
-0.080880107367399423
40
-0.080880107367399423
40
-0.080880107367399423
40
-0.077904979171992572
40
-0.077904979171992572
40
-0.077904979171992572
40
-0.074940651130961128
40
-0.074940651130961128
40
-0.074940651130961128
40
-0.071987131677470825
40
-0.071987131677470825
40
-0.071987131677470825
40
-0.069082809979812837
40
-0.069082809979812837
40
-0.069082809979812837
40
-0.066189350005864109
40
-0.066189350005864109
40
-0.066189350005864109
40
-0.063307073342004597
40
-0.063307073342004597
40
-0.063307073342004597
40
-0.060473970321068243
40
-0.060473970321068243
40
-0.060473970321068243
40
-0.057652199360376979
40
-0.057652199360376979
40
-0.057652199360376979
40
-0.054839970170388871
40
-0.054839970170388871
40
-0.054839970170388871
40
-0.05207290875945824
40
-0.05207290875945824
40
-0.05207290875945824
40
-0.049314769639633146
40
-0.049314769639633146
40
-0.049314769639633146
40
-0.046565636501319313
40
-0.046565636501319313
40
-0.046565636501319313
40
-0.043859121454732398
40
-0.043859121454732398
40
-0.043859121454732398
40
-0.041161933149982913
40
-0.041161933149982913
40
-0.041161933149982913
40
-0.038474514733051732
40
-0.038474514733051732
40
-0.038474514733051732
40
-0.03582716121886028
40
-0.03582716121886028
40
-0.03582716121886028
40
-0.033190468019295864
40
-0.033190468019295864
40
-0.033190468019295864
40
-0.030565129251702596
40
-0.030565129251702596
40
-0.030565129251702596
40
-0.027977083187138815
40
-0.027977083187138815
40
-0.027977083187138815
40
-0.025395071870566034
40
-0.025395071870566034
40
-0.025395071870566034
40
-0.022812843760155209
40
-0.022812843760155209
40
-0.022812843760155209
40
-0.020251075908414823
40
-0.020251075908414823
40
-0.020251075908414823
40
-0.017690658088389436
40
-0.017690658088389436
40
-0.017690658088389436
40
-0.015132415607516556
40
-0.015132415607516556
40
-0.015132415607516556
40
-0.012591210677189154
40
-0.012591210677189154
40
-0.012591210677189154
40
-0.01005485047867213
40
-0.01005485047867213
40
-0.01005485047867213
40
-0.0075248868429824371
40
-0.0075248868429824371
40
-0.0075248868429824371
40
-0.0050092896420430716
40
-0.0050092896420430716
40
-0.0050092896420430716
40
-0.0025011935617174795
40
-0.0025011935617174795
40
-0.0025011935617174795
40
-0
40
-0
40
-0
40
-0
10
770.0311977259164
20
204.26194671059474
30
0
10
770.04508128193481
20
204.27156390699531
30
0
10
770.05897388695018
20
204.28117752013935
30
0
10
770.0728769601925
20
204.29078446516289
30
0
10
770.08483658182797
20
204.29904849611162
30
0
10
770.09680395044882
20
204.30730759268513
30
0
10
770.10878000849448
20
204.31555978623447
30
0
10
770.12074860794723
20
204.32380684038392
30
0
10
770.13272588568793
20
204.33204700017697
30
0
10
770.14471281812814
20
204.34027829865244
30
0
10
770.15665785401779
20
204.34848082721402
30
0
10
770.16861247726342
20
204.35667455614183
30
0
10
770.18057768807
20
204.36485754018679
30
0
10
770.19253399408353
20
204.37303443426151
30
0
10
770.20450087196082
20
204.38120059926379
30
0
10
770.21647935436806
20
204.38935409698925
30
0
10
770.22844914738641
20
204.39750168003286
30
0
10
770.24043052784236
20
204.40563661423053
30
0
10
770.25242456625108
20
204.4137569664326
30
0
10
770.26435213827131
20
204.42183231873852
30
0
10
770.27629644323667
20
204.42989612270023
30
0
10
770.28827080283406
20
204.43795459001618
30
0
10
770.3002120200905
20
204.44599075330274
30
0
10
770.31217933390553
20
204.45401904029973
30
0
10
770.32417303292755
20
204.46203679487371
30
0
10
770.33613442499291
20
204.47003295233654
30
0
10
770.34812205998151
20
204.47801863396538
30
0
10
770.3601363143747
20
204.48599120688715
30
0
10
770.37205374927407
20
204.49389953108823
30
0
10
770.38399737614918
20
204.50179495686336
30
0
10
770.39596765164606
20
204.50967492003383
30
0
10
770.40790828670538
20
204.51753537107564
30
0
10
770.41987543832738
20
204.52538043589266
30
0
10
770.43186965246775
20
204.53320757620378
30
0
10
770.44383530873733
20
204.54101608032414
30
0
10
770.45582789845002
20
204.54880674519291
30
0
10
770.46784806249718
20
204.55657705684257
30
0
10
770.47975924956847
20
204.56427692144499
30
0
10
770.49169751292357
20
204.5719568003131
30
0
10
770.5036635799438
20
204.57961425133317
30
0
10
770.51560299965536
20
204.58725464992813
30
0
10
770.52757009889933
20
204.59487272057839
30
0
10
770.53956570903165
20
204.60246604047131
30
0
10
770.55153504412715
20
204.61004272804973
30
0
10
770.56353276492996
20
204.61759477332052
30
0
10
770.57555981062069
20
204.62511977159377
30
0
10
770.58746442253209
20
204.63256816635194
30
0
10
770.59939776509327
20
204.63999006213584
30
0
10
770.61136086336774
20
204.64738312801143
30
0
10
770.62329823175219
20
204.65476029309204
30
0
10
770.6352652275898
20
204.66210875235942
30
0
10
770.64726298850883
20
204.66942618830427
30
0
10
770.659234795055
20
204.67672779467364
30
0
10
770.67123723328632
20
204.68399851209603
30
0
10
770.68327155874363
20
204.69123603247621
30
0
10
770.69516903886779
20
204.69839125319697
30
0
10
770.7070976849011
20
204.7055140279235
30
0
10
770.71905883744989
20
204.71260211602669
30
0
10
770.73099339208511
20
204.71967444240835
30
0
10
770.74296030840117
20
204.72671223669545
30
0
10
770.75496105006539
20
204.73371325757856
30
0
10
770.76693426896043
20
204.74069822216399
30
0
10
770.77894115782385
20
204.74764658233181
30
0
10
770.79098330686656
20
204.75455609053984
30
0
10
770.80287333549722
20
204.76137831555351
30
0
10
770.81479773897149
20
204.76816266450115
30
0
10
770.82675818375401
20
204.77490694630023
30
0
10
770.83868915840935
20
204.78163461041942
30
0
10
770.85065599665131
20
204.7883224052359
30
0
10
770.86266049129631
20
204.79496812040207
30
0
10
770.87463220974519
20
204.80159569059248
30
0
10
770.88663733015278
20
204.80817923170059
30
0
10
770.8986950549895
20
204.81472583433484
30
0
10
770.91056661866196
20
204.82117136291203
30
0
10
770.92248801934159
20
204.82758039149954
30
0
10
770.9344591021943
20
204.83394923058444
30
0
10
770.94637734486184
20
204.84028995770649
30
0
10
770.95834483133763
20
204.8465908494401
30
0
10
770.97036156586171
20
204.85284828164299
30
0
10
770.98232775445126
20
204.85907939323798
30
0
10
770.99434277686851
20
204.86526741033623
30
0
10
771.0064068031129
20
204.87140877024711
30
0
10
771.0182776740977
20
204.87745180179371
30
0
10
771.03019599184199
20
204.88344965853651
30
0
10
771.04216208606749
20
204.88939895951913
30
0
10
771.05408206831896
20
204.89532533455716
30
0
10
771.06604945872402
20
204.9012035277255
30
0
10
771.07806475843847
20
204.90703020766443
30
0
10
771.09003491374563
20
204.91283499534774
30
0
10
771.10205261817646
20
204.9185886566824
30
0
10
771.11411855123583
20
204.92428790430597
30
0
10
771.12598796943075
20
204.92989432969455
30
0
10
771.13790405766861
20
204.93544809998571
30
0
10
771.14986764736454
20
204.94094608643081
30
0
10
771.16178780746463
20
204.9464241143738
30
0
10
771.17375512399121
20
204.95184676348774
30
0
10
771.18577061109715
20
204.95721093207112
30
0
10
771.19774228711253
20
204.96255554172416
30
0
10
771.20976178232911
20
204.96784209742702
30
0
10
771.22183029935866
20
204.97306751494418
30
0
10
771.23369778708616
20
204.9782058909438
30
0
10
771.24561267691001
20
204.9832851495037
30
0
10
771.25757630885823
20
204.98830233193715
30
0
10
771.26949519863319
20
204.99330075086746
30
0
10
771.28146246608685
20
204.99823755825329
30
0
10
771.29347963411999
20
205.00310979265873
30
0
10
771.30545035543616
20
205.00796319573118
30
0
10
771.31747059188751
20
205.01275252531923
30
0
10
771.32954204748171
20
205.01747480679205
30
0
10
771.34140755565431
20
205.02211652286124
30
0
10
771.35332255038452
20
205.02669346028372
30
0
10
771.36528883932044
20
205.03120273503953
30
0
10
771.37720726458667
20
205.03569397325631
30
0
10
771.38917760102072
20
205.04011843217981
30
0
10
771.40119265078943
20
205.04446995497824
30
0
10
771.4131670718707
20
205.048806763176
30
0
10
771.42518741386903
20
205.05307171001161
30
0
10
771.43725379648345
20
205.05726143626052
30
0
10
771.44912637849802
20
205.06138387047287
30
0
10
771.46104353335272
20
205.06543348159124
30
0
10
771.47300552478032
20
205.06940708715075
30
0
10
771.484928945192
20
205.07336787996047
30
0
10
771.496896912323
20
205.07725315743653
30
0
10
771.50890984308387
20
205.08105978678697
30
0
10
771.52088354876298
20
205.08485398658541
30
0
10
771.53290192365159
20
205.08857005214287
30
0
10
771.54496554372781
20
205.0922049003785
30
0
10
771.55684214904659
20
205.0957833998352
30
0
10
771.56876260684783
20
205.09928318174155
30
0
10
771.58072763301243
20
205.1027013160946
30
0
10
771.59265142729453
20
205.1061076714418
30
0
10
771.60461948242369
20
205.10943294227812
30
0
10
771.61663268684777
20
205.11267422116759
30
0
10
771.6286023764535
20
205.11590375933764
30
0
10
771.64061688837376
20
205.11904991415861
30
0
10
771.65267729185075
20
205.12210978112029
30
0
10
771.66455789493295
20
205.12512403059591
30
0
10
771.67648303164333
20
205.12805454681654
30
0
10
771.68845390844683
20
205.13089851356054
30
0
10
771.70037658114302
20
205.13373102827134
30
0
10
771.71234462589553
20
205.13647769073188
30
0
10
771.72435940656317
20
205.13913568818109
30
0
10
771.73632244779822
20
205.14178223945549
30
0
10
771.74833182265672
20
205.1443408899635
30
0
10
771.76038903997392
20
205.14680883826225
30
0
10
771.77227498559455
20
205.14924172957552
30
0
10
771.7842074240109
20
205.15158647949434
30
0
10
771.79618795585884
20
205.15384036536861
30
0
10
771.80814055177041
20
205.15608899568218
30
0
10
771.82010990803019
20
205.15824131349919
30
0
10
771.83209463203741
20
205.16029560989995
30
0
10
771.84408036232003
20
205.16235007878595
30
0
10
771.8560821570652
20
205.16430663968515
30
0
10
771.8681007862956
20
205.16616394476117
30
0
10
771.8800241860373
20
205.16800653349893
30
0
10
771.89196415507752
20
205.16975143148511
30
0
10
771.90392150895332
20
205.17139730337934
30
0
10
771.91587256139667
20
205.17304230791189
30
0
10
771.92784097929814
20
205.1745883917732
30
0
10
771.93982762801295
20
205.17603426382584
30
0
10
771.95180409283296
20
205.17747890746102
30
0
10
771.96379875533478
20
205.1788235142615
30
0
10
771.97581253765657
20
205.1800668584518
30
0
10
771.9877463098054
20
205.18130192213718
30
0
10
771.99969894633432
20
205.18243707408675
30
0
10
772.01167143110138
20
205.18347111847092
30
0
10
772.02362109068144
20
205.18450319148013
30
0
10
772.0355905236346
20
205.18543454308653
30
0
10
772.04758080153329
20
205.18626389226836
30
0
10
772.05954084060136
20
205.18709114987649
30
0
10
772.0715216214312
20
205.18781691168894
30
0
10
772.08352428434296
20
205.18843982965728
30
0
10
772.09545878996153
20
205.18905921037702
30
0
10
772.10741493048261
20
205.18957689860781
30
0
10
772.11939388512008
20
205.18999163110723
30
0
10
772.1313371203729
20
205.19040512693874
30
0
10
772.14330303237762
20
205.1907162693976
30
0
10
772.15529286019091
20
205.19092399151913
30
0
10
772.16724969085931
20
205.19113114196966
30
0
10
772.17923030340057
20
205.19123543518236
30
0
10
772.19123603246601
20
205.19123603247604
30
0
0
SPLINE
5
110
100
AcDbEntity
8
OUTER_PROFILES
100
AcDbSpline
70
0
71
3
72
14
73
10
74
0
42
0.000000001
43
0.0000000001
44
0.0000000001
40
-0.19017597562230504
40
-0.19017597562230504
40
-0.19017597562230504
40
-0.19017597562230504
40
-0.18668332065222848
40
-0.18668332065222848
40
-0.18668332065222848
40
-0.1831947203117677
40
-0.1831947203117677
40
-0.1831947203117677
40
-0.18027202987979113
40
-0.18027202987979113
40
-0.18027202987979113
40
-0.18027202987979113
10
769.9292893218817
20
204.19123603247624
30
0
10
769.94125426854009
20
204.19954506519704
30
0
10
769.95322351039363
20
204.20785706641334
30
0
10
769.96519790246589
20
204.2161700423591
30
0
10
769.97715839344437
20
204.22447336775571
30
0
10
769.98912402348822
20
204.23277766488792
30
0
10
770.00109565940284
20
204.2410809497363
30
0
10
770.01112529373404
20
204.24803730151407
30
0
10
770.02115914328965
20
204.25499294308895
30
0
10
770.03119772591674
20
204.26194671059494
30
0
0
ARC
5
111
100
AcDbEntity
8
OUTER_PROFILES
100
AcDbCircle
10
769.8939339828222
20
204.22659137153556
30
0
40
0.04999999999999237
210
0
220
0
230
1
100
AcDbArc
50
134.99999999983882
51
315.00000000013813
0
SPLINE
5
112
100
AcDbEntity
8
OUTER_PROFILES
100
AcDbSpline
70
0
71
3
72
14
73
10
74
0
42
0.000000001
43
0.0000000001
44
0.0000000001
40
-0.010030481021642968
40
-0.010030481021642968
40
-0.010030481021642968
40
-0.010030481021642968
40
-0.0070633763710386231
40
-0.0070633763710386231
40
-0.0070633763710386231
40
-0.0035294938857057803
40
-0.0035294938857057803
40
-0.0035294938857057803
40
-0
40
-0
40
-0
40
-0
10
769.92928932188181
20
204.36385511490269
30
0
10
769.92234243958137
20
204.35382647235286
30
0
10
769.91538682551686
20
204.34379265028767
30
0
10
769.90842356009227
20
204.33375304811443
30
0
10
769.90013016817568
20
204.32179567604379
30
0
10
769.89182592209204
20
204.30983010622643
30
0
10
769.88351265265703
20
204.29785529118277
30
0
10
769.87520970716776
20
204.28589534722471
30
0
10
769.86689776139531
20
204.27392618019115
30
0
10
769.85857864376294
20
204.26194671059858
30
0
0
SPLINE
5
113
100
AcDbEntity
8
OUTER_PROFILES
100
AcDbSpline
70
0
71
3
72
182
73
178
74
0
42
0.000000001
43
0.0000000001
44
0.0000000001
40
-0.21612595119614758
40
-0.21612595119614758
40
-0.21612595119614758
40
-0.21612595119614758
40
-0.21305620080320919
40
-0.21305620080320919
40
-0.21305620080320919
40
-0.20997764539778782
40
-0.20997764539778782
40
-0.20997764539778782
40
-0.20378125954463103
40
-0.20378125954463103
40
-0.20378125954463103
40
-0.20066475977609138
40
-0.20066475977609138
40
-0.20066475977609138
40
-0.19754120759839466
40
-0.19754120759839466
40
-0.19754120759839466
40
-0.19439559278088661
40
-0.19439559278088661
40
-0.19439559278088661
40
-0.19124616422996282
40
-0.19124616422996282
40
-0.19124616422996282
40
-0.18809391764756361
40
-0.18809391764756361
40
-0.18809391764756361
40
-0.18491530163571093
40
-0.18491530163571093
40
-0.18491530163571093
40
-0.18173572997187507
40
-0.18173572997187507
40
-0.18173572997187507
40
-0.17855614969552336
40
-0.17855614969552336
40
-0.17855614969552336
40
-0.17533605210568265
40
-0.17533605210568265
40
-0.17533605210568265
40
-0.17210071408003694
40
-0.17210071408003694
40
-0.17210071408003694
40
-0.16885108814115821
40
-0.16885108814115821
40
-0.16885108814115821
40
-0.16555117355619908
40
-0.16555117355619908
40
-0.16555117355619908
40
-0.16223827412761049
40
-0.16223827412761049
40
-0.16223827412761049
40
-0.15891306214081224
40
-0.15891306214081224
40
-0.15891306214081224
40
-0.1555347531498763
40
-0.1555347531498763
40
-0.1555347531498763
40
-0.1521447724524285
40
-0.1521447724524285
40
-0.1521447724524285
40
-0.14874335510884226
40
-0.14874335510884226
40
-0.14874335510884226
40
-0.14528606820790338
40
-0.14528606820790338
40
-0.14528606820790338
40
-0.1418170829265836
40
-0.1418170829265836
40
-0.1418170829265836
40
-0.13833620612342437
40
-0.13833620612342437
40
-0.13833620612342437
40
-0.1347966032925825
40
-0.1347966032925825
40
-0.1347966032925825
40
-0.13125460820955487
40
-0.13125460820955487
40
-0.13125460820955487
40
-0.12772375134756545
40
-0.12772375134756545
40
-0.12772375134756545
40
-0.12415825691895421
40
-0.12415825691895421
40
-0.12415825691895421
40
-0.12060534452254543
40
-0.12060534452254543
40
-0.12060534452254543
40
-0.11706549084817677
40
-0.11706549084817677
40
-0.11706549084817677
40
-0.11349400116052637
40
-0.11349400116052637
40
-0.11349400116052637
40
-0.10993673994383633
40
-0.10993673994383633
40
-0.10993673994383633
40
-0.10639405770588421
40
-0.10639405770588421
40
-0.10639405770588421
40
-0.10282333582664331
40
-0.10282333582664331
40
-0.10282333582664331
40
-0.099268154238632306
40
-0.099268154238632306
40
-0.099268154238632306
40
-0.09572876455266742
40
-0.09572876455266742
40
-0.09572876455266742
40
-0.092165410678897552
40
-0.092165410678897552
40
-0.092165410678897552
40
-0.088618635746035235
40
-0.088618635746035235
40
-0.088618635746035235
40
-0.085088615427304337
40
-0.085088615427304337
40
-0.085088615427304337
40
-0.08153908073856872
40
-0.08153908073856872
40
-0.08153908073856872
40
-0.078006953143249874
40
-0.078006953143249874
40
-0.078006953143249874
40
-0.074491773581278994
40
-0.074491773581278994
40
-0.074491773581278994
40
-0.070951960501698746
40
-0.070951960501698746
40
-0.070951960501698746
40
-0.067417181477786192
40
-0.067417181477786192
40
-0.067417181477786192
40
-0.063887556095849438
40
-0.063887556095849438
40
-0.063887556095849438
40
-0.060334664350267173
40
-0.060334664350267173
40
-0.060334664350267173
40
-0.056787208751720414
40
-0.056787208751720414
40
-0.056787208751720414
40
-0.053245262368572605
40
-0.053245262368572605
40
-0.053245262368572605
40
-0.049684712163886702
40
-0.049684712163886702
40
-0.049684712163886702
40
-0.04612979590640072
40
-0.04612979590640072
40
-0.04612979590640072
40
-0.042580515242187839
40
-0.042580515242187839
40
-0.042580515242187839
40
-0.039017356763876486
40
-0.039017356763876486
40
-0.039017356763876486
40
-0.035459997617237254
40
-0.035459997617237254
40
-0.035459997617237254
40
-0.031908492577942239
40
-0.031908492577942239
40
-0.031908492577942239
40
-0.028348043492352273
40
-0.028348043492352273
40
-0.028348043492352273
40
-0.024793324751370034
40
-0.024793324751370034
40
-0.024793324751370034
40
-0.02124422230059243
40
-0.02124422230059243
40
-0.02124422230059243
40
-0.017690941176048292
40
-0.017690941176048292
40
-0.017690941176048292
40
-0.014143719586217745
40
-0.014143719586217745
40
-0.014143719586217745
40
-0.010030481021351232
40
-0.010030481021351232
40
-0.010030481021351232
40
-0.010030481021351232
10
770.85857864376385
20
206.5238934211803
30
0
10
770.85857804703505
20
206.51190009400375
30
0
10
770.85847376662412
20
206.49990785669593
30
0
10
770.85826660270629
20
206.48795024967603
30
0
10
770.85805884457704
20
206.47595834446719
30
0
10
770.85774766654959
20
206.46399244293033
30
0
10
770.85733424230102
20
206.45205127457021
30
0
10
770.85650211949405
20
206.42801659695277
30
0
10
770.85525574751364
20
206.40408205831079
30
0
10
770.85360650369103
20
206.38023818918865
30
0
10
770.85277700918994
20
206.36824580937866
30
0
10
770.85184562186168
20
206.35627638064472
30
0
10
770.85081372999753
20
206.3443288180892
30
0
10
770.84977950303801
20
206.33235421908068
30
0
10
770.84864431508618
20
206.32040158456405
30
0
10
770.84740946998886
20
206.3084699249352
30
0
10
770.84616590278915
20
206.29645398820972
30
0
10
770.84482125894681
20
206.2844593253497
30
0
10
770.84337687526738
20
206.27248501646494
30
0
10
770.84193074042173
20
206.26049618996615
30
0
10
770.84038461893999
20
206.2485277690019
30
0
10
770.83873991467453
20
206.236578898734
30
0
10
770.83709373876809
20
206.22461933690985
30
0
10
770.83534880247271
20
206.21267936185913
30
0
10
770.83350655594563
20
206.2007581768126
30
0
10
770.83164889850786
20
206.18873726769951
30
0
10
770.82969229756316
20
206.17673546374735
30
0
10
770.82763822106301
20
206.16475202240761
30
0
10
770.82558352700403
20
206.15276497824215
30
0
10
770.82343129943467
20
206.14079630745971
30
0
10
770.82118297658599
20
206.12884534543807
30
0
10
770.81893464764721
20
206.11689435104483
30
0
10
770.81658886588275
20
206.10495448172273
30
0
10
770.81415144955008
20
206.09304642869006
30
0
10
770.81168297328088
20
206.08098663162963
30
0
10
770.80912429927196
20
206.06897734320879
30
0
10
770.80647829950351
20
206.05701679484625
30
0
10
770.80381977645334
20
206.04499963827095
30
0
10
770.80107309674963
20
206.03303168447979
30
0
10
770.79824112487381
20
206.02111129681816
30
0
10
770.79539664643221
20
206.00913826629096
30
0
10
770.79246611911321
20
205.99721322301218
30
0
10
770.78945239240807
20
205.98533468056746
30
0
10
770.78639202764737
20
205.97327231517568
30
0
10
770.78324586743224
20
205.96125790044383
30
0
10
770.78001683244111
20
205.94929007583104
30
0
10
770.77677509151067
20
205.93727515898991
30
0
10
770.77344982093177
20
205.92530719986388
30
0
10
770.77004392737183
20
205.91338502198428
30
0
10
770.76662537563607
20
205.90141853472787
30
0
10
770.76312559906341
20
205.88949817030735
30
0
10
770.75954751166614
20
205.87762293244484
30
0
10
770.75591228934877
20
205.86555807071585
30
0
10
770.75219623395787
20
205.85353978878726
30
0
10
770.74840239808043
20
205.84156723144363
30
0
10
770.74459545489435
20
205.82955331015853
30
0
10
770.74071019154894
20
205.81758543108893
30
0
10
770.73674969844262
20
205.8056629128005
30
0
10
770.73277584397442
20
205.79370017197547
30
0
10
770.72872625024957
20
205.7817830995989
30
0
10
770.72460404754815
20
205.76991118432235
30
0
10
770.7204141361193
20
205.75784426837868
30
0
10
770.71614921005835
20
205.74582400579982
30
0
10
770.71181256626369
20
205.73385003874645
30
0
10
770.70746124861944
20
205.72183555552382
30
0
10
770.70303772634543
20
205.709867682788
30
0
10
770.69854534632555
20
205.69794622765357
30
0
10
770.69403756663382
20
205.68598390631979
30
0
10
770.68946045570169
20
205.67406832252928
30
0
10
770.68481741807943
20
205.66219943619953
30
0
10
770.68009604756242
20
205.6501303093595
30
0
10
770.67530650659228
20
205.63810946977668
30
0
10
770.6704524039468
20
205.62613702300527
30
0
10
770.66559502064013
20
205.61415648461644
30
0
10
770.66066053952977
20
205.60219354750404
30
0
10
770.65564494322507
20
205.59023369769426
30
0
10
770.65064511905393
20
205.57831145704196
30
0
10
770.64556640966953
20
205.56639653449125
30
0
10
770.64041012623181
20
205.55448768807702
30
0
10
770.63520325985667
20
205.54246201634894
30
0
10
770.62991728958093
20
205.53044254079276
30
0
10
770.62455354335884
20
205.51842799974804
30
0
10
770.61920872489793
20
205.50645585600489
30
0
10
770.61378667801387
20
205.49448861232975
30
0
10
770.60828869771842
20
205.48252503603007
30
0
10
770.60281092523792
20
205.47060543182988
30
0
10
770.597257776128
20
205.45868946842484
30
0
10
770.59163051559358
20
205.44677593995428
30
0
10
770.58595296368946
20
205.43475593913217
30
0
10
770.58019996945734
20
205.42273841726222
30
0
10
770.57437281895216
20
205.41072214718807
30
0
10
770.56856888325342
20
205.39875374877667
30
0
10
770.56269138065591
20
205.38678659254728
30
0
10
770.55674157080705
20
205.3748194748095
30
0
10
770.55081614549056
20
205.36290140276847
30
0
10
770.54481900412486
20
205.35098336922434
30
0
10
770.53875138153455
20
205.3390641918316
30
0
10
770.53263573489073
20
205.32705067646668
30
0
10
770.52644848670195
20
205.31503599936966
30
0
10
770.52019089292901
20
205.30301895456677
30
0
10
770.51396053309713
20
205.291054209658
30
0
10
770.50766043844067
20
205.27908711791537
30
0
10
770.5012918418696
20
205.26711649090274
30
0
10
770.49495153422015
20
205.25519903669289
30
0
10
770.48854333167708
20
205.24327807884418
30
0
10
770.48206844562219
20
205.23135244370866
30
0
10
770.4755497199792
20
205.21934606353364
30
0
10
770.46896340461353
20
205.20733494281447
30
0
10
770.46231073169361
20
205.19531788002166
30
0
10
770.4556890111503
20
205.18335672808723
30
0
10
770.44900154893583
20
205.17138968951986
30
0
10
770.4422495575933
20
205.15941557247771
30
0
10
770.43552946199031
20
205.14749801998062
30
0
10
770.42874544534709
20
205.13557345598099
30
0
10
770.42189870182722
20
205.12364069558589
30
0
10
770.41501410869898
20
205.11164196947945
30
0
10
770.40806609313677
20
205.09963495637038
30
0
10
770.40105586885534
20
205.08761843878301
30
0
10
770.39408002305993
20
205.07566085079134
30
0
10
770.38704257708036
20
205.06369385155534
30
0
10
770.37994472729974
20
205.05171622616837
30
0
10
770.37288093478105
20
205.03979607242954
30
0
10
770.36575294813065
20
205.02785815929803
30
0
10
770.35857864376339
20
205.01592894746329
30
0
10
770.35135406362792
20
205.00391613863314
30
0
10
770.34408349718524
20
204.99191364828363
30
0
10
770.33676879961627
20
204.97992037722835
30
0
10
770.32946450445945
20
204.96794416210025
30
0
10
770.32211620348198
20
204.95597714037129
30
0
10
770.31472573933138
20
204.94401825208709
30
0
10
770.30734605034002
20
204.93207679963922
30
0
10
770.29992432095059
20
204.92014345721176
30
0
10
770.29246238288101
20
204.90821719934033
30
0
10
770.28495125767517
20
204.89621232670882
30
0
10
770.27739939189928
20
204.88421463256532
30
0
10
770.26980865169992
20
204.87222309775231
30
0
10
770.26222952580861
20
204.86024991073907
30
0
10
770.25461164429362
20
204.84828286451176
30
0
10
770.24695686254313
20
204.83632096866489
30
0
10
770.23931396870523
20
204.82437764969916
30
0
10
770.23163428907105
20
204.8124394654445
30
0
10
770.22391966812972
20
204.80050545121748
30
0
10
770.21616452669036
20
204.7885087544293
30
0
10
770.20837407583701
20
204.77651627190792
30
0
10
770.20055018762741
20
204.76452704118725
30
0
10
770.19273867935101
20
204.75255678132473
30
0
10
770.18489383943108
20
204.74058976323801
30
0
10
770.17701753150141
20
204.72862504036584
30
0
10
770.16915370984839
20
204.71667928511678
30
0
10
770.16125851993013
20
204.7047358179741
30
0
10
770.15333381817425
20
204.69279370309437
30
0
10
770.14537813055176
20
204.68080489411915
30
0
10
770.13739269993084
20
204.66881744812855
30
0
10
770.12937940583242
20
204.65683042164611
30
0
10
770.12137915402502
20
204.64486290502907
30
0
10
770.11335112934364
20
204.63289580681339
30
0
10
770.10529720084935
20
204.62092819155066
30
0
10
770.09725652616476
20
204.60898027058971
30
0
10
770.0891900327581
20
204.59703183463608
30
0
10
770.08109957771944
20
204.5850819549685
30
0
10
770.07298874782464
20
204.57310198093927
30
0
10
770.06485383528286
20
204.56112055638741
30
0
10
770.05669670935072
20
204.54913674308997
30
0
10
770.04855271185875
20
204.53717221707296
30
0
10
770.04038657241995
20
204.52520531022697
30
0
10
770.03220015375462
20
204.51323507679695
30
0
10
770.02402666924991
20
204.50128375577879
30
0
10
770.01583296976435
20
204.48932911860049
30
0
10
770.0076209128548
20
204.47737020685295
30
0
10
769.99939918716063
20
204.46539721481574
30
0
10
769.99115906096574
20
204.45341993810874
30
0
10
769.98290240007736
20
204.44143739720693
30
0
10
769.97465981956168
20
204.42947529055172
30
0
10
769.96640076063738
20
204.41750793792991
30
0
10
769.9581270778308
20
204.40553434889557
30
0
10
769.94853319418644
20
204.39165017872793
30
0
10
769.93891964758382
20
204.37775762396404
30
0
10
769.92928932187965
20
204.36385511490329
30
0
0
LINE
5
114
100
AcDbEntity
8
OUTER_PROFILES
100
AcDbLine
10
770.85857864376385
20
206.5238934211803
30
0
11
770.85857864376271
21
223.52389342117993
31
0
0
LINE
5
115
100
AcDbEntity
8
OUTER_PROFILES
100
AcDbLine
10
770.85857864376271
20
223.52389342117993
30
0
11
-1.4210854715202004e-13
21
223.52389342116939
31
0
0
LINE
5
116
100
AcDbEntity
8
OUTER_PROFILES
100
AcDbLine
10
-1.4210854715202004e-13
20
223.52389342116939
30
0
11
-1.4210854715202004e-13
21
206.52389342117047
31
0
0
SPLINE
5
117
100
AcDbEntity
8
OUTER_PROFILES
100
AcDbSpline
70
0
71
3
72
185
73
181
74
0
42
0.000000001
43
0.0000000001
44
0.0000000001
40
-0.18027200160377421
40
-0.18027200160377421
40
-0.18027200160377421
40
-0.18027200160377421
40
-0.17622986444521568
40
-0.17622986444521568
40
-0.17622986444521568
40
-0.17275276048807225
40
-0.17275276048807225
40
-0.17275276048807225
40
-0.16927782204517977
40
-0.16927782204517977
40
-0.16927782204517977
40
-0.16581502915752752
40
-0.16581502915752752
40
-0.16581502915752752
40
-0.16235481336327068
40
-0.16235481336327068
40
-0.16235481336327068
40
-0.15889710766783166
40
-0.15889710766783166
40
-0.15889710766783166
40
-0.15545856322160878
40
-0.15545856322160878
40
-0.15545856322160878
40
-0.15202953589152104
40
-0.15202953589152104
40
-0.15202953589152104
40
-0.14860974520459058
40
-0.14860974520459058
40
-0.14860974520459058
40
-0.14521751365388147
40
-0.14521751365388147
40
-0.14521751365388147
40
-0.14183368185059073
40
-0.14183368185059073
40
-0.14183368185059073
40
-0.13845790685611203
40
-0.13845790685611203
40
-0.13845790685611203
40
-0.13511273725114695
40
-0.13511273725114695
40
-0.13511273725114695
40
-0.13177501702907832
40
-0.13177501702907832
40
-0.13177501702907832
40
-0.12844460771183921
40
-0.12844460771183921
40
-0.12844460771183921
40
-0.12514810153633338
40
-0.12514810153633338
40
-0.12514810153633338
40
-0.1218586853947127
40
-0.1218586853947127
40
-0.1218586853947127
40
-0.11857638514418202
40
-0.11857638514418202
40
-0.11857638514418202
40
-0.11533140875494709
40
-0.11533140875494709
40
-0.11533140875494709
40
-0.11209364819378879
40
-0.11209364819378879
40
-0.11209364819378879
40
-0.10886331318608106
40
-0.10886331318608106
40
-0.10886331318608106
40
-0.10567378483996924
40
-0.10567378483996924
40
-0.10567378483996924
40
-0.1024921153835554
40
-0.1024921153835554
40
-0.1024921153835554
40
-0.099319132911128094
40
-0.099319132911128094
40
-0.099319132911128094
40
-0.096195138584512535
40
-0.096195138584512535
40
-0.096195138584512535
40
-0.093084933497059472
40
-0.093084933497059472
40
-0.093084933497059472
40
-0.0899878108257086
40
-0.0899878108257086
40
-0.0899878108257086
40
-0.086940275684408749
40
-0.086940275684408749
40
-0.086940275684408749
40
-0.083904484361671944
40
-0.083904484361671944
40
-0.083904484361671944
40
-0.080880099231092434
40
-0.080880099231092434
40
-0.080880099231092434
40
-0.07790497149751073
40
-0.07790497149751073
40
-0.07790497149751073
40
-0.074940643898297812
40
-0.074940643898297812
40
-0.074940643898297812
40
-0.071987124864152527
40
-0.071987124864152527
40
-0.071987124864152527
40
-0.069082803561550887
40
-0.069082803561550887
40
-0.069082803561550887
40
-0.066189343974500464
40
-0.066189343974500464
40
-0.066189343974500464
40
-0.063307067702785838
40
-0.063307067702785838
40
-0.063307067702785838
40
-0.060473965075798809
40
-0.060473965075798809
40
-0.060473965075798809
40
-0.057652194502389321
40
-0.057652194502389321
40
-0.057652194502389321
40
-0.054839965667343976
40
-0.054839965667343976
40
-0.054839965667343976
40
-0.052072904567516461
40
-0.052072904567516461
40
-0.052072904567516461
40
-0.049314765732335973
40
-0.049314765732335973
40
-0.049314765732335973
40
-0.046565632865459658
40
-0.046565632865459658
40
-0.046565632865459658
40
-0.043859118085031908
40
-0.043859118085031908
40
-0.043859118085031908
40
-0.0411619300577728
40
-0.0411619300577728
40
-0.0411619300577728
40
-0.038474511933067994
40
-0.038474511933067994
40
-0.038474511933067994
40
-0.035827158705849342
40
-0.035827158705849342
40
-0.035827158705849342
40
-0.033190465762058301
40
-0.033190465762058301
40
-0.033190465762058301
40
-0.030565127196909191
40
-0.030565127196909191
40
-0.030565127196909191
40
-0.027977081287380003
40
-0.027977081287380003
40
-0.027977081287380003
40
-0.025395070165852636
40
-0.025395070165852636
40
-0.025395070165852636
40
-0.022812842296767572
40
-0.022812842296767572
40
-0.022812842296767572
40
-0.020251074747035622
40
-0.020251074747035622
40
-0.020251074747035622
40
-0.017690657261297156
40
-0.017690657261297156
40
-0.017690657261297156
40
-0.015132415081028342
40
-0.015132415081028342
40
-0.015132415081028342
40
-0.012591210356902841
40
-0.012591210356902841
40
-0.012591210356902841
40
-0.010054850264376908
40
-0.010054850264376908
40
-0.010054850264376908
40
-0.0075248866754648695
40
-0.0075248866754648695
40
-0.0075248866754648695
40
-0.0050092895125355575
40
-0.0050092895125355575
40
-0.0050092895125355575
40
-0.0025011934867206959
40
-0.0025011934867206959
40
-0.0025011934867206959
40
-0
40
-0
40
-0
40
-0
10
0.92928932187973601
20
204.36385511461532
30
0
10
0.91967212548070165
20
204.37773867062941
30
0
10
0.91005851233575186
20
204.39163127564495
30
0
10
0.9004515673089486
20
204.40553434889168
30
0
10
0.8921875363623144
20
204.41749397052408
30
0
10
0.88392843978922997
20
204.42946133914478
30
0
10
0.87567624623844154
20
204.44143739719317
30
0
10
0.86742919209186198
20
204.45340599664246
30
0
10
0.8591890322999518
20
204.46538327438225
30
0
10
0.85095773382377615
20
204.47737020682393
30
0
10
0.84275520526460923
20
204.48931524271046
30
0
10
0.83456147633725664
20
204.50126986595549
30
0
10
0.82637849229115545
20
204.51323507676349
30
0
10
0.81820159821774041
20
204.52519138277509
30
0
10
0.81003543321529037
20
204.53715826065257
30
0
10
0.80188193548806908
20
204.54913674306215
30
0
10
0.79373435244548318
20
204.56110653607885
30
0
10
0.78559941824735802
20
204.57308791653554
30
0
10
0.77747906604358263
20
204.58508195494701
30
0
10
0.76940371364770499
20
204.5970095271004
30
0
10
0.76133990975918664
20
204.6089538319583
30
0
10
0.75328144245943918
20
204.62092819153187
30
0
10
0.74524527918114813
20
204.63286940877663
30
0
10
0.73721699218410208
20
204.64483672259203
30
0
10
0.72919923760210281
20
204.65683042162573
30
0
10
0.72120308014689272
20
204.66879181367926
30
0
10
0.71321739851811117
20
204.68077944866718
30
0
10
0.70524482558923296
20
204.69279370307032
30
0
10
0.6973365013946875
20
204.70471113795907
30
0
10
0.68944107561918599
20
204.71665476483398
30
0
10
0.68156111244221051
20
204.72862504034012
30
0
10
0.67370066140625795
20
204.74056567539006
30
0
10
0.66585559658904003
20
204.75253282701246
30
0
10
0.6580284562720351
20
204.76452704116224
30
0
10
0.65021995215715833
20
204.77649269742389
30
0
10
0.64242928728830861
20
204.78848528713763
30
0
10
0.63465897563347085
20
204.8005054511936
30
0
10
0.62695911103602953
20
204.8124166382581
30
0
10
0.61927923216757108
20
204.82435490161396
30
0
10
0.61162178114273047
20
204.83632096864173
30
0
10
0.60398138255209233
20
204.84826038834649
30
0
10
0.59636331190191072
20
204.86022748759055
30
0
10
0.58876999200478508
20
204.87222309772909
30
0
10
0.5811933044302009
20
204.88419243281814
30
0
10
0.57364125915924546
20
204.89619015362069
30
0
10
0.56611626088255207
20
204.90821719931677
30
0
10
0.55866786612781993
20
204.92012181122283
30
0
10
0.55124597034392764
20
204.93205515378429
30
0
10
0.54385290446546719
20
204.94401825206378
30
0
10
0.53647573938775395
20
204.95595562044394
30
0
10
0.5291272801200364
20
204.96792261628195
30
0
10
0.52180984417248055
20
204.97992037720547
30
0
10
0.51450823780527344
20
204.99189218374789
30
0
10
0.50723752038265957
20
205.00389462197958
30
0
10
0.49999999999997158
20
205.01592894744036
30
0
10
0.49284477928097203
20
205.02782642756091
30
0
10
0.48572200455438974
20
205.03975507359371
30
0
10
0.47863391644924036
20
205.05171622614512
30
0
10
0.47156159006902953
20
205.0636507807771
30
0
10
0.46452379578170166
20
205.07561769709321
30
0
10
0.45752277489725657
20
205.0876184387597
30
0
10
0.45053781031285212
20
205.09959165765324
30
0
10
0.44358945014494111
20
205.11159854651791
30
0
10
0.43667994193626214
20
205.12364069556378
30
0
10
0.42985771692343633
20
205.13553072419489
30
0
10
0.42307336797591688
20
205.14745512767163
30
0
10
0.41632908617600606
20
205.15941557245765
30
0
10
0.40960142205776151
20
205.17134654711325
30
0
10
0.40291362724133251
20
205.18331338535646
30
0
10
0.39626791207410861
20
205.19531788000256
30
0
10
0.38964034185312357
20
205.20728959850578
30
0
10
0.3830568007117563
20
205.21929471897235
30
0
10
0.37651019814106235
20
205.23135244368714
30
0
10
0.37006466953599215
20
205.24322400740618
30
0
10
0.36365564094893443
20
205.25514540807978
30
0
10
0.35728680189123452
20
205.26711649087696
30
0
10
0.3509460747427795
20
205.27903473358978
30
0
10
0.34464518300978852
20
205.29100222006304
30
0
10
0.33838775083282258
20
205.30301895453965
30
0
10
0.33215663921325245
20
205.31498514317892
30
0
10
0.32596862211619282
20
205.32700016560227
30
0
10
0.31982726222906877
20
205.33906419181048
30
0
10
0.31378423066158234
20
205.35093506284676
30
0
10
0.30778637392032238
20
205.3628533806023
30
0
10
0.30183707295734052
20
205.37481947479853
30
0
10
0.29591069790257052
20
205.3867394570936
30
0
10
0.29003250473579101
20
205.39870684750255
30
0
10
0.28420582481217593
20
205.41072214718054
30
0
10
0.27840103711497477
20
205.42269230251151
30
0
10
0.27264737578050813
20
205.43471000692693
30
0
10
0.26694812817012803
20
205.4467759399341
30
0
10
0.26134170276662871
20
205.45864535813689
30
0
10
0.25578793247376552
20
205.47056144634738
30
0
10
0.25028994604397781
20
205.48252503598829
30
0
10
0.24481191808234826
20
205.49444519610711
30
0
10
0.23938926896732937
20
205.50641251262567
30
0
10
0.23402510040298807
20
205.5184279997008
30
0
10
0.22868049073125007
20
205.53039967577007
30
0
10
0.22339393503017391
20
205.54241917101891
30
0
10
0.21816851753172273
20
205.55448768805749
30
0
10
0.21303014151982325
20
205.56635517586469
30
0
10
0.20795088296495123
20
205.57827006574658
30
0
10
0.20293370054204729
20
205.59023369772291
30
0
10
0.19793528161073937
20
205.60215258755335
30
0
10
0.19299847422999505
20
205.61411985503349
30
0
10
0.18812623982157106
20
205.62613702305453
30
0
10
0.18327283675745321
20
205.63810774433057
30
0
10
0.17848350716874961
20
205.65012798070345
30
0
10
0.17376122568393271
20
205.66219943618114
30
0
10
0.16911950961699063
20
205.67406494420374
30
0
10
0.16454257218555313
20
205.68597993874775
30
0
10
0.16003329742900974
20
205.69794622747878
30
0
10
0.15554205920338404
20
205.70986465256252
30
0
10
0.1511176002682646
20
205.72183498882902
30
0
10
0.14676607748796755
20
205.73385003842432
30
0
10
0.14242926926044674
20
205.7458244594651
30
0
10
0.13816432242833798
20
205.75784480141206
30
0
10
0.13397459621543817
20
205.76991118396415
30
0
10
0.12985216198174498
20
205.78178376608099
30
0
10
0.1258025508747096
20
205.79370092102849
30
0
10
0.12182894534191746
20
205.80566291252754
30
0
10
0.11786815252236238
20
205.81758633312049
30
0
10
0.11398287505272719
20
205.82955430041272
30
0
10
0.11017624571067586
20
205.84156723130684
30
0
10
0.10638204590364353
20
205.85354093717228
30
0
10
0.10266598034107233
20
205.86555931222077
30
0
10
0.099031132097451291
20
205.87762293242838
30
0
10
0.095452632631491952
20
205.88949953788128
30
0
10
0.091952850713568068
20
205.90141999578978
30
0
10
0.088534716344668141
20
205.91338502203564
30
0
10
0.085128360997259733
20
205.92530881634463
30
0
10
0.081803090155290192
20
205.93727687147469
30
0
10
0.078561811260442482
20
205.94929007587848
30
0
10
0.07533227310403845
20
205.96125976539369
30
0
10
0.07218611829628685
20
205.97327427720271
30
0
10
0.069126251355697832
20
205.98533468055197
30
0
10
0.066112001899796269
20
205.99721528351242
30
0
10
0.063181485706849116
20
206.00914042008554
30
0
10
0.060337518998068163
20
206.021111296736
30
0
10
0.057505004290021589
20
206.03303396941553
30
0
10
0.054758341841250058
20
206.04500201413668
30
0
10
0.052100344405374699
20
206.05701679475396
30
0
10
0.049453793091487341
20
206.06897983617696
30
0
10
0.046895142548635249
20
206.08098921120654
30
0
10
0.044427194213625398
20
206.09304642867559
30
0
10
0.04199430282284311
20
206.1049323746505
30
0
10
0.039649552827825119
20
206.11686481340394
30
0
10
0.03739566688508944
20
206.12884534557438
30
0
10
0.03514703653834772
20
206.14079794162069
30
0
10
0.032994718622489927
20
206.1527672983924
30
0
10
0.030940422182794691
20
206.16475202270874
30
0
10
0.028885953294803812
20
206.17673775308572
30
0
10
0.026929392414842823
20
206.18873954791269
30
0
10
0.025072087389474973
20
206.20075817720362
30
0
10
0.023229498746957233
20
206.21268157671395
30
0
10
0.021484600882502036
20
206.22462154550146
30
0
10
0.019838729121630649
20
206.23657889908708
30
0
10
0.018193724743156281
20
206.24852995108898
30
0
10
0.016647641045182127
20
206.26049836851149
30
0
10
0.015201769136155008
20
206.27248501669266
30
0
10
0.013757125625630806
20
206.28446148113562
30
0
10
0.012412518932620742
20
206.29645614320694
30
0
10
0.011169174809282367
20
206.30846992503223
30
0
10
0.0099341111454975817
20
206.32040369712172
30
0
10
0.00879895918401985
20
206.3323563335282
30
0
10
0.0077649147529257334
20
206.3443288181044
30
0
10
0.0067328416561451832
20
206.35627847796422
30
0
10
0.005801489934356141
20
206.36824791113082
30
0
10
0.0049721406273306457
20
206.38023818917395
30
0
10
0.0041448828751811106
20
206.39219822866499
30
0
10
0.003419120913434881
20
206.40417900985051
30
0
10
0.0027962028185868348
20
206.41618167304657
30
0
10
0.0021768219710338599
20
206.42811617898803
30
0
10
0.0016591336361670983
20
206.44007231976207
30
0
10
0.0012444010785372939
20
206.45205127457393
30
0
10
0.00083090519169104482
20
206.46399450992175
30
0
10
0.00051976272203546614
20
206.47596042194346
30
0
10
0.00031204064640633078
20
206.48795024968467
30
0
10
0.00010489024319326745
20
206.49990708018265
30
0
10
5.9713258337978914e-07
20
206.51188769246474
30
0
10
-1.4210854715202004e-13
20
206.52389342117021
30
0
0
SPLINE
5
118
100
AcDbEntity
8
OUTER_PROFILES
100
AcDbSpline
70
0
71
3
72
14
73
10
74
0
42
0.000000001
43
0.0000000001
44
0.0000000001
40
-0.19017594528621029
40
-0.19017594528621029
40
-0.19017594528621029
40
-0.19017594528621029
40
-0.18668329104218273
40
-0.18668329104218273
40
-0.18668329104218273
40
-0.18319469142723702
40
-0.18319469142723702
40
-0.18319469142723702
40
-0.18027200160407225
40
-0.18027200160407225
40
-0.18027200160407225
40
-0.18027200160407225
10
0.99999999999781153
20
204.26194671058428
30
0
10
0.99169096728402906
20
204.27391165723651
30
0
10
0.98337896607191055
20
204.28588089908669
30
0
10
0.97506599012717743
20
204.2978552911581
30
0
10
0.9667626647323857
20
204.30981578213454
30
0
10
0.95845836759892222
20
204.32178141217884
30
0
10
0.95015508274698846
20
204.3337530480969
30
0
10
0.94319873096864626
20
204.3437826824277
30
0
10
0.93624308939155299
20
204.35381653198507
30
0
10
0.92928932188186764
20
204.363855114616
30
0
0
ARC
5
119
100
AcDbEntity
8
OUTER_PROFILES
100
AcDbCircle
10
0.9646446609409054
20
204.22659137152561
30
0
40
0.04999999999999237
210
0
220
0
230
1
100
AcDbArc
50
-135.00000000005184
51
45.000000001427836
0
SPLINE
5
120
100
AcDbEntity
8
OUTER_PROFILES
100
AcDbSpline
70
0
71
3
72
14
73
10
74
0
42
0.000000001
43
0.0000000001
44
0.0000000001
40
-0.010030481402902745
40
-0.010030481402902745
40
-0.010030481402902745
40
-0.010030481402902745
40
-0.0070633766164112819
40
-0.0070633766164112819
40
-0.0070633766164112819
40
-0.003529493987430638
40
-0.003529493987430638
40
-0.003529493987430638
40
-0
40
-0
40
-0
40
-0
10
0.82738091777002865
20
204.26194671058494
30
0
10
0.83740956018829138
20
204.25499982862596
30
0
10
0.84744338219550741
20
204.24804421480269
30
0
10
0.85748298436371329
20
204.24108094949997
30
0
10
0.8694403563666242
20
204.23278755777136
30
0
10
0.88140592619097902
20
204.22448331170699
30
0
10
0.89338074130694167
20
204.21617004210819
30
0
10
0.90534068519573907
20
204.2078670965536
30
0
10
0.9173098522246903
20
204.19955515053343
30
0
10
0.92928932188158342
20
204.19123603246629
30
0
0
SPLINE
5
121
100
AcDbEntity
8
OUTER_PROFILES
100
AcDbSpline
70
0
71
3
72
185
73
181
74
0
42
0.000000001
43
0.0000000001
44
0.0000000001
40
-0.21612603714525255
40
-0.21612603714525255
40
-0.21612603714525255
40
-0.21612603714525255
40
-0.21305628532316531
40
-0.21305628532316531
40
-0.21305628532316531
40
-0.20997772848605151
40
-0.20997772848605151
40
-0.20997772848605151
40
-0.20688889437225397
40
-0.20688889437225397
40
-0.20688889437225397
40
-0.20378133975213225
40
-0.20378133975213225
40
-0.20378133975213225
40
-0.20066483853511555
40
-0.20066483853511555
40
-0.20066483853511555
40
-0.19754128490589609
40
-0.19754128490589609
40
-0.19754128490589609
40
-0.19439566862677549
40
-0.19439566862677549
40
-0.19439566862677549
40
-0.19124623861257614
40
-0.19124623861257614
40
-0.19124623861257614
40
-0.18809399056566306
40
-0.18809399056566306
40
-0.18809399056566306
40
-0.18491537307707584
40
-0.18491537307707584
40
-0.18491537307707584
40
-0.18173579993602651
40
-0.18173579993602651
40
-0.18173579993602651
40
-0.17855621818245498
40
-0.17855621818245498
40
-0.17855621818245498
40
-0.17533611909706487
40
-0.17533611909706487
40
-0.17533611909706487
40
-0.1721007795688177
40
-0.1721007795688177
40
-0.1721007795688177
40
-0.16885115212064572
40
-0.16885115212064572
40
-0.16885115212064572
40
-0.16555123600300961
40
-0.16555123600300961
40
-0.16555123600300961
40
-0.16223833503570081
40
-0.16223833503570081
40
-0.16223833503570081
40
-0.15891312150447992
40
-0.15891312150447992
40
-0.15891312150447992
40
-0.15553481094431168
40
-0.15553481094431168
40
-0.15553481094431168
40
-0.15214482867192708
40
-0.15214482867192708
40
-0.15214482867192708
40
-0.14874340974778399
40
-0.14874340974778399
40
-0.14874340974778399
40
-0.14528612124008164
40
-0.14528612124008164
40
-0.14528612124008164
40
-0.14181713434631624
40
-0.14181713434631624
40
-0.14181713434631624
40
-0.13833625592487431
40
-0.13833625592487431
40
-0.13833625592487431
40
-0.13479665144795602
40
-0.13479665144795602
40
-0.13479665144795602
40
-0.13125465471367909
40
-0.13125465471367909
40
-0.13125465471367909
40
-0.12772379619908666
40
-0.12772379619908666
40
-0.12772379619908666
40
-0.12415830009500785
40
-0.12415830009500785
40
-0.12415830009500785
40
-0.12060538602233341
40
-0.12060538602233341
40
-0.12060538602233341
40
-0.11706553067109385
40
-0.11706553067109385
40
-0.11706553067109385
40
-0.11349403928462252
40
-0.11349403928462252
40
-0.11349403928462252
40
-0.10993677636877409
40
-0.10993677636877409
40
-0.10993677636877409
40
-0.10639409243144783
40
-0.10639409243144783
40
-0.10639409243144783
40
-0.10282336883205526
40
-0.10282336883205526
40
-0.10282336883205526
40
-0.0992681855237912
40
-0.0992681855237912
40
-0.0992681855237912
40
-0.095728794117426075
40
-0.095728794117426075
40
-0.095728794117426075
40
-0.092165438503542335
40
-0.092165438503542335
40
-0.092165438503542335
40
-0.088618661830670964
40
-0.088618661830670964
40
-0.088618661830670964
40
-0.085088639772214453
40
-0.085088639772214453
40
-0.085088639772214453
40
-0.081539103325887555
40
-0.081539103325887555
40
-0.081539103325887555
40
-0.078006973972602464
40
-0.078006973972602464
40
-0.078006973972602464
40
-0.074491792655712277
40
-0.074491792655712277
40
-0.074491792655712277
40
-0.070951977868512303
40
-0.070951977868512303
40
-0.070951977868512303
40
-0.067417197220684899
40
-0.067417197220684899
40
-0.067417197220684899
40
-0.063887570298427857
40
-0.063887570298427857
40
-0.063887570298427857
40
-0.060334677082575845
40
-0.060334677082575845
40
-0.060334677082575845
40
-0.056787220091975725
40
-0.056787220091975725
40
-0.056787220091975725
40
-0.053245272391096769
40
-0.053245272391096769
40
-0.053245272391096769
40
-0.049684720936268724
40
-0.049684720936268724
40
-0.049684720936268724
40
-0.046129803513471936
40
-0.046129803513471936
40
-0.046129803513471936
40
-0.042580521775939337
40
-0.042580521775939337
40
-0.042580521775939337
40
-0.039017362306940064
40
-0.039017362306940064
40
-0.039017362306940064
40
-0.035460002239468748
40
-0.035460002239468748
40
-0.035460002239468748
40
-0.03190849632923079
40
-0.03190849632923079
40
-0.03190849632923079
40
-0.028348046418251865
40
-0.028348046418251865
40
-0.028348046418251865
40
-0.024793326928927238
40
-0.024793326928927238
40
-0.024793326928927238
40
-0.021244223846890332
40
-0.021244223846890332
40
-0.021244223846890332
40
-0.017690942231086498
40
-0.017690942231086498
40
-0.017690942231086498
40
-0.01414372028228314
40
-0.01414372028228314
40
-0.01414372028228314
40
-0.010030481402894906
40
-0.010030481402894906
40
-0.010030481402894906
40
-0.010030481402894906
10
-1.3326573887029269
20
205.19123603246595
30
0
10
-1.320664061562411
20
205.19123543573872
30
0
10
-1.3086718242239215
20
205.19113115532892
30
0
10
-1.2967142171986268
20
205.19092399141127
30
0
10
-1.2847223119904072
20
205.19071623328227
30
0
10
-1.2727564104532973
20
205.19040505525481
30
0
10
-1.2608152420925478
20
205.18999163100551
30
0
10
-1.2488342100236594
20
205.18957682660456
30
0
10
-1.2368780780101929
20
205.18905910297363
30
0
10
-1.2249456405798753
20
205.18843982964714
30
0
10
-1.212940884189635
20
205.18781680308891
30
0
10
-1.2009601097766165
20
205.18709100564749
30
0
10
-1.1890021567106146
20
205.18626389239128
30
0
10
-1.1770097769012011
20
205.18543439789005
30
0
10
-1.1650403481669969
20
205.18450301056205
30
0
10
-1.153092785610994
20
205.18347111869818
30
0
10
-1.1411181866029096
20
205.18243689173917
30
0
10
-1.1291655520859933
20
205.18130170378788
30
0
10
-1.1172338924568237
20
205.18006685869111
30
0
10
-1.1052179557316322
20
205.17882329149177
30
0
10
-1.0932232928712438
20
205.17747864764974
30
0
10
-1.0812489839862849
20
205.17603426397048
30
0
10
-1.0692601574875482
20
205.17458812912508
30
0
10
-1.0572917365230694
20
205.17304200764329
30
0
10
-1.0453428662550834
20
205.17139730337766
30
0
10
-1.0333833044310836
20
205.16975112747102
30
0
10
-1.0214433293802472
20
205.16800619117532
30
0
10
-1.0095221443337721
20
205.16616394464785
30
0
10
-0.99750123522071021
20
205.16430628720994
30
0
10
-0.98549943126840844
20
205.16234968626503
30
0
10
-0.97351598992872823
20
205.16029560976474
30
0
10
-0.96152894576320591
20
205.15824091570562
30
0
10
-0.94956027498056983
20
205.15608868813632
30
0
10
-0.93760931295904015
20
205.15384036528769
30
0
10
-0.92565831856589398
20
205.15159203634897
30
0
10
-0.91371844924495349
20
205.14924625458494
30
0
10
-0.90181039621057835
20
205.14680883825218
30
0
10
-0.88975059915028964
20
205.14434036198321
30
0
10
-0.87774131072933415
20
205.1417816879746
30
0
10
-0.86578076236676793
20
205.1391356882063
30
0
10
-0.85376360579147104
20
205.13647716515621
30
0
10
-0.84179565200017237
20
205.13373048545253
30
0
10
-0.82987526433853986
20
205.1308985135768
30
0
10
-0.81790223381119631
20
205.12805403513505
30
0
10
-0.80597719053230321
20
205.12512350781554
30
0
10
-0.79409864808752673
20
205.12210978111023
30
0
10
-0.78203628269562842
20
205.1190494163491
30
0
10
-0.77002186796349292
20
205.11590325613361
30
0
10
-0.75805404335071103
20
205.11267422114233
30
0
10
-0.74603912650957227
20
205.10943248021169
30
0
10
-0.73407116738351874
20
205.10610720963282
30
0
10
-0.72214898950392126
20
205.10270131607288
30
0
10
-0.71018250224753388
20
205.09928276433737
30
0
10
-0.69826213782690161
20
205.09578298776523
30
0
10
-0.68638689996475932
20
205.0922049003685
30
0
10
-0.67432203823557302
20
205.08856967805144
30
0
10
-0.66230375630695448
20
205.08485362266089
30
0
10
-0.65033119896384051
20
205.08105978678387
30
0
10
-0.63831727767819757
20
205.07725284359782
30
0
10
-0.62634939860828354
20
205.07336758025249
30
0
10
-0.61442688032030901
20
205.06940708714598
30
0
10
-0.60246413949457178
20
205.06543323267744
30
0
10
-0.59054706711776817
20
205.06138363895215
30
0
10
-0.57867515184156559
20
205.05726143625054
30
0
10
-0.56660823589737674
20
205.05307152482106
30
0
10
-0.55458797331823462
20
205.04880659875977
30
0
10
-0.54261400626529621
20
205.04446995496519
30
0
10
-0.53059952304224112
20
205.04011863732049
30
0
10
-0.51863165030624714
20
205.03569511504679
30
0
10
-0.50671019517238847
20
205.03120273502728
30
0
10
-0.49474787383800845
20
205.02669495533547
30
0
10
-0.4828322900475257
20
205.02211784440374
30
0
10
-0.47096340371851397
20
205.01747480678208
30
0
10
-0.45889427687754392
20
205.01275343626509
30
0
10
-0.44687343729421514
20
205.00796389529501
30
0
10
-0.43490099052348796
20
205.00310979264998
30
0
10
-0.42292045212164453
20
204.99825240933819
30
0
10
-0.41095751501060818
20
204.99331792822829
30
0
10
-0.39899766521202196
20
204.98830233192803
30
0
10
-0.38707542454872623
20
204.98330250775223
30
0
10
-0.37516050199826623
20
204.97822379836745
30
0
10
-0.36325165559517814
20
204.97306751493414
30
0
10
-0.3512259838559828
20
204.96786064855394
30
0
10
-0.33920650829983856
20
204.96257467827778
30
0
10
-0.32719196726660016
20
204.9572109320606
30
0
10
-0.31521982351222277
20
204.95186611359472
30
0
10
-0.30325257983676579
20
204.94644406671043
30
0
10
-0.29128900354848497
20
204.9409460864203
30
0
10
-0.27936939933681515
20
204.93546831393471
30
0
10
-0.26745343593148618
20
204.92991516482491
30
0
10
-0.25553990747241073
20
204.92428790429597
30
0
10
-0.24351990663845413
20
204.91861035238654
30
0
10
-0.23150238476830509
20
204.91285735815413
30
0
10
-0.21948611470605783
20
204.9070302076548
30
0
10
-0.20751771628269466
20
204.90122627195024
30
0
10
-0.19555056005316374
20
204.89534876935244
30
0
10
-0.18358344232737522
20
204.88939895950952
30
0
10
-0.17166537027421214
20
204.88347353418698
30
0
10
-0.15974733672976527
20
204.87747639282111
30
0
10
-0.14782815934907489
20
204.87140877023708
30
0
10
-0.1358146439716279
20
204.86529312358715
30
0
10
-0.12379996687428729
20
204.85910587539837
30
0
10
-0.11178292208413154
20
204.85284828163233
30
0
10
-0.099818177162376287
20
204.84661792179418
30
0
10
-0.087851085419430319
20
204.84031782713771
30
0
10
-0.075880458419987917
20
204.83394923057361
30
0
10
-0.063963004196949669
20
204.82760892291711
30
0
10
-0.05204204634807752
20
204.82120072037335
30
0
10
-0.040116411226165383
20
204.81472583432486
30
0
10
-0.028110031037584804
20
204.80820710867366
30
0
10
-0.016098910318476101
20
204.8016207933068
30
0
10
-0.0040818475393678
20
204.79496812039341
30
0
10
0.0078793044083624864
20
204.78834639984171
30
0
10
0.019846342975711195
20
204.78165893762645
30
0
10
0.031820460004468032
20
204.77490694629182
30
0
10
0.043738012515035507
20
204.76818685068162
30
0
10
0.055662576515231876
20
204.76140283403953
30
0
10
0.067595336897028346
20
204.75455609052969
30
0
10
0.079594063018078032
20
204.7476714973956
30
0
10
0.091601076127858505
20
204.74072348183608
30
0
10
0.10361759370056234
20
204.73371325756563
30
0
10
0.1155751817080386
20
204.72673741176351
30
0
10
0.12754218094485736
20
204.71969996578503
30
0
10
0.13951980631532024
20
204.71260211601302
30
0
10
0.15143996005591021
20
204.70553832349211
30
0
10
0.16337787312153296
20
204.69841033687737
30
0
10
0.17530708501993786
20
204.69123603246612
30
0
10
0.18731989371190139
20
204.68401145240796
30
0
10
0.19932238406155989
20
204.67674088595874
30
0
10
0.21131565525450924
20
204.66942618830029
30
0
10
0.22329187024482167
20
204.66212189322215
30
0
10
0.23525889197372862
20
204.65477359224238
30
0
10
0.24721778039605624
20
204.64738312800935
30
0
10
0.25915923270702024
20
204.64000343910533
30
0
10
0.27109257513572516
20
204.632581709725
30
0
10
0.28301883314298948
20
204.62511977158374
30
0
10
0.29502370564031821
20
204.61760864647533
30
0
10
0.30702139978643572
20
204.61005678071675
30
0
10
0.31901293473026726
20
204.60246604044724
30
0
10
0.33098612161779783
20
204.59488691464838
30
0
10
0.3429531678474973
20
204.5872690331403
30
0
10
0.35491506381731597
20
204.57961425130478
30
0
10
0.3668583826625138
20
204.57197135753751
30
0
10
0.37879656691700347
20
204.56429167788383
30
0
10
0.3907305812660411
20
204.55657705683262
30
0
10
0.40272727792597607
20
204.54882191544522
30
0
10
0.41471976044306302
20
204.54103146455392
30
0
10
0.42670899129873874
20
204.53320757622657
30
0
10
0.43867925101721994
20
204.52539606801452
30
0
10
0.45064626909891103
20
204.51755122808081
30
0
10
0.46261099212088652
20
204.50967492006728
30
0
10
0.47455674721618379
20
204.50181109853034
30
0
10
0.48650021435932445
20
204.49391590865991
30
0
10
0.49844232938909272
20
204.48599120687709
30
0
10
0.51043113822288433
20
204.47803551942127
30
0
10
0.52241858422277687
20
204.47005008889317
30
0
10
0.5344056108309303
20
204.46203679478455
30
0
10
0.54637312734385546
20
204.45403654312057
30
0
10
0.55834022557135654
20
204.44600851848134
30
0
10
0.57030784092347631
20
204.43795458989658
30
0
10
0.58225576181101246
20
204.42991391523145
30
0
10
0.59420419776827771
20
204.42184742171247
30
0
10
0.60615407751100747
20
204.41375696642251
30
0
10
0.61813405145485945
20
204.40564613638452
30
0
10
0.63011547599330697
20
204.39751122356051
30
0
10
0.6420992894010169
20
204.38935409723936
30
0
10
0.65406381527338908
20
204.38121009953247
30
0
10
0.66603072209829861
20
204.37304395977321
30
0
10
0.67800095570447638
20
204.36485754072888
30
0
10
0.6899522765083077
20
204.35668405611261
30
0
10
0.70190691366889268
20
204.34849035645777
30
0
10
0.71386582564215928
20
204.34027829934845
30
0
10
0.72583881743128131
20
204.33205657378008
30
0
10
0.73781609413401839
20
204.32381644768168
30
0
10
0.74979863526223767
20
204.31555978684398
30
0
10
0.76176074170021479
20
204.30731720668456
30
0
10
0.77372809433427392
20
204.29905814807231
30
0
10
0.78570168355511782
20
204.29078446548803
30
0
10
0.79958585359577228
20
204.28119058233875
30
0
10
0.81347840846532904
20
204.27157703611101
30
0
10
0.82738091777002865
20
204.26194671058485
30
0
0
LINE
5
122
100
AcDbEntity
8
OUTER_PROFILES
100
AcDbLine
10
-1.3326573887029269
20
205.19123603246595
30
0
11
-18.332657388703097
21
205.19123603246609
31
0
0
LINE
5
123
100
AcDbEntity
8
OUTER_PROFILES
100
AcDbLine
10
-18.332657388703097
20
205.19123603246609
30
0
11
-18.332657388703097
21
18.332657388703879
31
0
0
LINE
5
124
100
AcDbEntity
8
OUTER_PROFILES
100
AcDbLine
10
-18.332657388703097
20
18.332657388703879
30
0
11
-1.3326573887029269
21
18.332657388703996
31
0
0
SPLINE
5
125
100
AcDbEntity
8
OUTER_PROFILES
100
AcDbSpline
70
0
71
3
72
185
73
181
74
0
42
0.000000001
43
0.0000000001
44
0.0000000001
40
-0.1802720299973635
40
-0.1802720299973635
40
-0.1802720299973635
40
-0.1802720299973635
40
-0.17622989199052175
40
-0.17622989199052175
40
-0.17622989199052175
40
-0.17275278730167787
40
-0.17275278730167787
40
-0.17275278730167787
40
-0.16927784812578706
40
-0.16927784812578706
40
-0.16927784812578706
40
-0.16581505450642428
40
-0.16581505450642428
40
-0.16581505450642428
40
-0.16235483797989586
40
-0.16235483797989586
40
-0.16235483797989586
40
-0.15889713155152321
40
-0.15889713155152321
40
-0.15889713155152321
40
-0.15545858641421723
40
-0.15545858641421723
40
-0.15545858641421723
40
-0.15202955839849369
40
-0.15202955839849369
40
-0.15202955839849369
40
-0.14860976702120612
40
-0.14860976702120612
40
-0.14860976702120612
40
-0.14521753477990151
40
-0.14521753477990151
40
-0.14521753477990151
40
-0.14183370228236677
40
-0.14183370228236677
40
-0.14183370228236677
40
-0.13845792659031328
40
-0.13845792659031328
40
-0.13845792659031328
40
-0.13511275628972985
40
-0.13511275628972985
40
-0.13511275628972985
40
-0.13177503536972746
40
-0.13177503536972746
40
-0.13177503536972746
40
-0.12844462535268486
40
-0.12844462535268486
40
-0.12844462535268486
40
-0.12514811848148605
40
-0.12514811848148605
40
-0.12514811848148605
40
-0.12185870164302993
40
-0.12185870164302993
40
-0.12185870164302993
40
-0.1185764006948823
40
-0.1185764006948823
40
-0.1185764006948823
40
-0.11533142361402844
40
-0.11533142361402844
40
-0.11533142361402844
40
-0.11209366236132286
40
-0.11209366236132286
40
-0.11209366236132286
40
-0.10886332666267128
40
-0.10886332666267128
40
-0.10886332666267128
40
-0.10567379763363483
40
-0.10567379763363483
40
-0.10567379763363483
40
-0.10249212749516722
40
-0.10249212749516722
40
-0.10249212749516722
40
-0.099319144356761466
40
-0.099319144356761466
40
-0.099319144356761466
40
-0.096195149418390344
40
-0.096195149418390344
40
-0.096195149418390344
40
-0.093084943748044338
40
-0.093084943748044338
40
-0.093084943748044338
40
-0.0899878205212402
40
-0.0899878205212402
40
-0.0899878205212402
40
-0.086940284855681282
40
-0.086940284855681282
40
-0.086940284855681282
40
-0.083904493029166999
40
-0.083904493029166999
40
-0.083904493029166999
40
-0.08088010741190535
40
-0.08088010741190535
40
-0.08088010741190535
40
-0.077904979214349898
40
-0.077904979214349898
40
-0.077904979214349898
40
-0.074940651171167522
40
-0.074940651171167522
40
-0.074940651171167522
40
-0.071987131715549768
40
-0.071987131715549768
40
-0.071987131715549768
40
-0.069082810015823143
40
-0.069082810015823143
40
-0.069082810015823143
40
-0.06618935003980822
40
-0.06618935003980822
40
-0.06618935003980822
40
-0.063307073373892575
40
-0.063307073373892575
40
-0.063307073373892575
40
-0.060473970350928823
40
-0.060473970350928823
40
-0.060473970350928823
40
-0.057652199388285481
40
-0.057652199388285481
40
-0.057652199388285481
40
-0.054839970196424816
40
-0.054839970196424816
40
-0.054839970196424816
40
-0.052072908783713151
40
-0.052072908783713151
40
-0.052072908783713151
40
-0.049314769662130067
40
-0.049314769662130067
40
-0.049314769662130067
40
-0.046565636522090635
40
-0.046565636522090635
40
-0.046565636522090635
40
-0.043859121473854436
40
-0.043859121473854436
40
-0.043859121473854436
40
-0.04116193316755646
40
-0.04116193316755646
40
-0.04116193316755646
40
-0.03847451474919087
40
-0.03847451474919087
40
-0.03847451474919087
40
-0.035827161233641242
40
-0.035827161233641242
40
-0.035827161233641242
40
-0.033190468032732706
40
-0.033190468032732706
40
-0.033190468032732706
40
-0.0305651292638617
40
-0.0305651292638617
40
-0.0305651292638617
40
-0.027977083198124336
40
-0.027977083198124336
40
-0.027977083198124336
40
-0.025395071880128739
40
-0.025395071880128739
40
-0.025395071880128739
40
-0.022812843768254785
40
-0.022812843768254785
40
-0.022812843768254785
40
-0.020251075915087804
40
-0.020251075915087804
40
-0.020251075915087804
40
-0.017690658093711096
40
-0.017690658093711096
40
-0.017690658093711096
40
-0.015132415611590394
40
-0.015132415611590394
40
-0.015132415611590394
40
-0.012591210680136557
40
-0.012591210680136557
40
-0.012591210680136557
40
-0.010054850480618899
40
-0.010054850480618899
40
-0.010054850480618899
40
-0.0075248868441040043
40
-0.0075248868441040043
40
-0.0075248868441040043
40
-0.0050092896425569322
40
-0.0050092896425569322
40
-0.0050092896425569322
40
-0.0025011935618482321
40
-0.0025011935618482321
40
-0.0025011935618482321
40
-0
40
-0
40
-0
40
-0
10
0.82738091784705148
20
19.261946710585054
30
0
10
0.81349736182829702
20
19.252329514184513
30
0
10
0.7996047568124709
20
19.242715901040555
30
0
10
0.78570168356989711
20
19.233108956016899
30
0
10
0.77374206193425721
20
19.224844925068275
30
0
10
0.76177469331341285
20
19.216585828494761
30
0
10
0.7497986352677799
20
19.208333634945362
30
0
10
0.73783003581525008
20
19.200086580795997
30
0
10
0.72585275807526273
20
19.191846421002968
30
0
10
0.71386582563548018
20
19.183615122527517
30
0
10
0.70192078974642413
20
19.175412593965973
30
0
10
0.68996616650110809
20
19.167218865038219
30
0
10
0.67800095569495511
20
19.159035880993368
30
0
10
0.66604464968136767
20
19.150858986918585
30
0
10
0.65407777180411131
20
19.142692821916313
30
0
10
0.64209928939675365
20
19.134539324190904
30
0
10
0.63012949637808902
20
19.126391741147277
30
0
10
0.61814811592171282
20
19.118256806949642
30
0
10
0.60615407751271277
20
19.110136454747519
30
0
10
0.59422650549279865
20
19.102061102442129
30
0
10
0.58228220052626511
20
19.093997298479877
30
0
10
0.570307840928308
20
19.085938831163606
30
0
10
0.55836662367156009
20
19.077902667877112
30
0
10
0.54639930985644014
20
19.069874380880069
30
0
10
0.53440561083448301
20
19.061856626305932
30
0
10
0.52244421876963543
20
19.053860468843208
30
0
10
0.51045658378185976
20
19.045874787214604
30
0
10
0.49844232938909272
20
19.037902214292831
30
0
10
0.48652489449025893
20
19.029993890091838
30
0
10
0.47458126761540598
20
19.022098464316727
30
0
10
0.46261099211918122
20
19.014218501146324
30
0
10
0.45067035706026104
20
19.006358050104481
30
0
10
0.43870320543817343
20
18.998512985287405
30
0
10
0.42670899129760187
20
18.990685844976415
30
0
10
0.41474333502762306
20
18.982877340855872
30
0
10
0.40275074531436417
20
18.975086675987146
30
0
10
0.39073058126632532
20
18.967316364337389
30
0
10
0.37881939419420974
20
18.959616499734924
30
0
10
0.36688113083826579
20
18.951936620866622
30
0
10
0.35491506381745808
20
18.9442791698464
30
0
10
0.34297564410579184
20
18.93663877125157
30
0
10
0.33100854486193043
20
18.929020700601452
30
0
10
0.31901293472984094
20
18.921427380708437
30
0
10
0.30704359963493744
20
18.913850693130168
30
0
10
0.29504587883280919
20
18.906298647859362
30
0
10
0.28301883314298948
20
18.898773649586133
30
0
10
0.27111422123212492
20
18.891325254827976
30
0
10
0.25918087867182749
20
18.883903359044123
30
0
10
0.24721778039776154
20
18.876510293168675
30
0
10
0.23528041201345218
20
18.869133128087952
30
0
10
0.22331341617586986
20
18.861784668820601
30
0
10
0.21131565525664087
20
18.854467232875848
30
0
10
0.19934384871007182
20
18.847165626506381
30
0
10
0.18734141047815456
20
18.83989490908403
30
0
10
0.17530708502050629
20
18.832657388703854
30
0
10
0.16340960489586109
20
18.825502167983103
30
0
10
0.15148095886218016
20
18.818379393256667
30
0
10
0.13951980631290439
20
18.811291305153389
30
0
10
0.12758525167768653
20
18.8042189787718
30
0
10
0.11561833536148924
20
18.797181184484717
30
0
10
0.10361759369729384
20
18.790180163601494
30
0
10
0.091644374802370976
20
18.783195199016106
30
0
10
0.079637485939230146
20
18.776246838848252
30
0
10
0.067595336896744129
20
18.769337330640163
30
0
10
0.055705308266311704
20
18.762515105626431
30
0
10
0.043780904792072306
20
18.755730756678709
30
0
10
0.031820460009441831
20
18.748986474879569
30
0
10
0.019889485354127601
20
18.742258810760415
30
0
10
0.0079226471123661213
20
18.735571015943911
30
0
10
-0.0040818475326886983
20
18.728925300777778
30
0
10
-0.016053565981195561
20
18.722297730587584
30
0
10
-0.028058686388874321
20
18.715714189479588
30
0
10
-0.040116411225881166
20
18.709167586845105
30
0
10
-0.05198797489839535
20
18.702722058267916
30
0
10
-0.063909375577964056
20
18.696313029680425
30
0
10
-0.07588045843050395
20
18.689944190595615
30
0
10
-0.087798701098193987
20
18.683603463473496
30
0
10
-0.099766187573919751
20
18.677302571739858
30
0
10
-0.11178292209777396
20
18.671045139537025
30
0
10
-0.12374911068746997
20
18.664814027941958
30
0
10
-0.13576413310474322
20
18.65862601084379
30
0
10
-0.14782815934893279
20
18.652484650932951
30
0
10
-0.15969903033379751
20
18.646441619386344
30
0
10
-0.17161734807771722
20
18.640443762643532
30
0
10
-0.18358344230321677
20
18.634494461661028
30
0
10
-0.1955034245548859
20
18.628568086622895
30
0
10
-0.20747081496025999
20
18.622689893454549
30
0
10
-0.21948611467479395
20
18.6168632135156
30
0
10
-0.23145626998200441
20
18.611058425832262
30
0
10
-0.24347397441289331
20
18.605304764497539
30
0
10
-0.25553990747226862
20
18.599605516873996
30
0
10
-0.26740932566738707
20
18.593999091485344
30
0
10
-0.279325413904985
20
18.58844532119415
30
0
10
-0.29128900360106513
20
18.582947334749019
30
0
10
-0.30320916370115469
20
18.577469306805988
30
0
10
-0.31517648022784783
20
18.572046657691995
30
0
10
-0.3271919673338175
20
18.566682489108668
30
0
10
-0.33916364334913851
20
18.561337879455706
30
0
10
-0.35118313856571604
20
18.556051323752957
30
0
10
-0.36325165559532024
20
18.550825906235893
30
0
10
-0.37511914332284846
20
18.545687530236357
30
0
10
-0.38703403314670481
20
18.54060827167649
30
0
10
-0.39899766509492451
20
18.535591089243056
30
0
10
-0.41091655486980017
20
18.530592670312771
30
0
10
-0.42288382232328559
20
18.525655862926911
30
0
10
-0.43490099035651042
20
18.520783628521425
30
0
10
-0.44687171167268502
20
18.515930225448901
30
0
10
-0.45889194812431811
20
18.511140895860773
30
0
10
-0.47096340371851397
20
18.506418614387854
30
0
10
-0.4828289118913176
20
18.501776898318596
30
0
10
-0.49474390662155088
20
18.497199960896154
30
0
10
-0.50671019555778685
20
18.492690686140268
30
0
10
-0.51862862082401762
20
18.488199447923513
30
0
10
-0.53059895725795059
20
18.483774989000057
30
0
10
-0.5426140070265717
20
18.479423466201641
30
0
10
-0.55458842810764963
20
18.47508665800396
30
0
10
-0.56660877010600075
20
18.470821711168401
30
0
10
-0.57867515272022274
20
18.466631984919484
30
0
10
-0.59054773473434352
20
18.462509550707246
30
0
10
-0.60246488958910049
20
18.458459939588955
30
0
10
-0.61442688101649878
20
18.454486334029443
30
0
10
-0.62635030142800474
20
18.450525541219747
30
0
10
-0.63831826855903273
20
18.446640263743689
30
0
10
-0.65033119931996453
20
18.442833634393192
30
0
10
-0.66230490499918915
20
18.439039434594719
30
0
10
-0.67432327988797169
20
18.435323369037214
30
0
10
-0.68638689996447511
20
18.43168852080148
30
0
10
-0.6982635052833075
20
18.428110021344761
30
0
10
-0.71018396308488718
20
18.424610239438358
30
0
10
-0.72214898924968907
20
18.421192105085218
30
0
10
-0.73407278353172956
20
18.41778574973808
30
0
10
-0.74604083866091742
20
18.414460478901773
30
0
10
-0.75805404308525226
20
18.411219200012255
30
0
10
-0.77002373269053237
20
18.40798966184229
30
0
10
-0.78203824461070326
20
18.404843507021425
30
0
10
-0.79409864808766883
20
18.401783640059726
30
0
10
-0.80597925116947522
20
18.39876939058416
30
0
10
-0.81790438787962216
20
18.395838874363587
30
0
10
-0.82987526468315309
20
18.392994907619588
30
0
10
-0.84179793737931163
20
18.390162392908763
30
0
10
-0.85376598213173338
20
18.387415730448179
30
0
10
-0.86578076279948846
20
18.384757732998949
30
0
10
-0.87774380403459418
20
18.382111181724561
30
0
10
-0.88975317889307348
20
18.379552531216522
30
0
10
-0.90181039621057835
20
18.377084582917796
30
0
10
-0.91369634183109838
20
18.374651691604601
30
0
10
-0.92562878024736506
20
18.372306941685896
30
0
10
-0.93760931209544651
20
18.370053055811645
30
0
10
-0.94956190800814966
20
18.367804425497905
30
0
10
-0.96153126426685276
20
18.365652107681104
30
0
10
-0.9735159882738742
20
18.363597811280322
30
0
10
-0.98550171855649182
20
18.361543342394288
30
0
10
-0.99750351330186504
20
18.359586781494951
30
0
10
-1.0095221425324041
20
18.357729476418861
30
0
10
-1.0214455422740798
20
18.355886887681045
30
0
10
-1.0333855113144352
20
18.354141989694817
30
0
10
-1.0453428651904062
20
18.352496117800541
30
0
10
-1.0572939176336149
20
18.350851113268011
30
0
10
-1.0692623355350861
20
18.349305029406771
30
0
10
-1.0812489842501805
20
18.347859157354122
30
0
10
-1.0932254490697346
20
18.34641451371904
30
0
10
-1.1052201115715832
20
18.345069906918624
30
0
10
-1.1172338938935411
20
18.343826562728268
30
0
10
-1.129167666042008
20
18.342591499042911
30
0
10
-1.1411203025706129
20
18.341456347093175
30
0
10
-1.1530927873380392
20
18.340422302708916
30
0
10
-1.1650424469178233
20
18.339390229699649
30
0
10
-1.177011879870804
20
18.33845887809311
30
0
10
-1.1890021577698917
20
18.337629528911286
30
0
10
-1.200962196837736
20
18.33680227130316
30
0
10
-1.2129429776675238
20
18.336076509490923
30
0
10
-1.2249456405798753
20
18.335453591522779
30
0
10
-1.2368801461978762
20
18.334834210803308
30
0
10
-1.2488362867190972
20
18.334316522572834
30
0
10
-1.260815241356994
20
18.333901790073625
30
0
10
-1.2727584766093969
20
18.333488294242436
30
0
10
-1.2847243886140802
20
18.333177151783751
30
0
10
-1.2967142164279721
20
18.3329694296621
30
0
10
-1.3086710470957996
20
18.332762279211494
30
0
10
-1.320651659636809
20
18.332657985998388
30
0
10
-1.3326573887029269
20
18.332657388703996
30
0
0
SPLINE
5
126
100
AcDbEntity
8
OUTER_PROFILES
100
AcDbSpline
70
0
71
3
72
14
73
10
74
0
42
0.000000001
43
0.0000000001
44
0.0000000001
40
-0.19017597574822107
40
-0.19017597574822107
40
-0.19017597574822107
40
-0.19017597574822107
40
-0.18668332077533403
40
-0.18668332077533403
40
-0.18668332077533403
40
-0.18319472043189561
40
-0.18319472043189561
40
-0.18319472043189561
40
-0.18027202999736583
40
-0.18027202999736583
40
-0.18027202999736583
40
-0.18027202999736583
10
0.92928932188158342
20
19.332657388703662
30
0
10
0.91732437522409782
20
19.324348355982732
30
0
10
0.90535513337115958
20
19.316036354766531
30
0
10
0.89338074129940992
20
19.30772337882102
30
0
10
0.88142025032098559
20
19.299420053424271
30
0
10
0.86945462027699705
20
19.291115756292079
30
0
10
0.85748298436215009
20
19.282812471443798
30
0
10
0.84745335003049149
20
19.275856119665971
30
0
10
0.83741950047453884
20
19.26890047809114
30
0
10
0.82738091784705148
20
19.261946710585107
30
0
0
ARC
5
127
100
AcDbEntity
8
OUTER_PROFILES
100
AcDbCircle
10
0.9646446609409054
20
19.29730204964434
30
0
40
0.050000000000004832
210
0
220
0
230
1
100
AcDbArc
50
-45.000000000100911
51
135
0
SPLINE
5
128
100
AcDbEntity
8
OUTER_PROFILES
100
AcDbSpline
70
0
71
3
72
14
73
10
74
0
42
0.000000001
43
0.0000000001
44
0.0000000001
40
-0.010030481022470544
40
-0.010030481022470544
40
-0.010030481022470544
40
-0.010030481022470544
40
-0.00706337637180779
40
-0.00706337637180779
40
-0.00706337637180779
40
-0.003529493886285599
40
-0.003529493886285599
40
-0.003529493886285599
40
-4.0194387007262576e-15
40
-4.0194387007262576e-15
40
-4.0194387007262576e-15
40
-4.0194387007262576e-15
10
0.9292893218812992
20
19.160038306281734
30
0
10
0.93623620418028963
20
19.170066948830687
30
0
10
0.94319181824346288
20
19.180100770895308
30
0
10
0.95015508366699919
20
19.190140373068104
30
0
10
0.95844847558254287
20
19.202097745138598
30
0
10
0.96675272166535819
20
19.214063314955858
30
0
10
0.97506599110047887
20
19.226038129999171
30
0
10
0.98336893659066504
20
19.237998073958224
30
0
10
0.99168088236510243
20
19.249967240992415
30
0
10
1.0000000000000853
20
19.261946710585057
30
0
0
SPLINE
5
129
100
AcDbEntity
8
OUTER_PROFILES
100
AcDbSpline
70
0
71
3
72
182
73
178
74
0
42
0.000000001
43
0.0000000001
44
0.0000000001
40
-0.21612595155041847
40
-0.21612595155041847
40
-0.21612595155041847
40
-0.21612595155041847
40
-0.21305620114635432
40
-0.21305620114635432
40
-0.21305620114635432
40
-0.20997764573096811
40
-0.20997764573096811
40
-0.20997764573096811
40
-0.20688881304384316
40
-0.20688881304384316
40
-0.20688881304384316
40
-0.20378125985920603
40
-0.20378125985920603
40
-0.20378125985920603
40
-0.20066476008194087
40
-0.20066476008194087
40
-0.20066476008194087
40
-0.1943955930699918
40
-0.1943955930699918
40
-0.1943955930699918
40
-0.19124616451078877
40
-0.19124616451078877
40
-0.19124616451078877
40
-0.18809391792003385
40
-0.18809391792003385
40
-0.18809391792003385
40
-0.18491530189963176
40
-0.18491530189963176
40
-0.18491530189963176
40
-0.1817357302270223
40
-0.1817357302270223
40
-0.1817357302270223
40
-0.17855614994157507
40
-0.17855614994157507
40
-0.17855614994157507
40
-0.17533605234242788
40
-0.17533605234242788
40
-0.17533605234242788
40
-0.17210071430752305
40
-0.17210071430752305
40
-0.17210071430752305
40
-0.16885108835944523
40
-0.16885108835944523
40
-0.16885108835944523
40
-0.16555117376523903
40
-0.16555117376523903
40
-0.16555117376523903
40
-0.16223827432752586
40
-0.16223827432752586
40
-0.16223827432752586
40
-0.1589130623317565
40
-0.1589130623317565
40
-0.1589130623317565
40
-0.15553475333186328
40
-0.15553475333186328
40
-0.15553475333186328
40
-0.15214477262556819
40
-0.15214477262556819
40
-0.15214477262556819
40
-0.14874335527325533
40
-0.14874335527325533
40
-0.14874335527325533
40
-0.14528606836367891
40
-0.14528606836367891
40
-0.14528606836367891
40
-0.14181708307397159
40
-0.14181708307397159
40
-0.14181708307397159
40
-0.13833620626266133
40
-0.13833620626266133
40
-0.13833620626266133
40
-0.13479660342377431
40
-0.13479660342377431
40
-0.13479660342377431
40
-0.13125460833294555
40
-0.13125460833294555
40
-0.13125460833294555
40
-0.1277237514634364
40
-0.1277237514634364
40
-0.1277237514634364
40
-0.1241582570274772
40
-0.1241582570274772
40
-0.1241582570274772
40
-0.12060534462401357
40
-0.12060534462401357
40
-0.12060534462401357
40
-0.11706549094288039
40
-0.11706549094288039
40
-0.11706549094288039
40
-0.11349400124870226
40
-0.11349400124870226
40
-0.11349400124870226
40
-0.10993674002575492
40
-0.10993674002575492
40
-0.10993674002575492
40
-0.10639405778182782
40
-0.10639405778182782
40
-0.10639405778182782
40
-0.1028233358968091
40
-0.1028233358968091
40
-0.1028233358968091
40
-0.099268154303418232
40
-0.099268154303418232
40
-0.099268154303418232
40
-0.095728764612445658
40
-0.095728764612445658
40
-0.095728764612445658
40
-0.092165410733966974
40
-0.092165410733966974
40
-0.092165410733966974
40
-0.088618635796663514
40
-0.088618635796663514
40
-0.088618635796663514
40
-0.085088615473762175
40
-0.085088615473762175
40
-0.085088615473762175
40
-0.081539080781230275
40
-0.081539080781230275
40
-0.081539080781230275
40
-0.078006953182527289
40
-0.078006953182527289
40
-0.078006953182527289
40
-0.07449177361753935
40
-0.07449177361753935
40
-0.07449177361753935
40
-0.07095196053511818
40
-0.07095196053511818
40
-0.07095196053511818
40
-0.067417181508383023
40
-0.067417181508383023
40
-0.067417181508383023
40
-0.063887556123685879
40
-0.063887556123685879
40
-0.063887556123685879
40
-0.060334664375444755
40
-0.060334664375444755
40
-0.060334664375444755
40
-0.056787208774341062
40
-0.056787208774341062
40
-0.056787208774341062
40
-0.053245262388747196
40
-0.053245262388747196
40
-0.053245262388747196
40
-0.049684712181715884
40
-0.049684712181715884
40
-0.049684712181715884
40
-0.046129795921954077
40
-0.046129795921954077
40
-0.046129795921954077
40
-0.042580515255650216
40
-0.042580515255650216
40
-0.042580515255650216
40
-0.039017356775363748
40
-0.039017356775363748
40
-0.039017356775363748
40
-0.035459997626874212
40
-0.035459997626874212
40
-0.035459997626874212
40
-0.031908492585843537
40
-0.031908492585843537
40
-0.031908492585843537
40
-0.028348043498702236
40
-0.028348043498702236
40
-0.028348043498702236
40
-0.024793324756327513
40
-0.024793324756327513
40
-0.024793324756327513
40
-0.021244222304239811
40
-0.021244222304239811
40
-0.021244222304239811
40
-0.017690941178480975
40
-0.017690941178480975
40
-0.017690941178480975
40
-0.014143719587702981
40
-0.014143719587702981
40
-0.014143719587702981
40
-0.010030481022472355
40
-0.010030481022472355
40
-0.010030481022472355
40
-0.010030481022472355
10
-1.4210854715202004e-13
20
16.999999999999783
30
0
10
5.9672657926057582e-07
20
17.011993327156027
30
0
10
0.00010487713637985507
20
17.023985564480725
30
0
10
0.00031204105383153546
20
17.035943171504144
30
0
10
0.00051979918268330039
20
17.047935076711905
30
0
10
0.00083097721017111326
20
17.059900978249043
30
0
10
0.0012444014596724173
20
17.07184214661017
30
0
10
0.0016592058608466687
20
17.083823178678646
30
0
10
0.0021769294920659377
20
17.095779310692215
30
0
10
0.0027962028188710519
20
17.107711748122888
30
0
10
0.0034192293773571691
20
17.119716504512816
30
0
10
0.0041450268189180406
20
17.131697278925994
30
0
10
0.00497214007523894
20
17.143655231992277
30
0
10
0.0058016345764144717
20
17.155647611801527
30
0
10
0.006733021904352654
20
17.167617040535699
30
0
10
0.0077649137681135016
20
17.179564603091876
30
0
10
0.0098406727589406273
20
17.203598381498256
30
0
10
0.012323131721103664
20
17.227543772074128
30
0
10
0.015201768494961243
20
17.251408404716319
30
0
10
0.01664790334032773
20
17.263397231215109
30
0
10
0.018194024822122401
20
17.275365652179655
30
0
10
0.019838729087808815
20
17.287314522447492
30
0
10
0.021484904994650833
20
17.29927408427184
30
0
10
0.023229841290515196
20
17.311214059322737
30
0
10
0.025072087818074351
20
17.32313524436907
30
0
10
0.026929745256012438
20
17.335156153482487
30
0
10
0.028886346200920343
20
17.347157957434952
30
0
10
0.030940422701206671
20
17.359141398774355
30
0
10
0.032995116760332621
20
17.3711284429403
30
0
10
0.035147344329402586
20
17.383097113723093
30
0
10
0.037395667177975156
20
17.395048075744153
30
0
10
0.039643996116751623
20
17.40699907013806
30
0
10
0.041989777881070722
20
17.418938939460155
30
0
10
0.044427194213625398
20
17.430846992492249
30
0
10
0.04689567048274057
20
17.442906789552492
30
0
10
0.049454344491834945
20
17.454916077973461
30
0
10
0.052100344260281872
20
17.466876626336109
30
0
10
0.054758867310482628
20
17.478893782911179
30
0
10
0.057505547014216063
20
17.490861736702506
30
0
10
0.060337518889923558
20
17.502782124364366
30
0
10
0.063181997331440698
20
17.514755154891397
30
0
10
0.066112524650634441
20
17.526680198170435
30
0
10
0.069126251355697832
20
17.538558740615365
30
0
10
0.072186616116454161
20
17.550621106007029
30
0
10
0.075332776331720197
20
17.562635520739075
30
0
10
0.078561811322970243
20
17.574603345352134
30
0
10
0.081803552253347789
20
17.586618262192992
30
0
10
0.085128822832416517
20
17.598586221319039
30
0
10
0.088534716392558721
20
17.610508399198942
30
0
10
0.091953268128008858
20
17.622474886455006
30
0
10
0.095453044700235523
20
17.634395250875855
30
0
10
0.099031132097451291
20
17.646270488738583
30
0
10
0.10266635441453786
20
17.658335350467286
30
0
10
0.10638240980540559
20
17.670353632395926
30
0
10
0.11017624568268047
20
17.682326189739793
30
0
10
0.11398318886861603
20
17.694340111024648
30
0
10
0.11786845221379849
20
17.706307990094452
30
0
10
0.12182894532045907
20
17.718230508383151
30
0
10
0.12580279978863018
20
17.730193249207943
30
0
10
0.12985239351365863
20
17.742110321584661
30
0
10
0.13397459621543817
20
17.75398223686156
30
0
10
0.13816450764437604
20
17.766049152804896
30
0
10
0.14242943370561534
20
17.778069415383907
30
0
10
0.14676607750033099
20
17.790043382437691
30
0
10
0.15111739514452438
20
17.802057865659791
30
0
10
0.15554091741833531
20
17.814025738395777
30
0
10
0.16003329743824679
20
17.825947193530624
30
0
10
0.16454107712974064
20
17.837909514863945
30
0
10
0.16911818806150336
20
17.849825098654513
30
0
10
0.17376122568393271
20
17.861693984984655
30
0
10
0.17848259620066642
20
17.873763111824271
30
0
10
0.18327213717086011
20
17.885783951407213
30
0
10
0.18812623981659726
20
17.897756398179073
30
0
10
0.19298362312312634
20
17.909736936567519
30
0
10
0.19791810423370748
20
17.921699873680069
30
0
10
0.20293370053863669
20
17.933659723490276
30
0
10
0.20793352470946047
20
17.945581964142185
30
0
10
0.21301223409366798
20
17.95749688669305
30
0
10
0.21816851753172273
20
17.969405733107763
30
0
10
0.22337538390658551
20
17.981431404835497
30
0
10
0.22866135418212252
20
17.993450880391926
30
0
10
0.23402510040455127
20
18.005465421437084
30
0
10
0.23936991886515102
20
18.017437565179868
30
0
10
0.24479196574930029
20
18.029404808855062
30
0
10
0.25028994604497257
20
18.041368385155167
30
0
10
0.25576771852527713
20
18.053287989354825
30
0
10
0.26132086763539064
20
18.065203952759965
30
0
10
0.26694812817012803
20
18.077117481230868
30
0
10
0.27262568007387245
20
18.089137482052354
30
0
10
0.27837867430605456
20
18.101155003922283
30
0
10
0.28420582481132328
20
18.113171273996794
30
0
10
0.29000976050980398
20
18.125139672407762
30
0
10
0.29588726310720403
20
18.137106828637314
30
0
10
0.30183707295620366
20
18.149073946375662
30
0
10
0.30776249827241031
20
18.160992018416344
30
0
10
0.31375963963810705
20
18.172910051960699
30
0
10
0.31982726222878455
20
18.184829229353923
30
0
10
0.32594290887246302
20
18.196842744718552
30
0
10
0.3321301570615276
20
18.2088574218158
30
0
10
0.3383877508349542
20
18.220874466619282
30
0
10
0.34461811066663017
20
18.23283921152743
30
0
10
0.3509182053231541
20
18.244806303270064
30
0
10
0.35728680189436091
20
18.25677693028323
30
0
10
0.36362710954335853
20
18.268694384492456
30
0
10
0.37003531208611662
20
18.280615342341186
30
0
10
0.37651019814120446
20
18.292540977477152
30
0
10
0.38302892378354159
20
18.304547357651522
30
0
10
0.38961523914878171
20
18.316558478370727
30
0
10
0.39626791206885059
20
18.328575541163897
30
0
10
0.40288963261176036
20
18.340536693097846
30
0
10
0.40957709482640325
20
18.352503731665436
30
0
10
0.41632908616932696
20
18.364477848708056
30
0
10
0.42304918177222817
20
18.376395401204743
30
0
10
0.42983319841567891
20
18.388319965204516
30
0
10
0.43667994193626214
20
18.400252725600282
30
0
10
0.44356453506424032
20
18.412251451706137
30
0
10
0.45051255062674045
20
18.424258464815452
30
0
10
0.45752277490862525
20
18.436274982403525
30
0
10
0.46449862070360837
20
18.448232570394556
30
0
10
0.47153606668302928
20
18.460199569630696
30
0
10
0.47863391646387754
20
18.472177195018272
30
0
10
0.48569770898211573
20
18.48409734875645
30
0
10
0.49282569563260381
20
18.496035261888245
30
0
10
0.49999999999997158
20
18.507964473723405
30
0
10
0.50722458013510163
20
18.519977282553352
30
0
10
0.51449514657747386
20
18.53197977290294
30
0
10
0.52180984414633258
20
18.543973043958172
30
0
10
0.52911413930303297
20
18.555949259086162
30
0
10
0.53646244028072942
20
18.567916280815165
30
0
10
0.54385290443136114
20
18.579875169099484
30
0
10
0.55123259342281017
20
18.591816621547245
30
0
10
0.55865432281237304
20
18.603749963974838
30
0
10
0.56611626088212574
20
18.615676221846503
30
0
10
0.57362738608787822
20
18.627681094477857
30
0
10
0.58117925186380148
20
18.639678788621378
30
0
10
0.5887699920633338
20
18.651670323434562
30
0
10
0.59634911795441781
20
18.663643510447631
30
0
10
0.60396699946934973
20
18.675610556675043
30
0
10
0.61162178121989541
20
18.687572452522112
30
0
10
0.61926467505770688
20
18.699515771487714
30
0
10
0.62694435469197174
20
18.71145395574246
30
0
10
0.63465897563347085
20
18.723387969969544
30
0
10
0.64241411707271823
20
18.735384666757504
30
0
10
0.65020456792609593
20
18.747377149278936
30
0
10
0.658028456135753
20
18.759366379999673
30
0
10
0.66583996441224258
20
18.771336639862014
30
0
10
0.6736848043323107
20
18.783303657948871
30
0
10
0.68156111226230109
20
18.795268380821369
30
0
10
0.68942493391517701
20
18.807214136070147
30
0
10
0.69732012383312281
20
18.819157603212744
30
0
10
0.70524482558894874
20
18.831099718092673
30
0
10
0.71320051321137612
20
18.843088527067671
30
0
10
0.72118594383212553
20
18.855075973058245
30
0
10
0.72919923793065777
20
18.867062999540888
30
0
10
0.73719948973788973
20
18.879030516157695
30
0
10
0.74522751441918444
20
18.89099761437345
30
0
10
0.75328144291361809
20
18.902965229636386
30
0
10
0.76132211759784241
20
18.914913150597194
30
0
10
0.76938861100472877
20
18.926861586550796
30
0
10
0.77747906604358263
20
18.938811466218763
30
0
10
0.78558989593815909
20
18.950791440247642
30
0
10
0.79372480847979432
20
18.962772864799572
30
0
10
0.80188193441202316
20
18.9747566780973
30
0
10
0.81002593190376615
20
18.986721204114069
30
0
10
0.81819207134230965
20
18.998688110960209
30
0
10
0.82637849000761321
20
19.010658344390375
30
0
10
0.83455197451229424
20
19.022609665408432
30
0
10
0.84274567399830858
20
19.03456430258683
30
0
10
0.85095773090841931
20
19.046523214334535
30
0
10
0.85917945660284545
20
19.058496206371633
30
0
10
0.86741958279830556
20
19.070473483078782
30
0
10
0.87567624368745101
20
19.082456023981045
30
0
10
0.88391882420310708
20
19.09441813063588
30
0
10
0.89217788312751622
20
19.106385483257636
30
0
10
0.90045156593433262
20
19.11835907229252
30
0
10
0.91004544957726807
20
19.132243242458436
30
0
10
0.91965899617846958
20
19.14613579722127
30
0
10
0.9292893218812992
20
19.160038306281759
30
0
0
LINE
5
130
100
AcDbEntity
8
OUTER_PROFILES
100
AcDbLine
10
-1.4210854715202004e-13
20
16.999999999999783
30
0
11
0
21
0
31
0
0
LINE
5
131
100
AcDbEntity
8
OUTER_PROFILES
100
AcDbLine
10
0
20
0
30
0
11
770.85857864376203
21
6.6613381477509392e-14
31
0
0
ENDSEC
0
SECTION
2
OBJECTS
0
DICTIONARY
5
C
100
AcDbDictionary
3
ACAD_GROUP
350
D
3
ACAD_MLINESTYLE
350
17
0
DICTIONARY
5
D
100
AcDbDictionary
0
DICTIONARY
5
1A
330
C
100
AcDbDictionary
0
DICTIONARY
5
17
100
AcDbDictionary
0
ENDSEC
0
EOF
