0
SECTION
2
HEADER
9
$INSUNITS
70
4
0
ENDSEC
0
SECTION
2
ENTITIES
0
LWPOLYLINE
8
SHEET_BORDER
90
5
70
1
10
0.000
20
0.000
10
2236.000
20
0.000
10
2236.000
20
468.000
10
0.000
20
468.000
10
0.000
20
0.000
0
TEXT
8
PART_LABELS
10
419.000
20
215.000
30
0
40
50.000
1
DSV100-080040
72
1
73
2
11
419.000
21
215.000
31
0
0
LWPOLYLINE
8
OUTER_PROFILES
90
35
70
1
10
21.624
20
4.262
10
22.595
20
2.000
10
24.595
20
0.000
10
813.453
20
0.000
10
815.453
20
2.000
10
816.424
20
4.262
10
816.424
20
20.262
10
817.786
20
20.524
10
833.786
20
20.524
10
836.048
20
22.595
10
838.048
20
24.595
10
838.048
20
382.453
10
836.048
20
384.453
10
833.786
20
387.352
10
819.200
20
401.938
10
816.424
20
403.917
10
816.424
20
425.258
10
815.974
20
426.544
10
815.453
20
427.675
10
813.453
20
429.675
10
24.595
20
429.675
10
22.595
20
427.675
10
22.074
20
426.544
10
21.624
20
425.258
10
21.624
20
403.917
10
18.848
20
401.938
10
4.262
20
387.352
10
2.000
20
384.453
10
0.000
20
382.453
10
0.000
20
24.595
10
2.000
20
22.595
10
4.262
20
20.524
10
20.262
20
20.524
10
21.624
20
20.262
10
21.624
20
4.262
0
TEXT
8
PART_LABELS
10
1259.000
20
215.000
30
0
40
50.000
1
DSV100-080040
72
1
73
2
11
1259.000
21
215.000
31
0
0
LWPOLYLINE
8
OUTER_PROFILES
90
35
70
1
10
861.624
20
4.262
10
862.595
20
2.000
10
864.595
20
0.000
10
1653.453
20
0.000
10
1655.453
20
2.000
10
1656.424
20
4.262
10
1656.424
20
20.262
10
1657.786
20
20.524
10
1673.786
20
20.524
10
1676.048
20
22.595
10
1678.048
20
24.595
10
1678.048
20
382.453
10
1676.048
20
384.453
10
1673.786
20
387.352
10
1659.200
20
401.938
10
1656.424
20
403.917
10
1656.424
20
425.258
10
1655.974
20
426.544
10
1655.453
20
427.675
10
1653.453
20
429.675
10
864.595
20
429.675
10
862.595
20
427.675
10
862.074
20
426.544
10
861.624
20
425.258
10
861.624
20
403.917
10
858.848
20
401.938
10
844.262
20
387.352
10
842.000
20
384.453
10
840.000
20
382.453
10
840.000
20
24.595
10
842.000
20
22.595
10
844.262
20
20.524
10
860.262
20
20.524
10
861.624
20
20.262
10
861.624
20
4.262
0
TEXT
8
PART_LABELS
10
1927.500
20
198.500
30
0
40
50.000
1
SH0S11-050035
72
1
73
2
11
1927.500
21
198.500
31
0
0
LWPOLYLINE
8
OUTER_PROFILES
90
46
70
1
10
2173.817
20
389.786
10
2154.262
20
389.786
10
2154.262
20
397.048
10
1700.262
20
397.048
10
1700.262
20
389.786
10
1680.707
20
389.786
10
1699.131
20
371.362
10
1699.290
20
371.155
10
1699.390
20
370.914
10
1699.424
20
370.655
10
1699.390
20
370.396
10
1699.290
20
370.155
10
1699.131
20
369.948
10
1680.000
20
350.817
10
1680.000
20
46.231
10
1699.131
20
27.100
10
1699.271
20
26.925
10
1699.368
20
26.723
10
1699.418
20
26.505
10
1699.418
20
26.281
10
1699.368
20
26.063
10
1699.271
20
25.861
10
1699.131
20
25.686
10
1680.707
20
7.262
10
1700.262
20
7.262
10
1700.262
20
0.000
10
2154.262
20
0.000
10
2154.262
20
7.262
10
2173.817
20
7.262
10
2155.393
20
25.686
10
2155.234
20
25.893
10
2155.134
20
26.134
10
2155.100
20
26.393
10
2155.134
20
26.652
10
2155.234
20
26.893
10
2155.393
20
27.100
10
2174.524
20
46.231
10
2174.524
20
350.817
10
2155.393
20
369.948
10
2155.234
20
370.155
10
2155.134
20
370.396
10
2155.100
20
370.655
10
2155.134
20
370.914
10
2155.234
20
371.155
10
2155.393
20
371.362
10
2173.817
20
389.786
0
LWPOLYLINE
8
INTERIOR_PROFILES
90
33
70
1
10
1687.300
20
198.524
10
1687.333
20
198.856
10
1687.429
20
199.174
10
1687.587
20
199.468
10
1687.798
20
199.726
10
1688.056
20
199.937
10
1688.349
20
200.094
10
1688.668
20
200.191
10
1689.000
20
200.224
10
1689.332
20
200.191
10
1689.651
20
200.094
10
1689.944
20
199.937
10
1690.202
20
199.726
10
1690.413
20
199.468
10
1690.571
20
199.174
10
1690.667
20
198.856
10
1690.700
20
198.524
10
1690.667
20
198.192
10
1690.571
20
197.873
10
1690.413
20
197.579
10
1690.202
20
197.322
10
1689.944
20
197.110
10
1689.651
20
196.953
10
1689.332
20
196.857
10
1689.000
20
196.824
10
1688.668
20
196.857
10
1688.349
20
196.953
10
1688.056
20
197.110
10
1687.798
20
197.322
10
1687.587
20
197.579
10
1687.429
20
197.873
10
1687.333
20
198.192
10
1687.300
20
198.524
0
LWPOLYLINE
8
INTERIOR_PROFILES
90
33
70
1
10
2163.824
20
198.524
10
2163.857
20
198.856
10
2163.953
20
199.174
10
2164.110
20
199.468
10
2164.322
20
199.726
10
2164.579
20
199.937
10
2164.873
20
200.094
10
2165.192
20
200.191
10
2165.524
20
200.224
10
2165.856
20
200.191
10
2166.174
20
200.094
10
2166.468
20
199.937
10
2166.726
20
199.726
10
2166.937
20
199.468
10
2167.094
20
199.174
10
2167.191
20
198.856
10
2167.224
20
198.524
10
2167.191
20
198.192
10
2167.094
20
197.873
10
2166.937
20
197.579
10
2166.726
20
197.322
10
2166.468
20
197.110
10
2166.174
20
196.953
10
2165.856
20
196.857
10
2165.524
20
196.824
10
2165.192
20
196.857
10
2164.873
20
196.953
10
2164.579
20
197.110
10
2164.322
20
197.322
10
2164.110
20
197.579
10
2163.953
20
197.873
10
2163.857
20
198.192
10
2163.824
20
198.524
0
TEXT
8
PART_LABELS
10
1923.500
20
429.000
30
0
40
15.000
1
SH0S12-050000
72
1
73
2
11
1923.500
21
429.000
31
0
0
LWPOLYLINE
8
OUTER_PROFILES
90
21
70
1
10
1697.262
20
459.048
10
1697.262
20
451.786
10
1697.262
20
437.786
10
1697.262
20
435.524
10
1680.000
20
435.524
10
1680.000
20
422.524
10
1697.262
20
422.524
10
1697.262
20
420.262
10
1697.262
20
406.262
10
1697.262
20
399.000
10
2149.262
20
399.000
10
2149.262
20
406.262
10
2149.262
20
420.262
10
2149.262
20
422.524
10
2166.524
20
422.524
10
2166.524
20
435.524
10
2149.262
20
435.524
10
2149.262
20
437.786
10
2149.262
20
451.786
10
2149.262
20
459.048
10
1697.262
20
459.048
0
LWPOLYLINE
8
INTERIOR_PROFILES
90
33
70
1
10
2156.824
20
429.024
10
2156.857
20
429.356
10
2156.953
20
429.674
10
2157.110
20
429.968
10
2157.322
20
430.226
10
2157.579
20
430.437
10
2157.873
20
430.594
10
2158.192
20
430.691
10
2158.524
20
430.724
10
2158.856
20
430.691
10
2159.174
20
430.594
10
2159.468
20
430.437
10
2159.726
20
430.226
10
2159.937
20
429.968
10
2160.094
20
429.674
10
2160.191
20
429.356
10
2160.224
20
429.024
10
2160.191
20
428.692
10
2160.094
20
428.373
10
2159.937
20
428.079
10
2159.726
20
427.822
10
2159.468
20
427.610
10
2159.174
20
427.453
10
2158.856
20
427.357
10
2158.524
20
427.324
10
2158.192
20
427.357
10
2157.873
20
427.453
10
2157.579
20
427.610
10
2157.322
20
427.822
10
2157.110
20
428.079
10
2156.953
20
428.373
10
2156.857
20
428.692
10
2156.824
20
429.024
0
LWPOLYLINE
8
INTERIOR_PROFILES
90
33
70
1
10
1686.300
20
429.024
10
1686.333
20
429.356
10
1686.429
20
429.674
10
1686.587
20
429.968
10
1686.798
20
430.226
10
1687.056
20
430.437
10
1687.349
20
430.594
10
1687.668
20
430.691
10
1688.000
20
430.724
10
1688.332
20
430.691
10
1688.651
20
430.594
10
1688.944
20
430.437
10
1689.202
20
430.226
10
1689.413
20
429.968
10
1689.571
20
429.674
10
1689.667
20
429.356
10
1689.700
20
429.024
10
1689.667
20
428.692
10
1689.571
20
428.373
10
1689.413
20
428.079
10
1689.202
20
427.822
10
1688.944
20
427.610
10
1688.651
20
427.453
10
1688.332
20
427.357
10
1688.000
20
427.324
10
1687.668
20
427.357
10
1687.349
20
427.453
10
1687.056
20
427.610
10
1686.798
20
427.822
10
1686.587
20
428.079
10
1686.429
20
428.373
10
1686.333
20
428.692
10
1686.300
20
429.024
0
TEXT
8
PART_LABELS
10
2205.500
20
214.500
30
0
40
15.000
1
TS1BHH-036202
72
1
73
2
11
2205.500
21
214.500
31
0
0
LWPOLYLINE
8
OUTER_PROFILES
90
19
70
1
10
2176.976
20
418.262
10
2181.976
20
418.262
10
2218.238
20
418.262
10
2220.500
20
418.262
10
2220.500
20
428.524
10
2234.000
20
428.524
10
2234.000
20
418.262
10
2222.500
20
406.762
10
2222.500
20
93.262
10
2234.000
20
93.262
10
2234.000
20
0.000
10
2220.500
20
0.000
10
2220.500
20
8.000
10
2220.500
20
10.262
10
2218.238
20
10.262
10
2184.238
20
10.262
10
2181.976
20
10.262
10
2176.976
20
10.262
10
2176.976
20
418.262
0
LWPOLYLINE
8
INTERIOR_PROFILES
90
33
70
1
10
2189.238
20
15.562
10
2188.906
20
15.595
10
2188.587
20
15.691
10
2188.294
20
15.848
10
2188.036
20
16.060
10
2187.825
20
16.317
10
2187.667
20
16.611
10
2187.571
20
16.930
10
2187.538
20
17.262
10
2187.571
20
17.594
10
2187.667
20
17.913
10
2187.825
20
18.206
10
2188.036
20
18.464
10
2188.294
20
18.675
10
2188.587
20
18.833
10
2188.906
20
18.929
10
2189.238
20
18.962
10
2189.570
20
18.929
10
2189.889
20
18.833
10
2190.183
20
18.675
10
2190.440
20
18.464
10
2190.652
20
18.206
10
2190.809
20
17.913
10
2190.905
20
17.594
10
2190.938
20
17.262
10
2190.905
20
16.930
10
2190.809
20
16.611
10
2190.652
20
16.317
10
2190.440
20
16.060
10
2190.183
20
15.848
10
2189.889
20
15.691
10
2189.570
20
15.595
10
2189.238
20
15.562
0
LWPOLYLINE
8
INTERIOR_PROFILES
90
33
70
1
10
2231.000
20
2.300
10
2230.668
20
2.333
10
2230.349
20
2.429
10
2230.056
20
2.587
10
2229.798
20
2.798
10
2229.587
20
3.056
10
2229.429
20
3.349
10
2229.333
20
3.668
10
2229.300
20
4.000
10
2229.333
20
4.332
10
2229.429
20
4.651
10
2229.587
20
4.944
10
2229.798
20
5.202
10
2230.056
20
5.413
10
2230.349
20
5.571
10
2230.668
20
5.667
10
2231.000
20
5.700
10
2231.332
20
5.667
10
2231.651
20
5.571
10
2231.944
20
5.413
10
2232.202
20
5.202
10
2232.413
20
4.944
10
2232.571
20
4.651
10
2232.667
20
4.332
10
2232.700
20
4.000
10
2232.667
20
3.668
10
2232.571
20
3.349
10
2232.413
20
3.056
10
2232.202
20
2.798
10
2231.944
20
2.587
10
2231.651
20
2.429
10
2231.332
20
2.333
10
2231.000
20
2.300
0
LWPOLYLINE
8
INTERIOR_PROFILES
90
33
70
1
10
2231.000
20
15.562
10
2230.668
20
15.595
10
2230.349
20
15.691
10
2230.056
20
15.848
10
2229.798
20
16.060
10
2229.587
20
16.317
10
2229.429
20
16.611
10
2229.333
20
16.930
10
2229.300
20
17.262
10
2229.333
20
17.594
10
2229.429
20
17.913
10
2229.587
20
18.206
10
2229.798
20
18.464
10
2230.056
20
18.675
10
2230.349
20
18.833
10
2230.668
20
18.929
10
2231.000
20
18.962
10
2231.332
20
18.929
10
2231.651
20
18.833
10
2231.944
20
18.675
10
2232.202
20
18.464
10
2232.413
20
18.206
10
2232.571
20
17.913
10
2232.667
20
17.594
10
2232.700
20
17.262
10
2232.667
20
16.930
10
2232.571
20
16.611
10
2232.413
20
16.317
10
2232.202
20
16.060
10
2231.944
20
15.848
10
2231.651
20
15.691
10
2231.332
20
15.595
10
2231.000
20
15.562
0
LWPOLYLINE
8
INTERIOR_PROFILES
90
33
70
1
10
2231.000
20
422.824
10
2230.668
20
422.857
10
2230.349
20
422.953
10
2230.056
20
423.110
10
2229.798
20
423.322
10
2229.587
20
423.579
10
2229.429
20
423.873
10
2229.333
20
424.192
10
2229.300
20
424.524
10
2229.333
20
424.856
10
2229.429
20
425.174
10
2229.587
20
425.468
10
2229.798
20
425.726
10
2230.056
20
425.937
10
2230.349
20
426.094
10
2230.668
20
426.191
10
2231.000
20
426.224
10
2231.332
20
426.191
10
2231.651
20
426.094
10
2231.944
20
425.937
10
2232.202
20
425.726
10
2232.413
20
425.468
10
2232.571
20
425.174
10
2232.667
20
424.856
10
2232.700
20
424.524
10
2232.667
20
424.192
10
2232.571
20
423.873
10
2232.413
20
423.579
10
2232.202
20
423.322
10
2231.944
20
423.110
10
2231.651
20
422.953
10
2231.332
20
422.857
10
2231.000
20
422.824
0
LWPOLYLINE
8
INTERIOR_PROFILES
90
33
70
1
10
2189.238
20
409.562
10
2188.906
20
409.595
10
2188.587
20
409.691
10
2188.294
20
409.848
10
2188.036
20
410.060
10
2187.825
20
410.317
10
2187.667
20
410.611
10
2187.571
20
410.930
10
2187.538
20
411.262
10
2187.571
20
411.594
10
2187.667
20
411.913
10
2187.825
20
412.206
10
2188.036
20
412.464
10
2188.294
20
412.675
10
2188.587
20
412.833
10
2188.906
20
412.929
10
2189.238
20
412.962
10
2189.570
20
412.929
10
2189.889
20
412.833
10
2190.183
20
412.675
10
2190.440
20
412.464
10
2190.652
20
412.206
10
2190.809
20
411.913
10
2190.905
20
411.594
10
2190.938
20
411.262
10
2190.905
20
410.930
10
2190.809
20
410.611
10
2190.652
20
410.317
10
2190.440
20
410.060
10
2190.183
20
409.848
10
2189.889
20
409.691
10
2189.570
20
409.595
10
2189.238
20
409.562
0
LWPOLYLINE
8
INTERIOR_PROFILES
90
33
70
1
10
2231.000
20
87.562
10
2230.668
20
87.595
10
2230.349
20
87.691
10
2230.056
20
87.848
10
2229.798
20
88.060
10
2229.587
20
88.317
10
2229.429
20
88.611
10
2229.333
20
88.930
10
2229.300
20
89.262
10
2229.333
20
89.594
10
2229.429
20
89.913
10
2229.587
20
90.206
10
2229.798
20
90.464
10
2230.056
20
90.675
10
2230.349
20
90.833
10
2230.668
20
90.929
10
2231.000
20
90.962
10
2231.332
20
90.929
10
2231.651
20
90.833
10
2231.944
20
90.675
10
2232.202
20
90.464
10
2232.413
20
90.206
10
2232.571
20
89.913
10
2232.667
20
89.594
10
2232.700
20
89.262
10
2232.667
20
88.930
10
2232.571
20
88.611
10
2232.413
20
88.317
10
2232.202
20
88.060
10
2231.944
20
87.848
10
2231.651
20
87.691
10
2231.332
20
87.595
10
2231.000
20
87.562
0
LWPOLYLINE
8
INTERIOR_PROFILES
90
33
70
1
10
2231.000
20
41.562
10
2230.668
20
41.595
10
2230.349
20
41.691
10
2230.056
20
41.848
10
2229.798
20
42.060
10
2229.587
20
42.317
10
2229.429
20
42.611
10
2229.333
20
42.930
10
2229.300
20
43.262
10
2229.333
20
43.594
10
2229.429
20
43.913
10
2229.587
20
44.206
10
2229.798
20
44.464
10
2230.056
20
44.675
10
2230.349
20
44.833
10
2230.668
20
44.929
10
2231.000
20
44.962
10
2231.332
20
44.929
10
2231.651
20
44.833
10
2231.944
20
44.675
10
2232.202
20
44.464
10
2232.413
20
44.206
10
2232.571
20
43.913
10
2232.667
20
43.594
10
2232.700
20
43.262
10
2232.667
20
42.930
10
2232.571
20
42.611
10
2232.413
20
42.317
10
2232.202
20
42.060
10
2231.944
20
41.848
10
2231.651
20
41.691
10
2231.332
20
41.595
10
2231.000
20
41.562
0
LWPOLYLINE
8
INTERIOR_PROFILES
90
33
70
1
10
2214.238
20
409.562
10
2213.906
20
409.595
10
2213.587
20
409.691
10
2213.294
20
409.848
10
2213.036
20
410.060
10
2212.825
20
410.317
10
2212.667
20
410.611
10
2212.571
20
410.930
10
2212.538
20
411.262
10
2212.571
20
411.594
10
2212.667
20
411.913
10
2212.825
20
412.206
10
2213.036
20
412.464
10
2213.294
20
412.675
10
2213.587
20
412.833
10
2213.906
20
412.929
10
2214.238
20
412.962
10
2214.570
20
412.929
10
2214.889
20
412.833
10
2215.183
20
412.675
10
2215.440
20
412.464
10
2215.652
20
412.206
10
2215.809
20
411.913
10
2215.905
20
411.594
10
2215.938
20
411.262
10
2215.905
20
410.930
10
2215.809
20
410.611
10
2215.652
20
410.317
10
2215.440
20
410.060
10
2215.183
20
409.848
10
2214.889
20
409.691
10
2214.570
20
409.595
10
2214.238
20
409.562
0
LWPOLYLINE
8
INTERIOR_PROFILES
90
33
70
1
10
2214.238
20
15.562
10
2213.906
20
15.595
10
2213.587
20
15.691
10
2213.294
20
15.848
10
2213.036
20
16.060
10
2212.825
20
16.317
10
2212.667
20
16.611
10
2212.571
20
16.930
10
2212.538
20
17.262
10
2212.571
20
17.594
10
2212.667
20
17.913
10
2212.825
20
18.206
10
2213.036
20
18.464
10
2213.294
20
18.675
10
2213.587
20
18.833
10
2213.906
20
18.929
10
2214.238
20
18.962
10
2214.570
20
18.929
10
2214.889
20
18.833
10
2215.183
20
18.675
10
2215.440
20
18.464
10
2215.652
20
18.206
10
2215.809
20
17.913
10
2215.905
20
17.594
10
2215.938
20
17.262
10
2215.905
20
16.930
10
2215.809
20
16.611
10
2215.652
20
16.317
10
2215.440
20
16.060
10
2215.183
20
15.848
10
2214.889
20
15.691
10
2214.570
20
15.595
10
2214.238
20
15.562
0
TEXT
8
PART_LABELS
10
296.000
20
439.000
30
0
40
15.000
1
C10002-000000
72
1
73
2
11
296.000
21
439.000
31
0
0
LWPOLYLINE
8
OUTER_PROFILES
90
27
70
1
10
585.000
20
446.000
10
586.812
20
445.761
10
588.500
20
445.062
10
589.950
20
443.950
10
591.062
20
442.500
10
591.761
20
440.812
10
592.000
20
439.000
10
591.761
20
437.188
10
591.062
20
435.500
10
589.950
20
434.050
10
588.500
20
432.938
10
586.812
20
432.239
10
585.000
20
432.000
10
7.000
20
432.000
10
5.188
20
432.239
10
3.500
20
432.938
10
2.050
20
434.050
10
0.938
20
435.500
10
0.239
20
437.188
10
0.000
20
439.000
10
0.239
20
440.812
10
0.938
20
442.500
10
2.050
20
443.950
10
3.500
20
445.062
10
5.188
20
445.761
10
7.000
20
446.000
10
585.000
20
446.000
0
LWPOLYLINE
8
INTERIOR_PROFILES
90
33
70
1
10
27.300
20
439.000
10
27.333
20
439.332
10
27.429
20
439.651
10
27.587
20
439.944
10
27.798
20
440.202
10
28.056
20
440.413
10
28.349
20
440.571
10
28.668
20
440.667
10
29.000
20
440.700
10
29.332
20
440.667
10
29.651
20
440.571
10
29.944
20
440.413
10
30.202
20
440.202
10
30.413
20
439.944
10
30.571
20
439.651
10
30.667
20
439.332
10
30.700
20
439.000
10
30.667
20
438.668
10
30.571
20
438.349
10
30.413
20
438.056
10
30.202
20
437.798
10
29.944
20
437.587
10
29.651
20
437.429
10
29.332
20
437.333
10
29.000
20
437.300
10
28.668
20
437.333
10
28.349
20
437.429
10
28.056
20
437.587
10
27.798
20
437.798
10
27.587
20
438.056
10
27.429
20
438.349
10
27.333
20
438.668
10
27.300
20
439.000
0
LWPOLYLINE
8
INTERIOR_PROFILES
90
33
70
1
10
561.300
20
439.000
10
561.333
20
439.332
10
561.429
20
439.651
10
561.587
20
439.944
10
561.798
20
440.202
10
562.056
20
440.413
10
562.349
20
440.571
10
562.668
20
440.667
10
563.000
20
440.700
10
563.332
20
440.667
10
563.651
20
440.571
10
563.944
20
440.413
10
564.202
20
440.202
10
564.413
20
439.944
10
564.571
20
439.651
10
564.667
20
439.332
10
564.700
20
439.000
10
564.667
20
438.668
10
564.571
20
438.349
10
564.413
20
438.056
10
564.202
20
437.798
10
563.944
20
437.587
10
563.651
20
437.429
10
563.332
20
437.333
10
563.000
20
437.300
10
562.668
20
437.333
10
562.349
20
437.429
10
562.056
20
437.587
10
561.798
20
437.798
10
561.587
20
438.056
10
561.429
20
438.349
10
561.333
20
438.668
10
561.300
20
439.000
0
LWPOLYLINE
8
INTERIOR_PROFILES
90
33
70
1
10
205.300
20
439.000
10
205.333
20
439.332
10
205.429
20
439.651
10
205.587
20
439.944
10
205.798
20
440.202
10
206.056
20
440.413
10
206.349
20
440.571
10
206.668
20
440.667
10
207.000
20
440.700
10
207.332
20
440.667
10
207.651
20
440.571
10
207.944
20
440.413
10
208.202
20
440.202
10
208.413
20
439.944
10
208.571
20
439.651
10
208.667
20
439.332
10
208.700
20
439.000
10
208.667
20
438.668
10
208.571
20
438.349
10
208.413
20
438.056
10
208.202
20
437.798
10
207.944
20
437.587
10
207.651
20
437.429
10
207.332
20
437.333
10
207.000
20
437.300
10
206.668
20
437.333
10
206.349
20
437.429
10
206.056
20
437.587
10
205.798
20
437.798
10
205.587
20
438.056
10
205.429
20
438.349
10
205.333
20
438.668
10
205.300
20
439.000
0
LWPOLYLINE
8
INTERIOR_PROFILES
90
33
70
1
10
586.300
20
439.000
10
586.333
20
439.332
10
586.429
20
439.651
10
586.587
20
439.944
10
586.798
20
440.202
10
587.056
20
440.413
10
587.349
20
440.571
10
587.668
20
440.667
10
588.000
20
440.700
10
588.332
20
440.667
10
588.651
20
440.571
10
588.944
20
440.413
10
589.202
20
440.202
10
589.413
20
439.944
10
589.571
20
439.651
10
589.667
20
439.332
10
589.700
20
439.000
10
589.667
20
438.668
10
589.571
20
438.349
10
589.413
20
438.056
10
589.202
20
437.798
10
588.944
20
437.587
10
588.651
20
437.429
10
588.332
20
437.333
10
588.000
20
437.300
10
587.668
20
437.333
10
587.349
20
437.429
10
587.056
20
437.587
10
586.798
20
437.798
10
586.587
20
438.056
10
586.429
20
438.349
10
586.333
20
438.668
10
586.300
20
439.000
0
LWPOLYLINE
8
INTERIOR_PROFILES
90
33
70
1
10
383.300
20
439.000
10
383.333
20
439.332
10
383.429
20
439.651
10
383.587
20
439.944
10
383.798
20
440.202
10
384.056
20
440.413
10
384.349
20
440.571
10
384.668
20
440.667
10
385.000
20
440.700
10
385.332
20
440.667
10
385.651
20
440.571
10
385.944
20
440.413
10
386.202
20
440.202
10
386.413
20
439.944
10
386.571
20
439.651
10
386.667
20
439.332
10
386.700
20
439.000
10
386.667
20
438.668
10
386.571
20
438.349
10
386.413
20
438.056
10
386.202
20
437.798
10
385.944
20
437.587
10
385.651
20
437.429
10
385.332
20
437.333
10
385.000
20
437.300
10
384.668
20
437.333
10
384.349
20
437.429
10
384.056
20
437.587
10
383.798
20
437.798
10
383.587
20
438.056
10
383.429
20
438.349
10
383.333
20
438.668
10
383.300
20
439.000
0
LWPOLYLINE
8
INTERIOR_PROFILES
90
33
70
1
10
2.300
20
439.000
10
2.333
20
439.332
10
2.429
20
439.651
10
2.587
20
439.944
10
2.798
20
440.202
10
3.056
20
440.413
10
3.349
20
440.571
10
3.668
20
440.667
10
4.000
20
440.700
10
4.332
20
440.667
10
4.651
20
440.571
10
4.944
20
440.413
10
5.202
20
440.202
10
5.413
20
439.944
10
5.571
20
439.651
10
5.667
20
439.332
10
5.700
20
439.000
10
5.667
20
438.668
10
5.571
20
438.349
10
5.413
20
438.056
10
5.202
20
437.798
10
4.944
20
437.587
10
4.651
20
437.429
10
4.332
20
437.333
10
4.000
20
437.300
10
3.668
20
437.333
10
3.349
20
437.429
10
3.056
20
437.587
10
2.798
20
437.798
10
2.587
20
438.056
10
2.429
20
438.349
10
2.333
20
438.668
10
2.300
20
439.000
0
TEXT
8
PART_LABELS
10
207.000
20
455.000
30
0
40
15.000
1
C10002-000000-Ruth
72
1
73
2
11
207.000
21
455.000
31
0
0
LWPOLYLINE
8
OUTER_PROFILES
90
27
70
1
10
407.000
20
462.000
10
7.000
20
462.000
10
5.188
20
461.761
10
3.500
20
461.062
10
2.050
20
459.950
10
0.938
20
458.500
10
0.239
20
456.812
10
0.000
20
455.000
10
0.239
20
453.188
10
0.938
20
451.500
10
2.050
20
450.050
10
3.500
20
448.938
10
5.188
20
448.239
10
7.000
20
448.000
10
407.000
20
448.000
10
408.812
20
448.239
10
410.500
20
448.938
10
411.950
20
450.050
10
413.062
20
451.500
10
413.761
20
453.188
10
414.000
20
455.000
10
413.761
20
456.812
10
413.062
20
458.500
10
411.950
20
459.950
10
410.500
20
461.062
10
408.812
20
461.761
10
407.000
20
462.000
0
LWPOLYLINE
8
INTERIOR_PROFILES
90
33
70
1
10
205.300
20
455.000
10
205.333
20
455.332
10
205.429
20
455.651
10
205.587
20
455.944
10
205.798
20
456.202
10
206.056
20
456.413
10
206.349
20
456.571
10
206.668
20
456.667
10
207.000
20
456.700
10
207.332
20
456.667
10
207.651
20
456.571
10
207.944
20
456.413
10
208.202
20
456.202
10
208.413
20
455.944
10
208.571
20
455.651
10
208.667
20
455.332
10
208.700
20
455.000
10
208.667
20
454.668
10
208.571
20
454.349
10
208.413
20
454.056
10
208.202
20
453.798
10
207.944
20
453.587
10
207.651
20
453.429
10
207.332
20
453.333
10
207.000
20
453.300
10
206.668
20
453.333
10
206.349
20
453.429
10
206.056
20
453.587
10
205.798
20
453.798
10
205.587
20
454.056
10
205.429
20
454.349
10
205.333
20
454.668
10
205.300
20
455.000
0
LWPOLYLINE
8
INTERIOR_PROFILES
90
33
70
1
10
383.300
20
455.000
10
383.333
20
455.332
10
383.429
20
455.651
10
383.587
20
455.944
10
383.798
20
456.202
10
384.056
20
456.413
10
384.349
20
456.571
10
384.668
20
456.667
10
385.000
20
456.700
10
385.332
20
456.667
10
385.651
20
456.571
10
385.944
20
456.413
10
386.202
20
456.202
10
386.413
20
455.944
10
386.571
20
455.651
10
386.667
20
455.332
10
386.700
20
455.000
10
386.667
20
454.668
10
386.571
20
454.349
10
386.413
20
454.056
10
386.202
20
453.798
10
385.944
20
453.587
10
385.651
20
453.429
10
385.332
20
453.333
10
385.000
20
453.300
10
384.668
20
453.333
10
384.349
20
453.429
10
384.056
20
453.587
10
383.798
20
453.798
10
383.587
20
454.056
10
383.429
20
454.349
10
383.333
20
454.668
10
383.300
20
455.000
0
LWPOLYLINE
8
INTERIOR_PROFILES
90
33
70
1
10
27.300
20
455.000
10
27.333
20
455.332
10
27.429
20
455.651
10
27.587
20
455.944
10
27.798
20
456.202
10
28.056
20
456.413
10
28.349
20
456.571
10
28.668
20
456.667
10
29.000
20
456.700
10
29.332
20
456.667
10
29.651
20
456.571
10
29.944
20
456.413
10
30.202
20
456.202
10
30.413
20
455.944
10
30.571
20
455.651
10
30.667
20
455.332
10
30.700
20
455.000
10
30.667
20
454.668
10
30.571
20
454.349
10
30.413
20
454.056
10
30.202
20
453.798
10
29.944
20
453.587
10
29.651
20
453.429
10
29.332
20
453.333
10
29.000
20
453.300
10
28.668
20
453.333
10
28.349
20
453.429
10
28.056
20
453.587
10
27.798
20
453.798
10
27.587
20
454.056
10
27.429
20
454.349
10
27.333
20
454.668
10
27.300
20
455.000
0
LWPOLYLINE
8
INTERIOR_PROFILES
90
33
70
1
10
2.300
20
455.000
10
2.333
20
455.332
10
2.429
20
455.651
10
2.587
20
455.944
10
2.798
20
456.202
10
3.056
20
456.413
10
3.349
20
456.571
10
3.668
20
456.667
10
4.000
20
456.700
10
4.332
20
456.667
10
4.651
20
456.571
10
4.944
20
456.413
10
5.202
20
456.202
10
5.413
20
455.944
10
5.571
20
455.651
10
5.667
20
455.332
10
5.700
20
455.000
10
5.667
20
454.668
10
5.571
20
454.349
10
5.413
20
454.056
10
5.202
20
453.798
10
4.944
20
453.587
10
4.651
20
453.429
10
4.332
20
453.333
10
4.000
20
453.300
10
3.668
20
453.333
10
3.349
20
453.429
10
3.056
20
453.587
10
2.798
20
453.798
10
2.587
20
454.056
10
2.429
20
454.349
10
2.333
20
454.668
10
2.300
20
455.000
0
LWPOLYLINE
8
INTERIOR_PROFILES
90
33
70
1
10
408.300
20
455.000
10
408.333
20
455.332
10
408.429
20
455.651
10
408.587
20
455.944
10
408.798
20
456.202
10
409.056
20
456.413
10
409.349
20
456.571
10
409.668
20
456.667
10
410.000
20
456.700
10
410.332
20
456.667
10
410.651
20
456.571
10
410.944
20
456.413
10
411.202
20
456.202
10
411.413
20
455.944
10
411.571
20
455.651
10
411.667
20
455.332
10
411.700
20
455.000
10
411.667
20
454.668
10
411.571
20
454.349
10
411.413
20
454.056
10
411.202
20
453.798
10
410.944
20
453.587
10
410.651
20
453.429
10
410.332
20
453.333
10
410.000
20
453.300
10
409.668
20
453.333
10
409.349
20
453.429
10
409.056
20
453.587
10
408.798
20
453.798
10
408.587
20
454.056
10
408.429
20
454.349
10
408.333
20
454.668
10
408.300
20
455.000
0
ENDSEC
0
EOF