0
SECTION
2
HEADER
9
$INSUNITS
70
4
9
$ACADVER
1
AC1014
9
$HANDSEED
5
FFFF
0
ENDSEC
0
SECTION
2
TABLES
0
TABLE
2
VPORT
5
8
100
AcDbSymbolTable
0
ENDTAB
0
TABLE
2
LTYPE
5
5
100
AcDbSymbolTable
0
LTYPE
5
14
100
AcDbSymbolTableRecord
100
AcDbLinetypeTableRecord
2
BYBLOCK
70
0
0
LTYPE
5
15
100
AcDbSymbolTableRecord
100
AcDbLinetypeTableRecord
2
BYLAYER
70
0
0
LTYPE
5
16
100
AcDbSymbolTableRecord
100
AcDbLinetypeTableRecord
2
DASHED
70
0
3
Dashed __ __ __ __ __ __ __ __ __ __ __ __ __ _
72
65
73
2
40
0.75
49
0.5
74
0
49
-0.25
74
0
0
ENDTAB
0
TABLE
2
LAYER
5
2
100
AcDbSymbolTable
70
2
0
LAYER
5
50
100
AcDbSymbolTableRecord
100
AcDbLayerTableRecord
2
0
70
0
62
7
6
CONTINUOUS
0
ENDTAB
0
TABLE
2
STYLE
5
3
100
AcDbSymbolTable
70
1
0
STYLE
5
11
100
AcDbSymbolTableRecord
100
AcDbTextStyleTableRecord
2
STANDARD
70
0
0
ENDTAB
0
TABLE
2
VIEW
5
6
100
AcDbSymbolTable
70
0
0
ENDTAB
0
TABLE
2
UCS
5
7
100
AcDbSymbolTable
70
0
0
ENDTAB
0
TABLE
2
APPID
5
9
100
AcDbSymbolTable
70
2
0
APPID
5
12
100
AcDbSymbolTableRecord
100
AcDbRegAppTableRecord
2
ACAD
70
0
0
ENDTAB
0
TABLE
2
DIMSTYLE
5
A
100
AcDbSymbolTable
70
1
0
ENDTAB
0
TABLE
2
BLOCK_RECORD
5
1
100
AcDbSymbolTable
70
1
0
BLOCK_RECORD
5
1F
100
AcDbSymbolTableRecord
100
AcDbBlockTableRecord
2
*MODEL_SPACE
0
BLOCK_RECORD
5
1B
100
AcDbSymbolTableRecord
100
AcDbBlockTableRecord
2
*PAPER_SPACE
0
ENDTAB
0
ENDSEC
0
SECTION
2
BLOCKS
0
BLOCK
5
20
100
AcDbEntity
100
AcDbBlockBegin
2
*MODEL_SPACE
0
ENDBLK
5
21
100
AcDbEntity
100
AcDbBlockEnd
0
BLOCK
5
1C
100
AcDbEntity
100
AcDbBlockBegin
2
*PAPER_SPACE
0
ENDBLK
5
1D
100
AcDbEntity
100
AcDbBlockEnd
0
ENDSEC
0
SECTION
2
ENTITIES
0
LWPOLYLINE
5
100
100
AcDbEntity
8
OUTER_PROFILES
100
AcDbPolyline
90
22
70
1
43
0.0
10
943.29126287952954
20
68.100026847063504
42
0.414213562373073
10
943.29126287952954
20
66.685813284690454
10
946.71512945363531
20
63.26194671058466
10
943.29126287952954
20
59.838080136478865
42
0.414213562373073
10
943.29126287952954
20
58.423866574105801
10
946.735840131754
20
54.979289321881353
10
946.735840131754
20
52.900000000000006
10
957.04778684233872
20
52.900000000000006
10
957.04778684233872
20
8.8817841970012523e-15
10
0
20
5.3024271820561835e-26
10
0
20
52.900000000000006
10
10.311946710584721
20
52.900000000000006
10
10.311946710584721
20
54.979289321881353
10
13.756523962809206
20
58.423866574105702
42
0.41421356237312035
10
13.756523962809199
20
59.838080136478851
10
10.33265738870341
20
63.261946710584638
10
13.75652396280911
20
66.685813284690425
42
0.41421356237306417
10
13.756523962809148
20
68.100026847063447
10
10.311946710584721
20
71.544604099287966
10
10.311946710584721
20
73.523893421169305
10
946.735840131754
20
73.523893421169305
10
946.735840131754
20
71.544604099287966
0
CIRCLE
5
101
100
AcDbEntity
8
INTERIOR_PROFILES
100
AcDbCircle
10
-813.5238934211693
20
26.000000000000011
30
0
40
1.6999999999999993
210
0
220
0
230
-1
0
CIRCLE
5
102
100
AcDbEntity
8
INTERIOR_PROFILES
100
AcDbCircle
10
-127.52389342116928
20
4.0000000000000124
30
0
40
1.7000000000000004
210
0
220
0
230
-1
0
CIRCLE
5
103
100
AcDbEntity
8
INTERIOR_PROFILES
100
AcDbCircle
10
-55.523893421169248
20
4.0000000000000124
30
0
40
1.7000000000000004
210
0
220
0
230
-1
0
CIRCLE
5
104
100
AcDbEntity
8
INTERIOR_PROFILES
100
AcDbCircle
10
-343.52389342116942
20
26.000000000000011
30
0
40
1.6999999999999993
210
0
220
0
230
-1
0
CIRCLE
5
105
100
AcDbEntity
8
INTERIOR_PROFILES
100
AcDbCircle
10
-743.5238934211693
20
26.000000000000011
30
0
40
1.6999999999999993
210
0
220
0
230
-1
0
CIRCLE
5
106
100
AcDbEntity
8
INTERIOR_PROFILES
100
AcDbCircle
10
-829.52389342116942
20
4.0000000000000124
30
0
40
1.7000000000000004
210
0
220
0
230
-1
0
CIRCLE
5
107
100
AcDbEntity
8
INTERIOR_PROFILES
100
AcDbCircle
10
-543.52389342116942
20
26.000000000000011
30
0
40
1.6999999999999993
210
0
220
0
230
-1
0
CIRCLE
5
108
100
AcDbEntity
8
INTERIOR_PROFILES
100
AcDbCircle
10
-143.52389342116936
20
26.000000000000011
30
0
40
1.6999999999999993
210
0
220
0
230
-1
0
CIRCLE
5
109
100
AcDbEntity
8
INTERIOR_PROFILES
100
AcDbCircle
10
-901.52389342116953
20
29.000000000000007
30
0
40
1.6999999999999993
210
0
220
0
230
-1
0
CIRCLE
5
110
100
AcDbEntity
8
INTERIOR_PROFILES
100
AcDbCircle
10
-926.52389342116953
20
29.000000000000007
30
0
40
1.6999999999999993
210
0
220
0
230
-1
0
CIRCLE
5
111
100
AcDbEntity
8
INTERIOR_PROFILES
100
AcDbCircle
10
-213.52389342116936
20
26.000000000000011
30
0
40
1.6999999999999993
210
0
220
0
230
-1
0
CIRCLE
5
112
100
AcDbEntity
8
INTERIOR_PROFILES
100
AcDbCircle
10
-613.5238934211693
20
26.000000000000011
30
0
40
1.6999999999999993
210
0
220
0
230
-1
0
CIRCLE
5
113
100
AcDbEntity
8
INTERIOR_PROFILES
100
AcDbCircle
10
-901.52389342116953
20
4.0000000000000124
30
0
40
1.7000000000000004
210
0
220
0
230
-1
0
CIRCLE
5
114
100
AcDbEntity
8
INTERIOR_PROFILES
100
AcDbCircle
10
-413.5238934211693
20
26.000000000000011
30
0
40
1.6999999999999993
210
0
220
0
230
-1
0
CIRCLE
5
115
100
AcDbEntity
8
INTERIOR_PROFILES
100
AcDbCircle
10
-443.52389342116942
20
26.000000000000011
30
0
40
1.6999999999999993
210
0
220
0
230
-1
0
CIRCLE
5
116
100
AcDbEntity
8
INTERIOR_PROFILES
100
AcDbCircle
10
-513.5238934211693
20
26.000000000000011
30
0
40
1.6999999999999993
210
0
220
0
230
-1
0
LINE
5
117
100
AcDbEntity
8
BEND
100
AcDbLine
10
942.99836966071609
20
67.392920065876979
30
-2.4750788074307025e-11
11
14.049417181622488
21
67.392920065876979
31
-4.0081646662828383e-13
0
LINE
5
118
100
AcDbEntity
8
BEND
100
AcDbLine
10
14.392920065877064
20
73.523893421169305
30
-3.0072956910001254e-13
11
14.392920065877064
21
67.392920065876979
31
-2.4208802930606064e-13
0
LINE
5
119
100
AcDbEntity
8
BEND
100
AcDbLine
10
14.392920065877064
20
67.392920065876979
30
-2.4208802930606064e-13
11
14.392920065877064
21
59.130973355292333
31
-2.3800379162854867e-13
0
LINE
5
120
100
AcDbEntity
8
BEND
100
AcDbLine
10
14.392920065877064
20
59.130973355292333
30
-2.3800379162854867e-13
11
14.392920065877064
21
8.8817841970012523e-15
31
-2.6204815990844741e-13
0
LINE
5
121
100
AcDbEntity
8
BEND
100
AcDbLine
10
942.65486677646186
20
8.8817841969628222e-15
30
-2.4659901279747756e-11
11
942.65486677646186
21
59.130973355292333
31
-2.4692755841479891e-11
0
LINE
5
122
100
AcDbEntity
8
BEND
100
AcDbLine
10
942.65486677646186
20
59.130973355292333
30
-2.4692755841479891e-11
11
942.65486677646186
21
67.392920065876979
31
-2.4696840079157408e-11
0
LINE
5
123
100
AcDbEntity
8
BEND
100
AcDbLine
10
942.65486677646186
20
67.392920065876979
30
-2.4696840079157408e-11
11
942.65486677646163
21
73.523893421169305
31
-2.4749945118394215e-11
0
LINE
5
124
100
AcDbEntity
8
BEND
100
AcDbLine
10
942.99836966071609
20
59.130973355292333
30
-2.4805314358421149e-11
11
14.049417181622488
21
59.130973355292333
31
-3.0485583170040367e-13
0
LINE
5
125
100
AcDbEntity
8
BEND
100
AcDbLine
10
950.9168134870464
20
8.8817841969620175e-15
30
-2.4878392183435807e-11
11
950.9168134870464
21
52.900000000000006
31
-2.4960220000378036e-11
0
LINE
5
126
100
AcDbEntity
8
BEND
100
AcDbLine
10
6.1309733552924683
20
52.899999999999999
30
-2.0490197838163632e-13
11
6.1309733552924683
21
8.8817841970012523e-15
31
2.6129561477474063e-13
0
LINE
5
127
100
AcDbEntity
8
BEND_EXTENT
100
AcDbLine
10
5
20
5.2863541411123054e-26
30
7.9219038736214952e-14
11
5
21
52.899999999999991
31
-1.444397696018779e-13
0
LINE
5
128
100
AcDbEntity
8
BEND_EXTENT
100
AcDbLine
10
7.2619467105847946
20
52.900000000000006
30
-4.6826308275117269e-13
11
7.2619467105847946
21
8.8817841970012523e-15
31
-3.8671282156509988e-13
0
LINE
5
129
100
AcDbEntity
8
BEND_EXTENT
100
AcDbLine
10
952.04778684233872
20
52.900000000000006
30
-2.4988627338241505e-11
11
952.04778684233872
21
8.8817841970012523e-15
31
-2.4907077077055432e-11
0
LINE
5
130
100
AcDbEntity
8
BEND_EXTENT
100
AcDbLine
10
949.78584013175407
20
8.881784196962128e-15
30
-2.4848154871789756e-11
11
949.78584013175407
21
52.900000000000006
31
-2.4929566355097751e-11
0
LINE
5
131
100
AcDbEntity
8
BEND_EXTENT
100
AcDbLine
10
943.78584013175396
20
57.929289321881299
30
-2.4779029310734587e-11
11
943.78584013175396
21
8.8817841970012523e-15
31
-2.4689864163846181e-11
0
LINE
5
132
100
AcDbEntity
8
BEND_EXTENT
100
AcDbLine
10
941.52389342116953
20
8.881784196963021e-15
30
-2.4573207233091466e-11
11
941.52389342116953
21
58.000000000000007
31
-2.4662619617756726e-11
0
LINE
5
133
100
AcDbEntity
8
BEND_EXTENT
100
AcDbLine
10
941.52389342116953
20
58.000000000000007
30
-2.4662619617756726e-11
11
15.523893421169248
21
58.000000000000007
31
-2.6745780119387335e-13
0
LINE
5
134
100
AcDbEntity
8
BEND_EXTENT
100
AcDbLine
10
15.523893421169248
20
58.000000000000007
30
-2.6745780119387335e-13
11
15.523893421169248
21
8.8817841970012523e-15
31
-1.7804541652861456e-13
0
LINE
5
135
100
AcDbEntity
8
BEND_EXTENT
100
AcDbLine
10
943.78584013175396
20
73.523893421169305
30
-2.4779057664359424e-11
11
943.78584013175396
21
68.594604099287963
31
-2.4782013463441454e-11
0
LINE
5
136
100
AcDbEntity
8
BEND_EXTENT
100
AcDbLine
10
941.52389342116953
20
68.523893421169305
30
-2.4668851169272163e-11
11
941.52389342116953
21
73.523893421169305
31
-2.4667677349270445e-11
0
LINE
5
137
100
AcDbEntity
8
BEND_EXTENT
100
AcDbLine
10
15.523893421169248
20
68.523893421169305
30
-2.736893527093112e-13
11
941.52389342116953
21
68.523893421169305
31
-2.4668851169272163e-11
0
LINE
5
138
100
AcDbEntity
8
BEND_EXTENT
100
AcDbLine
10
15.523893421169248
20
73.523893421169305
30
-2.725155327075938e-13
11
15.523893421169248
21
68.523893421169305
31
-2.736893527093112e-13
0
LINE
5
139
100
AcDbEntity
8
BEND_EXTENT
100
AcDbLine
10
13.261946710584738
20
60.332657388703304
30
-3.5357212298379137e-13
11
13.261946710584738
21
66.191236032465994
31
-3.6260366586806477e-13
0
LWPOLYLINE
5
140
100
AcDbEntity
8
BEND_EXTENT
100
AcDbPolyline
90
4
70
1
43
0.0
10
15.523893421169248
20
66.261946710584652
10
15.523893421169248
20
60.26194671058466
10
941.52389342116953
20
60.26194671058466
10
941.52389342116953
20
66.261946710584652
0
LINE
5
141
100
AcDbEntity
8
BEND_EXTENT
100
AcDbLine
10
13.261946710584738
20
8.8817841970531247e-15
30
-2.6056373039213513e-13
11
13.261946710584738
21
57.929289321881335
31
-3.4986710798236394e-13
0
LINE
5
142
100
AcDbEntity
8
BEND_EXTENT
100
AcDbLine
10
13.261946710584738
20
68.594604099287963
30
-3.663086808694922e-13
11
13.261946710584738
21
73.523893421169305
31
-3.7390763798974203e-13
0
LINE
5
143
100
AcDbEntity
8
BEND_EXTENT
100
AcDbLine
10
943.78584013175396
20
66.191236032466009
30
-2.478224321250722e-11
11
943.78584013175396
21
60.332657388703311
31
-2.4778969440312647e-11
0
ENDSEC
0
SECTION
2
OBJECTS
0
DICTIONARY
5
C
100
AcDbDictionary
3
ACAD_GROUP
350
D
3
ACAD_MLINESTYLE
350
17
0
DICTIONARY
5
D
100
AcDbDictionary
0
DICTIONARY
5
1A
330
C
100
AcDbDictionary
0
DICTIONARY
5
17
100
AcDbDictionary
0
ENDSEC
0
EOF
