0
SECTION
2
HEADER
9
$INSUNITS
70
4
9
$ACADVER
1
AC1014
9
$HANDSEED
5
FFFF
0
ENDSEC
0
SECTION
2
TABLES
0
TABLE
2
VPORT
5
8
100
AcDbSymbolTable
0
ENDTAB
0
TABLE
2
LTYPE
5
5
100
AcDbSymbolTable
0
LTYPE
5
14
100
AcDbSymbolTableRecord
100
AcDbLinetypeTableRecord
2
BYBLOCK
70
0
0
LTYPE
5
15
100
AcDbSymbolTableRecord
100
AcDbLinetypeTableRecord
2
BYLAYER
70
0
0
LTYPE
5
16
100
AcDbSymbolTableRecord
100
AcDbLinetypeTableRecord
2
DASHED
70
0
3
Dashed __ __ __ __ __ __ __ __ __ __ __ __ __ _
72
65
73
2
40
0.75
49
0.5
74
0
49
-0.25
74
0
0
ENDTAB
0
TABLE
2
LAYER
5
2
100
AcDbSymbolTable
70
2
0
LAYER
5
50
100
AcDbSymbolTableRecord
100
AcDbLayerTableRecord
2
0
70
0
62
7
6
CONTINUOUS
0
ENDTAB
0
TABLE
2
STYLE
5
3
100
AcDbSymbolTable
70
1
0
STYLE
5
11
100
AcDbSymbolTableRecord
100
AcDbTextStyleTableRecord
2
STANDARD
70
0
0
ENDTAB
0
TABLE
2
VIEW
5
6
100
AcDbSymbolTable
70
0
0
ENDTAB
0
TABLE
2
UCS
5
7
100
AcDbSymbolTable
70
0
0
ENDTAB
0
TABLE
2
APPID
5
9
100
AcDbSymbolTable
70
2
0
APPID
5
12
100
AcDbSymbolTableRecord
100
AcDbRegAppTableRecord
2
ACAD
70
0
0
ENDTAB
0
TABLE
2
DIMSTYLE
5
A
100
AcDbSymbolTable
70
1
0
ENDTAB
0
TABLE
2
BLOCK_RECORD
5
1
100
AcDbSymbolTable
70
1
0
BLOCK_RECORD
5
1F
100
AcDbSymbolTableRecord
100
AcDbBlockTableRecord
2
*MODEL_SPACE
0
BLOCK_RECORD
5
1B
100
AcDbSymbolTableRecord
100
AcDbBlockTableRecord
2
*PAPER_SPACE
0
ENDTAB
0
ENDSEC
0
SECTION
2
BLOCKS
0
BLOCK
5
20
100
AcDbEntity
100
AcDbBlockBegin
2
*MODEL_SPACE
0
ENDBLK
5
21
100
AcDbEntity
100
AcDbBlockEnd
0
BLOCK
5
1C
100
AcDbEntity
100
AcDbBlockBegin
2
*PAPER_SPACE
0
ENDBLK
5
1D
100
AcDbEntity
100
AcDbBlockEnd
0
ENDSEC
0
SECTION
2
ENTITIES
0
LWPOLYLINE
5
100
100
AcDbEntity
8
OUTER_PROFILES
100
AcDbPolyline
90
42
70
1
43
0.0
10
756.46905349187011
20
27.624000203250443
10
758.73100020247432
20
28.594604100185386
10
764.42389342101478
20
34.287497318739881
10
764.42389342100864
20
40.623893422075071
10
770.73100020246011
20
40.623893422080322
10
770.73100020239099
20
99.453182743961932
10
758.73100020237666
20
111.45318274394755
10
756.46905349183726
20
112.42378664087707
10
744.46905349177041
20
112.42378664086291
10
742.20710678112016
20
111.52389342204687
10
744.20699999999738
20
113.78584013263414
10
744.20699999998328
20
125.78584013263409
10
742.13639610304597
20
128.04778684323597
10
730.13639610303426
20
140.04778684322164
10
6.2778174594107838
20
140.04778684236339
10
-5.722182540578177
20
128.04778684234907
10
-7.7927864376437626
20
125.78584013174847
10
-7.7927864376581812
20
113.78584013177162
10
-5.7928932188131279
20
111.52389342116624
10
-8.0548399293742357
20
112.42378663997671
10
-20.054839929361123
20
112.42378663996283
10
-22.316786640054783
20
111.45318274302818
10
-34.316786640107104
20
99.453182743014352
10
-34.316786640037897
20
40.623893421132671
10
-28.009679858586264
20
40.623893421142299
10
-28.009679858577371
20
34.287497317807158
10
-22.316786639970047
20
28.59460409929067
10
-20.054839929207443
20
27.624000202336241
10
-8.0548399292680415
20
27.624000202327395
10
-5.7928932186489268
20
28.523893421166431
10
-7.792786437592957
20
26.26194671057922
10
-7.7927864374758542
20
14.261946710602391
10
-5.7221825404475677
20
11.999999999985196
10
-7.4706907327026784e-12
20
6.277817459554953
10
0
20
0
10
736.41421356276965
20
8.7313267727040511e-10
10
736.41421356276214
20
6.2778174604349246
10
742.13639610318512
20
12.000000000869253
10
744.2070000001147
20
14.261946711464919
10
744.20700000010038
20
26.261946711464805
10
742.20710678128466
20
28.52389342204706
10
744.46905349187023
20
27.624000203236356
0
CIRCLE
5
101
100
AcDbEntity
8
INTERIOR_PROFILES
100
AcDbCircle
10
732.95710678144599
20
5.0000000008606271
30
0
40
1.2499999999999871
210
0
220
0
230
1
0
LWPOLYLINE
5
102
100
AcDbEntity
8
INTERIOR_PROFILES
100
AcDbPolyline
90
4
70
1
43
0.0
10
366.5071067814319
20
3.5000000004299459
10
366.50710678142434
20
5.0000000004299316
42
-0.99999999999999989
10
369.90710678144518
20
5.0000000004427925
10
369.90710678145069
20
3.5000000004427712
42
-0.99999999999999989
0
CIRCLE
5
103
100
AcDbEntity
8
INTERIOR_PROFILES
100
AcDbCircle
10
-767.98100020226786
20
90.523893422077407
30
0
40
1.25
210
0
220
0
230
-1
0
CIRCLE
5
104
100
AcDbEntity
8
INTERIOR_PROFILES
100
AcDbCircle
10
31.566786639962938
20
90.52389342113625
30
0
40
1.25
210
0
220
0
230
-1
0
CIRCLE
5
105
100
AcDbEntity
8
INTERIOR_PROFILES
100
AcDbCircle
10
3.4571067813118397
20
4.9999999999946354
30
0
40
1.2499999999999998
210
0
220
0
230
1
0
CIRCLE
5
106
100
AcDbEntity
8
INTERIOR_PROFILES
100
AcDbCircle
10
-35.707106781311779
20
4.9999999999779732
30
0
40
1.7000000000000004
210
0
220
0
230
-1
0
CIRCLE
5
107
100
AcDbEntity
8
INTERIOR_PROFILES
100
AcDbCircle
10
-766.23100020225729
20
99.523893422075361
30
0
40
1.6999999999999993
210
0
220
0
230
-1
0
CIRCLE
5
108
100
AcDbEntity
8
INTERIOR_PROFILES
100
AcDbCircle
10
-668.20710678144735
20
3.5000000007920384
30
0
40
1.7000000000000002
210
0
220
0
230
-1
0
CIRCLE
5
109
100
AcDbEntity
8
INTERIOR_PROFILES
100
AcDbCircle
10
29.816786639935927
20
67.523893421137217
30
0
40
1.6999999999999993
210
0
220
0
230
-1
0
CIRCLE
5
110
100
AcDbEntity
8
INTERIOR_PROFILES
100
AcDbCircle
10
29.816786639973717
20
99.523893421137217
30
0
40
1.6999999999999993
210
0
220
0
230
-1
0
CIRCLE
5
111
100
AcDbEntity
8
INTERIOR_PROFILES
100
AcDbCircle
10
-68.207106781313797
20
3.5000000000805542
30
0
40
1.7000000000000002
210
0
220
0
230
-1
0
CIRCLE
5
112
100
AcDbEntity
8
INTERIOR_PROFILES
100
AcDbCircle
10
-700.7071067814461
20
5.0000000008307133
30
0
40
1.7000000000000004
210
0
220
0
230
-1
0
CIRCLE
5
113
100
AcDbEntity
8
INTERIOR_PROFILES
100
AcDbCircle
10
-766.23100020229515
20
67.523893422075346
30
0
40
1.6999999999999993
210
0
220
0
230
-1
0
LWPOLYLINE
5
114
100
AcDbEntity
8
BEND_EXTENT
100
AcDbPolyline
90
4
70
1
43
0.0
10
742.20710678128466
20
28.52389342204706
10
742.20710678112016
20
111.52389342204687
10
-5.792893218813191
20
111.52389342116624
10
-5.7928932186489268
20
28.523893421166431
0
ENDSEC
0
SECTION
2
OBJECTS
0
DICTIONARY
5
C
100
AcDbDictionary
3
ACAD_GROUP
350
D
3
ACAD_MLINESTYLE
350
17
0
DICTIONARY
5
D
100
AcDbDictionary
0
DICTIONARY
5
1A
330
C
100
AcDbDictionary
0
DICTIONARY
5
17
100
AcDbDictionary
0
ENDSEC
0
EOF
