0
SECTION
2
HEADER
9
$INSUNITS
70
4
9
$ACADVER
1
AC1014
9
$HANDSEED
5
FFFF
0
ENDSEC
0
SECTION
2
TABLES
0
TABLE
2
VPORT
5
8
100
AcDbSymbolTable
0
ENDTAB
0
TABLE
2
LTYPE
5
5
100
AcDbSymbolTable
0
LTYPE
5
14
100
AcDbSymbolTableRecord
100
AcDbLinetypeTableRecord
2
BYBLOCK
70
0
0
LTYPE
5
15
100
AcDbSymbolTableRecord
100
AcDbLinetypeTableRecord
2
BYLAYER
70
0
0
LTYPE
5
16
100
AcDbSymbolTableRecord
100
AcDbLinetypeTableRecord
2
DASHED
70
0
3
Dashed __ __ __ __ __ __ __ __ __ __ __ __ __ _
72
65
73
2
40
0.75
49
0.5
74
0
49
-0.25
74
0
0
ENDTAB
0
TABLE
2
LAYER
5
2
100
AcDbSymbolTable
70
2
0
LAYER
5
50
100
AcDbSymbolTableRecord
100
AcDbLayerTableRecord
2
0
70
0
62
7
6
CONTINUOUS
0
ENDTAB
0
TABLE
2
STYLE
5
3
100
AcDbSymbolTable
70
1
0
STYLE
5
11
100
AcDbSymbolTableRecord
100
AcDbTextStyleTableRecord
2
STANDARD
70
0
0
ENDTAB
0
TABLE
2
VIEW
5
6
100
AcDbSymbolTable
70
0
0
ENDTAB
0
TABLE
2
UCS
5
7
100
AcDbSymbolTable
70
0
0
ENDTAB
0
TABLE
2
APPID
5
9
100
AcDbSymbolTable
70
2
0
APPID
5
12
100
AcDbSymbolTableRecord
100
AcDbRegAppTableRecord
2
ACAD
70
0
0
ENDTAB
0
TABLE
2
DIMSTYLE
5
A
100
AcDbSymbolTable
70
1
0
ENDTAB
0
TABLE
2
BLOCK_RECORD
5
1
100
AcDbSymbolTable
70
1
0
BLOCK_RECORD
5
1F
100
AcDbSymbolTableRecord
100
AcDbBlockTableRecord
2
*MODEL_SPACE
0
BLOCK_RECORD
5
1B
100
AcDbSymbolTableRecord
100
AcDbBlockTableRecord
2
*PAPER_SPACE
0
ENDTAB
0
ENDSEC
0
SECTION
2
BLOCKS
0
BLOCK
5
20
100
AcDbEntity
100
AcDbBlockBegin
2
*MODEL_SPACE
0
ENDBLK
5
21
100
AcDbEntity
100
AcDbBlockEnd
0
BLOCK
5
1C
100
AcDbEntity
100
AcDbBlockBegin
2
*PAPER_SPACE
0
ENDBLK
5
1D
100
AcDbEntity
100
AcDbBlockEnd
0
ENDSEC
0
SECTION
2
ENTITIES
0
CIRCLE
5
100
100
AcDbEntity
8
0
100
AcDbCircle
10
546.00000000000011
20
467.99594334665892
30
0
40
4.4999999999999929
210
0
220
-0
230
1
0
CIRCLE
5
101
100
AcDbEntity
8
0
100
AcDbCircle
10
197.50000000000006
20
473.49594334665886
30
0
40
8.75
210
0
220
-0
230
1
0
CIRCLE
5
102
100
AcDbEntity
8
0
100
AcDbCircle
10
468.50000000000011
20
470.49594334665881
30
0
40
1.6999999999999993
210
0
220
-0
230
1
0
CIRCLE
5
103
100
AcDbEntity
8
0
100
AcDbCircle
10
550
20
50.785840131753815
30
0
40
1.7000000000000002
210
0
220
-0
230
1
0
CIRCLE
5
104
100
AcDbEntity
8
0
100
AcDbCircle
10
66.000000000000014
20
50.785840131753815
30
0
40
1.7000000000000002
210
0
220
-0
230
1
0
CIRCLE
5
105
100
AcDbEntity
8
0
100
AcDbCircle
10
576
20
50.785840131753815
30
0
40
1.7000000000000002
210
0
220
-0
230
1
0
CIRCLE
5
106
100
AcDbEntity
8
0
100
AcDbCircle
10
-6.0000000000000142
20
50.785840131753815
30
0
40
1.7000000000000002
210
0
220
-0
230
1
0
CIRCLE
5
107
100
AcDbEntity
8
0
100
AcDbCircle
10
504
20
50.785840131753815
30
0
40
1.7000000000000002
210
0
220
-0
230
1
0
CIRCLE
5
108
100
AcDbEntity
8
0
100
AcDbCircle
10
20.000000000000071
20
50.785840131753815
30
0
40
1.7000000000000002
210
0
220
-0
230
1
0
CIRCLE
5
109
100
AcDbEntity
8
0
100
AcDbCircle
10
590.76194671057931
20
200.04778684233855
30
0
40
4.4999999999999929
210
-0
220
0
230
1
0
CIRCLE
5
110
100
AcDbEntity
8
0
100
AcDbCircle
10
590.76194671057931
20
355.04778684233855
30
0
40
4.5000000000000107
210
-0
220
0
230
1
0
CIRCLE
5
111
100
AcDbEntity
8
0
100
AcDbCircle
10
593.26194671057931
20
432.54778684233855
30
0
40
1.6999999999999993
210
-0
220
0
230
1
0
CIRCLE
5
112
100
AcDbEntity
8
0
100
AcDbCircle
10
593.26194671057931
20
122.54778684233855
30
0
40
1.7000000000000171
210
-0
220
0
230
1
0
CIRCLE
5
113
100
AcDbEntity
8
0
100
AcDbCircle
10
593.26194671057931
20
277.54778684233855
30
0
40
1.6999999999999815
210
-0
220
0
230
1
0
SPLINE
5
114
100
AcDbEntity
8
0
100
AcDbSpline
70
0
71
3
72
20
73
16
74
0
42
0.000000001
43
0.0000000001
44
0.0000000001
40
0
40
0
40
0
40
0
40
0.15923692285442528
40
0.15923692285442528
40
0.15923692285442528
40
0.2681873848830324
40
0.2681873848830324
40
0.2681873848830324
40
0.4362189362604757
40
0.4362189362604757
40
0.4362189362604757
40
0.58032781057772331
40
0.58032781057772331
40
0.58032781057772331
40
0.72863495526858046
40
0.72863495526858046
40
0.72863495526858046
40
0.72863495526858046
10
585.26194671058465
20
73.347786842338394
30
0
10
584.87977809573397
20
73.347786842338394
30
0
10
584.45658963060373
20
73.31978340879246
30
0
10
584.087474405374
20
73.46849066818335
30
0
10
583.83492447154151
20
73.570236697478677
30
0
10
583.58469750363201
20
73.793148453757283
30
0
10
583.42865171666847
20
74.103176077336101
30
0
10
583.18798623273051
20
74.581323866614255
30
0
10
583.15007995807048
20
75.240404182622925
30
0
10
583.33602003016028
20
75.773047885644885
30
0
10
583.4954877864219
20
76.229859025132868
30
0
10
583.8233414910801
20
76.542579707598136
30
0
10
584.16428504865394
20
76.655172998497861
30
0
10
584.51516118840641
20
76.771046427971228
30
0
10
584.90600956332651
20
76.747786842338414
30
0
10
585.26194671058465
20
76.747786842338414
30
0
0
LINE
5
115
100
AcDbEntity
8
0
100
AcDbLine
10
585.26194671058465
20
76.747786842338414
30
0
11
585.26194671058465
21
73.347786842338394
31
0
0
CIRCLE
5
116
100
AcDbEntity
8
0
100
AcDbCircle
10
285
20
75.047786842338411
30
0
40
1.7000000000000171
210
0
220
0
230
1
0
CIRCLE
5
117
100
AcDbEntity
8
0
100
AcDbCircle
10
-5.9999999999995879
20
98.047786842343072
30
0
40
1.7000000000000171
210
0
220
0
230
1
0
CIRCLE
5
118
100
AcDbEntity
8
0
100
AcDbCircle
10
-5.9999999999942588
20
432.04778684234304
30
0
40
1.7000000000000171
210
0
220
0
230
1
0
CIRCLE
5
119
100
AcDbEntity
8
0
100
AcDbCircle
10
576
20
451.5477868423385
30
0
40
1.6999999999999993
210
0
220
0
230
1
0
CIRCLE
5
120
100
AcDbEntity
8
0
100
AcDbCircle
10
576
20
78.547786842338425
30
0
40
1.7000000000000124
210
0
220
0
230
1
0
CIRCLE
5
121
100
AcDbEntity
8
0
100
AcDbCircle
10
576
20
265.04778684233844
30
0
40
1.6999999999999993
210
0
220
0
230
1
0
CIRCLE
5
122
100
AcDbEntity
8
0
100
AcDbCircle
10
-5.9999999999939746
20
451.54778684234304
30
0
40
1.7000000000000171
210
0
220
0
230
1
0
CIRCLE
5
123
100
AcDbEntity
8
0
100
AcDbCircle
10
85
20
75.047786842338411
30
0
40
1.7000000000000171
210
0
220
0
230
1
0
CIRCLE
5
124
100
AcDbEntity
8
0
100
AcDbCircle
10
385
20
75.047786842338411
30
0
40
1.7000000000000171
210
0
220
0
230
1
0
CIRCLE
5
125
100
AcDbEntity
8
0
100
AcDbCircle
10
485
20
75.047786842338411
30
0
40
1.7000000000000171
210
0
220
0
230
1
0
CIRCLE
5
126
100
AcDbEntity
8
0
100
AcDbCircle
10
-5.9999999999998721
20
78.547786842343044
30
0
40
1.7000000000000171
210
0
220
0
230
1
0
CIRCLE
5
127
100
AcDbEntity
8
0
100
AcDbCircle
10
-5.9999999999941167
20
441.79778684234304
30
0
40
6.4999999999999858
210
0
220
0
230
1
0
CIRCLE
5
128
100
AcDbEntity
8
0
100
AcDbCircle
10
576
20
432.04778684233844
30
0
40
1.6999999999999993
210
0
220
0
230
1
0
CIRCLE
5
129
100
AcDbEntity
8
0
100
AcDbCircle
10
576
20
98.047786842338454
30
0
40
1.700000000000006
210
0
220
0
230
1
0
CIRCLE
5
130
100
AcDbEntity
8
0
100
AcDbCircle
10
576
20
441.79778684233844
30
0
40
6.5
210
0
220
0
230
1
0
CIRCLE
5
131
100
AcDbEntity
8
0
100
AcDbCircle
10
-5.9999999999969589
20
265.04778684234304
30
0
40
1.7000000000000171
210
0
220
0
230
1
0
CIRCLE
5
132
100
AcDbEntity
8
0
100
AcDbCircle
10
185
20
75.047786842338411
30
0
40
1.7000000000000171
210
0
220
0
230
1
0
CIRCLE
5
133
100
AcDbEntity
8
0
100
AcDbCircle
10
515
20
437.04778684233844
30
0
40
1.7000000000000002
210
0
220
-0
230
1
0
CIRCLE
5
134
100
AcDbEntity
8
0
100
AcDbCircle
10
445.99999999999994
20
432.04778684233844
30
0
40
1.7000000000000002
210
0
220
-0
230
1
0
CIRCLE
5
135
100
AcDbEntity
8
0
100
AcDbCircle
10
428
20
414.0477868423385
30
0
40
1.7000000000000002
210
0
220
-0
230
1
0
CIRCLE
5
136
100
AcDbEntity
8
0
100
AcDbCircle
10
428
20
432.04778684233844
30
0
40
1.7000000000000002
210
0
220
-0
230
1
0
CIRCLE
5
137
100
AcDbEntity
8
0
100
AcDbCircle
10
445.99999999999994
20
414.0477868423385
30
0
40
1.7000000000000002
210
0
220
-0
230
1
0
CIRCLE
5
138
100
AcDbEntity
8
0
100
AcDbCircle
10
465
20
437.04778684233844
30
0
40
1.7000000000000002
210
0
220
-0
230
1
0
CIRCLE
5
139
100
AcDbEntity
8
0
100
AcDbCircle
10
565
20
437.04778684233844
30
0
40
1.7000000000000002
210
0
220
-0
230
1
0
CIRCLE
5
140
100
AcDbEntity
8
0
100
AcDbCircle
10
428
20
451.5477868423385
30
0
40
1.7000000000000002
210
0
220
-0
230
1
0
CIRCLE
5
141
100
AcDbEntity
8
0
100
AcDbCircle
10
-23.26194671057614
20
277.5477868423385
30
0
40
1.6999999999999815
210
0
220
-0
230
1
0
CIRCLE
5
142
100
AcDbEntity
8
0
100
AcDbCircle
10
-23.261946710576069
20
122.54778684233848
30
0
40
1.7000000000000171
210
0
220
-0
230
1
0
CIRCLE
5
143
100
AcDbEntity
8
0
100
AcDbCircle
10
-23.26194671057614
20
432.5477868423385
30
0
40
1.6999999999999993
210
0
220
-0
230
1
0
CIRCLE
5
144
100
AcDbEntity
8
0
100
AcDbCircle
10
-20.76194671057614
20
355.0477868423385
30
0
40
4.5000000000000107
210
0
220
-0
230
1
0
CIRCLE
5
145
100
AcDbEntity
8
0
100
AcDbCircle
10
-20.76194671057614
20
200.0477868423385
30
0
40
4.4999999999999929
210
0
220
-0
230
1
0
CIRCLE
5
146
100
AcDbEntity
8
0
100
AcDbCircle
10
485
20
2.9999999999999716
30
0
40
1.7000000000000171
210
0
220
-0
230
1
0
CIRCLE
5
147
100
AcDbEntity
8
0
100
AcDbCircle
10
85
20
2.9999999999999716
30
0
40
1.7000000000000171
210
0
220
-0
230
1
0
CIRCLE
5
148
100
AcDbEntity
8
0
100
AcDbCircle
10
385
20
2.9999999999999716
30
0
40
1.7000000000000171
210
0
220
-0
230
1
0
CIRCLE
5
149
100
AcDbEntity
8
0
100
AcDbCircle
10
185
20
2.9999999999999716
30
0
40
1.7000000000000171
210
0
220
-0
230
1
0
CIRCLE
5
150
100
AcDbEntity
8
0
100
AcDbCircle
10
285
20
2.9999999999999716
30
0
40
1.7000000000000171
210
0
220
-0
230
1
0
CIRCLE
5
151
100
AcDbEntity
8
0
100
AcDbCircle
10
10
20
2.9999999999999716
30
0
40
1.7000000000000171
210
0
220
-0
230
1
0
CIRCLE
5
152
100
AcDbEntity
8
0
100
AcDbCircle
10
434.99999999999989
20
459.73399663607427
30
0
40
1.25
210
0
220
-0
230
1
0
CIRCLE
5
153
100
AcDbEntity
8
0
100
AcDbCircle
10
384.99999999999989
20
459.73399663607427
30
0
40
1.25
210
0
220
-0
230
1
0
CIRCLE
5
154
100
AcDbEntity
8
0
100
AcDbCircle
10
554.99999999999989
20
459.73399663607427
30
0
40
1.25
210
0
220
0
230
1
0
CIRCLE
5
155
100
AcDbEntity
8
0
100
AcDbCircle
10
15.000000000005969
20
459.73399663607427
30
0
40
1.25
210
0
220
0
230
1
0
LWPOLYLINE
5
156
100
AcDbEntity
8
0
100
AcDbPolyline
90
27
70
1
43
0.0
10
583
20
461.23399663607421
10
556.39999999999998
20
461.23399663607421
10
556.39999999999998
20
484.49594334665892
10
-12.999999999999972
20
484.49594334665892
10
-12.999999999999972
20
463.49594334665886
10
-12.999999999999972
20
457.23399663607427
10
-12.999999999999972
20
456.02285775045641
10
-12.999999999999972
20
454.81171886483867
10
-26.261946710584567
20
454.81171886483872
10
-26.261946710584496
20
68.047786842338454
10
-12.999999999999972
20
68.047786842338454
10
-12.999999999999972
20
65.785840131753815
10
-12.999999999999972
20
41.523893421169191
10
-12.999999999999972
20
23.261946710584596
10
-12.999999999999972
20
12.999999999999972
42
-0.41421356237309503
10
0
20
7.9602041944577787e-16
10
570
20
-3.5193120959478815e-16
42
-0.41421356237309803
10
583
20
12.999999999999972
10
583
20
23.261946710584596
10
583
20
41.523893421169191
10
583
20
65.785840131753815
10
583
20
68.047786842338454
10
596.26194671058465
20
68.047786842338454
10
596.26194671058465
20
454.81171886483872
10
583
20
454.81171886483867
10
583
20
456.02285775045641
10
583
20
457.23399663607427
0
ENDSEC
0
SECTION
2
OBJECTS
0
DICTIONARY
5
C
100
AcDbDictionary
3
ACAD_GROUP
350
D
3
ACAD_MLINESTYLE
350
17
0
DICTIONARY
5
D
100
AcDbDictionary
0
DICTIONARY
5
1A
330
C
100
AcDbDictionary
0
DICTIONARY
5
17
100
AcDbDictionary
0
ENDSEC
0
EOF
