0
SECTION
2
HEADER
9
$INSUNITS
70
4
9
$ACADVER
1
AC1014
9
$HANDSEED
5
FFFF
0
ENDSEC
0
SECTION
2
TABLES
0
TABLE
2
VPORT
5
8
100
AcDbSymbolTable
0
ENDTAB
0
TABLE
2
LTYPE
5
5
100
AcDbSymbolTable
0
LTYPE
5
14
100
AcDbSymbolTableRecord
100
AcDbLinetypeTableRecord
2
BYBLOCK
70
0
0
LTYPE
5
15
100
AcDbSymbolTableRecord
100
AcDbLinetypeTableRecord
2
BYLAYER
70
0
0
LTYPE
5
16
100
AcDbSymbolTableRecord
100
AcDbLinetypeTableRecord
2
DASHED
70
0
3
Dashed __ __ __ __ __ __ __ __ __ __ __ __ __ _
72
65
73
2
40
0.75
49
0.5
74
0
49
-0.25
74
0
0
ENDTAB
0
TABLE
2
LAYER
5
2
100
AcDbSymbolTable
70
2
0
LAYER
5
50
100
AcDbSymbolTableRecord
100
AcDbLayerTableRecord
2
0
70
0
62
7
6
CONTINUOUS
0
ENDTAB
0
TABLE
2
STYLE
5
3
100
AcDbSymbolTable
70
1
0
STYLE
5
11
100
AcDbSymbolTableRecord
100
AcDbTextStyleTableRecord
2
STANDARD
70
0
0
ENDTAB
0
TABLE
2
VIEW
5
6
100
AcDbSymbolTable
70
0
0
ENDTAB
0
TABLE
2
UCS
5
7
100
AcDbSymbolTable
70
0
0
ENDTAB
0
TABLE
2
APPID
5
9
100
AcDbSymbolTable
70
2
0
APPID
5
12
100
AcDbSymbolTableRecord
100
AcDbRegAppTableRecord
2
ACAD
70
0
0
ENDTAB
0
TABLE
2
DIMSTYLE
5
A
100
AcDbSymbolTable
70
1
0
ENDTAB
0
TABLE
2
BLOCK_RECORD
5
1
100
AcDbSymbolTable
70
1
0
BLOCK_RECORD
5
1F
100
AcDbSymbolTableRecord
100
AcDbBlockTableRecord
2
*MODEL_SPACE
0
BLOCK_RECORD
5
1B
100
AcDbSymbolTableRecord
100
AcDbBlockTableRecord
2
*PAPER_SPACE
0
ENDTAB
0
ENDSEC
0
SECTION
2
BLOCKS
0
BLOCK
5
20
100
AcDbEntity
100
AcDbBlockBegin
2
*MODEL_SPACE
0
ENDBLK
5
21
100
AcDbEntity
100
AcDbBlockEnd
0
BLOCK
5
1C
100
AcDbEntity
100
AcDbBlockBegin
2
*PAPER_SPACE
0
ENDBLK
5
1D
100
AcDbEntity
100
AcDbBlockEnd
0
ENDSEC
0
SECTION
2
ENTITIES
0
LWPOLYLINE
5
100
100
AcDbEntity
8
OUTER_PROFILES
100
AcDbPolyline
90
40
70
1
43
0.0
10
591.82928932188304
20
818.91681348704856
10
591.82928932188292
20
840.25823048501729
10
591.37928932188288
20
841.54423048501735
10
590.85857873896737
20
842.67520384040245
10
588.85857873511156
20
844.67520384040256
10
-9.1345668806752656e-08
20
844.67520384040381
10
-2.0000000952234842
20
842.67520384033662
10
-2.5207106781169841
20
841.54423048501872
10
-2.9707106781170012
20
840.25823048501866
10
-2.9707106781171433
20
818.91681348704992
10
-2.0707106781171092
20
815.52389342117283
10
-4.3326573886984932
20
817.52389341871049
42
0.19891236737952417
10
-5.7468709510705978
20
816.93810698354605
10
-20.332657388701705
20
802.35232054591461
10
-22.594604099271081
20
799.45318235946002
10
-24.594604099414639
20
797.4531823744353
10
-24.59460409927317
20
24.5946040992267
10
-22.594604099272431
20
22.594604099251093
10
-20.332657388703268
20
20.524000202358692
10
-4.3326573887033248
20
20.524000202358586
10
-2.0707106781188145
20
22.523893421172051
10
-2.9706038969324311
20
20.26194671058752
10
-2.97060389693236
20
4.2619467105875213
10
-1.9999999999933493
20
2.0000000000006724
10
0
20
0
10
588.85857864376226
20
-1.1232681451645021e-12
10
590.8585786437651
20
1.9999999999988294
10
591.8291825407041
20
4.2619467108552005
10
591.82918254069455
20
20.261946710586241
10
590.92928932188113
20
22.523893421170776
10
593.19123603246567
20
20.524000202357303
10
609.19123603246567
20
20.52400020235741
10
611.45318274301098
20
22.594604099284403
10
613.45318274301098
20
24.594604099291178
10
613.45318274315605
20
797.45318237443394
10
611.45318274301258
20
799.45318235945876
10
609.19123603246726
20
802.35232054591495
10
594.60544959483752
20
816.93810698354446
42
0.1989123673798861
10
593.19123603246271
20
817.52389342117135
10
590.92928932188283
20
815.52389342117158
0
LWPOLYLINE
5
101
100
AcDbEntity
8
BEND_EXTENT
100
AcDbPolyline
90
4
70
1
43
0.0
10
590.92928932188113
20
22.523893421170776
10
590.92928932188283
20
815.52389342117158
10
-2.0707106781171092
20
815.52389342117283
10
-2.0707106781188145
20
22.523893421172119
0
ENDSEC
0
SECTION
2
OBJECTS
0
DICTIONARY
5
C
100
AcDbDictionary
3
ACAD_GROUP
350
D
3
ACAD_MLINESTYLE
350
17
0
DICTIONARY
5
D
100
AcDbDictionary
0
DICTIONARY
5
1A
330
C
100
AcDbDictionary
0
DICTIONARY
5
17
100
AcDbDictionary
0
ENDSEC
0
EOF
