0
SECTION
2
HEADER
9
$INSUNITS
70
4
9
$ACADVER
1
AC1014
9
$HANDSEED
5
FFFF
0
ENDSEC
0
SECTION
2
TABLES
0
TABLE
2
VPORT
5
8
100
AcDbSymbolTable
0
ENDTAB
0
TABLE
2
LTYPE
5
5
100
AcDbSymbolTable
0
LTYPE
5
14
100
AcDbSymbolTableRecord
100
AcDbLinetypeTableRecord
2
BYBLOCK
70
0
0
LTYPE
5
15
100
AcDbSymbolTableRecord
100
AcDbLinetypeTableRecord
2
BYLAYER
70
0
0
LTYPE
5
16
100
AcDbSymbolTableRecord
100
AcDbLinetypeTableRecord
2
DASHED
70
0
3
Dashed __ __ __ __ __ __ __ __ __ __ __ __ __ _
72
65
73
2
40
0.75
49
0.5
74
0
49
-0.25
74
0
0
ENDTAB
0
TABLE
2
LAYER
5
2
100
AcDbSymbolTable
70
2
0
LAYER
5
50
100
AcDbSymbolTableRecord
100
AcDbLayerTableRecord
2
0
70
0
62
7
6
CONTINUOUS
0
ENDTAB
0
TABLE
2
STYLE
5
3
100
AcDbSymbolTable
70
1
0
STYLE
5
11
100
AcDbSymbolTableRecord
100
AcDbTextStyleTableRecord
2
STANDARD
70
0
0
ENDTAB
0
TABLE
2
VIEW
5
6
100
AcDbSymbolTable
70
0
0
ENDTAB
0
TABLE
2
UCS
5
7
100
AcDbSymbolTable
70
0
0
ENDTAB
0
TABLE
2
APPID
5
9
100
AcDbSymbolTable
70
2
0
APPID
5
12
100
AcDbSymbolTableRecord
100
AcDbRegAppTableRecord
2
ACAD
70
0
0
ENDTAB
0
TABLE
2
DIMSTYLE
5
A
100
AcDbSymbolTable
70
1
0
ENDTAB
0
TABLE
2
BLOCK_RECORD
5
1
100
AcDbSymbolTable
70
1
0
BLOCK_RECORD
5
1F
100
AcDbSymbolTableRecord
100
AcDbBlockTableRecord
2
*MODEL_SPACE
0
BLOCK_RECORD
5
1B
100
AcDbSymbolTableRecord
100
AcDbBlockTableRecord
2
*PAPER_SPACE
0
ENDTAB
0
ENDSEC
0
SECTION
2
BLOCKS
0
BLOCK
5
20
100
AcDbEntity
100
AcDbBlockBegin
2
*MODEL_SPACE
0
ENDBLK
5
21
100
AcDbEntity
100
AcDbBlockEnd
0
BLOCK
5
1C
100
AcDbEntity
100
AcDbBlockBegin
2
*PAPER_SPACE
0
ENDBLK
5
1D
100
AcDbEntity
100
AcDbBlockEnd
0
ENDSEC
0
SECTION
2
ENTITIES
0
ARC
5
100
100
AcDbEntity
8
OUTER_PROFILES
100
AcDbCircle
10
-591.45550000212336
20
109.04764814349561
30
0
40
2.5444999999999851
210
0
220
-0
230
-1
100
AcDbArc
50
180
51
257.37328903518318
0
ELLIPSE
5
101
100
AcDbEntity
8
OUTER_PROFILES
100
AcDbEllipse
10
594.00000000260309
20
90.785840106406852
30
0
11
7.148991142079643e-10
21
16
31
0.0
40
0.75000000000000011
41
0.16645738097756713
42
1.5707963267948983
0
LINE
5
102
100
AcDbEntity
8
OUTER_PROFILES
100
AcDbLine
10
582.00000000260309
20
90.785840106942999
30
0
11
582.00000000259161
21
32.261946710584446
31
0
0
ELLIPSE
5
103
100
AcDbEntity
8
OUTER_PROFILES
100
AcDbEllipse
10
594.00000000259161
20
32.261946710584439
30
0
11
-9.7633216739816641e-15
21
-16
31
0.0
40
0.75000000000000011
41
4.7123889803846897
42
6.1167279261160772
0
ARC
5
104
100
AcDbEntity
8
OUTER_PROFILES
100
AcDbCircle
10
-591.45550000000003
20
14.00013867389967
30
0
40
2.5445000000000007
210
0
220
0
230
-1
100
AcDbArc
50
102.62671097380711
51
180
0
LINE
5
105
100
AcDbEntity
8
OUTER_PROFILES
100
AcDbLine
10
594
20
14.000138673904054
30
0
11
594
21
1.9999999999999996
31
0
0
ARC
5
106
100
AcDbEntity
8
OUTER_PROFILES
100
AcDbCircle
10
-592
20
1.9999999999999929
30
0
40
2.0000000000000284
210
0
220
0
230
-1
100
AcDbArc
50
180
51
270
0
LINE
5
107
100
AcDbEntity
8
OUTER_PROFILES
100
AcDbLine
10
592
20
-7.2164496600635175e-15
30
0
11
0
21
-7.2164496600635175e-15
31
0
0
ARC
5
108
100
AcDbEntity
8
OUTER_PROFILES
100
AcDbCircle
10
0
20
1.9999999999999929
30
0
40
2
210
0
220
-0
230
-1
100
AcDbArc
50
270
51
360
0
LINE
5
109
100
AcDbEntity
8
OUTER_PROFILES
100
AcDbLine
10
-2
20
1.9999999999999918
30
0
11
-1.9999999999999725
21
14.000138673156769
31
0
0
ARC
5
110
100
AcDbEntity
8
OUTER_PROFILES
100
AcDbCircle
10
-0.54450000000002774
20
14.000138673152374
30
0
40
2.5445000000000002
210
0
220
0
230
-1
100
AcDbArc
50
0
51
77.373289042743224
0
ELLIPSE
5
111
100
AcDbEntity
8
OUTER_PROFILES
100
AcDbEllipse
10
-1.9999999992556639
20
32.261946710584439
30
0
11
9.8936582041449579e-15
21
-16
31
0.0
40
0.75000000000000011
41
0.16645738084223272
42
1.5707963267948988
0
LINE
5
112
100
AcDbEntity
8
OUTER_PROFILES
100
AcDbLine
10
10.000000000744338
20
32.261946710584482
30
0
11
10.000000000755875
21
90.78584013250088
31
0
0
ELLIPSE
5
113
100
AcDbEntity
8
OUTER_PROFILES
100
AcDbEllipse
10
-1.9999999992441531
20
90.785840133037098
30
0
11
7.149187711934732e-10
21
16
31
0.0
40
0.75000000000000011
41
4.7123889803846879
42
6.1167279262514009
0
ARC
5
114
100
AcDbEntity
8
OUTER_PROFILES
100
AcDbCircle
10
-0.54450000212327154
20
109.04764817006517
30
0
40
2.5444999999999935
210
-0
220
0
230
-1
100
AcDbArc
50
-77.37328903375456
51
0
0
LINE
5
115
100
AcDbEntity
8
OUTER_PROFILES
100
AcDbLine
10
-1.9999999978767291
20
109.04764817017562
30
0
11
-1.9999999960446928
21
121.04778684362213
31
0
0
ARC
5
116
100
AcDbEntity
8
OUTER_PROFILES
100
AcDbCircle
10
-3.9553071928821737e-09
20
121.04778684353278
30
0
40
2
210
0
220
0
230
-1
100
AcDbArc
50
0
51
90.000000002560768
0
LINE
5
117
100
AcDbEntity
8
OUTER_PROFILES
100
AcDbLine
10
4.0446946788437436e-09
20
123.04778684353278
30
0
11
143.00000000312124
21
123.04778683714326
31
0
0
ARC
5
118
100
AcDbEntity
8
OUTER_PROFILES
100
AcDbCircle
10
-143.0000000030318
20
121.04778683714328
30
0
40
1.9999999999999929
210
0
220
0
230
-1
100
AcDbArc
50
90.000000002562359
51
180
0
LINE
5
119
100
AcDbEntity
8
OUTER_PROFILES
100
AcDbLine
10
145.00000000303177
20
121.04778683705392
30
0
11
145.00000000155623
21
88.023893415884231
31
0
0
LINE
5
120
100
AcDbEntity
8
OUTER_PROFILES
100
AcDbLine
10
145.00000000155623
20
88.023893415884231
30
0
11
146.00000000155617
21
88.023893415839552
31
0
0
LINE
5
121
100
AcDbEntity
8
OUTER_PROFILES
100
AcDbLine
10
146.00000000155617
20
88.023893415839552
30
0
11
146.0000000016679
21
120.78584012921324
31
0
0
ARC
5
122
100
AcDbEntity
8
OUTER_PROFILES
100
AcDbCircle
10
-148.0000000016679
20
120.78584012921324
30
0
40
1.9999999999999929
210
0
220
0
230
-1
100
AcDbArc
50
0
51
90
0
LINE
5
123
100
AcDbEntity
8
OUTER_PROFILES
100
AcDbLine
10
148.0000000016679
20
122.78584012921323
30
0
11
444.0000000016679
21
122.78584012921323
31
0
0
ARC
5
124
100
AcDbEntity
8
OUTER_PROFILES
100
AcDbCircle
10
-444.0000000016679
20
120.78584012921324
30
0
40
1.9999999999999929
210
0
220
0
230
-1
100
AcDbArc
50
90
51
180
0
LINE
5
125
100
AcDbEntity
8
OUTER_PROFILES
100
AcDbLine
10
446.00000000166796
20
120.78584012921324
30
0
11
446.00000000155615
21
88.023893402435021
31
0
0
LINE
5
126
100
AcDbEntity
8
OUTER_PROFILES
100
AcDbLine
10
446.00000000155615
20
88.023893402435021
30
0
11
447.0000000015562
21
88.023893402390328
31
0
0
LINE
5
127
100
AcDbEntity
8
OUTER_PROFILES
100
AcDbLine
10
447.0000000015562
20
88.023893402390328
30
0
11
447.00000000303163
21
121.04778682355973
31
0
0
ARC
5
128
100
AcDbEntity
8
OUTER_PROFILES
100
AcDbCircle
10
-449.00000000303169
20
121.0477868234704
30
0
40
2.0000000000000284
210
0
220
0
230
-1
100
AcDbArc
50
0
51
90.000000002559915
0
LINE
5
129
100
AcDbEntity
8
OUTER_PROFILES
100
AcDbLine
10
449.00000000312104
20
123.0477868234704
30
0
11
592.00000000404475
21
123.04778681708089
31
0
0
ARC
5
130
100
AcDbEntity
8
OUTER_PROFILES
100
AcDbCircle
10
-592.00000000395551
20
121.0477868170809
30
0
40
1.9999999999999929
210
0
220
0
230
-1
100
AcDbArc
50
90.000000002556661
51
180
0
LINE
5
131
100
AcDbEntity
8
OUTER_PROFILES
100
AcDbLine
10
594.00000000395551
20
121.04778681699156
30
0
11
594.00000000212333
21
109.04764814338159
31
0
0
CIRCLE
5
132
100
AcDbEntity
8
INTERIOR_PROFILES
100
AcDbCircle
10
-521.00000000194757
20
96.785840109668641
30
0
40
1.7000000000000171
210
0
220
0
230
-1
0
CIRCLE
5
133
100
AcDbEntity
8
INTERIOR_PROFILES
100
AcDbCircle
10
-521.0000000016679
20
26.261946710584439
30
0
40
1.7000000000000171
210
0
220
0
230
-1
0
CIRCLE
5
134
100
AcDbEntity
8
INTERIOR_PROFILES
100
AcDbCircle
10
-296.0000000016679
20
26.261946710584439
30
0
40
1.7000000000000171
210
0
220
0
230
-1
0
CIRCLE
5
135
100
AcDbEntity
8
INTERIOR_PROFILES
100
AcDbCircle
10
-71.000000001667871
20
26.261946710584439
30
0
40
1.7000000000000171
210
0
220
0
230
-1
0
CIRCLE
5
136
100
AcDbEntity
8
INTERIOR_PROFILES
100
AcDbCircle
10
-71.000000001947612
20
96.785840129775323
30
0
40
1.7000000000000171
210
0
220
0
230
-1
0
CIRCLE
5
137
100
AcDbEntity
8
INTERIOR_PROFILES
100
AcDbCircle
10
-5.0000000035679193
20
120.04778684682043
30
0
40
1.7000000000000004
210
0
220
0
230
-1
0
CIRCLE
5
138
100
AcDbEntity
8
INTERIOR_PROFILES
100
AcDbCircle
10
-587.00000000356795
20
120.04778679481062
30
0
40
1.7000000000000171
210
0
220
0
230
-1
0
CIRCLE
5
139
100
AcDbEntity
8
INTERIOR_PROFILES
100
AcDbCircle
10
-5.000000001667928
20
3.0000000025404638
30
0
40
1.7000000000000004
210
0
220
0
230
-1
0
CIRCLE
5
140
100
AcDbEntity
8
INTERIOR_PROFILES
100
AcDbCircle
10
-587.00000000166801
20
3.0000000025404638
30
0
40
1.7000000000000171
210
0
220
0
230
-1
0
CIRCLE
5
141
100
AcDbEntity
8
INTERIOR_PROFILES
100
AcDbCircle
10
-552.00000000166801
20
84.151393418628601
30
0
40
1.7000000000000171
210
0
220
0
230
-1
0
CIRCLE
5
142
100
AcDbEntity
8
INTERIOR_PROFILES
100
AcDbCircle
10
-62.627500001667897
20
61.523893418628589
30
0
40
1.6999999999999993
210
0
220
0
230
-1
0
CIRCLE
5
143
100
AcDbEntity
8
INTERIOR_PROFILES
100
AcDbCircle
10
-563.31375000166804
20
41.927903594496208
30
0
40
1.7000000000000171
210
0
220
0
230
-1
0
CIRCLE
5
144
100
AcDbEntity
8
INTERIOR_PROFILES
100
AcDbCircle
10
-563.31375000166804
20
81.119883242760977
30
0
40
1.7000000000000171
210
0
220
0
230
-1
0
CIRCLE
5
145
100
AcDbEntity
8
INTERIOR_PROFILES
100
AcDbCircle
10
-40.000000001667928
20
38.896393418628591
30
0
40
1.6999999999999993
210
0
220
0
230
-1
0
CIRCLE
5
146
100
AcDbEntity
8
INTERIOR_PROFILES
100
AcDbCircle
10
-28.686250001667872
20
41.927903594496208
30
0
40
1.6999999999999993
210
0
220
0
230
-1
0
CIRCLE
5
147
100
AcDbEntity
8
INTERIOR_PROFILES
100
AcDbCircle
10
-17.372500001667959
20
61.523893418628589
30
0
40
1.6999999999999993
210
0
220
0
230
-1
0
CIRCLE
5
148
100
AcDbEntity
8
INTERIOR_PROFILES
100
AcDbCircle
10
-51.313750001667984
20
41.927903594496208
30
0
40
1.6999999999999993
210
0
220
0
230
-1
0
CIRCLE
5
149
100
AcDbEntity
8
INTERIOR_PROFILES
100
AcDbCircle
10
-28.686250001667872
20
81.119883242760977
30
0
40
1.6999999999999993
210
0
220
0
230
-1
0
CIRCLE
5
150
100
AcDbEntity
8
INTERIOR_PROFILES
100
AcDbCircle
10
-51.313750001667913
20
81.119883242760977
30
0
40
1.6999999999999993
210
0
220
0
230
-1
0
CIRCLE
5
151
100
AcDbEntity
8
INTERIOR_PROFILES
100
AcDbCircle
10
-40.000000001667928
20
61.523893418628589
30
0
40
1.6999999999999993
210
0
220
0
230
-1
0
CIRCLE
5
152
100
AcDbEntity
8
INTERIOR_PROFILES
100
AcDbCircle
10
-552.00000000166801
20
38.896393418628598
30
0
40
1.7000000000000171
210
0
220
0
230
-1
0
CIRCLE
5
153
100
AcDbEntity
8
INTERIOR_PROFILES
100
AcDbCircle
10
-529.37250000166796
20
61.523893418628589
30
0
40
1.7000000000000171
210
0
220
0
230
-1
0
CIRCLE
5
154
100
AcDbEntity
8
INTERIOR_PROFILES
100
AcDbCircle
10
-574.62750000166795
20
61.523893418628589
30
0
40
1.7000000000000171
210
0
220
0
230
-1
0
CIRCLE
5
155
100
AcDbEntity
8
INTERIOR_PROFILES
100
AcDbCircle
10
-540.68625000166787
20
41.927903594496208
30
0
40
1.7000000000000171
210
0
220
0
230
-1
0
CIRCLE
5
156
100
AcDbEntity
8
INTERIOR_PROFILES
100
AcDbCircle
10
-40.000000001667928
20
84.151393418628601
30
0
40
1.6999999999999993
210
0
220
0
230
-1
0
CIRCLE
5
157
100
AcDbEntity
8
INTERIOR_PROFILES
100
AcDbCircle
10
-540.68625000166787
20
81.119883242760977
30
0
40
1.7000000000000171
210
0
220
0
230
-1
0
LINE
5
158
100
AcDbEntity
8
BEND
100
AcDbLine
10
145.00000000244512
20
107.91681348176139
30
3.666552447881196e-13
11
-1.7349063180779467
21
107.91681348831776
31
-1.3201095638369412e-08
0
LINE
5
159
100
AcDbEntity
8
BEND
100
AcDbLine
10
593.73490632230312
20
107.91681346171106
30
1.3201957717047636e-08
11
447.00000000244501
21
107.91681346826743
31
3.6618997914497263e-13
0
LINE
5
160
100
AcDbEntity
8
BEND
100
AcDbLine
10
145.00000000162908
20
89.654866771176543
30
3.2398504668269008e-13
11
10.000000001860982
21
89.654866777208596
31
3.152258597437414e-13
0
LINE
5
161
100
AcDbEntity
8
BEND
100
AcDbLine
10
446.00000000166796
20
119.6548667739209
30
3.1687252200026428e-13
11
146.00000000166787
21
119.6548667739209
31
3.2722139885610882e-13
0
LINE
5
162
100
AcDbEntity
8
BEND
100
AcDbLine
10
-1.7349063200009596
20
15.130973355292202
30
8.3971985219570506e-14
11
593.73490632037169
21
15.130973355292202
31
7.9000532306761497e-14
0
LINE
5
163
100
AcDbEntity
8
BEND
100
AcDbLine
10
10.000000000744507
20
33.392920065876787
30
3.251036259183981e-13
11
582.00000000259149
21
33.392920065876787
31
3.2413859071659214e-13
0
LINE
5
164
100
AcDbEntity
8
BEND
100
AcDbLine
10
582.00000000384853
20
89.654866751650658
30
3.1889820886463235e-13
11
447.00000000162908
21
89.654866757682697
31
3.2560529265733205e-13
0
LINE
5
165
100
AcDbEntity
8
BEND_EXTENT
100
AcDbLine
10
592.62113487361592
20
106.78584010646847
30
3.9079850466231058e-13
11
447.00000000239447
21
106.78584011297508
31
3.8635761256522147e-13
0
LINE
5
166
100
AcDbEntity
8
BEND_EXTENT
100
AcDbLine
10
447.00000000167961
20
90.785840112975094
30
3.1530333898921145e-13
11
582.00000000260309
21
90.785840106943056
31
2.2270629784770787e-08
0
LINE
5
167
100
AcDbEntity
8
BEND_EXTENT
100
AcDbLine
10
447.00000000249554
20
109.04778682355976
30
3.5527136787571709e-13
11
594.00000000341925
21
109.04778681699153
31
3.6859404416979402e-13
0
LINE
5
168
100
AcDbEntity
8
BEND_EXTENT
100
AcDbLine
10
145.00000000239447
20
106.78584012646887
30
3.4194869158314265e-13
11
-0.62113486924786798
21
106.78584013297549
31
3.3750779948605365e-13
0
LINE
5
169
100
AcDbEntity
8
BEND_EXTENT
100
AcDbLine
10
-1.9999999965808968
20
109.04778684362212
30
3.5971225997857011e-13
11
145.00000000249557
21
109.04778683705389
31
3.7969627442039798e-13
0
LINE
5
170
100
AcDbEntity
8
BEND_EXTENT
100
AcDbLine
10
10.000000000744436
20
34.523893421169085
30
3.241851231907936e-13
11
582.00000000259138
21
34.523893421169085
31
3.1530333898678565e-13
0
LINE
5
171
100
AcDbEntity
8
BEND_EXTENT
100
AcDbLine
10
582.00000000259161
20
32.261946710584446
30
2.540825327912438e-09
11
10.000000000744222
21
32.261946710584475
31
2.5408253279124438e-09
0
LINE
5
172
100
AcDbEntity
8
BEND_EXTENT
100
AcDbLine
10
582.00000000259138
20
88.523893396358289
30
3.1530333898678565e-13
11
447.00000000157854
21
88.523893402390343
31
3.1974423108693993e-13
0
LINE
5
173
100
AcDbEntity
8
BEND_EXTENT
100
AcDbLine
10
446.0000000016679
20
118.5238934186286
30
3.2418512318545282e-13
11
146.00000000166787
21
118.52389341862859
31
3.2418512318912763e-13
0
LINE
5
174
100
AcDbEntity
8
BEND_EXTENT
100
AcDbLine
10
145.00000000157854
20
88.523893415884231
30
3.2418512318913995e-13
11
10.000000000744507
21
88.523893421916284
31
3.241851231907936e-13
0
LINE
5
175
100
AcDbEntity
8
BEND_EXTENT
100
AcDbLine
10
-0.62113487070682538
20
16.261946710584436
30
2.4424906541754045e-13
11
592.62113487215686
21
16.261946710584436
31
2.4424906541178987e-13
0
LINE
5
176
100
AcDbEntity
8
BEND_EXTENT
100
AcDbLine
10
594
20
13.999999999999995
30
2.2648549701777401e-13
11
-2.0000000000000284
21
13.999999999999995
31
2.1760371282655009e-13
0
LINE
5
177
100
AcDbEntity
8
BEND_EXTENT
100
AcDbLine
10
146.00000000166787
20
120.78584012921324
30
3.3306690738613176e-13
11
446.00000000166796
21
120.78584012921324
31
3.330669073832237e-13
0
LINE
5
178
100
AcDbEntity
8
BEND_EXTENT
100
AcDbLine
10
10.000000000755875
20
90.78584013250088
30
-3.28736593502299e-09
11
145.00000000167958
21
90.785840126468869
31
3.1974423109049412e-13
0
ENDSEC
0
SECTION
2
OBJECTS
0
DICTIONARY
5
C
100
AcDbDictionary
3
ACAD_GROUP
350
D
3
ACAD_MLINESTYLE
350
17
0
DICTIONARY
5
D
100
AcDbDictionary
0
DICTIONARY
5
1A
330
C
100
AcDbDictionary
0
DICTIONARY
5
17
100
AcDbDictionary
0
ENDSEC
0
EOF
