0
SECTION
2
HEADER
9
$INSUNITS
70
4
9
$ACADVER
1
AC1014
9
$HANDSEED
5
FFFF
0
ENDSEC
0
SECTION
2
TABLES
0
TABLE
2
VPORT
5
8
100
AcDbSymbolTable
0
ENDTAB
0
TABLE
2
LTYPE
5
5
100
AcDbSymbolTable
0
LTYPE
5
14
100
AcDbSymbolTableRecord
100
AcDbLinetypeTableRecord
2
BYBLOCK
70
0
0
LTYPE
5
15
100
AcDbSymbolTableRecord
100
AcDbLinetypeTableRecord
2
BYLAYER
70
0
0
LTYPE
5
16
100
AcDbSymbolTableRecord
100
AcDbLinetypeTableRecord
2
DASHED
70
0
3
Dashed __ __ __ __ __ __ __ __ __ __ __ __ __ _
72
65
73
2
40
0.75
49
0.5
74
0
49
-0.25
74
0
0
ENDTAB
0
TABLE
2
LAYER
5
2
100
AcDbSymbolTable
70
2
0
LAYER
5
50
100
AcDbSymbolTableRecord
100
AcDbLayerTableRecord
2
0
70
0
62
7
6
CONTINUOUS
0
ENDTAB
0
TABLE
2
STYLE
5
3
100
AcDbSymbolTable
70
1
0
STYLE
5
11
100
AcDbSymbolTableRecord
100
AcDbTextStyleTableRecord
2
STANDARD
70
0
0
ENDTAB
0
TABLE
2
VIEW
5
6
100
AcDbSymbolTable
70
0
0
ENDTAB
0
TABLE
2
UCS
5
7
100
AcDbSymbolTable
70
0
0
ENDTAB
0
TABLE
2
APPID
5
9
100
AcDbSymbolTable
70
2
0
APPID
5
12
100
AcDbSymbolTableRecord
100
AcDbRegAppTableRecord
2
ACAD
70
0
0
ENDTAB
0
TABLE
2
DIMSTYLE
5
A
100
AcDbSymbolTable
70
1
0
ENDTAB
0
TABLE
2
BLOCK_RECORD
5
1
100
AcDbSymbolTable
70
1
0
BLOCK_RECORD
5
1F
100
AcDbSymbolTableRecord
100
AcDbBlockTableRecord
2
*MODEL_SPACE
0
BLOCK_RECORD
5
1B
100
AcDbSymbolTableRecord
100
AcDbBlockTableRecord
2
*PAPER_SPACE
0
ENDTAB
0
ENDSEC
0
SECTION
2
BLOCKS
0
BLOCK
5
20
100
AcDbEntity
100
AcDbBlockBegin
2
*MODEL_SPACE
0
ENDBLK
5
21
100
AcDbEntity
100
AcDbBlockEnd
0
BLOCK
5
1C
100
AcDbEntity
100
AcDbBlockBegin
2
*PAPER_SPACE
0
ENDBLK
5
1D
100
AcDbEntity
100
AcDbBlockEnd
0
ENDSEC
0
SECTION
2
ENTITIES
0
LINE
5
100
100
AcDbEntity
8
OUTER_PROFILES
100
AcDbLine
10
9.9999999994898019
20
90.785840133037951
30
0
11
9.9999999995566125
21
32.261946710586102
31
0
0
ELLIPSE
5
101
100
AcDbEntity
8
OUTER_PROFILES
100
AcDbEllipse
10
-2.0000000004434169
20
32.261946710586081
30
0
11
-5.8182327432985558e-14
21
-16
31
0.0
40
0.75000000000000011
41
0.16645738092309692
42
1.5707963267949006
0
ARC
5
102
100
AcDbEntity
8
OUTER_PROFILES
100
AcDbCircle
10
-0.5445000000313438
20
14.000138673427136
30
0
40
2.5445000000000002
210
0
220
0
230
-1
100
AcDbArc
50
0
51
77.373289036693365
0
LINE
5
103
100
AcDbEntity
8
OUTER_PROFILES
100
AcDbLine
10
-1.9999999999686562
20
14.00013867342741
30
0
11
-1.9999999999998386
21
1.9999999999999929
31
0
0
ARC
5
104
100
AcDbEntity
8
OUTER_PROFILES
100
AcDbCircle
10
-1.1879386363489175e-13
20
2.0000000000000107
30
0
40
2.0000000000000004
210
-0
220
0
230
-1
100
AcDbArc
50
270.00000000000341
51
360
0
LINE
5
105
100
AcDbEntity
8
OUTER_PROFILES
100
AcDbLine
10
-1.3877787807811301e-16
20
1.0269562977782698e-14
30
0
11
941.99999999999989
21
-7.2164496600635175e-15
31
0
0
ARC
5
106
100
AcDbEntity
8
OUTER_PROFILES
100
AcDbCircle
10
-941.99999999999977
20
1.9999999999999929
30
0
40
2.0000000000000284
210
0
220
0
230
-1
100
AcDbArc
50
180
51
269.99999999999676
0
LINE
5
107
100
AcDbEntity
8
OUTER_PROFILES
100
AcDbLine
10
943.99999999999977
20
2.0000000000000462
30
0
11
944.00000000003138
21
14.00013867323117
31
0
0
ARC
5
108
100
AcDbEntity
8
OUTER_PROFILES
100
AcDbCircle
10
-941.45550000003141
20
14.000138673231
30
0
40
2.5444999999999993
210
0
220
0
230
-1
100
AcDbArc
50
102.62671095895605
51
180
0
ELLIPSE
5
109
100
AcDbEntity
8
OUTER_PROFILES
100
AcDbEllipse
10
943.9999999996304
20
32.261946710586081
30
0
11
5.8182327433042103e-14
21
-16
31
0.0
40
0.75000000000000011
41
4.7123889803846843
42
6.116727926314546
0
LINE
5
110
100
AcDbEntity
8
OUTER_PROFILES
100
AcDbLine
10
931.9999999996304
20
32.261946710586116
30
0
11
931.99999999956401
21
90.785840147731648
31
0
0
ELLIPSE
5
111
100
AcDbEntity
8
OUTER_PROFILES
100
AcDbEllipse
10
943.99999999956412
20
90.785840147922869
30
0
11
-2.5492763529342586e-10
21
16
31
0.0
40
0.75000000000000011
41
0.16645738086299389
42
1.5707963267948992
0
ARC
5
112
100
AcDbEntity
8
OUTER_PROFILES
100
AcDbCircle
10
-941.45549999970422
20
109.04764818524427
30
0
40
2.5445000000000562
210
0
220
0
230
-1
100
AcDbArc
50
180
51
257.37328904027555
0
LINE
5
113
100
AcDbEntity
8
OUTER_PROFILES
100
AcDbLine
10
943.9999999997043
20
109.0476481852844
30
0
11
943.99999999908187
21
121.04778685850805
31
0
0
ARC
5
114
100
AcDbEntity
8
OUTER_PROFILES
100
AcDbCircle
10
-941.99999999908187
20
121.04778685847619
30
0
40
1.9999999999999929
210
0
220
0
230
-1
100
AcDbArc
50
89.999999999084821
51
180
0
LINE
5
115
100
AcDbEntity
8
OUTER_PROFILES
100
AcDbLine
10
941.99999999904992
20
123.04778685847617
30
0
11
623.99999999901274
21
123.04778685340834
31
0
0
ARC
5
116
100
AcDbEntity
8
OUTER_PROFILES
100
AcDbCircle
10
-623.99999999904458
20
121.04778685340834
30
0
40
2.0000000000000284
210
-0
220
0
230
-1
100
AcDbArc
50
0
51
89.999999999088075
0
LINE
5
117
100
AcDbEntity
8
OUTER_PROFILES
100
AcDbLine
10
621.99999999904458
20
121.04778685337648
30
0
11
621.99999999957095
21
88.023893432206521
31
0
0
LINE
5
118
100
AcDbEntity
8
OUTER_PROFILES
100
AcDbLine
10
621.99999999957095
20
88.023893432206521
30
0
11
620.99999999957095
21
88.02389343219059
31
0
0
LINE
5
119
100
AcDbEntity
8
OUTER_PROFILES
100
AcDbLine
10
620.99999999957095
20
88.02389343219059
30
0
11
620.99999999949864
21
120.78584013205671
31
0
0
ARC
5
120
100
AcDbEntity
8
OUTER_PROFILES
100
AcDbCircle
10
-618.99999999949853
20
120.78584013205457
30
0
40
1.9999999999999929
210
0
220
0
230
-1
100
AcDbArc
50
89.999999999938126
51
180
0
LINE
5
121
100
AcDbEntity
8
OUTER_PROFILES
100
AcDbLine
10
618.99999999949637
20
122.78584013205457
30
0
11
322.99999999949642
21
122.78584013173571
31
0
0
ARC
5
122
100
AcDbEntity
8
OUTER_PROFILES
100
AcDbCircle
10
-322.99999999949853
20
120.78584013173571
30
0
40
2.0000000000000284
210
-0
220
0
230
-1
100
AcDbArc
50
0
51
89.999999999939746
0
LINE
5
123
100
AcDbEntity
8
OUTER_PROFILES
100
AcDbLine
10
320.99999999949853
20
120.78584013173356
30
0
11
320.99999999957095
21
88.023893427409604
31
0
0
LINE
5
124
100
AcDbEntity
8
OUTER_PROFILES
100
AcDbLine
10
320.99999999957095
20
88.023893427409604
30
0
11
319.99999999957095
21
88.023893427393674
31
0
0
LINE
5
125
100
AcDbEntity
8
OUTER_PROFILES
100
AcDbLine
10
319.99999999957095
20
88.023893427393674
30
0
11
319.99999999904441
21
121.04778684856365
31
0
0
ARC
5
126
100
AcDbEntity
8
OUTER_PROFILES
100
AcDbCircle
10
-317.99999999904446
20
121.04778684853176
30
0
40
1.9999999999999929
210
0
220
0
230
-1
100
AcDbArc
50
89.999999999084821
51
180
0
LINE
5
127
100
AcDbEntity
8
OUTER_PROFILES
100
AcDbLine
10
317.99999999901252
20
123.04778684853176
30
0
11
-1.0248513149235805e-09
21
123.04778684346391
31
0
0
ARC
5
128
100
AcDbEntity
8
OUTER_PROFILES
100
AcDbCircle
10
9.9285579757690812e-10
20
121.04778684346391
30
0
40
2
210
-0
220
0
230
-1
100
AcDbArc
50
0
51
89.9999999990834
0
LINE
5
129
100
AcDbEntity
8
OUTER_PROFILES
100
AcDbLine
10
-2.000000000992856
20
121.04778684343204
30
0
11
-2.0000000003706813
21
109.04764817001353
31
0
0
ARC
5
130
100
AcDbEntity
8
OUTER_PROFILES
100
AcDbCircle
10
-0.54449999962931872
20
109.04764817005614
30
0
40
2.5445000000000002
210
-0
220
0
230
-1
100
AcDbArc
50
282.62671096217304
51
360
0
ELLIPSE
5
131
100
AcDbEntity
8
OUTER_PROFILES
100
AcDbEllipse
10
-2.0000000005102256
20
90.785840132846715
30
0
11
-2.5504399994829182e-10
21
16
31
0.0
40
0.75000000000000011
41
4.7123889803846843
42
6.116727926259415
0
CIRCLE
5
132
100
AcDbEntity
8
INTERIOR_PROFILES
100
AcDbCircle
10
-870.99999999959346
20
26.261946710586088
30
0
40
1.7000000000000171
210
0
220
0
230
-1
0
CIRCLE
5
133
100
AcDbEntity
8
INTERIOR_PROFILES
100
AcDbCircle
10
-870.99999999943134
20
96.785840146759512
30
0
40
1.7000000000000171
210
0
220
0
230
-1
0
CIRCLE
5
134
100
AcDbEntity
8
INTERIOR_PROFILES
100
AcDbCircle
10
-936.99999999886745
20
120.04778687381028
30
0
40
1.7000000000000171
210
0
220
0
230
-1
0
CIRCLE
5
135
100
AcDbEntity
8
INTERIOR_PROFILES
100
AcDbCircle
10
-4.9999999988673203
20
120.04778684510846
30
0
40
1.7000000000000004
210
0
220
0
230
-1
0
CIRCLE
5
136
100
AcDbEntity
8
INTERIOR_PROFILES
100
AcDbCircle
10
-395.99999999959357
20
26.261946710586088
30
0
40
1.7000000000000171
210
0
220
0
230
-1
0
CIRCLE
5
137
100
AcDbEntity
8
INTERIOR_PROFILES
100
AcDbCircle
10
-936.99999999957936
20
2.9999999993591686
30
0
40
1.7000000000000171
210
0
220
0
230
-1
0
CIRCLE
5
138
100
AcDbEntity
8
INTERIOR_PROFILES
100
AcDbCircle
10
-470.99999999959357
20
26.261946710586095
30
0
40
1.7000000000000171
210
0
220
0
230
-1
0
CIRCLE
5
139
100
AcDbEntity
8
INTERIOR_PROFILES
100
AcDbCircle
10
-70.999999999431267
20
96.785840134010101
30
0
40
1.7000000000000171
210
0
220
0
230
-1
0
CIRCLE
5
140
100
AcDbEntity
8
INTERIOR_PROFILES
100
AcDbCircle
10
-4.9999999995795372
20
3.0000000003631833
30
0
40
1.7000000000000004
210
0
220
0
230
-1
0
CIRCLE
5
141
100
AcDbEntity
8
INTERIOR_PROFILES
100
AcDbCircle
10
-545.99999999959357
20
26.261946710586077
30
0
40
1.7000000000000171
210
0
220
0
230
-1
0
CIRCLE
5
142
100
AcDbEntity
8
INTERIOR_PROFILES
100
AcDbCircle
10
-70.999999999593641
20
26.261946710586088
30
0
40
1.7000000000000171
210
0
220
0
230
-1
0
CIRCLE
5
143
100
AcDbEntity
8
INTERIOR_PROFILES
100
AcDbCircle
10
-259.68624999954125
20
81.11988324521522
30
0
40
1.7000000000000171
210
0
220
0
230
-1
0
CIRCLE
5
144
100
AcDbEntity
8
INTERIOR_PROFILES
100
AcDbCircle
10
-259.68624999958342
20
41.927903596950465
30
0
40
1.7000000000000171
210
0
220
0
230
-1
0
CIRCLE
5
145
100
AcDbEntity
8
INTERIOR_PROFILES
100
AcDbCircle
10
-270.99999999958675
20
38.896393421095048
30
0
40
1.7000000000000171
210
0
220
0
230
-1
0
CIRCLE
5
146
100
AcDbEntity
8
INTERIOR_PROFILES
100
AcDbCircle
10
-248.37249999956231
20
61.523893421070674
30
0
40
1.7000000000000171
210
0
220
0
230
-1
0
CIRCLE
5
147
100
AcDbEntity
8
INTERIOR_PROFILES
100
AcDbCircle
10
-659.68624999954113
20
81.119883245646136
30
0
40
1.7000000000000171
210
0
220
0
230
-1
0
CIRCLE
5
148
100
AcDbEntity
8
INTERIOR_PROFILES
100
AcDbCircle
10
-282.31374999954124
20
81.119883245239635
30
0
40
1.7000000000000171
210
0
220
0
230
-1
0
CIRCLE
5
149
100
AcDbEntity
8
INTERIOR_PROFILES
100
AcDbCircle
10
-693.62749999956236
20
61.523893421550326
30
0
40
1.7000000000000171
210
0
220
0
230
-1
0
CIRCLE
5
150
100
AcDbEntity
8
INTERIOR_PROFILES
100
AcDbCircle
10
-293.6274999995623
20
61.523893421119425
30
0
40
1.7000000000000171
210
0
220
0
230
-1
0
CIRCLE
5
151
100
AcDbEntity
8
INTERIOR_PROFILES
100
AcDbCircle
10
-682.31374999958325
20
41.927903597405766
30
0
40
1.7000000000000171
210
0
220
0
230
-1
0
CIRCLE
5
152
100
AcDbEntity
8
INTERIOR_PROFILES
100
AcDbCircle
10
-282.31374999958342
20
41.927903596974872
30
0
40
1.7000000000000171
210
0
220
0
230
-1
0
CIRCLE
5
153
100
AcDbEntity
8
INTERIOR_PROFILES
100
AcDbCircle
10
-270.99999999953798
20
84.151393421095051
30
0
40
1.7000000000000171
210
0
220
0
230
-1
0
CIRCLE
5
154
100
AcDbEntity
8
INTERIOR_PROFILES
100
AcDbCircle
10
-670.99999999953775
20
84.151393421525967
30
0
40
1.7000000000000171
210
0
220
0
230
-1
0
CIRCLE
5
155
100
AcDbEntity
8
INTERIOR_PROFILES
100
AcDbCircle
10
-901.99999999958652
20
38.896393421774803
30
0
40
1.7000000000000171
210
0
220
0
230
-1
0
CIRCLE
5
156
100
AcDbEntity
8
INTERIOR_PROFILES
100
AcDbCircle
10
-913.31374999954119
20
81.119883245919368
30
0
40
1.7000000000000171
210
0
220
0
230
-1
0
CIRCLE
5
157
100
AcDbEntity
8
INTERIOR_PROFILES
100
AcDbCircle
10
-62.627499999562218
20
61.523893420870607
30
0
40
1.6999999999999993
210
0
220
0
230
-1
0
CIRCLE
5
158
100
AcDbEntity
8
INTERIOR_PROFILES
100
AcDbCircle
10
-913.31374999958348
20
41.927903597654613
30
0
40
1.7000000000000171
210
0
220
0
230
-1
0
CIRCLE
5
159
100
AcDbEntity
8
INTERIOR_PROFILES
100
AcDbCircle
10
-648.37249999956225
20
61.523893421501576
30
0
40
1.7000000000000171
210
0
220
0
230
-1
0
CIRCLE
5
160
100
AcDbEntity
8
INTERIOR_PROFILES
100
AcDbCircle
10
-659.68624999958342
20
41.927903597381366
30
0
40
1.7000000000000171
210
0
220
0
230
-1
0
CIRCLE
5
161
100
AcDbEntity
8
INTERIOR_PROFILES
100
AcDbCircle
10
-39.999999999586763
20
38.896393420846202
30
0
40
1.6999999999999993
210
0
220
0
230
-1
0
CIRCLE
5
162
100
AcDbEntity
8
INTERIOR_PROFILES
100
AcDbCircle
10
-17.372499999562425
20
61.523893420821807
30
0
40
1.6999999999999993
210
0
220
0
230
-1
0
CIRCLE
5
163
100
AcDbEntity
8
INTERIOR_PROFILES
100
AcDbCircle
10
-51.313749999541194
20
81.119883244990788
30
0
40
1.6999999999999993
210
0
220
0
230
-1
0
CIRCLE
5
164
100
AcDbEntity
8
INTERIOR_PROFILES
100
AcDbCircle
10
-28.686249999541225
20
81.119883244966374
30
0
40
1.6999999999999993
210
0
220
0
230
-1
0
CIRCLE
5
165
100
AcDbEntity
8
INTERIOR_PROFILES
100
AcDbCircle
10
-682.31374999954096
20
81.119883245670536
30
0
40
1.7000000000000171
210
0
220
0
230
-1
0
CIRCLE
5
166
100
AcDbEntity
8
INTERIOR_PROFILES
100
AcDbCircle
10
-670.99999999958652
20
38.89639342152595
30
0
40
1.7000000000000171
210
0
220
0
230
-1
0
CIRCLE
5
167
100
AcDbEntity
8
INTERIOR_PROFILES
100
AcDbCircle
10
-901.99999999953775
20
84.151393421774799
30
0
40
1.7000000000000171
210
0
220
0
230
-1
0
CIRCLE
5
168
100
AcDbEntity
8
INTERIOR_PROFILES
100
AcDbCircle
10
-28.686249999583445
20
41.927903596701611
30
0
40
1.6999999999999993
210
0
220
0
230
-1
0
CIRCLE
5
169
100
AcDbEntity
8
INTERIOR_PROFILES
100
AcDbCircle
10
-51.313749999583564
20
41.927903596726026
30
0
40
1.6999999999999993
210
0
220
0
230
-1
0
CIRCLE
5
170
100
AcDbEntity
8
INTERIOR_PROFILES
100
AcDbCircle
10
-39.999999999562391
20
61.523893420846207
30
0
40
1.6999999999999993
210
0
220
0
230
-1
0
CIRCLE
5
171
100
AcDbEntity
8
INTERIOR_PROFILES
100
AcDbCircle
10
-39.999999999538019
20
84.151393420846205
30
0
40
1.7000000000000037
210
0
220
0
230
-1
0
CIRCLE
5
172
100
AcDbEntity
8
INTERIOR_PROFILES
100
AcDbCircle
10
-879.37249999956236
20
61.523893421750401
30
0
40
1.7000000000000171
210
0
220
0
230
-1
0
CIRCLE
5
173
100
AcDbEntity
8
INTERIOR_PROFILES
100
AcDbCircle
10
-924.62749999956236
20
61.523893421799194
30
0
40
1.7000000000000171
210
0
220
0
230
-1
0
CIRCLE
5
174
100
AcDbEntity
8
INTERIOR_PROFILES
100
AcDbCircle
10
-890.68624999954113
20
81.119883245894982
30
0
40
1.7000000000000171
210
0
220
0
230
-1
0
CIRCLE
5
175
100
AcDbEntity
8
INTERIOR_PROFILES
100
AcDbCircle
10
-890.68624999958331
20
41.927903597630205
30
0
40
1.7000000000000171
210
0
220
0
230
-1
0
LINE
5
176
100
AcDbEntity
8
BEND
100
AcDbLine
10
943.73490631976051
20
107.91681350321124
30
-6.9904760021432659e-09
11
621.99999999925399
21
107.91681349808387
31
1.9677664513533343e-13
0
LINE
5
177
100
AcDbEntity
8
BEND
100
AcDbLine
10
-1.7349063201077242
20
15.13097335529304
30
5.0691827912212679e-10
11
943.73490632007304
21
15.130973355293049
31
-5.0667640866126152e-10
0
LINE
5
178
100
AcDbEntity
8
BEND
100
AcDbLine
10
620.99999999949978
20
119.65486677676441
30
1.4986285819056376e-13
11
320.99999999949972
21
119.65486677644124
31
1.5241808079991971e-13
0
LINE
5
179
100
AcDbEntity
8
BEND
100
AcDbLine
10
931.99999999915099
20
89.654866792439265
30
1.6482704164185905e-13
11
621.99999999954503
21
89.654866787498918
31
1.5679928738660158e-13
0
LINE
5
180
100
AcDbEntity
8
BEND
100
AcDbLine
10
9.9999999995251851
20
33.392920065878442
30
1.5509379188517368e-13
11
931.99999999960266
21
33.392920065878442
31
1.5860500530071835e-13
0
LINE
5
181
100
AcDbEntity
8
BEND
100
AcDbLine
10
319.99999999954491
20
89.654866782685986
30
1.6284681919569062e-13
11
9.9999999991235455
21
89.654866777745639
31
1.53844298578702e-13
0
LINE
5
182
100
AcDbEntity
8
BEND
100
AcDbLine
10
319.99999999925376
20
107.91681349327098
30
1.7511895102665778e-13
11
-1.7349063204887116
21
107.91681348814362
31
6.9907688723537449e-09
0
LINE
5
183
100
AcDbEntity
8
BEND_EXTENT
100
AcDbLine
10
942.62113487058332
20
106.7858401479009
30
1.9539925233421791e-13
11
621.99999999927184
21
106.78584014279132
31
1.9095836023565254e-13
0
LINE
5
184
100
AcDbEntity
8
BEND_EXTENT
100
AcDbLine
10
621.99999999952684
20
90.785840142791301
30
1.6431300764464878e-13
11
931.9999999995639
21
90.78584014773169
31
-1.5339600700770006e-08
0
LINE
5
185
100
AcDbEntity
8
BEND_EXTENT
100
AcDbLine
10
621.9999999992358
20
109.04778685337646
30
1.9095836023565254e-13
11
943.9999999992732
21
109.04778685850803
31
1.9095836023571756e-13
0
LINE
5
186
100
AcDbEntity
8
BEND_EXTENT
100
AcDbLine
10
319.99999999927189
20
106.78584013797831
30
1.7763568394008967e-13
11
-0.62113487155208702
21
106.78584013286871
31
1.6875389974302367e-13
0
LINE
5
187
100
AcDbEntity
8
BEND_EXTENT
100
AcDbLine
10
-2.0000000008016103
20
109.04778684343202
30
1.6875389974302339e-13
11
319.99999999923563
21
109.04778684856365
31
1.5987211554608717e-13
0
LINE
5
188
100
AcDbEntity
8
BEND_EXTENT
100
AcDbLine
10
9.9999999995542463
20
34.52389342117074
30
1.5099033134850637e-13
11
931.99999999962847
21
34.523893421170754
31
1.5987211554466e-13
0
LINE
5
189
100
AcDbEntity
8
BEND_EXTENT
100
AcDbLine
10
931.99999999957026
20
88.523893437146882
30
1.5987211554466e-13
11
621.99999999956299
21
88.523893432206521
31
1.59872115544945e-13
0
LINE
5
190
100
AcDbEntity
8
BEND_EXTENT
100
AcDbLine
10
620.99999999950103
20
118.52389342147207
30
1.5543122344644528e-13
11
320.99999999950091
21
118.5238934211489
31
1.5543122344672109e-13
0
LINE
5
191
100
AcDbEntity
8
BEND_EXTENT
100
AcDbLine
10
319.99999999956304
20
88.523893427393659
30
1.55431223446722e-13
11
9.999999999496012
21
88.523893422453312
31
1.5099033134850637e-13
0
LINE
5
192
100
AcDbEntity
8
BEND_EXTENT
100
AcDbLine
10
931.99999999963052
20
32.261946710586038
30
-6.362022020311996e-10
11
9.9999999995566213
21
32.261946710586102
31
3.5702996115105634e-10
0
LINE
5
193
100
AcDbEntity
8
BEND_EXTENT
100
AcDbLine
10
-0.62113487120552313
20
16.261946710586066
30
1.6875389974302367e-13
11
942.62113487088754
21
16.261946710586077
31
1.598721155462129e-13
0
LINE
5
194
100
AcDbEntity
8
BEND_EXTENT
100
AcDbLine
10
943.99999999999977
20
14.000000000000004
30
1.4210854715221068e-13
11
-1.9999999999998863
21
14.000000000000012
31
1.3322676295501838e-13
0
LINE
5
195
100
AcDbEntity
8
BEND_EXTENT
100
AcDbLine
10
320.99999999949853
20
120.78584013173355
30
1.5543122344758674e-13
11
620.99999999949864
21
120.78584013205671
31
1.643130076446486e-13
0
LINE
5
196
100
AcDbEntity
8
BEND_EXTENT
100
AcDbLine
10
9.9999999994898019
20
90.785840133037951
30
-1.6392620594274376e-09
11
319.99999999952672
21
90.785840137978312
31
1.5987211554602254e-13
0
ENDSEC
0
SECTION
2
OBJECTS
0
DICTIONARY
5
C
100
AcDbDictionary
3
ACAD_GROUP
350
D
3
ACAD_MLINESTYLE
350
17
0
DICTIONARY
5
D
100
AcDbDictionary
0
DICTIONARY
5
1A
330
C
100
AcDbDictionary
0
DICTIONARY
5
17
100
AcDbDictionary
0
ENDSEC
0
EOF
