0
SECTION
2
HEADER
9
$INSUNITS
70
4
9
$ACADVER
1
AC1014
9
$HANDSEED
5
FFFF
0
ENDSEC
0
SECTION
2
TABLES
0
TABLE
2
VPORT
5
8
100
AcDbSymbolTable
0
ENDTAB
0
TABLE
2
LTYPE
5
5
100
AcDbSymbolTable
0
LTYPE
5
14
100
AcDbSymbolTableRecord
100
AcDbLinetypeTableRecord
2
BYBLOCK
70
0
0
LTYPE
5
15
100
AcDbSymbolTableRecord
100
AcDbLinetypeTableRecord
2
BYLAYER
70
0
0
LTYPE
5
16
100
AcDbSymbolTableRecord
100
AcDbLinetypeTableRecord
2
DASHED
70
0
3
Dashed __ __ __ __ __ __ __ __ __ __ __ __ __ _
72
65
73
2
40
0.75
49
0.5
74
0
49
-0.25
74
0
0
ENDTAB
0
TABLE
2
LAYER
5
2
100
AcDbSymbolTable
70
2
0
LAYER
5
50
100
AcDbSymbolTableRecord
100
AcDbLayerTableRecord
2
0
70
0
62
7
6
CONTINUOUS
0
ENDTAB
0
TABLE
2
STYLE
5
3
100
AcDbSymbolTable
70
1
0
STYLE
5
11
100
AcDbSymbolTableRecord
100
AcDbTextStyleTableRecord
2
STANDARD
70
0
0
ENDTAB
0
TABLE
2
VIEW
5
6
100
AcDbSymbolTable
70
0
0
ENDTAB
0
TABLE
2
UCS
5
7
100
AcDbSymbolTable
70
0
0
ENDTAB
0
TABLE
2
APPID
5
9
100
AcDbSymbolTable
70
2
0
APPID
5
12
100
AcDbSymbolTableRecord
100
AcDbRegAppTableRecord
2
ACAD
70
0
0
ENDTAB
0
TABLE
2
DIMSTYLE
5
A
100
AcDbSymbolTable
70
1
0
ENDTAB
0
TABLE
2
BLOCK_RECORD
5
1
100
AcDbSymbolTable
70
1
0
BLOCK_RECORD
5
1F
100
AcDbSymbolTableRecord
100
AcDbBlockTableRecord
2
*MODEL_SPACE
0
BLOCK_RECORD
5
1B
100
AcDbSymbolTableRecord
100
AcDbBlockTableRecord
2
*PAPER_SPACE
0
ENDTAB
0
ENDSEC
0
SECTION
2
BLOCKS
0
BLOCK
5
20
100
AcDbEntity
100
AcDbBlockBegin
2
*MODEL_SPACE
0
ENDBLK
5
21
100
AcDbEntity
100
AcDbBlockEnd
0
BLOCK
5
1C
100
AcDbEntity
100
AcDbBlockBegin
2
*PAPER_SPACE
0
ENDBLK
5
1D
100
AcDbEntity
100
AcDbBlockEnd
0
ENDSEC
0
SECTION
2
ENTITIES
0
LWPOLYLINE
5
100
100
AcDbEntity
8
OUTER_PROFILES
100
AcDbPolyline
90
52
70
1
43
0.0
10
5.4238665741058867
20
6.8380801364796184
10
-0.070710678118075521
20
12.332657388703296
10
-0.070710678118359738
20
24.191236032465966
10
5.4238665741061904
20
29.685813284690443
42
0.41421356237317508
10
5.4238665741061727
20
31.100026847063731
10
-0.1166522241365453
20
36.640545645306126
42
-0.19891236737965734
10
-4.0707106781179059
20
46.186487191324723
10
-4.0707106781181324
20
383.52389342116953
10
7.1912360324662927
20
383.52389342116936
10
7.1912360324662927
20
385.7858401317701
10
7.1912360324657243
20
395.04778684233656
10
7.1912360324657296
20
395.24982787120501
42
0.35639395869265478
10
15.191236032467543
20
405.04778684233821
10
15.191236032467543
20
415.04778684233816
10
1903.1912360324659
20
415.04778684233838
10
1903.1912360324659
20
383.52389342116908
10
1914.4531827430503
20
383.52389342116908
10
1914.4531827430503
20
294.52389342116732
10
1905.4531827430503
20
285.52389342116737
10
1903.1912360324657
20
285.52389342116732
10
1903.1912360324659
20
282.52389342116726
10
1906.1912360324659
20
282.52389342116726
10
1906.1912360324659
20
284.78584013175157
10
1915.1912360324661
20
293.78584013175157
10
2226.1912360324659
20
293.78584013175157
10
2235.1912360324659
20
284.78584013175157
10
2235.1912360324659
20
282.52389342116726
10
2238.1912360324659
20
282.52389342116726
10
2238.1912360324659
20
285.52389342116737
10
2235.9292893218817
20
285.52389342116732
10
2226.9292893218817
20
294.52389342116732
10
2226.9292893218817
20
383.52389342116919
10
2238.1912360324659
20
383.52389342116908
10
2238.1912360324659
20
415.04778684233838
10
2595.1912360324659
20
415.04778684233838
10
2595.1912360324659
20
405.0477868423385
42
0.35639395869260571
10
2603.1912360324663
20
395.2498278712057
10
2603.1912360324659
20
392.7858401317701
10
2603.1912360324659
20
385.7858401317701
10
2603.1912360324659
20
383.52389342116919
10
2614.4531827430501
20
383.52389342116919
10
2614.4531827430505
20
46.186487191324872
42
-0.19891236737965337
10
2610.4991242890692
20
36.640545645306574
10
2604.9586054908259
20
31.100026847063518
42
0.41421356237313917
10
2604.9586054908259
20
29.685813284690425
10
2610.4531827430501
20
24.191236032466001
10
2610.4531827430501
20
12.332657388703367
10
2604.9586054908259
20
6.838080136478883
42
0.41421356237316587
10
2604.9586054908259
20
5.4238665741056629
10
2610.3824720649309
20
0
10
0
20
0
10
5.423866574105408
20
5.4238665741061869
42
0.41421356237307316
0
CIRCLE
5
101
100
AcDbEntity
8
INTERIOR_PROFILES
100
AcDbCircle
10
-680.19123603246601
20
405.04778684233872
30
0
40
1.6999999999998749
210
0
220
0
230
-1
0
CIRCLE
5
102
100
AcDbEntity
8
INTERIOR_PROFILES
100
AcDbCircle
10
-355.19123603246584
20
18.261946710609394
30
0
40
5
210
0
220
0
230
-1
0
CIRCLE
5
103
100
AcDbEntity
8
INTERIOR_PROFILES
100
AcDbCircle
10
-1605.1912360324659
20
18.261946710595325
30
0
40
5
210
0
220
0
230
-1
0
CIRCLE
5
104
100
AcDbEntity
8
INTERIOR_PROFILES
100
AcDbCircle
10
-1205.1912360324659
20
405.04778684233838
30
0
40
1.7000000000001592
210
0
220
0
230
-1
0
CIRCLE
5
105
100
AcDbEntity
8
INTERIOR_PROFILES
100
AcDbCircle
10
-1605.1912360324659
20
405.04778684233838
30
0
40
1.6999999999998749
210
0
220
0
230
-1
0
CIRCLE
5
106
100
AcDbEntity
8
INTERIOR_PROFILES
100
AcDbCircle
10
-1005.191236032466
20
405.04778684233838
30
0
40
1.7000000000001592
210
0
220
0
230
-1
0
CIRCLE
5
107
100
AcDbEntity
8
INTERIOR_PROFILES
100
AcDbCircle
10
-1705.1912360324659
20
405.04778684233838
30
0
40
1.6999999999998749
210
0
220
0
230
-1
0
CIRCLE
5
108
100
AcDbEntity
8
INTERIOR_PROFILES
100
AcDbCircle
10
-1280.1912360324661
20
405.04778684233872
30
0
40
1.6999999999998749
210
0
220
0
230
-1
0
CIRCLE
5
109
100
AcDbEntity
8
INTERIOR_PROFILES
100
AcDbCircle
10
-255.19123603246584
20
405.04778684233838
30
0
40
1.7000000000001592
210
0
220
0
230
-1
0
CIRCLE
5
110
100
AcDbEntity
8
INTERIOR_PROFILES
100
AcDbCircle
10
-30.191236032465838
20
405.04778684233827
30
0
40
1.7000000000001592
210
0
220
0
230
-1
0
CIRCLE
5
111
100
AcDbEntity
8
INTERIOR_PROFILES
100
AcDbCircle
10
-1405.1912360324654
20
405.04778684233838
30
0
40
1.7000000000001592
210
0
220
0
230
-1
0
CIRCLE
5
112
100
AcDbEntity
8
INTERIOR_PROFILES
100
AcDbCircle
10
-805.19123603246601
20
405.04778684233838
30
0
40
1.7000000000001592
210
0
220
0
230
-1
0
CIRCLE
5
113
100
AcDbEntity
8
INTERIOR_PROFILES
100
AcDbCircle
10
-20.191236032464701
20
352.52389342116913
30
0
40
6.4999999999999991
210
0
220
0
230
-1
0
CIRCLE
5
114
100
AcDbEntity
8
INTERIOR_PROFILES
100
AcDbCircle
10
-1880.1912360324659
20
405.04778684233872
30
0
40
1.6999999999998749
210
0
220
0
230
-1
0
CIRCLE
5
115
100
AcDbEntity
8
INTERIOR_PROFILES
100
AcDbCircle
10
-1105.1912360324659
20
405.04778684233838
30
0
40
1.7000000000001592
210
0
220
0
230
-1
0
CIRCLE
5
116
100
AcDbEntity
8
INTERIOR_PROFILES
100
AcDbCircle
10
-905.19123603246601
20
405.04778684233838
30
0
40
1.7000000000001592
210
0
220
0
230
-1
0
CIRCLE
5
117
100
AcDbEntity
8
INTERIOR_PROFILES
100
AcDbCircle
10
-15.191236032464701
20
367.52389342116913
30
0
40
1.6999999999999993
210
0
220
0
230
-1
0
CIRCLE
5
118
100
AcDbEntity
8
INTERIOR_PROFILES
100
AcDbCircle
10
-1330.1912360324654
20
405.04778684233827
30
0
40
1.7000000000001592
210
0
220
0
230
-1
0
CIRCLE
5
119
100
AcDbEntity
8
INTERIOR_PROFILES
100
AcDbCircle
10
-1005.191236032466
20
18.261946710602075
30
0
40
5
210
0
220
0
230
-1
0
CIRCLE
5
120
100
AcDbEntity
8
INTERIOR_PROFILES
100
AcDbCircle
10
-2255.1912360324659
20
18.261946710588077
30
0
40
5
210
0
220
0
230
-1
0
CIRCLE
5
121
100
AcDbEntity
8
INTERIOR_PROFILES
100
AcDbCircle
10
-1505.1912360324654
20
405.04778684233838
30
0
40
1.7000000000001592
210
0
220
0
230
-1
0
CIRCLE
5
122
100
AcDbEntity
8
INTERIOR_PROFILES
100
AcDbCircle
10
-555.19123603246589
20
405.04778684233838
30
0
40
1.7000000000001592
210
0
220
0
230
-1
0
CIRCLE
5
123
100
AcDbEntity
8
INTERIOR_PROFILES
100
AcDbCircle
10
-730.19123603246601
20
405.04778684233827
30
0
40
1.6999999999998749
210
0
220
0
230
-1
0
CIRCLE
5
124
100
AcDbEntity
8
INTERIOR_PROFILES
100
AcDbCircle
10
-1890.1912360324654
20
352.52389342116913
30
0
40
6.5000000000000568
210
0
220
0
230
-1
0
CIRCLE
5
125
100
AcDbEntity
8
INTERIOR_PROFILES
100
AcDbCircle
10
-355.19123603246584
20
405.04778684233838
30
0
40
1.7000000000001592
210
0
220
0
230
-1
0
CIRCLE
5
126
100
AcDbEntity
8
INTERIOR_PROFILES
100
AcDbCircle
10
-155.19123603246584
20
405.04778684233838
30
0
40
1.7000000000001592
210
0
220
0
230
-1
0
CIRCLE
5
127
100
AcDbEntity
8
INTERIOR_PROFILES
100
AcDbCircle
10
-455.19123603246584
20
405.04778684233838
30
0
40
1.7000000000001592
210
0
220
0
230
-1
0
CIRCLE
5
128
100
AcDbEntity
8
INTERIOR_PROFILES
100
AcDbCircle
10
-1805.1912360324659
20
405.04778684233838
30
0
40
1.6999999999998749
210
0
220
0
230
-1
0
CIRCLE
5
129
100
AcDbEntity
8
INTERIOR_PROFILES
100
AcDbCircle
10
-1875.1912360324654
20
2.5000000000000355
30
0
40
1.25
210
0
220
0
230
-1
0
CIRCLE
5
130
100
AcDbEntity
8
INTERIOR_PROFILES
100
AcDbCircle
10
-735.19123603246032
20
2.5000000000005329
30
0
40
1.25
210
0
220
0
230
-1
0
CIRCLE
5
131
100
AcDbEntity
8
INTERIOR_PROFILES
100
AcDbCircle
10
-1335.19123603246
20
2.5000000000005329
30
0
40
1.25
210
0
220
0
230
-1
0
CIRCLE
5
132
100
AcDbEntity
8
INTERIOR_PROFILES
100
AcDbCircle
10
-1895.1912360324654
20
337.52389342116913
30
0
40
1.6999999999998749
210
0
220
0
230
-1
0
CIRCLE
5
133
100
AcDbEntity
8
INTERIOR_PROFILES
100
AcDbCircle
10
-35.191236032460154
20
2.5000000000005329
30
0
40
1.25
210
0
220
0
230
-1
0
CIRCLE
5
134
100
AcDbEntity
8
INTERIOR_PROFILES
100
AcDbCircle
10
-1895.1912360324654
20
307.52389342116919
30
0
40
1.6999999999998749
210
0
220
0
230
-1
0
CIRCLE
5
135
100
AcDbEntity
8
INTERIOR_PROFILES
100
AcDbCircle
10
-2580.1912360324659
20
405.04778684233872
30
0
40
1.7000000000001592
210
0
220
0
230
-1
0
CIRCLE
5
136
100
AcDbEntity
8
INTERIOR_PROFILES
100
AcDbCircle
10
-1935.1912360324602
20
2.5000000000005329
30
0
40
1.25
210
0
220
0
230
-1
0
CIRCLE
5
137
100
AcDbEntity
8
INTERIOR_PROFILES
100
AcDbCircle
10
-2355.1912360324659
20
405.04778684233838
30
0
40
1.6999999999998749
210
0
220
0
230
-1
0
CIRCLE
5
138
100
AcDbEntity
8
INTERIOR_PROFILES
100
AcDbCircle
10
-1275.1912360324657
20
2.5000000000000355
30
0
40
1.25
210
0
220
0
230
-1
0
CIRCLE
5
139
100
AcDbEntity
8
INTERIOR_PROFILES
100
AcDbCircle
10
-15.191236032464701
20
307.52389342116919
30
0
40
1.6999999999999993
210
0
220
0
230
-1
0
CIRCLE
5
140
100
AcDbEntity
8
INTERIOR_PROFILES
100
AcDbCircle
10
-2555.1912360324659
20
405.04778684233838
30
0
40
1.6999999999998749
210
0
220
0
230
-1
0
CIRCLE
5
141
100
AcDbEntity
8
INTERIOR_PROFILES
100
AcDbCircle
10
-2575.1912360324659
20
2.5000000000000355
30
0
40
1.25
210
0
220
0
230
-1
0
CIRCLE
5
142
100
AcDbEntity
8
INTERIOR_PROFILES
100
AcDbCircle
10
-675.19123603246567
20
2.5000000000000355
30
0
40
1.25
210
0
220
0
230
-1
0
CIRCLE
5
143
100
AcDbEntity
8
INTERIOR_PROFILES
100
AcDbCircle
10
-2455.1912360324659
20
405.04778684233838
30
0
40
1.6999999999998749
210
0
220
0
230
-1
0
CIRCLE
5
144
100
AcDbEntity
8
INTERIOR_PROFILES
100
AcDbCircle
10
-15.191236032464701
20
337.52389342116913
30
0
40
1.6999999999999993
210
0
220
0
230
-1
0
CIRCLE
5
145
100
AcDbEntity
8
INTERIOR_PROFILES
100
AcDbCircle
10
-2255.1912360324659
20
405.04778684233838
30
0
40
1.6999999999998749
210
0
220
0
230
-1
0
CIRCLE
5
146
100
AcDbEntity
8
INTERIOR_PROFILES
100
AcDbCircle
10
-1895.1912360324654
20
367.52389342116913
30
0
40
1.6999999999998749
210
0
220
0
230
-1
0
LINE
5
147
100
AcDbEntity
8
BEND
100
AcDbLine
10
6.0602626771739665
20
6.1309733552924328
30
-3.7717262359124033e-13
11
6.0602626771742507
21
3.5527136788005009e-14
31
8.344821238203729e-13
0
LINE
5
148
100
AcDbEntity
8
BEND
100
AcDbLine
10
6.0602626771739665
20
30.392920065876936
30
-6.4482935724568758e-12
11
6.0602626771739665
21
6.1309733552924328
31
-3.7717262359124033e-13
0
LINE
5
149
100
AcDbEntity
8
BEND
100
AcDbLine
10
6.0602626771739665
20
383.52389342116953
30
-9.6986585151832057e-11
11
6.0602626771739665
21
30.392920065876936
31
-6.4482935724568758e-12
0
LINE
5
150
100
AcDbEntity
8
BEND
100
AcDbLine
10
2604.3222093877575
20
3.5527136788005009e-14
30
4.1811949844415602e-12
11
2604.3222093877575
21
6.1309733552924328
31
2.3961129848026562e-12
0
LINE
5
151
100
AcDbEntity
8
BEND
100
AcDbLine
10
2604.3222093877575
20
6.1309733552924328
30
2.3961129848026562e-12
11
2604.322209387758
21
30.392920065876936
31
-3.6669585170961195e-12
0
LINE
5
152
100
AcDbEntity
8
BEND
100
AcDbLine
10
2604.322209387758
20
30.392920065876936
30
-3.6669585170961195e-12
11
2604.322209387758
21
383.52389342116919
31
-9.398174115470132e-11
0
LINE
5
153
100
AcDbEntity
8
BEND
100
AcDbLine
10
2603.1912360324659
20
393.91681348705339
30
-9.6705742821003311e-11
11
2238.1912360324659
21
393.91681348705339
31
-8.5730972488413914e-11
0
LINE
5
154
100
AcDbEntity
8
BEND
100
AcDbLine
10
2604.6657122720126
20
6.1309733552924328
30
2.6322201600669338e-12
11
5.7167597929196745
21
6.1309733552924328
31
-2.172172618864624e-12
0
LINE
5
155
100
AcDbEntity
8
BEND
100
AcDbLine
10
1903.1912360324659
20
393.91681348705339
30
-8.6118394064715405e-11
11
7.1912360324657243
21
393.91681348705339
31
-9.9713250016396386e-11
0
LINE
5
156
100
AcDbEntity
8
BEND
100
AcDbLine
10
2237.0602626771743
20
383.52389342116919
30
-9.4615472586281554e-11
11
2237.0602626771743
21
285.52389342116732
31
-6.9464822559490235e-11
0
LINE
5
157
100
AcDbEntity
8
BEND
100
AcDbLine
10
2603.1912360324659
20
384.6548667764697
30
-9.4457509993460245e-11
11
2238.1912360324659
21
384.6548667764697
31
-8.4684886442801274e-11
0
LINE
5
158
100
AcDbEntity
8
BEND
100
AcDbLine
10
1903.1912360324659
20
384.65486677646965
30
-8.5072308019102739e-11
11
7.1912360324662927
21
384.65486677646965
31
-9.7482999962350263e-11
0
LINE
5
159
100
AcDbEntity
8
BEND
100
AcDbLine
10
2604.6657122720126
20
30.392920065876936
30
-3.4478031659383343e-12
11
5.7167597929196745
21
30.392920065876936
31
-6.1464684645614965e-12
0
LINE
5
160
100
AcDbEntity
8
BEND
100
AcDbLine
10
1904.322209387758
20
285.52389342116737
30
-7.0034432217453403e-11
11
1904.322209387758
21
383.52389342116919
31
-9.5220705682162469e-11
0
LINE
5
161
100
AcDbEntity
8
BEND
100
AcDbLine
10
2235.1912360324659
20
283.65486677645941
30
-6.8985753998147882e-11
11
1906.1912360324659
21
283.65486677645941
31
-6.9379710812809588e-11
0
LINE
5
162
100
AcDbEntity
8
BEND_EXTENT
100
AcDbLine
10
1905.4531827430503
20
383.52389342116908
30
-9.5301506084733099e-11
11
1905.4531827430503
21
285.52389342116737
31
-7.0168619626335821e-11
0
LINE
5
163
100
AcDbEntity
8
BEND_EXTENT
100
AcDbLine
10
1903.1912360324657
20
285.52389342116732
30
-6.9940309138587284e-11
11
1903.1912360324659
21
383.52389342116908
31
-6.7042284671248623e-11
0
LINE
5
164
100
AcDbEntity
8
BEND_EXTENT
100
AcDbLine
10
1903.1912360324659
20
383.52389342116908
30
-6.7042284671248623e-11
11
7.1912360324662927
21
383.52389342116936
31
-9.7212595365437278e-11
0
LINE
5
165
100
AcDbEntity
8
BEND_EXTENT
100
AcDbLine
10
7.1912360324662927
20
383.52389342116936
30
-9.7212595365437278e-11
11
7.1912360324662927
21
31.523893421169333
31
-6.9349296431787419e-12
0
LINE
5
166
100
AcDbEntity
8
BEND_EXTENT
100
AcDbLine
10
7.1912360324662927
20
31.523893421169333
30
-6.9349296431787419e-12
11
2603.1912360324659
21
31.523893421169298
31
-3.9282606553230741e-12
0
LINE
5
167
100
AcDbEntity
8
BEND_EXTENT
100
AcDbLine
10
2603.1912360324659
20
31.523893421169298
30
-3.9282606553230741e-12
11
2603.1912360324659
21
383.52389342116919
31
-9.4210367269680101e-11
0
LINE
5
168
100
AcDbEntity
8
BEND_EXTENT
100
AcDbLine
10
2603.1912360324659
20
383.52389342116919
30
-9.4210367269680101e-11
11
2238.1912360324659
21
383.52389342116908
31
-6.6654863094947132e-11
0
LINE
5
169
100
AcDbEntity
8
BEND_EXTENT
100
AcDbLine
10
2238.1912360324659
20
383.52389342116908
30
-6.6654863094947132e-11
11
2238.1912360324659
21
285.52389342116737
31
-6.9481833288709809e-11
0
LINE
5
170
100
AcDbEntity
8
BEND_EXTENT
100
AcDbLine
10
2235.9292893218817
20
285.52389342116732
30
-6.9502212758477307e-11
11
2235.9292893218817
21
383.52389342116919
31
-9.4564044943298614e-11
0
LINE
5
171
100
AcDbEntity
8
BEND_EXTENT
100
AcDbLine
10
1906.1912360324659
20
284.78584013175157
30
-6.9623215023865766e-11
11
2235.1912360324659
21
284.78584013175157
31
-6.9207205204680177e-11
0
LINE
5
172
100
AcDbEntity
8
BEND_EXTENT
100
AcDbLine
10
2235.1912360324659
20
282.52389342116726
30
-6.8711487768306188e-11
11
1906.1912360324659
21
282.52389342116726
31
-6.9091970450703759e-11
0
LINE
5
173
100
AcDbEntity
8
BEND_EXTENT
100
AcDbLine
10
7.1912360324662927
20
385.7858401317701
30
-9.7863744025263015e-11
11
1903.1912360324659
21
385.7858401317701
31
-9.5671053551628344e-11
0
LINE
5
174
100
AcDbEntity
8
BEND_EXTENT
100
AcDbLine
10
1903.1912360324659
20
392.7858401317701
30
-9.7324151180076113e-11
11
7.1912360324657243
21
392.7858401317701
31
-9.9516841653710771e-11
0
LINE
5
175
100
AcDbEntity
8
BEND_EXTENT
100
AcDbLine
10
7.1912360324657243
20
395.04778684233656
30
-9.9974811507242929e-11
11
1903.1912360324659
21
395.04778684233656
31
-9.7782121033608258e-11
0
LINE
5
176
100
AcDbEntity
8
BEND_EXTENT
100
AcDbLine
10
2238.1912360324659
20
395.04778684233656
30
-9.739469945730678e-11
11
2603.1912360324659
21
395.04778684233656
31
-9.6972583411485765e-11
0
LINE
5
177
100
AcDbEntity
8
BEND_EXTENT
100
AcDbLine
10
2603.1912360324659
20
392.7858401317701
30
-9.651461355795362e-11
11
2238.1912360324659
21
392.7858401317701
31
-9.6936729603774634e-11
0
LINE
5
178
100
AcDbEntity
8
BEND_EXTENT
100
AcDbLine
10
2238.1912360324659
20
385.7858401317701
30
-9.5283631975326891e-11
11
2603.1912360324659
21
385.7858401317701
31
-9.4861515929505851e-11
0
LINE
5
179
100
AcDbEntity
8
BEND_EXTENT
100
AcDbLine
10
2605.4531827430501
20
383.52389342116919
30
-9.3967222985187334e-11
11
2605.4531827430501
21
31.594604099288119
31
-3.712132475890111e-12
0
LINE
5
180
100
AcDbEntity
8
BEND_EXTENT
100
AcDbLine
10
2605.4531827430501
20
4.9292893218813916
30
2.9383081738623407e-12
11
2605.4531827430501
21
3.5527136788005009e-14
31
4.1973429601817743e-12
0
LINE
5
181
100
AcDbEntity
8
BEND_EXTENT
100
AcDbLine
10
2603.1912360324659
20
3.5527136788005009e-14
30
3.9530265262844966e-12
11
2603.1912360324659
21
5.0000000000000355
31
2.6752568161534474e-12
0
LINE
5
182
100
AcDbEntity
8
BEND_EXTENT
100
AcDbLine
10
2603.1912360324659
20
5.0000000000000355
30
2.6752568161534474e-12
11
7.1912360324665769
21
5.0000000000000355
31
-3.2697127960370369e-13
0
LINE
5
183
100
AcDbEntity
8
BEND_EXTENT
100
AcDbLine
10
7.1912360324665769
20
5.0000000000000355
30
-3.2697127960370369e-13
11
7.1912360324662927
21
3.5527136788005009e-14
31
9.5079843052732127e-13
0
LINE
5
184
100
AcDbEntity
8
BEND_EXTENT
100
AcDbLine
10
4.9292893218822087
20
7.3326573887032964
30
-1.6951563077483883e-13
11
4.9292893218822087
21
29.191236032465966
31
-5.7753235409342767e-12
0
LWPOLYLINE
5
185
100
AcDbEntity
8
BEND_EXTENT
100
AcDbPolyline
90
4
70
1
43
0.0
10
7.1912360324662927
20
29.261946710584645
10
7.1912360324662927
20
7.261946710584688
10
2603.1912360324659
20
7.261946710584688
10
2603.1912360324659
20
29.261946710584645
0
LINE
5
186
100
AcDbEntity
8
BEND_EXTENT
100
AcDbLine
10
4.929289321881356
20
3.5527136788005009e-14
30
-1.1311677412784668e-12
11
4.9292893218805034
21
4.9292893218813205
31
-1.8268893572360025e-12
0
LINE
5
187
100
AcDbEntity
8
BEND_EXTENT
100
AcDbLine
10
4.9292893218816403
20
31.594604099288048
30
-6.960120757513538e-12
11
4.9292893218816403
21
383.52389342116953
31
-9.7215211266810838e-11
0
LINE
5
188
100
AcDbEntity
8
BEND_EXTENT
100
AcDbLine
10
2605.4531827430501
20
29.191236032466037
30
-3.1211072505335596e-12
11
2605.4531827430501
21
7.3326573887032964
31
2.3325166946904734e-12
0
ENDSEC
0
SECTION
2
OBJECTS
0
DICTIONARY
5
C
100
AcDbDictionary
3
ACAD_GROUP
350
D
3
ACAD_MLINESTYLE
350
17
0
DICTIONARY
5
D
100
AcDbDictionary
0
DICTIONARY
5
1A
330
C
100
AcDbDictionary
0
DICTIONARY
5
17
100
AcDbDictionary
0
ENDSEC
0
EOF
