0
SECTION
2
HEADER
9
$INSUNITS
70
4
9
$ACADVER
1
AC1014
9
$HANDSEED
5
FFFF
0
ENDSEC
0
SECTION
2
TABLES
0
TABLE
2
VPORT
5
8
100
AcDbSymbolTable
0
ENDTAB
0
TABLE
2
LTYPE
5
5
100
AcDbSymbolTable
0
LTYPE
5
14
100
AcDbSymbolTableRecord
100
AcDbLinetypeTableRecord
2
BYBLOCK
70
0
0
LTYPE
5
15
100
AcDbSymbolTableRecord
100
AcDbLinetypeTableRecord
2
BYLAYER
70
0
0
LTYPE
5
16
100
AcDbSymbolTableRecord
100
AcDbLinetypeTableRecord
2
DASHED
70
0
3
Dashed __ __ __ __ __ __ __ __ __ __ __ __ __ _
72
65
73
2
40
0.75
49
0.5
74
0
49
-0.25
74
0
0
ENDTAB
0
TABLE
2
LAYER
5
2
100
AcDbSymbolTable
70
2
0
LAYER
5
50
100
AcDbSymbolTableRecord
100
AcDbLayerTableRecord
2
0
70
0
62
7
6
CONTINUOUS
0
ENDTAB
0
TABLE
2
STYLE
5
3
100
AcDbSymbolTable
70
1
0
STYLE
5
11
100
AcDbSymbolTableRecord
100
AcDbTextStyleTableRecord
2
STANDARD
70
0
0
ENDTAB
0
TABLE
2
VIEW
5
6
100
AcDbSymbolTable
70
0
0
ENDTAB
0
TABLE
2
UCS
5
7
100
AcDbSymbolTable
70
0
0
ENDTAB
0
TABLE
2
APPID
5
9
100
AcDbSymbolTable
70
2
0
APPID
5
12
100
AcDbSymbolTableRecord
100
AcDbRegAppTableRecord
2
ACAD
70
0
0
ENDTAB
0
TABLE
2
DIMSTYLE
5
A
100
AcDbSymbolTable
70
1
0
ENDTAB
0
TABLE
2
BLOCK_RECORD
5
1
100
AcDbSymbolTable
70
1
0
BLOCK_RECORD
5
1F
100
AcDbSymbolTableRecord
100
AcDbBlockTableRecord
2
*MODEL_SPACE
0
BLOCK_RECORD
5
1B
100
AcDbSymbolTableRecord
100
AcDbBlockTableRecord
2
*PAPER_SPACE
0
ENDTAB
0
ENDSEC
0
SECTION
2
BLOCKS
0
BLOCK
5
20
100
AcDbEntity
100
AcDbBlockBegin
2
*MODEL_SPACE
0
ENDBLK
5
21
100
AcDbEntity
100
AcDbBlockEnd
0
BLOCK
5
1C
100
AcDbEntity
100
AcDbBlockBegin
2
*PAPER_SPACE
0
ENDBLK
5
1D
100
AcDbEntity
100
AcDbBlockEnd
0
ENDSEC
0
SECTION
2
ENTITIES
0
LWPOLYLINE
5
100
100
AcDbEntity
8
OUTER_PROFILES
100
AcDbPolyline
90
32
70
1
43
0.0
10
-1.8380801364776922
20
227.29126287952951
42
0.41421356237309731
10
-0.42386657410458894
20
227.29126287952951
10
4.0707106781197409
20
231.78584013175393
10
668.92928932188272
20
231.78584013175353
10
673.4238665741068
20
227.2912628795294
42
0.41421356237310236
10
674.83808013648002
20
227.29126287952943
10
679.33265738870432
20
231.7858401317537
10
679.33265738870421
20
241.7858401317537
10
689.1912360324668
20
241.78584013175384
10
689.19123603246692
20
227.78584013175379
10
687.1912360324668
20
225.52389342116891
10
674.76736945836126
20
213.10002684706322
42
0.4142135623731098
10
674.76736945836126
20
211.68581328469
10
687.26194671058579
20
199.19123603246544
10
689.52389342117044
20
197.19123603246547
10
703.52389342117044
20
197.1912360324655
10
703.52389342117044
20
16.261946710584709
10
673.00000000000091
20
16.261946710584674
10
673.00000000000091
20
0
10
0
20
0
10
2.1836703155808187e-14
20
16.261946710584638
10
-30.52389342116944
20
16.261946710584816
10
-30.523893421168331
20
197.19123603246604
10
-16.523893421168278
20
197.19123603246598
10
-14.261946710583601
20
199.19123603246595
10
-1.7673694583591604
20
211.68581328469045
42
0.41421356237309215
10
-1.767369458359132
20
213.1000268470635
10
-14.191236032464802
20
225.5238934211693
10
-16.191236032464836
20
227.78584013175393
10
-16.19123603246479
20
241.78584013175407
10
-6.3326573887020787
20
241.78584013175407
10
-6.3326573887021009
20
231.78584013175407
0
CIRCLE
5
101
100
AcDbEntity
8
INTERIOR_PROFILES
100
AcDbCircle
10
-696.52389342116919
20
173.26194671058454
30
0
40
1.7000000000000171
210
0
220
0
230
-1
0
CIRCLE
5
102
100
AcDbEntity
8
INTERIOR_PROFILES
100
AcDbCircle
10
-696.5238934211693
20
77.761946710584539
30
0
40
1.6999999999999993
210
0
220
0
230
-1
0
CIRCLE
5
103
100
AcDbEntity
8
INTERIOR_PROFILES
100
AcDbCircle
10
-696.52389342116919
20
45.761946710584525
30
0
40
1.6999999999999993
210
0
220
0
230
-1
0
CIRCLE
5
104
100
AcDbEntity
8
INTERIOR_PROFILES
100
AcDbCircle
10
36.500000000000789
20
22.261946710584546
30
0
40
1.6999999999999815
210
0
220
0
230
1
0
CIRCLE
5
105
100
AcDbEntity
8
INTERIOR_PROFILES
100
AcDbCircle
10
-696.52389342116919
20
109.26194671058454
30
0
40
1.6999999999999993
210
0
220
0
230
-1
0
CIRCLE
5
106
100
AcDbEntity
8
INTERIOR_PROFILES
100
AcDbCircle
10
336.49999999999835
20
22.261946710584652
30
0
40
1.7000000000000171
210
0
220
0
230
1
0
CIRCLE
5
107
100
AcDbEntity
8
INTERIOR_PROFILES
100
AcDbCircle
10
23.523893421174268
20
173.26194671058514
30
0
40
1.7000000000000171
210
0
220
0
230
-1
0
CIRCLE
5
108
100
AcDbEntity
8
INTERIOR_PROFILES
100
AcDbCircle
10
636.49999999999648
20
22.261946710580958
30
0
40
1.699999999999946
210
0
220
0
230
1
0
CIRCLE
5
109
100
AcDbEntity
8
INTERIOR_PROFILES
100
AcDbCircle
10
-681.26194671058556
20
234.78584013175288
30
0
40
1.7000000000000171
210
0
220
0
230
-1
0
CIRCLE
5
110
100
AcDbEntity
8
INTERIOR_PROFILES
100
AcDbCircle
10
23.523893421174918
20
109.26194671058514
30
0
40
1.6999999999999993
210
0
220
0
230
-1
0
CIRCLE
5
111
100
AcDbEntity
8
INTERIOR_PROFILES
100
AcDbCircle
10
23.523893421175313
20
77.761946710585136
30
0
40
1.6999999999999993
210
0
220
0
230
-1
0
CIRCLE
5
112
100
AcDbEntity
8
INTERIOR_PROFILES
100
AcDbCircle
10
23.523893421175636
20
45.761946710585129
30
0
40
1.6999999999999993
210
0
220
0
230
-1
0
CIRCLE
5
113
100
AcDbEntity
8
INTERIOR_PROFILES
100
AcDbCircle
10
8.2619467105833611
20
234.78584013175922
30
0
40
1.7000000000000004
210
0
220
0
230
-1
0
LWPOLYLINE
5
114
100
AcDbEntity
8
BEND_EXTENT
100
AcDbPolyline
90
4
70
1
43
0.0
10
673.00000000000114
20
225.52389342116891
10
1.2789769243681803e-12
20
225.5238934211693
10
1.1486301448069187e-12
20
213.5238934211693
10
673.00000000000114
20
213.52389342116891
0
LWPOLYLINE
5
115
100
AcDbEntity
8
BEND_EXTENT
100
AcDbPolyline
90
4
70
1
43
0.0
10
673.00000000000091
20
16.261946710584674
10
673.00000000000114
20
211.26194671058428
10
1.1368683772161603e-12
20
211.26194671058465
10
2.1836703155808187e-14
20
16.261946710584638
0
ENDSEC
0
SECTION
2
OBJECTS
0
DICTIONARY
5
C
100
AcDbDictionary
3
ACAD_GROUP
350
D
3
ACAD_MLINESTYLE
350
17
0
DICTIONARY
5
D
100
AcDbDictionary
0
DICTIONARY
5
1A
330
C
100
AcDbDictionary
0
DICTIONARY
5
17
100
AcDbDictionary
0
ENDSEC
0
EOF
