0
SECTION
2
HEADER
9
$INSUNITS
70
4
9
$ACADVER
1
AC1014
9
$HANDSEED
5
FFFF
0
ENDSEC
0
SECTION
2
TABLES
0
TABLE
2
VPORT
5
8
100
AcDbSymbolTable
0
ENDTAB
0
TABLE
2
LTYPE
5
5
100
AcDbSymbolTable
0
LTYPE
5
14
100
AcDbSymbolTableRecord
100
AcDbLinetypeTableRecord
2
BYBLOCK
70
0
0
LTYPE
5
15
100
AcDbSymbolTableRecord
100
AcDbLinetypeTableRecord
2
BYLAYER
70
0
0
LTYPE
5
16
100
AcDbSymbolTableRecord
100
AcDbLinetypeTableRecord
2
DASHED
70
0
3
Dashed __ __ __ __ __ __ __ __ __ __ __ __ __ _
72
65
73
2
40
0.75
49
0.5
74
0
49
-0.25
74
0
0
ENDTAB
0
TABLE
2
LAYER
5
2
100
AcDbSymbolTable
70
2
0
LAYER
5
50
100
AcDbSymbolTableRecord
100
AcDbLayerTableRecord
2
0
70
0
62
7
6
CONTINUOUS
0
ENDTAB
0
TABLE
2
STYLE
5
3
100
AcDbSymbolTable
70
1
0
STYLE
5
11
100
AcDbSymbolTableRecord
100
AcDbTextStyleTableRecord
2
STANDARD
70
0
0
ENDTAB
0
TABLE
2
VIEW
5
6
100
AcDbSymbolTable
70
0
0
ENDTAB
0
TABLE
2
UCS
5
7
100
AcDbSymbolTable
70
0
0
ENDTAB
0
TABLE
2
APPID
5
9
100
AcDbSymbolTable
70
2
0
APPID
5
12
100
AcDbSymbolTableRecord
100
AcDbRegAppTableRecord
2
ACAD
70
0
0
ENDTAB
0
TABLE
2
DIMSTYLE
5
A
100
AcDbSymbolTable
70
1
0
ENDTAB
0
TABLE
2
BLOCK_RECORD
5
1
100
AcDbSymbolTable
70
1
0
BLOCK_RECORD
5
1F
100
AcDbSymbolTableRecord
100
AcDbBlockTableRecord
2
*MODEL_SPACE
0
BLOCK_RECORD
5
1B
100
AcDbSymbolTableRecord
100
AcDbBlockTableRecord
2
*PAPER_SPACE
0
ENDTAB
0
ENDSEC
0
SECTION
2
BLOCKS
0
BLOCK
5
20
100
AcDbEntity
100
AcDbBlockBegin
2
*MODEL_SPACE
0
ENDBLK
5
21
100
AcDbEntity
100
AcDbBlockEnd
0
BLOCK
5
1C
100
AcDbEntity
100
AcDbBlockBegin
2
*PAPER_SPACE
0
ENDBLK
5
1D
100
AcDbEntity
100
AcDbBlockEnd
0
ENDSEC
0
SECTION
2
ENTITIES
0
ELLIPSE
5
100
100
AcDbEntity
8
OUTER_PROFILES
100
AcDbEllipse
10
494.00000000001785
20
32.261946710585569
30
0
11
4.6949606016371039e-12
21
16
31
0.0
40
0.75000000000000011
41
1.5707963267951168
42
2.9751352726985631
0
LINE
5
101
100
AcDbEntity
8
OUTER_PROFILES
100
AcDbLine
10
482.00000000001779
20
32.261946710585562
30
0
11
482.0000000000644
21
90.785840132161496
31
0
0
ELLIPSE
5
102
100
AcDbEntity
8
OUTER_PROFILES
100
AcDbEllipse
10
494.00000000006435
20
90.785840132171558
30
0
11
1.8126565818008654e-11
21
-16
31
0.0
40
0.75000000000000011
41
3.308050034456727
42
4.7123889803844694
0
ARC
5
103
100
AcDbEntity
8
OUTER_PROFILES
100
AcDbCircle
10
-491.45550000041573
20
109.04764816951734
30
0
40
2.5444999999999851
210
0
220
-0
230
-1
100
AcDbArc
50
180
51
257.37328904083279
0
LINE
5
104
100
AcDbEntity
8
OUTER_PROFILES
100
AcDbLine
10
494.00000000041575
20
109.04764816951439
30
0
11
494.00000000030923
21
121.0477868427558
31
0
0
ARC
5
105
100
AcDbEntity
8
OUTER_PROFILES
100
AcDbCircle
10
-492.00000000030934
20
121.04778684275411
30
0
40
1.9999999999999929
210
0
220
0
230
-1
100
AcDbArc
50
89.999999999951143
51
180
0
LINE
5
106
100
AcDbEntity
8
OUTER_PROFILES
100
AcDbLine
10
492.00000000030764
20
123.04778684275411
30
0
11
3.0752289603697136e-10
21
123.0477868423411
31
0
0
ARC
5
107
100
AcDbEntity
8
OUTER_PROFILES
100
AcDbCircle
10
-3.0929925287637161e-10
20
121.04778684234108
30
0
40
2
210
-0
220
0
230
-1
100
AcDbArc
50
0
51
89.999999999949111
0
LINE
5
108
100
AcDbEntity
8
OUTER_PROFILES
100
AcDbLine
10
-1.9999999996907007
20
121.04778684233941
30
0
11
-1.9999999995842341
21
109.04764816892995
31
0
0
ARC
5
109
100
AcDbEntity
8
OUTER_PROFILES
100
AcDbCircle
10
-0.54450000041576629
20
109.04764816893709
30
0
40
2.5444999999999967
210
-0
220
0
230
-1
100
AcDbArc
50
282.62671096279655
51
360
0
ELLIPSE
5
110
100
AcDbEntity
8
OUTER_PROFILES
100
AcDbEllipse
10
-1.9999999999529194
20
90.78584013175518
30
0
11
-8.7366516103256145e-12
21
16
31
0.0
40
0.75000000000000011
41
4.7123889803846897
42
6.116727926262862
0
LINE
5
111
100
AcDbEntity
8
OUTER_PROFILES
100
AcDbLine
10
10.000000000047082
20
90.785840131761745
30
0
11
10.000000000000639
21
32.261946710589093
31
0
0
ELLIPSE
5
112
100
AcDbEntity
8
OUTER_PROFILES
100
AcDbEllipse
10
-1.9999999999993179
20
32.261946710585569
30
0
11
4.6949536060459345e-12
21
-16
31
0.0
40
0.75000000000000011
41
0.1664573808912797
42
1.5707963267948966
0
ARC
5
113
100
AcDbEntity
8
OUTER_PROFILES
100
AcDbCircle
10
-0.5445000000010225
20
14.000138673319888
30
0
40
2.5445000000000002
210
0
220
0
230
-1
100
AcDbArc
50
0
51
77.37328903906041
0
LINE
5
114
100
AcDbEntity
8
OUTER_PROFILES
100
AcDbLine
10
-1.9999999999989777
20
14.000138673324461
30
0
11
-2
21
1.9999999999999862
31
0
0
ARC
5
115
100
AcDbEntity
8
OUTER_PROFILES
100
AcDbCircle
10
0
20
1.9999999999999929
30
0
40
2
210
0
220
-0
230
-1
100
AcDbArc
50
269.99999999999983
51
360
0
LINE
5
116
100
AcDbEntity
8
OUTER_PROFILES
100
AcDbLine
10
7.9103390504542404e-15
20
-7.2164496600635175e-15
30
0
11
492.00000000001728
21
0
31
0
0
ARC
5
117
100
AcDbEntity
8
OUTER_PROFILES
100
AcDbCircle
10
-492.00000000001728
20
1.9999999999999929
30
0
40
2.0000000000000284
210
0
220
-0
230
-1
100
AcDbArc
50
180
51
270
0
LINE
5
118
100
AcDbEntity
8
OUTER_PROFILES
100
AcDbLine
10
494.00000000001734
20
1.9999999999999769
30
0
11
494.00000000001825
21
14.000138673324338
31
0
0
ARC
5
119
100
AcDbEntity
8
OUTER_PROFILES
100
AcDbCircle
10
-491.45550000001822
20
14.000138673319729
30
0
40
2.5444999999999878
210
0
220
0
230
-1
100
AcDbArc
50
102.62671096093685
51
180
0
ARC
5
120
100
AcDbEntity
8
INTERIOR_PROFILES
100
AcDbCircle
10
-295.99999999974023
20
13.00000000310666
30
0
40
1.7000000000000028
210
0
220
0
230
-1
100
AcDbArc
50
-216.03187894299563
51
36.031878942996734
0
SPLINE
5
121
100
AcDbEntity
8
INTERIOR_PROFILES
100
AcDbSpline
70
0
71
3
72
11
73
7
74
0
42
0.000000001
43
0.0000000001
44
0.0000000001
40
0.31591804558299375
40
0.31591804558299375
40
0.31591804558299375
40
0.31591804558299375
40
0.50001066388686932
40
0.50001066388686932
40
0.50001066388686932
40
0.62030149220918751
40
0.62030149220918751
40
0.62030149220918751
40
0.62030149220918751
10
297.3747727104867
20
13.999999999999986
30
0
10
296.99085089885023
20
14.380019766563432
30
0
10
296.313941276462
20
14.587617102505632
30
0
10
295.66946515582129
20
14.49004521881136
30
0
10
295.24834796437671
20
14.42628925282702
30
0
10
294.87609162651182
20
14.248314641401469
30
0
10
294.6252272889937
20
13.999999999999986
30
0
0
ARC
5
122
100
AcDbEntity
8
INTERIOR_PROFILES
100
AcDbCircle
10
-5.0000000001151079
20
13.000000002859684
30
0
40
1.7000000000000004
210
0
220
0
230
-1
100
AcDbArc
50
-216.03187895329015
51
36.031878953288654
0
SPLINE
5
123
100
AcDbEntity
8
INTERIOR_PROFILES
100
AcDbSpline
70
0
71
3
72
11
73
7
74
0
42
0.000000001
43
0.0000000001
44
0.0000000001
40
0.31591804558384601
40
0.31591804558384601
40
0.31591804558384601
40
0.31591804558384601
40
0.50001066389640303
40
0.50001066389640303
40
0.50001066389640303
40
0.62030149215024211
40
0.62030149215024211
40
0.62030149215024211
40
0.62030149215024211
10
6.3747727106819241
20
13.999999999999977
30
0
10
5.9908508989222042
20
14.380019766541858
30
0
10
5.3139412764541305
20
14.587617102377965
30
0
10
4.669465155789041
20
14.490045218561107
30
0
10
4.248347964587964
20
14.426289252535947
30
0
10
3.8760916269919221
20
14.248314641234119
30
0
10
3.6252272895481497
20
14.00000000000003
30
0
0
SPLINE
5
124
100
AcDbEntity
8
INTERIOR_PROFILES
100
AcDbSpline
70
0
71
3
72
11
73
7
74
0
42
0.000000001
43
0.0000000001
44
0.0000000001
40
0.31591804558284764
40
0.31591804558284764
40
0.31591804558284764
40
0.31591804558284764
40
0.50001066388501414
40
0.50001066388501414
40
0.50001066388501414
40
0.62030149221931674
40
0.62030149221931674
40
0.62030149221931674
40
0.62030149221931674
10
347.37477271078831
20
13.999999999999995
30
0
10
346.99085089917332
20
14.380019766566816
30
0
10
346.31394127680005
20
14.587617102527126
30
0
10
345.66946515616422
20
14.490045218854712
30
0
10
345.2483479646769
20
14.426289252877691
30
0
10
344.87609162676478
20
14.248314641430566
30
0
10
344.62522728923352
20
13.999999999999995
30
0
0
ARC
5
125
100
AcDbEntity
8
INTERIOR_PROFILES
100
AcDbCircle
10
-346.00000000001091
20
13.000000003149088
30
0
40
1.7000000000000328
210
0
220
0
230
-1
100
AcDbArc
50
-216.03187894122698
51
36.031878941226985
0
ARC
5
126
100
AcDbEntity
8
INTERIOR_PROFILES
100
AcDbCircle
10
-95.99999999974024
20
13.000000002936885
30
0
40
1.6999999999999948
210
0
220
0
230
-1
100
AcDbArc
50
-216.03187895007306
51
36.031878950069739
0
SPLINE
5
127
100
AcDbEntity
8
INTERIOR_PROFILES
100
AcDbSpline
70
0
71
3
72
11
73
7
74
0
42
0.000000001
43
0.0000000001
44
0.0000000001
40
0.31591804558357761
40
0.31591804558357761
40
0.31591804558357761
40
0.31591804558357761
40
0.50001066389316251
40
0.50001066389316251
40
0.50001066389316251
40
0.62030149216866859
40
0.62030149216866859
40
0.62030149216866859
40
0.62030149216866859
10
97.37477271036326
20
13.999999999999995
30
0
10
96.99085089864262
20
14.380019766548031
30
0
10
96.313941276200765
20
14.587617102417312
30
0
10
95.669465155544273
20
14.490045218639764
30
0
10
95.248347964266245
20
14.426289252627775
30
0
10
94.876091626584724
20
14.248314641286921
30
0
10
94.62522728911722
20
14.000000000000004
30
0
0
SPLINE
5
128
100
AcDbEntity
8
INTERIOR_PROFILES
100
AcDbSpline
70
0
71
3
72
11
73
7
74
0
42
0.000000001
43
0.0000000001
44
0.0000000001
40
0.31591804558343262
40
0.31591804558343262
40
0.31591804558343262
40
0.31591804558343262
40
0.50001066389216953
40
0.50001066389216953
40
0.50001066389216953
40
0.62030149217879993
40
0.62030149217879993
40
0.62030149217879993
40
0.62030149217879993
10
147.3747727103941
20
13.999999999999995
30
0
10
146.99085089869328
20
14.38001976655304
30
0
10
146.3139412762618
20
14.587617102440573
30
0
10
145.6694651556075
20
14.490045218681749
30
0
10
145.24834796428996
20
14.426289252675808
30
0
10
144.8760916265654
20
14.248314641314526
30
0
10
144.6252272890863
20
14.000000000000004
30
0
0
ARC
5
129
100
AcDbEntity
8
INTERIOR_PROFILES
100
AcDbCircle
10
-145.99999999974023
20
13.000000002979339
30
0
40
1.6999999999999607
210
0
220
0
230
-1
100
AcDbArc
50
-216.03187894830248
51
36.031878948301554
0
SPLINE
5
130
100
AcDbEntity
8
INTERIOR_PROFILES
100
AcDbSpline
70
0
71
3
72
11
73
7
74
0
42
0.000000001
43
0.0000000001
44
0.0000000001
40
0.31591804558314079
40
0.31591804558314079
40
0.31591804558314079
40
0.31591804558314079
40
0.50001066388851756
40
0.50001066388851756
40
0.50001066388851756
40
0.62030149219905861
40
0.62030149219905861
40
0.62030149219905861
40
0.62030149219905861
10
247.37477271072657
20
13.999999999999995
30
0
10
246.99085089906879
20
14.380019766559826
30
0
10
246.31394127666687
20
14.587617102483712
30
0
10
245.66946515602194
20
14.490045218768337
30
0
10
245.24834796461917
20
14.426289252776954
30
0
10
244.87609162680059
20
14.248314641372657
30
0
10
244.62522728929528
20
13.999999999999995
30
0
0
ARC
5
131
100
AcDbEntity
8
INTERIOR_PROFILES
100
AcDbCircle
10
-246.00000000001097
20
13.000000003064223
30
0
40
1.6999999999999627
210
0
220
0
230
-1
100
AcDbArc
50
-216.03187894476505
51
36.031878944763342
0
ARC
5
132
100
AcDbEntity
8
INTERIOR_PROFILES
100
AcDbCircle
10
-195.99999999974023
20
13.000000003021777
30
0
40
1.7000000000000035
210
0
220
0
230
-1
100
AcDbArc
50
-216.03187894653317
51
36.031878946534093
0
SPLINE
5
133
100
AcDbEntity
8
INTERIOR_PROFILES
100
AcDbSpline
70
0
71
3
72
11
73
7
74
0
42
0.000000001
43
0.0000000001
44
0.0000000001
40
0.31591804558328762
40
0.31591804558328762
40
0.31591804558328762
40
0.31591804558328762
40
0.50001066388928805
40
0.50001066388928805
40
0.50001066388928805
40
0.62030149218892872
40
0.62030149218892872
40
0.62030149218892872
40
0.62030149218892872
10
197.37477271042496
20
14.000000000000004
30
0
10
196.99085089874802
20
14.380019766554168
30
0
10
196.31394127633669
20
14.587617102459971
30
0
10
195.6694651556904
20
14.490045218726735
30
0
10
195.24834796432634
20
14.426289252729676
30
0
10
194.87609162654977
20
14.24831464134571
30
0
10
194.62522728905543
20
14.000000000000004
30
0
0
SPLINE
5
134
100
AcDbEntity
8
INTERIOR_PROFILES
100
AcDbSpline
70
0
71
3
72
11
73
7
74
0
42
0.000000001
43
0.0000000001
44
0.0000000001
40
0.31591804559070574
40
0.31591804559070574
40
0.31591804559070574
40
0.31591804559070574
40
0.50001066396834137
40
0.50001066396834137
40
0.50001066396834137
40
0.62030149167546667
40
0.62030149167546667
40
0.62030149167546667
40
0.62030149167546667
10
32.374772708583208
20
13.999999999999995
30
0
10
31.990850895843153
20
14.380019766356318
30
0
10
31.313941272753567
20
14.587617101338974
30
0
10
30.669465151909918
20
14.49004521655314
30
0
10
30.248347962655018
20
14.426289250207134
30
0
10
29.87609162719906
20
14.248314639896709
30
0
10
29.625227290343332
20
13.999999999999986
30
0
0
ARC
5
135
100
AcDbEntity
8
INTERIOR_PROFILES
100
AcDbCircle
10
-30.999999999463199
20
13.000000000870484
30
0
40
1.7000000000000559
210
0
220
0
230
-1
100
AcDbArc
50
-216.03187903619016
51
36.031879036192706
0
SPLINE
5
136
100
AcDbEntity
8
INTERIOR_PROFILES
100
AcDbSpline
70
0
71
3
72
11
73
7
74
0
42
0.000000001
43
0.0000000001
44
0.0000000001
40
0.31591804558903447
40
0.31591804558903447
40
0.31591804558903447
40
0.31591804558903447
40
0.50001066394931715
40
0.50001066394931715
40
0.50001066394931715
40
0.62030149179121408
40
0.62030149179121408
40
0.62030149179121408
40
0.62030149179121408
10
78.374772708935865
20
13.999999999999995
30
0
10
77.990850896438033
20
14.380019766398338
30
0
10
77.313941273507751
20
14.587617101589174
30
0
10
76.669465152712348
20
14.49004521704504
30
0
10
76.248347962977476
20
14.42628925077952
30
0
10
75.876091626992661
20
14.248314640225743
30
0
10
75.625227289990562
20
14.000000000000021
30
0
0
ARC
5
137
100
AcDbEntity
8
INTERIOR_PROFILES
100
AcDbCircle
10
-76.999999999463284
20
13.000000001355447
30
0
40
1.6999999999999043
210
0
220
0
230
-1
100
AcDbArc
50
-216.0318790159823
51
36.03187901598023
0
ARC
5
138
100
AcDbEntity
8
INTERIOR_PROFILES
100
AcDbCircle
10
-46.000000000010957
20
13.000000002894456
30
0
40
1.6999999999999968
210
0
220
0
230
-1
100
AcDbArc
50
-216.0318789518397
51
36.031878951839289
0
SPLINE
5
139
100
AcDbEntity
8
INTERIOR_PROFILES
100
AcDbSpline
70
0
71
3
72
11
73
7
74
0
42
0.000000001
43
0.0000000001
44
0.0000000001
40
0.31591804558372349
40
0.31591804558372349
40
0.31591804558372349
40
0.31591804558372349
40
0.50001066389376658
40
0.50001066389376658
40
0.50001066389376658
40
0.62030149215853481
40
0.62030149215853481
40
0.62030149215853481
40
0.62030149215853481
10
47.374772710603139
20
13.999999999999968
30
0
10
46.990850898863599
20
14.380019766542036
30
0
10
46.313941276413004
20
14.587617102393198
30
0
10
45.669465155755802
20
14.490045218598384
30
0
10
45.248347964515929
20
14.426289252580986
30
0
10
44.876091626875549
20
14.248314641260169
30
0
10
44.625227289418774
20
14.000000000000012
30
0
0
ARC
5
140
100
AcDbEntity
8
INTERIOR_PROFILES
100
AcDbCircle
10
-446.00000000001097
20
13.000000003233971
30
0
40
1.6999999999999893
210
0
220
0
230
-1
100
AcDbArc
50
-216.03187893769123
51
36.031878937689811
0
SPLINE
5
141
100
AcDbEntity
8
INTERIOR_PROFILES
100
AcDbSpline
70
0
71
3
72
11
73
7
74
0
42
0.000000001
43
0.0000000001
44
0.0000000001
40
0.31591804558255543
40
0.31591804558255543
40
0.31591804558255543
40
0.31591804558255543
40
0.50001066388205606
40
0.50001066388205606
40
0.50001066388205606
40
0.62030149223957742
40
0.62030149223957742
40
0.62030149223957742
40
0.62030149223957742
10
447.37477271085004
20
13.999999999999995
30
0
10
446.99085089927667
20
14.380019766574996
30
0
10
446.31394127692931
20
14.587617102571695
30
0
10
445.6694651563007
20
14.490045218940208
30
0
10
445.24834796473073
20
14.426289252976696
30
0
10
444.876091626728
20
14.248314641487445
30
0
10
444.62522728917179
20
13.999999999999995
30
0
0
SPLINE
5
142
100
AcDbEntity
8
INTERIOR_PROFILES
100
AcDbSpline
70
0
71
3
72
11
73
7
74
0
42
0.000000001
43
0.0000000001
44
0.0000000001
40
0.31591804558239556
40
0.31591804558239556
40
0.31591804558239556
40
0.31591804558239556
40
0.50001066388039472
40
0.50001066388039472
40
0.50001066388039472
40
0.62030149225069697
40
0.62030149225069697
40
0.62030149225069697
40
0.62030149225069697
10
416.37477271089034
20
14.000000000000004
30
0
10
415.99085089933988
20
14.380019766579313
30
0
10
415.31394127700696
20
14.587617102596075
30
0
10
414.6694651563825
20
14.490045218987211
30
0
10
414.24834796476705
20
14.426289253031186
30
0
10
413.87609162671419
20
14.248314641518771
30
0
10
413.62522728914428
20
13.999999999999995
30
0
0
ARC
5
143
100
AcDbEntity
8
INTERIOR_PROFILES
100
AcDbCircle
10
-415.00000000001728
20
13.000000003280556
30
0
40
1.7000000000000461
210
0
220
0
230
-1
100
AcDbArc
50
-216.0318789357473
51
36.031878935748189
0
ARC
5
144
100
AcDbEntity
8
INTERIOR_PROFILES
100
AcDbCircle
10
-396.00000000001091
20
13.000000003191543
30
0
40
1.7000000000000064
210
0
220
0
230
-1
100
AcDbArc
50
-216.03187893945946
51
36.031878939457208
0
SPLINE
5
145
100
AcDbEntity
8
INTERIOR_PROFILES
100
AcDbSpline
70
0
71
3
72
11
73
7
74
0
42
0.000000001
43
0.0000000001
44
0.0000000001
40
0.31591804558270131
40
0.31591804558270131
40
0.31591804558270131
40
0.31591804558270131
40
0.50001066388386128
40
0.50001066388386128
40
0.50001066388386128
40
0.62030149222945052
40
0.62030149222945052
40
0.62030149222945052
40
0.62030149222945052
10
397.37477271081923
20
13.999999999999995
30
0
10
396.99085089922437
20
14.380019766571479
30
0
10
396.31394127686235
20
14.587617102550086
30
0
10
395.66946515622908
20
14.490045218896945
30
0
10
395.24834796470157
20
14.426289252926203
30
0
10
394.87609162674579
20
14.248314641458402
30
0
10
394.62522728920271
20
13.999999999999995
30
0
0
ARC
5
146
100
AcDbEntity
8
INTERIOR_PROFILES
100
AcDbCircle
10
-486.99999999990678
20
13.000000003268806
30
0
40
1.700000000000004
210
0
220
0
230
-1
100
AcDbArc
50
-216.03187893623769
51
36.031878936238847
0
SPLINE
5
147
100
AcDbEntity
8
INTERIOR_PROFILES
100
AcDbSpline
70
0
71
3
72
11
73
7
74
0
42
0.000000001
43
0.0000000001
44
0.0000000001
40
0.31591804558243647
40
0.31591804558243647
40
0.31591804558243647
40
0.31591804558243647
40
0.50001066388123172
40
0.50001066388123172
40
0.50001066388123172
40
0.62030149224789422
40
0.62030149224789422
40
0.62030149224789422
40
0.62030149224789422
10
488.37477271077125
20
14.000000000000012
30
0
10
487.99085089921402
20
14.3800197665791
30
0
10
487.31394127687565
20
14.587617102590844
30
0
10
486.66946515624863
20
14.490045218974696
30
0
10
486.24834796464603
20
14.426289253016122
30
0
10
485.87609162660794
20
14.248314641510058
30
0
10
485.62522728904236
20
14.000000000000004
30
0
0
SPLINE
5
148
100
AcDbEntity
8
INTERIOR_PROFILES
100
AcDbSpline
70
0
71
3
72
11
73
7
74
0
42
0.000000001
43
0.0000000001
44
0.0000000001
40
0.31591804558226028
40
0.31591804558226028
40
0.31591804558226028
40
0.31591804558226028
40
0.50001066387860882
40
0.50001066387860882
40
0.50001066387860882
40
0.62030149226001741
40
0.62030149226001741
40
0.62030149226001741
40
0.62030149226001741
10
462.37477271091871
20
14.000000000000004
30
0
10
461.99085089938831
20
14.380019766582119
30
0
10
461.31394127706972
20
14.587617102615731
30
0
10
460.66946515644975
20
14.490045219027214
30
0
10
460.24834796479456
20
14.426289253078028
30
0
10
459.8760916266981
20
14.248314641545772
30
0
10
459.62522728911586
20
13.999999999999995
30
0
0
ARC
5
149
100
AcDbEntity
8
INTERIOR_PROFILES
100
AcDbCircle
10
-461.00000000001728
20
13.000000003319601
30
0
40
1.7000000000000057
210
0
220
0
230
-1
100
AcDbArc
50
-216.03187893412078
51
36.031878934120542
0
CIRCLE
5
150
100
AcDbEntity
8
INTERIOR_PROFILES
100
AcDbCircle
10
-452.00000000005218
20
84.151393417931644
30
0
40
1.7000000000000171
210
0
220
0
230
-1
0
CIRCLE
5
151
100
AcDbEntity
8
INTERIOR_PROFILES
100
AcDbCircle
10
-28.686250000016571
20
41.927903594156348
30
0
40
1.6999999999999993
210
0
220
0
230
-1
0
CIRCLE
5
152
100
AcDbEntity
8
INTERIOR_PROFILES
100
AcDbCircle
10
-440.68625000004954
20
81.11988324207357
30
0
40
1.7000000000000171
210
0
220
0
230
-1
0
CIRCLE
5
153
100
AcDbEntity
8
INTERIOR_PROFILES
100
AcDbCircle
10
-452.0000000000141
20
38.896393417931634
30
0
40
1.7000000000000171
210
0
220
0
230
-1
0
CIRCLE
5
154
100
AcDbEntity
8
INTERIOR_PROFILES
100
AcDbCircle
10
-28.686250000049682
20
81.11988324242111
30
0
40
1.6999999999999993
210
0
220
0
230
-1
0
CIRCLE
5
155
100
AcDbEntity
8
INTERIOR_PROFILES
100
AcDbCircle
10
-51.31375000001654
20
41.92790359413727
30
0
40
1.6999999999999993
210
0
220
0
230
-1
0
CIRCLE
5
156
100
AcDbEntity
8
INTERIOR_PROFILES
100
AcDbCircle
10
-17.372500000033
20
61.523893418298258
30
0
40
1.6999999999999993
210
0
220
0
230
-1
0
CIRCLE
5
157
100
AcDbEntity
8
INTERIOR_PROFILES
100
AcDbCircle
10
-429.37250000003314
20
61.523893417950703
30
0
40
1.7000000000000171
210
0
220
0
230
-1
0
CIRCLE
5
158
100
AcDbEntity
8
INTERIOR_PROFILES
100
AcDbCircle
10
-40.000000000052296
20
84.151393418279184
30
0
40
1.6999999999999993
210
0
220
0
230
-1
0
CIRCLE
5
159
100
AcDbEntity
8
INTERIOR_PROFILES
100
AcDbCircle
10
-440.68625000001668
20
41.927903593808779
30
0
40
1.7000000000000171
210
0
220
0
230
-1
0
CIRCLE
5
160
100
AcDbEntity
8
INTERIOR_PROFILES
100
AcDbCircle
10
-474.62750000003314
20
61.523893417912561
30
0
40
1.7000000000000171
210
0
220
0
230
-1
0
CIRCLE
5
161
100
AcDbEntity
8
INTERIOR_PROFILES
100
AcDbCircle
10
-40.000000000013998
20
38.896393418279189
30
0
40
1.6999999999999993
210
0
220
0
230
-1
0
CIRCLE
5
162
100
AcDbEntity
8
INTERIOR_PROFILES
100
AcDbCircle
10
-51.313750000049652
20
81.11988324240204
30
0
40
1.6999999999999993
210
0
220
0
230
-1
0
CIRCLE
5
163
100
AcDbEntity
8
INTERIOR_PROFILES
100
AcDbCircle
10
-62.627500000033081
20
61.523893418260123
30
0
40
1.6999999999999993
210
0
220
0
230
-1
0
CIRCLE
5
164
100
AcDbEntity
8
INTERIOR_PROFILES
100
AcDbCircle
10
-40.000000000033111
20
61.523893418279187
30
0
40
1.6999999999999993
210
0
220
0
230
-1
0
CIRCLE
5
165
100
AcDbEntity
8
INTERIOR_PROFILES
100
AcDbCircle
10
-257.31375000001663
20
41.927903593963464
30
0
40
1.7000000000000171
210
0
220
0
230
-1
0
CIRCLE
5
166
100
AcDbEntity
8
INTERIOR_PROFILES
100
AcDbCircle
10
-487.00000000001091
20
120.04778684642915
30
0
40
1.7000000000000171
210
0
220
0
230
-1
0
CIRCLE
5
167
100
AcDbEntity
8
INTERIOR_PROFILES
100
AcDbCircle
10
-421.00000000005076
20
96.78584013211028
30
0
40
1.6999999999999993
210
0
220
0
230
-1
0
CIRCLE
5
168
100
AcDbEntity
8
INTERIOR_PROFILES
100
AcDbCircle
10
-268.62750000003314
20
61.523893418086317
30
0
40
1.7000000000000171
210
0
220
0
230
-1
0
CIRCLE
5
169
100
AcDbEntity
8
INTERIOR_PROFILES
100
AcDbCircle
10
-223.37250000003311
20
61.523893418124501
30
0
40
1.7000000000000171
210
0
220
0
230
-1
0
CIRCLE
5
170
100
AcDbEntity
8
INTERIOR_PROFILES
100
AcDbCircle
10
-246.00000000001404
20
38.896393418105404
30
0
40
1.7000000000000171
210
0
220
0
230
-1
0
CIRCLE
5
171
100
AcDbEntity
8
INTERIOR_PROFILES
100
AcDbCircle
10
-246.00000000005224
20
84.151393418105428
30
0
40
1.7000000000000171
210
0
220
0
230
-1
0
CIRCLE
5
172
100
AcDbEntity
8
INTERIOR_PROFILES
100
AcDbCircle
10
-463.31375000001663
20
41.927903593789715
30
0
40
1.7000000000000171
210
0
220
0
230
-1
0
CIRCLE
5
173
100
AcDbEntity
8
INTERIOR_PROFILES
100
AcDbCircle
10
-246.00000000005059
20
96.785840131963369
30
0
40
1.6999999999999993
210
0
220
0
230
-1
0
CIRCLE
5
174
100
AcDbEntity
8
INTERIOR_PROFILES
100
AcDbCircle
10
-463.31375000004971
20
81.11988324205447
30
0
40
1.7000000000000171
210
0
220
0
230
-1
0
CIRCLE
5
175
100
AcDbEntity
8
INTERIOR_PROFILES
100
AcDbCircle
10
-234.68625000001666
20
41.927903593982585
30
0
40
1.7000000000000171
210
0
220
0
230
-1
0
CIRCLE
5
176
100
AcDbEntity
8
INTERIOR_PROFILES
100
AcDbCircle
10
-257.31375000004965
20
81.119883242228227
30
0
40
1.7000000000000171
210
0
220
0
230
-1
0
CIRCLE
5
177
100
AcDbEntity
8
INTERIOR_PROFILES
100
AcDbCircle
10
-171.00000000005065
20
96.7858401319004
30
0
40
1.6999999999999993
210
0
220
0
230
-1
0
CIRCLE
5
178
100
AcDbEntity
8
INTERIOR_PROFILES
100
AcDbCircle
10
-71.000000000050747
20
96.785840131816471
30
0
40
1.6999999999999993
210
0
220
0
230
-1
0
CIRCLE
5
179
100
AcDbEntity
8
INTERIOR_PROFILES
100
AcDbCircle
10
-234.68625000004963
20
81.119883242247369
30
0
40
1.7000000000000171
210
0
220
0
230
-1
0
CIRCLE
5
180
100
AcDbEntity
8
INTERIOR_PROFILES
100
AcDbCircle
10
-321.0000000000507
20
96.785840132026323
30
0
40
1.6999999999999993
210
0
220
0
230
-1
0
CIRCLE
5
181
100
AcDbEntity
8
INTERIOR_PROFILES
100
AcDbCircle
10
-5.0000000000108713
20
120.04778684521077
30
0
40
1.7000000000000004
210
0
220
0
230
-1
0
CIRCLE
5
182
100
AcDbEntity
8
INTERIOR_PROFILES
100
AcDbCircle
10
-171.00000000000921
20
26.261946710585569
30
0
40
1.6999999999999993
210
0
220
0
230
-1
0
CIRCLE
5
183
100
AcDbEntity
8
INTERIOR_PROFILES
100
AcDbCircle
10
-246.00000000000921
20
26.261946710585569
30
0
40
1.6999999999999993
210
0
220
0
230
-1
0
CIRCLE
5
184
100
AcDbEntity
8
INTERIOR_PROFILES
100
AcDbCircle
10
-321.00000000000921
20
26.261946710585569
30
0
40
1.6999999999999993
210
0
220
0
230
-1
0
CIRCLE
5
185
100
AcDbEntity
8
INTERIOR_PROFILES
100
AcDbCircle
10
-421.00000000000927
20
26.261946710585569
30
0
40
1.6999999999999993
210
0
220
0
230
-1
0
CIRCLE
5
186
100
AcDbEntity
8
INTERIOR_PROFILES
100
AcDbCircle
10
-71.00000000000918
20
26.261946710585569
30
0
40
1.6999999999999993
210
0
220
0
230
-1
0
CIRCLE
5
187
100
AcDbEntity
8
INTERIOR_PROFILES
100
AcDbCircle
10
-487.00000000001933
20
3.0000000032687169
30
0
40
1.7000000000000171
210
0
220
0
230
-1
0
CIRCLE
5
188
100
AcDbEntity
8
INTERIOR_PROFILES
100
AcDbCircle
10
-5.0000000000193268
20
3.0000000028595863
30
0
40
1.7000000000000004
210
0
220
0
230
-1
0
LINE
5
189
100
AcDbEntity
8
BEND
100
AcDbLine
10
-1.7349063197089976
20
107.91681348704749
30
-4.1353392932208521e-10
11
493.73490632045895
21
107.91681348746343
31
4.1525741178993769e-10
0
LINE
5
190
100
AcDbEntity
8
BEND
100
AcDbLine
10
493.73490632010896
20
15.130973355292783
30
-2.0841800507653829e-10
11
-1.7349063200898485
21
15.130973355292774
31
2.0828325175692441e-10
0
LINE
5
191
100
AcDbEntity
8
BEND
100
AcDbLine
10
482.00000000001569
20
33.39292006587938
30
3.434752482434078e-13
11
9.9999999999997868
21
33.392920065879366
31
3.5485503424581566e-13
0
LINE
5
192
100
AcDbEntity
8
BEND
100
AcDbLine
10
9.9999999999545963
20
89.65486677647047
30
5.2735593669694936e-13
11
481.99999999996913
21
89.654866776866697
31
5.0390247530174292e-13
0
LINE
5
193
100
AcDbEntity
8
BEND_EXTENT
100
AcDbLine
10
492.62113487128778
20
106.78584013217042
30
6.8625660709642489e-13
11
-0.62113487077880336
21
106.78584013175636
31
7.1720407390785113e-13
0
LINE
5
194
100
AcDbEntity
8
BEND_EXTENT
100
AcDbLine
10
-1.9999999996806395
20
109.04778684233941
30
7.2844508203218084e-13
11
494.00000000031923
21
109.04778684275578
31
7.062406215396777e-13
0
LINE
5
195
100
AcDbEntity
8
BEND_EXTENT
100
AcDbLine
10
10.000000000047109
20
90.785840131761717
30
5.3040905001466854e-13
11
482.0000000000644
21
90.785840132161496
31
5.0889847891255613e-13
0
LINE
5
196
100
AcDbEntity
8
BEND_EXTENT
100
AcDbLine
10
482.00000000006457
20
88.523893421576958
30
5.044575868140555e-13
11
10.000000000047464
21
88.523893421180745
31
5.1708637371916666e-13
0
LINE
5
197
100
AcDbEntity
8
BEND_EXTENT
100
AcDbLine
10
10.000000000001634
20
34.523893421170641
30
5.0820458952216541e-13
11
482.0000000000187
21
34.523893421170641
31
4.9557580261705425e-13
0
LINE
5
198
100
AcDbEntity
8
BEND_EXTENT
100
AcDbLine
10
482.00000000001785
20
32.261946710585569
30
4.8225312632155237e-13
11
10.000000000000639
21
32.261946710589093
31
4.8600012902966228e-13
0
LINE
5
199
100
AcDbEntity
8
BEND_EXTENT
100
AcDbLine
10
-0.62113487102855913
20
16.26194671058559
30
2.7311486405778851e-13
11
492.62113487104756
21
16.26194671058559
31
2.5993096564036478e-13
0
LINE
5
200
100
AcDbEntity
8
BEND_EXTENT
100
AcDbLine
10
3.6252272895482207
20
14.000000000000021
30
2.6645352591003757e-13
11
-1.9999999999998863
21
14.000000000000012
31
2.4882873539411321e-13
0
LINE
5
201
100
AcDbEntity
8
BEND_EXTENT
100
AcDbLine
10
29.625227290343332
20
14.000000000000012
30
2.6575963651964685e-13
11
6.3747727106819241
21
14.000000000000012
31
2.7519653222896068e-13
0
LINE
5
202
100
AcDbEntity
8
BEND_EXTENT
100
AcDbLine
10
44.625227289418774
20
14.000000000000012
30
2.6534330288541241e-13
11
32.374772708583208
21
14.000000000000004
31
2.656208586415687e-13
0
LINE
5
203
100
AcDbEntity
8
BEND_EXTENT
100
AcDbLine
10
75.625227289990562
20
14.000000000000012
30
2.5562885141994229e-13
11
47.374772710603139
21
14.000000000000004
31
2.6520452500733427e-13
0
LINE
5
204
100
AcDbEntity
8
BEND_EXTENT
100
AcDbLine
10
94.625227289117149
20
14.000000000000012
30
2.6395552410463097e-13
11
78.374772708935936
21
14.000000000000004
31
2.643718577388654e-13
0
LINE
5
205
100
AcDbEntity
8
BEND_EXTENT
100
AcDbLine
10
144.6252272890863
20
14.000000000000004
30
2.5368596112684827e-13
11
97.374772710363189
21
14.000000000000004
31
2.6381674622655282e-13
0
LINE
5
206
100
AcDbEntity
8
BEND_EXTENT
100
AcDbLine
10
194.62522728905543
20
14.000000000000004
30
2.5465740627339528e-13
11
147.37477271039415
21
14.000000000000004
31
2.5368596112684827e-13
0
LINE
5
207
100
AcDbEntity
8
BEND_EXTENT
100
AcDbLine
10
244.62522728929528
20
14.000000000000004
30
2.4438784329561258e-13
11
197.37477271042496
21
14.000000000000012
31
2.5451862839531714e-13
0
LINE
5
208
100
AcDbEntity
8
BEND_EXTENT
100
AcDbLine
10
294.6252272889937
20
14.000000000000012
30
2.5188184871183239e-13
11
247.37477271072657
21
14.000000000000012
31
2.5313084961453569e-13
0
LINE
5
209
100
AcDbEntity
8
BEND_EXTENT
100
AcDbLine
10
344.62522728923352
20
14.000000000000012
30
2.5063284780912909e-13
11
297.3747727104867
21
14.000000000000004
31
2.4300006451483114e-13
0
LINE
5
210
100
AcDbEntity
8
BEND_EXTENT
100
AcDbLine
10
394.6252272892026
20
14.000000000000004
30
2.4036328483134639e-13
11
347.37477271078831
21
14.000000000000004
31
2.4161228573404969e-13
0
LINE
5
211
100
AcDbEntity
8
BEND_EXTENT
100
AcDbLine
10
413.62522728914428
20
14.000000000000004
30
2.3980817331903381e-13
11
397.37477271081912
21
14.000000000000012
31
2.4022450695326825e-13
0
LINE
5
212
100
AcDbEntity
8
BEND_EXTENT
100
AcDbLine
10
444.62522728917179
20
14.000000000000004
30
2.4119595209981526e-13
11
416.37477271089028
21
14.000000000000004
31
2.3980817331903381e-13
0
LINE
5
213
100
AcDbEntity
8
BEND_EXTENT
100
AcDbLine
10
459.62522728911586
20
14.000000000000004
30
2.4077961846558082e-13
11
447.37477271085004
21
14.000000000000012
31
2.4119595209981526e-13
0
LINE
5
214
100
AcDbEntity
8
BEND_EXTENT
100
AcDbLine
10
485.62522728904236
20
14.000000000000021
30
2.3120394487818885e-13
11
462.37477271091871
21
14.000000000000021
31
2.3189783426857957e-13
0
LINE
5
215
100
AcDbEntity
8
BEND_EXTENT
100
AcDbLine
10
494.00000000001734
20
13.999999999999995
30
2.4882873539411321e-13
11
488.37477271077125
21
14.000000000000012
31
2.400857290751901e-13
0
ENDSEC
0
SECTION
2
OBJECTS
0
DICTIONARY
5
C
100
AcDbDictionary
3
ACAD_GROUP
350
D
3
ACAD_MLINESTYLE
350
17
0
DICTIONARY
5
D
100
AcDbDictionary
0
DICTIONARY
5
1A
330
C
100
AcDbDictionary
0
DICTIONARY
5
17
100
AcDbDictionary
0
ENDSEC
0
EOF
