0
SECTION
2
HEADER
9
$INSUNITS
70
4
9
$ACADVER
1
AC1014
9
$HANDSEED
5
FFFF
0
ENDSEC
0
SECTION
2
TABLES
0
TABLE
2
VPORT
5
8
100
AcDbSymbolTable
0
ENDTAB
0
TABLE
2
LTYPE
5
5
100
AcDbSymbolTable
0
LTYPE
5
14
100
AcDbSymbolTableRecord
100
AcDbLinetypeTableRecord
2
BYBLOCK
70
0
0
LTYPE
5
15
100
AcDbSymbolTableRecord
100
AcDbLinetypeTableRecord
2
BYLAYER
70
0
0
LTYPE
5
16
100
AcDbSymbolTableRecord
100
AcDbLinetypeTableRecord
2
DASHED
70
0
3
Dashed __ __ __ __ __ __ __ __ __ __ __ __ __ _
72
65
73
2
40
0.75
49
0.5
74
0
49
-0.25
74
0
0
ENDTAB
0
TABLE
2
LAYER
5
2
100
AcDbSymbolTable
70
2
0
LAYER
5
50
100
AcDbSymbolTableRecord
100
AcDbLayerTableRecord
2
0
70
0
62
7
6
CONTINUOUS
0
ENDTAB
0
TABLE
2
STYLE
5
3
100
AcDbSymbolTable
70
1
0
STYLE
5
11
100
AcDbSymbolTableRecord
100
AcDbTextStyleTableRecord
2
STANDARD
70
0
0
ENDTAB
0
TABLE
2
VIEW
5
6
100
AcDbSymbolTable
70
0
0
ENDTAB
0
TABLE
2
UCS
5
7
100
AcDbSymbolTable
70
0
0
ENDTAB
0
TABLE
2
APPID
5
9
100
AcDbSymbolTable
70
2
0
APPID
5
12
100
AcDbSymbolTableRecord
100
AcDbRegAppTableRecord
2
ACAD
70
0
0
ENDTAB
0
TABLE
2
DIMSTYLE
5
A
100
AcDbSymbolTable
70
1
0
ENDTAB
0
TABLE
2
BLOCK_RECORD
5
1
100
AcDbSymbolTable
70
1
0
BLOCK_RECORD
5
1F
100
AcDbSymbolTableRecord
100
AcDbBlockTableRecord
2
*MODEL_SPACE
0
BLOCK_RECORD
5
1B
100
AcDbSymbolTableRecord
100
AcDbBlockTableRecord
2
*PAPER_SPACE
0
ENDTAB
0
ENDSEC
0
SECTION
2
BLOCKS
0
BLOCK
5
20
100
AcDbEntity
100
AcDbBlockBegin
2
*MODEL_SPACE
0
ENDBLK
5
21
100
AcDbEntity
100
AcDbBlockEnd
0
BLOCK
5
1C
100
AcDbEntity
100
AcDbBlockBegin
2
*PAPER_SPACE
0
ENDBLK
5
1D
100
AcDbEntity
100
AcDbBlockEnd
0
ENDSEC
0
SECTION
2
ENTITIES
0
SPLINE
5
100
100
AcDbEntity
8
OUTER_PROFILES
100
AcDbSpline
70
0
71
3
72
11
73
7
74
0
42
0.000000001
43
0.0000000001
44
0.0000000001
40
-3.1415926535897944
40
-3.1415926535897944
40
-3.1415926535897944
40
-3.1415926535897944
40
-3.0437620783854271
40
-3.0437620783854271
40
-3.0437620783854271
40
-1.5707963267948963
40
-1.5707963267948963
40
-1.5707963267948963
40
-1.5707963267948963
10
753.85857864375771
20
1031.7858401317553
30
0
10
753.85857864375771
20
1031.8327988078536
30
0
10
753.85698223583654
20
1031.8797574839516
30
0
10
753.8537970485105
20
1031.9267161600496
30
0
10
753.80583993659548
20
1032.6337397208131
30
0
10
753.34956722762115
20
1033.3407632815765
30
0
10
752.85857864375771
20
1034.04778684234
30
0
0
LINE
5
101
100
AcDbEntity
8
OUTER_PROFILES
100
AcDbLine
10
752.8585786437576
20
1034.04778684234
30
0
11
747.85857864375828
21
1039.0477868423379
31
0
0
LINE
5
102
100
AcDbEntity
8
OUTER_PROFILES
100
AcDbLine
10
747.85857864375828
20
1039.0477868423379
30
0
11
-3.836930773104541e-12
21
1039.0477868423343
31
0
0
LINE
5
103
100
AcDbEntity
8
OUTER_PROFILES
100
AcDbLine
10
-3.836930773104541e-12
20
1039.0477868423343
30
0
11
-5.0000000000041211
21
1034.047786842337
31
0
0
SPLINE
5
104
100
AcDbEntity
8
OUTER_PROFILES
100
AcDbSpline
70
0
71
3
72
11
73
7
74
0
42
0.000000001
43
0.0000000001
44
0.0000000001
40
1.5707963267948972
40
1.5707963267948972
40
1.5707963267948972
40
1.5707963267948972
40
3.043762078385428
40
3.043762078385428
40
3.043762078385428
40
3.1415926535897931
40
3.1415926535897931
40
3.1415926535897931
40
3.1415926535897931
10
-5.0000000000041211
20
1034.047786842337
30
0
10
-5.4909885838675621
20
1033.3407632815736
30
0
10
-5.94726129284183
20
1032.6337397208101
30
0
10
-5.9952184047570256
20
1031.9267161600467
30
0
10
-5.9984035920830081
20
1031.8797574839487
30
0
10
-6.0000000000040643
20
1031.8327988078504
30
0
10
-6.0000000000040643
20
1031.7858401317524
30
0
0
LINE
5
105
100
AcDbEntity
8
OUTER_PROFILES
100
AcDbLine
10
-6.0000000000040652
20
1031.7858401317524
30
0
11
-6.0000000000040643
21
1025.7858401317587
31
0
0
SPLINE
5
106
100
AcDbEntity
8
OUTER_PROFILES
100
AcDbSpline
70
0
71
3
72
11
73
7
74
0
42
0.000000001
43
0.0000000001
44
0.0000000001
40
-3.1415926535897931
40
-3.1415926535897931
40
-3.1415926535897931
40
-3.1415926535897931
40
-1.6686269019992674
40
-1.6686269019992674
40
-1.6686269019992674
40
-1.5707963267948966
40
-1.5707963267948966
40
-1.5707963267948966
40
-1.5707963267948966
10
-6.0000000000040643
20
1025.7858401317587
30
0
10
-6.0000000000039222
20
1025.0788165709951
30
0
10
-5.5863154718923624
20
1024.3717930102316
30
0
10
-5.0976745967079751
20
1023.6647694494683
30
0
10
-5.0652203337108404
20
1023.6178107733701
30
0
10
-5.0326101917386268
20
1023.570852097272
30
0
10
-5.000000000003979
20
1023.5238934211741
30
0
0
LINE
5
107
100
AcDbEntity
8
OUTER_PROFILES
100
AcDbLine
10
-5.000000000003979
20
1023.5238934211741
30
0
11
-5.0707106781263178
21
1023.4531827430449
31
0
0
SPLINE
5
108
100
AcDbEntity
8
OUTER_PROFILES
100
AcDbSpline
70
0
71
3
72
11
73
7
74
0
42
0.000000001
43
0.0000000001
44
0.0000000001
40
1.5707963267948966
40
1.5707963267948966
40
1.5707963267948966
40
1.5707963267948966
40
1.6686269019992672
40
1.6686269019992672
40
1.6686269019992672
40
3.1415926535897931
40
3.1415926535897931
40
3.1415926535897931
40
3.1415926535897931
10
-5.0707106781263178
20
1023.4531827430449
30
0
10
-5.1176693542242901
20
1023.4857929347797
30
0
10
-5.1646280303224046
20
1023.5184030767518
30
0
10
-5.211586706420519
20
1023.5508573397489
30
0
10
-5.918610267183908
20
1024.0394982149332
30
0
10
-6.6256338279474392
20
1024.4531827430449
30
0
10
-7.3326573887108282
20
1024.4531827430449
30
0
0
LINE
5
109
100
AcDbEntity
8
OUTER_PROFILES
100
AcDbLine
10
-7.3326573887108273
20
1024.4531827430449
30
0
11
-13.332657388709208
21
1024.4531827430476
31
0
0
SPLINE
5
110
100
AcDbEntity
8
OUTER_PROFILES
100
AcDbSpline
70
0
71
3
72
11
73
7
74
0
42
0.000000001
43
0.0000000001
44
0.0000000001
40
-3.1415926535897931
40
-3.1415926535897931
40
-3.1415926535897931
40
-3.1415926535897931
40
-3.0437620783854276
40
-3.0437620783854276
40
-3.0437620783854276
40
-1.5707963267948966
40
-1.5707963267948966
40
-1.5707963267948966
40
-1.5707963267948966
10
-13.332657388709208
20
1024.4531827430476
30
0
10
-13.379616064807323
20
1024.4531827430476
30
0
10
-13.426574740905295
20
1024.4515863351264
30
0
10
-13.473533417003409
20
1024.4484011478003
30
0
10
-14.18055697776694
20
1024.4004440358851
30
0
10
-14.887580538530329
20
1023.944171326911
30
0
10
-15.594604099293861
20
1023.4531827430475
30
0
0
LINE
5
111
100
AcDbEntity
8
OUTER_PROFILES
100
AcDbLine
10
-15.594604099293859
20
1023.4531827430474
30
0
11
-20.594604099291161
21
1018.4531827430463
31
0
0
LINE
5
112
100
AcDbEntity
8
OUTER_PROFILES
100
AcDbLine
10
-20.594604099291161
20
1018.4531827430463
30
0
11
-20.594604099287608
21
20.594604099286613
31
0
0
LINE
5
113
100
AcDbEntity
8
OUTER_PROFILES
100
AcDbLine
10
-20.594604099287608
20
20.594604099286613
30
0
11
-15.594604099287608
21
15.59460409928754
31
0
0
SPLINE
5
114
100
AcDbEntity
8
OUTER_PROFILES
100
AcDbSpline
70
0
71
3
72
11
73
7
74
0
42
0.000000001
43
0.0000000001
44
0.0000000001
40
1.5707963267948966
40
1.5707963267948966
40
1.5707963267948966
40
1.5707963267948966
40
3.0437620783854289
40
3.0437620783854289
40
3.0437620783854289
40
3.1415926535897931
40
3.1415926535897931
40
3.1415926535897931
40
3.1415926535897931
10
-15.594604099299261
20
15.594604099287469
30
0
10
-14.887580538535872
20
15.103615515423961
30
0
10
-14.180556977772341
20
14.647342806449837
30
0
10
-13.473533417008952
20
14.599385694534718
30
0
10
-13.426574740910837
20
14.596200507208593
30
0
10
-13.379616064812723
20
14.594604099287466
30
0
10
-13.332657388714608
20
14.594604099287466
30
0
0
LINE
5
115
100
AcDbEntity
8
OUTER_PROFILES
100
AcDbLine
10
-13.33265738871461
20
14.594604099287466
30
0
11
-7.3326573887099755
21
14.594604099287704
31
0
0
SPLINE
5
116
100
AcDbEntity
8
OUTER_PROFILES
100
AcDbSpline
70
0
71
3
72
11
73
7
74
0
42
0.000000001
43
0.0000000001
44
0.0000000001
40
-3.1415926535897931
40
-3.1415926535897931
40
-3.1415926535897931
40
-3.1415926535897931
40
-1.6686269019992666
40
-1.6686269019992666
40
-1.6686269019992666
40
-1.5707963267948966
40
-1.5707963267948966
40
-1.5707963267948966
40
-1.5707963267948966
10
-7.3326573887099755
20
14.594604099287704
30
0
10
-6.6256338279465865
20
14.594604099287707
30
0
10
-5.9186102671830554
20
15.008288627399198
30
0
10
-5.2115867064196664
20
15.496929502583804
30
0
10
-5.1646280303214098
20
15.529383765580796
30
0
10
-5.1176693542234375
20
15.561993907552939
30
0
10
-5.0707106781253231
20
15.594604099287729
30
0
0
LINE
5
117
100
AcDbEntity
8
OUTER_PROFILES
100
AcDbLine
10
-5.0707106781253239
20
15.59460409928773
30
0
11
-5.0000000000005684
21
15.523893421164537
31
0
0
SPLINE
5
118
100
AcDbEntity
8
OUTER_PROFILES
100
AcDbSpline
70
0
71
3
72
11
73
7
74
0
42
0.000000001
43
0.0000000001
44
0.0000000001
40
1.5707963267948966
40
1.5707963267948966
40
1.5707963267948966
40
1.5707963267948966
40
1.6686269019992666
40
1.6686269019992666
40
1.6686269019992666
40
3.1415926535897931
40
3.1415926535897931
40
3.1415926535897931
40
3.1415926535897931
10
-5.0000000000005684
20
15.523893421164537
30
0
10
-5.0326101917352162
20
15.476934745066423
30
0
10
-5.0652203337074297
20
15.429976068968379
30
0
10
-5.0976745967045645
20
15.383017392870265
30
0
10
-5.5863154718889518
20
14.675993832106801
30
0
10
-6.0000000000005116
20
13.968970271343268
30
0
10
-6.0000000000005116
20
13.261946710579808
30
0
0
LINE
5
119
100
AcDbEntity
8
OUTER_PROFILES
100
AcDbLine
10
-6.0000000000005107
20
13.26194671057981
30
0
11
-6.0000000000005116
21
7.2619467105834801
31
0
0
SPLINE
5
120
100
AcDbEntity
8
OUTER_PROFILES
100
AcDbSpline
70
0
71
3
72
11
73
7
74
0
42
0.000000001
43
0.0000000001
44
0.0000000001
40
-3.1415926535897931
40
-3.1415926535897931
40
-3.1415926535897931
40
-3.1415926535897931
40
-3.0437620783853951
40
-3.0437620783853951
40
-3.0437620783853951
40
-1.5707963267948677
40
-1.5707963267948677
40
-1.5707963267948677
40
-1.5707963267948677
10
-6.0000000000005116
20
7.2619467105834801
30
0
10
-6.0000000000005116
20
7.2149880344853692
30
0
10
-5.9984035920794554
20
7.1680293583872547
30
0
10
-5.9952184047533308
20
7.1210706822891412
30
0
10
-5.9472612928382773
20
6.414047121525658
30
0
10
-5.4909885838640093
20
5.707023560762198
30
0
10
-5.0000000000005684
20
4.9999999999987477
30
0
0
LINE
5
121
100
AcDbEntity
8
OUTER_PROFILES
100
AcDbLine
10
-5.0000000000005693
20
4.9999999999987486
30
0
11
0
21
0
31
0
0
LINE
5
122
100
AcDbEntity
8
OUTER_PROFILES
100
AcDbLine
10
0
20
0
30
0
11
747.85857864376271
21
8.2156503822261584e-14
31
0
0
LINE
5
123
100
AcDbEntity
8
OUTER_PROFILES
100
AcDbLine
10
747.85857864376271
20
8.2156503822261584e-14
30
0
11
752.85857864376237
21
4.9999999999979376
31
0
0
SPLINE
5
124
100
AcDbEntity
8
OUTER_PROFILES
100
AcDbSpline
70
0
71
3
72
11
73
7
74
0
42
0.000000001
43
0.0000000001
44
0.0000000001
40
1.5707963267948686
40
1.5707963267948686
40
1.5707963267948686
40
1.5707963267948686
40
3.0437620783853929
40
3.0437620783853929
40
3.0437620783853929
40
3.1415926535897936
40
3.1415926535897936
40
3.1415926535897936
40
3.1415926535897936
10
752.85857864376237
20
4.9999999999979376
30
0
10
753.34956722762604
20
5.7070235607613888
30
0
10
753.80583993660014
20
6.4140471215249057
30
0
10
753.85379704851516
20
7.1210706822883383
30
0
10
753.85698223584131
20
7.1680293583864501
30
0
10
753.85857864376237
20
7.2149880344845583
30
0
10
753.85857864376237
20
7.2619467105826701
30
0
0
LINE
5
125
100
AcDbEntity
8
OUTER_PROFILES
100
AcDbLine
10
753.85857864376248
20
7.2619467105826683
30
0
11
753.85857864376237
21
13.261946710573975
31
0
0
SPLINE
5
126
100
AcDbEntity
8
OUTER_PROFILES
100
AcDbSpline
70
0
71
3
72
11
73
7
74
0
42
0.000000001
43
0.0000000001
44
0.0000000001
40
-3.1415926535897931
40
-3.1415926535897931
40
-3.1415926535897931
40
-3.1415926535897931
40
-1.6686269019992694
40
-1.6686269019992694
40
-1.6686269019992694
40
-1.5707963267948966
40
-1.5707963267948966
40
-1.5707963267948966
40
-1.5707963267948966
10
753.85857864376237
20
13.261946710573975
30
0
10
753.85857864376237
20
13.968970271337435
30
0
10
753.44489411565075
20
14.675993832100893
30
0
10
752.95625324046637
20
15.383017392864351
30
0
10
752.92379897746946
20
15.429976068962466
30
0
10
752.89118883549713
20
15.476934745060509
30
0
10
752.85857864376237
20
15.523893421158624
30
0
0
LINE
5
127
100
AcDbEntity
8
OUTER_PROFILES
100
AcDbLine
10
752.85857864376226
20
15.523893421158622
30
0
11
752.92928932188147
21
15.594604099287855
31
0
0
SPLINE
5
128
100
AcDbEntity
8
OUTER_PROFILES
100
AcDbSpline
70
0
71
3
72
11
73
7
74
0
42
0.000000001
43
0.0000000001
44
0.0000000001
40
1.5707963267948966
40
1.5707963267948966
40
1.5707963267948966
40
1.5707963267948966
40
1.6686269019992692
40
1.6686269019992692
40
1.6686269019992692
40
3.1415926535897931
40
3.1415926535897931
40
3.1415926535897931
40
3.1415926535897931
10
752.92928932188488
20
15.594604099288565
30
0
10
752.97624799798302
20
15.561993907553775
30
0
10
753.02320667408117
20
15.529383765581633
30
0
10
753.0701653501792
20
15.496929502584569
30
0
10
753.77718891094264
20
15.008288627400114
30
0
10
754.48421247170609
20
14.594604099288627
30
0
10
755.19123603246965
20
14.594604099288631
30
0
0
LINE
5
129
100
AcDbEntity
8
OUTER_PROFILES
100
AcDbLine
10
755.19123603246965
20
14.594604099288631
30
0
11
761.19123603246851
21
14.594604099287166
31
0
0
SPLINE
5
130
100
AcDbEntity
8
OUTER_PROFILES
100
AcDbSpline
70
0
71
3
72
11
73
7
74
0
42
0.000000001
43
0.0000000001
44
0.0000000001
40
-3.1415926535897931
40
-3.1415926535897931
40
-3.1415926535897931
40
-3.1415926535897931
40
-3.0437620783853925
40
-3.0437620783853925
40
-3.0437620783853925
40
-1.5707963267948684
40
-1.5707963267948684
40
-1.5707963267948684
40
-1.5707963267948684
10
761.19123603246851
20
14.594604099287166
30
0
10
761.23819470856665
20
14.594604099287166
30
0
10
761.28515338466468
20
14.596200507208222
30
0
10
761.33211206076282
20
14.599385694534346
30
0
10
762.03913562152616
20
14.647342806449474
30
0
10
762.74615918228972
20
15.103615515423602
30
0
10
763.45318274305316
20
15.594604099287118
30
0
0
LINE
5
131
100
AcDbEntity
8
OUTER_PROFILES
100
AcDbLine
10
763.45318274305316
20
15.594604099287118
30
0
11
768.45318274304998
21
20.594604099287707
31
0
0
LINE
5
132
100
AcDbEntity
8
OUTER_PROFILES
100
AcDbLine
10
768.45318274304998
20
20.594604099287707
30
0
11
768.45318274304555
21
1018.453182743051
31
0
0
LINE
5
133
100
AcDbEntity
8
OUTER_PROFILES
100
AcDbLine
10
768.45318274304555
20
1018.453182743051
30
0
11
763.45318274304543
21
1023.4531827430504
31
0
0
SPLINE
5
134
100
AcDbEntity
8
OUTER_PROFILES
100
AcDbSpline
70
0
71
3
72
11
73
7
74
0
42
0.000000001
43
0.0000000001
44
0.0000000001
40
1.5707963267948684
40
1.5707963267948684
40
1.5707963267948684
40
1.5707963267948684
40
3.0437620783853943
40
3.0437620783853943
40
3.0437620783853943
40
3.1415926535897931
40
3.1415926535897931
40
3.1415926535897931
40
3.1415926535897931
10
763.45318274304464
20
1023.4531827430504
30
0
10
762.74615918228119
20
1023.944171326914
30
0
10
762.03913562151774
20
1024.4004440358881
30
0
10
761.3321120607543
20
1024.4484011478035
30
0
10
761.28515338465616
20
1024.4515863351294
30
0
10
761.23819470855801
20
1024.4531827430505
30
0
10
761.19123603245998
20
1024.4531827430505
30
0
0
LINE
5
135
100
AcDbEntity
8
OUTER_PROFILES
100
AcDbLine
10
761.19123603245998
20
1024.4531827430505
30
0
11
755.19123603246135
21
1024.4531827430503
31
0
0
SPLINE
5
136
100
AcDbEntity
8
OUTER_PROFILES
100
AcDbSpline
70
0
71
3
72
11
73
7
74
0
42
0.000000001
43
0.0000000001
44
0.0000000001
40
-3.1415926535897931
40
-3.1415926535897931
40
-3.1415926535897931
40
-3.1415926535897931
40
-1.6686269019992677
40
-1.6686269019992677
40
-1.6686269019992677
40
-1.5707963267948966
40
-1.5707963267948966
40
-1.5707963267948966
40
-1.5707963267948966
10
755.19123603246794
20
1024.4531827430505
30
0
10
754.48421247170461
20
1024.4531827430505
30
0
10
753.77718891094105
20
1024.0394982149387
30
0
10
753.07016535017749
20
1023.5508573397544
30
0
10
753.02320667407935
20
1023.5184030767574
30
0
10
752.97624799798143
20
1023.4857929347852
30
0
10
752.92928932188329
20
1023.4531827430504
30
0
0
LINE
5
137
100
AcDbEntity
8
OUTER_PROFILES
100
AcDbLine
10
752.92928932188329
20
1023.4531827430503
30
0
11
752.85857864375885
21
1023.5238934211685
31
0
0
SPLINE
5
138
100
AcDbEntity
8
OUTER_PROFILES
100
AcDbSpline
70
0
71
3
72
11
73
7
74
0
42
0.000000001
43
0.0000000001
44
0.0000000001
40
1.5707963267948966
40
1.5707963267948966
40
1.5707963267948966
40
1.5707963267948966
40
1.6686269019992681
40
1.6686269019992681
40
1.6686269019992681
40
3.1415926535897931
40
3.1415926535897931
40
3.1415926535897931
40
3.1415926535897931
10
752.85857864375885
20
1023.5238934211735
30
0
10
752.89118883549361
20
1023.5708520972717
30
0
10
752.92379897746582
20
1023.6178107733696
30
0
10
752.95625324046284
20
1023.6647694494678
30
0
10
753.44489411564734
20
1024.3717930102312
30
0
10
753.85857864375896
20
1025.0788165709946
30
0
10
753.85857864375885
20
1025.7858401317581
30
0
0
LINE
5
139
100
AcDbEntity
8
OUTER_PROFILES
100
AcDbLine
10
753.85857864375885
20
1025.7858401317581
30
0
11
753.85857864375771
21
1031.7858401317553
31
0
0
ENDSEC
0
SECTION
2
OBJECTS
0
DICTIONARY
5
C
100
AcDbDictionary
3
ACAD_GROUP
350
D
3
ACAD_MLINESTYLE
350
17
0
DICTIONARY
5
D
100
AcDbDictionary
0
DICTIONARY
5
1A
330
C
100
AcDbDictionary
0
DICTIONARY
5
17
100
AcDbDictionary
0
ENDSEC
0
EOF
