0
SECTION
2
HEADER
9
$INSUNITS
70
4
9
$ACADVER
1
AC1014
9
$HANDSEED
5
FFFF
0
ENDSEC
0
SECTION
2
TABLES
0
TABLE
2
VPORT
5
8
100
AcDbSymbolTable
0
ENDTAB
0
TABLE
2
LTYPE
5
5
100
AcDbSymbolTable
0
LTYPE
5
14
100
AcDbSymbolTableRecord
100
AcDbLinetypeTableRecord
2
BYBLOCK
70
0
0
LTYPE
5
15
100
AcDbSymbolTableRecord
100
AcDbLinetypeTableRecord
2
BYLAYER
70
0
0
LTYPE
5
16
100
AcDbSymbolTableRecord
100
AcDbLinetypeTableRecord
2
DASHED
70
0
3
Dashed __ __ __ __ __ __ __ __ __ __ __ __ __ _
72
65
73
2
40
0.75
49
0.5
74
0
49
-0.25
74
0
0
ENDTAB
0
TABLE
2
LAYER
5
2
100
AcDbSymbolTable
70
2
0
LAYER
5
50
100
AcDbSymbolTableRecord
100
AcDbLayerTableRecord
2
0
70
0
62
7
6
CONTINUOUS
0
ENDTAB
0
TABLE
2
STYLE
5
3
100
AcDbSymbolTable
70
1
0
STYLE
5
11
100
AcDbSymbolTableRecord
100
AcDbTextStyleTableRecord
2
STANDARD
70
0
0
ENDTAB
0
TABLE
2
VIEW
5
6
100
AcDbSymbolTable
70
0
0
ENDTAB
0
TABLE
2
UCS
5
7
100
AcDbSymbolTable
70
0
0
ENDTAB
0
TABLE
2
APPID
5
9
100
AcDbSymbolTable
70
2
0
APPID
5
12
100
AcDbSymbolTableRecord
100
AcDbRegAppTableRecord
2
ACAD
70
0
0
ENDTAB
0
TABLE
2
DIMSTYLE
5
A
100
AcDbSymbolTable
70
1
0
ENDTAB
0
TABLE
2
BLOCK_RECORD
5
1
100
AcDbSymbolTable
70
1
0
BLOCK_RECORD
5
1F
100
AcDbSymbolTableRecord
100
AcDbBlockTableRecord
2
*MODEL_SPACE
0
BLOCK_RECORD
5
1B
100
AcDbSymbolTableRecord
100
AcDbBlockTableRecord
2
*PAPER_SPACE
0
ENDTAB
0
ENDSEC
0
SECTION
2
BLOCKS
0
BLOCK
5
20
100
AcDbEntity
100
AcDbBlockBegin
2
*MODEL_SPACE
0
ENDBLK
5
21
100
AcDbEntity
100
AcDbBlockEnd
0
BLOCK
5
1C
100
AcDbEntity
100
AcDbBlockBegin
2
*PAPER_SPACE
0
ENDBLK
5
1D
100
AcDbEntity
100
AcDbBlockEnd
0
ENDSEC
0
SECTION
2
ENTITIES
0
LWPOLYLINE
5
100
100
AcDbEntity
8
OUTER_PROFILES
100
AcDbPolyline
90
32
70
1
43
0.0
10
837.51389342118216
20
94.623893420800016
10
818.25194671058898
20
94.623893420800016
10
818.25194671058898
20
94.523893420800036
10
819.15194671058475
20
94.523893420800036
10
819.15194671058453
20
58.523893420799951
42
-0.41421356237309503
10
818.25194671058466
20
57.623893420800059
10
799.98000000000002
20
57.623893420800201
10
799.9799999999999
20
0
10
0
20
0
10
7.5495165674510645e-14
20
57.623893420800272
10
-18.271946710588921
20
57.62389342080013
42
-0.41421356237309503
10
-19.171946710588813
20
58.523893420800022
10
-19.171946710588866
20
94.523893420800107
10
-18.271946710588892
20
94.523893420800107
10
-18.27194671058885
20
94.623893420800087
10
-37.533893421182249
20
94.623893420800087
10
-37.533893421182228
20
443.42389342080048
10
-18.271946710588828
20
443.42389342080048
10
-18.271946710588871
20
443.52389342080045
10
-19.171946710588848
20
443.52389342080045
10
-19.171946710588781
20
479.52389342080062
42
-0.41421356237309503
10
-18.271946710588889
20
480.42389342080048
10
1.0658141036401503e-13
20
480.42389342080025
10
2.8421709430404007e-13
20
538.04778684161329
10
799.98000000000002
20
538.04778684160988
10
799.9799999999999
20
480.4238934208002
10
818.25194671058466
20
480.42389342080043
42
-0.41421356237309503
10
819.15194671058453
20
479.5238934208005
10
819.15194671058453
20
443.52389342080045
10
818.25194671058898
20
443.52389342080045
10
818.25194671058898
20
443.42389342080037
10
837.51389342118216
20
443.42389342080037
0
CIRCLE
5
101
100
AcDbEntity
8
INTERIOR_PROFILES
100
AcDbCircle
10
-829.51389342118205
20
424.02389342080022
30
0
40
1.7000000000000171
210
0
220
0
230
-1
0
CIRCLE
5
102
100
AcDbEntity
8
INTERIOR_PROFILES
100
AcDbCircle
10
-829.51389342118205
20
269.02389342080022
30
0
40
1.7000000000000171
210
0
220
0
230
-1
0
CIRCLE
5
103
100
AcDbEntity
8
INTERIOR_PROFILES
100
AcDbCircle
10
34.533893421182405
20
269.02389342080022
30
0
40
1.7000000000000171
210
0
220
0
230
-1
0
CIRCLE
5
104
100
AcDbEntity
8
INTERIOR_PROFILES
100
AcDbCircle
10
34.53389342118242
20
114.02389342080028
30
0
40
1.6999999999999993
210
0
220
0
230
-1
0
CIRCLE
5
105
100
AcDbEntity
8
INTERIOR_PROFILES
100
AcDbCircle
10
-834.51389342118205
20
269.02389342080022
30
0
40
1.7000000000000171
210
0
220
0
230
-1
0
CIRCLE
5
106
100
AcDbEntity
8
INTERIOR_PROFILES
100
AcDbCircle
10
-299.9899999999999
20
3.0000000000036664
30
0
40
1.2645
210
0
220
0
230
-1
0
CIRCLE
5
107
100
AcDbEntity
8
INTERIOR_PROFILES
100
AcDbCircle
10
34.533893421182398
20
424.02389342080022
30
0
40
1.7000000000000171
210
0
220
0
230
-1
0
CIRCLE
5
108
100
AcDbEntity
8
INTERIOR_PROFILES
100
AcDbCircle
10
-299.99000000000035
20
535.0477868416092
30
0
40
1.264499999999984
210
0
220
0
230
-1
0
CIRCLE
5
109
100
AcDbEntity
8
INTERIOR_PROFILES
100
AcDbCircle
10
-699.99000000000035
20
535.04778684160578
30
0
40
1.264499999999984
210
0
220
0
230
-1
0
CIRCLE
5
110
100
AcDbEntity
8
INTERIOR_PROFILES
100
AcDbCircle
10
-829.51389342118205
20
114.02389342080021
30
0
40
1.6999999999999993
210
0
220
0
230
-1
0
CIRCLE
5
111
100
AcDbEntity
8
INTERIOR_PROFILES
100
AcDbCircle
10
-499.99000000000029
20
535.0477868416076
30
0
40
1.264499999999984
210
0
220
0
230
-1
0
CIRCLE
5
112
100
AcDbEntity
8
INTERIOR_PROFILES
100
AcDbCircle
10
-834.51389342118205
20
114.02389342080021
30
0
40
1.6999999999999993
210
0
220
0
230
-1
0
CIRCLE
5
113
100
AcDbEntity
8
INTERIOR_PROFILES
100
AcDbCircle
10
-399.99000000000029
20
535.04778684160851
30
0
40
1.264499999999984
210
0
220
0
230
-1
0
CIRCLE
5
114
100
AcDbEntity
8
INTERIOR_PROFILES
100
AcDbCircle
10
29.533893421182405
20
269.02389342080022
30
0
40
1.7000000000000171
210
0
220
0
230
-1
0
CIRCLE
5
115
100
AcDbEntity
8
INTERIOR_PROFILES
100
AcDbCircle
10
-10.999999999999876
20
47.261946710213323
30
0
40
8.75
210
0
220
0
230
-1
0
CIRCLE
5
116
100
AcDbEntity
8
INTERIOR_PROFILES
100
AcDbCircle
10
-834.51389342118205
20
424.02389342080022
30
0
40
1.7000000000000171
210
0
220
0
230
-1
0
CIRCLE
5
117
100
AcDbEntity
8
INTERIOR_PROFILES
100
AcDbCircle
10
-99.990000000000492
20
535.04778684161101
30
0
40
1.264499999999984
210
0
220
0
230
-1
0
CIRCLE
5
118
100
AcDbEntity
8
INTERIOR_PROFILES
100
AcDbCircle
10
29.53389342118242
20
114.02389342080028
30
0
40
1.6999999999999993
210
0
220
0
230
-1
0
CIRCLE
5
119
100
AcDbEntity
8
INTERIOR_PROFILES
100
AcDbCircle
10
-499.99000000000001
20
3.0000000000027427
30
0
40
1.2645
210
0
220
0
230
-1
0
CIRCLE
5
120
100
AcDbEntity
8
INTERIOR_PROFILES
100
AcDbCircle
10
-99.989999999999981
20
3.0000000000045191
30
0
40
1.2645
210
0
220
0
230
-1
0
CIRCLE
5
121
100
AcDbEntity
8
INTERIOR_PROFILES
100
AcDbCircle
10
-399.9899999999999
20
3.000000000003098
30
0
40
1.2645
210
0
220
0
230
-1
0
CIRCLE
5
122
100
AcDbEntity
8
INTERIOR_PROFILES
100
AcDbCircle
10
-699.99000000000012
20
3.00000000000189
30
0
40
1.2645
210
0
220
0
230
-1
0
CIRCLE
5
123
100
AcDbEntity
8
INTERIOR_PROFILES
100
AcDbCircle
10
29.533893421182395
20
424.02389342080022
30
0
40
1.7000000000000171
210
0
220
0
230
-1
0
CIRCLE
5
124
100
AcDbEntity
8
INTERIOR_PROFILES
100
AcDbCircle
10
-10.999999999999908
20
490.7858401313872
30
0
40
8.75
210
0
220
0
230
-1
0
LINE
5
125
100
AcDbEntity
8
BEND
100
AcDbLine
10
799.97999999999956
20
500.91681348649729
30
3.247484453808463e-11
11
1.4210854715202004e-13
21
500.91681348649735
31
3.2689805533386825e-11
0
LINE
5
126
100
AcDbEntity
8
BEND
100
AcDbLine
10
819.3829200658854
20
94.623893420799945
30
3.2300465546186549e-11
11
819.3829200658854
21
443.42389342080037
31
3.2268135370181423e-11
0
LINE
5
127
100
AcDbEntity
8
BEND
100
AcDbLine
10
-19.402920065885525
20
443.42389342080054
30
3.1222307623061664e-11
11
-19.402920065885546
21
94.623893420800087
31
3.1223197497700422e-11
0
LINE
5
128
100
AcDbEntity
8
BEND
100
AcDbLine
10
799.12097335529256
20
56.261946710215724
30
3.1628109053465774e-11
11
799.12097335529256
21
480.65486677609249
31
3.1627876682543494e-11
0
LINE
5
129
100
AcDbEntity
8
BEND
100
AcDbLine
10
799.12097335529256
20
480.65486677609249
30
3.1627876682543494e-11
11
1.4210854715202004e-13
21
480.6548667760926
31
3.1565215589125662e-11
0
LINE
5
130
100
AcDbEntity
8
BEND
100
AcDbLine
10
0.85902664470776158
20
481.78584013138493
30
3.1565392181749045e-11
11
0.85902664470773094
21
57.39292006550798
31
3.1605683659677253e-11
0
LINE
5
131
100
AcDbEntity
8
BEND
100
AcDbLine
10
0.85902664470773094
20
57.39292006550798
30
3.1605683659677253e-11
11
799.98000000000002
21
57.392920065507909
31
3.162811673196867e-11
0
LINE
5
132
100
AcDbEntity
8
BEND
100
AcDbLine
10
-2.1038726316646716e-13
20
37.130973355108878
30
3.1507898653738956e-11
11
799.9799999999999
21
37.130973355108807
31
3.1582147410324378e-11
0
LINE
5
133
100
AcDbEntity
8
BEND_EXTENT
100
AcDbLine
10
820.51389342118205
20
443.42389342080037
30
3.2346545223654069e-11
11
820.51389342118205
21
94.623893420799945
31
3.2275490950078059e-11
0
LINE
5
134
100
AcDbEntity
8
BEND_EXTENT
100
AcDbLine
10
818.25194671058898
20
94.623893420800016
30
3.2266709621516463e-11
11
818.25194671058898
21
443.42389342080037
31
3.2266709621516463e-11
0
LINE
5
135
100
AcDbEntity
8
BEND_EXTENT
100
AcDbLine
10
-20.533893421182078
20
94.623893420800087
30
3.1229265170302401e-11
11
-20.533893421182054
21
443.42389342080054
31
3.1158210896726391e-11
0
LINE
5
136
100
AcDbEntity
8
BEND_EXTENT
100
AcDbLine
10
-18.271946710588828
20
443.42389342080048
30
3.109593795171199e-11
11
-18.27194671058885
21
94.623893420800087
31
3.123804649886401e-11
0
LINE
5
137
100
AcDbEntity
8
BEND_EXTENT
100
AcDbLine
10
800.25194671058466
20
480.42389342080008
30
3.1628020559879129e-11
11
800.25194671058466
21
57.623893420800059
31
3.1628020559879129e-11
0
LINE
5
138
100
AcDbEntity
8
BEND_EXTENT
100
AcDbLine
10
-0.27194671058454439
20
57.62389342080013
30
3.1521464192621287e-11
11
-0.27194671058451386
21
480.42389342080043
31
3.1521464192621287e-11
0
LINE
5
139
100
AcDbEntity
8
BEND_EXTENT
100
AcDbLine
10
1.074140776324839e-13
20
502.04778684160664
30
3.1463720517876936e-11
11
799.97999999999979
21
502.04778684160658
31
3.1294965729955425e-11
0
LINE
5
140
100
AcDbEntity
8
BEND_EXTENT
100
AcDbLine
10
799.9799999999999
20
499.78584013138811
30
3.1912249731647012e-11
11
0
21
499.78584013138823
31
3.2089886303765525e-11
0
LINE
5
141
100
AcDbEntity
8
BEND_EXTENT
100
AcDbLine
10
799.9799999999999
20
36.000000000005059
30
3.0380141957664296e-11
11
-1.4210854715202004e-13
21
36.000000000005059
31
3.0273561435478769e-11
0
LINE
5
142
100
AcDbEntity
8
BEND_EXTENT
100
AcDbLine
10
-6.8278716014447127e-14
20
38.261946710212413
30
3.0953017926549364e-11
11
799.9799999999999
21
38.261946710212342
31
3.1059598448734892e-11
0
LINE
5
143
100
AcDbEntity
8
BEND_EXTENT
100
AcDbLine
10
-1.7819079545233762e-13
20
481.78584013138482
30
3.1734614935885475e-11
11
799.97999999999956
21
481.78584013138482
31
3.1521451226978957e-11
0
LINE
5
144
100
AcDbEntity
8
BEND_EXTENT
100
AcDbLine
10
799.97999999999979
20
56.261946710215653
30
3.1628032637342972e-11
11
-1.4210854715202004e-13
21
56.261946710215724
31
3.1592506388733455e-11
0
LWPOLYLINE
5
145
100
AcDbEntity
8
BEND_EXTENT
100
AcDbPolyline
90
4
70
1
43
0.0
10
1.9900000000000864
20
479.52389342080028
10
1.9900000000000559
20
58.523893420800306
10
797.9899999999999
20
58.523893420800235
10
797.9899999999999
20
479.52389342080016
0
ENDSEC
0
SECTION
2
OBJECTS
0
DICTIONARY
5
C
100
AcDbDictionary
3
ACAD_GROUP
350
D
3
ACAD_MLINESTYLE
350
17
0
DICTIONARY
5
D
100
AcDbDictionary
0
DICTIONARY
5
1A
330
C
100
AcDbDictionary
0
DICTIONARY
5
17
100
AcDbDictionary
0
ENDSEC
0
EOF
