0
SECTION
2
HEADER
9
$INSUNITS
70
4
9
$ACADVER
1
AC1014
9
$HANDSEED
5
FFFF
0
ENDSEC
0
SECTION
2
TABLES
0
TABLE
2
VPORT
5
8
100
AcDbSymbolTable
0
ENDTAB
0
TABLE
2
LTYPE
5
5
100
AcDbSymbolTable
0
LTYPE
5
14
100
AcDbSymbolTableRecord
100
AcDbLinetypeTableRecord
2
BYBLOCK
70
0
0
LTYPE
5
15
100
AcDbSymbolTableRecord
100
AcDbLinetypeTableRecord
2
BYLAYER
70
0
0
LTYPE
5
16
100
AcDbSymbolTableRecord
100
AcDbLinetypeTableRecord
2
DASHED
70
0
3
Dashed __ __ __ __ __ __ __ __ __ __ __ __ __ _
72
65
73
2
40
0.75
49
0.5
74
0
49
-0.25
74
0
0
ENDTAB
0
TABLE
2
LAYER
5
2
100
AcDbSymbolTable
70
2
0
LAYER
5
50
100
AcDbSymbolTableRecord
100
AcDbLayerTableRecord
2
0
70
0
62
7
6
CONTINUOUS
0
ENDTAB
0
TABLE
2
STYLE
5
3
100
AcDbSymbolTable
70
1
0
STYLE
5
11
100
AcDbSymbolTableRecord
100
AcDbTextStyleTableRecord
2
STANDARD
70
0
0
ENDTAB
0
TABLE
2
VIEW
5
6
100
AcDbSymbolTable
70
0
0
ENDTAB
0
TABLE
2
UCS
5
7
100
AcDbSymbolTable
70
0
0
ENDTAB
0
TABLE
2
APPID
5
9
100
AcDbSymbolTable
70
2
0
APPID
5
12
100
AcDbSymbolTableRecord
100
AcDbRegAppTableRecord
2
ACAD
70
0
0
ENDTAB
0
TABLE
2
DIMSTYLE
5
A
100
AcDbSymbolTable
70
1
0
ENDTAB
0
TABLE
2
BLOCK_RECORD
5
1
100
AcDbSymbolTable
70
1
0
BLOCK_RECORD
5
1F
100
AcDbSymbolTableRecord
100
AcDbBlockTableRecord
2
*MODEL_SPACE
0
BLOCK_RECORD
5
1B
100
AcDbSymbolTableRecord
100
AcDbBlockTableRecord
2
*PAPER_SPACE
0
ENDTAB
0
ENDSEC
0
SECTION
2
BLOCKS
0
BLOCK
5
20
100
AcDbEntity
100
AcDbBlockBegin
2
*MODEL_SPACE
0
ENDBLK
5
21
100
AcDbEntity
100
AcDbBlockEnd
0
BLOCK
5
1C
100
AcDbEntity
100
AcDbBlockBegin
2
*PAPER_SPACE
0
ENDBLK
5
1D
100
AcDbEntity
100
AcDbBlockEnd
0
ENDSEC
0
SECTION
2
ENTITIES
0
LWPOLYLINE
5
100
100
AcDbEntity
8
OUTER_PROFILES
100
AcDbPolyline
90
24
70
1
43
0.0
10
473.55483992939617
20
7.2619467105845104
10
455.13097335528988
20
25.685813284691029
42
-0.41421356237308493
10
455.13097335528983
20
27.100026847064122
10
474.26194671058158
20
46.23100020235583
10
474.26194671058511
20
350.81678663998196
10
455.13097335529255
20
369.94775999527548
42
-0.41421356237306561
10
455.13097335529255
20
371.36197355764853
10
473.55483992939725
20
389.78584013175384
10
453.99999999999989
20
389.78584013175384
10
453.99999999999983
20
397.04778684233816
10
2.1316282072803006e-13
20
397.04778684233804
10
2.8905683183416094e-13
20
389.78584013175362
10
-19.554839929397168
20
389.78584013175373
10
-1.1309733552913472
20
371.36197355764739
42
-0.41421356237306994
10
-1.1309733552913472
20
369.94775999527434
10
-20.261946710583278
20
350.81678663998184
10
-20.26194671058542
20
46.231000202355901
10
-1.1309733552928034
20
27.100026847063145
42
-0.41421356237309731
10
-1.1309733552928032
20
25.685813284690045
10
-19.554839929398071
20
7.2619467105846525
10
-6.6613381477509392e-14
20
7.2619467105846525
10
2.6433151212145664e-25
20
0
10
453.99999999999795
20
0
10
453.99999999999795
20
7.2619467105846525
0
CIRCLE
5
101
100
AcDbEntity
8
INTERIOR_PROFILES
100
AcDbCircle
10
-465.26194671049871
20
198.52389342116876
30
0
40
1.7000000000000171
210
0
220
0
230
-1
0
CIRCLE
5
102
100
AcDbEntity
8
INTERIOR_PROFILES
100
AcDbCircle
10
11.261946710499743
20
198.52389342116874
30
0
40
1.7000000000000171
210
0
220
0
230
-1
0
LINE
5
103
100
AcDbEntity
8
BEND
100
AcDbLine
10
455.13097335528983
20
27.100026847064029
30
-7.7681916540628115e-12
11
455.13097335529164
21
369.94775999527604
31
-1.0404510975648651e-10
0
LINE
5
104
100
AcDbEntity
8
BEND
100
AcDbLine
10
454.83808013647899
20
370.65486677646163
30
-1.0500168366190321e-10
11
-0.83808013647811208
21
370.65486677646135
31
-1.0352401953159279e-10
0
LINE
5
105
100
AcDbEntity
8
BEND
100
AcDbLine
10
-2.0976319290593926e-13
20
6.1309733552923262
30
-1.99158948333605e-12
11
453.99999999999795
21
6.1309733552923262
31
-1.9704253500931473e-12
0
LINE
5
106
100
AcDbEntity
8
BEND
100
AcDbLine
10
-1.1309733552915582
20
369.9477599952744
30
-1.0399971707397452e-10
11
-1.1309733552917423
21
27.100026847061969
31
-7.6227687460848596e-12
0
LINE
5
107
100
AcDbEntity
8
BEND
100
AcDbLine
10
455.1309733552921
20
371.36197355764801
30
-1.0494277037511171e-10
11
455.1309733552921
21
389.78584013175384
31
-1.1079372998807224e-10
0
LINE
5
108
100
AcDbEntity
8
BEND
100
AcDbLine
10
-1.1309733552919419
20
389.78584013175362
30
-1.1081845248199824e-10
11
-1.1309733552919323
21
371.36197355764796
31
-1.0511617132802451e-10
0
LINE
5
109
100
AcDbEntity
8
BEND
100
AcDbLine
10
455.13097335529028
20
7.2619467105845814
30
-2.275873224230524e-12
11
455.13097335529028
21
25.685813284690582
31
-7.9559629027258122e-12
0
LINE
5
110
100
AcDbEntity
8
BEND
100
AcDbLine
10
-1.1309733552923902
20
25.685813284690582
30
-8.0212618151516061e-12
11
-1.1309733552923902
21
7.2619467105845814
31
-2.2628518716290803e-12
0
LINE
5
111
100
AcDbEntity
8
BEND
100
AcDbLine
10
-0.83808013647943158
20
26.392920065876879
30
-8.3865520487578021e-12
11
454.83808013647638
21
26.392920065876879
31
-7.1275166811320878e-12
0
LINE
5
112
100
AcDbEntity
8
BEND
100
AcDbLine
10
454.00000000000006
20
390.91681348704606
30
-1.1089931943490707e-10
11
2.8421709430404007e-13
21
390.91681348704583
31
-1.1093925763704144e-10
0
LINE
5
113
100
AcDbEntity
8
BEND_EXTENT
100
AcDbLine
10
2.1906147224850216e-13
20
392.04778684233804
30
-1.112717720057079e-10
11
454.00000000000006
21
392.04778684233827
31
-1.1134344684062526e-10
0
LWPOLYLINE
5
114
100
AcDbEntity
8
BEND_EXTENT
100
AcDbPolyline
90
4
70
1
43
0.0
10
453.99999999999989
20
389.78584013175384
10
2.8421709430404007e-13
20
389.78584013175362
10
1.0977544081645975e-12
20
371.78584013175362
10
454.00000000000085
20
371.7858401317539
0
LINE
5
115
100
AcDbEntity
8
BEND_EXTENT
100
AcDbLine
10
453.99999999999795
20
5
30
-1.604221853535078e-12
11
-2.1316282072803006e-13
21
5
31
-1.6036012921938167e-12
0
LWPOLYLINE
5
116
100
AcDbEntity
8
BEND_EXTENT
100
AcDbPolyline
90
4
70
1
43
0.0
10
-6.7654645753817013e-14
20
7.2619467105846525
10
453.99999999999795
20
7.2619467105846525
10
453.99999999999704
20
25.261946710584624
10
-1.0658141036401503e-12
20
25.261946710584624
0
LINE
5
117
100
AcDbEntity
8
BEND_EXTENT
100
AcDbLine
10
456.26194671058488
20
389.78584013175384
30
-1.1078833940807216e-10
11
456.26194671058448
21
372.49294691294045
31
-1.0525830548250911e-10
0
LINE
5
118
100
AcDbEntity
8
BEND_EXTENT
100
AcDbLine
10
-2.2619467105848621
20
7.2619467105846525
30
-2.256408350913986e-12
11
-2.2619467105847475
21
24.554839929398184
31
-7.5377523189610431e-12
0
LINE
5
119
100
AcDbEntity
8
BEND_EXTENT
100
AcDbLine
10
-2.261946710585431
20
28.231000202355645
30
-7.2908655874171065e-12
11
-2.261946710583294
21
368.81678663998264
31
-1.030887201675296e-10
0
LWPOLYLINE
5
120
100
AcDbEntity
8
BEND_EXTENT
100
AcDbPolyline
90
4
70
1
43
0.0
10
1.3746280089811105e-13
20
369.52389342116902
10
-2.2642025181782128e-14
20
27.523893421169277
10
453.99999999999807
20
27.523893421169348
10
453.99999999999989
20
369.52389342116925
0
LINE
5
121
100
AcDbEntity
8
BEND_EXTENT
100
AcDbLine
10
456.26194671058272
20
24.554839929398113
30
-7.609433337476047e-12
11
456.26194671058266
21
7.2619467105846525
31
-2.2925622326410011e-12
0
LINE
5
122
100
AcDbEntity
8
BEND_EXTENT
100
AcDbLine
10
456.26194671058522
20
368.81678663998241
30
-1.0305381977568055e-10
11
456.26194671058153
21
28.231000202355787
31
-7.3980737427201639e-12
0
LINE
5
123
100
AcDbEntity
8
BEND_EXTENT
100
AcDbLine
10
-2.2619467105842297
20
372.49294691294028
30
-1.0550636869508608e-10
11
-2.2619467105842923
21
389.78584013175362
31
-1.1092982121028511e-10
0
ENDSEC
0
SECTION
2
OBJECTS
0
DICTIONARY
5
C
100
AcDbDictionary
3
ACAD_GROUP
350
D
3
ACAD_MLINESTYLE
350
17
0
DICTIONARY
5
D
100
AcDbDictionary
0
DICTIONARY
5
1A
330
C
100
AcDbDictionary
0
DICTIONARY
5
17
100
AcDbDictionary
0
ENDSEC
0
EOF
