0
SECTION
2
HEADER
9
$INSUNITS
70
4
9
$ACADVER
1
AC1014
9
$HANDSEED
5
FFFF
0
ENDSEC
0
SECTION
2
TABLES
0
TABLE
2
VPORT
5
8
100
AcDbSymbolTable
0
ENDTAB
0
TABLE
2
LTYPE
5
5
100
AcDbSymbolTable
0
LTYPE
5
14
100
AcDbSymbolTableRecord
100
AcDbLinetypeTableRecord
2
BYBLOCK
70
0
0
LTYPE
5
15
100
AcDbSymbolTableRecord
100
AcDbLinetypeTableRecord
2
BYLAYER
70
0
0
LTYPE
5
16
100
AcDbSymbolTableRecord
100
AcDbLinetypeTableRecord
2
DASHED
70
0
3
Dashed __ __ __ __ __ __ __ __ __ __ __ __ __ _
72
65
73
2
40
0.75
49
0.5
74
0
49
-0.25
74
0
0
ENDTAB
0
TABLE
2
LAYER
5
2
100
AcDbSymbolTable
70
2
0
LAYER
5
50
100
AcDbSymbolTableRecord
100
AcDbLayerTableRecord
2
0
70
0
62
7
6
CONTINUOUS
0
ENDTAB
0
TABLE
2
STYLE
5
3
100
AcDbSymbolTable
70
1
0
STYLE
5
11
100
AcDbSymbolTableRecord
100
AcDbTextStyleTableRecord
2
STANDARD
70
0
0
ENDTAB
0
TABLE
2
VIEW
5
6
100
AcDbSymbolTable
70
0
0
ENDTAB
0
TABLE
2
UCS
5
7
100
AcDbSymbolTable
70
0
0
ENDTAB
0
TABLE
2
APPID
5
9
100
AcDbSymbolTable
70
2
0
APPID
5
12
100
AcDbSymbolTableRecord
100
AcDbRegAppTableRecord
2
ACAD
70
0
0
ENDTAB
0
TABLE
2
DIMSTYLE
5
A
100
AcDbSymbolTable
70
1
0
ENDTAB
0
TABLE
2
BLOCK_RECORD
5
1
100
AcDbSymbolTable
70
1
0
BLOCK_RECORD
5
1F
100
AcDbSymbolTableRecord
100
AcDbBlockTableRecord
2
*MODEL_SPACE
0
BLOCK_RECORD
5
1B
100
AcDbSymbolTableRecord
100
AcDbBlockTableRecord
2
*PAPER_SPACE
0
ENDTAB
0
ENDSEC
0
SECTION
2
BLOCKS
0
BLOCK
5
20
100
AcDbEntity
100
AcDbBlockBegin
2
*MODEL_SPACE
0
ENDBLK
5
21
100
AcDbEntity
100
AcDbBlockEnd
0
BLOCK
5
1C
100
AcDbEntity
100
AcDbBlockBegin
2
*PAPER_SPACE
0
ENDBLK
5
1D
100
AcDbEntity
100
AcDbBlockEnd
0
ENDSEC
0
SECTION
2
ENTITIES
0
LWPOLYLINE
5
100
100
AcDbEntity
8
OUTER_PROFILES
100
AcDbPolyline
90
16
70
1
43
0.0
10
786.85857864376317
20
0
10
786.85857864376305
20
18.332657388703311
10
805.19123603246612
20
18.332657388703453
10
805.19123603246612
20
379.19123603246578
10
788.19123603246589
20
379.19123603246589
10
785.92928932188147
20
378.26194671058454
10
786.85857864376271
20
380.52389342116908
10
786.85857864376294
20
397.52389342116919
10
-1.4210854715202004e-13
20
397.52389342116913
10
2.8421709430404007e-13
20
379.19123603246589
10
-18.332657388702955
20
379.19123603246567
10
-18.332657388703097
20
18.332657388703382
10
-1.332657388703069
20
18.33265738870324
10
0.92928932188144131
20
19.261946710584539
10
1.4210854715202004e-13
20
16.999999999999957
10
0
20
0
0
CIRCLE
5
101
100
AcDbEntity
8
INTERIOR_PROFILES
100
AcDbCircle
10
-26.929289321881527
20
319.26194671058448
30
0
40
1.7000000000000171
210
0
220
0
230
-1
0
CIRCLE
5
102
100
AcDbEntity
8
INTERIOR_PROFILES
100
AcDbCircle
10
-759.92928932188147
20
287.26194671058471
30
0
40
1.7000000000000171
210
0
220
0
230
-1
0
CIRCLE
5
103
100
AcDbEntity
8
INTERIOR_PROFILES
100
AcDbCircle
10
-759.92928932188147
20
159.26194671058477
30
0
40
5
210
0
220
0
230
-1
0
CIRCLE
5
104
100
AcDbEntity
8
INTERIOR_PROFILES
100
AcDbCircle
10
-759.92928932188147
20
319.26194671058477
30
0
40
1.7000000000000171
210
0
220
0
230
-1
0
CIRCLE
5
105
100
AcDbEntity
8
INTERIOR_PROFILES
100
AcDbCircle
10
-26.929289321881527
20
287.26194671058443
30
0
40
1.7000000000000171
210
0
220
0
230
-1
0
CIRCLE
5
106
100
AcDbEntity
8
INTERIOR_PROFILES
100
AcDbCircle
10
-26.929289321881527
20
159.26194671058448
30
0
40
5
210
0
220
0
230
-1
0
LINE
5
107
100
AcDbEntity
8
BEND
100
AcDbLine
10
-0.20168403341074281
20
379.19123603246589
30
-2.0186285236514466e-13
11
-0.2016840334106007
21
18.7973020496419
31
-1.9630457112333738e-13
0
LINE
5
108
100
AcDbEntity
8
BEND
100
AcDbLine
10
787.06026267717391
20
18.332657388703311
30
1.802726284787168e-13
11
787.06026267717357
21
378.72659137152647
31
1.7638183160945284e-13
0
LINE
5
109
100
AcDbEntity
8
BEND
100
AcDbLine
10
0.46464466094548129
20
18.130973355292213
30
-1.519331780042956e-13
11
786.85857864376305
21
18.130973355292284
31
1.3440006592228964e-13
0
LINE
5
110
100
AcDbEntity
8
BEND
100
AcDbLine
10
786.39393398281766
20
379.39292006587675
30
1.35618663320443e-13
11
2.8421709430404007e-13
21
379.39292006587664
31
-1.4627106303378353e-13
0
LINE
5
111
100
AcDbEntity
8
BEND_EXTENT
100
AcDbLine
10
1.4210854715202004e-13
20
380.52389342116902
30
-1.1546319456101625e-13
11
786.85857864376271
21
380.52389342116908
31
2.0350964419192811e-13
0
LINE
5
112
100
AcDbEntity
8
BEND_EXTENT
100
AcDbLine
10
-1.332657388703069
20
18.33265738870324
30
-1.7811573972040527e-13
11
-1.3326573887029269
21
379.19123603246601
31
-1.7811573972040527e-13
0
LWPOLYLINE
5
113
100
AcDbEntity
8
BEND_EXTENT
100
AcDbPolyline
90
4
70
1
43
0.0
10
0.92928932188144131
20
378.26194671058443
10
0.92928932188144131
20
19.26194671058461
10
785.9292893218817
20
19.26194671058461
10
785.92928932188147
20
378.2619467105846
0
LINE
5
114
100
AcDbEntity
8
BEND_EXTENT
100
AcDbLine
10
788.19123603246589
20
379.19123603246589
30
2.7948486564681903e-13
11
788.19123603246589
21
18.332657388703169
31
2.7948486564681903e-13
0
LINE
5
115
100
AcDbEntity
8
BEND_EXTENT
100
AcDbLine
10
786.85857864376305
20
16.999999999999957
30
1.7686429160092446e-13
11
1.4210854715202004e-13
21
16.999999999999957
31
-1.0658141036401496e-13
0
ENDSEC
0
SECTION
2
OBJECTS
0
DICTIONARY
5
C
100
AcDbDictionary
3
ACAD_GROUP
350
D
3
ACAD_MLINESTYLE
350
17
0
DICTIONARY
5
D
100
AcDbDictionary
0
DICTIONARY
5
1A
330
C
100
AcDbDictionary
0
DICTIONARY
5
17
100
AcDbDictionary
0
ENDSEC
0
EOF
