0
SECTION
2
HEADER
9
$INSUNITS
70
4
9
$ACADVER
1
AC1014
9
$HANDSEED
5
FFFF
0
ENDSEC
0
SECTION
2
TABLES
0
TABLE
2
VPORT
5
8
100
AcDbSymbolTable
0
ENDTAB
0
TABLE
2
LTYPE
5
5
100
AcDbSymbolTable
0
LTYPE
5
14
100
AcDbSymbolTableRecord
100
AcDbLinetypeTableRecord
2
BYBLOCK
70
0
0
LTYPE
5
15
100
AcDbSymbolTableRecord
100
AcDbLinetypeTableRecord
2
BYLAYER
70
0
0
LTYPE
5
16
100
AcDbSymbolTableRecord
100
AcDbLinetypeTableRecord
2
DASHED
70
0
3
Dashed __ __ __ __ __ __ __ __ __ __ __ __ __ _
72
65
73
2
40
0.75
49
0.5
74
0
49
-0.25
74
0
0
ENDTAB
0
TABLE
2
LAYER
5
2
100
AcDbSymbolTable
70
2
0
LAYER
5
50
100
AcDbSymbolTableRecord
100
AcDbLayerTableRecord
2
0
70
0
62
7
6
CONTINUOUS
0
ENDTAB
0
TABLE
2
STYLE
5
3
100
AcDbSymbolTable
70
1
0
STYLE
5
11
100
AcDbSymbolTableRecord
100
AcDbTextStyleTableRecord
2
STANDARD
70
0
0
ENDTAB
0
TABLE
2
VIEW
5
6
100
AcDbSymbolTable
70
0
0
ENDTAB
0
TABLE
2
UCS
5
7
100
AcDbSymbolTable
70
0
0
ENDTAB
0
TABLE
2
APPID
5
9
100
AcDbSymbolTable
70
2
0
APPID
5
12
100
AcDbSymbolTableRecord
100
AcDbRegAppTableRecord
2
ACAD
70
0
0
ENDTAB
0
TABLE
2
DIMSTYLE
5
A
100
AcDbSymbolTable
70
1
0
ENDTAB
0
TABLE
2
BLOCK_RECORD
5
1
100
AcDbSymbolTable
70
1
0
BLOCK_RECORD
5
1F
100
AcDbSymbolTableRecord
100
AcDbBlockTableRecord
2
*MODEL_SPACE
0
BLOCK_RECORD
5
1B
100
AcDbSymbolTableRecord
100
AcDbBlockTableRecord
2
*PAPER_SPACE
0
ENDTAB
0
ENDSEC
0
SECTION
2
BLOCKS
0
BLOCK
5
20
100
AcDbEntity
100
AcDbBlockBegin
2
*MODEL_SPACE
0
ENDBLK
5
21
100
AcDbEntity
100
AcDbBlockEnd
0
BLOCK
5
1C
100
AcDbEntity
100
AcDbBlockBegin
2
*PAPER_SPACE
0
ENDBLK
5
1D
100
AcDbEntity
100
AcDbBlockEnd
0
ENDSEC
0
SECTION
2
ENTITIES
0
LWPOLYLINE
5
100
100
AcDbEntity
8
OUTER_PROFILES
100
AcDbPolyline
90
32
70
1
43
0.0
10
7.1912360324662927
20
395.04778684233861
10
7.1912360324662927
20
385.78584013175396
10
7.1912360324662927
20
383.52389342116936
10
-4.0707106781181324
20
383.52389342116953
10
-4.0707106781181874
20
46.18648719132473
42
0.19891236737965845
10
-0.11665222413657195
20
36.640545645306318
10
5.4238665741062961
20
31.100026847063553
42
-0.41421356237306889
10
5.4238665741063237
20
29.685813284690518
10
-0.070710678118359738
20
24.191236032465984
10
-0.070710678118359738
20
12.332657388703305
10
5.4238665741062189
20
6.8380801364789114
42
-0.41421356237312168
10
5.4238665741062739
20
5.4238665741057526
10
0
20
0
10
1910.3824720649325
20
4.4408920985006262e-15
10
1904.9586054908264
20
5.4238665741058671
42
-0.41421356237310336
10
1904.9586054908266
20
6.8380801364789274
10
1910.4531827430512
20
12.332657388703307
10
1910.4531827430512
20
24.191236032465994
10
1904.9586054908264
20
29.685813284690539
42
-0.41421356237310247
10
1904.9586054908266
20
31.100026847063596
10
1910.4991242890694
20
36.640545645306403
42
0.1989123673796587
10
1914.453182743051
20
46.186487191324787
10
1914.453182743051
20
383.52389342116919
10
1903.1912360324666
20
383.5238934211693
10
1903.1912360324666
20
385.78584013175396
10
1903.1912360324666
20
392.78584013175396
10
1903.1912360324666
20
395.2498278712057
42
-0.35639395869260571
10
1895.1912360324663
20
405.0477868423385
10
1895.1912360324663
20
415.04778684233838
10
15.191236032466975
20
415.04778684233838
10
15.191236032466975
20
405.04778684233861
42
-0.35639395869262197
10
7.1912360324663007
20
395.2498278712057
0
CIRCLE
5
101
100
AcDbEntity
8
INTERIOR_PROFILES
100
AcDbCircle
10
-655.19123603246635
20
405.04778684233838
30
0
40
1.7000000000000171
210
0
220
0
230
-1
0
CIRCLE
5
102
100
AcDbEntity
8
INTERIOR_PROFILES
100
AcDbCircle
10
-255.19123603246641
20
405.04778684233838
30
0
40
1.7000000000001592
210
0
220
0
230
-1
0
CIRCLE
5
103
100
AcDbEntity
8
INTERIOR_PROFILES
100
AcDbCircle
10
-1505.1912360324661
20
405.04778684233838
30
0
40
1.7000000000001592
210
0
220
0
230
-1
0
CIRCLE
5
104
100
AcDbEntity
8
INTERIOR_PROFILES
100
AcDbCircle
10
-1105.1912360324663
20
405.04778684233838
30
0
40
1.7000000000000171
210
0
220
0
230
-1
0
CIRCLE
5
105
100
AcDbEntity
8
INTERIOR_PROFILES
100
AcDbCircle
10
-1405.1912360324661
20
405.04778684233838
30
0
40
1.7000000000001592
210
0
220
0
230
-1
0
CIRCLE
5
106
100
AcDbEntity
8
INTERIOR_PROFILES
100
AcDbCircle
10
-355.19123603246641
20
405.04778684233838
30
0
40
1.7000000000001592
210
0
220
0
230
-1
0
CIRCLE
5
107
100
AcDbEntity
8
INTERIOR_PROFILES
100
AcDbCircle
10
-855.19123603246635
20
405.04778684233838
30
0
40
1.7000000000000171
210
0
220
0
230
-1
0
CIRCLE
5
108
100
AcDbEntity
8
INTERIOR_PROFILES
100
AcDbCircle
10
-1205.1912360324663
20
405.04778684233838
30
0
40
1.7000000000000171
210
0
220
0
230
-1
0
CIRCLE
5
109
100
AcDbEntity
8
INTERIOR_PROFILES
100
AcDbCircle
10
-455.19123603246641
20
405.04778684233838
30
0
40
1.7000000000001592
210
0
220
0
230
-1
0
CIRCLE
5
110
100
AcDbEntity
8
INTERIOR_PROFILES
100
AcDbCircle
10
-1705.1912360324661
20
405.04778684233838
30
0
40
1.7000000000001592
210
0
220
0
230
-1
0
CIRCLE
5
111
100
AcDbEntity
8
INTERIOR_PROFILES
100
AcDbCircle
10
-1305.1912360324661
20
405.04778684233838
30
0
40
1.7000000000001592
210
0
220
0
230
-1
0
CIRCLE
5
112
100
AcDbEntity
8
INTERIOR_PROFILES
100
AcDbCircle
10
-755.19123603246635
20
405.04778684233838
30
0
40
1.7000000000000171
210
0
220
0
230
-1
0
CIRCLE
5
113
100
AcDbEntity
8
INTERIOR_PROFILES
100
AcDbCircle
10
-1605.1912360324661
20
405.04778684233838
30
0
40
1.7000000000001592
210
0
220
0
230
-1
0
CIRCLE
5
114
100
AcDbEntity
8
INTERIOR_PROFILES
100
AcDbCircle
10
-1875.1912360324668
20
405.04778684233912
30
0
40
1.6999999999998749
210
0
220
0
230
-1
0
CIRCLE
5
115
100
AcDbEntity
8
INTERIOR_PROFILES
100
AcDbCircle
10
-155.19123603246641
20
405.04778684233838
30
0
40
1.7000000000001592
210
0
220
0
230
-1
0
CIRCLE
5
116
100
AcDbEntity
8
INTERIOR_PROFILES
100
AcDbCircle
10
-55.191236032466406
20
405.04778684233838
30
0
40
1.7000000000001592
210
0
220
0
230
-1
0
CIRCLE
5
117
100
AcDbEntity
8
INTERIOR_PROFILES
100
AcDbCircle
10
-1005.1912360324662
20
405.04778684233838
30
0
40
1.7000000000000171
210
0
220
0
230
-1
0
CIRCLE
5
118
100
AcDbEntity
8
INTERIOR_PROFILES
100
AcDbCircle
10
-935.19123603246601
20
405.04778684233776
30
0
40
1.7000000000000171
210
0
220
0
230
-1
0
CIRCLE
5
119
100
AcDbEntity
8
INTERIOR_PROFILES
100
AcDbCircle
10
-1805.1912360324661
20
405.04778684233838
30
0
40
1.7000000000001592
210
0
220
0
230
-1
0
CIRCLE
5
120
100
AcDbEntity
8
INTERIOR_PROFILES
100
AcDbCircle
10
-555.19123603246635
20
405.04778684233838
30
0
40
1.7000000000001592
210
0
220
0
230
-1
0
CIRCLE
5
121
100
AcDbEntity
8
INTERIOR_PROFILES
100
AcDbCircle
10
-455.19123603246641
20
18.261946710584827
30
0
40
5
210
0
220
0
230
-1
0
CIRCLE
5
122
100
AcDbEntity
8
INTERIOR_PROFILES
100
AcDbCircle
10
-30.191236032460722
20
2.5000000000004041
30
0
40
1.25
210
0
220
0
230
-1
0
CIRCLE
5
123
100
AcDbEntity
8
INTERIOR_PROFILES
100
AcDbCircle
10
-1405.1912360324636
20
18.261946710584709
30
0
40
5
210
0
220
0
230
-1
0
CIRCLE
5
124
100
AcDbEntity
8
INTERIOR_PROFILES
100
AcDbCircle
10
-875.19123603246612
20
2.5000000000000044
30
0
40
1.25
210
0
220
0
230
-1
0
CIRCLE
5
125
100
AcDbEntity
8
INTERIOR_PROFILES
100
AcDbCircle
10
-935.19123603246112
20
2.5000000000004308
30
0
40
1.25
210
0
220
0
230
-1
0
CIRCLE
5
126
100
AcDbEntity
8
INTERIOR_PROFILES
100
AcDbCircle
10
-1875.1912360324661
20
2.5000000000000044
30
0
40
1.25
210
0
220
0
230
-1
0
LINE
5
127
100
AcDbEntity
8
BEND
100
AcDbLine
10
6.0602626771736823
20
383.52389342116953
30
1.0928002561102344e-11
11
6.0602626771736823
21
30.392920065876936
31
1.0770269817763445e-12
0
LINE
5
128
100
AcDbEntity
8
BEND
100
AcDbLine
10
6.0602626771736823
20
30.392920065876936
30
1.0770269817763445e-12
11
6.0602626771733981
21
6.1309733552923262
31
3.4711878911080943e-13
0
LINE
5
129
100
AcDbEntity
8
BEND
100
AcDbLine
10
6.0602626771733981
20
6.1309733552923262
30
3.4711878911080943e-13
11
6.0602626771733981
21
4.4408920985006262e-15
31
3.9301895071730552e-13
0
LINE
5
130
100
AcDbEntity
8
BEND
100
AcDbLine
10
1904.3222093877589
20
4.4408920985006262e-15
30
1.6459056340067958e-13
11
1904.3222093877589
21
6.1309733552923262
31
4.0310108487596175e-13
0
LINE
5
131
100
AcDbEntity
8
BEND
100
AcDbLine
10
1904.3222093877589
20
6.1309733552923262
30
4.0310108487596175e-13
11
1904.3222093877589
21
30.392920065876904
31
1.1222386967460657e-12
0
LINE
5
132
100
AcDbEntity
8
BEND
100
AcDbLine
10
1904.3222093877589
20
30.392920065876904
30
1.1222386967460657e-12
11
1904.3222093877589
21
383.52389342116919
31
1.0928002561102338e-11
0
LINE
5
133
100
AcDbEntity
8
BEND
100
AcDbLine
10
1903.1912360324666
20
393.91681348704623
30
1.1433920896596016e-11
11
7.1912360324662927
21
393.91681348704623
31
1.1433920896596016e-11
0
LINE
5
134
100
AcDbEntity
8
BEND
100
AcDbLine
10
1904.665712272013
20
30.392920065876904
30
1.0770269817763447e-12
11
5.7167597929193903
21
30.392920065876904
31
1.1205805693713487e-12
0
LINE
5
135
100
AcDbEntity
8
BEND
100
AcDbLine
10
1904.665712272013
20
6.1309733552923262
30
3.4711878911080943e-13
11
5.7167597929193903
21
6.1309733552923262
31
4.3545374465291405e-13
0
LINE
5
136
100
AcDbEntity
8
BEND
100
AcDbLine
10
1903.1912360324666
20
384.65486677646163
30
1.1035608897903572e-11
11
7.1912360324662927
21
384.65486677646163
31
1.1035608897903572e-11
0
LINE
5
137
100
AcDbEntity
8
BEND_EXTENT
100
AcDbLine
10
7.1912360324662927
20
395.04778684233861
30
1.144438271874255e-11
11
1903.1912360324666
21
395.04778684233861
31
1.144438271874255e-11
0
LINE
5
138
100
AcDbEntity
8
BEND_EXTENT
100
AcDbLine
10
1905.4531827430512
20
383.52389342116936
30
1.0927950372840054e-11
11
1905.4531827430512
21
31.594604099288048
31
1.1085310364505523e-12
0
LWPOLYLINE
5
139
100
AcDbEntity
8
BEND_EXTENT
100
AcDbPolyline
90
4
70
1
43
0.0
10
1903.1912360324666
20
31.523893421169301
10
1903.1912360324666
20
383.5238934211693
10
7.1912360324662927
20
383.52389342116936
10
7.1912360324662927
20
31.523893421169333
0
LINE
5
140
100
AcDbEntity
8
BEND_EXTENT
100
AcDbLine
10
1905.4531827430512
20
4.9292893218813427
30
3.0947331899290619e-13
11
1905.4531827430512
21
4.4408920985006262e-15
31
1.6419775831747755e-13
0
LINE
5
141
100
AcDbEntity
8
BEND_EXTENT
100
AcDbLine
10
1903.1912360324666
20
4.4408920985006262e-15
30
2.2182504654051964e-13
11
1903.1912360324666
21
4.9999999999999956
31
3.6924202283414218e-13
0
LINE
5
142
100
AcDbEntity
8
BEND_EXTENT
100
AcDbLine
10
1903.1912360324666
20
4.9999999999999956
30
3.6924202283414218e-13
11
7.1912360324662927
21
4.9999999999999956
31
3.6924202283414218e-13
0
LINE
5
143
100
AcDbEntity
8
BEND_EXTENT
100
AcDbLine
10
7.1912360324662927
20
4.9999999999999956
30
3.6924202283414218e-13
11
7.1912360324662927
21
4.4408920985006262e-15
31
2.2182504654051964e-13
0
LINE
5
144
100
AcDbEntity
8
BEND_EXTENT
100
AcDbLine
10
4.929289321881356
20
7.3326573887033009
30
4.8881057354667784e-13
11
4.929289321881356
21
29.191236032465969
31
1.0987016974543597e-12
0
LWPOLYLINE
5
145
100
AcDbEntity
8
BEND_EXTENT
100
AcDbPolyline
90
4
70
1
43
0.0
10
7.1912360324662927
20
29.261946710584645
10
7.1912360324662927
20
7.261946710584648
10
1903.1912360324666
20
7.261946710584648
10
1903.1912360324666
20
29.261946710584649
0
LINE
5
146
100
AcDbEntity
8
BEND_EXTENT
100
AcDbLine
10
4.929289321881356
20
4.4408920985006262e-15
30
2.8421709430404018e-13
11
4.9292893218816403
21
4.9292893218813383
31
4.2175256052001003e-13
0
LINE
5
147
100
AcDbEntity
8
BEND_EXTENT
100
AcDbLine
10
4.9292893218816403
20
31.594604099288034
30
1.4499768047850702e-12
11
4.9292893218819245
21
383.52389342116953
31
1.126939614117458e-11
0
LINE
5
148
100
AcDbEntity
8
BEND_EXTENT
100
AcDbLine
10
1905.4531827430512
20
29.191236032465973
30
1.0326790581233151e-12
11
1905.4531827430512
21
7.3326573887032831
31
3.8230446754050215e-13
0
LINE
5
149
100
AcDbEntity
8
BEND_EXTENT
100
AcDbLine
10
7.1912360324662927
20
385.78584013175396
30
1.1048291166099359e-11
11
1903.1912360324666
21
385.78584013175396
31
1.1048291166099359e-11
0
LINE
5
150
100
AcDbEntity
8
BEND_EXTENT
100
AcDbLine
10
1903.1912360324666
20
392.78584013175396
30
1.1314657218036219e-11
11
7.1912360324662927
21
392.78584013175396
31
1.1314657218036219e-11
0
ENDSEC
0
SECTION
2
OBJECTS
0
DICTIONARY
5
C
100
AcDbDictionary
3
ACAD_GROUP
350
D
3
ACAD_MLINESTYLE
350
17
0
DICTIONARY
5
D
100
AcDbDictionary
0
DICTIONARY
5
1A
330
C
100
AcDbDictionary
0
DICTIONARY
5
17
100
AcDbDictionary
0
ENDSEC
0
EOF
