0
SECTION
2
HEADER
9
$INSUNITS
70
4
9
$ACADVER
1
AC1014
9
$HANDSEED
5
FFFF
0
ENDSEC
0
SECTION
2
TABLES
0
TABLE
2
VPORT
5
8
100
AcDbSymbolTable
0
ENDTAB
0
TABLE
2
LTYPE
5
5
100
AcDbSymbolTable
0
LTYPE
5
14
100
AcDbSymbolTableRecord
100
AcDbLinetypeTableRecord
2
BYBLOCK
70
0
0
LTYPE
5
15
100
AcDbSymbolTableRecord
100
AcDbLinetypeTableRecord
2
BYLAYER
70
0
0
LTYPE
5
16
100
AcDbSymbolTableRecord
100
AcDbLinetypeTableRecord
2
DASHED
70
0
3
Dashed __ __ __ __ __ __ __ __ __ __ __ __ __ _
72
65
73
2
40
0.75
49
0.5
74
0
49
-0.25
74
0
0
ENDTAB
0
TABLE
2
LAYER
5
2
100
AcDbSymbolTable
70
2
0
LAYER
5
50
100
AcDbSymbolTableRecord
100
AcDbLayerTableRecord
2
0
70
0
62
7
6
CONTINUOUS
0
ENDTAB
0
TABLE
2
STYLE
5
3
100
AcDbSymbolTable
70
1
0
STYLE
5
11
100
AcDbSymbolTableRecord
100
AcDbTextStyleTableRecord
2
STANDARD
70
0
0
ENDTAB
0
TABLE
2
VIEW
5
6
100
AcDbSymbolTable
70
0
0
ENDTAB
0
TABLE
2
UCS
5
7
100
AcDbSymbolTable
70
0
0
ENDTAB
0
TABLE
2
APPID
5
9
100
AcDbSymbolTable
70
2
0
APPID
5
12
100
AcDbSymbolTableRecord
100
AcDbRegAppTableRecord
2
ACAD
70
0
0
ENDTAB
0
TABLE
2
DIMSTYLE
5
A
100
AcDbSymbolTable
70
1
0
ENDTAB
0
TABLE
2
BLOCK_RECORD
5
1
100
AcDbSymbolTable
70
1
0
BLOCK_RECORD
5
1F
100
AcDbSymbolTableRecord
100
AcDbBlockTableRecord
2
*MODEL_SPACE
0
BLOCK_RECORD
5
1B
100
AcDbSymbolTableRecord
100
AcDbBlockTableRecord
2
*PAPER_SPACE
0
ENDTAB
0
ENDSEC
0
SECTION
2
BLOCKS
0
BLOCK
5
20
100
AcDbEntity
100
AcDbBlockBegin
2
*MODEL_SPACE
0
ENDBLK
5
21
100
AcDbEntity
100
AcDbBlockEnd
0
BLOCK
5
1C
100
AcDbEntity
100
AcDbBlockBegin
2
*PAPER_SPACE
0
ENDBLK
5
1D
100
AcDbEntity
100
AcDbBlockEnd
0
ENDSEC
0
SECTION
2
ENTITIES
0
LWPOLYLINE
5
100
100
AcDbEntity
8
OUTER_PROFILES
100
AcDbPolyline
90
20
70
1
43
0.0
10
1896.9000000000003
20
23.523893421169117
10
1897.8
20
21.261946710584567
10
1897.8000000000002
20
0
10
0
20
0
10
-4.2632564145606011e-13
20
21.261946710584617
10
0.90000000000003411
20
23.523893421168964
10
-1.3619467105846303
20
21.523893421169173
10
-99.361946710584576
20
21.523893421169269
10
-99.361946710584576
20
76.523893421169277
10
-1.3619467105846006
20
76.52389342116895
10
0.90000000000003411
20
74.52389342116912
10
1.4210854715202004e-13
20
76.785840131753957
10
0
20
98.047786842338525
10
1897.8000000000002
20
98.047786842338525
10
1897.8000000000006
20
76.785840131753915
10
1896.9000000000003
20
74.523893421169262
10
1899.1619467105847
20
76.523893421168964
10
1997.1619467105847
20
76.523893421169277
10
1997.1619467105847
20
21.523893421169269
10
1899.161946710585
20
21.523893421169266
0
CIRCLE
5
101
100
AcDbEntity
8
INTERIOR_PROFILES
100
AcDbCircle
10
-1904.6619467106009
20
29.023893421169266
30
0
40
1.6999999999998749
210
0
220
0
230
-1
0
CIRCLE
5
102
100
AcDbEntity
8
INTERIOR_PROFILES
100
AcDbCircle
10
6.8619467106005168
20
69.023893421169163
30
0
40
1.7000000000000004
210
0
220
0
230
-1
0
CIRCLE
5
103
100
AcDbEntity
8
INTERIOR_PROFILES
100
AcDbCircle
10
6.8619467106005594
20
29.023893421169266
30
0
40
1.7000000000000004
210
0
220
0
230
-1
0
CIRCLE
5
104
100
AcDbEntity
8
INTERIOR_PROFILES
100
AcDbCircle
10
-1904.6619467106009
20
69.023893421169163
30
0
40
1.6999999999998749
210
0
220
0
230
-1
0
LINE
5
105
100
AcDbEntity
8
BEND
100
AcDbLine
10
-0.23097335529226354
20
75.523893421169063
30
2.7755575615628699e-14
11
-0.23097335529226354
21
22.52389342116885
31
-1.7319479184152467e-13
0
LINE
5
106
100
AcDbEntity
8
BEND
100
AcDbLine
10
1898.0309733552926
20
22.523893421168907
30
2.7755575615628914e-14
11
1898.0309733552926
21
75.523893421169049
31
2.7755575615628914e-14
0
LINE
5
107
100
AcDbEntity
8
BEND
100
AcDbLine
10
1897.3500000000001
20
75.654866776461688
30
4.9960036108132044e-14
11
0.45000000000015916
21
75.654866776461688
31
-1.6708856520608608e-13
0
LINE
5
108
100
AcDbEntity
8
BEND
100
AcDbLine
10
0.45000000000015916
20
22.392920065876876
30
2.6673108166619386e-13
11
1897.3500000000001
21
22.392920065876876
31
4.9960036108132044e-14
0
LINE
5
109
100
AcDbEntity
8
BEND
100
AcDbLine
10
1897.8000000000009
20
88.916813487046227
30
1.4341527564674116e-14
11
0
21
88.916813487046227
31
1.795380398051947e-14
0
LINE
5
110
100
AcDbEntity
8
BEND
100
AcDbLine
10
-5.6843418860808015e-13
20
9.1309733552923156
30
9.9006354661734818e-15
11
1897.8000000000002
21
9.1309733552923156
31
1.795380398051947e-14
0
LINE
5
111
100
AcDbEntity
8
BEND_EXTENT
100
AcDbLine
10
1899.1619467105847
20
76.523893421168964
30
-9.3258734068513149e-14
11
1899.161946710585
21
21.523893421169269
31
-9.3258734068513149e-14
0
LWPOLYLINE
5
112
100
AcDbEntity
8
BEND_EXTENT
100
AcDbPolyline
90
4
70
1
43
0.0
10
1896.9000000000003
20
23.523893421169117
10
1896.9000000000003
20
74.523893421169248
10
0.90000000000003411
20
74.52389342116912
10
0.90000000000003411
20
23.523893421168964
0
LINE
5
113
100
AcDbEntity
8
BEND_EXTENT
100
AcDbLine
10
1.4210854715202004e-13
20
76.785840131753957
30
-1.1546319456101628e-13
11
1897.8000000000002
21
76.785840131753915
31
3.9968028886505635e-14
0
LINE
5
114
100
AcDbEntity
8
BEND_EXTENT
100
AcDbLine
10
0
20
90.047786842338539
30
1.5543122344752192e-14
11
1897.8000000000009
21
90.047786842338539
31
1.5543122344752192e-14
0
LINE
5
115
100
AcDbEntity
8
BEND_EXTENT
100
AcDbLine
10
1897.8000000000002
20
87.785840131753901
30
2.2204460492503131e-14
11
0
21
87.785840131753901
31
2.2204460492503131e-14
0
LINE
5
116
100
AcDbEntity
8
BEND_EXTENT
100
AcDbLine
10
1897.8000000000002
20
8.0000000000000071
30
1.7763568394002505e-14
11
-5.6843418860808015e-13
21
8.0000000000000071
31
1.7763568394002505e-14
0
LINE
5
117
100
AcDbEntity
8
BEND_EXTENT
100
AcDbLine
10
0
20
10.26194671058462
30
2.6645352591003757e-14
11
1897.8000000000002
21
10.26194671058462
31
2.6645352591003757e-14
0
LINE
5
118
100
AcDbEntity
8
BEND_EXTENT
100
AcDbLine
10
1897.8
20
21.261946710584567
30
3.9968028886505635e-14
11
-2.8421709430404007e-13
21
21.261946710584617
31
3.9968028886505635e-14
0
LINE
5
119
100
AcDbEntity
8
BEND_EXTENT
100
AcDbLine
10
-1.3619467105846303
20
21.523893421169173
30
-9.3258734068513149e-14
11
-1.3619467105845975
21
76.52389342116895
31
-9.3258734068513149e-14
0
ENDSEC
0
SECTION
2
OBJECTS
0
DICTIONARY
5
C
100
AcDbDictionary
3
ACAD_GROUP
350
D
3
ACAD_MLINESTYLE
350
17
0
DICTIONARY
5
D
100
AcDbDictionary
0
DICTIONARY
5
1A
330
C
100
AcDbDictionary
0
DICTIONARY
5
17
100
AcDbDictionary
0
ENDSEC
0
EOF
