0
SECTION
2
HEADER
9
$INSUNITS
70
4
9
$ACADVER
1
AC1014
9
$HANDSEED
5
FFFF
0
ENDSEC
0
SECTION
2
TABLES
0
TABLE
2
VPORT
5
8
100
AcDbSymbolTable
0
ENDTAB
0
TABLE
2
LTYPE
5
5
100
AcDbSymbolTable
0
LTYPE
5
14
100
AcDbSymbolTableRecord
100
AcDbLinetypeTableRecord
2
BYBLOCK
70
0
0
LTYPE
5
15
100
AcDbSymbolTableRecord
100
AcDbLinetypeTableRecord
2
BYLAYER
70
0
0
LTYPE
5
16
100
AcDbSymbolTableRecord
100
AcDbLinetypeTableRecord
2
DASHED
70
0
3
Dashed __ __ __ __ __ __ __ __ __ __ __ __ __ _
72
65
73
2
40
0.75
49
0.5
74
0
49
-0.25
74
0
0
ENDTAB
0
TABLE
2
LAYER
5
2
100
AcDbSymbolTable
70
2
0
LAYER
5
50
100
AcDbSymbolTableRecord
100
AcDbLayerTableRecord
2
0
70
0
62
7
6
CONTINUOUS
0
ENDTAB
0
TABLE
2
STYLE
5
3
100
AcDbSymbolTable
70
1
0
STYLE
5
11
100
AcDbSymbolTableRecord
100
AcDbTextStyleTableRecord
2
STANDARD
70
0
0
ENDTAB
0
TABLE
2
VIEW
5
6
100
AcDbSymbolTable
70
0
0
ENDTAB
0
TABLE
2
UCS
5
7
100
AcDbSymbolTable
70
0
0
ENDTAB
0
TABLE
2
APPID
5
9
100
AcDbSymbolTable
70
2
0
APPID
5
12
100
AcDbSymbolTableRecord
100
AcDbRegAppTableRecord
2
ACAD
70
0
0
ENDTAB
0
TABLE
2
DIMSTYLE
5
A
100
AcDbSymbolTable
70
1
0
ENDTAB
0
TABLE
2
BLOCK_RECORD
5
1
100
AcDbSymbolTable
70
1
0
BLOCK_RECORD
5
1F
100
AcDbSymbolTableRecord
100
AcDbBlockTableRecord
2
*MODEL_SPACE
0
BLOCK_RECORD
5
1B
100
AcDbSymbolTableRecord
100
AcDbBlockTableRecord
2
*PAPER_SPACE
0
ENDTAB
0
ENDSEC
0
SECTION
2
BLOCKS
0
BLOCK
5
20
100
AcDbEntity
100
AcDbBlockBegin
2
*MODEL_SPACE
0
ENDBLK
5
21
100
AcDbEntity
100
AcDbBlockEnd
0
BLOCK
5
1C
100
AcDbEntity
100
AcDbBlockBegin
2
*PAPER_SPACE
0
ENDBLK
5
1D
100
AcDbEntity
100
AcDbBlockEnd
0
ENDSEC
0
SECTION
2
ENTITIES
0
LWPOLYLINE
5
100
100
AcDbEntity
8
OUTER_PROFILES
100
AcDbPolyline
90
20
70
1
43
0.0
10
751.99999999999989
20
38.785840131753957
10
751.99999999999989
20
52.785840131753957
10
751.99999999999989
20
60.04778684233861
10
0
20
60.04778684233861
10
0
20
52.785840131753957
10
0
20
38.785840131753957
10
0
20
36.523893421169305
10
-17.261946710584652
20
36.523893421169305
10
-17.261946710584652
20
23.523893421169298
10
0
20
23.523893421169298
10
0
20
21.261946710584645
10
0
20
7.261946710584648
10
0
20
0
10
751.99999999999989
20
0
10
751.99999999999989
20
7.261946710584648
10
751.99999999999989
20
21.261946710584645
10
751.99999999999989
20
23.523893421169298
10
769.26194671058454
20
23.523893421169298
10
769.26194671058454
20
36.523893421169305
10
751.99999999999989
20
36.523893421169305
0
CIRCLE
5
101
100
AcDbEntity
8
INTERIOR_PROFILES
100
AcDbCircle
10
9.2619467105778597
20
30.023893421169305
30
0
40
1.6999999999999993
210
-0
220
0
230
-1
0
CIRCLE
5
102
100
AcDbEntity
8
INTERIOR_PROFILES
100
AcDbCircle
10
-761.26194671057374
20
30.023893421169305
30
0
40
1.6999999999999993
210
0
220
0
230
-1
0
LINE
5
103
100
AcDbEntity
8
BEND
100
AcDbLine
10
-1.1309733552921841
20
36.523893421169305
30
4.3853809472693683e-14
11
-1.1309733552921841
21
23.523893421169298
31
-2.0816681711721685e-14
0
LINE
5
104
100
AcDbEntity
8
BEND
100
AcDbLine
10
753.1309733552921
20
23.523893421169298
30
3.6082248300317588e-14
11
753.1309733552921
21
36.523893421169305
31
-1.3045120539345589e-14
0
LINE
5
105
100
AcDbEntity
8
BEND
100
AcDbLine
10
1.4210854715202004e-13
20
22.392920065876972
30
2.1649348980190553e-14
11
751.99999999999977
21
22.392920065876972
31
2.1649348980190553e-14
0
LINE
5
106
100
AcDbEntity
8
BEND
100
AcDbLine
10
0
20
37.654866776461631
30
2.9976021664879227e-14
11
751.99999999999989
21
37.654866776461631
31
2.9976021664879227e-14
0
LINE
5
107
100
AcDbEntity
8
BEND
100
AcDbLine
10
0
20
53.916813487046284
30
3.1086244689504389e-14
11
751.99999999999989
21
53.916813487046284
31
3.1086244689504389e-14
0
LINE
5
108
100
AcDbEntity
8
BEND
100
AcDbLine
10
0
20
6.1309733552923174
30
8.3266726846885952e-16
11
751.99999999999989
21
6.1309733552923174
31
8.3266726846885952e-16
0
LINE
5
109
100
AcDbEntity
8
BEND_EXTENT
100
AcDbLine
10
-2.2619467105846525
20
23.523893421169298
30
-1.8207657603852567e-13
11
-2.2619467105846525
21
36.523893421169305
31
-1.1102230246251565e-13
0
LWPOLYLINE
5
110
100
AcDbEntity
8
BEND_EXTENT
100
AcDbPolyline
90
4
70
1
43
0.0
10
0
20
36.523893421169305
10
0
20
23.523893421169298
10
751.99999999999989
20
23.523893421169298
10
751.99999999999989
20
36.523893421169305
0
LINE
5
111
100
AcDbEntity
8
BEND_EXTENT
100
AcDbLine
10
754.26194671058454
20
36.523893421169305
30
-1.8207657603852567e-13
11
754.26194671058454
21
23.523893421169298
31
-1.1102230246251565e-13
0
LINE
5
112
100
AcDbEntity
8
BEND_EXTENT
100
AcDbLine
10
0
20
38.785840131753957
30
3.1086244689504383e-14
11
751.99999999999989
21
38.785840131753957
31
3.1086244689504383e-14
0
LINE
5
113
100
AcDbEntity
8
BEND_EXTENT
100
AcDbLine
10
751.99999999999989
20
21.261946710584645
30
2.1094237467877974e-14
11
0
21
21.261946710584645
31
2.1094237467877974e-14
0
LINE
5
114
100
AcDbEntity
8
BEND_EXTENT
100
AcDbLine
10
751.99999999999989
20
52.785840131753957
30
3.1086244689504383e-14
11
0
21
52.785840131753957
31
3.1086244689504383e-14
0
LINE
5
115
100
AcDbEntity
8
BEND_EXTENT
100
AcDbLine
10
0
20
7.261946710584648
30
4.4408920985006262e-15
11
751.99999999999989
21
7.261946710584648
31
4.4408920985006262e-15
0
LINE
5
116
100
AcDbEntity
8
BEND_EXTENT
100
AcDbLine
10
0
20
55.04778684233861
30
2.886579864025407e-14
11
751.99999999999989
21
55.04778684233861
31
2.886579864025407e-14
0
LINE
5
117
100
AcDbEntity
8
BEND_EXTENT
100
AcDbLine
10
751.99999999999989
20
5.0000000000000044
30
0
11
0
21
5.0000000000000044
31
0
0
ENDSEC
0
SECTION
2
OBJECTS
0
DICTIONARY
5
C
100
AcDbDictionary
3
ACAD_GROUP
350
D
3
ACAD_MLINESTYLE
350
17
0
DICTIONARY
5
D
100
AcDbDictionary
0
DICTIONARY
5
1A
330
C
100
AcDbDictionary
0
DICTIONARY
5
17
100
AcDbDictionary
0
ENDSEC
0
EOF
