0
SECTION
2
HEADER
9
$INSUNITS
70
4
9
$ACADVER
1
AC1014
9
$HANDSEED
5
FFFF
0
ENDSEC
0
SECTION
2
TABLES
0
TABLE
2
VPORT
5
8
100
AcDbSymbolTable
0
ENDTAB
0
TABLE
2
LTYPE
5
5
100
AcDbSymbolTable
0
LTYPE
5
14
100
AcDbSymbolTableRecord
100
AcDbLinetypeTableRecord
2
BYBLOCK
70
0
0
LTYPE
5
15
100
AcDbSymbolTableRecord
100
AcDbLinetypeTableRecord
2
BYLAYER
70
0
0
LTYPE
5
16
100
AcDbSymbolTableRecord
100
AcDbLinetypeTableRecord
2
DASHED
70
0
3
Dashed __ __ __ __ __ __ __ __ __ __ __ __ __ _
72
65
73
2
40
0.75
49
0.5
74
0
49
-0.25
74
0
0
ENDTAB
0
TABLE
2
LAYER
5
2
100
AcDbSymbolTable
70
2
0
LAYER
5
50
100
AcDbSymbolTableRecord
100
AcDbLayerTableRecord
2
0
70
0
62
7
6
CONTINUOUS
0
ENDTAB
0
TABLE
2
STYLE
5
3
100
AcDbSymbolTable
70
1
0
STYLE
5
11
100
AcDbSymbolTableRecord
100
AcDbTextStyleTableRecord
2
STANDARD
70
0
0
ENDTAB
0
TABLE
2
VIEW
5
6
100
AcDbSymbolTable
70
0
0
ENDTAB
0
TABLE
2
UCS
5
7
100
AcDbSymbolTable
70
0
0
ENDTAB
0
TABLE
2
APPID
5
9
100
AcDbSymbolTable
70
2
0
APPID
5
12
100
AcDbSymbolTableRecord
100
AcDbRegAppTableRecord
2
ACAD
70
0
0
ENDTAB
0
TABLE
2
DIMSTYLE
5
A
100
AcDbSymbolTable
70
1
0
ENDTAB
0
TABLE
2
BLOCK_RECORD
5
1
100
AcDbSymbolTable
70
1
0
BLOCK_RECORD
5
1F
100
AcDbSymbolTableRecord
100
AcDbBlockTableRecord
2
*MODEL_SPACE
0
BLOCK_RECORD
5
1B
100
AcDbSymbolTableRecord
100
AcDbBlockTableRecord
2
*PAPER_SPACE
0
ENDTAB
0
ENDSEC
0
SECTION
2
BLOCKS
0
BLOCK
5
20
100
AcDbEntity
100
AcDbBlockBegin
2
*MODEL_SPACE
0
ENDBLK
5
21
100
AcDbEntity
100
AcDbBlockEnd
0
BLOCK
5
1C
100
AcDbEntity
100
AcDbBlockBegin
2
*PAPER_SPACE
0
ENDBLK
5
1D
100
AcDbEntity
100
AcDbBlockEnd
0
ENDSEC
0
SECTION
2
ENTITIES
0
LWPOLYLINE
5
100
100
AcDbEntity
8
OUTER_PROFILES
100
AcDbPolyline
90
20
70
1
43
0.0
10
0
20
0
10
1847.8000000000002
20
0
10
1847.8000000000002
20
21.261946710584532
10
1846.9000000000003
20
23.523893421169191
10
1849.1619467105852
20
21.523893421169262
10
1897.161946710585
20
21.523893421169255
10
1897.161946710585
20
84.523893421169234
10
1849.161946710585
20
84.523893421169134
10
1846.9000000000003
20
82.523893421169248
10
1847.8000000000009
20
84.785840131753901
10
1847.8000000000002
20
106.0477868423385
10
0
20
106.0477868423385
10
0
20
84.785840131753957
10
0.90000000000003411
20
82.523893421169163
10
-1.3619467105848424
20
84.523893421169106
10
-49.361946710584952
20
84.523893421169234
10
-49.361946710584952
20
21.523893421169255
10
-1.3619467105848493
20
21.523893421169198
10
0.90000000000003411
20
23.523893421169131
10
-4.2632564145606011e-13
20
21.261946710584603
0
CIRCLE
5
101
100
AcDbEntity
8
INTERIOR_PROFILES
100
AcDbCircle
10
-1854.6619467105947
20
28.523893421169227
30
0
40
1.6999999999998749
210
0
220
0
230
-1
0
CIRCLE
5
102
100
AcDbEntity
8
INTERIOR_PROFILES
100
AcDbCircle
10
-1854.6619467105943
20
77.523893421169149
30
0
40
1.6999999999998749
210
0
220
0
230
-1
0
CIRCLE
5
103
100
AcDbEntity
8
INTERIOR_PROFILES
100
AcDbCircle
10
6.861946710594216
20
28.523893421169227
30
0
40
1.7000000000000004
210
0
220
0
230
-1
0
CIRCLE
5
104
100
AcDbEntity
8
INTERIOR_PROFILES
100
AcDbCircle
10
6.8619467105941663
20
77.523893421169149
30
0
40
1.7000000000000004
210
0
220
0
230
-1
0
LINE
5
105
100
AcDbEntity
8
BEND
100
AcDbLine
10
-0.2309733552924087
20
83.523893421169191
30
3.6082248300318771e-15
11
-0.2309733552924495
21
22.523893421168999
31
-1.1018963519404691e-13
0
LINE
5
106
100
AcDbEntity
8
BEND
100
AcDbLine
10
1847.3500000000004
20
83.654866776461674
30
3.8302694349567901e-14
11
0.45000000000015916
21
83.654866776461674
31
-5.1902926401226068e-14
0
LINE
5
107
100
AcDbEntity
8
BEND
100
AcDbLine
10
-5.6843418860808015e-13
20
9.1309733552923156
30
7.6513420402954401e-17
11
1847.8000000000002
21
9.1309733552923156
31
8.1322596961857859e-15
0
LINE
5
108
100
AcDbEntity
8
BEND
100
AcDbLine
10
1848.0309733552926
20
22.523893421169223
30
1.1712852909795402e-13
11
1848.0309733552926
21
83.523893421169106
31
1.6653345369377348e-14
0
LINE
5
109
100
AcDbEntity
8
BEND
100
AcDbLine
10
1847.8000000000009
20
96.916813487046184
30
3.8634301755269722e-15
11
0
21
96.916813487046184
31
1.257315179468642e-14
0
LINE
5
110
100
AcDbEntity
8
BEND
100
AcDbLine
10
0.45000000000015916
20
22.392920065876854
30
1.2462253451417382e-13
11
1847.3500000000004
21
22.392920065876854
31
3.8302694349567901e-14
0
LINE
5
111
100
AcDbEntity
8
BEND_EXTENT
100
AcDbLine
10
1849.161946710585
20
84.523893421169134
30
-1.0436096431476471e-13
11
1849.1619467105852
21
21.523893421169262
31
3.7747582837255322e-14
0
LWPOLYLINE
5
112
100
AcDbEntity
8
BEND_EXTENT
100
AcDbPolyline
90
4
70
1
43
0.0
10
1846.9000000000003
20
23.523893421169191
10
1846.9000000000003
20
82.523893421169248
10
0.90000000000003411
20
82.523893421169163
10
0.90000000000003411
20
23.523893421169131
0
LINE
5
113
100
AcDbEntity
8
BEND_EXTENT
100
AcDbLine
10
0
20
84.785840131753957
30
-2.886579864025407e-14
11
1847.8000000000009
21
84.785840131753901
31
3.3306690738754696e-14
0
LINE
5
114
100
AcDbEntity
8
BEND_EXTENT
100
AcDbLine
10
0
20
98.04778684233851
30
1.7763568394002505e-14
11
1847.8000000000009
21
98.04778684233851
31
1.7763568394002505e-14
0
LINE
5
115
100
AcDbEntity
8
BEND_EXTENT
100
AcDbLine
10
1847.8000000000002
20
95.785840131753886
30
1.1102230246251565e-14
11
0
21
95.785840131753886
31
1.1102230246251565e-14
0
LINE
5
116
100
AcDbEntity
8
BEND_EXTENT
100
AcDbLine
10
1847.8000000000002
20
7.9999999999999893
30
1.3322676295501878e-14
11
-5.6843418860808015e-13
21
7.9999999999999893
31
1.3322676295501878e-14
0
LINE
5
117
100
AcDbEntity
8
BEND_EXTENT
100
AcDbLine
10
0
20
10.261946710584606
30
1.5543122344752192e-14
11
1847.8000000000002
21
10.261946710584606
31
1.5543122344752192e-14
0
LINE
5
118
100
AcDbEntity
8
BEND_EXTENT
100
AcDbLine
10
1847.8000000000002
20
21.261946710584532
30
2.886579864025407e-14
11
-5.6843418860808015e-13
21
21.261946710584603
31
2.886579864025407e-14
0
LINE
5
119
100
AcDbEntity
8
BEND_EXTENT
100
AcDbLine
10
-1.3619467105848468
20
21.523893421169198
30
-1.0436096431476471e-13
11
-1.3619467105848424
21
84.523893421169106
31
-1.0436096431476471e-13
0
ENDSEC
0
SECTION
2
OBJECTS
0
DICTIONARY
5
C
100
AcDbDictionary
3
ACAD_GROUP
350
D
3
ACAD_MLINESTYLE
350
17
0
DICTIONARY
5
D
100
AcDbDictionary
0
DICTIONARY
5
1A
330
C
100
AcDbDictionary
0
DICTIONARY
5
17
100
AcDbDictionary
0
ENDSEC
0
EOF
