0
SECTION
2
HEADER
9
$INSUNITS
70
4
9
$ACADVER
1
AC1014
9
$HANDSEED
5
FFFF
0
ENDSEC
0
SECTION
2
TABLES
0
TABLE
2
VPORT
5
8
100
AcDbSymbolTable
0
ENDTAB
0
TABLE
2
LTYPE
5
5
100
AcDbSymbolTable
0
LTYPE
5
14
100
AcDbSymbolTableRecord
100
AcDbLinetypeTableRecord
2
BYBLOCK
70
0
0
LTYPE
5
15
100
AcDbSymbolTableRecord
100
AcDbLinetypeTableRecord
2
BYLAYER
70
0
0
LTYPE
5
16
100
AcDbSymbolTableRecord
100
AcDbLinetypeTableRecord
2
DASHED
70
0
3
Dashed __ __ __ __ __ __ __ __ __ __ __ __ __ _
72
65
73
2
40
0.75
49
0.5
74
0
49
-0.25
74
0
0
ENDTAB
0
TABLE
2
LAYER
5
2
100
AcDbSymbolTable
70
2
0
LAYER
5
50
100
AcDbSymbolTableRecord
100
AcDbLayerTableRecord
2
0
70
0
62
7
6
CONTINUOUS
0
ENDTAB
0
TABLE
2
STYLE
5
3
100
AcDbSymbolTable
70
1
0
STYLE
5
11
100
AcDbSymbolTableRecord
100
AcDbTextStyleTableRecord
2
STANDARD
70
0
0
ENDTAB
0
TABLE
2
VIEW
5
6
100
AcDbSymbolTable
70
0
0
ENDTAB
0
TABLE
2
UCS
5
7
100
AcDbSymbolTable
70
0
0
ENDTAB
0
TABLE
2
APPID
5
9
100
AcDbSymbolTable
70
2
0
APPID
5
12
100
AcDbSymbolTableRecord
100
AcDbRegAppTableRecord
2
ACAD
70
0
0
ENDTAB
0
TABLE
2
DIMSTYLE
5
A
100
AcDbSymbolTable
70
1
0
ENDTAB
0
TABLE
2
BLOCK_RECORD
5
1
100
AcDbSymbolTable
70
1
0
BLOCK_RECORD
5
1F
100
AcDbSymbolTableRecord
100
AcDbBlockTableRecord
2
*MODEL_SPACE
0
BLOCK_RECORD
5
1B
100
AcDbSymbolTableRecord
100
AcDbBlockTableRecord
2
*PAPER_SPACE
0
ENDTAB
0
ENDSEC
0
SECTION
2
BLOCKS
0
BLOCK
5
20
100
AcDbEntity
100
AcDbBlockBegin
2
*MODEL_SPACE
0
ENDBLK
5
21
100
AcDbEntity
100
AcDbBlockEnd
0
BLOCK
5
1C
100
AcDbEntity
100
AcDbBlockBegin
2
*PAPER_SPACE
0
ENDBLK
5
1D
100
AcDbEntity
100
AcDbBlockEnd
0
ENDSEC
0
SECTION
2
ENTITIES
0
ELLIPSE
5
100
100
AcDbEntity
8
OUTER_PROFILES
100
AcDbEllipse
10
1044.000000000078
20
90.785840132002349
30
0
11
8.5230605376818632e-12
21
-16
31
0.0
40
0.75000000000000011
41
3.3080500344585211
42
4.7123889803844703
0
ARC
5
101
100
AcDbEntity
8
OUTER_PROFILES
100
AcDbCircle
10
-1041.4555000004134
20
109.04764816934362
30
0
40
2.5445000000000562
210
0
220
-0
230
-1
100
AcDbArc
50
180
51
257.37328904073433
0
LINE
5
102
100
AcDbEntity
8
OUTER_PROFILES
100
AcDbLine
10
1044.0000000004134
20
109.04764816933448
30
0
11
1044.0000000003408
21
121.04778684258517
31
0
0
ARC
5
103
100
AcDbEntity
8
OUTER_PROFILES
100
AcDbCircle
10
-1042.0000000003408
20
121.0477868425847
30
0
40
1.9999999999999929
210
0
220
0
230
-1
100
AcDbArc
50
89.999999999986969
51
180
0
LINE
5
104
100
AcDbEntity
8
OUTER_PROFILES
100
AcDbLine
10
1042.0000000003404
20
123.04778684258469
30
0
11
3.4077629607054405e-10
21
123.04778684233538
31
0
0
ARC
5
105
100
AcDbEntity
8
OUTER_PROFILES
100
AcDbCircle
10
-3.4134473025915213e-10
20
121.04778684233538
30
0
40
2
210
-0
220
0
230
-1
100
AcDbArc
50
0
51
89.999999999983714
0
LINE
5
106
100
AcDbEntity
8
OUTER_PROFILES
100
AcDbLine
10
-1.9999999996586553
20
121.04778684233493
30
0
11
-1.9999999996558415
21
109.04764816893626
31
0
0
ARC
5
107
100
AcDbEntity
8
OUTER_PROFILES
100
AcDbCircle
10
-0.54450000041370572
20
109.04764816893733
30
0
40
2.5444999999999918
210
-0
220
0
230
-1
100
AcDbArc
50
282.62671096272106
51
360
0
ELLIPSE
5
108
100
AcDbEntity
8
OUTER_PROFILES
100
AcDbEllipse
10
-1.9999999999437534
20
90.785840131752082
30
0
11
8.6685367000117448e-13
21
16
31
0.0
40
0.75000000000000011
41
4.7123889803846897
42
6.1167279262643337
0
LINE
5
109
100
AcDbEntity
8
OUTER_PROFILES
100
AcDbLine
10
10.000000000056248
20
90.785840131751428
30
0
11
10.000000000001421
21
32.261946710586557
31
0
0
ELLIPSE
5
110
100
AcDbEntity
8
OUTER_PROFILES
100
AcDbEllipse
10
-1.9999999999987494
20
32.261946710583025
30
0
11
4.694953606045941e-12
21
-16
31
0.0
40
0.75000000000000011
41
0.16645738089123174
42
1.570796326794897
0
ARC
5
111
100
AcDbEntity
8
OUTER_PROFILES
100
AcDbCircle
10
-0.54450000000073828
20
14.000138673317171
30
0
40
2.5445000000000002
210
0
220
0
230
-1
100
AcDbArc
50
0
51
77.373289039066918
0
LINE
5
112
100
AcDbEntity
8
OUTER_PROFILES
100
AcDbLine
10
-1.9999999999992619
20
14.000138673321395
30
0
11
-1.9999999999997442
21
2.0000000000000107
31
0
0
ARC
5
113
100
AcDbEntity
8
OUTER_PROFILES
100
AcDbCircle
10
0
20
1.9999999999999929
30
0
40
1.9999999999999998
210
0
220
-0
230
-1
100
AcDbArc
50
-90.000000000000654
51
0
0
LINE
5
114
100
AcDbEntity
8
OUTER_PROFILES
100
AcDbLine
10
2.2620794126737571e-14
20
-6.9388939039072284e-15
30
0
11
1042.0000000000218
21
-2.4980018054066022e-14
31
0
0
ARC
5
115
100
AcDbEntity
8
OUTER_PROFILES
100
AcDbCircle
10
-1042.0000000000218
20
1.9999999999999751
30
0
40
2.0000000000000284
210
0
220
0
230
-1
100
AcDbArc
50
180
51
270
0
LINE
5
116
100
AcDbEntity
8
OUTER_PROFILES
100
AcDbLine
10
1044.0000000000218
20
1.9999999999999929
30
0
11
1044.0000000000218
21
14.000138673317508
31
0
0
ARC
5
117
100
AcDbEntity
8
OUTER_PROFILES
100
AcDbCircle
10
-1041.4555000000228
20
14.000138673317322
30
0
40
2.5445000000000002
210
0
220
0
230
-1
100
AcDbArc
50
102.62671096094454
51
180
0
ELLIPSE
5
118
100
AcDbEntity
8
OUTER_PROFILES
100
AcDbEllipse
10
1044.0000000000232
20
32.261946710583025
30
0
11
4.6949606016370966e-12
21
16
31
0.0
40
0.75000000000000011
41
1.5707963267951168
42
2.9751352726985272
0
LINE
5
119
100
AcDbEntity
8
OUTER_PROFILES
100
AcDbLine
10
1032.0000000000232
20
32.261946710583025
30
0
11
1032.000000000078
21
90.785840131999464
31
0
0
SPLINE
5
120
100
AcDbEntity
8
INTERIOR_PROFILES
100
AcDbSpline
70
0
71
3
72
11
73
7
74
0
42
0.000000001
43
0.0000000001
44
0.0000000001
40
0.31591804559276143
40
0.31591804559276143
40
0.31591804559276143
40
0.31591804559276143
40
0.50001066399196858
40
0.50001066399196858
40
0.50001066399196858
40
0.62030149152027902
40
0.62030149152027902
40
0.62030149152027902
40
0.62030149152027902
10
822.37477270839099
20
13.999999999999941
30
0
10
821.99085089533014
20
14.380019766296286
30
0
10
821.31394127203612
20
14.587617101000152
30
0
10
820.66946515113284
20
14.490045215896767
30
0
10
820.24834796251434
20
14.426289249445503
30
0
10
819.87609162775868
20
14.248314639459094
30
0
10
819.62522729109594
20
13.999999999999977
30
0
0
ARC
5
121
100
AcDbEntity
8
INTERIOR_PROFILES
100
AcDbCircle
10
-820.99999999974341
20
13.000000000221039
30
0
40
1.6999999999999362
210
0
220
0
230
-1
100
AcDbArc
50
-216.03187906325584
51
36.031879063261314
0
ARC
5
122
100
AcDbEntity
8
INTERIOR_PROFILES
100
AcDbCircle
10
-570.99999999974341
20
12.999999999975147
30
0
40
1.7000000000000046
210
0
220
0
230
-1
100
AcDbArc
50
-216.03187907350301
51
36.031879073506147
0
SPLINE
5
123
100
AcDbEntity
8
INTERIOR_PROFILES
100
AcDbSpline
70
0
71
3
72
11
73
7
74
0
42
0.000000001
43
0.0000000001
44
0.0000000001
40
0.31591804559360787
40
0.31591804559360787
40
0.31591804559360787
40
0.31591804559360787
40
0.50001066400121974
40
0.50001066400121974
40
0.50001066400121974
40
0.6203014914615872
40
0.6203014914615872
40
0.6203014914615872
40
0.6203014914615872
10
572.37477270821205
20
13.999999999999968
30
0
10
571.99085089502921
20
14.380019766274152
30
0
10
571.31394127165674
20
14.587617100872485
30
0
10
570.66946515073016
20
14.49004521564798
30
0
10
570.24834796235359
20
14.426289249156499
30
0
10
569.87609162786407
20
14.248314639293023
30
0
10
569.62522729127477
20
13.999999999999959
30
0
0
SPLINE
5
124
100
AcDbEntity
8
INTERIOR_PROFILES
100
AcDbSpline
70
0
71
3
72
11
73
7
74
0
42
0.000000001
43
0.0000000001
44
0.0000000001
40
0.31591804559343795
40
0.31591804559343795
40
0.31591804559343795
40
0.31591804559343795
40
0.50001066399952809
40
0.50001066399952809
40
0.50001066399952809
40
0.62030149147332792
40
0.62030149147332792
40
0.62030149147332792
40
0.62030149147332792
10
622.37477270824786
20
13.999999999999968
30
0
10
621.99085089508901
20
14.380019766279002
30
0
10
621.31394127173144
20
14.587617100898349
30
0
10
620.66946515080906
20
14.490045215697505
30
0
10
620.24834796238474
20
14.426289249213831
30
0
10
619.8760916278427
20
14.248314639325841
30
0
10
619.62522729123884
20
13.999999999999968
30
0
0
ARC
5
125
100
AcDbEntity
8
INTERIOR_PROFILES
100
AcDbCircle
10
-620.99999999974341
20
13.000000000024325
30
0
40
1.6999999999999396
210
0
220
0
230
-1
100
AcDbArc
50
-216.03187907145579
51
36.031879071453517
0
ARC
5
126
100
AcDbEntity
8
INTERIOR_PROFILES
100
AcDbCircle
10
-1036.99999999991
20
13.000000000433332
30
0
40
1.6999999999999769
210
0
220
0
230
-1
100
AcDbArc
50
-216.03187905441109
51
36.03187905440852
0
SPLINE
5
127
100
AcDbEntity
8
INTERIOR_PROFILES
100
AcDbSpline
70
0
71
3
72
11
73
7
74
0
42
0.000000001
43
0.0000000001
44
0.0000000001
40
0.3159180455920248
40
0.3159180455920248
40
0.3159180455920248
40
0.3159180455920248
40
0.50001066398378691
40
0.50001066398378691
40
0.50001066398378691
40
0.62030149157095171
40
0.62030149157095171
40
0.62030149157095171
40
0.62030149157095171
10
1038.3747727087118
20
13.999999999999968
30
0
10
1037.9908508957574
20
14.380019766314476
30
0
10
1037.3139412725318
20
14.587617101109984
30
0
10
1036.6694651516493
20
14.490045216111893
30
0
10
1036.2483479628213
20
14.426289249695676
30
0
10
1035.8760916278347
20
14.24831463960305
30
0
10
1035.6252272911079
20
13.999999999999968
30
0
0
ARC
5
128
100
AcDbEntity
8
INTERIOR_PROFILES
100
AcDbCircle
10
-870.99999999974341
20
13.000000000270218
30
0
40
1.6999999999999746
210
0
220
0
230
-1
100
AcDbArc
50
-216.03187906120797
51
36.031879061210091
0
SPLINE
5
129
100
AcDbEntity
8
INTERIOR_PROFILES
100
AcDbSpline
70
0
71
3
72
11
73
7
74
0
42
0.000000001
43
0.0000000001
44
0.0000000001
40
0.31591804559258169
40
0.31591804559258169
40
0.31591804559258169
40
0.31591804559258169
40
0.50001066399080762
40
0.50001066399080762
40
0.50001066399080762
40
0.62030149153200986
40
0.62030149153200986
40
0.62030149153200986
40
0.62030149153200986
10
872.37477270842669
20
13.999999999999932
30
0
10
871.99085089538926
20
14.380019766301668
30
0
10
871.31394127210706
20
14.587617101027099
30
0
10
870.6694651512064
20
14.490045215945448
30
0
10
870.24834796254208
20
14.426289249501218
30
0
10
869.87609162773651
20
14.24831463949114
30
0
10
869.62522729106013
20
13.999999999999968
30
0
0
ARC
5
130
100
AcDbEntity
8
INTERIOR_PROFILES
100
AcDbCircle
10
-470.99999999974341
20
12.99999999987679
30
0
40
1.6999999999999775
210
0
220
0
230
-1
100
AcDbArc
50
-216.03187907760548
51
36.031879077607485
0
SPLINE
5
131
100
AcDbEntity
8
INTERIOR_PROFILES
100
AcDbSpline
70
0
71
3
72
11
73
7
74
0
42
0.000000001
43
0.0000000001
44
0.0000000001
40
0.31591804559394671
40
0.31591804559394671
40
0.31591804559394671
40
0.31591804559394671
40
0.50001066400470273
40
0.50001066400470273
40
0.50001066400470273
40
0.62030149143811208
40
0.62030149143811208
40
0.62030149143811208
40
0.62030149143811208
10
472.37477270814054
20
13.999999999999968
30
0
10
471.99085089490939
20
14.380019766264898
30
0
10
471.31394127150651
20
14.587617100820944
30
0
10
470.6694651505714
20
14.490045215548824
30
0
10
470.24834796229078
20
14.426289249041604
30
0
10
469.87609162790676
20
14.24831463922704
30
0
10
469.62522729134616
20
13.99999999999995
30
0
0
ARC
5
132
100
AcDbEntity
8
INTERIOR_PROFILES
100
AcDbCircle
10
-770.99999999974341
20
13.000000000171861
30
0
40
1.6999999999999618
210
0
220
0
230
-1
100
AcDbArc
50
-216.03187906531113
51
36.03187906530669
0
SPLINE
5
133
100
AcDbEntity
8
INTERIOR_PROFILES
100
AcDbSpline
70
0
71
3
72
11
73
7
74
0
42
0.000000001
43
0.0000000001
44
0.0000000001
40
0.3159180455929303
40
0.3159180455929303
40
0.3159180455929303
40
0.3159180455929303
40
0.50001066399405936
40
0.50001066399405936
40
0.50001066399405936
40
0.6203014915085393
40
0.6203014915085393
40
0.6203014915085393
40
0.6203014915085393
10
772.37477270835507
20
13.99999999999995
30
0
10
771.99085089526932
20
14.380019766292378
30
0
10
771.31394127195847
20
14.587617100975132
30
0
10
770.66946515104974
20
14.490045215846648
30
0
10
770.24834796248058
20
14.426289249386981
30
0
10
769.87609162777926
20
14.248314639425415
30
0
10
769.62522729113164
20
13.999999999999986
30
0
0
SPLINE
5
134
100
AcDbEntity
8
INTERIOR_PROFILES
100
AcDbSpline
70
0
71
3
72
11
73
7
74
0
42
0.000000001
43
0.0000000001
44
0.0000000001
40
0.31591804559241837
40
0.31591804559241837
40
0.31591804559241837
40
0.31591804559241837
40
0.5000106639891756
40
0.5000106639891756
40
0.5000106639891756
40
0.62030149154374825
40
0.62030149154374825
40
0.62030149154374825
40
0.62030149154374825
10
922.37477270846239
20
13.999999999999959
30
0
10
921.9908508954486
20
14.380019766306829
30
0
10
921.3139412721813
20
14.587617101053123
30
0
10
920.6694651512845
20
14.490045215994849
30
0
10
920.24834796257267
20
14.426289249558293
30
0
10
919.87609162771491
20
14.248314639523905
30
0
10
919.62522729102432
20
13.999999999999986
30
0
0
ARC
5
135
100
AcDbEntity
8
INTERIOR_PROFILES
100
AcDbCircle
10
-920.99999999974341
20
13.000000000319396
30
0
40
1.6999999999998954
210
0
220
0
230
-1
100
AcDbArc
50
-216.0318790591601
51
36.031879059160829
0
ARC
5
136
100
AcDbEntity
8
INTERIOR_PROFILES
100
AcDbCircle
10
-965.00000000002183
20
13.000000000435383
30
0
40
1.7000000000000146
210
0
220
0
230
-1
100
AcDbArc
50
-216.03187905432043
51
36.031879054329067
0
SPLINE
5
137
100
AcDbEntity
8
INTERIOR_PROFILES
100
AcDbSpline
70
0
71
3
72
11
73
7
74
0
42
0.000000001
43
0.0000000001
44
0.0000000001
40
0.31591804559201436
40
0.31591804559201436
40
0.31591804559201436
40
0.31591804559201436
40
0.50001066398533589
40
0.50001066398533589
40
0.50001066398533589
40
0.6203014915714381
40
0.6203014915714381
40
0.6203014915714381
40
0.6203014915714381
10
966.37477270882539
20
13.999999999999968
30
0
10
965.99085089586788
20
14.38001976631841
30
0
10
965.31394127263502
20
14.587617101114416
30
0
10
964.66946515174754
20
14.490045216111369
30
0
10
964.24834796292362
20
14.426289249693012
30
0
10
963.87609162794263
20
14.248314639601167
30
0
10
963.62522729121849
20
13.999999999999968
30
0
0
SPLINE
5
138
100
AcDbEntity
8
INTERIOR_PROFILES
100
AcDbSpline
70
0
71
3
72
11
73
7
74
0
42
0.000000001
43
0.0000000001
44
0.0000000001
40
0.31591804559310066
40
0.31591804559310066
40
0.31591804559310066
40
0.31591804559310066
40
0.5000106639957218
40
0.5000106639957218
40
0.5000106639957218
40
0.62030149149679947
40
0.62030149149679947
40
0.62030149149679947
40
0.62030149149679947
10
722.37477270831948
20
13.999999999999932
30
0
10
721.99085089520963
20
14.380019766287591
30
0
10
721.313941271884
20
14.587617100949215
30
0
10
720.66946515097118
20
14.490045215797176
30
0
10
720.24834796244954
20
14.426289249329738
30
0
10
719.87609162780075
20
14.248314639392534
30
0
10
719.62522729116745
20
13.999999999999986
30
0
0
ARC
5
139
100
AcDbEntity
8
INTERIOR_PROFILES
100
AcDbCircle
10
-720.99999999974341
20
13.000000000122682
30
0
40
1.6999999999999824
210
0
220
0
230
-1
100
AcDbArc
50
-216.03187906735405
51
36.03187906736003
0
ARC
5
140
100
AcDbEntity
8
INTERIOR_PROFILES
100
AcDbCircle
10
-670.99999999974341
20
13.000000000073504
30
0
40
1.6999999999999833
210
0
220
0
230
-1
100
AcDbArc
50
-216.03187906940593
51
36.031879069409072
0
SPLINE
5
141
100
AcDbEntity
8
INTERIOR_PROFILES
100
AcDbSpline
70
0
71
3
72
11
73
7
74
0
42
0.000000001
43
0.0000000001
44
0.0000000001
40
0.31591804559326991
40
0.31591804559326991
40
0.31591804559326991
40
0.31591804559326991
40
0.50001066399771843
40
0.50001066399771843
40
0.50001066399771843
40
0.62030149148506342
40
0.62030149148506342
40
0.62030149148506342
40
0.62030149148506342
10
672.37477270828367
20
13.999999999999977
30
0
10
671.99085089514926
20
14.380019766283363
30
0
10
671.31394127180693
20
14.587617100923955
30
0
10
670.66946515088921
20
14.490045215747198
30
0
10
670.24834796241657
20
14.426289249271518
30
0
10
669.87609162782155
20
14.248314639359023
30
0
10
669.62522729120315
20
13.999999999999986
30
0
0
SPLINE
5
142
100
AcDbEntity
8
INTERIOR_PROFILES
100
AcDbSpline
70
0
71
3
72
11
73
7
74
0
42
0.000000001
43
0.0000000001
44
0.0000000001
40
0.3159180455918566
40
0.3159180455918566
40
0.3159180455918566
40
0.3159180455918566
40
0.50001066398100946
40
0.50001066398100946
40
0.50001066398100946
40
0.62030149158223702
40
0.62030149158223702
40
0.62030149158223702
40
0.62030149158223702
10
1012.3747727088584
20
13.999999999999932
30
0
10
1011.990850895929
20
14.380019766316936
30
0
10
1011.313941272724
20
14.587617101132455
30
0
10
1010.6694651518492
20
14.490045216161329
30
0
10
1010.248347962971
20
14.426289249754376
30
0
10
1009.8760916279284
20
14.248314639636881
30
0
10
1009.6252272911854
20
13.999999999999959
30
0
0
ARC
5
143
100
AcDbEntity
8
INTERIOR_PROFILES
100
AcDbCircle
10
-1011.0000000000219
20
13.000000000480627
30
0
40
1.6999999999999633
210
0
220
0
230
-1
100
AcDbArc
50
-216.03187905243664
51
36.031879052439614
0
SPLINE
5
144
100
AcDbEntity
8
INTERIOR_PROFILES
100
AcDbSpline
70
0
71
3
72
11
73
7
74
0
42
0.000000001
43
0.0000000001
44
0.0000000001
40
0.31591804559428399
40
0.31591804559428399
40
0.31591804559428399
40
0.31591804559428399
40
0.5000106640079387
40
0.5000106640079387
40
0.5000106640079387
40
0.62030149141463486
40
0.62030149141463486
40
0.62030149141463486
40
0.62030149141463486
10
372.37477270806903
20
13.99999999999995
30
0
10
371.99085089479024
20
14.380019766254817
30
0
10
371.31394127135792
20
14.587617100768879
30
0
10
370.66946515041525
20
14.490045215450031
30
0
10
370.24834796222962
20
14.426289248927437
30
0
10
369.87609162794996
20
14.248314639161626
30
0
10
369.62522729141779
20
13.999999999999959
30
0
0
ARC
5
145
100
AcDbEntity
8
INTERIOR_PROFILES
100
AcDbCircle
10
-370.99999999974341
20
12.999999999778433
30
0
40
1.7000000000000002
210
0
220
0
230
-1
100
AcDbArc
50
-216.03187908170261
51
36.031879081702854
0
SPLINE
5
146
100
AcDbEntity
8
INTERIOR_PROFILES
100
AcDbSpline
70
0
71
3
72
11
73
7
74
0
42
0.000000001
43
0.0000000001
44
0.0000000001
40
0.31591804559496511
40
0.31591804559496511
40
0.31591804559496511
40
0.31591804559496511
40
0.50001066401780947
40
0.50001066401780947
40
0.50001066401780947
40
0.62030149136769264
40
0.62030149136769264
40
0.62030149136769264
40
0.62030149136769264
10
172.37477270792581
20
13.999999999999968
30
0
10
171.99085089454428
20
14.380019766242205
30
0
10
171.31394127103675
20
14.587617100671979
30
0
10
170.66946515006705
20
14.490045215247083
30
0
10
170.24834796208367
20
14.426289248688491
30
0
10
169.87609162802954
20
14.248314639024162
30
0
10
169.62522729156078
20
13.999999999999968
30
0
0
ARC
5
147
100
AcDbEntity
8
INTERIOR_PROFILES
100
AcDbCircle
10
-170.9999999997433
20
12.999999999581719
30
0
40
1.6999999999999984
210
0
220
0
230
-1
100
AcDbArc
50
-216.03187908990174
51
36.031879089901757
0
ARC
5
148
100
AcDbEntity
8
INTERIOR_PROFILES
100
AcDbCircle
10
-520.99999999974352
20
12.999999999925969
30
0
40
1.6999999999999884
210
0
220
0
230
-1
100
AcDbArc
50
-216.03187907555414
51
36.031879075555224
0
SPLINE
5
149
100
AcDbEntity
8
INTERIOR_PROFILES
100
AcDbSpline
70
0
71
3
72
11
73
7
74
0
42
0.000000001
43
0.0000000001
44
0.0000000001
40
0.31591804559377767
40
0.31591804559377767
40
0.31591804559377767
40
0.31591804559377767
40
0.50001066400242555
40
0.50001066400242555
40
0.50001066400242555
40
0.62030149144985169
40
0.62030149144985169
40
0.62030149144985169
40
0.62030149144985169
10
522.37477270817624
20
13.999999999999968
30
0
10
521.99085089497055
20
14.380019766268264
30
0
10
521.31394127158546
20
14.5876171008456
30
0
10
520.66946515065649
20
14.490045215599263
30
0
10
520.24834796232585
20
14.42628924910073
30
0
10
519.87609162788647
20
14.248314639261075
30
0
10
519.62522729131047
20
13.999999999999977
30
0
0
SPLINE
5
150
100
AcDbEntity
8
INTERIOR_PROFILES
100
AcDbSpline
70
0
71
3
72
11
73
7
74
0
42
0.000000001
43
0.0000000001
44
0.0000000001
40
0.31591804559553327
40
0.31591804559553327
40
0.31591804559553327
40
0.31591804559553327
40
0.5000106640199804
40
0.5000106640199804
40
0.5000106640199804
40
0.6203014913286834
40
0.6203014913286834
40
0.6203014913286834
40
0.6203014913286834
10
6.3747727081818084
20
13.999999999999932
30
0
10
5.9908508947275152
20
14.38001976621929
30
0
10
5.3139412711885825
20
14.587617100578827
30
0
10
4.6694651502160411
20
14.490045215088054
30
0
10
4.2483479623787446
20
14.426289248508795
30
0
10
3.8760916284822144
20
14.248314638921427
30
0
10
3.6252272920545181
20
13.999999999999995
30
0
0
ARC
5
151
100
AcDbEntity
8
INTERIOR_PROFILES
100
AcDbCircle
10
-5.0000000001182343
20
12.999999999418286
30
0
40
1.6999999999999256
210
0
220
0
230
-1
100
AcDbArc
50
-216.03187909671342
51
36.031879096712295
0
ARC
5
152
100
AcDbEntity
8
INTERIOR_PROFILES
100
AcDbCircle
10
-30.999999999464762
20
12.999999989313595
30
0
40
1.7000000000000004
210
0
220
0
230
-1
100
AcDbArc
50
-216.03187951783656
51
36.031879517847649
0
SPLINE
5
153
100
AcDbEntity
8
INTERIOR_PROFILES
100
AcDbSpline
70
0
71
3
72
11
73
7
74
0
42
0.000000001
43
0.0000000001
44
0.0000000001
40
0.31591804563038262
40
0.31591804563038262
40
0.31591804563038262
40
0.31591804563038262
40
0.50001066439387865
40
0.50001066439387865
40
0.50001066439387865
40
0.62030148891693027
40
0.62030148891693027
40
0.62030148891693027
40
0.62030148891693027
10
32.37477270017834
20
13.999999999999959
30
0
10
31.990850881725095
20
14.380019765295664
30
0
10
31.313941254987157
20
14.587617095318839
30
0
10
30.669465133079399
20
14.490045204874535
30
0
10
30.248347955158721
20
14.426289236652385
30
0
10
29.87609163217428
20
14.248314632110715
30
0
10
29.625227298751184
20
13.999999999999968
30
0
0
SPLINE
5
154
100
AcDbEntity
8
INTERIOR_PROFILES
100
AcDbSpline
70
0
71
3
72
11
73
7
74
0
42
0.000000001
43
0.0000000001
44
0.0000000001
40
0.31591804562691672
40
0.31591804562691672
40
0.31591804562691672
40
0.31591804562691672
40
0.50001066435493879
40
0.50001066435493879
40
0.50001066435493879
40
0.62030148915634753
40
0.62030148915634753
40
0.62030148915634753
40
0.62030148915634753
10
78.374772700908153
20
13.999999999999968
30
0
10
77.990850882954987
20
14.380019765383576
30
0
10
77.313941256543472
20
14.587617095837127
30
0
10
76.669465134734907
20
14.490045205891331
30
0
10
76.248347955823306
20
14.426289237835102
30
0
10
75.876091631746476
20
14.2483146327901
30
0
10
75.625227298021684
20
13.999999999999932
30
0
0
ARC
5
155
100
AcDbEntity
8
INTERIOR_PROFILES
100
AcDbCircle
10
-76.99999999946499
20
12.999999990316686
30
0
40
1.6999999999999693
210
0
220
0
230
-1
100
AcDbArc
50
-216.03187947603706
51
36.031879476033275
0
CIRCLE
5
156
100
AcDbEntity
8
INTERIOR_PROFILES
100
AcDbCircle
10
-498.37250000003974
20
61.523893421263011
30
0
40
1.7000000000000171
210
0
220
0
230
-1
0
CIRCLE
5
157
100
AcDbEntity
8
INTERIOR_PROFILES
100
AcDbCircle
10
-521.00000000001762
20
38.896393421240759
30
0
40
1.7000000000000171
210
0
220
0
230
-1
0
ARC
5
158
100
AcDbEntity
8
INTERIOR_PROFILES
100
AcDbCircle
10
-320.9999999997433
20
12.999999999729255
30
0
40
1.7000000000000086
210
0
220
0
230
-1
100
AcDbArc
50
-216.03187908375105
51
36.031879083756962
0
SPLINE
5
159
100
AcDbEntity
8
INTERIOR_PROFILES
100
AcDbSpline
70
0
71
3
72
11
73
7
74
0
42
0.000000001
43
0.0000000001
44
0.0000000001
40
0.31591804559445957
40
0.31591804559445957
40
0.31591804559445957
40
0.31591804559445957
40
0.500010664009084
40
0.500010664009084
40
0.500010664009084
40
0.62030149140289981
40
0.62030149140289981
40
0.62030149140289981
40
0.62030149140289981
10
322.37477270803322
20
13.999999999999968
30
0
10
321.99085089473158
20
14.380019766248884
30
0
10
321.31394127128715
20
14.587617100741905
30
0
10
320.66946515034203
20
14.490045215401395
30
0
10
320.24834796220216
20
14.426289248871811
30
0
10
319.87609162797253
20
14.248314639129882
30
0
10
319.6252272914536
20
13.999999999999977
30
0
0
CIRCLE
5
160
100
AcDbEntity
8
INTERIOR_PROFILES
100
AcDbCircle
10
-40.00000000003979
20
61.523893421713851
30
0
40
1.6999999999999993
210
0
220
0
230
-1
0
CIRCLE
5
161
100
AcDbEntity
8
INTERIOR_PROFILES
100
AcDbCircle
10
-17.372500000039963
20
61.523893421736098
30
0
40
1.6999999999999993
210
0
220
0
230
-1
0
CIRCLE
5
162
100
AcDbEntity
8
INTERIOR_PROFILES
100
AcDbCircle
10
-1013.313750000059
20
81.119883244888925
30
0
40
1.7000000000000171
210
0
220
0
230
-1
0
CIRCLE
5
163
100
AcDbEntity
8
INTERIOR_PROFILES
100
AcDbCircle
10
-1024.6275000000398
20
61.523893420745416
30
0
40
1.7000000000000171
210
0
220
0
230
-1
0
ARC
5
164
100
AcDbEntity
8
INTERIOR_PROFILES
100
AcDbCircle
10
-420.99999999974341
20
12.999999999827612
30
0
40
1.7000000000000108
210
0
220
0
230
-1
100
AcDbArc
50
-216.03187907965128
51
36.03187907965674
0
SPLINE
5
165
100
AcDbEntity
8
INTERIOR_PROFILES
100
AcDbSpline
70
0
71
3
72
11
73
7
74
0
42
0.000000001
43
0.0000000001
44
0.0000000001
40
0.31591804559411463
40
0.31591804559411463
40
0.31591804559411463
40
0.31591804559411463
40
0.50001066400672922
40
0.50001066400672922
40
0.50001066400672922
40
0.62030149142637425
40
0.62030149142637425
40
0.62030149142637425
40
0.62030149142637425
10
422.37477270810473
20
13.999999999999968
30
0
10
421.9908508948489
20
14.380019766260697
30
0
10
421.31394127142937
20
14.5876171007958
30
0
10
420.66946515048897
20
14.490045215498792
30
0
10
420.2483479622573
20
14.426289248983242
30
0
10
419.87609162792745
20
14.248314639193449
30
0
10
419.62522729138198
20
13.999999999999977
30
0
0
CIRCLE
5
166
100
AcDbEntity
8
INTERIOR_PROFILES
100
AcDbCircle
10
-990.68625000002066
20
41.927903596646388
30
0
40
1.7000000000000171
210
0
220
0
230
-1
0
CIRCLE
5
167
100
AcDbEntity
8
INTERIOR_PROFILES
100
AcDbCircle
10
-1002.000000000062
20
84.151393420767647
30
0
40
1.7000000000000171
210
0
220
0
230
-1
0
CIRCLE
5
168
100
AcDbEntity
8
INTERIOR_PROFILES
100
AcDbCircle
10
-40.000000000062386
20
84.151393421713863
30
0
40
1.6999999999999993
210
0
220
0
230
-1
0
CIRCLE
5
169
100
AcDbEntity
8
INTERIOR_PROFILES
100
AcDbCircle
10
-62.627500000039902
20
61.523893421691618
30
0
40
1.6999999999999993
210
0
220
0
230
-1
0
SPLINE
5
170
100
AcDbEntity
8
INTERIOR_PROFILES
100
AcDbSpline
70
0
71
3
72
11
73
7
74
0
42
0.000000001
43
0.0000000001
44
0.0000000001
40
0.31591804559462439
40
0.31591804559462439
40
0.31591804559462439
40
0.31591804559462439
40
0.50001066401130712
40
0.50001066401130712
40
0.50001066401130712
40
0.62030149139116364
40
0.62030149139116364
40
0.62030149139116364
40
0.62030149139116364
10
272.37477270799741
20
13.999999999999995
30
0
10
271.99085089467076
20
14.380019766245073
30
0
10
271.31394127120859
20
14.587617100717152
30
0
10
270.66946515025762
20
14.490045215351053
30
0
10
270.24834796216749
20
14.426289248812862
30
0
10
269.87609162799276
20
14.248314639095767
30
0
10
269.62522729148941
20
13.999999999999995
30
0
0
ARC
5
171
100
AcDbEntity
8
INTERIOR_PROFILES
100
AcDbCircle
10
-270.9999999997433
20
12.999999999680076
30
0
40
1.7000000000000774
210
0
220
0
230
-1
100
AcDbArc
50
-216.03187908580227
51
36.031879085806814
0
ARC
5
172
100
AcDbEntity
8
INTERIOR_PROFILES
100
AcDbCircle
10
-220.9999999997433
20
12.999999999630898
30
0
40
1.6999999999999935
210
0
220
0
230
-1
100
AcDbArc
50
-216.03187908784969
51
36.031879087857341
0
SPLINE
5
173
100
AcDbEntity
8
INTERIOR_PROFILES
100
AcDbSpline
70
0
71
3
72
11
73
7
74
0
42
0.000000001
43
0.0000000001
44
0.0000000001
40
0.31591804559479403
40
0.31591804559479403
40
0.31591804559479403
40
0.31591804559479403
40
0.50001066401458449
40
0.50001066401458449
40
0.50001066401458449
40
0.62030149137942192
40
0.62030149137942192
40
0.62030149137942192
40
0.62030149137942192
10
222.37477270796163
20
13.99999999999995
30
0
10
221.99085089460723
20
14.380019766243928
30
0
10
221.31394127112216
20
14.587617100694583
30
0
10
220.66946515016198
20
14.490045215299014
30
0
10
220.24834796212559
20
14.426289248750601
30
0
10
219.87609162801107
20
14.248314639059858
30
0
10
219.62522729152511
20
13.99999999999995
30
0
0
CIRCLE
5
174
100
AcDbEntity
8
INTERIOR_PROFILES
100
AcDbCircle
10
-51.313750000059031
20
81.11988324583514
30
0
40
1.6999999999999993
210
0
220
0
230
-1
0
CIRCLE
5
175
100
AcDbEntity
8
INTERIOR_PROFILES
100
AcDbCircle
10
-990.68625000005909
20
81.119883244911193
30
0
40
1.7000000000000171
210
0
220
0
230
-1
0
CIRCLE
5
176
100
AcDbEntity
8
INTERIOR_PROFILES
100
AcDbCircle
10
-51.313750000020661
20
41.927903597570364
30
0
40
1.6999999999999993
210
0
220
0
230
-1
0
CIRCLE
5
177
100
AcDbEntity
8
INTERIOR_PROFILES
100
AcDbCircle
10
-28.68625000002055
20
41.927903597592582
30
0
40
1.6999999999999993
210
0
220
0
230
-1
0
CIRCLE
5
178
100
AcDbEntity
8
INTERIOR_PROFILES
100
AcDbCircle
10
-1002.0000000000177
20
38.896393420767659
30
0
40
1.7000000000000171
210
0
220
0
230
-1
0
CIRCLE
5
179
100
AcDbEntity
8
INTERIOR_PROFILES
100
AcDbCircle
10
-1013.3137500000205
20
41.927903596624169
30
0
40
1.7000000000000171
210
0
220
0
230
-1
0
CIRCLE
5
180
100
AcDbEntity
8
INTERIOR_PROFILES
100
AcDbCircle
10
-979.37250000003985
20
61.523893420789904
30
0
40
1.7000000000000171
210
0
220
0
230
-1
0
CIRCLE
5
181
100
AcDbEntity
8
INTERIOR_PROFILES
100
AcDbCircle
10
-521.00000000006207
20
84.151393421240769
30
0
40
1.7000000000000171
210
0
220
0
230
-1
0
CIRCLE
5
182
100
AcDbEntity
8
INTERIOR_PROFILES
100
AcDbCircle
10
-40.000000000017906
20
38.896393421713853
30
0
40
1.6999999999999993
210
0
220
0
230
-1
0
CIRCLE
5
183
100
AcDbEntity
8
INTERIOR_PROFILES
100
AcDbCircle
10
-543.62750000003973
20
61.523893421218503
30
0
40
1.7000000000000171
210
0
220
0
230
-1
0
CIRCLE
5
184
100
AcDbEntity
8
INTERIOR_PROFILES
100
AcDbCircle
10
-28.686250000059204
20
81.119883245857366
30
0
40
1.6999999999999993
210
0
220
0
230
-1
0
ARC
5
185
100
AcDbEntity
8
INTERIOR_PROFILES
100
AcDbCircle
10
-120.9999999997433
20
12.999999999532541
30
0
40
1.7000000000000057
210
0
220
0
230
-1
100
AcDbArc
50
-216.03187909194671
51
36.031879091958359
0
SPLINE
5
186
100
AcDbEntity
8
INTERIOR_PROFILES
100
AcDbSpline
70
0
71
3
72
11
73
7
74
0
42
0.000000001
43
0.0000000001
44
0.0000000001
40
0.31591804559512604
40
0.31591804559512604
40
0.31591804559512604
40
0.31591804559512604
40
0.50001066401758487
40
0.50001066401758487
40
0.50001066401758487
40
0.62030149135593704
40
0.62030149135593704
40
0.62030149135593704
40
0.62030149135593704
10
122.37477270789014
20
13.999999999999932
30
0
10
121.99085089448857
20
14.380019766233421
30
0
10
121.31394127097593
20
14.587617100642083
30
0
10
120.66946515000836
20
14.49004521520064
30
0
10
120.24834796206591
20
14.426289248637216
30
0
10
119.87609162805484
20
14.248314638995021
30
0
10
119.62522729159659
20
13.999999999999932
30
0
0
CIRCLE
5
187
100
AcDbEntity
8
INTERIOR_PROFILES
100
AcDbCircle
10
-596.0000000000656
20
96.785840131895156
30
0
40
1.6999999999999993
210
0
220
0
230
-1
0
CIRCLE
5
188
100
AcDbEntity
8
INTERIOR_PROFILES
100
AcDbCircle
10
-532.31375000002072
20
41.927903597097213
30
0
40
1.7000000000000171
210
0
220
0
230
-1
0
CIRCLE
5
189
100
AcDbEntity
8
INTERIOR_PROFILES
100
AcDbCircle
10
-509.68625000005909
20
81.119883245384301
30
0
40
1.7000000000000171
210
0
220
0
230
-1
0
CIRCLE
5
190
100
AcDbEntity
8
INTERIOR_PROFILES
100
AcDbCircle
10
-71.000000000065597
20
96.785840131769561
30
0
40
1.6999999999999993
210
0
220
0
230
-1
0
CIRCLE
5
191
100
AcDbEntity
8
INTERIOR_PROFILES
100
AcDbCircle
10
-509.68625000002072
20
41.927903597119524
30
0
40
1.7000000000000171
210
0
220
0
230
-1
0
CIRCLE
5
192
100
AcDbEntity
8
INTERIOR_PROFILES
100
AcDbCircle
10
-5.0000000000453326
20
120.0477868417583
30
0
40
1.7000000000000004
210
0
220
0
230
-1
0
CIRCLE
5
193
100
AcDbEntity
8
INTERIOR_PROFILES
100
AcDbCircle
10
-596.00000000001216
20
26.261946710583032
30
0
40
1.6999999999999993
210
0
220
0
230
-1
0
CIRCLE
5
194
100
AcDbEntity
8
INTERIOR_PROFILES
100
AcDbCircle
10
-521.0000000000656
20
96.785840131877222
30
0
40
1.6999999999999993
210
0
220
0
230
-1
0
CIRCLE
5
195
100
AcDbEntity
8
INTERIOR_PROFILES
100
AcDbCircle
10
-1037.0000000000455
20
120.04778684326716
30
0
40
1.7000000000000171
210
0
220
0
230
-1
0
CIRCLE
5
196
100
AcDbEntity
8
INTERIOR_PROFILES
100
AcDbCircle
10
-446.00000000001216
20
26.261946710583032
30
0
40
1.6999999999999993
210
0
220
0
230
-1
0
CIRCLE
5
197
100
AcDbEntity
8
INTERIOR_PROFILES
100
AcDbCircle
10
-521.00000000001216
20
26.261946710583022
30
0
40
1.6999999999999993
210
0
220
0
230
-1
0
CIRCLE
5
198
100
AcDbEntity
8
INTERIOR_PROFILES
100
AcDbCircle
10
-5.0000000000240163
20
2.9999999994183746
30
0
40
1.7000000000000004
210
0
220
0
230
-1
0
CIRCLE
5
199
100
AcDbEntity
8
INTERIOR_PROFILES
100
AcDbCircle
10
-446.0000000000656
20
96.785840131859274
30
0
40
1.6999999999999993
210
0
220
0
230
-1
0
CIRCLE
5
200
100
AcDbEntity
8
INTERIOR_PROFILES
100
AcDbCircle
10
-532.31375000005914
20
81.11988324536199
30
0
40
1.7000000000000171
210
0
220
0
230
-1
0
CIRCLE
5
201
100
AcDbEntity
8
INTERIOR_PROFILES
100
AcDbCircle
10
-71.000000000012164
20
26.261946710583022
30
0
40
1.6999999999999993
210
0
220
0
230
-1
0
CIRCLE
5
202
100
AcDbEntity
8
INTERIOR_PROFILES
100
AcDbCircle
10
-971.0000000000656
20
96.785840131984884
30
0
40
1.6999999999999993
210
0
220
0
230
-1
0
CIRCLE
5
203
100
AcDbEntity
8
INTERIOR_PROFILES
100
AcDbCircle
10
-1037.0000000000241
20
3.0000000004334204
30
0
40
1.7000000000000171
210
0
220
0
230
-1
0
CIRCLE
5
204
100
AcDbEntity
8
INTERIOR_PROFILES
100
AcDbCircle
10
-971.00000000001216
20
26.261946710583022
30
0
40
1.6999999999999993
210
0
220
0
230
-1
0
LINE
5
205
100
AcDbEntity
8
BEND
100
AcDbLine
10
-1.7349063197065107
20
107.91681348704358
30
-6.3675217876202339e-10
11
1043.7349063204565
21
107.91681348729371
31
6.3609589817659185e-10
0
LINE
5
206
100
AcDbEntity
8
BEND
100
AcDbLine
10
1043.7349063201061
20
15.130973355291513
30
-5.1192591832283085e-10
11
-1.7349063200823878
21
15.130973355291522
31
5.1188261962487047e-10
0
LINE
5
207
100
AcDbEntity
8
BEND
100
AcDbLine
10
1032.0000000000207
20
33.392920065876559
30
-2.5299207173645755e-13
11
10.000000000000142
21
33.392920065876559
31
-2.516042929556761e-13
0
LINE
5
208
100
AcDbEntity
8
BEND
100
AcDbLine
10
9.9999999999884892
20
89.654866776460139
30
-1.827704654289164e-13
11
1032.0000000000086
21
89.654866776704679
31
-1.8124390877005681e-13
0
LINE
5
209
100
AcDbEntity
8
BEND_EXTENT
100
AcDbLine
10
1042.6211348712957
20
106.78584013200202
30
-1.7097434579227411e-13
11
-0.62113487077269269
21
106.78584013175242
31
-1.532107773982716e-13
0
LINE
5
210
100
AcDbEntity
8
BEND_EXTENT
100
AcDbLine
10
-1.9999999996558415
20
109.04778684233492
30
-1.354472090042691e-13
11
1044.0000000003438
21
109.04778684258517
31
-1.354472090042691e-13
0
LINE
5
211
100
AcDbEntity
8
BEND_EXTENT
100
AcDbLine
10
10.000000000056133
20
90.785840131751442
30
-2.5979218776228663e-13
11
1032.000000000078
21
90.785840131999464
31
-2.5091040356528538e-13
0
LINE
5
212
100
AcDbEntity
8
BEND_EXTENT
100
AcDbLine
10
1032.0000000000773
20
88.523893421414954
30
-2.5979218776228663e-13
11
10.000000000055564
21
88.523893421170428
31
-2.5979218776228663e-13
0
LINE
5
213
100
AcDbEntity
8
BEND_EXTENT
100
AcDbLine
10
10.000000000002416
20
34.523893421167543
30
-2.5979218776228663e-13
11
1032.0000000000241
21
34.523893421167557
31
-2.5979218776228663e-13
0
LINE
5
214
100
AcDbEntity
8
BEND_EXTENT
100
AcDbLine
10
1032.0000000000232
20
32.261946710583025
30
-2.4202861936828413e-13
11
10.000000000001421
21
32.261946710586557
31
-2.5091040356528538e-13
0
LINE
5
215
100
AcDbEntity
8
BEND_EXTENT
100
AcDbLine
10
-0.62113487102848808
20
16.261946710583032
30
-2.1094237467877974e-13
11
1042.6211348710526
21
16.26194671058304
31
-2.19824158875781e-13
0
LINE
5
216
100
AcDbEntity
8
BEND_EXTENT
100
AcDbLine
10
3.6252272920548023
20
13.999999999999986
30
-2.042810365310288e-13
11
-2.0000000000000284
21
13.999999999999995
31
-1.7763568394002505e-13
0
LINE
5
217
100
AcDbEntity
8
BEND_EXTENT
100
AcDbLine
10
29.625227298751469
20
13.999999999999995
30
-2.042810365310288e-13
11
6.3747727081819505
21
13.999999999999986
31
-2.042810365310288e-13
0
LINE
5
218
100
AcDbEntity
8
BEND_EXTENT
100
AcDbLine
10
75.625227298021827
20
13.999999999999995
30
-2.042810365310288e-13
11
32.374772700178625
21
13.999999999999986
31
-2.1316282072803006e-13
0
LINE
5
219
100
AcDbEntity
8
BEND_EXTENT
100
AcDbLine
10
119.62522729159687
20
13.999999999999986
30
-2.042810365310288e-13
11
78.374772700908153
21
13.999999999999986
31
-2.042810365310288e-13
0
LINE
5
220
100
AcDbEntity
8
BEND_EXTENT
100
AcDbLine
10
169.62522729156106
20
13.999999999999977
30
-2.042810365310288e-13
11
122.37477270789029
21
13.999999999999986
31
-2.042810365310288e-13
0
LINE
5
221
100
AcDbEntity
8
BEND_EXTENT
100
AcDbLine
10
219.62522729152525
20
13.999999999999986
30
-2.042810365310288e-13
11
172.3747727079261
21
13.999999999999995
31
-1.9539925233402755e-13
0
LINE
5
222
100
AcDbEntity
8
BEND_EXTENT
100
AcDbLine
10
269.62522729148941
20
13.999999999999977
30
-2.042810365310288e-13
11
222.37477270796177
21
13.999999999999986
31
-1.9539925233402755e-13
0
LINE
5
223
100
AcDbEntity
8
BEND_EXTENT
100
AcDbLine
10
319.6252272914536
20
13.999999999999986
30
-1.9539925233402755e-13
11
272.37477270799741
21
13.999999999999995
31
-1.9539925233402755e-13
0
LINE
5
224
100
AcDbEntity
8
BEND_EXTENT
100
AcDbLine
10
369.62522729141779
20
13.999999999999977
30
-1.9539925233402755e-13
11
322.37477270803322
21
13.999999999999986
31
-1.9539925233402755e-13
0
LINE
5
225
100
AcDbEntity
8
BEND_EXTENT
100
AcDbLine
10
419.62522729138215
20
13.999999999999986
30
-1.9539925233402755e-13
11
372.37477270806903
21
13.999999999999995
31
-1.9539925233402755e-13
0
LINE
5
226
100
AcDbEntity
8
BEND_EXTENT
100
AcDbLine
10
469.62522729134633
20
13.999999999999977
30
-1.9539925233402755e-13
11
422.37477270810484
21
13.999999999999986
31
-1.865174681370263e-13
0
LINE
5
227
100
AcDbEntity
8
BEND_EXTENT
100
AcDbLine
10
519.62522729131058
20
13.999999999999986
30
-1.9539925233402755e-13
11
472.37477270814054
21
13.999999999999995
31
-1.865174681370263e-13
0
LINE
5
228
100
AcDbEntity
8
BEND_EXTENT
100
AcDbLine
10
569.62522729127477
20
13.999999999999977
30
-1.865174681370263e-13
11
522.37477270817647
21
13.999999999999986
31
-1.865174681370263e-13
0
LINE
5
229
100
AcDbEntity
8
BEND_EXTENT
100
AcDbLine
10
619.62522729123907
20
13.999999999999986
30
-1.865174681370263e-13
11
572.37477270821216
21
13.999999999999995
31
-1.865174681370263e-13
0
LINE
5
230
100
AcDbEntity
8
BEND_EXTENT
100
AcDbLine
10
669.62522729120326
20
13.999999999999977
30
-1.865174681370263e-13
11
622.37477270824786
21
13.999999999999986
31
-1.865174681370263e-13
0
LINE
5
231
100
AcDbEntity
8
BEND_EXTENT
100
AcDbLine
10
719.62522729116756
20
13.999999999999986
30
-1.865174681370263e-13
11
672.37477270828367
21
13.999999999999995
31
-1.865174681370263e-13
0
LINE
5
232
100
AcDbEntity
8
BEND_EXTENT
100
AcDbLine
10
769.62522729113175
20
13.999999999999977
30
-1.865174681370263e-13
11
722.37477270831948
21
13.999999999999986
31
-1.7763568394002505e-13
0
LINE
5
233
100
AcDbEntity
8
BEND_EXTENT
100
AcDbLine
10
819.62522729109594
20
13.999999999999986
30
-1.7763568394002505e-13
11
772.37477270835529
21
13.999999999999995
31
-1.7763568394002505e-13
0
LINE
5
234
100
AcDbEntity
8
BEND_EXTENT
100
AcDbLine
10
869.62522729106024
20
13.999999999999977
30
-1.7763568394002505e-13
11
822.37477270839099
21
13.999999999999986
31
-1.7763568394002505e-13
0
LINE
5
235
100
AcDbEntity
8
BEND_EXTENT
100
AcDbLine
10
919.62522729102443
20
13.999999999999986
30
-1.7763568394002505e-13
11
872.37477270842692
21
13.999999999999995
31
-1.7763568394002505e-13
0
LINE
5
236
100
AcDbEntity
8
BEND_EXTENT
100
AcDbLine
10
963.62522729121861
20
13.999999999999986
30
-1.6875389974302379e-13
11
922.37477270846273
21
13.999999999999986
31
-1.7763568394002505e-13
0
LINE
5
237
100
AcDbEntity
8
BEND_EXTENT
100
AcDbLine
10
1009.6252272911858
20
13.999999999999986
30
-1.6875389974302379e-13
11
966.3747727088255
21
13.999999999999977
31
-1.7763568394002505e-13
0
LINE
5
238
100
AcDbEntity
8
BEND_EXTENT
100
AcDbLine
10
1035.6252272911081
20
13.999999999999968
30
-1.7763568394002505e-13
11
1012.3747727088585
21
13.999999999999977
31
-1.7763568394002505e-13
0
LINE
5
239
100
AcDbEntity
8
BEND_EXTENT
100
AcDbLine
10
1044.0000000000218
20
13.999999999999977
30
-1.7763568394002505e-13
11
1038.374772708712
21
13.999999999999986
31
-1.6875389974302379e-13
0
ENDSEC
0
SECTION
2
OBJECTS
0
DICTIONARY
5
C
100
AcDbDictionary
3
ACAD_GROUP
350
D
3
ACAD_MLINESTYLE
350
17
0
DICTIONARY
5
D
100
AcDbDictionary
0
DICTIONARY
5
1A
330
C
100
AcDbDictionary
0
DICTIONARY
5
17
100
AcDbDictionary
0
ENDSEC
0
EOF
