0
SECTION
2
HEADER
9
$INSUNITS
70
4
9
$ACADVER
1
AC1014
9
$HANDSEED
5
FFFF
0
ENDSEC
0
SECTION
2
TABLES
0
TABLE
2
VPORT
5
8
100
AcDbSymbolTable
0
ENDTAB
0
TABLE
2
LTYPE
5
5
100
AcDbSymbolTable
0
LTYPE
5
14
100
AcDbSymbolTableRecord
100
AcDbLinetypeTableRecord
2
BYBLOCK
70
0
0
LTYPE
5
15
100
AcDbSymbolTableRecord
100
AcDbLinetypeTableRecord
2
BYLAYER
70
0
0
LTYPE
5
16
100
AcDbSymbolTableRecord
100
AcDbLinetypeTableRecord
2
DASHED
70
0
3
Dashed __ __ __ __ __ __ __ __ __ __ __ __ __ _
72
65
73
2
40
0.75
49
0.5
74
0
49
-0.25
74
0
0
ENDTAB
0
TABLE
2
LAYER
5
2
100
AcDbSymbolTable
70
2
0
LAYER
5
50
100
AcDbSymbolTableRecord
100
AcDbLayerTableRecord
2
0
70
0
62
7
6
CONTINUOUS
0
ENDTAB
0
TABLE
2
STYLE
5
3
100
AcDbSymbolTable
70
1
0
STYLE
5
11
100
AcDbSymbolTableRecord
100
AcDbTextStyleTableRecord
2
STANDARD
70
0
0
ENDTAB
0
TABLE
2
VIEW
5
6
100
AcDbSymbolTable
70
0
0
ENDTAB
0
TABLE
2
UCS
5
7
100
AcDbSymbolTable
70
0
0
ENDTAB
0
TABLE
2
APPID
5
9
100
AcDbSymbolTable
70
2
0
APPID
5
12
100
AcDbSymbolTableRecord
100
AcDbRegAppTableRecord
2
ACAD
70
0
0
ENDTAB
0
TABLE
2
DIMSTYLE
5
A
100
AcDbSymbolTable
70
1
0
ENDTAB
0
TABLE
2
BLOCK_RECORD
5
1
100
AcDbSymbolTable
70
1
0
BLOCK_RECORD
5
1F
100
AcDbSymbolTableRecord
100
AcDbBlockTableRecord
2
*MODEL_SPACE
0
BLOCK_RECORD
5
1B
100
AcDbSymbolTableRecord
100
AcDbBlockTableRecord
2
*PAPER_SPACE
0
ENDTAB
0
ENDSEC
0
SECTION
2
BLOCKS
0
BLOCK
5
20
100
AcDbEntity
100
AcDbBlockBegin
2
*MODEL_SPACE
0
ENDBLK
5
21
100
AcDbEntity
100
AcDbBlockEnd
0
BLOCK
5
1C
100
AcDbEntity
100
AcDbBlockBegin
2
*PAPER_SPACE
0
ENDBLK
5
1D
100
AcDbEntity
100
AcDbBlockEnd
0
ENDSEC
0
SECTION
2
ENTITIES
0
LWPOLYLINE
5
100
100
AcDbEntity
8
OUTER_PROFILES
100
AcDbPolyline
90
16
70
1
43
0.0
10
586.85857864376271
20
-3.5527136788005009e-14
10
586.8585786437626
20
18.33265738870324
10
605.19123603246589
20
18.332657388703062
10
605.19123603246578
20
269.19123603246584
10
588.19123603246567
20
269.19123603246601
10
585.92928932188101
20
268.26194671058454
10
586.85857864376237
20
270.5238934211693
10
586.8585786437626
20
287.52389342116936
10
7.1054273576010019e-14
20
287.52389342116919
10
-2.8421709430404007e-13
20
269.19123603246589
10
-18.332657388703595
20
269.19123603246578
10
-18.332657388703666
20
18.332657388703062
10
-1.3326573887034243
20
18.332657388703346
10
0.92928932188108604
20
19.261946710584645
10
-2.8421709430404007e-13
20
16.999999999999993
10
0
20
0
0
CIRCLE
5
101
100
AcDbEntity
8
INTERIOR_PROFILES
100
AcDbCircle
10
-26.929289321881029
20
209.26194671058443
30
0
40
1.7000000000000171
210
0
220
0
230
-1
0
CIRCLE
5
102
100
AcDbEntity
8
INTERIOR_PROFILES
100
AcDbCircle
10
-26.929289321881029
20
177.26194671058443
30
0
40
1.7000000000000171
210
0
220
0
230
-1
0
CIRCLE
5
103
100
AcDbEntity
8
INTERIOR_PROFILES
100
AcDbCircle
10
-26.9292893218811
20
49.261946710584432
30
0
40
5
210
0
220
0
230
-1
0
CIRCLE
5
104
100
AcDbEntity
8
INTERIOR_PROFILES
100
AcDbCircle
10
-559.92928932188101
20
177.26194671058465
30
0
40
1.7000000000000171
210
0
220
0
230
-1
0
CIRCLE
5
105
100
AcDbEntity
8
INTERIOR_PROFILES
100
AcDbCircle
10
-559.92928932188101
20
209.26194671058465
30
0
40
1.7000000000000171
210
0
220
0
230
-1
0
CIRCLE
5
106
100
AcDbEntity
8
INTERIOR_PROFILES
100
AcDbCircle
10
-559.92928932188101
20
49.261946710584645
30
0
40
5
210
0
220
0
230
-1
0
LINE
5
107
100
AcDbEntity
8
BEND
100
AcDbLine
10
-0.20168403341116914
20
269.19123603246589
30
-8.7469080126937352e-13
11
-0.20168403341116914
21
18.797302049642575
31
-8.5661613678452091e-13
0
LINE
5
108
100
AcDbEntity
8
BEND
100
AcDbLine
10
586.3939339828213
20
269.39292006587698
30
-5.664028230240806e-13
11
-2.8421709430404007e-13
21
269.39292006587681
31
-8.0186298159571796e-13
0
LINE
5
109
100
AcDbEntity
8
BEND
100
AcDbLine
10
587.06026267717357
20
18.332657388703204
30
-5.5143628372194525e-13
11
587.06026267717334
21
268.72659137152061
31
-5.4865556610889104e-13
0
LINE
5
110
100
AcDbEntity
8
BEND
100
AcDbLine
10
0.46464466093993906
20
18.130973355292319
30
-7.6226349117019565e-13
11
586.8585786437626
21
18.130973355292284
31
-5.2569222916189274e-13
0
LINE
5
111
100
AcDbEntity
8
BEND_EXTENT
100
AcDbLine
10
-3.5527136788005009e-13
20
270.52389342116919
30
-7.9047879353311166e-13
11
586.85857864376248
21
270.5238934211693
31
-5.6039198115366762e-13
0
LINE
5
112
100
AcDbEntity
8
BEND_EXTENT
100
AcDbLine
10
-1.3326573887034243
20
18.332657388703346
30
-8.8870090825481131e-13
11
-1.3326573887034954
21
269.19123603246595
31
-8.176466346788014e-13
0
LWPOLYLINE
5
113
100
AcDbEntity
8
BEND_EXTENT
100
AcDbPolyline
90
4
70
1
43
0.0
10
0.92928932188101498
20
268.26194671058454
10
0.92928932188087288
20
19.261946710584574
10
585.92928932188124
20
19.261946710584574
10
585.92928932188113
20
268.26194671058465
0
LINE
5
114
100
AcDbEntity
8
BEND_EXTENT
100
AcDbLine
10
588.19123603246567
20
269.19123603246601
30
-4.8881521902297162e-13
11
588.19123603246578
21
18.332657388703311
31
-4.8881521902297162e-13
0
LINE
5
115
100
AcDbEntity
8
BEND_EXTENT
100
AcDbLine
10
586.85857864376248
20
17.000000000000028
30
-5.1598306016866136e-13
11
-2.8421709430404007e-13
21
17.000000000000028
31
-7.460698725481053e-13
0
ENDSEC
0
SECTION
2
OBJECTS
0
DICTIONARY
5
C
100
AcDbDictionary
3
ACAD_GROUP
350
D
3
ACAD_MLINESTYLE
350
17
0
DICTIONARY
5
D
100
AcDbDictionary
0
DICTIONARY
5
1A
330
C
100
AcDbDictionary
0
DICTIONARY
5
17
100
AcDbDictionary
0
ENDSEC
0
EOF
