0
SECTION
2
HEADER
9
$INSUNITS
70
4
9
$ACADVER
1
AC1014
9
$HANDSEED
5
FFFF
0
ENDSEC
0
SECTION
2
TABLES
0
TABLE
2
VPORT
5
8
100
AcDbSymbolTable
0
ENDTAB
0
TABLE
2
LTYPE
5
5
100
AcDbSymbolTable
0
LTYPE
5
14
100
AcDbSymbolTableRecord
100
AcDbLinetypeTableRecord
2
BYBLOCK
70
0
0
LTYPE
5
15
100
AcDbSymbolTableRecord
100
AcDbLinetypeTableRecord
2
BYLAYER
70
0
0
LTYPE
5
16
100
AcDbSymbolTableRecord
100
AcDbLinetypeTableRecord
2
DASHED
70
0
3
Dashed __ __ __ __ __ __ __ __ __ __ __ __ __ _
72
65
73
2
40
0.75
49
0.5
74
0
49
-0.25
74
0
0
ENDTAB
0
TABLE
2
LAYER
5
2
100
AcDbSymbolTable
70
2
0
LAYER
5
50
100
AcDbSymbolTableRecord
100
AcDbLayerTableRecord
2
0
70
0
62
7
6
CONTINUOUS
0
ENDTAB
0
TABLE
2
STYLE
5
3
100
AcDbSymbolTable
70
1
0
STYLE
5
11
100
AcDbSymbolTableRecord
100
AcDbTextStyleTableRecord
2
STANDARD
70
0
0
ENDTAB
0
TABLE
2
VIEW
5
6
100
AcDbSymbolTable
70
0
0
ENDTAB
0
TABLE
2
UCS
5
7
100
AcDbSymbolTable
70
0
0
ENDTAB
0
TABLE
2
APPID
5
9
100
AcDbSymbolTable
70
2
0
APPID
5
12
100
AcDbSymbolTableRecord
100
AcDbRegAppTableRecord
2
ACAD
70
0
0
ENDTAB
0
TABLE
2
DIMSTYLE
5
A
100
AcDbSymbolTable
70
1
0
ENDTAB
0
TABLE
2
BLOCK_RECORD
5
1
100
AcDbSymbolTable
70
1
0
BLOCK_RECORD
5
1F
100
AcDbSymbolTableRecord
100
AcDbBlockTableRecord
2
*MODEL_SPACE
0
BLOCK_RECORD
5
1B
100
AcDbSymbolTableRecord
100
AcDbBlockTableRecord
2
*PAPER_SPACE
0
ENDTAB
0
ENDSEC
0
SECTION
2
BLOCKS
0
BLOCK
5
20
100
AcDbEntity
100
AcDbBlockBegin
2
*MODEL_SPACE
0
ENDBLK
5
21
100
AcDbEntity
100
AcDbBlockEnd
0
BLOCK
5
1C
100
AcDbEntity
100
AcDbBlockBegin
2
*PAPER_SPACE
0
ENDBLK
5
1D
100
AcDbEntity
100
AcDbBlockEnd
0
ENDSEC
0
SECTION
2
ENTITIES
0
LINE
5
100
100
AcDbEntity
8
OUTER_PROFILES
100
AcDbLine
10
2047.8585786437616
20
943.5238934211693
30
0
11
2047.8585786437623
21
976.54778684233906
31
0
0
LINE
5
101
100
AcDbEntity
8
OUTER_PROFILES
100
AcDbLine
10
2047.8585786437623
20
976.54778684233906
30
0
11
0
21
976.54778684233906
31
0
0
LINE
5
102
100
AcDbEntity
8
OUTER_PROFILES
100
AcDbLine
10
0
20
976.54778684233906
30
0
11
8.5265128291212022e-13
21
943.5238934211693
31
0
0
SPLINE
5
103
100
AcDbEntity
8
OUTER_PROFILES
100
AcDbSpline
70
0
71
3
72
11
73
7
74
0
42
0.000000001
43
0.0000000001
44
0.0000000001
40
-3.1415926535897931
40
-3.1415926535897931
40
-3.1415926535897931
40
-3.1415926535897931
40
-1.6686269019992415
40
-1.6686269019992415
40
-1.6686269019992415
40
-1.5707963267948966
40
-1.5707963267948966
40
-1.5707963267948966
40
-1.5707963267948966
10
8.5265128291212022e-13
20
943.52389342115259
30
0
10
8.5265128291212022e-13
20
942.81686986038903
30
0
10
0.41368452811212819
20
942.1098462996257
30
0
10
0.90232540329679978
20
941.40282273886226
30
0
10
0.9347796662939345
20
941.35586406276434
30
0
10
0.96738980826614807
20
941.3089053866662
30
0
10
1.0000000000007958
20
941.26194671056805
30
0
0
LINE
5
104
100
AcDbEntity
8
OUTER_PROFILES
100
AcDbLine
10
1.0000000000007958
20
941.26194671056805
30
0
11
0.92928932188101498
21
941.1912360324651
31
0
0
SPLINE
5
105
100
AcDbEntity
8
OUTER_PROFILES
100
AcDbSpline
70
0
71
3
72
11
73
7
74
0
42
0.000000001
43
0.0000000001
44
0.0000000001
40
1.5707963267948966
40
1.5707963267948966
40
1.5707963267948966
40
1.5707963267948966
40
1.6686269019992415
40
1.6686269019992415
40
1.6686269019992415
40
3.1415926535897931
40
3.1415926535897931
40
3.1415926535897931
40
3.1415926535897931
10
0.92928932188101498
20
941.19123603246624
30
0
10
0.88233064578304266
20
941.22384622420088
30
0
10
0.83537196968478611
20
941.25645636617321
30
0
10
0.78841329358681378
20
941.28891062917023
30
0
10
0.081389732823424765
20
941.77755150435462
30
0
10
-0.62563382794024847
20
942.19123603246601
30
0
10
-1.3326573887036375
20
942.19123603246601
30
0
0
LINE
5
106
100
AcDbEntity
8
OUTER_PROFILES
100
AcDbLine
10
-1.3326573887036373
20
942.19123603246601
30
0
11
-14.332657388703467
21
942.19123603246612
31
0
0
LINE
5
107
100
AcDbEntity
8
OUTER_PROFILES
100
AcDbLine
10
-14.332657388703467
20
942.19123603246612
30
0
11
-14.332657388703467
21
14.332657388703183
31
0
0
LINE
5
108
100
AcDbEntity
8
OUTER_PROFILES
100
AcDbLine
10
-14.332657388703467
20
14.332657388703183
30
0
11
-1.3326573887033533
21
14.332657388703325
31
0
0
SPLINE
5
109
100
AcDbEntity
8
OUTER_PROFILES
100
AcDbSpline
70
0
71
3
72
11
73
7
74
0
42
0.000000001
43
0.0000000001
44
0.0000000001
40
-3.1415926535897931
40
-3.1415926535897931
40
-3.1415926535897931
40
-3.1415926535897931
40
-1.6686269019992415
40
-1.6686269019992415
40
-1.6686269019992415
40
-1.5707963267948966
40
-1.5707963267948966
40
-1.5707963267948966
40
-1.5707963267948966
10
-1.3326573887036375
20
14.332657388703325
30
0
10
-0.62563382794024847
20
14.332657388703325
30
0
10
0.081389732823424765
20
14.746341916814742
30
0
10
0.78841329358681378
20
15.234982791999272
30
0
10
0.83537196968478611
20
15.267437054996265
30
0
10
0.88233064578304266
20
15.300047196968478
30
0
10
0.92928932188101498
20
15.332657388703126
30
0
0
LINE
5
110
100
AcDbEntity
8
OUTER_PROFILES
100
AcDbLine
10
0.92928932188101498
20
15.332657388703128
30
0
11
0.99999999999965894
21
15.261946710584624
31
0
0
SPLINE
5
111
100
AcDbEntity
8
OUTER_PROFILES
100
AcDbSpline
70
0
71
3
72
11
73
7
74
0
42
0.000000001
43
0.0000000001
44
0.0000000001
40
1.5707963267948966
40
1.5707963267948966
40
1.5707963267948966
40
1.5707963267948966
40
1.6686269019992415
40
1.6686269019992415
40
1.6686269019992415
40
3.1415926535897931
40
3.1415926535897931
40
3.1415926535897931
40
3.1415926535897931
10
1.0000000000007958
20
15.261946710584624
30
0
10
0.96738980826614807
20
15.21498803448651
30
0
10
0.9347796662939345
20
15.168029358388395
30
0
10
0.90232540329679978
20
15.121070682290423
30
0
10
0.41368452811212819
20
14.414047121526892
30
0
10
8.5265128291212022e-13
20
13.707023560763645
30
0
10
8.5265128291212022e-13
20
13.000000000000114
30
0
0
LINE
5
112
100
AcDbEntity
8
OUTER_PROFILES
100
AcDbLine
10
8.5253666174953212e-13
20
13.000000000000115
30
0
11
0
21
0
31
0
0
LINE
5
113
100
AcDbEntity
8
OUTER_PROFILES
100
AcDbLine
10
0
20
0
30
0
11
2047.8585786437623
21
0
31
0
0
LINE
5
114
100
AcDbEntity
8
OUTER_PROFILES
100
AcDbLine
10
2047.8585786437623
20
0
30
0
11
2047.8585786437613
21
13.000000000000114
31
0
0
SPLINE
5
115
100
AcDbEntity
8
OUTER_PROFILES
100
AcDbSpline
70
0
71
3
72
11
73
7
74
0
42
0.000000001
43
0.0000000001
44
0.0000000001
40
-3.1415926535897931
40
-3.1415926535897931
40
-3.1415926535897931
40
-3.1415926535897931
40
-1.6686269019992415
40
-1.6686269019992415
40
-1.6686269019992415
40
-1.5707963267948966
40
-1.5707963267948966
40
-1.5707963267948966
40
-1.5707963267948966
10
2047.8585786437613
20
13.000000000000114
30
0
10
2047.8585786437613
20
13.707023560763645
30
0
10
2047.4448941156502
20
14.414047121526892
30
0
10
2046.9562532404655
20
15.121070682290423
30
0
10
2046.9237989774683
20
15.168029358388395
30
0
10
2046.891188835496
20
15.21498803448651
30
0
10
2046.8585786437616
20
15.261946710584624
30
0
0
LINE
5
116
100
AcDbEntity
8
OUTER_PROFILES
100
AcDbLine
10
2046.8585786437616
20
15.261946710584622
30
0
11
2046.9292893218471
21
15.332657388669908
31
0
0
SPLINE
5
117
100
AcDbEntity
8
OUTER_PROFILES
100
AcDbSpline
70
0
71
3
72
11
73
7
74
0
42
0.000000001
43
0.0000000001
44
0.0000000001
40
1.5707963267948966
40
1.5707963267948966
40
1.5707963267948966
40
1.5707963267948966
40
1.6686269019992415
40
1.6686269019992415
40
1.6686269019992415
40
3.1415926535897931
40
3.1415926535897931
40
3.1415926535897931
40
3.1415926535897931
10
2046.9292893217994
20
15.332657388703126
30
0
10
2046.9762479978974
20
15.300047196968478
30
0
10
2047.0232066739957
20
15.267437054996265
30
0
10
2047.0701653500937
20
15.234982791999272
30
0
10
2047.7771889108569
20
14.746341916814742
30
0
10
2048.4842124716206
20
14.332657388703325
30
0
10
2049.191236032384
20
14.332657388703325
30
0
0
LINE
5
118
100
AcDbEntity
8
OUTER_PROFILES
100
AcDbLine
10
2049.1912360323845
20
14.332657388703325
30
0
11
2062.1912360324659
21
14.332657388703325
31
0
0
LINE
5
119
100
AcDbEntity
8
OUTER_PROFILES
100
AcDbLine
10
2062.1912360324659
20
14.332657388703325
30
0
11
2062.1912360324659
21
942.19123603246612
31
0
0
LINE
5
120
100
AcDbEntity
8
OUTER_PROFILES
100
AcDbLine
10
2062.1912360324659
20
942.19123603246612
30
0
11
2049.1912360323263
21
942.19123603246601
31
0
0
SPLINE
5
121
100
AcDbEntity
8
OUTER_PROFILES
100
AcDbSpline
70
0
71
3
72
11
73
7
74
0
42
0.000000001
43
0.0000000001
44
0.0000000001
40
-3.1415926535897931
40
-3.1415926535897931
40
-3.1415926535897931
40
-3.1415926535897931
40
-1.6686269019992415
40
-1.6686269019992415
40
-1.6686269019992415
40
-1.5707963267948966
40
-1.5707963267948966
40
-1.5707963267948966
40
-1.5707963267948966
10
2049.1912360323263
20
942.19123603246601
30
0
10
2048.4842124715628
20
942.19123603246601
30
0
10
2047.7771889107994
20
941.77755150435462
30
0
10
2047.0701653500359
20
941.28891062917023
30
0
10
2047.0232066739379
20
941.25645636617321
30
0
10
2046.9762479978397
20
941.22384622420088
30
0
10
2046.9292893217416
20
941.19123603246624
30
0
0
LINE
5
122
100
AcDbEntity
8
OUTER_PROFILES
100
AcDbLine
10
2046.9292893217414
20
941.19123603246612
30
0
11
2046.8585786437616
21
941.26194671058488
31
0
0
SPLINE
5
123
100
AcDbEntity
8
OUTER_PROFILES
100
AcDbSpline
70
0
71
3
72
11
73
7
74
0
42
0.000000001
43
0.0000000001
44
0.0000000001
40
1.5707963267948966
40
1.5707963267948966
40
1.5707963267948966
40
1.5707963267948966
40
1.6686269019992415
40
1.6686269019992415
40
1.6686269019992415
40
3.1415926535897931
40
3.1415926535897931
40
3.1415926535897931
40
3.1415926535897931
10
2046.8585786437616
20
941.26194671059409
30
0
10
2046.891188835496
20
941.30890538669223
30
0
10
2046.9237989774683
20
941.35586406279026
30
0
10
2046.9562532404655
20
941.40282273888829
30
0
10
2047.4448941156502
20
942.10984629965174
30
0
10
2047.8585786437613
20
942.81686986041507
30
0
10
2047.8585786437613
20
943.52389342117863
30
0
0
LWPOLYLINE
5
124
100
AcDbEntity
8
INTERIOR_PROFILES
100
AcDbPolyline
90
8
70
1
43
0.0
10
435.42928932188119
20
960.52389342116976
10
412.42928932188107
20
960.52389342116976
10
412.42928932188107
20
938.76194671058499
10
411.42928932188113
20
938.76194671058499
10
411.42928932188113
20
963.28584013175441
10
436.42928932188113
20
963.28584013175441
10
436.42928932188113
20
938.76194671058499
10
435.42928932188119
20
938.76194671058499
0
LWPOLYLINE
5
125
100
AcDbEntity
8
INTERIOR_PROFILES
100
AcDbPolyline
90
8
70
1
43
0.0
10
1935.4292893218812
20
938.76194671058499
10
1935.4292893218808
20
960.52389342116976
10
1912.4292893218808
20
960.52389342116976
10
1912.429289321881
20
938.76194671058499
10
1911.4292893218812
20
938.76194671058499
10
1911.4292893218812
20
963.28584013175441
10
1936.4292893218812
20
963.28584013175441
10
1936.4292893218812
20
938.76194671058499
0
LWPOLYLINE
5
126
100
AcDbEntity
8
INTERIOR_PROFILES
100
AcDbPolyline
90
8
70
1
43
0.0
10
1312.429289321881
20
938.76194671058499
10
1311.4292893218812
20
938.76194671058499
10
1311.4292893218812
20
963.28584013175441
10
1336.4292893218812
20
963.28584013175441
10
1336.4292893218812
20
938.76194671058499
10
1335.4292893218812
20
938.76194671058499
10
1335.4292893218812
20
960.52389342116976
10
1312.429289321881
20
960.52389342116976
0
LWPOLYLINE
5
127
100
AcDbEntity
8
INTERIOR_PROFILES
100
AcDbPolyline
90
8
70
1
43
0.0
10
1012.4292893218809
20
960.52389342116976
10
1012.429289321881
20
938.76194671058499
10
1011.4292893218811
20
938.76194671058499
10
1011.4292893218811
20
963.28584013175441
10
1036.4292893218812
20
963.28584013175441
10
1036.4292893218812
20
938.76194671058499
10
1035.4292893218812
20
938.76194671058499
10
1035.429289321881
20
960.52389342116976
0
LWPOLYLINE
5
128
100
AcDbEntity
8
INTERIOR_PROFILES
100
AcDbPolyline
90
8
70
1
43
0.0
10
1635.4292893218812
20
938.76194671058499
10
1635.4292893218812
20
960.52389342116976
10
1612.429289321881
20
960.52389342116976
10
1612.429289321881
20
938.76194671058499
10
1611.4292893218812
20
938.76194671058499
10
1611.4292893218812
20
963.28584013175441
10
1636.4292893218812
20
963.28584013175441
10
1636.4292893218812
20
938.76194671058499
0
LWPOLYLINE
5
129
100
AcDbEntity
8
INTERIOR_PROFILES
100
AcDbPolyline
90
8
70
1
43
0.0
10
112.42928932188107
20
960.52389342116976
10
112.42928932188107
20
938.76194671058499
10
111.42928932188113
20
938.76194671058499
10
111.42928932188113
20
963.28584013175441
10
136.42928932188113
20
963.28584013175441
10
136.42928932188113
20
938.76194671058499
10
135.42928932188119
20
938.76194671058499
10
135.42928932188119
20
960.52389342116976
0
LWPOLYLINE
5
130
100
AcDbEntity
8
INTERIOR_PROFILES
100
AcDbPolyline
90
8
70
1
43
0.0
10
712.42928932188101
20
960.52389342116976
10
712.42928932188101
20
938.76194671058499
10
711.42928932188113
20
938.76194671058499
10
711.42928932188113
20
963.28584013175441
10
736.42928932188113
20
963.28584013175441
10
736.42928932188113
20
938.76194671058499
10
735.42928932188124
20
938.76194671058499
10
735.42928932188124
20
960.52389342116976
0
CIRCLE
5
131
100
AcDbEntity
8
INTERIOR_PROFILES
100
AcDbCircle
10
-198.92928932188056
20
973.54778684233906
30
0
40
1.7000000000000171
210
0
220
0
230
-1
0
CIRCLE
5
132
100
AcDbEntity
8
INTERIOR_PROFILES
100
AcDbCircle
10
-448.92928932188056
20
973.54778684233906
30
0
40
1.7000000000000171
210
0
220
0
230
-1
0
CIRCLE
5
133
100
AcDbEntity
8
INTERIOR_PROFILES
100
AcDbCircle
10
-98.92928932188056
20
973.54778684233906
30
0
40
1.6999999999999993
210
0
220
0
230
-1
0
CIRCLE
5
134
100
AcDbEntity
8
INTERIOR_PROFILES
100
AcDbCircle
10
-348.92928932188056
20
973.54778684233906
30
0
40
1.7000000000000171
210
0
220
0
230
-1
0
CIRCLE
5
135
100
AcDbEntity
8
INTERIOR_PROFILES
100
AcDbCircle
10
-1248.9292893218806
20
973.54778684233906
30
0
40
1.7000000000000171
210
0
220
0
230
-1
0
CIRCLE
5
136
100
AcDbEntity
8
INTERIOR_PROFILES
100
AcDbCircle
10
-798.92928932188056
20
973.54778684233906
30
0
40
1.7000000000000171
210
0
220
0
230
-1
0
CIRCLE
5
137
100
AcDbEntity
8
INTERIOR_PROFILES
100
AcDbCircle
10
-698.92928932188056
20
973.54778684233906
30
0
40
1.7000000000000171
210
0
220
0
230
-1
0
CIRCLE
5
138
100
AcDbEntity
8
INTERIOR_PROFILES
100
AcDbCircle
10
-1098.9292893218806
20
973.54778684233906
30
0
40
1.7000000000000171
210
0
220
0
230
-1
0
CIRCLE
5
139
100
AcDbEntity
8
INTERIOR_PROFILES
100
AcDbCircle
10
-248.92928932188056
20
973.54778684233906
30
0
40
1.7000000000000171
210
0
220
0
230
-1
0
CIRCLE
5
140
100
AcDbEntity
8
INTERIOR_PROFILES
100
AcDbCircle
10
-548.92928932188056
20
973.54778684233906
30
0
40
1.7000000000000171
210
0
220
0
230
-1
0
CIRCLE
5
141
100
AcDbEntity
8
INTERIOR_PROFILES
100
AcDbCircle
10
-898.92928932188056
20
973.54778684233906
30
0
40
1.7000000000000171
210
0
220
0
230
-1
0
CIRCLE
5
142
100
AcDbEntity
8
INTERIOR_PROFILES
100
AcDbCircle
10
-948.92928932188056
20
973.54778684233906
30
0
40
1.7000000000000171
210
0
220
0
230
-1
0
CIRCLE
5
143
100
AcDbEntity
8
INTERIOR_PROFILES
100
AcDbCircle
10
-1448.9292893218806
20
973.54778684233906
30
0
40
1.6999999999998749
210
0
220
0
230
-1
0
CIRCLE
5
144
100
AcDbEntity
8
INTERIOR_PROFILES
100
AcDbCircle
10
-848.92928932188056
20
973.54778684233906
30
0
40
1.7000000000000171
210
0
220
0
230
-1
0
CIRCLE
5
145
100
AcDbEntity
8
INTERIOR_PROFILES
100
AcDbCircle
10
-1798.9292893218806
20
973.54778684233906
30
0
40
1.6999999999998749
210
0
220
0
230
-1
0
CIRCLE
5
146
100
AcDbEntity
8
INTERIOR_PROFILES
100
AcDbCircle
10
-1948.9292893218806
20
973.54778684233906
30
0
40
1.6999999999998749
210
0
220
0
230
-1
0
CIRCLE
5
147
100
AcDbEntity
8
INTERIOR_PROFILES
100
AcDbCircle
10
-1898.9292893218806
20
973.54778684233906
30
0
40
1.6999999999998749
210
0
220
0
230
-1
0
CIRCLE
5
148
100
AcDbEntity
8
INTERIOR_PROFILES
100
AcDbCircle
10
-1998.9292893218806
20
973.54778684233906
30
0
40
1.6999999999998749
210
0
220
0
230
-1
0
CIRCLE
5
149
100
AcDbEntity
8
INTERIOR_PROFILES
100
AcDbCircle
10
-1748.9292893218806
20
973.54778684233906
30
0
40
1.6999999999998749
210
0
220
0
230
-1
0
CIRCLE
5
150
100
AcDbEntity
8
INTERIOR_PROFILES
100
AcDbCircle
10
-1648.9292893218806
20
973.54778684233906
30
0
40
1.6999999999998749
210
0
220
0
230
-1
0
CIRCLE
5
151
100
AcDbEntity
8
INTERIOR_PROFILES
100
AcDbCircle
10
-1498.9292893218806
20
973.54778684233906
30
0
40
1.6999999999998749
210
0
220
0
230
-1
0
CIRCLE
5
152
100
AcDbEntity
8
INTERIOR_PROFILES
100
AcDbCircle
10
-1698.9292893218806
20
973.54778684233906
30
0
40
1.6999999999998749
210
0
220
0
230
-1
0
CIRCLE
5
153
100
AcDbEntity
8
INTERIOR_PROFILES
100
AcDbCircle
10
-1598.9292893218806
20
973.54778684233906
30
0
40
1.6999999999998749
210
0
220
0
230
-1
0
CIRCLE
5
154
100
AcDbEntity
8
INTERIOR_PROFILES
100
AcDbCircle
10
-1548.9292893218806
20
973.54778684233906
30
0
40
1.6999999999998749
210
0
220
0
230
-1
0
CIRCLE
5
155
100
AcDbEntity
8
INTERIOR_PROFILES
100
AcDbCircle
10
-1398.9292893218806
20
973.54778684233906
30
0
40
1.6999999999998749
210
0
220
0
230
-1
0
CIRCLE
5
156
100
AcDbEntity
8
INTERIOR_PROFILES
100
AcDbCircle
10
-1848.9292893218806
20
973.54778684233906
30
0
40
1.6999999999998749
210
0
220
0
230
-1
0
CIRCLE
5
157
100
AcDbEntity
8
INTERIOR_PROFILES
100
AcDbCircle
10
-48.92928932188056
20
973.54778684233906
30
0
40
1.6999999999999993
210
0
220
0
230
-1
0
CIRCLE
5
158
100
AcDbEntity
8
INTERIOR_PROFILES
100
AcDbCircle
10
-598.92928932188056
20
973.54778684233906
30
0
40
1.7000000000000171
210
0
220
0
230
-1
0
CIRCLE
5
159
100
AcDbEntity
8
INTERIOR_PROFILES
100
AcDbCircle
10
-1198.9292893218806
20
973.54778684233906
30
0
40
1.7000000000000171
210
0
220
0
230
-1
0
CIRCLE
5
160
100
AcDbEntity
8
INTERIOR_PROFILES
100
AcDbCircle
10
-998.92928932188056
20
973.54778684233906
30
0
40
1.7000000000000171
210
0
220
0
230
-1
0
CIRCLE
5
161
100
AcDbEntity
8
INTERIOR_PROFILES
100
AcDbCircle
10
-748.92928932188056
20
973.54778684233906
30
0
40
1.7000000000000171
210
0
220
0
230
-1
0
CIRCLE
5
162
100
AcDbEntity
8
INTERIOR_PROFILES
100
AcDbCircle
10
-1298.9292893218806
20
973.54778684233906
30
0
40
1.6999999999998749
210
0
220
0
230
-1
0
CIRCLE
5
163
100
AcDbEntity
8
INTERIOR_PROFILES
100
AcDbCircle
10
-1048.9292893218806
20
973.54778684233906
30
0
40
1.7000000000000171
210
0
220
0
230
-1
0
CIRCLE
5
164
100
AcDbEntity
8
INTERIOR_PROFILES
100
AcDbCircle
10
-298.92928932188056
20
973.54778684233906
30
0
40
1.7000000000000171
210
0
220
0
230
-1
0
CIRCLE
5
165
100
AcDbEntity
8
INTERIOR_PROFILES
100
AcDbCircle
10
-1348.9292893218806
20
973.54778684233906
30
0
40
1.6999999999998749
210
0
220
0
230
-1
0
CIRCLE
5
166
100
AcDbEntity
8
INTERIOR_PROFILES
100
AcDbCircle
10
-648.92928932188056
20
973.54778684233906
30
0
40
1.7000000000000171
210
0
220
0
230
-1
0
CIRCLE
5
167
100
AcDbEntity
8
INTERIOR_PROFILES
100
AcDbCircle
10
-1148.9292893218806
20
973.54778684233906
30
0
40
1.7000000000000171
210
0
220
0
230
-1
0
CIRCLE
5
168
100
AcDbEntity
8
INTERIOR_PROFILES
100
AcDbCircle
10
-398.92928932188056
20
973.54778684233906
30
0
40
1.7000000000000171
210
0
220
0
230
-1
0
CIRCLE
5
169
100
AcDbEntity
8
INTERIOR_PROFILES
100
AcDbCircle
10
-498.92928932188056
20
973.54778684233906
30
0
40
1.7000000000000171
210
0
220
0
230
-1
0
CIRCLE
5
170
100
AcDbEntity
8
INTERIOR_PROFILES
100
AcDbCircle
10
7.3326573887035806
20
55.261946710584766
30
0
40
1.7000000000000004
210
0
220
0
230
-1
0
CIRCLE
5
171
100
AcDbEntity
8
INTERIOR_PROFILES
100
AcDbCircle
10
-2055.1912360324659
20
55.261946710584766
30
0
40
1.6999999999998749
210
0
220
0
230
-1
0
CIRCLE
5
172
100
AcDbEntity
8
INTERIOR_PROFILES
100
AcDbCircle
10
10.33265738870341
20
513.26194671058477
30
0
40
1.7000000000000004
210
0
220
0
230
-1
0
CIRCLE
5
173
100
AcDbEntity
8
INTERIOR_PROFILES
100
AcDbCircle
10
-2058.1912360324659
20
213.26194671058474
30
0
40
1.6999999999998749
210
0
220
0
230
-1
0
CIRCLE
5
174
100
AcDbEntity
8
INTERIOR_PROFILES
100
AcDbCircle
10
10.33265738870341
20
813.26194671058477
30
0
40
1.7000000000000004
210
0
220
0
230
-1
0
CIRCLE
5
175
100
AcDbEntity
8
INTERIOR_PROFILES
100
AcDbCircle
10
-2058.1912360324659
20
513.26194671058477
30
0
40
1.6999999999998749
210
0
220
0
230
-1
0
CIRCLE
5
176
100
AcDbEntity
8
INTERIOR_PROFILES
100
AcDbCircle
10
-2058.1912360324659
20
813.26194671058477
30
0
40
1.6999999999998749
210
0
220
0
230
-1
0
CIRCLE
5
177
100
AcDbEntity
8
INTERIOR_PROFILES
100
AcDbCircle
10
7.3326573887035806
20
926.26194671058465
30
0
40
1.7000000000000004
210
0
220
0
230
-1
0
CIRCLE
5
178
100
AcDbEntity
8
INTERIOR_PROFILES
100
AcDbCircle
10
10.33265738870341
20
213.26194671058474
30
0
40
1.7000000000000004
210
0
220
0
230
-1
0
CIRCLE
5
179
100
AcDbEntity
8
INTERIOR_PROFILES
100
AcDbCircle
10
-2055.1912360324659
20
926.26194671058465
30
0
40
1.6999999999998749
210
0
220
0
230
-1
0
CIRCLE
5
180
100
AcDbEntity
8
INTERIOR_PROFILES
100
AcDbCircle
10
7.3326573887035806
20
901.26194671058465
30
0
40
1.7000000000000004
210
0
220
0
230
-1
0
CIRCLE
5
181
100
AcDbEntity
8
INTERIOR_PROFILES
100
AcDbCircle
10
10.33265738870341
20
743.26194671058477
30
0
40
1.7000000000000004
210
0
220
0
230
-1
0
CIRCLE
5
182
100
AcDbEntity
8
INTERIOR_PROFILES
100
AcDbCircle
10
-2055.1912360324659
20
901.26194671058465
30
0
40
1.6999999999998749
210
0
220
0
230
-1
0
CIRCLE
5
183
100
AcDbEntity
8
INTERIOR_PROFILES
100
AcDbCircle
10
-148.92928932188056
20
973.54778684233906
30
0
40
1.6999999999999993
210
0
220
0
230
-1
0
CIRCLE
5
184
100
AcDbEntity
8
INTERIOR_PROFILES
100
AcDbCircle
10
-2058.1912360324659
20
743.26194671058477
30
0
40
1.6999999999998749
210
0
220
0
230
-1
0
CIRCLE
5
185
100
AcDbEntity
8
INTERIOR_PROFILES
100
AcDbCircle
10
-2058.1912360324659
20
443.26194671058477
30
0
40
1.6999999999998749
210
0
220
0
230
-1
0
CIRCLE
5
186
100
AcDbEntity
8
INTERIOR_PROFILES
100
AcDbCircle
10
10.33265738870341
20
143.26194671058474
30
0
40
1.7000000000000004
210
0
220
0
230
-1
0
CIRCLE
5
187
100
AcDbEntity
8
INTERIOR_PROFILES
100
AcDbCircle
10
-2058.1912360324659
20
143.26194671058474
30
0
40
1.6999999999998749
210
0
220
0
230
-1
0
CIRCLE
5
188
100
AcDbEntity
8
INTERIOR_PROFILES
100
AcDbCircle
10
-2055.1912360324659
20
30.261946710584766
30
0
40
1.6999999999998749
210
0
220
0
230
-1
0
CIRCLE
5
189
100
AcDbEntity
8
INTERIOR_PROFILES
100
AcDbCircle
10
10.33265738870341
20
443.26194671058477
30
0
40
1.7000000000000004
210
0
220
0
230
-1
0
CIRCLE
5
190
100
AcDbEntity
8
INTERIOR_PROFILES
100
AcDbCircle
10
7.3326573887035806
20
30.261946710584766
30
0
40
1.7000000000000004
210
0
220
0
230
-1
0
CIRCLE
5
191
100
AcDbEntity
8
INTERIOR_PROFILES
100
AcDbCircle
10
-1623.9292893218812
20
951.02389342116976
30
0
40
1.6999999999998749
210
0
220
0
230
-1
0
CIRCLE
5
192
100
AcDbEntity
8
INTERIOR_PROFILES
100
AcDbCircle
10
-1923.9292893218812
20
951.02389342116976
30
0
40
1.6999999999998749
210
0
220
0
230
-1
0
CIRCLE
5
193
100
AcDbEntity
8
INTERIOR_PROFILES
100
AcDbCircle
10
-723.92928932188113
20
951.02389342116976
30
0
40
1.7000000000000171
210
0
220
0
230
-1
0
CIRCLE
5
194
100
AcDbEntity
8
INTERIOR_PROFILES
100
AcDbCircle
10
-3.9292893218811287
20
932.26194671058477
30
0
40
3.0000000000000004
210
0
220
0
230
-1
0
CIRCLE
5
195
100
AcDbEntity
8
INTERIOR_PROFILES
100
AcDbCircle
10
-423.92928932188113
20
951.02389342116976
30
0
40
1.7000000000000171
210
0
220
0
230
-1
0
CIRCLE
5
196
100
AcDbEntity
8
INTERIOR_PROFILES
100
AcDbCircle
10
-1323.9292893218812
20
951.02389342116976
30
0
40
1.6999999999998749
210
0
220
0
230
-1
0
CIRCLE
5
197
100
AcDbEntity
8
INTERIOR_PROFILES
100
AcDbCircle
10
-123.92928932188113
20
951.02389342116976
30
0
40
1.6999999999999993
210
0
220
0
230
-1
0
CIRCLE
5
198
100
AcDbEntity
8
INTERIOR_PROFILES
100
AcDbCircle
10
-1023.9292893218811
20
951.02389342116976
30
0
40
1.7000000000000171
210
0
220
0
230
-1
0
LINE
5
199
100
AcDbEntity
8
BEND
100
AcDbLine
10
712.42928932188101
20
940.39292006587698
30
1.1729776017329726e-13
11
735.42928932188124
21
940.39292006587698
31
1.1729776017329726e-13
0
LINE
5
200
100
AcDbEntity
8
BEND
100
AcDbLine
10
412.42928932188107
20
940.39292006587698
30
1.1729776017329726e-13
11
435.42928932188119
21
940.39292006587698
31
1.1729776017329726e-13
0
LINE
5
201
100
AcDbEntity
8
BEND
100
AcDbLine
10
-0.20168403341131125
20
941.89834281365279
30
3.3611222711405754e-15
11
-0.20168403341131125
21
14.625550607516686
31
3.7774559053750091e-15
0
LINE
5
202
100
AcDbEntity
8
BEND
100
AcDbLine
10
2048.0602626771733
20
14.625550607476754
30
2.4455359739019323e-14
11
2048.0602626771733
21
941.89834281372089
31
3.7500480278364142e-14
0
LINE
5
203
100
AcDbEntity
8
BEND
100
AcDbLine
10
2047.8585786437616
20
970.41681348704606
30
-3.5050016859988638e-13
11
0
21
970.41681348704606
31
-2.8106024512022681e-14
0
LINE
5
204
100
AcDbEntity
8
BEND
100
AcDbLine
10
2047.8585786437616
20
962.15486677646186
30
-5.2999706223065495e-14
11
0
21
962.15486677646186
31
1.870807346182803e-13
0
LINE
5
205
100
AcDbEntity
8
BEND
100
AcDbLine
10
1312.429289321881
20
940.39292006587698
30
1.1729776017329726e-13
11
1335.4292893218812
21
940.39292006587698
31
1.1729776017329726e-13
0
LINE
5
206
100
AcDbEntity
8
BEND
100
AcDbLine
10
1612.429289321881
20
940.39292006587698
30
1.1729776017329726e-13
11
1635.4292893218812
21
940.39292006587698
31
1.1729776017329726e-13
0
LINE
5
207
100
AcDbEntity
8
BEND
100
AcDbLine
10
1012.429289321881
20
940.39292006587698
30
1.1729776017329726e-13
11
1035.4292893218812
21
940.39292006587698
31
1.1729776017329726e-13
0
LINE
5
208
100
AcDbEntity
8
BEND
100
AcDbLine
10
112.42928932188107
20
940.39292006587698
30
1.1729776017329726e-13
11
135.42928932188119
21
940.39292006587698
31
1.1729776017329726e-13
0
LINE
5
209
100
AcDbEntity
8
BEND
100
AcDbLine
10
1912.429289321881
20
940.39292006587698
30
1.1729776017329726e-13
11
1935.4292893218812
21
940.39292006587698
31
1.1729776017329726e-13
0
LINE
5
210
100
AcDbEntity
8
BEND
100
AcDbLine
10
2047.5656854249432
20
942.39292006587698
30
-1.7656540196806992e-11
11
0.29289321880582975
21
942.39292006587698
31
-1.2417574768267326e-13
0
LINE
5
211
100
AcDbEntity
8
BEND
100
AcDbLine
10
0.29289321881435626
20
14.13097335529244
30
3.6386780272968645e-15
11
2047.5656854249478
21
14.13097335529244
31
3.6386780272968645e-15
0
LINE
5
212
100
AcDbEntity
8
BEND_EXTENT
100
AcDbLine
10
1911.4292893218812
20
941.26194671058488
30
6.053760803933614e-14
11
1636.4292893218812
21
941.26194671058488
31
6.053760803933614e-14
0
LINE
5
213
100
AcDbEntity
8
BEND_EXTENT
100
AcDbLine
10
1635.4292893218812
20
939.26194671058499
30
6.053760803933614e-14
11
1612.429289321881
21
939.26194671058499
31
6.053760803933614e-14
0
LINE
5
214
100
AcDbEntity
8
BEND_EXTENT
100
AcDbLine
10
1611.4292893218812
20
941.26194671058488
30
6.053760803933614e-14
11
1336.4292893218812
21
941.26194671058488
31
6.053760803933614e-14
0
LINE
5
215
100
AcDbEntity
8
BEND_EXTENT
100
AcDbLine
10
1335.4292893218812
20
939.26194671058499
30
6.053760803933614e-14
11
1312.429289321881
21
939.26194671058499
31
6.053760803933614e-14
0
LINE
5
216
100
AcDbEntity
8
BEND_EXTENT
100
AcDbLine
10
1311.4292893218812
20
941.26194671058488
30
6.053760803933614e-14
11
1036.4292893218812
21
941.26194671058488
31
6.053760803933614e-14
0
LINE
5
217
100
AcDbEntity
8
BEND_EXTENT
100
AcDbLine
10
1035.4292893218812
20
939.26194671058499
30
6.053760803933614e-14
11
1012.429289321881
21
939.26194671058499
31
6.053760803933614e-14
0
LINE
5
218
100
AcDbEntity
8
BEND_EXTENT
100
AcDbLine
10
1011.4292893218811
20
941.26194671058488
30
6.053760803933614e-14
11
736.42928932188113
21
941.26194671058488
31
6.053760803933614e-14
0
LINE
5
219
100
AcDbEntity
8
BEND_EXTENT
100
AcDbLine
10
735.42928932188124
20
939.26194671058499
30
6.053760803933614e-14
11
712.42928932188101
21
939.26194671058499
31
6.053760803933614e-14
0
LINE
5
220
100
AcDbEntity
8
BEND_EXTENT
100
AcDbLine
10
711.42928932188113
20
941.26194671058488
30
6.053760803933614e-14
11
436.42928932188113
21
941.26194671058488
31
6.053760803933614e-14
0
LINE
5
221
100
AcDbEntity
8
BEND_EXTENT
100
AcDbLine
10
435.42928932188119
20
939.26194671058499
30
6.053760803933614e-14
11
412.42928932188107
21
939.26194671058499
31
6.053760803933614e-14
0
LINE
5
222
100
AcDbEntity
8
BEND_EXTENT
100
AcDbLine
10
411.42928932188113
20
941.26194671058488
30
6.053760803933614e-14
11
136.42928932188113
21
941.26194671058488
31
6.053760803933614e-14
0
LINE
5
223
100
AcDbEntity
8
BEND_EXTENT
100
AcDbLine
10
135.42928932188119
20
939.26194671058499
30
6.053760803933614e-14
11
112.42928932188107
21
939.26194671058499
31
6.053760803933614e-14
0
LINE
5
224
100
AcDbEntity
8
BEND_EXTENT
100
AcDbLine
10
111.42928932188113
20
941.26194671058488
30
6.053760803933614e-14
11
1.0000000000007958
21
941.26194671058488
31
6.053760803933614e-14
0
LINE
5
225
100
AcDbEntity
8
BEND_EXTENT
100
AcDbLine
10
0.92928932188101498
20
941.1912360324651
30
6.053760803933614e-14
11
0.92928932188101498
21
932.26194671058477
31
6.053760803933614e-14
0
LINE
5
226
100
AcDbEntity
8
BEND_EXTENT
100
AcDbLine
10
0.92928932188101498
20
932.26194671058477
30
6.053760803933614e-14
11
0.92928932188101498
21
15.332657388703126
31
6.053760803933614e-14
0
LINE
5
227
100
AcDbEntity
8
BEND_EXTENT
100
AcDbLine
10
0.99999999999965894
20
15.261946710584624
30
6.053760803933614e-14
11
2046.8585786437616
21
15.261946710584624
31
6.053760803933614e-14
0
LINE
5
228
100
AcDbEntity
8
BEND_EXTENT
100
AcDbLine
10
2046.9292893218812
20
15.332657388704121
30
6.053760803933614e-14
11
2046.9292893218815
21
941.19123603246533
31
6.053760803933614e-14
0
LINE
5
229
100
AcDbEntity
8
BEND_EXTENT
100
AcDbLine
10
2046.8585786437616
20
941.26194671058488
30
6.053760803933614e-14
11
1936.4292893218812
21
941.26194671058488
31
6.053760803933614e-14
0
LINE
5
230
100
AcDbEntity
8
BEND_EXTENT
100
AcDbLine
10
1935.4292893218812
20
939.26194671058499
30
6.053760803933614e-14
11
1912.429289321881
21
939.26194671058499
31
6.053760803933614e-14
0
LINE
5
231
100
AcDbEntity
8
BEND_EXTENT
100
AcDbLine
10
1912.429289321881
20
941.52389342116976
30
-8.1570939112683897e-14
11
1935.4292893218812
21
941.52389342116976
31
-8.1570939112683897e-14
0
LINE
5
232
100
AcDbEntity
8
BEND_EXTENT
100
AcDbLine
10
1312.429289321881
20
941.52389342116976
30
-8.1570939112683897e-14
11
1335.4292893218812
21
941.52389342116976
31
-8.1570939112683897e-14
0
LINE
5
233
100
AcDbEntity
8
BEND_EXTENT
100
AcDbLine
10
712.42928932188101
20
941.52389342116976
30
-8.1570939112683897e-14
11
735.42928932188124
21
941.52389342116976
31
-8.1570939112683897e-14
0
LINE
5
234
100
AcDbEntity
8
BEND_EXTENT
100
AcDbLine
10
112.42928932188107
20
941.52389342116976
30
6.053760803933614e-14
11
135.42928932188119
21
941.52389342116976
31
6.053760803933614e-14
0
LINE
5
235
100
AcDbEntity
8
BEND_EXTENT
100
AcDbLine
10
412.42928932188107
20
941.52389342116976
30
-8.1570939112683897e-14
11
435.42928932188119
21
941.52389342116976
31
-8.1570939112683897e-14
0
LINE
5
236
100
AcDbEntity
8
BEND_EXTENT
100
AcDbLine
10
1012.429289321881
20
941.52389342116976
30
-8.1570939112683897e-14
11
1035.4292893218812
21
941.52389342116976
31
-8.1570939112683897e-14
0
LINE
5
237
100
AcDbEntity
8
BEND_EXTENT
100
AcDbLine
10
1612.429289321881
20
941.52389342116976
30
-8.1570939112683897e-14
11
1635.4292893218812
21
941.52389342116976
31
-8.1570939112683897e-14
0
LINE
5
238
100
AcDbEntity
8
BEND_EXTENT
100
AcDbLine
10
8.5265128291212022e-13
20
943.5238934211693
30
-8.1570939112683897e-14
11
111.42928932188113
21
943.5238934211693
31
-8.1570939112683897e-14
0
LINE
5
239
100
AcDbEntity
8
BEND_EXTENT
100
AcDbLine
10
436.42928932188113
20
943.5238934211693
30
-8.1570939112683897e-14
11
711.42928932188113
21
943.5238934211693
31
-8.1570939112683897e-14
0
LINE
5
240
100
AcDbEntity
8
BEND_EXTENT
100
AcDbLine
10
1036.4292893218812
20
943.5238934211693
30
-8.1570939112683897e-14
11
1311.4292893218812
21
943.5238934211693
31
-8.1570939112683897e-14
0
LINE
5
241
100
AcDbEntity
8
BEND_EXTENT
100
AcDbLine
10
1336.4292893218812
20
943.5238934211693
30
-8.1570939112683897e-14
11
1611.4292893218812
21
943.5238934211693
31
-8.1570939112683897e-14
0
LINE
5
242
100
AcDbEntity
8
BEND_EXTENT
100
AcDbLine
10
736.42928932188113
20
943.5238934211693
30
-8.1570939112683897e-14
11
1011.4292893218811
21
943.5238934211693
31
6.053760803933614e-14
0
LINE
5
243
100
AcDbEntity
8
BEND_EXTENT
100
AcDbLine
10
1936.4292893218812
20
943.5238934211693
30
-8.1570939112683897e-14
11
2047.8585786437616
21
943.5238934211693
31
-8.1570939112683897e-14
0
LINE
5
244
100
AcDbEntity
8
BEND_EXTENT
100
AcDbLine
10
1636.4292893218812
20
943.5238934211693
30
-8.1570939112683897e-14
11
1911.4292893218812
21
943.5238934211693
31
-8.1570939112683897e-14
0
LINE
5
245
100
AcDbEntity
8
BEND_EXTENT
100
AcDbLine
10
111.42928932188113
20
961.0238934211693
30
-9.3422222202480411e-13
11
0
21
961.02389342116919
31
-8.1570939112683884e-14
0
LINE
5
246
100
AcDbEntity
8
BEND_EXTENT
100
AcDbLine
10
1311.4292893218812
20
961.0238934211693
30
-9.3422222202480411e-13
11
1036.4292893218812
21
961.0238934211693
31
-9.3422222202480411e-13
0
LINE
5
247
100
AcDbEntity
8
BEND_EXTENT
100
AcDbLine
10
711.42928932188113
20
961.0238934211693
30
-9.3422222202480411e-13
11
436.42928932188113
21
961.0238934211693
31
-9.3422222202480411e-13
0
LINE
5
248
100
AcDbEntity
8
BEND_EXTENT
100
AcDbLine
10
1611.4292893218812
20
961.0238934211693
30
-9.3422222202480411e-13
11
1336.4292893218812
21
961.0238934211693
31
-9.3422222202480411e-13
0
LINE
5
249
100
AcDbEntity
8
BEND_EXTENT
100
AcDbLine
10
1011.4292893218811
20
961.0238934211693
30
-9.3422222202480411e-13
11
736.42928932188113
21
961.0238934211693
31
-9.3422222202480411e-13
0
LINE
5
250
100
AcDbEntity
8
BEND_EXTENT
100
AcDbLine
10
2047.8585786437623
20
961.02389342116919
30
-8.1570939112683897e-14
11
1936.4292893218812
21
961.0238934211693
31
-9.3422222202480411e-13
0
LINE
5
251
100
AcDbEntity
8
BEND_EXTENT
100
AcDbLine
10
1911.4292893218812
20
961.0238934211693
30
-9.3422222202480411e-13
11
1636.4292893218812
21
961.0238934211693
31
-9.3422222202480411e-13
0
LINE
5
252
100
AcDbEntity
8
BEND_EXTENT
100
AcDbLine
10
1036.4292893218812
20
963.28584013175441
30
1.6128687054329876e-14
11
1311.4292893218812
21
963.28584013175441
31
1.6128687054329876e-14
0
LINE
5
253
100
AcDbEntity
8
BEND_EXTENT
100
AcDbLine
10
436.42928932188113
20
963.28584013175441
30
1.6128687054329876e-14
11
711.42928932188113
21
963.28584013175441
31
1.6128687054329876e-14
0
LINE
5
254
100
AcDbEntity
8
BEND_EXTENT
100
AcDbLine
10
736.42928932188113
20
963.28584013175441
30
1.6128687054329876e-14
11
1011.4292893218811
21
963.28584013175441
31
1.6128687054329876e-14
0
LINE
5
255
100
AcDbEntity
8
BEND_EXTENT
100
AcDbLine
10
1936.4292893218812
20
963.28584013175441
30
1.6128687054329876e-14
11
2047.8585786437616
21
963.28584013175362
31
7.3860284334838019e-14
0
LINE
5
256
100
AcDbEntity
8
BEND_EXTENT
100
AcDbLine
10
1336.4292893218812
20
963.28584013175441
30
1.6128687054329876e-14
11
1611.4292893218812
21
963.28584013175441
31
1.6128687054329876e-14
0
LINE
5
257
100
AcDbEntity
8
BEND_EXTENT
100
AcDbLine
10
1636.4292893218812
20
963.28584013175441
30
1.6128687054329876e-14
11
1911.4292893218812
21
963.28584013175441
31
1.6128687054329876e-14
0
LINE
5
258
100
AcDbEntity
8
BEND_EXTENT
100
AcDbLine
10
0
20
963.28584013175362
30
2.1596883148685807e-13
11
111.42928932188113
21
963.28584013175441
31
1.6128687054329891e-14
0
LINE
5
259
100
AcDbEntity
8
BEND_EXTENT
100
AcDbLine
10
0
20
971.54778684233861
30
-2.2367948626470392e-13
11
2047.8585786437616
21
971.54778684233861
31
-3.6578803341672396e-13
0
LINE
5
260
100
AcDbEntity
8
BEND_EXTENT
100
AcDbLine
10
2047.8585786437623
20
969.2858401317535
30
-3.4358357292422083e-13
11
0
21
969.2858401317535
31
-3.4358357292422083e-13
0
LINE
5
261
100
AcDbEntity
8
BEND_EXTENT
100
AcDbLine
10
411.42928932188113
20
961.0238934211693
30
-9.3422222202480411e-13
11
136.42928932188113
21
961.0238934211693
31
-9.3422222202480411e-13
0
LINE
5
262
100
AcDbEntity
8
BEND_EXTENT
100
AcDbLine
10
136.42928932188113
20
963.28584013175441
30
1.6128687054329876e-14
11
411.42928932188113
21
963.28584013175441
31
1.6128687054329876e-14
0
LINE
5
263
100
AcDbEntity
8
BEND_EXTENT
100
AcDbLine
10
136.42928932188113
20
943.5238934211693
30
-8.1570939112683897e-14
11
411.42928932188113
21
943.5238934211693
31
-8.1570939112683897e-14
0
LINE
5
264
100
AcDbEntity
8
BEND_EXTENT
100
AcDbLine
10
2049.1912360324659
20
942.19123603246601
30
-2.2367948626470392e-13
11
2049.1912360324659
21
14.332657388703325
31
-2.2367948626470392e-13
0
LINE
5
265
100
AcDbEntity
8
BEND_EXTENT
100
AcDbLine
10
-1.3326573887033533
20
14.332657388703325
30
3.3404094476752509e-15
11
-1.3326573887033533
21
942.19123603246612
31
3.3404094476752509e-15
0
LINE
5
266
100
AcDbEntity
8
BEND_EXTENT
100
AcDbLine
10
2047.8585786437613
20
13.000000000000114
30
3.4822454599303619e-15
11
8.5265128291212022e-13
21
13.000000000000114
31
3.4822454599303619e-15
0
ENDSEC
0
SECTION
2
OBJECTS
0
DICTIONARY
5
C
100
AcDbDictionary
3
ACAD_GROUP
350
D
3
ACAD_MLINESTYLE
350
17
0
DICTIONARY
5
D
100
AcDbDictionary
0
DICTIONARY
5
1A
330
C
100
AcDbDictionary
0
DICTIONARY
5
17
100
AcDbDictionary
0
ENDSEC
0
EOF
