0
SECTION
2
HEADER
9
$INSUNITS
70
4
9
$ACADVER
1
AC1014
9
$HANDSEED
5
FFFF
0
ENDSEC
0
SECTION
2
TABLES
0
TABLE
2
VPORT
5
8
100
AcDbSymbolTable
0
ENDTAB
0
TABLE
2
LTYPE
5
5
100
AcDbSymbolTable
0
LTYPE
5
14
100
AcDbSymbolTableRecord
100
AcDbLinetypeTableRecord
2
BYBLOCK
70
0
0
LTYPE
5
15
100
AcDbSymbolTableRecord
100
AcDbLinetypeTableRecord
2
BYLAYER
70
0
0
LTYPE
5
16
100
AcDbSymbolTableRecord
100
AcDbLinetypeTableRecord
2
DASHED
70
0
3
Dashed __ __ __ __ __ __ __ __ __ __ __ __ __ _
72
65
73
2
40
0.75
49
0.5
74
0
49
-0.25
74
0
0
ENDTAB
0
TABLE
2
LAYER
5
2
100
AcDbSymbolTable
70
2
0
LAYER
5
50
100
AcDbSymbolTableRecord
100
AcDbLayerTableRecord
2
0
70
0
62
7
6
CONTINUOUS
0
ENDTAB
0
TABLE
2
STYLE
5
3
100
AcDbSymbolTable
70
1
0
STYLE
5
11
100
AcDbSymbolTableRecord
100
AcDbTextStyleTableRecord
2
STANDARD
70
0
0
ENDTAB
0
TABLE
2
VIEW
5
6
100
AcDbSymbolTable
70
0
0
ENDTAB
0
TABLE
2
UCS
5
7
100
AcDbSymbolTable
70
0
0
ENDTAB
0
TABLE
2
APPID
5
9
100
AcDbSymbolTable
70
2
0
APPID
5
12
100
AcDbSymbolTableRecord
100
AcDbRegAppTableRecord
2
ACAD
70
0
0
ENDTAB
0
TABLE
2
DIMSTYLE
5
A
100
AcDbSymbolTable
70
1
0
ENDTAB
0
TABLE
2
BLOCK_RECORD
5
1
100
AcDbSymbolTable
70
1
0
BLOCK_RECORD
5
1F
100
AcDbSymbolTableRecord
100
AcDbBlockTableRecord
2
*MODEL_SPACE
0
BLOCK_RECORD
5
1B
100
AcDbSymbolTableRecord
100
AcDbBlockTableRecord
2
*PAPER_SPACE
0
ENDTAB
0
ENDSEC
0
SECTION
2
BLOCKS
0
BLOCK
5
20
100
AcDbEntity
100
AcDbBlockBegin
2
*MODEL_SPACE
0
ENDBLK
5
21
100
AcDbEntity
100
AcDbBlockEnd
0
BLOCK
5
1C
100
AcDbEntity
100
AcDbBlockBegin
2
*PAPER_SPACE
0
ENDBLK
5
1D
100
AcDbEntity
100
AcDbBlockEnd
0
ENDSEC
0
SECTION
2
ENTITIES
0
LINE
5
100
100
AcDbEntity
8
OUTER_PROFILES
100
AcDbLine
10
394.67960850457484
20
436.32183702959935
30
0
11
391.85599450279142
21
436.48677328834617
31
0
0
LINE
5
101
100
AcDbEntity
8
OUTER_PROFILES
100
AcDbLine
10
391.85599450279142
20
436.48677328834617
30
0
11
-31.411717727591935
21
59.938832731629574
31
0
0
LINE
5
102
100
AcDbEntity
8
OUTER_PROFILES
100
AcDbLine
10
-31.411717727591935
20
59.938832731629574
30
0
11
-34.009772268954066
21
54.951108100487502
31
0
0
SPLINE
5
103
100
AcDbEntity
8
OUTER_PROFILES
100
AcDbSpline
70
0
71
3
72
8
73
4
74
0
42
0.000000001
43
0.0000000001
44
0.0000000001
40
4.1218625439862211e-05
40
4.1218625439862211e-05
40
4.1218625439862211e-05
40
4.1218625439862211e-05
40
0.12308063424012496
40
0.12308063424012496
40
0.12308063424012496
40
0.12308063424012496
10
-34.358345520251561
20
53.640183045026149
30
0
10
-34.262617048320934
20
54.078957726665067
30
0
10
-34.133100230698759
20
54.523486256257456
30
0
10
-34.010116224316533
20
54.950359068513777
30
0
0
LINE
5
104
100
AcDbEntity
8
OUTER_PROFILES
100
AcDbLine
10
-34.53683570434535
20
52.968461542467367
30
0
11
-34.358970918746152
21
53.637829827979999
31
0
0
LINE
5
105
100
AcDbEntity
8
OUTER_PROFILES
100
AcDbLine
10
-34.536889257368131
20
52.967988812293427
30
0
11
-35.002814453757409
21
51.215363540459862
31
0
0
LINE
5
106
100
AcDbEntity
8
OUTER_PROFILES
100
AcDbLine
10
-35.002814453757409
20
51.215363540459862
30
0
11
-33.471281762842224
21
23.630812862040642
31
0
0
SPLINE
5
107
100
AcDbEntity
8
OUTER_PROFILES
100
AcDbSpline
70
0
71
3
72
8
73
4
74
0
42
0.000000001
43
0.0000000001
44
0.0000000001
40
0.11526727392848274
40
0.11526727392848274
40
0.11526727392848274
40
0.11526727392848274
40
0.32908632330757681
40
0.32908632330757681
40
0.32908632330757681
40
0.32908632330757681
10
-30.895709122574569
20
22.892289594637205
30
0
10
-31.752833620185427
20
23.137985179238079
30
0
10
-32.611349257026781
20
23.384146397998045
30
0
10
-33.471157231855962
20
23.630607960373414
30
0
0
LINE
5
108
100
AcDbEntity
8
OUTER_PROFILES
100
AcDbLine
10
-30.894368484989847
20
22.891995694092738
30
0
11
-29.610350766147278
21
22.524040378989127
31
0
0
LINE
5
109
100
AcDbEntity
8
OUTER_PROFILES
100
AcDbLine
10
-29.610017950998326
20
22.523893421196846
30
0
11
-31.858165751859886
21
20.261946710691561
31
0
0
SPLINE
5
110
100
AcDbEntity
8
OUTER_PROFILES
100
AcDbSpline
70
0
71
3
72
14
73
10
74
0
42
0.000000001
43
0.0000000001
44
0.0000000001
40
0.48920666788580575
40
0.48920666788580575
40
0.48920666788580575
40
0.48920666788580575
40
0.55924833236985527
40
0.55924833236985527
40
0.63935295723071395
40
0.63935295723071395
40
0.74917905324215117
40
0.74917905324215117
40
0.77721590114687911
40
0.77721590114687911
40
0.77721590114687911
40
0.77721590114687911
10
-31.858165751859886
20
20.261946710691561
30
0
10
-31.978620242256
20
20.177784330001103
30
0
10
-32.097775245585609
20
20.094538793894259
30
0
10
-32.34883729755083
20
19.907754445773591
30
0
10
-32.478963341956799
20
19.803822023581361
30
0
10
-32.769535524710136
20
19.534430591279346
30
0
10
-32.914307732350139
20
19.368844142444956
30
0
10
-33.0721167138352
20
19.12897152645229
30
0
10
-33.102772258769733
20
19.078817319829753
30
0
10
-33.132102793999181
20
19.027073156229974
30
0
0
LINE
5
111
100
AcDbEntity
8
OUTER_PROFILES
100
AcDbLine
10
-33.132102793999181
20
19.027073156229974
30
0
11
-32.768388081512114
21
18.785323103511971
31
0
0
LINE
5
112
100
AcDbEntity
8
OUTER_PROFILES
100
AcDbLine
10
-32.768388081512114
20
18.785323103511971
30
0
11
-10.917862674422594
21
4.2619467106128894
31
0
0
LINE
5
113
100
AcDbEntity
8
OUTER_PROFILES
100
AcDbLine
10
-10.917862674422594
20
4.2619467106128894
30
0
11
0
21
0
31
0
0
LINE
5
114
100
AcDbEntity
8
OUTER_PROFILES
100
AcDbLine
10
0
20
0
30
0
11
758.22537099452893
21
-7.1054273576010019e-14
31
0
0
LINE
5
115
100
AcDbEntity
8
OUTER_PROFILES
100
AcDbLine
10
758.22537099452893
20
-7.1054273576010019e-14
30
0
11
762.68149664850955
21
2.0000000012740893
31
0
0
SPLINE
5
116
100
AcDbEntity
8
OUTER_PROFILES
100
AcDbSpline
70
0
71
3
72
11
73
7
74
0
42
0.000000001
43
0.0000000001
44
0.0000000001
40
1.5707963267948977
40
1.5707963267948977
40
1.5707963267948977
40
1.5707963267948977
40
2.7764172898632804
40
2.7764172898632804
40
2.7764172898632804
40
3.141592652723828
40
3.141592652723828
40
3.141592652723828
40
3.141592652723828
10
762.68149664850955
20
2.0000000012740893
30
0
10
763.57689639906789
20
2.5786980635549384
30
0
10
764.44288459613654
20
3.157396125835561
30
0
10
764.76264357716275
20
3.7360941881113519
30
0
10
764.8594966557846
20
3.9113783622852294
30
0
10
764.9095594756069
20
4.0866625364588218
30
0
10
764.90955947584268
20
4.2619467106319036
30
0
0
LINE
5
117
100
AcDbEntity
8
OUTER_PROFILES
100
AcDbLine
10
764.90955947584268
20
4.2619467106319036
30
0
11
764.90955947661075
21
20.261946710632728
31
0
0
SPLINE
5
118
100
AcDbEntity
8
OUTER_PROFILES
100
AcDbSpline
70
0
71
3
72
11
73
7
74
0
42
0.000000001
43
0.0000000001
44
0.0000000001
40
-3.1415926535897931
40
-3.1415926535897931
40
-3.1415926535897931
40
-3.1415926535897931
40
-1.9359716905214308
40
-1.9359716905214308
40
-1.9359716905214308
40
-1.5707963267948979
40
-1.5707963267948979
40
-1.5707963267948979
40
-1.5707963267948979
10
764.90955947662974
20
20.261946710612406
30
0
10
764.90955947662985
20
20.840644772885213
30
0
10
764.31352519493987
20
21.419342835157948
30
0
10
763.47716707346376
20
21.998040897430897
30
0
10
763.22383921124867
20
22.173325072019665
30
0
10
762.95270786707124
20
22.348609246608504
30
0
10
762.68149664927637
20
22.523893421197201
30
0
0
LINE
5
119
100
AcDbEntity
8
OUTER_PROFILES
100
AcDbLine
10
762.68149664927637
20
22.523893421197201
30
0
11
762.72244359536353
21
22.615125779257248
31
0
0
SPLINE
5
120
100
AcDbEntity
8
OUTER_PROFILES
100
AcDbSpline
70
0
71
3
72
11
73
7
74
0
42
0.000000001
43
0.0000000001
44
0.0000000001
40
1.5707963326408159
40
1.5707963326408159
40
1.5707963326408159
40
1.5707963326408159
40
1.9359716905214728
40
1.9359716905214728
40
1.9359716905214728
40
3.1415926535897931
40
3.1415926535897931
40
3.1415926535897931
40
3.1415926535897931
10
762.72244359536353
20
22.615125779257248
30
0
10
763.03367078888164
20
22.528999725162233
30
0
10
763.34484489266015
20
22.442933347857135
30
0
10
763.64418556650753
20
22.370168620290158
30
0
10
764.63245430836321
20
22.1299369643652
30
0
10
765.46098713923379
20
22.069260276935623
30
0
10
765.89335420040811
20
22.453903191444375
30
0
0
LINE
5
121
100
AcDbEntity
8
OUTER_PROFILES
100
AcDbLine
10
765.89335420040811
20
22.453903191444379
30
0
11
777.8475554596514
21
33.088614356764801
31
0
0
SPLINE
5
122
100
AcDbEntity
8
OUTER_PROFILES
100
AcDbSpline
70
0
71
3
72
11
73
7
74
0
42
0.000000001
43
0.0000000001
44
0.0000000001
40
-3.1415921718622624
40
-3.1415921718622624
40
-3.1415921718622624
40
-3.1415921718622624
40
-2.7764172898632875
40
-2.7764172898632875
40
-2.7764172898632875
40
-1.5707963267949003
40
-1.5707963267949003
40
-1.5707963267949003
40
-1.5707963267949003
10
777.8475554596514
20
33.088614356764801
30
0
10
777.97851659050457
20
33.205120335175017
30
0
10
778.07620258580914
20
33.359030024987646
30
0
10
778.14278860810464
20
33.547898382763393
30
0
10
778.36262164778987
20
34.171445243785996
30
0
10
778.21939282266487
20
35.203100471273885
30
0
10
778.0566150368777
20
36.256730175222032
30
0
0
LINE
5
123
100
AcDbEntity
8
OUTER_PROFILES
100
AcDbLine
10
778.0566150368777
20
36.256730175222032
30
0
11
776.58903996597724
21
40.915408205855144
31
0
0
LINE
5
124
100
AcDbEntity
8
OUTER_PROFILES
100
AcDbLine
10
776.58903996597724
20
40.915408205855144
30
0
11
441.61306467777524
21
417.45315928945445
31
0
0
LINE
5
125
100
AcDbEntity
8
OUTER_PROFILES
100
AcDbLine
10
441.61306467777524
20
417.45315928945445
30
0
11
438.78945067603968
21
417.61809554824362
31
0
0
LINE
5
126
100
AcDbEntity
8
OUTER_PROFILES
100
AcDbLine
10
438.78945067603968
20
417.61809554824362
30
0
11
435.12549780191364
21
418.33353406521206
31
0
0
LINE
5
127
100
AcDbEntity
8
OUTER_PROFILES
100
AcDbLine
10
435.12549780191364
20
418.33353406521206
30
0
11
414.53318239640231
21
419.53639658813461
31
0
0
ARC
5
128
100
AcDbEntity
8
OUTER_PROFILES
100
AcDbCircle
10
414.41655484939167
20
417.53979998008424
30
0
40
1.9999999999999454
210
0
220
-0
230
1
100
AcDbArc
50
86.656970402114055
51
131.65697040189613
0
LINE
5
129
100
AcDbEntity
8
OUTER_PROFILES
100
AcDbLine
10
413.08721597791526
20
419.03407511030014
30
0
11
412.72656949147921
21
416.03635313614831
31
0
0
LINE
5
130
100
AcDbEntity
8
OUTER_PROFILES
100
AcDbLine
10
412.72656949147921
20
416.03635313614831
30
0
11
411.14382303438958
21
419.16953366493692
31
0
0
LINE
5
131
100
AcDbEntity
8
OUTER_PROFILES
100
AcDbLine
10
411.14382303438958
20
419.16953366493692
30
0
11
397.06493966908147
21
434.99523900270054
31
0
0
ARC
5
132
100
AcDbEntity
8
OUTER_PROFILES
100
AcDbCircle
10
391.05735943137324
20
427.00092979630267
30
0
40
9.9999999999999982
210
0
220
-0
230
1
100
AcDbArc
50
53.075793588423785
51
61.688843545071741
0
SPLINE
5
133
100
AcDbEntity
8
OUTER_PROFILES
100
AcDbSpline
70
0
71
3
72
8
73
4
74
0
42
0.000000001
43
0.0000000001
44
0.0000000001
40
-0.27379517871430359
40
-0.27379517871430359
40
-0.27379517871430359
40
-0.27379517871430359
40
-0.15032608038197715
40
-0.15032608038197715
40
-0.15032608038197715
40
-0.15032608038197715
10
395.79995586991691
20
435.80478003475628
30
0
10
395.4376213863182
20
435.99996807009734
30
0
10
395.06322317515367
20
436.17275842059746
30
0
10
394.67960850457496
20
436.32183702959946
30
0
0
LINE
5
134
100
AcDbEntity
8
BEND
100
AcDbLine
10
-30.734091851401786
20
21.392920065905585
30
-3.4894397822169094e-11
11
764.25697498338536
21
21.392920065925125
31
-4.4221980895818718e-11
0
LINE
5
135
100
AcDbEntity
8
BEND
100
AcDbLine
10
411.93519626293482
20
417.60294340054213
30
-3.3912700322924045e-11
11
-31.540821529363328
21
23.077265299464713
31
-3.5666336845624138e-11
0
LINE
5
136
100
AcDbEntity
8
BEND
100
AcDbLine
10
-8.0206392645605007
20
3.1309733552996732
30
-3.3054595137804957e-11
11
764.25697498124941
21
3.1309733553180052
31
-3.508268521593344e-11
0
LINE
5
137
100
AcDbEntity
8
BEND
100
AcDbLine
10
778.25879466196352
20
34.32790834609861
30
-2.9397407695647341e-10
11
436.95747423896762
21
417.97581480673023
31
-2.1880367037451483e-10
0
LINE
5
138
100
AcDbEntity
8
BEND
100
AcDbLine
10
764.61460859455599
20
22.189750154711874
30
-7.4190398420324075e-11
11
412.90689273469553
21
417.53521412321498
31
-3.6034722317592541e-11
0
LINE
5
139
100
AcDbEntity
8
BEND
100
AcDbLine
10
395.25530750543311
20
436.07712018475951
30
-8.5492044265016504e-12
11
-34.28593707207078
21
53.948112097812171
31
-2.4177664926897991e-11
0
LINE
5
140
100
AcDbEntity
8
BEND_EXTENT
100
AcDbLine
10
438.78945067603968
20
417.61809554824362
30
-2.4707549148850666e-10
11
778.05661536025173
21
36.25673046290224
31
-2.9854441842981725e-10
0
LINE
5
141
100
AcDbEntity
8
BEND_EXTENT
100
AcDbLine
10
762.68149664923794
20
2.0000000000027285
30
-2.4018339735269236e-11
11
-5.1234158546444064
21
1.9999999999853202
31
-2.9013422679034746e-11
0
LINE
5
142
100
AcDbEntity
8
BEND_EXTENT
100
AcDbLine
10
777.84755526245158
20
33.088614181319258
30
-2.8980220647158861e-10
11
435.12549780191364
21
418.33353406521206
31
-2.707172699372733e-10
0
LINE
5
143
100
AcDbEntity
8
BEND_EXTENT
100
AcDbLine
10
-10.917862674422594
20
4.2619467106128894
30
-3.6675176892384562e-11
11
764.90955947661541
21
4.2619467106318609
31
-2.9795819682616305e-11
0
LINE
5
144
100
AcDbEntity
8
BEND_EXTENT
100
AcDbLine
10
413.08721597791452
20
419.03407511030105
30
-5.3188359038179092e-11
11
765.89335422071554
21
22.453903209510244
31
-8.129425428424035e-11
0
LINE
5
145
100
AcDbEntity
8
BEND_EXTENT
100
AcDbLine
10
764.90955947661075
20
20.261946710632728
30
-3.4540463478962145e-11
11
-31.858165751805245
21
20.261946710613685
31
-3.4975132622699445e-11
0
LINE
5
146
100
AcDbEntity
8
BEND_EXTENT
100
AcDbLine
10
762.72244360056436
20
22.615125801317078
30
-3.5693002495217267e-11
11
412.72656949147921
21
416.03635313614831
31
-3.1850154213884191e-11
0
LINE
5
147
100
AcDbEntity
8
BEND_EXTENT
100
AcDbLine
10
412.72656949147921
20
416.03635313614831
30
-3.1850154213884191e-11
11
-29.61023796305831
21
22.524140731011286
31
-3.5722967409069203e-11
0
LINE
5
148
100
AcDbEntity
8
BEND_EXTENT
100
AcDbLine
10
-29.610017950998326
20
22.523893421196846
30
-3.5776258086986659e-11
11
762.68149664925716
21
22.523893421216172
31
-3.5693018955038164e-11
0
LINE
5
149
100
AcDbEntity
8
BEND_EXTENT
100
AcDbLine
10
-33.471158088716777
20
23.630609610549982
30
-3.5526444736372778e-11
11
411.14382303438958
21
419.16953366493692
31
-3.5425129277981606e-11
0
LINE
5
150
100
AcDbEntity
8
BEND_EXTENT
100
AcDbLine
10
-34.009834239693149
20
54.95060993278976
30
-3.3313996088157038e-11
11
394.67960850457484
21
436.32183702959935
31
-2.4023338348747142e-11
0
LINE
5
151
100
AcDbEntity
8
BEND_EXTENT
100
AcDbLine
10
395.79995586991487
20
435.80478003475707
30
-3.3155789141115705e-11
11
-34.536889257368131
21
52.967988812293427
31
-3.339824135459041e-11
0
ENDSEC
0
SECTION
2
OBJECTS
0
DICTIONARY
5
C
100
AcDbDictionary
3
ACAD_GROUP
350
D
3
ACAD_MLINESTYLE
350
17
0
DICTIONARY
5
D
100
AcDbDictionary
0
DICTIONARY
5
1A
330
C
100
AcDbDictionary
0
DICTIONARY
5
17
100
AcDbDictionary
0
ENDSEC
0
EOF
