0
SECTION
2
HEADER
9
$INSUNITS
70
4
9
$ACADVER
1
AC1014
9
$HANDSEED
5
FFFF
0
ENDSEC
0
SECTION
2
TABLES
0
TABLE
2
VPORT
5
8
100
AcDbSymbolTable
0
ENDTAB
0
TABLE
2
LTYPE
5
5
100
AcDbSymbolTable
0
LTYPE
5
14
100
AcDbSymbolTableRecord
100
AcDbLinetypeTableRecord
2
BYBLOCK
70
0
0
LTYPE
5
15
100
AcDbSymbolTableRecord
100
AcDbLinetypeTableRecord
2
BYLAYER
70
0
0
LTYPE
5
16
100
AcDbSymbolTableRecord
100
AcDbLinetypeTableRecord
2
DASHED
70
0
3
Dashed __ __ __ __ __ __ __ __ __ __ __ __ __ _
72
65
73
2
40
0.75
49
0.5
74
0
49
-0.25
74
0
0
ENDTAB
0
TABLE
2
LAYER
5
2
100
AcDbSymbolTable
70
2
0
LAYER
5
50
100
AcDbSymbolTableRecord
100
AcDbLayerTableRecord
2
0
70
0
62
7
6
CONTINUOUS
0
ENDTAB
0
TABLE
2
STYLE
5
3
100
AcDbSymbolTable
70
1
0
STYLE
5
11
100
AcDbSymbolTableRecord
100
AcDbTextStyleTableRecord
2
STANDARD
70
0
0
ENDTAB
0
TABLE
2
VIEW
5
6
100
AcDbSymbolTable
70
0
0
ENDTAB
0
TABLE
2
UCS
5
7
100
AcDbSymbolTable
70
0
0
ENDTAB
0
TABLE
2
APPID
5
9
100
AcDbSymbolTable
70
2
0
APPID
5
12
100
AcDbSymbolTableRecord
100
AcDbRegAppTableRecord
2
ACAD
70
0
0
ENDTAB
0
TABLE
2
DIMSTYLE
5
A
100
AcDbSymbolTable
70
1
0
ENDTAB
0
TABLE
2
BLOCK_RECORD
5
1
100
AcDbSymbolTable
70
1
0
BLOCK_RECORD
5
1F
100
AcDbSymbolTableRecord
100
AcDbBlockTableRecord
2
*MODEL_SPACE
0
BLOCK_RECORD
5
1B
100
AcDbSymbolTableRecord
100
AcDbBlockTableRecord
2
*PAPER_SPACE
0
ENDTAB
0
ENDSEC
0
SECTION
2
BLOCKS
0
BLOCK
5
20
100
AcDbEntity
100
AcDbBlockBegin
2
*MODEL_SPACE
0
ENDBLK
5
21
100
AcDbEntity
100
AcDbBlockEnd
0
BLOCK
5
1C
100
AcDbEntity
100
AcDbBlockBegin
2
*PAPER_SPACE
0
ENDBLK
5
1D
100
AcDbEntity
100
AcDbBlockEnd
0
ENDSEC
0
SECTION
2
ENTITIES
0
LINE
5
100
100
AcDbEntity
8
OUTER_PROFILES
100
AcDbLine
10
0
20
0
30
0
11
770.85857864376339
21
7.1054273576010019e-14
31
0
0
LINE
5
101
100
AcDbEntity
8
OUTER_PROFILES
100
AcDbLine
10
770.85857864376339
20
7.1054273576010019e-14
30
0
11
770.85857864376237
21
17.000000000000028
31
0
0
SPLINE
5
102
100
AcDbEntity
8
OUTER_PROFILES
100
AcDbSpline
70
0
71
3
72
185
73
181
74
0
42
0.000000001
43
0.0000000001
44
0.0000000001
40
0.01003048101544686
40
0.01003048101544686
40
0.01003048101544686
40
0.01003048101544686
40
0.014143719574053904
40
0.014143719574053904
40
0.014143719574053904
40
0.017690941159418338
40
0.017690941159418338
40
0.017690941159418338
40
0.021244222279168529
40
0.021244222279168529
40
0.021244222279168529
40
0.02479332472315026
40
0.02479332472315026
40
0.02479332472315026
40
0.028348043455291589
40
0.028348043455291589
40
0.028348043455291589
40
0.031908492530794932
40
0.031908492530794932
40
0.031908492530794932
40
0.035459997559184213
40
0.035459997559184213
40
0.035459997559184213
40
0.039017356694218033
40
0.039017356694218033
40
0.039017356694218033
40
0.042580515160104117
40
0.042580515160104117
40
0.042580515160104117
40
0.046129795810852241
40
0.046129795810852241
40
0.046129795810852241
40
0.049684712053738762
40
0.049684712053738762
40
0.049684712053738762
40
0.053245262242695712
40
0.053245262242695712
40
0.053245262242695712
40
0.056787208609272166
40
0.056787208609272166
40
0.056787208609272166
40
0.060334664190366934
40
0.060334664190366934
40
0.060334664190366934
40
0.063887555917593875
40
0.063887555917593875
40
0.063887555917593875
40
0.067417181280327601
40
0.067417181280327601
40
0.067417181280327601
40
0.070951960283891502
40
0.070951960283891502
40
0.070951960283891502
40
0.074491773341978818
40
0.074491773341978818
40
0.074491773341978818
40
0.078006952882163222
40
0.078006952882163222
40
0.078006952882163222
40
0.081539080456749985
40
0.081539080456749985
40
0.081539080456749985
40
0.085088615126012526
40
0.085088615126012526
40
0.085088615126012526
40
0.088618635426644762
40
0.088618635426644762
40
0.088618635426644762
40
0.092165410342356549
40
0.092165410342356549
40
0.092165410342356549
40
0.095728764199966079
40
0.095728764199966079
40
0.095728764199966079
40
0.099268153871061041
40
0.099268153871061041
40
0.099268153871061041
40
0.10282333544544224
40
0.10282333544544224
40
0.10282333544544224
40
0.10639405731226007
40
0.10639405731226007
40
0.10639405731226007
40
0.10993673953905385
40
0.10993673953905385
40
0.10993673953905385
40
0.11349400074559349
40
0.11349400074559349
40
0.11349400074559349
40
0.11706549042406965
40
0.11706549042406965
40
0.11706549042406965
40
0.12060534409055733
40
0.12060534409055733
40
0.12060534409055733
40
0.12415825648031532
40
0.12415825648031532
40
0.12415825648031532
40
0.12772375090351529
40
0.12772375090351529
40
0.12772375090351529
40
0.13125460776134854
40
0.13125460776134854
40
0.13125460776134854
40
0.13479660284134162
40
0.13479660284134162
40
0.13479660284134162
40
0.13833620566964791
40
0.13833620566964791
40
0.13833620566964791
40
0.14181708247020761
40
0.14181708247020761
40
0.14181708247020761
40
0.14528606774889866
40
0.14528606774889866
40
0.14528606774889866
40
0.14874335464718585
40
0.14874335464718585
40
0.14874335464718585
40
0.15214477198809875
40
0.15214477198809875
40
0.15214477198809875
40
0.15553475268285141
40
0.15553475268285141
40
0.15553475268285141
40
0.15891306167113312
40
0.15891306167113312
40
0.15891306167113312
40
0.16223827365533577
40
0.16223827365533577
40
0.16223827365533577
40
0.16555117308136058
40
0.16555117308136058
40
0.16555117308136058
40
0.1688510876638169
40
0.1688510876638169
40
0.1688510876638169
40
0.17210071360030035
40
0.17210071360030035
40
0.17210071360030035
40
0.17533605162370505
40
0.17533605162370505
40
0.17533605162370505
40
0.17855614921142759
40
0.17855614921142759
40
0.17855614921142759
40
0.18173572948544023
40
0.18173572948544023
40
0.18173572948544023
40
0.18491530114628432
40
0.18491530114628432
40
0.18491530114628432
40
0.18809391715451185
40
0.18809391715451185
40
0.18809391715451185
40
0.19124616373264916
40
0.19124616373264916
40
0.19124616373264916
40
0.19439559227858591
40
0.19439559227858591
40
0.19439559227858591
40
0.19754120709037648
40
0.19754120709037648
40
0.19754120709037648
40
0.20066475926167004
40
0.20066475926167004
40
0.20066475926167004
40
0.20378125902308283
40
0.20378125902308283
40
0.20378125902308283
40
0.2068888121907404
40
0.2068888121907404
40
0.2068888121907404
40
0.20997764485975048
40
0.20997764485975048
40
0.20997764485975048
40
0.21305620025579047
40
0.21305620025579047
40
0.21305620025579047
40
0.21612595063789766
40
0.21612595063789766
40
0.21612595063789766
40
0.21612595063789766
10
769.92928932188181
20
19.160038306306362
30
0
10
769.93891964758461
20
19.14613579725895
30
0
10
769.94853319418678
20
19.132243242504927
30
0
10
769.95812707782943
20
19.118359072339715
30
0
10
769.96640076063682
20
19.106385483304393
30
0
10
769.97465981956088
20
19.094418130676445
30
0
10
769.98290240007623
20
19.08245602401152
30
0
10
769.99115906096381
20
19.070473483101154
30
0
10
769.99939918715813
20
19.058496206382571
30
0
10
770.00762091285446
20
19.046523214333959
30
0
10
770.01583296976162
20
19.034564302581884
30
0
10
770.02402666924797
20
19.022609665399202
30
0
10
770.0322001537553
20
19.010658344376736
30
0
10
770.04038657241858
20
18.998688110949331
30
0
10
770.04855271185772
20
18.98672120410545
30
0
10
770.05669670935117
20
18.974756678088838
30
0
10
770.06485383528207
20
18.962772864795951
30
0
10
770.07298874782373
20
18.950791440246633
30
0
10
770.08109957771933
20
18.938811466218155
30
0
10
770.08919003275696
20
18.926861586554153
30
0
10
770.09725652616339
20
18.914913150602217
30
0
10
770.10529720084844
20
18.902965229640785
30
0
10
770.11335112934194
20
18.890997614379827
30
0
10
770.12137915402332
20
18.879030516163624
30
0
10
770.12937940583151
20
18.867062999544331
30
0
10
770.13739269992925
20
18.855075973062299
30
0
10
770.14537813054994
20
18.843088527070293
30
0
10
770.15333381817368
20
18.831099718092048
30
0
10
770.16125851992842
20
18.819157603212986
30
0
10
770.1691537098468
20
18.807214136069561
30
0
10
770.17701753150106
20
18.7952683808183
30
0
10
770.18489383942949
20
18.78330365794767
30
0
10
770.19273867934953
20
18.771336639861218
30
0
10
770.20055018762719
20
18.75936637999736
30
0
10
770.20837407583554
20
18.747377149279032
30
0
10
770.21616452668877
20
18.735384666758321
30
0
10
770.22391966812904
20
18.72338796996921
30
0
10
770.23163428906923
20
18.711453955744446
30
0
10
770.23931396870341
20
18.699515771490312
30
0
10
770.24695686254222
20
18.687572452523256
30
0
10
770.25461164429157
20
18.675610556677995
30
0
10
770.26222952580656
20
18.663643510450427
30
0
10
770.26980865169867
20
18.651670323435425
30
0
10
770.27739939189712
20
18.639678788623613
30
0
10
770.28495125767324
20
18.627681094479627
30
0
10
770.29246238288022
20
18.615676221846087
30
0
10
770.299924320949
20
18.603749963975886
30
0
10
770.30734605033888
20
18.591816621548176
30
0
10
770.31472573933161
20
18.579875169098301
30
0
10
770.32211620348107
20
18.567916280815879
30
0
10
770.32946450445877
20
18.555949259086901
30
0
10
770.33676879961649
20
18.54397304395718
30
0
10
770.3440834971841
20
18.531979772904066
30
0
10
770.35135406362645
20
18.519977282554763
30
0
10
770.35857864376248
20
18.507964473723177
30
0
10
770.36575294812963
20
18.496035261888579
30
0
10
770.37288093478082
20
18.484097348755313
30
0
10
770.37994472729815
20
18.472177195018347
30
0
10
770.38704257707991
20
18.460199569629197
30
0
10
770.39408002305913
20
18.448232570393088
30
0
10
770.40105586885329
20
18.436274982403589
30
0
10
770.4080660931362
20
18.424258464813832
30
0
10
770.41501410869887
20
18.412251451704265
30
0
10
770.42189870182619
20
18.400252725599771
30
0
10
770.42874544534789
20
18.388319965202342
30
0
10
770.43552946199145
20
18.376395401202572
30
0
10
770.44224955759375
20
18.36447784870721
30
0
10
770.44900154893753
20
18.352503731663177
30
0
10
770.45568901115212
20
18.340536693095615
30
0
10
770.46231073169429
20
18.328575541163161
30
0
10
770.46896340461501
20
18.316558478368705
30
0
10
770.47554971998011
20
18.304547357649668
30
0
10
770.48206844562128
20
18.292540977476861
30
0
10
770.48854333167696
20
18.280615342339601
30
0
10
770.49495153421958
20
18.268694384490942
30
0
10
770.50129184186756
20
18.256776930283252
30
0
10
770.50766043843953
20
18.244806303268533
30
0
10
770.51396053309588
20
18.232839211525942
30
0
10
770.52019089292673
20
18.220874466619179
30
0
10
770.52644848670116
20
18.208857421814102
30
0
10
770.53263573489039
20
18.196842744716832
30
0
10
770.53875138153342
20
18.184829229353809
30
0
10
770.5448190041252
20
18.172910051959121
30
0
10
770.55081614549158
20
18.160992018414746
30
0
10
770.55674157080739
20
18.149073946375438
30
0
10
770.5626913806575
20
18.137106828635794
30
0
10
770.56856888325478
20
18.125139672406405
30
0
10
770.5743728189525
20
18.113171273996684
30
0
10
770.58019996945814
20
18.101155003920866
30
0
10
770.58595296368981
20
18.089137482050859
30
0
10
770.59163051559221
20
18.0771174812309
30
0
10
770.59725777612721
20
18.065203952758395
30
0
10
770.60281092523667
20
18.053287989353279
30
0
10
770.60828869771603
20
18.041368385155252
30
0
10
770.61378667801239
20
18.029404808853471
30
0
10
770.61920872489645
20
18.017437565178227
30
0
10
770.62455354335657
20
18.005465421437208
30
0
10
770.62991728957979
20
17.993450880390398
30
0
10
770.6352032598561
20
17.981431404833899
30
0
10
770.64041012623056
20
17.969405733107706
30
0
10
770.64556640966953
20
17.957496886691331
30
0
10
770.65064511905416
20
17.945581964140445
30
0
10
770.65564494322462
20
17.933659723489939
30
0
10
770.66066053953034
20
17.921699873678136
30
0
10
770.66559502064069
20
17.909736936565608
30
0
10
770.67045240394646
20
17.897756398178828
30
0
10
770.6753065065916
20
17.885783951407745
30
0
10
770.68009604756185
20
17.873763111824914
30
0
10
770.68481741807875
20
17.861693984984797
30
0
10
770.68946045570078
20
17.849825098655288
30
0
10
770.69403756663269
20
17.837909514864734
30
0
10
770.69854534632429
20
17.825947193530922
30
0
10
770.70303772634418
20
17.814025738396566
30
0
10
770.70746124861785
20
17.802057865660501
30
0
10
770.71181256626232
20
17.790043382437801
30
0
10
770.71614921005687
20
17.778069415384508
30
0
10
770.72041413611782
20
17.766049152805437
30
0
10
770.72460404754679
20
17.753982236861532
30
0
10
770.7287262502482
20
17.742110321585045
30
0
10
770.73277584397306
20
17.730193249208241
30
0
10
770.73674969844114
20
17.718230508383144
30
0
10
770.74071019154758
20
17.706307990094743
30
0
10
770.74459545489287
20
17.694340111025042
30
0
10
770.74840239807895
20
17.682326189739968
30
0
10
770.7521962339564
20
17.670353632396285
30
0
10
770.75591228934752
20
17.658335350467596
30
0
10
770.75954751166489
20
17.646270488738551
30
0
10
770.76312559906228
20
17.634395250875983
30
0
10
770.76662537563493
20
17.622474886455137
30
0
10
770.77004392737069
20
17.61050839919875
30
0
10
770.77344982093086
20
17.598586221319081
30
0
10
770.77677509150953
20
17.586618262192957
30
0
10
770.78001683243986
20
17.574603345351889
30
0
10
770.78324586743088
20
17.562635520739036
30
0
10
770.78639202764589
20
17.550621106007114
30
0
10
770.78945239240647
20
17.5385587406155
30
0
10
770.7924661191114
20
17.526680198170652
30
0
10
770.7953966464305
20
17.514755154891759
30
0
10
770.79824112487199
20
17.502782124364842
30
0
10
770.80107309674781
20
17.490861736702925
30
0
10
770.80381977645152
20
17.478893782911626
30
0
10
770.8064782995018
20
17.466876626336543
30
0
10
770.80912429927037
20
17.454916077973834
30
0
10
770.81168297327952
20
17.442906789552737
30
0
10
770.81415144954872
20
17.430846992492519
30
0
10
770.81658886588127
20
17.418938939461057
30
0
10
770.81893464764585
20
17.40699907013898
30
0
10
770.82118297658485
20
17.395048075744555
30
0
10
770.8234312994332
20
17.383097113724162
30
0
10
770.82558352700232
20
17.371128442941455
30
0
10
770.82763822106142
20
17.359141398774796
30
0
10
770.82969229756145
20
17.347157957436252
30
0
10
770.83164889850627
20
17.335156153483879
30
0
10
770.83350655594415
20
17.323135244369468
30
0
10
770.83534880247134
20
17.311214059324129
30
0
10
770.83709373876684
20
17.299274084273293
30
0
10
770.83873991467362
20
17.28731452244773
30
0
10
770.84038461893886
20
17.275365652181165
30
0
10
770.84193074042059
20
17.263397231216686
30
0
10
770.84337687526624
20
17.251408404716528
30
0
10
770.84482125894533
20
17.239434095833204
30
0
10
770.84616590278767
20
17.227439432973171
30
0
10
770.84740946998761
20
17.215423496246345
30
0
10
770.84864431508481
20
17.203491836618952
30
0
10
770.84977950303687
20
17.191539202102248
30
0
10
770.8508137299965
20
17.179564603092388
30
0
10
770.85184562186089
20
17.167617040538374
30
0
10
770.85277700918925
20
17.155647611804241
30
0
10
770.85360650369023
20
17.143655231992767
30
0
10
770.85443361694615
20
17.131697278928755
30
0
10
770.85515941438666
20
17.119716504515665
30
0
10
770.85578244094381
20
17.107711748123293
30
0
10
770.85640171426905
20
17.095779310695036
30
0
10
770.85691943789811
20
17.083823178681428
30
0
10
770.85733424229784
20
17.071842146610479
30
0
10
770.85774766654583
20
17.059900978251861
30
0
10
770.85805884457227
20
17.047935076714822
30
0
10
770.85826660270175
20
17.035943171504471
30
0
10
770.85847376661968
20
17.023985564488839
30
0
10
770.85857804703164
20
17.011993327199022
30
0
10
770.85857864376237
20
17.000000000000242
30
0
0
SPLINE
5
103
100
AcDbEntity
8
OUTER_PROFILES
100
AcDbSpline
70
0
71
3
72
14
73
10
74
0
42
0.000000001
43
0.0000000001
44
0.0000000001
40
0
40
0
40
0
40
0
40
0.0035294938861163533
40
0.0035294938861163533
40
0.0035294938861163533
40
0.0070633763688323654
40
0.0070633763688323654
40
0.0070633763688323654
40
0.010030481015450612
40
0.010030481015450612
40
0.010030481015450612
40
0.010030481015450612
10
769.85857864376294
20
19.261946710584468
30
0
10
769.86689776139372
20
19.249967240986905
30
0
10
769.8752097071673
20
19.23799807394758
30
0
10
769.88351265266044
20
19.226038129984033
30
0
10
769.89182592209227
20
19.214063314945236
30
0
10
769.90013016817568
20
19.202097745133244
30
0
10
769.90842356009466
20
19.190140373067308
30
0
10
769.9153868255172
20
19.180100770904076
30
0
10
769.92234243958114
20
19.170066948848472
30
0
10
769.92928932188181
20
19.160038306306504
30
0
0
ARC
5
104
100
AcDbEntity
8
OUTER_PROFILES
100
AcDbCircle
10
769.89393398282243
20
19.29730204964379
30
0
40
0.04999999999999237
210
0
220
-0
230
1
100
AcDbArc
50
44.999999999953943
51
224.99999999986179
0
SPLINE
5
105
100
AcDbEntity
8
OUTER_PROFILES
100
AcDbSpline
70
0
71
3
72
14
73
10
74
0
42
0.000000001
43
0.0000000001
44
0.0000000001
40
0.1802720092854519
40
0.1802720092854519
40
0.1802720092854519
40
0.1802720092854519
40
0.18319469932262289
40
0.18319469932262289
40
0.18319469932262289
40
0.18668329919267718
40
0.18668329919267718
40
0.18668329919267718
40
0.19017595369260198
40
0.19017595369260198
40
0.19017595369260198
40
0.19017595369260198
10
770.0311977259164
20
19.261946710584468
30
0
10
770.0211591432876
20
19.268900478091169
30
0
10
770.0111252937312
20
19.275856119665917
30
0
10
770.00109565940033
20
19.282812471442838
30
0
10
769.98912402348355
20
19.291115756292214
30
0
10
769.97715839343937
20
19.299420053424399
30
0
10
769.96519790246271
20
19.307723378820043
30
0
10
769.95322351038931
20
19.316036354766766
30
0
10
769.9412542685368
20
19.324348355983076
30
0
10
769.92928932188192
20
19.332657388703183
30
0
0
SPLINE
5
106
100
AcDbEntity
8
OUTER_PROFILES
100
AcDbSpline
70
0
71
3
72
185
73
181
74
0
42
0.000000001
43
0.0000000001
44
0.0000000001
40
0
40
0
40
0
40
0
40
0.0025011935495229884
40
0.0025011935495229884
40
0.0025011935495229884
40
0.0050092895947320797
40
0.0050092895947320797
40
0.0050092895947320797
40
0.007524886739469998
40
0.007524886739469998
40
0.007524886739469998
40
0.010054850298623538
40
0.010054850298623538
40
0.010054850298623538
40
0.012591210399851087
40
0.012591210399851087
40
0.012591210399851087
40
0.015132415210484824
40
0.015132415210484824
40
0.015132415210484824
40
0.017690657547513585
40
0.017690657547513585
40
0.017690657547513585
40
0.020251075202031173
40
0.020251075202031173
40
0.020251075202031173
40
0.022812842871030643
40
0.022812842871030643
40
0.022812842871030643
40
0.025395070784273718
40
0.025395070784273718
40
0.025395070784273718
40
0.027977081892304013
40
0.027977081892304013
40
0.027977081892304013
40
0.030565127766649394
40
0.030565127766649394
40
0.030565127766649394
40
0.033190466330988724
40
0.033190466330988724
40
0.033190466330988724
40
0.035827159314421084
40
0.035827159314421084
40
0.035827159314421084
40
0.038474512600182281
40
0.038474512600182281
40
0.038474512600182281
40
0.041161930774707388
40
0.041161930774707388
40
0.041161930774707388
40
0.043859118825208529
40
0.043859118825208529
40
0.043859118825208529
40
0.046565633603785003
40
0.046565633603785003
40
0.046565633603785003
40
0.049314766454304784
40
0.049314766454304784
40
0.049314766454304784
40
0.052072905267966166
40
0.052072905267966166
40
0.052072905267966166
40
0.05483996635300703
40
0.05483996635300703
40
0.05483996635300703
40
0.057652195191424831
40
0.057652195191424831
40
0.057652195191424831
40
0.060473965781737395
40
0.060473965781737395
40
0.060473965781737395
40
0.063307068429887106
40
0.063307068429887106
40
0.063307068429887106
40
0.066189344713332612
40
0.066189344713332612
40
0.066189344713332612
40
0.069082804304311046
40
0.069082804304311046
40
0.069082804304311046
40
0.071987125616838413
40
0.071987125616838413
40
0.071987125616838413
40
0.074940644678239632
40
0.074940644678239632
40
0.074940644678239632
40
0.077904972325529787
40
0.077904972325529787
40
0.077904972325529787
40
0.080880100125728063
40
0.080880100125728063
40
0.080880100125728063
40
0.083904485339253862
40
0.083904485339253862
40
0.083904485339253862
40
0.086940276760985466
40
0.086940276760985466
40
0.086940276760985466
40
0.089987812020949576
40
0.089987812020949576
40
0.089987812020949576
40
0.093084934836508468
40
0.093084934836508468
40
0.093084934836508468
40
0.096195140095301904
40
0.096195140095301904
40
0.096195140095301904
40
0.099319134622071537
40
0.099319134622071537
40
0.099319134622071537
40
0.10249211732994346
40
0.10249211732994346
40
0.10249211732994346
40
0.10567378702861766
40
0.10567378702861766
40
0.10567378702861766
40
0.10886331561683413
40
0.10886331561683413
40
0.10886331561683413
40
0.11209365086939091
40
0.11209365086939091
40
0.11209365086939091
40
0.11533141167567132
40
0.11533141167567132
40
0.11533141167567132
40
0.11857638831000059
40
0.11857638831000059
40
0.11857638831000059
40
0.12185868880749547
40
0.12185868880749547
40
0.12185868880749547
40
0.12514810519541872
40
0.12514810519541872
40
0.12514810519541872
40
0.12844461161649914
40
0.12844461161649914
40
0.12844461161649914
40
0.13177502118054762
40
0.13177502118054762
40
0.13177502118054762
40
0.13511274164863288
40
0.13511274164863288
40
0.13511274164863288
40
0.13845791149863149
40
0.13845791149863149
40
0.13845791149863149
40
0.14183368673851096
40
0.14183368673851096
40
0.14183368673851096
40
0.14521751878565498
40
0.14521751878565498
40
0.14521751878565498
40
0.14860975057862882
40
0.14860975057862882
40
0.14860975057862882
40
0.15202954150746775
40
0.15202954150746775
40
0.15202954150746775
40
0.15545856907751365
40
0.15545856907751365
40
0.15545856907751365
40
0.15889711376550944
40
0.15889711376550944
40
0.15889711376550944
40
0.16235481971833923
40
0.16235481971833923
40
0.16235481971833923
40
0.16581503576978496
40
0.16581503576978496
40
0.16581503576978496
40
0.16927782891458643
40
0.16927782891458643
40
0.16927782891458643
40
0.17275276761515238
40
0.17275276761515238
40
0.17275276761515238
40
0.1762298718292824
40
0.1762298718292824
40
0.1762298718292824
40
0.18027200928545667
40
0.18027200928545667
40
0.18027200928545667
40
0.18027200928545667
10
772.19123603246658
20
18.332657388702955
30
0
10
772.17923030345958
20
18.332657985885845
30
0
10
772.16724969091661
20
18.332762279027008
30
0
10
772.15529286019193
20
18.332969429446422
30
0
10
772.14330303243162
20
18.333177151534912
30
0
10
772.13133712042509
20
18.333488293999594
30
0
10
772.11939388512087
20
18.333901789872016
30
0
10
772.10741493053206
20
18.334316522409111
30
0
10
772.09545879000962
20
18.334834210711151
30
0
10
772.08352428434341
20
18.335453591521826
30
0
10
772.07152162147861
20
18.336076509576671
30
0
10
772.05954084064888
20
18.336802271493724
30
0
10
772.04758080153306
20
18.337629529199546
30
0
10
772.03559052368405
20
18.338458878472608
30
0
10
772.02362109073215
20
18.339390230161428
30
0
10
772.01167143110126
20
18.340422303221828
30
0
10
771.99969894638787
20
18.341456347648233
30
0
10
771.98774630986009
20
18.342591499606939
30
0
10
771.97581253765702
20
18.343826563265111
30
0
10
771.96379875539037
20
18.345069907416658
30
0
10
771.95180409288696
20
18.346414514139724
30
0
10
771.9398276280142
20
18.347859157684638
30
0
10
771.92784097934714
20
18.349305029634806
30
0
10
771.9158725614418
20
18.350851113378965
30
0
10
771.90392150895445
20
18.352496117815633
30
0
10
771.89196415511469
20
18.354141989602937
30
0
10
771.88002418607027
20
18.355886887502066
30
0
10
771.86810078629605
20
18.357729476195033
30
0
10
771.85608215709306
20
18.359586781216564
30
0
10
771.8440803623464
20
18.361543342103062
30
0
10
771.83209463203696
20
18.36359781101109
30
0
10
771.82010990805566
20
18.36565210742485
30
0
10
771.80814055166491
20
18.367804425313352
30
0
10
771.79618795585839
20
18.370053055659525
30
0
10
771.78420742402864
20
18.372306941582863
30
0
10
771.7722749856157
20
18.374651691558057
30
0
10
771.76038903997426
20
18.377084582916865
30
0
10
771.74833182268321
20
18.379552531252088
30
0
10
771.73632244782584
20
18.38211118178485
30
0
10
771.72435940656374
20
18.384757733072803
30
0
10
771.71234462592383
20
18.387415730523529
30
0
10
771.7003765811703
20
18.39016239297365
30
0
10
771.6884539084474
20
18.392994907674449
30
0
10
771.67648303166857
20
18.395838874396091
30
0
10
771.66455789495694
20
18.398769390594083
30
0
10
771.65267729185121
20
18.401783640058866
30
0
10
771.6406168883974
20
18.404843506997537
30
0
10
771.62860237647692
20
18.407989661806781
30
0
10
771.61663268684788
20
18.411219199979598
30
0
10
771.60461948244904
20
18.414460478858672
30
0
10
771.59265142732124
20
18.417785749698368
30
0
10
771.58072763301243
20
18.4211921050602
30
0
10
771.56876260687807
20
18.424610239411692
30
0
10
771.55684214907853
20
18.428110021326987
30
0
10
771.54496554372804
20
18.431688520800691
30
0
10
771.53290192368797
20
18.435323369033014
30
0
10
771.52088354880038
20
18.439039434594449
30
0
10
771.50890984308444
20
18.442833634406171
30
0
10
771.49689691236279
20
18.446640263745877
30
0
10
771.48492894523201
20
18.45052554121942
30
0
10
771.47300552478089
20
18.454486334039188
30
0
10
771.46104353339456
20
18.458459939581928
30
0
10
771.44912637853986
20
18.462509550695145
30
0
10
771.43725379648356
20
18.466631984918678
30
0
10
771.42518741391416
20
18.470821711148631
30
0
10
771.41316707191663
20
18.47508665798081
30
0
10
771.40119265078943
20
18.479423466194476
30
0
10
771.38917760104971
20
18.483774988981594
30
0
10
771.37720726458838
20
18.488199447915861
30
0
10
771.36528883932044
20
18.492690686134665
30
0
10
771.35332255038657
20
18.497199960890995
30
0
10
771.34140755565659
20
18.501776898315399
30
0
10
771.3295420474816
20
18.50641861438703
30
0
10
771.31747059189001
20
18.511140895860478
30
0
10
771.30545035543878
20
18.515930225449608
30
0
10
771.29347963412033
20
18.52078362852339
30
0
10
771.28146246608935
20
18.525655862928332
30
0
10
771.26949519863558
20
18.530592670313908
30
0
10
771.25757630885892
20
18.535591089244292
30
0
10
771.24561267691195
20
18.540608271676575
30
0
10
771.23369778708775
20
18.545687530235639
30
0
10
771.22183029935877
20
18.550825906234962
30
0
10
771.20976178232968
20
18.556051323750964
30
0
10
771.19774228711231
20
18.561337879453461
30
0
10
771.18577061109636
20
18.566682489106512
30
0
10
771.17375512399053
20
18.572046657689469
30
0
10
771.16178780746372
20
18.577469306803636
30
0
10
771.14986764736364
20
18.582947334747075
30
0
10
771.13790405766747
20
18.588445321192566
30
0
10
771.1259879694303
20
18.593999091484363
30
0
10
771.11411855123583
20
18.599605516873297
30
0
10
771.10205261817612
20
18.605304764497532
30
0
10
771.0900349137454
20
18.611058425832709
30
0
10
771.07806475843904
20
18.616863213515771
30
0
10
771.06604945872334
20
18.622689893455373
30
0
10
771.05408206831794
20
18.628568086623716
30
0
10
771.04216208606749
20
18.634494461661006
30
0
10
771.03019599184017
20
18.640443762644168
30
0
10
771.01827767409577
20
18.646441619386707
30
0
10
771.00640680311244
20
18.652484650932166
30
0
10
770.99434277686612
20
18.658626010843733
30
0
10
770.98232775444899
20
18.664814027941716
30
0
10
770.97036156586205
20
18.671045139535281
30
0
10
770.95834483133547
20
18.677302571739531
30
0
10
770.94637734485968
20
18.683603463473304
30
0
10
770.93445910219521
20
18.689944190593906
30
0
10
770.92248801933908
20
18.696313029680809
30
0
10
770.91056661865878
20
18.702722058268719
30
0
10
770.89869505498939
20
18.709167586844373
30
0
10
770.88663733020303
20
18.715714189451518
30
0
10
770.87463220977475
20
18.722297730570645
30
0
10
770.86266049129551
20
18.728925300777917
30
0
10
770.85065599665018
20
18.735571015944288
30
0
10
770.83868915840799
20
18.742258810761001
30
0
10
770.82675818375276
20
18.748986474879956
30
0
10
770.81479773897001
20
18.755730756679014
30
0
10
770.80287333549609
20
18.762515105626321
30
0
10
770.79098330686656
20
18.76933733063936
30
0
10
770.77894115782351
20
18.776246838847541
30
0
10
770.76693426896077
20
18.783195199015239
30
0
10
770.75496105006721
20
18.790180163599786
30
0
10
770.74296030840196
20
18.797181184483662
30
0
10
770.73099339208568
20
18.804218978770777
30
0
10
770.71905883745194
20
18.811291305151627
30
0
10
770.70709768490076
20
18.818379393256137
30
0
10
770.69516903886677
20
18.825502167983004
30
0
10
770.6832715587434
20
18.832657388703069
30
0
10
770.67123723328348
20
18.839894909084762
30
0
10
770.65923479505136
20
18.847165626507305
30
0
10
770.64726298850633
20
18.854467232875791
30
0
10
770.6352652275848
20
18.861784668821997
30
0
10
770.62329823174673
20
18.869133128089643
30
0
10
770.61136086336489
20
18.876510293168707
30
0
10
770.59939776508827
20
18.883903359045675
30
0
10
770.58746442252777
20
18.891325254829425
30
0
10
770.57555981062023
20
18.898773649585507
30
0
10
770.56353276492723
20
18.906298647860638
30
0
10
770.55153504412544
20
18.913850693131167
30
0
10
770.53956570903426
20
18.921427380707172
30
0
10
770.52757009889842
20
18.929020700602592
30
0
10
770.51560299965433
20
18.936638771253058
30
0
10
770.50366357994665
20
18.944279169845402
30
0
10
770.49169751292129
20
18.951936620868537
30
0
10
770.47975924956518
20
18.959616499737066
30
0
10
770.46784806249718
20
18.967316364336853
30
0
10
770.45582789844411
20
18.975086675989772
30
0
10
770.44383530873029
20
18.982877340858622
30
0
10
770.43186965246502
20
18.990685844975914
30
0
10
770.41987543831908
20
18.99851298529029
30
0
10
770.40790828669731
20
19.006358050107366
30
0
10
770.39596765164379
20
19.014218501145663
30
0
10
770.38399737614191
20
19.022098464319868
30
0
10
770.3720537492668
20
19.029993890095227
30
0
10
770.36013631437424
20
19.03790221429233
30
0
10
770.34812205997559
20
19.045874787218366
30
0
10
770.3361344249879
20
19.053860468847077
30
0
10
770.32417303293005
20
19.061856626305342
30
0
10
770.3121793339011
20
19.069874380884286
30
0
10
770.30021202008595
20
19.077902667881403
30
0
10
770.28827080283645
20
19.085938831163034
30
0
10
770.27629644325407
20
19.093997298468821
30
0
10
770.26435213835498
20
19.102061102384909
30
0
10
770.25242456625153
20
19.110136454746751
30
0
10
770.24043052784066
20
19.118256806949816
30
0
10
770.22844914738369
20
19.126391741147586
30
0
10
770.21647935436636
20
19.134539324190243
30
0
10
770.20450087195752
20
19.142692821916611
30
0
10
770.19253399408035
20
19.150858986918777
30
0
10
770.1805776880683
20
19.159035880992548
30
0
10
770.16861247726058
20
19.167218865038436
30
0
10
770.15665785401552
20
19.175412593966286
30
0
10
770.14471281812814
20
19.183615122526874
30
0
10
770.13272588568702
20
19.191846421003476
30
0
10
770.12074860794701
20
19.200086580796736
30
0
10
770.10878000849618
20
19.208333634945092
30
0
10
770.09680395044916
20
19.216585828495667
30
0
10
770.08483658182843
20
19.224844925069178
30
0
10
770.07287696019421
20
19.233108956016665
30
0
10
770.05897388694939
20
19.242715901041763
30
0
10
770.04508128193334
20
19.252329514185575
30
0
10
770.03119772591663
20
19.261946710584397
30
0
0
LINE
5
107
100
AcDbEntity
8
OUTER_PROFILES
100
AcDbLine
10
772.19123603246658
20
18.332657388702955
30
0
11
789.19123603246658
21
18.332657388703595
31
0
0
LINE
5
108
100
AcDbEntity
8
OUTER_PROFILES
100
AcDbLine
10
789.19123603246658
20
18.332657388703595
30
0
11
789.19123603245748
21
605.1912360324767
31
0
0
LINE
5
109
100
AcDbEntity
8
OUTER_PROFILES
100
AcDbLine
10
789.19123603245748
20
605.1912360324767
30
0
11
772.19123603245737
21
605.19123603247624
31
0
0
SPLINE
5
110
100
AcDbEntity
8
OUTER_PROFILES
100
AcDbSpline
70
0
71
3
72
185
73
181
74
0
42
0.000000001
43
0.0000000001
44
0.0000000001
40
0.010030481141159994
40
0.010030481141159994
40
0.010030481141159994
40
0.010030481141159994
40
0.014143719803503207
40
0.014143719803503207
40
0.014143719803503207
40
0.017690941504371772
40
0.017690941504371772
40
0.017690941504371772
40
0.021244222781247869
40
0.021244222781247869
40
0.021244222781247869
40
0.024793325428710818
40
0.024793325428710818
40
0.024793325428710818
40
0.028348044403313934
40
0.028348044403313934
40
0.028348044403313934
40
0.031908493746359796
40
0.031908493746359796
40
0.031908493746359796
40
0.035459999057015336
40
0.035459999057015336
40
0.035459999057015336
40
0.039017358490277848
40
0.039017358490277848
40
0.039017358490277848
40
0.042580517276861331
40
0.042580517276861331
40
0.042580517276861331
40
0.046129798275123007
40
0.046129798275123007
40
0.046129798275123007
40
0.049684714895417773
40
0.049684714895417773
40
0.049684714895417773
40
0.053245265489364008
40
0.053245265489364008
40
0.053245265489364008
40
0.056787212282717991
40
0.056787212282717991
40
0.056787212282717991
40
0.060334668314511626
40
0.060334668314511626
40
0.060334668314511626
40
0.063887560517711078
40
0.063887560517711078
40
0.063887560517711078
40
0.067417186379112079
40
0.067417186379112079
40
0.067417186379112079
40
0.070951965908388995
40
0.070951965908388995
40
0.070951965908388995
40
0.074491779519232984
40
0.074491779519232984
40
0.074491779519232984
40
0.078006959627562544
40
0.078006959627562544
40
0.078006959627562544
40
0.08153908777169469
40
0.08153908777169469
40
0.08153908777169469
40
0.085088623010662529
40
0.085088623010662529
40
0.085088623010662529
40
0.088618643875556125
40
0.088618643875556125
40
0.088618643875556125
40
0.092165419356024486
40
0.092165419356024486
40
0.092165419356024486
40
0.095728773778747847
40
0.095728773778747847
40
0.095728773778747847
40
0.099268164008909782
40
0.099268164008909782
40
0.099268164008909782
40
0.10282334614256616
40
0.10282334614256616
40
0.10282334614256616
40
0.10639406856894838
40
0.10639406856894838
40
0.10639406856894838
40
0.10993675134880249
40
0.10993675134880249
40
0.10993675134880249
40
0.11349401310870269
40
0.11349401310870269
40
0.11349401310870269
40
0.11706550334077388
40
0.11706550334077388
40
0.11706550334077388
40
0.12060535755400151
40
0.12060535755400151
40
0.12060535755400151
40
0.12415827049051095
40
0.12415827049051095
40
0.12415827049051095
40
0.12772376546049394
40
0.12772376546049394
40
0.12772376546049394
40
0.13125462285789027
40
0.13125462285789027
40
0.13125462285789027
40
0.13479661847733085
40
0.13479661847733085
40
0.13479661847733085
40
0.13833622184332006
40
0.13833622184332006
40
0.13833622184332006
40
0.14181709917235516
40
0.14181709917235516
40
0.14181709917235516
40
0.14528608497752452
40
0.14528608497752452
40
0.14528608497752452
40
0.14874337240035485
40
0.14874337240035485
40
0.14874337240035485
40
0.15214479025718575
40
0.15214479025718575
40
0.15214479025718575
40
0.15553477146593087
40
0.15553477146593087
40
0.15553477146593087
40
0.15891308096624743
40
0.15891308096624743
40
0.15891308096624743
40
0.16223829345436541
40
0.16223829345436541
40
0.16223829345436541
40
0.16555119338244992
40
0.16555119338244992
40
0.16555119338244992
40
0.16885110846500107
40
0.16885110846500107
40
0.16885110846500107
40
0.17210073489396185
40
0.17210073489396185
40
0.17210073489396185
40
0.17533607340761173
40
0.17533607340761173
40
0.17533607340761173
40
0.17855617148324987
40
0.17855617148324987
40
0.17855617148324987
40
0.18173575223932051
40
0.18173575223932051
40
0.18173575223932051
40
0.18491532438262842
40
0.18491532438262842
40
0.18491532438262842
40
0.18809394087368372
40
0.18809394087368372
40
0.18809394087368372
40
0.19124618793118883
40
0.19124618793118883
40
0.19124618793118883
40
0.19439561695670146
40
0.19439561695670146
40
0.19439561695670146
40
0.19754123224825687
40
0.19754123224825687
40
0.19754123224825687
40
0.20066478489689848
40
0.20066478489689848
40
0.20066478489689848
40
0.20378128513568056
40
0.20378128513568056
40
0.20378128513568056
40
0.20688883878053543
40
0.20688883878053543
40
0.20688883878053543
40
0.20997767192512332
40
0.20997767192512332
40
0.20997767192512332
40
0.21305622779646183
40
0.21305622779646183
40
0.21305622779646183
40
0.21612597865339087
40
0.21612597865339087
40
0.21612597865339087
40
0.21612597865339087
10
770.03119772613195
20
604.26194671059488
30
0
10
770.04510023526973
20
604.2715770362405
30
0
10
770.05899279006712
20
604.28119058272364
30
0
10
770.07287696019375
20
604.29078446621259
30
0
10
770.08485054928371
20
604.29905814894801
30
0
10
770.0968179019053
20
604.30731720777419
30
0
10
770.10878000848788
20
604.31555978817858
30
0
10
770.12076254945566
20
604.32381644905126
30
0
10
770.13273982615624
20
604.33205657521671
30
0
10
770.14471281811223
20
604.34027830087143
30
0
10
770.15667172992835
20
604.34849035784475
30
0
10
770.16862636710039
20
604.35668405738409
30
0
10
770.18057768805204
20
604.36485754192381
30
0
10
770.19254792153879
20
604.37304396070851
30
0
10
770.20451482838075
20
604.38121010024804
30
0
10
770.2164793543551
20
604.389354097808
30
0
10
770.2284631676888
20
604.39751122386178
30
0
10
770.2404445922383
20
604.40564613649212
30
0
10
770.25242456624267
20
604.41375696643229
30
0
10
770.26437444593455
20
604.42184742154927
30
0
10
770.27632288189022
20
604.42991391499118
30
0
10
770.28827080282895
20
604.43795458966997
30
0
10
770.30023841811908
20
604.44600851819223
30
0
10
770.31220551633794
20
604.45403654286031
30
0
10
770.32417303292186
20
604.46203679462315
30
0
10
770.33616005944236
20
604.47005008872463
30
0
10
770.34814750543478
20
604.47803551931645
30
0
10
770.36013631436504
20
604.48599120688709
30
0
10
770.37207842929081
20
604.49391590865116
30
0
10
770.38402189643307
20
604.5018110985543
30
0
10
770.39596765163378
20
604.50967492017094
30
0
10
770.40793237455262
20
604.51755122812676
30
0
10
770.41989939263817
20
604.52539606805101
30
0
10
770.43186965245593
20
604.53320757630752
30
0
10
770.44385888321915
20
604.54103146455373
30
0
10
770.45585136573959
20
604.54882191541901
30
0
10
770.4678480624882
20
604.55657705684246
30
0
10
770.47978207675339
20
604.56429167781789
30
0
10
770.49172026100814
20
604.57197135745832
30
0
10
770.50366357993653
20
604.57961425127428
30
0
10
770.51562547582148
20
604.58726903305103
30
0
10
770.52759252204953
20
604.59488691456374
30
0
10
770.53956570902346
20
604.60246604042618
30
0
10
770.55155724387714
20
604.61005678064737
30
0
10
770.56355493802141
20
604.61760864641792
30
0
10
770.57555981061114
20
604.62511977159363
30
0
10
770.5874860685251
20
604.63258170968572
30
0
10
770.59941941095303
20
604.64000343907276
30
0
10
770.61136086335864
20
604.64738312803729
30
0
10
770.62331975168581
20
604.65477359221347
30
0
10
770.6352867734148
20
604.66212189319162
30
0
10
770.64726298850019
20
604.669426188324
30
0
10
770.6592562595979
20
604.67674088592048
30
0
10
770.67125874994736
20
604.68401145236487
30
0
10
770.6832715587343
20
604.69123603247601
30
0
10
770.69520077058996
20
604.69841033685736
30
0
10
770.70713868370206
20
604.70553832349719
30
0
10
770.71905883743875
20
604.71260211601498
30
0
10
770.73103646282334
20
604.71969996579435
30
0
10
770.74300346205962
20
604.72673741177357
30
0
10
770.75496105005368
20
604.73371325756966
30
0
10
770.76697756763917
20
604.74072348184927
30
0
10
770.77898458074856
20
604.74767149741081
30
0
10
770.79098330685713
20
604.75455609053961
30
0
10
770.80291606725086
20
604.761402834058
30
0
10
770.81484063125106
20
604.76818685070123
30
0
10
770.82675818375026
20
604.77490694630524
30
0
10
770.83873230079075
20
604.78165893764674
30
0
10
770.85069933935824
20
604.78834639986144
30
0
10
770.86266049129449
20
604.794968120406
30
0
10
770.87467755408511
20
604.80162079332501
30
0
10
770.88668867480408
20
604.80820710869079
30
0
10
770.89869505498064
20
604.81472583433481
30
0
10
770.910620690114
20
604.82120072038879
30
0
10
770.92254164796248
20
604.82760892293174
30
0
10
770.93445910217383
20
604.83394923058199
30
0
10
770.94642972918473
20
604.84031782715203
30
0
10
770.95839682092731
20
604.8466179218085
30
0
10
770.97036156583783
20
604.85284828164117
30
0
10
770.98237861063922
20
604.85910587541343
30
0
10
770.99439328773656
20
604.86529312360244
30
0
10
771.00640680310335
20
604.87140877024706
30
0
10
771.01832598049464
20
604.8774763928368
30
0
10
771.03024401403923
20
604.88347353420272
30
0
10
771.04216208608193
20
604.88939895952012
30
0
10
771.05412920381821
20
604.8953487693683
30
0
10
771.06609636004782
20
604.90122627196581
30
0
10
771.07806475846076
20
604.90703020766523
30
0
10
771.09008102853318
20
604.9128573581695
30
0
10
771.1020985504033
20
604.91861035240174
30
0
10
771.11411855122651
20
604.92428790430597
30
0
10
771.12603207969573
20
604.92991516483971
30
0
10
771.13794804310089
20
604.93546831394929
30
0
10
771.14986764730236
20
604.94094608643024
30
0
10
771.16183122360087
20
604.94644406672501
30
0
10
771.17379846727613
20
604.9518661136093
30
0
10
771.18577061102042
20
604.95721093207055
30
0
10
771.19778515206417
20
604.96257467829241
30
0
10
771.20980462762054
20
604.96786064856838
30
0
10
771.2218302993499
20
604.97306751494432
30
0
10
771.23373914576291
20
604.97822379838192
30
0
10
771.2456540683138
20
604.98330250776655
30
0
10
771.25757630896726
20
604.98830233193826
30
0
10
771.26953615877596
20
604.99331792824273
30
0
10
771.28149909588774
20
604.99825240935274
30
0
10
771.29347963427881
20
605.00310979266021
30
0
10
771.30545208104934
20
605.00796389530524
30
0
10
771.31747292063233
20
605.01275343627526
30
0
10
771.32954204747296
20
605.01747480679217
30
0
10
771.34141093380208
20
605.02211784441397
30
0
10
771.35332651759245
20
605.02669495534565
30
0
10
771.36528883892652
20
605.03120273503737
30
0
10
771.37721029406055
20
605.03569511505691
30
0
10
771.3891781667968
20
605.04011863733081
30
0
10
771.40119265001977
20
605.0444699549754
30
0
10
771.41316661707276
20
605.04880659876994
30
0
10
771.42518687965185
20
605.05307152483124
30
0
10
771.43725379559601
20
605.05726143626055
30
0
10
771.44912571087218
20
605.06138363896207
30
0
10
771.46104278324901
20
605.06543323268727
30
0
10
771.47300552407444
20
605.0694070871557
30
0
10
771.48492804236253
20
605.07336758026224
30
0
10
771.49689592143227
20
605.07725284360754
30
0
10
771.50890984271769
20
605.0810597867935
30
0
10
771.52088240006105
20
605.08485362267072
30
0
10
771.53290068198987
20
605.0885696780615
30
0
10
771.54496554371894
20
605.09220490037865
30
0
10
771.55684078158129
20
605.09578298777558
30
0
10
771.56876114600198
20
605.09928276434778
30
0
10
771.58072763325833
20
605.10270131608331
30
0
10
771.59264981113802
20
605.10610720964326
30
0
10
771.6046177702641
20
605.10943248022204
30
0
10
771.61663268710527
20
605.11267422115259
30
0
10
771.6286005117181
20
605.11590325614384
30
0
10
771.64061492645021
20
605.11904941635919
30
0
10
771.65267729184177
20
605.12210978112023
30
0
10
771.6645558342866
20
605.12512350782561
30
0
10
771.67648087756561
20
605.12805403514506
30
0
10
771.6884539080927
20
605.13089851358689
30
0
10
771.70037429575461
20
605.13373048546271
30
0
10
771.71234224954583
20
605.13647716516653
30
0
10
771.72435940612104
20
605.13913568821658
30
0
10
771.73631995448375
20
605.14178168798492
30
0
10
771.7483292429049
20
605.14434036199361
30
0
10
771.76038903996505
20
605.14680883826236
30
0
10
771.77229709299763
20
605.14924625459469
30
0
10
771.78423696231914
20
605.15159203635858
30
0
10
771.79618795671274
20
605.15384036529713
30
0
10
771.8081389187339
20
605.15608868814547
30
0
10
771.82010758951662
20
605.1582409157146
30
0
10
771.83209463368246
20
605.16029560977381
30
0
10
771.84407807502203
20
605.1623496862743
30
0
10
771.85607987897458
20
605.16430628721969
30
0
10
771.86810078808799
20
605.16616394465802
30
0
10
771.88002197313449
20
605.1680061911859
30
0
10
771.89196194818555
20
605.16975112748196
30
0
10
771.90392151000992
20
605.17139730338886
30
0
10
771.91587038027774
20
605.17304200765454
30
0
10
771.92783880124227
20
605.17458812913628
30
0
10
771.93982762774112
20
605.17603426398159
30
0
10
771.951801936626
20
605.17747864766056
30
0
10
771.96379659948605
20
605.17882329150234
30
0
10
771.97581253621115
20
605.18006685870137
30
0
10
771.98774419584038
20
605.18130170379789
30
0
10
771.99969683035715
20
605.18243689174892
30
0
10
772.01167142936492
20
605.18347111870776
30
0
10
772.02361899192124
20
605.18450301057169
30
0
10
772.03558842065547
20
605.18543439789983
30
0
10
772.04758080046474
20
605.18626389240114
30
0
10
772.059538753531
20
605.18709100565752
30
0
10
772.07151952794436
20
605.18781680309894
30
0
10
772.08352428433432
20
605.18843982965734
30
0
10
772.095456721765
20
605.18905910298395
30
0
10
772.10741285377867
20
605.18957682661505
30
0
10
772.1193938858471
20
605.18999163101614
30
0
10
772.13133505420831
20
605.19040505526573
30
0
10
772.14330095574542
20
605.19071623329319
30
0
10
772.15529286095318
20
605.19092399142221
30
0
10
772.16725046796955
20
605.19113115533969
30
0
10
772.17924270524372
20
605.19123543574949
30
0
10
772.19123603245737
20
605.19123603247624
30
0
0
SPLINE
5
111
100
AcDbEntity
8
OUTER_PROFILES
100
AcDbSpline
70
0
71
3
72
14
73
10
74
0
42
0.000000001
43
0.0000000001
44
0.0000000001
40
0
40
0
40
0
40
0
40
0.0035294939180990372
40
0.0035294939180990372
40
0.0035294939180990372
40
0.0070633764483504701
40
0.0070633764483504701
40
0.0070633764483504701
40
0.010030481141162322
40
0.010030481141162322
40
0.010030481141162322
40
0.010030481141162322
10
769.92928932187272
20
604.19123603247601
30
0
10
769.94126879148678
20
604.19955515024594
30
0
10
769.95323795852084
20
604.20786709609774
30
0
10
769.96519790245986
20
604.21617004160896
30
0
10
769.97717271752686
20
604.22448331109513
30
0
10
769.98913828734783
20
604.2327875571724
30
0
10
770.00109565939977
20
604.24108094902954
30
0
10
770.01113526157258
20
604.2480442144149
30
0
10
770.02116908362154
20
604.25499982840256
30
0
10
770.03119772613206
20
604.26194671059488
30
0
0
ARC
5
112
100
AcDbEntity
8
OUTER_PROFILES
100
AcDbCircle
10
769.89393398281334
20
604.22659137153528
30
0
40
0.04999999999999237
210
0
220
0
230
1
100
AcDbArc
50
134.99999999990789
51
315.00000000009209
0
SPLINE
5
113
100
AcDbEntity
8
OUTER_PROFILES
100
AcDbSpline
70
0
71
3
72
14
73
10
74
0
42
0.000000001
43
0.0000000001
44
0.0000000001
40
0.18027200071650742
40
0.18027200071650742
40
0.18027200071650742
40
0.18027200071650742
40
0.18319469046913367
40
0.18319469046913367
40
0.18319469046913367
40
0.18668328999998274
40
0.18668328999998274
40
0.18668328999998274
40
0.19017594416073796
40
0.19017594416073796
40
0.19017594416073796
40
0.19017594416073796
10
769.92928932187283
20
604.36385511463016
30
0
10
769.92233555436439
20
604.35381653199931
30
0
10
769.91537991278869
20
604.343782682442
30
0
10
769.90842356101155
20
604.33375304811125
30
0
10
769.90012027616092
20
604.32178141219288
30
0
10
769.89181597902859
20
604.30981578214846
30
0
10
769.88351265363372
20
604.29785529117294
30
0
10
769.87519967768685
20
604.2858808990992
30
0
10
769.86688767647161
20
604.2739116572476
30
0
10
769.85857864375384
20
604.26194671059488
30
0
0
SPLINE
5
114
100
AcDbEntity
8
OUTER_PROFILES
100
AcDbSpline
70
0
71
3
72
185
73
181
74
0
42
0.000000001
43
0.0000000001
44
0.0000000001
40
0
40
0
40
0
40
0
40
0.0025011934833334094
40
0.0025011934833334094
40
0.0025011934833334094
40
0.0050092895089118659
40
0.0050092895089118659
40
0.0050092895089118659
40
0.007524886673512904
40
0.007524886673512904
40
0.007524886673512904
40
0.010054850263641368
40
0.010054850263641368
40
0.010054850263641368
40
0.01259121035460772
40
0.01259121035460772
40
0.01259121035460772
40
0.015132415072789188
40
0.015132415072789188
40
0.015132415072789188
40
0.017690657244664659
40
0.017690657244664659
40
0.017690657244664659
40
0.020251074729177167
40
0.020251074729177167
40
0.020251074729177167
40
0.022812842298538354
40
0.022812842298538354
40
0.022812842298538354
40
0.025395070215438874
40
0.025395070215438874
40
0.025395070215438874
40
0.027977081405741143
40
0.027977081405741143
40
0.027977081405741143
40
0.030565127386535988
40
0.030565127386535988
40
0.030565127386535988
40
0.033190466012058245
40
0.033190466012058245
40
0.033190466012058245
40
0.035827159003380751
40
0.035827159003380751
40
0.035827159003380751
40
0.038474512270609627
40
0.038474512270609627
40
0.038474512270609627
40
0.04116193043765886
40
0.04116193043765886
40
0.04116193043765886
40
0.043859118517322361
40
0.043859118517322361
40
0.043859118517322361
40
0.046565633362239546
40
0.046565633362239546
40
0.046565633362239546
40
0.049314766303999148
40
0.049314766303999148
40
0.049314766303999148
40
0.052072905219173321
40
0.052072905219173321
40
0.052072905219173321
40
0.05483996639552241
40
0.05483996639552241
40
0.05483996639552241
40
0.057652195295971091
40
0.057652195295971091
40
0.057652195295971091
40
0.060473965924460103
40
0.060473965924460103
40
0.060473965924460103
40
0.063307068602560745
40
0.063307068602560745
40
0.063307068602560745
40
0.066189344932358868
40
0.066189344932358868
40
0.066189344932358868
40
0.06908280458240959
40
0.06908280458240959
40
0.06908280458240959
40
0.071987125944133465
40
0.071987125944133465
40
0.071987125944133465
40
0.074940645027475175
40
0.074940645027475175
40
0.074940645027475175
40
0.077904972662907981
40
0.077904972662907981
40
0.077904972662907981
40
0.080880100421021811
40
0.080880100421021811
40
0.080880100421021811
40
0.083904485566523052
40
0.083904485566523052
40
0.083904485566523052
40
0.086940276893859164
40
0.086940276893859164
40
0.086940276893859164
40
0.08998781202710078
40
0.08998781202710078
40
0.08998781202710078
40
0.093084934674820166
40
0.093084934674820166
40
0.093084934674820166
40
0.096195139721256789
40
0.096195139721256789
40
0.096195139721256789
40
0.099319133988312602
40
0.099319133988312602
40
0.099319133988312602
40
0.10249211638274537
40
0.10249211638274537
40
0.10249211638274537
40
0.10567378575900438
40
0.10567378575900438
40
0.10567378575900438
40
0.1088633140252127
40
0.1088633140252127
40
0.1088633140252127
40
0.11209364895220615
40
0.11209364895220615
40
0.11209364895220615
40
0.11533140943255059
40
0.11533140943255059
40
0.11533140943255059
40
0.11857638574096613
40
0.11857638574096613
40
0.11857638574096613
40
0.12185868591011131
40
0.12185868591011131
40
0.12185868591011131
40
0.12514810197068799
40
0.12514810197068799
40
0.12514810197068799
40
0.12844460806542179
40
0.12844460806542179
40
0.12844460806542179
40
0.13177501730137586
40
0.13177501730137586
40
0.13177501730137586
40
0.13511273744239069
40
0.13511273744239069
40
0.13511273744239069
40
0.13845790696664237
40
0.13845790696664237
40
0.13845790696664237
40
0.14183368188019252
40
0.14183368188019252
40
0.14183368188019252
40
0.14521751360280591
40
0.14521751360280591
40
0.14521751360280591
40
0.14860974507312769
40
0.14860974507312769
40
0.14860974507312769
40
0.15202953567969896
40
0.15202953567969896
40
0.15202953567969896
40
0.15545856292992088
40
0.15545856292992088
40
0.15545856292992088
40
0.15889710729582079
40
0.15889710729582079
40
0.15889710729582079
40
0.16235481290737339
40
0.16235481290737339
40
0.16235481290737339
40
0.16581502861794503
40
0.16581502861794503
40
0.16581502861794503
40
0.16927782142216627
40
0.16927782142216627
40
0.16927782142216627
40
0.17275275978156149
40
0.17275275978156149
40
0.17275275978156149
40
0.17622986365513499
40
0.17622986365513499
40
0.17622986365513499
40
0.18027200071651292
40
0.18027200071651292
40
0.18027200071651292
40
0.18027200071651292
10
770.85857864375362
20
606.52389342117908
30
0
10
770.85857804662112
20
606.51188769248984
30
0
10
770.85847375351045
20
606.49990708022142
30
0
10
770.85826660310761
20
606.4879502497356
30
0
10
770.85805888103198
20
606.47596042199166
30
0
10
770.85774773856224
20
606.46399450996614
30
0
10
770.85733424267562
20
606.4520512746152
30
0
10
770.85691951011768
20
606.44007231979106
30
0
10
770.85640182178258
20
606.42811617900588
30
0
10
770.85578244093483
20
606.41618167305614
30
0
10
770.85515952284004
20
606.40417900985381
30
0
10
770.85443376087824
20
606.39219822866539
30
0
10
770.85360650312566
20
606.38023818917691
30
0
10
770.85277715381937
20
606.36824791114952
30
0
10
770.85184580209784
20
606.35627847800458
30
0
10
770.85081372900038
20
606.34432881817486
30
0
10
770.84977968457019
20
606.33235633364939
30
0
10
770.84864453260911
20
606.32040369730259
30
0
10
770.84740946894431
20
606.30846992528461
30
0
10
770.84616612482125
20
606.29645614354251
30
0
10
770.84482151812733
20
606.28446148156684
30
0
10
770.84337687461755
20
606.2724850172342
30
0
10
770.84193100270522
20
606.26049836912989
30
0
10
770.84038491900503
20
606.24852995179936
30
0
10
770.83873991463179
20
606.23657889990579
30
0
10
770.83709404286287
20
606.22462154633115
30
0
10
770.8353491449966
20
606.2126815775714
30
0
10
770.833506556364
20
606.20075817810641
30
0
10
770.83164925132849
20
606.18873954873061
30
0
10
770.8296926904485
20
606.17673775383696
30
0
10
770.82763822157017
20
606.16475202341394
30
0
10
770.82558392512351
20
606.15276729895425
30
0
10
770.82343160720893
20
606.14079794206111
30
0
10
770.82118297686748
20
606.12884534591694
30
0
10
770.81892909092801
20
606.11686481363768
30
0
10
770.81658434093481
20
606.10493237477272
30
0
10
770.81415144953962
20
606.09304642868688
30
0
10
770.81168350121163
20
606.08098921115982
30
0
10
770.8091248506696
20
606.0689798360728
30
0
10
770.80647829934901
20
606.05701679459503
30
0
10
770.80382030191959
20
606.04500201398264
30
0
10
770.80107363947025
20
606.03303396926924
30
0
10
770.79824112475637
20
606.02111129660079
30
0
10
770.79539715805004
20
606.00914041999636
30
0
10
770.79246664185484
20
605.99721528347254
30
0
10
770.78945239239772
20
605.98533468056382
30
0
10
770.78639252545383
20
605.97327427725907
30
0
10
770.78324637064395
20
605.96125976549718
30
0
10
770.78001683249215
20
605.94929007602877
30
0
10
770.77677555359014
20
605.93727687162777
30
0
10
770.7734502827476
20
605.925308816501
30
0
10
770.77004392740821
20
605.9133850221948
30
0
10
770.76662579303229
20
605.90141999589912
30
0
10
770.76312601111476
20
605.88949953794122
30
0
10
770.75954751165591
20
605.87762293244066
30
0
10
770.75591266340723
20
605.86555931214343
30
0
10
770.75219659784557
20
605.85354093700755
30
0
10
770.74840239804314
20
605.84156723105923
30
0
10
770.74459576869913
20
605.82955430006086
30
0
10
770.74071049123165
20
605.81758633266884
30
0
10
770.73674969841159
20
605.80566291198636
30
0
10
770.7327760928838
20
605.79370092041358
30
0
10
770.72872648177952
20
605.78178376540279
30
0
10
770.72460404753792
20
605.76991118324065
30
0
10
770.72041432133574
20
605.75784480069569
30
0
10
770.71614937450363
20
605.7458244587749
30
0
10
770.7118125662663
20
605.73385003778083
30
0
10
770.70746104349269
20
605.72183498827724
30
0
10
770.70303658455737
20
605.70986465213082
30
0
10
770.69854534632555
20
605.69794622715517
30
0
10
770.6940360715696
20
605.68597993855042
30
0
10
770.68945913413381
20
605.67406494412228
30
0
10
770.68481741806966
20
605.66219943619456
30
0
10
770.68009513657773
20
605.65012798078783
30
0
10
770.67530580698917
20
605.63810774446415
30
0
10
770.67045240393077
20
605.6261370232138
30
0
10
770.66558016952013
20
605.61411985519919
30
0
10
770.66064336214254
20
605.60215258770279
30
0
10
770.6556449432104
20
605.59023369783824
30
0
10
770.65062776079367
20
605.57827006584455
30
0
10
770.64554850224135
20
605.56635517592758
30
0
10
770.6404101262217
20
605.5544876880715
30
0
10
770.63518470873476
20
605.54241917102786
30
0
10
770.62989815303479
20
605.53039967575944
30
0
10
770.62455354335145
20
605.51842799965652
30
0
10
770.61918937479913
20
605.50641251260106
30
0
10
770.61376672568372
20
605.49444519608801
30
0
10
770.60828869771035
20
605.48252503595677
30
0
10
770.60279071129048
20
605.47056144635098
30
0
10
770.59723694099694
20
605.45864535815736
30
0
10
770.59163051558357
20
605.44677593994845
30
0
10
770.58593126798223
20
605.43471000697514
30
0
10
770.58017760664802
20
605.42269230256954
30
0
10
770.57437281894124
20
605.41072214722215
30
0
10
770.56854613902817
20
605.39870684756875
30
0
10
770.56266794586247
20
605.38673945715777
30
0
10
770.55674157079625
20
605.37481947483366
30
0
10
770.5507922698464
20
605.36285338065818
30
0
10
770.5447944131065
20
605.35093506289604
30
0
10
770.53875138152466
20
605.33906419182551
30
0
10
770.53261002165368
20
605.32700016564263
30
0
10
770.5264220045575
20
605.31498514321572
30
0
10
770.52019089292094
20
605.30301895454261
30
0
10
770.51393346076168
20
605.29100222009879
30
0
10
770.50763256902894
20
605.27903473362733
30
0
10
770.50129184186198
20
605.26711649088259
30
0
10
770.49492300282338
20
605.25514540812389
30
0
10
770.48851397423687
20
605.24322400745439
30
0
10
770.48206844561241
20
605.23135244370224
30
0
10
770.47552184305812
20
605.21929471902035
30
0
10
770.46893830190538
20
605.20728959853432
30
0
10
770.46231073167974
20
605.19531788002337
30
0
10
770.45566501651206
20
605.18331338537666
30
0
10
770.44897722169571
20
605.171346547133
30
0
10
770.44224955757795
20
605.1594155724772
30
0
10
770.43550527577781
20
605.14745512768934
30
0
10
770.42872092683024
20
605.13553072421132
30
0
10
770.42189870181744
20
605.12364069557941
30
0
10
770.41498919360833
20
605.11159854653192
30
0
10
770.40804083344028
20
605.09959165766634
30
0
10
770.40105586885579
20
605.08761843877267
30
0
10
770.39405484797112
20
605.0756176971056
30
0
10
770.38701705368385
20
605.06365078078989
30
0
10
770.37994472730384
20
605.05171622615865
30
0
10
770.37285663919863
20
605.03975507360747
30
0
10
770.36573386447219
20
605.02782642757541
30
0
10
770.35857864375373
20
605.01592894745625
30
0
10
770.35134112337107
20
605.00389462199541
30
0
10
770.34407040594851
20
604.99189218376432
30
0
10
770.33676879958216
20
604.97992037722292
30
0
10
770.32945136363423
20
604.96792261629867
30
0
10
770.3221029043666
20
604.95595562046049
30
0
10
770.31472573928909
20
604.94401825208104
30
0
10
770.30733267341009
20
604.93205515380055
30
0
10
770.299910777626
20
604.92012181123903
30
0
10
770.29246238287146
20
604.90821719933331
30
0
10
770.28493738459417
20
604.89619015363644
30
0
10
770.27738533932336
20
604.88419243283363
30
0
10
770.26980865174937
20
604.87222309774529
30
0
10
770.26221533185185
20
604.86022748760593
30
0
10
770.25459726120152
20
604.84826038836206
30
0
10
770.24695686261134
20
604.83632096865824
30
0
10
770.23929941158588
20
604.82435490162959
30
0
10
770.23161953271733
20
604.81241663827382
30
0
10
770.22391966812029
20
604.80050545121026
30
0
10
770.21614935646448
20
604.78848528715321
30
0
10
770.20835869159532
20
604.77649269743938
30
0
10
770.20055018748076
20
604.76452704117844
30
0
10
770.19272304716321
20
604.75253282702784
30
0
10
770.18487798234605
20
604.74056567540561
30
0
10
770.17701753131075
20
604.72862504035663
30
0
10
770.16913756813346
20
604.71665476484964
30
0
10
770.16124214235845
20
604.70471113797464
30
0
10
770.15333381816492
20
604.69279370308709
30
0
10
770.14536124523545
20
604.68077944868276
30
0
10
770.13737556360661
20
604.66879181369495
30
0
10
770.12937940615211
20
604.65683042164278
30
0
10
770.12136165156926
20
604.64483672260781
30
0
10
770.11333336457187
20
604.63286940879254
30
0
10
770.10529720129409
20
604.62092819154896
30
0
10
770.09723873399548
20
604.60895383197726
30
0
10
770.08917493011324
20
604.59700952712842
30
0
10
770.08109957771001
20
604.58508195496393
30
0
10
770.07297922550617
20
604.57308791655214
30
0
10
770.06484429130842
20
604.56110653609539
30
0
10
770.05669670826637
20
604.54913674307909
30
0
10
770.04854321053915
20
604.537158260669
30
0
10
770.04037704553684
20
604.52519138279183
30
0
10
770.03220015146371
20
604.51323507678069
30
0
10
770.02401716741724
20
604.50126986597206
30
0
10
770.01582343848963
20
604.48931524272689
30
0
10
770.00762090993021
20
604.47737020684076
30
0
10
769.99938961145313
20
604.46538327439862
30
0
10
769.99114945166059
20
604.45340599665906
30
0
10
769.98290239751339
20
604.44143739720982
30
0
10
769.97465020396203
20
604.42946133916155
30
0
10
769.96639110738874
20
604.41749397054116
30
0
10
769.958127076442
20
604.40553434890853
30
0
10
769.94852013141542
20
604.39163127566178
30
0
10
769.93890651827087
20
604.37773867064516
30
0
10
769.92928932187272
20
604.36385511463004
30
0
0
LINE
5
115
100
AcDbEntity
8
OUTER_PROFILES
100
AcDbLine
10
770.85857864375362
20
606.52389342117908
30
0
11
770.85857864375396
21
623.52389342117954
31
0
0
LINE
5
116
100
AcDbEntity
8
OUTER_PROFILES
100
AcDbLine
10
770.85857864375396
20
623.52389342117954
30
0
11
-8.1001871876651421e-12
21
623.52389342116919
31
0
0
LINE
5
117
100
AcDbEntity
8
OUTER_PROFILES
100
AcDbLine
10
-8.1001871876651421e-12
20
623.52389342116919
30
0
11
-6.5369931689929217e-12
21
606.52389342116908
31
0
0
SPLINE
5
118
100
AcDbEntity
8
OUTER_PROFILES
100
AcDbSpline
70
0
71
3
72
185
73
181
74
0
42
0.000000001
43
0.0000000001
44
0.0000000001
40
0.010030481016757783
40
0.010030481016757783
40
0.010030481016757783
40
0.010030481016757783
40
0.014143719576518193
40
0.014143719576518193
40
0.014143719576518193
40
0.017690941163420293
40
0.017690941163420293
40
0.017690941163420293
40
0.021244222285153512
40
0.021244222285153512
40
0.021244222285153512
40
0.024793324731312214
40
0.024793324731312214
40
0.024793324731312214
40
0.028348043465835863
40
0.028348043465835863
40
0.028348043465835863
40
0.031908492543946898
40
0.031908492543946898
40
0.031908492543946898
40
0.035459997575276452
40
0.035459997575276452
40
0.035459997575276452
40
0.039017356713572579
40
0.039017356713572579
40
0.039017356713572579
40
0.042580515183002939
40
0.042580515183002939
40
0.042580515183002939
40
0.046129795837495352
40
0.046129795837495352
40
0.046129795837495352
40
0.049684712084421309
40
0.049684712084421309
40
0.049684712084421309
40
0.053245262277824279
40
0.053245262277824279
40
0.053245262277824279
40
0.056787208649073245
40
0.056787208649073245
40
0.056787208649073245
40
0.060334664235042391
40
0.060334664235042391
40
0.060334664235042391
40
0.063887555967301141
40
0.063887555967301141
40
0.063887555967301141
40
0.067417181335316975
40
0.067417181335316975
40
0.067417181335316975
40
0.070951960344557571
40
0.070951960344557571
40
0.070951960344557571
40
0.074491773408680698
40
0.074491773408680698
40
0.074491773408680698
40
0.078006952955029948
40
0.078006952955029948
40
0.078006952955029948
40
0.081539080535618688
40
0.081539080535618688
40
0.081539080535618688
40
0.085088615210665186
40
0.085088615210665186
40
0.085088615210665186
40
0.088618635516915137
40
0.088618635516915137
40
0.088618635516915137
40
0.092165410438228415
40
0.092165410438228415
40
0.092165410438228415
40
0.095728764301415553
40
0.095728764301415553
40
0.095728764301415553
40
0.099268153977952342
40
0.099268153977952342
40
0.099268153977952342
40
0.10282333555754758
40
0.10282333555754758
40
0.10282333555754758
40
0.10639405742934863
40
0.10639405742934863
40
0.10639405742934863
40
0.10993673966092124
40
0.10993673966092124
40
0.10993673966092124
40
0.11349400087224872
40
0.11349400087224872
40
0.11349400087224872
40
0.11706549055552209
40
0.11706549055552209
40
0.11706549055552209
40
0.12060534422656043
40
0.12060534422656043
40
0.12060534422656043
40
0.12415825662065588
40
0.12415825662065588
40
0.12415825662065588
40
0.12772375104804021
40
0.12772375104804021
40
0.12772375104804021
40
0.13125460790983134
40
0.13125460790983134
40
0.13125460790983134
40
0.13479660299370413
40
0.13479660299370413
40
0.13479660299370413
40
0.13833620582574585
40
0.13833620582574585
40
0.13833620582574585
40
0.14181708262976614
40
0.14181708262976614
40
0.14181708262976614
40
0.14528606791168916
40
0.14528606791168916
40
0.14528606791168916
40
0.14874335481303202
40
0.14874335481303202
40
0.14874335481303202
40
0.15214477215685904
40
0.15214477215685904
40
0.15214477215685904
40
0.15553475285436227
40
0.15553475285436227
40
0.15553475285436227
40
0.15891306184516948
40
0.15891306184516948
40
0.15891306184516948
40
0.16223827383176564
40
0.16223827383176564
40
0.16223827383176564
40
0.16555117326017268
40
0.16555117326017268
40
0.16555117326017268
40
0.16885108784497418
40
0.16885108784497418
40
0.16885108784497418
40
0.1721007137837032
40
0.1721007137837032
40
0.1721007137837032
40
0.1753360518091911
40
0.1753360518091911
40
0.1753360518091911
40
0.178556149398895
40
0.178556149398895
40
0.178556149398895
40
0.18173572967510324
40
0.18173572967510324
40
0.18173572967510324
40
0.1849153013389056
40
0.1849153013389056
40
0.1849153013389056
40
0.18809391735089309
40
0.18809391735089309
40
0.18809391735089309
40
0.19124616393361454
40
0.19124616393361454
40
0.19124616393361454
40
0.19439559248510119
40
0.19439559248510119
40
0.19439559248510119
40
0.197541207303463
40
0.197541207303463
40
0.197541207303463
40
0.20066475948240148
40
0.20066475948240148
40
0.20066475948240148
40
0.20378125925267321
40
0.20378125925267321
40
0.20378125925267321
40
0.20688881243047547
40
0.20688881243047547
40
0.20688881243047547
40
0.20997764511090569
40
0.20997764511090569
40
0.20997764511090569
40
0.21305620051969543
40
0.21305620051969543
40
0.21305620051969543
40
0.21612595091631337
40
0.21612595091631337
40
0.21612595091631337
40
0.21612595091631337
10
0.92928932187504643
20
604.36385511486196
30
0
10
0.91965899617250102
20
604.37775762390993
30
0
10
0.91004544957073108
20
604.39165017866412
30
0
10
0.9004515659290746
20
604.40553434882827
30
0
10
0.89217788312126345
20
604.41750793786434
30
0
10
0.88391882419713852
20
604.42947529049241
30
0
10
0.87567624368176666
20
604.44143739715685
30
0
10
0.86741958279333176
20
604.45341993806824
30
0
10
0.85917945659858219
20
604.46539721478712
30
0
10
0.85095773090202442
20
604.47737020683564
30
0
10
0.84274567399418743
20
604.48932911858822
30
0
10
0.83455197450760465
20
604.50128375577106
30
0
10
0.82637849000022356
20
604.51323507679331
30
0
10
0.8181920713364832
20
604.52520531022105
30
0
10
0.81002593189737127
20
604.53717221706484
30
0
10
0.80188193440434929
20
604.54913674308102
30
0
10
0.79372480847354154
20
604.56112055637414
30
0
10
0.78558989593233264
20
604.57310198092318
30
0
10
0.77747906603718775
20
604.58508195495097
30
0
10
0.76938861099947076
20
604.59703183461545
30
0
10
0.76132211759286861
20
604.60898027056749
30
0
10
0.75328144290821797
20
604.62092819152849
30
0
10
0.74522751441449486
20
604.63289580678997
30
0
10
0.73719948973291594
20
604.64486290500622
30
0
10
0.72919923792483132
20
604.65683042162493
30
0
10
0.72118594382686751
20
604.66881744810746
30
0
10
0.7132005132061181
20
604.68080489409942
30
0
10
0.70524482558255386
20
604.6927937030772
30
0
10
0.69732012382772268
20
604.70473581795659
30
0
10
0.68942493390949267
20
604.71667928509999
30
0
10
0.68156111225562199
20
604.72862504035061
30
0
10
0.67368480432691058
20
604.74058976322146
30
0
10
0.66583996440684245
20
604.75255678130793
30
0
10
0.65802845612950023
20
604.76452704117128
30
0
10
0.65020456792069581
20
604.77651627189039
30
0
10
0.6424141170673181
20
604.78850875441128
30
0
10
0.63465897562707596
20
604.80050545120025
30
0
10
0.6269443546862874
20
604.81243946542577
30
0
10
0.61926467505202254
20
604.82437764968029
30
0
10
0.61162178121335842
20
604.8363209686471
30
0
10
0.60396699946366539
20
604.84828286449283
30
0
10
0.59634911794873346
20
604.86024991072043
30
0
10
0.58876999205679681
20
604.87222309773506
30
0
10
0.58117925185825925
20
604.8842146325469
30
0
10
0.57362738608262021
20
604.8962123266906
30
0
10
0.56611626087601508
20
604.9082171993233
30
0
10
0.55865432280711502
20
604.92014345719372
30
0
10
0.55123259341741004
20
604.9320767996212
30
0
10
0.54385290442525047
20
604.94401825207024
30
0
10
0.53646244027547141
20
604.9559771403533
30
0
10
0.52911413929791706
20
604.96794416208229
30
0
10
0.52180984414036402
20
604.97992037721156
30
0
10
0.51449514657221584
20
604.99191364826561
30
0
10
0.50722458012970151
20
605.00391613861507
30
0
10
0.49999999999357669
20
605.01592894744635
30
0
10
0.49282569562620893
20
605.02785815928132
30
0
10
0.4856977089750103
20
605.03979607241422
30
0
10
0.47863391645719844
20
605.0517162261516
30
0
10
0.47153606667549752
20
605.06369385154039
30
0
10
0.46449862069607661
20
605.07566085077667
30
0
10
0.45752277490180404
20
605.0876184387663
30
0
10
0.4505125506193508
20
605.09963495635566
30
0
10
0.44356453505713489
20
605.11164196946493
30
0
10
0.43667994192986725
20
605.12364069556941
30
0
10
0.42983319840871559
20
605.13557345596632
30
0
10
0.42304918176526485
20
605.14749801996595
30
0
10
0.41632908616307418
20
605.1594155724614
30
0
10
0.40957709481943994
20
605.1713896895053
30
0
10
0.40288963260508126
20
605.18335672807279
30
0
10
0.39626791206288203
20
605.19531788000552
30
0
10
0.38961523914210261
20
605.20733494279989
30
0
10
0.38302892377657827
20
605.21934606351931
30
0
10
0.37651019813480957
20
605.23135244369246
30
0
10
0.37003531207901119
20
605.2432780788298
30
0
10
0.36362710953596888
20
605.2551990366785
30
0
10
0.3572868018875397
20
605.26711649088668
30
0
10
0.35091820531562234
20
605.2790871179011
30
0
10
0.34461811065909842
20
605.29105420964379
30
0
10
0.33838775082813299
20
605.30301895455079
30
0
10
0.33213015705413795
20
605.31503599935536
30
0
10
0.3259429088654997
20
605.32705067645247
30
0
10
0.31982726222253177
20
605.33906419181562
30
0
10
0.31375963963128584
20
605.35098336920998
30
0
10
0.30776249826544699
20
605.36290140275401
30
0
10
0.30183707294980877
20
605.37481947479318
30
0
10
0.2958872630999565
20
605.38678659253276
30
0
10
0.29000976050241434
20
605.39875374876226
30
0
10
0.28420582480464418
20
605.41072214717201
30
0
10
0.27837867429880703
20
605.42273841724796
30
0
10
0.27262568006662491
20
605.43475593911796
30
0
10
0.26694812816373314
20
605.44677593993845
30
0
10
0.26132086762856943
20
605.45868946841085
30
0
10
0.25576771851916646
20
605.47060543181624
30
0
10
0.25028994603957244
20
605.48252503601464
30
0
10
0.24479196574347384
20
605.49448861231622
30
0
10
0.23936991885918246
20
605.50645585599125
30
0
10
0.23402510039915114
20
605.51842799973247
30
0
10
0.22866135417601186
20
605.53044254077895
30
0
10
0.22337538390019063
20
605.54246201633532
30
0
10
0.21816851752561206
20
605.55448768806161
30
0
10
0.21301223408684677
20
605.56639653447746
30
0
10
0.20793352470221294
20
605.57831145702824
30
0
10
0.20293370053181548
20
605.59023369767874
30
0
10
0.19791810422617573
20
605.60219354749029
30
0
10
0.1929836231158788
20
605.61415648460297
30
0
10
0.18812623981006027
20
605.62613702299006
30
0
10
0.18327213716489155
20
605.63810946976093
30
0
10
0.17848259619469786
20
605.65013030934404
30
0
10
0.17376122567767993
20
605.66219943618466
30
0
10
0.16911818805567691
20
605.6740683225139
30
0
10
0.16454107712391419
20
605.68598390630439
30
0
10
0.16003329743199401
20
605.69794622763868
30
0
10
0.15554091741236675
20
605.70986768277271
30
0
10
0.15111739513855582
20
605.72183555550885
30
0
10
0.14676607749407822
20
605.73385003873182
30
0
10
0.14242943369964678
20
605.74582400578481
30
0
10
0.13816450763826538
20
605.75784426836367
30
0
10
0.13397459620904328
20
605.76991118430772
30
0
10
0.12985239350754796
20
605.781783099584
30
0
10
0.12580279978251951
20
605.79370017196072
30
0
10
0.12182894531406419
20
605.80566291278615
30
0
10
0.11786845220754572
20
605.81758543107424
30
0
10
0.11398318886222114
20
605.82955331014409
30
0
10
0.11017624567614348
20
605.84156723142962
30
0
10
0.1063824097990107
20
605.85353978877288
30
0
10
0.10266635440814298
20
605.86555807070158
30
0
10
0.099031132091056406
20
605.87762293243077
30
0
10
0.095453044694124856
20
605.88949817029311
30
0
10
0.091953268121898191
20
605.9014185347138
30
0
10
0.088534716386448054
20
605.91338502197016
30
0
10
0.085128822826447959
20
605.92530719984984
30
0
10
0.081803552247521338
20
605.93727515897604
30
0
10
0.078561811317001684
20
605.94929007581709
30
0
10
0.075332776325751638
20
605.96125790042993
30
0
10
0.072186616110343493
20
605.97327231516215
30
0
10
0.069126251349302947
20
605.98533468055393
30
0
10
0.066112524643955339
20
605.99721322299865
30
0
10
0.063181997324335271
20
606.00913826627766
30
0
10
0.060337518882533914
20
606.02111129680475
30
0
10
0.05750554700668431
20
606.03303168446655
30
0
10
0.054758867302950875
20
606.04499963825788
30
0
10
0.052100344252892228
20
606.05701679483309
30
0
10
0.049454344484587409
20
606.06897734319568
30
0
10
0.046895670476203577
20
606.08098663161661
30
0
10
0.044427194207230514
20
606.09304642867687
30
0
10
0.041989777874960055
20
606.10495448170923
30
0
10
0.039643996110640956
20
606.11689435103176
30
0
10
0.037395667172006597
20
606.12884534542479
30
0
10
0.035147344323434027
20
606.14079630744664
30
0
10
0.032995116754221954
20
606.15276497822936
30
0
10
0.030940422695096004
20
606.16475202239462
30
0
10
0.028886346194667567
20
606.17673546373476
30
0
10
0.026929745249617554
20
606.1887372676872
30
0
10
0.025072087811679467
20
606.20075817679992
30
0
10
0.023229841284120312
20
606.21267936184688
30
0
10
0.021484904988398057
20
606.22461933689783
30
0
10
0.019838729081698148
20
606.23657889872152
30
0
10
0.018194024815869625
20
606.2485277689899
30
0
10
0.016647903334217062
20
606.26049618995444
30
0
10
0.015201768488850576
20
606.27248501645272
30
0
10
0.013757384809593987
20
606.28445932533805
30
0
10
0.012412740967420177
20
606.29645398819821
30
0
10
0.011169173768337259
20
606.30846992492297
30
0
10
0.0099343286716191415
20
606.32040158455254
30
0
10
0.0087991407205834093
20
606.33235421906943
30
0
10
0.007764913761718617
20
606.34432881807709
30
0
10
0.0067330218979577694
20
606.35627638063352
30
0
10
0.00580163456973537
20
606.36824580936764
30
0
10
0.0049721400685598383
20
606.38023818917668
30
0
10
0.0041450268122389389
20
606.39219614224328
30
0
10
0.003419229370820176
20
606.4041769166563
30
0
10
0.0027962028124761673
20
606.41618167304603
30
0
10
0.0021769294858131616
20
606.42811411047694
30
0
10
0.0016592058547360011
20
606.44007024249049
30
0
10
0.0012444014535617498
20
606.45205127455881
30
0
10
0.00083097720406044573
20
606.46399244292002
30
0
10
0.00051979917657263286
20
606.47595834445713
30
0
10
0.00031204104757875939
20
606.48795024966478
30
0
10
0.00010487712998497045
20
606.49990785668467
30
0
10
5.9672018437595398e-07
20
606.51190009398465
30
0
10
-6.5369931689929217e-12
20
606.52389342116908
30
0
0
SPLINE
5
119
100
AcDbEntity
8
OUTER_PROFILES
100
AcDbSpline
70
0
71
3
72
14
73
10
74
0
42
0.000000001
43
0.0000000001
44
0.0000000001
40
0
40
0
40
0
40
0
40
0.0035294938866569214
40
0.0035294938866569214
40
0.0035294938866569214
40
0.0070633763698020368
40
0.0070633763698020368
40
0.0070633763698020368
40
0.010030481016770282
40
0.010030481016770282
40
0.010030481016770282
40
0.010030481016770282
10
0.99999999999340616
20
604.26194671058488
30
0
10
0.99168088236069707
20
604.27392618018325
30
0
10
0.98336893658611757
20
604.28589534722346
30
0
10
0.97506599109237868
20
604.29785529118749
30
0
10
0.96675272166024229
20
604.30983010622651
30
0
10
0.95844847557714274
20
604.32179567603851
30
0
10
0.950155083658899
20
604.33375304810386
30
0
10
0.94319181823706799
20
604.34379265026666
30
0
10
0.93623620417417897
20
604.35382647232143
30
0
10
0.92928932187476221
20
604.36385511486219
30
0
0
ARC
5
120
100
AcDbEntity
8
OUTER_PROFILES
100
AcDbCircle
10
0.96464466093379997
20
604.22659137152561
30
0
40
0.04999999999999237
210
0
220
0
230
1
100
AcDbArc
50
-134.99999999995396
51
44.999999999723649
0
SPLINE
5
121
100
AcDbEntity
8
OUTER_PROFILES
100
AcDbSpline
70
0
71
3
72
14
73
10
74
0
42
0.000000001
43
0.0000000001
44
0.0000000001
40
0.18027200968231297
40
0.18027200968231297
40
0.18027200968231297
40
0.18027200968231297
40
0.18319469972542743
40
0.18319469972542743
40
0.18319469972542743
40
0.18668329960251587
40
0.18668329960251587
40
0.18668329960251587
40
0.19017595410945204
40
0.19017595410945204
40
0.19017595410945204
40
0.19017595410945204
10
0.82738091783994605
20
604.26194671058488
30
0
10
0.8374195004689966
20
604.25499294307861
30
0
10
0.84745335002580191
20
604.24803730150404
30
0
10
0.85748298435674997
20
604.24108094972735
30
0
10
0.86945462027372855
20
604.23277766487831
30
0
10
0.8814202503178592
20
604.22447336774644
30
0
10
0.89338074129457823
20
604.21617004235054
30
0
10
0.90535513336774898
20
604.20785706640379
30
0
10
0.91732437521997667
20
604.19954506518718
30
0
10
0.92928932187447799
20
604.19123603246624
30
0
0
SPLINE
5
122
100
AcDbEntity
8
OUTER_PROFILES
100
AcDbSpline
70
0
71
3
72
185
73
181
74
0
42
0.000000001
43
0.0000000001
44
0.0000000001
40
0
40
0
40
0
40
0
40
0.0025011935500264316
40
0.0025011935500264316
40
0.0025011935500264316
40
0.0050092895966236586
40
0.0050092895966236586
40
0.0050092895966236586
40
0.0075248867436055406
40
0.0075248867436055406
40
0.0075248867436055406
40
0.010054850305896694
40
0.010054850305896694
40
0.010054850305896694
40
0.012591210411163352
40
0.012591210411163352
40
0.012591210411163352
40
0.015132415226712478
40
0.015132415226712478
40
0.015132415226712478
40
0.017690657569465699
40
0.017690657569465699
40
0.017690657569465699
40
0.020251075230393187
40
0.020251075230393187
40
0.020251075230393187
40
0.022812842906426975
40
0.022812842906426975
40
0.022812842906426975
40
0.025395070827399977
40
0.025395070827399977
40
0.025395070827399977
40
0.027977081943807366
40
0.027977081943807366
40
0.027977081943807366
40
0.030565127825672028
40
0.030565127825672028
40
0.030565127825672028
40
0.033190466397539461
40
0.033190466397539461
40
0.033190466397539461
40
0.035827159388378264
40
0.035827159388378264
40
0.035827159388378264
40
0.038474512681378727
40
0.038474512681378727
40
0.038474512681378727
40
0.041161930863120734
40
0.041161930863120734
40
0.041161930863120734
40
0.043859118920889416
40
0.043859118920889416
40
0.043859118920889416
40
0.046565633706784612
40
0.046565633706784612
40
0.046565633706784612
40
0.049314766564672589
40
0.049314766564672589
40
0.049314766564672589
40
0.052072905385461866
40
0.052072905385461866
40
0.052072905385461866
40
0.054839966477499599
40
0.054839966477499599
40
0.054839966477499599
40
0.057652195323006895
40
0.057652195323006895
40
0.057652195323006895
40
0.060473965920343098
40
0.060473965920343098
40
0.060473965920343098
40
0.063307068575357242
40
0.063307068575357242
40
0.063307068575357242
40
0.066189344865733746
40
0.066189344865733746
40
0.066189344865733746
40
0.069082804463609621
40
0.069082804463609621
40
0.069082804463609621
40
0.071987125782987618
40
0.071987125782987618
40
0.071987125782987618
40
0.07494064485130221
40
0.07494064485130221
40
0.07494064485130221
40
0.07790497250546638
40
0.07790497250546638
40
0.07790497250546638
40
0.080880100312442499
40
0.080880100312442499
40
0.080880100312442499
40
0.083904485532740741
40
0.083904485532740741
40
0.083904485532740741
40
0.086940276961213162
40
0.086940276961213162
40
0.086940276961213162
40
0.089987812227964481
40
0.089987812227964481
40
0.089987812227964481
40
0.093084935050358475
40
0.093084935050358475
40
0.093084935050358475
40
0.096195140315759903
40
0.096195140315759903
40
0.096195140315759903
40
0.09931913484887428
40
0.09931913484887428
40
0.09931913484887428
40
0.10249211756356581
40
0.10249211756356581
40
0.10249211756356581
40
0.105673787269392
40
0.105673787269392
40
0.105673787269392
40
0.1088633158648326
40
0.1088633158648326
40
0.1088633158648326
40
0.11209365112469408
40
0.11209365112469408
40
0.11209365112469408
40
0.11533141193819042
40
0.11533141193819042
40
0.11533141193819042
40
0.11857638857964657
40
0.11857638857964657
40
0.11857638857964657
40
0.1218586890843551
40
0.1218586890843551
40
0.1218586890843551
40
0.12514810547949518
40
0.12514810547949518
40
0.12514810547949518
40
0.12844461190776615
40
0.12844461190776615
40
0.12844461190776615
40
0.13177502147895151
40
0.13177502147895151
40
0.13177502147895151
40
0.13511274195412359
40
0.13511274195412359
40
0.13511274195412359
40
0.1384579118110783
40
0.1384579118110783
40
0.1384579118110783
40
0.14183368705788107
40
0.14183368705788107
40
0.14183368705788107
40
0.14521751911184647
40
0.14521751911184647
40
0.14521751911184647
40
0.14860975091155826
40
0.14860975091155826
40
0.14860975091155826
40
0.15202954184706702
40
0.15202954184706702
40
0.15202954184706702
40
0.15545856942351019
40
0.15545856942351019
40
0.15545856942351019
40
0.15889711411788618
40
0.15889711411788618
40
0.15889711411788618
40
0.16235482007784821
40
0.16235482007784821
40
0.16235482007784821
40
0.16581503613655627
40
0.16581503613655627
40
0.16581503613655627
40
0.16927782928862789
40
0.16927782928862789
40
0.16927782928862789
40
0.17275276799643413
40
0.17275276799643413
40
0.17275276799643413
40
0.17622987221776779
40
0.17622987221776779
40
0.17622987221776779
40
0.18027200968232879
40
0.18027200968232879
40
0.18027200968232879
40
0.18027200968232879
10
-1.3326573887101745
20
605.19123603246635
30
0
10
-1.3206516597008999
20
605.1912354352803
30
0
10
-1.3086710471576168
20
605.19113114213769
30
0
10
-1.2967142164350776
20
605.19092399171791
30
0
10
-1.2847243886727711
20
605.19071626962898
30
0
10
-1.2727584766660982
20
605.19040512716492
30
0
10
-1.2608152413640994
20
605.18999163129354
30
0
10
-1.2488362867733827
20
605.18957689875742
30
0
10
-1.2368801462508827
20
605.18905921045689
30
0
10
-1.2249456405869807
20
605.18843982964756
30
0
10
-1.2129429777202461
20
605.1878169115937
30
0
10
-1.2009621968906004
20
605.1870911496776
30
0
10
-1.1890021577769971
20
605.1862638919722
30
0
10
-1.1770118799258
20
605.18543454269945
30
0
10
-1.1650424469740983
20
605.18450319101032
30
0
10
-1.1530927873451446
20
605.18347111794947
30
0
10
-1.1411203026297301
20
605.18243707352246
30
0
10
-1.1291676661018357
20
605.18130192156286
30
0
10
-1.1172338939006465
20
605.18006685790419
30
0
10
-1.1052201116321214
20
605.17882351375169
30
0
10
-1.0932254491285676
20
605.17747890702788
30
0
10
-1.081248984257428
20
605.17603426348296
30
0
10
-1.0692623355888031
20
605.17458839153244
30
0
10
-1.057293917683495
20
605.17304230778836
30
0
10
-1.0453428651976537
20
605.17139730335225
30
0
10
-1.0333855113564994
20
605.16975143156503
30
0
10
-1.021445542312307
20
605.16800653366647
30
0
10
-1.0095221425396517
20
605.1661639449743
30
0
10
-0.99750351333540266
20
605.16430663995311
30
0
10
-0.98550171858889257
20
605.16235007906698
30
0
10
-0.97351598828097963
20
605.16029561015944
30
0
10
-0.96153126429825875
20
605.15824131374563
30
0
10
-0.94956190791307904
20
605.15608899585811
30
0
10
-0.93760931210255194
20
605.15384036551086
30
0
10
-0.92562878027280249
20
605.15158647958731
30
0
10
-0.9136963418596622
20
605.14924172961162
30
0
10
-0.90181039621782588
20
605.14680883825247
30
0
10
-0.88975317892689532
20
605.14434088991698
30
0
10
-0.87774380406955288
20
605.14178223938393
30
0
10
-0.86578076280702021
20
605.13913568809562
30
0
10
-0.85376598216726052
20
605.13647769064482
30
0
10
-0.84179793741355979
20
605.13373102819469
30
0
10
-0.82987526469025852
20
605.130898513494
30
0
10
-0.81790438791202291
20
605.12805454677255
30
0
10
-0.80597925120059699
20
605.12512403057497
30
0
10
-0.79409864809477426
20
605.12210978111057
30
0
10
-0.78203824464154081
20
605.11904991417236
30
0
10
-0.77002373272136992
20
605.11590375936373
30
0
10
-0.7580540430924998
20
605.11267422119113
30
0
10
-0.74604083869374449
20
605.10943294231231
30
0
10
-0.73407278356583561
20
605.10610767147261
30
0
10
-0.7221489892569366
20
605.10270131611048
30
0
10
-0.71018396312240384
20
605.09928318175878
30
0
10
-0.69826350532252945
20
605.09578339984296
30
0
10
-0.68638689997158053
20
605.09220490036876
30
0
10
-0.6743232799313148
20
605.08857005213599
30
0
10
-0.66230490504338491
20
605.08485398657388
30
0
10
-0.65033119932678574
20
605.08105978676178
30
0
10
-0.63831826860550223
20
605.07725315742209
30
0
10
-0.62635030147475845
20
605.07336787994871
30
0
10
-0.6144268810234621
20
605.06940708712909
30
0
10
-0.60246488963770162
20
605.06543348158675
30
0
10
-0.59054773478365519
20
605.06138387047395
30
0
10
-0.57867515272747028
20
605.05726143625088
30
0
10
-0.56660877015829669
20
605.0530717100213
30
0
10
-0.55458842816079823
20
605.04880676318919
30
0
10
-0.54261400703353502
20
605.04446995497563
30
0
10
-0.53059895729433038
20
605.04011843218882
30
0
10
-0.51862862083297046
20
605.03569397325452
30
0
10
-0.50671019556432384
20
605.03120273503532
30
0
10
-0.49474390663064582
20
605.02669346027892
30
0
10
-0.48282891190083888
20
605.02211652285428
30
0
10
-0.47096340372576151
20
605.0174748067825
30
0
10
-0.4588919481342657
20
605.01275252530888
30
0
10
-0.44687171168263262
20
605.00796319571975
30
0
10
-0.43490099036404217
20
605.00310979264577
30
0
10
-0.42288382233309108
20
604.99823755824093
30
0
10
-0.41091655487946355
20
604.99330075085538
30
0
10
-0.39899766510259838
20
604.98830233192496
30
0
10
-0.38703403315579976
20
604.98328514949276
30
0
10
-0.37511914333137497
20
604.97820589093385
30
0
10
-0.36325165560242567
20
604.97306751493431
30
0
10
-0.3511831385733899
20
604.96784209741827
30
0
10
-0.33916364335624394
20
604.96255554171591
30
0
10
-0.32719196734007028
20
604.95721093206271
30
0
10
-0.31517648023438483
20
604.95184676347969
30
0
10
-0.30320916370754958
20
604.94642411436541
30
0
10
-0.2912890036071758
20
604.94094608642195
30
0
10
-0.27932541391152199
20
604.93544809997661
30
0
10
-0.26740932567420828
20
604.929894329685
30
0
10
-0.25553990747951616
20
604.92428790429608
30
0
10
-0.24347397442028296
20
604.91858865667223
30
0
10
-0.23145626998982038
20
604.91283499533733
30
0
10
-0.21948611468360468
20
604.90703020765432
30
0
10
-0.20747081496836017
20
604.90120352771487
30
0
10
-0.19550342456284397
20
604.89532533454644
30
0
10
-0.18358344231231172
20
604.88939895950909
30
0
10
-0.17161734808496476
20
604.88344965852582
30
0
10
-0.15969903034019239
20
604.87745180178308
30
0
10
-0.14782815935646454
20
604.87140877023728
30
0
10
-0.13576413310985913
20
604.86526741032537
30
0
10
-0.12374911069230166
20
604.85907939322726
30
0
10
-0.11178292210445306
20
604.85284828163333
30
0
10
-0.099766187578040899
20
604.84659084942916
30
0
10
-0.087798701102030918
20
604.8402899576954
30
0
10
-0.075880458437183052
20
604.8339492305746
30
0
10
-0.063909375581800987
20
604.82758039148814
30
0
10
-0.051987974902232281
20
604.82117136290049
30
0
10
-0.040116411233128701
20
604.81472583432503
30
0
10
-0.028058686445433523
20
604.80817923171719
30
0
10
-0.016053566017859566
20
604.80159569059856
30
0
10
-0.0040818475397941256
20
604.7949681203919
30
0
10
0.007922647105544911
20
604.78832240522547
30
0
10
0.019889485347874825
20
604.7816346104089
30
0
10
0.031820460003046946
20
604.77490694628989
30
0
10
0.043780904786103747
20
604.76816266449066
30
0
10
0.055705308260201036
20
604.76137831554308
30
0
10
0.067595336890065028
20
604.75455609052995
30
0
10
0.079637485933119478
20
604.74764658232152
30
0
10
0.0916443747961182
20
604.7406982221537
30
0
10
0.1036175936899042
20
604.73371325756898
30
0
10
0.11561833535509436
20
604.7267122366851
30
0
10
0.12758525167129164
20
604.71967444239806
30
0
10
0.13951980630523053
20
604.71260211601714
30
0
10
0.15148095885606949
20
604.70551402791284
30
0
10
0.16340960488975043
20
604.69839125318629
30
0
10
0.17530708501283243
20
604.69123603246635
30
0
10
0.18734141047261232
20
604.68399851208483
30
0
10
0.19934384870495592
20
604.67672779466216
30
0
10
0.21131565524996176
20
604.66942618829376
30
0
10
0.2233134161714645
20
604.66210875234754
30
0
10
0.23528041200933103
20
604.65476029308013
30
0
10
0.24721778039136666
20
604.64738312800091
30
0
10
0.25918087866799056
20
604.63999006212396
30
0
10
0.27111422122828799
20
604.63256816634021
30
0
10
0.28301883313616827
20
604.62511977158385
30
0
10
0.29504587882897226
20
604.61759477330884
30
0
10
0.3070435996309584
20
604.61004272803814
30
0
10
0.31901293472216707
20
604.6024660404621
30
0
10
0.33100854485795139
20
604.59487272056674
30
0
10
0.34297564410195491
20
604.58725464991642
30
0
10
0.35491506380992632
20
604.57961425132385
30
0
10
0.36688113083499729
20
604.571956800301
30
0
10
0.37881939419094124
20
604.56427692143257
30
0
10
0.39073058125907778
20
604.55657705683268
30
0
10
0.4027507453116641
20
604.54880674517983
30
0
10
0.41474333502534932
20
604.54101608031101
30
0
10
0.42670899129078066
20
604.5332075761936
30
0
10
0.43870320543646812
20
604.52538043587936
30
0
10
0.45067035705841363
20
604.51753537106219
30
0
10
0.4626109921122179
20
604.50967492002383
30
0
10
0.474581267614127
20
604.50179495684972
30
0
10
0.48652489448897995
20
604.49389953107448
30
0
10
0.4984423293821294
20
604.4859912068772
30
0
10
0.51045658378114922
20
604.47801863395125
30
0
10
0.52244421876949332
20
604.4700329523223
30
0
10
0.53440561082794602
20
604.46203679486371
30
0
10
0.54639930985658225
20
604.45401904028506
30
0
10
0.5583666236717022
20
604.44599075328779
30
0
10
0.57030784092148679
20
604.43795459000603
30
0
10
0.58228220050395407
20
604.42989612270003
30
0
10
0.59422650540440713
20
604.42183231878278
30
0
10
0.60615407750532313
20
604.41375696642262
30
0
10
0.61814811591588636
20
604.4056366142197
30
0
10
0.63012949637226257
20
604.39750168002217
30
0
10
0.642099289389364
20
604.38935409697967
30
0
10
0.65407777179842697
20
604.38120059925325
30
0
10
0.66604464967596755
20
604.37303443425094
30
0
10
0.67800095568799179
20
604.36485754017713
30
0
10
0.68996616649570797
20
604.35667455613111
30
0
10
0.7019207897408819
20
604.34848082720316
30
0
10
0.71386582562823264
20
604.34027829864237
30
0
10
0.72585275806929417
20
604.33204700016586
30
0
10
0.73783003580928153
20
604.32380684037275
30
0
10
0.74979863525996393
20
604.31555978622418
30
0
10
0.76177469330673375
20
604.30730759267351
30
0
10
0.77374206192700967
20
604.2990484961
30
0
10
0.78570168356108638
20
604.29078446515246
30
0
10
0.7996047568059339
20
604.28117752012736
30
0
10
0.81349736182247057
20
604.27156390698349
30
0
10
0.82738091784008816
20
604.26194671058477
30
0
0
LINE
5
123
100
AcDbEntity
8
OUTER_PROFILES
100
AcDbLine
10
-1.3326573887101745
20
605.19123603246635
30
0
11
-18.332657388710061
21
605.19123603246624
31
0
0
LINE
5
124
100
AcDbEntity
8
OUTER_PROFILES
100
AcDbLine
10
-18.332657388710061
20
605.19123603246624
30
0
11
-18.332657388702387
21
18.332657388703524
31
0
0
LINE
5
125
100
AcDbEntity
8
OUTER_PROFILES
100
AcDbLine
10
-18.332657388702387
20
18.332657388703524
30
0
11
-1.3326573887025006
21
18.332657388703311
31
0
0
SPLINE
5
126
100
AcDbEntity
8
OUTER_PROFILES
100
AcDbSpline
70
0
71
3
72
185
73
181
74
0
42
0.000000001
43
0.0000000001
44
0.0000000001
40
0.010030481142318987
40
0.010030481142318987
40
0.010030481142318987
40
0.010030481142318987
40
0.014143719806173903
40
0.014143719806173903
40
0.014143719806173903
40
0.017690941508326775
40
0.017690941508326775
40
0.017690941508326775
40
0.021244222786536558
40
0.021244222786536558
40
0.021244222786536558
40
0.024793325435631428
40
0.024793325435631428
40
0.024793325435631428
40
0.028348044412359868
40
0.028348044412359868
40
0.028348044412359868
40
0.031908493757991138
40
0.031908493757991138
40
0.031908493757991138
40
0.035459999071445508
40
0.035459999071445508
40
0.035459999071445508
40
0.03901735850755244
40
0.03901735850755244
40
0.03901735850755244
40
0.042580517297120701
40
0.042580517297120701
40
0.042580517297120701
40
0.046129798298631931
40
0.046129798298631931
40
0.046129798298631931
40
0.049684714922568464
40
0.049684714922568464
40
0.049684714922568464
40
0.053245265520442848
40
0.053245265520442848
40
0.053245265520442848
40
0.056787212317965435
40
0.056787212317965435
40
0.056787212317965435
40
0.06033466835405938
40
0.06033466835405938
40
0.06033466835405938
40
0.063887560561761716
40
0.063887560561761716
40
0.063887560561761716
40
0.067417186427842765
40
0.067417186427842765
40
0.067417186427842765
40
0.070951965962181895
40
0.070951965962181895
40
0.070951965962181895
40
0.074491779578395312
40
0.074491779578395312
40
0.074491779578395312
40
0.078006959692203989
40
0.078006959692203989
40
0.078006959692203989
40
0.08153908784166719
40
0.08153908784166719
40
0.08153908784166719
40
0.085088623085885176
40
0.085088623085885176
40
0.085088623085885176
40
0.088618643955902091
40
0.088618643955902091
40
0.088618643955902091
40
0.092165419441385871
40
0.092165419441385871
40
0.092165419441385871
40
0.095728773869005135
40
0.095728773869005135
40
0.095728773869005135
40
0.099268164103859274
40
0.099268164103859274
40
0.099268164103859274
40
0.10282334624218102
40
0.10282334624218102
40
0.10282334624218102
40
0.1063940686732146
40
0.1063940686732146
40
0.1063940686732146
40
0.10993675145757503
40
0.10993675145757503
40
0.10993675145757503
40
0.1134940132217816
40
0.1134940132217816
40
0.1134940132217816
40
0.11706550345800813
40
0.11706550345800813
40
0.11706550345800813
40
0.12060535767520454
40
0.12060535767520454
40
0.12060535767520454
40
0.12415827061568066
40
0.12415827061568066
40
0.12415827061568066
40
0.12772376558957477
40
0.12772376558957477
40
0.12772376558957477
40
0.13125462299075083
40
0.13125462299075083
40
0.13125462299075083
40
0.13479661861373984
40
0.13479661861373984
40
0.13479661861373984
40
0.13833622198325177
40
0.13833622198325177
40
0.13833622198325177
40
0.14181709931586434
40
0.14181709931586434
40
0.14181709931586434
40
0.14528608512471952
40
0.14528608512471952
40
0.14528608512471952
40
0.14874337255128359
40
0.14874337255128359
40
0.14874337255128359
40
0.15214479041180493
40
0.15214479041180493
40
0.15214479041180493
40
0.15553477162429552
40
0.15553477162429552
40
0.15553477162429552
40
0.15891308112843208
40
0.15891308112843208
40
0.15891308112843208
40
0.16223829362031156
40
0.16223829362031156
40
0.16223829362031156
40
0.16555119355211767
40
0.16555119355211767
40
0.16555119355211767
40
0.16885110863841091
40
0.16885110863841091
40
0.16885110863841091
40
0.17210073507104973
40
0.17210073507104973
40
0.17210073507104973
40
0.17533607358833006
40
0.17533607358833006
40
0.17533607358833006
40
0.17855617166754464
40
0.17855617166754464
40
0.17855617166754464
40
0.18173575242730053
40
0.18173575242730053
40
0.18173575242730053
40
0.1849153245745345
40
0.1849153245745345
40
0.1849153245745345
40
0.18809394106972013
40
0.18809394106972013
40
0.18809394106972013
40
0.19124618813153915
40
0.19124618813153915
40
0.19124618813153915
40
0.19439561716158904
40
0.19439561716158904
40
0.19439561716158904
40
0.19754123245787353
40
0.19754123245787353
40
0.19754123245787353
40
0.20066478511137525
40
0.20066478511137525
40
0.20066478511137525
40
0.20378128535517387
40
0.20378128535517387
40
0.20378128535517387
40
0.20688883900519273
40
0.20688883900519273
40
0.20688883900519273
40
0.20997767215505297
40
0.20997767215505297
40
0.20997767215505297
40
0.21305622803176458
40
0.21305622803176458
40
0.21305622803176458
40
0.21612597889504193
40
0.21612597889504193
40
0.21612597889504193
40
0.21612597889504193
10
0.82738091762394106
20
19.261946710584823
30
0
10
0.81347840848394526
20
19.252316384938126
30
0
10
0.79958585368515855
20
19.24270283845452
30
0
10
0.78570168355781789
20
19.233108954965346
30
0
10
0.77372809446742963
20
19.224835272229726
30
0
10
0.76176074184601816
20
19.216576213403513
30
0
10
0.74979863526394297
20
19.208333632999413
30
0
10
0.73781609429673267
20
19.200076972126965
30
0
10
0.72583881759712199
20
19.191836845961987
30
0
10
0.71386582564286982
20
19.183615120307991
30
0
10
0.7019069138270595
20
19.175403063334784
30
0
10
0.68995227665581638
20
19.167209363795763
30
0
10
0.67800095570547114
20
19.159035879256834
30
0
10
0.66603072221838033
20
19.150849460471804
30
0
10
0.65406381537599145
20
19.142683320932221
30
0
10
0.64209928940186956
20
19.134539323372692
30
0
10
0.6301154760669192
20
19.126382197318108
30
0
10
0.61813405151681877
20
19.118247284687442
30
0
10
0.60615407751200223
20
19.110136454747177
30
0
10
0.59420419781901046
20
19.102045999629524
30
0
10
0.58225576186273997
20
19.093979506187324
30
0
10
0.57030784092390263
20
19.0859388315085
30
0
10
0.55834022563331587
20
19.077884902986071
30
0
10
0.54637312741490973
20
19.069856878317992
30
0
10
0.53440561083149873
20
19.061856626555524
30
0
10
0.52241858431102628
20
19.053843332454079
30
0
10
0.51043113831894971
20
19.045857901862391
30
0
10
0.49844232938966115
20
19.037902214292473
30
0
10
0.48650021446391634
20
19.029977512528262
30
0
10
0.47455674732219677
20
19.022082322625451
30
0
10
0.4626109921221655
20
19.01421850100931
30
0
10
0.45064626920279238
20
19.006342193053172
30
0
10
0.43867925111740647
20
18.99849735312884
30
0
10
0.4267089912997335
20
18.990685844872601
30
0
10
0.41471976053600201
20
18.982861956625854
30
0
10
0.40272727801493602
20
18.975071505760326
30
0
10
0.39073058126646742
20
18.967316364337066
30
0
10
0.37879656700070541
20
18.959601743361105
30
0
10
0.36685838274578941
20
18.951922063720588
30
0
10
0.35491506381745808
20
18.94427916990459
30
0
10
0.34295316793219399
20
18.936624388127612
30
0
10
0.33098612170434194
20
18.929006506615025
30
0
10
0.3190129347308357
20
18.921427380752931
30
0
10
0.30702139987695887
20
18.913836640531585
30
0
10
0.29502370573297299
20
18.906284774761133
30
0
10
0.28301883314384213
20
18.898773649585934
30
0
10
0.27109257522994312
20
18.891311711493799
30
0
10
0.25915923280209086
20
18.883889982107078
30
0
10
0.24721778039733522
20
18.876510293143056
30
0
10
0.235258892069794
20
18.869119828966561
30
0
10
0.22329187034060283
20
18.861771527988225
30
0
10
0.21131565525564611
20
18.854467232856109
30
0
10
0.19932238415719894
20
18.847152535259184
30
0
10
0.18731989380754044
20
18.839881968814538
30
0
10
0.17530708502079051
20
18.832657388703495
30
0
10
0.16337787316487606
20
18.825483084321846
30
0
10
0.15143996005306803
20
18.818355097682229
30
0
10
0.13951980631588867
20
18.811291305164204
30
0
10
0.12754218093178338
20
18.804193455384919
30
0
10
0.11557518169553305
20
18.797156009405711
30
0
10
0.10361759370127288
20
18.790180163609662
30
0
10
0.091601076116063496
20
18.783169939330193
30
0
10
0.079594063006567239
20
18.776221923768759
30
0
10
0.067595336897738889
20
18.769337330639857
30
0
10
0.05566257650414741
20
18.762490587121547
30
0
10
0.04373801250395104
20
18.75570657047831
30
0
10
0.031820460004468032
20
18.748986474874059
30
0
10
0.019846342964200403
20
18.742234483532698
30
0
10
0.0078793043964253684
20
18.735547021317913
30
0
10
-0.0040818475399362342
20
18.728925300773156
30
0
10
-0.01609891033027111
20
18.722272627854295
30
0
10
-0.028110031048811379
20
18.715686312488629
30
0
10
-0.04011641122545484
20
18.709167586844657
30
0
10
-0.052042046358309335
20
18.702692700790848
30
0
10
-0.063963004206755159
20
18.696284498247948
30
0
10
-0.075880458418140506
20
18.689944190597814
30
0
10
-0.087851085428809483
20
18.683575594027886
30
0
10
-0.099818177171471234
20
18.677275499371433
30
0
10
-0.11178292208199991
20
18.671045139538691
30
0
10
-0.12379996688352435
20
18.664787545766401
30
0
10
-0.13581464398114917
20
18.658600297577337
30
0
10
-0.14782815934836435
20
18.652484650932379
30
0
10
-0.15974733673971286
20
18.646417028342626
30
0
10
-0.17166537028458606
20
18.640419886976574
30
0
10
-0.18358344232765944
20
18.634494461658946
30
0
10
-0.19555056006382188
20
18.62854465181087
30
0
10
-0.2075177162932107
20
18.622667149213186
30
0
10
-0.21948611470634205
20
18.616863213513781
30
0
10
-0.2315023847783948
20
18.611036063009792
30
0
10
-0.24351990664811751
20
18.605283068777823
30
0
10
-0.25553990747141597
20
18.59960551687351
30
0
10
-0.2674534359401548
20
18.593978256340122
30
0
10
-0.27936939934534166
20
18.588425107230577
30
0
10
-0.29128900354663756
20
18.582947334749704
30
0
10
-0.30325257984486598
20
18.577449354454956
30
0
10
-0.31521982352003874
20
18.572027307570949
30
0
10
-0.32719196726461064
20
18.566682489109425
30
0
10
-0.33920650830822296
20
18.561318742887636
30
0
10
-0.35122598386493564
20
18.55603277261153
30
0
10
-0.3632516555946097
20
18.550825906235389
30
0
10
-0.3751605020077875
20
18.545669622797689
30
0
10
-0.38707542455895805
20
18.540590913412913
30
0
10
-0.39899766521301672
20
18.535591089241024
30
0
10
-0.41095751502126632
20
18.530575492936663
30
0
10
-0.42292045213287111
20
18.52564101182665
30
0
10
-0.4349009905240564
20
18.520783628519197
30
0
10
-0.44687343729464146
20
18.515929525874171
30
0
10
-0.45889427687768602
20
18.51113998490419
30
0
10
-0.47096340371794554
20
18.506418614387385
30
0
10
-0.48283229004709938
20
18.501775576765667
30
0
10
-0.4947478738372979
20
18.497198465833975
30
0
10
-0.5067101951712516
20
18.492690686142268
30
0
10
-0.51863165030539449
20
18.48819830612257
30
0
10
-0.53059952304167268
20
18.48377478384883
30
0
10
-0.54261400626458567
20
18.47942346620421
30
0
10
-0.55458797331780829
20
18.475086822409565
30
0
10
-0.56660823589680831
20
18.470821896348184
30
0
10
-0.57867515184099716
20
18.466631984918891
30
0
10
-0.59054706711719973
20
18.462509782217396
30
0
10
-0.60246413949400335
20
18.458460188492296
30
0
10
-0.61442688031931425
20
18.454486334023983
30
0
10
-0.62634939860743089
20
18.450525840917535
30
0
10
-0.6383172776770607
20
18.446640577572282
30
0
10
-0.65033119896241942
20
18.442833634386275
30
0
10
-0.66230375630595972
20
18.439039798509
30
0
10
-0.67432203823486248
20
18.435323743118133
30
0
10
-0.68638689996404878
20
18.431688520800904
30
0
10
-0.69826213782647528
20
18.42811043340383
30
0
10
-0.71018250224724966
20
18.424610656831533
30
0
10
-0.72214898950363704
20
18.42119210509594
30
0
10
-0.73407116738323452
20
18.41778621153594
30
0
10
-0.74603912650928805
20
18.414460940957014
30
0
10
-0.7580540433502847
20
18.411219200026565
30
0
10
-0.77002186796320871
20
18.407990165035315
30
0
10
-0.7820362826953442
20
18.404844004819978
30
0
10
-0.7940986480871004
20
18.40178364005908
30
0
10
-0.80597719053201899
20
18.398769913353803
30
0
10
-0.8179022338110542
20
18.395839386034396
30
0
10
-0.82987526433825565
20
18.392994907592737
30
0
10
-0.84179565200003026
20
18.390162935716958
30
0
10
-0.85376360579132893
20
18.387416256013296
30
0
10
-0.86578076236648371
20
18.384757732963166
30
0
10
-0.87774131072904993
20
18.382111733194861
30
0
10
-0.88975059915014754
20
18.379553059186122
30
0
10
-0.90181039621015202
20
18.37708458291722
30
0
10
-0.91371844924310608
20
18.374647166584666
30
0
10
-0.92565831856475711
20
18.372301384820489
30
0
10
-0.93760931295790328
20
18.370053055881854
30
0
10
-0.94956027497943296
20
18.367804733033211
30
0
10
-0.96152894576235326
20
18.365652505463927
30
0
10
-0.97351598992773347
20
18.363597811404873
30
0
10
-0.9854994312676979
20
18.361543734904515
30
0
10
-0.99750123522028389
20
18.359587133959465
30
0
10
-1.0095221443333458
20
18.357729476521385
30
0
10
-1.0214433293802472
20
18.355887229993755
30
0
10
-1.0333833044310836
20
18.35414229369789
30
0
10
-1.0453428662550834
20
18.352496117791119
30
0
10
-1.0572917365233536
20
18.350851413525362
30
0
10
-1.0692601574879745
20
18.349305292043709
30
0
10
-1.0812489839862849
20
18.347859157198414
30
0
10
-1.0932232928713859
20
18.346414773519228
30
0
10
-1.1052179557316322
20
18.345070129677268
30
0
10
-1.1172338924562553
20
18.343826562478185
30
0
10
-1.1291655520858512
20
18.342591717381538
30
0
10
-1.1411181866024833
20
18.341456529430431
30
0
10
-1.1530927856099993
20
18.340422302471566
30
0
10
-1.1650403481665705
20
18.339390410607734
30
0
10
-1.1770097769007748
20
18.338459023279796
30
0
10
-1.1890021567097619
20
18.33762952877855
30
0
10
-1.2009601097764744
20
18.336802415522229
30
0
10
-1.212940884189635
20
18.336076618080597
30
0
10
-1.2249456405793069
20
18.335453591522182
30
0
10
-1.236878078010335
20
18.334834318195377
30
0
10
-1.2488342100240857
20
18.334316594564157
30
0
10
-1.2608152420922636
20
18.333901790162912
30
0
10
-1.2727564104537237
20
18.33348836591334
30
0
10
-1.2847223119908335
20
18.333177187885639
30
0
10
-1.2967142171983426
20
18.332969429756716
30
0
10
-1.3086718242183792
20
18.332762265839264
30
0
10
-1.3206640615169363
20
18.332657985429677
30
0
10
-1.3326573887025006
20
18.332657388703311
30
0
0
SPLINE
5
127
100
AcDbEntity
8
OUTER_PROFILES
100
AcDbSpline
70
0
71
3
72
14
73
10
74
0
42
0.000000001
43
0.0000000001
44
0.0000000001
40
0
40
0
40
0
40
0
40
0.003529493917681599
40
0.003529493917681599
40
0.003529493917681599
40
0.0070633764485151041
40
0.0070633764485151041
40
0.0070633764485151041
40
0.010030481142325456
40
0.010030481142325456
40
0.010030481142325456
40
0.010030481142325456
10
0.92928932188229396
20
19.332657388703467
30
0
10
0.91730985227044926
20
19.324338270933907
30
0
10
0.90534068523879796
20
19.316026325083158
30
0
10
0.89338074130225209
20
19.307723379573645
30
0
10
0.88140592623446423
20
19.299410110086654
30
0
10
0.86944035641266737
20
19.291105864009168
30
0
10
0.85748298436044479
20
19.282812472152244
30
0
10
0.84744338218570192
20
19.27584920676594
30
0
10
0.837409560135427
20
19.268893592777658
30
0
10
0.82738091762379895
20
19.261946710584752
30
0
0
ARC
5
128
100
AcDbEntity
8
OUTER_PROFILES
100
AcDbCircle
10
0.96464466094161594
20
19.297302049644145
30
0
40
0.04999999999999237
210
0
220
0
230
1
100
AcDbArc
50
-45
51
135
0
SPLINE
5
129
100
AcDbEntity
8
OUTER_PROFILES
100
AcDbSpline
70
0
71
3
72
14
73
10
74
0
42
0.000000001
43
0.0000000001
44
0.0000000001
40
0.18027200095354651
40
0.18027200095354651
40
0.18027200095354651
40
0.18027200095354651
40
0.18319469070976707
40
0.18319469070976707
40
0.18319469070976707
40
0.18668329024519767
40
0.18668329024519767
40
0.18668329024519767
40
0.19017594441088734
40
0.19017594441088734
40
0.19017594441088734
40
0.19017594441088734
10
0.92928932188229396
20
19.16003830655022
30
0
10
0.93624308938984768
20
19.170076889179981
30
0
10
0.94319873096466722
20
19.180110738736431
30
0
10
0.9501550827410199
20
19.190140373066171
30
0
10
0.95845836759153258
20
19.202112008984358
30
0
10
0.96676266472385919
20
19.214077639028631
30
0
10
0.97506599011850881
20
19.226038130004071
30
0
10
0.9833789660660841
20
19.238012522078733
30
0
10
0.99169096728218165
20
19.249981763931174
30
0
10
1.0000000000009379
20
19.261946710584823
30
0
0
SPLINE
5
130
100
AcDbEntity
8
OUTER_PROFILES
100
AcDbSpline
70
0
71
3
72
185
73
181
74
0
42
0.000000001
43
0.0000000001
44
0.0000000001
40
0
40
0
40
0
40
0
40
0.0025011934835608893
40
0.0025011934835608893
40
0.0025011934835608893
40
0.0050092895098075808
40
0.0050092895098075808
40
0.0050092895098075808
40
0.0075248866755660429
40
0.0075248866755660429
40
0.0075248866755660429
40
0.010054850267429987
40
0.010054850267429987
40
0.010054850267429987
40
0.0125912103607752
40
0.0125912103607752
40
0.0125912103607752
40
0.015132415082020291
40
0.015132415082020291
40
0.015132415082020291
40
0.017690657257714102
40
0.017690657257714102
40
0.017690657257714102
40
0.020251074746835265
40
0.020251074746835265
40
0.020251074746835265
40
0.022812842321630677
40
0.022812842321630677
40
0.022812842321630677
40
0.025395070244874331
40
0.025395070244874331
40
0.025395070244874331
40
0.02797708144246789
40
0.02797708144246789
40
0.02797708144246789
40
0.030565127430278866
40
0.030565127430278866
40
0.030565127430278866
40
0.033190466062798553
40
0.033190466062798553
40
0.033190466062798553
40
0.035827159060858337
40
0.035827159060858337
40
0.035827159060858337
40
0.038474512334505141
40
0.038474512334505141
40
0.038474512334505141
40
0.041161930507730829
40
0.041161930507730829
40
0.041161930507730829
40
0.043859118593308904
40
0.043859118593308904
40
0.043859118593308904
40
0.046565633443793976
40
0.046565633443793976
40
0.046565633443793976
40
0.04931476639061845
40
0.04931476639061845
40
0.04931476639061845
40
0.052072905310188988
40
0.052072905310188988
40
0.052072905310188988
40
0.054839966490294149
40
0.054839966490294149
40
0.054839966490294149
40
0.057652195393847201
40
0.057652195393847201
40
0.057652195393847201
40
0.060473966024565229
40
0.060473966024565229
40
0.060473966024565229
40
0.063307068704634026
40
0.063307068704634026
40
0.063307068704634026
40
0.066189345036532357
40
0.066189345036532357
40
0.066189345036532357
40
0.069082804688934338
40
0.069082804688934338
40
0.069082804688934338
40
0.071987126053278783
40
0.071987126053278783
40
0.071987126053278783
40
0.074940645139334794
40
0.074940645139334794
40
0.074940645139334794
40
0.077904972777421908
40
0.077904972777421908
40
0.077904972777421908
40
0.080880100538251329
40
0.080880100538251329
40
0.080880100538251329
40
0.083904485686695091
40
0.083904485686695091
40
0.083904485686695091
40
0.086940277017073089
40
0.086940277017073089
40
0.086940277017073089
40
0.089987812153381794
40
0.089987812153381794
40
0.089987812153381794
40
0.093084934804245803
40
0.093084934804245803
40
0.093084934804245803
40
0.09619513985393531
40
0.09619513985393531
40
0.09619513985393531
40
0.099319134124338612
40
0.099319134124338612
40
0.099319134124338612
40
0.10249211652250038
40
0.10249211652250038
40
0.10249211652250038
40
0.10567378590259491
40
0.10567378590259491
40
0.10567378590259491
40
0.10886331417268703
40
0.10886331417268703
40
0.10886331417268703
40
0.11209364910359107
40
0.11209364910359107
40
0.11209364910359107
40
0.11533140958789229
40
0.11533140958789229
40
0.11533140958789229
40
0.11857638590027418
40
0.11857638590027418
40
0.11857638590027418
40
0.12185868607343467
40
0.12185868607343467
40
0.12185868607343467
40
0.12514810213798944
40
0.12514810213798944
40
0.12514810213798944
40
0.12844460823675954
40
0.12844460823675954
40
0.12844460823675954
40
0.13177501747683215
40
0.13177501747683215
40
0.13177501747683215
40
0.13511273762191581
40
0.13511273762191581
40
0.13511273762191581
40
0.13845790715019279
40
0.13845790715019279
40
0.13845790715019279
40
0.14183368206772506
40
0.14183368206772506
40
0.14183368206772506
40
0.14521751379441519
40
0.14521751379441519
40
0.14521751379441519
40
0.14860974526890758
40
0.14860974526890758
40
0.14860974526890758
40
0.15202953587964277
40
0.15202953587964277
40
0.15202953587964277
40
0.15545856313392167
40
0.15545856313392167
40
0.15545856313392167
40
0.15889710750393204
40
0.15889710750393204
40
0.15889710750393204
40
0.1623548131200773
40
0.1623548131200773
40
0.1623548131200773
40
0.16581502883533195
40
0.16581502883533195
40
0.16581502883533195
40
0.16927782164438332
40
0.16927782164438332
40
0.16927782164438332
40
0.17275276000863693
40
0.17275276000863693
40
0.17275276000863693
40
0.1762298638868891
40
0.1762298638868891
40
0.1762298638868891
40
0.18027200095352716
40
0.18027200095352716
40
0.18027200095352716
40
0.18027200095352716
10
1.2789769243681803e-12
20
17.000000000000668
30
0
10
5.9713599398492079e-07
20
17.01200572869098
30
0
10
0.00010489024774074096
20
17.023986340959496
30
0
10
0.00031204065081169574
20
17.035943171444217
30
0
10
0.00051976272686715674
20
17.047932999189399
30
0
10
0.00083090519581219269
20
17.059898911214901
30
0
10
0.0012444010816636819
20
17.07184214656472
30
0
10
0.0016591336388671607
20
17.083821101390058
30
0
10
0.0021768219730233795
20
17.095777242175245
30
0
10
0.0027962028200079203
20
17.10771174812372
30
0
10
0.0034191209142875323
20
17.119714411327323
30
0
10
0.0041448828758916534
20
17.131695192515721
30
0
10
0.0049721406283254055
20
17.143655232002715
30
0
10
0.0058014899347824667
20
17.15564551003169
30
0
10
0.0067328416564294002
20
17.167614943176801
30
0
10
0.0077649147540626018
20
17.17956460300492
30
0
10
0.0087989591845882842
20
17.19153708753197
30
0
10
0.0099341111460660159
20
17.203489723878747
30
0
10
0.011169174810703453
20
17.215423495895124
30
0
10
0.012412518934183936
20
17.227437277638913
30
0
10
0.013757125627904543
20
17.239431939614747
30
0
10
0.015201769137576093
20
17.251408403945589
30
0
10
0.016647641050155926
20
17.26339505205182
30
0
10
0.018193724750545925
20
17.275363469382228
30
0
10
0.019838729123478061
20
17.287314521273984
30
0
10
0.021484600892733852
20
17.299271874850533
30
0
10
0.02322949875903646
20
17.311211843610224
30
0
10
0.025072087390896058
20
17.323135243073366
30
0
10
0.026929392426353616
20
17.335153872451201
30
0
10
0.028885953305888279
20
17.347155667344794
30
0
10
0.030940422183505234
20
17.359141397765612
30
0
10
0.032994718630163788
20
17.371126122227523
30
0
10
0.035147036543747845
20
17.383095479117117
30
0
10
0.037395666885657874
20
17.395048075262523
30
0
10
0.039649552825409273
20
17.407028607541761
30
0
10
0.041994302819148288
20
17.418961046406665
30
0
10
0.044427194215046484
20
17.430846992492874
30
0
10
0.046895142543803559
20
17.442904210019634
30
0
10
0.049453793086513542
20
17.454913585106766
30
0
10
0.052100344407648436
20
17.466876626585091
30
0
10
0.054758341837413127
20
17.478891407196926
30
0
10
0.057505004286610983
20
17.490859451910268
30
0
10
0.060337519000341899
20
17.502782124579426
30
0
10
0.063181485706138574
20
17.51475300118301
30
0
10
0.066112001900506812
20
17.526678137706497
30
0
10
0.069126251357118917
20
17.538558740615997
30
0
10
0.072186118300123781
20
17.550619143919803
30
0
10
0.075332273109296466
20
17.562633655681736
30
0
10
0.078561811260868808
20
17.574603345150663
30
0
10
0.08180309016239562
20
17.58661654955084
30
0
10
0.085128361004933595
20
17.598584604677612
30
0
10
0.088534716345094466
20
17.610508398984592
30
0
10
0.091952850721099821
20
17.622473425279352
30
0
10
0.095452632639165813
20
17.634393883237252
30
0
10
0.099031132098872376
20
17.646270488739049
30
0
10
0.10266598034789354
20
17.658334109034968
30
0
10
0.1063820459097542
20
17.670352484170664
30
0
10
0.11017624571266538
20
17.682326190120392
30
0
10
0.11398287505627991
20
17.694339121117224
30
0
10
0.11786815252378346
20
17.706307088509163
30
0
10
0.12182894534390698
20
17.718230509193091
30
0
10
0.12580255087101477
20
17.730192500764446
30
0
10
0.12985216197492377
20
17.74210965577538
30
0
10
0.13397459621685925
20
17.753982237939141
30
0
10
0.13816432241853249
20
17.766048620482806
30
0
10
0.14242926925106758
20
17.778068962403921
30
0
10
0.14676607748924653
20
17.790043383399947
30
0
10
0.15111760026258025
20
17.802058432901759
30
0
10
0.15554205919841024
20
17.814028769049131
30
0
10
0.16003329743043082
20
17.825947194025673
30
0
10
0.16454257218640578
20
17.837913482630299
30
0
10
0.1691195096215381
20
17.849828477057841
30
0
10
0.17376122568521168
20
17.861693984985081
30
0
10
0.17848350717670769
20
17.873765440391693
30
0
10
0.18327283676455863
20
17.885785676715216
30
0
10
0.18812623982242371
20
17.897756397964883
30
0
10
0.19299847423297933
20
17.909773565979918
30
0
10
0.19793528161073937
20
17.921740833476463
30
0
10
0.20293370054289994
20
17.933659723340654
30
0
10
0.20795088295997743
20
17.945623355335059
30
0
10
0.21303014151300204
20
17.957538245252209
30
0
10
0.21816851753328592
20
17.969405733108346
30
0
10
0.22339393502093685
20
17.981474250152303
30
0
10
0.22868049072130248
20
17.993493745420821
30
0
10
0.23402510040497759
20
18.005465421523823
30
0
10
0.23938926895738177
20
18.017480908579202
30
0
10
0.24481191807268488
20
18.02944822509204
30
0
10
0.25028994604568311
20
18.04136838522318
30
0
10
0.25578793246523901
20
18.053331974829092
30
0
10
0.26134170275838642
20
18.065248063022779
30
0
10
0.2669481281712649
20
18.077117481231255
30
0
10
0.27264737577255005
20
18.08918341420501
30
0
10
0.27840103710687458
20
18.101201118610604
30
0
10
0.28420582481359702
20
18.113171273957889
30
0
10
0.29003250472683817
20
18.1251865736116
30
0
10
0.29591069789276503
20
18.13715396402273
30
0
10
0.30183707295904583
20
18.149073946346661
30
0
10
0.30778637390895369
20
18.161040040522138
30
0
10
0.31378423064893468
20
18.172958358283964
30
0
10
0.31982726223063196
20
18.184829229354307
30
0
10
0.32596862210169775
20
18.196893255537034
30
0
10
0.33215663919790472
20
18.208908277963829
30
0
10
0.33838775083424366
20
18.220874466636658
30
0
10
0.34464518299344604
20
18.232891201080577
30
0
10
0.35094607472601069
20
18.244858687552181
30
0
10
0.35728680189279771
20
18.256776930296681
30
0
10
0.36365564093159719
20
18.268748013055642
30
0
10
0.37006466951808648
20
18.28066941372505
30
0
10
0.37651019814248343
20
18.292540977477216
30
0
10
0.38305680069740333
20
18.30459870216032
30
0
10
0.38964034184985508
20
18.316603822646087
30
0
10
0.39626791207510337
20
18.328575541156766
30
0
10
0.40291362724275359
20
18.340580035803384
30
0
10
0.4096014220591826
20
18.352546874047135
30
0
10
0.41632908617685871
20
18.364477848702734
30
0
10
0.42307336797719586
20
18.376438293490693
30
0
10
0.42985771692471531
20
18.388362696968485
30
0
10
0.43667994193754112
20
18.40025272560041
30
0
10
0.44358945014664641
20
18.412294874647728
30
0
10
0.45053781031484164
20
18.424301763513213
30
0
10
0.45752277489924609
20
18.436274982406857
30
0
10
0.46452379578383329
20
18.448275724073895
30
0
10
0.47156159007116116
20
18.460242640389666
30
0
10
0.47863391645122988
20
18.472177195020905
30
0
10
0.48572200455652137
20
18.48413834757217
30
0
10
0.49284477928310366
20
18.496066993604288
30
0
10
0.50000000000139266
20
18.507964473723675
30
0
10
0.50723752038408065
20
18.519998799184592
30
0
10
0.51450823780655242
20
18.532001237415656
30
0
10
0.52180984417290688
20
18.543973043957038
30
0
10
0.52912728012074695
20
18.555970804881241
30
0
10
0.53647573938818027
20
18.56793780071925
30
0
10
0.54385290446546719
20
18.579875169098656
30
0
10
0.55124597034463818
20
18.591838267379188
30
0
10
0.55866786612881469
20
18.603771609940623
30
0
10
0.56611626088354683
20
18.6156762218463
30
0
10
0.57364125916095077
20
18.627703267543154
30
0
10
0.58119330443219042
20
18.639700988345922
30
0
10
0.58876999200649038
20
18.651670323434359
30
0
10
0.59636331190404235
20
18.663665933573625
30
0
10
0.60398138255436606
20
18.675633032817416
30
0
10
0.61162178114443577
20
18.687572452521337
30
0
10
0.61927923216970271
20
18.699538519549961
30
0
10
0.62695911103816115
20
18.711476782905976
30
0
10
0.63465897563503404
20
18.723387969969707
30
0
10
0.64242928729029813
20
18.735408134026557
30
0
10
0.65021995215900574
20
18.747400723740171
30
0
10
0.65802845627317197
20
18.759366380000912
30
0
10
0.66585559659060323
20
18.771360594151645
30
0
10
0.67370066140782114
20
18.783327745773946
30
0
10
0.68156111244306317
20
18.795268380822918
30
0
10
0.68944107562060708
20
18.807238656330085
30
0
10
0.69733650139610859
20
18.819182283204938
30
0
10
0.70524482559008561
20
18.831099718092617
30
0
10
0.71321739851981647
20
18.843113972496894
30
0
10
0.72120308014902434
20
18.855101607484812
30
0
10
0.72919923760366601
20
18.867062999537296
30
0
10
0.73721699218651793
20
18.879056698572043
30
0
10
0.7452452791838482
20
18.891024012387447
30
0
10
0.7532814424614287
20
18.90296522963105
30
0
10
0.76133990976003929
20
18.914939589202859
30
0
10
0.7694037136428733
20
18.926883894052651
30
0
10
0.7774790660447195
20
18.938811466215384
30
0
10
0.78559941824835278
20
18.950805504627013
30
0
10
0.7937343524457674
20
18.962786885083318
30
0
10
0.80188193548750064
20
18.974756678099283
30
0
10
0.81003543321472193
20
18.98673516050934
30
0
10
0.81820159821702987
20
18.998702038386668
30
0
10
0.82637849229016069
20
19.010658344397626
30
0
10
0.83456147633697242
20
19.022623555206621
30
0
10
0.84275520526503556
20
19.034578178452009
30
0
10
0.85095773382505513
20
19.046523214338507
30
0
10
0.85918903230250976
20
19.05851014678106
30
0
10
0.86742919209569891
20
19.070487424521332
30
0
10
0.87567624624327323
20
19.082456023971162
30
0
10
0.88392843979448799
20
19.094432082019352
30
0
10
0.89218753636799875
20
19.106399450640197
30
0
10
0.90045156731449083
20
19.118359072272995
30
0
10
0.91005851234072566
20
19.132262145519476
30
0
10
0.91967212548439647
20
19.146154750535231
30
0
10
0.92928932188200974
20
19.160038306550007
30
0
0
LINE
5
131
100
AcDbEntity
8
OUTER_PROFILES
100
AcDbLine
10
1.2789769243681803e-12
20
17.000000000000668
30
0
11
0
21
0
31
0
0
CIRCLE
5
132
100
AcDbEntity
8
INTERIOR_PROFILES
100
AcDbCircle
10
-99.929289322020622
20
46.261946709062585
30
0
40
1.25
210
0
220
0
230
-1
0
CIRCLE
5
133
100
AcDbEntity
8
INTERIOR_PROFILES
100
AcDbCircle
10
-77.429289322027728
20
36.761946709062485
30
0
40
17.5
210
0
220
0
230
-1
0
CIRCLE
5
134
100
AcDbEntity
8
INTERIOR_PROFILES
100
AcDbCircle
10
-53.42928932201815
20
42.761946709062286
30
0
40
1.25
210
0
220
0
230
-1
0
CIRCLE
5
135
100
AcDbEntity
8
INTERIOR_PROFILES
100
AcDbCircle
10
-253.42928932201806
20
42.761946709064773
30
0
40
1.25
210
0
220
0
230
-1
0
CIRCLE
5
136
100
AcDbEntity
8
INTERIOR_PROFILES
100
AcDbCircle
10
-701.42928932201801
20
42.761946709070457
30
0
40
1.25
210
0
220
0
230
-1
0
CIRCLE
5
137
100
AcDbEntity
8
INTERIOR_PROFILES
100
AcDbCircle
10
-501.42928932201801
20
42.7619467090679
30
0
40
1.25
210
0
220
0
230
-1
0
CIRCLE
5
138
100
AcDbEntity
8
INTERIOR_PROFILES
100
AcDbCircle
10
-699.92928932202062
20
46.261946709070187
30
0
40
1.25
210
0
220
0
230
-1
0
CIRCLE
5
139
100
AcDbEntity
8
INTERIOR_PROFILES
100
AcDbCircle
10
-477.42928932202773
20
36.761946709067601
30
0
40
17.5
210
0
220
0
230
-1
0
CIRCLE
5
140
100
AcDbEntity
8
INTERIOR_PROFILES
100
AcDbCircle
10
-654.92928932202062
20
46.261946709069761
30
0
40
1.25
210
0
220
0
230
-1
0
CIRCLE
5
141
100
AcDbEntity
8
INTERIOR_PROFILES
100
AcDbCircle
10
-454.92928932202062
20
46.261946709067203
30
0
40
1.25
210
0
220
0
230
-1
0
CIRCLE
5
142
100
AcDbEntity
8
INTERIOR_PROFILES
100
AcDbCircle
10
-677.42928932202767
20
36.761946709070017
30
0
40
17.5
210
0
220
0
230
-1
0
CIRCLE
5
143
100
AcDbEntity
8
INTERIOR_PROFILES
100
AcDbCircle
10
-301.42928932201801
20
42.761946709065271
30
0
40
1.25
210
0
220
0
230
-1
0
CIRCLE
5
144
100
AcDbEntity
8
INTERIOR_PROFILES
100
AcDbCircle
10
-499.92928932202062
20
46.26194670906763
30
0
40
1.25
210
0
220
0
230
-1
0
CIRCLE
5
145
100
AcDbEntity
8
INTERIOR_PROFILES
100
AcDbCircle
10
-653.42928932201801
20
42.761946709069818
30
0
40
1.25
210
0
220
0
230
-1
0
CIRCLE
5
146
100
AcDbEntity
8
INTERIOR_PROFILES
100
AcDbCircle
10
-101.42928932201812
20
42.761946709062784
30
0
40
1.25
210
0
220
0
230
-1
0
CIRCLE
5
147
100
AcDbEntity
8
INTERIOR_PROFILES
100
AcDbCircle
10
-54.929289322020622
20
46.261946709062229
30
0
40
1.25
210
0
220
0
230
-1
0
CIRCLE
5
148
100
AcDbEntity
8
INTERIOR_PROFILES
100
AcDbCircle
10
-299.92928932202068
20
46.261946709065072
30
0
40
1.25
210
0
220
0
230
-1
0
CIRCLE
5
149
100
AcDbEntity
8
INTERIOR_PROFILES
100
AcDbCircle
10
-254.92928932202068
20
46.261946709064716
30
0
40
1.25
210
0
220
0
230
-1
0
CIRCLE
5
150
100
AcDbEntity
8
INTERIOR_PROFILES
100
AcDbCircle
10
-453.42928932201806
20
42.76194670906726
30
0
40
1.25
210
0
220
0
230
-1
0
CIRCLE
5
151
100
AcDbEntity
8
INTERIOR_PROFILES
100
AcDbCircle
10
-277.42928932202773
20
36.761946709065043
30
0
40
17.5
210
0
220
0
230
-1
0
ENDSEC
0
SECTION
2
OBJECTS
0
DICTIONARY
5
C
100
AcDbDictionary
3
ACAD_GROUP
350
D
3
ACAD_MLINESTYLE
350
17
0
DICTIONARY
5
D
100
AcDbDictionary
0
DICTIONARY
5
1A
330
C
100
AcDbDictionary
0
DICTIONARY
5
17
100
AcDbDictionary
0
ENDSEC
0
EOF
