0
SECTION
2
HEADER
9
$INSUNITS
70
4
9
$ACADVER
1
AC1014
9
$HANDSEED
5
FFFF
0
ENDSEC
0
SECTION
2
TABLES
0
TABLE
2
VPORT
5
8
100
AcDbSymbolTable
0
ENDTAB
0
TABLE
2
LTYPE
5
5
100
AcDbSymbolTable
0
LTYPE
5
14
100
AcDbSymbolTableRecord
100
AcDbLinetypeTableRecord
2
BYBLOCK
70
0
0
LTYPE
5
15
100
AcDbSymbolTableRecord
100
AcDbLinetypeTableRecord
2
BYLAYER
70
0
0
LTYPE
5
16
100
AcDbSymbolTableRecord
100
AcDbLinetypeTableRecord
2
DASHED
70
0
3
Dashed __ __ __ __ __ __ __ __ __ __ __ __ __ _
72
65
73
2
40
0.75
49
0.5
74
0
49
-0.25
74
0
0
ENDTAB
0
TABLE
2
LAYER
5
2
100
AcDbSymbolTable
70
2
0
LAYER
5
50
100
AcDbSymbolTableRecord
100
AcDbLayerTableRecord
2
0
70
0
62
7
6
CONTINUOUS
0
ENDTAB
0
TABLE
2
STYLE
5
3
100
AcDbSymbolTable
70
1
0
STYLE
5
11
100
AcDbSymbolTableRecord
100
AcDbTextStyleTableRecord
2
STANDARD
70
0
0
ENDTAB
0
TABLE
2
VIEW
5
6
100
AcDbSymbolTable
70
0
0
ENDTAB
0
TABLE
2
UCS
5
7
100
AcDbSymbolTable
70
0
0
ENDTAB
0
TABLE
2
APPID
5
9
100
AcDbSymbolTable
70
2
0
APPID
5
12
100
AcDbSymbolTableRecord
100
AcDbRegAppTableRecord
2
ACAD
70
0
0
ENDTAB
0
TABLE
2
DIMSTYLE
5
A
100
AcDbSymbolTable
70
1
0
ENDTAB
0
TABLE
2
BLOCK_RECORD
5
1
100
AcDbSymbolTable
70
1
0
BLOCK_RECORD
5
1F
100
AcDbSymbolTableRecord
100
AcDbBlockTableRecord
2
*MODEL_SPACE
0
BLOCK_RECORD
5
1B
100
AcDbSymbolTableRecord
100
AcDbBlockTableRecord
2
*PAPER_SPACE
0
ENDTAB
0
ENDSEC
0
SECTION
2
BLOCKS
0
BLOCK
5
20
100
AcDbEntity
100
AcDbBlockBegin
2
*MODEL_SPACE
0
ENDBLK
5
21
100
AcDbEntity
100
AcDbBlockEnd
0
BLOCK
5
1C
100
AcDbEntity
100
AcDbBlockBegin
2
*PAPER_SPACE
0
ENDBLK
5
1D
100
AcDbEntity
100
AcDbBlockEnd
0
ENDSEC
0
SECTION
2
ENTITIES
0
LWPOLYLINE
5
100
100
AcDbEntity
8
OUTER_PROFILES
100
AcDbPolyline
90
20
70
1
43
0.0
10
0.90000000000003411
20
82.523893421169149
10
-1.3619467105842908
20
84.523893421169078
10
-49.36194671058427
20
84.523893421169248
10
-49.36194671058427
20
21.523893421169245
10
-1.3619467105844052
20
21.523893421169227
10
0.90000000000003411
20
23.523893421169042
10
4.2632564145606011e-13
20
21.261946710584589
10
0
20
0
10
1329.8000000000004
20
0
10
1329.8000000000004
20
21.261946710584589
10
1328.9000000000005
20
23.523893421169145
10
1331.1619467105847
20
21.523893421169223
10
1379.161946710585
20
21.523893421169241
10
1379.161946710585
20
84.523893421169248
10
1331.1619467105847
20
84.523893421169049
10
1328.9000000000005
20
82.523893421169248
10
1329.8
20
84.785840131753901
10
1329.8000000000004
20
106.0477868423385
10
0
20
106.0477868423385
10
0
20
84.785840131753901
0
CIRCLE
5
101
100
AcDbEntity
8
INTERIOR_PROFILES
100
AcDbCircle
10
6.8619467105846033
20
28.523893421169223
30
0
40
1.7000000000000004
210
0
220
0
230
-1
0
CIRCLE
5
102
100
AcDbEntity
8
INTERIOR_PROFILES
100
AcDbCircle
10
-6.4000000000001478
20
28.523893421169223
30
0
40
1.6999999999999993
210
0
220
0
230
-1
0
CIRCLE
5
103
100
AcDbEntity
8
INTERIOR_PROFILES
100
AcDbCircle
10
-1336.661946710585
20
77.523893421169149
30
0
40
1.6999999999998749
210
0
220
0
230
-1
0
CIRCLE
5
104
100
AcDbEntity
8
INTERIOR_PROFILES
100
AcDbCircle
10
-6.4000000000001478
20
77.523893421169149
30
0
40
1.6999999999999993
210
0
220
0
230
-1
0
CIRCLE
5
105
100
AcDbEntity
8
INTERIOR_PROFILES
100
AcDbCircle
10
-1336.661946710585
20
28.523893421169223
30
0
40
1.6999999999998749
210
0
220
0
230
-1
0
CIRCLE
5
106
100
AcDbEntity
8
INTERIOR_PROFILES
100
AcDbCircle
10
6.8619467105845544
20
77.523893421169149
30
0
40
1.7000000000000004
210
0
220
0
230
-1
0
LINE
5
107
100
AcDbEntity
8
BEND
100
AcDbLine
10
0.45000000000001705
20
22.392920065876947
30
1.9956258867637189e-13
11
1329.3500000000006
21
22.392920065876947
31
5.9674487573602164e-14
0
LINE
5
108
100
AcDbEntity
8
BEND
100
AcDbLine
10
1329.3500000000004
20
83.654866776461489
30
5.9674487573602164e-14
11
0.44999999999987494
21
83.654866776461489
31
-8.0491169285323849e-14
0
LINE
5
109
100
AcDbEntity
8
BEND
100
AcDbLine
10
1330.0309733552924
20
22.523893421169127
30
-4.8572257327350599e-14
11
1330.0309733552926
21
83.523893421169191
31
8.2156503822261584e-14
0
LINE
5
110
100
AcDbEntity
8
BEND
100
AcDbLine
10
1329.8
20
96.916813487046198
30
2.7375841354783399e-14
11
0
21
96.916813487046198
31
3.4777612287189557e-14
0
LINE
5
111
100
AcDbEntity
8
BEND
100
AcDbLine
10
5.6843418860808015e-13
20
9.1309733552922978
30
2.2934949256282766e-14
11
1329.8000000000004
21
9.1309733552922978
31
3.0336720188688918e-14
0
LINE
5
112
100
AcDbEntity
8
BEND
100
AcDbLine
10
-0.23097335529232113
20
83.523893421169134
30
8.2156503822261836e-14
11
-0.23097335529228019
21
22.52389342116901
31
-4.7184478546571046e-15
0
LINE
5
113
100
AcDbEntity
8
BEND_EXTENT
100
AcDbLine
10
1331.1619467105847
20
84.523893421169049
30
5.9952043329758453e-14
11
1331.1619467105847
21
21.523893421169227
31
5.9952043329758453e-14
0
LWPOLYLINE
5
114
100
AcDbEntity
8
BEND_EXTENT
100
AcDbPolyline
90
4
70
1
43
0.0
10
1328.9000000000005
20
23.523893421169145
10
1328.9000000000005
20
82.523893421169248
10
0.90000000000003411
20
82.523893421169149
10
0.90000000000003411
20
23.523893421169042
0
LINE
5
115
100
AcDbEntity
8
BEND_EXTENT
100
AcDbLine
10
0
20
84.785840131753901
30
-4.6629367034256575e-14
11
1329.8
21
84.785840131753901
31
5.5511151231257827e-14
0
LINE
5
116
100
AcDbEntity
8
BEND_EXTENT
100
AcDbLine
10
0
20
98.04778684233851
30
3.9968028886505635e-14
11
1329.8
21
98.04778684233851
31
3.9968028886505635e-14
0
LINE
5
117
100
AcDbEntity
8
BEND_EXTENT
100
AcDbLine
10
1329.8000000000004
20
95.785840131753901
30
3.3306690738754696e-14
11
0
21
95.785840131753901
31
3.3306690738754696e-14
0
LINE
5
118
100
AcDbEntity
8
BEND_EXTENT
100
AcDbLine
10
1329.8000000000004
20
7.9999999999999893
30
3.3306690738754696e-14
11
5.6843418860808015e-13
21
7.9999999999999893
31
3.3306690738754696e-14
0
LINE
5
119
100
AcDbEntity
8
BEND_EXTENT
100
AcDbLine
10
0
20
10.261946710584592
30
3.7747582837255322e-14
11
1329.8000000000004
21
10.261946710584592
31
3.7747582837255322e-14
0
LINE
5
120
100
AcDbEntity
8
BEND_EXTENT
100
AcDbLine
10
1329.8000000000004
20
21.261946710584589
30
5.1070259132757201e-14
11
2.8421709430404007e-13
21
21.261946710584589
31
5.1070259132757201e-14
0
LINE
5
121
100
AcDbEntity
8
BEND_EXTENT
100
AcDbLine
10
-1.3619467105844019
20
21.523893421169227
30
5.9952043329758453e-14
11
-1.3619467105842908
21
84.523893421169078
31
5.9952043329758453e-14
0
ENDSEC
0
SECTION
2
OBJECTS
0
DICTIONARY
5
C
100
AcDbDictionary
3
ACAD_GROUP
350
D
3
ACAD_MLINESTYLE
350
17
0
DICTIONARY
5
D
100
AcDbDictionary
0
DICTIONARY
5
1A
330
C
100
AcDbDictionary
0
DICTIONARY
5
17
100
AcDbDictionary
0
ENDSEC
0
EOF
