0
SECTION
2
HEADER
9
$INSUNITS
70
4
9
$ACADVER
1
AC1014
9
$HANDSEED
5
FFFF
0
ENDSEC
0
SECTION
2
TABLES
0
TABLE
2
VPORT
5
8
100
AcDbSymbolTable
0
ENDTAB
0
TABLE
2
LTYPE
5
5
100
AcDbSymbolTable
0
LTYPE
5
14
100
AcDbSymbolTableRecord
100
AcDbLinetypeTableRecord
2
BYBLOCK
70
0
0
LTYPE
5
15
100
AcDbSymbolTableRecord
100
AcDbLinetypeTableRecord
2
BYLAYER
70
0
0
LTYPE
5
16
100
AcDbSymbolTableRecord
100
AcDbLinetypeTableRecord
2
DASHED
70
0
3
Dashed __ __ __ __ __ __ __ __ __ __ __ __ __ _
72
65
73
2
40
0.75
49
0.5
74
0
49
-0.25
74
0
0
ENDTAB
0
TABLE
2
LAYER
5
2
100
AcDbSymbolTable
70
2
0
LAYER
5
50
100
AcDbSymbolTableRecord
100
AcDbLayerTableRecord
2
0
70
0
62
7
6
CONTINUOUS
0
ENDTAB
0
TABLE
2
STYLE
5
3
100
AcDbSymbolTable
70
1
0
STYLE
5
11
100
AcDbSymbolTableRecord
100
AcDbTextStyleTableRecord
2
STANDARD
70
0
0
ENDTAB
0
TABLE
2
VIEW
5
6
100
AcDbSymbolTable
70
0
0
ENDTAB
0
TABLE
2
UCS
5
7
100
AcDbSymbolTable
70
0
0
ENDTAB
0
TABLE
2
APPID
5
9
100
AcDbSymbolTable
70
2
0
APPID
5
12
100
AcDbSymbolTableRecord
100
AcDbRegAppTableRecord
2
ACAD
70
0
0
ENDTAB
0
TABLE
2
DIMSTYLE
5
A
100
AcDbSymbolTable
70
1
0
ENDTAB
0
TABLE
2
BLOCK_RECORD
5
1
100
AcDbSymbolTable
70
1
0
BLOCK_RECORD
5
1F
100
AcDbSymbolTableRecord
100
AcDbBlockTableRecord
2
*MODEL_SPACE
0
BLOCK_RECORD
5
1B
100
AcDbSymbolTableRecord
100
AcDbBlockTableRecord
2
*PAPER_SPACE
0
ENDTAB
0
ENDSEC
0
SECTION
2
BLOCKS
0
BLOCK
5
20
100
AcDbEntity
100
AcDbBlockBegin
2
*MODEL_SPACE
0
ENDBLK
5
21
100
AcDbEntity
100
AcDbBlockEnd
0
BLOCK
5
1C
100
AcDbEntity
100
AcDbBlockBegin
2
*PAPER_SPACE
0
ENDBLK
5
1D
100
AcDbEntity
100
AcDbBlockEnd
0
ENDSEC
0
SECTION
2
ENTITIES
0
LWPOLYLINE
5
100
100
AcDbEntity
8
OUTER_PROFILES
100
AcDbPolyline
90
40
70
1
43
0.0
10
0
20
0
10
0
20
26.979289321880877
10
9.4445772522247751
20
36.423866574105894
42
0.41421356237306328
10
9.4445772522247768
20
37.838080136478908
10
0.020710678118973647
20
47.26194671058488
10
9.4445772522245637
20
56.685813284690276
42
0.41421356237311596
10
9.4445772522245832
20
58.100026847063418
10
2.8421709430404007e-13
20
67.544604099287469
10
-5.5280224842135794e-11
20
94.623893421168432
10
-54.311946710585062
20
94.623893421168432
10
-54.311946710585062
20
664.42389342116996
10
-5.5280224842135794e-11
20
664.42389342116996
10
2.8421709430404007e-13
20
691.50318274305073
10
9.4445772522245814
20
700.94775999527474
42
0.41421356237311618
10
9.4445772522245814
20
702.36197355764784
10
0.020710678118832648
20
711.78584013175373
10
9.4445772522244393
20
721.20970670585973
42
0.41421356237311618
10
9.4445772522244393
20
722.62392026823295
10
1.4210854715202004e-13
20
732.06849752045764
10
1.4210854715202004e-13
20
759.04778684233838
10
911.42389342116974
20
759.04778684233861
10
911.42389342116974
20
732.06849752045764
10
901.97931616894505
20
722.62392026823272
42
0.41421356237306561
10
901.97931616894505
20
721.20970670585973
10
911.40318274305105
20
711.78584013175339
10
901.97931616894516
20
702.36197355764807
42
0.41421356237303619
10
901.97931616894539
20
700.94775999527496
10
911.42389342116974
20
691.50318274305073
10
911.42389342122533
20
664.42389342116996
10
922.47389342116958
20
664.42389342116996
10
922.47389342116958
20
94.623893421168432
10
911.42389342122533
20
94.623893421168432
10
911.42389342116974
20
67.544604099287469
10
901.97931616894539
20
58.10002684706339
42
0.4142135623730766
10
901.97931616894539
20
56.685813284690312
10
911.40318274305116
20
47.26194671058488
10
901.97931616894516
20
37.838080136478666
42
0.41421356237307022
10
901.97931616894516
20
36.423866574105624
10
911.42389342116974
20
26.979289321880842
10
911.42389342116974
20
-3.5527136788005009e-14
0
CIRCLE
5
101
100
AcDbEntity
8
INTERIOR_PROFILES
100
AcDbCircle
10
-825.21194671058493
20
646.52389342116919
30
0
40
1.7000000000000171
210
0
220
0
230
-1
0
CIRCLE
5
102
100
AcDbEntity
8
INTERIOR_PROFILES
100
AcDbCircle
10
-339.21194671058504
20
3.9999999999993108
30
0
40
1.2645
210
0
220
0
230
-1
0
CIRCLE
5
103
100
AcDbEntity
8
INTERIOR_PROFILES
100
AcDbCircle
10
-825.21194671058493
20
290.52389342116919
30
0
40
1.7000000000000171
210
0
220
0
230
-1
0
CIRCLE
5
104
100
AcDbEntity
8
INTERIOR_PROFILES
100
AcDbCircle
10
-739.21194671058504
20
3.9999999999993108
30
0
40
1.2645
210
0
220
0
230
-1
0
CIRCLE
5
105
100
AcDbEntity
8
INTERIOR_PROFILES
100
AcDbCircle
10
-825.21194671058493
20
3.9999999999993108
30
0
40
1.7000000000000002
210
0
220
0
230
-1
0
CIRCLE
5
106
100
AcDbEntity
8
INTERIOR_PROFILES
100
AcDbCircle
10
-825.21194671058493
20
112.52389342116913
30
0
40
1.6999999999999993
210
0
220
0
230
-1
0
CIRCLE
5
107
100
AcDbEntity
8
INTERIOR_PROFILES
100
AcDbCircle
10
-51.211946710584897
20
646.52389342116919
30
0
40
1.7000000000000171
210
0
220
0
230
-1
0
CIRCLE
5
108
100
AcDbEntity
8
INTERIOR_PROFILES
100
AcDbCircle
10
-51.211946710584897
20
290.52389342116919
30
0
40
1.7000000000000171
210
0
220
0
230
-1
0
CIRCLE
5
109
100
AcDbEntity
8
INTERIOR_PROFILES
100
AcDbCircle
10
-825.21194671058493
20
755.04778684233906
30
0
40
1.7000000000000171
210
0
220
0
230
-1
0
CIRCLE
5
110
100
AcDbEntity
8
INTERIOR_PROFILES
100
AcDbCircle
10
51.31194671058509
20
112.52389342116913
30
0
40
1.6999999999999993
210
0
220
0
230
-1
0
CIRCLE
5
111
100
AcDbEntity
8
INTERIOR_PROFILES
100
AcDbCircle
10
-339.21194671058504
20
755.04778684233906
30
0
40
1.264500000000055
210
0
220
0
230
-1
0
CIRCLE
5
112
100
AcDbEntity
8
INTERIOR_PROFILES
100
AcDbCircle
10
-825.21194671058493
20
468.52389342116913
30
0
40
1.7000000000000171
210
0
220
0
230
-1
0
CIRCLE
5
113
100
AcDbEntity
8
INTERIOR_PROFILES
100
AcDbCircle
10
-439.21194671058504
20
755.04778684233906
30
0
40
1.264500000000055
210
0
220
0
230
-1
0
CIRCLE
5
114
100
AcDbEntity
8
INTERIOR_PROFILES
100
AcDbCircle
10
-139.21194671058501
20
3.9999999999993108
30
0
40
1.2645
210
0
220
0
230
-1
0
CIRCLE
5
115
100
AcDbEntity
8
INTERIOR_PROFILES
100
AcDbCircle
10
-139.21194671058501
20
755.04778684233906
30
0
40
1.264500000000055
210
0
220
0
230
-1
0
CIRCLE
5
116
100
AcDbEntity
8
INTERIOR_PROFILES
100
AcDbCircle
10
-51.211946710584897
20
112.52389342116913
30
0
40
1.6999999999999993
210
0
220
0
230
-1
0
CIRCLE
5
117
100
AcDbEntity
8
INTERIOR_PROFILES
100
AcDbCircle
10
-439.21194671058504
20
3.9999999999993108
30
0
40
1.2645
210
0
220
0
230
-1
0
CIRCLE
5
118
100
AcDbEntity
8
INTERIOR_PROFILES
100
AcDbCircle
10
-51.211946710584897
20
468.52389342116913
30
0
40
1.7000000000000171
210
0
220
0
230
-1
0
CIRCLE
5
119
100
AcDbEntity
8
INTERIOR_PROFILES
100
AcDbCircle
10
-539.21194671058504
20
755.04778684233906
30
0
40
1.264500000000055
210
0
220
0
230
-1
0
CIRCLE
5
120
100
AcDbEntity
8
INTERIOR_PROFILES
100
AcDbCircle
10
51.31194671058509
20
290.52389342116919
30
0
40
1.7000000000000171
210
0
220
0
230
-1
0
CIRCLE
5
121
100
AcDbEntity
8
INTERIOR_PROFILES
100
AcDbCircle
10
-539.21194671058504
20
3.9999999999993108
30
0
40
1.2645
210
0
220
0
230
-1
0
CIRCLE
5
122
100
AcDbEntity
8
INTERIOR_PROFILES
100
AcDbCircle
10
51.31194671058509
20
468.52389342116913
30
0
40
1.7000000000000171
210
0
220
0
230
-1
0
CIRCLE
5
123
100
AcDbEntity
8
INTERIOR_PROFILES
100
AcDbCircle
10
51.31194671058509
20
646.52389342116919
30
0
40
1.7000000000000171
210
0
220
0
230
-1
0
LINE
5
124
100
AcDbEntity
8
BEND
100
AcDbLine
10
10.080973355292713
20
0
30
1.6929598899985273e-13
11
10.080973355292713
21
37.130973355292355
31
-2.1936605542433688e-12
0
LINE
5
125
100
AcDbEntity
8
BEND
100
AcDbLine
10
10.080973355292713
20
37.130973355292355
30
-2.1936605542433688e-12
11
10.080973355292429
21
57.392920065876822
31
-3.9066241600859535e-12
0
LINE
5
126
100
AcDbEntity
8
BEND
100
AcDbLine
10
10.080973355292429
20
57.392920065876822
30
-3.9066241600859535e-12
11
10.080973355292429
21
701.65486677646163
31
-4.9826863707963119e-11
0
LINE
5
127
100
AcDbEntity
8
BEND
100
AcDbLine
10
10.080973355292429
20
701.65486677646163
30
-4.9826863707963119e-11
11
10.080973355292429
21
721.91681348704606
31
-5.104977173288255e-11
0
LINE
5
128
100
AcDbEntity
8
BEND
100
AcDbLine
10
10.080973355292429
20
721.91681348704606
30
-5.104977173288255e-11
11
10.080973355292429
21
759.04778684233838
31
-5.3850531310594019e-11
0
LINE
5
129
100
AcDbEntity
8
BEND
100
AcDbLine
10
901.34292006587725
20
37.130973355292355
30
-4.2997971227179459e-12
11
901.34292006587725
21
0
31
-1.8121531522976431e-12
0
LINE
5
130
100
AcDbEntity
8
BEND
100
AcDbLine
10
901.34292006587759
20
57.392920065876822
30
-5.9611260645700443e-12
11
901.34292006587725
21
37.130973355292355
31
-4.2997971227179459e-12
0
LINE
5
131
100
AcDbEntity
8
BEND
100
AcDbLine
10
901.34292006587725
20
701.65486677646163
30
-5.1815656962535687e-11
11
901.34292006587759
21
57.392920065876822
31
-5.9611260645700443e-12
0
LINE
5
132
100
AcDbEntity
8
BEND
100
AcDbLine
10
901.34292006587725
20
721.91681348704606
30
-5.3038564987455125e-11
11
901.34292006587725
21
701.65486677646163
31
-5.1815656962535687e-11
0
LINE
5
133
100
AcDbEntity
8
BEND
100
AcDbLine
10
901.34292006587748
20
759.04778684233838
30
-5.584404301302125e-11
11
901.34292006587725
21
721.91681348704606
31
-5.3038564987455125e-11
0
LINE
5
134
100
AcDbEntity
8
BEND
100
AcDbLine
10
901.68642295013171
20
37.130973355292355
30
-4.1832203132332498e-12
11
9.7374704710381366
21
37.130973355292355
31
-2.6119147216257395e-12
0
LINE
5
135
100
AcDbEntity
8
BEND
100
AcDbLine
10
-10.180973355291911
20
94.623893421168503
30
-3.6989774354727909e-12
11
-10.180973355291911
21
664.42389342116985
31
-4.4253773258914559e-11
0
LINE
5
136
100
AcDbEntity
8
BEND
100
AcDbLine
10
901.68642295013206
20
57.392920065876822
30
-5.8961839190758361e-12
11
9.7374704710379945
21
57.392920065876822
31
-4.0151295496905171e-12
0
LINE
5
137
100
AcDbEntity
8
BEND
100
AcDbLine
10
9.7374704710379945
20
701.65486677646163
30
-4.9840700145211126e-11
11
901.68642295013183
21
701.65486677646163
31
-5.1822214220224159e-11
0
LINE
5
138
100
AcDbEntity
8
BEND
100
AcDbLine
10
9.7374704710379945
20
721.91681348704606
30
-5.0956670939155181e-11
11
901.6864229501316
21
721.91681348704606
31
-5.3053005765738952e-11
0
LINE
5
139
100
AcDbEntity
8
BEND_EXTENT
100
AcDbLine
10
-11.31194671058438
20
94.623893421168503
30
-3.5386973500519964e-12
11
-11.31194671058438
21
664.42389342116985
31
-4.4093493173493766e-11
0
LINE
5
140
100
AcDbEntity
8
BEND_EXTENT
100
AcDbLine
10
-9.0499999999994429
20
664.42389342116996
30
-4.3716623840467919e-11
11
-9.0499999999994429
21
94.623893421168432
31
-3.1618280170261434e-12
0
LINE
5
141
100
AcDbEntity
8
BEND_EXTENT
100
AcDbLine
10
902.47389342116981
20
56.191236032465866
30
-5.8412064983586938e-12
11
902.47389342116981
21
38.332657388703112
31
-4.2935603926935031e-12
0
LWPOLYLINE
5
142
100
AcDbEntity
8
BEND_EXTENT
100
AcDbPolyline
90
4
70
1
43
0.0
10
900.21194671058515
20
38.261946710584574
10
900.21194671058515
20
56.261946710584567
10
11.211946710584755
20
56.261946710584567
10
11.211946710584755
20
38.261946710584574
0
LINE
5
143
100
AcDbEntity
8
BEND_EXTENT
100
AcDbLine
10
902.47389342116958
20
700.45318274305055
30
-5.1668675710099115e-11
11
902.47389342116958
21
58.594604099287579
31
-5.985201500863768e-12
0
LWPOLYLINE
5
144
100
AcDbEntity
8
BEND_EXTENT
100
AcDbPolyline
90
4
70
1
43
0.0
10
900.21194671058515
20
58.523893421169149
10
900.21194671058515
20
700.5238934211693
10
11.211946710584755
20
700.5238934211693
10
11.211946710584755
20
58.523893421169078
0
LINE
5
145
100
AcDbEntity
8
BEND_EXTENT
100
AcDbLine
10
902.47389342116958
20
759.04778684233861
30
-5.5846566706743866e-11
11
902.47389342116958
21
723.11849752045737
31
-5.312808499330464e-11
0
LINE
5
146
100
AcDbEntity
8
BEND_EXTENT
100
AcDbLine
10
900.21194671058515
20
723.04778684233838
30
-5.3177679350165847e-11
11
900.21194671058515
21
759.04778684233838
31
-5.5828751754515457e-11
0
LINE
5
147
100
AcDbEntity
8
BEND_EXTENT
100
AcDbLine
10
11.211946710584755
20
723.04778684233838
30
-5.1202815267235474e-11
11
900.21194671058515
21
723.04778684233838
31
-5.3177679350165847e-11
0
LINE
5
148
100
AcDbEntity
8
BEND_EXTENT
100
AcDbLine
10
11.211946710584755
20
759.04778684233838
30
-5.3845005887388083e-11
11
11.211946710584755
21
723.04778684233838
31
-5.1202815267235474e-11
0
LINE
5
149
100
AcDbEntity
8
BEND_EXTENT
100
AcDbLine
10
8.9500000000001023
20
702.85655080987249
30
-4.99027906868237e-11
11
8.9500000000002444
21
720.71512945363543
31
-5.0889635387175115e-11
0
LWPOLYLINE
5
150
100
AcDbEntity
8
BEND_EXTENT
100
AcDbPolyline
90
4
70
1
43
0.0
10
11.211946710584755
20
720.78584013175373
10
11.211946710584755
20
702.78584013175396
10
900.21194671058515
20
702.78584013175396
10
900.21194671058515
20
720.78584013175373
0
LINE
5
151
100
AcDbEntity
8
BEND_EXTENT
100
AcDbLine
10
8.9500000000005286
20
38.332657388703183
30
-2.3219242111682346e-12
11
8.9500000000002444
21
56.191236032465795
31
-3.8772031001277128e-12
0
LINE
5
152
100
AcDbEntity
8
BEND_EXTENT
100
AcDbLine
10
8.9500000000003865
20
58.594604099287579
30
-4.0482597888580349e-12
11
8.9500000000003865
21
700.45318274305055
31
-4.9731733998093379e-11
0
LINE
5
153
100
AcDbEntity
8
BEND_EXTENT
100
AcDbLine
10
8.9500000000001023
20
0
30
-1.9971344781541816e-14
11
8.9500000000001023
21
35.929289321881086
31
-2.4350846167419304e-12
0
LINE
5
154
100
AcDbEntity
8
BEND_EXTENT
100
AcDbLine
10
11.211946710584755
20
35.999999999999943
30
-2.3030562003023066e-12
11
11.211946710584755
21
0
31
1.7926230430428551e-13
0
LINE
5
155
100
AcDbEntity
8
BEND_EXTENT
100
AcDbLine
10
900.21194671058515
20
35.999999999999943
30
-4.2779202832326792e-12
11
11.211946710584755
21
35.999999999999943
31
-2.3030562003023066e-12
0
LINE
5
156
100
AcDbEntity
8
BEND_EXTENT
100
AcDbLine
10
900.21194671058515
20
0
30
-1.8044835628230872e-12
11
900.21194671058515
21
35.999999999999943
31
-4.2779202832326792e-12
0
LINE
5
157
100
AcDbEntity
8
BEND_EXTENT
100
AcDbLine
10
8.9500000000002444
20
723.11849752045737
30
-5.1060692075905455e-11
11
8.9500000000002444
21
759.04778684233838
31
-5.3760022442169878e-11
0
LINE
5
158
100
AcDbEntity
8
BEND_EXTENT
100
AcDbLine
10
902.47389342116946
20
720.71512945363509
30
-5.2861271568700367e-11
11
902.47389342116981
21
702.85655080987249
31
-5.1866794085054674e-11
0
LINE
5
159
100
AcDbEntity
8
BEND_EXTENT
100
AcDbLine
10
902.47389342116958
20
35.929289321881086
30
-4.2129868804701143e-12
11
902.47389342116958
21
-3.5527136788005009e-14
31
-1.8103636175367557e-12
0
ENDSEC
0
SECTION
2
OBJECTS
0
DICTIONARY
5
C
100
AcDbDictionary
3
ACAD_GROUP
350
D
3
ACAD_MLINESTYLE
350
17
0
DICTIONARY
5
D
100
AcDbDictionary
0
DICTIONARY
5
1A
330
C
100
AcDbDictionary
0
DICTIONARY
5
17
100
AcDbDictionary
0
ENDSEC
0
EOF
