0
SECTION
2
HEADER
9
$INSUNITS
70
4
9
$ACADVER
1
AC1014
9
$HANDSEED
5
FFFF
0
ENDSEC
0
SECTION
2
TABLES
0
TABLE
2
VPORT
5
8
100
AcDbSymbolTable
0
ENDTAB
0
TABLE
2
LTYPE
5
5
100
AcDbSymbolTable
0
LTYPE
5
14
100
AcDbSymbolTableRecord
100
AcDbLinetypeTableRecord
2
BYBLOCK
70
0
0
LTYPE
5
15
100
AcDbSymbolTableRecord
100
AcDbLinetypeTableRecord
2
BYLAYER
70
0
0
LTYPE
5
16
100
AcDbSymbolTableRecord
100
AcDbLinetypeTableRecord
2
DASHED
70
0
3
Dashed __ __ __ __ __ __ __ __ __ __ __ __ __ _
72
65
73
2
40
0.75
49
0.5
74
0
49
-0.25
74
0
0
ENDTAB
0
TABLE
2
LAYER
5
2
100
AcDbSymbolTable
70
2
0
LAYER
5
50
100
AcDbSymbolTableRecord
100
AcDbLayerTableRecord
2
0
70
0
62
7
6
CONTINUOUS
0
ENDTAB
0
TABLE
2
STYLE
5
3
100
AcDbSymbolTable
70
1
0
STYLE
5
11
100
AcDbSymbolTableRecord
100
AcDbTextStyleTableRecord
2
STANDARD
70
0
0
ENDTAB
0
TABLE
2
VIEW
5
6
100
AcDbSymbolTable
70
0
0
ENDTAB
0
TABLE
2
UCS
5
7
100
AcDbSymbolTable
70
0
0
ENDTAB
0
TABLE
2
APPID
5
9
100
AcDbSymbolTable
70
2
0
APPID
5
12
100
AcDbSymbolTableRecord
100
AcDbRegAppTableRecord
2
ACAD
70
0
0
ENDTAB
0
TABLE
2
DIMSTYLE
5
A
100
AcDbSymbolTable
70
1
0
ENDTAB
0
TABLE
2
BLOCK_RECORD
5
1
100
AcDbSymbolTable
70
1
0
BLOCK_RECORD
5
1F
100
AcDbSymbolTableRecord
100
AcDbBlockTableRecord
2
*MODEL_SPACE
0
BLOCK_RECORD
5
1B
100
AcDbSymbolTableRecord
100
AcDbBlockTableRecord
2
*PAPER_SPACE
0
ENDTAB
0
ENDSEC
0
SECTION
2
BLOCKS
0
BLOCK
5
20
100
AcDbEntity
100
AcDbBlockBegin
2
*MODEL_SPACE
0
ENDBLK
5
21
100
AcDbEntity
100
AcDbBlockEnd
0
BLOCK
5
1C
100
AcDbEntity
100
AcDbBlockBegin
2
*PAPER_SPACE
0
ENDBLK
5
1D
100
AcDbEntity
100
AcDbBlockEnd
0
ENDSEC
0
SECTION
2
ENTITIES
0
LWPOLYLINE
5
100
100
AcDbEntity
8
OUTER_PROFILES
100
AcDbPolyline
90
32
70
1
43
0.0
10
783.71199151478834
20
22.023893421464251
10
780.40308934856375
20
21.12389342144013
10
765.45180952181659
20
21.123893421440592
42
-0.1357750992918533
10
763.67256527146242
20
21.61612171939241
10
762.45757316229731
20
22.02389342143924
10
765.13445752243933
20
19.761946710759659
10
775.07212206103327
20
8.5912890767688115
42
-0.18379179531039311
10
775.57784761753146
20
7.2619467107595357
10
773.35521329731
20
5.0000000000023093
10
768.35521329730955
20
6.5369931689929217e-12
10
0
20
0
10
-4.9999999999875655
20
4.9999999999927169
10
-7.0509294320411993
20
7.2619467107517242
42
-0.21412104552273303
10
-6.3802681888703301
20
8.7562188238359813
10
5.9909851951235993
20
19.761946710749996
10
9.0000000000091518
20
22.023893420541079
10
7.9530462529841266
20
21.730494615961064
42
-0.13254129055152686
10
5.7048981048343981
20
21.123893421467443
10
-10.853300970300097
20
21.123893420575328
10
-14.330239790178041
20
22.023893420533796
10
-19.330239790165606
20
27.023893421419558
10
-19.330239790180173
20
556.02389342143124
10
9.0000000000033964
20
556.02389342143124
10
9.0000000000037517
20
570.78584013171746
10
763.3552132973017
20
570.7858401317128
10
763.35521329730136
20
558.28584013171462
10
762.45757316229117
20
558.28584013171462
10
762.45757316229128
20
556.02389342143988
10
780.40308934855614
20
556.02389342144033
10
783.71199151482642
20
558.02389342144056
10
788.71199151482438
20
558.02389342144033
10
788.71199151483006
20
27.023893421437535
0
LWPOLYLINE
5
101
100
AcDbEntity
8
INTERIOR_PROFILES
100
AcDbPolyline
90
4
70
1
43
0.0
10
361.1776066500716
20
294.7738934235627
42
-0.99999999999999989
10
361.17760665004789
20
290.2738934235627
10
356.67760665004784
20
290.27389342358651
42
-0.99999999999999989
10
356.67760665007171
20
294.77389342358657
0
CIRCLE
5
102
100
AcDbEntity
8
INTERIOR_PROFILES
100
AcDbCircle
10
0.11045870180616646
20
407.02389342049941
30
0
40
1.7000000000000004
210
0
220
0
230
-1
0
CIRCLE
5
103
100
AcDbEntity
8
INTERIOR_PROFILES
100
AcDbCircle
10
-392.58686567824702
20
563.78583977945584
30
0
40
1.700000000000002
210
0
220
0
230
-1
0
CIRCLE
5
104
100
AcDbEntity
8
INTERIOR_PROFILES
100
AcDbCircle
10
0.11045870191864537
20
51.023893420266901
30
0
40
1.7000000000000004
210
0
220
0
230
-1
0
CIRCLE
5
105
100
AcDbEntity
8
INTERIOR_PROFILES
100
AcDbCircle
10
-742.58686567824714
20
563.78583977933863
30
0
40
1.6999999999999549
210
0
220
0
230
-1
0
CIRCLE
5
106
100
AcDbEntity
8
INTERIOR_PROFILES
100
AcDbCircle
10
0.11045870191288998
20
91.023893420266901
30
0
40
6.5000000000000018
210
0
220
0
230
-1
0
CIRCLE
5
107
100
AcDbEntity
8
INTERIOR_PROFILES
100
AcDbCircle
10
0.11045870173262529
20
553.023893419974
30
0
40
1.7000000000000004
210
0
220
0
230
-1
0
CIRCLE
5
108
100
AcDbEntity
8
INTERIOR_PROFILES
100
AcDbCircle
10
-772.0378279038307
20
538.69695047166942
30
0
40
1.7000000000003013
210
0
220
0
230
-1
0
CIRCLE
5
109
100
AcDbEntity
8
INTERIOR_PROFILES
100
AcDbCircle
10
-772.037827903064
20
163.69695047166948
30
0
40
1.7000000000003013
210
0
220
0
230
-1
0
CIRCLE
5
110
100
AcDbEntity
8
INTERIOR_PROFILES
100
AcDbCircle
10
-384.1776066501339
20
306.52389342344111
30
0
40
1.7000000000000171
210
0
220
0
230
-1
0
CIRCLE
5
111
100
AcDbEntity
8
INTERIOR_PROFILES
100
AcDbCircle
10
-42.586865678247037
20
563.78583977957317
30
0
40
1.6999999999999842
210
0
220
0
230
-1
0
CIRCLE
5
112
100
AcDbEntity
8
INTERIOR_PROFILES
100
AcDbCircle
10
-772.03782790331957
20
288.69695047166948
30
0
40
1.7000000000003013
210
0
220
0
230
-1
0
CIRCLE
5
113
100
AcDbEntity
8
INTERIOR_PROFILES
100
AcDbCircle
10
-384.17760664998588
20
278.52389342344111
30
0
40
1.7000000000000171
210
0
220
0
230
-1
0
CIRCLE
5
114
100
AcDbEntity
8
INTERIOR_PROFILES
100
AcDbCircle
10
-772.03782790357513
20
413.69695047166948
30
0
40
1.7000000000003013
210
0
220
0
230
-1
0
CIRCLE
5
115
100
AcDbEntity
8
INTERIOR_PROFILES
100
AcDbCircle
10
-385.56272135878157
20
13.511946710755254
30
0
40
4.9999999999999787
210
0
220
0
230
-1
0
CIRCLE
5
116
100
AcDbEntity
8
INTERIOR_PROFILES
100
AcDbCircle
10
-772.03782790280854
20
38.696950471669496
30
0
40
1.7000000000003013
210
0
220
0
230
-1
0
CIRCLE
5
117
100
AcDbEntity
8
INTERIOR_PROFILES
100
AcDbCircle
10
-217.58686567824699
20
563.7858397795145
30
0
40
1.6999999999999784
210
0
220
0
230
-1
0
CIRCLE
5
118
100
AcDbEntity
8
INTERIOR_PROFILES
100
AcDbCircle
10
0.11045870190756091
20
229.02389342026686
30
0
40
1.7000000000000004
210
0
220
0
230
-1
0
CIRCLE
5
119
100
AcDbEntity
8
INTERIOR_PROFILES
100
AcDbCircle
10
-567.58686567824714
20
563.78583977939729
30
0
40
1.6999999999999962
210
0
220
0
230
-1
0
LINE
5
120
100
AcDbEntity
8
BEND
100
AcDbLine
10
-6.0254647160152075
20
6.1309733553730439
30
-3.0174520583176377e-11
11
774.46653045742039
21
6.1309733553807533
31
-2.6905095410165416e-11
0
LINE
5
121
100
AcDbEntity
8
BEND
100
AcDbLine
10
7.4954925975672637
20
20.892920066090284
30
-1.401972154573463e-11
11
763.7960153423677
21
20.892920066099983
31
2.4965621879101855e-12
0
LINE
5
122
100
AcDbEntity
8
BEND
100
AcDbLine
10
-12.59177038024994
20
556.02389342143067
30
1.122153458128422e-09
11
-12.591770380238785
21
21.573893419649011
31
7.1891484899780472e-11
0
LINE
5
123
100
AcDbEntity
8
BEND
100
AcDbLine
10
763.06506918502578
20
21.820007581106289
30
2.4562479782807281e-11
11
763.06506918501952
21
556.02389342144022
31
1.124542124503734e-09
0
LINE
5
124
100
AcDbEntity
8
BEND
100
AcDbLine
10
782.05754013499825
20
21.573893340795891
30
2.7991211078783667e-11
11
782.05754013499188
21
557.02389324210696
31
1.127625376617088e-09
0
LINE
5
125
100
AcDbEntity
8
BEND
100
AcDbLine
10
8.4765231264966445
20
21.877194016915595
30
7.3808861899729157e-11
11
8.4765231264903207
21
556.02389342143135
31
1.1237447003368823e-09
0
LINE
5
126
100
AcDbEntity
8
BEND
100
AcDbLine
10
762.45757316229162
20
557.15486677658862
30
1.1229017640837478e-09
11
9.0000000000036096
21
557.1548667765785
31
1.1260710451900551e-09
0
LINE
5
127
100
AcDbEntity
8
BEND_EXTENT
100
AcDbLine
10
783.71199151482642
20
558.02389342144056
30
1.130012217803253e-09
11
783.71199151478834
21
22.023893421464251
31
2.7818326092189735e-11
0
LINE
5
128
100
AcDbEntity
8
BEND_EXTENT
100
AcDbLine
10
780.40308934856375
20
21.12389342144013
30
-2.642819515675977e-07
11
780.40308934855614
21
556.02389342144033
31
-5.2749462100555993e-07
0
LINE
5
129
100
AcDbEntity
8
BEND_EXTENT
100
AcDbLine
10
-10.853300970309263
20
556.02389342143101
30
1.1221304970711426e-09
11
-10.853300970300097
21
21.123893420575328
31
4.0968670338574573e-11
0
LINE
5
130
100
AcDbEntity
8
BEND_EXTENT
100
AcDbLine
10
-14.330239790178041
20
22.023893420533796
30
5.5703252660521829e-11
11
-14.330239790187704
21
556.02389342143078
31
1.1218371005317636e-09
0
LINE
5
131
100
AcDbEntity
8
BEND_EXTENT
100
AcDbLine
10
763.67256527145582
20
556.02389342144022
30
1.1248472483731484e-09
11
763.67256527146242
21
21.616121719392396
31
2.6632395982338172e-11
0
LWPOLYLINE
5
132
100
AcDbEntity
8
BEND_EXTENT
100
AcDbPolyline
90
4
70
1
43
0.0
10
762.45757316229731
20
22.02389342143924
10
762.45757316229128
20
556.02389342143988
10
9.0000000000033253
20
556.02389342143124
10
9.0000000000091518
20
22.023893420541114
0
LINE
5
133
100
AcDbEntity
8
BEND_EXTENT
100
AcDbLine
10
-7.0509294320429916
20
7.2619467107517011
30
-3.2693838761240215e-11
11
775.57784761753112
21
7.2619467107595881
31
-2.5434222740484682e-11
0
LINE
5
134
100
AcDbEntity
8
BEND_EXTENT
100
AcDbLine
10
773.35521329731
20
5.0000000000023093
30
-1.5273958706078246e-11
11
-4.9999999999874944
21
4.9999999999927169
31
-2.4651114483021821e-11
0
LINE
5
135
100
AcDbEntity
8
BEND_EXTENT
100
AcDbLine
10
765.13445752243933
20
19.761946710759659
30
8.9769788383715064e-12
11
5.9909851951235282
21
19.761946710749996
31
-1.0231003317374771e-11
0
LINE
5
136
100
AcDbEntity
8
BEND_EXTENT
100
AcDbLine
10
7.9530462529841373
20
21.730494615961042
30
4.9606258494788548e-11
11
7.9530462529783819
21
556.02389342143101
31
1.1236626578697552e-09
0
LINE
5
137
100
AcDbEntity
8
BEND_EXTENT
100
AcDbLine
10
9.0000000000036806
20
558.28584013171758
30
1.130827376183417e-09
11
762.45757316229117
21
558.28584013171462
31
1.1236643814440513e-09
0
ENDSEC
0
SECTION
2
OBJECTS
0
DICTIONARY
5
C
100
AcDbDictionary
3
ACAD_GROUP
350
D
3
ACAD_MLINESTYLE
350
17
0
DICTIONARY
5
D
100
AcDbDictionary
0
DICTIONARY
5
1A
330
C
100
AcDbDictionary
0
DICTIONARY
5
17
100
AcDbDictionary
0
ENDSEC
0
EOF
