0
SECTION
2
HEADER
9
$INSUNITS
70
4
9
$ACADVER
1
AC1014
9
$HANDSEED
5
FFFF
0
ENDSEC
0
SECTION
2
TABLES
0
TABLE
2
VPORT
5
8
100
AcDbSymbolTable
0
ENDTAB
0
TABLE
2
LTYPE
5
5
100
AcDbSymbolTable
0
LTYPE
5
14
100
AcDbSymbolTableRecord
100
AcDbLinetypeTableRecord
2
BYBLOCK
70
0
0
LTYPE
5
15
100
AcDbSymbolTableRecord
100
AcDbLinetypeTableRecord
2
BYLAYER
70
0
0
LTYPE
5
16
100
AcDbSymbolTableRecord
100
AcDbLinetypeTableRecord
2
DASHED
70
0
3
Dashed __ __ __ __ __ __ __ __ __ __ __ __ __ _
72
65
73
2
40
0.75
49
0.5
74
0
49
-0.25
74
0
0
ENDTAB
0
TABLE
2
LAYER
5
2
100
AcDbSymbolTable
70
2
0
LAYER
5
50
100
AcDbSymbolTableRecord
100
AcDbLayerTableRecord
2
0
70
0
62
7
6
CONTINUOUS
0
ENDTAB
0
TABLE
2
STYLE
5
3
100
AcDbSymbolTable
70
1
0
STYLE
5
11
100
AcDbSymbolTableRecord
100
AcDbTextStyleTableRecord
2
STANDARD
70
0
0
ENDTAB
0
TABLE
2
VIEW
5
6
100
AcDbSymbolTable
70
0
0
ENDTAB
0
TABLE
2
UCS
5
7
100
AcDbSymbolTable
70
0
0
ENDTAB
0
TABLE
2
APPID
5
9
100
AcDbSymbolTable
70
2
0
APPID
5
12
100
AcDbSymbolTableRecord
100
AcDbRegAppTableRecord
2
ACAD
70
0
0
ENDTAB
0
TABLE
2
DIMSTYLE
5
A
100
AcDbSymbolTable
70
1
0
ENDTAB
0
TABLE
2
BLOCK_RECORD
5
1
100
AcDbSymbolTable
70
1
0
BLOCK_RECORD
5
1F
100
AcDbSymbolTableRecord
100
AcDbBlockTableRecord
2
*MODEL_SPACE
0
BLOCK_RECORD
5
1B
100
AcDbSymbolTableRecord
100
AcDbBlockTableRecord
2
*PAPER_SPACE
0
ENDTAB
0
ENDSEC
0
SECTION
2
BLOCKS
0
BLOCK
5
20
100
AcDbEntity
100
AcDbBlockBegin
2
*MODEL_SPACE
0
ENDBLK
5
21
100
AcDbEntity
100
AcDbBlockEnd
0
BLOCK
5
1C
100
AcDbEntity
100
AcDbBlockBegin
2
*PAPER_SPACE
0
ENDBLK
5
1D
100
AcDbEntity
100
AcDbBlockEnd
0
ENDSEC
0
SECTION
2
ENTITIES
0
LWPOLYLINE
5
100
100
AcDbEntity
8
OUTER_PROFILES
100
AcDbPolyline
90
32
70
1
43
0.0
10
-12.047876051252686
20
21.123893502147126
10
-15.356777920823674
20
22.023893421462937
10
-20.356778217520812
20
27.023893421436185
10
-20.356778217515625
20
558.02389342143908
10
-15.356778217517757
20
558.02389342143908
10
-12.04787605124686
20
556.02389342143908
10
5.897640135017852
20
556.02389342143874
10
5.8976401350176388
20
558.28584013173804
10
5.0000000000072475
20
558.28584013173793
10
5.0000000000071054
20
570.78584013173599
10
759.35521329730693
20
570.7858401317535
10
759.35521329730534
20
556.02389342143056
10
787.6854530874889
20
556.02389342143078
10
787.68545308747491
20
27.023893421419132
10
782.6854533841406
20
22.023893420532374
10
779.20851426760964
20
21.123893343787437
10
762.65031519247509
20
21.123893421469436
42
-0.13254129290633065
10
760.40216700857013
20
21.730494636773187
10
759.35521359395534
20
22.023893420540546
10
762.36422810218573
20
19.761946710750244
10
774.73548148617965
20
8.756218823836182
42
-0.21412104552275532
10
775.40614272935045
20
7.2619467107517472
10
773.35521329729681
20
4.9999999999890576
10
768.35521329730921
20
-6.5014660322049167e-12
10
0
20
0
10
-5.0000000000024158
20
4.9999999999985434
10
-7.2226343202220269
20
7.2619467107598465
42
-0.18379179531038312
10
-6.7169087637238887
20
8.5912890767690691
10
3.2207557748700566
20
19.761946710759872
10
5.8976404316675257
20
22.023893421437428
10
4.6826481042116939
20
21.616121410857531
42
-0.13577505514088334
10
2.9034043688037396
20
21.123893421460874
0
LWPOLYLINE
5
101
100
AcDbEntity
8
INTERIOR_PROFILES
100
AcDbPolyline
90
4
70
1
43
0.0
10
407.17760664726131
20
290.27389342356366
10
411.67760664726137
20
290.27389342358754
42
0.99999999999999989
10
411.6776066472375
20
294.77389342358759
10
407.17760664723755
20
294.77389342356372
42
0.99999999999999989
0
CIRCLE
5
102
100
AcDbEntity
8
INTERIOR_PROFILES
100
AcDbCircle
10
3.6826140132109231
20
538.69695047166817
30
0
40
1.700000000000299
210
0
220
0
230
-1
0
CIRCLE
5
103
100
AcDbEntity
8
INTERIOR_PROFILES
100
AcDbCircle
10
-384.17760664732339
20
278.52389342344208
30
0
40
1.7000000000000171
210
0
220
0
230
-1
0
CIRCLE
5
104
100
AcDbEntity
8
INTERIOR_PROFILES
100
AcDbCircle
10
-384.1776066471752
20
306.52389342344208
30
0
40
1.7000000000000171
210
0
220
0
230
-1
0
CIRCLE
5
105
100
AcDbEntity
8
INTERIOR_PROFILES
100
AcDbCircle
10
3.6826140124438211
20
163.69695047166823
30
0
40
1.700000000000299
210
0
220
0
230
-1
0
CIRCLE
5
106
100
AcDbEntity
8
INTERIOR_PROFILES
100
AcDbCircle
10
3.6826140129551987
20
413.69695047166823
30
0
40
1.700000000000299
210
0
220
0
230
-1
0
CIRCLE
5
107
100
AcDbEntity
8
INTERIOR_PROFILES
100
AcDbCircle
10
3.6826140121881679
20
38.696950471668181
30
0
40
1.700000000000299
210
0
220
0
230
-1
0
CIRCLE
5
108
100
AcDbEntity
8
INTERIOR_PROFILES
100
AcDbCircle
10
-768.46567199922174
20
91.023893420264343
30
0
40
6.5000000000000568
210
0
220
0
230
-1
0
CIRCLE
5
109
100
AcDbEntity
8
INTERIOR_PROFILES
100
AcDbCircle
10
3.6826140126995455
20
288.69695047166817
30
0
40
1.700000000000299
210
0
220
0
230
-1
0
CIRCLE
5
110
100
AcDbEntity
8
INTERIOR_PROFILES
100
AcDbCircle
10
-382.79249193852922
20
13.511946710754081
30
0
40
5.0000000000000009
210
0
220
0
230
-1
0
CIRCLE
5
111
100
AcDbEntity
8
INTERIOR_PROFILES
100
AcDbCircle
10
-768.46567199922765
20
51.023893420268891
30
0
40
1.7000000000000171
210
0
220
0
230
-1
0
CIRCLE
5
112
100
AcDbEntity
8
INTERIOR_PROFILES
100
AcDbCircle
10
-768.46567199921628
20
229.02389342026885
30
0
40
1.7000000000000171
210
0
220
0
230
-1
0
CIRCLE
5
113
100
AcDbEntity
8
INTERIOR_PROFILES
100
AcDbCircle
10
-550.76834761906014
20
563.78583977951791
30
0
40
1.6999999999999962
210
0
220
0
230
-1
0
CIRCLE
5
114
100
AcDbEntity
8
INTERIOR_PROFILES
100
AcDbCircle
10
-375.76834761906008
20
563.78583977945618
30
0
40
1.700000000000002
210
0
220
0
230
-1
0
CIRCLE
5
115
100
AcDbEntity
8
INTERIOR_PROFILES
100
AcDbCircle
10
-25.768347619059924
20
563.78583977933317
30
0
40
1.6999999999999962
210
0
220
0
230
-1
0
CIRCLE
5
116
100
AcDbEntity
8
INTERIOR_PROFILES
100
AcDbCircle
10
-768.46567199911465
20
407.02389342050139
30
0
40
1.7000000000000171
210
0
220
0
230
-1
0
CIRCLE
5
117
100
AcDbEntity
8
INTERIOR_PROFILES
100
AcDbCircle
10
-768.46567199904086
20
553.02389341997593
30
0
40
1.7000000000000171
210
0
220
0
230
-1
0
CIRCLE
5
118
100
AcDbEntity
8
INTERIOR_PROFILES
100
AcDbCircle
10
-725.76834761906014
20
563.78583977957942
30
0
40
1.6999999999999549
210
0
220
0
230
-1
0
CIRCLE
5
119
100
AcDbEntity
8
INTERIOR_PROFILES
100
AcDbCircle
10
-200.76834761906019
20
563.78583977939468
30
0
40
1.7000000000000197
210
0
220
0
230
-1
0
LINE
5
120
100
AcDbEntity
8
BEND
100
AcDbLine
10
780.94698367755859
20
556.02389342143033
30
-1.1136791622695491e-09
11
780.94698367754802
21
21.573893266071167
31
-6.4985889477789989e-11
0
LINE
5
121
100
AcDbEntity
8
BEND
100
AcDbLine
10
759.87869017081243
20
21.877194183184905
30
-6.2667958582727182e-11
11
759.87869017081812
21
556.02389342143101
31
-1.1132121400406538e-09
0
LINE
5
122
100
AcDbEntity
8
BEND
100
AcDbLine
10
774.38067801332409
20
6.1309733553717294
30
6.1792421448014238e-11
11
-6.1113171601104455
21
6.1309733553794388
31
3.284856664316016e-11
0
LINE
5
123
100
AcDbEntity
8
BEND
100
AcDbLine
10
-13.702327134386962
20
21.5738935828713
30
-4.0002699947149071e-12
11
-13.702327134381278
21
557.02389342143852
31
-1.1052734161056161e-09
0
LINE
5
124
100
AcDbEntity
8
BEND
100
AcDbLine
10
5.8976401350171415
20
557.15486677658896
30
-1.1159695690182582e-09
11
759.35521329730727
21
557.15486677657839
31
-1.1151836792203872e-09
0
LINE
5
125
100
AcDbEntity
8
BEND
100
AcDbLine
10
760.85972069974309
20
20.892920066089928
30
2.4432842781891513e-11
11
4.5591979549411121
21
20.892920066099379
31
7.9331218767625493e-12
0
LINE
5
126
100
AcDbEntity
8
BEND
100
AcDbLine
10
5.290144112283528
20
21.820007381979956
30
-1.4747404457607351e-11
11
5.2901441122892123
21
556.02389342143908
31
-1.1139947142043867e-09
0
LINE
5
127
100
AcDbEntity
8
BEND_EXTENT
100
AcDbLine
10
-12.04787605124686
20
556.02389342143908
30
5.2751637237941763e-07
11
-12.047876051252686
21
21.123893502147126
31
2.6430604773248352e-07
0
LINE
5
128
100
AcDbEntity
8
BEND_EXTENT
100
AcDbLine
10
-15.356777920823674
20
22.023893421462937
30
-5.9600034855713497e-12
11
-15.356778217517757
21
558.02389342143908
31
-1.1062354297865831e-09
0
LINE
5
129
100
AcDbEntity
8
BEND_EXTENT
100
AcDbLine
10
4.6826480258476977
20
21.616121541647928
30
-1.5469966348651506e-11
11
4.6826480258537373
21
556.02389342143874
31
-1.1138269272866142e-09
0
LINE
5
130
100
AcDbEntity
8
BEND_EXTENT
100
AcDbLine
10
773.35521329729681
20
4.9999999999890576
30
3.9067755176744803e-11
11
-5.0000000000024158
21
4.9999999999985434
31
3.2441549446815737e-11
0
LINE
5
131
100
AcDbEntity
8
BEND_EXTENT
100
AcDbLine
10
782.68545308749617
20
556.02389342143033
30
-1.113603217503858e-09
11
782.6854533841406
21
22.023893420532374
31
-3.9937616657057905e-11
0
LINE
5
132
100
AcDbEntity
8
BEND_EXTENT
100
AcDbLine
10
-7.2226343202219567
20
7.2619467107598368
30
4.7214548891392032e-11
11
775.40614272935045
21
7.2619467107518076
31
5.5736273059393462e-11
0
LINE
5
133
100
AcDbEntity
8
BEND_EXTENT
100
AcDbLine
10
762.36422810218573
20
19.761946710750244
30
2.0109122505950349e-11
11
3.2207557748701277
21
19.761946710759872
31
9.648660486838945e-13
0
LINE
5
134
100
AcDbEntity
8
BEND_EXTENT
100
AcDbLine
10
779.20851426760964
20
21.123893343787437
30
-3.2414657061823176e-11
11
779.20851426761806
21
556.02389342143033
31
-1.1136830652047555e-09
0
LWPOLYLINE
5
135
100
AcDbEntity
8
BEND_EXTENT
100
AcDbPolyline
90
4
70
1
43
0.0
10
5.897640135017852
20
556.02389342143874
10
5.8976404316675257
20
22.023893421437464
10
759.35521359395534
20
22.023893420540546
10
759.35521329730534
20
556.02389342143056
0
LINE
5
136
100
AcDbEntity
8
BEND_EXTENT
100
AcDbLine
10
5.8976401350176388
20
558.28584013173804
30
-1.1120047067865543e-09
11
759.35521329730705
21
558.28584013175339
31
-1.1193934606676525e-09
0
LINE
5
137
100
AcDbEntity
8
BEND_EXTENT
100
AcDbLine
10
760.40216704432532
20
21.73049469820608
30
-3.2559171601734302e-11
11
760.40216704433055
21
556.02389342143056
31
-1.1131525641456943e-09
0
ENDSEC
0
SECTION
2
OBJECTS
0
DICTIONARY
5
C
100
AcDbDictionary
3
ACAD_GROUP
350
D
3
ACAD_MLINESTYLE
350
17
0
DICTIONARY
5
D
100
AcDbDictionary
0
DICTIONARY
5
1A
330
C
100
AcDbDictionary
0
DICTIONARY
5
17
100
AcDbDictionary
0
ENDSEC
0
EOF
