0
SECTION
2
HEADER
9
$INSUNITS
70
4
9
$ACADVER
1
AC1014
9
$HANDSEED
5
FFFF
0
ENDSEC
0
SECTION
2
TABLES
0
TABLE
2
VPORT
5
8
100
AcDbSymbolTable
0
ENDTAB
0
TABLE
2
LTYPE
5
5
100
AcDbSymbolTable
0
LTYPE
5
14
100
AcDbSymbolTableRecord
100
AcDbLinetypeTableRecord
2
BYBLOCK
70
0
0
LTYPE
5
15
100
AcDbSymbolTableRecord
100
AcDbLinetypeTableRecord
2
BYLAYER
70
0
0
LTYPE
5
16
100
AcDbSymbolTableRecord
100
AcDbLinetypeTableRecord
2
DASHED
70
0
3
Dashed __ __ __ __ __ __ __ __ __ __ __ __ __ _
72
65
73
2
40
0.75
49
0.5
74
0
49
-0.25
74
0
0
ENDTAB
0
TABLE
2
LAYER
5
2
100
AcDbSymbolTable
70
2
0
LAYER
5
50
100
AcDbSymbolTableRecord
100
AcDbLayerTableRecord
2
0
70
0
62
7
6
CONTINUOUS
0
ENDTAB
0
TABLE
2
STYLE
5
3
100
AcDbSymbolTable
70
1
0
STYLE
5
11
100
AcDbSymbolTableRecord
100
AcDbTextStyleTableRecord
2
STANDARD
70
0
0
ENDTAB
0
TABLE
2
VIEW
5
6
100
AcDbSymbolTable
70
0
0
ENDTAB
0
TABLE
2
UCS
5
7
100
AcDbSymbolTable
70
0
0
ENDTAB
0
TABLE
2
APPID
5
9
100
AcDbSymbolTable
70
2
0
APPID
5
12
100
AcDbSymbolTableRecord
100
AcDbRegAppTableRecord
2
ACAD
70
0
0
ENDTAB
0
TABLE
2
DIMSTYLE
5
A
100
AcDbSymbolTable
70
1
0
ENDTAB
0
TABLE
2
BLOCK_RECORD
5
1
100
AcDbSymbolTable
70
1
0
BLOCK_RECORD
5
1F
100
AcDbSymbolTableRecord
100
AcDbBlockTableRecord
2
*MODEL_SPACE
0
BLOCK_RECORD
5
1B
100
AcDbSymbolTableRecord
100
AcDbBlockTableRecord
2
*PAPER_SPACE
0
ENDTAB
0
ENDSEC
0
SECTION
2
BLOCKS
0
BLOCK
5
20
100
AcDbEntity
100
AcDbBlockBegin
2
*MODEL_SPACE
0
ENDBLK
5
21
100
AcDbEntity
100
AcDbBlockEnd
0
BLOCK
5
1C
100
AcDbEntity
100
AcDbBlockBegin
2
*PAPER_SPACE
0
ENDBLK
5
1D
100
AcDbEntity
100
AcDbBlockEnd
0
ENDSEC
0
SECTION
2
ENTITIES
0
LWPOLYLINE
5
100
100
AcDbEntity
8
OUTER_PROFILES
100
AcDbPolyline
90
30
70
1
43
0.0
10
2.4238665741057477
20
3.8380801364788653
10
-0.070710678118656722
20
6.3326573887032822
10
-0.070710678118656722
20
24.191236032465966
10
2.4238665741056984
20
26.685813284690415
42
0.41421356237309731
10
2.4238665741056988
20
28.100026847063514
10
-0.070710678118661718
20
30.594604099287892
10
-4.0707106781186617
20
30.594604099287892
10
-4.0707106781186617
20
390.52389342116925
10
1.9292893218813378
20
390.52389342116925
10
4.1912360324659037
20
390.52389342116925
10
4.1912360324653344
20
402.04778684233861
42
0.41421356237310336
10
14.191236032465548
20
412.0477868423385
10
14.191236032465611
20
422.04778684233861
10
990.19123603246612
20
422.0477868423385
10
990.19123603246612
20
412.0477868423385
42
0.41421356237309503
10
1000.1912360324661
20
402.0477868423385
10
1000.1912360324661
20
390.52389342116925
10
1002.4531827430502
20
390.52389342116925
10
1008.4531827430503
20
390.52389342116925
10
1008.4531827430503
20
30.594604099287892
10
1004.4531827430502
20
30.594604099287892
10
1001.9586054908261
20
28.100026847063475
42
0.414213562373073
10
1001.9586054908261
20
26.685813284690418
10
1004.4531827430505
20
24.191236032465966
10
1004.4531827430505
20
6.3326573887032822
10
1001.9586054908261
20
3.8380801364788653
42
0.41421356237315071
10
1001.9586054908261
20
2.4238665741057175
10
1004.3824720649318
20
0
10
0
20
0
10
2.4238665741057321
20
2.4238665741057162
42
0.41421356237311097
0
CIRCLE
5
101
100
AcDbEntity
8
INTERIOR_PROFILES
100
AcDbCircle
10
-502.19123603246601
20
412.04778684233844
30
0
40
1.7000000000000171
210
0
220
0
230
-1
0
CIRCLE
5
102
100
AcDbEntity
8
INTERIOR_PROFILES
100
AcDbCircle
10
-502.19123603246595
20
34.523893421169234
30
0
40
1.7000000000000171
210
0
220
0
230
-1
0
CIRCLE
5
103
100
AcDbEntity
8
INTERIOR_PROFILES
100
AcDbCircle
10
-302.19123603246601
20
412.04778684233844
30
0
40
1.7000000000000171
210
0
220
0
230
-1
0
CIRCLE
5
104
100
AcDbEntity
8
INTERIOR_PROFILES
100
AcDbCircle
10
-102.19123603246601
20
412.04778684233844
30
0
40
1.7000000000000171
210
0
220
0
230
-1
0
CIRCLE
5
105
100
AcDbEntity
8
INTERIOR_PROFILES
100
AcDbCircle
10
-702.19123603246601
20
412.04778684233844
30
0
40
1.7000000000000171
210
0
220
0
230
-1
0
CIRCLE
5
106
100
AcDbEntity
8
INTERIOR_PROFILES
100
AcDbCircle
10
-402.19123603246595
20
34.523893421169234
30
0
40
1.7000000000000171
210
0
220
0
230
-1
0
CIRCLE
5
107
100
AcDbEntity
8
INTERIOR_PROFILES
100
AcDbCircle
10
-368.69123603246601
20
17.261946710584652
30
0
40
1.6999999999999993
210
0
220
0
230
-1
0
CIRCLE
5
108
100
AcDbEntity
8
INTERIOR_PROFILES
100
AcDbCircle
10
-387.69123603246589
20
8.2619467105845956
30
0
40
4
210
0
220
0
230
-1
0
CIRCLE
5
109
100
AcDbEntity
8
INTERIOR_PROFILES
100
AcDbCircle
10
-302.19123603246595
20
34.523893421169234
30
0
40
1.7000000000000171
210
0
220
0
230
-1
0
CIRCLE
5
110
100
AcDbEntity
8
INTERIOR_PROFILES
100
AcDbCircle
10
-802.19123603246601
20
34.523893421169234
30
0
40
1.7000000000000171
210
0
220
0
230
-1
0
CIRCLE
5
111
100
AcDbEntity
8
INTERIOR_PROFILES
100
AcDbCircle
10
-58.691236032466072
20
17.261946710584652
30
0
40
1.6999999999999993
210
0
220
0
230
-1
0
CIRCLE
5
112
100
AcDbEntity
8
INTERIOR_PROFILES
100
AcDbCircle
10
-702.19123603246601
20
34.523893421169234
30
0
40
1.7000000000000171
210
0
220
0
230
-1
0
CIRCLE
5
113
100
AcDbEntity
8
INTERIOR_PROFILES
100
AcDbCircle
10
-213.69123603246601
20
17.261946710584652
30
0
40
1.6999999999999993
210
0
220
0
230
-1
0
CIRCLE
5
114
100
AcDbEntity
8
INTERIOR_PROFILES
100
AcDbCircle
10
-902.19123603246601
20
34.523893421169234
30
0
40
1.7000000000000171
210
0
220
0
230
-1
0
CIRCLE
5
115
100
AcDbEntity
8
INTERIOR_PROFILES
100
AcDbCircle
10
-102.19123603246594
20
34.523893421169234
30
0
40
1.6999999999999993
210
0
220
0
230
-1
0
CIRCLE
5
116
100
AcDbEntity
8
INTERIOR_PROFILES
100
AcDbCircle
10
-602.19123603246589
20
34.523893421169234
30
0
40
1.7000000000000171
210
0
220
0
230
-1
0
CIRCLE
5
117
100
AcDbEntity
8
INTERIOR_PROFILES
100
AcDbCircle
10
-202.19123603246595
20
34.523893421169234
30
0
40
1.7000000000000171
210
0
220
0
230
-1
0
CIRCLE
5
118
100
AcDbEntity
8
INTERIOR_PROFILES
100
AcDbCircle
10
-902.19123603246601
20
412.04778684233844
30
0
40
1.7000000000000171
210
0
220
0
230
-1
0
CIRCLE
5
119
100
AcDbEntity
8
INTERIOR_PROFILES
100
AcDbCircle
10
-802.19123603246601
20
412.04778684233844
30
0
40
1.7000000000000171
210
0
220
0
230
-1
0
CIRCLE
5
120
100
AcDbEntity
8
INTERIOR_PROFILES
100
AcDbCircle
10
-202.19123603246601
20
412.04778684233844
30
0
40
1.7000000000000171
210
0
220
0
230
-1
0
CIRCLE
5
121
100
AcDbEntity
8
INTERIOR_PROFILES
100
AcDbCircle
10
-402.19123603246601
20
412.04778684233844
30
0
40
1.7000000000000171
210
0
220
0
230
-1
0
CIRCLE
5
122
100
AcDbEntity
8
INTERIOR_PROFILES
100
AcDbCircle
10
-602.19123603246601
20
412.04778684233844
30
0
40
1.7000000000000171
210
0
220
0
230
-1
0
LINE
5
123
100
AcDbEntity
8
BEND
100
AcDbLine
10
1001.3222093877583
20
0
30
6.2399510075511277e-11
11
1001.3222093877583
21
3.1309733552922836
31
6.2456994803592724e-11
0
LINE
5
124
100
AcDbEntity
8
BEND
100
AcDbLine
10
1001.3222093877583
20
3.1309733552922836
30
6.2456994803592724e-11
11
1001.3222093877582
21
27.392920065876964
31
6.2445020140787713e-11
0
LINE
5
125
100
AcDbEntity
8
BEND
100
AcDbLine
10
1001.3222093877582
20
27.392920065876964
30
6.2445020140787713e-11
11
1001.3222093877586
21
390.52389342116925
31
6.2189619653884943e-11
0
LINE
5
126
100
AcDbEntity
8
BEND
100
AcDbLine
10
3.0602626771736485
20
3.1309733552922836
30
2.5052048022291744e-13
11
3.0602626771736485
21
0
31
1.9081530609222777e-13
0
LINE
5
127
100
AcDbEntity
8
BEND
100
AcDbLine
10
3.0602626771736485
20
27.392920065876964
30
2.385458174179129e-13
11
3.0602626771736485
21
3.1309733552922836
31
2.5052048022291744e-13
0
LINE
5
128
100
AcDbEntity
8
BEND
100
AcDbLine
10
3.0602626771736485
20
390.52389342116925
30
1.8298547494765364e-13
11
3.0602626771736485
21
27.392920065876964
31
2.385458174179129e-13
0
LINE
5
129
100
AcDbEntity
8
BEND
100
AcDbLine
10
4.1912360324653353
20
400.91681348704617
30
-1.1584298023862268e-13
11
1000.1912360324661
21
400.91681348704617
31
6.1949678629831408e-11
0
LINE
5
130
100
AcDbEntity
8
BEND
100
AcDbLine
10
2.7167597929192211
20
3.1309733552922836
30
1.8186724296790632e-13
11
1001.6657122720126
21
3.1309733552922836
31
6.2447998729036973e-11
0
LINE
5
131
100
AcDbEntity
8
BEND
100
AcDbLine
10
2.7167597929191807
20
27.392920065876964
30
9.1021503997250833e-15
11
1001.6657122720126
21
27.392920065876964
31
6.2266310962156776e-11
0
LINE
5
132
100
AcDbEntity
8
BEND
100
AcDbLine
10
1000.1912360324667
20
391.65486677646157
30
6.2390048799872724e-11
11
4.1912360324658948
21
391.65486677646157
31
3.3784986609819501e-13
0
LINE
5
133
100
AcDbEntity
8
BEND_EXTENT
100
AcDbLine
10
4.1912360324653353
20
402.0477868423385
30
-1.5443218468785555e-13
11
1000.1912360324661
21
402.0477868423385
31
6.1911089425382177e-11
0
LINE
5
134
100
AcDbEntity
8
BEND_EXTENT
100
AcDbLine
10
1000.1912360324661
20
399.78584013175396
30
6.2020979335561828e-11
11
4.1912360324658948
21
399.78584013175396
31
-4.4542274508174716e-14
0
LINE
5
135
100
AcDbEntity
8
BEND_EXTENT
100
AcDbLine
10
4.1912360324659037
20
392.78584013175396
30
3.1066048662399593e-13
11
1000.1912360324667
21
392.78584013175396
31
6.2305127823118032e-11
0
LWPOLYLINE
5
136
100
AcDbEntity
8
BEND_EXTENT
100
AcDbPolyline
90
4
70
1
43
0.0
10
1000.1912360324661
20
390.52389342116925
10
4.1912360324658948
20
390.52389342116925
10
4.1912360324659037
20
28.523893421169291
10
1000.1912360324661
20
28.523893421169291
0
LWPOLYLINE
5
137
100
AcDbEntity
8
BEND_EXTENT
100
AcDbPolyline
90
5
70
1
43
0.0
10
4.1912360324659037
20
26.261946710584638
10
4.1912360324659037
20
4.2619467105846098
10
387.69123603246589
20
4.2619467105846098
10
1000.1912360324661
20
4.2619467105846098
10
1000.1912360324661
20
26.261946710584638
0
LINE
5
138
100
AcDbEntity
8
BEND_EXTENT
100
AcDbLine
10
1.9292893218813467
20
0
30
1.2020027038862948e-13
11
1.9292893218813467
21
1.9292893218813134
31
1.1992168741902023e-13
0
LINE
5
139
100
AcDbEntity
8
BEND_EXTENT
100
AcDbLine
10
4.1912360324659037
20
1.9999999999999574
30
3.1793263892598157e-13
11
4.1912360324659037
21
0
31
3.1791303699801521e-13
0
LINE
5
140
100
AcDbEntity
8
BEND_EXTENT
100
AcDbLine
10
1000.1912360324661
20
1.9999999999999574
30
6.2383454248995981e-11
11
4.1912360324659037
21
1.9999999999999574
31
3.1793263892598157e-13
0
LINE
5
141
100
AcDbEntity
8
BEND_EXTENT
100
AcDbLine
10
1000.1912360324661
20
0
30
6.2383434647068019e-11
11
1000.1912360324661
21
1.9999999999999574
31
6.2383454248995981e-11
0
LINE
5
142
100
AcDbEntity
8
BEND_EXTENT
100
AcDbLine
10
1.9292893218813378
20
28.594604099287935
30
1.0896967107514869e-13
11
1.9292893218813378
21
390.52389342116925
31
1.125169270042484e-13
0
LINE
5
143
100
AcDbEntity
8
BEND_EXTENT
100
AcDbLine
10
1002.4531827430505
20
26.191236032465923
30
6.2513541829482599e-11
11
1002.4531827430505
21
4.3326573887032538
31
6.251332759434058e-11
0
LINE
5
144
100
AcDbEntity
8
BEND_EXTENT
100
AcDbLine
10
1002.4531827430502
20
390.52389342116925
30
6.1948678452127465e-11
11
1002.4531827430503
21
28.594604099287935
31
6.2229348290502406e-11
0
LINE
5
145
100
AcDbEntity
8
BEND_EXTENT
100
AcDbLine
10
1002.4531827430503
20
1.9292893218813134
30
6.23711954918647e-11
11
1002.4531827430503
21
0
31
6.2371176582969541e-11
0
LINE
5
146
100
AcDbEntity
8
BEND_EXTENT
100
AcDbLine
10
1.9292893218813412
20
4.3326573887033248
30
1.1993593071584339e-13
11
1.9292893218813414
21
26.191236032465994
31
1.083532713390213e-13
0
ENDSEC
0
SECTION
2
OBJECTS
0
DICTIONARY
5
C
100
AcDbDictionary
3
ACAD_GROUP
350
D
3
ACAD_MLINESTYLE
350
17
0
DICTIONARY
5
D
100
AcDbDictionary
0
DICTIONARY
5
1A
330
C
100
AcDbDictionary
0
DICTIONARY
5
17
100
AcDbDictionary
0
ENDSEC
0
EOF
