0
SECTION
2
HEADER
9
$INSUNITS
70
4
9
$ACADVER
1
AC1014
9
$HANDSEED
5
FFFF
0
ENDSEC
0
SECTION
2
TABLES
0
TABLE
2
VPORT
5
8
100
AcDbSymbolTable
0
ENDTAB
0
TABLE
2
LTYPE
5
5
100
AcDbSymbolTable
0
LTYPE
5
14
100
AcDbSymbolTableRecord
100
AcDbLinetypeTableRecord
2
BYBLOCK
70
0
0
LTYPE
5
15
100
AcDbSymbolTableRecord
100
AcDbLinetypeTableRecord
2
BYLAYER
70
0
0
LTYPE
5
16
100
AcDbSymbolTableRecord
100
AcDbLinetypeTableRecord
2
DASHED
70
0
3
Dashed __ __ __ __ __ __ __ __ __ __ __ __ __ _
72
65
73
2
40
0.75
49
0.5
74
0
49
-0.25
74
0
0
ENDTAB
0
TABLE
2
LAYER
5
2
100
AcDbSymbolTable
70
2
0
LAYER
5
50
100
AcDbSymbolTableRecord
100
AcDbLayerTableRecord
2
0
70
0
62
7
6
CONTINUOUS
0
ENDTAB
0
TABLE
2
STYLE
5
3
100
AcDbSymbolTable
70
1
0
STYLE
5
11
100
AcDbSymbolTableRecord
100
AcDbTextStyleTableRecord
2
STANDARD
70
0
0
ENDTAB
0
TABLE
2
VIEW
5
6
100
AcDbSymbolTable
70
0
0
ENDTAB
0
TABLE
2
UCS
5
7
100
AcDbSymbolTable
70
0
0
ENDTAB
0
TABLE
2
APPID
5
9
100
AcDbSymbolTable
70
2
0
APPID
5
12
100
AcDbSymbolTableRecord
100
AcDbRegAppTableRecord
2
ACAD
70
0
0
ENDTAB
0
TABLE
2
DIMSTYLE
5
A
100
AcDbSymbolTable
70
1
0
ENDTAB
0
TABLE
2
BLOCK_RECORD
5
1
100
AcDbSymbolTable
70
1
0
BLOCK_RECORD
5
1F
100
AcDbSymbolTableRecord
100
AcDbBlockTableRecord
2
*MODEL_SPACE
0
BLOCK_RECORD
5
1B
100
AcDbSymbolTableRecord
100
AcDbBlockTableRecord
2
*PAPER_SPACE
0
ENDTAB
0
ENDSEC
0
SECTION
2
BLOCKS
0
BLOCK
5
20
100
AcDbEntity
100
AcDbBlockBegin
2
*MODEL_SPACE
0
ENDBLK
5
21
100
AcDbEntity
100
AcDbBlockEnd
0
BLOCK
5
1C
100
AcDbEntity
100
AcDbBlockBegin
2
*PAPER_SPACE
0
ENDBLK
5
1D
100
AcDbEntity
100
AcDbBlockEnd
0
ENDSEC
0
SECTION
2
ENTITIES
0
ARC
5
100
100
AcDbEntity
8
OUTER_PROFILES
100
AcDbCircle
10
-398.99999999959959
20
121.04778684267498
30
0
40
2.0000000000000284
210
-0
220
0
230
-1
100
AcDbArc
50
0
51
89.999999999951143
0
LINE
5
101
100
AcDbEntity
8
OUTER_PROFILES
100
AcDbLine
10
398.99999999959789
20
123.04778684267497
30
0
11
491.99999999960647
21
123.04778684275306
31
0
0
ARC
5
102
100
AcDbEntity
8
OUTER_PROFILES
100
AcDbCircle
10
-491.99999999960824
20
121.04778684275306
30
0
40
1.9999999999999929
210
0
220
0
230
-1
100
AcDbArc
50
89.999999999949523
51
180
0
LINE
5
103
100
AcDbEntity
8
OUTER_PROFILES
100
AcDbLine
10
493.99999999960824
20
121.04778684275473
30
0
11
493.9999999995938
21
109.04764816942871
31
0
0
ARC
5
104
100
AcDbEntity
8
OUTER_PROFILES
100
AcDbCircle
10
-491.45549999959377
20
109.04764816942794
30
0
40
2.5444999999999851
210
0
220
0
230
-1
100
AcDbArc
50
180
51
257.37328903888499
0
ELLIPSE
5
105
100
AcDbEntity
8
OUTER_PROFILES
100
AcDbEllipse
10
493.99999999963291
20
90.785840132170136
30
0
11
-1.3423026588201753e-11
21
16
31
0.0
40
0.75000000000000011
41
0.16645738089319728
42
1.5707963267948966
0
LINE
5
106
100
AcDbEntity
8
OUTER_PROFILES
100
AcDbLine
10
481.99999999963291
20
90.785840132160075
30
0
11
481.9999999997309
21
32.261946710584468
31
0
0
ELLIPSE
5
107
100
AcDbEntity
8
OUTER_PROFILES
100
AcDbEllipse
10
493.9999999997309
20
32.261946710584446
30
0
11
8.3843480728530443e-15
21
-16
31
0.0
40
0.75000000000000011
41
4.7123889803846879
42
6.1167279263090704
0
ARC
5
108
100
AcDbEntity
8
OUTER_PROFILES
100
AcDbCircle
10
-491.45550000004897
20
14.000138673247875
30
0
40
2.5445000000000118
210
0
220
0
230
-1
100
AcDbArc
50
102.62671095936925
51
180
0
LINE
5
109
100
AcDbEntity
8
OUTER_PROFILES
100
AcDbLine
10
494.00000000004894
20
14.000138673252154
30
0
11
494
21
1.9999999999999929
31
0
0
ARC
5
110
100
AcDbEntity
8
OUTER_PROFILES
100
AcDbCircle
10
-491.99999999999994
20
1.9999999999999751
30
0
40
2.0000000000000284
210
0
220
0
230
-1
100
AcDbArc
50
180
51
270
0
LINE
5
111
100
AcDbEntity
8
OUTER_PROFILES
100
AcDbLine
10
491.99999999999994
20
-2.5257573810222311e-14
30
0
11
0
21
0
31
0
0
ARC
5
112
100
AcDbEntity
8
OUTER_PROFILES
100
AcDbCircle
10
6.2172489379008766e-14
20
1.9999999999999929
30
0
40
1.9999999999999929
210
0
220
-0
230
-1
100
AcDbArc
50
-90.000000000001776
51
0
0
LINE
5
113
100
AcDbEntity
8
OUTER_PROFILES
100
AcDbLine
10
-2.0000000000000622
20
2.0000000000000013
30
0
11
-1.9999999999512026
21
14.000138673398183
31
0
0
ARC
5
114
100
AcDbEntity
8
OUTER_PROFILES
100
AcDbCircle
10
-0.54450000004879762
20
14.000138673394034
30
0
40
2.5445000000000002
210
0
220
0
230
-1
100
AcDbArc
50
0
51
77.373289037392581
0
ELLIPSE
5
115
100
AcDbEntity
8
OUTER_PROFILES
100
AcDbEllipse
10
-2.0000000002855725
20
32.261946710584454
30
0
11
-8.6708572404899074e-15
21
-16
31
0.0
40
0.75000000000000011
41
0.1664573809137897
42
1.5707963267948983
0
LINE
5
116
100
AcDbEntity
8
OUTER_PROFILES
100
AcDbLine
10
9.9999999997144293
20
32.261946710584482
30
0
11
9.9999999996165236
21
90.785840131763806
31
0
0
ELLIPSE
5
117
100
AcDbEntity
8
OUTER_PROFILES
100
AcDbEllipse
10
-2.0000000003834693
20
90.785840131753744
30
0
11
-1.3440081793515104e-11
21
16
31
0.0
40
0.75000000000000011
41
4.7123889803846879
42
6.1167279262896193
0
ARC
5
118
100
AcDbEntity
8
OUTER_PROFILES
100
AcDbCircle
10
-0.54449999957640216
20
109.04764816902676
30
0
40
2.5445000000000002
210
-0
220
0
230
-1
100
AcDbArc
50
282.62671096077685
51
360
0
LINE
5
119
100
AcDbEntity
8
OUTER_PROFILES
100
AcDbLine
10
-2.000000000423598
20
109.04764816902431
30
0
11
-2.0000000004091141
21
121.04778684233838
31
0
0
ARC
5
120
100
AcDbEntity
8
OUTER_PROFILES
100
AcDbCircle
10
4.0911385390529631e-10
20
121.04778684234007
30
0
40
2
210
-0
220
0
230
-1
100
AcDbArc
50
0
51
89.999999999952266
0
LINE
5
121
100
AcDbEntity
8
OUTER_PROFILES
100
AcDbLine
10
-4.1078019908533368e-10
20
123.04778684234007
30
0
11
92.99999999959779
21
123.04778684241813
31
0
0
ARC
5
122
100
AcDbEntity
8
OUTER_PROFILES
100
AcDbCircle
10
-92.999999999599453
20
121.04778684241815
30
0
40
1.9999999999999929
210
0
220
0
230
-1
100
AcDbArc
50
89.999999999952365
51
180
0
LINE
5
123
100
AcDbEntity
8
OUTER_PROFILES
100
AcDbLine
10
94.999999999599453
20
121.04778684241981
30
0
11
94.999999999627136
21
88.023893421250548
31
0
0
LINE
5
124
100
AcDbEntity
8
OUTER_PROFILES
100
AcDbLine
10
94.999999999627136
20
88.023893421250548
30
0
11
95.999999999627136
21
88.023893421251387
31
0
0
LINE
5
125
100
AcDbEntity
8
OUTER_PROFILES
100
AcDbLine
10
95.999999999627136
20
88.023893421251387
30
0
11
95.999999999574115
21
120.7858401347747
31
0
0
ARC
5
126
100
AcDbEntity
8
OUTER_PROFILES
100
AcDbCircle
10
-97.999999999574101
20
120.78584013477808
30
0
40
1.9999999999999929
210
-0
220
0
230
-1
100
AcDbArc
50
0
51
89.999999999903508
0
LINE
5
127
100
AcDbEntity
8
OUTER_PROFILES
100
AcDbLine
10
97.999999999570733
20
122.78584013477808
30
0
11
393.99999999957083
21
122.78584013527627
31
0
0
ARC
5
128
100
AcDbEntity
8
OUTER_PROFILES
100
AcDbCircle
10
-393.99999999957424
20
120.78584013527629
30
0
40
1.9999999999999929
210
0
220
0
230
-1
100
AcDbArc
50
89.9999999999023
51
180
0
LINE
5
129
100
AcDbEntity
8
OUTER_PROFILES
100
AcDbLine
10
395.99999999957424
20
120.78584013527966
30
0
11
395.99999999962711
21
88.023893421503217
31
0
0
LINE
5
130
100
AcDbEntity
8
OUTER_PROFILES
100
AcDbLine
10
395.99999999962711
20
88.023893421503217
30
0
11
396.99999999962722
21
88.02389342150407
31
0
0
LINE
5
131
100
AcDbEntity
8
OUTER_PROFILES
100
AcDbLine
10
396.99999999962722
20
88.02389342150407
30
0
11
396.99999999959959
21
121.04778684267329
31
0
0
CIRCLE
5
132
100
AcDbEntity
8
INTERIOR_PROFILES
100
AcDbCircle
10
-440.68624999970689
20
41.927903600637812
30
0
40
1.7000000000000171
210
0
220
0
230
-1
0
CIRCLE
5
133
100
AcDbEntity
8
INTERIOR_PROFILES
100
AcDbCircle
10
-440.68624999964095
20
81.119883248902596
30
0
40
1.7000000000000171
210
0
220
0
230
-1
0
CIRCLE
5
134
100
AcDbEntity
8
INTERIOR_PROFILES
100
AcDbCircle
10
-486.99999999970066
20
2.9999999963209767
30
0
40
1.7000000000000171
210
0
220
0
230
-1
0
CIRCLE
5
135
100
AcDbEntity
8
INTERIOR_PROFILES
100
AcDbCircle
10
-70.999999999722647
20
26.261946710584454
30
0
40
1.7000000000000171
210
0
220
0
230
-1
0
CIRCLE
5
136
100
AcDbEntity
8
INTERIOR_PROFILES
100
AcDbCircle
10
-4.999999999700715
20
2.9999999971322033
30
0
40
1.7000000000000004
210
0
220
0
230
-1
0
CIRCLE
5
137
100
AcDbEntity
8
INTERIOR_PROFILES
100
AcDbCircle
10
-451.99999999963586
20
84.151393424789248
30
0
40
1.7000000000000171
210
0
220
0
230
-1
0
CIRCLE
5
138
100
AcDbEntity
8
INTERIOR_PROFILES
100
AcDbCircle
10
-463.31374999964089
20
81.119883248940653
30
0
40
1.7000000000000171
210
0
220
0
230
-1
0
CIRCLE
5
139
100
AcDbEntity
8
INTERIOR_PROFILES
100
AcDbCircle
10
-28.686249999706803
20
41.927903599944393
30
0
40
1.6999999999999993
210
0
220
0
230
-1
0
CIRCLE
5
140
100
AcDbEntity
8
INTERIOR_PROFILES
100
AcDbCircle
10
-17.372499999673835
20
61.523893424057761
30
0
40
1.6999999999999993
210
0
220
0
230
-1
0
CIRCLE
5
141
100
AcDbEntity
8
INTERIOR_PROFILES
100
AcDbCircle
10
-39.999999999711918
20
38.896393424095834
30
0
40
1.6999999999999993
210
0
220
0
230
-1
0
CIRCLE
5
142
100
AcDbEntity
8
INTERIOR_PROFILES
100
AcDbCircle
10
-39.99999999967384
20
61.523893424095832
30
0
40
1.7000000000000037
210
0
220
0
230
-1
0
CIRCLE
5
143
100
AcDbEntity
8
INTERIOR_PROFILES
100
AcDbCircle
10
-474.62749999967394
20
61.523893424827314
30
0
40
1.7000000000000171
210
0
220
0
230
-1
0
CIRCLE
5
144
100
AcDbEntity
8
INTERIOR_PROFILES
100
AcDbCircle
10
-51.313749999640912
20
81.119883248247248
30
0
40
1.6999999999999993
210
0
220
0
230
-1
0
CIRCLE
5
145
100
AcDbEntity
8
INTERIOR_PROFILES
100
AcDbCircle
10
-51.313749999706808
20
41.927903599982479
30
0
40
1.6999999999999993
210
0
220
0
230
-1
0
CIRCLE
5
146
100
AcDbEntity
8
INTERIOR_PROFILES
100
AcDbCircle
10
-28.686249999640907
20
81.119883248209163
30
0
40
1.6999999999999993
210
0
220
0
230
-1
0
CIRCLE
5
147
100
AcDbEntity
8
INTERIOR_PROFILES
100
AcDbCircle
10
-39.99999999963579
20
84.151393424095829
30
0
40
1.7000000000000037
210
0
220
0
230
-1
0
CIRCLE
5
148
100
AcDbEntity
8
INTERIOR_PROFILES
100
AcDbCircle
10
-429.37249999967401
20
61.523893424751179
30
0
40
1.7000000000000171
210
0
220
0
230
-1
0
CIRCLE
5
149
100
AcDbEntity
8
INTERIOR_PROFILES
100
AcDbCircle
10
-62.627499999673837
20
61.523893424133895
30
0
40
1.6999999999999993
210
0
220
0
230
-1
0
CIRCLE
5
150
100
AcDbEntity
8
INTERIOR_PROFILES
100
AcDbCircle
10
-420.99999999961972
20
96.785840132108873
30
0
40
1.7000000000000171
210
0
220
0
230
-1
0
CIRCLE
5
151
100
AcDbEntity
8
INTERIOR_PROFILES
100
AcDbCircle
10
-170.99999999972266
20
26.261946710584454
30
0
40
1.7000000000000171
210
0
220
0
230
-1
0
CIRCLE
5
152
100
AcDbEntity
8
INTERIOR_PROFILES
100
AcDbCircle
10
-420.99999999972272
20
26.261946710584443
30
0
40
1.7000000000000171
210
0
220
0
230
-1
0
CIRCLE
5
153
100
AcDbEntity
8
INTERIOR_PROFILES
100
AcDbCircle
10
-320.99999999972272
20
26.261946710584443
30
0
40
1.7000000000000171
210
0
220
0
230
-1
0
CIRCLE
5
154
100
AcDbEntity
8
INTERIOR_PROFILES
100
AcDbCircle
10
-245.99999999972266
20
26.261946710584454
30
0
40
1.7000000000000171
210
0
220
0
230
-1
0
CIRCLE
5
155
100
AcDbEntity
8
INTERIOR_PROFILES
100
AcDbCircle
10
-486.9999999996113
20
120.04778683948035
30
0
40
1.7000000000000171
210
0
220
0
230
-1
0
CIRCLE
5
156
100
AcDbEntity
8
INTERIOR_PROFILES
100
AcDbCircle
10
-463.31374999970683
20
41.927903600675911
30
0
40
1.7000000000000171
210
0
220
0
230
-1
0
CIRCLE
5
157
100
AcDbEntity
8
INTERIOR_PROFILES
100
AcDbCircle
10
-4.9999999996112221
20
120.04778683948228
30
0
40
1.7000000000000004
210
0
220
0
230
-1
0
CIRCLE
5
158
100
AcDbEntity
8
INTERIOR_PROFILES
100
AcDbCircle
10
-70.999999999619718
20
96.78584013181505
30
0
40
1.7000000000000171
210
0
220
0
230
-1
0
CIRCLE
5
159
100
AcDbEntity
8
INTERIOR_PROFILES
100
AcDbCircle
10
-451.99999999971203
20
38.896393424789238
30
0
40
1.7000000000000171
210
0
220
0
230
-1
0
LINE
5
160
100
AcDbEntity
8
BEND
100
AcDbLine
10
493.73490631968258
20
107.91681348746222
30
2.0686947715550017e-10
11
396.99999999961074
21
107.91681348738101
31
-1.4055811456661956e-13
0
LINE
5
161
100
AcDbEntity
8
BEND
100
AcDbLine
10
-1.7349063200721615
20
15.130973355292223
30
4.1305459562836189e-10
11
493.73490632009725
21
15.130973355292223
31
-4.1318768557667566e-10
0
LINE
5
162
100
AcDbEntity
8
BEND
100
AcDbLine
10
395.99999999957606
20
119.65486677998732
30
-1.1643193777286206e-13
11
95.999999999576033
21
119.6548667794824
31
-1.1628362842934083e-13
0
LINE
5
163
100
AcDbEntity
8
BEND
100
AcDbLine
10
481.99999999965848
20
89.654866776867749
30
-1.1874231892658537e-13
11
396.99999999962591
21
89.654866776796382
31
-1.1882353953758429e-13
0
LINE
5
164
100
AcDbEntity
8
BEND
100
AcDbLine
10
9.999999999665599
20
33.392920065876801
30
-1.0720120885681951e-13
11
481.99999999968747
21
33.392920065876801
31
-1.122702807619266e-13
0
LINE
5
165
100
AcDbEntity
8
BEND
100
AcDbLine
10
94.999999999625388
20
89.65486677654286
30
-1.1503402710509435e-13
11
9.9999999996392752
21
89.654866776471508
31
-1.0517512846470794e-13
0
LINE
5
166
100
AcDbEntity
8
BEND
100
AcDbLine
10
94.999999999610552
20
107.9168134871275
30
-1.7361234595701362e-13
11
-1.7349063205054627
21
107.91681348704628
31
-2.0717998391905437e-10
0
LINE
5
167
100
AcDbEntity
8
BEND_EXTENT
100
AcDbLine
10
492.6211348706363
20
106.78584013216899
30
-1.1543294219116867e-13
11
396.99999999961153
21
106.78584013208871
31
-1.1457680682362747e-13
0
LINE
5
168
100
AcDbEntity
8
BEND_EXTENT
100
AcDbLine
10
396.99999999962483
20
90.785840132088708
30
-1.1901769892212822e-13
11
481.99999999963291
21
90.785840132160075
31
3.2642068080770701e-09
0
LINE
5
169
100
AcDbEntity
8
BEND_EXTENT
100
AcDbLine
10
396.99999999960971
20
109.04778684267328
30
-1.367812673161306e-13
11
493.9999999996183
21
109.04778684275472
31
-1.0656350354105495e-13
0
LINE
5
170
100
AcDbEntity
8
BEND_EXTENT
100
AcDbLine
10
94.999999999611461
20
106.78584013183517
30
-1.740453659329717e-13
11
-0.62113487144134893
21
106.7858401317549
31
-1.6874833846692962e-13
0
LINE
5
171
100
AcDbEntity
8
BEND_EXTENT
100
AcDbLine
10
-2.0000000003990346
20
109.04778684233838
30
-1.8427911526479452e-13
11
94.999999999609543
21
109.04778684241982
31
-1.8514759617922327e-13
0
LINE
5
172
100
AcDbEntity
8
BEND_EXTENT
100
AcDbLine
10
9.9999999997110383
20
34.523893421169092
30
-1.0667094447890902e-13
11
481.99999999972761
21
34.523893421169092
31
-1.1089695470171018e-13
0
LINE
5
173
100
AcDbEntity
8
BEND_EXTENT
100
AcDbLine
10
481.99999999963671
20
88.523893421575423
30
-1.1089695470170936e-13
11
396.99999999962677
21
88.523893421504056
31
-1.1457680682364617e-13
0
LINE
5
174
100
AcDbEntity
8
BEND_EXTENT
100
AcDbLine
10
395.99999999957788
20
118.52389342469499
30
-1.1456785341215674e-13
11
95.999999999577952
21
118.52389342419008
31
-1.0744093786696057e-13
0
LINE
5
175
100
AcDbEntity
8
BEND_EXTENT
100
AcDbLine
10
94.999999999626738
20
88.523893421250534
30
-1.07431984455472e-13
11
9.9999999996201971
21
88.523893421179181
31
-1.0667094447890821e-13
0
LINE
5
176
100
AcDbEntity
8
BEND_EXTENT
100
AcDbLine
10
481.9999999997309
20
32.261946710584446
30
-3.6707569063229852e-09
11
9.9999999997144329
21
32.261946710584475
31
-2.8763392563803793e-09
0
LINE
5
177
100
AcDbEntity
8
BEND_EXTENT
100
AcDbLine
10
-0.62113487112694821
20
16.261946710584454
30
-1.3322120167892744e-13
11
492.62113487094103
21
16.261946710584443
31
-1.4651918688067578e-13
0
LINE
5
178
100
AcDbEntity
8
BEND_EXTENT
100
AcDbLine
10
494.00000000000006
20
13.999999999999986
30
-1.1988617983656025e-13
11
-2.0000000000000284
21
13.999999999999986
31
-1.1544528773803837e-13
0
LINE
5
179
100
AcDbEntity
8
BEND_EXTENT
100
AcDbLine
10
95.999999999574115
20
120.7858401347747
30
-1.2076361416245282e-13
11
395.99999999957413
21
120.78584013527961
31
-1.1456785341213818e-13
0
LINE
5
180
100
AcDbEntity
8
BEND_EXTENT
100
AcDbLine
10
9.9999999996165236
20
90.785840131763806
30
2.8660450894278254e-09
11
94.999999999624393
21
90.785840131835172
31
-1.2519555284944755e-13
0
ENDSEC
0
SECTION
2
OBJECTS
0
DICTIONARY
5
C
100
AcDbDictionary
3
ACAD_GROUP
350
D
3
ACAD_MLINESTYLE
350
17
0
DICTIONARY
5
D
100
AcDbDictionary
0
DICTIONARY
5
1A
330
C
100
AcDbDictionary
0
DICTIONARY
5
17
100
AcDbDictionary
0
ENDSEC
0
EOF
