0
SECTION
2
HEADER
9
$INSUNITS
70
4
9
$ACADVER
1
AC1014
9
$HANDSEED
5
FFFF
0
ENDSEC
0
SECTION
2
TABLES
0
TABLE
2
VPORT
5
8
100
AcDbSymbolTable
0
ENDTAB
0
TABLE
2
LTYPE
5
5
100
AcDbSymbolTable
0
LTYPE
5
14
100
AcDbSymbolTableRecord
100
AcDbLinetypeTableRecord
2
BYBLOCK
70
0
0
LTYPE
5
15
100
AcDbSymbolTableRecord
100
AcDbLinetypeTableRecord
2
BYLAYER
70
0
0
LTYPE
5
16
100
AcDbSymbolTableRecord
100
AcDbLinetypeTableRecord
2
DASHED
70
0
3
Dashed __ __ __ __ __ __ __ __ __ __ __ __ __ _
72
65
73
2
40
0.75
49
0.5
74
0
49
-0.25
74
0
0
ENDTAB
0
TABLE
2
LAYER
5
2
100
AcDbSymbolTable
70
2
0
LAYER
5
50
100
AcDbSymbolTableRecord
100
AcDbLayerTableRecord
2
0
70
0
62
7
6
CONTINUOUS
0
ENDTAB
0
TABLE
2
STYLE
5
3
100
AcDbSymbolTable
70
1
0
STYLE
5
11
100
AcDbSymbolTableRecord
100
AcDbTextStyleTableRecord
2
STANDARD
70
0
0
ENDTAB
0
TABLE
2
VIEW
5
6
100
AcDbSymbolTable
70
0
0
ENDTAB
0
TABLE
2
UCS
5
7
100
AcDbSymbolTable
70
0
0
ENDTAB
0
TABLE
2
APPID
5
9
100
AcDbSymbolTable
70
2
0
APPID
5
12
100
AcDbSymbolTableRecord
100
AcDbRegAppTableRecord
2
ACAD
70
0
0
ENDTAB
0
TABLE
2
DIMSTYLE
5
A
100
AcDbSymbolTable
70
1
0
ENDTAB
0
TABLE
2
BLOCK_RECORD
5
1
100
AcDbSymbolTable
70
1
0
BLOCK_RECORD
5
1F
100
AcDbSymbolTableRecord
100
AcDbBlockTableRecord
2
*MODEL_SPACE
0
BLOCK_RECORD
5
1B
100
AcDbSymbolTableRecord
100
AcDbBlockTableRecord
2
*PAPER_SPACE
0
ENDTAB
0
ENDSEC
0
SECTION
2
BLOCKS
0
BLOCK
5
20
100
AcDbEntity
100
AcDbBlockBegin
2
*MODEL_SPACE
0
ENDBLK
5
21
100
AcDbEntity
100
AcDbBlockEnd
0
BLOCK
5
1C
100
AcDbEntity
100
AcDbBlockBegin
2
*PAPER_SPACE
0
ENDBLK
5
1D
100
AcDbEntity
100
AcDbBlockEnd
0
ENDSEC
0
SECTION
2
ENTITIES
0
LWPOLYLINE
5
100
100
AcDbEntity
8
OUTER_PROFILES
100
AcDbPolyline
90
26
70
1
43
0.0
10
-13.000000000000114
20
454.81171886483793
10
-26.261946710584425
20
454.81171886483799
10
-26.261946710584567
20
68.047786842337743
10
-13.000000000000114
20
68.047786842337743
10
-13.000000000000114
20
65.785840131753034
10
-12.999999999999972
20
41.523893421168196
10
-12.999999999999972
20
23.261946710583068
10
-12.999999999999972
20
12.999999999999972
42
-0.41421356237309503
10
0
20
7.9602041944577787e-16
10
670
20
0
42
-0.41421356237309503
10
683
20
12.999999999999972
10
683
20
23.261946710583068
10
683
20
41.523893421168196
10
683.00000000000011
20
65.785840131753034
10
683.00000000000011
20
68.047786842337743
10
696.26194671058465
20
68.047786842337743
10
696.26194671058465
20
454.81171886483799
10
683.00000000000011
20
454.81171886483793
10
683.00000000000011
20
456.02285775045584
10
683
20
457.23399663607313
10
683
20
461.23399663607307
10
683
20
484.49594334665875
10
-12.999999999999972
20
484.49594334665875
10
-12.999999999999972
20
463.49594334665875
10
-12.999999999999972
20
457.23399663607313
10
-13.000000000000114
20
456.02285775045584
0
CIRCLE
5
101
100
AcDbEntity
8
INTERIOR_PROFILES
100
AcDbCircle
10
5.9999999999999432
20
265.04778684233776
30
0
40
1.7000000000000171
210
0
220
0
230
-1
0
CIRCLE
5
102
100
AcDbEntity
8
INTERIOR_PROFILES
100
AcDbCircle
10
-15.000000000000284
20
459.73399663607813
30
0
40
1.25
210
0
220
0
230
-1
0
CIRCLE
5
103
100
AcDbEntity
8
INTERIOR_PROFILES
100
AcDbCircle
10
5.9999999999999432
20
441.79778684233776
30
0
40
6.5000000000000568
210
0
220
0
230
-1
0
CIRCLE
5
104
100
AcDbEntity
8
INTERIOR_PROFILES
100
AcDbCircle
10
-676
20
432.0477868423377
30
0
40
1.7000000000000171
210
0
220
0
230
-1
0
CIRCLE
5
105
100
AcDbEntity
8
INTERIOR_PROFILES
100
AcDbCircle
10
5.9999999999999432
20
78.547786842337715
30
0
40
1.7000000000000171
210
0
220
0
230
-1
0
CIRCLE
5
106
100
AcDbEntity
8
INTERIOR_PROFILES
100
AcDbCircle
10
-676
20
98.047786842337743
30
0
40
1.7000000000000171
210
0
220
0
230
-1
0
CIRCLE
5
107
100
AcDbEntity
8
INTERIOR_PROFILES
100
AcDbCircle
10
-676
20
441.79778684233776
30
0
40
6.5000000000000568
210
0
220
0
230
-1
0
CIRCLE
5
108
100
AcDbEntity
8
INTERIOR_PROFILES
100
AcDbCircle
10
-435
20
75.0477868423377
30
0
40
1.7000000000000171
210
0
220
0
230
-1
0
CIRCLE
5
109
100
AcDbEntity
8
INTERIOR_PROFILES
100
AcDbCircle
10
-535
20
75.0477868423377
30
0
40
1.7000000000000171
210
0
220
0
230
-1
0
CIRCLE
5
110
100
AcDbEntity
8
INTERIOR_PROFILES
100
AcDbCircle
10
-66.000000000000085
20
50.785840131753034
30
0
40
1.6999999999999993
210
0
220
0
230
-1
0
CIRCLE
5
111
100
AcDbEntity
8
INTERIOR_PROFILES
100
AcDbCircle
10
-650
20
50.785840131753034
30
0
40
1.6999999999999993
210
0
220
0
230
-1
0
CIRCLE
5
112
100
AcDbEntity
8
INTERIOR_PROFILES
100
AcDbCircle
10
-676
20
50.785840131753034
30
0
40
1.6999999999999993
210
0
220
0
230
-1
0
CIRCLE
5
113
100
AcDbEntity
8
INTERIOR_PROFILES
100
AcDbCircle
10
5.9999999999999432
20
50.785840131753034
30
0
40
1.6999999999999993
210
0
220
0
230
-1
0
CIRCLE
5
114
100
AcDbEntity
8
INTERIOR_PROFILES
100
AcDbCircle
10
-20
20
50.785840131753034
30
0
40
1.6999999999999993
210
0
220
0
230
-1
0
CIRCLE
5
115
100
AcDbEntity
8
INTERIOR_PROFILES
100
AcDbCircle
10
-10
20
2.9999999999999716
30
0
40
1.7000000000000171
210
0
220
0
230
-1
0
CIRCLE
5
116
100
AcDbEntity
8
INTERIOR_PROFILES
100
AcDbCircle
10
-604
20
50.785840131753034
30
0
40
1.6999999999999993
210
0
220
0
230
-1
0
CIRCLE
5
117
100
AcDbEntity
8
INTERIOR_PROFILES
100
AcDbCircle
10
-660
20
2.9999999999999716
30
0
40
1.7000000000000171
210
0
220
0
230
-1
0
CIRCLE
5
118
100
AcDbEntity
8
INTERIOR_PROFILES
100
AcDbCircle
10
-435
20
2.9999999999999716
30
0
40
1.7000000000000171
210
0
220
0
230
-1
0
CIRCLE
5
119
100
AcDbEntity
8
INTERIOR_PROFILES
100
AcDbCircle
10
-35
20
2.9999999999999716
30
0
40
1.7000000000000171
210
0
220
0
230
-1
0
CIRCLE
5
120
100
AcDbEntity
8
INTERIOR_PROFILES
100
AcDbCircle
10
-235
20
2.9999999999999716
30
0
40
1.7000000000000171
210
0
220
0
230
-1
0
CIRCLE
5
121
100
AcDbEntity
8
INTERIOR_PROFILES
100
AcDbCircle
10
-335
20
2.9999999999999716
30
0
40
1.7000000000000171
210
0
220
0
230
-1
0
CIRCLE
5
122
100
AcDbEntity
8
INTERIOR_PROFILES
100
AcDbCircle
10
-135
20
2.9999999999999716
30
0
40
1.7000000000000171
210
0
220
0
230
-1
0
CIRCLE
5
123
100
AcDbEntity
8
INTERIOR_PROFILES
100
AcDbCircle
10
20.761946710584169
20
200.04778684233776
30
0
40
4.4999999999999929
210
0
220
0
230
-1
0
CIRCLE
5
124
100
AcDbEntity
8
INTERIOR_PROFILES
100
AcDbCircle
10
-535
20
2.9999999999999716
30
0
40
1.7000000000000171
210
0
220
0
230
-1
0
CIRCLE
5
125
100
AcDbEntity
8
INTERIOR_PROFILES
100
AcDbCircle
10
-690.76194671058806
20
355.04778684233781
30
0
40
4.5000000000000284
210
0
220
0
230
-1
0
CIRCLE
5
126
100
AcDbEntity
8
INTERIOR_PROFILES
100
AcDbCircle
10
20.761946710584169
20
355.0477868423377
30
0
40
4.5000000000000284
210
0
220
0
230
-1
0
CIRCLE
5
127
100
AcDbEntity
8
INTERIOR_PROFILES
100
AcDbCircle
10
-690.76194671058806
20
200.04778684233787
30
0
40
4.4999999999999929
210
0
220
0
230
-1
0
CIRCLE
5
128
100
AcDbEntity
8
INTERIOR_PROFILES
100
AcDbCircle
10
-635
20
2.9999999999999716
30
0
40
1.7000000000000171
210
0
220
0
230
-1
0
CIRCLE
5
129
100
AcDbEntity
8
INTERIOR_PROFILES
100
AcDbCircle
10
23.261946710584169
20
277.54778684233776
30
0
40
1.6999999999999815
210
0
220
0
230
-1
0
CIRCLE
5
130
100
AcDbEntity
8
INTERIOR_PROFILES
100
AcDbCircle
10
23.261946710584169
20
432.5477868423377
30
0
40
1.7000000000000171
210
0
220
0
230
-1
0
CIRCLE
5
131
100
AcDbEntity
8
INTERIOR_PROFILES
100
AcDbCircle
10
23.261946710584169
20
122.54778684233777
30
0
40
1.7000000000000171
210
0
220
0
230
-1
0
CIRCLE
5
132
100
AcDbEntity
8
INTERIOR_PROFILES
100
AcDbCircle
10
-693.26194671058806
20
122.54778684233784
30
0
40
1.7000000000000171
210
0
220
0
230
-1
0
CIRCLE
5
133
100
AcDbEntity
8
INTERIOR_PROFILES
100
AcDbCircle
10
-693.26194671058806
20
432.54778684233781
30
0
40
1.7000000000000171
210
0
220
0
230
-1
0
CIRCLE
5
134
100
AcDbEntity
8
INTERIOR_PROFILES
100
AcDbCircle
10
-235
20
75.0477868423377
30
0
40
1.7000000000000171
210
0
220
0
230
-1
0
CIRCLE
5
135
100
AcDbEntity
8
INTERIOR_PROFILES
100
AcDbCircle
10
-693.26194671058806
20
277.54778684233787
30
0
40
1.6999999999999815
210
0
220
0
230
-1
0
CIRCLE
5
136
100
AcDbEntity
8
INTERIOR_PROFILES
100
AcDbCircle
10
-335
20
473.49594334665875
30
0
40
8.75
210
0
220
0
230
-1
0
CIRCLE
5
137
100
AcDbEntity
8
INTERIOR_PROFILES
100
AcDbCircle
10
-35
20
75.0477868423377
30
0
40
1.7000000000000171
210
0
220
0
230
-1
0
CIRCLE
5
138
100
AcDbEntity
8
INTERIOR_PROFILES
100
AcDbCircle
10
-676
20
451.54778684233776
30
0
40
1.7000000000000171
210
0
220
0
230
-1
0
CIRCLE
5
139
100
AcDbEntity
8
INTERIOR_PROFILES
100
AcDbCircle
10
-676
20
265.04778684233776
30
0
40
1.7000000000000171
210
0
220
0
230
-1
0
CIRCLE
5
140
100
AcDbEntity
8
INTERIOR_PROFILES
100
AcDbCircle
10
5.9999999999999432
20
451.54778684233776
30
0
40
1.7000000000000171
210
0
220
0
230
-1
0
CIRCLE
5
141
100
AcDbEntity
8
INTERIOR_PROFILES
100
AcDbCircle
10
-655
20
459.73399663607313
30
0
40
1.25
210
0
220
0
230
-1
0
CIRCLE
5
142
100
AcDbEntity
8
INTERIOR_PROFILES
100
AcDbCircle
10
-676
20
78.547786842337715
30
0
40
1.7000000000000171
210
0
220
0
230
-1
0
CIRCLE
5
143
100
AcDbEntity
8
INTERIOR_PROFILES
100
AcDbCircle
10
5.9999999999999432
20
432.0477868423377
30
0
40
1.7000000000000171
210
0
220
0
230
-1
0
CIRCLE
5
144
100
AcDbEntity
8
INTERIOR_PROFILES
100
AcDbCircle
10
5.9999999999999432
20
98.047786842337743
30
0
40
1.7000000000000171
210
0
220
0
230
-1
0
CIRCLE
5
145
100
AcDbEntity
8
INTERIOR_PROFILES
100
AcDbCircle
10
-335
20
75.0477868423377
30
0
40
1.7000000000000171
210
0
220
0
230
-1
0
CIRCLE
5
146
100
AcDbEntity
8
INTERIOR_PROFILES
100
AcDbCircle
10
-635
20
75.0477868423377
30
0
40
1.7000000000000171
210
0
220
0
230
-1
0
CIRCLE
5
147
100
AcDbEntity
8
INTERIOR_PROFILES
100
AcDbCircle
10
-135
20
75.0477868423377
30
0
40
1.7000000000000171
210
0
220
0
230
-1
0
LINE
5
148
100
AcDbEntity
8
BEND
100
AcDbLine
10
684.13097335529244
20
68.047786842337743
30
2.618738559334588e-12
11
684.13097335529244
21
454.81171886483799
31
2.6176879002849935e-12
0
LINE
5
149
100
AcDbEntity
8
BEND
100
AcDbLine
10
683
20
24.39292006587565
30
8.4395740768829532e-13
11
-12.999999999999972
21
24.39292006587565
31
8.4184256902078568e-13
0
LINE
5
150
100
AcDbEntity
8
BEND
100
AcDbLine
10
683
20
462.36496999136591
30
2.7346229985476635e-12
11
-12.999999999999972
21
462.36496999136591
31
2.7346291421308195e-12
0
LINE
5
151
100
AcDbEntity
8
BEND
100
AcDbLine
10
683.00000000000011
20
66.916813487045374
30
2.624581967450714e-12
11
-13.000000000000256
21
66.916813487045374
31
2.6255030598135947e-12
0
LINE
5
152
100
AcDbEntity
8
BEND
100
AcDbLine
10
683
20
14.130973355291596
30
2.8621280083812324e-13
11
-12.999999999999972
21
14.130973355291596
31
3.0159502522607446e-13
0
LINE
5
153
100
AcDbEntity
8
BEND
100
AcDbLine
10
-14.130973355292156
20
454.81171886483787
30
2.618738559334588e-12
11
-14.130973355292156
21
68.047786842337743
31
2.5865420916204585e-12
0
LINE
5
154
100
AcDbEntity
8
BEND
100
AcDbLine
10
683
20
456.62842719326432
30
2.7360844129075754e-12
11
-12.999999999999972
21
456.62842719326432
31
2.7362327677087457e-12
0
LINE
5
155
100
AcDbEntity
8
BEND
100
AcDbLine
10
683.00000000000011
20
455.41728830764691
30
2.70113466694793e-12
11
-12.999999999999972
21
455.41728830764691
31
2.7017164173153765e-12
0
LINE
5
156
100
AcDbEntity
8
BEND
100
AcDbLine
10
683
20
42.654866776460672
30
2.4436143927482457e-12
11
-12.999999999999972
21
42.654866776460672
31
2.491049395954422e-12
0
LINE
5
157
100
AcDbEntity
8
BEND_EXTENT
100
AcDbLine
10
683
20
12.999999999999972
30
2.19824158875781e-13
11
-12.999999999999972
21
12.999999999999972
31
2.19824158875781e-13
0
LINE
5
158
100
AcDbEntity
8
BEND_EXTENT
100
AcDbLine
10
685.26194671058477
20
454.81171886483799
30
2.6179250744195316e-12
11
685.26194671058477
21
68.047786842337743
31
2.6187577416880004e-12
0
LWPOLYLINE
5
159
100
AcDbEntity
8
BEND_EXTENT
100
AcDbPolyline
90
4
70
1
43
0.0
10
683.00000000000011
20
68.047786842337743
10
683.00000000000011
20
454.81171886483793
10
-13.000000000000114
20
454.81171886483793
10
-13.000000000000114
20
68.047786842337743
0
LINE
5
160
100
AcDbEntity
8
BEND_EXTENT
100
AcDbLine
10
-15.261946710584624
20
68.047786842337743
30
2.6756374893466273e-12
11
-15.261946710584482
21
454.81171886483787
31
2.6756374893466273e-12
0
LINE
5
161
100
AcDbEntity
8
BEND_EXTENT
100
AcDbLine
10
683.00000000000011
20
65.785840131753034
30
2.8177460364986473e-12
11
-13.000000000000114
21
65.785840131753034
31
2.8177460364986473e-12
0
LINE
5
162
100
AcDbEntity
8
BEND_EXTENT
100
AcDbLine
10
-13.000000000000114
20
456.02285775045584
30
2.7078339570607568e-12
11
683.00000000000011
21
456.02285775045584
31
2.7078339570607568e-12
0
LINE
5
163
100
AcDbEntity
8
BEND_EXTENT
100
AcDbLine
10
683
20
23.261946710583068
30
8.2822637637036678e-13
11
-12.999999999999972
21
23.261946710583068
31
8.2822637637036678e-13
0
LINE
5
164
100
AcDbEntity
8
BEND_EXTENT
100
AcDbLine
10
-12.999999999999972
20
25.523893421168253
30
9.6145313932538556e-13
11
683
21
25.523893421168253
31
9.6145313932538556e-13
0
LINE
5
165
100
AcDbEntity
8
BEND_EXTENT
100
AcDbLine
10
683
20
41.523893421168196
30
2.4180657476335909e-12
11
-12.999999999999972
21
41.523893421168196
31
2.4180657476335909e-12
0
LINE
5
166
100
AcDbEntity
8
BEND_EXTENT
100
AcDbLine
10
-12.999999999999972
20
15.261946710583096
30
4.0190073491430667e-13
11
683
21
15.261946710583096
31
4.0190073491430667e-13
0
LINE
5
167
100
AcDbEntity
8
BEND_EXTENT
100
AcDbLine
10
-12.999999999999972
20
43.785840131753076
30
2.6045832157706172e-12
11
683
21
43.785840131753076
31
2.6045832157706172e-12
0
LINE
5
168
100
AcDbEntity
8
BEND_EXTENT
100
AcDbLine
10
-12.999999999999972
20
457.23399663607313
30
2.7476632080691843e-12
11
683
21
457.23399663607313
31
2.7475244301911061e-12
0
LINE
5
169
100
AcDbEntity
8
BEND_EXTENT
100
AcDbLine
10
683
20
461.23399663607307
30
2.7518265444115286e-12
11
-12.999999999999972
21
461.23399663607307
31
2.7519653222896068e-12
0
LINE
5
170
100
AcDbEntity
8
BEND_EXTENT
100
AcDbLine
10
-12.999999999999972
20
463.49594334665875
30
2.745532120930447e-12
11
683
21
463.49594334665875
31
2.745532120930447e-12
0
ENDSEC
0
SECTION
2
OBJECTS
0
DICTIONARY
5
C
100
AcDbDictionary
3
ACAD_GROUP
350
D
3
ACAD_MLINESTYLE
350
17
0
DICTIONARY
5
D
100
AcDbDictionary
0
DICTIONARY
5
1A
330
C
100
AcDbDictionary
0
DICTIONARY
5
17
100
AcDbDictionary
0
ENDSEC
0
EOF
