0
SECTION
2
HEADER
9
$INSUNITS
70
4
9
$ACADVER
1
AC1014
9
$HANDSEED
5
FFFF
0
ENDSEC
0
SECTION
2
TABLES
0
TABLE
2
VPORT
5
8
100
AcDbSymbolTable
0
ENDTAB
0
TABLE
2
LTYPE
5
5
100
AcDbSymbolTable
0
LTYPE
5
14
100
AcDbSymbolTableRecord
100
AcDbLinetypeTableRecord
2
BYBLOCK
70
0
0
LTYPE
5
15
100
AcDbSymbolTableRecord
100
AcDbLinetypeTableRecord
2
BYLAYER
70
0
0
LTYPE
5
16
100
AcDbSymbolTableRecord
100
AcDbLinetypeTableRecord
2
DASHED
70
0
3
Dashed __ __ __ __ __ __ __ __ __ __ __ __ __ _
72
65
73
2
40
0.75
49
0.5
74
0
49
-0.25
74
0
0
ENDTAB
0
TABLE
2
LAYER
5
2
100
AcDbSymbolTable
70
2
0
LAYER
5
50
100
AcDbSymbolTableRecord
100
AcDbLayerTableRecord
2
0
70
0
62
7
6
CONTINUOUS
0
ENDTAB
0
TABLE
2
STYLE
5
3
100
AcDbSymbolTable
70
1
0
STYLE
5
11
100
AcDbSymbolTableRecord
100
AcDbTextStyleTableRecord
2
STANDARD
70
0
0
ENDTAB
0
TABLE
2
VIEW
5
6
100
AcDbSymbolTable
70
0
0
ENDTAB
0
TABLE
2
UCS
5
7
100
AcDbSymbolTable
70
0
0
ENDTAB
0
TABLE
2
APPID
5
9
100
AcDbSymbolTable
70
2
0
APPID
5
12
100
AcDbSymbolTableRecord
100
AcDbRegAppTableRecord
2
ACAD
70
0
0
ENDTAB
0
TABLE
2
DIMSTYLE
5
A
100
AcDbSymbolTable
70
1
0
ENDTAB
0
TABLE
2
BLOCK_RECORD
5
1
100
AcDbSymbolTable
70
1
0
BLOCK_RECORD
5
1F
100
AcDbSymbolTableRecord
100
AcDbBlockTableRecord
2
*MODEL_SPACE
0
BLOCK_RECORD
5
1B
100
AcDbSymbolTableRecord
100
AcDbBlockTableRecord
2
*PAPER_SPACE
0
ENDTAB
0
ENDSEC
0
SECTION
2
BLOCKS
0
BLOCK
5
20
100
AcDbEntity
100
AcDbBlockBegin
2
*MODEL_SPACE
0
ENDBLK
5
21
100
AcDbEntity
100
AcDbBlockEnd
0
BLOCK
5
1C
100
AcDbEntity
100
AcDbBlockBegin
2
*PAPER_SPACE
0
ENDBLK
5
1D
100
AcDbEntity
100
AcDbBlockEnd
0
ENDSEC
0
SECTION
2
ENTITIES
0
ARC
5
100
100
AcDbEntity
8
OUTER_PROFILES
100
AcDbCircle
10
-691.45550000014168
20
109.04764815195475
30
0
40
2.5445000000000562
210
0
220
-0
230
-1
100
AcDbArc
50
180
51
257.37328902664683
0
LINE
5
101
100
AcDbEntity
8
OUTER_PROFILES
100
AcDbLine
10
694.00000000014177
20
109.04764815193073
30
0
11
694.0000000002334
21
121.04778682583449
31
0
0
ARC
5
102
100
AcDbEntity
8
OUTER_PROFILES
100
AcDbCircle
10
-692.00000000023351
20
121.04778682584981
30
0
40
1.9999999999999929
210
0
220
0
230
-1
100
AcDbArc
50
90.000000000439684
51
180
0
LINE
5
103
100
AcDbEntity
8
OUTER_PROFILES
100
AcDbLine
10
692.00000000024886
20
123.04778682584981
30
0
11
2.4897417461033911e-10
21
123.04778683115333
31
0
0
ARC
5
104
100
AcDbEntity
8
OUTER_PROFILES
100
AcDbCircle
10
-2.3362645151792094e-10
20
121.04778683115335
30
0
40
2
210
0
220
0
230
-1
100
AcDbArc
50
0
51
90.000000000439684
0
LINE
5
105
100
AcDbEntity
8
OUTER_PROFILES
100
AcDbLine
10
-1.9999999997663735
20
121.04778683116868
30
0
11
-1.9999999998582902
21
109.04764815794513
31
0
0
ARC
5
106
100
AcDbEntity
8
OUTER_PROFILES
100
AcDbCircle
10
-0.54450000014170996
20
109.04764815793001
30
0
40
2.5445000000000064
210
-0
220
0
230
-1
100
AcDbArc
50
-77.373289040825526
51
0
0
ELLIPSE
5
107
100
AcDbEntity
8
OUTER_PROFILES
100
AcDbEllipse
10
-1.9999999995536655
20
90.785840120584112
30
0
11
1.2732256903946989e-10
21
16
31
0.0
40
0.75000000000000011
41
4.7123889803846897
42
6.1167279263178322
0
LINE
5
108
100
AcDbEntity
8
OUTER_PROFILES
100
AcDbLine
10
10.000000000446336
20
90.785840120488615
30
0
11
10.000000000007674
21
32.26194671058839
31
0
0
ELLIPSE
5
109
100
AcDbEntity
8
OUTER_PROFILES
100
AcDbEllipse
10
-1.9999999999922125
20
32.261946710584859
30
0
11
4.6980020886753651e-12
21
-16
31
0.0
40
0.75000000000000011
41
0.1664573808912575
42
1.570796326794897
0
ARC
5
110
100
AcDbEntity
8
OUTER_PROFILES
100
AcDbCircle
10
-0.5445000000077016
20
14.000138673319098
30
0
40
2.5444999999999993
210
0
220
0
230
-1
100
AcDbArc
50
0
51
77.373289039064161
0
LINE
5
111
100
AcDbEntity
8
OUTER_PROFILES
100
AcDbLine
10
-1.9999999999922979
20
14.000138673320397
30
0
11
-1.9999999999993179
21
2.0000000000000284
31
0
0
ARC
5
112
100
AcDbEntity
8
OUTER_PROFILES
100
AcDbCircle
10
0
20
2.0000000000000107
30
0
40
2.0000000000000004
210
0
220
-0
230
-1
100
AcDbArc
50
-90.000000000000611
51
0
0
LINE
5
113
100
AcDbEntity
8
OUTER_PROFILES
100
AcDbLine
10
2.026157019940911e-14
20
1.0269562977782698e-14
30
0
11
691.99999999999977
21
1.0547118733938987e-14
31
0
0
ARC
5
114
100
AcDbEntity
8
OUTER_PROFILES
100
AcDbCircle
10
-691.99999999999955
20
2.0000000000000107
30
0
40
2.0000000000000284
210
0
220
0
230
-1
100
AcDbArc
50
180
51
269.99999999999346
0
LINE
5
115
100
AcDbEntity
8
OUTER_PROFILES
100
AcDbLine
10
693.99999999999966
20
2.0000000000000409
30
0
11
694.00000000000705
21
14.000138673803164
31
0
0
ARC
5
116
100
AcDbEntity
8
OUTER_PROFILES
100
AcDbCircle
10
-691.45550000000708
20
14.000138673803146
30
0
40
2.5445000000000002
210
0
220
0
230
-1
100
AcDbArc
50
102.62671097162703
51
180
0
ELLIPSE
5
117
100
AcDbEntity
8
OUTER_PROFILES
100
AcDbEllipse
10
694.00000000215414
20
32.261946710584859
30
0
11
4.69801749141013e-12
21
16
31
0.0
40
0.75000000000000011
41
1.5707963267951186
42
2.975135272556225
0
LINE
5
118
100
AcDbEntity
8
OUTER_PROFILES
100
AcDbLine
10
682.00000000215414
20
32.261946710584837
30
0
11
682.00000000259274
21
90.785840115341927
31
0
0
ELLIPSE
5
119
100
AcDbEntity
8
OUTER_PROFILES
100
AcDbEllipse
10
694.00000000259286
20
90.78584011524994
30
0
11
-1.1792654945938439e-10
21
-16
31
0.0
40
0.75000000000000011
41
3.3080500346529274
42
4.7123889803844685
0
CIRCLE
5
120
100
AcDbEntity
8
INTERIOR_PROFILES
100
AcDbCircle
10
-396.00000000125277
20
10.999999987500786
30
0
40
1.7000000000000171
210
0
220
0
230
-1
0
CIRCLE
5
121
100
AcDbEntity
8
INTERIOR_PROFILES
100
AcDbCircle
10
-496.00000000218381
20
10.999999988267186
30
0
40
1.7000000000000171
210
0
220
0
230
-1
0
CIRCLE
5
122
100
AcDbEntity
8
INTERIOR_PROFILES
100
AcDbCircle
10
-546.00000000218381
20
10.999999988650391
30
0
40
1.7000000000000171
210
0
220
0
230
-1
0
CIRCLE
5
123
100
AcDbEntity
8
INTERIOR_PROFILES
100
AcDbCircle
10
-246.00000000218381
20
10.999999986351181
30
0
40
1.7000000000000171
210
0
220
0
230
-1
0
CIRCLE
5
124
100
AcDbEntity
8
INTERIOR_PROFILES
100
AcDbCircle
10
-346.00000000125283
20
10.999999987117581
30
0
40
1.7000000000000171
210
0
220
0
230
-1
0
CIRCLE
5
125
100
AcDbEntity
8
INTERIOR_PROFILES
100
AcDbCircle
10
-77.000000004367877
20
10.999999987909606
30
0
40
1.6999999999999993
210
0
220
0
230
-1
0
CIRCLE
5
126
100
AcDbEntity
8
INTERIOR_PROFILES
100
AcDbCircle
10
-596.00000000218381
20
10.999999989033604
30
0
40
1.7000000000000171
210
0
220
0
230
-1
0
CIRCLE
5
127
100
AcDbEntity
8
INTERIOR_PROFILES
100
AcDbCircle
10
-31.000000004367791
20
10.999999988098583
30
0
40
1.6999999999999993
210
0
220
0
230
-1
0
CIRCLE
5
128
100
AcDbEntity
8
INTERIOR_PROFILES
100
AcDbCircle
10
-660.99999999999966
20
10.999999989218692
30
0
40
1.7000000000000171
210
0
220
0
230
-1
0
CIRCLE
5
129
100
AcDbEntity
8
INTERIOR_PROFILES
100
AcDbCircle
10
-296.00000000218381
20
10.999999986734386
30
0
40
1.7000000000000171
210
0
220
0
230
-1
0
CIRCLE
5
130
100
AcDbEntity
8
INTERIOR_PROFILES
100
AcDbCircle
10
-687.00000000146906
20
10.9999999897307
30
0
40
1.7000000000000171
210
0
220
0
230
-1
0
CIRCLE
5
131
100
AcDbEntity
8
INTERIOR_PROFILES
100
AcDbCircle
10
-5.0000000007543122
20
10.99999998450385
30
0
40
1.7000000000000004
210
0
220
0
230
-1
0
CIRCLE
5
132
100
AcDbEntity
8
INTERIOR_PROFILES
100
AcDbCircle
10
-614.99999999999966
20
10.999999988866156
30
0
40
1.7000000000000171
210
0
220
0
230
-1
0
CIRCLE
5
133
100
AcDbEntity
8
INTERIOR_PROFILES
100
AcDbCircle
10
-446.00000000125283
20
10.99999998788399
30
0
40
1.7000000000000171
210
0
220
0
230
-1
0
CIRCLE
5
134
100
AcDbEntity
8
INTERIOR_PROFILES
100
AcDbCircle
10
-96.000000002183725
20
10.999999985201576
30
0
40
1.6999999999999993
210
0
220
0
230
-1
0
CIRCLE
5
135
100
AcDbEntity
8
INTERIOR_PROFILES
100
AcDbCircle
10
-146.00000000218373
20
10.999999985584781
30
0
40
1.6999999999999993
210
0
220
0
230
-1
0
CIRCLE
5
136
100
AcDbEntity
8
INTERIOR_PROFILES
100
AcDbCircle
10
-196.00000000218381
20
10.999999985967976
30
0
40
1.7000000000000171
210
0
220
0
230
-1
0
CIRCLE
5
137
100
AcDbEntity
8
INTERIOR_PROFILES
100
AcDbCircle
10
-646.00000000125283
20
10.999999989416791
30
0
40
1.7000000000000171
210
0
220
0
230
-1
0
CIRCLE
5
138
100
AcDbEntity
8
INTERIOR_PROFILES
100
AcDbCircle
10
-5.0000000011729639
20
2.9999999845038339
30
0
40
1.7000000000000004
210
0
220
0
230
-1
0
CIRCLE
5
139
100
AcDbEntity
8
INTERIOR_PROFILES
100
AcDbCircle
10
-51.313750001445371
20
81.119883260443203
30
0
40
1.6999999999999993
210
0
220
0
230
-1
0
CIRCLE
5
140
100
AcDbEntity
8
INTERIOR_PROFILES
100
AcDbCircle
10
-71.000000001565624
20
96.785840120024631
30
0
40
1.6999999999999993
210
0
220
0
230
-1
0
CIRCLE
5
141
100
AcDbEntity
8
INTERIOR_PROFILES
100
AcDbCircle
10
-652.00000000146872
20
84.151393431707135
30
0
40
1.7000000000000171
210
0
220
0
230
-1
0
CIRCLE
5
142
100
AcDbEntity
8
INTERIOR_PROFILES
100
AcDbCircle
10
-621.00000000156558
20
96.785840115809407
30
0
40
1.6999999999999993
210
0
220
0
230
-1
0
CIRCLE
5
143
100
AcDbEntity
8
INTERIOR_PROFILES
100
AcDbCircle
10
-28.686250001445615
20
81.119883260616632
30
0
40
1.6999999999999993
210
0
220
0
230
-1
0
CIRCLE
5
144
100
AcDbEntity
8
INTERIOR_PROFILES
100
AcDbCircle
10
-51.313750001145308
20
41.927903612178447
30
0
40
1.6999999999999993
210
0
220
0
230
-1
0
CIRCLE
5
145
100
AcDbEntity
8
INTERIOR_PROFILES
100
AcDbCircle
10
-28.686250001145339
20
41.927903612351869
30
0
40
1.6999999999999993
210
0
220
0
230
-1
0
CIRCLE
5
146
100
AcDbEntity
8
INTERIOR_PROFILES
100
AcDbCircle
10
-40.000000001122089
20
38.896393436397538
30
0
40
1.6999999999999993
210
0
220
0
230
-1
0
CIRCLE
5
147
100
AcDbEntity
8
INTERIOR_PROFILES
100
AcDbCircle
10
-640.6862500014455
20
81.119883255926226
30
0
40
1.7000000000000171
210
0
220
0
230
-1
0
CIRCLE
5
148
100
AcDbEntity
8
INTERIOR_PROFILES
100
AcDbCircle
10
-687.00000000174396
20
120.04778679916836
30
0
40
1.7000000000000171
210
0
220
0
230
-1
0
CIRCLE
5
149
100
AcDbEntity
8
INTERIOR_PROFILES
100
AcDbCircle
10
-5.0000000017439561
20
120.04778680439523
30
0
40
1.7000000000000004
210
0
220
0
230
-1
0
CIRCLE
5
150
100
AcDbEntity
8
INTERIOR_PROFILES
100
AcDbCircle
10
-621.00000000108093
20
26.261946710584859
30
0
40
1.6999999999999993
210
0
220
0
230
-1
0
CIRCLE
5
151
100
AcDbEntity
8
INTERIOR_PROFILES
100
AcDbCircle
10
-17.372500001295634
20
61.523893436570972
30
0
40
1.6999999999999993
210
0
220
0
230
-1
0
CIRCLE
5
152
100
AcDbEntity
8
INTERIOR_PROFILES
100
AcDbCircle
10
-62.627500001295431
20
61.5238934362241
30
0
40
1.6999999999999993
210
0
220
0
230
-1
0
CIRCLE
5
153
100
AcDbEntity
8
INTERIOR_PROFILES
100
AcDbCircle
10
-652.00000000112198
20
38.896393431707139
30
0
40
1.7000000000000171
210
0
220
0
230
-1
0
CIRCLE
5
154
100
AcDbEntity
8
INTERIOR_PROFILES
100
AcDbCircle
10
-346.00000000108088
20
26.261946710584851
30
0
40
1.6999999999999993
210
0
220
0
230
-1
0
CIRCLE
5
155
100
AcDbEntity
8
INTERIOR_PROFILES
100
AcDbCircle
10
-346.00000000156564
20
96.785840117917019
30
0
40
1.6999999999999993
210
0
220
0
230
-1
0
CIRCLE
5
156
100
AcDbEntity
8
INTERIOR_PROFILES
100
AcDbCircle
10
-71.000000001080821
20
26.261946710584859
30
0
40
1.6999999999999993
210
0
220
0
230
-1
0
CIRCLE
5
157
100
AcDbEntity
8
INTERIOR_PROFILES
100
AcDbCircle
10
-674.62750000129563
20
61.523893431533722
30
0
40
1.7000000000000171
210
0
220
0
230
-1
0
CIRCLE
5
158
100
AcDbEntity
8
INTERIOR_PROFILES
100
AcDbCircle
10
-687.00000000117279
20
2.9999999897307106
30
0
40
1.7000000000000171
210
0
220
0
230
-1
0
CIRCLE
5
159
100
AcDbEntity
8
INTERIOR_PROFILES
100
AcDbCircle
10
-40.000000001295462
20
61.523893436397529
30
0
40
1.6999999999999993
210
0
220
0
230
-1
0
CIRCLE
5
160
100
AcDbEntity
8
INTERIOR_PROFILES
100
AcDbCircle
10
-629.37250000129541
20
61.523893431880587
30
0
40
1.7000000000000171
210
0
220
0
230
-1
0
CIRCLE
5
161
100
AcDbEntity
8
INTERIOR_PROFILES
100
AcDbCircle
10
-640.68625000114525
20
41.927903607661477
30
0
40
1.7000000000000171
210
0
220
0
230
-1
0
CIRCLE
5
162
100
AcDbEntity
8
INTERIOR_PROFILES
100
AcDbCircle
10
-40.000000001468692
20
84.151393436397527
30
0
40
1.6999999999999993
210
0
220
0
230
-1
0
CIRCLE
5
163
100
AcDbEntity
8
INTERIOR_PROFILES
100
AcDbCircle
10
-323.37250000129541
20
61.523893434225762
30
0
40
1.7000000000000171
210
0
220
0
230
-1
0
CIRCLE
5
164
100
AcDbEntity
8
INTERIOR_PROFILES
100
AcDbCircle
10
-368.6275000012954
20
61.523893433878918
30
0
40
1.7000000000000171
210
0
220
0
230
-1
0
CIRCLE
5
165
100
AcDbEntity
8
INTERIOR_PROFILES
100
AcDbCircle
10
-346.00000000112186
20
38.896393434052328
30
0
40
1.7000000000000171
210
0
220
0
230
-1
0
CIRCLE
5
166
100
AcDbEntity
8
INTERIOR_PROFILES
100
AcDbCircle
10
-663.31375000144544
20
81.119883255752811
30
0
40
1.7000000000000171
210
0
220
0
230
-1
0
CIRCLE
5
167
100
AcDbEntity
8
INTERIOR_PROFILES
100
AcDbCircle
10
-663.31375000114531
20
41.927903607488034
30
0
40
1.7000000000000171
210
0
220
0
230
-1
0
CIRCLE
5
168
100
AcDbEntity
8
INTERIOR_PROFILES
100
AcDbCircle
10
-357.31375000114508
20
41.927903609833237
30
0
40
1.7000000000000171
210
0
220
0
230
-1
0
CIRCLE
5
169
100
AcDbEntity
8
INTERIOR_PROFILES
100
AcDbCircle
10
-334.6862500014455
20
81.119883258271443
30
0
40
1.7000000000000171
210
0
220
0
230
-1
0
CIRCLE
5
170
100
AcDbEntity
8
INTERIOR_PROFILES
100
AcDbCircle
10
-334.68625000114514
20
41.92790361000668
30
0
40
1.7000000000000171
210
0
220
0
230
-1
0
CIRCLE
5
171
100
AcDbEntity
8
INTERIOR_PROFILES
100
AcDbCircle
10
-357.31375000144561
20
81.119883258098014
30
0
40
1.7000000000000171
210
0
220
0
230
-1
0
CIRCLE
5
172
100
AcDbEntity
8
INTERIOR_PROFILES
100
AcDbCircle
10
-346.00000000146878
20
84.151393434052324
30
0
40
1.7000000000000171
210
0
220
0
230
-1
0
LINE
5
173
100
AcDbEntity
8
BEND
100
AcDbLine
10
10.000000000437836
20
89.654866765197383
30
2.0206059048177849e-13
11
682.00000000258433
21
89.654866760047156
31
2.0289325775024736e-13
0
LINE
5
174
100
AcDbEntity
8
BEND
100
AcDbLine
10
693.73490632033293
20
15.130973355292445
30
-2.6476035253075736e-09
11
-1.7349063200795456
21
15.130973355292445
31
2.6475625858335405e-09
0
LINE
5
175
100
AcDbEntity
8
BEND
100
AcDbLine
10
-1.7349063199010573
20
107.91681347587435
30
4.6268544551253399e-13
11
693.73490632050448
21
107.91681347054424
31
4.6296300126869028e-13
0
LINE
5
176
100
AcDbEntity
8
BEND
100
AcDbLine
10
682.00000000213424
20
33.392920065878528
30
1.9068080447937064e-13
11
10
21
33.392920065878528
31
1.96787031114809e-13
0
LINE
5
177
100
AcDbEntity
8
BEND_EXTENT
100
AcDbLine
10
692.62113487228021
20
106.7858401152605
30
4.1078251911130792e-13
11
-0.62113487071187024
21
106.78584012057354
31
4.1078251911130792e-13
0
LINE
5
178
100
AcDbEntity
8
BEND_EXTENT
100
AcDbLine
10
-1.9999999998583462
20
109.04778683116866
30
4.5075054799781356e-13
11
694.00000000014143
21
109.04778682583449
31
4.5075054799781356e-13
0
LINE
5
179
100
AcDbEntity
8
BEND_EXTENT
100
AcDbLine
10
10.000000000446505
20
90.785840120488615
30
2.1538326677728037e-13
11
682.00000000259274
21
90.785840115341912
31
2.0650148258027912e-13
0
LINE
5
180
100
AcDbEntity
8
BEND_EXTENT
100
AcDbLine
10
682.00000000257546
20
88.523893404757501
30
1.9761969838327786e-13
11
10.000000000429452
21
88.523893409907714
31
1.9317880628477724e-13
0
LINE
5
181
100
AcDbEntity
8
BEND_EXTENT
100
AcDbLine
10
10.000000000015632
20
34.523893421169632
30
1.9317880628477724e-13
11
682.00000000216164
21
34.523893421169618
31
1.9761969838327786e-13
0
LINE
5
182
100
AcDbEntity
8
BEND_EXTENT
100
AcDbLine
10
682.00000000215414
20
32.261946710584859
30
1.8429702208777599e-13
11
10.000000000007674
21
32.26194671058839
31
1.9317880628477724e-13
0
LINE
5
183
100
AcDbEntity
8
BEND_EXTENT
100
AcDbLine
10
-0.62113487102166687
20
16.261946710584851
30
1.2212453270876722e-13
11
692.62113487196996
21
16.261946710584859
31
1.2212453270876722e-13
0
LINE
5
184
100
AcDbEntity
8
BEND_EXTENT
100
AcDbLine
10
693.99999999999966
20
14.000000000000021
30
9.9920072216264089e-14
11
-1.99999999999946
21
14.000000000000021
31
9.9920072216264089e-14
0
ENDSEC
0
SECTION
2
OBJECTS
0
DICTIONARY
5
C
100
AcDbDictionary
3
ACAD_GROUP
350
D
3
ACAD_MLINESTYLE
350
17
0
DICTIONARY
5
D
100
AcDbDictionary
0
DICTIONARY
5
1A
330
C
100
AcDbDictionary
0
DICTIONARY
5
17
100
AcDbDictionary
0
ENDSEC
0
EOF
