0
SECTION
2
HEADER
9
$INSUNITS
70
4
9
$ACADVER
1
AC1014
9
$HANDSEED
5
FFFF
0
ENDSEC
0
SECTION
2
TABLES
0
TABLE
2
VPORT
5
8
100
AcDbSymbolTable
0
ENDTAB
0
TABLE
2
LTYPE
5
5
100
AcDbSymbolTable
0
LTYPE
5
14
100
AcDbSymbolTableRecord
100
AcDbLinetypeTableRecord
2
BYBLOCK
70
0
0
LTYPE
5
15
100
AcDbSymbolTableRecord
100
AcDbLinetypeTableRecord
2
BYLAYER
70
0
0
LTYPE
5
16
100
AcDbSymbolTableRecord
100
AcDbLinetypeTableRecord
2
DASHED
70
0
3
Dashed __ __ __ __ __ __ __ __ __ __ __ __ __ _
72
65
73
2
40
0.75
49
0.5
74
0
49
-0.25
74
0
0
ENDTAB
0
TABLE
2
LAYER
5
2
100
AcDbSymbolTable
70
2
0
LAYER
5
50
100
AcDbSymbolTableRecord
100
AcDbLayerTableRecord
2
0
70
0
62
7
6
CONTINUOUS
0
ENDTAB
0
TABLE
2
STYLE
5
3
100
AcDbSymbolTable
70
1
0
STYLE
5
11
100
AcDbSymbolTableRecord
100
AcDbTextStyleTableRecord
2
STANDARD
70
0
0
ENDTAB
0
TABLE
2
VIEW
5
6
100
AcDbSymbolTable
70
0
0
ENDTAB
0
TABLE
2
UCS
5
7
100
AcDbSymbolTable
70
0
0
ENDTAB
0
TABLE
2
APPID
5
9
100
AcDbSymbolTable
70
2
0
APPID
5
12
100
AcDbSymbolTableRecord
100
AcDbRegAppTableRecord
2
ACAD
70
0
0
ENDTAB
0
TABLE
2
DIMSTYLE
5
A
100
AcDbSymbolTable
70
1
0
ENDTAB
0
TABLE
2
BLOCK_RECORD
5
1
100
AcDbSymbolTable
70
1
0
BLOCK_RECORD
5
1F
100
AcDbSymbolTableRecord
100
AcDbBlockTableRecord
2
*MODEL_SPACE
0
BLOCK_RECORD
5
1B
100
AcDbSymbolTableRecord
100
AcDbBlockTableRecord
2
*PAPER_SPACE
0
ENDTAB
0
ENDSEC
0
SECTION
2
BLOCKS
0
BLOCK
5
20
100
AcDbEntity
100
AcDbBlockBegin
2
*MODEL_SPACE
0
ENDBLK
5
21
100
AcDbEntity
100
AcDbBlockEnd
0
BLOCK
5
1C
100
AcDbEntity
100
AcDbBlockBegin
2
*PAPER_SPACE
0
ENDBLK
5
1D
100
AcDbEntity
100
AcDbBlockEnd
0
ENDSEC
0
SECTION
2
ENTITIES
0
LWPOLYLINE
5
100
100
AcDbEntity
8
OUTER_PROFILES
100
AcDbPolyline
90
20
70
1
43
0.0
10
-4.2632564145606011e-13
20
75.241236032465991
10
3.4445772522241214
20
78.685813284690482
42
0.41421356237305401
10
3.4445772522241418
20
80.100026847063475
10
-2.8421709430404007e-13
20
83.544604099287966
10
-2.8421709430404007e-13
20
85.523893421169305
10
893.42389342116928
20
85.523893421169305
10
893.42389342116928
20
83.544604099287938
10
889.97931616894493
20
80.100026847063489
42
0.414213562373073
10
889.97931616894493
20
78.685813284690425
10
893.42389342116928
20
75.241236032465991
10
893.42389342116928
20
63.282657388703299
10
889.97931616894493
20
59.838080136478879
42
0.4142135623730766
10
889.97931616894493
20
58.423866574105801
10
893.42389342116928
20
54.979289321881346
10
893.42389342116928
20
0
10
0
20
0
10
0
20
54.979289321881346
10
3.4445772522242502
20
58.423866574105567
42
0.4142135623730715
10
3.4445772522242661
20
59.838080136478602
10
-4.2632564145606011e-13
20
63.282657388703299
0
CIRCLE
5
101
100
AcDbEntity
8
INTERIOR_PROFILES
100
AcDbCircle
10
-163.21194671058464
20
25.999999999999996
30
0
40
1.2645000000000017
210
0
220
0
230
-1
0
CIRCLE
5
102
100
AcDbEntity
8
INTERIOR_PROFILES
100
AcDbCircle
10
-530.2119467105847
20
25.999999999999996
30
0
40
1.2645000000000017
210
0
220
0
230
-1
0
CIRCLE
5
103
100
AcDbEntity
8
INTERIOR_PROFILES
100
AcDbCircle
10
-763.2119467105847
20
25.999999999999996
30
0
40
1.2645000000000017
210
0
220
0
230
-1
0
CIRCLE
5
104
100
AcDbEntity
8
INTERIOR_PROFILES
100
AcDbCircle
10
-130.21194671058467
20
25.999999999999996
30
0
40
1.2645000000000017
210
0
220
0
230
-1
0
CIRCLE
5
105
100
AcDbEntity
8
INTERIOR_PROFILES
100
AcDbCircle
10
-463.21194671058464
20
25.999999999999996
30
0
40
1.2645000000000017
210
0
220
0
230
-1
0
CIRCLE
5
106
100
AcDbEntity
8
INTERIOR_PROFILES
100
AcDbCircle
10
-876.2119467105847
20
28.999999999999993
30
0
40
1.6999999999999993
210
0
220
0
230
-1
0
CIRCLE
5
107
100
AcDbEntity
8
INTERIOR_PROFILES
100
AcDbCircle
10
-77.211946710584698
20
3.9999999999999947
30
0
40
1.6999999999999993
210
0
220
0
230
-1
0
CIRCLE
5
108
100
AcDbEntity
8
INTERIOR_PROFILES
100
AcDbCircle
10
-851.2119467105847
20
28.999999999999993
30
0
40
1.6999999999999993
210
0
220
0
230
-1
0
CIRCLE
5
109
100
AcDbEntity
8
INTERIOR_PROFILES
100
AcDbCircle
10
-430.2119467105847
20
25.999999999999996
30
0
40
1.2645000000000017
210
0
220
0
230
-1
0
CIRCLE
5
110
100
AcDbEntity
8
INTERIOR_PROFILES
100
AcDbCircle
10
-330.2119467105847
20
25.999999999999996
30
0
40
1.2645000000000017
210
0
220
0
230
-1
0
CIRCLE
5
111
100
AcDbEntity
8
INTERIOR_PROFILES
100
AcDbCircle
10
-851.2119467105847
20
3.9999999999999947
30
0
40
1.6999999999999993
210
0
220
0
230
-1
0
CIRCLE
5
112
100
AcDbEntity
8
INTERIOR_PROFILES
100
AcDbCircle
10
-816.21194671058458
20
3.9999999999999947
30
0
40
1.7000000000000004
210
0
220
0
230
-1
0
CIRCLE
5
113
100
AcDbEntity
8
INTERIOR_PROFILES
100
AcDbCircle
10
-730.2119467105847
20
25.999999999999996
30
0
40
1.2645000000000017
210
0
220
0
230
-1
0
CIRCLE
5
114
100
AcDbEntity
8
INTERIOR_PROFILES
100
AcDbCircle
10
-363.21194671058464
20
25.999999999999996
30
0
40
1.2645000000000017
210
0
220
0
230
-1
0
CIRCLE
5
115
100
AcDbEntity
8
INTERIOR_PROFILES
100
AcDbCircle
10
-563.2119467105847
20
25.999999999999996
30
0
40
1.2645000000000017
210
0
220
0
230
-1
0
CIRCLE
5
116
100
AcDbEntity
8
INTERIOR_PROFILES
100
AcDbCircle
10
-42.211946710584556
20
3.9999999999999947
30
0
40
1.7000000000000004
210
0
220
0
230
-1
0
LINE
5
117
100
AcDbEntity
8
BEND
100
AcDbLine
10
4.0809733552922012
20
85.523893421169305
30
-2.1753842798251617e-13
11
4.0809733552922012
21
79.392920065876993
31
-1.4572420080162254e-13
0
LINE
5
118
100
AcDbEntity
8
BEND
100
AcDbLine
10
4.0809733552922012
20
79.392920065876993
30
-1.4572420080162254e-13
11
4.0809733552922012
21
59.130973355292326
31
-1.2136926867202601e-13
0
LINE
5
119
100
AcDbEntity
8
BEND
100
AcDbLine
10
4.0809733552922012
20
59.130973355292326
30
-1.2136926867202601e-13
11
4.0809733552922012
21
0
31
-1.1379786002407855e-13
0
LINE
5
120
100
AcDbEntity
8
BEND
100
AcDbLine
10
889.34292006587714
20
79.392920065876993
30
-1.4572420080162254e-13
11
889.34292006587714
21
85.523893421169305
31
-2.1309753588401555e-13
0
LINE
5
121
100
AcDbEntity
8
BEND
100
AcDbLine
10
889.34292006587702
20
59.130973355292326
30
-1.2136926867202601e-13
11
889.34292006587714
21
79.392920065876993
31
-1.4572420080162254e-13
0
LINE
5
122
100
AcDbEntity
8
BEND
100
AcDbLine
10
889.34292006587702
20
-1.4290628853187315e-28
30
-5.6898930012039273e-14
11
889.34292006587702
21
59.130973355292326
31
-1.2136926867202601e-13
0
LINE
5
123
100
AcDbEntity
8
BEND
100
AcDbLine
10
889.68642295013137
20
59.130973355292326
30
-2.3110492948175787e-13
11
3.737470471037625
21
59.130973355292326
31
-2.9879528814684797e-13
0
LINE
5
124
100
AcDbEntity
8
BEND
100
AcDbLine
10
889.68642295013137
20
79.392920065876993
30
-1.8813457718713722e-13
11
3.7374704710374829
21
79.392920065876993
31
-3.2296244534981806e-13
0
LINE
5
125
100
AcDbEntity
8
BEND_EXTENT
100
AcDbLine
10
890.47389342116935
20
57.929289321881292
30
-1.7720511242150853e-13
11
890.47389342116935
21
0
31
-5.7066697466212805e-14
0
LINE
5
126
100
AcDbEntity
8
BEND_EXTENT
100
AcDbLine
10
888.21194671058481
20
0
30
0
11
888.21194671058481
21
58
31
-1.2042345987278603e-13
0
LINE
5
127
100
AcDbEntity
8
BEND_EXTENT
100
AcDbLine
10
888.21194671058481
20
58
30
-1.2042345987278603e-13
11
5.2119467105843853
21
58
31
-1.2042345987278603e-13
0
LINE
5
128
100
AcDbEntity
8
BEND_EXTENT
100
AcDbLine
10
5.2119467105843853
20
58
30
-1.2042345987278603e-13
11
5.2119467105843853
21
0
31
0
0
LINE
5
129
100
AcDbEntity
8
BEND_EXTENT
100
AcDbLine
10
890.47389342116935
20
85.523893421169305
30
-2.1321268573182184e-13
11
890.47389342116935
21
80.594604099287949
31
-2.0170450635710925e-13
0
LINE
5
130
100
AcDbEntity
8
BEND_EXTENT
100
AcDbLine
10
888.21194671058481
20
80.523893421169305
30
-1.4942549795435408e-13
11
888.21194671058481
21
85.523893421169305
31
-1.6424772280050866e-13
0
LINE
5
131
100
AcDbEntity
8
BEND_EXTENT
100
AcDbLine
10
5.2119467105841011
20
80.523893421169305
30
-1.4942549795435408e-13
11
888.21194671058481
21
80.523893421169305
31
-1.4942549795435408e-13
0
LINE
5
132
100
AcDbEntity
8
BEND_EXTENT
100
AcDbLine
10
5.2119467105841011
20
85.523893421169305
30
-1.6424772280050866e-13
11
5.2119467105841011
21
80.523893421169305
31
-1.4942549795435408e-13
0
LINE
5
133
100
AcDbEntity
8
BEND_EXTENT
100
AcDbLine
10
2.9499999999995907
20
60.332657388703325
30
-2.673752255324866e-13
11
2.9499999999995907
21
78.19123603246598
31
-3.0445439499269608e-13
0
LWPOLYLINE
5
134
100
AcDbEntity
8
BEND_EXTENT
100
AcDbPolyline
90
4
70
1
43
0.0
10
5.2119467105841011
20
78.261946710584652
10
5.2119467105843853
20
60.261946710584652
10
888.21194671058481
20
60.261946710584652
10
888.21194671058481
20
78.261946710584652
0
LINE
5
135
100
AcDbEntity
8
BEND_EXTENT
100
AcDbLine
10
2.9500000000000171
20
1.8797616938320876e-26
30
-2.8421709430404007e-13
11
2.9500000000000171
21
57.929289321881328
31
-4.0449373996115365e-13
0
LINE
5
136
100
AcDbEntity
8
BEND_EXTENT
100
AcDbLine
10
2.9499999999997328
20
80.594604099287963
30
-3.0944442771604903e-13
11
2.9499999999997328
21
85.523893421169305
31
-3.1967894624803057e-13
0
LINE
5
137
100
AcDbEntity
8
BEND_EXTENT
100
AcDbLine
10
890.47389342116935
20
78.191236032466009
30
-2.0353308321878735e-13
11
890.47389342116935
21
60.332657388703304
31
-1.7850767124897948e-13
0
ENDSEC
0
SECTION
2
OBJECTS
0
DICTIONARY
5
C
100
AcDbDictionary
3
ACAD_GROUP
350
D
3
ACAD_MLINESTYLE
350
17
0
DICTIONARY
5
D
100
AcDbDictionary
0
DICTIONARY
5
1A
330
C
100
AcDbDictionary
0
DICTIONARY
5
17
100
AcDbDictionary
0
ENDSEC
0
EOF
