0
SECTION
2
HEADER
9
$INSUNITS
70
4
9
$ACADVER
1
AC1014
9
$HANDSEED
5
FFFF
0
ENDSEC
0
SECTION
2
TABLES
0
TABLE
2
VPORT
5
8
100
AcDbSymbolTable
0
ENDTAB
0
TABLE
2
LTYPE
5
5
100
AcDbSymbolTable
0
LTYPE
5
14
100
AcDbSymbolTableRecord
100
AcDbLinetypeTableRecord
2
BYBLOCK
70
0
0
LTYPE
5
15
100
AcDbSymbolTableRecord
100
AcDbLinetypeTableRecord
2
BYLAYER
70
0
0
LTYPE
5
16
100
AcDbSymbolTableRecord
100
AcDbLinetypeTableRecord
2
DASHED
70
0
3
Dashed __ __ __ __ __ __ __ __ __ __ __ __ __ _
72
65
73
2
40
0.75
49
0.5
74
0
49
-0.25
74
0
0
ENDTAB
0
TABLE
2
LAYER
5
2
100
AcDbSymbolTable
70
2
0
LAYER
5
50
100
AcDbSymbolTableRecord
100
AcDbLayerTableRecord
2
0
70
0
62
7
6
CONTINUOUS
0
ENDTAB
0
TABLE
2
STYLE
5
3
100
AcDbSymbolTable
70
1
0
STYLE
5
11
100
AcDbSymbolTableRecord
100
AcDbTextStyleTableRecord
2
STANDARD
70
0
0
ENDTAB
0
TABLE
2
VIEW
5
6
100
AcDbSymbolTable
70
0
0
ENDTAB
0
TABLE
2
UCS
5
7
100
AcDbSymbolTable
70
0
0
ENDTAB
0
TABLE
2
APPID
5
9
100
AcDbSymbolTable
70
2
0
APPID
5
12
100
AcDbSymbolTableRecord
100
AcDbRegAppTableRecord
2
ACAD
70
0
0
ENDTAB
0
TABLE
2
DIMSTYLE
5
A
100
AcDbSymbolTable
70
1
0
ENDTAB
0
TABLE
2
BLOCK_RECORD
5
1
100
AcDbSymbolTable
70
1
0
BLOCK_RECORD
5
1F
100
AcDbSymbolTableRecord
100
AcDbBlockTableRecord
2
*MODEL_SPACE
0
BLOCK_RECORD
5
1B
100
AcDbSymbolTableRecord
100
AcDbBlockTableRecord
2
*PAPER_SPACE
0
ENDTAB
0
ENDSEC
0
SECTION
2
BLOCKS
0
BLOCK
5
20
100
AcDbEntity
100
AcDbBlockBegin
2
*MODEL_SPACE
0
ENDBLK
5
21
100
AcDbEntity
100
AcDbBlockEnd
0
BLOCK
5
1C
100
AcDbEntity
100
AcDbBlockBegin
2
*PAPER_SPACE
0
ENDBLK
5
1D
100
AcDbEntity
100
AcDbBlockEnd
0
ENDSEC
0
SECTION
2
ENTITIES
0
LINE
5
100
100
AcDbEntity
8
OUTER_PROFILES
100
AcDbLine
10
-6.9604766395059414e-10
20
123.04778684235963
30
0
11
591.99999999930378
21
123.04778684916101
31
0
0
ARC
5
101
100
AcDbEntity
8
OUTER_PROFILES
100
AcDbCircle
10
-591.99999999932686
20
121.04778684916101
30
0
40
1.9999999999999929
210
0
220
0
230
-1
100
AcDbArc
50
89.999999999338854
51
180
0
LINE
5
102
100
AcDbEntity
8
OUTER_PROFILES
100
AcDbLine
10
593.99999999932686
20
121.04778684918404
30
0
11
593.99999999946453
21
109.04764817601486
31
0
0
ARC
5
103
100
AcDbEntity
8
OUTER_PROFILES
100
AcDbCircle
10
-591.45549999952607
20
109.04764817598615
30
0
40
2.5444999999385232
210
0
220
0
230
-1
100
AcDbArc
50
180
51
257.37328904170766
0
ELLIPSE
5
104
100
AcDbEntity
8
OUTER_PROFILES
100
AcDbEllipse
10
593.99999999906947
20
90.785840138600349
30
0
11
1.8851615826960634e-10
21
-16
31
0.0
40
0.75000000000000011
41
3.3080500344368353
42
4.7123889803844667
0
LINE
5
105
100
AcDbEntity
8
OUTER_PROFILES
100
AcDbLine
10
581.99999999906947
20
90.785840138462518
30
0
11
581.99999999966712
21
32.261946710583722
31
0
0
ELLIPSE
5
106
100
AcDbEntity
8
OUTER_PROFILES
100
AcDbEllipse
10
593.99999999966712
20
32.261946710583729
30
0
11
4.6949606016370482e-12
21
16
31
0.0
40
0.75000000000000011
41
1.5707963267951168
42
2.9751352726985489
0
ARC
5
107
100
AcDbEntity
8
OUTER_PROFILES
100
AcDbCircle
10
-591.45549999966738
20
14.000138673317917
30
0
40
2.5445000000000055
210
0
220
0
230
-1
100
AcDbArc
50
102.62671096093932
51
180
0
LINE
5
108
100
AcDbEntity
8
OUTER_PROFILES
100
AcDbLine
10
593.99999999966735
20
14.000138673326017
30
0
11
593.9999999996777
21
2.0000000000000107
31
0
0
ARC
5
109
100
AcDbEntity
8
OUTER_PROFILES
100
AcDbCircle
10
-591.9999999996777
20
2.0000000000000107
30
0
40
2.0000000000000284
210
0
220
0
230
-1
100
AcDbArc
50
180
51
270
0
LINE
5
110
100
AcDbEntity
8
OUTER_PROFILES
100
AcDbLine
10
591.9999999996777
20
1.0269562977782698e-14
30
0
11
0
21
-7.2164496600635175e-15
31
0
0
ARC
5
111
100
AcDbEntity
8
OUTER_PROFILES
100
AcDbCircle
10
-7.1054273576010019e-14
20
1.9999999999999929
30
0
40
2
210
-0
220
0
230
-1
100
AcDbArc
50
-89.999999999997954
51
0
0
LINE
5
112
100
AcDbEntity
8
OUTER_PROFILES
100
AcDbLine
10
-1.9999999999999289
20
2.0000000000000244
30
0
11
-2.0000000000001705
21
14.000138673318352
31
0
0
ARC
5
113
100
AcDbEntity
8
OUTER_PROFILES
100
AcDbCircle
10
-0.54449999998972487
20
14.00013867331797
30
0
40
2.5444999999898954
210
0
220
0
230
-1
100
AcDbArc
50
0
51
77.373289039060907
0
ELLIPSE
5
114
100
AcDbEntity
8
OUTER_PROFILES
100
AcDbEllipse
10
-2.0000000000103313
20
32.261946710583729
30
0
11
4.6949536060459814e-12
21
-16
31
0.0
40
0.75000000000000011
41
0.1664573808912575
42
1.5707963267948966
0
LINE
5
115
100
AcDbEntity
8
OUTER_PROFILES
100
AcDbLine
10
9.9999999999896705
20
32.261946710587253
30
0
11
9.999999999392033
21
90.78584013188734
31
0
0
ELLIPSE
5
116
100
AcDbEntity
8
OUTER_PROFILES
100
AcDbEllipse
10
-2.0000000006079688
20
90.785840131753005
30
0
11
-1.7912624406192334e-10
21
16
31
0.0
40
0.75000000000000011
41
4.7123889803846879
42
6.1167279262655194
0
ARC
5
117
100
AcDbEntity
8
OUTER_PROFILES
100
AcDbCircle
10
-0.54449999952623784
20
109.04764816897092
30
0
40
2.5444999999999918
210
-0
220
0
230
-1
100
AcDbArc
50
282.62671096198915
51
360
0
LINE
5
118
100
AcDbEntity
8
OUTER_PROFILES
100
AcDbLine
10
-2.0000000004737633
20
109.04764816893055
30
0
11
-2.0000000006730261
21
121.04778684233665
31
0
0
ARC
5
119
100
AcDbEntity
8
OUTER_PROFILES
100
AcDbCircle
10
6.730260793119669e-10
20
121.04778684235964
30
0
40
2
210
-0
220
0
230
-1
100
AcDbArc
50
0
51
89.999999999340488
0
CIRCLE
5
120
100
AcDbEntity
8
INTERIOR_PROFILES
100
AcDbCircle
10
-586.99999999888166
20
120.04778685118421
30
0
40
1.7000000000000171
210
0
220
0
230
-1
0
CIRCLE
5
121
100
AcDbEntity
8
INTERIOR_PROFILES
100
AcDbCircle
10
-4.9999999988816768
20
120.04778684387075
30
0
40
1.7000000000000004
210
0
220
0
230
-1
0
CIRCLE
5
122
100
AcDbEntity
8
INTERIOR_PROFILES
100
AcDbCircle
10
-520.99999999982845
20
26.261946710583715
30
0
40
1.6999999999999993
210
0
220
0
230
-1
0
CIRCLE
5
123
100
AcDbEntity
8
INTERIOR_PROFILES
100
AcDbCircle
10
-220.99999999982833
20
26.261946710583722
30
0
40
1.6999999999999993
210
0
220
0
230
-1
0
CIRCLE
5
124
100
AcDbEntity
8
INTERIOR_PROFILES
100
AcDbCircle
10
-295.99999999982833
20
26.261946710583722
30
0
40
1.6999999999999993
210
0
220
0
230
-1
0
CIRCLE
5
125
100
AcDbEntity
8
INTERIOR_PROFILES
100
AcDbCircle
10
-70.999999999828418
20
26.261946710583722
30
0
40
1.6999999999999993
210
0
220
0
230
-1
0
CIRCLE
5
126
100
AcDbEntity
8
INTERIOR_PROFILES
100
AcDbCircle
10
-370.99999999982833
20
26.261946710583722
30
0
40
1.6999999999999993
210
0
220
0
230
-1
0
CIRCLE
5
127
100
AcDbEntity
8
INTERIOR_PROFILES
100
AcDbCircle
10
-586.9999999997035
20
2.9999999953134626
30
0
40
1.7000000000000171
210
0
220
0
230
-1
0
CIRCLE
5
128
100
AcDbEntity
8
INTERIOR_PROFILES
100
AcDbCircle
10
-4.9999999997034905
20
3.0000000013730066
30
0
40
1.7000000000000004
210
0
220
0
230
-1
0
ARC
5
129
100
AcDbEntity
8
INTERIOR_PROFILES
100
AcDbCircle
10
-95.999999999732282
20
13.000000000425604
30
0
40
1.6999999999999971
210
0
220
0
230
-1
100
AcDbArc
50
-216.03187905473325
51
36.031879054734617
0
SPLINE
5
130
100
AcDbEntity
8
INTERIOR_PROFILES
100
AcDbSpline
70
0
71
3
72
11
73
7
74
0
42
0.000000001
43
0.0000000001
44
0.0000000001
40
0.31591804559214121
40
0.31591804559214121
40
0.31591804559214121
40
0.31591804559214121
40
0.50001066398434291
40
0.50001066398434291
40
0.50001066398434291
40
0.62030149156918091
40
0.62030149156918091
40
0.62030149156918091
40
0.62030149156918091
10
97.374772708528639
20
14.000000000000004
30
0
10
96.99085089556938
20
14.380019766314573
30
0
10
96.313941272340884
20
14.58761710110636
30
0
10
95.669465151457018
20
14.490045216103775
30
0
10
95.248347962637396
20
14.426289249685995
30
0
10
94.87609162766006
20
14.248314639597348
30
0
10
94.625227290935996
20
14.000000000000039
30
0
0
ARC
5
131
100
AcDbEntity
8
INTERIOR_PROFILES
100
AcDbCircle
10
-45.999999999807457
20
13.000000000946184
30
0
40
1.7000000000000011
210
0
220
0
230
-1
100
AcDbArc
50
-216.03187903303612
51
36.0318790330372
0
SPLINE
5
132
100
AcDbEntity
8
INTERIOR_PROFILES
100
AcDbSpline
70
0
71
3
72
11
73
7
74
0
42
0.000000001
43
0.0000000001
44
0.0000000001
40
0.31591804559034453
40
0.31591804559034453
40
0.31591804559034453
40
0.31591804559034453
40
0.50001066396604932
40
0.50001066396604932
40
0.50001066396604932
40
0.62030149169343074
40
0.62030149169343074
40
0.62030149169343074
40
0.62030149169343074
10
47.374772708982604
20
14.000000000000021
30
0
10
46.990850896278644
20
14.380019766364365
30
0
10
46.313941273209878
20
14.587617101379369
30
0
10
45.669465152371203
20
14.490045216628422
30
0
10
45.248347963044324
20
14.426289250293802
30
0
10
44.876091627509567
20
14.248314639946331
30
0
10
44.625227290632594
20
13.999999999999995
30
0
0
SPLINE
5
133
100
AcDbEntity
8
INTERIOR_PROFILES
100
AcDbSpline
70
0
71
3
72
11
73
7
74
0
42
0.000000001
43
0.0000000001
44
0.0000000001
40
0.31591804560111891
40
0.31591804560111891
40
0.31591804560111891
40
0.31591804560111891
40
0.50001066408092576
40
0.50001066408092576
40
0.50001066408092576
40
0.62030149094793385
40
0.62030149094793385
40
0.62030149094793385
40
0.62030149094793385
10
347.37477270671059
20
14.000000000000004
30
0
10
346.99085089246296
20
14.380019766077412
30
0
10
346.31394126840917
20
14.587617099752004
30
0
10
345.6694651472834
20
14.490045213472431
30
0
10
345.24834796101914
20
14.426289246631043
30
0
10
344.87609162885406
20
14.248314637842405
30
0
10
344.62522729290458
20
14.000000000000004
30
0
0
ARC
5
134
100
AcDbEntity
8
INTERIOR_PROFILES
100
AcDbCircle
10
-345.99999999980759
20
12.999999997822718
30
0
40
1.6999999999999709
210
0
220
0
230
-1
100
AcDbArc
50
-216.03187916321247
51
36.031879163212473
0
ARC
5
135
100
AcDbEntity
8
INTERIOR_PROFILES
100
AcDbCircle
10
-295.99999999980759
20
12.999999998343297
30
0
40
1.699999999999996
210
0
220
0
230
-1
100
AcDbArc
50
-216.03187914151647
51
36.031879141515539
0
SPLINE
5
136
100
AcDbEntity
8
INTERIOR_PROFILES
100
AcDbSpline
70
0
71
3
72
11
73
7
74
0
42
0.000000001
43
0.0000000001
44
0.0000000001
40
0.31591804559932218
40
0.31591804559932218
40
0.31591804559932218
40
0.31591804559932218
40
0.5000106640616494
40
0.5000106640616494
40
0.5000106640616494
40
0.62030149107218324
40
0.62030149107218324
40
0.62030149107218324
40
0.62030149107218324
10
297.37477270708928
20
14.000000000000004
30
0
10
296.99085089309915
20
14.380019766124974
30
0
10
296.31394126921026
20
14.58761710002296
30
0
10
295.66946514813276
20
14.490045213998624
30
0
10
295.24834796135752
20
14.426289247241888
30
0
10
294.87609162863021
20
14.248314638193289
30
0
10
294.62522729252589
20
13.999999999999995
30
0
0
SPLINE
5
137
100
AcDbEntity
8
INTERIOR_PROFILES
100
AcDbSpline
70
0
71
3
72
11
73
7
74
0
42
0.000000001
43
0.0000000001
44
0.0000000001
40
0.31591804559571651
40
0.31591804559571651
40
0.31591804559571651
40
0.31591804559571651
40
0.50001066402329275
40
0.50001066402329275
40
0.50001066402329275
40
0.62030149132180767
40
0.62030149132180767
40
0.62030149132180767
40
0.62030149132180767
10
78.374772707727942
20
14.000000000000012
30
0
10
77.990850894254535
20
14.380019766221235
30
0
10
77.313941270694855
20
14.587617100568098
30
0
10
76.669465149713218
20
14.490045215055236
30
0
10
76.248347961912941
20
14.426289248468045
30
0
10
75.876091628057765
20
14.248314638897615
30
0
10
75.625227291643071
20
14.000000000000004
30
0
0
ARC
5
138
100
AcDbEntity
8
INTERIOR_PROFILES
100
AcDbCircle
10
-76.999999999685471
20
12.999999999389189
30
0
40
1.7000000000000224
210
0
220
0
230
-1
100
AcDbArc
50
-216.031879097927
51
36.031879097928183
0
SPLINE
5
139
100
AcDbEntity
8
INTERIOR_PROFILES
100
AcDbSpline
70
0
71
3
72
11
73
7
74
0
42
0.000000001
43
0.0000000001
44
0.0000000001
40
0.31591804559752684
40
0.31591804559752684
40
0.31591804559752684
40
0.31591804559752684
40
0.50001066404262418
40
0.50001066404262418
40
0.50001066404262418
40
0.62030149119643307
40
0.62030149119643307
40
0.62030149119643307
40
0.62030149119643307
10
247.37477270739262
20
14.000000000000039
30
0
10
246.99085089365965
20
14.380019766172909
30
0
10
246.31394126993428
20
14.587617100294441
30
0
10
245.66946514890424
20
14.490045214524443
30
0
10
245.24834796161906
20
14.426289247851996
30
0
10
244.87609162833067
20
14.248314638543791
30
0
10
244.62522729207194
20
14.000000000000004
30
0
0
ARC
5
140
100
AcDbEntity
8
INTERIOR_PROFILES
100
AcDbCircle
10
-245.99999999973227
20
12.999999998863876
30
0
40
1.7000000000000213
210
0
220
0
230
-1
100
AcDbArc
50
-216.03187911982113
51
36.031879119820715
0
ARC
5
141
100
AcDbEntity
8
INTERIOR_PROFILES
100
AcDbCircle
10
-195.99999999973227
20
12.999999999384446
30
0
40
1.699999999999994
210
0
220
0
230
-1
100
AcDbArc
50
-216.03187909812459
51
36.031879098126119
0
SPLINE
5
142
100
AcDbEntity
8
INTERIOR_PROFILES
100
AcDbSpline
70
0
71
3
72
11
73
7
74
0
42
0.000000001
43
0.0000000001
44
0.0000000001
40
0.31591804559572911
40
0.31591804559572911
40
0.31591804559572911
40
0.31591804559572911
40
0.50001066402333394
40
0.50001066402333394
40
0.50001066402333394
40
0.62030149132068202
40
0.62030149132068202
40
0.62030149132068202
40
0.62030149132068202
10
197.37477270777134
20
13.999999999999995
30
0
10
196.99085089429582
20
14.380019766220622
30
0
10
196.31394127073543
20
14.58761710056538
30
0
10
195.66946514975365
20
14.490045215050662
30
0
10
195.24834796195739
20
14.426289248462876
30
0
10
194.87609162810679
20
14.248314638894595
30
0
10
194.62522729169331
20
14.000000000000012
30
0
0
ARC
5
143
100
AcDbEntity
8
INTERIOR_PROFILES
100
AcDbCircle
10
-4.999999999855973
20
13.00000000137282
30
0
40
1.7000000000000006
210
0
220
0
230
-1
100
AcDbArc
50
-216.03187901525496
51
36.031879015256457
0
SPLINE
5
144
100
AcDbEntity
8
INTERIOR_PROFILES
100
AcDbSpline
70
0
71
3
72
11
73
7
74
0
42
0.000000001
43
0.0000000001
44
0.0000000001
40
0.31591804558887787
40
0.31591804558887787
40
0.31591804558887787
40
0.31591804558887787
40
0.50001066394997196
40
0.50001066394997196
40
0.50001066394997196
40
0.62030149179525484
40
0.62030149179525484
40
0.62030149179525484
40
0.62030149179525484
10
6.3747727093414142
20
14.000000000000012
30
0
10
5.9908508968488405
20
14.380019766403063
30
0
10
5.3139412739169956
20
14.587617101600836
30
0
10
4.6694651531187503
20
14.490045217060112
30
0
10
4.2483479633720833
20
14.426289250795321
30
0
10
3.8760916273750468
20
14.24831464023443
30
0
10
3.625227290370745
20
14.00000000000003
30
0
0
SPLINE
5
145
100
AcDbEntity
8
INTERIOR_PROFILES
100
AcDbSpline
70
0
71
3
72
11
73
7
74
0
42
0.000000001
43
0.0000000001
44
0.0000000001
40
0.3159180455949841
40
0.3159180455949841
40
0.3159180455949841
40
0.3159180455949841
40
0.50001066401596828
40
0.50001066401596828
40
0.50001066401596828
40
0.62030149137255552
40
0.62030149137255552
40
0.62030149137255552
40
0.62030149137255552
10
32.374772707882684
20
14.000000000000012
30
0
10
31.990850894513088
20
14.380019766242027
30
0
10
31.313941271017995
20
14.58761710067991
30
0
10
30.669465150054265
20
14.49004521526926
30
0
10
30.248347962047362
20
14.426289248715793
30
0
10
29.876091627965167
20
14.24831463903975
30
0
10
29.625227291488443
20
13.999999999999995
30
0
0
ARC
5
146
100
AcDbEntity
8
INTERIOR_PROFILES
100
AcDbCircle
10
-30.999999999685386
20
12.99999999960181
30
0
40
1.7000000000001583
210
0
220
0
230
-1
100
AcDbArc
50
-216.03187908906239
51
36.03187908906893
0
SPLINE
5
147
100
AcDbEntity
8
INTERIOR_PROFILES
100
AcDbSpline
70
0
71
3
72
11
73
7
74
0
42
0.000000001
43
0.0000000001
44
0.0000000001
40
0.31591804559393516
40
0.31591804559393516
40
0.31591804559393516
40
0.31591804559393516
40
0.50001066400405092
40
0.50001066400405092
40
0.50001066400405092
40
0.62030149144493518
40
0.62030149144493518
40
0.62030149144493518
40
0.62030149144493518
10
147.37477270814998
20
14.000000000000012
30
0
10
146.99085089493229
20
14.380019766267917
30
0
10
146.31394127153646
20
14.587617100836292
30
0
10
145.66946515060309
20
14.49004521557689
30
0
10
145.24834796229598
20
14.4262892490738
30
0
10
144.87609162788311
20
14.248314639245656
30
0
10
144.62522729131464
20
14.000000000000021
30
0
0
ARC
5
148
100
AcDbEntity
8
INTERIOR_PROFILES
100
AcDbCircle
10
-145.99999999973227
20
12.999999999905025
30
0
40
1.7000000000000401
210
0
220
0
230
-1
100
AcDbArc
50
-216.03187907642828
51
36.031879076430251
0
SPLINE
5
149
100
AcDbEntity
8
INTERIOR_PROFILES
100
AcDbSpline
70
0
71
3
72
11
73
7
74
0
42
0.000000001
43
0.0000000001
44
0.0000000001
40
0.31591804560872405
40
0.31591804560872405
40
0.31591804560872405
40
0.31591804560872405
40
0.50001066416124751
40
0.50001066416124751
40
0.50001066416124751
40
0.62030149042170701
40
0.62030149042170701
40
0.62030149042170701
40
0.62030149042170701
10
562.37477270497686
20
13.999999999999995
30
0
10
561.99085088964102
20
14.380019765873335
30
0
10
561.31394126489579
20
14.587617098601644
30
0
10
560.66946514357016
20
14.490045211245892
30
0
10
560.24834795946492
20
14.426289244047954
30
0
10
559.87609162967476
20
14.248314636358757
30
0
10
559.62522729437842
20
14.000000000000004
30
0
0
ARC
5
150
100
AcDbEntity
8
INTERIOR_PROFILES
100
AcDbCircle
10
-560.99999999967758
20
12.999999995617921
30
0
40
1.6999999999999553
210
0
220
0
230
-1
100
AcDbArc
50
-216.03187925509994
51
36.031879255102425
0
SPLINE
5
151
100
AcDbEntity
8
INTERIOR_PROFILES
100
AcDbSpline
70
0
71
3
72
11
73
7
74
0
42
0.000000001
43
0.0000000001
44
0.0000000001
40
0.3159180456047081
40
0.3159180456047081
40
0.3159180456047081
40
0.3159180456047081
40
0.50001066411916373
40
0.50001066411916373
40
0.50001066411916373
40
0.62030149069943685
40
0.62030149069943685
40
0.62030149069943685
40
0.62030149069943685
10
447.37477270595326
20
14.000000000000012
30
0
10
446.99085089119114
20
14.380019765981595
30
0
10
446.31394126680925
20
14.58761709920946
30
0
10
445.66946514558799
20
14.490045212420508
30
0
10
445.24834796034435
20
14.426289245410251
30
0
10
444.87609162930244
20
14.248314637141197
30
0
10
444.62522729366191
20
14.000000000000012
30
0
0
ARC
5
152
100
AcDbEntity
8
INTERIOR_PROFILES
100
AcDbCircle
10
-445.99999999980759
20
12.999999996781568
30
0
40
1.6999999999999991
210
0
220
0
230
-1
100
AcDbArc
50
-216.03187920660423
51
36.031879206604223
0
ARC
5
153
100
AcDbEntity
8
INTERIOR_PROFILES
100
AcDbCircle
10
-495.99999999980753
20
12.999999996260989
30
0
40
1.7000000000000026
210
0
220
0
230
-1
100
AcDbArc
50
-216.03187922829903
51
36.031879228300063
0
SPLINE
5
154
100
AcDbEntity
8
INTERIOR_PROFILES
100
AcDbSpline
70
0
71
3
72
11
73
7
74
0
42
0.000000001
43
0.0000000001
44
0.0000000001
40
0.31591804560650588
40
0.31591804560650588
40
0.31591804560650588
40
0.31591804560650588
40
0.50001066413904427
40
0.50001066413904427
40
0.50001066413904427
40
0.62030149057518635
40
0.62030149057518635
40
0.62030149057518635
40
0.62030149057518635
10
497.37477270557463
20
14.000000000000012
30
0
10
496.99085089055359
20
14.380019765935366
30
0
10
496.31394126600355
20
14.587617098939738
30
0
10
495.66946514473227
20
14.490045211893339
30
0
10
495.24834796000192
20
14.426289244797514
30
0
10
494.87609162952504
20
14.248314636789017
30
0
10
494.62522729404054
20
14.000000000000021
30
0
0
ARC
5
155
100
AcDbEntity
8
INTERIOR_PROFILES
100
AcDbCircle
10
-395.99999999980753
20
12.999999997302147
30
0
40
1.7000000000000215
210
0
220
0
230
-1
100
AcDbArc
50
-216.03187918490681
51
36.031879184909535
0
SPLINE
5
156
100
AcDbEntity
8
INTERIOR_PROFILES
100
AcDbSpline
70
0
71
3
72
11
73
7
74
0
42
0.000000001
43
0.0000000001
44
0.0000000001
40
0.31591804560291226
40
0.31591804560291226
40
0.31591804560291226
40
0.31591804560291226
40
0.5000106641001314
40
0.5000106641001314
40
0.5000106641001314
40
0.62030149082368369
40
0.62030149082368369
40
0.62030149082368369
40
0.62030149082368369
10
397.3747727063319
20
14.000000000000004
30
0
10
396.99085089182694
20
14.380019766029619
30
0
10
396.31394126760853
20
14.587617099480914
30
0
10
395.66946514643473
20
14.490045212946328
30
0
10
395.24834796068103
20
14.426289246020376
30
0
10
394.87609162907813
20
14.248314637491699
30
0
10
394.62522729328322
20
13.999999999999995
30
0
0
SPLINE
5
157
100
AcDbEntity
8
INTERIOR_PROFILES
100
AcDbSpline
70
0
71
3
72
11
73
7
74
0
42
0.000000001
43
0.0000000001
44
0.0000000001
40
0.31591804560707337
40
0.31591804560707337
40
0.31591804560707337
40
0.31591804560707337
40
0.50001066414388151
40
0.50001066414388151
40
0.50001066414388151
40
0.62030149053601524
40
0.62030149053601524
40
0.62030149053601524
40
0.62030149053601524
10
516.37477270532531
20
14.000000000000004
30
0
10
515.99085089022572
20
14.380019765917753
30
0
10
515.31394126563009
20
14.587617098851728
30
0
10
514.66946514434767
20
14.490045211729408
30
0
10
514.2483479597737
20
14.426289244608768
30
0
10
513.87609162946808
20
14.248314636680881
30
0
10
513.62522729402997
20
13.999999999999995
30
0
0
ARC
5
158
100
AcDbEntity
8
INTERIOR_PROFILES
100
AcDbCircle
10
-514.99999999967758
20
12.999999996096854
30
0
40
1.7000000000000237
210
0
220
0
230
-1
100
AcDbArc
50
-216.03187923513838
51
36.031879235140387
0
ARC
5
159
100
AcDbEntity
8
INTERIOR_PROFILES
100
AcDbCircle
10
-586.9999999997591
20
12.999999995313294
30
0
40
1.699999999999976
210
0
220
0
230
-1
100
AcDbArc
50
-216.03187926779739
51
36.031879267796263
0
SPLINE
5
160
100
AcDbEntity
8
INTERIOR_PROFILES
100
AcDbSpline
70
0
71
3
72
11
73
7
74
0
42
0.000000001
43
0.0000000001
44
0.0000000001
40
0.31591804560977277
40
0.31591804560977277
40
0.31591804560977277
40
0.31591804560977277
40
0.50001066417273565
40
0.50001066417273565
40
0.50001066417273565
40
0.62030149034899118
40
0.62030149034899118
40
0.62030149034899118
40
0.62030149034899118
10
588.37477270483669
20
14.000000000000004
30
0
10
587.99085088934987
20
14.380019765845837
30
0
10
587.31394126450709
20
14.587617098443548
30
0
10
586.66946514315237
20
14.490045210937641
30
0
10
586.24834795934692
20
14.426289243689832
30
0
10
585.87609162988679
20
14.248314636152974
30
0
10
585.62522729468139
20
14.000000000000021
30
0
0
ARC
5
161
100
AcDbEntity
8
INTERIOR_PROFILES
100
AcDbCircle
10
-545.99999999980753
20
12.99999999574041
30
0
40
1.7000000000000179
210
0
220
0
230
-1
100
AcDbArc
50
-216.0318792499944
51
36.031879249995285
0
SPLINE
5
162
100
AcDbEntity
8
INTERIOR_PROFILES
100
AcDbSpline
70
0
71
3
72
11
73
7
74
0
42
0.000000001
43
0.0000000001
44
0.0000000001
40
0.31591804560830272
40
0.31591804560830272
40
0.31591804560830272
40
0.31591804560830272
40
0.50001066415651541
40
0.50001066415651541
40
0.50001066415651541
40
0.6203014904509303
40
0.6203014904509303
40
0.6203014904509303
40
0.6203014904509303
10
547.37477270519594
20
14.000000000000012
30
0
10
546.99085088992115
20
14.380019765884091
30
0
10
546.31394126521559
20
14.587617098665007
30
0
10
545.66946514390202
20
14.490045211369997
30
0
10
545.24834795967581
20
14.426289244192265
30
0
10
544.87609162975241
20
14.248314636441712
30
0
10
544.62522729441935
20
14.000000000000021
30
0
0
CIRCLE
5
163
100
AcDbEntity
8
INTERIOR_PROFILES
100
AcDbCircle
10
-39.999999999772271
20
38.896393420159782
30
0
40
1.6999999999999993
210
0
220
0
230
-1
0
CIRCLE
5
164
100
AcDbEntity
8
INTERIOR_PROFILES
100
AcDbCircle
10
-540.68624999933286
20
81.119883249505094
30
0
40
1.7000000000000171
210
0
220
0
230
-1
0
CIRCLE
5
165
100
AcDbEntity
8
INTERIOR_PROFILES
100
AcDbCircle
10
-295.99999999930122
20
84.151393422825137
30
0
40
1.7000000000000171
210
0
220
0
230
-1
0
CIRCLE
5
166
100
AcDbEntity
8
INTERIOR_PROFILES
100
AcDbCircle
10
-273.37249999953667
20
61.523893422589552
30
0
40
1.7000000000000171
210
0
220
0
230
-1
0
CIRCLE
5
167
100
AcDbEntity
8
INTERIOR_PROFILES
100
AcDbCircle
10
-551.9999999997724
20
38.896393425490501
30
0
40
1.7000000000000171
210
0
220
0
230
-1
0
CIRCLE
5
168
100
AcDbEntity
8
INTERIOR_PROFILES
100
AcDbCircle
10
-563.31374999933269
20
81.119883249740695
30
0
40
1.7000000000000171
210
0
220
0
230
-1
0
CIRCLE
5
169
100
AcDbEntity
8
INTERIOR_PROFILES
100
AcDbCircle
10
-574.62749999953678
20
61.523893425726079
30
0
40
1.7000000000000171
210
0
220
0
230
-1
0
CIRCLE
5
170
100
AcDbEntity
8
INTERIOR_PROFILES
100
AcDbCircle
10
-62.627499999536766
20
61.523893420395353
30
0
40
1.6999999999999993
210
0
220
0
230
-1
0
CIRCLE
5
171
100
AcDbEntity
8
INTERIOR_PROFILES
100
AcDbCircle
10
-529.37249999953679
20
61.52389342525494
30
0
40
1.7000000000000171
210
0
220
0
230
-1
0
CIRCLE
5
172
100
AcDbEntity
8
INTERIOR_PROFILES
100
AcDbCircle
10
-318.62749999953678
20
61.523893423060727
30
0
40
1.7000000000000171
210
0
220
0
230
-1
0
CIRCLE
5
173
100
AcDbEntity
8
INTERIOR_PROFILES
100
AcDbCircle
10
-563.31374999974082
20
41.927903601475897
30
0
40
1.7000000000000171
210
0
220
0
230
-1
0
CIRCLE
5
174
100
AcDbEntity
8
INTERIOR_PROFILES
100
AcDbCircle
10
-28.686249999740951
20
41.927903595909619
30
0
40
1.6999999999999993
210
0
220
0
230
-1
0
CIRCLE
5
175
100
AcDbEntity
8
INTERIOR_PROFILES
100
AcDbCircle
10
-540.68624999974088
20
41.927903601240324
30
0
40
1.7000000000000171
210
0
220
0
230
-1
0
CIRCLE
5
176
100
AcDbEntity
8
INTERIOR_PROFILES
100
AcDbCircle
10
-551.99999999930128
20
84.151393425490483
30
0
40
1.7000000000000171
210
0
220
0
230
-1
0
CIRCLE
5
177
100
AcDbEntity
8
INTERIOR_PROFILES
100
AcDbCircle
10
-39.999999999301252
20
84.151393420159778
30
0
40
1.6999999999999993
210
0
220
0
230
-1
0
CIRCLE
5
178
100
AcDbEntity
8
INTERIOR_PROFILES
100
AcDbCircle
10
-28.686249999332745
20
81.119883244174375
30
0
40
1.6999999999999993
210
0
220
0
230
-1
0
CIRCLE
5
179
100
AcDbEntity
8
INTERIOR_PROFILES
100
AcDbCircle
10
-51.313749999332714
20
81.119883244409976
30
0
40
1.6999999999999993
210
0
220
0
230
-1
0
CIRCLE
5
180
100
AcDbEntity
8
INTERIOR_PROFILES
100
AcDbCircle
10
-17.372499999536686
20
61.523893419924214
30
0
40
1.6999999999999993
210
0
220
0
230
-1
0
CIRCLE
5
181
100
AcDbEntity
8
INTERIOR_PROFILES
100
AcDbCircle
10
-39.999999999536655
20
61.523893420159794
30
0
40
1.6999999999999993
210
0
220
0
230
-1
0
CIRCLE
5
182
100
AcDbEntity
8
INTERIOR_PROFILES
100
AcDbCircle
10
-51.313749999740921
20
41.927903596145192
30
0
40
1.6999999999999993
210
0
220
0
230
-1
0
CIRCLE
5
183
100
AcDbEntity
8
INTERIOR_PROFILES
100
AcDbCircle
10
-284.68624999974088
20
41.927903598574979
30
0
40
1.7000000000000171
210
0
220
0
230
-1
0
CIRCLE
5
184
100
AcDbEntity
8
INTERIOR_PROFILES
100
AcDbCircle
10
-284.68624999933274
20
81.119883246839748
30
0
40
1.7000000000000171
210
0
220
0
230
-1
0
CIRCLE
5
185
100
AcDbEntity
8
INTERIOR_PROFILES
100
AcDbCircle
10
-220.99999999916179
20
96.785840134315023
30
0
40
1.6999999999999993
210
0
220
0
230
-1
0
CIRCLE
5
186
100
AcDbEntity
8
INTERIOR_PROFILES
100
AcDbCircle
10
-520.99999999916179
20
96.785840137761667
30
0
40
1.6999999999999993
210
0
220
0
230
-1
0
CIRCLE
5
187
100
AcDbEntity
8
INTERIOR_PROFILES
100
AcDbCircle
10
-307.31374999974082
20
41.927903598810531
30
0
40
1.7000000000000171
210
0
220
0
230
-1
0
CIRCLE
5
188
100
AcDbEntity
8
INTERIOR_PROFILES
100
AcDbCircle
10
-70.999999999161787
20
96.785840132591687
30
0
40
1.6999999999999993
210
0
220
0
230
-1
0
CIRCLE
5
189
100
AcDbEntity
8
INTERIOR_PROFILES
100
AcDbCircle
10
-307.31374999933274
20
81.119883247075308
30
0
40
1.7000000000000171
210
0
220
0
230
-1
0
CIRCLE
5
190
100
AcDbEntity
8
INTERIOR_PROFILES
100
AcDbCircle
10
-295.9999999997724
20
38.896393422825142
30
0
40
1.7000000000000171
210
0
220
0
230
-1
0
CIRCLE
5
191
100
AcDbEntity
8
INTERIOR_PROFILES
100
AcDbCircle
10
-370.99999999916179
20
96.785840136038331
30
0
40
1.6999999999999993
210
0
220
0
230
-1
0
CIRCLE
5
192
100
AcDbEntity
8
INTERIOR_PROFILES
100
AcDbCircle
10
-295.99999999916184
20
96.78584013517667
30
0
40
1.6999999999999993
210
0
220
0
230
-1
0
LINE
5
193
100
AcDbEntity
8
BEND
100
AcDbLine
10
-1.7349063205791282
20
107.91681348704785
30
-3.1784602727569222e-10
11
593.73490631954496
21
107.91681349388911
31
3.1871727479426681e-10
0
LINE
5
194
100
AcDbEntity
8
BEND
100
AcDbLine
10
593.73490631974892
20
15.130973355291868
30
3.0760710645338918e-09
11
-1.734906320091838
21
15.130973355291877
31
-3.0762399572115129e-09
0
LINE
5
195
100
AcDbEntity
8
BEND
100
AcDbLine
10
581.99999999969373
20
33.392920065877377
30
3.7608804959177178e-14
11
9.9999999999999289
21
33.392920065877391
31
4.3298697960381105e-14
0
LINE
5
196
100
AcDbEntity
8
BEND
100
AcDbLine
10
9.9999999993453059
20
89.654866776596052
30
5.3845816694320092e-14
11
581.99999999902116
21
89.654866783167662
31
4.6213033400022141e-14
0
LINE
5
197
100
AcDbEntity
8
BEND_EXTENT
100
AcDbLine
10
592.62113487029194
20
106.78584013858452
30
1.6209256159527285e-13
11
-0.62113487162697822
21
106.78584013176886
31
1.532107773982716e-13
0
LINE
5
198
100
AcDbEntity
8
BEND_EXTENT
100
AcDbLine
10
-2.0000000005352092
20
109.04778684233665
30
2.042810365310288e-13
11
593.99999999946453
21
109.04778684918399
31
2.1538326677728037e-13
0
LINE
5
199
100
AcDbEntity
8
BEND_EXTENT
100
AcDbLine
10
9.9999999993920596
20
90.78584013188734
30
5.1070259132757201e-14
11
581.99999999906947
21
90.785840138462476
31
5.9952043329758453e-14
0
LINE
5
200
100
AcDbEntity
8
BEND_EXTENT
100
AcDbLine
10
581.99999999909448
20
88.523893427877951
30
5.1070259132757201e-14
11
9.9999999994171418
21
88.523893421306354
31
5.1070259132757201e-14
0
LINE
5
201
100
AcDbEntity
8
BEND_EXTENT
100
AcDbLine
10
9.9999999999793943
20
34.523893421168481
30
4.6629367034256575e-14
11
581.99999999965678
21
34.523893421168481
31
4.6629367034256575e-14
0
LINE
5
202
100
AcDbEntity
8
BEND_EXTENT
100
AcDbLine
10
581.99999999966712
20
32.261946710583729
30
2.4424906541753444e-14
11
9.9999999999896971
21
32.261946710587253
31
3.3306690738754696e-14
0
LINE
5
203
100
AcDbEntity
8
BEND_EXTENT
100
AcDbLine
10
-0.62113487103978571
20
16.261946710583707
30
-5.9952043329758453e-14
11
592.62113487069678
21
16.261946710583722
31
-6.8833827526759706e-14
0
LINE
5
204
100
AcDbEntity
8
BEND_EXTENT
100
AcDbLine
10
3.6252272903706739
20
14.000000000000012
30
-6.2172489379008766e-14
11
-2.0000000000001705
21
14.000000000000004
31
-7.9936057773011271e-14
0
LINE
5
205
100
AcDbEntity
8
BEND_EXTENT
100
AcDbLine
10
29.625227291488443
20
13.999999999999995
30
-6.2172489379008766e-14
11
6.3747727093414142
21
14.000000000000004
31
-6.2172489379008766e-14
0
LINE
5
206
100
AcDbEntity
8
BEND_EXTENT
100
AcDbLine
10
44.625227290632523
20
14.000000000000004
30
-6.2172489379008766e-14
11
32.374772707882613
21
13.999999999999995
31
-7.1054273576010019e-14
0
LINE
5
207
100
AcDbEntity
8
BEND_EXTENT
100
AcDbLine
10
75.625227291643
20
14.000000000000004
30
-6.2172489379008766e-14
11
47.374772708982533
21
14.000000000000004
31
-6.2172489379008766e-14
0
LINE
5
208
100
AcDbEntity
8
BEND_EXTENT
100
AcDbLine
10
94.625227290936067
20
14.000000000000012
30
-6.2172489379008766e-14
11
78.374772707727942
21
13.999999999999995
31
-7.1054273576010019e-14
0
LINE
5
209
100
AcDbEntity
8
BEND_EXTENT
100
AcDbLine
10
144.62522729131464
20
14.000000000000012
30
-6.2172489379008766e-14
11
97.374772708528639
21
14.000000000000004
31
-6.2172489379008766e-14
0
LINE
5
210
100
AcDbEntity
8
BEND_EXTENT
100
AcDbLine
10
194.62522729169336
20
14.000000000000004
30
-6.2172489379008766e-14
11
147.37477270814998
21
14.000000000000021
31
-6.2172489379008766e-14
0
LINE
5
211
100
AcDbEntity
8
BEND_EXTENT
100
AcDbLine
10
244.62522729207194
20
14.000000000000004
30
-6.2172489379008766e-14
11
197.37477270777134
21
14.000000000000021
31
-6.2172489379008766e-14
0
LINE
5
212
100
AcDbEntity
8
BEND_EXTENT
100
AcDbLine
10
294.62522729252589
20
13.999999999999995
30
-7.1054273576010019e-14
11
247.37477270739262
21
14.000000000000004
31
-6.2172489379008766e-14
0
LINE
5
213
100
AcDbEntity
8
BEND_EXTENT
100
AcDbLine
10
344.62522729290458
20
14.000000000000004
30
-7.1054273576010019e-14
11
297.37477270708928
21
14.000000000000004
31
-6.2172489379008766e-14
0
LINE
5
214
100
AcDbEntity
8
BEND_EXTENT
100
AcDbLine
10
394.62522729328327
20
14.000000000000004
30
-7.1054273576010019e-14
11
347.37477270671059
21
13.999999999999995
31
-7.1054273576010019e-14
0
LINE
5
215
100
AcDbEntity
8
BEND_EXTENT
100
AcDbLine
10
444.62522729366191
20
14.000000000000004
30
-7.1054273576010019e-14
11
397.3747727063319
21
13.999999999999995
31
-7.1054273576010019e-14
0
LINE
5
216
100
AcDbEntity
8
BEND_EXTENT
100
AcDbLine
10
494.62522729404054
20
14.000000000000012
30
-7.1054273576010019e-14
11
447.37477270595326
21
13.999999999999995
31
-7.1054273576010019e-14
0
LINE
5
217
100
AcDbEntity
8
BEND_EXTENT
100
AcDbLine
10
513.62522729402997
20
14.000000000000004
30
-7.1054273576010019e-14
11
497.37477270557463
21
13.999999999999995
31
-7.1054273576010019e-14
0
LINE
5
218
100
AcDbEntity
8
BEND_EXTENT
100
AcDbLine
10
544.62522729441923
20
14.000000000000012
30
-7.1054273576010019e-14
11
516.37477270532531
21
14.000000000000021
31
-7.1054273576010019e-14
0
LINE
5
219
100
AcDbEntity
8
BEND_EXTENT
100
AcDbLine
10
559.62522729437842
20
14.000000000000004
30
-7.1054273576010019e-14
11
547.37477270519594
21
14.000000000000012
31
-7.1054273576010019e-14
0
LINE
5
220
100
AcDbEntity
8
BEND_EXTENT
100
AcDbLine
10
585.62522729468139
20
14.000000000000021
30
-7.1054273576010019e-14
11
562.37477270497686
21
14.000000000000012
31
-7.1054273576010019e-14
0
LINE
5
221
100
AcDbEntity
8
BEND_EXTENT
100
AcDbLine
10
593.99999999967758
20
14.000000000000004
30
-7.9936057773011271e-14
11
588.37477270483669
21
14.000000000000004
31
-7.1054273576010019e-14
0
ENDSEC
0
SECTION
2
OBJECTS
0
DICTIONARY
5
C
100
AcDbDictionary
3
ACAD_GROUP
350
D
3
ACAD_MLINESTYLE
350
17
0
DICTIONARY
5
D
100
AcDbDictionary
0
DICTIONARY
5
1A
330
C
100
AcDbDictionary
0
DICTIONARY
5
17
100
AcDbDictionary
0
ENDSEC
0
EOF
