0
SECTION
2
HEADER
9
$INSUNITS
70
4
9
$ACADVER
1
AC1014
9
$HANDSEED
5
FFFF
0
ENDSEC
0
SECTION
2
TABLES
0
TABLE
2
VPORT
5
8
100
AcDbSymbolTable
0
ENDTAB
0
TABLE
2
LTYPE
5
5
100
AcDbSymbolTable
0
LTYPE
5
14
100
AcDbSymbolTableRecord
100
AcDbLinetypeTableRecord
2
BYBLOCK
70
0
0
LTYPE
5
15
100
AcDbSymbolTableRecord
100
AcDbLinetypeTableRecord
2
BYLAYER
70
0
0
LTYPE
5
16
100
AcDbSymbolTableRecord
100
AcDbLinetypeTableRecord
2
DASHED
70
0
3
Dashed __ __ __ __ __ __ __ __ __ __ __ __ __ _
72
65
73
2
40
0.75
49
0.5
74
0
49
-0.25
74
0
0
ENDTAB
0
TABLE
2
LAYER
5
2
100
AcDbSymbolTable
70
2
0
LAYER
5
50
100
AcDbSymbolTableRecord
100
AcDbLayerTableRecord
2
0
70
0
62
7
6
CONTINUOUS
0
ENDTAB
0
TABLE
2
STYLE
5
3
100
AcDbSymbolTable
70
1
0
STYLE
5
11
100
AcDbSymbolTableRecord
100
AcDbTextStyleTableRecord
2
STANDARD
70
0
0
ENDTAB
0
TABLE
2
VIEW
5
6
100
AcDbSymbolTable
70
0
0
ENDTAB
0
TABLE
2
UCS
5
7
100
AcDbSymbolTable
70
0
0
ENDTAB
0
TABLE
2
APPID
5
9
100
AcDbSymbolTable
70
2
0
APPID
5
12
100
AcDbSymbolTableRecord
100
AcDbRegAppTableRecord
2
ACAD
70
0
0
ENDTAB
0
TABLE
2
DIMSTYLE
5
A
100
AcDbSymbolTable
70
1
0
ENDTAB
0
TABLE
2
BLOCK_RECORD
5
1
100
AcDbSymbolTable
70
1
0
BLOCK_RECORD
5
1F
100
AcDbSymbolTableRecord
100
AcDbBlockTableRecord
2
*MODEL_SPACE
0
BLOCK_RECORD
5
1B
100
AcDbSymbolTableRecord
100
AcDbBlockTableRecord
2
*PAPER_SPACE
0
ENDTAB
0
ENDSEC
0
SECTION
2
BLOCKS
0
BLOCK
5
20
100
AcDbEntity
100
AcDbBlockBegin
2
*MODEL_SPACE
0
ENDBLK
5
21
100
AcDbEntity
100
AcDbBlockEnd
0
BLOCK
5
1C
100
AcDbEntity
100
AcDbBlockBegin
2
*PAPER_SPACE
0
ENDBLK
5
1D
100
AcDbEntity
100
AcDbBlockEnd
0
ENDSEC
0
SECTION
2
ENTITIES
0
LINE
5
100
100
AcDbEntity
8
OUTER_PROFILES
100
AcDbLine
10
982.00000000001762
20
32.261946710585988
30
0
11
982.00000000006503
21
90.785840130783754
31
0
0
ELLIPSE
5
101
100
AcDbEntity
8
OUTER_PROFILES
100
AcDbEllipse
10
994.00000000006503
20
90.785840130786553
30
0
11
8.4337418445973831e-12
21
-16
31
0.0
40
0.75000000000000011
41
3.3080500344590682
42
4.7123889803844685
0
ARC
5
102
100
AcDbEntity
8
OUTER_PROFILES
100
AcDbCircle
10
-991.45550000039236
20
109.04764816812603
30
0
40
2.5445000000000562
210
0
220
-0
230
-1
100
AcDbArc
50
180
51
257.373289040695
0
LINE
5
103
100
AcDbEntity
8
OUTER_PROFILES
100
AcDbLine
10
994.00000000039245
20
109.04764816812347
30
0
11
994.00000000032821
21
121.04778684137321
31
0
0
ARC
5
104
100
AcDbEntity
8
OUTER_PROFILES
100
AcDbCircle
10
-992.00000000032776
20
121.04778684137274
30
0
40
1.9999999999999929
210
0
220
0
230
-1
100
AcDbArc
50
89.999999999986969
51
180
0
LINE
5
105
100
AcDbEntity
8
OUTER_PROFILES
100
AcDbLine
10
992.0000000003273
20
123.04778684137274
30
0
11
3.2812863537401427e-10
21
123.04778684114092
31
0
0
ARC
5
106
100
AcDbEntity
8
OUTER_PROFILES
100
AcDbCircle
10
-3.2841285246831831e-10
20
121.04778684114093
30
0
40
2
210
-0
220
0
230
-1
100
AcDbArc
50
0
51
89.999999999991857
0
LINE
5
107
100
AcDbEntity
8
OUTER_PROFILES
100
AcDbLine
10
-1.9999999996715871
20
121.04778684114045
30
0
11
-1.9999999996069002
21
109.0476481677382
31
0
0
ARC
5
108
100
AcDbEntity
8
OUTER_PROFILES
100
AcDbCircle
10
-0.54450000039309998
20
109.04764816774193
30
0
40
2.5445000000000046
210
-0
220
0
230
-1
100
AcDbArc
50
282.62671096266018
51
360
0
ELLIPSE
5
109
100
AcDbEntity
8
OUTER_PROFILES
100
AcDbEllipse
10
-1.9999999999519957
20
90.785840130553794
30
0
11
9.561723630856565e-13
21
16
31
0.0
40
0.75000000000000011
41
4.7123889803846879
42
6.1167279262651633
0
LINE
5
110
100
AcDbEntity
8
OUTER_PROFILES
100
AcDbLine
10
10.000000000048006
20
90.785840130553083
30
0
11
10.000000000000684
21
32.261946710589498
31
0
0
ELLIPSE
5
111
100
AcDbEntity
8
OUTER_PROFILES
100
AcDbEllipse
10
-1.9999999999993179
20
32.261946710585974
30
0
11
4.6950962853101419e-12
21
-16
31
0.0
40
0.75000000000000011
41
0.16645738089125484
42
1.5707963267948966
0
ARC
5
112
100
AcDbEntity
8
OUTER_PROFILES
100
AcDbCircle
10
-0.54450000000073828
20
14.000138673320244
30
0
40
2.5445000000000007
210
0
220
0
230
-1
100
AcDbArc
50
0
51
77.373289039060111
0
LINE
5
113
100
AcDbEntity
8
OUTER_PROFILES
100
AcDbLine
10
-1.9999999999992624
20
14.000138673323361
30
0
11
-2
21
1.999999999999984
31
0
0
ARC
5
114
100
AcDbEntity
8
OUTER_PROFILES
100
AcDbCircle
10
0
20
1.9999999999999929
30
0
40
2
210
0
220
-0
230
-1
100
AcDbArc
50
269.99999999999972
51
360
0
LINE
5
115
100
AcDbEntity
8
OUTER_PROFILES
100
AcDbLine
10
8.3266726846886741e-15
20
-7.2164496600635175e-15
30
0
11
992.00000000001648
21
-1.7763568394002501e-14
31
0
0
ARC
5
116
100
AcDbEntity
8
OUTER_PROFILES
100
AcDbCircle
10
-992.0000000000166
20
1.9999999999999751
30
0
40
2.0000000000000284
210
0
220
0
230
-1
100
AcDbArc
50
180
51
270.00000000000324
0
LINE
5
117
100
AcDbEntity
8
OUTER_PROFILES
100
AcDbLine
10
994.00000000001671
20
2.0000000000000262
30
0
11
994.00000000001751
21
14.000138673320386
31
0
0
ARC
5
118
100
AcDbEntity
8
OUTER_PROFILES
100
AcDbCircle
10
-991.45550000001754
20
14.000138673317455
30
0
40
2.5444999999999993
210
0
220
0
230
-1
100
AcDbArc
50
102.62671096093938
51
180
0
ELLIPSE
5
119
100
AcDbEntity
8
OUTER_PROFILES
100
AcDbEllipse
10
994.00000000001774
20
32.261946710585988
30
0
11
4.694817922372895e-12
21
16
31
0.0
40
0.75000000000000011
41
1.5707963267951168
42
2.975135272698556
0
CIRCLE
5
120
100
AcDbEntity
8
INTERIOR_PROFILES
100
AcDbCircle
10
-295.99999999976262
20
10.999999994223515
30
0
40
1.7000000000000171
210
0
220
0
230
-1
0
CIRCLE
5
121
100
AcDbEntity
8
INTERIOR_PROFILES
100
AcDbCircle
10
-145.99999999976262
20
10.999999994096195
30
0
40
1.6999999999999993
210
0
220
0
230
-1
0
CIRCLE
5
122
100
AcDbEntity
8
INTERIOR_PROFILES
100
AcDbCircle
10
-495.99999999976262
20
10.999999994393281
30
0
40
1.7000000000000171
210
0
220
0
230
-1
0
CIRCLE
5
123
100
AcDbEntity
8
INTERIOR_PROFILES
100
AcDbCircle
10
-445.99999999976262
20
10.999999994350835
30
0
40
1.7000000000000171
210
0
220
0
230
-1
0
CIRCLE
5
124
100
AcDbEntity
8
INTERIOR_PROFILES
100
AcDbCircle
10
-5.0000000000957812
20
10.999999997995129
30
0
40
1.7000000000000004
210
0
220
0
230
-1
0
CIRCLE
5
125
100
AcDbEntity
8
INTERIOR_PROFILES
100
AcDbCircle
10
-30.999999999508532
20
10.999999988368572
30
0
40
1.6999999999999993
210
0
220
0
230
-1
0
CIRCLE
5
126
100
AcDbEntity
8
INTERIOR_PROFILES
100
AcDbCircle
10
-986.99999999992906
20
10.999999998828649
30
0
40
1.7000000000000171
210
0
220
0
230
-1
0
CIRCLE
5
127
100
AcDbEntity
8
INTERIOR_PROFILES
100
AcDbCircle
10
-395.99999999976251
20
10.999999994308407
30
0
40
1.7000000000000171
210
0
220
0
230
-1
0
CIRCLE
5
128
100
AcDbEntity
8
INTERIOR_PROFILES
100
AcDbCircle
10
-987.00000000003661
20
120.04778684532342
30
0
40
1.7000000000000171
210
0
220
0
230
-1
0
CIRCLE
5
129
100
AcDbEntity
8
INTERIOR_PROFILES
100
AcDbCircle
10
-5.0000000000365219
20
120.04778684403095
30
0
40
1.7000000000000004
210
0
220
0
230
-1
0
CIRCLE
5
130
100
AcDbEntity
8
INTERIOR_PROFILES
100
AcDbCircle
10
-961.0000000000166
20
10.999999998840533
30
0
40
1.7000000000000171
210
0
220
0
230
-1
0
CIRCLE
5
131
100
AcDbEntity
8
INTERIOR_PROFILES
100
AcDbCircle
10
-195.99999999976262
20
10.999999994138641
30
0
40
1.7000000000000171
210
0
220
0
230
-1
0
CIRCLE
5
132
100
AcDbEntity
8
INTERIOR_PROFILES
100
AcDbCircle
10
-987.00000000001933
20
3.0000000049245834
30
0
40
1.7000000000000171
210
0
220
0
230
-1
0
CIRCLE
5
133
100
AcDbEntity
8
INTERIOR_PROFILES
100
AcDbCircle
10
-571.00000000005502
20
96.785840130687717
30
0
40
1.6999999999999993
210
0
220
0
230
-1
0
CIRCLE
5
134
100
AcDbEntity
8
INTERIOR_PROFILES
100
AcDbCircle
10
-5.0000000000193268
20
3.0000000040910457
30
0
40
1.7000000000000004
210
0
220
0
230
-1
0
CIRCLE
5
135
100
AcDbEntity
8
INTERIOR_PROFILES
100
AcDbCircle
10
-571.00000000000909
20
26.261946710585981
30
0
40
1.6999999999999993
210
0
220
0
230
-1
0
CIRCLE
5
136
100
AcDbEntity
8
INTERIOR_PROFILES
100
AcDbCircle
10
-496.00000000005502
20
96.785840130670181
30
0
40
1.6999999999999993
210
0
220
0
230
-1
0
CIRCLE
5
137
100
AcDbEntity
8
INTERIOR_PROFILES
100
AcDbCircle
10
-95.999999999762622
20
10.999999994053766
30
0
40
1.6999999999999993
210
0
220
0
230
-1
0
CIRCLE
5
138
100
AcDbEntity
8
INTERIOR_PROFILES
100
AcDbCircle
10
-76.999999999508759
20
10.999999989365463
30
0
40
1.6999999999999993
210
0
220
0
230
-1
0
CIRCLE
5
139
100
AcDbEntity
8
INTERIOR_PROFILES
100
AcDbCircle
10
-245.99999999976262
20
10.999999994181104
30
0
40
1.7000000000000171
210
0
220
0
230
-1
0
CIRCLE
5
140
100
AcDbEntity
8
INTERIOR_PROFILES
100
AcDbCircle
10
-915.00000000001648
20
10.999999998801488
30
0
40
1.7000000000000171
210
0
220
0
230
-1
0
CIRCLE
5
141
100
AcDbEntity
8
INTERIOR_PROFILES
100
AcDbCircle
10
-345.99999999976251
20
10.999999994265961
30
0
40
1.7000000000000171
210
0
220
0
230
-1
0
CIRCLE
5
142
100
AcDbEntity
8
INTERIOR_PROFILES
100
AcDbCircle
10
-921.00000000005491
20
96.785840130769486
30
0
40
1.6999999999999993
210
0
220
0
230
-1
0
CIRCLE
5
143
100
AcDbEntity
8
INTERIOR_PROFILES
100
AcDbCircle
10
-421.00000000000909
20
26.261946710585981
30
0
40
1.6999999999999993
210
0
220
0
230
-1
0
CIRCLE
5
144
100
AcDbEntity
8
INTERIOR_PROFILES
100
AcDbCircle
10
-974.62750000003302
20
61.523893416257529
30
0
40
1.7000000000000171
210
0
220
0
230
-1
0
CIRCLE
5
145
100
AcDbEntity
8
INTERIOR_PROFILES
100
AcDbCircle
10
-421.00000000005502
20
96.785840130652645
30
0
40
1.6999999999999993
210
0
220
0
230
-1
0
CIRCLE
5
146
100
AcDbEntity
8
INTERIOR_PROFILES
100
AcDbCircle
10
-62.627500000033081
20
61.523893417026869
30
0
40
1.6999999999999993
210
0
220
0
230
-1
0
CIRCLE
5
147
100
AcDbEntity
8
INTERIOR_PROFILES
100
AcDbCircle
10
-929.37250000003291
20
61.523893416295728
30
0
40
1.7000000000000171
210
0
220
0
230
-1
0
CIRCLE
5
148
100
AcDbEntity
8
INTERIOR_PROFILES
100
AcDbCircle
10
-40.000000000052154
20
84.151393417045952
30
0
40
1.6999999999999993
210
0
220
0
230
-1
0
CIRCLE
5
149
100
AcDbEntity
8
INTERIOR_PROFILES
100
AcDbCircle
10
-921.00000000000932
20
26.261946710585988
30
0
40
1.6999999999999993
210
0
220
0
230
-1
0
CIRCLE
5
150
100
AcDbEntity
8
INTERIOR_PROFILES
100
AcDbCircle
10
-40.000000000032969
20
61.523893417045969
30
0
40
1.6999999999999993
210
0
220
0
230
-1
0
CIRCLE
5
151
100
AcDbEntity
8
INTERIOR_PROFILES
100
AcDbCircle
10
-51.313750000049509
20
81.119883241168822
30
0
40
1.6999999999999993
210
0
220
0
230
-1
0
CIRCLE
5
152
100
AcDbEntity
8
INTERIOR_PROFILES
100
AcDbCircle
10
-940.68625000001646
20
41.92790359215379
30
0
40
1.7000000000000171
210
0
220
0
230
-1
0
CIRCLE
5
153
100
AcDbEntity
8
INTERIOR_PROFILES
100
AcDbCircle
10
-28.686250000016429
20
41.927903592923137
30
0
40
1.6999999999999993
210
0
220
0
230
-1
0
CIRCLE
5
154
100
AcDbEntity
8
INTERIOR_PROFILES
100
AcDbCircle
10
-51.313750000016256
20
41.92790359290403
30
0
40
1.6999999999999993
210
0
220
0
230
-1
0
CIRCLE
5
155
100
AcDbEntity
8
INTERIOR_PROFILES
100
AcDbCircle
10
-496.00000000000909
20
26.261946710585981
30
0
40
1.6999999999999993
210
0
220
0
230
-1
0
CIRCLE
5
156
100
AcDbEntity
8
INTERIOR_PROFILES
100
AcDbCircle
10
-71.000000000054939
20
96.785840130570875
30
0
40
1.6999999999999993
210
0
220
0
230
-1
0
CIRCLE
5
157
100
AcDbEntity
8
INTERIOR_PROFILES
100
AcDbCircle
10
-71.00000000000918
20
26.261946710585981
30
0
40
1.6999999999999993
210
0
220
0
230
-1
0
CIRCLE
5
158
100
AcDbEntity
8
INTERIOR_PROFILES
100
AcDbCircle
10
-952.00000000005218
20
84.151393416276619
30
0
40
1.7000000000000171
210
0
220
0
230
-1
0
CIRCLE
5
159
100
AcDbEntity
8
INTERIOR_PROFILES
100
AcDbCircle
10
-28.686250000049682
20
81.119883241187907
30
0
40
1.6999999999999993
210
0
220
0
230
-1
0
CIRCLE
5
160
100
AcDbEntity
8
INTERIOR_PROFILES
100
AcDbCircle
10
-17.372500000033142
20
61.523893417065061
30
0
40
1.6999999999999993
210
0
220
0
230
-1
0
CIRCLE
5
161
100
AcDbEntity
8
INTERIOR_PROFILES
100
AcDbCircle
10
-40.000000000014069
20
38.896393417045957
30
0
40
1.6999999999999993
210
0
220
0
230
-1
0
CIRCLE
5
162
100
AcDbEntity
8
INTERIOR_PROFILES
100
AcDbCircle
10
-507.31375000004959
20
81.119883240784119
30
0
40
1.7000000000000171
210
0
220
0
230
-1
0
CIRCLE
5
163
100
AcDbEntity
8
INTERIOR_PROFILES
100
AcDbCircle
10
-507.3137500000164
20
41.927903592519357
30
0
40
1.7000000000000171
210
0
220
0
230
-1
0
CIRCLE
5
164
100
AcDbEntity
8
INTERIOR_PROFILES
100
AcDbCircle
10
-484.68625000004954
20
81.119883240803233
30
0
40
1.7000000000000171
210
0
220
0
230
-1
0
CIRCLE
5
165
100
AcDbEntity
8
INTERIOR_PROFILES
100
AcDbCircle
10
-963.31375000001663
20
41.927903592134697
30
0
40
1.7000000000000171
210
0
220
0
230
-1
0
CIRCLE
5
166
100
AcDbEntity
8
INTERIOR_PROFILES
100
AcDbCircle
10
-496.00000000001387
20
38.896393416661297
30
0
40
1.7000000000000171
210
0
220
0
230
-1
0
CIRCLE
5
167
100
AcDbEntity
8
INTERIOR_PROFILES
100
AcDbCircle
10
-496.00000000005218
20
84.151393416661321
30
0
40
1.7000000000000171
210
0
220
0
230
-1
0
CIRCLE
5
168
100
AcDbEntity
8
INTERIOR_PROFILES
100
AcDbCircle
10
-473.37250000003286
20
61.523893416680394
30
0
40
1.7000000000000171
210
0
220
0
230
-1
0
CIRCLE
5
169
100
AcDbEntity
8
INTERIOR_PROFILES
100
AcDbCircle
10
-484.68625000001646
20
41.92790359253847
30
0
40
1.7000000000000171
210
0
220
0
230
-1
0
CIRCLE
5
170
100
AcDbEntity
8
INTERIOR_PROFILES
100
AcDbCircle
10
-518.62750000003291
20
61.523893416642196
30
0
40
1.7000000000000171
210
0
220
0
230
-1
0
CIRCLE
5
171
100
AcDbEntity
8
INTERIOR_PROFILES
100
AcDbCircle
10
-952.00000000001387
20
38.896393416276631
30
0
40
1.7000000000000171
210
0
220
0
230
-1
0
CIRCLE
5
172
100
AcDbEntity
8
INTERIOR_PROFILES
100
AcDbCircle
10
-940.68625000004954
20
81.119883240418545
30
0
40
1.7000000000000171
210
0
220
0
230
-1
0
CIRCLE
5
173
100
AcDbEntity
8
INTERIOR_PROFILES
100
AcDbCircle
10
-963.31375000004971
20
81.119883240399474
30
0
40
1.7000000000000171
210
0
220
0
230
-1
0
LINE
5
174
100
AcDbEntity
8
BEND
100
AcDbLine
10
-1.7349063197352166
20
107.91681348584719
30
-5.3678464451145658e-10
11
993.73490632044536
21
107.91681348607982
31
5.3584983672472219e-10
0
LINE
5
175
100
AcDbEntity
8
BEND
100
AcDbLine
10
993.73490632010203
20
15.130973355293031
30
-4.2053638349415223e-10
11
-1.734906320083951
21
15.130973355293023
31
4.2055123272710659e-10
0
LINE
5
176
100
AcDbEntity
8
BEND
100
AcDbLine
10
9.9999999999884892
20
89.654866775261468
30
-1.7832957333041577e-13
11
982.0000000000033
21
89.6548667754886
31
-1.7583157152500917e-13
0
LINE
5
177
100
AcDbEntity
8
BEND
100
AcDbLine
10
982.00000000001535
20
33.392920065879551
30
-3.2335245592207684e-14
11
9.9999999999998579
21
33.392920065879544
31
-1.9012569296705806e-14
0
LINE
5
178
100
AcDbEntity
8
BEND_EXTENT
100
AcDbLine
10
992.62113487127817
20
106.7858401307862
30
-1.5765166949677223e-13
11
-0.62113487078789831
21
106.78584013055411
31
-1.5765166949677223e-13
0
LINE
5
179
100
AcDbEntity
8
BEND_EXTENT
100
AcDbLine
10
-1.9999999996687734
20
109.04778684114046
30
-1.8207657603852567e-13
11
994.00000000033083
21
109.0477868413732
31
-2.0650148258027912e-13
0
LINE
5
180
100
AcDbEntity
8
BEND_EXTENT
100
AcDbLine
10
10.000000000048033
20
90.785840130553083
30
-1.0436096431476471e-13
11
982.00000000006503
21
90.785840130783754
31
-1.0436096431476471e-13
0
LINE
5
181
100
AcDbEntity
8
BEND_EXTENT
100
AcDbLine
10
982.00000000006423
20
88.523893420198547
30
-9.5479180117763462e-14
11
10.000000000047464
21
88.523893419971401
31
-9.1038288019262836e-14
0
LINE
5
182
100
AcDbEntity
8
BEND_EXTENT
100
AcDbLine
10
10.000000000001421
20
34.523893421170555
30
-9.1038288019262836e-14
11
982.00000000001819
21
34.523893421170577
31
-9.5479180117763462e-14
0
LINE
5
183
100
AcDbEntity
8
BEND_EXTENT
100
AcDbLine
10
982.00000000001762
20
32.261946710585988
30
-9.1038288019262836e-14
11
10.000000000000711
21
32.261946710589498
31
-9.9920072216264089e-14
0
LINE
5
184
100
AcDbEntity
8
BEND_EXTENT
100
AcDbLine
10
-0.6211348710287723
20
16.261946710585995
30
-1.1102230246251565e-14
11
992.62113487104693
21
16.261946710585981
31
-1.1102230246251565e-14
0
LINE
5
185
100
AcDbEntity
8
BEND_EXTENT
100
AcDbLine
10
994.0000000000166
20
13.999999999999995
30
0
11
-1.9999999999996021
21
13.999999999999995
31
-8.8817841970012523e-15
0
ENDSEC
0
SECTION
2
OBJECTS
0
DICTIONARY
5
C
100
AcDbDictionary
3
ACAD_GROUP
350
D
3
ACAD_MLINESTYLE
350
17
0
DICTIONARY
5
D
100
AcDbDictionary
0
DICTIONARY
5
1A
330
C
100
AcDbDictionary
0
DICTIONARY
5
17
100
AcDbDictionary
0
ENDSEC
0
EOF
