0
SECTION
2
HEADER
9
$INSUNITS
70
4
9
$ACADVER
1
AC1014
9
$HANDSEED
5
FFFF
0
ENDSEC
0
SECTION
2
TABLES
0
TABLE
2
VPORT
5
8
100
AcDbSymbolTable
0
ENDTAB
0
TABLE
2
LTYPE
5
5
100
AcDbSymbolTable
0
LTYPE
5
14
100
AcDbSymbolTableRecord
100
AcDbLinetypeTableRecord
2
BYBLOCK
70
0
0
LTYPE
5
15
100
AcDbSymbolTableRecord
100
AcDbLinetypeTableRecord
2
BYLAYER
70
0
0
LTYPE
5
16
100
AcDbSymbolTableRecord
100
AcDbLinetypeTableRecord
2
DASHED
70
0
3
Dashed __ __ __ __ __ __ __ __ __ __ __ __ __ _
72
65
73
2
40
0.75
49
0.5
74
0
49
-0.25
74
0
0
ENDTAB
0
TABLE
2
LAYER
5
2
100
AcDbSymbolTable
70
2
0
LAYER
5
50
100
AcDbSymbolTableRecord
100
AcDbLayerTableRecord
2
0
70
0
62
7
6
CONTINUOUS
0
ENDTAB
0
TABLE
2
STYLE
5
3
100
AcDbSymbolTable
70
1
0
STYLE
5
11
100
AcDbSymbolTableRecord
100
AcDbTextStyleTableRecord
2
STANDARD
70
0
0
ENDTAB
0
TABLE
2
VIEW
5
6
100
AcDbSymbolTable
70
0
0
ENDTAB
0
TABLE
2
UCS
5
7
100
AcDbSymbolTable
70
0
0
ENDTAB
0
TABLE
2
APPID
5
9
100
AcDbSymbolTable
70
2
0
APPID
5
12
100
AcDbSymbolTableRecord
100
AcDbRegAppTableRecord
2
ACAD
70
0
0
ENDTAB
0
TABLE
2
DIMSTYLE
5
A
100
AcDbSymbolTable
70
1
0
ENDTAB
0
TABLE
2
BLOCK_RECORD
5
1
100
AcDbSymbolTable
70
1
0
BLOCK_RECORD
5
1F
100
AcDbSymbolTableRecord
100
AcDbBlockTableRecord
2
*MODEL_SPACE
0
BLOCK_RECORD
5
1B
100
AcDbSymbolTableRecord
100
AcDbBlockTableRecord
2
*PAPER_SPACE
0
ENDTAB
0
ENDSEC
0
SECTION
2
BLOCKS
0
BLOCK
5
20
100
AcDbEntity
100
AcDbBlockBegin
2
*MODEL_SPACE
0
ENDBLK
5
21
100
AcDbEntity
100
AcDbBlockEnd
0
BLOCK
5
1C
100
AcDbEntity
100
AcDbBlockBegin
2
*PAPER_SPACE
0
ENDBLK
5
1D
100
AcDbEntity
100
AcDbBlockEnd
0
ENDSEC
0
SECTION
2
ENTITIES
0
LWPOLYLINE
5
100
100
AcDbEntity
8
OUTER_PROFILES
100
AcDbPolyline
90
20
70
1
43
0.0
10
1044.1619467105843
20
21.523893421169223
10
1044.1619467105843
20
84.523893421169234
10
996.16194671058452
20
84.523893421169191
10
993.89999999999986
20
82.52389342116922
10
994.79999999999995
20
84.785840131753901
10
994.79999999999995
20
106.04778684233848
10
0
20
106.04778684233848
10
7.1054273576010019e-14
20
84.785840131753901
10
0.90000000000010516
20
82.523893421169191
10
-1.361946710584433
20
84.523893421169177
10
-49.361946710584405
20
84.523893421169234
10
-49.361946710584405
20
21.523893421169227
10
-1.361946710584494
20
21.523893421169188
10
0.90000000000010516
20
23.523893421169152
10
2.1316282072803006e-13
20
21.261946710584571
10
0
20
0
10
994.79999999999995
20
0
10
994.79999999999995
20
21.261946710584571
10
993.90000000000009
20
23.523893421169188
10
996.16194671058452
20
21.523893421169205
0
CIRCLE
5
101
100
AcDbEntity
8
INTERIOR_PROFILES
100
AcDbCircle
10
-1001.6619467105846
20
77.52389342116912
30
0
40
1.7000000000000171
210
0
220
0
230
-1
0
CIRCLE
5
102
100
AcDbEntity
8
INTERIOR_PROFILES
100
AcDbCircle
10
-1001.6619467105846
20
28.523893421169205
30
0
40
1.7000000000000171
210
0
220
0
230
-1
0
CIRCLE
5
103
100
AcDbEntity
8
INTERIOR_PROFILES
100
AcDbCircle
10
6.8619467105847161
20
28.523893421169205
30
0
40
1.7000000000000004
210
0
220
0
230
-1
0
CIRCLE
5
104
100
AcDbEntity
8
INTERIOR_PROFILES
100
AcDbCircle
10
6.8619467105846681
20
77.52389342116912
30
0
40
1.7000000000000004
210
0
220
0
230
-1
0
LINE
5
105
100
AcDbEntity
8
BEND
100
AcDbLine
10
0.45000000000023022
20
22.392920065876922
30
1.2906342661267445e-13
11
994.35000000000002
21
22.392920065876922
31
7.9103390504542404e-14
0
LINE
5
106
100
AcDbEntity
8
BEND
100
AcDbLine
10
994.35000000000002
20
83.654866776461532
30
7.8825834748386114e-14
11
0.45000000000015916
21
83.654866776461532
31
2.8588242884097781e-14
0
LINE
5
107
100
AcDbEntity
8
BEND
100
AcDbLine
10
1.4210854715202004e-13
20
9.1309733552922836
30
4.1987432600002683e-14
11
994.79999999999995
21
9.1309733552922836
31
5.0043178875785441e-14
0
LINE
5
108
100
AcDbEntity
8
BEND
100
AcDbLine
10
-0.23097335529215043
20
83.523893421169163
30
6.5503158452884211e-14
11
-0.23097335529214807
21
22.523893421169241
31
-1.2906342661267445e-13
0
LINE
5
109
100
AcDbEntity
8
BEND
100
AcDbLine
10
995.03097335529219
20
22.523893421169308
30
-2.1926904736346842e-14
11
995.03097335529219
21
83.523893421169134
31
6.5503158452884236e-14
0
LINE
5
110
100
AcDbEntity
8
BEND
100
AcDbLine
10
994.79999999999995
20
96.916813487046198
30
4.7954267166382082e-14
11
0
21
96.916813487046198
31
5.4484070974286086e-14
0
LINE
5
111
100
AcDbEntity
8
BEND_EXTENT
100
AcDbLine
10
996.16194671058452
20
84.523893421169191
30
7.9936057773011271e-14
11
996.16194671058452
21
21.523893421169209
31
7.9936057773011271e-14
0
LWPOLYLINE
5
112
100
AcDbEntity
8
BEND_EXTENT
100
AcDbPolyline
90
4
70
1
43
0.0
10
993.90000000000009
20
23.523893421169188
10
993.89999999999986
20
82.52389342116922
10
0.90000000000003411
20
82.523893421169191
10
0.90000000000010516
20
23.523893421169149
0
LINE
5
113
100
AcDbEntity
8
BEND_EXTENT
100
AcDbLine
10
7.1054273576010019e-14
20
84.785840131753901
30
3.9968028886505635e-14
11
994.79999999999995
21
84.785840131753901
31
7.5495165674510645e-14
0
LINE
5
114
100
AcDbEntity
8
BEND_EXTENT
100
AcDbLine
10
0
20
98.047786842338496
30
5.9952043329758453e-14
11
994.79999999999995
21
98.047786842338496
31
5.9952043329758453e-14
0
LINE
5
115
100
AcDbEntity
8
BEND_EXTENT
100
AcDbLine
10
994.79999999999995
20
95.785840131753886
30
5.3290705182007514e-14
11
0
21
95.785840131753886
31
5.3290705182007514e-14
0
LINE
5
116
100
AcDbEntity
8
BEND_EXTENT
100
AcDbLine
10
994.79999999999995
20
7.9999999999999893
30
5.5511151231257827e-14
11
1.4210854715202004e-13
21
7.9999999999999893
31
5.5511151231257827e-14
0
LINE
5
117
100
AcDbEntity
8
BEND_EXTENT
100
AcDbLine
10
0
20
10.261946710584574
30
5.773159728050814e-14
11
994.79999999999995
21
10.261946710584574
31
5.773159728050814e-14
0
LINE
5
118
100
AcDbEntity
8
BEND_EXTENT
100
AcDbLine
10
994.79999999999995
20
21.261946710584571
30
7.1054273576010019e-14
11
2.8421709430404007e-13
21
21.261946710584571
31
7.1054273576010019e-14
0
LINE
5
119
100
AcDbEntity
8
BEND_EXTENT
100
AcDbLine
10
-1.3619467105844907
20
21.523893421169188
30
8.8817841970012523e-15
11
-1.361946710584433
21
84.523893421169177
31
7.9936057773011271e-14
0
ENDSEC
0
SECTION
2
OBJECTS
0
DICTIONARY
5
C
100
AcDbDictionary
3
ACAD_GROUP
350
D
3
ACAD_MLINESTYLE
350
17
0
DICTIONARY
5
D
100
AcDbDictionary
0
DICTIONARY
5
1A
330
C
100
AcDbDictionary
0
DICTIONARY
5
17
100
AcDbDictionary
0
ENDSEC
0
EOF
