0
SECTION
2
HEADER
9
$INSUNITS
70
4
9
$ACADVER
1
AC1014
9
$HANDSEED
5
FFFF
0
ENDSEC
0
SECTION
2
TABLES
0
TABLE
2
VPORT
5
8
100
AcDbSymbolTable
0
ENDTAB
0
TABLE
2
LTYPE
5
5
100
AcDbSymbolTable
0
LTYPE
5
14
100
AcDbSymbolTableRecord
100
AcDbLinetypeTableRecord
2
BYBLOCK
70
0
0
LTYPE
5
15
100
AcDbSymbolTableRecord
100
AcDbLinetypeTableRecord
2
BYLAYER
70
0
0
LTYPE
5
16
100
AcDbSymbolTableRecord
100
AcDbLinetypeTableRecord
2
DASHED
70
0
3
Dashed __ __ __ __ __ __ __ __ __ __ __ __ __ _
72
65
73
2
40
0.75
49
0.5
74
0
49
-0.25
74
0
0
ENDTAB
0
TABLE
2
LAYER
5
2
100
AcDbSymbolTable
70
2
0
LAYER
5
50
100
AcDbSymbolTableRecord
100
AcDbLayerTableRecord
2
0
70
0
62
7
6
CONTINUOUS
0
ENDTAB
0
TABLE
2
STYLE
5
3
100
AcDbSymbolTable
70
1
0
STYLE
5
11
100
AcDbSymbolTableRecord
100
AcDbTextStyleTableRecord
2
STANDARD
70
0
0
ENDTAB
0
TABLE
2
VIEW
5
6
100
AcDbSymbolTable
70
0
0
ENDTAB
0
TABLE
2
UCS
5
7
100
AcDbSymbolTable
70
0
0
ENDTAB
0
TABLE
2
APPID
5
9
100
AcDbSymbolTable
70
2
0
APPID
5
12
100
AcDbSymbolTableRecord
100
AcDbRegAppTableRecord
2
ACAD
70
0
0
ENDTAB
0
TABLE
2
DIMSTYLE
5
A
100
AcDbSymbolTable
70
1
0
ENDTAB
0
TABLE
2
BLOCK_RECORD
5
1
100
AcDbSymbolTable
70
1
0
BLOCK_RECORD
5
1F
100
AcDbSymbolTableRecord
100
AcDbBlockTableRecord
2
*MODEL_SPACE
0
BLOCK_RECORD
5
1B
100
AcDbSymbolTableRecord
100
AcDbBlockTableRecord
2
*PAPER_SPACE
0
ENDTAB
0
ENDSEC
0
SECTION
2
BLOCKS
0
BLOCK
5
20
100
AcDbEntity
100
AcDbBlockBegin
2
*MODEL_SPACE
0
ENDBLK
5
21
100
AcDbEntity
100
AcDbBlockEnd
0
BLOCK
5
1C
100
AcDbEntity
100
AcDbBlockBegin
2
*PAPER_SPACE
0
ENDBLK
5
1D
100
AcDbEntity
100
AcDbBlockEnd
0
ENDSEC
0
SECTION
2
ENTITIES
0
LWPOLYLINE
5
100
100
AcDbEntity
8
OUTER_PROFILES
100
AcDbPolyline
90
40
70
1
43
0.0
10
-1.7673694583603221
20
609.44775999527519
42
0.41421356237311974
10
-1.7673694583603261
20
610.8619735576483
10
-14.191236032465895
20
623.28584013175384
10
0
20
623.28584013175396
10
0
20
625.54778684233861
10
0
20
632.54778684233872
10
-6.1232339957367663e-16
20
634.80973355292338
42
0.41421356237309503
10
10
20
644.80973355292338
10
10
20
666.07168026350803
10
549.99999999999989
20
666.07168026350803
10
549.99999999999795
20
644.80973355292531
42
0.41421356237309503
10
559.99999999999989
20
634.80973355292338
10
559.99999999999989
20
632.54778684233872
10
559.99999999999989
20
625.54778684233861
10
559.99999999999989
20
623.28584013175396
10
574.19123603246601
20
623.28584013175396
10
561.76736945836024
20
610.8619735576483
42
0.41421356237312451
10
561.76736945836024
20
609.44775999527508
10
574.26194671058465
20
596.95318274305066
10
574.26194671058465
20
562.12389342116592
10
568.79123603246296
20
562.12389342116933
10
561.76736945836024
20
555.10002684706353
42
0.41421356237310974
10
561.76736945836024
20
553.68581328469054
10
568.76194671058124
20
546.69123603246942
10
568.76194671058124
20
541.19123603246589
10
579.26194671058465
20
541.19123603246601
10
579.26194671058465
20
19.26194671058461
10
559.99999999999989
20
19.261946710584709
10
559.99999999999989
20
0
10
0
20
0
10
0
20
19.261946710584709
10
-19.26194671058461
20
19.261946710584752
10
-19.261946710584681
20
541.19123603246601
10
-8.7619467105846383
20
541.19123603246589
10
-8.7619467105846383
20
546.69123603246885
10
-1.767369458360315
20
553.68581328469031
42
0.41421356237312035
10
-1.7673694583602639
20
555.10002684706353
10
-8.7912360324629901
20
562.12389342116933
10
-14.261946710584681
20
562.12389342116933
10
-14.261946710584681
20
596.95318274305066
0
CIRCLE
5
101
100
AcDbEntity
8
INTERIOR_PROFILES
100
AcDbCircle
10
9.2619467105846809
20
569.5238934211693
30
0
40
1.6999999999999993
210
0
220
0
230
-1
0
CIRCLE
5
102
100
AcDbEntity
8
INTERIOR_PROFILES
100
AcDbCircle
10
9.2619467105846809
20
596.5238934211693
30
0
40
1.6999999999999993
210
0
220
0
230
-1
0
CIRCLE
5
103
100
AcDbEntity
8
INTERIOR_PROFILES
100
AcDbCircle
10
11.261946710584638
20
262.26194671058471
30
0
40
1.7000000000000171
210
0
220
0
230
-1
0
CIRCLE
5
104
100
AcDbEntity
8
INTERIOR_PROFILES
100
AcDbCircle
10
-129.99999999999994
20
644.80973355292338
30
0
40
1.6999999999999993
210
0
220
0
230
-1
0
CIRCLE
5
105
100
AcDbEntity
8
INTERIOR_PROFILES
100
AcDbCircle
10
-569.26194671058465
20
596.5238934211693
30
0
40
1.7000000000000171
210
0
220
0
230
-1
0
CIRCLE
5
106
100
AcDbEntity
8
INTERIOR_PROFILES
100
AcDbCircle
10
-430
20
644.80973355292338
30
0
40
1.7000000000000171
210
0
220
0
230
-1
0
CIRCLE
5
107
100
AcDbEntity
8
INTERIOR_PROFILES
100
AcDbCircle
10
-279.99999999999994
20
8
30
0
40
1.7000000000000004
210
-0
220
0
230
-1
0
CIRCLE
5
108
100
AcDbEntity
8
INTERIOR_PROFILES
100
AcDbCircle
10
-505
20
8
30
0
40
1.7000000000000004
210
-0
220
0
230
-1
0
CIRCLE
5
109
100
AcDbEntity
8
INTERIOR_PROFILES
100
AcDbCircle
10
-54.999999999999929
20
8
30
0
40
1.7000000000000004
210
-0
220
0
230
-1
0
CIRCLE
5
110
100
AcDbEntity
8
INTERIOR_PROFILES
100
AcDbCircle
10
-569.26194671058465
20
569.5238934211693
30
0
40
1.7000000000000171
210
0
220
0
230
-1
0
CIRCLE
5
111
100
AcDbEntity
8
INTERIOR_PROFILES
100
AcDbCircle
10
9.2619467105846809
20
564.5238934211693
30
0
40
1.6999999999999993
210
0
220
0
230
-1
0
CIRCLE
5
112
100
AcDbEntity
8
INTERIOR_PROFILES
100
AcDbCircle
10
-569.26194671058465
20
564.5238934211693
30
0
40
1.7000000000000171
210
0
220
0
230
-1
0
CIRCLE
5
113
100
AcDbEntity
8
INTERIOR_PROFILES
100
AcDbCircle
10
6.2619467105846383
20
518.26194671058465
30
0
40
1.7000000000000171
210
0
220
0
230
-1
0
CIRCLE
5
114
100
AcDbEntity
8
INTERIOR_PROFILES
100
AcDbCircle
10
-279.99999999999994
20
601.0238934211693
30
0
40
5
210
-0
220
0
230
-1
0
CIRCLE
5
115
100
AcDbEntity
8
INTERIOR_PROFILES
100
AcDbCircle
10
11.261946710584638
20
390.26194671058471
30
0
40
1.7000000000000171
210
0
220
0
230
-1
0
CIRCLE
5
116
100
AcDbEntity
8
INTERIOR_PROFILES
100
AcDbCircle
10
16.261946710584638
20
134.26194671058465
30
0
40
1.6999999999999993
210
0
220
0
230
-1
0
CIRCLE
5
117
100
AcDbEntity
8
INTERIOR_PROFILES
100
AcDbCircle
10
6.2619467105846383
20
390.26194671058471
30
0
40
1.7000000000000171
210
0
220
0
230
-1
0
CIRCLE
5
118
100
AcDbEntity
8
INTERIOR_PROFILES
100
AcDbCircle
10
11.261946710584638
20
518.26194671058465
30
0
40
1.7000000000000171
210
0
220
0
230
-1
0
CIRCLE
5
119
100
AcDbEntity
8
INTERIOR_PROFILES
100
AcDbCircle
10
6.2619467105846383
20
262.26194671058471
30
0
40
1.7000000000000171
210
0
220
0
230
-1
0
CIRCLE
5
120
100
AcDbEntity
8
INTERIOR_PROFILES
100
AcDbCircle
10
16.261946710584638
20
262.26194671058471
30
0
40
1.7000000000000171
210
0
220
0
230
-1
0
CIRCLE
5
121
100
AcDbEntity
8
INTERIOR_PROFILES
100
AcDbCircle
10
6.2619467105846383
20
546.26194671058465
30
0
40
1.7000000000000171
210
0
220
0
230
-1
0
CIRCLE
5
122
100
AcDbEntity
8
INTERIOR_PROFILES
100
AcDbCircle
10
6.2619467105846383
20
134.26194671058465
30
0
40
1.6999999999999993
210
0
220
0
230
-1
0
CIRCLE
5
123
100
AcDbEntity
8
INTERIOR_PROFILES
100
AcDbCircle
10
-571.26194671058454
20
390.26194671058471
30
0
40
1.7000000000000171
210
0
220
0
230
-1
0
CIRCLE
5
124
100
AcDbEntity
8
INTERIOR_PROFILES
100
AcDbCircle
10
-571.26194671058454
20
262.26194671058471
30
0
40
1.7000000000000171
210
0
220
0
230
-1
0
CIRCLE
5
125
100
AcDbEntity
8
INTERIOR_PROFILES
100
AcDbCircle
10
-566.26194671058454
20
390.26194671058471
30
0
40
1.7000000000000171
210
0
220
0
230
-1
0
CIRCLE
5
126
100
AcDbEntity
8
INTERIOR_PROFILES
100
AcDbCircle
10
-576.26194671058454
20
134.26194671058465
30
0
40
1.6999999999999993
210
0
220
0
230
-1
0
CIRCLE
5
127
100
AcDbEntity
8
INTERIOR_PROFILES
100
AcDbCircle
10
-576.26194671058465
20
518.26194671058465
30
0
40
1.7000000000000171
210
0
220
0
230
-1
0
CIRCLE
5
128
100
AcDbEntity
8
INTERIOR_PROFILES
100
AcDbCircle
10
-576.26194671058454
20
262.26194671058471
30
0
40
1.7000000000000171
210
0
220
0
230
-1
0
CIRCLE
5
129
100
AcDbEntity
8
INTERIOR_PROFILES
100
AcDbCircle
10
-566.26194671058454
20
262.26194671058471
30
0
40
1.7000000000000171
210
0
220
0
230
-1
0
CIRCLE
5
130
100
AcDbEntity
8
INTERIOR_PROFILES
100
AcDbCircle
10
16.261946710584638
20
390.26194671058471
30
0
40
1.7000000000000171
210
0
220
0
230
-1
0
CIRCLE
5
131
100
AcDbEntity
8
INTERIOR_PROFILES
100
AcDbCircle
10
-566.26194671058465
20
546.26194671058465
30
0
40
1.7000000000000171
210
0
220
0
230
-1
0
CIRCLE
5
132
100
AcDbEntity
8
INTERIOR_PROFILES
100
AcDbCircle
10
-571.26194671058465
20
518.26194671058465
30
0
40
1.7000000000000171
210
0
220
0
230
-1
0
CIRCLE
5
133
100
AcDbEntity
8
INTERIOR_PROFILES
100
AcDbCircle
10
-566.26194671058454
20
134.26194671058465
30
0
40
1.6999999999999993
210
0
220
0
230
-1
0
CIRCLE
5
134
100
AcDbEntity
8
INTERIOR_PROFILES
100
AcDbCircle
10
16.261946710584638
20
518.26194671058465
30
0
40
1.7000000000000171
210
0
220
0
230
-1
0
CIRCLE
5
135
100
AcDbEntity
8
INTERIOR_PROFILES
100
AcDbCircle
10
-571.26194671058454
20
134.26194671058465
30
0
40
1.6999999999999993
210
0
220
0
230
-1
0
CIRCLE
5
136
100
AcDbEntity
8
INTERIOR_PROFILES
100
AcDbCircle
10
11.261946710584638
20
134.26194671058465
30
0
40
1.6999999999999993
210
0
220
0
230
-1
0
CIRCLE
5
137
100
AcDbEntity
8
INTERIOR_PROFILES
100
AcDbCircle
10
-576.26194671058454
20
390.26194671058471
30
0
40
1.7000000000000171
210
0
220
0
230
-1
0
CIRCLE
5
138
100
AcDbEntity
8
INTERIOR_PROFILES
100
AcDbCircle
10
-566.26194671058465
20
518.26194671058465
30
0
40
1.7000000000000171
210
0
220
0
230
-1
0
LINE
5
139
100
AcDbEntity
8
BEND
100
AcDbLine
10
549.99999999999989
20
655.9407069082157
30
8.4765950548822333e-12
11
10
21
655.9407069082157
31
8.4765950548822333e-12
0
LINE
5
140
100
AcDbEntity
8
BEND
100
AcDbLine
10
559.99999999999989
20
633.67876019763105
30
8.2000618391114435e-12
11
0
21
633.67876019763105
31
8.2000618391114435e-12
0
LINE
5
141
100
AcDbEntity
8
BEND
100
AcDbLine
10
-1.1309733552921841
20
623.28584013175396
30
8.0775448953634401e-12
11
-1.1309733552921841
21
610.15486677646163
31
7.9182417853574263e-12
0
LINE
5
142
100
AcDbEntity
8
BEND
100
AcDbLine
10
-1.1309733552921841
20
610.15486677646163
30
7.9182417853574263e-12
11
-1.1309733552923973
21
554.39292006587698
31
7.0919862696412649e-12
0
LINE
5
143
100
AcDbEntity
8
BEND
100
AcDbLine
10
-1.1309733552923973
20
554.39292006587698
30
7.0919862696412649e-12
11
-1.1309733552923262
21
19.261946710584752
31
-2.9033435360800666e-13
0
LINE
5
144
100
AcDbEntity
8
BEND
100
AcDbLine
10
559.99999999999989
20
624.41681348704628
30
8.0965035514176544e-12
11
0
21
624.41681348704628
31
8.0965035514176544e-12
0
LINE
5
145
100
AcDbEntity
8
BEND
100
AcDbLine
10
561.13097335529221
20
610.15486677646163
30
7.9083112697542081e-12
11
561.13097335529221
21
623.28584013175396
31
8.0775448953634401e-12
0
LINE
5
146
100
AcDbEntity
8
BEND
100
AcDbLine
10
561.13097335529221
20
554.39292006587698
30
7.0919862696412649e-12
11
561.13097335529221
21
610.15486677646163
31
7.9083112697542081e-12
0
LINE
5
147
100
AcDbEntity
8
BEND
100
AcDbLine
10
561.13097335529233
20
19.26194671058478
30
-2.8811390755875604e-13
11
561.13097335529221
21
554.39292006587698
31
7.0919862696412649e-12
0
LINE
5
148
100
AcDbEntity
8
BEND
100
AcDbLine
10
559.99999999999989
20
18.130973355292387
30
-3.7895950445744908e-13
11
0
21
18.130973355292387
31
-3.7895950445744908e-13
0
LINE
5
149
100
AcDbEntity
8
BEND
100
AcDbLine
10
561.47447623954679
20
554.39292006587698
30
7.1253839809771481e-12
11
-1.4744762395466893
21
554.39292006587698
31
7.0840065242347641e-12
0
LINE
5
150
100
AcDbEntity
8
BEND
100
AcDbLine
10
561.47447623954668
20
610.15486677646163
30
7.9182417853574263e-12
11
-1.4744762395468314
21
610.15486677646163
31
7.8674862831692583e-12
0
LINE
5
151
100
AcDbEntity
8
BEND_EXTENT
100
AcDbLine
10
559.99999999999989
20
632.54778684233872
30
8.1855440751557315e-12
11
0
21
632.54778684233872
31
8.1855440751557315e-12
0
LINE
5
152
100
AcDbEntity
8
BEND_EXTENT
100
AcDbLine
10
0
20
634.80973355292338
30
8.2212409412149081e-12
11
559.99999999999989
21
634.80973355292338
31
8.2212409412149081e-12
0
LINE
5
153
100
AcDbEntity
8
BEND_EXTENT
100
AcDbLine
10
0
20
625.54778684233861
30
8.1021395311763668e-12
11
559.99999999999989
21
625.54778684233861
31
8.1021395311763668e-12
0
LINE
5
154
100
AcDbEntity
8
BEND_EXTENT
100
AcDbLine
10
559.99999999999989
20
17
30
-3.3352522508340445e-13
11
0
21
17
31
-3.3352522508340445e-13
0
LWPOLYLINE
5
155
100
AcDbEntity
8
BEND_EXTENT
100
AcDbPolyline
90
4
70
1
43
0.0
10
559.99999999999989
20
555.5238934211693
10
559.99999999999989
20
609.0238934211693
10
0
20
609.0238934211693
10
0
20
555.5238934211693
0
LWPOLYLINE
5
156
100
AcDbEntity
8
BEND_EXTENT
100
AcDbPolyline
90
4
70
1
43
0.0
10
559.99999999999989
20
611.28584013175396
10
559.99999999999989
20
623.28584013175396
10
0
20
623.28584013175396
10
0
20
611.28584013175396
0
LWPOLYLINE
5
157
100
AcDbEntity
8
BEND_EXTENT
100
AcDbPolyline
90
4
70
1
43
0.0
10
559.99999999999989
20
19.261946710584709
10
559.99999999999989
20
553.26194671058465
10
0
20
553.26194671058465
10
0
20
19.261946710584681
0
LINE
5
158
100
AcDbEntity
8
BEND_EXTENT
100
AcDbLine
10
562.26194671058454
20
608.95318274305055
30
7.9009697601054513e-12
11
562.26194671058454
21
555.59460409928795
31
7.1509598799961014e-12
0
LINE
5
159
100
AcDbEntity
8
BEND_EXTENT
100
AcDbLine
10
-2.2619467105845814
20
611.3565508098726
30
7.9504514787778053e-12
11
-2.2619467105845814
21
623.28584013175396
31
8.1152924782006955e-12
0
LINE
5
160
100
AcDbEntity
8
BEND_EXTENT
100
AcDbLine
10
-2.2619467105846525
20
19.26194671058478
30
-3.0226925112272679e-13
11
-2.2619467105847235
21
553.19123603246555
31
7.075658745940197e-12
0
LINE
5
161
100
AcDbEntity
8
BEND_EXTENT
100
AcDbLine
10
-2.2619467105847235
20
555.59460409928795
30
7.1088689048546406e-12
11
-2.2619467105847235
21
608.95318274305066
31
7.8461870462873566e-12
0
LINE
5
162
100
AcDbEntity
8
BEND_EXTENT
100
AcDbLine
10
562.26194671058465
20
553.19123603246612
30
7.0893412368863318e-12
11
562.26194671058465
21
19.261946710584752
31
-2.8836649671367152e-13
0
LINE
5
163
100
AcDbEntity
8
BEND_EXTENT
100
AcDbLine
10
562.26194671058454
20
623.28584013175396
30
8.0777105272731539e-12
11
562.26194671058454
21
611.3565508098726
31
7.9358156391619326e-12
0
LINE
5
164
100
AcDbEntity
8
BEND_EXTENT
100
AcDbLine
10
549.99999999999989
20
654.80973355292338
30
8.4620772909265212e-12
11
10
21
654.80973355292338
31
8.4620772909265212e-12
0
LINE
5
165
100
AcDbEntity
8
BEND_EXTENT
100
AcDbLine
10
10
20
657.07168026350803
30
8.4888923727886966e-12
11
549.99999999999989
21
657.07168026350803
31
8.4888923727886966e-12
0
ENDSEC
0
SECTION
2
OBJECTS
0
DICTIONARY
5
C
100
AcDbDictionary
3
ACAD_GROUP
350
D
3
ACAD_MLINESTYLE
350
17
0
DICTIONARY
5
D
100
AcDbDictionary
0
DICTIONARY
5
1A
330
C
100
AcDbDictionary
0
DICTIONARY
5
17
100
AcDbDictionary
0
ENDSEC
0
EOF
