0
SECTION
2
HEADER
9
$INSUNITS
70
4
9
$ACADVER
1
AC1014
9
$HANDSEED
5
FFFF
0
ENDSEC
0
SECTION
2
TABLES
0
TABLE
2
VPORT
5
8
100
AcDbSymbolTable
0
ENDTAB
0
TABLE
2
LTYPE
5
5
100
AcDbSymbolTable
0
LTYPE
5
14
100
AcDbSymbolTableRecord
100
AcDbLinetypeTableRecord
2
BYBLOCK
70
0
0
LTYPE
5
15
100
AcDbSymbolTableRecord
100
AcDbLinetypeTableRecord
2
BYLAYER
70
0
0
LTYPE
5
16
100
AcDbSymbolTableRecord
100
AcDbLinetypeTableRecord
2
DASHED
70
0
3
Dashed __ __ __ __ __ __ __ __ __ __ __ __ __ _
72
65
73
2
40
0.75
49
0.5
74
0
49
-0.25
74
0
0
ENDTAB
0
TABLE
2
LAYER
5
2
100
AcDbSymbolTable
70
2
0
LAYER
5
50
100
AcDbSymbolTableRecord
100
AcDbLayerTableRecord
2
0
70
0
62
7
6
CONTINUOUS
0
ENDTAB
0
TABLE
2
STYLE
5
3
100
AcDbSymbolTable
70
1
0
STYLE
5
11
100
AcDbSymbolTableRecord
100
AcDbTextStyleTableRecord
2
STANDARD
70
0
0
ENDTAB
0
TABLE
2
VIEW
5
6
100
AcDbSymbolTable
70
0
0
ENDTAB
0
TABLE
2
UCS
5
7
100
AcDbSymbolTable
70
0
0
ENDTAB
0
TABLE
2
APPID
5
9
100
AcDbSymbolTable
70
2
0
APPID
5
12
100
AcDbSymbolTableRecord
100
AcDbRegAppTableRecord
2
ACAD
70
0
0
ENDTAB
0
TABLE
2
DIMSTYLE
5
A
100
AcDbSymbolTable
70
1
0
ENDTAB
0
TABLE
2
BLOCK_RECORD
5
1
100
AcDbSymbolTable
70
1
0
BLOCK_RECORD
5
1F
100
AcDbSymbolTableRecord
100
AcDbBlockTableRecord
2
*MODEL_SPACE
0
BLOCK_RECORD
5
1B
100
AcDbSymbolTableRecord
100
AcDbBlockTableRecord
2
*PAPER_SPACE
0
ENDTAB
0
ENDSEC
0
SECTION
2
BLOCKS
0
BLOCK
5
20
100
AcDbEntity
100
AcDbBlockBegin
2
*MODEL_SPACE
0
ENDBLK
5
21
100
AcDbEntity
100
AcDbBlockEnd
0
BLOCK
5
1C
100
AcDbEntity
100
AcDbBlockBegin
2
*PAPER_SPACE
0
ENDBLK
5
1D
100
AcDbEntity
100
AcDbBlockEnd
0
ENDSEC
0
SECTION
2
ENTITIES
0
LWPOLYLINE
5
100
100
AcDbEntity
8
OUTER_PROFILES
100
AcDbPolyline
90
30
70
1
43
0.0
10
0
20
0
10
2.4238665741057472
20
2.4238665741057019
42
0.41421356237311135
10
2.4238665741057357
20
3.8380801364788497
10
-0.070710678118652281
20
6.3326573887032822
10
-0.070710678118652281
20
24.191236032465966
10
2.4238665741057366
20
26.685813284690383
42
0.41421356237309687
10
2.4238665741057033
20
28.100026847063514
10
-0.070710678118657277
20
30.594604099287892
10
-4.0707106781186573
20
30.594604099287892
10
-4.0707106781186573
20
390.52389342116925
10
1.9292893218813423
20
390.52389342116925
10
4.1912360324659081
20
390.52389342116925
10
4.1912360324659073
20
402.04778684233861
42
0.41421356237309503
10
14.191236032465838
20
412.0477868423385
10
14.191236032465838
20
422.04778684233867
10
890.19123603246612
20
422.04778684233838
10
890.19123603246612
20
412.0477868423385
42
0.41421356237309503
10
900.19123603246612
20
402.0477868423385
10
900.19123603246612
20
390.52389342116925
10
902.45318274305032
20
390.52389342116925
10
908.45318274305043
20
390.52389342116925
10
908.45318274305043
20
30.594604099287892
10
904.45318274305032
20
30.594604099287892
10
901.95860549082613
20
28.100026847063617
42
0.41421356237304724
10
901.95860549082624
20
26.685813284690543
10
904.45318274305066
20
24.191236032465966
10
904.45318274305066
20
6.3326573887032822
10
901.95860549082624
20
3.8380801364788675
42
0.41421356237307388
10
901.95860549082624
20
2.4238665741058063
10
904.3824720649319
20
-7.1054273576010019e-14
0
CIRCLE
5
101
100
AcDbEntity
8
INTERIOR_PROFILES
100
AcDbCircle
10
-552.19123603246589
20
34.523893421169234
30
0
40
1.7000000000000171
210
0
220
0
230
-1
0
CIRCLE
5
102
100
AcDbEntity
8
INTERIOR_PROFILES
100
AcDbCircle
10
-552.19123603246601
20
412.04778684233844
30
0
40
1.7000000000000171
210
0
220
0
230
-1
0
CIRCLE
5
103
100
AcDbEntity
8
INTERIOR_PROFILES
100
AcDbCircle
10
-152.19123603246604
20
412.04778684233844
30
0
40
1.7000000000000171
210
0
220
0
230
-1
0
CIRCLE
5
104
100
AcDbEntity
8
INTERIOR_PROFILES
100
AcDbCircle
10
-52.191236032465952
20
34.523893421169234
30
0
40
1.6999999999999993
210
0
220
0
230
-1
0
CIRCLE
5
105
100
AcDbEntity
8
INTERIOR_PROFILES
100
AcDbCircle
10
-352.19123603246601
20
412.04778684233844
30
0
40
1.7000000000000171
210
0
220
0
230
-1
0
CIRCLE
5
106
100
AcDbEntity
8
INTERIOR_PROFILES
100
AcDbCircle
10
-852.19123603246601
20
412.04778684233844
30
0
40
1.7000000000000171
210
0
220
0
230
-1
0
CIRCLE
5
107
100
AcDbEntity
8
INTERIOR_PROFILES
100
AcDbCircle
10
-752.19123603246601
20
412.04778684233844
30
0
40
1.7000000000000171
210
0
220
0
230
-1
0
CIRCLE
5
108
100
AcDbEntity
8
INTERIOR_PROFILES
100
AcDbCircle
10
-352.19123603246595
20
34.523893421169234
30
0
40
1.7000000000000171
210
0
220
0
230
-1
0
CIRCLE
5
109
100
AcDbEntity
8
INTERIOR_PROFILES
100
AcDbCircle
10
-852.19123603246601
20
34.523893421169234
30
0
40
1.7000000000000171
210
0
220
0
230
-1
0
CIRCLE
5
110
100
AcDbEntity
8
INTERIOR_PROFILES
100
AcDbCircle
10
-52.191236032466023
20
412.04778684233844
30
0
40
1.7000000000000171
210
0
220
0
230
-1
0
CIRCLE
5
111
100
AcDbEntity
8
INTERIOR_PROFILES
100
AcDbCircle
10
-652.19123603246601
20
412.04778684233844
30
0
40
1.7000000000000171
210
0
220
0
230
-1
0
CIRCLE
5
112
100
AcDbEntity
8
INTERIOR_PROFILES
100
AcDbCircle
10
-152.19123603246595
20
34.523893421169234
30
0
40
1.6999999999999993
210
0
220
0
230
-1
0
CIRCLE
5
113
100
AcDbEntity
8
INTERIOR_PROFILES
100
AcDbCircle
10
-752.19123603246601
20
34.523893421169234
30
0
40
1.7000000000000171
210
0
220
0
230
-1
0
CIRCLE
5
114
100
AcDbEntity
8
INTERIOR_PROFILES
100
AcDbCircle
10
-452.19123603246601
20
412.04778684233844
30
0
40
1.7000000000000171
210
0
220
0
230
-1
0
CIRCLE
5
115
100
AcDbEntity
8
INTERIOR_PROFILES
100
AcDbCircle
10
-452.19123603246595
20
34.523893421169234
30
0
40
1.7000000000000171
210
0
220
0
230
-1
0
CIRCLE
5
116
100
AcDbEntity
8
INTERIOR_PROFILES
100
AcDbCircle
10
-252.19123603246601
20
412.04778684233844
30
0
40
1.7000000000000171
210
0
220
0
230
-1
0
CIRCLE
5
117
100
AcDbEntity
8
INTERIOR_PROFILES
100
AcDbCircle
10
-652.19123603246601
20
34.523893421169234
30
0
40
1.7000000000000171
210
0
220
0
230
-1
0
CIRCLE
5
118
100
AcDbEntity
8
INTERIOR_PROFILES
100
AcDbCircle
10
-252.19123603246595
20
34.523893421169234
30
0
40
1.7000000000000171
210
0
220
0
230
-1
0
LINE
5
119
100
AcDbEntity
8
BEND
100
AcDbLine
10
901.32220938775833
20
0
30
-2.0329471398553685e-11
11
901.32220938775833
21
3.1309733552922836
31
-2.0330740183261797e-11
0
LINE
5
120
100
AcDbEntity
8
BEND
100
AcDbLine
10
901.32220938775833
20
3.1309733552922836
30
-2.0330740183261797e-11
11
901.32220938775822
21
27.392920065876964
31
-2.0285380404587916e-11
0
LINE
5
121
100
AcDbEntity
8
BEND
100
AcDbLine
10
901.32220938775822
20
27.392920065876964
30
-2.0285380404587916e-11
11
901.32220938775822
21
390.52389342116925
31
-2.0446919171558005e-11
0
LINE
5
122
100
AcDbEntity
8
BEND
100
AcDbLine
10
3.060262677173653
20
3.1309733552922836
30
-9.3436193174702488e-15
11
3.060262677173653
21
0
31
-6.8910357340264207e-14
0
LINE
5
123
100
AcDbEntity
8
BEND
100
AcDbLine
10
3.060262677173653
20
27.392920065876964
30
-2.4541807618342213e-14
11
3.060262677173653
21
3.1309733552922836
31
-9.3436193174702488e-15
0
LINE
5
124
100
AcDbEntity
8
BEND
100
AcDbLine
10
3.060262677173653
20
390.52389342116925
30
-1.2834897730792134e-13
11
3.060262677173653
21
27.392920065876964
31
-2.4541807618342213e-14
0
LINE
5
125
100
AcDbEntity
8
BEND
100
AcDbLine
10
4.1912360324659081
20
400.91681348704617
30
-1.9242487505962033e-13
11
900.19123603246612
21
400.91681348704617
31
-2.0402243903198609e-11
0
LINE
5
126
100
AcDbEntity
8
BEND
100
AcDbLine
10
2.7167597929192233
20
3.1309733552922836
30
-6.2153672088620155e-14
11
901.6657122720128
21
3.1309733552922836
31
-2.0445825443575466e-11
0
LINE
5
127
100
AcDbEntity
8
BEND
100
AcDbLine
10
900.19123603246612
20
391.65486677646163
30
-2.0292762696658042e-11
11
4.1912360324658948
21
391.65486677646163
31
-6.9620992223551097e-14
0
LINE
5
128
100
AcDbEntity
8
BEND
100
AcDbLine
10
2.7167597929191851
20
27.392920065876964
30
-1.6085596759209462e-13
11
901.6657122720128
21
27.392920065876964
31
-2.0569345849319924e-11
0
LINE
5
129
100
AcDbEntity
8
BEND_EXTENT
100
AcDbLine
10
4.1912360324659081
20
402.0477868423385
30
-1.8303249609914319e-13
11
900.19123603246612
21
402.0477868423385
31
-2.0392851524238132e-11
0
LINE
5
130
100
AcDbEntity
8
BEND_EXTENT
100
AcDbLine
10
900.19123603246612
20
399.78584013175396
30
-2.0378695375686627e-11
11
4.1912360324658948
21
399.78584013175396
31
-1.6887634754763839e-13
0
LINE
5
131
100
AcDbEntity
8
BEND_EXTENT
100
AcDbLine
10
4.1912360324659081
20
392.7858401317539
30
-9.6960636698712036e-14
11
900.19123603246612
21
392.7858401317539
31
-2.037783393841371e-11
0
LWPOLYLINE
5
132
100
AcDbEntity
8
BEND_EXTENT
100
AcDbPolyline
90
4
70
1
43
0.0
10
900.19123603246612
20
390.52389342116925
10
4.1912360324658948
20
390.52389342116925
10
4.1912360324659081
20
28.523893421169291
10
900.19123603246612
20
28.523893421169291
0
LINE
5
133
100
AcDbEntity
8
BEND_EXTENT
100
AcDbLine
10
1.9292893218813467
20
0
30
-4.3539251978659784e-14
11
1.9292893218813467
21
1.9292893218813134
31
-4.4074166948012314e-14
0
LINE
5
134
100
AcDbEntity
8
BEND_EXTENT
100
AcDbLine
10
4.1912360324659081
20
1.9999999999999574
30
-3.7767336678637624e-14
11
4.1912360324659081
21
0
31
-3.7521211743519159e-14
0
LINE
5
135
100
AcDbEntity
8
BEND_EXTENT
100
AcDbLine
10
900.19123603246612
20
1.9999999999999574
30
-2.0247586364817628e-11
11
4.1912360324659081
21
1.9999999999999574
31
-3.7767336678637624e-14
0
LINE
5
136
100
AcDbEntity
8
BEND_EXTENT
100
AcDbLine
10
900.19123603246612
20
0
30
-2.0247340239882511e-11
11
900.19123603246612
21
1.9999999999999574
31
-2.0247586364817628e-11
0
LINE
5
137
100
AcDbEntity
8
BEND_EXTENT
100
AcDbLine
10
1.9292893218813423
20
28.594604099287935
30
-5.8291472760211771e-14
11
1.9292893218813423
21
390.52389342116925
31
-1.0283138418612322e-13
0
LINE
5
138
100
AcDbEntity
8
BEND_EXTENT
100
AcDbLine
10
902.45318274305066
20
26.191236032465923
30
-2.0454793744245948e-11
11
902.45318274305066
21
4.3326573887032538
31
-2.045210377362071e-11
0
LWPOLYLINE
5
139
100
AcDbEntity
8
BEND_EXTENT
100
AcDbPolyline
90
4
70
1
43
0.0
10
900.19123603246612
20
4.2619467105846098
10
900.19123603246612
20
26.261946710584638
10
4.1912360324658948
20
26.261946710584638
10
4.1912360324659081
20
4.2619467105846098
0
LINE
5
140
100
AcDbEntity
8
BEND_EXTENT
100
AcDbLine
10
902.45318274305032
20
390.52389342116925
30
-2.0641737967228633e-11
11
902.45318274305055
21
28.594604099287935
31
-2.0597198055802722e-11
0
LINE
5
141
100
AcDbEntity
8
BEND_EXTENT
100
AcDbLine
10
902.45318274305055
20
1.9292893218813134
30
-2.045180800921595e-11
11
902.45318274305055
21
0
31
-2.0451570586111366e-11
0
LINE
5
142
100
AcDbEntity
8
BEND_EXTENT
100
AcDbLine
10
1.9292893218813456
20
4.3326573887033248
30
-4.4101687623649963e-14
11
1.9292893218813458
21
26.191236032465994
31
-5.8588552767722022e-14
0
ENDSEC
0
SECTION
2
OBJECTS
0
DICTIONARY
5
C
100
AcDbDictionary
3
ACAD_GROUP
350
D
3
ACAD_MLINESTYLE
350
17
0
DICTIONARY
5
D
100
AcDbDictionary
0
DICTIONARY
5
1A
330
C
100
AcDbDictionary
0
DICTIONARY
5
17
100
AcDbDictionary
0
ENDSEC
0
EOF
