0
SECTION
2
HEADER
9
$INSUNITS
70
4
9
$ACADVER
1
AC1014
9
$HANDSEED
5
FFFF
0
ENDSEC
0
SECTION
2
TABLES
0
TABLE
2
VPORT
5
8
100
AcDbSymbolTable
0
ENDTAB
0
TABLE
2
LTYPE
5
5
100
AcDbSymbolTable
0
LTYPE
5
14
100
AcDbSymbolTableRecord
100
AcDbLinetypeTableRecord
2
BYBLOCK
70
0
0
LTYPE
5
15
100
AcDbSymbolTableRecord
100
AcDbLinetypeTableRecord
2
BYLAYER
70
0
0
LTYPE
5
16
100
AcDbSymbolTableRecord
100
AcDbLinetypeTableRecord
2
DASHED
70
0
3
Dashed __ __ __ __ __ __ __ __ __ __ __ __ __ _
72
65
73
2
40
0.75
49
0.5
74
0
49
-0.25
74
0
0
ENDTAB
0
TABLE
2
LAYER
5
2
100
AcDbSymbolTable
70
2
0
LAYER
5
50
100
AcDbSymbolTableRecord
100
AcDbLayerTableRecord
2
0
70
0
62
7
6
CONTINUOUS
0
ENDTAB
0
TABLE
2
STYLE
5
3
100
AcDbSymbolTable
70
1
0
STYLE
5
11
100
AcDbSymbolTableRecord
100
AcDbTextStyleTableRecord
2
STANDARD
70
0
0
ENDTAB
0
TABLE
2
VIEW
5
6
100
AcDbSymbolTable
70
0
0
ENDTAB
0
TABLE
2
UCS
5
7
100
AcDbSymbolTable
70
0
0
ENDTAB
0
TABLE
2
APPID
5
9
100
AcDbSymbolTable
70
2
0
APPID
5
12
100
AcDbSymbolTableRecord
100
AcDbRegAppTableRecord
2
ACAD
70
0
0
ENDTAB
0
TABLE
2
DIMSTYLE
5
A
100
AcDbSymbolTable
70
1
0
ENDTAB
0
TABLE
2
BLOCK_RECORD
5
1
100
AcDbSymbolTable
70
1
0
BLOCK_RECORD
5
1F
100
AcDbSymbolTableRecord
100
AcDbBlockTableRecord
2
*MODEL_SPACE
0
BLOCK_RECORD
5
1B
100
AcDbSymbolTableRecord
100
AcDbBlockTableRecord
2
*PAPER_SPACE
0
ENDTAB
0
ENDSEC
0
SECTION
2
BLOCKS
0
BLOCK
5
20
100
AcDbEntity
100
AcDbBlockBegin
2
*MODEL_SPACE
0
ENDBLK
5
21
100
AcDbEntity
100
AcDbBlockEnd
0
BLOCK
5
1C
100
AcDbEntity
100
AcDbBlockBegin
2
*PAPER_SPACE
0
ENDBLK
5
1D
100
AcDbEntity
100
AcDbBlockEnd
0
ENDSEC
0
SECTION
2
ENTITIES
0
LWPOLYLINE
5
100
100
AcDbEntity
8
OUTER_PROFILES
100
AcDbPolyline
90
22
70
1
43
0.0
10
-15.908790814597273
20
44.029316168944987
42
0.41421356237308127
10
-14.494577252224213
20
44.029316168944987
10
-2.0000000000001705
20
56.523893421169333
10
-2.8421709430404007e-13
20
58.785840131753993
10
0
20
99.309733552923348
10
731.8585786437626
20
99.309733552923319
10
731.85857864376294
20
58.785840131753993
10
733.85857864376271
20
56.523893421169333
10
746.35315589598702
20
44.029316168944838
42
0.41421356237311707
10
747.76736945836024
20
44.029316168944838
10
760.19123603246601
20
56.453182743050547
10
762.19123603246601
20
56.453182743050547
10
762.19123603246589
20
0.070710678118430792
10
747.76736945835989
20
14.494577252224303
42
0.4142135623730836
10
746.3531558959869
20
14.494577252224287
10
731.8585786437626
20
0
10
0
20
0
10
-14.49457725222433
20
14.494577252224236
42
0.41421356237311163
10
-15.908790814597467
20
14.494577252224211
10
-30.332657388703126
20
0.070710678118572901
10
-30.332657388703268
20
56.45318274305076
10
-28.33265738870324
20
56.45318274305076
0
CIRCLE
5
101
100
AcDbEntity
8
INTERIOR_PROFILES
100
AcDbCircle
10
-415.9292893218813
20
78.047786842338596
30
0
40
1.7000000000000171
210
0
220
0
230
-1
0
CIRCLE
5
102
100
AcDbEntity
8
INTERIOR_PROFILES
100
AcDbCircle
10
-115.9292893218813
20
51.523893421169305
30
0
40
5
210
0
220
0
230
-1
0
CIRCLE
5
103
100
AcDbEntity
8
INTERIOR_PROFILES
100
AcDbCircle
10
-15.929289321881299
20
51.523893421169305
30
0
40
5
210
0
220
0
230
-1
0
CIRCLE
5
104
100
AcDbEntity
8
INTERIOR_PROFILES
100
AcDbCircle
10
-515.92928932188124
20
51.523893421169305
30
0
40
5
210
0
220
0
230
-1
0
CIRCLE
5
105
100
AcDbEntity
8
INTERIOR_PROFILES
100
AcDbCircle
10
-565.92928932188124
20
51.523893421169305
30
0
40
5
210
0
220
0
230
-1
0
CIRCLE
5
106
100
AcDbEntity
8
INTERIOR_PROFILES
100
AcDbCircle
10
-315.9292893218813
20
78.04778684233861
30
0
40
1.7000000000000171
210
0
220
0
230
-1
0
CIRCLE
5
107
100
AcDbEntity
8
INTERIOR_PROFILES
100
AcDbCircle
10
-415.9292893218813
20
51.523893421169305
30
0
40
5
210
0
220
0
230
-1
0
CIRCLE
5
108
100
AcDbEntity
8
INTERIOR_PROFILES
100
AcDbCircle
10
-265.9292893218813
20
51.523893421169305
30
0
40
5
210
0
220
0
230
-1
0
CIRCLE
5
109
100
AcDbEntity
8
INTERIOR_PROFILES
100
AcDbCircle
10
-665.92928932188124
20
51.523893421169305
30
0
40
5
210
0
220
0
230
-1
0
CIRCLE
5
110
100
AcDbEntity
8
INTERIOR_PROFILES
100
AcDbCircle
10
-755.19123603246794
20
24.261946710584652
30
0
40
1.7000000000000171
210
0
220
0
230
-1
0
CIRCLE
5
111
100
AcDbEntity
8
INTERIOR_PROFILES
100
AcDbCircle
10
-515.92928932188124
20
78.047786842338596
30
0
40
1.7000000000000171
210
0
220
0
230
-1
0
CIRCLE
5
112
100
AcDbEntity
8
INTERIOR_PROFILES
100
AcDbCircle
10
-715.92928932188124
20
51.523893421169305
30
0
40
5
210
0
220
0
230
-1
0
CIRCLE
5
113
100
AcDbEntity
8
INTERIOR_PROFILES
100
AcDbCircle
10
-215.9292893218813
20
78.04778684233861
30
0
40
1.7000000000000171
210
0
220
0
230
-1
0
CIRCLE
5
114
100
AcDbEntity
8
INTERIOR_PROFILES
100
AcDbCircle
10
-615.92928932188124
20
78.047786842338581
30
0
40
1.7000000000000171
210
0
220
0
230
-1
0
CIRCLE
5
115
100
AcDbEntity
8
INTERIOR_PROFILES
100
AcDbCircle
10
-715.92928932188124
20
7.0000000000000062
30
0
40
5
210
0
220
0
230
-1
0
CIRCLE
5
116
100
AcDbEntity
8
INTERIOR_PROFILES
100
AcDbCircle
10
-565.92928932188124
20
7.0000000000000062
30
0
40
1.7000000000000171
210
0
220
0
230
-1
0
CIRCLE
5
117
100
AcDbEntity
8
INTERIOR_PROFILES
100
AcDbCircle
10
-315.9292893218813
20
51.523893421169305
30
0
40
5
210
0
220
0
230
-1
0
CIRCLE
5
118
100
AcDbEntity
8
INTERIOR_PROFILES
100
AcDbCircle
10
-365.9292893218813
20
34.261946710584652
30
0
40
5
210
0
220
0
230
-1
0
CIRCLE
5
119
100
AcDbEntity
8
INTERIOR_PROFILES
100
AcDbCircle
10
-615.92928932188124
20
7.0000000000000062
30
0
40
5
210
0
220
0
230
-1
0
CIRCLE
5
120
100
AcDbEntity
8
INTERIOR_PROFILES
100
AcDbCircle
10
-715.92928932188124
20
78.047786842338581
30
0
40
1.7000000000000171
210
0
220
0
230
-1
0
CIRCLE
5
121
100
AcDbEntity
8
INTERIOR_PROFILES
100
AcDbCircle
10
-165.9292893218813
20
51.523893421169305
30
0
40
5
210
0
220
0
230
-1
0
CIRCLE
5
122
100
AcDbEntity
8
INTERIOR_PROFILES
100
AcDbCircle
10
-215.9292893218813
20
51.523893421169305
30
0
40
5
210
0
220
0
230
-1
0
CIRCLE
5
123
100
AcDbEntity
8
INTERIOR_PROFILES
100
AcDbCircle
10
-65.929289321881299
20
51.523893421169305
30
0
40
5
210
0
220
0
230
-1
0
CIRCLE
5
124
100
AcDbEntity
8
INTERIOR_PROFILES
100
AcDbCircle
10
-15.929289321881299
20
78.047786842338624
30
0
40
1.6999999999999993
210
0
220
0
230
-1
0
CIRCLE
5
125
100
AcDbEntity
8
INTERIOR_PROFILES
100
AcDbCircle
10
-365.9292893218813
20
51.523893421169305
30
0
40
5
210
0
220
0
230
-1
0
CIRCLE
5
126
100
AcDbEntity
8
INTERIOR_PROFILES
100
AcDbCircle
10
-115.9292893218813
20
78.04778684233861
30
0
40
1.6999999999999993
210
0
220
0
230
-1
0
CIRCLE
5
127
100
AcDbEntity
8
INTERIOR_PROFILES
100
AcDbCircle
10
-615.92928932188124
20
51.523893421169305
30
0
40
5
210
0
220
0
230
-1
0
CIRCLE
5
128
100
AcDbEntity
8
INTERIOR_PROFILES
100
AcDbCircle
10
-465.9292893218813
20
51.523893421169305
30
0
40
5
210
0
220
0
230
-1
0
CIRCLE
5
129
100
AcDbEntity
8
INTERIOR_PROFILES
100
AcDbCircle
10
-515.92928932188124
20
7.0000000000000062
30
0
40
5
210
0
220
0
230
-1
0
CIRCLE
5
130
100
AcDbEntity
8
INTERIOR_PROFILES
100
AcDbCircle
10
-365.9292893218813
20
7.0000000000000062
30
0
40
1.7000000000000171
210
0
220
0
230
-1
0
CIRCLE
5
131
100
AcDbEntity
8
INTERIOR_PROFILES
100
AcDbCircle
10
23.33265738870125
20
24.261946710584652
30
0
40
1.6999999999999993
210
0
220
0
230
-1
0
CIRCLE
5
132
100
AcDbEntity
8
INTERIOR_PROFILES
100
AcDbCircle
10
-65.929289321881299
20
7.0000000000000062
30
0
40
1.6999999999999993
210
0
220
0
230
-1
0
CIRCLE
5
133
100
AcDbEntity
8
INTERIOR_PROFILES
100
AcDbCircle
10
-15.929289321881299
20
7.0000000000000062
30
0
40
5
210
0
220
0
230
-1
0
CIRCLE
5
134
100
AcDbEntity
8
INTERIOR_PROFILES
100
AcDbCircle
10
-665.92928932188124
20
7.0000000000000062
30
0
40
1.7000000000000171
210
0
220
0
230
-1
0
CIRCLE
5
135
100
AcDbEntity
8
INTERIOR_PROFILES
100
AcDbCircle
10
-415.9292893218813
20
7.0000000000000062
30
0
40
5
210
0
220
0
230
-1
0
CIRCLE
5
136
100
AcDbEntity
8
INTERIOR_PROFILES
100
AcDbCircle
10
-465.9292893218813
20
7.0000000000000062
30
0
40
1.7000000000000171
210
0
220
0
230
-1
0
CIRCLE
5
137
100
AcDbEntity
8
INTERIOR_PROFILES
100
AcDbCircle
10
-165.9292893218813
20
7.0000000000000062
30
0
40
1.7000000000000171
210
0
220
0
230
-1
0
CIRCLE
5
138
100
AcDbEntity
8
INTERIOR_PROFILES
100
AcDbCircle
10
-115.9292893218813
20
7.0000000000000062
30
0
40
5
210
0
220
0
230
-1
0
CIRCLE
5
139
100
AcDbEntity
8
INTERIOR_PROFILES
100
AcDbCircle
10
-215.9292893218813
20
7.0000000000000062
30
0
40
5
210
0
220
0
230
-1
0
CIRCLE
5
140
100
AcDbEntity
8
INTERIOR_PROFILES
100
AcDbCircle
10
-265.9292893218813
20
7.0000000000000062
30
0
40
1.7000000000000171
210
0
220
0
230
-1
0
CIRCLE
5
141
100
AcDbEntity
8
INTERIOR_PROFILES
100
AcDbCircle
10
-315.9292893218813
20
7.0000000000000062
30
0
40
5
210
0
220
0
230
-1
0
LINE
5
142
100
AcDbEntity
8
BEND
100
AcDbLine
10
747.06026267717345
20
14.78747047103778
30
1.6775827158540726e-13
11
747.06026267717345
21
43.736422950131598
31
4.3381589584272511e-13
0
LINE
5
143
100
AcDbEntity
8
BEND
100
AcDbLine
10
747.06026267717345
20
43.392920065876979
30
4.5025774429296415e-13
11
-15.201684033411027
21
43.392920065876979
31
4.2323219451030092e-13
0
LINE
5
144
100
AcDbEntity
8
BEND
100
AcDbLine
10
-15.201684033411027
20
43.392920065876979
30
4.2323219451030092e-13
11
-30.332657388703268
21
43.392920065877014
31
1.6984097812033304e-13
0
LINE
5
145
100
AcDbEntity
8
BEND
100
AcDbLine
10
762.19123603246589
20
43.392920065876829
30
2.5614362930421345e-13
11
747.06026267717345
21
43.392920065876979
31
4.5025774429296415e-13
0
LINE
5
146
100
AcDbEntity
8
BEND
100
AcDbLine
10
-15.201684033411027
20
43.736422950131562
30
4.5862546716698113e-13
11
-15.201684033411027
21
14.787470471037448
31
1.541703336633111e-13
0
LINE
5
147
100
AcDbEntity
8
BEND
100
AcDbLine
10
-15.201684033411027
20
15.13097335529233
30
1.4412506085176714e-13
11
747.06026267717345
21
15.13097335529233
31
1.4412506085176714e-13
0
LINE
5
148
100
AcDbEntity
8
BEND
100
AcDbLine
10
747.06026267717345
20
15.13097335529233
30
1.4412506085176714e-13
11
762.19123603246589
21
15.130973355292356
31
-3.875968619150613e-14
0
LINE
5
149
100
AcDbEntity
8
BEND
100
AcDbLine
10
-30.332657388703268
20
15.130973355292333
30
-2.3525923149622753e-14
11
-15.201684033411027
21
15.13097335529233
31
1.4412506085176714e-13
0
LINE
5
150
100
AcDbEntity
8
BEND
100
AcDbLine
10
732.85857864376283
20
57.654866776461667
30
5.9433333454723831e-13
11
-1.0000000000002274
21
57.654866776461667
31
5.8998995355363088e-13
0
LINE
5
151
100
AcDbEntity
8
BEND
100
AcDbLine
10
-2.8421709430404007e-13
20
66.916813487046355
30
6.3024058757991672e-13
11
731.85857864376294
21
66.916813487046355
31
6.3468147967841734e-13
0
LINE
5
152
100
AcDbEntity
8
BEND
100
AcDbLine
10
-2.8421709430404007e-13
20
89.178760197631007
30
6.3759694682243625e-13
11
731.85857864376294
21
89.178760197631007
31
6.379948589106157e-13
0
LINE
5
153
100
AcDbEntity
8
BEND_EXTENT
100
AcDbLine
10
-2.8421709430404007e-13
20
90.309733552923319
30
6.3427142720002436e-13
11
731.85857864376294
21
90.309733552923319
31
6.3871231929852499e-13
0
LINE
5
154
100
AcDbEntity
8
BEND_EXTENT
100
AcDbLine
10
731.8585786437626
20
88.047786842338695
30
6.4746020671403547e-13
11
0
21
88.047786842338695
31
6.4301931461553484e-13
0
LINE
5
155
100
AcDbEntity
8
BEND_EXTENT
100
AcDbLine
10
-2.8421709430404007e-13
20
68.047786842338695
30
6.3424278542908864e-13
11
731.85857864376294
21
68.047786842338695
31
6.4090412357683958e-13
0
LINE
5
156
100
AcDbEntity
8
BEND_EXTENT
100
AcDbLine
10
731.8585786437626
20
65.785840131754028
30
6.2300665840134549e-13
11
0
21
65.785840131754028
31
6.2300665840134549e-13
0
LINE
5
157
100
AcDbEntity
8
BEND_EXTENT
100
AcDbLine
10
-2.8421709430404007e-13
20
58.785840131753993
30
5.9384463210739792e-13
11
731.85857864376294
21
58.785840131753993
31
5.9384463210739792e-13
0
LINE
5
158
100
AcDbEntity
8
BEND_EXTENT
100
AcDbLine
10
15.929289321881299
20
56.523893421169333
30
5.7150627483340351e-13
11
-2.0000000000001705
21
56.523893421169333
31
5.7150627483340351e-13
0
LINE
5
159
100
AcDbEntity
8
BEND_EXTENT
100
AcDbLine
10
65.929289321881299
20
56.523893421169333
30
5.7150627483340351e-13
11
15.929289321881299
21
56.523893421169333
31
5.7150627483340351e-13
0
LINE
5
160
100
AcDbEntity
8
BEND_EXTENT
100
AcDbLine
10
115.9292893218813
20
56.523893421169333
30
5.7150627483340351e-13
11
65.929289321881299
21
56.523893421169333
31
5.7150627483340351e-13
0
LINE
5
161
100
AcDbEntity
8
BEND_EXTENT
100
AcDbLine
10
165.9292893218813
20
56.523893421169333
30
5.7150627483340351e-13
11
115.9292893218813
21
56.523893421169333
31
5.7150627483340351e-13
0
LINE
5
162
100
AcDbEntity
8
BEND_EXTENT
100
AcDbLine
10
215.9292893218813
20
56.523893421169333
30
5.7150627483340351e-13
11
165.9292893218813
21
56.523893421169333
31
5.7150627483340351e-13
0
LINE
5
163
100
AcDbEntity
8
BEND_EXTENT
100
AcDbLine
10
265.9292893218813
20
56.523893421169333
30
5.7150627483340351e-13
11
215.9292893218813
21
56.523893421169333
31
5.7150627483340351e-13
0
LINE
5
164
100
AcDbEntity
8
BEND_EXTENT
100
AcDbLine
10
315.9292893218813
20
56.523893421169333
30
5.7150627483340351e-13
11
265.9292893218813
21
56.523893421169333
31
5.7150627483340351e-13
0
LINE
5
165
100
AcDbEntity
8
BEND_EXTENT
100
AcDbLine
10
365.9292893218813
20
56.523893421169333
30
5.7150627483340351e-13
11
315.9292893218813
21
56.523893421169333
31
5.7150627483340351e-13
0
LINE
5
166
100
AcDbEntity
8
BEND_EXTENT
100
AcDbLine
10
415.9292893218813
20
56.523893421169333
30
5.7150627483340351e-13
11
365.9292893218813
21
56.523893421169333
31
5.7150627483340351e-13
0
LINE
5
167
100
AcDbEntity
8
BEND_EXTENT
100
AcDbLine
10
465.9292893218813
20
56.523893421169333
30
5.7150627483340351e-13
11
415.9292893218813
21
56.523893421169333
31
5.7150627483340351e-13
0
LINE
5
168
100
AcDbEntity
8
BEND_EXTENT
100
AcDbLine
10
515.92928932188124
20
56.523893421169333
30
5.7150627483340351e-13
11
465.9292893218813
21
56.523893421169333
31
5.7150627483340351e-13
0
LINE
5
169
100
AcDbEntity
8
BEND_EXTENT
100
AcDbLine
10
565.92928932188124
20
56.523893421169333
30
5.7150627483340351e-13
11
515.92928932188124
21
56.523893421169333
31
5.7150627483340351e-13
0
LINE
5
170
100
AcDbEntity
8
BEND_EXTENT
100
AcDbLine
10
615.92928932188124
20
56.523893421169333
30
5.7150627483340351e-13
11
565.92928932188124
21
56.523893421169333
31
5.7150627483340351e-13
0
LINE
5
171
100
AcDbEntity
8
BEND_EXTENT
100
AcDbLine
10
665.92928932188124
20
56.523893421169333
30
5.7150627483340351e-13
11
615.92928932188124
21
56.523893421169333
31
5.7150627483340351e-13
0
LINE
5
172
100
AcDbEntity
8
BEND_EXTENT
100
AcDbLine
10
715.92928932188124
20
56.523893421169333
30
5.7150627483340351e-13
11
665.92928932188124
21
56.523893421169333
31
5.7150627483340351e-13
0
LINE
5
173
100
AcDbEntity
8
BEND_EXTENT
100
AcDbLine
10
733.85857864376271
20
56.523893421169333
30
5.7150627483340351e-13
11
715.92928932188124
21
56.523893421169333
31
5.7150627483340351e-13
0
LINE
5
174
100
AcDbEntity
8
BEND_EXTENT
100
AcDbLine
10
-30.332657388703126
20
44.523893421169447
30
9.7726240929720854e-14
11
-16.403368066821855
21
44.523893421169376
31
4.3523404041576775e-13
0
LINE
5
175
100
AcDbEntity
8
BEND_EXTENT
100
AcDbLine
10
-16.332657388703211
20
42.261946710584652
30
3.5516408586126449e-13
11
-30.332657388703268
21
42.261946710584652
31
7.0946991557224404e-14
0
LINE
5
176
100
AcDbEntity
8
BEND_EXTENT
100
AcDbLine
10
-16.332657388703211
20
16.261946710584656
30
9.8395309476725099e-14
11
-16.332657388703211
21
42.261946710584652
31
3.5516408586126449e-13
0
LINE
5
177
100
AcDbEntity
8
BEND_EXTENT
100
AcDbLine
10
-30.332657388703268
20
16.261946710584656
30
-1.858217848273149e-13
11
-16.332657388703211
21
16.261946710584656
31
9.8395309476725099e-14
0
LINE
5
178
100
AcDbEntity
8
BEND_EXTENT
100
AcDbLine
10
762.19123603246589
20
13.999999999999702
30
-1.3444568159899361e-13
11
748.26194671058465
21
13.999999999999844
31
1.3187701692805608e-13
0
LINE
5
179
100
AcDbEntity
8
BEND_EXTENT
100
AcDbLine
10
748.19123603246578
20
16.261946710584656
30
9.8395309476725099e-14
11
762.19123603246589
21
16.261946710584656
31
-1.858217848273149e-13
0
LINE
5
180
100
AcDbEntity
8
BEND_EXTENT
100
AcDbLine
10
748.19123603246578
20
42.261946710584652
30
3.5516408586126449e-13
11
748.19123603246578
21
16.261946710584656
31
9.8395309476725099e-14
0
LINE
5
181
100
AcDbEntity
8
BEND_EXTENT
100
AcDbLine
10
762.19123603246589
20
42.261946710584652
30
7.0946991557224404e-14
11
748.19123603246578
21
42.261946710584652
31
3.5516408586126449e-13
0
LINE
5
182
100
AcDbEntity
8
BEND_EXTENT
100
AcDbLine
10
-16.403368066821855
20
13.999999999999915
30
1.3180762798903796e-13
11
-30.332657388703126
21
13.999999999999915
31
-1.345150705380092e-13
0
LINE
5
183
100
AcDbEntity
8
BEND_EXTENT
100
AcDbLine
10
745.85857864376271
20
14.000000000000004
30
1.4651886763195687e-13
11
-14.000000000000625
21
14.000000000000004
31
1.4651886763195687e-13
0
LWPOLYLINE
5
184
100
AcDbEntity
8
BEND_EXTENT
100
AcDbPolyline
90
4
70
1
43
0.0
10
-14.070710678118701
20
16.261946710584656
10
745.92928932188124
20
16.261946710584656
10
745.92928932188124
20
42.261946710584652
10
-14.070710678118701
20
42.261946710584652
0
LINE
5
185
100
AcDbEntity
8
BEND_EXTENT
100
AcDbLine
10
-14.000000000000057
20
44.523893421169305
30
4.4855671671126887e-13
11
745.85857864376317
21
44.523893421169305
31
4.4855671671126887e-13
0
LINE
5
186
100
AcDbEntity
8
BEND_EXTENT
100
AcDbLine
10
748.26194671058465
20
44.523893421169163
30
4.3523404041576568e-13
11
762.19123603246589
21
44.523893421169163
31
1.6878051450572806e-13
0
ENDSEC
0
SECTION
2
OBJECTS
0
DICTIONARY
5
C
100
AcDbDictionary
3
ACAD_GROUP
350
D
3
ACAD_MLINESTYLE
350
17
0
DICTIONARY
5
D
100
AcDbDictionary
0
DICTIONARY
5
1A
330
C
100
AcDbDictionary
0
DICTIONARY
5
17
100
AcDbDictionary
0
ENDSEC
0
EOF
