0
SECTION
2
HEADER
9
$INSUNITS
70
4
9
$ACADVER
1
AC1014
9
$HANDSEED
5
FFFF
0
ENDSEC
0
SECTION
2
TABLES
0
TABLE
2
VPORT
5
8
100
AcDbSymbolTable
0
ENDTAB
0
TABLE
2
LTYPE
5
5
100
AcDbSymbolTable
0
LTYPE
5
14
100
AcDbSymbolTableRecord
100
AcDbLinetypeTableRecord
2
BYBLOCK
70
0
0
LTYPE
5
15
100
AcDbSymbolTableRecord
100
AcDbLinetypeTableRecord
2
BYLAYER
70
0
0
LTYPE
5
16
100
AcDbSymbolTableRecord
100
AcDbLinetypeTableRecord
2
DASHED
70
0
3
Dashed __ __ __ __ __ __ __ __ __ __ __ __ __ _
72
65
73
2
40
0.75
49
0.5
74
0
49
-0.25
74
0
0
ENDTAB
0
TABLE
2
LAYER
5
2
100
AcDbSymbolTable
70
2
0
LAYER
5
50
100
AcDbSymbolTableRecord
100
AcDbLayerTableRecord
2
0
70
0
62
7
6
CONTINUOUS
0
ENDTAB
0
TABLE
2
STYLE
5
3
100
AcDbSymbolTable
70
1
0
STYLE
5
11
100
AcDbSymbolTableRecord
100
AcDbTextStyleTableRecord
2
STANDARD
70
0
0
ENDTAB
0
TABLE
2
VIEW
5
6
100
AcDbSymbolTable
70
0
0
ENDTAB
0
TABLE
2
UCS
5
7
100
AcDbSymbolTable
70
0
0
ENDTAB
0
TABLE
2
APPID
5
9
100
AcDbSymbolTable
70
2
0
APPID
5
12
100
AcDbSymbolTableRecord
100
AcDbRegAppTableRecord
2
ACAD
70
0
0
ENDTAB
0
TABLE
2
DIMSTYLE
5
A
100
AcDbSymbolTable
70
1
0
ENDTAB
0
TABLE
2
BLOCK_RECORD
5
1
100
AcDbSymbolTable
70
1
0
BLOCK_RECORD
5
1F
100
AcDbSymbolTableRecord
100
AcDbBlockTableRecord
2
*MODEL_SPACE
0
BLOCK_RECORD
5
1B
100
AcDbSymbolTableRecord
100
AcDbBlockTableRecord
2
*PAPER_SPACE
0
ENDTAB
0
ENDSEC
0
SECTION
2
BLOCKS
0
BLOCK
5
20
100
AcDbEntity
100
AcDbBlockBegin
2
*MODEL_SPACE
0
ENDBLK
5
21
100
AcDbEntity
100
AcDbBlockEnd
0
BLOCK
5
1C
100
AcDbEntity
100
AcDbBlockBegin
2
*PAPER_SPACE
0
ENDBLK
5
1D
100
AcDbEntity
100
AcDbBlockEnd
0
ENDSEC
0
SECTION
2
ENTITIES
0
LWPOLYLINE
5
100
100
AcDbEntity
8
OUTER_PROFILES
100
AcDbPolyline
90
36
70
1
43
0.0
10
1158.3824720649332
20
-5.3290705182007514e-14
10
0
20
0
10
5.4238665741061709
20
5.4238665741062935
42
0.4142135623730982
10
5.4238665741061309
20
6.8380801364794319
10
-0.070710678117933412
20
12.332657388703387
10
-0.070710678117791304
20
16.19123603246614
10
5.4238665741064302
20
21.685813284690362
42
0.41421356237309459
10
5.4238665741064107
20
23.100026847063454
10
-0.070710678118075521
20
28.594604099288006
10
-16.332657388702643
20
28.594604099288397
10
-16.332657388703069
20
412.45318274305106
10
-0.070710678118217629
20
412.45318274305072
10
5.4238665741062615
20
417.94775999527519
42
0.41421356237311985
10
5.4238665741062437
20
419.3619735576483
10
-0.070710678117933412
20
424.8565508098726
10
-0.070710678117933412
20
428.7151294536352
10
5.4238665741059773
20
434.20970670585922
42
0.41421356237311985
10
5.4238665741059595
20
435.62392026823238
10
-1.4210854715202004e-13
20
441.04778684233861
10
1158.3824720649332
20
441.04778684233855
10
1152.9586054908268
20
435.62392026823227
42
0.41421356237306561
10
1152.9586054908268
20
434.20970670585922
10
1158.4531827430508
20
428.7151294536352
10
1158.4531827430508
20
424.85655080987243
10
1152.9586054908268
20
419.36197355764841
42
0.41421356237309503
10
1152.9586054908268
20
417.94775999527525
10
1158.4531827430512
20
412.45318274305066
10
1174.7151294536363
20
412.45318274305015
10
1174.7151294536363
20
28.594604099287437
10
1158.4531827430515
20
28.594604099287917
10
1152.9586054908268
20
23.100026847063198
42
0.41421356237310519
10
1152.9586054908266
20
21.685813284690131
10
1158.4531827430508
20
16.191236032466016
10
1158.4531827430508
20
12.332657388703332
10
1152.9586054908268
20
6.8380801364792774
42
0.41421356237307272
10
1152.9586054908268
20
5.4238665741062224
0
CIRCLE
5
101
100
AcDbEntity
8
INTERIOR_PROFILES
100
AcDbCircle
10
-129.19123603246732
20
382.52389342116942
30
0
40
2.1170000000000044
210
0
220
0
230
-1
0
CIRCLE
5
102
100
AcDbEntity
8
INTERIOR_PROFILES
100
AcDbCircle
10
-229.19123603246746
20
382.52389342116919
30
0
40
2.1170000000000044
210
0
220
0
230
-1
0
CIRCLE
5
103
100
AcDbEntity
8
INTERIOR_PROFILES
100
AcDbCircle
10
-629.19123603246646
20
62.523893421170854
30
0
40
2.1169999999999956
210
0
220
0
230
-1
0
CIRCLE
5
104
100
AcDbEntity
8
INTERIOR_PROFILES
100
AcDbCircle
10
-629.19123603246658
20
382.52389342116771
30
0
40
2.1170000000000044
210
0
220
0
230
-1
0
CIRCLE
5
105
100
AcDbEntity
8
INTERIOR_PROFILES
100
AcDbCircle
10
-279.19123603246749
20
382.52389342116919
30
0
40
2.1170000000000044
210
0
220
0
230
-1
0
CIRCLE
5
106
100
AcDbEntity
8
INTERIOR_PROFILES
100
AcDbCircle
10
-429.19123603246805
20
382.52389342116857
30
0
40
2.1170000000000044
210
0
220
0
230
-1
0
CIRCLE
5
107
100
AcDbEntity
8
INTERIOR_PROFILES
100
AcDbCircle
10
-329.19123603246771
20
62.523893421169632
30
0
40
2.1169999999999956
210
0
220
0
230
-1
0
CIRCLE
5
108
100
AcDbEntity
8
INTERIOR_PROFILES
100
AcDbCircle
10
-179.19123603246746
20
382.52389342116919
30
0
40
2.1170000000000044
210
0
220
0
230
-1
0
CIRCLE
5
109
100
AcDbEntity
8
INTERIOR_PROFILES
100
AcDbCircle
10
-429.19123603246828
20
62.523893421170285
30
0
40
2.1169999999999956
210
0
220
0
230
-1
0
CIRCLE
5
110
100
AcDbEntity
8
INTERIOR_PROFILES
100
AcDbCircle
10
-479.19123603246845
20
62.523893421171209
30
0
40
2.1169999999999956
210
0
220
0
230
-1
0
CIRCLE
5
111
100
AcDbEntity
8
INTERIOR_PROFILES
100
AcDbCircle
10
-179.19123603246746
20
62.523893421169419
30
0
40
2.1169999999999956
210
0
220
0
230
-1
0
CIRCLE
5
112
100
AcDbEntity
8
INTERIOR_PROFILES
100
AcDbCircle
10
-129.19123603246746
20
62.523893421169433
30
0
40
2.1169999999999956
210
0
220
0
230
-1
0
CIRCLE
5
113
100
AcDbEntity
8
INTERIOR_PROFILES
100
AcDbCircle
10
-229.19123603246746
20
62.523893421169497
30
0
40
2.1169999999999956
210
0
220
0
230
-1
0
CIRCLE
5
114
100
AcDbEntity
8
INTERIOR_PROFILES
100
AcDbCircle
10
-279.1912360324676
20
62.523893421169525
30
0
40
2.1169999999999956
210
0
220
0
230
-1
0
CIRCLE
5
115
100
AcDbEntity
8
INTERIOR_PROFILES
100
AcDbCircle
10
-379.19123603246805
20
62.523893421169859
30
0
40
2.1169999999999956
210
0
220
0
230
-1
0
CIRCLE
5
116
100
AcDbEntity
8
INTERIOR_PROFILES
100
AcDbCircle
10
-529.19123603246783
20
382.52389342116686
30
0
40
2.1170000000000044
210
0
220
0
230
-1
0
CIRCLE
5
117
100
AcDbEntity
8
INTERIOR_PROFILES
100
AcDbCircle
10
-929.19123603246715
20
62.523893421169312
30
0
40
2.1169999999999956
210
0
220
0
230
-1
0
CIRCLE
5
118
100
AcDbEntity
8
INTERIOR_PROFILES
100
AcDbCircle
10
-779.19123603246692
20
62.523893421169547
30
0
40
2.1169999999999956
210
0
220
0
230
-1
0
CIRCLE
5
119
100
AcDbEntity
8
INTERIOR_PROFILES
100
AcDbCircle
10
-579.19123603246692
20
62.523893421171699
30
0
40
2.1169999999999956
210
0
220
0
230
-1
0
CIRCLE
5
120
100
AcDbEntity
8
INTERIOR_PROFILES
100
AcDbCircle
10
-529.19123603246771
20
62.523893421171962
30
0
40
2.1169999999999956
210
0
220
0
230
-1
0
CIRCLE
5
121
100
AcDbEntity
8
INTERIOR_PROFILES
100
AcDbCircle
10
-879.19123603246703
20
382.52389342116913
30
0
40
2.1170000000000044
210
0
220
0
230
-1
0
CIRCLE
5
122
100
AcDbEntity
8
INTERIOR_PROFILES
100
AcDbCircle
10
-329.1912360324676
20
382.52389342116913
30
0
40
2.1170000000000044
210
0
220
0
230
-1
0
CIRCLE
5
123
100
AcDbEntity
8
INTERIOR_PROFILES
100
AcDbCircle
10
-379.19123603246788
20
382.52389342116891
30
0
40
2.1170000000000044
210
0
220
0
230
-1
0
CIRCLE
5
124
100
AcDbEntity
8
INTERIOR_PROFILES
100
AcDbCircle
10
-979.19123603246703
20
382.52389342116919
30
0
40
2.1170000000000044
210
0
220
0
230
-1
0
CIRCLE
5
125
100
AcDbEntity
8
INTERIOR_PROFILES
100
AcDbCircle
10
-929.19123603246703
20
382.52389342116919
30
0
40
2.1170000000000044
210
0
220
0
230
-1
0
CIRCLE
5
126
100
AcDbEntity
8
INTERIOR_PROFILES
100
AcDbCircle
10
-779.1912360324668
20
382.52389342116896
30
0
40
2.1170000000000044
210
0
220
0
230
-1
0
CIRCLE
5
127
100
AcDbEntity
8
INTERIOR_PROFILES
100
AcDbCircle
10
-979.19123603246703
20
62.523893421169333
30
0
40
2.1169999999999956
210
0
220
0
230
-1
0
CIRCLE
5
128
100
AcDbEntity
8
INTERIOR_PROFILES
100
AcDbCircle
10
-579.19123603246726
20
55.523893421169291
30
0
40
1.6999999999999993
210
0
220
0
230
-1
0
CIRCLE
5
129
100
AcDbEntity
8
INTERIOR_PROFILES
100
AcDbCircle
10
-1095.191236032467
20
382.5238934211693
30
0
40
1.7000000000000171
210
0
220
0
230
-1
0
CIRCLE
5
130
100
AcDbEntity
8
INTERIOR_PROFILES
100
AcDbCircle
10
-1079.1912360324673
20
410.52389342116925
30
0
40
1.7000000000000171
210
0
220
0
230
-1
0
CIRCLE
5
131
100
AcDbEntity
8
INTERIOR_PROFILES
100
AcDbCircle
10
-595.1912360324668
20
382.5238934211672
30
0
40
1.7000000000000171
210
0
220
0
230
-1
0
CIRCLE
5
132
100
AcDbEntity
8
INTERIOR_PROFILES
100
AcDbCircle
10
-1079.1912360324673
20
55.523893421169241
30
0
40
1.6999999999999993
210
0
220
0
230
-1
0
CIRCLE
5
133
100
AcDbEntity
8
INTERIOR_PROFILES
100
AcDbCircle
10
-579.19123603246692
20
382.52389342116692
30
0
40
2.1170000000000044
210
0
220
0
230
-1
0
CIRCLE
5
134
100
AcDbEntity
8
INTERIOR_PROFILES
100
AcDbCircle
10
-679.19123603246646
20
382.52389342116834
30
0
40
2.1170000000000044
210
0
220
0
230
-1
0
CIRCLE
5
135
100
AcDbEntity
8
INTERIOR_PROFILES
100
AcDbCircle
10
-1079.1912360324673
20
382.5238934211693
30
0
40
1.7000000000000171
210
0
220
0
230
-1
0
CIRCLE
5
136
100
AcDbEntity
8
INTERIOR_PROFILES
100
AcDbCircle
10
-95.191236032467401
20
382.52389342116942
30
0
40
1.7000000000000171
210
0
220
0
230
-1
0
CIRCLE
5
137
100
AcDbEntity
8
INTERIOR_PROFILES
100
AcDbCircle
10
-579.19123603246726
20
410.5238934211693
30
0
40
1.7000000000000171
210
0
220
0
230
-1
0
CIRCLE
5
138
100
AcDbEntity
8
INTERIOR_PROFILES
100
AcDbCircle
10
-79.191236032467174
20
410.52389342116942
30
0
40
1.7000000000000171
210
0
220
0
230
-1
0
CIRCLE
5
139
100
AcDbEntity
8
INTERIOR_PROFILES
100
AcDbCircle
10
-1063.191236032467
20
382.5238934211693
30
0
40
1.7000000000000171
210
0
220
0
230
-1
0
CIRCLE
5
140
100
AcDbEntity
8
INTERIOR_PROFILES
100
AcDbCircle
10
-79.191236031237935
20
55.523893421169419
30
0
40
1.6999999999999993
210
0
220
0
230
-1
0
CIRCLE
5
141
100
AcDbEntity
8
INTERIOR_PROFILES
100
AcDbCircle
10
-563.19123603246715
20
382.5238934211668
30
0
40
1.7000000000000171
210
0
220
0
230
-1
0
CIRCLE
5
142
100
AcDbEntity
8
INTERIOR_PROFILES
100
AcDbCircle
10
-63.191236031237992
20
382.52389342116942
30
0
40
1.7000000000000171
210
0
220
0
230
-1
0
CIRCLE
5
143
100
AcDbEntity
8
INTERIOR_PROFILES
100
AcDbCircle
10
-79.191236031237935
20
382.52389342116942
30
0
40
1.7000000000000171
210
0
220
0
230
-1
0
CIRCLE
5
144
100
AcDbEntity
8
INTERIOR_PROFILES
100
AcDbCircle
10
-1160.4531827430503
20
53.52389342118434
30
0
40
1.7000000000000171
210
0
220
0
230
-1
0
CIRCLE
5
145
100
AcDbEntity
8
INTERIOR_PROFILES
100
AcDbCircle
10
-1160.4531827430503
20
387.52389342118431
30
0
40
1.7000000000000171
210
0
220
0
230
-1
0
CIRCLE
5
146
100
AcDbEntity
8
INTERIOR_PROFILES
100
AcDbCircle
10
-1160.4531827430503
20
220.52389342118431
30
0
40
1.7000000000000171
210
0
220
0
230
-1
0
CIRCLE
5
147
100
AcDbEntity
8
INTERIOR_PROFILES
100
AcDbCircle
10
-1160.4531827430503
20
407.02389342118437
30
0
40
1.7000000000000171
210
0
220
0
230
-1
0
CIRCLE
5
148
100
AcDbEntity
8
INTERIOR_PROFILES
100
AcDbCircle
10
-1160.4531827430503
20
397.27389342118431
30
0
40
6.5000000000000568
210
0
220
0
230
-1
0
CIRCLE
5
149
100
AcDbEntity
8
INTERIOR_PROFILES
100
AcDbCircle
10
-60.191236032466833
20
14.261946710578478
30
0
40
1.6999999999999993
210
0
220
0
230
-1
0
CIRCLE
5
150
100
AcDbEntity
8
INTERIOR_PROFILES
100
AcDbCircle
10
-14.191236032466747
20
14.261946710578481
30
0
40
1.6999999999999993
210
0
220
0
230
-1
0
CIRCLE
5
151
100
AcDbEntity
8
INTERIOR_PROFILES
100
AcDbCircle
10
-1098.1912360324663
20
14.261946710584485
30
0
40
1.7000000000000171
210
0
220
0
230
-1
0
CIRCLE
5
152
100
AcDbEntity
8
INTERIOR_PROFILES
100
AcDbCircle
10
-1160.4531827430503
20
34.02389342121451
30
0
40
1.7000000000000171
210
0
220
0
230
-1
0
CIRCLE
5
153
100
AcDbEntity
8
INTERIOR_PROFILES
100
AcDbCircle
10
-579.19123603185255
20
14.261946710580094
30
0
40
1.7000000000000171
210
0
220
0
230
-1
0
CIRCLE
5
154
100
AcDbEntity
8
INTERIOR_PROFILES
100
AcDbCircle
10
-1144.1912360324663
20
14.261946710584482
30
0
40
1.7000000000000171
210
0
220
0
230
-1
0
CIRCLE
5
155
100
AcDbEntity
8
INTERIOR_PROFILES
100
AcDbCircle
10
2.0707106781171092
20
397.27389342118443
30
0
40
6.5000000000000107
210
0
220
0
230
-1
0
CIRCLE
5
156
100
AcDbEntity
8
INTERIOR_PROFILES
100
AcDbCircle
10
2.0707106781171092
20
387.52389342118448
30
0
40
1.7000000000000082
210
0
220
0
230
-1
0
CIRCLE
5
157
100
AcDbEntity
8
INTERIOR_PROFILES
100
AcDbCircle
10
2.0707106781171092
20
34.02389342121463
30
0
40
1.6999999999999904
210
0
220
0
230
-1
0
CIRCLE
5
158
100
AcDbEntity
8
INTERIOR_PROFILES
100
AcDbCircle
10
2.0707106781171092
20
53.523893421184461
30
0
40
1.7000000000000082
210
0
220
0
230
-1
0
CIRCLE
5
159
100
AcDbEntity
8
INTERIOR_PROFILES
100
AcDbCircle
10
-729.1912360324668
20
382.52389342116879
30
0
40
2.1170000000000044
210
0
220
0
230
-1
0
CIRCLE
5
160
100
AcDbEntity
8
INTERIOR_PROFILES
100
AcDbCircle
10
-729.1912360324668
20
62.523893421169731
30
0
40
2.1169999999999956
210
0
220
0
230
-1
0
CIRCLE
5
161
100
AcDbEntity
8
INTERIOR_PROFILES
100
AcDbCircle
10
2.0707106781171092
20
407.02389342118454
30
0
40
1.6999999999999904
210
0
220
0
230
-1
0
CIRCLE
5
162
100
AcDbEntity
8
INTERIOR_PROFILES
100
AcDbCircle
10
-1029.1912360324673
20
62.523893421169241
30
0
40
2.1169999999999956
210
0
220
0
230
-1
0
CIRCLE
5
163
100
AcDbEntity
8
INTERIOR_PROFILES
100
AcDbCircle
10
2.0707106781171092
20
220.52389342118437
30
0
40
1.7000000000000082
210
0
220
0
230
-1
0
CIRCLE
5
164
100
AcDbEntity
8
INTERIOR_PROFILES
100
AcDbCircle
10
-1029.191236032467
20
382.5238934211693
30
0
40
2.1170000000000044
210
0
220
0
230
-1
0
CIRCLE
5
165
100
AcDbEntity
8
INTERIOR_PROFILES
100
AcDbCircle
10
-829.19123603246703
20
382.52389342116913
30
0
40
2.1170000000000044
210
0
220
0
230
-1
0
CIRCLE
5
166
100
AcDbEntity
8
INTERIOR_PROFILES
100
AcDbCircle
10
-879.19123603246703
20
62.523893421169404
30
0
40
2.1169999999999956
210
0
220
0
230
-1
0
CIRCLE
5
167
100
AcDbEntity
8
INTERIOR_PROFILES
100
AcDbCircle
10
-829.19123603246703
20
62.523893421169454
30
0
40
2.1169999999999956
210
0
220
0
230
-1
0
CIRCLE
5
168
100
AcDbEntity
8
INTERIOR_PROFILES
100
AcDbCircle
10
-679.19123603246646
20
62.523893421170143
30
0
40
2.1169999999999956
210
0
220
0
230
-1
0
CIRCLE
5
169
100
AcDbEntity
8
INTERIOR_PROFILES
100
AcDbCircle
10
-479.19123603246828
20
382.52389342116766
30
0
40
2.1170000000000044
210
0
220
0
230
-1
0
LINE
5
170
100
AcDbEntity
8
BEND
100
AcDbLine
10
1152.6657122720135
20
418.65486677646146
30
-2.6052232887240619e-11
11
5.7167597929196745
21
418.65486677646152
31
-2.7738808425755237e-11
0
LINE
5
171
100
AcDbEntity
8
BEND
100
AcDbLine
10
-10.201684033410459
20
412.45318274305066
30
-2.908000736270176e-11
11
-10.201684033410316
21
28.594604099288432
31
-3.1203354367833423e-12
0
LINE
5
172
100
AcDbEntity
8
BEND
100
AcDbLine
10
5.7167597929198166
20
22.392920065876986
30
-6.6946953068166886e-13
11
1152.6657122720135
21
22.392920065876861
31
7.7798211019449283e-13
0
LINE
5
173
100
AcDbEntity
8
BEND
100
AcDbLine
10
5.7167597929199587
20
6.1309733552923484
30
2.0751501738993298e-16
11
1152.665712272013
21
6.1309733552922978
31
1.8933257352235064e-12
0
LINE
5
174
100
AcDbEntity
8
BEND
100
AcDbLine
10
6.0602626771742507
20
22.392920065876986
30
-8.0556340349728328e-13
11
6.0602626771742507
21
6.1309733552923484
31
-4.4520718155928978e-15
0
LINE
5
175
100
AcDbEntity
8
BEND
100
AcDbLine
10
6.0602626771742507
20
6.1309733552923484
30
-4.4520718155928978e-15
11
6.0602626771743928
21
1.7763568394002505e-14
31
2.0152546026697265e-13
0
LINE
5
176
100
AcDbEntity
8
BEND
100
AcDbLine
10
6.0602626771743928
20
418.65486677646152
30
-2.7735504172359749e-11
11
6.0602626771742507
21
22.392920065876986
31
-8.0556340349728328e-13
0
LINE
5
177
100
AcDbEntity
8
BEND
100
AcDbLine
10
6.0602626771745349
20
434.91681348704623
30
-2.9575445697281258e-11
11
6.0602626771743928
21
418.65486677646152
31
-2.7735504172359749e-11
0
LINE
5
178
100
AcDbEntity
8
BEND
100
AcDbLine
10
6.0602626771745349
20
441.04778684233872
30
-3.0230096639979571e-11
11
6.0602626771745349
21
434.91681348704623
31
-2.9575445697281258e-11
0
LINE
5
179
100
AcDbEntity
8
BEND
100
AcDbLine
10
1152.3222093877591
20
22.392920065876861
30
8.7720360306497811e-13
11
1152.3222093877591
21
418.65486677646146
31
-2.6086581396196883e-11
0
LINE
5
180
100
AcDbEntity
8
BEND
100
AcDbLine
10
1152.3222093877591
20
418.65486677646146
30
-2.6086581396196883e-11
11
1152.3222093877584
21
434.91681348704623
31
-2.788744699043383e-11
0
LINE
5
181
100
AcDbEntity
8
BEND
100
AcDbLine
10
1152.3222093877584
20
434.91681348704623
30
-2.788744699043383e-11
11
1152.3222093877584
21
441.04778684233855
31
-2.8527146662929964e-11
0
LINE
5
182
100
AcDbEntity
8
BEND
100
AcDbLine
10
1152.3222093877589
20
6.1309733552922978
30
1.6783149347466631e-12
11
1152.3222093877591
21
22.392920065876861
31
8.7720360306497811e-13
0
LINE
5
183
100
AcDbEntity
8
BEND
100
AcDbLine
10
1152.3222093877589
20
-1.3766765505351941e-13
30
1.9393271062602474e-12
11
1152.3222093877589
21
6.1309733552922978
31
1.6783149347466631e-12
0
LINE
5
184
100
AcDbEntity
8
BEND
100
AcDbLine
10
1168.5841560983438
20
28.594604099288023
30
-1.6386509775350588e-12
11
1168.5841560983436
21
412.45318274305021
31
-2.79497763974981e-11
0
LINE
5
185
100
AcDbEntity
8
BEND
100
AcDbLine
10
1152.665712272013
20
434.91681348704623
30
-2.7892174412162138e-11
11
5.7167597929198166
21
434.91681348704623
31
-2.9548581261895676e-11
0
LINE
5
186
100
AcDbEntity
8
BEND_EXTENT
100
AcDbLine
10
-11.332657388702643
20
28.594604099288397
30
-3.4749794731865134e-12
11
-11.332657388702643
21
412.45318274305066
31
-2.9402773562962415e-11
0
LINE
5
187
100
AcDbEntity
8
BEND_EXTENT
100
AcDbLine
10
-9.0707106781181324
20
412.45318274305072
30
-2.8480188253317054e-11
11
-9.0707106781181324
21
28.594604099288006
31
-2.5257488109501208e-12
0
LINE
5
188
100
AcDbEntity
8
BEND_EXTENT
100
AcDbLine
10
1169.7151294536361
20
412.45318274305015
30
-2.8284002845753775e-11
11
1169.7151294536361
21
28.594604099288006
31
-2.0364645248858319e-12
0
LINE
5
189
100
AcDbEntity
8
BEND_EXTENT
100
AcDbLine
10
1167.4531827430515
20
28.594604099287917
30
-1.011718649338667e-12
11
1167.4531827430515
21
412.45318274305066
31
-2.7321429459585652e-11
0
LINE
5
190
100
AcDbEntity
8
BEND_EXTENT
100
AcDbLine
10
4.9292893218819245
20
23.594604099288251
30
-1.028403777693574e-12
11
4.9292893218817824
21
417.45318274305077
31
-2.7662691201619814e-11
0
LINE
5
191
100
AcDbEntity
8
BEND_EXTENT
100
AcDbLine
10
1153.4531827430512
20
417.45318274305066
30
-2.6260820644105855e-11
11
1153.4531827430515
21
23.594604099287366
31
7.2873814770048609e-13
0
LINE
5
192
100
AcDbEntity
8
BEND_EXTENT
100
AcDbLine
10
1153.4531827430508
20
433.7151294536352
30
-2.7650602903151505e-11
11
1153.453182743051
21
419.85655080987249
31
-2.621105031629513e-11
0
LWPOLYLINE
5
193
100
AcDbEntity
8
BEND_EXTENT
100
AcDbPolyline
90
4
70
1
43
0.0
10
1151.1912360324666
20
419.78584013175384
10
1151.1912360324661
20
433.78584013175396
10
7.1912360324667191
20
433.7858401317539
10
7.1912360324665769
20
419.78584013175396
0
LWPOLYLINE
5
194
100
AcDbEntity
8
BEND_EXTENT
100
AcDbPolyline
90
4
70
1
43
0.0
10
1151.1912360324661
20
23.523893421169237
10
1151.1912360324666
20
417.5238934211693
10
7.1912360324667191
20
417.5238934211693
10
7.1912360324667191
20
23.523893421169362
0
LINE
5
195
100
AcDbEntity
8
BEND_EXTENT
100
AcDbLine
10
1153.4531827430508
20
4.9292893218812317
30
1.6424244374793143e-12
11
1153.4531827430508
21
-1.9539925233402755e-13
31
1.8354326299275915e-12
0
LINE
5
196
100
AcDbEntity
8
BEND_EXTENT
100
AcDbLine
10
1151.1912360324661
20
1.7763568394002505e-14
30
1.8831822438045991e-12
11
1151.1912360324661
21
5.0000000000000533
31
1.6986894764724615e-12
0
LINE
5
197
100
AcDbEntity
8
BEND_EXTENT
100
AcDbLine
10
1151.1912360324661
20
5.0000000000000533
30
1.6986894764724615e-12
11
7.1912360324667191
21
5.0000000000001048
31
1.9243115165940769e-14
0
LINE
5
198
100
AcDbEntity
8
BEND_EXTENT
100
AcDbLine
10
7.1912360324667191
20
5.0000000000001048
30
1.9243115165940769e-14
11
7.1912360324667191
21
6.6613381477509392e-14
31
2.0373588249807867e-13
0
LINE
5
199
100
AcDbEntity
8
BEND_EXTENT
100
AcDbLine
10
4.9292893218822087
20
7.3326573887034581
30
7.7161387048047516e-14
11
4.9292893218820666
21
21.191236032466179
31
-6.5184846404823373e-13
0
LWPOLYLINE
5
200
100
AcDbEntity
8
BEND_EXTENT
100
AcDbPolyline
90
4
70
1
43
0.0
10
7.1912360324667191
20
21.261946710584752
10
7.1912360324667191
20
7.2619467105846685
10
1151.1912360324661
20
7.261946710584537
10
1151.1912360324661
20
21.261946710584631
0
LINE
5
201
100
AcDbEntity
8
BEND_EXTENT
100
AcDbLine
10
4.9292893218820666
20
419.85655080987266
30
-2.7897137968113122e-11
11
4.9292893218820666
21
433.71512945363543
31
-2.9407744828545514e-11
0
LINE
5
202
100
AcDbEntity
8
BEND_EXTENT
100
AcDbLine
10
4.9292893218819245
20
436.11849752045737
30
-2.9713245868614832e-11
11
4.9292893218819245
21
441.04778684233878
31
-3.0261525428943162e-11
0
LINE
5
203
100
AcDbEntity
8
BEND_EXTENT
100
AcDbLine
10
7.1912360324667191
20
441.04778684233861
30
-3.0278188798130674e-11
11
7.1912360324667191
21
436.04778684233855
31
-2.9685133957736472e-11
0
LINE
5
204
100
AcDbEntity
8
BEND_EXTENT
100
AcDbLine
10
7.1912360324667191
20
436.04778684233855
30
-2.9685133957736472e-11
11
1151.1912360324661
21
436.04778684233855
31
-2.800568759642996e-11
0
LINE
5
205
100
AcDbEntity
8
BEND_EXTENT
100
AcDbLine
10
1151.1912360324661
20
436.04778684233855
30
-2.800568759642996e-11
11
1151.1912360324661
21
441.04778684233861
31
-2.8598742436824153e-11
0
LINE
5
206
100
AcDbEntity
8
BEND_EXTENT
100
AcDbLine
10
4.9292893218822087
20
3.1086244689504383e-14
30
2.2039925168559943e-13
11
4.9292893218822087
21
4.9292893218815319
31
2.7391059237317345e-14
0
LINE
5
207
100
AcDbEntity
8
BEND_EXTENT
100
AcDbLine
10
1153.4531827430508
20
21.191236032465905
30
1.1052934613457813e-12
11
1153.4531827430508
21
7.3326573887031676
31
1.8343033124420641e-12
0
LINE
5
208
100
AcDbEntity
8
BEND_EXTENT
100
AcDbLine
10
1153.4531827430508
20
441.0477868423385
30
-2.857543777712516e-11
11
1153.4531827430508
21
436.11849752045703
31
-2.809821249037284e-11
0
ENDSEC
0
SECTION
2
OBJECTS
0
DICTIONARY
5
C
100
AcDbDictionary
3
ACAD_GROUP
350
D
3
ACAD_MLINESTYLE
350
17
0
DICTIONARY
5
D
100
AcDbDictionary
0
DICTIONARY
5
1A
330
C
100
AcDbDictionary
0
DICTIONARY
5
17
100
AcDbDictionary
0
ENDSEC
0
EOF
