0
SECTION
2
HEADER
9
$INSUNITS
70
4
9
$ACADVER
1
AC1014
9
$HANDSEED
5
FFFF
0
ENDSEC
0
SECTION
2
TABLES
0
TABLE
2
VPORT
5
8
100
AcDbSymbolTable
0
ENDTAB
0
TABLE
2
LTYPE
5
5
100
AcDbSymbolTable
0
LTYPE
5
14
100
AcDbSymbolTableRecord
100
AcDbLinetypeTableRecord
2
BYBLOCK
70
0
0
LTYPE
5
15
100
AcDbSymbolTableRecord
100
AcDbLinetypeTableRecord
2
BYLAYER
70
0
0
LTYPE
5
16
100
AcDbSymbolTableRecord
100
AcDbLinetypeTableRecord
2
DASHED
70
0
3
Dashed __ __ __ __ __ __ __ __ __ __ __ __ __ _
72
65
73
2
40
0.75
49
0.5
74
0
49
-0.25
74
0
0
ENDTAB
0
TABLE
2
LAYER
5
2
100
AcDbSymbolTable
70
2
0
LAYER
5
50
100
AcDbSymbolTableRecord
100
AcDbLayerTableRecord
2
0
70
0
62
7
6
CONTINUOUS
0
ENDTAB
0
TABLE
2
STYLE
5
3
100
AcDbSymbolTable
70
1
0
STYLE
5
11
100
AcDbSymbolTableRecord
100
AcDbTextStyleTableRecord
2
STANDARD
70
0
0
ENDTAB
0
TABLE
2
VIEW
5
6
100
AcDbSymbolTable
70
0
0
ENDTAB
0
TABLE
2
UCS
5
7
100
AcDbSymbolTable
70
0
0
ENDTAB
0
TABLE
2
APPID
5
9
100
AcDbSymbolTable
70
2
0
APPID
5
12
100
AcDbSymbolTableRecord
100
AcDbRegAppTableRecord
2
ACAD
70
0
0
ENDTAB
0
TABLE
2
DIMSTYLE
5
A
100
AcDbSymbolTable
70
1
0
ENDTAB
0
TABLE
2
BLOCK_RECORD
5
1
100
AcDbSymbolTable
70
1
0
BLOCK_RECORD
5
1F
100
AcDbSymbolTableRecord
100
AcDbBlockTableRecord
2
*MODEL_SPACE
0
BLOCK_RECORD
5
1B
100
AcDbSymbolTableRecord
100
AcDbBlockTableRecord
2
*PAPER_SPACE
0
ENDTAB
0
ENDSEC
0
SECTION
2
BLOCKS
0
BLOCK
5
20
100
AcDbEntity
100
AcDbBlockBegin
2
*MODEL_SPACE
0
ENDBLK
5
21
100
AcDbEntity
100
AcDbBlockEnd
0
BLOCK
5
1C
100
AcDbEntity
100
AcDbBlockBegin
2
*PAPER_SPACE
0
ENDBLK
5
1D
100
AcDbEntity
100
AcDbBlockEnd
0
ENDSEC
0
SECTION
2
ENTITIES
0
LINE
5
100
100
AcDbEntity
8
OUTER_PROFILES
100
AcDbLine
10
794.00000000395517
20
121.04778680933836
30
0
11
794.00000000341902
21
109.04764813572871
31
0
0
ARC
5
101
100
AcDbEntity
8
OUTER_PROFILES
100
AcDbCircle
10
-791.45550000212324
20
109.04764813584248
30
0
40
2.5445000012958019
210
0
220
-0
230
-1
100
AcDbArc
50
180
51
257.37328903518068
0
ELLIPSE
5
102
100
AcDbEntity
8
OUTER_PROFILES
100
AcDbEllipse
10
794.0000000026032
20
90.785840098753766
30
0
11
7.1489897690672459e-10
21
16
31
0.0
40
0.75000000000000011
41
0.1664573809775538
42
1.570796326794893
0
LINE
5
103
100
AcDbEntity
8
OUTER_PROFILES
100
AcDbLine
10
782.0000000026032
20
90.785840099289999
30
0
11
782.00000000259149
21
32.261946710584574
31
0
0
ELLIPSE
5
104
100
AcDbEntity
8
OUTER_PROFILES
100
AcDbEllipse
10
794.00000000259161
20
32.261946710584574
30
0
11
-9.7633216739475144e-15
21
-16
31
0.0
40
0.75000000000000011
41
4.7123889803846897
42
6.1167279261160914
0
ARC
5
105
100
AcDbEntity
8
OUTER_PROFILES
100
AcDbCircle
10
-791.4554999999998
20
14.000138673899816
30
0
40
2.5445000000000233
210
0
220
0
230
-1
100
AcDbArc
50
102.6267109738148
51
180
0
LINE
5
106
100
AcDbEntity
8
OUTER_PROFILES
100
AcDbLine
10
793.99999999999977
20
14.000138673901922
30
0
11
793.99999999999989
21
2.0000000000000329
31
0
0
ARC
5
107
100
AcDbEntity
8
OUTER_PROFILES
100
AcDbCircle
10
-791.99999999999989
20
2.0000000000000018
30
0
40
2.0000000000000284
210
0
220
0
230
-1
100
AcDbArc
50
180
51
269.99999999999676
0
LINE
5
108
100
AcDbEntity
8
OUTER_PROFILES
100
AcDbLine
10
792
20
1.6653345369377348e-15
30
0
11
0
21
-7.2164496600635175e-15
31
0
0
ARC
5
109
100
AcDbEntity
8
OUTER_PROFILES
100
AcDbCircle
10
0
20
1.9999999999999929
30
0
40
2
210
0
220
-0
230
-1
100
AcDbArc
50
-90
51
0
0
LINE
5
110
100
AcDbEntity
8
OUTER_PROFILES
100
AcDbLine
10
-2
20
2.0000000000000013
30
0
11
-2.0000000000000284
21
14.000138673152636
31
0
0
ARC
5
111
100
AcDbEntity
8
OUTER_PROFILES
100
AcDbCircle
10
-0.54449999999988563
20
14.000138673152538
30
0
40
2.5444999999999141
210
0
220
0
230
-1
100
AcDbArc
50
0
51
77.373289042743252
0
ELLIPSE
5
112
100
AcDbEntity
8
OUTER_PROFILES
100
AcDbEllipse
10
-1.999999999255806
20
32.261946710584574
30
0
11
9.7633216740082756e-15
21
-16
31
0.0
40
0.75000000000000011
41
0.16645738084223272
42
1.5707963267948988
0
LINE
5
113
100
AcDbEntity
8
OUTER_PROFILES
100
AcDbLine
10
10.000000000744196
20
32.261946710584617
30
0
11
10.000000000755849
21
90.785840133784404
31
0
0
ELLIPSE
5
114
100
AcDbEntity
8
OUTER_PROFILES
100
AcDbEllipse
10
-1.9999999992441531
20
90.785840134320637
30
0
11
7.1491850355342366e-10
21
16
31
0.0
40
0.75000000000000011
41
4.7123889803846861
42
6.1167279262513876
0
ARC
5
115
100
AcDbEntity
8
OUTER_PROFILES
100
AcDbCircle
10
-0.54450000212327154
20
109.04764817134873
30
0
40
2.5444999999999944
210
-0
220
0
230
-1
100
AcDbArc
50
-77.373289033758127
51
0
0
LINE
5
116
100
AcDbEntity
8
OUTER_PROFILES
100
AcDbLine
10
-1.9999999978767289
20
109.04764817146054
30
0
11
-1.9999999960447212
21
121.04778684490523
31
0
0
ARC
5
117
100
AcDbEntity
8
OUTER_PROFILES
100
AcDbCircle
10
-3.9554493014293257e-09
20
121.04778684481587
30
0
40
2.0000000000001705
210
0
220
0
230
-1
100
AcDbArc
50
0
51
90.000000002560625
0
LINE
5
118
100
AcDbEntity
8
OUTER_PROFILES
100
AcDbLine
10
4.0448314583203782e-09
20
123.04778684481587
30
0
11
243.00000000312133
21
123.04778683395821
31
0
0
ARC
5
119
100
AcDbEntity
8
OUTER_PROFILES
100
AcDbCircle
10
-243.00000000303208
20
121.04778683395821
30
0
40
1.9999999999999929
210
0
220
0
230
-1
100
AcDbArc
50
90.000000002556661
51
180
0
LINE
5
120
100
AcDbEntity
8
OUTER_PROFILES
100
AcDbLine
10
245.00000000303206
20
121.04778683386883
30
0
11
245.00000000155615
21
88.023893412699579
31
0
0
LINE
5
121
100
AcDbEntity
8
OUTER_PROFILES
100
AcDbLine
10
245.00000000155615
20
88.023893412699579
30
0
11
246.00000000155617
21
88.023893412654886
31
0
0
LINE
5
122
100
AcDbEntity
8
OUTER_PROFILES
100
AcDbLine
10
246.00000000155617
20
88.023893412654886
30
0
11
246.0000000016679
21
120.78584012921334
31
0
0
ARC
5
123
100
AcDbEntity
8
OUTER_PROFILES
100
AcDbCircle
10
-248.0000000016679
20
120.78584012921333
30
0
40
1.9999999999999929
210
0
220
0
230
-1
100
AcDbArc
50
0
51
89.99999999999919
0
LINE
5
124
100
AcDbEntity
8
OUTER_PROFILES
100
AcDbLine
10
248.00000000166787
20
122.78584012921331
30
0
11
544.00000000166779
21
122.78584012921331
31
0
0
ARC
5
125
100
AcDbEntity
8
OUTER_PROFILES
100
AcDbCircle
10
-544.00000000166779
20
120.78584012921333
30
0
40
1.9999999999999929
210
0
220
0
230
-1
100
AcDbArc
50
90
51
180
0
LINE
5
126
100
AcDbEntity
8
OUTER_PROFILES
100
AcDbLine
10
546.0000000016679
20
120.78584012921333
30
0
11
546.00000000155615
21
88.023893399250341
31
0
0
LINE
5
127
100
AcDbEntity
8
OUTER_PROFILES
100
AcDbLine
10
546.00000000155615
20
88.023893399250341
30
0
11
547.00000000155615
21
88.023893399205662
31
0
0
LINE
5
128
100
AcDbEntity
8
OUTER_PROFILES
100
AcDbLine
10
547.00000000155615
20
88.023893399205662
30
0
11
547.00000000303169
21
121.04778682037477
31
0
0
ARC
5
129
100
AcDbEntity
8
OUTER_PROFILES
100
AcDbCircle
10
-549.00000000303169
20
121.04778682028541
30
0
40
2.0000000000000284
210
0
220
0
230
-1
100
AcDbArc
50
0
51
90.000000002556661
0
LINE
5
130
100
AcDbEntity
8
OUTER_PROFILES
100
AcDbLine
10
549.00000000312093
20
123.04778682028541
30
0
11
792.00000000404452
21
123.04778680942775
31
0
0
ARC
5
131
100
AcDbEntity
8
OUTER_PROFILES
100
AcDbCircle
10
-792.00000000395539
20
121.04778680942775
30
0
40
1.9999999999999929
210
0
220
0
230
-1
100
AcDbArc
50
90.000000002553406
51
180
0
CIRCLE
5
132
100
AcDbEntity
8
INTERIOR_PROFILES
100
AcDbCircle
10
-787.00000000356795
20
120.04778677950448
30
0
40
1.7000000000000171
210
0
220
0
230
-1
0
CIRCLE
5
133
100
AcDbEntity
8
INTERIOR_PROFILES
100
AcDbCircle
10
-5.0000000016677859
20
3.0000000025404727
30
0
40
1.7000000000000004
210
0
220
0
230
-1
0
CIRCLE
5
134
100
AcDbEntity
8
INTERIOR_PROFILES
100
AcDbCircle
10
-5.0000000035677772
20
120.04778684938697
30
0
40
1.7000000000000004
210
0
220
0
230
-1
0
CIRCLE
5
135
100
AcDbEntity
8
INTERIOR_PROFILES
100
AcDbCircle
10
-184.68625000166787
20
81.119883242761091
30
0
40
1.7000000000000171
210
0
220
0
230
-1
0
CIRCLE
5
136
100
AcDbEntity
8
INTERIOR_PROFILES
100
AcDbCircle
10
-618.62750000166784
20
61.523893418628731
30
0
40
1.7000000000000171
210
0
220
0
230
-1
0
CIRCLE
5
137
100
AcDbEntity
8
INTERIOR_PROFILES
100
AcDbCircle
10
-207.31375000166778
20
41.927903594496357
30
0
40
1.7000000000000171
210
0
220
0
230
-1
0
CIRCLE
5
138
100
AcDbEntity
8
INTERIOR_PROFILES
100
AcDbCircle
10
-196.00000000166787
20
84.151393418628714
30
0
40
1.7000000000000171
210
0
220
0
230
-1
0
CIRCLE
5
139
100
AcDbEntity
8
INTERIOR_PROFILES
100
AcDbCircle
10
-196.00000000166787
20
38.896393418628733
30
0
40
1.7000000000000171
210
0
220
0
230
-1
0
CIRCLE
5
140
100
AcDbEntity
8
INTERIOR_PROFILES
100
AcDbCircle
10
-752.00000000166801
20
38.896393418628747
30
0
40
1.7000000000000171
210
0
220
0
230
-1
0
CIRCLE
5
141
100
AcDbEntity
8
INTERIOR_PROFILES
100
AcDbCircle
10
-218.62750000166784
20
61.523893418628731
30
0
40
1.7000000000000171
210
0
220
0
230
-1
0
CIRCLE
5
142
100
AcDbEntity
8
INTERIOR_PROFILES
100
AcDbCircle
10
-596.0000000016679
20
84.151393418628714
30
0
40
1.7000000000000171
210
0
220
0
230
-1
0
CIRCLE
5
143
100
AcDbEntity
8
INTERIOR_PROFILES
100
AcDbCircle
10
-607.31375000166781
20
41.927903594496371
30
0
40
1.7000000000000171
210
0
220
0
230
-1
0
CIRCLE
5
144
100
AcDbEntity
8
INTERIOR_PROFILES
100
AcDbCircle
10
-207.31375000166787
20
81.119883242761119
30
0
40
1.7000000000000171
210
0
220
0
230
-1
0
CIRCLE
5
145
100
AcDbEntity
8
INTERIOR_PROFILES
100
AcDbCircle
10
-584.68625000166787
20
81.119883242761091
30
0
40
1.7000000000000171
210
0
220
0
230
-1
0
CIRCLE
5
146
100
AcDbEntity
8
INTERIOR_PROFILES
100
AcDbCircle
10
-573.37250000166773
20
61.523893418628731
30
0
40
1.7000000000000171
210
0
220
0
230
-1
0
CIRCLE
5
147
100
AcDbEntity
8
INTERIOR_PROFILES
100
AcDbCircle
10
-787.00000000166801
20
3.0000000025404638
30
0
40
1.7000000000000171
210
0
220
0
230
-1
0
CIRCLE
5
148
100
AcDbEntity
8
INTERIOR_PROFILES
100
AcDbCircle
10
-184.68625000166782
20
41.927903594496328
30
0
40
1.7000000000000171
210
0
220
0
230
-1
0
CIRCLE
5
149
100
AcDbEntity
8
INTERIOR_PROFILES
100
AcDbCircle
10
-173.37250000166776
20
61.523893418628731
30
0
40
1.7000000000000171
210
0
220
0
230
-1
0
CIRCLE
5
150
100
AcDbEntity
8
INTERIOR_PROFILES
100
AcDbCircle
10
-596.0000000016679
20
38.896393418628733
30
0
40
1.7000000000000171
210
0
220
0
230
-1
0
CIRCLE
5
151
100
AcDbEntity
8
INTERIOR_PROFILES
100
AcDbCircle
10
-584.68625000166776
20
41.927903594496328
30
0
40
1.7000000000000171
210
0
220
0
230
-1
0
CIRCLE
5
152
100
AcDbEntity
8
INTERIOR_PROFILES
100
AcDbCircle
10
-607.31375000166781
20
81.119883242761119
30
0
40
1.7000000000000171
210
0
220
0
230
-1
0
CIRCLE
5
153
100
AcDbEntity
8
INTERIOR_PROFILES
100
AcDbCircle
10
-752.00000000166801
20
84.151393418628714
30
0
40
1.7000000000000171
210
0
220
0
230
-1
0
CIRCLE
5
154
100
AcDbEntity
8
INTERIOR_PROFILES
100
AcDbCircle
10
-40.000000001667786
20
38.896393418628733
30
0
40
1.6999999999999993
210
0
220
0
230
-1
0
CIRCLE
5
155
100
AcDbEntity
8
INTERIOR_PROFILES
100
AcDbCircle
10
-763.31375000166781
20
81.119883242761119
30
0
40
1.7000000000000171
210
0
220
0
230
-1
0
CIRCLE
5
156
100
AcDbEntity
8
INTERIOR_PROFILES
100
AcDbCircle
10
-763.31375000166781
20
41.927903594496378
30
0
40
1.7000000000000171
210
0
220
0
230
-1
0
CIRCLE
5
157
100
AcDbEntity
8
INTERIOR_PROFILES
100
AcDbCircle
10
-28.686250001667872
20
41.927903594496343
30
0
40
1.6999999999999993
210
0
220
0
230
-1
0
CIRCLE
5
158
100
AcDbEntity
8
INTERIOR_PROFILES
100
AcDbCircle
10
-729.37250000166785
20
61.523893418628717
30
0
40
1.7000000000000171
210
0
220
0
230
-1
0
CIRCLE
5
159
100
AcDbEntity
8
INTERIOR_PROFILES
100
AcDbCircle
10
-740.68625000166776
20
81.119883242761105
30
0
40
1.7000000000000171
210
0
220
0
230
-1
0
CIRCLE
5
160
100
AcDbEntity
8
INTERIOR_PROFILES
100
AcDbCircle
10
-740.68625000166799
20
41.92790359449635
30
0
40
1.7000000000000171
210
0
220
0
230
-1
0
CIRCLE
5
161
100
AcDbEntity
8
INTERIOR_PROFILES
100
AcDbCircle
10
-51.313750001667842
20
41.92790359449635
30
0
40
1.6999999999999993
210
0
220
0
230
-1
0
CIRCLE
5
162
100
AcDbEntity
8
INTERIOR_PROFILES
100
AcDbCircle
10
-774.62750000166784
20
61.523893418628731
30
0
40
1.7000000000000171
210
0
220
0
230
-1
0
CIRCLE
5
163
100
AcDbEntity
8
INTERIOR_PROFILES
100
AcDbCircle
10
-51.3137500016677
20
81.119883242761119
30
0
40
1.6999999999999993
210
0
220
0
230
-1
0
CIRCLE
5
164
100
AcDbEntity
8
INTERIOR_PROFILES
100
AcDbCircle
10
-40.000000001667786
20
84.151393418628714
30
0
40
1.6999999999999993
210
0
220
0
230
-1
0
CIRCLE
5
165
100
AcDbEntity
8
INTERIOR_PROFILES
100
AcDbCircle
10
-62.627500001667897
20
61.523893418628731
30
0
40
1.6999999999999993
210
0
220
0
230
-1
0
CIRCLE
5
166
100
AcDbEntity
8
INTERIOR_PROFILES
100
AcDbCircle
10
-40.000000001667786
20
61.523893418628731
30
0
40
1.6999999999999993
210
0
220
0
230
-1
0
CIRCLE
5
167
100
AcDbEntity
8
INTERIOR_PROFILES
100
AcDbCircle
10
-17.372500001667959
20
61.523893418628717
30
0
40
1.6999999999999993
210
0
220
0
230
-1
0
CIRCLE
5
168
100
AcDbEntity
8
INTERIOR_PROFILES
100
AcDbCircle
10
-28.686250001667872
20
81.119883242761119
30
0
40
1.6999999999999993
210
0
220
0
230
-1
0
CIRCLE
5
169
100
AcDbEntity
8
INTERIOR_PROFILES
100
AcDbCircle
10
-71.000000001667729
20
26.261946710584574
30
0
40
1.7000000000000171
210
0
220
0
230
-1
0
CIRCLE
5
170
100
AcDbEntity
8
INTERIOR_PROFILES
100
AcDbCircle
10
-721.00000000194768
20
96.785840102015541
30
0
40
1.7000000000000171
210
0
220
0
230
-1
0
CIRCLE
5
171
100
AcDbEntity
8
INTERIOR_PROFILES
100
AcDbCircle
10
-721.00000000166779
20
26.261946710584574
30
0
40
1.7000000000000171
210
0
220
0
230
-1
0
CIRCLE
5
172
100
AcDbEntity
8
INTERIOR_PROFILES
100
AcDbCircle
10
-396.0000000016679
20
26.261946710584571
30
0
40
1.7000000000000171
210
0
220
0
230
-1
0
CIRCLE
5
173
100
AcDbEntity
8
INTERIOR_PROFILES
100
AcDbCircle
10
-71.000000001947683
20
96.785840131058876
30
0
40
1.7000000000000171
210
0
220
0
230
-1
0
LINE
5
174
100
AcDbEntity
8
BEND
100
AcDbLine
10
245.00000000244518
20
107.91681347857654
30
-3.4348836497264535e-13
11
-1.7349063180733992
21
107.91681348960108
31
-1.7670056990482616e-08
0
LINE
5
175
100
AcDbEntity
8
BEND
100
AcDbLine
10
793.73490632230198
20
107.91681345405792
30
1.7669595970536365e-08
11
547.00000000244495
21
107.91681346508244
31
1.4002844221572079e-14
0
LINE
5
176
100
AcDbEntity
8
BEND
100
AcDbLine
10
245.00000000162919
20
89.654866767991876
30
-1.2414713106451857e-13
11
10.000000001861054
21
89.654866778492107
31
-1.2969971463111203e-13
0
LINE
5
177
100
AcDbEntity
8
BEND
100
AcDbLine
10
546.0000000016679
20
119.65486677392104
30
-1.2531783860830568e-13
11
246.00000000166787
21
119.65486677392104
31
-1.2868498126327544e-13
0
LINE
5
178
100
AcDbEntity
8
BEND
100
AcDbLine
10
-1.7349063200020964
20
15.130973355292278
30
-1.8425566942704015e-13
11
793.73490632037283
21
15.130973355292278
31
-1.8486316555128297e-13
0
LINE
5
179
100
AcDbEntity
8
BEND
100
AcDbLine
10
10.000000000744365
20
33.392920065876929
30
-1.2337211890441125e-13
11
782.00000000259149
21
33.392920065876929
31
-1.2000497624715371e-13
0
LINE
5
180
100
AcDbEntity
8
BEND
100
AcDbLine
10
782.0000000038483
20
89.654866743997687
30
-1.2464354064317835e-13
11
547.00000000162902
21
89.654866754497903
31
-1.228741731028362e-13
0
LINE
5
181
100
AcDbEntity
8
BEND_EXTENT
100
AcDbLine
10
792.62113487361603
20
106.78584009881538
30
-4.440892094658984e-15
11
547.00000000239447
21
106.78584010979016
31
-4.440892095849454e-15
0
LINE
5
182
100
AcDbEntity
8
BEND_EXTENT
100
AcDbLine
10
547.0000000016795
20
90.785840109790172
30
-1.1990408665686573e-13
11
782.00000000260331
21
90.785840099289942
31
2.9923188371583371e-08
0
LINE
5
183
100
AcDbEntity
8
BEND_EXTENT
100
AcDbLine
10
547.00000000249543
20
109.04778682037477
30
3.1086244692155555e-14
11
794.00000000341925
21
109.04778680933838
31
2.2204460496351447e-14
0
LINE
5
184
100
AcDbEntity
8
BEND_EXTENT
100
AcDbLine
10
245.00000000239453
20
106.78584012328426
30
-3.15303338992357e-13
11
-0.62113486924786798
21
106.78584013425905
31
-3.1530333899354749e-13
0
LINE
5
185
100
AcDbEntity
8
BEND_EXTENT
100
AcDbLine
10
-1.9999999965807547
20
109.04778684490523
30
-3.6637359812631135e-13
11
245.00000000249577
21
109.04778683386883
31
-3.6415315207586389e-13
0
LINE
5
186
100
AcDbEntity
8
BEND_EXTENT
100
AcDbLine
10
10.000000000744365
20
34.523893421169227
30
-1.1990408665821914e-13
11
782.00000000259138
21
34.523893421169227
31
-1.2434497875381092e-13
0
LINE
5
187
100
AcDbEntity
8
BEND_EXTENT
100
AcDbLine
10
782.00000000259138
20
32.261946710584581
30
2.5403723569184004e-09
11
10.00000000074408
21
32.261946710584617
31
2.5403812387025937e-09
0
LINE
5
188
100
AcDbEntity
8
BEND_EXTENT
100
AcDbLine
10
782.00000000259138
20
88.523893388705446
30
-1.2878587085231155e-13
11
547.00000000157843
21
88.523893399205662
31
-1.1990408665619576e-13
0
LINE
5
189
100
AcDbEntity
8
BEND_EXTENT
100
AcDbLine
10
546.0000000016679
20
118.52389341862872
30
-1.1990408665619955e-13
11
246.00000000166787
21
118.52389341862875
31
-1.1990408665732991e-13
0
LINE
5
190
100
AcDbEntity
8
BEND_EXTENT
100
AcDbLine
10
245.00000000157854
20
88.52389341269955
30
-1.2434497875583429e-13
11
10.000000000744365
21
88.52389342319978
31
-1.2434497875671976e-13
0
LINE
5
191
100
AcDbEntity
8
BEND_EXTENT
100
AcDbLine
10
-0.62113487070689644
20
16.261946710584567
30
-1.1990408665951991e-13
11
792.62113487215686
21
16.261946710584567
31
-1.1990408665567527e-13
0
LINE
5
192
100
AcDbEntity
8
BEND_EXTENT
100
AcDbLine
10
793.99999999999989
20
13.999999999999995
30
-9.103828801541452e-14
11
-2.0000000000000284
21
14.000000000000004
31
-9.9920072216273795e-14
0
LINE
5
193
100
AcDbEntity
8
BEND_EXTENT
100
AcDbLine
10
246.00000000166787
20
120.78584012921337
30
-1.2878587085532586e-13
11
546.0000000016679
21
120.78584012921333
31
-1.1102230245986932e-13
0
LINE
5
194
100
AcDbEntity
8
BEND_EXTENT
100
AcDbLine
10
10.000000000756017
20
90.785840133784433
30
-4.5711967544548315e-09
11
245.00000000167972
21
90.785840123284231
31
-1.4210854715098606e-13
0
ENDSEC
0
SECTION
2
OBJECTS
0
DICTIONARY
5
C
100
AcDbDictionary
3
ACAD_GROUP
350
D
3
ACAD_MLINESTYLE
350
17
0
DICTIONARY
5
D
100
AcDbDictionary
0
DICTIONARY
5
1A
330
C
100
AcDbDictionary
0
DICTIONARY
5
17
100
AcDbDictionary
0
ENDSEC
0
EOF
