0
SECTION
2
HEADER
9
$INSUNITS
70
4
9
$ACADVER
1
AC1014
9
$HANDSEED
5
FFFF
0
ENDSEC
0
SECTION
2
TABLES
0
TABLE
2
VPORT
5
8
100
AcDbSymbolTable
0
ENDTAB
0
TABLE
2
LTYPE
5
5
100
AcDbSymbolTable
0
LTYPE
5
14
100
AcDbSymbolTableRecord
100
AcDbLinetypeTableRecord
2
BYBLOCK
70
0
0
LTYPE
5
15
100
AcDbSymbolTableRecord
100
AcDbLinetypeTableRecord
2
BYLAYER
70
0
0
LTYPE
5
16
100
AcDbSymbolTableRecord
100
AcDbLinetypeTableRecord
2
DASHED
70
0
3
Dashed __ __ __ __ __ __ __ __ __ __ __ __ __ _
72
65
73
2
40
0.75
49
0.5
74
0
49
-0.25
74
0
0
ENDTAB
0
TABLE
2
LAYER
5
2
100
AcDbSymbolTable
70
2
0
LAYER
5
50
100
AcDbSymbolTableRecord
100
AcDbLayerTableRecord
2
0
70
0
62
7
6
CONTINUOUS
0
ENDTAB
0
TABLE
2
STYLE
5
3
100
AcDbSymbolTable
70
1
0
STYLE
5
11
100
AcDbSymbolTableRecord
100
AcDbTextStyleTableRecord
2
STANDARD
70
0
0
ENDTAB
0
TABLE
2
VIEW
5
6
100
AcDbSymbolTable
70
0
0
ENDTAB
0
TABLE
2
UCS
5
7
100
AcDbSymbolTable
70
0
0
ENDTAB
0
TABLE
2
APPID
5
9
100
AcDbSymbolTable
70
2
0
APPID
5
12
100
AcDbSymbolTableRecord
100
AcDbRegAppTableRecord
2
ACAD
70
0
0
ENDTAB
0
TABLE
2
DIMSTYLE
5
A
100
AcDbSymbolTable
70
1
0
ENDTAB
0
TABLE
2
BLOCK_RECORD
5
1
100
AcDbSymbolTable
70
1
0
BLOCK_RECORD
5
1F
100
AcDbSymbolTableRecord
100
AcDbBlockTableRecord
2
*MODEL_SPACE
0
BLOCK_RECORD
5
1B
100
AcDbSymbolTableRecord
100
AcDbBlockTableRecord
2
*PAPER_SPACE
0
ENDTAB
0
ENDSEC
0
SECTION
2
BLOCKS
0
BLOCK
5
20
100
AcDbEntity
100
AcDbBlockBegin
2
*MODEL_SPACE
0
ENDBLK
5
21
100
AcDbEntity
100
AcDbBlockEnd
0
BLOCK
5
1C
100
AcDbEntity
100
AcDbBlockBegin
2
*PAPER_SPACE
0
ENDBLK
5
1D
100
AcDbEntity
100
AcDbBlockEnd
0
ENDSEC
0
SECTION
2
ENTITIES
0
LWPOLYLINE
5
100
100
AcDbEntity
8
OUTER_PROFILES
100
AcDbPolyline
90
32
70
1
43
0.0
10
-2.2619467105846431
20
207.0477868423379
10
0
20
207.0477868423379
10
-1.0439004697891424e-30
20
210.04778684233793
10
-2.9999999999999716
20
210.04778684233793
10
-2.9999999999999716
20
207.78584013175322
10
-26.999999999999957
20
183.78584013175328
10
-330.00000000000011
20
183.78584013175325
10
-330.00000000000011
20
210.04778684233787
10
-343.26194671058454
20
210.04778684233793
10
-343.26194671058454
20
454.81171886483821
10
-330.00000000000011
20
454.8117188648381
10
-330.00000000000011
20
456.02285775045618
10
-330
20
457.23399663607336
10
-330
20
463.49594334665903
10
-330
20
484.49594334665903
10
365.99999999999994
20
484.49594334665903
10
365.99999999999994
20
461.23399663607347
10
365.99999999999994
20
457.23399663607336
10
366.00000000000011
20
456.02285775045618
10
366.00000000000011
20
454.81171886483816
10
379.2619467105846
20
454.81171886483816
10
379.2619467105846
20
68.047786842337885
10
366.00000000000011
20
68.047786842337928
10
366.00000000000011
20
65.785840131753218
10
365.99999999999994
20
41.523893421168339
10
365.99999999999994
20
23.261946710583246
10
365.99999999999994
20
12.999999999999972
42
0.41421356237309509
10
353
20
-2.388061258337333e-15
10
0
20
0
10
-3.3818550397842089e-31
20
68.047786842337928
10
-26.261946710584638
20
68.047786842337928
10
-26.261946710584638
20
183.04778684233793
0
CIRCLE
5
101
100
AcDbEntity
8
INTERIOR_PROFILES
100
AcDbCircle
10
282
20
217.0477868423379
30
0
40
1.7000000000000171
210
0
220
0
230
-1
0
CIRCLE
5
102
100
AcDbEntity
8
INTERIOR_PROFILES
100
AcDbCircle
10
-217.99999999999997
20
217.0477868423379
30
0
40
1.7000000000000171
210
0
220
0
230
-1
0
CIRCLE
5
103
100
AcDbEntity
8
INTERIOR_PROFILES
100
AcDbCircle
10
251.00000000000227
20
192.78584013180404
30
0
40
1.7000000000000171
210
0
220
0
230
-1
0
CIRCLE
5
104
100
AcDbEntity
8
INTERIOR_PROFILES
100
AcDbCircle
10
-358.99999999999989
20
50.785840131753218
30
0
40
1.6999999999999993
210
0
220
0
230
-1
0
CIRCLE
5
105
100
AcDbEntity
8
INTERIOR_PROFILES
100
AcDbCircle
10
297.00000000000227
20
192.78584013181117
30
0
40
1.7000000000000171
210
0
220
0
230
-1
0
CIRCLE
5
106
100
AcDbEntity
8
INTERIOR_PROFILES
100
AcDbCircle
10
-117.99999999999997
20
217.0477868423379
30
0
40
1.6999999999999993
210
0
220
0
230
-1
0
CIRCLE
5
107
100
AcDbEntity
8
INTERIOR_PROFILES
100
AcDbCircle
10
-17.999999999999972
20
217.0477868423379
30
0
40
1.6999999999999993
210
0
220
0
230
-1
0
CIRCLE
5
108
100
AcDbEntity
8
INTERIOR_PROFILES
100
AcDbCircle
10
323.00000000000227
20
192.78584013181518
30
0
40
1.7000000000000171
210
0
220
0
230
-1
0
CIRCLE
5
109
100
AcDbEntity
8
INTERIOR_PROFILES
100
AcDbCircle
10
-318
20
217.0477868423379
30
0
40
1.7000000000000171
210
0
220
0
230
-1
0
CIRCLE
5
110
100
AcDbEntity
8
INTERIOR_PROFILES
100
AcDbCircle
10
-333
20
50.785840131753218
30
0
40
1.6999999999999993
210
0
220
0
230
-1
0
CIRCLE
5
111
100
AcDbEntity
8
INTERIOR_PROFILES
100
AcDbCircle
10
82.000000000000028
20
217.0477868423379
30
0
40
1.6999999999999993
210
0
220
0
230
-1
0
CIRCLE
5
112
100
AcDbEntity
8
INTERIOR_PROFILES
100
AcDbCircle
10
182.00000000000003
20
217.0477868423379
30
0
40
1.7000000000000171
210
0
220
0
230
-1
0
CIRCLE
5
113
100
AcDbEntity
8
INTERIOR_PROFILES
100
AcDbCircle
10
-358.99999999999989
20
441.79778684233793
30
0
40
6.4999999999999858
210
0
220
0
230
-1
0
CIRCLE
5
114
100
AcDbEntity
8
INTERIOR_PROFILES
100
AcDbCircle
10
-17.999999999999972
20
2.9999999999999716
30
0
40
1.7000000000000171
210
0
220
0
230
-1
0
CIRCLE
5
115
100
AcDbEntity
8
INTERIOR_PROFILES
100
AcDbCircle
10
323
20
432.04778684233787
30
0
40
1.7000000000000171
210
0
220
0
230
-1
0
CIRCLE
5
116
100
AcDbEntity
8
INTERIOR_PROFILES
100
AcDbCircle
10
-376.26194671058789
20
122.54778684233801
30
0
40
1.7000000000000171
210
0
220
0
230
-1
0
CIRCLE
5
117
100
AcDbEntity
8
INTERIOR_PROFILES
100
AcDbCircle
10
-117.99999999999997
20
2.9999999999999716
30
0
40
1.7000000000000171
210
0
220
0
230
-1
0
CIRCLE
5
118
100
AcDbEntity
8
INTERIOR_PROFILES
100
AcDbCircle
10
340.26194671058414
20
277.54778684233793
30
0
40
1.6999999999999815
210
0
220
0
230
-1
0
CIRCLE
5
119
100
AcDbEntity
8
INTERIOR_PROFILES
100
AcDbCircle
10
-358.99999999999989
20
78.547786842337899
30
0
40
1.7000000000000171
210
0
220
0
230
-1
0
CIRCLE
5
120
100
AcDbEntity
8
INTERIOR_PROFILES
100
AcDbCircle
10
-17.999999999999972
20
473.49594334665892
30
0
40
8.75
210
0
220
0
230
-1
0
CIRCLE
5
121
100
AcDbEntity
8
INTERIOR_PROFILES
100
AcDbCircle
10
-373.76194671058789
20
200.04778684233804
30
0
40
4.4999999999999929
210
0
220
0
230
-1
0
CIRCLE
5
122
100
AcDbEntity
8
INTERIOR_PROFILES
100
AcDbCircle
10
323
20
441.79778684233793
30
0
40
6.5000000000000568
210
0
220
0
230
-1
0
CIRCLE
5
123
100
AcDbEntity
8
INTERIOR_PROFILES
100
AcDbCircle
10
-343
20
2.9999999999999716
30
0
40
1.7000000000000171
210
0
220
0
230
-1
0
CIRCLE
5
124
100
AcDbEntity
8
INTERIOR_PROFILES
100
AcDbCircle
10
-217.99999999999997
20
75.047786842337871
30
0
40
1.7000000000000171
210
0
220
0
230
-1
0
CIRCLE
5
125
100
AcDbEntity
8
INTERIOR_PROFILES
100
AcDbCircle
10
340.26194671058414
20
432.54778684233793
30
0
40
1.7000000000000171
210
0
220
0
230
-1
0
CIRCLE
5
126
100
AcDbEntity
8
INTERIOR_PROFILES
100
AcDbCircle
10
-318
20
2.9999999999999716
30
0
40
1.7000000000000171
210
0
220
0
230
-1
0
CIRCLE
5
127
100
AcDbEntity
8
INTERIOR_PROFILES
100
AcDbCircle
10
301.99999999999977
20
459.73399663607847
30
0
40
1.25
210
0
220
0
230
-1
0
CIRCLE
5
128
100
AcDbEntity
8
INTERIOR_PROFILES
100
AcDbCircle
10
337.76194671058414
20
355.04778684233793
30
0
40
4.5000000000000284
210
0
220
0
230
-1
0
CIRCLE
5
129
100
AcDbEntity
8
INTERIOR_PROFILES
100
AcDbCircle
10
-376.26194671058789
20
432.54778684233798
30
0
40
1.7000000000000171
210
0
220
0
230
-1
0
CIRCLE
5
130
100
AcDbEntity
8
INTERIOR_PROFILES
100
AcDbCircle
10
-358.99999999999989
20
265.04778684233793
30
0
40
1.7000000000000171
210
0
220
0
230
-1
0
CIRCLE
5
131
100
AcDbEntity
8
INTERIOR_PROFILES
100
AcDbCircle
10
-376.26194671058789
20
277.54778684233804
30
0
40
1.6999999999999815
210
0
220
0
230
-1
0
CIRCLE
5
132
100
AcDbEntity
8
INTERIOR_PROFILES
100
AcDbCircle
10
323
20
265.04778684233793
30
0
40
1.7000000000000171
210
0
220
0
230
-1
0
CIRCLE
5
133
100
AcDbEntity
8
INTERIOR_PROFILES
100
AcDbCircle
10
-17.999999999999972
20
75.047786842337871
30
0
40
1.7000000000000171
210
0
220
0
230
-1
0
CIRCLE
5
134
100
AcDbEntity
8
INTERIOR_PROFILES
100
AcDbCircle
10
-358.99999999999989
20
98.047786842337928
30
0
40
1.7000000000000171
210
0
220
0
230
-1
0
CIRCLE
5
135
100
AcDbEntity
8
INTERIOR_PROFILES
100
AcDbCircle
10
-358.99999999999989
20
451.54778684233793
30
0
40
1.7000000000000171
210
0
220
0
230
-1
0
CIRCLE
5
136
100
AcDbEntity
8
INTERIOR_PROFILES
100
AcDbCircle
10
-318
20
75.047786842337871
30
0
40
1.7000000000000171
210
0
220
0
230
-1
0
CIRCLE
5
137
100
AcDbEntity
8
INTERIOR_PROFILES
100
AcDbCircle
10
-286.99999999999994
20
50.785840131753218
30
0
40
1.6999999999999993
210
0
220
0
230
-1
0
CIRCLE
5
138
100
AcDbEntity
8
INTERIOR_PROFILES
100
AcDbCircle
10
-338
20
459.73399663607336
30
0
40
1.25
210
0
220
0
230
-1
0
CIRCLE
5
139
100
AcDbEntity
8
INTERIOR_PROFILES
100
AcDbCircle
10
-358.99999999999989
20
432.04778684233787
30
0
40
1.7000000000000171
210
0
220
0
230
-1
0
CIRCLE
5
140
100
AcDbEntity
8
INTERIOR_PROFILES
100
AcDbCircle
10
-217.99999999999997
20
2.9999999999999716
30
0
40
1.7000000000000171
210
0
220
0
230
-1
0
CIRCLE
5
141
100
AcDbEntity
8
INTERIOR_PROFILES
100
AcDbCircle
10
323
20
451.54778684233793
30
0
40
1.7000000000000171
210
0
220
0
230
-1
0
CIRCLE
5
142
100
AcDbEntity
8
INTERIOR_PROFILES
100
AcDbCircle
10
-373.76194671058789
20
355.04778684233798
30
0
40
4.5000000000000284
210
0
220
0
230
-1
0
CIRCLE
5
143
100
AcDbEntity
8
INTERIOR_PROFILES
100
AcDbCircle
10
-117.99999999999997
20
75.047786842337871
30
0
40
1.7000000000000171
210
0
220
0
230
-1
0
LINE
5
144
100
AcDbEntity
8
BEND
100
AcDbLine
10
365.99999999999994
20
14.130973355291552
30
8.4302894587031381e-13
11
0
21
14.130973355291552
31
1.7605361612993339e-12
0
LINE
5
145
100
AcDbEntity
8
BEND
100
AcDbLine
10
365.99999999999994
20
24.392920065875785
30
1.245583036916978e-12
11
0
21
24.392920065875785
31
1.5765166949677227e-12
0
LINE
5
146
100
AcDbEntity
8
BEND
100
AcDbLine
10
365.99999999999994
20
462.36496999136619
30
1.977517214992453e-12
11
-330
21
462.36496999136619
31
1.9770695659849353e-12
0
LINE
5
147
100
AcDbEntity
8
BEND
100
AcDbLine
10
365.99999999999994
20
456.62842719326471
30
1.9509624074638007e-12
11
-330
21
456.62842719326471
31
1.9510305579218804e-12
0
LINE
5
148
100
AcDbEntity
8
BEND
100
AcDbLine
10
365.99999999999994
20
42.654866776460665
30
1.8115720357772569e-12
11
0
21
42.654866776460665
31
2.0053403382291854e-12
0
LINE
5
149
100
AcDbEntity
8
BEND
100
AcDbLine
10
-1.1309733552923182
20
207.0477868423379
30
1.9409474028009299e-12
11
-1.1309733552923182
21
68.047786842337928
31
1.971418972003091e-12
0
LINE
5
150
100
AcDbEntity
8
BEND
100
AcDbLine
10
-331.13097335529233
20
454.8117188648381
30
1.8859913630819847e-12
11
-331.13097335529233
21
210.04778684233787
31
1.9426127373378677e-12
0
LINE
5
151
100
AcDbEntity
8
BEND
100
AcDbLine
10
-330.00000000000011
20
208.91681348704563
30
1.9805973216744439e-12
11
-2.9999999999999716
21
208.91681348704563
31
1.9874531883032338e-12
0
LINE
5
152
100
AcDbEntity
8
BEND
100
AcDbLine
10
367.13097335529227
20
68.047786842337928
30
1.8857138073258284e-12
11
367.13097335529227
21
454.81171886483821
31
1.8848811400573595e-12
0
LINE
5
153
100
AcDbEntity
8
BEND
100
AcDbLine
10
366.00000000000011
20
455.41728830764714
30
1.9426127373378677e-12
11
-330
21
455.41728830764714
31
1.942817683673922e-12
0
LINE
5
154
100
AcDbEntity
8
BEND
100
AcDbLine
10
366.00000000000011
20
66.916813487045516
30
1.8918347711981106e-12
11
0
21
66.916813487045516
31
1.973698982027372e-12
0
LINE
5
155
100
AcDbEntity
8
BEND_EXTENT
100
AcDbLine
10
-2.9999999999999716
20
207.78584013175322
30
1.978417429882029e-12
11
-330.00000000000011
21
207.78584013175322
31
2.013944566670034e-12
0
LINE
5
156
100
AcDbEntity
8
BEND_EXTENT
100
AcDbLine
10
-330.00000000000011
20
210.04778684233787
30
1.936527115621257e-12
11
-2.9999999999999716
21
210.04778684233793
31
1.936527115621257e-12
0
LINE
5
157
100
AcDbEntity
8
BEND_EXTENT
100
AcDbLine
10
-330.00000000000011
20
454.8117188648381
30
1.9428637027310905e-12
11
-330.00000000000011
21
210.04778684233787
31
1.936527115621257e-12
0
LINE
5
158
100
AcDbEntity
8
BEND_EXTENT
100
AcDbLine
10
366.00000000000011
20
454.81171886483816
30
1.9428637027310905e-12
11
-330.00000000000011
21
454.8117188648381
31
1.9428637027310905e-12
0
LINE
5
159
100
AcDbEntity
8
BEND_EXTENT
100
AcDbLine
10
366.00000000000011
20
68.047786842337928
30
1.9428449633641847e-12
11
366.00000000000011
21
454.81171886483816
31
1.9428637027310905e-12
0
LINE
5
160
100
AcDbEntity
8
BEND_EXTENT
100
AcDbLine
10
-3.3818550397842089e-31
20
68.047786842337928
30
1.9192192951982476e-12
11
366.00000000000011
21
68.047786842337928
31
1.9428449633641847e-12
0
LINE
5
161
100
AcDbEntity
8
BEND_EXTENT
100
AcDbLine
10
-1.0289909986804651e-30
20
207.0477868423379
30
1.9361555935893026e-12
11
-3.3818550397842089e-31
21
68.047786842337928
31
1.9192192951982476e-12
0
LINE
5
162
100
AcDbEntity
8
BEND_EXTENT
100
AcDbLine
10
-2.261946710584652
20
68.047786842337928
30
1.9428902930940239e-12
11
-2.2619467105846431
21
207.0477868423379
31
1.9428902930940239e-12
0
LINE
5
163
100
AcDbEntity
8
BEND_EXTENT
100
AcDbLine
10
366.00000000000011
20
65.785840131753218
30
2.084998840246044e-12
11
0
21
65.785840131753218
31
2.084998840246044e-12
0
LINE
5
164
100
AcDbEntity
8
BEND_EXTENT
100
AcDbLine
10
-2.1760790613784457e-31
20
43.785840131753204
30
1.8718360195180139e-12
11
365.99999999999994
21
43.785840131753204
31
1.8718360195180139e-12
0
LINE
5
165
100
AcDbEntity
8
BEND_EXTENT
100
AcDbLine
10
365.99999999999994
20
41.523893421168339
30
1.7252865802674933e-12
11
0
21
41.523893421168339
31
1.7252865802674933e-12
0
LINE
5
166
100
AcDbEntity
8
BEND_EXTENT
100
AcDbLine
10
-1.2684925051462221e-31
20
25.523893421168395
30
1.3167245072054357e-12
11
365.99999999999994
21
25.523893421168395
31
1.2989609388114332e-12
0
LINE
5
167
100
AcDbEntity
8
BEND_EXTENT
100
AcDbLine
10
365.99999999999994
20
23.261946710583246
30
1.1612932837579137e-12
11
0
21
23.261946710583246
31
1.1612932837579137e-12
0
LINE
5
168
100
AcDbEntity
8
BEND_EXTENT
100
AcDbLine
10
-7.5849184514537334e-32
20
15.261946710583238
30
8.7707618945387367e-13
11
365.99999999999994
21
15.261946710583238
31
8.7707618945387367e-13
0
LINE
5
169
100
AcDbEntity
8
BEND_EXTENT
100
AcDbLine
10
365.99999999999994
20
12.999999999999972
30
8.0158102377936302e-13
11
0
21
12.999999999999972
31
8.0158102377936302e-13
0
LINE
5
170
100
AcDbEntity
8
BEND_EXTENT
100
AcDbLine
10
-332.26194671058471
20
210.04778684233793
30
2.084998840246044e-12
11
-332.2619467105846
21
454.8117188648381
31
2.084998840246044e-12
0
LINE
5
171
100
AcDbEntity
8
BEND_EXTENT
100
AcDbLine
10
368.26194671058465
20
454.81171886483816
30
1.8524155051055237e-12
11
368.26194671058465
21
68.047786842337885
31
1.8524155051055237e-12
0
LINE
5
172
100
AcDbEntity
8
BEND_EXTENT
100
AcDbLine
10
-330.00000000000011
20
456.02285775045618
30
1.9562129693895258e-12
11
366.00000000000011
21
456.02285775045618
31
1.9562129693895258e-12
0
LINE
5
173
100
AcDbEntity
8
BEND_EXTENT
100
AcDbLine
10
-330
20
457.23399663607336
30
1.9656498650988397e-12
11
365.99999999999994
21
457.23399663607336
31
1.9655110872207615e-12
0
LINE
5
174
100
AcDbEntity
8
BEND_EXTENT
100
AcDbLine
10
365.99999999999994
20
461.23399663607347
30
1.9868828804447958e-12
11
-330
21
461.23399663607347
31
1.9870216583228739e-12
0
LINE
5
175
100
AcDbEntity
8
BEND_EXTENT
100
AcDbLine
10
-330
20
463.49594334665903
30
1.9956366048766262e-12
11
365.99999999999994
21
463.49594334665903
31
1.9956366048766262e-12
0
ENDSEC
0
SECTION
2
OBJECTS
0
DICTIONARY
5
C
100
AcDbDictionary
3
ACAD_GROUP
350
D
3
ACAD_MLINESTYLE
350
17
0
DICTIONARY
5
D
100
AcDbDictionary
0
DICTIONARY
5
1A
330
C
100
AcDbDictionary
0
DICTIONARY
5
17
100
AcDbDictionary
0
ENDSEC
0
EOF
