0
SECTION
2
HEADER
9
$INSUNITS
70
4
9
$ACADVER
1
AC1014
9
$HANDSEED
5
FFFF
0
ENDSEC
0
SECTION
2
TABLES
0
TABLE
2
VPORT
5
8
100
AcDbSymbolTable
0
ENDTAB
0
TABLE
2
LTYPE
5
5
100
AcDbSymbolTable
0
LTYPE
5
14
100
AcDbSymbolTableRecord
100
AcDbLinetypeTableRecord
2
BYBLOCK
70
0
0
LTYPE
5
15
100
AcDbSymbolTableRecord
100
AcDbLinetypeTableRecord
2
BYLAYER
70
0
0
LTYPE
5
16
100
AcDbSymbolTableRecord
100
AcDbLinetypeTableRecord
2
DASHED
70
0
3
Dashed __ __ __ __ __ __ __ __ __ __ __ __ __ _
72
65
73
2
40
0.75
49
0.5
74
0
49
-0.25
74
0
0
ENDTAB
0
TABLE
2
LAYER
5
2
100
AcDbSymbolTable
70
2
0
LAYER
5
50
100
AcDbSymbolTableRecord
100
AcDbLayerTableRecord
2
0
70
0
62
7
6
CONTINUOUS
0
ENDTAB
0
TABLE
2
STYLE
5
3
100
AcDbSymbolTable
70
1
0
STYLE
5
11
100
AcDbSymbolTableRecord
100
AcDbTextStyleTableRecord
2
STANDARD
70
0
0
ENDTAB
0
TABLE
2
VIEW
5
6
100
AcDbSymbolTable
70
0
0
ENDTAB
0
TABLE
2
UCS
5
7
100
AcDbSymbolTable
70
0
0
ENDTAB
0
TABLE
2
APPID
5
9
100
AcDbSymbolTable
70
2
0
APPID
5
12
100
AcDbSymbolTableRecord
100
AcDbRegAppTableRecord
2
ACAD
70
0
0
ENDTAB
0
TABLE
2
DIMSTYLE
5
A
100
AcDbSymbolTable
70
1
0
ENDTAB
0
TABLE
2
BLOCK_RECORD
5
1
100
AcDbSymbolTable
70
1
0
BLOCK_RECORD
5
1F
100
AcDbSymbolTableRecord
100
AcDbBlockTableRecord
2
*MODEL_SPACE
0
BLOCK_RECORD
5
1B
100
AcDbSymbolTableRecord
100
AcDbBlockTableRecord
2
*PAPER_SPACE
0
ENDTAB
0
ENDSEC
0
SECTION
2
BLOCKS
0
BLOCK
5
20
100
AcDbEntity
100
AcDbBlockBegin
2
*MODEL_SPACE
0
ENDBLK
5
21
100
AcDbEntity
100
AcDbBlockEnd
0
BLOCK
5
1C
100
AcDbEntity
100
AcDbBlockBegin
2
*PAPER_SPACE
0
ENDBLK
5
1D
100
AcDbEntity
100
AcDbBlockEnd
0
ENDSEC
0
SECTION
2
ENTITIES
0
LINE
5
100
100
AcDbEntity
8
OUTER_PROFILES
100
AcDbLine
10
789.1912360324601
20
405.19123603247681
30
0
11
772.19123603245998
21
405.1912360324763
31
0
0
SPLINE
5
101
100
AcDbEntity
8
OUTER_PROFILES
100
AcDbSpline
70
0
71
3
72
185
73
181
74
0
42
0.000000001
43
0.0000000001
44
0.0000000001
40
0.010030481271696926
40
0.010030481271696926
40
0.010030481271696926
40
0.010030481271696926
40
0.014143720042382372
40
0.014143720042382372
40
0.014143720042382372
40
0.017690941866874494
40
0.017690941866874494
40
0.017690941866874494
40
0.021244223312703144
40
0.021244223312703144
40
0.021244223312703144
40
0.024793326176910043
40
0.024793326176910043
40
0.024793326176910043
40
0.028348045408303112
40
0.028348045408303112
40
0.028348045408303112
40
0.031908495034793045
40
0.031908495034793045
40
0.031908495034793045
40
0.035460000644581838
40
0.035460000644581838
40
0.035460000644581838
40
0.039017360394189564
40
0.039017360394189564
40
0.039017360394189564
40
0.042580519521086768
40
0.042580519521086768
40
0.042580519521086768
40
0.046129800888092355
40
0.046129800888092355
40
0.046129800888092355
40
0.049684717908678941
40
0.049684717908678941
40
0.049684717908678941
40
0.053245268932038292
40
0.053245268932038292
40
0.053245268932038292
40
0.056787216178091002
40
0.056787216178091002
40
0.056787216178091002
40
0.060334672688123016
40
0.060334672688123016
40
0.060334672688123016
40
0.063887565396398074
40
0.063887565396398074
40
0.063887565396398074
40
0.067417191786878633
40
0.067417191786878633
40
0.067417191786878633
40
0.070951971874057107
40
0.070951971874057107
40
0.070951971874057107
40
0.074491786071654423
40
0.074491786071654423
40
0.074491786071654423
40
0.078006966782743686
40
0.078006966782743686
40
0.078006966782743686
40
0.081539095529701969
40
0.081539095529701969
40
0.081539095529701969
40
0.085088631370435083
40
0.085088631370435083
40
0.085088631370435083
40
0.088618652830050826
40
0.088618652830050826
40
0.088618652830050826
40
0.092165428904515498
40
0.092165428904515498
40
0.092165428904515498
40
0.095728783920494262
40
0.095728783920494262
40
0.095728783920494262
40
0.099268174736285839
40
0.099268174736285839
40
0.099268174736285839
40
0.10282335745457021
40
0.10282335745457021
40
0.10282335745457021
40
0.1063940804646286
40
0.1063940804646286
40
0.1063940804646286
40
0.10993676382026323
40
0.10993676382026323
40
0.10993676382026323
40
0.11349402615503593
40
0.11349402615503593
40
0.11349402615503593
40
0.11706551696098082
40
0.11706551696098082
40
0.11706551696098082
40
0.12060537173971551
40
0.12060537173971551
40
0.12060537173971551
40
0.12415828524075158
40
0.12415828524075158
40
0.12415828524075158
40
0.12772378077409527
40
0.12772378077409527
40
0.12772378077409527
40
0.13125463872621554
40
0.13125463872621554
40
0.13125463872621554
40
0.13479663489896543
40
0.13479663489896543
40
0.13479663489896543
40
0.13833623881637686
40
0.13833623881637686
40
0.13833623881637686
40
0.14181711668764152
40
0.14181711668764152
40
0.14181711668764152
40
0.14528610303306583
40
0.14528610303306583
40
0.14528610303306583
40
0.1487433909941534
40
0.1487433909941534
40
0.1487433909941534
40
0.15214480938050629
40
0.15214480938050629
40
0.15214480938050629
40
0.1555347911170282
40
0.1555347911170282
40
0.1555347911170282
40
0.15891310114329546
40
0.15891310114329546
40
0.15891310114329546
40
0.16223831414897272
40
0.16223831414897272
40
0.16223831414897272
40
0.16555121459257582
40
0.16555121459257582
40
0.16555121459257582
40
0.16885113018853704
40
0.16885113018853704
40
0.16885113018853704
40
0.1721007571229862
40
0.1721007571229862
40
0.1721007571229862
40
0.17533609613978562
40
0.17533609613978562
40
0.17533609613978562
40
0.17855619471611592
40
0.17855619471611592
40
0.17855619471611592
40
0.18173577596678292
40
0.18173577596678292
40
0.18173577596678292
40
0.18491534860469144
40
0.18491534860469144
40
0.18491534860469144
40
0.18809396559001909
40
0.18809396559001909
40
0.18809396559001909
40
0.1912462131375037
40
0.1912462131375037
40
0.1912462131375037
40
0.19439564265234999
40
0.19439564265234999
40
0.19439564265234999
40
0.1975412584323061
40
0.1975412584323061
40
0.1975412584323061
40
0.20066481156537672
40
0.20066481156537672
40
0.20066481156537672
40
0.20378131228682478
40
0.20378131228682478
40
0.20378131228682478
40
0.20688886641221652
40
0.20688886641221652
40
0.20688886641221652
40
0.20997770003364477
40
0.20997770003364477
40
0.20997770003364477
40
0.21305625637939718
40
0.21305625637939718
40
0.21305625637939718
40
0.21612600771040369
40
0.21612600771040369
40
0.21612600771040369
40
0.21612600771040369
10
770.03119772606033
20
404.26194671059471
30
0
10
770.04510023528178
20
404.2715770361807
30
0
10
770.05899279011601
20
404.28119058253634
30
0
10
770.07287696020035
20
404.29078446585578
30
0
10
770.08485054935545
20
404.29905814851554
30
0
10
770.0968179019834
20
404.3073172072348
30
0
10
770.10878000849391
20
404.31555978751692
30
0
10
770.12076254954138
20
404.3238164483717
30
0
10
770.13273982624264
20
404.33205657450344
30
0
10
770.14471281811484
20
404.34027830011496
30
0
10
770.15667173000907
20
404.34849035715609
30
0
10
770.16862636717519
20
404.35668405675301
30
0
10
770.18057768805284
20
404.36485754133093
30
0
10
770.19254792159904
20
404.37304396024535
30
0
10
770.20451482843259
20
404.3812100998947
30
0
10
770.21647935435612
20
404.38935409752816
30
0
10
770.22846316772711
20
404.39751122371575
30
0
10
770.24044459227161
20
404.40564613644312
30
0
10
770.25242456624608
20
404.41375696643252
30
0
10
770.26437444596343
20
404.42184742163596
30
0
10
770.2763228819199
20
404.4299139151164
30
0
10
770.28827080283327
20
404.43795458978855
30
0
10
770.30023841815421
20
404.4460085183419
30
0
10
770.31220551637728
20
404.45403654299571
30
0
10
770.32417303292573
20
404.46203679470909
30
0
10
770.33616005948966
20
404.47005008881399
30
0
10
770.34814750548571
20
404.47803551937386
30
0
10
770.36013631436754
20
404.48599120688698
30
0
10
770.37207842934527
20
404.49391590866043
30
0
10
770.38402189648787
20
404.50181109854714
30
0
10
770.39596765163606
20
404.50967492012404
30
0
10
770.40793237460639
20
404.51755122810857
30
0
10
770.41989939269001
20
404.52539606803771
30
0
10
770.4318696524582
20
404.53320757627205
30
0
10
770.44385888326758
20
404.54103146455884
30
0
10
770.4558513657862
20
404.54882191543709
30
0
10
770.4678480624907
20
404.55657705684257
30
0
10
770.47978207679773
20
404.56429167785592
30
0
10
770.49172026105248
20
404.571971357503
30
0
10
770.50366357993948
20
404.57961425129474
30
0
10
770.51562547586684
20
404.58726903310082
30
0
10
770.52759252209603
20
404.59488691461127
30
0
10
770.53956570902687
20
404.60246604044198
30
0
10
770.55155724392546
20
404.61005678068722
30
0
10
770.56355493807064
20
404.61760864645169
30
0
10
770.5755598106141
20
404.62511977159386
30
0
10
770.58748606857432
20
404.63258170971039
30
0
10
770.5994194110026
20
404.64000343909396
30
0
10
770.6113608633608
20
404.6473831280282
30
0
10
770.62331975173549
20
404.6547735922328
30
0
10
770.63528677346449
20
404.66212189321186
30
0
10
770.64726298850258
20
404.66942618831717
30
0
10
770.65925625964792
20
404.67674088594464
30
0
10
770.67125874999749
20
404.68401145239147
30
0
10
770.68327155873715
20
404.6912360324763
30
0
10
770.69520077061406
20
404.69841033687254
30
0
10
770.70713868370319
20
404.70553832349981
30
0
10
770.71905883744216
20
404.71260211601935
30
0
10
770.73103646281936
20
404.7196999657948
30
0
10
770.74300346205575
20
404.72673741177368
30
0
10
770.75496105005664
20
404.73371325757284
30
0
10
770.76697756763542
20
404.74072348184762
30
0
10
770.77898458074503
20
404.74767149740813
30
0
10
770.79098330685997
20
404.75455609053972
30
0
10
770.80291606724722
20
404.76140283405368
30
0
10
770.81484063124719
20
404.76818685069622
30
0
10
770.82675818375242
20
404.77490694630353
30
0
10
770.83873230078666
20
404.7816589376414
30
0
10
770.85069933935415
20
404.78834639985649
30
0
10
770.86266049129631
20
404.79496812040475
30
0
10
770.87467755408113
20
404.80162079332092
30
0
10
770.88668867480021
20
404.80820710868727
30
0
10
770.89869505498314
20
404.81472583433504
30
0
10
770.9106206901107
20
404.82120072038617
30
0
10
770.92254164795929
20
404.82760892292953
30
0
10
770.93445910217702
20
404.83394923058307
30
0
10
770.94642972918177
20
404.84031782714993
30
0
10
770.95839682092458
20
404.84661792180646
30
0
10
770.9703615658409
20
404.85284828164197
30
0
10
770.98237861063649
20
404.85910587541093
30
0
10
770.99439328773383
20
404.86529312359977
30
0
10
771.00640680310619
20
404.87140877024723
30
0
10
771.01832598049202
20
404.8774763928339
30
0
10
771.03024401403661
20
404.88347353419982
30
0
10
771.04216208608477
20
404.88939895951995
30
0
10
771.05412920381559
20
404.89534876936546
30
0
10
771.06609636004521
20
404.9012262719632
30
0
10
771.07806475846371
20
404.90703020766534
30
0
10
771.09008102853068
20
404.91285735816695
30
0
10
771.10209855040057
20
404.91861035239907
30
0
10
771.11411855122924
20
404.92428790430608
30
0
10
771.12603207969289
20
404.92991516483721
30
0
10
771.13794804309782
20
404.93546831394673
30
0
10
771.14986764730429
20
404.94094608643002
30
0
10
771.16183122359757
20
404.94644406672245
30
0
10
771.17379846727272
20
404.95186611360657
30
0
10
771.18577061102246
20
404.95721093207032
30
0
10
771.19778515206099
20
404.96257467828974
30
0
10
771.20980462761759
20
404.96786064856593
30
0
10
771.22183029935229
20
404.9730675149442
30
0
10
771.23373914576007
20
404.97822379837953
30
0
10
771.24565406831084
20
404.98330250776434
30
0
10
771.25757630896942
20
404.98830233193814
30
0
10
771.26953615877255
20
404.99331792824034
30
0
10
771.28149909588376
20
404.99825240935024
30
0
10
771.29347963428017
20
405.00310979265987
30
0
10
771.30545208105104
20
405.00796389530501
30
0
10
771.31747292063449
20
405.0127534362752
30
0
10
771.32954204747546
20
405.01747480679222
30
0
10
771.34141093380492
20
405.02211784441408
30
0
10
771.35332651759563
20
405.02669495534582
30
0
10
771.36528883893016
20
405.03120273503777
30
0
10
771.37721029406418
20
405.03569511505737
30
0
10
771.38917816680032
20
405.04011863733115
30
0
10
771.4011926500234
20
405.0444699549758
30
0
10
771.41316661707606
20
405.04880659877023
30
0
10
771.42518687965458
20
405.05307152483141
30
0
10
771.43725379559851
20
405.05726143626077
30
0
10
771.44912571087434
20
405.06138363896218
30
0
10
771.46104278325083
20
405.06543323268727
30
0
10
771.47300552407614
20
405.06940708715575
30
0
10
771.48492804236412
20
405.07336758026224
30
0
10
771.49689592143386
20
405.07725284360754
30
0
10
771.5089098427195
20
405.08105978679362
30
0
10
771.5208824000631
20
405.08485362267072
30
0
10
771.53290068199215
20
405.0885696780615
30
0
10
771.54496554372167
20
405.0922049003787
30
0
10
771.55684078158401
20
405.09578298777558
30
0
10
771.56876114600482
20
405.09928276434778
30
0
10
771.5807276332614
20
405.10270131608337
30
0
10
771.59264981114109
20
405.10610720964326
30
0
10
771.60461777026717
20
405.1094324802221
30
0
10
771.61663268710845
20
405.1126742211527
30
0
10
771.62860051172106
20
405.11590325614395
30
0
10
771.64061492645283
20
405.1190494163593
30
0
10
771.65267729184461
20
405.12210978112046
30
0
10
771.66455583428933
20
405.12512350782578
30
0
10
771.67648087756834
20
405.12805403514528
30
0
10
771.68845390809554
20
405.130898513587
30
0
10
771.70037429575711
20
405.13373048546276
30
0
10
771.71234224954844
20
405.13647716516641
30
0
10
771.72435940612377
20
405.13913568821647
30
0
10
771.73631995448636
20
405.1417816879848
30
0
10
771.7483292429074
20
405.1443403619935
30
0
10
771.76038903996766
20
405.14680883826247
30
0
10
771.77229709300104
20
405.14924625459508
30
0
10
771.78423696232232
20
405.15159203635926
30
0
10
771.79618795671581
20
405.15384036529804
30
0
10
771.80813891873697
20
405.15608868814667
30
0
10
771.82010758951969
20
405.15824091571596
30
0
10
771.83209463368576
20
405.16029560977506
30
0
10
771.84407807502498
20
405.16234968627532
30
0
10
771.8560798789772
20
405.16430628722014
30
0
10
771.86810078809094
20
405.16616394465808
30
0
10
771.88002197313676
20
405.16800619118533
30
0
10
771.89196194818749
20
405.16975112748082
30
0
10
771.9039215100122
20
405.17139730338755
30
0
10
771.91587038027944
20
405.17304200765295
30
0
10
771.92783880124398
20
405.17458812913475
30
0
10
771.9398276277434
20
405.17603426398034
30
0
10
771.95180193662748
20
405.1774786476596
30
0
10
771.96379659948775
20
405.17882329150183
30
0
10
771.97581253621388
20
405.18006685870154
30
0
10
771.98774419584208
20
405.18130170379857
30
0
10
771.99969683035886
20
405.18243689175017
30
0
10
772.01167142936811
20
405.18347111870952
30
0
10
772.02361899192294
20
405.18450301057356
30
0
10
772.03558842065706
20
405.18543439790187
30
0
10
772.04758080046759
20
405.18626389240296
30
0
10
772.05953875353248
20
405.187091005659
30
0
10
772.0715195279455
20
405.18781680309991
30
0
10
772.08352428433682
20
405.18843982965745
30
0
10
772.09545672176603
20
405.18905910298315
30
0
10
772.10741285377946
20
405.18957682661318
30
0
10
772.11939388584949
20
405.18999163101341
30
0
10
772.13133505420899
20
405.19040505526198
30
0
10
772.1433009557461
20
405.19071623328898
30
0
10
772.15529286095557
20
405.19092399141823
30
0
10
772.16725046797774
20
405.19113115533617
30
0
10
772.17924270530477
20
405.19123543574716
30
0
10
772.19123603245998
20
405.1912360324763
30
0
0
SPLINE
5
102
100
AcDbEntity
8
OUTER_PROFILES
100
AcDbSpline
70
0
71
3
72
14
73
10
74
0
42
0.000000001
43
0.0000000001
44
0.0000000001
40
0
40
0
40
0
40
0
40
0.0035294939526731117
40
0.0035294939526731117
40
0.0035294939526731117
40
0.0070633765321530409
40
0.0070633765321530409
40
0.0070633765321530409
40
0.010030481271699624
40
0.010030481271699624
40
0.010030481271699624
40
0.010030481271699624
10
769.92928932187533
20
404.19123603247613
30
0
10
769.94126879151065
20
404.19955515039447
30
0
10
769.9532379585421
20
404.20786709633029
30
0
10
769.96519790245588
20
404.21617004186311
30
0
10
769.97717271754709
20
404.22448331140549
30
0
10
769.98913828736988
20
404.23278755747629
30
0
10
770.00109565939727
20
404.2410809492693
30
0
10
770.01113526156792
20
404.2480442146134
30
0
10
770.02116908359596
20
404.25499982851898
30
0
10
770.03119772606055
20
404.26194671059477
30
0
0
ARC
5
103
100
AcDbEntity
8
OUTER_PROFILES
100
AcDbCircle
10
769.89393398281618
20
404.22659137153551
30
0
40
0.050000000000042608
210
0
220
0
230
1
100
AcDbArc
50
134.99999999990789
51
314.99999999981577
0
SPLINE
5
104
100
AcDbEntity
8
OUTER_PROFILES
100
AcDbSpline
70
0
71
3
72
14
73
10
74
0
42
0.000000001
43
0.0000000001
44
0.0000000001
40
0.18027200165687407
40
0.18027200165687407
40
0.18027200165687407
40
0.18027200165687407
40
0.18319469145229916
40
0.18319469145229916
40
0.18319469145229916
40
0.18668329103449577
40
0.18668329103449577
40
0.18668329103449577
40
0.19017594524714093
40
0.19017594524714093
40
0.19017594524714093
40
0.19017594524714093
10
769.92928932187567
20
404.36385511462981
30
0
10
769.92233555436894
20
404.35381653200034
30
0
10
769.91537991279472
20
404.34378268244393
30
0
10
769.90842356101882
20
404.3337530481142
30
0
10
769.90012027616899
20
404.32178141219606
30
0
10
769.89181597903689
20
404.30981578215176
30
0
10
769.88351265364213
20
404.29785529117652
30
0
10
769.87519967769413
20
404.28588089910147
30
0
10
769.86688767647706
20
404.27391165724873
30
0
10
769.85857864375691
20
404.261946710595
30
0
0
SPLINE
5
105
100
AcDbEntity
8
OUTER_PROFILES
100
AcDbSpline
70
0
71
3
72
185
73
181
74
0
42
0.000000001
43
0.0000000001
44
0.0000000001
40
0
40
0
40
0
40
0
40
0.0025011934855998378
40
0.0025011934855998378
40
0.0025011934855998378
40
0.0050092895129586019
40
0.0050092895129586019
40
0.0050092895129586019
40
0.0075248866794355908
40
0.0075248866794355908
40
0.0075248866794355908
40
0.010054850272726885
40
0.010054850272726885
40
0.010054850272726885
40
0.012591210369274693
40
0.012591210369274693
40
0.012591210369274693
40
0.015132415096194021
40
0.015132415096194021
40
0.015132415096194021
40
0.017690657278963063
40
0.017690657278963063
40
0.017690657278963063
40
0.020251074771609291
40
0.020251074771609291
40
0.020251074771609291
40
0.022812842339435112
40
0.022812842339435112
40
0.022812842339435112
40
0.025395070241476369
40
0.025395070241476369
40
0.025395070241476369
40
0.027977081407083298
40
0.027977081407083298
40
0.027977081407083298
40
0.030565127360857876
40
0.030565127360857876
40
0.030565127360857876
40
0.033190465964845636
40
0.033190465964845636
40
0.033190465964845636
40
0.035827158940991768
40
0.035827158940991768
40
0.035827158940991768
40
0.038474512196731439
40
0.038474512196731439
40
0.038474512196731439
40
0.041161930351181868
40
0.041161930351181868
40
0.041161930351181868
40
0.043859118413183684
40
0.043859118413183684
40
0.043859118413183684
40
0.046565633234375514
40
0.046565633234375514
40
0.046565633234375514
40
0.049314766147250305
40
0.049314766147250305
40
0.049314766147250305
40
0.052072905030934445
40
0.052072905030934445
40
0.052072905030934445
40
0.054839966177508345
40
0.054839966177508345
40
0.054839966177508345
40
0.057652195053791343
40
0.057652195053791343
40
0.057652195053791343
40
0.060473965663108559
40
0.060473965663108559
40
0.060473965663108559
40
0.063307068323894322
40
0.063307068323894322
40
0.063307068323894322
40
0.066189344633048014
40
0.066189344633048014
40
0.066189344633048014
40
0.069082804259969641
40
0.069082804259969641
40
0.069082804259969641
40
0.07198712560052363
40
0.07198712560052363
40
0.07198712560052363
40
0.074940644667775475
40
0.074940644667775475
40
0.074940644667775475
40
0.077904972293566771
40
0.077904972293566771
40
0.077904972293566771
40
0.080880100047898529
40
0.080880100047898529
40
0.080880100047898529
40
0.083904485194509534
40
0.083904485194509534
40
0.083904485194509534
40
0.086940276528014157
40
0.086940276528014157
40
0.086940276528014157
40
0.089987811673658921
40
0.089987811673658921
40
0.089987811673658921
40
0.093084934341604378
40
0.093084934341604378
40
0.093084934341604378
40
0.096195139416892075
40
0.096195139416892075
40
0.096195139416892075
40
0.099319133721927452
40
0.099319133721927452
40
0.099319133721927452
40
0.10249211616410467
40
0.10249211616410467
40
0.10249211616410467
40
0.10567378558951415
40
0.10567378558951415
40
0.10567378558951415
40
0.10886331390476972
40
0.10886331390476972
40
0.10886331390476972
40
0.11209364888130055
40
0.11209364888130055
40
0.11209364888130055
40
0.11533140941128138
40
0.11533140941128138
40
0.11533140941128138
40
0.11857638576935281
40
0.11857638576935281
40
0.11857638576935281
40
0.1218586859885748
40
0.1218586859885748
40
0.1218586859885748
40
0.12514810209894389
40
0.12514810209894389
40
0.12514810209894389
40
0.128444608243304
40
0.128444608243304
40
0.128444608243304
40
0.13177501752916557
40
0.13177501752916557
40
0.13177501752916557
40
0.13511273771993296
40
0.13511273771993296
40
0.13511273771993296
40
0.13845790729366539
40
0.13845790729366539
40
0.13845790729366539
40
0.14183368225680837
40
0.14183368225680837
40
0.14183368225680837
40
0.14521751402877275
40
0.14521751402877275
40
0.14521751402877275
40
0.14860974554820697
40
0.14860974554820697
40
0.14860974554820697
40
0.15202953620385393
40
0.15202953620385393
40
0.15202953620385393
40
0.15545856350269446
40
0.15545856350269446
40
0.15545856350269446
40
0.15889710791745176
40
0.15889710791745176
40
0.15889710791745176
40
0.16235481358060164
40
0.16235481358060164
40
0.16235481358060164
40
0.1658150293428732
40
0.1658150293428732
40
0.1658150293428732
40
0.16927782219896401
40
0.16927782219896401
40
0.16927782219896401
40
0.17275276061038758
40
0.17275276061038758
40
0.17275276061038758
40
0.17622986453575187
40
0.17622986453575187
40
0.17622986453575187
40
0.18027200165688465
40
0.18027200165688465
40
0.18027200165688465
40
0.18027200165688465
10
770.85857864375657
20
406.52389342117942
30
0
10
770.8585780466201
20
406.51188769247938
30
0
10
770.85847375350738
20
406.49990708020425
30
0
10
770.85826660310408
20
406.48795024971503
30
0
10
770.85805888102777
20
406.47596042196983
30
0
10
770.85774773855928
20
406.46399450994636
30
0
10
770.85733424267403
20
406.45205127459951
30
0
10
770.85691951011756
20
406.44007231977901
30
0
10
770.85640182178406
20
406.42811617899952
30
0
10
770.85578244093767
20
406.41618167305637
30
0
10
770.85515952284391
20
406.40417900985477
30
0
10
770.8544337608829
20
406.39219822866789
30
0
10
770.85360650313089
20
406.38023818918066
30
0
10
770.85277715382426
20
406.36824791114293
30
0
10
770.85184580210228
20
406.3562784779873
30
0
10
770.85081372900481
20
406.34432881814485
30
0
10
770.84977968457349
20
406.33235633359186
30
0
10
770.84864453261162
20
406.32040369721545
30
0
10
770.84740946894715
20
406.30846992516382
30
0
10
770.84616612482341
20
406.29645614337812
30
0
10
770.84482151812972
20
406.28446148135475
30
0
10
770.84337687461971
20
406.27248501696891
30
0
10
770.84193100270863
20
406.2604983688243
30
0
10
770.84038491900958
20
406.24852995144795
30
0
10
770.83873991463417
20
406.23657889950198
30
0
10
770.83709404286924
20
406.22462154592017
30
0
10
770.8353491450041
20
406.21268157714667
30
0
10
770.83350655636707
20
406.20075817766065
30
0
10
770.83164925133678
20
406.18873954832566
30
0
10
770.82969269045725
20
406.17673775346555
30
0
10
770.82763822157426
20
406.16475202306708
30
0
10
770.82558392513124
20
406.15276729867765
30
0
10
770.82343160721712
20
406.1407979418517
30
0
10
770.82118297687191
20
406.12884534575153
30
0
10
770.81892909093062
20
406.11686481352677
30
0
10
770.81658434093606
20
406.10493237471769
30
0
10
770.81415144954281
20
406.09304642868716
30
0
10
770.81168350121106
20
406.08098921118932
30
0
10
770.80912485066824
20
406.06897983613112
30
0
10
770.80647829935072
20
406.05701679468052
30
0
10
770.80382030191788
20
406.04500201406597
30
0
10
770.80107363946877
20
406.03303396934876
30
0
10
770.79824112475785
20
406.02111129667446
30
0
10
770.79539715805049
20
406.00914042004723
30
0
10
770.792466641857
20
405.99721528349892
30
0
10
770.78945239240068
20
405.98533468056405
30
0
10
770.78639252545884
20
405.97327427723712
30
0
10
770.78324637065009
20
405.96125976545181
30
0
10
770.7800168324959
20
405.94929007595988
30
0
10
770.77677555359764
20
405.93727687155763
30
0
10
770.77345028275545
20
405.92530881642921
30
0
10
770.77004392741185
20
405.91338502212153
30
0
10
770.76662579303945
20
405.90141999585092
30
0
10
770.76312601112159
20
405.88949953791791
30
0
10
770.75954751165898
20
405.87762293244106
30
0
10
770.7559126634128
20
405.86555931218879
30
0
10
770.75219659785046
20
405.85354093709674
30
0
10
770.74840239804576
20
405.8415672311898
30
0
10
770.74459576870265
20
405.82955430024367
30
0
10
770.74071049123427
20
405.81758633290173
30
0
10
770.73674969841454
20
405.80566291226381
30
0
10
770.73277609288425
20
405.79370092072799
30
0
10
770.72872648177861
20
405.78178376574897
30
0
10
770.72460404754099
20
405.76991118360922
30
0
10
770.72041432133358
20
405.75784480106074
30
0
10
770.71614937450147
20
405.74582445912677
30
0
10
770.71181256626903
20
405.73385003810915
30
0
10
770.70746104349246
20
405.72183498856026
30
0
10
770.70303658455714
20
405.70986465235399
30
0
10
770.69854534632827
20
405.69794622732365
30
0
10
770.69403607157199
20
405.68597993865575
30
0
10
770.68945913413836
20
405.67406494416991
30
0
10
770.68481741807261
20
405.66219943619478
30
0
10
770.6800951365841
20
405.65012798075264
30
0
10
770.67530580699531
20
405.63810774440446
30
0
10
770.67045240393395
20
405.62613702314127
30
0
10
770.66558016952456
20
405.61411985512348
30
0
10
770.66064336214549
20
405.60215258763543
30
0
10
770.65564494321382
20
405.59023369778794
30
0
10
770.65062776079412
20
405.57827006580288
30
0
10
770.64554850224056
20
405.56635517590348
30
0
10
770.64041012622488
20
405.55448768807184
30
0
10
770.63518470873214
20
405.5424191710307
30
0
10
770.62989815303183
20
405.53039967577206
30
0
10
770.6245535433543
20
405.51842799968591
30
0
10
770.61918937479606
20
405.50641251262073
30
0
10
770.61376672568076
20
405.49444519610506
30
0
10
770.60828869771308
20
405.48252503598002
30
0
10
770.60279071128843
20
405.47056144635661
30
0
10
770.59723694099512
20
405.45864535815463
30
0
10
770.59163051558653
20
405.44677593994868
30
0
10
770.58593126798064
20
405.43471000695854
30
0
10
770.58017760664598
20
405.42269230254811
30
0
10
770.57437281894386
20
405.41072214720856
30
0
10
770.56854613902544
20
405.39870684754311
30
0
10
770.56266794585918
20
405.3867394571331
30
0
10
770.55674157079875
20
405.37481947482343
30
0
10
770.55079226984265
20
405.36285338063777
30
0
10
770.54479441310207
20
405.35093506287899
30
0
10
770.5387513815275
20
405.33906419182551
30
0
10
770.53261002164857
20
405.32700016563018
30
0
10
770.52642200455193
20
405.31498514320538
30
0
10
770.52019089292367
20
405.30301895454903
30
0
10
770.51393346075565
20
405.29100222008901
30
0
10
770.50763256902292
20
405.2790347336167
30
0
10
770.50129184186494
20
405.26711649088759
30
0
10
770.4949230028169
20
405.25514540810997
30
0
10
770.48851397423039
20
405.24322400743841
30
0
10
770.48206844561537
20
405.23135244370252
30
0
10
770.47552184305187
20
405.21929471900228
30
0
10
770.46893830190527
20
405.20728959852676
30
0
10
770.46231073168258
20
405.1953178800207
30
0
10
770.45566501651501
20
405.18331338537428
30
0
10
770.44897722169867
20
405.1713465471309
30
0
10
770.44224955758057
20
405.15941557247527
30
0
10
770.43550527578054
20
405.14745512768843
30
0
10
770.42872092683308
20
405.13553072421104
30
0
10
770.42189870182028
20
405.12364069557952
30
0
10
770.41498919361152
20
405.11159854653306
30
0
10
770.40804083344347
20
405.09959165766821
30
0
10
770.40105586885898
20
405.08761843877465
30
0
10
770.39405484797453
20
405.07561769710787
30
0
10
770.38701705368749
20
405.06365078079222
30
0
10
770.37994472730747
20
405.05171622616047
30
0
10
770.37285663920238
20
405.03975507360906
30
0
10
770.3657338644756
20
405.0278264275766
30
0
10
770.35857864375703
20
405.01592894745647
30
0
10
770.35134112337414
20
405.00389462199541
30
0
10
770.34407040595158
20
404.99189218376392
30
0
10
770.33676879958443
20
404.97992037722179
30
0
10
770.32945136363696
20
404.96792261629798
30
0
10
770.32210290436922
20
404.95595562045992
30
0
10
770.31472573929148
20
404.94401825208013
30
0
10
770.3073326734127
20
404.93205515380043
30
0
10
770.29991077762884
20
404.9201218112392
30
0
10
770.29246238287396
20
404.90821719933331
30
0
10
770.28493738459713
20
404.89619015363701
30
0
10
770.27738533932632
20
404.88419243283442
30
0
10
770.26980865175187
20
404.87222309774575
30
0
10
770.26221533185458
20
404.86022748760689
30
0
10
770.25459726120448
20
404.84826038836286
30
0
10
770.24695686261396
20
404.83632096865841
30
0
10
770.23929941158917
20
404.82435490163039
30
0
10
770.23161953272063
20
404.81241663827467
30
0
10
770.22391966812324
20
404.80050545121048
30
0
10
770.21614935646812
20
404.78848528715412
30
0
10
770.20835869159919
20
404.77649269744029
30
0
10
770.2005501874844
20
404.76452704117867
30
0
10
770.19272304716742
20
404.75253282702863
30
0
10
770.18487798235014
20
404.74056567540634
30
0
10
770.17701753131428
20
404.72862504035675
30
0
10
770.16913756813733
20
404.71665476485043
30
0
10
770.16124214236186
20
404.70471113797566
30
0
10
770.15333381816743
20
404.69279370308743
30
0
10
770.14536124523829
20
404.68077944868384
30
0
10
770.13737556360923
20
404.66879181369598
30
0
10
770.12937940615393
20
404.65683042164272
30
0
10
770.12136165157153
20
404.64483672260883
30
0
10
770.11333336457426
20
404.63286940879345
30
0
10
770.10529720129614
20
404.62092819154873
30
0
10
770.09723873399685
20
404.60895383197578
30
0
10
770.08917493010995
20
404.59700952711989
30
0
10
770.08109957771296
20
404.58508195496404
30
0
10
770.07297922550947
20
404.57308791655242
30
0
10
770.06484429131228
20
404.56110653609596
30
0
10
770.05669670827058
20
404.54913674307994
30
0
10
770.0485432105437
20
404.53715826066991
30
0
10
770.04037704554139
20
404.52519138279263
30
0
10
770.03220015146826
20
404.51323507678171
30
0
10
770.02401716742133
20
404.50126986597274
30
0
10
770.01582343849304
20
404.48931524272751
30
0
10
770.00762090993294
20
404.47737020684093
30
0
10
769.99938961145529
20
404.4653832743985
30
0
10
769.99114945166184
20
404.45340599665826
30
0
10
769.98290239751395
20
404.44143739720835
30
0
10
769.97465020396248
20
404.42946133916041
30
0
10
769.96639110738886
20
404.41749397053979
30
0
10
769.958127076442
20
404.40553434890671
30
0
10
769.94852013141622
20
404.39163127566081
30
0
10
769.93890651827303
20
404.37773867064516
30
0
10
769.92928932187567
20
404.36385511462981
30
0
0
LINE
5
106
100
AcDbEntity
8
OUTER_PROFILES
100
AcDbLine
10
770.85857864375657
20
406.52389342117942
30
0
11
770.85857864375669
21
423.52389342117965
31
0
0
LINE
5
107
100
AcDbEntity
8
OUTER_PROFILES
100
AcDbLine
10
770.85857864375669
20
423.52389342117965
30
0
11
-5.1159076974727213e-12
21
423.52389342116942
31
0
0
LINE
5
108
100
AcDbEntity
8
OUTER_PROFILES
100
AcDbLine
10
-5.1159076974727213e-12
20
423.52389342116942
30
0
11
-4.4053649617126212e-12
21
406.52389342116953
31
0
0
SPLINE
5
109
100
AcDbEntity
8
OUTER_PROFILES
100
AcDbSpline
70
0
71
3
72
185
73
181
74
0
42
0.000000001
43
0.0000000001
44
0.0000000001
40
0.010030481014218389
40
0.010030481014218389
40
0.010030481014218389
40
0.010030481014218389
40
0.01414371957192802
40
0.01414371957192802
40
0.01414371957192802
40
0.017690941154714306
40
0.017690941154714306
40
0.017690941154714306
40
0.02124422227091264
40
0.02124422227091264
40
0.02124422227091264
40
0.024793324711482642
40
0.024793324711482642
40
0.024793324711482642
40
0.028348043440462142
40
0.028348043440462142
40
0.028348043440462142
40
0.031908492512494453
40
0.031908492512494453
40
0.031908492512494453
40
0.035459997536838136
40
0.035459997536838136
40
0.035459997536838136
40
0.039017356667192665
40
0.039017356667192665
40
0.039017356667192665
40
0.042580515127887388
40
0.042580515127887388
40
0.042580515127887388
40
0.046129795773074689
40
0.046129795773074689
40
0.046129795773074689
40
0.049684712010044901
40
0.049684712010044901
40
0.049684712010044901
40
0.053245262192679089
40
0.053245262192679089
40
0.053245262192679089
40
0.056787208552466342
40
0.056787208552466342
40
0.056787208552466342
40
0.06033466412625562
40
0.06033466412625562
40
0.06033466412625562
40
0.063887555845752397
40
0.063887555845752397
40
0.063887555845752397
40
0.06741718120032783
40
0.06741718120032783
40
0.06741718120032783
40
0.070951960195232783
40
0.070951960195232783
40
0.070951960195232783
40
0.074491773244148643
40
0.074491773244148643
40
0.074491773244148643
40
0.078006952775334912
40
0.078006952775334912
40
0.078006952775334912
40
0.08153908034265131
40
0.08153908034265131
40
0.08153908034265131
40
0.08508861500639231
40
0.08508861500639231
40
0.08508861500639231
40
0.088618635303212345
40
0.088618635303212345
40
0.088618635303212345
40
0.092165410217012383
40
0.092165410217012383
40
0.092165410217012383
40
0.095728764074565875
40
0.095728764074565875
40
0.095728764074565875
40
0.099268153747235466
40
0.099268153747235466
40
0.099268153747235466
40
0.10282333532477429
40
0.10282333532477429
40
0.10282333532477429
40
0.10639405719647922
40
0.10639405719647922
40
0.10639405719647922
40
0.10993673942980876
40
0.10993673942980876
40
0.10993673942980876
40
0.11349400064450785
40
0.11349400064450785
40
0.11349400064450785
40
0.11706549033276904
40
0.11706549033276904
40
0.11706549033276904
40
0.12060534401050468
40
0.12060534401050468
40
0.12060534401050468
40
0.12415825641320219
40
0.12415825641320219
40
0.12415825641320219
40
0.12772375085117521
40
0.12772375085117521
40
0.12772375085117521
40
0.13125460772519154
40
0.13125460772519154
40
0.13125460772519154
40
0.1347966028229137
40
0.1347966028229137
40
0.1347966028229137
40
0.13833620566917681
40
0.13833620566917681
40
0.13833620566917681
40
0.14181708248677105
40
0.14181708248677105
40
0.14181708248677105
40
0.14528606778201258
40
0.14528606778201258
40
0.14528606778201258
40
0.14874335469642239
40
0.14874335469642239
40
0.14874335469642239
40
0.15214477205279706
40
0.15214477205279706
40
0.15214477205279706
40
0.15553475276247886
40
0.15553475276247886
40
0.15553475276247886
40
0.15891306176517142
40
0.15891306176517142
40
0.15891306176517142
40
0.16223827376328592
40
0.16223827376328592
40
0.16223827376328592
40
0.16555117320312396
40
0.16555117320312396
40
0.16555117320312396
40
0.16885108779928537
40
0.16885108779928537
40
0.16885108779928537
40
0.17210071374914074
40
0.17210071374914074
40
0.17210071374914074
40
0.17533605178555445
40
0.17533605178555445
40
0.17533605178555445
40
0.17855614938607164
40
0.17855614938607164
40
0.17855614938607164
40
0.18173572967294516
40
0.18173572967294516
40
0.18173572967294516
40
0.18491530134728842
40
0.18491530134728842
40
0.18491530134728842
40
0.18809391736961537
40
0.18809391736961537
40
0.18809391736961537
40
0.19124616396234204
40
0.19124616396234204
40
0.19124616396234204
40
0.19439559252352101
40
0.19439559252352101
40
0.19439559252352101
40
0.19754120735123193
40
0.19754120735123193
40
0.19754120735123193
40
0.2006647595390782
40
0.2006647595390782
40
0.2006647595390782
40
0.20378125931782876
40
0.20378125931782876
40
0.20378125931782876
40
0.20688881250361774
40
0.20688881250361774
40
0.20688881250361774
40
0.2099776451914897
40
0.2099776451914897
40
0.2099776451914897
40
0.21305620060717617
40
0.21305620060717617
40
0.21305620060717617
40
0.21612595101148849
40
0.21612595101148849
40
0.21612595101148849
40
0.21612595101148849
10
0.92928932187660962
20
404.3638551148764
30
0
10
0.91965899617392211
20
404.37775762392801
30
0
10
0.91004544957073108
20
404.3916501786872
30
0
10
0.90045156592523767
20
404.40553434885652
30
0
10
0.89217788311955815
20
404.41750793788918
30
0
10
0.88391882419585954
20
404.42947529051372
30
0
10
0.87567624367963504
20
404.44143739717538
30
0
10
0.86741958279347386
20
404.45341993807921
30
0
10
0.85917945659971906
20
404.46539721479155
30
0
10
0.85095773090401394
20
404.47737020683547
30
0
10
0.84274567399717171
20
404.48932911858333
30
0
10
0.83455197451144159
20
404.50128375576361
30
0
10
0.82637849000462893
20
404.51323507678512
30
0
10
0.81819207134131489
20
404.52520531021241
30
0
10
0.81002593190206085
20
404.53717221705767
30
0
10
0.80188193440804412
20
404.54913674307619
30
0
10
0.79372480847737847
20
404.56112055636999
30
0
10
0.78558989593560113
20
404.57310198092057
30
0
10
0.77747906603903516
20
404.58508195495131
30
0
10
0.7693886110018866
20
404.59703183461551
30
0
10
0.76132211759500024
20
404.60898027056857
30
0
10
0.75328144290921273
20
404.62092819153145
30
0
10
0.74522751441648438
20
404.63289580679168
30
0
10
0.73719948973518967
20
404.64486290500753
30
0
10
0.72919923792639452
20
404.65683042162715
30
0
10
0.72118594382942547
20
404.66881744810786
30
0
10
0.71320051320867606
20
404.68080489409908
30
0
10
0.70524482558440127
20
404.69279370307737
30
0
10
0.69732012383013853
20
404.70473581795522
30
0
10
0.68942493391190851
20
404.71667928509845
30
0
10
0.68156111225718519
20
404.72862504035015
30
0
10
0.67368480432904221
20
404.74058976321993
30
0
10
0.66583996440911619
20
404.75255678130651
30
0
10
0.65802845613092131
20
404.76452704117128
30
0
10
0.65020456792296955
20
404.77651627188914
30
0
10
0.64241411706959184
20
404.78850875441015
30
0
10
0.63465897562892337
20
404.80050545120037
30
0
10
0.62694435468927168
20
404.81243946542463
30
0
10
0.61926467505529104
20
404.82437764967915
30
0
10
0.61162178121605848
20
404.83632096864704
30
0
10
0.60396699946736021
20
404.84828286449147
30
0
10
0.59634911795242829
20
404.86024991071895
30
0
10
0.58876999205978109
20
404.87222309773443
30
0
10
0.58117925186166985
20
404.88421463254548
30
0
10
0.57362738608560448
20
404.89621232668929
30
0
10
0.56611626087786249
20
404.90821719932353
30
0
10
0.55865432280953087
20
404.92014345719281
30
0
10
0.55123259341954167
20
404.93207679962063
30
0
10
0.54385290442624523
20
404.9440182520712
30
0
10
0.53646244027717671
20
404.95597714035279
30
0
10
0.52911413929962237
20
404.96794416208172
30
0
10
0.52180984414150089
20
404.97992037721241
30
0
10
0.51449514657448958
20
404.9919136482647
30
0
10
0.50722458013197524
20
405.00391613861427
30
0
10
0.4999999999954241
20
405.0159289474467
30
0
10
0.49282569562777212
20
405.02785815928263
30
0
10
0.48569770897557873
20
405.03979607241718
30
0
10
0.47863391645975639
20
405.05171622615131
30
0
10
0.47153606667606596
20
405.06369385154358
30
0
10
0.46449862069664505
20
405.07566085077968
30
0
10
0.457522774904362
20
405.08761843876613
30
0
10
0.45051255061963502
20
405.09963495635884
30
0
10
0.44356453505713489
20
405.11164196946822
30
0
10
0.43667994193171467
20
405.12364069556963
30
0
10
0.4298331984088577
20
405.13557345596973
30
0
10
0.42304918176554906
20
405.14749801996936
30
0
10
0.41632908616534792
20
405.15941557246146
30
0
10
0.40957709481986626
20
405.1713896895086
30
0
10
0.40288963260550759
20
405.18335672807621
30
0
10
0.39626791206487155
20
405.19531788000563
30
0
10
0.38961523914224472
20
405.20733494280341
30
0
10
0.38302892377672038
20
405.21934606352261
30
0
10
0.37651019813651487
20
405.2313524436928
30
0
10
0.3700353120791533
20
405.24327807883287
30
0
10
0.36362710953639521
20
405.25519903668157
30
0
10
0.35728680188981343
20
405.26711649088656
30
0
10
0.350918205316475
20
405.27908711790394
30
0
10
0.34461811066009318
20
405.29105420964652
30
0
10
0.33838775083083306
20
405.3030189545504
30
0
10
0.33213015705513271
20
405.31503599935826
30
0
10
0.32594290886621025
20
405.3270506764556
30
0
10
0.31982726222452129
20
405.33906419181574
30
0
10
0.31375963963142794
20
405.35098336921345
30
0
10
0.30776249826516278
20
405.36290140275787
30
0
10
0.30183707295051931
20
405.37481947479455
30
0
10
0.29588726309910385
20
405.38678659253696
30
0
10
0.29000976050170379
20
405.39875374876652
30
0
10
0.28420582480535472
20
405.41072214717349
30
0
10
0.2783786742983807
20
405.42273841725182
30
0
10
0.27262568006676702
20
405.43475593912171
30
0
10
0.26694812816558056
20
405.44677593993879
30
0
10
0.26132086762956419
20
405.45868946841381
30
0
10
0.25576771852044544
20
405.47060543181874
30
0
10
0.25028994604255672
20
405.48252503601373
30
0
10
0.24479196574517914
20
405.49448861231815
30
0
10
0.23936991886117198
20
405.50645585599347
30
0
10
0.23402510040241964
20
405.51842799973167
30
0
10
0.22866135417757505
20
405.53044254078156
30
0
10
0.22337538390118539
20
405.54246201633811
30
0
10
0.21816851752745947
20
405.55448768806173
30
0
10
0.21301223408684677
20
405.56639653448087
30
0
10
0.20793352470207083
20
405.5783114570321
30
0
10
0.20293370053266813
20
405.59023369768011
30
0
10
0.19791810422560729
20
405.60219354749444
30
0
10
0.19298362311559458
20
405.61415648460633
30
0
10
0.18812623981077081
20
405.62613702299103
30
0
10
0.18327213716617052
20
405.63810946976082
30
0
10
0.17848259619626106
20
405.65013030934369
30
0
10
0.17376122567938523
20
405.66219943618484
30
0
10
0.16911818805809276
20
405.67406832251328
30
0
10
0.16454107712689847
20
405.68598390630376
30
0
10
0.1600332974351204
20
405.69794622763828
30
0
10
0.15554091741591947
20
405.70986768277191
30
0
10
0.15111739514210853
20
405.72183555550794
30
0
10
0.14676607749720461
20
405.73385003873136
30
0
10
0.14242943370263106
20
405.74582400578413
30
0
10
0.13816450764096544
20
405.75784426836321
30
0
10
0.13397459621117491
20
405.76991118430794
30
0
10
0.12985239350953748
20
405.78178309958389
30
0
10
0.12580279978379849
20
405.79370017196084
30
0
10
0.12182894531505895
20
405.80566291278694
30
0
10
0.11786845220854048
20
405.81758543107446
30
0
10
0.11398318886350012
20
405.82955331014426
30
0
10
0.11017624567742246
20
405.84156723143008
30
0
10
0.1063824098005739
20
405.85353978877288
30
0
10
0.10266635440999039
20
405.86555807070158
30
0
10
0.099031132093188035
20
405.87762293243088
30
0
10
0.095453044696682809
20
405.88949817029282
30
0
10
0.091953268124740362
20
405.90141853471346
30
0
10
0.088534716389432333
20
405.91338502196993
30
0
10
0.085128822829716455
20
405.9253071998495
30
0
10
0.081803552251074052
20
405.93727515897569
30
0
10
0.078561811320270181
20
405.94929007581692
30
0
10
0.075332776328878026
20
405.96125790042981
30
0
10
0.072186616113043556
20
405.97327231516198
30
0
10
0.069126251351434576
20
405.98533468055399
30
0
10
0.066112524645660642
20
405.99721322299877
30
0
10
0.063181997325614248
20
406.00913826627789
30
0
10
0.060337518883528674
20
406.02111129680543
30
0
10
0.05750554700767907
20
406.03303168446695
30
0
10
0.054758867304087744
20
406.04499963825833
30
0
10
0.052100344254171205
20
406.0570167948336
30
0
10
0.049454344486150603
20
406.06897734319602
30
0
10
0.046895670478050988
20
406.08098663161695
30
0
10
0.044427194209362142
20
406.0930464286771
30
0
10
0.041989777877233792
20
406.10495448170934
30
0
10
0.039643996113198909
20
406.11689435103176
30
0
10
0.037395667174564551
20
406.12884534542496
30
0
10
0.03514734432599198
20
406.14079630744646
30
0
10
0.032995116756637799
20
406.15276497822919
30
0
10
0.03094042269736974
20
406.16475202239479
30
0
10
0.028886346196941304
20
406.17673546373453
30
0
10
0.026929745251891291
20
406.18873726768697
30
0
10
0.025072087813811095
20
406.20075817680026
30
0
10
0.02322984128625194
20
406.21267936184671
30
0
10
0.021484904990245468
20
406.22461933689755
30
0
10
0.019838729083545559
20
406.23657889872186
30
0
10
0.018194024818001253
20
406.24852776898967
30
0
10
0.016647903336348691
20
406.26049618995421
30
0
10
0.015201768490982204
20
406.27248501645312
30
0
10
0.013757384811867723
20
406.28445932533782
30
0
10
0.012412740969693914
20
406.29645398819781
30
0
10
0.011169173770468888
20
406.3084699249232
30
0
10
0.0099343286737507697
20
406.32040158455209
30
0
10
0.008799140722572929
20
406.33235421906897
30
0
10
0.0077649137635660281
20
406.34432881807732
30
0
10
0.006733021899663072
20
406.35627638063295
30
0
10
0.0058016345714406725
20
406.36824580936707
30
0
10
0.0049721400701230323
20
406.38023818917696
30
0
10
0.0041450268138021329
20
406.39219614224254
30
0
10
0.00341922937238337
20
406.40417691665567
30
0
10
0.0027962028143235784
20
406.41618167304637
30
0
10
0.0021769294880868983
20
406.42811411047626
30
0
10
0.0016592058575781721
20
406.44007024248981
30
0
10
0.0012444014568302464
20
406.4520512745591
30
0
10
0.0008309772078973765
20
406.46399244291933
30
0
10
0.00051979918069378073
20
406.47595834445639
30
0
10
0.00031204105155779871
20
406.48795024966512
30
0
10
0.00010487713382190123
20
406.49990785668933
30
0
10
5.9672359498108563e-07
20
406.51190009402745
30
0
10
-4.4053649617126212e-12
20
406.52389342116942
30
0
0
SPLINE
5
110
100
AcDbEntity
8
OUTER_PROFILES
100
AcDbSpline
70
0
71
3
72
14
73
10
74
0
42
0.000000001
43
0.0000000001
44
0.0000000001
40
0
40
0
40
0
40
0
40
0.0035294938843608075
40
0.0035294938843608075
40
0.0035294938843608075
40
0.0070633763670740028
40
0.0070633763670740028
40
0.0070633763670740028
40
0.01003048101421356
40
0.01003048101421356
40
0.01003048101421356
40
0.01003048101421356
10
0.99999999999525357
20
404.26194671058505
30
0
10
0.99168088236865515
20
404.27392618017655
30
0
10
0.98336893659862312
20
404.28589534721056
30
0
10
0.97506599110872116
20
404.29785529117004
30
0
10
0.96675272167601634
20
404.30983010621071
30
0
10
0.95844847559149571
20
404.32179567602594
30
0
10
0.95015508367126245
20
404.33375304809636
30
0
10
0.94319181824658926
20
404.34379265026519
30
0
10
0.93623620418028963
20
404.35382647232723
30
0
10
0.92928932187689384
20
404.36385511487617
30
0
0
ARC
5
111
100
AcDbEntity
8
OUTER_PROFILES
100
AcDbCircle
10
0.9646446609359316
20
404.22659137152573
30
0
40
0.04999999999999237
210
0
220
0
230
1
100
AcDbArc
50
-135
51
45
0
SPLINE
5
112
100
AcDbEntity
8
OUTER_PROFILES
100
AcDbSpline
70
0
71
3
72
14
73
10
74
0
42
0.000000001
43
0.0000000001
44
0.0000000001
40
0.18027201974321688
40
0.18027201974321688
40
0.18027201974321688
40
0.18027201974321688
40
0.18319470998038614
40
0.18319470998038614
40
0.18319470998038614
40
0.18668331008883893
40
0.18668331008883893
40
0.18668331008883893
40
0.19017596482715748
40
0.19017596482715748
40
0.19017596482715748
40
0.19017596482715748
10
0.82738091784165135
20
404.26194671058505
30
0
10
0.83741950046942293
20
404.25499294307855
30
0
10
0.84745335002523348
20
404.24803730150359
30
0
10
0.85748298435575521
20
404.24108094972621
30
0
10
0.86945462027131271
20
404.23277766487718
30
0
10
0.88142025031515914
20
404.22447336774485
30
0
10
0.89338074129258871
20
404.21617004234884
30
0
10
0.90535513336575946
20
404.20785706640243
30
0
10
0.91732437521926613
20
404.19954506518627
30
0
10
0.92928932187660962
20
404.19123603246641
30
0
0
SPLINE
5
113
100
AcDbEntity
8
OUTER_PROFILES
100
AcDbSpline
70
0
71
3
72
185
73
181
74
0
42
0.000000001
43
0.0000000001
44
0.0000000001
40
0
40
0
40
0
40
0
40
0.0025011935558143725
40
0.0025011935558143725
40
0.0025011935558143725
40
0.0050092896191511801
40
0.0050092896191511801
40
0.0050092896191511801
40
0.0075248867929099917
40
0.0075248867929099917
40
0.0075248867929099917
40
0.01005485039160387
40
0.01005485039160387
40
0.01005485039160387
40
0.01259121054308677
40
0.01259121054308677
40
0.01259121054308677
40
0.015132415415487783
40
0.015132415415487783
40
0.015132415415487783
40
0.017690657826659822
40
0.017690657826659822
40
0.017690657826659822
40
0.02025107556639905
40
0.02025107556639905
40
0.02025107556639905
40
0.022812843329467588
40
0.022812843329467588
40
0.022812843329467588
40
0.025395071344218503
40
0.025395071344218503
40
0.025395071344218503
40
0.027977082559630644
40
0.027977082559630644
40
0.027977082559630644
40
0.030565128531840693
40
0.030565128531840693
40
0.030565128531840693
40
0.033190467200613846
40
0.033190467200613846
40
0.033190467200613846
40
0.03582716029489149
40
0.03582716029489149
40
0.03582716029489149
40
0.038474513697608154
40
0.038474513697608154
40
0.038474513697608154
40
0.041161931996087538
40
0.041161931996087538
40
0.041161931996087538
40
0.043859120176543108
40
0.043859120176543108
40
0.043859120176543108
40
0.04656563509197837
40
0.04656563509197837
40
0.04656563509197837
40
0.049314768089283922
40
0.049314768089283922
40
0.049314768089283922
40
0.052072907058890706
40
0.052072907058890706
40
0.052072907058890706
40
0.054839968309755176
40
0.054839968309755176
40
0.054839968309755176
40
0.05765219732689502
40
0.05765219732689502
40
0.05765219732689502
40
0.060473968105324342
40
0.060473968105324342
40
0.060473968105324342
40
0.063307070942714802
40
0.063307070942714802
40
0.063307070942714802
40
0.066189347419236155
40
0.066189347419236155
40
0.066189347419236155
40
0.069082807204613225
40
0.069082807204613225
40
0.069082807204613225
40
0.07198712871262615
40
0.07198712871262615
40
0.07198712871262615
40
0.074940647973030391
40
0.074940647973030391
40
0.074940647973030391
40
0.07790497582009373
40
0.07790497582009373
40
0.07790497582009373
40
0.08088010382067759
40
0.08088010382067759
40
0.08088010382067759
40
0.083904489237752219
40
0.083904489237752219
40
0.083904489237752219
40
0.086940280863630967
40
0.086940280863630967
40
0.086940280863630967
40
0.089987816328231135
40
0.089987816328231135
40
0.089987816328231135
40
0.093084939351240029
40
0.093084939351240029
40
0.093084939351240029
40
0.096195144817473335
40
0.096195144817473335
40
0.096195144817473335
40
0.099319139551584404
40
0.099319139551584404
40
0.099319139551584404
40
0.1024921224763873
40
0.1024921224763873
40
0.1024921224763873
40
0.10567379239676461
40
0.10567379239676461
40
0.10567379239676461
40
0.10886332120725944
40
0.10886332120725944
40
0.10886332120725944
40
0.11209365668469655
40
0.11209365668469655
40
0.11209365668469655
40
0.11533141771592109
40
0.11533141771592109
40
0.11533141771592109
40
0.11857639457526849
40
0.11857639457526849
40
0.11857639457526849
40
0.12185869529984297
40
0.12185869529984297
40
0.12185869529984297
40
0.12514811191477038
40
0.12514811191477038
40
0.12514811191477038
40
0.12844461856264539
40
0.12844461856264539
40
0.12844461856264539
40
0.13177502835493113
40
0.13177502835493113
40
0.13177502835493113
40
0.13511274905063969
40
0.13511274905063969
40
0.13511274905063969
40
0.13845791912755367
40
0.13845791912755367
40
0.13845791912755367
40
0.14183369459517503
40
0.14183369459517503
40
0.14183369459517503
40
0.14521752686911454
40
0.14521752686911454
40
0.14521752686911454
40
0.14860975888776151
40
0.14860975888776151
40
0.14860975888776151
40
0.1520295500423027
40
0.1520295500423027
40
0.1520295500423027
40
0.15545857783667058
40
0.15545857783667058
40
0.15545857783667058
40
0.15889712275073009
40
0.15889712275073009
40
0.15889712275073009
40
0.16235482894284309
40
0.16235482894284309
40
0.16235482894284309
40
0.16581504523338414
40
0.16581504523338414
40
0.16581504523338414
40
0.16927783861708834
40
0.16927783861708834
40
0.16927783861708834
40
0.17275277755691409
40
0.17275277755691409
40
0.17275277755691409
40
0.17622988200996192
40
0.17622988200996192
40
0.17622988200996192
40
0.18027201974322815
40
0.18027201974322815
40
0.18027201974322815
40
0.18027201974322815
10
-1.3326573887080428
20
405.19123603246635
30
0
10
-1.320651659670915
20
405.19123543522687
30
0
10
-1.3086710471287688
20
405.19113114204941
30
0
10
-1.296714216433088
20
405.19092399161423
30
0
10
-1.2847243886454862
20
405.19071626950904
30
0
10
-1.2727584766398081
20
405.19040512704754
30
0
10
-1.2608152413621099
20
405.18999163119599
30
0
10
-1.2488362867482294
20
405.18957689867813
30
0
10
-1.23688014622644
20
405.18905921041221
30
0
10
-1.2249456405849912
20
405.18843982964756
30
0
10
-1.2129429776959455
20
405.18781691163639
30
0
10
-1.2009621968660156
20
405.18709114977196
30
0
10
-1.1890021577748655
20
405.18626389211522
30
0
10
-1.1770118799002205
20
405.18543454288783
30
0
10
-1.1650424469478082
20
405.18450319124008
30
0
10
-1.153092787343013
20
405.18347111820509
30
0
10
-1.1411203026020189
20
405.18243707379958
30
0
10
-1.1291676660738403
20
405.18130192184503
30
0
10
-1.117233893898657
20
405.18006685817306
30
0
10
-1.1052201116038418
20
405.17882351400175
30
0
10
-1.0932254491011406
20
405.17747890723967
30
0
10
-1.0812489842554385
20
405.17603426364963
30
0
10
-1.0692623355639341
20
405.17458839164811
30
0
10
-1.0572939176604734
20
405.17304230784544
30
0
10
-1.0453428651956642
20
405.17139730336106
30
0
10
-1.0333855113373147
20
405.16975143152035
30
0
10
-1.0214455422951119
20
405.16800653357791
30
0
10
-1.0095221425376621
20
405.16616394486277
30
0
10
-0.99750351332048126
20
405.16430663981407
30
0
10
-0.98550171857453961
20
405.16235007892135
30
0
10
-0.97351598827899011
20
405.16029561002449
30
0
10
-0.96153126428433211
20
405.15824131361728
30
0
10
-0.94956190796111173
20
405.15608899576478
30
0
10
-0.93760931210042031
20
405.15384036543458
30
0
10
-0.92562878026157591
20
405.15158647953569
30
0
10
-0.91369634184701454
20
405.14924172958854
30
0
10
-0.90181039621583636
20
405.14680883825241
30
0
10
-0.88975317891154759
20
405.14434088993539
30
0
10
-0.87774380405349461
20
405.14178223941491
30
0
10
-0.86578076280474647
20
405.13913568813365
30
0
10
-0.85376598215091803
20
405.13647769068365
30
0
10
-0.84179793739792785
20
405.13373102822834
30
0
10
-0.829875264688269
20
405.13089851352254
30
0
10
-0.81790438789724362
20
405.12805454678977
30
0
10
-0.80597925118652824
20
405.12512403058059
30
0
10
-0.79409864809264263
20
405.12210978111057
30
0
10
-0.78203824462747207
20
405.1190499141606
30
0
10
-0.77002373270701696
20
405.11590375934577
30
0
10
-0.75805404308994184
20
405.11267422117442
30
0
10
-0.74604083867839677
20
405.10943294229025
30
0
10
-0.73407278354991945
20
405.10610767145215
30
0
10
-0.72214898925437865
20
405.10270131609758
30
0
10
-0.71018396310492449
20
405.09928318174514
30
0
10
-0.69826350530419745
20
405.0957833998342
30
0
10
-0.68638689996959101
20
405.09220490036881
30
0
10
-0.6743232799114196
20
405.08857005213463
30
0
10
-0.6623049050233476
20
405.08485398657501
30
0
10
-0.65033119932579098
20
405.0810597867698
30
0
10
-0.63831826858447016
20
405.07725315742476
30
0
10
-0.62635030145358428
20
405.07336787995001
30
0
10
-0.61442688102218312
20
405.06940708713529
30
0
10
-0.60246488961524847
20
405.06543348158431
30
0
10
-0.5905477347606336
20
405.0613838704686
30
0
10
-0.57867515272519654
20
405.05726143625077
30
0
10
-0.56660877013328559
20
405.05307171001141
30
0
10
-0.55458842813507658
20
405.04880676317754
30
0
10
-0.54261400703083496
20
405.04446995497176
30
0
10
-0.53059895727685102
20
405.04011843217904
30
0
10
-0.51862862082927563
20
405.03569397325015
30
0
10
-0.50671019556190799
20
405.0312027350322
30
0
10
-0.49474390662723522
20
405.02669346027619
30
0
10
-0.48282891189728616
20
405.02211652285274
30
0
10
-0.47096340372362988
20
405.01747480678233
30
0
10
-0.45889194813099721
20
405.01275252530922
30
0
10
-0.44687171167964834
20
405.00796319572066
30
0
10
-0.43490099036247898
20
405.00310979264759
30
0
10
-0.42288382233039101
20
404.99823755824247
30
0
10
-0.41091655487662138
20
404.99330075085675
30
0
10
-0.39899766510075096
20
404.98830233192632
30
0
10
-0.3870340331530997
20
404.9832851494935
30
0
10
-0.37511914332867491
20
404.97820589093396
30
0
10
-0.36325165560029404
20
404.97306751493426
30
0
10
-0.35118313857083194
20
404.96784209741759
30
0
10
-0.33916364335382809
20
404.96255554171489
30
0
10
-0.32719196733779654
20
404.95721093206168
30
0
10
-0.31517648023196898
20
404.95184676347856
30
0
10
-0.30320916370513373
20
404.94642411436445
30
0
10
-0.29128900360490206
20
404.94094608642121
30
0
10
-0.27932541390924825
20
404.9354480999761
30
0
10
-0.26740932567207665
20
404.92989432968488
30
0
10
-0.25553990747752664
20
404.92428790429619
30
0
10
-0.24347397441857765
20
404.91858865667257
30
0
10
-0.23145626998797297
20
404.91283499533773
30
0
10
-0.21948611468161516
20
404.90703020765466
30
0
10
-0.20747081496665487
20
404.90120352771532
30
0
10
-0.195503424561565
20
404.89532533454707
30
0
10
-0.1835834423103222
20
404.88939895950932
30
0
10
-0.17161734808354367
20
404.88344965852639
30
0
10
-0.15969903033848709
20
404.87745180178354
30
0
10
-0.14782815935390659
20
404.87140877023728
30
0
10
-0.13576413310815383
20
404.865267410326
30
0
10
-0.12374911069073846
20
404.85907939322777
30
0
10
-0.11178292210189511
20
404.85284828163316
30
0
10
-0.099766187576761922
20
404.84659084942967
30
0
10
-0.087798701101036158
20
404.84028995769592
30
0
10
-0.075880458434909315
20
404.83394923057455
30
0
10
-0.063909375581090444
20
404.82758039148882
30
0
10
-0.051987974901663847
20
404.8211713629014
30
0
10
-0.040116411230997073
20
404.81472583432515
30
0
10
-0.028058686419143442
20
404.80817923170429
30
0
10
-0.016053566001659192
20
404.80159569059083
30
0
10
-0.0040818475382309316
20
404.79496812039247
30
0
10
0.0079226471069659965
20
404.78832240522615
30
0
10
0.019889485349153802
20
404.78163461040964
30
0
10
0.031820460004468032
20
404.77490694629057
30
0
10
0.043780904787524832
20
404.76816266449129
30
0
10
0.05570530826176423
20
404.7613783155436
30
0
10
0.067595336892054547
20
404.75455609053
30
0
10
0.079637485934824781
20
404.74764658232175
30
0
10
0.091644374798249828
20
404.74069822215375
30
0
10
0.10361759369246215
20
404.73371325756864
30
0
10
0.11561833535679966
20
404.7267122366851
30
0
10
0.12758525167271273
20
404.719674442398
30
0
10
0.13951980630722005
20
404.71260211601697
30
0
10
0.15148095885734847
20
404.70551402791307
30
0
10
0.16340960489117151
20
404.69839125318663
30
0
10
0.17530708501524828
20
404.69123603246635
30
0
10
0.18734141047417552
20
404.68399851208551
30
0
10
0.199343848706377
20
404.67672779466307
30
0
10
0.21131565525209339
20
404.66942618829415
30
0
10
0.22331341617245926
20
404.66210875234867
30
0
10
0.23528041201004157
20
404.65476029308104
30
0
10
0.24721778039307196
20
404.64738312800108
30
0
10
0.25918087866841688
20
404.63999006212475
30
0
10
0.27111422122857221
20
404.632568166341
30
0
10
0.28301883313787357
20
404.6251197715838
30
0
10
0.29504587882939859
20
404.61759477330963
30
0
10
0.30704359963166894
20
404.61004272803899
30
0
10
0.31901293472486714
20
404.60246604046176
30
0
10
0.33100854485880404
20
404.59487272056771
30
0
10
0.34297564410280756
20
404.58725464991744
30
0
10
0.35491506381248428
20
404.57961425132385
30
0
10
0.36688113083528151
20
404.57195680030225
30
0
10
0.37881939419122546
20
404.56427692143382
30
0
10
0.39073058126120941
20
404.55657705683274
30
0
10
0.4027507453116641
20
404.54880674518131
30
0
10
0.41474333502534932
20
404.54101608031237
30
0
10
0.4267089912931965
20
404.53320757619338
30
0
10
0.43870320543646812
20
404.52538043588061
30
0
10
0.45067035705855574
20
404.51753537106356
30
0
10
0.46261099211491796
20
404.50967492002343
30
0
10
0.47458126761384278
20
404.50179495685126
30
0
10
0.48652489448826941
20
404.49389953107618
30
0
10
0.49844232938397681
20
404.48599120687726
30
0
10
0.51045658377958603
20
404.47801863395347
30
0
10
0.5224442187675038
20
404.47003295232486
30
0
10
0.53440561082894078
20
404.46203679486439
30
0
10
0.54639930985459273
20
404.45401904028785
30
0
10
0.55836662366985479
20
404.44599075329074
30
0
10
0.57030784092319209
20
404.43795459000654
30
0
10
0.58228220051333324
20
404.4298961226956
30
0
10
0.59422650544661337
20
404.42183231875589
30
0
10
0.60615407750759687
20
404.41375696642268
30
0
10
0.61814811591716534
20
404.40563661422016
30
0
10
0.63012949637325733
20
404.39750168002263
30
0
10
0.64209928939106931
20
404.38935409697956
30
0
10
0.65407777179913751
20
404.3812005992537
30
0
10
0.66604464967610966
20
404.37303443425145
30
0
10
0.67800095568898655
20
404.36485754017718
30
0
10
0.6899661664962764
20
404.35667455613157
30
0
10
0.70192078974187666
20
404.34848082720356
30
0
10
0.71386582563064849
20
404.34027829864243
30
0
10
0.72585275807156791
20
404.33204700016637
30
0
10
0.7378300358121237
20
404.32380684037327
30
0
10
0.74979863526422719
20
404.31555978622436
30
0
10
0.76177469331071279
20
404.30730759267442
30
0
10
0.77374206193141504
20
404.29904849610097
30
0
10
0.78570168356620229
20
404.29078446515285
30
0
10
0.79960475680962873
20
404.28117752012861
30
0
10
0.8134973618247443
20
404.27156390698451
30
0
10
0.82738091784179346
20
404.26194671058488
30
0
0
LINE
5
114
100
AcDbEntity
8
OUTER_PROFILES
100
AcDbLine
10
-1.3326573887080428
20
405.19123603246635
30
0
11
-18.332657388708071
21
405.19123603246624
31
0
0
LINE
5
115
100
AcDbEntity
8
OUTER_PROFILES
100
AcDbLine
10
-18.332657388708071
20
405.19123603246624
30
0
11
-18.332657388702955
21
18.332657388703026
31
0
0
LINE
5
116
100
AcDbEntity
8
OUTER_PROFILES
100
AcDbLine
10
-18.332657388702955
20
18.332657388703026
30
0
11
-1.3326573887029269
21
18.332657388703311
31
0
0
SPLINE
5
117
100
AcDbEntity
8
OUTER_PROFILES
100
AcDbSpline
70
0
71
3
72
185
73
181
74
0
42
0.000000001
43
0.0000000001
44
0.0000000001
40
0.010030481273010445
40
0.010030481273010445
40
0.010030481273010445
40
0.010030481273010445
40
0.014143720045321913
40
0.014143720045321913
40
0.014143720045321913
40
0.017690941871183734
40
0.017690941871183734
40
0.017690941871183734
40
0.021244223318464615
40
0.021244223318464615
40
0.021244223318464615
40
0.024793326184465798
40
0.024793326184465798
40
0.024793326184465798
40
0.028348045418225089
40
0.028348045418225089
40
0.028348045418225089
40
0.031908495047486635
40
0.031908495047486635
40
0.031908495047486635
40
0.035460000660334931
40
0.035460000660334931
40
0.035460000660334931
40
0.03901736041307146
40
0.03901736041307146
40
0.03901736041307146
40
0.042580519543261967
40
0.042580519543261967
40
0.042580519543261967
40
0.046129800913839995
40
0.046129800913839995
40
0.046129800913839995
40
0.049684717938386684
40
0.049684717938386684
40
0.049684717938386684
40
0.05324526896604112
40
0.05324526896604112
40
0.05324526896604112
40
0.056787216216596798
40
0.056787216216596798
40
0.056787216216596798
40
0.060334672731329128
40
0.060334672731329128
40
0.060334672731329128
40
0.063887565444553457
40
0.063887565444553457
40
0.063887565444553457
40
0.067417191840277405
40
0.067417191840277405
40
0.067417191840277405
40
0.070951971932957492
40
0.070951971932957492
40
0.070951971932957492
40
0.074491786136332755
40
0.074491786136332755
40
0.074491786136332755
40
0.078006966853645721
40
0.078006966853645721
40
0.078006966853645721
40
0.081539095607867235
40
0.081539095607867235
40
0.081539095607867235
40
0.085088631456960662
40
0.085088631456960662
40
0.085088631456960662
40
0.088618652925868208
40
0.088618652925868208
40
0.088618652925868208
40
0.092165429010650654
40
0.092165429010650654
40
0.092165429010650654
40
0.095728784037959869
40
0.095728784037959869
40
0.095728784037959869
40
0.099268174866007738
40
0.099268174866007738
40
0.099268174866007738
40
0.1028233575975797
40
0.1028233575975797
40
0.1028233575975797
40
0.10639408062192217
40
0.10639408062192217
40
0.10639408062192217
40
0.10993676399266557
40
0.10993676399266557
40
0.10993676399266557
40
0.11349402634359161
40
0.11349402634359161
40
0.11349402634359161
40
0.11706551716673531
40
0.11706551716673531
40
0.11706551716673531
40
0.12060537196348613
40
0.12060537196348613
40
0.12060537196348613
40
0.12415828548346668
40
0.12415828548346668
40
0.12415828548346668
40
0.12772378103680096
40
0.12772378103680096
40
0.12772378103680096
40
0.13125463900975906
40
0.13125463900975906
40
0.13125463900975906
40
0.13479663520435037
40
0.13479663520435037
40
0.13479663520435037
40
0.13833623914385826
40
0.13833623914385826
40
0.13833623914385826
40
0.14181711703674546
40
0.14181711703674546
40
0.14181711703674546
40
0.14528610340364145
40
0.14528610340364145
40
0.14528610340364145
40
0.14874339138606527
40
0.14874339138606527
40
0.14874339138606527
40
0.15214480979334383
40
0.15214480979334383
40
0.15214480979334383
40
0.15553479155061872
40
0.15553479155061872
40
0.15553479155061872
40
0.15891310159756117
40
0.15891310159756117
40
0.15891310159756117
40
0.16223831462358898
40
0.16223831462358898
40
0.16223831462358898
40
0.16555121508748291
40
0.16555121508748291
40
0.16555121508748291
40
0.16885113070363394
40
0.16885113070363394
40
0.16885113070363394
40
0.17210075765800259
40
0.17210075765800259
40
0.17210075765800259
40
0.17533609669472017
40
0.17533609669472017
40
0.17533609669472017
40
0.17855619529093525
40
0.17855619529093525
40
0.17855619529093525
40
0.18173577656133325
40
0.18173577656133325
40
0.18173577656133325
40
0.1849153492191398
40
0.1849153492191398
40
0.1849153492191398
40
0.18809396622459787
40
0.18809396622459787
40
0.18809396622459787
40
0.1912462137923529
40
0.1912462137923529
40
0.1912462137923529
40
0.19439564332778297
40
0.19439564332778297
40
0.19439564332778297
40
0.19754125912867904
40
0.19754125912867904
40
0.19754125912867904
40
0.20066481228301353
40
0.20066481228301353
40
0.20066481228301353
40
0.20378131302622429
40
0.20378131302622429
40
0.20378131302622429
40
0.20688886717392332
40
0.20688886717392332
40
0.20688886717392332
40
0.20997770081814243
40
0.20997770081814243
40
0.20997770081814243
40
0.21305625718723994
40
0.21305625718723994
40
0.21305625718723994
40
0.21612600854245403
40
0.21612600854245403
40
0.21612600854245403
40
0.21612600854245403
10
0.82738091769670064
20
19.261946710584894
30
0
10
0.81347840847286079
20
19.252316384997883
30
0
10
0.79958585363755219
20
19.242702838641748
30
0
10
0.78570168355270198
20
19.233108955322038
30
0
10
0.7737280943970859
20
19.224835272662162
30
0
10
0.76176074176956377
20
19.216576213943029
30
0
10
0.74979863525996393
20
19.208333633661425
30
0
10
0.73781609421303074
20
19.200076972806741
30
0
10
0.72583881751313584
20
19.191836846675443
30
0
10
0.71386582564272771
20
19.18361512106479
30
0
10
0.7019069137488998
20
19.175403064023655
30
0
10
0.68995227658376734
20
19.16720936442708
30
0
10
0.67800095570746066
20
19.159035879849924
30
0
10
0.66603072216068426
20
19.150849460935007
30
0
10
0.65406381532710611
20
19.142683321285716
30
0
10
0.64209928940385907
20
19.134539323652575
30
0
10
0.63011547603167628
20
19.126382197464267
30
0
10
0.61813405148640754
20
19.118247284736611
30
0
10
0.6061540775114338
20
19.11013645474732
30
0
10
0.59420419779286249
20
19.102045999543265
30
0
10
0.58225576183559724
20
19.093979506062695
30
0
10
0.57030784092191311
20
19.08593883139055
30
0
10
0.55834022560034668
20
19.077884902836928
30
0
10
0.54637312737710886
20
19.069856878183131
30
0
10
0.534405610829225
20
19.061856626469904
30
0
10
0.52241858426540944
20
19.053843332364977
30
0
10
0.51043113827020647
20
19.045857901805334
30
0
10
0.49844232938937694
20
19.037902214292686
30
0
10
0.4865002144117625
20
19.029977512519096
30
0
10
0.4745567472694745
20
19.022082322632485
30
0
10
0.4626109921221655
20
19.014218501056135
30
0
10
0.45064626915134909
20
19.00634219307122
30
0
10
0.43867925106766847
20
18.998497353142056
30
0
10
0.4267089912997335
20
18.990685844908057
30
0
10
0.41471976048967463
20
18.98286195662088
30
0
10
0.40272727797059815
20
18.975071505742562
30
0
10
0.39073058126632532
20
18.967316364337208
30
0
10
0.37879656695864128
20
18.959601743323518
30
0
10
0.36685838270358317
20
18.951922063676392
30
0
10
0.35491506381674753
20
18.944279169884837
30
0
10
0.3429531678891351
20
18.936624388078513
30
0
10
0.33098612166014618
20
18.929006506568129
30
0
10
0.31901293472984094
20
18.921427380737725
30
0
10
0.3070213998309157
20
18.913836640492221
30
0
10
0.29502370568579295
20
18.906284774727737
30
0
10
0.28301883314284737
20
18.898773649586005
30
0
10
0.27109257518205254
20
18.891311711469143
30
0
10
0.25915923275391606
20
18.88388998208562
30
0
10
0.24721778039619835
20
18.876510293151583
30
0
10
0.23525889202119288
20
18.869119828946666
30
0
10
0.22329187029228592
20
18.861771527967619
30
0
10
0.21131565525479346
20
18.854467232862575
30
0
10
0.19932238410902414
20
18.847152535234812
30
0
10
0.18731989375936564
20
18.839881968787964
30
0
10
0.17530708502007997
20
18.832657388703495
30
0
10
0.16337787314199659
20
18.825483084306569
30
0
10
0.1514399600524996
20
18.81835509767896
30
0
10
0.13951980631503602
20
18.811291305160367
30
0
10
0.12754218093618874
20
18.804193455383853
30
0
10
0.11557518169993841
20
18.797156009405143
30
0
10
0.10361759370070445
20
18.790180163606962
30
0
10
0.091601076120184644
20
18.783169939331046
30
0
10
0.07959406301040417
20
18.776221923770535
30
0
10
0.067595336897028346
20
18.769337330639857
30
0
10
0.05566257650798434
20
18.762490587124887
30
0
10
0.04373801250793008
20
18.755706570482218
30
0
10
0.031820460004468032
20
18.748986474875906
30
0
10
0.019846342968463659
20
18.742234483537104
30
0
10
0.007879304401257059
20
18.735547021322247
30
0
10
-0.0040818475393678
20
18.728925300774932
30
0
10
-0.016098910325723637
20
18.72227262785799
30
0
10
-0.02811003104483234
20
18.715686312491613
30
0
10
-0.040116411226023274
20
18.70916758684487
30
0
10
-0.052042046355182947
20
18.702692700792838
30
0
10
-0.063963004203912988
20
18.69628449824944
30
0
10
-0.075880458419987917
20
18.689944190596819
30
0
10
-0.087851085426535747
20
18.683575594029023
30
0
10
-0.099818177169481714
20
18.67727549937257
30
0
10
-0.11178292208413154
20
18.671045139537839
30
0
10
-0.12379996688125061
20
18.664787545767965
30
0
10
-0.13581464397859122
20
18.658600297579255
30
0
10
-0.147828159349217
20
18.652484650932664
30
0
10
-0.15974733673644437
20
18.646417028345112
30
0
10
-0.17166537028089124
20
18.640419886979132
30
0
10
-0.18358344232737522
20
18.634494461659799
30
0
10
-0.19555056005984284
20
18.628544651813499
30
0
10
-0.20751771628937377
20
18.622667149215815
30
0
10
-0.21948611470634205
20
18.616863213514492
30
0
10
-0.23150238477498419
20
18.611036063012065
30
0
10
-0.24351990664499112
20
18.605283068779812
30
0
10
-0.25553990747226862
20
18.599605516873581
30
0
10
-0.26745343593773896
20
18.593978256341686
30
0
10
-0.27936939934306793
20
18.58842510723214
30
0
10
-0.29128900354820075
20
18.582947334749562
30
0
10
-0.30325257984287646
20
18.577449354456519
30
0
10
-0.31521982351790712
20
18.57202730757237
30
0
10
-0.32719196726588962
20
18.566682489109354
30
0
10
-0.33920650830580712
20
18.561318742889199
30
0
10
-0.35122598386237769
20
18.556032772612951
30
0
10
-0.36325165559532024
20
18.550825906235389
30
0
10
-0.37516050200494533
20
18.545669622799252
30
0
10
-0.38707542455554744
20
18.540590913414476
30
0
10
-0.3989976652127325
20
18.535591089241237
30
0
10
-0.4109575150175715
20
18.530575492938368
30
0
10
-0.42292045212846574
20
18.525641011828569
30
0
10
-0.43490099052363007
20
18.520783628519482
30
0
10
-0.44687343729407303
20
18.515929525874597
30
0
10
-0.4588942768772597
20
18.511139984904474
30
0
10
-0.47096340371851397
20
18.506418614387457
30
0
10
-0.4828322900475257
20
18.501775576765809
30
0
10
-0.49474787383829266
20
18.497198465834117
30
0
10
-0.5067101951729569
20
18.492690686142197
30
0
10
-0.51863165030681557
20
18.488198306122712
30
0
10
-0.53059952304280955
20
18.483774783848972
30
0
10
-0.54261400626614886
20
18.47942346620421
30
0
10
-0.55458797331866094
20
18.475086822409779
30
0
10
-0.56660823589737674
20
18.470821896348539
30
0
10
-0.57867515184142349
20
18.466631984919104
30
0
10
-0.59054706711719973
20
18.46250978221768
30
0
10
-0.60246413949386124
20
18.458460188492438
30
0
10
-0.61442688031931425
20
18.454486334023983
30
0
10
-0.62634939860714667
20
18.450525840917535
30
0
10
-0.63831727767691859
20
18.446640577572211
30
0
10
-0.65033119896256153
20
18.442833634386133
30
0
10
-0.66230375630595972
20
18.439039798509
30
0
10
-0.67432203823500458
20
18.435323743118204
30
0
10
-0.68638689996461721
20
18.431688520800975
30
0
10
-0.69826213782704372
20
18.428110433404115
30
0
10
-0.71018250224781809
20
18.424610656831817
30
0
10
-0.72214898950448969
20
18.421192105096225
30
0
10
-0.73407116738408718
20
18.417786211536296
30
0
10
-0.74603912651042492
20
18.414460940957369
30
0
10
-0.75805404335156368
20
18.411219200026778
30
0
10
-0.77002186796420347
20
18.407990165035599
30
0
10
-0.78203628269605474
20
18.404844004820262
30
0
10
-0.79409864808766883
20
18.401783640059222
30
0
10
-0.80597719053230321
20
18.398769913353945
30
0
10
-0.81790223381119631
20
18.395839386034467
30
0
10
-0.82987526433825565
20
18.392994907592737
30
0
10
-0.84179565200003026
20
18.390162935716958
30
0
10
-0.85376360579147104
20
18.387416256013225
30
0
10
-0.86578076236662582
20
18.384757732963095
30
0
10
-0.87774131072933415
20
18.38211173319479
30
0
10
-0.88975059915043175
20
18.379553059186193
30
0
10
-0.90181039621072046
20
18.377084582917291
30
0
10
-0.91371844924438506
20
18.374647166584666
30
0
10
-0.92565831856575187
20
18.372301384820489
30
0
10
-0.93760931295904015
20
18.370053055881783
30
0
10
-0.94956027498042772
20
18.36780473303314
30
0
10
-0.96152894576320591
20
18.365652505463927
30
0
10
-0.97351598992872823
20
18.363597811404802
30
0
10
-0.98549943126840844
20
18.361543734904444
30
0
10
-0.99750123522071021
20
18.359587133959536
30
0
10
-1.0095221443337721
20
18.357729476521527
30
0
10
-1.0214433293802472
20
18.355887229993968
30
0
10
-1.0333833044310836
20
18.354142293698175
30
0
10
-1.0453428662552255
20
18.352496117791475
30
0
10
-1.0572917365232115
20
18.350851413525788
30
0
10
-1.0692601574876903
20
18.349305292043994
30
0
10
-1.081248983986427
20
18.347859157198627
30
0
10
-1.0932232928713859
20
18.346414773519442
30
0
10
-1.1052179557316322
20
18.345070129677481
30
0
10
-1.1172338924568237
20
18.343826562478256
30
0
10
-1.1291655520859933
20
18.342591717381538
30
0
10
-1.1411181866027675
20
18.341456529430431
30
0
10
-1.1530927856108519
20
18.340422302471495
30
0
10
-1.1650403481668548
20
18.339390410607663
30
0
10
-1.177009776901059
20
18.338459023279583
30
0
10
-1.1890021567104725
20
18.337629528778336
30
0
10
-1.2009601097764744
20
18.336802415522087
30
0
10
-1.212940884189635
20
18.336076618080597
30
0
10
-1.2249456405798753
20
18.335453591522253
30
0
10
-1.2368780780101929
20
18.334834318195732
30
0
10
-1.2488342100238015
20
18.334316594564655
30
0
10
-1.2608152420926899
20
18.333901790163623
30
0
10
-1.2727564104534395
20
18.333488365914263
30
0
10
-1.2847223119904072
20
18.333177187886776
30
0
10
-1.2967142171986268
20
18.332969429757853
30
0
10
-1.3086718242230688
20
18.332762265840259
30
0
10
-1.3206640615570109
20
18.332657985430458
30
0
10
-1.3326573887029269
20
18.332657388703311
30
0
0
SPLINE
5
118
100
AcDbEntity
8
OUTER_PROFILES
100
AcDbSpline
70
0
71
3
72
14
73
10
74
0
42
0.000000001
43
0.0000000001
44
0.0000000001
40
0
40
0
40
0
40
0
40
0.0035294939520778613
40
0.0035294939520778613
40
0.0035294939520778613
40
0.0070633765322758195
40
0.0070633765322758195
40
0.0070633765322758195
40
0.010030481273008204
40
0.010030481273008204
40
0.010030481273008204
40
0.010030481273008204
10
0.92928932188158342
20
19.332657388703538
30
0
10
0.91730985224927508
20
19.324338270785972
30
0
10
0.9053406852211765
20
19.316026324851663
30
0
10
0.89338074131049439
20
19.307723379320905
30
0
10
0.88140592621812175
20
19.299410109777497
30
0
10
0.86944035639433537
20
19.291105863706335
30
0
10
0.85748298436627124
20
19.282812471913502
30
0
10
0.84744338219323367
20
19.275849206568125
30
0
10
0.83740956016313817
20
19.268893592661556
30
0
10
0.82738091769684274
20
19.261946710584965
30
0
0
ARC
5
119
100
AcDbEntity
8
OUTER_PROFILES
100
AcDbCircle
10
0.9646446609409054
20
19.297302049644287
30
0
40
0.04999999999999237
210
0
220
0
230
1
100
AcDbArc
50
-45.000000000057561
51
135.00000000005758
0
SPLINE
5
120
100
AcDbEntity
8
OUTER_PROFILES
100
AcDbSpline
70
0
71
3
72
14
73
10
74
0
42
0.000000001
43
0.0000000001
44
0.0000000001
40
0.18027200186445164
40
0.18027200186445164
40
0.18027200186445164
40
0.18027200186445164
40
0.1831946916639472
40
0.1831946916639472
40
0.1831946916639472
40
0.18668329125083893
40
0.18668329125083893
40
0.18668329125083893
40
0.19017594546785976
40
0.19017594546785976
40
0.19017594546785976
40
0.19017594546785976
10
0.9292893218812992
20
19.160038306549225
30
0
10
0.93624308938956347
20
19.170076889179199
30
0
10
0.94319873096537776
20
19.180110738735792
30
0
10
0.95015508274258309
20
19.190140373065745
30
0
10
0.9584583675935221
20
19.202112008983576
30
0
10
0.96676266472627503
20
19.214077639027636
30
0
10
0.97506599012092465
20
19.22603813000336
30
0
10
0.98337896606807362
20
19.238012522077739
30
0
10
0.99169096728289219
20
19.249981763930464
30
0
10
1.0000000000002274
20
19.261946710584823
30
0
0
SPLINE
5
121
100
AcDbEntity
8
OUTER_PROFILES
100
AcDbSpline
70
0
71
3
72
185
73
181
74
0
42
0.000000001
43
0.0000000001
44
0.0000000001
40
0
40
0
40
0
40
0
40
0.0025011934858485555
40
0.0025011934858485555
40
0.0025011934858485555
40
0.0050092895139193655
40
0.0050092895139193655
40
0.0050092895139193655
40
0.0075248866815134903
40
0.0075248866815134903
40
0.0075248866815134903
40
0.010054850276263093
40
0.010054850276263093
40
0.010054850276263093
40
0.012591210374541013
40
0.012591210374541013
40
0.012591210374541013
40
0.015132415103372215
40
0.015132415103372215
40
0.015132415103372215
40
0.017690657288177446
40
0.017690657288177446
40
0.017690657288177446
40
0.020251074782897085
40
0.020251074782897085
40
0.020251074782897085
40
0.022812842352760692
40
0.022812842352760692
40
0.022812842352760692
40
0.025395070256743514
40
0.025395070256743514
40
0.025395070256743514
40
0.027977081424073152
40
0.027977081424073152
40
0.027977081424073152
40
0.030565127379173444
40
0.030565127379173444
40
0.030565127379173444
40
0.033190465984736801
40
0.033190465984736801
40
0.033190465984736801
40
0.035827158962742099
40
0.035827158962742099
40
0.035827158962742099
40
0.038474512220615917
40
0.038474512220615917
40
0.038474512220615917
40
0.041161930377418929
40
0.041161930377418929
40
0.041161930377418929
40
0.043859118441948404
40
0.043859118441948404
40
0.043859118441948404
40
0.046565633265838596
40
0.046565633265838596
40
0.046565633265838596
40
0.049314766181678363
40
0.049314766181678363
40
0.049314766181678363
40
0.052072905068496489
40
0.052072905068496489
40
0.052072905068496489
40
0.054839966218367349
40
0.054839966218367349
40
0.054839966218367349
40
0.057652195098184388
40
0.057652195098184388
40
0.057652195098184388
40
0.060473965711154924
40
0.060473965711154924
40
0.060473965711154924
40
0.063307068375549475
40
0.063307068375549475
40
0.063307068375549475
40
0.066189344688381099
40
0.066189344688381099
40
0.066189344688381099
40
0.069082804319117827
40
0.069082804319117827
40
0.069082804319117827
40
0.071987125663582743
40
0.071987125663582743
40
0.071987125663582743
40
0.074940644734853873
40
0.074940644734853873
40
0.074940644734853873
40
0.077904972364626693
40
0.077904972364626693
40
0.077904972364626693
40
0.080880100122907417
40
0.080880100122907417
40
0.080880100122907417
40
0.083904485273549226
40
0.083904485273549226
40
0.083904485273549226
40
0.086940276611200615
40
0.086940276611200615
40
0.086940276611200615
40
0.08998781176106399
40
0.08998781176106399
40
0.08998781176106399
40
0.093084934433221619
40
0.093084934433221619
40
0.093084934433221619
40
0.096195139512715439
40
0.096195139512715439
40
0.096195139512715439
40
0.099319133822036026
40
0.099319133822036026
40
0.099319133822036026
40
0.10249211626878406
40
0.10249211626878406
40
0.10249211626878406
40
0.10567378569888772
40
0.10567378569888772
40
0.10567378569888772
40
0.10886331401880529
40
0.10886331401880529
40
0.10886331401880529
40
0.11209364900004669
40
0.11209364900004669
40
0.11209364900004669
40
0.1153314095347419
40
0.1153314095347419
40
0.1153314095347419
40
0.11857638589752403
40
0.11857638589752403
40
0.11857638589752403
40
0.12185868612147298
40
0.12185868612147298
40
0.12185868612147298
40
0.1251481022365388
40
0.1251481022365388
40
0.1251481022365388
40
0.12844460838547353
40
0.12844460838547353
40
0.12844460838547353
40
0.13177501767591202
40
0.13177501767591202
40
0.13177501767591202
40
0.13511273787122854
40
0.13511273787122854
40
0.13511273787122854
40
0.13845790744953895
40
0.13845790744953895
40
0.13845790744953895
40
0.14183368241718142
40
0.14183368241718142
40
0.14183368241718142
40
0.14521751419351014
40
0.14521751419351014
40
0.14521751419351014
40
0.14860974571715169
40
0.14860974571715169
40
0.14860974571715169
40
0.1520295363768977
40
0.1520295363768977
40
0.1520295363768977
40
0.155458563679821
40
0.155458563679821
40
0.155458563679821
40
0.15889710809869623
40
0.15889710809869623
40
0.15889710809869623
40
0.16235481376628824
40
0.16235481376628824
40
0.16235481376628824
40
0.16581502953286345
40
0.16581502953286345
40
0.16581502953286345
40
0.16927782239306782
40
0.16927782239306782
40
0.16927782239306782
40
0.17275276080858851
40
0.17275276080858851
40
0.17275276080858851
40
0.1762298647381563
40
0.1762298647381563
40
0.1762298647381563
40
0.18027200186444328
40
0.18027200186444328
40
0.18027200186444328
40
0.18027200186444328
10
5.6843418860808015e-13
20
17.000000000000597
30
0
10
5.9713769928748661e-07
20
17.012005728701851
30
0
10
0.0001048902505829119
20
17.023986340976904
30
0
10
0.00031204065393808378
20
17.035943171464965
30
0
10
0.00051976273013565333
20
17.047932999211213
30
0
10
0.00083090519865436363
20
17.059898911234583
30
0
10
0.0012444010836532016
20
17.071842146580423
30
0
10
0.0016591336400040291
20
17.083821101401782
30
0
10
0.0021768219731654881
20
17.095777242181285
30
0
10
0.0027962028192973776
20
17.107711748123648
30
0
10
0.0034191209128664468
20
17.119714411326044
30
0
10
0.0041448828739021337
20
17.131695192512808
30
0
10
0.0049721406259095602
20
17.143655231999446
30
0
10
0.0058014899326508385
20
17.155645510037729
30
0
10
0.0067328416548662062
20
17.167614943193215
30
0
10
0.0077649147522151907
20
17.179564603035189
30
0
10
0.0087989591835935244
20
17.191537087588529
30
0
10
0.0099341111453554731
20
17.203489723964864
30
0
10
0.011169174809708693
20
17.215423496016129
30
0
10
0.012412518933615502
20
17.227437277801982
30
0
10
0.013757125627194
20
17.239431939825351
30
0
10
0.015201769137149768
20
17.251408404211048
30
0
10
0.016647641048166406
20
17.263395052355648
30
0
10
0.018193724747277429
20
17.275363469731957
30
0
10
0.019838729122625409
20
17.287314521677999
30
0
10
0.021484600887760053
20
17.299271875259663
30
0
10
0.023229498752925792
20
17.311211844033068
30
0
10
0.025072087390043407
20
17.323135243519374
30
0
10
0.026929392420669274
20
17.335153872854008
30
0
10
0.028885953300488154
20
17.347155667714205
30
0
10
0.030940422183505234
20
17.359141398113067
30
0
10
0.032994718626753183
20
17.371126122501934
30
0
10
0.035147036540621457
20
17.383095479326087
30
0
10
0.0373956668860842
20
17.395048075428576
30
0
10
0.039649552827256684
20
17.407028607653743
30
0
10
0.041994302821422025
20
17.418961046462726
30
0
10
0.044427194214193833
20
17.430846992492732
30
0
10
0.04689514254565097
20
17.44290420999107
30
0
10
0.049453793087792519
20
17.454913585049283
30
0
10
0.052100344404948373
20
17.466876626499186
30
0
10
0.054758341837697344
20
17.478891407114432
30
0
10
0.0575050042868952
20
17.490859451831682
30
0
10
0.060337518997926054
20
17.502782124505316
30
0
10
0.063181485705712248
20
17.51475300113313
30
0
10
0.06611200189965416
20
17.526678137681557
30
0
10
0.069126251356266266
20
17.538558740615997
30
0
10
0.072186118298702695
20
17.550619143943322
30
0
10
0.075332273107449055
20
17.562633655728632
30
0
10
0.078561811261579351
20
17.574603345220225
30
0
10
0.081803090160121883
20
17.586616549622818
30
0
10
0.085128361002233532
20
17.598584604751224
30
0
10
0.088534716345520792
20
17.61050839905856
30
0
10
0.091952850717973433
20
17.622473425329517
30
0
10
0.095452632635470991
20
17.634393883262547
30
0
10
0.099031132097877617
20
17.646270488738978
30
0
10
0.10266598034419872
20
17.658334108991696
30
0
10
0.10638204590662781
20
17.670352484083693
30
0
10
0.11017624571124429
20
17.682326189990363
30
0
10
0.1139828750544325
20
17.694339120936746
30
0
10
0.11786815252307292
20
17.706307088278734
30
0
10
0.12182894534277011
20
17.718230508916264
30
0
10
0.1258025508731464
20
17.730192500452375
30
0
10
0.12985216197876071
20
17.742109655431477
30
0
10
0.13397459621614871
20
17.753982237570867
30
0
10
0.13816432242379051
20
17.766048620119648
30
0
10
0.14242926925589927
20
17.778068962053553
30
0
10
0.14676607748825177
20
17.790043383070824
30
0
10
0.15111760026513821
20
17.802058432619745
30
0
10
0.15554205920025765
20
17.814028768825949
30
0
10
0.16003329742929395
20
17.825947193856422
30
0
10
0.16454257218555313
20
17.837913482524286
30
0
10
0.16911950961898015
20
17.849828477010092
30
0
10
0.17376122568435903
20
17.861693984985152
30
0
10
0.17848350717258654
20
17.873765440427221
30
0
10
0.18327283676086381
20
17.885785676775328
30
0
10
0.18812623982199739
20
17.897756398038283
30
0
10
0.19299847423141614
20
17.90977356605616
30
0
10
0.19793528161073937
20
17.921740833544249
30
0
10
0.20293370054247362
20
17.933659723391671
30
0
10
0.20795088296239328
20
17.945623355376839
30
0
10
0.21303014151627053
20
17.957538245276439
30
0
10
0.21816851753229116
20
17.969405733108132
30
0
10
0.22339393502520011
20
17.981474250149461
30
0
10
0.22868049072584995
20
17.993493745408102
30
0
10
0.23402510040369862
20
18.005465421494478
30
0
10
0.23938926896192925
20
18.017480908559662
30
0
10
0.24481191807723235
20
18.029448225075413
30
0
10
0.25028994604468835
20
18.041368385200443
30
0
10
0.25578793246921805
20
18.053331974823621
30
0
10
0.26134170276222335
20
18.065248063025479
30
0
10
0.26694812817055436
20
18.077117481231255
30
0
10
0.27264737577624487
20
18.089183414221282
30
0
10
0.2784010371105694
20
18.101201118631636
30
0
10
0.28420582481260226
20
18.113171273970821
30
0
10
0.29003250473095932
20
18.125186573636398
30
0
10
0.29591069789745461
20
18.137153964046249
30
0
10
0.30183707295805107
20
18.149073946355969
30
0
10
0.30778637391449593
20
18.161040040541678
30
0
10
0.31378423065504535
20
18.172958358300448
30
0
10
0.31982726222977931
20
18.184829229354236
30
0
10
0.32596862210851896
20
18.19689325554954
30
0
10
0.33215663920515226
20
18.2089082779747
30
0
10
0.3383877508332489
20
18.220874466631116
30
0
10
0.3446451830011199
20
18.232891201091093
30
0
10
0.35094607473368455
20
18.244858687563408
30
0
10
0.35728680189151873
20
18.256776930292347
30
0
10
0.36365564093969738
20
18.268748013070066
30
0
10
0.37006466952647088
20
18.280669413741464
30
0
10
0.37651019814163078
20
18.292540977477287
30
0
10
0.38305680070578774
20
18.304598702178367
30
0
10
0.38964034185241303
20
18.316603822653619
30
0
10
0.39626791207496126
20
18.328575541159111
30
0
10
0.40291362724261148
20
18.340580035805445
30
0
10
0.40960142205889838
20
18.352546874048912
30
0
10
0.41632908617685871
20
18.364477848704652
30
0
10
0.42307336797676953
20
18.376438293491546
30
0
10
0.42985771692414687
20
18.388362696968983
30
0
10
0.43667994193683057
20
18.400252725600552
30
0
10
0.44358945014550955
20
18.412294874647088
30
0
10
0.45053781031327844
20
18.424301763511934
30
0
10
0.45752277489754078
20
18.436274982405578
30
0
10
0.46452379578184377
20
18.448275724072332
30
0
10
0.47156159006902953
20
18.460242640388103
30
0
10
0.47863391644924036
20
18.472177195019697
30
0
10
0.48572200455453185
20
18.484138347570962
30
0
10
0.49284477928154047
20
18.496066993603435
30
0
10
0.5000000000003979
20
18.507964473723391
30
0
10
0.50723752038337011
20
18.519998799184165
30
0
10
0.51450823780612609
20
18.532001237415443
30
0
10
0.5218098441733332
20
18.543973043957678
30
0
10
0.52912728012103116
20
18.555970804881312
30
0
10
0.53647573938874871
20
18.567937800719321
30
0
10
0.54385290446646195
20
18.579875169099367
30
0
10
0.5512459703449224
20
18.591838267378975
30
0
10
0.55866786612867259
20
18.603771609940267
30
0
10
0.5661162608831205
20
18.615676221846371
30
0
10
0.57364125915967179
20
18.627703267542586
30
0
10
0.58119330442991668
20
18.63970098834514
30
0
10
0.58876999200421665
20
18.651670323434004
30
0
10
0.59636331190120018
20
18.663665933572844
30
0
10
0.60398138255152389
20
18.675633032816776
30
0
10
0.61162178114201993
20
18.687572452521266
30
0
10
0.61927923216714476
20
18.699538519549321
30
0
10
0.62695911103602953
20
18.711476782905194
30
0
10
0.63465897563389717
20
18.723387969969494
30
0
10
0.64242928728930337
20
18.735408134025633
30
0
10
0.65021995215857942
20
18.747400723739176
30
0
10
0.6580284562737404
20
18.759366380000841
30
0
10
0.66585559659074534
20
18.771360594150508
30
0
10
0.67370066140810536
20
18.783327745772738
30
0
10
0.68156111244377371
20
18.795268380822776
30
0
10
0.68944107562046497
20
18.807238656328877
30
0
10
0.69733650139539805
20
18.819182283203659
30
0
10
0.70524482558937507
20
18.831099718092332
30
0
10
0.71321739851796906
20
18.843113972495757
30
0
10
0.7212030801466085
20
18.855101607483959
30
0
10
0.72919923760167649
20
18.867062999537367
30
0
10
0.73721699218381787
20
18.879056698571262
30
0
10
0.74524527918100603
20
18.891024012386453
30
0
10
0.75328144245958129
20
18.902965229631121
30
0
10
0.76133990975932875
20
18.914939589204209
30
0
10
0.76940371364742077
20
18.926883894061177
30
0
10
0.77747906604400896
20
18.938811466215597
30
0
10
0.78559941824778434
20
18.950805504626871
30
0
10
0.79373435244548318
20
18.962786885083318
30
0
10
0.80188193548764275
20
18.974756678099638
30
0
10
0.81003543321472193
20
18.986735160509411
30
0
10
0.81820159821702987
20
18.998702038386952
30
0
10
0.82637849229016069
20
19.010658344398337
30
0
10
0.8345614763366882
20
19.022623555206977
30
0
10
0.84275520526446712
20
19.034578178452222
30
0
10
0.85095773382420248
20
19.046523214338791
30
0
10
0.85918903230123078
20
19.058510146781131
30
0
10
0.8674291920938515
20
19.070487424521332
30
0
10
0.87567624624128371
20
19.082456023971091
30
0
10
0.88392843979235636
20
19.094432082019352
30
0
10
0.89218753636600923
20
19.106399450640055
30
0
10
0.90045156731264342
20
19.118359072272781
30
0
10
0.91005851233902035
20
19.132262145519121
30
0
10
0.9196721254831175
20
19.146154750534805
30
0
10
0.9292893218812992
20
19.160038306549225
30
0
0
LINE
5
122
100
AcDbEntity
8
OUTER_PROFILES
100
AcDbLine
10
5.6843418860808015e-13
20
17.000000000000597
30
0
11
0
21
0
31
0
0
LINE
5
123
100
AcDbEntity
8
OUTER_PROFILES
100
AcDbLine
10
0
20
0
30
0
11
770.85857864376294
21
7.1054273576010019e-14
31
0
0
LINE
5
124
100
AcDbEntity
8
OUTER_PROFILES
100
AcDbLine
10
770.85857864376294
20
7.1054273576010019e-14
30
0
11
770.85857864376237
21
17.000000000000028
31
0
0
SPLINE
5
125
100
AcDbEntity
8
OUTER_PROFILES
100
AcDbSpline
70
0
71
3
72
185
73
181
74
0
42
0.000000001
43
0.0000000001
44
0.0000000001
40
0.010030481018209234
40
0.010030481018209234
40
0.010030481018209234
40
0.010030481018209234
40
0.014143719579459773
40
0.014143719579459773
40
0.014143719579459773
40
0.017690941166702934
40
0.017690941166702934
40
0.017690941166702934
40
0.021244222288454028
40
0.021244222288454028
40
0.021244222288454028
40
0.02479332473537274
40
0.02479332473537274
40
0.02479332473537274
40
0.028348043471328337
40
0.028348043471328337
40
0.028348043471328337
40
0.031908492551188723
40
0.031908492551188723
40
0.031908492551188723
40
0.035459997584296681
40
0.035459997584296681
40
0.035459997584296681
40
0.039017356724316964
40
0.039017356724316964
40
0.039017356724316964
40
0.042580515195577665
40
0.042580515195577665
40
0.042580515195577665
40
0.046129795852177323
40
0.046129795852177323
40
0.046129795852177323
40
0.049684712101321762
40
0.049684712101321762
40
0.049684712101321762
40
0.05324526229700334
40
0.05324526229700334
40
0.05324526229700334
40
0.056787208670649673
40
0.056787208670649673
40
0.056787208670649673
40
0.060334664259204265
40
0.060334664259204265
40
0.060334664259204265
40
0.063887555994284806
40
0.063887555994284806
40
0.063887555994284806
40
0.067417181365215698
40
0.067417181365215698
40
0.067417181365215698
40
0.070951960377448067
40
0.070951960377448067
40
0.070951960377448067
40
0.074491773444640252
40
0.074491773444640252
40
0.074491773444640252
40
0.078006952994680509
40
0.078006952994680509
40
0.078006952994680509
40
0.081539080581057077
40
0.081539080581057077
40
0.081539080581057077
40
0.085088615264053355
40
0.085088615264053355
40
0.085088615264053355
40
0.088618635580233793
40
0.088618635580233793
40
0.088618635580233793
40
0.092165410513498275
40
0.092165410513498275
40
0.092165410513498275
40
0.095728764390672474
40
0.095728764390672474
40
0.095728764390672474
40
0.099268154083024154
40
0.099268154083024154
40
0.099268154083024154
40
0.10282333568050386
40
0.10282333568050386
40
0.10282333568050386
40
0.10639405757237111
40
0.10639405757237111
40
0.10639405757237111
40
0.109936739825841
40
0.109936739825841
40
0.109936739825841
40
0.11349400106093771
40
0.11349400106093771
40
0.11349400106093771
40
0.1170654907698661
40
0.1170654907698661
40
0.1170654907698661
40
0.12060534446830874
40
0.12060534446830874
40
0.12060534446830874
40
0.12415825689197736
40
0.12415825689197736
40
0.12415825689197736
40
0.12772375135109071
40
0.12772375135109071
40
0.12772375135109071
40
0.13125460824628032
40
0.13125460824628032
40
0.13125460824628032
40
0.13479660336557425
40
0.13479660336557425
40
0.13479660336557425
40
0.13833620623363629
40
0.13833620623363629
40
0.13833620623363629
40
0.14181708307289606
40
0.14181708307289606
40
0.14181708307289606
40
0.14528606838986702
40
0.14528606838986702
40
0.14528606838986702
40
0.14874335532603811
40
0.14874335532603811
40
0.14874335532603811
40
0.1521447727040208
40
0.1521447727040208
40
0.1521447727040208
40
0.15553475343543968
40
0.15553475343543968
40
0.15553475343543968
40
0.15891306246004894
40
0.15891306246004894
40
0.15891306246004894
40
0.1622382744799355
40
0.1622382744799355
40
0.1622382744799355
40
0.16555117394155303
40
0.16555117394155303
40
0.16555117394155303
40
0.16885108855947775
40
0.16885108855947775
40
0.16885108855947775
40
0.17210071453092324
40
0.17210071453092324
40
0.17210071453092324
40
0.17533605258915388
40
0.17533605258915388
40
0.17533605258915388
40
0.17855615021163962
40
0.17855615021163962
40
0.17855615021163962
40
0.181735730520167
40
0.181735730520167
40
0.181735730520167
40
0.18491530221580255
40
0.18491530221580255
40
0.18491530221580255
40
0.18809391825908311
40
0.18809391825908311
40
0.18809391825908311
40
0.19124616487230672
40
0.19124616487230672
40
0.19124616487230672
40
0.1943955934536854
40
0.1943955934536854
40
0.1943955934536854
40
0.19754120830130273
40
0.19754120830130273
40
0.19754120830130273
40
0.20066476050861198
40
0.20066476050861198
40
0.20066476050861198
40
0.20378126030642107
40
0.20378126030642107
40
0.20378126030642107
40
0.20688881351086694
40
0.20688881351086694
40
0.20688881351086694
40
0.20997764621698792
40
0.20997764621698792
40
0.20997764621698792
40
0.21305620165059663
40
0.21305620165059663
40
0.21305620165059663
40
0.21612595207081114
40
0.21612595207081114
40
0.21612595207081114
40
0.21612595207081114
10
769.92928932188136
20
19.160038306293714
30
0
10
769.93891964758416
20
19.146135797240262
30
0
10
769.94853319418621
20
19.13224324248155
30
0
10
769.95812707782943
20
19.118359072315485
30
0
10
769.96640076063625
20
19.106385483280732
30
0
10
769.9746598195602
20
19.09441813065591
30
0
10
769.98290240007589
20
19.082456023995817
30
0
10
769.99115906096404
20
19.070473483089785
30
0
10
769.9993991871587
20
19.058496206376958
30
0
10
770.00762091285412
20
19.046523214333888
30
0
10
770.01583296976264
20
19.034564302584229
30
0
10
770.02402666924866
20
19.022609665403678
30
0
10
770.03220015375496
20
19.010658344383131
30
0
10
770.04038657241904
20
18.998688110954589
30
0
10
770.04855271185806
20
18.9867212041095
30
0
10
770.05669670935072
20
18.974756678092604
30
0
10
770.06485383528207
20
18.962772864797586
30
0
10
770.0729887478235
20
18.950791440247201
30
0
10
770.08109957771876
20
18.938811466218297
30
0
10
770.08919003275673
20
18.926861586552661
30
0
10
770.09725652616351
20
18.914913150599801
30
0
10
770.10529720084821
20
18.90296522963844
30
0
10
770.11335112934194
20
18.890997614376772
30
0
10
770.1213791540232
20
18.879030516160995
30
0
10
770.12937940583117
20
18.867062999542838
30
0
10
770.13739269992925
20
18.855075973060664
30
0
10
770.14537813055028
20
18.843088527069156
30
0
10
770.15333381817368
20
18.831099718092261
30
0
10
770.16125851992911
20
18.819157603212844
30
0
10
770.16915370984748
20
18.807214136069632
30
0
10
770.17701753150141
20
18.795268380819152
30
0
10
770.18489383943052
20
18.783303657948025
30
0
10
770.19273867935055
20
18.771336639861431
30
0
10
770.20055018762764
20
18.75936637999807
30
0
10
770.20837407583622
20
18.747377149278748
30
0
10
770.21616452668945
20
18.735384666757682
30
0
10
770.22391966812916
20
18.723387969968925
30
0
10
770.23163428906969
20
18.711453955743167
30
0
10
770.23931396870375
20
18.699515771488819
30
0
10
770.24695686254222
20
18.687572452522474
30
0
10
770.25461164429203
20
18.675610556676574
30
0
10
770.26222952580702
20
18.663643510449077
30
0
10
770.26980865169878
20
18.651670323434857
30
0
10
770.27739939189769
20
18.639678788622547
30
0
10
770.28495125767358
20
18.627681094478845
30
0
10
770.29246238288022
20
18.615676221846087
30
0
10
770.29992432094946
20
18.603749963975389
30
0
10
770.30734605033911
20
18.591816621547679
30
0
10
770.31472573933127
20
18.579875169098656
30
0
10
770.32211620348119
20
18.567916280815453
30
0
10
770.32946450445888
20
18.555949259086546
30
0
10
770.33676879961615
20
18.543973043957394
30
0
10
770.34408349718433
20
18.531979772903426
30
0
10
770.35135406362667
20
18.51997728255391
30
0
10
770.35857864376237
20
18.507964473722964
30
0
10
770.36575294813076
20
18.496035261886234
30
0
10
770.37288093478264
20
18.484097348751973
30
0
10
770.37994472729815
20
18.472177195018062
30
0
10
770.38704257708196
20
18.460199569625644
30
0
10
770.39408002306129
20
18.448232570389536
30
0
10
770.40105586885352
20
18.436274982403305
30
0
10
770.40806609313813
20
18.424258464810421
30
0
10
770.41501410870057
20
18.412251451701067
30
0
10
770.42189870182597
20
18.400252725599984
30
0
10
770.42874544534925
20
18.388319965199571
30
0
10
770.43552946199281
20
18.376395401199801
30
0
10
770.44224955759319
20
18.364477848707708
30
0
10
770.44900154893878
20
18.352503731660477
30
0
10
770.45568901115314
20
18.340536693092773
30
0
10
770.46231073169349
20
18.328575541163517
30
0
10
770.46896340461615
20
18.316558478365721
30
0
10
770.47554971998136
20
18.304547357646612
30
0
10
770.48206844562117
20
18.292540977476861
30
0
10
770.48854333167856
20
18.280615342336475
30
0
10
770.49495153422129
20
18.268694384487887
30
0
10
770.50129184186767
20
18.256776930283252
30
0
10
770.50766043844135
20
18.244806303265619
30
0
10
770.51396053309782
20
18.232839211523171
30
0
10
770.52019089292708
20
18.220874466619534
30
0
10
770.52644848670298
20
18.208857421811402
30
0
10
770.53263573489198
20
18.196842744714132
30
0
10
770.53875138153342
20
18.184829229354023
30
0
10
770.54481900412668
20
18.172910051955995
30
0
10
770.55081614549272
20
18.160992018411264
30
0
10
770.55674157080705
20
18.149073946374799
30
0
10
770.56269138065841
20
18.137106828632028
30
0
10
770.56856888325592
20
18.125139672402639
30
0
10
770.57437281895216
20
18.113171273996045
30
0
10
770.5801999694595
20
18.101155003917313
30
0
10
770.58595296369117
20
18.08913748204759
30
0
10
770.59163051559221
20
18.077117481230829
30
0
10
770.59725777612857
20
18.065203952755482
30
0
10
770.6028109252378
20
18.053287989350295
30
0
10
770.60828869771569
20
18.041368385155394
30
0
10
770.61378667801341
20
18.029404808850487
30
0
10
770.61920872489736
20
18.017437565175243
30
0
10
770.624553543356
20
18.005465421437208
30
0
10
770.62991728958082
20
17.993450880387059
30
0
10
770.63520325985689
20
17.981431404830488
30
0
10
770.64041012623034
20
17.969405733107422
30
0
10
770.64556640967101
20
17.957496886688062
30
0
10
770.65064511905575
20
17.945581964137176
30
0
10
770.65564494322484
20
17.933659723489797
30
0
10
770.66066053953205
20
17.921699873674939
30
0
10
770.66559502064229
20
17.90973693656305
30
0
10
770.6704524039468
20
17.897756398178686
30
0
10
770.6753065065916
20
17.885783951408456
30
0
10
770.68009604756162
20
17.873763111825482
30
0
10
770.68481741807841
20
17.861693984984655
30
0
10
770.6894604557001
20
17.849825098655785
30
0
10
770.69403756663166
20
17.837909514865302
30
0
10
770.69854534632339
20
17.825947193530922
30
0
10
770.70303772634304
20
17.814025738397063
30
0
10
770.70746124861682
20
17.802057865660998
30
0
10
770.71181256626164
20
17.790043382437801
30
0
10
770.71614921005619
20
17.778069415384934
30
0
10
770.7204141361176
20
17.766049152806005
30
0
10
770.72460404754702
20
17.753982236861674
30
0
10
770.72872625024854
20
17.742110321585542
30
0
10
770.73277584397385
20
17.730193249208597
30
0
10
770.73674969844251
20
17.718230508382931
30
0
10
770.74071019154883
20
17.706307990094956
30
0
10
770.74459545489401
20
17.694340111025113
30
0
10
770.74840239807997
20
17.682326189739612
30
0
10
770.75219623395697
20
17.670353632396285
30
0
10
770.75591228934752
20
17.658335350467524
30
0
10
770.75954751166466
20
17.646270488738409
30
0
10
770.7631255990616
20
17.634395250876054
30
0
10
770.76662537563402
20
17.622474886455421
30
0
10
770.77004392736978
20
17.610508399199176
30
0
10
770.77344982092984
20
17.598586221319508
30
0
10
770.77677509150874
20
17.586618262193241
30
0
10
770.78001683243906
20
17.574603345352173
30
0
10
770.78324586743042
20
17.562635520739178
30
0
10
770.78639202764566
20
17.550621106007114
30
0
10
770.78945239240636
20
17.5385587406155
30
0
10
770.79246611911162
20
17.52668019817051
30
0
10
770.79539664643085
20
17.514755154891475
30
0
10
770.79824112487233
20
17.502782124364558
30
0
10
770.80107309674815
20
17.49086173670257
30
0
10
770.80381977645175
20
17.478893782911271
30
0
10
770.80647829950203
20
17.466876626336401
30
0
10
770.80912429927048
20
17.454916077973479
30
0
10
770.81168297327952
20
17.44290678955231
30
0
10
770.8141514495486
20
17.430846992492377
30
0
10
770.81658886588104
20
17.418938939460418
30
0
10
770.81893464764551
20
17.406999070138198
30
0
10
770.8211829765844
20
17.39504807574427
30
0
10
770.82343129943285
20
17.383097113723309
30
0
10
770.82558352700221
20
17.371128442940602
30
0
10
770.82763822106142
20
17.359141398774511
30
0
10
770.82969229756145
20
17.347157957435471
30
0
10
770.83164889850639
20
17.335156153483098
30
0
10
770.83350655594415
20
17.323135244369325
30
0
10
770.83534880247146
20
17.31121405932349
30
0
10
770.83709373876684
20
17.299274084272582
30
0
10
770.8387399146734
20
17.287314522447801
30
0
10
770.84038461893886
20
17.275365652180525
30
0
10
770.84193074042048
20
17.263397231216047
30
0
10
770.84337687526613
20
17.25140840471667
30
0
10
770.84482125894533
20
17.239434095832493
30
0
10
770.84616590278767
20
17.227439432972389
30
0
10
770.84740946998761
20
17.215423496246345
30
0
10
770.84864431508493
20
17.203491836618028
30
0
10
770.84977950303698
20
17.191539202101254
30
0
10
770.8508137299965
20
17.179564603092174
30
0
10
770.85184562186078
20
17.167617040537166
30
0
10
770.85277700918925
20
17.155647611803104
30
0
10
770.85360650369012
20
17.143655231992554
30
0
10
770.85443361694604
20
17.131697278927618
30
0
10
770.85515941438643
20
17.119716504514457
30
0
10
770.85578244094359
20
17.107711748123222
30
0
10
770.85640171426894
20
17.095779310693899
30
0
10
770.85691943789857
20
17.083823178680504
30
0
10
770.85733424229875
20
17.071842146610692
30
0
10
770.85774766654708
20
17.059900978251008
30
0
10
770.85805884457409
20
17.047935076713969
30
0
10
770.85826660270368
20
17.035943171504684
30
0
10
770.85847376662161
20
17.023985564487631
30
0
10
770.85857804703278
20
17.011993327196535
30
0
10
770.85857864376237
20
17.000000000000171
30
0
0
SPLINE
5
126
100
AcDbEntity
8
OUTER_PROFILES
100
AcDbSpline
70
0
71
3
72
14
73
10
74
0
42
0.000000001
43
0.0000000001
44
0.0000000001
40
0
40
0
40
0
40
0
40
0.0035294938857884412
40
0.0035294938857884412
40
0.0035294938857884412
40
0.0070633763697453642
40
0.0070633763697453642
40
0.0070633763697453642
40
0.010030481018206083
40
0.010030481018206083
40
0.010030481018206083
40
0.010030481018206083
10
769.85857864376271
20
19.261946710584397
30
0
10
769.86689776139406
20
19.249967240989818
30
0
10
769.87520970716685
20
19.237998073953761
30
0
10
769.88351265265794
20
19.226038129993199
30
0
10
769.89182592209147
20
19.214063314951986
30
0
10
769.90013016817511
20
19.202097745137152
30
0
10
769.90842356009307
20
19.190140373068516
30
0
10
769.91538682551663
20
19.18010077090031
30
0
10
769.9223424395808
20
19.170066948839874
30
0
10
769.92928932188136
20
19.160038306293785
30
0
0
ARC
5
127
100
AcDbEntity
8
OUTER_PROFILES
100
AcDbCircle
10
769.8939339828222
20
19.297302049643861
30
0
40
0.050000000000004929
210
0
220
-0
230
1
100
AcDbArc
50
45.000000000060453
51
224.99999999997695
0
SPLINE
5
128
100
AcDbEntity
8
OUTER_PROFILES
100
AcDbSpline
70
0
71
3
72
14
73
10
74
0
42
0.000000001
43
0.0000000001
44
0.0000000001
40
0.18027201965819814
40
0.18027201965819814
40
0.18027201965819814
40
0.18027201965819814
40
0.18319470989409159
40
0.18319470989409159
40
0.18319470989409159
40
0.18668331000083646
40
0.18668331000083646
40
0.18668331000083646
40
0.1901759647370817
40
0.1901759647370817
40
0.1901759647370817
40
0.1901759647370817
10
770.0311977259164
20
19.261946710584752
30
0
10
770.02115914328806
20
19.268900478090956
30
0
10
770.01112529373154
20
19.275856119665491
30
0
10
770.00109565940011
20
19.282812471442767
30
0
10
769.98912402348401
20
19.291115756291362
30
0
10
769.97715839343959
20
19.299420053423475
30
0
10
769.9651979024618
20
19.307723378819901
30
0
10
769.95322351038965
20
19.316036354765842
30
0
10
769.94125426853725
20
19.324348355982224
30
0
10
769.92928932188147
20
19.332657388703183
30
0
0
SPLINE
5
129
100
AcDbEntity
8
OUTER_PROFILES
100
AcDbSpline
70
0
71
3
72
185
73
181
74
0
42
0.000000001
43
0.0000000001
44
0.0000000001
40
0
40
0
40
0
40
0
40
0.0025011935557011549
40
0.0025011935557011549
40
0.0025011935557011549
40
0.0050092896186918782
40
0.0050092896186918782
40
0.0050092896186918782
40
0.0075248867918942123
40
0.0075248867918942123
40
0.0075248867918942123
40
0.010054850389827596
40
0.010054850389827596
40
0.010054850389827596
40
0.01259121054035931
40
0.01259121054035931
40
0.01259121054035931
40
0.015132415411641132
40
0.015132415411641132
40
0.015132415411641132
40
0.017690657821542798
40
0.017690657821542798
40
0.017690657821542798
40
0.020251075559882554
40
0.020251075559882554
40
0.020251075559882554
40
0.022812843321451989
40
0.022812843321451989
40
0.022812843321451989
40
0.025395071334601779
40
0.025395071334601779
40
0.025395071334601779
40
0.027977082548357249
40
0.027977082548357249
40
0.027977082548357249
40
0.030565128519172383
40
0.030565128519172383
40
0.030565128519172383
40
0.03319046718652114
40
0.03319046718652114
40
0.03319046718652114
40
0.035827160279396621
40
0.035827160279396621
40
0.035827160279396621
40
0.038474513680715583
40
0.038474513680715583
40
0.038474513680715583
40
0.041161931977769114
40
0.041161931977769114
40
0.041161931977769114
40
0.043859120156765269
40
0.043859120156765269
40
0.043859120156765269
40
0.04656563507076223
40
0.04656563507076223
40
0.04656563507076223
40
0.049314768066586405
40
0.049314768066586405
40
0.049314768066586405
40
0.052072907034661955
40
0.052072907034661955
40
0.052072907034661955
40
0.054839968283951955
40
0.054839968283951955
40
0.054839968283951955
40
0.057652197299461035
40
0.057652197299461035
40
0.057652197299461035
40
0.060473968076248608
40
0.060473968076248608
40
0.060473968076248608
40
0.063307070912081806
40
0.063307070912081806
40
0.063307070912081806
40
0.066189347387028044
40
0.066189347387028044
40
0.066189347387028044
40
0.069082807170790267
40
0.069082807170790267
40
0.069082807170790267
40
0.071987128677213769
40
0.071987128677213769
40
0.071987128677213769
40
0.0749406479360121
40
0.0749406479360121
40
0.0749406479360121
40
0.077904975781501795
40
0.077904975781501795
40
0.077904975781501795
40
0.080880103780551396
40
0.080880103780551396
40
0.080880103780551396
40
0.083904489196095056
40
0.083904489196095056
40
0.083904489196095056
40
0.086940280820409416
40
0.086940280820409416
40
0.086940280820409416
40
0.089987816283445418
40
0.089987816283445418
40
0.089987816283445418
40
0.093084939304879766
40
0.093084939304879766
40
0.093084939304879766
40
0.096195144769598867
40
0.096195144769598867
40
0.096195144769598867
40
0.099319139502287629
40
0.099319139502287629
40
0.099319139502287629
40
0.10249212242554444
40
0.10249212242554444
40
0.10249212242554444
40
0.10567379234424669
40
0.10567379234424669
40
0.10567379234424669
40
0.10886332115298211
40
0.10886332115298211
40
0.10886332115298211
40
0.11209365662866555
40
0.11209365662866555
40
0.11209365662866555
40
0.11533141765825271
40
0.11533141765825271
40
0.11533141765825271
40
0.11857639451595134
40
0.11857639451595134
40
0.11857639451595134
40
0.12185869523887835
40
0.12185869523887835
40
0.12185869523887835
40
0.12514811185214683
40
0.12514811185214683
40
0.12514811185214683
40
0.12844461849840064
40
0.12844461849840064
40
0.12844461849840064
40
0.13177502828907556
40
0.13177502828907556
40
0.13177502828907556
40
0.1351127489832257
40
0.1351127489832257
40
0.1351127489832257
40
0.13845791905866969
40
0.13845791905866969
40
0.13845791905866969
40
0.14183369452485173
40
0.14183369452485173
40
0.14183369452485173
40
0.14521752679738972
40
0.14521752679738972
40
0.14521752679738972
40
0.14860975881463595
40
0.14860975881463595
40
0.14860975881463595
40
0.1520295499678388
40
0.1520295499678388
40
0.1520295499678388
40
0.15545857776098435
40
0.15545857776098435
40
0.15545857776098435
40
0.15889712267397016
40
0.15889712267397016
40
0.15889712267397016
40
0.16235482886487573
40
0.16235482886487573
40
0.16235482886487573
40
0.16581504515416143
40
0.16581504515416143
40
0.16581504515416143
40
0.16927783853646644
40
0.16927783853646644
40
0.16927783853646644
40
0.17275277747486811
40
0.17275277747486811
40
0.17275277747486811
40
0.17622988192650943
40
0.17622988192650943
40
0.17622988192650943
40
0.18027201965820608
40
0.18027201965820608
40
0.18027201965820608
40
0.18027201965820608
10
772.19123603246601
20
18.332657388703097
30
0
10
772.17923030342945
20
18.332657985941694
30
0
10
772.16724969088727
20
18.332762279118668
30
0
10
772.15529286019103
20
18.332969429553643
30
0
10
772.14330303240399
20
18.333177151658688
30
0
10
772.13133712039837
20
18.333488294120457
30
0
10
772.11939388512008
20
18.333901789972344
30
0
10
772.10741493050659
20
18.334316522490539
30
0
10
772.09545878998483
20
18.33483421075691
30
0
10
772.08352428434296
20
18.335453591521969
30
0
10
772.07152162145439
20
18.33607650953347
30
0
10
772.05954084062455
20
18.336802271398085
30
0
10
772.04758080153294
20
18.337629529055022
30
0
10
772.03559052365881
20
18.338458878282395
30
0
10
772.02362109070623
20
18.339390229930004
30
0
10
772.01167143110115
20
18.340422302964825
30
0
10
771.99969894636058
20
18.341456347370126
30
0
10
771.98774630983212
20
18.342591499324428
30
0
10
771.97581253765657
20
18.343826562996242
30
0
10
771.96379875536195
20
18.345069907167328
30
0
10
771.95180409285922
20
18.34641451392919
30
0
10
771.93982762801329
20
18.347859157519224
30
0
10
771.92784097932201
20
18.349305029520693
30
0
10
771.91587256141861
20
18.350851113323401
30
0
10
771.90392150895354
20
18.352496117807959
30
0
10
771.89196415509537
20
18.354141989648767
30
0
10
771.88002418605322
20
18.355886887591382
30
0
10
771.86810078629549
20
18.357729476306659
30
0
10
771.85608215707862
20
18.359586781355404
30
0
10
771.84408036233265
20
18.361543342248225
30
0
10
771.83209463203696
20
18.363597811145169
30
0
10
771.82010990804247
20
18.365652107552464
30
0
10
771.808140551718
20
18.367804425405154
30
0
10
771.7961879558585
20
18.370053055735127
30
0
10
771.78420742401954
20
18.372306941633951
30
0
10
771.77227498560467
20
18.374651691580937
30
0
10
771.76038903997369
20
18.377084582917007
30
0
10
771.74833182266934
20
18.379552531233969
30
0
10
771.73632244781163
20
18.382111181754439
30
0
10
771.72435940656283
20
18.38475773303557
30
0
10
771.71234462590905
20
18.387415730485515
30
0
10
771.70037658115598
20
18.390162392940752
30
0
10
771.68845390844638
20
18.392994907646596
30
0
10
771.67648303165538
20
18.395838874379464
30
0
10
771.66455789494466
20
18.398769390588754
30
0
10
771.65267729185075
20
18.401783640058937
30
0
10
771.64061688838558
20
18.404843507009119
30
0
10
771.62860237646544
20
18.407989661824189
30
0
10
771.61663268684822
20
18.411219199995514
30
0
10
771.60461948243676
20
18.414460478879704
30
0
10
771.59265142730828
20
18.417785749717694
30
0
10
771.58072763301277
20
18.421192105072208
30
0
10
771.56876260686317
20
18.424610239424482
30
0
10
771.5568421490625
20
18.428110021335371
30
0
10
771.54496554372759
20
18.431688520800691
30
0
10
771.53290192366944
20
18.435323369034791
30
0
10
771.52088354878106
20
18.439039434594378
30
0
10
771.5089098430833
20
18.442833634399562
30
0
10
771.49689691234221
20
18.446640263744598
30
0
10
771.48492894521144
20
18.450525541219349
30
0
10
771.47300552477998
20
18.454486334034073
30
0
10
771.46104353337319
20
18.458459939585126
30
0
10
771.44912637851849
20
18.46250955070083
30
0
10
771.43725379648322
20
18.466631984918678
30
0
10
771.42518741389131
20
18.47082171115801
30
0
10
771.41316707189344
20
18.475086657991966
30
0
10
771.4011926507892
20
18.479423466197673
30
0
10
771.38917760103527
20
18.483774988990405
30
0
10
771.37720726458747
20
18.488199447919271
30
0
10
771.36528883932044
20
18.492690686137081
30
0
10
771.35332255038543
20
18.497199960893198
30
0
10
771.34140755565522
20
18.501776898316749
30
0
10
771.32954204748148
20
18.506418614387172
30
0
10
771.31747059188865
20
18.511140895860336
30
0
10
771.30545035543719
20
18.515930225448898
30
0
10
771.29347963411988
20
18.520783628521968
30
0
10
771.28146246608776
20
18.525655862927124
30
0
10
771.2694951986341
20
18.530592670312913
30
0
10
771.25757630885846
20
18.535591089243226
30
0
10
771.24561267691081
20
18.540608271676149
30
0
10
771.23369778708661
20
18.545687530235639
30
0
10
771.22183029935832
20
18.550825906235175
30
0
10
771.20976178232877
20
18.556051323751817
30
0
10
771.19774228711196
20
18.561337879454456
30
0
10
771.18577061109602
20
18.566682489107578
30
0
10
771.17375512399019
20
18.572046657690819
30
0
10
771.16178780746327
20
18.577469306804986
30
0
10
771.14986764736318
20
18.582947334748212
30
0
10
771.13790405766736
20
18.588445321193419
30
0
10
771.12598796943018
20
18.593999091484648
30
0
10
771.11411855123549
20
18.599605516873368
30
0
10
771.10205261817646
20
18.605304764497106
30
0
10
771.09003491374574
20
18.611058425831928
30
0
10
771.07806475843927
20
18.616863213514989
30
0
10
771.06604945872448
20
18.622689893454236
30
0
10
771.05408206831908
20
18.62856808662265
30
0
10
771.04216208606795
20
18.634494461660296
30
0
10
771.03019599184131
20
18.640443762643244
30
0
10
771.01827767409691
20
18.646441619385996
30
0
10
771.00640680311244
20
18.652484650932166
30
0
10
770.9943427768668
20
18.658626010843449
30
0
10
770.98232775444944
20
18.664814027941574
30
0
10
770.97036156586069
20
18.671045139536062
30
0
10
770.95834483133558
20
18.677302571739531
30
0
10
770.94637734485968
20
18.683603463473304
30
0
10
770.93445910219373
20
18.689944190594687
30
0
10
770.92248801933943
20
18.696313029680525
30
0
10
770.91056661865991
20
18.70272205826808
30
0
10
770.89869505498893
20
18.709167586844444
30
0
10
770.88663733017722
20
18.715714189465231
30
0
10
770.87463220975928
20
18.722297730578816
30
0
10
770.86266049129551
20
18.72892530077749
30
0
10
770.85065599665018
20
18.735571015943719
30
0
10
770.83868915840822
20
18.742258810760219
30
0
10
770.82675818375287
20
18.748986474879388
30
0
10
770.81479773897036
20
18.755730756678517
30
0
10
770.80287333549632
20
18.762515105626107
30
0
10
770.79098330686634
20
18.769337330639573
30
0
10
770.77894115782374
20
18.776246838847683
30
0
10
770.76693426896088
20
18.783195199015594
30
0
10
770.75496105006687
20
18.790180163600638
30
0
10
770.7429603084023
20
18.797181184484231
30
0
10
770.73099339208625
20
18.804218978771274
30
0
10
770.7190588374516
20
18.811291305152409
30
0
10
770.70709768490133
20
18.818379393256279
30
0
10
770.69516903886722
20
18.825502167982862
30
0
10
770.68327155874294
20
18.832657388703211
30
0
10
770.67123723328405
20
18.839894909084052
30
0
10
770.65923479505182
20
18.847165626506595
30
0
10
770.6472629885061
20
18.854467232875578
30
0
10
770.63526522758571
20
18.861784668821002
30
0
10
770.62329823174821
20
18.869133128088507
30
0
10
770.61136086336523
20
18.876510293168423
30
0
10
770.59939776508986
20
18.88390335904468
30
0
10
770.58746442252959
20
18.891325254828573
30
0
10
770.57555981062023
20
18.89877364958565
30
0
10
770.56353276492871
20
18.906298647859856
30
0
10
770.55153504412658
20
18.913850693130527
30
0
10
770.53956570903335
20
18.921427380707598
30
0
10
770.52757009889945
20
18.92902070060174
30
0
10
770.51560299965536
20
18.93663877125185
30
0
10
770.50366357994562
20
18.944279169845402
30
0
10
770.49169751292254
20
18.951936620867116
30
0
10
770.47975924956643
20
18.959616499735716
30
0
10
770.4678480624965
20
18.967316364336853
30
0
10
770.4558278984457
20
18.975086675988351
30
0
10
770.4438353087321
20
18.982877340857343
30
0
10
770.43186965246423
20
18.990685844976412
30
0
10
770.4198754383209
20
18.998512985289224
30
0
10
770.40790828669867
20
19.0063580501063
30
0
10
770.39596765164242
20
19.014218501146374
30
0
10
770.3839973761435
20
19.022098464318447
30
0
10
770.3720537492693
20
19.029993890093522
30
0
10
770.3601363143739
20
19.03790221429233
30
0
10
770.34812205997832
20
19.045874787216093
30
0
10
770.33613442499109
20
19.053860468844661
30
0
10
770.32417303293005
20
19.061856626304916
30
0
10
770.3121793339044
20
19.069874380881515
30
0
10
770.30021202008925
20
19.077902667878703
30
0
10
770.288270802836
20
19.085938831162679
30
0
10
770.27629644324566
20
19.093997298473866
30
0
10
770.26435213831246
20
19.102061102413188
30
0
10
770.25242456625062
20
19.110136454746964
30
0
10
770.24043052784066
20
19.118256806949603
30
0
10
770.22844914738425
20
19.126391741147373
30
0
10
770.21647935436636
20
19.134539324190598
30
0
10
770.20450087195809
20
19.14269282191654
30
0
10
770.1925339940808
20
19.150858986918706
30
0
10
770.18057768806796
20
19.159035880993045
30
0
10
770.16861247726115
20
19.167218865038294
30
0
10
770.15665785401609
20
19.175412593966144
30
0
10
770.14471281812791
20
19.183615122527158
30
0
10
770.13272588568771
20
19.191846421003049
30
0
10
770.12074860794792
20
19.200086580796238
30
0
10
770.10878000849641
20
19.208333634945092
30
0
10
770.09680395045052
20
19.216585828495099
30
0
10
770.08483658182979
20
19.224844925068609
30
0
10
770.07287696019489
20
19.233108956016665
30
0
10
770.05897388695121
20
19.242715901041123
30
0
10
770.04508128193481
20
19.252329514185078
30
0
10
770.03119772591629
20
19.261946710584823
30
0
0
LINE
5
130
100
AcDbEntity
8
OUTER_PROFILES
100
AcDbLine
10
772.19123603246601
20
18.332657388703097
30
0
11
789.19123603246635
21
18.33265738870324
31
0
0
LINE
5
131
100
AcDbEntity
8
OUTER_PROFILES
100
AcDbLine
10
789.19123603246635
20
18.33265738870324
30
0
11
789.1912360324601
21
405.19123603247681
31
0
0
CIRCLE
5
132
100
AcDbEntity
8
INTERIOR_PROFILES
100
AcDbCircle
10
-101.42928932283667
20
42.761946709063565
30
0
40
1.25
210
0
220
0
230
-1
0
CIRCLE
5
133
100
AcDbEntity
8
INTERIOR_PROFILES
100
AcDbCircle
10
-699.92928932283928
20
46.26194670907104
30
0
40
1.25
210
0
220
0
230
-1
0
CIRCLE
5
134
100
AcDbEntity
8
INTERIOR_PROFILES
100
AcDbCircle
10
-99.92928932283931
20
46.261946709063437
30
0
40
1.25
210
0
220
0
230
-1
0
CIRCLE
5
135
100
AcDbEntity
8
INTERIOR_PROFILES
100
AcDbCircle
10
-53.429289322836695
20
42.761946709062926
30
0
40
1.25
210
0
220
0
230
-1
0
CIRCLE
5
136
100
AcDbEntity
8
INTERIOR_PROFILES
100
AcDbCircle
10
-653.42928932283667
20
42.7619467090706
30
0
40
1.25
210
0
220
0
230
-1
0
CIRCLE
5
137
100
AcDbEntity
8
INTERIOR_PROFILES
100
AcDbCircle
10
-677.42928932284622
20
36.76194670907087
30
0
40
17.5
210
0
220
0
230
-1
0
CIRCLE
5
138
100
AcDbEntity
8
INTERIOR_PROFILES
100
AcDbCircle
10
-701.42928932283667
20
42.761946709071168
30
0
40
1.25
210
0
220
0
230
-1
0
CIRCLE
5
139
100
AcDbEntity
8
INTERIOR_PROFILES
100
AcDbCircle
10
-654.92928932283928
20
46.261946709070614
30
0
40
1.25
210
0
220
0
230
-1
0
CIRCLE
5
140
100
AcDbEntity
8
INTERIOR_PROFILES
100
AcDbCircle
10
-77.429289322846273
20
36.761946709063338
30
0
40
17.5
210
0
220
0
230
-1
0
CIRCLE
5
141
100
AcDbEntity
8
INTERIOR_PROFILES
100
AcDbCircle
10
-54.92928932283931
20
46.261946709063082
30
0
40
1.25
210
0
220
0
230
-1
0
LINE
5
142
100
AcDbEntity
8
BEND
100
AcDbLine
10
770.56568542808668
20
18.130973355212703
30
1.717883046921916e-12
11
0.29289321549185843
21
18.130973355010056
31
1.6412142284207867e-12
0
LINE
5
143
100
AcDbEntity
8
BEND
100
AcDbLine
10
0.29289321567077309
20
405.39292006595696
30
1.6435734523178411e-12
11
770.56568542826528
21
405.39292006616984
31
1.704837926406299e-12
0
LINE
5
144
100
AcDbEntity
8
BEND
100
AcDbLine
10
-0.2016840334903236
20
18.625550604379697
30
1.8228288074842312e-12
11
-0.2016840336982284
21
404.89834281700314
31
1.7993753460890057e-12
0
LINE
5
145
100
AcDbEntity
8
BEND
100
AcDbLine
10
771.06026267724758
20
404.89834281680004
30
1.8839070523930183e-12
11
771.06026267745665
21
18.625550604166179
31
1.8483799156057645e-12
0
LINE
5
146
100
AcDbEntity
8
BEND_EXTENT
100
AcDbLine
10
769.85857864375691
20
404.26194671059488
30
1.8649223119576674e-12
11
0.99999999999525357
21
404.26194671058505
31
1.7940739578604115e-12
0
LINE
5
147
100
AcDbEntity
8
BEND_EXTENT
100
AcDbLine
10
0.92928932187660962
20
404.19123603246641
30
1.8128024428294147e-12
11
0.92928932188158342
21
19.332657388703538
31
1.8128024428294153e-12
0
LINE
5
148
100
AcDbEntity
8
BEND_EXTENT
100
AcDbLine
10
1.0000000000002274
20
19.261946710584894
30
1.793935179982334e-12
11
77.429289322846557
21
19.261946709063338
31
1.8190328632951833e-12
0
LINE
5
149
100
AcDbEntity
8
BEND_EXTENT
100
AcDbLine
10
77.429289322846557
20
19.261946709063338
30
1.8190328632951833e-12
11
677.42928932284656
21
19.26194670907087
31
1.8744296298375189e-12
0
LINE
5
150
100
AcDbEntity
8
BEND_EXTENT
100
AcDbLine
10
677.42928932284656
20
19.26194670907087
30
1.8744296298375189e-12
11
769.85857864376271
21
19.261946710584397
31
1.8649223119576682e-12
0
LINE
5
151
100
AcDbEntity
8
BEND_EXTENT
100
AcDbLine
10
769.92928932188147
20
19.332657388703183
30
1.8653451741634489e-12
11
769.92928932187556
21
404.19123603247613
31
1.8653451741634485e-12
0
LINE
5
152
100
AcDbEntity
8
BEND_EXTENT
100
AcDbLine
10
-4.4053649617126212e-12
20
406.52389342116953
30
1.56319401867222e-12
11
770.85857864375657
21
406.52389342117948
31
1.6343658065360286e-12
0
LINE
5
153
100
AcDbEntity
8
BEND_EXTENT
100
AcDbLine
10
772.19123603245998
20
405.1912360324763
30
1.812124531993125e-12
11
772.19123603246601
21
18.332657388703097
31
1.8121245319931256e-12
0
LINE
5
154
100
AcDbEntity
8
BEND_EXTENT
100
AcDbLine
10
770.85857864376237
20
17.000000000000028
30
1.598838669748024e-12
11
5.6843418860808015e-13
21
17.000000000000455
31
1.5276668818842154e-12
0
LINE
5
155
100
AcDbEntity
8
BEND_EXTENT
100
AcDbLine
10
-1.3326573887029269
20
18.332657388703311
30
1.811760934671184e-12
11
-1.3326573887080428
21
405.19123603246635
31
1.8117609346711836e-12
0
ENDSEC
0
SECTION
2
OBJECTS
0
DICTIONARY
5
C
100
AcDbDictionary
3
ACAD_GROUP
350
D
3
ACAD_MLINESTYLE
350
17
0
DICTIONARY
5
D
100
AcDbDictionary
0
DICTIONARY
5
1A
330
C
100
AcDbDictionary
0
DICTIONARY
5
17
100
AcDbDictionary
0
ENDSEC
0
EOF
