0
SECTION
2
HEADER
9
$INSUNITS
70
4
9
$ACADVER
1
AC1014
9
$HANDSEED
5
FFFF
0
ENDSEC
0
SECTION
2
TABLES
0
TABLE
2
VPORT
5
8
100
AcDbSymbolTable
0
ENDTAB
0
TABLE
2
LTYPE
5
5
100
AcDbSymbolTable
0
LTYPE
5
14
100
AcDbSymbolTableRecord
100
AcDbLinetypeTableRecord
2
BYBLOCK
70
0
0
LTYPE
5
15
100
AcDbSymbolTableRecord
100
AcDbLinetypeTableRecord
2
BYLAYER
70
0
0
LTYPE
5
16
100
AcDbSymbolTableRecord
100
AcDbLinetypeTableRecord
2
DASHED
70
0
3
Dashed __ __ __ __ __ __ __ __ __ __ __ __ __ _
72
65
73
2
40
0.75
49
0.5
74
0
49
-0.25
74
0
0
ENDTAB
0
TABLE
2
LAYER
5
2
100
AcDbSymbolTable
70
2
0
LAYER
5
50
100
AcDbSymbolTableRecord
100
AcDbLayerTableRecord
2
0
70
0
62
7
6
CONTINUOUS
0
ENDTAB
0
TABLE
2
STYLE
5
3
100
AcDbSymbolTable
70
1
0
STYLE
5
11
100
AcDbSymbolTableRecord
100
AcDbTextStyleTableRecord
2
STANDARD
70
0
0
ENDTAB
0
TABLE
2
VIEW
5
6
100
AcDbSymbolTable
70
0
0
ENDTAB
0
TABLE
2
UCS
5
7
100
AcDbSymbolTable
70
0
0
ENDTAB
0
TABLE
2
APPID
5
9
100
AcDbSymbolTable
70
2
0
APPID
5
12
100
AcDbSymbolTableRecord
100
AcDbRegAppTableRecord
2
ACAD
70
0
0
ENDTAB
0
TABLE
2
DIMSTYLE
5
A
100
AcDbSymbolTable
70
1
0
ENDTAB
0
TABLE
2
BLOCK_RECORD
5
1
100
AcDbSymbolTable
70
1
0
BLOCK_RECORD
5
1F
100
AcDbSymbolTableRecord
100
AcDbBlockTableRecord
2
*MODEL_SPACE
0
BLOCK_RECORD
5
1B
100
AcDbSymbolTableRecord
100
AcDbBlockTableRecord
2
*PAPER_SPACE
0
ENDTAB
0
ENDSEC
0
SECTION
2
BLOCKS
0
BLOCK
5
20
100
AcDbEntity
100
AcDbBlockBegin
2
*MODEL_SPACE
0
ENDBLK
5
21
100
AcDbEntity
100
AcDbBlockEnd
0
BLOCK
5
1C
100
AcDbEntity
100
AcDbBlockBegin
2
*PAPER_SPACE
0
ENDBLK
5
1D
100
AcDbEntity
100
AcDbBlockEnd
0
ENDSEC
0
SECTION
2
ENTITIES
0
LWPOLYLINE
5
100
100
AcDbEntity
8
OUTER_PROFILES
100
AcDbPolyline
90
18
70
1
43
0.0
10
1496.0000000000002
20
36.927610115284722
10
1496.0000000000002
20
31.665663404700091
10
1496.0000000000002
20
14.665663404700094
10
1496.0000000000002
20
6.4037166941154311
10
1496.0000000000002
20
0
10
0
20
0
10
0
20
6.4037166941154311
10
0
20
14.665663404700094
10
0
20
31.665663404700091
10
0
20
36.927610115284743
10
-12.761946710584372
20
36.927610115284743
10
-12.761946710584372
20
78.92761011528475
10
0
20
78.92761011528475
10
0
20
91.689556825869403
10
1496.0000000000002
20
91.689556825869403
10
1496.0000000000002
20
78.92761011528475
10
1508.7619467105847
20
78.92761011528475
10
1508.7619467105847
20
36.927610115284743
0
CIRCLE
5
101
100
AcDbEntity
8
INTERIOR_PROFILES
100
AcDbCircle
10
-798.00000000000011
20
88.189556825869388
30
0
40
1.7000000000000171
210
0
220
0
230
-1
0
CIRCLE
5
102
100
AcDbEntity
8
INTERIOR_PROFILES
100
AcDbCircle
10
-898.00000000000011
20
88.189556825869388
30
0
40
1.7000000000000171
210
0
220
0
230
-1
0
CIRCLE
5
103
100
AcDbEntity
8
INTERIOR_PROFILES
100
AcDbCircle
10
-689
20
88.189556825869388
30
0
40
1.7000000000000171
210
0
220
0
230
-1
0
CIRCLE
5
104
100
AcDbEntity
8
INTERIOR_PROFILES
100
AcDbCircle
10
-7.0000000000001705
20
88.189556825869388
30
0
40
1.7000000000000004
210
0
220
0
230
-1
0
CIRCLE
5
105
100
AcDbEntity
8
INTERIOR_PROFILES
100
AcDbCircle
10
-3.4999999999999432
20
40.427610115284736
30
0
40
2.5
210
0
220
0
230
-1
0
CIRCLE
5
106
100
AcDbEntity
8
INTERIOR_PROFILES
100
AcDbCircle
10
-1492.5000000000002
20
40.427610115284736
30
0
40
2.5
210
0
220
0
230
-1
0
CIRCLE
5
107
100
AcDbEntity
8
INTERIOR_PROFILES
100
AcDbCircle
10
-18.000000000000114
20
53.927610115284743
30
0
40
8.75
210
0
220
0
230
-1
0
CIRCLE
5
108
100
AcDbEntity
8
INTERIOR_PROFILES
100
AcDbCircle
10
-448.00000000000011
20
88.189556825869388
30
0
40
1.7000000000000171
210
0
220
0
230
-1
0
CIRCLE
5
109
100
AcDbEntity
8
INTERIOR_PROFILES
100
AcDbCircle
10
-348.00000000000011
20
88.189556825869388
30
0
40
1.7000000000000171
210
0
220
0
230
-1
0
CIRCLE
5
110
100
AcDbEntity
8
INTERIOR_PROFILES
100
AcDbCircle
10
-698.00000000000011
20
88.189556825869388
30
0
40
1.7000000000000171
210
0
220
0
230
-1
0
CIRCLE
5
111
100
AcDbEntity
8
INTERIOR_PROFILES
100
AcDbCircle
10
-748.00000000000011
20
25.165663404700087
30
0
40
1.7000000000000171
210
0
220
0
230
-1
0
CIRCLE
5
112
100
AcDbEntity
8
INTERIOR_PROFILES
100
AcDbCircle
10
6.2619467107979769
20
49.927610115284736
30
0
40
1.7000000000000004
210
0
220
0
230
-1
0
CIRCLE
5
113
100
AcDbEntity
8
INTERIOR_PROFILES
100
AcDbCircle
10
-1502.2619467108063
20
49.927610115284736
30
0
40
1.6999999999998749
210
0
220
0
230
-1
0
CIRCLE
5
114
100
AcDbEntity
8
INTERIOR_PROFILES
100
AcDbCircle
10
-1098
20
88.189556825869388
30
0
40
1.7000000000000171
210
0
220
0
230
-1
0
CIRCLE
5
115
100
AcDbEntity
8
INTERIOR_PROFILES
100
AcDbCircle
10
-98.000000000000114
20
25.165663404700087
30
0
40
1.6999999999999993
210
0
220
0
230
-1
0
CIRCLE
5
116
100
AcDbEntity
8
INTERIOR_PROFILES
100
AcDbCircle
10
-1298
20
88.189556825869388
30
0
40
1.6999999999998749
210
0
220
0
230
-1
0
CIRCLE
5
117
100
AcDbEntity
8
INTERIOR_PROFILES
100
AcDbCircle
10
-48.000000000000114
20
88.189556825869388
30
0
40
1.6999999999999993
210
0
220
0
230
-1
0
CIRCLE
5
118
100
AcDbEntity
8
INTERIOR_PROFILES
100
AcDbCircle
10
-548.00000000000011
20
88.189556825869388
30
0
40
1.7000000000000171
210
0
220
0
230
-1
0
CIRCLE
5
119
100
AcDbEntity
8
INTERIOR_PROFILES
100
AcDbCircle
10
-1398
20
88.189556825869388
30
0
40
1.6999999999998749
210
0
220
0
230
-1
0
CIRCLE
5
120
100
AcDbEntity
8
INTERIOR_PROFILES
100
AcDbCircle
10
-648.00000000000011
20
88.189556825869388
30
0
40
1.7000000000000171
210
0
220
0
230
-1
0
CIRCLE
5
121
100
AcDbEntity
8
INTERIOR_PROFILES
100
AcDbCircle
10
-707.00000000000023
20
88.189556825869388
30
0
40
1.7000000000000171
210
0
220
0
230
-1
0
CIRCLE
5
122
100
AcDbEntity
8
INTERIOR_PROFILES
100
AcDbCircle
10
-148.00000000000011
20
88.189556825869388
30
0
40
1.6999999999999993
210
0
220
0
230
-1
0
CIRCLE
5
123
100
AcDbEntity
8
INTERIOR_PROFILES
100
AcDbCircle
10
-423.00000000000011
20
25.165663404700087
30
0
40
1.7000000000000171
210
0
220
0
230
-1
0
CIRCLE
5
124
100
AcDbEntity
8
INTERIOR_PROFILES
100
AcDbCircle
10
-1198
20
88.189556825869388
30
0
40
1.7000000000000171
210
0
220
0
230
-1
0
CIRCLE
5
125
100
AcDbEntity
8
INTERIOR_PROFILES
100
AcDbCircle
10
-248.00000000000011
20
88.189556825869388
30
0
40
1.7000000000000171
210
0
220
0
230
-1
0
CIRCLE
5
126
100
AcDbEntity
8
INTERIOR_PROFILES
100
AcDbCircle
10
-1073
20
25.165663404700087
30
0
40
1.7000000000000171
210
0
220
0
230
-1
0
CIRCLE
5
127
100
AcDbEntity
8
INTERIOR_PROFILES
100
AcDbCircle
10
-1489
20
88.189556825869388
30
0
40
1.6999999999998749
210
0
220
0
230
-1
0
CIRCLE
5
128
100
AcDbEntity
8
INTERIOR_PROFILES
100
AcDbCircle
10
-998.00000000000011
20
88.189556825869388
30
0
40
1.7000000000000171
210
0
220
0
230
-1
0
CIRCLE
5
129
100
AcDbEntity
8
INTERIOR_PROFILES
100
AcDbCircle
10
-1502.2619467108063
20
74.927610115284736
30
0
40
1.6999999999998749
210
0
220
0
230
-1
0
CIRCLE
5
130
100
AcDbEntity
8
INTERIOR_PROFILES
100
AcDbCircle
10
-1398
20
25.165663404700087
30
0
40
1.6999999999998749
210
0
220
0
230
-1
0
CIRCLE
5
131
100
AcDbEntity
8
INTERIOR_PROFILES
100
AcDbCircle
10
6.2619467107979769
20
74.927610115284736
30
0
40
1.7000000000000004
210
0
220
0
230
-1
0
LINE
5
132
100
AcDbEntity
8
BEND
100
AcDbLine
10
1496.0000000000002
20
13.534690049407763
30
-1.4710455076283324e-14
11
0
21
13.534690049407763
31
-1.4710455076283324e-14
0
LINE
5
133
100
AcDbEntity
8
BEND
100
AcDbLine
10
1497.1309733552926
20
36.927610115284722
30
-6.9388939039072284e-14
11
1497.1309733552926
21
78.92761011528475
31
-6.9388939039072284e-14
0
LINE
5
134
100
AcDbEntity
8
BEND
100
AcDbLine
10
1495.9999999999995
20
5.6968583470577094
30
-8.4654505627668186e-15
11
-5.6843418860808015e-13
21
5.6968583470577094
31
-8.4654505627668186e-15
0
LINE
5
135
100
AcDbEntity
8
BEND
100
AcDbLine
10
1496.0000000000002
20
80.058583470577076
30
-1.2212453270876722e-14
11
-2.8421709430404007e-13
21
80.058583470577076
31
-1.2212453270876722e-14
0
LINE
5
136
100
AcDbEntity
8
BEND
100
AcDbLine
10
-1.1309733552920354
20
78.92761011528475
30
-6.8278716014447127e-14
11
-1.1309733552920354
21
36.927610115284743
31
-1.2601031329495527e-13
0
LINE
5
137
100
AcDbEntity
8
BEND
100
AcDbLine
10
1496.0000000000002
20
35.796636759992417
30
-1.2490009027032983e-14
11
0
21
35.796636759992417
31
-1.2490009027032983e-14
0
LWPOLYLINE
5
138
100
AcDbEntity
8
BEND_EXTENT
100
AcDbPolyline
90
4
70
1
43
0.0
10
1496.0000000000002
20
36.927610115284722
10
0
20
36.927610115284743
10
0
20
78.92761011528475
10
1496.0000000000002
20
78.92761011528475
0
LINE
5
139
100
AcDbEntity
8
BEND_EXTENT
100
AcDbLine
10
0
20
34.665663404700091
30
-1.3322676295501878e-14
11
1496.0000000000002
21
34.665663404700091
31
-1.3322676295501878e-14
0
LINE
5
140
100
AcDbEntity
8
BEND_EXTENT
100
AcDbLine
10
0
20
14.665663404700094
30
-1.3322676295501878e-14
11
1496.0000000000002
21
14.665663404700094
31
-1.3322676295501878e-14
0
LINE
5
141
100
AcDbEntity
8
BEND_EXTENT
100
AcDbLine
10
1496.0000000000002
20
4.9899999999999967
30
-1.7763568394002505e-14
11
0
21
4.9899999999999967
31
-1.7763568394002505e-14
0
LINE
5
142
100
AcDbEntity
8
BEND_EXTENT
100
AcDbLine
10
1496.0000000000002
20
6.4037166941154311
30
-8.8817841970012523e-15
11
0
21
6.4037166941154311
31
-8.8817841970012523e-15
0
LINE
5
143
100
AcDbEntity
8
BEND_EXTENT
100
AcDbLine
10
1498.2619467105849
20
78.92761011528475
30
-6.9402894118308521e-14
11
1498.2619467105849
21
36.927610115284722
31
-6.9402894118308521e-14
0
LINE
5
144
100
AcDbEntity
8
BEND_EXTENT
100
AcDbLine
10
-2.2619467105845423
20
36.927610115284743
30
-1.3322676295501878e-14
11
-2.2619467105845423
21
78.92761011528475
31
2.708944180085382e-13
0
LINE
5
145
100
AcDbEntity
8
BEND_EXTENT
100
AcDbLine
10
0
20
81.189556825869403
30
-1.1310397063368781e-14
11
1496.0000000000002
21
81.189556825869403
31
-1.1310397063368781e-14
0
LINE
5
146
100
AcDbEntity
8
BEND_EXTENT
100
AcDbLine
10
1496.0000000000002
20
12.403716694115436
30
-8.8817841970012523e-15
11
0
21
12.403716694115436
31
-8.8817841970012523e-15
0
ENDSEC
0
SECTION
2
OBJECTS
0
DICTIONARY
5
C
100
AcDbDictionary
3
ACAD_GROUP
350
D
3
ACAD_MLINESTYLE
350
17
0
DICTIONARY
5
D
100
AcDbDictionary
0
DICTIONARY
5
1A
330
C
100
AcDbDictionary
0
DICTIONARY
5
17
100
AcDbDictionary
0
ENDSEC
0
EOF
