0
SECTION
2
HEADER
9
$INSUNITS
70
4
9
$ACADVER
1
AC1014
9
$HANDSEED
5
FFFF
0
ENDSEC
0
SECTION
2
TABLES
0
TABLE
2
VPORT
5
8
100
AcDbSymbolTable
0
ENDTAB
0
TABLE
2
LTYPE
5
5
100
AcDbSymbolTable
0
LTYPE
5
14
100
AcDbSymbolTableRecord
100
AcDbLinetypeTableRecord
2
BYBLOCK
70
0
0
LTYPE
5
15
100
AcDbSymbolTableRecord
100
AcDbLinetypeTableRecord
2
BYLAYER
70
0
0
LTYPE
5
16
100
AcDbSymbolTableRecord
100
AcDbLinetypeTableRecord
2
DASHED
70
0
3
Dashed __ __ __ __ __ __ __ __ __ __ __ __ __ _
72
65
73
2
40
0.75
49
0.5
74
0
49
-0.25
74
0
0
ENDTAB
0
TABLE
2
LAYER
5
2
100
AcDbSymbolTable
70
2
0
LAYER
5
50
100
AcDbSymbolTableRecord
100
AcDbLayerTableRecord
2
0
70
0
62
7
6
CONTINUOUS
0
ENDTAB
0
TABLE
2
STYLE
5
3
100
AcDbSymbolTable
70
1
0
STYLE
5
11
100
AcDbSymbolTableRecord
100
AcDbTextStyleTableRecord
2
STANDARD
70
0
0
ENDTAB
0
TABLE
2
VIEW
5
6
100
AcDbSymbolTable
70
0
0
ENDTAB
0
TABLE
2
UCS
5
7
100
AcDbSymbolTable
70
0
0
ENDTAB
0
TABLE
2
APPID
5
9
100
AcDbSymbolTable
70
2
0
APPID
5
12
100
AcDbSymbolTableRecord
100
AcDbRegAppTableRecord
2
ACAD
70
0
0
ENDTAB
0
TABLE
2
DIMSTYLE
5
A
100
AcDbSymbolTable
70
1
0
ENDTAB
0
TABLE
2
BLOCK_RECORD
5
1
100
AcDbSymbolTable
70
1
0
BLOCK_RECORD
5
1F
100
AcDbSymbolTableRecord
100
AcDbBlockTableRecord
2
*MODEL_SPACE
0
BLOCK_RECORD
5
1B
100
AcDbSymbolTableRecord
100
AcDbBlockTableRecord
2
*PAPER_SPACE
0
ENDTAB
0
ENDSEC
0
SECTION
2
BLOCKS
0
BLOCK
5
20
100
AcDbEntity
100
AcDbBlockBegin
2
*MODEL_SPACE
0
ENDBLK
5
21
100
AcDbEntity
100
AcDbBlockEnd
0
BLOCK
5
1C
100
AcDbEntity
100
AcDbBlockBegin
2
*PAPER_SPACE
0
ENDBLK
5
1D
100
AcDbEntity
100
AcDbBlockEnd
0
ENDSEC
0
SECTION
2
ENTITIES
0
LINE
5
100
100
AcDbEntity
8
OUTER_PROFILES
100
AcDbLine
10
-2.2620534917711765
20
16.26205349177129
30
0
11
-30.524000202355985
21
16.262053491771326
31
0
0
LINE
5
101
100
AcDbEntity
8
OUTER_PROFILES
100
AcDbLine
10
-30.524000202355985
20
16.262053491771326
30
0
11
-30.524000202355772
21
488.26183992939843
31
0
0
LINE
5
102
100
AcDbEntity
8
OUTER_PROFILES
100
AcDbLine
10
-30.524000202355772
20
488.26183992939843
30
0
11
-2.262053491771101
21
488.26183992939843
31
0
0
LINE
5
103
100
AcDbEntity
8
OUTER_PROFILES
100
AcDbLine
10
-2.2620534917710824
20
488.26194671058494
30
0
11
-0.00010678118641721523
21
488.26194671058499
31
0
0
LINE
5
104
100
AcDbEntity
8
OUTER_PROFILES
100
AcDbLine
10
-0.00010678118641721523
20
488.26194671058499
30
0
11
-0.00010678118641722433
21
490.52389342116965
31
0
0
LINE
5
105
100
AcDbEntity
8
OUTER_PROFILES
100
AcDbLine
10
1.0684986898631781e-13
20
490.52389342116965
30
0
11
1.4210854715202004e-13
21
504.52389342116965
31
0
0
LINE
5
106
100
AcDbEntity
8
OUTER_PROFILES
100
AcDbLine
10
1.4210854715202004e-13
20
504.52389342116965
30
0
11
584.99978643762506
21
504.52389342116942
31
0
0
LINE
5
107
100
AcDbEntity
8
OUTER_PROFILES
100
AcDbLine
10
584.99978643762506
20
504.52389342116942
30
0
11
584.99978643762506
21
490.52389342116948
31
0
0
LINE
5
108
100
AcDbEntity
8
OUTER_PROFILES
100
AcDbLine
10
584.99989321881162
20
490.52389342116948
30
0
11
584.99989321881162
21
488.26194671058477
31
0
0
LINE
5
109
100
AcDbEntity
8
OUTER_PROFILES
100
AcDbLine
10
584.99989321881162
20
488.26194671058477
30
0
11
587.26183992939627
21
488.26194671058477
31
0
0
LINE
5
110
100
AcDbEntity
8
OUTER_PROFILES
100
AcDbLine
10
587.26183992939627
20
488.26183992939821
30
0
11
615.52378663998115
21
488.26183992939832
31
0
0
LINE
5
111
100
AcDbEntity
8
OUTER_PROFILES
100
AcDbLine
10
615.52378663998115
20
488.26183992939832
30
0
11
615.52378663998286
21
16.26205349177134
31
0
0
LINE
5
112
100
AcDbEntity
8
OUTER_PROFILES
100
AcDbLine
10
615.52378663998286
20
16.26205349177134
30
0
11
587.26183992939821
21
16.262053491771148
31
0
0
LINE
5
113
100
AcDbEntity
8
OUTER_PROFILES
100
AcDbLine
10
587.26183992939821
20
16.261946710584589
30
0
11
584.99989321881355
21
16.261946710584695
31
0
0
LINE
5
114
100
AcDbEntity
8
OUTER_PROFILES
100
AcDbLine
10
584.99989321881355
20
16.261946710584695
30
0
11
584.99989321881355
21
14.000000000000002
31
0
0
LINE
5
115
100
AcDbEntity
8
OUTER_PROFILES
100
AcDbLine
10
584.99978643762699
20
13.999999999999986
30
0
11
584.99978643762699
21
0
31
0
0
LINE
5
116
100
AcDbEntity
8
OUTER_PROFILES
100
AcDbLine
10
584.99978643762699
20
0
30
0
11
0
21
0
31
0
0
LINE
5
117
100
AcDbEntity
8
OUTER_PROFILES
100
AcDbLine
10
0
20
0
30
0
11
7.6571778431788751e-18
21
14.000000000000023
31
0
0
LINE
5
118
100
AcDbEntity
8
OUTER_PROFILES
100
AcDbLine
10
-0.00010678118655959368
20
14.000000000000004
30
0
11
-0.00010678118652406531
21
16.261946710584695
31
0
0
LINE
5
119
100
AcDbEntity
8
OUTER_PROFILES
100
AcDbLine
10
-0.00010678118652406531
20
16.261946710584695
30
0
11
-2.262053491771177
21
16.261946710584731
31
0
0
CIRCLE
5
120
100
AcDbEntity
8
INTERIOR_PROFILES
100
AcDbCircle
10
-608.02378663998024
20
317.11194671058468
30
0
40
2.5
210
0
220
0
230
-1
0
CIRCLE
5
121
100
AcDbEntity
8
INTERIOR_PROFILES
100
AcDbCircle
10
23.024000202354564
20
317.11194671058496
30
0
40
2.5
210
0
220
0
230
-1
0
CIRCLE
5
122
100
AcDbEntity
8
INTERIOR_PROFILES
100
AcDbCircle
10
-42.499893218813654
20
496.52389342116413
30
0
40
1.7000000000000171
210
0
220
0
230
-1
0
CIRCLE
5
123
100
AcDbEntity
8
INTERIOR_PROFILES
100
AcDbCircle
10
-608.02378663998115
20
204.11194671058465
30
0
40
2.5
210
0
220
0
230
-1
0
CIRCLE
5
124
100
AcDbEntity
8
INTERIOR_PROFILES
100
AcDbCircle
10
23.024000202354529
20
30.411946710585681
30
0
40
2.5
210
0
220
0
230
-1
0
CIRCLE
5
125
100
AcDbEntity
8
INTERIOR_PROFILES
100
AcDbCircle
10
-292.49989321881338
20
496.52389342117084
30
0
40
1.7000000000000171
210
0
220
0
230
-1
0
CIRCLE
5
126
100
AcDbEntity
8
INTERIOR_PROFILES
100
AcDbCircle
10
-608.02378663997888
20
474.11194671058468
30
0
40
2.5
210
0
220
0
230
-1
0
CIRCLE
5
127
100
AcDbEntity
8
INTERIOR_PROFILES
100
AcDbCircle
10
-608.02378663998138
20
187.41194671058554
30
0
40
2.5
210
0
220
0
230
-1
0
CIRCLE
5
128
100
AcDbEntity
8
INTERIOR_PROFILES
100
AcDbCircle
10
23.024000202354458
20
446.41194671058571
30
0
40
2.5
210
0
220
0
230
-1
0
CIRCLE
5
129
100
AcDbEntity
8
INTERIOR_PROFILES
100
AcDbCircle
10
23.024000202354564
20
204.11194671058496
30
0
40
2.5
210
0
220
0
230
-1
0
CIRCLE
5
130
100
AcDbEntity
8
INTERIOR_PROFILES
100
AcDbCircle
10
-542.49989321881196
20
496.52389342116402
30
0
40
1.7000000000000171
210
0
220
0
230
-1
0
CIRCLE
5
131
100
AcDbEntity
8
INTERIOR_PROFILES
100
AcDbCircle
10
-292.4998932188131
20
7.999999999998697
30
0
40
1.7000000000000004
210
0
220
0
230
-1
0
CIRCLE
5
132
100
AcDbEntity
8
INTERIOR_PROFILES
100
AcDbCircle
10
-42.499893218813369
20
8.0000000000054445
30
0
40
1.7000000000000004
210
0
220
0
230
-1
0
CIRCLE
5
133
100
AcDbEntity
8
INTERIOR_PROFILES
100
AcDbCircle
10
-608.02378663998229
20
58.111946710584647
30
0
40
2.5
210
0
220
0
230
-1
0
CIRCLE
5
134
100
AcDbEntity
8
INTERIOR_PROFILES
100
AcDbCircle
10
-608.02378663998275
20
30.411946710585504
30
0
40
2.5
210
0
220
0
230
-1
0
CIRCLE
5
135
100
AcDbEntity
8
INTERIOR_PROFILES
100
AcDbCircle
10
-542.49989321881162
20
8.000000000005409
30
0
40
1.7000000000000004
210
0
220
0
230
-1
0
CIRCLE
5
136
100
AcDbEntity
8
INTERIOR_PROFILES
100
AcDbCircle
10
-608.02378663997888
20
446.41194671058548
30
0
40
2.5
210
0
220
0
230
-1
0
CIRCLE
5
137
100
AcDbEntity
8
INTERIOR_PROFILES
100
AcDbCircle
10
23.024000202354387
20
58.111946710584888
30
0
40
2.5
210
0
220
0
230
-1
0
CIRCLE
5
138
100
AcDbEntity
8
INTERIOR_PROFILES
100
AcDbCircle
10
23.024000202354564
20
300.41194671058571
30
0
40
2.5
210
0
220
0
230
-1
0
CIRCLE
5
139
100
AcDbEntity
8
INTERIOR_PROFILES
100
AcDbCircle
10
23.024000202354564
20
187.41194671058571
30
0
40
2.5
210
0
220
0
230
-1
0
CIRCLE
5
140
100
AcDbEntity
8
INTERIOR_PROFILES
100
AcDbCircle
10
-608.02378663998036
20
300.41194671058554
30
0
40
2.5
210
0
220
0
230
-1
0
CIRCLE
5
141
100
AcDbEntity
8
INTERIOR_PROFILES
100
AcDbCircle
10
23.0240002023546
20
474.11194671058496
30
0
40
2.5
210
0
220
0
230
-1
0
LINE
5
142
100
AcDbEntity
8
BEND
100
AcDbLine
10
600.39281328469053
20
16.26205349177112
30
-5.5624920564652057e-13
11
600.39281328468849
21
488.26183992939832
31
-4.765934090820018e-13
0
LINE
5
143
100
AcDbEntity
8
BEND
100
AcDbLine
10
584.99989321881162
20
489.39292006587709
30
-1.634447945875292e-13
11
-0.00010678118641749279
21
489.39292006587732
31
-1.8485212712173834e-13
0
LINE
5
144
100
AcDbEntity
8
BEND
100
AcDbLine
10
586.13086657410588
20
16.261946710584631
30
-1.8750994532576568e-13
11
586.13086657410395
21
488.26194671058465
31
-2.089058138322423e-13
0
LINE
5
145
100
AcDbEntity
8
BEND
100
AcDbLine
10
-1.1310801364786829
20
488.26194671058499
30
-1.5160356114790159e-13
11
-1.1310801364788285
21
16.261946710584709
31
-1.377498486225279e-13
0
LINE
5
146
100
AcDbEntity
8
BEND
100
AcDbLine
10
-0.00010678118652406929
20
15.130973355292239
30
-1.0367910608724082e-13
11
584.99989321881355
21
15.130973355292237
31
-1.2526884047481754e-13
0
LINE
5
147
100
AcDbEntity
8
BEND
100
AcDbLine
10
-15.393026847063451
20
488.26183992939843
30
-8.5229718903149694e-13
11
-15.393026847063524
21
16.262053491771269
31
-8.2460769568003223e-13
0
LINE
5
148
100
AcDbEntity
8
BEND_EXTENT
100
AcDbLine
10
601.52378663998104
20
488.26183992939832
30
-4.8502418760457431e-13
11
601.52378663998297
21
16.262053491771127
31
-5.9826693611634028e-13
0
LINE
5
149
100
AcDbEntity
8
BEND_EXTENT
100
AcDbLine
10
599.26183992939821
20
16.262053491771255
30
-5.6926390653220861e-13
11
599.26183992939627
21
488.26183992939826
31
-6.4031818010821853e-13
0
LINE
5
150
100
AcDbEntity
8
BEND_EXTENT
100
AcDbLine
10
-16.524000202355857
20
16.262053491771326
30
-8.8495547251599349e-13
11
-16.524000202355786
21
488.26183992939843
31
-9.2270305535324882e-13
0
LINE
5
151
100
AcDbEntity
8
BEND_EXTENT
100
AcDbLine
10
-14.262053491771114
20
488.26183992939843
30
-8.1625887593311138e-13
11
-14.262053491771187
21
16.262053491771269
31
-8.1625887593311138e-13
0
LINE
5
152
100
AcDbEntity
8
BEND_EXTENT
100
AcDbLine
10
587.26183992939627
20
488.26183992939821
30
-1.7773736909537747e-13
11
587.26183992939821
21
16.262053491771127
31
-1.4221023230737259e-13
0
LINE
5
153
100
AcDbEntity
8
BEND_EXTENT
100
AcDbLine
10
-2.262053491771177
20
16.26205349177129
30
-1.7749844651779726e-13
11
-2.2620534917711019
21
488.26183992939843
31
-2.1302558330580227e-13
0
LINE
5
154
100
AcDbEntity
8
BEND_EXTENT
100
AcDbLine
10
584.99978643762699
20
13.999999999999986
30
-1.420729948851448e-13
11
0
21
14.000000000000023
31
-1.4210854715202004e-13
0
LWPOLYLINE
5
155
100
AcDbEntity
8
BEND_EXTENT
100
AcDbPolyline
90
4
70
1
43
0.0
10
-0.00010678118652406531
20
16.261946710584695
10
584.99989321881355
20
16.261946710584695
10
584.99989321881162
20
488.26194671058477
10
-0.00010678118641749279
20
488.26194671058499
0
LINE
5
156
100
AcDbEntity
8
BEND_EXTENT
100
AcDbLine
10
1.0684986898631781e-13
20
490.52389342116965
30
-2.1316282072803006e-13
11
584.99978643762506
21
490.52389342116948
31
-7.1018721309134678e-14
0
ENDSEC
0
SECTION
2
OBJECTS
0
DICTIONARY
5
C
100
AcDbDictionary
3
ACAD_GROUP
350
D
3
ACAD_MLINESTYLE
350
17
0
DICTIONARY
5
D
100
AcDbDictionary
0
DICTIONARY
5
1A
330
C
100
AcDbDictionary
0
DICTIONARY
5
17
100
AcDbDictionary
0
ENDSEC
0
EOF
