0
SECTION
2
HEADER
9
$INSUNITS
70
4
9
$ACADVER
1
AC1014
9
$HANDSEED
5
FFFF
0
ENDSEC
0
SECTION
2
TABLES
0
TABLE
2
VPORT
5
8
100
AcDbSymbolTable
0
ENDTAB
0
TABLE
2
LTYPE
5
5
100
AcDbSymbolTable
0
LTYPE
5
14
100
AcDbSymbolTableRecord
100
AcDbLinetypeTableRecord
2
BYBLOCK
70
0
0
LTYPE
5
15
100
AcDbSymbolTableRecord
100
AcDbLinetypeTableRecord
2
BYLAYER
70
0
0
LTYPE
5
16
100
AcDbSymbolTableRecord
100
AcDbLinetypeTableRecord
2
DASHED
70
0
3
Dashed __ __ __ __ __ __ __ __ __ __ __ __ __ _
72
65
73
2
40
0.75
49
0.5
74
0
49
-0.25
74
0
0
ENDTAB
0
TABLE
2
LAYER
5
2
100
AcDbSymbolTable
70
2
0
LAYER
5
50
100
AcDbSymbolTableRecord
100
AcDbLayerTableRecord
2
0
70
0
62
7
6
CONTINUOUS
0
ENDTAB
0
TABLE
2
STYLE
5
3
100
AcDbSymbolTable
70
1
0
STYLE
5
11
100
AcDbSymbolTableRecord
100
AcDbTextStyleTableRecord
2
STANDARD
70
0
0
ENDTAB
0
TABLE
2
VIEW
5
6
100
AcDbSymbolTable
70
0
0
ENDTAB
0
TABLE
2
UCS
5
7
100
AcDbSymbolTable
70
0
0
ENDTAB
0
TABLE
2
APPID
5
9
100
AcDbSymbolTable
70
2
0
APPID
5
12
100
AcDbSymbolTableRecord
100
AcDbRegAppTableRecord
2
ACAD
70
0
0
ENDTAB
0
TABLE
2
DIMSTYLE
5
A
100
AcDbSymbolTable
70
1
0
ENDTAB
0
TABLE
2
BLOCK_RECORD
5
1
100
AcDbSymbolTable
70
1
0
BLOCK_RECORD
5
1F
100
AcDbSymbolTableRecord
100
AcDbBlockTableRecord
2
*MODEL_SPACE
0
BLOCK_RECORD
5
1B
100
AcDbSymbolTableRecord
100
AcDbBlockTableRecord
2
*PAPER_SPACE
0
ENDTAB
0
ENDSEC
0
SECTION
2
BLOCKS
0
BLOCK
5
20
100
AcDbEntity
100
AcDbBlockBegin
2
*MODEL_SPACE
0
ENDBLK
5
21
100
AcDbEntity
100
AcDbBlockEnd
0
BLOCK
5
1C
100
AcDbEntity
100
AcDbBlockBegin
2
*PAPER_SPACE
0
ENDBLK
5
1D
100
AcDbEntity
100
AcDbBlockEnd
0
ENDSEC
0
SECTION
2
ENTITIES
0
LWPOLYLINE
5
100
100
AcDbEntity
8
OUTER_PROFILES
100
AcDbPolyline
90
23
70
1
43
0.0
10
546.35315589598713
20
44.029316168944916
42
0.41421356237310236
10
547.76736945836024
20
44.029316168944916
10
560.19123603246624
20
56.45318274305076
10
562.19123603246624
20
56.45318274305076
10
562.19123603246612
20
0.070710678118537373
10
547.76736945836035
20
14.494577252224403
42
0.41421356237311618
10
546.35315589598713
20
14.494577252224403
10
531.85857864376294
20
0
10
0
20
0
10
-14.494577252224257
20
14.494577252224301
42
0.41421356237310608
10
-15.90879081459738
20
14.494577252224293
10
-30.332657388703126
20
0.070710678118501846
10
-30.332657388703197
20
44.52389342116934
10
-16.403368066821784
20
44.523893421169312
10
-16.33265738870314
20
42.261946710584652
10
-14.070710678118488
20
42.261946710584652
10
-14.000000000000199
20
44.523893421169305
10
-1.9999999999999574
20
56.523893421169277
10
-1.4210854715202004e-13
20
58.785840131753929
10
0
20
99.309733552923234
10
531.85857864376294
20
99.309733552923234
10
531.85857864376305
20
58.785840131753929
10
533.85857864376294
20
56.523893421169277
0
CIRCLE
5
101
100
AcDbEntity
8
INTERIOR_PROFILES
100
AcDbCircle
10
-115.92928932188144
20
78.047786842338496
30
0
40
1.6999999999999993
210
0
220
0
230
-1
0
CIRCLE
5
102
100
AcDbEntity
8
INTERIOR_PROFILES
100
AcDbCircle
10
-315.92928932188147
20
51.523893421169305
30
0
40
5
210
0
220
0
230
-1
0
CIRCLE
5
103
100
AcDbEntity
8
INTERIOR_PROFILES
100
AcDbCircle
10
-415.92928932188147
20
78.04778684233851
30
0
40
1.7000000000000171
210
0
220
0
230
-1
0
CIRCLE
5
104
100
AcDbEntity
8
INTERIOR_PROFILES
100
AcDbCircle
10
-15.929289321881441
20
78.047786842338496
30
0
40
1.6999999999999993
210
0
220
0
230
-1
0
CIRCLE
5
105
100
AcDbEntity
8
INTERIOR_PROFILES
100
AcDbCircle
10
-15.929289321881441
20
51.523893421169305
30
0
40
5
210
0
220
0
230
-1
0
CIRCLE
5
106
100
AcDbEntity
8
INTERIOR_PROFILES
100
AcDbCircle
10
-315.92928932188147
20
78.047786842338496
30
0
40
1.7000000000000171
210
0
220
0
230
-1
0
CIRCLE
5
107
100
AcDbEntity
8
INTERIOR_PROFILES
100
AcDbCircle
10
-265.92928932188147
20
51.523893421169305
30
0
40
5
210
0
220
0
230
-1
0
CIRCLE
5
108
100
AcDbEntity
8
INTERIOR_PROFILES
100
AcDbCircle
10
-365.92928932188147
20
51.523893421169305
30
0
40
5
210
0
220
0
230
-1
0
CIRCLE
5
109
100
AcDbEntity
8
INTERIOR_PROFILES
100
AcDbCircle
10
-555.1912360324676
20
24.261946710584652
30
0
40
1.7000000000000171
210
0
220
0
230
-1
0
CIRCLE
5
110
100
AcDbEntity
8
INTERIOR_PROFILES
100
AcDbCircle
10
-115.92928932188144
20
51.523893421169305
30
0
40
5
210
0
220
0
230
-1
0
CIRCLE
5
111
100
AcDbEntity
8
INTERIOR_PROFILES
100
AcDbCircle
10
-515.92928932188147
20
78.04778684233851
30
0
40
1.7000000000000171
210
0
220
0
230
-1
0
CIRCLE
5
112
100
AcDbEntity
8
INTERIOR_PROFILES
100
AcDbCircle
10
-215.92928932188144
20
78.047786842338496
30
0
40
1.7000000000000171
210
0
220
0
230
-1
0
CIRCLE
5
113
100
AcDbEntity
8
INTERIOR_PROFILES
100
AcDbCircle
10
-215.92928932188144
20
51.523893421169305
30
0
40
5
210
0
220
0
230
-1
0
CIRCLE
5
114
100
AcDbEntity
8
INTERIOR_PROFILES
100
AcDbCircle
10
-65.929289321881441
20
51.523893421169305
30
0
40
5
210
0
220
0
230
-1
0
CIRCLE
5
115
100
AcDbEntity
8
INTERIOR_PROFILES
100
AcDbCircle
10
-165.92928932188144
20
51.523893421169305
30
0
40
5
210
0
220
0
230
-1
0
CIRCLE
5
116
100
AcDbEntity
8
INTERIOR_PROFILES
100
AcDbCircle
10
-415.92928932188147
20
51.523893421169305
30
0
40
5
210
0
220
0
230
-1
0
CIRCLE
5
117
100
AcDbEntity
8
INTERIOR_PROFILES
100
AcDbCircle
10
-365.92928932188147
20
7.0000000000000062
30
0
40
1.7000000000000171
210
0
220
0
230
-1
0
CIRCLE
5
118
100
AcDbEntity
8
INTERIOR_PROFILES
100
AcDbCircle
10
-265.92928932188147
20
34.261946710584652
30
0
40
5
210
0
220
0
230
-1
0
CIRCLE
5
119
100
AcDbEntity
8
INTERIOR_PROFILES
100
AcDbCircle
10
-15.929289321881441
20
7.0000000000000062
30
0
40
5
210
0
220
0
230
-1
0
CIRCLE
5
120
100
AcDbEntity
8
INTERIOR_PROFILES
100
AcDbCircle
10
23.332657388701676
20
24.261946710584652
30
0
40
1.6999999999999993
210
0
220
0
230
-1
0
CIRCLE
5
121
100
AcDbEntity
8
INTERIOR_PROFILES
100
AcDbCircle
10
-65.929289321881441
20
7.0000000000000062
30
0
40
1.6999999999999993
210
0
220
0
230
-1
0
CIRCLE
5
122
100
AcDbEntity
8
INTERIOR_PROFILES
100
AcDbCircle
10
-465.92928932188147
20
51.523893421169305
30
0
40
5
210
0
220
0
230
-1
0
CIRCLE
5
123
100
AcDbEntity
8
INTERIOR_PROFILES
100
AcDbCircle
10
-165.92928932188144
20
7.0000000000000062
30
0
40
1.7000000000000171
210
0
220
0
230
-1
0
CIRCLE
5
124
100
AcDbEntity
8
INTERIOR_PROFILES
100
AcDbCircle
10
-465.92928932188147
20
7.0000000000000062
30
0
40
1.7000000000000171
210
0
220
0
230
-1
0
CIRCLE
5
125
100
AcDbEntity
8
INTERIOR_PROFILES
100
AcDbCircle
10
-515.92928932188147
20
7.0000000000000062
30
0
40
5
210
0
220
0
230
-1
0
CIRCLE
5
126
100
AcDbEntity
8
INTERIOR_PROFILES
100
AcDbCircle
10
-115.92928932188144
20
7.0000000000000062
30
0
40
5
210
0
220
0
230
-1
0
CIRCLE
5
127
100
AcDbEntity
8
INTERIOR_PROFILES
100
AcDbCircle
10
-265.92928932188147
20
7.0000000000000062
30
0
40
1.7000000000000171
210
0
220
0
230
-1
0
CIRCLE
5
128
100
AcDbEntity
8
INTERIOR_PROFILES
100
AcDbCircle
10
-315.92928932188147
20
7.0000000000000062
30
0
40
5
210
0
220
0
230
-1
0
CIRCLE
5
129
100
AcDbEntity
8
INTERIOR_PROFILES
100
AcDbCircle
10
-515.92928932188147
20
51.523893421169305
30
0
40
5
210
0
220
0
230
-1
0
CIRCLE
5
130
100
AcDbEntity
8
INTERIOR_PROFILES
100
AcDbCircle
10
-415.92928932188147
20
7.0000000000000062
30
0
40
5
210
0
220
0
230
-1
0
CIRCLE
5
131
100
AcDbEntity
8
INTERIOR_PROFILES
100
AcDbCircle
10
-215.92928932188144
20
7.0000000000000062
30
0
40
5
210
0
220
0
230
-1
0
LINE
5
132
100
AcDbEntity
8
BEND
100
AcDbLine
10
547.0602626771738
20
14.787470471037745
30
8.43341709416128e-14
11
547.0602626771738
21
43.736422950131427
31
-6.9958355391465988e-14
0
LINE
5
133
100
AcDbEntity
8
BEND
100
AcDbLine
10
562.19123603246612
20
43.392920065876979
30
-1.3070498968089667e-14
11
547.0602626771738
21
43.392920065876979
31
2.1212971805966578e-14
0
LINE
5
134
100
AcDbEntity
8
BEND
100
AcDbLine
10
547.0602626771738
20
43.392920065876979
30
2.1212971805966578e-14
11
-14.035355339059379
21
43.392920065876979
31
-8.5234995568724836e-14
0
LINE
5
135
100
AcDbEntity
8
BEND
100
AcDbLine
10
-15.201684033410814
20
42.26194671058466
30
-6.3032914705167373e-14
11
-15.201684033410814
21
14.787470471037807
31
-2.4496862673416684e-14
0
LINE
5
136
100
AcDbEntity
8
BEND
100
AcDbLine
10
-15.201684033410814
20
15.130973355292339
30
-3.1653161825320019e-15
11
547.0602626771738
21
15.130973355292339
31
-3.1653161825320019e-15
0
LINE
5
137
100
AcDbEntity
8
BEND
100
AcDbLine
10
547.0602626771738
20
15.130973355292339
30
-3.1653161825320019e-15
11
562.19123603246612
21
15.130973355292339
31
1.8994269170331072e-13
0
LINE
5
138
100
AcDbEntity
8
BEND
100
AcDbLine
10
-30.332657388703197
20
15.130973355292348
30
4.873030293570275e-14
11
-15.201684033410814
21
15.130973355292339
31
-3.1653161825320019e-15
0
LINE
5
139
100
AcDbEntity
8
BEND
100
AcDbLine
10
532.85857864376294
20
57.654866776461617
30
-1.1488677774753946e-13
11
-1.0000000000000853
21
57.654866776461617
31
-1.0986321131281265e-13
0
LINE
5
140
100
AcDbEntity
8
BEND
100
AcDbLine
10
-16.368012727762462
20
43.392920065876986
30
-7.7476705107971943e-14
11
-30.332657388703197
21
43.392920065876986
31
1.2940304934095392e-13
0
LINE
5
141
100
AcDbEntity
8
BEND
100
AcDbLine
10
-1.4210854715202004e-13
20
66.916813487046227
30
-8.3037568985972407e-14
11
531.85857864376305
21
66.916813487046227
31
-7.4155784788971129e-14
0
LINE
5
142
100
AcDbEntity
8
BEND
100
AcDbLine
10
-1.4210854715202004e-13
20
89.178760197630879
30
-7.9054124104396467e-14
11
531.85857864376305
21
89.178760197630879
31
-4.9910769707985995e-14
0
LINE
5
143
100
AcDbEntity
8
BEND_EXTENT
100
AcDbLine
10
-1.4210854715202004e-13
20
90.309733552923205
30
-6.1641779003632665e-14
11
531.85857864376305
21
90.309733552923205
31
-2.6114642215627659e-14
0
LINE
5
144
100
AcDbEntity
8
BEND_EXTENT
100
AcDbLine
10
531.85857864376294
20
88.047786842338553
30
-6.9973210946212636e-14
11
0
21
88.047786842338553
31
-7.8854995143213888e-14
0
LINE
5
145
100
AcDbEntity
8
BEND_EXTENT
100
AcDbLine
10
-1.4210854715202004e-13
20
68.047786842338553
30
-8.3572518729663513e-14
11
531.85857864376305
21
68.047786842338553
31
-7.4690734532662248e-14
0
LINE
5
146
100
AcDbEntity
8
BEND_EXTENT
100
AcDbLine
10
531.85857864376294
20
65.785840131753901
30
-8.3022166475242232e-14
11
0
21
65.785840131753901
31
-8.3022166475242232e-14
0
LINE
5
147
100
AcDbEntity
8
BEND_EXTENT
100
AcDbLine
10
-1.4210854715202004e-13
20
58.785840131753929
30
-1.097643400870282e-13
11
531.85857864376305
21
58.785840131753929
31
-1.0976434008702819e-13
0
LINE
5
148
100
AcDbEntity
8
BEND_EXTENT
100
AcDbLine
10
15.929289321881441
20
56.523893421169277
30
-1.1143443388185722e-13
11
-1.9999999999999574
21
56.523893421169277
31
-1.1143443388185722e-13
0
LINE
5
149
100
AcDbEntity
8
BEND_EXTENT
100
AcDbLine
10
65.929289321881441
20
56.523893421169277
30
-1.1143443388185722e-13
11
15.929289321881441
21
56.523893421169277
31
-1.1143443388185722e-13
0
LINE
5
150
100
AcDbEntity
8
BEND_EXTENT
100
AcDbLine
10
115.92928932188144
20
56.523893421169277
30
-1.1143443388185722e-13
11
65.929289321881441
21
56.523893421169277
31
-1.1143443388185722e-13
0
LINE
5
151
100
AcDbEntity
8
BEND_EXTENT
100
AcDbLine
10
165.92928932188144
20
56.523893421169277
30
-1.1143443388185722e-13
11
115.92928932188144
21
56.523893421169277
31
-1.1143443388185722e-13
0
LINE
5
152
100
AcDbEntity
8
BEND_EXTENT
100
AcDbLine
10
215.92928932188144
20
56.523893421169277
30
-1.1143443388185722e-13
11
165.92928932188144
21
56.523893421169277
31
-1.1143443388185722e-13
0
LINE
5
153
100
AcDbEntity
8
BEND_EXTENT
100
AcDbLine
10
265.92928932188147
20
56.523893421169277
30
-1.1143443388185722e-13
11
215.92928932188144
21
56.523893421169277
31
-1.1143443388185722e-13
0
LINE
5
154
100
AcDbEntity
8
BEND_EXTENT
100
AcDbLine
10
315.92928932188147
20
56.523893421169277
30
-1.1143443388185722e-13
11
265.92928932188147
21
56.523893421169277
31
-1.1143443388185722e-13
0
LINE
5
155
100
AcDbEntity
8
BEND_EXTENT
100
AcDbLine
10
365.92928932188147
20
56.523893421169277
30
-1.1143443388185722e-13
11
315.92928932188147
21
56.523893421169277
31
-1.1143443388185722e-13
0
LINE
5
156
100
AcDbEntity
8
BEND_EXTENT
100
AcDbLine
10
415.92928932188147
20
56.523893421169277
30
-1.1143443388185722e-13
11
365.92928932188147
21
56.523893421169277
31
-1.1143443388185722e-13
0
LINE
5
157
100
AcDbEntity
8
BEND_EXTENT
100
AcDbLine
10
465.92928932188147
20
56.523893421169277
30
-1.1143443388185722e-13
11
415.92928932188147
21
56.523893421169277
31
-1.1143443388185722e-13
0
LINE
5
158
100
AcDbEntity
8
BEND_EXTENT
100
AcDbLine
10
515.92928932188147
20
56.523893421169277
30
-1.1143443388185722e-13
11
465.92928932188147
21
56.523893421169277
31
-1.1143443388185722e-13
0
LINE
5
159
100
AcDbEntity
8
BEND_EXTENT
100
AcDbLine
10
533.85857864376294
20
56.523893421169277
30
-1.1143443388185722e-13
11
515.92928932188147
21
56.523893421169277
31
-1.1143443388185722e-13
0
LINE
5
160
100
AcDbEntity
8
BEND_EXTENT
100
AcDbLine
10
-16.33265738870314
20
42.261946710584652
30
-1.3350434353191612e-14
11
-30.332657388703197
21
42.261946710584652
31
2.2176702434813398e-14
0
LINE
5
161
100
AcDbEntity
8
BEND_EXTENT
100
AcDbLine
10
-16.33265738870314
20
16.261946710584656
30
4.4021541992982822e-14
11
-16.33265738870314
21
42.261946710584652
31
-1.3350434353191612e-14
0
LINE
5
162
100
AcDbEntity
8
BEND_EXTENT
100
AcDbLine
10
-30.332657388703197
20
16.261946710584656
30
7.9548678780987831e-14
11
-16.33265738870314
21
16.261946710584656
31
4.4021541992982822e-14
0
LINE
5
163
100
AcDbEntity
8
BEND_EXTENT
100
AcDbLine
10
562.19123603246612
20
14.000000000000021
30
2.1819467770727725e-13
11
548.26194671058477
21
14.000000000000021
31
8.2389938297783116e-14
0
LINE
5
164
100
AcDbEntity
8
BEND_EXTENT
100
AcDbLine
10
548.19123603246612
20
16.261946710584656
30
4.4021541992982822e-14
11
562.19123603246612
21
16.261946710584656
31
7.9548678780987831e-14
0
LINE
5
165
100
AcDbEntity
8
BEND_EXTENT
100
AcDbLine
10
548.19123603246612
20
42.261946710584652
30
-1.3350434353191612e-14
11
548.19123603246612
21
16.261946710584656
31
4.4021541992982822e-14
0
LINE
5
166
100
AcDbEntity
8
BEND_EXTENT
100
AcDbLine
10
562.19123603246612
20
42.261946710584652
30
2.2176702434813398e-14
11
548.19123603246612
21
42.261946710584652
31
-1.3350434353191612e-14
0
LINE
5
167
100
AcDbEntity
8
BEND_EXTENT
100
AcDbLine
10
-16.403368066821713
20
13.999999999999986
30
2.8860226770406867e-14
11
-30.332657388703126
21
13.999999999999986
31
5.8083555815886195e-14
0
LINE
5
168
100
AcDbEntity
8
BEND_EXTENT
100
AcDbLine
10
545.85857864376305
20
14.000000000000004
30
-2.2633845376889066e-14
11
-13.999999999999844
21
14.000000000000004
31
-2.2633845376889066e-14
0
LWPOLYLINE
5
169
100
AcDbEntity
8
BEND_EXTENT
100
AcDbPolyline
90
4
70
1
43
0.0
10
-14.070710678118488
20
16.261946710584656
10
545.92928932188147
20
16.261946710584656
10
545.92928932188147
20
42.261946710584652
10
-14.070710678118488
20
42.261946710584652
0
LINE
5
170
100
AcDbEntity
8
BEND_EXTENT
100
AcDbLine
10
-14.000000000000199
20
44.523893421169305
30
-8.9395952282123544e-14
11
545.85857864376283
21
44.523893421169305
31
-8.9395952282123544e-14
0
LINE
5
171
100
AcDbEntity
8
BEND_EXTENT
100
AcDbLine
10
548.26194671058477
20
44.523893421169305
30
-3.610524710011603e-14
11
562.19123603246612
21
44.523893421169305
31
-9.4598945091122695e-15
0
ENDSEC
0
SECTION
2
OBJECTS
0
DICTIONARY
5
C
100
AcDbDictionary
3
ACAD_GROUP
350
D
3
ACAD_MLINESTYLE
350
17
0
DICTIONARY
5
D
100
AcDbDictionary
0
DICTIONARY
5
1A
330
C
100
AcDbDictionary
0
DICTIONARY
5
17
100
AcDbDictionary
0
ENDSEC
0
EOF
