0
SECTION
2
HEADER
9
$INSUNITS
70
4
9
$ACADVER
1
AC1014
9
$HANDSEED
5
FFFF
0
ENDSEC
0
SECTION
2
TABLES
0
TABLE
2
VPORT
5
8
100
AcDbSymbolTable
0
ENDTAB
0
TABLE
2
LTYPE
5
5
100
AcDbSymbolTable
0
LTYPE
5
14
100
AcDbSymbolTableRecord
100
AcDbLinetypeTableRecord
2
BYBLOCK
70
0
0
LTYPE
5
15
100
AcDbSymbolTableRecord
100
AcDbLinetypeTableRecord
2
BYLAYER
70
0
0
LTYPE
5
16
100
AcDbSymbolTableRecord
100
AcDbLinetypeTableRecord
2
DASHED
70
0
3
Dashed __ __ __ __ __ __ __ __ __ __ __ __ __ _
72
65
73
2
40
0.75
49
0.5
74
0
49
-0.25
74
0
0
ENDTAB
0
TABLE
2
LAYER
5
2
100
AcDbSymbolTable
70
2
0
LAYER
5
50
100
AcDbSymbolTableRecord
100
AcDbLayerTableRecord
2
0
70
0
62
7
6
CONTINUOUS
0
ENDTAB
0
TABLE
2
STYLE
5
3
100
AcDbSymbolTable
70
1
0
STYLE
5
11
100
AcDbSymbolTableRecord
100
AcDbTextStyleTableRecord
2
STANDARD
70
0
0
ENDTAB
0
TABLE
2
VIEW
5
6
100
AcDbSymbolTable
70
0
0
ENDTAB
0
TABLE
2
UCS
5
7
100
AcDbSymbolTable
70
0
0
ENDTAB
0
TABLE
2
APPID
5
9
100
AcDbSymbolTable
70
2
0
APPID
5
12
100
AcDbSymbolTableRecord
100
AcDbRegAppTableRecord
2
ACAD
70
0
0
ENDTAB
0
TABLE
2
DIMSTYLE
5
A
100
AcDbSymbolTable
70
1
0
ENDTAB
0
TABLE
2
BLOCK_RECORD
5
1
100
AcDbSymbolTable
70
1
0
BLOCK_RECORD
5
1F
100
AcDbSymbolTableRecord
100
AcDbBlockTableRecord
2
*MODEL_SPACE
0
BLOCK_RECORD
5
1B
100
AcDbSymbolTableRecord
100
AcDbBlockTableRecord
2
*PAPER_SPACE
0
ENDTAB
0
ENDSEC
0
SECTION
2
BLOCKS
0
BLOCK
5
20
100
AcDbEntity
100
AcDbBlockBegin
2
*MODEL_SPACE
0
ENDBLK
5
21
100
AcDbEntity
100
AcDbBlockEnd
0
BLOCK
5
1C
100
AcDbEntity
100
AcDbBlockBegin
2
*PAPER_SPACE
0
ENDBLK
5
1D
100
AcDbEntity
100
AcDbBlockEnd
0
ENDSEC
0
SECTION
2
ENTITIES
0
LWPOLYLINE
5
100
100
AcDbEntity
8
OUTER_PROFILES
100
AcDbPolyline
90
22
70
1
43
0.0
10
-1.9999999999999574
20
56.523893421169277
10
-14.494577252224275
20
44.029316168944959
42
-0.41421356237309187
10
-15.908790814597362
20
44.029316168944973
10
-28.332657388703169
20
56.45318274305076
10
-30.332657388703197
20
56.45318274305076
10
-30.332657388703126
20
0.070710678118501846
10
-15.90879081459738
20
14.494577252224293
42
-0.41421356237310608
10
-14.494577252224257
20
14.494577252224301
10
0
20
0
10
531.85857864376294
20
0
10
546.35315589598724
20
14.494577252224452
42
-0.41421356237309548
10
547.76736945836035
20
14.494577252224403
10
562.19123603246612
20
0.070710678118537373
10
562.19123603246624
20
56.45318274305076
10
560.19123603246624
20
56.45318274305076
10
547.76736945836035
20
44.029316168944909
42
-0.41421356237311341
10
546.35315589598713
20
44.029316168944916
10
533.85857864376294
20
56.523893421169277
10
531.85857864376305
20
58.785840131753929
10
531.85857864376294
20
99.309733552923234
10
0
20
99.309733552923234
10
-1.4210854715202004e-13
20
58.785840131753929
0
CIRCLE
5
101
100
AcDbEntity
8
INTERIOR_PROFILES
100
AcDbCircle
10
-465.92928932188147
20
7.0000000000000062
30
0
40
1.7000000000000171
210
0
220
0
230
-1
0
CIRCLE
5
102
100
AcDbEntity
8
INTERIOR_PROFILES
100
AcDbCircle
10
-115.92928932188144
20
78.047786842338496
30
0
40
1.6999999999999993
210
0
220
0
230
-1
0
CIRCLE
5
103
100
AcDbEntity
8
INTERIOR_PROFILES
100
AcDbCircle
10
-315.92928932188147
20
7.0000000000000062
30
0
40
5
210
0
220
0
230
-1
0
CIRCLE
5
104
100
AcDbEntity
8
INTERIOR_PROFILES
100
AcDbCircle
10
-415.92928932188147
20
78.04778684233851
30
0
40
1.7000000000000171
210
0
220
0
230
-1
0
CIRCLE
5
105
100
AcDbEntity
8
INTERIOR_PROFILES
100
AcDbCircle
10
-15.929289321881441
20
78.047786842338496
30
0
40
1.6999999999999993
210
0
220
0
230
-1
0
CIRCLE
5
106
100
AcDbEntity
8
INTERIOR_PROFILES
100
AcDbCircle
10
-515.92928932188147
20
78.04778684233851
30
0
40
1.7000000000000171
210
0
220
0
230
-1
0
CIRCLE
5
107
100
AcDbEntity
8
INTERIOR_PROFILES
100
AcDbCircle
10
-65.929289321881441
20
51.523893421169305
30
0
40
5
210
0
220
0
230
-1
0
CIRCLE
5
108
100
AcDbEntity
8
INTERIOR_PROFILES
100
AcDbCircle
10
-165.92928932188144
20
51.523893421169305
30
0
40
5
210
0
220
0
230
-1
0
CIRCLE
5
109
100
AcDbEntity
8
INTERIOR_PROFILES
100
AcDbCircle
10
-15.929289321881441
20
51.523893421169305
30
0
40
5
210
0
220
0
230
-1
0
CIRCLE
5
110
100
AcDbEntity
8
INTERIOR_PROFILES
100
AcDbCircle
10
-555.1912360324676
20
24.261946710584652
30
0
40
1.7000000000000171
210
0
220
0
230
-1
0
CIRCLE
5
111
100
AcDbEntity
8
INTERIOR_PROFILES
100
AcDbCircle
10
-415.92928932188147
20
7.0000000000000062
30
0
40
5
210
0
220
0
230
-1
0
CIRCLE
5
112
100
AcDbEntity
8
INTERIOR_PROFILES
100
AcDbCircle
10
-265.92928932188147
20
51.523893421169305
30
0
40
5
210
0
220
0
230
-1
0
CIRCLE
5
113
100
AcDbEntity
8
INTERIOR_PROFILES
100
AcDbCircle
10
-365.92928932188147
20
51.523893421169305
30
0
40
5
210
0
220
0
230
-1
0
CIRCLE
5
114
100
AcDbEntity
8
INTERIOR_PROFILES
100
AcDbCircle
10
-315.92928932188147
20
78.047786842338496
30
0
40
1.7000000000000171
210
0
220
0
230
-1
0
CIRCLE
5
115
100
AcDbEntity
8
INTERIOR_PROFILES
100
AcDbCircle
10
-415.92928932188147
20
51.523893421169305
30
0
40
5
210
0
220
0
230
-1
0
CIRCLE
5
116
100
AcDbEntity
8
INTERIOR_PROFILES
100
AcDbCircle
10
-215.92928932188144
20
7.0000000000000062
30
0
40
5
210
0
220
0
230
-1
0
CIRCLE
5
117
100
AcDbEntity
8
INTERIOR_PROFILES
100
AcDbCircle
10
-115.92928932188144
20
51.523893421169305
30
0
40
5
210
0
220
0
230
-1
0
CIRCLE
5
118
100
AcDbEntity
8
INTERIOR_PROFILES
100
AcDbCircle
10
-515.92928932188147
20
51.523893421169305
30
0
40
5
210
0
220
0
230
-1
0
CIRCLE
5
119
100
AcDbEntity
8
INTERIOR_PROFILES
100
AcDbCircle
10
-265.92928932188147
20
34.261946710584652
30
0
40
5
210
0
220
0
230
-1
0
CIRCLE
5
120
100
AcDbEntity
8
INTERIOR_PROFILES
100
AcDbCircle
10
-315.92928932188147
20
51.523893421169305
30
0
40
5
210
0
220
0
230
-1
0
CIRCLE
5
121
100
AcDbEntity
8
INTERIOR_PROFILES
100
AcDbCircle
10
-215.92928932188144
20
51.523893421169305
30
0
40
5
210
0
220
0
230
-1
0
CIRCLE
5
122
100
AcDbEntity
8
INTERIOR_PROFILES
100
AcDbCircle
10
-265.92928932188147
20
7.0000000000000062
30
0
40
1.7000000000000171
210
0
220
0
230
-1
0
CIRCLE
5
123
100
AcDbEntity
8
INTERIOR_PROFILES
100
AcDbCircle
10
-65.929289321881441
20
7.0000000000000062
30
0
40
1.6999999999999993
210
0
220
0
230
-1
0
CIRCLE
5
124
100
AcDbEntity
8
INTERIOR_PROFILES
100
AcDbCircle
10
-165.92928932188144
20
7.0000000000000062
30
0
40
1.7000000000000171
210
0
220
0
230
-1
0
CIRCLE
5
125
100
AcDbEntity
8
INTERIOR_PROFILES
100
AcDbCircle
10
-15.929289321881441
20
7.0000000000000062
30
0
40
5
210
0
220
0
230
-1
0
CIRCLE
5
126
100
AcDbEntity
8
INTERIOR_PROFILES
100
AcDbCircle
10
-465.92928932188147
20
51.523893421169305
30
0
40
5
210
0
220
0
230
-1
0
CIRCLE
5
127
100
AcDbEntity
8
INTERIOR_PROFILES
100
AcDbCircle
10
-215.92928932188144
20
78.047786842338496
30
0
40
1.7000000000000171
210
0
220
0
230
-1
0
CIRCLE
5
128
100
AcDbEntity
8
INTERIOR_PROFILES
100
AcDbCircle
10
-515.92928932188147
20
7.0000000000000062
30
0
40
5
210
0
220
0
230
-1
0
CIRCLE
5
129
100
AcDbEntity
8
INTERIOR_PROFILES
100
AcDbCircle
10
-115.92928932188144
20
7.0000000000000062
30
0
40
5
210
0
220
0
230
-1
0
CIRCLE
5
130
100
AcDbEntity
8
INTERIOR_PROFILES
100
AcDbCircle
10
-365.92928932188147
20
7.0000000000000062
30
0
40
1.7000000000000171
210
0
220
0
230
-1
0
CIRCLE
5
131
100
AcDbEntity
8
INTERIOR_PROFILES
100
AcDbCircle
10
23.332657388701676
20
24.261946710584652
30
0
40
1.6999999999999993
210
0
220
0
230
-1
0
LINE
5
132
100
AcDbEntity
8
BEND
100
AcDbLine
10
547.0602626771738
20
14.787470471037745
30
-2.7928761972263331e-14
11
547.0602626771738
21
43.736422950131427
31
-4.0199479970153515e-13
0
LINE
5
133
100
AcDbEntity
8
BEND
100
AcDbLine
10
547.0602626771738
20
43.392920065876979
30
-3.0821568090605286e-13
11
-15.201684033410814
21
43.392920065876979
31
-3.9495718959364776e-13
0
LINE
5
134
100
AcDbEntity
8
BEND
100
AcDbLine
10
-15.201684033410814
20
43.392920065876979
30
-3.9495718959364776e-13
11
-30.332657388703197
21
43.392920065876986
31
-2.0002560337106555e-13
0
LINE
5
135
100
AcDbEntity
8
BEND
100
AcDbLine
10
562.19123603246612
20
43.392920065876979
30
-3.4249915168010911e-13
11
547.0602626771738
21
43.392920065876979
31
-3.0821568090605286e-13
0
LINE
5
136
100
AcDbEntity
8
BEND
100
AcDbLine
10
-15.201684033410814
20
43.736422950131633
30
-3.1594964426059599e-13
11
-15.201684033410814
21
14.787470471037807
31
-1.3675979558729327e-13
0
LINE
5
137
100
AcDbEntity
8
BEND
100
AcDbLine
10
-15.201684033410814
20
15.130973355292339
30
-1.1803604069445892e-13
11
547.0602626771738
21
15.130973355292339
31
-1.1803604069445892e-13
0
LINE
5
138
100
AcDbEntity
8
BEND
100
AcDbLine
10
547.0602626771738
20
15.130973355292339
30
-1.1803604069445892e-13
11
562.19123603246612
21
15.130973355292339
31
7.5071967191383785e-14
0
LINE
5
139
100
AcDbEntity
8
BEND
100
AcDbLine
10
-30.332657388703197
20
15.130973355292348
30
-6.6140421576224183e-14
11
-15.201684033410814
21
15.130973355292339
31
-1.1803604069445892e-13
0
LINE
5
140
100
AcDbEntity
8
BEND
100
AcDbLine
10
532.85857864376294
20
57.654866776461617
30
-5.5258871289332452e-13
11
-1.0000000000000853
21
57.654866776461617
31
-5.4756514645859775e-13
0
LINE
5
141
100
AcDbEntity
8
BEND
100
AcDbLine
10
-1.4210854715202004e-13
20
66.916813487046227
30
-5.9105398450612052e-13
11
531.85857864376305
21
66.916813487046227
31
-5.8217220030911926e-13
0
LINE
5
142
100
AcDbEntity
8
BEND
100
AcDbLine
10
-1.4210854715202004e-13
20
89.178760197630879
30
-7.5607790535335424e-13
11
531.85857864376305
21
89.178760197630879
31
-7.2693455095694388e-13
0
LINE
5
143
100
AcDbEntity
8
BEND_EXTENT
100
AcDbLine
10
-1.4210854715202004e-13
20
90.309733552923205
30
-7.472516389981905e-13
11
531.85857864376305
21
90.309733552923205
31
-7.1172450221018549e-13
0
LINE
5
144
100
AcDbEntity
8
BEND_EXTENT
100
AcDbLine
10
531.85857864376294
20
88.047786842338553
30
-7.3841091344957063e-13
11
0
21
88.047786842338553
31
-7.4729269764657188e-13
0
LINE
5
145
100
AcDbEntity
8
BEND_EXTENT
100
AcDbLine
10
-1.4210854715202004e-13
20
68.047786842338553
30
-6.0017501299541164e-13
11
531.85857864376305
21
68.047786842338553
31
-5.9129322879841039e-13
0
LINE
5
146
100
AcDbEntity
8
BEND_EXTENT
100
AcDbLine
10
531.85857864376294
20
65.785840131753901
30
-5.8245250324979051e-13
11
0
21
65.785840131753901
31
-5.8245250324979051e-13
0
LINE
5
147
100
AcDbEntity
8
BEND_EXTENT
100
AcDbLine
10
-1.4210854715202004e-13
20
58.785840131753929
30
-5.5605235397841319e-13
11
531.85857864376305
21
58.785840131753929
31
-5.5605235397841309e-13
0
LINE
5
148
100
AcDbEntity
8
BEND_EXTENT
100
AcDbLine
10
15.929289321881441
20
56.523893421169277
30
-5.4055029028204227e-13
11
-1.9999999999999574
21
56.523893421169277
31
-5.4055029028204227e-13
0
LINE
5
149
100
AcDbEntity
8
BEND_EXTENT
100
AcDbLine
10
65.929289321881441
20
56.523893421169277
30
-5.4055029028204227e-13
11
15.929289321881441
21
56.523893421169277
31
-5.4055029028204227e-13
0
LINE
5
150
100
AcDbEntity
8
BEND_EXTENT
100
AcDbLine
10
115.92928932188144
20
56.523893421169277
30
-5.4055029028204227e-13
11
65.929289321881441
21
56.523893421169277
31
-5.4055029028204227e-13
0
LINE
5
151
100
AcDbEntity
8
BEND_EXTENT
100
AcDbLine
10
165.92928932188144
20
56.523893421169277
30
-5.4055029028204227e-13
11
115.92928932188144
21
56.523893421169277
31
-5.4055029028204227e-13
0
LINE
5
152
100
AcDbEntity
8
BEND_EXTENT
100
AcDbLine
10
215.92928932188144
20
56.523893421169277
30
-5.4055029028204227e-13
11
165.92928932188144
21
56.523893421169277
31
-5.4055029028204227e-13
0
LINE
5
153
100
AcDbEntity
8
BEND_EXTENT
100
AcDbLine
10
265.92928932188147
20
56.523893421169277
30
-5.4055029028204227e-13
11
215.92928932188144
21
56.523893421169277
31
-5.4055029028204227e-13
0
LINE
5
154
100
AcDbEntity
8
BEND_EXTENT
100
AcDbLine
10
315.92928932188147
20
56.523893421169277
30
-5.4055029028204227e-13
11
265.92928932188147
21
56.523893421169277
31
-5.4055029028204227e-13
0
LINE
5
155
100
AcDbEntity
8
BEND_EXTENT
100
AcDbLine
10
365.92928932188147
20
56.523893421169277
30
-5.4055029028204227e-13
11
315.92928932188147
21
56.523893421169277
31
-5.4055029028204227e-13
0
LINE
5
156
100
AcDbEntity
8
BEND_EXTENT
100
AcDbLine
10
415.92928932188147
20
56.523893421169277
30
-5.4055029028204227e-13
11
365.92928932188147
21
56.523893421169277
31
-5.4055029028204227e-13
0
LINE
5
157
100
AcDbEntity
8
BEND_EXTENT
100
AcDbLine
10
465.92928932188147
20
56.523893421169277
30
-5.4055029028204227e-13
11
415.92928932188147
21
56.523893421169277
31
-5.4055029028204227e-13
0
LINE
5
158
100
AcDbEntity
8
BEND_EXTENT
100
AcDbLine
10
515.92928932188147
20
56.523893421169277
30
-5.4055029028204227e-13
11
465.92928932188147
21
56.523893421169277
31
-5.4055029028204227e-13
0
LINE
5
159
100
AcDbEntity
8
BEND_EXTENT
100
AcDbLine
10
533.85857864376294
20
56.523893421169277
30
-5.4055029028204227e-13
11
515.92928932188147
21
56.523893421169277
31
-5.4055029028204227e-13
0
LINE
5
160
100
AcDbEntity
8
BEND_EXTENT
100
AcDbLine
10
-30.332657388703126
20
44.52389342116934
30
-1.8316161832220886e-13
11
-16.403368066821784
21
44.523893421169305
31
-3.2082927337572792e-13
0
LINE
5
161
100
AcDbEntity
8
BEND_EXTENT
100
AcDbLine
10
-16.33265738870314
20
42.261946710584652
30
-3.3419300831961112e-13
11
-30.332657388703197
21
42.261946710584652
31
-2.9866587153160612e-13
0
LINE
5
162
100
AcDbEntity
8
BEND_EXTENT
100
AcDbLine
10
-16.33265738870314
20
16.261946710584656
30
-7.9435261264543951e-14
11
-16.33265738870314
21
42.261946710584652
31
-3.3419300831961112e-13
0
LINE
5
163
100
AcDbEntity
8
BEND_EXTENT
100
AcDbLine
10
-30.332657388703197
20
16.261946710584656
30
-4.3908124476538941e-14
11
-16.33265738870314
21
16.261946710584656
31
-7.9435261264543951e-14
0
LINE
5
164
100
AcDbEntity
8
BEND_EXTENT
100
AcDbLine
10
562.19123603246612
20
14.000000000000021
30
1.119100319409502e-13
11
548.26194671058477
21
14.000000000000021
31
-2.3894707468543939e-14
0
LINE
5
165
100
AcDbEntity
8
BEND_EXTENT
100
AcDbLine
10
548.19123603246612
20
16.261946710584656
30
-7.9435261264543951e-14
11
562.19123603246612
21
16.261946710584656
31
-4.3908124476538941e-14
0
LINE
5
166
100
AcDbEntity
8
BEND_EXTENT
100
AcDbLine
10
548.19123603246612
20
42.261946710584652
30
-3.3419300831961112e-13
11
548.19123603246612
21
16.261946710584656
31
-7.9435261264543951e-14
0
LINE
5
167
100
AcDbEntity
8
BEND_EXTENT
100
AcDbLine
10
562.19123603246612
20
42.261946710584652
30
-2.9866587153160612e-13
11
548.19123603246612
21
42.261946710584652
31
-3.3419300831961112e-13
0
LINE
5
168
100
AcDbEntity
8
BEND_EXTENT
100
AcDbLine
10
-16.403368066821713
20
13.999999999999986
30
-7.7424418995919878e-14
11
-30.332657388703126
21
13.999999999999986
31
-4.8201089950440582e-14
0
LINE
5
169
100
AcDbEntity
8
BEND_EXTENT
100
AcDbLine
10
545.85857864376305
20
14.000000000000004
30
-1.2891849114321599e-13
11
-13.999999999999844
21
14.000000000000004
31
-1.2891849114321599e-13
0
LWPOLYLINE
5
170
100
AcDbEntity
8
BEND_EXTENT
100
AcDbPolyline
90
4
70
1
43
0.0
10
-14.070710678118488
20
16.261946710584656
10
545.92928932188147
20
16.261946710584656
10
545.92928932188147
20
42.261946710584652
10
-14.070710678118488
20
42.261946710584652
0
LINE
5
171
100
AcDbEntity
8
BEND_EXTENT
100
AcDbLine
10
-14.000000000000199
20
44.523893421169305
30
-4.2741068373974294e-13
11
545.85857864376283
21
44.523893421169305
31
-4.2741068373974294e-13
0
LINE
5
172
100
AcDbEntity
8
BEND_EXTENT
100
AcDbLine
10
548.26194671058477
20
44.523893421169305
30
-3.7411997855773543e-13
11
562.19123603246612
21
44.523893421169305
31
-3.4747462596673167e-13
0
ENDSEC
0
SECTION
2
OBJECTS
0
DICTIONARY
5
C
100
AcDbDictionary
3
ACAD_GROUP
350
D
3
ACAD_MLINESTYLE
350
17
0
DICTIONARY
5
D
100
AcDbDictionary
0
DICTIONARY
5
1A
330
C
100
AcDbDictionary
0
DICTIONARY
5
17
100
AcDbDictionary
0
ENDSEC
0
EOF
