0
SECTION
2
HEADER
9
$INSUNITS
70
4
9
$ACADVER
1
AC1014
9
$HANDSEED
5
FFFF
0
ENDSEC
0
SECTION
2
TABLES
0
TABLE
2
VPORT
5
8
100
AcDbSymbolTable
0
ENDTAB
0
TABLE
2
LTYPE
5
5
100
AcDbSymbolTable
0
LTYPE
5
14
100
AcDbSymbolTableRecord
100
AcDbLinetypeTableRecord
2
BYBLOCK
70
0
0
LTYPE
5
15
100
AcDbSymbolTableRecord
100
AcDbLinetypeTableRecord
2
BYLAYER
70
0
0
LTYPE
5
16
100
AcDbSymbolTableRecord
100
AcDbLinetypeTableRecord
2
DASHED
70
0
3
Dashed __ __ __ __ __ __ __ __ __ __ __ __ __ _
72
65
73
2
40
0.75
49
0.5
74
0
49
-0.25
74
0
0
ENDTAB
0
TABLE
2
LAYER
5
2
100
AcDbSymbolTable
70
2
0
LAYER
5
50
100
AcDbSymbolTableRecord
100
AcDbLayerTableRecord
2
0
70
0
62
7
6
CONTINUOUS
0
ENDTAB
0
TABLE
2
STYLE
5
3
100
AcDbSymbolTable
70
1
0
STYLE
5
11
100
AcDbSymbolTableRecord
100
AcDbTextStyleTableRecord
2
STANDARD
70
0
0
ENDTAB
0
TABLE
2
VIEW
5
6
100
AcDbSymbolTable
70
0
0
ENDTAB
0
TABLE
2
UCS
5
7
100
AcDbSymbolTable
70
0
0
ENDTAB
0
TABLE
2
APPID
5
9
100
AcDbSymbolTable
70
2
0
APPID
5
12
100
AcDbSymbolTableRecord
100
AcDbRegAppTableRecord
2
ACAD
70
0
0
ENDTAB
0
TABLE
2
DIMSTYLE
5
A
100
AcDbSymbolTable
70
1
0
ENDTAB
0
TABLE
2
BLOCK_RECORD
5
1
100
AcDbSymbolTable
70
1
0
BLOCK_RECORD
5
1F
100
AcDbSymbolTableRecord
100
AcDbBlockTableRecord
2
*MODEL_SPACE
0
BLOCK_RECORD
5
1B
100
AcDbSymbolTableRecord
100
AcDbBlockTableRecord
2
*PAPER_SPACE
0
ENDTAB
0
ENDSEC
0
SECTION
2
BLOCKS
0
BLOCK
5
20
100
AcDbEntity
100
AcDbBlockBegin
2
*MODEL_SPACE
0
ENDBLK
5
21
100
AcDbEntity
100
AcDbBlockEnd
0
BLOCK
5
1C
100
AcDbEntity
100
AcDbBlockBegin
2
*PAPER_SPACE
0
ENDBLK
5
1D
100
AcDbEntity
100
AcDbBlockEnd
0
ENDSEC
0
SECTION
2
ENTITIES
0
LWPOLYLINE
5
100
100
AcDbEntity
8
OUTER_PROFILES
100
AcDbPolyline
90
32
70
1
43
0.0
10
-1.2937318845624594e-27
20
0
10
673.00000000000011
20
0
10
673.00000000000011
20
16.261946710584674
10
703.52389342116919
20
16.261946710584702
10
703.52389342116908
20
82.191236032465596
10
689.52389342116919
20
82.191236032465568
10
687.26194671058454
20
84.191236032465724
10
674.76736945836024
20
96.685813284690141
42
-0.414213562373073
10
674.76736945836024
20
98.100026847063191
10
687.19123603246567
20
110.52389342116875
10
689.19123603246578
20
112.78584013175364
10
689.19123603246567
20
126.78584013175356
10
679.33265738870296
20
126.7858401317535
10
679.33265738870307
20
116.7858401317535
10
674.83808013647877
20
112.29126287952911
42
-0.41421356237311707
10
673.42386657410555
20
112.29126287952911
10
668.92928932188147
20
116.78584013175323
10
4.0707106781185587
20
116.7858401317537
10
-0.42386657410577777
20
112.2912628795292
42
-0.41421356237310147
10
-1.8380801364788923
20
112.29126287952917
10
-6.3326573887030282
20
116.78584013175359
10
-6.332657388702934
20
126.78584013175359
10
-16.191236032465763
20
126.78584013175364
10
-16.191236032465866
20
112.78584013175379
10
-14.191236032465756
20
110.52389342116923
10
-1.7673694583600641
20
98.100026847063532
42
-0.41421356237309442
10
-1.7673694583600641
20
96.68581328469044
10
-14.261946710584324
20
84.191236032466307
10
-16.523893421169269
20
82.191236032466165
10
-30.523893421169042
20
82.191236032466037
10
-30.523893421169504
20
16.261946710584656
10
-2.5757174171303632e-13
20
16.261946710584681
0
CIRCLE
5
101
100
AcDbEntity
8
INTERIOR_PROFILES
100
AcDbCircle
10
23.523893421178492
20
77.761946710585008
30
0
40
1.6999999999999993
210
0
220
0
230
-1
0
CIRCLE
5
102
100
AcDbEntity
8
INTERIOR_PROFILES
100
AcDbCircle
10
36.500000000003638
20
22.261946710584589
30
0
40
1.6999999999999815
210
0
220
0
230
1
0
CIRCLE
5
103
100
AcDbEntity
8
INTERIOR_PROFILES
100
AcDbCircle
10
-696.52389342116794
20
77.761946710584411
30
0
40
1.6999999999999993
210
0
220
0
230
-1
0
CIRCLE
5
104
100
AcDbEntity
8
INTERIOR_PROFILES
100
AcDbCircle
10
636.500000000005
20
22.261946710576908
30
0
40
1.699999999999946
210
0
220
0
230
1
0
CIRCLE
5
105
100
AcDbEntity
8
INTERIOR_PROFILES
100
AcDbCircle
10
336.50000000000119
20
22.261946710586074
30
0
40
1.7000000000000171
210
0
220
0
230
1
0
CIRCLE
5
106
100
AcDbEntity
8
INTERIOR_PROFILES
100
AcDbCircle
10
23.523893421178897
20
45.761946710585008
30
0
40
1.6999999999999993
210
0
220
0
230
-1
0
CIRCLE
5
107
100
AcDbEntity
8
INTERIOR_PROFILES
100
AcDbCircle
10
-696.52389342116805
20
45.761946710584411
30
0
40
1.6999999999999993
210
0
220
0
230
-1
0
LWPOLYLINE
5
108
100
AcDbEntity
8
BEND_EXTENT
100
AcDbPolyline
90
4
70
1
43
0.0
10
673
20
110.52389342116875
10
1.4210854715202004e-13
20
110.52389342116922
10
2.3015814507248453e-13
20
98.523893421169333
10
673
20
98.523893421168864
0
LWPOLYLINE
5
109
100
AcDbEntity
8
BEND_EXTENT
100
AcDbPolyline
90
4
70
1
43
0.0
10
673.00000000000011
20
16.261946710584674
10
673
20
96.261946710584198
10
2.8421709430404007e-13
20
96.261946710584652
10
-2.5864279168543539e-13
20
16.261946710584681
0
ENDSEC
0
SECTION
2
OBJECTS
0
DICTIONARY
5
C
100
AcDbDictionary
3
ACAD_GROUP
350
D
3
ACAD_MLINESTYLE
350
17
0
DICTIONARY
5
D
100
AcDbDictionary
0
DICTIONARY
5
1A
330
C
100
AcDbDictionary
0
DICTIONARY
5
17
100
AcDbDictionary
0
ENDSEC
0
EOF
