0
SECTION
2
HEADER
9
$INSUNITS
70
4
9
$ACADVER
1
AC1014
9
$HANDSEED
5
FFFF
0
ENDSEC
0
SECTION
2
TABLES
0
TABLE
2
VPORT
5
8
100
AcDbSymbolTable
0
ENDTAB
0
TABLE
2
LTYPE
5
5
100
AcDbSymbolTable
0
LTYPE
5
14
100
AcDbSymbolTableRecord
100
AcDbLinetypeTableRecord
2
BYBLOCK
70
0
0
LTYPE
5
15
100
AcDbSymbolTableRecord
100
AcDbLinetypeTableRecord
2
BYLAYER
70
0
0
LTYPE
5
16
100
AcDbSymbolTableRecord
100
AcDbLinetypeTableRecord
2
DASHED
70
0
3
Dashed __ __ __ __ __ __ __ __ __ __ __ __ __ _
72
65
73
2
40
0.75
49
0.5
74
0
49
-0.25
74
0
0
ENDTAB
0
TABLE
2
LAYER
5
2
100
AcDbSymbolTable
70
2
0
LAYER
5
50
100
AcDbSymbolTableRecord
100
AcDbLayerTableRecord
2
0
70
0
62
7
6
CONTINUOUS
0
ENDTAB
0
TABLE
2
STYLE
5
3
100
AcDbSymbolTable
70
1
0
STYLE
5
11
100
AcDbSymbolTableRecord
100
AcDbTextStyleTableRecord
2
STANDARD
70
0
0
ENDTAB
0
TABLE
2
VIEW
5
6
100
AcDbSymbolTable
70
0
0
ENDTAB
0
TABLE
2
UCS
5
7
100
AcDbSymbolTable
70
0
0
ENDTAB
0
TABLE
2
APPID
5
9
100
AcDbSymbolTable
70
2
0
APPID
5
12
100
AcDbSymbolTableRecord
100
AcDbRegAppTableRecord
2
ACAD
70
0
0
ENDTAB
0
TABLE
2
DIMSTYLE
5
A
100
AcDbSymbolTable
70
1
0
ENDTAB
0
TABLE
2
BLOCK_RECORD
5
1
100
AcDbSymbolTable
70
1
0
BLOCK_RECORD
5
1F
100
AcDbSymbolTableRecord
100
AcDbBlockTableRecord
2
*MODEL_SPACE
0
BLOCK_RECORD
5
1B
100
AcDbSymbolTableRecord
100
AcDbBlockTableRecord
2
*PAPER_SPACE
0
ENDTAB
0
ENDSEC
0
SECTION
2
BLOCKS
0
BLOCK
5
20
100
AcDbEntity
100
AcDbBlockBegin
2
*MODEL_SPACE
0
ENDBLK
5
21
100
AcDbEntity
100
AcDbBlockEnd
0
BLOCK
5
1C
100
AcDbEntity
100
AcDbBlockBegin
2
*PAPER_SPACE
0
ENDBLK
5
1D
100
AcDbEntity
100
AcDbBlockEnd
0
ENDSEC
0
SECTION
2
ENTITIES
0
LWPOLYLINE
5
100
100
AcDbEntity
8
OUTER_PROFILES
100
AcDbPolyline
90
32
70
1
43
0.0
10
-1.8380801364771093
20
227.29126287952988
10
-6.3326573887016586
20
231.7858401317543
10
-6.3326573887017625
20
241.7858401317543
10
-16.191236032464566
20
241.78584013175424
10
-16.191236032464467
20
227.78584013175418
10
-14.191236032464467
20
225.52389342116942
10
-1.7673694583582491
20
213.1000268470633
42
-0.41421356237309515
10
-1.7673694583582482
20
211.6858132846902
10
-14.261946710582599
20
199.19123603246604
10
-16.523893421167429
20
197.19123603246618
10
-30.523893421167415
20
197.19123603246612
10
-30.523893421168374
20
16.26194671058478
10
5.1958437552457326e-13
20
16.261946710584674
10
-2.0194839173657902e-27
20
0
10
773.00000000000125
20
0
10
773.0000000000008
20
16.261946710584674
10
803.52389342116953
20
16.261946710584283
10
803.52389342116965
20
197.19123603246558
10
789.52389342116953
20
197.19123603246595
10
787.26194671058511
20
199.19123603246584
10
774.76736945836115
20
211.68581328468952
42
-0.41421356237313184
10
774.76736945836115
20
213.10002684706274
10
787.19123603246771
20
225.52389342116882
10
789.19123603246794
20
227.78584013175347
10
789.19123603246805
20
241.78584013175353
10
779.33265738870534
20
241.78584013175382
10
779.33265738870523
20
231.78584013175382
10
774.83808013648058
20
227.29126287952923
42
-0.41421356237310974
10
773.42386657410748
20
227.29126287952923
10
768.92928932188306
20
231.78584013175342
10
4.0707106781201219
20
231.78584013175396
10
-0.42386657410403927
20
227.29126287952988
42
-0.41421356237309215
0
CIRCLE
5
101
100
AcDbEntity
8
INTERIOR_PROFILES
100
AcDbCircle
10
-796.52389342116817
20
77.761946710584482
30
0
40
1.6999999999999993
210
0
220
0
230
-1
0
CIRCLE
5
102
100
AcDbEntity
8
INTERIOR_PROFILES
100
AcDbCircle
10
23.523893421180784
20
77.761946710585121
30
0
40
1.6999999999999993
210
0
220
0
230
-1
0
CIRCLE
5
103
100
AcDbEntity
8
INTERIOR_PROFILES
100
AcDbCircle
10
23.523893421179672
20
173.26194671058514
30
0
40
1.7000000000000171
210
0
220
0
230
-1
0
CIRCLE
5
104
100
AcDbEntity
8
INTERIOR_PROFILES
100
AcDbCircle
10
386.49999999999886
20
22.261946710584688
30
0
40
1.7000000000000171
210
0
220
0
230
1
0
CIRCLE
5
105
100
AcDbEntity
8
INTERIOR_PROFILES
100
AcDbCircle
10
36.500000000001251
20
22.261946710584581
30
0
40
1.7000000000000171
210
0
220
0
230
1
0
CIRCLE
5
106
100
AcDbEntity
8
INTERIOR_PROFILES
100
AcDbCircle
10
736.50000000000648
20
22.261946710583125
30
0
40
1.7000000000000171
210
0
220
0
230
1
0
CIRCLE
5
107
100
AcDbEntity
8
INTERIOR_PROFILES
100
AcDbCircle
10
-796.52389342116817
20
109.26194671058448
30
0
40
1.6999999999999993
210
0
220
0
230
-1
0
CIRCLE
5
108
100
AcDbEntity
8
INTERIOR_PROFILES
100
AcDbCircle
10
23.523893421181107
20
45.761946710585129
30
0
40
1.6999999999999993
210
0
220
0
230
-1
0
CIRCLE
5
109
100
AcDbEntity
8
INTERIOR_PROFILES
100
AcDbCircle
10
-796.52389342116805
20
45.761946710584454
30
0
40
1.6999999999999993
210
0
220
0
230
-1
0
CIRCLE
5
110
100
AcDbEntity
8
INTERIOR_PROFILES
100
AcDbCircle
10
-781.26194671058624
20
234.78584013175242
30
0
40
1.7000000000000171
210
0
220
0
230
-1
0
CIRCLE
5
111
100
AcDbEntity
8
INTERIOR_PROFILES
100
AcDbCircle
10
8.2619467105830449
20
234.78584013176615
30
0
40
1.7000000000000004
210
0
220
0
230
-1
0
CIRCLE
5
112
100
AcDbEntity
8
INTERIOR_PROFILES
100
AcDbCircle
10
-796.52389342116817
20
173.26194671058448
30
0
40
1.7000000000000171
210
0
220
0
230
-1
0
CIRCLE
5
113
100
AcDbEntity
8
INTERIOR_PROFILES
100
AcDbCircle
10
23.523893421180393
20
109.26194671058514
30
0
40
1.6999999999999993
210
0
220
0
230
-1
0
LINE
5
114
100
AcDbEntity
8
BEND
100
AcDbLine
10
788.19123603246783
20
226.65486677646103
30
-9.806636524495552e-14
11
774.13097335529324
21
226.65486677646103
31
-1.7310485280472506e-13
0
LINE
5
115
100
AcDbEntity
8
BEND
100
AcDbLine
10
774.13097335529324
20
226.65486677646103
30
-1.7310485280472506e-13
11
-1.130973355290763
21
226.6548667764618
31
-5.2601677504227686e-13
0
LINE
5
116
100
AcDbEntity
8
BEND
100
AcDbLine
10
-1.130973355290763
20
226.6548667764618
30
-5.2601677504227686e-13
11
-15.191236032464468
21
226.65486677646183
31
1.1881381068015114e-13
0
LINE
5
117
100
AcDbEntity
8
BEND
100
AcDbLine
10
774.13097335529324
20
212.39292006587647
30
-5.5751275194976385e-13
11
774.13097335529324
21
226.99836966071592
31
8.6407645609576546e-14
0
LINE
5
118
100
AcDbEntity
8
BEND
100
AcDbLine
10
774.13097335529358
20
16.261946710584638
30
1.2648366217949948e-12
11
774.13097335529324
21
212.39292006587647
31
-5.5751275194976385e-13
0
LINE
5
119
100
AcDbEntity
8
BEND
100
AcDbLine
10
-1.1309733552908103
20
226.99836966071646
30
-6.8775925155319039e-13
11
-1.1309733552908323
21
212.39292006587704
31
-5.5751275194976577e-13
0
LINE
5
120
100
AcDbEntity
8
BEND
100
AcDbLine
10
-1.1309733552908323
20
212.39292006587704
30
-5.5751275194976577e-13
11
-1.1309733552915289
21
16.261946710584709
31
1.2563259344488844e-12
0
LINE
5
121
100
AcDbEntity
8
BEND
100
AcDbLine
10
788.39292006587721
20
16.261946710584638
30
1.7484552454654251e-11
11
788.39292006587721
21
198.19123603246584
31
1.6844743915278241e-11
0
LINE
5
122
100
AcDbEntity
8
BEND
100
AcDbLine
10
-15.392920065875069
20
198.19123603246612
30
1.4857404703373338e-11
11
-15.392920065876163
21
16.261946710584745
31
1.5764658213833478e-11
0
LINE
5
123
100
AcDbEntity
8
BEND
100
AcDbLine
10
5.1822283786085351e-13
20
15.130973355292348
30
1.2734904529762798e-13
11
773.0000000000008
21
15.130973355292348
31
1.2734904529762785e-13
0
LINE
5
124
100
AcDbEntity
8
BEND
100
AcDbLine
10
774.47447623954758
20
212.39292006587647
30
1.9587731463927981e-13
11
-1.4744762395446287
21
212.39292006587704
31
1.6266541502011492e-12
0
LINE
5
125
100
AcDbEntity
8
BEND_EXTENT
100
AcDbLine
10
-16.523893421168459
20
16.26194671058478
30
1.6868536967219328e-11
11
-16.523893421167429
21
197.19123603246618
31
1.6215204947257705e-11
0
LINE
5
126
100
AcDbEntity
8
BEND_EXTENT
100
AcDbLine
10
-14.261946710582599
20
199.19123603246604
30
1.3678993117057447e-11
11
-14.2619467105837
21
16.261946710584745
31
1.461478422723026e-11
0
LINE
5
127
100
AcDbEntity
8
BEND_EXTENT
100
AcDbLine
10
789.52389342116953
20
197.19123603246595
30
1.8098143197021971e-11
11
789.52389342116942
21
16.261946710584638
31
1.8742593432786592e-11
0
LINE
5
128
100
AcDbEntity
8
BEND_EXTENT
100
AcDbLine
10
787.26194671058488
20
16.261946710584638
30
1.617797824590248e-11
11
787.26194671058511
21
199.19123603246584
31
1.5526404230033709e-11
0
LINE
5
129
100
AcDbEntity
8
BEND_EXTENT
100
AcDbLine
10
0.070710678119799253
20
227.78584013175396
30
-5.8042172884682651e-13
11
772.92928932188374
21
227.78584013175347
31
-5.2713102366481718e-13
0
LWPOLYLINE
5
130
100
AcDbEntity
8
BEND_EXTENT
100
AcDbPolyline
90
4
70
1
43
0.0
10
773.00000000000136
20
225.52389342116885
10
1.5631940186722204e-12
20
225.52389342116939
10
1.6425017058427837e-12
20
213.52389342116936
10
773.00000000000136
20
213.52389342116882
0
LINE
5
131
100
AcDbEntity
8
BEND_EXTENT
100
AcDbLine
10
775.33265738870523
20
227.78584013175364
30
1.9007305024303326e-13
11
789.19123603246794
21
227.78584013175347
31
-2.251503609667747e-13
0
LINE
5
132
100
AcDbEntity
8
BEND_EXTENT
100
AcDbLine
10
787.19123603246771
20
225.52389342116882
30
-1.9932998708601679e-13
11
775.26194671058624
21
225.52389342116885
31
8.4887107218023157e-14
0
LINE
5
133
100
AcDbEntity
8
BEND_EXTENT
100
AcDbLine
10
775.26194671058624
20
225.52389342116885
30
8.4887107218023157e-14
11
775.26194671058602
21
213.59460409928758
31
-2.9894771727410249e-13
0
LINE
5
134
100
AcDbEntity
8
BEND_EXTENT
100
AcDbLine
10
-16.191236032464467
20
227.78584013175418
30
1.4566412925802511e-13
11
-2.3326573887016799
21
227.78584013175421
31
-6.1816931168408274e-13
0
LINE
5
135
100
AcDbEntity
8
BEND_EXTENT
100
AcDbLine
10
-2.2619467105831905
20
225.52389342116939
30
-5.5460135496606883e-13
11
-14.19123603246447
21
225.52389342116942
31
1.5594138079403136e-13
0
LINE
5
136
100
AcDbEntity
8
BEND_EXTENT
100
AcDbLine
10
-2.2619467105830986
20
213.59460409928815
30
-5.8316481157814463e-13
11
-2.2619467105831905
21
225.52389342116939
31
-5.5460135496606883e-13
0
LINE
5
137
100
AcDbEntity
8
BEND_EXTENT
100
AcDbLine
10
-2.2619467105854176
20
16.261946710584674
30
2.3934491721565396e-12
11
-2.2619467105824951
21
211.19123603246578
31
1.4149153813588253e-12
0
LINE
5
138
100
AcDbEntity
8
BEND_EXTENT
100
AcDbLine
10
775.26194671058511
20
211.19123603246544
30
1.6991324756628668e-12
11
775.2619467105867
21
16.261946710584674
31
2.3934491721565396e-12
0
LWPOLYLINE
5
139
100
AcDbEntity
8
BEND_EXTENT
100
AcDbPolyline
90
4
70
1
43
0.0
10
773.0000000000008
20
16.261946710584674
10
773.00000000000136
20
211.26194671058408
10
1.5631940186722204e-12
20
211.26194671058468
10
5.1894942248994567e-13
20
16.261946710584674
0
LINE
5
140
100
AcDbEntity
8
BEND_EXTENT
100
AcDbLine
10
773.00000000000114
20
14.000000000000021
30
1.2776922321097383e-13
11
2.8421709430404007e-13
21
14.000000000000021
31
1.6329635999897884e-13
0
ENDSEC
0
SECTION
2
OBJECTS
0
DICTIONARY
5
C
100
AcDbDictionary
3
ACAD_GROUP
350
D
3
ACAD_MLINESTYLE
350
17
0
DICTIONARY
5
D
100
AcDbDictionary
0
DICTIONARY
5
1A
330
C
100
AcDbDictionary
0
DICTIONARY
5
17
100
AcDbDictionary
0
ENDSEC
0
EOF
